<?xml version="1.0" encoding="UTF-8" ?>
<!DOCTYPE svg PUBLIC "-//W3C//DTD SVG 1.1//EN" "http://www.w3.org/Graphics/SVG/1.1/DTD/svg11.dtd">
<svg width="192pt" height="192pt" viewBox="0 0 192 192" version="1.1" xmlns="http://www.w3.org/2000/svg">
<g id="#ff3662ff">
<path fill="#ff3662" opacity="1.00" d=" M 84.41 14.52 C 116.10 9.59 149.57 25.50 165.93 53.04 C 178.44 73.29 181.27 99.10 173.66 121.64 C 164.32 150.39 137.87 172.60 107.89 176.68 C 76.30 181.75 42.77 166.09 26.28 138.69 C 8.47 110.71 10.38 71.98 30.86 45.90 C 43.71 28.99 63.35 17.40 84.41 14.52 M 87.38 25.46 C 63.28 28.12 41.44 44.37 31.55 66.44 C 18.21 94.76 26.76 131.24 51.45 150.54 C 77.40 172.46 119.16 171.19 143.70 147.69 C 167.56 126.64 173.65 88.83 157.74 61.30 C 144.34 36.54 115.31 21.73 87.38 25.46 Z" />
<path fill="#ff3662" opacity="1.00" d=" M 95.63 44.61 C 109.85 43.85 123.95 50.85 132.54 62.09 C 129.08 70.35 123.93 78.13 119.19 85.81 C 111.28 72.12 103.11 58.55 95.63 44.61 Z" />
<path fill="#ff3662" opacity="1.00" d=" M 50.03 68.87 C 56.39 55.90 69.78 47.11 84.03 45.55 C 88.65 53.31 93.24 61.11 97.51 69.07 C 81.69 69.05 65.84 69.42 50.03 68.87 Z" />
<path fill="#ff3662" opacity="1.00" d=" M 116.89 110.88 C 124.72 97.01 132.53 83.09 140.96 69.59 C 148.65 81.57 150.54 98.08 143.71 110.71 C 134.94 111.59 125.78 111.24 116.89 110.88 Z" />
<path fill="#ff3662" opacity="1.00" d=" M 50.98 119.85 C 43.06 107.76 41.84 91.73 47.90 78.61 C 56.84 78.63 65.78 78.49 74.72 78.71 C 67.07 92.57 59.18 106.32 50.98 119.85 Z" />
<path fill="#ff3662" opacity="1.00" d=" M 58.35 128.24 C 62.48 120.35 67.05 112.64 71.76 105.06 C 79.46 117.83 86.64 130.91 94.30 143.70 C 94.90 144.54 96.08 146.94 93.96 146.62 C 80.24 146.70 65.78 139.89 58.35 128.24 Z" />
<path fill="#ff3662" opacity="1.00" d=" M 94.28 121.62 C 110.12 121.36 125.97 121.37 141.81 121.61 C 135.85 134.94 122.04 143.44 107.90 145.44 C 103.13 137.64 98.59 129.68 94.28 121.62 Z" />
</g>
</svg>
