<?xml version="1.0" encoding="UTF-8" ?>
<!DOCTYPE svg PUBLIC "-//W3C//DTD SVG 1.1//EN" "http://www.w3.org/Graphics/SVG/1.1/DTD/svg11.dtd">
<svg width="192pt" height="192pt" viewBox="0 0 192 192" version="1.1" xmlns="http://www.w3.org/2000/svg">
<g id="#464e5eff">
<path fill="#464e5e" opacity="1.00" d=" M 13.52 52.16 C 14.21 41.16 29.06 35.31 37.09 42.87 C 64.24 69.73 91.40 96.60 118.35 123.66 C 123.06 128.53 115.30 136.23 110.43 131.57 C 83.38 104.90 56.47 78.07 29.59 51.23 C 28.21 51.27 26.83 51.30 25.45 51.31 C 25.04 52.84 24.61 54.38 24.67 55.98 C 24.72 82.66 24.66 109.34 24.71 136.02 C 23.99 138.92 27.99 141.43 30.01 138.96 C 41.34 127.97 52.32 116.61 63.68 105.65 C 68.18 101.31 75.72 107.98 71.98 113.00 C 62.77 122.76 52.95 131.96 43.53 141.53 C 39.71 145.08 36.41 149.88 30.95 150.93 C 22.47 153.13 13.17 145.88 13.43 137.07 C 13.46 108.77 13.28 80.46 13.52 52.16 Z" />
<path fill="#464e5e" opacity="1.00" d=" M 153.72 42.71 C 162.06 35.11 177.21 41.67 177.19 53.01 C 177.25 81.68 177.47 110.39 177.07 139.05 C 175.93 150.61 159.82 155.48 152.28 146.74 C 125.59 120.09 98.62 93.69 72.14 66.84 C 67.78 62.05 75.28 54.55 80.03 58.99 C 107.11 85.55 133.76 112.58 160.87 139.10 C 162.88 141.37 166.61 138.82 165.92 136.06 C 165.89 108.69 166.07 81.30 165.83 53.92 C 166.20 51.13 163.25 51.03 161.27 51.11 C 149.58 62.45 138.29 74.23 126.46 85.42 C 121.54 89.44 114.59 81.58 119.13 77.10 C 130.56 65.55 142.06 54.03 153.72 42.71 Z" />
</g>
</svg>
