<?xml version="1.0" encoding="UTF-8" ?>
<!DOCTYPE svg PUBLIC "-//W3C//DTD SVG 1.1//EN" "http://www.w3.org/Graphics/SVG/1.1/DTD/svg11.dtd">
<svg width="192pt" height="192pt" viewBox="0 0 192 192" version="1.1" xmlns="http://www.w3.org/2000/svg">
<g id="#28b89fff">
<path fill="#28b89f" opacity="1.00" d=" M 41.45 21.68 C 46.12 21.21 50.90 21.00 55.56 21.62 C 59.97 22.82 60.75 29.56 56.65 31.66 C 51.58 33.78 45.66 31.12 40.58 33.48 C 36.13 35.38 33.05 40.08 33.27 44.94 C 33.27 78.65 33.27 112.36 33.29 146.06 C 33.01 152.85 39.28 158.77 46.02 158.38 C 79.67 158.39 113.32 158.39 146.97 158.32 C 153.66 158.68 159.79 152.77 159.63 146.07 C 159.70 112.36 159.68 78.64 159.65 44.93 C 159.85 38.55 154.40 32.65 147.99 32.54 C 133.67 32.32 119.32 32.77 105.01 32.32 C 99.11 31.58 99.23 21.99 105.13 21.44 C 119.43 21.11 133.76 21.30 148.07 21.32 C 160.42 21.40 171.28 32.61 170.86 44.97 C 170.82 78.32 171.01 111.67 171.01 145.01 C 171.63 157.69 160.86 169.54 148.06 169.55 C 113.69 169.62 79.32 169.59 44.94 169.53 C 32.99 169.51 22.29 159.05 22.12 147.08 C 21.99 113.05 22.12 79.00 22.11 44.97 C 21.77 33.83 30.48 23.43 41.45 21.68 Z" />
<path fill="#28b89f" opacity="1.00" d=" M 75.36 21.53 C 83.08 18.33 92.74 24.53 92.81 32.92 C 92.81 47.52 93.13 62.16 92.68 76.74 C 89.52 80.50 85.90 83.91 82.28 87.25 C 79.15 89.97 76.11 86.06 74.04 83.97 C 71.33 80.53 65.95 78.13 66.78 73.01 C 66.87 60.00 66.75 46.99 66.83 33.98 C 66.70 28.58 70.24 23.31 75.36 21.53 Z" />
</g>
</svg>
