<?xml version="1.0" encoding="UTF-8" ?>
<!DOCTYPE svg PUBLIC "-//W3C//DTD SVG 1.1//EN" "http://www.w3.org/Graphics/SVG/1.1/DTD/svg11.dtd">
<svg width="192pt" height="192pt" viewBox="0 0 192 192" version="1.1" xmlns="http://www.w3.org/2000/svg">
<g id="#606f81ff">
<path fill="#606f81" opacity="1.00" d=" M 25.05 46.93 C 25.17 35.47 35.57 25.44 47.03 25.69 C 79.34 25.69 111.66 25.60 143.97 25.72 C 155.54 25.92 165.40 36.51 165.17 48.01 C 165.12 70.66 165.40 93.34 165.04 115.99 C 164.49 121.71 155.23 121.72 154.69 115.99 C 154.36 93.31 154.68 70.61 154.54 47.93 C 154.71 41.81 149.26 36.08 143.07 36.32 C 111.02 36.29 78.98 36.29 46.93 36.32 C 40.73 36.05 35.42 41.87 35.52 47.93 C 35.46 76.69 35.53 105.45 35.50 134.21 C 47.42 115.78 58.35 96.72 70.25 78.28 C 73.22 73.59 80.58 74.02 83.19 78.84 C 93.55 95.10 103.59 111.57 113.68 128.00 C 118.66 121.03 122.06 113.01 127.08 106.07 C 130.30 101.85 137.02 103.11 139.35 107.57 C 146.85 120.44 154.47 133.26 161.56 146.35 C 166.10 156.62 154.22 165.30 145.02 165.71 C 112.34 165.90 79.65 165.76 46.96 165.77 C 35.26 166.30 24.85 155.60 25.01 144.03 C 24.99 111.67 25.01 79.30 25.05 46.93 M 76.45 88.16 C 63.95 109.00 50.80 129.49 38.44 150.41 C 37.23 154.97 42.88 155.50 46.04 155.29 C 79.35 155.29 112.67 155.47 145.98 155.18 C 149.15 155.85 153.34 153.18 151.34 149.69 C 145.16 138.82 138.93 127.98 132.58 117.21 C 128.47 124.23 124.55 131.37 120.38 138.34 C 117.41 143.20 109.95 142.50 107.30 137.71 C 96.93 121.25 86.92 104.56 76.45 88.16 Z" />
</g>
</svg>
