<?xml version="1.0" encoding="UTF-8" ?>
<!DOCTYPE svg PUBLIC "-//W3C//DTD SVG 1.1//EN" "http://www.w3.org/Graphics/SVG/1.1/DTD/svg11.dtd">
<svg width="192pt" height="192pt" viewBox="0 0 192 192" version="1.1" xmlns="http://www.w3.org/2000/svg">
<g id="#55a5c6ff">
<path fill="#55a5c6" opacity="1.00" d=" M 40.35 20.43 C 75.56 19.64 110.84 20.25 146.07 20.13 C 159.53 19.85 170.68 32.77 169.42 46.00 C 170.40 50.38 167.02 55.86 162.05 54.20 C 157.20 52.60 158.45 46.88 158.16 42.97 C 158.01 36.28 151.68 30.79 145.07 31.31 C 111.35 31.34 77.63 31.25 43.92 31.35 C 37.23 31.22 31.63 37.39 31.80 43.97 C 31.73 77.65 31.77 111.33 31.78 145.01 C 31.39 151.78 37.06 158.25 43.96 158.13 C 70.32 158.31 96.69 157.99 123.04 158.29 C 129.45 158.47 129.46 169.09 123.02 169.27 C 96.70 169.48 70.35 169.32 44.02 169.35 C 31.57 169.54 20.52 158.42 20.72 145.98 C 20.70 111.66 20.66 77.34 20.74 43.03 C 20.79 32.09 29.53 22.01 40.35 20.43 Z" />
<path fill="#55a5c6" opacity="1.00" d=" M 161.37 64.43 C 165.11 62.24 169.89 65.82 169.34 69.98 C 169.30 82.66 169.55 95.35 169.22 108.02 C 168.72 113.63 159.77 114.02 158.71 108.52 C 158.14 96.71 158.69 84.83 158.45 72.99 C 158.40 69.97 158.11 65.98 161.37 64.43 Z" />
<path fill="#55a5c6" opacity="1.00" d=" M 64.14 65.98 C 71.31 64.50 79.21 64.14 86.14 66.81 C 92.30 70.02 91.78 78.07 91.43 83.98 C 91.49 87.42 89.39 90.35 86.23 91.58 C 92.80 93.56 92.28 101.59 91.90 107.05 C 91.80 111.95 89.19 117.27 83.95 118.23 C 77.17 119.62 69.90 119.71 63.18 117.94 C 57.30 116.33 55.46 109.09 56.77 103.82 C 59.44 102.26 62.88 103.03 65.84 103.14 C 67.86 104.82 66.81 109.11 70.10 109.72 C 73.65 110.03 79.28 111.25 80.83 106.90 C 81.21 103.93 81.66 100.50 80.11 97.80 C 77.11 94.57 72.15 97.22 68.50 95.51 C 67.63 93.08 67.32 89.91 68.64 87.65 C 71.99 85.74 77.39 88.70 80.06 85.03 C 80.98 81.86 81.55 77.49 79.04 74.92 C 76.35 73.67 73.15 73.98 70.30 74.44 C 66.60 74.81 68.79 81.03 65.04 81.10 C 62.44 80.89 58.83 82.19 57.02 79.79 C 55.88 74.42 58.06 67.17 64.14 65.98 Z" />
<path fill="#55a5c6" opacity="1.00" d=" M 110.24 65.18 C 116.59 64.91 123.29 64.32 129.34 66.70 C 134.08 68.70 134.91 74.48 135.18 79.01 C 135.31 87.67 135.29 96.33 135.19 104.99 C 134.90 109.52 134.18 115.38 129.41 117.39 C 122.59 119.88 115.02 119.46 107.94 118.55 C 102.34 118.22 98.60 113.18 98.48 107.84 C 97.91 96.82 97.62 85.67 98.74 74.69 C 99.11 68.72 104.69 65.26 110.24 65.18 M 112.32 74.45 C 107.92 75.74 109.45 81.56 109.06 85.01 C 109.74 92.81 107.65 101.17 110.36 108.61 C 114.50 110.84 123.97 111.72 124.15 105.02 C 124.36 96.03 124.64 86.97 124.00 78.00 C 123.11 72.64 116.18 74.05 112.32 74.45 Z" />
<path fill="#55a5c6" opacity="1.00" d=" M 158.63 125.42 C 159.55 119.66 168.97 120.14 169.26 126.00 C 169.58 136.66 169.33 147.33 169.40 157.99 C 169.82 164.18 164.19 169.83 158.00 169.40 C 152.05 169.21 146.00 169.91 140.12 168.96 C 135.18 167.15 135.80 159.02 141.06 158.19 C 146.82 157.70 152.63 158.14 158.40 157.99 C 158.58 147.14 158.13 136.26 158.63 125.42 Z" />
</g>
</svg>
