<?xml version="1.0" encoding="UTF-8" ?>
<!DOCTYPE svg PUBLIC "-//W3C//DTD SVG 1.1//EN" "http://www.w3.org/Graphics/SVG/1.1/DTD/svg11.dtd">
<svg width="192pt" height="192pt" viewBox="0 0 192 192" version="1.1" xmlns="http://www.w3.org/2000/svg">
<g id="#62a1b9ff">
<path fill="#62a1b9" opacity="1.00" d=" M 39.39 21.54 C 74.54 20.34 109.82 21.35 145.02 21.03 C 157.67 20.34 169.39 31.32 169.36 44.02 C 169.84 48.30 169.72 54.96 163.98 55.22 C 159.01 55.50 157.62 49.95 158.22 46.02 C 159.04 39.02 153.24 32.04 146.07 32.25 C 112.02 32.18 77.97 32.18 43.92 32.25 C 37.18 32.08 31.51 38.35 31.81 44.98 C 31.75 78.32 31.80 111.66 31.78 145.00 C 31.29 151.83 37.06 158.35 43.99 158.23 C 70.29 158.42 96.60 158.13 122.89 158.37 C 129.42 158.36 129.56 169.17 123.03 169.33 C 96.70 169.55 70.36 169.39 44.02 169.40 C 31.55 169.61 20.42 158.46 20.71 145.98 C 20.69 112.00 20.66 78.01 20.72 44.03 C 20.70 33.37 28.96 23.53 39.39 21.54 Z" />
<path fill="#62a1b9" opacity="1.00" d=" M 161.27 65.16 C 164.68 63.06 169.55 65.96 169.30 69.96 C 169.39 82.64 169.47 95.34 169.27 108.02 C 169.17 114.02 159.39 114.50 158.64 108.61 C 158.21 96.75 158.64 84.85 158.44 72.98 C 158.39 70.19 158.29 66.56 161.27 65.16 Z" />
<path fill="#62a1b9" opacity="1.00" d=" M 78.43 69.98 C 77.86 66.67 81.78 66.91 83.99 66.97 C 92.91 67.25 101.89 66.56 110.77 67.29 C 112.77 69.45 111.48 72.96 111.66 75.67 C 104.22 76.63 96.70 75.94 89.22 76.12 C 89.26 79.76 89.26 83.40 89.16 87.05 C 95.17 83.95 102.93 84.08 108.95 87.07 C 115.64 92.15 113.22 101.72 113.49 108.97 C 113.69 114.95 108.61 119.74 102.76 119.85 C 96.70 120.28 90.30 120.78 84.49 118.64 C 79.15 116.69 77.88 110.09 78.58 105.08 C 81.26 103.02 85.02 104.33 88.16 103.91 C 88.10 111.21 97.44 113.41 102.07 109.05 C 102.95 104.75 103.56 99.43 101.58 95.42 C 94.43 90.68 86.09 99.48 78.84 95.13 C 77.76 86.91 78.64 78.34 78.43 69.98 Z" />
<path fill="#62a1b9" opacity="1.00" d=" M 158.57 126.17 C 158.97 120.29 168.60 120.17 169.21 126.01 C 169.66 136.65 169.29 147.33 169.41 157.99 C 169.83 163.82 164.86 169.35 159.00 169.41 C 153.01 169.44 146.98 169.73 141.01 169.23 C 135.69 168.39 135.21 159.97 140.37 158.48 C 146.32 157.55 152.40 158.34 158.40 158.02 C 158.54 147.41 158.21 136.78 158.57 126.17 Z" />
</g>
</svg>
