<?xml version="1.0" encoding="UTF-8" ?>
<!DOCTYPE svg PUBLIC "-//W3C//DTD SVG 1.1//EN" "http://www.w3.org/Graphics/SVG/1.1/DTD/svg11.dtd">
<svg width="192pt" height="192pt" viewBox="0 0 192 192" version="1.1" xmlns="http://www.w3.org/2000/svg">
<g id="#59a3c2ff">
<path fill="#59a3c2" opacity="1.00" d=" M 40.34 20.43 C 75.55 19.63 110.82 20.25 146.06 20.12 C 159.95 19.82 171.12 33.45 169.45 46.99 C 170.46 51.56 165.64 56.36 161.22 53.86 C 157.14 51.76 158.58 46.65 158.14 42.97 C 157.98 36.31 151.65 30.82 145.05 31.35 C 111.34 31.38 77.63 31.29 43.92 31.40 C 37.24 31.25 31.69 37.44 31.82 43.98 C 31.74 77.65 31.77 111.33 31.80 145.00 C 31.43 151.77 37.06 158.26 43.98 158.13 C 70.34 158.31 96.72 157.97 123.07 158.29 C 129.54 158.54 129.51 169.09 123.04 169.32 C 96.70 169.51 70.36 169.36 44.02 169.40 C 31.55 169.60 20.50 158.43 20.71 145.98 C 20.70 111.66 20.65 77.35 20.74 43.03 C 20.78 32.09 29.52 22.01 40.34 20.43 Z" />
<path fill="#59a3c2" opacity="1.00" d=" M 161.36 64.43 C 165.11 62.23 169.91 65.82 169.37 69.99 C 169.34 82.66 169.59 95.36 169.25 108.02 C 168.79 113.69 159.73 114.08 158.71 108.53 C 158.12 96.71 158.69 84.83 158.45 72.99 C 158.41 69.98 158.11 65.99 161.36 64.43 Z" />
<path fill="#59a3c2" opacity="1.00" d=" M 66.15 66.14 C 72.25 64.44 78.81 64.66 85.03 65.58 C 89.81 66.11 93.56 70.20 93.91 74.95 C 94.51 81.19 95.10 88.55 90.46 93.51 C 85.66 98.95 80.19 103.75 75.04 108.86 C 81.11 108.98 87.19 109.08 93.26 108.91 C 94.61 111.87 94.61 115.24 93.29 118.21 C 82.59 117.83 71.85 118.58 61.18 117.85 C 59.02 115.35 59.29 110.26 61.82 107.90 C 67.87 101.91 74.12 96.12 80.10 90.06 C 83.89 86.43 84.34 80.19 82.34 75.58 C 79.82 73.43 76.13 74.04 73.09 74.34 C 69.26 75.11 70.17 79.83 69.53 82.70 C 66.33 82.92 62.54 84.02 59.68 82.28 C 58.10 76.58 59.48 67.97 66.15 66.14 Z" />
<path fill="#59a3c2" opacity="1.00" d=" M 101.67 71.04 C 107.82 67.83 114.84 65.05 121.93 66.11 C 123.77 67.00 123.42 69.28 123.53 70.96 C 123.49 83.63 123.51 96.30 123.52 108.97 C 126.44 108.99 129.36 108.99 132.27 108.91 C 133.62 111.87 133.61 115.25 132.30 118.22 C 122.25 117.89 112.17 118.46 102.13 117.94 C 100.04 115.96 100.11 111.14 102.11 109.11 C 105.50 108.80 108.91 109.03 112.32 109.00 C 112.33 98.37 112.37 87.75 112.31 77.12 C 107.69 77.38 99.29 78.42 101.67 71.04 Z" />
<path fill="#59a3c2" opacity="1.00" d=" M 158.64 125.43 C 159.55 119.66 168.96 120.15 169.28 126.00 C 169.64 136.65 169.35 147.32 169.44 157.98 C 169.83 163.79 164.85 169.35 159.00 169.39 C 153.00 169.42 146.97 169.67 140.99 169.24 C 135.72 168.31 135.20 160.01 140.29 158.39 C 146.25 157.47 152.37 158.25 158.39 157.99 C 158.58 147.14 158.11 136.26 158.64 125.43 Z" />
</g>
</svg>
