<?xml version="1.0" encoding="UTF-8" ?>
<!DOCTYPE svg PUBLIC "-//W3C//DTD SVG 1.1//EN" "http://www.w3.org/Graphics/SVG/1.1/DTD/svg11.dtd">
<svg width="192pt" height="192pt" viewBox="0 0 192 192" version="1.1" xmlns="http://www.w3.org/2000/svg">
<g id="#56a4c4ff">
<path fill="#56a4c4" opacity="1.00" d=" M 40.35 20.43 C 75.55 19.63 110.83 20.25 146.06 20.12 C 159.95 19.83 171.11 33.46 169.45 46.99 C 170.45 51.56 165.65 56.34 161.23 53.87 C 157.14 51.77 158.58 46.66 158.15 42.97 C 157.97 36.31 151.66 30.82 145.06 31.35 C 111.35 31.38 77.63 31.29 43.92 31.39 C 37.25 31.24 31.69 37.43 31.82 43.97 C 31.74 77.65 31.77 111.33 31.80 145.01 C 31.43 151.77 37.06 158.25 43.97 158.13 C 70.32 158.31 96.70 157.99 123.05 158.29 C 129.53 158.52 129.52 169.09 123.04 169.32 C 96.70 169.51 70.35 169.36 44.02 169.39 C 31.55 169.59 20.50 158.42 20.72 145.97 C 20.70 111.66 20.65 77.34 20.74 43.02 C 20.79 32.08 29.53 22.01 40.35 20.43 Z" />
<path fill="#56a4c4" opacity="1.00" d=" M 161.36 64.43 C 165.10 62.24 169.90 65.82 169.37 69.98 C 169.33 82.66 169.58 95.36 169.25 108.03 C 168.79 113.69 159.74 114.07 158.71 108.53 C 158.13 96.71 158.69 84.83 158.45 72.98 C 158.40 69.97 158.11 65.98 161.36 64.43 Z" />
<path fill="#56a4c4" opacity="1.00" d=" M 65.07 65.87 C 72.24 64.56 80.16 64.08 87.02 66.95 C 94.01 71.65 92.67 81.81 91.27 88.96 C 87.08 97.04 79.13 102.29 73.04 108.86 C 78.97 109.12 84.91 108.79 90.83 109.11 C 93.33 111.31 92.35 115.47 91.20 118.22 C 80.55 117.82 69.83 118.59 59.20 117.84 C 57.01 115.39 57.29 110.26 59.82 107.90 C 65.88 101.92 72.12 96.12 78.10 90.07 C 81.80 86.60 82.10 80.85 80.73 76.27 C 78.74 73.17 74.22 74.09 71.10 74.34 C 67.29 75.10 68.11 79.80 67.56 82.67 C 64.35 82.98 60.60 83.98 57.67 82.31 C 55.95 76.27 57.77 67.18 65.07 65.87 Z" />
<path fill="#56a4c4" opacity="1.00" d=" M 107.14 65.96 C 113.83 64.48 121.07 64.36 127.70 66.20 C 132.78 67.59 134.70 73.26 134.59 78.01 C 134.74 82.86 135.06 89.75 129.25 91.44 C 136.51 94.13 135.32 103.30 134.62 109.45 C 134.17 114.69 129.62 118.44 124.53 118.78 C 118.45 119.32 112.10 119.70 106.17 117.95 C 100.26 116.35 97.93 108.48 100.17 103.37 C 103.00 102.67 105.99 102.85 108.88 103.12 C 110.86 104.86 109.86 109.06 113.10 109.71 C 116.51 109.94 121.39 111.17 123.51 107.62 C 124.40 104.68 124.35 101.32 123.47 98.39 C 120.88 94.22 115.17 97.42 111.55 95.45 C 110.49 93.15 110.38 89.84 111.62 87.63 C 114.95 85.71 120.39 88.72 123.03 85.01 C 124.05 82.19 124.04 78.90 123.02 76.08 C 120.85 73.14 116.44 74.08 113.31 74.45 C 109.64 74.87 111.83 81.10 108.05 81.09 C 105.43 80.91 101.84 82.18 99.99 79.81 C 98.87 74.42 101.02 67.16 107.14 65.96 Z" />
<path fill="#56a4c4" opacity="1.00" d=" M 158.64 125.43 C 159.55 119.66 168.96 120.15 169.28 126.00 C 169.64 136.65 169.35 147.33 169.44 157.99 C 169.83 163.79 164.85 169.35 159.00 169.39 C 153.00 169.41 146.97 169.66 140.99 169.24 C 135.72 168.30 135.20 160.01 140.29 158.39 C 146.26 157.48 152.37 158.24 158.39 157.99 C 158.58 147.14 158.12 136.26 158.64 125.43 Z" />
</g>
</svg>
