<?xml version="1.0" encoding="UTF-8" ?>
<!DOCTYPE svg PUBLIC "-//W3C//DTD SVG 1.1//EN" "http://www.w3.org/Graphics/SVG/1.1/DTD/svg11.dtd">
<svg width="192pt" height="192pt" viewBox="0 0 192 192" version="1.1" xmlns="http://www.w3.org/2000/svg">
<g id="#57a4c4ff">
<path fill="#57a4c4" opacity="1.00" d=" M 40.35 20.43 C 75.56 19.63 110.84 20.25 146.07 20.12 C 159.96 19.83 171.11 33.47 169.45 47.00 C 170.45 51.56 165.63 56.34 161.23 53.87 C 157.14 51.76 158.58 46.65 158.15 42.96 C 157.97 36.31 151.66 30.82 145.06 31.35 C 111.35 31.38 77.64 31.29 43.93 31.39 C 37.25 31.24 31.70 37.42 31.82 43.96 C 31.74 77.64 31.77 111.33 31.80 145.02 C 31.44 151.78 37.06 158.25 43.96 158.13 C 70.32 158.31 96.70 157.98 123.05 158.29 C 129.53 158.53 129.53 169.06 123.06 169.32 C 96.71 169.51 70.36 169.36 44.01 169.39 C 31.55 169.59 20.50 158.43 20.72 145.98 C 20.70 111.66 20.65 77.34 20.74 43.03 C 20.79 32.09 29.53 22.00 40.35 20.43 Z" />
<path fill="#57a4c4" opacity="1.00" d=" M 161.37 64.43 C 165.11 62.24 169.90 65.82 169.37 69.98 C 169.34 82.66 169.59 95.36 169.25 108.03 C 168.78 113.70 159.73 114.07 158.71 108.52 C 158.12 96.71 158.69 84.83 158.45 72.98 C 158.41 69.97 158.11 65.98 161.37 64.43 Z" />
<path fill="#57a4c4" opacity="1.00" d=" M 66.06 65.87 C 73.23 64.56 81.16 64.08 88.02 66.95 C 95.01 71.65 93.68 81.82 92.26 88.98 C 88.07 97.05 80.12 102.29 74.04 108.87 C 80.10 108.96 86.16 109.09 92.22 108.90 C 93.63 111.84 93.64 115.27 92.25 118.22 C 81.58 117.81 70.85 118.60 60.21 117.84 C 58.06 115.97 58.78 112.00 59.51 109.54 C 65.75 102.47 73.13 96.44 79.57 89.53 C 82.97 85.90 83.23 79.97 81.35 75.58 C 78.82 73.44 75.14 74.02 72.11 74.34 C 68.26 75.09 69.15 79.81 68.54 82.69 C 65.29 83.00 61.67 83.90 58.61 82.35 C 57.03 76.24 58.72 67.22 66.06 65.87 Z" />
<path fill="#57a4c4" opacity="1.00" d=" M 107.06 65.85 C 114.24 64.56 122.18 64.06 129.04 66.93 C 135.97 71.49 134.57 81.41 133.45 88.46 C 129.54 96.90 121.20 102.14 115.06 108.87 C 121.12 108.97 127.18 109.10 133.24 108.90 C 134.64 111.84 134.65 115.27 133.27 118.22 C 123.16 117.98 113.05 118.27 102.95 118.09 C 98.57 118.35 99.74 112.18 100.48 109.54 C 106.71 102.45 114.12 96.45 120.55 89.53 C 123.93 85.90 124.19 79.99 122.33 75.62 C 119.62 73.40 115.60 73.86 112.42 74.58 C 108.20 75.83 112.06 83.26 107.08 83.12 C 104.59 82.90 100.88 84.16 99.32 81.69 C 98.27 75.65 99.90 67.12 107.06 65.85 Z" />
<path fill="#57a4c4" opacity="1.00" d=" M 158.64 125.42 C 159.55 119.66 168.96 120.15 169.28 126.00 C 169.64 136.65 169.35 147.33 169.44 157.99 C 169.82 163.79 164.86 169.34 159.01 169.39 C 153.01 169.42 146.98 169.66 140.99 169.24 C 135.72 168.30 135.20 160.00 140.29 158.39 C 146.26 157.47 152.38 158.25 158.40 157.99 C 158.57 147.14 158.12 136.25 158.64 125.42 Z" />
</g>
</svg>
