<?xml version="1.0" encoding="UTF-8" ?>
<!DOCTYPE svg PUBLIC "-//W3C//DTD SVG 1.1//EN" "http://www.w3.org/Graphics/SVG/1.1/DTD/svg11.dtd">
<svg width="192pt" height="192pt" viewBox="0 0 192 192" version="1.1" xmlns="http://www.w3.org/2000/svg">
<g id="#63a2b9ff">
<path fill="#63a2b9" opacity="1.00" d=" M 39.39 21.53 C 74.88 20.37 110.50 21.31 146.04 21.06 C 159.53 20.77 170.80 33.70 169.42 46.99 C 170.45 51.32 166.88 56.57 162.11 54.95 C 157.73 53.71 158.14 48.58 158.21 45.00 C 158.62 38.33 152.79 32.06 146.07 32.24 C 112.02 32.19 77.97 32.18 43.92 32.24 C 37.19 32.07 31.50 38.35 31.80 44.98 C 31.77 78.67 31.74 112.35 31.82 146.03 C 31.75 152.52 37.50 158.33 44.00 158.24 C 70.29 158.40 96.60 158.16 122.89 158.36 C 129.42 158.36 129.55 169.16 123.02 169.34 C 96.69 169.53 70.35 169.39 44.02 169.41 C 31.93 169.58 20.97 159.10 20.75 146.98 C 20.64 112.67 20.69 78.34 20.72 44.03 C 20.70 33.37 28.96 23.53 39.39 21.53 Z" />
<path fill="#63a2b9" opacity="1.00" d=" M 161.28 65.16 C 164.68 63.05 169.55 65.98 169.32 69.97 C 169.38 82.65 169.45 95.34 169.28 108.02 C 169.16 114.01 159.41 114.50 158.62 108.60 C 158.25 96.40 158.62 84.17 158.45 71.96 C 158.31 69.43 158.69 66.36 161.28 65.16 Z" />
<path fill="#63a2b9" opacity="1.00" d=" M 86.15 66.99 C 93.31 65.49 101.20 65.16 108.14 67.79 C 114.31 71.01 113.79 79.05 113.45 84.98 C 113.49 88.36 111.47 91.41 108.27 92.55 C 114.48 94.40 114.31 101.84 114.02 107.07 C 114.02 112.25 111.63 118.24 105.95 119.26 C 99.18 120.62 91.89 120.72 85.19 118.95 C 79.36 117.39 77.61 110.38 78.63 105.13 C 80.99 102.94 84.89 104.23 87.87 104.09 C 89.92 105.66 88.66 109.40 91.40 110.43 C 94.08 111.39 97.09 111.03 99.88 110.82 C 104.37 109.08 103.29 103.07 102.47 99.40 C 99.87 94.75 93.20 99.23 90.14 95.79 C 89.89 93.33 89.04 89.96 91.17 88.14 C 94.71 87.39 99.50 89.35 102.05 86.02 C 103.05 83.19 103.02 79.90 102.06 77.07 C 99.38 73.76 94.40 75.35 90.75 75.70 C 89.52 78.07 89.98 82.83 86.06 82.17 C 83.77 81.86 80.51 83.10 79.04 80.79 C 77.87 75.45 80.07 68.15 86.15 66.99 Z" />
<path fill="#63a2b9" opacity="1.00" d=" M 158.56 126.18 C 158.99 120.30 168.57 120.17 169.23 126.01 C 169.63 136.65 169.30 147.33 169.41 157.99 C 169.85 163.82 164.84 169.35 158.99 169.42 C 153.00 169.44 146.99 169.69 141.01 169.26 C 135.70 168.36 135.20 160.00 140.37 158.47 C 146.31 157.57 152.40 158.34 158.40 158.02 C 158.54 147.41 158.23 136.78 158.56 126.18 Z" />
</g>
</svg>
