<?xml version="1.0" encoding="UTF-8" ?>
<!DOCTYPE svg PUBLIC "-//W3C//DTD SVG 1.1//EN" "http://www.w3.org/Graphics/SVG/1.1/DTD/svg11.dtd">
<svg width="192pt" height="192pt" viewBox="0 0 192 192" version="1.1" xmlns="http://www.w3.org/2000/svg">
<g id="#55a4c6ff">
<path fill="#55a4c6" opacity="1.00" d=" M 40.35 20.42 C 75.55 19.64 110.83 20.25 146.06 20.13 C 159.95 19.82 171.10 33.46 169.45 46.99 C 170.45 51.55 165.64 56.35 161.22 53.86 C 157.14 51.76 158.57 46.67 158.15 42.98 C 157.97 36.74 152.34 31.27 146.08 31.39 C 112.03 31.33 77.97 31.32 43.93 31.39 C 37.25 31.24 31.68 37.44 31.82 43.98 C 31.73 77.65 31.77 111.33 31.80 145.00 C 31.42 151.77 37.06 158.26 43.98 158.13 C 70.34 158.31 96.72 157.99 123.07 158.29 C 129.52 158.53 129.49 169.10 123.03 169.32 C 96.70 169.50 70.36 169.36 44.02 169.39 C 31.55 169.59 20.50 158.42 20.72 145.97 C 20.70 111.66 20.65 77.34 20.74 43.03 C 20.79 32.09 29.53 22.01 40.35 20.42 Z" />
<path fill="#55a4c6" opacity="1.00" d=" M 161.36 64.43 C 165.11 62.23 169.91 65.83 169.37 70.00 C 169.33 82.67 169.58 95.36 169.25 108.02 C 168.78 113.68 159.74 114.07 158.71 108.53 C 158.14 96.71 158.68 84.83 158.45 72.99 C 158.40 69.97 158.11 65.99 161.36 64.43 Z" />
<path fill="#55a4c6" opacity="1.00" d=" M 65.07 65.87 C 72.24 64.56 80.16 64.08 87.01 66.95 C 94.01 71.64 92.67 81.80 91.27 88.95 C 87.08 97.03 79.14 102.29 73.04 108.85 C 79.07 108.97 85.10 109.11 91.13 108.89 C 92.70 111.76 92.73 115.34 91.17 118.22 C 80.51 117.82 69.81 118.58 59.19 117.85 C 57.03 115.37 57.27 110.25 59.82 107.90 C 65.88 101.92 72.11 96.11 78.10 90.06 C 81.90 86.44 82.34 80.19 80.35 75.58 C 77.82 73.43 74.12 74.03 71.08 74.34 C 67.30 75.11 68.08 79.78 67.58 82.65 C 64.37 83.01 60.58 83.99 57.67 82.29 C 55.95 76.27 57.78 67.18 65.07 65.87 Z" />
<path fill="#55a4c6" opacity="1.00" d=" M 110.20 65.18 C 117.61 65.21 127.09 63.29 132.67 69.40 C 137.21 78.16 134.50 88.53 135.26 98.00 C 135.04 104.53 136.34 113.80 129.42 117.39 C 121.72 119.96 113.07 119.78 105.24 117.85 C 98.52 115.92 98.22 107.76 98.09 102.02 C 98.38 92.40 97.22 82.60 99.10 73.11 C 99.95 67.80 105.37 65.45 110.20 65.18 M 112.32 74.45 C 109.27 74.93 109.23 78.56 109.12 80.95 C 109.08 88.67 108.98 96.39 109.16 104.10 C 108.34 111.55 120.12 111.84 123.56 107.62 C 125.09 98.23 124.17 88.49 124.15 78.97 C 124.09 72.82 116.46 73.83 112.32 74.45 Z" />
<path fill="#55a4c6" opacity="1.00" d=" M 158.63 125.43 C 159.54 119.65 168.97 120.15 169.29 126.01 C 169.63 136.66 169.35 147.33 169.44 157.99 C 169.83 163.79 164.84 169.35 159.00 169.40 C 153.00 169.41 146.97 169.66 140.98 169.25 C 135.73 168.28 135.20 160.02 140.29 158.39 C 146.26 157.48 152.37 158.24 158.40 157.99 C 158.58 147.14 158.12 136.26 158.63 125.43 Z" />
</g>
</svg>
