<?xml version="1.0" encoding="UTF-8" ?>
<!DOCTYPE svg PUBLIC "-//W3C//DTD SVG 1.1//EN" "http://www.w3.org/Graphics/SVG/1.1/DTD/svg11.dtd">
<svg width="192pt" height="192pt" viewBox="0 0 192 192" version="1.1" xmlns="http://www.w3.org/2000/svg">
<g id="#57a5c4ff">
<path fill="#57a5c4" opacity="1.00" d=" M 40.35 20.42 C 75.55 19.64 110.83 20.25 146.06 20.12 C 159.95 19.82 171.12 33.46 169.44 47.00 C 170.47 51.56 165.63 56.35 161.24 53.86 C 157.12 51.78 158.56 46.66 158.16 42.97 C 157.95 36.74 152.33 31.26 146.07 31.39 C 112.03 31.33 77.98 31.32 43.93 31.39 C 37.25 31.24 31.69 37.43 31.82 43.97 C 31.73 77.65 31.77 111.33 31.79 145.00 C 31.42 151.77 37.06 158.26 43.97 158.14 C 70.33 158.29 96.70 158.00 123.06 158.28 C 129.49 158.48 129.46 169.14 123.03 169.33 C 96.70 169.49 70.36 169.36 44.02 169.40 C 31.55 169.59 20.50 158.42 20.71 145.97 C 20.70 111.66 20.65 77.34 20.73 43.03 C 20.79 32.09 29.53 22.01 40.35 20.42 Z" />
<path fill="#57a5c4" opacity="1.00" d=" M 161.37 64.43 C 165.11 62.24 169.91 65.83 169.38 69.99 C 169.34 82.66 169.56 95.35 169.27 108.02 C 168.73 114.07 158.91 113.87 158.58 107.83 C 158.34 95.23 158.55 82.62 158.48 70.01 C 158.32 67.79 159.30 65.45 161.37 64.43 Z" />
<path fill="#57a5c4" opacity="1.00" d=" M 92.60 67.56 C 98.39 64.03 105.52 65.06 111.98 65.08 C 117.30 65.22 123.10 68.30 123.69 74.11 C 124.15 79.90 125.74 88.61 119.04 91.43 C 122.01 92.89 124.35 95.55 124.34 99.02 C 124.67 105.06 125.35 112.90 119.79 116.89 C 113.48 120.11 106.04 119.16 99.21 118.88 C 93.61 118.71 88.54 114.49 88.36 108.69 C 87.97 102.83 86.62 93.95 93.74 91.58 C 91.04 90.36 88.94 88.06 88.79 84.98 C 88.28 79.14 87.57 71.73 92.60 67.56 M 102.31 74.42 C 98.07 75.75 99.25 81.57 99.89 84.91 C 102.19 87.95 106.62 86.96 109.91 86.79 C 114.15 85.77 113.41 80.39 112.92 77.12 C 111.41 72.86 105.78 74.08 102.31 74.42 M 102.23 96.30 C 97.74 97.66 99.15 103.39 99.27 106.91 C 100.79 111.29 106.40 109.90 109.95 109.82 C 114.69 108.97 113.65 102.95 113.34 99.46 C 112.10 94.69 105.87 96.22 102.23 96.30 Z" />
<path fill="#57a5c4" opacity="1.00" d=" M 54.10 70.12 C 60.08 67.81 66.28 64.93 72.87 66.11 C 74.82 66.94 74.38 69.30 74.50 71.00 C 74.43 83.62 74.58 96.24 74.43 108.86 C 77.32 108.98 80.21 109.03 83.10 108.93 C 84.48 111.57 85.29 115.80 82.86 118.00 C 73.58 118.30 64.27 118.09 54.97 118.10 C 50.58 118.55 51.84 112.89 52.07 110.18 C 54.95 107.61 59.71 109.61 63.34 109.00 C 63.36 98.37 63.42 87.74 63.32 77.11 C 60.03 76.96 56.54 77.67 53.39 76.57 C 52.33 74.78 51.63 71.01 54.10 70.12 Z" />
<path fill="#57a5c4" opacity="1.00" d=" M 158.63 125.43 C 159.55 119.66 168.96 120.16 169.29 126.01 C 169.62 136.66 169.36 147.33 169.44 157.99 C 169.89 164.18 164.19 169.90 157.99 169.44 C 152.32 169.36 146.64 169.66 140.98 169.26 C 135.73 168.27 135.20 160.03 140.29 158.39 C 146.25 157.48 152.37 158.25 158.39 157.99 C 158.58 147.14 158.13 136.26 158.63 125.43 Z" />
</g>
</svg>
