<?xml version="1.0" encoding="UTF-8" ?>
<!DOCTYPE svg PUBLIC "-//W3C//DTD SVG 1.1//EN" "http://www.w3.org/Graphics/SVG/1.1/DTD/svg11.dtd">
<svg width="192pt" height="192pt" viewBox="0 0 192 192" version="1.1" xmlns="http://www.w3.org/2000/svg">
<g id="#63a2b9ff">
<path fill="#63a2b9" opacity="1.00" d=" M 39.40 21.53 C 74.54 20.35 109.82 21.35 145.01 21.03 C 157.29 20.38 168.82 30.70 169.30 43.02 C 169.52 47.24 170.43 53.88 164.95 55.06 C 160.25 56.28 157.37 51.10 158.24 47.04 C 159.36 39.76 153.72 32.02 146.08 32.24 C 112.03 32.18 77.97 32.18 43.92 32.24 C 37.19 32.08 31.50 38.35 31.81 44.99 C 31.74 78.33 31.80 111.67 31.78 145.00 C 31.28 151.83 37.06 158.35 43.99 158.23 C 70.29 158.42 96.59 158.14 122.88 158.37 C 129.42 158.35 129.56 169.17 123.02 169.33 C 96.70 169.55 70.35 169.39 44.02 169.40 C 31.55 169.61 20.42 158.46 20.71 145.98 C 20.69 112.00 20.66 78.01 20.72 44.03 C 20.70 33.37 28.96 23.52 39.40 21.53 Z" />
<path fill="#63a2b9" opacity="1.00" d=" M 161.27 65.16 C 164.68 63.06 169.55 65.97 169.30 69.97 C 169.39 82.65 169.47 95.34 169.27 108.02 C 169.17 114.02 159.39 114.50 158.64 108.60 C 158.21 96.74 158.64 84.85 158.44 72.98 C 158.39 70.19 158.29 66.56 161.27 65.16 Z" />
<path fill="#63a2b9" opacity="1.00" d=" M 98.20 70.19 C 100.27 65.66 106.46 66.44 110.28 67.77 C 111.24 78.70 110.43 89.77 110.71 100.76 C 118.22 98.43 118.27 112.69 110.74 110.31 C 110.68 112.96 111.05 115.69 110.32 118.28 C 107.62 119.88 104.16 119.13 101.17 118.94 C 98.71 116.85 100.20 112.97 99.77 110.12 C 92.58 110.00 85.36 110.43 78.19 109.93 C 75.74 107.86 76.68 103.71 78.17 101.25 C 84.81 90.87 91.58 80.58 98.20 70.19 M 89.27 100.89 C 92.80 100.95 96.32 101.00 99.85 101.00 C 99.85 95.57 99.83 90.15 99.73 84.73 C 96.21 90.10 92.94 95.63 89.27 100.89 Z" />
<path fill="#63a2b9" opacity="1.00" d=" M 158.57 126.17 C 158.97 120.30 168.61 120.17 169.21 126.01 C 169.66 136.65 169.29 147.33 169.41 157.99 C 169.83 163.82 164.86 169.35 159.00 169.41 C 153.01 169.44 146.98 169.73 141.01 169.23 C 135.69 168.39 135.21 159.97 140.37 158.48 C 146.32 157.56 152.40 158.34 158.40 158.02 C 158.54 147.41 158.21 136.78 158.57 126.17 Z" />
</g>
</svg>
