<?xml version="1.0" encoding="UTF-8" ?>
<!DOCTYPE svg PUBLIC "-//W3C//DTD SVG 1.1//EN" "http://www.w3.org/Graphics/SVG/1.1/DTD/svg11.dtd">
<svg width="192pt" height="192pt" viewBox="0 0 192 192" version="1.1" xmlns="http://www.w3.org/2000/svg">
<g id="#55a5c6ff">
<path fill="#55a5c6" opacity="1.00" d=" M 40.35 20.43 C 75.55 19.64 110.83 20.25 146.06 20.13 C 159.52 19.84 170.68 32.77 169.42 45.99 C 170.41 50.37 167.01 55.87 162.05 54.19 C 157.61 52.79 158.25 47.64 158.21 43.99 C 158.52 37.36 152.75 31.21 146.07 31.35 C 112.02 31.29 77.97 31.28 43.92 31.35 C 37.23 31.22 31.62 37.40 31.79 43.99 C 31.73 77.65 31.77 111.32 31.77 144.99 C 31.38 151.77 37.07 158.26 43.98 158.14 C 70.34 158.31 96.71 157.99 123.07 158.29 C 129.46 158.50 129.45 169.10 123.03 169.27 C 96.70 169.48 70.35 169.32 44.02 169.35 C 31.57 169.54 20.51 158.42 20.72 145.98 C 20.70 111.66 20.66 77.34 20.74 43.03 C 20.79 32.09 29.53 22.01 40.35 20.43 Z" />
<path fill="#55a5c6" opacity="1.00" d=" M 161.35 64.44 C 165.09 62.23 169.90 65.82 169.34 69.99 C 169.30 82.66 169.55 95.36 169.22 108.02 C 168.71 113.63 159.77 114.02 158.71 108.52 C 158.15 96.37 158.68 84.15 158.46 71.97 C 158.32 69.23 158.49 65.79 161.35 64.44 Z" />
<path fill="#55a5c6" opacity="1.00" d=" M 59.06 65.87 C 66.23 64.56 74.16 64.08 81.01 66.95 C 88.01 71.64 86.66 81.80 85.27 88.95 C 81.09 97.03 73.14 102.28 67.04 108.85 C 73.08 108.98 79.11 109.09 85.15 108.90 C 86.69 111.77 86.72 115.33 85.18 118.21 C 74.53 117.83 63.82 118.59 53.20 117.84 C 51.07 115.96 51.79 111.99 52.51 109.53 C 58.78 102.48 66.12 96.43 72.58 89.54 C 75.90 86.08 76.00 80.61 74.72 76.27 C 72.73 73.16 68.22 74.10 65.09 74.34 C 61.29 75.11 62.12 79.78 61.56 82.66 C 58.35 83.00 54.59 83.97 51.67 82.30 C 49.97 76.26 51.77 67.19 59.06 65.87 Z" />
<path fill="#55a5c6" opacity="1.00" d=" M 92.39 74.30 C 93.14 66.22 102.37 64.43 109.00 64.96 C 115.60 64.77 125.28 64.69 127.42 72.60 C 129.11 82.62 127.86 92.88 128.26 103.00 C 128.38 108.41 127.85 115.79 121.75 117.78 C 114.79 119.78 107.13 119.72 100.12 118.02 C 94.15 116.60 92.40 109.55 93.23 104.22 C 95.63 101.73 99.90 103.48 103.06 103.00 C 102.69 110.22 111.54 112.15 116.30 108.36 C 118.21 104.69 117.00 100.23 117.31 96.23 C 111.04 99.20 103.21 98.91 96.90 96.24 C 90.00 91.35 92.28 81.54 92.39 74.30 M 106.23 74.30 C 101.49 75.49 103.36 81.50 103.12 85.05 C 103.36 90.02 109.66 89.07 113.09 88.91 C 118.52 88.53 117.44 81.78 117.18 78.00 C 116.52 72.84 109.90 74.06 106.23 74.30 Z" />
<path fill="#55a5c6" opacity="1.00" d=" M 158.63 125.43 C 159.54 119.66 168.97 120.14 169.26 126.01 C 169.58 136.66 169.33 147.33 169.40 157.99 C 169.78 163.77 164.83 169.31 158.99 169.35 C 152.99 169.38 146.97 169.62 140.98 169.20 C 135.73 168.26 135.21 160.01 140.29 158.39 C 146.25 157.48 152.37 158.24 158.40 157.99 C 158.59 147.14 158.14 136.26 158.63 125.43 Z" />
</g>
</svg>
