<?xml version="1.0" encoding="UTF-8" ?>
<!DOCTYPE svg PUBLIC "-//W3C//DTD SVG 1.1//EN" "http://www.w3.org/Graphics/SVG/1.1/DTD/svg11.dtd">
<svg width="192pt" height="192pt" viewBox="0 0 192 192" version="1.1" xmlns="http://www.w3.org/2000/svg">
<g id="#57a4c4ff">
<path fill="#57a4c4" opacity="1.00" d=" M 40.35 20.42 C 75.56 19.64 110.83 20.25 146.06 20.12 C 159.96 19.83 171.11 33.46 169.45 47.00 C 170.45 51.56 165.65 56.33 161.23 53.88 C 157.14 51.77 158.57 46.66 158.15 42.97 C 157.96 36.73 152.33 31.27 146.07 31.39 C 112.03 31.33 77.97 31.32 43.93 31.39 C 37.26 31.24 31.69 37.43 31.82 43.97 C 31.74 77.64 31.77 111.33 31.80 145.01 C 31.43 151.77 37.06 158.26 43.97 158.13 C 70.32 158.31 96.69 157.99 123.04 158.29 C 129.53 158.51 129.52 169.08 123.04 169.32 C 96.70 169.50 70.36 169.36 44.02 169.39 C 31.55 169.59 20.50 158.43 20.72 145.98 C 20.70 111.66 20.65 77.34 20.74 43.03 C 20.78 32.09 29.53 22.01 40.35 20.42 Z" />
<path fill="#57a4c4" opacity="1.00" d=" M 161.36 64.43 C 165.11 62.24 169.91 65.83 169.37 69.99 C 169.33 82.66 169.58 95.36 169.25 108.02 C 168.79 113.69 159.74 114.07 158.71 108.53 C 158.13 96.71 158.69 84.83 158.45 72.99 C 158.40 69.97 158.11 65.98 161.36 64.43 Z" />
<path fill="#57a4c4" opacity="1.00" d=" M 64.06 65.87 C 71.23 64.56 79.16 64.08 86.02 66.95 C 93.01 71.65 91.67 81.82 90.26 88.98 C 86.07 97.04 78.13 102.29 72.04 108.86 C 77.97 109.12 83.91 108.79 89.83 109.11 C 92.30 111.30 91.43 115.52 90.16 118.23 C 79.52 117.81 68.83 118.60 58.22 117.84 C 56.06 115.99 56.79 112.00 57.50 109.54 C 63.76 102.49 71.12 96.44 77.57 89.54 C 80.90 86.08 81.00 80.62 79.73 76.27 C 77.74 73.18 73.23 74.08 70.10 74.34 C 66.31 75.09 67.09 79.79 66.58 82.66 C 63.36 83.01 59.61 83.97 56.67 82.31 C 54.96 76.27 56.77 67.19 64.06 65.87 Z" />
<path fill="#57a4c4" opacity="1.00" d=" M 119.96 65.92 C 123.05 66.61 129.67 64.03 129.66 68.98 C 129.78 79.24 129.67 89.51 129.71 99.77 C 137.22 97.40 137.26 111.72 129.73 109.30 C 129.26 112.13 131.37 117.78 127.07 118.10 C 124.48 117.89 120.86 119.19 119.06 116.82 C 118.66 114.27 118.79 111.68 118.78 109.11 C 111.58 109.01 104.36 109.41 97.18 108.95 C 94.21 106.11 96.19 101.19 98.32 98.33 C 105.73 87.66 111.90 76.09 119.96 65.92 M 108.28 99.89 C 111.80 99.95 115.33 100.00 118.85 99.99 C 118.84 94.58 118.82 89.16 118.72 83.75 C 115.22 89.11 111.96 94.64 108.28 99.89 Z" />
<path fill="#57a4c4" opacity="1.00" d=" M 158.63 125.43 C 159.55 119.66 168.96 120.15 169.28 126.00 C 169.64 136.65 169.35 147.33 169.44 157.99 C 169.87 164.20 164.19 169.89 157.99 169.44 C 152.32 169.35 146.63 169.69 140.98 169.24 C 135.72 168.29 135.20 160.01 140.30 158.38 C 146.26 157.48 152.37 158.24 158.40 157.99 C 158.58 147.14 158.12 136.26 158.63 125.43 Z" />
</g>
</svg>
