<?xml version="1.0" encoding="UTF-8" ?>
<!DOCTYPE svg PUBLIC "-//W3C//DTD SVG 1.1//EN" "http://www.w3.org/Graphics/SVG/1.1/DTD/svg11.dtd">
<svg width="192pt" height="192pt" viewBox="0 0 192 192" version="1.1" xmlns="http://www.w3.org/2000/svg">
<g id="#5f6f81ff">
<path fill="#5f6f81" opacity="1.00" d=" M 38.33 21.42 C 41.49 20.68 44.77 20.71 48.00 20.71 C 81.00 20.78 113.99 20.64 146.98 20.77 C 159.27 20.78 170.12 31.71 170.16 43.98 C 170.25 78.32 170.19 112.67 170.19 147.02 C 170.40 159.42 159.56 170.82 147.06 170.72 C 112.36 170.76 77.65 170.76 42.94 170.70 C 30.58 170.65 19.81 159.35 20.14 147.04 C 20.13 112.67 20.10 78.29 20.17 43.93 C 20.14 33.42 28.11 23.68 38.33 21.42 M 32.55 38.68 C 74.24 39.20 115.95 38.98 157.64 38.80 C 155.24 35.26 151.61 32.08 147.09 32.20 C 112.71 32.12 78.32 32.18 43.94 32.17 C 39.13 31.77 35.17 34.98 32.55 38.68 M 31.40 50.35 C 31.42 52.58 31.41 54.81 31.39 57.03 C 73.86 57.42 116.35 57.11 158.82 57.17 C 158.78 54.88 158.74 52.60 158.71 50.32 C 116.27 50.40 73.84 50.31 31.40 50.35 M 31.44 68.49 C 31.43 71.93 31.41 75.37 31.38 78.81 C 73.86 79.14 116.33 78.88 158.81 78.93 C 158.82 75.45 158.78 71.97 158.70 68.49 C 116.28 68.54 73.86 68.52 31.44 68.49 M 31.40 90.29 C 31.43 94.05 31.43 97.81 31.41 101.58 C 73.87 101.75 116.33 101.60 158.79 101.65 C 158.83 97.86 158.80 94.06 158.71 90.27 C 116.28 90.32 73.84 90.28 31.40 90.29 M 31.39 113.19 C 31.45 118.73 31.45 124.28 31.38 129.83 C 73.85 130.29 116.33 129.95 158.81 129.97 C 158.81 124.36 158.82 118.75 158.74 113.14 C 116.29 113.20 73.84 113.11 31.39 113.19 M 31.41 141.41 C 29.89 149.26 33.96 159.17 43.00 159.39 C 77.66 159.50 112.33 159.47 146.99 159.39 C 156.12 159.34 160.46 149.32 158.71 141.38 C 116.27 141.44 73.84 141.38 31.41 141.41 Z" />
</g>
</svg>
