<?xml version="1.0" encoding="UTF-8" ?>
<!DOCTYPE svg PUBLIC "-//W3C//DTD SVG 1.1//EN" "http://www.w3.org/Graphics/SVG/1.1/DTD/svg11.dtd">
<svg width="192pt" height="192pt" viewBox="0 0 192 192" version="1.1" xmlns="http://www.w3.org/2000/svg">
<g id="#ff575fff">
<path fill="#ff575f" opacity="1.00" d=" M 61.34 27.78 C 60.05 22.20 69.02 19.65 70.91 25.03 C 76.04 39.72 80.65 54.59 85.62 69.34 C 86.59 71.61 86.51 74.71 84.19 76.13 C 78.88 79.34 73.06 81.68 67.98 85.28 C 69.97 91.50 75.17 95.90 79.16 100.85 C 87.21 109.14 95.41 118.14 106.15 122.87 C 110.36 117.69 111.92 111.02 115.41 105.42 C 117.02 103.02 120.30 103.06 122.63 104.27 C 137.07 110.22 151.69 115.75 166.03 121.90 C 171.13 124.45 167.51 133.12 162.09 131.10 C 148.90 126.07 135.88 120.56 122.75 115.38 C 120.16 120.69 118.00 126.52 113.63 130.66 C 108.34 134.97 100.60 133.10 95.35 129.69 C 82.19 120.41 70.53 108.94 61.16 95.84 C 57.63 91.02 55.89 83.88 59.69 78.71 C 63.41 73.85 69.51 71.88 74.62 68.87 C 70.38 55.11 65.41 41.57 61.34 27.78 Z" />
<path fill="#ff575f" opacity="1.00" d=" M 50.39 28.44 C 55.47 26.46 59.70 34.09 55.41 37.38 C 48.57 41.30 41.99 45.78 36.69 51.69 C 32.42 55.23 34.89 61.31 35.04 66.03 C 42.28 111.68 81.95 150.62 127.91 156.42 C 130.60 156.68 133.44 157.14 136.07 156.25 C 143.14 151.18 148.01 143.78 152.53 136.49 C 156.27 131.92 164.17 137.15 161.40 142.40 C 156.31 152.12 149.09 161.06 139.97 167.25 C 82.63 168.84 30.01 119.86 23.66 63.52 C 23.67 58.29 21.44 51.86 25.67 47.67 C 32.50 39.72 40.81 32.79 50.39 28.44 Z" />
</g>
</svg>
