<?xml version="1.0" encoding="UTF-8" ?>
<!DOCTYPE svg PUBLIC "-//W3C//DTD SVG 1.1//EN" "http://www.w3.org/Graphics/SVG/1.1/DTD/svg11.dtd">
<svg width="192pt" height="192pt" viewBox="0 0 192 192" version="1.1" xmlns="http://www.w3.org/2000/svg">
<g id="#6197baff">
<path fill="#6197ba" opacity="1.00" d=" M 81.33 14.38 C 87.77 10.68 94.75 19.95 88.26 24.21 C 77.90 26.59 67.30 29.25 58.39 35.38 C 55.34 37.16 52.06 40.88 48.25 38.83 C 44.63 37.19 44.04 31.62 47.37 29.37 C 57.25 21.72 69.09 16.75 81.33 14.38 Z" />
<path fill="#6197ba" opacity="1.00" d=" M 105.27 14.28 C 119.33 13.88 133.12 20.61 144.57 28.51 C 148.18 30.44 148.66 36.01 145.15 38.28 C 142.56 40.32 139.22 38.93 136.96 37.12 C 127.88 30.54 117.13 26.71 106.16 24.79 C 101.14 23.90 100.58 16.11 105.27 14.28 Z" />
<path fill="#6197ba" opacity="1.00" d=" M 33.26 44.30 C 38.31 42.47 42.92 49.28 39.24 53.26 C 32.39 62.66 28.01 73.67 26.17 85.13 C 25.39 91.10 15.80 90.76 15.26 84.85 C 16.16 72.36 21.16 60.34 27.91 49.88 C 29.42 47.83 30.69 45.16 33.26 44.30 Z" />
<path fill="#6197ba" opacity="1.00" d=" M 155.32 44.33 C 158.14 42.78 161.47 44.42 163.00 46.98 C 170.77 57.86 176.27 70.64 177.69 84.00 C 178.21 89.99 168.56 91.71 166.98 85.90 C 164.92 74.26 160.78 62.89 153.70 53.33 C 151.28 50.64 151.86 45.84 155.32 44.33 Z" />
<path fill="#6197ba" opacity="1.00" d=" M 77.36 52.46 C 88.89 51.79 100.50 52.23 112.06 52.07 C 117.68 51.57 122.71 56.43 122.92 61.96 C 123.18 67.07 123.41 72.32 122.31 77.35 C 119.65 83.56 112.75 86.56 109.43 92.31 C 107.13 99.29 115.14 102.74 118.68 107.36 C 124.61 112.55 123.02 121.06 122.93 128.05 C 122.88 133.23 118.36 137.96 113.07 137.65 C 101.18 137.43 89.24 138.14 77.39 137.41 C 68.34 135.02 71.14 123.94 70.71 117.01 C 69.30 107.18 81.34 104.00 84.15 96.00 C 84.28 86.41 70.04 84.03 70.74 74.01 C 71.43 66.84 67.74 54.80 77.36 52.46 M 84.45 62.57 C 78.62 65.90 79.15 75.01 83.98 79.02 C 88.50 82.57 92.07 90.29 98.77 88.70 C 103.43 85.53 107.04 81.00 110.88 76.92 C 115.54 71.97 112.46 61.58 105.04 61.83 C 98.21 62.08 91.08 60.86 84.45 62.57 M 93.47 101.61 C 89.38 104.74 85.82 108.56 82.39 112.39 C 78.77 117.03 79.42 126.52 86.40 127.44 C 93.34 127.73 100.37 127.92 107.30 127.31 C 115.00 125.46 114.22 114.30 108.79 110.22 C 104.42 106.54 100.24 98.29 93.47 101.61 Z" />
<path fill="#6197ba" opacity="1.00" d=" M 18.32 101.33 C 21.55 99.51 25.87 102.03 26.23 105.64 C 27.99 115.87 31.55 125.89 37.51 134.45 C 39.13 136.89 41.64 139.80 40.04 142.87 C 38.53 146.47 33.21 147.46 30.79 144.24 C 22.61 133.72 17.39 120.95 15.40 107.81 C 14.81 105.29 15.87 102.41 18.32 101.33 Z" />
<path fill="#6197ba" opacity="1.00" d=" M 169.40 101.46 C 173.07 99.04 178.39 102.58 177.68 106.88 C 175.89 120.60 170.32 133.89 161.81 144.79 C 157.91 149.44 149.89 143.99 152.66 138.66 C 158.64 129.92 163.78 120.38 165.76 109.86 C 166.53 106.96 166.36 103.08 169.40 101.46 Z" />
<path fill="#6197ba" opacity="1.00" d=" M 48.36 151.41 C 51.01 150.47 53.75 151.47 55.81 153.19 C 65.07 160.00 76.17 163.69 87.37 165.72 C 93.02 167.60 91.06 177.12 85.06 176.39 C 71.41 174.57 58.16 169.16 47.27 160.73 C 44.06 158.43 44.74 152.93 48.36 151.41 Z" />
<path fill="#6197ba" opacity="1.00" d=" M 140.26 151.26 C 145.63 149.18 150.28 157.15 145.75 160.77 C 134.84 169.17 121.61 174.64 107.96 176.41 C 103.65 176.99 100.42 171.47 102.83 167.92 C 104.76 164.70 108.98 165.14 112.14 164.20 C 122.43 162.18 131.58 156.86 140.26 151.26 Z" />
</g>
</svg>
