<?xml version="1.0" encoding="UTF-8" ?>
<!DOCTYPE svg PUBLIC "-//W3C//DTD SVG 1.1//EN" "http://www.w3.org/Graphics/SVG/1.1/DTD/svg11.dtd">
<svg width="192pt" height="192pt" viewBox="0 0 192 192" version="1.1" xmlns="http://www.w3.org/2000/svg">
<g id="#3590ffff">
<path fill="#3590ff" opacity="1.00" d=" M 19.93 54.05 C 13.65 53.64 13.64 43.23 19.98 42.94 C 47.32 42.67 74.69 42.78 102.04 42.89 C 107.10 42.17 110.43 49.16 106.52 52.52 C 89.32 67.64 71.23 81.74 53.94 96.76 C 70.80 110.66 87.89 124.29 104.58 138.40 C 108.51 141.42 105.98 148.46 101.04 148.28 C 77.71 148.43 54.37 148.37 31.03 148.34 C 22.46 148.40 14.82 140.64 15.12 132.05 C 15.19 110.39 14.78 88.72 15.27 67.08 C 16.17 60.85 26.32 61.69 26.26 67.97 C 26.38 89.32 26.25 110.68 26.39 132.03 C 26.17 134.96 29.10 137.35 31.92 137.00 C 49.68 136.95 67.44 137.11 85.19 136.90 C 70.89 125.19 56.45 113.63 42.36 101.65 C 39.32 99.63 38.45 94.89 41.44 92.43 C 56.48 79.44 72.00 67.00 87.17 54.17 C 64.76 54.02 42.33 54.43 19.93 54.05 Z" />
<path fill="#3590ff" opacity="1.00" d=" M 135.28 45.23 C 140.17 41.77 146.44 49.06 142.48 53.44 C 125.56 68.26 107.33 81.71 90.75 96.87 C 107.76 111.00 125.03 124.83 142.06 138.92 C 146.85 143.02 140.65 151.40 135.36 147.68 C 116.29 132.47 97.36 117.04 78.74 101.27 C 75.50 99.06 75.48 93.95 78.78 91.78 C 97.54 76.18 116.27 60.52 135.28 45.23 Z" />
<path fill="#3590ff" opacity="1.00" d=" M 168.05 45.12 C 173.06 41.04 179.96 48.92 175.50 53.44 C 158.88 67.83 141.41 81.27 124.87 95.75 C 138.52 107.15 151.88 118.90 165.58 130.24 C 165.73 112.83 165.44 95.41 165.73 78.01 C 166.02 71.58 176.46 71.64 176.78 78.04 C 177.02 99.38 176.87 120.74 176.87 142.09 C 177.57 147.09 170.86 150.43 167.35 146.77 C 149.16 131.27 130.92 115.81 112.79 100.23 C 109.58 98.03 109.56 92.97 112.80 90.79 C 131.22 75.57 149.54 60.22 168.05 45.12 Z" />
</g>
</svg>
