<?xml version="1.0" encoding="UTF-8" ?>
<!DOCTYPE svg PUBLIC "-//W3C//DTD SVG 1.1//EN" "http://www.w3.org/Graphics/SVG/1.1/DTD/svg11.dtd">
<svg width="192pt" height="192pt" viewBox="0 0 192 192" version="1.1" xmlns="http://www.w3.org/2000/svg">
<g id="#8492a1ff">
<path fill="#8492a1" opacity="1.00" d=" M 22.05 43.93 C 21.87 31.66 32.77 20.66 45.04 20.72 C 79.35 20.63 113.67 20.62 147.98 20.73 C 160.18 20.77 171.05 31.71 170.82 43.94 C 170.86 77.98 170.87 112.02 170.81 146.07 C 171.04 158.27 160.19 169.19 148.01 169.24 C 130.33 169.27 112.64 169.32 94.96 169.22 C 92.24 169.31 90.41 166.09 91.68 163.74 C 94.92 155.60 98.55 147.61 101.71 139.43 C 94.95 139.33 88.16 139.14 81.41 139.48 C 77.47 145.54 76.04 153.03 72.26 159.23 C 67.96 161.47 62.67 159.87 57.97 160.33 C 54.83 160.96 51.97 157.50 53.58 154.62 C 59.12 141.19 64.91 127.86 70.42 114.41 C 73.01 108.21 76.11 101.74 81.86 97.86 C 87.08 94.10 93.72 93.13 100.01 93.38 C 111.67 93.46 123.34 93.31 135.00 93.44 C 138.67 93.13 141.41 97.44 139.57 100.64 C 132.62 117.00 125.66 133.36 118.80 149.76 C 117.07 153.34 119.90 158.08 123.94 157.99 C 131.98 158.09 140.04 158.07 148.08 157.99 C 154.68 157.89 160.14 151.59 159.69 145.08 C 159.66 111.36 159.74 77.64 159.65 43.93 C 159.71 37.31 153.59 31.64 147.05 31.84 C 113.36 31.83 79.66 31.82 45.97 31.85 C 39.39 31.58 33.12 37.24 33.30 43.93 C 33.19 83.97 33.40 124.01 33.19 164.05 C 33.27 170.98 22.03 170.95 22.11 164.04 C 21.93 124.01 22.05 83.97 22.05 43.93 M 95.28 112.21 C 91.51 113.89 89.93 117.97 88.68 121.60 C 95.58 121.77 102.50 121.86 109.40 121.59 C 110.92 118.22 112.35 114.80 113.61 111.33 C 107.53 111.05 101.09 109.80 95.28 112.21 Z" />
</g>
</svg>
