<?xml version="1.0" encoding="UTF-8" ?>
<!DOCTYPE svg PUBLIC "-//W3C//DTD SVG 1.1//EN" "http://www.w3.org/Graphics/SVG/1.1/DTD/svg11.dtd">
<svg width="192pt" height="192pt" viewBox="0 0 192 192" version="1.1" xmlns="http://www.w3.org/2000/svg">
<g id="#6b8bd0ff">
<path fill="#6b8bd0" opacity="1.00" d=" M 83.30 14.38 C 116.86 8.75 152.56 26.53 168.30 56.68 C 184.11 85.11 180.55 122.72 159.76 147.72 C 145.89 164.81 125.02 176.00 103.06 177.83 C 71.24 181.00 38.68 163.57 23.64 135.36 C 8.68 108.78 10.53 73.94 28.07 49.02 C 40.71 30.56 61.17 17.71 83.30 14.38 M 26.35 81.11 C 20.99 105.21 29.57 131.64 47.89 148.14 C 70.33 169.30 107.18 172.95 133.09 156.06 C 129.39 150.98 125.65 145.92 121.84 140.93 C 103.33 152.14 78.40 149.80 61.75 136.25 C 59.95 134.16 60.16 130.93 61.95 128.92 C 71.40 116.73 80.86 104.53 90.38 92.39 C 92.38 89.23 97.63 89.18 99.63 92.36 C 107.88 103.23 115.92 114.27 124.14 125.16 C 138.09 111.98 140.85 88.20 129.33 72.62 C 121.70 60.95 107.84 53.95 93.95 54.47 C 77.72 54.75 62.61 65.72 56.74 80.76 C 54.75 86.60 45.01 84.18 46.18 78.01 C 50.45 64.35 61.55 53.22 74.59 47.55 C 91.95 39.85 113.43 42.85 128.10 54.87 C 137.75 63.01 144.99 74.35 147.03 86.93 C 149.61 103.97 144.03 122.52 130.95 134.09 C 134.47 139.33 138.44 144.25 142.13 149.36 C 165.25 130.48 173.15 95.91 161.41 68.60 C 150.13 40.32 119.26 21.66 88.95 25.09 C 58.84 27.56 32.10 51.42 26.35 81.11 M 74.24 131.18 C 86.48 138.42 102.64 139.06 115.03 131.81 C 108.43 122.72 101.73 113.71 94.96 104.75 C 87.87 113.41 81.19 122.40 74.24 131.18 Z" />
</g>
</svg>
