<?xml version="1.0" encoding="UTF-8" ?>
<!DOCTYPE svg PUBLIC "-//W3C//DTD SVG 1.1//EN" "http://www.w3.org/Graphics/SVG/1.1/DTD/svg11.dtd">
<svg width="192pt" height="192pt" viewBox="0 0 192 192" version="1.1" xmlns="http://www.w3.org/2000/svg">
<g id="#474f5eff">
<path fill="#474f5e" opacity="1.00" d=" M 88.30 22.39 C 90.85 21.45 93.52 22.89 94.90 25.05 C 116.36 53.90 137.90 82.70 159.29 111.60 C 163.57 116.79 154.89 123.21 151.00 118.01 C 129.30 89.03 107.73 59.94 86.13 30.88 C 83.74 28.25 84.84 23.44 88.30 22.39 Z" />
<path fill="#474f5e" opacity="1.00" d=" M 63.19 47.22 C 65.80 45.99 68.86 47.41 70.26 49.77 C 85.70 70.63 101.42 91.32 116.66 112.32 C 119.86 117.56 111.52 122.85 107.99 118.02 C 92.38 97.27 76.95 76.38 61.45 55.55 C 59.15 53.02 59.98 48.54 63.19 47.22 Z" />
<path fill="#474f5e" opacity="1.00" d=" M 39.34 71.38 C 41.85 70.12 44.90 71.35 46.34 73.63 C 55.85 86.47 65.55 99.18 74.90 112.14 C 78.12 117.12 70.60 122.72 66.64 118.40 C 56.81 105.51 47.21 92.43 37.56 79.40 C 35.45 76.93 36.38 72.72 39.34 71.38 Z" />
<path fill="#474f5e" opacity="1.00" d=" M 71.15 127.05 C 73.26 126.48 76.28 127.29 76.15 129.96 C 76.30 139.97 76.31 149.99 76.15 159.99 C 74.54 162.50 71.16 161.04 68.95 160.22 C 60.16 165.07 47.96 158.41 48.37 148.13 C 48.03 137.68 60.91 130.95 69.51 136.75 C 70.05 133.61 68.17 129.31 71.15 127.05 M 59.31 141.38 C 53.68 143.38 53.59 152.66 59.13 154.87 C 63.31 156.97 68.90 153.99 69.45 149.33 C 70.56 143.98 64.31 138.78 59.31 141.38 Z" />
<path fill="#474f5e" opacity="1.00" d=" M 80.36 127.48 C 82.91 125.53 87.00 128.21 85.37 131.31 C 83.06 135.08 76.33 130.51 80.36 127.48 Z" />
<path fill="#474f5e" opacity="1.00" d=" M 111.13 127.03 C 113.25 126.48 116.20 127.30 116.10 129.95 C 116.28 139.95 116.26 149.97 116.12 159.97 C 114.49 162.51 111.09 161.02 108.84 160.23 C 103.64 162.45 97.02 162.48 92.79 158.24 C 86.94 153.35 86.85 143.57 92.45 138.46 C 96.85 133.85 104.13 133.72 109.46 136.73 C 110.00 133.60 108.09 129.25 111.13 127.03 M 99.28 141.37 C 94.37 143.11 93.13 150.44 97.31 153.66 C 101.35 157.70 109.07 154.69 109.42 149.02 C 110.29 143.70 104.16 139.01 99.28 141.37 Z" />
<path fill="#474f5e" opacity="1.00" d=" M 18.17 146.98 C 18.63 137.27 30.39 131.42 38.62 136.38 C 40.65 134.20 46.57 133.73 45.77 138.01 C 45.30 145.68 46.82 153.80 45.00 161.19 C 41.86 162.04 38.88 159.22 35.92 160.98 C 27.17 164.45 16.92 156.28 18.17 146.98 M 29.27 141.26 C 24.45 142.91 22.88 149.84 26.64 153.34 C 30.32 157.53 37.90 155.30 39.04 149.94 C 40.69 144.50 34.48 138.86 29.27 141.26 Z" />
<path fill="#474f5e" opacity="1.00" d=" M 79.25 137.09 C 79.80 133.57 86.34 134.23 85.69 138.08 C 85.37 145.74 86.61 153.71 85.06 161.19 C 83.07 161.04 79.01 162.11 79.18 158.93 C 79.16 151.65 79.04 144.36 79.25 137.09 Z" />
<path fill="#474f5e" opacity="1.00" d=" M 118.92 145.08 C 120.81 136.21 131.72 131.84 139.40 136.46 C 139.82 136.10 140.66 135.38 141.07 135.02 C 142.65 134.71 144.31 134.80 145.84 135.30 C 147.07 143.38 146.15 151.82 146.35 160.03 C 143.87 163.41 139.86 158.87 136.85 160.89 C 127.31 164.95 116.10 155.05 118.92 145.08 M 129.36 141.42 C 123.54 143.82 123.88 153.31 129.97 155.13 C 135.80 157.51 142.09 150.53 139.06 144.99 C 137.50 141.11 132.97 140.53 129.36 141.42 Z" />
<path fill="#474f5e" opacity="1.00" d=" M 150.43 147.60 C 147.00 142.87 150.60 136.01 156.10 135.08 C 161.41 133.15 172.25 136.19 170.05 143.18 C 164.56 145.53 161.97 136.63 156.43 140.60 C 155.03 145.48 162.26 144.49 165.20 145.68 C 172.02 145.96 174.77 155.44 169.31 159.36 C 162.90 163.70 151.03 162.50 148.70 154.03 C 150.45 151.62 154.95 152.01 156.27 154.79 C 158.14 157.57 165.49 157.70 164.81 153.31 C 160.80 150.04 154.01 151.95 150.43 147.60 Z" />
</g>
</svg>
