<?xml version="1.0" encoding="UTF-8" ?>
<!DOCTYPE svg PUBLIC "-//W3C//DTD SVG 1.1//EN" "http://www.w3.org/Graphics/SVG/1.1/DTD/svg11.dtd">
<svg width="192pt" height="192pt" viewBox="0 0 192 192" version="1.1" xmlns="http://www.w3.org/2000/svg">
<g id="#19b0ffff">
<path fill="#19b0ff" opacity="1.00" d=" M 66.85 51.67 C 75.40 36.58 93.79 31.16 110.02 29.93 C 128.35 29.68 146.69 29.78 165.02 29.87 C 169.41 29.51 173.24 34.23 171.40 38.39 C 169.26 43.18 167.02 47.96 164.49 52.56 C 162.46 56.20 156.50 55.85 154.82 52.07 C 152.90 48.21 156.26 44.54 157.68 41.11 C 141.76 41.20 125.84 40.94 109.93 41.24 C 99.84 42.08 89.25 44.71 81.35 51.33 C 77.25 54.36 76.64 61.00 71.12 62.19 C 61.48 64.14 51.65 65.06 42.02 67.06 C 35.34 68.47 28.52 72.55 26.25 79.32 C 24.32 84.87 26.01 90.83 28.21 96.03 C 29.49 96.78 31.01 95.55 32.37 95.44 C 48.31 90.86 65.86 96.05 78.09 106.87 C 90.88 118.06 98.33 134.01 103.23 150.00 C 121.06 150.09 136.82 139.15 147.90 125.95 C 160.47 112.10 167.85 92.58 164.27 73.88 C 163.26 69.75 168.08 65.97 171.88 67.79 C 175.58 69.20 175.69 73.73 176.24 77.04 C 177.99 96.33 171.11 115.93 158.70 130.67 C 146.13 146.29 128.55 159.39 108.00 161.12 C 102.95 161.71 95.66 162.60 93.52 156.60 C 88.53 140.26 81.65 123.05 67.33 112.68 C 57.16 105.11 43.31 102.86 31.40 107.44 C 27.59 109.15 21.80 109.99 19.68 105.37 C 16.34 97.04 12.72 88.03 14.74 78.89 C 16.93 67.05 27.77 58.61 39.12 56.21 C 48.30 54.33 57.60 53.09 66.85 51.67 Z" />
<path fill="#19b0ff" opacity="1.00" d=" M 89.33 65.50 C 100.95 63.47 112.45 60.61 124.15 59.11 C 117.78 66.35 108.60 70.98 101.04 77.08 C 95.49 81.09 90.22 75.13 86.67 71.34 C 84.45 69.19 86.47 65.54 89.33 65.50 Z" />
</g>
</svg>
