<?xml version="1.0" encoding="UTF-8" ?>
<!DOCTYPE svg PUBLIC "-//W3C//DTD SVG 1.1//EN" "http://www.w3.org/Graphics/SVG/1.1/DTD/svg11.dtd">
<svg width="192pt" height="192pt" viewBox="0 0 192 192" version="1.1" xmlns="http://www.w3.org/2000/svg">
<g id="#6faa92ff">
<path fill="#6faa92" opacity="1.00" d=" M 88.13 23.09 C 89.80 15.59 102.07 16.42 102.61 24.12 C 103.05 42.72 102.41 61.37 102.91 79.97 C 107.47 86.16 113.71 91.02 118.95 96.67 C 119.23 80.15 118.58 63.58 119.27 47.09 C 120.76 39.33 133.40 40.13 133.87 48.04 C 134.41 64.18 133.93 80.35 134.10 96.51 C 140.38 90.64 145.99 84.03 152.56 78.50 C 159.06 74.04 167.47 83.42 162.40 89.38 C 152.50 99.80 142.13 109.79 132.02 120.02 C 129.36 122.99 124.38 123.38 121.50 120.50 C 115.15 114.44 109.16 108.01 102.82 101.94 C 102.70 117.18 102.73 132.43 102.81 147.68 C 109.28 141.87 114.85 135.07 121.56 129.54 C 128.31 125.24 136.41 135.13 130.87 140.90 C 121.05 151.06 110.91 160.93 100.97 170.97 C 97.96 174.54 92.21 174.28 89.33 170.70 C 79.42 160.60 69.15 150.83 59.46 140.53 C 54.58 134.80 62.06 125.66 68.66 129.37 C 75.61 134.84 81.29 141.81 87.77 147.84 C 87.78 125.72 87.92 103.60 87.69 81.47 C 81.35 87.89 75.03 94.34 68.56 100.63 C 65.49 103.96 59.95 103.15 57.25 99.77 C 47.37 89.64 37.06 79.90 27.45 69.53 C 22.80 63.61 30.65 54.93 37.06 58.87 C 43.80 64.42 49.49 71.18 55.85 77.17 C 56.11 61.80 55.44 46.39 56.18 31.04 C 57.16 23.29 69.71 23.38 70.60 31.12 C 71.06 46.43 70.58 61.78 70.84 77.11 C 76.45 71.41 82.56 66.11 87.64 59.94 C 88.28 47.69 87.22 35.33 88.13 23.09 Z" />
</g>
</svg>
