<?xml version="1.0" encoding="UTF-8" ?>
<!DOCTYPE svg PUBLIC "-//W3C//DTD SVG 1.1//EN" "http://www.w3.org/Graphics/SVG/1.1/DTD/svg11.dtd">
<svg width="192pt" height="192pt" viewBox="0 0 192 192" version="1.1" xmlns="http://www.w3.org/2000/svg">
<g id="#e4952fff">
<path fill="#e4952f" opacity="1.00" d=" M 91.49 15.53 C 93.59 13.12 97.64 12.85 99.92 15.14 C 107.01 21.99 113.84 29.11 120.91 35.99 C 130.63 36.03 140.35 35.94 150.07 36.03 C 153.13 36.07 155.71 38.94 155.52 41.98 C 155.62 51.00 155.50 60.02 155.56 69.04 C 155.31 70.58 156.47 71.62 157.44 72.59 C 163.76 78.92 170.17 85.16 176.39 91.60 C 178.59 93.69 178.71 97.42 176.48 99.54 C 169.65 106.67 162.47 113.48 155.61 120.58 C 155.44 130.39 155.70 140.20 155.49 150.00 C 155.40 153.23 152.13 155.63 149.02 155.27 C 139.68 155.26 130.33 155.28 120.99 155.24 C 113.88 162.03 107.12 169.18 100.05 176.01 C 97.91 178.30 94.12 178.27 91.90 176.10 C 84.74 169.28 78.00 162.01 70.80 155.23 C 61.18 155.26 51.57 155.31 41.95 155.23 C 39.09 155.24 36.48 152.75 36.39 149.89 C 36.14 140.26 36.53 130.61 36.24 120.99 C 29.86 113.38 22.14 106.90 15.42 99.56 C 13.35 97.41 13.36 93.59 15.55 91.52 C 22.25 84.53 29.34 77.91 35.99 70.87 C 36.88 61.05 35.96 51.02 36.43 41.12 C 36.59 38.35 39.16 36.02 41.92 36.04 C 51.62 35.91 61.32 36.07 71.02 35.97 C 77.87 29.18 84.63 22.31 91.49 15.53 M 87.88 35.88 C 93.26 35.98 98.64 36.06 104.02 35.92 C 101.30 33.28 98.65 30.58 95.94 27.94 C 93.23 30.57 90.61 33.27 87.88 35.88 M 76.40 47.54 C 67.30 56.39 58.46 65.50 49.40 74.39 C 47.96 75.47 47.77 77.31 47.84 78.97 C 47.90 90.66 47.81 102.35 47.88 114.04 C 47.68 115.43 49.05 116.25 49.80 117.20 C 58.69 125.98 67.43 134.91 76.36 143.65 C 89.44 143.64 102.53 143.70 115.61 143.61 C 125.02 134.07 134.83 124.84 143.92 115.02 C 144.06 102.00 144.00 88.97 143.94 75.94 C 134.49 66.47 125.08 56.96 115.55 47.58 C 102.50 47.52 89.45 47.58 76.40 47.54 M 47.88 47.58 C 47.83 51.37 47.78 55.15 47.98 58.93 C 51.76 55.23 55.61 51.59 59.11 47.62 C 55.37 47.50 51.62 47.53 47.88 47.58 M 132.89 47.61 C 136.22 51.76 140.28 55.24 143.95 59.08 C 144.02 55.24 143.99 51.40 143.89 47.57 C 140.23 47.56 136.56 47.51 132.89 47.61 M 28.26 95.61 C 30.92 98.26 33.49 101.00 36.29 103.51 C 36.36 98.23 36.38 92.95 36.24 87.68 C 33.52 90.26 30.88 92.92 28.26 95.61 M 155.62 87.87 C 155.50 93.08 155.53 98.30 155.60 103.51 C 158.34 100.97 160.94 98.30 163.57 95.66 C 161.03 92.96 158.47 90.26 155.62 87.87 M 132.77 143.54 C 136.49 143.65 140.21 143.64 143.93 143.68 C 144.04 139.83 143.93 135.98 143.85 132.13 C 140.28 136.06 136.28 139.57 132.77 143.54 M 47.95 132.49 C 47.82 136.21 47.74 139.94 48.07 143.65 C 51.78 143.65 55.50 143.67 59.21 143.63 C 55.58 139.80 51.90 136.00 47.95 132.49 M 87.90 155.18 C 90.59 157.87 93.18 160.65 95.97 163.24 C 98.71 160.62 101.32 157.87 104.01 155.20 C 98.64 155.29 93.27 155.31 87.90 155.18 Z" />
<path fill="#e4952f" opacity="1.00" d=" M 73.35 62.46 C 87.22 61.87 101.14 62.35 115.03 62.17 C 122.59 61.76 129.41 68.55 129.48 76.02 C 129.55 89.01 129.52 102.00 129.52 114.99 C 129.67 122.70 122.66 129.56 114.98 129.43 C 101.99 129.42 89.00 129.48 76.01 129.38 C 68.63 129.13 62.03 122.54 62.23 115.07 C 62.22 102.02 62.19 88.97 62.27 75.92 C 62.30 69.59 67.24 63.84 73.35 62.46 M 75.42 73.58 C 73.52 73.97 73.44 76.42 73.47 77.99 C 73.53 90.33 73.42 102.68 73.53 115.02 C 73.40 117.25 76.07 118.26 77.92 118.17 C 89.97 118.14 102.02 118.16 114.07 118.12 C 115.84 118.21 118.13 117.06 118.10 115.06 C 118.25 102.69 118.12 90.32 118.20 77.95 C 118.48 75.92 117.33 73.08 114.88 73.45 C 101.73 73.50 88.55 73.19 75.42 73.58 Z" />
</g>
</svg>
