<?xml version="1.0" encoding="UTF-8" ?>
<!DOCTYPE svg PUBLIC "-//W3C//DTD SVG 1.1//EN" "http://www.w3.org/Graphics/SVG/1.1/DTD/svg11.dtd">
<svg width="192pt" height="192pt" viewBox="0 0 192 192" version="1.1" xmlns="http://www.w3.org/2000/svg">
<g id="#18acffff">
<path fill="#18acff" opacity="1.00" d=" M 39.31 22.40 C 42.81 21.58 46.43 21.73 50.00 21.73 C 82.33 21.77 114.65 21.67 146.98 21.77 C 159.30 21.69 170.19 32.68 170.13 44.98 C 170.22 78.99 170.16 113.00 170.16 147.00 C 170.50 159.43 159.57 170.87 147.07 170.73 C 112.69 170.75 78.32 170.74 43.94 170.69 C 31.56 170.72 20.72 159.39 21.13 147.04 C 21.14 113.00 21.13 78.97 21.17 44.94 C 21.06 34.41 29.07 24.63 39.31 22.40 M 41.29 33.39 C 36.30 34.82 32.23 39.62 32.34 44.93 C 32.29 78.97 32.33 113.02 32.33 147.06 C 32.00 153.84 38.20 159.87 44.93 159.57 C 78.64 159.60 112.35 159.58 146.06 159.56 C 152.89 159.94 159.09 153.92 158.92 147.09 C 158.97 113.03 159.02 78.97 158.90 44.91 C 158.89 37.79 151.94 32.22 145.01 32.89 C 110.45 33.23 75.78 32.14 41.29 33.39 Z" />
<path fill="#18acff" opacity="1.00" d=" M 53.88 67.94 C 60.19 57.12 72.45 49.99 85.02 50.23 C 97.97 50.29 110.43 58.15 116.21 69.71 C 117.23 72.72 120.60 73.23 123.15 74.36 C 122.60 76.35 121.54 77.62 119.34 76.41 C 123.29 90.04 118.46 105.51 107.36 114.36 C 99.96 120.76 89.77 123.28 80.15 122.28 C 80.25 122.94 80.47 124.27 80.58 124.94 C 79.99 125.22 78.79 125.79 78.19 126.07 C 77.31 124.56 76.41 123.06 75.51 121.56 C 53.02 116.16 41.34 87.44 53.88 67.94 M 101.50 74.26 C 107.23 80.02 113.11 85.63 118.99 91.23 C 119.05 89.18 119.11 87.12 119.16 85.07 C 113.69 80.68 109.88 71.67 101.50 74.26 M 89.13 79.64 C 97.38 88.07 105.69 96.45 114.02 104.80 C 114.81 103.26 115.61 101.72 116.42 100.20 C 108.71 92.74 101.38 84.87 93.58 77.51 C 91.95 77.57 90.59 78.96 89.13 79.64 M 83.28 84.94 C 82.33 86.29 81.36 87.64 80.38 88.98 C 88.54 97.51 97.09 105.67 105.34 114.11 C 106.62 113.07 107.89 112.01 109.15 110.96 C 100.52 102.29 92.02 93.50 83.28 84.94 M 76.75 96.72 C 76.55 99.00 75.07 101.98 77.28 103.72 C 82.65 109.11 88.03 114.49 93.35 119.92 C 95.04 119.37 96.73 118.81 98.42 118.24 C 91.25 111.01 84.09 103.77 76.75 96.72 M 76.29 113.89 C 77.03 116.11 77.80 118.33 78.58 120.54 C 80.20 120.71 81.82 120.88 83.44 121.05 C 81.18 118.54 78.80 116.15 76.29 113.89 Z" />
<path fill="#18acff" opacity="1.00" d=" M 128.32 77.47 C 129.95 78.79 131.52 80.19 133.00 81.67 C 132.28 82.37 131.57 83.08 130.86 83.79 C 129.45 82.52 128.04 81.26 126.64 80.00 C 127.06 79.36 127.90 78.10 128.32 77.47 Z" />
<path fill="#18acff" opacity="1.00" d=" M 134.37 88.09 C 135.04 87.69 136.36 86.88 137.02 86.48 C 137.99 88.31 139.00 90.13 140.02 91.94 C 139.04 92.34 138.06 92.74 137.09 93.14 C 136.19 91.46 135.28 89.77 134.37 88.09 Z" />
<path fill="#18acff" opacity="1.00" d=" M 138.99 98.32 C 139.72 98.17 141.18 97.87 141.91 97.72 C 142.28 99.77 142.64 101.83 142.96 103.89 C 142.18 103.95 140.60 104.08 139.82 104.14 C 139.52 102.20 139.24 100.26 138.99 98.32 Z" />
<path fill="#18acff" opacity="1.00" d=" M 139.78 109.84 C 140.54 109.90 142.05 110.03 142.81 110.09 C 142.43 112.12 142.07 114.15 141.71 116.18 C 140.63 115.95 139.56 115.66 138.51 115.31 C 138.97 113.49 139.39 111.67 139.78 109.84 Z" />
<path fill="#18acff" opacity="1.00" d=" M 133.64 125.71 C 134.57 123.94 135.63 122.25 136.85 120.66 C 137.48 121.02 138.74 121.75 139.37 122.11 C 138.31 123.90 137.23 125.68 136.15 127.45 C 135.52 127.01 134.27 126.15 133.64 125.71 Z" />
<path fill="#18acff" opacity="1.00" d=" M 84.21 128.86 C 85.69 130.13 87.17 131.41 88.63 132.71 C 88.16 133.33 87.23 134.58 86.76 135.21 C 85.19 133.82 83.63 132.43 82.07 131.03 C 82.60 130.49 83.67 129.40 84.21 128.86 Z" />
<path fill="#18acff" opacity="1.00" d=" M 125.60 133.26 C 127.08 132.15 128.53 131.02 129.98 129.86 C 130.69 130.59 131.40 131.33 132.11 132.06 C 130.48 133.43 128.83 134.76 127.16 136.09 C 126.64 135.14 126.12 134.20 125.60 133.26 Z" />
<path fill="#18acff" opacity="1.00" d=" M 93.17 135.56 C 95.01 136.24 96.85 136.94 98.68 137.66 C 98.46 138.41 98.04 139.91 97.83 140.65 C 95.91 139.92 94.00 139.17 92.08 138.44 C 92.44 137.48 92.81 136.52 93.17 135.56 Z" />
<path fill="#18acff" opacity="1.00" d=" M 115.29 137.99 C 117.06 137.36 118.83 136.74 120.62 136.18 C 121.06 137.12 121.50 138.06 121.94 139.01 C 119.96 139.68 117.99 140.35 116.01 141.01 C 115.77 140.00 115.53 138.99 115.29 137.99 Z" />
<path fill="#18acff" opacity="1.00" d=" M 104.01 138.80 C 105.94 138.81 107.87 138.80 109.80 138.79 C 109.85 139.57 109.96 141.13 110.01 141.91 C 107.95 141.89 105.88 141.87 103.82 141.86 C 103.87 141.10 103.96 139.57 104.01 138.80 Z" />
</g>
</svg>
