<?xml version="1.0" encoding="UTF-8" ?>
<!DOCTYPE svg PUBLIC "-//W3C//DTD SVG 1.1//EN" "http://www.w3.org/Graphics/SVG/1.1/DTD/svg11.dtd">
<svg width="192pt" height="192pt" viewBox="0 0 192 192" version="1.1" xmlns="http://www.w3.org/2000/svg">
<g id="#ff3664ff">
<path fill="#ff3664" opacity="1.00" d=" M 54.10 63.16 C 55.46 60.91 56.84 57.76 59.96 57.88 C 72.30 57.68 84.65 57.85 96.99 57.80 C 107.12 57.87 116.39 62.96 123.71 69.63 C 124.42 65.91 122.21 60.42 126.16 58.10 C 135.09 57.51 144.11 57.73 153.06 58.02 C 170.69 59.80 183.16 79.73 177.38 96.43 C 173.94 108.82 161.68 116.31 149.42 117.55 C 149.19 122.77 149.39 128.01 149.18 133.24 C 140.75 133.43 132.32 133.20 123.89 133.17 C 123.95 129.20 123.99 125.23 123.74 121.28 C 116.95 126.99 109.23 132.35 100.07 132.97 C 90.64 133.51 81.17 133.14 71.72 133.10 C 71.66 127.92 71.71 122.73 71.45 117.56 C 65.44 117.28 59.37 116.85 53.39 117.53 C 47.99 121.59 47.80 131.76 40.06 133.05 C 31.39 133.27 22.67 133.46 14.01 132.84 C 27.00 109.41 40.86 86.45 54.10 63.16 M 60.56 71.59 C 50.74 88.91 40.44 105.95 30.75 123.33 C 43.81 127.91 40.91 105.15 52.98 107.37 C 62.35 107.60 71.73 107.04 81.08 107.69 C 81.29 112.93 81.07 118.18 81.44 123.42 C 94.58 124.56 110.92 124.36 118.64 111.61 C 120.98 105.44 128.21 107.66 133.28 107.78 C 133.53 112.99 133.32 118.20 133.66 123.41 C 135.71 123.50 137.77 123.47 139.80 123.15 C 139.85 118.00 139.74 112.85 139.90 107.71 C 145.79 106.92 152.07 108.29 157.60 105.60 C 165.04 102.30 169.87 94.06 169.08 85.94 C 168.58 76.78 161.02 68.48 151.80 67.63 C 145.73 67.27 139.65 67.43 133.57 67.57 C 133.21 75.50 133.67 83.44 133.31 91.37 C 130.19 91.52 127.07 91.51 123.96 91.38 C 121.61 79.19 111.48 68.58 98.80 67.62 C 87.53 67.27 76.24 67.55 64.97 67.49 C 62.52 67.25 61.69 69.97 60.56 71.59 Z" />
<path fill="#ff3664" opacity="1.00" d=" M 71.78 73.95 C 74.83 73.83 77.89 73.83 80.94 74.02 C 81.09 82.83 81.93 92.02 80.59 100.62 C 70.98 101.88 61.20 100.72 51.52 100.74 C 53.77 97.33 54.74 90.74 59.95 91.24 C 63.80 91.26 67.67 91.35 71.51 90.93 C 71.70 85.27 71.45 79.61 71.78 73.95 Z" />
<path fill="#ff3664" opacity="1.00" d=" M 87.87 73.99 C 97.07 72.86 107.86 74.27 113.24 82.77 C 121.11 92.41 117.48 107.91 107.02 114.06 C 101.31 117.58 94.30 117.39 87.86 116.89 C 87.61 113.75 87.62 110.60 88.05 107.48 C 93.25 107.13 99.34 108.45 103.59 104.64 C 109.10 100.19 109.06 90.86 103.63 86.36 C 99.32 82.38 93.06 83.90 87.76 83.23 C 87.68 80.15 87.69 77.07 87.87 73.99 Z" />
<path fill="#ff3664" opacity="1.00" d=" M 140.02 74.02 C 146.04 73.92 153.05 72.67 157.95 77.08 C 164.03 81.98 164.37 92.28 158.37 97.38 C 153.36 101.71 146.23 101.38 140.06 100.75 C 139.79 97.61 139.81 94.45 140.16 91.33 C 143.70 91.17 147.30 91.53 150.79 90.81 C 153.86 89.81 153.82 85.10 150.87 83.98 C 147.29 83.13 143.54 83.65 139.89 83.21 C 139.83 80.14 139.85 77.08 140.02 74.02 Z" />
</g>
</svg>
