<?xml version="1.0" encoding="UTF-8" ?>
<!DOCTYPE svg PUBLIC "-//W3C//DTD SVG 1.1//EN" "http://www.w3.org/Graphics/SVG/1.1/DTD/svg11.dtd">
<svg width="192pt" height="192pt" viewBox="0 0 192 192" version="1.1" xmlns="http://www.w3.org/2000/svg">
<g id="#18b8c5ff">
<path fill="#18b8c5" opacity="1.00" d=" M 13.48 50.95 C 13.08 44.46 18.37 38.35 25.01 38.49 C 58.69 38.34 92.39 38.40 126.07 38.43 C 131.67 38.20 137.22 42.05 138.16 47.73 C 139.06 54.12 138.41 60.61 138.65 67.04 C 144.34 62.63 149.37 57.36 155.33 53.33 C 163.88 48.28 176.05 55.04 176.17 64.97 C 176.28 84.99 176.27 105.02 176.18 125.03 C 176.11 135.58 162.53 142.28 154.09 135.94 C 145.41 128.69 136.95 121.10 128.89 113.15 C 124.50 108.68 131.22 101.04 136.20 104.85 C 144.33 112.01 152.09 119.63 160.47 126.52 C 162.65 128.25 165.59 125.55 164.96 123.10 C 164.91 104.04 165.08 84.98 164.88 65.93 C 165.14 63.32 161.53 62.11 159.90 63.94 C 152.76 69.79 145.96 76.05 138.65 81.70 C 134.31 84.75 127.46 81.39 127.42 76.02 C 127.13 67.27 127.51 58.50 127.23 49.74 C 93.06 49.59 58.90 49.61 24.74 49.71 C 24.67 79.72 24.46 109.75 24.86 139.75 C 58.92 139.93 92.99 139.96 127.05 139.72 C 127.68 136.31 126.30 131.92 129.45 129.46 C 132.59 126.66 138.25 128.95 138.48 133.17 C 138.80 138.00 138.93 143.59 135.40 147.39 C 131.96 150.95 126.64 151.23 121.99 151.22 C 89.98 151.11 57.96 151.35 25.95 151.10 C 19.60 151.32 13.56 146.38 13.54 139.82 C 13.33 110.20 13.49 80.57 13.48 50.95 Z" />
</g>
</svg>
