<?xml version="1.0" encoding="UTF-8" ?>
<!DOCTYPE svg PUBLIC "-//W3C//DTD SVG 1.1//EN" "http://www.w3.org/Graphics/SVG/1.1/DTD/svg11.dtd">
<svg width="192pt" height="192pt" viewBox="0 0 192 192" version="1.1" xmlns="http://www.w3.org/2000/svg">
<g id="#f6b02cff">
<path fill="#f6b02c" opacity="1.00" d=" M 85.31 14.41 C 118.27 9.60 152.79 27.44 168.16 56.93 C 184.26 86.06 179.91 124.81 157.61 149.55 C 136.11 174.83 98.55 184.38 67.57 172.48 C 46.84 164.91 29.55 148.54 20.82 128.27 C 9.30 102.30 12.74 70.43 29.63 47.57 C 42.62 29.52 63.22 17.16 85.31 14.41 M 87.36 25.45 C 63.52 28.08 41.87 44.02 31.85 65.74 C 18.19 93.94 26.39 130.56 50.92 150.11 C 76.64 172.27 118.40 171.40 143.16 148.17 C 167.44 127.20 173.78 89.04 157.74 61.29 C 144.34 36.53 115.30 21.71 87.36 25.45 Z" />
<path fill="#f6b02c" opacity="1.00" d=" M 94.32 55.43 C 97.93 54.29 101.79 55.19 105.04 56.94 C 113.89 61.41 122.90 65.59 131.65 70.25 C 133.69 70.90 134.21 74.20 131.97 74.95 C 122.99 79.74 113.77 84.08 104.72 88.75 C 100.61 91.08 95.40 91.06 91.24 88.86 C 82.79 84.66 74.36 80.40 65.91 76.18 C 64.43 75.26 62.07 74.43 62.25 72.31 C 63.50 69.81 66.46 69.07 68.73 67.79 C 77.31 63.79 85.59 59.08 94.32 55.43 Z" />
<path fill="#f6b02c" opacity="1.00" d=" M 57.19 79.38 C 65.93 81.99 73.72 87.21 82.06 90.91 C 86.92 93.24 93.41 95.64 93.85 101.94 C 94.28 111.63 94.13 121.36 93.94 131.05 C 94.13 133.67 91.45 135.55 89.09 134.19 C 79.52 129.78 70.15 124.91 60.68 120.27 C 56.74 118.51 54.12 114.40 54.17 110.08 C 54.08 101.37 54.09 92.65 54.17 83.95 C 54.12 82.04 54.93 79.45 57.19 79.38 Z" />
<path fill="#f6b02c" opacity="1.00" d=" M 135.36 79.41 C 138.04 78.69 139.32 81.79 139.13 83.97 C 139.26 93.33 139.57 102.72 138.94 112.07 C 138.85 115.68 136.27 118.68 133.05 120.06 C 123.41 124.83 113.85 129.81 104.09 134.33 C 101.74 135.59 99.34 133.27 99.53 130.86 C 99.45 121.30 99.28 111.72 99.59 102.17 C 99.78 98.13 102.77 94.90 106.37 93.41 C 116.08 88.84 125.46 83.51 135.36 79.41 Z" />
</g>
</svg>
