<?xml version="1.0" encoding="UTF-8" ?>
<!DOCTYPE svg PUBLIC "-//W3C//DTD SVG 1.1//EN" "http://www.w3.org/Graphics/SVG/1.1/DTD/svg11.dtd">
<svg width="192pt" height="192pt" viewBox="0 0 192 192" version="1.1" xmlns="http://www.w3.org/2000/svg">
<g id="#23bbdeff">
<path fill="#23bbde" opacity="1.00" d=" M 21.08 43.93 C 20.90 31.70 31.76 20.63 44.02 20.76 C 78.34 20.73 112.66 20.69 146.98 20.76 C 159.16 20.77 169.87 31.79 169.69 43.94 C 169.68 56.58 169.87 69.24 169.61 81.88 C 169.34 87.61 160.24 88.48 158.83 82.92 C 158.07 69.71 158.91 56.42 158.44 43.18 C 158.11 36.92 152.25 31.76 146.03 31.89 C 112.35 31.80 78.67 31.82 44.99 31.83 C 38.39 31.58 32.14 37.21 32.25 43.92 C 32.17 77.97 32.20 112.02 32.24 146.07 C 32.09 152.43 37.63 158.28 44.03 158.28 C 78.00 158.35 111.98 158.27 145.95 158.28 C 152.31 158.58 158.21 153.19 158.44 146.82 C 158.69 138.31 158.47 129.78 158.52 121.27 C 155.39 121.22 152.21 121.52 149.11 120.91 C 145.36 119.85 143.85 114.49 146.66 111.71 C 150.87 107.23 155.29 102.94 159.66 98.62 C 161.68 96.42 165.44 96.15 167.59 98.30 C 172.07 102.52 176.37 106.94 180.67 111.33 C 183.75 113.99 182.65 119.58 178.79 120.83 C 175.84 121.57 172.76 121.20 169.76 121.26 C 169.63 130.18 169.92 139.10 169.63 148.01 C 168.95 159.93 157.91 169.93 145.99 169.57 C 112.00 169.57 78.01 169.60 44.02 169.53 C 31.63 169.59 20.78 158.40 21.04 146.04 C 21.02 112.01 21.03 77.97 21.08 43.93 Z" />
<path fill="#23bbde" opacity="1.00" d=" M 85.94 51.91 C 91.89 49.35 98.82 49.99 105.08 50.91 C 111.61 52.12 112.24 60.07 111.33 65.38 C 108.74 65.49 106.12 65.46 103.60 64.77 C 105.78 56.84 95.36 54.99 90.92 58.95 C 89.52 65.75 90.42 72.95 90.39 79.90 C 90.54 84.73 96.70 83.61 99.98 83.46 C 104.16 83.27 103.30 78.11 103.53 75.22 C 101.74 75.05 99.95 74.87 98.16 74.68 C 98.14 72.83 98.14 70.98 98.17 69.13 C 102.63 68.72 107.16 68.48 111.60 69.31 C 111.12 75.94 113.96 85.96 106.46 89.49 C 99.87 91.06 92.41 91.42 86.01 88.95 C 80.22 84.64 82.41 76.24 81.86 70.00 C 82.33 64.02 80.41 56.04 85.94 51.91 Z" />
<path fill="#23bbde" opacity="1.00" d=" M 56.78 54.66 C 57.35 49.18 64.77 50.02 68.30 51.71 C 72.58 64.19 76.19 76.95 79.76 89.67 C 77.04 90.30 74.23 90.31 71.50 89.71 C 70.79 87.35 70.10 84.98 69.30 82.65 C 65.24 82.69 61.17 82.70 57.11 82.76 C 57.70 88.79 51.24 92.96 46.78 88.90 C 49.64 77.37 53.57 66.10 56.78 54.66 M 58.98 76.24 C 61.91 76.27 64.84 76.27 67.77 76.28 C 66.33 71.06 64.94 65.82 63.41 60.63 C 61.65 65.75 60.35 71.01 58.98 76.24 Z" />
<path fill="#23bbde" opacity="1.00" d=" M 117.51 51.31 C 125.46 50.26 133.68 50.41 141.66 51.24 C 141.64 53.33 141.60 55.43 141.53 57.53 C 136.26 57.81 130.99 57.66 125.71 57.70 C 125.71 60.73 125.71 63.76 125.72 66.79 C 130.34 66.88 135.01 66.50 139.59 67.32 C 139.60 69.41 139.58 71.49 139.53 73.58 C 134.93 73.89 130.32 73.80 125.72 73.78 C 125.71 76.89 125.71 80.00 125.71 83.12 C 131.06 83.14 136.41 82.98 141.76 83.29 C 141.82 85.45 141.84 87.61 141.83 89.78 C 133.76 90.32 125.55 90.67 117.53 89.58 C 117.49 76.82 117.53 64.06 117.51 51.31 Z" />
</g>
</svg>
