<?xml version="1.0" encoding="UTF-8" ?>
<!DOCTYPE svg PUBLIC "-//W3C//DTD SVG 1.1//EN" "http://www.w3.org/Graphics/SVG/1.1/DTD/svg11.dtd">
<svg width="192pt" height="192pt" viewBox="0 0 192 192" version="1.1" xmlns="http://www.w3.org/2000/svg">
<g id="#ff8d1fff">
<path fill="#ff8d1f" opacity="1.00" d=" M 123.25 55.26 C 128.34 52.42 133.95 59.76 129.91 63.93 C 123.87 69.25 117.34 74.03 111.13 79.17 C 108.91 81.31 105.02 81.52 102.88 79.16 C 98.89 75.14 94.67 71.31 90.97 67.02 C 87.86 62.71 93.16 56.59 97.87 58.89 C 101.51 61.22 104.12 64.80 107.27 67.70 C 112.72 63.72 117.67 59.05 123.25 55.26 Z" />
<path fill="#ff8d1f" opacity="1.00" d=" M 70.72 76.00 C 71.26 70.75 79.38 69.85 81.15 74.81 C 82.12 79.14 81.32 83.69 81.59 88.10 C 86.83 85.05 92.88 83.12 99.00 83.83 C 111.69 84.69 122.50 96.31 122.44 109.03 C 122.44 116.35 122.67 123.69 122.33 130.99 C 121.75 136.64 112.86 137.04 111.65 131.54 C 110.96 123.73 111.72 115.84 111.30 108.00 C 110.78 100.44 103.51 94.28 95.99 94.70 C 88.98 94.80 82.61 100.51 81.76 107.46 C 81.15 115.61 82.10 123.83 81.30 131.95 C 79.52 137.61 70.27 135.96 70.62 130.01 C 70.60 112.02 70.42 94.00 70.72 76.00 Z" />
<path fill="#ff8d1f" opacity="1.00" d=" M 21.99 90.04 C 32.32 80.54 50.25 82.01 58.91 93.06 C 67.90 103.28 64.04 117.70 64.80 130.03 C 65.02 136.70 55.19 137.14 53.58 131.08 C 42.10 139.23 24.68 135.77 17.25 123.80 C 10.20 113.43 12.24 98.01 21.99 90.04 M 34.32 95.41 C 28.31 97.45 23.63 103.54 24.11 110.02 C 23.97 117.85 31.21 124.78 39.00 124.47 C 47.16 124.74 54.50 117.12 53.84 108.97 C 53.81 99.52 43.23 92.09 34.32 95.41 Z" />
<path fill="#ff8d1f" opacity="1.00" d=" M 132.03 92.98 C 138.39 85.08 149.52 81.88 159.20 84.69 C 169.73 87.65 177.86 97.92 177.82 108.94 C 177.74 116.52 178.21 124.15 177.58 131.70 C 175.96 137.23 168.05 136.24 166.55 131.08 C 156.94 137.75 142.80 136.91 134.37 128.66 C 124.24 119.89 123.14 103.00 132.03 92.98 M 147.32 95.41 C 141.24 97.38 136.64 103.56 137.07 110.04 C 136.96 118.22 144.86 125.30 152.98 124.41 C 161.12 124.13 167.87 116.06 166.73 108.00 C 166.07 98.94 155.89 92.30 147.32 95.41 Z" />
</g>
</svg>
