<?xml version="1.0" encoding="UTF-8" ?>
<!DOCTYPE svg PUBLIC "-//W3C//DTD SVG 1.1//EN" "http://www.w3.org/Graphics/SVG/1.1/DTD/svg11.dtd">
<svg width="192pt" height="192pt" viewBox="0 0 192 192" version="1.1" xmlns="http://www.w3.org/2000/svg">
<g id="#f6b02cff">
<path fill="#f6b02c" opacity="1.00" d=" M 82.41 12.53 C 115.37 7.35 150.14 24.87 165.80 54.27 C 182.31 83.48 178.09 122.62 155.61 147.56 C 134.28 172.61 97.15 182.25 66.32 170.75 C 45.49 163.38 28.04 147.15 19.12 126.94 C 7.37 101.08 10.52 69.19 27.20 46.17 C 39.99 28.05 60.41 15.52 82.41 12.53 M 85.36 23.45 C 61.52 26.08 39.87 42.02 29.85 63.74 C 16.20 91.95 24.39 128.56 48.93 148.11 C 74.83 170.44 116.98 169.35 141.68 145.70 C 165.76 124.48 171.72 86.24 155.38 58.64 C 141.83 34.25 113.05 19.76 85.36 23.45 Z" />
<path fill="#f6b02c" opacity="1.00" d=" M 70.36 58.37 C 82.50 57.00 88.06 73.26 82.25 82.26 C 79.46 87.70 72.09 90.70 66.65 87.30 C 55.74 81.06 57.40 60.90 70.36 58.37 Z" />
<path fill="#f6b02c" opacity="1.00" d=" M 113.34 58.34 C 124.90 56.92 130.64 71.93 125.95 80.98 C 123.56 86.82 116.27 90.80 110.33 87.67 C 98.71 81.99 100.17 60.97 113.34 58.34 Z" />
<path fill="#f6b02c" opacity="1.00" d=" M 125.33 116.41 C 129.94 114.23 135.15 120.14 132.32 124.41 C 115.10 145.57 80.45 147.91 60.18 129.82 C 57.13 127.45 53.11 123.71 55.64 119.53 C 57.73 115.76 63.12 116.27 65.52 119.46 C 78.51 132.62 100.83 134.48 116.02 124.05 C 119.51 121.98 121.94 118.57 125.33 116.41 Z" />
</g>
</svg>
