<?xml version="1.0" encoding="UTF-8" ?>
<!DOCTYPE svg PUBLIC "-//W3C//DTD SVG 1.1//EN" "http://www.w3.org/Graphics/SVG/1.1/DTD/svg11.dtd">
<svg width="192pt" height="192pt" viewBox="0 0 192 192" version="1.1" xmlns="http://www.w3.org/2000/svg">
<g id="#f6b530ff">
<path fill="#f6b530" opacity="1.00" d=" M 117.29 12.34 C 133.18 8.06 150.06 22.69 147.87 39.04 C 147.12 56.06 126.60 67.43 111.71 59.26 C 102.48 54.73 96.70 44.19 97.94 33.96 C 98.90 23.59 107.11 14.47 117.29 12.34 M 119.32 23.43 C 109.11 25.53 105.56 39.90 113.28 46.72 C 120.41 54.40 134.83 49.96 136.43 39.61 C 138.94 29.91 128.85 20.52 119.32 23.43 Z" />
<path fill="#f6b530" opacity="1.00" d=" M 91.43 64.34 C 94.19 61.56 98.95 61.39 101.73 64.24 C 113.30 74.85 130.03 76.08 144.96 76.15 C 150.45 76.52 157.23 72.61 161.71 77.28 C 164.67 81.22 164.62 86.49 166.09 91.06 C 167.52 94.84 165.86 99.59 161.91 100.99 C 146.90 106.16 130.75 106.34 115.07 105.28 C 132.40 120.26 145.86 139.98 152.30 162.01 C 152.73 168.32 142.83 169.82 141.26 163.76 C 134.71 144.36 123.01 126.84 107.42 113.54 C 100.45 107.71 103.47 94.88 112.95 94.17 C 126.83 94.38 141.04 95.49 154.57 91.44 C 154.14 89.85 153.74 88.25 153.35 86.65 C 134.11 88.63 112.61 86.95 96.71 74.81 C 88.57 83.78 85.76 95.94 82.16 107.17 C 73.09 125.97 54.30 138.37 34.18 142.56 C 34.64 145.00 35.09 147.44 35.53 149.89 C 52.92 149.19 70.12 141.88 81.74 128.73 C 85.69 123.69 93.44 122.47 98.54 126.50 C 111.19 135.98 123.43 146.73 131.28 160.68 C 133.13 164.09 136.80 168.13 134.14 172.11 C 131.71 175.82 125.73 175.01 124.15 170.94 C 116.74 156.20 104.47 144.69 91.23 135.18 C 76.18 152.68 53.02 161.56 30.31 161.64 C 25.24 160.19 25.06 154.20 24.11 149.94 C 23.55 145.53 21.31 141.02 22.58 136.57 C 24.99 131.32 31.77 132.20 36.37 130.34 C 51.31 126.43 64.81 116.64 71.78 102.69 C 75.97 88.99 80.18 74.06 91.43 64.34 Z" />
</g>
</svg>
