<?xml version="1.0" encoding="UTF-8" ?>
<!DOCTYPE svg PUBLIC "-//W3C//DTD SVG 1.1//EN" "http://www.w3.org/Graphics/SVG/1.1/DTD/svg11.dtd">
<svg width="192pt" height="192pt" viewBox="0 0 192 192" version="1.1" xmlns="http://www.w3.org/2000/svg">
<g id="#1bb3ffff">
<path fill="#1bb3ff" opacity="1.00" d=" M 88.38 17.37 C 93.36 14.86 99.42 15.14 104.28 17.80 C 119.73 25.65 135.22 33.45 150.56 41.51 C 154.76 43.68 157.55 48.23 157.23 53.01 C 157.18 87.67 157.28 122.34 157.18 157.00 C 157.06 161.37 157.85 166.29 155.06 170.04 C 150.56 176.25 141.34 177.77 134.70 174.25 C 128.53 171.12 122.37 167.96 116.23 164.77 C 113.99 163.74 112.31 161.56 112.56 159.00 C 112.46 131.57 112.64 104.14 112.49 76.71 C 106.96 73.89 101.42 71.07 95.90 68.23 C 90.32 70.96 84.89 73.98 79.25 76.59 C 78.91 89.36 79.20 102.13 79.10 114.90 C 84.16 112.79 88.96 110.05 94.07 108.08 C 99.57 106.28 103.51 114.62 98.82 117.81 C 93.31 121.13 87.44 123.87 81.73 126.82 C 76.45 129.74 68.23 126.59 68.00 120.09 C 67.68 105.05 67.85 90.00 67.90 74.96 C 67.85 68.06 75.58 66.29 80.41 63.49 C 86.51 61.07 92.44 55.03 99.44 57.55 C 105.75 60.47 111.83 63.86 118.06 66.93 C 121.21 68.31 123.92 71.27 123.75 74.91 C 123.85 101.92 123.77 128.93 123.82 155.95 C 131.12 158.45 137.73 166.15 145.83 164.02 C 146.09 127.67 145.91 91.31 145.98 54.96 C 145.81 53.67 146.37 51.83 144.79 51.24 C 129.50 43.16 114.05 35.35 98.61 27.57 C 96.25 26.04 93.62 27.25 91.39 28.38 C 76.15 36.23 60.82 43.91 45.65 51.89 C 45.66 89.31 45.58 126.73 45.77 164.15 C 48.59 165.24 51.58 164.80 54.08 163.16 C 65.34 157.33 76.63 151.59 87.92 145.83 C 93.29 143.00 100.26 143.22 105.27 146.72 C 108.24 148.89 107.98 154.04 104.76 155.87 C 100.99 158.53 96.82 153.46 92.98 155.94 C 80.51 162.13 68.23 168.72 55.73 174.85 C 47.52 178.72 34.95 173.97 34.55 164.01 C 34.35 126.99 34.51 89.97 34.46 52.95 C 34.18 48.12 37.12 43.54 41.41 41.43 C 57.02 33.32 72.68 25.30 88.38 17.37 Z" />
</g>
</svg>
