<?xml version="1.0" encoding="UTF-8" ?>
<!DOCTYPE svg PUBLIC "-//W3C//DTD SVG 1.1//EN" "http://www.w3.org/Graphics/SVG/1.1/DTD/svg11.dtd">
<svg width="192pt" height="192pt" viewBox="0 0 192 192" version="1.1" xmlns="http://www.w3.org/2000/svg">
<g id="#48e470ff">
<path fill="#48e470" opacity="1.00" d=" M 139.59 32.60 C 143.96 29.71 150.08 34.96 147.63 39.68 C 139.61 58.22 130.87 76.47 123.05 95.08 C 125.24 101.55 128.55 107.60 131.19 113.90 C 138.31 117.09 145.48 120.18 152.70 123.15 C 148.48 114.82 144.09 106.59 139.84 98.29 C 138.69 96.31 138.72 93.87 139.91 91.92 C 144.13 83.79 148.30 75.62 152.60 67.52 C 147.21 68.95 143.19 62.18 147.22 58.20 C 151.90 54.93 157.51 53.15 162.62 50.61 C 167.09 48.11 172.62 53.55 170.18 58.05 C 163.88 70.44 157.37 82.73 151.00 95.09 C 157.22 107.74 164.10 120.07 170.31 132.73 C 172.29 136.95 167.40 141.92 163.15 139.94 C 154.74 136.48 146.45 132.76 138.09 129.18 C 141.20 136.56 144.78 143.74 147.79 151.16 C 149.65 155.54 144.32 160.30 140.16 158.02 C 101.61 138.88 63.11 119.64 24.60 100.42 C 20.24 98.86 19.82 92.08 24.13 90.21 C 62.58 70.94 101.10 51.80 139.59 32.60 M 39.70 95.27 C 69.98 110.60 100.41 125.64 130.80 140.75 C 124.51 126.58 118.12 112.45 111.79 98.30 C 110.92 96.50 110.62 94.38 111.59 92.56 C 117.90 78.21 124.55 64.01 130.71 49.59 C 100.44 64.94 69.78 79.59 39.70 95.27 Z" />
</g>
</svg>
