<?xml version="1.0" encoding="UTF-8" ?>
<!DOCTYPE svg PUBLIC "-//W3C//DTD SVG 1.1//EN" "http://www.w3.org/Graphics/SVG/1.1/DTD/svg11.dtd">
<svg width="192pt" height="192pt" viewBox="0 0 192 192" version="1.1" xmlns="http://www.w3.org/2000/svg">
<g id="#17acffff">
<path fill="#17acff" opacity="1.00" d=" M 75.36 13.45 C 88.71 9.03 102.63 20.69 103.40 34.02 C 103.59 41.35 103.54 48.68 103.46 56.01 C 103.64 59.81 99.82 63.40 96.01 62.33 C 85.12 57.07 72.64 60.50 61.00 59.53 C 53.17 59.35 44.58 58.74 38.17 64.15 C 34.47 67.70 27.62 64.11 28.91 59.00 C 33.47 36.37 53.04 18.23 75.36 13.45 M 44.31 48.87 C 60.30 48.12 76.37 48.12 92.36 48.81 C 92.17 43.58 92.71 38.30 91.97 33.10 C 90.68 28.31 86.40 23.27 81.00 23.81 C 65.67 25.78 52.12 35.71 44.31 48.87 Z" />
<path fill="#17acff" opacity="1.00" d=" M 114.26 13.32 C 122.01 12.68 129.17 17.42 135.34 21.67 C 149.08 31.43 158.83 47.15 160.35 64.03 C 161.21 76.25 149.79 86.39 138.06 86.67 C 130.70 86.76 123.33 86.80 115.98 86.65 C 112.97 86.76 110.44 83.98 110.60 81.02 C 110.46 60.69 110.44 40.35 110.53 20.01 C 110.36 17.30 111.45 14.23 114.26 13.32 M 121.71 26.20 C 121.58 42.63 121.76 59.07 121.74 75.51 C 127.15 75.43 132.57 75.71 137.97 75.42 C 143.78 75.14 149.78 70.19 149.10 63.98 C 147.15 47.75 135.97 33.71 121.71 26.20 Z" />
<path fill="#17acff" opacity="1.00" d=" M 53.45 65.68 C 60.89 65.12 68.40 65.25 75.85 65.50 C 81.46 65.86 82.28 74.65 76.94 76.21 C 69.27 77.21 61.44 75.79 53.79 76.94 C 47.82 78.05 43.81 84.02 44.22 89.94 C 44.22 111.32 44.09 132.70 44.27 154.08 C 44.22 161.06 51.18 166.88 58.03 165.93 C 63.98 165.38 69.01 160.07 69.04 154.05 C 69.40 132.75 68.87 111.41 69.35 90.11 C 70.19 83.98 80.34 84.71 80.23 90.97 C 80.48 111.63 80.28 132.31 80.34 152.98 C 80.60 162.09 75.23 171.10 66.88 174.88 C 52.99 182.22 34.13 171.74 33.17 156.05 C 32.76 133.70 32.99 111.32 33.05 88.96 C 32.89 77.50 42.02 66.93 53.45 65.68 Z" />
<path fill="#17acff" opacity="1.00" d=" M 156.27 92.55 C 159.74 92.10 162.90 95.60 162.07 99.01 C 159.14 114.59 148.76 128.11 135.67 136.72 C 123.22 144.90 107.63 147.03 93.08 145.01 C 89.74 144.50 87.32 141.33 87.40 138.01 C 87.34 125.01 87.33 112.00 87.42 98.99 C 87.18 95.89 89.82 93.05 92.94 93.11 C 114.04 92.95 135.18 93.40 156.27 92.55 M 98.57 104.30 C 98.59 114.33 98.52 124.35 98.65 134.37 C 119.87 136.93 141.14 123.82 149.00 104.11 C 132.19 104.40 115.38 104.28 98.57 104.30 Z" />
</g>
</svg>
