<?xml version="1.0" encoding="UTF-8" ?>
<!DOCTYPE svg PUBLIC "-//W3C//DTD SVG 1.1//EN" "http://www.w3.org/Graphics/SVG/1.1/DTD/svg11.dtd">
<svg width="192pt" height="192pt" viewBox="0 0 192 192" version="1.1" xmlns="http://www.w3.org/2000/svg">
<g id="#ff3662ff">
<path fill="#ff3662" opacity="1.00" d=" M 155.42 15.34 C 162.26 9.53 172.78 19.18 167.37 26.39 C 145.04 49.36 122.15 71.83 99.66 94.67 C 98.29 95.97 97.03 98.93 94.71 97.64 C 91.26 94.00 87.68 90.47 84.11 86.95 C 80.21 90.87 76.31 94.80 72.35 98.67 C 76.23 102.54 80.09 106.46 83.96 110.35 C 87.57 106.71 91.20 103.10 94.70 99.35 C 96.74 98.13 98.05 100.55 99.20 101.81 C 119.50 122.83 140.28 143.40 160.69 164.32 C 167.11 171.39 156.20 182.03 149.09 175.88 C 127.20 154.26 105.62 132.30 83.91 110.48 C 73.29 120.99 63.04 131.92 52.18 142.17 C 45.48 147.52 35.30 138.53 40.23 131.30 C 50.45 120.12 61.52 109.68 72.14 98.86 C 56.79 82.89 40.84 67.47 25.37 51.61 C 22.17 48.50 22.57 42.79 25.91 39.94 C 29.32 36.85 35.13 37.43 38.05 40.94 C 53.29 56.36 68.64 71.67 84.13 86.84 C 107.92 63.04 131.48 38.98 155.42 15.34 Z" />
</g>
</svg>
