<?xml version="1.0" encoding="UTF-8" ?>
<!DOCTYPE svg PUBLIC "-//W3C//DTD SVG 1.1//EN" "http://www.w3.org/Graphics/SVG/1.1/DTD/svg11.dtd">
<svg width="192pt" height="192pt" viewBox="0 0 192 192" version="1.1" xmlns="http://www.w3.org/2000/svg">
<g id="#ff8b1fff">
<path fill="#ff8b1f" opacity="1.00" d=" M 89.98 15.07 C 90.80 12.27 95.19 11.93 96.14 14.79 C 98.79 21.36 103.36 26.82 107.72 32.31 C 119.76 47.62 131.60 63.32 140.10 80.93 C 146.82 94.45 150.94 109.89 148.31 125.02 C 146.86 134.65 141.66 144.24 132.76 148.83 C 124.69 153.21 114.90 153.02 106.42 149.91 C 104.28 159.24 107.19 172.88 97.00 177.99 C 85.05 181.70 75.78 169.97 71.77 160.17 C 59.43 163.16 49.66 151.89 46.97 140.99 C 44.33 133.52 46.40 125.25 43.03 118.00 C 38.06 104.36 41.16 87.93 51.78 77.78 C 59.09 70.49 68.43 65.82 77.06 60.35 C 73.77 59.87 69.97 58.35 69.43 54.60 C 68.39 50.25 72.27 46.64 76.40 46.37 C 75.51 42.60 77.41 38.00 81.62 37.49 C 85.49 36.53 88.60 39.71 90.05 42.95 C 89.31 37.59 90.66 32.24 93.64 27.76 C 91.85 23.75 89.86 19.57 89.98 15.07 M 96.13 32.13 C 92.81 39.42 98.99 45.60 103.68 50.36 C 112.65 59.77 122.78 70.91 121.65 84.91 C 123.75 82.58 125.85 80.26 128.06 78.03 C 131.67 86.88 133.38 96.80 132.24 106.33 C 128.89 119.82 115.51 126.84 108.64 138.20 C 115.11 140.20 122.33 139.71 128.13 136.06 C 125.23 134.72 122.37 133.28 119.48 131.92 C 120.49 128.24 122.32 124.87 124.01 121.46 C 127.01 122.71 129.93 124.16 132.86 125.60 C 131.81 129.14 130.02 132.38 128.54 135.75 C 140.87 126.92 143.93 109.23 138.19 95.73 C 128.71 71.87 111.48 52.33 96.13 32.13 M 90.99 64.01 C 89.31 73.72 83.81 82.13 80.13 91.14 C 72.85 107.70 69.07 126.34 72.53 144.31 C 77.30 136.08 77.14 126.32 79.41 117.35 C 81.89 112.82 79.50 107.75 80.14 102.92 C 80.73 87.23 91.12 74.24 93.67 59.03 C 94.99 53.19 91.53 48.02 90.54 42.47 C 90.57 49.58 92.53 56.83 90.99 64.01 M 82.27 50.56 C 82.31 52.49 82.34 54.42 82.39 56.34 C 83.62 54.37 84.79 52.37 85.90 50.33 C 84.69 50.41 83.48 50.49 82.27 50.56 M 99.23 57.81 C 101.32 76.69 85.53 91.05 85.56 109.47 C 89.24 106.89 91.46 102.80 95.11 100.24 C 95.90 104.63 97.21 109.14 96.46 113.62 C 94.97 117.12 91.56 119.26 88.98 121.90 C 91.82 126.49 95.66 130.34 99.91 133.63 C 105.05 118.54 122.69 112.05 126.82 96.46 C 121.10 100.57 115.67 105.03 110.99 110.30 C 109.41 105.75 106.25 100.48 108.79 95.73 C 111.44 91.85 114.72 87.98 114.83 83.02 C 114.94 72.43 105.47 65.27 99.23 57.81 M 55.93 85.95 C 49.81 92.79 46.88 102.03 47.28 111.14 C 49.32 108.35 52.08 105.04 56.01 106.00 C 62.11 107.30 64.13 114.13 66.10 119.23 C 67.23 99.35 76.93 81.72 84.61 63.84 C 75.25 71.47 63.95 76.72 55.93 85.95 M 51.90 123.57 C 54.99 125.46 61.50 123.84 59.60 119.41 C 56.73 115.74 52.73 120.52 51.90 123.57 M 84.70 127.41 C 83.33 137.57 83.38 148.94 76.48 157.26 C 79.11 162.45 84.19 170.20 91.00 167.01 C 97.59 161.59 95.98 151.90 97.82 144.38 C 92.19 139.81 88.16 133.69 84.70 127.41 M 50.91 132.49 C 50.82 141.43 57.67 152.91 68.01 148.78 C 67.48 143.16 66.25 137.62 66.07 131.97 C 62.92 138.03 55.06 136.62 50.91 132.49 Z" />
<path fill="#ff8b1f" opacity="1.00" d=" M 75.33 16.37 C 82.14 13.09 86.92 24.51 79.72 26.74 C 58.65 31.63 40.01 46.26 31.01 66.03 C 18.83 91.29 23.74 123.57 43.11 143.91 C 45.14 146.36 48.67 148.39 48.36 152.02 C 48.20 156.00 42.99 158.71 39.72 156.25 C 14.77 134.42 6.33 96.46 18.83 65.87 C 28.24 41.55 49.98 22.48 75.33 16.37 Z" />
<path fill="#ff8b1f" opacity="1.00" d=" M 113.21 17.17 C 114.42 16.66 115.68 16.59 116.96 16.98 C 148.70 25.24 173.61 54.43 176.65 87.11 C 180.01 115.08 167.49 144.10 145.03 161.04 C 141.85 163.22 138.18 167.25 133.99 165.09 C 129.64 162.95 130.34 156.49 134.58 154.64 C 156.78 140.07 169.22 112.31 165.16 86.05 C 161.64 58.75 140.65 34.97 114.14 27.76 C 109.03 26.82 108.35 18.97 113.21 17.17 Z" />
<path fill="#ff8b1f" opacity="1.00" d=" M 96.27 90.27 C 100.45 85.27 105.10 80.67 109.11 75.53 C 110.25 77.69 111.60 80.61 109.89 82.85 C 105.76 88.11 100.82 92.69 96.79 98.05 C 95.01 95.92 94.18 92.47 96.27 90.27 Z" />
<path fill="#ff8b1f" opacity="1.00" d=" M 57.85 92.00 C 59.58 87.39 63.25 82.80 68.29 81.77 C 68.67 87.13 61.66 89.04 61.51 94.47 C 62.82 93.06 63.93 90.68 66.26 91.73 C 67.08 95.28 65.21 100.56 61.05 100.74 C 57.11 100.16 56.84 95.02 57.85 92.00 Z" />
<path fill="#ff8b1f" opacity="1.00" d=" M 101.50 107.14 C 104.62 108.11 107.51 109.68 110.44 111.11 C 109.31 114.69 107.57 118.03 105.98 121.42 C 102.90 120.34 99.98 118.89 97.06 117.46 C 98.01 113.81 99.96 110.55 101.50 107.14 Z" />
<path fill="#ff8b1f" opacity="1.00" d=" M 89.09 139.79 C 91.78 141.70 94.30 143.83 96.74 146.05 C 94.81 148.75 92.73 151.34 90.57 153.86 C 92.15 155.28 93.75 156.70 95.35 158.11 C 93.34 161.35 90.87 164.27 88.15 166.92 C 85.64 164.92 83.20 162.85 80.80 160.73 C 82.66 157.93 84.82 155.36 86.98 152.79 C 85.48 151.25 83.02 150.19 82.48 148.02 C 84.31 145.00 86.82 142.47 89.09 139.79 Z" />
<path fill="#ff8b1f" opacity="1.00" d=" M 108.36 156.66 C 107.68 154.88 109.26 154.10 110.73 153.80 C 111.92 156.15 113.13 158.50 114.21 160.91 C 114.70 159.98 115.69 158.13 116.18 157.21 C 119.23 159.32 121.70 165.72 117.04 167.38 C 111.67 167.07 109.72 160.98 108.36 156.66 Z" />
</g>
</svg>
