<?xml version="1.0" encoding="UTF-8" ?>
<!DOCTYPE svg PUBLIC "-//W3C//DTD SVG 1.1//EN" "http://www.w3.org/Graphics/SVG/1.1/DTD/svg11.dtd">
<svg width="192pt" height="192pt" viewBox="0 0 192 192" version="1.1" xmlns="http://www.w3.org/2000/svg">
<g id="#617080ff">
<path fill="#617080" opacity="1.00" d=" M 89.22 15.17 C 91.32 10.40 98.94 10.14 101.13 14.96 C 123.44 58.98 145.58 103.09 167.84 147.13 C 169.50 149.95 169.41 153.67 167.25 156.20 C 162.27 162.52 156.57 168.37 149.95 172.96 C 146.28 175.73 140.55 174.84 138.17 170.83 C 134.04 163.82 130.88 156.27 126.91 149.16 C 112.95 149.07 98.97 149.41 85.03 149.00 C 78.80 148.46 78.77 138.42 85.00 137.89 C 98.98 137.49 113.00 137.86 126.99 137.71 C 130.50 137.44 134.35 138.69 136.03 142.00 C 139.57 148.44 142.52 155.18 146.09 161.61 C 150.15 158.52 153.64 154.76 156.94 150.88 C 136.63 110.14 115.90 69.60 95.54 28.88 C 94.62 29.91 93.79 31.01 93.21 32.27 C 73.66 71.58 53.68 110.71 34.03 149.95 C 37.12 154.02 41.12 157.35 44.93 160.73 C 48.75 153.87 51.61 146.45 55.85 139.85 C 59.70 135.40 67.63 140.52 65.02 145.89 C 60.96 154.45 56.55 162.86 52.29 171.33 C 50.55 175.33 44.93 176.02 41.86 173.18 C 35.91 168.14 30.18 162.81 24.86 157.11 C 22.36 154.61 20.54 150.73 22.42 147.34 C 45.07 103.48 66.89 59.19 89.22 15.17 Z" />
<path fill="#617080" opacity="1.00" d=" M 92.35 69.38 C 95.67 67.59 99.92 69.47 101.21 72.91 C 108.04 86.69 115.19 100.32 121.96 114.13 C 124.23 118.25 120.72 123.80 116.00 123.43 C 102.00 123.47 87.98 123.55 73.98 123.38 C 69.17 123.45 66.38 117.65 68.74 113.68 C 75.34 100.33 82.08 87.05 88.82 73.78 C 89.75 72.15 90.55 70.21 92.35 69.38 M 95.06 86.72 C 90.63 95.05 86.54 103.56 82.19 111.93 C 90.83 112.29 99.49 112.18 108.14 112.00 C 103.79 103.57 100.00 94.79 95.06 86.72 Z" />
</g>
</svg>
