<?xml version="1.0" encoding="UTF-8" ?>
<!DOCTYPE svg PUBLIC "-//W3C//DTD SVG 1.1//EN" "http://www.w3.org/Graphics/SVG/1.1/DTD/svg11.dtd">
<svg width="192pt" height="192pt" viewBox="0 0 192 192" version="1.1" xmlns="http://www.w3.org/2000/svg">
<g id="#45e372ff">
<path fill="#45e372" opacity="1.00" d=" M 75.43 13.51 C 78.29 12.57 82.16 10.01 83.91 13.90 C 78.37 21.12 68.34 21.72 60.65 25.67 C 56.57 26.73 52.54 30.48 48.25 29.03 C 47.06 25.95 50.19 23.74 52.59 22.60 C 59.99 19.05 67.81 16.52 75.43 13.51 Z" />
<path fill="#45e372" opacity="1.00" d=" M 32.47 40.55 C 53.73 28.32 77.17 20.26 101.03 14.84 C 105.01 13.65 110.11 15.79 110.85 20.15 C 111.30 24.30 109.21 28.16 107.17 31.62 C 109.62 31.93 111.98 32.66 114.13 33.88 C 113.42 28.01 110.51 20.85 115.04 15.83 C 117.17 15.37 118.17 17.42 119.11 18.91 C 121.68 23.33 124.38 27.93 124.75 33.15 C 123.63 33.59 122.51 34.02 121.40 34.46 C 121.98 38.69 122.49 42.93 123.09 47.16 C 123.90 44.64 124.69 42.12 125.53 39.62 C 127.67 42.40 128.64 45.75 128.13 49.25 C 128.95 49.38 130.61 49.64 131.44 49.77 C 133.11 54.50 128.13 59.25 124.03 55.21 C 125.26 62.99 126.26 70.80 127.23 78.61 C 129.45 76.00 132.36 73.93 134.13 70.96 C 132.79 57.22 130.81 43.53 128.40 29.93 C 127.95 26.58 128.25 21.82 132.03 20.52 C 137.09 24.95 139.17 31.99 140.94 38.31 C 139.98 39.00 139.02 39.68 138.07 40.36 C 138.78 45.54 139.59 50.71 140.25 55.90 C 142.11 55.43 143.97 55.01 145.85 54.63 C 145.18 49.10 143.82 43.59 143.89 38.01 C 144.51 35.88 145.73 32.06 148.67 33.18 C 152.76 37.88 154.70 44.03 156.24 49.96 C 155.26 50.81 154.28 51.65 153.30 52.49 C 155.57 77.03 158.93 101.45 161.83 125.92 C 162.41 132.21 161.78 139.41 157.21 144.21 C 152.52 148.36 145.35 150.07 139.54 147.29 C 139.49 149.44 139.35 151.58 139.11 153.72 C 139.94 153.78 141.59 153.91 142.41 153.97 C 143.29 157.65 140.41 163.68 136.05 161.02 C 132.21 156.58 135.11 150.07 136.90 145.28 C 135.70 143.63 134.51 141.96 133.33 140.30 C 126.23 143.54 118.82 146.15 112.05 150.04 C 102.14 155.97 97.15 167.37 87.48 173.49 C 78.18 177.09 70.61 167.78 69.36 159.42 C 68.66 159.68 67.28 160.21 66.58 160.47 C 66.53 161.43 66.48 162.39 66.43 163.36 C 67.23 163.44 68.82 163.62 69.62 163.70 C 70.44 166.92 68.56 171.52 64.61 170.52 C 60.66 168.90 61.59 163.82 61.65 160.40 C 53.16 161.31 44.40 157.01 41.09 148.92 C 39.30 150.16 36.92 151.92 34.84 150.15 C 32.49 147.75 33.28 144.21 33.80 141.27 C 27.94 141.68 22.51 138.00 20.39 132.61 C 17.32 125.41 20.11 117.58 22.83 110.75 C 11.06 106.03 11.71 90.79 17.60 81.65 C 20.88 77.54 17.92 72.23 19.72 67.66 C 21.14 62.38 25.56 58.64 27.44 53.64 C 27.77 48.97 27.87 43.22 32.47 40.55 M 78.36 30.26 C 69.33 33.22 60.51 36.76 51.68 40.25 C 51.87 43.19 51.34 46.09 50.69 48.95 C 51.96 49.68 53.24 50.40 54.51 51.14 C 54.03 54.05 51.63 57.81 48.23 55.98 C 43.73 52.85 46.26 46.67 47.03 42.31 C 43.09 44.18 39.17 46.09 35.33 48.15 C 44.80 54.87 54.38 61.41 63.85 68.13 C 68.86 72.73 75.02 66.82 80.82 67.45 C 78.70 59.17 75.40 50.84 76.31 42.15 C 76.76 39.76 77.60 35.65 80.93 36.69 C 83.79 40.32 85.31 44.80 87.32 48.92 C 86.50 49.71 85.67 50.49 84.85 51.27 C 85.28 53.79 85.71 56.31 86.06 58.84 C 88.21 55.51 91.91 56.12 94.78 58.13 C 95.72 55.34 97.38 52.87 100.44 52.24 C 100.39 49.17 100.43 42.76 104.94 43.77 C 108.54 48.02 110.85 53.31 112.38 58.64 C 113.11 60.52 110.76 61.56 109.83 62.86 C 110.11 65.55 110.40 68.25 110.64 70.95 C 111.63 69.15 112.09 65.69 114.95 66.51 C 117.13 68.44 115.61 71.59 115.73 74.08 C 117.05 74.23 118.37 74.38 119.69 74.55 C 117.88 63.25 116.56 51.87 115.06 40.52 C 113.16 42.64 110.40 45.80 107.29 43.81 C 103.57 41.70 105.12 36.83 105.78 33.54 C 101.19 39.59 96.15 45.31 90.90 50.78 C 87.16 48.90 89.34 45.31 90.78 42.64 C 83.42 43.25 84.09 32.35 87.57 28.35 C 88.24 28.76 89.60 29.60 90.28 30.01 C 90.16 31.76 90.04 33.51 89.91 35.26 C 90.81 35.53 91.70 35.80 92.59 36.08 C 92.76 36.89 93.08 38.51 93.25 39.32 C 96.67 34.31 102.49 30.92 104.30 24.91 C 95.29 23.97 86.73 27.50 78.36 30.26 M 31.10 58.67 C 28.73 62.07 26.61 65.74 26.00 69.91 C 27.96 69.69 30.65 67.94 31.97 70.24 C 31.60 77.91 22.45 80.69 21.19 88.14 C 18.53 92.87 17.75 103.61 25.65 102.73 C 37.71 97.16 46.43 86.55 56.24 77.89 C 52.52 75.02 48.78 72.20 45.08 69.32 C 44.05 74.05 48.86 78.18 46.43 82.64 C 45.49 82.37 43.61 81.83 42.67 81.57 C 37.22 88.66 30.39 95.92 21.47 98.22 C 24.63 89.87 33.47 85.80 38.18 78.44 C 34.84 74.24 36.29 68.17 41.65 66.64 C 38.07 64.07 34.62 61.33 31.10 58.67 M 99.96 58.61 C 98.86 61.50 101.57 68.87 96.58 68.47 C 93.95 65.83 91.47 62.88 87.59 62.12 C 90.14 69.17 100.05 71.73 98.54 80.34 C 99.55 80.48 100.56 80.63 101.58 80.78 C 101.48 83.08 101.21 85.36 100.91 87.64 C 102.09 88.12 103.27 88.60 104.46 89.09 C 104.37 92.29 102.80 94.96 99.56 95.80 C 101.94 97.69 104.23 99.70 106.54 101.67 C 105.04 90.08 103.72 78.46 102.31 66.85 C 101.87 64.03 102.09 60.83 99.96 58.61 M 142.53 77.29 C 148.51 72.76 147.89 81.06 146.94 84.80 C 147.60 84.82 148.92 84.87 149.58 84.90 C 148.74 78.94 148.11 72.96 147.29 67.00 C 143.53 69.23 141.55 72.94 142.53 77.29 M 78.71 78.07 C 84.36 82.92 90.23 87.51 95.76 92.52 C 95.83 89.48 96.04 86.44 96.58 83.44 C 91.09 80.24 85.36 76.99 78.71 78.07 M 127.54 80.82 C 128.31 85.81 129.03 90.81 129.50 95.84 C 131.32 93.20 133.80 91.17 137.04 92.81 C 136.81 87.81 136.36 82.81 135.49 77.87 C 133.11 79.50 130.62 81.39 127.54 80.82 M 111.88 79.99 C 112.60 84.67 113.11 89.38 113.69 94.08 C 116.30 92.57 118.94 91.11 121.60 89.68 C 121.13 86.31 120.64 82.95 120.33 79.56 C 118.28 83.00 114.26 83.13 111.88 79.99 M 38.91 105.65 C 39.66 105.60 41.16 105.51 41.91 105.47 C 42.94 106.32 43.98 107.18 45.02 108.04 C 45.89 105.62 46.84 101.27 50.36 102.51 C 54.87 103.43 54.52 109.90 50.03 110.64 C 49.71 113.23 49.39 115.82 49.02 118.40 C 59.36 112.64 71.35 110.46 81.20 103.71 C 77.43 95.69 70.63 89.85 63.93 84.34 C 54.87 90.59 47.80 99.20 38.91 105.65 M 141.76 92.63 C 143.75 93.84 144.62 90.28 142.77 89.62 C 141.44 89.60 141.05 91.75 141.76 92.63 M 147.77 92.31 C 146.95 92.27 145.30 92.21 144.48 92.17 C 148.14 94.63 152.34 100.09 147.97 103.93 C 145.41 106.77 142.56 103.88 140.36 102.19 C 137.14 107.15 132.17 103.34 129.71 99.83 C 128.83 106.97 122.93 111.76 116.47 113.87 C 116.49 116.51 116.52 119.15 116.44 121.80 C 118.65 118.20 124.41 115.65 125.70 121.39 C 126.56 121.92 127.40 122.48 128.23 123.06 C 127.77 127.79 122.26 128.88 119.03 131.30 C 118.49 130.96 117.41 130.27 116.87 129.93 C 117.29 127.93 117.85 125.86 116.90 123.90 C 115.78 128.16 115.94 132.85 113.81 136.79 C 112.43 138.91 109.72 137.28 109.98 135.06 C 109.72 127.94 109.38 120.81 108.40 113.74 C 104.57 112.01 101.13 109.61 97.75 107.14 C 99.79 109.79 102.01 112.31 104.05 114.96 C 103.23 116.05 102.40 117.14 101.57 118.21 C 105.12 124.28 107.59 132.12 103.55 138.60 C 97.12 148.41 85.81 153.23 75.42 157.70 C 75.97 161.19 77.04 167.31 81.92 166.31 C 90.58 162.66 94.83 153.58 101.38 147.38 C 109.14 139.43 120.16 136.41 129.89 131.69 C 128.61 125.43 127.34 118.51 130.64 112.64 C 132.50 108.36 138.64 106.52 142.25 109.70 C 146.08 113.30 147.19 118.80 147.30 123.86 C 148.26 121.29 149.49 118.85 150.89 116.50 C 152.20 119.87 152.24 123.47 151.63 127.00 C 152.68 127.27 153.72 127.54 154.76 127.81 C 153.33 115.01 151.87 102.21 150.09 89.45 C 149.31 90.40 148.54 91.36 147.77 92.31 M 85.10 94.81 C 87.00 99.80 87.73 105.49 85.32 110.46 C 86.97 110.49 88.62 110.58 90.27 110.71 C 90.89 107.73 92.12 104.68 95.62 104.39 C 91.97 101.35 88.55 98.06 85.10 94.81 M 114.81 104.04 C 117.63 103.42 120.31 102.32 122.76 100.81 C 122.60 98.96 122.43 97.10 122.26 95.26 C 118.80 97.37 112.75 98.74 114.81 104.04 M 28.96 111.88 C 25.95 117.44 23.24 124.66 26.23 130.76 C 27.58 133.96 32.03 133.20 34.07 131.12 C 38.25 127.19 42.02 122.77 46.95 119.72 C 45.33 118.17 43.92 116.45 42.60 114.64 C 38.75 113.83 36.80 110.53 37.67 106.70 C 34.92 108.69 31.68 109.88 28.96 111.88 M 44.66 133.00 C 44.84 137.61 45.34 142.74 48.86 146.13 C 52.70 150.18 58.64 150.52 63.86 150.57 C 61.74 147.53 59.51 144.32 55.88 142.96 C 55.52 142.13 55.17 141.31 54.82 140.49 C 48.83 140.91 46.92 132.65 51.81 129.85 C 58.83 126.35 66.17 123.46 73.36 120.31 C 76.02 118.48 78.49 122.29 76.34 124.34 C 70.39 130.20 60.49 130.21 54.72 136.27 C 57.12 136.66 59.52 137.11 61.80 137.97 C 62.51 135.31 64.25 131.01 67.76 133.00 C 71.55 134.60 70.97 139.38 67.23 140.60 C 66.86 143.74 67.31 147.51 64.42 149.64 C 71.33 152.13 71.96 143.49 74.05 139.14 C 71.14 136.63 69.56 131.82 73.64 129.55 C 77.98 128.16 81.21 124.97 83.81 121.34 C 82.85 118.68 82.53 115.87 82.82 113.06 C 71.18 121.82 54.26 121.08 44.66 133.00 M 91.84 116.36 C 92.13 118.59 92.56 120.80 93.06 122.99 C 92.39 123.79 91.73 124.60 91.07 125.40 C 92.71 126.95 94.84 128.31 95.50 130.61 C 96.78 135.26 90.75 140.46 86.58 137.40 C 83.62 134.77 85.43 130.41 85.82 127.10 C 84.38 128.55 82.91 129.96 81.41 131.35 C 86.06 136.79 78.33 141.39 76.94 146.62 C 85.12 143.36 92.68 138.63 99.31 132.84 C 97.33 127.13 94.76 121.64 91.84 116.36 M 135.40 117.76 C 134.12 121.31 135.14 124.91 136.51 128.24 C 142.47 126.71 140.94 118.50 135.40 117.76 M 140.46 136.48 C 145.34 140.76 157.09 139.08 155.34 130.86 C 153.76 132.47 152.26 135.30 149.55 134.50 C 146.05 133.61 146.62 129.25 146.46 126.49 C 145.29 130.26 142.93 133.46 140.46 136.48 M 39.25 141.34 C 37.73 141.57 37.48 144.48 39.15 144.66 C 40.72 144.47 40.91 141.53 39.25 141.34 Z" />
<path fill="#45e372" opacity="1.00" d=" M 62.06 36.40 C 67.67 35.82 65.34 42.03 65.04 45.35 C 66.22 45.94 67.39 46.53 68.57 47.13 C 68.49 50.34 65.47 54.30 62.10 51.98 C 57.27 47.98 60.90 41.31 62.06 36.40 Z" />
<path fill="#45e372" opacity="1.00" d=" M 158.06 54.99 C 157.93 52.49 159.04 49.07 161.96 48.82 C 166.24 53.19 169.10 59.07 170.56 64.98 C 169.65 66.03 168.61 66.93 167.60 67.85 C 168.07 72.13 168.64 76.40 169.12 80.69 C 169.71 79.35 170.31 78.01 170.93 76.69 C 172.03 77.05 173.12 77.41 174.22 77.79 C 174.01 80.49 173.78 83.18 173.58 85.89 C 174.71 86.44 175.84 86.99 176.96 87.55 C 177.66 91.33 174.84 93.97 171.09 93.42 C 171.88 104.17 175.14 116.04 170.01 126.15 C 166.52 128.04 165.95 123.45 166.01 121.02 C 164.85 98.85 160.84 76.98 158.06 54.99 Z" />
<path fill="#45e372" opacity="1.00" d=" M 66.85 55.92 C 67.84 52.81 70.58 47.78 74.47 50.44 C 78.03 52.66 75.81 57.77 71.89 57.63 C 71.74 61.54 72.27 66.04 69.04 68.94 C 66.28 66.62 64.94 62.85 61.46 61.40 C 58.32 60.18 58.00 55.22 61.12 53.74 C 63.33 53.13 65.05 54.97 66.85 55.92 Z" />
<path fill="#45e372" opacity="1.00" d=" M 54.88 95.89 C 57.23 92.76 60.34 95.91 62.52 97.50 C 66.17 91.56 72.87 97.33 73.75 101.95 C 72.93 107.32 66.72 109.40 63.71 104.38 C 59.56 111.94 48.72 100.93 54.88 95.89 Z" />
<path fill="#45e372" opacity="1.00" d=" M 31.52 113.36 C 36.06 110.57 34.81 117.65 34.15 120.12 C 35.17 120.54 36.19 120.96 37.21 121.39 C 37.25 124.53 35.98 127.32 33.06 128.71 C 26.31 126.44 28.44 117.81 31.52 113.36 Z" />
<path fill="#45e372" opacity="1.00" d=" M 123.57 155.96 C 124.62 153.20 127.03 149.25 130.46 151.56 C 134.22 153.57 132.83 158.98 128.46 158.69 C 127.95 161.76 128.98 167.03 125.01 167.91 C 122.07 167.11 122.14 162.84 119.15 161.85 C 115.85 160.78 113.72 156.17 116.55 153.55 C 119.07 151.45 121.68 154.43 123.57 155.96 Z" />
<path fill="#45e372" opacity="1.00" d=" M 106.34 157.10 C 110.37 154.26 110.47 160.51 109.54 163.04 C 116.44 163.24 111.29 174.52 106.34 170.75 C 102.73 167.20 104.61 161.19 106.34 157.10 Z" />
</g>
</svg>
