<?xml version="1.0" encoding="UTF-8" ?>
<!DOCTYPE svg PUBLIC "-//W3C//DTD SVG 1.1//EN" "http://www.w3.org/Graphics/SVG/1.1/DTD/svg11.dtd">
<svg width="192pt" height="192pt" viewBox="0 0 192 192" version="1.1" xmlns="http://www.w3.org/2000/svg">
<g id="#ff3663ff">
<path fill="#ff3663" opacity="1.00" d=" M 54.79 24.79 C 83.17 7.81 121.73 10.69 147.24 31.76 C 166.45 47.07 178.28 71.41 177.78 96.04 C 178.01 101.50 169.82 103.47 167.40 98.63 C 165.87 93.97 166.82 88.86 165.69 84.08 C 160.94 51.63 130.85 25.18 97.98 25.11 C 72.59 23.79 47.54 38.06 34.91 59.96 C 22.64 80.56 22.09 107.51 33.43 128.62 C 47.04 155.18 78.60 170.82 107.99 165.22 C 127.01 161.99 144.46 150.58 154.99 134.41 C 147.77 130.19 144.40 120.33 148.89 112.96 C 153.32 104.51 165.92 102.57 172.69 109.29 C 178.37 114.31 179.23 123.59 174.71 129.65 C 172.47 133.16 167.72 134.07 165.98 137.99 C 149.05 167.06 112.89 182.97 80.01 175.94 C 46.59 169.74 19.10 140.67 14.84 106.94 C 9.89 74.76 26.49 40.81 54.79 24.79 Z" />
<path fill="#ff3663" opacity="1.00" d=" M 90.72 69.70 C 91.96 64.60 99.92 64.67 101.21 69.72 C 102.30 76.29 100.59 83.08 102.22 89.59 C 108.48 89.88 114.78 89.30 121.01 89.91 C 125.66 90.64 127.07 97.56 122.92 99.94 C 116.27 102.48 108.22 98.90 101.83 101.85 C 100.92 108.17 102.16 114.63 101.22 120.95 C 99.95 125.40 93.15 126.02 91.13 121.85 C 88.99 115.32 91.83 107.74 89.64 101.43 C 83.31 99.57 76.20 101.87 69.72 100.25 C 65.38 98.47 65.62 91.50 70.11 90.09 C 76.67 88.66 83.68 90.87 90.10 88.95 C 91.01 82.57 89.77 76.07 90.72 69.70 Z" />
</g>
</svg>
