<?xml version="1.0" encoding="UTF-8" ?>
<!DOCTYPE svg PUBLIC "-//W3C//DTD SVG 1.1//EN" "http://www.w3.org/Graphics/SVG/1.1/DTD/svg11.dtd">
<svg width="192pt" height="192pt" viewBox="0 0 192 192" version="1.1" xmlns="http://www.w3.org/2000/svg">
<g id="#4a70c3ff">
<path fill="#4a70c3" opacity="1.00" d=" M 38.31 21.40 C 41.82 20.60 45.43 20.73 49.00 20.73 C 81.33 20.80 113.67 20.67 146.00 20.77 C 157.45 20.84 167.76 30.62 168.53 42.02 C 168.69 47.20 168.96 52.44 168.41 57.60 C 167.34 62.60 159.41 62.92 157.93 58.02 C 156.65 52.16 158.46 45.99 156.81 40.17 C 155.06 34.88 149.50 31.56 144.03 31.85 C 111.01 31.79 77.99 31.81 44.97 31.78 C 39.00 31.41 32.99 35.51 31.75 41.45 C 30.83 46.89 32.04 52.47 31.07 57.89 C 29.76 62.52 22.47 62.76 20.83 58.23 C 19.79 53.56 20.47 48.68 20.37 43.93 C 20.31 33.49 28.10 23.63 38.31 21.40 Z" />
<path fill="#4a70c3" opacity="1.00" d=" M 54.43 72.50 C 60.61 70.52 67.54 70.66 73.81 72.20 C 81.41 74.91 80.19 84.84 79.29 91.20 C 76.02 98.78 68.57 103.38 63.17 109.34 C 68.63 109.43 74.11 109.29 79.57 109.58 C 79.78 112.19 79.79 114.81 79.63 117.42 C 69.86 117.67 60.08 117.59 50.31 117.46 C 50.06 114.69 48.87 111.29 51.06 109.01 C 56.42 103.37 62.29 98.24 67.67 92.62 C 70.89 89.60 71.27 84.34 69.47 80.52 C 64.51 77.13 56.67 79.83 58.35 86.81 C 55.36 87.45 52.28 87.43 49.30 86.81 C 49.00 81.77 48.87 74.79 54.43 72.50 Z" />
<path fill="#4a70c3" opacity="1.00" d=" M 108.06 73.10 C 113.18 70.42 119.27 71.05 124.85 71.37 C 136.05 71.40 138.04 88.94 130.33 94.49 C 136.71 97.68 135.14 106.23 134.06 111.96 C 130.50 120.26 119.35 118.26 112.11 117.76 C 105.00 117.32 103.00 109.57 103.65 103.65 C 106.55 103.20 109.50 103.14 112.44 103.31 C 111.90 110.12 119.99 111.97 124.60 108.61 C 125.77 105.84 125.89 102.27 124.39 99.60 C 121.50 97.41 117.37 99.40 114.37 97.71 C 113.26 95.76 113.82 93.29 114.13 91.17 C 117.13 89.90 120.61 91.00 123.60 89.72 C 125.84 87.62 125.15 84.01 124.57 81.33 C 122.94 78.57 119.05 79.29 116.36 79.53 C 113.05 79.94 114.29 84.59 112.00 86.03 C 109.40 86.40 106.78 86.02 104.20 85.73 C 103.82 81.33 103.92 75.79 108.06 73.10 Z" />
<path fill="#4a70c3" opacity="1.00" d=" M 17.82 75.03 C 23.81 73.37 30.26 70.27 36.49 72.43 C 37.25 84.68 36.58 97.00 36.83 109.28 C 39.38 109.33 41.96 109.21 44.50 109.60 C 46.17 111.81 45.19 114.79 45.32 117.34 C 36.87 117.70 28.41 117.56 19.96 117.49 C 15.88 117.94 17.06 112.78 17.31 110.25 C 20.23 108.50 23.95 109.66 27.19 109.34 C 27.22 100.00 27.21 90.65 27.21 81.31 C 22.53 81.83 15.67 81.70 17.82 75.03 Z" />
<path fill="#4a70c3" opacity="1.00" d=" M 158.30 74.35 C 160.20 70.49 165.31 71.55 168.75 72.21 C 169.84 81.94 169.00 91.82 169.18 101.61 C 174.41 100.99 174.29 105.80 173.73 109.63 C 172.27 109.86 170.80 110.09 169.33 110.30 C 169.24 112.72 169.06 115.15 168.74 117.55 C 165.76 117.60 162.78 117.56 159.81 117.27 C 159.66 114.89 159.58 112.51 159.52 110.14 C 153.08 109.91 146.55 110.73 140.16 109.70 C 138.65 106.96 139.43 103.51 141.11 101.03 C 146.85 92.14 152.58 83.24 158.30 74.35 M 150.19 101.88 C 153.33 101.93 156.47 101.99 159.62 102.00 C 159.62 97.14 159.59 92.27 159.50 87.41 C 156.42 92.25 153.36 97.10 150.19 101.88 Z" />
<path fill="#4a70c3" opacity="1.00" d=" M 87.68 81.69 C 90.48 81.51 94.20 80.38 96.42 82.52 C 96.84 85.22 96.61 87.97 96.58 90.69 C 93.56 91.11 90.35 91.76 87.40 90.62 C 86.82 87.72 86.47 84.47 87.68 81.69 Z" />
<path fill="#4a70c3" opacity="1.00" d=" M 87.19 108.13 C 90.17 108.08 93.76 106.90 96.36 108.69 C 96.95 111.55 96.57 114.49 96.44 117.38 C 93.57 117.48 90.63 117.89 87.80 117.23 C 86.18 114.58 87.25 111.10 87.19 108.13 Z" />
<path fill="#4a70c3" opacity="1.00" d=" M 23.26 129.13 C 26.35 127.36 30.81 129.43 31.25 133.01 C 31.85 138.17 30.97 143.40 31.72 148.56 C 32.75 154.22 38.24 158.56 43.99 158.32 C 77.66 158.32 111.34 158.31 145.01 158.27 C 150.80 158.51 156.30 154.04 157.22 148.32 C 158.01 142.95 156.87 137.46 157.87 132.12 C 159.25 127.15 167.29 127.42 168.38 132.44 C 169.34 143.39 169.90 156.72 160.16 164.19 C 155.70 167.97 149.81 169.76 144.00 169.60 C 110.67 169.56 77.33 169.59 44.00 169.55 C 34.58 169.77 25.50 163.65 22.07 154.90 C 19.65 149.24 20.41 142.96 20.27 136.97 C 20.21 134.15 20.31 130.54 23.26 129.13 Z" />
</g>
</svg>
