<?xml version="1.0" encoding="UTF-8" ?>
<!DOCTYPE svg PUBLIC "-//W3C//DTD SVG 1.1//EN" "http://www.w3.org/Graphics/SVG/1.1/DTD/svg11.dtd">
<svg width="192pt" height="192pt" viewBox="0 0 192 192" version="1.1" xmlns="http://www.w3.org/2000/svg">
<g id="#606f80ff">
<path fill="#606f80" opacity="1.00" d=" M 22.23 54.27 C 37.08 26.69 68.73 9.27 100.01 12.00 C 132.69 13.94 162.53 37.63 172.07 68.90 C 181.22 96.98 173.69 129.87 152.66 150.72 C 148.98 154.15 142.39 150.94 142.50 146.02 C 142.43 138.41 142.30 130.78 142.57 123.17 C 142.84 119.11 148.30 116.98 151.33 119.67 C 154.65 122.59 153.10 127.50 153.49 131.36 C 164.64 114.84 167.31 93.21 161.86 74.18 C 153.83 44.64 124.72 22.39 94.00 23.16 C 63.64 22.39 34.75 44.12 26.39 73.19 C 20.61 92.18 23.21 113.64 33.75 130.51 C 34.22 126.82 32.69 121.78 36.40 119.36 C 39.77 116.89 45.01 119.87 44.75 123.99 C 44.82 131.30 44.90 138.62 44.72 145.92 C 44.60 150.50 38.24 153.27 34.84 150.13 C 10.20 125.55 5.06 84.45 22.23 54.27 Z" />
<path fill="#606f80" opacity="1.00" d=" M 51.12 56.88 C 49.84 52.51 55.21 48.41 59.05 50.87 C 63.41 54.32 66.93 58.69 71.03 62.42 C 84.59 53.97 102.66 53.94 116.21 62.42 C 120.51 58.67 124.01 54.01 128.62 50.63 C 133.18 48.22 138.59 54.30 135.49 58.47 C 132.32 62.38 128.44 65.65 124.94 69.26 C 131.99 77.87 137.04 88.72 136.20 100.06 C 135.32 103.55 130.70 105.55 127.77 103.21 C 124.91 101.49 125.47 97.81 125.07 95.00 C 123.67 79.68 109.44 66.74 93.99 67.14 C 78.38 66.40 63.67 79.36 62.29 94.90 C 61.84 97.80 62.38 101.62 59.41 103.35 C 56.41 105.46 51.87 103.45 51.15 99.93 C 50.33 88.89 55.12 78.28 61.90 69.83 C 59.78 64.81 53.26 62.18 51.12 56.88 Z" />
<path fill="#606f80" opacity="1.00" d=" M 80.37 82.46 C 83.32 82.05 86.18 84.93 85.69 87.89 C 85.54 91.57 80.51 93.69 77.81 91.08 C 74.46 88.62 76.17 82.67 80.37 82.46 Z" />
<path fill="#606f80" opacity="1.00" d=" M 105.36 82.53 C 111.16 81.01 113.70 90.43 107.91 91.99 C 101.71 94.30 98.91 83.67 105.36 82.53 Z" />
<path fill="#606f80" opacity="1.00" d=" M 55.39 108.57 C 80.25 108.18 105.14 108.49 130.00 108.40 C 133.23 108.06 136.43 110.62 136.29 113.98 C 136.47 128.65 136.28 143.33 136.38 158.00 C 136.50 160.71 136.02 163.94 133.43 165.42 C 109.29 179.08 77.99 178.95 53.97 165.08 C 51.86 163.87 50.85 161.43 50.99 159.07 C 50.98 144.36 50.99 129.65 50.99 114.94 C 50.67 112.11 52.42 108.99 55.39 108.57 M 62.19 119.37 C 62.05 131.83 62.11 144.29 62.15 156.75 C 80.90 166.29 103.94 166.76 123.08 158.04 C 123.95 157.52 125.55 157.21 125.33 155.85 C 125.32 143.71 125.35 131.57 125.30 119.44 C 104.26 119.36 83.22 119.49 62.19 119.37 Z" />
</g>
</svg>
