<?xml version="1.0" encoding="UTF-8" ?>
<!DOCTYPE svg PUBLIC "-//W3C//DTD SVG 1.1//EN" "http://www.w3.org/Graphics/SVG/1.1/DTD/svg11.dtd">
<svg width="192pt" height="192pt" viewBox="0 0 192 192" version="1.1" xmlns="http://www.w3.org/2000/svg">
<g id="#d735b2ff">
<path fill="#d735b2" opacity="1.00" d=" M 63.42 19.54 C 85.02 9.85 110.82 10.64 132.02 21.07 C 139.83 14.92 151.56 14.33 159.59 20.36 C 169.14 26.88 172.05 41.02 165.84 50.77 C 160.42 60.15 147.90 64.40 137.91 60.15 C 126.34 55.81 121.05 41.89 124.89 30.50 C 107.03 22.58 85.92 22.19 67.99 30.10 C 71.04 39.44 68.85 50.67 60.79 56.81 C 53.69 62.77 43.41 62.93 35.28 59.07 C 21.12 83.05 22.63 115.26 39.63 137.45 C 59.01 164.54 98.67 173.93 128.04 158.06 C 157.54 143.48 173.25 106.81 163.55 75.36 C 160.77 69.09 170.64 64.14 173.85 70.23 C 181.72 93.36 177.76 120.02 164.34 140.36 C 147.85 166.01 116.23 180.93 85.94 176.77 C 54.76 173.27 27.15 150.00 17.92 120.09 C 10.50 97.13 13.87 70.99 26.94 50.70 C 22.69 42.60 22.89 32.09 28.80 24.84 C 35.63 15.63 49.77 13.32 59.16 19.94 C 60.47 21.24 62.06 20.08 63.42 19.54 Z" />
<path fill="#d735b2" opacity="1.00" d=" M 90.44 54.13 C 90.86 48.26 100.17 47.69 101.36 53.44 C 101.95 66.58 101.42 79.79 101.63 92.95 C 110.46 102.22 119.90 110.94 128.51 120.40 C 131.96 125.35 124.85 131.61 120.35 127.73 C 111.32 119.08 102.68 110.01 93.79 101.22 C 92.08 99.54 90.12 97.63 90.33 95.02 C 90.36 81.39 90.18 67.75 90.44 54.13 Z" />
</g>
</svg>
