<?xml version="1.0" encoding="UTF-8" ?>
<!DOCTYPE svg PUBLIC "-//W3C//DTD SVG 1.1//EN" "http://www.w3.org/Graphics/SVG/1.1/DTD/svg11.dtd">
<svg width="192pt" height="192pt" viewBox="0 0 192 192" version="1.1" xmlns="http://www.w3.org/2000/svg">
<g id="#70ad91ff">
<path fill="#70ad91" opacity="1.00" d=" M 62.13 30.93 C 58.99 27.88 60.60 21.72 64.99 20.91 C 69.96 20.44 75.00 20.60 80.00 20.78 C 82.67 20.81 84.40 23.47 84.18 25.97 C 84.31 39.98 84.17 53.99 84.24 67.99 C 84.31 74.31 83.18 80.67 80.59 86.45 C 70.14 109.39 58.06 131.56 45.52 153.41 C 44.10 155.73 46.56 158.25 48.98 157.71 C 80.33 157.75 111.67 157.74 143.01 157.72 C 145.27 158.16 147.71 155.89 146.48 153.64 C 134.19 131.92 122.14 109.99 111.70 87.31 C 108.97 81.61 107.66 75.30 107.69 69.00 C 107.70 54.66 107.64 40.32 107.71 25.98 C 107.45 23.44 109.27 20.73 111.99 20.77 C 116.99 20.61 122.03 20.44 127.01 20.91 C 131.38 21.60 132.90 27.84 129.74 30.75 C 127.08 33.43 122.97 32.34 119.61 32.59 C 119.59 44.39 119.59 56.19 119.60 67.99 C 119.57 74.79 121.27 81.58 124.53 87.56 C 138.22 112.13 152.20 136.54 165.82 161.15 C 168.10 164.49 166.34 169.71 161.86 169.47 C 118.25 169.64 74.62 169.55 31.00 169.52 C 27.07 169.98 23.36 165.49 25.87 161.94 C 39.59 137.30 53.41 112.71 67.13 88.06 C 70.55 81.96 72.33 74.99 72.28 68.00 C 72.27 56.20 72.32 44.40 72.25 32.60 C 68.91 32.30 64.86 33.42 62.13 30.93 Z" />
<path fill="#70ad91" opacity="1.00" d=" M 71.21 119.02 C 84.63 117.58 98.43 118.82 112.00 118.39 C 115.86 118.67 121.39 117.04 123.45 121.44 C 128.20 130.38 132.82 139.40 137.49 148.39 C 138.95 150.30 137.66 153.48 135.05 153.15 C 109.35 153.29 83.64 153.22 57.94 153.18 C 54.50 153.77 53.47 149.57 55.48 147.41 C 60.95 138.12 64.64 127.49 71.21 119.02 Z" />
</g>
</svg>
