<?xml version="1.0" encoding="UTF-8" ?>
<!DOCTYPE svg PUBLIC "-//W3C//DTD SVG 1.1//EN" "http://www.w3.org/Graphics/SVG/1.1/DTD/svg11.dtd">
<svg width="192pt" height="192pt" viewBox="0 0 192 192" version="1.1" xmlns="http://www.w3.org/2000/svg">
<g id="#f6b12cff">
<path fill="#f6b12c" opacity="1.00" d=" M 41.43 21.65 C 72.26 20.97 103.15 21.54 134.00 21.34 C 142.16 21.63 151.05 19.99 158.41 24.48 C 167.84 29.64 172.13 41.49 169.68 51.70 C 167.96 55.96 161.03 55.79 159.52 51.45 C 158.59 47.69 159.67 43.59 158.05 39.97 C 156.06 35.33 151.10 32.23 146.05 32.52 C 112.35 32.55 78.64 32.50 44.94 32.53 C 38.60 32.34 32.76 37.84 32.63 44.20 C 32.24 47.15 33.32 50.71 31.03 53.09 C 28.67 55.79 23.74 55.19 22.13 51.96 C 18.25 38.81 27.49 23.31 41.43 21.65 Z" />
<path fill="#f6b12c" opacity="1.00" d=" M 49.55 60.57 C 50.46 55.23 57.75 56.02 61.35 57.70 C 65.49 68.29 68.19 79.50 71.51 90.39 C 72.41 94.16 67.52 93.70 65.17 93.53 C 61.72 93.72 61.61 89.51 60.77 87.14 C 57.80 87.12 54.83 87.12 51.86 87.10 C 51.01 89.63 50.69 93.96 47.01 93.53 C 44.53 93.81 39.46 93.90 40.80 90.00 C 43.55 80.14 46.68 70.39 49.55 60.57 M 54.00 78.97 C 55.53 78.96 57.07 78.95 58.60 78.94 C 57.82 76.22 57.05 73.50 56.27 70.78 C 55.49 73.51 54.74 76.24 54.00 78.97 Z" />
<path fill="#f6b12c" opacity="1.00" d=" M 76.10 59.95 C 75.79 55.47 83.73 55.49 85.44 58.45 C 85.99 67.25 85.49 76.11 85.68 84.93 C 89.77 85.05 93.89 84.73 97.97 85.14 C 101.20 86.82 100.57 94.39 96.00 93.53 C 90.13 93.51 84.25 93.69 78.39 93.43 C 76.14 93.37 75.98 90.75 76.03 89.06 C 76.09 79.36 75.96 69.65 76.10 59.95 Z" />
<path fill="#f6b12c" opacity="1.00" d=" M 106.29 57.18 C 113.14 56.33 120.55 56.09 127.35 57.73 C 134.08 60.53 132.50 69.16 132.75 74.99 C 132.42 80.73 134.12 88.77 128.11 92.16 C 121.72 94.53 114.66 93.28 107.98 93.47 C 105.40 93.83 104.84 91.00 104.97 89.06 C 105.02 79.68 105.05 70.31 105.03 60.93 C 105.20 59.69 104.82 57.77 106.29 57.18 M 114.69 65.19 C 114.66 71.80 114.67 78.41 114.68 85.02 C 117.34 85.02 120.00 84.97 122.65 84.66 C 123.32 78.29 123.46 71.80 122.54 65.46 C 119.93 65.29 117.31 65.24 114.69 65.19 Z" />
<path fill="#f6b12c" opacity="1.00" d=" M 139.30 57.20 C 142.01 56.23 147.94 55.64 147.70 59.99 C 147.65 70.53 148.00 81.12 147.54 91.65 C 146.13 94.54 139.85 94.56 138.33 91.74 C 137.76 82.19 138.30 72.57 138.07 62.99 C 138.32 61.09 137.51 58.53 139.30 57.20 Z" />
<path fill="#f6b12c" opacity="1.00" d=" M 41.05 108.10 C 38.71 106.39 38.63 101.56 41.10 99.97 C 48.71 99.48 56.39 99.76 64.02 99.82 C 67.49 100.04 67.00 104.73 66.22 107.07 C 64.17 109.33 60.63 107.93 57.93 108.31 C 57.78 116.55 57.98 124.80 57.86 133.04 C 58.30 137.78 51.05 137.51 48.65 135.35 C 47.74 126.41 48.59 117.31 48.25 108.30 C 45.85 108.30 43.43 108.44 41.05 108.10 Z" />
<path fill="#f6b12c" opacity="1.00" d=" M 71.98 101.00 C 75.81 98.56 83.99 98.54 84.34 104.64 C 86.65 115.28 92.27 125.55 92.49 136.40 C 87.43 137.69 82.02 136.30 82.04 130.19 C 79.08 130.18 76.13 130.18 73.18 130.18 C 74.77 137.95 59.27 139.72 62.52 131.38 C 65.78 121.29 68.24 110.90 71.98 101.00 M 77.59 113.82 C 76.84 116.54 76.09 119.25 75.32 121.96 C 76.84 121.96 78.36 121.95 79.88 121.95 C 79.13 119.24 78.38 116.52 77.59 113.82 Z" />
<path fill="#f6b12c" opacity="1.00" d=" M 95.01 103.92 C 93.95 98.71 102.37 98.28 104.45 101.45 C 105.01 110.26 104.51 119.14 104.69 127.98 C 108.78 128.09 112.89 127.74 116.96 128.19 C 119.65 129.54 119.56 134.68 117.30 136.29 C 110.70 136.95 103.98 136.60 97.35 136.47 C 95.10 136.41 94.97 133.74 94.97 132.06 C 94.97 122.68 94.92 113.30 95.01 103.92 Z" />
<path fill="#f6b12c" opacity="1.00" d=" M 121.13 102.97 C 120.87 98.55 126.96 99.37 129.68 100.29 C 131.87 104.28 130.16 109.41 130.69 113.85 C 131.53 113.85 133.21 113.86 134.04 113.87 C 135.96 109.45 136.94 104.59 139.41 100.43 C 141.89 99.48 147.52 98.44 148.15 102.04 C 146.83 107.54 144.26 112.64 142.46 117.99 C 144.47 123.38 147.14 128.53 148.78 134.04 C 148.30 137.96 142.72 136.77 140.05 136.01 C 137.44 131.81 136.25 126.90 134.20 122.42 C 133.32 122.43 131.58 122.44 130.70 122.44 C 130.50 126.73 131.14 131.10 130.33 135.33 C 128.16 137.27 122.86 137.61 121.28 134.80 C 120.85 124.21 121.17 113.58 121.13 102.97 Z" />
<path fill="#f6b12c" opacity="1.00" d=" M 25.23 137.21 C 29.99 135.53 33.55 140.63 32.57 144.95 C 31.67 152.11 37.61 159.19 44.92 158.98 C 78.63 159.02 112.35 159.00 146.06 158.99 C 150.96 159.22 155.86 156.35 157.89 151.87 C 159.68 148.29 158.58 144.15 159.48 140.38 C 160.88 136.22 167.26 135.71 169.38 139.53 C 173.96 153.42 162.92 169.89 148.03 170.14 C 113.70 170.37 79.35 170.23 45.01 170.20 C 32.93 170.46 21.92 160.16 21.49 148.07 C 21.30 144.27 20.63 138.70 25.23 137.21 Z" />
</g>
</svg>
