<?xml version="1.0" encoding="UTF-8" ?>
<!DOCTYPE svg PUBLIC "-//W3C//DTD SVG 1.1//EN" "http://www.w3.org/Graphics/SVG/1.1/DTD/svg11.dtd">
<svg width="192pt" height="192pt" viewBox="0 0 192 192" version="1.1" xmlns="http://www.w3.org/2000/svg">
<g id="#8f939aff">
<path fill="#8f939a" opacity="1.00" d=" M 37.38 22.54 C 43.14 21.07 49.13 21.67 55.00 21.56 C 85.32 21.62 115.65 21.42 145.96 21.64 C 158.26 21.62 169.47 32.60 169.08 45.01 C 169.43 78.99 169.20 113.00 169.20 146.99 C 169.67 159.16 159.23 170.41 147.06 170.80 C 112.36 170.86 77.65 170.79 42.95 170.81 C 30.89 170.85 20.25 160.06 20.02 148.08 C 19.97 113.70 19.99 79.32 20.01 44.95 C 20.05 34.74 27.46 25.06 37.38 22.54 M 38.99 34.00 C 61.85 50.85 85.18 67.09 108.18 83.75 C 116.20 89.59 116.14 103.21 107.98 108.92 C 84.97 125.81 61.22 141.76 38.58 159.12 C 74.38 159.71 110.20 159.25 146.01 159.34 C 153.46 159.48 158.45 151.96 158.18 145.05 C 158.21 112.35 158.26 79.64 158.18 46.94 C 158.39 39.61 152.58 32.84 145.08 32.81 C 111.71 32.74 78.34 32.83 44.97 32.74 C 42.89 32.64 40.92 33.34 38.99 34.00 M 31.45 42.97 C 31.35 78.40 31.34 113.84 31.47 149.27 C 54.70 133.38 77.31 116.53 100.31 100.29 C 103.25 98.75 103.49 94.11 100.56 92.42 C 77.53 75.93 54.56 59.36 31.45 42.97 Z" />
<path fill="#8f939a" opacity="1.00" d=" M 77.18 41.04 C 80.99 40.14 85.04 40.35 88.91 40.81 C 93.42 42.03 94.26 48.92 90.11 51.14 C 86.45 52.79 82.14 52.23 78.27 51.79 C 73.17 50.79 72.43 43.06 77.18 41.04 Z" />
<path fill="#8f939a" opacity="1.00" d=" M 105.39 41.36 C 109.00 39.88 113.14 40.51 116.95 40.68 C 121.57 41.14 123.28 47.88 119.56 50.59 C 116.00 53.13 111.17 52.10 107.10 51.81 C 102.30 50.95 101.09 43.67 105.39 41.36 Z" />
<path fill="#8f939a" opacity="1.00" d=" M 133.38 41.38 C 136.98 39.86 141.14 40.51 144.95 40.67 C 149.63 41.09 151.33 47.88 147.61 50.63 C 144.04 53.10 139.28 52.10 135.22 51.83 C 130.39 51.03 129.11 43.75 133.38 41.38 Z" />
<path fill="#8f939a" opacity="1.00" d=" M 76.39 141.43 C 79.93 139.70 84.15 140.45 87.96 140.57 C 92.81 140.91 94.64 147.94 90.67 150.71 C 87.01 152.94 82.33 152.23 78.28 151.73 C 73.58 150.87 72.34 143.90 76.39 141.43 Z" />
<path fill="#8f939a" opacity="1.00" d=" M 105.40 141.27 C 109.00 139.78 113.13 140.40 116.94 140.59 C 121.59 141.04 123.33 147.88 119.52 150.57 C 115.97 153.08 111.16 152.15 107.11 151.76 C 102.28 150.92 101.10 143.58 105.40 141.27 Z" />
<path fill="#8f939a" opacity="1.00" d=" M 133.40 141.28 C 137.00 139.77 141.13 140.39 144.94 140.58 C 149.64 141.00 151.38 147.87 147.56 150.60 C 143.97 153.05 139.18 152.17 135.12 151.75 C 130.32 150.90 129.15 143.62 133.40 141.28 Z" />
</g>
</svg>
