<?xml version="1.0" encoding="UTF-8" ?>
<!DOCTYPE svg PUBLIC "-//W3C//DTD SVG 1.1//EN" "http://www.w3.org/Graphics/SVG/1.1/DTD/svg11.dtd">
<svg width="192pt" height="192pt" viewBox="0 0 192 192" version="1.1" xmlns="http://www.w3.org/2000/svg">
<g id="#309ad5ff">
<path fill="#309ad5" opacity="1.00" d=" M 53.39 22.42 C 72.15 11.56 95.34 8.85 116.17 14.73 C 144.18 22.37 167.03 46.03 173.62 74.31 C 180.31 100.94 172.35 130.62 153.24 150.30 C 151.19 152.57 147.75 152.02 145.35 150.67 C 139.05 147.41 132.60 144.25 127.02 139.82 C 121.06 134.45 117.03 127.22 110.84 122.09 C 100.51 124.66 91.21 132.84 80.01 131.07 C 72.40 129.74 68.68 121.93 68.41 114.87 C 63.42 113.06 61.59 107.79 62.05 102.88 C 59.38 99.52 56.83 95.96 56.66 91.45 C 51.70 89.66 46.64 85.79 46.63 80.02 C 47.09 71.74 53.96 65.29 54.37 56.98 C 53.08 50.65 49.77 44.72 50.29 38.06 C 50.80 32.92 48.02 25.70 53.39 22.42 M 61.50 30.71 C 60.78 37.79 61.65 44.83 64.43 51.39 C 68.16 61.55 60.65 70.66 57.92 79.93 C 61.61 81.70 66.52 82.70 68.11 87.00 C 69.19 89.54 66.94 93.61 70.57 94.55 C 74.96 95.87 76.58 100.81 74.10 104.61 C 81.31 107.21 77.81 115.95 81.92 120.30 C 92.05 120.18 100.04 112.03 109.98 111.11 C 116.47 110.43 120.88 116.00 124.64 120.39 C 130.66 128.66 138.18 135.78 147.94 139.37 C 165.86 118.28 169.85 86.58 157.08 61.94 C 148.73 45.20 133.46 32.07 115.63 26.39 C 97.93 20.64 78.10 22.38 61.50 30.71 Z" />
<path fill="#309ad5" opacity="1.00" d=" M 33.36 39.43 C 38.99 37.08 43.65 45.08 39.16 49.04 C 17.02 75.11 18.36 117.23 42.25 141.75 C 61.21 162.75 93.37 170.02 119.57 159.42 C 122.27 158.53 125.16 156.37 128.06 157.77 C 131.91 159.18 132.77 165.04 129.38 167.40 C 96.62 184.19 53.20 174.42 30.44 145.55 C 7.46 118.24 5.86 75.71 26.73 46.76 C 28.74 44.18 30.37 40.99 33.36 39.43 Z" />
</g>
</svg>
