<?xml version="1.0" encoding="UTF-8" ?>
<!DOCTYPE svg PUBLIC "-//W3C//DTD SVG 1.1//EN" "http://www.w3.org/Graphics/SVG/1.1/DTD/svg11.dtd">
<svg width="192pt" height="192pt" viewBox="0 0 192 192" version="1.1" xmlns="http://www.w3.org/2000/svg">
<g id="#f9932eff">
<path fill="#f9932e" opacity="1.00" d=" M 87.83 13.88 C 89.88 12.19 93.02 12.38 94.99 14.10 C 114.52 28.53 134.05 42.96 153.57 57.40 C 155.44 58.63 156.71 60.72 156.49 63.02 C 156.45 80.67 156.60 98.33 156.41 115.98 C 155.89 122.27 145.78 122.16 145.27 115.91 C 145.07 99.27 145.29 82.61 145.17 65.97 C 144.97 65.64 144.56 64.98 144.36 64.65 C 126.66 51.56 109.01 38.38 91.23 25.40 C 73.25 38.66 55.21 51.87 37.35 65.30 C 37.29 91.40 37.29 117.51 37.36 143.62 C 59.57 143.84 81.81 143.38 104.01 143.84 C 110.26 144.84 109.42 154.98 103.05 154.94 C 79.71 155.33 56.32 155.05 32.95 155.08 C 29.49 155.33 25.81 152.82 26.05 149.08 C 26.00 120.36 26.05 91.64 26.05 62.93 C 25.91 60.84 26.87 58.80 28.62 57.65 C 48.35 43.06 68.07 28.44 87.83 13.88 Z" />
<path fill="#f9932e" opacity="1.00" d=" M 121.38 114.39 C 123.14 114.16 124.91 114.70 126.35 115.73 C 137.47 123.24 148.58 130.76 159.67 138.31 C 163.68 140.76 163.88 147.32 159.90 149.90 C 148.66 157.37 137.36 164.74 126.07 172.15 C 121.67 175.52 114.68 171.54 115.09 166.08 C 115.03 151.37 115.08 136.65 115.08 121.94 C 114.76 118.26 117.71 114.73 121.38 114.39 Z" />
</g>
</svg>
