<?xml version="1.0" encoding="UTF-8" ?>
<!DOCTYPE svg PUBLIC "-//W3C//DTD SVG 1.1//EN" "http://www.w3.org/Graphics/SVG/1.1/DTD/svg11.dtd">
<svg width="192pt" height="192pt" viewBox="0 0 192 192" version="1.1" xmlns="http://www.w3.org/2000/svg">
<g id="#ff613cff">
<path fill="#ff613c" opacity="1.00" d=" M 38.30 19.36 C 68.78 17.91 99.44 19.14 129.99 18.73 C 138.10 19.19 146.66 17.39 154.38 20.60 C 163.12 24.25 168.99 33.53 168.60 43.00 C 168.47 60.33 168.84 77.68 168.43 95.00 C 167.75 100.99 157.86 100.68 157.59 94.62 C 157.21 77.09 157.62 59.53 157.42 41.99 C 157.56 34.99 150.85 29.31 144.01 29.83 C 110.66 29.85 77.30 29.76 43.95 29.85 C 37.78 29.72 31.94 34.78 31.56 41.01 C 31.14 53.98 31.92 67.01 31.21 79.96 C 30.05 85.46 21.31 85.20 20.53 79.64 C 20.11 67.09 20.45 54.50 20.37 41.93 C 20.26 31.47 28.10 21.64 38.30 19.36 Z" />
<path fill="#ff613c" opacity="1.00" d=" M 91.15 54.24 C 101.58 52.38 112.78 51.23 122.87 55.23 C 128.07 57.20 132.75 61.45 133.82 67.09 C 135.13 73.19 132.36 79.16 129.22 84.22 C 123.10 93.89 115.04 102.14 108.38 111.42 C 107.08 112.97 106.13 116.61 109.03 116.89 C 130.04 116.73 149.67 108.24 169.13 101.37 C 154.08 111.74 136.74 118.73 119.41 124.41 C 112.15 126.05 103.81 129.13 96.78 125.25 C 91.54 121.61 94.07 114.32 97.11 110.05 C 104.96 99.35 114.56 90.00 122.02 79.01 C 124.49 75.42 127.22 69.48 122.62 66.35 C 116.89 62.74 110.20 60.55 103.52 59.56 C 104.72 61.30 106.05 62.96 107.32 64.64 C 90.90 67.40 74.86 72.06 59.24 77.79 C 62.67 83.43 56.90 86.97 53.49 90.57 C 62.63 92.86 72.59 91.08 80.43 85.88 C 80.04 84.69 79.66 83.50 79.29 82.31 C 83.14 83.11 88.23 88.29 84.17 91.76 C 83.60 90.54 83.04 89.32 82.49 88.09 C 73.09 95.45 60.77 95.67 49.47 94.07 C 49.16 97.74 49.39 102.59 45.40 104.39 C 40.81 106.85 34.20 110.54 35.30 116.68 C 37.83 120.90 43.48 121.36 47.93 121.62 C 58.70 122.31 69.14 119.20 79.70 117.79 C 67.64 125.35 53.14 129.05 38.93 128.76 C 31.34 128.56 22.33 124.78 20.65 116.59 C 19.01 107.33 24.50 98.88 29.78 91.81 C 44.34 71.86 67.30 59.34 91.15 54.24 Z" />
<path fill="#ff613c" opacity="1.00" d=" M 161.32 110.38 C 164.85 109.07 168.95 112.20 168.56 115.98 C 168.64 125.64 168.63 135.31 168.56 144.98 C 168.42 156.87 157.86 167.40 145.97 167.51 C 111.97 167.61 77.96 167.53 43.95 167.54 C 35.08 167.70 26.50 162.30 22.70 154.31 C 19.89 148.72 20.10 142.24 20.51 136.16 C 20.97 132.24 26.22 130.30 29.20 132.83 C 32.61 135.52 31.11 140.34 31.51 144.07 C 31.26 150.73 37.35 156.66 43.99 156.32 C 77.66 156.33 111.34 156.33 145.01 156.30 C 151.25 156.55 157.11 151.27 157.36 145.00 C 157.65 135.34 157.27 125.67 157.49 116.00 C 157.42 113.56 158.87 111.05 161.32 110.38 Z" />
</g>
</svg>
