<?xml version="1.0" encoding="UTF-8" ?>
<!DOCTYPE svg PUBLIC "-//W3C//DTD SVG 1.1//EN" "http://www.w3.org/Graphics/SVG/1.1/DTD/svg11.dtd">
<svg width="192pt" height="192pt" viewBox="0 0 192 192" version="1.1" xmlns="http://www.w3.org/2000/svg">
<g id="#2897a2ff">
<path fill="#2897a2" opacity="1.00" d=" M 61.97 20.99 C 90.40 8.32 125.69 13.37 149.29 33.72 C 167.64 49.08 178.88 72.98 178.00 96.97 C 176.66 104.09 165.41 103.16 165.19 95.95 C 165.19 77.27 157.90 58.60 144.68 45.32 C 129.76 29.60 107.62 21.23 86.04 22.82 C 58.45 24.32 33.27 42.55 22.10 67.64 C 20.56 67.20 18.31 66.32 19.28 64.30 C 27.40 45.21 42.85 29.19 61.97 20.99 Z" />
<path fill="#2897a2" opacity="1.00" d=" M 85.35 33.42 C 111.81 28.95 139.98 42.71 152.60 66.39 C 166.60 90.92 161.47 124.55 140.44 143.48 C 137.00 146.36 131.14 143.98 130.36 139.63 C 129.47 136.24 132.22 133.59 134.29 131.33 C 146.66 118.06 151.62 98.42 147.12 80.86 C 143.22 64.62 131.52 50.57 116.38 43.59 C 101.32 36.26 83.10 36.24 67.87 43.11 C 65.79 44.60 63.40 41.89 64.87 40.00 C 71.11 36.37 78.27 34.59 85.35 33.42 Z" />
<path fill="#2897a2" opacity="1.00" d=" M 106.34 52.28 C 130.63 57.06 147.19 85.18 140.44 109.20 C 135.61 130.38 114.79 146.63 93.01 145.59 C 88.42 145.25 85.66 139.22 88.58 135.59 C 90.78 132.21 95.17 133.02 98.60 132.51 C 114.74 130.81 128.85 118.00 132.21 102.14 C 136.53 84.13 126.25 63.86 108.84 57.25 C 106.67 56.77 103.31 54.12 106.34 52.28 Z" />
<path fill="#2897a2" opacity="1.00" d=" M 17.39 80.51 C 22.79 78.53 26.14 84.57 24.59 89.18 C 20.61 124.67 47.66 159.81 82.83 165.42 C 117.39 172.50 154.23 149.43 163.67 115.61 C 164.45 108.92 175.58 110.15 174.67 116.87 C 169.99 136.57 156.67 153.79 139.77 164.74 C 115.23 180.81 81.95 181.93 56.29 167.75 C 29.47 153.49 11.87 123.44 13.33 92.98 C 13.71 88.78 12.56 82.54 17.39 80.51 Z" />
<path fill="#2897a2" opacity="1.00" d=" M 116.35 81.33 C 117.50 80.32 119.07 81.37 119.54 82.56 C 125.91 94.16 123.51 109.76 113.57 118.62 C 101.54 130.67 79.14 130.08 68.47 116.61 C 65.04 110.90 73.34 104.38 78.14 108.82 C 84.33 114.64 93.44 117.37 101.66 114.65 C 113.11 111.48 120.78 97.89 116.39 86.61 C 116.04 84.92 114.27 82.54 116.35 81.33 Z" />
</g>
</svg>
