<?xml version="1.0" encoding="UTF-8" ?>
<!DOCTYPE svg PUBLIC "-//W3C//DTD SVG 1.1//EN" "http://www.w3.org/Graphics/SVG/1.1/DTD/svg11.dtd">
<svg width="192pt" height="192pt" viewBox="0 0 192 192" version="1.1" xmlns="http://www.w3.org/2000/svg">
<g id="#45e371ff">
<path fill="#45e371" opacity="1.00" d=" M 84.41 14.52 C 116.12 9.58 149.57 25.50 165.94 53.04 C 178.76 73.74 181.36 100.26 173.15 123.15 C 163.31 151.48 136.75 173.15 106.94 176.81 C 76.34 181.35 44.14 166.56 27.46 140.57 C 8.15 112.07 9.95 71.40 31.74 44.75 C 44.61 28.46 63.81 17.28 84.41 14.52 M 83.72 26.02 C 87.75 27.97 91.88 29.73 96.01 31.45 C 100.14 29.74 104.26 27.98 108.30 26.05 C 100.18 24.76 91.84 24.75 83.72 26.02 M 44.28 47.44 C 44.76 56.25 45.81 65.02 46.48 73.81 C 51.55 76.18 56.55 79.54 61.85 80.91 C 71.50 74.19 80.96 67.16 90.41 60.15 C 90.42 53.96 90.33 47.76 90.46 41.57 C 82.75 37.89 74.83 34.62 66.92 31.42 C 58.26 34.86 50.76 40.82 44.28 47.44 M 101.63 41.42 C 101.67 47.68 101.59 53.93 101.68 60.19 C 111.43 67.48 121.32 74.58 131.17 81.74 C 135.90 79.00 141.18 76.94 145.51 73.67 C 146.24 64.97 147.55 56.20 147.55 47.49 C 141.27 40.64 133.52 35.14 125.07 31.31 C 117.28 34.74 109.38 37.91 101.63 41.42 M 25.95 86.30 C 28.31 83.86 30.51 81.27 32.76 78.74 C 37.63 74.48 33.83 67.50 33.98 61.99 C 29.67 69.42 27.09 77.80 25.95 86.30 M 158.00 62.21 C 157.66 66.74 156.73 71.33 156.99 75.85 C 159.80 79.47 162.93 82.83 165.99 86.24 C 164.74 77.86 162.32 69.54 158.00 62.21 M 71.17 88.17 C 70.43 88.95 68.53 89.56 69.19 90.95 C 72.22 101.43 75.92 111.72 79.15 122.15 C 90.40 122.24 101.66 122.21 112.91 122.16 C 116.36 111.45 119.92 100.77 123.26 90.02 C 114.22 83.33 105.13 76.71 96.00 70.14 C 87.71 76.13 79.50 82.24 71.17 88.17 M 42.28 85.14 C 37.06 90.65 32.31 96.59 27.21 102.22 C 25.54 103.65 26.17 105.98 26.37 107.86 C 27.69 115.64 30.48 123.10 34.21 130.03 C 42.79 132.21 51.45 134.01 60.05 136.09 C 63.03 132.93 65.94 129.73 68.71 126.39 C 64.85 114.87 61.37 103.22 57.33 91.77 C 52.26 89.75 47.63 86.14 42.28 85.14 M 134.27 93.32 C 130.34 104.22 127.13 115.40 123.39 126.38 C 126.14 129.69 129.03 132.88 131.94 136.06 C 140.47 133.84 149.35 132.55 157.67 129.78 C 162.18 121.95 165.09 113.09 165.95 104.09 C 161.22 97.28 155.06 91.36 149.75 84.91 C 144.45 87.38 139.02 90.00 134.27 93.32 M 77.56 133.52 C 74.79 136.69 71.99 139.82 69.14 142.91 C 73.38 150.32 77.84 157.60 82.22 164.93 C 91.32 166.71 100.73 166.64 109.84 164.93 C 114.25 157.62 118.67 150.32 122.94 142.92 C 120.09 139.82 117.30 136.66 114.50 133.51 C 102.19 133.49 89.87 133.47 77.56 133.52 M 44.71 144.11 C 50.66 150.46 57.76 155.73 65.67 159.39 C 63.42 155.31 60.94 151.37 58.57 147.36 C 53.98 146.17 49.33 145.18 44.71 144.11 M 133.47 147.38 C 131.19 151.33 128.77 155.21 126.51 159.18 C 134.30 155.60 141.28 150.38 147.13 144.11 C 142.59 145.24 137.99 146.16 133.47 147.38 Z" />
</g>
</svg>
