<?xml version="1.0" encoding="UTF-8" ?>
<!DOCTYPE svg PUBLIC "-//W3C//DTD SVG 1.1//EN" "http://www.w3.org/Graphics/SVG/1.1/DTD/svg11.dtd">
<svg width="192pt" height="192pt" viewBox="0 0 192 192" version="1.1" xmlns="http://www.w3.org/2000/svg">
<g id="#ff633cff">
<path fill="#ff633c" opacity="1.00" d=" M 63.19 31.42 C 67.71 21.55 77.04 13.69 87.96 12.23 C 102.46 9.95 117.50 18.38 123.65 31.60 C 133.09 31.75 142.55 31.54 151.98 32.17 C 155.72 32.53 158.22 36.35 157.85 39.95 C 157.84 79.99 157.90 120.03 157.84 160.07 C 158.07 168.45 150.41 175.90 142.06 175.55 C 109.71 175.54 77.36 175.59 45.01 175.51 C 36.95 175.45 29.91 168.12 30.06 160.08 C 30.02 128.70 30.05 97.32 30.06 65.94 C 29.65 57.37 37.37 49.65 45.94 50.07 C 74.95 50.11 103.97 49.90 132.98 50.15 C 139.42 50.42 139.48 60.97 133.03 61.29 C 104.02 61.50 75.00 61.28 45.99 61.38 C 43.38 61.05 41.03 63.37 41.35 65.99 C 41.30 97.33 41.27 128.68 41.37 160.03 C 41.25 162.96 44.33 164.68 46.97 164.27 C 78.66 164.21 110.36 164.33 142.04 164.20 C 144.92 164.47 146.96 161.67 146.56 158.99 C 146.54 120.40 146.61 81.82 146.54 43.24 C 137.73 42.80 128.87 43.61 120.09 42.76 C 116.68 42.49 114.58 39.53 113.42 36.62 C 109.24 26.73 97.35 20.99 87.02 23.96 C 80.32 25.85 75.10 31.39 72.80 37.87 C 71.80 41.19 68.33 43.00 64.98 42.66 C 55.32 42.48 45.64 42.70 35.99 42.29 C 30.13 41.47 30.16 31.89 36.10 31.29 C 45.12 31.04 54.16 31.39 63.19 31.42 Z" />
</g>
</svg>
