<?xml version="1.0" encoding="UTF-8" ?>
<!DOCTYPE svg PUBLIC "-//W3C//DTD SVG 1.1//EN" "http://www.w3.org/Graphics/SVG/1.1/DTD/svg11.dtd">
<svg width="192pt" height="192pt" viewBox="0 0 192 192" version="1.1" xmlns="http://www.w3.org/2000/svg">
<g id="#44e372ff">
<path fill="#44e372" opacity="1.00" d=" M 33.36 21.53 C 41.43 18.52 50.56 23.82 53.40 31.61 C 67.14 72.62 80.51 113.77 94.30 154.76 C 94.64 157.20 97.41 157.20 97.67 154.72 C 111.28 113.96 124.70 73.12 138.25 32.34 C 140.76 24.83 148.93 19.23 156.91 21.21 C 165.29 22.98 170.00 31.89 169.79 39.95 C 169.77 81.64 169.88 123.34 169.75 165.03 C 169.85 172.07 158.31 172.02 158.25 165.04 C 157.95 123.03 158.40 80.99 158.03 38.97 C 158.48 33.83 150.75 32.27 149.25 37.17 C 135.40 78.15 122.03 119.31 108.34 160.36 C 106.66 165.30 102.56 170.05 97.02 170.33 C 90.98 170.43 85.47 166.04 83.63 160.38 C 69.92 119.37 56.56 78.23 42.76 37.25 C 41.24 32.01 33.09 33.80 33.77 39.23 C 33.64 76.99 33.61 114.76 33.79 152.52 C 33.39 158.14 42.62 159.04 43.28 153.52 C 44.03 138.39 42.97 123.15 43.80 108.03 C 44.82 101.35 55.02 102.39 55.08 108.98 C 55.30 124.00 55.34 139.05 55.06 154.06 C 54.76 163.39 46.44 171.33 37.00 170.44 C 27.86 169.96 21.94 160.60 22.07 152.06 C 22.00 114.70 22.04 77.33 22.07 39.96 C 22.00 32.43 25.79 24.07 33.36 21.53 Z" />
</g>
</svg>
