<?xml version="1.0" encoding="UTF-8" ?>
<!DOCTYPE svg PUBLIC "-//W3C//DTD SVG 1.1//EN" "http://www.w3.org/Graphics/SVG/1.1/DTD/svg11.dtd">
<svg width="192pt" height="192pt" viewBox="0 0 192 192" version="1.1" xmlns="http://www.w3.org/2000/svg">
<g id="#ff871fff">
<path fill="#ff871f" opacity="1.00" d=" M 38.26 20.27 C 41.83 19.10 45.98 22.20 45.70 25.99 C 45.79 64.32 45.66 102.65 45.78 140.98 C 45.50 149.79 52.96 157.99 61.93 157.75 C 77.91 157.28 94.58 159.78 109.90 153.93 C 125.88 148.11 137.83 133.83 142.80 117.81 C 146.81 104.60 147.09 90.32 144.19 76.86 C 140.33 59.11 128.11 42.81 110.98 36.05 C 98.65 30.94 85.05 31.61 71.99 31.78 C 69.21 31.63 68.07 34.60 68.28 36.92 C 68.18 71.96 68.39 107.00 68.19 142.04 C 68.36 148.96 57.04 149.53 56.56 142.61 C 56.35 107.09 56.47 71.54 56.52 36.02 C 56.39 28.05 62.72 20.37 70.90 20.12 C 83.62 20.04 96.64 19.26 109.00 22.94 C 132.72 29.39 150.64 50.63 155.69 74.33 C 160.36 96.65 157.94 121.55 144.68 140.64 C 136.32 152.92 123.85 162.50 109.46 166.52 C 96.68 170.47 83.18 169.42 70.00 169.55 C 63.82 169.56 57.40 169.94 51.56 167.50 C 40.93 163.47 33.93 152.28 34.07 141.03 C 34.00 103.00 34.07 64.97 34.05 26.94 C 33.74 24.07 35.40 21.06 38.26 20.27 Z" />
</g>
</svg>
