<?xml version="1.0" encoding="UTF-8" ?>
<!DOCTYPE svg PUBLIC "-//W3C//DTD SVG 1.1//EN" "http://www.w3.org/Graphics/SVG/1.1/DTD/svg11.dtd">
<svg width="192pt" height="192pt" viewBox="0 0 192 192" version="1.1" xmlns="http://www.w3.org/2000/svg">
<g id="#14a4ffff">
<path fill="#14a4ff" opacity="1.00" d=" M 48.14 47.93 C 48.11 33.96 59.94 21.26 74.02 20.85 C 96.01 20.69 118.03 20.59 140.01 20.89 C 146.14 21.76 146.24 31.68 139.99 32.41 C 118.08 32.82 96.13 32.24 74.21 32.67 C 64.64 33.18 58.74 43.07 59.85 52.00 C 59.98 85.68 59.73 119.37 60.02 153.05 C 59.79 159.83 70.87 160.43 71.80 153.95 C 72.33 136.97 71.71 119.93 72.09 102.94 C 72.27 99.53 75.79 97.37 78.99 97.74 C 96.99 97.78 115.01 97.60 133.01 97.81 C 137.53 97.83 140.21 103.86 137.24 107.26 C 134.82 110.44 130.45 109.49 126.99 109.63 C 112.69 109.71 98.37 109.37 84.08 109.78 C 83.51 124.52 84.13 139.29 83.79 154.04 C 83.44 163.85 73.68 171.76 64.02 170.44 C 54.84 169.84 47.60 161.10 48.03 152.04 C 48.07 117.33 47.97 82.63 48.14 47.93 Z" />
</g>
</svg>
