<?xml version="1.0" encoding="UTF-8" ?>
<!DOCTYPE svg PUBLIC "-//W3C//DTD SVG 1.1//EN" "http://www.w3.org/Graphics/SVG/1.1/DTD/svg11.dtd">
<svg width="192pt" height="192pt" viewBox="0 0 192 192" version="1.1" xmlns="http://www.w3.org/2000/svg">
<g id="#46e371ff">
<path fill="#46e371" opacity="1.00" d=" M 87.38 21.44 C 104.74 19.15 123.73 22.07 137.68 33.31 C 146.42 40.57 153.05 50.79 155.22 62.00 C 155.08 68.24 145.26 69.09 144.11 62.94 C 139.69 45.96 123.81 33.91 106.58 32.51 C 91.68 30.63 75.40 33.58 64.22 44.23 C 48.41 58.32 43.19 80.63 44.45 101.09 C 45.10 118.03 51.00 135.54 63.95 147.04 C 78.04 160.03 99.51 162.07 117.14 156.09 C 132.74 150.83 143.34 135.79 146.18 119.98 C 147.06 114.91 140.75 110.90 136.46 113.54 C 133.54 115.12 133.43 118.79 132.53 121.61 C 129.99 131.47 123.88 141.17 114.06 145.02 C 99.32 150.80 80.51 148.61 69.51 136.50 C 59.29 125.43 56.37 109.58 56.67 94.98 C 56.85 88.89 66.66 88.35 67.58 94.31 C 68.17 105.96 69.07 118.73 77.03 128.00 C 84.73 137.42 98.80 138.62 109.62 134.65 C 117.76 131.47 120.98 122.46 122.71 114.61 C 124.53 105.73 134.25 99.84 142.99 101.82 C 151.87 103.17 158.54 112.14 157.44 121.03 C 154.26 140.95 140.85 159.76 121.44 166.59 C 102.30 173.20 79.62 171.97 62.61 160.35 C 46.36 149.18 36.52 130.39 34.09 111.06 C 31.12 88.48 34.08 63.75 48.20 45.16 C 57.48 32.50 71.72 23.46 87.38 21.44 Z" />
</g>
</svg>
