<?xml version="1.0" encoding="UTF-8" ?>
<!DOCTYPE svg PUBLIC "-//W3C//DTD SVG 1.1//EN" "http://www.w3.org/Graphics/SVG/1.1/DTD/svg11.dtd">
<svg width="192pt" height="192pt" viewBox="0 0 192 192" version="1.1" xmlns="http://www.w3.org/2000/svg">
<g id="#13a3ffff">
<path fill="#13a3ff" opacity="1.00" d=" M 42.13 47.93 C 42.11 34.35 53.28 21.79 66.97 20.94 C 80.29 20.55 93.64 20.72 106.96 20.84 C 125.75 21.33 142.88 35.16 147.88 53.17 C 154.38 74.14 145.41 99.38 125.39 109.41 C 110.44 117.17 93.12 113.59 77.00 114.45 C 72.78 114.84 66.31 114.61 65.97 109.04 C 65.85 89.05 65.67 69.02 66.07 49.03 C 66.69 42.69 77.02 42.83 77.53 49.15 C 77.87 66.91 77.60 84.69 77.68 102.46 C 88.73 102.29 99.88 103.20 110.87 101.81 C 127.86 99.15 139.68 81.64 137.91 64.91 C 137.52 48.86 124.47 34.11 108.26 32.85 C 95.84 32.24 83.38 32.77 70.94 32.56 C 65.61 32.32 60.06 34.50 56.98 39.00 C 53.13 44.17 53.85 50.94 53.82 57.00 C 53.78 93.01 53.95 129.03 53.78 165.04 C 53.84 172.14 42.16 172.11 42.12 165.06 C 41.95 126.02 42.03 86.97 42.13 47.93 Z" />
</g>
</svg>
