<?xml version="1.0" encoding="UTF-8" ?>
<!DOCTYPE svg PUBLIC "-//W3C//DTD SVG 1.1//EN" "http://www.w3.org/Graphics/SVG/1.1/DTD/svg11.dtd">
<svg width="192pt" height="192pt" viewBox="0 0 192 192" version="1.1" xmlns="http://www.w3.org/2000/svg">
<g id="#a318ffff">
<path fill="#a318ff" opacity="1.00" d=" M 40.16 25.95 C 40.12 19.19 51.26 19.21 51.27 25.96 C 51.53 64.96 51.20 103.98 51.44 142.99 C 51.53 151.29 58.51 158.92 66.95 159.05 C 79.29 159.36 91.63 159.11 103.97 159.16 C 114.00 159.31 124.33 155.67 131.08 148.05 C 144.30 134.00 143.78 108.85 128.55 96.42 C 125.37 94.36 123.70 89.75 126.76 86.81 C 137.24 75.26 137.27 56.37 127.78 44.23 C 122.02 36.61 112.55 32.15 103.05 32.14 C 93.49 32.06 83.94 32.15 74.39 32.12 C 74.38 69.75 74.55 107.39 74.32 145.02 C 74.13 151.59 63.36 151.66 63.15 145.06 C 62.84 105.69 63.16 66.30 63.14 26.93 C 62.77 23.64 65.61 20.48 68.96 20.77 C 80.62 20.72 92.30 20.68 103.96 20.79 C 117.85 21.04 131.36 28.39 138.80 40.17 C 148.50 54.89 148.67 75.45 138.65 90.07 C 148.84 100.50 153.59 115.53 151.42 129.94 C 149.19 150.85 131.11 168.87 109.98 170.24 C 95.35 170.83 80.68 170.57 66.04 170.39 C 51.89 169.93 40.14 157.08 40.11 143.08 C 40.01 104.04 39.99 64.99 40.16 25.95 Z" />
</g>
</svg>
