<?xml version="1.0" encoding="UTF-8" ?>
<!DOCTYPE svg PUBLIC "-//W3C//DTD SVG 1.1//EN" "http://www.w3.org/Graphics/SVG/1.1/DTD/svg11.dtd">
<svg width="192pt" height="192pt" viewBox="0 0 192 192" version="1.1" xmlns="http://www.w3.org/2000/svg">
<g id="#a91cffff">
<path fill="#a91cff" opacity="1.00" d=" M 53.38 41.41 C 74.93 16.59 115.34 14.52 142.03 31.91 C 146.37 33.75 148.74 40.17 144.20 43.15 C 139.02 46.66 134.91 40.22 130.40 38.53 C 109.33 28.59 81.08 29.84 64.04 47.03 C 51.50 59.52 46.64 77.72 46.65 95.00 C 46.51 111.93 50.49 129.93 62.32 142.66 C 71.48 153.04 85.29 158.44 98.97 158.74 C 112.33 158.81 125.70 158.88 139.06 158.71 C 142.63 158.86 144.23 155.03 144.12 152.00 C 144.31 137.34 144.17 122.67 144.20 108.00 C 144.61 103.46 140.79 98.86 136.08 99.21 C 125.75 99.24 115.41 99.01 105.09 99.33 C 99.70 99.71 99.71 109.25 105.05 109.77 C 113.34 110.35 121.69 109.60 129.99 110.12 C 133.11 110.69 134.84 113.96 134.53 116.94 C 134.39 125.39 134.87 133.87 134.30 142.30 C 133.28 147.74 124.78 148.06 123.22 142.81 C 122.39 135.80 123.10 128.69 122.83 121.65 C 115.12 121.04 107.07 122.81 99.61 120.38 C 89.00 116.56 86.27 101.54 93.25 93.27 C 96.53 89.22 101.84 87.31 106.96 87.46 C 117.25 87.52 127.55 87.34 137.84 87.55 C 147.71 87.99 155.96 97.14 155.82 106.95 C 155.80 122.64 156.09 138.36 155.67 154.05 C 155.39 163.22 147.27 171.12 137.98 170.53 C 121.00 170.04 103.83 171.82 86.99 169.14 C 69.84 166.13 54.65 155.00 45.91 140.04 C 36.63 124.48 34.20 105.78 35.32 87.95 C 36.35 71.11 41.94 54.09 53.38 41.41 Z" />
</g>
</svg>
