<?xml version="1.0" encoding="UTF-8" ?>
<!DOCTYPE svg PUBLIC "-//W3C//DTD SVG 1.1//EN" "http://www.w3.org/Graphics/SVG/1.1/DTD/svg11.dtd">
<svg width="192pt" height="192pt" viewBox="0 0 192 192" version="1.1" xmlns="http://www.w3.org/2000/svg">
<g id="#8a455fff">
<path fill="#8a455f" opacity="1.00" d=" M 84.39 14.50 C 116.54 9.80 150.24 26.58 166.17 54.82 C 182.64 82.59 180.28 119.97 160.40 145.42 C 141.38 171.10 106.52 183.40 75.58 175.42 C 44.84 168.24 19.88 141.71 14.50 110.62 C 10.77 90.28 14.92 68.56 26.29 51.25 C 39.06 31.29 60.88 17.46 84.39 14.50 M 87.36 25.44 C 67.36 27.46 48.64 38.70 37.16 55.16 C 24.50 72.90 20.99 96.65 27.70 117.36 C 35.62 142.99 59.27 162.82 85.94 165.97 C 109.71 169.26 134.67 159.40 149.77 140.75 C 168.84 118.25 171.24 83.52 155.39 58.64 C 141.54 35.68 114.01 22.21 87.36 25.44 Z" />
<path fill="#8a455f" opacity="1.00" d=" M 72.76 71.75 C 77.33 69.36 86.81 70.02 86.78 76.99 C 86.76 91.48 86.94 106.00 86.48 120.49 C 82.43 121.02 78.31 121.07 74.26 120.58 C 72.45 118.58 73.58 115.49 73.25 113.03 C 67.90 112.74 62.53 112.60 57.20 113.18 C 54.13 116.19 52.26 121.86 47.04 121.20 C 43.75 121.40 36.38 121.55 38.29 116.33 C 49.64 101.38 61.14 86.49 72.76 71.75 M 65.29 101.93 C 67.84 102.16 70.40 102.26 72.97 102.24 C 72.91 98.73 72.86 95.21 72.80 91.70 C 70.37 95.16 67.84 98.55 65.29 101.93 Z" />
<path fill="#8a455f" opacity="1.00" d=" M 92.58 76.41 C 93.51 69.38 104.50 69.28 105.97 76.06 C 106.46 86.93 106.05 97.85 106.16 108.74 C 110.03 108.88 113.94 108.58 117.80 109.07 C 122.30 110.44 122.86 117.54 118.36 119.31 C 113.14 121.09 107.43 119.73 102.01 120.18 C 98.56 120.29 92.96 120.40 92.48 115.84 C 92.35 102.71 92.18 89.53 92.58 76.41 Z" />
<path fill="#8a455f" opacity="1.00" d=" M 116.18 79.73 C 113.31 76.20 116.44 70.31 120.99 70.75 C 129.99 70.61 139.02 70.61 148.01 70.88 C 152.39 71.18 154.29 77.28 151.25 80.27 C 148.38 83.14 143.96 81.96 140.33 82.18 C 140.53 93.46 140.34 104.74 140.47 116.02 C 141.07 122.27 131.31 121.02 128.15 118.75 C 127.70 106.56 128.24 94.33 127.87 82.13 C 123.98 81.88 118.90 83.41 116.18 79.73 Z" />
</g>
</svg>
