<?xml version="1.0" encoding="UTF-8" ?>
<!DOCTYPE svg PUBLIC "-//W3C//DTD SVG 1.1//EN" "http://www.w3.org/Graphics/SVG/1.1/DTD/svg11.dtd">
<svg width="192pt" height="192pt" viewBox="0 0 192 192" version="1.1" xmlns="http://www.w3.org/2000/svg">
<g id="#43c3d9ff">
<path fill="#43c3d9" opacity="1.00" d=" M 22.06 43.94 C 21.88 31.70 32.75 20.64 45.02 20.76 C 79.34 20.72 113.66 20.71 147.98 20.76 C 160.19 20.73 171.01 31.74 170.81 43.94 C 170.80 74.27 170.99 104.60 170.72 134.92 C 170.36 141.07 160.29 141.16 159.82 135.01 C 159.48 104.66 159.84 74.28 159.65 43.92 C 159.72 37.29 153.55 31.68 147.03 31.84 C 113.34 31.81 79.65 31.81 45.97 31.84 C 39.41 31.61 33.14 37.25 33.29 43.92 C 33.24 77.97 33.25 112.03 33.28 146.08 C 33.10 151.78 37.46 156.75 42.84 158.15 C 45.23 151.99 45.97 145.25 48.99 139.34 C 50.88 144.60 52.13 150.06 53.95 155.35 C 59.98 154.19 58.53 146.51 61.32 142.33 C 62.76 145.42 62.69 149.64 65.08 152.05 C 69.10 152.00 72.99 150.78 76.94 150.17 C 77.21 145.97 77.45 141.78 77.50 137.58 C 75.99 139.08 74.50 140.61 73.01 142.13 C 69.78 139.14 66.57 136.13 63.47 133.01 C 68.63 126.68 76.98 122.29 79.79 114.49 C 76.17 112.07 80.61 109.22 81.87 106.72 C 76.10 100.97 70.14 95.42 64.36 89.68 C 67.26 86.66 70.19 83.68 73.11 80.69 C 78.86 86.06 84.05 92.00 89.88 97.28 C 91.27 95.79 92.69 94.32 94.12 92.86 C 95.76 94.38 97.40 95.90 99.02 97.44 C 104.70 91.95 110.16 86.23 115.88 80.79 C 118.82 83.84 121.73 86.92 124.62 90.02 C 119.28 95.86 113.32 101.14 108.14 107.11 C 108.13 109.25 110.07 110.87 111.05 112.69 C 110.55 113.05 109.54 113.78 109.04 114.15 C 111.33 122.38 120.12 126.68 125.30 133.14 C 122.46 136.45 119.01 139.15 115.88 142.18 C 114.38 140.60 112.87 139.04 111.37 137.46 C 111.45 141.68 111.66 145.89 111.89 150.11 C 117.04 151.07 122.19 151.97 127.36 152.83 C 129.08 147.72 130.03 142.34 132.30 137.44 C 135.84 143.55 134.02 153.74 141.17 156.89 C 142.16 153.64 143.07 150.37 144.35 147.23 C 145.71 150.79 146.27 154.64 147.88 158.11 C 151.52 161.57 158.69 159.57 161.31 164.03 C 158.56 168.23 152.64 169.07 147.98 169.51 C 113.66 169.57 79.35 169.57 45.03 169.51 C 32.65 169.56 21.80 158.39 22.05 146.04 C 22.02 112.01 22.00 77.97 22.06 43.94 Z" />
<path fill="#43c3d9" opacity="1.00" d=" M 94.18 42.14 C 102.39 44.90 109.93 51.18 114.79 58.27 C 113.18 64.02 109.95 52.78 106.32 56.23 C 104.42 58.42 103.01 60.98 101.18 63.23 C 99.86 63.23 98.54 63.23 97.22 63.24 C 97.56 66.30 98.98 70.58 95.60 72.47 C 93.35 74.26 90.56 72.51 88.47 71.36 C 88.93 69.66 89.40 67.95 89.85 66.24 C 80.45 63.54 70.62 66.24 62.80 71.74 C 61.34 67.10 66.55 65.41 69.72 63.80 C 75.95 60.72 82.99 61.68 89.65 62.15 C 88.80 55.89 94.48 47.85 101.37 50.25 C 100.51 46.24 91.63 46.12 94.18 42.14 Z" />
</g>
</svg>
