<?xml version="1.0" encoding="UTF-8" ?>
<!DOCTYPE svg PUBLIC "-//W3C//DTD SVG 1.1//EN" "http://www.w3.org/Graphics/SVG/1.1/DTD/svg11.dtd">
<svg width="192pt" height="192pt" viewBox="0 0 192 192" version="1.1" xmlns="http://www.w3.org/2000/svg">
<g id="#41a8d8ff">
<path fill="#41a8d8" opacity="1.00" d=" M 40.29 21.31 C 75.77 19.96 111.43 21.10 146.98 20.72 C 159.58 20.16 171.02 31.35 170.86 43.93 C 170.97 72.62 170.87 101.31 170.93 130.00 C 170.98 137.06 171.54 144.21 170.30 151.20 C 168.14 161.80 157.87 169.87 147.07 169.58 C 113.03 169.57 78.99 169.62 44.95 169.53 C 32.59 169.53 21.79 158.39 22.02 146.06 C 21.97 112.02 22.01 77.97 22.06 43.93 C 21.99 33.37 29.99 23.52 40.29 21.31 M 42.28 32.37 C 36.81 33.79 32.84 39.28 33.26 44.94 C 33.29 78.65 33.24 112.36 33.29 146.07 C 33.08 152.79 39.27 158.75 45.99 158.30 C 79.66 158.29 113.34 158.29 147.01 158.26 C 153.69 158.65 159.74 152.74 159.62 146.08 C 159.68 112.02 159.72 77.97 159.62 43.92 C 159.67 36.88 152.89 31.28 146.02 31.88 C 111.45 32.20 76.78 31.13 42.28 32.37 Z" />
<path fill="#41a8d8" opacity="1.00" d=" M 53.45 82.19 C 53.66 73.62 66.22 73.58 71.04 77.87 C 73.32 84.85 72.26 92.60 71.65 99.82 C 69.78 99.55 67.92 99.25 66.08 98.83 C 62.07 99.88 55.92 101.12 53.66 96.54 C 53.12 93.46 52.38 89.37 54.95 87.00 C 58.25 84.69 62.53 85.71 66.28 85.48 C 66.29 83.85 66.30 82.22 66.30 80.59 C 64.47 80.21 62.65 79.82 60.81 79.46 C 60.21 80.84 59.61 82.22 59.03 83.61 C 57.13 83.33 55.01 83.50 53.45 82.19 M 59.89 89.70 C 59.46 90.79 59.03 91.88 58.60 92.98 C 58.93 93.56 59.60 94.73 59.94 95.31 C 61.80 95.36 63.65 95.39 65.51 95.43 C 65.88 93.49 66.23 91.55 66.55 89.60 C 64.33 89.62 62.11 89.64 59.89 89.70 Z" />
<path fill="#41a8d8" opacity="1.00" d=" M 82.55 76.44 C 86.61 75.03 92.91 74.13 95.32 78.65 C 96.10 84.49 96.03 90.55 95.38 96.40 C 93.09 101.22 86.38 100.15 82.30 98.48 C 82.02 101.41 83.50 105.13 81.20 107.43 C 79.74 107.17 76.49 108.26 76.48 105.91 C 76.37 96.32 76.31 86.70 76.51 77.11 C 76.74 74.05 80.62 76.47 82.55 76.44 M 82.57 80.43 C 82.33 85.16 82.32 89.90 82.54 94.64 C 84.87 94.67 88.39 96.50 89.74 93.74 C 90.89 89.39 90.16 84.74 89.53 80.33 C 87.21 80.29 84.89 80.33 82.57 80.43 Z" />
<path fill="#41a8d8" opacity="1.00" d=" M 105.85 76.50 C 110.07 74.99 116.95 73.99 118.98 79.16 C 120.01 84.34 119.64 89.76 119.29 95.00 C 118.26 101.29 110.15 100.27 105.72 98.62 C 105.76 101.56 105.75 104.50 105.69 107.43 C 103.64 107.14 99.67 108.35 99.83 105.07 C 99.77 95.72 99.50 86.33 99.98 77.00 C 100.72 74.12 103.89 76.39 105.85 76.50 M 106.39 80.31 C 105.82 84.95 104.93 89.94 106.52 94.46 C 108.58 95.92 111.15 94.81 113.42 94.58 C 113.63 89.88 113.62 85.17 113.38 80.48 C 111.05 80.35 108.72 80.29 106.39 80.31 Z" />
<path fill="#41a8d8" opacity="1.00" d=" M 126.06 76.09 C 131.84 74.06 142.15 74.79 140.70 83.32 C 139.01 83.36 137.32 83.40 135.63 83.43 C 135.09 82.13 134.57 80.82 134.07 79.51 C 130.86 79.07 127.97 80.50 128.32 84.14 C 132.22 85.35 136.66 85.47 140.09 87.86 C 142.09 91.25 142.11 97.25 138.10 99.18 C 132.28 100.72 122.54 100.80 123.06 92.37 C 124.93 92.27 126.81 92.20 128.68 92.12 C 129.03 93.23 129.38 94.34 129.73 95.45 C 131.60 95.41 133.47 95.36 135.34 95.32 C 135.39 93.80 135.43 92.28 135.44 90.76 C 131.59 89.61 127.32 89.33 123.91 87.05 C 122.82 83.60 122.04 77.96 126.06 76.09 Z" />
<path fill="#41a8d8" opacity="1.00" d=" M 122.37 108.27 C 126.80 104.51 132.78 104.98 138.18 105.46 C 138.92 111.27 136.48 117.26 131.97 120.97 C 132.95 116.83 134.47 112.80 134.81 108.52 C 130.67 108.08 126.52 108.33 122.37 108.27 Z" />
<path fill="#41a8d8" opacity="1.00" d=" M 55.21 106.42 C 72.10 115.51 91.75 120.42 110.87 116.78 C 118.00 115.90 124.53 112.74 131.45 111.05 C 130.49 112.83 129.22 114.45 127.43 115.45 C 105.16 129.07 72.97 126.10 55.21 106.42 Z" />
</g>
</svg>
