<?xml version="1.0" encoding="UTF-8" ?>
<!DOCTYPE svg PUBLIC "-//W3C//DTD SVG 1.1//EN" "http://www.w3.org/Graphics/SVG/1.1/DTD/svg11.dtd">
<svg width="192pt" height="192pt" viewBox="0 0 192 192" version="1.1" xmlns="http://www.w3.org/2000/svg">
<g id="#19b0ffff">
<path fill="#19b0ff" opacity="1.00" d=" M 21.13 37.92 C 21.10 28.54 29.69 20.44 39.02 20.71 C 72.02 20.79 105.04 20.40 138.02 20.89 C 149.34 22.07 151.96 34.91 150.54 44.26 C 160.20 43.26 169.61 51.12 169.79 60.92 C 169.95 93.30 169.86 125.69 169.87 158.07 C 170.23 164.57 164.54 170.65 157.99 170.53 C 138.72 170.53 119.43 170.68 100.17 170.44 C 93.45 170.19 93.24 159.14 100.01 158.73 C 119.27 158.40 138.56 158.66 157.83 158.59 C 157.89 126.37 157.86 94.15 157.86 61.93 C 158.25 59.08 156.02 56.15 153.02 56.40 C 114.06 56.35 75.08 56.28 36.12 56.42 C 33.54 56.13 32.83 58.92 33.07 60.95 C 33.11 92.65 33.01 124.36 33.12 156.07 C 32.70 158.43 35.22 158.72 36.93 158.61 C 49.05 158.57 61.18 158.66 73.30 158.54 C 78.78 150.96 84.46 143.54 89.97 135.99 C 80.18 126.25 77.43 110.24 83.99 97.99 C 90.24 85.36 105.29 77.94 119.11 80.83 C 132.43 83.19 143.51 94.64 145.36 108.05 C 147.41 120.57 141.19 133.82 130.39 140.41 C 121.20 146.34 109.15 146.90 99.22 142.46 C 92.09 151.72 85.57 161.58 78.03 170.45 C 63.70 170.66 49.35 170.51 35.02 170.51 C 27.40 170.65 20.70 163.67 21.06 156.07 C 21.07 116.69 21.02 77.30 21.13 37.92 M 37.41 32.67 C 30.61 32.91 30.59 44.13 37.41 44.34 C 71.12 44.54 104.84 44.33 138.55 44.40 C 137.85 40.65 140.93 32.70 134.99 32.60 C 102.47 32.64 69.93 32.44 37.41 32.67 M 106.38 92.55 C 98.41 95.08 92.34 102.66 91.70 111.01 C 90.81 120.20 96.65 129.53 105.32 132.73 C 114.31 136.37 125.46 132.86 130.75 124.75 C 136.16 117.07 135.50 105.83 129.17 98.87 C 123.74 92.45 114.35 89.81 106.38 92.55 Z" />
<path fill="#19b0ff" opacity="1.00" d=" M 65.28 73.32 C 66.29 72.06 67.32 69.08 69.38 70.51 C 72.19 74.34 74.78 78.55 79.00 81.03 C 80.29 82.19 82.83 82.86 82.57 85.00 C 79.57 87.85 75.56 89.61 73.16 93.11 C 71.29 95.18 70.45 98.60 67.33 99.12 C 64.51 93.96 60.51 89.53 55.53 86.39 C 54.22 85.92 53.82 83.93 55.10 83.20 C 59.02 80.50 62.90 77.55 65.28 73.32 Z" />
<path fill="#19b0ff" opacity="1.00" d=" M 52.45 102.60 C 55.25 106.01 58.66 109.08 61.71 112.01 C 58.86 115.12 54.91 117.67 52.87 121.69 C 50.30 118.04 46.81 115.15 43.84 111.99 C 47.07 109.20 50.39 106.44 52.45 102.60 Z" />
</g>
</svg>
