<?xml version="1.0" encoding="UTF-8" ?>
<!DOCTYPE svg PUBLIC "-//W3C//DTD SVG 1.1//EN" "http://www.w3.org/Graphics/SVG/1.1/DTD/svg11.dtd">
<svg width="192pt" height="192pt" viewBox="0 0 192 192" version="1.1" xmlns="http://www.w3.org/2000/svg">
<g id="#ec8738ff">
<path fill="#ec8738" opacity="1.00" d=" M 38.33 21.42 C 41.49 20.68 44.76 20.71 47.99 20.71 C 80.99 20.80 113.99 20.64 146.99 20.78 C 159.26 20.78 170.11 31.72 170.10 43.98 C 170.23 78.32 170.21 112.66 170.16 147.01 C 170.43 159.47 159.50 170.82 146.98 170.74 C 112.33 170.78 77.67 170.78 43.02 170.71 C 30.67 170.67 19.97 159.30 20.15 147.06 C 20.12 112.68 20.11 78.30 20.17 43.93 C 20.16 33.43 28.12 23.69 38.33 21.42 M 31.38 44.94 C 31.38 78.65 31.40 112.35 31.38 146.06 C 31.25 149.07 32.32 151.91 33.46 154.64 C 49.15 123.21 62.81 90.72 78.07 59.05 C 83.69 48.90 97.30 44.39 107.87 49.19 C 124.86 56.84 141.81 64.59 158.79 72.28 C 158.78 62.83 158.90 53.37 158.76 43.91 C 158.73 37.35 152.60 31.71 146.06 32.12 C 112.02 32.12 77.97 32.11 43.93 32.12 C 37.03 31.70 30.95 38.12 31.38 44.94 M 87.15 66.08 C 72.78 97.16 58.55 128.31 44.19 159.40 C 78.15 159.47 112.10 159.40 146.06 159.41 C 152.79 159.77 158.94 153.82 158.77 147.08 C 158.78 126.27 158.90 105.46 158.70 84.65 C 140.24 76.39 121.89 67.86 103.43 59.61 C 97.40 56.79 89.63 59.94 87.15 66.08 Z" />
<path fill="#ec8738" opacity="1.00" d=" M 101.13 84.70 C 107.35 73.80 128.53 80.20 126.56 92.85 C 124.66 100.67 118.25 107.41 119.68 115.91 C 117.21 116.56 114.74 117.25 112.26 117.85 C 111.60 115.95 110.91 114.07 110.29 112.16 C 104.63 113.18 97.46 113.56 93.99 107.98 C 91.72 102.50 94.05 95.25 99.81 92.99 C 105.59 90.84 111.43 93.90 117.12 94.83 C 117.60 92.78 118.13 90.74 118.65 88.70 C 115.72 84.93 110.72 84.75 107.63 88.41 C 105.45 87.19 103.28 85.96 101.13 84.70 M 102.22 106.47 C 107.65 111.49 113.82 104.58 114.09 98.92 C 108.30 95.66 100.69 99.27 102.22 106.47 Z" />
<path fill="#ec8738" opacity="1.00" d=" M 82.75 103.60 C 92.06 114.95 105.86 122.41 120.67 122.78 C 105.60 127.11 88.89 117.69 82.75 103.60 Z" />
<path fill="#ec8738" opacity="1.00" d=" M 117.30 119.03 C 120.49 118.94 123.56 119.85 126.10 121.78 C 124.37 124.15 122.31 126.27 119.79 127.79 C 121.11 125.80 122.50 123.86 123.83 121.88 C 121.64 120.95 119.45 120.04 117.30 119.03 Z" />
</g>
</svg>
