<?xml version="1.0" encoding="UTF-8" ?>
<!DOCTYPE svg PUBLIC "-//W3C//DTD SVG 1.1//EN" "http://www.w3.org/Graphics/SVG/1.1/DTD/svg11.dtd">
<svg width="192pt" height="192pt" viewBox="0 0 192 192" version="1.1" xmlns="http://www.w3.org/2000/svg">
<g id="#607080ff">
<path fill="#607080" opacity="1.00" d=" M 54.38 23.59 C 50.62 18.68 58.09 11.95 62.60 16.31 C 74.03 27.32 85.12 38.69 96.37 49.89 C 107.61 38.94 118.52 27.66 129.75 16.70 C 132.51 13.56 138.21 14.93 139.23 18.99 C 140.50 22.45 137.42 25.08 135.26 27.26 C 124.24 37.92 113.87 49.25 102.27 59.29 C 99.19 62.00 95.20 63.72 91.05 63.57 C 73.04 63.59 55.02 63.56 37.00 63.57 C 31.94 63.29 27.14 67.80 27.42 72.93 C 27.38 100.29 27.40 127.66 27.41 155.02 C 27.22 160.10 31.96 164.56 37.00 164.25 C 76.66 164.26 116.33 164.29 155.99 164.21 C 161.03 164.50 165.62 160.06 165.52 155.03 C 165.58 127.68 165.58 100.32 165.52 72.98 C 165.70 68.21 161.59 63.79 156.83 63.63 C 145.90 63.32 134.93 63.96 124.02 63.33 C 118.68 62.00 118.85 53.40 124.33 52.46 C 135.23 52.03 146.17 52.32 157.08 52.31 C 167.81 52.43 177.22 62.23 176.85 72.97 C 176.88 100.33 176.89 127.68 176.85 155.04 C 177.19 166.15 167.06 176.01 155.99 175.58 C 116.00 175.57 76.02 175.62 36.03 175.54 C 25.27 175.52 15.81 165.79 16.06 155.05 C 16.02 127.69 16.04 100.33 16.06 72.97 C 15.73 62.53 24.53 52.92 34.95 52.37 C 50.79 52.08 66.64 52.48 82.48 52.17 C 73.36 42.41 63.35 33.48 54.38 23.59 Z" />
<path fill="#607080" opacity="1.00" d=" M 128.57 104.12 C 131.23 97.54 142.12 97.86 147.96 100.04 C 150.21 106.67 146.40 115.86 139.98 119.07 C 140.05 113.91 143.76 109.44 142.82 104.16 C 138.13 102.93 133.30 103.91 128.57 104.12 Z" />
<path fill="#607080" opacity="1.00" d=" M 42.71 100.71 C 44.92 101.15 47.00 102.05 48.95 103.16 C 75.55 117.18 108.30 118.65 136.02 106.93 C 138.61 105.12 141.08 108.90 138.22 110.27 C 110.12 129.99 68.70 126.73 43.62 103.41 C 43.40 102.73 42.94 101.38 42.71 100.71 Z" />
</g>
</svg>
