<?xml version="1.0" encoding="UTF-8" ?>
<!DOCTYPE svg PUBLIC "-//W3C//DTD SVG 1.1//EN" "http://www.w3.org/Graphics/SVG/1.1/DTD/svg11.dtd">
<svg width="192pt" height="192pt" viewBox="0 0 192 192" version="1.1" xmlns="http://www.w3.org/2000/svg">
<g id="#2fd1b6ff">
<path fill="#2fd1b6" opacity="1.00" d=" M 37.43 21.65 C 72.29 21.00 107.19 21.54 142.06 21.38 C 154.32 20.97 165.60 31.62 165.69 43.92 C 165.69 52.23 165.99 60.57 165.54 68.86 C 164.65 74.34 155.90 74.41 154.88 68.95 C 154.25 60.37 155.06 51.73 154.51 43.15 C 153.89 37.07 148.11 32.27 142.06 32.47 C 108.35 32.48 74.64 32.43 40.94 32.50 C 34.27 32.32 28.23 38.28 28.55 45.00 C 28.53 78.67 28.54 112.33 28.54 146.00 C 28.34 151.30 31.94 156.41 37.01 157.97 C 41.52 159.29 46.32 157.89 50.86 158.95 C 55.38 160.38 55.60 167.41 51.23 169.19 C 47.24 170.08 43.07 169.57 39.01 169.55 C 27.50 168.99 17.57 158.58 17.49 147.06 C 17.42 113.02 17.48 78.98 17.46 44.94 C 17.14 33.63 26.22 23.06 37.43 21.65 Z" />
<path fill="#2fd1b6" opacity="1.00" d=" M 105.97 77.03 C 107.69 71.89 113.35 69.60 118.36 69.51 C 123.68 69.87 123.70 75.93 125.40 79.69 C 126.63 82.78 123.81 85.36 122.44 87.85 C 129.95 86.57 136.22 91.02 142.98 93.12 C 148.75 91.61 155.57 90.52 159.41 85.49 C 160.59 85.24 161.79 85.04 163.00 84.89 C 163.32 86.48 164.92 88.81 162.94 89.92 C 158.74 92.43 154.56 94.96 150.46 97.63 C 145.24 100.96 138.75 99.95 133.25 97.97 C 133.83 100.92 132.69 103.57 131.40 106.13 C 130.76 110.22 131.09 114.41 130.47 118.51 C 136.81 122.31 142.53 127.04 147.74 132.28 C 156.64 140.71 155.69 155.05 164.43 163.55 C 166.87 166.34 172.33 165.39 173.40 169.12 C 169.19 170.96 164.39 169.94 159.93 170.08 C 155.46 170.44 157.97 164.64 155.51 162.50 C 150.28 156.59 144.96 150.46 143.70 142.40 C 137.27 139.31 130.55 136.76 124.05 133.79 C 115.21 144.87 101.43 149.79 88.16 153.17 C 82.18 155.07 75.43 156.23 70.75 160.71 C 68.35 163.61 71.37 166.81 72.85 169.31 C 66.54 172.66 63.16 164.77 62.18 159.89 C 61.47 157.38 64.32 156.64 66.08 156.01 C 73.40 153.64 77.83 146.30 85.33 144.27 C 94.48 143.13 99.57 134.60 106.51 129.51 C 111.85 125.92 107.54 118.86 111.35 114.36 C 114.15 110.96 114.24 106.40 111.80 102.78 C 102.85 106.45 94.94 112.49 85.71 115.74 C 80.43 117.24 75.21 123.78 69.68 119.49 C 70.67 118.19 71.63 116.88 72.48 115.50 C 87.30 112.84 98.08 101.11 109.20 91.92 C 102.10 90.80 101.98 81.49 105.97 77.03 Z" />
</g>
</svg>
