<?xml version="1.0" encoding="UTF-8" ?>
<!DOCTYPE svg PUBLIC "-//W3C//DTD SVG 1.1//EN" "http://www.w3.org/Graphics/SVG/1.1/DTD/svg11.dtd">
<svg width="192pt" height="192pt" viewBox="0 0 192 192" version="1.1" xmlns="http://www.w3.org/2000/svg">
<g id="#ff3661ff">
<path fill="#ff3661" opacity="1.00" d=" M 62.09 18.98 C 81.03 13.22 101.52 13.16 120.81 17.31 C 131.69 19.56 142.39 24.78 149.26 33.74 C 155.71 42.01 158.29 52.67 158.25 63.01 C 158.32 87.68 158.33 112.35 158.42 137.01 C 158.55 140.84 158.48 144.76 159.64 148.45 C 161.28 150.73 164.37 151.81 165.35 154.61 C 167.45 159.70 165.20 167.38 158.92 167.80 C 148.65 168.56 138.31 167.88 128.00 168.16 C 124.79 168.05 120.59 168.63 118.58 165.46 C 116.12 162.14 118.76 156.72 122.95 156.81 C 132.35 156.61 141.77 156.70 151.18 156.64 C 147.95 151.74 147.29 145.78 147.18 140.04 C 146.87 114.69 147.01 89.34 146.93 63.99 C 146.99 56.29 145.66 48.27 141.15 41.85 C 136.42 34.80 128.42 30.72 120.35 28.77 C 102.70 24.54 83.89 24.43 66.38 29.39 C 52.46 33.43 40.68 45.56 39.59 60.41 C 48.12 60.42 56.65 60.36 65.18 60.47 C 67.09 54.62 71.01 49.16 76.92 46.88 C 87.92 42.64 100.41 43.69 111.29 47.81 C 120.97 51.53 123.51 65.10 118.34 73.34 C 113.10 80.84 103.20 81.61 94.91 82.80 C 79.77 85.34 63.49 85.83 50.03 94.03 C 35.02 103.53 31.97 124.45 37.75 140.17 C 42.50 153.27 56.97 159.44 69.91 160.80 C 85.59 162.03 100.72 154.45 111.80 143.77 C 114.64 140.29 120.93 141.67 121.72 146.19 C 122.64 150.00 119.04 152.46 116.58 154.65 C 102.22 167.39 82.18 175.08 62.95 171.17 C 49.53 168.35 35.72 161.45 29.26 148.73 C 18.62 127.74 23.01 97.92 43.73 84.70 C 62.14 73.00 84.92 74.41 105.40 69.37 C 110.29 68.45 110.65 62.23 108.14 58.86 C 99.88 55.05 89.91 54.16 81.27 57.26 C 75.55 59.34 76.91 67.13 72.04 70.06 C 68.79 72.24 64.69 71.56 61.00 71.67 C 52.71 71.42 44.42 71.85 36.15 71.56 C 31.35 71.42 27.91 66.63 28.37 62.04 C 28.25 42.09 43.58 24.77 62.09 18.98 Z" />
<path fill="#ff3661" opacity="1.00" d=" M 112.34 91.36 C 116.16 90.04 120.48 93.15 120.64 97.13 C 121.00 107.57 121.48 118.79 116.25 128.24 C 110.47 138.59 98.41 143.66 87.07 144.67 C 78.94 145.52 70.01 142.73 65.14 135.87 C 57.24 124.65 61.62 106.80 74.58 101.46 C 86.72 96.54 100.48 97.32 112.34 91.36 M 86.38 109.54 C 81.80 110.40 76.66 111.91 74.17 116.21 C 70.87 121.72 72.33 130.79 79.16 132.77 C 86.89 134.76 95.44 132.37 101.86 127.84 C 109.03 122.50 109.68 112.77 109.50 104.58 C 102.00 107.12 94.15 108.23 86.38 109.54 Z" />
</g>
</svg>
