<?xml version="1.0" encoding="UTF-8" ?>
<!DOCTYPE svg PUBLIC "-//W3C//DTD SVG 1.1//EN" "http://www.w3.org/Graphics/SVG/1.1/DTD/svg11.dtd">
<svg width="192pt" height="192pt" viewBox="0 0 192 192" version="1.1" xmlns="http://www.w3.org/2000/svg">
<g id="#1ab1ffff">
<path fill="#1ab1ff" opacity="1.00" d=" M 37.33 19.38 C 41.10 18.19 45.10 18.34 49.00 18.34 C 81.32 18.39 113.65 18.29 145.97 18.36 C 157.71 18.25 168.42 28.22 169.04 39.95 C 169.21 46.29 169.34 52.65 168.99 58.98 C 168.29 64.37 159.90 64.92 158.37 59.75 C 157.34 53.21 158.44 46.53 157.81 39.95 C 157.12 34.23 151.75 29.53 145.99 29.56 C 112.00 29.51 78.00 29.52 44.01 29.53 C 37.79 29.40 32.15 34.77 31.83 40.95 C 31.51 58.25 32.07 75.58 31.58 92.87 C 30.70 98.97 20.76 98.20 20.75 92.05 C 20.57 75.38 20.72 58.69 20.69 42.02 C 20.50 31.88 27.60 22.22 37.33 19.38 Z" />
<path fill="#1ab1ff" opacity="1.00" d=" M 106.03 66.04 C 120.58 58.77 137.98 57.69 153.46 62.45 C 153.70 62.87 154.18 63.69 154.41 64.11 C 138.11 59.37 120.17 61.49 105.58 70.24 C 116.56 77.79 131.68 86.50 144.40 77.57 C 138.88 85.09 127.72 85.54 119.61 82.38 C 113.02 80.23 107.49 75.76 101.00 73.45 C 94.27 77.03 88.47 82.11 82.40 86.69 C 79.52 89.31 75.53 91.04 73.39 94.27 C 72.85 104.75 73.60 115.28 73.00 125.76 C 69.37 125.93 65.72 125.92 62.09 125.77 C 61.52 117.72 62.06 109.65 61.73 101.59 C 55.02 105.36 47.89 108.18 40.60 110.55 C 36.96 115.13 35.02 120.84 31.39 125.43 C 27.62 126.25 23.69 125.71 19.87 125.63 C 22.25 120.64 25.53 116.16 27.95 111.20 C 23.21 109.45 16.75 108.80 14.46 103.59 C 19.61 106.25 25.03 109.00 31.02 108.41 C 44.30 107.57 56.21 100.40 66.63 92.63 C 65.05 93.37 63.50 94.16 61.94 94.94 C 61.77 87.87 61.91 80.79 61.75 73.72 C 56.22 82.93 50.90 92.27 45.54 101.58 C 43.09 107.36 35.73 107.06 30.48 107.70 C 37.96 94.27 46.10 81.20 53.93 67.97 C 57.95 61.40 66.69 64.62 72.97 64.18 C 73.39 72.12 73.18 80.10 73.09 88.06 C 80.83 82.03 88.70 76.18 96.87 70.75 C 90.23 66.70 81.78 64.81 74.73 69.01 C 80.65 61.87 91.27 63.69 98.67 67.28 C 101.15 68.95 103.73 67.10 106.03 66.04 Z" />
<path fill="#1ab1ff" opacity="1.00" d=" M 165.28 69.25 C 168.54 68.92 171.82 68.93 175.09 69.20 C 172.30 86.89 168.39 104.41 165.20 122.04 C 165.23 127.86 158.09 125.72 154.39 125.38 C 157.98 106.66 161.41 87.91 165.28 69.25 Z" />
<path fill="#1ab1ff" opacity="1.00" d=" M 151.34 74.49 C 154.56 73.19 158.90 75.34 158.90 79.05 C 159.43 84.00 152.76 86.97 149.14 83.88 C 146.08 81.19 147.40 75.54 151.34 74.49 Z" />
<path fill="#1ab1ff" opacity="1.00" d=" M 90.26 93.21 C 95.81 85.32 110.89 82.38 114.74 93.30 C 119.27 87.54 127.59 83.94 134.55 87.45 C 139.72 90.27 139.83 96.92 139.04 102.03 C 137.76 109.94 136.34 117.84 134.59 125.65 C 131.45 125.89 128.29 125.90 125.14 125.68 C 125.97 117.36 128.51 109.30 129.20 100.97 C 129.48 98.17 128.19 94.39 124.89 94.28 C 119.71 94.13 116.19 99.08 114.47 103.41 C 112.08 110.64 111.67 118.35 109.74 125.71 C 106.58 126.23 103.37 126.20 100.22 125.63 C 101.26 116.70 104.32 108.00 104.41 98.98 C 104.31 93.58 97.44 93.12 94.45 96.50 C 86.51 104.04 87.85 115.99 84.96 125.74 C 81.82 125.90 78.68 125.91 75.54 125.88 C 77.29 112.74 80.50 99.82 82.40 86.69 C 85.21 87.04 88.03 87.15 90.86 87.28 C 90.69 89.26 90.49 91.23 90.26 93.21 Z" />
<path fill="#1ab1ff" opacity="1.00" d=" M 147.04 87.23 C 150.28 86.86 153.56 86.72 156.78 87.35 C 154.61 100.13 152.13 112.88 149.47 125.56 C 146.27 125.89 143.05 125.92 139.85 125.76 C 141.44 112.82 144.28 99.98 147.04 87.23 Z" />
<path fill="#1ab1ff" opacity="1.00" d=" M 161.21 130.16 C 164.58 128.40 169.20 131.10 169.10 134.95 C 169.22 141.48 169.84 148.49 166.57 154.43 C 162.62 162.41 153.84 167.47 144.98 167.23 C 111.66 167.25 78.34 167.25 45.02 167.23 C 29.32 168.28 16.55 151.23 21.57 136.52 C 23.64 132.98 29.37 133.28 31.14 136.95 C 32.34 140.11 31.34 143.64 32.24 146.89 C 33.61 152.46 39.26 156.38 44.95 156.01 C 78.66 155.96 112.38 156.07 146.09 155.95 C 152.74 155.91 158.47 149.68 157.97 143.05 C 158.37 138.76 156.43 132.61 161.21 130.16 Z" />
</g>
</svg>
