<?xml version="1.0" encoding="UTF-8" ?>
<!DOCTYPE svg PUBLIC "-//W3C//DTD SVG 1.1//EN" "http://www.w3.org/Graphics/SVG/1.1/DTD/svg11.dtd">
<svg width="192pt" height="192pt" viewBox="0 0 192 192" version="1.1" xmlns="http://www.w3.org/2000/svg">
<g id="#1bb4ffff">
<path fill="#1bb4ff" opacity="1.00" d=" M 82.34 14.41 C 114.16 8.85 148.20 24.45 164.91 52.05 C 177.71 72.35 180.72 98.40 173.08 121.13 C 163.77 150.03 137.15 172.38 107.02 176.35 C 76.00 181.23 43.10 166.16 26.44 139.57 C 8.66 112.66 9.25 75.20 27.87 48.86 C 40.35 30.61 60.47 17.78 82.34 14.41 M 84.35 25.43 C 59.16 29.08 36.97 47.65 28.65 71.66 C 20.83 93.44 24.57 118.98 38.58 137.44 C 57.47 163.78 95.36 173.55 124.63 159.60 C 154.69 146.48 172.31 110.83 164.10 78.99 C 156.65 44.00 119.62 19.00 84.35 25.43 Z" />
<path fill="#1bb4ff" opacity="1.00" d=" M 117.36 42.48 C 125.28 40.12 133.47 44.49 138.48 50.50 C 149.75 63.95 155.27 81.59 155.76 98.99 C 156.01 109.63 154.08 120.88 147.56 129.57 C 143.87 134.66 137.20 137.43 131.02 135.98 C 122.80 134.13 116.67 127.52 112.47 120.57 C 103.14 104.73 99.68 85.74 101.30 67.54 C 102.48 57.57 106.90 45.79 117.36 42.48 M 120.32 53.35 C 114.89 56.04 113.37 62.89 112.47 68.38 C 111.09 83.84 113.81 99.96 121.42 113.59 C 124.14 118.30 127.73 123.21 133.13 124.92 C 139.19 125.77 141.26 118.28 142.88 113.80 C 147.11 95.76 142.76 75.92 132.27 60.74 C 129.51 56.97 125.56 52.20 120.32 53.35 Z" />
<path fill="#1bb4ff" opacity="1.00" d=" M 124.29 76.25 C 135.15 76.18 138.39 93.57 131.09 100.00 C 126.04 102.93 122.63 96.50 121.51 92.47 C 120.17 87.32 119.03 79.52 124.29 76.25 Z" />
</g>
</svg>
