<?xml version="1.0" encoding="UTF-8" ?>
<!DOCTYPE svg PUBLIC "-//W3C//DTD SVG 1.1//EN" "http://www.w3.org/Graphics/SVG/1.1/DTD/svg11.dtd">
<svg width="192pt" height="192pt" viewBox="0 0 192 192" version="1.1" xmlns="http://www.w3.org/2000/svg">
<g id="#2cbfd2ff">
<path fill="#2cbfd2" opacity="1.00" d=" M 35.48 37.64 C 33.66 33.97 36.89 29.26 40.98 29.75 C 78.33 29.80 115.68 29.59 153.02 29.85 C 159.01 30.55 158.98 40.21 152.97 40.86 C 135.86 41.51 118.68 40.89 101.54 41.16 C 101.60 67.73 101.62 94.30 101.54 120.86 C 102.72 120.90 103.90 120.95 105.08 121.01 C 105.26 114.37 104.85 107.72 105.29 101.10 C 105.70 96.26 110.23 92.52 115.02 92.70 C 132.68 92.65 150.34 92.61 167.99 92.71 C 173.06 92.60 177.47 96.94 177.57 101.97 C 177.64 106.83 178.04 111.75 177.39 116.58 C 176.03 121.28 168.64 121.61 166.91 117.00 C 165.77 112.83 166.66 108.39 166.35 104.12 C 149.70 104.14 133.05 104.09 116.40 104.14 C 116.38 119.09 116.40 134.04 116.39 148.99 C 128.22 149.33 140.07 149.26 151.91 149.18 C 156.08 144.91 160.65 141.07 164.96 136.96 C 168.13 134.26 164.77 128.96 168.58 126.53 C 172.44 123.23 178.54 127.10 177.78 131.97 C 178.98 139.89 172.78 145.73 167.22 150.23 C 162.41 153.97 158.75 160.47 151.97 160.51 C 139.66 160.63 127.34 160.48 115.02 160.46 C 110.48 160.57 106.05 157.30 105.39 152.70 C 104.65 145.94 105.49 139.10 104.90 132.33 C 98.90 132.38 92.91 132.43 86.91 132.30 C 86.37 139.07 87.17 145.88 86.51 152.64 C 85.88 157.21 81.50 160.51 76.99 160.46 C 64.67 160.46 52.34 160.59 40.03 160.51 C 32.99 160.45 29.21 153.65 24.21 149.79 C 18.74 145.44 12.99 139.58 14.13 131.92 C 13.34 127.02 19.56 123.22 23.36 126.61 C 27.09 129.08 23.75 134.39 26.98 137.04 C 31.29 141.15 35.85 145.02 40.07 149.23 C 51.90 149.22 63.76 149.43 75.58 148.98 C 75.43 134.04 75.56 119.09 75.51 104.15 C 58.83 103.87 42.11 103.54 25.45 104.19 C 25.11 108.63 26.36 113.44 24.63 117.63 C 22.35 121.98 15.10 120.71 14.38 115.88 C 14.20 110.74 13.97 105.52 14.57 100.40 C 15.27 95.92 19.55 92.63 24.01 92.71 C 41.67 92.64 59.33 92.64 76.99 92.71 C 81.73 92.60 86.17 96.36 86.58 101.12 C 86.97 107.71 86.62 114.32 86.75 120.92 C 87.63 120.93 89.39 120.97 90.27 120.98 C 90.28 94.37 90.32 67.75 90.26 41.13 C 74.50 41.11 58.74 41.12 42.99 41.13 C 40.15 41.21 36.65 40.64 35.48 37.64 Z" />
</g>
</svg>
