<?xml version="1.0" encoding="UTF-8" ?>
<!DOCTYPE svg PUBLIC "-//W3C//DTD SVG 1.1//EN" "http://www.w3.org/Graphics/SVG/1.1/DTD/svg11.dtd">
<svg width="192pt" height="192pt" viewBox="0 0 192 192" version="1.1" xmlns="http://www.w3.org/2000/svg">
<g id="#d1bb3aff">
<path fill="#d1bb3a" opacity="1.00" d=" M 84.34 14.47 C 89.78 13.15 95.45 13.88 100.99 13.74 C 108.30 13.50 115.27 18.48 117.61 25.36 C 119.26 29.65 117.94 34.38 119.31 38.71 C 121.17 44.28 127.62 47.75 133.29 46.25 C 136.70 45.27 139.51 42.93 142.85 41.78 C 149.93 39.32 158.49 42.10 162.60 48.42 C 165.11 52.30 167.37 56.34 169.59 60.39 C 173.00 66.63 171.98 74.92 167.09 80.10 C 164.23 83.40 159.77 84.65 156.79 87.80 C 152.77 92.18 152.94 99.64 157.15 103.84 C 159.95 106.50 163.78 107.75 166.50 110.50 C 171.60 115.42 173.11 123.63 170.01 130.02 C 167.93 134.15 165.50 138.09 163.15 142.07 C 159.38 148.41 151.25 151.77 144.11 149.84 C 139.48 148.75 135.89 144.86 131.01 144.64 C 124.74 144.30 118.71 149.62 118.71 155.99 C 118.79 161.39 118.34 167.29 114.43 171.45 C 108.05 179.41 96.98 177.51 88.02 177.45 C 78.34 176.99 70.96 167.44 71.99 157.98 C 72.76 151.46 67.60 145.09 61.02 144.65 C 56.47 144.11 52.84 147.32 48.91 148.99 C 41.48 152.40 31.93 149.28 27.71 142.35 C 25.30 138.39 22.91 134.40 20.77 130.29 C 17.14 123.14 19.44 113.61 25.99 108.96 C 29.62 106.38 34.42 104.58 35.98 99.99 C 38.45 94.10 35.27 87.08 29.54 84.54 C 22.08 81.11 17.42 72.46 19.53 64.38 C 21.17 58.94 24.68 54.32 27.38 49.38 C 31.47 42.13 41.23 38.81 48.84 42.23 C 53.02 44.10 57.07 47.49 61.97 46.45 C 68.30 45.58 72.75 39.26 72.03 33.00 C 71.31 24.93 76.44 16.70 84.34 14.47 M 87.29 25.42 C 81.65 27.51 84.03 34.49 82.94 39.00 C 80.89 52.59 65.16 61.52 52.39 56.58 C 47.91 55.22 43.20 49.84 38.49 53.53 C 35.25 57.75 32.51 62.51 30.46 67.41 C 29.45 73.09 36.06 74.70 39.47 77.56 C 50.62 85.86 50.99 104.45 40.10 113.13 C 36.75 116.40 29.67 117.69 30.43 123.59 C 32.35 128.57 35.19 133.34 38.42 137.58 C 43.15 141.52 47.99 135.85 52.58 134.58 C 65.58 129.58 81.42 139.19 83.08 152.98 C 83.85 157.30 81.95 163.73 87.23 165.77 C 92.64 166.38 98.31 166.54 103.69 165.64 C 108.83 163.28 106.63 156.83 107.63 152.43 C 109.59 138.74 125.49 129.52 138.34 134.67 C 142.72 135.97 147.19 141.20 151.85 137.84 C 155.33 133.78 157.90 128.84 160.08 123.98 C 161.31 117.93 154.11 116.52 150.68 113.33 C 139.55 104.58 139.92 85.60 151.42 77.31 C 154.89 74.56 161.57 72.75 160.03 67.01 C 157.70 62.23 155.33 57.17 151.66 53.28 C 147.07 50.21 142.73 55.22 138.46 56.50 C 125.98 61.48 110.53 53.16 107.88 39.99 C 106.38 35.23 109.23 28.13 103.59 25.53 C 98.24 24.78 92.67 24.95 87.29 25.42 Z" />
<path fill="#d1bb3a" opacity="1.00" d=" M 88.33 67.46 C 104.53 62.86 122.49 75.33 124.18 92.00 C 126.91 109.14 111.33 125.99 94.03 124.61 C 76.79 124.41 62.88 106.52 66.85 89.74 C 69.06 79.04 77.65 69.95 88.33 67.46 M 90.32 78.43 C 82.48 80.61 76.71 88.63 77.45 96.80 C 77.83 106.16 86.62 114.09 95.98 113.47 C 106.24 113.38 114.83 103.09 113.01 92.98 C 111.76 82.66 100.26 75.10 90.32 78.43 Z" />
</g>
</svg>
