<?xml version="1.0" encoding="UTF-8" ?>
<!DOCTYPE svg PUBLIC "-//W3C//DTD SVG 1.1//EN" "http://www.w3.org/Graphics/SVG/1.1/DTD/svg11.dtd">
<svg width="192pt" height="192pt" viewBox="0 0 192 192" version="1.1" xmlns="http://www.w3.org/2000/svg">
<g id="#1bb2ffff">
<path fill="#1bb2ff" opacity="1.00" d=" M 84.00 21.03 C 90.44 15.74 100.51 15.75 106.88 21.14 C 126.50 36.85 146.11 52.56 165.72 68.28 C 171.77 72.94 174.36 81.51 171.79 88.73 C 163.84 112.46 155.84 136.18 147.97 159.93 C 145.73 167.20 138.57 172.52 130.96 172.51 C 123.65 172.57 116.34 172.60 109.04 172.50 C 104.08 172.57 99.79 167.97 100.00 163.07 C 99.88 151.30 100.18 139.52 99.84 127.76 C 96.83 127.43 93.80 127.54 90.78 127.68 C 90.52 139.80 90.86 151.92 90.63 164.04 C 90.43 168.88 85.78 172.86 80.98 172.53 C 73.67 172.53 66.35 172.62 59.04 172.47 C 51.49 172.18 44.63 166.65 42.57 159.41 C 34.75 135.59 26.67 111.85 18.99 87.98 C 16.68 80.94 19.16 72.68 25.00 68.10 C 44.66 52.41 64.32 36.71 84.00 21.03 M 90.34 30.33 C 71.05 45.71 51.77 61.13 32.46 76.49 C 29.74 78.37 28.64 82.01 29.83 85.09 C 37.48 108.73 45.45 132.27 53.24 155.87 C 54.02 158.88 56.80 161.30 59.99 161.22 C 67.09 161.33 74.20 161.24 81.31 161.23 C 81.41 140.82 81.24 120.41 81.42 100.00 C 81.22 98.54 81.81 96.69 80.71 95.52 C 73.87 94.25 66.72 94.28 60.08 92.04 C 55.65 89.68 57.86 82.03 62.95 82.71 C 83.74 86.34 105.19 86.67 125.99 82.93 C 131.48 81.43 134.47 89.97 129.42 92.35 C 122.95 94.25 116.13 94.47 109.50 95.57 C 109.12 117.37 109.57 139.18 109.35 160.98 C 116.21 161.55 123.12 161.12 130.00 161.23 C 133.20 161.50 136.37 159.42 137.27 156.31 C 145.07 132.81 152.99 109.33 160.86 85.85 C 162.33 82.62 161.20 78.72 158.25 76.76 C 138.85 61.17 119.43 45.57 99.99 30.03 C 97.28 27.57 92.94 27.85 90.34 30.33 Z" />
<path fill="#1bb2ff" opacity="1.00" d=" M 93.37 61.44 C 100.63 59.51 107.25 68.15 103.69 74.70 C 101.13 80.68 92.24 81.90 88.21 76.78 C 83.60 71.76 86.73 62.72 93.37 61.44 Z" />
</g>
</svg>
