<?xml version="1.0" encoding="UTF-8" ?>
<!DOCTYPE svg PUBLIC "-//W3C//DTD SVG 1.1//EN" "http://www.w3.org/Graphics/SVG/1.1/DTD/svg11.dtd">
<svg width="192pt" height="192pt" viewBox="0 0 192 192" version="1.1" xmlns="http://www.w3.org/2000/svg">
<g id="#1ab0ffff">
<path fill="#1ab0ff" opacity="1.00" d=" M 31.26 21.28 C 36.01 20.11 41.15 20.76 46.02 20.87 C 51.32 21.80 51.85 30.08 46.68 31.58 C 41.91 32.07 37.04 31.88 32.25 31.69 C 27.35 30.77 26.61 23.12 31.26 21.28 Z" />
<path fill="#1ab0ff" opacity="1.00" d=" M 59.30 21.31 C 64.02 20.08 69.15 20.78 74.01 20.85 C 79.47 21.61 80.04 30.17 74.72 31.61 C 69.93 32.05 65.04 31.93 60.24 31.68 C 55.48 30.61 54.79 23.22 59.30 21.31 Z" />
<path fill="#1ab0ff" opacity="1.00" d=" M 88.35 21.36 C 93.04 19.98 98.16 20.89 103.02 20.78 C 108.68 21.40 109.30 30.33 103.76 31.66 C 98.96 32.00 94.06 32.02 89.27 31.64 C 84.66 30.44 84.02 23.36 88.35 21.36 Z" />
<path fill="#1ab0ff" opacity="1.00" d=" M 116.31 21.32 C 122.37 20.93 134.80 17.54 135.58 26.65 C 134.44 34.64 124.45 31.16 118.95 31.86 C 113.21 32.39 111.12 23.61 116.31 21.32 Z" />
<path fill="#1ab0ff" opacity="1.00" d=" M 144.35 21.42 C 149.03 19.93 154.15 20.89 159.01 20.76 C 164.15 21.18 165.60 28.82 161.10 31.22 C 156.29 33.03 151.05 31.58 146.06 31.80 C 141.07 31.21 139.85 23.62 144.35 21.42 Z" />
<path fill="#1ab0ff" opacity="1.00" d=" M 56.98 47.98 C 64.09 42.30 74.99 42.25 82.21 47.76 C 89.51 53.16 92.59 63.98 88.16 72.11 C 106.63 90.54 125.47 108.61 144.07 126.92 C 146.59 129.36 150.04 132.03 149.29 136.02 C 148.83 141.42 141.54 144.20 137.64 140.41 C 125.37 128.68 113.22 116.81 100.93 105.12 C 96.21 108.13 92.47 113.27 88.19 117.16 C 93.29 126.65 88.42 139.43 78.73 143.76 C 66.16 150.40 49.01 140.43 49.31 126.04 C 48.38 111.70 65.15 100.83 77.97 107.19 C 82.30 103.19 86.36 98.89 90.53 94.72 C 86.46 90.44 82.27 86.24 78.00 82.17 C 67.94 86.90 54.64 81.83 50.75 71.30 C 47.37 63.26 50.08 53.29 56.98 47.98 M 67.29 53.41 C 58.92 55.29 56.54 67.54 63.65 72.38 C 69.36 77.32 78.69 73.06 79.92 65.98 C 81.70 58.88 74.46 51.36 67.29 53.41 M 67.24 116.32 C 60.38 118.11 58.00 127.92 63.40 132.61 C 67.93 137.59 76.81 134.99 78.57 128.69 C 81.26 122.05 74.15 113.87 67.24 116.32 Z" />
<path fill="#1ab0ff" opacity="1.00" d=" M 140.37 46.44 C 146.44 42.81 153.86 51.82 148.93 56.99 C 137.82 68.19 126.70 79.40 115.46 90.47 C 112.84 91.53 111.43 87.72 109.52 86.48 C 108.04 84.62 103.46 82.13 106.67 79.74 C 117.98 68.73 128.70 57.03 140.37 46.44 Z" />
<path fill="#1ab0ff" opacity="1.00" d=" M 32.34 158.45 C 37.06 158.24 41.90 157.96 46.57 158.60 C 51.85 160.06 51.44 168.53 46.00 169.43 C 41.34 169.55 36.63 169.73 31.98 169.32 C 26.71 167.87 26.92 159.46 32.34 158.45 Z" />
<path fill="#1ab0ff" opacity="1.00" d=" M 60.35 158.47 C 64.83 158.05 69.39 158.25 73.90 158.36 C 79.33 159.06 80.16 167.49 74.94 169.22 C 70.03 169.80 64.97 169.66 60.04 169.30 C 54.87 167.84 55.04 159.58 60.35 158.47 Z" />
<path fill="#1ab0ff" opacity="1.00" d=" M 89.38 158.51 C 94.08 158.07 98.95 158.07 103.65 158.50 C 109.01 159.72 108.95 168.24 103.58 169.37 C 98.89 169.66 94.13 169.70 89.46 169.34 C 84.17 168.16 84.06 159.75 89.38 158.51 Z" />
<path fill="#1ab0ff" opacity="1.00" d=" M 117.35 158.48 C 122.06 158.10 126.92 158.02 131.62 158.52 C 136.90 159.76 136.85 168.18 131.56 169.35 C 126.88 169.71 122.12 169.67 117.43 169.37 C 112.02 168.26 111.93 159.66 117.35 158.48 Z" />
<path fill="#1ab0ff" opacity="1.00" d=" M 145.40 158.54 C 149.84 157.90 154.42 158.30 158.91 158.30 C 163.19 158.64 165.53 164.43 162.52 167.55 C 160.22 170.48 156.19 169.34 153.00 169.56 C 149.54 169.29 145.07 170.62 142.65 167.36 C 140.24 164.46 141.76 159.52 145.40 158.54 Z" />
</g>
</svg>
