<?xml version="1.0" encoding="UTF-8" ?>
<!DOCTYPE svg PUBLIC "-//W3C//DTD SVG 1.1//EN" "http://www.w3.org/Graphics/SVG/1.1/DTD/svg11.dtd">
<svg width="192pt" height="192pt" viewBox="0 0 192 192" version="1.1" xmlns="http://www.w3.org/2000/svg">
<g id="#b49451ff">
<path fill="#b49451" opacity="1.00" d=" M 68.75 35.27 C 66.99 30.74 65.89 21.02 72.95 20.79 C 96.62 20.77 120.31 20.74 143.99 20.80 C 156.13 20.87 166.99 31.76 166.72 43.95 C 166.74 78.32 166.81 112.70 166.71 147.07 C 166.60 158.96 155.90 169.37 144.07 169.48 C 120.10 169.50 96.13 169.58 72.16 169.43 C 66.03 168.56 67.48 160.50 68.14 156.14 C 70.09 150.10 79.14 152.36 79.15 158.38 C 100.43 158.46 121.71 158.38 142.98 158.40 C 149.69 158.79 155.93 152.82 155.69 146.07 C 155.73 112.02 155.75 77.97 155.69 43.92 C 155.81 37.23 149.58 31.62 143.02 31.74 C 121.90 31.64 100.78 31.82 79.66 31.63 C 78.81 36.66 72.07 40.34 68.75 35.27 Z" />
<path fill="#b49451" opacity="1.00" d=" M 35.32 43.42 C 66.12 42.12 97.11 43.22 127.98 42.85 C 136.01 41.99 143.79 48.80 143.68 56.93 C 143.76 82.31 143.73 107.69 143.72 133.07 C 143.99 140.55 137.53 147.49 130.00 147.52 C 99.67 147.59 69.34 147.54 39.00 147.52 C 31.38 147.65 24.72 140.63 24.99 133.06 C 25.00 107.68 24.96 82.29 25.01 56.91 C 25.01 50.79 29.41 45.02 35.32 43.42 M 38.28 54.42 C 36.28 54.99 36.35 57.27 36.34 58.94 C 36.40 83.65 36.28 108.37 36.40 133.07 C 36.22 135.01 38.07 136.43 39.92 136.09 C 69.62 136.13 99.32 136.10 129.02 136.06 C 131.44 136.57 132.54 134.03 132.25 132.02 C 132.24 107.33 132.28 82.64 132.25 57.95 C 132.61 56.03 131.08 53.98 129.03 54.31 C 98.79 54.35 68.52 54.11 38.28 54.42 Z" />
</g>
</svg>
