<?xml version="1.0" encoding="UTF-8" ?>
<!DOCTYPE svg PUBLIC "-//W3C//DTD SVG 1.1//EN" "http://www.w3.org/Graphics/SVG/1.1/DTD/svg11.dtd">
<svg width="192pt" height="192pt" viewBox="0 0 192 192" version="1.1" xmlns="http://www.w3.org/2000/svg">
<g id="#939b6aff">
<path fill="#939b6a" opacity="1.00" d=" M 43.83 23.91 C 41.61 18.53 49.91 14.02 53.18 18.83 C 58.45 26.81 63.09 35.20 68.10 43.34 C 85.73 37.15 105.34 37.07 122.95 43.36 C 128.00 35.24 132.65 26.87 137.87 18.86 C 141.14 13.98 149.49 18.49 147.32 23.94 C 142.99 32.07 137.85 39.77 133.25 47.77 C 159.98 61.58 178.37 90.70 177.63 120.99 C 177.73 124.42 174.15 126.53 171.04 126.16 C 120.68 126.13 70.31 126.17 19.95 126.15 C 16.88 126.46 13.54 124.28 13.51 121.00 C 12.79 90.73 31.10 61.51 57.91 47.80 C 53.34 39.76 48.11 32.09 43.83 23.91 M 78.67 51.73 C 49.50 58.33 26.62 85.26 24.64 115.09 C 71.90 115.17 119.16 115.13 166.42 115.07 C 165.00 95.19 154.55 76.30 138.71 64.27 C 121.96 51.33 99.21 46.46 78.67 51.73 Z" />
<path fill="#939b6a" opacity="1.00" d=" M 124.37 80.51 C 130.77 78.60 137.31 85.66 135.09 91.93 C 133.55 97.90 125.35 100.68 120.80 96.25 C 115.20 91.91 117.45 82.01 124.37 80.51 Z" />
<path fill="#939b6a" opacity="1.00" d=" M 62.26 81.22 C 69.04 78.13 76.71 86.02 73.87 92.76 C 72.08 98.59 63.90 100.80 59.55 96.44 C 54.58 92.32 56.15 83.37 62.26 81.22 Z" />
<path fill="#939b6a" opacity="1.00" d=" M 31.43 132.57 C 47.22 132.15 63.06 132.33 78.86 132.46 C 85.07 135.54 89.21 142.75 95.99 144.47 C 102.11 141.59 106.51 135.87 112.34 132.44 C 127.23 132.21 142.16 132.34 157.07 132.37 C 168.00 132.28 178.01 141.95 177.71 153.00 C 178.02 164.05 167.98 173.86 156.98 173.56 C 115.99 173.58 75.00 173.55 34.01 173.54 C 23.34 173.88 13.53 164.69 13.25 154.00 C 12.45 143.52 21.05 133.64 31.43 132.57 M 30.29 144.33 C 21.51 147.37 23.45 161.68 32.74 162.17 C 74.56 162.36 116.42 162.34 158.24 162.12 C 168.33 161.53 168.97 145.33 158.97 143.89 C 144.72 143.39 130.38 143.55 116.12 143.79 C 110.26 147.96 104.93 152.84 99.19 157.18 C 97.34 158.73 94.41 159.22 92.42 157.63 C 86.40 153.28 81.13 147.93 75.01 143.72 C 60.14 143.90 45.03 142.73 30.29 144.33 Z" />
</g>
</svg>
