<?xml version="1.0" encoding="UTF-8" ?>
<!DOCTYPE svg PUBLIC "-//W3C//DTD SVG 1.1//EN" "http://www.w3.org/Graphics/SVG/1.1/DTD/svg11.dtd">
<svg width="192pt" height="192pt" viewBox="0 0 192 192" version="1.1" xmlns="http://www.w3.org/2000/svg">
<g id="#6bcd6eff">
<path fill="#6bcd6e" opacity="1.00" d=" M 38.32 15.09 C 39.12 9.92 47.10 9.23 48.89 14.11 C 50.06 19.30 49.16 24.74 49.41 30.03 C 76.23 9.98 115.37 8.88 143.04 27.86 C 170.89 45.87 185.41 81.63 178.06 113.97 C 172.80 139.35 154.79 161.78 130.93 172.00 C 125.84 174.10 121.21 166.81 124.99 162.94 C 128.81 159.99 133.62 158.53 137.46 155.53 C 166.16 136.79 177.02 96.16 161.51 65.59 C 147.71 35.79 111.59 18.76 79.88 27.87 C 47.49 35.77 23.96 68.87 27.27 102.09 C 28.89 126.95 44.76 150.19 67.29 160.82 C 71.91 162.23 72.72 169.11 68.35 171.33 C 63.98 173.21 60.02 169.54 56.30 167.73 C 28.59 151.84 12.22 118.74 16.34 87.06 C 17.82 73.08 23.39 59.81 31.26 48.25 C 26.21 48.08 21.09 48.66 16.07 47.98 C 10.83 46.76 10.83 38.39 16.06 37.16 C 23.39 36.68 30.76 37.13 38.11 36.94 C 38.28 29.66 37.85 22.36 38.32 15.09 Z" />
<path fill="#6bcd6e" opacity="1.00" d=" M 51.33 63.43 C 52.64 62.97 54.08 63.14 55.33 63.68 C 69.59 69.87 83.56 76.90 97.92 82.76 C 111.83 76.53 125.48 69.70 139.39 63.49 C 145.20 61.05 149.71 70.20 144.38 73.39 C 130.00 80.48 115.34 87.04 100.87 93.96 C 98.81 95.12 96.31 94.90 94.27 93.80 C 79.66 87.01 64.90 80.56 50.35 73.67 C 46.08 71.67 46.83 64.63 51.33 63.43 Z" />
<path fill="#6bcd6e" opacity="1.00" d=" M 93.35 118.44 C 97.85 116.64 102.76 118.21 106.94 120.14 C 116.47 124.78 125.17 130.98 133.40 137.63 C 137.47 141.08 135.86 148.19 131.10 150.19 C 117.64 155.15 112.13 169.86 101.44 178.36 C 98.24 180.53 94.05 179.00 91.78 176.23 C 85.99 169.68 80.45 162.89 74.69 156.30 C 71.52 152.40 66.11 151.77 62.39 148.61 C 59.09 145.58 59.31 139.66 63.07 137.10 C 72.36 129.74 82.11 122.50 93.35 118.44 M 93.37 126.33 C 84.01 130.49 75.91 136.88 67.78 142.99 C 77.32 147.98 87.33 152.59 97.98 154.59 C 108.49 152.41 118.50 148.09 127.92 143.01 C 120.11 137.03 112.24 130.94 103.30 126.73 C 100.25 125.16 96.50 124.82 93.37 126.33 M 87.97 159.96 C 91.27 163.82 94.47 167.78 97.88 171.56 C 101.22 167.80 104.48 163.96 107.59 160.00 C 101.37 163.03 94.19 162.91 87.97 159.96 Z" />
</g>
</svg>
