<?xml version="1.0" encoding="UTF-8" ?>
<!DOCTYPE svg PUBLIC "-//W3C//DTD SVG 1.1//EN" "http://www.w3.org/Graphics/SVG/1.1/DTD/svg11.dtd">
<svg width="192pt" height="192pt" viewBox="0 0 192 192" version="1.1" xmlns="http://www.w3.org/2000/svg">
<g id="#f7765dff">
<path fill="#f7765d" opacity="1.00" d=" M 37.52 36.50 C 59.42 13.39 95.32 5.35 124.97 17.03 C 151.35 26.91 171.66 51.30 176.46 79.07 C 177.24 83.13 172.80 86.56 169.00 85.18 C 147.11 80.77 125.47 72.93 107.32 59.70 C 102.39 55.87 107.96 47.28 113.44 50.51 C 128.50 60.67 145.41 68.07 163.11 72.18 C 153.77 41.23 121.17 19.54 88.96 23.42 C 56.37 26.09 28.62 54.04 25.62 86.51 C 47.20 82.72 69.18 73.67 83.03 56.00 C 84.78 53.44 88.84 52.52 91.15 54.86 C 112.80 76.85 143.06 87.99 172.98 92.94 C 175.83 93.33 178.00 96.12 177.65 98.99 C 176.34 129.22 156.62 157.93 128.67 169.63 C 122.34 171.67 118.94 161.47 125.06 159.13 C 147.05 149.06 163.36 127.28 165.97 103.14 C 137.63 98.02 109.80 86.80 88.01 67.62 C 71.71 85.08 48.51 94.26 25.34 98.10 C 26.53 122.53 41.20 145.83 62.94 157.11 C 65.51 158.48 68.94 159.66 69.37 163.00 C 70.37 167.44 64.99 171.16 61.15 168.84 C 42.60 160.07 27.55 144.10 19.98 125.01 C 7.82 95.42 14.86 59.15 37.52 36.50 Z" />
<path fill="#f7765d" opacity="1.00" d=" M 90.35 117.43 C 95.62 115.31 101.24 117.63 105.95 120.07 C 114.65 124.71 122.84 130.31 130.40 136.62 C 134.49 140.07 132.85 147.19 128.08 149.16 C 114.63 154.16 109.15 168.88 98.45 177.38 C 92.21 180.95 87.68 173.88 84.20 169.81 C 77.42 162.89 72.75 153.12 63.06 149.81 C 57.60 148.24 54.97 140.51 59.60 136.63 C 68.99 129.03 78.92 121.63 90.35 117.43 M 91.12 125.04 C 81.41 129.15 73.10 135.80 64.74 142.10 C 74.49 146.68 84.29 151.69 94.99 153.56 C 105.55 151.52 115.52 146.98 125.01 141.99 C 117.40 136.12 109.65 130.28 101.02 125.98 C 98.02 124.38 94.35 123.64 91.12 125.04 M 85.05 158.93 C 88.35 162.82 91.57 166.78 94.98 170.57 C 98.30 166.77 101.57 162.93 104.70 158.97 C 98.47 162.00 91.29 161.85 85.05 158.93 Z" />
</g>
</svg>
