<?xml version="1.0" encoding="UTF-8" ?>
<!DOCTYPE svg PUBLIC "-//W3C//DTD SVG 1.1//EN" "http://www.w3.org/Graphics/SVG/1.1/DTD/svg11.dtd">
<svg width="192pt" height="192pt" viewBox="0 0 192 192" version="1.1" xmlns="http://www.w3.org/2000/svg">
<g id="#ff3661ff">
<path fill="#ff3661" opacity="1.00" d=" M 38.32 15.09 C 39.11 9.92 47.11 9.23 48.89 14.12 C 50.05 19.31 49.16 24.76 49.41 30.06 C 76.40 9.79 115.97 8.90 143.66 28.28 C 171.12 46.41 185.34 81.88 178.05 113.96 C 172.71 139.58 154.38 162.45 130.02 172.26 C 123.65 173.45 121.14 163.32 127.27 161.33 C 155.16 148.88 172.56 117.15 167.94 86.93 C 164.23 55.69 137.36 29.14 106.02 25.98 C 72.94 21.48 39.06 43.94 30.04 76.01 C 19.73 108.18 36.00 146.09 66.61 160.47 C 70.88 161.62 73.04 167.37 69.46 170.49 C 65.76 173.81 61.08 170.32 57.59 168.46 C 30.35 153.46 13.47 121.99 15.98 91.00 C 16.90 75.64 22.55 60.80 31.35 48.25 C 26.26 48.08 21.13 48.61 16.07 47.99 C 10.84 46.74 10.82 38.39 16.07 37.15 C 23.40 36.69 30.77 37.12 38.11 36.94 C 38.28 29.66 37.85 22.36 38.32 15.09 Z" />
<path fill="#ff3661" opacity="1.00" d=" M 51.34 63.42 C 52.65 62.99 54.08 63.12 55.34 63.67 C 69.59 69.87 83.56 76.86 97.91 82.76 C 111.81 76.51 125.48 69.70 139.39 63.47 C 145.19 61.03 149.71 70.20 144.38 73.39 C 130.00 80.48 115.35 87.05 100.88 93.96 C 98.81 95.14 96.31 94.91 94.27 93.81 C 79.66 87.03 64.91 80.54 50.35 73.68 C 46.07 71.69 46.81 64.61 51.34 63.42 Z" />
<path fill="#ff3661" opacity="1.00" d=" M 93.36 118.43 C 97.85 116.64 102.78 118.20 106.95 120.16 C 116.48 124.79 125.17 131.00 133.39 137.64 C 137.44 141.08 135.83 148.19 131.08 150.16 C 117.63 155.12 112.11 169.83 101.43 178.34 C 98.49 180.31 94.55 179.23 92.31 176.72 C 86.07 169.92 80.36 162.66 74.21 155.78 C 71.01 152.29 65.93 151.64 62.39 148.62 C 59.07 145.60 59.28 139.67 63.05 137.09 C 72.35 129.73 82.10 122.49 93.36 118.43 M 93.36 126.33 C 84.00 130.50 75.90 136.88 67.77 143.01 C 77.35 147.94 87.32 152.61 97.98 154.60 C 108.51 152.42 118.53 148.07 127.99 143.02 C 120.14 137.06 112.26 130.93 103.30 126.72 C 100.25 125.14 96.50 124.82 93.36 126.33 M 87.93 159.93 C 91.24 163.83 94.50 167.77 97.86 171.61 C 101.23 167.79 104.52 163.90 107.72 159.94 C 101.45 162.98 94.20 162.93 87.93 159.93 Z" />
</g>
</svg>
