<?xml version="1.0" encoding="UTF-8" ?>
<!DOCTYPE svg PUBLIC "-//W3C//DTD SVG 1.1//EN" "http://www.w3.org/Graphics/SVG/1.1/DTD/svg11.dtd">
<svg width="192pt" height="192pt" viewBox="0 0 192 192" version="1.1" xmlns="http://www.w3.org/2000/svg">
<g id="#9c9889ff">
<path fill="#9c9889" opacity="1.00" d=" M 36.35 16.25 C 37.56 11.68 44.75 11.61 46.12 16.11 C 46.92 20.87 46.30 25.78 46.46 30.61 C 74.20 9.06 115.72 8.12 144.19 28.79 C 170.97 47.13 184.42 82.33 176.79 113.87 C 169.83 146.15 141.43 172.30 108.69 176.64 C 88.29 179.74 66.66 174.87 49.79 162.92 C 49.70 157.62 49.73 152.33 49.79 147.04 C 50.11 133.11 57.20 119.57 68.40 111.29 C 74.47 107.18 78.96 101.27 84.45 96.48 C 90.06 91.85 98.60 91.33 104.74 95.23 C 110.33 98.86 113.78 105.11 119.80 108.17 C 134.24 116.17 143.44 132.34 143.34 148.81 C 167.37 128.63 174.63 91.74 160.05 63.96 C 147.13 37.58 116.77 21.52 87.68 25.55 C 65.09 28.21 44.33 42.57 33.84 62.74 C 21.14 86.07 23.48 116.38 39.41 137.59 C 43.63 142.70 35.53 149.67 31.05 144.93 C 9.02 117.29 9.06 75.25 30.24 47.12 C 25.29 46.88 20.21 47.73 15.34 46.57 C 10.73 45.17 11.19 37.58 16.00 36.81 C 22.62 36.30 29.29 36.76 35.93 36.60 C 36.39 29.83 35.57 22.98 36.35 16.25 M 93.25 104.30 C 87.67 108.13 83.42 113.82 78.36 118.37 C 75.50 120.58 74.51 125.08 77.16 127.85 C 81.73 132.60 86.44 137.22 91.15 141.83 C 93.64 144.32 98.09 144.01 100.33 141.33 C 105.04 136.39 110.30 131.91 114.63 126.64 C 117.51 120.77 110.83 117.13 107.60 113.40 C 103.16 109.95 99.93 102.53 93.25 104.30 M 108.89 148.89 C 102.50 156.32 90.02 156.91 83.12 149.88 C 77.24 143.61 70.32 138.21 65.50 131.02 C 61.11 138.89 60.67 148.01 61.14 156.81 C 82.46 169.45 110.59 169.40 131.96 156.90 C 132.47 147.32 131.85 137.06 126.05 129.01 C 122.65 137.33 114.63 142.31 108.89 148.89 Z" />
</g>
</svg>
