<?xml version="1.0" encoding="UTF-8" ?>
<!DOCTYPE svg PUBLIC "-//W3C//DTD SVG 1.1//EN" "http://www.w3.org/Graphics/SVG/1.1/DTD/svg11.dtd">
<svg width="192pt" height="192pt" viewBox="0 0 192 192" version="1.1" xmlns="http://www.w3.org/2000/svg">
<g id="#b96b86ff">
<path fill="#b96b86" opacity="1.00" d=" M 36.06 38.05 C 56.94 14.91 91.63 5.67 121.19 15.74 C 153.65 25.87 177.49 58.01 177.82 92.01 C 179.23 124.68 158.89 157.08 128.69 169.69 C 121.85 171.74 118.98 160.65 125.69 158.74 C 156.34 145.00 173.40 107.98 164.26 75.69 C 144.90 75.33 125.53 75.71 106.18 75.50 C 106.98 82.30 105.89 92.45 96.99 92.61 C 87.84 92.97 86.39 82.51 87.37 75.57 C 67.49 75.53 47.61 75.54 27.73 75.56 C 18.49 107.62 35.25 144.52 65.59 158.45 C 72.15 160.42 69.42 171.23 62.67 169.41 C 43.27 161.16 27.79 144.53 19.96 125.03 C 8.04 96.10 14.54 60.77 36.06 38.05 M 31.90 64.15 C 50.39 64.26 68.88 64.21 87.37 64.18 C 87.41 50.62 87.46 37.07 87.34 23.52 C 63.54 26.47 41.72 42.20 31.90 64.15 M 106.16 23.94 C 106.03 37.35 106.12 50.77 106.11 64.18 C 124.09 64.21 142.08 64.24 160.06 64.17 C 150.32 42.94 129.50 26.78 106.16 23.94 Z" />
<path fill="#b96b86" opacity="1.00" d=" M 90.36 117.42 C 95.36 115.39 100.77 117.42 105.29 119.73 C 114.26 124.38 122.63 130.18 130.40 136.62 C 134.49 140.07 132.87 147.20 128.10 149.17 C 114.64 154.17 109.17 168.91 98.45 177.40 C 95.23 179.53 91.10 177.92 88.84 175.16 C 83.03 168.62 77.50 161.83 71.76 155.23 C 68.57 151.36 63.15 150.75 59.47 147.55 C 56.28 144.52 56.44 138.73 60.10 136.15 C 69.40 128.79 79.12 121.51 90.36 117.42 M 89.68 125.66 C 80.75 130.03 72.48 135.81 64.98 142.28 C 74.71 146.68 84.37 151.74 94.99 153.56 C 105.54 151.50 115.53 147.01 124.99 141.99 C 117.19 135.97 109.25 129.96 100.33 125.68 C 97.03 123.92 92.97 123.87 89.68 125.66 M 85.28 159.09 C 88.41 162.99 91.64 166.82 94.99 170.54 C 98.32 166.80 101.54 162.95 104.66 159.03 C 98.50 161.96 91.47 161.87 85.28 159.09 Z" />
</g>
</svg>
