<?xml version="1.0" encoding="UTF-8" ?>
<!DOCTYPE svg PUBLIC "-//W3C//DTD SVG 1.1//EN" "http://www.w3.org/Graphics/SVG/1.1/DTD/svg11.dtd">
<svg width="192pt" height="192pt" viewBox="0 0 192 192" version="1.1" xmlns="http://www.w3.org/2000/svg">
<g id="#8d6fa1ff">
<path fill="#8d6fa1" opacity="1.00" d=" M 85.37 13.46 C 117.04 8.87 150.18 25.19 166.24 52.77 C 181.93 78.55 181.84 113.13 165.55 138.60 C 163.51 142.41 157.60 142.15 155.56 138.47 C 150.21 130.32 143.03 123.62 137.16 115.87 C 129.72 106.42 123.99 95.11 113.80 88.23 C 106.08 83.35 95.28 83.34 87.95 88.98 C 82.90 92.95 81.30 99.82 81.79 105.96 C 82.75 117.48 86.83 128.47 88.00 139.96 C 89.23 150.33 86.93 160.66 84.64 170.72 C 84.15 173.73 81.12 176.18 78.03 175.47 C 46.40 168.98 20.67 141.61 15.34 109.88 C 11.36 88.29 16.48 65.21 29.29 47.38 C 42.26 29.00 63.02 16.29 85.37 13.46 M 51.74 39.75 C 26.02 59.74 17.78 98.22 32.82 127.08 C 41.26 144.02 56.72 157.34 74.82 162.97 C 76.90 153.83 77.83 144.27 75.90 135.01 C 73.28 121.22 68.15 107.12 71.88 93.02 C 69.94 88.38 66.50 83.52 68.31 78.25 C 70.26 73.18 75.80 71.15 80.69 70.09 C 79.70 65.80 78.91 60.66 81.93 56.97 C 86.99 51.74 96.25 52.06 100.60 58.05 C 101.68 54.22 103.12 49.80 107.05 48.02 C 112.58 45.57 119.12 49.19 121.68 54.30 C 125.73 62.49 125.43 72.16 123.06 80.80 C 137.52 93.71 146.15 111.64 159.95 125.23 C 173.82 96.60 165.31 59.37 140.19 39.79 C 115.52 19.03 76.43 19.01 51.74 39.75 Z" />
<path fill="#8d6fa1" opacity="1.00" d=" M 43.79 111.05 C 50.68 103.60 59.96 98.76 68.82 94.01 C 67.49 101.19 67.83 108.44 67.76 115.63 C 59.59 115.53 51.34 114.27 43.79 111.05 Z" />
<path fill="#8d6fa1" opacity="1.00" d=" M 94.22 97.24 C 99.27 94.74 105.26 100.75 102.71 105.78 C 101.11 110.25 94.43 111.11 91.68 107.29 C 89.05 104.11 90.35 98.74 94.22 97.24 Z" />
<path fill="#8d6fa1" opacity="1.00" d=" M 62.97 118.83 C 65.60 119.07 70.33 118.04 70.28 122.02 C 71.32 131.33 75.83 140.24 74.77 149.73 C 71.26 150.89 67.77 149.14 65.50 146.48 C 63.05 143.61 58.48 142.42 57.79 138.27 C 55.98 131.31 59.04 124.44 62.97 118.83 Z" />
<path fill="#8d6fa1" opacity="1.00" d=" M 149.30 143.30 C 154.41 141.95 158.27 148.88 154.58 152.55 C 139.12 168.85 116.45 178.20 94.00 177.37 C 87.91 176.81 87.96 166.75 94.11 166.41 C 112.18 166.57 130.40 160.13 143.59 147.63 C 145.40 146.10 146.94 143.97 149.30 143.30 Z" />
</g>
</svg>
