<?xml version="1.0" encoding="UTF-8" ?>
<!DOCTYPE svg PUBLIC "-//W3C//DTD SVG 1.1//EN" "http://www.w3.org/Graphics/SVG/1.1/DTD/svg11.dtd">
<svg width="192pt" height="192pt" viewBox="0 0 192 192" version="1.1" xmlns="http://www.w3.org/2000/svg">
<g id="#f26986ff">
<path fill="#f26986" opacity="1.00" d=" M 89.39 13.49 C 94.05 12.42 98.94 13.59 102.96 16.06 C 120.40 26.31 137.93 36.41 155.43 46.57 C 160.55 49.42 163.70 55.18 163.48 61.02 C 163.33 77.33 163.76 93.68 163.27 109.98 C 161.76 115.58 152.61 114.75 152.30 108.92 C 152.05 92.95 152.29 76.96 152.22 60.98 C 152.40 58.72 151.06 56.79 149.06 55.86 C 131.76 45.87 114.47 35.85 97.25 25.73 C 94.94 24.13 91.82 23.82 89.44 25.46 C 71.94 35.60 54.48 45.82 36.97 55.95 C 35.84 56.75 34.14 57.40 34.22 59.07 C 33.77 76.01 34.60 93.02 33.81 109.94 C 33.09 115.81 23.83 115.75 22.88 110.02 C 22.51 93.70 22.83 77.35 22.72 61.01 C 22.47 55.47 25.14 49.84 30.03 47.05 C 46.86 37.20 63.79 27.49 80.60 17.59 C 83.40 15.98 86.19 14.20 89.39 13.49 Z" />
<path fill="#f26986" opacity="1.00" d=" M 57.07 61.02 C 73.85 40.99 107.63 39.35 126.13 57.86 C 141.24 71.86 145.63 95.42 136.49 113.92 C 142.98 120.94 150.13 127.34 156.53 134.43 C 160.27 139.22 153.49 146.03 148.67 142.31 C 141.30 135.38 134.33 128.00 127.13 120.88 C 124.67 118.71 123.28 115.06 124.87 111.97 C 128.29 104.55 130.91 96.34 129.67 88.08 C 127.65 74.64 118.04 62.20 104.90 58.06 C 93.49 54.50 80.22 56.23 70.72 63.73 C 57.14 73.80 52.36 93.90 60.03 108.98 C 62.21 112.29 63.09 116.90 59.92 119.94 C 52.47 127.45 45.11 135.10 37.41 142.34 C 32.69 145.65 26.28 139.25 29.63 134.54 C 36.05 127.44 43.21 121.01 49.76 114.02 C 41.32 97.00 44.35 75.11 57.07 61.02 Z" />
<path fill="#f26986" opacity="1.00" d=" M 88.40 70.49 C 95.84 69.27 103.97 71.27 109.54 76.48 C 118.76 85.14 120.29 101.01 111.66 110.62 C 108.14 113.99 105.78 119.52 109.19 123.84 C 116.04 131.94 124.19 138.87 131.28 146.76 C 133.84 149.71 133.06 154.75 129.63 156.70 C 120.10 162.56 110.31 168.02 100.60 173.59 C 96.02 176.44 89.91 176.53 85.26 173.80 C 75.49 168.24 65.70 162.69 56.09 156.88 C 52.37 154.90 51.41 149.47 54.43 146.45 C 61.07 139.41 68.14 132.79 74.80 125.77 C 77.53 123.01 78.94 118.63 76.98 115.03 C 74.85 111.24 71.32 108.33 69.81 104.15 C 63.84 90.45 73.19 72.28 88.40 70.49 M 80.78 88.69 C 78.03 93.90 79.13 100.49 83.38 104.55 C 89.90 111.43 91.27 122.72 85.43 130.45 C 79.85 137.56 72.81 143.38 66.72 150.04 C 74.03 154.54 81.56 158.68 88.97 163.01 C 90.69 163.99 92.82 165.34 94.72 163.93 C 102.81 159.42 110.83 154.77 118.81 150.07 C 112.73 143.52 105.89 137.66 100.27 130.71 C 94.21 122.91 95.32 111.18 102.28 104.30 C 107.09 99.65 107.25 91.85 103.45 86.55 C 98.21 78.87 84.31 79.85 80.78 88.69 Z" />
</g>
</svg>
