<?xml version="1.0" encoding="UTF-8" ?>
<!DOCTYPE svg PUBLIC "-//W3C//DTD SVG 1.1//EN" "http://www.w3.org/Graphics/SVG/1.1/DTD/svg11.dtd">
<svg width="192pt" height="192pt" viewBox="0 0 192 192" version="1.1" xmlns="http://www.w3.org/2000/svg">
<g id="#ff3663ff">
<path fill="#ff3663" opacity="1.00" d=" M 97.20 25.93 C 97.35 24.15 96.92 20.09 99.86 21.12 C 114.98 27.55 131.03 40.14 130.82 58.18 C 134.70 54.95 136.48 50.15 139.42 46.22 C 141.48 45.18 142.91 47.55 144.36 48.63 C 162.74 65.84 176.02 90.28 174.69 116.01 C 174.67 131.11 172.13 146.83 163.53 159.55 C 160.99 162.85 155.63 161.51 154.28 157.78 C 146.01 140.29 129.87 126.53 110.99 121.95 C 82.92 114.93 51.88 131.50 40.85 157.98 C 38.48 164.32 28.18 160.57 30.19 154.20 C 36.09 139.38 47.60 127.14 61.19 118.97 C 58.79 112.92 55.55 107.18 53.61 100.96 C 52.59 95.77 60.20 92.40 63.33 96.66 C 66.65 102.11 68.56 108.31 71.36 114.05 C 86.82 108.15 104.18 107.45 119.98 112.48 C 122.59 107.19 124.40 101.48 127.42 96.41 C 130.40 92.30 137.58 94.96 137.34 99.99 C 135.97 105.88 132.68 111.11 130.50 116.72 C 142.23 122.88 151.72 132.51 159.17 143.34 C 163.21 132.74 163.47 121.23 163.41 110.03 C 162.79 92.31 154.01 75.96 142.60 62.80 C 137.22 67.61 130.94 71.25 124.73 74.87 C 122.74 76.24 119.18 76.54 118.22 73.78 C 116.88 66.65 120.59 59.42 118.59 52.32 C 116.95 46.17 112.02 41.73 107.18 37.95 C 104.11 48.21 97.72 58.21 87.96 63.12 C 80.24 66.28 73.26 60.21 69.69 53.88 C 66.05 59.91 64.10 66.73 63.59 73.73 C 62.80 81.39 54.20 85.96 47.16 83.72 C 44.53 83.50 40.96 81.05 38.97 83.85 C 29.44 97.87 28.25 115.71 30.24 132.09 C 30.98 138.13 21.55 140.20 19.53 134.62 C 14.54 109.23 21.89 81.07 41.00 63.12 C 42.13 67.60 44.74 72.73 50.04 72.85 C 52.66 73.99 52.56 70.71 52.87 69.04 C 54.26 53.35 64.38 39.39 77.34 30.96 C 76.23 38.81 77.35 47.31 83.25 53.11 C 92.27 47.27 97.48 36.60 97.20 25.93 Z" />
<path fill="#ff3663" opacity="1.00" d=" M 82.75 83.52 C 82.00 76.59 92.91 75.37 95.61 80.37 C 95.52 85.67 96.12 91.05 95.44 96.34 C 90.56 97.85 82.16 98.52 82.67 91.17 C 83.94 91.08 85.21 90.99 86.48 90.91 C 86.77 91.63 87.35 93.07 87.64 93.79 C 89.01 93.73 90.38 93.67 91.76 93.61 C 91.83 92.22 91.89 90.83 91.95 89.44 C 90.38 89.19 88.81 88.95 87.24 88.71 C 87.23 87.99 87.20 86.54 87.19 85.82 C 88.71 85.68 90.23 85.54 91.75 85.39 C 91.76 84.03 91.76 82.67 91.75 81.32 C 90.41 81.23 89.07 81.16 87.73 81.09 C 87.43 81.81 86.83 83.26 86.53 83.98 C 85.27 83.83 84.01 83.68 82.75 83.52 Z" />
<path fill="#ff3663" opacity="1.00" d=" M 98.93 77.86 C 103.16 78.12 108.11 76.75 111.80 79.32 C 113.89 84.15 113.49 90.12 112.14 95.12 C 108.67 98.33 103.21 96.82 98.90 96.91 C 98.85 90.56 98.83 84.21 98.93 77.86 M 103.13 81.17 C 103.09 85.33 103.06 89.50 103.12 93.66 C 104.98 93.51 106.85 93.36 108.72 93.17 C 109.01 89.31 109.01 85.43 108.61 81.57 C 106.78 81.42 104.96 81.29 103.13 81.17 Z" />
<path fill="#ff3663" opacity="1.00" d=" M 56.45 146.54 C 66.70 148.06 76.60 151.40 86.50 154.38 C 84.26 162.88 73.16 163.44 67.02 158.99 C 62.66 155.66 59.42 151.10 56.45 146.54 Z" />
<path fill="#ff3663" opacity="1.00" d=" M 107.39 154.88 C 117.49 151.53 128.01 149.47 138.41 147.26 C 134.64 152.68 130.43 158.31 124.37 161.32 C 118.14 164.37 109.74 161.65 107.39 154.88 Z" />
</g>
</svg>
