<?xml version="1.0" encoding="UTF-8" ?>
<!DOCTYPE svg PUBLIC "-//W3C//DTD SVG 1.1//EN" "http://www.w3.org/Graphics/SVG/1.1/DTD/svg11.dtd">
<svg width="192pt" height="192pt" viewBox="0 0 192 192" version="1.1" xmlns="http://www.w3.org/2000/svg">
<g id="#ff3663ff">
<path fill="#ff3663" opacity="1.00" d=" M 105.89 39.14 C 101.54 34.60 108.82 27.45 113.28 31.70 C 132.69 50.63 152.07 69.61 171.09 88.93 C 174.01 91.56 174.06 96.39 171.13 99.02 C 151.76 118.68 132.39 138.36 112.89 157.89 C 108.68 162.47 101.09 155.76 104.94 150.97 C 123.49 131.83 142.46 113.08 161.08 93.99 C 142.93 75.46 124.22 57.48 105.89 39.14 Z" />
<path fill="#ff3663" opacity="1.00" d=" M 78.27 31.32 C 81.70 29.68 86.03 30.61 88.60 33.36 C 107.10 51.88 125.63 70.36 144.05 88.95 C 146.94 91.57 146.98 96.41 144.06 99.02 C 125.37 118.01 106.50 136.82 87.76 155.76 C 84.82 159.10 79.19 159.11 76.30 155.71 C 57.86 137.15 39.46 118.55 21.02 99.99 C 17.57 96.94 17.63 91.08 21.03 88.02 C 38.96 69.95 56.95 51.93 74.89 33.87 C 75.91 32.89 76.97 31.91 78.27 31.32 M 30.11 93.99 C 47.34 111.48 64.65 128.90 82.02 146.26 C 99.44 128.93 116.76 111.48 134.03 93.99 C 116.73 76.58 99.42 59.18 82.00 41.90 C 64.65 59.20 47.36 76.58 30.11 93.99 Z" />
</g>
</svg>
