<?xml version="1.0" encoding="UTF-8" ?>
<!DOCTYPE svg PUBLIC "-//W3C//DTD SVG 1.1//EN" "http://www.w3.org/Graphics/SVG/1.1/DTD/svg11.dtd">
<svg width="192pt" height="192pt" viewBox="0 0 192 192" version="1.1" xmlns="http://www.w3.org/2000/svg">
<g id="#818c80ff">
<path fill="#818c80" opacity="1.00" d=" M 91.43 14.42 C 93.54 11.90 97.70 11.64 99.97 14.08 C 106.97 21.07 114.07 27.97 120.90 35.12 C 124.94 39.72 118.45 47.25 113.35 43.63 C 107.16 38.43 101.95 32.15 95.96 26.72 C 89.77 31.93 84.65 38.32 78.50 43.57 C 73.68 47.11 67.05 40.32 70.58 35.53 C 77.28 28.26 84.51 21.48 91.43 14.42 Z" />
<path fill="#818c80" opacity="1.00" d=" M 88.26 65.35 C 104.62 60.76 123.00 72.11 126.41 88.70 C 130.64 104.90 119.50 122.97 103.11 126.38 C 87.33 130.60 69.70 120.08 65.68 104.31 C 60.63 87.98 71.58 69.07 88.26 65.35 M 91.38 76.52 C 79.55 78.90 72.55 93.24 77.88 104.07 C 82.09 113.98 95.07 118.63 104.61 113.58 C 114.15 109.22 118.47 96.63 113.71 87.30 C 109.99 78.98 100.18 74.47 91.38 76.52 Z" />
<path fill="#818c80" opacity="1.00" d=" M 35.55 70.63 C 40.13 66.92 46.92 72.99 44.06 77.98 C 38.98 84.52 32.20 89.60 26.93 95.98 C 32.45 101.85 38.51 107.22 43.84 113.26 C 47.36 118.35 39.94 125.10 35.29 120.86 C 28.25 114.18 21.52 107.17 14.65 100.32 C 12.09 98.07 11.94 93.79 14.54 91.51 C 21.54 84.55 28.36 77.39 35.55 70.63 Z" />
<path fill="#818c80" opacity="1.00" d=" M 147.88 78.03 C 144.75 72.96 151.87 66.66 156.45 70.62 C 163.45 77.25 170.12 84.23 176.99 91.00 C 179.78 93.24 180.04 97.84 177.26 100.20 C 170.19 107.18 163.40 114.49 156.05 121.17 C 151.19 124.73 144.60 117.86 148.07 113.04 C 153.46 107.07 159.43 101.63 164.99 95.82 C 159.54 89.66 153.05 84.43 147.88 78.03 Z" />
<path fill="#818c80" opacity="1.00" d=" M 70.80 156.21 C 66.92 151.32 73.97 144.25 78.84 148.13 C 84.77 153.52 90.15 159.51 96.00 164.99 C 101.81 159.46 107.21 153.51 113.12 148.10 C 118.00 144.19 125.07 151.30 121.21 156.22 C 114.50 163.50 107.28 170.32 100.30 177.36 C 98.06 179.86 93.91 179.83 91.67 177.35 C 84.70 170.32 77.49 163.50 70.80 156.21 Z" />
</g>
</svg>
