<?xml version="1.0" encoding="UTF-8" ?>
<!DOCTYPE svg PUBLIC "-//W3C//DTD SVG 1.1//EN" "http://www.w3.org/Graphics/SVG/1.1/DTD/svg11.dtd">
<svg width="192pt" height="192pt" viewBox="0 0 192 192" version="1.1" xmlns="http://www.w3.org/2000/svg">
<g id="#1bb3ffff">
<path fill="#1bb3ff" opacity="1.00" d=" M 65.29 33.24 C 66.87 28.63 74.08 28.68 75.65 33.27 C 82.59 48.53 89.35 63.88 96.25 79.16 C 103.82 63.87 110.22 48.03 117.83 32.76 C 119.63 28.64 126.22 28.86 127.84 33.03 C 145.55 73.48 164.10 113.62 181.88 154.01 C 182.29 157.30 179.40 160.32 176.10 160.14 C 158.40 160.37 140.68 159.91 122.99 160.39 C 120.76 160.24 119.29 158.33 118.48 156.44 C 102.41 120.61 86.48 84.72 70.33 48.93 C 54.86 82.22 39.32 115.49 23.84 148.78 C 40.21 149.12 56.61 148.52 72.96 149.08 C 79.09 150.09 78.30 160.05 72.07 160.08 C 53.04 160.26 33.98 160.23 14.95 160.10 C 10.58 160.22 7.82 154.95 10.23 151.34 C 28.58 111.97 46.89 72.58 65.29 33.24 M 122.56 48.91 C 115.99 63.58 109.37 78.24 102.31 92.70 C 110.64 111.44 119.13 130.11 127.41 148.88 C 140.67 149.13 153.93 148.80 167.19 148.84 C 152.57 115.41 137.13 82.36 122.56 48.91 Z" />
</g>
</svg>
