<?xml version="1.0" encoding="UTF-8" ?>
<!DOCTYPE svg PUBLIC "-//W3C//DTD SVG 1.1//EN" "http://www.w3.org/Graphics/SVG/1.1/DTD/svg11.dtd">
<svg width="192pt" height="192pt" viewBox="0 0 192 192" version="1.1" xmlns="http://www.w3.org/2000/svg">
<g id="#ff3661ff">
<path fill="#ff3661" opacity="1.00" d=" M 31.23 27.20 C 47.06 26.12 63.10 27.04 79.01 26.73 C 83.13 26.17 87.09 29.74 86.68 33.94 C 86.66 49.30 86.75 64.66 86.64 80.02 C 86.68 83.91 82.74 86.89 79.00 86.43 C 64.00 86.41 48.99 86.47 33.99 86.39 C 30.07 86.65 26.70 82.93 27.06 79.08 C 27.04 64.03 27.04 48.98 27.06 33.93 C 26.86 31.07 28.57 28.26 31.23 27.20 M 40.39 40.14 C 40.44 51.06 40.45 61.99 40.39 72.92 C 51.37 73.11 62.35 72.98 73.34 72.99 C 73.35 62.04 73.37 51.08 73.32 40.12 C 62.34 40.14 51.37 40.12 40.39 40.14 Z" />
<path fill="#ff3661" opacity="1.00" d=" M 108.23 27.24 C 124.04 26.05 140.10 27.07 156.01 26.72 C 159.75 26.22 163.75 29.04 163.74 32.98 C 163.88 48.33 163.77 63.70 163.80 79.06 C 164.23 82.90 160.91 86.60 157.01 86.39 C 141.67 86.46 126.32 86.47 110.98 86.38 C 107.11 86.56 103.82 82.88 104.18 79.07 C 104.17 64.02 104.16 48.97 104.19 33.93 C 104.00 31.12 105.62 28.33 108.23 27.24 M 117.59 40.13 C 117.58 51.06 117.59 62.00 117.59 72.94 C 128.54 73.06 139.49 72.98 150.44 72.99 C 150.45 62.03 150.49 51.07 150.42 40.12 C 139.47 40.14 128.53 40.13 117.59 40.13 Z" />
<path fill="#ff3661" opacity="1.00" d=" M 31.25 104.32 C 47.09 103.26 63.11 104.16 79.02 103.86 C 83.08 103.31 87.02 106.79 86.68 110.93 C 86.71 125.97 86.68 141.01 86.70 156.06 C 87.13 159.86 83.93 163.71 80.01 163.51 C 64.67 163.58 49.33 163.56 34.00 163.52 C 30.01 163.78 26.63 159.99 27.04 156.07 C 27.04 141.02 27.02 125.97 27.06 110.92 C 26.89 108.10 28.62 105.35 31.25 104.32 M 40.41 117.24 C 40.43 128.16 40.46 139.07 40.39 149.99 C 51.36 150.30 62.35 150.07 73.32 150.11 C 73.33 139.15 73.40 128.19 73.28 117.23 C 62.33 117.27 51.37 117.26 40.41 117.24 Z" />
<path fill="#ff3661" opacity="1.00" d=" M 109.06 116.97 C 102.24 115.51 102.94 104.37 109.96 103.98 C 125.65 103.73 141.36 103.90 157.05 103.90 C 160.83 103.67 164.13 107.19 163.79 110.93 C 163.80 126.30 163.86 141.67 163.77 157.03 C 163.87 160.61 160.55 163.70 157.01 163.52 C 141.68 163.58 126.34 163.58 111.01 163.51 C 107.48 163.68 104.19 160.59 104.22 157.04 C 104.16 151.40 103.97 145.73 104.33 140.10 C 104.99 135.07 111.97 132.89 115.46 136.53 C 118.95 140.13 117.17 145.61 117.60 150.08 C 128.55 150.15 139.49 150.14 150.43 150.08 C 150.42 139.12 150.55 128.16 150.35 117.21 C 136.59 117.13 122.79 117.61 109.06 116.97 Z" />
</g>
</svg>
