<?xml version="1.0" encoding="UTF-8" ?>
<!DOCTYPE svg PUBLIC "-//W3C//DTD SVG 1.1//EN" "http://www.w3.org/Graphics/SVG/1.1/DTD/svg11.dtd">
<svg width="192pt" height="192pt" viewBox="0 0 192 192" version="1.1" xmlns="http://www.w3.org/2000/svg">
<g id="#18aeffff">
<path fill="#18aeff" opacity="1.00" d=" M 85.39 25.48 C 108.28 21.91 132.53 30.80 147.87 48.11 C 150.64 50.66 152.23 54.83 150.27 58.34 C 147.90 63.07 140.74 63.72 137.57 59.46 C 125.03 44.45 104.18 36.96 84.98 40.94 C 64.65 44.74 47.13 60.91 42.10 81.02 C 41.44 84.15 40.10 87.67 36.75 88.73 C 31.86 90.93 25.83 86.30 26.58 81.02 C 31.80 52.55 56.78 29.32 85.39 25.48 Z" />
<path fill="#18aeff" opacity="1.00" d=" M 90.37 56.43 C 111.67 53.08 133.20 70.52 134.33 92.04 C 134.54 110.01 134.69 128.03 134.27 145.99 C 133.22 153.58 121.30 154.05 119.57 146.63 C 118.38 127.86 120.13 108.90 118.70 90.14 C 115.78 72.80 91.99 65.03 79.50 77.50 C 74.26 84.33 62.62 77.34 66.56 69.54 C 71.96 61.92 81.34 57.83 90.37 56.43 Z" />
<path fill="#18aeff" opacity="1.00" d=" M 60.41 88.44 C 65.11 85.62 71.79 89.52 71.59 95.00 C 71.67 111.36 71.64 127.72 71.62 144.08 C 71.89 147.95 68.81 151.58 64.98 152.02 C 60.42 152.75 56.11 148.53 56.47 143.98 C 56.44 127.97 56.48 111.96 56.46 95.95 C 56.26 92.95 57.71 89.87 60.41 88.44 Z" />
<path fill="#18aeff" opacity="1.00" d=" M 92.26 88.20 C 97.37 85.61 103.72 90.31 103.06 95.92 C 102.57 102.90 104.30 110.34 101.96 117.00 C 98.14 124.01 86.53 119.90 87.86 112.04 C 89.23 104.34 84.29 93.16 92.26 88.20 Z" />
<path fill="#18aeff" opacity="1.00" d=" M 155.25 88.08 C 159.97 85.92 165.96 89.76 165.82 94.97 C 165.83 105.94 166.10 116.94 165.69 127.90 C 164.84 135.45 152.95 136.22 151.03 128.90 C 150.07 118.33 150.90 107.62 150.60 97.00 C 150.26 93.44 151.74 89.50 155.25 88.08 Z" />
<path fill="#18aeff" opacity="1.00" d=" M 30.29 101.36 C 34.71 99.77 39.96 103.23 40.15 107.94 C 40.36 114.31 40.31 120.69 40.18 127.06 C 40.10 132.71 32.78 136.22 28.32 132.73 C 23.28 129.13 25.54 122.21 25.06 117.00 C 25.15 111.57 23.58 103.50 30.29 101.36 Z" />
<path fill="#18aeff" opacity="1.00" d=" M 91.46 133.50 C 96.16 130.28 103.27 134.24 103.02 139.92 C 102.75 147.03 103.97 154.41 102.27 161.35 C 98.90 168.79 86.58 165.18 87.86 157.04 C 89.15 149.42 84.66 139.11 91.46 133.50 Z" />
</g>
</svg>
