<?xml version="1.0" encoding="UTF-8" ?>
<!DOCTYPE svg PUBLIC "-//W3C//DTD SVG 1.1//EN" "http://www.w3.org/Graphics/SVG/1.1/DTD/svg11.dtd">
<svg width="192pt" height="192pt" viewBox="0 0 192 192" version="1.1" xmlns="http://www.w3.org/2000/svg">
<g id="#1bb4ffff">
<path fill="#1bb4ff" opacity="1.00" d=" M 82.61 28.88 C 81.45 21.43 87.21 13.61 95.00 13.76 C 102.91 13.48 108.77 21.40 107.66 28.93 C 127.73 33.62 144.17 50.77 147.69 71.12 C 149.91 83.19 147.33 95.60 149.41 107.68 C 151.13 117.55 157.31 125.86 164.73 132.29 C 173.80 141.65 167.81 159.08 155.00 161.11 C 143.12 161.96 131.14 161.28 119.21 161.46 C 115.28 170.61 106.21 177.62 96.06 177.72 C 85.39 178.37 75.16 171.38 71.16 161.59 C 59.12 161.05 47.00 162.11 35.01 161.03 C 22.10 158.88 16.42 141.02 25.87 131.91 C 33.89 125.17 39.95 115.80 41.22 105.25 C 42.49 93.21 40.25 80.91 42.97 69.01 C 47.14 49.50 63.28 33.50 82.61 28.88 M 87.36 39.44 C 72.45 42.10 59.54 53.48 54.94 67.91 C 51.59 78.28 53.20 89.31 52.82 100.01 C 53.04 115.08 45.74 129.67 34.38 139.39 C 30.01 142.89 33.44 150.69 38.95 150.12 C 76.64 150.11 114.35 150.19 152.04 150.02 C 157.24 149.99 159.87 142.53 155.71 139.30 C 145.38 130.48 138.49 117.63 137.48 104.02 C 136.94 95.03 137.61 86.00 137.10 77.01 C 135.64 58.15 119.89 41.42 101.04 39.24 C 96.49 39.16 91.90 38.95 87.36 39.44 Z" />
</g>
</svg>
