<?xml version="1.0" encoding="UTF-8" ?>
<!DOCTYPE svg PUBLIC "-//W3C//DTD SVG 1.1//EN" "http://www.w3.org/Graphics/SVG/1.1/DTD/svg11.dtd">
<svg width="192pt" height="192pt" viewBox="0 0 192 192" version="1.1" xmlns="http://www.w3.org/2000/svg">
<g id="#f6b02cff">
<path fill="#f6b02c" opacity="1.00" d=" M 85.40 25.50 C 115.42 20.48 147.20 37.46 159.93 65.04 C 170.46 86.63 168.85 113.55 155.78 133.71 C 139.44 160.28 104.46 173.13 74.81 163.31 C 44.23 154.33 22.50 122.71 25.23 90.91 C 26.74 58.54 53.30 29.75 85.40 25.50 M 87.42 36.56 C 66.96 39.31 48.58 53.61 40.85 72.74 C 35.14 86.41 34.78 102.23 39.90 116.13 C 45.87 132.62 59.52 146.14 76.10 151.88 C 93.09 157.91 112.81 155.76 127.96 145.92 C 143.07 136.38 153.50 119.76 155.25 101.95 C 157.29 83.91 150.51 65.16 137.32 52.68 C 124.37 39.86 105.37 34.03 87.42 36.56 Z" />
<path fill="#f6b02c" opacity="1.00" d=" M 91.45 58.57 C 107.94 56.26 124.99 66.57 130.77 82.14 C 136.56 96.55 132.10 114.28 120.04 124.11 C 107.17 135.46 86.28 135.85 72.98 125.03 C 60.62 115.67 55.44 98.21 60.60 83.60 C 65.02 70.29 77.48 60.07 91.45 58.57 M 95.39 69.54 C 80.40 69.44 67.66 84.26 70.11 99.08 C 71.58 112.05 84.01 122.53 97.07 121.63 C 111.19 121.40 123.27 107.98 121.95 93.90 C 121.38 80.41 108.87 68.97 95.39 69.54 Z" />
</g>
</svg>
