<?xml version="1.0" encoding="UTF-8" ?>
<!DOCTYPE svg PUBLIC "-//W3C//DTD SVG 1.1//EN" "http://www.w3.org/Graphics/SVG/1.1/DTD/svg11.dtd">
<svg width="192pt" height="192pt" viewBox="0 0 192 192" version="1.1" xmlns="http://www.w3.org/2000/svg">
<g id="#44e372ff">
<path fill="#44e372" opacity="1.00" d=" M 31.23 27.20 C 47.07 26.12 63.11 27.04 79.02 26.73 C 83.14 26.18 87.09 29.74 86.68 33.93 C 86.67 49.29 86.76 64.66 86.64 80.02 C 86.69 83.92 82.75 86.89 79.00 86.43 C 64.00 86.42 48.99 86.49 33.98 86.40 C 30.06 86.65 26.71 82.93 27.06 79.08 C 27.03 64.03 27.03 48.97 27.06 33.92 C 26.87 31.07 28.56 28.25 31.23 27.20 M 40.40 40.14 C 40.45 51.07 40.45 62.00 40.40 72.93 C 51.38 73.10 62.36 72.98 73.34 72.99 C 73.34 62.04 73.36 51.09 73.32 40.14 C 62.35 40.14 51.38 40.13 40.40 40.14 Z" />
<path fill="#44e372" opacity="1.00" d=" M 108.23 27.24 C 124.06 26.05 140.10 27.07 156.01 26.72 C 159.76 26.23 163.75 29.04 163.73 32.98 C 163.89 48.34 163.77 63.70 163.80 79.06 C 164.22 82.90 160.93 86.60 157.03 86.39 C 141.68 86.47 126.33 86.48 110.98 86.39 C 107.10 86.56 103.82 82.88 104.18 79.06 C 104.16 64.02 104.16 48.97 104.19 33.93 C 104.01 31.12 105.61 28.32 108.23 27.24 M 117.59 40.14 C 117.59 51.07 117.59 62.01 117.59 72.94 C 128.54 73.06 139.49 72.98 150.44 72.99 C 150.45 62.04 150.48 51.08 150.42 40.13 C 139.48 40.15 128.53 40.13 117.59 40.14 Z" />
<path fill="#44e372" opacity="1.00" d=" M 31.26 104.32 C 47.10 103.26 63.12 104.17 79.03 103.86 C 83.09 103.32 87.02 106.79 86.68 110.93 C 86.72 125.97 86.68 141.02 86.70 156.06 C 87.14 159.87 83.93 163.70 80.01 163.51 C 64.68 163.59 49.34 163.57 34.01 163.52 C 30.00 163.79 26.65 160.01 27.05 156.08 C 27.03 141.03 27.01 125.97 27.06 110.92 C 26.91 108.11 28.61 105.33 31.26 104.32 M 40.42 117.26 C 40.45 128.19 40.44 139.12 40.42 150.05 C 51.38 150.23 62.36 150.10 73.33 150.11 C 73.34 139.16 73.37 128.20 73.31 117.25 C 62.34 117.28 51.38 117.26 40.42 117.26 Z" />
<path fill="#44e372" opacity="1.00" d=" M 109.06 116.97 C 102.23 115.52 102.94 104.36 109.96 103.98 C 125.65 103.73 141.36 103.89 157.05 103.90 C 160.84 103.68 164.12 107.18 163.79 110.93 C 163.81 126.29 163.86 141.66 163.76 157.03 C 163.87 160.62 160.55 163.70 157.00 163.52 C 141.67 163.59 126.33 163.59 111.00 163.51 C 107.46 163.67 104.19 160.59 104.22 157.04 C 104.15 151.40 103.96 145.73 104.35 140.10 C 104.97 135.07 111.99 132.87 115.46 136.54 C 118.94 140.13 117.19 145.62 117.60 150.09 C 128.54 150.15 139.49 150.14 150.43 150.09 C 150.43 139.13 150.51 128.18 150.38 117.23 C 136.61 117.10 122.79 117.65 109.06 116.97 Z" />
</g>
</svg>
