<?xml version="1.0" encoding="UTF-8" ?>
<!DOCTYPE svg PUBLIC "-//W3C//DTD SVG 1.1//EN" "http://www.w3.org/Graphics/SVG/1.1/DTD/svg11.dtd">
<svg width="192pt" height="192pt" viewBox="0 0 192 192" version="1.1" xmlns="http://www.w3.org/2000/svg">
<g id="#45e371ff">
<path fill="#45e371" opacity="1.00" d=" M 85.37 13.44 C 117.09 8.73 150.41 24.70 166.82 52.19 C 179.36 72.39 182.23 98.13 174.84 120.69 C 165.70 149.55 139.40 172.15 109.40 176.52 C 78.59 181.84 45.71 167.56 28.38 141.60 C 9.43 114.62 9.34 76.14 28.10 49.05 C 41.02 29.80 62.33 16.39 85.37 13.44 M 87.43 24.55 C 66.39 27.14 46.91 39.75 35.90 57.85 C 24.68 75.75 22.23 98.76 29.32 118.65 C 37.79 143.49 61.04 162.47 87.12 165.64 C 110.29 168.89 134.63 159.65 149.93 141.97 C 170.12 119.63 173.35 84.17 157.45 58.58 C 143.47 34.72 114.85 20.77 87.43 24.55 Z" />
<path fill="#45e371" opacity="1.00" d=" M 92.29 74.26 C 94.43 71.79 98.54 71.87 100.65 74.34 C 112.13 85.88 123.80 97.25 135.12 108.95 C 139.12 113.75 132.08 120.60 127.32 116.76 C 116.81 106.74 106.80 96.19 96.37 86.08 C 86.14 96.31 76.04 106.67 65.63 116.70 C 60.86 120.70 53.70 113.57 57.88 108.82 C 69.18 97.14 80.82 85.77 92.29 74.26 Z" />
</g>
</svg>
