<?xml version="1.0" encoding="UTF-8" ?>
<!DOCTYPE svg PUBLIC "-//W3C//DTD SVG 1.1//EN" "http://www.w3.org/Graphics/SVG/1.1/DTD/svg11.dtd">
<svg width="192pt" height="192pt" viewBox="0 0 192 192" version="1.1" xmlns="http://www.w3.org/2000/svg">
<g id="#19afffff">
<path fill="#19afff" opacity="1.00" d=" M 21.89 57.93 C 36.14 28.90 68.69 10.24 100.97 12.92 C 131.82 14.70 160.34 35.67 171.65 64.37 C 178.43 81.29 179.66 100.68 174.16 118.11 C 171.50 123.92 161.75 120.18 163.81 114.02 C 169.60 92.52 165.06 68.40 150.99 51.00 C 133.00 27.55 99.68 17.90 71.89 27.93 C 54.01 34.12 38.90 47.81 30.96 64.98 C 21.84 84.32 22.08 107.91 31.92 126.93 C 33.59 126.89 35.27 126.87 36.95 126.85 C 46.72 98.02 56.10 69.05 66.17 40.32 C 68.89 40.33 71.60 40.38 74.32 40.47 C 81.15 52.99 88.28 65.35 95.26 77.79 C 102.36 65.67 108.96 53.26 116.16 41.20 C 119.48 41.44 125.14 39.33 125.92 44.05 C 135.13 71.59 144.43 99.10 153.59 126.66 C 159.85 125.31 168.70 129.24 165.99 136.89 C 156.37 154.07 139.78 167.03 121.18 173.25 C 91.79 183.30 57.14 174.78 35.94 152.04 C 11.99 127.79 6.15 88.13 21.89 57.93 M 98.91 91.03 C 105.32 101.66 111.80 112.27 118.49 122.72 C 118.73 122.75 119.22 122.80 119.46 122.82 C 123.99 114.86 128.43 106.85 133.00 98.91 C 128.16 84.84 123.56 70.69 118.72 56.62 C 111.56 67.74 105.59 79.61 98.91 91.03 M 57.71 99.09 C 61.41 107.54 66.77 115.44 71.17 123.65 C 77.87 112.79 84.63 101.98 91.28 91.10 C 84.77 79.69 78.37 68.21 71.81 56.84 C 67.03 70.89 62.27 84.96 57.71 99.09 M 72.04 139.80 C 68.93 139.37 67.43 136.43 65.97 134.03 C 61.73 126.62 57.69 119.11 53.33 111.77 C 50.27 120.93 47.26 130.10 44.18 139.26 C 42.76 139.31 41.33 139.36 39.91 139.42 C 54.89 158.61 80.25 168.81 104.36 165.51 C 122.48 163.30 139.43 153.62 150.77 139.35 C 149.83 139.33 147.96 139.27 147.02 139.25 C 142.80 130.26 140.54 120.52 137.00 111.26 C 131.77 120.28 127.03 129.60 121.34 138.35 C 120.51 140.37 117.66 140.08 116.90 138.17 C 109.40 126.64 102.42 114.79 95.10 103.15 C 87.32 115.31 80.14 127.85 72.04 139.80 Z" />
</g>
</svg>
