<?xml version="1.0" encoding="UTF-8" ?>
<!DOCTYPE svg PUBLIC "-//W3C//DTD SVG 1.1//EN" "http://www.w3.org/Graphics/SVG/1.1/DTD/svg11.dtd">
<svg width="192pt" height="192pt" viewBox="0 0 192 192" version="1.1" xmlns="http://www.w3.org/2000/svg">
<g id="#f6b02bff">
<path fill="#f6b02b" opacity="1.00" d=" M 31.24 27.21 C 47.07 26.12 63.11 27.05 79.01 26.73 C 83.14 26.17 87.07 29.76 86.67 33.94 C 86.65 49.30 86.74 64.66 86.63 80.02 C 86.67 83.91 82.74 86.87 79.00 86.42 C 63.99 86.40 48.99 86.46 33.98 86.38 C 30.08 86.60 26.70 82.93 27.07 79.08 C 27.06 64.03 27.06 48.97 27.08 33.92 C 26.87 31.07 28.58 28.26 31.24 27.21 M 40.38 40.12 C 40.43 51.06 40.43 61.99 40.38 72.93 C 51.37 73.13 62.35 72.99 73.34 73.00 C 73.36 62.04 73.37 51.08 73.34 40.12 C 62.35 40.12 51.37 40.11 40.38 40.12 Z" />
<path fill="#f6b02b" opacity="1.00" d=" M 108.23 27.25 C 124.05 26.05 140.10 27.08 156.01 26.72 C 159.76 26.22 163.74 29.05 163.74 32.98 C 163.89 48.34 163.77 63.70 163.80 79.06 C 164.22 82.90 160.91 86.59 157.01 86.38 C 141.67 86.46 126.32 86.46 110.98 86.37 C 107.11 86.55 103.82 82.89 104.18 79.07 C 104.17 64.02 104.16 48.97 104.20 33.92 C 104.01 31.13 105.61 28.32 108.23 27.25 M 117.58 40.12 C 117.58 51.06 117.58 62.00 117.58 72.94 C 128.53 73.06 139.49 72.98 150.44 72.99 C 150.45 62.03 150.47 51.07 150.43 40.11 C 139.48 40.12 128.53 40.11 117.58 40.12 Z" />
<path fill="#f6b02b" opacity="1.00" d=" M 31.26 104.33 C 47.10 103.26 63.12 104.17 79.03 103.86 C 83.08 103.31 87.01 106.80 86.67 110.93 C 86.68 126.29 86.74 141.65 86.65 157.01 C 86.73 160.52 83.50 163.65 80.01 163.50 C 64.67 163.58 49.34 163.55 34.00 163.51 C 30.01 163.78 26.65 159.99 27.05 156.08 C 27.04 141.03 27.03 125.97 27.07 110.92 C 26.90 108.11 28.62 105.34 31.26 104.33 M 40.40 117.24 C 40.43 128.17 40.43 139.10 40.40 150.04 C 51.37 150.25 62.35 150.10 73.32 150.10 C 73.34 139.14 73.37 128.19 73.31 117.23 C 62.34 117.26 51.37 117.24 40.40 117.24 Z" />
<path fill="#f6b02b" opacity="1.00" d=" M 109.06 116.97 C 102.23 115.52 102.94 104.37 109.96 103.97 C 125.65 103.73 141.35 103.90 157.05 103.89 C 160.83 103.66 164.13 107.18 163.80 110.92 C 163.81 126.29 163.88 141.67 163.78 157.04 C 163.86 160.62 160.55 163.70 157.00 163.52 C 141.67 163.59 126.33 163.59 111.00 163.51 C 107.47 163.67 104.19 160.59 104.21 157.04 C 104.15 151.40 103.96 145.73 104.33 140.11 C 104.98 135.08 111.98 132.86 115.46 136.53 C 118.95 140.12 117.17 145.60 117.60 150.07 C 128.54 150.14 139.48 150.12 150.42 150.07 C 150.43 139.12 150.50 128.16 150.38 117.21 C 136.61 117.10 122.80 117.61 109.06 116.97 Z" />
</g>
</svg>
