<?xml version="1.0" encoding="UTF-8" ?>
<!DOCTYPE svg PUBLIC "-//W3C//DTD SVG 1.1//EN" "http://www.w3.org/Graphics/SVG/1.1/DTD/svg11.dtd">
<svg width="192pt" height="192pt" viewBox="0 0 192 192" version="1.1" xmlns="http://www.w3.org/2000/svg">
<g id="#29b8a0ff">
<path fill="#29b8a0" opacity="1.00" d=" M 85.39 25.49 C 107.33 22.08 130.58 30.05 145.94 46.06 C 148.79 48.89 152.33 52.50 150.84 56.93 C 149.42 62.70 141.06 64.30 137.56 59.47 C 127.13 47.21 111.20 39.53 95.01 40.11 C 70.82 39.61 47.91 57.63 42.11 81.02 C 41.43 84.14 40.13 87.69 36.76 88.74 C 31.87 90.97 25.84 86.29 26.59 81.03 C 31.82 52.56 56.79 29.34 85.39 25.49 Z" />
<path fill="#29b8a0" opacity="1.00" d=" M 90.37 56.44 C 112.04 53.00 133.85 71.12 134.42 93.04 C 134.47 110.69 134.77 128.37 134.28 145.99 C 133.26 153.63 121.28 154.11 119.56 146.64 C 118.35 127.87 120.13 108.89 118.69 90.13 C 115.75 72.81 91.99 65.06 79.50 77.51 C 74.25 84.36 62.64 77.36 66.57 69.55 C 71.96 61.93 81.34 57.83 90.37 56.44 Z" />
<path fill="#29b8a0" opacity="1.00" d=" M 60.41 88.46 C 65.09 85.61 71.79 89.53 71.59 94.99 C 71.69 111.35 71.65 127.72 71.64 144.07 C 72.08 148.98 66.82 153.37 62.09 151.84 C 58.65 150.98 56.26 147.50 56.46 143.99 C 56.44 127.98 56.47 111.96 56.46 95.95 C 56.28 92.96 57.73 89.90 60.41 88.46 Z" />
<path fill="#29b8a0" opacity="1.00" d=" M 92.25 88.21 C 97.38 85.60 103.74 90.32 103.08 95.95 C 102.60 102.92 104.32 110.35 101.97 117.01 C 98.17 124.07 86.50 119.90 87.86 112.02 C 89.21 104.33 84.31 93.18 92.25 88.21 Z" />
<path fill="#29b8a0" opacity="1.00" d=" M 155.24 88.08 C 159.96 85.91 165.97 89.74 165.84 94.96 C 165.77 106.19 166.32 117.49 165.57 128.68 C 163.89 136.19 151.74 135.65 150.83 127.98 C 150.30 117.34 150.73 106.66 150.62 96.00 C 150.39 92.72 152.16 89.38 155.24 88.08 Z" />
<path fill="#29b8a0" opacity="1.00" d=" M 30.27 101.37 C 34.71 99.78 39.96 103.23 40.16 107.95 C 40.39 114.31 40.34 120.69 40.18 127.06 C 40.12 132.71 32.78 136.26 28.32 132.75 C 23.29 129.14 25.55 122.22 25.07 117.00 C 25.17 111.58 23.58 103.54 30.27 101.37 Z" />
<path fill="#29b8a0" opacity="1.00" d=" M 94.42 132.44 C 99.24 131.63 103.63 136.18 103.09 140.96 C 102.86 147.52 103.71 154.20 102.58 160.69 C 100.34 167.39 89.60 166.86 88.11 159.93 C 87.55 153.30 87.94 146.61 87.89 139.96 C 87.74 136.25 90.77 132.87 94.42 132.44 Z" />
</g>
</svg>
