<?xml version="1.0" encoding="UTF-8" ?>
<!DOCTYPE svg PUBLIC "-//W3C//DTD SVG 1.1//EN" "http://www.w3.org/Graphics/SVG/1.1/DTD/svg11.dtd">
<svg width="192pt" height="192pt" viewBox="0 0 192 192" version="1.1" xmlns="http://www.w3.org/2000/svg">
<g id="#ff3662ff">
<path fill="#ff3662" opacity="1.00" d=" M 85.40 25.50 C 115.42 20.47 147.20 37.46 159.93 65.04 C 170.56 86.84 168.81 114.09 155.39 134.32 C 138.91 160.50 104.21 173.05 74.81 163.32 C 44.22 154.33 22.51 122.71 25.21 90.92 C 26.73 58.54 53.29 29.74 85.40 25.50 M 87.41 36.57 C 67.21 39.30 49.04 53.28 41.15 72.06 C 35.29 85.64 34.72 101.42 39.64 115.37 C 45.46 132.20 59.26 146.05 76.09 151.88 C 93.54 158.09 113.87 155.63 129.17 145.13 C 144.77 134.77 154.99 116.73 155.53 97.97 C 156.33 81.18 149.50 64.26 137.32 52.69 C 124.37 39.88 105.37 34.04 87.41 36.57 Z" />
<path fill="#ff3662" opacity="1.00" d=" M 90.44 58.70 C 106.44 56.04 123.33 65.26 129.88 80.05 C 136.79 94.55 132.88 113.25 120.59 123.64 C 107.94 135.24 87.07 136.03 73.55 125.48 C 61.04 116.37 55.52 99.07 60.34 84.38 C 64.44 71.04 76.58 60.58 90.44 58.70 M 95.35 69.55 C 80.75 69.50 68.23 83.56 69.99 98.07 C 70.98 111.43 83.59 122.54 97.00 121.64 C 110.77 121.43 122.70 108.70 122.00 94.94 C 121.99 81.04 109.22 68.93 95.35 69.55 Z" />
</g>
</svg>
