<?xml version="1.0" encoding="UTF-8" ?>
<!DOCTYPE svg PUBLIC "-//W3C//DTD SVG 1.1//EN" "http://www.w3.org/Graphics/SVG/1.1/DTD/svg11.dtd">
<svg width="192pt" height="192pt" viewBox="0 0 192 192" version="1.1" xmlns="http://www.w3.org/2000/svg">
<g id="#a419ffff">
<path fill="#a419ff" opacity="1.00" d=" M 85.38 25.48 C 107.33 22.08 130.58 30.05 145.93 46.06 C 148.76 48.89 152.31 52.49 150.82 56.90 C 149.41 62.67 141.06 64.27 137.57 59.45 C 124.82 44.21 103.49 36.73 84.05 41.14 C 63.19 45.36 45.84 62.65 41.40 83.45 C 39.90 91.76 26.45 90.49 26.53 82.03 C 31.04 53.09 56.53 29.37 85.38 25.48 Z" />
<path fill="#a419ff" opacity="1.00" d=" M 90.37 56.43 C 111.67 53.07 133.21 70.52 134.33 92.05 C 134.69 109.02 134.38 126.01 134.49 142.99 C 134.85 146.75 132.74 150.85 128.90 151.79 C 124.52 153.26 119.43 149.62 119.31 145.03 C 118.84 127.03 119.76 108.97 118.86 91.00 C 116.57 73.18 92.24 64.76 79.50 77.50 C 74.25 84.33 62.63 77.36 66.56 69.55 C 71.94 61.91 81.33 57.82 90.37 56.43 Z" />
<path fill="#a419ff" opacity="1.00" d=" M 60.41 88.45 C 65.10 85.61 71.80 89.52 71.59 95.00 C 71.68 111.35 71.63 127.72 71.62 144.08 C 72.05 148.98 66.83 153.31 62.11 151.81 C 58.66 150.98 56.28 147.48 56.47 143.98 C 56.44 127.97 56.48 111.96 56.46 95.94 C 56.28 92.95 57.72 89.88 60.41 88.45 Z" />
<path fill="#a419ff" opacity="1.00" d=" M 92.25 88.21 C 97.37 85.60 103.73 90.32 103.06 95.93 C 102.59 102.91 104.29 110.34 101.96 117.01 C 98.12 124.01 86.53 119.89 87.86 112.03 C 89.21 104.33 84.31 93.17 92.25 88.21 Z" />
<path fill="#a419ff" opacity="1.00" d=" M 155.25 88.09 C 159.95 85.92 165.96 89.75 165.81 94.96 C 165.73 106.19 166.27 117.48 165.53 128.67 C 163.84 136.12 151.80 135.60 150.85 127.99 C 150.33 117.34 150.75 106.66 150.63 96.00 C 150.40 92.72 152.18 89.40 155.25 88.09 Z" />
<path fill="#a419ff" opacity="1.00" d=" M 30.27 101.36 C 34.70 99.76 39.99 103.21 40.15 107.95 C 40.36 114.31 40.33 120.69 40.17 127.06 C 40.11 132.72 32.78 136.22 28.32 132.74 C 23.28 129.15 25.53 122.22 25.04 117.00 C 25.14 111.57 23.57 103.52 30.27 101.36 Z" />
<path fill="#a419ff" opacity="1.00" d=" M 91.45 133.51 C 96.16 130.28 103.26 134.23 103.01 139.93 C 102.77 147.03 103.96 154.41 102.27 161.34 C 98.90 168.79 86.58 165.17 87.86 157.03 C 89.14 149.41 84.68 139.13 91.45 133.51 Z" />
</g>
</svg>
