<?xml version="1.0" encoding="UTF-8" ?>
<!DOCTYPE svg PUBLIC "-//W3C//DTD SVG 1.1//EN" "http://www.w3.org/Graphics/SVG/1.1/DTD/svg11.dtd">
<svg width="192pt" height="192pt" viewBox="0 0 192 192" version="1.1" xmlns="http://www.w3.org/2000/svg">
<g id="#45e372ff">
<path fill="#45e372" opacity="1.00" d=" M 42.14 28.89 C 40.20 24.16 46.47 19.26 50.48 22.47 C 55.25 26.80 59.22 31.94 63.68 36.59 C 81.49 22.40 108.70 22.27 126.45 36.64 C 131.60 31.76 136.23 26.30 141.65 21.72 C 145.93 18.76 151.90 24.07 149.62 28.70 C 145.64 34.76 138.76 38.64 135.07 44.81 C 141.65 53.93 145.97 64.72 146.23 76.06 C 158.54 78.50 169.70 87.72 172.73 100.14 C 175.78 111.85 170.41 124.79 160.62 131.64 C 157.29 134.26 153.10 135.36 149.58 137.65 C 147.42 142.56 146.86 148.17 143.70 152.68 C 131.52 171.93 100.92 175.33 84.69 159.31 C 82.32 156.98 79.70 154.23 76.01 155.19 C 59.33 157.55 40.62 147.00 37.22 129.84 C 36.86 124.49 30.68 123.73 27.41 120.63 C 16.87 112.86 15.05 96.31 23.19 86.19 C 29.35 78.62 39.47 75.52 48.95 75.48 C 71.97 75.32 95.00 75.44 118.02 75.38 C 122.21 75.04 125.49 79.88 123.56 83.65 C 122.41 86.65 118.86 87.19 116.04 87.14 C 94.03 87.12 72.01 87.14 50.00 87.13 C 44.36 87.11 38.32 88.11 33.88 91.83 C 28.77 96.06 28.28 104.50 32.52 109.49 C 35.94 113.60 41.76 114.68 44.99 118.98 C 48.86 123.34 47.94 129.91 51.63 134.38 C 57.10 141.89 67.02 144.88 75.96 143.44 C 82.42 142.40 88.21 146.10 92.42 150.62 C 103.15 161.35 122.79 159.76 132.47 148.48 C 137.40 143.04 136.11 134.56 141.39 129.38 C 145.37 125.28 151.63 124.74 155.66 120.68 C 161.66 115.47 163.93 106.11 159.98 99.02 C 156.05 91.26 147.47 87.34 139.09 87.02 C 133.43 85.87 134.92 79.12 134.78 74.92 C 134.28 53.29 113.47 34.91 91.91 37.26 C 76.90 38.24 63.02 48.74 57.97 62.90 C 57.02 65.13 56.39 67.98 53.88 68.98 C 50.12 70.87 45.30 67.15 46.12 63.05 C 47.52 56.26 51.51 50.45 55.25 44.76 C 51.91 38.90 45.55 34.86 42.14 28.89 Z" />
</g>
</svg>
