<?xml version="1.0" encoding="UTF-8" ?>
<!DOCTYPE svg PUBLIC "-//W3C//DTD SVG 1.1//EN" "http://www.w3.org/Graphics/SVG/1.1/DTD/svg11.dtd">
<svg width="192pt" height="192pt" viewBox="0 0 192 192" version="1.1" xmlns="http://www.w3.org/2000/svg">
<g id="#ff623cff">
<path fill="#ff623c" opacity="1.00" d=" M 31.24 27.20 C 47.07 26.12 63.11 27.05 79.02 26.73 C 83.13 26.17 87.10 29.75 86.68 33.94 C 86.66 49.30 86.75 64.66 86.64 80.02 C 86.68 83.90 82.75 86.89 79.01 86.43 C 64.00 86.41 48.99 86.47 33.98 86.39 C 30.07 86.65 26.70 82.92 27.06 79.08 C 27.04 64.03 27.04 48.97 27.07 33.92 C 26.86 31.06 28.58 28.26 31.24 27.20 M 40.40 40.14 C 40.44 51.06 40.44 61.99 40.40 72.92 C 51.38 73.11 62.36 72.99 73.34 72.99 C 73.35 62.04 73.37 51.08 73.33 40.13 C 62.35 40.13 51.37 40.12 40.40 40.14 Z" />
<path fill="#ff623c" opacity="1.00" d=" M 108.24 27.24 C 124.05 26.06 140.11 27.07 156.02 26.72 C 159.76 26.21 163.74 29.05 163.74 32.98 C 163.88 48.34 163.77 63.71 163.80 79.07 C 164.23 82.89 160.91 86.60 157.03 86.39 C 141.68 86.46 126.33 86.47 110.98 86.39 C 107.11 86.56 103.81 82.88 104.18 79.07 C 104.17 64.02 104.16 48.97 104.19 33.93 C 103.99 31.12 105.63 28.33 108.24 27.24 M 117.58 40.13 C 117.59 51.07 117.59 62.00 117.59 72.94 C 128.54 73.06 139.49 72.98 150.44 72.99 C 150.45 62.03 150.48 51.08 150.42 40.12 C 139.48 40.13 128.53 40.12 117.58 40.13 Z" />
<path fill="#ff623c" opacity="1.00" d=" M 31.25 104.32 C 47.10 103.27 63.13 104.16 79.04 103.86 C 83.09 103.31 87.02 106.80 86.68 110.93 C 86.71 125.97 86.68 141.02 86.70 156.06 C 87.13 159.86 83.92 163.72 80.00 163.51 C 64.67 163.58 49.33 163.56 34.00 163.51 C 30.01 163.78 26.63 159.99 27.04 156.08 C 27.04 141.02 27.02 125.97 27.06 110.92 C 26.89 108.10 28.63 105.35 31.25 104.32 M 40.41 117.24 C 40.45 128.18 40.42 139.12 40.42 150.05 C 51.39 150.22 62.36 150.11 73.32 150.10 C 73.35 139.15 73.35 128.20 73.32 117.25 C 62.35 117.25 51.38 117.26 40.41 117.24 Z" />
<path fill="#ff623c" opacity="1.00" d=" M 109.06 116.97 C 102.23 115.51 102.94 104.37 109.97 103.97 C 125.65 103.74 141.36 103.89 157.05 103.89 C 160.82 103.67 164.13 107.19 163.80 110.93 C 163.80 126.29 163.86 141.67 163.77 157.03 C 163.86 160.61 160.55 163.71 157.00 163.52 C 141.67 163.58 126.34 163.58 111.01 163.51 C 107.47 163.68 104.19 160.59 104.21 157.04 C 104.16 151.40 103.97 145.74 104.33 140.11 C 104.96 135.37 111.29 133.02 114.94 136.08 C 119.11 139.48 117.15 145.44 117.61 150.07 C 128.55 150.14 139.49 150.14 150.43 150.07 C 150.46 139.13 150.47 128.18 150.41 117.24 C 136.64 117.08 122.81 117.63 109.06 116.97 Z" />
</g>
</svg>
