<?xml version="1.0" encoding="UTF-8" ?>
<!DOCTYPE svg PUBLIC "-//W3C//DTD SVG 1.1//EN" "http://www.w3.org/Graphics/SVG/1.1/DTD/svg11.dtd">
<svg width="192pt" height="192pt" viewBox="0 0 192 192" version="1.1" xmlns="http://www.w3.org/2000/svg">
<g id="#d6d6d6ff">
<path fill="#d6d6d6" opacity="1.00" d=" M 87.24 13.24 C 118.41 9.31 150.72 25.27 166.82 52.19 C 179.07 71.95 182.11 97.00 175.30 119.20 C 166.44 149.24 139.03 172.79 107.92 176.72 C 77.06 181.47 44.51 166.64 27.63 140.44 C 9.15 113.15 9.68 74.67 28.92 47.90 C 42.24 28.75 63.98 15.65 87.24 13.24 M 87.40 24.51 C 66.36 27.09 46.87 39.72 35.85 57.82 C 24.63 75.73 22.20 98.76 29.29 118.66 C 37.87 143.76 61.53 162.85 87.94 165.74 C 111.11 168.71 135.29 159.22 150.39 141.43 C 170.17 119.07 173.20 83.97 157.47 58.59 C 143.51 34.69 114.85 20.72 87.40 24.51 Z" />
<path fill="#d6d6d6" opacity="1.00" d=" M 92.28 74.27 C 94.42 71.81 98.55 71.85 100.64 74.34 C 112.12 85.89 123.81 97.24 135.12 108.95 C 139.08 113.73 132.05 120.62 127.30 116.73 C 116.80 106.69 106.80 96.12 96.35 86.04 C 86.17 96.31 75.99 106.61 65.60 116.67 C 60.86 120.67 53.73 113.56 57.87 108.82 C 69.18 97.16 80.82 85.79 92.28 74.27 Z" />
</g>
</svg>
