<?xml version="1.0" encoding="UTF-8" ?>
<!DOCTYPE svg PUBLIC "-//W3C//DTD SVG 1.1//EN" "http://www.w3.org/Graphics/SVG/1.1/DTD/svg11.dtd">
<svg width="192pt" height="192pt" viewBox="0 0 192 192" version="1.1" xmlns="http://www.w3.org/2000/svg">
<g id="#2abaa2ff">
<path fill="#2abaa2" opacity="1.00" d=" M 28.36 49.15 C 29.85 37.97 39.73 28.67 50.98 27.84 C 61.42 26.78 72.01 33.10 76.14 42.72 C 79.50 50.07 77.98 58.32 78.33 66.12 C 89.74 66.15 101.16 66.25 112.57 66.04 C 112.92 58.27 111.39 50.03 114.73 42.70 C 119.12 32.38 130.95 25.96 142.00 28.08 C 153.74 29.92 163.21 41.07 162.82 53.01 C 163.05 63.83 155.19 74.04 144.85 76.98 C 138.20 78.85 131.23 77.91 124.42 78.16 C 124.46 89.46 124.47 100.77 124.43 112.08 C 131.94 112.80 139.84 111.01 147.02 114.01 C 158.88 118.48 165.77 132.65 161.80 144.73 C 158.75 155.34 148.06 163.07 137.02 162.54 C 125.49 162.46 114.91 153.33 113.00 141.99 C 112.13 136.09 112.73 130.10 112.53 124.16 C 101.12 124.12 89.72 124.15 78.32 124.14 C 78.01 131.62 79.41 139.45 76.58 146.60 C 72.04 158.83 57.13 165.80 44.86 161.12 C 34.52 157.65 27.28 146.82 28.13 135.93 C 28.54 123.84 38.94 113.13 51.01 112.37 C 71.54 112.01 92.10 112.62 112.62 112.02 C 112.48 100.73 112.62 89.44 112.54 78.15 C 101.13 78.13 89.72 78.15 78.31 78.14 C 78.27 83.55 80.09 93.37 72.00 93.36 C 64.57 92.44 66.71 83.41 66.46 78.16 C 58.00 77.89 48.85 79.24 41.15 74.89 C 32.09 70.03 26.72 59.32 28.36 49.15 M 40.05 55.01 C 40.93 60.81 46.06 65.68 51.94 66.07 C 56.78 66.34 61.62 66.13 66.45 66.14 C 66.42 61.09 66.68 56.03 66.34 51.00 C 65.56 44.16 58.77 38.88 51.97 39.56 C 44.56 40.10 38.60 47.67 40.05 55.01 M 127.45 44.45 C 122.50 50.53 125.08 58.84 124.42 65.99 C 129.90 66.09 135.45 66.48 140.89 65.73 C 149.58 63.91 154.03 52.51 148.65 45.37 C 144.05 38.19 132.64 37.65 127.45 44.45 M 40.06 136.97 C 39.35 144.17 45.88 150.75 52.99 150.65 C 59.54 150.89 65.70 145.53 66.33 139.00 C 66.64 134.06 66.39 129.09 66.42 124.14 C 61.92 124.17 57.43 124.07 52.94 124.17 C 46.17 124.04 39.80 130.10 40.06 136.97 M 124.43 124.16 C 124.54 129.04 124.29 133.93 124.57 138.81 C 125.12 146.08 132.61 151.83 139.79 150.45 C 146.85 149.51 152.20 142.09 150.77 135.10 C 149.84 129.39 144.79 124.70 139.02 124.25 C 134.16 123.99 129.29 124.20 124.43 124.16 Z" />
</g>
</svg>
