<?xml version="1.0" encoding="UTF-8" ?>
<!DOCTYPE svg PUBLIC "-//W3C//DTD SVG 1.1//EN" "http://www.w3.org/Graphics/SVG/1.1/DTD/svg11.dtd">
<svg width="192pt" height="192pt" viewBox="0 0 192 192" version="1.1" xmlns="http://www.w3.org/2000/svg">
<g id="#ff633bff">
<path fill="#ff633b" opacity="1.00" d=" M 28.33 49.14 C 29.86 37.60 40.35 28.07 52.00 27.75 C 62.98 27.06 73.74 34.53 77.03 45.00 C 79.22 51.82 78.00 59.08 78.32 66.11 C 89.74 66.12 101.15 66.22 112.57 66.05 C 112.92 58.27 111.38 50.03 114.73 42.70 C 118.99 32.69 130.24 26.31 141.03 27.93 C 153.18 29.32 163.22 40.73 162.80 53.01 C 163.04 64.12 154.74 74.56 144.01 77.19 C 137.58 78.69 130.94 77.95 124.41 78.14 C 124.43 89.45 124.48 100.77 124.39 112.08 C 131.91 112.84 139.81 111.03 147.01 114.02 C 158.86 118.49 165.72 132.65 161.76 144.72 C 158.71 155.30 148.04 163.03 137.01 162.51 C 125.49 162.42 114.93 153.32 113.02 141.99 C 112.14 136.08 112.74 130.08 112.55 124.14 C 101.13 124.11 89.72 124.14 78.31 124.13 C 78.00 131.61 79.40 139.44 76.56 146.60 C 72.11 158.56 57.74 165.52 45.61 161.36 C 34.89 158.15 27.25 147.09 28.11 135.93 C 28.54 123.84 38.92 113.12 51.00 112.36 C 71.54 111.98 92.12 112.65 112.65 112.02 C 112.45 100.73 112.63 89.43 112.55 78.14 C 101.14 78.11 89.72 78.13 78.30 78.12 C 78.26 83.53 80.10 93.37 72.00 93.35 C 64.50 92.42 66.73 83.37 66.43 78.13 C 58.20 77.88 49.36 79.21 41.77 75.24 C 32.35 70.53 26.63 59.56 28.33 49.14 M 40.09 55.01 C 40.93 60.80 46.08 65.66 51.94 66.04 C 56.77 66.30 61.61 66.10 66.44 66.11 C 66.39 61.07 66.67 56.02 66.31 50.99 C 65.50 43.14 56.59 37.52 49.15 40.18 C 43.06 42.04 38.83 48.71 40.09 55.01 M 124.55 51.18 C 124.25 56.12 124.51 61.08 124.42 66.02 C 129.30 66.15 134.19 66.26 139.07 66.01 C 145.96 65.54 151.59 58.82 150.96 51.95 C 150.65 45.30 144.63 39.62 137.99 39.56 C 131.43 39.32 125.22 44.62 124.55 51.18 M 43.90 127.90 C 37.24 133.88 39.34 146.01 47.61 149.43 C 55.00 153.17 64.84 148.12 66.19 139.98 C 66.78 134.72 66.33 129.41 66.42 124.13 C 58.94 124.78 49.89 121.96 43.90 127.90 M 124.41 124.14 C 124.53 129.03 124.27 133.93 124.54 138.82 C 125.09 145.79 131.99 151.43 138.94 150.58 C 146.06 150.10 151.86 143.07 150.91 135.98 C 150.37 129.90 145.12 124.66 139.02 124.23 C 134.16 123.98 129.28 124.18 124.41 124.14 Z" />
</g>
</svg>
