<?xml version="1.0" encoding="UTF-8" ?>
<!DOCTYPE svg PUBLIC "-//W3C//DTD SVG 1.1//EN" "http://www.w3.org/Graphics/SVG/1.1/DTD/svg11.dtd">
<svg width="192pt" height="192pt" viewBox="0 0 192 192" version="1.1" xmlns="http://www.w3.org/2000/svg">
<g id="#19afffff">
<path fill="#19afff" opacity="1.00" d=" M 31.23 27.21 C 47.06 26.11 63.10 27.06 79.01 26.73 C 83.12 26.18 87.09 29.75 86.66 33.94 C 86.64 49.30 86.74 64.67 86.63 80.03 C 86.67 83.91 82.73 86.86 79.00 86.41 C 64.00 86.40 48.99 86.46 33.99 86.38 C 30.09 86.63 26.71 82.92 27.08 79.07 C 27.07 64.02 27.07 48.98 27.09 33.93 C 26.87 31.07 28.58 28.28 31.23 27.21 M 40.37 40.13 C 40.43 51.06 40.44 61.99 40.36 72.91 C 51.35 73.17 62.35 72.96 73.34 73.01 C 73.36 62.05 73.38 51.08 73.33 40.11 C 62.35 40.13 51.36 40.09 40.37 40.13 Z" />
<path fill="#19afff" opacity="1.00" d=" M 108.23 27.25 C 124.04 26.05 140.10 27.08 156.00 26.72 C 159.75 26.21 163.74 29.05 163.74 32.98 C 163.89 48.34 163.78 63.70 163.81 79.06 C 164.23 82.90 160.90 86.60 157.01 86.39 C 141.67 86.46 126.33 86.46 110.99 86.38 C 107.12 86.55 103.81 82.88 104.18 79.07 C 104.17 64.02 104.17 48.98 104.20 33.93 C 104.00 31.13 105.62 28.34 108.23 27.25 M 117.59 40.11 C 117.57 51.05 117.58 62.00 117.59 72.95 C 128.54 73.05 139.48 72.98 150.43 72.99 C 150.45 62.03 150.49 51.06 150.42 40.10 C 139.47 40.13 128.53 40.12 117.59 40.11 Z" />
<path fill="#19afff" opacity="1.00" d=" M 31.26 104.33 C 47.09 103.25 63.11 104.18 79.02 103.86 C 83.08 103.30 87.02 106.80 86.68 110.93 C 86.71 125.97 86.68 141.02 86.70 156.06 C 87.14 159.87 83.91 163.70 80.00 163.50 C 64.67 163.58 49.33 163.55 34.00 163.51 C 30.01 163.79 26.64 159.99 27.05 156.07 C 27.05 141.02 27.03 125.97 27.07 110.92 C 26.90 108.11 28.62 105.35 31.26 104.33 M 40.39 117.24 C 40.42 128.15 40.46 139.06 40.37 149.97 C 51.35 150.34 62.34 150.05 73.32 150.10 C 73.32 139.14 73.40 128.18 73.28 117.22 C 62.32 117.27 51.35 117.22 40.39 117.24 Z" />
<path fill="#19afff" opacity="1.00" d=" M 109.05 116.97 C 102.22 115.50 102.94 104.37 109.96 103.97 C 125.65 103.74 141.36 103.89 157.05 103.89 C 160.83 103.65 164.13 107.18 163.81 110.92 C 163.82 126.29 163.89 141.67 163.79 157.03 C 163.86 160.62 160.56 163.70 157.00 163.52 C 141.67 163.59 126.34 163.58 111.01 163.51 C 107.47 163.68 104.19 160.59 104.20 157.04 C 104.15 151.40 103.96 145.73 104.33 140.10 C 104.96 135.37 111.30 133.00 114.94 136.07 C 119.10 139.47 117.16 145.43 117.61 150.06 C 128.54 150.12 139.48 150.12 150.42 150.05 C 150.40 139.10 150.55 128.14 150.34 117.19 C 136.58 117.12 122.78 117.59 109.05 116.97 Z" />
</g>
</svg>
