<?xml version="1.0" encoding="UTF-8" ?>
<!DOCTYPE svg PUBLIC "-//W3C//DTD SVG 1.1//EN" "http://www.w3.org/Graphics/SVG/1.1/DTD/svg11.dtd">
<svg width="192pt" height="192pt" viewBox="0 0 192 192" version="1.1" xmlns="http://www.w3.org/2000/svg">
<g id="#8492a1ff">
<path fill="#8492a1" opacity="1.00" d=" M 85.41 25.49 C 115.43 20.48 147.20 37.45 159.93 65.04 C 170.46 86.63 168.85 113.55 155.78 133.72 C 139.58 160.04 105.05 172.96 75.56 163.55 C 44.60 154.85 22.46 122.98 25.20 90.91 C 26.73 58.53 53.28 29.72 85.41 25.49 M 87.43 36.58 C 67.23 39.32 49.06 53.29 41.16 72.07 C 35.31 85.65 34.74 101.42 39.65 115.37 C 45.39 131.96 58.86 145.66 75.37 151.63 C 92.52 157.97 112.59 155.92 127.95 145.94 C 143.37 136.22 153.90 119.13 155.35 100.93 C 157.07 83.21 150.24 64.94 137.31 52.69 C 124.37 39.89 105.38 34.06 87.43 36.58 Z" />
<path fill="#8492a1" opacity="1.00" d=" M 91.45 58.56 C 109.05 56.05 127.16 68.06 131.79 85.20 C 137.52 103.15 127.05 124.04 109.40 130.45 C 94.06 136.59 75.03 131.08 65.64 117.41 C 57.54 106.39 56.34 90.79 62.69 78.68 C 68.15 67.77 79.30 59.89 91.45 58.56 M 95.38 69.55 C 80.77 69.51 68.25 83.55 70.00 98.06 C 70.97 111.45 83.65 122.58 97.08 121.63 C 111.20 121.40 123.26 107.98 121.95 93.90 C 121.38 80.40 108.85 69.00 95.38 69.55 Z" />
</g>
</svg>
