<?xml version="1.0" encoding="UTF-8" ?>
<!DOCTYPE svg PUBLIC "-//W3C//DTD SVG 1.1//EN" "http://www.w3.org/Graphics/SVG/1.1/DTD/svg11.dtd">
<svg width="192pt" height="192pt" viewBox="0 0 192 192" version="1.1" xmlns="http://www.w3.org/2000/svg">
<g id="#ae5372ff">
<path fill="#ae5372" opacity="1.00" d=" M 21.02 16.76 C 46.12 29.68 70.98 43.05 96.01 56.09 C 120.95 43.10 145.75 29.83 170.70 16.86 C 170.71 69.42 170.98 121.99 170.88 174.55 C 145.83 161.64 121.01 148.28 96.01 135.27 C 71.02 148.33 46.15 161.64 21.11 174.59 C 21.20 121.98 20.87 69.37 21.02 16.76 M 32.41 35.48 C 32.42 53.36 32.39 71.25 32.42 89.14 C 49.63 80.87 66.17 71.21 83.33 62.83 C 66.87 52.93 49.29 44.74 32.41 35.48 M 108.08 62.43 C 125.27 71.31 142.15 80.87 159.59 89.21 C 159.58 71.44 159.66 53.66 159.55 35.88 C 142.02 43.90 125.32 53.78 108.08 62.43 M 45.78 95.36 C 61.98 105.12 79.25 113.26 95.94 122.24 C 112.61 113.23 129.57 104.78 146.30 95.88 C 129.90 86.30 112.68 78.03 95.96 68.97 C 79.23 77.74 62.60 86.75 45.78 95.36 M 32.56 101.97 C 32.46 119.70 32.54 137.43 32.52 155.16 C 49.77 147.07 66.40 137.57 83.33 128.78 C 66.58 119.54 49.57 110.71 32.56 101.97 M 108.56 128.82 C 125.45 137.98 142.52 146.80 159.52 155.74 C 159.48 137.83 159.64 119.91 159.44 102.00 C 142.18 110.32 125.46 119.80 108.56 128.82 Z" />
</g>
</svg>
