<?xml version="1.0" encoding="UTF-8" ?>
<!DOCTYPE svg PUBLIC "-//W3C//DTD SVG 1.1//EN" "http://www.w3.org/Graphics/SVG/1.1/DTD/svg11.dtd">
<svg width="192pt" height="192pt" viewBox="0 0 192 192" version="1.1" xmlns="http://www.w3.org/2000/svg">
<g id="#606f80ff">
<path fill="#606f80" opacity="1.00" d=" M 85.36 13.45 C 117.09 8.73 150.40 24.70 166.84 52.17 C 179.38 72.39 182.24 98.13 174.88 120.70 C 165.66 149.81 138.99 172.54 108.69 176.66 C 77.83 181.73 45.07 167.13 27.97 141.01 C 9.12 113.67 9.53 74.84 28.91 47.88 C 41.88 29.24 62.81 16.34 85.36 13.45 M 87.43 24.58 C 66.64 27.14 47.37 39.48 36.30 57.26 C 24.63 75.46 22.11 99.12 29.60 119.39 C 38.26 143.88 61.32 162.49 87.12 165.64 C 110.53 168.93 135.12 159.45 150.39 141.44 C 170.18 119.07 173.21 83.96 157.43 58.59 C 143.46 34.73 114.85 20.82 87.43 24.58 Z" />
<path fill="#606f80" opacity="1.00" d=" M 92.30 74.27 C 94.42 71.79 98.55 71.86 100.65 74.34 C 112.12 85.85 123.75 97.22 135.07 108.87 C 139.23 113.69 132.15 120.68 127.29 116.79 C 116.80 106.78 106.83 96.22 96.38 86.15 C 86.15 96.36 76.05 106.71 65.66 116.75 C 60.85 120.71 53.72 113.62 57.87 108.82 C 69.18 97.16 80.80 85.77 92.30 74.27 Z" />
</g>
</svg>
