<?xml version="1.0" encoding="UTF-8" ?>
<!DOCTYPE svg PUBLIC "-//W3C//DTD SVG 1.1//EN" "http://www.w3.org/Graphics/SVG/1.1/DTD/svg11.dtd">
<svg width="192pt" height="192pt" viewBox="0 0 192 192" version="1.1" xmlns="http://www.w3.org/2000/svg">
<g id="#a61affff">
<path fill="#a61aff" opacity="1.00" d=" M 93.25 25.22 C 98.24 23.07 104.07 27.67 103.46 32.99 C 103.40 75.33 103.65 117.69 103.35 160.03 C 102.85 168.46 88.98 168.48 88.55 159.99 C 88.16 118.01 88.53 76.00 88.39 34.01 C 88.12 30.45 89.63 26.44 93.25 25.22 Z" />
<path fill="#a61aff" opacity="1.00" d=" M 61.31 51.37 C 66.08 49.73 71.37 53.94 71.00 58.93 C 71.16 83.31 71.08 107.69 71.04 132.07 C 71.28 135.76 68.71 139.36 65.02 140.05 C 60.30 141.20 55.54 136.87 56.01 132.08 C 55.98 107.69 56.01 83.30 56.04 58.92 C 55.85 55.57 58.06 52.29 61.31 51.37 Z" />
<path fill="#a61aff" opacity="1.00" d=" M 126.29 51.33 C 131.00 49.77 136.31 53.98 135.83 58.94 C 135.87 83.31 135.85 107.69 135.86 132.06 C 136.27 136.11 133.06 139.94 129.00 140.19 C 124.50 140.72 120.44 136.51 120.88 132.04 C 120.86 107.68 120.83 83.31 120.90 58.95 C 120.72 55.55 122.95 52.21 126.29 51.33 Z" />
<path fill="#a61aff" opacity="1.00" d=" M 32.37 71.39 C 36.78 70.54 41.27 74.43 41.03 78.92 C 41.00 90.59 41.36 102.30 40.85 113.95 C 39.90 121.75 27.21 121.68 26.27 113.91 C 25.74 102.60 26.20 91.25 26.05 79.93 C 25.63 75.98 28.32 71.92 32.37 71.39 Z" />
<path fill="#a61aff" opacity="1.00" d=" M 157.35 71.33 C 161.69 70.64 166.09 74.48 165.78 78.93 C 165.74 90.58 166.03 102.25 165.64 113.89 C 164.76 121.66 152.05 121.82 151.05 114.02 C 150.46 102.70 150.96 91.32 150.80 79.97 C 150.36 75.91 153.18 71.79 157.35 71.33 Z" />
</g>
</svg>
