<?xml version="1.0" encoding="UTF-8" ?>
<!DOCTYPE svg PUBLIC "-//W3C//DTD SVG 1.1//EN" "http://www.w3.org/Graphics/SVG/1.1/DTD/svg11.dtd">
<svg width="192pt" height="192pt" viewBox="0 0 192 192" version="1.1" xmlns="http://www.w3.org/2000/svg">
<g id="#e030a0ff">
<path fill="#e030a0" opacity="1.00" d=" M 40.28 21.31 C 75.44 19.96 110.77 21.13 146.00 20.71 C 158.91 19.73 171.09 31.01 170.79 44.00 C 170.79 78.33 170.81 112.66 170.73 146.98 C 170.63 158.92 159.95 169.39 148.06 169.49 C 113.69 169.56 79.31 169.56 44.95 169.51 C 32.60 169.51 21.79 158.38 22.04 146.05 C 22.00 112.02 22.00 77.98 22.06 43.94 C 21.98 33.37 29.98 23.53 40.28 21.31 M 33.36 42.98 C 33.11 50.61 33.34 58.25 33.28 65.88 C 40.95 65.73 48.87 63.85 54.88 58.85 C 62.90 52.37 66.62 42.06 67.73 32.09 C 60.49 31.64 53.22 31.84 45.97 31.86 C 39.77 31.67 33.71 36.67 33.36 42.98 M 79.15 31.87 C 77.83 44.63 73.30 57.74 63.48 66.47 C 55.37 74.03 44.10 77.01 33.24 77.24 C 33.33 100.18 33.22 123.12 33.29 146.06 C 33.11 152.03 38.01 157.68 43.99 158.19 C 66.76 158.89 90.53 157.63 111.28 147.26 C 128.50 138.98 142.19 124.18 149.81 106.73 C 159.12 86.61 160.48 63.99 159.45 42.17 C 158.60 36.29 152.92 31.75 147.03 31.88 C 124.41 31.81 101.78 31.83 79.15 31.87 M 115.07 158.19 C 125.71 158.50 136.36 158.31 147.00 158.35 C 153.71 158.72 159.80 152.77 159.66 146.08 C 159.76 134.88 159.69 123.68 159.62 112.49 C 150.65 132.34 134.64 148.64 115.07 158.19 Z" />
<path fill="#e030a0" opacity="1.00" d=" M 105.59 74.47 C 107.45 70.27 108.61 64.69 113.12 62.60 C 113.46 66.45 112.91 70.48 114.52 74.11 C 113.67 75.25 112.82 76.38 111.91 77.47 C 111.22 74.25 108.10 74.69 105.59 74.47 M 110.32 69.29 C 106.12 72.75 113.89 72.56 110.32 69.29 Z" />
<path fill="#e030a0" opacity="1.00" d=" M 80.38 74.30 C 86.62 71.84 93.90 69.02 100.56 71.23 C 101.76 84.57 100.76 98.08 101.08 111.49 C 103.79 111.54 106.54 111.31 109.23 111.80 C 110.94 113.98 111.21 118.36 109.02 120.31 C 99.27 120.66 89.48 120.56 79.72 120.32 C 79.45 117.53 78.60 114.45 80.05 111.85 C 83.47 111.28 86.96 111.55 90.41 111.48 C 90.35 101.25 90.44 91.02 90.35 80.80 C 85.52 81.31 77.39 81.63 80.38 74.30 Z" />
</g>
</svg>
