<?xml version="1.0" encoding="UTF-8" ?>
<!DOCTYPE svg PUBLIC "-//W3C//DTD SVG 1.1//EN" "http://www.w3.org/Graphics/SVG/1.1/DTD/svg11.dtd">
<svg width="192pt" height="192pt" viewBox="0 0 192 192" version="1.1" xmlns="http://www.w3.org/2000/svg">
<g id="#2abaa2ff">
<path fill="#2abaa2" opacity="1.00" d=" M 85.41 25.52 C 119.71 19.56 155.63 42.97 164.30 76.60 C 173.91 108.67 157.03 145.75 126.60 159.62 C 96.67 174.67 57.11 164.46 38.23 136.79 C 25.37 119.05 21.69 95.21 28.33 74.36 C 36.03 48.98 59.13 29.17 85.41 25.52 M 88.39 36.44 C 72.46 38.35 57.58 47.15 48.06 60.03 C 37.12 74.51 33.55 94.16 38.46 111.61 C 43.21 129.11 56.48 144.00 73.27 150.80 C 90.64 157.99 111.42 156.36 127.33 146.30 C 142.75 136.82 153.47 120.02 155.22 101.96 C 157.12 85.12 151.39 67.59 139.77 55.22 C 127.03 41.02 107.25 34.05 88.39 36.44 Z" />
<path fill="#2abaa2" opacity="1.00" d=" M 91.45 58.57 C 104.46 56.85 117.98 62.70 125.80 73.19 C 134.08 83.99 135.67 99.44 129.68 111.69 C 122.91 126.40 105.75 135.50 89.78 132.44 C 71.68 129.86 57.50 112.27 58.67 94.05 C 59.05 76.31 73.80 60.34 91.45 58.57 M 89.33 70.41 C 76.99 73.42 68.18 86.40 70.10 98.99 C 71.43 110.57 81.42 120.42 93.04 121.50 C 108.14 123.66 122.84 110.16 121.99 94.94 C 122.11 78.79 104.84 65.73 89.33 70.41 Z" />
</g>
</svg>
