<?xml version="1.0" encoding="UTF-8" ?>
<!DOCTYPE svg PUBLIC "-//W3C//DTD SVG 1.1//EN" "http://www.w3.org/Graphics/SVG/1.1/DTD/svg11.dtd">
<svg width="192pt" height="192pt" viewBox="0 0 192 192" version="1.1" xmlns="http://www.w3.org/2000/svg">
<g id="#ff613cff">
<path fill="#ff613c" opacity="1.00" d=" M 85.38 25.47 C 107.33 22.07 130.57 30.05 145.93 46.05 C 148.76 48.89 152.33 52.49 150.82 56.90 C 149.42 62.68 141.06 64.28 137.57 59.46 C 126.93 46.92 110.55 39.27 94.02 40.10 C 69.23 40.07 46.45 59.32 41.42 83.45 C 39.93 91.77 26.45 90.51 26.52 82.04 C 31.03 53.09 56.53 29.36 85.38 25.47 Z" />
<path fill="#ff613c" opacity="1.00" d=" M 90.36 56.43 C 111.67 53.07 133.20 70.52 134.33 92.05 C 134.69 109.02 134.38 126.01 134.50 143.00 C 134.78 146.48 133.11 150.27 129.68 151.54 C 125.19 153.63 119.42 149.95 119.32 145.03 C 118.83 127.03 119.78 108.97 118.86 90.99 C 116.56 73.18 92.24 64.77 79.50 77.50 C 74.26 84.35 62.63 77.36 66.55 69.55 C 71.94 61.91 81.33 57.83 90.36 56.43 Z" />
<path fill="#ff613c" opacity="1.00" d=" M 60.41 88.45 C 65.10 85.61 71.79 89.52 71.59 94.99 C 71.69 111.35 71.64 127.72 71.62 144.07 C 72.05 148.97 66.84 153.32 62.11 151.82 C 58.66 150.99 56.27 147.49 56.47 143.99 C 56.44 127.97 56.47 111.95 56.46 95.94 C 56.28 92.95 57.72 89.88 60.41 88.45 Z" />
<path fill="#ff613c" opacity="1.00" d=" M 92.25 88.21 C 97.37 85.60 103.72 90.31 103.06 95.93 C 102.59 102.90 104.30 110.34 101.96 117.01 C 98.14 124.04 86.52 119.89 87.86 112.03 C 89.21 104.33 84.31 93.18 92.25 88.21 Z" />
<path fill="#ff613c" opacity="1.00" d=" M 155.25 88.10 C 159.95 85.92 165.96 89.76 165.81 94.97 C 165.73 106.19 166.26 117.48 165.53 128.67 C 163.84 136.12 151.79 135.61 150.85 127.98 C 150.33 117.34 150.75 106.65 150.63 96.00 C 150.40 92.72 152.18 89.40 155.25 88.10 Z" />
<path fill="#ff613c" opacity="1.00" d=" M 30.28 101.36 C 34.71 99.74 39.95 103.23 40.16 107.94 C 40.36 114.30 40.34 120.69 40.18 127.06 C 40.12 132.72 32.78 136.24 28.32 132.75 C 23.28 129.15 25.52 122.22 25.04 117.00 C 25.13 111.58 23.57 103.51 30.28 101.36 Z" />
<path fill="#ff613c" opacity="1.00" d=" M 91.45 133.51 C 96.15 130.28 103.25 134.24 103.01 139.93 C 102.79 147.03 103.97 154.41 102.27 161.35 C 98.90 168.80 86.58 165.18 87.86 157.03 C 89.13 149.41 84.68 139.13 91.45 133.51 Z" />
</g>
</svg>
