<?xml version="1.0" encoding="UTF-8" ?>
<!DOCTYPE svg PUBLIC "-//W3C//DTD SVG 1.1//EN" "http://www.w3.org/Graphics/SVG/1.1/DTD/svg11.dtd">
<svg width="192pt" height="192pt" viewBox="0 0 192 192" version="1.1" xmlns="http://www.w3.org/2000/svg">
<g id="#ff3662ff">
<path fill="#ff3662" opacity="1.00" d=" M 28.45 48.37 C 30.36 36.82 41.25 27.56 53.00 27.73 C 64.20 27.45 74.82 35.67 77.49 46.53 C 78.99 52.94 78.07 59.59 78.32 66.11 C 89.74 66.14 101.15 66.19 112.57 66.08 C 112.92 58.29 111.38 50.04 114.73 42.70 C 118.99 32.69 130.24 26.31 141.03 27.94 C 153.19 29.32 163.22 40.74 162.80 53.01 C 163.03 64.12 154.75 74.56 144.01 77.18 C 137.59 78.67 130.94 77.97 124.41 78.13 C 124.45 89.49 124.42 100.85 124.43 112.21 C 131.71 112.65 139.30 111.21 146.32 113.77 C 158.25 117.86 165.51 131.72 162.00 143.87 C 159.26 154.86 148.34 163.05 137.01 162.51 C 125.49 162.41 114.93 153.32 113.02 141.98 C 112.14 136.07 112.73 130.08 112.55 124.13 C 101.13 124.12 89.72 124.14 78.31 124.12 C 78.00 131.85 79.48 140.00 76.27 147.31 C 71.36 159.37 56.33 165.84 44.23 160.88 C 33.88 157.10 26.93 145.93 28.17 134.96 C 29.09 122.93 39.83 112.59 51.93 112.31 C 71.96 112.14 92.01 112.43 112.03 112.17 C 113.30 101.23 112.21 89.40 112.55 78.13 C 101.13 78.12 89.72 78.14 78.30 78.12 C 78.28 83.53 80.09 93.35 72.00 93.36 C 64.52 92.42 66.70 83.37 66.44 78.12 C 58.21 77.89 49.37 79.21 41.77 75.24 C 32.10 70.42 26.37 59.01 28.45 48.37 M 40.09 55.01 C 40.93 60.79 46.07 65.67 51.94 66.03 C 56.77 66.32 61.61 66.08 66.45 66.11 C 66.37 61.07 66.69 56.02 66.30 51.00 C 65.51 43.13 56.59 37.53 49.16 40.19 C 43.06 42.03 38.84 48.71 40.09 55.01 M 124.56 51.18 C 124.23 56.14 124.51 61.11 124.44 66.07 C 129.31 66.09 134.20 66.31 139.07 66.00 C 145.96 65.54 151.59 58.82 150.96 51.96 C 150.66 45.30 144.63 39.62 138.00 39.56 C 131.44 39.32 125.21 44.61 124.56 51.18 M 40.16 140.02 C 41.27 145.99 46.92 150.70 53.00 150.64 C 59.54 150.88 65.71 145.54 66.32 139.01 C 66.67 134.06 66.37 129.09 66.43 124.13 C 61.33 124.23 56.20 123.89 51.11 124.30 C 43.88 125.19 38.48 132.92 40.16 140.02 M 124.41 124.13 C 124.53 129.03 124.25 133.93 124.55 138.82 C 125.09 145.79 131.98 151.43 138.93 150.58 C 145.69 150.12 151.33 143.77 150.99 137.00 C 150.92 130.53 145.49 124.68 139.02 124.24 C 134.16 123.96 129.28 124.20 124.41 124.13 Z" />
</g>
</svg>
