<?xml version="1.0" encoding="UTF-8" ?>
<!DOCTYPE svg PUBLIC "-//W3C//DTD SVG 1.1//EN" "http://www.w3.org/Graphics/SVG/1.1/DTD/svg11.dtd">
<svg width="192pt" height="192pt" viewBox="0 0 192 192" version="1.1" xmlns="http://www.w3.org/2000/svg">
<g id="#ff3660ff">
<path fill="#ff3660" opacity="1.00" d=" M 85.38 25.47 C 107.33 22.07 130.58 30.05 145.94 46.06 C 148.76 48.90 152.33 52.50 150.82 56.91 C 149.42 62.69 141.05 64.28 137.57 59.45 C 126.93 46.92 110.54 39.27 94.02 40.10 C 69.23 40.07 46.46 59.32 41.42 83.45 C 39.93 91.78 26.44 90.51 26.52 82.03 C 31.03 53.09 56.53 29.36 85.38 25.47 Z" />
<path fill="#ff3660" opacity="1.00" d=" M 90.37 56.43 C 111.67 53.07 133.20 70.52 134.33 92.04 C 134.69 109.01 134.38 126.01 134.50 142.99 C 134.78 146.48 133.11 150.28 129.66 151.53 C 125.18 153.63 119.42 149.93 119.32 145.03 C 118.83 127.03 119.78 108.96 118.86 90.99 C 116.56 73.18 92.25 64.78 79.50 77.50 C 74.26 84.35 62.63 77.36 66.55 69.55 C 71.94 61.91 81.33 57.83 90.37 56.43 Z" />
<path fill="#ff3660" opacity="1.00" d=" M 60.41 88.45 C 65.10 85.61 71.80 89.52 71.59 94.99 C 71.69 111.35 71.64 127.72 71.62 144.07 C 72.06 148.98 66.83 153.32 62.10 151.82 C 58.65 150.98 56.27 147.49 56.47 143.99 C 56.44 127.98 56.47 111.96 56.45 95.95 C 56.28 92.96 57.71 89.88 60.41 88.45 Z" />
<path fill="#ff3660" opacity="1.00" d=" M 92.25 88.21 C 97.37 85.60 103.72 90.32 103.06 95.94 C 102.60 102.91 104.30 110.34 101.96 117.00 C 98.13 124.05 86.55 119.88 87.82 112.02 C 89.09 104.32 84.31 93.17 92.25 88.21 Z" />
<path fill="#ff3660" opacity="1.00" d=" M 154.44 88.51 C 159.13 85.54 166.00 89.41 165.80 94.97 C 165.73 106.20 166.25 117.48 165.53 128.67 C 163.84 136.12 151.79 135.61 150.85 127.99 C 150.30 117.68 150.79 107.33 150.61 97.00 C 150.36 93.75 151.43 90.18 154.44 88.51 Z" />
<path fill="#ff3660" opacity="1.00" d=" M 30.27 101.36 C 34.70 99.74 39.96 103.23 40.16 107.95 C 40.37 114.31 40.34 120.69 40.18 127.05 C 40.12 132.72 32.78 136.24 28.32 132.75 C 23.28 129.15 25.52 122.22 25.04 117.00 C 25.13 111.58 23.57 103.51 30.27 101.36 Z" />
<path fill="#ff3660" opacity="1.00" d=" M 91.44 133.52 C 96.15 130.28 103.25 134.24 103.01 139.93 C 102.79 147.03 103.97 154.41 102.27 161.34 C 98.88 168.82 86.61 165.17 87.82 157.02 C 89.01 149.40 84.68 139.13 91.44 133.52 Z" />
</g>
</svg>
