<?xml version="1.0" encoding="UTF-8" ?>
<!DOCTYPE svg PUBLIC "-//W3C//DTD SVG 1.1//EN" "http://www.w3.org/Graphics/SVG/1.1/DTD/svg11.dtd">
<svg width="192pt" height="192pt" viewBox="0 0 192 192" version="1.1" xmlns="http://www.w3.org/2000/svg">
<g id="#1ab1ffff">
<path fill="#1ab1ff" opacity="1.00" d=" M 41.44 21.64 C 76.28 20.98 111.18 21.53 146.05 21.34 C 158.51 20.75 170.10 31.49 170.18 44.02 C 170.27 78.34 170.22 112.66 170.21 146.98 C 170.36 158.59 160.63 169.20 149.06 170.06 C 139.39 170.51 129.69 170.09 120.01 170.28 C 117.27 170.30 113.86 170.44 112.19 167.80 C 109.80 164.64 111.99 159.42 115.99 159.10 C 126.68 158.75 137.39 159.25 148.07 158.88 C 154.39 158.34 159.46 152.34 159.06 146.02 C 159.08 112.33 159.15 78.65 159.05 44.96 C 159.23 38.46 153.53 32.49 146.99 32.56 C 113.00 32.50 79.00 32.53 45.01 32.53 C 38.32 32.28 32.35 38.34 32.57 45.01 C 32.52 78.66 32.56 112.32 32.56 145.98 C 32.09 152.81 38.06 159.16 44.92 158.98 C 59.63 159.00 74.35 159.05 89.06 158.95 C 92.36 159.11 91.57 155.14 91.58 153.01 C 91.14 142.10 88.91 129.44 79.36 122.70 C 74.52 119.00 68.24 120.09 62.64 119.38 C 56.59 103.06 56.31 81.77 69.97 69.00 C 84.04 54.69 110.02 55.65 122.78 71.23 C 134.51 84.32 133.34 103.70 128.30 119.36 C 120.66 119.42 111.98 120.27 107.17 127.16 C 98.99 137.54 99.45 151.51 99.20 164.02 C 99.51 167.46 96.47 170.49 93.04 170.21 C 76.69 170.23 60.33 170.35 43.99 170.15 C 31.92 169.96 21.35 159.13 21.46 147.06 C 21.43 113.02 21.46 78.98 21.46 44.95 C 21.18 33.64 30.24 23.11 41.44 21.64 M 80.00 78.04 C 71.59 84.83 71.35 96.68 73.50 106.40 C 82.39 107.46 90.28 112.54 95.72 119.53 C 100.10 113.75 106.27 109.20 113.39 107.51 C 114.72 106.91 116.98 107.18 117.33 105.37 C 119.40 96.70 118.83 86.40 112.34 79.65 C 104.23 70.64 89.04 70.14 80.00 78.04 Z" />
</g>
</svg>
