<?xml version="1.0" encoding="UTF-8" ?>
<!DOCTYPE svg PUBLIC "-//W3C//DTD SVG 1.1//EN" "http://www.w3.org/Graphics/SVG/1.1/DTD/svg11.dtd">
<svg width="192pt" height="192pt" viewBox="0 0 192 192" version="1.1" xmlns="http://www.w3.org/2000/svg">
<g id="#19afffff">
<path fill="#19afff" opacity="1.00" d=" M 43.38 18.41 C 49.30 16.84 55.57 17.35 61.63 17.53 C 66.64 18.31 67.47 26.00 62.80 27.91 C 57.16 29.52 50.93 27.22 45.35 29.40 C 41.52 30.88 39.45 35.07 39.56 39.02 C 39.50 61.68 39.58 84.34 39.54 106.99 C 39.44 115.77 44.49 123.56 50.17 129.84 C 62.94 143.91 79.17 154.33 95.86 163.13 C 111.40 154.55 126.77 145.03 139.13 132.11 C 146.28 124.89 152.20 115.51 151.97 105.00 C 151.78 82.98 151.97 60.95 151.86 38.92 C 152.09 33.49 147.48 28.53 142.02 28.53 C 121.69 28.26 101.34 28.78 81.03 28.26 C 75.35 26.84 76.22 17.55 82.13 17.44 C 102.11 17.30 122.10 17.28 142.08 17.42 C 153.09 17.40 162.86 26.87 162.96 37.93 C 163.16 60.28 162.91 82.63 163.11 104.98 C 163.35 116.43 158.23 127.31 150.82 135.81 C 137.46 151.27 120.01 162.50 102.27 172.28 C 98.45 174.64 93.46 174.86 89.59 172.49 C 71.78 162.76 54.30 151.54 40.89 136.08 C 33.88 128.06 28.26 117.94 28.45 107.02 C 28.49 84.01 28.39 61.00 28.52 37.99 C 28.66 29.17 34.74 20.70 43.38 18.41 Z" />
<path fill="#19afff" opacity="1.00" d=" M 63.22 75.01 C 61.95 63.22 71.09 51.49 82.96 50.33 C 91.64 49.93 100.34 50.23 109.03 50.15 C 117.70 50.03 126.04 55.49 129.54 63.39 C 132.15 68.83 131.54 75.01 131.43 80.85 C 131.22 85.07 125.56 87.30 122.41 84.57 C 118.92 81.77 120.72 76.82 120.25 73.00 C 120.55 66.91 115.20 61.23 109.06 61.43 C 101.36 61.39 93.65 61.42 85.94 61.41 C 80.41 61.13 75.17 65.68 74.60 71.16 C 74.34 74.58 74.55 78.02 74.51 81.45 C 92.03 87.00 109.60 92.40 127.12 97.95 C 130.20 98.63 132.30 102.05 131.28 105.07 C 126.51 118.19 113.61 127.10 100.04 129.00 C 86.52 131.65 72.44 124.05 65.70 112.35 C 63.92 109.35 61.42 105.33 64.09 102.08 C 66.72 98.43 72.77 99.79 74.01 104.00 C 78.30 113.86 89.70 120.74 100.41 117.46 C 106.54 115.76 114.66 112.76 116.76 106.51 C 99.99 101.17 83.11 96.12 66.39 90.62 C 60.92 87.53 64.06 80.06 63.22 75.01 Z" />
</g>
</svg>
