<?xml version="1.0" encoding="UTF-8" ?>
<!DOCTYPE svg PUBLIC "-//W3C//DTD SVG 1.1//EN" "http://www.w3.org/Graphics/SVG/1.1/DTD/svg11.dtd">
<svg width="192pt" height="192pt" viewBox="0 0 192 192" version="1.1" xmlns="http://www.w3.org/2000/svg">
<g id="#496fc1ff">
<path fill="#496fc1" opacity="1.00" d=" M 14.15 28.96 C 14.33 21.15 24.40 20.81 29.82 23.10 C 34.54 26.45 34.25 33.11 36.11 38.10 C 49.03 37.76 63.47 34.36 75.03 41.93 C 84.37 47.52 86.77 61.38 79.75 69.74 C 74.21 77.39 64.18 78.93 55.37 78.26 C 55.42 80.86 55.45 83.45 55.36 86.05 C 62.74 86.59 70.64 85.90 77.32 89.69 C 84.63 93.56 87.64 102.21 88.17 109.99 C 88.48 120.00 80.27 127.98 71.62 131.62 C 61.13 135.60 49.43 133.71 39.08 130.22 C 38.24 132.60 37.36 134.98 37.05 137.50 C 49.12 142.39 62.77 143.46 75.22 139.29 C 79.89 137.83 82.78 145.33 78.35 147.37 C 63.44 153.04 46.51 151.29 32.09 144.97 C 28.45 143.91 25.48 139.94 27.20 136.16 C 29.08 132.42 30.32 128.44 31.50 124.43 C 32.92 120.37 38.00 119.69 41.43 121.56 C 52.23 125.65 66.66 127.71 75.49 118.50 C 81.33 113.48 79.59 104.20 75.09 98.93 C 68.42 93.32 59.09 96.19 51.25 94.82 C 46.15 93.36 46.43 87.24 46.55 83.00 C 46.67 78.48 45.42 71.87 50.69 69.75 C 56.15 68.49 62.03 70.42 67.38 68.36 C 72.13 66.46 75.98 61.35 74.87 56.08 C 73.75 50.16 67.51 46.97 62.01 46.31 C 52.65 45.76 43.26 46.36 33.95 47.27 C 25.88 45.72 28.14 35.31 24.02 30.08 C 22.57 31.74 22.72 33.94 22.76 35.99 C 23.02 75.82 22.44 115.67 23.10 155.49 C 58.08 155.47 93.07 155.68 128.04 155.60 C 143.34 155.67 160.22 147.15 164.63 131.63 C 168.71 116.98 168.51 97.87 154.88 88.16 C 151.26 86.06 151.04 80.82 154.17 78.17 C 164.55 67.50 165.06 48.38 154.04 37.99 C 148.02 31.97 139.13 30.68 130.99 30.59 C 117.83 30.57 104.66 30.70 91.50 30.79 C 106.24 44.31 105.76 70.59 90.30 83.34 C 87.69 84.59 84.26 82.92 83.92 80.00 C 83.49 76.97 86.40 75.20 87.91 72.99 C 97.04 61.68 94.88 41.58 81.22 34.78 C 77.84 32.77 71.52 32.28 72.01 27.02 C 71.92 22.90 76.67 21.73 79.96 22.05 C 99.34 22.29 118.74 21.10 138.09 22.14 C 148.66 22.85 159.04 28.14 164.90 37.12 C 174.09 50.65 172.74 69.97 162.30 82.43 C 177.63 95.58 178.36 118.48 172.47 136.43 C 166.23 154.15 147.03 164.23 128.98 164.52 C 92.31 164.56 55.64 164.41 18.97 164.36 C 16.04 164.66 13.64 161.94 14.06 159.08 C 14.09 115.71 14.03 72.33 14.15 28.96 Z" />
<path fill="#496fc1" opacity="1.00" d=" M 119.27 40.32 C 123.15 39.74 127.13 39.90 131.03 40.21 C 140.02 41.23 147.21 49.96 146.50 58.99 C 146.15 67.99 138.12 75.92 129.05 75.81 C 123.58 75.96 115.96 76.95 113.44 70.65 C 111.92 63.92 113.12 56.86 112.73 50.00 C 112.25 45.72 114.96 41.26 119.27 40.32 M 121.16 48.37 C 121.06 54.73 121.11 61.10 121.10 67.46 C 128.05 68.66 138.20 66.93 138.16 58.00 C 138.28 49.00 128.14 47.25 121.16 48.37 Z" />
<path fill="#496fc1" opacity="1.00" d=" M 119.34 101.43 C 127.35 100.52 136.95 100.63 142.37 107.63 C 148.52 114.67 147.73 126.47 140.51 132.48 C 135.08 137.65 127.03 137.60 120.06 136.93 C 115.82 136.36 112.48 132.29 112.74 128.02 C 112.73 122.01 112.71 115.99 112.75 109.98 C 112.53 106.02 115.53 102.30 119.34 101.43 M 121.15 109.53 C 121.09 115.89 121.08 122.25 121.13 128.61 C 125.61 128.43 130.80 129.66 134.58 126.54 C 139.30 122.99 139.24 115.05 134.45 111.58 C 130.66 108.61 125.60 109.69 121.15 109.53 Z" />
</g>
</svg>
