<?xml version="1.0" encoding="UTF-8" ?>
<!DOCTYPE svg PUBLIC "-//W3C//DTD SVG 1.1//EN" "http://www.w3.org/Graphics/SVG/1.1/DTD/svg11.dtd">
<svg width="192pt" height="192pt" viewBox="0 0 192 192" version="1.1" xmlns="http://www.w3.org/2000/svg">
<g id="#45e371ff">
<path fill="#45e371" opacity="1.00" d=" M 93.25 25.21 C 98.25 23.07 104.07 27.67 103.47 32.99 C 103.41 75.33 103.68 117.70 103.34 160.03 C 102.88 168.48 88.97 168.49 88.57 160.00 C 88.15 118.02 88.54 76.00 88.38 34.01 C 88.14 30.45 89.61 26.43 93.25 25.21 Z" />
<path fill="#45e371" opacity="1.00" d=" M 61.31 51.37 C 66.08 49.73 71.37 53.93 71.01 58.92 C 71.20 82.96 71.04 107.01 71.09 131.05 C 71.38 134.70 69.65 138.73 65.90 139.81 C 61.02 141.73 55.48 137.22 56.01 132.09 C 55.96 108.04 56.01 83.99 55.98 59.94 C 55.65 56.30 57.59 52.36 61.31 51.37 Z" />
<path fill="#45e371" opacity="1.00" d=" M 126.29 51.33 C 131.01 49.78 136.30 53.98 135.83 58.93 C 135.78 83.92 136.04 108.94 135.71 133.92 C 135.13 142.06 121.81 142.13 121.07 134.02 C 120.57 109.36 121.01 84.65 120.86 59.97 C 120.52 56.28 122.50 52.28 126.29 51.33 Z" />
<path fill="#45e371" opacity="1.00" d=" M 32.37 71.38 C 36.78 70.53 41.28 74.42 41.02 78.93 C 41.04 90.60 41.38 102.31 40.85 113.96 C 39.94 121.78 27.18 121.70 26.27 113.91 C 25.72 102.61 26.19 91.26 26.04 79.93 C 25.64 75.98 28.30 71.92 32.37 71.38 Z" />
<path fill="#45e371" opacity="1.00" d=" M 157.35 71.33 C 161.68 70.66 166.08 74.47 165.77 78.92 C 165.74 90.57 166.04 102.25 165.63 113.89 C 164.81 121.67 152.02 121.82 151.07 114.02 C 150.44 102.70 150.97 91.31 150.80 79.97 C 150.38 75.92 153.16 71.77 157.35 71.33 Z" />
</g>
</svg>
