<?xml version="1.0" encoding="UTF-8" ?>
<!DOCTYPE svg PUBLIC "-//W3C//DTD SVG 1.1//EN" "http://www.w3.org/Graphics/SVG/1.1/DTD/svg11.dtd">
<svg width="192pt" height="192pt" viewBox="0 0 192 192" version="1.1" xmlns="http://www.w3.org/2000/svg">
<g id="#1ab0ffff">
<path fill="#1ab0ff" opacity="1.00" d=" M 85.41 25.51 C 119.18 19.67 154.60 42.24 163.86 75.15 C 174.05 106.75 158.32 143.84 128.62 158.58 C 99.16 174.58 59.27 165.61 39.52 138.54 C 25.84 120.83 21.51 96.49 28.08 75.12 C 35.56 49.38 58.85 29.18 85.41 25.51 M 87.42 36.55 C 67.21 39.27 49.01 53.26 41.12 72.06 C 35.27 85.65 34.70 101.44 39.64 115.39 C 45.30 131.72 58.47 145.25 74.65 151.35 C 91.49 157.82 111.29 156.16 126.69 146.70 C 142.47 137.29 153.45 120.25 155.24 101.94 C 157.28 83.91 150.50 65.17 137.32 52.68 C 124.38 39.87 105.38 34.03 87.42 36.55 Z" />
<path fill="#1ab0ff" opacity="1.00" d=" M 90.47 58.69 C 106.20 56.10 122.83 64.97 129.56 79.39 C 136.89 93.97 133.08 113.11 120.57 123.64 C 107.92 135.25 87.04 136.02 73.53 125.46 C 61.03 116.35 55.52 99.05 60.35 84.37 C 64.46 71.03 76.61 60.57 90.47 58.69 M 89.32 70.40 C 76.96 73.41 68.14 86.42 70.10 99.02 C 71.42 110.30 80.94 119.95 92.20 121.40 C 107.92 124.21 123.54 109.79 121.95 93.90 C 121.41 78.14 104.46 65.85 89.32 70.40 Z" />
</g>
</svg>
