<?xml version="1.0" encoding="UTF-8" ?>
<!DOCTYPE svg PUBLIC "-//W3C//DTD SVG 1.1//EN" "http://www.w3.org/Graphics/SVG/1.1/DTD/svg11.dtd">
<svg width="192pt" height="192pt" viewBox="0 0 192 192" version="1.1" xmlns="http://www.w3.org/2000/svg">
<g id="#729170ff">
<path fill="#729170" opacity="1.00" d=" M 23.35 28.46 C 69.86 27.54 116.49 28.31 163.05 28.04 C 170.68 27.60 177.51 34.44 177.34 42.02 C 177.38 68.01 177.37 94.00 177.35 119.99 C 177.17 128.63 171.65 135.97 165.05 141.03 C 154.98 149.56 146.44 162.38 132.06 163.22 C 97.37 163.37 62.67 163.24 27.98 163.29 C 20.19 163.64 12.71 157.05 13.06 149.06 C 13.05 113.36 13.06 77.65 13.08 41.95 C 12.83 35.78 17.36 29.88 23.35 28.46 M 26.44 42.56 C 26.79 78.11 26.43 113.68 26.63 149.24 C 61.08 149.40 95.54 149.24 129.99 149.30 C 133.81 149.42 137.64 148.06 140.35 145.34 C 146.86 139.18 153.49 133.16 160.02 127.03 C 162.57 124.80 163.87 121.41 163.71 118.05 C 163.65 92.71 163.78 67.37 163.65 42.03 C 119.80 41.21 75.87 41.96 31.99 41.64 C 30.10 41.59 28.13 41.58 26.44 42.56 Z" />
<path fill="#729170" opacity="1.00" d=" M 122.43 50.68 C 130.78 50.27 139.22 50.25 147.57 50.67 C 154.33 51.89 154.59 62.31 148.05 64.17 C 139.39 64.44 130.67 64.52 122.01 64.13 C 115.52 62.31 115.62 51.84 122.43 50.68 Z" />
<path fill="#729170" opacity="1.00" d=" M 49.74 63.68 C 50.52 62.57 51.44 61.57 52.52 60.74 C 54.76 63.14 57.12 65.40 59.40 67.76 C 65.70 65.25 72.94 64.88 79.08 68.09 C 81.63 65.73 83.93 63.10 86.65 60.91 C 87.40 61.87 88.15 62.83 88.89 63.80 C 86.85 65.84 84.84 67.91 82.84 69.98 C 88.93 75.27 92.48 83.16 91.54 91.29 C 76.73 91.14 61.91 91.58 47.11 91.06 C 46.42 83.06 49.59 74.94 56.05 70.04 C 53.95 67.92 51.88 65.76 49.74 63.68 M 57.31 79.21 C 57.28 80.75 57.27 82.29 57.25 83.83 C 59.24 85.01 62.79 84.84 62.88 81.91 C 63.18 78.84 59.53 77.76 57.31 79.21 M 76.29 79.18 C 76.27 80.74 76.26 82.30 76.23 83.87 C 78.23 84.99 81.74 84.81 81.82 81.88 C 82.10 78.87 78.52 77.77 76.29 79.18 Z" />
<path fill="#729170" opacity="1.00" d=" M 121.23 71.29 C 129.70 70.12 138.43 70.82 146.99 70.87 C 153.96 71.34 155.05 82.43 148.30 84.27 C 139.95 84.92 131.51 84.48 123.14 84.48 C 116.42 84.14 114.88 73.58 121.23 71.29 Z" />
<path fill="#729170" opacity="1.00" d=" M 122.21 91.22 C 130.14 90.71 138.12 91.11 146.07 91.01 C 151.60 90.77 155.26 98.24 151.44 102.37 C 147.52 106.66 141.13 104.93 136.00 105.26 C 130.79 104.93 125.13 106.30 120.30 103.82 C 115.30 100.93 116.49 92.42 122.21 91.22 Z" />
<path fill="#729170" opacity="1.00" d=" M 47.15 94.12 C 61.88 94.04 76.61 94.13 91.34 93.98 C 91.31 101.45 92.78 109.44 89.42 116.42 C 85.02 126.32 72.44 131.84 62.27 127.91 C 54.07 125.38 48.00 117.55 47.28 109.04 C 46.93 104.08 47.18 99.09 47.15 94.12 Z" />
<path fill="#729170" opacity="1.00" d=" M 122.37 111.47 C 130.76 111.11 139.24 111.05 147.63 111.47 C 154.51 112.79 154.65 123.38 147.85 125.03 C 139.60 125.57 131.25 125.27 122.97 125.17 C 115.76 124.32 115.05 112.74 122.37 111.47 Z" />
</g>
</svg>
