<?xml version="1.0" encoding="UTF-8" ?>
<!DOCTYPE svg PUBLIC "-//W3C//DTD SVG 1.1//EN" "http://www.w3.org/Graphics/SVG/1.1/DTD/svg11.dtd">
<svg width="192pt" height="192pt" viewBox="0 0 192 192" version="1.1" xmlns="http://www.w3.org/2000/svg">
<g id="#ff633cff">
<path fill="#ff633c" opacity="1.00" d=" M 72.30 16.35 C 79.29 12.88 84.44 24.60 77.16 27.25 C 54.87 33.37 36.19 50.83 28.82 72.77 C 26.87 79.24 16.22 76.70 17.41 70.02 C 25.08 44.42 46.70 23.73 72.30 16.35 Z" />
<path fill="#ff633c" opacity="1.00" d=" M 118.26 17.27 C 119.63 16.76 121.09 17.15 122.42 17.57 C 146.24 25.77 165.96 45.54 173.44 69.67 C 175.11 76.40 164.24 79.47 162.11 72.87 C 155.19 52.50 138.66 35.70 118.26 28.74 C 112.67 27.39 112.68 18.61 118.26 17.27 Z" />
<path fill="#ff633c" opacity="1.00" d=" M 78.52 46.40 C 83.93 37.29 88.48 27.50 95.00 19.13 C 99.24 22.06 100.70 27.34 103.50 31.44 C 106.56 37.38 111.02 42.71 112.81 49.22 C 103.82 51.51 94.24 49.64 85.01 50.28 C 82.41 50.47 76.32 50.60 78.52 46.40 Z" />
<path fill="#ff633c" opacity="1.00" d=" M 47.30 78.28 C 49.11 77.17 50.74 79.23 50.43 80.98 C 50.59 90.64 50.63 100.31 50.42 109.97 C 50.82 112.47 47.94 113.20 46.29 111.85 C 38.15 107.29 30.09 102.57 22.05 97.85 C 20.14 97.09 18.96 94.32 21.28 93.25 C 29.84 88.10 38.45 82.92 47.30 78.28 Z" />
<path fill="#ff633c" opacity="1.00" d=" M 141.39 78.40 C 142.42 77.28 143.95 78.55 145.05 78.93 C 153.09 83.56 161.17 88.15 169.14 92.91 C 171.15 93.73 171.63 96.46 169.47 97.44 C 160.73 102.59 152.06 107.98 143.00 112.55 C 139.16 112.52 140.72 107.48 140.37 104.99 C 141.08 96.24 139.05 86.66 141.39 78.40 Z" />
<path fill="#ff633c" opacity="1.00" d=" M 21.25 114.37 C 24.99 112.77 28.79 115.74 29.60 119.38 C 37.16 140.48 55.53 156.97 77.04 162.95 C 83.48 165.01 80.68 175.78 73.99 174.30 C 48.14 167.70 26.42 147.28 17.87 122.04 C 16.66 119.11 18.29 115.46 21.25 114.37 Z" />
<path fill="#ff633c" opacity="1.00" d=" M 165.26 114.36 C 169.71 112.32 175.03 117.34 173.08 121.89 C 165.03 145.84 145.12 165.52 121.00 173.07 C 114.27 174.87 111.09 163.87 117.66 161.74 C 137.05 155.14 153.43 139.91 160.75 120.70 C 161.73 118.31 162.52 115.31 165.26 114.36 Z" />
<path fill="#ff633c" opacity="1.00" d=" M 78.31 143.69 C 76.93 141.25 79.98 139.99 81.94 140.39 C 92.08 140.66 102.29 139.82 112.40 140.86 C 111.03 149.55 104.16 156.46 100.48 164.40 C 98.94 166.72 96.68 173.36 93.32 169.71 C 88.12 161.16 83.00 152.52 78.31 143.69 Z" />
</g>
</svg>
