<?xml version="1.0" encoding="UTF-8" ?>
<!DOCTYPE svg PUBLIC "-//W3C//DTD SVG 1.1//EN" "http://www.w3.org/Graphics/SVG/1.1/DTD/svg11.dtd">
<svg width="192pt" height="192pt" viewBox="0 0 192 192" version="1.1" xmlns="http://www.w3.org/2000/svg">
<g id="#49e46fff">
<path fill="#49e46f" opacity="1.00" d=" M 73.41 22.99 C 72.78 19.42 74.96 14.93 78.98 14.83 C 90.66 14.63 102.35 14.74 114.04 14.77 C 117.45 14.48 119.63 17.47 120.69 20.32 C 140.79 69.61 160.48 119.10 180.54 168.41 C 181.67 172.43 178.25 176.88 174.00 176.53 C 122.33 176.29 70.65 176.28 18.98 175.74 C 13.70 176.10 10.94 169.37 12.99 165.12 C 29.00 125.02 45.01 84.91 62.41 45.39 C 64.21 41.23 70.87 41.28 72.77 45.33 C 74.51 48.05 72.93 51.13 71.81 53.75 C 57.39 86.79 43.79 120.18 30.48 153.69 C 41.75 146.95 53.20 140.38 64.06 133.04 C 69.90 119.33 74.41 105.03 80.27 91.32 C 83.40 85.89 92.63 89.88 90.94 95.91 C 86.58 108.73 81.29 121.24 76.79 134.03 C 92.74 142.27 108.75 150.39 124.70 158.62 C 107.87 113.32 90.72 68.08 73.41 22.99 M 88.09 26.65 C 104.95 72.73 122.74 118.48 139.77 164.50 C 148.49 164.57 157.21 164.41 165.93 164.44 C 147.40 118.50 129.07 72.47 110.27 26.64 C 102.88 26.68 95.48 26.65 88.09 26.65 M 69.52 145.58 C 59.57 151.56 49.87 157.97 39.83 163.80 C 62.83 164.04 85.84 164.24 108.84 164.06 C 97.54 157.99 86.05 152.27 74.61 146.45 C 73.01 145.83 71.20 144.35 69.52 145.58 Z" />
</g>
</svg>
