<?xml version="1.0" encoding="UTF-8" ?>
<!DOCTYPE svg PUBLIC "-//W3C//DTD SVG 1.1//EN" "http://www.w3.org/Graphics/SVG/1.1/DTD/svg11.dtd">
<svg width="192pt" height="192pt" viewBox="0 0 192 192" version="1.1" xmlns="http://www.w3.org/2000/svg">
<g id="#bc46f3ff">
<path fill="#bc46f3" opacity="1.00" d=" M 14.32 83.64 C 14.53 48.05 46.48 16.83 81.95 16.86 C 84.69 22.35 82.57 29.62 83.38 35.80 C 96.19 36.85 106.82 47.55 107.70 60.38 C 113.39 67.72 123.83 70.02 128.96 78.13 C 130.31 80.48 129.10 83.95 126.00 83.47 C 88.77 83.17 51.54 84.33 14.32 83.64 M 26.25 73.16 C 52.60 73.64 78.94 72.92 105.29 72.83 C 100.96 69.80 97.04 65.58 96.78 60.00 C 96.16 52.26 89.08 46.75 81.62 46.30 C 73.43 44.68 71.98 35.30 72.55 28.34 C 50.16 32.61 30.92 50.71 26.25 73.16 Z" />
<path fill="#bc46f3" opacity="1.00" d=" M 76.40 55.50 C 80.46 52.67 86.49 57.26 84.74 61.90 C 83.87 65.84 78.36 67.21 75.55 64.47 C 72.82 62.12 73.24 57.28 76.40 55.50 Z" />
<path fill="#bc46f3" opacity="1.00" d=" M 146.00 70.07 C 153.78 65.18 162.01 61.03 170.08 56.64 C 175.58 66.88 178.55 79.06 177.34 90.66 C 164.12 90.26 151.21 82.44 146.00 70.07 Z" />
<path fill="#bc46f3" opacity="1.00" d=" M 131.25 77.91 C 134.01 76.55 136.63 73.94 139.78 73.98 C 147.52 86.18 160.73 95.02 175.34 95.95 C 176.21 131.73 147.88 165.13 112.87 171.76 C 82.33 178.76 48.42 164.96 31.20 138.87 C 69.86 124.76 108.83 111.45 147.56 97.53 C 148.58 96.98 149.30 96.14 149.73 95.00 C 143.82 89.05 137.19 83.85 131.25 77.91 M 158.75 104.78 C 122.14 117.77 85.49 130.64 48.88 143.59 C 60.63 155.01 76.57 162.10 92.95 162.91 C 111.11 163.76 129.59 157.30 142.99 144.96 C 154.32 134.48 162.06 120.11 164.40 104.85 C 162.53 104.57 160.57 103.96 158.75 104.78 Z" />
<path fill="#bc46f3" opacity="1.00" d=" M 14.34 91.39 C 39.56 90.89 64.82 91.00 90.04 91.20 C 90.71 97.84 90.11 104.53 90.50 111.18 C 71.45 118.59 51.89 124.73 32.67 131.72 C 30.44 132.22 26.89 134.35 25.46 131.55 C 18.20 119.53 14.00 105.48 14.34 91.39 M 25.36 101.56 C 26.56 108.23 28.63 114.72 31.45 120.89 C 47.62 115.33 63.83 109.82 79.83 103.83 C 79.79 103.27 79.70 102.15 79.65 101.59 C 61.55 101.60 43.46 101.55 25.36 101.56 Z" />
</g>
</svg>
