<?xml version="1.0" encoding="UTF-8" ?>
<!DOCTYPE svg PUBLIC "-//W3C//DTD SVG 1.1//EN" "http://www.w3.org/Graphics/SVG/1.1/DTD/svg11.dtd">
<svg width="192pt" height="192pt" viewBox="0 0 192 192" version="1.1" xmlns="http://www.w3.org/2000/svg">
<g id="#ff881fff">
<path fill="#ff881f" opacity="1.00" d=" M 20.20 25.11 C 22.65 23.91 25.05 25.70 26.99 27.04 C 46.31 41.06 65.74 54.94 85.04 68.99 C 87.87 70.78 87.94 75.32 85.07 77.11 C 68.23 89.28 51.24 101.25 34.38 113.39 C 32.50 114.84 29.78 115.96 27.66 114.30 C 22.41 110.29 19.56 103.58 19.37 97.07 C 19.01 75.03 18.58 53.00 18.22 30.96 C 18.20 28.89 18.25 26.37 20.20 25.11 M 29.72 43.02 C 30.40 62.37 29.67 81.86 31.31 101.12 C 45.07 92.50 58.00 82.42 71.27 73.00 C 57.47 62.93 43.64 52.91 29.72 43.02 Z" />
<path fill="#ff881f" opacity="1.00" d=" M 169.30 25.29 C 172.54 24.61 174.14 28.30 173.80 30.98 C 173.53 53.34 173.10 75.71 172.67 98.07 C 172.51 104.66 169.26 111.09 164.04 115.12 C 143.95 131.00 123.90 146.94 103.80 162.80 C 99.42 166.44 92.61 166.40 88.24 162.78 C 72.31 150.04 56.45 137.21 40.53 124.46 C 37.66 122.45 38.10 117.79 41.14 116.17 C 81.76 87.10 122.37 58.02 163.09 29.09 C 165.11 27.78 166.92 25.90 169.30 25.29 M 54.14 120.67 C 67.88 132.18 81.98 143.27 96.00 154.44 C 116.31 138.66 136.34 122.52 156.55 106.62 C 159.61 104.41 161.53 100.79 161.40 96.99 C 161.66 79.21 162.12 61.43 162.26 43.65 C 126.07 69.11 90.24 95.09 54.14 120.67 Z" />
</g>
</svg>
