<?xml version="1.0" encoding="UTF-8" ?>
<!DOCTYPE svg PUBLIC "-//W3C//DTD SVG 1.1//EN" "http://www.w3.org/Graphics/SVG/1.1/DTD/svg11.dtd">
<svg width="192pt" height="192pt" viewBox="0 0 192 192" version="1.1" xmlns="http://www.w3.org/2000/svg">
<g id="#4d7cffff">
<path fill="#4d7cff" opacity="1.00" d=" M 89.37 19.41 C 93.77 16.38 99.70 15.90 104.28 18.83 C 121.75 29.16 139.57 38.89 157.11 49.11 C 161.84 46.96 165.90 43.16 170.99 41.97 C 176.76 41.58 178.99 50.36 173.68 52.71 C 139.03 72.69 104.43 92.79 69.70 112.62 C 63.89 116.10 58.33 106.48 63.98 103.05 C 91.19 86.95 118.88 71.61 146.01 55.38 C 132.01 47.27 117.96 39.23 103.91 31.21 C 99.80 28.68 94.43 28.84 90.38 31.41 C 76.61 39.32 62.81 47.18 49.05 55.11 C 44.74 57.42 41.93 62.07 41.97 66.98 C 41.73 85.98 41.82 104.99 42.11 123.99 C 41.94 125.85 42.63 128.54 40.43 129.44 C 33.59 133.35 26.84 137.45 19.90 141.17 C 15.17 143.52 9.96 137.31 13.01 132.99 C 17.72 127.60 26.59 126.78 30.30 120.52 C 30.89 100.07 30.24 79.52 30.60 59.03 C 30.67 55.04 33.13 51.43 36.56 49.50 C 54.10 39.36 71.94 29.74 89.37 19.41 Z" />
<path fill="#4d7cff" opacity="1.00" d=" M 158.37 76.45 C 161.47 76.15 164.51 78.84 164.42 82.00 C 164.54 97.32 164.42 112.65 164.50 127.98 C 164.67 133.24 160.26 136.86 156.07 139.16 C 138.33 149.50 120.47 159.67 102.32 169.27 C 97.89 171.81 92.90 169.33 88.95 167.07 C 74.33 158.69 59.41 150.76 45.08 141.91 C 40.10 138.18 45.17 129.57 50.88 132.15 C 64.25 140.15 77.66 148.17 91.32 155.70 C 95.63 158.16 101.11 157.82 105.30 155.26 C 118.81 147.46 132.31 139.63 145.85 131.88 C 150.19 129.61 153.17 125.00 153.02 120.04 C 153.07 107.34 152.94 94.64 153.06 81.94 C 152.98 79.05 155.59 76.65 158.37 76.45 Z" />
</g>
</svg>
