<?xml version="1.0" encoding="UTF-8" ?>
<!DOCTYPE svg PUBLIC "-//W3C//DTD SVG 1.1//EN" "http://www.w3.org/Graphics/SVG/1.1/DTD/svg11.dtd">
<svg width="192pt" height="192pt" viewBox="0 0 192 192" version="1.1" xmlns="http://www.w3.org/2000/svg">
<g id="#43c3d9ff">
<path fill="#43c3d9" opacity="1.00" d=" M 90.31 18.30 C 93.35 16.14 97.59 16.24 100.61 18.37 C 124.67 33.67 148.75 48.93 172.81 64.23 C 175.37 65.44 176.00 68.37 175.85 70.96 C 175.82 103.32 175.86 135.69 175.84 168.06 C 176.28 171.41 173.47 174.77 170.02 174.51 C 120.34 174.56 70.65 174.56 20.98 174.51 C 17.02 175.01 14.79 169.34 17.88 166.91 C 31.91 152.96 45.80 138.84 59.90 124.96 C 64.36 120.57 71.89 127.25 68.19 132.24 C 58.36 142.84 47.77 152.76 37.69 163.14 C 76.21 163.24 114.74 163.23 153.26 163.15 C 143.30 152.97 133.04 143.08 123.17 132.83 C 118.81 128.35 125.46 120.73 130.45 124.54 C 142.10 135.51 153.00 147.29 164.59 158.34 C 164.62 131.75 164.75 105.16 164.52 78.58 C 164.10 78.25 163.26 77.59 162.84 77.26 C 141.68 90.15 120.98 103.82 99.96 116.93 C 97.06 118.85 93.18 118.60 90.37 116.65 C 70.19 103.83 49.98 91.04 29.82 78.19 C 28.81 77.50 27.60 77.24 26.42 77.00 C 26.10 100.67 26.54 124.36 26.21 148.02 C 25.94 154.43 14.97 154.93 15.14 148.05 C 14.90 122.02 15.07 95.96 15.06 69.93 C 14.50 65.44 19.07 62.89 22.97 62.88 C 27.63 62.48 31.30 65.76 34.97 68.09 C 55.03 80.93 75.22 93.56 95.24 106.46 C 115.91 93.71 136.21 80.35 156.87 67.57 C 136.41 54.41 115.88 41.36 95.27 28.46 C 78.17 39.37 61.12 50.38 43.86 61.01 C 38.12 63.96 33.04 54.78 38.39 51.37 C 55.60 40.21 73.02 29.34 90.31 18.30 Z" />
<path fill="#43c3d9" opacity="1.00" d=" M 53.42 72.83 C 56.95 70.88 61.08 70.31 65.02 71.13 C 77.86 73.41 89.70 80.45 102.97 80.39 C 115.14 80.27 125.48 72.18 137.55 71.69 C 124.80 81.37 111.42 90.20 98.41 99.51 C 96.48 101.36 93.78 100.71 91.95 99.12 C 79.18 90.25 65.95 82.03 53.42 72.83 Z" />
</g>
</svg>
