<?xml version="1.0" encoding="UTF-8" ?>
<!DOCTYPE svg PUBLIC "-//W3C//DTD SVG 1.1//EN" "http://www.w3.org/Graphics/SVG/1.1/DTD/svg11.dtd">
<svg width="192pt" height="192pt" viewBox="0 0 192 192" version="1.1" xmlns="http://www.w3.org/2000/svg">
<g id="#77729bff">
<path fill="#77729b" opacity="1.00" d=" M 86.38 13.50 C 100.99 12.06 116.21 14.04 129.45 20.56 C 134.78 24.01 129.65 33.02 123.94 30.15 C 103.08 21.06 77.88 22.55 58.48 34.55 C 33.15 49.54 19.33 81.25 25.88 109.99 C 31.73 140.18 59.35 164.15 90.00 166.03 C 113.48 168.02 137.43 157.33 151.68 138.58 C 167.69 118.34 170.89 89.25 160.18 65.85 C 156.73 59.96 166.41 54.38 169.75 60.23 C 179.94 80.87 180.25 106.00 171.26 127.14 C 160.37 153.36 135.11 172.93 106.93 176.69 C 74.60 181.75 40.44 165.10 24.29 136.69 C 12.02 115.95 9.71 89.70 18.08 67.12 C 28.36 38.28 55.89 16.58 86.38 13.50 Z" />
<path fill="#77729b" opacity="1.00" d=" M 132.81 36.06 C 138.76 29.57 145.15 23.47 151.31 17.16 C 154.02 22.61 153.73 29.13 156.47 34.50 C 161.82 36.50 167.58 37.10 172.97 38.99 C 167.08 45.41 160.90 51.61 154.60 57.63 C 150.62 57.82 146.78 55.93 142.84 55.38 C 134.02 64.46 125.31 73.66 116.01 82.26 C 123.88 95.04 117.62 113.80 102.94 118.08 C 86.98 124.21 68.64 108.92 71.53 92.14 C 73.07 75.33 94.04 65.50 108.11 74.68 C 117.16 65.78 126.01 56.69 135.01 47.74 C 134.50 43.81 132.77 40.00 132.81 36.06 M 83.32 91.26 C 80.54 98.55 86.21 107.25 93.92 107.91 C 102.64 109.30 110.88 99.63 107.29 91.32 C 104.25 94.07 101.69 98.82 96.97 98.39 C 92.72 98.25 90.70 92.46 93.29 89.39 C 95.16 87.16 97.31 85.17 99.19 82.95 C 92.75 81.10 85.32 84.77 83.32 91.26 Z" />
<path fill="#77729b" opacity="1.00" d=" M 86.27 44.35 C 94.96 42.90 104.12 43.41 112.42 46.47 C 116.31 47.78 117.37 53.48 114.08 56.02 C 111.26 58.82 107.29 56.54 104.06 55.93 C 86.49 51.75 67.09 61.06 59.29 77.33 C 51.92 91.55 54.43 110.03 65.14 121.90 C 75.69 134.15 93.99 138.86 109.11 133.10 C 130.27 125.99 141.88 99.82 132.52 79.44 C 128.79 73.55 138.01 67.41 141.93 73.04 C 150.94 90.29 148.02 112.65 135.75 127.61 C 122.83 144.06 99.42 151.28 79.56 144.50 C 57.92 137.83 42.33 115.71 43.73 93.04 C 44.30 69.49 63.09 48.20 86.27 44.35 Z" />
</g>
</svg>
