<?xml version="1.0" encoding="UTF-8" ?>
<!DOCTYPE svg PUBLIC "-//W3C//DTD SVG 1.1//EN" "http://www.w3.org/Graphics/SVG/1.1/DTD/svg11.dtd">
<svg width="192pt" height="192pt" viewBox="0 0 192 192" version="1.1" xmlns="http://www.w3.org/2000/svg">
<g id="#ff3661ff">
<path fill="#ff3661" opacity="1.00" d=" M 37.40 21.47 C 38.79 20.67 40.46 20.81 41.99 20.72 C 77.34 20.77 112.68 20.70 148.03 20.74 C 152.22 20.14 155.79 24.99 153.73 28.77 C 152.50 31.83 148.86 32.13 146.01 32.13 C 110.37 32.09 74.71 32.28 39.08 31.73 C 34.13 31.19 33.04 23.67 37.40 21.47 Z" />
<path fill="#ff3661" opacity="1.00" d=" M 21.34 40.40 C 23.47 39.64 25.76 39.61 28.00 39.58 C 72.99 39.66 117.99 39.54 162.98 39.63 C 170.56 39.45 177.22 46.39 176.83 53.94 C 176.85 83.98 176.90 114.02 176.82 144.06 C 177.04 156.15 166.11 166.83 154.06 166.54 C 114.04 166.54 74.01 166.59 33.99 166.50 C 22.24 166.38 11.93 155.82 12.08 144.06 C 12.00 114.02 12.05 83.98 12.06 53.94 C 11.84 48.03 15.74 42.31 21.34 40.40 M 23.57 51.50 C 23.11 82.01 23.51 112.54 23.36 143.05 C 22.85 149.51 28.49 155.51 35.00 155.24 C 74.66 155.28 114.33 155.28 154.00 155.22 C 160.45 155.43 166.03 149.47 165.56 143.07 C 165.51 113.36 165.68 83.65 165.48 53.95 C 165.97 51.30 163.06 50.76 161.04 50.83 C 120.03 50.83 79.02 50.82 38.00 50.82 C 33.19 50.82 28.32 50.52 23.57 51.50 Z" />
<path fill="#ff3661" opacity="1.00" d=" M 95.01 76.97 C 98.16 72.59 104.30 73.51 109.00 73.66 C 112.55 74.02 111.54 78.50 111.97 80.97 C 112.35 95.94 114.18 110.95 113.77 125.89 C 110.27 126.78 106.56 126.50 103.01 126.05 C 101.65 122.74 102.22 118.99 101.81 115.49 C 95.62 115.49 89.43 115.49 83.24 115.48 C 80.71 118.95 79.35 123.40 76.01 126.18 C 72.24 126.66 68.42 126.35 64.64 126.06 C 65.66 121.54 68.65 117.91 70.85 113.93 C 78.46 101.34 86.01 88.64 95.01 76.97 M 87.76 105.88 C 92.51 106.03 97.27 106.07 102.03 106.01 C 101.73 99.19 101.57 92.35 101.08 85.54 C 96.15 91.98 92.05 99.00 87.76 105.88 Z" />
<path fill="#ff3661" opacity="1.00" d=" M 63.69 130.04 C 79.53 137.09 97.50 136.16 113.50 130.13 C 100.90 142.75 76.12 143.32 63.69 130.04 Z" />
</g>
</svg>
