<?xml version="1.0" encoding="UTF-8" ?>
<!DOCTYPE svg PUBLIC "-//W3C//DTD SVG 1.1//EN" "http://www.w3.org/Graphics/SVG/1.1/DTD/svg11.dtd">
<svg width="192pt" height="192pt" viewBox="0 0 192 192" version="1.1" xmlns="http://www.w3.org/2000/svg">
<g id="#ff3664ff">
<path fill="#ff3664" opacity="1.00" d=" M 110.82 18.71 C 115.38 17.71 120.99 16.76 124.81 20.15 C 128.75 24.32 131.43 29.48 134.90 34.03 C 147.03 50.27 161.59 64.87 171.13 82.93 C 175.16 90.31 173.26 98.98 173.20 106.98 C 173.02 112.92 174.77 119.69 170.85 124.84 C 164.55 132.27 151.81 129.88 146.68 138.59 C 136.48 151.50 119.85 157.41 103.90 158.70 C 90.88 160.20 77.93 157.49 65.17 155.16 C 54.46 166.87 38.65 173.08 22.96 173.46 C 19.08 173.25 16.84 168.22 19.14 165.15 C 20.92 162.64 24.29 162.87 27.00 162.46 C 38.96 161.27 50.76 155.81 58.34 146.32 C 60.36 143.28 64.31 143.87 67.35 144.60 C 83.14 148.34 99.96 150.18 115.80 145.73 C 125.19 143.15 134.26 138.05 139.82 129.85 C 144.30 121.40 155.91 123.08 162.61 117.60 C 163.03 112.44 161.16 107.43 160.57 102.34 C 158.73 91.70 158.08 79.90 150.69 71.33 C 138.95 56.98 127.72 42.24 116.76 27.30 C 107.08 31.38 96.85 33.94 87.24 38.21 C 84.62 39.19 84.86 42.55 84.03 44.78 C 88.51 46.31 93.01 47.81 97.58 49.07 C 98.35 43.67 101.51 37.01 107.99 37.59 C 118.63 39.18 129.67 49.44 127.22 60.99 C 126.08 69.26 123.54 77.60 125.13 86.00 C 125.84 91.61 128.29 96.74 130.06 102.05 C 131.60 106.05 126.67 110.14 123.01 108.09 C 119.76 106.04 117.28 102.97 114.01 100.93 C 105.48 94.89 93.52 93.37 84.08 98.15 C 79.42 100.34 76.50 106.66 70.61 105.57 C 63.49 103.80 60.97 95.40 54.30 92.73 C 45.16 89.04 34.22 89.54 25.80 94.88 C 20.57 98.00 15.30 89.62 20.12 86.12 C 35.81 75.19 60.34 77.91 71.81 93.84 C 83.06 83.17 101.04 82.11 114.60 88.76 C 112.79 78.77 114.89 68.77 116.58 58.94 C 117.64 53.90 112.36 50.97 108.84 48.59 C 107.67 52.86 107.55 59.04 102.48 60.60 C 96.53 61.25 91.07 57.87 85.37 56.65 C 80.10 55.01 72.30 52.86 72.41 46.02 C 73.98 39.57 75.35 31.01 82.61 28.59 C 91.93 25.08 101.18 21.26 110.82 18.71 Z" />
</g>
</svg>
