<?xml version="1.0" encoding="UTF-8" ?>
<!DOCTYPE svg PUBLIC "-//W3C//DTD SVG 1.1//EN" "http://www.w3.org/Graphics/SVG/1.1/DTD/svg11.dtd">
<svg width="192pt" height="192pt" viewBox="0 0 192 192" version="1.1" xmlns="http://www.w3.org/2000/svg">
<g id="#1bb4ffff">
<path fill="#1bb4ff" opacity="1.00" d=" M 91.32 19.40 C 96.64 18.14 102.29 19.31 106.98 22.03 C 124.82 31.88 142.81 41.49 160.60 51.43 C 164.95 53.67 162.95 61.06 158.02 60.67 C 116.69 60.76 75.34 60.70 34.00 60.65 C 28.82 61.33 26.56 53.46 31.30 51.28 C 48.46 41.74 65.77 32.44 82.97 22.94 C 85.62 21.48 88.33 20.02 91.32 19.40 M 86.36 32.36 C 73.59 39.01 60.76 45.56 48.00 52.23 C 79.76 52.32 111.53 52.33 143.29 52.19 C 130.52 45.50 117.72 38.86 104.92 32.24 C 99.24 29.17 92.01 29.30 86.36 32.36 Z" />
<path fill="#1bb4ff" opacity="1.00" d=" M 41.34 67.50 C 44.51 67.05 47.65 69.78 47.51 73.00 C 47.72 88.00 47.36 103.01 47.68 118.00 C 47.85 124.12 57.65 124.65 58.52 118.64 C 58.98 105.10 58.50 91.53 58.74 77.98 C 58.71 72.80 63.01 68.00 68.18 67.55 C 72.78 67.27 77.40 67.36 82.00 67.48 C 87.49 67.56 92.22 72.51 92.24 77.97 C 92.53 91.53 92.03 105.11 92.47 118.65 C 93.26 124.14 101.99 124.37 103.11 118.94 C 104.01 104.30 102.47 89.48 103.88 74.89 C 106.68 65.71 117.62 67.32 125.07 67.40 C 130.71 66.91 136.38 71.23 136.78 76.98 C 137.27 90.94 136.45 104.95 137.19 118.89 C 138.17 124.25 146.73 124.21 147.77 118.89 C 148.41 103.30 147.60 87.64 148.16 72.04 C 148.76 66.05 158.38 66.05 159.09 71.99 C 159.50 88.65 159.14 105.34 159.27 122.01 C 159.74 127.55 155.58 133.26 149.88 133.68 C 145.26 133.92 140.61 133.82 135.98 133.75 C 130.35 133.81 125.53 128.60 125.71 123.03 C 125.55 109.73 125.89 96.42 125.57 83.13 C 125.32 77.17 115.73 76.64 114.78 82.51 C 114.24 96.32 114.86 110.18 114.50 124.00 C 114.26 130.18 107.97 134.64 102.03 133.80 C 94.79 133.88 84.26 135.33 81.58 126.42 C 80.11 111.79 81.80 96.91 80.75 82.24 C 79.54 76.67 70.48 77.26 70.08 82.96 C 69.53 96.63 70.15 110.35 69.80 124.03 C 69.59 129.07 65.07 133.58 60.01 133.70 C 55.34 133.82 50.65 133.86 45.98 133.67 C 40.69 133.35 36.30 128.34 36.43 123.07 C 36.42 106.38 36.36 89.69 36.47 73.00 C 36.35 70.24 38.63 67.78 41.34 67.50 Z" />
<path fill="#1bb4ff" opacity="1.00" d=" M 39.34 142.23 C 41.08 141.36 43.11 141.60 45.00 141.51 C 80.00 141.62 115.02 141.39 150.02 141.59 C 157.13 141.31 157.11 153.11 150.03 152.79 C 114.02 152.90 78.00 152.86 41.99 152.76 C 36.35 153.16 34.29 144.60 39.34 142.23 Z" />
<path fill="#1bb4ff" opacity="1.00" d=" M 25.34 160.45 C 72.17 160.09 119.05 160.23 165.89 160.33 C 172.37 160.59 172.33 171.26 165.84 171.46 C 119.29 171.63 72.72 171.59 26.17 171.44 C 20.05 171.37 19.30 161.44 25.34 160.45 Z" />
</g>
</svg>
