<?xml version="1.0" encoding="UTF-8" ?>
<!DOCTYPE svg PUBLIC "-//W3C//DTD SVG 1.1//EN" "http://www.w3.org/Graphics/SVG/1.1/DTD/svg11.dtd">
<svg width="192pt" height="192pt" viewBox="0 0 192 192" version="1.1" xmlns="http://www.w3.org/2000/svg">
<g id="#ff663bff">
<path fill="#ff663b" opacity="1.00" d=" M 88.34 18.41 C 101.92 15.80 116.63 20.88 125.62 31.41 C 135.05 41.95 137.95 57.70 133.02 70.93 C 128.20 84.29 115.76 94.60 101.66 96.57 C 87.71 98.88 72.85 92.96 64.24 81.75 C 55.41 70.76 53.38 54.88 58.95 41.96 C 64.00 29.85 75.41 20.69 88.34 18.41 M 90.38 29.48 C 77.45 31.66 67.00 43.81 67.19 56.99 C 66.74 68.81 74.77 80.21 85.89 84.07 C 96.64 88.08 109.58 84.76 117.05 76.05 C 125.75 66.48 126.44 50.77 118.50 40.53 C 112.21 31.85 100.88 27.51 90.38 29.48 Z" />
<path fill="#ff663b" opacity="1.00" d=" M 43.34 94.43 C 56.78 91.36 71.57 95.95 80.93 106.06 C 90.62 116.13 94.12 131.54 89.90 144.83 C 85.30 160.36 70.27 172.12 54.07 172.69 C 41.97 173.48 29.76 168.27 21.85 159.10 C 12.82 148.96 9.77 133.98 13.99 121.09 C 18.08 107.81 29.76 97.27 43.34 94.43 M 45.37 105.52 C 28.97 108.81 18.70 128.23 25.41 143.61 C 31.17 159.20 51.58 166.46 65.85 157.86 C 79.71 150.54 84.75 131.07 75.97 118.02 C 69.77 107.96 56.86 102.57 45.37 105.52 Z" />
<path fill="#ff663b" opacity="1.00" d=" M 130.39 94.51 C 143.83 91.33 158.73 95.73 168.16 105.85 C 178.51 116.36 181.93 132.90 176.74 146.69 C 171.41 161.82 156.10 172.78 140.02 172.72 C 126.12 173.24 112.45 165.56 105.31 153.70 C 98.98 143.47 97.80 130.31 102.10 119.10 C 106.65 106.88 117.65 97.31 130.39 94.51 M 133.33 105.41 C 117.41 108.31 106.74 126.52 112.22 141.82 C 116.82 157.55 136.25 166.15 151.01 159.01 C 165.70 152.88 172.38 133.45 164.37 119.64 C 158.61 108.78 145.34 102.57 133.33 105.41 Z" />
</g>
</svg>
