<?xml version="1.0" encoding="UTF-8" ?>
<!DOCTYPE svg PUBLIC "-//W3C//DTD SVG 1.1//EN" "http://www.w3.org/Graphics/SVG/1.1/DTD/svg11.dtd">
<svg width="192pt" height="192pt" viewBox="0 0 192 192" version="1.1" xmlns="http://www.w3.org/2000/svg">
<g id="#a3e736ff">
<path fill="#a3e736" opacity="1.00" d=" M 39.38 21.55 C 43.17 20.54 47.12 20.74 51.00 20.73 C 83.33 20.78 115.67 20.68 148.00 20.76 C 159.83 20.76 170.46 31.10 170.78 42.93 C 170.80 50.18 171.20 57.49 170.57 64.72 C 169.49 69.83 161.26 69.97 160.02 64.89 C 159.06 57.36 160.22 49.72 159.47 42.17 C 158.61 35.84 152.24 31.38 146.02 31.83 C 112.67 31.83 79.31 31.76 45.95 31.82 C 40.03 31.69 34.20 36.14 33.43 42.13 C 32.73 49.69 33.93 57.36 32.85 64.88 C 31.62 69.92 23.50 69.80 22.37 64.75 C 21.70 57.84 22.20 50.86 22.11 43.93 C 22.00 33.69 29.53 24.13 39.38 21.55 Z" />
<path fill="#a3e736" opacity="1.00" d=" M 70.81 80.80 C 77.32 75.06 87.09 76.32 94.27 80.10 C 93.37 82.74 92.35 85.35 91.25 87.92 C 87.61 86.45 83.80 85.09 79.80 85.54 C 82.88 91.72 92.48 89.92 96.24 96.14 C 96.24 90.12 96.16 84.10 96.32 78.08 C 104.46 78.51 113.69 76.12 120.83 81.17 C 125.50 84.37 127.04 90.15 127.57 95.48 C 129.71 89.72 131.02 83.52 134.01 78.13 C 138.19 77.94 142.47 77.65 146.62 78.34 C 151.10 89.59 154.55 101.28 158.34 112.79 C 154.78 112.87 151.22 112.86 147.66 112.82 C 146.41 105.86 138.85 108.57 133.81 108.12 C 133.19 109.68 132.60 111.24 132.00 112.80 C 128.54 112.86 125.07 112.85 121.61 112.77 C 122.06 111.13 122.54 109.50 123.03 107.87 C 115.96 115.02 105.34 112.46 96.37 112.75 C 96.27 110.91 96.21 109.07 96.14 107.24 C 90.22 115.10 79.04 114.62 71.10 110.34 C 71.01 110.97 70.82 112.22 70.72 112.85 C 67.29 112.82 63.85 112.83 60.42 112.77 C 59.75 111.25 59.09 109.72 58.42 108.20 C 54.58 107.85 50.72 107.80 46.88 108.16 C 45.77 114.38 39.24 112.75 34.60 112.74 C 38.47 101.29 42.24 89.77 46.63 78.52 C 50.82 77.51 55.32 77.79 59.57 78.36 C 63.20 86.93 65.47 96.03 68.72 104.76 C 69.69 103.03 70.66 101.29 71.72 99.61 C 76.03 101.44 80.95 105.08 85.74 102.76 C 84.88 98.20 78.40 98.99 75.09 96.90 C 68.42 94.98 65.78 85.71 70.81 80.80 M 107.28 87.07 C 106.98 92.55 107.01 98.05 107.22 103.53 C 118.61 105.52 118.80 85.02 107.28 87.07 M 52.72 88.60 C 51.56 92.20 50.45 95.81 49.39 99.44 C 51.57 99.49 53.76 99.50 55.95 99.49 C 54.98 95.83 53.85 92.22 52.72 88.60 M 139.76 88.79 C 138.68 92.34 137.61 95.89 136.69 99.48 C 138.81 99.48 140.93 99.48 143.05 99.45 C 142.02 95.87 140.90 92.33 139.76 88.79 Z" />
<path fill="#a3e736" opacity="1.00" d=" M 26.40 121.44 C 29.38 120.70 32.72 122.90 33.05 125.99 C 33.68 133.26 32.88 140.59 33.41 147.87 C 34.09 153.92 39.92 158.69 45.99 158.33 C 79.66 158.32 113.34 158.32 147.02 158.29 C 153.05 158.59 158.79 153.84 159.48 147.83 C 160.09 140.57 159.28 133.26 159.83 126.00 C 160.10 121.93 165.52 119.85 168.60 122.39 C 171.08 124.07 170.88 127.34 170.91 129.98 C 170.78 136.28 171.13 142.59 170.67 148.87 C 169.58 160.11 159.33 169.44 148.05 169.52 C 113.69 169.60 79.31 169.57 44.95 169.51 C 33.37 169.47 22.89 159.66 22.19 148.09 C 21.92 141.05 22.01 133.98 22.12 126.93 C 22.03 124.37 23.89 121.94 26.40 121.44 Z" />
</g>
</svg>
