<?xml version="1.0" encoding="UTF-8" ?>
<!DOCTYPE svg PUBLIC "-//W3C//DTD SVG 1.1//EN" "http://www.w3.org/Graphics/SVG/1.1/DTD/svg11.dtd">
<svg width="192pt" height="192pt" viewBox="0 0 192 192" version="1.1" xmlns="http://www.w3.org/2000/svg">
<g id="#7d657aff">
<path fill="#7d657a" opacity="1.00" d=" M 63.84 51.77 C 77.90 49.05 91.79 44.80 105.95 43.02 C 120.88 53.53 134.98 65.32 149.55 76.38 C 153.48 80.23 159.32 79.90 164.18 81.76 C 170.92 83.41 176.21 89.92 175.82 96.96 C 175.54 104.02 176.40 111.18 175.31 118.17 C 173.12 126.88 163.41 130.72 155.16 129.29 C 152.56 136.46 146.69 142.66 138.93 143.92 C 128.72 146.14 118.27 139.16 115.27 129.39 C 106.19 129.17 97.09 129.64 88.02 129.17 C 83.12 128.03 83.06 120.18 88.09 119.24 C 97.21 118.69 106.38 119.38 115.51 118.89 C 118.32 108.25 130.53 101.48 141.01 104.99 C 147.70 106.88 152.80 112.48 154.93 118.99 C 158.92 119.38 165.53 119.63 165.56 114.02 C 165.07 107.26 166.96 99.85 164.47 93.48 C 159.83 90.22 153.52 89.79 148.00 88.77 C 108.32 88.65 68.64 88.77 28.96 88.72 C 25.97 88.37 23.05 90.93 23.37 93.99 C 23.43 101.19 23.06 108.42 23.57 115.60 C 24.92 120.06 30.41 119.02 33.99 119.05 C 36.53 109.96 45.50 103.10 55.05 103.92 C 66.48 104.26 75.97 115.71 74.02 127.02 C 72.81 137.12 63.15 145.14 53.00 144.50 C 44.04 144.36 36.54 137.56 33.79 129.32 C 25.09 130.86 14.82 126.30 13.34 116.88 C 12.94 108.07 12.77 99.14 13.45 90.35 C 15.28 80.95 25.61 77.15 34.21 78.50 C 31.73 73.24 28.33 68.47 25.43 63.44 C 21.61 62.99 16.54 64.78 13.92 61.08 C 11.68 58.02 14.11 53.10 17.96 53.24 C 25.43 53.31 33.01 52.71 40.43 53.56 C 45.94 55.81 43.49 63.79 37.88 63.76 C 40.25 68.33 42.87 72.79 45.78 77.03 C 48.58 70.09 51.27 63.10 54.17 56.20 C 55.73 52.41 60.53 52.81 63.84 51.77 M 99.42 54.58 C 87.23 57.35 74.99 59.94 62.81 62.76 C 60.62 67.98 58.62 73.28 56.42 78.49 C 82.69 78.56 108.95 78.59 135.22 78.47 C 125.26 70.51 115.08 62.84 105.03 55.01 C 103.49 53.53 101.26 54.32 99.42 54.58 M 51.30 114.40 C 44.24 115.93 41.07 125.54 46.13 130.83 C 51.01 136.93 62.00 134.32 63.58 126.66 C 65.69 119.56 58.38 112.35 51.30 114.40 M 132.36 114.49 C 124.94 116.20 122.53 126.82 128.36 131.64 C 133.49 136.74 143.15 133.87 144.88 126.90 C 147.22 119.66 139.56 112.17 132.36 114.49 Z" />
</g>
</svg>
