<?xml version="1.0" encoding="UTF-8" ?>
<!DOCTYPE svg PUBLIC "-//W3C//DTD SVG 1.1//EN" "http://www.w3.org/Graphics/SVG/1.1/DTD/svg11.dtd">
<svg width="192pt" height="192pt" viewBox="0 0 192 192" version="1.1" xmlns="http://www.w3.org/2000/svg">
<g id="#18aeffff">
<path fill="#18aeff" opacity="1.00" d=" M 66.32 24.29 C 86.06 11.52 113.78 13.23 131.94 28.10 C 154.13 45.11 158.08 79.07 143.03 102.03 C 127.13 126.29 110.05 149.76 93.51 173.57 C 89.91 179.51 79.99 174.27 82.87 167.99 C 92.88 152.21 104.04 137.15 114.23 121.48 C 95.56 127.65 73.60 124.51 58.62 111.36 C 46.13 100.50 39.33 83.54 40.72 67.06 C 41.92 49.83 51.66 33.44 66.32 24.29 M 89.48 27.73 C 69.59 30.63 53.24 48.88 52.81 69.02 C 51.98 90.07 69.32 109.33 89.93 112.12 C 109.64 115.34 130.54 103.03 137.04 84.10 C 143.29 67.47 137.22 47.57 123.32 36.70 C 113.97 29.01 101.37 26.05 89.48 27.73 Z" />
</g>
</svg>
