<?xml version="1.0" encoding="UTF-8" ?>
<!DOCTYPE svg PUBLIC "-//W3C//DTD SVG 1.1//EN" "http://www.w3.org/Graphics/SVG/1.1/DTD/svg11.dtd">
<svg width="192pt" height="192pt" viewBox="0 0 192 192" version="1.1" xmlns="http://www.w3.org/2000/svg">
<g id="#ff633cff">
<path fill="#ff633c" opacity="1.00" d=" M 144.30 26.34 C 151.13 24.27 158.62 29.36 159.57 36.34 C 160.16 41.87 159.71 47.44 159.82 52.99 C 174.42 59.37 179.58 79.35 170.03 92.02 C 167.56 95.65 163.79 97.95 160.27 100.41 C 158.96 106.74 160.73 113.59 159.24 120.01 C 157.79 125.37 151.50 128.48 146.29 126.70 C 129.06 121.80 112.01 116.22 94.72 111.50 C 94.50 124.99 94.77 138.49 94.58 151.98 C 94.66 158.77 88.96 165.36 82.01 165.45 C 77.68 165.45 73.31 165.77 69.02 165.18 C 62.58 163.95 58.10 157.46 58.40 151.06 C 58.50 142.18 58.17 133.27 58.56 124.40 C 59.34 118.65 68.51 118.71 69.35 124.40 C 69.91 133.58 69.17 142.81 69.70 151.99 C 70.35 155.29 74.59 154.08 77.00 154.38 C 79.15 154.12 83.15 155.21 83.33 151.97 C 83.63 139.65 83.36 127.30 83.46 114.97 C 83.62 113.22 83.02 110.53 80.80 110.64 C 71.22 110.34 61.61 110.72 52.02 110.47 C 44.78 110.24 38.48 105.87 33.85 100.60 C 27.79 101.03 19.25 101.03 17.41 93.68 C 16.57 84.15 17.28 74.52 17.04 64.95 C 16.57 60.14 20.04 55.13 25.00 54.68 C 28.21 54.03 32.39 55.80 34.61 52.62 C 40.75 45.15 50.95 43.95 60.00 44.53 C 71.04 43.82 82.61 46.42 93.16 42.21 C 110.19 36.89 127.14 31.26 144.30 26.34 M 94.67 53.00 C 94.60 66.67 94.65 80.34 94.64 94.01 C 94.35 97.00 96.08 100.13 99.11 100.87 C 115.61 105.91 132.15 110.84 148.67 115.80 C 148.56 89.66 148.95 63.50 148.48 37.36 C 130.27 41.03 112.66 48.08 94.67 53.00 M 39.58 67.19 C 39.27 73.11 39.42 79.06 39.50 84.99 C 39.63 92.58 46.27 99.62 54.01 99.46 C 62.68 99.39 71.35 99.44 80.02 99.37 C 81.95 99.61 83.61 97.94 83.36 96.02 C 83.43 82.57 83.43 69.12 83.35 55.67 C 72.56 55.70 61.76 55.32 50.98 55.86 C 45.00 56.15 39.92 61.23 39.58 67.19 M 26.33 63.33 C 23.73 64.43 23.85 67.64 23.81 69.99 C 23.95 75.98 23.60 81.99 23.98 87.97 C 24.55 92.30 31.35 92.81 32.56 88.62 C 33.14 81.77 32.68 74.84 32.79 67.96 C 33.38 64.59 29.31 61.47 26.33 63.33 M 160.26 66.67 C 160.00 73.24 160.00 79.83 160.21 86.40 C 164.74 80.72 164.63 72.39 160.26 66.67 Z" />
</g>
</svg>
