<?xml version="1.0" encoding="UTF-8" ?>
<!DOCTYPE svg PUBLIC "-//W3C//DTD SVG 1.1//EN" "http://www.w3.org/Graphics/SVG/1.1/DTD/svg11.dtd">
<svg width="192pt" height="192pt" viewBox="0 0 192 192" version="1.1" xmlns="http://www.w3.org/2000/svg">
<g id="#ff871fff">
<path fill="#ff871f" opacity="1.00" d=" M 87.99 18.08 C 90.63 11.77 101.42 11.79 103.97 18.16 C 130.85 20.91 155.89 38.15 167.45 62.62 C 169.72 68.69 159.95 72.69 157.26 66.83 C 149.66 52.31 137.09 40.37 121.86 34.18 C 101.32 25.68 76.63 27.75 58.01 39.99 C 42.64 49.83 31.57 65.96 27.77 83.80 C 37.63 81.10 49.00 82.72 56.45 90.13 C 67.10 79.87 85.93 79.92 96.10 90.84 C 106.09 79.67 124.74 80.19 134.45 91.47 C 141.09 84.37 151.72 80.31 161.17 83.85 C 168.65 86.56 176.58 92.98 175.61 101.80 C 175.37 106.62 168.12 108.59 165.64 104.39 C 163.73 100.30 161.79 95.29 156.87 94.15 C 149.65 92.24 143.01 97.61 139.53 103.48 C 137.95 106.97 132.68 107.91 130.33 104.72 C 127.58 100.92 124.80 96.77 120.27 94.92 C 113.14 91.47 104.11 96.26 101.25 103.11 C 101.09 124.08 101.06 145.06 101.28 166.04 C 102.69 166.09 104.09 166.14 105.50 166.20 C 105.86 162.22 109.10 157.62 113.60 159.39 C 119.67 162.05 117.43 170.80 113.15 174.15 C 105.68 181.06 90.59 176.98 90.00 166.07 C 89.57 144.75 90.16 123.41 89.72 102.10 C 85.55 90.52 65.64 90.97 61.82 102.78 C 60.52 107.88 52.66 107.90 51.29 102.84 C 48.49 94.45 37.68 91.58 30.20 95.20 C 25.08 97.45 27.96 106.82 21.01 106.66 C 13.87 106.52 15.14 97.78 15.39 92.91 C 16.92 54.55 49.79 20.96 87.99 18.08 Z" />
</g>
</svg>
