<?xml version="1.0" encoding="UTF-8" ?>
<!DOCTYPE svg PUBLIC "-//W3C//DTD SVG 1.1//EN" "http://www.w3.org/Graphics/SVG/1.1/DTD/svg11.dtd">
<svg width="192pt" height="192pt" viewBox="0 0 192 192" version="1.1" xmlns="http://www.w3.org/2000/svg">
<g id="#a61affff">
<path fill="#a61aff" opacity="1.00" d=" M 84.38 13.46 C 117.56 8.50 152.44 26.32 167.99 56.01 C 185.06 86.61 179.42 127.82 154.52 152.53 C 132.74 175.60 97.06 183.70 67.37 172.62 C 46.58 165.16 29.17 148.92 20.21 128.73 C 8.64 103.32 11.31 72.08 27.13 49.05 C 40.02 29.78 61.37 16.43 84.38 13.46 M 86.42 24.54 C 65.11 27.09 45.45 40.03 34.47 58.43 C 23.02 77.17 21.16 101.30 29.41 121.62 C 39.88 148.55 68.04 167.33 96.98 166.19 C 128.21 166.12 157.31 142.76 164.44 112.42 C 170.14 90.14 164.23 65.27 148.84 48.14 C 133.64 30.51 109.47 21.52 86.42 24.54 Z" />
<path fill="#a61aff" opacity="1.00" d=" M 90.27 37.26 C 100.87 33.67 112.85 42.04 113.98 52.96 C 115.64 63.40 106.67 74.10 96.02 73.90 C 86.87 74.49 78.26 67.07 77.13 58.04 C 75.67 49.12 81.63 39.81 90.27 37.26 M 93.30 47.38 C 87.68 49.04 85.42 57.05 89.88 61.11 C 93.79 65.29 101.49 63.39 103.10 57.93 C 105.40 52.16 99.30 45.40 93.30 47.38 Z" />
<path fill="#a61aff" opacity="1.00" d=" M 131.42 66.58 C 141.27 64.82 151.24 72.56 152.60 82.34 C 154.25 91.67 147.69 101.48 138.39 103.42 C 128.89 105.82 118.41 99.43 116.20 89.89 C 113.25 79.62 120.87 68.04 131.42 66.58 M 131.38 77.52 C 126.00 79.47 124.35 87.47 128.85 91.19 C 133.00 95.38 141.03 92.83 142.03 87.02 C 143.65 81.12 137.13 75.08 131.38 77.52 Z" />
<path fill="#a61aff" opacity="1.00" d=" M 55.30 68.37 C 68.64 65.47 81.13 80.38 76.08 93.03 C 73.43 101.23 64.56 106.74 56.03 105.42 C 47.43 104.43 40.28 96.73 39.97 88.07 C 39.23 78.89 46.24 69.93 55.30 68.37 M 55.36 79.38 C 49.85 81.61 48.72 89.94 53.65 93.39 C 58.13 97.14 65.65 94.06 66.42 88.33 C 67.75 82.46 60.91 76.44 55.36 79.38 Z" />
<path fill="#a61aff" opacity="1.00" d=" M 93.28 87.39 C 99.01 85.16 105.66 91.00 103.88 96.96 C 102.73 103.00 94.25 105.37 90.06 100.93 C 85.76 97.01 87.51 88.82 93.28 87.39 Z" />
<path fill="#a61aff" opacity="1.00" d=" M 68.35 110.47 C 82.05 106.09 95.97 121.46 90.74 134.70 C 86.95 147.68 68.36 151.73 59.56 141.45 C 49.86 131.90 55.22 113.62 68.35 110.47 M 72.35 120.45 C 66.77 120.99 63.22 127.93 66.21 132.74 C 68.83 137.90 77.09 138.06 79.89 132.98 C 83.63 127.76 78.68 119.60 72.35 120.45 Z" />
<path fill="#a61aff" opacity="1.00" d=" M 112.37 110.52 C 124.53 105.70 138.58 117.29 136.88 130.05 C 136.26 140.22 126.04 148.50 115.97 146.87 C 107.89 145.92 100.99 139.12 99.95 131.05 C 98.55 122.39 104.11 113.35 112.37 110.52 M 116.30 120.38 C 110.82 121.87 108.34 129.45 112.34 133.66 C 115.83 138.05 123.58 136.91 125.64 131.69 C 128.64 125.95 122.55 118.41 116.30 120.38 Z" />
</g>
</svg>
