<?xml version="1.0" encoding="UTF-8" ?>
<!DOCTYPE svg PUBLIC "-//W3C//DTD SVG 1.1//EN" "http://www.w3.org/Graphics/SVG/1.1/DTD/svg11.dtd">
<svg width="192pt" height="192pt" viewBox="0 0 192 192" version="1.1" xmlns="http://www.w3.org/2000/svg">
<g id="#ff3664ff">
<path fill="#ff3664" opacity="1.00" d=" M 92.42 25.53 C 87.96 21.59 93.22 13.77 98.55 16.46 C 106.43 21.80 109.75 33.15 105.93 41.92 C 103.73 47.87 97.81 51.87 97.26 58.54 C 113.85 58.89 130.45 58.47 147.04 58.74 C 157.06 59.06 165.57 67.68 166.48 77.54 C 169.76 101.71 174.33 125.74 176.66 150.02 C 178.00 166.58 158.18 178.76 143.62 171.41 C 131.55 165.82 128.58 151.46 121.07 141.61 C 104.26 141.58 87.46 141.65 70.66 141.57 C 65.75 148.85 62.09 156.90 57.13 164.16 C 51.38 172.12 40.24 175.63 31.01 172.10 C 20.13 168.73 13.52 156.47 15.64 145.46 C 19.14 122.33 22.43 99.17 26.08 76.07 C 27.14 67.09 34.88 59.47 43.95 58.86 C 52.96 58.53 62.00 58.86 71.02 58.70 C 73.56 58.76 76.69 58.36 78.43 60.66 C 81.32 63.69 79.13 69.51 74.89 69.63 C 65.24 69.90 55.58 69.53 45.94 69.78 C 41.43 69.88 37.50 73.55 37.08 78.05 C 33.23 101.70 29.75 125.42 26.36 149.14 C 24.70 159.87 39.67 167.07 47.02 159.04 C 53.57 150.91 57.55 140.98 63.33 132.31 C 64.32 130.76 66.25 130.40 67.95 130.43 C 86.65 130.48 105.35 130.37 124.05 130.35 C 126.04 130.29 128.19 130.94 129.17 132.82 C 133.99 140.75 138.29 149.00 143.20 156.88 C 146.80 162.76 155.55 164.16 160.94 159.94 C 165.37 156.89 166.99 151.08 165.91 145.96 C 162.79 123.65 159.04 101.44 155.80 79.16 C 155.37 74.18 151.16 69.87 146.06 69.86 C 128.04 69.68 110.01 69.80 91.99 69.69 C 88.56 70.02 86.93 66.48 86.66 63.60 C 84.84 55.27 88.35 46.95 93.74 40.72 C 97.64 36.22 96.59 29.46 92.42 25.53 Z" />
<path fill="#ff3664" opacity="1.00" d=" M 59.89 84.15 C 61.11 79.78 67.82 79.28 69.85 83.25 C 71.47 86.81 70.38 90.88 70.99 94.64 C 74.55 94.83 78.21 94.45 81.69 95.35 C 85.93 96.81 86.12 103.28 82.20 105.25 C 78.77 106.66 74.93 106.00 71.31 106.18 C 70.00 110.29 71.92 115.32 68.90 118.82 C 66.11 121.79 60.80 120.16 59.80 116.34 C 59.19 112.97 59.54 109.53 59.44 106.13 C 55.63 105.95 51.50 106.78 47.94 105.07 C 44.17 103.13 44.40 96.94 48.40 95.44 C 51.99 94.33 55.83 95.24 59.51 94.63 C 59.60 91.14 59.18 87.58 59.89 84.15 Z" />
<path fill="#ff3664" opacity="1.00" d=" M 125.46 82.48 C 129.76 79.76 135.77 84.03 134.92 88.95 C 134.64 93.73 128.37 96.30 124.73 93.29 C 121.06 90.71 121.46 84.54 125.46 82.48 Z" />
<path fill="#ff3664" opacity="1.00" d=" M 113.44 94.43 C 117.50 91.89 123.29 95.28 123.14 100.04 C 123.47 104.88 117.50 108.25 113.47 105.68 C 109.07 103.55 109.08 96.59 113.44 94.43 Z" />
<path fill="#ff3664" opacity="1.00" d=" M 137.39 94.32 C 145.08 89.79 151.03 103.04 143.03 106.12 C 135.76 109.51 130.23 97.79 137.39 94.32 Z" />
<path fill="#ff3664" opacity="1.00" d=" M 125.44 106.42 C 129.72 103.73 135.81 107.89 134.86 112.85 C 134.64 117.54 128.36 120.07 124.82 117.12 C 121.06 114.69 121.49 108.44 125.44 106.42 Z" />
</g>
</svg>
