<?xml version="1.0" encoding="UTF-8" ?>
<!DOCTYPE svg PUBLIC "-//W3C//DTD SVG 1.1//EN" "http://www.w3.org/Graphics/SVG/1.1/DTD/svg11.dtd">
<svg width="192pt" height="192pt" viewBox="0 0 192 192" version="1.1" xmlns="http://www.w3.org/2000/svg">
<g id="#ff633bff">
<path fill="#ff633b" opacity="1.00" d=" M 84.40 14.52 C 116.10 9.59 149.56 25.50 165.93 53.03 C 178.44 73.29 181.27 99.11 173.66 121.65 C 164.32 150.39 137.88 172.59 107.92 176.68 C 76.83 181.66 43.81 166.62 27.08 139.97 C 9.02 112.69 9.90 74.58 29.19 48.16 C 42.00 30.05 62.41 17.52 84.40 14.52 M 87.36 25.46 C 63.27 28.13 41.44 44.36 31.55 66.43 C 18.20 94.76 26.76 131.25 51.46 150.54 C 77.40 172.46 119.17 171.19 143.69 147.69 C 167.56 126.64 173.65 88.82 157.74 61.29 C 144.33 36.53 115.30 21.73 87.36 25.46 Z" />
<path fill="#ff633b" opacity="1.00" d=" M 85.42 58.59 C 91.28 57.41 97.48 59.18 102.11 62.90 C 110.02 69.00 118.14 74.84 125.95 81.07 C 134.83 88.72 134.55 104.07 125.39 111.37 C 116.63 117.96 108.05 124.82 99.05 131.07 C 87.34 138.35 70.22 129.78 69.07 116.05 C 68.62 103.38 68.95 90.68 68.90 78.00 C 68.88 68.67 76.26 60.16 85.42 58.59 M 88.44 69.50 C 84.13 69.77 80.18 73.54 80.20 77.95 C 80.12 89.98 80.12 102.02 80.21 114.05 C 80.16 120.64 88.72 124.82 93.99 120.96 C 102.02 115.02 110.02 109.01 117.92 102.89 C 122.31 99.65 122.32 92.34 117.97 89.05 C 110.84 83.50 103.53 78.18 96.38 72.65 C 94.12 70.88 91.46 69.12 88.44 69.50 Z" />
</g>
</svg>
