<?xml version="1.0" encoding="UTF-8" ?>
<!DOCTYPE svg PUBLIC "-//W3C//DTD SVG 1.1//EN" "http://www.w3.org/Graphics/SVG/1.1/DTD/svg11.dtd">
<svg width="192pt" height="192pt" viewBox="0 0 192 192" version="1.1" xmlns="http://www.w3.org/2000/svg">
<g id="#9ea1a7ff">
<path fill="#9ea1a7" opacity="1.00" d=" M 82.47 15.64 C 109.85 11.12 139.12 21.74 156.97 43.02 C 158.93 45.15 160.37 48.23 163.53 48.73 C 171.39 50.91 179.35 55.79 182.07 63.91 C 183.96 71.19 182.53 79.17 178.26 85.37 C 174.80 89.53 177.10 95.11 176.35 99.98 C 175.13 131.61 153.22 161.00 123.45 171.60 C 92.96 183.25 55.99 174.14 34.60 149.43 C 31.78 146.79 30.26 142.41 26.22 141.39 C 19.16 139.21 12.10 135.00 9.08 127.95 C 5.66 120.48 7.98 111.75 12.21 105.13 C 16.03 100.20 13.04 93.63 14.42 87.97 C 17.23 52.06 46.84 20.69 82.47 15.64 M 25.66 89.06 C 43.00 74.98 63.04 64.47 84.07 57.05 C 85.38 44.70 102.41 39.70 110.01 49.61 C 121.35 47.28 132.86 45.71 144.46 46.25 C 131.21 32.65 111.98 25.11 93.02 26.10 C 58.90 26.02 28.07 55.10 25.66 89.06 M 114.04 59.94 C 111.93 61.92 112.06 65.68 109.79 67.80 C 104.27 74.92 92.48 74.38 87.00 67.46 C 66.04 75.30 45.38 85.44 29.09 101.09 C 27.86 102.52 25.77 103.83 26.17 106.00 C 28.90 126.43 41.78 145.02 59.42 155.53 C 77.61 166.46 100.88 168.32 120.62 160.60 C 137.54 154.08 151.67 140.67 159.08 124.13 C 168.77 103.00 166.68 77.16 154.04 57.70 C 140.73 55.40 127.15 57.37 114.04 59.94 Z" />
</g>
</svg>
