<?xml version="1.0" encoding="UTF-8" ?>
<!DOCTYPE svg PUBLIC "-//W3C//DTD SVG 1.1//EN" "http://www.w3.org/Graphics/SVG/1.1/DTD/svg11.dtd">
<svg width="192pt" height="192pt" viewBox="0 0 192 192" version="1.1" xmlns="http://www.w3.org/2000/svg">
<g id="#812ec0ff">
<path fill="#812ec0" opacity="1.00" d=" M 84.31 15.38 C 112.35 11.38 141.97 23.29 159.22 45.79 C 160.90 48.69 164.50 48.64 167.25 49.88 C 173.70 52.42 179.90 57.05 182.11 63.90 C 184.96 71.61 181.94 80.07 177.60 86.59 C 175.10 89.86 176.97 94.22 176.43 97.98 C 176.00 130.60 153.49 161.29 122.70 171.87 C 92.34 183.12 55.82 173.91 34.59 149.43 C 31.76 146.82 30.30 142.36 26.20 141.46 C 19.11 139.34 12.03 135.05 9.01 127.99 C 5.64 120.49 7.90 111.74 12.13 105.08 C 16.08 100.09 13.05 93.39 14.47 87.62 C 17.45 51.20 48.05 19.66 84.31 15.38 M 26.01 88.85 C 43.10 74.64 63.18 64.43 84.04 56.97 C 85.36 44.62 102.43 39.66 110.04 49.53 C 121.26 47.11 132.67 45.98 144.13 45.70 C 130.89 32.91 112.52 25.23 94.01 26.12 C 59.83 25.47 27.82 54.60 26.01 88.85 M 113.33 60.15 C 112.05 72.84 94.70 77.66 86.94 67.62 C 65.81 75.48 44.94 85.73 28.69 101.69 C 27.62 102.94 25.79 104.10 26.18 106.01 C 30.25 138.12 59.68 164.51 92.05 165.24 C 122.47 167.25 152.39 146.63 161.64 117.64 C 168.30 97.88 165.45 75.17 154.00 57.71 C 140.44 55.70 126.67 57.46 113.33 60.15 Z" />
</g>
</svg>
