<?xml version="1.0" encoding="UTF-8" ?>
<!DOCTYPE svg PUBLIC "-//W3C//DTD SVG 1.1//EN" "http://www.w3.org/Graphics/SVG/1.1/DTD/svg11.dtd">
<svg width="192pt" height="192pt" viewBox="0 0 192 192" version="1.1" xmlns="http://www.w3.org/2000/svg">
<g id="#b83f60ff">
<path fill="#b83f60" opacity="1.00" d=" M 84.30 15.38 C 112.35 11.38 141.97 23.29 159.22 45.80 C 160.80 48.38 163.99 48.60 166.55 49.61 C 173.31 52.06 179.82 56.82 182.14 63.89 C 184.98 71.62 181.97 80.09 177.62 86.63 C 175.18 89.91 176.91 94.23 176.43 97.98 C 175.98 130.05 154.25 160.30 124.19 171.32 C 94.02 183.18 57.22 174.65 35.56 150.47 C 32.15 147.42 30.39 142.16 25.45 141.24 C 18.61 139.09 11.90 134.81 8.99 128.00 C 5.84 120.98 7.60 112.76 11.36 106.35 C 12.60 104.05 14.64 101.86 14.18 99.05 C 13.23 79.67 19.71 60.06 31.92 44.99 C 44.74 28.90 63.91 18.08 84.30 15.38 M 25.99 88.82 C 43.09 74.63 63.15 64.43 83.99 56.95 C 85.41 44.60 102.38 39.66 110.08 49.49 C 121.28 47.18 132.67 45.82 144.11 45.71 C 130.91 32.88 112.51 25.25 94.01 26.13 C 59.83 25.48 27.88 54.58 25.99 88.82 M 113.38 60.16 C 112.01 72.87 94.86 77.62 86.92 67.76 C 65.74 75.43 44.95 85.81 28.72 101.72 C 27.67 102.97 25.85 104.13 26.19 106.00 C 30.17 137.42 58.44 163.48 90.05 165.14 C 120.03 167.95 150.15 148.78 160.59 120.60 C 168.55 100.18 166.04 76.04 154.00 57.71 C 140.45 55.84 126.71 57.44 113.38 60.16 Z" />
</g>
</svg>
