<?xml version="1.0" encoding="UTF-8" ?>
<!DOCTYPE svg PUBLIC "-//W3C//DTD SVG 1.1//EN" "http://www.w3.org/Graphics/SVG/1.1/DTD/svg11.dtd">
<svg width="192pt" height="192pt" viewBox="0 0 192 192" version="1.1" xmlns="http://www.w3.org/2000/svg">
<g id="#78ab83ff">
<path fill="#78ab83" opacity="1.00" d=" M 84.61 14.54 C 91.59 10.65 100.46 11.63 107.04 15.90 C 115.70 21.39 121.18 30.49 125.21 39.68 C 135.85 38.28 147.49 37.43 157.25 42.75 C 164.55 46.59 168.78 54.87 168.55 63.00 C 168.39 74.70 162.41 85.34 155.37 94.32 C 161.47 103.84 168.57 114.10 168.62 126.00 C 168.98 134.47 164.11 142.88 156.44 146.57 C 146.94 151.19 135.96 150.95 125.75 149.50 C 120.57 162.21 111.25 176.78 96.00 177.28 C 80.47 177.02 71.08 162.12 65.31 149.50 C 54.38 151.24 42.12 151.77 32.39 145.63 C 24.96 140.98 21.20 131.73 22.52 123.17 C 23.97 112.61 29.27 103.02 35.80 94.76 C 27.37 83.03 18.14 67.83 24.10 53.06 C 31.44 38.28 50.63 36.95 65.01 39.50 C 69.42 29.87 74.90 19.70 84.61 14.54 M 76.07 42.39 C 82.50 44.41 88.75 46.92 95.03 49.34 C 101.43 47.39 107.47 44.28 113.94 42.41 C 110.07 33.93 103.73 23.23 93.17 23.43 C 84.23 25.54 79.85 34.88 76.07 42.39 M 34.13 58.13 C 31.26 68.28 38.17 77.84 43.28 86.05 C 47.63 81.51 52.69 77.56 56.84 72.93 C 57.91 65.36 59.52 57.89 61.00 50.40 C 51.90 49.01 39.17 48.89 34.13 58.13 M 129.08 50.49 C 130.32 57.91 132.24 65.22 133.51 72.64 C 138.05 77.14 143.10 81.14 147.38 85.92 C 152.01 80.14 155.73 73.37 157.01 66.02 C 157.87 61.24 156.64 55.45 152.14 52.88 C 145.14 48.88 136.74 50.26 129.08 50.49 M 72.11 53.07 C 71.22 56.47 70.43 59.91 69.93 63.39 C 73.82 61.05 77.84 58.88 81.47 56.13 C 78.39 54.98 75.27 53.94 72.11 53.07 M 109.00 56.29 C 112.76 58.39 116.40 60.69 120.06 62.94 C 119.37 59.64 118.53 56.37 117.59 53.14 C 114.67 54.04 111.80 55.07 109.00 56.29 M 67.48 79.48 C 66.50 89.49 66.51 99.59 67.55 109.60 C 75.68 116.40 84.81 122.02 94.32 126.70 C 95.83 127.65 97.33 126.29 98.69 125.72 C 107.19 121.13 115.61 116.15 122.92 109.82 C 124.28 100.29 123.79 90.55 122.95 80.98 C 123.17 78.43 120.69 77.29 119.00 75.98 C 111.48 70.68 103.63 65.74 95.18 62.06 C 85.46 67.02 75.92 72.51 67.48 79.48 M 50.95 94.86 C 52.41 96.37 53.93 97.83 55.57 99.16 C 55.56 96.09 55.51 93.02 55.55 89.95 C 53.90 91.48 52.30 93.06 50.95 94.86 M 135.16 89.55 C 135.11 92.79 135.10 96.03 135.09 99.27 C 136.80 97.70 138.46 96.07 139.90 94.25 C 138.30 92.71 136.73 91.13 135.16 89.55 M 43.41 103.31 C 37.93 111.38 31.54 121.34 34.54 131.44 C 39.68 141.02 52.64 139.56 61.79 138.68 C 59.45 131.07 58.39 123.14 56.56 115.44 C 52.15 111.44 47.60 107.56 43.41 103.31 M 147.35 103.12 C 143.31 107.53 138.70 111.35 134.38 115.47 C 132.46 123.02 131.78 130.94 129.44 138.45 C 136.74 139.53 144.59 139.60 151.41 136.43 C 156.02 134.29 158.07 128.84 157.23 124.01 C 155.99 116.30 151.98 109.30 147.35 103.12 M 70.23 125.73 C 70.99 129.20 71.71 132.69 72.95 136.02 C 75.86 135.17 78.80 134.34 81.52 132.97 C 77.90 130.34 73.93 128.24 70.23 125.73 M 109.58 132.97 C 112.43 134.20 115.38 135.16 118.39 135.88 C 119.23 132.53 120.01 129.17 120.68 125.79 C 117.06 128.31 113.16 130.39 109.58 132.97 M 77.02 146.59 C 80.04 154.78 85.89 163.97 95.01 165.86 C 105.30 165.59 110.62 154.82 114.57 146.74 C 110.33 145.25 106.00 144.00 101.85 142.28 C 93.53 137.00 85.45 145.54 77.02 146.59 Z" />
</g>
</svg>
