<?xml version="1.0" encoding="UTF-8" ?>
<!DOCTYPE svg PUBLIC "-//W3C//DTD SVG 1.1//EN" "http://www.w3.org/Graphics/SVG/1.1/DTD/svg11.dtd">
<svg width="192pt" height="192pt" viewBox="0 0 192 192" version="1.1" xmlns="http://www.w3.org/2000/svg">
<g id="#b28a3eff">
<path fill="#b28a3e" opacity="1.00" d=" M 84.31 15.38 C 112.36 11.38 141.98 23.29 159.22 45.79 C 160.91 48.68 164.49 48.66 167.24 49.88 C 173.70 52.42 179.89 57.06 182.11 63.90 C 184.87 71.35 182.11 79.59 177.99 85.97 C 174.90 89.63 177.06 94.65 176.40 98.96 C 175.57 132.06 152.01 162.83 120.46 172.64 C 88.71 183.41 51.03 171.92 30.96 145.00 C 29.00 141.41 24.65 141.31 21.36 139.65 C 15.90 137.17 10.91 133.05 8.73 127.32 C 5.76 119.95 8.04 111.55 12.14 105.08 C 16.07 100.09 13.06 93.39 14.47 87.62 C 17.46 51.20 48.05 19.66 84.31 15.38 M 26.01 88.85 C 43.11 74.65 63.18 64.44 84.03 56.98 C 85.37 44.63 102.42 39.66 110.04 49.53 C 121.26 47.10 132.67 46.03 144.13 45.69 C 130.88 32.92 112.52 25.23 94.02 26.12 C 59.84 25.47 27.81 54.59 26.01 88.85 M 113.34 60.15 C 112.04 72.83 94.70 77.65 86.94 67.61 C 65.80 75.47 44.94 85.73 28.68 101.68 C 27.61 102.93 25.79 104.11 26.18 106.01 C 30.19 137.42 58.44 163.47 90.05 165.12 C 120.03 167.94 150.13 148.76 160.57 120.60 C 168.54 100.18 166.03 76.04 154.00 57.72 C 140.44 55.68 126.67 57.45 113.34 60.15 Z" />
</g>
</svg>
