<?xml version="1.0" encoding="UTF-8" ?>
<!DOCTYPE svg PUBLIC "-//W3C//DTD SVG 1.1//EN" "http://www.w3.org/Graphics/SVG/1.1/DTD/svg11.dtd">
<svg width="192pt" height="192pt" viewBox="0 0 192 192" version="1.1" xmlns="http://www.w3.org/2000/svg">
<g id="#19afffff">
<path fill="#19afff" opacity="1.00" d=" M 108.85 23.98 C 114.40 14.65 130.45 18.95 129.80 30.01 C 130.33 41.34 113.53 45.21 108.54 35.23 C 87.67 35.13 66.80 35.20 45.93 35.19 C 39.46 34.75 33.26 40.40 33.28 46.92 C 33.22 80.97 33.27 115.01 33.26 149.06 C 32.97 155.83 39.27 161.72 45.95 161.39 C 79.62 161.39 113.29 161.39 146.95 161.36 C 153.62 161.67 159.83 155.79 159.65 149.07 C 159.71 124.69 159.67 100.32 159.68 75.94 C 160.02 69.50 154.59 63.31 148.08 63.23 C 116.37 63.08 84.66 63.32 52.95 63.11 C 46.37 63.45 45.46 52.76 52.03 52.14 C 84.03 51.90 116.06 52.04 148.07 52.02 C 160.17 52.06 170.93 62.89 170.83 75.01 C 170.88 100.00 170.94 124.98 170.82 149.97 C 170.71 161.96 160.02 172.47 148.06 172.52 C 113.69 172.59 79.32 172.56 44.95 172.50 C 33.00 172.50 22.30 162.05 22.10 150.09 C 22.00 115.70 22.06 81.31 22.11 46.93 C 22.03 34.81 32.84 24.06 44.93 24.08 C 66.23 23.97 87.54 24.10 108.85 23.98 Z" />
<path fill="#19afff" opacity="1.00" d=" M 134.26 78.28 C 139.20 75.84 145.54 80.40 144.73 85.86 C 144.52 91.45 137.12 94.72 132.82 91.14 C 128.26 88.06 129.11 80.27 134.26 78.28 Z" />
<path fill="#19afff" opacity="1.00" d=" M 135.40 102.46 C 144.81 99.53 148.63 115.36 138.94 117.02 C 129.73 119.66 126.10 104.35 135.40 102.46 Z" />
</g>
</svg>
