<?xml version="1.0" encoding="UTF-8" ?>
<!DOCTYPE svg PUBLIC "-//W3C//DTD SVG 1.1//EN" "http://www.w3.org/Graphics/SVG/1.1/DTD/svg11.dtd">
<svg width="192pt" height="192pt" viewBox="0 0 192 192" version="1.1" xmlns="http://www.w3.org/2000/svg">
<g id="#18bac6ff">
<path fill="#18bac6" opacity="1.00" d=" M 48.51 22.37 C 49.06 16.32 58.84 16.39 59.43 22.38 C 59.81 34.54 59.38 46.72 59.52 58.89 C 66.72 59.00 73.92 59.02 81.12 58.83 C 81.33 53.00 80.72 47.11 81.44 41.31 C 82.68 36.33 90.58 36.21 92.00 41.15 C 92.89 46.98 92.24 52.95 92.41 58.83 C 98.23 59.68 106.66 56.45 110.25 62.64 C 111.70 69.15 110.48 75.98 110.94 82.62 C 121.48 75.28 131.80 67.60 142.35 60.27 C 145.94 57.68 151.69 60.54 151.72 64.98 C 151.97 70.90 151.72 76.83 151.80 82.75 C 156.35 79.63 160.64 76.12 165.27 73.11 C 168.75 70.61 174.04 73.77 173.72 77.99 C 173.85 99.66 173.80 121.33 173.84 143.00 C 173.80 148.04 174.45 153.41 172.05 158.06 C 169.07 164.51 162.10 168.67 155.05 168.55 C 114.04 168.56 73.04 168.59 32.03 168.51 C 22.34 168.52 13.88 159.74 14.09 150.08 C 14.07 128.71 13.96 107.33 14.17 85.96 C 14.20 79.25 25.17 79.29 25.25 85.99 C 25.56 107.32 25.25 128.67 25.39 150.00 C 25.17 154.05 28.95 157.50 32.94 157.19 C 73.65 157.20 114.36 157.20 155.06 157.14 C 159.02 157.42 162.71 153.98 162.53 149.98 C 162.61 129.66 162.54 109.32 162.46 88.99 C 158.29 91.99 154.30 95.25 149.96 97.99 C 146.56 100.15 141.39 98.07 140.80 93.98 C 140.22 87.86 140.78 81.68 140.48 75.54 C 130.08 82.76 119.88 90.26 109.56 97.58 C 105.95 100.58 99.68 97.83 99.75 93.04 C 99.55 85.44 99.78 77.84 99.65 70.24 C 72.76 70.17 45.85 70.45 18.97 70.11 C 13.09 69.78 12.39 60.37 18.12 59.15 C 28.15 58.51 38.24 58.99 48.30 58.96 C 48.41 46.77 48.12 34.55 48.51 22.37 Z" />
<path fill="#18bac6" opacity="1.00" d=" M 98.16 135.90 C 101.28 135.79 105.82 134.30 108.00 137.13 C 108.39 140.17 109.00 143.68 107.40 146.46 C 104.21 146.76 99.97 147.93 97.40 145.65 C 96.92 142.53 96.12 138.59 98.16 135.90 Z" />
<path fill="#18bac6" opacity="1.00" d=" M 119.28 136.11 C 122.20 135.30 125.80 135.09 128.62 136.25 C 130.30 139.09 129.63 142.89 129.11 146.04 C 125.95 147.14 121.14 147.89 118.52 145.49 C 118.22 142.47 117.35 138.69 119.28 136.11 Z" />
<path fill="#18bac6" opacity="1.00" d=" M 140.84 137.08 C 143.21 134.38 147.66 135.71 150.85 135.96 C 152.89 139.04 151.62 143.05 151.49 146.50 C 148.21 146.77 144.80 147.35 141.58 146.41 C 139.84 143.69 140.66 140.13 140.84 137.08 Z" />
</g>
</svg>
