<?xml version="1.0" encoding="UTF-8" ?>
<!DOCTYPE svg PUBLIC "-//W3C//DTD SVG 1.1//EN" "http://www.w3.org/Graphics/SVG/1.1/DTD/svg11.dtd">
<svg width="192pt" height="192pt" viewBox="0 0 192 192" version="1.1" xmlns="http://www.w3.org/2000/svg">
<g id="#ff633bff">
<path fill="#ff633b" opacity="1.00" d=" M 91.26 12.24 C 95.08 10.26 99.78 13.77 99.28 17.96 C 99.32 68.66 99.40 119.37 99.25 170.06 C 99.53 177.13 87.82 177.12 88.09 170.07 C 87.91 119.70 88.12 69.31 88.02 18.94 C 87.85 16.34 88.60 13.31 91.26 12.24 Z" />
<path fill="#ff633b" opacity="1.00" d=" M 113.42 35.49 C 117.20 32.86 122.64 36.44 122.05 40.92 C 122.06 76.30 122.23 111.69 121.96 147.06 C 121.99 153.84 110.81 153.83 110.85 147.02 C 110.58 112.36 110.86 77.67 110.72 43.00 C 110.69 40.32 110.73 36.97 113.42 35.49 Z" />
<path fill="#ff633b" opacity="1.00" d=" M 68.38 43.42 C 72.11 41.34 77.02 44.77 76.50 48.98 C 76.50 79.00 76.66 109.03 76.43 139.04 C 76.28 145.70 65.34 145.52 65.37 138.88 C 65.16 109.24 65.37 79.58 65.28 49.93 C 65.09 47.40 65.87 44.53 68.38 43.42 Z" />
<path fill="#ff633b" opacity="1.00" d=" M 25.40 50.42 C 29.27 49.40 32.87 53.13 32.31 56.97 C 32.28 81.67 32.41 106.38 32.25 131.08 C 32.36 137.98 20.97 137.95 21.13 131.05 C 20.93 106.35 21.10 81.63 21.06 56.92 C 20.78 54.07 22.44 50.99 25.40 50.42 Z" />
<path fill="#ff633b" opacity="1.00" d=" M 158.37 56.25 C 162.25 53.76 167.51 57.48 166.84 61.93 C 166.81 83.30 167.00 104.68 166.75 126.04 C 166.78 132.73 155.71 132.70 155.67 126.03 C 155.38 105.36 155.69 84.68 155.53 64.00 C 155.50 61.24 155.49 57.69 158.37 56.25 Z" />
<path fill="#ff633b" opacity="1.00" d=" M 46.41 62.48 C 50.11 60.54 54.89 63.81 54.44 67.97 C 54.48 85.33 54.56 102.70 54.40 120.05 C 54.54 126.43 44.18 127.11 43.41 120.86 C 42.97 103.91 43.40 86.92 43.20 69.96 C 43.04 67.16 43.47 63.73 46.41 62.48 Z" />
<path fill="#ff633b" opacity="1.00" d=" M 135.43 66.50 C 139.27 63.71 144.87 67.35 144.24 71.95 C 144.19 86.98 144.49 102.02 144.10 117.03 C 143.56 123.13 133.57 123.06 133.11 116.98 C 132.70 103.00 133.12 88.99 132.92 75.00 C 132.99 72.08 132.49 68.27 135.43 66.50 Z" />
</g>
</svg>
