<?xml version="1.0" encoding="UTF-8" ?>
<!DOCTYPE svg PUBLIC "-//W3C//DTD SVG 1.1//EN" "http://www.w3.org/Graphics/SVG/1.1/DTD/svg11.dtd">
<svg width="192pt" height="192pt" viewBox="0 0 192 192" version="1.1" xmlns="http://www.w3.org/2000/svg">
<g id="#ff653bff">
<path fill="#ff653b" opacity="1.00" d=" M 109.38 15.33 C 111.36 9.60 120.92 11.98 120.00 18.01 C 113.80 42.32 106.95 66.49 100.46 90.73 C 124.04 83.21 147.43 75.07 171.03 67.63 C 177.24 66.12 180.18 76.16 174.16 78.26 C 148.46 86.95 122.63 95.30 96.88 103.90 C 94.72 111.69 92.60 119.50 90.39 127.28 C 102.10 132.89 108.69 147.50 103.88 159.81 C 99.32 173.46 82.68 181.29 69.30 175.83 C 56.86 171.56 49.43 156.88 53.42 144.32 C 56.36 132.79 67.78 124.95 79.45 124.81 C 80.93 119.07 82.69 113.40 84.05 107.63 C 78.34 109.12 72.68 110.77 66.98 112.30 C 66.79 124.00 58.91 135.35 47.41 138.40 C 34.75 142.34 20.09 134.66 15.96 122.11 C 10.71 108.59 18.73 91.87 32.60 87.60 C 44.72 83.20 59.04 89.64 64.36 101.25 C 72.19 99.27 79.94 97.00 87.72 94.84 C 94.98 68.35 101.90 41.75 109.38 15.33 M 39.46 97.56 C 27.93 98.24 21.37 113.38 28.68 122.30 C 34.95 131.30 50.13 129.18 54.12 119.11 C 59.26 109.28 50.60 96.12 39.46 97.56 M 76.38 136.51 C 67.77 137.78 61.48 147.34 64.26 155.71 C 66.27 163.08 74.55 167.68 81.91 165.89 C 89.78 164.36 95.70 156.03 93.86 148.08 C 92.42 140.28 84.09 134.94 76.38 136.51 Z" />
<path fill="#ff653b" opacity="1.00" d=" M 137.25 101.14 C 140.72 99.03 145.65 101.94 145.49 105.98 C 145.53 116.86 145.70 127.75 145.41 138.62 C 144.67 144.48 135.22 144.51 134.46 138.64 C 134.01 128.43 134.42 118.17 134.26 107.94 C 134.11 105.38 134.68 102.35 137.25 101.14 Z" />
<path fill="#ff653b" opacity="1.00" d=" M 117.20 110.10 C 120.62 108.46 125.14 111.12 125.11 114.97 C 125.09 120.19 125.79 125.58 124.67 130.70 C 122.57 136.20 113.27 134.04 113.99 128.08 C 114.90 122.27 111.33 113.92 117.20 110.10 Z" />
<path fill="#ff653b" opacity="1.00" d=" M 157.40 110.50 C 160.78 108.14 166.00 110.81 165.98 114.95 C 165.97 120.16 166.65 125.54 165.54 130.65 C 163.46 136.21 154.09 134.07 154.84 128.04 C 155.66 122.37 152.51 114.75 157.40 110.50 Z" />
</g>
</svg>
