<?xml version="1.0" encoding="UTF-8" ?>
<!DOCTYPE svg PUBLIC "-//W3C//DTD SVG 1.1//EN" "http://www.w3.org/Graphics/SVG/1.1/DTD/svg11.dtd">
<svg width="192pt" height="192pt" viewBox="0 0 192 192" version="1.1" xmlns="http://www.w3.org/2000/svg">
<g id="#e93096ff">
<path fill="#e93096" opacity="1.00" d=" M 142.39 47.31 C 144.05 41.75 153.22 43.17 153.16 48.97 C 153.38 65.40 153.28 81.85 153.19 98.28 C 156.67 94.17 162.32 94.34 167.14 93.21 C 169.84 92.78 173.00 91.62 175.43 93.53 C 178.64 95.70 178.37 101.21 174.82 102.92 C 170.75 104.63 166.13 104.31 162.05 105.98 C 157.82 109.42 154.72 114.06 150.45 117.47 C 147.22 119.90 141.96 117.06 142.05 113.05 C 141.78 104.01 142.10 94.95 141.73 85.91 C 135.41 105.22 129.34 124.63 122.89 143.89 C 121.37 149.16 112.79 148.35 112.23 142.94 C 111.75 124.36 112.29 105.76 111.87 87.17 C 106.49 96.02 101.09 104.86 95.56 113.61 C 93.60 117.42 87.46 117.34 85.75 113.36 C 82.88 106.82 80.71 99.98 77.95 93.38 C 73.07 99.07 69.21 105.71 63.77 110.88 C 56.42 114.09 54.59 104.62 52.79 99.70 C 45.64 103.99 36.10 104.83 29.04 99.94 C 25.95 97.67 26.44 92.60 29.72 90.77 C 34.02 88.26 38.26 93.46 42.74 91.72 C 47.90 91.03 50.17 85.04 55.10 84.27 C 60.44 84.16 61.33 90.39 62.88 94.20 C 67.15 89.00 71.02 83.48 75.33 78.31 C 77.60 75.09 83.16 75.63 84.67 79.30 C 87.35 85.40 89.38 91.77 91.90 97.95 C 99.04 86.70 105.83 75.22 112.99 63.98 C 115.57 59.26 123.62 61.59 123.30 66.96 C 123.53 79.82 123.26 92.70 123.41 105.57 C 129.88 86.20 135.88 66.66 142.39 47.31 Z" />
<path fill="#e93096" opacity="1.00" d=" M 17.40 86.54 C 21.90 84.04 27.71 89.12 25.76 93.89 C 24.62 98.03 18.69 99.25 15.83 96.19 C 12.92 93.50 13.78 88.16 17.40 86.54 Z" />
</g>
</svg>
