<?xml version="1.0" encoding="UTF-8" ?>
<!DOCTYPE svg PUBLIC "-//W3C//DTD SVG 1.1//EN" "http://www.w3.org/Graphics/SVG/1.1/DTD/svg11.dtd">
<svg width="192pt" height="192pt" viewBox="0 0 192 192" version="1.1" xmlns="http://www.w3.org/2000/svg">
<g id="#19afffff">
<path fill="#19afff" opacity="1.00" d=" M 70.18 18.09 C 86.41 17.28 102.75 17.96 119.02 17.74 C 122.53 17.27 123.70 21.24 125.73 23.27 C 134.47 34.06 148.99 37.38 162.24 37.70 C 163.20 57.42 162.34 77.24 162.70 96.99 C 163.29 109.59 159.17 121.98 152.86 132.75 C 140.64 153.57 118.88 167.17 96.02 173.54 C 63.57 165.65 33.44 139.47 29.21 105.06 C 28.98 82.73 28.94 60.37 29.27 38.04 C 45.12 38.13 61.41 31.87 70.18 18.09 M 73.57 31.51 C 65.19 41.20 52.83 46.66 40.30 48.35 C 40.43 67.18 40.06 86.03 40.48 104.85 C 44.63 132.99 69.05 153.96 95.31 161.66 C 122.59 154.60 148.24 132.21 151.35 102.93 C 151.39 84.64 151.53 66.34 151.38 48.05 C 137.71 46.54 124.38 40.11 115.87 29.12 C 102.88 29.13 89.89 29.08 76.90 29.13 C 75.35 28.96 74.59 30.65 73.57 31.51 Z" />
<path fill="#19afff" opacity="1.00" d=" M 92.28 72.36 C 105.61 68.04 117.05 86.89 106.30 96.29 C 98.45 100.13 103.12 109.35 100.96 115.95 C 99.65 120.09 93.21 120.54 91.28 116.69 C 89.02 111.80 91.31 106.18 89.87 101.12 C 88.33 97.55 84.17 95.99 82.62 92.38 C 78.61 84.63 83.86 74.21 92.28 72.36 Z" />
</g>
</svg>
