<?xml version="1.0" encoding="UTF-8" ?>
<!DOCTYPE svg PUBLIC "-//W3C//DTD SVG 1.1//EN" "http://www.w3.org/Graphics/SVG/1.1/DTD/svg11.dtd">
<svg width="192pt" height="192pt" viewBox="0 0 192 192" version="1.1" xmlns="http://www.w3.org/2000/svg">
<g id="#1bb4ffff">
<path fill="#1bb4ff" opacity="1.00" d=" M 85.19 33.20 C 96.98 20.97 115.43 15.90 131.85 20.21 C 149.02 24.38 163.16 38.79 166.98 56.04 C 170.83 71.94 165.79 89.67 154.03 101.06 C 142.26 113.01 124.02 117.89 107.82 113.69 C 103.70 117.28 100.19 121.51 96.03 125.05 C 92.71 126.87 88.70 125.88 85.08 126.08 C 84.89 129.52 85.66 133.18 84.41 136.46 C 82.30 139.31 79.54 141.60 77.07 144.12 C 73.90 147.47 68.86 145.80 64.80 146.17 C 64.43 150.51 66.21 156.03 62.08 159.07 C 58.71 161.88 56.08 167.00 51.00 166.32 C 42.66 166.27 34.31 166.34 25.97 166.28 C 23.03 166.49 20.12 164.07 20.11 161.06 C 19.94 153.04 20.13 145.01 20.04 136.99 C 20.08 134.56 19.75 131.66 21.83 129.90 C 38.79 112.84 55.99 96.02 72.87 78.89 C 68.72 62.88 73.49 44.91 85.19 33.20 M 103.40 33.50 C 88.55 40.39 79.62 57.93 83.12 73.98 C 83.78 77.49 86.17 81.87 82.75 84.74 C 65.59 101.90 48.31 118.96 31.16 136.14 C 31.13 142.51 31.14 148.88 31.15 155.25 C 37.46 155.32 43.78 155.22 50.09 155.31 C 51.35 154.15 52.56 152.96 53.76 151.76 C 54.15 147.08 52.80 142.02 54.66 137.62 C 59.47 131.55 69.65 139.01 73.93 131.76 C 74.43 127.11 73.15 122.17 74.73 117.71 C 78.39 112.71 85.56 115.86 90.78 114.92 C 96.90 110.59 101.24 99.35 110.14 102.83 C 125.32 107.26 142.74 100.51 151.14 87.15 C 160.11 73.87 158.85 54.78 148.22 42.78 C 137.63 30.04 118.18 25.95 103.40 33.50 Z" />
<path fill="#1bb4ff" opacity="1.00" d=" M 120.44 42.67 C 131.41 40.16 143.18 48.71 144.08 59.95 C 145.59 70.94 136.14 81.76 125.05 81.74 C 114.93 82.42 105.37 74.05 104.63 63.95 C 103.44 54.16 110.76 44.39 120.44 42.67 M 123.37 53.39 C 117.06 53.71 113.32 61.89 117.11 66.92 C 120.56 72.62 130.12 71.65 132.43 65.43 C 135.22 59.62 129.70 52.35 123.37 53.39 Z" />
<path fill="#1bb4ff" opacity="1.00" d=" M 141.91 129.12 C 143.51 124.16 151.24 124.23 152.91 129.11 C 153.77 133.33 153.13 137.72 153.31 142.01 C 157.75 142.36 162.27 141.63 166.65 142.47 C 171.52 143.92 171.90 151.45 167.17 153.37 C 162.66 154.47 157.92 153.48 153.32 153.99 C 153.10 158.58 153.83 163.29 152.90 167.80 C 151.24 172.94 142.90 172.57 141.77 167.27 C 141.13 162.84 141.70 158.33 141.43 153.87 C 137.06 153.68 132.65 154.19 128.31 153.58 C 123.35 152.27 122.83 144.60 127.63 142.68 C 132.12 141.41 136.93 142.54 141.54 141.93 C 141.67 137.67 141.04 133.31 141.91 129.12 Z" />
</g>
</svg>
