<?xml version="1.0" encoding="UTF-8" ?>
<!DOCTYPE svg PUBLIC "-//W3C//DTD SVG 1.1//EN" "http://www.w3.org/Graphics/SVG/1.1/DTD/svg11.dtd">
<svg width="192pt" height="192pt" viewBox="0 0 192 192" version="1.1" xmlns="http://www.w3.org/2000/svg">
<g id="#ff643bff">
<path fill="#ff643b" opacity="1.00" d=" M 22.08 43.96 C 21.88 31.71 32.78 20.68 45.03 20.76 C 79.34 20.72 113.66 20.71 147.97 20.76 C 160.19 20.72 171.03 31.75 170.82 43.96 C 170.88 77.99 170.87 112.01 170.83 146.04 C 171.15 158.01 160.91 168.96 148.95 169.46 C 138.64 169.66 128.33 169.54 118.02 169.53 C 114.44 169.82 111.27 166.55 111.59 162.99 C 111.62 137.90 111.42 112.80 111.69 87.71 C 116.54 87.50 121.38 87.64 126.23 87.58 C 127.08 111.12 126.33 134.73 126.61 158.29 C 133.74 158.30 140.86 158.40 147.98 158.27 C 154.32 158.20 159.79 152.37 159.65 146.07 C 159.70 112.02 159.72 77.96 159.64 43.91 C 159.71 37.29 153.53 31.68 147.01 31.85 C 113.34 31.81 79.66 31.80 45.99 31.83 C 39.43 31.61 33.13 37.23 33.29 43.92 C 33.24 77.97 33.27 112.02 33.28 146.07 C 33.06 152.42 38.64 158.28 45.02 158.29 C 52.28 158.40 59.56 158.34 66.82 158.28 C 66.82 134.77 66.73 111.25 66.87 87.74 C 71.82 87.63 76.82 87.27 81.75 87.94 C 81.70 113.31 81.81 138.68 81.70 164.05 C 81.87 167.06 79.01 169.71 76.04 169.51 C 65.36 169.55 54.67 169.63 43.98 169.46 C 32.01 168.95 21.80 158.00 22.06 146.02 C 22.04 112.00 22.03 77.98 22.08 43.96 Z" />
<path fill="#ff643b" opacity="1.00" d=" M 91.47 52.49 C 94.04 49.50 99.02 49.36 101.68 52.31 C 106.40 56.95 111.13 61.59 115.71 66.37 C 117.04 67.34 116.42 68.98 116.22 70.31 C 104.16 70.82 92.07 70.43 80.00 70.53 C 78.06 71.01 77.12 69.38 76.31 67.94 C 81.09 62.53 86.42 57.64 91.47 52.49 Z" />
<path fill="#ff643b" opacity="1.00" d=" M 89.19 87.90 C 94.13 87.34 99.10 87.57 104.05 87.77 C 104.44 112.84 104.09 137.93 104.24 163.00 C 106.18 172.33 87.22 172.33 89.14 163.02 C 89.21 137.98 89.13 112.94 89.19 87.90 Z" />
</g>
</svg>
