<?xml version="1.0" encoding="UTF-8" ?>
<!DOCTYPE svg PUBLIC "-//W3C//DTD SVG 1.1//EN" "http://www.w3.org/Graphics/SVG/1.1/DTD/svg11.dtd">
<svg width="192pt" height="192pt" viewBox="0 0 192 192" version="1.1" xmlns="http://www.w3.org/2000/svg">
<g id="#a49d80ff">
<path fill="#a49d80" opacity="1.00" d=" M 20.22 43.95 C 20.04 31.75 30.87 20.95 43.01 20.81 C 77.33 20.68 111.65 20.75 145.97 20.75 C 158.45 20.41 169.88 31.41 169.73 43.94 C 169.72 59.59 169.90 75.26 169.66 90.90 C 169.29 97.11 159.15 97.19 158.64 90.98 C 158.31 75.33 158.66 59.67 158.49 44.01 C 158.46 37.56 152.57 31.70 146.05 32.12 C 112.02 32.13 77.99 32.12 43.96 32.12 C 37.04 31.54 30.79 38.10 31.33 44.94 C 31.34 78.99 31.29 113.03 31.37 147.08 C 31.28 153.70 37.43 159.42 43.99 159.20 C 62.58 159.17 81.18 159.31 99.77 159.09 C 91.59 150.33 82.65 142.28 74.55 133.46 C 71.06 126.51 80.89 120.33 87.04 121.10 C 93.51 123.08 99.09 127.24 105.36 129.78 C 105.35 111.79 105.35 93.80 105.37 75.81 C 86.62 75.13 67.80 75.94 49.04 75.37 C 42.70 74.40 43.57 64.09 49.95 64.14 C 79.98 64.07 110.03 63.93 140.06 64.04 C 145.68 64.03 147.84 72.35 142.75 74.95 C 136.72 76.33 130.36 75.29 124.20 75.55 C 124.02 85.72 124.19 95.90 124.11 106.08 C 136.31 108.76 148.66 110.69 160.91 113.15 C 165.93 114.07 170.46 118.70 170.19 123.98 C 170.08 132.34 170.31 140.71 170.07 149.07 C 169.15 161.05 158.03 170.94 146.05 170.60 C 112.04 170.91 78.04 170.14 44.01 170.43 C 31.44 170.84 19.94 159.67 20.18 147.06 C 20.17 112.69 20.18 78.32 20.22 43.95 Z" />
</g>
</svg>
