<?xml version="1.0" encoding="UTF-8" ?>
<!DOCTYPE svg PUBLIC "-//W3C//DTD SVG 1.1//EN" "http://www.w3.org/Graphics/SVG/1.1/DTD/svg11.dtd">
<svg width="192pt" height="192pt" viewBox="0 0 192 192" version="1.1" xmlns="http://www.w3.org/2000/svg">
<g id="#7b6b99ff">
<path fill="#7b6b99" opacity="1.00" d=" M 40.44 18.67 C 74.94 17.96 109.50 18.56 144.03 18.32 C 153.29 17.76 162.62 22.90 166.72 31.28 C 170.41 38.28 168.97 46.42 169.25 54.00 C 169.03 62.63 169.68 71.32 168.96 79.92 C 167.96 85.25 159.13 85.13 158.30 79.76 C 157.61 66.84 158.48 53.85 157.92 40.92 C 157.68 34.39 151.45 29.12 145.00 29.56 C 111.33 29.58 77.66 29.52 43.98 29.56 C 37.69 29.36 31.93 34.70 31.64 40.98 C 31.29 53.60 31.80 66.24 31.45 78.85 C 31.42 83.23 25.54 85.41 22.42 82.59 C 20.11 80.80 20.49 77.60 20.41 75.02 C 20.54 63.66 20.36 52.30 20.50 40.94 C 20.69 30.01 29.61 20.10 40.44 18.67 Z" />
<path fill="#7b6b99" opacity="1.00" d=" M 57.34 63.32 C 57.89 58.20 67.09 58.43 67.45 63.57 C 69.57 71.27 72.49 78.77 73.96 86.64 C 70.01 87.96 65.99 86.89 65.39 82.32 C 63.44 82.33 61.49 82.33 59.55 82.32 C 58.94 86.99 54.74 87.89 50.74 86.74 C 52.27 78.76 55.10 71.11 57.34 63.32 M 60.83 76.24 C 61.64 76.24 63.26 76.25 64.07 76.25 C 63.58 74.39 63.09 72.53 62.58 70.67 C 61.97 72.52 61.40 74.38 60.83 76.24 Z" />
<path fill="#7b6b99" opacity="1.00" d=" M 73.84 60.24 C 76.03 60.06 78.22 59.93 80.41 59.83 C 81.18 66.81 80.42 73.85 81.07 80.84 C 83.14 80.91 85.21 80.92 87.28 80.90 C 87.84 74.17 87.01 67.37 87.80 60.66 C 89.46 59.98 91.27 59.86 93.02 59.56 C 93.54 60.17 94.56 61.38 95.08 61.99 C 95.52 61.45 96.41 60.38 96.85 59.84 C 102.99 59.94 109.15 59.68 115.28 60.11 C 115.38 62.13 115.41 64.16 115.40 66.19 C 113.31 66.24 111.23 66.26 109.14 66.29 C 108.84 73.05 109.76 79.91 108.58 86.60 C 106.61 87.45 104.37 87.31 102.37 86.62 C 101.29 80.00 102.12 73.22 101.88 66.53 C 99.45 66.22 97.03 65.81 94.64 65.27 C 94.45 71.18 95.35 77.23 94.02 83.04 C 92.65 87.68 86.91 87.46 83.01 87.43 C 79.32 87.58 74.41 86.36 74.02 81.94 C 73.24 74.75 73.70 67.46 73.84 60.24 Z" />
<path fill="#7b6b99" opacity="1.00" d=" M 119.36 60.41 C 124.32 59.27 130.88 58.31 134.98 61.98 C 137.90 67.71 136.40 74.63 136.44 80.84 C 135.86 89.06 125.20 88.03 119.50 86.58 C 114.30 84.33 115.87 77.52 115.53 73.00 C 115.82 68.78 114.63 62.55 119.36 60.41 M 122.90 66.23 C 122.68 71.09 122.68 75.97 122.93 80.83 C 125.01 80.90 127.09 80.92 129.17 80.89 C 129.53 75.99 129.49 71.07 129.22 66.17 C 127.11 66.17 125.01 66.19 122.90 66.23 Z" />
<path fill="#7b6b99" opacity="1.00" d=" M 21.30 106.74 C 19.85 102.37 20.13 94.82 26.12 94.39 C 30.96 93.80 39.43 93.22 39.79 100.03 C 41.87 106.10 31.82 106.05 32.04 100.33 C 30.65 100.33 29.26 100.34 27.88 100.34 C 27.88 101.46 27.88 102.58 27.88 103.71 C 31.73 105.09 36.80 104.89 39.46 108.41 C 41.02 112.50 41.54 119.65 36.37 121.32 C 32.37 122.09 27.98 122.33 24.09 120.93 C 20.68 119.27 21.27 114.93 21.19 111.79 C 24.89 111.04 28.49 111.25 28.91 115.76 C 30.43 115.73 31.95 115.68 33.48 115.64 C 33.67 108.68 23.50 112.24 21.30 106.74 Z" />
<path fill="#7b6b99" opacity="1.00" d=" M 45.84 94.77 C 50.47 93.92 55.98 93.25 60.16 95.87 C 63.20 98.72 64.41 107.85 57.96 106.29 C 54.88 106.59 55.46 102.46 54.45 100.49 C 52.64 100.50 50.82 100.52 49.01 100.55 C 48.45 105.49 48.55 110.47 48.77 115.43 C 53.30 116.74 55.66 114.43 56.31 110.07 C 64.82 106.29 64.16 120.51 57.46 121.45 C 53.00 122.45 47.82 122.66 43.79 120.20 C 40.44 116.74 41.76 111.36 41.44 107.00 C 41.58 102.78 40.75 96.41 45.84 94.77 Z" />
<path fill="#7b6b99" opacity="1.00" d=" M 69.31 94.43 C 73.72 94.10 79.07 93.18 82.74 96.24 C 85.62 100.18 84.37 105.44 84.68 109.99 C 84.52 113.75 85.21 119.15 81.01 121.00 C 76.20 122.58 70.29 122.89 65.87 120.11 C 62.44 116.31 63.89 110.65 63.53 105.99 C 63.37 101.61 63.66 95.00 69.31 94.43 M 71.23 100.55 C 70.74 105.36 70.46 110.24 71.07 115.05 C 73.07 115.74 75.23 115.50 77.31 115.47 C 77.57 110.50 77.59 105.51 77.16 100.54 C 75.18 100.53 73.21 100.53 71.23 100.55 Z" />
<path fill="#7b6b99" opacity="1.00" d=" M 86.44 96.98 C 86.22 93.44 90.90 94.22 93.10 94.89 C 94.12 101.69 93.14 108.62 93.70 115.47 C 95.78 115.51 97.90 115.67 99.93 115.08 C 100.73 108.55 99.64 101.93 100.49 95.40 C 102.27 93.67 105.01 94.73 107.22 94.65 C 107.04 102.73 108.73 111.33 106.06 119.08 C 100.80 124.27 85.94 123.92 86.42 114.08 C 86.29 108.38 86.27 102.67 86.44 96.98 Z" />
<path fill="#7b6b99" opacity="1.00" d=" M 108.71 94.80 C 114.59 94.06 120.63 94.20 126.53 94.63 C 129.25 94.74 127.92 98.32 128.15 100.11 C 126.09 100.76 123.94 100.98 121.83 101.34 C 121.52 108.00 122.47 114.76 121.29 121.35 C 119.12 121.68 116.91 121.53 114.73 121.43 C 114.47 114.75 114.58 108.06 114.61 101.38 C 110.34 101.69 106.15 99.53 108.71 94.80 Z" />
<path fill="#7b6b99" opacity="1.00" d=" M 128.57 101.00 C 128.30 93.52 137.36 93.30 142.64 94.47 C 147.07 95.19 147.86 100.33 147.46 104.02 C 147.31 108.92 142.83 111.80 139.80 115.04 C 144.48 114.54 149.11 115.59 147.46 121.33 C 141.40 121.50 135.07 122.46 129.15 120.93 C 126.92 111.65 141.95 109.77 140.29 100.52 C 139.02 100.49 137.76 100.46 136.49 100.44 C 135.92 101.92 135.35 103.41 134.77 104.89 C 131.97 104.83 127.23 105.26 128.57 101.00 Z" />
<path fill="#7b6b99" opacity="1.00" d=" M 157.41 98.41 C 158.79 94.82 162.59 93.28 166.10 94.89 C 167.02 99.98 166.44 105.21 166.46 110.36 C 167.30 110.98 168.14 111.61 168.99 112.23 C 169.04 113.55 169.10 114.88 169.15 116.20 C 168.34 116.79 167.53 117.38 166.71 117.96 C 166.53 119.13 166.35 120.30 166.17 121.46 C 164.06 121.54 161.95 121.55 159.85 121.49 C 159.58 120.15 159.33 118.81 159.07 117.47 C 155.51 117.49 151.94 117.47 148.38 117.34 C 147.51 109.82 154.38 104.66 157.41 98.41 M 156.88 111.16 C 157.51 111.05 158.78 110.84 159.42 110.73 C 159.41 109.49 159.40 108.25 159.40 107.02 C 158.56 108.39 157.71 109.77 156.88 111.16 Z" />
<path fill="#7b6b99" opacity="1.00" d=" M 24.25 126.24 C 27.24 125.15 30.93 127.19 31.37 130.38 C 32.05 135.86 30.92 141.45 32.04 146.89 C 33.39 152.58 39.21 156.40 44.95 156.02 C 78.32 155.98 111.70 156.03 145.07 155.98 C 150.47 156.23 155.86 152.69 157.42 147.46 C 158.96 141.56 157.26 135.33 158.51 129.40 C 160.21 124.05 169.08 125.32 169.11 130.97 C 169.17 139.06 170.47 147.89 166.23 155.23 C 162.11 162.81 153.58 167.49 144.99 167.28 C 111.67 167.30 78.34 167.29 45.01 167.28 C 35.89 167.57 26.80 162.39 22.86 154.09 C 19.48 147.56 20.58 140.01 20.43 132.95 C 20.21 130.20 21.37 127.05 24.25 126.24 Z" />
</g>
</svg>
