<?xml version="1.0" encoding="UTF-8" ?>
<!DOCTYPE svg PUBLIC "-//W3C//DTD SVG 1.1//EN" "http://www.w3.org/Graphics/SVG/1.1/DTD/svg11.dtd">
<svg width="192pt" height="192pt" viewBox="0 0 192 192" version="1.1" xmlns="http://www.w3.org/2000/svg">
<g id="#ff3661ff">
<path fill="#ff3661" opacity="1.00" d=" M 26.83 35.89 C 36.78 22.99 52.76 15.12 69.02 14.92 C 84.52 14.48 100.01 21.10 110.52 32.48 C 121.28 44.02 126.68 60.41 124.74 76.09 C 139.83 94.33 155.56 112.05 170.82 130.16 C 179.58 140.91 178.57 157.98 168.71 167.70 C 158.93 178.35 140.93 179.49 129.93 170.09 C 112.56 155.13 95.15 140.20 77.87 125.13 C 74.31 122.31 74.07 116.51 77.33 113.37 C 87.33 103.02 97.64 92.98 107.79 82.79 C 109.36 81.05 111.70 79.59 111.91 77.04 C 113.43 68.11 112.13 58.72 108.09 50.60 C 88.98 69.64 69.83 88.66 50.87 107.85 C 54.45 109.92 59.92 109.87 61.65 114.26 C 63.62 118.70 58.84 124.06 54.19 122.44 C 39.29 118.14 26.58 107.04 20.16 92.94 C 11.60 74.65 14.15 51.66 26.83 35.89 M 28.77 58.84 C 24.64 73.56 29.42 89.94 40.23 100.62 C 60.71 80.74 80.73 60.34 100.93 40.17 C 92.43 31.40 80.17 26.39 67.94 27.18 C 49.83 27.75 33.26 41.36 28.77 58.84 M 89.09 118.84 C 105.15 132.81 121.38 146.57 137.54 160.41 C 143.88 165.91 154.37 165.23 159.97 158.99 C 165.84 153.10 165.97 142.78 160.29 136.71 C 146.52 120.80 133.03 104.65 119.11 88.87 C 109.07 98.84 99.10 108.85 89.09 118.84 Z" />
<path fill="#ff3661" opacity="1.00" d=" M 122.31 118.40 C 126.97 116.51 130.09 121.26 132.99 124.01 C 135.50 126.95 139.34 129.12 140.44 133.01 C 141.63 138.04 135.02 142.43 130.93 139.13 C 127.02 135.71 123.41 131.91 119.84 128.13 C 116.92 125.16 118.43 119.70 122.31 118.40 Z" />
</g>
</svg>
