<?xml version="1.0" encoding="UTF-8" ?>
<!DOCTYPE svg PUBLIC "-//W3C//DTD SVG 1.1//EN" "http://www.w3.org/Graphics/SVG/1.1/DTD/svg11.dtd">
<svg width="192pt" height="192pt" viewBox="0 0 192 192" version="1.1" xmlns="http://www.w3.org/2000/svg">
<g id="#ff8c1fff">
<path fill="#ff8c1f" opacity="1.00" d=" M 75.09 22.70 C 75.48 20.64 74.91 16.82 77.96 16.80 C 89.98 16.70 102.02 16.68 114.04 16.80 C 116.98 16.91 116.38 20.65 116.80 22.68 C 122.54 22.83 128.29 22.50 134.03 22.73 C 140.76 22.97 146.97 29.10 146.80 35.92 C 146.79 48.30 146.82 60.69 146.79 73.07 C 147.01 76.92 144.35 80.57 140.68 81.67 C 127.69 85.96 112.86 86.85 100.26 80.82 C 94.89 78.43 90.76 73.97 85.27 71.82 C 76.73 68.37 67.02 68.81 58.30 71.33 C 56.52 71.65 56.27 73.51 56.37 75.00 C 56.36 103.02 56.38 131.03 56.36 159.05 C 56.49 160.16 56.07 162.53 57.95 162.21 C 82.66 162.21 107.37 162.10 132.08 162.08 C 133.95 162.41 135.79 160.99 135.48 159.01 C 135.64 138.02 135.29 117.00 135.65 96.01 C 135.91 89.52 146.55 89.63 146.72 96.09 C 146.92 118.08 146.77 140.08 146.80 162.07 C 147.17 168.40 141.25 173.89 135.00 173.43 C 109.33 173.43 83.66 173.48 58.00 173.53 C 51.24 173.78 45.00 167.88 45.08 161.09 C 44.98 119.37 45.09 77.64 45.06 35.92 C 44.95 29.06 51.18 22.91 57.97 22.72 C 63.68 22.52 69.38 22.82 75.09 22.70 M 56.56 34.52 C 56.13 43.00 56.48 51.50 56.35 59.99 C 70.48 56.51 86.63 57.31 98.54 66.47 C 108.74 74.94 123.46 75.50 135.53 71.18 C 135.30 59.16 135.89 47.11 135.26 35.12 C 130.90 32.54 124.97 34.44 119.99 33.89 C 98.87 34.98 77.61 32.93 56.56 34.52 Z" />
<path fill="#ff8c1f" opacity="1.00" d=" M 61.43 136.52 C 82.55 135.59 103.84 136.42 125.02 136.08 C 127.21 136.17 130.68 135.60 131.35 138.45 C 131.75 144.15 131.58 149.91 131.46 155.63 C 131.31 157.86 128.98 158.70 127.03 158.44 C 105.68 158.39 84.32 158.51 62.97 158.37 C 57.98 157.78 60.21 151.39 59.73 148.00 C 60.33 144.30 58.23 139.25 61.43 136.52 Z" />
</g>
</svg>
