<?xml version="1.0" encoding="UTF-8" ?>
<!DOCTYPE svg PUBLIC "-//W3C//DTD SVG 1.1//EN" "http://www.w3.org/Graphics/SVG/1.1/DTD/svg11.dtd">
<svg width="192pt" height="192pt" viewBox="0 0 192 192" version="1.1" xmlns="http://www.w3.org/2000/svg">
<g id="#83a689ff">
<path fill="#83a689" opacity="1.00" d=" M 22.08 43.94 C 21.91 32.07 32.14 21.22 44.02 20.81 C 50.34 20.72 56.69 20.52 63.01 20.90 C 68.39 21.60 68.92 30.17 63.68 31.57 C 57.14 32.42 50.49 31.33 43.93 32.07 C 38.14 32.69 33.19 38.04 33.31 43.92 C 33.21 55.58 33.35 67.24 33.26 78.90 C 41.76 79.21 50.31 78.55 58.79 79.23 C 64.25 80.62 63.62 89.45 57.99 89.99 C 46.01 90.33 33.99 90.12 22.00 90.06 C 22.01 74.68 21.99 59.31 22.08 43.94 Z" />
<path fill="#83a689" opacity="1.00" d=" M 79.39 28.94 C 78.55 24.55 82.56 20.31 86.98 20.76 C 107.31 20.73 127.64 20.69 147.98 20.76 C 159.83 20.71 170.48 31.09 170.81 42.92 C 171.15 56.96 171.33 71.03 170.85 85.05 C 170.75 91.16 160.97 91.92 159.90 85.94 C 159.23 71.65 160.02 57.29 159.54 42.99 C 159.13 36.32 152.51 31.35 146.01 31.87 C 127.76 31.93 109.50 31.63 91.25 31.98 C 92.90 42.35 94.91 52.67 96.36 63.06 C 96.91 67.13 92.15 70.17 88.54 68.52 C 85.53 67.38 85.13 63.87 84.67 61.12 C 83.02 50.38 80.96 39.70 79.39 28.94 Z" />
<path fill="#83a689" opacity="1.00" d=" M 22.20 106.03 C 22.54 99.84 32.63 99.84 33.07 105.99 C 33.62 119.65 33.03 133.35 33.34 147.02 C 33.56 153.42 39.65 158.73 46.01 158.34 C 64.34 158.33 82.67 158.36 101.00 158.30 C 99.40 148.20 97.44 138.14 96.02 128.02 C 95.12 123.85 100.05 120.26 103.78 122.16 C 106.71 123.26 107.15 126.64 107.62 129.32 C 109.14 139.13 110.99 148.89 112.48 158.70 C 113.42 164.21 108.60 169.74 103.00 169.52 C 83.68 169.59 64.35 169.57 45.02 169.52 C 33.05 169.54 22.33 159.06 22.12 147.08 C 22.06 133.40 21.91 119.70 22.20 106.03 Z" />
<path fill="#83a689" opacity="1.00" d=" M 134.10 112.11 C 128.80 110.60 129.55 101.79 135.15 101.50 C 147.02 101.20 158.90 101.50 170.78 101.35 C 170.77 116.59 170.89 131.83 170.75 147.07 C 170.60 158.64 160.51 168.92 148.97 169.44 C 143.32 169.54 137.64 169.78 132.01 169.31 C 127.15 168.28 126.43 160.87 131.01 158.93 C 137.49 157.38 144.35 159.31 150.87 157.86 C 155.97 156.41 159.76 151.39 159.67 146.08 C 159.74 134.87 159.73 123.66 159.65 112.45 C 151.14 112.25 142.56 112.94 134.10 112.11 Z" />
</g>
</svg>
