<?xml version="1.0" encoding="UTF-8" ?>
<!DOCTYPE svg PUBLIC "-//W3C//DTD SVG 1.1//EN" "http://www.w3.org/Graphics/SVG/1.1/DTD/svg11.dtd">
<svg width="192pt" height="192pt" viewBox="0 0 192 192" version="1.1" xmlns="http://www.w3.org/2000/svg">
<g id="#ff3661ff">
<path fill="#ff3661" opacity="1.00" d=" M 77.33 16.34 C 105.41 5.80 139.06 12.57 160.73 33.31 C 163.88 36.85 163.55 42.85 160.08 46.07 C 144.96 61.29 129.69 76.36 114.60 91.60 C 113.37 92.49 114.47 93.99 115.28 94.71 C 131.32 110.66 147.42 126.56 163.35 142.62 C 171.18 150.94 168.26 164.99 158.89 170.88 C 149.37 179.30 134.20 173.48 129.30 162.88 C 128.21 159.09 132.15 155.15 135.93 156.10 C 140.04 157.29 141.73 162.06 145.64 163.54 C 151.96 164.72 159.59 156.41 155.39 150.63 C 138.78 133.90 121.94 117.38 105.30 100.68 C 101.02 96.67 100.93 89.24 105.14 85.14 C 119.73 70.40 134.51 55.83 149.12 41.10 C 150.18 40.31 150.25 38.67 149.04 37.97 C 133.48 25.57 112.55 20.10 92.94 23.75 C 65.41 28.26 41.94 50.77 36.31 78.09 C 31.80 99.18 36.96 122.43 51.03 138.93 C 62.29 128.24 73.06 117.02 84.11 106.11 C 86.61 103.75 89.07 99.98 93.06 100.90 C 97.31 101.73 98.94 107.76 95.56 110.55 C 82.06 124.08 68.54 137.58 55.01 151.06 C 53.18 153.13 49.56 153.39 47.51 151.52 C 22.71 127.70 16.41 87.50 31.89 56.94 C 41.11 38.26 57.74 23.40 77.33 16.34 Z" />
</g>
</svg>
