<?xml version="1.0" encoding="UTF-8" ?>
<!DOCTYPE svg PUBLIC "-//W3C//DTD SVG 1.1//EN" "http://www.w3.org/Graphics/SVG/1.1/DTD/svg11.dtd">
<svg width="192pt" height="192pt" viewBox="0 0 192 192" version="1.1" xmlns="http://www.w3.org/2000/svg">
<g id="#a61affff">
<path fill="#a61aff" opacity="1.00" d=" M 26.37 58.43 C 45.65 33.80 78.70 23.61 109.08 25.25 C 128.93 26.38 149.14 34.40 161.79 50.21 C 185.10 79.04 180.42 124.81 154.33 150.35 C 150.43 153.84 143.79 149.30 145.47 144.39 C 147.24 140.47 150.96 137.85 153.28 134.25 C 169.05 111.94 170.54 78.80 152.85 57.10 C 139.70 41.16 117.90 35.45 97.94 36.45 C 77.97 37.52 57.56 43.91 42.49 57.48 C 31.43 67.52 23.82 81.91 23.57 97.00 C 23.32 109.31 29.45 121.38 39.22 128.78 C 50.45 137.42 65.13 140.18 79.03 139.65 C 94.63 139.30 109.74 135.01 125.08 132.65 C 130.39 131.76 136.94 133.29 139.35 138.61 C 142.11 144.80 138.26 151.17 135.68 156.70 C 134.45 159.65 129.70 159.40 128.48 156.56 C 126.04 152.52 127.70 147.75 128.93 143.62 C 102.77 147.67 75.37 156.16 49.32 146.82 C 33.06 141.40 19.09 128.33 14.38 111.62 C 8.96 93.30 14.97 73.24 26.37 58.43 Z" />
<path fill="#a61aff" opacity="1.00" d=" M 54.87 72.91 C 58.29 72.07 64.54 70.88 65.11 75.86 C 67.98 86.52 71.95 96.91 74.14 107.73 C 71.79 107.80 69.45 107.81 67.10 107.77 C 66.28 105.66 65.63 103.49 65.03 101.31 C 61.39 101.29 57.74 101.30 54.10 101.30 C 53.49 103.38 52.91 105.47 52.33 107.55 C 49.83 107.84 47.32 107.86 44.81 107.79 C 47.08 95.97 51.17 84.38 54.87 72.91 M 59.52 81.20 C 58.24 85.90 56.99 90.61 55.68 95.31 C 58.28 95.33 60.88 95.33 63.47 95.31 C 62.19 90.60 60.95 85.87 59.52 81.20 Z" />
<path fill="#a61aff" opacity="1.00" d=" M 76.14 72.43 C 78.41 72.59 81.16 71.69 83.14 72.93 C 85.74 77.01 87.33 81.66 89.59 85.94 C 91.80 81.66 93.46 77.09 95.96 72.97 C 97.97 71.65 100.83 72.62 103.16 72.40 C 101.86 78.62 97.89 83.91 95.53 89.76 C 98.35 95.57 101.33 101.31 103.98 107.21 C 101.61 108.07 98.98 108.11 96.54 107.51 C 93.94 103.27 92.11 98.60 89.76 94.22 C 87.32 98.65 85.71 103.60 82.72 107.67 C 80.43 108.00 78.10 107.77 75.80 107.67 C 77.61 101.40 81.34 95.89 83.91 89.91 C 81.50 84.02 77.56 78.67 76.14 72.43 Z" />
<path fill="#a61aff" opacity="1.00" d=" M 107.90 72.82 C 110.32 72.12 112.86 72.17 115.30 72.78 C 115.34 84.17 115.54 95.58 115.22 106.96 C 113.62 108.71 110.45 107.48 108.22 107.75 C 107.43 96.13 108.05 84.46 107.90 72.82 Z" />
<path fill="#a61aff" opacity="1.00" d=" M 122.46 74.43 C 126.94 70.69 133.51 71.90 138.89 72.30 C 144.46 72.69 145.78 79.27 144.71 83.75 C 142.48 83.81 140.25 83.81 138.02 83.80 C 138.72 77.76 133.11 77.19 128.51 78.52 C 128.33 80.50 128.01 82.54 128.50 84.51 C 133.33 87.88 140.83 86.39 144.64 91.36 C 146.09 95.96 146.49 101.67 143.87 105.91 C 139.22 109.54 132.57 108.39 127.08 107.90 C 122.03 107.38 120.75 101.57 121.39 97.38 C 123.04 95.33 126.09 96.65 128.36 96.51 C 128.66 98.25 128.97 99.99 129.30 101.73 C 132.00 102.21 134.97 102.81 137.55 101.57 C 138.37 99.50 138.75 96.61 137.24 94.77 C 132.37 92.43 126.06 92.99 122.05 89.00 C 120.10 84.57 119.86 78.66 122.46 74.43 Z" />
</g>
</svg>
