<?xml version="1.0" encoding="UTF-8" ?>
<!DOCTYPE svg PUBLIC "-//W3C//DTD SVG 1.1//EN" "http://www.w3.org/Graphics/SVG/1.1/DTD/svg11.dtd">
<svg width="192pt" height="192pt" viewBox="0 0 192 192" version="1.1" xmlns="http://www.w3.org/2000/svg">
<g id="#8c66ceff">
<path fill="#8c66ce" opacity="1.00" d=" M 58.22 32.44 C 58.43 28.21 56.80 21.75 62.08 19.98 C 68.66 19.56 75.34 19.53 81.92 19.99 C 87.16 21.77 85.60 28.23 85.83 32.46 C 89.29 32.53 92.76 32.54 96.23 32.48 C 96.18 28.77 95.57 23.33 100.09 21.92 C 106.65 21.36 113.35 21.35 119.90 21.91 C 126.68 25.20 122.72 34.34 123.79 40.24 C 129.71 40.54 135.68 39.84 141.56 40.61 C 147.39 42.64 145.09 49.97 145.57 54.65 C 152.72 54.87 159.87 54.48 167.00 54.83 C 170.04 55.00 172.13 58.12 171.86 61.02 C 171.81 71.66 171.97 82.33 171.61 92.95 C 170.31 98.49 163.56 97.19 159.32 97.24 C 159.10 103.13 159.75 109.08 158.96 114.92 C 157.19 120.39 150.51 118.26 146.23 118.81 C 146.04 125.10 147.00 131.57 145.71 137.75 C 142.02 143.89 133.41 140.14 127.58 141.13 C 127.53 149.43 127.66 157.74 127.59 166.04 C 127.66 168.98 124.97 171.64 122.01 171.46 C 112.01 171.64 102.01 171.58 92.01 171.54 C 88.90 171.84 85.89 169.20 85.95 166.05 C 85.69 157.80 86.00 149.53 85.78 141.27 C 81.14 140.97 73.72 142.96 71.99 136.98 C 71.46 128.21 72.07 119.40 71.81 110.61 C 65.92 110.22 59.78 111.39 54.04 109.99 C 48.20 105.56 52.14 96.84 50.85 90.59 C 41.94 90.59 33.02 90.79 24.12 90.57 C 19.78 90.48 17.51 84.56 20.42 81.43 C 22.77 78.63 26.80 79.57 30.00 79.40 C 39.43 79.70 48.92 78.88 58.32 79.66 C 65.41 83.26 61.07 93.02 62.29 99.33 C 67.51 99.43 72.74 99.16 77.96 99.36 C 80.84 99.42 83.26 102.10 83.18 104.95 C 83.34 113.28 83.14 121.63 83.14 129.97 C 87.77 130.38 95.05 128.19 96.95 134.06 C 97.60 142.74 97.04 151.49 97.22 160.20 C 103.62 160.27 110.02 160.21 116.42 160.25 C 116.58 151.40 116.06 142.51 116.67 133.68 C 120.00 126.92 129.16 130.87 135.10 129.83 C 135.30 123.65 134.74 117.42 135.38 111.27 C 137.31 106.14 143.78 107.81 148.03 107.62 C 148.41 101.54 147.33 95.35 148.42 89.35 C 150.46 84.56 156.46 86.24 160.54 85.92 C 160.54 79.33 160.43 72.74 160.46 66.15 C 153.06 65.87 145.58 66.61 138.22 65.78 C 132.28 63.76 134.62 56.37 134.14 51.66 C 128.04 51.33 121.80 52.26 115.79 51.17 C 109.62 47.36 113.55 38.71 112.37 32.79 C 110.77 32.94 109.18 33.08 107.58 33.17 C 107.93 37.07 108.00 43.09 102.91 43.69 C 94.74 43.80 86.51 44.09 78.37 43.51 C 73.18 41.70 74.69 35.31 74.46 31.08 C 72.81 31.13 71.16 31.15 69.51 31.17 C 69.42 35.38 70.83 41.79 65.62 43.47 C 58.87 44.11 52.05 43.49 45.27 43.77 C 45.17 51.85 45.49 59.94 45.13 68.00 C 44.30 73.80 34.92 73.83 34.13 67.98 C 33.76 58.65 34.02 49.28 33.98 39.93 C 33.65 36.02 37.07 32.41 40.99 32.51 C 46.73 32.35 52.47 32.54 58.22 32.44 Z" />
</g>
</svg>
