<?xml version="1.0" encoding="UTF-8" ?>
<!DOCTYPE svg PUBLIC "-//W3C//DTD SVG 1.1//EN" "http://www.w3.org/Graphics/SVG/1.1/DTD/svg11.dtd">
<svg width="192pt" height="192pt" viewBox="0 0 192 192" version="1.1" xmlns="http://www.w3.org/2000/svg">
<g id="#2ab9a1ff">
<path fill="#2ab9a1" opacity="1.00" d=" M 40.30 21.36 C 43.81 20.59 47.43 20.74 50.99 20.73 C 83.33 20.80 115.67 20.67 148.00 20.77 C 160.21 20.73 171.00 31.75 170.84 43.93 C 170.96 73.95 170.84 103.98 170.93 134.00 C 171.02 141.71 171.96 150.03 168.13 157.08 C 164.17 164.77 155.69 169.73 147.06 169.58 C 112.72 169.54 78.37 169.68 44.03 169.47 C 30.78 169.01 20.51 155.97 22.04 143.00 C 22.13 109.97 22.04 76.95 22.13 43.92 C 22.00 33.38 30.04 23.56 40.30 21.36 M 42.29 32.35 C 37.18 33.67 33.17 38.59 33.30 43.93 C 33.24 77.97 33.27 112.02 33.29 146.07 C 33.04 152.82 39.27 158.76 45.99 158.33 C 79.67 158.32 113.34 158.31 147.02 158.27 C 153.70 158.65 159.75 152.74 159.62 146.08 C 159.72 112.36 159.66 78.63 159.67 44.91 C 160.16 37.95 154.00 31.68 147.05 31.90 C 114.37 31.71 81.68 31.88 49.00 31.74 C 46.75 31.76 44.47 31.76 42.29 32.35 Z" />
<path fill="#2ab9a1" opacity="1.00" d=" M 74.84 84.01 C 75.99 76.88 85.14 78.05 90.42 78.56 C 95.48 78.81 96.66 84.26 96.67 88.37 C 94.68 88.49 92.70 88.58 90.71 88.65 C 90.00 84.21 85.52 82.87 81.80 84.87 C 81.35 87.07 81.33 89.32 81.12 91.55 C 85.81 90.78 92.00 89.34 95.58 93.41 C 97.84 97.38 97.32 102.37 96.59 106.71 C 95.36 111.77 89.15 111.63 85.01 111.60 C 81.03 111.77 75.38 110.90 74.88 105.98 C 74.33 98.69 74.39 91.30 74.84 84.01 M 82.33 97.21 C 80.16 100.00 80.77 107.15 86.02 105.78 C 90.99 106.79 91.13 100.42 89.61 97.33 C 87.47 96.15 84.50 96.14 82.33 97.21 Z" />
<path fill="#2ab9a1" opacity="1.00" d=" M 129.43 78.70 C 135.17 77.72 145.30 76.91 145.90 84.97 C 148.32 94.12 139.74 99.67 134.24 105.23 C 138.11 105.29 141.98 105.26 145.85 105.46 C 145.88 107.30 145.89 109.15 145.87 111.00 C 138.77 111.39 131.66 111.24 124.56 111.09 C 123.03 100.07 140.02 97.78 139.17 86.98 C 139.22 82.89 134.32 84.51 131.66 84.25 C 131.24 86.05 130.84 87.87 130.43 89.68 C 128.34 89.65 126.24 89.59 124.15 89.49 C 123.87 85.38 124.28 79.42 129.43 78.70 Z" />
<path fill="#2ab9a1" opacity="1.00" d=" M 47.76 78.78 C 53.72 78.86 59.83 78.02 65.69 79.36 C 71.75 81.57 71.08 90.00 68.38 94.64 C 71.32 98.79 72.00 105.52 68.32 109.37 C 62.06 112.64 54.56 110.77 47.78 111.10 C 47.53 100.33 47.58 89.55 47.76 78.78 M 54.33 84.23 C 54.33 86.90 54.33 89.56 54.33 92.23 C 57.70 91.98 64.52 93.46 63.56 88.01 C 64.02 82.83 57.52 84.64 54.33 84.23 M 54.34 97.31 C 54.34 100.04 54.33 102.78 54.32 105.52 C 57.39 105.37 60.67 105.95 63.56 104.64 C 64.21 102.34 63.82 99.95 63.60 97.62 C 60.51 97.41 57.42 97.36 54.34 97.31 Z" />
<path fill="#2ab9a1" opacity="1.00" d=" M 101.89 80.92 C 106.20 79.48 110.66 78.35 115.25 78.63 C 115.63 87.47 115.38 96.31 115.44 105.15 C 117.41 105.23 119.39 105.32 121.37 105.44 C 121.42 107.35 121.44 109.26 121.46 111.17 C 114.80 111.23 108.13 111.29 101.47 111.10 C 99.71 105.59 103.82 104.48 108.51 105.11 C 108.50 98.56 108.51 92.00 108.49 85.45 C 106.30 85.38 104.10 85.30 101.91 85.19 C 101.91 83.76 101.90 82.34 101.89 80.92 Z" />
</g>
</svg>
