<?xml version="1.0" encoding="UTF-8" ?>
<!DOCTYPE svg PUBLIC "-//W3C//DTD SVG 1.1//EN" "http://www.w3.org/Graphics/SVG/1.1/DTD/svg11.dtd">
<svg width="192pt" height="192pt" viewBox="0 0 192 192" version="1.1" xmlns="http://www.w3.org/2000/svg">
<g id="#ff8f1fff">
<path fill="#ff8f1f" opacity="1.00" d=" M 88.53 49.01 C 88.89 40.61 96.56 33.42 104.94 33.50 C 115.47 33.48 126.00 33.22 136.52 33.66 C 149.73 34.50 163.22 43.24 166.35 56.62 C 168.71 67.42 166.30 79.35 159.55 88.16 C 177.36 102.10 173.91 133.58 154.69 144.73 C 140.93 153.95 123.70 152.07 108.00 152.19 C 100.77 151.93 92.52 153.47 86.39 148.65 C 81.58 144.98 80.67 138.43 81.34 132.79 C 83.87 104.87 85.92 76.92 88.53 49.01 M 102.43 45.51 C 100.03 46.75 99.70 49.60 99.53 52.01 C 97.09 79.01 95.08 106.05 92.61 133.06 C 92.64 135.48 91.49 139.47 94.62 140.41 C 100.00 141.39 105.55 140.68 111.00 140.86 C 124.16 140.74 138.94 142.62 150.14 134.15 C 162.66 125.50 164.15 101.76 148.92 95.13 C 144.54 93.53 143.52 87.13 147.29 84.34 C 154.82 78.46 157.27 67.85 155.29 58.82 C 152.32 48.69 140.75 44.17 130.99 44.72 C 121.51 45.12 111.68 43.69 102.43 45.51 Z" />
<path fill="#ff8f1f" opacity="1.00" d=" M 112.42 58.48 C 119.91 57.05 128.27 56.93 135.66 59.26 C 146.90 63.75 146.57 80.95 137.26 87.27 C 130.76 91.86 122.44 90.27 114.99 90.54 C 111.14 91.03 107.16 88.00 107.15 84.02 C 107.26 78.00 108.17 72.02 108.55 66.01 C 108.67 63.10 109.62 59.88 112.42 58.48 M 119.56 69.22 C 119.35 72.56 119.03 75.89 118.73 79.22 C 122.11 79.21 125.54 79.56 128.88 78.89 C 132.63 78.14 134.02 72.77 131.97 70.00 C 128.10 68.41 123.64 68.60 119.56 69.22 Z" />
<path fill="#ff8f1f" opacity="1.00" d=" M 48.27 64.17 C 54.07 61.24 60.21 68.27 57.84 73.89 C 56.28 80.54 48.26 82.65 42.40 80.84 C 42.15 74.96 41.85 66.99 48.27 64.17 Z" />
<path fill="#ff8f1f" opacity="1.00" d=" M 23.55 98.38 C 18.07 95.47 21.04 86.32 26.98 86.32 C 41.26 86.30 55.58 86.13 69.86 86.41 C 76.37 86.89 76.31 96.77 70.69 98.64 C 65.12 100.11 59.24 98.62 53.57 99.54 C 51.83 106.57 55.84 120.27 45.13 120.79 C 35.94 118.14 41.89 106.21 40.77 99.32 C 35.06 98.75 29.05 100.23 23.55 98.38 Z" />
<path fill="#ff8f1f" opacity="1.00" d=" M 111.28 95.30 C 120.35 95.12 129.78 94.03 138.68 96.23 C 151.04 100.46 149.82 119.67 139.00 125.00 C 130.61 129.12 120.95 127.31 111.95 127.65 C 108.06 128.09 104.13 125.04 104.07 121.03 C 104.20 115.05 105.00 109.09 105.36 103.12 C 105.46 99.62 107.70 96.05 111.28 95.30 M 116.47 106.37 C 116.15 109.70 115.85 113.03 115.63 116.36 C 121.51 116.30 127.66 117.15 133.32 115.24 C 136.52 113.95 138.03 106.95 133.62 106.53 C 127.92 106.09 122.19 106.42 116.47 106.37 Z" />
</g>
</svg>
