<?xml version="1.0" encoding="UTF-8" ?>
<!DOCTYPE svg PUBLIC "-//W3C//DTD SVG 1.1//EN" "http://www.w3.org/Graphics/SVG/1.1/DTD/svg11.dtd">
<svg width="192pt" height="192pt" viewBox="0 0 192 192" version="1.1" xmlns="http://www.w3.org/2000/svg">
<g id="#ec735fff">
<path fill="#ec735f" opacity="1.00" d=" M 30.48 16.34 C 31.26 12.49 36.10 11.02 39.35 12.72 C 50.61 17.79 61.89 22.81 73.17 27.83 C 74.54 28.58 76.06 27.76 77.44 27.51 C 94.48 22.49 113.27 24.26 129.39 31.55 C 152.90 42.20 170.26 66.06 171.91 91.96 C 172.45 109.68 166.19 127.09 156.98 142.03 C 154.43 146.79 146.52 143.01 147.62 138.04 C 148.59 131.19 144.12 124.90 138.31 121.74 C 129.45 116.77 118.99 115.46 108.99 115.34 C 96.78 119.67 81.79 116.88 73.32 106.63 C 62.82 94.89 62.89 75.31 73.92 63.94 C 83.78 53.11 101.27 50.73 113.84 58.08 C 121.44 62.47 126.88 70.19 128.71 78.75 C 137.59 76.84 146.33 74.31 155.12 72.06 C 144.23 47.59 116.35 32.77 89.95 36.37 C 83.07 36.53 76.36 41.48 69.55 38.49 C 60.13 34.43 50.84 30.06 41.41 26.03 C 41.10 32.38 44.11 38.45 43.60 44.70 C 41.57 50.70 34.31 48.59 29.76 47.44 C 31.85 52.84 35.26 57.61 39.65 61.37 C 43.13 64.41 41.90 69.47 39.83 72.94 C 26.43 99.99 36.48 135.77 61.67 152.26 C 82.83 166.57 113.03 167.32 133.84 151.93 C 137.15 149.07 142.91 151.64 142.90 156.01 C 143.31 160.21 138.86 162.03 136.01 164.02 C 107.46 181.91 67.10 176.31 43.94 152.04 C 22.39 130.46 16.30 95.09 29.78 67.67 C 22.54 60.22 17.34 50.27 16.07 40.00 C 16.88 32.46 26.01 34.63 31.02 36.10 C 30.46 29.55 29.39 22.89 30.48 16.34 M 77.48 90.64 C 79.81 101.72 92.39 108.64 103.03 105.10 C 110.31 101.55 115.76 94.65 117.10 86.61 C 111.12 93.44 99.39 93.62 93.59 86.50 C 88.40 80.52 89.53 71.37 93.99 65.32 C 82.50 67.09 74.25 79.35 77.48 90.64 M 105.03 81.34 C 111.23 81.32 111.04 72.03 105.01 71.33 C 99.76 72.79 99.19 80.40 105.03 81.34 M 127.74 91.76 C 126.06 96.37 124.15 100.94 121.09 104.82 C 133.69 106.46 146.99 110.88 154.80 121.55 C 159.42 109.72 162.34 96.68 159.46 84.06 C 148.74 85.88 138.37 89.44 127.74 91.76 Z" />
<path fill="#ec735f" opacity="1.00" d=" M 156.53 22.93 C 156.05 18.71 156.33 12.12 162.01 12.05 C 167.81 11.92 168.31 18.61 167.78 22.90 C 172.13 22.48 179.08 22.98 178.83 28.92 C 178.69 34.60 172.05 34.74 167.85 34.33 C 168.24 38.67 167.96 45.51 161.99 45.34 C 156.28 45.20 156.06 38.58 156.47 34.33 C 152.26 34.71 145.79 34.64 145.47 29.01 C 145.11 22.92 152.15 22.57 156.53 22.93 Z" />
</g>
</svg>
