<?xml version="1.0" encoding="UTF-8" ?>
<!DOCTYPE svg PUBLIC "-//W3C//DTD SVG 1.1//EN" "http://www.w3.org/Graphics/SVG/1.1/DTD/svg11.dtd">
<svg width="192pt" height="192pt" viewBox="0 0 192 192" version="1.1" xmlns="http://www.w3.org/2000/svg">
<g id="#eb7062ff">
<path fill="#eb7062" opacity="1.00" d=" M 34.39 18.28 C 34.96 14.49 39.53 12.68 42.83 14.19 C 54.11 19.25 65.39 24.29 76.67 29.35 C 78.91 30.57 81.32 28.95 83.58 28.56 C 105.77 22.94 130.57 28.17 148.36 42.66 C 167.12 57.74 178.95 82.69 174.83 106.89 C 172.55 120.14 167.73 133.06 160.38 144.35 C 157.58 148.53 150.37 144.76 151.33 140.06 C 152.41 132.69 147.29 126.14 140.98 123.01 C 132.16 118.54 121.97 117.11 112.19 117.33 C 99.59 122.00 84.06 118.02 76.03 107.02 C 66.50 95.00 67.29 76.10 78.24 65.23 C 88.06 54.88 105.02 52.56 117.34 59.68 C 125.19 64.04 130.63 72.01 132.58 80.70 C 141.34 78.39 150.12 76.18 158.87 73.83 C 147.48 48.30 117.75 33.25 90.40 38.57 C 85.07 39.25 79.77 42.68 74.36 40.52 C 64.60 36.58 55.22 31.74 45.42 27.86 C 44.95 34.24 48.26 40.35 47.49 46.61 C 45.32 52.49 38.25 50.30 33.70 49.16 C 35.81 54.94 39.74 59.70 44.23 63.81 C 47.92 68.07 44.29 73.37 42.50 77.58 C 30.60 105.31 42.17 140.55 68.16 155.88 C 89.13 168.60 117.81 168.65 137.75 153.78 C 142.86 149.42 150.01 157.73 145.12 162.13 C 117.12 184.41 73.04 179.97 48.44 154.56 C 26.44 132.89 20.22 97.13 33.73 69.34 C 26.50 62.01 21.52 52.13 20.05 42.00 C 20.56 34.23 29.98 36.18 35.00 37.84 C 34.44 31.36 33.37 24.77 34.39 18.28 M 81.23 91.89 C 83.25 103.28 96.04 110.57 106.91 106.93 C 114.07 103.37 119.48 96.60 120.85 88.65 C 115.05 94.78 104.65 95.50 98.52 89.48 C 92.39 83.70 92.90 73.24 98.12 67.02 C 86.76 68.72 78.29 80.61 81.23 91.89 M 104.50 76.73 C 104.54 77.58 104.62 79.28 104.66 80.13 C 105.36 80.93 106.05 81.74 106.74 82.56 C 110.38 83.68 114.86 81.22 113.51 76.93 C 111.99 72.57 106.42 72.86 104.50 76.73 M 131.45 93.63 C 129.89 98.23 127.91 102.72 124.93 106.59 C 137.39 108.42 150.73 112.62 158.36 123.37 C 163.12 111.55 166.53 97.95 162.64 85.44 C 152.32 88.45 141.85 90.93 131.45 93.63 Z" />
</g>
</svg>
