<?xml version="1.0" encoding="UTF-8" ?>
<!DOCTYPE svg PUBLIC "-//W3C//DTD SVG 1.1//EN" "http://www.w3.org/Graphics/SVG/1.1/DTD/svg11.dtd">
<svg width="192pt" height="192pt" viewBox="0 0 192 192" version="1.1" xmlns="http://www.w3.org/2000/svg">
<g id="#41bbbfff">
<path fill="#41bbbf" opacity="1.00" d=" M 55.30 17.36 C 80.43 15.90 105.78 17.16 130.99 16.70 C 140.08 15.84 148.57 23.87 148.21 32.98 C 148.24 74.66 148.22 116.33 148.23 158.01 C 148.73 166.82 140.88 174.88 132.06 174.58 C 108.02 174.61 83.98 174.60 59.95 174.56 C 51.14 174.85 43.36 166.78 43.82 158.01 C 43.80 116.33 43.78 74.66 43.84 32.98 C 43.66 25.97 48.57 19.29 55.30 17.36 M 58.23 28.35 C 55.76 28.91 54.96 31.69 55.10 33.92 C 55.07 74.97 55.10 116.03 55.09 157.08 C 54.68 160.00 56.65 163.40 59.93 163.10 C 83.97 163.17 108.03 163.14 132.08 163.07 C 135.34 163.39 137.33 159.99 136.95 157.08 C 136.94 116.03 136.98 74.97 136.93 33.92 C 137.31 31.01 135.25 27.79 132.05 28.15 C 107.45 28.24 82.81 27.85 58.23 28.35 Z" />
<path fill="#41bbbf" opacity="1.00" d=" M 32.26 43.32 C 35.93 41.79 40.26 44.94 39.83 48.91 C 39.83 82.58 39.95 116.27 39.77 149.93 C 39.85 156.54 28.98 156.59 28.81 150.02 C 28.54 116.68 28.78 83.32 28.69 49.97 C 28.50 47.32 29.53 44.26 32.26 43.32 Z" />
<path fill="#41bbbf" opacity="1.00" d=" M 155.32 43.36 C 159.54 41.55 163.82 45.63 163.07 49.93 C 163.00 83.30 163.30 116.69 162.92 150.04 C 162.86 156.57 152.10 156.55 151.99 150.03 C 151.69 117.03 151.98 84.00 151.85 50.98 C 151.68 48.10 152.19 44.46 155.32 43.36 Z" />
<path fill="#41bbbf" opacity="1.00" d=" M 18.41 66.51 C 22.21 65.52 25.58 69.22 25.24 72.91 C 25.29 90.63 25.38 108.36 25.25 126.07 C 25.55 130.54 19.82 133.39 16.39 130.65 C 13.84 128.98 14.05 125.68 14.05 123.02 C 14.17 106.01 14.20 88.99 14.28 71.98 C 14.07 69.45 15.96 67.03 18.41 66.51 Z" />
<path fill="#41bbbf" opacity="1.00" d=" M 171.41 66.44 C 174.63 65.84 177.95 68.69 177.65 72.00 C 177.71 90.30 177.99 108.62 177.69 126.92 C 177.39 133.10 167.23 133.19 166.79 127.01 C 166.45 109.00 166.82 90.96 166.70 72.94 C 166.44 70.01 168.36 66.86 171.41 66.44 Z" />
</g>
</svg>
