<?xml version="1.0" encoding="UTF-8" ?>
<!DOCTYPE svg PUBLIC "-//W3C//DTD SVG 1.1//EN" "http://www.w3.org/Graphics/SVG/1.1/DTD/svg11.dtd">
<svg width="192pt" height="192pt" viewBox="0 0 192 192" version="1.1" xmlns="http://www.w3.org/2000/svg">
<g id="#9e7e94ff">
<path fill="#9e7e94" opacity="1.00" d=" M 35.97 29.42 C 29.65 29.35 29.63 18.87 35.99 18.83 C 65.64 18.64 95.30 18.76 124.96 18.76 C 143.52 18.77 159.98 35.42 159.81 53.97 C 159.88 91.66 159.89 129.35 159.82 167.04 C 160.05 170.21 157.10 172.81 154.00 172.53 C 118.07 172.69 82.13 172.48 46.19 172.41 C 38.16 172.32 31.08 165.10 31.13 157.07 C 31.07 119.03 31.20 80.99 31.05 42.94 C 30.51 39.47 33.44 36.16 37.00 36.57 C 63.32 36.59 89.64 36.45 115.96 36.58 C 129.49 36.48 141.66 48.40 141.76 61.94 C 141.80 91.27 141.92 120.61 141.72 149.93 C 141.51 156.09 131.53 156.06 131.22 149.96 C 130.90 120.98 131.24 91.97 131.07 62.98 C 131.28 54.88 124.19 47.44 116.07 47.42 C 91.47 47.34 66.86 47.37 42.26 47.40 C 41.71 49.86 41.61 52.38 41.73 54.89 C 63.79 54.11 85.89 54.70 107.97 54.54 C 117.28 54.09 124.75 62.97 124.05 72.00 C 123.73 101.84 124.95 131.79 123.41 161.58 C 130.28 161.53 137.15 161.69 144.01 161.55 C 147.00 161.76 149.42 158.95 149.11 156.04 C 149.22 123.03 149.12 90.01 149.18 57.00 C 150.39 43.54 139.62 30.34 126.00 29.59 C 95.99 29.32 65.97 29.64 35.97 29.42 M 45.33 65.48 C 42.45 66.08 41.46 69.39 41.69 71.99 C 41.76 100.00 41.68 128.02 41.78 156.02 C 41.54 158.95 43.95 161.83 46.99 161.56 C 67.33 161.61 87.67 161.60 108.01 161.53 C 111.01 161.77 113.53 158.97 113.20 156.02 C 113.26 127.68 113.27 99.33 113.25 70.98 C 113.57 67.99 111.13 65.01 108.02 65.31 C 87.13 65.35 66.20 65.00 45.33 65.48 Z" />
</g>
</svg>
