<?xml version="1.0" encoding="UTF-8" ?>
<!DOCTYPE svg PUBLIC "-//W3C//DTD SVG 1.1//EN" "http://www.w3.org/Graphics/SVG/1.1/DTD/svg11.dtd">
<svg width="192pt" height="192pt" viewBox="0 0 192 192" version="1.1" xmlns="http://www.w3.org/2000/svg">
<g id="#4970c2ff">
<path fill="#4970c2" opacity="1.00" d=" M 38.28 19.34 C 73.77 17.96 109.43 19.13 144.98 18.73 C 157.56 18.19 169.04 29.37 168.84 41.95 C 168.89 75.64 168.92 109.33 169.00 143.01 C 169.60 155.67 158.85 167.53 146.07 167.55 C 111.69 167.63 77.31 167.59 42.94 167.53 C 30.61 167.51 19.76 156.36 20.08 144.03 C 20.07 110.00 20.07 75.97 20.13 41.94 C 19.98 31.39 28.03 21.59 38.28 19.34 M 40.28 30.33 C 35.22 31.73 31.13 36.58 31.29 41.93 C 31.25 75.97 31.28 110.02 31.29 144.06 C 31.02 150.81 37.29 156.78 44.01 156.33 C 77.67 156.31 111.32 156.31 144.98 156.28 C 151.67 156.70 157.77 150.73 157.63 144.07 C 157.68 110.02 157.71 75.96 157.63 41.91 C 157.70 34.41 150.14 28.93 143.00 29.82 C 108.77 30.21 74.43 29.05 40.28 30.33 Z" />
<path fill="#4970c2" opacity="1.00" d=" M 60.67 55.82 C 63.42 52.45 66.56 45.07 71.91 48.19 C 85.00 54.22 91.61 67.82 102.46 76.56 C 115.50 86.41 130.85 93.85 140.94 107.10 C 143.08 113.06 132.20 122.42 128.66 114.33 C 117.74 97.11 95.79 92.23 83.34 76.63 C 77.41 68.10 69.25 61.53 60.67 55.82 Z" />
<path fill="#4970c2" opacity="1.00" d=" M 52.39 72.47 C 65.87 75.62 71.72 90.12 80.70 99.30 C 92.69 109.51 109.07 115.21 117.65 129.04 C 116.82 133.05 110.28 141.20 106.52 135.56 C 98.86 125.22 85.98 120.96 77.24 111.77 C 67.88 102.13 60.72 90.24 49.31 82.71 C 44.44 79.82 49.46 74.64 52.39 72.47 Z" />
</g>
</svg>
