<?xml version="1.0" encoding="UTF-8" ?>
<!DOCTYPE svg PUBLIC "-//W3C//DTD SVG 1.1//EN" "http://www.w3.org/Graphics/SVG/1.1/DTD/svg11.dtd">
<svg width="192pt" height="192pt" viewBox="0 0 192 192" version="1.1" xmlns="http://www.w3.org/2000/svg">
<g id="#18b8c5ff">
<path fill="#18b8c5" opacity="1.00" d=" M 82.33 12.41 C 114.16 6.85 148.19 22.44 164.91 50.05 C 177.71 70.35 180.73 96.39 173.09 119.12 C 163.78 148.06 137.13 170.41 106.97 174.37 C 75.72 179.29 42.58 163.92 26.04 136.97 C 8.64 110.11 9.39 73.00 27.87 46.86 C 40.34 28.61 60.46 15.78 82.33 12.41 M 84.35 23.45 C 59.18 27.10 36.99 45.66 28.67 69.66 C 20.83 91.44 24.58 116.98 38.59 135.45 C 57.91 162.44 97.16 171.90 126.64 156.64 C 155.85 142.77 172.33 107.42 163.89 76.15 C 156.04 41.58 119.31 17.08 84.35 23.45 Z" />
<path fill="#18b8c5" opacity="1.00" d=" M 56.36 74.51 C 64.77 70.37 75.29 78.98 72.91 88.04 C 71.59 96.46 60.38 100.59 53.82 95.21 C 46.46 90.19 48.01 77.61 56.36 74.51 Z" />
<path fill="#18b8c5" opacity="1.00" d=" M 125.39 74.50 C 131.44 71.67 139.27 75.10 141.46 81.35 C 143.81 87.20 140.67 94.56 134.72 96.74 C 129.02 99.24 121.73 96.44 119.21 90.75 C 116.23 84.83 119.22 76.92 125.39 74.50 Z" />
<path fill="#18b8c5" opacity="1.00" d=" M 89.37 93.44 C 103.94 90.85 121.42 97.52 126.76 112.18 C 129.78 120.17 127.45 129.51 121.72 135.69 C 108.48 150.23 82.66 150.15 69.55 135.48 C 63.82 129.24 61.66 119.81 64.78 111.85 C 68.63 101.66 78.90 95.08 89.37 93.44 M 81.42 112.47 C 75.55 112.87 72.77 120.96 77.10 124.91 C 80.86 128.97 88.43 126.81 89.46 121.37 C 90.70 116.64 86.25 111.69 81.42 112.47 M 108.35 112.47 C 98.91 113.06 100.61 128.53 110.00 127.01 C 119.34 126.34 117.68 110.97 108.35 112.47 Z" />
</g>
</svg>
