<?xml version="1.0" encoding="UTF-8" ?>
<!DOCTYPE svg PUBLIC "-//W3C//DTD SVG 1.1//EN" "http://www.w3.org/Graphics/SVG/1.1/DTD/svg11.dtd">
<svg width="192pt" height="192pt" viewBox="0 0 192 192" version="1.1" xmlns="http://www.w3.org/2000/svg">
<g id="#c6d3daff">
<path fill="#c6d3da" opacity="1.00" d=" M 119.51 32.60 C 126.99 24.71 138.27 20.71 149.04 22.13 C 158.43 23.53 166.56 30.87 168.78 40.12 C 172.24 52.32 166.62 65.31 157.65 73.66 C 154.12 78.13 148.39 81.21 147.13 87.13 C 138.63 112.59 130.05 138.02 121.50 163.45 C 120.70 165.86 118.92 168.75 116.01 168.53 C 105.67 168.56 95.32 168.59 84.98 168.51 C 81.71 168.49 79.49 165.07 79.76 162.01 C 79.71 154.70 79.75 147.38 79.76 140.07 C 72.15 140.10 64.52 140.33 56.91 140.06 C 54.11 140.13 51.47 137.88 51.54 134.99 C 51.23 127.24 51.71 119.47 51.32 111.73 C 43.87 111.73 36.42 111.82 28.97 111.76 C 25.90 111.93 22.80 109.29 23.07 106.10 C 23.05 96.05 23.04 85.99 23.08 75.94 C 22.97 72.95 25.88 71.20 28.38 70.42 C 55.74 61.13 83.12 51.89 110.44 42.51 C 112.65 41.88 115.00 42.86 116.53 44.48 C 125.79 53.63 134.96 62.88 144.18 72.07 C 145.27 71.01 146.37 69.98 147.47 68.93 C 137.50 58.73 127.28 48.77 117.40 38.50 C 115.05 36.47 118.02 34.05 119.51 32.60 M 130.98 36.89 C 138.91 44.80 146.82 52.74 154.92 60.47 C 159.10 53.70 161.21 44.04 155.58 37.44 C 149.40 30.25 138.02 31.84 130.98 36.89 M 108.45 54.57 C 83.57 63.04 58.70 71.51 33.81 79.95 C 33.90 86.95 33.88 93.95 33.82 100.95 C 41.06 100.89 48.54 101.53 55.65 100.57 C 75.14 86.31 94.56 71.93 113.91 57.46 C 112.28 56.18 110.89 53.20 108.45 54.57 M 62.31 109.25 C 62.28 115.90 62.31 122.55 62.29 129.20 C 69.12 129.32 75.95 129.21 82.78 129.28 C 97.26 109.56 111.92 89.98 126.37 70.24 C 124.75 68.60 123.09 67.01 121.35 65.51 C 101.78 80.23 81.96 94.63 62.31 109.25 M 134.16 77.80 C 119.75 97.50 105.07 117.02 90.79 136.82 C 90.31 143.72 90.71 150.68 90.53 157.61 C 97.66 157.67 104.79 157.60 111.92 157.67 C 120.61 132.18 129.06 106.60 137.59 81.06 C 136.45 79.96 135.30 78.88 134.16 77.80 Z" />
</g>
</svg>
