<?xml version="1.0" encoding="UTF-8" ?>
<!DOCTYPE svg PUBLIC "-//W3C//DTD SVG 1.1//EN" "http://www.w3.org/Graphics/SVG/1.1/DTD/svg11.dtd">
<svg width="192pt" height="192pt" viewBox="0 0 192 192" version="1.1" xmlns="http://www.w3.org/2000/svg">
<g id="#1ab0ffff">
<path fill="#1ab0ff" opacity="1.00" d=" M 48.91 31.97 C 49.06 24.02 56.04 16.95 63.99 16.77 C 84.99 16.71 105.99 16.74 126.99 16.74 C 135.17 16.58 142.65 23.73 142.76 31.93 C 142.86 45.58 142.74 59.24 142.82 72.90 C 148.91 73.13 155.01 72.90 161.10 73.03 C 168.67 73.35 175.14 80.35 174.85 87.94 C 174.88 111.65 174.92 135.36 174.85 159.07 C 174.95 166.90 167.87 173.78 160.06 173.54 C 117.36 173.57 74.65 173.55 31.94 173.52 C 24.13 173.82 16.98 166.92 17.08 159.08 C 17.04 135.02 17.02 110.96 17.11 86.91 C 17.27 77.93 26.50 71.59 35.04 73.01 C 40.08 71.75 44.65 78.07 41.05 82.15 C 38.06 86.80 30.08 81.38 28.40 87.13 C 28.18 110.75 28.36 134.39 28.31 158.02 C 27.97 160.18 29.66 162.48 31.98 162.24 C 74.65 162.27 117.33 162.26 160.01 162.20 C 162.30 162.43 163.84 160.09 163.55 158.01 C 163.54 134.66 163.59 111.31 163.53 87.97 C 163.73 86.05 162.00 84.13 160.04 84.33 C 154.27 84.35 148.50 84.16 142.74 84.42 C 142.00 88.17 140.28 91.81 137.28 94.28 C 124.66 104.67 112.06 115.10 99.41 125.45 C 97.31 127.32 93.86 127.07 91.87 125.15 C 79.44 114.91 67.00 104.66 54.58 94.41 C 50.94 91.40 48.80 86.72 48.86 82.01 C 48.91 65.33 48.80 48.64 48.91 31.97 M 60.23 32.05 C 60.03 48.38 60.21 64.72 60.14 81.06 C 60.02 82.88 60.41 84.86 62.01 85.95 C 73.27 95.24 84.50 104.55 95.82 113.76 C 107.02 104.66 118.11 95.42 129.26 86.26 C 130.60 85.27 131.65 83.75 131.50 82.01 C 131.52 65.67 131.53 49.33 131.50 32.99 C 131.78 29.98 128.96 27.63 126.05 27.90 C 106.02 27.86 85.98 27.84 65.95 27.88 C 63.39 27.73 60.29 29.14 60.23 32.05 Z" />
<path fill="#1ab0ff" opacity="1.00" d=" M 68.88 48.87 C 74.79 39.96 89.08 39.22 96.28 46.95 C 104.03 38.42 119.17 40.24 124.68 50.34 C 131.33 60.76 123.33 76.31 110.91 76.69 C 106.98 77.50 107.15 72.50 106.59 69.95 C 107.03 66.90 110.56 67.47 112.73 66.72 C 117.47 64.80 119.09 58.01 115.91 54.06 C 112.70 49.89 105.40 50.05 102.56 54.56 C 100.60 58.02 101.46 62.27 99.95 65.89 C 98.13 70.77 93.91 74.54 89.03 76.23 C 85.95 74.96 81.79 68.49 86.71 66.76 C 92.00 64.99 93.37 57.32 89.39 53.60 C 85.96 50.06 79.37 50.44 76.68 54.69 C 73.80 58.74 75.67 64.82 80.21 66.76 C 84.60 68.61 80.89 73.65 78.74 75.87 C 66.93 74.05 62.08 58.11 68.88 48.87 Z" />
</g>
</svg>
