<?xml version="1.0" encoding="UTF-8" ?>
<!DOCTYPE svg PUBLIC "-//W3C//DTD SVG 1.1//EN" "http://www.w3.org/Graphics/SVG/1.1/DTD/svg11.dtd">
<svg width="192pt" height="192pt" viewBox="0 0 192 192" version="1.1" xmlns="http://www.w3.org/2000/svg">
<g id="#1ab1ffff">
<path fill="#1ab1ff" opacity="1.00" d=" M 20.11 41.95 C 19.91 29.73 30.77 18.66 43.02 18.76 C 77.33 18.74 111.65 18.70 145.97 18.76 C 158.12 18.88 168.70 29.90 168.52 42.02 C 168.47 60.00 168.72 78.01 168.41 95.99 C 167.73 101.98 158.06 101.82 157.51 95.85 C 157.19 77.92 157.52 59.96 157.36 42.02 C 157.44 35.47 151.51 29.77 145.02 29.86 C 111.34 29.78 77.67 29.80 44.00 29.80 C 37.38 29.54 31.10 35.20 31.24 41.92 C 31.15 65.19 31.22 88.45 31.20 111.72 C 71.46 111.78 111.72 111.67 151.97 111.75 C 161.15 111.46 169.38 119.87 168.85 129.04 C 168.89 137.92 160.84 145.72 151.97 145.47 C 112.97 145.50 73.97 145.50 34.96 145.45 C 33.79 145.60 31.44 144.95 31.49 146.88 C 32.76 152.08 37.59 156.25 43.02 156.29 C 83.02 156.42 123.04 156.19 163.04 156.36 C 169.66 155.99 170.47 166.90 163.86 167.44 C 123.56 167.69 83.24 167.51 42.93 167.50 C 30.96 167.49 20.36 156.98 20.10 145.03 C 19.41 139.44 24.26 134.01 29.91 134.19 C 70.96 134.00 112.02 134.27 153.06 134.00 C 159.13 133.51 159.06 123.65 152.98 123.21 C 111.97 122.94 70.94 123.26 29.93 123.05 C 24.63 123.14 19.88 118.41 20.10 113.09 C 20.03 89.38 20.07 65.66 20.11 41.95 Z" />
<path fill="#1ab1ff" opacity="1.00" d=" M 76.57 48.14 C 76.52 45.32 80.12 45.91 82.00 45.78 C 89.45 46.08 97.02 45.14 104.38 46.57 C 109.27 47.41 112.96 51.98 112.84 56.92 C 112.92 62.04 114.05 69.25 108.12 71.64 C 115.66 75.13 114.17 85.17 112.68 91.75 C 108.15 100.80 96.22 97.89 88.00 98.42 C 84.40 97.72 78.81 100.15 76.62 96.54 C 76.32 80.42 76.45 64.27 76.57 48.14 M 87.28 54.94 C 87.25 59.17 87.24 63.41 87.26 67.64 C 91.67 67.29 96.51 68.63 100.62 66.70 C 103.08 63.91 103.15 58.26 100.34 55.66 C 96.16 54.22 91.61 55.05 87.28 54.94 M 87.24 76.11 C 87.27 80.48 87.26 84.85 87.24 89.23 C 92.05 88.76 97.65 90.59 101.91 87.84 C 103.54 84.55 104.12 78.83 100.60 76.52 C 96.22 75.63 91.68 76.32 87.24 76.11 Z" />
</g>
</svg>
