<?xml version="1.0" encoding="UTF-8" ?>
<!DOCTYPE svg PUBLIC "-//W3C//DTD SVG 1.1//EN" "http://www.w3.org/Graphics/SVG/1.1/DTD/svg11.dtd">
<svg width="192pt" height="192pt" viewBox="0 0 192 192" version="1.1" xmlns="http://www.w3.org/2000/svg">
<g id="#576fb7ff">
<path fill="#576fb7" opacity="1.00" d=" M 40.31 21.34 C 43.82 20.58 47.43 20.74 51.00 20.73 C 83.33 20.79 115.67 20.67 148.00 20.76 C 159.85 20.74 170.48 31.11 170.80 42.94 C 170.87 50.25 171.13 57.59 170.69 64.89 C 170.08 70.21 161.76 70.90 160.10 65.86 C 158.87 57.79 160.43 49.52 159.31 41.43 C 158.08 35.46 151.98 31.48 146.03 31.86 C 113.01 31.80 79.99 31.81 46.96 31.79 C 41.00 31.42 34.78 35.34 33.57 41.37 C 32.55 49.45 34.14 57.72 32.77 65.75 C 31.25 70.87 22.93 70.19 22.28 64.89 C 21.83 57.92 22.17 50.91 22.12 43.93 C 21.99 33.37 30.04 23.54 40.31 21.34 Z" />
<path fill="#576fb7" opacity="1.00" d=" M 53.38 78.17 C 61.01 77.25 70.48 75.49 76.56 81.42 C 80.30 86.19 76.38 92.32 71.36 94.04 C 76.99 97.09 77.40 105.58 72.40 109.39 C 66.24 113.85 57.91 114.24 50.76 112.33 C 47.57 111.69 46.53 107.99 47.24 105.18 C 49.01 96.12 51.35 87.18 53.38 78.17 M 61.28 83.35 C 60.43 85.99 59.81 88.69 59.32 91.42 C 62.85 91.44 68.57 91.57 69.28 87.00 C 69.01 82.99 64.14 83.68 61.28 83.35 M 57.97 97.27 C 57.07 100.38 56.37 103.55 55.89 106.76 C 59.89 107.06 66.02 106.92 66.95 101.93 C 67.16 97.16 61.27 97.39 57.97 97.27 Z" />
<path fill="#576fb7" opacity="1.00" d=" M 82.07 106.97 C 75.78 94.98 84.06 77.80 97.98 76.74 C 103.75 75.92 114.47 78.32 110.30 86.29 C 105.21 84.04 98.33 82.52 93.93 86.94 C 89.47 91.37 87.39 99.91 92.35 104.70 C 96.37 108.23 101.87 106.01 106.12 104.19 C 105.20 107.19 105.60 111.82 101.85 112.83 C 94.99 114.76 86.02 113.59 82.07 106.97 Z" />
<path fill="#576fb7" opacity="1.00" d=" M 116.54 78.58 C 122.88 76.88 130.33 76.68 136.43 79.44 C 143.31 83.09 141.71 93.09 136.45 97.46 C 131.96 101.73 125.47 101.66 119.71 102.24 C 118.93 105.48 118.63 108.97 116.92 111.91 C 114.68 113.94 111.41 113.04 108.69 113.15 C 110.83 101.55 113.15 89.85 116.54 78.58 M 124.44 83.93 C 123.51 87.53 122.65 91.16 122.08 94.84 C 127.02 96.39 133.93 93.04 132.81 87.18 C 132.17 83.20 127.40 83.87 124.44 83.93 Z" />
<path fill="#576fb7" opacity="1.00" d=" M 22.82 86.11 C 24.89 83.03 28.30 78.11 32.56 80.42 C 35.96 83.82 34.65 89.14 33.90 93.35 C 30.30 90.79 26.75 88.15 22.82 86.11 Z" />
<path fill="#576fb7" opacity="1.00" d=" M 144.42 85.97 C 146.46 82.99 149.48 78.41 153.71 80.17 C 157.79 83.07 156.35 89.07 155.18 93.17 C 151.66 90.67 148.11 88.21 144.42 85.97 Z" />
<path fill="#576fb7" opacity="1.00" d=" M 38.21 80.66 C 42.60 83.48 47.20 87.08 48.58 92.35 C 49.02 97.94 43.81 101.74 40.00 104.99 C 35.16 108.57 26.64 113.37 22.03 107.07 C 25.28 102.17 31.70 100.87 34.90 95.91 C 38.42 91.64 38.33 85.88 38.21 80.66 Z" />
<path fill="#576fb7" opacity="1.00" d=" M 159.23 80.23 C 163.88 83.35 169.12 87.12 170.23 92.98 C 169.95 99.83 163.20 103.66 158.26 107.27 C 153.95 111.15 147.33 110.21 144.53 105.06 C 153.97 100.81 162.94 91.42 159.23 80.23 Z" />
<path fill="#576fb7" opacity="1.00" d=" M 25.41 121.48 C 28.67 119.95 32.90 122.37 33.10 126.00 C 33.70 133.27 32.90 140.58 33.43 147.86 C 34.09 153.91 39.92 158.68 45.98 158.32 C 79.66 158.31 113.34 158.30 147.02 158.27 C 153.04 158.60 158.77 153.81 159.46 147.82 C 160.14 140.25 159.13 132.62 159.93 125.07 C 161.00 119.61 169.80 119.79 170.67 125.29 C 171.49 132.81 171.16 140.46 170.80 148.01 C 170.11 159.64 159.63 169.54 147.98 169.56 C 113.66 169.63 79.33 169.60 45.01 169.53 C 33.73 169.53 23.41 160.24 22.28 149.00 C 21.79 141.99 22.14 134.94 22.05 127.91 C 21.89 125.37 22.81 122.43 25.41 121.48 Z" />
</g>
</svg>
