<?xml version="1.0" encoding="UTF-8" ?>
<!DOCTYPE svg PUBLIC "-//W3C//DTD SVG 1.1//EN" "http://www.w3.org/Graphics/SVG/1.1/DTD/svg11.dtd">
<svg width="192pt" height="192pt" viewBox="0 0 192 192" version="1.1" xmlns="http://www.w3.org/2000/svg">
<g id="#45e372ff">
<path fill="#45e372" opacity="1.00" d=" M 31.33 14.40 C 34.56 13.87 37.83 16.68 37.62 19.99 C 37.77 49.98 37.57 79.97 37.69 109.96 C 38.12 134.03 55.44 156.77 78.59 163.41 C 92.27 167.29 107.49 166.68 120.36 160.36 C 136.73 152.24 149.27 136.33 152.34 118.20 C 155.90 98.90 148.36 78.21 133.71 65.28 C 123.52 56.19 110.12 51.05 96.52 50.47 C 90.86 49.92 90.53 40.95 96.01 39.74 C 127.16 38.89 156.60 62.80 162.51 93.38 C 167.56 117.28 158.94 143.46 140.78 159.78 C 130.31 169.31 116.69 175.07 102.66 176.64 C 84.46 178.94 65.86 172.61 51.56 161.44 C 35.95 149.26 27.38 129.58 26.44 110.07 C 26.46 80.05 26.40 50.03 26.48 20.01 C 26.32 17.24 28.57 14.66 31.33 14.40 Z" />
<path fill="#45e372" opacity="1.00" d=" M 51.41 14.48 C 54.76 13.63 58.37 16.47 58.22 19.95 C 58.42 49.99 58.16 80.04 58.34 110.08 C 58.60 129.82 77.46 146.47 96.96 145.32 C 114.47 144.89 130.43 130.49 132.27 112.99 C 135.54 92.19 117.81 71.88 97.04 71.12 C 90.91 71.09 90.32 61.25 96.29 60.31 C 111.18 59.75 125.47 67.93 134.40 79.56 C 147.58 96.81 146.70 123.10 132.43 139.46 C 118.59 156.25 92.90 161.27 73.58 151.46 C 58.21 143.70 47.34 127.45 47.17 110.07 C 46.87 80.36 47.14 50.64 47.04 20.92 C 46.71 18.07 48.48 15.03 51.41 14.48 Z" />
<path fill="#45e372" opacity="1.00" d=" M 72.33 14.42 C 75.60 13.81 78.97 16.61 78.78 19.98 C 78.93 46.99 78.69 74.00 78.79 101.00 C 78.91 105.82 78.03 110.99 80.46 115.42 C 83.75 122.61 92.60 126.48 100.13 124.13 C 107.42 122.12 112.74 114.58 111.89 107.00 C 111.34 98.92 104.25 91.99 96.12 91.72 C 90.72 91.93 90.51 83.19 94.10 80.86 C 106.97 79.43 119.59 89.06 122.39 101.59 C 126.87 117.72 113.94 135.72 97.06 135.85 C 82.24 137.23 68.19 124.86 67.71 109.99 C 67.33 80.32 67.65 50.64 67.55 20.97 C 67.22 17.95 69.20 14.82 72.33 14.42 Z" />
</g>
</svg>
