<?xml version="1.0" encoding="UTF-8" ?>
<!DOCTYPE svg PUBLIC "-//W3C//DTD SVG 1.1//EN" "http://www.w3.org/Graphics/SVG/1.1/DTD/svg11.dtd">
<svg width="192pt" height="192pt" viewBox="0 0 192 192" version="1.1" xmlns="http://www.w3.org/2000/svg">
<g id="#ff653bff">
<path fill="#ff653b" opacity="1.00" d=" M 18.32 25.40 C 27.62 26.36 35.34 34.13 38.00 42.89 C 44.74 64.93 51.08 87.10 57.81 109.15 C 59.60 115.57 64.90 121.55 72.05 121.34 C 97.36 121.67 122.70 121.30 148.01 121.51 C 152.57 121.35 155.47 127.09 152.88 130.76 C 151.26 133.47 147.80 133.55 145.01 133.39 C 119.01 133.15 93.00 133.50 67.01 133.21 C 58.59 133.40 51.00 127.35 48.65 119.39 C 41.34 96.28 34.29 73.09 27.06 49.96 C 25.33 44.01 20.72 39.51 15.36 36.68 C 10.50 33.82 12.71 25.56 18.32 25.40 Z" />
<path fill="#ff653b" opacity="1.00" d=" M 62.94 60.05 C 56.02 60.32 55.24 49.02 62.12 48.40 C 97.76 48.13 133.43 48.30 169.07 48.29 C 174.04 47.88 178.02 53.33 176.19 57.95 C 170.72 73.86 165.22 89.77 159.60 105.63 C 158.40 109.19 154.34 109.98 151.04 109.80 C 126.39 109.83 101.72 109.90 77.07 109.76 C 70.26 109.69 70.18 98.48 76.93 98.16 C 101.30 97.87 125.68 98.12 150.06 98.02 C 154.96 85.56 159.15 72.81 163.48 60.14 C 129.97 60.06 96.45 60.24 62.94 60.05 Z" />
<path fill="#ff653b" opacity="1.00" d=" M 60.34 142.48 C 66.78 139.46 74.95 144.96 74.72 152.01 C 75.12 159.45 66.10 165.07 59.61 161.31 C 51.94 157.81 52.38 145.36 60.34 142.48 Z" />
<path fill="#ff653b" opacity="1.00" d=" M 136.34 142.45 C 143.15 139.29 151.56 145.59 150.56 153.00 C 150.31 160.95 139.79 165.45 133.84 160.20 C 127.57 155.76 129.14 145.02 136.34 142.45 Z" />
</g>
</svg>
