<?xml version="1.0" encoding="UTF-8" ?>
<!DOCTYPE svg PUBLIC "-//W3C//DTD SVG 1.1//EN" "http://www.w3.org/Graphics/SVG/1.1/DTD/svg11.dtd">
<svg width="192pt" height="192pt" viewBox="0 0 192 192" version="1.1" xmlns="http://www.w3.org/2000/svg">
<g id="#18b6c5ff">
<path fill="#18b6c5" opacity="1.00" d=" M 50.44 19.14 C 51.28 12.95 61.43 13.72 61.39 19.98 C 61.54 43.67 61.55 67.36 61.48 91.05 C 61.35 98.65 64.14 106.14 68.91 112.01 C 80.89 125.59 88.27 142.35 95.99 158.54 C 103.14 143.36 109.86 127.63 120.66 114.61 C 129.42 105.07 133.11 90.72 128.51 78.41 C 122.57 61.87 102.89 51.74 86.02 57.06 C 81.92 57.91 78.35 60.73 74.12 60.85 C 69.13 60.68 67.32 53.11 71.69 50.70 C 80.90 45.87 91.60 43.30 102.00 44.88 C 118.61 47.08 133.69 58.93 139.23 74.83 C 144.53 89.50 141.36 106.61 131.80 118.81 C 118.35 134.39 110.68 153.81 102.43 172.41 C 100.42 177.51 92.45 177.99 89.84 173.20 C 82.29 155.80 74.82 137.96 63.22 122.79 C 55.21 114.24 49.99 102.87 50.23 91.02 C 50.39 67.06 50.02 43.08 50.44 19.14 Z" />
<path fill="#18b6c5" opacity="1.00" d=" M 90.34 70.42 C 102.87 66.81 116.47 78.02 115.51 90.98 C 115.30 101.57 105.57 110.66 95.00 110.27 C 85.08 110.29 76.07 101.98 75.31 92.09 C 74.13 82.46 80.95 72.75 90.34 70.42 M 93.29 81.32 C 86.92 82.67 84.10 91.52 88.86 96.14 C 93.05 101.06 102.01 99.09 103.77 92.88 C 106.12 86.66 99.70 79.61 93.29 81.32 Z" />
</g>
</svg>
