<?xml version="1.0" encoding="UTF-8" ?>
<!DOCTYPE svg PUBLIC "-//W3C//DTD SVG 1.1//EN" "http://www.w3.org/Graphics/SVG/1.1/DTD/svg11.dtd">
<svg width="192pt" height="192pt" viewBox="0 0 192 192" version="1.1" xmlns="http://www.w3.org/2000/svg">
<g id="#596fffff">
<path fill="#596fff" opacity="1.00" d=" M 33.03 27.92 C 26.72 27.56 26.63 17.23 32.99 16.87 C 55.64 16.54 78.33 16.82 100.99 16.73 C 114.51 16.44 127.94 23.25 135.59 34.43 C 147.48 51.20 144.90 76.53 129.49 90.29 C 138.33 92.64 146.71 97.30 152.54 104.45 C 164.39 118.37 165.34 140.12 155.28 155.27 C 147.88 166.60 134.59 173.89 121.02 173.70 C 103.66 173.71 86.30 173.71 68.94 173.69 C 58.50 173.81 48.62 166.64 45.13 156.86 C 42.94 151.16 43.63 144.96 43.54 139.00 C 43.49 106.06 43.37 73.12 43.61 40.18 C 43.63 33.99 53.57 33.26 54.58 39.31 C 55.08 55.96 54.63 72.65 54.82 89.31 C 71.20 89.38 87.58 89.40 103.96 89.30 C 119.02 88.97 131.76 74.96 131.62 60.07 C 132.55 47.70 125.07 35.26 113.58 30.51 C 106.51 27.17 98.55 28.29 91.00 28.11 C 71.68 27.98 52.34 28.38 33.03 27.92 M 54.76 101.14 C 54.79 116.77 54.72 132.40 54.80 148.03 C 54.67 155.62 61.38 162.54 69.02 162.43 C 86.34 162.51 103.67 162.45 120.99 162.45 C 130.62 162.51 140.07 157.48 145.50 149.55 C 153.99 137.32 152.39 118.85 141.15 108.83 C 134.78 102.66 125.67 100.40 117.00 100.79 C 96.26 101.36 75.51 101.00 54.76 101.14 Z" />
</g>
</svg>
