<?xml version="1.0" encoding="UTF-8" ?>
<!DOCTYPE svg PUBLIC "-//W3C//DTD SVG 1.1//EN" "http://www.w3.org/Graphics/SVG/1.1/DTD/svg11.dtd">
<svg width="192pt" height="192pt" viewBox="0 0 192 192" version="1.1" xmlns="http://www.w3.org/2000/svg">
<g id="#ff3662ff">
<path fill="#ff3662" opacity="1.00" d=" M 64.86 30.83 C 88.61 26.29 113.42 26.93 136.81 33.17 C 149.50 36.66 162.08 43.15 169.75 54.19 C 174.70 61.60 172.88 71.75 167.31 78.29 C 160.02 87.05 149.08 91.62 138.54 95.15 C 150.68 99.30 163.36 105.31 170.25 116.70 C 174.97 124.56 172.60 135.01 165.98 141.00 C 150.78 156.86 127.73 160.17 106.93 162.40 C 103.61 163.24 100.00 160.79 99.80 157.33 C 98.05 141.23 96.77 125.06 94.82 108.98 C 92.20 124.25 90.40 139.64 88.14 154.96 C 87.79 158.99 84.11 162.33 80.00 161.79 C 61.50 160.21 42.34 155.35 27.84 143.19 C 20.53 137.36 16.80 126.73 21.02 118.00 C 27.16 105.44 40.95 99.30 53.58 95.21 C 41.16 91.39 28.40 85.05 21.50 73.54 C 16.28 64.55 20.58 53.31 27.96 46.97 C 38.23 37.97 51.73 33.64 64.86 30.83 M 41.11 51.24 C 34.76 54.58 26.64 63.07 32.79 70.17 C 46.07 84.89 67.39 87.76 86.15 89.03 C 87.77 79.25 88.87 69.38 90.73 59.65 C 92.28 54.43 100.81 55.13 101.44 60.55 C 102.66 70.01 103.31 79.55 104.41 89.03 C 121.69 88.35 139.75 85.32 154.22 75.25 C 158.79 72.00 163.76 65.57 160.00 59.99 C 151.54 48.81 137.35 44.36 124.14 41.84 C 96.54 37.15 66.29 37.75 41.11 51.24 M 105.62 101.47 C 107.22 117.84 108.84 134.20 110.48 150.57 C 128.01 148.48 147.98 145.37 159.79 130.83 C 164.09 125.28 158.86 119.01 154.40 115.64 C 140.53 105.12 122.54 102.46 105.62 101.47 M 35.33 117.31 C 30.07 121.19 28.78 129.43 34.26 133.72 C 46.02 144.30 62.04 148.28 77.36 150.22 C 79.47 133.97 82.31 117.80 84.00 101.50 C 67.07 103.07 48.63 105.80 35.33 117.31 Z" />
</g>
</svg>
