<?xml version="1.0" encoding="UTF-8" ?>
<!DOCTYPE svg PUBLIC "-//W3C//DTD SVG 1.1//EN" "http://www.w3.org/Graphics/SVG/1.1/DTD/svg11.dtd">
<svg width="192pt" height="192pt" viewBox="0 0 192 192" version="1.1" xmlns="http://www.w3.org/2000/svg">
<g id="#37a6b8ff">
<path fill="#37a6b8" opacity="1.00" d=" M 82.33 12.40 C 90.21 11.46 98.28 11.37 106.11 12.79 C 110.31 13.35 112.15 19.24 109.06 22.12 C 106.17 25.16 101.67 23.08 98.06 23.22 C 78.04 21.61 57.54 29.11 43.39 43.38 C 27.44 58.80 19.71 82.07 23.07 103.99 C 26.48 129.00 44.60 151.18 68.29 159.78 C 89.44 167.81 114.38 164.90 132.98 151.98 C 160.69 133.86 171.80 95.21 157.89 65.14 C 153.96 59.51 162.56 52.90 166.86 58.16 C 183.80 90.64 174.06 133.82 145.58 156.65 C 121.28 177.33 84.59 181.51 56.26 166.82 C 36.43 156.90 20.96 138.65 14.58 117.40 C 6.34 91.04 12.75 60.73 31.05 40.04 C 44.01 24.98 62.61 14.91 82.33 12.40 Z" />
<path fill="#37a6b8" opacity="1.00" d=" M 166.95 25.14 C 170.32 24.39 173.33 22.54 176.73 21.91 C 177.09 30.59 171.79 39.51 163.40 42.36 C 156.90 44.79 149.78 43.07 143.70 40.27 C 133.92 35.74 122.95 32.36 112.11 34.35 C 109.93 34.53 106.63 35.62 106.11 32.57 C 114.89 27.45 124.83 24.05 135.01 23.51 C 145.71 23.03 156.31 27.80 166.95 25.14 Z" />
<path fill="#37a6b8" opacity="1.00" d=" M 128.47 56.55 C 133.49 52.57 140.36 60.35 135.85 64.86 C 123.15 77.82 110.19 90.52 97.38 103.37 C 95.16 106.12 90.73 106.34 88.45 103.56 C 78.67 93.69 68.61 84.07 59.05 73.99 C 55.17 69.38 62.05 62.45 66.70 66.21 C 75.65 74.50 84.03 83.42 92.76 91.95 C 104.72 80.21 116.35 68.11 128.47 56.55 Z" />
</g>
</svg>
