<?xml version="1.0" encoding="UTF-8" ?>
<!DOCTYPE svg PUBLIC "-//W3C//DTD SVG 1.1//EN" "http://www.w3.org/Graphics/SVG/1.1/DTD/svg11.dtd">
<svg width="192pt" height="192pt" viewBox="0 0 192 192" version="1.1" xmlns="http://www.w3.org/2000/svg">
<g id="#c26381ff">
<path fill="#c26381" opacity="1.00" d=" M 39.36 21.52 C 42.49 20.66 45.77 20.71 48.99 20.72 C 82.33 20.80 115.68 20.61 149.01 20.80 C 162.12 21.29 172.35 34.21 170.91 47.06 C 171.86 51.44 167.57 56.16 163.13 54.10 C 158.94 52.51 159.75 47.49 159.62 43.92 C 159.71 37.32 153.54 31.72 147.04 31.88 C 113.35 31.82 79.65 31.84 45.96 31.84 C 39.44 31.65 33.13 37.26 33.31 43.93 C 33.06 47.02 34.02 50.94 31.25 53.19 C 28.66 55.57 24.11 54.61 22.64 51.43 C 19.31 39.12 26.65 24.67 39.36 21.52 Z" />
<path fill="#c26381" opacity="1.00" d=" M 47.90 56.39 C 51.46 56.42 55.02 56.40 58.57 56.43 C 58.70 82.50 58.59 108.57 58.63 134.64 C 55.06 134.67 51.49 134.63 47.92 134.68 C 47.63 108.59 47.66 82.48 47.90 56.39 Z" />
<path fill="#c26381" opacity="1.00" d=" M 69.38 56.42 C 72.95 56.40 76.51 56.40 80.07 56.43 C 80.41 76.00 80.15 95.59 80.21 115.17 C 76.59 115.26 72.98 115.24 69.37 115.06 C 69.35 95.52 69.33 75.97 69.38 56.42 Z" />
<path fill="#c26381" opacity="1.00" d=" M 90.95 56.42 C 94.51 56.40 98.06 56.40 101.62 56.42 C 101.74 76.00 101.66 95.58 101.67 115.16 C 98.07 115.26 94.48 115.23 90.88 115.09 C 90.89 95.53 90.77 75.97 90.95 56.42 Z" />
<path fill="#c26381" opacity="1.00" d=" M 112.48 56.44 C 116.02 56.40 119.56 56.42 123.10 56.38 C 123.71 82.37 123.01 108.40 123.45 134.40 C 119.81 134.91 116.13 134.58 112.48 134.61 C 112.46 108.55 112.46 82.50 112.48 56.44 Z" />
<path fill="#c26381" opacity="1.00" d=" M 134.04 56.41 C 137.60 56.40 141.17 56.40 144.74 56.42 C 144.82 76.01 144.77 95.61 144.77 115.20 C 141.19 115.25 137.61 115.22 134.04 115.09 C 134.01 95.53 134.02 75.97 134.04 56.41 Z" />
<path fill="#c26381" opacity="1.00" d=" M 69.37 124.90 C 72.95 124.76 76.53 124.76 80.11 124.84 C 80.25 128.11 80.27 131.39 80.13 134.66 C 76.54 134.66 72.96 134.66 69.37 134.61 C 69.34 131.37 69.34 128.13 69.37 124.90 Z" />
<path fill="#c26381" opacity="1.00" d=" M 90.90 124.85 C 94.48 124.76 98.06 124.76 101.64 124.90 C 101.68 128.15 101.69 131.40 101.67 134.65 C 98.09 134.67 94.51 134.66 90.93 134.61 C 90.84 131.35 90.83 128.10 90.90 124.85 Z" />
<path fill="#c26381" opacity="1.00" d=" M 134.04 124.81 C 137.61 124.82 141.17 124.79 144.74 124.77 C 144.79 128.06 144.79 131.35 144.77 134.65 C 141.20 134.67 137.62 134.66 134.05 134.62 C 133.97 131.35 133.97 128.08 134.04 124.81 Z" />
<path fill="#c26381" opacity="1.00" d=" M 25.22 137.15 C 29.62 134.93 34.21 139.53 33.26 144.01 C 32.27 150.98 37.73 158.28 44.98 158.27 C 78.99 158.36 112.99 158.28 147.00 158.29 C 153.37 158.67 159.38 153.24 159.58 146.85 C 159.95 144.00 158.97 140.52 161.28 138.28 C 163.78 135.56 168.73 136.33 170.27 139.69 C 174.13 153.39 163.44 169.02 148.97 169.49 C 114.33 169.68 79.67 169.55 45.02 169.54 C 33.39 169.54 22.91 159.70 22.14 148.10 C 21.93 144.37 21.07 139.10 25.22 137.15 Z" />
</g>
</svg>
