<?xml version="1.0" encoding="UTF-8" ?>
<!DOCTYPE svg PUBLIC "-//W3C//DTD SVG 1.1//EN" "http://www.w3.org/Graphics/SVG/1.1/DTD/svg11.dtd">
<svg width="192pt" height="192pt" viewBox="0 0 192 192" version="1.1" xmlns="http://www.w3.org/2000/svg">
<g id="#f18065ff">
<path fill="#f18065" opacity="1.00" d=" M 85.32 14.39 C 117.01 9.82 150.23 26.04 166.31 53.67 C 178.63 74.05 181.25 99.91 173.38 122.38 C 163.76 151.04 137.06 173.01 107.04 176.77 C 75.18 181.55 41.62 165.28 25.52 137.42 C 8.35 109.36 10.75 71.02 31.30 45.32 C 44.33 28.46 64.16 17.04 85.32 14.39 M 87.35 25.44 C 61.93 28.20 39.09 46.18 30.01 70.01 C 22.87 88.36 23.80 109.71 32.72 127.29 C 40.97 143.77 55.89 156.79 73.39 162.61 C 92.91 169.19 115.32 166.78 132.85 155.88 C 159.73 139.97 173.12 105.16 163.67 75.34 C 154.66 43.13 120.54 20.66 87.35 25.44 Z" />
<path fill="#f18065" opacity="1.00" d=" M 58.36 57.52 C 70.31 53.62 85.29 60.34 87.57 73.34 C 88.30 82.21 87.94 91.17 87.95 100.08 C 87.73 111.27 77.14 120.70 66.02 119.88 C 55.02 120.91 44.27 112.07 43.51 101.00 C 43.23 92.99 43.40 84.95 43.42 76.93 C 43.52 68.12 49.92 59.93 58.36 57.52 M 61.26 68.30 C 57.20 69.60 54.28 73.72 54.54 78.00 C 54.68 85.66 54.24 93.35 54.75 100.99 C 56.71 111.65 75.05 111.51 76.66 100.73 C 77.05 92.54 76.99 84.30 76.68 76.11 C 75.93 68.92 67.34 66.21 61.26 68.30 Z" />
<path fill="#f18065" opacity="1.00" d=" M 120.31 57.36 C 132.06 53.81 146.48 60.40 148.92 73.01 C 150.04 81.93 149.21 91.00 149.40 99.98 C 149.18 111.81 137.59 121.34 125.95 119.88 C 115.45 120.28 105.68 111.51 104.93 101.03 C 104.58 93.03 104.79 85.01 104.81 77.00 C 104.90 67.97 111.58 59.58 120.31 57.36 M 122.33 68.41 C 118.50 69.88 115.79 73.80 115.96 77.94 C 116.02 85.60 115.63 93.30 116.20 100.94 C 118.02 111.53 136.12 111.54 138.02 100.99 C 138.54 92.70 138.44 84.30 138.09 76.00 C 137.20 68.73 128.42 66.17 122.33 68.41 Z" />
<path fill="#f18065" opacity="1.00" d=" M 58.36 77.38 C 63.45 78.16 69.88 75.47 74.06 78.92 C 71.31 85.31 62.34 86.51 58.33 80.67 C 58.31 79.57 58.33 78.48 58.36 77.38 Z" />
<path fill="#f18065" opacity="1.00" d=" M 119.30 77.53 C 124.44 77.11 129.59 77.30 134.74 77.42 C 135.57 86.75 118.83 86.83 119.30 77.53 Z" />
<path fill="#f18065" opacity="1.00" d=" M 54.35 132.35 C 57.52 130.86 60.07 133.94 62.47 135.51 C 81.81 149.71 110.11 149.68 129.44 135.48 C 131.71 134.03 133.86 131.27 136.88 132.11 C 139.89 132.81 141.39 136.96 139.33 139.33 C 115.72 160.68 76.25 160.70 52.62 139.38 C 50.68 137.24 51.72 133.41 54.35 132.35 Z" />
</g>
</svg>
