<?xml version="1.0" encoding="UTF-8" ?>
<!DOCTYPE svg PUBLIC "-//W3C//DTD SVG 1.1//EN" "http://www.w3.org/Graphics/SVG/1.1/DTD/svg11.dtd">
<svg width="192pt" height="192pt" viewBox="0 0 192 192" version="1.1" xmlns="http://www.w3.org/2000/svg">
<g id="#ca9d44ff">
<path fill="#ca9d44" opacity="1.00" d=" M 40.27 21.30 C 75.77 19.96 111.43 21.09 146.98 20.71 C 160.05 20.10 171.48 32.04 170.99 44.98 C 171.14 78.66 171.17 112.36 170.97 146.05 C 171.11 158.36 160.44 169.52 148.06 169.56 C 113.69 169.64 79.31 169.62 44.94 169.55 C 30.40 169.64 19.75 154.89 21.97 141.00 C 22.05 108.64 21.92 76.29 22.04 43.93 C 21.98 33.37 29.96 23.51 40.27 21.30 M 42.28 32.39 C 36.84 33.83 32.85 39.29 33.27 44.94 C 33.30 78.65 33.25 112.36 33.30 146.07 C 33.10 152.78 39.28 158.75 46.00 158.28 C 79.66 158.27 113.33 158.27 147.00 158.24 C 153.68 158.65 159.73 152.73 159.61 146.07 C 159.70 112.36 159.64 78.64 159.65 44.93 C 160.12 38.08 154.01 31.49 147.03 32.10 C 112.12 32.58 77.13 31.04 42.28 32.39 Z" />
<path fill="#ca9d44" opacity="1.00" d=" M 46.34 64.26 C 51.68 62.82 57.48 64.01 63.00 63.60 C 66.18 63.82 71.03 62.54 72.43 66.42 C 73.01 73.26 72.56 80.16 72.68 87.02 C 72.96 89.23 71.57 92.01 69.02 91.75 C 62.02 91.86 55.00 91.86 47.99 91.74 C 45.89 91.96 44.30 89.83 44.42 87.87 C 44.27 82.24 44.46 76.61 44.35 70.98 C 44.44 68.67 43.92 65.61 46.34 64.26 M 51.55 68.45 C 51.50 74.73 51.51 81.01 51.55 87.30 C 55.81 87.35 60.17 87.63 64.28 86.29 C 65.33 83.34 65.50 80.20 63.76 77.48 C 65.04 74.67 65.70 69.87 62.00 68.67 C 58.54 68.15 55.03 68.46 51.55 68.45 Z" />
<path fill="#ca9d44" opacity="1.00" d=" M 84.38 64.30 C 89.67 62.76 95.50 64.03 101.00 63.60 C 104.17 63.83 109.12 62.51 110.53 66.37 C 111.09 73.56 110.76 80.83 110.72 88.04 C 110.93 90.63 108.38 92.15 106.07 92.10 C 100.38 92.34 94.67 92.18 88.98 92.19 C 86.55 92.18 83.00 91.83 82.60 88.82 C 82.22 82.88 82.60 76.92 82.43 70.98 C 82.52 68.69 82.00 65.66 84.38 64.30 M 90.31 68.42 C 90.26 74.68 90.30 80.94 90.27 87.20 C 94.04 87.14 98.03 87.92 101.63 86.56 C 104.80 84.80 103.63 80.39 102.55 77.65 C 103.10 75.41 103.39 73.12 103.53 70.81 C 100.11 67.08 94.76 68.74 90.31 68.42 Z" />
<path fill="#ca9d44" opacity="1.00" d=" M 122.39 64.36 C 127.96 62.67 134.17 64.07 140.00 63.58 C 143.02 63.62 148.38 62.82 148.73 67.08 C 148.91 74.34 148.97 81.64 148.70 88.90 C 148.34 92.54 143.67 92.14 141.00 92.23 C 134.84 91.83 128.47 93.05 122.47 91.41 C 118.81 88.12 121.21 82.33 120.55 78.00 C 121.25 73.58 118.79 67.79 122.39 64.36 M 128.84 69.77 C 126.83 74.48 127.06 80.56 128.68 85.38 C 133.38 88.72 143.39 87.44 141.59 79.55 C 140.66 79.55 138.79 79.55 137.85 79.55 C 138.31 83.35 135.30 83.93 132.22 83.72 C 131.63 80.02 130.79 75.76 132.27 72.28 C 135.08 69.95 137.90 72.78 138.04 75.82 C 139.29 75.71 140.53 75.56 141.77 75.38 C 142.88 67.86 133.51 66.64 128.84 69.77 Z" />
<path fill="#ca9d44" opacity="1.00" d=" M 55.36 76.13 C 55.46 74.56 55.60 72.99 55.71 71.42 C 57.36 71.63 59.01 71.84 60.66 72.09 C 60.67 73.36 60.66 74.63 60.65 75.89 C 58.89 76.02 57.12 76.10 55.36 76.13 Z" />
<path fill="#ca9d44" opacity="1.00" d=" M 94.20 71.50 C 96.04 71.72 99.67 71.18 99.44 74.00 C 99.76 76.76 96.01 76.16 94.23 76.37 C 94.22 74.75 94.21 73.12 94.20 71.50 Z" />
<path fill="#ca9d44" opacity="1.00" d=" M 55.50 79.25 C 57.23 79.30 58.96 79.34 60.70 79.40 C 60.75 80.82 60.77 82.25 60.78 83.67 C 59.01 83.73 57.25 83.77 55.48 83.82 C 55.49 82.30 55.50 80.77 55.50 79.25 Z" />
<path fill="#ca9d44" opacity="1.00" d=" M 94.21 79.14 C 95.97 79.27 97.74 79.39 99.50 79.52 C 99.55 80.87 99.58 82.22 99.59 83.57 C 97.79 83.69 95.99 83.80 94.19 83.91 C 94.20 82.32 94.20 80.73 94.21 79.14 Z" />
<path fill="#ca9d44" opacity="1.00" d=" M 44.30 110.69 C 42.75 106.80 42.54 99.57 48.03 98.91 C 53.03 97.99 61.80 97.78 61.42 105.03 C 62.16 108.38 58.27 106.98 56.31 107.26 C 56.04 105.90 55.78 104.53 55.52 103.17 C 51.85 101.37 46.17 104.10 49.61 108.31 C 54.56 110.19 63.42 110.33 61.77 118.01 C 63.21 126.36 52.57 126.35 47.15 124.65 C 43.65 123.73 44.28 119.55 44.07 116.78 C 45.46 116.68 46.86 116.58 48.25 116.49 C 48.87 120.80 52.71 122.34 56.47 120.43 C 56.46 118.82 56.45 117.21 56.45 115.60 C 52.54 113.69 47.32 114.06 44.30 110.69 Z" />
<path fill="#ca9d44" opacity="1.00" d=" M 65.63 99.23 C 70.53 99.37 75.53 98.69 80.38 99.61 C 85.53 101.77 83.60 108.53 83.63 112.88 C 82.62 118.60 75.22 117.33 70.95 117.46 C 70.80 119.92 70.86 122.38 70.74 124.84 C 69.03 124.81 67.33 124.78 65.63 124.75 C 65.58 116.24 65.59 107.73 65.63 99.23 M 70.78 103.46 C 70.81 106.60 70.82 109.73 70.82 112.87 C 73.35 112.81 75.89 112.71 78.41 112.45 C 78.54 109.90 78.87 107.31 78.35 104.79 C 76.55 102.55 73.26 103.85 70.78 103.46 Z" />
<path fill="#ca9d44" opacity="1.00" d=" M 90.30 99.36 C 95.03 98.37 101.25 97.36 105.16 100.83 C 107.81 106.62 106.28 113.42 106.41 119.62 C 105.87 126.66 97.02 125.68 92.02 125.07 C 85.78 124.25 86.93 116.56 86.73 112.00 C 87.12 107.86 85.68 101.46 90.30 99.36 M 92.78 103.81 C 91.98 108.95 92.15 114.26 92.61 119.43 C 94.40 121.75 97.96 120.33 100.50 120.60 C 101.68 114.95 101.67 109.01 100.49 103.37 C 97.93 103.36 95.24 102.88 92.78 103.81 Z" />
<path fill="#ca9d44" opacity="1.00" d=" M 110.54 99.22 C 116.21 100.06 124.05 96.78 128.10 101.97 C 129.24 106.90 130.27 113.85 125.17 116.97 C 126.45 119.55 127.65 122.18 128.66 124.89 C 126.87 124.85 125.08 124.81 123.30 124.76 C 122.16 122.25 121.00 119.75 119.87 117.23 C 118.53 117.25 117.19 117.25 115.85 117.23 C 115.81 119.76 115.81 122.30 115.76 124.83 C 114.02 124.81 112.28 124.79 110.55 124.77 C 110.46 116.25 110.48 107.73 110.54 99.22 M 115.79 103.47 C 115.81 106.49 115.81 109.51 115.80 112.53 C 119.22 112.68 124.80 113.15 123.59 107.99 C 124.72 102.92 119.15 103.26 115.79 103.47 Z" />
<path fill="#ca9d44" opacity="1.00" d=" M 130.77 99.09 C 136.93 98.69 143.13 98.68 149.29 99.08 C 149.34 100.53 149.37 101.98 149.40 103.44 C 147.16 103.44 144.92 103.57 142.68 103.56 C 142.66 110.64 142.72 117.73 142.64 124.82 C 140.89 124.82 139.14 124.81 137.39 124.81 C 137.30 117.74 137.36 110.67 137.35 103.61 C 135.08 103.44 132.80 103.52 130.54 103.28 C 130.58 101.88 130.65 100.48 130.77 99.09 Z" />
</g>
</svg>
