<?xml version="1.0" encoding="UTF-8" ?>
<!DOCTYPE svg PUBLIC "-//W3C//DTD SVG 1.1//EN" "http://www.w3.org/Graphics/SVG/1.1/DTD/svg11.dtd">
<svg width="192pt" height="192pt" viewBox="0 0 192 192" version="1.1" xmlns="http://www.w3.org/2000/svg">
<g id="#1ab0ffff">
<path fill="#1ab0ff" opacity="1.00" d=" M 39.37 21.54 C 43.16 20.52 47.12 20.75 51.00 20.74 C 83.33 20.77 115.66 20.69 147.99 20.76 C 160.20 20.73 171.00 31.74 170.82 43.93 C 170.89 77.98 170.89 112.02 170.85 146.06 C 171.15 158.36 160.35 169.47 148.05 169.52 C 113.69 169.59 79.32 169.56 44.95 169.50 C 33.38 169.47 22.90 159.66 22.18 148.10 C 22.00 141.77 21.88 135.41 22.23 129.09 C 23.00 123.89 31.11 123.27 32.75 128.23 C 34.05 134.93 32.62 141.87 33.50 148.64 C 34.62 154.33 40.19 158.68 46.01 158.33 C 79.67 158.32 113.34 158.32 147.00 158.30 C 153.69 158.68 159.79 152.75 159.64 146.07 C 159.70 112.02 159.72 77.97 159.64 43.92 C 159.71 37.30 153.56 31.67 147.04 31.84 C 113.35 31.80 79.66 31.79 45.97 31.81 C 40.04 31.65 34.20 36.15 33.41 42.13 C 32.84 48.39 33.72 54.71 32.99 60.95 C 32.25 65.53 25.55 66.86 23.11 62.89 C 20.89 56.95 22.58 50.19 22.10 43.93 C 22.00 33.69 29.53 24.14 39.37 21.54 Z" />
<path fill="#1ab0ff" opacity="1.00" d=" M 22.84 75.80 C 29.53 75.12 36.42 75.19 43.12 75.83 C 51.89 77.11 52.56 89.40 48.20 95.23 C 53.42 100.96 52.69 114.35 43.41 115.43 C 37.01 116.04 30.54 115.75 24.12 115.65 C 21.06 115.20 22.35 111.13 22.04 109.00 C 22.61 97.98 21.03 86.57 22.84 75.80 M 31.37 83.45 C 31.37 86.16 31.36 88.87 31.35 91.58 C 34.68 91.18 41.68 93.48 41.29 88.00 C 42.46 81.87 35.03 83.64 31.37 83.45 M 31.35 99.24 C 31.36 102.05 31.36 104.87 31.34 107.69 C 34.63 107.32 38.80 108.86 41.48 106.51 C 41.85 104.28 42.51 101.20 40.62 99.51 C 37.56 98.98 34.43 99.29 31.35 99.24 Z" />
<path fill="#1ab0ff" opacity="1.00" d=" M 57.35 75.50 C 63.66 75.45 70.04 75.05 76.31 75.81 C 85.10 77.06 85.91 89.54 81.33 95.30 C 86.78 100.81 85.86 114.42 76.63 115.45 C 69.66 115.93 62.59 116.05 55.64 115.36 C 54.85 103.93 55.55 92.43 55.27 80.97 C 55.44 79.12 54.65 75.72 57.35 75.50 M 64.57 83.48 C 64.58 86.17 64.57 88.86 64.57 91.56 C 67.65 91.41 71.00 92.21 73.90 90.92 C 74.66 88.70 75.29 85.19 72.93 83.71 C 70.17 83.29 67.36 83.49 64.57 83.48 M 64.55 99.25 C 64.58 102.06 64.58 104.87 64.57 107.68 C 67.73 107.57 71.09 108.26 74.12 107.15 C 75.74 105.32 75.03 102.49 74.65 100.30 C 71.87 98.17 67.84 99.64 64.55 99.25 Z" />
<path fill="#1ab0ff" opacity="1.00" d=" M 85.81 79.11 C 83.82 73.99 92.14 74.69 94.68 76.36 C 97.72 85.02 99.57 94.09 102.25 102.88 C 104.94 94.19 106.84 85.25 109.69 76.62 C 112.09 74.27 121.15 74.19 118.55 79.62 C 114.83 91.28 111.96 103.29 107.66 114.72 C 104.07 116.55 96.12 117.32 95.50 111.59 C 92.32 100.75 88.96 89.96 85.81 79.11 Z" />
<path fill="#1ab0ff" opacity="1.00" d=" M 124.78 79.82 C 125.29 73.80 134.65 74.01 137.79 77.22 C 141.51 89.90 146.50 102.48 148.64 115.49 C 145.90 115.76 143.10 116.09 140.37 115.55 C 138.43 113.78 138.34 110.84 137.42 108.50 C 133.81 108.57 130.19 108.59 126.58 108.43 C 125.83 110.72 125.24 113.07 124.21 115.26 C 121.15 116.25 117.79 115.95 114.73 115.14 C 117.13 103.15 121.60 91.64 124.78 79.82 M 128.48 100.44 C 130.75 100.63 133.04 100.66 135.33 100.73 C 134.40 96.60 133.21 92.54 131.99 88.49 C 130.75 92.45 129.74 96.48 128.48 100.44 Z" />
</g>
</svg>
