<?xml version="1.0" encoding="UTF-8" ?>
<!DOCTYPE svg PUBLIC "-//W3C//DTD SVG 1.1//EN" "http://www.w3.org/Graphics/SVG/1.1/DTD/svg11.dtd">
<svg width="192pt" height="192pt" viewBox="0 0 192 192" version="1.1" xmlns="http://www.w3.org/2000/svg">
<g id="#18b6c5ff">
<path fill="#18b6c5" opacity="1.00" d=" M 23.09 35.95 C 22.81 23.50 33.54 12.15 46.00 11.80 C 65.66 11.66 85.32 11.77 104.99 11.75 C 120.85 12.01 137.71 16.24 149.22 27.77 C 165.54 43.89 165.42 73.88 147.48 88.80 C 154.06 93.93 159.65 100.51 162.62 108.39 C 170.29 127.48 163.72 151.88 146.28 163.32 C 133.89 171.54 118.60 173.83 104.00 173.74 C 86.04 173.66 68.07 173.88 50.12 173.62 C 43.81 173.29 43.83 162.87 50.19 162.59 C 67.12 162.28 84.07 162.54 101.00 162.46 C 115.59 162.62 131.72 161.21 143.22 151.24 C 158.33 138.09 158.26 111.25 141.98 99.04 C 135.59 95.05 134.22 85.09 139.99 79.98 C 154.30 68.67 152.60 44.24 138.59 33.39 C 129.18 25.91 116.80 23.24 105.00 23.13 C 85.65 23.14 66.29 23.11 46.94 23.14 C 40.13 22.91 34.18 29.21 34.38 35.94 C 34.30 80.64 34.48 125.35 34.31 170.05 C 34.52 177.11 22.87 177.11 23.11 170.05 C 22.96 125.35 23.09 80.65 23.09 35.95 Z" />
<path fill="#18b6c5" opacity="1.00" d=" M 67.37 41.53 C 74.46 40.02 81.80 41.14 89.00 40.80 C 99.03 41.20 110.10 39.11 119.04 44.86 C 129.07 50.89 131.02 66.53 122.88 74.88 C 117.73 80.04 110.08 81.54 103.03 81.58 C 92.67 81.60 82.30 81.65 71.93 81.56 C 65.10 81.58 58.69 76.69 56.76 70.16 C 54.62 59.86 55.15 45.07 67.37 41.53 M 70.36 52.45 C 66.13 54.16 67.61 59.49 67.32 63.04 C 66.90 66.14 68.17 70.33 71.97 70.21 C 83.32 70.29 94.68 70.40 106.02 70.13 C 111.04 70.12 117.45 67.10 116.63 61.15 C 116.67 54.70 109.57 51.87 104.07 52.16 C 92.84 52.31 81.55 51.72 70.36 52.45 Z" />
<path fill="#18b6c5" opacity="1.00" d=" M 69.41 98.56 C 79.25 97.88 89.14 98.46 99.00 98.25 C 107.23 98.07 116.12 98.92 122.81 104.19 C 132.62 111.58 133.72 127.58 125.58 136.58 C 120.19 142.56 111.73 144.37 103.99 144.48 C 93.33 144.50 82.67 144.53 72.01 144.47 C 64.08 144.57 56.77 137.95 56.18 130.03 C 55.89 124.67 56.01 119.29 56.09 113.92 C 56.13 106.49 62.08 99.69 69.41 98.56 M 69.45 110.45 C 65.95 113.17 67.86 118.22 67.35 122.00 C 67.58 125.73 66.06 131.83 71.05 132.98 C 80.68 133.51 90.36 133.01 100.00 133.20 C 105.82 133.13 112.56 133.38 117.09 129.10 C 121.54 124.18 120.24 114.85 114.03 111.94 C 107.87 108.71 100.68 109.78 94.00 109.61 C 85.86 110.14 77.31 108.50 69.45 110.45 Z" />
</g>
</svg>
