<?xml version="1.0" encoding="UTF-8" ?>
<!DOCTYPE svg PUBLIC "-//W3C//DTD SVG 1.1//EN" "http://www.w3.org/Graphics/SVG/1.1/DTD/svg11.dtd">
<svg width="192pt" height="192pt" viewBox="0 0 192 192" version="1.1" xmlns="http://www.w3.org/2000/svg">
<g id="#7179b6ff">
<path fill="#7179b6" opacity="1.00" d=" M 128.88 48.08 C 141.68 41.20 155.05 35.43 168.17 29.20 C 171.71 27.44 173.10 33.85 170.08 35.13 C 158.44 42.49 146.78 49.84 135.18 57.26 C 143.54 66.58 140.63 81.77 133.62 91.17 C 147.89 102.96 148.62 126.79 136.03 140.04 C 128.24 148.51 116.27 152.12 105.00 151.64 C 96.47 151.45 87.92 151.95 79.41 151.40 C 74.17 150.20 74.14 141.76 79.45 140.64 C 89.58 139.94 99.79 140.73 109.95 140.27 C 118.78 139.68 127.93 135.06 131.55 126.60 C 135.43 117.70 134.11 105.27 125.52 99.54 C 122.60 97.42 117.56 96.52 117.62 92.01 C 117.48 86.71 124.27 86.29 126.07 82.03 C 129.75 76.24 129.28 69.01 127.03 62.79 C 116.91 69.05 106.94 75.56 96.84 81.87 C 87.24 86.38 87.59 98.59 83.60 107.11 C 92.15 104.44 100.49 100.80 109.43 99.67 C 109.48 102.18 107.03 103.13 105.30 104.34 C 97.20 109.60 89.05 114.78 80.91 119.96 C 77.66 121.69 77.03 125.55 75.81 128.68 C 70.16 144.39 64.69 160.17 58.85 175.81 C 56.97 180.84 48.52 178.24 49.87 173.02 C 54.35 158.91 60.13 145.21 64.15 130.94 C 62.12 132.15 60.07 133.33 57.98 134.43 C 56.75 131.70 55.11 128.18 57.49 125.55 C 61.37 119.08 70.46 116.98 72.22 109.16 C 73.83 104.44 75.69 99.79 77.02 94.98 C 65.72 101.25 55.76 110.21 43.87 115.17 C 44.20 111.37 46.64 108.31 48.24 104.99 C 47.27 103.94 46.31 102.90 45.35 101.85 C 57.31 92.11 70.65 84.15 83.13 75.14 C 88.50 68.14 89.49 58.74 92.97 50.73 C 72.41 50.85 51.84 50.44 31.29 50.91 C 31.53 80.56 31.27 110.23 31.41 139.87 C 37.33 141.41 44.08 139.43 50.21 140.84 C 55.08 142.50 54.68 150.37 49.63 151.45 C 42.10 151.84 34.53 151.55 26.98 151.61 C 23.02 151.72 19.79 147.96 20.07 144.08 C 20.03 111.70 20.01 79.31 20.11 46.92 C 19.74 43.01 23.00 39.35 27.00 39.60 C 52.33 39.49 77.66 39.54 102.99 39.57 C 112.28 39.54 121.38 42.63 128.88 48.08 M 94.10 50.73 C 94.49 54.48 98.01 55.74 100.33 58.06 C 100.03 60.56 99.03 62.90 98.28 65.28 C 104.86 61.99 111.02 57.93 117.28 54.06 C 110.09 50.48 101.92 50.63 94.10 50.73 Z" />
</g>
</svg>
