<?xml version="1.0" encoding="UTF-8" ?>
<!DOCTYPE svg PUBLIC "-//W3C//DTD SVG 1.1//EN" "http://www.w3.org/Graphics/SVG/1.1/DTD/svg11.dtd">
<svg width="192pt" height="192pt" viewBox="0 0 192 192" version="1.1" xmlns="http://www.w3.org/2000/svg">
<g id="#b3b16cff">
<path fill="#b3b16c" opacity="1.00" d=" M 26.29 54.93 C 25.67 48.05 36.76 47.02 40.21 50.98 C 40.53 60.40 40.23 69.84 40.37 79.27 C 52.62 72.62 68.90 72.88 79.68 82.29 C 90.04 90.50 91.91 104.30 96.41 115.92 C 96.66 115.85 97.18 115.72 97.44 115.65 C 100.94 105.27 103.92 94.72 107.33 84.31 C 109.30 76.96 120.22 76.30 124.92 81.06 C 129.25 92.63 132.17 104.72 136.49 116.31 C 140.76 105.42 144.12 94.20 148.28 83.28 C 150.88 76.97 159.68 77.05 164.56 80.47 C 167.10 82.84 164.90 86.43 164.34 89.20 C 158.60 106.81 152.22 124.25 144.95 141.29 C 139.29 141.72 133.60 141.53 127.93 141.39 C 123.09 130.16 120.12 118.22 116.30 106.62 C 112.09 117.95 110.25 130.36 104.86 141.13 C 99.41 141.77 93.60 141.84 88.15 141.05 C 85.76 137.26 85.06 132.71 83.02 128.74 C 75.77 137.24 64.16 141.74 53.09 139.70 C 38.20 137.89 26.31 123.96 26.25 109.06 C 26.19 91.02 26.33 72.97 26.29 54.93 M 53.30 91.36 C 42.27 93.95 37.96 108.53 44.75 117.24 C 51.56 127.52 69.52 125.17 73.35 113.39 C 78.57 101.36 65.96 86.77 53.30 91.36 Z" />
</g>
</svg>
