<?xml version="1.0" encoding="UTF-8" ?>
<!DOCTYPE svg PUBLIC "-//W3C//DTD SVG 1.1//EN" "http://www.w3.org/Graphics/SVG/1.1/DTD/svg11.dtd">
<svg width="192pt" height="192pt" viewBox="0 0 192 192" version="1.1" xmlns="http://www.w3.org/2000/svg">
<g id="#fb4d89ff">
<path fill="#fb4d89" opacity="1.00" d=" M 56.98 46.47 C 62.91 39.13 66.22 27.22 76.97 25.91 C 88.64 25.62 100.36 25.60 112.02 25.92 C 122.71 27.22 125.74 39.13 131.88 46.17 C 140.85 47.04 149.96 45.96 158.96 46.66 C 168.38 47.64 176.08 56.48 175.83 65.94 C 175.87 91.31 175.88 116.69 175.84 142.06 C 176.18 152.61 166.56 161.96 156.06 161.54 C 114.71 161.54 73.36 161.59 32.01 161.50 C 21.79 161.51 12.81 152.27 13.07 142.06 C 13.03 116.69 13.04 91.31 13.08 65.94 C 12.83 56.11 21.15 47.00 31.01 46.56 C 39.66 46.34 48.33 46.56 56.98 46.47 M 77.30 37.38 C 71.20 42.98 68.68 51.91 62.31 57.26 C 51.96 58.47 41.41 57.07 31.01 57.93 C 26.74 58.46 23.92 62.82 24.30 66.95 C 24.34 91.97 24.27 116.99 24.34 142.01 C 24.18 146.59 28.41 150.60 32.98 150.20 C 73.99 150.20 115.01 150.19 156.03 150.17 C 160.55 150.53 164.72 146.54 164.58 142.01 C 164.68 116.99 164.60 91.96 164.62 66.94 C 164.96 62.84 162.20 58.58 157.98 57.97 C 147.57 57.07 137.00 58.48 126.63 57.28 C 120.26 51.94 117.70 43.11 111.67 37.39 C 100.26 36.92 88.72 36.94 77.30 37.38 Z" />
<path fill="#fb4d89" opacity="1.00" d=" M 90.41 67.49 C 94.35 66.99 100.25 66.45 101.67 71.30 C 103.20 76.03 98.24 79.47 93.93 78.58 C 79.40 78.25 68.33 94.78 73.87 108.14 C 77.24 117.77 87.90 124.10 97.97 122.23 C 109.12 120.60 117.85 109.28 116.13 98.06 C 115.97 95.27 114.51 92.01 116.56 89.58 C 118.96 86.25 124.81 86.98 126.14 90.91 C 132.27 108.53 120.04 129.24 101.92 133.02 C 84.05 137.66 64.48 124.46 61.78 106.28 C 58.15 88.26 72.12 69.31 90.41 67.49 Z" />
<path fill="#fb4d89" opacity="1.00" d=" M 108.33 71.28 C 112.86 70.50 116.38 74.81 119.45 77.57 C 121.94 79.53 120.28 84.09 117.04 83.68 C 113.64 83.72 108.74 84.79 106.99 80.89 C 106.69 77.81 105.52 73.51 108.33 71.28 Z" />
</g>
</svg>
