<?xml version="1.0" encoding="UTF-8" ?>
<!DOCTYPE svg PUBLIC "-//W3C//DTD SVG 1.1//EN" "http://www.w3.org/Graphics/SVG/1.1/DTD/svg11.dtd">
<svg width="192pt" height="192pt" viewBox="0 0 192 192" version="1.1" xmlns="http://www.w3.org/2000/svg">
<g id="#d7d7d7ff">
<path fill="#d7d7d7" opacity="1.00" d=" M 61.22 32.06 C 70.33 21.08 84.73 14.65 99.01 15.91 C 110.97 16.74 122.28 22.86 129.92 32.03 C 133.02 29.39 135.35 25.68 139.07 23.88 C 143.89 22.14 148.62 27.86 146.27 32.30 C 143.39 36.12 139.57 39.12 136.36 42.65 C 139.93 50.62 139.89 59.41 139.91 67.95 C 150.31 79.54 162.11 89.93 172.66 101.41 C 181.73 112.19 180.58 129.69 170.17 139.18 C 162.36 146.90 150.04 148.81 139.95 144.81 C 139.53 151.18 136.18 157.47 130.43 160.52 C 121.82 164.98 113.09 169.20 104.43 173.57 C 99.16 176.35 92.60 176.50 87.26 173.81 C 78.59 169.47 69.89 165.18 61.25 160.78 C 55.28 157.76 51.78 151.37 50.98 144.90 C 39.11 149.62 24.35 145.56 17.29 134.73 C 10.21 124.76 10.92 110.16 18.96 100.95 C 29.52 89.75 40.97 79.36 51.34 68.02 C 51.26 59.41 51.39 50.62 54.83 42.55 C 51.69 39.24 48.01 36.37 45.36 32.64 C 42.71 28.13 47.93 22.34 52.71 24.36 C 56.13 26.15 58.35 29.56 61.22 32.06 M 62.67 59.02 C 62.75 71.30 62.40 83.59 62.88 95.86 C 84.76 96.01 106.64 95.90 128.51 95.91 C 128.45 83.29 128.64 70.66 128.43 58.04 C 127.70 41.04 112.13 26.18 94.96 27.09 C 77.89 26.85 62.91 42.11 62.67 59.02 M 28.38 108.41 C 22.47 114.67 23.27 125.67 29.96 131.06 C 35.85 136.32 45.32 135.92 51.14 130.77 C 51.07 115.57 51.47 100.38 51.44 85.18 C 43.84 93.01 35.98 100.58 28.38 108.41 M 139.80 85.40 C 139.90 100.24 139.67 115.09 139.93 129.92 C 145.04 136.65 156.51 136.22 162.14 130.14 C 168.06 124.51 168.34 114.26 162.71 108.33 C 155.15 100.62 147.46 93.02 139.80 85.40 M 62.87 107.23 C 62.86 110.08 62.86 112.93 62.87 115.78 C 84.75 115.96 106.62 115.82 128.49 115.85 C 128.51 112.97 128.50 110.09 128.47 107.22 C 106.60 107.24 84.74 107.18 62.87 107.23 M 62.88 127.16 C 63.93 134.44 60.48 142.87 64.65 149.35 C 73.16 154.79 82.72 158.56 91.65 163.34 C 94.78 165.27 98.48 164.19 101.39 162.42 C 109.65 157.95 118.50 154.47 126.41 149.45 C 130.64 143.02 127.58 134.46 128.48 127.15 C 106.61 127.17 84.75 127.13 62.88 127.16 Z" />
<path fill="#d7d7d7" opacity="1.00" d=" M 82.37 50.41 C 86.83 48.02 92.90 51.93 92.44 57.00 C 92.53 62.32 85.65 65.68 81.45 62.50 C 77.07 59.76 77.61 52.42 82.37 50.41 Z" />
<path fill="#d7d7d7" opacity="1.00" d=" M 103.26 50.18 C 108.03 48.11 113.75 52.75 112.69 57.84 C 112.13 62.85 105.57 65.50 101.64 62.39 C 97.16 59.47 98.17 51.84 103.26 50.18 Z" />
</g>
</svg>
