<?xml version="1.0" encoding="UTF-8" ?>
<!DOCTYPE svg PUBLIC "-//W3C//DTD SVG 1.1//EN" "http://www.w3.org/Graphics/SVG/1.1/DTD/svg11.dtd">
<svg width="192pt" height="192pt" viewBox="0 0 192 192" version="1.1" xmlns="http://www.w3.org/2000/svg">
<g id="#59bff2ff">
<path fill="#59bff2" opacity="1.00" d=" M 61.24 32.05 C 70.17 21.42 84.00 14.94 97.96 15.86 C 110.29 16.41 122.05 22.58 129.91 32.02 C 133.00 29.38 135.34 25.66 139.06 23.87 C 144.14 21.97 149.05 28.46 145.96 32.83 C 143.01 36.35 139.45 39.32 136.37 42.73 C 139.90 50.69 140.01 59.48 139.78 68.03 C 150.24 78.96 161.23 89.38 171.74 100.27 C 180.30 109.51 181.25 124.66 173.89 134.89 C 166.73 145.78 151.90 149.59 139.95 144.96 C 139.48 151.29 136.15 157.52 130.43 160.54 C 121.81 164.98 113.09 169.21 104.43 173.58 C 99.16 176.35 92.59 176.50 87.27 173.81 C 78.59 169.47 69.90 165.17 61.26 160.77 C 55.29 157.78 51.86 151.40 50.97 144.98 C 38.60 149.85 23.26 145.19 16.49 133.56 C 9.79 123.03 11.46 108.13 20.35 99.36 C 30.68 88.88 41.26 78.64 51.48 68.04 C 51.10 59.55 51.52 50.93 54.67 42.93 C 52.11 38.84 47.20 36.35 45.00 31.91 C 43.18 27.39 48.29 22.41 52.76 24.34 C 56.15 26.17 58.40 29.51 61.24 32.05 M 68.50 41.52 C 64.50 47.17 62.44 54.08 62.62 61.00 C 62.79 72.61 62.35 84.23 62.88 95.83 C 84.76 96.27 106.66 95.83 128.54 95.90 C 128.48 83.92 128.57 71.94 128.52 59.96 C 128.55 46.82 119.99 34.02 107.66 29.32 C 93.90 23.70 76.42 28.77 68.50 41.52 M 28.40 108.44 C 22.33 114.86 23.41 126.24 30.51 131.47 C 36.43 136.31 45.41 135.68 51.11 130.81 C 51.09 115.65 51.51 100.50 51.42 85.34 C 43.77 93.06 36.00 100.67 28.40 108.44 M 139.82 85.57 C 139.85 100.36 139.67 115.16 139.92 129.94 C 145.17 136.60 156.47 136.19 162.13 130.13 C 168.03 124.50 168.32 114.27 162.68 108.36 C 155.12 100.71 147.56 93.05 139.82 85.57 M 62.89 107.24 C 62.86 110.09 62.84 112.93 62.88 115.78 C 84.76 115.95 106.65 115.85 128.53 115.82 C 128.51 112.96 128.50 110.10 128.50 107.24 C 106.63 107.22 84.76 107.21 62.89 107.24 M 62.88 127.17 C 63.91 134.45 60.47 142.87 64.64 149.34 C 73.13 154.80 82.71 158.55 91.62 163.34 C 95.84 165.99 100.27 163.01 104.05 161.08 C 111.44 157.09 119.40 154.01 126.43 149.44 C 130.62 143.00 127.62 134.46 128.47 127.15 C 106.60 127.20 84.74 127.15 62.88 127.17 Z" />
<path fill="#59bff2" opacity="1.00" d=" M 82.34 50.39 C 86.84 48.01 92.94 51.88 92.47 57.00 C 92.58 62.34 85.66 65.73 81.43 62.53 C 77.04 59.78 77.57 52.43 82.34 50.39 Z" />
<path fill="#59bff2" opacity="1.00" d=" M 103.23 50.15 C 111.63 46.48 116.87 60.41 108.34 63.30 C 99.97 67.00 94.63 53.02 103.23 50.15 Z" />
</g>
</svg>
