<?xml version="1.0" encoding="UTF-8" ?>
<!DOCTYPE svg PUBLIC "-//W3C//DTD SVG 1.1//EN" "http://www.w3.org/Graphics/SVG/1.1/DTD/svg11.dtd">
<svg width="192pt" height="192pt" viewBox="0 0 192 192" version="1.1" xmlns="http://www.w3.org/2000/svg">
<g id="#b75af2ff">
<path fill="#b75af2" opacity="1.00" d=" M 61.23 32.03 C 70.81 20.57 86.17 14.05 101.09 16.14 C 112.29 17.44 122.70 23.41 129.91 32.02 C 133.00 29.37 135.34 25.66 139.05 23.86 C 143.82 22.12 148.62 27.70 146.36 32.17 C 143.54 36.12 139.55 39.09 136.37 42.74 C 139.90 50.70 140.01 59.48 139.76 68.02 C 150.24 78.94 161.23 89.38 171.74 100.27 C 180.30 109.51 181.25 124.67 173.89 134.89 C 166.73 145.79 151.88 149.61 139.94 144.96 C 139.47 151.28 136.14 157.51 130.42 160.53 C 121.83 165.00 113.08 169.19 104.44 173.57 C 99.17 176.34 92.60 176.49 87.27 173.80 C 78.59 169.46 69.89 165.17 61.26 160.77 C 55.28 157.78 51.90 151.40 50.95 144.99 C 38.11 150.10 22.14 144.72 15.75 132.31 C 9.60 121.42 12.08 106.72 21.33 98.34 C 31.36 88.22 41.59 78.29 51.48 68.04 C 51.08 59.53 51.52 50.91 54.68 42.91 C 52.04 38.83 47.22 36.35 45.00 31.93 C 43.17 27.39 48.28 22.39 52.76 24.34 C 56.15 26.18 58.40 29.49 61.23 32.03 M 68.51 41.53 C 64.50 47.17 62.45 54.08 62.63 61.00 C 62.80 72.61 62.36 84.23 62.89 95.83 C 84.77 96.28 106.67 95.86 128.57 95.88 C 128.46 83.91 128.58 71.93 128.52 59.96 C 128.55 46.82 119.99 34.02 107.66 29.32 C 93.90 23.70 76.43 28.78 68.51 41.53 M 28.89 107.91 C 22.73 113.90 23.05 124.87 29.45 130.56 C 35.19 136.15 45.12 136.22 50.96 130.75 C 51.26 115.68 51.45 100.55 51.37 85.46 C 43.82 92.89 36.37 100.42 28.89 107.91 M 139.83 85.62 C 139.81 100.40 139.66 115.18 139.91 129.95 C 145.20 136.59 156.46 136.19 162.13 130.12 C 168.23 124.32 168.26 113.66 162.19 107.83 C 154.74 100.42 147.44 92.86 139.83 85.62 M 62.94 107.23 C 62.85 110.08 62.83 112.93 62.92 115.78 C 84.79 115.95 106.67 115.85 128.55 115.83 C 128.51 112.97 128.50 110.10 128.51 107.24 C 106.65 107.22 84.80 107.22 62.94 107.23 M 62.91 127.16 C 63.89 134.44 60.49 142.86 64.64 149.34 C 73.13 154.81 82.70 158.56 91.62 163.34 C 95.84 166.01 100.28 163.02 104.06 161.09 C 111.57 156.88 120.01 154.06 126.90 148.94 C 130.23 142.33 127.81 134.32 128.46 127.14 C 106.61 127.22 84.76 127.15 62.91 127.16 Z" />
<path fill="#b75af2" opacity="1.00" d=" M 82.33 50.38 C 86.84 48.01 92.95 51.87 92.48 57.00 C 92.58 62.35 85.66 65.74 81.43 62.53 C 77.04 59.78 77.57 52.43 82.33 50.38 Z" />
<path fill="#b75af2" opacity="1.00" d=" M 103.21 50.15 C 108.03 48.07 113.81 52.73 112.73 57.87 C 112.15 62.91 105.55 65.55 101.61 62.41 C 97.15 59.47 98.13 51.84 103.21 50.15 Z" />
</g>
</svg>
