<?xml version="1.0" encoding="UTF-8" ?>
<!DOCTYPE svg PUBLIC "-//W3C//DTD SVG 1.1//EN" "http://www.w3.org/Graphics/SVG/1.1/DTD/svg11.dtd">
<svg width="192pt" height="192pt" viewBox="0 0 192 192" version="1.1" xmlns="http://www.w3.org/2000/svg">
<g id="#ecbe66ff">
<path fill="#ecbe66" opacity="1.00" d=" M 61.26 32.04 C 70.37 21.12 84.72 14.64 98.99 15.93 C 110.94 16.74 122.28 22.85 129.91 32.03 C 132.71 29.45 135.09 26.38 138.22 24.17 C 143.06 21.57 148.83 27.34 146.35 32.18 C 143.53 36.12 139.54 39.08 136.37 42.74 C 139.91 50.69 139.99 59.48 139.78 68.02 C 150.24 78.95 161.24 89.38 171.75 100.27 C 180.30 109.52 181.26 124.66 173.89 134.89 C 166.73 145.80 151.87 149.61 139.92 144.96 C 139.50 151.28 136.13 157.51 130.43 160.53 C 121.81 164.97 113.09 169.20 104.44 173.57 C 99.17 176.35 92.59 176.49 87.26 173.80 C 78.59 169.46 69.89 165.16 61.25 160.76 C 55.32 157.76 51.83 151.41 50.99 144.98 C 38.39 149.99 22.71 144.97 16.11 132.95 C 9.83 122.46 11.64 107.97 20.34 99.36 C 30.66 88.87 41.27 78.64 51.47 68.03 C 51.20 59.51 51.33 50.75 54.86 42.82 C 51.86 39.27 48.01 36.48 45.32 32.68 C 42.68 28.12 47.93 22.23 52.76 24.34 C 56.16 26.16 58.39 29.52 61.26 32.04 M 68.51 41.53 C 64.50 47.17 62.43 54.08 62.62 61.00 C 62.79 72.60 62.36 84.22 62.88 95.82 C 84.76 96.33 106.66 95.83 128.55 95.90 C 128.49 83.92 128.57 71.94 128.52 59.95 C 128.55 46.81 119.99 34.01 107.65 29.32 C 93.90 23.70 76.41 28.77 68.51 41.53 M 28.41 108.44 C 22.33 114.86 23.41 126.23 30.52 131.47 C 36.42 136.30 45.41 135.70 51.09 130.80 C 51.12 115.63 51.48 100.48 51.43 85.31 C 43.80 93.06 36.01 100.66 28.41 108.44 M 139.80 85.56 C 139.84 100.35 139.67 115.16 139.90 129.95 C 145.37 136.79 157.06 136.14 162.62 129.61 C 168.27 123.72 168.07 113.49 162.19 107.83 C 154.74 100.40 147.38 92.86 139.80 85.56 M 62.91 107.25 C 62.87 110.09 62.82 112.93 62.88 115.77 C 84.76 115.98 106.65 115.82 128.54 115.84 C 128.52 112.97 128.51 110.10 128.50 107.23 C 106.64 107.25 84.78 107.19 62.91 107.25 M 62.89 127.18 C 63.92 134.46 60.47 142.88 64.64 149.34 C 73.13 154.81 82.71 158.55 91.62 163.34 C 94.76 165.31 98.47 164.21 101.40 162.44 C 109.66 157.96 118.52 154.47 126.44 149.45 C 130.63 143.00 127.62 134.46 128.47 127.14 C 106.61 127.22 84.75 127.13 62.89 127.18 Z" />
<path fill="#ecbe66" opacity="1.00" d=" M 82.34 50.38 C 86.84 48.01 92.96 51.87 92.47 57.01 C 92.59 62.35 85.65 65.74 81.43 62.54 C 77.04 59.78 77.57 52.42 82.34 50.38 Z" />
<path fill="#ecbe66" opacity="1.00" d=" M 103.23 50.14 C 111.63 46.50 116.88 60.40 108.36 63.30 C 99.97 67.02 94.62 53.01 103.23 50.14 Z" />
</g>
</svg>
