<?xml version="1.0" encoding="UTF-8" ?>
<!DOCTYPE svg PUBLIC "-//W3C//DTD SVG 1.1//EN" "http://www.w3.org/Graphics/SVG/1.1/DTD/svg11.dtd">
<svg width="192pt" height="192pt" viewBox="0 0 192 192" version="1.1" xmlns="http://www.w3.org/2000/svg">
<g id="#f99832ff">
<path fill="#f99832" opacity="1.00" d=" M 61.20 32.04 C 70.33 21.11 84.69 14.59 98.99 15.90 C 110.96 16.69 122.28 22.83 129.93 32.01 C 133.05 29.41 135.35 25.70 139.06 23.90 C 143.82 22.17 148.48 27.70 146.34 32.15 C 143.53 36.12 139.49 39.03 136.38 42.75 C 140.03 50.66 139.87 59.45 139.92 67.96 C 150.13 79.38 161.70 89.65 172.18 100.86 C 178.75 108.40 180.62 119.63 176.98 128.93 C 171.88 143.55 154.10 150.57 139.97 144.98 C 139.49 151.31 136.15 157.53 130.43 160.56 C 121.82 165.00 113.10 169.23 104.44 173.60 C 99.17 176.37 92.59 176.51 87.25 173.83 C 78.58 169.49 69.89 165.20 61.25 160.80 C 55.25 157.81 51.90 151.41 50.91 145.00 C 39.00 149.51 24.33 145.56 17.28 134.71 C 10.23 124.74 10.94 110.17 18.96 100.96 C 29.50 89.74 41.06 79.41 51.32 67.98 C 51.18 59.33 51.49 50.57 54.78 42.43 C 51.60 39.23 48.01 36.34 45.38 32.65 C 42.69 28.16 47.95 22.34 52.73 24.38 C 56.12 26.17 58.34 29.55 61.20 32.04 M 62.71 59.02 C 62.77 71.29 62.44 83.57 62.91 95.83 C 84.78 96.06 106.66 95.99 128.54 95.87 C 128.40 83.25 128.65 70.61 128.42 57.99 C 127.66 41.02 112.10 26.25 94.98 27.12 C 77.93 26.90 62.94 42.11 62.71 59.02 M 28.87 107.89 C 23.25 113.36 22.90 123.08 27.96 129.03 C 33.41 136.09 44.54 136.67 51.11 130.85 C 51.04 115.73 51.55 100.61 51.32 85.49 C 43.77 92.90 36.34 100.41 28.87 107.89 M 139.88 85.64 C 139.84 100.41 139.70 115.19 139.96 129.95 C 145.06 136.69 156.54 136.21 162.17 130.17 C 168.29 124.34 168.31 113.64 162.23 107.78 C 154.79 100.39 147.54 92.80 139.88 85.64 M 63.06 107.22 C 62.83 110.07 62.82 112.92 62.96 115.77 C 84.81 115.94 106.67 115.85 128.53 115.81 C 128.50 112.96 128.48 110.11 128.48 107.26 C 106.67 107.21 84.87 107.28 63.06 107.22 M 63.16 127.12 C 63.69 134.39 60.61 142.83 64.67 149.31 C 71.59 154.03 79.63 156.98 86.99 161.01 C 90.77 162.88 95.19 165.97 99.41 163.38 C 108.35 158.63 117.85 154.78 126.42 149.43 C 130.59 142.99 127.63 134.45 128.42 127.15 C 106.67 127.19 84.91 127.24 63.16 127.12 Z" />
<path fill="#f99832" opacity="1.00" d=" M 82.36 50.44 C 86.83 47.99 92.87 51.97 92.45 57.01 C 92.52 62.33 85.65 65.68 81.45 62.48 C 77.08 59.76 77.61 52.45 82.36 50.44 Z" />
<path fill="#f99832" opacity="1.00" d=" M 103.23 50.21 C 107.99 48.10 113.77 52.76 112.68 57.86 C 112.11 63.18 104.86 65.65 101.08 61.93 C 97.21 58.73 98.48 51.83 103.23 50.21 Z" />
</g>
</svg>
