<?xml version="1.0" encoding="UTF-8" ?>
<!DOCTYPE svg PUBLIC "-//W3C//DTD SVG 1.1//EN" "http://www.w3.org/Graphics/SVG/1.1/DTD/svg11.dtd">
<svg width="192pt" height="192pt" viewBox="0 0 192 192" version="1.1" xmlns="http://www.w3.org/2000/svg">
<g id="#c07634ff">
<path fill="#c07634" opacity="1.00" d=" M 72.73 22.12 C 67.94 22.13 67.92 13.31 73.01 14.18 C 80.78 13.62 86.91 20.60 87.70 27.91 C 92.80 26.99 98.04 27.01 103.13 27.96 C 103.68 20.50 110.16 13.31 118.03 14.21 C 121.94 13.80 123.30 20.47 119.60 21.61 C 116.31 22.72 111.72 23.60 111.55 27.95 C 110.31 33.21 116.08 35.66 118.35 39.55 C 123.14 45.92 123.38 54.21 122.26 61.79 C 137.58 65.16 152.34 73.81 160.35 87.65 C 165.67 96.78 168.88 107.36 168.79 117.96 C 168.62 128.42 160.40 138.20 149.93 139.54 C 140.92 140.25 131.85 138.47 123.44 135.27 C 120.58 146.25 111.30 155.19 100.08 157.25 C 99.24 162.95 100.44 168.77 99.41 174.43 C 97.49 178.61 90.71 178.31 89.39 173.88 C 88.77 168.36 89.75 162.76 88.76 157.27 C 77.69 155.09 68.48 146.30 65.61 135.41 C 64.53 131.28 63.11 125.25 67.65 122.66 C 76.36 117.46 83.10 109.26 86.91 99.89 C 90.32 91.07 90.15 81.43 89.84 72.13 C 81.54 72.39 72.98 71.31 64.96 74.04 C 45.47 79.60 31.18 99.77 33.18 120.04 C 34.52 127.78 43.37 129.99 50.06 128.46 C 55.79 126.85 59.43 135.38 54.41 138.41 C 41.88 143.32 24.98 136.45 22.51 122.40 C 18.50 94.27 40.56 66.09 68.46 61.95 C 65.89 50.92 70.07 38.77 79.32 32.09 C 80.04 27.56 77.84 22.41 72.73 22.12 M 79.32 60.59 C 89.84 61.68 100.59 60.69 111.20 61.07 C 115.21 51.71 109.03 39.81 98.91 38.02 C 86.46 34.44 74.29 48.82 79.32 60.59 M 100.80 72.17 C 101.00 81.52 100.37 91.25 103.93 100.12 C 110.51 117.37 128.57 129.58 147.09 128.76 C 152.30 128.58 157.26 124.36 157.58 119.03 C 158.51 102.34 149.30 85.35 134.28 77.72 C 124.22 71.51 112.17 71.88 100.80 72.17 M 94.68 109.12 C 90.47 117.69 83.79 124.84 76.01 130.30 C 76.70 139.61 85.71 147.23 94.97 146.68 C 104.12 146.75 112.22 139.03 113.22 130.04 C 109.13 125.49 103.92 121.77 100.62 116.44 C 98.54 114.10 97.81 110.28 94.68 109.12 Z" />
</g>
</svg>
