<?xml version="1.0" encoding="UTF-8" ?>
<!DOCTYPE svg PUBLIC "-//W3C//DTD SVG 1.1//EN" "http://www.w3.org/Graphics/SVG/1.1/DTD/svg11.dtd">
<svg width="192pt" height="192pt" viewBox="0 0 192 192" version="1.1" xmlns="http://www.w3.org/2000/svg">
<g id="#9c7a8dff">
<path fill="#9c7a8d" opacity="1.00" d=" M 19.38 17.10 C 19.18 10.76 29.35 9.84 30.43 16.03 C 30.80 42.59 30.16 69.18 30.50 95.75 C 44.70 95.97 58.89 95.82 73.09 95.82 C 73.07 93.02 73.15 90.23 73.52 87.45 C 62.85 76.81 52.09 66.24 41.60 55.43 C 37.81 51.29 44.28 44.76 48.43 48.61 C 60.10 59.94 71.45 71.61 83.02 83.05 C 84.97 82.02 86.89 80.94 88.79 79.82 C 88.92 65.45 88.86 51.08 88.81 36.71 C 80.49 37.22 72.61 40.15 65.00 43.34 C 59.37 45.05 55.57 36.55 60.41 33.39 C 80.69 22.85 106.08 22.08 126.63 32.37 C 144.37 40.88 157.97 56.96 164.54 75.38 C 172.29 97.50 169.07 123.31 155.72 142.63 C 139.09 167.32 107.17 180.49 78.01 173.98 C 46.08 167.59 20.01 137.87 19.44 105.07 C 18.70 75.76 19.29 46.42 19.38 17.10 M 98.72 36.50 C 98.60 51.04 98.75 65.58 98.70 80.12 C 100.44 81.28 102.21 82.39 104.04 83.40 C 114.63 72.99 125.12 62.47 135.54 51.89 C 125.44 42.87 112.29 37.11 98.72 36.50 M 142.38 59.11 C 132.95 69.01 123.08 78.47 113.50 88.21 C 113.61 90.77 113.61 93.33 113.64 95.89 C 128.19 95.85 142.74 95.89 157.30 95.86 C 156.49 82.46 151.27 69.20 142.38 59.11 M 31.11 105.79 C 30.54 119.28 37.50 131.57 45.35 142.01 C 55.09 132.91 64.25 123.17 73.79 113.84 C 73.12 111.22 72.89 108.52 72.76 105.82 C 58.88 105.78 45.00 105.78 31.11 105.79 M 113.69 105.70 C 113.63 108.34 113.56 110.99 113.39 113.63 C 122.99 122.99 132.38 132.56 141.90 142.00 C 150.76 132.06 156.34 119.04 156.97 105.72 C 142.54 105.71 128.12 105.70 113.69 105.70 M 98.73 121.02 C 98.62 135.34 98.70 149.67 98.73 164.00 C 111.95 162.95 124.79 157.55 134.83 148.89 C 124.60 138.55 114.34 128.22 103.97 118.01 C 102.22 119.00 100.47 120.00 98.73 121.02 M 52.76 149.01 C 62.50 158.03 75.69 162.98 88.83 164.07 C 88.81 149.85 89.03 135.62 88.73 121.40 C 86.90 120.37 85.04 119.40 83.16 118.46 C 73.11 128.73 62.80 138.74 52.76 149.01 Z" />
</g>
</svg>
