<?xml version="1.0" encoding="UTF-8" ?>
<!DOCTYPE svg PUBLIC "-//W3C//DTD SVG 1.1//EN" "http://www.w3.org/Graphics/SVG/1.1/DTD/svg11.dtd">
<svg width="192pt" height="192pt" viewBox="0 0 192 192" version="1.1" xmlns="http://www.w3.org/2000/svg">
<g id="#45e372ff">
<path fill="#45e372" opacity="1.00" d=" M 38.88 27.88 C 55.45 15.14 80.75 17.03 95.16 32.20 C 106.08 21.77 122.37 16.34 137.12 20.88 C 155.79 25.57 168.97 43.22 170.96 61.96 C 173.27 81.49 162.96 102.08 145.22 111.00 C 145.04 129.01 145.31 147.04 145.18 165.05 C 145.31 167.59 143.61 169.56 141.86 171.15 C 111.54 171.27 81.23 171.18 50.92 171.20 C 47.64 171.48 45.40 167.98 45.48 165.00 C 45.41 153.40 45.43 141.78 45.60 130.19 C 45.96 124.39 55.20 123.72 56.42 129.41 C 57.04 139.56 56.48 149.78 56.69 159.96 C 82.49 160.02 108.28 160.04 134.08 159.95 C 134.10 144.94 134.11 129.93 134.08 114.92 C 134.32 111.99 130.84 110.06 131.86 107.00 C 132.58 103.51 136.53 102.61 139.27 101.18 C 154.08 94.89 162.04 77.50 159.73 61.98 C 158.14 48.90 149.16 36.78 136.62 32.33 C 124.29 27.62 109.52 32.12 101.30 42.30 C 99.48 44.73 96.44 47.45 93.21 45.82 C 89.47 43.32 87.24 39.08 83.39 36.65 C 70.99 27.20 51.90 28.82 41.44 40.45 C 25.19 55.58 27.55 84.76 45.17 97.83 C 54.90 105.38 68.83 106.40 79.69 100.64 C 85.21 97.97 90.09 106.62 85.03 110.04 C 69.26 119.55 47.72 115.88 34.60 103.39 C 12.95 83.69 15.02 44.94 38.88 27.88 Z" />
</g>
</svg>
