<?xml version="1.0" encoding="UTF-8" ?>
<!DOCTYPE svg PUBLIC "-//W3C//DTD SVG 1.1//EN" "http://www.w3.org/Graphics/SVG/1.1/DTD/svg11.dtd">
<svg width="192pt" height="192pt" viewBox="0 0 192 192" version="1.1" xmlns="http://www.w3.org/2000/svg">
<g id="#ff517dff">
<path fill="#ff517d" opacity="1.00" d=" M 144.41 15.50 C 148.15 14.50 149.89 20.50 145.94 21.38 C 142.22 22.61 140.91 16.48 144.41 15.50 Z" />
<path fill="#ff517d" opacity="1.00" d=" M 134.90 30.34 C 136.91 27.43 138.61 24.26 141.04 21.67 C 144.63 21.95 144.34 26.66 146.13 28.97 C 148.34 32.91 153.46 31.29 157.06 30.98 C 157.63 31.62 158.21 32.27 158.79 32.91 C 157.30 35.93 155.34 39.46 157.02 42.83 C 158.48 46.45 163.53 46.83 164.42 50.82 C 161.02 52.37 157.54 53.78 153.93 54.75 C 151.86 44.03 144.69 35.04 134.90 30.34 Z" />
<path fill="#ff517d" opacity="1.00" d=" M 160.42 26.38 C 163.30 24.48 166.56 29.61 163.50 31.50 C 160.31 34.41 156.53 28.13 160.42 26.38 Z" />
<path fill="#ff517d" opacity="1.00" d=" M 85.40 32.50 C 101.12 31.35 118.12 33.30 131.24 42.74 C 143.23 51.45 147.08 68.71 141.11 82.06 C 136.74 93.52 126.95 102.40 115.24 105.95 C 119.86 110.00 124.49 114.29 127.20 119.91 C 134.62 134.55 129.37 153.74 116.60 163.64 C 103.25 174.45 82.99 172.45 70.08 161.94 C 67.62 159.64 65.27 163.03 63.19 164.18 C 55.53 169.25 45.21 170.93 36.57 167.54 C 29.32 164.67 25.36 156.03 27.62 148.63 C 30.40 139.20 43.52 134.34 51.38 140.63 C 54.80 143.45 54.34 148.69 52.02 152.07 C 48.85 151.24 44.56 150.05 42.36 153.38 C 39.24 156.83 42.02 163.42 46.97 162.54 C 55.39 162.46 59.33 153.91 62.39 147.37 C 72.56 122.95 77.31 96.39 90.02 73.02 C 95.68 62.43 104.58 51.97 117.29 50.63 C 109.89 42.06 98.00 38.67 86.98 39.19 C 74.24 39.25 61.28 44.06 52.63 53.62 C 41.11 66.37 35.49 83.98 36.35 101.04 C 36.65 108.21 38.01 115.70 42.30 121.62 C 44.69 125.02 49.40 126.67 53.34 125.26 C 57.04 123.87 57.91 118.53 55.14 115.85 C 53.06 113.54 49.74 113.51 46.91 112.96 C 47.42 104.77 58.26 101.05 64.61 105.36 C 71.63 109.22 70.63 119.56 65.84 124.82 C 55.01 137.15 32.61 134.75 24.09 120.89 C 16.54 108.95 17.88 93.52 22.84 80.85 C 32.06 54.44 57.50 34.74 85.40 32.50 M 102.13 88.13 C 101.33 91.56 99.21 94.92 99.44 98.45 C 105.76 102.36 115.10 100.57 119.35 94.36 C 128.02 82.95 127.35 65.99 119.94 54.11 C 109.86 62.63 106.32 76.13 102.13 88.13 M 73.16 155.73 C 79.75 161.82 90.48 165.36 98.23 159.25 C 110.37 149.57 117.02 132.35 112.81 117.18 C 110.93 110.00 103.72 106.09 96.79 105.26 C 90.16 122.60 84.86 140.90 73.16 155.73 Z" />
<path fill="#ff517d" opacity="1.00" d=" M 132.80 36.08 C 130.39 35.29 133.11 31.95 134.75 33.19 C 143.06 37.51 149.87 45.54 151.24 54.99 C 150.80 56.18 149.39 56.35 148.45 56.98 C 146.24 48.21 140.72 40.53 132.80 36.08 Z" />
<path fill="#ff517d" opacity="1.00" d=" M 165.30 48.68 C 164.37 46.56 166.70 45.34 167.94 44.10 C 169.10 45.18 171.58 45.95 171.14 47.95 C 171.03 50.83 165.96 51.75 165.30 48.68 Z" />
</g>
</svg>
