<?xml version="1.0" encoding="UTF-8" ?>
<!DOCTYPE svg PUBLIC "-//W3C//DTD SVG 1.1//EN" "http://www.w3.org/Graphics/SVG/1.1/DTD/svg11.dtd">
<svg width="192pt" height="192pt" viewBox="0 0 192 192" version="1.1" xmlns="http://www.w3.org/2000/svg">
<g id="#b69450ff">
<path fill="#b69450" opacity="1.00" d=" M 33.33 22.20 C 40.64 19.33 49.26 20.76 55.45 25.53 C 77.81 41.81 100.00 58.34 122.30 74.71 C 135.53 84.14 135.87 106.10 123.01 116.00 C 106.36 128.42 89.55 140.63 72.84 152.97 C 76.48 158.78 85.02 160.99 90.58 156.58 C 112.90 140.24 135.15 123.78 157.43 107.38 C 165.00 102.16 165.21 89.66 157.84 84.18 C 135.42 67.61 112.98 51.06 90.50 34.56 C 86.58 31.41 81.22 32.03 76.88 33.88 C 71.39 35.77 67.57 27.38 71.99 24.01 C 79.51 19.21 89.83 19.86 96.95 25.15 C 119.42 41.64 141.88 58.15 164.30 74.71 C 179.57 85.55 176.89 111.00 160.47 119.44 C 138.90 135.21 117.49 151.21 95.85 166.87 C 85.50 173.98 70.58 170.06 63.73 159.93 C 57.36 163.77 51.86 169.89 43.97 170.41 C 30.03 172.25 17.18 159.81 17.06 146.07 C 16.96 112.71 17.04 79.34 17.06 45.97 C 17.01 35.72 23.61 25.71 33.33 22.20 M 38.43 32.68 C 32.64 34.20 28.28 39.94 28.40 45.94 C 28.39 79.30 28.33 112.65 28.44 146.01 C 28.38 155.34 40.04 162.69 47.95 156.85 C 70.54 140.11 93.37 123.67 115.91 106.87 C 122.93 101.48 122.86 89.53 115.75 84.25 C 93.61 67.68 71.10 51.61 48.97 35.03 C 46.01 32.74 42.09 31.69 38.43 32.68 Z" />
</g>
</svg>
