<?xml version="1.0" encoding="UTF-8" ?>
<!DOCTYPE svg PUBLIC "-//W3C//DTD SVG 1.1//EN" "http://www.w3.org/Graphics/SVG/1.1/DTD/svg11.dtd">
<svg width="192pt" height="192pt" viewBox="0 0 192 192" version="1.1" xmlns="http://www.w3.org/2000/svg">
<g id="#18b8c5ff">
<path fill="#18b8c5" opacity="1.00" d=" M 13.18 57.93 C 13.08 45.76 23.85 34.90 36.01 34.80 C 49.01 34.67 62.02 34.71 75.03 34.77 C 80.68 34.52 85.23 40.34 83.81 45.78 C 67.87 46.60 51.87 45.83 35.91 46.17 C 29.39 46.22 23.99 52.53 24.38 58.95 C 24.40 83.65 24.36 108.36 24.40 133.07 C 24.18 139.78 30.32 145.73 37.01 145.45 C 75.67 145.46 114.33 145.45 152.99 145.43 C 159.74 145.81 165.99 139.85 165.79 133.07 C 165.83 108.36 165.80 83.64 165.81 58.93 C 166.17 52.77 161.22 46.77 155.04 46.23 C 139.13 45.70 123.13 46.73 107.27 45.72 C 103.93 41.75 109.09 34.93 113.99 34.87 C 127.31 34.56 140.65 34.75 153.98 34.78 C 166.27 34.76 177.12 45.71 177.12 57.98 C 177.26 82.99 177.19 108.00 177.15 133.01 C 177.42 145.44 166.53 156.77 154.06 156.71 C 114.69 156.75 75.31 156.74 35.94 156.68 C 23.98 156.60 13.38 146.02 13.19 134.08 C 13.08 108.70 13.14 83.31 13.18 57.93 Z" />
<path fill="#18b8c5" opacity="1.00" d=" M 55.40 84.61 C 59.89 84.47 64.56 83.95 68.96 85.01 C 74.63 87.77 72.16 95.08 72.64 100.06 C 73.25 104.34 69.12 107.62 65.06 107.10 C 60.03 107.03 51.60 108.67 50.34 101.90 C 50.65 96.19 47.60 86.30 55.40 84.61 Z" />
<path fill="#18b8c5" opacity="1.00" d=" M 122.41 84.66 C 126.96 84.38 131.67 84.02 136.16 84.93 C 141.99 87.53 139.74 95.05 140.11 100.07 C 140.59 104.56 136.24 107.74 132.04 107.13 C 126.87 107.21 117.93 108.41 117.58 101.01 C 117.93 95.58 115.25 86.51 122.41 84.66 Z" />
</g>
</svg>
