<?xml version="1.0" encoding="UTF-8" ?>
<!DOCTYPE svg PUBLIC "-//W3C//DTD SVG 1.1//EN" "http://www.w3.org/Graphics/SVG/1.1/DTD/svg11.dtd">
<svg width="192pt" height="192pt" viewBox="0 0 192 192" version="1.1" xmlns="http://www.w3.org/2000/svg">
<g id="#3bb7f8ff">
<path fill="#3bb7f8" opacity="1.00" d=" M 37.30 19.38 C 67.78 17.92 98.44 19.15 128.99 18.74 C 135.96 18.95 142.99 18.23 149.92 19.21 C 160.47 21.18 168.86 31.17 168.78 41.94 C 168.82 76.31 168.82 110.68 168.82 145.05 C 169.06 157.33 158.24 168.42 145.96 168.50 C 111.32 168.59 76.67 168.57 42.03 168.49 C 29.72 168.45 18.87 157.35 19.09 145.05 C 19.05 110.68 19.06 76.30 19.13 41.93 C 19.07 31.42 27.07 21.63 37.30 19.38 M 39.32 30.44 C 33.88 31.83 29.91 37.33 30.29 42.94 C 30.32 76.99 30.26 111.03 30.33 145.07 C 30.17 151.77 36.39 157.54 43.01 157.26 C 77.01 157.27 111.01 157.26 145.00 157.21 C 152.02 157.51 158.06 150.99 157.61 144.06 C 157.62 110.35 157.64 76.64 157.61 42.94 C 158.01 36.05 151.95 29.77 145.04 29.95 C 112.37 29.75 79.68 29.93 47.00 29.81 C 44.43 29.81 41.83 29.83 39.32 30.44 Z" />
<path fill="#3bb7f8" opacity="1.00" d=" M 75.34 72.36 C 78.22 71.26 82.15 71.22 83.80 74.31 C 85.98 77.59 83.69 82.29 79.86 82.88 C 70.90 85.33 62.01 88.10 52.99 90.29 C 47.06 91.59 44.16 82.12 49.71 79.79 C 58.13 76.94 66.83 74.94 75.34 72.36 Z" />
<path fill="#3bb7f8" opacity="1.00" d=" M 106.27 72.19 C 108.80 70.87 111.61 72.20 114.15 72.79 C 122.15 75.26 130.37 77.04 138.27 79.79 C 143.64 82.21 140.96 91.52 135.02 90.34 C 125.71 88.10 116.52 85.28 107.31 82.65 C 102.50 81.55 101.81 74.23 106.27 72.19 Z" />
<path fill="#3bb7f8" opacity="1.00" d=" M 75.30 98.29 C 81.23 96.61 80.66 104.61 84.07 106.95 C 88.99 107.31 88.27 99.49 93.07 99.02 C 97.63 98.98 98.04 104.81 101.23 106.92 C 106.87 107.47 104.82 97.38 110.92 98.01 C 116.05 99.24 115.13 105.57 113.05 109.06 C 110.45 115.63 101.49 118.91 95.72 114.31 C 93.11 111.72 90.56 115.48 87.92 116.06 C 81.06 118.20 74.39 112.47 72.87 106.00 C 71.61 103.26 72.03 99.35 75.30 98.29 Z" />
</g>
</svg>
