<?xml version="1.0" encoding="UTF-8" ?>
<!DOCTYPE svg PUBLIC "-//W3C//DTD SVG 1.1//EN" "http://www.w3.org/Graphics/SVG/1.1/DTD/svg11.dtd">
<svg width="192pt" height="192pt" viewBox="0 0 192 192" version="1.1" xmlns="http://www.w3.org/2000/svg">
<g id="#726b6eff">
<path fill="#726b6e" opacity="1.00" d=" M 59.83 15.00 C 60.40 8.93 70.29 9.02 70.70 15.10 C 70.99 30.83 70.70 46.59 70.85 62.32 C 86.50 62.67 102.15 62.68 117.80 62.93 C 118.02 48.96 117.87 34.98 118.10 21.01 C 118.26 17.79 117.35 13.62 120.43 11.45 C 123.83 8.65 129.55 11.55 129.29 15.96 C 129.39 32.99 129.19 50.03 129.08 67.06 C 129.29 70.26 127.25 73.56 123.96 74.11 C 104.01 74.87 84.00 73.36 64.05 73.83 C 57.00 74.88 48.77 74.93 43.59 80.59 C 38.89 85.53 40.39 92.83 40.04 99.00 C 40.22 109.86 38.31 121.21 42.43 131.59 C 47.97 145.30 59.30 156.74 73.30 161.76 C 88.84 167.38 106.56 167.27 121.86 160.91 C 139.45 153.51 151.82 135.14 151.63 116.01 C 151.52 106.73 151.59 97.44 151.46 88.17 C 151.19 82.67 146.35 79.36 142.02 76.93 C 137.51 74.04 140.64 66.01 145.97 66.96 C 155.81 69.68 163.27 79.70 162.83 89.97 C 162.70 99.33 162.95 108.69 162.86 118.04 C 162.46 140.42 148.10 161.62 127.74 170.75 C 101.54 182.34 67.71 178.60 46.90 158.10 C 36.22 147.58 28.61 133.23 28.57 117.99 C 28.64 108.32 28.67 98.65 28.94 88.98 C 29.07 81.23 32.98 73.69 39.38 69.29 C 45.19 64.88 52.63 64.02 59.61 62.88 C 59.70 46.92 59.36 30.94 59.83 15.00 Z" />
<path fill="#726b6e" opacity="1.00" d=" M 67.26 95.17 C 75.52 91.70 77.74 104.08 73.95 109.00 C 71.09 112.52 64.50 110.53 64.31 105.91 C 64.15 102.26 63.29 97.17 67.26 95.17 Z" />
<path fill="#726b6e" opacity="1.00" d=" M 119.29 95.19 C 124.98 92.26 128.94 99.08 127.59 104.04 C 128.81 110.06 119.91 113.52 117.02 108.00 C 115.81 103.96 115.05 97.74 119.29 95.19 Z" />
<path fill="#726b6e" opacity="1.00" d=" M 59.28 126.18 C 62.27 124.41 65.25 126.64 67.61 128.36 C 80.77 137.68 98.70 139.90 113.58 133.49 C 118.79 131.65 123.09 128.07 128.04 125.73 C 133.00 124.14 137.14 130.90 133.75 134.70 C 112.68 152.50 79.00 153.27 57.90 135.11 C 55.16 132.68 56.07 127.75 59.28 126.18 Z" />
</g>
</svg>
