<?xml version="1.0" encoding="UTF-8" ?>
<!DOCTYPE svg PUBLIC "-//W3C//DTD SVG 1.1//EN" "http://www.w3.org/Graphics/SVG/1.1/DTD/svg11.dtd">
<svg width="192pt" height="192pt" viewBox="0 0 192 192" version="1.1" xmlns="http://www.w3.org/2000/svg">
<g id="#f6b02cff">
<path fill="#f6b02c" opacity="1.00" d=" M 91.29 14.39 C 98.53 12.43 106.64 14.79 111.76 20.25 C 124.91 33.44 138.28 46.41 151.29 59.72 C 155.58 64.36 148.31 71.60 143.68 67.32 C 130.14 54.20 116.96 40.70 103.52 27.47 C 99.84 23.62 93.14 23.68 89.50 27.56 C 76.08 40.78 62.89 54.25 49.39 67.38 C 44.81 71.72 37.44 64.40 41.80 59.79 C 54.85 46.51 68.17 33.49 81.33 20.32 C 84.04 17.50 87.48 15.34 91.29 14.39 Z" />
<path fill="#f6b02c" opacity="1.00" d=" M 93.30 62.41 C 97.79 61.11 102.74 62.75 105.92 66.09 C 112.91 73.09 119.98 80.02 126.94 87.05 C 131.38 91.54 131.51 99.47 127.08 104.02 C 119.95 111.24 112.70 118.34 105.53 125.51 C 100.86 130.50 92.17 130.44 87.54 125.45 C 80.24 118.09 72.76 110.91 65.59 103.44 C 60.64 97.75 62.83 88.85 68.61 84.61 C 77.02 77.48 83.33 67.32 93.30 62.41 M 96.25 72.99 C 88.93 80.76 80.60 87.70 73.87 95.95 C 81.68 103.07 88.60 111.87 96.95 117.98 C 104.42 110.46 112.64 103.43 119.24 95.18 C 111.42 87.96 104.49 79.69 96.25 72.99 Z" />
<path fill="#f6b02c" opacity="1.00" d=" M 29.38 73.39 C 33.87 72.32 37.68 78.08 34.88 81.76 C 31.29 86.45 24.24 89.93 25.36 96.86 C 25.44 102.60 32.84 104.46 33.11 110.00 C 33.02 115.09 25.95 117.00 23.05 112.94 C 13.94 106.04 11.21 91.85 18.78 82.83 C 22.11 79.55 24.94 75.15 29.38 73.39 Z" />
<path fill="#f6b02c" opacity="1.00" d=" M 161.32 73.34 C 163.08 72.87 165.00 73.39 166.32 74.64 C 171.74 79.71 178.05 85.15 178.69 93.09 C 180.04 102.08 174.37 110.63 166.98 115.17 C 162.35 116.76 157.85 110.75 160.90 106.84 C 163.83 103.35 168.53 100.22 167.84 95.00 C 167.51 88.67 160.85 85.92 157.80 81.08 C 156.14 78.14 158.06 74.07 161.32 73.34 Z" />
<path fill="#f6b02c" opacity="1.00" d=" M 41.20 120.28 C 43.59 119.24 46.19 120.30 47.82 122.15 C 61.70 135.95 75.55 149.78 89.44 163.58 C 93.07 167.53 99.95 167.59 103.61 163.65 C 117.87 149.55 131.95 135.27 146.31 121.28 C 150.95 116.73 158.51 124.33 153.91 128.95 C 139.66 143.34 125.25 157.60 110.89 171.89 C 103.23 179.40 89.80 179.37 82.20 171.80 C 67.96 157.71 53.76 143.56 39.61 129.38 C 36.69 126.87 37.52 121.60 41.20 120.28 Z" />
</g>
</svg>
