<?xml version="1.0" encoding="UTF-8" ?>
<!DOCTYPE svg PUBLIC "-//W3C//DTD SVG 1.1//EN" "http://www.w3.org/Graphics/SVG/1.1/DTD/svg11.dtd">
<svg width="192pt" height="192pt" viewBox="0 0 192 192" version="1.1" xmlns="http://www.w3.org/2000/svg">
<g id="#f8903aff">
<path fill="#f8903a" opacity="1.00" d=" M 62.50 17.36 C 63.35 11.65 72.54 11.70 73.33 17.40 C 73.82 32.01 73.38 46.67 73.54 61.31 C 88.80 61.35 104.06 61.32 119.32 61.31 C 119.47 46.66 119.08 32.00 119.51 17.37 C 120.01 11.28 129.92 11.34 130.45 17.38 C 130.81 32.00 130.47 46.65 130.61 61.29 C 145.02 61.46 159.46 61.08 173.87 61.45 C 179.91 61.91 180.09 71.86 174.00 72.41 C 159.54 72.78 145.06 72.43 130.60 72.57 C 130.64 88.17 130.53 103.77 130.66 119.37 C 145.30 119.55 159.97 119.02 174.59 119.62 C 180.54 120.59 179.95 130.40 173.89 130.58 C 159.49 130.84 145.08 130.63 130.67 130.66 C 130.40 144.77 130.88 158.89 130.45 172.99 C 129.85 179.04 119.98 178.86 119.48 172.85 C 119.05 158.81 119.48 144.74 119.28 130.69 C 104.06 130.65 88.84 130.72 73.61 130.65 C 73.30 144.76 73.88 158.89 73.35 172.99 C 72.38 178.75 63.06 178.48 62.45 172.67 C 61.98 158.69 62.44 144.67 62.24 130.68 C 47.87 130.58 33.49 130.82 19.12 130.56 C 12.99 130.48 12.33 120.52 18.39 119.62 C 32.99 119.07 47.64 119.57 62.26 119.38 C 62.23 103.76 62.40 88.13 62.18 72.52 C 47.79 72.47 33.38 72.73 18.99 72.40 C 12.85 71.90 12.98 61.79 19.14 61.46 C 33.51 61.14 47.90 61.45 62.28 61.31 C 62.44 46.66 61.98 31.99 62.50 17.36 M 73.55 72.55 C 73.53 88.15 73.54 103.76 73.55 119.36 C 88.80 119.40 104.06 119.39 119.32 119.36 C 119.31 103.76 119.36 88.16 119.30 72.56 C 104.05 72.54 88.80 72.55 73.55 72.55 Z" />
<path fill="#f8903a" opacity="1.00" d=" M 37.40 18.44 C 42.44 16.32 44.02 22.28 45.26 25.78 C 47.01 30.83 54.82 26.32 56.39 31.69 C 58.36 36.99 49.27 37.85 50.71 42.94 C 51.16 45.90 53.29 49.88 50.19 52.10 C 45.37 55.60 41.65 46.67 36.89 49.97 C 34.34 51.52 31.06 54.39 28.13 51.91 C 24.44 48.70 29.05 44.11 27.66 40.30 C 25.91 37.47 21.10 36.18 22.11 32.10 C 22.85 27.76 28.07 28.99 31.19 28.11 C 34.86 26.16 33.68 20.38 37.40 18.44 Z" />
<path fill="#f8903a" opacity="1.00" d=" M 37.28 79.28 C 41.98 77.06 44.05 82.55 45.03 86.04 C 46.39 91.81 55.01 86.93 56.44 92.69 C 58.15 97.92 49.10 98.79 50.76 103.94 C 51.31 106.87 53.29 110.95 49.99 113.00 C 45.40 116.07 42.05 108.18 37.42 110.51 C 34.64 111.83 31.48 115.33 28.34 112.81 C 24.02 109.65 29.61 104.44 27.35 100.60 C 25.24 98.09 20.70 96.28 22.26 92.23 C 23.67 88.23 28.64 90.10 31.64 88.67 C 34.74 86.39 33.84 81.21 37.28 79.28 Z" />
<path fill="#f8903a" opacity="1.00" d=" M 37.25 135.19 C 41.95 132.86 44.03 138.44 45.04 141.91 C 46.38 147.74 55.16 142.79 56.47 148.67 C 57.75 153.18 51.56 154.32 50.54 157.97 C 50.49 161.55 53.89 166.37 49.92 168.97 C 45.11 172.12 41.31 163.00 36.69 166.79 C 34.24 168.21 31.20 171.09 28.38 168.74 C 23.55 165.40 30.78 159.11 26.47 155.57 C 24.32 153.65 20.88 151.68 22.21 148.22 C 23.56 144.14 28.60 146.00 31.62 144.55 C 34.76 142.33 33.79 137.09 37.25 135.19 Z" />
</g>
</svg>
