<?xml version="1.0" encoding="UTF-8" ?>
<!DOCTYPE svg PUBLIC "-//W3C//DTD SVG 1.1//EN" "http://www.w3.org/Graphics/SVG/1.1/DTD/svg11.dtd">
<svg width="192pt" height="192pt" viewBox="0 0 192 192" version="1.1" xmlns="http://www.w3.org/2000/svg">
<g id="#ff8a1fff">
<path fill="#ff8a1f" opacity="1.00" d=" M 47.23 24.23 C 54.44 17.09 65.94 16.07 75.01 20.02 C 84.76 24.08 91.40 32.98 95.95 42.19 C 101.68 29.88 112.55 18.11 127.03 17.75 C 140.38 16.60 152.81 28.71 152.09 42.07 C 151.89 46.05 146.90 48.67 143.57 46.37 C 139.56 43.92 141.70 38.34 139.04 34.97 C 135.13 28.11 125.57 27.63 119.31 31.32 C 111.03 36.09 106.51 45.12 103.40 53.80 C 124.95 53.97 146.51 53.78 168.06 53.89 C 171.35 53.63 174.11 56.71 173.84 59.91 C 173.76 72.24 174.09 84.58 173.68 96.89 C 172.09 103.24 164.18 100.82 159.42 101.25 C 159.41 123.51 159.49 145.78 159.39 168.04 C 159.48 171.41 156.21 173.92 152.99 173.55 C 115.00 173.55 77.00 173.54 39.01 173.54 C 35.77 173.93 32.43 171.42 32.56 168.01 C 32.54 152.01 32.38 136.00 32.64 120.00 C 33.11 114.23 42.26 113.77 43.48 119.36 C 43.99 133.63 43.50 147.95 43.72 162.24 C 59.22 162.31 74.73 162.22 90.24 162.28 C 90.47 141.94 90.28 121.60 90.34 101.26 C 68.21 101.21 46.08 101.29 23.95 101.23 C 20.62 101.44 17.71 98.41 18.07 95.09 C 18.04 83.37 18.03 71.64 18.07 59.91 C 17.82 57.04 20.02 54.11 22.98 53.97 C 29.73 53.70 36.49 53.96 43.24 53.86 C 37.63 44.55 39.09 31.60 47.23 24.23 M 52.54 35.49 C 48.23 42.77 53.64 53.16 62.08 53.74 C 70.88 54.03 79.70 53.81 88.51 53.84 C 85.26 44.75 80.35 35.16 71.31 30.70 C 65.00 27.56 55.92 28.66 52.54 35.49 M 29.30 65.12 C 29.32 73.39 29.33 81.66 29.29 89.94 C 49.63 90.10 69.98 89.98 90.33 89.98 C 90.35 81.70 90.36 73.41 90.32 65.13 C 69.98 65.11 49.64 65.13 29.30 65.12 M 101.58 65.13 C 101.59 73.40 101.58 81.67 101.59 89.94 C 121.94 90.06 142.29 90.00 162.64 89.96 C 162.61 81.69 162.65 73.41 162.60 65.13 C 142.26 65.12 121.92 65.12 101.58 65.13 M 101.61 101.23 C 101.57 121.56 101.58 141.89 101.61 162.22 C 117.12 162.28 132.62 162.26 148.12 162.22 C 148.18 141.90 148.17 121.58 148.14 101.26 C 132.63 101.22 117.12 101.29 101.61 101.23 Z" />
</g>
</svg>
