<?xml version="1.0" encoding="UTF-8" ?>
<!DOCTYPE svg PUBLIC "-//W3C//DTD SVG 1.1//EN" "http://www.w3.org/Graphics/SVG/1.1/DTD/svg11.dtd">
<svg width="192pt" height="192pt" viewBox="0 0 192 192" version="1.1" xmlns="http://www.w3.org/2000/svg">
<g id="#ff8a1fff">
<path fill="#ff8a1f" opacity="1.00" d=" M 65.90 16.00 C 66.67 10.60 75.12 10.03 76.66 15.25 C 77.52 21.97 76.80 28.79 77.05 35.55 C 81.27 35.54 85.50 35.52 89.72 35.54 C 89.90 31.99 88.75 27.49 91.82 24.87 C 94.55 22.30 99.59 23.68 100.71 27.22 C 101.27 29.96 101.15 32.78 101.13 35.56 C 112.14 34.41 124.10 37.81 130.90 47.01 C 139.36 57.45 139.05 73.37 130.77 83.83 C 150.62 86.60 165.42 107.76 160.31 127.34 C 157.14 141.92 143.91 153.58 129.03 154.80 C 119.75 155.46 110.43 154.99 101.13 155.10 C 101.12 157.94 101.37 160.89 100.56 163.66 C 99.04 167.69 92.75 168.13 90.63 164.41 C 89.13 161.59 89.81 158.18 89.71 155.11 C 85.50 155.15 81.29 155.12 77.08 155.09 C 76.83 161.69 77.43 168.33 76.74 174.91 C 75.65 180.24 67.08 180.25 65.91 174.95 C 65.29 168.36 65.82 161.72 65.66 155.11 C 55.14 154.91 44.57 155.55 34.08 154.80 C 28.76 154.02 28.05 145.78 33.14 144.07 C 39.88 143.00 46.80 143.87 53.61 143.60 C 53.74 116.41 53.34 89.19 53.81 62.01 C 54.47 55.41 65.32 56.31 64.94 62.94 C 65.18 89.82 64.95 116.72 65.05 143.61 C 85.39 143.54 105.73 143.68 126.07 143.54 C 138.50 143.46 149.68 132.55 149.79 120.06 C 150.50 107.81 140.34 96.06 128.07 95.19 C 113.04 94.82 97.98 95.53 82.96 94.86 C 76.71 94.90 75.90 84.87 82.02 83.81 C 91.17 83.00 100.40 83.98 109.56 83.35 C 118.17 82.46 125.56 74.75 125.73 66.03 C 126.17 58.84 121.83 51.71 115.32 48.69 C 109.93 46.10 103.78 46.94 98.01 46.82 C 76.71 46.69 55.40 47.05 34.12 46.64 C 28.30 46.00 28.21 36.51 34.02 35.74 C 44.55 35.25 55.12 35.68 65.67 35.54 C 65.82 29.03 65.34 22.49 65.90 16.00 Z" />
</g>
</svg>
