<?xml version="1.0" encoding="UTF-8" ?>
<!DOCTYPE svg PUBLIC "-//W3C//DTD SVG 1.1//EN" "http://www.w3.org/Graphics/SVG/1.1/DTD/svg11.dtd">
<svg width="192pt" height="192pt" viewBox="0 0 192 192" version="1.1" xmlns="http://www.w3.org/2000/svg">
<g id="#19afffff">
<path fill="#19afff" opacity="1.00" d=" M 82.28 19.25 C 84.17 14.46 91.80 14.74 93.42 19.60 C 94.24 23.62 93.64 27.78 93.81 31.86 C 105.28 31.45 116.87 37.29 122.48 47.45 C 129.18 58.69 127.23 73.84 118.40 83.38 C 130.74 88.75 140.44 100.18 142.39 113.66 C 145.38 130.74 135.15 148.80 119.10 155.23 C 111.23 158.83 102.42 158.37 93.99 158.29 C 93.36 163.86 96.22 173.71 88.02 174.54 C 79.53 174.25 81.97 163.96 81.65 158.30 C 72.42 158.20 63.18 158.53 53.97 158.15 C 48.70 157.38 47.27 149.50 51.98 146.97 C 56.14 145.15 60.91 146.40 65.32 146.02 C 65.35 112.07 65.39 78.12 65.34 44.17 C 60.87 43.83 56.00 45.11 51.81 43.14 C 47.30 40.50 48.81 32.75 54.05 32.18 C 63.26 31.83 72.50 32.22 81.72 31.98 C 81.94 27.76 81.09 23.36 82.28 19.25 M 77.48 44.18 C 77.53 56.39 77.53 68.60 77.49 80.81 C 84.02 80.87 90.56 80.95 97.09 80.81 C 106.31 80.51 114.28 72.20 114.32 63.00 C 114.75 53.81 107.21 45.08 98.02 44.33 C 91.18 44.00 84.33 44.27 77.48 44.18 M 77.49 93.14 C 77.55 110.73 77.56 128.31 77.50 145.90 C 87.67 146.00 97.88 146.26 108.04 145.76 C 123.62 143.90 134.63 126.45 129.40 111.60 C 126.22 101.17 116.02 93.28 105.07 93.16 C 95.88 93.06 86.68 93.11 77.49 93.14 Z" />
</g>
</svg>
