<?xml version="1.0" encoding="UTF-8" ?>
<!DOCTYPE svg PUBLIC "-//W3C//DTD SVG 1.1//EN" "http://www.w3.org/Graphics/SVG/1.1/DTD/svg11.dtd">
<svg width="192pt" height="192pt" viewBox="0 0 192 192" version="1.1" xmlns="http://www.w3.org/2000/svg">
<g id="#ff3661ff">
<path fill="#ff3661" opacity="1.00" d=" M 27.65 27.33 C 21.45 24.04 23.50 12.66 30.96 12.88 C 53.63 12.69 76.32 12.86 99.00 12.80 C 110.73 12.74 122.87 13.29 133.70 18.29 C 148.17 24.66 159.50 39.79 158.10 56.05 C 156.58 70.63 146.40 82.51 135.46 91.45 C 132.94 93.43 129.75 96.42 126.32 94.67 C 122.24 93.07 121.82 86.85 125.67 84.72 C 136.41 76.47 148.19 64.83 146.72 50.11 C 144.06 34.34 127.71 25.23 112.81 24.52 C 89.11 23.64 65.38 24.39 41.67 24.11 C 47.18 28.71 53.41 34.09 53.18 41.99 C 53.55 81.62 53.12 121.27 53.28 160.90 C 52.82 163.12 55.38 163.33 56.96 163.28 C 72.62 163.19 88.30 163.40 103.97 163.15 C 117.63 162.87 132.23 160.10 142.76 150.76 C 154.58 140.43 156.67 121.15 147.69 108.36 C 146.23 106.00 143.63 103.63 144.50 100.58 C 145.27 96.39 151.19 94.74 153.99 97.98 C 168.17 113.77 168.01 140.03 153.76 155.73 C 142.05 168.80 123.95 173.70 106.96 174.36 C 89.65 174.74 72.32 174.50 55.01 174.52 C 48.27 174.63 42.16 168.78 41.97 162.05 C 41.90 123.37 42.06 84.68 41.99 45.99 C 43.44 36.66 33.17 32.79 27.65 27.33 Z" />
<path fill="#ff3661" opacity="1.00" d=" M 74.29 37.34 C 85.62 36.25 97.25 36.45 108.63 37.44 C 118.51 38.21 127.69 45.22 129.97 55.04 C 133.30 66.22 126.17 78.58 115.36 82.33 C 104.00 86.27 91.74 84.15 79.97 84.74 C 75.50 85.38 70.16 83.00 69.72 78.02 C 69.31 67.37 69.72 56.67 69.56 46.00 C 69.33 42.54 70.77 38.57 74.29 37.34 M 80.84 48.15 C 80.83 56.57 80.86 65.00 80.79 73.42 C 89.20 73.36 97.64 73.83 106.02 73.05 C 111.27 72.62 116.79 69.87 118.73 64.70 C 121.36 58.19 116.67 50.29 109.84 49.10 C 100.29 47.33 90.50 48.42 80.84 48.15 Z" />
<path fill="#ff3661" opacity="1.00" d=" M 75.42 97.66 C 86.92 97.31 98.50 97.04 109.99 97.91 C 118.39 98.52 127.32 101.47 132.45 108.55 C 140.84 120.36 137.09 139.31 123.77 145.89 C 109.90 152.81 93.91 149.91 79.00 150.57 C 74.80 151.13 69.93 148.66 69.72 144.02 C 69.37 131.35 69.65 118.67 69.58 106.00 C 69.27 102.28 71.48 98.20 75.42 97.66 M 80.87 108.73 C 80.72 118.91 80.81 129.10 80.82 139.29 C 92.76 138.90 105.21 140.79 116.71 136.75 C 124.92 133.99 127.81 123.34 123.87 116.11 C 121.40 111.90 116.43 110.11 111.83 109.47 C 101.57 108.14 91.19 108.73 80.87 108.73 Z" />
</g>
</svg>
