<?xml version="1.0" encoding="UTF-8" ?>
<!DOCTYPE svg PUBLIC "-//W3C//DTD SVG 1.1//EN" "http://www.w3.org/Graphics/SVG/1.1/DTD/svg11.dtd">
<svg width="192pt" height="192pt" viewBox="0 0 192 192" version="1.1" xmlns="http://www.w3.org/2000/svg">
<g id="#46e371ff">
<path fill="#46e371" opacity="1.00" d=" M 40.28 21.31 C 70.44 19.97 100.77 21.11 131.00 20.73 C 138.23 20.98 145.55 20.13 152.72 21.33 C 162.95 23.61 170.92 33.41 170.82 43.94 C 170.88 77.98 170.87 112.02 170.83 146.05 C 171.16 158.34 160.35 169.47 148.06 169.52 C 113.69 169.59 79.31 169.57 44.94 169.52 C 32.61 169.51 21.78 158.37 22.06 146.04 C 22.03 112.01 22.01 77.97 22.08 43.94 C 21.97 33.37 30.00 23.54 40.28 21.31 M 42.28 32.35 C 37.22 33.75 33.19 38.59 33.30 43.92 C 33.24 77.97 33.27 112.02 33.29 146.07 C 33.04 152.82 39.28 158.77 46.01 158.33 C 79.67 158.33 113.33 158.33 147.00 158.31 C 153.69 158.69 159.80 152.77 159.65 146.08 C 159.70 112.03 159.73 77.97 159.63 43.92 C 159.72 36.87 152.87 31.25 146.01 31.82 C 111.45 32.19 76.77 31.11 42.28 32.35 Z" />
<path fill="#46e371" opacity="1.00" d=" M 111.28 60.30 C 118.99 57.07 126.84 65.46 125.86 73.03 C 126.21 80.09 118.69 87.91 111.53 84.54 C 102.07 80.28 102.01 64.77 111.28 60.30 Z" />
<path fill="#46e371" opacity="1.00" d=" M 65.88 79.37 C 65.55 72.52 70.25 64.18 78.01 64.99 C 84.17 66.77 87.78 73.41 87.81 79.57 C 80.77 76.96 72.94 76.57 65.88 79.37 Z" />
<path fill="#46e371" opacity="1.00" d=" M 65.34 97.37 C 84.45 96.04 103.82 97.17 123.03 96.80 C 126.63 96.35 130.43 99.17 130.19 102.97 C 128.92 121.61 110.86 137.27 92.05 134.46 C 76.09 133.00 62.99 118.78 61.87 102.98 C 61.71 100.62 63.21 98.33 65.34 97.37 Z" />
</g>
</svg>
