<?xml version="1.0" encoding="UTF-8" ?>
<!DOCTYPE svg PUBLIC "-//W3C//DTD SVG 1.1//EN" "http://www.w3.org/Graphics/SVG/1.1/DTD/svg11.dtd">
<svg width="192pt" height="192pt" viewBox="0 0 192 192" version="1.1" xmlns="http://www.w3.org/2000/svg">
<g id="#c774fcff">
<path fill="#c774fc" opacity="1.00" d=" M 50.72 26.71 C 70.37 13.44 95.94 9.54 118.67 16.27 C 142.95 23.20 163.35 42.09 172.33 65.66 C 178.58 81.86 179.59 100.11 174.89 116.84 C 173.78 121.11 169.21 123.43 165.03 123.11 C 140.68 123.06 116.33 123.17 91.98 123.06 C 83.20 123.16 74.50 118.69 69.74 111.26 C 63.14 101.37 64.40 87.17 72.55 78.53 C 80.70 69.32 95.68 67.17 105.91 74.10 C 109.26 76.45 108.00 82.33 104.15 83.40 C 100.19 84.44 96.88 81.02 93.03 80.78 C 84.58 80.02 76.36 87.44 76.45 95.99 C 76.13 104.42 83.37 112.61 92.02 112.32 C 114.68 112.35 137.34 112.28 160.01 112.34 C 161.66 112.26 163.98 112.56 164.76 110.66 C 173.49 76.46 151.75 38.28 118.13 27.85 C 87.09 16.92 49.96 31.43 34.37 60.35 C 17.06 89.79 25.31 130.85 52.66 151.31 C 78.06 171.91 117.67 170.72 142.01 148.98 C 145.44 145.55 149.91 142.50 151.43 137.70 C 130.93 137.57 110.43 137.76 89.94 137.60 C 72.08 137.22 55.63 123.45 51.97 105.99 C 49.03 93.16 52.34 79.01 61.21 69.20 C 70.76 57.73 87.27 52.39 101.67 56.35 C 107.63 58.48 103.99 68.15 98.08 66.35 C 81.96 62.68 64.53 74.58 62.20 90.95 C 58.68 108.05 72.48 126.22 89.99 127.07 C 113.67 127.41 137.36 127.13 161.04 127.29 C 165.26 127.15 168.63 132.00 166.96 135.89 C 150.98 165.52 115.08 182.51 82.00 176.22 C 48.18 170.80 19.98 141.92 15.08 108.06 C 9.80 77.02 24.34 43.87 50.72 26.71 Z" />
<path fill="#c774fc" opacity="1.00" d=" M 84.34 40.42 C 88.05 40.20 92.98 38.79 95.46 42.50 C 98.15 46.14 94.41 51.50 90.08 50.79 C 69.19 50.81 50.05 67.34 46.61 87.87 C 42.64 107.54 53.57 128.62 71.41 137.49 C 74.40 138.12 73.20 142.50 70.39 141.48 C 59.86 137.91 50.26 131.41 42.86 123.11 C 35.15 114.37 34.78 101.94 35.29 90.91 C 37.19 65.35 58.86 43.13 84.34 40.42 Z" />
</g>
</svg>
