<?xml version="1.0" encoding="UTF-8" ?>
<!DOCTYPE svg PUBLIC "-//W3C//DTD SVG 1.1//EN" "http://www.w3.org/Graphics/SVG/1.1/DTD/svg11.dtd">
<svg width="192pt" height="192pt" viewBox="0 0 192 192" version="1.1" xmlns="http://www.w3.org/2000/svg">
<g id="#728ec9ff">
<path fill="#728ec9" opacity="1.00" d=" M 90.77 15.67 C 94.05 8.29 101.09 15.21 105.59 17.42 C 109.60 18.60 109.72 24.47 105.65 25.65 C 101.21 27.93 93.65 34.88 90.82 27.12 C 64.01 28.16 39.30 47.00 29.99 71.99 C 20.75 95.52 25.41 123.82 41.90 143.02 C 55.46 159.39 76.71 169.01 97.97 168.25 C 125.32 167.77 151.05 149.57 161.27 124.31 C 169.12 105.74 168.21 83.87 159.22 65.86 C 156.11 60.04 165.27 54.83 168.80 60.20 C 178.44 78.28 180.25 100.18 174.81 119.85 C 167.77 145.46 147.39 166.92 122.16 175.25 C 99.83 182.88 74.23 180.20 54.04 167.94 C 30.72 154.13 15.15 128.16 14.30 101.04 C 13.34 81.39 19.80 61.48 32.21 46.20 C 46.33 28.40 68.12 17.13 90.77 15.67 Z" />
<path fill="#728ec9" opacity="1.00" d=" M 165.65 19.65 C 170.85 15.23 178.15 23.53 173.19 28.16 C 149.11 52.74 124.75 77.04 100.55 101.50 C 98.37 104.32 93.88 103.95 91.68 101.34 C 79.24 88.76 66.69 76.28 54.37 63.58 C 50.03 59.09 56.59 51.53 61.70 55.12 C 73.42 66.39 84.64 78.20 96.25 89.60 C 119.45 66.36 142.37 42.82 165.65 19.65 Z" />
</g>
</svg>
