<?xml version="1.0" encoding="UTF-8" ?>
<!DOCTYPE svg PUBLIC "-//W3C//DTD SVG 1.1//EN" "http://www.w3.org/Graphics/SVG/1.1/DTD/svg11.dtd">
<svg width="192pt" height="192pt" viewBox="0 0 192 192" version="1.1" xmlns="http://www.w3.org/2000/svg">
<g id="#8292a3ff">
<path fill="#8292a3" opacity="1.00" d=" M 24.13 23.94 C 24.14 19.99 29.07 17.60 32.30 19.80 C 76.44 43.26 120.56 66.80 164.66 90.34 C 168.98 92.09 168.68 98.77 164.38 100.34 C 120.45 123.76 76.53 147.19 32.59 170.58 C 29.16 173.13 23.85 170.33 24.10 166.07 C 23.92 148.04 24.11 130.01 24.00 111.99 C 24.04 109.63 23.85 106.62 26.18 105.20 C 31.99 101.64 38.26 98.87 44.09 95.33 C 38.23 92.03 32.08 89.21 26.35 85.68 C 24.03 84.31 23.95 81.41 24.00 79.03 C 24.14 60.67 23.87 42.30 24.13 23.94 M 34.98 37.99 C 34.52 48.97 34.97 60.00 34.77 71.00 C 34.80 73.94 34.33 77.84 37.45 79.44 C 44.27 83.42 51.44 86.80 58.28 90.75 C 61.73 92.39 62.05 97.86 58.72 99.78 C 51.76 103.91 44.39 107.33 37.39 111.40 C 34.51 112.76 34.82 116.33 34.77 119.00 C 34.90 130.02 34.66 141.04 34.88 152.06 C 34.81 154.89 38.33 155.83 40.30 154.23 C 75.53 135.44 110.80 116.72 145.98 97.86 C 148.57 96.89 148.12 93.15 145.60 92.42 C 133.99 86.37 122.64 79.75 110.78 74.18 C 108.16 81.56 110.80 89.72 109.32 97.34 C 107.56 102.23 99.48 101.30 99.10 96.07 C 98.59 86.46 99.33 76.83 98.70 67.23 C 97.55 67.20 96.41 67.19 95.26 67.18 C 94.67 77.03 95.65 86.96 94.74 96.78 C 93.64 101.87 85.49 101.77 84.46 96.67 C 83.78 84.48 84.62 72.21 84.07 60.01 C 82.82 58.16 80.53 58.07 78.55 58.37 C 78.31 70.91 78.71 83.47 78.36 96.01 C 77.98 102.03 68.14 102.01 67.77 96.00 C 67.35 81.39 67.87 66.74 67.53 52.12 C 67.69 50.43 65.82 50.00 64.72 49.25 C 56.42 44.91 48.19 40.42 39.89 36.08 C 38.10 34.80 35.04 35.43 34.98 37.99 Z" />
</g>
</svg>
