<?xml version="1.0" encoding="UTF-8" ?>
<!DOCTYPE svg PUBLIC "-//W3C//DTD SVG 1.1//EN" "http://www.w3.org/Graphics/SVG/1.1/DTD/svg11.dtd">
<svg width="192pt" height="192pt" viewBox="0 0 192 192" version="1.1" xmlns="http://www.w3.org/2000/svg">
<g id="#606f80ff">
<path fill="#606f80" opacity="1.00" d=" M 40.27 21.31 C 70.44 19.97 100.77 21.11 131.00 20.73 C 137.66 20.89 144.36 20.38 151.01 21.02 C 162.01 22.51 170.96 32.83 170.83 43.95 C 170.89 77.98 170.89 112.02 170.85 146.05 C 171.23 158.37 160.35 169.51 148.06 169.55 C 113.69 169.61 79.32 169.59 44.95 169.55 C 32.60 169.55 21.76 158.38 22.06 146.04 C 22.03 112.01 22.02 77.97 22.08 43.94 C 21.97 33.38 30.00 23.55 40.27 21.31 M 42.29 32.41 C 37.27 33.76 33.18 38.62 33.32 43.93 C 33.28 77.97 33.30 112.02 33.31 146.06 C 33.05 152.80 39.29 158.77 46.00 158.33 C 79.67 158.32 113.33 158.33 146.99 158.31 C 153.69 158.71 159.81 152.76 159.64 146.07 C 159.72 112.36 159.66 78.64 159.67 44.93 C 160.16 38.08 154.01 31.45 147.02 32.14 C 112.11 32.72 77.14 30.88 42.29 32.41 Z" />
<path fill="#606f80" opacity="1.00" d=" M 73.17 64.94 C 73.02 62.98 73.57 60.17 76.09 60.29 C 84.73 60.06 93.37 60.27 102.01 60.20 C 107.96 60.28 114.91 61.16 118.78 66.24 C 122.83 71.61 121.66 78.74 121.67 85.01 C 121.72 89.26 119.03 93.10 115.06 94.59 C 119.14 96.20 122.49 99.76 122.59 104.34 C 122.66 110.85 123.95 118.24 119.93 123.91 C 116.05 129.12 109.02 129.88 103.02 130.16 C 94.33 130.15 85.63 130.28 76.95 130.11 C 74.64 130.26 72.85 128.32 73.20 126.04 C 73.12 105.68 73.19 85.30 73.17 64.94 M 87.50 72.36 C 87.50 77.90 87.54 83.44 87.46 88.98 C 92.31 89.27 97.18 89.37 102.03 89.05 C 109.05 88.55 108.61 78.45 105.88 74.08 C 100.55 70.61 93.52 73.10 87.50 72.36 M 87.51 100.36 C 87.51 106.19 87.53 112.02 87.48 117.85 C 93.97 117.13 102.15 120.19 107.47 115.49 C 108.85 110.97 110.21 102.81 104.51 100.73 C 98.89 99.92 93.17 100.55 87.51 100.36 Z" />
</g>
</svg>
