<?xml version="1.0" encoding="UTF-8" ?>
<!DOCTYPE svg PUBLIC "-//W3C//DTD SVG 1.1//EN" "http://www.w3.org/Graphics/SVG/1.1/DTD/svg11.dtd">
<svg width="192pt" height="192pt" viewBox="0 0 192 192" version="1.1" xmlns="http://www.w3.org/2000/svg">
<g id="#3ba8e3ff">
<path fill="#3ba8e3" opacity="1.00" d=" M 37.47 21.59 C 74.30 21.35 111.18 20.68 148.04 20.76 C 154.59 19.70 156.28 30.78 149.88 31.58 C 113.26 31.87 76.61 31.56 39.98 31.60 C 34.70 32.07 33.40 23.88 37.47 21.59 Z" />
<path fill="#3ba8e3" opacity="1.00" d=" M 21.33 40.40 C 23.14 39.72 25.10 39.64 27.01 39.59 C 72.33 39.64 117.66 39.54 162.98 39.61 C 170.57 39.42 177.23 46.38 176.88 53.94 C 176.91 83.98 176.96 114.02 176.88 144.06 C 177.03 156.15 166.15 166.86 154.07 166.57 C 114.04 166.58 74.02 166.61 34.00 166.52 C 22.23 166.40 11.92 155.82 12.06 144.06 C 11.98 114.02 12.05 83.98 12.06 53.94 C 11.82 48.02 15.75 42.32 21.33 40.40 M 24.38 51.47 C 23.04 51.94 23.65 53.85 23.36 54.93 C 23.39 84.62 23.34 114.32 23.40 144.01 C 23.31 150.13 28.90 155.46 34.99 155.22 C 74.66 155.24 114.34 155.23 154.01 155.17 C 160.44 155.42 165.97 149.42 165.53 143.06 C 165.50 113.36 165.62 83.65 165.48 53.96 C 165.78 51.94 163.91 50.73 162.08 50.90 C 118.72 50.81 75.36 50.88 32.00 50.81 C 29.47 50.91 26.76 50.39 24.38 51.47 Z" />
<path fill="#3ba8e3" opacity="1.00" d=" M 133.38 68.40 C 137.66 67.16 142.11 71.96 140.28 76.10 C 138.67 80.26 132.27 80.81 129.90 77.08 C 127.64 73.97 129.59 69.05 133.38 68.40 Z" />
<path fill="#3ba8e3" opacity="1.00" d=" M 51.40 69.45 C 57.85 65.05 64.18 76.19 57.13 79.29 C 50.95 82.53 45.01 72.96 51.40 69.45 Z" />
<path fill="#3ba8e3" opacity="1.00" d=" M 51.41 93.39 C 55.75 90.46 61.01 94.87 60.49 99.63 C 61.14 117.16 77.66 131.79 95.04 130.96 C 108.19 130.63 121.50 122.94 126.35 110.36 C 128.57 105.71 128.12 100.39 129.70 95.59 C 131.79 90.83 139.82 91.86 140.55 97.05 C 142.04 115.48 128.98 132.74 112.17 139.22 C 98.82 144.27 83.06 143.62 70.66 136.28 C 58.42 129.19 50.21 115.93 48.67 101.94 C 48.32 98.91 48.39 95.10 51.41 93.39 Z" />
</g>
</svg>
