<?xml version="1.0" encoding="UTF-8" ?>
<!DOCTYPE svg PUBLIC "-//W3C//DTD SVG 1.1//EN" "http://www.w3.org/Graphics/SVG/1.1/DTD/svg11.dtd">
<svg width="192pt" height="192pt" viewBox="0 0 192 192" version="1.1" xmlns="http://www.w3.org/2000/svg">
<g id="#19b0ffff">
<path fill="#19b0ff" opacity="1.00" d=" M 38.31 22.39 C 41.82 21.58 45.43 21.74 49.00 21.73 C 81.32 21.77 113.65 21.68 145.98 21.76 C 157.98 21.64 168.81 31.99 169.22 43.99 C 169.28 52.33 169.39 60.70 169.17 69.04 C 168.45 74.60 159.77 75.13 158.34 69.74 C 157.43 60.91 158.51 51.94 157.83 43.07 C 156.89 37.07 151.03 32.63 145.03 32.92 C 111.34 32.85 77.64 32.82 43.96 32.88 C 37.99 32.76 32.20 37.35 31.45 43.36 C 30.13 49.30 34.63 60.41 26.00 61.81 C 18.58 61.92 20.18 52.92 20.15 48.01 C 18.89 36.48 26.89 24.81 38.31 22.39 Z" />
<path fill="#19b0ff" opacity="1.00" d=" M 20.45 70.36 C 21.09 65.13 29.02 64.17 31.23 68.73 C 32.11 73.15 31.32 77.73 31.73 82.20 C 40.84 79.39 52.13 79.46 59.06 86.93 C 66.83 96.02 66.76 110.92 58.98 120.01 C 52.86 126.96 42.22 128.23 33.81 125.27 C 25.25 122.15 20.24 112.90 20.29 104.07 C 20.34 92.84 20.03 81.58 20.45 70.36 M 41.40 90.48 C 28.42 92.83 28.82 117.17 42.96 116.85 C 57.47 115.90 55.77 89.68 41.40 90.48 Z" />
<path fill="#19b0ff" opacity="1.00" d=" M 74.39 66.44 C 77.73 64.60 83.27 66.64 83.05 70.96 C 83.24 87.65 83.25 104.36 83.05 121.06 C 83.43 127.92 70.92 127.87 71.42 121.00 C 71.25 104.98 71.40 88.96 71.36 72.94 C 71.27 70.47 72.03 67.65 74.39 66.44 Z" />
<path fill="#19b0ff" opacity="1.00" d=" M 90.40 66.38 C 93.15 65.15 95.60 68.00 98.01 68.99 C 100.49 70.86 105.58 71.93 104.32 76.01 C 100.69 79.08 96.40 81.56 91.97 83.26 C 88.10 82.56 89.50 77.75 89.22 74.99 C 89.56 72.19 88.37 68.67 90.40 66.38 Z" />
<path fill="#19b0ff" opacity="1.00" d=" M 107.50 92.37 C 109.94 78.88 129.71 76.33 138.26 85.55 C 146.89 77.37 164.34 78.13 169.03 90.08 C 171.10 100.22 169.79 110.75 169.99 121.04 C 170.32 127.51 159.07 127.98 158.38 121.86 C 157.67 113.02 158.93 104.05 157.72 95.26 C 155.99 88.87 146.21 89.88 145.01 96.11 C 144.12 104.62 144.98 113.28 144.50 121.84 C 143.96 127.69 133.04 127.81 132.58 121.80 C 132.06 113.22 132.98 104.57 132.11 96.02 C 130.96 89.88 121.14 89.20 119.45 95.33 C 117.97 104.08 119.37 113.06 118.67 121.88 C 118.06 128.00 106.75 127.48 107.17 121.03 C 107.21 111.49 106.72 101.89 107.50 92.37 Z" />
<path fill="#19b0ff" opacity="1.00" d=" M 92.23 87.29 C 95.31 86.06 100.63 87.06 100.80 91.06 C 101.12 101.05 101.29 111.06 100.96 121.04 C 101.44 127.49 89.87 128.06 89.38 121.88 C 89.02 112.58 89.34 103.26 89.22 93.95 C 89.17 91.48 89.27 88.01 92.23 87.29 Z" />
<path fill="#19b0ff" opacity="1.00" d=" M 23.31 134.30 C 26.36 132.73 30.40 134.74 31.13 138.06 C 31.66 141.89 30.99 145.79 31.54 149.62 C 32.58 155.35 38.11 159.79 43.94 159.57 C 77.64 159.60 111.35 159.57 145.05 159.56 C 150.34 159.80 155.60 156.42 157.28 151.35 C 159.16 146.40 156.69 140.75 158.90 135.94 C 161.32 131.65 168.62 133.10 169.15 138.00 C 169.31 144.13 169.95 150.61 167.40 156.38 C 163.89 164.80 155.17 170.85 145.98 170.74 C 111.66 170.74 77.34 170.74 43.02 170.70 C 33.63 170.66 24.79 164.22 21.61 155.43 C 19.66 150.50 20.16 145.10 20.14 139.92 C 19.97 137.62 21.15 135.24 23.31 134.30 Z" />
</g>
</svg>
