<?xml version="1.0" encoding="UTF-8" ?>
<!DOCTYPE svg PUBLIC "-//W3C//DTD SVG 1.1//EN" "http://www.w3.org/Graphics/SVG/1.1/DTD/svg11.dtd">
<svg width="192pt" height="192pt" viewBox="0 0 192 192" version="1.1" xmlns="http://www.w3.org/2000/svg">
<g id="#ff3661ff">
<path fill="#ff3661" opacity="1.00" d=" M 36.09 21.92 C 35.78 17.92 38.75 13.84 42.96 13.85 C 54.64 13.62 66.35 13.72 78.03 13.80 C 82.52 13.49 86.27 17.50 85.84 21.93 C 85.72 33.53 86.12 45.16 85.62 56.73 C 84.56 62.47 75.05 61.90 74.77 56.01 C 74.38 45.67 74.82 35.31 74.64 24.96 C 65.54 24.81 56.43 24.83 47.33 24.94 C 47.30 72.04 47.34 119.13 47.31 166.23 C 61.54 166.29 75.76 166.25 89.99 166.25 C 102.30 166.18 115.30 164.70 125.81 157.77 C 133.22 152.98 138.38 145.26 140.91 136.89 C 146.32 120.03 145.65 101.04 138.03 84.97 C 131.66 72.03 117.45 64.95 103.57 63.61 C 100.41 63.09 96.27 63.75 94.28 60.63 C 91.98 57.52 94.07 52.47 97.93 52.05 C 117.55 51.95 138.59 61.11 147.77 79.28 C 158.55 101.30 158.36 128.48 147.42 150.40 C 138.47 167.76 118.68 176.08 99.99 177.15 C 81.35 177.95 62.66 177.42 44.00 177.48 C 39.37 177.84 35.65 173.60 36.08 169.09 C 36.01 120.03 36.03 70.97 36.09 21.92 Z" />
<path fill="#ff3661" opacity="1.00" d=" M 77.29 85.38 C 83.20 84.84 89.17 85.16 95.09 85.24 C 108.30 85.77 120.18 96.20 122.65 109.14 C 125.52 122.00 118.62 136.16 106.77 141.89 C 98.20 146.46 88.21 144.93 78.91 145.07 C 75.64 145.26 72.89 142.28 73.14 139.06 C 73.07 123.35 73.14 107.64 73.11 91.93 C 72.81 89.12 74.36 86.00 77.29 85.38 M 84.38 96.41 C 84.36 108.88 84.39 121.35 84.36 133.82 C 89.95 133.73 95.89 134.61 101.11 132.12 C 108.00 129.04 112.55 121.47 111.97 113.93 C 111.55 105.31 104.39 97.58 95.80 96.60 C 92.00 96.25 88.19 96.48 84.38 96.41 Z" />
</g>
</svg>
