<?xml version="1.0" encoding="UTF-8" ?>
<!DOCTYPE svg PUBLIC "-//W3C//DTD SVG 1.1//EN" "http://www.w3.org/Graphics/SVG/1.1/DTD/svg11.dtd">
<svg width="192pt" height="192pt" viewBox="0 0 192 192" version="1.1" xmlns="http://www.w3.org/2000/svg">
<g id="#90928bff">
<path fill="#90928b" opacity="1.00" d=" M 22.36 41.12 C 23.56 30.00 33.84 20.86 45.00 20.80 C 79.33 20.75 113.66 20.74 147.99 20.80 C 160.58 20.80 171.41 32.43 170.83 44.96 C 171.42 74.63 170.93 104.32 171.09 134.00 C 170.91 141.72 172.06 150.04 168.15 157.08 C 164.20 164.79 155.69 169.77 147.05 169.61 C 113.02 169.61 78.98 169.64 44.94 169.56 C 32.57 169.56 21.75 158.38 22.00 146.03 C 22.05 122.00 21.85 97.96 22.10 73.94 C 22.42 67.49 32.88 67.53 33.14 74.00 C 33.53 98.32 33.11 122.68 33.35 147.02 C 33.64 153.37 39.66 158.72 46.01 158.28 C 79.67 158.26 113.33 158.26 146.98 158.24 C 153.66 158.70 159.74 152.72 159.61 146.08 C 159.69 116.44 159.66 86.79 159.63 57.14 C 113.79 57.23 67.95 56.51 22.10 56.77 C 22.14 51.56 21.93 46.32 22.36 41.12 M 33.10 46.30 C 75.35 46.51 117.65 46.59 159.89 46.09 C 160.56 38.73 154.58 31.58 147.03 31.77 C 113.34 31.73 79.66 31.73 45.98 31.75 C 38.29 31.48 32.13 38.79 33.10 46.30 Z" />
<path fill="#90928b" opacity="1.00" d=" M 44.21 79.21 C 57.64 79.28 71.08 79.21 84.52 79.24 C 84.53 84.01 84.54 88.78 84.55 93.56 C 71.11 93.55 57.67 93.55 44.23 93.55 C 44.21 88.77 44.23 83.99 44.21 79.21 Z" />
<path fill="#90928b" opacity="1.00" d=" M 105.09 79.19 C 118.48 79.26 131.88 79.21 145.27 79.21 C 145.41 83.94 145.30 88.67 145.44 93.39 C 132.01 93.80 118.57 93.43 105.13 93.57 C 105.08 88.78 105.11 83.98 105.09 79.19 Z" />
<path fill="#90928b" opacity="1.00" d=" M 63.14 99.26 C 67.93 99.31 72.72 99.27 77.51 99.30 C 77.54 104.09 77.54 108.87 77.56 113.65 C 72.75 113.66 67.95 113.64 63.15 113.66 C 63.13 108.86 63.15 104.06 63.14 99.26 Z" />
<path fill="#90928b" opacity="1.00" d=" M 111.71 99.23 C 116.45 99.32 121.19 99.28 125.93 99.24 C 126.25 104.05 126.26 108.87 126.04 113.68 C 121.19 113.51 116.32 113.98 111.49 113.39 C 111.73 108.67 111.49 103.94 111.71 99.23 Z" />
</g>
</svg>
