<?xml version="1.0" encoding="UTF-8" ?>
<!DOCTYPE svg PUBLIC "-//W3C//DTD SVG 1.1//EN" "http://www.w3.org/Graphics/SVG/1.1/DTD/svg11.dtd">
<svg width="192pt" height="192pt" viewBox="0 0 192 192" version="1.1" xmlns="http://www.w3.org/2000/svg">
<g id="#65b266ff">
<path fill="#65b266" opacity="1.00" d=" M 20.15 39.95 C 21.00 28.46 31.48 18.65 43.03 18.74 C 77.35 18.71 111.67 18.69 145.98 18.74 C 158.66 18.67 169.46 30.42 168.97 42.97 C 168.65 76.99 168.90 111.04 168.75 145.07 C 168.63 156.98 157.92 167.42 146.06 167.51 C 111.69 167.56 77.31 167.54 42.95 167.50 C 31.06 167.45 20.33 157.02 20.19 145.08 C 20.16 124.08 20.03 103.07 20.28 82.08 C 20.80 76.14 30.21 76.18 31.05 81.99 C 31.59 102.97 31.05 124.01 31.31 145.01 C 31.46 151.44 37.66 156.80 44.01 156.40 C 77.67 156.38 111.33 156.38 144.99 156.37 C 151.70 156.75 157.86 150.78 157.68 144.07 C 157.69 114.84 157.78 85.61 157.64 56.39 C 152.20 56.42 146.76 56.42 141.32 56.39 C 141.24 66.60 141.37 76.82 141.28 87.03 C 141.61 90.45 138.44 93.53 135.05 93.22 C 125.68 93.24 116.32 93.28 106.96 93.20 C 103.60 93.46 100.56 90.40 100.88 87.04 C 100.76 76.82 100.97 66.60 100.77 56.38 C 95.58 56.42 90.38 56.42 85.19 56.38 C 85.15 66.60 85.23 76.83 85.17 87.06 C 85.49 90.44 82.42 93.48 79.05 93.20 C 70.69 93.27 62.32 93.25 53.95 93.22 C 50.93 93.47 47.73 91.20 47.65 88.02 C 47.39 82.02 47.61 76.00 47.56 69.98 C 40.09 69.39 32.59 70.04 25.11 69.67 C 21.79 69.63 19.66 66.15 19.99 63.08 C 20.06 55.37 19.80 47.65 20.15 39.95 M 31.32 41.92 C 31.19 47.36 31.41 52.80 31.21 58.23 C 38.74 58.79 46.30 58.15 53.83 58.54 C 56.57 58.69 58.86 61.25 58.83 63.97 C 59.03 69.90 58.77 75.84 58.94 81.78 C 63.91 81.90 68.88 81.86 73.85 81.85 C 73.90 71.55 73.79 61.24 73.88 50.95 C 73.58 47.63 76.64 44.76 79.90 45.02 C 88.63 44.98 97.37 44.98 106.10 45.02 C 109.39 44.76 112.39 47.65 112.19 50.96 C 112.33 61.24 112.21 71.52 112.23 81.80 C 118.13 81.89 124.03 81.85 129.93 81.85 C 130.01 71.54 129.89 61.23 129.98 50.92 C 129.68 47.66 132.70 44.83 135.90 45.02 C 143.18 44.92 150.48 45.09 157.76 44.94 C 158.56 38.23 154.15 30.74 147.01 30.19 C 112.33 30.09 77.64 30.17 42.96 30.14 C 36.75 29.97 31.21 35.77 31.32 41.92 Z" />
</g>
</svg>
