<?xml version="1.0" encoding="UTF-8" ?>
<!DOCTYPE svg PUBLIC "-//W3C//DTD SVG 1.1//EN" "http://www.w3.org/Graphics/SVG/1.1/DTD/svg11.dtd">
<svg width="192pt" height="192pt" viewBox="0 0 192 192" version="1.1" xmlns="http://www.w3.org/2000/svg">
<g id="#f6b22dff">
<path fill="#f6b22d" opacity="1.00" d=" M 89.11 20.94 C 88.93 16.06 95.31 12.80 99.13 15.93 C 115.78 28.25 132.34 40.71 148.94 53.10 C 152.34 55.33 152.62 60.88 149.28 63.28 C 134.95 74.05 120.60 84.80 106.19 95.46 C 120.38 106.42 134.95 116.90 149.21 127.78 C 152.55 130.16 152.47 135.72 149.01 137.96 C 132.44 150.39 115.84 162.81 99.21 175.17 C 95.34 178.40 88.87 175.02 89.05 170.07 C 88.89 146.09 89.19 122.09 88.94 98.11 C 72.99 82.05 56.82 66.20 40.92 50.10 C 35.93 45.02 43.59 36.29 49.27 40.75 C 62.74 53.60 75.67 67.05 89.00 80.06 C 89.14 60.36 88.97 40.65 89.11 20.94 M 101.85 33.93 C 101.81 50.17 101.82 66.42 101.87 82.66 C 112.83 74.64 123.72 66.51 134.50 58.25 C 123.59 50.17 112.81 41.93 101.85 33.93 M 101.88 108.42 C 101.83 124.64 101.84 140.86 101.89 157.08 C 112.84 149.11 123.66 140.95 134.45 132.78 C 123.65 124.59 112.79 116.46 101.88 108.42 Z" />
<path fill="#f6b22d" opacity="1.00" d=" M 73.38 110.47 C 78.95 109.35 83.14 117.04 78.98 121.00 C 69.17 130.84 59.40 140.75 49.41 150.40 C 43.98 155.04 35.92 146.84 40.55 141.49 C 49.36 132.33 58.55 123.53 67.48 114.48 C 69.20 112.84 70.83 110.69 73.38 110.47 Z" />
</g>
</svg>
