<?xml version="1.0" encoding="UTF-8" ?>
<!DOCTYPE svg PUBLIC "-//W3C//DTD SVG 1.1//EN" "http://www.w3.org/Graphics/SVG/1.1/DTD/svg11.dtd">
<svg width="192pt" height="192pt" viewBox="0 0 192 192" version="1.1" xmlns="http://www.w3.org/2000/svg">
<g id="#1ab1ffff">
<path fill="#1ab1ff" opacity="1.00" d=" M 21.19 46.00 C 20.03 33.12 30.99 20.70 44.02 20.78 C 78.33 20.72 112.66 20.72 146.98 20.76 C 159.20 20.71 170.00 31.74 169.82 43.94 C 169.89 77.98 169.89 112.02 169.85 146.05 C 170.16 158.35 159.37 169.48 147.06 169.51 C 112.69 169.58 78.31 169.57 43.93 169.50 C 32.04 169.42 21.43 158.97 21.24 147.07 C 21.21 130.09 21.04 113.08 21.34 96.11 C 21.88 90.19 31.35 90.14 32.12 96.00 C 32.63 112.98 32.04 130.02 32.40 147.02 C 32.69 153.39 38.69 158.69 45.04 158.34 C 78.95 158.30 112.87 158.36 146.78 158.27 C 153.18 158.28 158.79 152.46 158.65 146.07 C 158.72 112.36 158.67 78.65 158.69 44.94 C 159.22 37.97 152.97 31.62 146.03 31.85 C 112.35 31.80 78.66 31.78 44.98 31.81 C 37.54 31.54 31.31 38.65 32.29 45.98 C 31.20 60.02 36.48 75.54 49.27 82.77 C 60.50 89.07 73.79 85.62 85.99 86.68 C 89.47 86.82 91.70 90.67 90.75 93.87 C 88.04 107.25 85.14 120.60 82.37 133.97 C 101.85 118.92 120.93 103.34 140.48 88.38 C 145.77 84.40 152.48 93.03 147.27 97.20 C 124.03 115.66 100.63 133.96 77.42 152.47 C 73.65 156.11 66.70 152.16 68.21 147.03 C 71.49 130.58 75.10 114.19 78.42 97.75 C 66.24 97.96 52.95 98.79 42.32 91.71 C 27.03 82.26 19.75 63.49 21.19 46.00 Z" />
</g>
</svg>
