<?xml version="1.0" encoding="UTF-8" ?>
<!DOCTYPE svg PUBLIC "-//W3C//DTD SVG 1.1//EN" "http://www.w3.org/Graphics/SVG/1.1/DTD/svg11.dtd">
<svg width="192pt" height="192pt" viewBox="0 0 192 192" version="1.1" xmlns="http://www.w3.org/2000/svg">
<g id="#1ab2ffff">
<path fill="#1ab2ff" opacity="1.00" d=" M 89.61 25.50 C 92.27 23.63 95.96 23.49 98.66 25.34 C 119.85 38.81 141.01 52.33 162.25 65.73 C 164.96 67.47 168.82 69.18 168.79 72.96 C 168.88 101.33 168.74 129.70 168.76 158.06 C 169.10 163.30 164.30 168.02 159.06 167.55 C 116.71 167.55 74.36 167.56 32.01 167.52 C 27.34 167.84 22.96 163.81 23.10 159.09 C 22.97 131.05 23.11 103.01 23.05 74.97 C 23.05 72.21 23.28 68.45 26.38 67.39 C 29.26 66.39 31.65 68.79 33.97 70.08 C 54.23 82.77 74.44 95.54 94.61 108.37 C 95.98 109.69 97.71 108.96 99.02 107.99 C 117.02 96.52 134.90 84.87 152.72 73.12 C 133.21 60.71 113.76 48.18 94.14 35.93 C 80.21 44.73 66.40 53.73 52.36 62.34 C 46.56 65.48 41.23 56.22 46.80 52.77 C 60.98 43.55 75.35 34.59 89.61 25.50 M 34.36 83.73 C 34.23 107.86 34.36 132.00 34.29 156.14 C 75.38 156.15 116.49 156.40 157.56 155.96 C 157.36 132.03 157.67 108.10 157.54 84.17 C 139.36 95.78 121.05 107.19 103.01 119.02 C 98.85 121.93 93.01 122.05 88.75 119.26 C 70.60 107.46 52.59 95.41 34.36 83.73 Z" />
<path fill="#1ab2ff" opacity="1.00" d=" M 80.71 58.89 C 83.57 55.92 87.78 54.75 91.68 53.77 C 92.13 62.45 91.09 71.21 92.24 79.84 C 93.50 83.92 100.82 82.34 100.10 77.99 C 100.02 74.46 95.94 74.18 93.28 74.34 C 93.33 70.59 93.33 66.83 93.35 63.08 C 99.27 62.56 105.68 64.80 108.92 70.02 C 113.62 76.75 111.07 87.04 103.88 90.92 C 95.85 95.97 83.19 91.54 81.26 81.92 C 80.06 74.31 80.79 66.56 80.71 58.89 Z" />
</g>
</svg>
