<?xml version="1.0" encoding="UTF-8" ?>
<!DOCTYPE svg PUBLIC "-//W3C//DTD SVG 1.1//EN" "http://www.w3.org/Graphics/SVG/1.1/DTD/svg11.dtd">
<svg width="192pt" height="192pt" viewBox="0 0 192 192" version="1.1" xmlns="http://www.w3.org/2000/svg">
<g id="#35d195ff">
<path fill="#35d195" opacity="1.00" d=" M 92.38 13.46 C 94.51 12.16 97.05 12.65 99.09 13.85 C 121.74 25.85 144.42 37.78 167.05 49.82 C 169.47 50.86 170.44 53.51 170.23 55.99 C 170.19 82.01 170.30 108.02 170.18 134.04 C 170.31 136.81 167.96 138.61 165.72 139.71 C 143.40 151.43 121.07 163.16 98.76 174.90 C 96.60 176.17 93.90 176.71 91.68 175.26 C 68.76 163.23 45.85 151.18 22.94 139.14 C 20.57 138.11 19.19 135.62 19.43 133.07 C 19.47 107.04 19.36 81.00 19.49 54.98 C 19.31 52.11 21.71 50.18 24.05 49.09 C 46.85 37.26 69.57 25.26 92.38 13.46 M 93.74 24.78 C 74.75 34.69 55.73 44.56 36.74 54.47 C 55.70 65.49 75.55 75.11 94.93 85.45 C 114.34 75.22 133.80 65.10 153.15 54.76 C 135.09 44.72 116.61 35.42 98.43 25.60 C 96.97 24.95 95.29 23.53 93.74 24.78 M 30.27 63.69 C 30.10 86.08 30.10 108.48 30.14 130.87 C 49.93 141.33 69.74 151.75 89.60 162.05 C 89.52 139.60 89.76 117.15 89.48 94.71 C 69.70 84.45 50.04 73.97 30.27 63.69 M 100.42 94.61 C 100.11 117.07 100.38 139.53 100.28 162.00 C 120.08 151.63 139.93 141.35 159.61 130.78 C 159.55 108.48 159.57 86.18 159.50 63.88 C 139.63 73.75 120.18 84.51 100.42 94.61 Z" />
</g>
</svg>
