<?xml version="1.0" encoding="UTF-8" ?>
<!DOCTYPE svg PUBLIC "-//W3C//DTD SVG 1.1//EN" "http://www.w3.org/Graphics/SVG/1.1/DTD/svg11.dtd">
<svg width="192pt" height="192pt" viewBox="0 0 192 192" version="1.1" xmlns="http://www.w3.org/2000/svg">
<g id="#ff643bff">
<path fill="#ff643b" opacity="1.00" d=" M 57.51 29.38 C 58.73 24.29 64.90 24.66 68.99 24.72 C 90.01 25.56 111.06 24.85 132.08 25.33 C 145.10 26.07 161.29 29.92 166.25 43.65 C 171.83 61.88 159.24 80.66 143.38 88.94 C 156.53 96.72 161.74 114.15 156.34 128.20 C 149.71 146.22 131.96 157.81 113.85 161.99 C 93.28 166.75 71.99 164.88 51.08 164.68 C 44.82 164.86 43.91 154.77 50.03 153.67 C 71.62 152.95 93.82 156.11 114.91 150.00 C 128.60 145.99 142.14 136.61 146.32 122.36 C 149.33 112.42 144.21 100.16 133.80 97.26 C 129.61 95.59 123.08 96.98 121.26 91.75 C 119.79 87.32 124.23 83.90 128.10 83.11 C 140.45 79.54 152.41 70.69 155.65 57.71 C 157.23 52.16 156.50 45.11 151.13 41.87 C 142.81 36.68 132.51 36.45 123.00 36.38 C 104.42 36.70 85.85 36.32 67.27 36.15 C 55.81 77.97 45.23 120.04 33.95 161.91 C 31.93 168.54 21.07 164.94 23.34 158.37 C 34.59 115.34 45.66 72.25 57.51 29.38 Z" />
</g>
</svg>
