<?xml version="1.0" encoding="UTF-8" ?>
<!DOCTYPE svg PUBLIC "-//W3C//DTD SVG 1.1//EN" "http://www.w3.org/Graphics/SVG/1.1/DTD/svg11.dtd">
<svg width="192pt" height="192pt" viewBox="0 0 192 192" version="1.1" xmlns="http://www.w3.org/2000/svg">
<g id="#a61affff">
<path fill="#a61aff" opacity="1.00" d=" M 85.36 13.46 C 119.80 8.68 155.23 28.95 169.79 60.27 C 184.79 90.43 178.03 129.45 154.00 153.00 C 132.03 175.93 96.24 183.71 66.63 172.37 C 46.63 164.98 29.78 149.49 20.82 130.13 C 11.68 110.79 10.62 87.84 17.77 67.69 C 18.71 64.60 21.72 62.30 24.98 62.38 C 37.99 62.34 51.01 62.30 64.02 62.39 C 66.58 62.22 69.23 63.42 69.78 66.15 C 73.34 77.69 76.77 89.28 80.11 100.90 C 81.06 104.90 84.95 107.56 88.98 107.59 C 99.68 107.77 110.38 107.76 121.08 107.69 C 125.11 107.85 129.22 105.55 130.56 101.63 C 133.51 93.56 135.78 85.21 139.40 77.41 C 141.09 73.05 147.31 74.30 149.29 77.70 C 150.39 80.22 149.44 83.00 148.58 85.44 C 145.12 94.73 141.78 104.07 138.41 113.40 C 137.56 115.94 135.51 118.32 132.71 118.65 C 116.82 119.55 100.90 118.80 85.00 119.13 C 80.10 119.19 73.52 118.90 71.55 113.42 C 67.61 101.02 63.67 88.59 59.99 76.11 C 57.49 70.91 50.65 72.64 46.01 72.30 C 39.85 72.90 31.38 70.07 27.54 76.58 C 17.86 105.15 31.30 138.51 56.38 154.55 C 81.16 171.37 116.56 169.74 139.69 150.72 C 158.93 135.63 169.25 110.13 165.86 85.90 C 162.66 58.73 142.11 34.74 115.86 27.16 C 90.41 19.23 60.90 27.19 43.10 47.09 C 40.48 49.54 38.90 53.63 35.01 54.28 C 30.60 54.85 27.04 49.34 29.71 45.65 C 42.82 27.93 63.48 16.06 85.36 13.46 Z" />
<path fill="#a61aff" opacity="1.00" d=" M 83.36 128.38 C 88.59 125.38 95.57 130.49 94.49 136.34 C 94.00 142.19 86.11 145.12 81.86 141.15 C 77.64 137.90 78.51 130.56 83.36 128.38 Z" />
<path fill="#a61aff" opacity="1.00" d=" M 116.42 128.50 C 121.48 125.36 128.69 130.10 127.82 135.98 C 127.65 141.81 119.98 145.10 115.52 141.47 C 111.06 138.40 111.60 130.93 116.42 128.50 Z" />
</g>
</svg>
