<?xml version="1.0" encoding="UTF-8" ?>
<!DOCTYPE svg PUBLIC "-//W3C//DTD SVG 1.1//EN" "http://www.w3.org/Graphics/SVG/1.1/DTD/svg11.dtd">
<svg width="192pt" height="192pt" viewBox="0 0 192 192" version="1.1" xmlns="http://www.w3.org/2000/svg">
<g id="#5f6f81ff">
<path fill="#5f6f81" opacity="1.00" d=" M 62.31 21.37 C 70.03 18.76 77.48 24.20 81.81 30.18 C 91.01 43.68 94.55 64.06 83.70 77.63 C 77.26 85.23 65.47 82.11 59.83 75.16 C 51.46 66.00 48.03 52.83 49.49 40.63 C 50.75 32.92 54.42 24.24 62.31 21.37 M 65.38 32.32 C 57.25 41.25 60.04 55.60 66.05 64.99 C 68.13 67.59 70.85 71.17 74.60 70.60 C 81.00 63.84 79.40 53.27 76.88 45.12 C 74.87 39.98 71.76 32.33 65.38 32.32 Z" />
<path fill="#5f6f81" opacity="1.00" d=" M 118.36 23.44 C 128.12 21.47 135.56 31.26 136.82 39.97 C 139.39 54.73 135.21 71.56 123.03 81.05 C 115.89 86.59 105.14 84.02 100.18 76.81 C 92.93 66.67 94.49 52.95 99.08 42.04 C 102.78 33.80 109.05 25.44 118.36 23.44 M 106.55 62.09 C 106.64 66.81 110.15 74.72 116.00 72.09 C 122.95 66.73 126.26 57.59 126.14 48.99 C 126.31 43.73 125.81 37.54 121.15 34.20 C 110.46 38.38 106.29 51.49 106.55 62.09 Z" />
<path fill="#5f6f81" opacity="1.00" d=" M 26.33 64.37 C 32.30 62.04 38.60 65.10 43.35 68.67 C 54.78 77.34 59.56 93.08 56.96 106.91 C 55.61 114.09 48.30 119.67 40.96 117.95 C 24.60 114.74 13.94 96.94 15.39 80.92 C 15.48 73.91 19.63 66.89 26.33 64.37 M 26.54 83.01 C 26.22 93.51 33.43 106.15 44.80 106.88 C 49.21 95.68 43.84 80.53 32.63 75.39 C 28.10 73.72 26.19 79.52 26.54 83.01 Z" />
<path fill="#5f6f81" opacity="1.00" d=" M 154.41 71.49 C 162.09 70.32 169.79 75.08 172.96 82.01 C 180.37 97.99 173.15 119.71 156.40 126.38 C 145.53 130.30 133.07 122.62 130.32 111.71 C 126.21 95.06 136.76 74.50 154.41 71.49 M 153.33 83.43 C 144.52 87.34 139.89 97.73 140.84 107.03 C 141.40 112.53 147.15 117.45 152.72 115.64 C 163.07 110.81 167.07 97.34 162.87 87.12 C 161.36 83.47 156.95 81.46 153.33 83.43 Z" />
<path fill="#5f6f81" opacity="1.00" d=" M 83.36 96.51 C 92.51 93.45 101.73 98.68 108.63 104.33 C 122.15 115.99 132.50 131.66 136.98 149.00 C 139.39 158.19 132.47 168.31 123.01 169.28 C 115.91 170.21 108.72 169.01 102.34 165.76 C 91.86 161.43 81.41 167.64 71.05 168.98 C 62.90 169.80 54.09 170.39 46.62 166.40 C 41.38 163.80 37.61 157.96 38.46 152.00 C 40.13 140.76 46.08 130.75 52.73 121.75 C 60.61 111.04 70.54 100.95 83.36 96.51 M 86.37 107.49 C 76.21 111.30 68.52 119.57 62.12 128.05 C 56.42 135.81 51.00 144.32 49.60 154.03 C 50.97 156.72 54.25 157.42 56.97 157.93 C 72.91 160.73 87.86 148.90 103.69 154.28 C 109.94 156.64 116.72 159.88 123.46 157.36 C 126.29 155.88 126.46 152.24 125.49 149.55 C 120.88 134.92 111.92 121.62 100.01 111.93 C 96.12 109.10 91.41 105.96 86.37 107.49 Z" />
</g>
</svg>
