<?xml version="1.0" encoding="UTF-8" ?>
<!DOCTYPE svg PUBLIC "-//W3C//DTD SVG 1.1//EN" "http://www.w3.org/Graphics/SVG/1.1/DTD/svg11.dtd">
<svg width="192pt" height="192pt" viewBox="0 0 192 192" version="1.1" xmlns="http://www.w3.org/2000/svg">
<g id="#f6ae2aff">
<path fill="#f6ae2a" opacity="1.00" d=" M 137.21 17.06 C 138.03 12.69 145.13 12.68 145.95 17.06 C 146.45 22.03 146.23 27.06 146.12 32.05 C 146.02 36.43 139.36 37.84 137.62 33.62 C 136.61 36.43 135.73 40.21 131.99 40.20 C 128.08 39.27 125.98 35.38 123.06 32.94 C 121.07 30.69 117.56 28.64 118.24 25.15 C 118.70 21.95 123.13 20.28 125.51 22.55 C 129.62 26.06 132.96 30.38 137.19 33.76 C 137.01 28.20 136.70 22.60 137.21 17.06 Z" />
<path fill="#f6ae2a" opacity="1.00" d=" M 157.58 22.57 C 161.14 19.09 167.34 24.44 164.33 28.44 C 160.97 32.33 157.21 35.89 153.37 39.31 C 158.63 41.76 164.75 39.22 170.24 40.77 C 173.95 42.30 173.52 48.50 169.55 49.34 C 164.28 49.69 158.93 49.74 153.66 49.32 C 149.44 48.32 149.19 41.57 153.66 40.59 C 150.01 40.44 145.06 38.40 146.65 33.88 C 149.79 29.69 153.88 26.26 157.58 22.57 Z" />
<path fill="#f6ae2a" opacity="1.00" d=" M 86.01 29.85 C 99.37 25.96 114.11 37.12 114.04 51.02 C 113.46 56.98 120.83 61.41 125.70 57.81 C 130.07 55.19 128.36 49.46 130.63 45.62 C 133.25 40.27 141.91 36.35 146.34 41.66 C 149.46 45.78 145.49 50.97 140.88 51.08 C 141.05 61.28 132.37 70.78 122.02 70.68 C 111.81 71.26 102.47 62.27 102.45 52.08 C 103.03 44.29 93.85 38.02 86.91 41.83 C 81.57 44.17 80.07 50.48 80.67 55.78 C 84.84 56.15 90.67 54.34 93.26 58.71 C 94.64 61.96 93.95 65.64 94.03 69.07 C 106.18 73.75 116.78 82.41 123.25 93.75 C 132.38 109.22 133.21 129.20 125.36 145.36 C 117.55 161.95 101.14 174.21 82.93 176.70 C 64.27 179.61 44.47 172.07 32.36 157.61 C 21.47 145.01 16.81 127.35 20.07 111.02 C 23.14 94.82 33.81 80.22 48.40 72.52 C 52.09 70.22 57.33 73.64 56.83 77.92 C 56.93 81.55 53.19 83.03 50.65 84.72 C 34.28 94.98 26.52 116.85 32.82 135.14 C 39.02 155.41 61.20 168.94 82.07 165.06 C 100.59 162.26 116.16 146.47 118.63 127.89 C 122.18 106.61 107.61 84.59 86.87 79.03 C 81.64 77.81 82.20 71.65 82.44 67.53 C 75.29 67.20 68.13 67.64 60.99 67.32 C 56.56 67.16 54.08 61.26 57.01 57.95 C 59.96 54.51 65.02 56.16 68.95 55.82 C 67.67 44.51 74.54 32.45 86.01 29.85 Z" />
<path fill="#f6ae2a" opacity="1.00" d=" M 149.17 50.09 C 155.30 48.74 158.23 56.35 162.62 59.40 C 167.21 62.11 164.48 69.94 159.05 68.18 C 154.86 65.45 151.75 61.34 148.12 57.92 C 145.55 55.83 146.05 51.36 149.17 50.09 Z" />
<path fill="#f6ae2a" opacity="1.00" d=" M 54.25 90.21 C 59.34 87.14 64.61 95.38 59.66 98.67 C 47.88 106.65 43.96 124.04 52.03 135.96 C 54.55 138.71 53.83 143.85 49.89 144.77 C 45.24 146.16 42.92 141.06 41.24 137.73 C 32.99 121.60 38.73 99.74 54.25 90.21 Z" />
</g>
</svg>
