<?xml version="1.0" encoding="UTF-8" ?>
<!DOCTYPE svg PUBLIC "-//W3C//DTD SVG 1.1//EN" "http://www.w3.org/Graphics/SVG/1.1/DTD/svg11.dtd">
<svg width="192pt" height="192pt" viewBox="0 0 192 192" version="1.1" xmlns="http://www.w3.org/2000/svg">
<g id="#8dcd55ff">
<path fill="#8dcd55" opacity="1.00" d=" M 81.79 20.27 C 90.06 13.23 102.74 13.42 111.06 20.25 C 121.55 16.89 132.93 22.32 138.41 31.50 C 149.05 32.51 158.00 41.34 158.86 52.04 C 165.28 55.85 170.59 62.23 171.07 69.93 C 171.85 74.00 168.79 78.55 171.96 82.03 C 177.50 89.97 176.29 101.05 170.22 108.35 C 173.35 118.54 168.94 130.02 159.60 135.21 C 159.46 150.52 144.12 160.98 129.92 161.25 C 126.18 170.44 116.96 176.74 106.98 176.51 C 96.77 176.14 86.41 177.43 76.31 175.61 C 68.71 173.99 63.11 167.72 60.01 160.90 C 46.84 159.30 33.80 149.37 33.45 135.23 C 23.93 130.17 19.49 118.54 22.65 108.31 C 17.27 101.73 15.48 92.11 19.52 84.42 C 20.52 81.95 23.30 79.83 22.28 76.92 C 20.47 69.38 22.97 60.93 28.91 55.86 C 31.06 53.92 34.41 52.79 34.54 49.42 C 36.15 39.63 45.02 32.40 54.70 31.49 C 59.62 21.74 71.43 17.07 81.79 20.27 M 84.01 32.46 C 79.25 32.20 74.29 28.84 69.63 31.69 C 65.07 33.62 64.67 39.34 61.07 42.14 C 56.72 43.19 51.44 42.43 48.22 46.24 C 44.55 49.60 46.00 55.00 44.16 59.12 C 41.12 62.12 36.07 62.84 34.13 67.06 C 31.33 71.77 34.78 76.82 34.65 81.67 C 33.20 85.71 28.66 88.31 28.56 92.98 C 27.80 98.12 32.30 101.41 34.52 105.42 C 35.28 110.29 31.33 115.26 33.87 120.10 C 35.74 126.16 46.01 125.53 44.90 132.96 C 44.19 138.93 47.81 144.06 52.68 147.08 C 52.42 141.11 56.27 134.45 62.87 134.54 C 66.68 134.75 66.48 130.23 67.80 127.77 C 69.83 124.71 73.95 126.03 76.95 124.94 C 79.94 123.40 80.76 119.03 84.36 118.46 C 88.62 117.60 90.74 123.12 94.90 122.77 C 98.83 122.77 100.78 117.64 104.87 118.29 C 108.78 118.68 109.59 123.67 113.10 124.79 C 116.24 125.28 120.52 124.15 122.39 127.53 C 123.54 130.10 123.13 134.81 127.12 134.50 C 134.33 134.14 138.39 141.87 137.56 148.24 C 141.56 146.30 145.76 143.80 147.38 139.40 C 149.04 135.86 147.05 131.52 149.22 128.20 C 152.33 125.30 157.38 124.38 158.98 119.96 C 161.42 115.37 158.01 110.69 158.02 106.06 C 159.66 101.84 164.56 99.06 164.27 94.00 C 164.63 88.97 160.08 85.95 158.08 81.90 C 157.69 77.65 160.87 73.67 159.56 69.34 C 158.19 61.53 146.19 62.23 147.16 53.25 C 145.04 56.71 143.02 60.22 140.92 63.70 C 144.13 63.31 150.50 63.78 148.57 68.59 C 139.70 81.62 130.23 94.27 120.94 107.01 C 119.39 110.19 113.89 108.62 114.66 105.04 C 116.38 97.35 119.15 89.92 121.07 82.27 C 117.16 81.57 110.17 84.29 108.88 79.03 C 111.04 71.49 115.64 64.82 118.30 57.41 C 114.52 56.63 108.58 58.62 106.55 54.40 C 106.74 49.80 108.69 45.39 109.97 40.99 C 110.67 37.80 115.60 37.93 116.36 41.05 C 116.42 44.25 115.00 47.25 114.21 50.30 C 118.36 51.30 125.51 48.73 127.13 53.99 C 124.88 61.43 120.63 68.13 117.68 75.32 C 121.04 75.56 124.66 74.77 127.86 76.07 C 130.68 79.23 127.46 83.55 126.90 87.06 C 130.79 81.74 134.79 76.50 138.41 70.99 C 135.72 71.02 131.11 71.07 131.41 67.21 C 134.82 59.49 139.97 52.63 143.81 45.11 C 139.46 41.44 131.37 45.02 129.13 38.87 C 127.62 34.54 123.58 31.11 119.01 30.54 C 115.19 30.08 111.71 33.24 107.94 32.24 C 104.19 29.89 100.97 25.70 96.03 26.23 C 90.99 25.90 88.24 30.93 84.01 32.46 M 86.34 132.23 C 83.55 134.42 80.32 135.91 76.93 136.89 C 74.63 141.04 71.08 144.56 66.33 145.67 C 71.11 148.55 69.39 154.72 72.14 158.86 C 74.38 163.15 79.33 165.25 84.00 165.16 C 91.68 165.15 99.35 165.22 107.03 165.09 C 111.69 165.19 116.19 162.49 118.30 158.34 C 120.39 154.25 119.27 148.83 123.27 145.75 C 118.56 144.31 114.96 140.79 112.74 136.47 C 109.27 135.67 106.06 134.13 103.13 132.13 C 97.81 134.66 91.69 134.69 86.34 132.23 Z" />
</g>
</svg>
