<?xml version="1.0" encoding="UTF-8" ?>
<!DOCTYPE svg PUBLIC "-//W3C//DTD SVG 1.1//EN" "http://www.w3.org/Graphics/SVG/1.1/DTD/svg11.dtd">
<svg width="192pt" height="192pt" viewBox="0 0 192 192" version="1.1" xmlns="http://www.w3.org/2000/svg">
<g id="#ff507cff">
<path fill="#ff507c" opacity="1.00" d=" M 39.07 34.94 C 38.72 25.65 46.67 17.03 55.99 16.78 C 70.31 16.70 84.65 16.71 98.97 16.78 C 114.19 17.02 129.88 23.58 138.72 36.36 C 150.20 52.58 149.61 76.05 137.14 91.59 C 148.38 100.84 155.07 115.47 153.73 130.08 C 152.52 149.93 136.83 167.00 117.93 172.03 C 105.25 175.47 91.97 173.67 79.00 174.11 C 73.66 173.79 68.05 174.95 62.90 173.19 C 58.26 170.90 59.71 162.93 64.99 162.74 C 78.35 162.46 91.72 162.87 105.07 162.68 C 119.38 162.24 133.59 153.83 139.56 140.58 C 145.88 127.44 142.12 110.43 130.81 101.20 C 125.46 97.20 124.43 88.89 128.75 83.76 C 139.49 70.29 137.59 48.69 124.60 37.38 C 117.36 31.02 107.54 28.03 97.99 28.11 C 84.30 28.14 70.61 28.09 56.91 28.13 C 53.20 27.82 50.07 31.38 50.33 34.98 C 50.25 79.67 50.40 124.37 50.26 169.05 C 50.46 176.11 38.85 176.10 39.09 169.05 C 38.97 124.35 39.08 79.65 39.07 34.94 Z" />
<path fill="#ff507c" opacity="1.00" d=" M 73.42 43.51 C 83.81 41.37 96.60 41.38 104.97 49.04 C 113.92 57.16 113.59 73.45 103.62 80.61 C 96.00 86.36 85.99 85.67 76.99 85.47 C 72.19 85.25 68.09 80.88 68.07 76.09 C 67.90 68.38 68.07 60.66 68.02 52.94 C 67.80 49.08 69.94 45.23 73.42 43.51 M 79.26 53.74 C 79.26 60.57 79.27 67.40 79.25 74.23 C 84.86 74.17 90.96 75.04 96.05 72.10 C 101.81 68.92 101.38 59.48 95.95 56.19 C 90.99 52.99 84.86 53.76 79.26 53.74 Z" />
<path fill="#ff507c" opacity="1.00" d=" M 76.36 102.46 C 83.66 102.04 91.06 101.94 98.34 102.66 C 108.70 104.15 117.41 113.41 117.44 124.03 C 118.14 132.78 112.37 141.12 104.39 144.40 C 96.05 147.84 86.79 147.16 77.97 146.99 C 72.78 146.86 68.08 142.34 68.14 137.08 C 68.06 129.03 68.13 120.99 68.12 112.94 C 67.79 108.04 71.51 103.27 76.36 102.46 M 79.40 113.49 C 79.34 120.87 79.38 128.25 79.37 135.63 C 87.08 135.27 95.79 137.21 102.55 132.46 C 108.86 127.95 106.52 116.98 99.36 114.66 C 92.96 112.49 86.02 113.87 79.40 113.49 Z" />
</g>
</svg>
