<?xml version="1.0" encoding="UTF-8" ?>
<!DOCTYPE svg PUBLIC "-//W3C//DTD SVG 1.1//EN" "http://www.w3.org/Graphics/SVG/1.1/DTD/svg11.dtd">
<svg width="192pt" height="192pt" viewBox="0 0 192 192" version="1.1" xmlns="http://www.w3.org/2000/svg">
<g id="#e13fa2ff">
<path fill="#e13fa2" opacity="1.00" d=" M 47.39 56.48 C 63.83 53.37 81.30 62.11 89.76 76.26 C 93.63 83.11 83.44 90.60 78.15 84.87 C 72.65 77.56 64.66 70.87 55.00 71.09 C 43.81 70.36 33.21 78.53 30.07 89.11 C 26.28 102.58 36.06 118.47 50.06 120.42 C 59.50 121.36 67.85 115.57 74.18 109.18 C 88.39 95.02 98.69 77.03 115.08 65.08 C 128.39 54.74 148.01 52.53 162.66 61.30 C 187.11 77.39 183.01 120.76 156.18 132.30 C 136.56 139.27 113.69 129.25 103.30 111.78 C 100.78 105.16 109.95 98.96 115.14 103.83 C 120.74 110.04 126.94 116.45 135.36 118.55 C 142.83 120.37 152.31 120.08 157.45 113.50 C 164.99 103.76 166.45 88.92 159.46 78.53 C 151.32 68.17 135.20 69.18 125.23 76.26 C 105.51 90.15 95.22 113.60 75.60 127.63 C 66.13 134.55 53.44 137.60 42.09 134.02 C 23.26 127.80 10.60 106.53 15.13 87.00 C 18.86 71.88 31.82 58.96 47.39 56.48 Z" />
</g>
</svg>
