<?xml version="1.0" encoding="UTF-8" ?>
<!DOCTYPE svg PUBLIC "-//W3C//DTD SVG 1.1//EN" "http://www.w3.org/Graphics/SVG/1.1/DTD/svg11.dtd">
<svg width="192pt" height="192pt" viewBox="0 0 192 192" version="1.1" xmlns="http://www.w3.org/2000/svg">
<g id="#a0c94dff">
<path fill="#a0c94d" opacity="1.00" d=" M 93.24 13.21 C 124.48 10.51 155.60 29.65 169.69 57.32 C 181.72 80.27 181.87 108.99 170.09 132.07 C 156.74 159.29 127.35 177.64 97.00 177.44 C 66.85 177.90 37.52 160.05 23.77 133.27 C 14.49 115.78 11.95 94.88 16.65 75.65 C 22.78 49.88 42.21 27.37 67.20 18.36 C 73.88 17.09 76.00 27.90 69.37 29.38 C 40.10 41.03 21.28 73.75 26.24 104.92 C 30.17 137.79 59.87 165.10 93.01 166.04 C 126.43 168.36 159.00 143.67 165.80 110.88 C 173.75 78.72 155.64 42.50 124.91 30.00 C 122.06 29.04 118.81 31.07 117.96 33.87 C 114.45 43.43 111.14 53.07 107.67 62.64 C 106.75 65.03 106.53 68.44 109.28 69.70 C 114.75 70.77 120.41 69.49 125.92 70.24 C 130.20 71.16 132.11 76.93 129.18 80.21 C 114.30 100.32 99.51 120.51 84.52 140.54 C 82.29 144.36 75.83 141.33 77.27 137.16 C 81.10 120.73 85.64 104.45 89.23 87.97 C 88.14 82.44 80.93 85.31 76.99 84.65 C 72.39 85.66 66.65 82.24 67.92 77.01 C 73.69 58.26 80.00 39.67 85.95 20.97 C 86.94 17.40 89.63 14.27 93.24 13.21 Z" />
</g>
</svg>
