<?xml version="1.0" encoding="UTF-8" ?>
<!DOCTYPE svg PUBLIC "-//W3C//DTD SVG 1.1//EN" "http://www.w3.org/Graphics/SVG/1.1/DTD/svg11.dtd">
<svg width="192pt" height="192pt" viewBox="0 0 192 192" version="1.1" xmlns="http://www.w3.org/2000/svg">
<g id="#fe425cff">
<path fill="#fe425c" opacity="1.00" d=" M 68.59 58.97 C 90.06 31.46 125.16 15.26 160.04 16.93 C 166.44 17.19 172.10 22.66 172.60 29.05 C 174.53 64.14 158.36 99.40 130.94 121.28 C 133.15 127.91 135.22 134.89 133.84 141.95 C 131.73 157.44 117.65 170.22 101.97 170.53 C 86.45 171.55 70.05 159.82 68.20 144.03 C 68.17 134.26 78.78 132.21 86.33 130.96 C 77.30 121.71 68.26 112.47 58.95 103.51 C 57.30 108.95 57.74 115.90 52.46 119.44 C 47.47 123.48 40.59 121.45 35.76 118.25 C 20.24 109.32 14.76 87.40 24.13 72.17 C 32.56 56.86 53.14 51.24 68.59 58.97 M 63.11 90.96 C 74.93 102.98 86.87 114.88 98.80 126.80 C 136.81 111.87 162.83 71.72 161.06 30.95 C 161.15 29.74 160.65 28.95 159.57 28.60 C 118.51 26.39 78.08 52.72 63.11 90.96 M 33.44 79.39 C 27.51 90.68 33.49 106.10 45.65 110.15 C 47.84 95.29 54.26 81.59 61.08 68.44 C 50.77 64.70 38.10 69.26 33.44 79.39 M 79.81 144.36 C 83.25 154.90 95.47 161.20 106.09 158.16 C 118.66 155.37 126.08 140.38 121.04 128.59 C 108.35 136.21 94.44 141.85 79.81 144.36 Z" />
<path fill="#fe425c" opacity="1.00" d=" M 123.27 45.27 C 134.24 41.46 146.50 51.65 145.05 63.08 C 144.48 71.63 136.61 78.90 128.00 78.58 C 119.15 78.76 111.24 70.87 111.22 62.05 C 110.84 54.58 116.09 47.32 123.27 45.27 M 126.41 56.49 C 122.68 57.61 121.53 62.98 124.51 65.51 C 127.49 68.56 133.37 66.31 133.47 62.02 C 133.97 58.27 129.89 55.21 126.41 56.49 Z" />
<path fill="#fe425c" opacity="1.00" d=" M 53.30 129.31 C 58.42 126.45 64.13 133.84 59.99 138.02 C 52.59 146.61 45.17 155.21 37.57 163.62 C 34.80 167.02 28.86 165.06 28.16 160.90 C 27.28 156.85 31.21 154.23 33.37 151.41 C 40.13 144.17 46.02 135.99 53.30 129.31 Z" />
<path fill="#fe425c" opacity="1.00" d=" M 28.30 134.36 C 33.30 132.54 37.93 139.35 34.28 143.29 C 31.58 146.20 29.39 149.85 25.92 151.89 C 21.11 154.14 16.06 147.51 19.38 143.44 C 22.19 140.32 24.47 136.28 28.30 134.36 Z" />
<path fill="#fe425c" opacity="1.00" d=" M 52.29 155.38 C 57.03 153.41 61.89 159.66 58.84 163.76 C 56.26 166.82 53.90 170.24 50.67 172.63 C 45.88 175.53 40.03 168.81 43.52 164.46 C 46.26 161.31 48.60 157.46 52.29 155.38 Z" />
</g>
</svg>
