<?xml version="1.0" encoding="UTF-8" ?>
<!DOCTYPE svg PUBLIC "-//W3C//DTD SVG 1.1//EN" "http://www.w3.org/Graphics/SVG/1.1/DTD/svg11.dtd">
<svg width="192pt" height="192pt" viewBox="0 0 192 192" version="1.1" xmlns="http://www.w3.org/2000/svg">
<g id="#30d691ff">
<path fill="#30d691" opacity="1.00" d=" M 27.26 55.94 C 27.74 33.41 48.60 14.13 70.99 14.71 C 83.84 15.34 97.24 12.98 109.61 17.42 C 130.89 24.76 142.50 49.69 136.98 71.04 C 155.39 83.69 167.25 106.63 163.46 129.11 C 160.35 153.47 140.23 175.96 115.02 177.59 C 94.67 177.91 74.31 177.63 53.96 177.71 C 39.88 177.70 27.36 165.18 27.28 151.09 C 26.94 119.38 27.14 87.65 27.26 55.94 M 37.27 56.94 C 37.03 81.87 37.21 106.81 37.08 131.74 C 42.25 123.70 49.99 117.57 58.68 113.69 C 81.16 103.97 104.86 94.16 121.83 75.83 C 134.02 58.76 122.96 32.02 102.84 27.18 C 92.39 25.11 81.60 26.57 71.01 26.11 C 53.94 25.05 37.58 39.74 37.27 56.94 M 73.60 119.57 C 63.81 123.56 52.94 127.68 47.19 137.19 C 42.22 145.08 42.95 154.99 45.51 163.58 C 48.32 165.39 51.54 166.70 54.94 166.53 C 74.80 166.40 94.66 166.78 114.50 166.30 C 134.21 164.78 149.37 146.93 152.08 128.07 C 155.34 110.30 146.44 91.76 131.95 81.48 C 116.64 99.49 94.78 110.08 73.60 119.57 Z" />
</g>
</svg>
