<?xml version="1.0" encoding="UTF-8" ?>
<!DOCTYPE svg PUBLIC "-//W3C//DTD SVG 1.1//EN" "http://www.w3.org/Graphics/SVG/1.1/DTD/svg11.dtd">
<svg width="192pt" height="192pt" viewBox="0 0 192 192" version="1.1" xmlns="http://www.w3.org/2000/svg">
<g id="#606f80ff">
<path fill="#606f80" opacity="1.00" d=" M 136.08 25.11 C 137.40 20.11 145.44 20.24 146.64 25.25 C 147.55 31.67 146.81 38.20 147.07 44.67 C 153.38 44.82 159.71 44.32 166.00 44.89 C 171.20 45.75 171.65 54.03 166.64 55.55 C 160.24 56.86 153.61 55.90 147.12 56.13 C 146.76 62.63 147.64 69.23 146.57 75.67 C 144.98 80.70 136.83 80.17 135.92 74.96 C 135.36 68.72 135.85 62.42 135.68 56.16 C 129.22 55.90 122.65 56.80 116.27 55.60 C 111.32 54.32 111.22 46.45 116.11 45.02 C 122.59 44.18 129.17 44.90 135.69 44.66 C 135.94 38.15 135.19 31.57 136.08 25.11 Z" />
<path fill="#606f80" opacity="1.00" d=" M 38.28 22.35 C 64.43 20.84 90.81 21.99 117.04 21.75 C 123.49 21.64 123.43 32.30 117.05 32.28 C 92.68 32.48 68.31 32.27 43.94 32.37 C 37.24 32.04 31.59 38.36 32.07 44.94 C 32.03 78.98 32.04 113.02 32.06 147.06 C 31.57 153.64 37.30 159.76 43.93 159.50 C 78.30 159.55 112.69 159.52 147.07 159.51 C 153.39 159.84 159.26 154.39 159.18 148.01 C 159.40 123.67 159.07 99.30 159.34 74.96 C 159.28 68.60 169.87 68.53 169.77 74.96 C 169.97 99.31 169.83 123.69 169.85 148.05 C 170.09 159.79 159.68 170.22 147.99 170.26 C 113.33 170.36 78.67 170.30 44.01 170.28 C 32.41 170.54 21.75 160.67 21.47 149.01 C 21.37 113.99 21.45 78.96 21.44 43.94 C 21.31 34.02 28.64 24.66 38.28 22.35 Z" />
</g>
</svg>
