<?xml version="1.0" encoding="UTF-8" ?>
<!DOCTYPE svg PUBLIC "-//W3C//DTD SVG 1.1//EN" "http://www.w3.org/Graphics/SVG/1.1/DTD/svg11.dtd">
<svg width="192pt" height="192pt" viewBox="0 0 192 192" version="1.1" xmlns="http://www.w3.org/2000/svg">
<g id="#8f98a2ff">
<path fill="#8f98a2" opacity="1.00" d=" M 39.34 21.44 C 43.50 20.50 47.78 20.79 52.00 20.77 C 81.33 20.77 110.67 20.77 140.00 20.77 C 144.96 20.79 150.10 20.37 154.86 22.09 C 164.00 25.12 170.79 34.29 170.69 43.96 C 170.69 78.66 170.75 113.36 170.68 148.06 C 170.49 160.30 159.16 170.83 146.99 170.50 C 112.67 170.48 78.34 170.53 44.02 170.45 C 31.79 170.35 20.88 159.31 21.19 147.03 C 21.17 112.67 21.17 78.31 21.21 43.95 C 21.07 33.44 29.14 23.66 39.34 21.44 M 41.30 32.38 C 35.84 33.78 31.83 39.32 32.29 44.95 C 32.31 78.99 32.27 113.02 32.31 147.06 C 32.04 153.82 38.36 159.61 45.01 159.36 C 79.00 159.36 113.00 159.36 147.00 159.33 C 153.66 159.55 159.74 153.71 159.63 147.01 C 159.71 112.99 159.66 78.96 159.66 44.94 C 160.14 37.98 153.93 31.76 147.03 31.84 C 114.36 31.64 81.67 31.85 49.00 31.72 C 46.42 31.72 43.80 31.72 41.30 32.38 Z" />
<path fill="#8f98a2" opacity="1.00" d=" M 44.11 56.95 C 43.97 53.23 48.39 50.60 51.59 52.49 C 78.82 70.13 105.99 87.88 133.05 105.78 C 139.53 108.59 134.12 118.74 128.28 114.88 C 103.62 98.72 78.91 82.61 54.28 66.40 C 54.38 85.61 54.19 104.82 54.38 124.02 C 54.38 129.51 59.44 134.39 64.95 134.00 C 85.66 133.99 106.37 134.03 127.08 133.97 C 132.33 134.07 137.14 129.33 137.02 124.05 C 136.83 104.95 137.42 85.83 136.92 66.73 C 128.10 72.23 119.62 78.29 110.73 83.67 C 105.48 86.45 100.83 77.86 105.85 74.84 C 117.03 67.35 128.30 59.96 139.61 52.67 C 142.80 50.43 147.63 53.08 147.38 57.00 C 147.51 79.32 147.41 101.64 147.37 123.95 C 147.58 134.82 137.84 144.56 126.97 144.29 C 105.99 144.28 85.00 144.34 64.01 144.25 C 53.35 144.30 44.07 134.65 44.08 124.07 C 44.10 101.70 43.94 79.32 44.11 56.95 Z" />
</g>
</svg>
