<?xml version="1.0" encoding="UTF-8" ?>
<!DOCTYPE svg PUBLIC "-//W3C//DTD SVG 1.1//EN" "http://www.w3.org/Graphics/SVG/1.1/DTD/svg11.dtd">
<svg width="192pt" height="192pt" viewBox="0 0 192 192" version="1.1" xmlns="http://www.w3.org/2000/svg">
<g id="#8392a2ff">
<path fill="#8392a2" opacity="1.00" d=" M 15.06 59.93 C 14.81 57.68 16.59 55.51 18.95 55.78 C 28.29 55.66 37.64 55.75 46.98 55.74 C 53.52 55.79 60.94 57.35 64.96 63.00 C 69.07 68.81 68.14 76.33 68.09 83.04 C 68.13 87.61 65.93 91.88 62.24 94.54 C 66.86 96.89 69.13 101.99 69.18 107.00 C 69.24 113.72 70.19 121.21 66.21 127.09 C 62.17 132.85 54.61 134.47 47.98 134.53 C 38.31 134.54 28.64 134.64 18.98 134.49 C 16.54 134.75 14.76 132.39 15.06 130.10 C 15.01 106.71 15.00 83.31 15.06 59.93 M 29.13 68.23 C 29.08 75.06 29.08 81.88 29.11 88.71 C 36.78 87.76 45.79 90.97 52.56 86.56 C 55.31 81.14 56.37 69.06 47.87 68.38 C 41.63 68.09 35.37 68.38 29.13 68.23 M 29.15 100.66 C 29.05 107.76 29.12 114.87 29.08 121.97 C 35.74 121.99 42.41 122.23 49.05 121.88 C 52.65 121.85 55.57 118.58 55.29 115.00 C 55.25 110.32 56.70 103.06 50.87 101.24 C 43.73 100.00 36.38 100.98 29.15 100.66 Z" />
<path fill="#8392a2" opacity="1.00" d=" M 123.61 59.99 C 123.42 57.99 124.77 55.71 126.99 55.81 C 136.64 55.64 146.30 55.71 155.95 55.79 C 163.07 56.09 171.74 57.69 175.21 64.75 C 179.02 72.94 177.68 82.28 177.67 91.03 C 177.62 98.55 173.39 106.03 165.90 108.28 C 168.96 115.62 173.01 122.49 176.29 129.73 C 177.38 131.55 176.45 134.55 174.02 134.44 C 170.31 134.40 165.35 135.73 162.83 132.18 C 158.74 125.03 155.82 117.26 151.71 110.13 C 147.33 108.98 142.37 109.99 137.76 109.68 C 137.30 117.43 138.59 125.46 137.11 133.05 C 133.20 135.69 122.47 136.33 123.56 129.01 C 123.61 106.00 123.50 82.99 123.61 59.99 M 137.75 68.47 C 137.74 77.95 137.74 87.43 137.75 96.91 C 145.66 96.04 155.50 99.54 162.07 94.06 C 164.48 86.93 164.63 78.13 161.89 71.09 C 155.14 66.04 145.64 69.41 137.75 68.47 Z" />
<path fill="#8392a2" opacity="1.00" d=" M 107.38 77.47 C 112.37 76.64 115.86 83.64 111.96 87.01 C 103.59 95.33 95.43 103.90 86.84 111.99 C 82.18 115.21 75.90 108.90 79.17 104.25 C 86.31 96.40 94.17 89.19 101.53 81.53 C 103.26 79.93 104.84 77.69 107.38 77.47 Z" />
</g>
</svg>
