<?xml version="1.0" encoding="UTF-8" ?>
<!DOCTYPE svg PUBLIC "-//W3C//DTD SVG 1.1//EN" "http://www.w3.org/Graphics/SVG/1.1/DTD/svg11.dtd">
<svg width="192pt" height="192pt" viewBox="0 0 192 192" version="1.1" xmlns="http://www.w3.org/2000/svg">
<g id="#f6b02cff">
<path fill="#f6b02c" opacity="1.00" d=" M 57.67 35.63 C 64.38 22.90 84.24 17.70 94.70 28.71 C 105.11 17.78 124.94 22.79 131.62 35.51 C 138.49 36.25 145.66 38.25 150.48 43.50 C 156.39 49.51 157.88 58.37 157.38 66.47 C 177.92 78.81 177.97 114.09 157.36 126.38 C 157.96 134.74 156.24 143.94 149.95 149.95 C 145.09 154.83 138.18 156.60 131.56 157.41 C 124.92 170.14 105.10 175.07 94.70 164.19 C 84.22 175.18 64.43 169.97 57.69 157.27 C 50.53 156.67 43.11 154.29 38.33 148.64 C 32.83 142.59 31.74 134.08 31.97 126.23 C 11.31 113.77 11.79 78.63 32.25 66.14 C 31.38 57.80 33.44 48.62 39.75 42.73 C 44.50 38.07 51.20 36.17 57.67 35.63 M 68.90 38.93 C 73.89 43.50 76.68 50.82 74.40 57.42 C 73.38 60.84 68.74 61.99 65.98 59.97 C 61.42 56.81 66.44 49.61 60.92 46.94 C 54.51 45.99 46.59 48.70 44.34 55.34 C 41.06 61.51 46.85 70.48 39.77 74.76 C 34.13 77.83 29.36 83.05 28.60 89.66 C 27.70 97.71 27.45 107.22 33.57 113.44 C 36.57 116.97 42.33 118.02 43.44 123.03 C 43.68 127.88 42.36 132.98 44.40 137.63 C 46.29 143.04 52.13 145.96 57.61 145.95 C 61.24 139.50 68.56 135.27 76.01 135.76 C 79.10 135.81 83.04 136.68 84.03 140.08 C 85.57 144.20 81.11 148.51 77.02 147.07 C 73.15 146.07 69.42 148.16 67.17 151.21 C 70.06 157.38 77.94 160.63 84.31 158.27 C 88.58 155.91 88.88 150.29 89.13 145.97 C 89.21 113.32 89.17 80.67 89.18 48.02 C 88.97 43.53 88.91 38.01 85.04 34.98 C 79.67 32.22 72.65 34.44 68.90 38.93 M 100.36 45.93 C 100.28 79.30 100.34 112.68 100.35 146.05 C 100.52 150.48 100.97 156.33 105.56 158.44 C 110.87 160.18 116.88 158.03 120.59 154.01 C 115.45 149.37 112.70 141.81 115.15 135.12 C 116.43 131.75 121.22 130.75 123.83 133.17 C 127.78 136.25 123.30 142.37 127.72 145.26 C 131.69 147.17 136.75 145.49 140.42 143.43 C 146.47 139.46 146.76 131.41 145.91 124.95 C 145.54 117.50 155.03 116.67 157.90 110.90 C 162.66 102.48 162.59 91.24 158.33 82.64 C 155.70 76.66 146.98 75.82 145.90 69.06 C 146.28 63.28 147.08 56.71 143.12 51.89 C 140.45 48.69 135.53 46.21 131.56 47.54 C 126.80 55.14 116.65 59.37 108.10 55.98 C 102.97 53.68 105.21 44.82 110.93 45.69 C 115.18 46.74 119.59 45.38 122.22 41.82 C 119.77 35.75 112.27 32.64 106.11 34.19 C 101.32 35.73 100.57 41.61 100.36 45.93 Z" />
<path fill="#f6b02c" opacity="1.00" d=" M 60.33 85.41 C 64.84 83.63 70.51 87.69 68.59 92.65 C 67.30 97.37 60.74 94.87 58.88 99.00 C 57.32 101.61 59.29 104.20 60.84 106.25 C 63.23 109.63 60.11 114.87 55.99 114.48 C 51.97 114.22 49.65 110.17 48.22 106.86 C 44.60 97.96 50.85 86.89 60.33 85.41 Z" />
<path fill="#f6b02c" opacity="1.00" d=" M 124.29 85.40 C 134.14 83.51 143.54 93.30 142.17 103.04 C 141.59 107.54 139.19 112.26 134.98 114.30 C 129.87 116.10 125.30 109.06 129.26 105.26 C 132.79 102.31 130.66 96.09 125.97 96.19 C 119.90 96.40 118.41 86.98 124.29 85.40 Z" />
</g>
</svg>
