<?xml version="1.0" encoding="UTF-8" ?>
<!DOCTYPE svg PUBLIC "-//W3C//DTD SVG 1.1//EN" "http://www.w3.org/Graphics/SVG/1.1/DTD/svg11.dtd">
<svg width="192pt" height="192pt" viewBox="0 0 192 192" version="1.1" xmlns="http://www.w3.org/2000/svg">
<g id="#ff623cff">
<path fill="#ff623c" opacity="1.00" d=" M 72.90 24.19 C 80.61 22.46 87.91 18.50 95.99 18.73 C 103.70 18.64 110.76 22.05 118.06 23.99 C 128.21 24.53 139.86 16.53 148.95 24.06 C 157.78 33.71 165.61 44.34 172.53 55.44 C 177.31 62.85 176.79 73.21 170.84 79.81 C 163.88 87.26 156.80 94.61 149.82 102.04 C 157.78 116.02 149.10 133.15 135.79 139.97 C 134.65 143.97 132.28 147.57 128.71 149.78 C 120.39 155.29 112.93 161.95 105.25 168.28 C 99.82 172.78 91.40 172.50 86.12 167.89 C 78.91 161.70 71.69 155.48 63.70 150.29 C 59.92 148.00 57.42 144.21 56.19 140.03 C 48.22 135.24 41.25 127.85 39.51 118.44 C 37.87 110.35 41.17 101.60 47.16 96.09 C 50.45 93.69 54.49 97.56 54.41 101.00 C 53.92 105.89 49.82 109.85 50.32 114.92 C 50.75 120.96 55.15 125.68 59.80 129.10 C 68.89 122.84 79.18 118.48 89.40 114.41 C 92.22 113.70 95.08 110.13 92.51 107.57 C 85.93 102.33 78.36 98.39 71.70 93.23 C 70.29 92.29 69.97 90.37 70.76 88.93 C 73.23 83.42 76.78 78.45 79.05 72.85 C 80.39 69.40 78.28 65.45 74.96 64.11 C 66.18 60.39 56.93 57.79 48.32 53.66 C 57.01 52.74 66.05 50.46 74.60 53.46 C 78.43 54.95 83.46 54.75 86.25 58.07 C 86.15 69.58 80.88 80.86 81.65 92.34 C 90.37 96.49 100.88 96.70 109.73 92.75 C 111.33 91.98 110.64 89.82 110.62 88.43 C 109.15 78.57 106.64 68.86 105.54 58.97 C 106.67 54.75 112.44 55.33 115.80 53.85 C 124.78 50.30 134.42 52.69 143.65 53.59 C 134.84 57.87 125.29 60.41 116.35 64.37 C 113.17 65.79 111.57 69.75 112.92 72.96 C 115.35 78.87 119.24 84.07 121.54 90.02 C 122.04 91.95 120.39 93.13 119.06 94.14 C 112.78 98.57 106.18 102.55 99.96 107.07 C 97.21 108.78 98.65 112.73 101.24 113.75 C 111.77 118.31 122.79 122.29 132.19 129.02 C 138.14 125.03 143.80 117.52 140.88 110.06 C 139.61 105.96 135.43 101.10 139.13 97.10 C 146.57 88.90 154.42 81.08 161.94 72.95 C 164.88 70.01 165.46 65.23 163.20 61.71 C 157.54 52.02 150.49 43.22 143.46 34.50 C 142.49 33.53 141.62 31.88 140.00 32.11 C 132.55 32.37 125.43 35.35 117.97 35.38 C 109.86 34.03 102.37 29.28 93.95 29.90 C 87.09 30.88 80.79 34.08 74.01 35.41 C 66.05 35.67 58.39 31.72 50.45 32.35 C 42.10 42.20 33.71 52.34 27.76 63.86 C 25.52 72.90 35.87 77.38 40.05 83.88 C 43.63 88.20 37.93 94.70 33.14 92.05 C 28.84 88.67 25.50 84.22 21.61 80.38 C 15.23 73.87 14.52 62.99 19.44 55.43 C 26.16 44.45 33.99 34.14 42.46 24.48 C 51.18 16.64 62.91 24.02 72.90 24.19 M 69.35 140.59 C 78.98 146.15 86.49 155.03 96.00 160.42 C 105.43 154.96 112.95 146.23 122.38 140.45 C 112.72 136.68 103.39 131.84 96.00 124.41 C 88.61 131.98 79.02 136.66 69.35 140.59 Z" />
</g>
</svg>
