<?xml version="1.0" encoding="UTF-8" ?>
<!DOCTYPE svg PUBLIC "-//W3C//DTD SVG 1.1//EN" "http://www.w3.org/Graphics/SVG/1.1/DTD/svg11.dtd">
<svg width="192pt" height="192pt" viewBox="0 0 192 192" version="1.1" xmlns="http://www.w3.org/2000/svg">
<g id="#1bb3ffff">
<path fill="#1bb3ff" opacity="1.00" d=" M 21.50 43.93 C 21.67 32.07 32.17 21.58 44.04 21.42 C 78.35 21.31 112.66 21.34 146.98 21.36 C 159.11 21.22 170.05 31.86 170.18 44.01 C 170.23 67.68 170.29 91.36 170.16 115.03 C 170.19 121.21 160.18 121.99 159.26 115.90 C 158.80 92.27 159.28 68.60 159.05 44.96 C 159.23 38.45 153.51 32.49 146.98 32.55 C 112.97 32.51 78.95 32.52 44.94 32.52 C 38.28 32.31 32.33 38.35 32.56 45.01 C 32.51 78.67 32.55 112.33 32.56 145.99 C 32.09 152.81 38.08 159.14 44.91 158.98 C 78.97 159.00 113.03 159.05 147.09 158.95 C 154.14 158.93 159.80 152.17 159.04 145.24 C 123.35 145.17 87.64 145.41 51.96 145.11 C 45.63 144.76 45.65 134.44 51.94 134.08 C 69.27 133.75 86.61 134.14 103.95 133.88 C 89.06 111.15 74.08 88.47 59.34 65.65 C 55.44 60.01 64.78 53.81 68.51 59.44 C 82.73 80.67 96.49 102.22 110.68 123.47 C 118.15 111.98 125.19 100.20 132.91 88.89 C 136.71 84.40 144.66 89.53 142.05 94.88 C 134.15 108.05 125.63 120.87 117.42 133.86 C 133.60 134.19 149.81 133.71 165.98 134.10 C 171.72 135.53 170.07 142.60 170.21 146.99 C 170.40 159.37 159.33 170.33 146.99 170.20 C 113.66 170.31 80.34 170.20 47.02 170.25 C 34.26 171.34 21.85 160.92 21.50 147.99 C 21.41 113.31 21.45 78.62 21.50 43.93 Z" />
<path fill="#1bb3ff" opacity="1.00" d=" M 54.38 42.43 C 59.22 40.98 64.25 46.05 62.72 50.88 C 61.65 56.25 53.74 57.73 50.64 53.33 C 47.60 49.68 49.71 43.42 54.38 42.43 Z" />
</g>
</svg>
