<?xml version="1.0" encoding="UTF-8" ?>
<!DOCTYPE svg PUBLIC "-//W3C//DTD SVG 1.1//EN" "http://www.w3.org/Graphics/SVG/1.1/DTD/svg11.dtd">
<svg width="192pt" height="192pt" viewBox="0 0 192 192" version="1.1" xmlns="http://www.w3.org/2000/svg">
<g id="#18b9c5ff">
<path fill="#18b9c5" opacity="1.00" d=" M 21.49 43.94 C 21.64 31.73 32.75 21.11 44.93 21.38 C 78.98 21.35 113.02 21.31 147.07 21.36 C 159.17 21.27 170.06 31.89 170.18 44.00 C 170.25 67.68 170.30 91.36 170.16 115.04 C 170.20 121.23 160.16 122.01 159.26 115.91 C 158.79 92.27 159.30 68.60 159.04 44.95 C 159.22 38.45 153.49 32.50 146.98 32.56 C 112.97 32.53 78.95 32.53 44.94 32.54 C 38.29 32.32 32.35 38.36 32.57 45.00 C 32.52 78.66 32.56 112.33 32.56 145.99 C 32.10 152.81 38.08 159.14 44.92 158.98 C 78.97 158.99 113.03 159.05 147.09 158.95 C 154.13 158.94 159.81 152.18 159.02 145.25 C 123.34 145.19 87.64 145.43 51.96 145.13 C 45.63 144.79 45.64 134.43 51.94 134.08 C 69.26 133.73 86.60 134.17 103.93 133.86 C 89.03 111.15 74.06 88.47 59.33 65.65 C 55.44 60.01 64.78 53.80 68.51 59.44 C 82.73 80.67 96.49 102.21 110.68 123.47 C 118.15 111.99 125.18 100.19 132.91 88.89 C 136.71 84.39 144.67 89.54 142.06 94.88 C 134.20 108.06 125.61 120.82 117.48 133.85 C 133.64 134.20 149.82 133.70 165.98 134.11 C 171.71 135.52 170.08 142.61 170.22 147.00 C 170.40 159.38 159.34 170.33 146.99 170.22 C 113.66 170.33 80.34 170.22 47.01 170.27 C 34.25 171.36 21.84 160.92 21.49 147.98 C 21.41 113.30 21.44 78.62 21.49 43.94 Z" />
<path fill="#18b9c5" opacity="1.00" d=" M 54.38 42.43 C 62.84 39.82 66.45 53.95 57.88 55.73 C 49.24 58.54 45.70 44.22 54.38 42.43 Z" />
</g>
</svg>
