<?xml version="1.0" encoding="UTF-8" ?>
<!DOCTYPE svg PUBLIC "-//W3C//DTD SVG 1.1//EN" "http://www.w3.org/Graphics/SVG/1.1/DTD/svg11.dtd">
<svg width="192pt" height="192pt" viewBox="0 0 192 192" version="1.1" xmlns="http://www.w3.org/2000/svg">
<g id="#606f80ff">
<path fill="#606f80" opacity="1.00" d=" M 82.32 12.39 C 113.91 6.91 147.69 22.18 164.53 49.44 C 177.04 68.91 180.54 93.80 174.07 116.00 C 165.75 146.05 138.84 169.83 107.96 174.26 C 76.91 179.54 43.73 164.73 26.80 138.21 C 8.62 111.24 9.08 73.39 27.86 46.84 C 40.33 28.59 60.46 15.78 82.32 12.39 M 66.41 27.38 C 61.87 34.13 59.03 42.02 56.80 49.83 C 67.19 41.40 77.79 33.18 89.27 26.25 C 91.09 25.50 92.63 22.71 90.79 21.32 C 82.42 21.64 73.85 23.49 66.41 27.38 M 99.29 21.31 C 98.13 25.45 102.57 26.82 105.26 28.71 C 115.39 34.99 124.67 42.48 134.07 49.77 C 131.70 42.05 128.73 34.38 124.52 27.46 C 116.77 23.56 107.98 21.51 99.29 21.31 M 64.32 54.09 C 73.25 51.30 82.38 49.33 91.56 47.60 C 91.58 43.03 91.67 38.46 91.49 33.89 C 81.85 39.76 72.61 46.41 64.32 54.09 M 99.35 33.91 C 99.14 38.51 99.19 43.11 99.34 47.71 C 108.52 49.25 117.58 51.40 126.48 54.16 C 118.18 46.49 108.88 39.95 99.35 33.91 M 43.23 43.37 C 43.42 46.97 45.58 50.09 47.18 53.21 C 49.35 46.90 51.53 40.59 53.83 34.32 C 50.03 36.99 46.27 39.83 43.23 43.37 M 137.23 34.87 C 139.23 40.96 141.34 47.01 143.57 53.01 C 145.26 50.08 146.57 46.96 147.79 43.81 C 144.77 40.29 141.23 37.24 137.23 34.87 M 31.36 60.09 C 34.73 60.16 38.11 60.04 41.48 59.81 C 40.38 56.56 38.93 53.45 37.17 50.51 C 34.98 53.54 32.93 56.69 31.36 60.09 M 149.87 59.74 C 153.04 59.98 156.22 60.11 159.40 60.12 C 157.89 56.77 155.93 53.66 153.84 50.64 C 151.41 53.06 150.40 56.44 149.87 59.74 M 63.77 62.82 C 73.18 66.02 82.59 69.27 91.41 73.93 C 91.69 67.97 91.67 62.00 91.46 56.04 C 81.91 56.44 72.61 59.32 63.77 62.82 M 99.36 56.13 C 99.31 62.03 98.94 67.95 99.50 73.83 C 107.97 68.95 117.58 66.72 126.34 62.57 C 117.70 59.26 108.68 56.31 99.36 56.13 M 27.53 68.51 C 25.00 75.00 23.38 81.92 23.66 88.92 C 28.26 81.61 33.61 74.83 38.48 67.72 C 34.81 67.67 31.16 68.04 27.53 68.51 M 152.06 67.82 C 157.32 74.77 162.42 81.82 167.30 89.03 C 167.13 82.16 166.09 75.11 163.12 68.86 C 159.67 67.35 155.74 67.79 152.06 67.82 M 55.48 69.25 C 60.04 78.02 65.34 86.40 70.98 94.50 C 76.50 89.91 82.08 85.32 87.24 80.33 C 77.25 75.14 66.58 71.24 55.48 69.25 M 103.67 80.26 C 108.48 85.54 114.24 90.05 119.90 94.42 C 125.36 86.33 130.66 78.08 135.03 69.34 C 124.11 71.40 113.48 75.02 103.67 80.26 M 148.31 75.88 C 150.13 88.81 148.92 101.79 147.55 114.67 C 153.54 111.62 161.38 109.55 165.24 104.01 C 161.69 93.62 155.42 84.20 148.31 75.88 M 25.97 102.14 C 25.16 103.52 25.50 105.22 26.88 106.09 C 31.89 109.72 37.53 112.46 43.32 114.61 C 41.31 102.10 41.44 89.47 41.93 76.87 C 35.36 84.40 29.77 92.88 25.97 102.14 M 50.12 76.38 C 48.75 89.24 48.63 102.42 51.39 115.12 C 55.68 110.80 59.57 106.11 63.88 101.81 C 65.92 100.14 63.82 97.78 62.86 96.16 C 58.27 89.78 54.89 82.62 50.12 76.38 M 125.47 100.07 C 129.96 105.18 134.68 110.10 139.23 115.17 C 141.86 102.60 142.64 89.48 140.23 76.81 C 135.29 84.56 130.36 92.31 125.47 100.07 M 77.35 99.36 C 75.02 100.85 76.59 103.44 77.86 105.04 C 82.43 111.06 86.46 117.49 91.35 123.26 C 91.69 111.43 91.52 99.58 91.46 87.74 C 86.18 90.81 82.03 95.48 77.35 99.36 M 99.43 87.67 C 99.04 99.60 99.35 111.55 99.24 123.48 C 104.84 116.23 110.46 108.94 115.17 101.08 C 110.11 96.41 105.16 91.53 99.43 87.67 M 57.73 119.92 C 66.43 122.65 75.22 125.34 84.21 126.93 C 79.59 120.11 74.72 113.47 69.78 106.88 C 65.45 110.92 61.40 115.28 57.73 119.92 M 106.53 126.92 C 115.51 125.33 124.27 122.68 132.96 119.95 C 129.32 115.28 125.30 110.91 120.94 106.91 C 115.93 113.43 111.26 120.20 106.53 126.92 M 146.03 123.48 C 148.34 127.71 151.17 131.63 153.99 135.54 C 158.74 129.49 162.16 122.41 164.18 115.00 C 158.17 117.91 152.24 121.01 146.03 123.48 M 26.75 115.30 C 28.58 122.62 32.17 129.36 36.45 135.54 C 39.77 132.04 42.05 127.75 44.69 123.75 C 38.79 120.77 32.65 118.29 26.75 115.30 M 54.50 126.95 C 55.94 131.43 56.87 136.60 59.78 140.28 C 67.44 140.20 75.95 139.17 82.38 134.66 C 73.04 132.28 63.72 129.81 54.50 126.95 M 107.60 134.67 C 114.56 138.80 123.00 140.12 130.98 140.34 C 133.78 136.43 134.73 131.50 136.30 127.00 C 126.74 129.60 117.23 132.34 107.60 134.67 M 43.74 140.20 C 46.09 140.43 48.46 140.46 50.82 140.25 C 50.10 137.85 49.36 135.45 48.38 133.14 C 45.50 133.94 44.64 137.67 43.74 140.20 M 139.91 140.19 C 142.33 140.51 144.77 140.42 147.18 140.04 C 146.23 137.27 144.52 134.86 142.76 132.55 C 141.56 135.00 140.64 137.57 139.91 140.19 M 106.70 143.24 C 110.51 149.15 115.23 154.40 120.13 159.42 C 123.19 156.18 125.60 152.33 127.19 148.16 C 120.23 147.11 113.32 145.68 106.70 143.24 M 63.21 148.10 C 65.16 152.09 67.53 155.86 70.21 159.41 C 75.60 154.79 79.94 149.05 84.05 143.29 C 77.30 145.67 70.30 147.21 63.21 148.10 M 77.76 163.64 C 82.23 164.84 86.83 165.68 91.47 165.59 C 91.70 159.07 91.53 152.55 91.55 146.02 C 87.52 152.34 81.99 157.49 77.76 163.64 M 48.56 148.26 C 51.27 151.23 54.64 153.50 58.23 155.30 C 57.25 150.79 53.40 147.20 48.56 148.26 M 99.42 165.69 C 104.05 165.54 108.69 164.93 113.10 163.46 C 108.56 158.06 103.99 152.69 99.63 147.15 C 99.10 153.31 99.18 159.51 99.42 165.69 M 132.16 155.23 C 135.82 153.46 139.16 151.09 141.98 148.16 C 136.67 146.85 133.84 150.89 132.16 155.23 Z" />
</g>
</svg>
