<?xml version="1.0" encoding="UTF-8" ?>
<!DOCTYPE svg PUBLIC "-//W3C//DTD SVG 1.1//EN" "http://www.w3.org/Graphics/SVG/1.1/DTD/svg11.dtd">
<svg width="192pt" height="192pt" viewBox="0 0 192 192" version="1.1" xmlns="http://www.w3.org/2000/svg">
<g id="#8b8a9fff">
<path fill="#8b8a9f" opacity="1.00" d=" M 38.33 21.42 C 41.17 20.75 44.10 20.71 47.00 20.71 C 80.33 20.79 113.66 20.64 146.98 20.77 C 159.28 20.75 170.14 31.71 170.14 43.98 C 170.26 78.32 170.20 112.67 170.18 147.01 C 170.45 159.47 159.50 170.85 146.98 170.76 C 112.33 170.79 77.67 170.78 43.02 170.71 C 30.63 170.69 19.82 159.39 20.12 147.05 C 20.12 112.68 20.10 78.30 20.17 43.93 C 20.15 33.43 28.12 23.70 38.33 21.42 M 40.37 32.53 C 34.99 33.96 31.10 39.40 31.39 44.95 C 31.41 78.99 31.38 113.03 31.42 147.06 C 31.22 153.72 37.28 159.70 43.94 159.43 C 77.98 159.44 112.02 159.41 146.05 159.41 C 152.78 159.78 158.93 153.80 158.77 147.07 C 158.82 113.03 158.78 78.98 158.80 44.93 C 159.23 38.03 153.00 31.70 146.07 32.14 C 110.85 32.39 75.55 31.60 40.37 32.53 Z" />
<path fill="#8b8a9f" opacity="1.00" d=" M 53.22 51.97 C 52.97 48.82 55.93 46.15 59.01 46.45 C 65.51 46.55 72.06 46.12 78.54 46.67 C 82.66 47.73 82.63 52.58 82.45 56.00 C 82.04 60.75 83.70 66.16 80.44 70.20 C 84.04 75.02 81.85 81.44 82.45 87.01 C 83.02 90.38 80.61 93.98 77.03 93.99 C 71.02 94.26 64.98 94.21 58.96 94.01 C 55.78 94.10 52.85 91.34 53.19 88.09 C 53.17 76.05 53.14 64.00 53.22 51.97 M 64.14 57.32 C 64.15 59.78 64.14 62.24 64.12 64.70 C 66.58 64.71 69.05 64.72 71.51 64.73 C 71.49 62.28 71.48 59.82 71.47 57.37 C 69.03 57.37 66.59 57.35 64.14 57.32 M 64.15 75.62 C 64.14 78.11 64.14 80.60 64.13 83.09 C 66.58 83.08 69.04 83.09 71.49 83.09 C 71.47 80.60 71.46 78.11 71.43 75.62 C 69.00 75.63 66.58 75.63 64.15 75.62 Z" />
<path fill="#8b8a9f" opacity="1.00" d=" M 89.84 51.95 C 89.74 49.06 92.23 46.39 95.15 46.47 C 101.64 46.43 108.15 46.27 114.63 46.55 C 118.67 47.04 119.51 51.66 119.19 55.00 C 118.77 60.04 120.44 65.70 117.29 70.12 C 120.13 74.21 118.95 79.34 119.20 83.99 C 119.06 86.82 119.68 90.26 117.46 92.47 C 114.67 95.35 108.99 93.77 108.34 89.72 C 107.87 85.05 108.29 80.34 108.12 75.65 C 105.66 75.65 103.20 75.65 100.74 75.65 C 100.60 80.32 100.97 85.02 100.56 89.68 C 100.09 93.78 94.30 95.30 91.53 92.48 C 89.45 90.59 89.82 87.54 89.73 85.00 C 89.86 73.99 89.63 62.96 89.84 51.95 M 100.79 57.34 C 100.72 59.79 100.74 62.24 100.76 64.69 C 103.23 64.69 105.70 64.72 108.18 64.74 C 108.13 62.28 108.14 59.82 108.06 57.35 C 105.64 57.36 103.21 57.36 100.79 57.34 Z" />
<path fill="#8b8a9f" opacity="1.00" d=" M 131.36 46.44 C 134.97 45.96 137.98 49.48 137.44 52.98 C 137.32 65.31 137.70 77.66 137.26 89.97 C 136.11 95.37 127.34 95.07 126.64 89.59 C 126.24 77.39 126.59 65.15 126.48 52.94 C 126.13 49.90 128.17 46.69 131.36 46.44 Z" />
<path fill="#8b8a9f" opacity="1.00" d=" M 53.23 102.97 C 53.17 98.96 57.61 97.34 60.99 97.82 C 66.28 98.29 72.25 96.45 76.90 99.74 C 81.63 96.46 87.66 98.34 93.01 97.83 C 96.40 97.30 100.73 99.03 100.66 102.99 C 100.75 115.61 100.86 128.26 100.61 140.87 C 100.17 146.80 90.66 146.83 89.94 141.01 C 89.47 130.28 89.96 119.52 89.69 108.77 C 87.26 108.72 84.83 108.76 82.40 108.87 C 82.36 119.59 82.65 130.32 82.29 141.02 C 81.62 146.93 72.05 146.69 71.59 140.82 C 71.27 130.13 71.65 119.43 71.42 108.74 C 69.00 108.75 66.58 108.74 64.16 108.73 C 63.94 119.47 64.46 130.25 63.91 140.97 C 63.32 146.84 53.82 146.76 53.28 140.91 C 53.02 128.27 53.16 115.61 53.23 102.97 Z" />
<path fill="#8b8a9f" opacity="1.00" d=" M 111.33 98.35 C 117.80 97.22 124.50 98.13 131.06 97.85 C 134.57 97.36 137.87 100.41 137.44 103.98 C 137.43 115.99 137.51 128.02 137.41 140.03 C 137.58 142.94 134.94 145.58 132.03 145.44 C 126.02 145.56 120.00 145.52 113.99 145.45 C 110.53 145.77 107.71 142.41 108.13 139.07 C 108.13 127.35 108.11 115.64 108.15 103.92 C 107.99 101.63 109.16 99.27 111.33 98.35 M 119.20 108.76 C 119.13 117.33 119.20 125.91 119.15 134.48 C 121.59 134.49 124.02 134.50 126.46 134.51 C 126.45 125.93 126.53 117.35 126.40 108.77 C 124.00 108.77 121.60 108.77 119.20 108.76 Z" />
</g>
</svg>
