<?xml version="1.0" encoding="UTF-8" ?>
<!DOCTYPE svg PUBLIC "-//W3C//DTD SVG 1.1//EN" "http://www.w3.org/Graphics/SVG/1.1/DTD/svg11.dtd">
<svg width="192pt" height="192pt" viewBox="0 0 192 192" version="1.1" xmlns="http://www.w3.org/2000/svg">
<g id="#396b7bff">
<path fill="#396b7b" opacity="1.00" d=" M 40.37 22.49 C 76.90 21.96 113.50 22.28 150.04 22.30 C 156.86 21.90 157.72 33.09 150.88 33.59 C 114.30 33.84 77.69 33.74 41.11 33.61 C 34.80 33.64 34.15 23.36 40.37 22.49 Z" />
<path fill="#396b7b" opacity="1.00" d=" M 29.40 41.56 C 72.60 41.00 115.84 41.47 159.05 41.31 C 169.17 40.90 178.35 49.89 178.20 60.01 C 178.30 88.34 178.22 116.67 178.24 144.99 C 178.47 154.07 172.81 162.92 164.39 166.38 C 159.26 168.71 153.49 168.33 148.00 168.32 C 113.33 168.31 78.67 168.30 44.00 168.31 C 38.50 168.32 32.76 168.69 27.58 166.50 C 19.05 163.14 13.16 154.21 13.45 145.05 C 13.48 116.68 13.43 88.31 13.48 59.94 C 13.42 51.02 20.55 42.75 29.40 41.56 M 30.49 52.78 C 26.89 53.66 24.43 57.33 24.65 60.99 C 24.64 88.99 24.62 117.00 24.67 145.00 C 24.31 151.66 30.39 157.34 36.95 157.00 C 75.98 157.12 115.01 157.06 154.03 157.01 C 160.76 157.59 167.35 152.00 166.92 145.07 C 166.96 117.02 166.95 88.97 166.96 60.93 C 167.32 56.08 162.86 51.90 158.05 52.53 C 115.54 52.75 72.99 52.23 30.49 52.78 Z" />
<path fill="#396b7b" opacity="1.00" d=" M 129.20 78.23 C 134.68 75.61 139.98 83.44 135.47 87.48 C 122.38 100.71 109.13 113.80 95.98 126.98 C 90.92 132.36 81.63 132.88 76.11 127.89 C 71.44 123.57 67.13 118.87 62.52 114.48 C 60.54 112.47 57.81 110.20 58.51 107.03 C 58.95 102.96 64.43 100.60 67.53 103.44 C 73.24 108.39 78.08 114.28 83.80 119.23 C 84.97 120.52 86.76 119.93 87.81 118.82 C 101.81 105.52 114.84 91.10 129.20 78.23 Z" />
</g>
</svg>
