<?xml version="1.0" encoding="UTF-8" ?>
<!DOCTYPE svg PUBLIC "-//W3C//DTD SVG 1.1//EN" "http://www.w3.org/Graphics/SVG/1.1/DTD/svg11.dtd">
<svg width="192pt" height="192pt" viewBox="0 0 192 192" version="1.1" xmlns="http://www.w3.org/2000/svg">
<g id="#76a2a5ff">
<path fill="#76a2a5" opacity="1.00" d=" M 73.00 16.97 C 98.67 9.27 127.72 15.40 148.31 32.47 C 155.27 31.37 162.64 28.07 169.90 30.15 C 174.63 31.29 178.16 36.10 177.51 40.98 C 176.98 47.54 172.10 52.41 168.60 57.58 C 178.83 77.11 180.76 100.77 173.70 121.67 C 165.73 145.90 145.76 165.78 121.44 173.53 C 97.91 181.37 70.86 177.69 50.36 163.70 C 49.12 162.98 47.87 161.58 46.29 162.24 C 39.30 165.65 32.05 169.90 24.00 169.42 C 18.34 169.09 13.82 163.65 14.56 158.02 C 15.37 149.80 20.42 142.91 24.65 136.10 C 14.25 117.70 11.29 95.28 16.71 74.83 C 23.65 47.46 45.83 24.66 73.00 16.97 M 33.54 62.44 C 18.62 89.51 24.49 125.95 47.29 146.85 C 66.37 135.08 85.81 122.49 100.96 106.01 C 97.99 102.80 90.99 97.82 96.62 93.63 C 104.62 91.94 112.89 91.41 121.00 90.25 C 123.91 89.43 127.08 92.03 126.53 95.08 C 125.49 102.73 124.21 110.35 123.12 117.99 C 123.07 121.19 119.04 123.48 116.40 121.53 C 114.10 119.70 112.28 117.34 110.07 115.40 C 94.44 130.77 76.60 143.62 58.11 155.29 C 81.44 170.50 113.85 169.73 136.45 153.48 C 163.96 134.97 174.67 95.92 160.05 66.08 C 152.66 72.71 146.36 80.61 138.10 86.22 C 132.38 89.08 126.38 81.39 130.54 76.56 C 138.66 69.82 145.73 61.94 153.52 54.84 C 140.59 36.07 117.85 24.32 95.01 25.13 C 69.66 24.79 45.27 40.14 33.54 62.44 M 158.86 42.90 C 159.69 44.00 160.37 45.31 161.65 45.96 C 162.47 44.71 163.28 43.44 164.01 42.12 C 162.28 42.33 160.56 42.57 158.86 42.90 M 27.72 156.51 C 30.99 155.66 34.10 154.32 37.11 152.82 C 35.51 150.98 33.91 149.16 32.39 147.25 C 30.59 150.20 28.81 153.21 27.72 156.51 Z" />
</g>
</svg>
