<?xml version="1.0" encoding="UTF-8" ?>
<!DOCTYPE svg PUBLIC "-//W3C//DTD SVG 1.1//EN" "http://www.w3.org/Graphics/SVG/1.1/DTD/svg11.dtd">
<svg width="192pt" height="192pt" viewBox="0 0 192 192" version="1.1" xmlns="http://www.w3.org/2000/svg">
<g id="#f43492ff">
<path fill="#f43492" opacity="1.00" d=" M 73.01 16.99 C 98.68 9.27 127.73 15.43 148.33 32.50 C 155.37 31.23 162.62 28.11 169.90 30.12 C 174.64 31.27 178.17 36.08 177.54 40.99 C 176.86 47.38 172.47 52.48 168.57 57.26 C 179.85 79.22 181.15 106.18 170.93 128.77 C 159.92 154.12 135.30 172.91 107.91 176.70 C 88.01 179.66 67.02 175.03 50.37 163.67 C 49.14 163.01 47.86 161.56 46.33 162.26 C 39.30 165.60 32.08 169.95 23.99 169.42 C 18.33 169.12 13.79 163.65 14.54 158.02 C 15.37 149.80 20.35 142.84 24.68 136.08 C 14.24 117.69 11.34 95.26 16.74 74.82 C 23.69 47.46 45.84 24.68 73.01 16.99 M 33.51 62.44 C 18.57 89.53 24.51 125.93 47.26 146.90 C 66.45 135.07 85.46 122.41 101.17 106.10 C 98.03 103.01 90.96 97.85 96.59 93.63 C 104.59 91.88 112.89 91.40 121.01 90.22 C 123.89 89.42 127.02 91.95 126.54 94.97 C 125.53 102.66 124.26 110.32 123.10 117.99 C 123.11 121.21 119.04 123.47 116.42 121.54 C 114.11 119.71 112.22 117.42 110.09 115.40 C 94.42 130.75 76.64 143.73 58.03 155.26 C 81.38 170.51 113.82 169.76 136.45 153.49 C 164.00 134.96 174.65 95.92 160.09 66.03 C 152.71 72.69 146.41 80.62 138.10 86.20 C 132.41 89.17 126.30 81.34 130.54 76.55 C 138.65 69.77 145.76 61.89 153.58 54.77 C 140.51 36.10 117.90 24.26 95.02 25.10 C 69.64 24.75 45.24 40.12 33.51 62.44 M 158.82 42.88 C 159.62 43.95 160.42 45.03 161.18 46.13 C 162.25 44.87 163.22 43.53 164.09 42.13 C 162.33 42.35 160.58 42.62 158.82 42.88 M 32.31 147.23 C 30.61 150.25 28.90 153.28 27.65 156.52 C 30.95 155.62 34.09 154.28 37.15 152.78 C 35.52 150.94 33.92 149.08 32.31 147.23 Z" />
</g>
</svg>
