<?xml version="1.0" encoding="UTF-8" ?>
<!DOCTYPE svg PUBLIC "-//W3C//DTD SVG 1.1//EN" "http://www.w3.org/Graphics/SVG/1.1/DTD/svg11.dtd">
<svg width="192pt" height="192pt" viewBox="0 0 192 192" version="1.1" xmlns="http://www.w3.org/2000/svg">
<g id="#b77e56ff">
<path fill="#b77e56" opacity="1.00" d=" M 84.42 14.58 C 119.15 9.03 155.65 28.90 170.13 60.87 C 180.37 82.48 180.40 108.65 170.21 130.29 C 154.94 164.33 114.70 184.39 78.33 175.63 C 56.02 170.83 36.07 156.13 24.86 136.26 C 12.86 115.58 10.85 89.52 19.19 67.15 C 29.19 39.46 55.19 18.38 84.42 14.58 M 51.79 40.29 C 54.85 43.34 58.69 45.47 62.29 47.80 C 67.60 49.74 74.25 46.36 79.06 49.95 C 81.96 53.94 83.59 58.70 86.02 62.98 C 89.00 67.81 87.37 73.68 87.81 79.01 C 88.41 86.11 82.30 91.32 80.91 97.93 C 80.45 107.08 81.45 116.33 80.45 125.43 C 76.35 131.18 70.59 135.64 65.79 140.82 C 60.68 146.37 51.11 139.52 46.76 146.09 C 65.07 164.93 94.92 171.43 119.45 162.11 C 114.78 156.61 108.81 152.25 104.61 146.39 C 103.79 142.64 103.65 138.41 104.74 134.70 C 108.72 129.73 113.67 125.60 118.05 120.98 C 118.17 113.30 110.42 107.81 111.02 100.01 C 111.57 95.19 109.83 89.76 112.20 85.34 C 119.26 77.75 127.89 71.24 131.15 60.93 C 129.53 57.51 127.75 54.16 126.09 50.76 C 122.81 44.85 128.97 39.50 130.67 34.07 C 106.27 19.84 73.73 22.64 51.79 40.29 M 140.18 40.78 C 139.11 42.84 138.06 44.92 137.03 47.01 C 138.90 51.41 141.64 55.44 143.13 59.99 C 143.33 64.55 139.85 68.22 138.28 72.31 C 135.34 80.24 127.96 84.97 122.54 91.06 C 122.49 96.17 121.72 101.64 124.87 106.07 C 128.59 111.94 130.80 118.90 128.87 125.80 C 124.90 130.81 119.85 134.86 115.57 139.61 C 115.55 140.11 115.51 141.10 115.49 141.60 C 120.47 146.91 125.70 151.98 130.89 157.09 C 147.23 147.69 159.72 131.70 164.36 113.37 C 171.45 87.25 161.79 57.24 140.18 40.78 M 39.07 137.59 C 43.30 130.49 51.48 131.18 58.68 131.59 C 62.28 127.98 66.39 124.69 69.35 120.56 C 69.62 113.05 69.38 105.52 69.42 98.00 C 68.97 89.89 77.33 84.18 76.44 76.00 C 77.20 70.07 74.74 64.19 71.04 59.74 C 67.19 59.36 63.26 60.13 59.45 59.36 C 53.70 56.29 48.66 52.03 42.98 48.83 C 21.08 72.72 19.34 111.87 39.07 137.59 Z" />
</g>
</svg>
