<?xml version="1.0" encoding="UTF-8" ?>
<!DOCTYPE svg PUBLIC "-//W3C//DTD SVG 1.1//EN" "http://www.w3.org/Graphics/SVG/1.1/DTD/svg11.dtd">
<svg width="192pt" height="192pt" viewBox="0 0 192 192" version="1.1" xmlns="http://www.w3.org/2000/svg">
<g id="#c827c8ff">
<path fill="#c827c8" opacity="1.00" d=" M 69.90 17.93 C 95.35 9.26 125.00 14.13 146.08 30.89 C 147.09 31.46 147.99 32.90 149.31 32.42 C 155.98 30.69 162.99 28.32 169.91 30.10 C 174.66 31.26 178.19 36.06 177.56 40.97 C 176.89 47.33 172.59 52.49 168.61 57.19 C 179.18 78.37 181.06 103.97 172.00 126.02 C 161.57 152.64 136.26 172.74 107.89 176.63 C 87.50 179.74 66.06 174.66 49.15 162.87 C 47.16 161.05 44.88 163.08 42.96 163.93 C 36.80 166.98 30.08 170.27 23.01 169.30 C 17.74 168.56 13.85 163.30 14.52 158.04 C 15.33 149.81 20.32 142.84 24.66 136.08 C 14.24 117.69 11.28 95.27 16.70 74.83 C 23.39 48.52 44.11 26.38 69.90 17.93 M 33.54 62.45 C 18.59 89.53 24.53 125.90 47.23 146.90 C 66.46 135.26 84.93 122.23 101.12 106.56 C 99.45 104.00 96.89 102.22 95.07 99.78 C 93.35 97.35 95.05 93.46 98.03 93.15 C 105.66 92.05 113.33 91.16 120.99 90.19 C 123.91 89.36 127.14 92.01 126.55 95.08 C 125.54 102.73 124.30 110.36 123.13 118.00 C 123.14 121.24 119.03 123.47 116.40 121.56 C 114.10 119.75 112.21 117.49 110.09 115.48 C 94.34 130.72 76.73 143.89 57.98 155.21 C 81.29 170.62 113.82 169.82 136.48 153.57 C 164.04 135.04 174.76 95.93 160.10 66.06 C 152.68 72.69 146.43 80.68 138.11 86.22 C 132.42 89.22 126.23 81.32 130.53 76.54 C 138.61 69.75 145.70 61.89 153.54 54.81 C 140.60 36.03 117.86 24.32 95.01 25.10 C 69.65 24.81 45.26 40.13 33.54 62.45 M 158.85 42.97 C 159.63 44.11 160.52 45.17 161.58 46.06 C 162.38 44.72 163.19 43.39 164.01 42.07 C 162.28 42.36 160.56 42.66 158.85 42.97 M 32.34 147.24 C 30.67 150.23 28.93 153.21 27.78 156.46 C 31.01 155.57 34.10 154.24 37.10 152.76 C 35.52 150.91 33.93 149.07 32.34 147.24 Z" />
</g>
</svg>
