<?xml version="1.0" encoding="UTF-8" ?>
<!DOCTYPE svg PUBLIC "-//W3C//DTD SVG 1.1//EN" "http://www.w3.org/Graphics/SVG/1.1/DTD/svg11.dtd">
<svg width="192pt" height="192pt" viewBox="0 0 192 192" version="1.1" xmlns="http://www.w3.org/2000/svg">
<g id="#bf4d6eff">
<path fill="#bf4d6e" opacity="1.00" d=" M 73.82 16.71 C 99.32 9.35 127.91 15.62 148.35 32.43 C 155.30 31.48 162.64 28.05 169.88 30.17 C 174.54 31.29 178.04 35.98 177.53 40.80 C 176.95 47.25 172.49 52.40 168.57 57.21 C 180.11 79.63 181.20 107.29 170.31 130.17 C 159.06 154.84 134.82 172.98 107.94 176.73 C 88.02 179.68 67.01 175.09 50.35 163.70 C 48.96 162.80 47.29 161.41 45.61 162.56 C 38.83 165.86 31.79 169.91 23.99 169.42 C 18.34 169.10 13.85 163.62 14.57 158.01 C 15.41 149.81 20.44 142.93 24.67 136.12 C 14.20 117.74 11.24 95.29 16.67 74.83 C 23.69 47.16 46.26 24.18 73.82 16.71 M 34.25 61.24 C 18.50 88.44 24.20 125.62 47.31 146.91 C 66.51 135.11 85.52 122.44 101.19 106.12 C 98.09 103.01 91.02 97.85 96.64 93.65 C 104.65 91.97 112.90 91.41 121.01 90.28 C 124.19 89.39 127.25 92.42 126.47 95.59 C 124.99 103.81 124.50 112.30 122.32 120.36 C 117.78 125.48 113.31 118.25 110.05 115.34 C 94.47 130.78 76.61 143.62 58.08 155.25 C 81.40 170.50 113.83 169.73 136.45 153.49 C 163.98 134.97 174.67 95.91 160.04 66.05 C 152.69 72.72 146.37 80.61 138.09 86.19 C 132.43 89.11 126.38 81.36 130.58 76.60 C 138.65 69.79 145.76 61.93 153.59 54.85 C 140.54 36.14 117.90 24.37 95.01 25.13 C 70.16 24.89 46.18 39.58 34.25 61.24 M 158.76 42.87 C 159.68 43.98 160.63 45.06 161.62 46.12 C 162.42 44.78 163.23 43.45 164.04 42.12 C 162.27 42.35 160.51 42.60 158.76 42.87 M 27.70 156.53 C 30.97 155.69 34.08 154.35 37.09 152.84 C 35.49 151.00 33.90 149.15 32.36 147.27 C 30.54 150.21 28.84 153.25 27.70 156.53 Z" />
</g>
</svg>
