<?xml version="1.0" encoding="UTF-8" ?>
<!DOCTYPE svg PUBLIC "-//W3C//DTD SVG 1.1//EN" "http://www.w3.org/Graphics/SVG/1.1/DTD/svg11.dtd">
<svg width="192pt" height="192pt" viewBox="0 0 192 192" version="1.1" xmlns="http://www.w3.org/2000/svg">
<g id="#faa226ff">
<path fill="#faa226" opacity="1.00" d=" M 69.90 17.95 C 95.34 9.26 125.00 14.14 146.09 30.89 C 147.10 31.46 148.01 32.90 149.33 32.45 C 155.99 30.71 163.00 28.34 169.91 30.12 C 174.65 31.28 178.17 36.08 177.53 40.97 C 176.86 47.33 172.54 52.46 168.59 57.18 C 179.01 77.89 181.05 102.87 172.60 124.62 C 162.51 151.96 136.80 172.71 107.92 176.68 C 88.01 179.64 67.02 175.03 50.38 163.65 C 49.14 162.99 47.85 161.54 46.32 162.28 C 39.29 165.60 32.08 169.95 24.01 169.42 C 18.34 169.14 13.81 163.67 14.53 158.03 C 15.36 149.81 20.33 142.84 24.68 136.09 C 14.24 117.71 11.31 95.28 16.72 74.84 C 23.40 48.53 44.11 26.40 69.90 17.95 M 33.52 62.44 C 18.58 89.54 24.52 125.92 47.25 146.91 C 66.44 135.07 85.46 122.41 101.17 106.09 C 98.01 103.02 90.96 97.83 96.60 93.63 C 104.59 91.87 112.88 91.40 120.99 90.22 C 123.91 89.40 127.12 92.01 126.52 95.07 C 125.52 102.73 124.27 110.36 123.10 117.99 C 123.12 121.21 119.02 123.48 116.41 121.53 C 114.10 119.71 112.21 117.43 110.09 115.41 C 94.43 130.80 76.57 143.66 58.06 155.34 C 81.45 170.47 113.82 169.79 136.46 153.51 C 164.01 134.98 174.68 95.92 160.09 66.03 C 152.70 72.68 146.41 80.64 138.10 86.20 C 132.42 89.18 126.28 81.32 130.54 76.55 C 138.64 69.77 145.72 61.89 153.56 54.82 C 140.59 36.05 117.88 24.30 95.02 25.09 C 69.65 24.78 45.25 40.12 33.52 62.44 M 158.86 42.91 C 159.66 44.00 160.46 45.09 161.24 46.20 C 162.22 44.85 163.17 43.48 164.10 42.10 C 162.35 42.35 160.60 42.63 158.86 42.91 M 32.31 147.21 C 30.65 150.23 28.87 153.20 27.77 156.48 C 31.02 155.60 34.10 154.25 37.12 152.80 C 35.52 150.93 33.91 149.08 32.31 147.21 Z" />
</g>
</svg>
