<?xml version="1.0" encoding="UTF-8" ?>
<!DOCTYPE svg PUBLIC "-//W3C//DTD SVG 1.1//EN" "http://www.w3.org/Graphics/SVG/1.1/DTD/svg11.dtd">
<svg width="192pt" height="192pt" viewBox="0 0 192 192" version="1.1" xmlns="http://www.w3.org/2000/svg">
<g id="#cb28c4ff">
<path fill="#cb28c4" opacity="1.00" d=" M 84.41 14.50 C 116.12 9.58 149.58 25.46 165.94 53.04 C 177.90 72.39 180.94 96.83 174.57 118.63 C 167.14 144.64 145.86 166.26 119.90 173.95 C 101.44 179.63 80.98 178.49 63.28 170.76 C 38.70 160.25 20.08 137.02 15.41 110.67 C 11.40 89.35 16.19 66.49 28.74 48.75 C 41.49 30.29 62.15 17.50 84.41 14.50 M 51.72 40.88 C 55.28 43.14 58.64 45.71 62.28 47.87 C 67.57 49.82 74.21 46.43 79.03 49.98 C 82.35 55.13 84.90 60.82 87.44 66.40 C 87.94 71.85 87.77 77.40 87.54 82.87 C 85.92 87.83 82.70 92.12 80.94 97.03 C 80.23 106.45 81.39 116.00 80.40 125.39 C 76.45 130.96 70.86 135.22 66.26 140.27 C 61.24 146.40 51.10 138.99 46.68 146.12 C 65.27 164.96 94.98 171.31 119.76 162.18 C 115.66 157.97 111.47 153.85 107.30 149.70 C 102.83 146.15 103.90 139.63 104.77 134.74 C 108.74 129.76 113.68 125.62 118.08 121.01 C 118.19 113.00 109.91 107.26 111.11 99.00 C 111.72 93.73 109.24 86.98 114.20 83.20 C 121.09 76.71 128.12 70.15 131.21 60.92 C 129.27 56.23 126.03 52.00 124.96 47.00 C 125.99 42.38 128.96 38.46 130.73 34.11 C 106.34 20.08 73.13 22.31 51.72 40.88 M 140.15 40.62 C 139.08 42.74 138.03 44.88 136.98 47.01 C 138.63 50.62 140.52 54.12 142.26 57.69 C 145.00 62.88 139.90 67.60 138.23 72.28 C 135.38 80.16 127.93 84.65 122.78 90.84 C 118.53 103.60 133.45 113.03 128.79 125.78 C 124.84 130.80 119.80 134.86 115.49 139.57 C 115.48 140.09 115.45 141.13 115.44 141.64 C 120.45 146.93 125.66 152.03 130.86 157.13 C 153.95 144.13 168.56 117.55 166.48 91.04 C 165.30 71.53 155.52 52.71 140.15 40.62 M 39.16 137.65 C 41.09 135.75 42.78 133.52 45.11 132.08 C 49.67 130.73 54.68 132.45 59.16 131.18 C 62.68 127.79 66.57 124.53 69.41 120.58 C 69.67 113.40 69.44 106.19 69.48 99.00 C 68.48 90.12 77.91 83.95 76.50 75.01 C 77.36 69.21 74.15 64.18 71.29 59.46 C 67.36 59.54 63.37 59.94 59.48 59.31 C 53.76 56.21 48.68 52.04 43.06 48.75 C 21.18 72.72 19.35 111.88 39.16 137.65 Z" />
</g>
</svg>
