<?xml version="1.0" encoding="UTF-8" ?>
<!DOCTYPE svg PUBLIC "-//W3C//DTD SVG 1.1//EN" "http://www.w3.org/Graphics/SVG/1.1/DTD/svg11.dtd">
<svg width="192pt" height="192pt" viewBox="0 0 192 192" version="1.1" xmlns="http://www.w3.org/2000/svg">
<g id="#43e273ff">
<path fill="#43e273" opacity="1.00" d=" M 79.91 15.81 C 107.66 11.98 136.14 18.56 160.99 31.02 C 165.52 33.08 167.41 38.29 166.87 42.99 C 166.45 70.39 168.31 99.45 155.67 124.68 C 144.39 146.96 123.26 161.88 102.34 174.33 C 98.50 176.98 93.24 177.32 89.28 174.73 C 71.11 164.03 53.13 151.66 40.88 134.15 C 23.70 109.75 24.24 78.54 24.04 50.00 C 24.30 43.80 22.42 35.63 28.72 31.73 C 38.48 26.45 48.98 22.54 59.67 19.59 C 63.15 18.32 67.09 21.29 66.98 24.96 C 67.28 42.30 66.95 59.66 67.14 77.02 C 67.36 86.56 67.93 96.62 72.85 105.07 C 78.18 114.03 87.02 120.10 95.77 125.37 C 106.01 119.24 116.68 111.73 121.11 100.14 C 125.08 88.94 124.50 76.82 124.51 65.12 C 112.58 59.63 99.09 56.89 86.05 59.24 C 83.34 59.67 79.92 60.59 77.85 58.16 C 74.93 55.47 76.18 49.94 80.05 48.91 C 97.41 44.73 116.08 47.98 131.77 56.21 C 134.57 57.68 136.02 60.91 135.81 64.00 C 135.64 78.52 136.58 93.80 130.30 107.31 C 124.36 120.12 112.47 128.70 100.64 135.67 C 98.24 137.15 95.16 137.77 92.55 136.46 C 76.63 128.00 60.91 114.95 57.69 96.20 C 54.16 75.19 56.47 53.74 55.65 32.55 C 48.74 34.82 42.07 37.71 35.47 40.75 C 35.57 66.45 33.63 93.58 44.34 117.66 C 54.32 138.77 74.30 152.58 93.73 164.26 C 95.98 166.14 98.28 163.24 100.34 162.35 C 120.78 149.88 141.68 134.07 149.48 110.41 C 156.58 88.03 155.70 64.00 155.29 40.87 C 132.79 29.41 107.15 24.09 81.97 26.66 C 75.81 27.34 74.07 17.52 79.91 15.81 Z" />
</g>
</svg>
