<?xml version="1.0" encoding="UTF-8" ?>
<!DOCTYPE svg PUBLIC "-//W3C//DTD SVG 1.1//EN" "http://www.w3.org/Graphics/SVG/1.1/DTD/svg11.dtd">
<svg width="192pt" height="192pt" viewBox="0 0 192 192" version="1.1" xmlns="http://www.w3.org/2000/svg">
<g id="#2bc3caff">
<path fill="#2bc3ca" opacity="1.00" d=" M 84.40 14.51 C 116.12 9.57 149.60 25.46 165.97 53.02 C 178.80 73.73 181.37 100.26 173.20 123.16 C 163.24 151.79 136.25 173.62 106.06 176.97 C 75.23 181.15 42.93 165.85 26.65 139.36 C 8.45 111.33 10.18 72.16 30.85 45.89 C 43.67 28.96 63.34 17.37 84.40 14.51 M 51.74 40.93 C 55.29 43.18 58.64 45.74 62.25 47.90 C 67.65 50.01 74.94 46.05 79.45 50.54 C 83.62 58.51 89.40 66.48 87.65 76.00 C 89.21 83.93 83.46 90.07 80.87 97.00 C 80.41 105.66 80.86 114.35 80.67 123.02 C 80.93 126.70 77.34 128.76 75.20 131.20 C 71.19 134.85 67.84 139.29 63.40 142.42 C 58.97 143.16 54.43 142.63 49.96 142.75 C 49.10 144.03 45.89 145.49 47.76 147.15 C 66.15 164.90 94.67 170.94 118.73 162.44 C 116.27 155.94 107.71 152.22 104.48 145.66 C 104.25 142.07 103.82 138.27 104.81 134.79 C 108.78 129.78 113.74 125.62 118.17 121.02 C 118.28 113.00 109.95 107.27 111.21 98.99 C 111.85 93.74 109.28 87.00 114.26 83.26 C 121.19 76.78 128.15 70.15 131.30 60.92 C 129.37 56.24 126.03 52.02 125.08 47.01 C 125.97 42.38 129.03 38.50 130.77 34.16 C 106.42 20.09 73.06 22.24 51.74 40.93 M 140.09 40.67 C 139.00 42.75 138.00 44.89 136.95 46.99 C 138.79 51.77 142.09 55.98 143.21 61.01 C 141.63 66.60 138.30 71.53 135.88 76.78 C 132.22 82.07 126.82 85.89 122.66 90.78 C 122.14 95.92 121.61 101.61 124.75 106.10 C 128.37 111.95 130.86 118.87 128.73 125.73 C 125.07 131.36 117.96 134.94 115.41 140.92 C 119.43 146.99 125.65 151.87 130.87 157.11 C 153.83 143.98 168.51 117.56 166.41 91.05 C 165.24 71.57 155.53 52.65 140.09 40.67 M 39.15 137.65 C 41.13 135.83 42.79 133.57 45.11 132.15 C 49.67 130.74 54.68 132.46 59.21 131.25 C 62.70 128.06 66.06 124.68 69.26 121.21 C 69.96 113.87 69.36 106.39 69.52 99.00 C 68.52 90.12 77.99 83.95 76.53 75.00 C 77.57 69.29 74.01 64.66 71.87 59.73 C 66.76 58.83 60.79 61.19 56.44 57.55 C 51.99 54.60 47.66 51.49 43.08 48.77 C 21.12 72.70 19.40 111.87 39.15 137.65 Z" />
</g>
</svg>
