<?xml version="1.0" encoding="UTF-8" ?>
<!DOCTYPE svg PUBLIC "-//W3C//DTD SVG 1.1//EN" "http://www.w3.org/Graphics/SVG/1.1/DTD/svg11.dtd">
<svg width="192pt" height="192pt" viewBox="0 0 192 192" version="1.1" xmlns="http://www.w3.org/2000/svg">
<g id="#a052c6ff">
<path fill="#a052c6" opacity="1.00" d=" M 40.28 21.29 C 75.78 19.98 111.43 21.09 146.98 20.72 C 159.58 20.16 171.04 31.35 170.87 43.93 C 170.81 77.98 171.31 112.02 170.95 146.06 C 171.07 158.00 160.99 169.00 148.97 169.45 C 139.33 169.53 129.65 169.69 120.01 169.37 C 114.42 168.80 113.98 159.82 119.42 158.57 C 129.25 157.74 139.18 158.71 149.03 158.11 C 154.89 157.45 159.72 151.98 159.62 146.07 C 159.71 112.36 159.65 78.64 159.66 44.92 C 160.16 37.97 153.98 31.66 147.04 31.91 C 113.35 31.82 79.65 31.85 45.96 31.86 C 39.41 31.63 33.16 37.25 33.30 43.93 C 33.25 77.97 33.28 112.02 33.29 146.06 C 33.09 152.39 38.67 158.17 44.99 158.24 C 54.27 158.52 63.57 158.00 72.84 158.45 C 78.67 159.07 78.90 168.64 73.00 169.36 C 63.36 169.70 53.68 169.50 44.03 169.45 C 32.01 169.03 21.82 158.03 22.02 146.05 C 21.96 112.01 22.00 77.97 22.05 43.93 C 21.98 33.36 29.98 23.52 40.28 21.29 Z" />
<path fill="#a052c6" opacity="1.00" d=" M 82.45 42.59 C 88.78 41.72 95.03 47.42 94.63 53.82 C 94.65 59.47 89.60 64.37 84.01 64.50 C 78.20 64.78 72.82 59.82 72.59 54.01 C 72.25 48.37 76.86 43.14 82.45 42.59 Z" />
<path fill="#a052c6" opacity="1.00" d=" M 55.31 43.41 C 61.86 41.57 69.28 47.12 68.91 54.00 C 69.31 59.59 64.46 64.63 58.99 65.03 C 52.80 65.81 46.59 60.33 47.07 54.00 C 46.78 49.07 50.60 44.52 55.31 43.41 Z" />
<path fill="#a052c6" opacity="1.00" d=" M 105.30 43.21 C 110.97 40.83 118.06 44.27 119.81 50.13 C 121.85 55.65 118.36 62.15 112.87 63.96 C 107.17 66.08 100.18 62.49 98.66 56.59 C 97.01 51.28 100.02 45.06 105.30 43.21 Z" />
<path fill="#a052c6" opacity="1.00" d=" M 132.28 43.35 C 138.53 41.65 145.47 46.55 145.90 53.01 C 146.58 58.25 142.85 63.50 137.76 64.74 C 132.08 66.49 125.59 62.62 124.21 56.89 C 122.47 51.14 126.49 44.66 132.28 43.35 Z" />
<path fill="#a052c6" opacity="1.00" d=" M 95.43 66.50 C 101.47 65.79 107.38 70.92 107.53 77.00 C 107.94 82.85 102.86 88.34 97.01 88.49 C 91.32 88.92 85.90 84.29 85.44 78.60 C 84.69 72.70 89.50 66.89 95.43 66.50 Z" />
<path fill="#a052c6" opacity="1.00" d=" M 66.30 67.20 C 74.09 63.74 83.43 71.78 81.10 79.99 C 79.59 87.78 68.99 91.32 63.15 85.88 C 56.77 80.96 58.68 69.77 66.30 67.20 Z" />
<path fill="#a052c6" opacity="1.00" d=" M 118.30 67.29 C 126.24 63.50 135.87 71.79 133.34 80.18 C 131.69 88.61 119.56 91.45 114.27 84.71 C 109.21 79.45 111.56 69.87 118.30 67.29 Z" />
<path fill="#a052c6" opacity="1.00" d=" M 81.38 90.45 C 87.48 89.03 94.12 93.73 94.63 100.00 C 95.37 105.18 91.76 110.44 86.75 111.79 C 81.02 113.74 74.28 109.82 72.92 103.97 C 71.17 98.11 75.40 91.51 81.38 90.45 Z" />
<path fill="#a052c6" opacity="1.00" d=" M 107.34 90.37 C 115.79 88.46 123.54 98.53 119.18 106.14 C 115.80 113.75 103.97 114.32 99.90 107.06 C 95.65 100.84 99.87 91.35 107.34 90.37 Z" />
<path fill="#a052c6" opacity="1.00" d=" M 94.38 112.47 C 99.76 111.33 105.46 114.88 107.02 120.11 C 109.02 125.90 104.93 132.67 99.00 133.93 C 92.71 135.76 85.72 130.51 85.45 124.02 C 84.97 118.63 89.05 113.36 94.38 112.47 Z" />
<path fill="#a052c6" opacity="1.00" d=" M 92.29 148.21 C 99.76 144.83 108.92 151.94 107.47 160.01 C 106.66 168.12 96.02 172.50 89.73 167.30 C 82.91 162.62 84.47 150.93 92.29 148.21 Z" />
</g>
</svg>
