<?xml version="1.0" encoding="UTF-8" ?>
<!DOCTYPE svg PUBLIC "-//W3C//DTD SVG 1.1//EN" "http://www.w3.org/Graphics/SVG/1.1/DTD/svg11.dtd">
<svg width="192pt" height="192pt" viewBox="0 0 192 192" version="1.1" xmlns="http://www.w3.org/2000/svg">
<g id="#759a67ff">
<path fill="#759a67" opacity="1.00" d=" M 82.42 12.56 C 115.36 7.38 150.12 24.89 165.78 54.27 C 182.42 83.68 178.02 123.19 155.13 148.09 C 133.58 172.98 96.32 182.31 65.58 170.48 C 45.08 163.00 27.95 146.90 19.14 126.94 C 7.62 101.53 10.41 70.30 26.37 47.40 C 39.11 28.65 59.93 15.61 82.42 12.56 M 85.39 23.47 C 63.03 25.95 42.54 40.10 31.86 59.83 C 21.33 78.84 20.48 102.81 29.44 122.59 C 36.61 138.68 50.07 151.84 66.29 158.71 C 94.02 170.94 128.95 162.61 148.08 139.07 C 169.73 114.30 170.08 74.25 148.85 49.11 C 133.92 30.35 109.15 20.48 85.39 23.47 Z" />
<path fill="#759a67" opacity="1.00" d=" M 88.90 42.83 C 90.68 38.23 98.13 38.69 99.38 43.44 C 100.08 47.80 99.54 52.26 99.69 56.67 C 115.40 59.17 128.46 72.22 130.89 87.94 C 135.22 88.13 139.58 87.73 143.90 88.17 C 148.91 89.20 149.56 96.90 144.81 98.79 C 140.29 99.97 135.49 99.11 130.86 99.37 C 128.51 115.07 115.36 128.12 99.71 130.57 C 99.55 135.02 100.06 139.52 99.38 143.94 C 97.99 148.72 90.50 148.93 88.82 144.25 C 87.80 139.80 88.58 135.14 88.34 130.61 C 72.56 128.19 59.53 115.09 56.97 99.37 C 52.41 99.10 47.68 99.99 43.24 98.77 C 38.54 96.90 39.12 89.21 44.11 88.17 C 48.40 87.73 52.73 88.12 57.03 87.98 C 59.43 72.23 72.54 59.02 88.33 56.70 C 88.62 52.09 87.72 47.32 88.90 42.83 M 68.60 87.85 C 75.18 88.10 81.76 87.97 88.34 87.98 C 88.34 81.39 88.41 74.81 88.26 68.23 C 78.69 70.54 70.91 78.27 68.60 87.85 M 99.74 68.26 C 99.65 74.81 99.71 81.36 99.70 87.91 C 106.24 88.04 112.79 88.04 119.34 87.92 C 117.08 78.34 109.28 70.61 99.74 68.26 M 68.65 99.39 C 70.82 109.03 78.75 116.77 88.32 119.04 C 88.37 112.49 88.37 105.93 88.31 99.38 C 81.75 99.35 75.20 99.34 68.65 99.39 M 99.71 99.38 C 99.69 105.91 99.67 112.45 99.72 118.98 C 109.22 116.70 117.12 108.98 119.23 99.39 C 112.73 99.33 106.22 99.35 99.71 99.38 Z" />
</g>
</svg>
