<?xml version="1.0" encoding="UTF-8" ?>
<!DOCTYPE svg PUBLIC "-//W3C//DTD SVG 1.1//EN" "http://www.w3.org/Graphics/SVG/1.1/DTD/svg11.dtd">
<svg width="192pt" height="192pt" viewBox="0 0 192 192" version="1.1" xmlns="http://www.w3.org/2000/svg">
<g id="#f6b02cff">
<path fill="#f6b02c" opacity="1.00" d=" M 84.41 13.52 C 104.61 10.78 125.85 15.74 142.48 27.58 C 146.00 29.89 145.24 35.82 141.33 37.28 C 138.34 38.60 135.55 36.39 133.12 34.92 C 113.72 22.44 88.05 20.69 66.99 30.00 C 42.31 40.55 24.88 66.06 24.46 92.96 C 23.54 115.30 34.11 137.61 51.82 151.22 C 73.97 168.98 107.12 171.16 131.39 156.41 C 134.27 154.86 137.25 151.85 140.79 153.18 C 144.90 154.52 145.81 160.74 142.05 163.03 C 122.69 176.70 97.17 180.90 74.34 174.77 C 50.34 168.55 29.77 150.78 19.97 128.03 C 10.15 105.68 10.99 78.95 22.29 57.30 C 34.22 33.73 58.20 16.82 84.41 13.52 Z" />
<path fill="#f6b02c" opacity="1.00" d=" M 153.20 39.41 C 154.63 39.31 156.11 39.79 157.16 40.78 C 184.71 70.22 184.61 120.62 156.85 149.87 C 153.92 152.22 148.93 150.61 148.07 146.90 C 146.97 143.04 150.53 140.33 152.47 137.52 C 172.37 111.90 170.77 72.84 149.31 48.62 C 146.26 45.37 148.77 39.51 153.20 39.41 Z" />
<path fill="#f6b02c" opacity="1.00" d=" M 135.35 58.31 C 140.75 55.60 144.67 61.71 147.85 65.10 C 162.43 81.85 162.35 108.93 147.56 125.52 C 144.51 129.35 139.06 135.76 134.08 130.95 C 129.96 126.60 134.98 122.03 138.13 119.09 C 151.35 105.43 150.17 81.54 136.02 68.97 C 132.37 66.60 130.98 60.71 135.35 58.31 Z" />
<path fill="#f6b02c" opacity="1.00" d=" M 49.33 68.49 C 56.87 68.19 64.45 68.28 72.00 68.47 C 77.19 68.61 82.95 71.51 83.85 77.08 C 84.55 82.99 85.84 91.37 79.30 94.51 C 82.34 95.84 84.82 98.47 84.87 101.95 C 85.29 107.82 86.00 115.69 80.09 119.17 C 73.29 122.70 65.33 120.93 58.00 121.37 C 54.62 121.01 50.67 122.32 47.72 120.29 C 46.96 104.89 47.66 89.40 47.38 73.97 C 47.59 72.15 46.76 68.85 49.33 68.49 M 58.24 77.55 C 58.27 81.80 58.26 86.06 58.24 90.32 C 62.45 90.20 66.75 90.79 70.89 89.89 C 74.53 88.04 73.78 82.58 72.64 79.41 C 68.92 75.83 62.92 78.19 58.24 77.55 M 58.27 98.76 C 58.26 103.22 58.26 107.67 58.25 112.13 C 62.93 111.84 67.89 112.94 72.36 111.33 C 75.14 108.60 74.78 103.22 72.92 100.06 C 68.56 97.57 63.09 99.21 58.27 98.76 Z" />
<path fill="#f6b02c" opacity="1.00" d=" M 121.21 71.13 C 125.61 69.01 129.15 73.36 131.66 76.36 C 142.45 88.84 139.65 109.92 126.08 119.19 C 121.89 121.43 116.60 116.72 118.34 112.29 C 120.50 108.55 124.47 106.00 125.83 101.72 C 128.87 94.36 126.07 85.83 120.27 80.69 C 117.08 78.23 117.48 72.83 121.21 71.13 Z" />
<path fill="#f6b02c" opacity="1.00" d=" M 104.85 85.93 C 107.17 81.68 113.20 82.84 115.44 86.55 C 121.49 92.89 118.30 106.45 109.00 107.15 C 102.59 106.19 103.39 98.37 107.47 95.07 C 105.49 92.54 102.65 89.22 104.85 85.93 Z" />
</g>
</svg>
