<?xml version="1.0" encoding="UTF-8" ?>
<!DOCTYPE svg PUBLIC "-//W3C//DTD SVG 1.1//EN" "http://www.w3.org/Graphics/SVG/1.1/DTD/svg11.dtd">
<svg width="192pt" height="192pt" viewBox="0 0 192 192" version="1.1" xmlns="http://www.w3.org/2000/svg">
<g id="#19afffff">
<path fill="#19afff" opacity="1.00" d=" M 39.31 21.39 C 42.81 20.56 46.44 20.74 50.00 20.73 C 82.33 20.77 114.67 20.69 147.00 20.76 C 158.85 20.71 169.46 31.11 169.79 42.93 C 169.81 50.19 170.12 57.48 169.65 64.72 C 168.79 70.12 160.10 70.24 158.98 64.93 C 158.26 57.37 159.23 49.72 158.51 42.16 C 157.68 36.23 151.96 31.70 146.04 31.85 C 112.34 31.81 78.64 31.78 44.94 31.82 C 39.02 31.77 33.35 36.46 32.65 42.40 C 32.12 49.91 32.96 57.47 32.26 64.97 C 31.00 70.25 22.45 69.99 21.58 64.62 C 21.10 57.75 21.46 50.83 21.41 43.94 C 21.35 33.50 29.13 23.69 39.31 21.39 Z" />
<path fill="#19afff" opacity="1.00" d=" M 21.38 75.38 C 27.79 75.22 34.24 74.96 40.63 75.49 C 49.67 76.04 51.13 89.77 45.13 94.67 C 51.73 99.05 50.55 113.67 41.36 114.32 C 34.75 114.89 28.08 114.50 21.45 114.50 C 20.75 101.50 20.91 88.40 21.38 75.38 M 29.12 82.10 C 29.15 85.27 29.15 88.43 29.14 91.60 C 32.55 91.28 36.53 92.53 39.53 90.51 C 40.88 88.32 40.83 84.86 39.26 82.74 C 36.04 81.55 32.48 82.29 29.12 82.10 M 29.17 97.81 C 29.14 101.13 29.14 104.45 29.14 107.78 C 32.69 107.54 36.62 108.57 39.91 106.95 C 41.49 104.68 41.13 101.38 40.20 98.91 C 36.91 96.93 32.81 98.07 29.17 97.81 Z" />
<path fill="#19afff" opacity="1.00" d=" M 54.46 75.45 C 57.02 75.36 59.80 74.67 62.23 75.79 C 63.55 85.99 61.27 96.61 63.42 106.63 C 67.01 109.17 76.32 109.45 75.65 103.01 C 75.92 94.04 75.36 85.05 75.89 76.10 C 77.89 74.46 81.03 75.22 83.44 75.51 C 84.90 83.50 83.67 91.86 84.09 100.00 C 83.92 104.84 84.41 111.86 78.90 113.97 C 73.00 115.76 66.56 115.52 60.56 114.38 C 55.82 113.49 54.27 108.27 54.29 104.07 C 54.28 94.53 54.03 84.98 54.46 75.45 Z" />
<path fill="#19afff" opacity="1.00" d=" M 90.33 78.93 C 88.72 73.46 100.32 73.46 98.69 78.95 C 98.69 88.44 98.67 97.93 98.70 107.42 C 103.95 107.52 109.21 107.31 114.46 107.65 C 114.73 109.91 114.75 112.19 114.52 114.46 C 106.55 114.66 98.56 114.74 90.58 114.41 C 90.03 102.60 90.50 90.76 90.33 78.93 Z" />
<path fill="#19afff" opacity="1.00" d=" M 118.53 77.94 C 118.14 73.78 123.85 75.16 126.40 75.62 C 127.36 86.14 126.51 96.82 126.82 107.41 C 132.16 107.72 137.60 106.87 142.87 108.01 C 142.85 110.18 142.78 112.34 142.59 114.50 C 134.60 114.54 126.56 114.97 118.59 114.25 C 118.43 102.15 118.51 90.04 118.53 77.94 Z" />
<path fill="#19afff" opacity="1.00" d=" M 137.73 75.26 C 140.62 75.56 145.19 73.79 146.49 77.43 C 148.99 82.55 151.28 87.77 153.75 92.90 C 156.80 87.18 158.80 80.85 162.39 75.46 C 164.69 75.27 168.39 74.23 169.84 76.25 C 167.22 83.69 163.09 90.56 159.81 97.73 C 156.61 102.81 158.59 108.96 157.60 114.54 C 155.11 114.31 151.94 115.39 149.90 113.83 C 148.70 108.64 150.99 102.81 147.91 98.05 C 144.64 90.42 139.63 83.36 137.73 75.26 Z" />
<path fill="#19afff" opacity="1.00" d=" M 24.42 121.50 C 27.77 119.61 32.45 122.31 32.44 126.17 C 32.74 133.11 32.31 140.06 32.59 147.01 C 32.88 153.27 38.72 158.59 44.99 158.32 C 78.66 158.33 112.33 158.31 146.00 158.30 C 152.05 158.63 157.79 153.85 158.53 147.84 C 159.17 140.26 158.31 132.62 158.94 125.05 C 159.90 119.55 168.80 119.62 169.67 125.15 C 170.14 132.43 169.83 139.77 169.83 147.07 C 169.63 159.01 158.99 169.49 147.06 169.52 C 113.02 169.60 78.99 169.53 44.95 169.53 C 33.38 169.81 22.67 160.31 21.56 148.80 C 21.12 141.86 21.45 134.90 21.35 127.95 C 21.18 125.46 21.97 122.63 24.42 121.50 Z" />
</g>
</svg>
