<?xml version="1.0" encoding="UTF-8" ?>
<!DOCTYPE svg PUBLIC "-//W3C//DTD SVG 1.1//EN" "http://www.w3.org/Graphics/SVG/1.1/DTD/svg11.dtd">
<svg width="192pt" height="192pt" viewBox="0 0 192 192" version="1.1" xmlns="http://www.w3.org/2000/svg">
<g id="#f8c537ff">
<path fill="#f8c537" opacity="1.00" d=" M 58.34 22.48 C 81.09 20.74 104.13 22.24 126.99 21.71 C 133.39 21.09 140.11 23.92 143.33 29.64 C 154.40 48.61 165.31 67.68 176.34 86.68 C 179.50 91.69 179.45 98.32 176.33 103.34 C 165.50 122.15 154.59 140.92 143.80 159.75 C 140.72 165.41 134.40 168.84 127.98 168.53 C 106.99 168.47 86.00 168.46 65.02 168.53 C 58.64 168.84 52.26 165.55 49.12 159.95 C 38.37 141.32 27.65 122.66 16.85 104.06 C 13.41 98.60 13.42 91.39 16.86 85.94 C 27.51 67.55 38.19 49.19 48.76 30.75 C 50.82 26.96 54.13 23.73 58.34 22.48 M 61.31 33.38 C 59.73 34.00 59.03 35.75 58.13 37.07 C 47.73 55.32 37.11 73.45 26.61 91.65 C 25.20 93.68 25.21 96.32 26.61 98.36 C 36.96 116.36 47.43 134.29 57.70 152.33 C 59.00 154.72 60.85 157.44 63.97 157.18 C 85.65 157.20 107.35 157.22 129.04 157.18 C 131.52 157.33 133.37 155.44 134.43 153.42 C 145.02 134.74 155.95 116.26 166.58 97.61 C 167.88 95.76 167.43 93.44 166.21 91.69 C 155.44 73.14 144.77 54.54 133.99 36.00 C 133.06 34.13 131.24 32.79 129.07 33.11 C 106.49 33.29 83.86 32.74 61.31 33.38 Z" />
<path fill="#f8c537" opacity="1.00" d=" M 68.38 69.43 C 86.03 67.69 104.19 69.09 122.03 68.72 C 128.69 68.28 129.60 79.24 122.94 79.77 C 105.63 80.00 88.29 79.87 70.97 79.84 C 65.48 80.16 63.50 71.79 68.38 69.43 Z" />
<path fill="#f8c537" opacity="1.00" d=" M 50.40 89.66 C 80.86 89.25 111.37 89.50 141.84 89.54 C 148.57 89.48 148.67 100.73 141.90 100.64 C 111.64 100.75 81.37 100.77 51.11 100.63 C 45.02 100.50 44.40 90.62 50.40 89.66 Z" />
<path fill="#f8c537" opacity="1.00" d=" M 69.34 110.45 C 87.15 109.80 105.08 110.16 122.92 110.27 C 128.98 110.79 129.12 120.69 123.01 121.28 C 105.68 121.56 88.31 121.39 70.97 121.37 C 64.93 121.57 63.56 112.04 69.34 110.45 Z" />
</g>
</svg>
