<?xml version="1.0" encoding="UTF-8" ?>
<!DOCTYPE svg PUBLIC "-//W3C//DTD SVG 1.1//EN" "http://www.w3.org/Graphics/SVG/1.1/DTD/svg11.dtd">
<svg width="192pt" height="192pt" viewBox="0 0 192 192" version="1.1" xmlns="http://www.w3.org/2000/svg">
<g id="#7783aeff">
<path fill="#7783ae" opacity="1.00" d=" M 51.57 28.00 C 52.00 20.32 59.52 14.51 66.99 14.84 C 86.02 15.05 105.06 14.54 124.07 15.09 C 148.32 17.32 166.86 40.29 167.15 64.01 C 166.47 74.69 161.99 84.93 155.12 93.06 C 152.84 95.44 155.09 98.39 156.64 100.42 C 165.42 111.47 170.11 127.12 164.94 140.74 C 160.13 160.88 140.86 176.87 119.99 176.78 C 101.98 176.51 83.97 176.68 65.96 176.67 C 58.16 177.08 51.11 169.78 51.47 162.05 C 51.47 159.10 51.47 156.15 51.35 153.21 C 38.43 155.42 24.79 145.33 24.13 132.07 C 24.05 114.36 24.09 96.65 24.18 78.95 C 25.44 65.98 38.80 56.64 51.48 59.10 C 51.54 48.73 51.48 38.36 51.57 28.00 M 64.41 27.39 C 63.07 39.48 64.00 51.81 63.90 63.99 C 66.45 66.83 70.26 69.02 73.76 70.51 C 93.69 61.10 113.28 50.87 133.02 41.04 C 136.47 39.28 140.31 38.61 144.11 38.16 C 137.70 31.35 128.45 26.95 119.00 27.29 C 100.80 27.40 82.60 27.17 64.41 27.39 M 139.03 52.02 C 121.33 60.71 103.84 69.84 86.07 78.40 C 99.14 86.85 112.35 95.09 125.43 103.53 C 132.25 107.77 140.16 111.66 144.03 119.07 C 146.44 125.89 146.78 133.79 144.13 140.59 C 148.91 139.11 154.78 135.80 154.60 130.06 C 154.63 122.41 152.00 114.76 147.25 108.75 C 143.88 104.29 140.33 98.92 141.70 93.04 C 142.70 86.64 148.35 82.63 150.88 76.95 C 153.41 71.54 155.39 65.45 154.38 59.42 C 153.01 52.81 145.08 49.01 139.03 52.02 M 36.51 82.00 C 36.51 97.66 36.73 113.32 36.53 128.98 C 35.87 134.94 40.84 140.97 46.94 140.87 C 69.07 140.72 91.20 140.88 113.33 140.77 C 96.25 132.12 79.00 123.79 62.05 114.91 C 48.90 106.96 48.20 86.35 60.04 76.87 C 56.00 74.44 52.08 70.67 46.99 71.33 C 41.21 70.77 36.23 76.42 36.51 82.00 M 69.25 104.77 C 90.09 115.39 111.11 125.68 131.99 136.23 C 134.08 132.62 133.51 128.18 132.64 124.30 C 129.47 120.06 124.52 117.69 120.13 114.92 C 104.09 104.75 88.15 94.41 72.02 84.37 C 62.94 86.73 60.84 100.31 69.25 104.77 M 124.98 153.32 C 104.69 153.34 84.39 153.39 64.09 153.32 C 63.95 156.99 63.06 160.92 64.80 164.37 C 83.20 164.22 101.60 164.17 120.00 164.38 C 129.23 164.39 137.98 159.81 144.27 153.23 C 140.79 152.97 137.45 151.95 134.05 151.23 C 131.00 151.81 128.15 153.33 124.98 153.32 Z" />
</g>
</svg>
