<?xml version="1.0" encoding="UTF-8" ?>
<!DOCTYPE svg PUBLIC "-//W3C//DTD SVG 1.1//EN" "http://www.w3.org/Graphics/SVG/1.1/DTD/svg11.dtd">
<svg width="192pt" height="192pt" viewBox="0 0 192 192" version="1.1" xmlns="http://www.w3.org/2000/svg">
<g id="#a51affff">
<path fill="#a51aff" opacity="1.00" d=" M 115.09 21.20 C 115.63 15.56 123.74 13.13 126.24 18.73 C 127.31 25.72 126.56 32.96 126.66 40.04 C 126.75 44.29 121.02 46.91 117.82 44.12 C 114.28 41.34 115.83 36.29 115.49 32.41 C 110.53 32.42 105.58 32.42 100.62 32.42 C 100.62 35.27 100.82 38.15 100.42 40.98 C 99.73 44.69 94.74 46.61 91.79 44.19 C 88.14 41.44 89.72 36.32 89.39 32.42 C 84.43 32.42 79.47 32.42 74.51 32.41 C 74.68 37.07 75.58 44.91 69.01 45.27 C 62.19 45.12 63.21 37.07 63.18 32.35 C 56.45 32.56 49.71 32.22 42.99 32.51 C 36.75 32.90 31.68 38.78 31.80 44.96 C 31.74 78.64 31.78 112.33 31.80 146.01 C 31.37 152.77 37.06 159.26 43.96 159.10 C 77.98 159.15 112.02 159.13 146.04 159.08 C 152.92 159.26 158.70 152.77 158.19 145.99 C 158.20 112.32 158.25 78.65 158.19 44.98 C 158.40 38.77 153.23 32.90 146.99 32.53 C 143.75 32.15 140.34 32.93 137.22 31.86 C 133.50 30.23 132.99 24.57 136.36 22.30 C 150.50 17.05 168.70 27.19 169.26 43.00 C 169.51 77.66 169.32 112.32 169.36 146.98 C 169.59 159.45 158.46 170.60 145.99 170.36 C 112.00 170.37 78.01 170.37 44.02 170.35 C 31.57 170.56 20.48 159.42 20.71 146.98 C 20.68 112.99 20.70 79.01 20.71 45.02 C 20.38 33.50 29.66 22.66 41.16 21.47 C 48.38 20.92 55.63 21.38 62.86 21.19 C 63.68 13.90 74.11 13.93 74.93 21.20 C 79.62 21.22 84.30 21.23 88.99 21.19 C 89.80 13.92 100.22 13.92 101.04 21.18 C 105.72 21.22 110.41 21.21 115.09 21.20 Z" />
<path fill="#a51aff" opacity="1.00" d=" M 78.38 75.99 C 78.55 73.87 77.61 69.92 80.92 70.09 C 90.30 69.99 99.70 69.97 109.08 70.05 C 113.46 70.04 111.28 75.82 111.62 78.64 C 104.19 79.60 96.67 78.93 89.20 79.10 C 89.24 82.81 89.25 86.52 89.14 90.23 C 94.13 87.06 100.48 87.58 106.00 88.79 C 111.44 90.00 113.75 95.96 113.54 101.01 C 113.33 106.59 114.46 112.61 111.87 117.80 C 109.30 122.25 103.68 122.92 99.04 123.12 C 93.48 123.13 87.37 123.60 82.46 120.50 C 78.48 117.61 78.45 112.17 78.36 107.73 C 81.44 106.85 84.69 106.71 87.85 107.16 C 89.83 108.89 88.90 113.15 92.22 113.71 C 95.77 114.26 102.43 115.07 102.66 109.91 C 102.32 106.03 104.08 100.99 101.07 97.93 C 93.69 94.35 86.09 102.10 78.75 98.19 C 77.89 90.85 78.68 83.38 78.38 75.99 Z" />
</g>
</svg>
