<?xml version="1.0" encoding="UTF-8" ?>
<!DOCTYPE svg PUBLIC "-//W3C//DTD SVG 1.1//EN" "http://www.w3.org/Graphics/SVG/1.1/DTD/svg11.dtd">
<svg width="192pt" height="192pt" viewBox="0 0 192 192" version="1.1" xmlns="http://www.w3.org/2000/svg">
<g id="#a51affff">
<path fill="#a51aff" opacity="1.00" d=" M 62.83 21.20 C 63.70 13.85 74.07 13.87 74.98 21.20 C 79.64 21.22 84.30 21.23 88.95 21.19 C 89.82 13.86 100.19 13.87 101.09 21.18 C 105.75 21.22 110.42 21.21 115.08 21.20 C 115.63 15.54 123.71 13.11 126.25 18.72 C 127.36 25.38 126.52 32.28 126.73 39.03 C 127.37 43.57 121.50 46.96 117.94 44.04 C 114.29 41.36 115.81 36.25 115.47 32.38 C 110.52 32.40 105.58 32.39 100.64 32.39 C 100.86 37.16 101.63 44.78 95.00 45.20 C 88.45 44.70 89.20 37.12 89.38 32.38 C 84.43 32.39 79.48 32.40 74.53 32.38 C 74.74 37.11 75.53 44.62 69.01 45.21 C 62.30 44.83 63.11 37.11 63.21 32.33 C 56.47 32.51 49.73 32.24 43.00 32.45 C 36.69 32.74 31.66 38.76 31.81 44.96 C 31.74 78.31 31.80 111.66 31.80 145.01 C 31.36 151.82 37.02 158.40 43.98 158.23 C 77.99 158.28 112.01 158.27 146.02 158.21 C 152.51 158.35 158.33 152.52 158.17 146.03 C 158.24 112.35 158.22 78.66 158.19 44.98 C 158.34 40.01 155.22 35.21 150.64 33.31 C 146.40 31.43 141.55 33.27 137.25 31.79 C 133.52 30.22 132.96 24.52 136.33 22.26 C 150.51 17.02 168.81 27.12 169.31 43.01 C 169.52 77.33 169.36 111.66 169.40 145.98 C 169.71 158.51 158.48 169.68 145.98 169.44 C 111.66 169.44 77.33 169.53 43.01 169.39 C 30.90 169.10 20.41 158.10 20.70 145.99 C 20.70 112.00 20.65 78.00 20.73 44.01 C 20.75 32.52 30.51 22.08 41.99 21.34 C 48.93 21.03 55.88 21.33 62.83 21.20 Z" />
<path fill="#a51aff" opacity="1.00" d=" M 65.06 69.89 C 72.23 68.58 80.16 68.10 87.02 70.97 C 93.96 75.69 92.67 85.82 91.22 92.97 C 87.02 101.04 79.07 106.29 73.00 112.88 C 78.94 113.12 84.90 112.77 90.83 113.14 C 93.38 115.33 92.16 119.39 91.29 122.19 C 80.37 121.65 69.30 122.92 58.48 121.54 C 57.78 118.38 57.09 114.29 59.84 111.91 C 66.04 105.74 72.53 99.84 78.60 93.54 C 81.79 90.29 81.86 85.28 81.06 81.09 C 79.79 77.00 74.37 78.08 71.11 78.31 C 67.21 79.02 68.15 83.80 67.48 86.69 C 64.24 86.97 60.68 87.82 57.61 86.36 C 56.10 80.23 57.71 71.23 65.06 69.89 Z" />
<path fill="#a51aff" opacity="1.00" d=" M 99.41 72.98 C 98.98 69.22 103.63 70.03 106.00 69.97 C 114.78 70.44 123.77 69.16 132.42 70.62 C 133.00 73.26 132.74 75.98 132.63 78.66 C 125.19 79.57 117.68 78.95 110.21 79.10 C 110.24 82.79 110.25 86.48 110.14 90.17 C 115.17 87.10 121.47 87.55 126.99 88.78 C 132.44 89.99 134.74 95.95 134.54 101.01 C 134.33 106.59 135.46 112.61 132.86 117.80 C 130.30 122.25 124.68 122.91 120.04 123.11 C 114.48 123.13 108.37 123.60 103.46 120.50 C 99.46 117.61 99.45 112.13 99.35 107.68 C 102.45 106.88 105.70 106.71 108.86 107.14 C 110.79 108.96 109.96 113.12 113.23 113.71 C 116.77 114.26 123.44 115.07 123.65 109.91 C 123.33 106.02 125.07 101.00 122.07 97.93 C 114.76 94.30 107.01 102.20 99.86 98.13 C 98.75 89.91 99.66 81.33 99.41 72.98 Z" />
</g>
</svg>
