<?xml version="1.0" encoding="UTF-8" ?>
<!DOCTYPE svg PUBLIC "-//W3C//DTD SVG 1.1//EN" "http://www.w3.org/Graphics/SVG/1.1/DTD/svg11.dtd">
<svg width="192pt" height="192pt" viewBox="0 0 192 192" version="1.1" xmlns="http://www.w3.org/2000/svg">
<g id="#a61affff">
<path fill="#a61aff" opacity="1.00" d=" M 115.10 21.20 C 115.62 15.55 123.74 13.13 126.24 18.73 C 127.31 25.72 126.56 32.96 126.66 40.04 C 126.75 44.29 121.02 46.91 117.83 44.13 C 114.28 41.35 115.83 36.30 115.49 32.42 C 110.53 32.42 105.58 32.42 100.62 32.42 C 100.80 37.11 101.69 45.05 95.01 45.27 C 88.38 45.01 89.19 37.12 89.42 32.47 C 84.45 32.39 79.48 32.41 74.51 32.42 C 74.68 37.08 75.58 44.90 69.02 45.27 C 62.19 45.13 63.20 37.07 63.18 32.35 C 56.46 32.56 49.73 32.22 43.01 32.51 C 36.75 32.89 31.68 38.77 31.80 44.97 C 31.74 78.65 31.78 112.33 31.80 146.01 C 31.37 152.77 37.06 159.26 43.95 159.10 C 77.98 159.15 112.01 159.13 146.04 159.08 C 152.92 159.26 158.70 152.77 158.19 146.00 C 158.21 112.33 158.25 78.65 158.19 44.98 C 158.40 38.77 153.23 32.90 146.99 32.53 C 143.75 32.15 140.33 32.94 137.21 31.86 C 133.50 30.23 132.99 24.57 136.35 22.30 C 150.50 17.05 168.70 27.19 169.26 43.00 C 169.51 77.66 169.32 112.33 169.36 146.98 C 169.59 159.45 158.46 170.59 145.99 170.36 C 112.00 170.37 78.01 170.37 44.02 170.35 C 31.57 170.56 20.48 159.42 20.71 146.98 C 20.68 112.99 20.70 79.00 20.71 45.02 C 20.38 33.50 29.66 22.66 41.16 21.47 C 48.38 20.92 55.63 21.38 62.87 21.19 C 63.66 13.90 74.11 13.92 74.92 21.20 C 79.61 21.22 84.30 21.23 88.99 21.19 C 89.79 13.92 100.23 13.92 101.04 21.18 C 105.72 21.23 110.41 21.21 115.10 21.20 Z" />
<path fill="#a61aff" opacity="1.00" d=" M 105.06 69.88 C 112.23 68.56 120.17 68.09 127.02 70.96 C 133.99 75.67 132.66 85.82 131.24 92.97 C 127.03 101.04 119.08 106.28 113.01 112.89 C 119.06 112.97 125.12 113.08 131.17 112.92 C 132.65 115.81 132.66 119.29 131.20 122.19 C 121.11 121.97 111.02 122.26 100.94 122.06 C 96.61 122.28 97.75 116.17 98.51 113.54 C 105.15 105.90 113.39 99.70 119.85 91.89 C 122.59 87.29 122.85 76.85 115.04 78.05 C 109.25 76.58 107.14 81.91 107.53 86.67 C 104.29 86.96 100.64 87.91 97.64 86.33 C 96.02 80.25 97.74 71.20 105.06 69.88 Z" />
<path fill="#a61aff" opacity="1.00" d=" M 61.69 75.02 C 67.86 71.96 74.79 69.03 81.85 70.15 C 83.90 70.89 83.28 73.31 83.47 75.00 C 83.43 87.64 83.50 100.29 83.44 112.94 C 86.23 112.98 89.04 112.85 91.83 113.15 C 94.32 115.32 93.31 119.46 92.20 122.19 C 82.19 121.87 72.16 122.46 62.17 121.91 C 60.09 119.93 60.12 115.17 62.13 113.16 C 65.53 112.81 68.97 113.04 72.39 113.01 C 72.39 102.37 72.41 91.74 72.38 81.11 C 67.75 81.34 59.32 82.41 61.69 75.02 Z" />
</g>
</svg>
