<?xml version="1.0" encoding="UTF-8" ?>
<!DOCTYPE svg PUBLIC "-//W3C//DTD SVG 1.1//EN" "http://www.w3.org/Graphics/SVG/1.1/DTD/svg11.dtd">
<svg width="192pt" height="192pt" viewBox="0 0 192 192" version="1.1" xmlns="http://www.w3.org/2000/svg">
<g id="#a61affff">
<path fill="#a61aff" opacity="1.00" d=" M 115.10 21.19 C 115.65 15.56 123.73 13.13 126.24 18.73 C 127.32 25.72 126.56 32.95 126.66 40.03 C 126.75 44.29 121.02 46.91 117.82 44.12 C 114.28 41.34 115.83 36.29 115.48 32.41 C 110.53 32.42 105.58 32.42 100.63 32.42 C 100.36 36.01 101.56 40.17 99.28 43.28 C 96.83 46.40 91.49 45.61 89.96 42.00 C 88.95 38.93 89.53 35.61 89.38 32.43 C 84.43 32.41 79.47 32.42 74.52 32.41 C 74.67 37.07 75.58 44.90 69.02 45.27 C 62.22 45.13 63.16 37.08 63.21 32.37 C 56.48 32.53 49.74 32.23 43.01 32.51 C 36.76 32.89 31.69 38.76 31.80 44.95 C 31.74 78.64 31.78 112.33 31.80 146.02 C 31.37 152.78 37.06 159.25 43.94 159.10 C 77.98 159.15 112.02 159.13 146.05 159.08 C 152.92 159.25 158.69 152.78 158.19 146.01 C 158.21 112.33 158.25 78.65 158.19 44.97 C 158.39 38.76 153.22 32.90 146.99 32.53 C 143.75 32.16 140.34 32.92 137.22 31.86 C 133.50 30.24 132.99 24.57 136.35 22.30 C 150.50 17.05 168.70 27.18 169.26 43.00 C 169.51 77.66 169.32 112.33 169.36 146.99 C 169.59 159.46 158.46 170.59 145.99 170.36 C 112.00 170.37 78.00 170.37 44.01 170.35 C 31.57 170.56 20.48 159.43 20.71 146.99 C 20.68 113.00 20.70 79.00 20.71 45.01 C 20.38 33.49 29.66 22.66 41.17 21.47 C 48.37 20.92 55.62 21.38 62.84 21.20 C 63.71 13.92 74.06 13.92 74.94 21.20 C 79.62 21.22 84.29 21.23 88.97 21.19 C 89.84 13.93 100.18 13.92 101.06 21.18 C 105.74 21.22 110.42 21.21 115.10 21.19 Z" />
<path fill="#a61aff" opacity="1.00" d=" M 103.34 70.16 C 110.25 68.40 117.77 68.40 124.68 70.19 C 130.41 71.81 132.19 78.69 131.24 83.92 C 128.80 86.10 125.06 85.00 122.08 84.93 C 119.87 83.37 121.05 78.86 117.74 78.38 C 114.45 78.11 109.46 76.96 107.62 80.59 C 106.85 84.29 107.36 88.12 107.12 91.88 C 112.62 89.13 119.15 89.57 125.00 90.81 C 130.47 92.01 132.65 97.98 132.47 103.02 C 132.39 108.88 133.51 116.27 128.42 120.47 C 122.64 124.02 115.44 123.09 108.96 123.01 C 103.64 122.90 97.53 120.19 96.84 114.27 C 95.81 103.89 96.65 93.38 96.39 82.95 C 96.14 77.89 97.84 71.68 103.34 70.16 M 110.24 99.35 C 105.48 101.20 107.12 108.16 107.88 112.07 C 112.55 116.49 124.37 114.51 121.64 105.98 C 123.35 98.81 115.22 98.13 110.24 99.35 Z" />
<path fill="#a61aff" opacity="1.00" d=" M 60.48 74.84 C 66.98 72.33 73.67 68.83 80.86 70.16 C 82.90 70.91 82.27 73.30 82.47 74.98 C 82.44 87.64 82.49 100.30 82.44 112.95 C 85.38 112.99 88.32 112.99 91.26 112.95 C 92.57 115.90 92.56 119.22 91.28 122.18 C 81.24 121.88 71.18 122.46 61.16 121.91 C 58.88 120.16 59.96 116.67 60.09 114.19 C 63.02 111.67 67.75 113.56 71.39 113.00 C 71.39 102.37 71.41 91.74 71.39 81.11 C 66.47 81.43 58.60 82.31 60.48 74.84 Z" />
</g>
</svg>
