<?xml version="1.0" encoding="UTF-8" ?>
<!DOCTYPE svg PUBLIC "-//W3C//DTD SVG 1.1//EN" "http://www.w3.org/Graphics/SVG/1.1/DTD/svg11.dtd">
<svg width="192pt" height="192pt" viewBox="0 0 192 192" version="1.1" xmlns="http://www.w3.org/2000/svg">
<g id="#a51affff">
<path fill="#a51aff" opacity="1.00" d=" M 62.84 21.20 C 63.70 13.83 74.09 13.88 74.99 21.20 C 79.65 21.22 84.30 21.23 88.96 21.19 C 89.80 13.86 100.21 13.86 101.08 21.18 C 105.74 21.22 110.40 21.21 115.06 21.20 C 115.63 15.55 123.71 13.11 126.25 18.72 C 127.36 25.38 126.51 32.27 126.73 39.03 C 127.37 43.56 121.50 46.96 117.93 44.04 C 114.29 41.36 115.81 36.25 115.47 32.38 C 110.52 32.40 105.58 32.38 100.63 32.40 C 100.86 37.16 101.62 44.78 95.00 45.20 C 88.46 44.70 89.20 37.12 89.38 32.39 C 84.43 32.39 79.48 32.40 74.53 32.38 C 74.88 37.42 75.29 44.18 69.02 45.56 C 62.52 44.38 62.98 37.43 63.20 32.34 C 56.46 32.50 49.72 32.24 42.99 32.45 C 36.69 32.75 31.66 38.76 31.81 44.96 C 31.74 78.31 31.80 111.66 31.80 145.01 C 31.36 151.82 37.02 158.40 43.98 158.23 C 77.99 158.28 112.00 158.27 146.01 158.21 C 152.51 158.35 158.33 152.52 158.17 146.02 C 158.24 112.34 158.22 78.66 158.20 44.98 C 158.35 40.01 155.22 35.22 150.65 33.31 C 146.40 31.42 141.55 33.28 137.25 31.79 C 133.52 30.22 132.96 24.52 136.33 22.27 C 150.51 17.01 168.81 27.12 169.31 43.02 C 169.51 77.34 169.36 111.66 169.40 145.98 C 169.71 158.51 158.47 169.68 145.98 169.44 C 111.66 169.44 77.33 169.53 43.01 169.39 C 30.51 169.11 19.93 157.44 20.68 144.99 C 20.73 111.33 20.64 77.67 20.73 44.02 C 20.75 32.52 30.51 22.08 42.00 21.34 C 48.94 21.03 55.89 21.33 62.84 21.20 Z" />
<path fill="#a51aff" opacity="1.00" d=" M 65.07 69.89 C 72.24 68.58 80.16 68.11 87.01 70.97 C 93.96 75.69 92.67 85.81 91.22 92.96 C 87.02 101.03 79.07 106.28 73.00 112.88 C 79.08 112.97 85.16 113.09 91.24 112.93 C 92.18 115.70 93.40 119.76 90.84 121.94 C 80.09 121.99 69.14 122.76 58.47 121.53 C 57.78 118.38 57.09 114.28 59.85 111.91 C 66.05 105.74 72.52 99.84 78.59 93.54 C 81.79 90.30 81.85 85.29 81.06 81.09 C 79.80 77.00 74.37 78.08 71.11 78.30 C 67.21 79.02 68.16 83.79 67.49 86.68 C 64.26 86.93 60.63 87.90 57.64 86.32 C 56.05 80.23 57.74 71.21 65.07 69.89 Z" />
<path fill="#a51aff" opacity="1.00" d=" M 106.15 69.92 C 112.85 68.51 120.04 68.41 126.68 70.20 C 132.39 71.80 134.22 78.69 133.22 83.90 C 131.13 86.07 127.69 84.95 125.01 85.05 C 121.44 84.79 123.49 78.74 119.74 78.38 C 116.44 78.12 111.45 76.96 109.62 80.60 C 108.85 84.30 109.36 88.12 109.12 91.87 C 115.12 89.04 122.40 89.34 128.59 91.40 C 134.95 94.18 134.58 102.18 134.51 108.00 C 134.73 113.25 133.57 120.18 127.70 121.86 C 120.73 123.73 113.17 123.62 106.14 122.16 C 101.02 121.18 98.37 115.91 98.44 111.07 C 98.33 101.03 98.33 90.98 98.46 80.94 C 98.38 76.11 101.07 70.90 106.15 69.92 M 112.25 99.35 C 107.48 101.19 109.12 108.15 109.88 112.06 C 114.54 116.49 126.37 114.51 123.64 105.97 C 125.34 98.81 117.22 98.14 112.25 99.35 Z" />
</g>
</svg>
