<?xml version="1.0" encoding="UTF-8" ?>
<!DOCTYPE svg PUBLIC "-//W3C//DTD SVG 1.1//EN" "http://www.w3.org/Graphics/SVG/1.1/DTD/svg11.dtd">
<svg width="192pt" height="192pt" viewBox="0 0 192 192" version="1.1" xmlns="http://www.w3.org/2000/svg">
<g id="#a519ffff">
<path fill="#a519ff" opacity="1.00" d=" M 115.08 21.21 C 115.62 15.57 123.73 13.12 126.24 18.73 C 127.31 25.72 126.56 32.96 126.66 40.04 C 126.74 44.30 121.01 46.91 117.82 44.12 C 114.28 41.34 115.83 36.30 115.49 32.42 C 110.53 32.42 105.58 32.41 100.62 32.43 C 100.80 37.12 101.68 45.06 95.00 45.27 C 88.38 44.99 89.24 37.11 89.39 32.42 C 84.43 32.41 79.47 32.41 74.51 32.42 C 74.68 37.08 75.57 44.91 69.01 45.27 C 62.18 45.12 63.22 37.06 63.16 32.35 C 56.44 32.56 49.71 32.23 42.99 32.51 C 36.74 32.91 31.68 38.78 31.80 44.97 C 31.74 78.65 31.78 112.33 31.80 146.00 C 31.36 152.77 37.06 159.27 43.96 159.10 C 77.98 159.15 112.02 159.13 146.04 159.08 C 152.92 159.26 158.70 152.77 158.19 145.99 C 158.20 112.32 158.25 78.66 158.19 44.99 C 158.40 38.77 153.23 32.91 147.00 32.53 C 143.76 32.15 140.33 32.94 137.21 31.86 C 133.50 30.22 132.99 24.56 136.36 22.30 C 150.51 17.05 168.70 27.19 169.26 43.01 C 169.51 77.66 169.32 112.32 169.36 146.98 C 169.57 159.08 159.09 170.05 146.98 170.32 C 112.66 170.43 78.34 170.35 44.02 170.35 C 31.57 170.56 20.48 159.42 20.71 146.98 C 20.68 112.99 20.70 79.01 20.71 45.02 C 20.38 33.50 29.65 22.67 41.15 21.47 C 48.37 20.92 55.63 21.38 62.87 21.19 C 63.68 13.88 74.10 13.95 74.96 21.21 C 79.63 21.22 84.31 21.23 88.99 21.19 C 89.79 13.92 100.23 13.91 101.04 21.18 C 105.72 21.22 110.40 21.20 115.08 21.21 Z" />
<path fill="#a519ff" opacity="1.00" d=" M 82.95 79.11 C 77.05 80.60 77.04 68.40 82.94 70.02 C 92.78 70.37 102.76 69.33 112.51 70.50 C 113.62 74.17 113.19 78.18 111.90 81.74 C 107.41 94.29 103.02 106.88 98.58 119.45 C 97.10 123.98 91.15 121.51 87.62 122.10 C 87.34 120.42 87.30 118.70 88.03 117.12 C 92.61 104.46 97.11 91.77 101.68 79.12 C 95.44 79.08 89.19 79.18 82.95 79.11 Z" />
</g>
</svg>
