<?xml version="1.0" encoding="UTF-8" ?>
<!DOCTYPE svg PUBLIC "-//W3C//DTD SVG 1.1//EN" "http://www.w3.org/Graphics/SVG/1.1/DTD/svg11.dtd">
<svg width="192pt" height="192pt" viewBox="0 0 192 192" version="1.1" xmlns="http://www.w3.org/2000/svg">
<g id="#a51affff">
<path fill="#a51aff" opacity="1.00" d=" M 115.05 21.20 C 115.69 15.60 123.70 13.10 126.24 18.73 C 127.32 25.72 126.57 32.96 126.66 40.04 C 126.75 44.30 121.01 46.90 117.82 44.12 C 114.29 41.33 115.83 36.29 115.48 32.41 C 110.53 32.42 105.58 32.42 100.63 32.41 C 100.44 35.80 101.30 39.51 99.74 42.65 C 97.61 46.36 91.59 45.94 89.96 42.00 C 88.95 38.94 89.52 35.62 89.39 32.45 C 84.43 32.40 79.48 32.42 74.52 32.41 C 74.20 36.30 75.78 41.37 72.20 44.15 C 69.39 46.52 64.56 44.87 63.62 41.38 C 63.04 38.42 63.33 35.38 63.23 32.39 C 56.49 32.53 49.74 32.23 43.00 32.52 C 36.75 32.89 31.68 38.77 31.80 44.96 C 31.74 78.64 31.78 112.33 31.80 146.01 C 31.37 152.78 37.06 159.26 43.95 159.10 C 77.98 159.15 112.02 159.13 146.05 159.08 C 152.92 159.25 158.69 152.77 158.19 146.00 C 158.20 112.33 158.25 78.65 158.19 44.97 C 158.39 38.76 153.23 32.90 147.00 32.54 C 143.76 32.16 140.35 32.92 137.22 31.85 C 133.49 30.24 132.99 24.56 136.36 22.30 C 150.51 17.05 168.70 27.19 169.26 43.00 C 169.51 77.66 169.32 112.33 169.36 146.99 C 169.56 159.08 159.09 170.05 146.98 170.32 C 113.99 170.46 80.99 170.30 47.99 170.38 C 34.66 172.23 20.99 161.72 20.76 147.99 C 20.61 113.67 20.73 79.34 20.71 45.01 C 20.38 33.49 29.66 22.66 41.16 21.47 C 48.35 20.92 55.58 21.37 62.79 21.20 C 63.78 13.93 73.99 13.93 74.98 21.20 C 79.63 21.22 84.28 21.22 88.93 21.19 C 89.89 13.93 100.12 13.93 101.10 21.19 C 105.75 21.22 110.40 21.21 115.05 21.20 Z" />
<path fill="#a51aff" opacity="1.00" d=" M 105.14 69.99 C 112.31 68.50 120.20 68.15 127.13 70.82 C 133.29 74.03 132.76 82.08 132.41 87.99 C 132.46 91.43 130.35 94.27 127.25 95.56 C 134.84 98.31 133.00 107.93 132.42 114.21 C 131.74 119.47 126.71 122.58 121.75 122.84 C 115.92 123.30 109.86 123.60 104.19 121.92 C 98.38 120.35 96.36 113.04 97.86 107.88 C 100.28 106.16 103.96 107.11 106.86 107.14 C 108.78 108.96 107.91 113.07 111.10 113.73 C 114.64 114.04 120.32 115.26 121.83 110.90 C 122.26 107.92 122.66 104.50 121.13 101.78 C 118.09 98.68 113.20 101.01 109.46 99.56 C 108.75 97.07 108.27 93.95 109.64 91.67 C 113.00 89.76 118.39 92.68 121.05 89.04 C 121.98 85.89 122.58 81.48 120.05 78.94 C 115.43 76.96 108.11 77.40 108.00 83.84 C 105.66 86.06 96.61 86.64 97.73 81.04 C 97.69 76.33 100.04 70.92 105.14 69.99 Z" />
<path fill="#a51aff" opacity="1.00" d=" M 61.48 74.83 C 67.98 72.34 74.66 68.83 81.85 70.16 C 83.92 70.88 83.26 73.31 83.47 74.99 C 83.44 87.64 83.49 100.29 83.44 112.94 C 86.24 112.98 89.05 112.84 91.83 113.16 C 94.44 115.32 92.99 119.33 92.40 122.17 C 82.33 121.89 72.22 122.48 62.16 121.89 C 59.87 120.15 60.97 116.65 61.09 114.18 C 64.05 111.69 68.74 113.55 72.39 113.01 C 72.39 102.38 72.41 91.75 72.39 81.12 C 67.48 81.42 59.59 82.30 61.48 74.83 Z" />
</g>
</svg>
