<?xml version="1.0" encoding="UTF-8" ?>
<!DOCTYPE svg PUBLIC "-//W3C//DTD SVG 1.1//EN" "http://www.w3.org/Graphics/SVG/1.1/DTD/svg11.dtd">
<svg width="192pt" height="192pt" viewBox="0 0 192 192" version="1.1" xmlns="http://www.w3.org/2000/svg">
<g id="#a51affff">
<path fill="#a51aff" opacity="1.00" d=" M 62.88 21.19 C 63.62 13.83 74.16 13.87 74.95 21.20 C 79.63 21.22 84.31 21.23 89.00 21.19 C 89.74 13.85 100.28 13.85 101.04 21.17 C 105.73 21.23 110.42 21.21 115.10 21.20 C 115.59 15.51 123.73 13.13 126.25 18.71 C 127.36 25.37 126.51 32.27 126.73 39.03 C 127.38 43.57 121.49 46.95 117.94 44.04 C 114.28 41.36 115.80 36.25 115.48 32.39 C 110.53 32.39 105.58 32.38 100.63 32.40 C 100.87 37.15 101.62 44.79 95.00 45.19 C 88.46 44.72 89.18 37.12 89.39 32.39 C 84.43 32.39 79.48 32.39 74.52 32.38 C 74.24 36.27 75.84 41.44 72.08 44.08 C 69.24 46.31 64.75 44.68 63.63 41.36 C 63.05 38.39 63.31 35.33 63.19 32.32 C 56.46 32.53 49.72 32.23 43.00 32.45 C 36.70 32.74 31.65 38.76 31.81 44.96 C 31.74 78.31 31.80 111.67 31.80 145.02 C 31.35 151.82 37.02 158.41 43.99 158.24 C 77.99 158.28 112.01 158.27 146.01 158.21 C 152.50 158.36 158.33 152.52 158.17 146.03 C 158.24 112.35 158.22 78.66 158.20 44.98 C 158.53 37.99 152.03 31.70 145.04 32.40 C 140.84 32.78 134.28 32.63 134.08 26.98 C 133.81 21.07 140.73 20.64 145.03 21.17 C 157.62 20.49 169.36 31.37 169.37 44.03 C 169.41 78.34 169.45 112.67 169.36 146.98 C 169.16 159.14 158.09 169.66 145.97 169.44 C 111.99 169.47 78.00 169.47 44.02 169.43 C 31.92 169.63 20.93 159.11 20.74 146.99 C 20.64 112.67 20.68 78.34 20.73 44.01 C 20.75 32.52 30.52 22.08 41.99 21.34 C 48.95 21.03 55.92 21.33 62.88 21.19 Z" />
<path fill="#a51aff" opacity="1.00" d=" M 63.38 70.44 C 69.17 68.42 75.49 68.84 81.50 69.33 C 86.09 69.62 90.70 72.54 91.55 77.32 C 92.68 84.22 93.31 92.60 87.98 98.02 C 83.22 103.20 78.00 107.93 73.00 112.88 C 78.93 113.12 84.89 112.78 90.82 113.13 C 93.27 115.31 92.41 119.51 91.13 122.20 C 80.28 121.60 69.23 122.99 58.51 121.50 C 57.81 118.61 57.13 114.81 59.38 112.43 C 66.04 105.44 73.62 99.28 79.87 91.90 C 82.61 87.29 82.87 76.82 75.03 78.05 C 69.30 76.58 67.06 81.85 67.54 86.63 C 64.31 87.05 60.68 87.85 57.63 86.34 C 56.36 80.79 57.22 72.74 63.38 70.44 Z" />
<path fill="#a51aff" opacity="1.00" d=" M 107.14 69.98 C 114.31 68.50 122.20 68.15 129.13 70.81 C 135.29 74.02 134.76 82.08 134.41 87.98 C 134.46 91.44 132.35 94.44 129.10 95.57 C 133.78 96.71 135.20 101.71 134.93 105.97 C 135.12 111.58 134.87 119.28 128.62 121.62 C 121.74 123.88 114.10 123.54 107.06 122.19 C 100.73 121.05 98.21 113.35 99.85 107.88 C 102.35 106.15 105.95 107.10 108.87 107.14 C 110.86 108.89 109.76 113.13 113.10 113.74 C 116.53 113.98 121.43 115.18 123.56 111.63 C 124.42 108.49 124.67 104.73 123.13 101.77 C 120.11 98.55 115.16 101.21 111.50 99.50 C 110.64 97.06 110.34 93.93 111.63 91.64 C 115.08 89.69 121.27 92.99 123.34 88.38 C 123.81 85.21 124.71 80.55 121.45 78.58 C 118.58 77.83 115.45 77.83 112.59 78.63 C 109.69 79.67 111.64 85.04 108.04 85.09 C 105.44 84.86 101.82 86.19 100.02 83.78 C 98.89 78.42 101.06 71.17 107.14 69.98 Z" />
</g>
</svg>
