<?xml version="1.0" encoding="UTF-8" ?>
<!DOCTYPE svg PUBLIC "-//W3C//DTD SVG 1.1//EN" "http://www.w3.org/Graphics/SVG/1.1/DTD/svg11.dtd">
<svg width="192pt" height="192pt" viewBox="0 0 192 192" version="1.1" xmlns="http://www.w3.org/2000/svg">
<g id="#a51affff">
<path fill="#a51aff" opacity="1.00" d=" M 115.08 21.20 C 115.66 15.58 123.72 13.11 126.24 18.73 C 127.32 25.72 126.57 32.95 126.66 40.03 C 126.75 44.29 121.02 46.90 117.82 44.13 C 114.28 41.34 115.83 36.29 115.48 32.41 C 110.53 32.42 105.58 32.42 100.63 32.41 C 100.62 35.27 100.82 38.14 100.42 40.98 C 99.74 44.70 94.74 46.61 91.79 44.19 C 88.15 41.44 89.72 36.31 89.38 32.41 C 84.43 32.42 79.47 32.42 74.52 32.41 C 74.21 36.30 75.78 41.37 72.20 44.15 C 69.39 46.52 64.57 44.87 63.62 41.38 C 63.04 38.42 63.33 35.37 63.21 32.37 C 56.47 32.54 49.73 32.23 43.01 32.51 C 36.75 32.89 31.68 38.77 31.80 44.96 C 31.74 78.65 31.78 112.33 31.80 146.02 C 31.37 152.78 37.06 159.26 43.95 159.10 C 77.98 159.15 112.02 159.13 146.05 159.08 C 152.92 159.25 158.69 152.78 158.19 146.01 C 158.20 112.33 158.25 78.65 158.19 44.97 C 158.39 38.76 153.23 32.90 146.99 32.53 C 143.75 32.16 140.34 32.92 137.22 31.86 C 133.50 30.24 132.99 24.57 136.35 22.30 C 150.50 17.05 168.70 27.19 169.26 43.00 C 169.51 77.66 169.32 112.33 169.36 146.99 C 169.59 159.46 158.45 170.60 145.98 170.36 C 111.99 170.37 78.00 170.38 44.01 170.35 C 31.57 170.56 20.48 159.42 20.71 146.98 C 20.68 112.99 20.70 79.00 20.71 45.01 C 20.38 33.49 29.66 22.66 41.16 21.47 C 48.36 20.92 55.60 21.37 62.82 21.20 C 63.74 13.92 74.03 13.93 74.96 21.20 C 79.62 21.22 84.29 21.23 88.95 21.19 C 89.86 13.93 100.16 13.92 101.07 21.18 C 105.74 21.22 110.41 21.21 115.08 21.20 Z" />
<path fill="#a51aff" opacity="1.00" d=" M 80.48 74.85 C 86.97 72.34 93.67 68.84 100.86 70.16 C 102.91 70.89 102.27 73.30 102.47 74.99 C 102.44 87.64 102.50 100.30 102.45 112.95 C 105.40 112.99 108.35 112.99 111.30 112.95 C 112.55 115.89 112.55 119.22 111.32 122.18 C 101.27 121.88 91.20 122.46 81.17 121.90 C 78.82 120.21 80.00 116.66 80.08 114.19 C 83.01 111.66 87.74 113.57 91.38 113.00 C 91.38 102.37 91.41 91.74 91.39 81.11 C 86.49 81.42 78.60 82.31 80.48 74.85 Z" />
</g>
</svg>
