<?xml version="1.0" encoding="UTF-8" ?>
<!DOCTYPE svg PUBLIC "-//W3C//DTD SVG 1.1//EN" "http://www.w3.org/Graphics/SVG/1.1/DTD/svg11.dtd">
<svg width="192pt" height="192pt" viewBox="0 0 192 192" version="1.1" xmlns="http://www.w3.org/2000/svg">
<g id="#a61affff">
<path fill="#a61aff" opacity="1.00" d=" M 115.11 21.22 C 115.57 15.54 123.75 13.14 126.24 18.73 C 127.35 25.40 126.47 32.31 126.72 39.08 C 127.36 43.39 122.09 46.92 118.40 44.52 C 114.19 42.02 115.79 36.46 115.50 32.42 C 110.53 32.42 105.57 32.41 100.61 32.42 C 100.63 35.27 100.80 38.14 100.44 40.98 C 99.72 44.68 94.75 46.62 91.79 44.18 C 88.14 41.45 89.72 36.32 89.40 32.42 C 84.43 32.41 79.47 32.42 74.51 32.41 C 74.69 37.08 75.58 44.90 69.01 45.27 C 62.11 45.10 63.31 37.04 63.11 32.31 C 56.41 32.61 49.70 32.20 43.00 32.51 C 36.75 32.89 31.67 38.78 31.80 44.97 C 31.74 78.65 31.78 112.33 31.80 146.01 C 31.36 152.77 37.07 159.26 43.96 159.11 C 77.99 159.15 112.02 159.13 146.04 159.08 C 152.91 159.26 158.70 152.77 158.20 146.00 C 158.21 112.33 158.25 78.65 158.20 44.98 C 158.50 37.56 151.28 31.45 144.03 32.43 C 139.72 33.22 133.36 31.69 134.12 26.10 C 134.89 20.31 141.78 21.00 146.07 21.23 C 158.28 21.07 169.23 31.82 169.33 44.02 C 169.42 78.33 169.36 112.66 169.36 146.98 C 169.57 159.07 159.09 170.05 146.98 170.32 C 112.67 170.43 78.34 170.34 44.02 170.35 C 31.57 170.56 20.47 159.42 20.71 146.97 C 20.68 112.99 20.70 79.00 20.71 45.02 C 20.38 33.49 29.66 22.66 41.16 21.47 C 48.40 20.92 55.66 21.38 62.91 21.19 C 63.59 13.87 74.20 13.93 74.90 21.21 C 79.61 21.22 84.32 21.23 89.03 21.19 C 89.70 13.91 100.31 13.91 101.00 21.18 C 105.70 21.23 110.41 21.20 115.11 21.22 Z" />
<path fill="#a61aff" opacity="1.00" d=" M 108.25 69.20 C 114.61 68.88 121.29 68.38 127.36 70.73 C 132.05 72.76 132.85 78.49 133.15 83.00 C 133.28 91.66 133.27 100.34 133.16 109.00 C 132.99 114.05 131.61 120.65 125.83 121.92 C 118.26 123.70 110.01 123.84 102.53 121.54 C 96.05 119.00 96.32 110.80 96.13 105.01 C 96.53 95.48 95.11 85.71 97.36 76.35 C 98.46 71.38 103.74 69.55 108.25 69.20 M 110.31 78.41 C 107.22 78.90 107.25 82.55 107.02 84.95 C 106.81 92.65 106.73 100.38 107.10 108.08 C 106.09 116.63 123.41 116.61 122.30 107.99 C 122.30 99.34 122.73 90.64 122.06 82.02 C 121.18 76.59 114.20 78.07 110.31 78.41 Z" />
<path fill="#a61aff" opacity="1.00" d=" M 60.50 74.90 C 66.94 72.25 73.68 68.88 80.86 70.15 C 82.86 70.92 82.31 73.31 82.48 74.99 C 82.41 87.63 82.51 100.27 82.43 112.91 C 85.30 112.98 88.18 113.05 91.06 112.93 C 92.74 115.70 92.77 119.42 91.07 122.19 C 81.12 121.88 71.13 122.44 61.18 121.92 C 59.09 119.95 59.11 115.14 61.15 113.14 C 64.55 112.83 67.97 113.06 71.38 113.01 C 71.40 102.37 71.42 91.74 71.38 81.10 C 66.52 81.40 58.57 82.36 60.50 74.90 Z" />
</g>
</svg>
