<?xml version="1.0" encoding="UTF-8" ?>
<!DOCTYPE svg PUBLIC "-//W3C//DTD SVG 1.1//EN" "http://www.w3.org/Graphics/SVG/1.1/DTD/svg11.dtd">
<svg width="192pt" height="192pt" viewBox="0 0 192 192" version="1.1" xmlns="http://www.w3.org/2000/svg">
<g id="#a51affff">
<path fill="#a51aff" opacity="1.00" d=" M 62.89 21.19 C 63.61 13.82 74.18 13.87 74.94 21.20 C 79.63 21.22 84.32 21.23 89.00 21.19 C 89.73 13.85 100.29 13.85 101.04 21.17 C 105.73 21.23 110.42 21.21 115.11 21.20 C 115.58 15.51 123.73 13.13 126.26 18.71 C 127.36 25.37 126.50 32.27 126.73 39.02 C 127.38 43.57 121.49 46.95 117.93 44.04 C 114.28 41.36 115.81 36.26 115.48 32.39 C 110.53 32.39 105.58 32.38 100.63 32.41 C 100.86 37.17 101.62 44.77 95.00 45.21 C 88.46 44.70 89.19 37.13 89.38 32.39 C 84.43 32.38 79.48 32.39 74.53 32.39 C 74.86 37.37 75.35 44.26 69.02 45.50 C 62.43 44.46 63.06 37.36 63.16 32.32 C 56.43 32.52 49.71 32.24 42.99 32.44 C 36.69 32.75 31.65 38.77 31.81 44.97 C 31.74 78.32 31.80 111.67 31.80 145.01 C 31.35 151.82 37.03 158.41 43.99 158.24 C 78.00 158.28 112.01 158.27 146.01 158.21 C 152.50 158.36 158.33 152.52 158.17 146.02 C 158.24 112.35 158.22 78.66 158.20 44.98 C 158.36 40.01 155.21 35.21 150.64 33.31 C 146.40 31.40 141.54 33.29 137.25 31.79 C 133.52 30.21 132.96 24.52 136.33 22.27 C 150.51 17.02 168.81 27.13 169.32 43.02 C 169.51 77.33 169.36 111.66 169.40 145.98 C 169.71 158.50 158.47 169.69 145.97 169.44 C 111.99 169.47 78.01 169.47 44.02 169.43 C 31.92 169.63 20.93 159.11 20.74 146.98 C 20.65 112.66 20.68 78.34 20.73 44.02 C 20.75 32.52 30.51 22.09 41.99 21.34 C 48.95 21.03 55.92 21.33 62.89 21.19 Z" />
<path fill="#a51aff" opacity="1.00" d=" M 64.06 69.88 C 71.04 68.57 78.62 68.25 85.39 70.65 C 91.13 73.32 91.39 80.52 91.24 85.99 C 91.68 98.37 79.06 104.58 72.00 112.88 C 78.04 112.97 84.07 113.09 90.11 112.93 C 91.70 115.75 91.71 119.34 90.14 122.18 C 79.29 121.63 68.24 122.97 57.51 121.50 C 56.72 118.39 56.11 114.25 58.85 111.90 C 65.44 105.16 72.77 99.08 78.87 91.89 C 81.61 87.29 81.86 76.81 74.03 78.05 C 68.27 76.57 66.09 81.86 66.53 86.63 C 63.30 87.03 59.65 87.87 56.64 86.32 C 55.06 80.23 56.74 71.22 64.06 69.88 Z" />
<path fill="#a51aff" opacity="1.00" d=" M 118.48 71.44 C 121.16 68.99 126.10 69.58 129.22 70.82 C 130.24 81.70 129.37 92.81 129.65 103.77 C 137.21 101.48 137.23 115.61 129.66 113.32 C 129.58 115.95 130.02 118.68 129.27 121.24 C 126.62 122.90 123.15 122.05 120.18 121.93 C 117.73 119.81 119.22 115.97 118.79 113.10 C 111.59 113.00 104.37 113.37 97.19 112.94 C 94.60 110.59 95.79 106.19 97.57 103.61 C 104.58 92.92 111.37 82.06 118.48 71.44 M 108.24 103.90 C 111.77 103.96 115.31 104.01 118.85 103.99 C 118.86 98.53 118.83 93.08 118.75 87.62 C 115.22 93.03 111.91 98.59 108.24 103.90 Z" />
</g>
</svg>
