<?xml version="1.0" encoding="UTF-8" ?>
<!DOCTYPE svg PUBLIC "-//W3C//DTD SVG 1.1//EN" "http://www.w3.org/Graphics/SVG/1.1/DTD/svg11.dtd">
<svg width="192pt" height="192pt" viewBox="0 0 192 192" version="1.1" xmlns="http://www.w3.org/2000/svg">
<g id="#a51affff">
<path fill="#a51aff" opacity="1.00" d=" M 115.17 21.20 C 115.44 14.10 126.76 13.61 126.69 20.99 C 126.77 27.33 126.81 33.68 126.67 40.03 C 126.76 44.28 121.02 46.92 117.82 44.12 C 114.26 41.35 115.83 36.30 115.49 32.42 C 110.53 32.42 105.58 32.41 100.62 32.42 C 100.81 37.12 101.69 45.05 95.00 45.27 C 88.37 45.00 89.19 37.11 89.41 32.46 C 84.45 32.37 79.48 32.43 74.51 32.41 C 74.68 37.08 75.59 44.90 69.02 45.27 C 62.12 45.12 63.30 37.05 63.13 32.32 C 56.42 32.60 49.71 32.21 43.01 32.51 C 36.76 32.89 31.68 38.77 31.80 44.96 C 31.75 78.64 31.78 112.33 31.80 146.01 C 31.36 152.77 37.06 159.26 43.95 159.11 C 77.98 159.14 112.02 159.13 146.05 159.08 C 152.91 159.25 158.70 152.77 158.20 146.01 C 158.20 112.33 158.24 78.65 158.20 44.98 C 158.36 39.29 154.08 33.89 148.52 32.73 C 145.06 32.10 141.50 32.73 138.03 32.20 C 133.75 31.06 132.65 24.77 136.36 22.30 C 150.50 17.05 168.70 27.19 169.27 43.00 C 169.50 77.66 169.32 112.32 169.36 146.98 C 169.59 159.45 158.46 170.60 145.99 170.36 C 111.99 170.37 78.00 170.37 44.01 170.35 C 31.57 170.56 20.48 159.42 20.71 146.98 C 20.70 112.66 20.65 78.34 20.74 44.02 C 20.86 32.85 30.03 22.64 41.16 21.46 C 48.40 20.92 55.67 21.38 62.92 21.19 C 63.56 13.88 74.23 13.91 74.87 21.21 C 79.60 21.22 84.32 21.23 89.04 21.19 C 89.68 13.91 100.33 13.90 100.99 21.18 C 105.71 21.23 110.44 21.21 115.17 21.20 Z" />
<path fill="#a51aff" opacity="1.00" d=" M 60.52 74.89 C 66.95 72.25 73.69 68.88 80.86 70.15 C 82.88 70.91 82.30 73.30 82.48 74.99 C 82.42 87.63 82.50 100.28 82.44 112.92 C 85.30 112.98 88.18 113.05 91.04 112.93 C 92.75 115.68 92.79 119.44 91.06 122.19 C 81.10 121.90 71.11 122.41 61.16 121.94 C 59.09 119.93 59.12 115.17 61.13 113.14 C 64.54 112.84 67.97 113.06 71.38 113.00 C 71.39 102.37 71.41 91.74 71.38 81.11 C 66.52 81.39 58.55 82.37 60.52 74.89 Z" />
<path fill="#a51aff" opacity="1.00" d=" M 117.93 70.94 C 120.82 69.53 126.12 68.93 128.47 71.42 C 128.91 82.20 128.54 93.01 128.65 103.80 C 136.21 101.42 136.23 115.68 128.65 113.29 C 128.60 115.93 129.00 118.66 128.29 121.24 C 125.63 122.89 122.17 122.03 119.20 121.95 C 116.73 119.83 118.22 115.97 117.80 113.10 C 110.60 113.01 103.39 113.35 96.20 112.96 C 93.61 110.61 94.77 106.19 96.57 103.61 C 103.76 92.77 110.49 81.60 117.93 70.94 M 107.24 103.90 C 110.77 103.97 114.31 104.00 117.85 103.99 C 117.87 98.52 117.82 93.04 117.76 87.57 C 114.25 93.01 110.92 98.57 107.24 103.90 Z" />
</g>
</svg>
