<?xml version="1.0" encoding="UTF-8" ?>
<!DOCTYPE svg PUBLIC "-//W3C//DTD SVG 1.1//EN" "http://www.w3.org/Graphics/SVG/1.1/DTD/svg11.dtd">
<svg width="192pt" height="192pt" viewBox="0 0 192 192" version="1.1" xmlns="http://www.w3.org/2000/svg">
<g id="#a51affff">
<path fill="#a51aff" opacity="1.00" d=" M 62.87 21.19 C 63.65 13.81 74.14 13.89 74.99 21.21 C 79.65 21.22 84.32 21.23 88.99 21.19 C 89.75 13.85 100.26 13.86 101.05 21.18 C 105.73 21.23 110.40 21.20 115.07 21.21 C 115.59 15.54 123.73 13.11 126.26 18.72 C 127.36 25.38 126.51 32.28 126.73 39.03 C 127.37 43.57 121.49 46.96 117.93 44.04 C 114.28 41.36 115.81 36.25 115.48 32.39 C 110.52 32.39 105.57 32.37 100.62 32.42 C 100.87 37.18 101.61 44.78 95.00 45.20 C 88.46 44.70 89.19 37.13 89.39 32.40 C 84.43 32.38 79.48 32.39 74.53 32.39 C 74.87 37.39 75.33 44.24 69.01 45.52 C 62.45 44.43 63.05 37.36 63.16 32.31 C 56.44 32.53 49.71 32.23 42.99 32.45 C 36.69 32.75 31.65 38.78 31.81 44.97 C 31.74 78.32 31.80 111.66 31.80 145.00 C 31.35 151.81 37.02 158.41 43.99 158.24 C 77.99 158.28 112.01 158.27 146.01 158.21 C 152.51 158.36 158.34 152.51 158.17 146.02 C 158.24 112.34 158.22 78.66 158.20 44.99 C 158.35 40.02 155.22 35.22 150.65 33.31 C 146.41 31.40 141.54 33.29 137.24 31.79 C 133.52 30.20 132.96 24.51 136.34 22.26 C 150.52 17.02 168.82 27.13 169.31 43.03 C 169.51 77.34 169.36 111.66 169.40 145.97 C 169.72 158.50 158.47 169.69 145.97 169.44 C 111.99 169.47 78.00 169.47 44.02 169.43 C 31.92 169.63 20.92 159.11 20.74 146.98 C 20.64 112.66 20.68 78.34 20.73 44.02 C 20.75 32.53 30.50 22.09 41.97 21.34 C 48.93 21.03 55.91 21.33 62.87 21.19 Z" />
<path fill="#a51aff" opacity="1.00" d=" M 60.41 73.41 C 64.34 68.55 71.38 69.07 77.00 68.97 C 82.60 68.92 90.05 69.71 92.12 75.93 C 93.67 82.09 94.16 89.27 91.19 95.08 C 86.34 101.79 79.73 106.96 74.00 112.88 C 80.05 112.97 86.09 113.10 92.14 112.92 C 93.34 115.61 94.33 119.77 91.84 121.94 C 81.10 121.97 70.14 122.79 59.50 121.51 C 58.73 118.38 58.11 114.26 60.85 111.90 C 66.91 105.93 73.13 100.12 79.12 94.08 C 82.93 90.44 83.36 84.19 81.38 79.57 C 78.86 77.38 75.14 78.05 72.10 78.31 C 68.23 79.02 69.11 83.76 68.52 86.65 C 65.32 86.99 61.60 87.92 58.67 86.29 C 57.50 82.11 58.14 77.15 60.41 73.41 Z" />
<path fill="#a51aff" opacity="1.00" d=" M 103.43 71.44 C 109.01 68.21 115.78 68.97 121.96 69.11 C 126.99 69.27 132.63 71.84 133.56 77.31 C 134.67 84.22 135.34 92.61 129.98 98.03 C 125.24 103.22 120.00 107.93 115.01 112.88 C 121.05 112.97 127.10 113.09 133.14 112.91 C 134.67 115.78 134.69 119.31 133.17 122.19 C 122.53 121.81 111.83 122.59 101.23 121.81 C 99.07 120.03 99.80 115.97 100.51 113.54 C 106.78 106.49 114.12 100.43 120.58 93.54 C 123.99 89.90 124.23 83.96 122.37 79.57 C 119.83 77.41 116.14 78.03 113.10 78.31 C 109.25 79.07 110.13 83.76 109.54 86.65 C 106.34 86.96 102.57 87.97 99.68 86.29 C 98.42 81.39 99.04 74.72 103.43 71.44 Z" />
</g>
</svg>
