<?xml version="1.0" encoding="UTF-8" ?>
<!DOCTYPE svg PUBLIC "-//W3C//DTD SVG 1.1//EN" "http://www.w3.org/Graphics/SVG/1.1/DTD/svg11.dtd">
<svg width="192pt" height="192pt" viewBox="0 0 192 192" version="1.1" xmlns="http://www.w3.org/2000/svg">
<g id="#a61affff">
<path fill="#a61aff" opacity="1.00" d=" M 62.77 21.20 C 63.77 13.88 74.00 13.86 75.01 21.20 C 79.64 21.22 84.28 21.22 88.92 21.19 C 89.88 13.87 100.13 13.88 101.13 21.18 C 105.77 21.22 110.41 21.21 115.05 21.20 C 115.67 15.57 123.69 13.10 126.25 18.72 C 127.36 25.38 126.52 32.28 126.73 39.03 C 127.36 43.56 121.50 46.96 117.94 44.05 C 114.29 41.36 115.81 36.25 115.46 32.38 C 110.52 32.40 105.58 32.39 100.64 32.38 C 101.01 37.51 101.34 44.24 95.00 45.62 C 88.74 44.18 89.04 37.47 89.37 32.38 C 84.43 32.39 79.48 32.40 74.54 32.37 C 74.91 37.46 75.24 44.11 69.02 45.62 C 62.59 44.31 62.91 37.49 63.24 32.36 C 56.49 32.48 49.74 32.24 42.99 32.45 C 36.69 32.75 31.67 38.75 31.81 44.95 C 31.74 78.31 31.79 111.67 31.81 145.03 C 31.37 151.83 37.01 158.40 43.97 158.23 C 77.99 158.28 112.01 158.27 146.03 158.21 C 152.52 158.34 158.32 152.52 158.17 146.04 C 158.24 112.35 158.22 78.66 158.19 44.97 C 158.34 40.00 155.22 35.20 150.64 33.31 C 146.39 31.45 141.55 33.26 137.25 31.78 C 133.52 30.23 132.96 24.52 136.33 22.27 C 150.51 17.02 168.80 27.12 169.31 43.01 C 169.52 77.33 169.36 111.66 169.39 145.99 C 169.70 158.51 158.48 169.67 145.99 169.44 C 111.66 169.44 77.33 169.53 43.00 169.38 C 30.50 169.10 19.93 157.44 20.68 144.99 C 20.73 111.33 20.64 77.66 20.74 44.00 C 20.76 32.51 30.52 22.07 42.00 21.34 C 48.92 21.03 55.85 21.32 62.77 21.20 Z" />
<path fill="#a61aff" opacity="1.00" d=" M 97.60 74.62 C 99.85 70.10 105.39 69.21 109.94 69.01 C 115.86 69.05 122.30 68.27 127.66 71.33 C 132.41 74.54 132.14 80.92 132.24 86.00 C 132.02 95.01 132.65 104.06 131.87 113.04 C 131.60 117.45 128.48 121.60 123.97 122.28 C 117.49 123.55 110.60 123.66 104.18 122.00 C 98.01 120.50 96.15 112.99 97.52 107.54 C 100.92 107.10 107.35 105.08 107.94 109.99 C 108.69 115.43 116.20 114.69 119.87 112.91 C 122.59 109.36 120.92 104.37 121.39 100.22 C 115.73 102.94 109.05 102.61 103.09 101.14 C 98.25 99.93 96.11 94.65 96.16 90.08 C 96.26 84.94 95.36 79.44 97.60 74.62 M 110.24 78.28 C 105.53 79.37 107.00 85.48 107.01 89.03 C 107.35 94.03 113.60 93.11 117.08 92.93 C 122.55 92.60 121.49 85.80 121.23 82.00 C 120.60 76.78 113.93 78.08 110.24 78.28 Z" />
<path fill="#a61aff" opacity="1.00" d=" M 60.47 74.83 C 66.73 72.46 73.08 69.08 80.00 70.04 C 81.59 69.99 82.63 71.46 82.39 72.97 C 82.55 86.29 82.42 99.63 82.44 112.96 C 85.42 112.98 88.40 113.00 91.38 112.97 C 92.44 115.96 92.44 119.17 91.41 122.17 C 81.33 121.88 71.22 122.48 61.16 121.88 C 58.88 120.15 59.97 116.66 60.09 114.19 C 63.04 111.68 67.75 113.55 71.39 113.01 C 71.39 102.38 71.40 91.75 71.39 81.12 C 66.48 81.42 58.60 82.30 60.47 74.83 Z" />
</g>
</svg>
