<?xml version="1.0" encoding="UTF-8" ?>
<!DOCTYPE svg PUBLIC "-//W3C//DTD SVG 1.1//EN" "http://www.w3.org/Graphics/SVG/1.1/DTD/svg11.dtd">
<svg width="192pt" height="192pt" viewBox="0 0 192 192" version="1.1" xmlns="http://www.w3.org/2000/svg">
<g id="#a51affff">
<path fill="#a51aff" opacity="1.00" d=" M 115.08 21.21 C 115.63 15.57 123.73 13.12 126.24 18.73 C 127.31 25.72 126.56 32.96 126.67 40.04 C 126.75 44.29 121.01 46.91 117.82 44.12 C 114.27 41.34 115.83 36.30 115.49 32.42 C 110.53 32.42 105.58 32.41 100.62 32.42 C 100.62 35.27 100.82 38.15 100.42 40.98 C 99.74 44.68 94.74 46.62 91.79 44.19 C 88.14 41.45 89.73 36.32 89.39 32.42 C 84.43 32.41 79.47 32.41 74.51 32.41 C 74.68 37.07 75.58 44.91 69.02 45.27 C 62.19 45.12 63.21 37.07 63.17 32.36 C 56.44 32.54 49.71 32.23 42.99 32.51 C 36.74 32.90 31.67 38.79 31.80 44.98 C 31.74 78.65 31.78 112.33 31.80 146.00 C 31.36 152.77 37.07 159.27 43.97 159.10 C 77.99 159.15 112.02 159.13 146.04 159.08 C 152.92 159.26 158.70 152.77 158.20 145.99 C 158.20 112.32 158.25 78.66 158.19 44.99 C 158.36 39.30 154.10 33.89 148.53 32.74 C 145.06 32.11 141.51 32.72 138.04 32.19 C 133.74 31.08 132.65 24.76 136.36 22.30 C 150.51 17.05 168.71 27.20 169.26 43.02 C 169.50 77.67 169.32 112.33 169.36 146.98 C 169.57 159.08 159.08 170.05 146.98 170.32 C 112.66 170.43 78.34 170.35 44.02 170.35 C 31.57 170.56 20.48 159.42 20.71 146.97 C 20.68 112.99 20.70 79.00 20.71 45.02 C 20.38 33.50 29.65 22.67 41.15 21.47 C 48.38 20.92 55.64 21.38 62.88 21.19 C 63.67 13.87 74.11 13.95 74.96 21.21 C 79.64 21.22 84.32 21.23 89.00 21.19 C 89.77 13.92 100.24 13.91 101.03 21.18 C 105.71 21.23 110.39 21.21 115.08 21.21 Z" />
<path fill="#a51aff" opacity="1.00" d=" M 98.22 73.21 C 100.24 68.68 106.48 69.45 110.24 70.80 C 111.20 81.71 110.39 92.79 110.65 103.76 C 118.20 101.49 118.23 115.59 110.66 113.32 C 110.58 115.95 111.03 118.69 110.26 121.24 C 107.61 122.89 104.15 122.05 101.18 121.93 C 98.73 119.81 100.23 115.96 99.79 113.10 C 92.59 112.99 85.37 113.41 78.19 112.91 C 75.77 110.83 76.68 106.71 78.20 104.26 C 84.83 93.88 91.59 83.59 98.22 73.21 M 89.23 103.90 C 92.77 103.96 96.31 104.01 99.85 103.99 C 99.86 98.54 99.84 93.09 99.75 87.64 C 96.19 93.03 92.91 98.60 89.23 103.90 Z" />
</g>
</svg>
