<?xml version="1.0" encoding="UTF-8" ?>
<!DOCTYPE svg PUBLIC "-//W3C//DTD SVG 1.1//EN" "http://www.w3.org/Graphics/SVG/1.1/DTD/svg11.dtd">
<svg width="192pt" height="192pt" viewBox="0 0 192 192" version="1.1" xmlns="http://www.w3.org/2000/svg">
<g id="#e48ca0ff">
<path fill="#e48ca0" opacity="1.00" d=" M 30.31 45.29 C 32.02 41.56 35.76 38.59 40.00 38.74 C 77.66 38.71 115.33 38.69 152.99 38.74 C 157.24 38.60 160.93 41.61 162.63 45.34 C 167.42 54.90 172.34 64.40 177.07 73.99 C 179.27 78.26 176.82 84.30 171.99 85.29 C 168.48 85.77 164.92 85.45 161.39 85.51 C 161.26 104.00 161.40 122.51 161.32 141.00 C 161.40 146.52 156.62 151.71 150.98 151.47 C 114.66 151.52 78.33 151.50 42.01 151.47 C 36.35 151.73 31.54 146.53 31.59 141.01 C 31.48 122.50 31.69 103.99 31.49 85.49 C 28.13 85.42 24.76 85.65 21.42 85.34 C 16.38 84.63 13.53 78.35 15.89 73.95 C 20.61 64.36 25.53 54.86 30.31 45.29 M 40.33 50.12 C 36.44 58.20 32.27 66.16 28.28 74.19 C 43.86 74.27 59.45 74.22 75.04 74.22 C 79.12 66.13 83.39 58.13 87.18 49.90 C 71.57 49.98 55.93 49.55 40.33 50.12 M 105.71 49.91 C 109.55 58.12 113.75 66.15 117.90 74.21 C 133.44 74.14 148.98 74.24 164.52 74.11 C 160.62 66.09 156.44 58.21 152.55 50.18 C 136.94 50.16 121.33 49.74 105.71 49.91 M 78.30 85.26 C 66.43 85.81 54.51 85.29 42.62 85.50 C 42.51 103.79 42.59 122.09 42.58 140.39 C 58.68 140.41 74.79 140.41 90.89 140.38 C 90.79 116.32 91.04 92.26 90.75 68.21 C 86.76 73.89 85.85 83.09 78.30 85.26 M 102.04 68.24 C 101.66 92.27 101.98 116.32 101.88 140.36 C 118.01 140.42 134.14 140.40 150.27 140.36 C 150.22 122.09 150.45 103.81 150.25 85.54 C 138.40 85.32 126.53 85.81 114.70 85.30 C 107.01 83.25 106.25 73.83 102.04 68.24 Z" />
</g>
</svg>
