<?xml version="1.0" encoding="UTF-8" ?>
<!DOCTYPE svg PUBLIC "-//W3C//DTD SVG 1.1//EN" "http://www.w3.org/Graphics/SVG/1.1/DTD/svg11.dtd">
<svg width="192pt" height="192pt" viewBox="0 0 192 192" version="1.1" xmlns="http://www.w3.org/2000/svg">
<g id="#ff613cff">
<path fill="#ff613c" opacity="1.00" d=" M 25.22 35.92 C 25.20 27.67 32.80 20.53 41.01 20.89 C 57.67 20.88 74.34 20.81 91.01 20.92 C 100.72 20.85 109.50 29.21 109.91 38.92 C 110.32 50.06 109.97 61.22 110.08 72.37 C 117.50 72.57 125.05 71.81 132.33 73.66 C 146.71 77.04 159.07 87.96 164.06 101.88 C 167.57 110.77 167.07 120.53 166.55 129.87 C 164.42 151.08 145.38 168.85 124.07 169.48 C 96.36 169.64 68.65 169.50 40.94 169.54 C 32.54 169.96 24.85 162.47 25.06 154.06 C 24.93 114.68 25.22 75.30 25.22 35.92 M 36.44 39.98 C 36.50 76.35 36.24 112.72 36.34 149.08 C 36.21 154.16 40.94 158.60 46.00 158.25 C 71.65 158.26 97.31 158.29 122.96 158.23 C 139.11 158.01 153.72 144.59 155.33 128.52 C 155.94 119.64 156.25 110.12 151.87 102.05 C 146.46 91.32 134.99 84.04 122.97 83.69 C 114.97 83.63 106.97 83.65 98.97 83.70 C 98.40 69.13 98.99 54.53 98.68 39.96 C 98.70 35.52 94.46 31.76 90.06 32.20 C 74.69 32.22 59.32 32.16 43.95 32.23 C 39.83 32.08 36.22 35.89 36.44 39.98 Z" />
<path fill="#ff613c" opacity="1.00" d=" M 139.16 24.20 C 140.73 19.56 148.11 19.67 149.60 24.31 C 150.56 28.60 149.91 33.06 150.07 37.43 C 154.43 37.68 158.89 36.99 163.20 37.85 C 167.79 39.43 167.85 46.58 163.34 48.31 C 158.99 49.10 154.52 48.48 150.13 48.66 C 149.56 54.33 152.63 65.15 143.98 65.45 C 136.10 64.16 139.40 54.34 138.75 48.82 C 134.40 48.35 129.98 49.09 125.66 48.36 C 121.17 46.89 120.75 39.92 125.13 38.03 C 129.52 36.84 134.20 37.72 138.71 37.48 C 138.96 33.06 138.28 28.55 139.16 24.20 Z" />
</g>
</svg>
