<?xml version="1.0" encoding="UTF-8" ?>
<!DOCTYPE svg PUBLIC "-//W3C//DTD SVG 1.1//EN" "http://www.w3.org/Graphics/SVG/1.1/DTD/svg11.dtd">
<svg width="192pt" height="192pt" viewBox="0 0 192 192" version="1.1" xmlns="http://www.w3.org/2000/svg">
<g id="#46e371ff">
<path fill="#46e371" opacity="1.00" d=" M 39.37 21.53 C 43.16 20.53 47.12 20.73 51.00 20.72 C 83.33 20.78 115.67 20.67 148.00 20.77 C 159.83 20.76 170.46 31.10 170.77 42.93 C 170.83 50.19 171.10 57.49 170.64 64.74 C 169.99 70.40 160.90 70.49 159.94 64.95 C 159.15 57.39 160.19 49.74 159.46 42.17 C 158.62 35.84 152.24 31.40 146.03 31.84 C 112.67 31.85 79.31 31.77 45.95 31.86 C 40.04 31.72 34.23 36.18 33.45 42.14 C 32.78 49.72 33.85 57.38 32.96 64.94 C 32.02 70.43 23.16 70.42 22.29 64.90 C 21.73 57.93 22.13 50.91 22.08 43.92 C 21.99 33.68 29.51 24.11 39.37 21.53 Z" />
<path fill="#46e371" opacity="1.00" d=" M 23.58 79.59 C 25.55 74.23 32.24 74.22 37.00 74.16 C 41.92 74.32 48.51 73.64 51.52 78.47 C 53.15 82.17 54.04 86.73 52.72 90.61 C 50.31 91.45 47.65 91.28 45.21 90.65 C 44.47 88.00 44.66 85.12 43.43 82.62 C 39.89 81.08 35.24 80.89 31.87 82.93 C 30.31 88.80 31.41 95.00 31.06 101.00 C 31.26 103.68 30.42 108.26 34.07 108.87 C 37.22 109.15 41.21 109.95 43.76 107.61 C 44.72 105.15 44.64 102.44 44.99 99.86 C 47.71 99.75 50.43 99.76 53.15 99.87 C 53.35 105.31 53.81 113.31 47.49 115.52 C 41.29 117.08 34.55 117.04 28.33 115.56 C 22.60 113.90 22.35 106.93 22.34 102.02 C 22.70 94.56 21.36 86.83 23.58 79.59 Z" />
<path fill="#46e371" opacity="1.00" d=" M 74.33 82.12 C 74.68 77.56 78.80 74.55 83.16 74.43 C 89.03 74.19 95.47 73.31 100.87 76.15 C 105.05 79.26 104.65 85.18 104.65 89.83 C 101.99 90.07 99.22 90.58 96.63 89.68 C 95.65 86.74 96.49 81.64 92.05 81.69 C 88.88 81.58 83.25 80.57 82.75 85.02 C 82.25 91.66 82.39 98.38 82.66 105.04 C 82.75 110.31 89.41 109.26 92.95 108.89 C 96.88 108.22 95.76 103.27 96.27 100.40 C 94.38 100.30 92.50 100.21 90.63 100.14 C 90.51 98.12 90.43 96.11 90.38 94.10 C 95.04 93.43 99.77 93.62 104.46 93.78 C 104.60 100.25 105.95 107.54 102.34 113.33 C 97.77 117.62 90.76 116.43 85.01 116.48 C 80.19 116.64 74.76 114.08 74.35 108.72 C 73.48 99.91 73.50 90.92 74.33 82.12 Z" />
<path fill="#46e371" opacity="1.00" d=" M 148.39 74.54 C 154.07 74.05 160.09 73.56 165.58 75.46 C 170.80 77.64 170.72 84.24 170.77 89.00 C 170.39 96.21 171.65 103.65 169.75 110.70 C 167.85 116.82 160.19 116.53 155.00 116.60 C 149.81 116.65 142.26 116.45 140.73 110.20 C 139.08 101.92 140.04 93.33 139.99 84.93 C 139.81 79.92 142.95 74.70 148.39 74.54 M 150.38 82.29 C 146.58 88.02 149.37 96.28 148.55 103.01 C 146.58 111.67 164.03 111.70 162.08 103.05 C 161.75 96.37 163.08 89.38 161.14 82.92 C 158.05 80.93 153.76 81.24 150.38 82.29 Z" />
<path fill="#46e371" opacity="1.00" d=" M 110.78 74.88 C 119.02 74.62 127.27 74.69 135.52 74.83 C 135.65 77.28 135.66 79.74 135.53 82.19 C 130.11 82.30 124.69 82.27 119.26 82.24 C 119.28 85.36 119.28 88.47 119.27 91.58 C 123.96 91.60 128.65 91.54 133.34 91.72 C 133.48 94.02 133.57 96.32 133.61 98.63 C 128.86 99.32 124.05 99.17 119.26 99.11 C 119.28 102.25 119.28 105.38 119.27 108.52 C 124.81 108.56 130.36 108.36 135.89 108.78 C 135.94 111.10 135.92 113.42 135.84 115.74 C 127.62 116.24 119.27 116.58 111.09 115.64 C 109.99 102.16 110.66 88.44 110.78 74.88 Z" />
<path fill="#46e371" opacity="1.00" d=" M 59.22 83.69 C 62.02 83.41 64.85 83.41 67.66 83.67 C 67.75 86.54 67.69 89.41 67.48 92.28 C 64.80 92.20 61.98 92.52 59.41 91.66 C 58.95 89.02 59.15 86.34 59.22 83.69 Z" />
<path fill="#46e371" opacity="1.00" d=" M 59.53 107.54 C 62.11 106.99 64.82 106.96 67.38 107.62 C 67.92 110.31 67.75 113.07 67.64 115.79 C 64.85 115.90 62.07 115.91 59.29 115.79 C 59.17 113.04 58.86 110.24 59.53 107.54 Z" />
<path fill="#46e371" opacity="1.00" d=" M 25.23 121.08 C 28.65 119.25 33.19 122.07 33.15 125.93 C 33.61 133.23 32.92 140.56 33.42 147.86 C 34.09 153.91 39.93 158.68 45.99 158.33 C 79.66 158.33 113.34 158.33 147.02 158.31 C 153.05 158.62 158.80 153.85 159.49 147.83 C 160.12 140.24 159.23 132.59 159.89 125.01 C 160.31 121.14 165.45 119.20 168.47 121.53 C 171.30 123.36 170.81 127.10 170.89 130.00 C 170.74 136.28 171.10 142.58 170.65 148.86 C 169.59 160.11 159.28 169.46 147.99 169.52 C 113.67 169.59 79.34 169.57 45.01 169.52 C 33.73 169.50 23.43 160.24 22.27 149.02 C 21.76 142.01 22.14 134.96 22.02 127.94 C 21.88 125.32 22.50 122.18 25.23 121.08 Z" />
</g>
</svg>
