<?xml version="1.0" encoding="UTF-8" ?>
<!DOCTYPE svg PUBLIC "-//W3C//DTD SVG 1.1//EN" "http://www.w3.org/Graphics/SVG/1.1/DTD/svg11.dtd">
<svg width="192pt" height="192pt" viewBox="0 0 192 192" version="1.1" xmlns="http://www.w3.org/2000/svg">
<g id="#2e9affff">
<path fill="#2e9aff" opacity="1.00" d=" M 40.28 21.32 C 71.11 19.97 102.10 21.12 133.00 20.73 C 141.23 21.18 150.08 19.26 157.75 23.14 C 165.87 27.09 171.20 35.95 170.86 44.97 C 170.87 78.67 170.93 112.36 170.86 146.06 C 171.15 158.35 160.36 169.48 148.06 169.52 C 113.69 169.60 79.31 169.57 44.94 169.51 C 32.61 169.51 21.78 158.36 22.06 146.04 C 22.03 112.01 22.04 77.97 22.09 43.94 C 21.99 33.38 30.00 23.55 40.28 21.32 M 42.28 32.33 C 37.20 33.71 33.17 38.58 33.28 43.93 C 33.23 77.97 33.26 112.02 33.27 146.06 C 33.04 152.79 39.25 158.73 45.95 158.32 C 79.88 158.29 113.83 158.34 147.77 158.26 C 154.17 158.26 159.75 152.45 159.64 146.07 C 159.69 112.02 159.72 77.97 159.63 43.92 C 159.71 36.87 152.87 31.23 146.01 31.83 C 111.44 32.19 76.77 31.10 42.28 32.33 Z" />
<path fill="#2e9aff" opacity="1.00" d=" M 96.25 110.25 C 109.38 109.04 122.80 109.92 136.03 109.79 C 142.51 109.49 143.38 120.14 136.91 120.69 C 123.97 120.93 111.01 120.81 98.07 120.73 C 92.50 120.89 91.18 112.10 96.25 110.25 Z" />
<path fill="#2e9aff" opacity="1.00" d=" M 97.38 128.58 C 110.51 128.26 123.70 128.29 136.83 128.55 C 142.85 129.10 142.89 138.94 136.85 139.47 C 123.71 139.69 110.52 139.74 97.37 139.43 C 91.72 138.62 91.69 129.35 97.38 128.58 Z" />
</g>
</svg>
