<?xml version="1.0" encoding="UTF-8" ?>
<!DOCTYPE svg PUBLIC "-//W3C//DTD SVG 1.1//EN" "http://www.w3.org/Graphics/SVG/1.1/DTD/svg11.dtd">
<svg width="192pt" height="192pt" viewBox="0 0 192 192" version="1.1" xmlns="http://www.w3.org/2000/svg">
<g id="#42e274ff">
<path fill="#42e274" opacity="1.00" d=" M 67.37 29.45 C 85.68 26.10 104.96 32.22 119.28 43.75 C 124.05 47.88 117.83 56.19 112.56 52.51 C 100.53 43.60 85.29 37.77 70.17 40.46 C 44.89 43.59 24.08 67.49 24.66 93.00 C 24.27 114.43 38.64 134.89 58.59 142.43 C 77.11 149.62 99.44 145.58 114.00 131.97 C 119.06 127.66 126.02 135.78 121.35 140.28 C 107.00 154.22 85.51 159.69 66.01 156.10 C 46.94 152.84 29.87 140.15 20.87 123.07 C 10.70 104.25 10.84 80.17 21.55 61.61 C 31.01 44.80 48.15 32.22 67.37 29.45 Z" />
<path fill="#42e274" opacity="1.00" d=" M 109.43 76.35 C 111.05 71.97 118.00 71.94 119.66 76.32 C 120.59 79.79 120.07 83.46 120.17 87.03 C 123.65 87.10 127.22 86.66 130.64 87.46 C 135.20 89.01 135.30 96.20 130.80 97.90 C 127.37 98.85 123.72 98.26 120.20 98.34 C 120.04 102.04 120.74 105.94 119.48 109.49 C 117.61 113.39 111.47 113.39 109.61 109.47 C 108.42 105.91 109.09 102.03 108.90 98.34 C 105.35 98.24 101.64 98.89 98.20 97.86 C 93.85 96.09 93.91 89.07 98.40 87.51 C 101.83 86.63 105.45 87.13 108.96 87.03 C 109.05 83.48 108.57 79.83 109.43 76.35 Z" />
<path fill="#42e274" opacity="1.00" d=" M 152.46 76.37 C 154.05 71.97 161.01 71.93 162.69 76.28 C 163.65 79.77 163.14 83.45 163.23 87.02 C 168.25 86.99 177.21 85.53 177.22 93.00 C 176.61 100.00 168.15 98.30 163.26 98.35 C 163.17 101.85 163.60 105.44 162.81 108.88 C 161.33 113.27 154.58 113.66 152.63 109.44 C 151.45 105.89 152.07 102.02 151.89 98.34 C 148.34 98.24 144.64 98.90 141.20 97.84 C 136.88 96.03 136.98 89.15 141.40 87.53 C 144.83 86.62 148.45 87.12 151.96 87.02 C 152.06 83.48 151.55 79.83 152.46 76.37 Z" />
</g>
</svg>
