<?xml version="1.0" encoding="UTF-8" ?>
<!DOCTYPE svg PUBLIC "-//W3C//DTD SVG 1.1//EN" "http://www.w3.org/Graphics/SVG/1.1/DTD/svg11.dtd">
<svg width="192pt" height="192pt" viewBox="0 0 192 192" version="1.1" xmlns="http://www.w3.org/2000/svg">
<g id="#c5c7caff">
<path fill="#c5c7ca" opacity="1.00" d=" M 40.28 21.32 C 75.77 19.96 111.43 21.11 146.99 20.72 C 159.58 20.16 171.01 31.36 170.86 43.93 C 170.94 77.97 170.94 112.02 170.89 146.06 C 171.13 158.39 160.33 169.51 147.98 169.53 C 113.64 169.60 79.29 169.59 44.94 169.51 C 32.60 169.50 21.79 158.37 22.03 146.05 C 22.01 112.01 22.01 77.97 22.07 43.93 C 21.98 33.38 29.98 23.52 40.28 21.32 M 41.38 32.60 C 36.73 34.29 33.19 38.90 33.27 43.92 C 33.22 77.97 33.25 112.02 33.27 146.07 C 33.07 152.80 39.27 158.75 46.00 158.30 C 79.66 158.29 113.34 158.28 147.00 158.26 C 153.68 158.65 159.75 152.73 159.62 146.07 C 159.71 112.36 159.65 78.64 159.67 44.93 C 160.16 37.97 153.99 31.62 147.03 31.88 C 114.02 31.80 81.01 31.88 48.00 31.79 C 45.78 31.81 43.50 31.86 41.38 32.60 Z" />
<path fill="#c5c7ca" opacity="1.00" d=" M 96.36 110.47 C 109.88 110.09 123.44 110.34 136.98 110.32 C 142.73 110.45 142.64 120.35 136.88 120.54 C 123.97 120.75 111.04 120.62 98.12 120.59 C 92.73 120.81 91.35 112.03 96.36 110.47 Z" />
<path fill="#c5c7ca" opacity="1.00" d=" M 97.45 128.71 C 108.95 128.23 120.49 128.69 132.00 128.48 C 134.84 128.52 138.40 128.01 140.21 130.79 C 143.23 133.98 140.11 139.54 136.00 139.44 C 124.66 139.58 113.32 139.39 101.98 139.51 C 99.60 139.41 96.83 139.85 94.94 138.04 C 91.73 135.41 93.16 129.28 97.45 128.71 Z" />
</g>
</svg>
