<?xml version="1.0" encoding="UTF-8" ?>
<!DOCTYPE svg PUBLIC "-//W3C//DTD SVG 1.1//EN" "http://www.w3.org/Graphics/SVG/1.1/DTD/svg11.dtd">
<svg width="192pt" height="192pt" viewBox="0 0 192 192" version="1.1" xmlns="http://www.w3.org/2000/svg">
<g id="#7b8898ff">
<path fill="#7b8898" opacity="1.00" d=" M 40.26 21.29 C 76.09 19.99 112.08 21.05 147.98 20.76 C 160.21 20.69 171.01 31.75 170.84 43.94 C 170.90 77.98 170.88 112.01 170.85 146.05 C 171.19 158.35 160.36 169.48 148.07 169.53 C 113.69 169.61 79.31 169.59 44.94 169.54 C 32.58 169.54 21.77 158.37 22.02 146.03 C 21.97 112.01 21.96 77.97 22.03 43.94 C 21.97 33.37 29.95 23.53 40.26 21.29 M 42.30 32.45 C 36.83 33.77 32.87 39.34 33.28 44.94 C 33.31 78.65 33.26 112.36 33.31 146.07 C 33.08 152.80 39.28 158.75 46.00 158.31 C 79.67 158.31 113.34 158.32 147.00 158.31 C 153.69 158.70 159.79 152.76 159.64 146.08 C 159.72 112.37 159.66 78.65 159.67 44.93 C 160.22 37.57 153.28 31.13 146.01 31.92 C 111.44 32.36 76.81 31.43 42.30 32.45 Z" />
<path fill="#7b8898" opacity="1.00" d=" M 96.25 110.28 C 109.40 109.09 122.82 109.92 136.06 109.84 C 141.99 109.68 143.49 119.09 137.69 120.52 C 124.51 121.05 111.27 120.69 98.07 120.68 C 92.60 120.82 91.29 112.16 96.25 110.28 Z" />
<path fill="#7b8898" opacity="1.00" d=" M 97.41 128.64 C 110.53 128.32 123.71 128.36 136.83 128.61 C 142.79 129.18 142.84 138.87 136.86 139.43 C 123.96 139.70 111.04 139.56 98.14 139.49 C 92.05 139.52 91.36 129.44 97.41 128.64 Z" />
</g>
</svg>
