<?xml version="1.0" encoding="UTF-8" ?>
<!DOCTYPE svg PUBLIC "-//W3C//DTD SVG 1.1//EN" "http://www.w3.org/Graphics/SVG/1.1/DTD/svg11.dtd">
<svg width="192pt" height="192pt" viewBox="0 0 192 192" version="1.1" xmlns="http://www.w3.org/2000/svg">
<g id="#617080ff">
<path fill="#617080" opacity="1.00" d=" M 40.45 18.64 C 75.29 17.95 110.18 18.53 145.04 18.34 C 157.51 17.74 169.08 28.50 169.19 41.02 C 169.31 75.34 169.25 109.66 169.22 143.98 C 169.42 156.39 158.36 167.35 145.99 167.26 C 112.00 167.35 78.00 167.33 44.02 167.26 C 31.57 167.52 20.30 156.55 20.44 144.07 C 20.41 110.03 20.43 75.99 20.44 41.95 C 20.17 30.64 29.25 20.12 40.45 18.64 M 41.49 29.82 C 35.47 30.93 31.10 36.96 31.56 43.01 C 31.58 76.33 31.55 109.66 31.59 142.98 C 31.13 149.81 37.06 156.14 43.92 155.98 C 77.63 156.02 111.34 156.00 145.05 155.99 C 152.13 156.47 158.53 150.11 158.06 143.02 C 158.11 109.68 158.11 76.34 158.07 43.00 C 158.69 35.79 152.34 29.03 145.05 29.56 C 110.54 29.77 75.98 29.21 41.49 29.82 Z" />
<path fill="#617080" opacity="1.00" d=" M 98.21 108.11 C 111.40 107.13 124.77 107.81 138.02 107.76 C 144.45 107.55 145.24 117.96 138.94 118.85 C 125.99 119.47 112.93 119.23 99.97 118.98 C 94.26 118.85 92.92 110.07 98.21 108.11 Z" />
<path fill="#617080" opacity="1.00" d=" M 98.36 130.48 C 111.52 129.50 124.86 130.16 138.07 130.13 C 144.41 130.01 145.28 140.31 139.01 141.22 C 126.02 141.63 112.97 141.40 99.97 141.33 C 94.17 141.33 92.94 132.22 98.36 130.48 Z" />
</g>
</svg>
