<?xml version="1.0" encoding="UTF-8" ?>
<!DOCTYPE svg PUBLIC "-//W3C//DTD SVG 1.1//EN" "http://www.w3.org/Graphics/SVG/1.1/DTD/svg11.dtd">
<svg width="192pt" height="192pt" viewBox="0 0 192 192" version="1.1" xmlns="http://www.w3.org/2000/svg">
<g id="#e33793ff">
<path fill="#e33793" opacity="1.00" d=" M 40.27 21.31 C 75.76 19.97 111.43 21.10 146.99 20.73 C 159.59 20.19 171.06 31.41 170.83 44.01 C 170.88 78.00 170.84 112.00 170.81 145.99 C 171.17 158.29 160.35 169.42 148.07 169.49 C 114.03 169.59 79.99 169.53 45.96 169.55 C 36.80 169.76 27.85 164.15 24.16 155.75 C 21.63 150.54 21.97 144.62 21.99 139.00 C 22.06 107.31 21.97 75.63 22.06 43.94 C 21.97 33.38 29.98 23.54 40.27 21.31 M 42.27 32.36 C 37.22 33.75 33.20 38.60 33.30 43.93 C 33.24 77.97 33.27 112.02 33.29 146.07 C 33.09 152.50 38.77 158.35 45.20 158.30 C 79.13 158.37 113.06 158.32 146.98 158.35 C 153.68 158.71 159.83 152.80 159.66 146.08 C 159.70 112.03 159.73 77.96 159.63 43.91 C 159.70 36.86 152.87 31.25 146.01 31.84 C 111.44 32.20 76.77 31.13 42.27 32.36 Z" />
<path fill="#e33793" opacity="1.00" d=" M 96.21 110.21 C 107.36 108.94 118.75 110.06 130.00 109.65 C 133.59 109.84 138.42 108.73 140.67 112.39 C 143.08 115.76 140.23 121.13 136.04 120.82 C 123.38 120.89 110.70 120.94 98.04 120.78 C 92.43 120.90 91.13 112.13 96.21 110.21 Z" />
<path fill="#e33793" opacity="1.00" d=" M 97.37 128.55 C 109.92 128.09 122.52 128.45 135.09 128.37 C 139.47 127.75 143.20 132.85 140.83 136.74 C 139.20 140.09 135.09 139.67 132.00 139.68 C 120.45 139.47 108.89 139.93 97.36 139.46 C 91.65 138.65 91.62 129.33 97.37 128.55 Z" />
</g>
</svg>
