<?xml version="1.0" encoding="UTF-8" ?>
<!DOCTYPE svg PUBLIC "-//W3C//DTD SVG 1.1//EN" "http://www.w3.org/Graphics/SVG/1.1/DTD/svg11.dtd">
<svg width="192pt" height="192pt" viewBox="0 0 192 192" version="1.1" xmlns="http://www.w3.org/2000/svg">
<g id="#48e470ff">
<path fill="#48e470" opacity="1.00" d=" M 39.29 22.39 C 43.13 21.54 47.09 21.73 51.00 21.72 C 82.99 21.78 114.98 21.65 146.97 21.77 C 159.30 21.69 170.19 32.69 170.13 44.99 C 170.25 78.99 170.19 113.00 170.16 147.00 C 170.48 159.43 159.58 170.90 147.05 170.71 C 113.03 170.75 79.01 170.70 44.98 170.72 C 29.50 171.50 18.41 155.54 21.11 141.00 C 21.16 108.98 21.09 76.96 21.16 44.94 C 21.06 34.41 29.05 24.62 39.29 22.39 M 41.31 33.43 C 35.91 34.90 31.90 40.31 32.33 45.95 C 32.35 79.65 32.33 113.36 32.35 147.07 C 32.02 153.85 38.19 159.85 44.93 159.57 C 78.64 159.61 112.36 159.59 146.07 159.57 C 152.90 159.94 159.12 153.94 158.91 147.09 C 159.01 113.37 158.96 79.66 158.94 45.94 C 159.40 38.95 153.07 32.44 146.02 33.10 C 111.12 33.49 76.14 32.04 41.31 33.43 Z" />
<path fill="#48e470" opacity="1.00" d=" M 92.49 105.73 C 108.24 105.19 124.08 105.43 139.84 105.60 C 146.01 106.03 146.09 116.16 139.89 116.59 C 124.32 116.81 108.70 116.83 93.13 116.57 C 87.39 116.11 86.86 106.89 92.49 105.73 Z" />
<path fill="#48e470" opacity="1.00" d=" M 91.35 132.34 C 105.05 130.73 119.14 132.14 133.00 131.63 C 136.79 131.78 142.28 130.60 144.13 135.02 C 146.09 139.00 142.28 143.48 138.07 143.03 C 123.37 143.10 108.65 143.36 93.96 142.90 C 88.40 143.07 86.34 134.76 91.35 132.34 Z" />
</g>
</svg>
