<?xml version="1.0" encoding="UTF-8" ?>
<!DOCTYPE svg PUBLIC "-//W3C//DTD SVG 1.1//EN" "http://www.w3.org/Graphics/SVG/1.1/DTD/svg11.dtd">
<svg width="192pt" height="192pt" viewBox="0 0 192 192" version="1.1" xmlns="http://www.w3.org/2000/svg">
<g id="#ff3c5cff">
<path fill="#ff3c5c" opacity="1.00" d=" M 40.27 21.32 C 75.77 19.97 111.43 21.11 146.99 20.73 C 159.56 20.19 171.01 31.37 170.82 43.94 C 170.88 77.98 170.87 112.02 170.83 146.06 C 171.15 158.34 160.35 169.45 148.07 169.51 C 113.69 169.59 79.31 169.57 44.93 169.51 C 32.60 169.50 21.78 158.36 22.06 146.04 C 22.03 112.01 22.02 77.97 22.08 43.94 C 21.97 33.38 29.99 23.55 40.27 21.32 M 42.28 32.35 C 37.21 33.73 33.19 38.59 33.29 43.92 C 33.24 77.97 33.27 112.02 33.28 146.07 C 33.04 152.82 39.28 158.77 46.01 158.33 C 79.67 158.33 113.34 158.33 147.00 158.32 C 153.69 158.70 159.80 152.76 159.65 146.08 C 159.70 112.03 159.73 77.97 159.64 43.91 C 159.72 36.86 152.87 31.25 146.01 31.82 C 111.45 32.19 76.77 31.11 42.28 32.35 Z" />
<path fill="#ff3c5c" opacity="1.00" d=" M 96.22 110.20 C 109.04 108.99 122.11 109.97 135.02 109.69 C 139.31 109.07 143.07 113.87 140.98 117.81 C 139.18 121.57 134.47 121.10 130.99 121.16 C 120.01 120.91 109.00 121.48 98.04 120.88 C 92.43 120.80 91.08 112.17 96.22 110.20 Z" />
<path fill="#ff3c5c" opacity="1.00" d=" M 97.37 128.54 C 110.24 128.11 123.15 128.35 136.03 128.41 C 140.44 128.26 143.24 134.03 140.41 137.41 C 138.54 140.18 134.87 139.59 132.00 139.69 C 120.45 139.48 108.88 139.95 97.35 139.46 C 91.62 138.65 91.60 129.32 97.37 128.54 Z" />
</g>
</svg>
