<?xml version="1.0" encoding="UTF-8" ?>
<!DOCTYPE svg PUBLIC "-//W3C//DTD SVG 1.1//EN" "http://www.w3.org/Graphics/SVG/1.1/DTD/svg11.dtd">
<svg width="192pt" height="192pt" viewBox="0 0 192 192" version="1.1" xmlns="http://www.w3.org/2000/svg">
<g id="#a51affff">
<path fill="#a51aff" opacity="1.00" d=" M 33.09 34.94 C 32.88 25.34 41.42 16.70 51.02 16.77 C 81.00 16.72 110.99 16.71 140.98 16.77 C 150.52 16.76 159.06 25.38 158.79 34.95 C 158.80 47.66 158.84 60.38 158.78 73.09 C 159.09 78.67 151.98 79.03 147.97 79.26 C 120.32 79.34 92.67 79.33 65.02 79.25 C 61.09 79.58 56.65 77.16 56.37 72.90 C 56.09 64.25 56.27 55.57 56.28 46.91 C 56.02 42.74 59.89 39.19 64.01 39.56 C 85.67 39.51 107.34 39.54 129.00 39.54 C 132.31 39.15 135.60 41.70 135.51 45.13 C 135.72 52.73 135.52 60.35 135.58 67.95 C 139.56 68.00 143.55 68.00 147.54 67.97 C 147.41 56.97 147.65 45.97 147.45 34.98 C 147.51 31.12 143.95 27.70 140.06 28.12 C 110.69 28.11 81.32 28.12 51.95 28.11 C 48.04 27.64 44.25 31.02 44.45 34.98 C 44.38 74.99 44.41 115.01 44.44 155.02 C 44.17 159.08 47.95 162.57 51.97 162.18 C 81.33 162.19 110.69 162.20 140.04 162.15 C 144.03 162.49 147.62 158.99 147.45 155.01 C 147.72 134.02 147.18 113.00 147.71 92.03 C 148.60 85.81 158.89 86.68 158.73 92.96 C 158.92 113.65 158.77 134.35 158.81 155.04 C 159.20 164.73 150.67 173.48 141.01 173.51 C 111.01 173.58 81.00 173.57 50.99 173.50 C 41.28 173.54 32.77 164.76 33.06 155.05 C 33.04 115.02 33.04 74.98 33.09 34.94 M 67.48 67.93 C 86.40 68.12 105.31 67.95 124.22 67.99 C 124.22 62.25 124.24 56.52 124.20 50.78 C 105.50 50.86 86.77 50.55 68.08 50.90 C 66.68 56.14 67.97 62.33 67.48 67.93 Z" />
<path fill="#a51aff" opacity="1.00" d=" M 58.48 91.72 C 62.73 91.71 71.47 89.21 71.30 95.98 C 71.23 99.66 72.80 106.84 67.02 106.48 C 63.22 106.36 55.72 108.04 56.23 102.04 C 56.65 98.74 54.69 93.46 58.48 91.72 Z" />
<path fill="#a51aff" opacity="1.00" d=" M 91.36 91.59 C 95.48 91.69 103.81 89.41 103.48 95.99 C 103.41 99.75 104.97 107.08 99.01 106.48 C 95.23 106.43 87.88 107.94 88.39 102.01 C 88.77 98.65 86.74 92.55 91.36 91.59 Z" />
<path fill="#a51aff" opacity="1.00" d=" M 122.45 91.67 C 126.15 91.45 130.26 90.74 133.74 92.22 C 136.14 95.13 134.87 99.56 134.99 103.07 C 134.39 108.31 127.58 106.11 123.99 106.46 C 119.66 106.94 119.75 101.96 119.91 99.00 C 120.15 96.52 119.14 92.42 122.45 91.67 Z" />
<path fill="#a51aff" opacity="1.00" d=" M 58.29 114.38 C 62.28 114.28 68.15 112.40 70.93 116.07 C 71.36 120.58 73.42 130.03 66.03 129.16 C 62.61 129.04 55.90 130.38 56.25 125.03 C 56.66 121.63 54.69 116.42 58.29 114.38 Z" />
<path fill="#a51aff" opacity="1.00" d=" M 90.34 114.41 C 94.40 114.23 100.29 112.39 103.17 116.08 C 103.20 120.33 105.81 129.23 99.07 129.11 C 95.45 128.96 88.20 130.69 88.41 125.02 C 88.76 121.61 86.99 116.67 90.34 114.41 Z" />
<path fill="#a51aff" opacity="1.00" d=" M 122.17 114.32 C 126.09 114.17 131.21 112.74 134.40 115.53 C 135.46 119.51 135.69 124.26 134.17 128.16 C 130.06 129.49 124.10 130.28 120.49 127.56 C 120.17 123.49 118.19 116.97 122.17 114.32 Z" />
<path fill="#a51aff" opacity="1.00" d=" M 58.47 136.72 C 62.20 136.36 66.22 135.92 69.84 137.07 C 72.43 139.95 71.08 144.47 71.24 148.03 C 70.66 153.40 63.65 151.08 59.99 151.43 C 55.77 151.82 56.07 146.83 56.15 144.00 C 56.39 141.58 55.42 137.68 58.47 136.72 Z" />
<path fill="#a51aff" opacity="1.00" d=" M 91.36 136.59 C 95.13 136.75 100.14 135.08 103.04 138.14 C 103.78 141.96 103.79 146.01 103.07 149.83 C 100.37 152.81 95.55 151.17 91.95 151.42 C 87.89 151.60 88.29 146.75 88.31 144.00 C 88.44 141.43 87.69 136.92 91.36 136.59 Z" />
<path fill="#a51aff" opacity="1.00" d=" M 122.46 136.67 C 126.34 136.75 131.84 134.91 134.64 138.32 C 135.10 142.76 137.29 152.28 130.01 151.52 C 126.38 151.46 119.37 152.81 119.98 147.07 C 120.41 143.76 118.36 138.13 122.46 136.67 Z" />
</g>
</svg>
