<?xml version="1.0" encoding="UTF-8" ?>
<!DOCTYPE svg PUBLIC "-//W3C//DTD SVG 1.1//EN" "http://www.w3.org/Graphics/SVG/1.1/DTD/svg11.dtd">
<svg width="192pt" height="192pt" viewBox="0 0 192 192" version="1.1" xmlns="http://www.w3.org/2000/svg">
<g id="#60d06aff">
<path fill="#60d06a" opacity="1.00" d=" M 40.27 21.31 C 70.43 19.96 100.77 21.11 131.00 20.73 C 137.67 20.88 144.37 20.36 151.02 21.03 C 162.03 22.51 170.95 32.84 170.83 43.95 C 170.90 77.98 170.89 112.01 170.85 146.05 C 171.18 158.34 160.37 169.48 148.07 169.53 C 113.70 169.60 79.31 169.59 44.94 169.53 C 32.59 169.52 21.77 158.36 22.05 146.03 C 22.02 112.00 22.00 77.97 22.07 43.94 C 21.97 33.38 29.98 23.55 40.27 21.31 M 42.28 32.37 C 37.23 33.75 33.20 38.60 33.31 43.92 C 33.25 77.97 33.28 112.02 33.29 146.07 C 33.06 152.81 39.29 158.76 46.01 158.32 C 79.67 158.31 113.33 158.32 146.99 158.30 C 153.68 158.68 159.78 152.77 159.64 146.08 C 159.69 112.03 159.73 77.97 159.62 43.91 C 159.70 36.86 152.86 31.27 146.01 31.85 C 111.44 32.19 76.77 31.12 42.28 32.37 Z" />
<path fill="#60d06a" opacity="1.00" d=" M 96.25 110.26 C 109.05 108.99 122.11 110.02 135.01 109.72 C 139.60 109.03 143.48 114.68 140.52 118.49 C 138.73 121.47 134.90 120.73 131.99 120.85 C 120.42 120.65 108.83 121.04 97.27 120.63 C 92.22 120.01 91.59 111.97 96.25 110.26 Z" />
<path fill="#60d06a" opacity="1.00" d=" M 97.38 128.60 C 110.25 128.20 123.16 128.39 136.03 128.46 C 140.41 128.30 143.22 134.05 140.39 137.41 C 138.52 140.18 134.85 139.55 131.99 139.66 C 120.45 139.45 108.88 139.88 97.36 139.43 C 91.73 138.61 91.71 129.36 97.38 128.60 Z" />
</g>
</svg>
