<?xml version="1.0" encoding="UTF-8" ?>
<!DOCTYPE svg PUBLIC "-//W3C//DTD SVG 1.1//EN" "http://www.w3.org/Graphics/SVG/1.1/DTD/svg11.dtd">
<svg width="192pt" height="192pt" viewBox="0 0 192 192" version="1.1" xmlns="http://www.w3.org/2000/svg">
<g id="#ff5c41ff">
<path fill="#ff5c41" opacity="1.00" d=" M 40.27 21.32 C 76.10 19.99 112.09 21.06 147.98 20.77 C 160.19 20.71 171.00 31.75 170.82 43.94 C 170.89 77.98 170.88 112.02 170.84 146.05 C 171.15 158.34 160.36 169.46 148.07 169.51 C 113.69 169.59 79.31 169.57 44.93 169.51 C 32.60 169.50 21.78 158.36 22.06 146.04 C 22.03 112.01 22.02 77.97 22.08 43.94 C 21.98 33.38 29.99 23.55 40.27 21.32 M 42.27 32.35 C 37.21 33.72 33.19 38.59 33.30 43.92 C 33.24 77.97 33.27 112.02 33.28 146.07 C 33.04 152.82 39.27 158.76 46.00 158.33 C 79.66 158.33 113.33 158.33 146.99 158.31 C 153.69 158.70 159.79 152.77 159.64 146.08 C 159.70 112.03 159.73 77.97 159.63 43.91 C 159.72 36.85 152.87 31.25 146.00 31.82 C 111.44 32.19 76.77 31.10 42.27 32.35 Z" />
<path fill="#ff5c41" opacity="1.00" d=" M 96.21 110.20 C 109.04 108.99 122.10 109.97 135.02 109.69 C 139.31 109.08 143.08 113.88 140.97 117.82 C 139.17 121.58 134.46 121.06 131.00 121.16 C 119.75 120.93 108.48 121.19 97.24 120.69 C 92.11 120.03 91.48 111.99 96.21 110.20 Z" />
<path fill="#ff5c41" opacity="1.00" d=" M 97.36 128.56 C 110.23 128.11 123.15 128.35 136.04 128.43 C 140.45 128.26 143.23 134.04 140.40 137.42 C 138.53 140.17 134.85 139.58 131.99 139.70 C 120.45 139.46 108.88 139.97 97.36 139.45 C 91.63 138.66 91.60 129.32 97.36 128.56 Z" />
</g>
</svg>
