<?xml version="1.0" encoding="UTF-8" ?>
<!DOCTYPE svg PUBLIC "-//W3C//DTD SVG 1.1//EN" "http://www.w3.org/Graphics/SVG/1.1/DTD/svg11.dtd">
<svg width="192pt" height="192pt" viewBox="0 0 192 192" version="1.1" xmlns="http://www.w3.org/2000/svg">
<g id="#d071e0ff">
<path fill="#d071e0" opacity="1.00" d=" M 40.28 21.31 C 71.11 19.97 102.10 21.11 133.00 20.73 C 141.23 21.18 150.09 19.26 157.76 23.14 C 165.88 27.08 171.19 35.94 170.87 44.97 C 170.87 78.66 170.93 112.36 170.87 146.06 C 171.14 158.34 160.37 169.47 148.07 169.52 C 113.69 169.60 79.31 169.57 44.94 169.51 C 32.60 169.50 21.79 158.37 22.04 146.05 C 22.02 112.01 22.01 77.97 22.08 43.93 C 21.98 33.37 30.00 23.54 40.28 21.31 M 42.27 32.33 C 37.19 33.71 33.18 38.58 33.28 43.92 C 33.22 77.97 33.25 112.02 33.27 146.07 C 33.06 152.81 39.28 158.76 46.00 158.31 C 79.67 158.30 113.34 158.31 147.00 158.28 C 153.68 158.66 159.77 152.75 159.63 146.08 C 159.69 112.03 159.72 77.97 159.63 43.91 C 159.70 36.87 152.88 31.23 146.01 31.83 C 111.44 32.20 76.77 31.13 42.27 32.33 Z" />
<path fill="#d071e0" opacity="1.00" d=" M 96.26 110.30 C 109.40 109.05 122.82 109.94 136.06 109.83 C 142.02 109.66 143.44 119.07 137.67 120.51 C 124.50 121.02 111.27 120.66 98.07 120.67 C 92.59 120.82 91.24 112.12 96.26 110.30 Z" />
<path fill="#d071e0" opacity="1.00" d=" M 97.39 128.63 C 110.52 128.31 123.70 128.34 136.82 128.60 C 142.79 129.19 142.82 138.84 136.84 139.41 C 123.95 139.70 111.04 139.56 98.15 139.47 C 92.03 139.51 91.35 129.45 97.39 128.63 Z" />
</g>
</svg>
