<?xml version="1.0" encoding="UTF-8" ?>
<!DOCTYPE svg PUBLIC "-//W3C//DTD SVG 1.1//EN" "http://www.w3.org/Graphics/SVG/1.1/DTD/svg11.dtd">
<svg width="192pt" height="192pt" viewBox="0 0 192 192" version="1.1" xmlns="http://www.w3.org/2000/svg">
<g id="#ff565fff">
<path fill="#ff565f" opacity="1.00" d=" M 63.02 21.00 C 63.05 17.56 64.95 13.42 69.00 13.73 C 72.93 13.63 74.67 17.62 74.79 20.97 C 79.57 21.01 84.35 21.02 89.14 21.00 C 89.20 17.59 90.99 13.54 95.00 13.74 C 99.00 13.53 100.82 17.55 100.90 20.95 C 105.68 21.03 110.47 20.99 115.25 21.01 C 115.29 17.63 117.07 13.63 121.00 13.73 C 125.04 13.42 126.91 17.53 127.02 20.95 C 134.05 21.15 141.08 20.76 148.10 21.15 C 159.62 21.96 169.39 32.45 169.34 44.02 C 169.32 64.35 169.55 84.70 169.23 105.02 C 168.88 111.28 158.58 111.12 158.34 104.89 C 157.98 84.59 158.43 64.27 158.14 43.96 C 158.09 38.00 152.98 32.59 147.02 32.29 C 140.34 32.02 133.65 32.30 126.97 32.18 C 127.10 35.74 125.21 40.12 121.01 39.80 C 116.90 39.97 115.22 35.62 115.25 32.18 C 110.45 32.22 105.65 32.19 100.85 32.18 C 101.01 35.70 99.17 40.06 95.01 39.79 C 90.85 40.04 89.10 35.67 89.14 32.19 C 84.34 32.19 79.54 32.22 74.75 32.16 C 74.88 35.64 73.12 39.98 69.00 39.79 C 64.82 40.11 62.94 35.73 63.03 32.20 C 56.35 32.29 49.66 32.02 42.99 32.29 C 36.60 32.58 31.54 38.68 31.82 44.97 C 31.78 78.66 31.74 112.36 31.85 146.04 C 31.72 152.96 38.17 158.75 45.00 158.25 C 78.33 158.27 111.67 158.27 145.00 158.25 C 149.73 158.44 154.53 156.00 156.74 151.74 C 159.45 146.77 157.41 140.91 158.59 135.62 C 159.84 131.77 165.48 130.80 167.98 133.96 C 173.85 148.32 164.89 168.44 148.01 169.28 C 113.36 169.62 78.68 169.37 44.01 169.40 C 31.55 169.61 20.41 158.47 20.71 145.99 C 20.69 112.00 20.66 78.01 20.72 44.02 C 20.64 32.47 30.39 21.96 41.91 21.16 C 48.94 20.78 55.98 21.13 63.02 21.00 Z" />
<path fill="#ff565f" opacity="1.00" d=" M 87.05 69.84 C 94.36 68.57 102.30 68.16 109.40 70.65 C 115.60 73.46 115.21 81.28 115.25 87.00 C 114.91 96.23 115.93 105.56 114.57 114.72 C 113.84 119.60 109.14 122.47 104.51 122.77 C 98.49 123.37 92.16 123.67 86.34 121.70 C 80.74 119.80 79.26 112.70 80.55 107.57 C 83.52 106.58 86.76 106.84 89.82 107.24 C 91.37 109.36 90.76 113.41 94.10 113.78 C 97.25 114.09 101.85 114.94 103.78 111.70 C 104.91 107.99 104.21 104.00 104.39 100.17 C 98.29 103.11 90.85 102.80 84.59 100.55 C 77.81 97.07 79.22 88.25 79.13 81.94 C 78.79 76.74 81.44 70.80 87.05 69.84 M 93.24 78.30 C 88.55 79.35 89.96 85.50 90.01 89.02 C 90.33 93.99 96.60 93.18 100.07 92.92 C 105.54 92.64 104.54 85.78 104.22 82.00 C 103.61 76.81 96.92 78.03 93.24 78.30 Z" />
</g>
</svg>
