<?xml version="1.0" encoding="UTF-8" ?>
<!DOCTYPE svg PUBLIC "-//W3C//DTD SVG 1.1//EN" "http://www.w3.org/Graphics/SVG/1.1/DTD/svg11.dtd">
<svg width="192pt" height="192pt" viewBox="0 0 192 192" version="1.1" xmlns="http://www.w3.org/2000/svg">
<g id="#ff565fff">
<path fill="#ff565f" opacity="1.00" d=" M 63.06 20.99 C 62.99 17.54 64.99 13.43 69.00 13.73 C 72.91 13.64 74.72 17.61 74.77 20.97 C 79.57 21.01 84.37 21.02 89.17 21.00 C 89.14 17.57 91.02 13.55 95.00 13.73 C 98.97 13.55 100.87 17.53 100.87 20.95 C 105.68 21.03 110.49 21.01 115.31 20.99 C 115.22 17.60 117.10 13.64 121.00 13.73 C 125.01 13.42 126.97 17.51 126.99 20.94 C 134.02 21.16 141.07 20.77 148.11 21.14 C 159.63 21.97 169.39 32.45 169.35 44.02 C 169.32 64.35 169.54 84.70 169.24 105.02 C 168.86 111.28 158.60 111.12 158.33 104.90 C 158.01 84.60 158.41 64.27 158.15 43.97 C 158.09 38.00 152.99 32.59 147.02 32.28 C 140.33 32.04 133.64 32.28 126.95 32.19 C 127.16 35.75 125.19 40.12 121.01 39.80 C 116.94 39.97 115.15 35.64 115.29 32.18 C 110.47 32.21 105.65 32.19 100.83 32.18 C 101.05 35.71 99.14 40.06 95.01 39.79 C 90.87 40.03 89.06 35.68 89.16 32.19 C 84.34 32.20 79.52 32.21 74.70 32.17 C 74.95 35.66 73.08 39.98 69.00 39.79 C 64.85 40.11 62.88 35.74 63.06 32.20 C 56.37 32.27 49.67 32.04 42.98 32.28 C 36.59 32.59 31.53 38.70 31.81 44.98 C 31.79 78.67 31.74 112.36 31.84 146.04 C 31.72 152.95 38.18 158.77 45.01 158.26 C 78.34 158.27 111.66 158.27 144.99 158.25 C 149.72 158.46 154.54 156.00 156.74 151.74 C 159.47 146.77 157.40 140.90 158.59 135.61 C 159.93 131.47 166.19 130.81 168.42 134.53 C 173.14 148.72 165.27 167.58 149.02 169.18 C 114.04 169.76 79.02 169.29 44.03 169.41 C 31.55 169.62 20.40 158.47 20.70 145.98 C 20.69 112.00 20.67 78.01 20.72 44.03 C 20.64 32.47 30.39 21.98 41.90 21.15 C 48.94 20.79 56.01 21.13 63.06 20.99 Z" />
<path fill="#ff565f" opacity="1.00" d=" M 83.21 71.18 C 89.47 68.12 96.77 68.86 103.50 69.32 C 108.72 69.60 113.52 73.55 113.77 78.96 C 114.17 84.57 115.41 92.75 108.99 95.46 C 116.34 98.76 114.71 108.31 113.79 114.75 C 112.27 122.88 102.60 123.37 96.00 123.17 C 89.35 123.51 79.77 122.37 78.67 114.16 C 77.99 107.87 76.28 98.24 83.86 95.49 C 80.17 94.32 78.59 90.62 78.58 86.99 C 78.36 81.55 78.04 74.55 83.21 71.18 M 92.28 78.41 C 88.31 79.48 89.32 84.58 89.52 87.67 C 90.36 91.92 95.88 91.07 99.09 90.94 C 104.01 90.71 103.68 84.58 102.99 81.10 C 101.45 76.80 95.77 78.10 92.28 78.41 M 92.21 100.30 C 87.80 101.59 88.78 107.42 89.26 110.91 C 90.68 115.31 96.42 113.97 99.94 113.83 C 104.53 113.20 103.69 107.47 103.50 104.14 C 102.97 98.68 96.01 100.10 92.21 100.30 Z" />
</g>
</svg>
