<?xml version="1.0" encoding="UTF-8" ?>
<!DOCTYPE svg PUBLIC "-//W3C//DTD SVG 1.1//EN" "http://www.w3.org/Graphics/SVG/1.1/DTD/svg11.dtd">
<svg width="192pt" height="192pt" viewBox="0 0 192 192" version="1.1" xmlns="http://www.w3.org/2000/svg">
<g id="#ff565fff">
<path fill="#ff565f" opacity="1.00" d=" M 63.07 20.99 C 62.98 17.53 64.99 13.43 69.00 13.73 C 72.91 13.65 74.74 17.60 74.76 20.98 C 79.56 21.01 84.37 21.02 89.17 21.00 C 89.13 17.57 91.01 13.56 95.00 13.73 C 98.97 13.56 100.88 17.52 100.86 20.96 C 105.69 21.03 110.52 21.03 115.35 20.96 C 115.19 17.56 117.13 13.64 121.00 13.73 C 125.01 13.43 126.98 17.51 126.98 20.94 C 134.02 21.16 141.07 20.77 148.10 21.14 C 159.63 21.97 169.39 32.45 169.35 44.02 C 169.32 64.35 169.54 84.70 169.24 105.02 C 168.87 111.28 158.60 111.12 158.33 104.90 C 158.01 84.60 158.41 64.28 158.15 43.98 C 158.10 38.01 152.99 32.59 147.02 32.28 C 140.33 32.04 133.63 32.28 126.94 32.18 C 127.17 35.75 125.18 40.12 121.01 39.80 C 116.96 39.96 115.12 35.66 115.33 32.20 C 110.49 32.20 105.66 32.20 100.82 32.17 C 101.07 35.70 99.14 40.05 95.01 39.79 C 90.88 40.04 89.04 35.68 89.17 32.18 C 84.33 32.20 79.50 32.20 74.66 32.18 C 74.99 35.68 73.05 39.98 69.00 39.79 C 64.85 40.10 62.88 35.74 63.06 32.20 C 56.36 32.27 49.66 32.05 42.97 32.28 C 36.59 32.59 31.53 38.70 31.81 44.99 C 31.78 78.67 31.75 112.35 31.84 146.03 C 31.74 152.52 37.50 158.31 44.01 158.21 C 77.66 158.33 111.33 158.23 144.99 158.25 C 152.24 158.82 158.88 152.28 158.22 144.99 C 158.08 140.27 157.05 132.02 163.98 132.05 C 170.95 132.62 169.32 141.12 169.36 145.98 C 169.66 158.49 158.47 169.64 145.97 169.41 C 111.99 169.45 78.01 169.45 44.03 169.41 C 31.55 169.62 20.40 158.46 20.70 145.98 C 20.69 111.99 20.67 78.01 20.72 44.02 C 20.64 32.48 30.38 21.98 41.89 21.15 C 48.94 20.79 56.01 21.13 63.07 20.99 Z" />
<path fill="#ff565f" opacity="1.00" d=" M 82.85 73.80 C 88.85 71.82 96.12 67.69 102.12 71.17 C 102.91 85.02 102.29 99.00 102.43 112.90 C 105.31 112.99 108.20 113.03 111.08 112.92 C 112.45 115.57 113.29 119.78 110.84 121.97 C 100.97 122.20 91.04 122.31 81.18 121.91 C 78.99 120.08 79.52 115.92 80.57 113.59 C 83.85 112.25 87.83 113.31 91.37 113.00 C 91.38 102.37 91.42 91.74 91.36 81.10 C 88.08 80.93 84.52 81.73 81.42 80.53 C 80.07 78.52 79.72 74.32 82.85 73.80 Z" />
</g>
</svg>
