<?xml version="1.0" encoding="UTF-8" ?>
<!DOCTYPE svg PUBLIC "-//W3C//DTD SVG 1.1//EN" "http://www.w3.org/Graphics/SVG/1.1/DTD/svg11.dtd">
<svg width="192pt" height="192pt" viewBox="0 0 192 192" version="1.1" xmlns="http://www.w3.org/2000/svg">
<g id="#ff575fff">
<path fill="#ff575f" opacity="1.00" d=" M 63.06 20.99 C 62.99 17.53 64.99 13.43 69.00 13.73 C 72.89 13.65 74.75 17.58 74.78 20.95 C 79.57 21.02 84.37 21.02 89.17 21.00 C 89.13 17.57 91.02 13.56 94.99 13.73 C 98.94 13.56 100.90 17.50 100.87 20.92 C 105.68 21.04 110.49 21.01 115.30 21.00 C 115.21 17.60 117.11 13.64 121.00 13.73 C 124.99 13.43 126.98 17.48 126.99 20.91 C 134.02 21.19 141.07 20.76 148.10 21.14 C 159.62 21.97 169.40 32.44 169.38 44.02 C 169.36 64.35 169.55 84.71 169.29 105.04 C 168.89 111.30 158.59 111.16 158.33 104.90 C 158.01 84.60 158.41 64.27 158.15 43.96 C 158.07 37.67 152.37 32.11 146.07 32.26 C 139.69 32.16 133.32 32.29 126.94 32.22 C 127.19 35.79 125.20 40.18 121.01 39.81 C 116.95 40.01 115.13 35.68 115.28 32.22 C 110.46 32.25 105.64 32.24 100.83 32.22 C 101.10 35.75 99.14 40.09 95.01 39.80 C 90.89 40.07 89.04 35.72 89.16 32.23 C 84.34 32.24 79.53 32.25 74.71 32.21 C 75.00 35.71 73.07 40.02 69.00 39.80 C 64.86 40.14 62.88 35.77 63.06 32.24 C 56.37 32.31 49.67 32.09 42.99 32.32 C 36.62 32.61 31.60 38.71 31.82 44.96 C 31.76 78.31 31.80 111.67 31.81 145.02 C 31.34 151.84 37.05 158.33 43.99 158.21 C 77.66 158.33 111.33 158.23 144.99 158.25 C 149.98 158.49 155.02 155.69 157.07 151.08 C 159.48 146.00 157.11 140.13 158.87 134.96 C 160.94 130.64 168.04 131.39 169.12 136.06 C 169.67 142.96 170.12 150.43 166.76 156.75 C 162.86 164.38 154.55 169.49 145.97 169.45 C 111.99 169.47 78.00 169.47 44.02 169.44 C 31.54 169.66 20.39 158.47 20.70 145.98 C 20.69 112.00 20.66 78.01 20.72 44.02 C 20.65 32.47 30.39 21.98 41.90 21.15 C 48.94 20.79 56.01 21.13 63.06 20.99 Z" />
<path fill="#ff575f" opacity="1.00" d=" M 58.40 73.40 C 62.33 68.55 69.38 69.05 75.01 68.96 C 80.61 68.91 88.05 69.71 90.13 75.92 C 91.68 82.09 92.16 89.27 89.19 95.09 C 84.35 101.79 77.74 106.96 72.01 112.87 C 77.94 113.12 83.90 112.78 89.83 113.14 C 92.27 115.34 91.42 119.52 90.13 122.21 C 79.28 121.61 68.22 123.01 57.50 121.50 C 56.81 118.61 56.12 114.80 58.37 112.43 C 65.04 105.43 72.62 99.28 78.86 91.90 C 81.60 87.29 81.85 76.84 74.03 78.06 C 68.30 76.60 66.09 81.88 66.55 86.63 C 63.29 87.07 59.70 87.84 56.60 86.37 C 55.58 82.10 56.07 77.19 58.40 73.40 Z" />
<path fill="#ff575f" opacity="1.00" d=" M 117.21 73.19 C 119.23 68.69 125.51 69.39 129.22 70.83 C 130.24 81.71 129.37 92.79 129.64 103.75 C 135.61 102.43 135.74 108.55 134.70 112.66 C 133.02 112.91 131.33 113.10 129.64 113.29 C 129.62 115.94 129.94 118.66 129.29 121.26 C 126.59 122.84 123.18 122.12 120.20 121.93 C 117.74 119.81 119.21 115.97 118.79 113.10 C 111.59 113.01 104.38 113.39 97.20 112.94 C 94.77 110.84 95.66 106.72 97.18 104.26 C 103.82 93.88 110.59 83.58 117.21 73.19 M 108.24 103.90 C 111.78 103.95 115.31 104.00 118.85 104.00 C 118.87 98.52 118.82 93.05 118.75 87.57 C 115.27 93.02 111.91 98.57 108.24 103.90 Z" />
</g>
</svg>
