<?xml version="1.0" encoding="UTF-8" ?>
<!DOCTYPE svg PUBLIC "-//W3C//DTD SVG 1.1//EN" "http://www.w3.org/Graphics/SVG/1.1/DTD/svg11.dtd">
<svg width="192pt" height="192pt" viewBox="0 0 192 192" version="1.1" xmlns="http://www.w3.org/2000/svg">
<g id="#ff575fff">
<path fill="#ff575f" opacity="1.00" d=" M 63.07 20.99 C 62.97 17.53 64.99 13.43 69.00 13.73 C 72.91 13.65 74.73 17.60 74.76 20.97 C 79.56 21.02 84.37 21.02 89.18 21.00 C 89.12 17.56 91.02 13.56 95.00 13.73 C 98.96 13.56 100.89 17.52 100.86 20.95 C 105.67 21.03 110.49 21.01 115.31 20.99 C 115.21 17.60 117.10 13.64 121.00 13.73 C 125.00 13.43 126.98 17.50 126.98 20.94 C 134.02 21.16 141.07 20.77 148.11 21.14 C 159.63 21.97 169.39 32.45 169.35 44.02 C 169.32 64.35 169.54 84.70 169.24 105.02 C 168.86 111.27 158.61 111.12 158.33 104.91 C 158.01 84.60 158.41 64.28 158.15 43.97 C 158.09 38.00 152.99 32.60 147.03 32.28 C 140.33 32.05 133.63 32.28 126.93 32.19 C 127.17 35.76 125.18 40.12 121.01 39.79 C 116.95 39.97 115.14 35.64 115.30 32.18 C 110.47 32.21 105.64 32.19 100.81 32.18 C 101.07 35.71 99.14 40.05 95.01 39.79 C 90.88 40.03 89.04 35.69 89.18 32.19 C 84.35 32.20 79.52 32.21 74.69 32.17 C 74.96 35.66 73.07 39.98 69.00 39.79 C 64.86 40.11 62.87 35.75 63.07 32.20 C 56.37 32.27 49.67 32.05 42.97 32.28 C 36.59 32.59 31.54 38.69 31.81 44.98 C 31.79 78.66 31.75 112.35 31.84 146.04 C 31.75 152.53 37.50 158.30 43.99 158.21 C 77.66 158.33 111.32 158.23 144.99 158.25 C 149.72 158.46 154.54 156.00 156.74 151.73 C 159.47 146.77 157.40 140.91 158.58 135.62 C 159.92 131.48 166.18 130.80 168.41 134.53 C 173.14 148.71 165.27 167.58 149.02 169.18 C 114.04 169.76 79.02 169.29 44.02 169.40 C 31.93 169.59 20.95 159.10 20.75 146.98 C 20.63 112.66 20.69 78.34 20.72 44.02 C 20.65 32.47 30.39 21.98 41.89 21.15 C 48.94 20.79 56.01 21.13 63.07 20.99 Z" />
<path fill="#ff575f" opacity="1.00" d=" M 62.47 73.88 C 68.94 71.28 75.68 67.84 82.87 69.15 C 84.88 69.91 84.30 72.31 84.48 74.00 C 84.43 86.64 84.50 99.28 84.44 111.92 C 87.33 112.00 90.23 112.02 93.12 111.94 C 94.70 114.78 94.71 118.35 93.14 121.20 C 83.15 120.89 73.14 121.44 63.16 120.94 C 61.02 119.03 61.49 114.93 62.57 112.62 C 65.81 111.22 69.84 112.33 73.38 112.00 C 73.39 101.37 73.41 90.74 73.37 80.11 C 68.46 80.43 60.60 81.36 62.47 73.88 Z" />
<path fill="#ff575f" opacity="1.00" d=" M 99.47 73.88 C 105.94 71.27 112.68 67.85 119.87 69.14 C 121.88 69.92 121.31 72.31 121.49 74.00 C 121.44 86.64 121.51 99.28 121.44 111.92 C 124.33 112.00 127.22 112.02 130.11 111.93 C 131.70 114.77 131.72 118.35 130.14 121.20 C 120.14 120.89 110.12 121.43 100.14 120.95 C 98.03 119.02 98.49 114.93 99.57 112.61 C 102.81 111.22 106.84 112.33 110.38 112.00 C 110.38 101.37 110.40 90.74 110.36 80.11 C 105.45 80.42 97.60 81.36 99.47 73.88 Z" />
</g>
</svg>
