<?xml version="1.0" encoding="UTF-8" ?>
<!DOCTYPE svg PUBLIC "-//W3C//DTD SVG 1.1//EN" "http://www.w3.org/Graphics/SVG/1.1/DTD/svg11.dtd">
<svg width="192pt" height="192pt" viewBox="0 0 192 192" version="1.1" xmlns="http://www.w3.org/2000/svg">
<g id="#ff565fff">
<path fill="#ff565f" opacity="1.00" d=" M 63.07 20.99 C 62.97 17.53 64.99 13.43 69.00 13.73 C 72.90 13.65 74.75 17.60 74.75 20.97 C 79.56 21.01 84.37 21.02 89.18 21.00 C 89.13 17.57 91.02 13.56 95.00 13.73 C 98.96 13.55 100.89 17.52 100.86 20.95 C 105.68 21.03 110.49 21.01 115.31 20.99 C 115.21 17.60 117.11 13.64 121.00 13.73 C 125.00 13.43 126.98 17.51 126.98 20.94 C 134.02 21.16 141.07 20.77 148.10 21.14 C 159.63 21.97 169.39 32.45 169.35 44.02 C 169.32 64.35 169.54 84.70 169.24 105.02 C 168.87 111.28 158.59 111.12 158.33 104.90 C 158.01 84.59 158.41 64.27 158.15 43.96 C 158.09 38.00 152.98 32.59 147.01 32.28 C 140.32 32.04 133.62 32.28 126.93 32.18 C 127.18 35.75 125.18 40.12 121.01 39.80 C 116.95 39.97 115.14 35.64 115.30 32.18 C 110.47 32.21 105.64 32.20 100.81 32.17 C 101.07 35.71 99.14 40.05 95.01 39.79 C 90.89 40.03 89.03 35.69 89.18 32.19 C 84.35 32.20 79.52 32.21 74.69 32.17 C 74.97 35.67 73.07 39.98 69.00 39.79 C 64.85 40.10 62.86 35.74 63.07 32.20 C 56.38 32.27 49.67 32.04 42.98 32.28 C 36.60 32.58 31.53 38.69 31.81 44.98 C 31.78 78.66 31.75 112.36 31.84 146.04 C 31.72 152.95 38.18 158.77 45.01 158.26 C 78.34 158.27 111.67 158.27 145.00 158.25 C 152.25 158.82 158.87 152.28 158.22 145.00 C 158.08 140.28 157.05 132.02 163.98 132.05 C 170.95 132.62 169.32 141.12 169.36 145.99 C 169.65 158.49 158.47 169.64 145.98 169.41 C 111.99 169.45 78.00 169.45 44.02 169.40 C 31.55 169.61 20.41 158.46 20.70 145.98 C 20.69 112.00 20.66 78.01 20.72 44.02 C 20.65 32.47 30.39 21.97 41.90 21.15 C 48.95 20.79 56.01 21.13 63.07 20.99 Z" />
<path fill="#ff565f" opacity="1.00" d=" M 78.41 72.99 C 77.90 69.71 81.79 69.84 83.99 69.97 C 93.18 70.31 102.43 69.46 111.59 70.43 C 111.74 73.15 111.76 75.88 111.66 78.61 C 104.23 79.69 96.69 78.90 89.21 79.11 C 89.25 82.82 89.25 86.53 89.15 90.25 C 94.36 86.94 101.11 87.51 106.81 89.06 C 112.59 90.88 113.86 97.71 113.57 102.99 C 113.42 109.23 114.81 117.77 108.19 121.27 C 100.98 123.99 92.71 123.70 85.30 121.91 C 79.17 120.31 78.17 113.18 78.35 107.82 C 81.38 106.70 84.69 106.75 87.85 107.16 C 89.85 108.89 88.86 113.17 92.23 113.72 C 95.77 114.28 102.45 115.07 102.66 109.91 C 102.32 106.03 104.09 100.98 101.06 97.93 C 93.73 94.29 86.02 102.24 78.83 98.14 C 77.80 89.89 78.65 81.35 78.41 72.99 Z" />
</g>
</svg>
