<?xml version="1.0" encoding="UTF-8" ?>
<!DOCTYPE svg PUBLIC "-//W3C//DTD SVG 1.1//EN" "http://www.w3.org/Graphics/SVG/1.1/DTD/svg11.dtd">
<svg width="192pt" height="192pt" viewBox="0 0 192 192" version="1.1" xmlns="http://www.w3.org/2000/svg">
<g id="#ff575fff">
<path fill="#ff575f" opacity="1.00" d=" M 63.06 20.99 C 62.99 17.54 64.98 13.43 69.00 13.73 C 72.89 13.65 74.74 17.58 74.78 20.95 C 79.58 21.02 84.37 21.02 89.17 21.00 C 89.14 17.57 91.01 13.56 95.00 13.73 C 98.95 13.56 100.89 17.50 100.88 20.93 C 105.69 21.04 110.50 21.02 115.31 20.98 C 115.21 17.59 117.11 13.64 121.00 13.73 C 124.99 13.43 126.98 17.48 127.00 20.91 C 134.03 21.19 141.08 20.76 148.10 21.14 C 159.63 21.97 169.40 32.45 169.38 44.03 C 169.36 64.36 169.56 84.70 169.29 105.03 C 168.91 111.30 158.58 111.16 158.33 104.90 C 158.01 84.59 158.41 64.27 158.14 43.96 C 158.07 37.67 152.37 32.11 146.07 32.26 C 139.70 32.16 133.33 32.29 126.96 32.22 C 127.18 35.79 125.20 40.18 121.00 39.81 C 116.94 40.00 115.13 35.68 115.28 32.22 C 110.46 32.25 105.65 32.24 100.83 32.22 C 101.09 35.75 99.14 40.09 95.01 39.80 C 90.88 40.07 89.05 35.71 89.15 32.23 C 84.34 32.24 79.52 32.25 74.71 32.21 C 75.00 35.71 73.07 40.02 69.01 39.80 C 64.85 40.15 62.89 35.77 63.05 32.24 C 56.36 32.31 49.67 32.09 42.99 32.32 C 36.61 32.61 31.59 38.72 31.83 44.98 C 31.76 78.32 31.80 111.67 31.81 145.02 C 31.33 151.84 37.06 158.34 44.00 158.21 C 77.66 158.33 111.33 158.23 144.99 158.25 C 149.98 158.49 155.02 155.70 157.07 151.08 C 159.47 146.00 157.11 140.13 158.87 134.96 C 160.94 130.64 168.03 131.39 169.12 136.06 C 169.67 142.96 170.12 150.43 166.76 156.75 C 162.86 164.38 154.56 169.49 145.98 169.45 C 111.99 169.47 78.01 169.47 44.02 169.44 C 31.54 169.66 20.39 158.47 20.70 145.98 C 20.69 112.00 20.66 78.01 20.72 44.02 C 20.65 32.47 30.39 21.97 41.90 21.15 C 48.94 20.79 56.01 21.13 63.06 20.99 Z" />
<path fill="#ff575f" opacity="1.00" d=" M 65.06 69.88 C 72.24 68.56 80.17 68.09 87.02 70.97 C 93.97 75.69 92.67 85.82 91.23 92.97 C 87.02 101.03 79.08 106.29 73.01 112.87 C 78.35 113.03 83.69 112.95 89.03 113.00 C 93.70 112.76 92.59 119.47 91.13 122.21 C 80.29 121.60 69.23 123.01 58.51 121.50 C 57.70 118.39 57.11 114.26 59.84 111.90 C 66.05 105.74 72.51 99.83 78.59 93.54 C 81.79 90.31 81.85 85.29 81.05 81.10 C 79.78 77.03 74.37 78.06 71.11 78.32 C 67.28 79.05 68.09 83.75 67.56 86.64 C 64.32 87.03 60.66 87.92 57.64 86.33 C 56.02 80.24 57.74 71.21 65.06 69.88 Z" />
<path fill="#ff575f" opacity="1.00" d=" M 105.33 70.17 C 111.97 68.40 119.17 68.51 125.85 69.94 C 132.03 71.14 134.36 78.37 133.22 83.89 C 131.17 86.10 127.69 84.95 125.02 85.06 C 121.38 84.83 123.56 78.88 119.87 78.41 C 116.54 78.13 111.51 76.94 109.61 80.59 C 108.87 84.30 109.35 88.13 109.13 91.90 C 114.86 89.04 121.78 89.49 127.80 91.08 C 134.03 93.04 134.74 100.48 134.52 106.00 C 134.64 111.54 134.55 119.13 128.46 121.57 C 121.59 123.85 114.02 123.51 106.97 122.38 C 101.88 121.69 98.55 116.91 98.51 111.98 C 98.22 101.97 98.43 91.95 98.41 81.93 C 98.27 77.15 100.24 71.55 105.33 70.17 M 111.42 99.57 C 107.79 102.34 109.07 108.29 109.93 112.14 C 114.67 116.45 126.35 114.49 123.65 105.98 C 125.39 98.41 116.46 98.12 111.42 99.57 Z" />
</g>
</svg>
