<?xml version="1.0" encoding="UTF-8" ?>
<!DOCTYPE svg PUBLIC "-//W3C//DTD SVG 1.1//EN" "http://www.w3.org/Graphics/SVG/1.1/DTD/svg11.dtd">
<svg width="192pt" height="192pt" viewBox="0 0 192 192" version="1.1" xmlns="http://www.w3.org/2000/svg">
<g id="#ff575fff">
<path fill="#ff575f" opacity="1.00" d=" M 62.94 20.99 C 63.18 17.61 64.91 13.40 69.00 13.73 C 73.01 13.60 74.51 17.69 74.89 20.97 C 79.61 21.00 84.34 21.03 89.06 20.99 C 89.31 17.64 90.95 13.51 95.00 13.74 C 99.04 13.51 100.69 17.60 100.99 20.94 C 105.71 21.01 110.44 21.03 115.17 20.98 C 115.44 17.67 117.02 13.60 121.00 13.73 C 125.10 13.39 126.74 17.61 127.16 20.95 C 134.45 21.19 141.76 20.67 149.03 21.24 C 160.17 22.52 169.37 32.77 169.34 44.01 C 169.32 64.34 169.55 84.70 169.23 105.03 C 168.85 111.28 158.60 111.12 158.35 104.90 C 157.98 84.60 158.43 64.27 158.14 43.96 C 158.08 37.99 152.99 32.59 147.02 32.29 C 140.37 32.03 133.71 32.28 127.06 32.19 C 126.99 35.70 125.24 40.15 121.01 39.80 C 116.86 39.99 115.35 35.56 115.15 32.17 C 110.42 32.21 105.68 32.20 100.95 32.18 C 100.86 35.65 99.21 40.07 95.01 39.79 C 90.82 40.06 89.23 35.63 89.05 32.19 C 84.31 32.20 79.57 32.21 74.84 32.15 C 74.76 35.59 73.15 40.00 69.00 39.79 C 64.79 40.13 63.06 35.69 62.94 32.21 C 56.29 32.27 49.63 32.03 42.99 32.29 C 36.59 32.58 31.55 38.68 31.81 44.97 C 31.79 78.66 31.72 112.36 31.85 146.05 C 31.73 152.97 38.17 158.75 45.00 158.26 C 78.33 158.27 111.67 158.27 145.00 158.25 C 151.82 158.74 158.36 152.98 158.17 146.04 C 158.58 141.27 156.38 133.16 163.10 132.08 C 170.23 131.51 169.70 140.15 169.40 144.99 C 170.13 157.84 158.88 169.66 145.99 169.40 C 112.00 169.45 78.01 169.45 44.02 169.40 C 31.55 169.61 20.41 158.47 20.71 145.99 C 20.69 112.00 20.66 78.01 20.72 44.02 C 20.66 32.79 29.85 22.52 40.98 21.25 C 48.28 20.66 55.62 21.18 62.94 20.99 Z" />
<path fill="#ff575f" opacity="1.00" d=" M 66.05 69.88 C 73.43 68.59 81.72 67.93 88.62 71.33 C 94.85 76.42 93.67 85.96 92.22 92.97 C 88.02 101.05 80.07 106.29 74.00 112.89 C 79.95 113.11 85.92 112.75 91.86 113.17 C 94.54 115.35 92.69 119.25 92.59 122.15 C 81.54 121.76 70.41 122.83 59.43 121.59 C 58.89 118.39 58.04 114.31 60.84 111.91 C 66.87 105.90 73.15 100.14 79.12 94.07 C 82.90 90.42 83.36 84.22 81.38 79.58 C 78.86 77.41 75.15 78.05 72.11 78.32 C 68.21 79.07 69.23 83.92 68.37 86.81 C 65.13 86.96 61.64 87.68 58.55 86.42 C 57.16 80.24 58.64 71.25 66.05 69.88 Z" />
<path fill="#ff575f" opacity="1.00" d=" M 103.61 71.58 C 109.39 68.11 116.50 68.99 122.94 69.12 C 127.95 69.32 133.59 71.90 134.47 77.36 C 135.29 83.45 136.66 92.03 130.16 95.54 C 135.85 98.00 135.77 104.74 135.46 109.98 C 135.45 114.96 133.36 120.97 127.87 122.07 C 120.59 123.64 112.65 123.88 105.50 121.64 C 98.57 118.92 98.92 110.12 99.21 103.97 C 99.08 100.24 101.16 96.98 104.60 95.55 C 102.13 94.10 99.92 92.04 99.82 88.97 C 99.28 83.14 98.60 75.75 103.61 71.58 M 113.28 78.42 C 109.26 79.50 110.31 84.75 110.56 87.86 C 111.59 91.94 116.90 91.01 120.07 90.95 C 124.98 90.70 124.71 84.61 123.97 81.11 C 122.48 76.82 116.76 78.08 113.28 78.42 M 113.22 100.32 C 107.56 102.43 108.48 115.35 115.92 114.05 C 118.89 114.06 123.70 114.55 124.39 110.63 C 124.62 107.46 125.37 103.56 123.02 100.99 C 119.98 99.61 116.45 100.02 113.22 100.32 Z" />
</g>
</svg>
