<?xml version="1.0" encoding="UTF-8" ?>
<!DOCTYPE svg PUBLIC "-//W3C//DTD SVG 1.1//EN" "http://www.w3.org/Graphics/SVG/1.1/DTD/svg11.dtd">
<svg width="192pt" height="192pt" viewBox="0 0 192 192" version="1.1" xmlns="http://www.w3.org/2000/svg">
<g id="#ff575fff">
<path fill="#ff575f" opacity="1.00" d=" M 63.05 20.99 C 63.01 17.54 64.98 13.42 69.01 13.73 C 72.94 13.65 74.71 17.64 74.78 21.00 C 79.57 21.02 84.37 21.01 89.16 21.00 C 89.16 17.58 91.01 13.55 95.00 13.73 C 98.97 13.55 100.85 17.54 100.88 20.95 C 105.69 21.03 110.50 21.01 115.31 20.98 C 115.23 17.60 117.10 13.63 121.00 13.73 C 125.02 13.42 126.95 17.52 127.00 20.94 C 134.03 21.16 141.07 20.77 148.10 21.14 C 159.62 21.97 169.39 32.45 169.35 44.02 C 169.32 64.35 169.55 84.70 169.24 105.02 C 168.87 111.28 158.59 111.12 158.34 104.90 C 158.00 84.60 158.42 64.27 158.15 43.97 C 158.10 38.00 152.99 32.59 147.02 32.28 C 140.34 32.04 133.64 32.29 126.95 32.18 C 127.14 35.75 125.20 40.12 121.01 39.80 C 116.93 39.97 115.17 35.64 115.29 32.18 C 110.47 32.21 105.65 32.19 100.83 32.18 C 101.03 35.70 99.15 40.05 95.01 39.79 C 90.87 40.03 89.07 35.68 89.16 32.19 C 84.34 32.20 79.52 32.21 74.71 32.17 C 74.93 35.66 73.09 39.98 69.00 39.79 C 64.84 40.11 62.90 35.74 63.05 32.20 C 56.36 32.28 49.67 32.04 42.98 32.28 C 36.59 32.58 31.54 38.69 31.81 44.98 C 31.78 78.66 31.74 112.35 31.84 146.03 C 31.72 152.95 38.17 158.76 45.01 158.26 C 78.34 158.27 111.66 158.27 144.99 158.25 C 149.98 158.49 155.02 155.70 157.08 151.07 C 159.47 146.00 157.13 140.14 158.87 134.96 C 160.92 130.65 168.05 131.38 169.10 136.06 C 169.70 143.41 170.09 151.49 166.02 158.01 C 161.74 165.28 153.38 169.71 144.98 169.44 C 111.33 169.41 77.67 169.47 44.02 169.40 C 31.55 169.62 20.41 158.47 20.70 145.98 C 20.69 112.00 20.66 78.01 20.72 44.02 C 20.64 32.47 30.39 21.97 41.90 21.15 C 48.94 20.79 56.00 21.13 63.05 20.99 Z" />
<path fill="#ff575f" opacity="1.00" d=" M 82.05 72.07 C 87.47 68.10 94.73 69.00 101.06 69.11 C 106.46 69.18 112.50 72.06 113.14 78.03 C 113.61 83.87 115.29 93.03 108.14 95.44 C 111.75 96.69 113.98 100.12 113.82 103.92 C 114.02 109.89 114.65 118.13 108.33 121.30 C 101.32 124.01 93.34 123.54 86.06 122.19 C 79.70 121.02 77.28 113.41 78.81 107.85 C 81.42 106.25 84.90 107.01 87.84 107.17 C 89.81 108.66 88.73 112.43 91.39 113.46 C 94.33 114.31 97.67 114.37 100.62 113.52 C 104.34 111.32 103.36 105.89 102.51 102.38 C 99.90 98.28 94.27 101.27 90.49 99.51 C 89.70 97.04 89.32 93.96 90.62 91.64 C 94.04 89.80 99.37 92.67 102.06 89.05 C 103.09 86.21 103.03 82.91 102.09 80.06 C 99.37 76.72 94.39 78.40 90.70 78.65 C 90.87 85.05 84.50 86.84 79.56 84.42 C 77.65 80.59 79.14 75.16 82.05 72.07 Z" />
</g>
</svg>
