<?xml version="1.0" encoding="UTF-8" ?>
<!DOCTYPE svg PUBLIC "-//W3C//DTD SVG 1.1//EN" "http://www.w3.org/Graphics/SVG/1.1/DTD/svg11.dtd">
<svg width="192pt" height="192pt" viewBox="0 0 192 192" version="1.1" xmlns="http://www.w3.org/2000/svg">
<g id="#ff3662ff">
<path fill="#ff3662" opacity="1.00" d=" M 82.38 12.52 C 114.11 7.57 147.58 23.51 163.96 51.07 C 176.76 71.75 179.33 98.24 171.17 121.11 C 161.41 149.18 135.27 170.74 105.77 174.69 C 74.71 179.63 41.82 164.57 25.08 137.99 C 6.46 109.94 8.01 70.37 28.85 43.90 C 41.71 27.00 61.30 15.36 82.38 12.52 M 43.89 43.90 C 18.21 68.47 16.56 112.57 39.97 139.22 C 73.57 106.53 106.47 73.01 139.65 39.85 C 113.02 16.05 68.40 17.90 43.89 43.90 M 48.23 147.35 C 74.89 171.30 119.67 169.29 144.17 143.17 C 169.71 118.55 171.31 74.48 147.81 47.95 C 114.46 80.92 81.47 114.27 48.23 147.35 Z" />
</g>
</svg>
