<?xml version="1.0" encoding="UTF-8" ?>
<!DOCTYPE svg PUBLIC "-//W3C//DTD SVG 1.1//EN" "http://www.w3.org/Graphics/SVG/1.1/DTD/svg11.dtd">
<svg width="192pt" height="192pt" viewBox="0 0 192 192" version="1.1" xmlns="http://www.w3.org/2000/svg">
<g id="#524c5eff">
<path fill="#524c5e" opacity="1.00" d=" M 38.34 21.42 C 41.50 20.68 44.77 20.70 48.00 20.70 C 81.00 20.79 114.00 20.63 146.99 20.78 C 159.28 20.78 170.10 31.71 170.19 43.96 C 170.28 78.32 170.22 112.68 170.22 147.03 C 170.40 159.43 159.57 170.89 147.05 170.73 C 112.35 170.76 77.65 170.77 42.95 170.71 C 30.60 170.69 19.83 159.37 20.14 147.07 C 20.13 112.69 20.10 78.30 20.17 43.92 C 20.15 33.43 28.12 23.68 38.34 21.42 M 40.40 32.59 C 35.04 34.00 31.17 39.43 31.44 44.95 C 31.46 78.99 31.43 113.03 31.46 147.07 C 31.25 153.74 37.31 159.74 43.99 159.45 C 77.99 159.46 112.00 159.45 146.00 159.45 C 152.77 159.84 159.00 153.86 158.79 147.07 C 158.83 113.02 158.80 78.97 158.80 44.92 C 159.24 38.04 152.99 31.68 146.07 32.19 C 110.86 32.45 75.57 31.67 40.40 32.59 Z" />
<path fill="#524c5e" opacity="1.00" d=" M 41.26 56.31 C 44.57 53.18 49.91 55.12 54.06 54.72 C 59.17 54.60 57.57 60.88 57.69 64.13 C 55.68 64.12 53.68 64.05 51.69 63.91 C 50.96 62.06 49.74 60.84 47.60 61.31 C 47.57 65.98 47.55 70.64 47.62 75.31 C 49.76 75.73 51.00 74.30 52.00 72.67 C 53.91 72.67 55.82 72.69 57.73 72.73 C 57.83 75.58 57.76 78.44 57.31 81.25 C 52.23 82.09 45.00 83.98 41.13 79.84 C 40.75 72.04 40.53 64.09 41.26 56.31 Z" />
<path fill="#524c5e" opacity="1.00" d=" M 62.00 56.09 C 66.23 53.63 72.87 54.16 77.36 55.64 C 79.70 63.89 77.83 73.18 78.34 81.83 C 76.12 81.82 73.91 81.80 71.70 81.78 C 71.63 78.37 71.57 74.96 71.42 71.55 C 70.62 71.57 69.03 71.61 68.24 71.63 C 68.21 75.02 68.20 78.41 68.17 81.80 C 65.93 81.80 63.68 81.79 61.44 81.77 C 61.78 73.25 60.59 64.43 62.00 56.09 M 68.25 61.33 C 68.22 62.51 68.19 63.68 68.15 64.85 C 69.31 64.82 70.48 64.79 71.64 64.76 C 71.60 63.66 71.57 62.56 71.53 61.46 C 70.44 61.42 69.34 61.38 68.25 61.33 Z" />
<path fill="#524c5e" opacity="1.00" d=" M 82.01 54.67 C 84.20 54.66 86.40 54.71 88.59 54.85 C 88.66 61.61 88.60 68.37 88.66 75.13 C 92.03 75.19 95.40 75.20 98.78 75.27 C 98.81 77.47 98.83 79.66 98.83 81.86 C 93.20 82.46 87.52 82.29 81.90 81.69 C 81.88 72.68 81.75 63.67 82.01 54.67 Z" />
<path fill="#524c5e" opacity="1.00" d=" M 102.43 54.89 C 104.63 54.71 106.84 54.65 109.05 54.66 C 109.38 61.49 109.17 68.32 109.25 75.16 C 112.60 75.19 115.97 75.20 119.33 75.25 C 119.41 77.55 119.44 79.86 119.42 82.17 C 113.77 82.18 108.09 82.42 102.47 81.68 C 102.42 72.75 102.51 63.82 102.43 54.89 Z" />
<path fill="#524c5e" opacity="1.00" d=" M 40.95 87.25 C 46.53 87.19 52.11 87.16 57.70 87.27 C 57.72 89.44 57.75 91.61 57.77 93.78 C 54.37 94.19 50.95 94.29 47.54 94.23 C 47.56 95.01 47.59 96.58 47.60 97.36 C 50.13 97.40 52.66 97.44 55.18 97.48 C 55.25 99.72 55.30 101.97 55.35 104.21 C 52.76 104.23 50.17 104.25 47.58 104.27 C 47.61 107.68 47.60 111.09 47.48 114.49 C 45.30 114.44 43.12 114.38 40.94 114.32 C 40.83 105.30 40.81 96.27 40.95 87.25 Z" />
<path fill="#524c5e" opacity="1.00" d=" M 61.46 87.24 C 63.62 87.23 65.78 87.22 67.95 87.23 C 68.44 96.30 68.10 105.38 68.18 114.46 C 65.91 114.45 63.65 114.37 61.39 114.19 C 61.46 105.20 61.32 96.22 61.46 87.24 Z" />
<path fill="#524c5e" opacity="1.00" d=" M 71.73 87.22 C 73.88 87.22 76.04 87.22 78.19 87.22 C 78.57 94.01 78.34 100.82 78.39 107.62 C 81.80 107.63 85.21 107.70 88.61 107.90 C 88.60 110.09 88.57 112.29 88.50 114.49 C 82.88 114.48 77.27 114.55 71.66 114.33 C 71.60 105.29 71.49 96.26 71.73 87.22 Z" />
<path fill="#524c5e" opacity="1.00" d=" M 92.27 87.26 C 97.86 87.16 103.46 87.18 109.05 87.24 C 109.12 89.39 109.19 91.54 109.24 93.69 C 107.55 93.91 105.85 94.13 104.15 94.33 C 104.23 101.04 104.19 107.74 104.18 114.45 C 101.90 114.44 99.62 114.38 97.34 114.23 C 97.32 107.57 97.38 100.92 97.30 94.26 C 95.61 94.02 93.91 93.79 92.22 93.56 C 92.24 91.46 92.25 89.36 92.27 87.26 Z" />
<path fill="#524c5e" opacity="1.00" d=" M 112.85 87.23 C 118.43 87.18 124.01 87.14 129.58 87.26 C 129.62 89.44 129.66 91.62 129.69 93.80 C 126.25 94.21 122.79 94.29 119.33 94.26 C 119.43 95.29 119.52 96.33 119.62 97.37 C 122.11 97.41 124.60 97.44 127.09 97.51 C 127.14 99.74 127.19 101.96 127.24 104.19 C 124.63 104.23 122.03 104.25 119.43 104.28 C 119.45 105.38 119.47 106.48 119.49 107.57 C 122.87 107.61 126.25 107.67 129.63 107.84 C 129.33 109.93 130.44 112.69 129.03 114.37 C 123.63 114.70 118.20 114.46 112.79 114.30 C 112.80 105.28 112.58 96.25 112.85 87.23 Z" />
<path fill="#524c5e" opacity="1.00" d=" M 133.32 87.27 C 138.38 87.38 143.55 86.66 148.53 87.59 C 151.92 90.73 149.85 96.21 149.86 100.30 C 150.21 105.01 150.53 109.74 150.26 114.47 C 148.03 114.44 145.80 114.40 143.57 114.36 C 143.48 111.01 143.46 107.67 143.45 104.33 C 142.38 104.25 141.30 104.18 140.23 104.11 C 140.20 107.54 140.19 110.98 140.17 114.42 C 137.88 114.42 135.59 114.39 133.30 114.29 C 133.29 105.28 133.23 96.27 133.32 87.27 M 140.12 94.13 C 140.17 95.25 140.23 96.37 140.29 97.49 C 141.32 97.45 142.35 97.40 143.38 97.36 C 143.44 96.33 143.49 95.31 143.55 94.28 C 142.41 94.23 141.26 94.18 140.12 94.13 Z" />
<path fill="#524c5e" opacity="1.00" d=" M 142.68 123.72 C 147.69 120.12 154.41 127.52 150.19 132.10 C 144.24 138.54 137.88 144.60 131.66 150.77 C 129.47 153.25 125.32 153.50 123.07 150.96 C 119.09 146.89 114.72 143.13 111.17 138.68 C 108.50 134.37 113.53 128.67 118.12 130.67 C 121.72 132.66 124.16 136.16 127.19 138.88 C 132.45 133.93 137.22 128.45 142.68 123.72 Z" />
</g>
</svg>
