<?xml version="1.0" encoding="UTF-8" ?>
<!DOCTYPE svg PUBLIC "-//W3C//DTD SVG 1.1//EN" "http://www.w3.org/Graphics/SVG/1.1/DTD/svg11.dtd">
<svg width="192pt" height="192pt" viewBox="0 0 192 192" version="1.1" xmlns="http://www.w3.org/2000/svg">
<g id="#ff623cff">
<path fill="#ff623c" opacity="1.00" d=" M 41.36 26.52 C 44.81 25.53 48.44 25.66 52.00 25.66 C 82.66 25.71 113.32 25.61 143.98 25.70 C 155.30 25.67 165.47 35.61 165.60 46.94 C 165.62 55.24 165.81 63.55 165.51 71.85 C 165.09 77.11 156.80 77.68 155.42 72.67 C 154.52 63.82 155.63 54.84 154.89 45.97 C 154.14 40.35 148.74 35.87 143.07 36.25 C 111.02 36.28 78.97 36.21 46.92 36.29 C 41.17 36.22 36.19 41.30 35.86 46.94 C 35.43 55.49 36.26 64.10 35.49 72.62 C 34.21 77.69 25.88 77.10 25.42 71.84 C 25.11 63.89 25.38 55.91 25.30 47.94 C 25.06 38.25 32.01 29.03 41.36 26.52 Z" />
<path fill="#ff623c" opacity="1.00" d=" M 18.52 88.15 C 19.57 81.43 28.65 80.68 33.65 83.29 C 37.73 85.32 37.03 90.51 37.14 94.30 C 34.51 94.45 31.88 94.42 29.25 94.20 C 29.14 91.60 29.00 89.00 28.80 86.41 C 28.23 86.62 27.10 87.05 26.53 87.26 C 26.53 93.31 25.44 99.82 27.08 105.63 C 30.23 105.77 28.68 100.96 29.31 98.92 C 31.85 98.81 34.39 98.80 36.93 98.89 C 40.56 109.50 24.81 114.51 19.33 106.63 C 17.50 100.71 18.39 94.26 18.52 88.15 Z" />
<path fill="#ff623c" opacity="1.00" d=" M 41.50 82.41 C 45.21 82.31 48.92 82.31 52.63 82.39 C 54.61 91.31 55.83 100.39 57.30 109.40 C 54.95 109.65 52.58 109.73 50.21 109.72 C 49.83 108.04 49.47 106.36 49.14 104.67 C 48.28 104.63 46.56 104.55 45.70 104.51 C 45.32 106.23 44.96 107.96 44.57 109.69 C 42.16 109.76 39.74 109.68 37.35 109.33 C 38.70 100.35 39.86 91.34 41.50 82.41 M 46.11 100.02 C 46.77 99.97 48.09 99.87 48.75 99.82 C 48.43 96.97 48.04 94.13 47.40 91.33 C 46.56 94.15 46.32 97.09 46.11 100.02 Z" />
<path fill="#ff623c" opacity="1.00" d=" M 58.86 83.11 C 60.88 81.61 64.01 82.70 66.47 82.53 C 66.83 89.71 66.59 96.91 66.65 104.10 C 68.16 104.16 69.66 104.22 71.17 104.29 C 71.30 106.03 71.40 107.77 71.49 109.51 C 67.24 109.82 62.97 109.83 58.72 109.47 C 58.76 100.69 58.47 91.88 58.86 83.11 Z" />
<path fill="#ff623c" opacity="1.00" d=" M 73.47 82.48 C 75.96 82.42 78.45 82.40 80.94 82.41 C 81.73 89.59 81.14 96.83 81.32 104.04 C 82.79 104.14 84.26 104.23 85.73 104.34 C 85.91 106.01 86.08 107.68 86.24 109.35 C 82.10 109.75 77.81 110.19 73.72 109.32 C 72.77 100.53 73.38 91.40 73.47 82.48 Z" />
<path fill="#ff623c" opacity="1.00" d=" M 95.84 82.74 C 101.62 82.74 110.11 80.45 113.75 86.20 C 114.41 93.19 114.94 100.59 113.44 107.47 C 108.91 111.58 101.76 109.05 96.15 109.63 C 95.30 100.71 95.87 91.70 95.84 82.74 M 103.84 86.87 C 103.75 93.02 103.76 99.17 103.83 105.31 C 107.78 104.17 105.70 99.03 106.25 96.00 C 105.68 93.06 107.84 87.81 103.84 86.87 Z" />
<path fill="#ff623c" opacity="1.00" d=" M 116.34 83.22 C 118.32 81.47 121.60 82.64 124.07 82.76 C 124.67 90.58 123.19 98.61 124.94 106.27 C 127.98 98.92 125.29 90.34 126.48 82.49 C 128.93 82.42 131.39 82.40 133.84 82.43 C 134.68 89.27 134.15 96.18 134.19 103.05 C 134.50 113.01 115.96 112.82 116.22 103.04 C 116.21 96.43 115.93 89.81 116.34 83.22 Z" />
<path fill="#ff623c" opacity="1.00" d=" M 136.13 82.45 C 141.71 82.36 147.30 82.37 152.89 82.44 C 153.17 84.18 153.25 85.94 153.16 87.70 C 151.61 87.87 150.07 88.05 148.53 88.23 C 148.52 95.32 148.62 102.42 148.46 109.52 C 145.97 109.48 142.73 110.67 140.72 108.92 C 140.33 102.05 140.67 95.15 140.57 88.26 C 139.01 88.06 137.45 87.86 135.89 87.66 C 135.83 85.91 135.91 84.17 136.13 82.45 Z" />
<path fill="#ff623c" opacity="1.00" d=" M 154.86 82.48 C 157.16 82.41 159.47 82.39 161.77 82.38 C 162.63 84.74 163.42 87.13 164.26 89.50 C 164.85 87.12 165.44 84.73 166.10 82.37 C 168.39 82.39 170.69 82.42 172.99 82.51 C 170.86 91.51 166.23 100.01 167.49 109.55 C 164.98 109.61 159.57 111.32 160.17 107.04 C 161.20 98.38 156.44 90.73 154.86 82.48 Z" />
<path fill="#ff623c" opacity="1.00" d=" M 84.33 89.33 C 89.78 86.22 90.55 96.30 87.37 98.39 C 82.41 99.48 83.19 92.20 84.33 89.33 M 86.18 90.47 C 85.55 92.33 85.36 94.76 86.33 96.52 C 87.94 95.57 87.30 91.64 86.18 90.47 Z" />
<path fill="#ff623c" opacity="1.00" d=" M 89.64 88.88 C 90.57 88.89 92.45 88.89 93.38 88.90 C 93.12 89.51 92.61 90.73 92.35 91.35 C 92.76 93.92 92.81 98.07 89.60 98.64 C 89.55 95.39 89.62 92.14 89.64 88.88 Z" />
<path fill="#ff623c" opacity="1.00" d=" M 29.36 116.35 C 32.33 115.58 35.67 117.97 35.69 121.09 C 36.06 129.05 35.48 137.05 35.93 145.01 C 36.44 150.93 42.09 155.64 48.00 155.26 C 79.67 155.26 111.33 155.27 143.00 155.24 C 148.82 155.54 154.44 150.89 154.95 145.04 C 155.46 136.79 154.70 128.50 155.29 120.26 C 156.12 114.89 164.75 115.03 165.47 120.38 C 165.86 128.56 165.63 136.79 165.58 144.99 C 165.20 156.12 155.20 165.79 144.06 165.75 C 111.69 165.82 79.31 165.80 46.94 165.74 C 35.81 165.84 25.76 156.17 25.35 145.07 C 25.21 137.38 25.29 129.68 25.30 121.99 C 25.09 119.43 26.79 116.86 29.36 116.35 Z" />
</g>
</svg>
