<?xml version="1.0" encoding="UTF-8" ?>
<!DOCTYPE svg PUBLIC "-//W3C//DTD SVG 1.1//EN" "http://www.w3.org/Graphics/SVG/1.1/DTD/svg11.dtd">
<svg width="192pt" height="192pt" viewBox="0 0 192 192" version="1.1" xmlns="http://www.w3.org/2000/svg">
<g id="#ff3663ff">
<path fill="#ff3663" opacity="1.00" d=" M 57.31 43.49 C 63.13 34.99 66.33 22.14 78.00 20.07 C 89.30 19.33 100.72 19.57 112.04 19.93 C 124.22 21.46 127.68 34.78 133.60 43.48 C 139.72 43.69 145.86 43.28 151.97 43.69 C 164.46 44.89 174.94 56.37 174.82 68.94 C 174.88 94.31 174.88 119.69 174.82 145.05 C 175.04 158.35 163.30 170.26 150.06 170.51 C 139.60 170.47 129.10 170.81 118.66 170.34 C 112.62 169.23 112.88 159.41 119.01 158.71 C 129.32 158.21 139.67 158.74 150.00 158.47 C 156.89 158.21 162.86 151.97 162.83 145.08 C 162.88 119.69 162.89 94.30 162.83 68.92 C 162.84 62.03 156.86 55.84 149.99 55.55 C 143.33 55.33 136.65 55.63 129.99 55.44 C 127.78 55.51 125.87 54.05 124.84 52.19 C 121.27 46.33 118.03 40.28 114.40 34.47 C 113.13 32.23 110.44 31.48 108.01 31.64 C 99.33 31.69 90.65 31.61 81.97 31.67 C 79.83 31.62 77.62 32.56 76.51 34.45 C 72.90 40.24 69.67 46.25 66.13 52.07 C 65.10 53.93 63.24 55.47 61.03 55.44 C 54.35 55.63 47.67 55.34 41.00 55.53 C 34.13 55.77 27.98 62.00 28.11 68.93 C 28.06 94.31 28.08 119.69 28.10 145.07 C 27.95 152.37 34.69 158.80 41.94 158.53 C 57.89 158.54 73.83 158.51 89.78 158.53 C 89.82 151.82 89.84 145.11 89.74 138.40 C 73.26 135.86 59.83 120.71 59.72 103.96 C 58.93 86.63 72.58 70.28 89.71 67.78 C 107.86 64.39 126.96 77.52 130.40 95.63 C 135.13 114.87 120.65 135.64 101.14 138.38 C 100.99 146.94 101.17 155.51 101.06 164.07 C 101.33 167.43 98.47 170.76 95.00 170.51 C 77.01 170.58 59.02 170.56 41.03 170.52 C 27.68 170.39 15.91 158.39 16.07 145.04 C 16.02 119.68 16.02 94.31 16.08 68.94 C 16.00 56.69 25.89 45.43 38.01 43.81 C 44.42 43.19 50.88 43.74 57.31 43.49 M 92.39 79.50 C 74.83 80.91 65.27 103.96 76.50 117.47 C 86.66 132.14 111.97 128.58 117.63 111.64 C 124.63 95.71 109.50 76.48 92.39 79.50 Z" />
</g>
</svg>
