<?xml version="1.0" encoding="UTF-8" ?>
<!DOCTYPE svg PUBLIC "-//W3C//DTD SVG 1.1//EN" "http://www.w3.org/Graphics/SVG/1.1/DTD/svg11.dtd">
<svg width="192pt" height="192pt" viewBox="0 0 192 192" version="1.1" xmlns="http://www.w3.org/2000/svg">
<g id="#97644dff">
<path fill="#97644d" opacity="1.00" d=" M 57.32 43.49 C 63.14 35.00 66.34 22.15 77.99 20.09 C 89.29 19.32 100.71 19.57 112.03 19.94 C 124.23 21.45 127.68 34.80 133.64 43.49 C 139.75 43.68 145.87 43.26 151.96 43.71 C 164.47 44.86 174.97 56.38 174.84 68.96 C 174.89 94.32 174.91 119.70 174.91 145.05 C 175.04 158.37 163.37 170.35 150.06 170.56 C 139.53 170.49 128.95 170.91 118.43 170.34 C 112.58 169.00 112.96 159.38 119.02 158.71 C 129.33 158.18 139.68 158.75 150.00 158.45 C 156.90 158.22 162.83 151.95 162.82 145.08 C 162.90 120.03 162.83 94.99 162.85 69.94 C 163.26 63.00 157.73 56.37 150.80 55.66 C 143.87 55.26 136.92 55.74 129.99 55.47 C 127.75 55.57 125.88 54.05 124.83 52.20 C 121.26 46.38 118.06 40.33 114.43 34.55 C 113.32 32.68 111.19 31.62 109.03 31.70 C 100.36 31.61 91.68 31.70 83.00 31.65 C 80.57 31.54 77.83 32.20 76.55 34.46 C 72.91 40.23 69.72 46.26 66.17 52.08 C 65.12 53.94 63.27 55.51 61.02 55.45 C 54.35 55.68 47.67 55.35 41.01 55.55 C 34.16 55.79 28.00 62.02 28.15 68.94 C 28.09 94.31 28.11 119.69 28.14 145.06 C 27.96 152.36 34.69 158.80 41.94 158.52 C 57.88 158.56 73.81 158.49 89.75 158.54 C 89.82 151.84 89.85 145.14 89.71 138.45 C 69.93 135.56 55.43 114.27 60.68 94.83 C 64.52 77.06 83.38 64.41 101.28 67.79 C 118.75 70.40 132.47 87.34 131.21 104.99 C 130.56 121.36 117.37 135.96 101.20 138.42 C 101.01 146.96 101.20 155.52 101.11 164.06 C 101.37 167.44 98.49 170.83 95.00 170.55 C 77.01 170.62 59.02 170.59 41.03 170.55 C 27.67 170.44 15.91 158.39 16.08 145.05 C 16.04 119.68 16.05 94.31 16.10 68.94 C 16.01 56.71 25.88 45.43 38.00 43.84 C 44.42 43.17 50.89 43.76 57.32 43.49 M 92.40 79.53 C 79.04 80.83 69.02 94.98 72.22 108.03 C 74.56 121.10 89.20 129.86 101.86 125.93 C 114.77 122.74 122.65 107.56 117.85 95.14 C 114.43 84.77 103.18 77.96 92.40 79.53 Z" />
</g>
</svg>
