<?xml version="1.0" encoding="UTF-8" ?>
<!DOCTYPE svg PUBLIC "-//W3C//DTD SVG 1.1//EN" "http://www.w3.org/Graphics/SVG/1.1/DTD/svg11.dtd">
<svg width="192pt" height="192pt" viewBox="0 0 192 192" version="1.1" xmlns="http://www.w3.org/2000/svg">
<g id="#8492a1ff">
<path fill="#8492a1" opacity="1.00" d=" M 84.41 14.51 C 116.11 9.59 149.57 25.51 165.93 53.04 C 178.44 73.30 181.25 99.10 173.67 121.63 C 164.32 150.38 137.87 172.61 107.89 176.68 C 76.55 181.71 43.28 166.36 26.67 139.34 C 8.45 111.32 10.20 72.18 30.85 45.89 C 43.71 28.98 63.34 17.39 84.41 14.51 M 87.38 25.47 C 63.29 28.14 41.45 44.38 31.57 66.45 C 18.22 94.76 26.77 131.23 51.46 150.54 C 77.21 172.29 118.57 171.24 143.16 148.19 C 167.45 127.21 173.79 89.04 157.74 61.29 C 144.33 36.55 115.31 21.75 87.38 25.47 Z" />
<path fill="#8492a1" opacity="1.00" d=" M 91.47 58.62 C 105.63 56.82 120.38 64.10 127.61 76.39 C 134.52 87.64 134.75 102.64 128.09 114.06 C 121.27 126.36 107.01 134.01 92.97 132.75 C 73.86 131.90 57.68 114.11 58.49 95.02 C 58.37 76.87 73.40 60.29 91.47 58.62 M 89.34 70.43 C 79.98 72.74 72.27 80.67 70.33 90.13 C 67.83 100.63 72.92 112.32 82.18 117.81 C 91.40 123.65 104.28 122.65 112.49 115.46 C 120.28 109.07 123.60 97.96 120.68 88.33 C 117.15 75.30 102.39 66.73 89.34 70.43 Z" />
</g>
</svg>
