<?xml version="1.0" encoding="UTF-8" ?>
<!DOCTYPE svg PUBLIC "-//W3C//DTD SVG 1.1//EN" "http://www.w3.org/Graphics/SVG/1.1/DTD/svg11.dtd">
<svg width="192pt" height="192pt" viewBox="0 0 192 192" version="1.1" xmlns="http://www.w3.org/2000/svg">
<g id="#e32f9eff">
<path fill="#e32f9e" opacity="1.00" d=" M 57.30 43.47 C 63.13 34.98 66.33 22.13 77.99 20.06 C 89.29 19.33 100.71 19.57 112.03 19.92 C 124.21 21.45 127.68 34.76 133.60 43.47 C 139.72 43.69 145.85 43.28 151.96 43.69 C 164.45 44.88 174.94 56.37 174.81 68.94 C 174.86 94.31 174.84 119.69 174.78 145.06 C 175.02 158.34 163.28 170.23 150.06 170.49 C 139.60 170.44 129.11 170.78 118.67 170.34 C 112.65 169.21 112.90 159.44 119.02 158.72 C 129.33 158.26 139.68 158.74 150.00 158.50 C 156.89 158.24 162.91 151.99 162.84 145.07 C 162.88 119.69 162.89 94.30 162.83 68.92 C 162.84 62.03 156.85 55.84 149.99 55.55 C 143.33 55.35 136.66 55.63 129.99 55.45 C 127.78 55.51 125.85 54.06 124.82 52.19 C 121.27 46.33 118.01 40.30 114.40 34.48 C 113.30 32.62 111.15 31.61 109.02 31.68 C 100.35 31.63 91.68 31.69 83.00 31.65 C 80.57 31.53 77.80 32.17 76.51 34.46 C 72.92 40.25 69.67 46.25 66.15 52.08 C 65.12 53.94 63.24 55.48 61.01 55.45 C 54.34 55.63 47.67 55.35 41.00 55.54 C 34.13 55.79 28.01 62.00 28.11 68.93 C 28.06 94.31 28.08 119.69 28.10 145.08 C 27.97 152.36 34.69 158.79 41.94 158.52 C 57.88 158.55 73.83 158.51 89.77 158.55 C 89.83 151.83 89.85 145.11 89.73 138.39 C 73.25 135.86 59.81 120.71 59.71 103.96 C 58.91 86.62 72.58 70.26 89.72 67.77 C 107.87 64.39 126.97 77.52 130.40 95.64 C 135.11 114.86 120.65 135.64 101.15 138.36 C 100.98 146.93 101.18 155.50 101.06 164.07 C 101.31 167.43 98.46 170.75 95.00 170.50 C 77.01 170.57 59.02 170.56 41.04 170.52 C 27.68 170.40 15.91 158.40 16.05 145.04 C 16.00 119.68 16.00 94.31 16.06 68.95 C 16.07 59.00 22.49 49.50 31.64 45.63 C 39.73 42.08 48.76 44.08 57.30 43.47 M 92.39 79.50 C 79.41 80.79 69.48 94.20 72.00 107.00 C 73.66 118.37 84.53 127.39 96.02 126.79 C 107.81 126.82 118.47 116.79 119.14 105.02 C 120.86 90.49 106.82 77.13 92.39 79.50 Z" />
</g>
</svg>
