<?xml version="1.0" encoding="UTF-8" ?>
<!DOCTYPE svg PUBLIC "-//W3C//DTD SVG 1.1//EN" "http://www.w3.org/Graphics/SVG/1.1/DTD/svg11.dtd">
<svg width="192pt" height="192pt" viewBox="0 0 192 192" version="1.1" xmlns="http://www.w3.org/2000/svg">
<g id="#f6b12dff">
<path fill="#f6b12d" opacity="1.00" d=" M 57.27 43.53 C 63.14 35.04 66.32 22.12 78.03 20.08 C 89.31 19.34 100.72 19.57 112.02 19.93 C 124.22 21.46 127.69 34.80 133.61 43.52 C 139.74 43.65 145.88 43.29 152.00 43.70 C 164.48 44.89 174.92 56.37 174.82 68.92 C 174.89 94.31 174.90 119.70 174.84 145.08 C 175.01 158.39 163.25 170.32 149.98 170.52 C 139.66 170.50 129.31 170.75 119.00 170.39 C 112.68 169.68 112.70 159.40 119.02 158.71 C 129.31 158.19 139.65 158.75 149.96 158.46 C 156.87 158.22 162.84 151.97 162.83 145.07 C 162.88 119.69 162.89 94.31 162.83 68.93 C 162.84 62.03 156.85 55.82 149.97 55.54 C 143.30 55.31 136.62 55.65 129.95 55.43 C 127.77 55.48 125.88 54.04 124.85 52.20 C 121.27 46.35 118.05 40.28 114.41 34.47 C 113.31 32.62 111.18 31.59 109.05 31.67 C 100.36 31.59 91.66 31.67 82.97 31.63 C 80.53 31.51 77.79 32.16 76.51 34.44 C 72.87 40.22 69.67 46.26 66.11 52.08 C 65.07 53.90 63.26 55.44 61.07 55.42 C 54.39 55.64 47.70 55.30 41.02 55.52 C 34.13 55.73 27.97 61.97 28.10 68.92 C 28.06 94.30 28.07 119.69 28.10 145.08 C 27.95 152.38 34.69 158.80 41.95 158.53 C 57.90 158.53 73.85 158.53 89.81 158.51 C 89.79 151.81 89.84 145.11 89.76 138.41 C 73.64 135.88 60.35 121.37 59.76 104.98 C 58.43 87.34 72.18 70.36 89.65 67.79 C 107.79 64.37 126.91 77.47 130.39 95.57 C 135.16 114.87 120.63 135.62 101.10 138.42 C 101.03 146.97 101.15 155.54 101.05 164.09 C 101.32 167.44 98.48 170.71 95.04 170.50 C 77.04 170.59 59.02 170.55 41.02 170.51 C 27.69 170.37 15.93 158.41 16.08 145.07 C 16.03 119.69 16.04 94.30 16.10 68.92 C 16.00 56.34 26.48 44.83 38.99 43.71 C 45.08 43.32 51.18 43.66 57.27 43.53 M 92.38 79.49 C 74.82 80.89 65.26 103.97 76.50 117.47 C 86.49 131.86 111.23 128.78 117.34 112.35 C 125.00 96.37 109.82 76.38 92.38 79.49 Z" />
</g>
</svg>
