<?xml version="1.0" encoding="UTF-8" ?>
<!DOCTYPE svg PUBLIC "-//W3C//DTD SVG 1.1//EN" "http://www.w3.org/Graphics/SVG/1.1/DTD/svg11.dtd">
<svg width="192pt" height="192pt" viewBox="0 0 192 192" version="1.1" xmlns="http://www.w3.org/2000/svg">
<g id="#7fb29fff">
<path fill="#7fb29f" opacity="1.00" d=" M 118.20 29.28 C 121.00 27.99 124.51 29.53 125.66 32.34 C 142.80 65.59 159.86 98.87 176.97 132.14 C 179.37 135.73 176.40 141.25 171.99 140.81 C 148.97 138.57 126.04 134.96 103.00 133.14 C 96.00 141.80 89.77 151.12 82.89 159.90 C 80.94 162.34 77.01 162.27 74.81 160.22 C 55.00 144.03 35.10 127.93 15.37 111.64 C 11.52 109.00 13.18 102.16 17.92 101.80 C 38.24 98.46 58.60 95.30 78.93 92.04 C 80.39 92.08 81.03 90.71 81.66 89.66 C 92.66 70.67 103.80 51.77 114.81 32.78 C 115.67 31.41 116.56 29.83 118.20 29.28 M 95.10 88.98 C 106.17 88.36 116.98 85.49 128.00 84.39 C 132.30 84.36 135.04 89.98 132.24 93.29 C 125.23 102.99 117.95 112.50 110.94 122.20 C 127.97 124.41 145.04 126.34 162.10 128.23 C 148.08 101.03 134.50 73.56 120.01 46.62 C 111.45 60.58 103.47 74.90 95.10 88.98 M 87.39 102.34 C 84.13 107.61 81.08 113.02 78.01 118.40 C 84.58 119.26 91.16 120.01 97.74 120.79 C 103.50 113.30 109.11 105.69 114.58 97.99 C 105.49 99.16 96.32 100.40 87.39 102.34 M 32.46 110.85 C 47.22 123.60 62.61 135.63 77.72 147.98 C 81.85 142.41 86.00 136.87 90.05 131.24 C 82.73 130.34 75.39 129.64 68.09 128.62 C 64.38 128.42 61.77 123.88 63.65 120.62 C 66.58 115.11 70.01 109.88 72.92 104.36 C 59.44 106.57 45.92 108.54 32.46 110.85 Z" />
</g>
</svg>
