<?xml version="1.0" encoding="UTF-8" ?>
<!DOCTYPE svg PUBLIC "-//W3C//DTD SVG 1.1//EN" "http://www.w3.org/Graphics/SVG/1.1/DTD/svg11.dtd">
<svg width="192pt" height="192pt" viewBox="0 0 192 192" version="1.1" xmlns="http://www.w3.org/2000/svg">
<g id="#5ba5deff">
<path fill="#5ba5de" opacity="1.00" d=" M 25.07 46.93 C 25.16 35.47 35.58 25.46 47.02 25.69 C 79.34 25.69 111.66 25.60 143.97 25.72 C 155.53 25.90 165.45 36.49 165.14 48.00 C 165.05 62.66 165.41 77.34 164.96 91.98 C 164.15 97.34 155.52 97.39 154.74 91.97 C 154.22 77.00 154.80 61.99 154.48 47.01 C 154.24 41.19 148.94 36.09 143.07 36.27 C 111.03 36.24 78.98 36.24 46.93 36.26 C 40.71 36.03 35.33 41.81 35.49 47.94 C 35.44 79.64 35.48 111.35 35.49 143.05 C 35.11 149.39 40.58 155.37 46.99 155.22 C 78.99 155.26 111.00 155.24 143.01 155.18 C 149.06 155.39 154.47 150.01 154.49 143.99 C 154.56 137.06 154.63 130.12 154.46 123.19 C 154.70 121.76 153.40 120.63 152.02 120.79 C 119.39 120.61 86.75 120.93 54.13 120.59 C 47.05 119.64 49.35 109.00 56.13 109.70 C 55.58 102.71 57.74 95.88 61.62 90.11 C 55.54 79.73 58.34 65.30 68.09 58.18 C 76.74 51.39 89.85 51.62 98.31 58.63 C 111.33 51.94 128.32 53.80 138.98 64.04 C 151.73 75.34 154.03 96.10 144.12 109.95 C 150.76 111.29 161.03 106.64 164.82 114.11 C 165.57 124.04 165.01 134.06 165.12 144.02 C 165.24 155.70 154.74 166.09 143.06 165.80 C 111.02 165.84 78.98 165.82 46.94 165.76 C 35.31 166.05 24.91 155.66 25.02 144.06 C 25.00 111.68 25.00 79.30 25.07 46.93 M 69.35 82.94 C 73.21 81.47 77.02 79.71 81.18 79.27 C 83.11 74.01 86.08 69.23 89.70 64.97 C 78.49 58.84 64.74 71.11 69.35 82.94 M 92.29 80.14 C 104.74 84.13 113.61 96.80 112.33 109.95 C 117.86 109.93 123.41 110.19 128.94 109.89 C 137.57 104.56 141.48 93.00 138.65 83.34 C 135.91 72.98 125.74 65.19 115.00 65.37 C 105.32 65.19 96.29 71.45 92.29 80.14 M 66.55 109.93 C 78.29 110.10 90.04 110.03 101.78 109.95 C 103.05 100.30 95.85 90.51 86.00 89.66 C 74.88 88.10 64.77 98.94 66.55 109.93 Z" />
<path fill="#5ba5de" opacity="1.00" d=" M 47.25 127.52 C 50.97 127.55 54.69 127.54 58.42 127.58 C 58.47 128.58 58.52 129.58 58.58 130.58 C 55.92 130.62 53.27 130.62 50.62 130.60 C 50.56 132.24 50.48 133.88 50.40 135.52 C 52.66 136.38 55.09 136.36 57.47 136.29 C 57.48 136.90 57.48 138.11 57.48 138.72 C 55.18 138.74 52.89 138.75 50.59 138.75 C 50.56 141.20 50.57 143.64 50.63 146.09 C 49.49 146.19 48.36 146.28 47.23 146.37 C 47.28 140.09 47.24 133.80 47.25 127.52 Z" />
<path fill="#5ba5de" opacity="1.00" d=" M 61.32 127.50 C 65.28 127.98 70.39 126.25 73.40 129.60 C 73.89 133.35 74.83 138.17 71.29 140.76 C 72.17 142.56 73.03 144.37 73.91 146.17 C 73.11 146.27 71.50 146.47 70.70 146.57 C 68.65 144.36 68.48 139.47 64.51 140.41 C 64.54 142.30 64.59 144.20 64.64 146.09 C 63.50 146.18 62.35 146.27 61.21 146.35 C 61.80 140.06 60.35 133.72 61.32 127.50 M 64.56 130.52 C 64.57 132.84 64.56 135.15 64.55 137.47 C 67.07 137.64 71.34 137.79 70.38 133.97 C 71.12 130.29 67.03 130.39 64.56 130.52 Z" />
<path fill="#5ba5de" opacity="1.00" d=" M 76.81 127.65 C 78.04 127.60 79.26 127.55 80.48 127.52 C 80.70 133.74 80.50 139.96 80.70 146.18 C 79.38 146.17 77.72 146.92 76.84 145.53 C 76.58 139.58 76.79 133.61 76.81 127.65 Z" />
<path fill="#5ba5de" opacity="1.00" d=" M 84.25 127.53 C 87.97 127.50 91.70 127.48 95.43 127.56 C 95.48 128.58 95.54 129.60 95.60 130.62 C 92.97 130.70 90.34 130.70 87.71 130.68 C 87.72 132.20 87.73 133.72 87.74 135.24 C 90.03 135.24 92.32 135.26 94.61 135.41 C 94.57 136.43 94.52 137.46 94.48 138.48 C 92.24 138.51 89.99 138.53 87.75 138.55 C 87.76 139.99 87.77 141.43 87.78 142.88 C 90.46 143.03 93.14 143.11 95.82 143.21 C 96.10 149.15 87.85 145.39 84.14 146.30 C 84.16 140.04 84.16 133.79 84.25 127.53 Z" />
<path fill="#5ba5de" opacity="1.00" d=" M 107.45 127.66 C 108.77 127.57 110.09 127.49 111.42 127.43 C 111.47 133.79 111.83 140.18 111.29 146.53 C 110.44 146.50 108.75 146.44 107.91 146.41 C 105.86 142.82 104.17 139.05 102.16 135.45 C 102.11 139.08 102.09 142.71 101.95 146.34 C 100.61 146.34 99.28 146.33 97.94 146.31 C 98.01 140.08 98.15 133.86 98.10 127.63 C 98.89 127.55 100.46 127.38 101.24 127.29 C 103.58 130.79 105.12 134.73 107.40 138.27 C 107.49 134.73 107.51 131.19 107.45 127.66 Z" />
<path fill="#5ba5de" opacity="1.00" d=" M 114.93 127.36 C 119.30 128.03 127.28 125.25 128.41 131.41 C 128.42 135.93 129.67 141.12 127.26 145.20 C 123.52 147.44 118.81 146.11 114.67 146.35 C 114.70 140.02 114.30 133.66 114.93 127.36 M 118.72 130.79 C 118.70 134.86 118.71 138.93 118.72 142.99 C 120.50 142.93 122.28 142.90 124.06 142.84 C 124.77 138.95 124.61 134.98 124.15 131.08 C 122.34 130.97 120.53 130.88 118.72 130.79 Z" />
<path fill="#5ba5de" opacity="1.00" d=" M 130.88 133.03 C 129.05 124.77 145.73 124.71 143.99 132.95 C 143.17 133.98 141.65 133.48 140.52 133.77 C 140.07 132.63 139.61 131.49 139.14 130.36 C 137.80 130.48 136.46 130.61 135.12 130.75 C 135.12 131.58 135.11 133.23 135.10 134.05 C 137.91 135.19 141.38 135.24 143.67 137.34 C 144.65 139.87 144.82 143.04 143.36 145.42 C 139.02 148.12 129.73 147.46 131.16 140.34 C 132.34 140.25 133.52 140.18 134.70 140.10 C 135.12 141.20 135.54 142.30 135.97 143.40 C 137.39 143.32 138.81 143.24 140.24 143.14 C 142.02 136.07 129.61 140.28 130.88 133.03 Z" />
</g>
</svg>
