<?xml version="1.0" encoding="UTF-8" ?>
<!DOCTYPE svg PUBLIC "-//W3C//DTD SVG 1.1//EN" "http://www.w3.org/Graphics/SVG/1.1/DTD/svg11.dtd">
<svg width="192pt" height="192pt" viewBox="0 0 192 192" version="1.1" xmlns="http://www.w3.org/2000/svg">
<g id="#858299ff">
<path fill="#858299" opacity="1.00" d=" M 85.39 16.50 C 118.28 11.74 152.69 29.58 168.05 58.97 C 184.31 88.26 180.03 127.55 157.24 152.23 C 152.10 156.99 144.65 148.40 149.77 143.82 C 171.54 119.13 172.22 79.13 151.25 53.75 C 131.49 28.02 93.18 19.49 64.40 34.50 C 44.20 44.47 29.54 64.67 26.20 86.93 C 22.84 107.32 29.16 128.84 42.65 144.42 C 47.02 149.24 39.53 156.74 34.70 152.33 C 11.71 127.42 7.54 87.69 24.26 58.29 C 36.55 35.75 59.90 19.69 85.39 16.50 Z" />
<path fill="#858299" opacity="1.00" d=" M 89.38 55.44 C 105.10 52.83 121.86 59.99 130.90 73.10 C 141.89 88.03 141.32 110.18 129.55 124.50 C 119.35 137.81 100.93 143.93 84.80 139.35 C 66.91 134.78 53.30 117.51 53.14 99.03 C 52.12 78.11 68.64 58.29 89.38 55.44 M 91.43 66.59 C 78.75 68.30 67.81 78.48 65.16 91.00 C 62.13 103.75 68.06 117.96 79.29 124.74 C 90.42 131.95 106.09 130.87 116.13 122.19 C 126.18 114.07 130.22 99.46 125.71 87.35 C 121.06 73.47 105.91 64.24 91.43 66.59 Z" />
<path fill="#858299" opacity="1.00" d=" M 92.34 87.40 C 99.09 84.67 107.53 90.68 106.85 98.01 C 107.69 106.57 96.48 112.36 89.76 107.27 C 82.12 102.73 83.74 89.79 92.34 87.40 Z" />
</g>
</svg>
