<?xml version="1.0" encoding="UTF-8" ?>
<!DOCTYPE svg PUBLIC "-//W3C//DTD SVG 1.1//EN" "http://www.w3.org/Graphics/SVG/1.1/DTD/svg11.dtd">
<svg width="192pt" height="192pt" viewBox="0 0 192 192" version="1.1" xmlns="http://www.w3.org/2000/svg">
<g id="#dd5a7bff">
<path fill="#dd5a7b" opacity="1.00" d=" M 22.05 43.93 C 21.89 31.69 32.75 20.63 45.03 20.75 C 79.35 20.71 113.67 20.69 147.99 20.75 C 160.23 20.69 171.01 31.73 170.86 43.93 C 170.84 59.59 171.11 75.27 170.74 90.91 C 170.19 96.86 160.45 96.95 159.85 90.99 C 159.38 75.32 159.87 59.61 159.62 43.92 C 159.67 37.32 153.56 31.70 147.04 31.91 C 113.35 31.82 79.65 31.84 45.96 31.87 C 39.41 31.64 33.16 37.27 33.30 43.94 C 33.25 77.98 33.28 112.02 33.29 146.07 C 33.08 152.79 39.28 158.76 46.00 158.30 C 79.67 158.29 113.33 158.29 147.00 158.27 C 153.33 158.65 159.26 153.31 159.56 146.99 C 159.79 139.67 159.65 132.34 159.64 125.02 C 159.90 123.28 158.70 121.40 156.78 121.73 C 122.18 121.58 87.56 121.91 52.97 121.54 C 46.36 120.70 47.19 111.04 53.35 109.98 C 53.64 103.15 52.83 96.25 53.64 89.46 C 55.40 85.43 59.84 83.64 63.50 81.73 C 61.80 67.52 70.78 52.86 84.65 48.79 C 100.34 43.47 118.49 53.61 122.83 69.44 C 133.27 68.46 144.12 73.35 149.64 82.39 C 155.01 90.63 155.07 101.68 150.61 110.32 C 157.07 111.55 167.80 106.94 170.68 115.15 C 171.05 125.76 171.08 136.44 170.87 147.07 C 170.61 159.01 160.01 169.48 148.06 169.54 C 113.69 169.62 79.32 169.60 44.95 169.54 C 32.58 169.55 21.77 158.39 22.02 146.05 C 21.97 112.01 21.97 77.97 22.05 43.93 M 72.27 78.52 C 79.04 76.86 86.19 75.36 93.12 76.85 C 97.35 77.67 98.22 82.55 100.53 85.53 C 103.53 79.57 108.42 74.73 114.39 71.76 C 111.66 63.06 103.37 56.03 94.02 56.25 C 82.12 55.44 71.16 66.62 72.27 78.52 M 62.36 97.66 C 62.22 101.88 62.28 106.10 62.27 110.32 C 76.49 110.42 90.70 110.34 104.92 110.36 C 100.61 103.19 96.42 95.96 91.96 88.88 C 82.06 91.69 72.28 94.92 62.36 97.66 M 123.51 94.52 C 123.42 96.17 123.41 97.83 123.50 99.48 C 127.11 100.68 129.99 98.28 128.42 94.54 C 126.78 94.52 125.15 94.51 123.51 94.52 Z" />
<path fill="#dd5a7b" opacity="1.00" d=" M 65.21 128.65 C 66.76 128.63 68.30 128.62 69.84 128.64 C 69.69 134.90 70.41 141.25 69.44 147.45 C 67.95 151.42 62.76 150.08 59.49 150.25 C 58.35 146.24 62.02 145.94 64.97 145.94 C 65.38 140.18 65.10 134.41 65.21 128.65 Z" />
<path fill="#dd5a7b" opacity="1.00" d=" M 73.27 128.77 C 77.79 128.35 82.35 128.33 86.86 128.80 C 86.78 130.03 86.68 131.27 86.57 132.51 C 83.76 132.56 80.94 132.57 78.13 132.56 C 78.12 134.15 78.10 135.73 78.09 137.32 C 80.59 137.34 83.10 137.39 85.60 137.49 C 85.53 138.80 85.45 140.12 85.36 141.44 C 82.95 141.40 80.54 141.38 78.13 141.34 C 78.12 142.98 78.10 144.62 78.09 146.26 C 80.97 146.28 83.84 146.29 86.71 146.36 C 86.79 147.63 86.85 148.92 86.91 150.20 C 82.38 150.39 77.85 150.43 73.33 150.13 C 73.27 143.01 73.35 135.89 73.27 128.77 Z" />
<path fill="#dd5a7b" opacity="1.00" d=" M 89.46 128.56 C 90.98 128.58 92.50 128.61 94.02 128.66 C 94.13 134.53 94.08 140.39 94.10 146.26 C 96.98 146.27 99.87 146.29 102.75 146.38 C 102.80 147.65 102.84 148.93 102.87 150.20 C 98.40 150.40 93.92 150.37 89.45 150.23 C 89.30 143.01 89.30 135.78 89.46 128.56 Z" />
<path fill="#dd5a7b" opacity="1.00" d=" M 104.98 128.68 C 106.41 128.58 107.83 128.49 109.26 128.41 C 109.87 134.34 109.44 140.30 109.59 146.25 C 112.43 146.28 115.28 146.29 118.12 146.29 C 118.24 147.61 118.35 148.94 118.45 150.27 C 113.94 150.36 109.43 150.40 104.92 150.18 C 104.98 143.01 104.92 135.85 104.98 128.68 Z" />
<path fill="#dd5a7b" opacity="1.00" d=" M 115.25 128.58 C 116.80 128.59 118.35 128.61 119.89 128.65 C 121.36 131.84 122.88 135.01 124.43 138.17 C 125.90 134.94 127.42 131.74 128.96 128.55 C 130.47 128.56 131.98 128.58 133.49 128.61 C 131.16 135.83 125.25 142.11 126.71 150.19 C 125.16 150.21 123.62 150.21 122.09 150.20 C 123.45 142.09 117.69 135.79 115.25 128.58 Z" />
</g>
</svg>
