<?xml version="1.0" encoding="UTF-8" ?>
<!DOCTYPE svg PUBLIC "-//W3C//DTD SVG 1.1//EN" "http://www.w3.org/Graphics/SVG/1.1/DTD/svg11.dtd">
<svg width="192pt" height="192pt" viewBox="0 0 192 192" version="1.1" xmlns="http://www.w3.org/2000/svg">
<g id="#464e5dff">
<path fill="#464e5d" opacity="1.00" d=" M 30.52 77.45 C 39.45 59.78 60.03 51.46 79.03 51.89 C 91.37 52.36 104.11 50.48 116.15 53.85 C 128.71 57.73 135.20 69.92 142.01 80.11 C 151.09 80.14 160.49 82.46 167.43 88.60 C 176.37 95.75 179.07 107.99 178.68 118.91 C 178.74 121.97 175.92 124.71 172.87 124.60 C 167.47 124.77 162.06 124.66 156.66 124.57 C 154.50 132.57 147.91 140.05 139.00 139.60 C 130.47 139.85 123.52 132.76 121.93 124.73 C 109.74 124.42 97.53 124.97 85.36 124.46 C 79.50 123.25 79.99 113.63 86.04 113.16 C 98.98 112.81 111.94 113.19 124.89 112.98 C 130.59 104.80 143.57 102.91 150.63 110.33 C 154.45 115.78 161.79 112.56 167.36 113.35 C 167.50 102.11 158.25 92.06 146.94 91.76 C 109.37 91.73 71.79 91.57 34.24 91.81 C 23.64 92.35 22.54 105.26 23.92 113.36 C 28.89 113.54 33.87 113.52 38.84 113.32 C 43.29 106.93 51.95 103.73 59.32 106.77 C 68.20 109.92 72.94 121.18 68.70 129.67 C 65.17 138.09 54.24 142.12 46.08 138.00 C 40.63 135.65 37.44 130.21 36.04 124.66 C 29.82 124.50 23.58 124.91 17.37 124.47 C 14.55 124.05 14.39 120.55 13.65 118.38 C 11.16 107.72 11.47 94.82 19.47 86.47 C 22.59 82.59 28.98 82.71 30.52 77.45 M 41.86 80.22 C 55.78 80.47 69.72 80.28 83.65 80.32 C 83.69 74.60 83.76 68.87 83.54 63.15 C 68.19 62.34 50.58 66.40 41.86 80.22 M 95.21 63.18 C 95.23 68.89 95.23 74.60 95.21 80.32 C 106.45 80.47 117.70 80.40 128.95 80.34 C 125.25 73.98 120.50 67.43 113.40 64.68 C 107.54 62.82 101.27 63.43 95.21 63.18 M 51.28 117.35 C 47.52 118.52 46.29 124.05 49.34 126.65 C 52.20 129.78 58.04 127.98 58.77 123.83 C 59.83 119.62 55.29 115.88 51.28 117.35 M 137.28 117.32 C 133.38 118.41 132.11 124.08 135.26 126.69 C 138.40 130.06 144.79 127.50 144.71 122.89 C 145.04 119.01 140.88 116.13 137.28 117.32 Z" />
</g>
</svg>
