<?xml version="1.0" encoding="UTF-8" ?>
<!DOCTYPE svg PUBLIC "-//W3C//DTD SVG 1.1//EN" "http://www.w3.org/Graphics/SVG/1.1/DTD/svg11.dtd">
<svg width="192pt" height="192pt" viewBox="0 0 192 192" version="1.1" xmlns="http://www.w3.org/2000/svg">
<g id="#f6b12cff">
<path fill="#f6b12c" opacity="1.00" d=" M 85.36 15.43 C 120.80 10.41 157.67 31.64 171.29 64.69 C 187.02 99.72 173.67 144.89 140.93 165.13 C 136.37 167.00 131.62 161.41 134.08 157.21 C 136.51 153.94 140.45 152.19 143.27 149.27 C 168.99 126.91 174.16 85.34 154.53 57.44 C 136.81 30.02 99.13 18.52 69.05 31.11 C 39.33 42.45 20.11 75.54 25.22 106.99 C 27.68 125.34 38.00 142.13 52.58 153.40 C 57.44 157.25 51.72 165.59 46.39 162.51 C 19.22 143.30 6.86 106.20 16.39 74.39 C 24.97 43.34 53.33 19.05 85.36 15.43 Z" />
<path fill="#f6b12c" opacity="1.00" d=" M 96.24 68.25 C 89.30 65.04 90.06 54.13 96.00 50.64 C 102.15 50.90 97.33 57.98 98.32 61.64 C 109.44 62.35 117.63 51.13 128.62 51.39 C 139.59 55.69 145.45 69.84 140.70 80.67 C 138.19 87.86 131.55 92.57 124.55 94.83 C 127.61 102.09 129.85 109.92 129.52 117.87 C 133.61 119.25 139.48 121.54 138.25 127.01 C 134.28 139.57 129.54 151.89 125.41 164.40 C 124.31 166.92 126.75 169.69 125.21 172.10 C 123.74 174.60 119.37 174.51 118.21 171.76 C 116.31 168.34 114.76 164.73 112.91 161.28 C 99.58 165.49 86.33 169.95 72.98 174.06 C 68.77 175.42 64.96 171.97 63.82 168.15 C 57.72 151.38 50.70 134.91 45.11 117.97 C 44.12 109.81 54.19 108.91 59.68 106.44 C 60.03 103.08 60.60 99.74 61.45 96.46 C 48.95 93.17 41.33 77.74 48.30 66.31 C 50.63 63.89 49.56 58.47 53.96 58.57 C 63.22 58.93 71.63 64.34 80.97 64.12 C 87.09 62.30 75.78 53.88 83.16 52.23 C 89.94 54.35 92.52 65.44 86.23 69.89 C 86.52 71.42 86.80 72.95 87.08 74.48 C 90.05 74.27 93.04 74.18 96.02 74.22 C 96.09 72.23 96.16 70.24 96.24 68.25 M 105.21 68.25 C 104.87 70.93 102.69 75.51 106.22 76.74 C 111.31 78.65 115.47 82.17 119.16 86.07 C 124.12 86.83 128.50 82.86 130.53 78.66 C 133.07 71.64 129.16 62.97 121.96 60.60 C 116.26 62.79 111.14 66.46 105.21 68.25 M 64.87 87.71 C 68.39 82.64 73.51 78.96 79.14 76.56 C 78.63 68.26 68.43 70.62 62.99 67.56 C 54.13 71.49 54.76 86.01 64.87 87.71 M 77.04 86.10 C 71.27 89.84 68.89 96.72 67.71 103.17 C 71.46 101.95 75.17 100.60 78.82 99.08 C 79.29 83.26 110.49 86.34 105.58 102.32 C 106.25 103.77 106.92 105.21 107.57 106.67 C 109.97 106.71 112.44 106.44 114.77 107.15 C 117.83 108.04 117.87 112.70 121.49 112.53 C 120.77 104.97 118.20 97.48 113.34 91.56 C 105.04 80.80 88.22 78.94 77.04 86.10 M 52.98 117.28 C 58.96 133.61 65.40 149.78 71.40 166.11 C 83.10 163.05 94.46 158.78 106.01 155.19 C 99.36 138.48 93.06 121.65 86.64 104.85 C 75.21 108.38 64.24 113.26 52.98 117.28 M 95.86 109.18 C 98.03 115.81 100.36 122.44 103.31 128.77 C 102.66 121.87 100.98 115.12 99.64 108.34 C 98.38 108.61 97.12 108.89 95.86 109.18 M 108.01 114.41 C 108.76 121.11 110.36 127.67 111.55 134.29 C 111.60 127.70 111.49 121.12 111.38 114.53 C 110.26 114.49 109.13 114.45 108.01 114.41 M 118.24 120.01 C 118.36 125.95 118.33 131.88 118.54 137.82 C 119.85 132.01 120.59 126.09 121.55 120.22 C 120.45 120.15 119.34 120.08 118.24 120.01 M 127.48 126.05 C 126.79 130.22 126.02 134.40 125.80 138.63 C 127.63 134.66 129.04 130.51 130.08 126.27 C 129.43 126.22 128.13 126.10 127.48 126.05 Z" />
</g>
</svg>
