<?xml version="1.0" encoding="UTF-8" ?>
<!DOCTYPE svg PUBLIC "-//W3C//DTD SVG 1.1//EN" "http://www.w3.org/Graphics/SVG/1.1/DTD/svg11.dtd">
<svg width="192pt" height="192pt" viewBox="0 0 192 192" version="1.1" xmlns="http://www.w3.org/2000/svg">
<g id="#b17954ff">
<path fill="#b17954" opacity="1.00" d=" M 39.35 21.46 C 42.50 20.68 45.77 20.73 49.00 20.74 C 81.99 20.81 115.00 20.68 147.99 20.79 C 160.08 21.03 170.80 31.82 170.75 43.95 C 170.79 78.31 170.78 112.68 170.78 147.05 C 170.98 159.66 159.54 170.82 146.98 170.53 C 112.99 170.57 79.00 170.54 45.02 170.52 C 32.45 170.83 20.97 159.68 21.15 147.07 C 21.08 113.04 21.15 79.00 21.15 44.97 C 20.76 34.14 28.79 23.81 39.35 21.46 M 43.42 32.66 C 37.46 33.33 32.68 38.97 32.88 44.95 C 32.76 78.64 32.81 112.34 32.86 146.03 C 32.56 152.64 38.22 158.84 44.93 158.61 C 78.98 158.62 113.02 158.63 147.07 158.58 C 153.63 158.68 159.33 152.59 159.00 146.06 C 159.03 112.36 159.10 78.64 159.00 44.93 C 159.22 38.44 153.49 32.48 146.97 32.59 C 112.46 32.63 77.93 32.43 43.42 32.66 Z" />
<path fill="#b17954" opacity="1.00" d=" M 90.30 53.33 C 106.85 50.57 124.45 58.46 133.36 72.67 C 142.35 86.24 142.53 105.00 133.75 118.72 C 124.55 133.89 105.41 142.26 88.05 138.20 C 70.39 134.65 56.10 118.97 54.21 101.05 C 51.02 78.80 68.10 56.39 90.30 53.33 M 92.43 64.61 C 81.63 66.11 72.02 73.71 67.82 83.74 C 62.87 95.26 65.61 109.60 74.66 118.34 C 84.08 128.14 100.06 130.52 111.94 123.92 C 125.05 117.20 132.04 100.67 127.35 86.62 C 123.10 72.07 107.44 62.08 92.43 64.61 Z" />
</g>
</svg>
