<?xml version="1.0" encoding="UTF-8" ?>
<!DOCTYPE svg PUBLIC "-//W3C//DTD SVG 1.1//EN" "http://www.w3.org/Graphics/SVG/1.1/DTD/svg11.dtd">
<svg width="192pt" height="192pt" viewBox="0 0 192 192" version="1.1" xmlns="http://www.w3.org/2000/svg">
<g id="#fd7638ff">
<path fill="#fd7638" opacity="1.00" d=" M 53.64 25.44 C 49.74 20.52 57.39 13.84 61.79 18.20 C 73.10 29.17 84.17 40.41 95.29 51.59 C 103.80 43.68 111.55 34.95 120.16 27.16 C 124.80 23.57 131.35 30.15 127.97 34.82 C 120.55 42.69 112.75 50.21 105.06 57.83 C 116.73 58.14 128.40 57.78 140.07 58.06 C 154.84 58.85 167.68 72.14 167.78 86.96 C 167.82 106.31 167.90 125.66 167.81 145.01 C 167.91 154.01 163.46 163.11 156.12 168.35 C 151.59 170.57 146.43 164.60 149.64 160.55 C 153.34 156.95 156.53 152.40 156.46 147.01 C 156.64 126.16 156.71 105.30 156.36 84.46 C 155.99 75.66 147.47 69.36 139.08 69.41 C 110.03 69.14 80.99 69.38 51.94 69.33 C 42.88 68.99 34.31 76.72 34.41 85.93 C 34.30 106.29 34.25 126.66 34.49 147.02 C 34.75 155.13 41.16 162.75 49.47 163.31 C 65.96 163.90 82.51 163.14 98.99 163.74 C 104.42 164.86 104.42 173.70 98.90 174.61 C 86.28 175.01 73.63 174.65 61.00 174.77 C 55.45 174.63 49.73 175.34 44.36 173.55 C 32.13 169.92 22.90 157.86 23.07 145.03 C 23.07 125.33 22.99 105.63 23.12 85.93 C 23.50 71.69 35.68 59.01 49.90 58.12 C 61.76 57.72 73.63 58.15 85.49 57.88 C 75.02 46.93 63.87 36.60 53.64 25.44 Z" />
<path fill="#fd7638" opacity="1.00" d=" M 114.36 120.50 C 121.89 119.98 129.48 120.34 137.03 120.29 C 140.59 120.11 143.38 123.50 143.05 126.95 C 143.11 140.98 143.10 155.03 143.06 169.07 C 143.33 172.45 140.47 175.77 136.98 175.53 C 130.00 175.60 123.00 175.63 116.02 175.50 C 112.57 175.71 109.84 172.40 110.11 169.08 C 110.06 155.04 110.13 140.99 110.12 126.94 C 109.86 124.14 111.54 121.20 114.36 120.50 Z" />
</g>
</svg>
