<?xml version="1.0" encoding="UTF-8" ?>
<!DOCTYPE svg PUBLIC "-//W3C//DTD SVG 1.1//EN" "http://www.w3.org/Graphics/SVG/1.1/DTD/svg11.dtd">
<svg width="192pt" height="192pt" viewBox="0 0 192 192" version="1.1" xmlns="http://www.w3.org/2000/svg">
<g id="#39db83ff">
<path fill="#39db83" opacity="1.00" d=" M 82.41 12.51 C 114.12 7.57 147.56 23.50 163.95 51.03 C 176.50 71.28 179.22 97.11 171.68 119.65 C 162.40 148.13 136.33 170.27 106.65 174.58 C 75.57 179.86 42.44 165.08 25.45 138.57 C 6.72 110.86 7.79 71.63 28.02 44.99 C 40.87 27.51 60.86 15.40 82.41 12.51 M 85.38 23.47 C 63.26 25.94 42.96 39.79 32.21 59.21 C 22.26 76.77 20.60 98.66 27.44 117.60 C 37.59 147.07 68.95 167.33 100.03 164.00 C 129.46 161.98 155.85 139.32 162.56 110.64 C 167.97 89.25 162.64 65.45 148.39 48.57 C 133.43 30.15 108.89 20.49 85.38 23.47 Z" />
<path fill="#39db83" opacity="1.00" d=" M 56.79 68.80 C 68.62 50.39 94.89 43.31 114.15 53.86 C 118.75 56.86 116.09 63.82 111.04 64.40 C 105.31 62.01 99.27 59.83 92.95 60.24 C 79.46 60.32 66.80 69.69 62.44 82.39 C 58.46 93.24 60.69 106.05 68.14 114.89 C 76.87 125.80 92.88 130.09 105.85 124.82 C 108.21 124.00 110.83 122.34 113.33 123.71 C 117.07 125.28 117.76 131.10 114.31 133.34 C 93.88 144.76 65.53 135.95 54.84 115.20 C 46.81 100.95 47.56 82.31 56.79 68.80 Z" />
<path fill="#39db83" opacity="1.00" d=" M 88.33 87.99 C 88.56 82.86 86.36 73.56 93.99 73.14 C 101.52 73.71 99.31 82.83 99.54 87.95 C 103.27 88.11 107.07 87.63 110.75 88.37 C 115.14 89.77 115.69 96.52 111.52 98.55 C 107.72 99.97 103.49 99.02 99.52 99.26 C 99.38 103.11 100.09 107.13 99.03 110.87 C 97.21 115.38 90.01 114.96 88.66 110.32 C 87.99 106.67 88.42 102.93 88.30 99.24 C 84.57 99.12 80.76 99.70 77.10 98.87 C 72.67 97.40 72.27 90.52 76.54 88.60 C 80.31 87.36 84.42 88.23 88.33 87.99 Z" />
</g>
</svg>
