<?xml version="1.0" encoding="UTF-8" ?>
<!DOCTYPE svg PUBLIC "-//W3C//DTD SVG 1.1//EN" "http://www.w3.org/Graphics/SVG/1.1/DTD/svg11.dtd">
<svg width="192pt" height="192pt" viewBox="0 0 192 192" version="1.1" xmlns="http://www.w3.org/2000/svg">
<g id="#ff3662ff">
<path fill="#ff3662" opacity="1.00" d=" M 84.41 13.52 C 105.80 10.47 128.32 16.33 145.46 29.50 C 170.25 48.11 182.83 81.57 175.78 111.85 C 167.92 149.39 131.15 177.52 92.99 176.54 C 69.99 176.55 46.99 176.59 23.99 176.52 C 19.11 177.01 16.09 170.74 19.11 167.04 C 24.13 158.31 32.77 148.04 26.19 137.73 C 9.30 110.89 10.28 74.40 28.36 48.40 C 41.09 29.63 61.95 16.65 84.41 13.52 M 28.63 73.62 C 22.49 92.96 25.50 114.74 36.17 131.93 C 42.42 142.11 40.82 155.54 33.75 164.88 C 53.84 165.14 73.92 164.94 94.01 164.99 C 115.74 165.02 137.24 154.79 150.78 137.77 C 162.73 123.10 168.25 103.41 165.43 84.67 C 161.36 51.75 131.36 24.32 98.02 24.16 C 67.17 22.57 37.33 44.08 28.63 73.62 Z" />
<path fill="#ff3662" opacity="1.00" d=" M 60.35 76.50 C 72.32 73.37 85.51 77.11 94.58 85.38 C 102.52 92.34 110.60 101.32 122.00 101.45 C 132.00 101.86 140.15 93.61 142.27 84.29 C 143.52 78.55 152.94 80.19 152.31 86.01 C 150.27 96.18 143.82 105.96 134.12 110.22 C 125.18 114.02 114.56 113.50 105.94 109.07 C 95.63 103.89 88.90 93.68 78.56 88.58 C 70.80 84.71 60.62 86.24 54.82 92.83 C 51.27 96.15 50.09 100.95 48.26 105.26 C 45.61 109.34 38.54 106.86 39.01 102.01 C 41.27 90.76 49.18 80.09 60.35 76.50 Z" />
</g>
</svg>
