<?xml version="1.0" encoding="UTF-8" ?>
<!DOCTYPE svg PUBLIC "-//W3C//DTD SVG 1.1//EN" "http://www.w3.org/Graphics/SVG/1.1/DTD/svg11.dtd">
<svg width="192pt" height="192pt" viewBox="0 0 192 192" version="1.1" xmlns="http://www.w3.org/2000/svg">
<g id="#96644cff">
<path fill="#96644c" opacity="1.00" d=" M 21.48 43.94 C 21.64 31.73 32.76 21.11 44.94 21.38 C 78.98 21.35 113.02 21.31 147.06 21.36 C 159.18 21.24 170.08 31.89 170.20 44.01 C 170.31 78.33 170.25 112.66 170.23 146.99 C 170.41 158.99 160.03 169.82 148.04 170.17 C 132.35 170.30 116.64 170.33 100.95 170.16 C 94.78 170.11 94.05 160.21 100.06 159.16 C 115.72 158.72 131.42 159.21 147.10 158.93 C 153.78 158.87 159.46 152.70 159.04 146.04 C 159.07 112.69 159.10 79.34 159.07 45.99 C 159.64 39.16 153.95 32.53 147.00 32.60 C 113.00 32.55 79.00 32.57 45.00 32.57 C 38.34 32.35 32.39 38.37 32.59 45.01 C 32.53 78.67 32.58 112.33 32.58 145.99 C 32.13 152.83 38.07 159.10 44.92 158.97 C 53.60 158.97 62.30 159.16 70.98 158.86 C 72.51 159.05 72.62 157.05 72.64 156.01 C 72.63 133.95 72.67 111.90 72.62 89.84 C 65.54 89.41 58.43 90.16 51.38 89.46 C 46.14 88.06 46.61 79.50 52.02 78.70 C 58.87 78.15 65.76 78.65 72.63 78.46 C 72.84 73.35 72.21 68.18 73.00 63.11 C 74.29 58.38 81.61 57.99 83.39 62.58 C 84.70 67.74 83.79 73.17 84.05 78.44 C 91.12 78.75 98.27 77.93 105.28 78.84 C 110.49 80.26 110.04 88.79 104.68 89.56 C 97.86 90.02 91.01 89.60 84.17 89.72 C 83.84 114.51 84.22 139.31 83.98 164.09 C 84.20 167.39 81.44 170.49 78.06 170.22 C 66.70 170.27 55.32 170.33 43.97 170.18 C 31.89 169.99 21.32 159.14 21.45 147.07 C 21.43 112.69 21.40 78.31 21.48 43.94 Z" />
</g>
</svg>
