<?xml version="1.0" encoding="UTF-8" ?>
<!DOCTYPE svg PUBLIC "-//W3C//DTD SVG 1.1//EN" "http://www.w3.org/Graphics/SVG/1.1/DTD/svg11.dtd">
<svg width="192pt" height="192pt" viewBox="0 0 192 192" version="1.1" xmlns="http://www.w3.org/2000/svg">
<g id="#f6b12cff">
<path fill="#f6b12c" opacity="1.00" d=" M 92.58 32.01 C 91.78 22.78 102.90 15.60 110.99 20.04 C 115.73 23.50 118.74 28.90 123.38 32.45 C 128.39 32.70 133.42 32.48 138.44 32.50 C 142.22 28.59 145.59 24.27 149.57 20.56 C 157.16 15.34 168.92 21.76 168.77 30.93 C 168.74 41.57 169.01 52.22 168.62 62.86 C 167.22 80.80 151.44 95.77 133.60 96.97 C 133.48 113.71 140.81 131.70 156.21 139.80 C 163.61 143.13 169.04 150.74 168.83 158.98 C 168.96 165.77 162.73 171.74 155.98 171.54 C 125.31 171.59 94.63 171.53 63.95 171.55 C 41.88 170.66 22.50 151.22 22.13 129.05 C 22.15 109.42 21.72 89.75 22.38 70.13 C 24.19 47.17 40.80 23.71 64.91 21.11 C 68.73 20.18 75.13 20.57 74.78 25.93 C 74.41 31.45 67.85 30.20 64.02 30.92 C 46.86 33.86 35.38 50.34 32.60 66.64 C 30.92 75.64 31.89 84.83 31.59 93.92 C 44.61 73.15 69.45 61.60 93.74 63.93 C 91.48 53.46 93.03 42.64 92.58 32.01 M 104.32 28.40 C 102.09 28.65 102.27 31.29 102.24 32.95 C 102.30 41.66 102.19 50.37 102.30 59.08 C 102.54 72.66 113.30 85.55 126.99 87.16 C 141.91 89.57 157.21 78.04 158.92 63.03 C 159.57 52.69 159.08 42.30 159.20 31.94 C 159.59 29.80 157.75 27.43 155.49 28.46 C 150.79 32.42 147.47 37.84 142.66 41.65 C 136.60 43.00 130.20 41.87 124.01 42.27 C 114.48 43.58 112.14 30.37 104.32 28.40 M 69.13 76.12 C 45.52 83.32 28.74 108.39 32.09 133.00 C 34.30 148.85 48.92 161.74 64.94 161.84 C 77.50 161.73 90.11 162.19 102.64 161.61 C 106.91 157.57 102.13 150.19 97.33 148.73 C 93.84 148.06 88.34 147.95 88.69 142.96 C 88.91 127.58 74.18 114.81 59.00 116.63 C 53.56 117.75 51.03 109.24 56.32 107.38 C 75.82 103.93 95.87 119.03 98.05 138.71 C 108.06 141.28 115.49 151.39 113.78 161.80 C 128.38 161.74 143.05 162.23 157.61 161.56 C 161.46 158.00 157.54 151.44 153.60 149.42 C 134.54 139.24 123.75 117.66 123.83 96.44 C 111.31 94.11 101.01 84.75 95.95 73.27 C 86.98 73.78 77.74 72.96 69.13 76.12 Z" />
<path fill="#f6b12c" opacity="1.00" d=" M 115.40 52.43 C 118.70 51.11 122.51 54.36 121.70 57.83 C 121.32 61.55 116.09 63.07 113.62 60.38 C 111.13 58.08 112.12 53.41 115.40 52.43 Z" />
<path fill="#f6b12c" opacity="1.00" d=" M 143.30 52.28 C 146.94 51.22 150.61 55.50 148.82 58.90 C 147.64 62.01 142.99 62.77 140.90 60.18 C 138.35 57.72 139.90 52.98 143.30 52.28 Z" />
</g>
</svg>
