<?xml version="1.0" encoding="UTF-8" ?>
<!DOCTYPE svg PUBLIC "-//W3C//DTD SVG 1.1//EN" "http://www.w3.org/Graphics/SVG/1.1/DTD/svg11.dtd">
<svg width="192pt" height="192pt" viewBox="0 0 192 192" version="1.1" xmlns="http://www.w3.org/2000/svg">
<g id="#42e273ff">
<path fill="#42e273" opacity="1.00" d=" M 28.32 19.41 C 30.16 18.87 32.09 18.76 34.00 18.72 C 75.33 18.76 116.67 18.70 157.99 18.75 C 167.42 18.39 175.43 27.84 173.61 37.09 C 168.45 68.71 161.97 100.12 156.64 131.71 C 155.93 136.68 152.78 141.07 148.41 143.48 C 133.61 152.33 118.77 161.11 103.99 169.99 C 98.90 173.28 92.09 173.35 86.94 170.14 C 72.10 161.28 57.27 152.40 42.42 143.56 C 37.85 140.94 34.61 136.27 33.93 131.03 C 28.88 99.82 22.33 68.88 17.41 37.65 C 15.83 29.93 20.68 21.55 28.32 19.41 M 31.46 30.65 C 28.87 31.61 28.40 34.69 29.09 37.06 C 34.06 67.95 40.44 98.60 45.51 129.47 C 45.72 131.84 47.82 133.18 49.66 134.31 C 63.67 142.64 77.66 151.01 91.66 159.38 C 93.51 160.60 95.96 161.45 97.94 159.96 C 112.58 151.25 127.18 142.48 141.84 133.79 C 143.63 132.84 145.13 131.30 145.23 129.16 C 150.53 98.06 156.83 67.13 162.00 36.00 C 162.94 32.94 160.21 29.88 157.08 30.39 C 115.22 30.55 73.30 30.02 31.46 30.65 Z" />
<path fill="#42e273" opacity="1.00" d=" M 91.38 57.49 C 99.64 56.24 108.98 57.03 115.87 62.10 C 121.11 67.38 113.66 76.56 107.37 72.57 C 94.15 65.82 76.82 75.13 74.63 89.65 C 71.90 103.70 84.68 118.40 99.09 116.99 C 104.17 117.23 109.46 112.13 114.14 115.90 C 118.77 119.42 116.23 127.01 110.71 127.84 C 89.90 136.65 63.90 121.32 61.13 99.04 C 57.80 79.93 72.19 60.18 91.38 57.49 Z" />
</g>
</svg>
