<?xml version="1.0" encoding="UTF-8" ?>
<!DOCTYPE svg PUBLIC "-//W3C//DTD SVG 1.1//EN" "http://www.w3.org/Graphics/SVG/1.1/DTD/svg11.dtd">
<svg width="192pt" height="192pt" viewBox="0 0 192 192" version="1.1" xmlns="http://www.w3.org/2000/svg">
<g id="#ff8d1fff">
<path fill="#ff8d1f" opacity="1.00" d=" M 86.39 13.48 C 119.34 9.35 153.79 27.73 168.43 57.57 C 170.80 61.88 166.73 67.07 162.01 66.40 C 117.67 66.46 73.33 66.41 28.99 66.42 C 24.55 67.07 20.29 62.45 22.09 58.12 C 34.04 33.54 59.19 16.19 86.39 13.48 M 36.85 55.08 C 75.88 55.20 114.92 55.14 153.96 55.09 C 145.21 42.26 132.12 32.47 117.35 27.69 C 88.32 17.87 53.79 29.47 36.85 55.08 Z" />
<path fill="#ff8d1f" opacity="1.00" d=" M 67.22 38.25 C 74.21 34.73 79.49 46.30 72.46 49.38 C 65.36 53.47 59.73 41.17 67.22 38.25 Z" />
<path fill="#ff8d1f" opacity="1.00" d=" M 118.21 38.20 C 125.13 34.84 130.33 46.23 123.44 49.34 C 116.29 53.60 110.50 41.05 118.21 38.20 Z" />
<path fill="#ff8d1f" opacity="1.00" d=" M 19.24 75.23 C 68.10 74.21 117.09 75.11 166.00 74.78 C 169.69 74.55 174.56 74.97 175.89 79.14 C 181.99 106.34 172.42 136.08 151.96 154.96 C 124.38 182.78 75.84 185.20 45.41 160.65 C 20.99 142.52 8.51 110.13 14.48 80.33 C 15.04 77.94 16.89 75.93 19.24 75.23 M 24.80 86.14 C 21.98 108.68 30.22 132.53 47.44 147.59 C 71.64 171.00 113.20 172.54 139.18 151.21 C 158.58 136.02 169.53 110.75 165.77 86.18 C 118.78 86.25 71.79 86.13 24.80 86.14 Z" />
</g>
</svg>
