<?xml version="1.0" encoding="UTF-8" ?>
<!DOCTYPE svg PUBLIC "-//W3C//DTD SVG 1.1//EN" "http://www.w3.org/Graphics/SVG/1.1/DTD/svg11.dtd">
<svg width="192pt" height="192pt" viewBox="0 0 192 192" version="1.1" xmlns="http://www.w3.org/2000/svg">
<g id="#749c93ff">
<path fill="#749c93" opacity="1.00" d=" M 84.40 11.51 C 100.89 8.84 118.33 16.49 127.83 30.15 C 137.63 43.83 138.27 63.22 129.64 77.63 C 120.22 94.20 99.31 103.08 80.85 98.30 C 69.28 95.74 59.09 88.11 53.02 77.98 C 44.75 64.52 44.65 46.46 52.88 32.96 C 59.54 21.64 71.42 13.54 84.40 11.51 M 86.44 22.60 C 70.95 24.78 57.68 39.09 58.16 54.99 C 57.52 69.75 68.62 83.79 82.88 87.19 C 94.00 90.22 106.52 86.79 114.66 78.67 C 124.13 69.46 127.13 54.37 121.75 42.29 C 116.06 28.86 100.86 20.40 86.44 22.60 Z" />
<path fill="#749c93" opacity="1.00" d=" M 42.27 100.31 C 59.64 95.61 79.10 108.29 82.03 125.97 C 84.77 139.25 77.96 153.68 66.09 160.17 C 54.64 166.89 39.16 165.49 29.02 156.95 C 18.91 148.76 14.64 134.21 18.81 121.87 C 22.24 111.29 31.46 102.88 42.27 100.31 M 44.36 111.48 C 30.41 114.70 23.67 133.11 32.65 144.42 C 41.57 157.73 64.44 154.88 69.69 139.68 C 76.79 124.40 60.17 106.33 44.36 111.48 Z" />
<path fill="#749c93" opacity="1.00" d=" M 125.32 103.41 C 142.08 99.10 160.92 108.61 167.48 124.59 C 173.51 137.70 170.32 154.04 160.32 164.32 C 150.08 175.15 133.01 178.58 119.35 172.66 C 105.77 167.11 96.26 152.74 97.05 138.01 C 96.98 121.75 109.55 106.83 125.32 103.41 M 127.35 114.47 C 116.02 117.11 107.42 128.37 108.23 140.04 C 108.30 154.88 123.57 166.95 138.04 163.95 C 152.25 162.02 162.53 146.40 158.43 132.60 C 155.26 119.42 140.39 110.66 127.35 114.47 Z" />
</g>
</svg>
