<?xml version="1.0" encoding="UTF-8" ?>
<!DOCTYPE svg PUBLIC "-//W3C//DTD SVG 1.1//EN" "http://www.w3.org/Graphics/SVG/1.1/DTD/svg11.dtd">
<svg width="192pt" height="192pt" viewBox="0 0 192 192" version="1.1" xmlns="http://www.w3.org/2000/svg">
<g id="#ff527dff">
<path fill="#ff527d" opacity="1.00" d=" M 22.21 41.94 C 23.02 30.46 33.51 20.73 45.02 20.76 C 79.34 20.72 113.66 20.71 147.98 20.76 C 160.19 20.73 171.00 31.75 170.82 43.94 C 170.88 77.98 170.88 112.02 170.84 146.05 C 171.16 158.34 160.35 169.46 148.07 169.51 C 113.69 169.58 79.31 169.56 44.94 169.50 C 32.60 169.50 21.77 158.35 22.06 146.03 C 22.10 125.66 21.90 105.28 22.17 84.93 C 22.46 78.58 32.85 78.60 33.09 84.98 C 33.54 105.65 33.05 126.36 33.33 147.03 C 33.58 153.42 39.65 158.73 46.01 158.33 C 79.67 158.33 113.33 158.33 146.99 158.31 C 153.69 158.71 159.80 152.77 159.65 146.08 C 159.72 120.09 159.69 94.10 159.66 68.11 C 152.80 68.12 145.95 68.15 139.09 68.09 C 138.93 75.71 139.38 83.36 138.88 90.97 C 138.40 94.79 133.68 93.66 131.00 93.90 C 128.38 93.79 123.89 94.54 123.51 90.85 C 123.19 83.28 123.51 75.69 123.38 68.12 C 105.10 68.13 86.82 68.10 68.55 68.14 C 68.57 75.09 68.61 82.05 68.58 89.00 C 68.92 96.32 58.48 94.01 54.09 92.97 C 51.48 85.26 53.71 76.29 52.89 68.10 C 44.56 68.07 36.23 68.25 27.91 68.05 C 24.63 68.26 21.82 65.36 22.09 62.10 C 22.06 55.38 21.91 48.65 22.21 41.94 M 33.43 42.12 C 33.01 46.99 33.37 51.89 33.25 56.77 C 75.39 56.84 117.54 56.79 159.69 56.79 C 159.58 51.99 159.94 47.17 159.50 42.38 C 158.78 36.37 153.00 31.72 147.03 31.85 C 113.34 31.80 79.66 31.79 45.97 31.83 C 40.05 31.67 34.23 36.16 33.43 42.12 Z" />
<path fill="#ff527d" opacity="1.00" d=" M 73.37 121.54 C 87.92 121.06 102.51 121.44 117.08 121.34 C 120.75 120.98 124.35 124.20 123.86 127.98 C 123.47 133.63 123.20 139.36 122.11 144.93 C 120.94 148.78 116.41 149.31 113.00 149.15 C 100.35 148.89 87.67 149.53 75.05 148.83 C 68.88 147.64 69.91 140.19 69.26 135.50 C 68.73 130.72 66.97 123.03 73.37 121.54 M 77.44 124.65 C 74.25 125.42 74.72 130.73 78.03 130.82 C 90.04 131.10 102.08 130.98 114.09 130.88 C 117.87 131.14 118.42 124.85 114.63 124.58 C 102.24 124.44 89.81 124.28 77.44 124.65 Z" />
</g>
</svg>
