<?xml version="1.0" encoding="UTF-8" ?>
<!DOCTYPE svg PUBLIC "-//W3C//DTD SVG 1.1//EN" "http://www.w3.org/Graphics/SVG/1.1/DTD/svg11.dtd">
<svg width="192pt" height="192pt" viewBox="0 0 192 192" version="1.1" xmlns="http://www.w3.org/2000/svg">
<g id="#ff603cff">
<path fill="#ff603c" opacity="1.00" d=" M 33.19 26.92 C 32.94 21.91 36.82 17.11 41.95 16.95 C 51.63 16.55 61.34 16.70 71.02 16.86 C 76.16 16.68 80.59 21.05 80.49 26.18 C 80.75 40.61 80.55 55.05 80.67 69.48 C 84.68 69.50 88.70 69.56 92.68 69.09 C 92.98 54.71 92.40 40.30 93.00 25.94 C 93.06 20.68 97.84 16.63 102.98 16.89 C 116.99 16.63 131.02 16.62 145.03 16.89 C 150.43 16.77 154.53 21.77 154.24 26.99 C 154.40 48.66 154.26 70.33 154.72 92.00 C 154.43 105.69 155.25 120.17 148.88 132.76 C 141.95 147.36 127.80 156.42 114.48 164.56 C 109.65 166.97 104.71 170.69 99.06 169.95 C 94.20 168.86 92.56 163.39 92.81 158.99 C 92.82 142.02 92.48 125.01 92.96 108.05 C 93.88 101.83 104.02 102.68 103.96 108.97 C 104.26 125.04 103.99 141.13 104.09 157.22 C 121.04 148.15 140.69 135.79 142.57 114.64 C 144.49 85.84 142.56 56.94 142.91 28.09 C 129.97 28.15 117.04 28.14 104.10 28.10 C 104.00 41.08 104.23 54.07 103.98 67.05 C 104.05 72.14 101.88 77.94 96.65 79.66 C 91.27 81.34 85.48 80.60 79.92 80.70 C 74.04 80.88 69.59 75.43 69.52 69.83 C 69.22 55.93 69.53 42.03 69.37 28.13 C 61.01 28.12 52.66 28.13 44.30 28.12 C 44.39 45.44 44.23 62.75 44.42 80.06 C 44.49 88.08 49.12 96.31 56.82 99.23 C 64.46 101.85 72.66 101.08 80.56 101.61 C 85.85 102.78 85.88 111.20 80.61 112.40 C 72.18 113.11 63.57 112.60 55.33 110.64 C 42.07 106.99 33.19 93.54 33.18 80.06 C 33.11 62.35 32.91 44.63 33.19 26.92 Z" />
<path fill="#ff603c" opacity="1.00" d=" M 33.85 120.00 C 34.17 115.34 40.07 112.19 43.95 115.02 C 53.52 123.06 66.72 119.02 78.06 120.09 C 82.39 119.83 85.30 125.25 82.88 128.78 C 81.06 131.88 77.05 131.37 73.99 131.40 C 64.63 131.08 54.99 132.41 45.94 129.31 C 50.22 142.63 62.82 150.79 74.50 157.13 C 74.90 152.61 73.54 147.66 75.52 143.43 C 78.14 139.13 85.54 141.09 85.65 146.13 C 85.68 152.21 85.97 158.34 85.41 164.39 C 84.88 169.13 79.39 171.91 75.15 169.92 C 64.06 165.15 53.72 158.39 45.31 149.69 C 37.66 141.92 33.18 130.92 33.85 120.00 Z" />
</g>
</svg>
