<?xml version="1.0" encoding="UTF-8" ?>
<!DOCTYPE svg PUBLIC "-//W3C//DTD SVG 1.1//EN" "http://www.w3.org/Graphics/SVG/1.1/DTD/svg11.dtd">
<svg width="192pt" height="192pt" viewBox="0 0 192 192" version="1.1" xmlns="http://www.w3.org/2000/svg">
<g id="#1ab0ffff">
<path fill="#1ab0ff" opacity="1.00" d=" M 71.27 19.33 C 84.70 17.97 98.45 19.12 112.00 18.74 C 116.88 19.18 122.89 17.19 126.65 21.31 C 136.76 30.88 146.97 40.33 157.01 49.96 C 161.35 53.99 158.03 62.20 152.08 62.04 C 126.37 62.18 100.65 62.11 74.93 62.08 C 70.95 62.35 66.97 59.21 67.06 55.07 C 66.99 45.36 67.02 35.64 67.06 25.92 C 66.93 23.12 68.71 20.43 71.27 19.33 M 77.84 29.66 C 77.80 36.75 77.82 43.85 77.83 50.95 C 99.27 51.14 120.72 51.10 142.16 50.92 C 135.34 44.39 128.34 38.05 121.57 31.47 C 120.60 30.55 119.57 29.39 118.08 29.65 C 104.66 29.65 91.25 29.62 77.84 29.66 Z" />
<path fill="#1ab0ff" opacity="1.00" d=" M 52.29 32.41 C 56.72 30.37 62.28 34.10 62.12 38.96 C 62.31 64.64 62.15 90.33 62.20 116.02 C 62.65 120.17 59.33 124.42 55.02 124.33 C 45.34 124.37 35.66 124.40 25.98 124.31 C 22.22 124.28 18.90 120.87 19.08 117.09 C 19.06 101.36 19.03 85.63 19.12 69.90 C 19.05 65.71 22.97 63.27 25.37 60.38 C 34.45 51.20 42.51 40.77 52.29 32.41 M 32.56 68.55 C 31.47 69.86 29.73 71.04 29.88 72.96 C 29.85 86.43 29.85 99.90 29.90 113.37 C 37.01 113.44 44.12 113.41 51.23 113.39 C 51.22 91.85 51.34 70.31 51.18 48.77 C 44.82 55.21 38.89 62.07 32.56 68.55 Z" />
<path fill="#1ab0ff" opacity="1.00" d=" M 134.28 67.32 C 144.19 66.86 154.14 67.24 164.07 67.11 C 167.98 66.74 171.81 69.98 171.80 73.97 C 171.94 89.66 171.86 105.37 171.86 121.07 C 172.12 124.00 170.16 126.30 168.27 128.26 C 160.15 136.80 152.20 145.50 144.13 154.08 C 141.98 156.26 140.00 159.33 136.65 159.57 C 132.41 160.11 128.36 156.30 128.75 152.01 C 128.73 126.34 128.75 100.66 128.75 74.99 C 128.46 71.54 130.81 67.99 134.28 67.32 M 139.64 78.12 C 139.68 99.58 139.59 121.05 139.71 142.51 C 147.02 135.19 153.86 127.42 160.98 119.92 C 160.96 105.98 161.07 92.03 160.92 78.08 C 153.83 78.15 146.74 78.10 139.64 78.12 Z" />
<path fill="#1ab0ff" opacity="1.00" d=" M 37.35 129.45 C 63.55 128.87 89.83 129.36 116.06 129.18 C 120.01 128.74 124.04 131.84 124.07 135.93 C 124.24 145.63 124.13 155.34 124.13 165.05 C 124.41 168.98 120.94 172.67 116.98 172.50 C 101.33 172.58 85.67 172.58 70.02 172.49 C 66.92 172.67 64.76 170.21 62.69 168.31 C 53.20 159.13 43.38 150.31 33.96 141.06 C 30.37 137.49 32.44 130.58 37.35 129.45 M 48.85 140.14 C 56.31 147.33 63.94 154.35 71.45 161.50 C 85.29 161.60 99.14 161.42 112.99 161.58 C 113.48 154.47 113.09 147.32 113.19 140.19 C 91.74 140.15 70.29 140.25 48.85 140.14 Z" />
</g>
</svg>
