<?xml version="1.0" encoding="UTF-8" ?>
<!DOCTYPE svg PUBLIC "-//W3C//DTD SVG 1.1//EN" "http://www.w3.org/Graphics/SVG/1.1/DTD/svg11.dtd">
<svg width="192pt" height="192pt" viewBox="0 0 192 192" version="1.1" xmlns="http://www.w3.org/2000/svg">
<g id="#18b6c5ff">
<path fill="#18b6c5" opacity="1.00" d=" M 20.77 41.02 C 20.90 28.86 31.84 18.18 44.01 18.38 C 78.00 18.34 111.99 18.32 145.98 18.36 C 158.54 18.16 169.60 29.51 169.26 42.03 C 169.30 76.01 169.34 109.99 169.25 143.97 C 169.40 156.38 158.37 167.37 145.98 167.23 C 115.96 167.28 85.94 167.33 55.93 167.19 C 49.30 167.57 48.43 156.81 55.00 156.13 C 85.35 155.79 115.72 156.15 146.08 155.96 C 152.78 155.94 158.56 149.71 158.06 143.02 C 158.06 109.33 158.14 75.65 158.05 41.97 C 158.27 35.45 152.52 29.50 146.00 29.56 C 112.00 29.53 78.00 29.53 44.00 29.54 C 37.43 29.44 31.66 35.44 31.83 41.98 C 31.78 50.10 31.79 58.22 31.85 66.34 C 43.32 60.80 55.31 56.22 67.85 53.79 C 68.22 47.08 72.48 37.58 80.39 38.46 C 85.64 41.71 88.94 47.41 93.36 51.69 C 104.27 52.35 115.41 53.83 125.40 58.53 C 130.43 60.96 133.30 66.10 134.59 71.34 C 140.32 74.22 147.69 76.23 151.03 82.05 C 151.13 89.95 145.97 97.14 141.06 103.03 C 135.54 109.80 126.34 111.56 118.04 111.55 C 100.01 111.19 81.67 115.03 65.89 123.94 C 52.58 131.88 43.57 145.16 36.78 158.77 C 35.47 162.18 30.71 163.58 27.99 160.98 C 23.39 156.20 20.47 149.69 20.71 142.99 C 20.76 109.00 20.66 75.01 20.77 41.02 M 79.49 53.73 C 80.95 57.33 80.65 63.05 75.91 63.81 C 60.43 66.09 45.62 71.64 31.90 79.06 C 31.78 100.59 31.73 122.12 31.94 143.64 C 39.39 132.20 48.21 121.15 60.18 114.19 C 74.44 106.08 90.67 101.70 106.98 100.51 C 113.19 100.03 119.49 100.72 125.64 99.51 C 132.40 98.20 136.05 91.55 138.87 85.91 C 134.58 83.37 129.80 81.85 125.42 79.51 C 121.21 77.20 124.84 70.72 120.40 68.66 C 111.51 64.61 101.61 63.35 91.93 63.07 C 86.06 63.08 83.92 56.46 79.49 53.73 Z" />
<path fill="#18b6c5" opacity="1.00" d=" M 100.87 68.81 C 106.40 71.37 111.88 74.04 117.15 77.10 C 110.58 83.87 103.59 74.59 100.87 68.81 Z" />
</g>
</svg>
