<?xml version="1.0" encoding="UTF-8" ?>
<!DOCTYPE svg PUBLIC "-//W3C//DTD SVG 1.1//EN" "http://www.w3.org/Graphics/SVG/1.1/DTD/svg11.dtd">
<svg width="192pt" height="192pt" viewBox="0 0 192 192" version="1.1" xmlns="http://www.w3.org/2000/svg">
<g id="#ff4e7aff">
<path fill="#ff4e7a" opacity="1.00" d=" M 96.30 13.38 C 105.53 11.05 115.28 17.44 117.48 26.54 C 120.45 38.59 115.22 51.96 105.96 59.95 C 99.73 65.54 88.62 65.68 83.74 58.24 C 73.66 43.99 77.08 17.66 96.30 13.38 M 98.40 24.46 C 87.37 28.09 86.98 45.52 94.30 52.73 C 101.77 52.02 105.17 43.27 106.70 36.87 C 108.50 31.42 105.45 22.62 98.40 24.46 Z" />
<path fill="#ff4e7a" opacity="1.00" d=" M 46.30 23.39 C 52.66 21.73 59.18 24.94 63.23 29.78 C 71.15 38.00 74.00 50.61 70.44 61.44 C 68.25 68.04 60.33 71.88 53.83 69.25 C 42.07 64.74 34.09 52.46 33.80 40.00 C 33.74 32.50 38.62 24.83 46.30 23.39 M 45.15 40.03 C 45.46 48.20 51.02 57.32 59.49 58.81 C 62.61 50.13 59.41 39.34 51.37 34.54 C 47.84 33.14 44.75 36.60 45.15 40.03 Z" />
<path fill="#ff4e7a" opacity="1.00" d=" M 151.37 32.50 C 162.74 28.86 177.14 35.64 179.36 47.85 C 181.00 59.15 173.68 69.50 165.82 76.83 C 154.64 85.47 139.53 92.70 125.31 87.80 C 116.33 84.85 112.54 74.08 115.53 65.55 C 120.49 49.37 134.89 36.24 151.37 32.50 M 153.39 43.60 C 140.72 46.76 129.35 57.22 126.17 70.00 C 124.29 75.56 130.19 78.92 135.00 78.11 C 149.35 76.83 164.22 67.44 168.13 52.99 C 169.87 45.04 159.66 40.97 153.39 43.60 Z" />
<path fill="#ff4e7a" opacity="1.00" d=" M 21.25 62.24 C 29.08 60.10 36.62 67.06 38.86 74.15 C 40.47 77.53 38.96 82.34 34.94 82.92 C 27.48 83.62 19.89 78.79 17.06 71.88 C 15.54 68.22 17.39 63.48 21.25 62.24 Z" />
<path fill="#ff4e7a" opacity="1.00" d=" M 79.37 71.44 C 91.30 69.85 104.50 73.06 112.72 82.29 C 121.43 91.83 123.34 105.52 122.51 117.95 C 120.70 139.09 112.17 160.00 97.24 175.25 C 92.46 179.75 84.94 172.20 89.34 167.42 C 103.15 152.48 111.20 132.34 111.36 111.99 C 111.38 102.17 108.49 90.91 99.30 85.76 C 86.93 78.96 71.72 83.22 60.60 90.58 C 41.17 103.68 28.73 125.00 22.08 147.08 C 20.05 153.00 10.21 150.33 11.43 144.18 C 16.22 126.03 25.48 109.01 38.13 95.13 C 48.95 83.26 63.23 73.75 79.37 71.44 Z" />
<path fill="#ff4e7a" opacity="1.00" d=" M 92.33 102.31 C 100.66 99.80 102.05 115.68 94.02 116.17 C 87.73 115.26 87.13 105.13 92.33 102.31 Z" />
<path fill="#ff4e7a" opacity="1.00" d=" M 128.40 103.27 C 135.71 104.64 143.17 107.46 148.30 113.07 C 144.67 117.95 138.05 118.84 133.32 122.36 C 131.88 123.29 128.73 125.68 128.17 122.84 C 128.62 116.33 128.97 109.79 128.40 103.27 Z" />
</g>
</svg>
