<?xml version="1.0" encoding="UTF-8" ?>
<!DOCTYPE svg PUBLIC "-//W3C//DTD SVG 1.1//EN" "http://www.w3.org/Graphics/SVG/1.1/DTD/svg11.dtd">
<svg width="192pt" height="192pt" viewBox="0 0 192 192" version="1.1" xmlns="http://www.w3.org/2000/svg">
<g id="#606f80ff">
<path fill="#606f80" opacity="1.00" d=" M 112.22 23.82 C 118.02 16.94 129.39 17.31 135.75 23.23 C 142.35 28.72 144.48 40.10 138.23 46.59 C 134.01 35.11 123.61 27.34 112.22 23.82 Z" />
<path fill="#606f80" opacity="1.00" d=" M 52.63 25.66 C 58.36 20.88 67.06 20.31 73.01 25.01 C 62.36 30.34 54.34 39.64 49.86 50.61 C 42.60 43.94 44.53 30.90 52.63 25.66 Z" />
<path fill="#606f80" opacity="1.00" d=" M 70.27 30.23 C 81.05 26.31 91.76 36.27 91.45 47.02 C 91.72 63.83 66.22 71.01 56.11 58.89 C 49.17 47.83 58.68 33.16 70.27 30.23 M 71.78 59.47 C 71.81 58.64 71.87 56.99 71.89 56.16 C 73.08 55.62 74.27 55.09 75.46 54.55 C 75.64 53.08 75.82 51.60 76.01 50.13 C 80.57 49.50 84.03 52.89 84.58 57.25 C 91.26 50.79 84.03 37.69 75.00 39.24 C 65.40 39.96 62.50 56.17 71.78 59.47 Z" />
<path fill="#606f80" opacity="1.00" d=" M 110.28 30.22 C 125.23 25.61 142.01 43.64 134.97 58.01 C 128.70 67.43 114.04 66.29 105.67 60.36 C 94.86 53.06 98.18 34.22 110.28 30.22 M 104.93 56.67 C 106.58 55.66 108.28 54.74 110.01 53.88 C 110.04 52.53 110.08 51.19 110.11 49.85 C 116.30 48.14 120.11 54.66 118.18 59.99 C 127.43 56.82 126.04 41.44 116.63 39.46 C 107.47 37.04 99.97 49.06 104.93 56.67 Z" />
<path fill="#606f80" opacity="1.00" d=" M 26.37 131.02 C 25.29 106.22 40.09 84.99 46.49 61.92 C 45.19 74.20 49.50 87.81 60.44 94.53 C 75.97 104.10 95.57 104.70 112.98 100.94 C 129.11 97.43 144.54 83.29 142.53 65.58 C 147.91 79.09 156.57 91.12 160.83 105.14 C 163.45 113.15 166.87 122.11 163.36 130.39 C 160.92 136.82 154.20 140.37 147.66 141.10 C 149.54 136.25 150.92 130.20 147.24 125.79 C 141.17 118.72 132.12 115.11 123.33 112.77 C 102.59 107.44 80.12 107.58 59.91 115.00 C 53.45 117.43 47.00 121.29 43.59 127.51 C 41.09 132.09 42.40 137.49 44.00 142.13 C 36.22 145.05 26.95 139.37 26.37 131.02 Z" />
<path fill="#606f80" opacity="1.00" d=" M 102.73 160.33 C 117.66 158.80 133.25 155.52 144.64 145.01 C 142.85 150.72 141.45 156.57 139.18 162.12 C 135.78 170.19 124.56 174.58 117.36 168.67 C 113.27 164.59 108.74 160.89 102.73 160.33 Z" />
<path fill="#606f80" opacity="1.00" d=" M 46.46 146.65 C 55.61 156.28 69.21 158.36 81.75 159.84 C 77.89 167.55 69.48 174.05 60.53 170.55 C 52.30 165.58 48.71 155.55 46.46 146.65 Z" />
</g>
</svg>
