<?xml version="1.0" encoding="UTF-8" ?>
<!DOCTYPE svg PUBLIC "-//W3C//DTD SVG 1.1//EN" "http://www.w3.org/Graphics/SVG/1.1/DTD/svg11.dtd">
<svg width="192pt" height="192pt" viewBox="0 0 192 192" version="1.1" xmlns="http://www.w3.org/2000/svg">
<g id="#4ac876ff">
<path fill="#4ac876" opacity="1.00" d=" M 21.67 27.63 C 25.08 18.68 34.39 12.35 44.01 12.72 C 78.00 12.75 111.99 12.68 145.98 12.75 C 158.21 12.71 169.00 23.74 168.85 35.94 C 168.92 69.97 168.89 104.00 168.87 138.03 C 169.34 150.09 159.13 161.25 147.07 161.84 C 128.73 162.36 110.32 162.27 91.98 161.90 C 85.71 161.95 84.82 151.80 91.01 150.86 C 109.32 150.32 127.68 150.88 146.00 150.59 C 152.46 150.46 157.92 144.48 157.65 138.06 C 157.69 104.36 157.67 70.65 157.67 36.94 C 158.14 30.00 151.98 23.65 145.02 23.96 C 111.68 23.74 78.33 23.88 44.99 23.88 C 38.12 23.26 31.19 28.84 31.31 35.93 C 31.25 69.97 31.31 104.02 31.29 138.06 C 30.94 144.51 36.53 150.54 43.00 150.60 C 51.33 150.83 59.67 150.44 68.00 150.74 C 72.52 150.66 74.28 157.13 70.70 159.68 C 65.77 164.16 61.75 169.90 56.03 173.34 C 49.31 174.71 48.37 166.84 49.09 162.08 C 39.31 162.79 28.54 159.60 23.46 150.58 C 20.52 145.96 19.80 140.36 19.97 134.99 C 20.00 104.66 20.00 74.33 20.00 44.00 C 20.04 38.53 19.53 32.82 21.67 27.63 Z" />
<path fill="#4ac876" opacity="1.00" d=" M 74.45 59.53 C 81.92 58.61 87.64 67.14 84.70 73.86 C 82.28 81.45 70.35 82.42 66.53 75.52 C 62.64 69.29 66.71 59.69 74.45 59.53 Z" />
<path fill="#4ac876" opacity="1.00" d=" M 114.37 59.51 C 121.92 59.12 126.98 68.13 123.57 74.62 C 120.41 81.94 108.46 82.05 105.28 74.69 C 101.92 68.20 106.69 59.07 114.37 59.51 Z" />
<path fill="#4ac876" opacity="1.00" d=" M 129.28 91.32 C 134.47 89.01 139.32 95.56 135.90 99.88 C 126.38 108.80 113.88 114.43 100.99 116.25 C 84.13 117.66 66.52 112.50 53.82 101.15 C 50.73 98.51 52.19 92.87 56.08 91.89 C 58.89 90.89 61.31 93.08 63.42 94.60 C 73.10 102.32 85.73 105.69 97.99 105.24 C 109.70 104.39 120.29 98.53 129.28 91.32 Z" />
</g>
</svg>
