<?xml version="1.0" encoding="UTF-8" ?>
<!DOCTYPE svg PUBLIC "-//W3C//DTD SVG 1.1//EN" "http://www.w3.org/Graphics/SVG/1.1/DTD/svg11.dtd">
<svg width="192pt" height="192pt" viewBox="0 0 192 192" version="1.1" xmlns="http://www.w3.org/2000/svg">
<g id="#4bc576ff">
<path fill="#4bc576" opacity="1.00" d=" M 84.02 14.77 C 109.90 10.98 137.40 20.55 155.11 39.84 C 159.64 44.87 151.87 52.71 146.81 48.18 C 138.50 40.20 129.51 32.32 118.38 28.62 C 96.07 22.10 70.28 26.39 51.88 40.87 C 50.52 41.96 48.50 43.31 49.73 45.28 C 54.37 56.92 58.97 68.59 63.82 80.15 C 69.60 69.96 79.89 61.82 91.91 61.22 C 117.85 60.54 143.81 61.05 169.76 60.94 C 179.49 81.31 180.31 105.76 171.75 126.67 C 161.21 153.01 136.21 173.29 107.99 177.16 C 100.64 176.30 101.56 164.62 108.99 164.88 C 131.74 163.06 149.16 145.35 159.04 126.02 C 166.92 110.45 167.50 91.95 162.57 75.39 C 162.19 74.16 161.73 72.39 160.02 72.73 C 147.34 72.65 134.66 72.71 121.98 72.71 C 128.68 81.14 132.38 92.27 129.97 102.98 C 128.35 111.13 123.36 117.97 118.78 124.70 C 106.92 142.26 95.29 159.97 83.27 177.43 C 54.76 173.15 29.26 153.09 18.85 126.15 C 10.60 105.43 11.18 81.12 21.14 61.11 C 24.90 55.42 34.44 61.05 31.22 67.13 C 19.39 92.54 25.01 124.46 44.36 144.62 C 53.38 154.20 65.33 160.61 77.89 164.24 C 85.29 153.26 92.59 142.21 99.96 131.22 C 89.68 132.08 78.66 129.26 71.34 121.67 C 64.91 115.71 61.92 107.27 58.60 99.40 C 50.70 79.73 42.71 60.10 35.01 40.35 C 47.85 26.62 65.35 17.27 84.02 14.77 M 89.33 73.45 C 77.73 76.29 69.65 89.00 72.37 100.70 C 74.61 113.67 89.10 122.65 101.70 118.64 C 115.17 115.30 122.98 98.76 116.72 86.29 C 112.16 76.28 100.00 70.26 89.33 73.45 Z" />
</g>
</svg>
