<?xml version="1.0" encoding="UTF-8" ?>
<!DOCTYPE svg PUBLIC "-//W3C//DTD SVG 1.1//EN" "http://www.w3.org/Graphics/SVG/1.1/DTD/svg11.dtd">
<svg width="192pt" height="192pt" viewBox="0 0 192 192" version="1.1" xmlns="http://www.w3.org/2000/svg">
<g id="#d09f41ff">
<path fill="#d09f41" opacity="1.00" d=" M 83.02 14.91 C 109.38 10.74 137.79 20.39 155.54 40.41 C 159.53 46.43 150.07 52.94 145.73 47.29 C 133.46 34.21 116.45 24.50 98.01 25.69 C 80.82 25.70 63.29 30.86 50.21 42.31 C 48.53 43.44 49.84 45.41 50.28 46.82 C 54.88 57.91 59.11 69.14 63.86 80.16 C 69.53 70.30 79.32 62.28 90.97 61.36 C 117.23 60.44 143.52 61.09 169.79 60.94 C 179.48 81.32 180.33 105.76 171.76 126.67 C 161.21 153.02 136.21 173.32 107.97 177.15 C 102.05 176.59 100.78 167.29 106.55 165.48 C 115.81 163.61 125.49 161.94 133.37 156.31 C 143.45 149.15 151.58 139.38 157.66 128.67 C 166.93 112.15 167.94 91.80 162.05 73.98 C 161.63 72.19 159.32 72.91 158.02 72.69 C 146.04 72.75 134.07 72.68 122.10 72.72 C 131.69 84.54 133.69 102.10 125.05 115.01 C 111.36 135.99 97.38 156.79 83.21 177.44 C 58.77 173.61 36.33 158.51 24.09 136.95 C 10.75 114.23 9.36 84.75 21.14 61.11 C 24.90 55.42 34.44 61.04 31.22 67.12 C 19.37 92.54 25.01 124.46 44.36 144.62 C 53.39 154.19 65.33 160.61 77.89 164.21 C 85.29 153.23 92.60 142.20 99.95 131.19 C 89.69 132.01 78.66 129.24 71.37 121.63 C 65.15 115.87 62.17 107.74 58.90 100.13 C 50.90 80.21 42.79 60.33 35.02 40.32 C 47.64 26.87 64.72 17.58 83.02 14.91 M 89.31 73.37 C 80.86 75.54 74.03 82.74 72.31 91.29 C 69.79 101.97 76.18 113.74 86.31 117.78 C 95.91 122.00 108.03 118.62 114.19 110.17 C 120.28 102.33 120.49 90.48 114.57 82.50 C 109.04 74.73 98.57 70.63 89.31 73.37 Z" />
</g>
</svg>
