<?xml version="1.0" encoding="UTF-8" ?>
<!DOCTYPE svg PUBLIC "-//W3C//DTD SVG 1.1//EN" "http://www.w3.org/Graphics/SVG/1.1/DTD/svg11.dtd">
<svg width="192pt" height="192pt" viewBox="0 0 192 192" version="1.1" xmlns="http://www.w3.org/2000/svg">
<g id="#d64569ff">
<path fill="#d64569" opacity="1.00" d=" M 83.02 14.91 C 109.38 10.75 137.80 20.39 155.54 40.43 C 159.54 46.43 150.07 52.95 145.73 47.29 C 133.66 34.49 117.11 24.79 99.00 25.68 C 81.49 25.56 63.55 30.63 50.22 42.32 C 48.56 43.46 49.83 45.41 50.29 46.82 C 54.88 57.90 59.11 69.12 63.84 80.14 C 69.52 70.28 79.32 62.26 90.97 61.33 C 117.22 60.46 143.51 61.06 169.77 60.96 C 179.50 81.32 180.32 105.77 171.76 126.67 C 161.21 153.02 136.21 173.30 107.98 177.16 C 100.63 176.28 101.56 164.62 108.99 164.87 C 131.22 163.13 148.35 146.08 158.37 127.35 C 167.11 110.85 167.91 90.69 161.71 73.22 C 148.68 72.02 135.21 73.03 122.02 72.72 C 128.61 81.20 132.40 92.27 129.95 102.99 C 128.33 111.13 123.32 117.95 118.78 124.70 C 106.91 142.26 95.30 160.00 83.25 177.43 C 54.75 173.14 29.26 153.08 18.85 126.15 C 10.59 105.43 11.17 81.12 21.14 61.11 C 24.62 55.78 33.81 60.39 31.47 66.38 C 22.71 85.60 22.77 108.71 32.54 127.54 C 41.14 145.87 58.56 158.99 77.89 164.22 C 85.29 153.25 92.59 142.21 99.95 131.21 C 89.68 132.05 78.65 129.25 71.35 121.64 C 65.12 115.88 62.14 107.76 58.90 100.14 C 50.89 80.22 42.79 60.34 35.01 40.34 C 47.62 26.87 64.72 17.59 83.02 14.91 M 89.32 73.41 C 80.89 75.57 74.07 82.77 72.36 91.30 C 69.84 101.96 76.20 113.72 86.32 117.75 C 95.90 121.98 108.00 118.58 114.16 110.16 C 120.57 101.96 120.44 89.35 113.67 81.40 C 108.00 74.36 98.08 70.81 89.32 73.41 Z" />
</g>
</svg>
