<?xml version="1.0" encoding="UTF-8" ?>
<!DOCTYPE svg PUBLIC "-//W3C//DTD SVG 1.1//EN" "http://www.w3.org/Graphics/SVG/1.1/DTD/svg11.dtd">
<svg width="192pt" height="192pt" viewBox="0 0 192 192" version="1.1" xmlns="http://www.w3.org/2000/svg">
<g id="#2b9fdfff">
<path fill="#2b9fdf" opacity="1.00" d=" M 83.99 14.77 C 110.07 10.98 138.03 20.64 155.55 40.44 C 159.51 46.44 150.08 52.92 145.74 47.30 C 133.47 34.20 116.46 24.50 98.00 25.68 C 80.81 25.69 63.28 30.87 50.20 42.31 C 48.54 43.43 49.83 45.39 50.27 46.80 C 54.85 57.92 59.16 69.15 63.84 80.23 C 69.44 70.29 79.32 62.27 90.99 61.34 C 117.23 60.41 143.49 61.16 169.74 60.88 C 179.51 81.26 180.33 105.74 171.77 126.66 C 161.22 153.00 136.23 173.32 107.99 177.14 C 102.05 176.65 100.77 167.28 106.55 165.48 C 116.04 163.59 125.97 161.81 133.96 155.91 C 143.93 148.59 152.05 138.81 158.01 128.00 C 166.98 111.60 167.86 91.54 162.03 73.94 C 161.62 72.18 159.30 72.92 158.02 72.68 C 145.98 72.74 133.94 72.68 121.90 72.71 C 131.84 84.35 133.63 102.12 125.04 115.01 C 111.41 136.00 97.33 156.70 83.29 177.42 C 54.77 173.18 29.28 153.08 18.85 126.15 C 10.60 105.43 11.18 81.12 21.15 61.12 C 24.60 55.76 33.80 60.39 31.46 66.38 C 22.71 85.60 22.76 108.70 32.53 127.53 C 41.12 145.87 58.56 158.96 77.89 164.22 C 85.29 153.25 92.57 142.19 99.97 131.21 C 89.70 132.00 78.67 129.25 71.37 121.63 C 65.15 115.87 62.15 107.75 58.90 100.13 C 50.88 80.23 42.85 60.34 35.01 40.37 C 47.82 26.63 65.33 17.28 83.99 14.77 M 89.31 73.38 C 80.87 75.55 74.05 82.75 72.33 91.29 C 69.80 101.96 76.18 113.74 86.32 117.78 C 96.13 122.12 108.57 118.44 114.60 109.61 C 120.61 101.41 120.30 89.15 113.69 81.38 C 108.01 74.33 98.09 70.79 89.31 73.38 Z" />
</g>
</svg>
