<?xml version="1.0" encoding="UTF-8" ?>
<!DOCTYPE svg PUBLIC "-//W3C//DTD SVG 1.1//EN" "http://www.w3.org/Graphics/SVG/1.1/DTD/svg11.dtd">
<svg width="192pt" height="192pt" viewBox="0 0 192 192" version="1.1" xmlns="http://www.w3.org/2000/svg">
<g id="#ec8a2bff">
<path fill="#ec8a2b" opacity="1.00" d=" M 48.92 31.98 C 48.97 23.63 56.69 16.36 65.02 16.73 C 85.67 16.73 106.33 16.70 126.98 16.74 C 135.18 16.55 142.66 23.71 142.76 31.92 C 142.91 45.59 142.77 59.26 142.83 72.93 C 148.91 73.10 155.01 72.86 161.09 73.05 C 168.68 73.31 175.18 80.37 174.83 87.95 C 174.82 111.66 174.86 135.37 174.82 159.07 C 174.99 166.91 167.87 173.78 160.07 173.55 C 117.36 173.59 74.65 173.57 31.95 173.54 C 23.67 173.87 16.47 166.26 17.00 158.04 C 17.12 134.01 16.80 109.96 17.18 85.94 C 18.00 75.28 30.99 70.09 39.96 74.06 C 44.26 76.78 42.17 84.27 37.03 84.20 C 33.98 84.49 28.31 83.28 28.38 87.96 C 28.26 111.31 28.34 134.67 28.35 158.02 C 27.93 160.73 30.38 162.71 32.98 162.24 C 74.99 162.25 117.01 162.24 159.02 162.22 C 161.61 162.69 163.91 160.64 163.53 158.01 C 163.57 134.98 163.55 111.95 163.55 88.92 C 163.70 87.10 163.00 84.68 160.87 84.46 C 154.86 84.13 148.83 84.35 142.81 84.41 C 141.92 88.13 140.33 91.82 137.29 94.28 C 124.88 104.55 112.43 114.78 99.99 125.02 C 97.81 127.18 94.19 127.32 91.92 125.22 C 79.63 115.13 67.38 104.98 55.09 94.89 C 51.19 91.82 48.74 86.99 48.86 82.00 C 48.91 65.32 48.77 48.65 48.92 31.98 M 60.21 32.96 C 60.12 49.31 60.12 65.68 60.21 82.04 C 60.01 84.15 61.60 85.65 63.09 86.86 C 74.03 95.80 84.89 104.82 95.82 113.78 C 106.62 104.95 117.33 96.02 128.14 87.21 C 129.73 85.87 131.67 84.35 131.46 82.02 C 131.53 65.68 131.53 49.33 131.46 32.99 C 131.62 30.51 129.68 27.91 127.03 28.16 C 106.34 28.09 85.65 28.12 64.96 28.15 C 62.23 27.80 59.94 30.28 60.21 32.96 Z" />
<path fill="#ec8a2b" opacity="1.00" d=" M 81.97 41.99 C 87.31 38.52 94.01 39.48 100.05 39.37 C 104.53 39.46 110.11 40.08 112.48 44.48 C 114.51 48.83 115.06 53.95 113.86 58.61 C 111.04 58.60 108.20 58.77 105.39 58.42 C 103.66 55.61 104.72 51.78 103.30 48.70 C 98.98 47.52 93.82 46.53 89.71 48.78 C 86.95 52.13 87.94 56.96 87.74 61.00 C 88.07 66.68 86.88 72.64 88.91 78.09 C 91.54 81.36 96.42 80.13 100.08 80.08 C 105.34 79.69 104.07 73.40 104.79 69.76 C 107.73 68.77 110.91 69.37 113.95 69.33 C 114.91 74.63 114.76 80.86 111.21 85.20 C 105.91 89.76 98.36 88.30 91.95 88.52 C 86.77 88.61 80.19 86.88 78.99 81.04 C 77.45 73.82 78.60 66.33 78.25 59.00 C 78.39 53.28 77.29 46.29 81.97 41.99 Z" />
</g>
</svg>
