<?xml version="1.0" encoding="UTF-8" ?>
<!DOCTYPE svg PUBLIC "-//W3C//DTD SVG 1.1//EN" "http://www.w3.org/Graphics/SVG/1.1/DTD/svg11.dtd">
<svg width="192pt" height="192pt" viewBox="0 0 192 192" version="1.1" xmlns="http://www.w3.org/2000/svg">
<g id="#ff3661ff">
<path fill="#ff3661" opacity="1.00" d=" M 36.55 25.51 C 76.74 17.76 118.61 17.50 158.64 26.35 C 176.61 31.19 182.98 54.96 174.19 70.09 C 171.08 75.34 165.25 79.00 159.06 78.81 C 151.23 78.69 143.35 79.23 135.55 78.49 C 125.04 75.97 120.38 64.51 118.45 54.94 C 117.05 49.70 124.48 45.93 127.90 50.10 C 131.13 55.79 131.45 63.70 137.19 67.71 C 145.07 68.18 153.02 68.05 160.91 67.72 C 166.70 66.89 167.59 59.76 167.30 55.02 C 167.47 47.29 163.56 38.57 155.37 36.77 C 119.13 29.15 81.46 28.60 45.00 35.07 C 40.07 36.05 34.67 36.39 30.55 39.57 C 21.18 46.60 22.78 65.12 35.31 67.61 C 42.53 68.06 50.02 68.49 57.15 67.24 C 65.26 64.24 57.36 52.01 65.60 49.62 C 78.96 47.94 92.52 47.69 105.96 48.18 C 111.98 48.67 111.97 58.39 105.95 58.93 C 94.83 58.70 83.67 58.98 72.55 59.74 C 72.14 68.91 65.26 77.66 55.85 78.63 C 47.58 78.97 39.28 78.90 31.00 78.66 C 22.52 78.17 15.90 70.89 14.33 62.85 C 10.21 47.11 20.26 28.82 36.55 25.51 Z" />
<path fill="#ff3661" opacity="1.00" d=" M 77.71 72.80 C 79.04 68.50 85.84 68.23 87.53 72.40 C 88.62 75.64 88.10 79.16 88.25 82.53 C 93.42 82.53 98.59 82.53 103.77 82.53 C 103.90 79.16 103.30 75.62 104.41 72.39 C 106.11 68.27 112.78 68.49 114.25 72.66 C 115.05 76.16 114.57 79.79 114.65 83.34 C 135.90 86.56 153.46 103.21 159.51 123.57 C 163.28 135.36 161.91 147.87 162.19 160.04 C 162.46 162.88 161.00 165.36 158.95 167.18 C 117.62 167.16 76.28 167.31 34.96 167.11 C 28.39 167.04 28.39 156.22 34.96 156.15 C 73.71 155.84 112.49 156.17 151.25 155.97 C 151.08 146.23 152.06 136.25 149.24 126.78 C 145.28 113.51 135.73 101.31 122.38 96.63 C 110.72 92.39 98.10 93.78 85.95 93.63 C 70.73 93.49 55.64 101.65 47.87 114.83 C 42.47 123.17 40.81 133.26 40.71 143.04 C 40.60 145.87 41.03 149.45 38.29 151.25 C 35.02 153.86 29.67 151.17 29.68 147.04 C 29.44 137.05 30.74 126.88 34.53 117.58 C 41.62 99.81 58.51 86.50 77.30 83.26 C 77.38 79.78 76.88 76.21 77.71 72.80 Z" />
<path fill="#ff3661" opacity="1.00" d=" M 90.36 104.51 C 103.06 100.38 117.26 110.82 117.99 123.93 C 119.02 135.41 109.47 146.36 98.04 147.25 C 87.11 148.33 76.49 139.78 74.82 129.00 C 72.85 118.43 80.10 107.38 90.36 104.51 M 93.35 113.47 C 83.72 115.05 80.73 128.96 88.10 134.89 C 94.42 140.70 106.26 137.52 108.17 128.94 C 111.08 120.19 102.25 110.81 93.35 113.47 Z" />
</g>
</svg>
