<?xml version="1.0" encoding="UTF-8" ?>
<!DOCTYPE svg PUBLIC "-//W3C//DTD SVG 1.1//EN" "http://www.w3.org/Graphics/SVG/1.1/DTD/svg11.dtd">
<svg width="192pt" height="192pt" viewBox="0 0 192 192" version="1.1" xmlns="http://www.w3.org/2000/svg">
<g id="#ff653bff">
<path fill="#ff653b" opacity="1.00" d=" M 154.75 17.75 C 157.03 15.60 159.32 12.26 162.94 13.02 C 167.39 13.62 169.29 19.86 165.78 22.77 C 153.17 35.51 140.45 48.14 127.77 60.79 C 125.76 63.27 122.07 63.36 119.56 61.62 C 111.09 56.56 99.82 54.74 91.02 59.99 C 85.58 62.92 83.44 69.06 79.31 73.31 C 73.59 79.77 65.46 83.96 56.87 84.82 C 44.97 86.29 34.92 96.17 33.12 108.00 C 28.90 135.95 55.07 163.46 82.99 162.14 C 96.29 161.85 108.46 151.29 110.06 137.98 C 111.02 126.36 118.61 116.28 128.43 110.43 C 138.78 104.20 140.24 89.82 135.45 79.60 C 134.02 76.05 130.15 72.00 133.21 68.21 C 139.21 61.58 145.55 55.25 152.01 49.07 C 156.49 45.13 163.58 51.40 160.31 56.37 C 155.89 61.54 150.65 65.97 146.05 70.99 C 143.96 72.79 146.23 75.31 146.72 77.34 C 152.59 91.76 148.99 110.60 135.43 119.38 C 128.22 123.59 122.01 130.50 121.35 139.16 C 119.44 156.29 105.06 170.72 88.01 172.96 C 52.98 178.12 18.62 145.08 21.46 109.99 C 22.41 95.22 32.19 81.35 46.11 76.07 C 52.68 73.03 60.68 74.21 66.56 69.56 C 73.29 65.19 75.69 56.80 82.28 52.28 C 93.60 43.48 109.76 43.91 122.17 50.14 C 133.21 39.53 143.88 28.54 154.75 17.75 Z" />
<path fill="#ff653b" opacity="1.00" d=" M 81.36 86.52 C 89.55 84.08 98.96 87.05 104.28 93.72 C 109.81 100.27 110.83 110.18 106.67 117.69 C 102.09 126.84 90.50 131.57 80.81 128.29 C 71.09 125.43 64.38 115.09 65.69 105.04 C 66.56 96.45 73.04 88.81 81.36 86.52 M 84.34 97.44 C 78.57 98.95 75.18 105.95 77.61 111.41 C 79.56 116.69 86.14 119.51 91.31 117.24 C 96.75 115.24 99.53 108.33 96.97 103.12 C 94.91 98.39 89.23 96.00 84.34 97.44 Z" />
</g>
</svg>
