<?xml version="1.0" encoding="UTF-8" ?>
<!DOCTYPE svg PUBLIC "-//W3C//DTD SVG 1.1//EN" "http://www.w3.org/Graphics/SVG/1.1/DTD/svg11.dtd">
<svg width="192pt" height="192pt" viewBox="0 0 192 192" version="1.1" xmlns="http://www.w3.org/2000/svg">
<g id="#6c67b3ff">
<path fill="#6c67b3" opacity="1.00" d=" M 114.39 38.51 C 137.42 34.33 159.64 46.83 175.31 62.75 C 178.16 65.49 176.79 70.94 172.90 71.88 C 169.61 73.14 167.05 70.10 164.88 68.14 C 153.51 57.52 139.01 48.79 123.01 48.78 C 106.93 49.05 92.45 58.38 82.42 70.44 C 78.33 75.17 70.51 68.95 73.88 63.82 C 83.74 50.96 98.33 41.37 114.39 38.51 Z" />
<path fill="#6c67b3" opacity="1.00" d=" M 121.79 64.81 C 125.14 63.08 128.23 60.82 131.81 59.54 C 132.32 66.55 132.00 73.58 132.13 80.60 C 135.33 80.65 138.66 80.21 141.78 81.12 C 145.88 82.80 147.04 88.74 143.79 91.79 C 140.68 94.75 136.02 93.42 132.16 93.68 C 132.04 105.47 132.14 117.25 132.09 129.04 C 132.10 131.62 132.29 134.72 134.62 136.34 C 138.87 138.99 143.94 133.95 148.06 136.98 C 152.14 139.53 151.34 146.32 146.81 147.90 C 136.28 153.69 120.29 148.41 118.34 135.72 C 117.45 121.80 118.38 107.81 117.85 93.87 C 113.37 94.41 106.91 93.78 106.54 88.01 C 105.79 81.58 113.06 79.92 118.00 80.78 C 119.13 75.51 115.26 67.39 121.79 64.81 Z" />
<path fill="#6c67b3" opacity="1.00" d=" M 39.35 80.45 C 49.55 78.40 61.54 80.23 68.87 88.13 C 73.09 93.69 65.30 101.66 59.72 97.24 C 51.84 91.41 39.87 91.75 32.91 98.90 C 22.74 108.59 24.95 127.87 37.64 134.36 C 45.05 138.68 53.80 135.67 60.58 131.64 C 66.71 128.33 73.34 137.46 68.37 142.31 C 55.86 154.26 34.54 151.95 22.41 140.61 C 11.16 130.10 9.44 112.23 15.58 98.61 C 19.86 89.07 29.21 82.41 39.35 80.45 Z" />
<path fill="#6c67b3" opacity="1.00" d=" M 87.23 81.18 C 91.58 79.49 96.73 83.36 96.41 88.00 C 96.41 106.33 96.60 124.68 96.32 143.00 C 95.65 150.29 83.97 150.72 82.67 143.55 C 82.09 125.37 82.69 107.14 82.51 88.95 C 82.24 85.68 84.00 82.24 87.23 81.18 Z" />
<path fill="#6c67b3" opacity="1.00" d=" M 164.28 81.34 C 169.19 79.04 174.77 83.77 174.07 88.96 C 174.00 106.95 174.35 124.98 173.90 142.96 C 173.29 150.66 160.73 150.64 160.09 142.98 C 159.84 124.98 160.07 106.96 159.98 88.95 C 159.74 85.83 161.29 82.56 164.28 81.34 Z" />
</g>
</svg>
