<?xml version="1.0" encoding="UTF-8" ?>
<!DOCTYPE svg PUBLIC "-//W3C//DTD SVG 1.1//EN" "http://www.w3.org/Graphics/SVG/1.1/DTD/svg11.dtd">
<svg width="192pt" height="192pt" viewBox="0 0 192 192" version="1.1" xmlns="http://www.w3.org/2000/svg">
<g id="#19afffff">
<path fill="#19afff" opacity="1.00" d=" M 29.09 31.94 C 28.65 21.71 37.80 12.49 48.02 12.71 C 79.00 12.66 109.99 12.65 140.98 12.70 C 151.15 12.53 160.25 21.75 159.83 31.94 C 159.88 69.31 159.89 106.69 159.87 144.06 C 160.26 153.56 152.44 162.34 143.03 163.27 C 139.32 163.51 135.61 163.27 131.90 163.41 C 131.39 167.06 133.29 172.40 128.95 174.31 C 123.67 174.80 118.32 174.55 113.02 174.46 C 107.95 173.29 109.55 167.20 109.29 163.40 C 99.38 163.34 89.46 163.36 79.54 163.39 C 79.27 167.18 80.95 173.09 76.00 174.45 C 70.70 174.54 65.34 174.78 60.06 174.31 C 55.65 172.48 57.35 167.03 56.87 163.33 C 45.26 165.48 30.68 160.27 29.25 147.03 C 28.80 108.68 29.20 70.30 29.09 31.94 M 45.32 24.43 C 42.30 25.52 40.11 28.68 40.32 31.92 C 40.28 69.30 40.29 106.69 40.33 144.08 C 40.05 148.26 43.73 152.20 47.95 152.08 C 78.64 152.18 109.34 152.08 140.04 152.08 C 144.59 152.59 148.87 148.57 148.54 143.99 C 148.53 106.38 148.63 68.77 148.52 31.17 C 148.40 26.38 143.50 23.28 139.02 23.87 C 107.81 24.27 76.42 23.06 45.32 24.43 Z" />
<path fill="#19afff" opacity="1.00" d=" M 53.23 35.21 C 80.07 34.30 107.11 35.00 134.03 34.85 C 140.81 34.92 140.84 45.90 134.07 46.05 C 107.70 46.14 81.32 46.17 54.95 46.04 C 49.09 46.04 47.65 36.97 53.23 35.21 Z" />
<path fill="#19afff" opacity="1.00" d=" M 60.35 120.47 C 70.11 119.44 70.84 135.65 61.00 135.42 C 51.54 136.16 50.87 120.58 60.35 120.47 Z" />
<path fill="#19afff" opacity="1.00" d=" M 127.36 120.47 C 136.77 119.14 138.53 134.64 129.04 135.37 C 119.31 137.12 117.57 120.94 127.36 120.47 Z" />
</g>
</svg>
