<?xml version="1.0" encoding="UTF-8" ?>
<!DOCTYPE svg PUBLIC "-//W3C//DTD SVG 1.1//EN" "http://www.w3.org/Graphics/SVG/1.1/DTD/svg11.dtd">
<svg width="192pt" height="192pt" viewBox="0 0 192 192" version="1.1" xmlns="http://www.w3.org/2000/svg">
<g id="#ff663bff">
<path fill="#ff663b" opacity="1.00" d=" M 20.16 41.94 C 19.94 29.73 30.79 18.68 43.02 18.76 C 77.34 18.72 111.66 18.71 145.98 18.76 C 158.16 18.77 168.91 29.79 168.73 41.95 C 168.78 75.98 168.74 110.02 168.76 144.06 C 169.03 156.30 158.32 167.41 146.07 167.51 C 111.69 167.58 77.31 167.56 42.94 167.51 C 32.19 167.42 22.32 158.97 20.53 148.38 C 16.31 113.84 40.57 79.01 74.01 70.02 C 105.02 60.56 140.68 74.60 157.58 102.10 C 157.52 82.04 157.61 61.98 157.54 41.92 C 157.63 35.34 151.52 29.70 145.03 29.85 C 111.34 29.80 77.66 29.80 43.97 29.83 C 37.70 29.64 31.67 34.75 31.35 41.11 C 31.05 54.08 31.49 67.07 31.16 80.03 C 30.89 85.94 21.41 86.51 20.33 80.75 C 19.87 67.83 20.24 54.87 20.16 41.94 M 76.91 80.93 C 48.64 88.63 28.16 118.11 31.70 147.31 C 33.29 153.62 40.00 157.22 46.24 156.37 C 46.17 150.24 46.97 144.13 48.46 138.19 C 45.84 138.05 42.63 138.52 40.72 136.27 C 37.94 133.50 39.29 128.13 43.11 127.10 C 46.19 126.56 49.35 126.87 52.46 126.73 C 56.99 116.23 63.09 106.28 70.75 97.78 C 75.17 94.05 81.96 100.01 79.04 104.86 C 73.84 111.81 68.57 118.80 64.87 126.71 C 72.84 126.87 80.82 126.78 88.80 126.79 C 88.94 119.54 88.55 112.27 88.98 105.03 C 89.67 99.58 98.19 98.97 99.72 104.22 C 100.71 111.66 99.89 119.26 100.16 126.77 C 108.95 126.81 117.75 126.81 126.54 126.77 C 123.02 118.73 117.61 111.75 111.81 105.25 C 108.41 100.62 114.81 94.14 119.47 97.53 C 128.25 105.51 134.38 116.00 139.07 126.81 C 143.20 126.76 149.59 125.81 150.83 131.12 C 152.17 136.01 147.01 138.91 142.77 138.29 C 144.37 144.27 144.94 150.43 145.85 156.54 C 151.42 155.88 156.68 151.74 157.39 145.97 C 159.14 124.66 148.87 102.97 131.52 90.54 C 116.09 79.14 95.31 75.45 76.91 80.93 M 60.14 138.15 C 58.67 144.09 57.04 150.20 57.73 156.38 C 68.09 156.25 78.45 156.40 88.82 156.30 C 88.79 150.24 88.83 144.18 88.76 138.12 C 79.22 138.15 69.68 138.09 60.14 138.15 M 100.13 138.11 C 100.18 144.17 100.15 150.23 100.16 156.30 C 111.52 156.34 122.89 156.34 134.26 156.29 C 133.77 150.14 132.71 144.04 130.93 138.13 C 120.66 138.11 110.40 138.15 100.13 138.11 Z" />
</g>
</svg>
