<?xml version="1.0" encoding="UTF-8" ?>
<!DOCTYPE svg PUBLIC "-//W3C//DTD SVG 1.1//EN" "http://www.w3.org/Graphics/SVG/1.1/DTD/svg11.dtd">
<svg width="192pt" height="192pt" viewBox="0 0 192 192" version="1.1" xmlns="http://www.w3.org/2000/svg">
<g id="#ff3660ff">
<path fill="#ff3660" opacity="1.00" d=" M 84.35 31.43 C 104.64 28.44 125.97 34.24 142.00 47.01 C 160.00 61.03 171.23 83.20 172.04 105.99 C 172.16 113.31 172.38 120.65 171.96 127.96 C 171.17 133.62 161.96 133.40 161.61 127.61 C 161.19 114.09 162.72 100.10 157.87 87.13 C 149.13 60.01 121.69 39.93 92.98 41.36 C 61.63 41.74 33.76 67.58 29.44 98.36 C 27.73 108.28 29.17 118.39 28.36 128.36 C 27.22 133.57 18.87 133.22 18.15 127.96 C 17.88 119.03 17.78 110.05 18.40 101.14 C 21.36 66.56 49.72 35.86 84.35 31.43 Z" />
<path fill="#ff3660" opacity="1.00" d=" M 49.77 114.04 C 56.04 107.51 62.21 100.75 69.09 94.90 C 71.96 96.09 74.02 98.79 75.89 101.20 C 74.84 104.85 71.01 106.84 68.69 109.69 C 64.45 113.42 61.19 118.40 56.20 121.18 C 53.95 118.90 51.44 116.83 49.77 114.04 Z" />
<path fill="#ff3660" opacity="1.00" d=" M 38.21 107.49 C 41.95 107.09 45.96 109.99 45.83 113.96 C 45.89 123.94 46.02 133.95 45.77 143.93 C 45.53 151.50 32.41 151.55 32.00 144.03 C 31.63 134.35 31.95 124.64 31.87 114.95 C 31.49 111.23 34.34 107.50 38.21 107.49 Z" />
<path fill="#ff3660" opacity="1.00" d=" M 147.42 108.38 C 151.60 105.84 158.32 108.69 158.15 113.94 C 158.32 123.97 158.38 134.02 158.06 144.05 C 157.53 151.05 145.80 151.69 144.36 144.88 C 143.85 135.94 144.35 126.96 144.09 118.00 C 144.03 114.59 143.83 110.18 147.42 108.38 Z" />
<path fill="#ff3660" opacity="1.00" d=" M 58.35 122.47 C 67.07 121.99 75.90 122.05 84.63 122.43 C 87.01 124.99 85.49 129.21 85.47 132.43 C 77.33 133.07 69.16 132.53 61.00 132.70 C 55.75 133.17 56.99 125.48 58.35 122.47 Z" />
<path fill="#ff3660" opacity="1.00" d=" M 49.79 140.87 C 51.41 137.80 54.09 135.48 56.91 133.54 C 63.27 140.00 70.23 146.02 75.92 153.06 C 74.51 155.76 71.69 159.78 68.46 159.53 C 62.00 153.57 55.92 147.17 49.79 140.87 Z" />
</g>
</svg>
