<?xml version="1.0" encoding="UTF-8" ?>
<!DOCTYPE svg PUBLIC "-//W3C//DTD SVG 1.1//EN" "http://www.w3.org/Graphics/SVG/1.1/DTD/svg11.dtd">
<svg width="192pt" height="192pt" viewBox="0 0 192 192" version="1.1" xmlns="http://www.w3.org/2000/svg">
<g id="#c9496aff">
<path fill="#c9496a" opacity="1.00" d=" M 132.94 45.80 C 134.98 45.81 137.02 45.82 139.06 45.89 C 140.20 52.18 139.43 58.62 139.62 64.97 C 137.52 64.79 134.37 66.19 133.13 63.85 C 132.56 57.86 133.00 51.81 132.94 45.80 Z" />
<path fill="#c9496a" opacity="1.00" d=" M 148.91 65.91 C 154.22 60.39 159.69 55.02 165.11 49.60 C 166.70 51.15 169.49 52.24 169.65 54.73 C 163.95 60.78 157.97 66.60 152.01 72.40 C 150.58 70.61 146.20 68.36 148.91 65.91 Z" />
<path fill="#c9496a" opacity="1.00" d=" M 59.95 63.36 C 62.30 63.38 64.64 63.38 66.99 63.39 C 67.54 76.35 67.20 89.36 67.20 102.34 C 64.70 102.45 62.19 102.45 59.70 102.28 C 59.80 89.31 59.46 76.32 59.95 63.36 Z" />
<path fill="#c9496a" opacity="1.00" d=" M 19.06 77.12 C 21.68 65.69 36.39 59.89 46.41 65.50 C 50.92 68.20 54.88 72.36 55.95 77.66 C 52.47 77.84 48.19 78.38 45.91 75.08 C 40.43 67.43 26.63 71.59 26.14 80.98 C 24.49 88.69 32.14 96.31 39.82 94.48 C 43.60 93.98 45.95 90.83 48.38 88.26 C 50.83 87.49 53.49 88.03 56.03 87.94 C 53.84 96.69 45.04 103.23 35.98 102.37 C 23.98 101.97 15.47 88.25 19.06 77.12 Z" />
<path fill="#c9496a" opacity="1.00" d=" M 71.77 81.23 C 72.32 69.18 91.04 67.45 96.50 76.38 C 97.90 84.91 96.87 93.71 97.15 102.35 C 94.80 102.39 92.44 102.36 90.09 102.34 C 89.79 101.83 89.19 100.80 88.90 100.28 C 85.13 101.83 80.92 103.38 76.83 102.35 C 69.81 99.83 69.53 88.27 76.25 85.23 C 80.17 83.08 85.31 84.28 88.94 81.73 C 90.28 75.96 79.65 76.34 79.01 81.59 C 76.59 81.59 74.18 81.47 71.77 81.23 M 79.55 95.45 C 84.15 99.90 91.13 93.50 89.17 87.96 C 85.05 88.38 76.80 89.38 79.55 95.45 Z" />
<path fill="#c9496a" opacity="1.00" d=" M 109.29 75.75 C 111.84 72.99 115.31 71.40 119.02 70.92 C 119.19 73.37 119.37 75.83 119.52 78.28 C 116.16 79.20 111.56 79.24 110.24 83.19 C 108.64 89.43 109.84 96.00 109.38 102.37 C 106.90 102.48 104.42 102.50 101.95 102.25 C 101.99 92.33 101.96 82.40 102.03 72.48 C 104.32 72.40 106.62 72.48 108.91 72.75 C 109.00 73.50 109.19 75.00 109.29 75.75 Z" />
<path fill="#c9496a" opacity="1.00" d=" M 132.27 71.29 C 140.59 69.44 149.65 75.82 150.69 84.31 C 152.48 93.69 143.85 103.28 134.38 102.64 C 126.29 101.94 118.98 94.30 119.83 85.97 C 119.77 78.89 125.68 72.96 132.27 71.29 M 132.27 79.25 C 122.63 82.79 128.86 98.68 138.35 94.30 C 148.16 90.88 141.93 74.80 132.27 79.25 Z" />
<path fill="#c9496a" opacity="1.00" d=" M 155.79 79.85 C 162.20 79.67 168.62 79.58 175.03 79.80 C 174.74 81.83 175.90 84.84 173.92 86.20 C 167.70 86.68 161.38 86.68 155.16 86.13 C 155.16 84.02 155.32 81.91 155.79 79.85 Z" />
<path fill="#c9496a" opacity="1.00" d=" M 90.45 107.50 C 94.66 104.99 98.73 111.05 94.95 114.07 C 90.76 116.98 86.14 110.23 90.45 107.50 Z" />
<path fill="#c9496a" opacity="1.00" d=" M 115.94 108.73 C 118.00 108.37 122.10 107.81 121.63 111.11 C 121.70 121.68 121.71 132.26 121.66 142.83 C 120.06 142.98 118.46 143.14 116.87 143.29 C 116.34 142.62 115.80 141.97 115.25 141.33 C 111.21 144.47 104.19 144.14 101.98 139.00 C 100.15 133.60 100.05 127.40 102.02 122.03 C 104.44 116.83 111.27 116.48 115.53 119.58 C 115.77 116.00 114.92 112.19 115.94 108.73 M 110.33 123.37 C 104.21 125.21 105.74 141.14 113.79 136.98 C 116.52 133.24 117.12 122.57 110.33 123.37 Z" />
<path fill="#c9496a" opacity="1.00" d=" M 63.54 118.07 C 72.67 115.55 71.45 127.39 75.03 131.75 C 77.73 128.41 78.03 122.46 80.17 118.22 C 82.16 118.19 84.15 118.19 86.15 118.20 C 84.02 126.62 80.42 134.58 77.61 142.79 C 75.89 142.79 74.17 142.78 72.46 142.76 C 69.38 134.57 66.46 126.32 63.54 118.07 Z" />
<path fill="#c9496a" opacity="1.00" d=" M 89.53 118.15 C 91.54 118.17 93.55 118.23 95.56 118.35 C 95.78 126.52 95.64 134.70 95.68 142.88 C 93.62 143.24 91.57 142.98 89.57 142.47 C 89.41 134.36 89.47 126.26 89.53 118.15 Z" />
<path fill="#c9496a" opacity="1.00" d=" M 130.20 140.82 C 123.58 133.88 125.79 118.04 136.99 117.59 C 144.90 116.76 149.95 125.27 148.26 132.34 C 143.15 132.53 138.03 132.46 132.91 132.47 C 132.66 138.75 140.30 139.63 144.01 135.86 C 145.27 137.04 146.52 138.23 147.78 139.42 C 143.34 144.14 135.29 144.87 130.20 140.82 M 132.86 128.05 C 136.08 128.16 139.29 128.17 142.51 128.12 C 142.67 121.44 132.36 121.15 132.86 128.05 Z" />
<path fill="#c9496a" opacity="1.00" d=" M 158.36 118.48 C 163.88 115.91 171.57 118.70 172.98 124.93 C 174.06 130.46 174.23 137.54 169.40 141.42 C 163.49 145.97 153.38 142.50 152.38 134.87 C 151.92 129.11 151.94 120.98 158.36 118.48 M 162.30 123.34 C 157.47 123.95 158.44 130.47 158.75 133.99 C 158.85 138.37 165.93 139.05 166.77 134.76 C 167.80 130.88 168.17 122.87 162.30 123.34 Z" />
</g>
</svg>
