<?xml version="1.0" encoding="UTF-8" ?>
<!DOCTYPE svg PUBLIC "-//W3C//DTD SVG 1.1//EN" "http://www.w3.org/Graphics/SVG/1.1/DTD/svg11.dtd">
<svg width="192pt" height="192pt" viewBox="0 0 192 192" version="1.1" xmlns="http://www.w3.org/2000/svg">
<g id="#acad95ff">
<path fill="#acad95" opacity="1.00" d=" M 131.22 26.23 C 135.46 20.76 143.73 16.50 150.16 20.82 C 156.26 25.65 154.64 34.95 150.65 40.64 C 145.72 47.84 136.29 53.26 137.09 63.18 C 146.19 63.46 155.37 62.60 164.43 63.55 C 172.60 65.63 175.29 76.28 169.24 82.12 C 167.64 79.82 166.00 76.78 162.83 76.63 C 128.53 76.09 94.19 77.02 59.89 76.12 C 64.11 71.36 68.61 66.36 74.37 63.55 C 86.51 62.94 98.70 63.88 110.84 62.96 C 119.63 51.86 122.56 37.39 131.22 26.23 Z" />
<path fill="#acad95" opacity="1.00" d=" M 52.21 87.22 C 53.49 85.98 55.33 86.12 56.97 86.12 C 85.16 86.26 113.35 86.19 141.53 86.16 C 133.27 105.65 133.00 128.95 141.77 148.29 C 140.72 127.30 142.12 105.70 150.24 86.09 C 154.16 85.64 158.26 86.40 161.17 89.24 C 150.12 110.80 149.80 141.67 170.22 157.82 C 173.25 159.98 170.59 165.38 167.03 164.24 C 163.76 162.91 161.72 159.63 159.02 157.43 C 159.24 162.31 161.04 170.72 154.01 171.43 C 109.03 171.49 64.04 171.47 19.05 171.35 C 21.07 151.23 25.22 131.12 33.54 112.60 C 37.90 102.99 43.70 93.68 52.21 87.22 M 53.13 104.03 C 41.36 119.98 36.91 139.77 33.30 158.89 C 66.95 158.34 100.61 159.04 134.27 158.49 C 132.22 155.92 129.75 153.55 128.61 150.40 C 122.51 134.10 121.43 116.25 124.05 99.13 C 102.68 99.12 81.30 99.13 59.92 99.12 C 56.73 98.77 54.98 101.99 53.13 104.03 Z" />
</g>
</svg>
