<?xml version="1.0" encoding="UTF-8" ?>
<!DOCTYPE svg PUBLIC "-//W3C//DTD SVG 1.1//EN" "http://www.w3.org/Graphics/SVG/1.1/DTD/svg11.dtd">
<svg width="192pt" height="192pt" viewBox="0 0 192 192" version="1.1" xmlns="http://www.w3.org/2000/svg">
<g id="#e38c3cff">
<path fill="#e38c3c" opacity="1.00" d=" M 84.36 14.46 C 101.40 12.25 119.40 15.07 134.40 23.59 C 139.62 27.38 133.80 36.10 128.25 32.85 C 101.45 18.77 66.01 24.06 44.95 45.96 C 21.36 68.78 17.66 108.54 36.70 135.30 C 53.75 161.14 88.62 172.79 117.85 162.71 C 138.28 156.08 155.23 139.64 162.37 119.37 C 169.29 100.54 167.39 78.87 157.71 61.35 C 154.14 55.78 163.13 49.69 166.93 55.05 C 180.75 78.10 181.38 108.21 169.27 132.12 C 159.52 151.74 141.58 167.07 120.68 173.66 C 91.11 183.42 56.47 174.57 35.38 151.61 C 12.79 128.27 6.63 90.96 20.61 61.62 C 32.03 36.43 56.91 17.99 84.36 14.46 Z" />
<path fill="#e38c3c" opacity="1.00" d=" M 148.38 36.48 C 151.85 35.40 155.75 38.35 155.51 42.01 C 155.43 45.29 152.28 47.12 150.21 49.21 C 133.88 64.53 117.40 79.72 101.17 95.14 C 108.33 104.45 117.97 112.17 125.42 121.42 C 128.24 126.47 121.05 132.23 116.90 128.06 C 107.40 118.57 98.11 108.86 88.79 99.19 C 86.53 97.37 86.35 93.53 88.69 91.72 C 107.06 74.41 125.49 57.16 143.87 39.86 C 145.27 38.63 146.54 37.04 148.38 36.48 Z" />
</g>
</svg>
