<?xml version="1.0" encoding="UTF-8" ?>
<!DOCTYPE svg PUBLIC "-//W3C//DTD SVG 1.1//EN" "http://www.w3.org/Graphics/SVG/1.1/DTD/svg11.dtd">
<svg width="192pt" height="192pt" viewBox="0 0 192 192" version="1.1" xmlns="http://www.w3.org/2000/svg">
<g id="#768392ff">
<path fill="#768392" opacity="1.00" d=" M 84.36 14.44 C 101.39 12.26 119.41 15.03 134.40 23.59 C 139.98 27.73 133.13 36.61 127.54 32.57 C 98.51 17.44 59.73 25.75 39.81 51.82 C 18.52 77.45 19.69 118.19 42.41 142.55 C 64.22 167.95 104.61 173.76 132.79 155.76 C 160.30 139.48 173.63 103.32 162.85 73.14 C 161.50 68.17 158.37 63.90 156.97 58.98 C 156.45 53.87 163.88 50.71 166.92 55.05 C 179.46 75.88 181.16 102.61 172.37 125.18 C 160.97 155.42 130.32 177.04 97.99 177.54 C 68.35 178.80 38.92 162.44 24.21 136.72 C 12.37 116.65 9.84 91.42 17.47 69.40 C 27.09 40.43 54.07 18.26 84.36 14.44 Z" />
<path fill="#768392" opacity="1.00" d=" M 146.52 37.56 C 151.14 33.25 158.67 40.57 154.23 45.24 C 136.61 62.07 118.67 78.61 100.84 95.24 C 108.58 104.09 117.32 112.06 125.05 120.91 C 128.66 125.83 121.29 132.52 116.92 128.02 C 107.38 118.58 98.14 108.82 88.82 99.16 C 86.35 97.11 86.61 93.06 89.24 91.26 C 108.34 73.37 127.32 55.34 146.52 37.56 Z" />
</g>
</svg>
