<?xml version="1.0" encoding="UTF-8" ?>
<!DOCTYPE svg PUBLIC "-//W3C//DTD SVG 1.1//EN" "http://www.w3.org/Graphics/SVG/1.1/DTD/svg11.dtd">
<svg width="192pt" height="192pt" viewBox="0 0 192 192" version="1.1" xmlns="http://www.w3.org/2000/svg">
<g id="#9f9084ff">
<path fill="#9f9084" opacity="1.00" d=" M 84.36 14.47 C 101.40 12.25 119.39 15.09 134.40 23.60 C 139.62 27.38 133.79 36.09 128.26 32.85 C 101.46 18.77 66.01 24.06 44.96 45.96 C 21.36 68.79 17.66 108.54 36.68 135.30 C 53.74 161.14 88.60 172.82 117.84 162.74 C 138.53 156.04 155.65 139.26 162.65 118.65 C 169.28 99.98 167.29 78.65 157.72 61.34 C 154.18 55.79 163.13 49.73 166.92 55.06 C 182.95 81.73 181.06 117.71 162.80 142.84 C 145.41 167.86 113.39 181.50 83.29 176.65 C 51.97 172.40 24.50 148.35 16.22 117.84 C 10.09 96.51 13.24 72.74 24.77 53.77 C 37.37 32.58 59.89 17.65 84.36 14.47 Z" />
<path fill="#9f9084" opacity="1.00" d=" M 146.47 37.45 C 151.23 33.09 158.74 40.55 154.33 45.33 C 136.68 62.09 118.81 78.64 100.99 95.23 C 108.67 104.09 117.41 112.01 125.13 120.82 C 128.96 125.79 121.31 132.55 116.85 128.13 C 107.37 118.62 98.08 108.89 88.73 99.25 C 86.40 97.36 86.18 93.56 88.63 91.67 C 107.92 73.61 127.08 55.40 146.47 37.45 Z" />
</g>
</svg>
