<?xml version="1.0" encoding="UTF-8" ?>
<!DOCTYPE svg PUBLIC "-//W3C//DTD SVG 1.1//EN" "http://www.w3.org/Graphics/SVG/1.1/DTD/svg11.dtd">
<svg width="192pt" height="192pt" viewBox="0 0 192 192" version="1.1" xmlns="http://www.w3.org/2000/svg">
<g id="#f14590ff">
<path fill="#f14590" opacity="1.00" d=" M 84.40 14.48 C 101.22 12.24 118.85 15.12 133.82 23.20 C 140.53 27.25 132.78 37.17 126.88 32.24 C 102.47 19.97 71.04 23.50 50.15 41.18 C 31.75 56.07 21.88 80.61 24.92 104.10 C 28.20 135.40 54.88 162.16 86.13 165.62 C 115.69 170.06 146.69 153.40 159.41 126.39 C 169.49 106.12 168.68 81.11 157.72 61.35 C 154.12 55.80 163.12 49.66 166.92 55.05 C 183.15 81.92 181.05 118.26 162.42 143.43 C 144.49 168.78 111.48 182.10 80.96 176.29 C 49.74 171.10 22.93 146.23 15.60 115.42 C 10.36 94.73 13.71 72.04 24.80 53.79 C 37.39 32.59 59.93 17.67 84.40 14.48 Z" />
<path fill="#f14590" opacity="1.00" d=" M 146.50 37.48 C 151.19 33.16 158.70 40.53 154.29 45.26 C 136.65 62.08 118.73 78.65 100.88 95.25 C 108.67 104.04 117.35 112.01 125.08 120.85 C 128.82 125.77 121.30 132.53 116.90 128.07 C 107.24 118.42 97.75 108.58 88.32 98.70 C 85.97 96.57 86.77 92.92 89.16 91.19 C 108.32 73.34 127.26 55.24 146.50 37.48 Z" />
</g>
</svg>
