<?xml version="1.0" encoding="UTF-8" ?>
<!DOCTYPE svg PUBLIC "-//W3C//DTD SVG 1.1//EN" "http://www.w3.org/Graphics/SVG/1.1/DTD/svg11.dtd">
<svg width="192pt" height="192pt" viewBox="0 0 192 192" version="1.1" xmlns="http://www.w3.org/2000/svg">
<g id="#e64484ff">
<path fill="#e64484" opacity="1.00" d=" M 84.38 14.46 C 101.41 12.26 119.39 15.08 134.39 23.59 C 139.61 27.36 133.82 36.07 128.28 32.85 C 101.47 18.77 66.02 24.04 44.95 45.95 C 21.36 68.77 17.66 108.53 36.69 135.29 C 53.88 161.37 89.20 172.99 118.59 162.48 C 139.21 155.55 156.15 138.58 162.91 117.89 C 169.24 99.40 167.14 78.42 157.73 61.34 C 154.14 55.81 163.13 49.70 166.91 55.06 C 178.22 73.91 180.71 97.60 174.55 118.62 C 167.46 143.37 147.86 164.00 123.64 172.63 C 100.44 181.12 73.48 178.49 52.45 165.49 C 24.94 149.13 8.95 115.66 13.99 83.98 C 18.61 48.54 48.96 18.76 84.38 14.46 Z" />
<path fill="#e64484" opacity="1.00" d=" M 146.48 37.46 C 151.21 33.12 158.72 40.53 154.31 45.30 C 136.66 62.09 118.75 78.66 100.91 95.27 C 108.71 104.03 117.36 112.03 125.10 120.83 C 128.92 125.76 121.29 132.54 116.88 128.10 C 107.38 118.61 98.10 108.88 88.74 99.24 C 86.41 97.34 86.19 93.58 88.64 91.68 C 107.93 73.62 127.09 55.41 146.48 37.46 Z" />
</g>
</svg>
