<?xml version="1.0" encoding="UTF-8" ?>
<!DOCTYPE svg PUBLIC "-//W3C//DTD SVG 1.1//EN" "http://www.w3.org/Graphics/SVG/1.1/DTD/svg11.dtd">
<svg width="192pt" height="192pt" viewBox="0 0 192 192" version="1.1" xmlns="http://www.w3.org/2000/svg">
<g id="#6ecf5fff">
<path fill="#6ecf5f" opacity="1.00" d=" M 84.37 14.46 C 101.40 12.26 119.39 15.09 134.39 23.60 C 139.62 27.37 133.81 36.10 128.26 32.85 C 101.46 18.78 66.01 24.05 44.96 45.96 C 21.36 68.78 17.66 108.53 36.68 135.29 C 53.74 161.14 88.60 172.80 117.84 162.72 C 138.02 156.18 154.82 140.06 162.11 120.12 C 169.22 101.35 167.65 79.59 158.01 61.99 C 155.27 58.32 158.45 52.62 162.98 53.00 C 166.64 53.10 168.09 56.82 169.47 59.59 C 179.71 80.03 180.57 104.84 172.02 126.02 C 160.85 154.57 132.53 175.28 101.95 177.33 C 70.32 180.18 38.12 162.81 23.17 134.82 C 7.76 107.48 10.43 71.37 29.64 46.56 C 42.69 29.18 62.80 17.31 84.37 14.46 Z" />
<path fill="#6ecf5f" opacity="1.00" d=" M 145.93 37.91 C 148.90 34.60 155.03 36.57 155.49 41.01 C 156.15 44.48 152.99 46.72 150.80 48.79 C 134.12 64.19 117.66 79.83 100.97 95.22 C 108.62 104.11 117.41 111.99 125.11 120.83 C 128.94 125.77 121.30 132.55 116.87 128.11 C 107.38 118.61 98.10 108.89 88.75 99.23 C 86.43 97.34 86.21 93.58 88.66 91.69 C 107.74 73.76 126.80 55.80 145.93 37.91 Z" />
</g>
</svg>
