<?xml version="1.0" encoding="UTF-8" ?>
<!DOCTYPE svg PUBLIC "-//W3C//DTD SVG 1.1//EN" "http://www.w3.org/Graphics/SVG/1.1/DTD/svg11.dtd">
<svg width="192pt" height="192pt" viewBox="0 0 192 192" version="1.1" xmlns="http://www.w3.org/2000/svg">
<g id="#ae6c42ff">
<path fill="#ae6c42" opacity="1.00" d=" M 84.40 14.50 C 101.00 12.25 118.32 15.12 133.20 22.86 C 140.78 26.36 133.16 37.49 126.82 32.22 C 102.43 20.00 71.06 23.55 50.17 41.18 C 31.78 56.08 21.89 80.60 24.91 104.09 C 28.18 135.13 54.41 161.78 85.38 165.55 C 115.41 170.44 147.13 153.36 159.77 125.73 C 169.37 105.80 168.68 81.37 158.03 61.99 C 155.35 58.32 158.43 52.68 162.95 53.04 C 166.61 53.07 168.07 56.85 169.46 59.59 C 179.69 80.04 180.56 104.84 172.02 126.03 C 160.84 154.55 132.54 175.29 101.96 177.32 C 72.07 179.98 41.57 164.70 25.78 139.21 C 13.00 119.24 9.73 93.56 17.01 71.01 C 26.19 41.31 53.55 18.37 84.40 14.50 Z" />
<path fill="#ae6c42" opacity="1.00" d=" M 146.46 37.40 C 151.60 32.70 159.21 41.40 153.90 45.92 C 136.33 62.43 118.69 78.89 101.03 95.31 C 108.77 103.79 116.99 111.81 124.77 120.25 C 127.85 123.40 125.39 129.31 121.03 129.50 C 117.87 129.94 115.73 127.22 113.74 125.24 C 105.38 116.28 96.62 107.69 88.22 98.76 C 85.94 96.61 86.66 92.85 89.09 91.12 C 108.26 73.27 127.20 55.15 146.46 37.40 Z" />
</g>
</svg>
