<?xml version="1.0" encoding="UTF-8" ?>
<!DOCTYPE svg PUBLIC "-//W3C//DTD SVG 1.1//EN" "http://www.w3.org/Graphics/SVG/1.1/DTD/svg11.dtd">
<svg width="192pt" height="192pt" viewBox="0 0 192 192" version="1.1" xmlns="http://www.w3.org/2000/svg">
<g id="#19b0ffff">
<path fill="#19b0ff" opacity="1.00" d=" M 22.10 43.93 C 21.91 31.71 32.78 20.69 45.01 20.77 C 74.35 20.71 103.70 20.75 133.04 20.74 C 136.60 20.24 139.82 23.41 139.40 26.97 C 139.44 38.99 139.43 51.01 139.41 63.04 C 139.78 66.03 137.03 68.77 134.04 68.41 C 109.35 68.42 84.65 68.43 59.96 68.39 C 56.97 68.72 54.27 66.02 54.61 63.03 C 54.52 52.62 54.66 42.20 54.55 31.79 C 46.39 30.78 34.78 32.05 33.41 42.14 C 33.02 76.43 33.38 110.76 33.24 145.06 C 32.72 151.04 37.08 157.01 43.02 158.07 C 47.12 158.62 51.26 158.24 55.38 158.32 C 55.48 147.88 55.28 137.43 55.47 126.99 C 55.35 124.11 58.10 121.82 60.89 122.07 C 84.29 122.00 107.69 122.04 131.08 122.01 C 134.06 121.63 137.37 123.70 137.24 126.95 C 137.44 137.39 137.25 147.83 137.32 158.27 C 141.54 158.21 145.79 158.61 149.98 158.01 C 155.87 156.88 160.09 150.99 159.68 145.07 C 159.65 111.35 159.75 77.63 159.64 43.92 C 159.80 38.38 155.48 34.34 150.93 32.01 C 146.17 29.16 149.44 20.92 154.88 22.09 C 164.16 24.88 170.88 34.27 170.83 43.93 C 170.89 77.98 170.90 112.02 170.85 146.07 C 171.15 158.36 160.35 169.47 148.05 169.52 C 113.69 169.59 79.31 169.56 44.95 169.50 C 32.62 169.51 21.78 158.38 22.07 146.06 C 22.05 112.02 22.05 77.97 22.10 43.93 M 64.47 31.79 C 64.45 40.70 64.45 49.61 64.47 58.52 C 86.16 58.57 107.86 58.52 129.56 58.53 C 129.57 49.63 129.61 40.73 129.53 31.83 C 107.84 31.80 86.15 31.81 64.47 31.79 M 65.38 131.94 C 65.33 140.69 65.43 149.43 65.32 158.18 C 85.99 158.51 106.67 158.23 127.35 158.30 C 127.40 149.57 127.38 140.84 127.37 132.11 C 106.70 132.25 86.04 131.93 65.38 131.94 Z" />
<path fill="#19b0ff" opacity="1.00" d=" M 76.33 37.39 C 83.09 37.04 82.04 45.45 81.74 49.94 C 81.90 55.36 73.14 56.19 72.18 50.90 C 72.09 46.40 70.12 38.54 76.33 37.39 Z" />
</g>
</svg>
