<?xml version="1.0" encoding="UTF-8" ?>
<!DOCTYPE svg PUBLIC "-//W3C//DTD SVG 1.1//EN" "http://www.w3.org/Graphics/SVG/1.1/DTD/svg11.dtd">
<svg width="192pt" height="192pt" viewBox="0 0 192 192" version="1.1" xmlns="http://www.w3.org/2000/svg">
<g id="#ff3661ff">
<path fill="#ff3661" opacity="1.00" d=" M 60.66 26.61 C 75.76 7.06 107.77 5.40 124.99 23.02 C 127.98 25.40 129.47 30.17 133.79 30.35 C 148.34 32.26 161.49 42.05 167.62 55.36 C 173.30 67.10 172.90 81.28 167.45 93.02 C 173.11 105.75 173.25 121.08 166.38 133.38 C 159.45 146.55 145.45 155.09 130.78 156.52 C 118.11 175.96 89.55 181.54 70.42 168.57 C 65.37 165.47 61.77 160.72 57.72 156.54 C 42.97 154.87 28.99 146.14 22.23 132.74 C 16.42 121.64 15.25 107.93 20.21 96.31 C 22.69 92.06 18.82 87.93 18.30 83.65 C 13.07 62.70 25.88 39.23 46.41 32.45 C 51.10 30.19 57.73 31.75 60.66 26.61 M 72.47 31.18 C 80.85 33.68 88.60 38.28 94.40 44.88 C 100.24 38.28 108.02 33.65 116.45 31.20 C 104.52 19.87 84.38 19.79 72.47 31.18 M 60.38 65.49 C 67.54 57.58 76.98 51.74 87.58 49.90 C 81.21 43.13 72.26 38.74 62.90 38.53 C 58.45 46.69 57.87 56.62 60.38 65.49 M 101.25 49.92 C 111.87 51.82 121.53 57.61 128.48 65.82 C 131.00 56.85 130.53 46.90 126.06 38.60 C 116.62 38.50 107.72 43.26 101.25 49.92 M 29.79 81.22 C 36.13 75.15 44.01 70.77 52.61 68.91 C 49.83 60.57 49.79 51.55 51.81 43.04 C 36.15 47.83 25.99 65.23 29.79 81.22 M 137.12 42.98 C 139.15 51.53 139.13 60.54 136.34 68.92 C 144.88 70.77 152.73 75.10 158.97 81.21 C 163.03 65.17 152.72 47.88 137.12 42.98 M 100.12 61.15 C 101.95 67.28 102.49 73.68 102.09 80.05 C 107.33 76.62 112.90 73.67 119.02 72.15 C 114.06 66.58 107.37 62.79 100.12 61.15 M 69.82 72.12 C 76.05 73.70 81.80 76.63 87.01 80.36 C 86.58 73.93 86.80 67.41 88.59 61.18 C 81.38 62.80 74.68 66.53 69.82 72.12 M 31.31 93.00 C 36.20 101.05 44.57 106.78 53.73 108.85 C 50.03 98.73 50.08 87.46 53.68 77.32 C 44.58 79.55 36.49 85.19 31.31 93.00 M 135.07 77.29 C 138.69 87.43 138.73 98.70 135.07 108.83 C 143.42 106.91 151.08 102.07 156.19 95.18 C 157.03 94.21 157.35 92.67 156.52 91.60 C 151.53 84.29 143.53 79.52 135.07 77.29 M 109.06 93.01 C 114.97 95.66 120.30 99.41 124.84 104.02 C 127.14 96.94 127.13 89.24 124.82 82.16 C 120.36 86.80 115.06 90.61 109.06 93.01 M 63.96 104.07 C 68.25 99.23 73.98 96.26 79.33 92.83 C 73.53 90.34 68.32 86.66 63.96 82.10 C 61.64 89.20 61.63 96.97 63.96 104.07 M 29.79 104.92 C 26.02 120.85 35.92 138.67 51.83 143.10 C 49.71 134.63 49.86 125.64 52.59 117.33 C 43.99 115.44 36.01 111.17 29.79 104.92 M 136.30 117.30 C 139.08 125.61 139.24 134.62 137.10 143.10 C 152.88 138.46 163.13 121.03 158.98 104.98 C 152.79 111.17 144.87 115.49 136.30 117.30 M 69.82 114.00 C 74.64 119.73 81.43 123.50 88.71 125.05 C 86.73 118.83 86.61 112.27 86.91 105.81 C 81.87 109.74 76.02 112.48 69.82 114.00 M 102.06 105.95 C 102.50 112.35 101.88 118.78 100.16 124.97 C 107.44 123.46 114.18 119.64 119.02 113.96 C 112.85 112.56 107.08 109.78 102.06 105.95 M 60.48 120.55 C 58.10 128.66 58.44 137.55 61.69 145.37 C 62.15 146.71 63.39 147.94 64.91 147.60 C 73.57 146.80 81.68 142.57 87.65 136.29 C 77.07 134.47 67.34 128.81 60.48 120.55 M 101.25 136.21 C 107.15 142.61 115.35 146.92 124.08 147.60 C 125.25 147.77 126.41 147.09 126.87 146.00 C 130.52 138.05 130.84 128.83 128.40 120.48 C 121.48 128.64 111.88 134.50 101.25 136.21 M 72.54 154.98 C 84.18 166.46 104.56 166.34 116.27 155.04 C 107.86 152.69 100.21 147.96 94.37 141.47 C 88.61 148.00 80.93 152.67 72.54 154.98 Z" />
</g>
</svg>
