<?xml version="1.0" encoding="UTF-8" ?>
<!DOCTYPE svg PUBLIC "-//W3C//DTD SVG 1.1//EN" "http://www.w3.org/Graphics/SVG/1.1/DTD/svg11.dtd">
<svg width="192pt" height="192pt" viewBox="0 0 192 192" version="1.1" xmlns="http://www.w3.org/2000/svg">
<g id="#916460ff">
<path fill="#916460" opacity="1.00" d=" M 72.93 15.06 C 96.67 7.56 124.89 12.21 142.86 30.13 C 154.90 41.81 162.57 58.12 162.72 74.99 C 162.79 102.35 162.78 129.70 162.73 157.06 C 162.76 168.46 152.41 178.53 141.06 178.51 C 110.69 178.53 80.31 178.53 49.94 178.51 C 38.15 178.58 27.70 167.82 28.17 156.02 C 28.25 131.71 27.97 107.39 28.32 83.09 C 29.01 76.72 39.25 77.67 39.21 83.96 C 39.50 108.30 39.18 132.67 39.36 157.02 C 39.47 162.97 45.19 167.69 51.02 167.34 C 80.68 167.36 110.34 167.36 140.00 167.33 C 146.18 167.66 151.90 162.32 151.63 156.08 C 151.75 130.05 151.56 104.02 151.65 77.99 C 151.79 71.61 150.70 65.28 148.71 59.23 C 112.79 59.06 76.85 59.28 40.93 59.12 C 36.07 59.32 32.03 53.74 34.29 49.27 C 41.90 33.30 56.07 20.54 72.93 15.06 M 47.91 47.63 C 79.60 47.88 111.31 47.76 143.00 47.68 C 134.37 34.39 119.73 25.03 103.91 23.36 C 98.27 23.06 92.60 23.06 86.96 23.37 C 71.15 25.02 56.59 34.40 47.91 47.63 Z" />
<path fill="#916460" opacity="1.00" d=" M 65.34 68.40 C 80.53 67.63 95.78 68.27 111.00 68.04 C 120.06 68.17 130.45 66.62 137.84 73.17 C 147.11 80.42 146.72 93.35 145.70 103.92 C 144.52 114.54 134.71 123.30 124.01 123.18 C 105.33 123.14 86.65 123.21 67.97 123.15 C 57.56 122.96 48.07 114.42 46.97 104.05 C 46.60 99.05 46.74 94.03 46.83 89.02 C 47.01 78.88 55.34 69.79 65.34 68.40 M 66.53 79.86 C 58.02 81.36 57.40 91.10 58.09 97.99 C 57.07 104.24 61.17 111.43 67.97 111.59 C 86.33 111.79 104.70 111.64 123.06 111.65 C 128.21 111.95 133.49 108.25 134.18 103.01 C 134.58 98.36 134.51 93.67 134.26 89.02 C 133.93 83.47 128.47 79.31 123.07 79.63 C 104.23 79.74 85.34 79.23 66.53 79.86 Z" />
<path fill="#916460" opacity="1.00" d=" M 76.43 88.52 C 85.66 84.22 89.35 101.13 80.64 103.55 C 72.44 105.19 69.86 92.06 76.43 88.52 Z" />
<path fill="#916460" opacity="1.00" d=" M 109.25 88.30 C 118.53 84.66 121.67 101.69 112.85 103.58 C 104.64 104.87 102.45 91.50 109.25 88.30 Z" />
</g>
</svg>
