<?xml version="1.0" encoding="UTF-8" ?>
<!DOCTYPE svg PUBLIC "-//W3C//DTD SVG 1.1//EN" "http://www.w3.org/Graphics/SVG/1.1/DTD/svg11.dtd">
<svg width="192pt" height="192pt" viewBox="0 0 192 192" version="1.1" xmlns="http://www.w3.org/2000/svg">
<g id="#1ab2ffff">
<path fill="#1ab2ff" opacity="1.00" d=" M 51.08 68.07 C 59.61 49.91 80.03 38.17 100.02 39.93 C 120.46 41.83 138.54 57.79 143.42 77.66 C 143.95 80.84 147.40 81.37 149.99 81.97 C 164.27 85.21 175.46 98.49 176.53 113.05 C 177.70 128.72 167.27 144.61 152.21 149.36 C 144.38 151.71 136.08 151.53 128.00 151.27 C 124.52 151.15 120.03 149.77 119.28 145.86 C 118.57 142.49 122.07 140.26 125.00 139.97 C 132.57 139.01 140.36 140.98 147.82 138.83 C 159.55 135.88 167.74 122.96 164.88 111.10 C 162.71 99.79 151.51 91.00 139.93 92.37 C 137.57 92.49 133.15 93.78 133.15 90.02 C 133.16 79.25 128.94 68.41 120.92 61.10 C 108.49 49.48 87.80 47.83 74.01 57.99 C 65.19 63.85 60.35 73.70 57.65 83.57 C 49.45 84.05 40.73 85.56 34.56 91.57 C 24.15 100.71 22.49 118.02 31.13 128.88 C 38.03 138.04 51.07 141.97 61.81 137.77 C 73.78 133.47 81.88 123.06 89.39 113.35 C 85.21 113.99 80.56 115.54 76.54 113.44 C 73.70 111.98 71.69 107.81 74.15 105.14 C 77.78 102.34 82.75 103.63 87.00 103.33 C 93.95 103.80 101.73 102.38 108.19 104.11 C 108.45 114.37 108.48 124.70 107.94 134.95 C 107.83 138.81 102.95 140.06 100.34 137.70 C 95.78 134.17 97.55 127.76 98.12 122.90 C 89.01 130.49 81.94 140.61 71.35 146.33 C 57.99 153.32 40.47 151.89 28.74 142.28 C 18.57 133.92 13.11 120.26 14.54 107.20 C 16.44 91.54 28.72 77.81 44.02 74.04 C 47.34 73.49 49.88 71.15 51.08 68.07 Z" />
</g>
</svg>
