<?xml version="1.0" encoding="UTF-8" ?>
<!DOCTYPE svg PUBLIC "-//W3C//DTD SVG 1.1//EN" "http://www.w3.org/Graphics/SVG/1.1/DTD/svg11.dtd">
<svg width="192pt" height="192pt" viewBox="0 0 192 192" version="1.1" xmlns="http://www.w3.org/2000/svg">
<g id="#1ab1ffff">
<path fill="#1ab1ff" opacity="1.00" d=" M 48.92 31.96 C 49.06 24.01 56.04 16.95 64.00 16.77 C 84.99 16.70 105.99 16.74 126.99 16.75 C 135.17 16.58 142.65 23.72 142.75 31.92 C 142.86 45.59 142.75 59.25 142.81 72.92 C 148.90 73.12 155.00 72.88 161.09 73.04 C 168.68 73.33 175.14 80.36 174.85 87.94 C 174.88 111.65 174.92 135.36 174.84 159.07 C 174.95 166.90 167.87 173.78 160.06 173.54 C 117.35 173.57 74.65 173.55 31.94 173.52 C 24.12 173.81 16.98 166.92 17.08 159.08 C 17.05 135.02 17.01 110.96 17.12 86.91 C 17.26 77.91 26.51 71.61 35.04 73.00 C 40.08 71.78 44.66 78.06 41.04 82.15 C 38.06 86.77 30.07 81.40 28.41 87.13 C 28.17 110.75 28.36 134.39 28.32 158.02 C 27.98 160.19 29.66 162.48 31.99 162.23 C 74.66 162.28 117.33 162.27 160.00 162.19 C 162.31 162.43 163.82 160.10 163.55 158.00 C 163.54 134.66 163.60 111.32 163.52 87.97 C 163.72 86.04 162.02 84.14 160.04 84.34 C 154.28 84.30 148.51 84.21 142.75 84.41 C 141.96 88.41 140.02 92.24 136.73 94.75 C 124.27 104.96 111.89 115.27 99.40 125.44 C 97.30 127.32 93.87 127.06 91.88 125.15 C 79.61 115.07 67.38 104.94 55.11 94.87 C 51.20 91.82 48.79 86.97 48.86 82.01 C 48.91 65.33 48.79 48.64 48.92 31.96 M 60.25 32.05 C 59.99 47.70 60.24 63.36 60.13 79.01 C 60.19 81.40 59.72 84.39 62.02 85.95 C 73.26 95.26 84.53 104.54 95.82 113.78 C 106.82 104.81 117.72 95.73 128.71 86.74 C 130.19 85.59 131.70 84.06 131.49 82.01 C 131.53 65.67 131.53 49.33 131.50 32.99 C 131.77 29.98 128.97 27.62 126.05 27.91 C 106.02 27.85 85.98 27.83 65.95 27.89 C 63.39 27.73 60.28 29.13 60.25 32.05 Z" />
<path fill="#1ab1ff" opacity="1.00" d=" M 78.35 43.45 C 82.83 42.78 86.73 47.71 84.98 51.91 C 83.57 56.85 75.44 57.37 73.43 52.65 C 71.45 48.93 73.91 43.54 78.35 43.45 Z" />
<path fill="#1ab1ff" opacity="1.00" d=" M 111.43 43.47 C 119.65 41.72 121.43 55.78 112.98 55.86 C 105.08 57.44 103.58 43.95 111.43 43.47 Z" />
<path fill="#1ab1ff" opacity="1.00" d=" M 73.18 67.14 C 87.31 65.70 101.76 67.02 116.02 66.52 C 118.41 66.10 119.21 68.54 118.56 70.39 C 115.98 80.98 104.63 88.01 93.98 86.72 C 83.81 86.32 72.52 77.88 73.18 67.14 Z" />
</g>
</svg>
