<?xml version="1.0" encoding="UTF-8" ?>
<!DOCTYPE svg PUBLIC "-//W3C//DTD SVG 1.1//EN" "http://www.w3.org/Graphics/SVG/1.1/DTD/svg11.dtd">
<svg width="192pt" height="192pt" viewBox="0 0 192 192" version="1.1" xmlns="http://www.w3.org/2000/svg">
<g id="#1ab0ffff">
<path fill="#1ab0ff" opacity="1.00" d=" M 67.94 17.95 C 70.69 11.58 81.07 13.39 82.08 20.09 C 83.49 36.33 84.03 52.67 85.73 68.90 C 106.81 69.47 127.93 68.93 149.02 69.29 C 157.28 69.61 163.23 79.11 159.89 86.69 C 147.78 115.60 135.68 144.54 123.51 173.43 C 121.46 179.54 111.82 178.83 110.26 172.75 C 107.77 155.13 108.23 137.07 105.65 119.54 C 83.10 119.36 60.53 119.45 37.98 119.33 C 32.43 119.34 28.47 112.85 30.91 107.89 C 43.10 77.85 55.42 47.85 67.94 17.95 M 43.00 108.14 C 63.69 108.05 84.38 108.13 105.06 108.27 C 112.02 108.01 117.50 114.45 117.73 121.10 C 118.33 131.74 119.00 142.37 119.76 152.99 C 129.43 130.23 138.89 107.37 148.51 84.59 C 149.09 83.28 150.38 80.39 147.80 80.55 C 126.87 80.34 105.92 80.55 84.98 80.31 C 79.58 80.32 75.32 75.48 74.63 70.37 C 73.27 59.61 72.91 48.75 71.93 37.96 C 61.99 61.22 52.53 84.70 43.00 108.14 Z" />
</g>
</svg>
