<?xml version="1.0" encoding="UTF-8" ?>
<!DOCTYPE svg PUBLIC "-//W3C//DTD SVG 1.1//EN" "http://www.w3.org/Graphics/SVG/1.1/DTD/svg11.dtd">
<svg width="192pt" height="192pt" viewBox="0 0 192 192" version="1.1" xmlns="http://www.w3.org/2000/svg">
<g id="#c521d2ff">
<path fill="#c521d2" opacity="1.00" d=" M 90.96 14.94 C 93.31 12.92 97.18 13.56 99.02 15.98 C 123.71 39.64 148.70 62.99 173.36 86.67 C 177.19 90.95 171.75 97.92 166.63 95.33 C 162.12 91.95 158.35 87.66 154.14 83.92 C 153.96 89.91 154.55 95.98 153.84 101.92 C 152.79 107.35 144.17 107.33 143.05 101.94 C 142.42 92.80 143.10 83.58 142.69 74.42 C 110.88 74.42 79.06 74.46 47.25 74.39 C 47.16 100.95 47.23 127.50 47.22 154.06 C 46.82 158.36 50.72 162.32 54.98 162.24 C 81.99 162.22 109.01 162.37 136.02 162.16 C 141.40 161.55 143.59 155.70 142.85 150.94 C 142.66 145.38 151.11 143.51 153.41 148.52 C 157.17 159.86 148.08 173.30 135.97 173.50 C 108.99 173.60 82.00 173.53 55.02 173.53 C 45.05 173.78 35.98 165.00 35.91 155.02 C 35.75 130.98 35.99 106.94 35.79 82.90 C 31.20 87.00 27.05 91.64 22.18 95.40 C 17.02 97.79 11.71 90.83 15.59 86.61 C 40.60 62.60 65.91 38.91 90.96 14.94 M 94.36 27.29 C 81.92 39.23 69.27 50.96 56.90 62.97 C 81.93 63.29 107.00 63.18 132.04 63.01 C 119.56 51.03 107.03 39.08 94.36 27.29 Z" />
<path fill="#c521d2" opacity="1.00" d=" M 73.35 118.39 C 83.71 118.22 76.67 131.93 82.07 136.17 C 92.65 136.59 103.33 136.44 113.92 136.27 C 119.66 132.87 113.26 123.74 118.44 119.46 C 121.47 116.80 126.73 119.09 127.23 123.01 C 127.53 129.00 127.36 135.01 127.32 141.01 C 127.24 144.75 123.90 148.12 120.07 147.81 C 105.38 147.78 90.67 147.81 75.98 147.73 C 72.26 147.82 68.76 144.74 68.59 140.99 C 68.45 135.33 68.37 129.67 68.56 124.02 C 68.54 121.29 70.57 118.67 73.35 118.39 Z" />
</g>
</svg>
