<?xml version="1.0" encoding="UTF-8" ?>
<!DOCTYPE svg PUBLIC "-//W3C//DTD SVG 1.1//EN" "http://www.w3.org/Graphics/SVG/1.1/DTD/svg11.dtd">
<svg width="192pt" height="192pt" viewBox="0 0 192 192" version="1.1" xmlns="http://www.w3.org/2000/svg">
<g id="#ff517cff">
<path fill="#ff517c" opacity="1.00" d=" M 37.37 19.53 C 63.12 17.74 89.16 19.18 115.03 18.77 C 121.26 18.65 122.08 28.83 115.91 29.69 C 91.61 30.03 67.28 29.64 42.97 29.87 C 36.76 30.12 31.12 35.63 31.28 41.94 C 31.24 75.98 31.27 110.02 31.27 144.06 C 31.04 150.41 36.65 156.28 43.02 156.30 C 77.01 156.36 111.00 156.30 144.98 156.31 C 151.68 156.72 157.80 150.76 157.66 144.08 C 157.77 120.05 157.56 96.02 157.76 72.00 C 157.90 65.50 168.50 65.48 168.77 71.92 C 168.96 95.95 168.84 120.00 168.84 144.03 C 169.18 156.33 158.36 167.45 146.07 167.52 C 111.69 167.58 77.31 167.56 42.93 167.51 C 30.98 167.47 20.32 157.02 20.10 145.06 C 19.99 110.70 20.06 76.33 20.08 41.97 C 19.97 31.71 27.51 22.14 37.37 19.53 Z" />
<path fill="#ff517c" opacity="1.00" d=" M 154.81 24.85 C 160.02 20.34 167.31 28.68 162.35 33.30 C 135.23 60.53 107.99 87.65 80.80 114.81 C 78.65 117.41 74.22 117.61 71.99 115.02 C 61.62 104.72 51.06 94.62 40.84 84.19 C 36.48 79.40 43.85 72.02 48.68 76.22 C 57.98 84.99 66.92 94.16 76.08 103.09 C 102.60 77.32 128.37 50.72 154.81 24.85 Z" />
</g>
</svg>
