<?xml version="1.0" encoding="UTF-8" ?>
<!DOCTYPE svg PUBLIC "-//W3C//DTD SVG 1.1//EN" "http://www.w3.org/Graphics/SVG/1.1/DTD/svg11.dtd">
<svg width="192pt" height="192pt" viewBox="0 0 192 192" version="1.1" xmlns="http://www.w3.org/2000/svg">
<g id="#86724bff">
<path fill="#86724b" opacity="1.00" d=" M 84.39 14.52 C 116.07 9.87 149.24 26.06 165.44 53.58 C 179.25 76.22 180.91 105.67 169.79 129.74 C 157.02 158.46 126.54 178.37 95.00 177.68 C 65.28 178.22 36.49 160.49 22.74 134.28 C 11.16 112.81 10.09 86.10 19.65 63.68 C 30.64 37.45 56.11 17.91 84.39 14.52 M 87.35 25.43 C 64.93 27.72 44.18 41.61 33.31 61.31 C 21.59 81.90 21.36 108.45 32.75 129.23 C 46.75 156.17 79.30 171.69 109.03 165.17 C 138.64 159.67 162.68 133.35 165.50 103.36 C 167.93 81.92 159.88 59.63 144.17 44.83 C 129.38 30.24 107.94 23.16 87.35 25.43 Z" />
<path fill="#86724b" opacity="1.00" d=" M 85.31 44.36 C 108.67 39.47 133.98 52.93 143.16 74.90 C 151.36 93.28 147.66 116.21 133.92 130.94 C 121.96 144.37 102.67 150.94 85.04 147.11 C 69.40 144.28 55.53 133.60 48.45 119.42 C 41.00 104.92 40.95 86.87 48.34 72.33 C 55.44 57.96 69.52 47.25 85.31 44.36 M 87.44 55.61 C 75.14 57.92 64.12 66.19 58.61 77.45 C 51.81 90.59 53.11 107.38 61.76 119.36 C 70.24 131.59 85.74 138.45 100.49 136.27 C 116.42 134.39 130.44 122.09 134.52 106.61 C 137.82 95.08 135.56 82.17 128.65 72.39 C 119.76 59.23 102.96 52.70 87.44 55.61 Z" />
<path fill="#86724b" opacity="1.00" d=" M 101.32 67.35 C 112.68 68.17 123.69 79.38 123.69 90.89 C 122.45 95.83 114.48 95.84 113.23 90.86 C 111.39 84.92 106.87 80.09 100.99 78.01 C 95.79 76.66 96.09 68.38 101.32 67.35 Z" />
</g>
</svg>
