<?xml version="1.0" encoding="UTF-8" ?>
<!DOCTYPE svg PUBLIC "-//W3C//DTD SVG 1.1//EN" "http://www.w3.org/Graphics/SVG/1.1/DTD/svg11.dtd">
<svg width="192pt" height="192pt" viewBox="0 0 192 192" version="1.1" xmlns="http://www.w3.org/2000/svg">
<g id="#19aeffff">
<path fill="#19aeff" opacity="1.00" d=" M 82.42 12.53 C 115.63 7.30 150.66 25.16 166.16 54.93 C 182.26 84.07 177.92 122.82 155.61 147.56 C 134.28 172.62 97.15 182.25 66.32 170.75 C 45.49 163.38 28.03 147.15 19.12 126.94 C 7.37 101.07 10.52 69.18 27.20 46.17 C 40.00 28.06 60.41 15.52 82.42 12.53 M 85.37 23.45 C 61.26 26.10 39.42 42.36 29.53 64.43 C 16.19 92.77 24.75 129.24 49.46 148.54 C 75.22 170.28 116.56 169.22 141.15 146.17 C 165.01 125.52 171.63 88.25 156.45 60.61 C 143.36 35.10 113.81 19.63 85.37 23.45 Z" />
<path fill="#19aeff" opacity="1.00" d=" M 86.47 46.68 C 92.17 45.93 98.05 46.08 103.63 47.50 C 107.20 48.66 108.10 53.88 105.34 56.32 C 103.42 58.36 100.44 57.55 98.01 57.28 C 83.35 54.91 67.96 62.82 60.81 75.73 C 53.39 88.45 54.68 105.62 64.05 117.00 C 72.31 127.64 86.64 133.02 99.86 130.39 C 105.86 128.12 109.94 137.52 104.15 140.26 C 83.38 145.98 59.92 134.82 50.49 115.59 C 43.64 102.27 43.59 85.70 50.50 72.39 C 57.39 58.66 71.24 48.74 86.47 46.68 Z" />
</g>
</svg>
