<?xml version="1.0" encoding="UTF-8" ?>
<!DOCTYPE svg PUBLIC "-//W3C//DTD SVG 1.1//EN" "http://www.w3.org/Graphics/SVG/1.1/DTD/svg11.dtd">
<svg width="192pt" height="192pt" viewBox="0 0 192 192" version="1.1" xmlns="http://www.w3.org/2000/svg">
<g id="#19b0ffff">
<path fill="#19b0ff" opacity="1.00" d=" M 87.50 41.70 C 122.04 38.11 153.71 58.37 175.98 83.00 C 180.90 89.82 180.02 100.09 173.93 105.92 C 158.26 121.02 140.40 134.77 119.39 141.36 C 100.27 147.42 79.06 146.15 60.58 138.50 C 43.48 131.18 29.34 118.64 16.33 105.63 C 9.75 99.02 9.96 87.16 16.78 80.80 C 36.34 62.08 59.58 44.20 87.50 41.70 M 84.37 53.47 C 61.05 57.13 41.97 72.61 25.24 88.27 C 22.21 90.65 21.81 95.55 24.76 98.17 C 34.02 107.36 43.79 116.23 55.00 123.00 C 72.26 133.46 93.87 136.65 113.35 131.29 C 133.49 125.71 150.49 112.60 165.40 98.40 C 167.80 96.42 168.66 92.71 167.01 90.01 C 146.33 67.25 116.42 48.16 84.37 53.47 Z" />
<path fill="#19b0ff" opacity="1.00" d=" M 89.33 69.43 C 107.06 64.34 124.98 83.47 118.84 100.83 C 114.40 118.60 89.16 124.66 77.11 110.89 C 63.76 98.10 71.17 72.91 89.33 69.43 M 91.38 80.55 C 85.24 82.22 80.76 88.62 81.54 94.98 C 82.05 102.44 89.63 108.40 97.01 107.10 C 104.46 106.22 110.02 98.36 108.37 91.03 C 107.05 83.49 98.74 78.30 91.38 80.55 Z" />
</g>
</svg>
