<?xml version="1.0" encoding="UTF-8" ?>
<!DOCTYPE svg PUBLIC "-//W3C//DTD SVG 1.1//EN" "http://www.w3.org/Graphics/SVG/1.1/DTD/svg11.dtd">
<svg width="192pt" height="192pt" viewBox="0 0 192 192" version="1.1" xmlns="http://www.w3.org/2000/svg">
<g id="#a61bffff">
<path fill="#a61bff" opacity="1.00" d=" M 47.67 53.94 C 47.07 31.90 66.37 6.36 90.36 11.62 C 97.07 14.11 103.82 9.26 110.67 11.40 C 130.27 15.84 142.84 36.07 142.57 55.47 C 152.72 59.25 160.58 68.36 161.35 79.45 C 161.33 90.35 164.44 100.86 165.44 111.66 C 165.74 115.95 168.12 120.69 165.87 124.77 C 162.96 128.78 157.41 126.96 153.63 125.39 C 143.79 121.17 133.78 113.77 131.27 102.81 C 129.96 96.97 139.24 93.86 141.58 99.38 C 143.63 105.61 148.61 110.16 154.21 113.28 C 153.60 103.09 150.26 93.27 150.32 83.03 C 150.22 76.65 147.30 69.33 140.63 67.40 C 135.34 65.83 130.18 60.96 130.88 55.03 C 131.79 41.38 123.15 27.34 110.11 22.83 C 103.32 20.35 96.60 26.25 89.95 23.08 C 72.31 17.91 58.15 38.11 59.10 54.00 C 60.35 60.37 55.07 65.72 49.35 67.39 C 42.33 69.44 39.64 77.31 39.56 83.94 C 39.52 94.34 37.14 104.50 35.06 114.62 C 42.66 111.36 44.44 102.83 45.62 95.53 C 46.54 89.67 56.01 90.11 56.50 95.99 C 56.22 102.36 54.57 108.80 51.48 114.41 C 46.74 122.54 37.44 126.69 28.60 128.58 C 24.53 129.58 20.13 125.67 21.54 121.47 C 24.83 108.85 28.22 96.06 28.40 82.93 C 28.64 72.93 33.35 62.12 42.94 57.88 C 44.64 56.81 47.92 56.62 47.67 53.94 Z" />
<path fill="#a61bff" opacity="1.00" d=" M 77.99 76.00 C 74.61 74.47 74.61 66.94 79.31 68.55 C 80.98 70.94 80.62 74.47 77.99 76.00 Z" />
<path fill="#a61bff" opacity="1.00" d=" M 111.39 68.41 C 115.35 67.67 115.64 74.98 112.01 75.52 C 108.96 74.92 108.70 69.49 111.39 68.41 Z" />
<path fill="#a61bff" opacity="1.00" d=" M 55.30 85.69 C 53.48 81.50 56.87 76.02 61.68 77.27 C 67.96 78.71 64.89 87.30 69.86 90.12 C 74.65 93.98 83.02 93.39 85.29 100.05 C 86.16 105.71 86.51 112.71 82.00 117.01 C 77.97 120.79 72.20 121.22 66.99 121.86 C 61.90 122.15 57.71 126.92 57.86 131.98 C 57.57 141.02 57.65 150.14 58.77 159.12 C 59.10 162.60 62.82 164.41 65.98 164.24 C 85.66 164.22 105.35 164.36 125.03 164.16 C 129.32 164.32 131.69 159.83 131.03 156.02 C 130.49 145.34 132.92 133.78 128.18 123.81 C 121.48 120.60 112.93 121.17 107.12 115.88 C 103.14 111.56 104.19 105.01 104.74 99.69 C 107.84 92.34 118.59 94.15 122.49 87.41 C 124.16 84.10 122.98 78.82 127.32 77.37 C 132.41 75.36 136.32 81.31 134.67 85.86 C 133.80 96.05 124.34 101.81 115.57 104.75 C 115.58 105.59 115.62 107.26 115.63 108.10 C 122.92 111.68 133.13 110.28 137.92 118.02 C 144.31 129.94 141.86 144.03 142.33 156.99 C 143.05 166.28 135.36 175.20 125.98 175.47 C 105.99 175.66 86.00 175.48 66.01 175.55 C 57.56 175.91 48.84 169.80 47.75 161.13 C 46.31 151.18 46.41 141.06 46.70 131.03 C 46.71 121.98 53.49 113.62 62.14 111.29 C 66.19 110.45 70.35 110.25 74.34 109.15 C 74.41 107.67 74.48 106.20 74.56 104.74 C 65.64 101.94 56.04 96.02 55.30 85.69 Z" />
<path fill="#a61bff" opacity="1.00" d=" M 84.15 89.92 C 81.84 88.70 83.17 86.13 84.78 85.00 C 90.65 88.12 97.68 88.57 103.74 85.71 C 106.44 84.10 108.72 88.61 105.88 89.94 C 99.42 93.71 90.60 93.72 84.15 89.92 Z" />
</g>
</svg>
