<?xml version="1.0" encoding="UTF-8" ?>
<!DOCTYPE svg PUBLIC "-//W3C//DTD SVG 1.1//EN" "http://www.w3.org/Graphics/SVG/1.1/DTD/svg11.dtd">
<svg width="192pt" height="192pt" viewBox="0 0 192 192" version="1.1" xmlns="http://www.w3.org/2000/svg">
<g id="#ff517cff">
<path fill="#ff517c" opacity="1.00" d=" M 51.33 36.40 C 66.72 33.78 80.83 42.89 95.97 43.56 C 110.52 42.61 124.09 34.35 138.90 36.29 C 152.13 38.12 160.52 50.05 165.64 61.34 C 174.28 81.34 177.88 103.31 178.12 125.01 C 177.68 133.93 177.11 143.88 170.93 150.92 C 166.19 156.26 158.13 156.82 151.81 154.26 C 140.76 149.92 132.09 141.41 123.86 133.12 C 116.57 125.97 105.86 123.91 96.00 123.65 C 85.40 123.78 73.69 126.04 66.24 134.24 C 57.73 142.65 48.60 151.41 36.88 154.98 C 29.68 157.31 21.20 154.15 17.74 147.32 C 12.54 137.42 12.93 125.77 13.44 114.92 C 15.01 96.47 18.31 77.88 25.83 60.86 C 30.77 49.99 38.79 38.68 51.33 36.40 M 53.38 47.53 C 45.95 48.99 41.29 55.73 37.88 61.94 C 31.26 74.67 28.22 88.91 26.06 102.99 C 24.61 114.29 23.29 125.94 25.77 137.17 C 26.53 140.55 28.67 145.46 33.01 144.20 C 49.66 139.97 57.41 121.82 73.31 116.27 C 91.02 109.96 112.42 110.80 128.12 121.85 C 136.85 129.43 144.42 138.95 155.38 143.50 C 157.73 144.34 161.15 145.32 162.88 142.84 C 166.29 137.99 166.45 131.73 166.76 126.02 C 166.89 109.57 164.40 93.11 159.63 77.37 C 156.63 68.01 152.77 58.41 145.53 51.49 C 140.89 47.03 133.97 46.60 127.98 47.94 C 114.53 50.57 101.07 57.23 87.12 53.84 C 75.83 52.03 65.03 46.12 53.38 47.53 Z" />
<path fill="#ff517c" opacity="1.00" d=" M 128.38 65.41 C 133.56 63.81 138.84 69.77 136.55 74.71 C 134.98 79.35 128.26 80.67 125.03 76.98 C 121.32 73.42 123.38 66.47 128.38 65.41 Z" />
<path fill="#ff517c" opacity="1.00" d=" M 49.69 78.54 C 49.24 73.85 51.71 68.27 56.99 67.97 C 62.74 67.21 66.54 73.14 65.76 78.34 C 70.93 77.71 76.82 81.30 76.24 87.04 C 75.99 92.31 70.51 95.05 65.75 94.56 C 66.63 99.82 62.80 105.90 56.99 105.17 C 51.78 104.75 49.28 99.37 49.58 94.67 C 44.49 95.39 38.81 91.74 39.29 86.17 C 39.39 80.87 44.94 78.06 49.69 78.54 Z" />
<path fill="#ff517c" opacity="1.00" d=" M 115.36 79.48 C 124.45 78.45 125.20 93.62 116.00 93.43 C 107.22 94.19 106.59 79.61 115.36 79.48 Z" />
<path fill="#ff517c" opacity="1.00" d=" M 144.21 79.45 C 153.39 78.97 153.24 94.23 144.00 93.44 C 135.26 93.59 135.44 79.10 144.21 79.45 Z" />
<path fill="#ff517c" opacity="1.00" d=" M 127.26 94.33 C 132.37 91.72 138.70 97.42 136.72 102.75 C 135.57 107.65 128.66 109.35 125.26 105.74 C 121.67 102.60 122.80 96.05 127.26 94.33 Z" />
</g>
</svg>
