<?xml version="1.0" encoding="UTF-8" ?>
<!DOCTYPE svg PUBLIC "-//W3C//DTD SVG 1.1//EN" "http://www.w3.org/Graphics/SVG/1.1/DTD/svg11.dtd">
<svg width="192pt" height="192pt" viewBox="0 0 192 192" version="1.1" xmlns="http://www.w3.org/2000/svg">
<g id="#af4ac1ff">
<path fill="#af4ac1" opacity="1.00" d=" M 20.05 41.93 C 19.89 29.69 30.75 18.64 43.02 18.75 C 77.34 18.71 111.67 18.70 145.99 18.76 C 158.22 18.71 169.01 29.73 168.84 41.93 C 168.84 76.62 169.04 111.33 168.75 146.02 C 168.07 160.68 151.95 170.85 138.25 166.87 C 135.66 165.67 135.03 162.64 135.18 160.06 C 135.23 139.12 135.15 118.19 135.10 97.26 C 138.67 98.90 142.78 98.88 146.37 97.30 C 146.56 117.01 146.36 136.72 146.49 156.43 C 152.49 155.42 157.76 150.42 157.62 144.08 C 157.75 110.36 157.65 76.64 157.67 42.92 C 158.17 35.96 152.00 29.65 145.04 29.91 C 111.35 29.80 77.65 29.82 43.96 29.88 C 37.40 29.63 31.16 35.24 31.30 41.92 C 31.25 75.97 31.27 110.03 31.30 144.08 C 31.03 151.59 38.39 157.11 45.56 156.40 C 45.55 136.73 45.60 117.05 45.48 97.38 C 49.09 98.94 53.20 98.81 56.77 97.23 C 56.63 119.11 56.99 141.01 56.61 162.89 C 55.52 169.20 47.64 167.43 43.03 167.48 C 30.65 167.50 19.81 156.41 20.03 144.05 C 20.00 110.01 19.99 75.97 20.05 41.93 Z" />
<path fill="#af4ac1" opacity="1.00" d=" M 68.38 95.83 C 69.95 91.75 71.66 87.72 73.47 83.74 C 75.24 87.78 77.05 91.80 78.68 95.89 C 75.31 96.81 71.73 96.82 68.38 95.83 Z" />
<path fill="#af4ac1" opacity="1.00" d=" M 95.83 83.85 C 97.66 87.92 99.56 91.98 100.97 96.23 C 97.63 96.56 94.26 96.57 90.93 96.14 C 92.28 91.93 94.09 87.90 95.83 83.85 Z" />
<path fill="#af4ac1" opacity="1.00" d=" M 113.23 95.87 C 114.77 91.80 116.50 87.80 118.24 83.81 C 120.10 87.90 122.33 91.93 123.02 96.43 C 119.75 96.67 116.43 96.65 113.23 95.87 Z" />
<path fill="#af4ac1" opacity="1.00" d=" M 140.60 83.66 C 142.59 87.74 144.51 91.87 145.93 96.19 C 142.60 96.52 139.07 97.27 135.87 95.90 C 136.79 91.60 138.96 87.71 140.60 83.66 Z" />
<path fill="#af4ac1" opacity="1.00" d=" M 45.95 96.01 C 47.41 91.80 49.21 87.72 50.98 83.63 C 52.81 87.66 55.00 91.60 56.03 95.93 C 52.83 97.29 49.25 96.53 45.95 96.01 Z" />
<path fill="#af4ac1" opacity="1.00" d=" M 68.02 97.44 C 71.53 98.96 75.61 98.97 79.08 97.32 C 79.29 118.89 79.29 140.48 79.12 162.05 C 79.38 168.51 68.94 169.34 68.18 162.96 C 67.72 141.14 68.34 119.27 68.02 97.44 Z" />
<path fill="#af4ac1" opacity="1.00" d=" M 112.76 97.39 C 116.29 98.99 120.37 98.99 123.88 97.33 C 123.80 118.90 124.43 140.49 123.94 162.05 C 124.18 168.45 113.87 169.34 113.02 163.03 C 112.55 141.17 112.92 119.27 112.76 97.39 Z" />
<path fill="#af4ac1" opacity="1.00" d=" M 90.42 98.22 C 94.09 98.63 97.80 98.61 101.47 98.24 C 101.40 119.83 101.75 141.44 101.34 163.01 C 100.51 169.28 90.28 168.38 90.55 162.03 C 90.39 140.77 90.54 119.49 90.42 98.22 Z" />
</g>
</svg>
