<?xml version="1.0" encoding="UTF-8" ?>
<!DOCTYPE svg PUBLIC "-//W3C//DTD SVG 1.1//EN" "http://www.w3.org/Graphics/SVG/1.1/DTD/svg11.dtd">
<svg width="192pt" height="192pt" viewBox="0 0 192 192" version="1.1" xmlns="http://www.w3.org/2000/svg">
<g id="#68737dff">
<path fill="#68737d" opacity="1.00" d=" M 40.29 21.32 C 76.11 19.99 112.10 21.06 147.99 20.77 C 160.20 20.73 171.01 31.75 170.82 43.94 C 170.89 77.98 170.87 112.02 170.84 146.06 C 171.21 158.37 160.35 169.51 148.05 169.54 C 113.69 169.62 79.32 169.59 44.95 169.54 C 32.61 169.55 21.76 158.38 22.07 146.05 C 22.04 112.01 22.03 77.97 22.09 43.93 C 21.98 33.37 30.01 23.54 40.29 21.32 M 42.29 32.40 C 37.25 33.76 33.19 38.61 33.33 43.93 C 33.27 77.97 33.30 112.02 33.31 146.07 C 33.05 152.82 39.27 158.75 45.99 158.33 C 79.66 158.33 113.33 158.33 147.00 158.31 C 153.70 158.69 159.80 152.77 159.63 146.07 C 159.73 112.36 159.66 78.64 159.67 44.93 C 160.13 38.34 154.61 32.25 148.04 31.94 C 116.70 31.73 85.35 31.87 54.00 31.80 C 50.09 31.83 46.13 31.55 42.29 32.40 Z" />
<path fill="#68737d" opacity="1.00" d=" M 50.33 116.36 C 56.81 113.17 65.21 118.78 64.82 125.97 C 65.18 133.92 54.93 139.36 48.61 134.41 C 41.99 130.30 43.01 119.13 50.33 116.36 Z" />
<path fill="#68737d" opacity="1.00" d=" M 134.33 116.34 C 141.17 113.00 149.84 119.34 148.78 126.86 C 148.44 134.77 137.94 139.26 132.01 133.99 C 125.88 129.56 127.27 119.04 134.33 116.34 Z" />
<path fill="#68737d" opacity="1.00" d=" M 78.38 121.37 C 81.83 120.03 85.64 123.88 84.35 127.32 C 83.44 130.80 78.27 131.79 76.21 128.81 C 74.11 126.43 75.33 122.25 78.38 121.37 Z" />
<path fill="#68737d" opacity="1.00" d=" M 95.30 121.30 C 101.20 119.57 103.47 129.49 97.43 130.48 C 91.72 131.95 89.52 122.49 95.30 121.30 Z" />
<path fill="#68737d" opacity="1.00" d=" M 112.31 121.22 C 115.49 120.47 118.64 123.69 117.84 126.86 C 117.37 130.49 112.27 131.88 109.92 129.14 C 107.26 126.72 108.79 121.79 112.31 121.22 Z" />
</g>
</svg>
