<?xml version="1.0" encoding="UTF-8" ?>
<!DOCTYPE svg PUBLIC "-//W3C//DTD SVG 1.1//EN" "http://www.w3.org/Graphics/SVG/1.1/DTD/svg11.dtd">
<svg width="192pt" height="192pt" viewBox="0 0 192 192" version="1.1" xmlns="http://www.w3.org/2000/svg">
<g id="#928295ff">
<path fill="#928295" opacity="1.00" d=" M 57.27 17.22 C 81.33 15.72 105.79 16.84 129.99 16.63 C 136.86 16.65 136.81 27.95 130.06 28.10 C 106.69 28.16 83.30 28.20 59.93 28.09 C 54.14 28.36 51.99 19.70 57.27 17.22 Z" />
<path fill="#928295" opacity="1.00" d=" M 48.09 42.94 C 47.87 38.19 52.12 33.69 56.95 34.05 C 82.65 33.86 108.35 33.99 134.05 33.97 C 138.46 33.77 142.55 37.58 142.78 41.96 C 143.35 57.08 135.78 72.04 123.68 81.03 C 123.87 109.03 123.89 137.05 123.80 165.05 C 123.84 169.84 120.01 174.64 115.03 174.69 C 102.02 174.76 88.99 174.75 75.98 174.67 C 70.50 174.71 66.72 169.16 67.09 164.03 C 67.21 138.70 66.94 113.36 67.29 88.03 C 67.22 83.25 64.57 79.00 61.29 75.72 C 52.89 67.03 48.04 55.02 48.09 42.94 M 59.26 45.30 C 60.04 53.86 63.64 62.16 69.73 68.27 C 75.12 73.62 78.56 80.92 78.62 88.58 C 89.77 88.98 100.94 88.52 112.10 88.81 C 113.27 83.52 110.00 76.10 115.70 72.73 C 124.84 66.68 130.36 56.32 131.69 45.58 C 107.58 44.88 83.40 45.42 59.26 45.30 M 78.85 100.15 C 78.76 121.07 78.83 141.99 78.84 162.91 C 89.91 163.13 100.99 162.98 112.07 162.98 C 112.05 142.03 112.18 121.08 112.03 100.13 C 100.97 100.15 89.91 100.12 78.85 100.15 Z" />
</g>
</svg>
