<?xml version="1.0" encoding="UTF-8" ?>
<!DOCTYPE svg PUBLIC "-//W3C//DTD SVG 1.1//EN" "http://www.w3.org/Graphics/SVG/1.1/DTD/svg11.dtd">
<svg width="192pt" height="192pt" viewBox="0 0 192 192" version="1.1" xmlns="http://www.w3.org/2000/svg">
<g id="#c521d2ff">
<path fill="#c521d2" opacity="1.00" d=" M 133.67 21.66 C 138.33 16.62 146.94 16.27 151.83 21.16 C 158.06 27.26 164.23 33.44 170.34 39.67 C 175.22 44.58 174.95 53.20 169.89 57.89 C 134.59 93.26 99.24 128.56 63.93 163.92 C 59.85 168.39 53.54 168.81 47.99 169.95 C 40.00 171.12 32.10 173.99 24.03 173.93 C 15.97 172.32 17.13 162.89 19.01 156.96 C 22.20 146.29 20.66 132.81 30.23 125.23 C 55.91 99.57 81.54 73.87 107.22 48.21 C 109.41 45.55 113.76 45.22 116.11 47.86 C 124.20 55.86 132.18 63.97 140.26 71.99 C 147.57 64.70 154.89 57.44 162.14 50.10 C 163.64 49.05 162.79 47.28 161.63 46.39 C 155.38 40.30 149.38 33.95 143.01 27.98 C 137.92 32.55 133.49 37.83 128.29 42.27 C 123.83 45.44 117.85 39.42 120.80 34.92 C 124.67 30.14 129.41 26.10 133.67 21.66 M 34.53 136.54 C 32.36 145.09 30.58 153.83 29.28 162.56 C 37.82 160.57 46.56 159.37 55.00 157.05 C 80.93 131.57 106.56 105.73 132.22 79.94 C 125.60 72.81 118.46 66.19 111.72 59.18 C 85.97 84.94 60.08 110.59 34.53 136.54 Z" />
</g>
</svg>
