<?xml version="1.0" encoding="UTF-8" ?>
<!DOCTYPE svg PUBLIC "-//W3C//DTD SVG 1.1//EN" "http://www.w3.org/Graphics/SVG/1.1/DTD/svg11.dtd">
<svg width="192pt" height="192pt" viewBox="0 0 192 192" version="1.1" xmlns="http://www.w3.org/2000/svg">
<g id="#ff3661ff">
<path fill="#ff3661" opacity="1.00" d=" M 92.37 12.45 C 117.34 8.62 144.52 17.53 160.97 36.99 C 170.12 47.61 169.93 65.67 158.72 74.75 C 150.57 81.61 138.06 80.40 129.97 74.08 C 120.50 66.75 107.77 62.27 95.92 65.95 C 82.58 69.76 73.29 84.05 75.55 97.81 C 76.85 112.97 92.13 124.65 107.01 123.10 C 115.62 122.43 123.61 118.58 130.43 113.42 C 137.15 108.27 146.68 106.72 154.38 110.59 C 165.05 115.51 170.61 128.78 166.94 139.89 C 163.25 151.31 153.71 159.74 143.70 165.72 C 139.94 168.12 134.67 164.32 135.53 160.01 C 136.05 156.20 140.22 154.98 142.79 152.77 C 149.46 147.74 156.62 140.95 156.71 131.99 C 156.84 123.62 146.82 116.38 139.29 121.25 C 131.53 126.43 123.58 131.81 114.18 133.43 C 96.05 138.15 75.50 128.28 67.72 111.30 C 63.12 100.93 62.57 88.61 67.09 78.11 C 72.32 65.48 84.36 55.94 97.91 53.94 C 111.54 51.53 125.49 56.48 136.29 64.71 C 140.68 68.32 147.98 69.76 152.31 65.31 C 158.28 59.14 156.94 48.72 151.15 42.89 C 132.94 23.08 101.76 17.42 77.40 28.46 C 50.78 39.54 31.55 67.83 33.95 97.00 C 36.53 137.10 77.11 170.32 116.98 164.11 C 123.45 162.60 126.11 173.02 119.84 174.94 C 88.06 180.90 54.95 164.14 37.01 138.01 C 23.75 119.19 18.94 94.45 25.21 72.19 C 33.30 41.39 61.02 17.22 92.37 12.45 Z" />
</g>
</svg>
