<?xml version="1.0" encoding="UTF-8" ?>
<!DOCTYPE svg PUBLIC "-//W3C//DTD SVG 1.1//EN" "http://www.w3.org/Graphics/SVG/1.1/DTD/svg11.dtd">
<svg width="192pt" height="192pt" viewBox="0 0 192 192" version="1.1" xmlns="http://www.w3.org/2000/svg">
<g id="#2abaa2ff">
<path fill="#2abaa2" opacity="1.00" d=" M 132.28 23.65 C 128.59 18.99 135.31 12.21 140.01 15.92 C 150.77 26.17 161.11 36.88 171.68 47.34 C 176.80 52.13 176.95 61.02 171.95 65.95 C 161.90 76.05 151.78 86.08 141.74 96.18 C 151.45 107.09 162.41 116.86 172.47 127.47 C 176.83 132.31 176.69 140.44 172.08 145.08 C 163.29 153.98 154.40 162.78 145.55 171.62 C 141.10 176.28 133.18 176.90 128.12 172.87 C 117.18 162.82 107.41 151.43 96.17 141.74 C 86.04 151.75 76.05 161.90 65.92 171.91 C 60.98 176.84 52.19 176.69 47.40 171.63 C 38.70 162.99 30.04 154.29 21.38 145.61 C 16.77 141.33 15.93 133.69 19.62 128.57 C 29.48 117.29 41.75 107.54 50.90 96.04 C 41.02 85.64 30.55 75.77 20.59 65.43 C 15.98 60.44 16.34 51.93 21.31 47.31 C 30.15 38.47 38.95 29.59 47.85 20.82 C 52.52 16.24 60.68 16.14 65.47 20.59 C 75.81 30.59 85.74 41.02 96.12 50.97 C 105.22 43.91 112.68 34.25 121.55 26.64 C 126.51 23.33 132.66 30.31 128.88 34.84 C 120.88 43.17 112.58 51.23 104.42 59.41 C 100.31 63.76 92.66 63.80 88.53 59.44 C 77.98 49.07 67.72 38.39 57.04 28.15 C 46.89 37.12 37.10 46.84 28.18 57.03 C 38.54 67.92 49.47 78.25 59.93 89.04 C 63.67 93.04 63.64 99.90 59.88 103.89 C 49.45 114.71 38.38 124.95 28.18 135.99 C 36.07 145.00 45.07 153.00 53.35 161.66 C 54.67 162.90 56.63 165.54 58.39 163.36 C 68.50 153.47 78.40 143.34 88.47 133.39 C 92.48 129.17 99.84 128.95 104.01 133.06 C 114.29 143.06 124.27 153.39 134.55 163.40 C 136.36 165.40 138.28 162.81 139.58 161.59 C 147.82 152.94 156.83 144.99 164.65 135.98 C 154.54 124.92 143.46 114.75 133.07 103.95 C 129.23 99.96 129.16 93.05 132.94 89.00 C 143.38 78.18 154.37 67.90 164.65 56.95 C 154.57 45.23 142.66 35.12 132.28 23.65 Z" />
</g>
</svg>
