<?xml version="1.0" encoding="UTF-8" ?>
<!DOCTYPE svg PUBLIC "-//W3C//DTD SVG 1.1//EN" "http://www.w3.org/Graphics/SVG/1.1/DTD/svg11.dtd">
<svg width="192pt" height="192pt" viewBox="0 0 192 192" version="1.1" xmlns="http://www.w3.org/2000/svg">
<g id="#a61affff">
<path fill="#a61aff" opacity="1.00" d=" M 39.31 22.40 C 42.15 21.75 45.09 21.71 48.00 21.71 C 80.99 21.79 113.99 21.65 146.98 21.77 C 159.30 21.69 170.19 32.68 170.11 44.98 C 170.15 78.99 170.20 113.00 170.15 147.01 C 170.48 159.43 159.57 170.87 147.07 170.71 C 112.35 170.70 77.63 170.80 42.92 170.63 C 29.21 170.12 19.16 156.23 21.11 143.00 C 21.17 110.31 21.09 77.62 21.17 44.93 C 21.07 34.40 29.06 24.62 39.31 22.40 M 41.30 33.42 C 35.89 34.87 31.89 40.29 32.32 45.93 C 32.33 79.64 32.31 113.36 32.33 147.07 C 32.02 153.85 38.18 159.85 44.92 159.57 C 78.64 159.61 112.36 159.59 146.07 159.56 C 152.90 159.93 159.10 153.94 158.92 147.09 C 159.01 113.37 158.96 79.65 158.94 45.93 C 159.44 38.42 152.36 32.15 145.01 32.89 C 110.46 33.24 75.79 32.13 41.30 33.42 Z" />
<path fill="#a61aff" opacity="1.00" d=" M 48.55 84.17 C 48.53 80.05 51.77 76.18 55.97 75.95 C 61.53 75.52 67.13 75.73 72.71 75.84 C 72.75 78.44 72.76 81.03 72.72 83.63 C 67.93 83.79 63.11 83.41 58.36 84.18 C 58.23 86.53 58.21 88.88 58.27 91.23 C 61.76 91.54 65.26 91.53 68.76 91.62 C 68.88 94.27 68.92 96.93 68.72 99.57 C 65.29 99.67 61.86 99.54 58.44 99.75 C 58.05 104.92 58.16 110.11 58.18 115.29 C 54.97 115.35 51.77 115.34 48.56 115.28 C 48.42 104.91 48.40 94.53 48.55 84.17 Z" />
<path fill="#a61aff" opacity="1.00" d=" M 76.21 75.85 C 79.37 75.77 82.54 75.76 85.70 75.83 C 85.85 88.98 85.81 102.13 85.76 115.28 C 82.58 115.36 79.39 115.35 76.21 115.21 C 76.08 102.09 76.10 88.97 76.21 75.85 Z" />
<path fill="#a61aff" opacity="1.00" d=" M 89.26 83.97 C 89.21 80.13 92.03 76.40 95.97 76.06 C 101.76 75.40 107.61 75.84 113.43 75.85 C 113.48 78.44 113.51 81.04 113.50 83.63 C 108.76 83.77 104.02 83.60 99.29 83.90 C 99.02 86.23 98.51 88.62 99.20 90.93 C 102.52 91.93 106.04 91.45 109.46 91.62 C 109.60 94.25 109.66 96.89 109.56 99.53 C 106.12 99.67 102.68 99.56 99.25 99.77 C 98.66 104.92 98.84 110.11 98.79 115.29 C 95.60 115.38 92.40 115.35 89.20 115.21 C 89.19 104.80 89.06 94.38 89.26 83.97 Z" />
<path fill="#a61aff" opacity="1.00" d=" M 117.00 83.91 C 116.77 79.11 121.42 75.49 125.99 75.78 C 131.89 75.46 140.99 74.77 142.44 82.38 C 143.02 93.17 142.70 104.03 142.59 114.84 C 139.64 115.94 136.31 115.15 133.21 115.19 C 133.09 110.85 133.21 106.51 133.08 102.16 C 131.45 101.93 129.81 101.72 128.18 101.49 C 128.03 99.15 128.05 96.81 128.25 94.47 C 129.87 94.20 131.49 93.94 133.12 93.69 C 133.17 90.38 133.08 87.06 132.73 83.77 C 130.63 84.06 126.46 82.73 126.62 86.01 C 126.18 95.78 126.80 105.58 126.39 115.35 C 123.23 115.37 120.08 115.33 116.93 115.22 C 116.87 104.78 116.75 94.34 117.00 83.91 Z" />
</g>
</svg>
