<?xml version="1.0" encoding="UTF-8" ?>
<!DOCTYPE svg PUBLIC "-//W3C//DTD SVG 1.1//EN" "http://www.w3.org/Graphics/SVG/1.1/DTD/svg11.dtd">
<svg width="192pt" height="192pt" viewBox="0 0 192 192" version="1.1" xmlns="http://www.w3.org/2000/svg">
<g id="#ff3661ff">
<path fill="#ff3661" opacity="1.00" d=" M 82.36 11.44 C 114.22 5.85 148.02 21.79 164.74 49.30 C 177.74 69.91 181.06 96.66 172.61 119.59 C 169.50 125.45 159.85 120.53 162.70 114.48 C 172.97 83.67 159.09 47.19 130.74 31.27 C 111.12 19.57 85.92 18.74 65.28 28.30 C 59.73 30.80 55.01 22.39 59.80 18.80 C 66.68 14.84 74.59 12.87 82.36 11.44 Z" />
<path fill="#ff3661" opacity="1.00" d=" M 28.38 22.43 C 30.71 21.46 33.03 22.83 35.08 23.84 C 62.64 38.36 90.33 52.64 117.87 67.20 C 122.08 69.07 121.82 75.93 117.41 77.37 C 107.71 80.57 97.51 82.44 87.96 85.99 C 84.81 95.74 82.69 105.83 79.55 115.59 C 78.00 119.93 71.05 119.89 69.40 115.63 C 54.83 87.54 40.35 59.40 25.79 31.31 C 23.72 28.30 24.76 23.63 28.38 22.43 M 43.58 41.08 C 53.26 60.00 63.00 78.89 72.87 97.72 C 75.27 90.99 75.95 83.56 79.23 77.22 C 85.48 73.50 93.22 73.04 100.01 70.49 C 81.14 60.80 62.42 50.82 43.58 41.08 Z" />
<path fill="#ff3661" opacity="1.00" d=" M 23.34 59.30 C 28.60 58.36 31.39 64.78 28.79 68.85 C 17.29 99.24 30.11 136.33 57.95 153.08 C 76.54 164.92 100.68 167.05 121.16 159.02 C 127.31 156.04 131.99 166.07 126.05 169.03 C 95.26 182.39 56.88 173.34 34.74 148.26 C 15.27 127.12 8.41 95.50 17.16 68.14 C 18.32 64.80 19.10 59.93 23.34 59.30 Z" />
<path fill="#ff3661" opacity="1.00" d=" M 122.56 86.57 C 119.75 80.26 130.18 75.83 132.75 82.21 C 143.51 106.52 154.08 130.92 164.66 155.30 C 167.27 159.84 161.75 165.50 157.18 162.90 C 132.88 152.19 108.52 141.58 84.29 130.69 C 78.26 128.03 82.45 117.92 88.62 120.45 C 108.72 129.00 128.60 138.12 148.68 146.74 C 140.01 126.67 131.07 106.70 122.56 86.57 Z" />
</g>
</svg>
