<?xml version="1.0" encoding="UTF-8" ?>
<!DOCTYPE svg PUBLIC "-//W3C//DTD SVG 1.1//EN" "http://www.w3.org/Graphics/SVG/1.1/DTD/svg11.dtd">
<svg width="192pt" height="192pt" viewBox="0 0 192 192" version="1.1" xmlns="http://www.w3.org/2000/svg">
<g id="#7f475fff">
<path fill="#7f475f" opacity="1.00" d=" M 83.40 12.50 C 103.86 9.64 125.34 14.80 142.16 26.83 C 163.95 42.04 177.65 68.35 176.76 95.01 C 176.87 124.16 159.33 152.13 133.72 165.74 C 112.44 177.35 85.99 178.73 63.57 169.54 C 39.13 159.75 20.12 137.55 14.38 111.83 C 10.09 93.30 12.60 73.27 21.40 56.40 C 23.11 52.09 29.95 51.93 31.88 56.13 C 33.83 59.46 31.17 62.90 29.93 65.95 C 17.91 92.42 25.13 125.88 46.84 145.18 C 70.45 167.81 110.17 169.98 136.21 150.25 C 160.96 132.82 171.64 98.46 161.00 70.09 C 153.55 49.01 135.41 32.10 113.86 26.15 C 89.88 19.12 62.50 26.16 44.91 43.92 C 40.48 49.13 31.60 42.32 35.75 36.71 C 48.11 23.39 65.45 14.96 83.40 12.50 Z" />
<path fill="#7f475f" opacity="1.00" d=" M 124.34 55.34 C 128.98 52.69 135.44 57.08 133.52 62.40 C 128.53 79.03 123.30 95.59 118.23 112.19 C 117.64 114.78 115.57 116.69 113.00 117.25 C 96.30 122.26 79.68 127.51 62.97 132.45 C 58.67 133.92 54.17 129.28 55.71 125.04 C 60.70 108.34 65.93 91.72 71.06 75.06 C 71.64 72.57 73.59 70.66 76.08 70.10 C 92.17 65.19 108.26 60.29 124.34 55.34 M 81.87 80.89 C 78.12 92.93 74.25 104.94 70.81 117.07 C 83.22 114.42 95.18 109.85 107.39 106.37 C 111.17 94.24 115.01 82.13 118.54 69.92 C 106.19 73.12 94.10 77.28 81.87 80.89 Z" />
</g>
</svg>
