<?xml version="1.0" encoding="UTF-8" ?>
<!DOCTYPE svg PUBLIC "-//W3C//DTD SVG 1.1//EN" "http://www.w3.org/Graphics/SVG/1.1/DTD/svg11.dtd">
<svg width="192pt" height="192pt" viewBox="0 0 192 192" version="1.1" xmlns="http://www.w3.org/2000/svg">
<g id="#958599ff">
<path fill="#958599" opacity="1.00" d=" M 84.39 14.51 C 117.87 9.24 153.17 27.43 168.51 57.59 C 184.72 87.51 179.37 127.22 155.69 151.69 C 132.25 177.44 91.76 185.03 60.57 169.54 C 28.92 154.91 9.36 118.55 14.86 84.06 C 19.28 48.84 49.18 18.96 84.39 14.51 M 87.37 25.48 C 65.26 27.96 44.97 41.80 34.22 61.22 C 24.40 78.54 22.65 100.09 29.18 118.86 C 39.08 148.70 70.68 169.37 102.03 166.00 C 131.46 163.99 157.84 141.33 164.55 112.65 C 170.04 91.03 164.51 66.97 149.94 50.04 C 134.95 31.95 110.65 22.54 87.37 25.48 Z" />
<path fill="#958599" opacity="1.00" d=" M 129.34 58.42 C 131.82 56.66 134.91 59.82 133.24 62.26 C 127.21 74.53 121.07 86.76 114.90 98.96 C 113.31 102.65 107.99 103.73 105.14 100.85 C 100.38 96.29 95.74 91.58 91.14 86.86 C 88.05 84.08 88.83 78.45 92.67 76.78 C 104.86 70.60 117.09 64.47 129.34 58.42 Z" />
<path fill="#958599" opacity="1.00" d=" M 80.22 89.31 C 82.86 88.01 85.91 89.13 87.77 91.22 C 92.26 95.75 96.89 100.14 101.25 104.80 C 104.01 107.60 103.04 112.86 99.42 114.47 C 87.24 120.66 75.00 126.78 62.74 132.82 C 60.31 134.78 56.98 131.33 58.82 128.91 C 64.52 117.26 70.46 105.71 76.18 94.06 C 77.13 92.21 78.15 90.12 80.22 89.31 Z" />
</g>
</svg>
