<?xml version="1.0" encoding="UTF-8" ?>
<!DOCTYPE svg PUBLIC "-//W3C//DTD SVG 1.1//EN" "http://www.w3.org/Graphics/SVG/1.1/DTD/svg11.dtd">
<svg width="192pt" height="192pt" viewBox="0 0 192 192" version="1.1" xmlns="http://www.w3.org/2000/svg">
<g id="#c6cacaff">
<path fill="#c6caca" opacity="1.00" d=" M 39.30 24.38 C 42.47 23.62 45.76 23.72 49.00 23.72 C 81.66 23.77 114.32 23.68 146.98 23.75 C 159.24 23.65 170.00 34.75 169.86 46.94 C 169.86 78.60 170.08 110.29 169.78 141.94 C 169.36 148.10 159.28 148.21 158.85 142.01 C 158.52 110.32 158.90 78.61 158.68 46.92 C 158.67 40.31 152.61 34.64 146.04 34.89 C 112.35 34.83 78.65 34.78 44.96 34.87 C 38.43 34.73 32.51 40.48 32.59 47.03 C 32.45 78.68 32.78 110.35 32.45 141.99 C 31.98 148.22 21.83 148.03 21.55 141.82 C 21.34 110.20 21.51 78.57 21.48 46.94 C 21.41 36.52 29.14 26.72 39.30 24.38 Z" />
<path fill="#c6caca" opacity="1.00" d=" M 57.29 76.36 C 61.24 70.09 69.35 69.62 76.01 69.76 C 82.40 69.94 89.64 68.85 95.12 72.90 C 99.54 76.40 98.98 82.61 98.61 87.63 C 94.47 87.74 90.33 87.71 86.19 87.66 C 85.71 85.33 85.85 81.69 82.65 81.47 C 77.75 81.19 71.42 79.72 67.60 83.65 C 64.59 89.24 64.40 95.88 63.53 102.06 C 62.99 105.06 64.54 108.79 67.97 108.93 C 73.54 109.60 82.53 110.47 83.32 102.85 C 87.50 102.54 91.70 102.56 95.88 102.83 C 94.82 109.13 93.20 117.10 86.17 119.23 C 77.76 121.28 68.80 121.13 60.29 119.74 C 52.43 118.04 50.02 108.90 51.19 101.91 C 52.45 93.30 52.76 84.04 57.29 76.36 Z" />
<path fill="#c6caca" opacity="1.00" d=" M 105.91 70.31 C 117.82 70.40 129.75 70.10 141.66 70.45 C 141.03 74.19 140.70 78.00 139.65 81.65 C 135.85 82.59 131.87 81.89 128.00 82.16 C 125.59 94.89 123.62 107.70 121.17 120.42 C 117.05 120.65 112.93 120.62 108.82 120.40 C 110.79 107.60 113.42 94.92 115.37 82.11 C 111.54 82.12 107.70 82.14 103.87 81.91 C 104.32 78.01 104.95 74.12 105.91 70.31 Z" />
<path fill="#c6caca" opacity="1.00" d=" M 25.36 155.53 C 34.51 155.24 43.69 155.30 52.84 155.48 C 58.61 156.17 58.79 165.30 53.05 166.28 C 44.04 166.57 34.99 166.48 25.97 166.32 C 20.12 165.99 19.63 156.49 25.36 155.53 Z" />
<path fill="#c6caca" opacity="1.00" d=" M 80.50 155.68 C 89.91 155.08 99.42 155.30 108.85 155.46 C 114.51 156.25 114.63 165.23 109.02 166.30 C 100.02 166.65 90.97 166.46 81.95 166.36 C 76.39 166.09 75.39 157.52 80.50 155.68 Z" />
<path fill="#c6caca" opacity="1.00" d=" M 137.37 155.53 C 146.51 155.30 155.69 155.27 164.83 155.50 C 170.44 156.35 170.57 165.07 165.05 166.27 C 156.02 166.58 146.96 166.47 137.93 166.31 C 131.96 166.03 131.58 156.41 137.37 155.53 Z" />
</g>
</svg>
