<?xml version="1.0" encoding="UTF-8" ?>
<!DOCTYPE svg PUBLIC "-//W3C//DTD SVG 1.1//EN" "http://www.w3.org/Graphics/SVG/1.1/DTD/svg11.dtd">
<svg width="192pt" height="192pt" viewBox="0 0 192 192" version="1.1" xmlns="http://www.w3.org/2000/svg">
<g id="#42e274ff">
<path fill="#42e274" opacity="1.00" d=" M 36.15 40.91 C 36.54 26.93 49.01 14.71 63.02 14.75 C 84.67 14.75 106.32 14.68 127.96 14.77 C 142.25 14.80 155.00 27.64 154.78 41.95 C 154.82 69.64 154.82 97.34 154.79 125.03 C 155.03 135.43 148.54 145.07 139.52 149.89 C 143.22 156.06 148.00 161.59 151.12 168.09 C 153.48 173.61 144.99 178.28 141.59 173.42 C 136.75 165.97 131.59 158.72 126.78 151.26 C 123.95 147.46 126.33 141.84 130.89 140.95 C 138.03 139.17 143.67 132.53 143.49 125.06 C 143.61 97.35 143.61 69.64 143.49 41.93 C 143.51 33.37 135.64 25.68 127.04 26.13 C 105.33 26.19 83.62 26.05 61.91 26.19 C 53.17 26.73 46.57 35.44 47.36 43.98 C 47.35 71.01 47.36 98.04 47.39 125.07 C 47.33 132.52 52.82 139.25 60.01 141.01 C 64.11 141.83 66.96 146.72 64.56 150.46 C 59.66 158.21 54.27 165.65 49.37 173.39 C 46.21 177.89 38.39 174.33 39.54 168.97 C 42.27 161.97 47.57 156.35 51.35 149.90 C 41.87 145.02 35.81 134.64 36.04 124.01 C 36.11 96.31 35.90 68.61 36.15 40.91 Z" />
<path fill="#42e274" opacity="1.00" d=" M 63.26 33.25 C 82.06 31.76 101.09 33.01 119.98 32.60 C 127.38 32.06 135.16 37.26 135.85 44.97 C 136.66 54.59 136.72 64.32 135.81 73.94 C 135.14 81.17 128.02 86.19 121.05 85.98 C 104.71 86.39 88.35 85.95 72.01 86.21 C 65.04 86.74 56.35 84.33 54.48 76.65 C 53.09 67.20 54.02 57.55 53.82 48.02 C 53.45 41.77 56.91 34.96 63.26 33.25 M 65.40 44.37 C 64.92 53.88 64.97 63.43 65.29 72.94 C 65.19 74.89 67.63 74.56 68.90 74.78 C 85.95 74.86 103.01 74.78 120.06 74.63 C 121.94 74.66 124.83 74.48 124.67 71.90 C 125.34 63.64 125.30 55.30 124.71 47.04 C 124.83 43.49 120.42 43.91 118.01 43.80 C 100.48 44.20 82.87 43.10 65.40 44.37 Z" />
<path fill="#42e274" opacity="1.00" d=" M 72.39 121.51 C 77.32 119.05 83.68 123.52 82.94 128.99 C 82.79 134.76 75.11 137.99 70.83 134.19 C 66.47 131.01 67.39 123.53 72.39 121.51 Z" />
<path fill="#42e274" opacity="1.00" d=" M 113.41 121.53 C 118.71 118.78 125.45 124.20 123.88 129.94 C 122.99 135.55 115.13 137.85 111.33 133.68 C 107.60 130.30 108.76 123.47 113.41 121.53 Z" />
<path fill="#42e274" opacity="1.00" d=" M 68.40 154.62 C 86.45 154.37 104.55 154.33 122.60 154.63 C 128.84 155.38 128.29 165.84 121.90 165.66 C 104.04 165.73 86.16 165.87 68.30 165.58 C 62.37 164.92 62.42 155.18 68.40 154.62 Z" />
</g>
</svg>
