<?xml version="1.0" encoding="UTF-8" ?>
<!DOCTYPE svg PUBLIC "-//W3C//DTD SVG 1.1//EN" "http://www.w3.org/Graphics/SVG/1.1/DTD/svg11.dtd">
<svg width="192pt" height="192pt" viewBox="0 0 192 192" version="1.1" xmlns="http://www.w3.org/2000/svg">
<g id="#5f6f81ff">
<path fill="#5f6f81" opacity="1.00" d=" M 41.35 26.44 C 43.83 25.74 46.43 25.64 49.00 25.66 C 80.65 25.71 112.30 25.60 143.95 25.71 C 155.52 25.93 165.41 36.51 165.18 48.02 C 165.19 80.01 165.23 112.01 165.16 144.01 C 165.18 155.29 155.42 165.59 144.07 165.75 C 111.70 165.86 79.33 165.79 46.96 165.77 C 35.30 166.12 24.90 155.64 25.00 144.04 C 24.95 112.02 25.05 80.00 25.02 47.98 C 24.74 38.19 31.88 28.87 41.35 26.44 M 44.39 36.53 C 39.31 37.71 35.44 42.73 35.52 47.94 C 35.47 79.64 35.51 111.35 35.51 143.06 C 35.12 149.39 40.60 155.39 47.01 155.25 C 79.00 155.27 111.00 155.26 142.99 155.23 C 149.05 155.40 154.49 150.05 154.53 144.01 C 154.58 111.99 154.56 79.96 154.55 47.93 C 154.71 41.82 149.26 36.04 143.07 36.31 C 110.18 36.45 77.25 36.00 44.39 36.53 Z" />
<path fill="#5f6f81" opacity="1.00" d=" M 55.60 70.48 C 52.54 65.60 59.22 59.65 63.67 63.23 C 73.94 72.99 83.79 83.20 93.84 93.19 C 95.43 94.30 94.86 96.48 93.48 97.48 C 83.10 107.75 72.94 118.25 62.42 128.36 C 57.84 132.05 51.25 125.35 54.74 120.72 C 62.88 111.98 71.67 103.84 79.87 95.15 C 72.04 86.67 63.31 79.03 55.60 70.48 Z" />
<path fill="#5f6f81" opacity="1.00" d=" M 95.39 118.58 C 109.12 118.36 122.88 118.41 136.61 118.55 C 142.18 119.35 142.46 127.90 137.03 129.24 C 123.35 129.47 109.66 129.39 95.98 129.28 C 89.95 129.09 89.37 119.36 95.39 118.58 Z" />
</g>
</svg>
