<?xml version="1.0" encoding="UTF-8" ?>
<!DOCTYPE svg PUBLIC "-//W3C//DTD SVG 1.1//EN" "http://www.w3.org/Graphics/SVG/1.1/DTD/svg11.dtd">
<svg width="192pt" height="192pt" viewBox="0 0 192 192" version="1.1" xmlns="http://www.w3.org/2000/svg">
<g id="#96644cff">
<path fill="#96644c" opacity="1.00" d=" M 85.38 14.47 C 117.07 9.74 150.39 25.81 166.74 53.30 C 180.29 75.14 182.57 103.67 172.24 127.25 C 169.14 133.05 159.27 128.27 162.27 122.15 C 170.85 100.67 168.50 74.90 155.09 55.89 C 142.06 36.76 119.26 24.43 96.01 25.15 C 71.09 24.66 47.00 39.19 34.74 60.70 C 24.00 79.19 22.76 102.53 30.67 122.30 C 33.48 128.35 23.87 132.89 20.76 127.27 C 9.95 102.79 12.91 72.97 27.78 50.79 C 40.61 31.18 62.12 17.52 85.38 14.47 Z" />
<path fill="#96644c" opacity="1.00" d=" M 64.01 69.10 C 68.16 55.02 82.38 44.85 97.03 45.29 C 112.62 45.47 127.12 57.66 129.63 73.12 C 132.14 85.17 126.76 97.51 117.89 105.61 C 135.38 112.29 149.26 126.98 155.47 144.56 C 156.29 147.25 157.41 150.77 154.92 152.95 C 142.49 165.82 125.62 174.26 107.92 176.77 C 83.05 180.45 56.56 172.04 38.78 154.16 C 36.23 151.59 35.96 147.55 37.28 144.31 C 43.57 126.86 57.34 112.03 74.93 105.67 C 64.70 96.87 59.66 82.12 64.01 69.10 M 93.44 56.61 C 81.14 58.02 71.57 70.77 73.94 82.99 C 75.62 93.85 86.08 102.34 97.04 101.85 C 108.50 101.62 118.81 91.57 118.98 80.05 C 119.84 66.61 106.77 54.55 93.44 56.61 M 89.44 113.63 C 73.00 115.97 57.76 126.47 50.65 141.63 C 49.48 144.87 49.95 148.97 52.66 151.32 C 77.95 171.96 117.98 171.06 142.22 149.17 C 145.30 145.90 142.04 141.73 140.40 138.63 C 130.59 120.95 109.36 110.84 89.44 113.63 Z" />
</g>
</svg>
