<?xml version="1.0" encoding="UTF-8" ?>
<!DOCTYPE svg PUBLIC "-//W3C//DTD SVG 1.1//EN" "http://www.w3.org/Graphics/SVG/1.1/DTD/svg11.dtd">
<svg width="192pt" height="192pt" viewBox="0 0 192 192" version="1.1" xmlns="http://www.w3.org/2000/svg">
<g id="#ed32b1ff">
<path fill="#ed32b1" opacity="1.00" d=" M 85.39 14.49 C 117.07 9.74 150.39 25.82 166.73 53.30 C 180.28 75.14 182.54 103.66 172.22 127.23 C 169.64 132.13 161.15 129.59 161.82 123.99 C 162.94 119.26 165.08 114.81 165.86 109.98 C 172.34 81.25 158.36 49.79 132.97 35.02 C 113.85 23.38 89.13 21.73 68.59 30.57 C 52.36 37.45 38.90 50.59 31.63 66.64 C 23.73 84.06 23.59 104.59 30.64 122.32 C 33.33 128.33 23.88 132.80 20.78 127.25 C 11.00 105.02 12.46 78.33 24.07 57.05 C 36.23 34.21 59.69 17.82 85.39 14.49 Z" />
<path fill="#ed32b1" opacity="1.00" d=" M 64.01 69.11 C 68.27 54.68 83.09 44.38 98.09 45.33 C 113.91 46.02 128.22 59.06 129.87 74.91 C 131.62 86.44 126.27 97.96 117.78 105.59 C 135.12 112.10 148.84 126.56 155.22 143.83 C 156.12 146.72 157.54 150.52 154.91 152.93 C 140.62 167.71 120.50 176.62 99.97 177.47 C 77.76 178.60 55.22 170.21 39.29 154.67 C 36.39 152.11 35.84 147.78 37.28 144.31 C 43.61 126.84 57.37 112.01 74.99 105.64 C 64.72 96.88 59.69 82.13 64.01 69.11 M 92.45 56.71 C 80.55 58.64 71.56 71.11 73.91 83.02 C 75.62 93.88 86.09 102.36 97.05 101.86 C 108.89 101.62 119.41 90.88 119.01 78.97 C 119.20 65.54 105.70 54.03 92.45 56.71 M 89.42 113.59 C 73.95 115.84 59.49 125.14 51.96 138.98 C 49.39 142.60 49.12 148.23 52.65 151.33 C 77.96 171.95 117.95 171.05 142.21 149.17 C 145.28 145.90 142.07 141.73 140.41 138.63 C 130.62 120.93 109.35 110.78 89.42 113.59 Z" />
</g>
</svg>
