<?xml version="1.0" encoding="UTF-8" ?>
<!DOCTYPE svg PUBLIC "-//W3C//DTD SVG 1.1//EN" "http://www.w3.org/Graphics/SVG/1.1/DTD/svg11.dtd">
<svg width="192pt" height="192pt" viewBox="0 0 192 192" version="1.1" xmlns="http://www.w3.org/2000/svg">
<g id="#a51affff">
<path fill="#a51aff" opacity="1.00" d=" M 85.37 14.47 C 117.07 9.74 150.39 25.81 166.72 53.31 C 180.26 75.14 182.52 103.66 172.20 127.22 C 169.07 132.99 159.29 128.20 162.27 122.12 C 171.07 100.21 168.38 73.82 154.29 54.71 C 140.99 35.92 118.13 24.13 95.02 25.10 C 65.81 24.91 38.13 45.45 29.14 73.13 C 23.62 89.30 24.63 107.27 30.88 123.08 C 32.65 128.91 23.61 132.46 20.74 127.24 C 11.50 106.15 12.29 81.01 22.35 60.34 C 33.99 35.82 58.43 17.94 85.37 14.47 Z" />
<path fill="#a51aff" opacity="1.00" d=" M 89.10 46.09 C 104.62 42.31 121.82 51.57 127.64 66.36 C 133.55 79.93 128.64 96.04 117.85 105.65 C 135.17 112.13 148.83 126.61 155.21 143.85 C 156.12 146.72 157.51 150.50 154.90 152.91 C 142.25 165.95 125.08 174.48 107.07 176.82 C 82.45 180.24 56.39 171.77 38.80 154.15 C 36.25 151.59 35.96 147.54 37.27 144.30 C 43.60 126.86 57.34 111.99 74.96 105.67 C 66.11 97.89 60.85 85.83 62.87 74.01 C 64.75 60.44 75.75 48.93 89.10 46.09 M 92.47 56.71 C 80.57 58.64 71.57 71.11 73.92 83.02 C 75.66 94.23 86.78 102.85 98.06 101.80 C 109.51 101.02 119.39 90.53 119.01 78.98 C 119.21 65.55 105.71 54.04 92.47 56.71 M 89.43 113.59 C 73.96 115.84 59.49 125.14 51.96 138.98 C 49.38 142.60 49.12 148.23 52.65 151.34 C 77.97 171.96 117.96 171.06 142.23 149.19 C 145.31 145.92 142.08 141.72 140.42 138.62 C 130.62 120.92 109.36 110.77 89.43 113.59 Z" />
</g>
</svg>
