<?xml version="1.0" encoding="UTF-8" ?>
<!DOCTYPE svg PUBLIC "-//W3C//DTD SVG 1.1//EN" "http://www.w3.org/Graphics/SVG/1.1/DTD/svg11.dtd">
<svg width="192pt" height="192pt" viewBox="0 0 192 192" version="1.1" xmlns="http://www.w3.org/2000/svg">
<g id="#45e372ff">
<path fill="#45e372" opacity="1.00" d=" M 85.37 14.46 C 116.56 9.83 149.36 25.28 165.93 52.03 C 180.15 74.04 182.73 103.19 172.21 127.22 C 169.37 132.56 160.13 128.91 162.03 123.01 C 169.64 103.97 169.21 81.63 159.63 63.36 C 147.86 40.45 122.91 24.66 96.99 25.11 C 75.18 24.45 53.61 35.18 40.35 52.40 C 25.51 70.87 21.55 97.19 29.67 119.37 C 30.44 121.70 31.80 124.23 30.53 126.65 C 28.87 130.86 22.01 130.83 20.39 126.60 C 11.58 105.58 12.35 80.82 22.34 60.34 C 33.98 35.82 58.42 17.93 85.37 14.46 Z" />
<path fill="#45e372" opacity="1.00" d=" M 64.00 69.10 C 68.25 54.66 83.09 44.37 98.08 45.32 C 113.28 46.02 127.17 58.03 129.60 73.13 C 132.11 85.19 126.72 97.53 117.83 105.61 C 135.13 112.15 148.83 126.58 155.20 143.84 C 156.10 146.72 157.55 150.51 154.90 152.92 C 142.45 165.76 125.63 174.23 107.93 176.71 C 83.06 180.44 56.59 171.99 38.79 154.16 C 36.25 151.60 35.95 147.55 37.27 144.31 C 43.59 126.85 57.35 112.00 74.97 105.65 C 64.69 96.89 59.68 82.12 64.00 69.10 M 92.47 56.73 C 80.59 58.66 71.59 71.12 73.93 83.02 C 75.67 94.22 86.77 102.85 98.05 101.80 C 109.50 101.04 119.39 90.54 119.01 78.98 C 119.20 65.56 105.70 54.06 92.47 56.73 M 89.43 113.60 C 73.96 115.86 59.51 125.16 51.97 139.00 C 49.40 142.61 49.14 148.23 52.65 151.33 C 77.96 171.96 117.96 171.07 142.23 149.20 C 145.31 145.92 142.09 141.72 140.42 138.61 C 130.62 120.92 109.36 110.79 89.43 113.60 Z" />
</g>
</svg>
