<?xml version="1.0" encoding="UTF-8" ?>
<!DOCTYPE svg PUBLIC "-//W3C//DTD SVG 1.1//EN" "http://www.w3.org/Graphics/SVG/1.1/DTD/svg11.dtd">
<svg width="192pt" height="192pt" viewBox="0 0 192 192" version="1.1" xmlns="http://www.w3.org/2000/svg">
<g id="#ff547fff">
<path fill="#ff547f" opacity="1.00" d=" M 106.39 13.48 C 120.77 10.92 135.90 17.99 143.93 30.03 C 152.30 42.06 152.52 58.70 145.51 71.42 C 139.40 82.46 134.16 94.30 132.92 106.99 C 132.68 111.70 128.58 115.63 123.86 115.62 C 115.96 115.77 108.04 115.85 100.15 115.55 C 95.67 115.34 92.09 111.42 91.81 107.03 C 90.35 93.94 84.75 81.84 78.69 70.32 C 73.69 60.82 72.48 49.26 76.06 39.09 C 80.61 25.96 92.66 15.73 106.39 13.48 M 86.51 43.40 C 84.13 50.59 85.22 58.65 88.76 65.27 C 95.26 77.56 101.03 90.51 102.87 104.41 C 109.19 104.54 115.52 104.31 121.85 104.46 C 123.41 89.86 129.87 76.48 136.71 63.70 C 143.80 49.39 135.88 30.38 120.60 25.60 C 106.84 20.56 90.70 29.70 86.51 43.40 Z" />
<path fill="#ff547f" opacity="1.00" d=" M 26.12 85.92 C 25.76 79.71 30.63 73.79 37.01 73.68 C 46.99 73.49 57.01 73.35 66.99 73.74 C 72.49 74.86 72.27 83.87 66.70 84.60 C 56.94 85.10 47.14 84.39 37.39 84.95 C 37.30 111.62 37.37 138.30 37.41 164.97 C 76.44 165.36 115.52 165.31 154.55 164.96 C 154.66 137.98 154.40 110.98 154.68 84.00 C 155.17 77.77 165.33 77.90 165.71 84.11 C 165.91 110.75 165.80 137.41 165.79 164.06 C 166.22 170.68 160.62 176.59 153.98 176.45 C 115.39 176.63 76.78 176.59 38.18 176.46 C 31.48 176.61 25.88 170.74 26.13 164.08 C 25.97 138.03 26.03 111.97 26.12 85.92 Z" />
<path fill="#ff547f" opacity="1.00" d=" M 59.79 131.06 C 50.39 125.17 54.80 108.97 66.03 109.19 C 77.55 108.28 82.70 124.92 73.06 131.03 C 76.76 133.13 80.37 136.00 81.85 140.14 C 82.86 143.11 80.19 146.46 77.07 146.23 C 70.03 146.27 62.99 146.27 55.95 146.23 C 52.73 146.57 49.84 143.20 50.93 140.10 C 52.43 135.96 56.00 133.04 59.79 131.06 Z" />
<path fill="#ff547f" opacity="1.00" d=" M 99.20 121.06 C 107.09 120.33 115.10 120.86 123.04 120.78 C 125.27 120.31 127.47 122.70 125.63 124.60 C 118.98 131.86 105.99 131.83 99.03 124.99 C 97.67 124.09 97.45 121.67 99.20 121.06 Z" />
</g>
</svg>
