<?xml version="1.0" encoding="UTF-8" ?>
<!DOCTYPE svg PUBLIC "-//W3C//DTD SVG 1.1//EN" "http://www.w3.org/Graphics/SVG/1.1/DTD/svg11.dtd">
<svg width="192pt" height="192pt" viewBox="0 0 192 192" version="1.1" xmlns="http://www.w3.org/2000/svg">
<g id="#ff517dff">
<path fill="#ff517d" opacity="1.00" d=" M 31.89 28.07 C 29.57 24.26 32.52 18.91 36.98 18.86 C 46.66 18.58 56.36 18.80 66.05 18.75 C 69.78 18.52 73.15 20.98 74.68 24.28 C 80.98 36.48 87.27 48.69 93.56 60.89 C 100.24 48.42 106.66 35.80 113.35 23.34 C 114.98 20.21 118.51 18.49 121.97 18.73 C 131.65 18.84 141.34 18.50 151.01 18.91 C 155.53 19.19 158.09 24.85 155.57 28.55 C 142.95 49.91 130.07 71.12 117.24 92.36 C 130.59 114.10 144.34 135.60 157.71 157.32 C 160.48 161.13 157.93 167.26 153.04 167.37 C 143.03 167.67 133.00 167.40 122.98 167.51 C 119.17 167.79 115.59 165.42 114.02 162.01 C 109.34 152.96 104.23 144.13 99.85 134.95 C 97.99 129.60 105.77 125.35 109.32 129.68 C 114.56 138.27 118.74 147.49 123.78 156.20 C 130.44 156.14 137.10 156.21 143.76 156.16 C 131.62 136.66 119.39 117.22 107.26 97.72 C 105.05 94.62 105.02 90.38 107.19 87.26 C 118.69 68.24 130.18 49.21 141.55 30.12 C 135.16 30.14 128.77 30.08 122.39 30.15 C 114.63 45.12 106.76 60.04 98.90 74.95 C 96.77 78.90 90.26 78.84 88.16 74.88 C 80.43 59.98 72.82 45.02 65.05 30.14 C 58.71 30.09 52.37 30.13 46.03 30.12 C 57.55 49.22 69.07 68.32 80.59 87.42 C 82.44 90.25 82.87 94.04 80.95 96.96 C 69.10 116.74 57.19 136.48 45.28 156.22 C 51.57 156.20 57.86 156.18 64.15 156.12 C 72.25 141.18 80.01 126.05 88.21 111.17 C 91.63 105.74 100.81 110.94 97.81 116.69 C 90.00 131.83 81.82 146.78 73.90 161.87 C 72.48 164.92 69.54 167.43 66.04 167.43 C 56.35 167.42 46.66 167.59 36.97 167.48 C 31.94 167.81 28.53 161.57 31.46 157.49 C 44.41 135.88 57.33 114.25 70.47 92.75 C 57.97 70.99 44.47 49.79 31.89 28.07 Z" />
</g>
</svg>
