<?xml version="1.0" encoding="UTF-8" ?>
<!DOCTYPE svg PUBLIC "-//W3C//DTD SVG 1.1//EN" "http://www.w3.org/Graphics/SVG/1.1/DTD/svg11.dtd">
<svg width="192pt" height="192pt" viewBox="0 0 192 192" version="1.1" xmlns="http://www.w3.org/2000/svg">
<g id="#ff3661ff">
<path fill="#ff3661" opacity="1.00" d=" M 22.07 43.94 C 21.79 32.16 32.26 21.59 44.03 21.72 C 78.68 21.65 113.33 21.62 147.97 21.72 C 159.32 21.67 169.58 31.55 169.79 42.93 C 169.83 49.58 170.05 56.25 169.69 62.89 C 169.37 66.09 165.86 67.46 163.03 67.20 C 126.67 67.10 90.30 67.39 53.95 67.06 C 47.45 66.95 47.63 56.31 54.15 56.48 C 89.18 56.28 124.23 56.47 159.27 56.38 C 159.17 51.59 159.58 46.77 159.05 42.00 C 158.25 36.32 152.73 32.04 147.06 32.33 C 113.02 32.31 78.98 32.31 44.93 32.32 C 38.49 31.85 32.48 37.50 32.65 43.98 C 32.61 78.32 32.63 112.66 32.65 147.00 C 32.40 153.56 38.39 159.36 44.93 158.95 C 78.98 158.97 113.03 158.98 147.08 158.94 C 153.58 159.28 159.49 153.53 159.24 147.01 C 159.43 125.40 159.04 103.77 159.43 82.16 C 159.90 76.55 169.15 76.54 169.70 82.12 C 170.06 103.75 169.77 125.41 169.85 147.06 C 170.28 158.85 159.85 169.58 148.06 169.52 C 113.36 169.58 78.65 169.56 43.95 169.52 C 32.10 169.66 21.68 158.86 22.05 147.05 C 22.03 112.68 22.03 78.31 22.07 43.94 Z" />
</g>
</svg>
