<?xml version="1.0" encoding="UTF-8" ?>
<!DOCTYPE svg PUBLIC "-//W3C//DTD SVG 1.1//EN" "http://www.w3.org/Graphics/SVG/1.1/DTD/svg11.dtd">
<svg width="192pt" height="192pt" viewBox="0 0 192 192" version="1.1" xmlns="http://www.w3.org/2000/svg">
<g id="#ff623cff">
<path fill="#ff623c" opacity="1.00" d=" M 65.09 40.04 C 75.69 26.56 96.99 24.07 110.54 34.52 C 115.50 37.87 118.59 43.02 121.77 47.92 C 125.97 45.51 130.25 43.06 135.02 41.98 C 147.91 38.65 161.90 45.01 169.70 55.38 C 179.10 68.46 177.12 88.34 165.32 99.32 C 158.42 105.79 148.81 109.11 139.39 108.45 C 137.34 115.76 137.53 123.48 136.05 130.90 C 135.45 134.07 132.14 135.99 129.06 135.67 C 107.37 135.55 85.66 135.90 63.98 135.60 C 59.73 135.85 56.61 130.63 59.07 127.08 C 61.14 123.63 65.63 124.48 69.01 124.38 C 88.01 124.25 107.04 124.72 126.04 124.13 C 127.70 112.56 128.69 100.89 130.54 89.35 C 131.07 84.67 138.18 83.64 140.28 87.70 C 141.62 90.71 140.57 94.14 140.65 97.31 C 154.54 98.74 167.14 85.08 164.59 71.35 C 162.93 58.83 149.19 49.74 137.02 53.05 C 130.00 55.27 125.29 61.34 120.80 66.80 C 118.31 69.61 113.26 68.65 111.76 65.27 C 109.70 61.52 114.35 57.80 112.05 54.09 C 107.84 40.89 90.74 35.06 79.08 42.18 C 73.41 45.27 70.11 51.16 68.29 57.15 C 67.71 57.48 66.54 58.12 65.96 58.44 C 60.28 54.07 53.47 50.44 46.04 51.57 C 32.33 52.56 22.52 67.94 27.22 80.83 C 30.00 90.55 39.64 96.02 49.22 96.84 C 47.58 115.03 44.50 133.07 42.87 151.25 C 69.43 151.45 96.11 151.92 122.64 151.00 C 123.05 148.21 123.53 144.61 126.69 143.61 C 130.55 142.06 134.81 146.00 133.76 150.00 C 133.10 154.38 134.09 161.85 128.02 162.40 C 97.68 162.53 67.34 162.59 37.00 162.44 C 33.43 162.82 30.39 159.51 31.11 155.99 C 32.84 139.96 35.33 124.01 36.96 107.98 C 37.58 104.63 33.50 104.02 31.47 102.47 C 21.31 96.90 15.11 85.53 15.24 74.03 C 14.19 54.57 33.63 37.41 52.83 40.52 C 56.98 40.50 62.31 45.11 65.09 40.04 Z" />
</g>
</svg>
