<?xml version="1.0" encoding="UTF-8" ?>
<!DOCTYPE svg PUBLIC "-//W3C//DTD SVG 1.1//EN" "http://www.w3.org/Graphics/SVG/1.1/DTD/svg11.dtd">
<svg width="192pt" height="192pt" viewBox="0 0 192 192" version="1.1" xmlns="http://www.w3.org/2000/svg">
<g id="#f65a7bff">
<path fill="#f65a7b" opacity="1.00" d=" M 20.11 41.95 C 19.89 29.71 30.79 18.69 43.03 18.77 C 52.36 18.78 61.70 18.61 71.02 18.84 C 76.74 19.26 77.32 28.45 71.72 29.60 C 62.15 30.13 52.54 29.52 42.96 29.87 C 36.75 30.10 31.12 35.62 31.28 41.93 C 31.23 75.97 31.26 110.02 31.27 144.06 C 31.00 150.82 37.29 156.80 44.01 156.35 C 77.67 156.34 111.33 156.34 144.99 156.34 C 151.69 156.73 157.83 150.77 157.66 144.08 C 157.70 110.03 157.73 75.97 157.66 41.92 C 157.75 34.86 150.87 29.21 144.00 29.79 C 136.11 30.10 128.14 29.18 120.31 30.31 C 120.05 46.55 120.33 62.80 120.17 79.04 C 120.50 81.08 118.10 83.14 116.28 81.78 C 113.00 79.51 110.66 76.02 106.94 74.35 C 103.56 77.01 100.55 80.10 97.05 82.61 C 95.54 81.93 93.85 80.97 94.22 79.03 C 94.18 61.66 94.18 44.29 94.23 26.92 C 93.97 22.67 97.68 18.69 101.97 18.78 C 116.64 18.70 131.31 18.73 145.97 18.77 C 158.18 18.75 169.01 29.74 168.80 41.95 C 168.85 75.98 168.85 110.02 168.81 144.05 C 169.16 156.33 158.33 167.43 146.07 167.50 C 111.69 167.57 77.31 167.55 42.94 167.50 C 30.62 167.48 19.77 156.36 20.09 144.04 C 20.07 110.01 20.05 75.97 20.11 41.95 Z" />
<path fill="#f65a7b" opacity="1.00" d=" M 48.20 112.13 C 78.03 111.03 108.08 111.91 138.00 111.65 C 145.11 110.86 146.06 122.50 138.96 122.97 C 109.64 123.26 80.28 123.15 50.95 123.02 C 44.95 123.51 42.63 114.46 48.20 112.13 Z" />
<path fill="#f65a7b" opacity="1.00" d=" M 48.38 134.47 C 78.50 133.42 108.87 134.21 139.08 134.08 C 145.49 134.53 145.43 144.97 139.01 145.30 C 109.34 145.48 79.66 145.45 49.99 145.29 C 44.39 145.05 43.10 136.36 48.38 134.47 Z" />
</g>
</svg>
