<?xml version="1.0" encoding="UTF-8" ?>
<!DOCTYPE svg PUBLIC "-//W3C//DTD SVG 1.1//EN" "http://www.w3.org/Graphics/SVG/1.1/DTD/svg11.dtd">
<svg width="192pt" height="192pt" viewBox="0 0 192 192" version="1.1" xmlns="http://www.w3.org/2000/svg">
<g id="#b01df0ff">
<path fill="#b01df0" opacity="1.00" d=" M 85.30 14.40 C 118.77 9.50 153.81 28.01 168.85 58.25 C 184.67 88.09 179.19 127.40 155.69 151.68 C 131.93 177.84 90.59 185.18 59.24 168.87 C 27.98 153.73 9.10 117.24 15.03 82.97 C 19.92 47.88 50.11 18.44 85.30 14.40 M 87.36 25.46 C 63.27 28.12 41.43 44.36 31.55 66.43 C 18.20 94.76 26.76 131.24 51.46 150.54 C 77.41 172.45 119.16 171.18 143.69 147.68 C 167.55 126.63 173.64 88.83 157.74 61.30 C 144.33 36.54 115.30 21.72 87.36 25.46 Z" />
<path fill="#b01df0" opacity="1.00" d=" M 90.49 51.69 C 108.84 48.83 128.08 59.61 135.43 76.60 C 142.68 92.17 139.21 111.91 127.00 124.01 C 116.21 135.36 98.94 139.71 84.00 135.10 C 67.29 130.27 54.58 114.33 53.65 96.94 C 51.72 75.25 68.90 54.24 90.49 51.69 M 88.38 63.55 C 72.51 67.33 61.67 84.74 65.46 100.65 C 68.57 117.25 86.52 129.01 102.99 125.00 C 119.74 121.84 131.49 103.55 127.16 87.01 C 123.74 70.17 104.90 58.69 88.38 63.55 Z" />
</g>
</svg>
