<?xml version="1.0" encoding="UTF-8" ?>
<!DOCTYPE svg PUBLIC "-//W3C//DTD SVG 1.1//EN" "http://www.w3.org/Graphics/SVG/1.1/DTD/svg11.dtd">
<svg width="192pt" height="192pt" viewBox="0 0 192 192" version="1.1" xmlns="http://www.w3.org/2000/svg">
<g id="#ff3662ff">
<path fill="#ff3662" opacity="1.00" d=" M 85.13 20.00 C 88.08 17.30 90.38 13.65 94.06 11.91 C 99.76 10.82 102.52 17.30 106.22 20.40 C 110.55 18.75 114.90 13.75 119.80 16.06 C 123.15 18.69 124.18 23.17 126.27 26.73 C 130.88 26.32 136.52 22.81 140.52 26.49 C 142.91 29.94 142.78 34.45 143.76 38.42 C 148.32 39.47 154.74 37.75 157.61 42.39 C 159.02 46.33 157.42 50.61 157.29 54.68 C 161.73 56.91 170.07 57.29 169.49 63.99 C 167.80 68.48 166.83 75.50 161.00 76.17 C 156.14 76.05 154.14 70.38 156.35 66.51 C 153.44 65.20 150.12 64.50 147.70 62.32 C 144.50 58.97 146.17 54.05 146.40 49.98 C 142.56 49.50 137.79 50.29 134.97 47.01 C 132.79 44.21 132.83 40.44 132.06 37.12 C 128.74 37.68 125.38 38.94 121.99 38.25 C 117.86 36.87 116.64 32.20 114.67 28.80 C 111.29 30.30 108.08 33.13 104.17 32.67 C 100.13 32.18 98.71 27.21 95.16 26.09 C 92.24 28.31 90.10 32.26 86.00 32.31 C 82.38 32.12 79.47 29.64 76.40 27.98 C 74.38 31.34 73.08 35.95 68.96 37.28 C 65.49 37.87 62.10 36.36 58.68 35.93 C 57.89 38.98 57.64 42.28 56.04 45.05 C 53.32 48.86 48.13 47.56 44.14 47.97 C 44.05 51.42 44.73 55.09 43.26 58.34 C 41.32 62.01 36.86 62.77 33.30 64.07 C 33.87 66.53 35.28 69.28 33.76 71.68 C 31.84 75.62 25.30 75.30 23.89 71.09 C 22.46 67.33 20.16 63.53 20.40 59.40 C 22.00 54.19 28.60 54.29 32.81 52.41 C 32.89 48.35 31.72 44.13 32.85 40.17 C 35.71 35.28 42.32 37.41 46.97 36.66 C 48.59 32.13 47.63 24.93 53.33 23.27 C 57.30 23.19 61.06 24.79 64.91 25.57 C 67.70 21.60 68.91 14.31 74.99 14.55 C 78.67 15.72 81.77 18.15 85.13 20.00 Z" />
<path fill="#ff3662" opacity="1.00" d=" M 17.49 83.35 C 19.22 77.36 27.19 78.97 31.91 79.33 C 36.78 79.94 36.79 85.73 36.64 89.49 C 34.93 89.50 33.21 89.50 31.50 89.49 C 31.21 87.69 30.92 85.89 30.62 84.09 C 28.10 83.99 24.50 82.46 22.83 85.09 C 22.29 90.25 22.22 95.54 23.17 100.66 C 27.75 101.92 32.33 100.59 31.55 95.02 C 39.32 92.26 37.67 105.24 31.60 105.32 C 26.97 105.53 19.47 107.13 17.56 101.44 C 16.70 95.48 16.79 89.31 17.49 83.35 Z" />
<path fill="#ff3662" opacity="1.00" d=" M 44.28 79.36 C 48.57 78.85 53.55 78.18 57.38 80.60 C 60.49 84.65 58.95 90.26 59.35 95.00 C 59.55 98.96 59.26 105.03 54.04 105.35 C 49.74 105.49 44.06 106.79 40.90 103.09 C 38.83 98.73 39.86 93.68 39.61 89.01 C 39.57 85.42 39.70 79.99 44.28 79.36 M 45.43 84.31 C 45.14 89.68 45.02 95.09 45.54 100.45 C 48.06 100.70 50.94 101.66 53.24 100.12 C 54.42 94.96 53.70 89.56 53.52 84.32 C 50.87 83.48 48.08 83.50 45.43 84.31 Z" />
<path fill="#ff3662" opacity="1.00" d=" M 63.08 79.34 C 64.76 79.31 66.44 79.30 68.12 79.30 C 68.80 85.97 67.88 92.72 68.67 99.37 C 70.05 101.89 74.00 101.07 76.32 100.31 C 77.94 93.46 76.36 86.24 77.21 79.25 C 78.95 79.30 80.69 79.37 82.43 79.47 C 81.80 87.47 84.39 96.41 80.75 103.77 C 75.49 106.83 63.17 107.64 62.99 99.06 C 62.77 92.50 62.76 85.91 63.08 79.34 Z" />
<path fill="#ff3662" opacity="1.00" d=" M 86.85 79.32 C 92.20 79.65 98.22 78.08 103.07 80.91 C 105.98 84.36 105.27 89.56 104.56 93.71 C 103.01 98.93 96.41 97.55 92.26 97.80 C 92.23 100.27 92.19 102.75 92.14 105.22 C 90.34 105.24 88.55 105.23 86.75 105.21 C 86.60 96.59 86.44 87.94 86.85 79.32 M 92.22 84.03 C 92.22 87.04 92.22 90.06 92.21 93.08 C 94.40 93.01 96.63 93.20 98.76 92.61 C 99.93 90.12 99.92 86.93 98.72 84.45 C 96.58 84.06 94.39 84.11 92.22 84.03 Z" />
<path fill="#ff3662" opacity="1.00" d=" M 112.36 79.33 C 114.78 79.66 118.85 78.01 119.57 81.34 C 122.00 89.29 124.58 97.22 126.57 105.30 C 124.75 105.28 122.93 105.23 121.11 105.17 C 120.61 103.58 120.11 101.99 119.61 100.40 C 116.99 100.43 114.38 100.44 111.77 100.45 C 111.25 102.09 110.72 103.73 110.19 105.36 C 108.35 105.29 106.50 105.21 104.66 105.12 C 106.86 96.43 109.52 87.84 112.36 79.33 M 115.72 86.05 C 114.72 89.32 113.81 92.62 112.94 95.93 C 114.81 95.96 116.68 95.99 118.55 96.03 C 117.64 92.69 116.71 89.36 115.72 86.05 Z" />
<path fill="#ff3662" opacity="1.00" d=" M 129.19 79.19 C 130.91 79.56 133.48 78.53 134.46 80.46 C 137.21 85.10 139.33 90.09 141.91 94.82 C 142.04 89.63 141.83 84.43 142.21 79.24 C 143.95 79.29 145.69 79.36 147.43 79.47 C 147.53 88.13 147.75 96.80 147.32 105.46 C 138.93 106.13 138.70 94.94 134.49 89.75 C 134.48 94.94 134.56 100.13 134.36 105.32 C 132.59 105.27 130.82 105.22 129.06 105.14 C 128.94 96.49 128.75 87.83 129.19 79.19 Z" />
<path fill="#ff3662" opacity="1.00" d=" M 152.42 81.41 C 155.99 77.75 162.08 78.79 166.67 79.46 C 170.92 80.40 170.82 85.45 170.86 88.88 C 169.10 88.91 167.35 88.91 165.59 88.89 C 165.30 87.24 164.99 85.61 164.68 83.97 C 162.28 83.87 159.64 83.09 157.40 84.29 C 156.35 89.48 156.05 95.31 157.56 100.41 C 161.43 102.09 166.44 100.78 165.60 95.69 C 164.31 95.49 163.01 95.28 161.72 95.08 C 161.77 93.80 161.83 92.52 161.91 91.24 C 164.84 91.18 167.78 91.18 170.72 91.28 C 170.73 96.10 172.37 104.51 165.60 105.35 C 160.85 105.67 152.67 107.05 151.52 100.63 C 151.34 94.30 150.20 87.47 152.42 81.41 Z" />
<path fill="#ff3662" opacity="1.00" d=" M 23.11 113.03 C 24.72 109.33 30.42 109.13 32.53 112.47 C 34.51 114.96 33.04 118.08 32.21 120.70 C 35.75 122.17 40.37 122.85 42.23 126.65 C 43.49 129.99 42.40 133.64 42.20 137.09 C 45.70 137.51 49.70 137.03 52.63 139.35 C 55.72 141.95 55.69 146.35 56.54 149.99 C 60.60 149.38 65.34 147.12 68.99 150.05 C 71.36 152.32 72.41 155.56 73.93 158.40 C 76.88 156.93 79.66 154.77 83.02 154.39 C 87.62 154.31 90.20 158.78 93.13 161.62 C 95.41 159.39 97.39 156.76 100.15 155.12 C 104.63 153.25 108.45 157.28 112.18 159.13 C 114.17 155.93 115.45 151.71 119.14 150.08 C 122.74 148.95 126.40 150.70 129.92 151.40 C 130.89 147.62 130.90 142.83 134.55 140.48 C 137.63 138.81 141.29 139.11 144.67 138.81 C 144.67 135.38 143.85 131.64 145.49 128.45 C 147.50 125.00 151.77 124.34 155.19 123.01 C 153.56 119.27 155.32 113.76 160.03 113.93 C 165.98 114.15 166.86 121.58 168.36 126.03 C 168.63 132.52 160.52 132.72 156.07 134.60 C 155.78 138.64 156.93 142.86 155.84 146.78 C 153.08 151.85 146.37 149.64 141.70 150.29 C 140.59 154.25 140.63 158.78 138.22 162.23 C 134.11 165.94 128.40 162.19 123.80 161.50 C 121.54 165.00 120.36 169.51 116.87 172.02 C 111.84 173.95 107.76 169.01 103.48 167.12 C 99.96 170.13 97.38 176.12 92.00 175.43 C 87.69 174.02 85.90 169.18 82.08 167.02 C 77.76 168.41 73.77 173.29 68.92 171.17 C 65.44 168.58 64.45 163.93 62.26 160.35 C 57.58 160.80 51.48 164.64 47.69 160.25 C 45.75 156.69 45.78 152.44 44.74 148.58 C 40.02 147.85 32.88 149.54 30.65 144.00 C 30.11 140.17 31.06 136.34 31.39 132.53 C 27.15 130.13 19.61 130.09 19.04 124.00 C 19.69 120.14 21.48 116.56 23.11 113.03 Z" />
</g>
</svg>
