<?xml version="1.0" encoding="UTF-8" ?>
<!DOCTYPE svg PUBLIC "-//W3C//DTD SVG 1.1//EN" "http://www.w3.org/Graphics/SVG/1.1/DTD/svg11.dtd">
<svg width="192pt" height="192pt" viewBox="0 0 192 192" version="1.1" xmlns="http://www.w3.org/2000/svg">
<g id="#4a70c3ff">
<path fill="#4a70c3" opacity="1.00" d=" M 46.42 57.56 C 58.03 55.28 70.50 58.99 79.54 66.44 C 84.04 71.46 76.91 79.65 71.40 75.62 C 60.97 67.49 44.32 66.87 34.86 76.86 C 22.87 87.39 24.94 109.23 38.41 117.58 C 49.18 124.08 64.00 122.89 73.32 114.30 C 89.35 99.97 96.25 77.74 113.99 65.02 C 127.97 54.55 149.16 53.93 162.92 65.12 C 174.60 74.36 180.07 90.43 176.96 104.92 C 172.96 120.31 159.15 133.35 142.94 134.35 C 128.81 135.86 114.28 129.63 105.39 118.63 C 102.37 113.92 108.00 107.57 113.02 109.83 C 116.72 112.08 119.55 115.54 123.39 117.61 C 134.56 124.81 150.90 122.87 159.37 112.42 C 169.01 100.19 165.58 79.76 151.35 72.62 C 139.30 66.43 124.12 70.42 115.37 80.37 C 100.20 96.82 92.20 120.88 70.76 130.84 C 56.02 137.50 37.11 135.17 25.59 123.41 C 13.56 111.33 10.81 91.13 19.35 76.34 C 24.90 66.36 35.32 59.66 46.42 57.56 Z" />
</g>
</svg>
