<?xml version="1.0" encoding="UTF-8" ?>
<!DOCTYPE svg PUBLIC "-//W3C//DTD SVG 1.1//EN" "http://www.w3.org/Graphics/SVG/1.1/DTD/svg11.dtd">
<svg width="192pt" height="192pt" viewBox="0 0 192 192" version="1.1" xmlns="http://www.w3.org/2000/svg">
<g id="#ff633bff">
<path fill="#ff633b" opacity="1.00" d=" M 40.43 18.64 C 75.28 17.95 110.19 18.53 145.07 18.34 C 157.14 17.80 168.48 27.85 169.11 39.97 C 169.26 47.29 169.43 54.65 169.04 61.97 C 168.18 67.23 160.00 67.71 158.44 62.66 C 157.47 55.15 158.66 47.51 157.86 39.98 C 157.12 33.85 151.12 29.11 145.00 29.53 C 111.33 29.56 77.66 29.51 44.00 29.55 C 38.07 29.37 32.52 34.11 31.75 39.98 C 31.08 47.41 32.09 54.92 31.29 62.33 C 30.08 67.49 21.90 67.49 20.71 62.33 C 20.07 55.57 20.60 48.73 20.45 41.94 C 20.18 30.64 29.23 20.11 40.43 18.64 Z" />
<path fill="#ff633b" opacity="1.00" d=" M 28.34 78.41 C 32.06 77.18 36.55 76.89 39.97 79.08 C 42.39 80.52 41.93 84.44 39.38 85.42 C 37.00 85.73 34.62 84.97 32.24 85.24 C 27.78 86.54 27.33 93.51 31.16 95.82 C 33.84 97.52 36.99 95.79 39.89 96.06 C 42.58 97.03 43.06 101.16 40.42 102.52 C 35.06 105.66 27.39 104.41 23.38 99.61 C 17.97 93.17 20.07 81.38 28.34 78.41 Z" />
<path fill="#ff633b" opacity="1.00" d=" M 43.44 82.00 C 43.30 79.97 44.83 77.90 46.98 77.97 C 51.49 77.71 56.92 77.10 60.44 80.56 C 63.77 84.39 62.87 90.43 59.36 93.85 C 60.79 95.86 62.18 97.89 63.50 99.97 C 65.95 93.39 68.65 86.88 71.46 80.44 C 72.65 76.74 78.41 76.57 79.76 80.24 C 82.53 86.81 85.71 93.30 87.86 100.09 C 87.89 106.19 79.29 104.47 79.36 99.10 C 76.80 98.75 74.22 98.75 71.67 99.15 C 71.34 103.65 65.45 106.25 63.35 101.39 C 58.85 108.23 53.70 99.80 51.41 95.60 C 51.13 98.35 52.14 102.63 48.77 103.83 C 46.31 105.10 43.10 102.75 43.43 100.03 C 43.34 94.02 43.32 88.00 43.44 82.00 M 51.36 85.28 C 51.33 85.94 51.27 87.27 51.24 87.93 C 51.92 87.90 53.27 87.84 53.95 87.81 C 53.91 87.21 53.82 86.00 53.78 85.40 C 53.18 85.37 51.97 85.31 51.36 85.28 Z" />
<path fill="#ff633b" opacity="1.00" d=" M 95.28 78.24 C 99.53 76.97 106.79 76.59 108.15 82.01 C 107.90 86.53 103.08 85.52 100.02 85.19 C 94.66 84.83 93.37 93.05 97.38 95.65 C 100.17 97.76 103.68 95.52 106.75 96.21 C 109.19 97.53 109.25 101.49 106.65 102.67 C 101.18 105.66 93.53 104.32 89.61 99.40 C 84.34 92.76 86.73 80.84 95.28 78.24 Z" />
<path fill="#ff633b" opacity="1.00" d=" M 109.86 81.93 C 109.39 78.81 113.11 76.36 115.77 78.09 C 118.37 79.47 117.42 82.90 117.88 85.26 C 119.90 82.77 121.48 79.80 124.12 77.89 C 126.74 76.47 130.24 79.00 129.24 81.94 C 127.84 84.99 125.34 87.33 123.32 89.96 C 125.48 93.05 128.11 95.84 129.89 99.18 C 131.11 102.21 127.13 105.54 124.36 103.65 C 121.55 101.50 119.93 98.20 117.78 95.44 C 117.67 97.67 117.89 99.96 117.28 102.14 C 115.72 105.22 110.38 104.57 109.98 101.03 C 109.64 94.68 109.85 88.29 109.86 81.93 Z" />
<path fill="#ff633b" opacity="1.00" d=" M 131.94 80.10 C 134.21 76.35 139.44 78.29 143.05 77.86 C 146.16 77.20 149.29 80.51 147.51 83.46 C 145.77 86.87 141.16 84.15 138.75 86.51 C 141.83 86.89 147.20 86.50 146.99 91.02 C 146.66 95.18 141.81 94.45 138.86 94.87 C 141.12 97.67 146.06 94.72 147.88 98.23 C 149.70 101.43 146.24 104.55 143.06 103.80 C 139.41 103.28 133.35 105.55 131.78 100.96 C 131.53 94.03 131.29 87.01 131.94 80.10 Z" />
<path fill="#ff633b" opacity="1.00" d=" M 150.95 80.97 C 151.01 76.85 157.81 76.35 158.50 80.38 C 158.98 85.64 158.53 90.94 158.71 96.21 C 162.02 96.38 167.99 95.10 168.24 100.02 C 168.10 104.89 162.26 103.68 159.00 103.84 C 156.28 103.62 151.71 104.68 151.05 100.93 C 150.61 94.30 150.78 87.61 150.95 80.97 Z" />
<path fill="#ff633b" opacity="1.00" d=" M 23.35 119.31 C 26.51 117.40 31.15 119.66 31.43 123.38 C 31.88 130.57 31.24 137.81 31.70 145.01 C 32.16 151.10 37.84 156.10 43.91 155.98 C 77.63 156.03 111.35 155.99 145.07 155.99 C 151.33 156.36 157.48 151.38 157.93 145.03 C 158.45 137.73 157.72 130.39 158.25 123.09 C 158.76 119.09 164.22 117.18 167.18 119.90 C 170.18 122.33 169.00 126.64 169.25 130.00 C 168.81 138.19 170.67 147.05 166.54 154.60 C 162.53 162.50 153.80 167.48 144.98 167.25 C 111.32 167.24 77.66 167.31 44.00 167.21 C 34.95 167.27 26.19 161.70 22.55 153.40 C 19.14 146.07 20.86 137.79 20.42 130.00 C 20.60 126.39 19.42 121.37 23.35 119.31 Z" />
</g>
</svg>
