<?xml version="1.0" encoding="UTF-8" ?>
<!DOCTYPE svg PUBLIC "-//W3C//DTD SVG 1.1//EN" "http://www.w3.org/Graphics/SVG/1.1/DTD/svg11.dtd">
<svg width="192pt" height="192pt" viewBox="0 0 192 192" version="1.1" xmlns="http://www.w3.org/2000/svg">
<g id="#526f6cff">
<path fill="#526f6c" opacity="1.00" d=" M 101.36 20.37 C 112.71 17.12 125.40 18.54 135.58 24.61 C 137.65 18.85 145.59 16.33 150.04 20.97 C 154.43 24.98 152.83 32.11 147.99 34.99 C 152.85 41.67 156.24 49.39 157.33 57.62 C 162.40 58.21 170.97 55.29 172.66 62.12 C 173.01 75.42 172.75 88.75 172.79 102.06 C 172.98 109.87 167.44 116.88 160.32 119.65 C 159.71 128.92 161.09 138.58 157.56 147.44 C 152.32 162.05 137.55 172.64 121.98 172.58 C 89.66 172.63 57.33 172.62 25.01 172.56 C 21.46 172.89 18.66 169.45 19.01 166.06 C 19.02 153.35 18.99 140.64 19.05 127.93 C 19.04 119.88 24.85 112.99 32.11 110.09 C 32.35 102.13 31.23 93.96 33.35 86.17 C 37.43 69.93 53.07 57.77 69.78 57.57 C 71.85 40.37 84.59 25.01 101.36 20.37 M 105.96 31.02 C 93.34 33.88 83.48 44.90 81.35 57.57 C 102.81 57.70 124.28 57.58 145.74 57.62 C 143.26 39.45 123.75 26.21 105.96 31.02 M 63.82 69.74 C 52.45 72.40 43.58 83.25 43.37 94.94 C 43.30 99.76 43.35 104.59 43.36 109.41 C 79.93 109.48 116.50 109.40 153.06 109.43 C 157.32 109.90 161.54 106.32 161.53 101.99 C 161.65 91.07 161.56 80.14 161.56 69.21 C 137.09 68.26 112.51 69.06 88.00 68.78 C 79.94 69.05 71.76 68.04 63.82 69.74 M 30.39 128.94 C 30.32 139.64 30.41 150.35 30.34 161.06 C 60.54 161.49 90.76 161.13 120.97 161.20 C 131.57 161.47 141.95 154.88 146.17 145.15 C 149.74 137.48 148.37 128.81 148.51 120.64 C 112.00 120.68 75.49 120.65 38.98 120.63 C 34.40 120.08 30.05 124.37 30.39 128.94 Z" />
</g>
</svg>
