<?xml version="1.0" encoding="UTF-8" ?>
<!DOCTYPE svg PUBLIC "-//W3C//DTD SVG 1.1//EN" "http://www.w3.org/Graphics/SVG/1.1/DTD/svg11.dtd">
<svg width="192pt" height="192pt" viewBox="0 0 192 192" version="1.1" xmlns="http://www.w3.org/2000/svg">
<g id="#45e372ff">
<path fill="#45e372" opacity="1.00" d=" M 40.28 21.31 C 70.77 19.97 101.44 21.11 132.00 20.73 C 139.14 21.02 146.42 20.00 153.46 21.52 C 163.35 24.08 170.91 33.68 170.82 43.94 C 170.88 77.98 170.87 112.02 170.83 146.06 C 171.16 158.35 160.34 169.47 148.06 169.52 C 113.69 169.59 79.31 169.57 44.94 169.52 C 32.61 169.51 21.78 158.37 22.06 146.05 C 22.04 112.02 22.02 77.97 22.08 43.94 C 21.97 33.37 30.00 23.55 40.28 21.31 M 42.28 32.35 C 37.23 33.75 33.19 38.59 33.30 43.92 C 33.24 77.97 33.28 112.02 33.28 146.07 C 33.04 152.80 39.28 158.77 46.00 158.33 C 79.66 158.33 113.33 158.33 147.00 158.32 C 153.70 158.69 159.81 152.76 159.65 146.07 C 159.69 112.02 159.72 77.97 159.64 43.92 C 159.71 36.88 152.87 31.24 146.01 31.82 C 111.45 32.19 76.77 31.11 42.28 32.35 Z" />
<path fill="#45e372" opacity="1.00" d=" M 54.95 66.93 C 61.46 63.77 68.96 64.57 75.97 64.53 C 81.43 64.79 88.26 65.37 91.31 70.65 C 94.09 76.07 94.22 82.50 93.42 88.42 C 89.70 88.58 85.42 89.65 82.02 87.98 C 80.11 84.11 82.77 76.51 76.64 75.53 C 71.62 75.45 62.43 73.17 61.54 80.36 C 61.08 90.17 61.12 100.05 61.53 109.85 C 62.41 117.14 71.81 114.93 76.89 114.72 C 83.42 113.59 79.22 104.96 82.72 101.79 C 86.28 101.70 93.82 99.45 93.84 104.97 C 93.83 110.68 93.83 117.27 89.74 121.75 C 85.22 125.78 78.70 125.70 73.00 125.78 C 66.67 125.67 59.76 126.33 54.11 122.88 C 49.43 119.57 48.88 113.23 48.62 107.98 C 48.57 99.00 48.48 90.02 48.67 81.04 C 49.02 75.93 49.93 69.60 54.95 66.93 Z" />
<path fill="#45e372" opacity="1.00" d=" M 102.53 66.51 C 105.61 64.47 111.39 64.44 114.43 66.57 C 115.30 74.21 114.54 81.98 114.81 89.68 C 117.86 89.71 120.92 89.73 123.98 89.78 C 126.75 82.87 129.14 75.81 131.74 68.84 C 133.26 63.07 140.86 65.35 145.18 65.96 C 143.19 75.98 137.97 85.06 135.20 94.86 C 138.44 104.77 143.60 114.01 146.43 124.06 C 142.14 125.46 134.32 127.08 132.62 121.38 C 129.81 114.45 127.20 107.43 124.26 100.54 C 121.11 100.55 117.96 100.55 114.81 100.57 C 114.64 108.51 115.12 116.47 114.52 124.40 C 110.63 125.03 101.90 127.38 102.16 121.09 C 102.41 102.91 101.68 84.63 102.53 66.51 Z" />
</g>
</svg>
