<?xml version="1.0" encoding="UTF-8" ?>
<!DOCTYPE svg PUBLIC "-//W3C//DTD SVG 1.1//EN" "http://www.w3.org/Graphics/SVG/1.1/DTD/svg11.dtd">
<svg width="192pt" height="192pt" viewBox="0 0 192 192" version="1.1" xmlns="http://www.w3.org/2000/svg">
<g id="#8a8269ff">
<path fill="#8a8269" opacity="1.00" d=" M 84.41 14.55 C 104.88 11.59 126.39 16.70 143.22 28.74 C 165.30 44.17 178.95 70.99 177.77 97.99 C 177.48 128.34 158.20 157.17 130.75 169.84 C 109.31 179.98 83.45 180.13 61.91 170.17 C 31.80 156.77 11.77 123.90 14.24 90.94 C 15.58 53.05 46.82 19.15 84.41 14.55 M 87.38 25.48 C 64.34 28.12 43.26 43.02 32.92 63.75 C 22.34 84.17 22.84 109.81 34.12 129.84 C 48.02 155.68 79.07 170.72 107.97 165.27 C 138.03 160.49 162.97 134.28 166.14 103.98 C 168.83 82.42 160.82 59.89 145.08 44.91 C 130.08 30.08 108.27 22.96 87.38 25.48 Z" />
<path fill="#8a8269" opacity="1.00" d=" M 91.79 62.79 C 91.06 58.33 92.19 51.78 98.00 52.06 C 103.52 52.33 104.14 58.55 103.79 62.82 C 109.47 64.05 115.89 65.77 119.31 70.86 C 122.18 75.77 115.45 81.79 110.98 78.12 C 103.96 72.77 93.70 71.68 85.93 75.96 C 81.61 78.41 81.51 85.68 86.45 87.48 C 96.77 91.28 108.80 89.48 118.34 95.68 C 127.28 101.45 127.73 115.35 120.94 122.94 C 116.99 127.44 111.15 129.80 105.32 130.57 C 102.71 130.92 103.99 134.26 103.63 136.02 C 103.96 140.36 98.38 143.86 94.74 141.24 C 91.08 139.33 91.81 134.73 91.72 131.29 C 84.17 130.28 76.31 127.61 71.41 121.47 C 68.56 117.86 71.50 112.07 76.02 111.97 C 79.53 111.75 81.46 115.18 84.19 116.76 C 91.23 120.99 100.56 121.46 107.96 117.88 C 112.70 115.80 114.65 108.37 109.98 105.20 C 100.27 99.07 87.52 102.40 77.74 96.27 C 68.58 90.95 67.96 76.50 75.57 69.59 C 79.96 65.44 85.98 63.77 91.79 62.79 Z" />
</g>
</svg>
