<?xml version="1.0" encoding="UTF-8" ?>
<!DOCTYPE svg PUBLIC "-//W3C//DTD SVG 1.1//EN" "http://www.w3.org/Graphics/SVG/1.1/DTD/svg11.dtd">
<svg width="192pt" height="192pt" viewBox="0 0 192 192" version="1.1" xmlns="http://www.w3.org/2000/svg">
<g id="#dda439ff">
<path fill="#dda439" opacity="1.00" d=" M 73.86 19.80 C 99.01 8.44 130.73 9.96 152.94 27.09 C 157.84 31.05 163.80 36.07 163.08 43.07 C 162.69 48.83 157.62 52.53 153.01 55.11 C 171.45 77.24 171.69 112.02 153.11 134.13 C 159.67 137.25 165.24 144.69 162.25 152.16 C 157.53 162.20 146.52 166.90 136.92 171.08 C 113.52 181.16 85.49 178.53 63.87 165.29 C 40.30 151.10 24.16 124.66 23.73 96.99 C 22.96 64.26 44.27 33.02 73.86 19.80 M 81.72 28.77 C 50.63 40.64 29.02 75.71 36.33 108.88 C 40.60 129.02 54.01 146.99 72.04 156.91 C 89.60 166.68 111.58 168.84 130.39 161.38 C 138.25 158.24 146.72 154.90 152.00 147.93 C 147.72 142.59 140.31 141.57 134.11 139.74 C 130.81 138.52 127.99 141.39 124.86 141.95 C 106.97 146.72 86.87 147.72 69.99 139.00 C 52.81 131.94 42.78 112.97 42.18 95.01 C 42.05 79.36 51.32 64.77 63.25 55.24 C 83.13 42.41 109.48 41.19 131.00 50.67 C 138.21 48.44 146.19 47.02 152.03 41.90 C 134.86 22.61 104.87 19.66 81.72 28.77 M 59.46 76.43 C 47.27 93.17 55.78 118.46 73.26 127.75 C 84.11 132.65 96.27 134.84 108.12 133.49 C 94.40 129.50 79.85 123.74 71.52 111.44 C 63.75 100.15 65.64 83.84 75.16 74.15 C 84.39 64.90 97.02 60.32 109.22 56.46 C 90.97 54.95 69.27 59.29 59.46 76.43 M 127.20 63.70 C 137.41 71.41 143.87 84.15 142.76 97.06 C 142.67 108.99 135.24 119.05 126.71 126.63 C 131.46 127.42 136.12 128.69 140.85 129.58 C 159.73 111.77 159.82 78.80 141.65 60.41 C 136.72 59.78 132.00 62.74 127.20 63.70 M 106.33 69.41 C 98.17 72.12 89.98 75.68 83.68 81.67 C 77.11 87.94 75.94 99.10 81.70 106.27 C 87.79 113.79 97.00 118.28 106.18 120.74 C 118.05 120.81 128.68 110.98 130.63 99.43 C 133.98 85.17 121.45 67.72 106.33 69.41 Z" />
</g>
</svg>
