<?xml version="1.0" encoding="UTF-8" ?>
<!DOCTYPE svg PUBLIC "-//W3C//DTD SVG 1.1//EN" "http://www.w3.org/Graphics/SVG/1.1/DTD/svg11.dtd">
<svg width="192pt" height="192pt" viewBox="0 0 192 192" version="1.1" xmlns="http://www.w3.org/2000/svg">
<g id="#458465ff">
<path fill="#458465" opacity="1.00" d=" M 84.38 13.50 C 105.30 10.59 127.26 16.16 144.23 28.76 C 165.30 44.08 178.43 69.89 177.76 96.00 C 178.00 126.41 159.31 155.79 132.00 168.98 C 111.48 179.30 86.60 180.33 65.27 171.84 C 39.63 161.92 19.84 138.32 14.69 111.29 C 10.51 90.49 14.67 68.11 26.33 50.34 C 39.10 30.39 60.88 16.56 84.38 13.50 M 27.40 74.36 C 20.44 96.97 25.42 123.28 41.29 141.02 C 52.42 117.28 80.18 102.80 105.99 107.95 C 124.85 111.04 141.39 124.02 149.78 141.08 C 165.65 122.67 170.77 95.92 163.06 72.91 C 154.01 44.29 125.17 23.11 95.00 24.17 C 64.62 23.48 35.84 45.33 27.40 74.36 M 49.99 149.81 C 75.14 171.72 115.81 171.56 140.99 149.79 C 134.18 131.49 115.57 118.41 96.00 118.48 C 76.09 117.95 56.89 131.16 49.99 149.81 Z" />
<path fill="#458465" opacity="1.00" d=" M 91.30 35.35 C 101.77 33.76 112.86 38.39 119.28 46.77 C 128.54 58.26 127.39 76.47 116.56 86.55 C 106.08 97.46 87.23 98.12 75.99 88.01 C 66.41 80.07 62.80 65.94 67.41 54.38 C 71.17 44.33 80.67 36.79 91.30 35.35 M 93.48 46.64 C 84.10 47.50 76.11 56.47 77.07 65.99 C 76.82 76.93 88.31 85.76 98.85 83.45 C 107.86 81.95 114.88 73.09 114.06 63.95 C 113.70 53.74 103.60 45.29 93.48 46.64 Z" />
</g>
</svg>
