<?xml version="1.0" encoding="UTF-8" ?>
<!DOCTYPE svg PUBLIC "-//W3C//DTD SVG 1.1//EN" "http://www.w3.org/Graphics/SVG/1.1/DTD/svg11.dtd">
<svg width="192pt" height="192pt" viewBox="0 0 192 192" version="1.1" xmlns="http://www.w3.org/2000/svg">
<g id="#ff8a1fff">
<path fill="#ff8a1f" opacity="1.00" d=" M 41.80 18.01 C 42.71 12.35 51.88 12.47 52.60 18.16 C 53.06 27.16 52.62 36.18 52.80 45.19 C 64.57 45.23 76.34 45.21 88.11 45.20 C 88.27 36.17 87.86 27.13 88.30 18.12 C 89.07 12.43 98.17 12.38 99.13 18.01 C 99.71 27.04 99.19 36.13 99.37 45.19 C 111.10 45.20 122.83 45.21 134.56 45.18 C 134.74 36.14 134.25 27.07 134.79 18.05 C 135.67 12.34 144.88 12.44 145.62 18.16 C 146.06 27.15 145.64 36.17 145.81 45.17 C 154.43 45.39 163.09 44.84 171.69 45.42 C 176.95 46.51 177.19 54.82 171.98 56.22 C 163.28 56.87 154.51 56.28 145.79 56.50 C 145.81 67.58 145.79 78.66 145.81 89.74 C 154.48 90.06 163.21 89.36 171.86 90.09 C 177.03 91.26 177.12 99.67 171.89 100.81 C 163.23 101.57 154.49 100.88 145.80 101.14 C 145.81 112.32 145.80 123.50 145.81 134.68 C 154.49 134.99 163.23 134.26 171.87 135.05 C 177.13 136.21 177.08 144.79 171.74 145.80 C 163.14 146.57 154.44 145.88 145.80 146.14 C 145.62 155.31 146.20 164.52 145.53 173.66 C 144.20 179.05 135.38 178.55 134.74 172.98 C 134.29 164.05 134.71 155.07 134.55 146.12 C 122.82 146.12 111.09 146.12 99.36 146.12 C 99.26 155.08 99.62 164.06 99.21 173.01 C 98.47 178.93 88.86 178.86 88.26 172.92 C 87.86 164.00 88.25 155.06 88.09 146.13 C 76.32 146.12 64.55 146.10 52.79 146.14 C 52.60 155.30 53.18 164.51 52.52 173.65 C 51.19 179.04 42.39 178.55 41.75 172.99 C 41.30 164.05 41.72 155.07 41.55 146.12 C 34.09 145.89 26.56 146.60 19.13 145.76 C 13.83 144.68 13.79 136.14 19.10 135.02 C 26.55 134.33 34.09 134.94 41.57 134.72 C 41.57 123.52 41.59 112.32 41.56 101.12 C 34.09 100.92 26.56 101.55 19.13 100.81 C 13.82 99.78 13.80 91.16 19.11 90.10 C 26.56 89.39 34.09 90.01 41.58 89.79 C 41.56 78.68 41.62 67.58 41.53 56.47 C 34.04 56.31 26.51 56.83 19.04 56.22 C 13.73 54.95 13.90 46.34 19.32 45.42 C 26.71 44.91 34.16 45.36 41.57 45.22 C 41.75 36.16 41.26 27.06 41.80 18.01 M 52.77 56.49 C 52.79 67.57 52.78 78.66 52.79 89.74 C 64.56 89.86 76.33 89.79 88.11 89.79 C 88.09 78.68 88.19 67.58 88.06 56.48 C 76.30 56.48 64.54 56.47 52.77 56.49 M 99.38 56.47 C 99.35 67.57 99.39 78.66 99.36 89.76 C 111.10 89.83 122.83 89.79 134.57 89.78 C 134.55 78.68 134.61 67.58 134.52 56.48 C 122.81 56.48 111.10 56.49 99.38 56.47 M 52.78 101.14 C 52.79 112.32 52.79 123.50 52.79 134.68 C 64.56 134.78 76.33 134.72 88.10 134.72 C 88.12 123.52 88.12 112.33 88.10 101.13 C 76.33 101.12 64.55 101.11 52.78 101.14 M 99.36 101.12 C 99.39 112.31 99.37 123.49 99.36 134.68 C 111.09 134.77 122.83 134.72 134.56 134.71 C 134.56 123.52 134.58 112.32 134.55 101.12 C 122.82 101.12 111.09 101.13 99.36 101.12 Z" />
<path fill="#ff8a1f" opacity="1.00" d=" M 22.97 61.69 C 24.98 61.65 26.99 61.67 29.00 61.70 C 31.42 69.40 33.89 77.10 35.88 84.93 C 34.31 84.99 32.74 85.04 31.17 85.07 C 30.62 83.59 30.08 82.11 29.56 80.62 C 27.25 80.64 24.94 80.63 22.63 80.64 C 22.12 82.16 21.61 83.67 21.10 85.19 C 19.44 85.09 17.78 84.97 16.13 84.82 C 18.14 77.03 20.60 69.37 22.97 61.69 M 23.52 76.68 C 25.25 76.70 26.97 76.71 28.70 76.69 C 27.88 73.75 27.06 70.81 26.13 67.90 C 25.19 70.80 24.38 73.75 23.52 76.68 Z" />
<path fill="#ff8a1f" opacity="1.00" d=" M 61.11 61.72 C 65.61 61.73 70.28 61.00 74.65 62.32 C 78.52 64.36 77.61 69.70 76.26 73.08 C 77.91 76.42 78.95 81.85 75.29 84.19 C 70.77 85.81 65.83 85.04 61.14 84.87 C 60.96 77.16 61.03 69.44 61.11 61.72 M 65.86 65.60 C 65.83 67.52 65.83 69.44 65.85 71.36 C 68.00 71.34 70.15 71.22 72.30 71.15 C 74.09 66.34 69.90 64.78 65.86 65.60 M 65.84 75.06 C 65.83 77.02 65.83 78.97 65.84 80.93 C 70.16 81.83 74.33 80.49 72.67 75.38 C 70.39 75.26 68.12 75.10 65.84 75.06 Z" />
<path fill="#ff8a1f" opacity="1.00" d=" M 60.79 111.02 C 61.66 105.07 69.27 106.26 73.60 106.63 C 78.20 106.97 78.33 112.28 78.31 115.78 C 76.74 115.82 75.16 115.85 73.59 115.87 C 73.29 114.20 72.98 112.53 72.66 110.87 C 70.39 110.98 67.12 109.47 65.73 111.98 C 65.19 116.60 65.39 121.28 65.88 125.90 C 68.16 126.12 70.45 126.12 72.72 125.88 C 73.02 124.22 73.30 122.56 73.56 120.90 C 75.11 120.89 76.66 120.91 78.21 120.93 C 78.30 124.29 78.42 129.50 74.01 130.07 C 70.03 130.43 64.80 131.46 61.72 128.31 C 59.57 122.90 60.61 116.72 60.79 111.02 Z" />
<path fill="#ff8a1f" opacity="1.00" d=" M 108.09 106.78 C 113.20 107.04 119.13 105.39 123.65 108.34 C 126.51 113.29 125.03 119.56 125.05 125.03 C 123.73 132.75 113.64 129.61 108.15 130.03 C 107.91 122.28 108.02 114.53 108.09 106.78 M 113.15 110.71 C 113.06 115.77 113.07 120.84 113.09 125.90 C 115.34 125.63 118.08 126.51 119.94 124.86 C 120.60 120.35 120.41 115.73 119.77 111.23 C 117.56 111.07 115.36 110.81 113.15 110.71 Z" />
</g>
</svg>
