<?xml version="1.0" encoding="UTF-8" ?>
<!DOCTYPE svg PUBLIC "-//W3C//DTD SVG 1.1//EN" "http://www.w3.org/Graphics/SVG/1.1/DTD/svg11.dtd">
<svg width="192pt" height="192pt" viewBox="0 0 192 192" version="1.1" xmlns="http://www.w3.org/2000/svg">
<g id="#ff861fff">
<path fill="#ff861f" opacity="1.00" d=" M 88.36 13.46 C 107.71 11.56 127.76 16.15 144.05 26.87 C 158.03 36.03 168.67 50.01 174.39 65.66 C 175.73 68.70 170.72 70.38 169.59 67.44 C 159.74 52.49 144.97 40.66 127.84 35.19 C 102.68 27.16 73.21 32.70 53.44 50.44 C 36.62 69.15 30.75 96.66 37.24 120.83 C 42.18 139.50 54.79 155.67 70.92 166.10 C 73.59 167.14 71.90 171.87 69.15 170.71 C 58.33 167.03 48.46 160.67 40.16 152.84 C 14.09 127.50 8.39 84.09 26.83 52.80 C 39.54 30.87 63.04 15.62 88.36 13.46 Z" />
<path fill="#ff861f" opacity="1.00" d=" M 62.22 71.19 C 78.29 47.56 112.57 38.87 137.62 53.07 C 133.50 56.07 128.69 58.37 125.68 62.66 C 117.44 73.50 119.26 90.47 129.93 99.08 C 140.92 108.98 159.47 106.76 168.36 95.10 C 173.09 114.67 165.24 136.14 150.61 149.63 C 136.04 163.44 114.10 168.55 94.81 163.33 C 81.36 159.63 69.72 150.65 61.66 139.40 C 47.49 119.56 48.19 90.92 62.22 71.19 M 101.41 58.58 C 79.06 62.59 61.69 84.24 63.05 106.99 C 62.61 127.95 78.76 147.06 98.61 152.40 C 122.37 158.86 149.51 143.87 155.91 119.97 C 156.88 115.62 151.62 116.58 149.06 116.79 C 131.26 118.28 114.19 105.12 110.05 87.96 C 107.49 78.61 109.68 68.90 112.99 60.07 C 111.42 55.50 104.98 58.43 101.41 58.58 Z" />
</g>
</svg>
