<?xml version="1.0" encoding="UTF-8" ?>
<!DOCTYPE svg PUBLIC "-//W3C//DTD SVG 1.1//EN" "http://www.w3.org/Graphics/SVG/1.1/DTD/svg11.dtd">
<svg width="192pt" height="192pt" viewBox="0 0 192 192" version="1.1" xmlns="http://www.w3.org/2000/svg">
<g id="#ff891fff">
<path fill="#ff891f" opacity="1.00" d=" M 92.34 11.40 C 120.69 7.80 150.68 20.34 167.43 43.58 C 170.63 49.91 160.59 54.85 157.30 48.70 C 136.65 21.71 95.69 14.01 66.65 31.64 C 37.65 47.78 23.77 85.54 35.24 116.66 C 41.84 135.80 57.05 151.73 75.87 159.19 C 101.51 169.75 132.99 163.21 152.27 143.27 C 155.27 140.58 157.25 136.84 160.53 134.49 C 164.95 132.06 170.41 137.41 168.12 141.86 C 148.86 169.62 111.05 182.18 78.86 172.16 C 48.71 163.54 25.01 136.23 20.91 105.11 C 17.87 84.56 22.93 62.95 34.88 45.96 C 47.98 26.98 69.40 13.98 92.34 11.40 Z" />
<path fill="#ff891f" opacity="1.00" d=" M 96.46 48.61 C 115.52 45.86 135.79 57.18 142.94 75.11 C 144.56 81.19 134.85 84.28 132.41 78.63 C 126.74 66.93 114.10 58.93 101.02 59.55 C 85.33 59.79 71.11 72.44 68.98 87.98 C 66.08 104.34 77.22 121.63 93.37 125.63 C 108.65 130.14 125.91 121.78 132.54 107.45 C 134.88 101.60 144.84 104.69 143.13 110.93 C 137.28 125.59 122.71 136.27 107.04 137.81 C 91.48 139.76 75.31 132.54 66.11 119.91 C 56.61 107.28 54.65 89.53 61.12 75.13 C 67.20 60.93 81.06 50.33 96.46 48.61 Z" />
</g>
</svg>
