<?xml version="1.0" encoding="UTF-8" ?>
<!DOCTYPE svg PUBLIC "-//W3C//DTD SVG 1.1//EN" "http://www.w3.org/Graphics/SVG/1.1/DTD/svg11.dtd">
<svg width="192pt" height="192pt" viewBox="0 0 192 192" version="1.1" xmlns="http://www.w3.org/2000/svg">
<g id="#18b6c5ff">
<path fill="#18b6c5" opacity="1.00" d=" M 85.39 12.52 C 99.15 11.34 113.43 13.21 125.98 19.12 C 131.43 22.26 126.96 31.47 121.11 29.01 C 102.01 21.06 79.50 21.56 61.05 31.07 C 38.06 42.52 22.33 67.25 22.21 92.99 C 21.44 114.13 31.11 135.18 47.28 148.72 C 67.19 165.99 96.84 170.26 121.02 159.99 C 126.94 157.48 131.49 166.76 125.96 169.94 C 104.67 179.62 79.09 179.01 58.01 168.99 C 34.53 158.04 16.95 135.41 12.27 109.91 C 8.02 87.99 13.22 64.46 26.40 46.43 C 40.01 27.38 62.05 14.61 85.39 12.52 Z" />
<path fill="#18b6c5" opacity="1.00" d=" M 142.39 31.47 C 144.12 30.97 146.04 31.41 147.40 32.58 C 162.24 45.34 172.10 63.68 174.74 83.06 C 178.77 110.29 167.98 139.27 146.78 156.90 C 141.78 160.43 135.19 152.94 139.53 148.49 C 151.60 137.68 160.43 123.06 163.09 106.97 C 167.56 83.15 158.71 57.48 140.50 41.49 C 136.78 38.89 137.87 32.42 142.39 31.47 Z" />
</g>
</svg>
