<?xml version="1.0" encoding="UTF-8" ?>
<!DOCTYPE svg PUBLIC "-//W3C//DTD SVG 1.1//EN" "http://www.w3.org/Graphics/SVG/1.1/DTD/svg11.dtd">
<svg width="192pt" height="192pt" viewBox="0 0 192 192" version="1.1" xmlns="http://www.w3.org/2000/svg">
<g id="#ff3662ff">
<path fill="#ff3662" opacity="1.00" d=" M 83.37 14.46 C 115.72 9.62 150.22 26.39 165.75 55.26 C 168.09 61.35 158.33 65.45 155.51 59.57 C 143.11 38.67 119.45 24.63 94.99 25.10 C 71.28 24.46 47.90 37.26 35.20 57.21 C 33.73 59.47 32.14 62.47 29.02 62.46 C 24.75 62.94 21.55 57.55 23.97 54.00 C 36.36 32.68 58.92 17.69 83.37 14.46 Z" />
<path fill="#ff3662" opacity="1.00" d=" M 25.95 73.95 C 33.74 66.78 44.68 64.16 54.99 63.95 C 62.18 65.71 59.89 77.74 53.06 77.93 C 44.70 78.30 34.82 80.66 30.91 88.94 C 25.93 97.11 29.46 110.60 39.94 111.82 C 54.63 112.19 69.36 112.07 84.05 111.83 C 89.04 112.05 93.90 106.20 90.10 101.84 C 84.90 97.16 76.35 96.99 72.50 90.55 C 66.59 80.17 74.94 65.13 86.97 64.93 C 112.64 64.53 138.33 64.60 164.00 64.77 C 174.31 65.03 180.88 77.43 176.35 86.40 C 173.46 94.06 164.90 96.37 159.09 101.11 C 159.86 109.21 162.36 117.07 163.74 125.10 C 158.13 125.14 152.51 125.18 146.90 125.05 C 145.51 119.06 144.28 113.03 142.89 107.04 C 140.97 100.97 144.87 95.23 146.20 89.44 C 150.93 89.02 157.39 91.09 160.66 86.62 C 163.62 82.66 159.96 76.58 155.00 77.59 C 149.95 78.28 141.69 75.08 139.69 81.68 C 134.99 96.07 130.32 110.49 125.73 124.93 C 120.66 125.34 115.57 125.10 110.49 125.02 C 115.38 109.19 120.61 93.47 125.45 77.62 C 114.29 77.58 103.13 77.55 91.98 77.64 C 87.88 77.14 83.50 82.62 87.15 85.85 C 92.69 90.16 100.55 91.31 105.02 96.98 C 108.37 103.58 106.17 112.06 101.46 117.46 C 96.64 122.93 89.06 125.01 82.00 125.15 C 66.98 125.07 51.96 125.20 36.95 125.09 C 25.25 124.76 15.49 114.41 14.26 103.04 C 13.27 92.23 17.66 81.02 25.95 73.95 Z" />
<path fill="#ff3662" opacity="1.00" d=" M 28.24 131.32 C 31.14 130.14 34.10 132.04 35.50 134.55 C 47.62 153.11 68.86 165.33 91.05 166.19 C 114.78 167.53 138.78 155.95 152.33 136.39 C 153.89 134.32 155.20 131.47 158.07 131.05 C 162.31 130.12 166.22 135.19 164.09 139.02 C 145.99 169.14 107.12 184.38 73.32 174.76 C 53.72 169.55 36.17 156.78 25.41 139.57 C 23.34 136.75 24.98 132.36 28.24 131.32 Z" />
</g>
</svg>
