<?xml version="1.0" encoding="UTF-8" ?>
<!DOCTYPE svg PUBLIC "-//W3C//DTD SVG 1.1//EN" "http://www.w3.org/Graphics/SVG/1.1/DTD/svg11.dtd">
<svg width="192pt" height="192pt" viewBox="0 0 192 192" version="1.1" xmlns="http://www.w3.org/2000/svg">
<g id="#f6b02cff">
<path fill="#f6b02c" opacity="1.00" d=" M 83.38 14.47 C 115.52 9.63 149.60 26.17 165.46 54.57 C 167.53 58.14 163.98 63.03 159.97 62.46 C 156.86 62.34 155.34 59.32 153.84 57.07 C 141.11 37.15 117.72 24.35 94.01 25.09 C 69.29 24.67 45.61 39.05 33.15 60.15 C 29.74 65.66 20.67 60.34 23.66 54.65 C 35.87 32.95 58.72 17.74 83.38 14.47 Z" />
<path fill="#f6b02c" opacity="1.00" d=" M 14.27 96.94 C 15.49 76.52 36.44 62.36 55.80 64.24 C 61.53 66.59 59.89 75.62 54.79 77.62 C 47.67 78.44 39.70 78.97 34.28 84.27 C 26.16 91.59 26.60 108.26 38.35 111.53 C 50.17 112.62 62.13 111.75 74.00 111.99 C 79.00 111.67 84.61 112.99 89.06 110.07 C 92.18 108.03 92.17 102.99 89.12 100.88 C 83.71 97.29 76.16 96.45 72.49 90.53 C 66.60 80.15 74.96 65.12 86.98 64.93 C 112.65 64.53 138.33 64.59 164.00 64.78 C 173.99 65.01 180.63 76.78 176.64 85.69 C 173.98 93.76 165.16 96.32 159.06 101.07 C 159.90 109.18 162.33 117.06 163.74 125.09 C 158.12 125.12 152.51 125.16 146.90 125.05 C 145.51 119.06 144.27 113.03 142.88 107.04 C 140.99 100.96 144.86 95.22 146.20 89.44 C 150.93 89.03 157.37 91.07 160.65 86.62 C 163.62 82.65 159.97 76.59 155.00 77.59 C 149.96 78.25 141.70 75.09 139.69 81.67 C 134.96 96.07 130.34 110.52 125.69 124.95 C 120.63 125.25 115.55 125.11 110.48 125.02 C 115.41 109.20 120.55 93.44 125.49 77.61 C 114.32 77.57 103.16 77.54 91.99 77.64 C 87.88 77.11 83.47 82.64 87.16 85.85 C 92.70 90.15 100.54 91.32 105.02 96.98 C 108.27 103.37 106.26 111.52 101.92 116.92 C 97.14 122.76 89.29 125.02 82.00 125.13 C 66.98 125.06 51.97 125.20 36.95 125.07 C 23.07 124.69 12.31 110.39 14.27 96.94 Z" />
<path fill="#f6b02c" opacity="1.00" d=" M 28.25 131.32 C 31.14 130.14 34.09 132.05 35.50 134.55 C 45.79 150.20 62.51 161.52 80.95 164.98 C 107.39 170.41 136.35 159.06 151.90 136.98 C 153.76 134.52 155.38 130.86 159.00 130.96 C 162.93 130.81 166.03 135.51 164.09 139.00 C 146.15 168.88 107.74 184.16 74.13 174.96 C 54.20 169.90 36.33 157.01 25.42 139.57 C 23.35 136.74 24.97 132.36 28.25 131.32 Z" />
</g>
</svg>
