<?xml version="1.0" encoding="UTF-8" ?>
<!DOCTYPE svg PUBLIC "-//W3C//DTD SVG 1.1//EN" "http://www.w3.org/Graphics/SVG/1.1/DTD/svg11.dtd">
<svg width="192pt" height="192pt" viewBox="0 0 192 192" version="1.1" xmlns="http://www.w3.org/2000/svg">
<g id="#d636a5ff">
<path fill="#d636a5" opacity="1.00" d=" M 94.27 14.23 C 96.13 13.31 98.06 14.39 99.75 15.15 C 121.79 25.86 143.92 36.41 165.95 47.13 C 167.87 47.93 169.01 49.90 168.84 51.97 C 168.86 79.66 168.87 107.35 168.80 135.04 C 169.03 137.18 167.63 138.95 165.78 139.84 C 143.41 152.12 121.04 164.43 98.65 176.68 C 96.77 178.01 94.42 177.54 92.61 176.36 C 70.46 164.19 48.29 152.06 26.14 139.88 C 23.85 138.88 22.72 136.48 22.99 134.05 C 23.02 106.67 22.98 79.29 23.02 51.91 C 22.76 49.47 24.54 47.54 26.69 46.71 C 49.24 35.93 71.67 24.90 94.27 14.23 M 37.88 51.51 C 57.75 63.02 78.15 73.61 98.14 84.89 C 100.88 86.18 100.58 89.48 100.57 92.00 C 100.40 111.19 100.77 130.41 100.38 149.59 C 99.58 154.55 91.46 153.93 91.42 148.88 C 91.23 129.86 91.35 110.82 91.36 91.79 C 71.80 80.68 51.91 70.14 32.27 59.18 C 32.28 83.69 32.26 108.20 32.28 132.71 C 53.51 144.37 74.71 156.08 95.98 167.66 C 117.19 155.99 138.44 144.39 159.64 132.71 C 159.60 108.21 159.67 83.71 159.58 59.21 C 145.49 66.90 131.49 74.79 117.31 82.31 C 112.79 84.70 108.44 77.57 112.59 74.64 C 126.24 66.65 140.43 59.55 154.06 51.53 C 134.64 42.34 115.33 32.91 95.97 23.58 C 76.59 32.86 57.29 42.31 37.88 51.51 Z" />
<path fill="#d636a5" opacity="1.00" d=" M 48.64 88.38 C 52.30 88.30 55.93 89.37 59.25 90.84 C 59.82 94.31 58.74 97.99 58.48 101.51 C 56.59 103.09 54.27 104.02 52.11 105.17 C 53.48 111.69 57.30 117.42 62.09 121.95 C 64.33 120.76 66.56 119.53 68.82 118.35 C 71.92 120.15 75.22 121.58 78.62 122.72 C 78.51 126.16 77.32 129.43 76.40 132.71 C 56.30 130.65 42.26 107.43 48.64 88.38 Z" />
<path fill="#d636a5" opacity="1.00" d=" M 130.37 88.43 C 134.06 87.67 138.48 90.08 138.61 94.12 C 138.68 100.36 138.87 106.64 138.49 112.87 C 137.18 119.29 126.38 119.35 124.86 113.01 C 124.31 107.03 124.69 100.99 124.63 94.99 C 124.44 91.73 127.10 88.63 130.37 88.43 Z" />
<path fill="#d636a5" opacity="1.00" d=" M 117.40 103.24 C 122.03 102.48 119.81 108.31 120.44 110.98 C 120.47 119.37 131.58 124.33 137.94 118.92 C 143.02 115.37 142.35 108.72 142.41 103.30 C 146.53 102.29 145.27 107.51 145.40 109.98 C 145.58 117.09 139.82 123.29 132.90 124.28 C 132.83 125.79 132.77 127.29 132.72 128.79 C 136.33 128.77 141.76 127.86 141.01 133.24 C 134.55 133.43 128.08 133.39 121.62 133.26 C 121.81 131.87 122.01 130.48 122.22 129.10 C 124.71 128.92 127.21 128.86 129.72 128.81 C 129.71 127.35 129.70 125.89 129.69 124.44 C 119.62 123.06 115.45 112.26 117.40 103.24 Z" />
</g>
</svg>
