<?xml version="1.0" encoding="UTF-8" ?>
<!DOCTYPE svg PUBLIC "-//W3C//DTD SVG 1.1//EN" "http://www.w3.org/Graphics/SVG/1.1/DTD/svg11.dtd">
<svg width="192pt" height="192pt" viewBox="0 0 192 192" version="1.1" xmlns="http://www.w3.org/2000/svg">
<g id="#f6ad29ff">
<path fill="#f6ad29" opacity="1.00" d=" M 59.96 41.97 C 67.72 22.39 90.91 11.53 111.15 15.77 C 122.55 18.20 133.50 23.93 141.39 32.58 C 145.40 37.27 138.31 44.40 133.64 40.34 C 125.87 32.87 115.91 27.17 105.00 26.31 C 90.45 25.01 74.58 33.43 69.82 47.70 C 65.30 61.40 68.60 76.02 72.16 89.53 C 87.11 89.64 102.07 89.33 117.00 89.66 C 122.99 89.92 123.57 99.61 117.70 100.59 C 103.22 101.04 88.70 100.64 74.20 100.76 C 75.56 119.58 74.35 139.26 66.24 156.58 C 82.24 154.76 98.35 157.02 113.81 161.20 C 122.46 163.42 131.66 165.68 140.40 162.56 C 146.33 161.16 149.42 170.49 143.91 173.00 C 128.19 179.54 111.83 171.30 96.15 168.84 C 81.11 166.62 64.14 165.33 50.71 173.64 C 46.16 174.60 42.41 168.87 45.08 165.07 C 63.55 149.79 64.48 122.83 62.67 100.76 C 57.89 100.63 53.08 101.05 48.32 100.55 C 43.54 99.54 42.81 92.16 47.28 90.18 C 51.53 88.89 56.12 89.79 60.51 89.53 C 56.50 74.13 53.94 57.20 59.96 41.97 Z" />
</g>
</svg>
