<?xml version="1.0" encoding="UTF-8" ?>
<!DOCTYPE svg PUBLIC "-//W3C//DTD SVG 1.1//EN" "http://www.w3.org/Graphics/SVG/1.1/DTD/svg11.dtd">
<svg width="192pt" height="192pt" viewBox="0 0 192 192" version="1.1" xmlns="http://www.w3.org/2000/svg">
<g id="#fc7936ff">
<path fill="#fc7936" opacity="1.00" d=" M 84.42 14.53 C 116.12 9.59 149.57 25.51 165.94 53.04 C 178.76 73.74 181.34 100.26 173.14 123.14 C 163.39 151.22 137.21 172.77 107.70 176.69 C 76.65 181.61 43.79 166.53 27.07 139.95 C 8.47 111.90 10.03 72.35 30.87 45.89 C 43.73 29.00 63.33 17.35 84.42 14.53 M 87.40 25.49 C 66.05 27.95 46.32 40.89 35.37 59.34 C 24.90 76.52 22.47 98.26 28.74 117.36 C 36.75 142.92 60.45 162.62 87.09 165.69 C 110.48 168.85 134.96 159.16 150.00 141.01 C 169.05 119.01 171.97 84.96 156.94 60.04 C 143.28 36.07 114.79 21.87 87.40 25.49 Z" />
<path fill="#fc7936" opacity="1.00" d=" M 79.00 62.01 C 90.04 53.80 106.17 52.75 117.89 60.13 C 122.07 63.24 119.16 70.52 113.99 70.16 C 109.70 68.81 105.64 66.37 100.98 66.50 C 91.18 65.91 82.09 72.06 77.34 80.36 C 83.66 80.71 90.03 80.07 96.33 80.70 C 101.70 81.67 101.92 90.21 96.65 91.50 C 89.06 92.06 81.40 91.59 73.78 91.69 C 73.54 94.26 73.51 96.84 73.65 99.41 C 81.27 99.68 88.94 99.05 96.52 99.71 C 101.74 100.88 101.85 109.22 96.64 110.48 C 90.24 111.13 83.78 110.51 77.36 110.78 C 83.42 122.61 99.07 128.60 111.05 122.09 C 115.63 118.78 122.07 124.44 119.34 129.38 C 116.46 133.43 110.96 134.35 106.42 135.53 C 88.75 139.17 70.91 127.22 64.83 110.78 C 61.22 110.82 56.10 111.31 54.79 106.92 C 53.03 102.21 57.98 98.70 62.27 99.26 C 62.25 96.81 62.24 94.35 62.24 91.90 C 58.23 92.42 53.57 89.54 54.58 85.01 C 55.42 80.17 61.00 80.22 64.82 80.45 C 67.93 73.26 72.49 66.53 79.00 62.01 Z" />
</g>
</svg>
