<?xml version="1.0" encoding="UTF-8" ?>
<!DOCTYPE svg PUBLIC "-//W3C//DTD SVG 1.1//EN" "http://www.w3.org/Graphics/SVG/1.1/DTD/svg11.dtd">
<svg width="192pt" height="192pt" viewBox="0 0 192 192" version="1.1" xmlns="http://www.w3.org/2000/svg">
<g id="#4a71c4ff">
<path fill="#4a71c4" opacity="1.00" d=" M 21.19 34.93 C 20.64 27.33 27.47 20.56 35.01 20.74 C 75.66 20.65 116.33 20.64 156.99 20.71 C 164.14 20.54 170.84 26.69 170.82 33.93 C 170.89 51.96 170.94 70.00 170.82 88.03 C 170.68 96.54 161.90 101.94 154.01 101.14 C 119.00 100.72 83.99 100.91 48.98 100.74 C 42.28 100.87 42.23 89.66 48.97 89.71 C 84.63 89.48 120.31 89.66 155.98 89.58 C 157.69 89.76 159.86 88.89 159.52 86.82 C 159.48 68.76 159.79 50.68 159.36 32.63 C 157.26 32.21 155.13 32.04 153.00 32.11 C 114.31 32.41 75.63 31.65 36.94 31.83 C 35.46 31.90 34.01 32.29 32.57 32.60 C 32.16 74.42 32.63 116.25 32.36 158.07 C 45.45 158.43 58.58 158.36 71.67 158.08 C 71.51 144.94 71.77 131.80 71.53 118.67 C 63.70 118.52 55.85 118.90 48.03 118.49 C 42.53 117.71 42.27 108.84 47.68 107.66 C 55.44 107.10 63.27 107.52 71.06 107.44 C 77.26 107.22 83.09 112.65 82.83 118.94 C 82.87 131.98 82.89 145.02 82.84 158.06 C 83.12 164.37 77.26 169.80 71.05 169.55 C 58.04 169.56 45.02 169.62 32.01 169.50 C 25.70 169.34 20.48 163.32 21.05 157.06 C 21.11 116.35 21.21 75.64 21.19 34.93 Z" />
<path fill="#4a71c4" opacity="1.00" d=" M 95.30 114.25 C 118.39 112.93 141.81 113.94 165.02 113.72 C 172.21 113.43 172.18 125.16 165.06 125.04 C 142.70 125.22 120.31 125.21 97.95 125.04 C 92.12 125.39 89.90 116.55 95.30 114.25 Z" />
<path fill="#4a71c4" opacity="1.00" d=" M 95.41 132.50 C 118.50 131.35 141.88 132.30 165.07 132.02 C 171.60 131.73 172.50 142.36 166.03 143.19 C 143.35 143.53 120.64 143.31 97.96 143.29 C 92.01 143.78 89.92 134.68 95.41 132.50 Z" />
<path fill="#4a71c4" opacity="1.00" d=" M 95.27 151.19 C 118.37 149.83 141.79 150.87 165.01 150.64 C 172.23 150.37 172.17 162.08 165.04 162.01 C 142.69 162.22 120.31 162.25 97.96 161.99 C 92.14 162.32 89.88 153.53 95.27 151.19 Z" />
</g>
</svg>
