<?xml version="1.0" encoding="UTF-8" ?>
<!DOCTYPE svg PUBLIC "-//W3C//DTD SVG 1.1//EN" "http://www.w3.org/Graphics/SVG/1.1/DTD/svg11.dtd">
<svg width="192pt" height="192pt" viewBox="0 0 192 192" version="1.1" xmlns="http://www.w3.org/2000/svg">
<g id="#a61affff">
<path fill="#a61aff" opacity="1.00" d=" M 84.41 14.52 C 116.11 9.58 149.57 25.50 165.93 53.04 C 178.76 73.73 181.34 100.25 173.15 123.14 C 163.39 151.21 137.23 172.77 107.72 176.68 C 76.67 181.61 43.80 166.54 27.07 139.97 C 8.46 111.92 10.03 72.35 30.86 45.90 C 43.72 29.00 63.32 17.35 84.41 14.52 M 87.38 25.48 C 66.55 27.92 47.23 40.28 36.15 58.07 C 25.34 74.99 22.44 96.62 28.26 115.82 C 35.76 141.84 59.44 162.20 86.33 165.58 C 109.94 169.03 134.80 159.36 150.00 141.00 C 169.04 119.00 171.97 84.96 156.94 60.04 C 143.27 36.06 114.77 21.86 87.38 25.48 Z" />
<path fill="#a61aff" opacity="1.00" d=" M 78.24 62.17 C 77.96 58.58 79.80 54.16 84.00 54.29 C 88.21 54.13 90.17 58.54 89.84 62.18 C 91.27 62.19 92.70 62.19 94.14 62.19 C 93.61 58.29 96.19 53.62 100.64 54.33 C 104.89 54.75 106.00 59.43 105.62 62.98 C 115.87 66.61 120.72 79.61 115.01 88.97 C 124.23 94.66 128.31 107.37 123.12 117.10 C 119.93 123.94 112.90 128.11 105.60 129.17 C 106.12 132.73 104.07 137.05 100.00 136.89 C 95.80 137.18 93.77 132.72 94.13 129.12 C 92.69 129.12 91.25 129.12 89.82 129.12 C 90.21 132.71 88.19 137.14 84.01 136.89 C 79.85 137.08 77.94 132.68 78.24 129.12 C 73.69 129.59 66.20 129.36 66.54 122.98 C 66.98 117.04 73.91 117.45 78.26 117.78 C 78.56 103.02 78.36 88.25 78.37 73.49 C 75.81 73.44 73.23 73.65 70.70 73.29 C 66.70 72.44 65.10 66.81 68.05 63.99 C 70.68 61.23 74.87 62.51 78.24 62.17 M 89.70 73.50 C 89.67 77.64 89.67 81.78 89.69 85.93 C 93.92 85.78 98.33 86.61 102.45 85.47 C 107.54 83.50 107.18 75.29 101.91 73.82 C 97.90 73.07 93.76 73.63 89.70 73.50 M 89.68 97.33 C 89.78 104.13 89.49 110.94 89.84 117.73 C 95.41 117.51 101.06 118.19 106.59 117.37 C 114.04 115.67 116.68 105.10 110.89 100.09 C 105.03 95.14 96.67 98.09 89.68 97.33 Z" />
</g>
</svg>
