<?xml version="1.0" encoding="UTF-8" ?>
<!DOCTYPE svg PUBLIC "-//W3C//DTD SVG 1.1//EN" "http://www.w3.org/Graphics/SVG/1.1/DTD/svg11.dtd">
<svg width="192pt" height="192pt" viewBox="0 0 192 192" version="1.1" xmlns="http://www.w3.org/2000/svg">
<g id="#f6aa27ff">
<path fill="#f6aa27" opacity="1.00" d=" M 48.37 24.57 C 43.34 22.98 44.68 14.72 49.98 14.80 C 80.32 14.69 110.68 14.71 141.02 14.78 C 146.70 14.63 147.51 23.96 141.90 24.75 C 131.93 25.44 121.85 24.53 111.83 24.91 C 119.74 33.25 127.12 42.78 128.74 54.54 C 133.15 54.73 137.58 54.37 141.99 54.74 C 146.74 55.66 147.12 63.23 142.44 64.52 C 137.97 65.14 133.43 64.60 128.94 64.80 C 127.20 83.29 113.03 99.93 94.69 103.65 C 83.92 105.66 72.86 104.20 61.97 104.68 C 83.35 126.41 105.27 147.64 126.53 169.48 C 131.42 174.79 121.26 180.24 117.72 175.32 C 94.51 151.88 71.26 128.47 48.14 104.93 C 48.51 102.27 47.10 98.43 50.05 96.87 C 61.79 96.35 73.60 97.25 85.33 96.39 C 101.47 94.57 114.36 80.64 116.54 64.79 C 94.08 64.66 71.60 64.94 49.14 64.62 C 43.49 63.84 44.21 54.58 49.97 54.68 C 72.07 54.50 94.19 54.68 116.29 54.57 C 113.05 40.23 101.50 27.68 86.63 25.47 C 73.94 23.99 61.08 25.55 48.37 24.57 Z" />
</g>
</svg>
