<?xml version="1.0" encoding="UTF-8" ?>
<!DOCTYPE svg PUBLIC "-//W3C//DTD SVG 1.1//EN" "http://www.w3.org/Graphics/SVG/1.1/DTD/svg11.dtd">
<svg width="192pt" height="192pt" viewBox="0 0 192 192" version="1.1" xmlns="http://www.w3.org/2000/svg">
<g id="#f6b02cff">
<path fill="#f6b02c" opacity="1.00" d=" M 90.29 29.10 C 90.70 23.83 88.05 14.13 96.00 13.72 C 103.73 14.46 101.12 23.81 101.53 29.06 C 117.93 29.30 134.80 34.64 146.45 46.58 C 148.96 49.65 146.90 54.78 143.01 55.39 C 139.03 56.08 136.54 52.28 133.58 50.36 C 120.81 40.38 103.68 39.63 88.17 40.51 C 78.91 41.45 68.99 43.41 61.89 49.87 C 52.78 58.04 53.48 74.41 63.42 81.64 C 74.16 89.61 88.21 89.96 101.03 90.13 C 115.85 90.92 132.40 94.73 141.74 107.27 C 151.43 120.61 148.97 141.56 135.48 151.48 C 125.83 158.94 113.39 161.32 101.50 162.23 C 101.44 166.12 101.92 170.07 101.20 173.92 C 99.74 178.51 92.56 178.72 90.76 174.27 C 89.73 170.36 90.47 166.21 90.25 162.20 C 74.27 161.15 57.47 156.73 45.78 145.17 C 42.65 142.22 44.70 136.24 49.01 135.88 C 52.89 135.22 55.18 139.11 58.12 140.89 C 70.56 149.43 86.28 151.60 101.06 150.86 C 111.26 150.15 122.29 148.29 130.10 141.13 C 139.61 132.39 137.86 114.85 126.59 108.36 C 106.35 95.91 80.11 106.33 60.03 92.97 C 41.44 83.09 38.74 54.23 54.94 40.94 C 64.67 32.59 77.83 29.93 90.29 29.10 Z" />
</g>
</svg>
