<?xml version="1.0" encoding="UTF-8" ?>
<!DOCTYPE svg PUBLIC "-//W3C//DTD SVG 1.1//EN" "http://www.w3.org/Graphics/SVG/1.1/DTD/svg11.dtd">
<svg width="192pt" height="192pt" viewBox="0 0 192 192" version="1.1" xmlns="http://www.w3.org/2000/svg">
<g id="#f6af2bff">
<path fill="#f6af2b" opacity="1.00" d=" M 38.36 19.57 C 43.32 19.25 48.39 19.10 53.34 19.66 C 57.83 20.96 57.92 28.13 53.43 29.49 C 48.42 29.97 43.33 29.84 38.31 29.56 C 33.32 28.57 33.41 20.57 38.36 19.57 Z" />
<path fill="#f6af2b" opacity="1.00" d=" M 71.46 19.66 C 76.45 19.10 81.58 19.20 86.58 19.60 C 91.39 20.69 91.44 28.39 86.67 29.54 C 81.66 29.90 76.57 29.92 71.56 29.53 C 66.92 28.42 66.91 20.97 71.46 19.66 Z" />
<path fill="#f6af2b" opacity="1.00" d=" M 105.36 19.54 C 110.10 19.18 114.90 19.22 119.64 19.51 C 124.59 20.20 125.18 27.98 120.43 29.47 C 115.43 30.03 110.31 29.83 105.29 29.59 C 100.20 28.63 100.28 20.47 105.36 19.54 Z" />
<path fill="#f6af2b" opacity="1.00" d=" M 138.46 19.63 C 143.44 19.11 148.57 19.15 153.56 19.60 C 158.31 20.73 158.36 28.33 153.66 29.54 C 148.59 29.93 143.43 29.97 138.37 29.52 C 133.78 28.26 133.83 20.84 138.46 19.63 Z" />
<path fill="#f6af2b" opacity="1.00" d=" M 90.45 37.36 C 92.05 33.10 98.96 33.75 99.69 38.25 C 100.17 43.57 99.69 48.93 99.81 54.26 C 113.08 55.58 125.72 61.42 135.29 70.71 C 151.88 86.01 157.79 111.38 150.64 132.64 C 142.96 156.25 118.77 172.95 94.02 172.18 C 63.86 171.82 36.49 145.42 36.35 115.01 C 34.89 84.97 59.78 56.60 89.85 54.47 C 90.56 48.79 89.30 42.97 90.45 37.36 M 75.75 72.73 C 65.96 79.85 61.19 93.77 65.81 105.16 C 69.79 115.14 81.70 121.45 92.11 118.17 C 101.34 115.55 107.41 104.04 102.86 95.23 C 99.70 88.72 89.68 85.66 84.46 91.44 C 80.93 94.68 83.31 101.30 78.33 103.34 C 73.90 105.06 69.35 100.51 70.41 96.06 C 71.21 83.38 85.45 74.09 97.37 78.71 C 115.61 83.43 120.23 110.58 106.16 122.21 C 94.19 132.71 74.62 130.11 63.73 119.27 C 55.40 111.50 52.14 99.61 53.75 88.51 C 46.95 99.99 44.98 114.22 49.03 127.00 C 54.97 147.81 76.34 162.86 97.94 161.33 C 118.97 160.15 137.79 143.57 141.89 122.96 C 146.36 102.85 135.79 81.07 118.17 70.88 C 105.29 63.15 87.82 63.63 75.75 72.73 Z" />
</g>
</svg>
