<?xml version="1.0" encoding="UTF-8" ?>
<!DOCTYPE svg PUBLIC "-//W3C//DTD SVG 1.1//EN" "http://www.w3.org/Graphics/SVG/1.1/DTD/svg11.dtd">
<svg width="192pt" height="192pt" viewBox="0 0 192 192" version="1.1" xmlns="http://www.w3.org/2000/svg">
<g id="#fa6950ff">
<path fill="#fa6950" opacity="1.00" d=" M 38.36 19.54 C 43.10 19.14 47.90 19.22 52.64 19.49 C 57.70 20.10 58.29 28.11 53.43 29.52 C 48.42 30.01 43.31 29.88 38.29 29.59 C 33.29 28.55 33.39 20.55 38.36 19.54 Z" />
<path fill="#fa6950" opacity="1.00" d=" M 71.46 19.65 C 76.45 19.07 81.58 19.17 86.58 19.58 C 91.41 20.66 91.47 28.40 86.68 29.57 C 81.66 29.93 76.57 29.95 71.56 29.56 C 66.88 28.43 66.86 20.94 71.46 19.65 Z" />
<path fill="#fa6950" opacity="1.00" d=" M 105.36 19.52 C 110.32 19.21 115.40 18.98 120.33 19.64 C 125.08 21.01 124.79 28.79 119.89 29.64 C 115.03 29.96 110.12 29.96 105.27 29.63 C 100.16 28.63 100.26 20.45 105.36 19.52 Z" />
<path fill="#fa6950" opacity="1.00" d=" M 138.45 19.61 C 143.44 19.06 148.57 19.09 153.57 19.58 C 158.34 20.73 158.39 28.32 153.68 29.58 C 148.60 29.99 143.43 30.02 138.36 29.55 C 133.74 28.28 133.78 20.80 138.45 19.61 Z" />
<path fill="#fa6950" opacity="1.00" d=" M 90.45 37.35 C 92.08 33.12 98.93 33.76 99.69 38.24 C 100.11 43.56 99.79 48.92 99.80 54.25 C 119.28 56.10 137.31 68.21 146.56 85.41 C 155.38 102.23 156.24 123.38 147.39 140.37 C 138.98 157.05 122.08 168.87 103.67 171.60 C 76.01 176.01 47.17 157.60 38.99 130.92 C 33.26 113.20 36.85 92.89 48.09 78.08 C 57.78 64.78 73.24 56.12 89.56 54.39 C 91.07 49.01 89.05 42.89 90.45 37.35 M 72.52 75.52 C 64.44 83.54 61.27 96.96 66.81 107.24 C 71.65 116.53 83.77 121.74 93.64 117.62 C 102.01 114.32 107.17 103.51 102.86 95.23 C 99.71 88.72 89.70 85.66 84.46 91.43 C 81.04 94.54 83.20 100.54 78.98 103.00 C 75.60 104.95 70.90 102.46 70.46 98.60 C 69.64 88.49 78.04 78.91 88.02 77.77 C 97.63 76.72 107.91 82.11 111.79 91.13 C 115.91 100.66 115.38 113.08 107.72 120.72 C 96.48 132.47 76.25 130.78 64.78 120.23 C 55.79 112.53 52.06 100.17 53.72 88.62 C 44.15 104.34 44.85 125.47 55.53 140.46 C 66.83 157.02 89.10 165.62 108.41 159.40 C 126.76 154.04 140.98 136.99 142.66 117.91 C 144.80 97.53 132.31 76.68 113.56 68.58 C 100.12 62.69 83.10 65.15 72.52 75.52 Z" />
</g>
</svg>
