<?xml version="1.0" encoding="UTF-8" ?>
<!DOCTYPE svg PUBLIC "-//W3C//DTD SVG 1.1//EN" "http://www.w3.org/Graphics/SVG/1.1/DTD/svg11.dtd">
<svg width="192pt" height="192pt" viewBox="0 0 192 192" version="1.1" xmlns="http://www.w3.org/2000/svg">
<g id="#44e372ff">
<path fill="#44e372" opacity="1.00" d=" M 38.36 19.56 C 43.09 19.15 47.90 19.24 52.64 19.50 C 57.67 20.09 58.29 28.11 53.44 29.50 C 48.43 29.99 43.32 29.87 38.29 29.58 C 33.29 28.58 33.40 20.55 38.36 19.56 Z" />
<path fill="#44e372" opacity="1.00" d=" M 71.46 19.66 C 76.45 19.08 81.58 19.18 86.58 19.59 C 91.40 20.67 91.46 28.40 86.68 29.55 C 81.66 29.92 76.56 29.95 71.55 29.54 C 66.89 28.44 66.90 20.94 71.46 19.66 Z" />
<path fill="#44e372" opacity="1.00" d=" M 105.36 19.54 C 110.09 19.16 114.89 19.21 119.64 19.51 C 124.59 20.19 125.20 28.00 120.44 29.48 C 115.43 30.04 110.32 29.85 105.29 29.60 C 100.19 28.65 100.27 20.46 105.36 19.54 Z" />
<path fill="#44e372" opacity="1.00" d=" M 138.46 19.63 C 143.44 19.11 148.57 19.14 153.56 19.61 C 158.31 20.73 158.37 28.34 153.67 29.55 C 148.65 29.95 143.55 29.94 138.53 29.56 C 133.79 28.49 133.75 20.84 138.46 19.63 Z" />
<path fill="#44e372" opacity="1.00" d=" M 90.44 37.35 C 92.05 33.09 98.96 33.75 99.70 38.25 C 100.18 43.55 99.71 48.89 99.80 54.21 C 119.28 56.12 137.32 68.19 146.57 85.40 C 155.63 102.65 156.25 124.51 146.67 141.68 C 138.08 157.69 121.56 168.93 103.65 171.59 C 71.11 177.01 37.70 150.13 36.42 117.08 C 33.83 86.38 58.99 56.60 89.82 54.49 C 90.57 48.80 89.24 42.97 90.44 37.35 M 73.52 74.59 C 64.90 82.35 61.21 95.93 66.47 106.57 C 71.01 116.00 82.86 121.56 92.88 117.91 C 101.68 114.93 107.28 103.76 102.84 95.23 C 99.68 88.74 89.70 85.68 84.47 91.44 C 81.07 94.56 83.19 100.55 78.99 103.01 C 75.37 105.12 70.40 102.11 70.37 97.97 C 70.04 88.06 78.22 78.89 88.01 77.75 C 97.63 76.72 107.93 82.09 111.80 91.13 C 115.71 100.25 115.47 111.94 108.71 119.68 C 98.28 131.93 78.35 131.26 66.41 121.62 C 56.37 114.04 51.86 100.86 53.73 88.58 C 44.29 104.11 44.80 124.90 55.11 139.87 C 66.01 156.33 87.62 165.28 106.85 159.87 C 125.42 155.08 140.17 138.42 142.51 119.36 C 145.33 98.55 132.75 76.89 113.55 68.60 C 100.53 62.90 84.19 65.02 73.52 74.59 Z" />
<path fill="#44e372" opacity="1.00" d=" M 140.33 46.63 C 136.20 36.06 157.25 34.70 155.80 44.99 C 156.53 50.88 150.69 54.04 147.27 57.80 C 150.09 57.88 152.91 57.92 155.72 58.17 C 155.79 59.42 155.79 60.68 155.72 61.93 C 150.57 62.37 145.36 62.44 140.23 61.86 C 139.55 53.75 153.07 51.86 150.55 43.27 C 147.74 41.06 144.35 43.07 144.39 46.54 C 143.04 46.61 141.68 46.63 140.33 46.63 Z" />
</g>
</svg>
