<?xml version="1.0" encoding="UTF-8" ?>
<!DOCTYPE svg PUBLIC "-//W3C//DTD SVG 1.1//EN" "http://www.w3.org/Graphics/SVG/1.1/DTD/svg11.dtd">
<svg width="192pt" height="192pt" viewBox="0 0 192 192" version="1.1" xmlns="http://www.w3.org/2000/svg">
<g id="#ff517cff">
<path fill="#ff517c" opacity="1.00" d=" M 88.42 12.52 C 117.68 8.03 148.61 21.05 165.94 45.01 C 168.16 48.29 172.29 52.35 169.51 56.49 C 166.93 60.72 160.54 59.43 158.86 55.07 C 140.64 25.98 99.88 14.59 69.29 30.25 C 38.66 44.40 21.98 82.28 32.68 114.37 C 42.24 147.33 78.22 169.63 112.00 162.99 C 131.83 159.68 149.71 147.26 160.20 130.18 C 163.50 124.44 173.02 129.32 170.40 135.35 C 153.71 164.87 117.18 181.06 84.05 173.99 C 54.62 168.51 29.47 145.42 21.32 116.65 C 14.85 94.60 18.09 69.85 30.37 50.39 C 42.94 30.08 64.70 15.69 88.42 12.52 Z" />
<path fill="#ff517c" opacity="1.00" d=" M 75.92 67.81 C 83.50 63.72 93.07 64.81 99.99 69.74 C 107.35 64.27 117.73 63.75 125.57 68.51 C 135.58 73.83 141.31 84.15 150.18 90.88 C 154.04 94.07 152.12 100.03 148.21 102.25 C 139.97 107.78 132.32 114.46 122.94 118.03 C 109.30 123.48 93.75 123.88 79.85 119.13 C 68.35 115.51 58.78 107.87 49.46 100.52 C 46.09 97.91 46.92 92.52 50.41 90.40 C 59.65 83.69 65.34 72.82 75.92 67.81 M 82.35 77.28 C 73.54 80.95 68.58 89.64 61.73 95.80 C 76.22 108.51 96.89 115.17 115.65 108.67 C 124.13 106.19 131.01 100.47 138.13 95.51 C 131.77 89.42 126.78 81.42 118.56 77.62 C 114.13 75.35 108.55 76.58 105.29 80.28 C 102.83 83.27 97.95 83.67 95.28 80.75 C 92.06 77.30 86.89 75.34 82.35 77.28 Z" />
</g>
</svg>
