<?xml version="1.0" encoding="UTF-8" ?>
<!DOCTYPE svg PUBLIC "-//W3C//DTD SVG 1.1//EN" "http://www.w3.org/Graphics/SVG/1.1/DTD/svg11.dtd">
<svg width="192pt" height="192pt" viewBox="0 0 192 192" version="1.1" xmlns="http://www.w3.org/2000/svg">
<g id="#44b6d8ff">
<path fill="#44b6d8" opacity="1.00" d=" M 21.01 38.96 C 20.51 29.58 28.53 20.74 38.01 20.77 C 70.67 20.68 103.33 20.73 135.99 20.74 C 142.58 20.51 148.78 25.49 150.05 31.93 C 150.78 36.04 150.34 40.24 150.43 44.39 C 160.12 43.28 169.71 51.01 169.77 60.93 C 169.83 93.64 169.83 126.37 169.77 159.08 C 169.87 165.69 163.53 171.11 157.05 170.55 C 113.42 170.47 69.78 170.70 26.16 170.44 C 19.77 170.31 19.77 159.61 26.10 159.33 C 70.23 158.96 114.39 159.30 158.53 159.08 C 158.45 126.73 158.57 94.37 158.47 62.01 C 158.79 58.44 155.60 55.38 152.04 55.80 C 113.35 55.80 74.65 55.72 35.96 55.84 C 33.57 55.57 32.23 57.86 32.42 59.98 C 32.20 86.99 32.65 114.03 32.20 141.02 C 31.20 147.26 21.02 146.38 21.10 140.06 C 20.90 106.36 21.07 72.66 21.01 38.96 M 37.17 44.42 C 71.10 44.67 105.05 44.42 138.99 44.54 C 138.42 40.54 141.57 31.81 135.08 32.12 C 102.37 32.18 69.65 31.99 36.95 32.22 C 29.82 32.54 30.06 44.26 37.17 44.42 Z" />
<path fill="#44b6d8" opacity="1.00" d=" M 91.44 112.44 C 97.05 109.43 103.95 110.25 110.05 111.01 C 116.28 112.00 117.04 119.56 116.38 124.61 C 114.59 126.28 111.59 125.20 109.32 125.51 C 108.69 122.93 108.93 119.95 107.32 117.73 C 103.99 116.64 99.34 115.96 96.65 118.62 C 95.83 125.79 95.81 133.22 96.65 140.38 C 99.31 143.09 104.04 142.37 107.35 141.29 C 108.91 139.04 108.70 136.07 109.32 133.49 C 111.59 133.87 114.74 132.58 116.37 134.57 C 117.20 139.89 115.96 147.68 109.32 148.24 C 103.42 148.58 96.77 149.68 91.41 146.60 C 86.80 142.05 88.74 134.80 88.28 129.00 C 88.67 123.52 87.01 116.66 91.44 112.44 Z" />
<path fill="#44b6d8" opacity="1.00" d=" M 119.33 110.89 C 121.77 110.93 124.33 110.47 126.70 111.26 C 129.54 115.59 131.27 120.54 133.64 125.13 C 136.19 120.70 137.89 115.83 140.53 111.46 C 142.95 110.32 145.74 110.98 148.32 110.94 C 146.35 117.31 142.74 122.97 140.02 129.02 C 142.86 135.36 146.45 141.35 148.93 147.85 C 146.40 148.05 143.69 148.78 141.26 147.78 C 138.26 143.45 136.52 138.38 133.93 133.80 C 131.66 137.99 129.84 142.40 127.49 146.55 C 125.84 149.67 121.73 147.80 118.96 147.79 C 121.43 141.39 124.93 135.47 127.77 129.24 C 124.96 123.12 121.36 117.33 119.33 110.89 Z" />
</g>
</svg>
