<?xml version="1.0" encoding="UTF-8" ?>
<!DOCTYPE svg PUBLIC "-//W3C//DTD SVG 1.1//EN" "http://www.w3.org/Graphics/SVG/1.1/DTD/svg11.dtd">
<svg width="192pt" height="192pt" viewBox="0 0 192 192" version="1.1" xmlns="http://www.w3.org/2000/svg">
<g id="#f6b12cff">
<path fill="#f6b12c" opacity="1.00" d=" M 83.40 12.50 C 103.04 9.47 123.80 15.20 139.05 27.95 C 155.03 41.01 164.86 61.31 164.83 81.99 C 164.89 106.01 164.90 130.03 164.85 154.05 C 165.07 164.74 155.66 174.37 145.00 174.52 C 111.00 174.59 77.00 174.56 43.00 174.51 C 32.30 174.43 22.88 164.76 23.07 154.05 C 23.12 128.67 22.86 103.29 23.23 77.91 C 24.75 45.55 51.33 16.78 83.40 12.50 M 85.42 23.55 C 58.18 27.03 35.57 51.45 34.41 78.93 C 34.19 103.95 34.34 128.99 34.34 154.01 C 34.21 159.10 38.93 163.56 44.00 163.26 C 77.33 163.26 110.67 163.26 144.00 163.22 C 149.04 163.50 153.63 159.03 153.54 154.00 C 153.57 129.66 153.58 105.32 153.54 80.98 C 153.27 57.36 137.27 34.99 115.12 26.89 C 105.74 23.09 95.40 22.41 85.42 23.55 Z" />
<path fill="#f6b12c" opacity="1.00" d=" M 65.43 61.58 C 74.78 59.92 83.27 67.09 86.48 75.41 C 91.66 87.95 89.53 104.71 78.26 113.28 C 70.72 119.16 59.26 116.69 53.79 109.17 C 42.23 94.78 45.66 66.61 65.43 61.58 M 65.39 73.38 C 55.67 80.55 55.75 99.65 66.99 105.24 C 77.20 104.87 79.17 90.98 77.20 83.01 C 76.13 77.90 71.51 70.33 65.39 73.38 Z" />
<path fill="#f6b12c" opacity="1.00" d=" M 117.45 61.71 C 126.54 59.63 135.19 66.31 138.67 74.34 C 144.33 86.80 142.56 103.65 131.66 112.74 C 124.44 118.92 112.88 117.26 107.08 109.96 C 94.87 95.84 97.84 67.42 117.45 61.71 M 118.28 73.27 C 110.48 78.46 109.71 89.96 112.89 98.07 C 114.37 102.46 119.46 107.64 124.21 104.19 C 131.32 98.41 131.95 87.39 128.60 79.39 C 126.99 75.57 122.79 70.87 118.28 73.27 Z" />
</g>
</svg>
