<?xml version="1.0" encoding="UTF-8" ?>
<!DOCTYPE svg PUBLIC "-//W3C//DTD SVG 1.1//EN" "http://www.w3.org/Graphics/SVG/1.1/DTD/svg11.dtd">
<svg width="192pt" height="192pt" viewBox="0 0 192 192" version="1.1" xmlns="http://www.w3.org/2000/svg">
<g id="#54c0aeff">
<path fill="#54c0ae" opacity="1.00" d=" M 40.29 21.37 C 70.44 19.95 100.78 21.15 131.00 20.75 C 137.67 20.91 144.37 20.38 151.02 21.05 C 162.00 22.55 170.94 32.85 170.79 43.95 C 170.86 77.98 170.87 112.01 170.83 146.05 C 171.16 158.34 160.35 169.46 148.07 169.52 C 113.70 169.58 79.32 169.55 44.94 169.50 C 32.64 169.47 21.78 158.34 22.12 146.02 C 22.11 112.00 22.12 77.97 22.17 43.95 C 21.99 33.40 30.06 23.61 40.29 21.37 M 42.27 32.28 C 37.18 33.66 33.09 38.56 33.27 43.94 C 33.23 77.98 33.26 112.02 33.27 146.06 C 32.97 152.83 39.29 158.80 46.01 158.37 C 79.67 158.35 113.33 158.34 146.98 158.32 C 153.68 158.70 159.81 152.77 159.65 146.07 C 159.70 112.02 159.73 77.97 159.66 43.92 C 159.75 36.85 152.87 31.22 146.00 31.78 C 111.44 32.15 76.76 31.03 42.27 32.28 Z" />
<path fill="#54c0ae" opacity="1.00" d=" M 50.39 45.57 C 54.86 45.01 59.41 45.23 63.90 45.38 C 68.23 45.53 70.40 51.47 67.50 54.54 C 65.18 57.37 61.18 56.29 58.00 56.53 C 54.56 56.27 50.12 57.49 47.68 54.31 C 45.27 51.46 46.76 46.50 50.39 45.57 Z" />
<path fill="#54c0ae" opacity="1.00" d=" M 91.34 58.40 C 109.88 55.24 129.15 68.40 133.20 86.71 C 138.04 104.90 126.70 125.26 108.84 130.95 C 94.00 136.33 76.20 130.72 66.90 118.03 C 58.68 107.32 56.99 92.05 62.77 79.83 C 67.88 68.47 79.02 60.16 91.34 58.40 M 91.40 68.51 C 78.70 70.83 68.76 83.11 69.30 96.04 C 69.13 112.29 85.68 125.94 101.61 122.53 C 116.60 120.21 127.32 104.08 123.58 89.34 C 120.64 75.22 105.52 65.38 91.40 68.51 Z" />
</g>
</svg>
