<?xml version="1.0" encoding="UTF-8" ?>
<!DOCTYPE svg PUBLIC "-//W3C//DTD SVG 1.1//EN" "http://www.w3.org/Graphics/SVG/1.1/DTD/svg11.dtd">
<svg width="192pt" height="192pt" viewBox="0 0 192 192" version="1.1" xmlns="http://www.w3.org/2000/svg">
<g id="#c08558ff">
<path fill="#c08558" opacity="1.00" d=" M 83.37 10.49 C 103.13 7.87 123.77 12.64 140.33 23.74 C 164.04 39.35 178.76 67.58 177.73 95.99 C 177.34 115.68 173.67 136.08 162.87 152.87 C 159.41 157.51 151.42 152.38 154.28 147.28 C 163.86 130.96 167.48 111.78 167.37 93.01 C 167.16 75.05 160.31 57.15 148.07 43.95 C 126.81 20.10 89.31 12.97 60.99 27.98 C 39.02 38.95 23.34 61.48 20.99 85.96 C 19.33 104.81 22.27 124.29 30.48 141.42 C 31.85 144.68 35.40 147.91 33.62 151.69 C 32.21 155.26 26.60 155.66 24.69 152.32 C 15.38 137.30 11.53 119.56 10.54 102.09 C 8.69 81.78 14.11 60.76 26.33 44.35 C 39.54 25.73 60.67 13.09 83.37 10.49 Z" />
<path fill="#c08558" opacity="1.00" d=" M 85.59 76.62 C 89.95 71.97 97.97 72.06 102.29 76.71 C 108.62 83.18 116.43 88.28 125.14 90.88 C 137.19 94.64 149.99 92.91 162.38 93.71 C 161.97 103.12 162.73 112.64 160.90 121.94 C 156.50 146.37 137.98 168.58 113.44 174.48 C 95.13 180.46 74.61 177.68 58.11 167.96 C 33.72 152.63 21.19 121.48 27.04 93.56 C 35.71 93.42 44.41 93.89 53.05 93.03 C 65.43 91.68 77.03 85.59 85.59 76.62 M 36.35 104.15 C 34.21 130.11 50.91 156.18 75.90 164.05 C 96.14 170.90 120.02 165.33 134.81 149.81 C 147.05 138.13 152.50 120.80 151.55 104.15 C 130.50 105.87 108.47 99.17 93.98 83.34 C 79.48 99.22 57.41 105.80 36.35 104.15 Z" />
</g>
</svg>
