<?xml version="1.0" encoding="UTF-8" ?>
<!DOCTYPE svg PUBLIC "-//W3C//DTD SVG 1.1//EN" "http://www.w3.org/Graphics/SVG/1.1/DTD/svg11.dtd">
<svg width="192pt" height="192pt" viewBox="0 0 192 192" version="1.1" xmlns="http://www.w3.org/2000/svg">
<g id="#8492a1ff">
<path fill="#8492a1" opacity="1.00" d=" M 40.29 21.30 C 75.78 19.98 111.44 21.11 146.99 20.73 C 159.55 20.20 171.02 31.37 170.82 43.93 C 170.87 77.98 170.86 112.02 170.82 146.07 C 171.16 158.36 160.32 169.46 148.05 169.52 C 113.68 169.58 79.32 169.57 44.96 169.52 C 32.62 169.52 21.79 158.39 22.05 146.07 C 22.02 112.02 22.01 77.97 22.06 43.93 C 21.98 33.36 29.99 23.53 40.29 21.30 M 42.28 32.36 C 37.24 33.76 33.20 38.60 33.30 43.93 C 33.25 77.97 33.28 112.02 33.29 146.06 C 33.04 152.80 39.27 158.76 45.98 158.33 C 79.66 158.33 113.34 158.34 147.01 158.33 C 153.71 158.71 159.82 152.76 159.66 146.07 C 159.70 112.02 159.73 77.97 159.64 43.92 C 159.71 36.89 152.89 31.26 146.03 31.82 C 111.46 32.20 76.78 31.13 42.28 32.36 Z" />
<path fill="#8492a1" opacity="1.00" d=" M 65.39 49.40 C 84.82 48.20 104.54 49.14 124.08 48.93 C 130.18 48.46 131.14 58.37 125.09 59.10 C 106.05 59.46 86.97 59.22 67.92 59.22 C 62.57 59.68 60.46 51.55 65.39 49.40 Z" />
<path fill="#8492a1" opacity="1.00" d=" M 59.19 105.11 C 60.84 103.70 63.49 104.68 65.54 104.46 C 65.98 115.90 65.91 127.40 65.61 138.84 C 63.74 140.37 60.98 139.27 58.96 138.49 C 55.37 140.30 50.93 140.27 47.23 138.86 C 42.86 136.21 44.21 130.29 43.93 126.00 C 44.19 121.94 43.00 116.61 46.76 113.80 C 50.52 111.86 55.27 112.13 59.03 113.99 C 58.99 111.03 58.80 108.05 59.19 105.11 M 51.43 118.40 C 50.31 123.44 50.55 128.70 51.26 133.78 C 53.61 133.95 57.46 135.48 58.67 132.67 C 59.20 128.30 59.31 123.75 58.52 119.40 C 57.01 117.16 53.70 118.51 51.43 118.40 Z" />
<path fill="#8492a1" opacity="1.00" d=" M 98.89 104.88 C 102.27 103.45 106.08 104.21 109.61 104.53 C 109.58 106.07 109.51 107.61 109.43 109.16 C 107.68 109.18 105.93 109.21 104.18 109.24 C 104.14 110.43 104.10 111.62 104.06 112.81 C 108.99 112.93 113.92 112.65 118.84 113.03 C 119.47 121.77 119.14 130.56 119.05 139.32 C 116.79 139.52 114.51 139.51 112.28 139.10 C 112.18 132.22 112.26 125.33 112.20 118.45 C 109.52 118.44 106.85 118.43 104.17 118.39 C 103.65 125.34 104.05 132.31 103.82 139.27 C 101.60 139.51 99.36 139.51 97.15 139.18 C 96.90 132.28 97.15 125.38 96.91 118.48 C 96.09 118.44 94.47 118.35 93.66 118.31 C 93.49 116.69 93.36 115.07 93.26 113.44 C 94.49 113.16 95.73 112.89 96.97 112.63 C 97.27 110.07 96.45 106.59 98.89 104.88 Z" />
<path fill="#8492a1" opacity="1.00" d=" M 112.45 104.47 C 114.68 104.37 116.91 104.43 119.13 104.70 C 119.07 106.55 119.00 108.40 118.93 110.26 C 116.69 110.41 114.43 110.38 112.22 109.95 C 112.27 108.12 112.35 106.30 112.45 104.47 Z" />
<path fill="#8492a1" opacity="1.00" d=" M 141.52 104.54 C 143.75 104.37 145.99 104.39 148.21 104.70 C 148.19 106.54 148.19 108.39 148.20 110.24 C 146.03 110.30 143.85 110.32 141.68 110.33 C 141.47 108.41 141.43 106.47 141.52 104.54 Z" />
<path fill="#8492a1" opacity="1.00" d=" M 125.74 107.09 C 127.86 107.06 129.98 107.06 132.11 107.09 C 132.24 108.97 132.34 110.84 132.44 112.72 C 134.25 112.85 136.07 112.97 137.88 113.11 C 137.98 114.83 138.08 116.54 138.19 118.25 C 136.26 118.34 134.33 118.42 132.39 118.50 C 132.39 123.68 132.34 128.86 132.44 134.04 C 134.20 134.18 135.97 134.29 137.73 134.41 C 137.92 136.04 138.09 137.67 138.27 139.31 C 134.21 139.53 127.35 141.57 125.86 136.27 C 125.07 130.43 125.72 124.50 125.49 118.63 C 124.28 118.43 123.08 118.23 121.88 118.03 C 121.90 116.46 121.92 114.90 121.95 113.33 C 123.12 113.10 124.30 112.88 125.47 112.66 C 125.54 110.80 125.62 108.95 125.74 107.09 Z" />
<path fill="#8492a1" opacity="1.00" d=" M 70.45 121.44 C 68.54 110.93 84.18 110.17 89.70 115.33 C 92.28 122.88 90.32 131.34 90.82 139.25 C 88.52 139.62 86.15 139.63 84.05 138.48 C 80.00 140.35 74.01 140.80 70.87 137.10 C 69.15 133.62 68.92 128.64 71.57 125.55 C 75.08 122.74 79.94 123.97 84.08 123.73 C 83.95 121.90 83.82 120.07 83.69 118.25 C 81.81 118.20 79.94 118.17 78.07 118.12 C 77.54 119.32 77.02 120.51 76.49 121.70 C 74.48 121.64 72.46 121.57 70.45 121.44 M 76.58 132.04 C 76.76 135.68 81.47 134.55 83.85 133.99 C 83.87 132.20 83.88 130.41 83.92 128.61 C 81.23 128.74 75.88 127.70 76.58 132.04 Z" />
<path fill="#8492a1" opacity="1.00" d=" M 141.74 112.84 C 143.83 112.85 145.92 112.89 148.01 112.99 C 148.53 121.76 148.25 130.56 148.19 139.34 C 146.07 139.14 143.28 140.25 141.58 138.72 C 141.32 130.11 141.10 121.43 141.74 112.84 Z" />
</g>
</svg>
