<?xml version="1.0" encoding="UTF-8" ?>
<!DOCTYPE svg PUBLIC "-//W3C//DTD SVG 1.1//EN" "http://www.w3.org/Graphics/SVG/1.1/DTD/svg11.dtd">
<svg width="192pt" height="192pt" viewBox="0 0 192 192" version="1.1" xmlns="http://www.w3.org/2000/svg">
<g id="#1ab1ffff">
<path fill="#1ab1ff" opacity="1.00" d=" M 22.11 43.93 C 21.90 31.71 32.79 20.69 45.02 20.77 C 66.69 20.79 88.37 20.59 110.02 20.86 C 116.26 21.19 116.17 31.52 109.93 31.71 C 88.61 31.97 67.28 31.68 45.96 31.81 C 39.38 31.58 33.09 37.22 33.27 43.93 C 33.23 77.97 33.25 112.02 33.27 146.07 C 33.02 152.80 39.24 158.73 45.94 158.33 C 79.88 158.30 113.83 158.36 147.78 158.27 C 154.18 158.26 159.76 152.46 159.64 146.08 C 159.73 112.37 159.66 78.65 159.68 44.93 C 160.12 38.70 155.19 32.78 149.02 32.02 C 143.96 31.54 138.87 31.95 133.80 31.83 C 133.73 63.56 133.91 95.30 133.75 127.03 C 133.92 131.44 128.05 134.09 124.76 131.22 C 121.82 129.05 122.66 125.00 122.48 121.84 C 111.10 133.17 92.23 135.76 78.31 127.67 C 63.84 119.95 56.00 102.03 60.13 86.15 C 63.55 71.34 76.85 59.49 91.98 57.89 C 103.09 56.45 114.49 60.51 122.58 68.17 C 122.58 54.44 122.56 40.71 122.59 26.98 C 122.25 23.87 124.71 20.68 127.96 20.79 C 134.97 20.68 141.99 20.65 149.00 20.82 C 160.83 21.30 170.98 32.11 170.82 43.93 C 170.89 77.97 170.89 112.01 170.85 146.05 C 171.14 158.34 160.37 169.47 148.07 169.51 C 113.69 169.59 79.31 169.56 44.94 169.50 C 32.61 169.49 21.78 158.36 22.07 146.04 C 22.05 112.01 22.05 77.97 22.11 43.93 M 91.32 69.40 C 79.45 71.57 70.09 82.91 70.36 95.00 C 70.17 105.68 77.39 115.90 87.41 119.49 C 102.86 125.85 121.81 113.61 122.45 96.96 C 124.34 80.44 107.49 65.51 91.32 69.40 Z" />
</g>
</svg>
