<?xml version="1.0" encoding="UTF-8" ?>
<!DOCTYPE svg PUBLIC "-//W3C//DTD SVG 1.1//EN" "http://www.w3.org/Graphics/SVG/1.1/DTD/svg11.dtd">
<svg width="192pt" height="192pt" viewBox="0 0 192 192" version="1.1" xmlns="http://www.w3.org/2000/svg">
<g id="#1cb5ffff">
<path fill="#1cb5ff" opacity="1.00" d=" M 103.35 14.44 C 111.97 11.90 121.73 16.19 126.01 24.01 C 136.54 42.17 147.17 60.28 157.39 78.62 C 167.19 97.57 166.78 121.14 157.18 140.08 C 145.54 163.58 119.28 179.16 93.02 177.47 C 68.51 176.77 45.13 161.69 34.45 139.62 C 22.30 115.73 25.85 84.81 43.73 64.73 C 49.87 58.07 60.63 57.31 68.22 61.81 C 77.07 67.13 80.57 80.04 74.81 88.82 C 71.97 92.89 69.07 97.08 67.97 102.02 C 64.50 114.29 70.80 128.03 81.81 134.14 C 92.43 140.59 107.02 138.37 115.79 129.78 C 124.97 121.36 127.60 106.52 121.38 95.64 C 114.87 84.21 107.68 73.14 101.44 61.58 C 99.20 55.47 108.91 51.48 111.72 57.32 C 118.15 67.92 124.42 78.64 130.77 89.29 C 138.84 102.64 137.48 120.70 128.10 133.05 C 119.06 145.28 102.69 151.59 87.79 148.36 C 72.52 145.31 59.89 132.57 56.64 117.39 C 53.72 105.08 57.99 92.25 65.46 82.42 C 69.75 74.91 59.39 66.40 52.76 71.72 C 35.55 89.82 34.15 119.65 47.69 140.28 C 57.42 155.58 74.92 165.58 93.04 166.14 C 109.07 167.40 125.21 160.79 136.50 149.50 C 154.14 132.36 158.46 103.11 146.24 81.72 C 136.20 64.13 126.16 46.54 115.87 29.10 C 112.77 23.43 103.47 23.89 100.80 29.71 C 98.90 33.48 100.89 37.42 101.96 41.07 C 102.57 46.58 94.31 49.05 91.66 44.34 C 84.39 33.61 90.68 17.34 103.35 14.44 Z" />
<path fill="#1cb5ff" opacity="1.00" d=" M 94.36 98.34 C 100.18 97.21 106.25 102.02 106.38 107.98 C 106.79 113.65 101.67 118.92 96.00 118.71 C 90.73 118.84 85.96 114.27 85.81 109.02 C 85.43 103.96 89.33 99.05 94.36 98.34 Z" />
</g>
</svg>
