<?xml version="1.0" encoding="UTF-8" ?>
<!DOCTYPE svg PUBLIC "-//W3C//DTD SVG 1.1//EN" "http://www.w3.org/Graphics/SVG/1.1/DTD/svg11.dtd">
<svg width="192pt" height="192pt" viewBox="0 0 192 192" version="1.1" xmlns="http://www.w3.org/2000/svg">
<g id="#fd6147ff">
<path fill="#fd6147" opacity="1.00" d=" M 29.10 45.02 C 44.90 23.22 72.25 10.87 98.96 11.87 C 129.77 12.48 159.20 31.84 172.19 59.73 C 174.00 63.38 172.28 68.05 168.48 69.58 C 156.96 75.36 145.55 81.43 133.91 86.97 C 128.17 89.38 123.72 80.22 129.01 77.08 C 139.26 71.45 149.88 66.49 160.22 61.01 C 151.34 44.77 136.01 32.20 118.40 26.56 C 91.65 17.81 59.92 26.03 41.50 47.49 C 30.36 60.69 23.33 77.65 23.30 95.04 C 23.44 101.49 13.09 102.28 12.22 95.93 C 11.58 77.65 18.42 59.67 29.10 45.02 Z" />
<path fill="#fd6147" opacity="1.00" d=" M 90.50 39.68 C 97.62 38.84 104.94 39.32 111.85 41.24 C 115.96 42.28 117.13 48.25 113.88 50.88 C 111.36 53.25 107.86 51.77 104.90 51.33 C 83.75 47.29 60.80 60.10 53.43 80.39 C 51.19 85.65 51.21 91.42 50.12 96.93 C 48.37 101.96 40.18 101.12 39.43 95.86 C 38.63 67.62 62.65 42.20 90.50 39.68 Z" />
<path fill="#fd6147" opacity="1.00" d=" M 171.35 90.33 C 174.47 88.38 179.11 90.38 179.67 94.04 C 180.99 126.72 160.44 158.54 130.76 171.88 C 112.26 180.43 90.63 181.86 71.15 175.90 C 47.26 168.70 26.94 150.32 17.77 127.08 C 16.12 123.27 19.92 118.68 23.99 119.62 C 28.44 120.48 28.97 125.73 31.03 128.97 C 44.93 156.98 78.37 173.21 108.99 166.91 C 139.88 161.54 165.36 134.28 168.13 102.96 C 169.02 98.79 167.06 93.02 171.35 90.33 Z" />
</g>
</svg>
