<?xml version="1.0" encoding="UTF-8" ?>
<!DOCTYPE svg PUBLIC "-//W3C//DTD SVG 1.1//EN" "http://www.w3.org/Graphics/SVG/1.1/DTD/svg11.dtd">
<svg width="192pt" height="192pt" viewBox="0 0 192 192" version="1.1" xmlns="http://www.w3.org/2000/svg">
<g id="#19b0ffff">
<path fill="#19b0ff" opacity="1.00" d=" M 22.87 53.06 C 18.44 39.22 27.76 22.00 42.98 20.90 C 77.97 20.55 112.98 20.80 147.98 20.76 C 160.19 20.73 171.01 31.73 170.82 43.94 C 170.84 70.26 171.00 96.60 170.77 122.92 C 169.26 129.04 161.51 128.41 157.08 126.01 C 131.37 115.98 104.75 128.53 79.43 133.57 C 64.26 136.97 48.02 137.55 33.26 132.06 C 33.32 137.04 33.14 142.03 33.31 147.02 C 33.57 153.40 39.64 158.74 46.00 158.33 C 79.67 158.32 113.33 158.32 146.99 158.30 C 153.30 158.64 159.31 153.36 159.55 147.01 C 159.92 144.44 159.16 141.28 161.32 139.32 C 163.95 136.39 169.37 137.62 170.52 141.37 C 173.41 154.71 162.72 168.97 148.98 169.47 C 114.30 169.65 79.62 169.53 44.94 169.51 C 33.00 169.48 22.33 159.04 22.11 147.09 C 22.00 121.71 22.05 96.33 22.11 70.95 C 21.95 65.18 28.73 61.37 33.64 64.36 C 48.32 71.90 65.61 70.46 81.01 66.04 C 93.14 62.87 105.20 59.45 117.34 56.32 C 131.25 52.87 146.16 53.26 159.66 58.24 C 159.12 51.57 161.16 44.24 158.00 38.04 C 155.61 33.87 150.75 31.54 146.00 31.81 C 112.66 31.84 79.31 31.77 45.97 31.81 C 41.03 31.73 36.15 34.70 34.22 39.28 C 32.25 43.50 34.16 48.36 32.63 52.65 C 31.01 56.56 24.84 56.80 22.87 53.06 M 111.42 69.55 C 86.14 75.84 58.97 87.35 33.23 76.48 C 33.29 90.95 33.22 105.41 33.27 119.88 C 49.45 127.57 68.07 125.12 84.81 120.74 C 109.04 114.65 134.98 105.65 159.68 114.77 C 159.61 100.05 159.84 85.33 159.56 70.61 C 144.55 63.09 126.96 64.56 111.42 69.55 Z" />
</g>
</svg>
