<?xml version="1.0" encoding="UTF-8" ?>
<!DOCTYPE svg PUBLIC "-//W3C//DTD SVG 1.1//EN" "http://www.w3.org/Graphics/SVG/1.1/DTD/svg11.dtd">
<svg width="192pt" height="192pt" viewBox="0 0 192 192" version="1.1" xmlns="http://www.w3.org/2000/svg">
<g id="#566373ff">
<path fill="#566373" opacity="1.00" d=" M 85.31 14.37 C 117.01 9.83 150.24 26.02 166.34 53.65 C 178.70 74.04 181.29 99.93 173.47 122.42 C 163.93 150.86 137.64 172.69 107.91 176.76 C 76.29 181.81 42.73 166.15 26.24 138.72 C 8.31 110.51 10.40 71.42 31.28 45.32 C 44.32 28.46 64.15 17.03 85.31 14.37 M 87.41 25.54 C 65.08 28.06 44.57 42.13 33.93 61.88 C 24.42 79.07 22.78 100.31 29.22 118.84 C 37.93 144.65 62.74 164.10 89.97 165.99 C 112.50 168.10 135.61 158.47 150.03 141.04 C 169.78 118.32 172.06 82.67 155.46 57.58 C 141.32 35.02 113.82 22.08 87.41 25.54 Z" />
<path fill="#566373" opacity="1.00" d=" M 51.32 77.40 C 54.33 76.97 56.99 79.06 58.12 81.72 C 64.11 94.02 76.37 103.05 89.96 104.86 C 107.57 107.63 126.22 97.85 133.87 81.73 C 135.45 76.73 142.95 75.75 145.47 80.45 C 152.42 96.47 150.06 115.91 140.22 130.23 C 130.57 144.70 113.41 153.85 96.00 153.61 C 78.59 153.82 61.52 144.58 51.86 130.15 C 42.11 116.05 39.86 97.08 46.21 81.13 C 47.05 79.06 49.10 77.59 51.32 77.40 M 53.92 96.39 C 51.28 119.84 71.37 142.52 95.02 142.36 C 119.35 143.69 140.93 120.55 138.08 96.37 C 129.09 107.21 116.09 114.74 102.01 116.24 C 83.86 118.52 65.47 110.33 53.92 96.39 Z" />
</g>
</svg>
