<?xml version="1.0" encoding="UTF-8" ?>
<!DOCTYPE svg PUBLIC "-//W3C//DTD SVG 1.1//EN" "http://www.w3.org/Graphics/SVG/1.1/DTD/svg11.dtd">
<svg width="192pt" height="192pt" viewBox="0 0 192 192" version="1.1" xmlns="http://www.w3.org/2000/svg">
<g id="#ed32b2ff">
<path fill="#ed32b2" opacity="1.00" d=" M 83.41 12.54 C 115.11 7.59 148.56 23.50 164.94 51.03 C 177.77 71.73 180.37 98.26 172.16 121.14 C 162.32 149.47 135.78 171.13 105.97 174.81 C 75.12 179.38 42.68 164.32 26.08 137.96 C 7.50 109.91 9.05 70.36 29.89 43.91 C 42.74 27.02 62.34 15.38 83.41 12.54 M 86.38 23.49 C 65.03 25.94 45.30 38.88 34.35 57.33 C 23.59 74.96 21.35 97.41 28.24 116.86 C 36.76 141.97 60.49 161.02 86.88 163.75 C 110.01 166.57 134.09 156.94 148.94 139.00 C 168.34 116.65 170.99 81.83 155.17 56.81 C 141.27 33.54 113.27 19.95 86.38 23.49 Z" />
<path fill="#ed32b2" opacity="1.00" d=" M 80.60 47.58 C 84.41 44.14 89.52 48.66 89.23 52.99 C 89.42 79.65 89.26 106.33 89.32 133.00 C 89.55 136.33 87.79 140.75 83.92 140.80 C 80.25 141.21 77.90 137.33 78.00 134.07 C 77.74 112.97 78.31 91.85 77.70 70.76 C 73.94 74.41 71.70 79.78 67.00 82.35 C 60.83 83.46 58.56 74.91 61.87 70.87 C 68.02 63.04 74.03 55.05 80.60 47.58 Z" />
<path fill="#ed32b2" opacity="1.00" d=" M 98.60 54.02 C 98.31 50.42 100.85 45.75 104.99 46.42 C 109.06 46.91 110.12 51.55 110.03 54.97 C 110.18 75.44 109.98 95.92 110.13 116.39 C 113.79 112.93 116.11 108.18 120.17 105.15 C 126.38 102.86 129.65 112.03 126.18 116.22 C 120.25 123.92 114.21 131.55 108.03 139.05 C 104.94 143.11 98.44 139.69 98.75 134.99 C 98.45 108.01 98.59 81.01 98.60 54.02 Z" />
</g>
</svg>
