<?xml version="1.0" encoding="UTF-8" ?>
<!DOCTYPE svg PUBLIC "-//W3C//DTD SVG 1.1//EN" "http://www.w3.org/Graphics/SVG/1.1/DTD/svg11.dtd">
<svg width="192pt" height="192pt" viewBox="0 0 192 192" version="1.1" xmlns="http://www.w3.org/2000/svg">
<g id="#e53962ff">
<path fill="#e53962" opacity="1.00" d=" M 79.34 44.09 C 80.33 37.96 90.40 38.74 90.38 45.00 C 90.57 68.32 90.41 91.66 90.46 114.99 C 90.40 128.66 82.37 141.92 70.25 148.26 C 57.22 155.45 40.02 153.89 28.53 144.43 C 17.21 135.56 11.66 120.01 15.05 106.01 C 18.15 91.55 30.42 79.54 44.99 76.91 C 57.17 74.40 70.19 78.55 79.10 87.12 C 79.34 72.78 78.84 58.42 79.34 44.09 M 45.36 88.47 C 33.31 91.48 24.49 103.69 25.46 116.09 C 25.98 129.39 37.69 141.08 51.04 141.39 C 66.76 142.60 80.99 127.58 79.00 111.95 C 78.02 95.98 60.72 83.80 45.36 88.47 Z" />
<path fill="#e53962" opacity="1.00" d=" M 109.45 70.64 C 119.64 70.19 129.87 70.50 140.07 70.49 C 157.81 70.67 174.05 84.52 177.36 101.88 C 181.69 120.55 171.30 141.52 153.11 148.20 C 140.27 152.95 126.33 150.25 112.98 150.88 C 105.58 151.57 98.29 145.59 98.01 138.08 C 97.89 120.05 97.97 102.01 97.97 83.97 C 97.90 77.52 103.09 71.56 109.45 70.64 M 109.38 84.10 C 109.15 91.11 109.42 98.14 109.26 105.16 C 114.47 105.41 119.70 105.28 124.91 105.24 C 129.51 96.03 143.29 96.14 147.92 105.26 C 154.11 105.27 160.29 105.28 166.48 105.23 C 164.51 92.87 153.54 82.65 140.99 81.91 C 131.66 81.56 122.31 81.82 112.97 81.75 C 111.44 81.58 109.27 82.19 109.38 84.10 M 109.28 116.16 C 109.51 123.55 108.93 130.99 109.56 138.36 C 118.11 140.96 127.94 138.78 137.00 139.51 C 150.65 140.52 164.66 130.13 166.08 116.24 C 159.90 116.31 153.73 116.18 147.56 116.34 C 143.93 123.51 133.12 125.32 127.63 119.39 C 123.80 113.12 115.36 116.22 109.28 116.16 Z" />
</g>
</svg>
