<?xml version="1.0" encoding="UTF-8" ?>
<!DOCTYPE svg PUBLIC "-//W3C//DTD SVG 1.1//EN" "http://www.w3.org/Graphics/SVG/1.1/DTD/svg11.dtd">
<svg width="192pt" height="192pt" viewBox="0 0 192 192" version="1.1" xmlns="http://www.w3.org/2000/svg">
<g id="#ff3660ff">
<path fill="#ff3660" opacity="1.00" d=" M 26.71 39.68 C 35.96 28.33 51.65 22.64 65.99 25.91 C 78.36 28.46 88.76 36.87 95.75 47.16 C 99.80 42.21 103.76 35.04 111.02 35.06 C 120.22 35.99 126.64 45.17 127.08 53.96 C 127.86 64.90 117.88 74.88 107.02 74.61 C 104.54 74.63 100.07 74.10 100.73 77.96 C 101.18 82.34 98.83 88.77 103.94 91.11 C 109.06 94.61 115.65 96.50 119.62 101.36 C 120.47 108.61 112.18 113.60 112.68 121.01 C 112.69 127.92 120.76 132.95 126.99 130.02 C 133.36 127.32 134.45 119.62 138.88 114.99 C 140.69 112.73 144.34 115.49 145.97 112.97 C 154.69 103.12 164.48 92.50 166.32 78.96 C 166.92 65.93 163.59 51.47 153.14 42.81 C 147.05 37.56 138.82 35.96 130.99 36.26 C 125.26 35.81 124.70 26.66 130.27 25.39 C 142.93 23.61 156.21 28.82 164.69 38.32 C 179.02 54.92 182.61 81.54 170.27 100.26 C 164.17 110.27 156.17 118.94 147.87 127.16 C 146.54 126.73 145.20 126.31 143.87 125.89 C 141.13 129.16 139.38 133.25 135.96 135.94 C 128.55 142.17 116.67 142.12 109.56 135.43 C 102.58 129.37 100.98 118.42 105.49 110.44 C 106.15 108.57 108.10 106.80 107.46 104.71 C 103.81 102.38 100.06 100.01 96.01 98.45 C 88.93 100.52 83.40 106.95 76.07 108.04 C 69.63 105.20 69.43 96.17 63.41 92.58 C 57.42 88.45 48.39 92.83 47.65 100.00 C 46.21 108.27 56.51 113.71 54.16 121.95 C 66.32 133.55 79.61 143.98 93.37 153.59 C 99.63 155.80 103.75 148.35 108.79 145.82 C 113.36 141.71 120.48 148.03 117.20 153.11 C 113.94 156.60 109.74 159.05 106.01 162.01 C 100.29 166.60 91.63 166.66 85.81 162.20 C 68.53 149.70 51.65 136.41 37.05 120.79 C 39.98 119.14 43.88 116.67 40.99 113.00 C 34.07 102.14 39.14 85.41 52.14 82.15 C 63.05 78.52 73.75 86.10 78.36 95.68 C 82.72 95.19 86.63 91.71 90.32 89.34 C 92.47 82.22 89.26 74.11 92.10 67.12 C 97.83 62.10 106.92 67.67 113.00 62.91 C 118.86 59.29 118.91 48.41 112.13 46.13 C 106.48 48.71 105.25 57.00 98.90 58.92 C 93.77 60.72 88.36 57.60 85.96 53.03 C 78.22 40.68 62.21 32.55 47.92 38.01 C 32.65 43.58 25.88 60.82 25.39 75.96 C 24.64 84.12 29.07 91.31 32.86 98.14 C 35.24 103.12 28.45 108.62 24.28 104.72 C 8.82 86.22 12.28 57.70 26.71 39.68 Z" />
</g>
</svg>
