<?xml version="1.0" encoding="UTF-8" ?>
<!DOCTYPE svg PUBLIC "-//W3C//DTD SVG 1.1//EN" "http://www.w3.org/Graphics/SVG/1.1/DTD/svg11.dtd">
<svg width="192pt" height="192pt" viewBox="0 0 192 192" version="1.1" xmlns="http://www.w3.org/2000/svg">
<g id="#40e175ff">
<path fill="#40e175" opacity="1.00" d=" M 63.42 19.50 C 80.36 17.79 97.87 19.12 115.02 18.81 C 121.61 18.95 121.65 29.84 115.02 29.97 C 98.68 30.27 82.30 30.20 65.96 30.01 C 60.60 29.97 58.69 21.98 63.42 19.50 Z" />
<path fill="#40e175" opacity="1.00" d=" M 50.41 32.51 C 54.18 29.70 60.01 33.41 59.07 38.00 C 53.86 71.39 48.60 104.79 43.14 138.14 C 41.94 144.88 30.86 142.77 32.21 136.04 C 37.19 103.56 42.54 71.13 47.59 38.66 C 47.98 36.44 48.28 33.79 50.41 32.51 Z" />
<path fill="#40e175" opacity="1.00" d=" M 120.22 34.21 C 124.44 32.01 129.46 36.61 128.02 41.04 C 122.95 73.66 118.01 106.30 112.81 138.90 C 112.04 145.32 101.61 144.54 101.74 138.09 C 106.37 105.64 111.76 73.28 116.62 40.85 C 116.93 38.31 117.54 35.27 120.22 34.21 Z" />
<path fill="#40e175" opacity="1.00" d=" M 59.41 80.47 C 72.71 78.81 86.53 80.11 100.03 79.80 C 106.68 79.89 106.71 90.89 100.02 90.98 C 87.35 91.27 74.63 91.20 61.95 91.01 C 56.55 90.99 54.64 82.95 59.41 80.47 Z" />
<path fill="#40e175" opacity="1.00" d=" M 150.93 114.03 C 151.25 111.47 153.77 110.27 155.76 109.12 C 161.00 113.41 157.45 120.40 157.11 125.97 C 156.30 130.95 156.76 137.33 151.10 139.53 C 149.76 137.91 147.36 136.45 148.06 134.00 C 148.88 127.33 149.85 120.67 150.93 114.03 Z" />
<path fill="#40e175" opacity="1.00" d=" M 121.25 119.96 C 121.29 115.83 122.71 111.70 126.83 110.07 C 131.40 113.01 129.40 118.64 128.82 123.01 C 128.00 127.97 128.44 134.18 123.00 136.60 C 116.98 132.78 121.18 125.52 121.25 119.96 Z" />
<path fill="#40e175" opacity="1.00" d=" M 122.27 140.03 C 126.02 133.76 134.06 136.68 140.01 135.99 C 143.61 135.39 147.01 136.94 148.97 140.00 C 145.17 147.22 136.42 143.84 129.97 144.66 C 126.51 145.37 123.27 143.41 122.27 140.03 Z" />
<path fill="#40e175" opacity="1.00" d=" M 146.39 146.24 C 146.50 143.60 149.20 142.58 151.06 141.31 C 156.30 145.11 153.12 151.74 152.74 156.93 C 152.02 162.27 152.33 168.75 147.02 171.91 C 145.32 170.56 142.99 168.87 143.45 166.38 C 144.31 159.65 145.35 152.94 146.39 146.24 Z" />
</g>
</svg>
