<?xml version="1.0" encoding="UTF-8" ?>
<!DOCTYPE svg PUBLIC "-//W3C//DTD SVG 1.1//EN" "http://www.w3.org/Graphics/SVG/1.1/DTD/svg11.dtd">
<svg width="192pt" height="192pt" viewBox="0 0 192 192" version="1.1" xmlns="http://www.w3.org/2000/svg">
<g id="#ff3661ff">
<path fill="#ff3661" opacity="1.00" d=" M 39.29 21.32 C 74.78 19.97 110.43 21.11 145.99 20.73 C 158.55 20.19 170.03 31.37 169.79 43.94 C 169.71 56.92 170.02 69.91 169.65 82.88 C 169.01 88.62 159.71 88.71 158.89 83.01 C 158.29 69.69 159.02 56.31 158.56 42.98 C 158.17 36.71 152.22 31.72 146.04 31.87 C 112.35 31.79 78.65 31.80 44.96 31.85 C 38.40 31.64 32.20 37.25 32.32 43.92 C 32.10 61.62 32.49 79.34 32.15 97.03 C 32.01 103.57 21.36 103.56 21.23 97.05 C 20.99 79.35 21.17 61.64 21.15 43.93 C 21.02 33.39 29.02 23.54 39.29 21.32 Z" />
<path fill="#ff3661" opacity="1.00" d=" M 78.58 56.59 C 82.95 51.79 89.83 51.07 95.91 50.44 C 100.01 50.22 105.72 49.44 107.30 54.38 C 102.90 56.05 98.36 57.31 93.93 58.89 C 94.89 62.90 94.01 68.44 98.33 70.67 C 101.87 72.66 105.36 74.76 109.07 76.42 C 114.06 74.92 118.45 71.94 123.16 69.76 C 122.71 66.65 122.04 63.59 121.53 60.50 C 130.28 59.30 135.46 67.20 139.47 73.60 C 141.72 76.32 138.25 78.85 136.02 80.07 C 131.67 78.11 128.63 73.77 124.10 72.33 C 119.62 74.49 115.31 77.06 110.57 78.70 C 108.88 84.95 107.97 91.38 106.41 97.67 C 100.01 98.61 93.46 98.73 87.03 98.16 C 83.56 93.40 83.09 87.06 79.63 82.29 C 75.35 80.97 70.89 79.93 66.46 79.30 C 63.31 82.59 60.96 86.54 57.92 89.93 C 56.23 88.97 53.80 87.76 54.42 85.38 C 55.65 79.20 58.79 73.49 62.51 68.47 C 63.65 66.62 65.92 66.80 67.81 66.62 C 67.69 69.61 67.11 72.61 67.43 75.60 C 71.59 77.97 76.50 78.47 81.07 79.67 C 84.67 75.99 88.94 73.06 92.69 69.56 C 92.84 66.10 92.02 62.57 90.68 59.39 C 86.73 58.12 82.53 57.87 78.58 56.59 Z" />
<path fill="#ff3661" opacity="1.00" d=" M 46.27 98.32 C 49.21 97.60 52.27 97.90 55.26 97.92 C 53.27 110.66 50.27 123.23 47.86 135.90 C 47.64 140.58 41.92 138.79 38.84 139.20 C 38.55 138.67 37.96 137.62 37.67 137.09 C 32.89 140.45 23.96 140.96 21.41 134.69 C 20.81 128.57 22.52 122.35 24.54 116.60 C 27.11 109.43 37.87 107.06 42.94 112.88 C 44.07 108.03 44.52 102.99 46.27 98.32 M 33.06 120.11 C 31.57 123.60 31.36 127.46 31.25 131.20 C 39.22 134.31 41.58 124.99 41.22 118.97 C 39.22 116.17 34.33 117.06 33.06 120.11 Z" />
<path fill="#ff3661" opacity="1.00" d=" M 160.82 97.90 C 163.83 97.86 166.86 97.90 169.86 98.23 C 169.59 100.69 169.16 103.14 168.60 105.56 C 165.56 105.63 162.45 105.97 159.48 105.19 C 159.68 102.72 160.25 100.31 160.82 97.90 Z" />
<path fill="#ff3661" opacity="1.00" d=" M 56.62 118.80 C 57.40 112.66 63.17 109.17 69.04 109.58 C 73.74 109.68 81.82 108.86 82.71 115.13 C 82.64 123.17 80.17 130.98 78.61 138.82 C 75.27 139.08 71.55 139.83 68.63 137.71 C 63.34 140.81 51.60 140.64 53.03 131.96 C 52.77 122.03 65.13 118.00 72.52 123.01 C 72.74 120.71 72.85 118.41 72.86 116.11 C 69.77 115.71 67.01 116.94 64.90 119.14 C 62.14 119.14 59.38 119.02 56.62 118.80 M 63.23 131.71 C 65.68 134.50 72.54 132.27 70.82 127.51 C 67.75 127.29 61.64 126.81 63.23 131.71 Z" />
<path fill="#ff3661" opacity="1.00" d=" M 86.91 110.15 C 89.79 110.00 92.68 109.96 95.58 109.95 C 95.87 116.70 94.68 123.41 94.81 130.15 C 98.23 123.83 100.05 116.78 103.43 110.45 C 106.83 109.46 110.51 110.15 114.02 110.13 C 114.40 116.94 114.22 123.76 114.45 130.57 C 117.40 123.93 118.71 116.57 122.20 110.21 C 124.90 109.77 127.66 110.00 130.39 110.08 C 127.30 119.77 123.95 129.51 119.73 138.75 C 115.67 139.41 111.41 139.45 107.37 138.64 C 106.52 132.59 107.17 126.43 106.80 120.34 C 104.78 125.16 102.91 130.05 101.04 134.94 C 99.56 141.75 91.06 138.52 86.11 138.85 C 85.93 129.28 86.28 119.70 86.91 110.15 Z" />
<path fill="#ff3661" opacity="1.00" d=" M 132.99 110.11 C 135.76 110.00 138.52 109.98 141.29 109.94 C 141.46 110.59 141.81 111.88 141.99 112.53 C 145.02 110.24 149.73 108.07 153.04 111.01 C 156.00 114.44 154.15 119.32 153.25 123.21 C 150.59 123.13 147.94 123.06 145.29 122.90 C 145.29 121.04 145.29 119.18 145.27 117.32 C 143.60 117.68 141.38 117.70 140.84 119.74 C 138.76 125.93 138.19 132.51 136.53 138.82 C 133.43 139.15 130.31 139.15 127.21 138.85 C 128.96 129.23 130.86 119.65 132.99 110.11 Z" />
<path fill="#ff3661" opacity="1.00" d=" M 157.71 112.81 C 158.35 108.16 164.33 110.50 167.52 109.94 C 166.01 119.57 164.23 129.25 161.70 138.66 C 158.84 139.62 155.77 138.95 152.84 138.75 C 153.86 130.01 156.01 121.44 157.71 112.81 Z" />
<path fill="#ff3661" opacity="1.00" d=" M 25.42 146.50 C 28.47 145.11 31.87 147.01 32.89 150.05 C 34.82 154.95 39.58 158.65 45.00 158.32 C 79.00 158.30 113.01 158.40 147.01 158.26 C 152.78 158.35 156.68 153.54 158.79 148.72 C 161.23 143.78 169.62 146.59 168.87 151.98 C 166.81 162.30 156.37 169.81 145.99 169.55 C 112.33 169.56 78.67 169.55 45.01 169.54 C 34.82 169.84 24.88 162.73 22.20 152.85 C 21.45 150.31 22.95 147.41 25.42 146.50 Z" />
</g>
</svg>
