<?xml version="1.0" encoding="UTF-8" ?>
<!DOCTYPE svg PUBLIC "-//W3C//DTD SVG 1.1//EN" "http://www.w3.org/Graphics/SVG/1.1/DTD/svg11.dtd">
<svg width="192pt" height="192pt" viewBox="0 0 192 192" version="1.1" xmlns="http://www.w3.org/2000/svg">
<g id="#ff3664ff">
<path fill="#ff3664" opacity="1.00" d=" M 48.31 32.32 C 56.98 20.12 72.29 13.90 87.00 14.38 C 98.36 14.82 109.93 13.33 121.12 15.84 C 132.99 18.40 143.00 27.04 148.02 38.00 C 156.38 54.76 154.06 73.91 154.92 91.98 C 154.89 97.87 156.57 105.07 151.49 109.48 C 141.76 118.79 130.46 127.69 116.96 130.39 C 104.99 130.79 92.99 130.40 81.00 130.57 C 68.38 131.38 57.31 123.86 47.69 116.61 C 47.58 130.41 47.57 144.21 47.68 158.01 C 47.52 161.35 50.65 164.10 53.91 163.84 C 81.63 163.90 109.34 163.84 137.06 163.87 C 140.12 164.21 143.53 162.23 143.84 158.98 C 144.35 149.41 143.47 139.77 144.25 130.22 C 145.47 124.50 154.77 125.13 155.11 131.00 C 155.47 140.65 155.30 150.34 155.20 160.00 C 155.05 168.37 147.36 175.55 139.00 175.20 C 109.99 175.18 80.98 175.26 51.97 175.16 C 43.48 175.22 36.06 167.45 36.43 158.98 C 36.64 130.98 36.67 102.98 37.46 74.99 C 37.44 60.23 39.41 44.58 48.31 32.32 M 54.23 45.26 C 46.52 62.82 49.91 82.54 48.46 101.13 C 56.06 109.01 65.27 116.18 76.12 118.66 C 89.35 118.88 102.63 118.93 115.86 118.64 C 126.66 115.91 135.56 108.48 143.47 100.94 C 143.19 87.95 143.00 74.96 142.51 61.98 C 141.39 49.69 136.86 35.96 125.27 29.80 C 113.75 23.92 100.39 27.00 88.01 26.17 C 74.28 25.11 59.74 32.24 54.23 45.26 Z" />
<path fill="#ff3664" opacity="1.00" d=" M 59.97 89.06 C 64.61 88.20 71.09 87.35 73.49 92.55 C 76.41 98.40 82.20 103.22 83.01 109.84 C 78.43 110.02 72.00 111.63 69.34 106.65 C 66.25 100.78 61.95 95.43 59.97 89.06 Z" />
<path fill="#ff3664" opacity="1.00" d=" M 118.89 91.87 C 121.47 87.19 127.65 88.39 132.02 89.05 C 129.58 95.98 125.55 102.42 121.49 108.50 C 118.18 110.69 110.54 111.72 108.65 108.03 C 111.58 102.36 115.53 97.29 118.89 91.87 Z" />
<path fill="#ff3664" opacity="1.00" d=" M 62.35 142.46 C 84.21 141.87 106.14 142.30 128.02 142.23 C 134.23 141.75 135.04 152.07 128.87 152.55 C 107.25 152.80 85.60 152.64 63.97 152.62 C 58.20 153.09 56.83 143.87 62.35 142.46 Z" />
</g>
</svg>
