<?xml version="1.0" encoding="UTF-8" ?>
<!DOCTYPE svg PUBLIC "-//W3C//DTD SVG 1.1//EN" "http://www.w3.org/Graphics/SVG/1.1/DTD/svg11.dtd">
<svg width="192pt" height="192pt" viewBox="0 0 192 192" version="1.1" xmlns="http://www.w3.org/2000/svg">
<g id="#b4695cff">
<path fill="#b4695c" opacity="1.00" d=" M 41.45 18.68 C 72.61 18.10 103.82 18.51 135.00 18.45 C 141.61 18.12 142.25 29.02 135.63 29.42 C 105.42 29.63 75.20 29.44 44.99 29.50 C 38.31 29.24 32.35 35.35 32.56 41.99 C 32.45 63.60 32.74 85.22 32.43 106.81 C 31.80 112.91 22.10 112.66 21.64 106.59 C 21.42 85.05 21.60 63.49 21.56 41.94 C 21.32 30.67 30.29 20.20 41.45 18.68 Z" />
<path fill="#b4695c" opacity="1.00" d=" M 148.36 22.36 C 151.36 20.92 155.45 22.16 156.82 25.28 C 158.44 29.36 157.90 34.44 161.30 37.68 C 164.68 41.41 170.22 40.47 174.38 42.60 C 178.19 44.86 178.19 51.13 174.37 53.38 C 170.19 55.44 164.66 54.58 161.32 58.32 C 157.63 61.72 158.65 67.28 156.43 71.40 C 154.15 75.21 147.93 75.13 145.76 71.25 C 143.72 67.04 144.55 61.54 140.85 58.14 C 137.41 54.51 131.88 55.48 127.75 53.27 C 123.89 50.83 124.23 44.27 128.41 42.35 C 132.67 40.57 138.17 41.21 141.36 37.32 C 145.52 33.21 142.80 25.33 148.36 22.36 M 139.03 47.93 C 144.69 50.05 149.15 54.59 151.17 60.29 C 153.09 54.57 157.62 50.13 163.19 47.96 C 157.60 45.85 153.16 41.41 151.15 35.77 C 149.12 41.42 144.71 45.94 139.03 47.93 Z" />
<path fill="#b4695c" opacity="1.00" d=" M 91.31 46.32 C 96.41 44.09 103.16 46.86 104.74 52.32 C 106.99 60.22 106.81 69.62 113.53 75.45 C 119.79 81.81 129.38 80.74 137.10 83.87 C 144.35 87.39 143.76 99.44 136.15 102.18 C 128.30 104.70 118.79 104.19 112.86 110.87 C 106.10 117.17 107.33 127.14 104.00 135.02 C 100.40 142.14 88.79 141.50 85.95 134.07 C 83.34 126.21 83.95 116.67 77.36 110.64 C 71.32 104.11 61.85 104.73 54.05 102.07 C 46.75 99.22 46.19 87.79 53.01 84.07 C 59.61 80.97 67.61 81.94 73.84 77.82 C 79.18 74.53 82.54 68.73 83.47 62.60 C 84.89 56.81 84.65 48.84 91.31 46.32 M 88.74 78.67 C 83.05 87.17 73.17 91.39 63.34 92.77 C 69.67 94.06 76.22 95.52 81.45 99.55 C 89.80 105.28 93.73 115.11 95.23 124.78 C 96.46 119.25 97.46 113.48 100.61 108.64 C 106.04 99.18 116.54 94.33 126.96 92.76 C 119.95 91.47 112.77 89.56 107.28 84.75 C 100.00 78.99 96.72 69.90 95.22 61.03 C 93.80 67.14 92.61 73.54 88.74 78.67 Z" />
<path fill="#b4695c" opacity="1.00" d=" M 162.23 74.17 C 165.89 72.62 170.20 76.01 169.68 79.92 C 169.66 101.63 169.75 123.35 169.64 145.06 C 169.34 156.84 158.76 167.04 147.01 167.18 C 117.68 167.41 88.33 167.17 58.99 167.30 C 56.32 167.35 52.97 167.23 51.49 164.57 C 49.04 161.29 51.84 155.91 55.96 156.14 C 86.00 156.01 116.04 156.14 146.07 156.05 C 152.60 156.27 158.72 150.59 158.60 143.98 C 158.67 122.65 158.55 101.31 158.65 79.97 C 158.54 77.54 159.89 75.04 162.23 74.17 Z" />
<path fill="#b4695c" opacity="1.00" d=" M 38.43 111.49 C 46.84 110.37 45.58 120.69 48.30 125.67 C 50.98 130.36 56.81 130.35 61.40 131.65 C 66.21 132.99 67.09 140.29 62.91 142.91 C 58.78 145.13 53.22 144.14 49.81 147.80 C 46.09 151.14 46.91 156.63 44.94 160.83 C 42.72 164.82 36.27 164.82 34.06 160.83 C 32.08 156.63 32.90 151.15 29.19 147.80 C 25.78 144.13 20.22 145.12 16.09 142.91 C 12.18 140.41 12.63 133.72 16.94 131.90 C 21.44 130.25 27.30 130.72 30.28 126.25 C 33.84 121.78 31.29 112.81 38.43 111.49 M 39.44 125.01 C 37.75 131.02 32.94 135.92 26.88 137.54 C 32.84 139.47 37.72 144.20 39.46 150.28 C 41.32 144.26 46.11 139.47 52.10 137.54 C 45.98 135.93 41.34 130.94 39.44 125.01 Z" />
</g>
</svg>
