<?xml version="1.0" encoding="UTF-8" ?>
<!DOCTYPE svg PUBLIC "-//W3C//DTD SVG 1.1//EN" "http://www.w3.org/Graphics/SVG/1.1/DTD/svg11.dtd">
<svg width="192pt" height="192pt" viewBox="0 0 192 192" version="1.1" xmlns="http://www.w3.org/2000/svg">
<g id="#ff3662ff">
<path fill="#ff3662" opacity="1.00" d=" M 39.31 21.31 C 74.80 19.97 110.45 21.11 146.00 20.73 C 158.56 20.21 170.00 31.36 169.82 43.92 C 169.88 77.97 169.87 112.02 169.83 146.07 C 170.14 158.36 159.33 169.46 147.05 169.51 C 112.69 169.59 78.33 169.57 43.97 169.51 C 31.64 169.51 20.80 158.40 21.06 146.08 C 21.03 112.03 21.02 77.97 21.08 43.92 C 20.99 33.35 29.02 23.53 39.31 21.31 M 32.29 43.93 C 32.16 66.52 32.41 89.11 32.18 111.70 C 36.67 111.78 41.17 111.72 45.66 111.57 C 45.65 113.02 45.64 114.48 45.64 115.94 C 44.10 116.08 42.57 116.21 41.03 116.35 C 41.16 124.48 42.21 132.56 42.31 140.69 C 40.68 140.62 39.05 140.57 37.41 140.51 C 36.45 132.53 36.32 124.48 35.48 116.49 C 34.68 116.52 33.09 116.58 32.29 116.61 C 32.32 126.74 32.15 136.87 32.33 147.00 C 32.56 153.39 38.61 158.70 44.97 158.33 C 78.66 158.33 112.35 158.33 146.04 158.31 C 151.45 158.67 155.83 154.83 158.17 150.28 C 156.16 149.70 154.14 149.17 152.12 148.66 C 150.73 149.36 149.41 150.79 147.71 150.33 C 141.11 149.32 134.45 148.70 127.78 148.49 C 127.29 151.61 126.88 154.74 126.27 157.84 C 125.88 156.20 125.56 154.54 125.25 152.88 C 124.63 153.29 124.01 153.70 123.39 154.12 C 123.01 151.63 122.10 149.28 120.56 147.28 C 120.70 145.56 120.83 143.84 120.92 142.11 C 121.82 141.71 122.71 141.31 123.61 140.91 C 124.70 138.45 126.01 136.10 127.40 133.80 C 124.37 130.66 124.33 125.99 121.97 122.45 C 121.19 126.79 121.54 131.22 121.45 135.60 C 120.14 135.70 118.82 135.84 117.50 135.84 C 116.43 126.18 115.86 116.45 115.49 106.73 C 118.58 106.66 121.82 105.90 124.82 106.90 C 128.80 109.18 129.97 114.45 128.38 118.57 C 126.69 122.81 129.15 127.05 130.01 131.19 C 133.77 126.29 136.54 120.64 141.14 116.41 C 141.82 116.44 142.50 116.47 143.18 116.49 C 146.81 111.02 150.49 103.36 145.38 97.57 C 141.85 93.11 136.49 97.10 133.59 100.13 C 133.28 103.65 132.80 107.18 131.97 110.62 C 129.98 105.47 127.61 99.80 128.86 94.20 C 132.26 90.08 137.12 87.30 141.16 83.80 C 147.15 86.04 153.45 88.04 158.80 91.66 C 158.50 75.75 158.84 59.83 158.64 43.92 C 158.69 37.30 152.60 31.70 146.07 31.87 C 112.36 31.79 78.64 31.80 44.94 31.85 C 38.38 31.64 32.14 37.25 32.29 43.93 M 121.40 110.02 C 120.97 113.95 121.15 117.91 121.38 121.85 C 123.73 118.29 125.13 113.22 121.40 110.02 M 156.05 124.43 C 154.95 123.14 153.87 121.85 152.78 120.56 C 148.61 126.22 144.72 132.09 140.35 137.60 C 141.08 139.01 141.79 140.42 142.49 141.85 C 148.71 139.84 153.13 146.21 158.65 148.07 C 158.77 136.82 158.59 125.57 158.67 114.32 C 157.88 117.71 157.04 121.09 156.05 124.43 Z" />
<path fill="#ff3662" opacity="1.00" d=" M 94.10 32.91 C 94.51 32.86 95.31 32.76 95.72 32.71 C 95.53 33.42 95.15 34.84 94.97 35.55 C 97.34 34.82 99.76 34.27 102.19 33.79 C 107.87 37.18 114.55 34.77 120.63 36.45 C 120.53 37.20 120.35 38.70 120.25 39.44 C 121.27 38.67 123.31 37.11 124.33 36.33 C 124.13 37.24 123.73 39.04 123.52 39.94 C 128.10 42.39 132.33 45.76 135.04 50.25 C 129.45 47.13 123.89 43.13 117.08 44.15 C 118.34 44.80 119.59 45.45 120.85 46.11 C 117.80 45.92 114.48 44.84 111.66 46.57 C 108.42 47.85 106.76 51.66 103.05 51.91 C 102.23 53.44 101.46 54.98 100.72 56.55 C 101.73 56.74 103.75 57.13 104.76 57.33 C 104.00 56.76 102.49 55.63 101.74 55.06 C 103.40 53.61 105.13 52.23 106.93 50.94 C 107.37 51.56 108.26 52.79 108.70 53.41 C 107.48 55.30 106.40 57.27 105.44 59.31 C 104.68 58.85 103.91 58.38 103.15 57.92 C 102.77 59.04 102.40 60.16 102.02 61.27 C 102.83 62.06 103.64 62.85 104.45 63.64 C 104.56 64.92 104.68 66.20 104.81 67.48 C 109.87 68.18 111.17 72.92 110.65 77.37 C 111.45 76.08 112.24 74.79 113.05 73.51 C 113.34 74.12 113.92 75.34 114.22 75.95 C 114.51 75.78 115.09 75.44 115.38 75.28 C 116.90 75.95 118.46 76.52 120.02 77.09 C 120.69 76.24 121.36 75.40 122.04 74.56 C 121.96 75.64 121.79 77.78 121.71 78.85 C 122.76 77.99 123.82 77.13 124.88 76.27 C 124.84 77.29 124.76 79.32 124.72 80.34 C 125.39 79.37 126.73 77.42 127.40 76.45 C 129.02 79.90 126.16 81.94 123.91 83.92 C 121.70 88.58 118.05 93.51 120.56 98.80 C 118.85 103.07 113.05 103.07 109.18 102.70 C 104.56 99.67 100.36 95.80 97.45 91.05 C 97.47 94.66 98.13 98.34 97.35 101.90 C 96.15 105.30 92.02 105.68 89.36 107.52 C 86.43 106.22 83.34 105.34 80.36 104.15 C 79.65 104.38 78.94 104.61 78.23 104.85 C 77.41 101.69 76.07 98.69 74.23 95.99 C 73.70 99.91 73.64 103.95 72.29 107.72 C 67.39 107.13 62.45 107.49 57.54 107.33 C 57.74 102.11 57.51 96.83 55.36 91.97 C 56.68 86.88 55.40 81.69 55.10 76.56 C 59.03 76.15 63.00 76.06 66.95 76.27 C 68.17 80.67 64.57 81.19 61.09 81.42 C 60.56 86.05 61.23 90.56 66.97 90.13 C 65.76 91.91 64.15 93.32 62.12 94.09 C 62.09 97.08 62.14 100.08 62.24 103.07 C 62.94 102.41 63.64 101.76 64.34 101.10 C 64.80 101.68 65.25 102.26 65.71 102.84 C 66.61 102.52 67.51 102.19 68.41 101.87 C 69.30 93.00 69.83 84.08 71.33 75.29 C 73.28 75.34 75.25 75.31 77.18 75.68 C 80.47 85.30 79.30 96.37 84.10 105.37 C 83.97 95.20 82.03 85.18 82.56 74.98 C 87.18 74.80 91.91 74.82 96.25 76.64 C 96.61 77.91 96.98 79.18 97.35 80.44 C 99.01 81.15 100.67 81.86 102.35 82.53 C 101.00 80.67 99.59 78.85 98.35 76.92 C 100.09 77.31 101.84 77.73 103.58 78.14 C 103.85 74.03 100.04 72.47 97.24 70.45 C 93.45 71.75 88.77 74.33 85.51 70.55 C 83.30 70.71 81.10 70.80 78.89 70.75 C 80.25 70.23 81.62 69.74 83.00 69.28 C 82.78 67.36 82.60 65.44 82.58 63.52 C 84.13 62.70 85.68 61.87 87.22 61.03 C 86.37 59.15 85.51 57.28 84.66 55.41 C 82.47 54.69 80.29 53.92 78.22 52.91 C 81.12 52.86 84.14 54.46 86.92 53.02 C 85.94 52.77 83.98 52.26 83.01 52.00 C 84.61 51.19 86.22 50.39 87.84 49.61 C 87.52 49.27 86.89 48.60 86.57 48.26 C 86.70 47.54 86.94 46.10 87.07 45.39 C 87.96 44.92 88.84 44.44 89.73 43.97 C 89.49 43.10 89.25 42.23 89.01 41.36 C 89.29 40.98 89.85 40.24 90.13 39.87 C 91.10 41.12 92.09 42.36 93.10 43.59 C 92.54 41.32 91.95 39.06 91.39 36.80 C 92.19 37.08 93.80 37.65 94.61 37.93 C 94.44 36.26 94.27 34.58 94.10 32.91 M 88.48 79.16 C 89.40 86.30 88.90 93.57 90.02 100.67 C 91.76 101.15 92.51 99.73 92.21 98.18 C 91.58 92.44 91.38 86.67 91.33 80.90 C 90.38 80.32 89.43 79.74 88.48 79.16 M 74.48 95.80 C 77.84 92.78 75.52 88.04 75.29 84.28 C 74.74 88.09 74.26 91.94 74.48 95.80 M 108.74 95.78 C 109.06 96.46 109.69 97.83 110.01 98.51 C 110.72 96.93 111.44 95.34 112.12 93.74 C 110.97 94.38 109.84 95.06 108.74 95.78 Z" />
<path fill="#ff3662" opacity="1.00" d=" M 108.27 54.42 C 114.44 53.30 120.68 54.52 123.86 60.38 C 124.00 60.94 124.29 62.07 124.43 62.63 C 119.60 64.52 113.30 66.77 109.66 61.51 C 106.06 62.70 105.89 60.14 106.61 57.16 C 107.14 57.60 108.20 58.47 108.74 58.91 C 108.57 57.41 108.41 55.91 108.27 54.42 Z" />
<path fill="#ff3662" opacity="1.00" d=" M 126.14 61.70 C 130.43 61.42 134.29 63.73 135.97 67.70 C 134.26 68.88 132.55 70.04 130.89 71.29 C 128.31 68.70 125.89 65.57 126.14 61.70 Z" />
<path fill="#ff3662" opacity="1.00" d=" M 105.99 65.47 C 107.40 64.93 110.27 66.20 109.67 67.98 C 108.28 68.69 105.76 67.00 105.99 65.47 Z" />
<path fill="#ff3662" opacity="1.00" d=" M 120.43 70.59 C 119.26 67.48 123.47 65.96 125.29 64.24 C 126.03 66.76 126.54 69.34 126.83 71.96 C 124.68 71.60 122.49 71.33 120.43 70.59 Z" />
<path fill="#ff3662" opacity="1.00" d=" M 38.85 77.39 C 43.41 77.57 50.45 75.88 52.58 81.30 C 53.47 86.79 53.33 92.41 53.86 97.95 C 53.89 100.90 54.50 104.75 51.73 106.72 C 48.46 108.70 44.44 108.21 40.79 108.38 C 40.11 98.06 38.61 87.73 38.85 77.39 M 44.61 81.50 C 45.36 89.25 45.46 97.03 46.05 104.79 C 51.58 99.02 47.20 89.82 47.23 82.66 C 46.58 82.37 45.26 81.79 44.61 81.50 Z" />
<path fill="#ff3662" opacity="1.00" d=" M 103.07 107.86 C 106.54 107.58 110.02 107.34 113.50 107.27 C 113.62 108.68 113.74 110.10 113.85 111.51 C 112.05 111.80 110.25 112.08 108.46 112.37 C 108.47 114.80 108.52 117.22 108.61 119.65 C 110.23 119.70 111.86 119.75 113.49 119.80 C 112.01 121.17 110.54 122.54 109.06 123.90 C 109.22 126.64 109.38 129.38 109.52 132.13 C 111.56 132.12 113.59 132.10 115.63 132.11 C 115.71 133.50 115.79 134.89 115.88 136.29 C 112.07 136.62 108.25 136.82 104.44 137.24 C 104.69 132.83 104.10 128.45 103.82 124.06 C 103.15 123.45 102.48 122.84 101.82 122.23 C 102.63 121.53 103.43 120.84 104.24 120.14 C 103.90 116.04 103.79 111.91 103.07 107.86 Z" />
<path fill="#ff3662" opacity="1.00" d=" M 72.80 113.03 C 73.60 108.01 80.55 106.85 83.67 110.38 C 85.35 112.75 84.89 115.83 84.77 118.56 C 83.42 118.55 82.08 118.55 80.74 118.53 C 80.16 116.18 79.55 113.84 78.85 111.53 C 76.14 118.65 78.89 126.65 78.99 134.11 C 82.63 131.06 81.42 125.97 80.59 121.95 C 82.16 121.96 83.73 121.96 85.30 121.96 C 85.20 129.30 86.64 136.57 86.48 143.91 C 85.04 141.85 83.84 139.65 82.67 137.44 C 79.09 138.57 74.43 137.69 73.73 133.38 C 73.44 126.60 71.74 119.80 72.80 113.03 Z" />
<path fill="#ff3662" opacity="1.00" d=" M 88.18 114.97 C 87.89 110.50 92.72 107.07 96.82 109.07 C 101.15 110.25 100.81 115.51 100.74 119.05 C 96.64 119.95 94.72 117.05 95.25 113.32 C 94.79 113.23 93.87 113.05 93.41 112.96 C 93.81 120.20 92.31 127.91 94.92 134.81 C 96.35 130.84 96.73 126.58 96.39 122.39 C 97.74 122.40 99.09 122.42 100.43 122.44 C 101.03 129.08 101.17 135.73 101.26 142.39 C 99.96 140.39 98.70 138.39 97.52 136.33 C 96.92 136.89 95.72 138.02 95.12 138.58 C 93.56 138.22 92.01 137.86 90.45 137.49 C 87.26 130.50 88.18 122.46 88.18 114.97 Z" />
<path fill="#ff3662" opacity="1.00" d=" M 46.77 109.91 C 49.05 110.33 51.33 110.82 53.49 111.69 C 54.41 111.36 55.32 111.03 56.23 110.70 C 60.81 114.14 61.94 120.79 58.65 125.48 C 58.76 130.21 61.29 134.66 62.18 139.33 C 60.37 139.35 58.56 139.35 56.75 139.34 C 55.58 135.25 54.69 131.07 53.20 127.08 C 53.04 131.26 53.46 135.42 53.77 139.57 C 52.13 139.42 50.11 140.33 48.71 139.33 C 47.90 129.54 47.14 119.73 46.77 109.91 M 52.41 113.86 C 52.11 117.86 52.43 121.87 52.98 125.83 C 55.52 122.04 55.66 117.27 52.41 113.86 Z" />
<path fill="#ff3662" opacity="1.00" d=" M 63.05 110.19 C 64.91 110.20 66.77 110.14 68.62 110.37 C 69.30 120.25 70.71 130.17 70.34 140.10 C 68.53 140.20 66.72 140.29 64.91 140.36 C 64.68 130.28 63.74 120.24 63.05 110.19 Z" />
</g>
</svg>
