<?xml version="1.0" encoding="UTF-8" ?>
<!DOCTYPE svg PUBLIC "-//W3C//DTD SVG 1.1//EN" "http://www.w3.org/Graphics/SVG/1.1/DTD/svg11.dtd">
<svg width="192pt" height="192pt" viewBox="0 0 192 192" version="1.1" xmlns="http://www.w3.org/2000/svg">
<g id="#19b0ffff">
<path fill="#19b0ff" opacity="1.00" d=" M 38.36 21.48 C 42.49 20.47 46.78 20.76 51.00 20.73 C 80.33 20.74 109.67 20.74 139.00 20.72 C 144.48 20.73 150.22 20.33 155.35 22.64 C 164.10 26.25 170.06 35.48 169.75 44.95 C 169.64 54.19 170.03 63.46 169.57 72.69 C 168.89 78.31 159.84 78.52 158.80 72.98 C 158.03 63.09 158.87 53.11 158.42 43.19 C 158.04 37.02 152.28 31.83 146.09 32.12 C 112.04 32.08 77.98 32.10 43.93 32.11 C 37.73 31.85 32.18 37.11 31.73 43.22 C 31.28 53.13 32.03 63.08 31.40 72.98 C 30.33 78.54 21.34 78.21 20.66 72.60 C 20.25 63.07 20.56 53.50 20.52 43.96 C 20.54 33.58 28.25 23.85 38.36 21.48 Z" />
<path fill="#19b0ff" opacity="1.00" d=" M 13.24 83.12 C 20.71 82.39 28.68 82.73 34.06 88.70 C 34.25 86.86 34.40 85.02 34.56 83.18 C 39.26 82.98 43.97 82.90 48.67 83.21 C 48.65 85.26 48.59 87.32 48.48 89.37 C 46.12 89.40 43.77 89.43 41.41 89.48 C 41.41 90.44 41.41 91.41 41.42 92.38 C 43.80 92.47 46.19 92.53 48.58 92.63 C 48.60 94.65 48.60 96.68 48.56 98.71 C 46.18 98.78 43.81 98.84 41.43 98.92 C 41.40 99.74 41.34 101.38 41.31 102.20 C 43.73 102.34 46.15 102.42 48.57 102.55 C 48.62 104.55 48.63 106.56 48.62 108.56 C 43.98 108.69 39.34 108.65 34.70 108.56 C 34.35 106.72 34.01 104.88 33.63 103.04 C 28.69 109.44 20.49 109.05 13.26 108.53 C 13.05 100.07 13.10 91.59 13.24 83.12 M 20.22 89.07 C 20.06 93.62 20.04 98.18 20.23 102.73 C 30.84 106.07 30.84 85.67 20.22 89.07 Z" />
<path fill="#19b0ff" opacity="1.00" d=" M 52.44 87.43 C 57.21 81.44 66.47 81.84 71.71 86.99 C 70.77 88.60 69.83 90.20 68.86 91.79 C 64.95 89.42 58.47 88.05 56.12 93.17 C 53.12 98.34 60.12 104.91 64.85 100.83 C 69.57 95.43 72.29 88.54 76.94 83.07 C 84.70 83.44 92.47 82.74 100.24 83.09 C 100.29 85.00 100.31 86.92 100.31 88.84 C 98.74 88.99 97.16 89.14 95.59 89.29 C 95.46 95.72 95.63 102.16 95.46 108.59 C 93.42 108.61 91.38 108.60 89.34 108.57 C 89.11 102.19 89.34 95.81 89.15 89.43 C 87.29 89.09 85.43 88.73 83.58 88.33 C 83.66 95.08 83.70 101.83 83.56 108.57 C 81.58 108.61 79.61 108.62 77.64 108.63 C 77.35 107.33 77.06 106.03 76.77 104.74 C 70.08 102.93 65.45 110.47 58.81 108.36 C 49.74 106.53 45.97 94.02 52.44 87.43 M 76.67 95.53 C 75.52 96.06 74.09 97.76 74.83 99.05 C 76.72 100.09 78.50 96.34 76.67 95.53 Z" />
<path fill="#19b0ff" opacity="1.00" d=" M 101.20 83.09 C 103.23 83.03 105.25 83.00 107.28 82.98 C 107.46 86.12 107.49 89.26 107.59 92.41 C 109.91 92.48 112.24 92.50 114.57 92.48 C 114.69 89.34 114.70 86.21 114.83 83.08 C 116.84 83.04 118.85 83.04 120.87 83.08 C 121.29 91.56 121.22 100.07 120.94 108.56 C 118.91 108.61 116.89 108.62 114.86 108.61 C 114.69 105.31 114.66 102.01 114.61 98.71 C 112.39 98.62 110.18 98.51 107.97 98.66 C 106.98 101.66 107.79 104.94 107.36 108.04 C 105.59 109.18 103.22 108.43 101.22 108.63 C 100.96 100.12 101.08 91.60 101.20 83.09 Z" />
<path fill="#19b0ff" opacity="1.00" d=" M 122.21 83.04 C 124.31 83.02 126.42 83.03 128.52 83.09 C 128.72 89.51 128.47 95.93 128.72 102.35 C 130.38 102.33 132.03 102.30 133.69 102.25 C 130.91 95.19 133.55 85.81 141.36 83.50 C 147.09 81.36 152.23 85.34 156.14 89.05 C 156.42 87.06 156.62 85.07 156.84 83.08 C 158.62 83.02 160.40 82.98 162.18 82.94 C 164.82 86.38 167.14 90.09 170.20 93.19 C 170.93 89.85 170.84 86.43 170.94 83.03 C 172.92 83.01 174.92 83.01 176.91 83.05 C 177.20 91.55 177.27 100.07 177.04 108.57 C 175.15 108.62 173.26 108.65 171.37 108.65 C 168.81 105.10 166.70 101.15 163.37 98.23 C 163.10 101.66 163.07 105.09 162.89 108.53 C 160.85 108.60 158.82 108.61 156.79 108.60 C 156.52 106.94 157.07 101.27 154.21 104.16 C 150.04 109.29 142.61 109.86 137.21 106.35 C 136.67 107.12 136.13 107.90 135.60 108.68 C 131.12 108.65 126.65 108.70 122.18 108.57 C 122.05 100.06 122.01 91.55 122.21 83.04 M 144.31 89.43 C 139.74 89.76 137.03 95.62 139.68 99.35 C 141.78 103.30 148.14 103.22 150.13 99.21 C 152.88 95.09 149.29 88.87 144.31 89.43 Z" />
<path fill="#19b0ff" opacity="1.00" d=" M 24.38 114.45 C 27.53 113.36 31.39 115.75 31.52 119.14 C 31.89 128.76 31.38 138.41 31.73 148.04 C 32.07 154.27 37.77 159.63 44.04 159.45 C 78.04 159.46 112.05 159.45 146.05 159.42 C 152.06 159.63 157.73 154.77 158.34 148.78 C 158.96 138.57 157.93 128.27 158.84 118.08 C 160.16 112.41 169.44 113.31 169.65 119.13 C 169.92 128.76 169.77 138.42 169.72 148.06 C 169.53 160.00 159.02 170.59 147.05 170.70 C 112.68 170.78 78.30 170.71 43.93 170.70 C 32.04 170.97 21.22 160.79 20.58 148.96 C 20.33 139.62 20.53 130.28 20.47 120.94 C 20.25 118.23 21.56 115.20 24.38 114.45 Z" />
</g>
</svg>
