<?xml version="1.0" encoding="UTF-8" ?>
<!DOCTYPE svg PUBLIC "-//W3C//DTD SVG 1.1//EN" "http://www.w3.org/Graphics/SVG/1.1/DTD/svg11.dtd">
<svg width="192pt" height="192pt" viewBox="0 0 192 192" version="1.1" xmlns="http://www.w3.org/2000/svg">
<g id="#eea865ff">
<path fill="#eea865" opacity="1.00" d=" M 82.37 12.45 C 114.42 6.90 148.63 22.88 165.17 50.81 C 183.61 80.43 180.10 121.71 156.64 147.60 C 135.49 172.35 98.88 181.57 68.32 170.75 C 47.83 163.84 30.49 148.24 21.35 128.65 C 9.03 102.77 11.25 70.36 27.86 46.85 C 40.38 28.63 60.51 15.84 82.37 12.45 M 84.39 23.49 C 59.22 27.13 37.00 45.67 28.68 69.66 C 20.50 92.81 25.14 120.16 41.04 138.97 C 62.78 165.95 105.07 171.79 133.76 152.71 C 161.45 135.54 173.06 97.97 161.04 67.88 C 149.97 37.58 116.24 17.89 84.39 23.49 Z" />
<path fill="#eea865" opacity="1.00" d=" M 80.27 90.20 C 85.97 88.00 92.99 91.40 94.68 97.28 C 96.99 103.48 92.45 110.94 85.91 111.77 C 80.20 112.86 74.12 108.78 73.09 103.05 C 71.87 97.75 75.12 91.94 80.27 90.20 Z" />
<path fill="#eea865" opacity="1.00" d=" M 132.27 90.26 C 139.71 87.07 148.66 94.03 147.40 102.01 C 146.88 110.41 135.77 115.03 129.41 109.59 C 122.49 104.80 124.29 92.86 132.27 90.26 Z" />
</g>
</svg>
