<?xml version="1.0" encoding="UTF-8" ?>
<!DOCTYPE svg PUBLIC "-//W3C//DTD SVG 1.1//EN" "http://www.w3.org/Graphics/SVG/1.1/DTD/svg11.dtd">
<svg width="192pt" height="192pt" viewBox="0 0 192 192" version="1.1" xmlns="http://www.w3.org/2000/svg">
<g id="#1ab1ffff">
<path fill="#1ab1ff" opacity="1.00" d=" M 22.11 43.94 C 21.90 31.71 32.79 20.68 45.03 20.77 C 61.36 20.72 77.70 20.72 94.03 20.76 C 97.48 20.44 100.45 23.55 100.16 26.96 C 100.27 51.86 100.17 76.76 100.20 101.67 C 105.56 94.18 110.33 86.26 115.91 78.95 C 120.09 74.58 128.04 80.42 124.97 85.73 C 117.80 96.57 110.30 107.22 102.88 117.90 C 99.11 123.61 89.93 123.67 86.08 118.01 C 78.64 107.38 71.22 96.72 64.03 85.93 C 60.65 80.65 68.76 74.43 72.98 79.03 C 78.53 86.32 83.30 94.20 88.65 101.66 C 88.73 78.39 88.72 55.12 88.66 31.85 C 74.43 31.76 60.20 31.77 45.98 31.81 C 39.40 31.57 33.09 37.21 33.27 43.92 C 33.23 77.97 33.25 112.02 33.27 146.07 C 33.03 152.82 39.28 158.79 46.01 158.33 C 79.67 158.32 113.34 158.32 147.00 158.30 C 153.68 158.68 159.79 152.76 159.64 146.08 C 159.73 112.37 159.66 78.65 159.68 44.93 C 160.17 38.35 154.61 32.19 148.04 31.91 C 137.40 31.59 126.73 32.06 116.08 31.70 C 111.87 31.47 109.77 25.69 112.64 22.67 C 114.37 20.38 117.48 20.76 120.01 20.70 C 129.67 20.85 139.34 20.58 149.00 20.82 C 160.83 21.30 170.98 32.11 170.82 43.94 C 170.89 77.98 170.89 112.02 170.85 146.05 C 171.16 158.35 160.36 169.47 148.06 169.51 C 113.69 169.59 79.31 169.56 44.94 169.50 C 32.61 169.50 21.77 158.37 22.07 146.04 C 22.05 112.01 22.05 77.97 22.11 43.94 Z" />
<path fill="#1ab1ff" opacity="1.00" d=" M 48.32 136.42 C 78.85 135.74 109.45 136.33 140.01 136.08 C 143.10 135.93 147.15 136.24 148.37 139.66 C 150.19 143.72 146.23 148.13 142.01 147.49 C 111.01 147.40 79.99 147.65 48.99 147.35 C 43.03 147.12 42.45 137.38 48.32 136.42 Z" />
</g>
</svg>
