<?xml version="1.0" encoding="UTF-8" ?>
<!DOCTYPE svg PUBLIC "-//W3C//DTD SVG 1.1//EN" "http://www.w3.org/Graphics/SVG/1.1/DTD/svg11.dtd">
<svg width="192pt" height="192pt" viewBox="0 0 192 192" version="1.1" xmlns="http://www.w3.org/2000/svg">
<g id="#19aeffff">
<path fill="#19aeff" opacity="1.00" d=" M 39.38 21.54 C 45.48 20.20 51.82 20.77 58.02 20.86 C 63.35 21.28 64.39 29.53 59.40 31.38 C 54.05 32.49 48.50 31.16 43.11 32.12 C 37.65 33.16 33.14 38.27 33.27 43.92 C 33.23 77.97 33.26 112.02 33.27 146.07 C 33.02 152.80 39.25 158.74 45.95 158.34 C 79.89 158.30 113.83 158.35 147.77 158.27 C 154.18 158.27 159.77 152.46 159.64 146.07 C 159.80 123.04 159.51 100.00 159.78 76.98 C 159.89 70.46 170.60 70.49 170.76 76.97 C 171.00 99.99 170.85 123.04 170.86 146.07 C 171.15 158.36 160.36 169.48 148.05 169.52 C 113.69 169.59 79.32 169.56 44.95 169.51 C 32.62 169.51 21.78 158.38 22.07 146.06 C 22.05 112.01 22.05 77.97 22.10 43.92 C 22.00 33.68 29.54 24.14 39.38 21.54 Z" />
<path fill="#19aeff" opacity="1.00" d=" M 69.81 35.00 C 68.65 29.27 70.90 20.88 77.97 20.80 C 100.97 20.65 123.98 20.78 146.99 20.73 C 155.83 20.48 164.44 25.76 168.34 33.67 C 172.03 40.84 170.71 49.18 170.74 56.93 C 170.44 61.45 165.02 62.36 161.63 60.55 C 156.66 68.09 151.95 75.81 146.73 83.18 C 149.20 73.66 152.80 64.44 154.90 54.81 C 150.04 56.55 145.60 59.38 140.28 59.69 C 133.00 69.47 127.03 80.31 119.93 90.28 C 122.99 79.25 126.58 68.37 129.75 57.38 C 125.75 55.30 122.47 52.15 119.84 48.52 C 112.10 59.03 105.68 70.46 98.17 81.14 C 100.73 71.85 103.72 62.68 106.46 53.44 C 100.32 52.88 94.73 49.81 90.80 45.09 C 91.75 47.26 92.76 49.41 93.76 51.57 C 83.06 53.34 71.34 46.07 69.81 35.00 Z" />
</g>
</svg>
