<?xml version="1.0" encoding="UTF-8" ?>
<!DOCTYPE svg PUBLIC "-//W3C//DTD SVG 1.1//EN" "http://www.w3.org/Graphics/SVG/1.1/DTD/svg11.dtd">
<svg width="192pt" height="192pt" viewBox="0 0 192 192" version="1.1" xmlns="http://www.w3.org/2000/svg">
<g id="#8f958fff">
<path fill="#8f958f" opacity="1.00" d=" M 92.46 13.70 C 99.09 12.01 106.38 16.53 108.03 23.13 C 109.92 29.49 106.09 36.78 99.84 38.94 C 93.26 41.44 85.07 37.72 82.94 30.93 C 80.21 23.81 84.98 15.17 92.46 13.70 Z" />
<path fill="#8f958f" opacity="1.00" d=" M 57.27 48.27 C 66.46 45.14 76.42 54.56 73.79 63.90 C 72.01 73.62 58.41 77.61 51.72 70.30 C 44.52 63.82 47.91 50.59 57.27 48.27 Z" />
<path fill="#8f958f" opacity="1.00" d=" M 127.37 48.45 C 137.51 45.72 147.01 57.77 141.99 67.02 C 138.16 76.00 124.40 77.05 119.24 68.78 C 113.95 61.54 118.45 49.96 127.37 48.45 Z" />
<path fill="#8f958f" opacity="1.00" d=" M 24.26 82.19 C 33.88 80.02 43.05 90.94 38.98 100.01 C 36.06 109.12 22.82 111.45 16.74 104.21 C 9.71 97.07 14.32 83.55 24.26 82.19 Z" />
<path fill="#8f958f" opacity="1.00" d=" M 161.34 82.40 C 171.53 79.69 181.00 91.72 175.98 101.01 C 172.24 109.67 159.09 111.08 153.64 103.38 C 147.64 96.22 152.11 83.95 161.34 82.40 Z" />
<path fill="#8f958f" opacity="1.00" d=" M 91.31 83.35 C 100.57 79.48 111.25 89.03 108.55 98.66 C 106.82 108.27 93.51 112.24 86.74 105.26 C 79.60 99.11 82.31 86.13 91.31 83.35 Z" />
<path fill="#8f958f" opacity="1.00" d=" M 57.36 117.52 C 66.57 114.11 76.80 123.51 74.22 132.97 C 72.50 142.60 59.16 146.72 52.35 139.64 C 45.03 133.38 48.07 120.03 57.36 117.52 Z" />
<path fill="#8f958f" opacity="1.00" d=" M 125.31 117.24 C 134.92 113.22 145.78 123.64 142.37 133.41 C 140.07 142.59 127.34 145.98 120.70 139.32 C 113.48 133.14 116.20 120.00 125.31 117.24 Z" />
<path fill="#8f958f" opacity="1.00" d=" M 91.38 151.54 C 97.53 149.68 104.79 152.60 107.29 158.65 C 110.59 165.40 106.67 174.34 99.47 176.47 C 92.09 179.32 83.15 173.65 82.37 165.83 C 81.41 159.70 85.41 153.26 91.38 151.54 Z" />
</g>
</svg>
