<?xml version="1.0" encoding="UTF-8" ?>
<!DOCTYPE svg PUBLIC "-//W3C//DTD SVG 1.1//EN" "http://www.w3.org/Graphics/SVG/1.1/DTD/svg11.dtd">
<svg width="192pt" height="192pt" viewBox="0 0 192 192" version="1.1" xmlns="http://www.w3.org/2000/svg">
<g id="#19b0ffff">
<path fill="#19b0ff" opacity="1.00" d=" M 22.12 43.94 C 22.07 31.84 32.86 21.14 44.92 21.14 C 78.62 21.01 112.33 21.08 146.03 21.04 C 155.04 20.72 164.02 25.84 168.00 33.98 C 171.47 40.43 170.42 47.98 170.51 55.00 C 170.76 57.61 168.79 59.48 167.04 61.08 C 148.15 78.18 129.23 95.25 110.36 112.37 C 107.49 115.24 103.22 115.31 99.45 115.87 C 100.59 126.71 94.49 138.08 84.43 142.52 C 76.30 146.25 67.76 149.19 59.02 151.10 C 54.02 151.91 50.83 147.34 47.67 144.32 C 44.72 141.16 39.98 138.00 41.08 133.01 C 43.41 123.19 46.45 113.36 51.49 104.56 C 56.49 95.94 67.06 91.84 76.70 92.77 C 77.09 89.07 77.43 85.01 80.20 82.21 C 95.38 65.52 110.63 48.89 125.83 32.21 C 99.20 32.29 72.57 32.20 45.94 32.25 C 39.07 31.76 32.73 38.06 33.21 44.93 C 33.20 78.64 33.18 112.36 33.22 146.07 C 32.96 152.85 39.25 158.72 45.95 158.39 C 79.62 158.38 113.30 158.40 146.97 158.35 C 153.57 158.49 159.60 152.64 159.34 145.98 C 159.49 124.71 159.22 103.42 159.48 82.15 C 159.70 75.86 170.03 75.71 170.41 82.02 C 170.69 103.66 170.52 125.32 170.51 146.96 C 170.38 158.85 159.86 169.35 147.99 169.51 C 113.64 169.59 79.28 169.55 44.93 169.51 C 32.58 169.56 21.75 158.37 22.07 146.04 C 22.06 112.01 22.03 77.97 22.12 43.94 M 142.42 32.27 C 125.25 51.16 108.01 69.98 90.79 88.82 C 88.52 91.01 89.11 94.48 88.49 97.31 C 90.92 99.23 92.70 101.85 95.16 103.70 C 98.05 103.54 101.50 103.96 103.75 101.76 C 121.57 85.59 139.40 69.42 157.28 53.32 C 160.90 50.76 159.14 45.74 159.09 42.02 C 157.78 34.40 149.40 31.04 142.42 32.27 M 61.23 112.26 C 58.07 118.80 55.23 125.69 54.04 132.89 C 55.43 135.01 57.47 136.60 59.21 138.42 C 66.76 136.37 74.36 134.05 81.23 130.23 C 88.74 125.47 89.24 113.24 81.85 108.15 C 75.70 102.74 64.70 104.67 61.23 112.26 Z" />
<path fill="#19b0ff" opacity="1.00" d=" M 69.23 115.18 C 75.15 111.86 79.19 122.34 72.91 123.99 C 67.51 126.18 64.01 117.44 69.23 115.18 Z" />
</g>
</svg>
