<?xml version="1.0" encoding="UTF-8" ?>
<!DOCTYPE svg PUBLIC "-//W3C//DTD SVG 1.1//EN" "http://www.w3.org/Graphics/SVG/1.1/DTD/svg11.dtd">
<svg width="192pt" height="192pt" viewBox="0 0 192 192" version="1.1" xmlns="http://www.w3.org/2000/svg">
<g id="#918464ff">
<path fill="#918464" opacity="1.00" d=" M 38.35 21.46 C 42.50 20.48 46.78 20.77 51.00 20.74 C 80.34 20.75 109.67 20.74 139.00 20.73 C 144.73 20.73 150.76 20.33 156.08 22.86 C 164.62 26.62 170.33 35.68 170.17 45.00 C 170.19 79.01 170.22 113.01 170.15 147.02 C 170.36 159.42 159.55 170.78 147.06 170.69 C 112.35 170.71 77.65 170.72 42.94 170.66 C 30.63 170.62 19.82 159.34 20.19 147.04 C 20.19 112.67 20.17 78.30 20.22 43.94 C 20.17 33.45 28.15 23.70 38.35 21.46 M 40.35 32.52 C 34.98 33.94 31.06 39.40 31.39 44.95 C 31.41 78.99 31.37 113.03 31.41 147.06 C 31.16 153.78 37.29 159.79 44.01 159.48 C 78.00 159.49 112.00 159.47 145.99 159.47 C 152.77 159.87 159.04 153.87 158.80 147.06 C 158.84 113.02 158.81 78.98 158.82 44.94 C 159.30 38.02 153.01 31.59 146.05 32.15 C 110.83 32.40 75.54 31.64 40.35 32.52 Z" />
<path fill="#918464" opacity="1.00" d=" M 45.26 74.25 C 51.37 73.49 61.32 71.76 63.57 79.52 C 64.82 89.27 63.82 99.21 64.15 109.04 C 64.50 113.54 62.14 119.04 57.01 119.23 C 51.30 119.53 42.34 120.89 40.39 113.70 C 39.46 103.85 40.27 93.88 39.97 83.98 C 39.64 80.10 41.04 75.35 45.26 74.25 M 49.49 83.19 C 49.48 92.08 49.52 100.98 49.47 109.88 C 51.20 109.93 52.93 109.99 54.66 110.05 C 54.65 101.09 54.73 92.13 54.60 83.17 C 52.89 83.16 51.19 83.17 49.49 83.19 Z" />
<path fill="#918464" opacity="1.00" d=" M 72.26 74.25 C 78.35 73.56 88.26 71.66 90.70 79.27 C 91.44 85.68 91.45 92.32 90.74 98.73 C 87.95 105.58 85.43 112.63 81.91 119.14 C 78.89 119.75 75.79 119.34 72.76 119.08 C 73.39 113.26 76.90 108.30 78.66 102.79 C 73.12 103.56 66.62 100.43 67.03 94.06 C 67.35 87.53 64.58 77.44 72.26 74.25 M 76.68 83.15 C 76.53 86.44 76.52 89.73 76.62 93.02 C 78.30 93.03 79.98 93.02 81.66 92.99 C 81.67 89.74 81.64 86.49 81.55 83.24 C 79.92 83.19 78.30 83.17 76.68 83.15 Z" />
<path fill="#918464" opacity="1.00" d=" M 110.06 74.87 C 113.93 74.70 122.04 71.16 121.13 77.96 C 120.61 91.76 122.26 105.86 120.27 119.48 C 117.44 119.42 114.62 119.38 111.79 119.30 C 110.48 107.87 111.65 96.26 111.21 84.75 C 109.77 84.55 108.33 84.35 106.90 84.13 C 107.20 80.97 105.04 74.84 110.06 74.87 Z" />
<path fill="#918464" opacity="1.00" d=" M 124.85 90.14 C 124.48 84.61 123.29 76.19 130.12 74.13 C 136.11 73.59 145.40 71.77 148.11 78.96 C 149.14 84.95 148.98 91.28 148.29 97.30 C 143.94 100.43 138.88 102.40 134.34 105.24 C 134.33 106.77 134.31 108.30 134.30 109.84 C 135.77 109.90 137.24 109.95 138.71 110.01 C 138.87 109.27 139.20 107.78 139.36 107.03 C 142.26 106.45 145.23 106.53 148.17 106.82 C 149.01 110.93 148.97 115.18 148.22 119.30 C 140.44 119.46 132.63 119.71 124.87 119.11 C 124.63 112.53 124.15 105.81 125.05 99.28 C 129.38 96.26 134.26 94.09 138.91 91.61 C 138.97 88.79 138.92 85.97 138.81 83.15 C 137.35 83.17 135.90 83.19 134.45 83.24 C 134.37 85.57 134.28 87.89 134.17 90.22 C 131.07 90.50 127.95 90.47 124.85 90.14 Z" />
<path fill="#918464" opacity="1.00" d=" M 94.83 91.88 C 97.50 91.86 100.19 91.64 102.83 92.11 C 104.44 94.87 103.60 98.26 103.21 101.25 C 100.41 101.28 97.61 101.25 94.82 101.16 C 93.92 98.13 93.92 94.91 94.83 91.88 Z" />
<path fill="#918464" opacity="1.00" d=" M 94.90 110.02 C 97.62 110.27 100.91 109.15 103.26 110.79 C 104.14 113.56 103.68 116.52 103.22 119.32 C 100.42 119.42 97.61 119.40 94.81 119.26 C 93.95 116.23 93.86 113.01 94.90 110.02 Z" />
</g>
</svg>
