<?xml version="1.0" encoding="UTF-8" ?>
<!DOCTYPE svg PUBLIC "-//W3C//DTD SVG 1.1//EN" "http://www.w3.org/Graphics/SVG/1.1/DTD/svg11.dtd">
<svg width="192pt" height="192pt" viewBox="0 0 192 192" version="1.1" xmlns="http://www.w3.org/2000/svg">
<g id="#19afffff">
<path fill="#19afff" opacity="1.00" d=" M 79.36 14.41 C 85.95 10.69 92.45 20.94 85.44 24.46 C 63.77 28.28 43.80 41.77 33.58 61.47 C 20.15 85.94 23.36 118.25 41.45 139.54 C 55.22 156.45 77.15 166.31 98.96 165.18 C 118.59 164.53 137.40 154.92 150.10 140.06 C 154.26 135.15 162.49 141.50 158.96 146.78 C 137.61 173.90 97.98 183.88 66.09 170.94 C 34.11 158.87 12.00 125.14 14.16 90.94 C 15.07 54.46 43.59 21.27 79.36 14.41 Z" />
<path fill="#19afff" opacity="1.00" d=" M 106.41 14.51 C 107.53 13.94 108.72 13.76 109.98 13.99 C 139.28 18.69 164.81 40.90 173.82 69.14 C 179.57 86.94 179.34 106.90 172.23 124.26 C 169.07 129.86 159.51 125.23 162.23 119.21 C 169.13 100.35 167.79 78.59 158.02 60.98 C 147.96 42.16 128.95 28.65 107.97 24.95 C 102.85 24.36 101.75 16.60 106.41 14.51 Z" />
<path fill="#19afff" opacity="1.00" d=" M 54.93 67.10 C 52.09 63.88 54.66 58.14 58.97 58.15 C 66.98 57.99 75.02 58.17 83.03 58.21 C 85.70 58.05 88.05 60.31 88.07 62.96 C 88.43 69.64 88.04 76.33 88.26 83.01 C 88.17 85.56 88.78 88.80 86.41 90.55 C 83.81 92.80 79.16 90.96 78.75 87.57 C 78.48 84.14 78.71 80.68 78.18 77.26 C 69.97 82.90 67.99 94.70 71.31 103.64 C 74.84 113.41 84.47 120.87 94.97 121.10 C 107.73 121.71 120.17 111.67 121.77 98.89 C 123.32 89.31 119.08 79.43 111.50 73.51 C 106.65 69.59 112.23 61.28 117.72 64.21 C 132.99 74.67 138.04 97.44 128.30 113.33 C 119.23 130.77 95.28 137.38 78.25 127.87 C 61.78 119.60 54.36 98.22 61.23 81.29 C 62.42 76.90 66.15 73.79 67.22 69.39 C 63.17 68.83 57.93 70.70 54.93 67.10 Z" />
</g>
</svg>
