<?xml version="1.0" encoding="UTF-8" ?>
<!DOCTYPE svg PUBLIC "-//W3C//DTD SVG 1.1//EN" "http://www.w3.org/Graphics/SVG/1.1/DTD/svg11.dtd">
<svg width="192pt" height="192pt" viewBox="0 0 192 192" version="1.1" xmlns="http://www.w3.org/2000/svg">
<g id="#45e372ff">
<path fill="#45e372" opacity="1.00" d=" M 85.36 14.43 C 117.02 9.88 150.22 26.07 166.30 53.67 C 177.09 71.50 180.48 93.54 175.84 113.83 C 170.81 136.62 155.34 156.88 134.70 167.75 C 130.10 170.18 124.03 166.16 124.22 161.03 C 124.07 133.33 124.22 105.63 124.16 77.94 C 124.50 75.53 122.58 72.99 120.03 73.30 C 104.02 73.23 88.00 73.25 71.98 73.29 C 69.31 72.87 67.24 75.41 67.60 77.97 C 67.54 105.64 67.65 133.32 67.56 161.00 C 67.77 166.01 61.83 170.03 57.29 167.77 C 27.08 152.28 9.26 116.44 15.04 82.98 C 20.01 47.92 50.18 18.50 85.36 14.43 M 30.63 68.61 C 17.64 98.54 29.03 136.36 56.35 154.17 C 56.46 128.43 56.35 102.68 56.41 76.94 C 56.23 69.14 63.10 62.06 70.91 62.04 C 87.30 61.96 103.68 62.02 120.07 62.00 C 128.19 61.66 135.58 68.89 135.41 77.01 C 135.48 102.73 135.40 128.46 135.45 154.18 C 154.04 141.87 166.00 120.27 166.57 97.98 C 167.30 79.49 160.32 60.87 147.59 47.44 C 134.02 32.81 113.99 24.29 94.00 25.12 C 66.67 25.22 40.85 43.42 30.63 68.61 Z" />
<path fill="#45e372" opacity="1.00" d=" M 78.32 164.44 C 87.82 165.96 97.56 167.18 107.14 165.37 C 110.35 164.95 114.33 163.23 117.00 166.02 C 120.09 168.80 118.60 174.59 114.47 175.41 C 102.16 178.29 89.09 178.35 76.83 175.21 C 71.39 173.52 72.59 164.55 78.32 164.44 Z" />
</g>
</svg>
