<?xml version="1.0" encoding="UTF-8" ?>
<!DOCTYPE svg PUBLIC "-//W3C//DTD SVG 1.1//EN" "http://www.w3.org/Graphics/SVG/1.1/DTD/svg11.dtd">
<svg width="192pt" height="192pt" viewBox="0 0 192 192" version="1.1" xmlns="http://www.w3.org/2000/svg">
<g id="#f79d36ff">
<path fill="#f79d36" opacity="1.00" d=" M 93.38 13.53 C 95.46 12.36 97.75 13.32 99.66 14.31 C 124.31 27.03 149.02 39.65 173.67 52.36 C 176.31 53.43 177.41 56.28 177.18 58.98 C 177.15 82.67 177.23 106.37 177.14 130.06 C 177.38 132.83 175.41 134.98 173.04 136.04 C 148.26 149.28 123.52 162.61 98.73 175.84 C 96.74 177.04 94.27 176.95 92.30 175.75 C 67.54 162.50 42.79 149.20 18.04 135.92 C 15.79 134.85 13.86 132.76 14.14 130.09 C 14.11 106.04 14.11 81.97 14.16 57.91 C 13.98 55.58 15.29 53.41 17.41 52.46 C 42.67 39.36 68.00 26.38 93.38 13.53 M 67.84 38.87 C 89.07 50.12 110.75 60.51 132.12 71.49 C 141.29 66.94 150.50 62.41 159.40 57.36 C 138.19 46.43 116.93 35.58 95.75 24.59 C 86.40 29.26 77.14 34.12 67.84 38.87 M 31.72 57.55 C 53.04 68.53 74.33 79.59 95.75 90.39 C 103.85 86.00 112.18 82.08 120.22 77.60 C 98.70 66.82 77.19 56.01 55.71 45.15 C 47.68 49.20 39.60 53.20 31.72 57.55 M 25.13 66.50 C 25.17 86.81 24.95 107.13 25.23 127.44 C 46.92 138.84 68.42 150.59 90.07 162.07 C 90.12 141.37 90.08 120.66 90.11 99.95 C 68.47 88.75 46.78 77.67 25.13 66.50 M 140.61 79.60 C 139.72 80.21 138.07 80.60 138.30 82.03 C 138.07 93.35 138.54 104.70 138.11 116.02 C 137.76 121.74 128.64 122.18 127.60 116.62 C 127.07 106.58 127.57 96.48 127.36 86.42 C 118.63 90.97 109.83 95.37 101.12 99.96 C 101.23 120.65 101.17 141.35 101.15 162.04 C 122.87 150.46 144.56 138.84 166.21 127.14 C 166.15 106.94 166.28 86.74 166.15 66.54 C 157.61 70.84 149.15 75.28 140.61 79.60 Z" />
</g>
</svg>
