<?xml version="1.0" encoding="UTF-8" ?>
<!DOCTYPE svg PUBLIC "-//W3C//DTD SVG 1.1//EN" "http://www.w3.org/Graphics/SVG/1.1/DTD/svg11.dtd">
<svg width="192pt" height="192pt" viewBox="0 0 192 192" version="1.1" xmlns="http://www.w3.org/2000/svg">
<g id="#d43ba1ff">
<path fill="#d43ba1" opacity="1.00" d=" M 43.01 20.01 C 48.89 15.51 57.70 15.66 63.08 20.91 C 70.78 28.42 76.91 37.43 82.40 46.63 C 86.92 54.31 85.04 64.60 78.65 70.64 C 75.47 73.35 72.90 78.28 68.10 77.80 C 63.16 77.58 60.68 70.69 64.32 67.34 C 67.73 63.37 74.48 59.44 71.72 53.27 C 66.98 44.99 61.43 37.03 54.70 30.25 C 53.04 28.28 50.55 29.82 49.03 31.09 C 40.64 38.04 33.42 47.09 30.93 57.90 C 28.89 67.26 30.32 77.17 34.23 85.86 C 48.35 116.46 73.74 141.81 104.66 155.33 C 111.81 158.13 119.32 160.78 127.06 160.89 C 141.27 158.87 153.26 149.18 161.70 138.03 C 154.14 129.29 143.74 118.19 130.93 120.90 C 125.45 121.44 123.03 128.50 117.33 127.68 C 113.04 127.23 110.59 121.63 113.15 118.16 C 119.89 109.71 131.73 106.13 142.13 108.74 C 153.02 111.30 161.22 119.52 169.08 126.95 C 175.12 132.52 175.35 142.73 169.47 148.50 C 156.04 164.48 134.38 178.64 112.84 171.23 C 75.38 160.30 44.24 132.00 26.12 97.83 C 18.81 84.67 15.04 68.85 18.96 54.01 C 22.53 40.26 31.75 28.42 43.01 20.01 Z" />
<path fill="#d43ba1" opacity="1.00" d=" M 64.22 92.24 C 67.38 90.66 70.92 92.61 72.70 95.31 C 80.18 104.81 89.34 112.77 98.72 120.30 C 103.37 124.90 96.82 133.18 91.27 129.77 C 80.25 122.05 70.54 112.47 62.16 101.97 C 59.33 99.07 60.50 93.76 64.22 92.24 Z" />
</g>
</svg>
