<?xml version="1.0" encoding="UTF-8" ?>
<!DOCTYPE svg PUBLIC "-//W3C//DTD SVG 1.1//EN" "http://www.w3.org/Graphics/SVG/1.1/DTD/svg11.dtd">
<svg width="192pt" height="192pt" viewBox="0 0 192 192" version="1.1" xmlns="http://www.w3.org/2000/svg">
<g id="#ff3661ff">
<path fill="#ff3661" opacity="1.00" d=" M 22.53 27.53 C 22.90 24.19 25.32 20.77 28.97 20.75 C 43.98 20.59 59.01 20.67 74.03 20.71 C 78.04 20.46 80.96 24.08 81.20 27.82 C 83.43 40.58 86.85 53.21 88.37 66.03 C 85.58 72.14 79.28 75.87 75.01 80.97 C 80.14 90.71 87.49 99.05 95.54 106.46 C 100.67 111.76 92.63 120.68 86.82 116.12 C 75.98 107.11 67.31 95.54 61.04 82.95 C 59.61 80.46 60.04 77.16 62.12 75.16 C 66.19 70.91 70.46 66.84 74.60 62.65 C 72.77 53.10 70.84 43.57 68.88 34.04 C 57.49 33.91 46.01 33.46 34.66 34.27 C 32.26 58.38 41.71 82.13 55.62 101.41 C 70.49 121.90 90.37 139.16 113.67 149.34 C 127.41 155.31 142.62 158.56 157.61 156.76 C 157.60 145.40 157.71 134.05 157.54 122.70 C 148.01 120.81 138.50 118.83 128.96 117.02 C 124.06 121.43 119.93 126.72 114.68 130.69 C 109.09 133.95 102.47 126.44 106.17 121.25 C 110.83 115.91 116.16 111.18 121.06 106.06 C 122.90 103.92 125.75 102.56 128.58 103.38 C 140.79 105.82 153.01 108.24 165.22 110.71 C 168.64 111.20 171.18 114.51 170.85 117.93 C 170.85 132.64 170.90 147.34 170.83 162.04 C 171.07 165.51 168.21 168.46 164.87 168.89 C 143.89 173.43 122.00 168.16 103.03 158.94 C 75.13 145.18 51.70 122.67 36.36 95.67 C 24.96 75.18 17.86 51.00 22.53 27.53 Z" />
</g>
</svg>
