<?xml version="1.0" encoding="UTF-8" ?>
<!DOCTYPE svg PUBLIC "-//W3C//DTD SVG 1.1//EN" "http://www.w3.org/Graphics/SVG/1.1/DTD/svg11.dtd">
<svg width="192pt" height="192pt" viewBox="0 0 192 192" version="1.1" xmlns="http://www.w3.org/2000/svg">
<g id="#96644cff">
<path fill="#96644c" opacity="1.00" d=" M 43.96 23.95 C 50.00 17.73 62.34 16.53 67.32 24.62 C 75.27 37.66 83.86 50.34 91.36 63.62 C 95.57 74.16 85.28 81.34 79.19 88.08 C 80.53 100.88 92.31 111.88 104.84 114.07 C 107.53 111.35 110.24 108.64 112.94 105.92 C 117.83 100.65 126.60 99.38 132.68 103.32 C 144.24 110.44 155.94 117.37 167.45 124.57 C 175.26 129.76 173.82 141.70 167.50 147.51 C 160.61 153.95 154.73 161.75 146.28 166.28 C 126.54 177.05 102.25 172.71 82.90 163.19 C 55.49 149.39 33.06 124.94 23.28 95.68 C 17.76 78.78 16.87 59.01 26.35 43.33 C 30.93 35.80 37.96 30.27 43.96 23.95 M 54.36 30.47 C 49.27 33.40 45.83 38.57 41.41 42.41 C 31.60 51.62 29.07 66.14 30.94 78.98 C 34.13 101.36 47.03 121.41 63.57 136.39 C 77.62 148.96 94.97 158.69 113.92 160.90 C 125.70 162.27 138.64 159.86 147.49 151.48 C 151.51 147.53 155.53 143.57 159.45 139.52 C 161.09 137.92 162.83 134.34 159.85 133.14 C 148.40 126.31 137.18 119.03 125.58 112.47 C 120.25 111.96 117.74 118.16 113.97 120.97 C 109.87 126.62 102.13 125.71 96.35 123.59 C 83.31 118.80 72.76 107.64 68.57 94.41 C 67.19 89.86 66.19 83.85 70.53 80.53 C 73.86 76.36 79.70 73.49 80.93 68.08 C 73.84 55.68 65.85 43.77 58.40 31.56 C 57.79 29.84 55.78 30.11 54.36 30.47 Z" />
</g>
</svg>
