<?xml version="1.0" encoding="UTF-8" ?>
<!DOCTYPE svg PUBLIC "-//W3C//DTD SVG 1.1//EN" "http://www.w3.org/Graphics/SVG/1.1/DTD/svg11.dtd">
<svg width="192pt" height="192pt" viewBox="0 0 192 192" version="1.1" xmlns="http://www.w3.org/2000/svg">
<g id="#cdced0ff">
<path fill="#cdced0" opacity="1.00" d=" M 48.33 17.43 C 55.54 14.83 62.74 19.44 67.03 24.99 C 73.48 33.05 80.33 41.23 84.15 50.91 C 87.60 61.73 79.45 71.33 71.38 77.32 C 66.48 79.73 60.62 74.07 63.11 69.12 C 65.91 64.03 74.01 60.99 72.07 54.07 C 67.66 45.56 61.80 37.73 55.28 30.70 C 51.64 26.79 47.57 32.54 44.81 34.81 C 31.96 46.21 26.05 65.12 32.48 81.42 C 40.98 102.91 55.72 121.76 73.56 136.34 C 88.85 148.28 106.40 158.76 126.01 161.00 C 140.06 159.45 151.85 150.12 160.58 139.55 C 162.81 136.82 158.74 134.64 157.16 132.83 C 149.90 126.19 140.83 117.66 130.10 121.15 C 125.22 121.92 123.11 127.96 118.02 127.76 C 113.38 127.78 110.40 121.87 113.12 118.12 C 119.92 109.72 131.72 106.08 142.15 108.72 C 152.36 111.01 160.10 118.59 167.58 125.40 C 171.70 128.95 174.59 134.36 173.73 139.91 C 173.11 145.19 169.10 148.99 165.72 152.72 C 155.24 163.67 141.41 172.44 125.98 173.52 C 108.61 172.09 92.40 164.45 78.00 154.99 C 54.28 139.64 35.27 117.37 23.21 91.87 C 17.37 79.18 15.38 64.31 19.88 50.89 C 24.93 37.04 34.73 23.70 48.33 17.43 Z" />
<path fill="#cdced0" opacity="1.00" d=" M 64.27 92.33 C 67.37 90.66 70.89 92.73 72.64 95.39 C 80.02 104.66 88.83 112.63 98.17 119.86 C 103.17 124.12 97.25 133.31 91.31 129.68 C 80.11 121.83 70.23 112.09 61.78 101.35 C 59.44 98.47 60.83 93.62 64.27 92.33 Z" />
</g>
</svg>
