<?xml version="1.0" encoding="UTF-8" ?>
<!DOCTYPE svg PUBLIC "-//W3C//DTD SVG 1.1//EN" "http://www.w3.org/Graphics/SVG/1.1/DTD/svg11.dtd">
<svg width="192pt" height="192pt" viewBox="0 0 192 192" version="1.1" xmlns="http://www.w3.org/2000/svg">
<g id="#c420d3ff">
<path fill="#c420d3" opacity="1.00" d=" M 40.06 32.94 C 39.68 23.11 48.12 13.96 58.00 13.79 C 82.66 13.67 107.32 13.76 131.99 13.74 C 142.61 13.44 151.74 23.47 150.85 33.98 C 150.54 38.76 152.71 46.96 146.05 48.10 C 118.03 48.38 89.98 48.28 61.96 48.15 C 55.67 48.22 54.81 38.04 61.03 37.14 C 87.22 36.69 113.44 37.14 139.65 36.92 C 140.19 32.20 138.80 25.62 133.03 25.21 C 108.34 25.01 83.63 25.16 58.93 25.14 C 54.71 24.83 51.09 28.79 51.38 32.93 C 51.35 74.63 51.38 116.35 51.37 158.06 C 50.98 162.30 54.66 166.34 58.96 166.15 C 82.98 166.26 107.00 166.15 131.02 166.18 C 135.21 166.64 139.47 163.32 139.49 159.00 C 139.79 125.35 139.28 91.66 139.74 58.02 C 140.53 51.61 151.05 52.54 150.77 58.97 C 150.93 92.33 150.86 125.71 150.82 159.07 C 150.88 168.98 141.87 177.75 131.97 177.53 C 107.66 177.57 83.34 177.55 59.03 177.53 C 49.09 177.80 40.05 169.03 40.08 159.08 C 39.98 117.04 40.06 74.99 40.06 32.94 Z" />
<path fill="#c420d3" opacity="1.00" d=" M 60.26 143.39 C 83.13 142.54 106.14 143.13 129.06 143.09 C 135.76 143.19 135.76 154.19 129.03 154.29 C 106.68 154.43 84.31 154.42 61.95 154.29 C 56.09 154.32 54.69 145.14 60.26 143.39 Z" />
</g>
</svg>
