<?xml version="1.0" encoding="UTF-8" ?>
<!DOCTYPE svg PUBLIC "-//W3C//DTD SVG 1.1//EN" "http://www.w3.org/Graphics/SVG/1.1/DTD/svg11.dtd">
<svg width="192pt" height="192pt" viewBox="0 0 192 192" version="1.1" xmlns="http://www.w3.org/2000/svg">
<g id="#e030a0ff">
<path fill="#e030a0" opacity="1.00" d=" M 43.95 23.92 C 50.00 17.68 62.36 16.51 67.33 24.62 C 75.27 37.65 83.86 50.34 91.36 63.62 C 95.39 74.09 85.43 81.58 78.95 88.01 C 80.78 100.85 92.14 111.83 104.81 114.10 C 109.50 110.02 113.03 104.16 119.08 101.96 C 123.52 100.48 128.70 100.69 132.68 103.33 C 144.24 110.46 155.93 117.40 167.44 124.61 C 174.98 129.63 173.82 141.09 167.94 146.95 C 161.64 152.99 156.06 159.94 148.70 164.76 C 128.30 177.55 101.97 172.90 81.59 162.49 C 54.57 148.43 32.49 124.04 23.01 94.92 C 17.64 77.98 16.98 58.19 26.73 42.66 C 31.33 35.46 38.12 30.07 43.95 23.92 M 43.41 40.41 C 33.98 48.32 29.70 60.95 30.45 73.03 C 31.45 94.09 42.02 113.66 56.06 128.97 C 70.38 144.34 88.99 156.58 109.90 160.36 C 122.42 162.64 136.56 161.02 146.49 152.43 C 150.94 148.26 155.20 143.88 159.48 139.53 C 161.11 137.94 162.91 134.34 159.96 133.13 C 148.48 126.27 137.22 119.02 125.61 112.42 C 120.24 111.89 117.73 118.12 113.94 120.94 C 109.46 126.99 101.02 125.46 94.96 123.04 C 81.01 117.20 69.58 104.12 67.47 88.94 C 66.14 79.26 78.89 76.37 80.97 68.08 C 73.56 55.24 65.25 42.89 57.58 30.17 C 51.04 29.84 47.98 36.89 43.41 40.41 Z" />
</g>
</svg>
