<?xml version="1.0" encoding="UTF-8" ?>
<!DOCTYPE svg PUBLIC "-//W3C//DTD SVG 1.1//EN" "http://www.w3.org/Graphics/SVG/1.1/DTD/svg11.dtd">
<svg width="192pt" height="192pt" viewBox="0 0 192 192" version="1.1" xmlns="http://www.w3.org/2000/svg">
<g id="#a51affff">
<path fill="#a51aff" opacity="1.00" d=" M 43.96 23.94 C 50.00 17.71 62.35 16.52 67.32 24.63 C 75.20 37.42 83.45 50.00 91.06 62.95 C 95.39 72.27 87.37 80.32 80.96 85.97 C 77.67 88.14 79.51 92.26 80.83 95.08 C 85.48 104.45 94.23 112.46 104.82 114.08 C 111.25 107.38 118.75 98.02 129.33 101.72 C 142.16 108.58 154.32 116.75 166.85 124.17 C 174.95 128.93 174.10 140.94 167.95 146.96 C 161.45 153.15 155.76 160.37 148.09 165.18 C 128.18 177.21 102.83 172.98 82.92 163.16 C 55.50 149.36 33.07 124.91 23.27 95.66 C 17.77 78.76 16.87 59.00 26.35 43.32 C 30.92 35.79 37.97 30.27 43.96 23.94 M 51.94 31.91 C 43.89 40.05 33.92 47.68 31.67 59.63 C 27.37 79.17 34.73 99.35 45.45 115.56 C 60.87 138.13 84.64 156.39 112.09 160.69 C 125.83 162.88 141.19 159.41 150.53 148.52 C 154.22 143.78 161.11 140.62 161.57 134.07 C 149.50 126.99 137.75 119.32 125.60 112.41 C 116.96 112.67 114.48 126.00 105.03 125.19 C 90.60 124.35 78.23 113.86 71.53 101.56 C 68.86 96.02 66.04 89.43 68.20 83.30 C 71.63 78.77 76.30 75.35 79.92 70.97 C 80.93 69.78 81.42 67.96 80.32 66.66 C 72.81 54.45 65.09 42.37 57.59 30.15 C 55.59 30.22 53.37 30.27 51.94 31.91 Z" />
</g>
</svg>
