<?xml version="1.0" encoding="UTF-8" ?>
<!DOCTYPE svg PUBLIC "-//W3C//DTD SVG 1.1//EN" "http://www.w3.org/Graphics/SVG/1.1/DTD/svg11.dtd">
<svg width="192pt" height="192pt" viewBox="0 0 192 192" version="1.1" xmlns="http://www.w3.org/2000/svg">
<g id="#f6b02cff">
<path fill="#f6b02c" opacity="1.00" d=" M 40.09 32.95 C 39.69 23.12 48.12 13.99 57.99 13.79 C 82.65 13.68 107.33 13.76 131.99 13.74 C 142.61 13.45 151.74 23.47 150.85 33.98 C 150.55 38.76 152.70 46.96 146.04 48.10 C 118.03 48.37 89.98 48.28 61.96 48.14 C 55.68 48.21 54.84 38.03 61.04 37.16 C 87.22 36.68 113.44 37.13 139.64 36.94 C 140.21 32.21 138.81 25.63 133.04 25.21 C 108.34 25.00 83.63 25.15 58.93 25.13 C 54.71 24.81 51.04 28.79 51.37 32.94 C 51.34 74.64 51.37 116.36 51.37 158.06 C 50.98 162.30 54.66 166.34 58.96 166.14 C 82.98 166.25 107.00 166.14 131.03 166.17 C 135.21 166.63 139.46 163.31 139.48 159.00 C 139.78 125.35 139.27 91.66 139.74 58.02 C 140.53 51.60 151.05 52.55 150.78 58.97 C 150.97 91.99 150.84 125.03 150.87 158.05 C 151.40 168.33 142.28 177.79 131.97 177.54 C 107.66 177.57 83.34 177.56 59.03 177.53 C 49.09 177.79 40.05 169.03 40.09 159.08 C 39.99 117.04 40.09 74.99 40.09 32.95 Z" />
<path fill="#f6b02c" opacity="1.00" d=" M 60.28 143.39 C 83.14 142.54 106.15 143.14 129.06 143.08 C 135.77 143.18 135.77 154.20 129.03 154.29 C 106.69 154.43 84.32 154.42 61.97 154.28 C 56.09 154.35 54.68 145.11 60.28 143.39 Z" />
</g>
</svg>
