<?xml version="1.0" encoding="UTF-8" ?>
<!DOCTYPE svg PUBLIC "-//W3C//DTD SVG 1.1//EN" "http://www.w3.org/Graphics/SVG/1.1/DTD/svg11.dtd">
<svg width="192pt" height="192pt" viewBox="0 0 192 192" version="1.1" xmlns="http://www.w3.org/2000/svg">
<g id="#f6b02bff">
<path fill="#f6b02b" opacity="1.00" d=" M 43.96 23.95 C 49.99 17.71 62.34 16.52 67.31 24.63 C 75.25 37.66 83.84 50.34 91.34 63.62 C 95.56 74.52 84.71 81.72 78.51 88.73 C 81.80 101.01 91.98 111.99 104.81 114.07 C 107.54 111.37 110.23 108.65 112.94 105.93 C 117.82 100.64 126.61 99.40 132.68 103.32 C 144.25 110.45 155.93 117.38 167.45 124.58 C 174.78 129.44 173.96 140.51 168.42 146.43 C 163.51 151.50 158.57 156.57 153.38 161.36 C 139.77 172.92 120.40 174.56 103.56 170.58 C 72.32 162.97 45.83 140.35 30.50 112.44 C 20.07 93.08 14.64 68.79 23.90 47.94 C 28.10 38.12 36.76 31.47 43.96 23.95 M 43.39 40.39 C 32.22 49.66 28.73 65.21 30.93 79.08 C 35.05 106.66 53.26 130.58 75.91 146.06 C 91.43 156.44 110.47 163.67 129.36 160.43 C 138.83 158.90 146.82 153.09 153.01 146.01 C 155.93 142.30 161.92 139.49 161.31 134.13 C 150.23 127.00 138.79 120.39 127.61 113.42 C 125.40 111.62 122.07 112.12 120.41 114.39 C 115.45 118.62 111.58 126.22 103.98 125.15 C 89.45 123.68 77.17 112.88 70.82 100.15 C 68.56 94.97 66.14 88.89 68.21 83.29 C 71.63 78.77 76.30 75.34 79.92 70.97 C 80.93 69.78 81.41 67.97 80.32 66.66 C 72.81 54.45 65.11 42.37 57.60 30.17 C 51.03 29.78 47.97 36.87 43.39 40.39 Z" />
</g>
</svg>
