<?xml version="1.0" encoding="UTF-8" ?>
<!DOCTYPE svg PUBLIC "-//W3C//DTD SVG 1.1//EN" "http://www.w3.org/Graphics/SVG/1.1/DTD/svg11.dtd">
<svg width="192pt" height="192pt" viewBox="0 0 192 192" version="1.1" xmlns="http://www.w3.org/2000/svg">
<g id="#ed31b1ff">
<path fill="#ed31b1" opacity="1.00" d=" M 43.98 23.96 C 49.98 17.78 62.36 16.59 67.30 24.65 C 74.89 36.75 82.46 48.87 90.03 60.99 C 93.61 66.32 92.51 73.70 88.41 78.41 C 85.65 82.19 80.78 84.70 79.07 88.98 C 81.37 101.35 92.42 111.94 104.82 114.07 C 111.24 107.38 118.74 98.02 129.32 101.70 C 142.16 108.55 154.32 116.73 166.87 124.15 C 174.98 128.92 174.15 140.96 167.96 146.98 C 161.45 153.16 155.77 160.40 148.09 165.21 C 128.18 177.24 102.82 173.00 82.92 163.17 C 54.82 149.00 31.89 123.65 22.59 93.39 C 17.31 75.81 17.35 55.04 28.76 39.80 C 33.31 34.05 38.89 29.22 43.98 23.96 M 43.37 40.38 C 31.92 49.86 28.60 65.87 31.04 80.00 C 35.74 108.66 55.38 133.24 79.58 148.43 C 95.62 158.17 115.50 164.73 134.13 159.17 C 144.68 156.28 151.45 147.26 158.98 140.01 C 160.71 138.38 163.08 134.55 159.93 133.16 C 148.46 126.30 137.20 119.04 125.59 112.42 C 120.23 111.92 117.73 118.13 113.94 120.95 C 109.49 126.97 101.11 125.48 95.07 123.08 C 81.07 117.27 69.62 104.15 67.49 88.94 C 66.16 79.26 78.94 76.38 80.98 68.08 C 73.63 55.21 65.27 42.91 57.66 30.18 C 51.05 29.68 47.97 36.86 43.37 40.38 Z" />
</g>
</svg>
