<?xml version="1.0" encoding="UTF-8" ?>
<!DOCTYPE svg PUBLIC "-//W3C//DTD SVG 1.1//EN" "http://www.w3.org/Graphics/SVG/1.1/DTD/svg11.dtd">
<svg width="192pt" height="192pt" viewBox="0 0 192 192" version="1.1" xmlns="http://www.w3.org/2000/svg">
<g id="#f6b02bff">
<path fill="#f6b02b" opacity="1.00" d=" M 22.72 26.79 C 23.14 23.25 26.37 20.40 29.97 20.70 C 44.66 20.67 59.35 20.64 74.03 20.71 C 77.23 20.57 80.29 22.97 80.80 26.15 C 83.23 37.75 85.43 49.41 87.84 61.02 C 90.68 70.26 79.57 74.64 75.01 80.97 C 80.18 90.96 87.89 99.30 95.97 106.99 C 100.22 112.53 92.33 120.42 86.82 116.11 C 75.97 107.10 67.32 95.53 61.04 82.94 C 59.61 80.45 60.05 77.15 62.13 75.16 C 66.20 70.92 70.46 66.84 74.60 62.65 C 72.74 53.06 70.89 43.46 68.81 33.91 C 57.43 34.08 45.96 33.32 34.64 34.28 C 32.25 58.40 41.70 82.14 55.62 101.42 C 71.07 122.70 91.93 140.52 116.42 150.48 C 129.40 155.72 143.61 158.41 157.60 156.75 C 157.60 145.40 157.71 134.05 157.54 122.70 C 148.02 120.80 138.51 118.84 128.98 117.01 C 124.07 121.40 119.93 126.71 114.69 130.69 C 109.10 133.94 102.45 126.44 106.18 121.25 C 110.49 116.24 115.51 111.86 120.06 107.06 C 122.05 104.91 124.61 102.52 127.81 103.26 C 140.29 105.66 152.74 108.21 165.20 110.70 C 168.64 111.17 171.18 114.50 170.86 117.94 C 170.86 132.64 170.91 147.34 170.85 162.04 C 171.06 165.50 168.21 168.46 164.87 168.89 C 144.15 173.37 122.52 168.28 103.71 159.27 C 75.29 145.44 51.45 122.52 36.00 95.00 C 24.71 74.46 17.75 50.20 22.72 26.79 Z" />
</g>
</svg>
