<?xml version="1.0" encoding="UTF-8" ?>
<!DOCTYPE svg PUBLIC "-//W3C//DTD SVG 1.1//EN" "http://www.w3.org/Graphics/SVG/1.1/DTD/svg11.dtd">
<svg width="192pt" height="192pt" viewBox="0 0 192 192" version="1.1" xmlns="http://www.w3.org/2000/svg">
<g id="#96644cff">
<path fill="#96644c" opacity="1.00" d=" M 22.71 26.85 C 23.13 23.28 26.33 20.38 29.99 20.70 C 44.66 20.67 59.33 20.64 74.00 20.71 C 78.05 20.45 80.97 24.11 81.22 27.88 C 83.46 40.62 86.86 53.22 88.40 66.02 C 85.64 72.14 79.31 75.87 75.05 80.97 C 80.13 90.73 87.52 99.03 95.54 106.46 C 100.73 111.75 92.64 120.82 86.81 116.14 C 75.55 106.59 66.07 94.47 60.30 80.85 C 60.52 72.42 70.86 68.94 74.47 62.11 C 72.75 52.78 70.80 43.48 68.91 34.17 C 57.50 34.21 46.08 34.07 34.67 34.25 C 32.25 58.62 41.89 82.59 56.05 102.00 C 71.47 123.00 92.16 140.61 116.41 150.48 C 129.40 155.70 143.61 158.41 157.60 156.75 C 157.54 145.41 157.75 134.06 157.49 122.73 C 148.02 120.96 138.62 118.73 129.12 117.20 C 123.90 121.21 120.06 126.84 114.73 130.72 C 109.12 134.04 102.44 126.46 106.17 121.26 C 110.14 116.57 114.84 112.53 119.06 108.06 C 121.42 105.68 124.08 102.37 127.88 103.28 C 140.32 105.64 152.72 108.21 165.14 110.68 C 168.61 111.14 171.20 114.48 170.88 117.95 C 170.75 132.65 171.48 147.36 170.95 162.06 C 171.03 165.51 168.31 168.50 164.92 168.94 C 145.48 173.17 125.14 168.91 107.22 160.94 C 77.67 147.59 52.85 124.35 36.71 96.32 C 24.99 75.48 17.66 50.75 22.71 26.85 Z" />
</g>
</svg>
