<?xml version="1.0" encoding="UTF-8" ?>
<!DOCTYPE svg PUBLIC "-//W3C//DTD SVG 1.1//EN" "http://www.w3.org/Graphics/SVG/1.1/DTD/svg11.dtd">
<svg width="192pt" height="192pt" viewBox="0 0 192 192" version="1.1" xmlns="http://www.w3.org/2000/svg">
<g id="#ed31b1ff">
<path fill="#ed31b1" opacity="1.00" d=" M 22.74 26.85 C 23.19 23.32 26.35 20.41 29.98 20.72 C 44.66 20.69 59.34 20.66 74.01 20.72 C 77.59 20.54 80.68 23.51 80.99 27.01 C 83.33 40.03 86.75 52.94 88.37 66.03 C 85.55 72.14 79.27 75.87 75.00 80.97 C 80.13 90.71 87.48 99.04 95.54 106.46 C 100.67 111.76 92.63 120.68 86.82 116.11 C 75.98 107.10 67.33 95.53 61.06 82.94 C 59.64 80.45 60.06 77.15 62.15 75.16 C 66.21 70.91 70.47 66.85 74.61 62.67 C 72.80 53.08 70.85 43.52 68.89 33.96 C 57.47 33.98 45.91 33.23 34.57 34.32 C 32.27 58.68 41.85 82.62 56.03 102.00 C 71.45 123.01 92.15 140.61 116.42 150.46 C 129.40 155.72 143.60 158.35 157.59 156.75 C 157.57 145.40 157.70 134.06 157.52 122.71 C 148.01 120.80 138.51 118.88 128.99 117.01 C 124.08 121.40 119.95 126.70 114.71 130.69 C 109.12 133.96 102.43 126.46 106.17 121.26 C 110.30 116.40 115.17 112.19 119.56 107.55 C 121.73 105.28 124.36 102.42 127.88 103.26 C 140.32 105.66 152.74 108.19 165.16 110.67 C 168.63 111.13 171.19 114.48 170.90 117.94 C 170.96 132.31 170.84 146.69 171.04 161.05 C 171.21 164.42 169.24 168.01 165.74 168.69 C 145.84 173.35 124.88 168.88 106.55 160.60 C 77.08 147.09 52.35 123.76 36.37 95.64 C 24.87 74.96 17.77 50.49 22.74 26.85 Z" />
</g>
</svg>
