<?xml version="1.0" encoding="UTF-8" ?>
<!DOCTYPE svg PUBLIC "-//W3C//DTD SVG 1.1//EN" "http://www.w3.org/Graphics/SVG/1.1/DTD/svg11.dtd">
<svg width="192pt" height="192pt" viewBox="0 0 192 192" version="1.1" xmlns="http://www.w3.org/2000/svg">
<g id="#5f6f81ff">
<path fill="#5f6f81" opacity="1.00" d=" M 22.53 27.54 C 22.85 23.76 25.96 20.31 29.97 20.69 C 44.65 20.66 59.34 20.63 74.03 20.71 C 78.04 20.46 80.96 24.09 81.22 27.83 C 83.46 40.59 86.88 53.22 88.40 66.04 C 85.64 72.14 79.31 75.86 75.06 80.97 C 80.18 90.99 87.93 99.28 95.97 106.99 C 100.32 112.51 92.32 120.58 86.80 116.13 C 75.54 106.57 66.05 94.45 60.28 80.82 C 60.57 72.42 70.80 68.92 74.48 62.13 C 72.73 52.80 70.80 43.49 68.90 34.18 C 57.51 34.19 46.11 34.11 34.72 34.22 C 32.23 58.35 41.73 82.12 55.63 101.41 C 70.79 122.30 91.15 139.83 115.03 149.92 C 128.40 155.51 143.11 158.50 157.59 156.75 C 157.58 145.41 157.74 134.07 157.50 122.74 C 148.02 120.92 138.59 118.73 129.06 117.18 C 123.92 121.28 120.02 126.84 114.71 130.72 C 109.10 134.02 102.46 126.45 106.17 121.25 C 111.01 115.76 116.48 110.83 121.57 105.57 C 123.31 103.59 126.04 102.69 128.60 103.38 C 140.80 105.81 153.00 108.25 165.20 110.70 C 168.63 111.18 171.21 114.50 170.86 117.95 C 170.86 132.64 170.91 147.35 170.84 162.04 C 171.13 165.54 168.23 168.51 164.87 168.94 C 145.94 173.06 126.12 169.09 108.57 161.52 C 79.73 148.90 55.36 126.79 38.90 100.06 C 25.95 78.57 17.55 52.73 22.53 27.54 Z" />
</g>
</svg>
