<?xml version="1.0" encoding="UTF-8" ?>
<!DOCTYPE svg PUBLIC "-//W3C//DTD SVG 1.1//EN" "http://www.w3.org/Graphics/SVG/1.1/DTD/svg11.dtd">
<svg width="192pt" height="192pt" viewBox="0 0 192 192" version="1.1" xmlns="http://www.w3.org/2000/svg">
<g id="#44e372ff">
<path fill="#44e372" opacity="1.00" d=" M 43.96 23.94 C 50.00 17.70 62.35 16.52 67.32 24.62 C 75.26 37.65 83.85 50.33 91.35 63.61 C 95.41 74.09 85.40 81.58 78.94 88.04 C 80.81 100.86 92.13 111.87 104.82 114.08 C 107.54 111.37 110.24 108.64 112.94 105.92 C 117.83 100.64 126.61 99.41 132.69 103.33 C 144.25 110.45 155.93 117.39 167.44 124.59 C 174.77 129.44 173.96 140.52 168.42 146.44 C 163.51 151.51 158.57 156.57 153.39 161.36 C 139.78 172.93 120.39 174.57 103.55 170.58 C 72.31 162.97 45.82 140.35 30.48 112.45 C 20.07 93.08 14.62 68.79 23.89 47.93 C 28.10 38.11 36.76 31.45 43.96 23.94 M 43.91 39.91 C 36.19 46.42 31.38 55.96 30.60 66.02 C 29.22 83.67 35.80 101.04 45.46 115.56 C 60.87 138.13 84.64 156.39 112.09 160.69 C 125.83 162.89 141.19 159.42 150.53 148.52 C 154.22 143.79 161.10 140.63 161.58 134.08 C 149.97 127.16 138.50 120.02 126.92 113.05 C 124.49 111.36 121.51 112.79 119.90 114.90 C 115.18 119.06 111.31 126.25 103.97 125.17 C 89.49 123.68 77.24 112.95 70.87 100.27 C 68.58 95.06 66.12 88.94 68.21 83.30 C 71.62 78.76 76.31 75.35 79.91 70.97 C 80.92 69.77 81.40 67.97 80.31 66.66 C 72.79 54.46 65.09 42.36 57.57 30.16 C 51.25 29.80 48.27 36.49 43.91 39.91 Z" />
</g>
</svg>
