<?xml version="1.0" encoding="UTF-8" ?>
<!DOCTYPE svg PUBLIC "-//W3C//DTD SVG 1.1//EN" "http://www.w3.org/Graphics/SVG/1.1/DTD/svg11.dtd">
<svg width="192pt" height="192pt" viewBox="0 0 192 192" version="1.1" xmlns="http://www.w3.org/2000/svg">
<g id="#a51affff">
<path fill="#a51aff" opacity="1.00" d=" M 22.72 26.74 C 23.14 23.22 26.37 20.40 29.95 20.69 C 44.65 20.68 59.35 20.65 74.05 20.70 C 77.61 20.53 80.70 23.50 81.01 26.98 C 83.32 40.01 86.78 52.94 88.37 66.04 C 85.59 72.15 79.25 75.81 75.06 80.97 C 80.15 90.99 87.91 99.30 95.97 106.97 C 100.23 112.53 92.33 120.41 86.80 116.12 C 75.99 107.08 67.31 95.55 61.04 82.95 C 59.59 80.47 60.05 77.16 62.11 75.16 C 66.19 70.92 70.49 66.89 74.54 62.63 C 72.75 53.04 70.96 43.42 68.73 33.92 C 57.56 33.82 46.39 33.84 35.22 33.90 C 32.35 49.05 36.71 65.18 42.77 79.28 C 55.29 106.51 77.00 129.26 102.96 144.08 C 119.48 153.19 138.56 159.08 157.57 156.72 C 157.62 145.39 157.74 134.05 157.51 122.72 C 148.00 120.81 138.50 118.76 128.95 117.08 C 124.26 121.33 120.10 126.16 115.36 130.34 C 109.78 134.37 102.29 126.81 106.14 121.23 C 111.04 115.79 116.46 110.81 121.58 105.57 C 123.27 103.59 126.04 102.68 128.56 103.36 C 140.79 105.82 153.02 108.24 165.24 110.71 C 168.64 111.18 171.20 114.53 170.86 117.93 C 170.86 132.63 170.89 147.34 170.85 162.04 C 171.06 165.50 168.20 168.48 164.85 168.89 C 144.39 173.32 123.04 168.39 104.41 159.60 C 75.68 145.82 51.58 122.75 36.00 95.01 C 24.70 74.45 17.73 50.17 22.72 26.74 Z" />
</g>
</svg>
