<?xml version="1.0" encoding="UTF-8" ?>
<!DOCTYPE svg PUBLIC "-//W3C//DTD SVG 1.1//EN" "http://www.w3.org/Graphics/SVG/1.1/DTD/svg11.dtd">
<svg width="192pt" height="192pt" viewBox="0 0 192 192" version="1.1" xmlns="http://www.w3.org/2000/svg">
<g id="#de30a2ff">
<path fill="#de30a2" opacity="1.00" d=" M 22.67 26.86 C 23.07 23.25 26.33 20.34 30.01 20.68 C 44.67 20.66 59.33 20.62 73.99 20.70 C 78.06 20.42 81.01 24.11 81.23 27.91 C 83.45 40.63 86.87 53.23 88.38 66.02 C 85.62 72.14 79.29 75.86 75.02 80.97 C 80.15 90.70 87.49 99.05 95.54 106.46 C 100.66 111.76 92.65 120.68 86.83 116.13 C 76.15 107.30 67.64 95.94 61.35 83.63 C 59.88 81.21 59.65 77.89 61.66 75.69 C 65.72 71.16 70.36 67.18 74.43 62.66 C 72.98 53.11 70.72 43.64 68.90 34.13 C 57.57 34.09 46.24 34.17 34.91 34.09 C 32.40 53.27 38.54 72.58 47.80 89.21 C 60.75 111.74 79.78 130.76 102.29 143.72 C 119.00 153.06 138.36 159.17 157.65 156.74 C 157.57 145.38 157.77 134.02 157.53 122.66 C 148.03 120.90 138.60 118.69 129.07 117.13 C 123.92 121.23 120.02 126.79 114.70 130.68 C 109.11 133.96 102.47 126.45 106.17 121.26 C 110.33 116.41 115.17 112.19 119.57 107.56 C 121.74 105.28 124.38 102.43 127.90 103.28 C 140.32 105.68 152.73 108.22 165.13 110.71 C 168.58 111.17 171.19 114.49 170.82 117.95 C 170.81 132.65 170.85 147.35 170.79 162.05 C 171.05 165.48 168.22 168.40 164.92 168.84 C 143.93 173.42 122.03 168.14 103.03 158.92 C 74.70 144.95 50.92 121.97 35.62 94.36 C 24.56 73.99 17.77 50.00 22.67 26.86 Z" />
</g>
</svg>
