<?xml version="1.0" encoding="UTF-8" ?>
<!DOCTYPE svg PUBLIC "-//W3C//DTD SVG 1.1//EN" "http://www.w3.org/Graphics/SVG/1.1/DTD/svg11.dtd">
<svg width="192pt" height="192pt" viewBox="0 0 192 192" version="1.1" xmlns="http://www.w3.org/2000/svg">
<g id="#2ab9a1ff">
<path fill="#2ab9a1" opacity="1.00" d=" M 45.28 22.35 C 60.79 21.30 76.43 21.88 92.00 21.49 C 112.52 20.81 134.37 25.05 150.52 38.46 C 164.78 51.44 169.24 71.45 169.97 89.98 C 170.42 111.12 168.20 134.85 152.94 150.94 C 139.62 165.69 118.55 169.84 99.53 168.51 C 94.89 166.82 95.02 159.34 99.73 157.83 C 103.75 156.98 107.91 157.52 111.99 157.13 C 128.11 156.25 144.26 147.13 151.17 132.15 C 158.88 115.30 159.81 96.09 157.16 77.96 C 155.54 67.34 152.26 56.34 144.38 48.62 C 135.07 39.21 121.66 35.56 108.82 34.49 C 91.08 32.69 73.21 33.09 55.42 33.77 C 51.95 33.71 48.68 36.28 48.84 39.94 C 48.45 61.96 48.91 83.99 48.58 106.01 C 48.87 110.61 42.90 113.34 39.41 110.61 C 35.81 107.91 37.24 102.85 36.99 99.00 C 36.69 77.64 37.08 56.27 37.08 34.91 C 37.15 29.74 39.65 23.48 45.28 22.35 Z" />
<path fill="#2ab9a1" opacity="1.00" d=" M 40.37 119.46 C 46.92 116.48 53.47 119.88 58.93 123.33 C 66.68 122.31 75.92 125.33 78.68 133.31 C 79.93 138.05 85.45 139.19 87.75 143.21 C 93.94 152.80 87.33 167.65 75.69 168.68 C 63.82 169.81 51.83 169.00 39.91 169.17 C 27.14 168.64 19.44 153.95 23.61 142.54 C 24.83 138.16 29.58 135.79 30.16 131.16 C 31.09 125.73 35.13 121.13 40.37 119.46 Z" />
</g>
</svg>
