<?xml version="1.0" encoding="UTF-8" ?>
<!DOCTYPE svg PUBLIC "-//W3C//DTD SVG 1.1//EN" "http://www.w3.org/Graphics/SVG/1.1/DTD/svg11.dtd">
<svg width="192pt" height="192pt" viewBox="0 0 192 192" version="1.1" xmlns="http://www.w3.org/2000/svg">
<g id="#ab5c51ff">
<path fill="#ab5c51" opacity="1.00" d=" M 25.35 46.94 C 25.31 35.52 35.51 25.36 46.94 25.41 C 65.23 25.44 83.54 25.19 101.82 25.51 C 107.22 26.19 107.28 35.29 101.72 35.67 C 83.47 36.03 65.20 35.57 46.95 35.87 C 40.69 36.00 35.50 41.78 35.74 47.98 C 35.74 79.66 35.74 111.35 35.77 143.03 C 35.49 149.56 41.40 155.37 47.93 154.95 C 79.64 154.96 111.36 154.98 143.08 154.94 C 149.43 155.13 155.13 149.45 154.85 143.07 C 154.90 111.36 154.89 79.65 154.85 47.94 C 155.20 41.36 149.29 35.38 142.65 36.00 C 142.56 49.41 142.67 62.82 142.61 76.23 C 138.39 74.06 134.39 71.53 130.23 69.26 C 126.29 71.88 122.40 74.58 118.40 77.11 C 118.39 62.74 118.36 48.37 118.42 34.01 C 118.25 29.40 122.39 25.22 127.00 25.38 C 133.27 25.39 139.56 25.17 145.82 25.52 C 156.50 26.53 165.38 36.29 165.38 47.02 C 165.44 79.34 165.44 111.66 165.39 143.98 C 165.36 155.33 155.33 165.42 143.97 165.48 C 111.66 165.55 79.34 165.52 47.02 165.48 C 35.61 165.56 25.38 155.48 25.33 144.07 C 25.27 111.69 25.30 79.32 25.35 46.94 Z" />
<path fill="#ab5c51" opacity="1.00" d=" M 49.81 101.23 C 57.98 97.57 67.52 96.09 76.20 98.73 C 82.74 100.73 86.80 107.34 87.09 113.96 C 87.62 123.87 86.77 133.83 87.80 143.73 C 83.55 143.79 79.30 143.80 75.06 143.66 C 74.87 142.70 74.49 140.78 74.29 139.81 C 67.93 143.14 60.17 147.19 53.25 142.75 C 45.20 138.32 44.29 126.00 50.91 119.93 C 56.83 114.37 65.42 113.66 73.14 113.36 C 71.34 103.58 58.46 107.59 52.19 110.43 C 51.35 107.37 50.52 104.31 49.81 101.23 M 60.54 129.01 C 59.83 133.95 66.03 136.15 69.66 133.71 C 73.97 131.64 73.54 126.37 73.41 122.36 C 68.67 122.47 61.18 122.94 60.54 129.01 Z" />
</g>
</svg>
