<?xml version="1.0" encoding="UTF-8" ?>
<!DOCTYPE svg PUBLIC "-//W3C//DTD SVG 1.1//EN" "http://www.w3.org/Graphics/SVG/1.1/DTD/svg11.dtd">
<svg width="192pt" height="192pt" viewBox="0 0 192 192" version="1.1" xmlns="http://www.w3.org/2000/svg">
<g id="#3ea0d7ff">
<path fill="#3ea0d7" opacity="1.00" d=" M 38.33 21.42 C 41.48 20.62 44.76 20.64 48.00 20.64 C 80.98 20.73 113.98 20.53 146.96 20.72 C 161.68 20.83 172.83 36.78 168.74 50.68 C 167.23 53.90 162.40 54.63 159.95 52.09 C 157.40 49.75 158.47 45.98 158.02 42.94 C 157.73 36.42 151.36 31.47 145.01 31.84 C 111.67 31.79 78.33 31.77 44.99 31.81 C 37.77 31.32 31.27 37.73 31.81 44.99 C 31.85 78.67 31.73 112.36 31.91 146.04 C 31.89 153.77 39.78 159.02 47.04 157.96 C 51.38 156.98 55.68 161.53 53.69 165.73 C 51.70 170.26 45.90 169.16 41.93 168.99 C 30.37 168.12 20.56 157.61 20.70 145.97 C 20.66 111.99 20.68 78.01 20.70 44.03 C 20.56 33.63 28.23 23.84 38.33 21.42 Z" />
<path fill="#3ea0d7" opacity="1.00" d=" M 162.39 61.45 C 165.88 60.37 169.51 63.35 169.27 66.96 C 169.29 73.64 169.54 80.35 169.14 87.02 C 168.25 92.33 160.11 92.69 158.79 87.46 C 158.24 80.99 158.73 74.46 158.56 67.96 C 158.33 65.30 159.51 62.09 162.39 61.45 Z" />
<path fill="#3ea0d7" opacity="1.00" d=" M 100.94 66.93 C 104.04 67.61 110.70 65.04 110.65 69.99 C 110.77 80.24 110.66 90.51 110.71 100.77 C 118.21 98.40 118.27 112.69 110.73 110.31 C 110.24 113.13 112.38 118.80 108.07 119.10 C 105.47 118.87 101.88 120.19 100.05 117.82 C 99.67 115.27 99.80 112.68 99.77 110.11 C 92.58 110.01 85.36 110.40 78.18 109.95 C 75.22 107.09 77.21 102.21 79.34 99.34 C 86.72 88.67 92.94 77.14 100.94 66.93 M 89.27 100.89 C 92.80 100.95 96.32 101.01 99.85 100.99 C 99.85 95.57 99.82 90.14 99.73 84.72 C 96.21 90.09 92.95 95.63 89.27 100.89 Z" />
<path fill="#3ea0d7" opacity="1.00" d=" M 162.30 100.35 C 165.45 99.34 169.10 101.58 169.22 104.98 C 169.39 111.98 169.51 119.03 169.17 126.03 C 168.19 131.23 160.20 131.56 158.79 126.47 C 158.20 119.69 158.69 112.84 158.57 106.03 C 158.37 103.59 159.86 100.98 162.30 100.35 Z" />
<path fill="#3ea0d7" opacity="1.00" d=" M 158.80 142.71 C 160.20 137.87 168.02 138.12 169.09 143.06 C 169.65 148.35 169.33 153.71 169.30 159.02 C 169.22 164.83 163.73 169.69 158.00 169.40 C 153.01 169.35 148.01 169.68 143.05 169.19 C 138.03 168.12 137.74 160.17 142.72 158.82 C 147.84 158.03 153.09 158.86 158.25 158.26 C 158.85 153.09 158.03 147.84 158.80 142.71 Z" />
<path fill="#3ea0d7" opacity="1.00" d=" M 65.41 158.65 C 72.45 158.39 79.54 158.39 86.58 158.65 C 92.23 159.18 92.62 168.15 87.03 169.20 C 79.71 169.55 72.31 169.57 64.99 169.20 C 59.45 168.14 59.75 159.17 65.41 158.65 Z" />
<path fill="#3ea0d7" opacity="1.00" d=" M 104.43 158.69 C 111.46 158.46 118.54 158.42 125.58 158.68 C 131.09 159.22 131.44 168.12 126.03 169.19 C 118.71 169.54 111.31 169.55 103.99 169.16 C 98.58 168.15 98.89 159.17 104.43 158.69 Z" />
</g>
</svg>
