<?xml version="1.0" encoding="UTF-8" ?>
<!DOCTYPE svg PUBLIC "-//W3C//DTD SVG 1.1//EN" "http://www.w3.org/Graphics/SVG/1.1/DTD/svg11.dtd">
<svg width="192pt" height="192pt" viewBox="0 0 192 192" version="1.1" xmlns="http://www.w3.org/2000/svg">
<g id="#39a2ddff">
<path fill="#39a2dd" opacity="1.00" d=" M 38.33 21.42 C 41.49 20.63 44.77 20.64 48.00 20.64 C 80.99 20.74 113.98 20.53 146.96 20.73 C 161.68 20.83 172.82 36.78 168.74 50.69 C 166.85 54.72 160.37 54.48 158.71 50.37 C 157.53 46.45 158.93 41.96 156.68 38.31 C 154.50 34.05 149.69 31.70 145.00 31.84 C 111.67 31.79 78.33 31.77 45.00 31.80 C 38.20 31.38 31.76 37.05 31.86 43.97 C 31.74 77.64 31.83 111.33 31.84 145.01 C 31.49 151.33 36.58 157.37 42.96 157.79 C 46.64 158.20 51.91 156.92 53.67 161.28 C 55.71 165.54 51.37 169.94 47.04 169.18 C 34.09 170.57 21.05 160.24 20.75 146.97 C 20.59 112.66 20.71 78.34 20.71 44.02 C 20.56 33.62 28.24 23.85 38.33 21.42 Z" />
<path fill="#39a2dd" opacity="1.00" d=" M 162.38 61.47 C 165.86 60.38 169.48 63.36 169.24 66.96 C 169.29 73.63 169.54 80.34 169.11 87.00 C 168.26 92.30 160.10 92.66 158.80 87.45 C 158.24 80.98 158.74 74.45 158.57 67.96 C 158.36 65.31 159.50 62.10 162.38 61.47 Z" />
<path fill="#39a2dd" opacity="1.00" d=" M 106.00 66.72 C 112.94 65.61 120.50 65.15 127.15 67.80 C 133.31 71.01 132.80 79.06 132.44 84.97 C 132.51 88.42 130.40 91.40 127.20 92.59 C 131.85 93.76 133.18 98.75 133.07 102.97 C 133.21 108.58 132.86 116.30 126.66 118.64 C 120.06 120.91 112.75 120.43 105.95 119.46 C 99.05 118.75 95.56 110.13 98.19 104.40 C 101.00 103.62 104.01 103.87 106.89 104.12 C 108.86 105.89 107.84 110.08 111.11 110.71 C 113.89 111.10 116.88 111.36 119.60 110.51 C 123.29 108.26 122.23 102.92 121.48 99.39 C 118.84 94.80 112.23 99.16 109.12 95.82 C 108.92 93.35 108.00 89.94 110.18 88.14 C 113.78 87.33 119.35 89.57 121.30 85.37 C 121.99 81.98 122.71 75.78 117.94 75.25 C 114.75 75.04 109.19 74.15 108.77 78.65 C 108.74 84.08 96.53 83.96 97.71 78.04 C 97.56 72.94 100.51 67.40 106.00 66.72 Z" />
<path fill="#39a2dd" opacity="1.00" d=" M 61.70 72.04 C 68.07 69.09 76.36 64.70 83.13 68.16 C 83.93 82.03 83.30 96.00 83.45 109.91 C 86.34 109.98 89.24 110.02 92.13 109.90 C 93.71 112.77 93.71 116.35 92.16 119.23 C 82.17 118.85 72.14 119.47 62.16 118.94 C 59.97 117.07 60.50 112.92 61.56 110.60 C 64.82 109.22 68.82 110.32 72.36 110.00 C 72.36 99.37 72.39 88.74 72.35 78.11 C 67.74 78.39 59.30 79.41 61.70 72.04 Z" />
<path fill="#39a2dd" opacity="1.00" d=" M 162.32 100.36 C 165.46 99.38 169.10 101.58 169.20 104.98 C 169.39 111.98 169.52 119.04 169.15 126.03 C 168.18 131.22 160.20 131.52 158.80 126.46 C 158.18 119.99 158.75 113.45 158.55 106.96 C 158.28 104.27 159.45 101.06 162.32 100.36 Z" />
<path fill="#39a2dd" opacity="1.00" d=" M 158.81 142.71 C 160.20 137.88 168.03 138.13 169.07 143.06 C 169.65 148.35 169.33 153.71 169.29 159.03 C 169.21 164.83 163.73 169.67 158.00 169.40 C 153.02 169.34 148.00 169.68 143.04 169.17 C 138.03 168.11 137.76 160.17 142.72 158.83 C 147.86 158.03 153.10 158.86 158.27 158.28 C 158.85 153.10 158.03 147.85 158.81 142.71 Z" />
<path fill="#39a2dd" opacity="1.00" d=" M 65.41 158.66 C 72.21 158.34 79.03 158.50 85.83 158.58 C 89.68 158.46 92.52 163.19 90.48 166.49 C 88.95 169.68 84.99 169.49 82.00 169.43 C 76.33 169.22 70.64 169.74 64.99 169.18 C 59.53 168.19 59.81 159.12 65.41 158.66 Z" />
<path fill="#39a2dd" opacity="1.00" d=" M 104.43 158.71 C 111.46 158.46 118.54 158.42 125.58 158.70 C 131.08 159.23 131.42 168.13 126.03 169.17 C 118.71 169.53 111.31 169.56 103.99 169.13 C 98.60 168.16 98.91 159.17 104.43 158.71 Z" />
</g>
</svg>
