<?xml version="1.0" encoding="UTF-8" ?>
<!DOCTYPE svg PUBLIC "-//W3C//DTD SVG 1.1//EN" "http://www.w3.org/Graphics/SVG/1.1/DTD/svg11.dtd">
<svg width="192pt" height="192pt" viewBox="0 0 192 192" version="1.1" xmlns="http://www.w3.org/2000/svg">
<g id="#37a3deff">
<path fill="#37a3de" opacity="1.00" d=" M 38.34 21.43 C 41.49 20.62 44.77 20.65 48.00 20.65 C 80.99 20.74 113.98 20.54 146.97 20.72 C 161.69 20.84 172.85 36.80 168.77 50.70 C 167.25 53.97 162.34 54.67 159.90 52.06 C 157.42 49.70 158.48 45.97 158.01 42.94 C 157.72 36.41 151.35 31.53 145.01 31.87 C 112.01 31.74 79.00 31.83 46.00 31.79 C 38.86 31.06 31.76 36.66 31.87 44.05 C 31.72 77.37 31.88 110.70 31.82 144.03 C 31.61 148.77 33.61 153.81 37.93 156.17 C 41.74 158.71 46.50 157.41 50.70 158.34 C 54.87 159.88 55.36 166.27 51.40 168.36 C 37.52 172.85 20.97 161.89 20.75 146.98 C 20.60 112.66 20.71 78.34 20.70 44.02 C 20.57 33.62 28.24 23.84 38.34 21.43 Z" />
<path fill="#37a3de" opacity="1.00" d=" M 162.40 61.47 C 165.86 60.40 169.49 63.38 169.29 66.96 C 169.32 73.64 169.54 80.35 169.18 87.03 C 168.22 92.35 160.14 92.74 158.79 87.45 C 158.25 80.98 158.73 74.45 158.57 67.96 C 158.37 65.31 159.52 62.10 162.40 61.47 Z" />
<path fill="#37a3de" opacity="1.00" d=" M 65.06 66.87 C 72.24 65.56 80.17 65.08 87.02 67.95 C 94.01 72.66 92.66 82.82 91.26 89.98 C 87.05 98.04 79.11 103.29 73.03 109.87 C 79.08 109.98 85.13 110.08 91.17 109.91 C 92.67 112.80 92.69 116.31 91.20 119.20 C 80.55 118.83 69.84 119.59 59.23 118.83 C 57.06 117.02 57.80 112.98 58.50 110.54 C 64.76 103.48 72.12 97.43 78.57 90.54 C 81.97 86.90 82.22 80.98 80.37 76.59 C 77.84 74.42 74.16 75.04 71.11 75.32 C 67.26 76.08 68.16 80.79 67.53 83.68 C 64.32 83.96 60.60 84.97 57.66 83.31 C 55.97 77.26 57.76 68.19 65.06 66.87 Z" />
<path fill="#37a3de" opacity="1.00" d=" M 99.38 69.98 C 98.97 67.88 101.03 66.61 102.92 66.98 C 112.53 67.18 122.19 66.63 131.77 67.26 C 133.80 69.43 132.48 72.95 132.65 75.67 C 125.21 76.62 117.69 75.93 110.22 76.11 C 110.26 79.75 110.26 83.39 110.15 87.03 C 115.98 83.97 123.36 84.21 129.34 86.70 C 135.71 90.38 134.50 98.77 134.61 105.01 C 134.96 110.38 133.63 117.21 127.70 118.96 C 120.77 120.70 113.23 120.73 106.30 118.96 C 100.42 117.36 98.78 110.39 99.55 105.08 C 102.24 102.97 106.04 104.36 109.20 103.93 C 109.06 111.26 118.50 113.39 123.07 109.04 C 123.96 104.76 124.55 99.44 122.59 95.43 C 115.42 90.67 107.12 99.45 99.82 95.16 C 98.72 86.92 99.63 78.35 99.38 69.98 Z" />
<path fill="#37a3de" opacity="1.00" d=" M 162.33 100.36 C 165.48 99.39 169.07 101.59 169.23 104.97 C 169.43 111.96 169.51 118.99 169.21 125.98 C 168.26 131.25 160.20 131.63 158.79 126.46 C 158.19 119.99 158.73 113.46 158.55 106.97 C 158.28 104.28 159.46 101.05 162.33 100.36 Z" />
<path fill="#37a3de" opacity="1.00" d=" M 158.81 142.71 C 160.21 137.87 168.01 138.15 169.10 143.07 C 169.69 148.36 169.34 153.72 169.33 159.04 C 169.23 164.82 163.75 169.74 158.02 169.43 C 153.00 169.37 147.96 169.70 142.96 169.21 C 138.04 168.01 137.77 160.19 142.72 158.83 C 147.85 158.03 153.10 158.86 158.26 158.27 C 158.84 153.10 158.03 147.85 158.81 142.71 Z" />
<path fill="#37a3de" opacity="1.00" d=" M 65.41 158.66 C 72.45 158.39 79.54 158.40 86.59 158.66 C 92.25 159.22 92.64 168.16 87.04 169.25 C 79.70 169.57 72.30 169.56 64.96 169.25 C 59.56 168.14 59.80 159.16 65.41 158.66 Z" />
<path fill="#37a3de" opacity="1.00" d=" M 104.43 158.71 C 111.46 158.47 118.54 158.43 125.57 158.69 C 131.07 159.25 131.43 168.10 126.06 169.23 C 118.71 169.55 111.31 169.53 103.96 169.22 C 98.64 168.08 98.90 159.22 104.43 158.71 Z" />
</g>
</svg>
