<?xml version="1.0" encoding="UTF-8" ?>
<!DOCTYPE svg PUBLIC "-//W3C//DTD SVG 1.1//EN" "http://www.w3.org/Graphics/SVG/1.1/DTD/svg11.dtd">
<svg width="192pt" height="192pt" viewBox="0 0 192 192" version="1.1" xmlns="http://www.w3.org/2000/svg">
<g id="#39a3dcff">
<path fill="#39a3dc" opacity="1.00" d=" M 38.33 21.42 C 41.49 20.62 44.76 20.64 47.99 20.65 C 80.98 20.74 113.97 20.54 146.96 20.72 C 160.28 20.91 170.95 33.94 169.43 47.01 C 170.18 51.48 165.14 55.23 161.16 52.99 C 157.39 51.06 158.36 46.40 158.03 42.95 C 157.73 36.42 151.36 31.46 145.00 31.84 C 111.67 31.79 78.33 31.77 45.00 31.80 C 38.20 31.38 31.76 37.06 31.85 43.97 C 31.78 77.99 31.75 112.02 31.90 146.03 C 31.88 154.29 40.54 159.21 48.07 157.99 C 53.80 157.10 56.46 165.74 51.38 168.34 C 37.49 172.73 21.00 161.88 20.75 146.97 C 20.60 112.66 20.71 78.34 20.70 44.03 C 20.56 33.62 28.24 23.84 38.33 21.42 Z" />
<path fill="#39a3dc" opacity="1.00" d=" M 162.39 61.47 C 165.89 60.38 169.45 63.36 169.24 66.96 C 169.30 73.64 169.53 80.35 169.13 87.02 C 168.23 92.31 160.16 92.65 158.79 87.47 C 158.26 80.99 158.74 74.46 158.57 67.96 C 158.34 65.30 159.52 62.10 162.39 61.47 Z" />
<path fill="#39a3dc" opacity="1.00" d=" M 106.78 66.45 C 114.73 66.01 126.35 63.78 130.91 72.25 C 133.06 79.80 133.66 89.57 127.58 95.56 C 122.94 100.53 117.90 105.10 113.06 109.86 C 118.98 110.11 124.92 109.83 130.85 110.08 C 132.97 112.13 133.03 116.96 130.87 119.00 C 120.32 119.17 109.72 119.34 99.18 118.90 C 97.04 116.38 97.25 111.27 99.80 108.89 C 105.86 102.91 112.10 97.11 118.09 91.06 C 121.88 87.43 122.29 81.20 120.33 76.60 C 117.60 74.40 113.60 74.87 110.41 75.57 C 106.15 76.80 110.10 84.28 105.07 84.12 C 102.33 83.99 96.85 85.38 97.08 81.05 C 96.31 74.63 99.39 66.81 106.78 66.45 Z" />
<path fill="#39a3dc" opacity="1.00" d=" M 63.10 71.13 C 69.07 68.80 75.28 65.93 81.87 67.12 C 83.84 67.93 83.35 70.29 83.50 71.99 C 83.43 84.63 83.55 97.27 83.44 109.91 C 86.24 109.98 89.05 109.85 91.83 110.11 C 94.27 112.29 93.46 116.53 92.14 119.20 C 82.15 118.90 72.13 119.44 62.16 118.94 C 60.06 116.96 60.10 112.11 62.15 110.11 C 65.54 109.82 68.95 110.04 72.35 110.00 C 72.36 99.37 72.40 88.74 72.34 78.11 C 69.06 77.91 65.51 78.75 62.41 77.53 C 61.29 75.80 60.64 71.98 63.10 71.13 Z" />
<path fill="#39a3dc" opacity="1.00" d=" M 162.32 100.36 C 165.46 99.38 169.08 101.58 169.21 104.97 C 169.38 111.98 169.50 119.03 169.17 126.03 C 168.15 131.22 160.23 131.53 158.79 126.46 C 158.23 119.68 158.69 112.82 158.58 106.02 C 158.39 103.59 159.88 100.97 162.32 100.36 Z" />
<path fill="#39a3dc" opacity="1.00" d=" M 158.80 142.71 C 160.21 137.88 168.01 138.13 169.09 143.07 C 169.64 148.35 169.32 153.71 169.30 159.02 C 169.21 164.82 163.73 169.68 158.00 169.40 C 153.02 169.34 148.01 169.67 143.04 169.19 C 138.03 168.10 137.76 160.18 142.73 158.82 C 147.85 158.03 153.09 158.88 158.25 158.26 C 158.87 153.09 158.03 147.85 158.80 142.71 Z" />
<path fill="#39a3dc" opacity="1.00" d=" M 65.41 158.65 C 72.45 158.40 79.54 158.40 86.59 158.65 C 92.22 159.20 92.60 168.13 87.03 169.20 C 79.71 169.54 72.31 169.56 64.98 169.19 C 59.53 168.16 59.81 159.14 65.41 158.65 Z" />
<path fill="#39a3dc" opacity="1.00" d=" M 104.43 158.70 C 111.47 158.47 118.54 158.43 125.58 158.68 C 131.08 159.24 131.42 168.11 126.03 169.18 C 118.71 169.52 111.31 169.55 103.99 169.14 C 98.59 168.13 98.92 159.18 104.43 158.70 Z" />
</g>
</svg>
