<?xml version="1.0" encoding="UTF-8" ?>
<!DOCTYPE svg PUBLIC "-//W3C//DTD SVG 1.1//EN" "http://www.w3.org/Graphics/SVG/1.1/DTD/svg11.dtd">
<svg width="192pt" height="192pt" viewBox="0 0 192 192" version="1.1" xmlns="http://www.w3.org/2000/svg">
<g id="#37a2deff">
<path fill="#37a2de" opacity="1.00" d=" M 38.33 21.42 C 41.49 20.63 44.77 20.64 48.00 20.64 C 80.99 20.74 113.98 20.53 146.97 20.73 C 160.29 20.92 170.96 33.94 169.46 47.01 C 170.21 51.50 165.16 55.34 161.13 53.00 C 157.39 51.05 158.38 46.39 158.01 42.94 C 157.72 36.41 151.34 31.53 145.01 31.88 C 111.67 31.76 78.33 31.78 44.99 31.83 C 38.16 31.42 31.79 37.12 31.87 44.04 C 31.72 77.37 31.88 110.71 31.82 144.04 C 31.61 148.78 33.61 153.81 37.92 156.16 C 41.74 158.71 46.49 157.41 50.71 158.34 C 54.86 159.89 55.37 166.27 51.40 168.36 C 37.53 172.86 20.96 161.89 20.75 146.98 C 20.59 112.66 20.71 78.34 20.70 44.02 C 20.56 33.62 28.24 23.85 38.33 21.42 Z" />
<path fill="#37a2de" opacity="1.00" d=" M 162.40 61.47 C 165.87 60.39 169.50 63.38 169.29 66.97 C 169.32 73.65 169.57 80.36 169.16 87.02 C 168.27 92.36 160.11 92.73 158.80 87.45 C 158.24 80.99 158.73 74.46 158.57 67.96 C 158.36 65.31 159.51 62.10 162.40 61.47 Z" />
<path fill="#37a2de" opacity="1.00" d=" M 66.06 66.87 C 73.43 65.60 81.73 64.91 88.61 68.31 C 94.90 73.36 93.64 82.95 92.26 89.96 C 88.07 98.04 80.12 103.29 74.03 109.87 C 80.07 109.96 86.10 110.12 92.14 109.88 C 93.69 112.76 93.72 116.34 92.16 119.23 C 81.52 118.79 70.83 119.61 60.22 118.83 C 58.06 116.99 58.78 113.00 59.50 110.53 C 65.77 103.48 73.13 97.43 79.57 90.53 C 82.90 87.08 83.00 81.62 81.73 77.27 C 79.74 74.18 75.23 75.07 72.11 75.34 C 68.31 76.08 69.06 80.79 68.58 83.67 C 65.35 84.01 61.63 84.94 58.66 83.32 C 56.97 77.26 58.76 68.19 66.06 66.87 Z" />
<path fill="#37a2de" opacity="1.00" d=" M 103.43 68.40 C 108.73 65.28 115.16 66.00 121.05 66.03 C 126.08 66.12 132.08 68.10 133.40 73.59 C 134.56 79.83 135.33 87.16 131.78 92.79 C 126.91 99.12 120.64 104.19 115.05 109.87 C 120.98 110.12 126.92 109.78 132.84 110.11 C 135.31 112.29 134.41 116.52 133.17 119.23 C 122.51 118.83 111.82 119.52 101.19 118.90 C 99.02 116.38 99.26 111.28 101.80 108.89 C 107.86 102.91 114.11 97.12 120.09 91.05 C 123.87 87.43 124.30 81.20 122.33 76.61 C 119.61 74.39 115.60 74.87 112.41 75.56 C 108.17 76.83 112.08 84.26 107.07 84.12 C 104.58 83.90 100.88 85.15 99.32 82.69 C 98.72 77.80 99.06 71.57 103.43 68.40 Z" />
<path fill="#37a2de" opacity="1.00" d=" M 162.32 100.36 C 165.90 99.20 169.63 102.23 169.31 105.96 C 169.32 112.63 169.58 119.32 169.19 125.98 C 168.29 131.25 160.17 131.63 158.80 126.46 C 158.18 119.99 158.74 113.45 158.55 106.96 C 158.28 104.27 159.45 101.06 162.32 100.36 Z" />
<path fill="#37a2de" opacity="1.00" d=" M 158.81 142.71 C 160.21 137.87 168.03 138.15 169.09 143.07 C 169.70 148.36 169.35 153.72 169.33 159.03 C 169.24 164.82 163.75 169.74 158.01 169.43 C 153.00 169.36 147.95 169.71 142.96 169.21 C 138.03 168.01 137.78 160.18 142.72 158.83 C 147.86 158.03 153.10 158.86 158.27 158.28 C 158.84 153.10 158.02 147.85 158.81 142.71 Z" />
<path fill="#37a2de" opacity="1.00" d=" M 65.41 158.66 C 72.20 158.34 79.03 158.50 85.83 158.58 C 89.72 158.46 92.60 163.28 90.47 166.61 C 89.09 169.37 85.71 169.60 83.00 169.46 C 76.99 169.26 70.96 169.73 64.97 169.24 C 59.55 168.16 59.80 159.15 65.41 158.66 Z" />
<path fill="#37a2de" opacity="1.00" d=" M 104.44 158.71 C 111.47 158.46 118.54 158.43 125.57 158.70 C 131.08 159.23 131.44 168.14 126.05 169.22 C 118.71 169.56 111.31 169.55 103.97 169.20 C 98.63 168.12 98.90 159.19 104.44 158.71 Z" />
</g>
</svg>
