<?xml version="1.0" encoding="UTF-8" ?>
<!DOCTYPE svg PUBLIC "-//W3C//DTD SVG 1.1//EN" "http://www.w3.org/Graphics/SVG/1.1/DTD/svg11.dtd">
<svg width="192pt" height="192pt" viewBox="0 0 192 192" version="1.1" xmlns="http://www.w3.org/2000/svg">
<g id="#38a3ddff">
<path fill="#38a3dd" opacity="1.00" d=" M 38.33 21.42 C 41.49 20.63 44.77 20.64 48.00 20.65 C 80.99 20.74 113.98 20.54 146.97 20.72 C 161.68 20.84 172.82 36.79 168.73 50.68 C 167.22 53.90 162.40 54.62 159.95 52.08 C 157.40 49.74 158.48 45.98 158.02 42.95 C 157.74 36.42 151.36 31.47 145.01 31.84 C 111.67 31.79 78.33 31.77 45.00 31.80 C 38.20 31.38 31.76 37.06 31.85 43.97 C 31.74 77.65 31.83 111.33 31.84 145.01 C 31.70 149.74 34.28 154.47 38.59 156.53 C 42.31 158.65 46.74 157.41 50.71 158.34 C 54.85 159.89 55.31 166.27 51.38 168.34 C 37.50 172.74 21.00 161.89 20.75 146.98 C 20.60 112.66 20.71 78.34 20.71 44.02 C 20.56 33.62 28.24 23.85 38.33 21.42 Z" />
<path fill="#38a3dd" opacity="1.00" d=" M 162.39 61.47 C 165.86 60.39 169.47 63.37 169.25 66.96 C 169.28 73.64 169.54 80.35 169.12 87.02 C 168.23 92.30 160.13 92.65 158.80 87.45 C 158.26 80.98 158.74 74.45 158.57 67.96 C 158.37 65.31 159.51 62.10 162.39 61.47 Z" />
<path fill="#38a3dd" opacity="1.00" d=" M 108.24 66.17 C 115.01 65.97 122.37 65.10 128.59 68.36 C 134.14 72.73 133.05 80.74 133.25 87.00 C 132.81 95.63 134.31 104.50 132.02 112.93 C 130.17 119.79 121.81 120.09 116.00 120.17 C 109.95 119.99 101.81 120.75 98.17 114.80 C 95.22 108.31 96.31 100.92 96.08 94.00 C 96.37 86.64 95.18 78.91 97.90 71.89 C 99.53 67.76 104.28 66.64 108.24 66.17 M 110.31 75.44 C 105.92 76.74 107.44 82.55 107.06 86.00 C 107.75 93.81 105.64 102.18 108.37 109.62 C 112.51 111.85 121.98 112.72 122.16 106.01 C 122.37 97.03 122.65 87.97 122.01 79.01 C 121.12 73.63 114.18 75.05 110.31 75.44 Z" />
<path fill="#38a3dd" opacity="1.00" d=" M 60.69 72.04 C 66.83 68.91 73.81 66.03 80.86 67.14 C 82.88 67.89 82.31 70.32 82.50 72.00 C 82.44 84.64 82.54 97.28 82.45 109.92 C 85.34 109.99 88.24 110.01 91.13 109.91 C 92.71 112.76 92.73 116.36 91.15 119.22 C 81.16 118.88 71.14 119.46 61.16 118.94 C 58.82 117.21 59.99 113.67 60.06 111.18 C 62.97 108.62 67.72 110.59 71.35 110.00 C 71.36 99.37 71.39 88.74 71.35 78.12 C 66.72 78.38 58.31 79.42 60.69 72.04 Z" />
<path fill="#38a3dd" opacity="1.00" d=" M 162.32 100.36 C 165.46 99.38 169.08 101.58 169.20 104.97 C 169.38 111.98 169.51 119.03 169.16 126.04 C 168.16 131.22 160.21 131.52 158.79 126.46 C 158.20 119.99 158.74 113.45 158.55 106.96 C 158.27 104.27 159.46 101.06 162.32 100.36 Z" />
<path fill="#38a3dd" opacity="1.00" d=" M 158.81 142.71 C 160.21 137.88 168.02 138.13 169.08 143.07 C 169.65 148.35 169.32 153.71 169.30 159.02 C 169.21 164.82 163.73 169.67 158.00 169.39 C 153.02 169.34 148.00 169.67 143.04 169.18 C 138.04 168.10 137.76 160.18 142.72 158.83 C 147.85 158.02 153.09 158.89 158.25 158.26 C 158.87 153.09 158.02 147.85 158.81 142.71 Z" />
<path fill="#38a3dd" opacity="1.00" d=" M 65.41 158.65 C 72.21 158.34 79.04 158.50 85.84 158.57 C 89.68 158.46 92.51 163.19 90.48 166.50 C 89.15 169.30 85.72 169.57 83.00 169.43 C 77.00 169.23 70.97 169.72 64.99 169.19 C 59.53 168.17 59.81 159.13 65.41 158.65 Z" />
<path fill="#38a3dd" opacity="1.00" d=" M 104.43 158.71 C 111.47 158.47 118.54 158.43 125.58 158.69 C 131.07 159.24 131.42 168.10 126.03 169.18 C 118.71 169.52 111.31 169.55 103.99 169.14 C 98.59 168.13 98.92 159.18 104.43 158.71 Z" />
</g>
</svg>
