<?xml version="1.0" encoding="UTF-8" ?>
<!DOCTYPE svg PUBLIC "-//W3C//DTD SVG 1.1//EN" "http://www.w3.org/Graphics/SVG/1.1/DTD/svg11.dtd">
<svg width="192pt" height="192pt" viewBox="0 0 192 192" version="1.1" xmlns="http://www.w3.org/2000/svg">
<g id="#3d9fd8ff">
<path fill="#3d9fd8" opacity="1.00" d=" M 38.34 21.42 C 41.49 20.63 44.77 20.64 48.00 20.64 C 80.99 20.74 113.99 20.53 146.98 20.72 C 161.69 20.84 172.81 36.78 168.75 50.67 C 166.87 54.73 160.37 54.49 158.71 50.37 C 157.51 46.46 158.93 41.96 156.67 38.30 C 154.49 34.06 149.70 31.72 145.02 31.85 C 111.68 31.79 78.33 31.77 44.98 31.81 C 38.20 31.39 31.77 37.06 31.86 43.95 C 31.74 77.64 31.84 111.33 31.85 145.02 C 31.70 149.74 34.28 154.46 38.59 156.53 C 42.31 158.64 46.73 157.42 50.71 158.34 C 54.85 159.88 55.32 166.27 51.39 168.34 C 37.51 172.75 20.99 161.90 20.75 146.99 C 20.59 112.67 20.71 78.34 20.70 44.01 C 20.56 33.61 28.25 23.84 38.34 21.42 Z" />
<path fill="#3d9fd8" opacity="1.00" d=" M 162.39 61.46 C 165.86 60.38 169.52 63.35 169.27 66.95 C 169.28 73.63 169.55 80.35 169.14 87.02 C 168.27 92.33 160.08 92.70 158.80 87.46 C 158.23 80.99 158.74 74.46 158.56 67.96 C 158.36 65.31 159.50 62.08 162.39 61.46 Z" />
<path fill="#3d9fd8" opacity="1.00" d=" M 78.40 69.98 C 78.14 68.47 79.28 66.88 80.92 67.05 C 90.30 66.95 99.69 66.98 109.07 67.03 C 113.50 67.05 111.35 72.84 111.67 75.66 C 104.23 76.65 96.70 75.92 89.22 76.11 C 89.26 79.78 89.25 83.46 89.16 87.13 C 97.09 82.79 112.39 83.62 113.36 95.02 C 113.33 101.94 115.13 109.91 111.06 116.02 C 104.98 121.89 95.40 120.14 87.74 119.61 C 80.61 119.10 77.34 111.40 78.56 105.09 C 81.23 102.96 85.02 104.39 88.17 103.91 C 88.07 111.23 97.45 113.41 102.07 109.05 C 103.12 104.90 103.13 100.11 102.04 95.98 C 95.23 89.70 85.35 100.43 78.54 94.58 C 78.14 86.40 78.47 78.18 78.40 69.98 Z" />
<path fill="#3d9fd8" opacity="1.00" d=" M 162.31 100.34 C 165.89 99.18 169.65 102.22 169.29 105.95 C 169.29 112.64 169.57 119.36 169.16 126.03 C 168.20 131.23 160.18 131.55 158.79 126.46 C 158.17 120.00 158.74 113.46 158.54 106.96 C 158.25 104.26 159.44 101.06 162.31 100.34 Z" />
<path fill="#3d9fd8" opacity="1.00" d=" M 158.80 142.70 C 160.21 137.87 168.04 138.13 169.09 143.07 C 169.65 148.36 169.33 153.72 169.30 159.03 C 169.22 164.83 163.74 169.68 158.01 169.40 C 153.02 169.34 148.01 169.69 143.04 169.18 C 138.03 168.11 137.74 160.18 142.71 158.83 C 147.85 158.03 153.10 158.85 158.27 158.28 C 158.83 153.10 158.03 147.85 158.80 142.70 Z" />
<path fill="#3d9fd8" opacity="1.00" d=" M 65.41 158.65 C 72.20 158.33 79.03 158.49 85.84 158.57 C 89.69 158.45 92.51 163.18 90.49 166.50 C 89.16 169.31 85.72 169.57 82.99 169.44 C 76.99 169.23 70.97 169.73 64.99 169.19 C 59.52 168.19 59.80 159.12 65.41 158.65 Z" />
<path fill="#3d9fd8" opacity="1.00" d=" M 104.43 158.70 C 111.46 158.46 118.54 158.42 125.58 158.69 C 131.09 159.21 131.44 168.13 126.03 169.18 C 118.71 169.54 111.31 169.55 103.99 169.16 C 98.58 168.17 98.89 159.16 104.43 158.70 Z" />
</g>
</svg>
