<?xml version="1.0" encoding="UTF-8" ?>
<!DOCTYPE svg PUBLIC "-//W3C//DTD SVG 1.1//EN" "http://www.w3.org/Graphics/SVG/1.1/DTD/svg11.dtd">
<svg width="192pt" height="192pt" viewBox="0 0 192 192" version="1.1" xmlns="http://www.w3.org/2000/svg">
<g id="#38a3deff">
<path fill="#38a3de" opacity="1.00" d=" M 38.34 21.43 C 41.49 20.63 44.77 20.64 48.00 20.64 C 80.99 20.74 113.98 20.53 146.97 20.73 C 161.68 20.84 172.82 36.78 168.73 50.68 C 167.21 53.90 162.41 54.62 159.95 52.08 C 157.42 49.74 158.49 45.98 158.01 42.94 C 157.74 36.41 151.36 31.47 145.01 31.84 C 111.67 31.78 78.33 31.77 44.99 31.80 C 38.19 31.39 31.77 37.05 31.86 43.96 C 31.73 77.64 31.83 111.33 31.84 145.02 C 31.50 151.34 36.59 157.39 42.96 157.78 C 46.09 158.34 49.95 157.05 52.46 159.53 C 55.09 161.92 54.50 166.65 51.38 168.34 C 37.49 172.73 21.00 161.89 20.75 146.98 C 20.59 112.66 20.71 78.34 20.71 44.02 C 20.56 33.62 28.24 23.84 38.34 21.43 Z" />
<path fill="#38a3de" opacity="1.00" d=" M 162.40 61.47 C 165.86 60.39 169.46 63.37 169.25 66.95 C 169.29 73.63 169.55 80.34 169.11 87.00 C 168.26 92.30 160.12 92.66 158.81 87.46 C 158.24 80.99 158.74 74.45 158.57 67.96 C 158.38 65.31 159.51 62.09 162.40 61.47 Z" />
<path fill="#38a3de" opacity="1.00" d=" M 96.33 67.15 C 102.96 65.38 110.17 65.50 116.86 66.91 C 123.05 68.13 125.42 75.37 124.23 80.90 C 122.17 83.11 118.68 81.96 115.99 82.07 C 112.41 81.79 114.43 75.77 110.71 75.40 C 107.44 75.09 102.46 74.00 100.64 77.62 C 99.87 81.31 100.36 85.12 100.13 88.86 C 105.87 86.04 112.78 86.46 118.81 88.05 C 125.05 90.03 125.78 97.45 125.56 103.00 C 125.79 108.81 125.40 116.88 118.70 118.91 C 111.73 120.76 104.16 120.62 97.13 119.20 C 92.39 118.24 89.58 113.59 89.49 109.00 C 89.18 98.98 89.40 88.95 89.39 78.93 C 89.25 74.13 91.24 68.55 96.33 67.15 M 103.26 96.37 C 98.85 97.69 100.42 103.46 100.31 106.91 C 100.65 112.21 107.32 111.03 110.97 110.84 C 115.98 110.03 114.44 103.73 114.48 100.14 C 114.08 94.68 107.00 96.06 103.26 96.37 Z" />
<path fill="#38a3de" opacity="1.00" d=" M 53.69 72.04 C 60.08 69.09 68.35 64.71 75.14 68.16 C 75.92 82.04 75.30 96.01 75.46 109.93 C 78.36 109.99 81.28 110.00 84.19 109.90 C 85.66 112.82 85.66 116.29 84.22 119.23 C 74.21 118.85 64.16 119.48 54.17 118.93 C 51.82 117.21 52.98 113.67 53.07 111.18 C 56.00 108.64 60.72 110.56 64.36 110.00 C 64.36 99.37 64.39 88.74 64.36 78.12 C 59.74 78.39 51.31 79.41 53.69 72.04 Z" />
<path fill="#38a3de" opacity="1.00" d=" M 162.32 100.36 C 165.46 99.39 169.09 101.58 169.20 104.97 C 169.38 111.98 169.53 119.03 169.14 126.03 C 168.19 131.22 160.19 131.52 158.81 126.45 C 158.18 119.99 158.74 113.45 158.55 106.96 C 158.29 104.28 159.45 101.06 162.32 100.36 Z" />
<path fill="#38a3de" opacity="1.00" d=" M 158.82 142.71 C 160.19 137.88 168.05 138.13 169.07 143.07 C 169.66 148.36 169.33 153.72 169.29 159.03 C 169.20 164.83 163.73 169.67 158.00 169.39 C 153.02 169.34 148.01 169.69 143.05 169.16 C 138.03 168.13 137.76 160.16 142.73 158.84 C 147.86 158.03 153.11 158.85 158.28 158.28 C 158.84 153.11 158.03 147.85 158.82 142.71 Z" />
<path fill="#38a3de" opacity="1.00" d=" M 65.41 158.66 C 72.45 158.39 79.54 158.39 86.59 158.67 C 92.22 159.19 92.60 168.16 87.03 169.18 C 79.71 169.56 72.31 169.58 64.99 169.17 C 59.53 168.19 59.81 159.12 65.41 158.66 Z" />
<path fill="#38a3de" opacity="1.00" d=" M 104.44 158.72 C 111.47 158.46 118.54 158.42 125.57 158.70 C 131.07 159.22 131.42 168.12 126.03 169.16 C 118.71 169.54 111.31 169.56 104.00 169.13 C 98.59 168.16 98.92 159.16 104.44 158.72 Z" />
</g>
</svg>
