<?xml version="1.0" encoding="UTF-8" ?>
<!DOCTYPE svg PUBLIC "-//W3C//DTD SVG 1.1//EN" "http://www.w3.org/Graphics/SVG/1.1/DTD/svg11.dtd">
<svg width="192pt" height="192pt" viewBox="0 0 192 192" version="1.1" xmlns="http://www.w3.org/2000/svg">
<g id="#27bed2ff">
<path fill="#27bed2" opacity="1.00" d=" M 35.33 17.43 C 49.11 15.76 63.13 17.10 77.00 16.67 C 91.92 16.91 107.28 15.37 121.67 20.28 C 152.28 29.63 174.96 59.90 174.88 91.99 C 176.17 113.81 168.02 136.02 152.36 151.37 C 138.36 165.35 118.80 173.57 98.99 173.56 C 79.34 173.56 59.69 173.63 40.04 173.51 C 28.28 173.34 18.04 162.79 18.05 151.06 C 17.98 114.03 18.05 77.00 18.06 39.98 C 17.76 29.65 25.30 19.82 35.33 17.43 M 37.37 28.55 C 32.55 30.00 29.12 34.92 29.32 39.94 C 29.31 76.64 29.33 113.36 29.32 150.06 C 28.93 156.47 34.52 162.47 41.00 162.22 C 60.99 162.22 80.98 162.28 100.96 162.15 C 127.57 161.57 152.33 142.66 160.34 117.36 C 166.97 95.95 164.01 70.93 149.80 53.14 C 137.23 36.85 116.63 27.01 96.00 28.11 C 76.47 28.71 56.81 27.05 37.37 28.55 Z" />
<path fill="#27bed2" opacity="1.00" d=" M 65.38 57.57 C 74.37 55.43 83.82 57.10 93.00 56.55 C 106.15 55.87 119.37 62.32 126.70 73.29 C 134.62 84.88 135.40 100.75 129.27 113.29 C 123.15 125.72 109.87 134.21 95.99 134.38 C 87.33 134.39 78.66 134.47 70.01 134.35 C 62.11 134.13 55.32 126.94 55.47 119.06 C 55.42 103.35 55.43 87.64 55.46 71.93 C 55.39 65.70 59.50 59.68 65.38 57.57 M 68.41 68.50 C 66.56 69.65 66.55 72.08 66.57 74.00 C 66.65 89.01 66.51 104.03 66.64 119.04 C 66.54 121.83 69.41 123.59 71.97 123.22 C 80.99 123.03 90.04 123.57 99.05 122.91 C 113.21 121.24 123.82 106.97 122.03 92.94 C 121.48 78.72 108.14 66.90 94.00 67.69 C 85.51 68.22 76.67 66.69 68.41 68.50 Z" />
</g>
</svg>
