<?xml version="1.0" encoding="UTF-8" ?>
<!DOCTYPE svg PUBLIC "-//W3C//DTD SVG 1.1//EN" "http://www.w3.org/Graphics/SVG/1.1/DTD/svg11.dtd">
<svg width="192pt" height="192pt" viewBox="0 0 192 192" version="1.1" xmlns="http://www.w3.org/2000/svg">
<g id="#617080ff">
<path fill="#617080" opacity="1.00" d=" M 97.41 14.49 C 101.22 12.03 106.43 15.55 106.00 19.95 C 106.07 27.25 106.53 34.62 105.70 41.89 C 104.73 47.25 96.02 47.21 94.88 41.94 C 94.24 35.99 94.83 29.98 94.60 24.00 C 94.66 20.73 94.00 16.38 97.41 14.49 Z" />
<path fill="#617080" opacity="1.00" d=" M 53.23 28.31 C 56.44 26.84 59.65 29.05 61.23 31.79 C 65.11 37.61 69.87 42.88 73.22 49.01 C 75.07 54.35 67.22 58.85 63.67 54.37 C 59.27 48.73 55.15 42.84 51.01 37.00 C 48.72 34.21 49.88 29.64 53.23 28.31 Z" />
<path fill="#617080" opacity="1.00" d=" M 97.36 55.41 C 112.17 53.58 127.55 60.78 135.81 73.17 C 143.77 84.70 145.10 100.40 139.28 113.12 C 133.72 125.65 121.49 134.94 107.91 136.86 C 93.34 139.23 77.90 132.68 69.19 120.82 C 59.97 108.84 58.40 91.64 65.18 78.15 C 71.17 65.79 83.67 56.86 97.36 55.41 M 72.31 95.98 C 71.82 109.94 82.61 122.88 96.23 125.52 C 96.29 106.00 96.33 86.47 96.22 66.94 C 82.77 69.56 72.09 82.19 72.31 95.98 M 107.60 66.92 C 107.53 86.45 107.55 105.98 107.60 125.50 C 121.23 122.89 132.02 109.97 131.58 96.00 C 131.80 82.18 121.06 69.55 107.60 66.92 Z" />
<path fill="#617080" opacity="1.00" d=" M 25.22 66.19 C 33.25 65.61 40.88 70.51 48.68 72.36 C 55.17 73.62 53.67 84.40 47.01 83.52 C 39.69 81.65 32.51 79.08 25.37 76.61 C 20.79 75.12 20.74 67.85 25.22 66.19 Z" />
<path fill="#617080" opacity="1.00" d=" M 46.36 106.45 C 52.07 105.45 55.08 114.32 49.81 116.90 C 42.96 119.57 35.86 121.63 28.86 123.90 C 24.64 125.69 20.08 120.86 21.67 116.71 C 22.77 113.29 26.71 112.69 29.64 111.65 C 35.26 110.04 40.67 107.77 46.36 106.45 Z" />
<path fill="#617080" opacity="1.00" d=" M 65.39 134.41 C 70.15 133.11 74.40 139.38 71.19 143.25 C 66.67 149.38 62.64 155.97 57.49 161.57 C 52.35 165.64 45.54 157.64 50.11 153.03 C 55.33 147.03 58.54 138.56 65.39 134.41 Z" />
<path fill="#617080" opacity="1.00" d=" M 97.38 145.45 C 100.84 144.39 104.75 147.36 104.52 151.00 C 104.50 158.52 104.87 166.08 104.32 173.57 C 103.14 178.82 94.80 178.84 93.50 173.64 C 92.82 166.45 93.38 159.17 93.21 151.95 C 92.92 149.13 94.51 146.14 97.38 145.45 Z" />
</g>
</svg>
