<?xml version="1.0" encoding="UTF-8" ?>
<!DOCTYPE svg PUBLIC "-//W3C//DTD SVG 1.1//EN" "http://www.w3.org/Graphics/SVG/1.1/DTD/svg11.dtd">
<svg width="192pt" height="192pt" viewBox="0 0 192 192" version="1.1" xmlns="http://www.w3.org/2000/svg">
<g id="#1ab2ffff">
<path fill="#1ab2ff" opacity="1.00" d=" M 88.35 13.41 C 106.70 11.74 125.98 16.23 141.02 27.02 C 145.23 30.92 139.81 35.53 136.22 37.20 C 122.37 44.27 106.33 45.65 91.01 45.63 C 78.08 45.49 64.46 44.58 52.94 38.15 C 49.67 36.29 45.42 31.61 49.14 28.13 C 60.21 19.26 74.41 14.99 88.35 13.41 Z" />
<path fill="#1ab2ff" opacity="1.00" d=" M 150.62 34.03 C 155.57 39.02 161.80 43.82 163.44 51.00 C 164.34 59.80 156.01 65.67 149.10 69.21 C 136.89 74.75 123.28 76.39 109.99 76.64 C 87.75 76.81 65.02 74.38 44.42 65.54 C 38.05 62.47 30.73 58.37 28.93 50.97 C 29.50 43.66 36.62 38.75 41.46 33.83 C 38.80 39.47 39.33 46.60 43.90 51.09 C 50.50 57.56 60.11 59.69 69.05 60.26 C 92.02 61.46 115.81 58.92 136.75 48.84 C 142.61 45.52 149.95 41.55 150.62 34.03 Z" />
<path fill="#1ab2ff" opacity="1.00" d=" M 169.59 59.68 C 174.05 68.33 178.63 79.48 172.58 88.50 C 167.03 96.27 157.66 100.07 148.89 102.93 C 129.18 108.56 108.41 109.01 88.09 107.63 C 68.32 106.49 48.22 102.91 30.58 93.53 C 24.87 90.21 18.85 86.04 16.28 79.72 C 15.64 73.63 18.74 67.81 20.97 62.29 C 20.68 74.67 32.19 82.35 42.32 86.67 C 65.27 95.70 90.89 94.67 114.65 89.65 C 130.80 86.05 147.54 82.07 161.08 72.08 C 165.31 69.12 168.46 64.75 169.59 59.68 Z" />
<path fill="#1ab2ff" opacity="1.00" d=" M 165.04 104.11 C 170.13 101.16 174.00 96.68 177.46 92.00 C 178.57 103.32 176.88 116.80 167.34 124.35 C 158.12 131.89 146.53 135.85 134.98 138.13 C 112.77 142.23 89.83 142.43 67.60 138.47 C 50.41 135.18 33.32 128.67 20.16 116.84 C 14.44 111.37 14.11 102.89 14.08 95.49 C 18.70 105.78 27.27 113.79 37.35 118.64 C 53.95 126.67 72.93 128.25 91.09 126.76 C 116.92 124.45 142.75 117.65 165.04 104.11 Z" />
<path fill="#1ab2ff" opacity="1.00" d=" M 146.74 142.81 C 155.88 139.23 164.07 133.57 170.89 126.55 C 166.54 140.00 155.45 150.44 142.46 155.56 C 115.95 166.23 85.91 165.18 58.80 157.34 C 45.32 153.09 31.42 146.05 24.34 133.20 C 38.05 145.90 56.78 151.39 75.02 153.07 C 99.29 155.32 124.09 151.78 146.74 142.81 Z" />
<path fill="#1ab2ff" opacity="1.00" d=" M 87.23 169.32 C 107.42 170.90 127.62 166.42 146.16 158.59 C 119.24 181.40 76.94 182.00 48.69 161.20 C 61.22 165.17 74.05 168.57 87.23 169.32 Z" />
</g>
</svg>
