<?xml version="1.0" encoding="UTF-8" ?>
<!DOCTYPE svg PUBLIC "-//W3C//DTD SVG 1.1//EN" "http://www.w3.org/Graphics/SVG/1.1/DTD/svg11.dtd">
<svg width="192pt" height="192pt" viewBox="0 0 192 192" version="1.1" xmlns="http://www.w3.org/2000/svg">
<g id="#ff3662ff">
<path fill="#ff3662" opacity="1.00" d=" M 41.43 18.63 C 75.94 17.95 110.50 18.54 145.03 18.32 C 153.78 17.83 162.64 22.35 166.98 30.03 C 171.39 37.23 170.10 46.01 170.11 54.04 C 170.09 59.36 162.04 61.04 159.75 56.31 C 158.13 51.38 159.52 46.01 158.95 40.92 C 158.73 34.77 153.09 29.47 146.96 29.53 C 112.96 29.49 78.95 29.51 44.94 29.51 C 39.32 29.36 33.97 33.53 32.82 39.04 C 31.89 44.41 33.06 49.93 32.19 55.30 C 30.86 60.26 23.01 60.31 21.65 55.35 C 20.99 50.59 21.43 45.74 21.40 40.94 C 21.58 29.96 30.56 20.02 41.43 18.63 Z" />
<path fill="#ff3662" opacity="1.00" d=" M 75.26 62.32 C 82.58 59.06 87.11 71.17 79.77 73.81 C 72.47 77.20 67.67 64.81 75.26 62.32 Z" />
<path fill="#ff3662" opacity="1.00" d=" M 49.61 64.37 C 52.45 62.71 56.53 63.88 59.84 63.89 C 59.93 81.79 60.30 99.76 59.64 117.64 C 56.11 116.99 49.72 119.91 48.90 114.81 C 43.81 117.87 37.41 120.31 31.69 117.32 C 17.58 110.75 16.66 87.87 30.14 80.12 C 36.22 76.09 44.11 78.01 49.40 82.42 C 49.55 76.41 49.10 70.36 49.61 64.37 M 37.29 87.31 C 28.80 91.22 28.95 105.78 37.61 109.39 C 42.43 111.30 47.52 107.34 48.68 102.70 C 51.87 95.54 45.97 84.07 37.29 87.31 Z" />
<path fill="#ff3662" opacity="1.00" d=" M 133.71 63.73 C 137.11 63.55 140.52 63.54 143.92 63.80 C 144.18 69.96 144.03 76.12 144.05 82.28 C 151.88 74.80 166.83 77.43 169.37 88.63 C 170.42 98.23 170.26 108.00 169.93 117.65 C 166.59 117.71 163.25 117.72 159.91 117.69 C 158.95 109.17 160.40 100.48 159.01 91.99 C 157.64 85.10 146.48 85.07 144.58 91.58 C 142.98 100.09 145.22 109.18 143.44 117.52 C 140.30 117.56 136.28 118.58 133.68 116.89 C 133.44 99.19 133.40 81.44 133.71 63.73 Z" />
<path fill="#ff3662" opacity="1.00" d=" M 100.15 81.15 C 108.09 75.68 119.53 77.42 126.89 83.15 C 125.84 85.77 124.57 88.29 123.13 90.72 C 118.17 87.59 109.02 83.74 105.18 90.05 C 110.38 94.54 118.29 93.13 123.85 97.17 C 130.19 101.14 129.80 111.68 123.46 115.47 C 114.78 120.92 102.46 119.35 94.69 112.95 C 95.26 110.28 97.56 103.78 101.20 106.83 C 105.43 109.31 110.57 110.49 115.40 109.42 C 117.49 109.11 119.02 106.29 117.21 104.80 C 111.53 102.05 104.75 102.12 99.42 98.57 C 93.62 94.50 94.41 84.94 100.15 81.15 Z" />
<path fill="#ff3662" opacity="1.00" d=" M 70.37 81.03 C 75.00 82.99 80.09 82.97 84.72 81.02 C 83.85 89.19 71.25 89.19 70.37 81.03 Z" />
<path fill="#ff3662" opacity="1.00" d=" M 67.41 93.01 C 73.71 96.02 80.99 96.29 87.41 93.44 C 86.69 99.67 79.37 104.04 73.65 101.23 C 70.21 99.84 68.16 96.52 67.41 93.01 Z" />
<path fill="#ff3662" opacity="1.00" d=" M 65.23 107.42 C 73.03 111.56 82.40 111.34 90.17 107.27 C 89.60 113.71 83.50 119.16 76.99 118.69 C 71.06 118.48 65.41 113.50 65.23 107.42 Z" />
<path fill="#ff3662" opacity="1.00" d=" M 24.32 127.25 C 27.52 125.39 32.08 127.71 32.37 131.41 C 32.82 136.26 32.09 141.16 32.73 146.01 C 33.70 151.68 39.17 156.12 44.92 155.99 C 78.63 156.01 112.34 156.00 146.06 156.00 C 151.47 156.27 156.83 152.68 158.44 147.47 C 159.99 141.63 157.87 135.35 159.69 129.60 C 161.74 125.02 169.38 126.06 170.03 131.04 C 170.35 136.35 170.37 141.71 169.93 147.02 C 168.58 158.17 158.22 167.20 147.00 167.15 C 113.00 167.25 79.00 167.22 45.00 167.17 C 35.95 167.25 27.16 161.70 23.48 153.42 C 20.51 147.36 21.50 140.45 21.32 133.94 C 21.14 131.40 21.81 128.45 24.32 127.25 Z" />
</g>
</svg>
