<?xml version="1.0" encoding="UTF-8" ?>
<!DOCTYPE svg PUBLIC "-//W3C//DTD SVG 1.1//EN" "http://www.w3.org/Graphics/SVG/1.1/DTD/svg11.dtd">
<svg width="192pt" height="192pt" viewBox="0 0 192 192" version="1.1" xmlns="http://www.w3.org/2000/svg">
<g id="#4a9dc5ff">
<path fill="#4a9dc5" opacity="1.00" d=" M 41.44 21.60 C 75.94 20.93 110.49 21.49 145.01 21.27 C 153.75 20.89 162.55 25.54 166.76 33.28 C 170.45 39.48 170.06 46.98 169.71 53.92 C 169.23 59.02 161.41 60.37 159.28 55.69 C 157.51 50.53 159.92 44.64 157.39 39.62 C 155.42 35.28 150.75 32.44 145.99 32.59 C 112.33 32.58 78.67 32.57 45.02 32.57 C 38.34 32.31 32.32 38.34 32.59 45.01 C 32.60 79.00 32.56 113.00 32.64 146.99 C 32.54 153.49 38.49 159.12 44.93 158.97 C 60.29 159.09 75.67 158.87 91.02 159.07 C 97.22 159.53 97.24 169.66 91.04 170.15 C 75.37 170.41 59.68 170.29 44.01 170.20 C 31.90 170.06 21.28 159.16 21.41 147.06 C 21.39 113.03 21.41 78.99 21.42 44.95 C 21.13 33.63 30.20 23.05 41.44 21.60 Z" />
<path fill="#4a9dc5" opacity="1.00" d=" M 64.01 48.05 C 70.55 48.15 77.10 48.07 83.64 48.08 C 82.38 50.93 81.40 54.22 79.02 56.32 C 72.56 56.46 66.09 56.50 59.63 56.27 C 60.85 53.41 62.22 50.61 64.01 48.05 Z" />
<path fill="#4a9dc5" opacity="1.00" d=" M 84.45 55.58 C 88.01 47.78 100.93 45.01 106.33 52.07 C 105.09 56.24 99.62 50.95 96.98 54.02 C 89.97 61.17 96.93 73.48 89.73 80.74 C 84.08 85.88 75.67 83.88 68.79 83.26 C 69.35 82.29 69.91 81.31 70.47 80.34 C 74.57 80.12 80.52 80.93 82.02 75.90 C 83.14 69.20 81.27 61.92 84.45 55.58 Z" />
<path fill="#4a9dc5" opacity="1.00" d=" M 56.21 61.89 C 62.79 61.02 69.55 61.81 76.20 61.65 C 74.14 64.93 73.24 71.07 68.03 69.82 C 64.00 68.69 61.22 71.27 60.06 74.87 C 62.88 74.94 65.70 75.01 68.52 75.03 C 67.29 77.91 65.86 80.71 64.14 83.34 C 58.17 82.97 51.93 84.08 46.13 82.76 C 45.94 82.31 45.57 81.42 45.38 80.97 C 48.55 74.40 52.36 68.09 56.21 61.89 Z" />
<path fill="#4a9dc5" opacity="1.00" d=" M 161.43 70.50 C 165.26 67.53 170.96 71.37 170.26 75.99 C 170.24 105.67 170.41 135.36 170.16 165.03 C 170.07 171.63 159.15 171.73 159.16 165.07 C 158.95 135.71 159.15 106.34 159.05 76.98 C 158.95 74.62 159.21 71.87 161.43 70.50 Z" />
<path fill="#4a9dc5" opacity="1.00" d=" M 137.38 88.41 C 140.65 87.61 144.35 90.47 143.80 93.95 C 143.46 117.65 144.54 141.34 144.01 165.03 C 144.04 171.12 134.15 171.90 133.26 165.92 C 132.96 141.93 133.31 117.92 133.23 93.92 C 132.92 91.36 134.94 88.94 137.38 88.41 Z" />
<path fill="#4a9dc5" opacity="1.00" d=" M 110.36 107.41 C 114.16 105.95 118.49 108.75 118.13 112.95 C 118.23 130.30 118.32 147.68 118.13 165.03 C 118.09 171.14 108.19 171.98 107.24 165.93 C 106.80 148.63 107.35 131.28 107.18 113.96 C 106.91 111.39 107.76 108.46 110.36 107.41 Z" />
</g>
</svg>
