<?xml version="1.0" encoding="UTF-8" ?>
<!DOCTYPE svg PUBLIC "-//W3C//DTD SVG 1.1//EN" "http://www.w3.org/Graphics/SVG/1.1/DTD/svg11.dtd">
<svg width="192pt" height="192pt" viewBox="0 0 192 192" version="1.1" xmlns="http://www.w3.org/2000/svg">
<g id="#98654dff">
<path fill="#98654d" opacity="1.00" d=" M 75.42 46.51 C 79.79 45.38 82.18 50.32 81.47 54.01 C 79.97 73.89 78.36 93.79 76.45 113.63 C 76.13 119.94 65.55 119.23 66.23 112.97 C 68.54 93.03 70.82 73.03 71.09 52.94 C 70.81 50.09 72.42 47.01 75.42 46.51 Z" />
<path fill="#98654d" opacity="1.00" d=" M 164.31 77.31 C 169.17 76.09 171.48 81.50 172.93 85.11 C 175.83 93.08 178.39 103.14 172.36 110.36 C 165.70 117.86 156.57 123.26 146.89 125.79 C 141.24 126.91 138.58 117.91 143.91 115.82 C 152.22 113.17 161.06 109.68 166.34 102.37 C 168.03 95.83 162.92 90.11 160.59 84.38 C 159.25 81.47 161.33 78.03 164.31 77.31 Z" />
<path fill="#98654d" opacity="1.00" d=" M 53.31 78.24 C 55.97 76.82 59.64 78.18 61.50 80.37 C 63.37 85.30 61.77 90.72 60.50 95.62 C 54.22 114.27 40.48 129.51 24.68 140.78 C 19.42 144.62 12.10 136.62 17.08 132.06 C 30.02 120.45 43.86 107.88 48.45 90.42 C 49.90 86.36 49.27 80.86 53.31 78.24 Z" />
<path fill="#98654d" opacity="1.00" d=" M 134.74 79.77 C 139.13 76.82 143.91 82.80 141.91 87.09 C 141.19 100.93 130.45 114.44 116.03 115.12 C 111.81 116.17 105.70 113.43 103.13 118.05 C 96.07 128.79 86.26 137.47 76.13 145.22 C 71.23 149.05 66.60 140.19 70.73 136.79 C 78.56 129.60 87.02 122.85 92.96 113.89 C 83.48 109.37 86.61 96.77 92.33 90.42 C 96.17 84.84 103.14 77.46 110.45 81.60 C 117.23 87.29 113.25 97.28 110.76 104.23 C 117.43 105.52 125.47 103.06 128.54 96.57 C 131.48 91.30 130.16 84.15 134.74 79.77 M 95.54 102.00 C 94.75 105.18 99.72 107.45 101.11 104.17 C 103.13 100.20 105.92 95.40 104.14 90.91 C 100.44 93.77 96.46 97.16 95.54 102.00 Z" />
<path fill="#98654d" opacity="1.00" d=" M 126.39 121.49 C 129.49 121.33 133.05 120.24 135.82 122.16 C 138.18 124.22 137.21 128.24 134.36 129.31 C 127.03 132.53 118.87 132.92 111.05 134.08 C 108.12 134.41 103.73 134.44 102.68 130.98 C 101.64 126.98 105.44 123.77 109.08 123.33 C 114.83 122.55 120.63 122.20 126.39 121.49 Z" />
</g>
</svg>
