<?xml version="1.0" encoding="UTF-8" ?>
<!DOCTYPE svg PUBLIC "-//W3C//DTD SVG 1.1//EN" "http://www.w3.org/Graphics/SVG/1.1/DTD/svg11.dtd">
<svg width="192pt" height="192pt" viewBox="0 0 192 192" version="1.1" xmlns="http://www.w3.org/2000/svg">
<g id="#a18c6aff">
<path fill="#a18c6a" opacity="1.00" d=" M 108.35 23.42 C 141.78 18.96 174.72 48.40 174.21 82.05 C 173.48 86.30 169.09 88.87 164.98 88.49 C 130.99 88.35 97.00 88.49 63.01 88.40 C 59.18 88.69 55.08 86.08 54.82 82.02 C 54.66 52.81 79.22 25.93 108.35 23.42 M 92.02 40.01 C 78.29 47.45 68.46 61.50 66.32 76.98 C 98.39 77.48 130.48 76.94 162.56 77.15 C 161.03 61.48 150.54 47.54 136.95 40.05 C 123.27 32.38 105.75 32.57 92.02 40.01 Z" />
<path fill="#a18c6a" opacity="1.00" d=" M 15.25 100.28 C 17.08 99.54 19.08 99.60 21.01 99.54 C 54.67 99.53 88.33 99.55 121.99 99.53 C 125.88 99.28 129.98 101.99 130.47 106.01 C 130.68 128.70 115.74 150.00 95.41 159.44 C 81.33 166.21 64.53 166.47 49.96 161.07 C 27.93 152.74 11.66 130.61 11.10 106.94 C 10.96 104.13 12.62 101.33 15.25 100.28 M 23.05 110.75 C 24.98 136.18 50.68 156.62 75.94 153.35 C 97.58 151.11 116.62 132.53 118.85 110.80 C 86.92 110.74 54.98 110.75 23.05 110.75 Z" />
</g>
</svg>
