<?xml version="1.0" encoding="UTF-8" ?>
<!DOCTYPE svg PUBLIC "-//W3C//DTD SVG 1.1//EN" "http://www.w3.org/Graphics/SVG/1.1/DTD/svg11.dtd">
<svg width="192pt" height="192pt" viewBox="0 0 192 192" version="1.1" xmlns="http://www.w3.org/2000/svg">
<g id="#1ab2ffff">
<path fill="#1ab2ff" opacity="1.00" d=" M 111.43 39.49 C 115.44 37.37 120.68 41.63 119.19 46.00 C 113.43 68.51 107.34 90.95 101.48 113.43 C 100.19 119.62 94.38 124.56 88.00 124.46 C 67.67 124.49 47.33 124.49 27.00 124.44 C 18.79 124.66 11.80 116.27 13.61 108.23 C 15.73 99.24 18.20 90.33 20.53 81.39 C 22.63 73.28 30.53 67.13 38.93 67.24 C 50.58 67.29 62.24 67.06 73.89 67.33 C 80.01 67.74 80.17 77.78 74.01 78.32 C 62.35 78.72 50.67 78.29 39.01 78.49 C 35.18 78.39 31.91 81.47 31.17 85.11 C 29.04 93.43 26.75 101.72 24.73 110.06 C 23.92 112.61 27.01 113.51 28.95 113.23 C 48.65 113.14 68.35 113.33 88.05 113.11 C 89.88 113.28 90.31 111.17 90.74 109.86 C 96.43 88.19 102.20 66.54 107.87 44.86 C 108.40 42.75 109.23 40.38 111.43 39.49 Z" />
<path fill="#1ab2ff" opacity="1.00" d=" M 139.36 63.36 C 143.67 62.06 147.77 66.86 146.06 70.97 C 141.12 90.99 136.20 111.03 131.17 131.03 C 128.04 143.49 115.80 152.74 102.98 152.53 C 93.65 152.40 84.29 152.88 74.99 152.28 C 69.64 150.95 69.86 142.33 75.35 141.45 C 84.88 140.91 94.47 141.54 104.02 141.16 C 111.76 140.91 118.74 134.96 120.42 127.42 C 125.36 107.67 130.21 87.89 135.13 68.13 C 135.58 65.94 137.09 63.88 139.36 63.36 Z" />
<path fill="#1ab2ff" opacity="1.00" d=" M 170.34 64.37 C 174.42 62.91 178.76 67.22 177.44 71.32 C 173.35 89.25 169.39 107.23 165.12 125.11 C 163.62 131.40 153.29 129.45 154.21 123.04 C 157.81 105.63 162.12 88.36 165.89 70.98 C 166.38 68.30 167.35 65.13 170.34 64.37 Z" />
</g>
</svg>
