<?xml version="1.0" encoding="UTF-8" ?>
<!DOCTYPE svg PUBLIC "-//W3C//DTD SVG 1.1//EN" "http://www.w3.org/Graphics/SVG/1.1/DTD/svg11.dtd">
<svg width="192pt" height="192pt" viewBox="0 0 192 192" version="1.1" xmlns="http://www.w3.org/2000/svg">
<g id="#fc7f36ff">
<path fill="#fc7f36" opacity="1.00" d=" M 38.33 21.43 C 41.16 20.74 44.10 20.72 46.99 20.72 C 80.32 20.79 113.65 20.65 146.98 20.78 C 159.25 20.80 170.09 31.72 170.10 43.98 C 170.20 78.32 170.15 112.67 170.13 147.02 C 170.38 159.43 159.52 170.74 147.06 170.70 C 112.35 170.73 77.65 170.73 42.94 170.67 C 30.61 170.60 19.82 159.35 20.15 147.04 C 20.15 112.67 20.13 78.30 20.18 43.93 C 20.15 33.44 28.13 23.70 38.33 21.43 M 40.36 32.51 C 34.98 33.95 31.06 39.38 31.37 44.95 C 31.39 78.99 31.36 113.03 31.39 147.06 C 31.17 153.75 37.28 159.74 43.95 159.47 C 77.98 159.47 112.02 159.45 146.06 159.46 C 152.79 159.82 159.00 153.83 158.80 147.07 C 158.83 113.03 158.80 78.98 158.81 44.94 C 159.28 38.01 153.00 31.63 146.06 32.11 C 110.83 32.38 75.53 31.58 40.36 32.51 Z" />
<path fill="#fc7f36" opacity="1.00" d=" M 45.41 68.02 C 51.94 67.62 58.51 67.71 65.04 67.93 C 69.78 68.04 73.54 72.34 73.38 77.01 C 73.50 89.33 73.45 101.67 73.41 113.99 C 73.68 118.58 70.44 123.27 65.62 123.51 C 58.91 123.84 52.18 123.67 45.46 123.54 C 45.33 105.04 45.45 86.53 45.41 68.02 M 55.10 77.10 C 55.13 89.52 55.10 101.94 55.11 114.35 C 58.15 114.00 64.49 116.05 64.08 111.06 C 64.08 100.69 64.22 90.31 64.03 79.95 C 63.93 75.42 58.00 77.62 55.10 77.10 Z" />
<path fill="#fc7f36" opacity="1.00" d=" M 80.36 68.01 C 83.27 67.72 86.20 67.75 89.12 67.78 C 93.35 77.84 96.40 88.37 100.52 98.48 C 100.78 88.28 100.45 78.06 100.75 67.86 C 103.87 67.75 106.99 67.75 110.11 67.88 C 110.49 86.43 110.25 105.00 110.24 123.56 C 107.19 123.74 104.13 123.75 101.09 123.49 C 97.40 113.43 94.08 103.23 90.02 93.32 C 89.61 103.41 90.10 113.51 89.78 123.60 C 86.66 123.71 83.54 123.70 80.43 123.56 C 80.21 105.05 80.37 86.53 80.36 68.01 Z" />
<path fill="#fc7f36" opacity="1.00" d=" M 117.76 73.69 C 120.72 65.49 131.21 67.96 137.93 68.06 C 146.60 69.46 145.41 79.84 145.17 86.35 C 142.00 86.48 138.82 86.46 135.65 86.30 C 135.22 83.44 136.40 79.99 134.61 77.51 C 132.28 76.77 129.81 77.20 127.43 77.41 C 126.15 81.21 126.93 85.26 126.67 89.17 C 132.53 92.04 139.60 92.54 144.97 96.16 C 145.28 103.30 145.76 110.63 144.63 117.71 C 141.81 126.09 131.14 123.45 124.40 123.44 C 115.77 122.06 116.89 111.70 117.24 105.22 C 120.38 105.03 123.53 104.97 126.67 105.30 C 126.84 108.08 126.24 111.06 127.36 113.68 C 129.58 114.70 132.58 114.75 134.82 113.76 C 136.37 110.37 135.16 106.29 135.61 102.63 C 129.73 99.83 122.78 99.25 117.34 95.68 C 117.20 88.39 116.55 80.90 117.76 73.69 Z" />
</g>
</svg>
