<?xml version="1.0" encoding="UTF-8" ?>
<!DOCTYPE svg PUBLIC "-//W3C//DTD SVG 1.1//EN" "http://www.w3.org/Graphics/SVG/1.1/DTD/svg11.dtd">
<svg width="192pt" height="192pt" viewBox="0 0 192 192" version="1.1" xmlns="http://www.w3.org/2000/svg">
<g id="#19b0ffff">
<path fill="#19b0ff" opacity="1.00" d=" M 41.43 18.60 C 75.94 18.04 110.49 18.51 145.02 18.32 C 153.75 17.87 162.57 22.40 166.91 30.05 C 171.31 37.25 170.00 46.02 170.01 54.04 C 169.94 59.68 161.20 60.94 159.35 55.70 C 158.11 50.08 159.65 44.21 158.45 38.58 C 157.05 33.13 151.59 29.24 145.99 29.53 C 112.33 29.53 78.67 29.53 45.00 29.51 C 39.42 29.22 33.96 33.15 32.56 38.58 C 31.42 44.22 32.97 50.09 31.64 55.70 C 30.04 60.40 21.99 59.92 21.24 54.91 C 20.83 49.93 21.03 44.91 21.13 39.91 C 21.70 29.17 30.80 19.80 41.43 18.60 Z" />
<path fill="#19b0ff" opacity="1.00" d=" M 24.46 68.70 C 34.54 68.18 45.91 67.16 54.55 73.48 C 66.93 82.91 66.00 104.49 52.85 112.84 C 44.67 118.28 34.34 117.61 24.98 117.16 C 21.97 116.95 20.14 113.88 20.45 111.07 C 20.48 98.72 20.40 86.36 20.49 74.00 C 20.37 71.58 22.02 69.14 24.46 68.70 M 31.63 78.82 C 31.57 88.17 31.59 97.51 31.62 106.85 C 36.06 106.95 40.78 107.08 44.79 104.83 C 53.18 100.34 53.79 86.38 45.63 81.35 C 41.49 78.68 36.37 78.69 31.63 78.82 Z" />
<path fill="#19b0ff" opacity="1.00" d=" M 77.62 72.99 C 77.24 67.94 84.31 66.11 87.17 69.79 C 94.96 78.74 101.80 88.49 109.55 97.49 C 109.74 89.32 109.44 81.15 109.68 72.98 C 109.53 69.14 114.28 66.45 117.49 68.56 C 120.55 70.20 120.14 74.07 120.19 77.00 C 119.97 89.32 120.49 101.67 119.94 113.97 C 119.31 119.00 112.15 118.92 109.74 115.27 C 102.35 106.40 95.34 97.21 88.12 88.19 C 87.83 96.77 88.33 105.38 87.85 113.94 C 86.97 119.64 77.50 118.85 77.62 113.04 C 77.50 99.69 77.51 86.33 77.62 72.99 Z" />
<path fill="#19b0ff" opacity="1.00" d=" M 148.34 68.46 C 153.64 67.23 159.93 67.13 164.49 70.51 C 167.63 72.96 166.12 78.87 162.03 79.18 C 158.68 79.06 155.19 77.50 151.90 78.76 C 149.22 79.80 149.52 83.86 151.68 85.31 C 156.14 88.74 162.06 89.84 166.15 93.84 C 171.74 98.97 171.58 108.90 165.80 113.83 C 159.12 119.61 148.56 119.34 141.31 114.77 C 137.80 112.59 137.72 106.09 142.04 104.83 C 146.80 104.24 151.04 108.82 155.87 107.23 C 158.59 106.51 159.04 102.73 156.89 101.09 C 151.31 96.25 142.26 95.27 139.20 87.74 C 135.44 80.18 140.21 70.41 148.34 68.46 Z" />
<path fill="#19b0ff" opacity="1.00" d=" M 24.42 126.53 C 27.33 125.24 31.11 126.98 31.86 130.10 C 32.74 135.57 31.57 141.17 32.51 146.64 C 33.75 152.19 39.29 156.23 44.94 156.00 C 78.65 155.99 112.36 156.02 146.07 155.98 C 151.73 156.23 157.23 152.17 158.52 146.63 C 159.61 140.93 158.09 135.01 159.41 129.35 C 161.19 124.71 168.79 125.20 169.87 130.10 C 170.34 135.40 170.16 140.76 169.95 146.08 C 169.11 157.62 158.51 167.20 146.99 167.19 C 113.00 167.31 79.01 167.24 45.02 167.22 C 36.20 167.37 27.53 162.32 23.56 154.40 C 19.98 147.83 21.13 140.12 20.98 132.95 C 20.75 130.35 21.81 127.49 24.42 126.53 Z" />
</g>
</svg>
