<?xml version="1.0" encoding="UTF-8" ?>
<!DOCTYPE svg PUBLIC "-//W3C//DTD SVG 1.1//EN" "http://www.w3.org/Graphics/SVG/1.1/DTD/svg11.dtd">
<svg width="192pt" height="192pt" viewBox="0 0 192 192" version="1.1" xmlns="http://www.w3.org/2000/svg">
<g id="#56788aff">
<path fill="#56788a" opacity="1.00" d=" M 21.10 43.93 C 20.98 31.74 31.79 20.77 44.00 20.78 C 78.67 20.71 113.33 20.71 148.00 20.77 C 160.14 20.85 170.97 31.77 170.79 43.94 C 170.71 60.92 171.02 77.92 170.64 94.89 C 169.90 100.57 160.79 100.61 159.83 94.99 C 159.29 78.02 159.86 61.00 159.56 44.01 C 159.55 37.52 153.59 31.71 147.05 32.16 C 112.68 32.19 78.31 32.13 43.94 32.19 C 37.37 32.09 31.89 38.50 32.34 44.93 C 32.36 78.98 32.32 113.02 32.37 147.07 C 32.19 153.76 38.38 159.54 44.99 159.26 C 79.00 159.28 113.01 159.28 147.02 159.24 C 153.25 159.43 159.14 154.25 159.49 147.98 C 159.82 142.22 159.57 136.45 159.53 130.69 C 125.06 130.62 90.58 130.79 56.12 130.58 C 49.58 130.42 49.56 119.62 56.15 119.51 C 92.11 119.26 128.10 119.47 164.07 119.39 C 167.38 118.97 170.96 121.43 170.76 124.98 C 170.84 132.99 170.90 141.00 170.72 149.01 C 170.04 160.95 158.89 170.93 146.98 170.57 C 112.66 170.56 78.34 170.62 44.02 170.53 C 31.68 170.52 20.86 159.36 21.08 147.05 C 21.04 112.68 21.04 78.30 21.10 43.93 Z" />
<path fill="#56788a" opacity="1.00" d=" M 71.41 51.62 C 76.02 51.07 81.83 50.06 85.61 53.41 C 88.25 57.74 86.94 63.17 87.28 67.99 C 87.36 71.90 87.29 77.84 82.24 78.49 C 76.35 80.07 65.83 79.54 66.76 71.01 C 67.64 64.81 63.74 54.39 71.41 51.62 M 73.32 56.30 C 72.05 61.10 72.50 66.12 72.64 71.02 C 72.66 75.02 78.66 74.65 80.96 72.86 C 81.59 67.40 81.75 61.76 80.63 56.35 C 78.20 56.22 75.76 56.21 73.32 56.30 Z" />
<path fill="#56788a" opacity="1.00" d=" M 91.31 54.36 C 94.30 49.78 100.98 51.18 105.63 51.49 C 110.81 52.07 111.03 58.12 110.84 62.14 C 109.01 62.19 107.18 62.20 105.35 62.20 C 105.03 60.37 104.89 58.48 104.25 56.73 C 101.73 55.94 96.29 54.98 96.30 58.95 C 96.15 63.48 95.90 68.08 96.52 72.58 C 100.10 76.16 106.79 73.45 105.30 67.89 C 107.12 67.91 108.95 67.94 110.78 67.98 C 111.11 72.06 110.78 78.17 105.49 78.60 C 100.29 79.60 91.03 80.03 90.53 72.83 C 90.47 66.71 89.51 60.28 91.31 54.36 Z" />
<path fill="#56788a" opacity="1.00" d=" M 43.80 51.65 C 49.67 51.89 56.38 50.14 61.64 53.36 C 65.06 59.14 63.32 66.56 63.29 72.99 C 61.43 81.62 50.08 77.78 43.78 78.36 C 43.59 69.46 43.58 60.55 43.80 51.65 M 49.54 56.46 C 49.52 62.16 49.52 67.86 49.54 73.57 C 52.07 73.57 54.60 73.49 57.13 73.28 C 58.08 68.16 58.16 62.81 57.30 57.68 C 55.32 55.60 52.08 56.80 49.54 56.46 Z" />
<path fill="#56788a" opacity="1.00" d=" M 43.67 89.00 C 42.45 80.94 58.67 81.59 56.50 89.85 C 55.61 89.86 53.82 89.89 52.93 89.90 C 52.53 88.96 52.13 88.03 51.73 87.10 C 50.36 87.13 49.00 87.17 47.64 87.21 C 46.59 93.47 57.46 89.72 56.76 96.14 C 59.33 104.98 41.84 105.12 43.93 96.33 C 45.13 96.26 46.32 96.19 47.52 96.12 C 47.73 96.89 48.15 98.42 48.36 99.18 C 49.82 99.14 51.28 99.08 52.73 99.01 C 52.69 97.87 52.64 96.74 52.59 95.60 C 49.11 94.37 42.87 94.26 43.67 89.00 Z" />
<path fill="#56788a" opacity="1.00" d=" M 59.52 85.52 C 63.99 81.28 74.88 83.18 72.88 91.16 C 71.62 91.15 70.37 91.14 69.11 91.12 C 68.78 89.79 68.46 88.47 68.12 87.14 C 66.45 87.17 64.78 87.20 63.11 87.23 C 62.61 91.07 62.63 94.96 63.02 98.81 C 64.73 98.90 66.44 98.98 68.16 99.05 C 68.50 97.68 68.84 96.30 69.17 94.93 C 70.39 94.98 71.60 95.04 72.82 95.10 C 74.96 103.13 63.90 104.81 59.49 100.58 C 58.23 95.77 58.25 90.32 59.52 85.52 Z" />
<path fill="#56788a" opacity="1.00" d=" M 78.81 83.81 C 80.42 83.89 82.04 83.97 83.66 84.06 C 85.49 90.12 87.43 96.16 89.06 102.28 C 87.77 102.28 86.49 102.28 85.20 102.27 C 84.72 101.22 84.24 100.17 83.76 99.13 C 82.01 99.14 80.27 99.15 78.52 99.14 C 78.10 100.23 77.67 101.32 77.25 102.41 C 75.90 102.33 74.55 102.24 73.20 102.16 C 74.98 96.02 76.76 89.87 78.81 83.81 M 79.32 95.64 C 80.59 95.64 81.86 95.64 83.13 95.64 C 82.49 93.38 81.84 91.12 81.20 88.86 C 80.57 91.12 79.94 93.38 79.32 95.64 Z" />
<path fill="#56788a" opacity="1.00" d=" M 90.52 84.11 C 91.69 83.98 92.87 83.87 94.05 83.76 C 96.10 87.33 97.92 91.03 99.80 94.69 C 99.82 91.09 99.84 87.50 99.94 83.91 C 101.21 83.91 102.48 83.91 103.75 83.91 C 103.88 90.03 103.86 96.15 103.80 102.26 C 102.57 102.28 101.35 102.28 100.13 102.29 C 98.38 98.85 96.61 95.43 94.69 92.09 C 94.66 95.62 94.69 99.15 94.30 102.66 C 93.01 102.55 91.78 102.26 90.61 101.78 C 90.33 95.89 90.63 90.00 90.52 84.11 Z" />
<path fill="#56788a" opacity="1.00" d=" M 106.85 83.76 C 112.81 83.07 113.06 90.88 115.92 94.52 C 115.95 90.99 115.97 87.46 116.03 83.93 C 117.34 83.92 118.66 83.92 119.97 83.92 C 120.21 90.09 120.10 96.26 120.11 102.43 C 114.07 103.29 113.92 95.53 110.87 91.99 C 110.77 95.42 110.77 98.84 110.75 102.27 C 109.44 102.26 108.12 102.26 106.81 102.25 C 106.75 96.09 106.71 89.92 106.85 83.76 Z" />
<path fill="#56788a" opacity="1.00" d=" M 123.00 83.94 C 126.77 83.82 130.54 83.82 134.32 83.89 C 134.34 84.74 134.38 86.43 134.40 87.27 C 131.97 87.28 129.54 87.29 127.12 87.28 C 127.13 88.58 127.14 89.89 127.15 91.20 C 129.19 91.22 131.23 91.25 133.26 91.28 C 133.30 92.44 133.34 93.61 133.36 94.77 C 131.31 94.79 129.26 94.82 127.21 94.83 C 127.17 96.14 127.13 97.46 127.08 98.78 C 129.53 98.81 131.98 98.85 134.44 98.90 C 134.46 99.75 134.51 101.45 134.53 102.30 C 130.67 102.42 126.81 102.42 122.96 102.20 C 122.94 96.11 122.91 90.03 123.00 83.94 Z" />
<path fill="#56788a" opacity="1.00" d=" M 136.64 83.89 C 140.58 84.24 145.32 82.70 148.68 85.32 C 150.50 88.89 150.50 94.00 147.26 96.80 C 148.06 98.60 148.86 100.41 149.64 102.22 C 148.68 102.27 146.74 102.37 145.78 102.42 C 144.94 100.76 144.12 99.09 143.33 97.40 C 142.69 97.30 141.39 97.09 140.75 96.99 C 140.63 98.81 140.52 100.63 140.39 102.45 C 139.44 102.40 137.55 102.28 136.61 102.22 C 136.56 96.11 136.52 90.00 136.64 83.89 M 140.64 87.17 C 140.62 89.17 140.60 91.17 140.57 93.17 C 142.29 93.12 144.00 93.02 145.72 92.85 C 146.50 89.03 144.72 86.33 140.64 87.17 Z" />
</g>
</svg>
