<?xml version="1.0" encoding="UTF-8" ?>
<!DOCTYPE svg PUBLIC "-//W3C//DTD SVG 1.1//EN" "http://www.w3.org/Graphics/SVG/1.1/DTD/svg11.dtd">
<svg width="192pt" height="192pt" viewBox="0 0 192 192" version="1.1" xmlns="http://www.w3.org/2000/svg">
<g id="#ff633bff">
<path fill="#ff633b" opacity="1.00" d=" M 25.28 46.32 C 31.41 45.14 37.75 45.92 43.96 45.79 C 62.83 46.36 80.54 58.90 87.67 76.33 C 95.24 93.84 91.46 115.49 78.38 129.39 C 65.34 144.48 43.89 147.71 25.13 144.87 C 19.24 143.11 14.94 137.23 15.07 131.07 C 15.04 107.36 15.03 83.64 15.08 59.92 C 15.01 53.78 19.39 47.99 25.28 46.32 M 28.19 57.28 C 26.12 57.89 26.40 60.27 26.35 61.96 C 26.39 84.66 26.36 107.37 26.37 130.08 C 26.23 131.86 26.76 134.01 28.93 134.07 C 36.27 134.23 43.78 134.73 50.99 133.08 C 69.04 128.93 82.20 110.40 80.07 91.98 C 78.70 74.33 63.71 58.85 46.03 57.29 C 40.09 57.05 34.12 56.97 28.19 57.28 Z" />
<path fill="#ff633b" opacity="1.00" d=" M 141.38 46.47 C 148.52 45.28 155.79 45.81 163.00 45.76 C 170.44 45.75 176.99 52.52 176.80 59.94 C 176.82 83.65 176.82 107.36 176.81 131.07 C 177.10 138.23 171.12 144.90 163.99 145.43 C 158.67 145.71 153.34 145.55 148.02 145.48 C 131.61 144.95 115.91 135.53 107.54 121.43 C 98.64 106.99 97.96 87.96 105.79 72.91 C 112.70 59.21 126.24 49.09 141.38 46.47 M 144.38 57.46 C 123.41 60.08 107.76 82.23 112.33 102.88 C 115.53 121.63 134.07 135.78 152.99 134.19 C 156.93 133.34 164.75 136.60 165.51 130.86 C 165.64 107.89 165.51 84.92 165.58 61.94 C 165.66 60.11 165.41 57.18 162.94 57.20 C 156.76 57.12 150.54 56.86 144.38 57.46 Z" />
</g>
</svg>
