<?xml version="1.0" encoding="UTF-8" ?>
<!DOCTYPE svg PUBLIC "-//W3C//DTD SVG 1.1//EN" "http://www.w3.org/Graphics/SVG/1.1/DTD/svg11.dtd">
<svg width="192pt" height="192pt" viewBox="0 0 192 192" version="1.1" xmlns="http://www.w3.org/2000/svg">
<g id="#45e372ff">
<path fill="#45e372" opacity="1.00" d=" M 98.38 26.33 C 106.78 19.03 119.73 18.02 129.25 23.75 C 138.38 28.69 142.50 39.82 141.30 49.79 C 150.71 48.90 160.87 52.66 166.36 60.58 C 173.00 70.29 171.51 84.21 164.00 93.02 C 156.89 100.58 148.90 107.35 142.05 115.13 C 139.91 127.33 139.10 139.76 137.12 152.00 C 135.51 161.05 128.04 170.37 118.05 169.51 C 109.41 168.75 104.29 160.98 98.67 155.37 C 95.36 156.05 91.93 155.91 88.79 154.56 C 86.32 158.74 84.81 163.75 80.94 166.92 C 77.79 169.57 72.83 168.84 70.12 165.89 C 63.96 159.70 57.72 153.57 51.84 147.12 C 49.53 144.71 49.70 141.16 50.65 138.19 C 47.28 139.05 43.37 138.88 40.91 136.11 C 35.10 130.27 29.39 124.31 23.50 118.54 C 19.83 115.00 20.00 108.25 24.28 105.27 C 27.66 103.18 31.48 101.91 34.91 99.89 C 33.78 96.70 34.27 93.34 34.14 90.06 C 29.40 83.58 20.66 78.94 20.31 70.04 C 20.42 59.86 30.76 53.49 39.72 51.64 C 51.13 50.18 62.61 49.30 74.04 47.99 C 76.64 47.89 78.22 45.56 80.00 43.99 C 86.15 38.13 92.05 32.00 98.38 26.33 M 100.95 37.95 C 82.08 56.73 62.50 74.83 44.01 93.97 C 50.34 101.70 57.59 108.79 64.95 115.53 C 75.38 108.72 83.13 97.72 93.10 89.97 C 97.45 87.79 102.31 93.52 99.35 97.40 C 90.88 106.55 81.29 114.66 73.00 123.97 C 79.97 131.58 87.02 139.27 94.84 145.99 C 115.28 126.73 135.18 106.90 155.29 87.29 C 161.72 81.66 162.36 70.84 156.26 64.74 C 150.56 58.58 140.09 58.27 134.01 64.06 C 127.00 70.72 120.19 77.60 113.04 84.12 C 109.19 87.61 102.90 82.04 105.77 77.76 C 112.90 69.60 121.69 62.96 128.56 54.57 C 135.01 45.95 129.39 32.31 118.91 30.41 C 111.90 28.75 105.34 32.83 100.95 37.95 M 38.98 62.14 C 34.98 63.16 29.15 66.87 31.37 71.67 C 34.10 75.47 37.81 78.45 40.99 81.87 C 48.68 74.38 56.43 66.96 63.97 59.32 C 55.65 60.41 47.26 60.85 38.98 62.14 M 32.49 112.72 C 37.18 117.56 41.78 122.51 46.70 127.11 C 48.30 123.78 50.24 120.62 51.51 117.14 C 48.26 114.18 45.43 110.79 42.08 107.93 C 38.87 109.49 35.57 110.88 32.49 112.72 M 59.31 125.01 C 57.77 128.05 56.11 131.03 54.73 134.15 C 58.07 132.61 61.58 131.33 64.60 129.17 C 64.00 126.49 62.14 124.77 59.31 125.01 M 107.03 148.94 C 110.61 152.45 113.72 156.63 117.95 159.37 C 122.77 160.04 125.68 154.86 126.84 150.91 C 128.25 142.90 128.99 134.77 129.90 126.68 C 122.28 134.10 114.59 141.45 107.03 148.94 M 61.81 142.30 C 66.07 147.57 71.19 152.07 75.85 156.99 C 77.61 153.74 79.33 150.47 80.94 147.15 C 77.83 144.22 75.14 140.82 71.79 138.15 C 68.19 138.33 65.14 141.02 61.81 142.30 Z" />
</g>
</svg>
