<?xml version="1.0" encoding="UTF-8" ?>
<!DOCTYPE svg PUBLIC "-//W3C//DTD SVG 1.1//EN" "http://www.w3.org/Graphics/SVG/1.1/DTD/svg11.dtd">
<svg width="192pt" height="192pt" viewBox="0 0 192 192" version="1.1" xmlns="http://www.w3.org/2000/svg">
<g id="#ff8a1fff">
<path fill="#ff8a1f" opacity="1.00" d=" M 56.54 26.42 C 59.32 18.96 69.31 15.86 75.95 20.10 C 83.97 24.69 84.01 36.80 76.99 42.34 C 81.88 48.83 86.85 55.25 91.85 61.66 C 96.83 55.17 101.65 48.57 106.52 41.99 C 103.47 38.80 101.07 34.55 101.69 29.98 C 102.38 22.79 109.70 17.06 116.85 18.28 C 124.40 19.16 130.20 27.54 127.84 34.87 C 126.57 39.63 122.57 43.14 117.99 44.65 C 119.98 57.45 122.92 70.09 125.28 82.82 C 133.42 79.25 141.49 75.49 149.61 71.86 C 147.47 65.15 150.42 56.84 157.34 54.38 C 165.98 50.53 176.78 58.66 175.49 68.02 C 174.95 76.13 166.40 81.33 158.76 80.20 C 155.43 100.76 152.11 121.33 148.71 141.88 C 148.50 145.21 145.27 147.45 142.08 147.08 C 109.03 147.08 75.97 147.10 42.92 147.07 C 39.74 147.41 36.34 145.37 36.07 141.98 C 32.64 121.25 29.37 100.49 25.99 79.75 C 18.61 79.75 11.42 73.66 11.73 65.98 C 11.50 57.06 21.96 50.03 30.10 53.86 C 37.48 56.64 40.21 65.97 36.97 72.84 C 44.11 76.17 51.35 79.28 58.51 82.56 C 60.95 69.93 63.12 57.25 65.53 44.61 C 58.23 42.29 53.40 33.71 56.54 26.42 M 74.53 57.81 C 72.42 68.94 70.50 80.12 68.37 91.25 C 68.05 94.99 63.67 97.49 60.33 95.64 C 52.95 92.52 45.74 88.99 38.33 85.93 C 41.11 102.51 43.69 119.13 46.44 135.73 C 77.07 135.81 107.71 135.82 138.35 135.72 C 140.98 119.05 143.83 102.41 146.40 85.73 C 138.57 89.10 130.91 92.86 123.06 96.18 C 120.07 97.48 116.27 95.42 115.71 92.20 C 113.28 80.78 111.26 69.26 108.82 57.84 C 104.61 63.31 100.65 68.98 96.41 74.43 C 94.40 77.38 89.59 77.40 87.54 74.49 C 83.12 69.00 79.00 63.27 74.53 57.81 Z" />
<path fill="#ff8a1f" opacity="1.00" d=" M 45.31 160.22 C 47.08 159.40 49.10 159.64 51.00 159.56 C 80.66 159.72 110.34 159.34 139.99 159.74 C 146.11 160.29 146.02 170.27 139.92 170.72 C 109.28 170.98 78.62 170.80 47.98 170.79 C 42.24 171.29 40.06 162.52 45.31 160.22 Z" />
</g>
</svg>
