<?xml version="1.0" encoding="UTF-8" ?>
<!DOCTYPE svg PUBLIC "-//W3C//DTD SVG 1.1//EN" "http://www.w3.org/Graphics/SVG/1.1/DTD/svg11.dtd">
<svg width="192pt" height="192pt" viewBox="0 0 192 192" version="1.1" xmlns="http://www.w3.org/2000/svg">
<g id="#8773b5ff">
<path fill="#8773b5" opacity="1.00" d=" M 22.07 43.94 C 21.89 31.71 32.77 20.65 45.03 20.76 C 64.14 20.71 83.25 20.71 102.36 20.74 C 102.52 42.50 102.50 64.27 102.40 86.03 C 102.50 92.44 92.21 93.13 91.29 86.89 C 90.77 68.59 91.46 50.25 90.98 31.94 C 75.98 31.76 60.97 31.85 45.96 31.85 C 39.42 31.64 33.14 37.25 33.30 43.93 C 33.26 77.97 33.28 112.02 33.30 146.07 C 33.15 152.01 38.03 157.65 43.98 158.16 C 55.19 158.63 66.45 157.82 77.64 158.53 C 83.38 159.70 82.89 169.08 76.98 169.47 C 66.01 169.73 55.02 169.62 44.04 169.51 C 32.00 169.06 21.79 158.05 22.01 146.05 C 21.97 112.01 22.02 77.97 22.07 43.94 Z" />
<path fill="#8773b5" opacity="1.00" d=" M 112.93 22.85 C 114.55 20.59 117.53 20.70 120.01 20.73 C 129.68 20.85 139.35 20.60 149.01 20.84 C 160.80 21.37 170.98 32.12 170.78 43.94 C 170.84 77.97 170.85 112.01 170.82 146.05 C 171.18 158.38 160.28 169.51 147.97 169.52 C 129.04 169.54 110.11 169.62 91.18 169.45 C 91.29 147.63 91.09 125.79 91.30 103.97 C 91.45 98.05 100.95 97.30 102.18 103.06 C 102.85 121.49 102.03 139.99 102.60 158.43 C 117.73 158.22 132.87 158.46 148.01 158.29 C 154.34 158.19 159.80 152.37 159.66 146.07 C 159.70 112.03 159.73 77.97 159.66 43.93 C 159.76 37.27 153.56 31.70 147.04 31.80 C 137.02 31.68 127.00 31.89 116.98 31.71 C 112.63 31.95 110.08 26.02 112.93 22.85 Z" />
<path fill="#8773b5" opacity="1.00" d=" M 49.27 69.32 C 55.29 67.25 61.99 72.75 61.34 79.02 C 61.09 85.55 53.21 89.88 47.56 86.61 C 40.27 83.21 41.43 71.22 49.27 69.32 Z" />
<path fill="#8773b5" opacity="1.00" d=" M 127.29 86.36 C 133.34 83.81 140.65 89.37 139.80 95.87 C 139.67 102.80 130.65 107.09 125.19 102.79 C 119.06 98.96 120.36 88.50 127.29 86.36 Z" />
<path fill="#8773b5" opacity="1.00" d=" M 69.30 103.31 C 75.23 100.43 82.75 105.45 82.48 112.00 C 82.80 119.07 73.88 124.01 68.09 119.90 C 61.78 116.33 62.55 105.93 69.30 103.31 Z" />
</g>
</svg>
