<?xml version="1.0" encoding="UTF-8" ?>
<!DOCTYPE svg PUBLIC "-//W3C//DTD SVG 1.1//EN" "http://www.w3.org/Graphics/SVG/1.1/DTD/svg11.dtd">
<svg width="192pt" height="192pt" viewBox="0 0 192 192" version="1.1" xmlns="http://www.w3.org/2000/svg">
<g id="#ff3c5fff">
<path fill="#ff3c5f" opacity="1.00" d=" M 12.08 52.95 C 11.93 40.73 22.78 29.68 35.03 29.76 C 69.34 29.72 103.66 29.71 137.97 29.76 C 149.19 29.74 159.39 38.99 160.70 50.09 C 161.31 58.69 160.47 67.35 161.13 75.94 C 166.83 82.71 173.74 88.50 179.76 95.04 C 174.12 101.92 167.27 107.72 161.14 114.16 C 160.54 123.07 161.25 132.02 160.73 140.93 C 159.57 152.17 149.26 161.46 137.97 161.51 C 103.66 161.58 69.34 161.57 35.03 161.50 C 22.67 161.52 11.82 150.36 12.06 138.03 C 12.04 109.67 12.02 81.31 12.08 52.95 M 32.29 41.39 C 26.83 42.78 22.84 48.32 23.26 53.95 C 23.28 81.99 23.24 110.03 23.28 138.06 C 23.11 144.39 28.66 150.18 34.99 150.24 C 68.99 150.31 102.99 150.23 136.98 150.26 C 143.67 150.68 149.85 144.77 149.72 138.08 C 149.78 110.03 149.73 81.99 149.75 53.95 C 150.21 47.46 144.67 40.97 138.04 41.12 C 111.69 41.06 85.34 41.26 59.00 40.99 C 50.11 41.30 41.13 40.15 32.29 41.39 Z" />
<path fill="#ff3c5f" opacity="1.00" d=" M 118.35 58.45 C 126.87 55.64 135.18 65.96 130.73 73.72 C 127.35 81.24 115.48 81.52 111.83 74.09 C 108.37 68.34 111.79 60.01 118.35 58.45 Z" />
</g>
</svg>
