<?xml version="1.0" encoding="UTF-8" ?>
<!DOCTYPE svg PUBLIC "-//W3C//DTD SVG 1.1//EN" "http://www.w3.org/Graphics/SVG/1.1/DTD/svg11.dtd">
<svg width="192pt" height="192pt" viewBox="0 0 192 192" version="1.1" xmlns="http://www.w3.org/2000/svg">
<g id="#1cb7ffff">
<path fill="#1cb7ff" opacity="1.00" d=" M 74.90 19.94 C 74.37 15.60 79.68 12.43 83.32 14.76 C 111.90 28.80 140.47 42.85 169.03 56.94 C 173.25 58.43 173.99 64.77 170.03 67.01 C 151.12 79.83 132.28 92.77 113.26 105.41 C 114.16 126.98 115.99 148.51 117.02 170.07 C 117.11 174.35 111.85 176.98 108.34 174.67 C 79.76 160.60 51.14 146.58 22.60 132.44 C 18.28 130.77 18.13 124.25 22.24 122.24 C 48.92 104.30 75.31 85.93 102.07 68.12 C 105.28 65.49 110.73 67.78 110.95 71.96 C 111.64 78.78 111.70 85.66 112.34 92.48 C 126.84 82.68 141.41 72.99 155.75 62.97 C 132.75 51.65 109.76 40.31 86.71 29.07 C 87.21 39.71 88.39 50.35 88.42 60.99 C 87.40 66.79 78.07 66.54 77.44 60.68 C 76.42 47.12 75.61 33.52 74.90 19.94 M 90.44 89.76 C 90.75 95.25 91.18 100.72 91.45 106.21 C 95.07 104.66 98.07 102.05 101.38 99.97 C 101.20 94.29 100.72 88.63 100.39 82.96 C 97.00 85.13 93.64 87.33 90.44 89.76 M 36.03 126.53 C 59.05 137.84 82.05 149.20 105.12 160.42 C 104.25 144.63 103.20 128.84 102.25 113.05 C 97.72 115.92 93.46 119.21 88.84 121.95 C 85.41 123.89 80.78 120.91 80.85 117.03 C 80.34 110.35 80.07 103.66 79.54 96.98 C 65.06 106.86 50.48 116.60 36.03 126.53 Z" />
</g>
</svg>
