<?xml version="1.0" encoding="UTF-8" ?>
<!DOCTYPE svg PUBLIC "-//W3C//DTD SVG 1.1//EN" "http://www.w3.org/Graphics/SVG/1.1/DTD/svg11.dtd">
<svg width="192pt" height="192pt" viewBox="0 0 192 192" version="1.1" xmlns="http://www.w3.org/2000/svg">
<g id="#6d3a9fff">
<path fill="#6d3a9f" opacity="1.00" d=" M 89.93 38.97 C 99.90 17.04 133.82 9.86 149.83 29.16 C 153.62 36.73 164.94 31.68 168.59 39.39 C 172.65 47.05 161.41 53.69 165.79 61.18 C 176.07 88.49 173.81 122.84 152.12 144.13 C 131.91 165.04 98.71 167.74 72.87 156.54 C 66.69 165.01 56.43 171.31 45.64 169.42 C 23.42 165.22 8.42 138.83 16.66 117.67 C 20.33 108.87 30.92 106.63 39.48 107.79 C 29.70 90.50 26.48 68.05 35.83 49.91 C 38.37 43.72 47.91 42.85 51.31 48.71 C 59.02 61.24 75.06 63.20 88.35 65.06 C 86.55 56.48 86.16 47.09 89.93 38.97 M 100.98 42.02 C 96.67 49.45 97.92 58.68 100.55 66.47 C 110.54 69.54 119.55 76.25 124.37 85.65 C 130.65 97.42 129.93 112.48 122.70 123.67 C 115.18 135.80 100.18 142.71 86.08 140.83 C 73.95 138.68 62.53 132.86 53.30 124.74 C 49.20 120.87 43.30 120.23 38.02 119.12 C 33.93 118.31 27.88 118.47 26.45 123.31 C 22.43 137.87 32.28 154.76 46.99 158.29 C 54.18 159.87 60.35 154.64 64.21 149.17 C 67.18 144.90 73.13 144.23 77.60 146.36 C 93.08 152.58 111.05 154.21 126.75 147.82 C 141.82 141.80 153.52 128.41 157.93 112.84 C 162.99 95.56 160.15 76.90 153.59 60.42 C 150.95 55.09 155.72 50.15 156.96 45.09 C 151.83 44.40 145.77 44.08 143.26 38.71 C 133.44 23.75 109.36 27.57 100.98 42.02 M 44.14 58.95 C 34.11 89.34 56.78 124.55 88.07 129.37 C 98.58 130.62 109.53 124.80 114.21 115.28 C 119.08 106.03 117.77 93.92 110.83 86.06 C 105.73 79.91 97.68 77.12 89.90 76.74 C 73.57 75.13 55.48 71.99 44.14 58.95 Z" />
</g>
</svg>
