<?xml version="1.0" encoding="UTF-8" ?>
<!DOCTYPE svg PUBLIC "-//W3C//DTD SVG 1.1//EN" "http://www.w3.org/Graphics/SVG/1.1/DTD/svg11.dtd">
<svg width="192pt" height="192pt" viewBox="0 0 192 192" version="1.1" xmlns="http://www.w3.org/2000/svg">
<g id="#cd32cbff">
<path fill="#cd32cb" opacity="1.00" d=" M 93.25 38.28 C 102.92 21.95 126.20 14.51 143.04 23.95 C 147.98 26.53 151.64 30.79 155.30 34.85 C 160.28 36.66 167.14 35.47 170.27 40.69 C 173.78 46.93 168.12 53.09 166.36 58.97 C 173.76 77.95 176.57 99.48 170.31 119.19 C 165.78 134.11 155.77 147.37 142.39 155.46 C 122.23 167.97 96.27 167.54 74.82 158.59 C 68.58 167.26 57.98 173.57 47.02 171.35 C 28.93 167.52 15.71 149.22 16.37 130.95 C 16.44 124.57 18.10 117.50 23.44 113.45 C 28.57 109.40 35.46 109.18 41.68 109.88 C 31.79 92.62 28.57 70.10 37.93 51.95 C 40.34 46.12 49.17 44.93 52.80 50.19 C 60.37 63.17 76.77 65.31 90.30 67.15 C 88.00 57.58 88.12 46.94 93.25 38.28 M 101.71 46.66 C 98.95 53.72 100.30 61.56 102.59 68.54 C 113.47 71.94 123.18 79.70 127.55 90.40 C 133.87 104.76 129.92 122.83 118.15 133.21 C 108.73 141.83 94.80 145.04 82.55 141.52 C 72.82 138.62 63.55 133.87 55.93 127.12 C 51.96 123.16 46.09 122.50 40.88 121.31 C 36.78 120.61 30.75 120.01 28.74 124.64 C 24.14 139.29 34.09 156.63 48.99 160.21 C 55.82 161.67 62.04 157.00 65.69 151.65 C 68.46 147.37 74.32 145.87 78.88 148.04 C 94.11 154.21 111.68 156.18 127.31 150.29 C 142.49 144.73 154.53 131.75 159.37 116.38 C 165.07 98.72 162.28 79.39 155.51 62.44 C 152.84 57.11 157.60 52.16 158.95 47.16 C 153.84 46.38 147.69 46.19 145.23 40.75 C 134.83 24.87 108.50 30.15 101.71 46.66 M 46.06 60.71 C 35.82 91.22 58.68 126.55 90.04 131.49 C 101.36 132.83 113.08 125.95 117.23 115.30 C 121.45 105.47 118.89 93.26 111.02 86.00 C 105.44 80.62 97.51 78.90 90.03 78.42 C 74.25 76.79 56.94 73.32 46.06 60.71 Z" />
</g>
</svg>
