<?xml version="1.0" encoding="UTF-8" ?>
<!DOCTYPE svg PUBLIC "-//W3C//DTD SVG 1.1//EN" "http://www.w3.org/Graphics/SVG/1.1/DTD/svg11.dtd">
<svg width="192pt" height="192pt" viewBox="0 0 192 192" version="1.1" xmlns="http://www.w3.org/2000/svg">
<g id="#c721d1ff">
<path fill="#c721d1" opacity="1.00" d=" M 22.08 43.94 C 21.92 32.08 32.13 21.23 44.01 20.81 C 49.96 20.77 55.97 20.41 61.90 21.01 C 66.76 22.16 67.05 29.70 62.41 31.38 C 56.05 32.59 49.48 31.11 43.09 32.16 C 37.64 33.18 33.18 38.31 33.29 43.93 C 33.23 77.97 33.26 112.02 33.28 146.07 C 33.03 152.80 39.24 158.74 45.95 158.33 C 79.89 158.31 113.83 158.37 147.77 158.29 C 154.20 158.30 159.79 152.47 159.65 146.07 C 159.73 112.36 159.67 78.65 159.68 44.94 C 160.21 37.95 153.98 31.64 147.03 31.86 C 131.94 31.77 116.85 31.85 101.76 31.83 C 101.70 52.67 101.75 73.52 101.74 94.36 C 104.67 94.41 107.64 94.16 110.54 94.66 C 114.60 95.48 116.15 101.30 113.06 104.05 C 108.80 108.46 104.47 112.81 100.05 117.06 C 97.95 119.30 94.09 119.23 92.03 116.97 C 87.66 112.69 83.28 108.41 79.08 103.97 C 76.11 101.22 77.55 95.63 81.47 94.69 C 84.42 94.13 87.46 94.43 90.44 94.40 C 90.51 73.60 90.40 52.81 90.49 32.01 C 90.24 25.83 95.80 20.35 101.99 20.75 C 117.32 20.73 132.65 20.69 147.98 20.77 C 160.20 20.73 171.01 31.74 170.81 43.94 C 170.88 77.97 170.87 112.02 170.83 146.05 C 171.16 158.35 160.34 169.46 148.06 169.51 C 113.69 169.58 79.31 169.57 44.94 169.50 C 32.60 169.50 21.77 158.37 22.06 146.04 C 22.03 112.01 22.02 77.97 22.08 43.94 Z" />
<path fill="#c721d1" opacity="1.00" d=" M 49.22 138.22 C 80.09 137.29 111.13 137.97 142.06 137.88 C 149.09 137.64 149.12 149.31 142.06 149.04 C 111.69 149.16 81.31 149.22 50.94 149.01 C 45.11 149.13 43.70 139.96 49.22 138.22 Z" />
</g>
</svg>
