<?xml version="1.0" encoding="UTF-8" ?>
<!DOCTYPE svg PUBLIC "-//W3C//DTD SVG 1.1//EN" "http://www.w3.org/Graphics/SVG/1.1/DTD/svg11.dtd">
<svg width="192pt" height="192pt" viewBox="0 0 192 192" version="1.1" xmlns="http://www.w3.org/2000/svg">
<g id="#ba47b3ff">
<path fill="#ba47b3" opacity="1.00" d=" M 22.13 41.93 C 23.03 30.45 33.47 20.64 45.03 20.73 C 79.35 20.71 113.66 20.71 147.97 20.74 C 159.83 20.73 170.46 31.09 170.79 42.92 C 170.87 48.91 170.99 54.92 170.73 60.91 C 170.03 66.25 161.83 66.94 160.07 61.89 C 159.07 55.39 160.15 48.70 159.50 42.15 C 158.54 35.89 152.23 31.33 146.01 31.86 C 131.39 32.00 116.74 31.57 102.15 32.08 C 101.50 56.08 102.08 80.16 101.84 104.18 C 110.12 96.36 118.01 88.11 126.11 80.11 C 128.05 78.28 129.95 75.53 132.99 75.92 C 137.39 75.82 140.17 81.86 137.07 85.05 C 127.51 94.83 117.76 104.43 108.09 114.09 C 101.97 120.18 91.08 120.09 85.04 113.94 C 75.08 103.91 64.94 94.04 55.11 83.88 C 51.34 79.11 58.26 72.19 63.00 76.08 C 72.34 85.01 81.24 94.42 90.55 103.39 C 90.69 79.67 90.61 55.93 90.59 32.20 C 76.11 31.41 61.52 32.09 47.00 31.86 C 40.99 31.33 34.90 35.44 33.56 41.39 C 32.66 48.14 34.02 55.10 32.83 61.79 C 31.26 66.99 22.98 66.27 22.14 60.96 C 21.87 54.63 21.91 48.26 22.13 41.93 Z" />
<path fill="#ba47b3" opacity="1.00" d=" M 25.32 118.37 C 28.70 116.92 32.95 119.18 33.16 122.98 C 33.43 130.99 33.14 139.01 33.30 147.03 C 33.54 153.03 38.99 158.28 45.00 158.35 C 79.00 158.40 113.00 158.35 146.99 158.37 C 153.34 158.73 159.32 153.38 159.65 147.03 C 159.91 138.71 159.42 130.35 159.89 122.05 C 160.93 116.57 169.90 116.72 170.66 122.28 C 170.95 130.53 170.77 138.81 170.74 147.07 C 170.61 159.01 159.86 169.45 147.97 169.50 C 113.66 169.53 79.34 169.53 45.03 169.50 C 33.44 169.49 22.94 159.68 22.20 148.11 C 21.95 140.05 22.14 131.98 22.09 123.92 C 21.92 121.62 23.17 119.28 25.32 118.37 Z" />
</g>
</svg>
