<?xml version="1.0" encoding="UTF-8" ?>
<!DOCTYPE svg PUBLIC "-//W3C//DTD SVG 1.1//EN" "http://www.w3.org/Graphics/SVG/1.1/DTD/svg11.dtd">
<svg width="192pt" height="192pt" viewBox="0 0 192 192" version="1.1" xmlns="http://www.w3.org/2000/svg">
<g id="#56c586ff">
<path fill="#56c586" opacity="1.00" d=" M 22.11 42.91 C 22.44 31.05 33.15 20.66 45.03 20.75 C 79.35 20.72 113.66 20.71 147.98 20.76 C 159.82 20.73 170.47 31.10 170.79 42.93 C 170.77 49.17 171.22 55.46 170.55 61.67 C 169.18 66.48 161.72 66.58 160.08 61.89 C 159.03 55.39 160.20 48.70 159.47 42.15 C 158.62 36.26 152.90 31.75 147.02 31.87 C 132.03 31.83 117.03 31.77 102.04 31.90 C 101.62 55.98 101.95 80.09 101.88 104.17 C 111.38 95.27 120.17 85.59 129.73 76.77 C 134.67 73.08 141.39 80.60 137.06 85.04 C 127.53 94.85 117.76 104.43 108.08 114.09 C 101.97 120.20 91.08 120.10 85.05 113.94 C 75.09 103.90 64.90 94.07 55.14 83.85 C 51.33 79.14 58.29 72.18 62.97 76.12 C 72.38 84.96 81.17 94.49 90.57 103.35 C 90.69 79.60 90.60 55.85 90.62 32.09 C 76.10 31.49 61.54 32.01 47.01 31.82 C 41.01 31.37 34.85 35.39 33.56 41.39 C 32.63 48.15 34.03 55.08 32.83 61.79 C 31.26 66.98 22.95 66.27 22.20 60.95 C 21.85 54.95 22.03 48.92 22.11 42.91 Z" />
<path fill="#56c586" opacity="1.00" d=" M 25.30 118.35 C 28.63 116.72 33.02 119.24 33.14 122.99 C 33.52 130.99 33.08 139.02 33.33 147.03 C 33.57 153.42 39.65 158.76 46.01 158.34 C 79.67 158.34 113.33 158.35 146.99 158.35 C 153.33 158.70 159.31 153.38 159.61 147.03 C 159.96 138.71 159.35 130.35 159.89 122.05 C 160.88 116.50 169.93 116.65 170.66 122.28 C 171.02 130.52 170.79 138.81 170.77 147.07 C 170.63 159.03 159.89 169.47 147.97 169.52 C 113.66 169.57 79.34 169.56 45.03 169.52 C 33.42 169.52 22.91 159.70 22.18 148.11 C 21.90 140.05 22.08 131.97 22.07 123.91 C 21.93 121.62 23.13 119.26 25.30 118.35 Z" />
</g>
</svg>
