<?xml version="1.0" encoding="UTF-8" ?>
<!DOCTYPE svg PUBLIC "-//W3C//DTD SVG 1.1//EN" "http://www.w3.org/Graphics/SVG/1.1/DTD/svg11.dtd">
<svg width="192pt" height="192pt" viewBox="0 0 192 192" version="1.1" xmlns="http://www.w3.org/2000/svg">
<g id="#b7bbc0ff">
<path fill="#b7bbc0" opacity="1.00" d=" M 22.08 42.91 C 22.44 31.04 33.12 20.64 45.02 20.74 C 79.34 20.72 113.65 20.69 147.96 20.74 C 160.24 20.65 171.01 31.74 170.89 43.95 C 170.67 49.85 171.68 55.85 170.56 61.67 C 169.18 66.48 161.69 66.59 160.04 61.91 C 159.03 55.39 160.18 48.72 159.44 42.16 C 158.59 36.30 152.91 31.71 147.01 31.92 C 132.03 31.87 117.04 31.87 102.06 31.90 C 101.72 55.96 101.95 80.04 101.97 104.11 C 111.36 95.14 120.20 85.58 129.70 76.74 C 134.68 73.04 141.40 80.54 137.08 85.05 C 127.55 94.86 117.79 104.46 108.09 114.11 C 101.97 120.21 91.07 120.11 85.04 113.95 C 75.09 103.90 64.90 94.06 55.13 83.85 C 51.29 79.15 58.26 72.17 62.95 76.07 C 72.37 84.92 81.15 94.44 90.56 103.31 C 90.65 79.57 90.59 55.83 90.61 32.09 C 75.76 31.59 60.87 31.97 46.01 31.86 C 40.32 31.66 34.78 35.80 33.55 41.39 C 32.61 48.15 34.00 55.09 32.82 61.80 C 31.23 66.95 22.98 66.25 22.17 60.96 C 21.81 54.96 21.99 48.92 22.08 42.91 Z" />
<path fill="#b7bbc0" opacity="1.00" d=" M 25.35 118.40 C 28.71 117.06 32.95 119.18 33.08 123.00 C 33.50 131.00 33.04 139.02 33.28 147.03 C 33.42 153.46 39.66 158.83 46.01 158.43 C 79.67 158.42 113.33 158.42 146.98 158.43 C 153.33 158.77 159.43 153.43 159.66 147.03 C 159.98 138.71 159.39 130.36 159.93 122.05 C 160.93 116.62 169.88 116.81 170.59 122.30 C 170.90 130.54 170.69 138.81 170.68 147.07 C 170.55 158.97 159.82 169.34 147.98 169.45 C 113.66 169.49 79.34 169.48 45.03 169.45 C 33.50 169.39 22.96 159.66 22.27 148.10 C 22.03 140.05 22.20 131.98 22.17 123.92 C 21.98 121.64 23.21 119.31 25.35 118.40 Z" />
</g>
</svg>
