<?xml version="1.0" encoding="UTF-8" ?>
<!DOCTYPE svg PUBLIC "-//W3C//DTD SVG 1.1//EN" "http://www.w3.org/Graphics/SVG/1.1/DTD/svg11.dtd">
<svg width="192pt" height="192pt" viewBox="0 0 192 192" version="1.1" xmlns="http://www.w3.org/2000/svg">
<g id="#527c99ff">
<path fill="#527c99" opacity="1.00" d=" M 82.41 20.54 C 114.09 15.61 147.47 31.61 163.85 59.07 C 175.61 78.14 178.94 102.17 172.75 123.70 C 169.86 133.43 160.09 140.23 150.02 140.14 C 112.68 140.18 75.33 140.19 37.99 140.13 C 27.36 140.32 17.17 132.74 14.72 122.33 C 9.62 102.75 11.95 81.28 21.51 63.41 C 33.42 40.49 56.79 23.96 82.41 20.54 M 85.38 31.51 C 69.30 33.41 53.96 41.06 42.88 52.89 C 25.84 70.21 19.25 96.79 25.81 120.13 C 27.30 125.33 32.54 129.01 37.94 128.74 C 75.31 128.73 112.69 128.76 150.06 128.72 C 155.13 128.91 160.09 125.61 161.80 120.82 C 169.06 96.67 161.64 68.97 143.54 51.46 C 128.53 36.34 106.50 28.93 85.38 31.51 Z" />
<path fill="#527c99" opacity="1.00" d=" M 88.37 56.11 C 89.06 49.95 99.11 50.17 99.51 56.39 C 99.96 69.63 99.48 82.90 99.76 96.16 C 104.66 92.59 108.92 88.20 113.94 84.82 C 119.02 81.90 124.92 89.44 120.69 93.63 C 113.47 100.12 105.80 106.10 98.41 112.39 C 96.22 114.65 92.46 115.12 90.08 112.87 C 82.45 106.49 74.63 100.29 67.24 93.64 C 63.09 89.52 68.64 81.91 73.83 84.81 C 78.90 88.19 83.17 92.63 88.10 96.22 C 88.40 82.85 87.89 69.46 88.37 56.11 Z" />
<path fill="#527c99" opacity="1.00" d=" M 59.23 154.29 C 63.61 152.22 69.21 156.08 68.74 160.92 C 68.91 166.21 61.86 169.69 57.82 166.14 C 53.59 163.30 54.44 156.05 59.23 154.29 Z" />
<path fill="#527c99" opacity="1.00" d=" M 91.22 154.32 C 95.61 152.20 101.22 156.08 100.77 160.92 C 100.90 166.23 93.89 169.68 89.82 166.15 C 85.61 163.30 86.42 156.07 91.22 154.32 Z" />
<path fill="#527c99" opacity="1.00" d=" M 123.23 154.28 C 127.61 152.21 133.30 156.09 132.78 160.96 C 132.91 166.27 125.88 169.64 121.84 166.15 C 117.60 163.29 118.45 156.09 123.23 154.28 Z" />
</g>
</svg>
