<?xml version="1.0" encoding="UTF-8" ?>
<!DOCTYPE svg PUBLIC "-//W3C//DTD SVG 1.1//EN" "http://www.w3.org/Graphics/SVG/1.1/DTD/svg11.dtd">
<svg width="192pt" height="192pt" viewBox="0 0 192 192" version="1.1" xmlns="http://www.w3.org/2000/svg">
<g id="#8b7789ff">
<path fill="#8b7789" opacity="1.00" d=" M 57.63 31.70 C 76.22 11.34 110.99 9.90 130.90 29.11 C 133.82 33.43 139.37 31.16 143.63 32.46 C 160.22 35.76 171.81 50.46 177.45 65.58 C 179.39 69.59 175.32 74.59 170.99 73.40 C 167.35 72.60 166.62 68.58 165.23 65.73 C 160.74 56.04 153.31 46.66 142.55 43.85 C 145.03 49.34 147.08 55.07 147.85 61.08 C 160.28 64.82 169.45 76.96 169.53 89.94 C 169.84 99.59 169.84 110.38 163.18 118.15 C 159.80 123.61 153.91 126.54 148.23 129.05 C 146.11 146.75 134.31 162.84 118.15 170.33 C 93.90 182.42 61.48 171.73 49.40 147.47 C 47.87 143.50 51.75 138.74 55.98 139.58 C 59.08 139.75 60.56 142.73 62.09 144.97 C 71.04 158.74 89.04 165.97 105.00 161.84 C 120.19 158.48 132.50 145.57 135.61 130.38 C 129.06 129.11 116.66 133.80 115.60 124.00 C 118.44 117.30 118.17 107.76 110.37 104.67 C 102.39 102.92 94.08 104.11 85.97 103.80 C 77.91 103.40 72.05 112.54 75.16 119.81 C 76.98 123.41 76.43 128.82 71.92 129.96 C 65.33 130.61 58.63 130.19 51.99 130.18 C 39.98 130.00 28.66 121.85 24.58 110.57 C 22.07 104.36 22.75 97.55 22.62 91.00 C 22.14 78.00 31.08 65.55 43.34 61.40 C 44.21 55.31 46.17 49.44 48.71 43.85 C 36.43 47.55 28.80 59.06 24.31 70.40 C 21.98 76.13 12.49 72.99 13.85 67.02 C 19.67 48.17 36.52 30.33 57.63 31.70 M 55.68 59.86 C 82.31 60.35 108.97 59.96 135.60 60.04 C 131.91 41.78 114.76 27.23 96.00 27.45 C 77.04 26.86 59.51 41.45 55.68 59.86 M 34.58 92.99 C 33.80 101.32 35.41 111.11 43.42 115.53 C 49.07 119.15 56.07 118.00 62.42 118.12 C 60.97 105.76 70.35 93.05 82.97 91.97 C 91.65 91.72 100.39 91.62 109.07 92.07 C 121.61 93.13 130.67 105.86 129.41 118.05 C 137.48 118.37 147.35 119.05 152.86 111.87 C 158.44 106.01 157.63 97.46 157.53 90.01 C 157.40 80.77 149.54 72.12 140.07 72.21 C 110.69 72.11 81.31 72.15 51.93 72.19 C 41.36 72.15 33.22 82.80 34.58 92.99 Z" />
<path fill="#8b7789" opacity="1.00" d=" M 93.27 115.35 C 100.38 112.77 107.87 120.85 104.75 127.74 C 102.61 134.69 92.02 135.85 88.28 129.70 C 84.65 124.78 87.36 116.93 93.27 115.35 Z" />
</g>
</svg>
