<?xml version="1.0" encoding="UTF-8" ?>
<!DOCTYPE svg PUBLIC "-//W3C//DTD SVG 1.1//EN" "http://www.w3.org/Graphics/SVG/1.1/DTD/svg11.dtd">
<svg width="192pt" height="192pt" viewBox="0 0 192 192" version="1.1" xmlns="http://www.w3.org/2000/svg">
<g id="#ff3662ff">
<path fill="#ff3662" opacity="1.00" d=" M 26.08 65.08 C 33.37 59.41 42.73 56.33 51.96 56.47 C 66.95 56.51 82.19 54.31 96.93 58.07 C 109.29 60.57 120.30 66.91 131.26 72.84 C 143.15 78.05 156.87 77.02 168.74 82.20 C 179.10 87.47 181.11 100.53 179.31 110.91 C 175.99 117.49 167.39 115.34 161.42 116.27 C 160.86 119.85 159.65 123.28 157.95 126.48 C 163.92 126.70 169.93 126.17 175.87 126.76 C 179.67 127.85 178.95 134.64 174.83 134.44 C 121.94 134.65 69.04 134.56 16.15 134.45 C 12.10 134.92 10.43 128.65 14.22 127.08 C 18.69 126.18 23.32 126.86 27.86 126.67 C 26.65 124.04 25.51 121.38 24.42 118.71 C 20.83 117.88 17.25 117.03 13.67 116.17 C 13.12 105.77 13.47 95.35 13.46 84.95 C 13.52 76.40 20.89 70.89 26.08 65.08 M 29.26 73.24 C 26.28 77.19 20.98 80.36 21.34 85.94 C 21.38 93.92 21.34 101.91 21.32 109.90 C 22.47 110.12 23.61 110.38 24.73 110.72 C 27.97 100.24 40.06 93.04 50.60 97.39 C 62.08 101.30 67.27 116.58 60.10 126.52 C 81.86 126.55 103.62 126.50 125.38 126.53 C 119.05 117.55 122.43 104.22 131.77 98.78 C 141.75 92.60 155.39 97.85 159.92 108.35 C 163.93 108.18 167.94 107.93 171.94 107.62 C 171.93 105.55 171.93 103.48 171.94 101.41 C 166.15 101.49 159.66 99.66 156.56 94.37 C 155.02 91.37 158.72 87.43 161.73 89.09 C 164.33 90.85 166.60 93.26 169.91 93.61 C 167.90 90.59 164.79 88.42 161.19 87.82 C 151.82 85.95 142.43 84.15 133.05 82.34 C 131.09 84.13 128.99 86.38 126.05 85.85 C 96.72 84.30 67.40 82.50 38.08 80.71 C 34.17 81.00 31.39 75.25 34.60 72.64 C 36.68 70.64 38.55 66.95 41.95 67.72 C 44.54 68.26 44.83 71.09 45.07 73.24 C 71.18 74.71 97.28 76.43 123.39 77.67 C 114.95 72.95 106.29 68.35 96.81 66.10 C 81.82 62.13 66.21 64.19 50.93 64.45 C 42.96 64.41 34.43 66.79 29.26 73.24 M 40.36 104.50 C 33.56 106.23 30.37 114.50 33.25 120.67 C 35.78 126.93 44.04 128.02 49.67 125.74 C 56.35 122.59 57.41 112.69 52.42 107.58 C 49.42 104.28 44.55 103.42 40.36 104.50 M 138.35 104.46 C 130.37 106.25 127.40 117.32 132.78 123.20 C 138.54 129.86 151.84 127.25 153.10 117.99 C 155.15 109.65 146.49 101.74 138.35 104.46 Z" />
<path fill="#ff3662" opacity="1.00" d=" M 53.39 86.40 C 56.11 85.03 60.63 86.47 60.46 90.03 C 60.59 94.09 54.80 95.00 52.36 92.63 C 50.48 90.86 51.10 87.50 53.39 86.40 Z" />
<path fill="#ff3662" opacity="1.00" d=" M 65.46 86.61 C 85.29 86.46 105.17 87.77 125.02 87.94 C 127.67 88.29 131.32 87.48 132.93 90.24 C 134.49 92.91 132.17 96.47 129.09 96.12 C 108.08 95.45 87.03 95.01 66.02 94.16 C 62.13 93.74 61.73 87.65 65.46 86.61 Z" />
<path fill="#ff3662" opacity="1.00" d=" M 68.35 112.44 C 84.18 112.07 100.05 112.28 115.89 112.33 C 119.67 112.34 120.24 116.92 118.36 119.44 C 102.32 120.88 86.07 119.90 69.96 119.99 C 65.42 120.65 63.79 113.45 68.35 112.44 Z" />
</g>
</svg>
