<?xml version="1.0" encoding="UTF-8" ?>
<!DOCTYPE svg PUBLIC "-//W3C//DTD SVG 1.1//EN" "http://www.w3.org/Graphics/SVG/1.1/DTD/svg11.dtd">
<svg width="192pt" height="192pt" viewBox="0 0 192 192" version="1.1" xmlns="http://www.w3.org/2000/svg">
<g id="#52a67aff">
<path fill="#52a67a" opacity="1.00" d=" M 44.43 26.67 C 53.72 26.54 63.03 26.39 72.31 26.77 C 69.10 28.99 65.79 31.05 62.50 33.17 C 65.49 36.80 68.91 40.05 71.68 43.86 C 69.44 46.60 67.38 49.54 64.69 51.87 C 62.68 51.86 61.81 49.67 60.59 48.41 C 55.28 41.10 49.50 34.15 44.43 26.67 Z" />
<path fill="#52a67a" opacity="1.00" d=" M 118.39 26.75 C 127.69 26.41 137.01 26.51 146.32 26.68 C 139.83 35.40 133.57 44.35 126.38 52.51 C 123.77 49.75 121.30 46.84 118.96 43.84 C 121.73 40.01 125.17 36.74 128.25 33.17 C 124.90 31.13 121.55 29.08 118.39 26.75 Z" />
<path fill="#52a67a" opacity="1.00" d=" M 73.21 49.22 C 83.69 36.63 105.72 36.09 116.67 48.37 C 121.78 53.53 123.05 61.34 121.13 68.18 C 112.01 64.00 104.20 57.30 95.03 53.33 C 86.22 57.63 78.33 63.66 69.60 68.13 C 67.65 61.69 68.79 54.39 73.21 49.22 Z" />
<path fill="#52a67a" opacity="1.00" d=" M 24.68 45.77 C 36.59 49.55 48.34 53.78 60.09 58.02 C 58.50 60.86 56.74 63.61 54.93 66.32 C 49.10 65.31 43.37 63.76 37.51 62.92 C 36.22 67.23 35.20 71.61 33.71 75.85 C 29.86 66.12 27.35 55.88 24.68 45.77 Z" />
<path fill="#52a67a" opacity="1.00" d=" M 130.55 58.02 C 142.31 53.76 154.13 49.67 166.00 45.72 C 163.63 55.63 160.54 65.35 157.62 75.10 C 154.33 72.54 154.94 66.72 153.15 62.89 C 147.32 63.72 141.65 65.30 135.87 66.36 C 133.92 63.70 132.12 60.93 130.55 58.02 Z" />
<path fill="#52a67a" opacity="1.00" d=" M 81.65 68.94 C 86.12 66.26 90.31 63.02 95.10 60.94 C 100.30 62.50 104.52 66.35 109.17 69.07 C 108.31 74.10 107.37 79.14 105.89 84.03 C 103.01 79.61 102.67 74.18 100.40 69.52 C 97.36 67.97 93.78 68.99 90.53 69.16 C 88.93 74.30 87.80 79.62 85.60 84.56 C 83.81 79.49 82.61 74.22 81.65 68.94 Z" />
<path fill="#52a67a" opacity="1.00" d=" M 12.70 85.77 C 25.65 80.62 39.20 76.99 52.48 72.76 C 51.93 76.65 51.16 80.51 50.28 84.35 C 45.20 85.95 39.99 87.11 34.87 88.58 C 35.67 92.44 36.79 96.23 37.47 100.13 C 29.05 95.65 20.64 91.06 12.70 85.77 Z" />
<path fill="#52a67a" opacity="1.00" d=" M 138.19 72.77 C 151.44 76.77 164.68 80.91 177.80 85.33 C 170.54 91.53 161.53 95.36 153.35 100.21 C 153.65 96.25 154.94 92.47 155.86 88.63 C 150.77 87.10 145.57 85.95 140.49 84.43 C 139.50 80.59 138.70 76.70 138.19 72.77 Z" />
<path fill="#52a67a" opacity="1.00" d=" M 58.09 84.11 C 62.30 79.92 68.12 77.50 73.14 74.31 C 75.33 79.78 76.71 85.53 78.87 91.01 C 82.62 91.03 86.38 91.00 90.13 90.95 C 91.96 86.25 93.29 81.37 95.23 76.72 C 97.89 81.14 98.29 86.53 101.01 90.88 C 104.66 91.22 108.34 90.97 112.01 90.92 C 114.07 85.44 115.30 79.68 117.63 74.30 C 122.64 77.52 128.63 79.87 132.64 84.28 C 136.76 105.74 118.83 123.75 100.79 131.91 C 100.70 130.90 100.50 128.88 100.40 127.87 C 97.04 127.84 93.68 127.83 90.32 127.84 C 90.28 128.85 90.22 130.86 90.19 131.87 C 71.90 123.91 53.65 105.78 58.09 84.11 M 80.79 97.19 C 81.12 98.44 81.46 99.69 81.81 100.94 C 90.86 100.93 99.91 101.07 108.96 100.86 C 109.31 99.65 109.65 98.45 109.99 97.24 C 100.26 97.08 90.52 97.16 80.79 97.19 M 83.45 107.29 C 84.38 108.67 84.71 111.24 86.92 110.89 C 93.26 111.12 99.60 110.97 105.94 110.85 C 106.29 109.65 106.64 108.44 106.99 107.23 C 99.15 107.14 91.30 107.05 83.45 107.29 M 86.88 117.24 C 87.30 118.44 87.73 119.63 88.16 120.82 C 93.05 121.04 97.94 121.05 102.82 120.80 C 103.14 119.61 103.46 118.42 103.77 117.23 C 98.14 117.12 92.51 117.11 86.88 117.24 Z" />
<path fill="#52a67a" opacity="1.00" d=" M 30.24 110.13 C 37.10 105.45 43.99 100.78 51.14 96.54 C 57.30 117.85 63.90 139.14 68.84 160.75 C 55.24 144.51 42.75 127.24 30.24 110.13 Z" />
<path fill="#52a67a" opacity="1.00" d=" M 139.52 96.61 C 146.75 100.68 153.54 105.49 160.44 110.10 C 147.88 127.21 135.37 144.50 121.79 160.80 C 126.87 139.21 133.22 117.89 139.52 96.61 Z" />
</g>
</svg>
