<?xml version="1.0" encoding="UTF-8" ?>
<!DOCTYPE svg PUBLIC "-//W3C//DTD SVG 1.1//EN" "http://www.w3.org/Graphics/SVG/1.1/DTD/svg11.dtd">
<svg width="192pt" height="192pt" viewBox="0 0 192 192" version="1.1" xmlns="http://www.w3.org/2000/svg">
<g id="#44e372ff">
<path fill="#44e372" opacity="1.00" d=" M 44.40 28.68 C 53.72 28.49 63.05 28.34 72.36 28.78 C 69.17 30.99 65.85 33.02 62.59 35.13 C 65.40 38.90 69.09 41.94 71.68 45.88 C 69.39 48.79 66.99 51.61 64.54 54.40 C 56.87 46.72 50.93 37.36 44.40 28.68 Z" />
<path fill="#44e372" opacity="1.00" d=" M 118.38 28.75 C 127.69 28.37 137.02 28.45 146.34 28.69 C 139.97 37.43 133.47 46.11 126.65 54.51 C 123.77 51.93 121.31 48.93 118.96 45.86 C 121.61 41.92 125.22 38.80 128.19 35.13 C 124.85 33.11 121.49 31.11 118.38 28.75 Z" />
<path fill="#44e372" opacity="1.00" d=" M 79.04 46.09 C 90.70 38.84 108.02 40.03 117.11 50.92 C 121.85 56.01 122.90 63.48 121.10 70.03 C 111.93 66.00 104.18 59.19 95.02 55.26 C 86.25 59.57 78.38 65.56 69.67 70.02 C 66.49 61.02 71.08 50.86 79.04 46.09 Z" />
<path fill="#44e372" opacity="1.00" d=" M 24.65 47.74 C 36.57 51.50 48.35 55.72 60.09 60.01 C 58.57 62.90 56.78 65.64 54.89 68.31 C 49.06 67.40 43.38 65.70 37.52 64.95 C 36.22 69.23 35.25 73.62 33.77 77.85 C 29.74 68.19 27.37 57.84 24.65 47.74 Z" />
<path fill="#44e372" opacity="1.00" d=" M 130.56 60.01 C 142.31 55.73 154.12 51.57 166.02 47.74 C 163.62 57.84 160.41 67.73 157.45 77.68 C 154.74 73.99 154.76 69.10 153.11 64.92 C 147.30 65.65 141.69 67.39 135.91 68.33 C 133.86 65.74 132.04 62.97 130.56 60.01 Z" />
<path fill="#44e372" opacity="1.00" d=" M 81.69 70.96 C 86.13 68.27 90.34 65.10 95.08 62.96 C 100.24 64.54 104.48 68.35 109.11 71.09 C 108.27 76.07 107.34 81.04 105.92 85.89 C 102.89 81.60 102.78 76.09 100.45 71.49 C 97.57 69.89 93.99 71.00 90.83 70.75 C 88.72 75.86 88.00 81.44 85.58 86.43 C 83.84 81.39 82.66 76.19 81.69 70.96 Z" />
<path fill="#44e372" opacity="1.00" d=" M 12.74 87.81 C 25.57 82.48 39.22 79.00 52.48 74.74 C 52.01 78.65 51.21 82.52 50.27 86.35 C 45.23 88.01 40.03 89.09 34.94 90.55 C 35.59 94.45 36.94 98.19 37.45 102.11 C 29.03 97.70 20.66 93.08 12.74 87.81 Z" />
<path fill="#44e372" opacity="1.00" d=" M 138.19 74.75 C 151.42 78.63 164.50 82.99 177.65 87.13 C 170.92 93.76 161.46 97.16 153.47 102.19 C 153.34 98.20 155.06 94.51 155.84 90.67 C 150.87 88.92 145.54 88.31 140.66 86.30 C 139.12 82.65 138.78 78.63 138.19 74.75 Z" />
<path fill="#44e372" opacity="1.00" d=" M 58.12 86.14 C 62.27 81.99 68.11 79.54 73.11 76.37 C 75.37 81.82 76.61 87.62 78.88 93.06 C 82.52 93.03 86.20 93.32 89.82 92.87 C 92.53 88.64 93.00 83.34 95.21 78.83 C 98.07 83.12 98.08 88.82 101.11 92.90 C 104.65 93.26 108.26 93.26 111.80 92.83 C 114.53 87.65 115.06 81.60 117.68 76.34 C 122.64 79.58 128.65 81.93 132.61 86.30 C 136.70 107.70 118.81 125.71 100.80 133.82 C 100.71 132.82 100.53 130.82 100.44 129.82 C 97.05 129.77 93.66 129.77 90.27 129.79 C 90.25 130.79 90.22 132.78 90.20 133.78 C 71.91 125.91 53.73 107.75 58.12 86.14 M 80.57 99.21 C 81.00 100.48 81.43 101.74 81.85 103.01 C 90.90 102.99 99.96 103.20 109.02 102.86 C 109.35 101.65 109.68 100.43 110.01 99.22 C 100.20 99.08 90.38 99.09 80.57 99.21 M 83.57 109.21 C 84.26 110.46 84.24 112.67 86.07 112.82 C 92.69 113.31 99.36 113.01 106.00 112.86 C 106.34 111.64 106.68 110.43 107.01 109.21 C 99.20 109.09 91.38 109.09 83.57 109.21 M 86.83 119.23 C 87.26 120.44 87.70 121.64 88.16 122.84 C 93.07 123.04 97.99 123.08 102.89 122.79 C 103.21 121.60 103.51 120.40 103.80 119.21 C 98.14 119.09 92.48 119.07 86.83 119.23 Z" />
<path fill="#44e372" opacity="1.00" d=" M 30.22 112.11 C 37.10 107.44 43.95 102.69 51.16 98.54 C 57.32 119.82 63.88 141.08 68.87 162.65 C 64.71 159.23 62.12 154.39 58.72 150.29 C 49.30 137.51 39.20 125.20 30.22 112.11 Z" />
<path fill="#44e372" opacity="1.00" d=" M 139.47 98.65 C 146.80 102.54 153.51 107.50 160.42 112.07 C 150.93 125.87 140.27 138.85 130.35 152.36 C 127.57 155.88 125.25 159.82 121.78 162.73 C 126.85 141.18 133.21 119.90 139.47 98.65 Z" />
</g>
</svg>
