<?xml version="1.0" encoding="UTF-8" ?>
<!DOCTYPE svg PUBLIC "-//W3C//DTD SVG 1.1//EN" "http://www.w3.org/Graphics/SVG/1.1/DTD/svg11.dtd">
<svg width="192pt" height="192pt" viewBox="0 0 192 192" version="1.1" xmlns="http://www.w3.org/2000/svg">
<g id="#fc594fff">
<path fill="#fc594f" opacity="1.00" d=" M 83.99 10.26 C 88.23 12.23 94.16 18.02 96.83 10.99 C 98.86 12.36 100.80 13.97 103.12 14.82 C 105.87 14.96 109.34 12.89 111.46 15.50 C 115.19 19.84 116.92 25.94 121.95 29.12 C 125.82 31.64 131.50 30.53 134.55 34.39 C 135.95 37.55 135.16 41.24 134.37 44.48 C 127.22 45.61 119.97 43.09 113.28 40.69 C 110.75 39.82 108.32 41.15 106.10 42.21 C 112.48 45.26 120.48 46.53 124.56 52.93 C 123.54 55.80 121.97 58.42 120.65 61.15 C 122.11 62.24 123.56 63.33 124.99 64.45 C 118.73 67.48 115.99 58.56 110.34 57.76 C 105.21 56.98 99.48 56.28 96.32 51.57 C 93.73 47.76 89.90 54.18 91.91 56.87 C 97.04 66.63 108.28 70.24 117.41 75.17 C 118.55 78.42 121.10 80.77 123.57 83.05 C 123.54 88.61 127.87 92.58 130.09 97.32 C 129.02 99.83 128.91 102.58 129.74 105.17 C 131.99 113.42 133.16 122.06 132.22 130.60 C 131.19 125.87 131.01 120.99 129.70 116.31 C 129.08 116.29 127.85 116.24 127.24 116.22 C 124.59 128.15 120.21 140.50 110.56 148.61 C 105.82 152.42 99.54 155.58 97.99 162.01 C 96.56 168.19 101.10 173.39 102.57 179.08 C 95.93 174.31 91.12 165.64 93.53 157.38 C 95.79 149.57 102.36 144.32 107.25 138.20 C 116.39 125.40 118.23 107.21 110.47 93.32 C 112.24 107.89 111.23 125.81 97.89 134.92 C 89.08 141.28 75.49 136.92 71.51 126.98 C 77.39 128.15 82.75 132.42 89.00 131.12 C 93.13 130.31 95.23 125.92 95.14 122.03 C 94.84 105.40 78.40 89.32 61.32 93.39 C 54.60 94.24 49.67 99.48 43.23 101.01 C 43.73 96.15 46.24 91.84 47.36 87.14 C 36.11 88.61 24.15 90.23 15.02 97.55 C 20.06 88.66 30.53 85.67 38.31 79.84 C 31.68 74.58 23.04 76.89 15.34 76.10 C 22.56 68.86 33.00 65.42 42.94 64.01 C 58.99 62.04 73.98 71.11 84.26 82.73 C 89.22 87.69 92.44 94.10 97.56 98.89 C 93.17 79.29 71.87 68.19 68.88 48.04 C 67.95 40.41 72.98 34.20 77.21 28.47 C 76.01 27.48 74.80 26.49 73.60 25.50 C 76.16 24.69 79.29 25.04 81.36 23.10 C 79.28 20.64 75.89 20.35 73.05 19.30 C 76.56 15.60 81.80 16.41 86.39 16.50 C 85.61 14.41 84.76 12.35 83.99 10.26 M 103.36 21.32 C 99.37 23.29 103.10 29.50 106.74 26.97 C 110.15 24.79 106.90 19.52 103.36 21.32 Z" />
<path fill="#fc594f" opacity="1.00" d=" M 60.36 21.45 C 65.96 20.55 68.73 29.06 63.50 31.51 C 52.13 38.25 43.01 48.29 36.90 59.97 C 34.07 65.43 24.67 61.06 27.42 55.36 C 34.42 41.11 45.88 28.21 60.36 21.45 Z" />
<path fill="#fc594f" opacity="1.00" d=" M 123.81 48.44 C 130.79 49.34 138.84 48.62 144.48 53.57 C 147.57 56.18 152.71 55.24 154.96 58.99 C 157.01 61.79 155.88 66.94 159.94 67.99 C 162.20 68.89 164.49 69.76 166.64 70.92 C 161.09 75.51 153.47 72.59 149.90 67.05 C 147.64 63.28 143.33 62.51 139.35 63.70 C 136.75 56.15 128.37 54.14 123.81 48.44 Z" />
<path fill="#fc594f" opacity="1.00" d=" M 168.32 77.24 C 171.37 75.34 175.95 77.39 176.30 81.03 C 178.73 100.50 173.20 120.77 161.46 136.47 C 149.43 152.70 130.98 164.10 110.99 167.23 C 107.03 168.25 103.28 163.84 104.84 160.09 C 106.26 156.08 111.26 156.52 114.60 155.43 C 144.34 148.62 166.93 119.52 165.98 89.00 C 166.25 85.12 164.12 79.65 168.32 77.24 Z" />
<path fill="#fc594f" opacity="1.00" d=" M 25.20 104.24 C 28.75 102.61 32.31 105.58 32.91 109.07 C 39.45 131.67 58.68 150.01 81.59 155.41 C 84.43 156.19 88.33 156.49 89.33 159.85 C 90.79 163.62 87.01 167.93 83.06 166.79 C 54.38 161.73 29.68 139.00 22.24 110.84 C 21.35 108.26 22.64 105.24 25.20 104.24 Z" />
</g>
</svg>
