<?xml version="1.0" encoding="UTF-8" ?>
<!DOCTYPE svg PUBLIC "-//W3C//DTD SVG 1.1//EN" "http://www.w3.org/Graphics/SVG/1.1/DTD/svg11.dtd">
<svg width="192pt" height="192pt" viewBox="0 0 192 192" version="1.1" xmlns="http://www.w3.org/2000/svg">
<g id="#a71bffff">
<path fill="#a71bff" opacity="1.00" d=" M 99.97 43.88 C 114.73 40.53 130.97 45.69 141.16 56.86 C 149.67 65.86 153.56 78.63 152.52 90.88 C 166.33 92.49 177.88 104.97 177.66 119.00 C 178.12 133.61 165.57 146.99 150.96 147.43 C 118.31 147.56 85.66 147.46 53.01 147.46 C 38.31 147.36 24.25 138.27 17.99 125.00 C 11.15 111.15 13.50 93.38 23.81 81.86 C 34.48 69.20 53.30 64.78 68.58 71.04 C 73.71 57.52 85.76 46.83 99.97 43.88 M 104.39 54.53 C 91.34 56.34 80.30 66.96 77.73 79.86 C 77.22 84.69 71.21 86.21 67.77 83.27 C 52.61 73.73 30.44 82.98 26.34 100.34 C 21.14 116.92 34.61 135.72 51.98 136.08 C 84.32 136.34 116.66 136.12 149.00 136.16 C 159.02 136.66 167.80 126.92 166.25 117.00 C 165.27 107.86 156.04 100.90 146.96 102.35 C 142.89 103.37 138.81 99.18 140.27 95.15 C 143.32 84.02 140.18 71.26 131.69 63.31 C 124.62 56.30 114.22 53.02 104.39 54.53 Z" />
</g>
</svg>
