<?xml version="1.0" encoding="UTF-8" ?>
<!DOCTYPE svg PUBLIC "-//W3C//DTD SVG 1.1//EN" "http://www.w3.org/Graphics/SVG/1.1/DTD/svg11.dtd">
<svg width="192pt" height="192pt" viewBox="0 0 192 192" version="1.1" xmlns="http://www.w3.org/2000/svg">
<g id="#19b0ffff">
<path fill="#19b0ff" opacity="1.00" d=" M 39.29 21.35 C 74.45 19.93 109.78 21.15 145.00 20.72 C 158.22 19.76 170.37 31.80 169.51 45.03 C 169.54 48.97 164.73 51.72 161.36 49.66 C 158.40 48.32 158.53 44.76 158.09 42.06 C 157.36 35.85 151.07 31.43 145.01 31.82 C 111.67 31.84 78.31 31.77 44.97 31.81 C 39.27 31.70 33.60 35.88 32.66 41.61 C 32.14 44.19 32.56 47.44 30.12 49.14 C 27.16 51.80 21.94 49.71 21.36 45.87 C 20.17 34.75 28.42 23.70 39.29 21.35 Z" />
<path fill="#19b0ff" opacity="1.00" d=" M 22.05 54.68 C 28.72 54.38 35.40 54.89 42.05 55.22 C 46.03 55.28 48.77 59.17 48.60 62.93 C 49.26 69.17 47.16 77.50 40.36 79.34 C 33.41 79.86 26.40 79.53 19.44 79.45 C 19.98 71.17 20.98 62.91 22.05 54.68 M 28.49 61.12 C 28.24 65.20 27.39 69.25 27.57 73.36 C 31.33 73.28 35.13 73.54 38.87 73.03 C 41.80 70.40 42.94 64.93 40.30 61.75 C 36.52 60.51 32.41 60.82 28.49 61.12 Z" />
<path fill="#19b0ff" opacity="1.00" d=" M 51.87 54.94 C 59.05 55.14 66.36 54.26 73.46 55.57 C 79.65 56.75 80.64 65.54 76.43 69.41 C 73.28 72.37 77.05 76.18 77.99 79.30 C 75.00 79.38 71.78 80.11 68.94 79.04 C 66.82 76.00 66.06 70.32 61.01 71.64 C 55.76 70.69 58.99 77.42 56.06 79.37 C 53.72 79.66 51.36 79.43 49.03 79.26 C 49.52 71.11 50.52 62.99 51.87 54.94 M 59.23 61.21 C 59.17 62.52 59.11 63.83 59.05 65.14 C 62.69 65.17 66.35 65.41 69.98 65.04 C 72.23 64.97 72.20 61.22 69.93 61.29 C 66.38 60.87 62.79 61.15 59.23 61.21 Z" />
<path fill="#19b0ff" opacity="1.00" d=" M 80.19 68.97 C 80.36 63.36 82.63 56.12 89.07 55.23 C 95.85 54.65 102.67 55.05 109.47 55.03 C 109.23 56.90 108.93 58.76 108.58 60.61 C 102.74 61.22 96.87 60.95 91.02 61.24 C 89.71 61.10 89.66 62.85 88.97 63.58 C 95.43 64.23 101.93 63.72 108.40 63.96 C 108.28 65.87 108.09 67.77 107.78 69.66 C 101.41 69.78 95.04 69.63 88.68 69.77 C 88.75 70.53 88.90 72.06 88.98 72.83 C 95.10 73.10 101.24 72.77 107.37 73.15 C 107.33 75.29 107.05 77.41 106.56 79.49 C 99.62 79.37 92.62 79.96 85.71 79.18 C 81.02 78.37 79.82 72.99 80.19 68.97 Z" />
<path fill="#19b0ff" opacity="1.00" d=" M 109.19 79.14 C 111.16 71.06 107.79 56.88 118.99 55.09 C 125.11 54.58 134.35 52.71 137.92 59.13 C 138.62 65.86 136.93 72.70 136.23 79.42 C 133.88 79.46 131.54 79.41 129.20 79.23 C 129.28 76.87 129.36 74.52 129.36 72.16 C 125.42 72.08 121.47 72.02 117.53 72.29 C 117.32 74.47 117.31 76.70 116.61 78.79 C 114.51 80.27 111.60 79.21 109.19 79.14 M 118.28 65.54 C 122.58 65.27 132.10 68.63 130.79 61.30 C 126.40 60.62 117.72 58.54 118.28 65.54 Z" />
<path fill="#19b0ff" opacity="1.00" d=" M 141.27 55.18 C 149.50 54.53 157.78 54.97 166.03 54.89 C 169.27 54.66 173.24 56.29 173.46 59.99 C 173.61 66.55 172.48 73.10 171.50 79.57 C 169.28 79.62 167.07 79.53 164.89 79.15 C 164.94 73.47 166.63 67.89 166.05 62.19 C 164.34 62.16 162.63 62.15 160.92 62.16 C 159.99 67.96 159.88 73.87 158.58 79.60 C 156.37 79.56 154.16 79.46 151.97 79.20 C 152.40 73.49 153.36 67.84 153.78 62.14 C 151.93 61.95 150.07 61.88 148.21 61.98 C 147.01 67.80 146.86 73.78 145.60 79.60 C 143.24 79.57 140.88 79.48 138.54 79.26 C 139.17 71.21 140.05 63.17 141.27 55.18 Z" />
<path fill="#19b0ff" opacity="1.00" d=" M 21.45 83.37 C 23.61 83.26 25.79 83.21 27.96 83.23 C 28.79 88.71 26.41 94.17 27.41 99.63 C 32.31 101.82 38.15 99.98 43.40 100.70 C 43.41 102.88 43.36 105.06 43.26 107.24 C 35.98 106.76 27.26 109.59 20.98 105.06 C 17.85 98.37 20.98 90.46 21.45 83.37 Z" />
<path fill="#19b0ff" opacity="1.00" d=" M 51.24 84.19 C 57.50 82.33 64.30 83.56 70.76 83.45 C 70.58 85.24 70.32 87.02 70.01 88.80 C 64.57 89.54 59.03 88.55 53.63 89.63 C 53.55 90.24 53.39 91.47 53.32 92.09 C 58.79 92.46 64.28 92.15 69.76 92.35 C 69.72 94.10 69.63 95.85 69.54 97.60 C 64.08 98.44 58.55 97.50 53.06 97.74 C 53.10 98.52 53.19 100.06 53.24 100.83 C 58.49 101.06 63.76 100.78 69.02 101.16 C 68.91 103.20 68.68 105.22 68.30 107.23 C 61.49 106.48 53.69 109.03 47.54 105.46 C 43.64 99.12 44.89 88.62 51.24 84.19 Z" />
<path fill="#19b0ff" opacity="1.00" d=" M 73.04 88.12 C 75.41 82.10 82.89 83.31 88.05 83.26 C 91.49 82.95 95.90 84.98 95.60 88.99 C 95.49 94.93 95.00 100.94 93.86 106.77 C 92.14 107.69 90.09 107.09 88.24 107.11 C 88.22 104.82 88.23 102.52 88.20 100.23 C 84.78 100.06 81.36 99.87 77.94 99.93 C 77.64 102.31 77.37 104.70 77.09 107.10 C 75.10 107.22 73.09 107.25 71.09 107.17 C 71.11 100.80 71.38 94.29 73.04 88.12 M 79.19 89.24 C 79.01 90.76 78.85 92.27 78.72 93.79 C 82.19 93.96 85.67 93.94 89.14 93.78 C 89.19 92.26 89.19 90.74 89.15 89.23 C 85.83 89.08 82.51 89.07 79.19 89.24 Z" />
<path fill="#19b0ff" opacity="1.00" d=" M 104.37 83.48 C 110.16 82.99 115.99 83.30 121.80 83.37 C 121.72 85.14 121.64 86.90 121.54 88.66 C 116.20 89.70 110.72 88.54 105.38 89.46 C 103.19 92.41 102.54 96.82 103.75 100.22 C 106.66 101.80 110.44 100.73 113.69 100.87 C 114.10 98.58 114.49 96.29 114.93 94.00 C 116.90 94.02 118.88 94.06 120.85 94.15 C 120.60 98.36 120.01 102.53 119.53 106.71 C 113.42 107.22 107.18 107.62 101.09 106.86 C 96.34 105.76 96.36 99.90 96.50 96.03 C 96.75 91.04 98.71 84.49 104.37 83.48 Z" />
<path fill="#19b0ff" opacity="1.00" d=" M 123.56 83.56 C 125.69 83.39 127.83 83.32 129.97 83.31 C 129.83 88.94 128.59 94.49 128.65 100.13 C 132.07 100.36 135.51 100.42 138.93 100.25 C 139.73 94.60 139.53 88.81 140.93 83.26 C 142.97 83.26 145.01 83.28 147.04 83.32 C 146.61 91.14 145.92 99.03 144.63 106.74 C 141.51 108.31 137.48 107.09 134.00 107.46 C 130.09 107.25 124.10 108.38 122.48 103.65 C 121.46 96.97 123.28 90.25 123.56 83.56 Z" />
<path fill="#19b0ff" opacity="1.00" d=" M 153.22 84.08 C 159.54 82.48 166.34 83.24 172.80 83.63 C 172.51 85.36 172.21 87.09 171.87 88.81 C 166.43 90.56 158.35 86.32 154.75 91.68 C 160.44 92.12 166.14 92.07 171.83 92.39 C 171.66 94.20 171.45 95.99 171.19 97.79 C 165.60 97.73 160.00 97.67 154.41 97.81 C 154.60 98.52 154.99 99.94 155.19 100.65 C 160.39 101.39 165.68 100.56 170.90 101.22 C 170.81 103.23 170.63 105.24 170.35 107.24 C 163.62 106.62 156.27 108.65 149.95 105.99 C 145.23 99.77 146.55 88.53 153.22 84.08 Z" />
<path fill="#19b0ff" opacity="1.00" d=" M 23.09 111.98 C 29.02 110.51 35.24 111.50 41.29 111.22 C 41.24 113.24 41.08 115.26 40.87 117.27 C 35.54 117.79 30.15 117.02 24.84 117.78 C 22.98 119.80 26.50 120.52 27.97 120.29 C 31.76 120.73 36.70 119.14 39.49 122.55 C 42.06 126.72 40.45 134.13 34.93 134.85 C 29.03 135.50 23.06 135.23 17.13 135.11 C 17.21 133.24 17.32 131.38 17.48 129.53 C 23.40 129.14 29.35 129.54 35.27 129.14 C 34.48 123.97 27.59 127.61 23.99 126.28 C 15.94 126.35 16.24 113.78 23.09 111.98 Z" />
<path fill="#19b0ff" opacity="1.00" d=" M 48.29 111.35 C 53.34 110.55 58.67 110.50 63.71 111.41 C 68.74 113.29 67.68 119.70 67.55 123.96 C 67.30 128.93 65.37 136.16 59.00 135.56 C 53.71 134.74 45.77 138.02 42.54 132.45 C 40.77 125.47 40.98 115.06 48.29 111.35 M 46.45 121.21 C 51.60 123.35 50.68 127.80 47.90 131.62 C 49.96 130.39 52.01 129.16 54.07 127.93 C 55.86 129.10 57.60 130.34 59.34 131.58 C 57.34 126.64 59.87 123.01 64.29 120.94 C 59.29 122.05 56.10 119.44 56.59 114.23 C 55.25 118.79 51.48 122.24 46.45 121.21 Z" />
<path fill="#19b0ff" opacity="1.00" d=" M 76.28 111.35 C 82.25 110.61 88.32 111.08 94.33 111.09 C 94.29 112.95 94.55 114.93 93.68 116.66 C 88.49 118.28 82.82 116.12 77.63 117.64 C 75.51 120.49 74.32 125.52 76.32 128.61 C 81.69 129.73 87.26 128.47 92.66 129.42 C 92.55 131.36 92.41 133.29 92.25 135.23 C 86.01 135.70 79.69 135.75 73.45 135.30 C 68.89 134.32 68.42 128.83 68.55 125.01 C 68.79 119.77 70.32 112.73 76.28 111.35 Z" />
<path fill="#19b0ff" opacity="1.00" d=" M 102.37 111.48 C 108.25 110.97 114.18 111.35 120.08 111.27 C 119.99 113.02 120.58 115.01 119.59 116.59 C 114.32 117.95 108.76 116.38 103.44 117.46 C 101.29 120.44 100.62 125.36 102.44 128.45 C 107.43 129.76 112.71 128.72 117.79 129.49 C 119.28 130.89 117.94 133.45 118.17 135.29 C 111.82 135.52 105.38 135.91 99.06 135.19 C 94.34 133.85 94.46 127.98 94.62 124.03 C 95.00 119.10 96.74 112.58 102.37 111.48 Z" />
<path fill="#19b0ff" opacity="1.00" d=" M 128.36 111.47 C 134.27 110.95 140.23 111.34 146.16 111.30 C 146.02 113.11 145.85 114.92 145.65 116.73 C 140.25 118.83 130.86 113.85 128.37 120.15 C 134.13 120.45 139.92 119.87 145.65 120.59 C 145.38 122.34 145.09 124.09 144.77 125.84 C 139.20 126.38 133.60 125.96 128.01 126.20 C 128.09 126.84 128.24 128.13 128.31 128.77 C 133.65 129.40 139.03 128.93 144.38 129.09 C 144.44 131.15 144.32 133.22 144.13 135.28 C 137.79 135.62 131.37 135.87 125.05 135.22 C 120.44 133.75 120.43 128.02 120.61 124.04 C 121.08 119.14 122.71 112.54 128.36 111.47 Z" />
<path fill="#19b0ff" opacity="1.00" d=" M 148.42 113.25 C 148.66 110.97 151.29 111.29 152.95 111.19 C 157.74 111.26 162.61 110.78 167.35 111.64 C 173.16 113.20 174.26 121.37 170.39 125.45 C 167.66 128.52 170.84 132.18 171.74 135.32 C 169.31 135.49 166.83 135.96 164.41 135.50 C 161.96 133.83 162.04 130.13 159.84 128.20 C 157.93 128.02 156.01 128.13 154.10 128.18 C 153.79 130.59 153.54 133.01 153.24 135.42 C 150.85 135.54 148.47 135.51 146.10 135.20 C 146.67 127.86 147.35 120.52 148.42 113.25 M 155.37 117.41 C 155.23 118.73 155.10 120.05 154.98 121.37 C 158.65 121.55 162.35 121.60 166.00 121.02 C 166.61 115.06 158.96 118.02 155.37 117.41 Z" />
<path fill="#19b0ff" opacity="1.00" d=" M 24.22 141.12 C 27.70 139.36 32.35 141.93 32.23 145.96 C 32.32 152.67 38.13 158.77 45.00 158.33 C 78.67 158.32 112.33 158.33 146.00 158.29 C 153.03 158.60 158.59 152.13 158.55 145.34 C 158.72 139.72 167.63 138.89 169.20 144.12 C 171.24 156.90 159.75 169.41 146.98 169.51 C 112.67 169.59 78.35 169.56 44.03 169.51 C 33.55 169.44 23.91 161.39 21.78 151.15 C 21.02 147.76 20.41 142.93 24.22 141.12 Z" />
</g>
</svg>
