<?xml version="1.0" encoding="UTF-8" ?>
<!DOCTYPE svg PUBLIC "-//W3C//DTD SVG 1.1//EN" "http://www.w3.org/Graphics/SVG/1.1/DTD/svg11.dtd">
<svg width="192pt" height="192pt" viewBox="0 0 192 192" version="1.1" xmlns="http://www.w3.org/2000/svg">
<g id="#1bb3ffff">
<path fill="#1bb3ff" opacity="1.00" d=" M 91.30 15.35 C 95.80 13.40 101.23 14.97 104.29 18.72 C 124.22 40.15 143.17 63.55 153.76 91.14 C 160.09 106.86 160.49 125.01 153.67 140.65 C 145.84 159.27 128.71 173.72 108.89 177.89 C 90.71 182.05 70.89 177.29 56.35 165.68 C 36.52 150.44 27.47 122.82 34.70 98.83 C 43.00 70.76 61.41 47.12 80.51 25.49 C 84.05 22.08 86.79 17.56 91.30 15.35 M 93.40 27.52 C 78.57 41.84 66.21 58.92 55.64 76.66 C 48.47 89.58 42.04 103.85 42.85 118.96 C 43.84 139.27 57.67 158.13 76.71 165.23 C 96.35 173.06 120.40 167.24 134.35 151.37 C 147.00 137.74 151.33 117.21 145.46 99.58 C 137.12 74.29 120.39 52.78 103.07 32.96 C 100.56 30.23 97.78 25.75 93.40 27.52 Z" />
<path fill="#1bb3ff" opacity="1.00" d=" M 56.35 114.37 C 59.68 112.30 64.11 115.09 64.25 118.86 C 66.24 132.21 77.56 143.26 90.89 145.18 C 96.72 145.74 96.64 155.13 90.82 155.60 C 72.20 154.43 56.22 138.27 53.79 119.98 C 53.35 117.81 54.39 115.43 56.35 114.37 Z" />
</g>
</svg>
