<?xml version="1.0" encoding="UTF-8" ?>
<!DOCTYPE svg PUBLIC "-//W3C//DTD SVG 1.1//EN" "http://www.w3.org/Graphics/SVG/1.1/DTD/svg11.dtd">
<svg width="192pt" height="192pt" viewBox="0 0 192 192" version="1.1" xmlns="http://www.w3.org/2000/svg">
<g id="#ff3662ff">
<path fill="#ff3662" opacity="1.00" d=" M 37.29 21.31 C 72.78 19.96 108.43 21.12 143.99 20.72 C 156.31 20.08 167.79 30.61 168.12 42.96 C 168.22 54.96 168.42 66.99 168.03 78.97 C 167.43 84.96 157.79 84.89 157.17 78.95 C 156.63 66.97 157.31 54.95 156.87 42.96 C 156.44 36.58 150.33 31.59 144.03 31.85 C 110.34 31.81 76.65 31.79 42.95 31.84 C 37.29 31.73 31.76 35.78 30.59 41.39 C 29.58 48.14 31.03 55.06 29.84 61.78 C 28.36 66.56 20.84 66.48 19.42 61.72 C 18.60 55.84 19.19 49.85 19.09 43.93 C 18.99 33.37 27.01 23.54 37.29 21.31 Z" />
<path fill="#ff3662" opacity="1.00" d=" M 91.74 80.96 C 91.52 77.59 94.61 74.83 97.91 75.16 C 108.95 75.05 119.99 75.20 131.02 75.09 C 133.66 75.10 136.90 74.94 138.58 77.43 C 141.40 80.84 138.57 86.74 134.04 86.38 C 123.74 86.52 113.43 86.42 103.12 86.39 C 102.99 94.29 103.23 102.19 103.02 110.08 C 103.55 118.94 86.20 118.90 86.95 110.02 C 87.01 107.24 89.71 105.92 91.70 104.56 C 91.75 96.70 91.57 88.83 91.74 80.96 Z" />
<path fill="#ff3662" opacity="1.00" d=" M 23.82 81.03 C 24.29 76.69 30.21 74.58 33.34 77.61 C 38.39 82.69 40.12 90.05 40.73 96.97 C 55.18 87.55 78.10 97.32 79.11 115.19 C 87.71 114.21 93.53 121.77 98.21 127.82 C 100.16 130.87 103.75 133.86 102.78 137.86 C 102.01 141.86 96.34 143.29 93.58 140.47 C 89.60 136.14 87.07 130.13 81.85 127.14 C 77.47 127.45 76.43 133.83 72.02 134.44 C 68.46 135.16 64.75 131.65 65.69 128.04 C 66.81 123.65 68.59 119.15 67.51 114.55 C 66.15 107.36 57.72 103.59 51.04 104.86 C 44.80 106.33 41.19 112.06 38.18 117.21 C 35.54 121.77 27.72 119.16 28.20 113.96 C 29.05 106.07 30.76 97.80 27.93 90.09 C 26.79 86.96 23.13 84.69 23.82 81.03 Z" />
<path fill="#ff3662" opacity="1.00" d=" M 140.40 86.91 C 139.72 82.57 144.86 79.16 148.64 81.32 C 151.97 82.86 151.66 86.94 151.77 90.01 C 159.19 90.91 167.69 93.41 171.20 100.70 C 176.34 110.13 169.83 123.94 158.23 122.90 C 158.53 119.29 158.92 115.69 159.21 112.08 C 160.01 111.40 160.82 110.72 161.63 110.05 C 162.40 100.96 151.17 101.44 144.98 101.17 C 138.44 99.84 140.71 91.69 140.40 86.91 Z" />
<path fill="#ff3662" opacity="1.00" d=" M 113.40 103.51 C 120.88 101.35 128.45 109.38 125.61 116.71 C 123.45 124.76 111.22 125.83 107.27 118.70 C 103.48 113.15 106.78 104.81 113.40 103.51 Z" />
<path fill="#ff3662" opacity="1.00" d=" M 140.32 104.32 C 146.79 102.84 153.35 109.18 151.69 115.71 C 150.42 123.16 139.75 125.82 135.06 119.92 C 130.13 114.86 133.30 105.32 140.32 104.32 Z" />
<path fill="#ff3662" opacity="1.00" d=" M 22.27 125.25 C 25.30 123.72 29.43 125.69 30.01 129.06 C 30.75 135.30 29.84 141.61 30.43 147.86 C 31.11 153.90 36.94 158.66 42.99 158.33 C 76.66 158.34 110.34 158.32 144.01 158.32 C 150.78 158.80 157.13 152.91 156.95 146.08 C 157.43 142.18 155.68 137.07 159.32 134.27 C 162.41 131.72 167.76 133.98 168.05 137.99 C 168.47 144.02 168.62 150.43 165.97 156.02 C 162.16 164.36 153.13 169.84 143.99 169.56 C 110.00 169.52 76.00 169.60 42.01 169.51 C 30.74 169.49 20.47 160.22 19.28 149.02 C 18.82 143.00 19.06 136.95 19.06 130.92 C 18.95 128.60 20.08 126.20 22.27 125.25 Z" />
</g>
</svg>
