<?xml version="1.0" encoding="UTF-8" ?>
<!DOCTYPE svg PUBLIC "-//W3C//DTD SVG 1.1//EN" "http://www.w3.org/Graphics/SVG/1.1/DTD/svg11.dtd">
<svg width="192pt" height="192pt" viewBox="0 0 192 192" version="1.1" xmlns="http://www.w3.org/2000/svg">
<g id="#8b8c7cff">
<path fill="#8b8c7c" opacity="1.00" d=" M 82.41 12.51 C 103.77 9.51 126.54 15.05 143.49 28.54 C 148.42 33.08 141.30 41.09 136.14 36.89 C 113.17 19.48 79.37 18.31 55.43 34.41 C 52.64 36.01 49.73 39.37 46.22 37.71 C 42.23 36.35 41.40 30.32 44.98 28.00 C 55.85 19.75 68.90 14.42 82.41 12.51 Z" />
<path fill="#8b8c7c" opacity="1.00" d=" M 30.20 43.22 C 35.73 40.42 40.91 48.29 36.53 52.46 C 18.67 76.55 19.12 111.92 37.18 135.78 C 41.57 140.96 33.35 148.08 28.84 143.17 C 8.78 118.03 6.61 80.58 22.85 52.93 C 25.06 49.57 26.72 45.47 30.20 43.22 Z" />
<path fill="#8b8c7c" opacity="1.00" d=" M 152.36 43.33 C 154.59 41.91 157.83 42.44 159.43 44.57 C 179.53 70.29 181.33 108.38 164.12 136.07 C 161.67 139.51 159.83 144.67 155.01 145.14 C 150.11 144.89 147.60 138.59 151.11 135.09 C 168.85 111.40 169.02 76.40 151.48 52.55 C 149.00 49.93 148.95 45.19 152.36 43.33 Z" />
<path fill="#8b8c7c" opacity="1.00" d=" M 64.11 70.00 C 63.59 66.22 67.40 63.21 70.98 63.69 C 75.38 64.04 81.48 62.16 84.25 66.71 C 85.49 70.40 86.08 74.28 87.22 78.01 C 88.58 82.09 84.47 84.80 82.02 87.32 C 86.00 94.98 92.52 101.09 99.88 105.47 C 102.47 103.17 104.96 99.21 108.98 100.16 C 112.88 101.21 116.89 101.92 120.73 103.17 C 125.20 105.85 123.34 111.77 123.72 116.04 C 124.27 119.58 121.91 123.60 118.03 123.54 C 90.34 121.62 66.25 97.67 64.11 70.00 Z" />
<path fill="#8b8c7c" opacity="1.00" d=" M 47.38 149.40 C 50.46 148.73 52.82 151.30 55.23 152.74 C 79.02 168.86 112.66 167.87 135.66 150.70 C 140.49 146.24 148.06 153.74 143.59 158.58 C 115.89 181.07 72.89 181.08 44.87 159.11 C 41.23 156.43 42.95 150.02 47.38 149.40 Z" />
</g>
</svg>
