<?xml version="1.0" encoding="UTF-8" ?>
<!DOCTYPE svg PUBLIC "-//W3C//DTD SVG 1.1//EN" "http://www.w3.org/Graphics/SVG/1.1/DTD/svg11.dtd">
<svg width="192pt" height="192pt" viewBox="0 0 192 192" version="1.1" xmlns="http://www.w3.org/2000/svg">
<g id="#ff517dff">
<path fill="#ff517d" opacity="1.00" d=" M 21.09 42.94 C 20.94 31.25 31.32 20.73 43.02 20.77 C 77.34 20.68 111.67 20.79 146.00 20.71 C 151.39 20.65 157.24 21.93 161.19 25.83 C 164.51 29.35 163.99 35.28 160.43 38.44 C 144.61 54.28 128.80 70.14 112.97 85.97 C 111.27 88.22 107.69 88.28 105.97 86.02 C 97.98 77.69 90.01 69.31 82.17 60.84 C 78.16 56.59 85.73 48.86 89.91 53.12 C 96.63 59.82 102.93 66.95 109.62 73.69 C 123.32 59.73 137.37 46.11 150.93 32.02 C 115.63 31.16 80.27 31.91 44.95 31.62 C 38.53 31.00 31.99 36.28 32.12 42.92 C 32.04 77.63 32.07 112.36 32.11 147.08 C 31.93 153.35 37.71 158.81 43.93 158.52 C 78.31 158.53 112.69 158.54 147.06 158.50 C 153.23 158.71 158.93 153.30 158.82 147.09 C 158.98 118.05 158.71 89.00 158.95 59.96 C 158.71 53.17 169.99 53.21 169.77 59.96 C 169.95 88.99 169.85 118.03 169.84 147.05 C 170.10 158.81 159.73 169.46 147.96 169.51 C 112.99 169.59 78.00 169.56 43.03 169.50 C 31.23 169.50 20.82 158.84 21.07 147.05 C 21.03 112.35 21.03 77.64 21.09 42.94 Z" />
</g>
</svg>
