<?xml version="1.0" encoding="UTF-8" ?>
<!DOCTYPE svg PUBLIC "-//W3C//DTD SVG 1.1//EN" "http://www.w3.org/Graphics/SVG/1.1/DTD/svg11.dtd">
<svg width="192pt" height="192pt" viewBox="0 0 192 192" version="1.1" xmlns="http://www.w3.org/2000/svg">
<g id="#607080ff">
<path fill="#607080" opacity="1.00" d=" M 34.80 26.01 C 46.77 33.22 57.64 42.19 69.34 49.83 C 72.37 51.50 75.70 49.05 78.68 48.27 C 76.95 45.48 75.41 42.57 73.85 39.68 C 84.22 38.40 94.63 42.44 104.44 45.56 C 112.76 48.02 109.58 58.37 111.86 64.70 C 117.86 64.01 122.65 58.77 128.74 59.08 C 149.77 75.75 161.26 101.90 166.56 127.63 C 150.61 164.73 104.44 184.80 66.43 170.99 C 80.62 161.49 90.15 145.15 90.50 127.98 C 90.85 120.44 88.85 113.10 86.76 105.93 C 83.09 108.55 80.03 112.08 75.96 114.11 C 68.97 116.31 61.04 110.74 54.63 115.62 C 45.95 119.81 38.44 125.91 34.14 134.66 C 29.41 132.87 26.05 128.92 21.90 126.19 C 18.73 123.98 14.87 121.34 14.77 117.05 C 15.56 110.85 15.37 103.85 20.10 99.07 C 31.26 87.58 43.04 76.67 54.11 65.09 C 55.90 63.52 54.35 61.21 53.46 59.61 C 47.69 50.03 41.90 40.46 36.14 30.86 C 35.18 29.42 34.69 27.75 34.80 26.01 M 89.44 53.00 C 84.56 60.20 74.62 62.63 66.42 61.19 C 66.78 65.83 64.96 70.35 61.65 73.58 C 50.92 84.54 39.85 95.16 29.01 106.00 C 26.35 108.50 26.88 112.42 26.55 115.73 C 28.07 116.71 29.57 117.73 31.05 118.76 C 36.81 112.27 44.67 108.31 52.14 104.17 C 58.32 100.86 65.45 102.70 72.02 103.35 C 77.24 99.42 82.50 92.65 89.88 94.99 C 95.88 96.36 98.02 102.65 99.05 107.98 C 104.87 126.78 101.18 147.92 89.79 163.89 C 114.45 164.96 138.97 151.94 152.03 131.02 C 153.03 129.04 155.15 127.06 154.44 124.67 C 149.45 105.02 140.80 85.64 125.99 71.41 C 120.29 74.06 113.70 77.79 107.41 74.63 C 101.53 71.96 99.84 65.18 99.61 59.30 C 100.10 53.75 93.27 54.00 89.44 53.00 Z" />
<path fill="#607080" opacity="1.00" d=" M 86.74 27.02 C 114.95 26.35 143.62 37.24 163.25 57.75 C 166.87 61.83 172.29 65.00 173.30 70.76 C 176.62 82.97 177.21 95.94 174.75 108.37 C 164.56 87.84 155.66 65.51 137.17 50.80 C 131.56 44.92 124.75 52.90 118.40 52.86 C 117.23 47.97 118.65 42.74 117.06 37.98 C 107.58 32.81 96.21 32.22 86.74 27.02 Z" />
</g>
</svg>
