<?xml version="1.0" encoding="UTF-8" ?>
<!DOCTYPE svg PUBLIC "-//W3C//DTD SVG 1.1//EN" "http://www.w3.org/Graphics/SVG/1.1/DTD/svg11.dtd">
<svg width="192pt" height="192pt" viewBox="0 0 192 192" version="1.1" xmlns="http://www.w3.org/2000/svg">
<g id="#ff633bff">
<path fill="#ff633b" opacity="1.00" d=" M 12.10 46.91 C 11.75 43.11 15.35 40.25 18.98 40.74 C 55.66 40.77 92.35 40.65 129.03 40.80 C 136.45 41.03 134.67 50.02 134.82 55.01 C 135.63 59.31 133.29 65.25 128.00 64.23 C 122.53 63.35 122.90 56.83 122.83 52.64 C 89.83 52.69 56.83 52.62 23.83 52.66 C 23.82 72.16 23.82 91.67 23.84 111.18 C 52.91 111.27 81.97 111.12 111.04 111.23 C 115.05 110.88 118.32 115.14 117.07 118.94 C 116.16 122.38 112.08 123.05 109.05 123.11 C 80.65 123.16 52.25 123.09 23.84 123.15 C 23.82 126.96 23.77 130.78 23.98 134.59 C 56.97 134.62 89.97 134.57 122.96 134.61 C 123.18 115.37 122.96 96.13 123.05 76.90 C 122.87 73.43 125.51 70.69 128.63 69.62 C 141.53 64.24 154.34 58.65 167.16 53.07 C 171.65 50.92 176.40 55.34 175.80 59.94 C 175.65 82.96 175.78 105.99 175.64 129.01 C 175.84 133.35 170.67 136.23 167.01 134.01 C 159.05 129.99 150.94 126.20 143.13 121.89 C 138.19 118.96 141.16 110.42 146.86 111.29 C 152.85 113.00 158.08 116.70 163.79 119.15 C 163.75 101.98 163.92 84.80 163.70 67.63 C 154.70 71.17 145.90 75.21 136.98 78.94 C 135.12 79.34 134.64 81.30 134.79 82.95 C 134.80 101.99 134.83 121.04 134.79 140.08 C 135.21 143.83 131.72 147.10 128.01 146.55 C 91.34 146.52 54.66 146.60 17.99 146.50 C 14.57 146.71 11.77 143.41 12.07 140.09 C 12.05 109.03 12.00 77.96 12.10 46.91 Z" />
</g>
</svg>
