<?xml version="1.0" encoding="UTF-8" ?>
<!DOCTYPE svg PUBLIC "-//W3C//DTD SVG 1.1//EN" "http://www.w3.org/Graphics/SVG/1.1/DTD/svg11.dtd">
<svg width="192pt" height="192pt" viewBox="0 0 192 192" version="1.1" xmlns="http://www.w3.org/2000/svg">
<g id="#617080ff">
<path fill="#617080" opacity="1.00" d=" M 35.82 26.01 C 47.77 33.24 58.64 42.17 70.32 49.82 C 73.35 51.51 76.70 49.05 79.68 48.27 C 77.95 45.37 76.08 42.51 75.03 39.28 C 83.61 38.84 92.04 41.42 100.21 43.75 C 103.81 45.14 108.57 45.73 110.48 49.54 C 111.76 54.49 111.69 59.68 112.82 64.67 C 119.04 64.29 124.24 57.79 130.44 59.49 C 150.92 76.42 162.36 102.09 167.56 127.63 C 151.62 164.72 105.45 184.80 67.44 170.99 C 81.61 161.48 91.15 145.16 91.51 127.99 C 91.86 120.45 89.84 113.10 87.77 105.93 C 83.84 108.64 80.71 112.64 76.18 114.37 C 69.14 115.77 61.26 110.85 55.00 115.98 C 46.48 120.03 39.38 126.20 35.13 134.66 C 30.40 132.86 27.06 128.92 22.91 126.20 C 19.74 123.98 15.88 121.35 15.77 117.05 C 16.57 110.85 16.37 103.85 21.10 99.07 C 32.26 87.58 44.03 76.68 55.10 65.10 C 56.69 63.79 55.67 61.70 54.83 60.26 C 48.87 50.22 42.73 40.29 36.79 30.23 C 35.95 28.98 35.77 27.48 35.82 26.01 M 90.42 53.01 C 85.56 60.19 75.62 62.64 67.42 61.19 C 67.78 65.84 65.95 70.37 62.63 73.61 C 51.90 84.55 40.85 95.17 30.02 106.00 C 27.34 108.51 27.86 112.45 27.58 115.78 C 29.09 116.74 30.58 117.74 32.05 118.76 C 37.81 112.27 45.67 108.32 53.13 104.17 C 59.31 100.86 66.45 102.70 73.02 103.35 C 78.24 99.42 83.51 92.64 90.90 94.99 C 96.88 96.37 99.02 102.66 100.06 107.99 C 105.87 126.78 102.17 147.91 90.79 163.89 C 115.46 164.96 139.97 151.93 153.03 131.02 C 154.04 129.04 156.15 127.06 155.44 124.66 C 150.44 105.02 141.80 85.64 126.99 71.41 C 122.50 73.25 118.11 76.23 113.04 75.78 C 107.15 75.66 102.16 70.60 101.36 64.89 C 100.61 61.84 101.01 58.47 99.70 55.59 C 96.79 54.19 93.60 53.49 90.42 53.01 Z" />
<path fill="#617080" opacity="1.00" d=" M 87.86 27.04 C 115.78 26.38 144.20 37.07 163.74 57.27 C 167.51 61.52 173.20 64.79 174.31 70.77 C 177.62 82.97 178.21 95.93 175.76 108.35 C 165.55 87.84 156.66 65.50 138.17 50.81 C 132.56 44.93 125.76 52.89 119.40 52.87 C 118.20 47.99 119.70 42.70 118.02 37.99 C 108.62 32.78 97.25 32.27 87.86 27.04 Z" />
<path fill="#617080" opacity="1.00" d=" M 122.31 106.28 C 124.09 101.54 131.82 102.11 132.82 107.10 C 133.36 112.38 132.92 117.71 133.04 123.01 C 135.17 120.95 137.31 117.84 140.69 118.34 C 144.88 118.61 147.25 124.23 144.44 127.38 C 140.31 131.94 136.00 136.34 131.74 140.77 C 129.64 143.34 125.33 143.38 123.17 140.87 C 118.98 136.70 114.70 132.61 110.67 128.28 C 107.61 125.24 109.67 119.27 114.02 118.93 C 117.38 118.36 119.57 121.36 121.77 123.34 C 122.03 117.67 121.11 111.86 122.31 106.28 Z" />
</g>
</svg>
