<?xml version="1.0" encoding="UTF-8" ?>
<!DOCTYPE svg PUBLIC "-//W3C//DTD SVG 1.1//EN" "http://www.w3.org/Graphics/SVG/1.1/DTD/svg11.dtd">
<svg width="192pt" height="192pt" viewBox="0 0 192 192" version="1.1" xmlns="http://www.w3.org/2000/svg">
<g id="#6999b9ff">
<path fill="#6999b9" opacity="1.00" d=" M 40.28 21.32 C 75.44 19.95 110.77 21.14 145.99 20.72 C 158.88 19.73 171.03 30.97 170.80 43.93 C 170.85 77.97 170.83 112.02 170.80 146.06 C 171.14 158.34 160.32 169.44 148.06 169.50 C 113.69 169.57 79.31 169.56 44.95 169.51 C 32.62 169.50 21.79 158.37 22.07 146.05 C 22.03 112.01 22.02 77.97 22.07 43.93 C 21.99 33.37 29.99 23.54 40.28 21.32 M 42.28 32.36 C 36.82 33.80 32.83 39.27 33.26 44.93 C 33.29 78.64 33.25 112.35 33.28 146.06 C 33.03 152.82 39.27 158.77 45.99 158.34 C 79.66 158.35 113.33 158.35 147.00 158.34 C 153.71 158.72 159.83 152.78 159.66 146.07 C 159.71 112.03 159.74 77.97 159.65 43.93 C 159.73 36.86 152.89 31.26 146.02 31.81 C 111.45 32.18 76.77 31.09 42.28 32.36 Z" />
<path fill="#6999b9" opacity="1.00" d=" M 69.32 66.31 C 74.98 65.42 81.02 65.45 86.69 66.30 C 91.08 69.99 88.41 77.00 89.05 82.07 C 89.28 90.74 78.31 86.91 72.95 87.69 C 67.63 88.78 66.34 83.03 67.06 79.00 C 67.73 74.90 65.35 69.12 69.32 66.31 Z" />
<path fill="#6999b9" opacity="1.00" d=" M 106.27 66.23 C 111.73 65.40 117.39 65.65 122.89 66.07 C 127.32 67.67 125.47 73.42 125.90 77.00 C 125.91 80.89 126.93 88.07 121.01 87.69 C 115.66 86.73 107.50 90.32 104.18 84.83 C 104.70 78.89 101.62 70.74 106.27 66.23 Z" />
<path fill="#6999b9" opacity="1.00" d=" M 69.21 103.02 C 74.68 102.05 80.40 102.40 85.93 102.76 C 90.52 104.32 88.70 110.31 89.14 114.00 C 89.53 118.36 89.43 125.67 83.01 124.48 C 77.79 123.68 66.99 127.42 67.08 119.09 C 67.85 113.90 65.04 107.03 69.21 103.02 Z" />
<path fill="#6999b9" opacity="1.00" d=" M 106.16 102.97 C 111.65 102.08 117.37 102.33 122.90 102.78 C 127.43 104.44 125.44 110.33 125.92 114.00 C 126.27 118.30 126.43 125.61 120.01 124.48 C 114.75 123.68 103.79 127.48 103.95 119.06 C 104.80 113.88 101.79 106.84 106.16 102.97 Z" />
</g>
</svg>
