<?xml version="1.0" encoding="UTF-8" ?>
<!DOCTYPE svg PUBLIC "-//W3C//DTD SVG 1.1//EN" "http://www.w3.org/Graphics/SVG/1.1/DTD/svg11.dtd">
<svg width="192pt" height="192pt" viewBox="0 0 192 192" version="1.1" xmlns="http://www.w3.org/2000/svg">
<g id="#58987aff">
<path fill="#58987a" opacity="1.00" d=" M 40.29 21.34 C 43.81 20.59 47.43 20.73 51.00 20.73 C 83.33 20.80 115.67 20.67 148.00 20.78 C 160.19 20.76 171.00 31.75 170.79 43.93 C 170.85 77.97 170.84 112.02 170.81 146.06 C 171.08 157.60 161.49 168.23 150.02 169.26 C 144.70 169.57 139.31 169.88 134.00 169.28 C 128.96 168.11 128.70 160.14 133.66 158.65 C 139.53 157.51 145.69 159.24 151.49 157.49 C 156.67 155.81 160.02 150.43 159.69 145.06 C 159.65 111.35 159.76 77.63 159.64 43.93 C 159.71 37.28 153.59 31.68 147.04 31.86 C 113.69 31.71 80.33 31.87 46.97 31.78 C 40.09 31.22 33.08 36.78 33.31 43.93 C 33.27 77.97 33.33 112.02 33.30 146.06 C 33.12 151.69 37.50 156.95 43.01 157.94 C 49.50 158.96 56.12 157.66 62.61 158.58 C 67.66 159.70 67.93 167.75 62.95 169.21 C 56.68 169.98 50.31 169.39 44.00 169.35 C 32.08 168.88 21.85 157.98 22.10 146.05 C 22.07 112.01 22.07 77.97 22.12 43.93 C 21.98 33.38 30.03 23.56 40.29 21.34 Z" />
<path fill="#58987a" opacity="1.00" d=" M 78.29 71.37 C 82.37 70.68 86.65 70.69 90.73 71.36 C 95.38 72.93 95.49 80.29 90.79 81.89 C 86.69 82.69 82.30 82.74 78.21 81.84 C 73.70 80.17 73.74 72.95 78.29 71.37 Z" />
<path fill="#58987a" opacity="1.00" d=" M 78.22 90.26 C 82.34 89.55 86.66 89.57 90.79 90.24 C 95.40 91.87 95.45 99.13 90.80 100.74 C 86.69 101.50 82.35 101.50 78.25 100.71 C 73.75 99.09 73.68 91.89 78.22 90.26 Z" />
<path fill="#58987a" opacity="1.00" d=" M 105.34 90.34 C 109.43 89.46 113.74 89.65 117.87 90.15 C 122.52 91.47 123.00 98.75 118.51 100.61 C 114.49 101.61 110.20 101.38 106.12 100.85 C 101.25 99.78 100.77 92.19 105.34 90.34 Z" />
<path fill="#58987a" opacity="1.00" d=" M 49.38 108.32 C 53.37 106.90 57.83 107.35 61.96 107.79 C 66.89 108.65 67.68 116.26 63.17 118.28 C 59.26 119.28 55.11 118.96 51.13 118.65 C 46.20 118.11 45.07 110.54 49.38 108.32 Z" />
<path fill="#58987a" opacity="1.00" d=" M 77.41 108.39 C 81.34 106.84 85.83 107.38 89.96 107.76 C 94.97 108.51 95.88 116.21 91.30 118.23 C 87.23 119.61 82.69 119.47 78.54 118.49 C 74.16 117.33 73.45 110.53 77.41 108.39 Z" />
<path fill="#58987a" opacity="1.00" d=" M 105.23 108.11 C 109.32 107.05 113.73 107.24 117.87 107.88 C 122.59 109.15 122.97 116.57 118.40 118.32 C 114.28 119.53 109.72 119.55 105.59 118.39 C 101.20 116.83 100.97 109.98 105.23 108.11 Z" />
<path fill="#58987a" opacity="1.00" d=" M 51.41 124.61 C 55.22 124.30 59.23 123.96 62.96 125.03 C 67.36 126.79 67.18 134.05 62.60 135.41 C 58.38 136.00 53.90 136.24 49.74 135.21 C 44.98 133.13 46.08 124.98 51.41 124.61 Z" />
<path fill="#58987a" opacity="1.00" d=" M 79.41 124.63 C 83.23 124.28 87.23 123.98 90.97 124.99 C 95.52 126.68 95.33 134.15 90.62 135.44 C 86.40 135.99 81.92 136.26 77.78 135.18 C 73.15 133.04 74.20 125.13 79.41 124.63 Z" />
<path fill="#58987a" opacity="1.00" d=" M 134.39 124.58 C 138.22 124.32 142.25 123.91 145.96 125.09 C 150.24 127.02 149.95 134.03 145.42 135.41 C 141.25 136.05 136.83 136.20 132.69 135.27 C 127.73 133.23 128.90 124.81 134.39 124.58 Z" />
<path fill="#58987a" opacity="1.00" d=" M 105.21 125.06 C 109.31 123.98 113.73 124.16 117.88 124.82 C 122.69 126.14 122.93 133.73 118.21 135.36 C 114.09 136.11 109.74 136.11 105.62 135.36 C 101.24 133.80 100.95 126.96 105.21 125.06 Z" />
<path fill="#58987a" opacity="1.00" d=" M 49.40 141.41 C 53.38 140.04 57.81 140.54 61.94 140.89 C 66.76 141.70 67.73 149.18 63.32 151.27 C 59.20 152.71 54.54 152.49 50.32 151.60 C 45.96 150.24 45.39 143.55 49.40 141.41 Z" />
<path fill="#58987a" opacity="1.00" d=" M 77.41 141.48 C 81.36 139.98 85.85 140.56 89.99 140.87 C 94.93 141.64 95.87 149.22 91.37 151.32 C 87.47 152.68 83.14 152.39 79.12 151.79 C 74.35 151.01 73.23 143.80 77.41 141.48 Z" />
<path fill="#58987a" opacity="1.00" d=" M 105.25 141.19 C 109.35 140.23 113.72 140.38 117.87 141.00 C 122.58 142.22 122.97 149.63 118.46 151.42 C 114.32 152.63 109.72 152.55 105.55 151.52 C 101.16 149.91 101.02 143.08 105.25 141.19 Z" />
<path fill="#58987a" opacity="1.00" d=" M 132.38 141.32 C 136.41 140.12 140.80 140.47 144.93 140.92 C 149.67 141.92 150.52 149.17 146.17 151.29 C 142.08 152.70 137.47 152.48 133.27 151.64 C 128.75 150.35 128.17 143.38 132.38 141.32 Z" />
<path fill="#58987a" opacity="1.00" d=" M 79.34 158.50 C 83.30 158.00 87.45 157.79 91.36 158.71 C 95.90 160.38 95.85 167.58 91.28 169.18 C 87.18 169.92 82.85 169.94 78.76 169.16 C 73.87 167.50 74.25 159.55 79.34 158.50 Z" />
<path fill="#58987a" opacity="1.00" d=" M 107.30 158.38 C 111.19 158.09 115.29 157.69 119.07 158.85 C 123.39 160.80 123.02 168.03 118.33 169.24 C 114.28 169.88 109.99 170.00 105.97 169.10 C 100.94 167.29 101.87 158.82 107.30 158.38 Z" />
</g>
</svg>
