<?xml version="1.0" encoding="UTF-8" ?>
<!DOCTYPE svg PUBLIC "-//W3C//DTD SVG 1.1//EN" "http://www.w3.org/Graphics/SVG/1.1/DTD/svg11.dtd">
<svg width="192pt" height="192pt" viewBox="0 0 192 192" version="1.1" xmlns="http://www.w3.org/2000/svg">
<g id="#ff3662ff">
<path fill="#ff3662" opacity="1.00" d=" M 40.28 21.31 C 70.45 19.97 100.77 21.11 131.00 20.73 C 137.66 20.89 144.35 20.38 150.99 21.02 C 162.00 22.50 170.93 32.82 170.82 43.93 C 170.88 77.98 170.87 112.02 170.83 146.06 C 171.15 158.35 160.33 169.46 148.05 169.51 C 113.69 169.58 79.32 169.57 44.95 169.51 C 32.62 169.51 21.79 158.38 22.06 146.06 C 22.03 112.01 22.02 77.97 22.08 43.93 C 21.98 33.36 30.00 23.54 40.28 21.31 M 42.28 32.34 C 37.22 33.73 33.18 38.59 33.29 43.93 C 33.24 77.97 33.27 112.02 33.28 146.06 C 33.04 152.81 39.27 158.77 45.99 158.33 C 79.67 158.33 113.34 158.33 147.01 158.32 C 153.70 158.70 159.80 152.75 159.65 146.07 C 159.70 112.02 159.73 77.97 159.64 43.92 C 159.72 36.88 152.88 31.24 146.02 31.82 C 111.46 32.19 76.78 31.12 42.28 32.34 Z" />
<path fill="#ff3662" opacity="1.00" d=" M 100.39 40.26 C 102.91 43.80 104.63 48.47 102.78 52.71 C 99.56 60.40 90.86 63.80 87.31 71.32 C 84.16 76.61 84.94 82.96 86.46 88.63 C 79.32 81.27 78.62 68.31 85.51 60.52 C 90.97 54.17 98.18 48.78 100.39 40.26 Z" />
<path fill="#ff3662" opacity="1.00" d=" M 106.55 49.58 C 112.01 57.07 106.29 67.05 111.49 74.58 C 115.77 80.94 113.58 90.69 106.54 94.09 C 109.23 88.31 106.84 80.08 99.98 78.91 C 94.86 77.39 90.88 81.46 88.14 85.17 C 85.84 77.72 89.53 70.02 95.33 65.33 C 100.44 61.19 105.03 56.18 106.55 49.58 Z" />
<path fill="#ff3662" opacity="1.00" d=" M 97.34 81.28 C 106.30 79.92 107.94 94.63 99.01 95.49 C 89.72 97.28 87.87 81.53 97.34 81.28 Z" />
<path fill="#ff3662" opacity="1.00" d=" M 97.40 97.36 C 102.28 96.61 109.06 98.95 108.41 104.97 C 107.60 112.66 109.44 121.19 105.03 128.00 C 103.56 135.24 103.54 142.73 102.08 149.98 C 100.32 152.31 95.72 152.51 93.91 150.08 C 91.23 141.22 93.37 131.03 88.20 122.95 C 87.76 116.12 87.15 109.22 87.49 102.37 C 88.38 97.89 93.68 97.44 97.40 97.36 Z" />
</g>
</svg>
