<?xml version="1.0" encoding="UTF-8" ?>
<!DOCTYPE svg PUBLIC "-//W3C//DTD SVG 1.1//EN" "http://www.w3.org/Graphics/SVG/1.1/DTD/svg11.dtd">
<svg width="192pt" height="192pt" viewBox="0 0 192 192" version="1.1" xmlns="http://www.w3.org/2000/svg">
<g id="#43e273ff">
<path fill="#43e273" opacity="1.00" d=" M 22.06 31.95 C 21.74 24.29 28.17 16.77 35.99 16.74 C 74.99 16.73 114.00 16.72 153.01 16.74 C 160.76 16.84 167.19 24.32 166.84 31.94 C 166.69 37.10 167.29 42.33 166.48 47.44 C 163.73 53.17 156.22 49.94 151.27 50.98 C 151.29 88.33 151.27 125.68 151.28 163.03 C 151.77 166.63 148.63 169.96 145.00 169.55 C 111.34 169.57 77.67 169.56 44.01 169.54 C 40.82 169.89 37.56 167.38 37.73 164.03 C 37.61 126.36 37.75 88.69 37.67 51.02 C 32.71 49.86 25.28 53.18 22.47 47.46 C 21.53 42.37 22.24 37.10 22.06 31.95 M 32.94 39.81 C 73.94 39.95 114.94 39.82 155.93 39.87 C 155.53 35.79 157.87 28.14 151.85 27.56 C 113.62 27.44 75.38 27.47 37.15 27.54 C 31.12 27.97 33.22 35.73 32.94 39.81 M 48.53 51.18 C 48.66 86.94 48.56 122.70 48.59 158.46 C 78.69 158.61 108.79 158.49 138.90 158.51 C 140.92 158.81 140.09 156.16 140.31 155.03 C 140.20 120.31 140.35 85.60 140.24 50.88 C 109.68 51.00 79.07 50.39 48.53 51.18 Z" />
<path fill="#43e273" opacity="1.00" d=" M 77.39 73.47 C 81.15 70.94 86.33 74.59 85.68 78.93 C 85.59 98.24 85.92 117.57 85.52 136.87 C 84.72 142.97 74.75 142.17 74.82 136.03 C 74.62 117.36 74.83 98.68 74.73 80.01 C 74.57 77.57 75.06 74.77 77.39 73.47 Z" />
<path fill="#43e273" opacity="1.00" d=" M 106.26 73.23 C 110.07 71.17 114.74 74.80 114.14 78.96 C 114.14 97.99 114.26 117.03 114.08 136.05 C 114.13 142.17 104.24 142.96 103.40 136.87 C 102.97 117.91 103.37 98.92 103.20 79.95 C 103.01 77.39 103.64 74.36 106.26 73.23 Z" />
</g>
</svg>
