<?xml version="1.0" encoding="UTF-8" ?>
<!DOCTYPE svg PUBLIC "-//W3C//DTD SVG 1.1//EN" "http://www.w3.org/Graphics/SVG/1.1/DTD/svg11.dtd">
<svg width="192pt" height="192pt" viewBox="0 0 192 192" version="1.1" xmlns="http://www.w3.org/2000/svg">
<g id="#ff623cff">
<path fill="#ff623c" opacity="1.00" d=" M 88.37 16.26 C 89.94 11.65 97.24 11.61 98.84 16.22 C 99.84 20.35 99.10 24.68 99.31 28.90 C 108.41 30.38 117.40 34.44 123.37 41.64 C 126.26 44.99 123.43 50.86 119.00 50.64 C 116.11 50.89 114.38 48.24 112.40 46.62 C 108.80 43.25 104.07 41.50 99.37 40.31 C 99.25 56.09 99.35 71.86 99.32 87.64 C 116.45 89.51 131.99 104.24 131.81 122.00 C 132.53 140.10 116.80 155.49 99.32 157.30 C 99.16 161.48 99.76 165.76 98.95 169.89 C 97.39 174.70 89.75 174.65 88.29 169.79 C 87.55 165.57 88.17 161.23 87.83 156.97 C 71.56 154.30 57.44 139.86 57.41 122.99 C 56.75 118.44 62.59 114.96 66.21 117.84 C 69.37 119.75 68.45 123.84 69.21 126.89 C 71.00 136.16 79.00 143.14 87.91 145.45 C 87.94 129.70 88.08 113.94 87.83 98.19 C 70.76 95.58 56.26 79.66 57.45 62.04 C 58.11 45.47 72.14 31.98 88.01 29.12 C 88.10 24.85 87.51 20.47 88.37 16.26 M 68.71 63.00 C 68.19 74.34 77.25 84.15 87.91 86.78 C 87.92 71.45 88.13 56.11 87.78 40.78 C 77.69 43.38 69.02 52.26 68.71 63.00 M 99.35 99.04 C 99.30 114.64 99.33 130.24 99.33 145.83 C 110.70 143.97 120.92 133.99 120.48 122.01 C 120.42 110.35 110.36 101.02 99.35 99.04 Z" />
</g>
</svg>
