<?xml version="1.0" encoding="UTF-8" ?>
<!DOCTYPE svg PUBLIC "-//W3C//DTD SVG 1.1//EN" "http://www.w3.org/Graphics/SVG/1.1/DTD/svg11.dtd">
<svg width="192pt" height="192pt" viewBox="0 0 192 192" version="1.1" xmlns="http://www.w3.org/2000/svg">
<g id="#ff633bff">
<path fill="#ff633b" opacity="1.00" d=" M 39.37 21.53 C 43.16 20.53 47.12 20.74 51.00 20.72 C 83.33 20.78 115.67 20.67 148.00 20.76 C 160.21 20.72 171.00 31.75 170.82 43.93 C 170.75 53.24 171.15 62.59 170.63 71.88 C 169.80 77.41 160.89 77.42 159.93 71.95 C 159.23 62.33 160.05 52.64 159.57 43.00 C 159.18 36.74 153.22 31.73 147.04 31.86 C 113.35 31.80 79.66 31.80 45.96 31.84 C 39.73 31.65 33.66 36.63 33.32 42.98 C 32.85 52.62 33.68 62.31 32.95 71.92 C 32.00 77.40 23.16 77.41 22.27 71.90 C 21.75 62.60 22.17 53.25 22.07 43.93 C 21.98 33.68 29.51 24.10 39.37 21.53 Z" />
<path fill="#ff633b" opacity="1.00" d=" M 118.74 78.69 C 121.68 77.94 124.75 78.30 127.74 78.37 C 128.12 86.70 128.66 95.18 127.43 103.45 C 125.39 110.25 116.67 108.43 111.26 108.57 C 111.05 106.06 111.02 103.54 111.09 101.02 C 113.44 100.70 116.00 101.05 118.18 99.96 C 119.02 92.90 117.88 85.75 118.74 78.69 Z" />
<path fill="#ff633b" opacity="1.00" d=" M 157.22 79.73 C 160.16 79.43 163.12 79.42 166.07 79.68 C 166.15 81.23 166.23 82.77 166.30 84.32 C 171.10 83.79 171.07 87.84 170.63 91.46 C 169.18 91.59 167.73 91.71 166.28 91.83 C 166.28 95.05 166.27 98.28 166.30 101.50 C 167.75 101.80 169.20 102.10 170.65 102.42 C 170.66 104.47 170.66 106.53 170.63 108.59 C 166.55 108.98 161.28 110.12 158.06 106.99 C 156.25 102.31 157.41 97.08 157.07 92.18 C 156.07 91.79 155.07 91.40 154.07 91.01 C 154.06 89.08 154.07 87.15 154.12 85.22 C 154.85 85.03 156.31 84.65 157.04 84.45 C 157.09 82.88 157.15 81.30 157.22 79.73 Z" />
<path fill="#ff633b" opacity="1.00" d=" M 21.31 90.11 C 22.26 82.99 31.37 84.14 36.56 84.71 C 43.24 85.53 42.55 93.73 41.93 98.66 C 38.02 98.80 34.11 98.77 30.19 98.76 C 30.24 100.11 30.28 101.47 30.33 102.83 C 30.87 102.87 31.96 102.96 32.51 103.00 C 32.84 102.36 33.52 101.08 33.85 100.44 C 36.52 100.38 39.19 100.37 41.86 100.44 C 43.65 110.56 29.78 110.53 23.58 107.47 C 19.31 102.97 21.39 95.75 21.31 90.11 M 30.38 90.40 C 30.31 91.43 30.23 92.47 30.15 93.51 C 30.85 93.52 32.26 93.52 32.96 93.53 C 32.89 92.46 32.82 91.39 32.76 90.33 C 32.16 90.34 30.98 90.38 30.38 90.40 Z" />
<path fill="#ff633b" opacity="1.00" d=" M 50.64 84.72 C 55.31 84.33 62.33 83.07 64.88 88.15 C 66.06 94.82 65.20 101.70 65.35 108.46 C 62.40 108.71 59.36 108.89 56.55 107.81 C 53.45 109.31 49.38 109.85 46.60 107.42 C 44.30 104.74 44.28 100.58 45.40 97.38 C 47.56 93.45 52.76 94.37 56.50 94.11 C 56.43 93.21 56.28 91.41 56.21 90.51 C 55.14 91.42 54.09 92.35 53.04 93.28 C 50.44 93.21 47.83 93.05 45.25 92.68 C 45.11 89.15 46.50 84.94 50.64 84.72 M 53.51 99.57 C 53.54 100.48 53.58 101.39 53.61 102.31 C 54.50 102.31 55.39 102.30 56.28 102.30 C 56.35 101.36 56.42 100.41 56.49 99.46 C 55.50 99.50 54.50 99.53 53.51 99.57 Z" />
<path fill="#ff633b" opacity="1.00" d=" M 72.71 84.81 C 78.56 83.38 88.79 83.77 87.55 92.37 C 85.08 92.48 82.62 92.54 80.15 92.53 C 79.05 91.77 77.93 91.04 76.81 90.33 C 77.15 95.97 86.03 92.12 87.68 97.27 C 88.81 101.18 88.75 107.63 83.67 108.55 C 77.89 110.18 67.35 109.46 68.97 100.94 C 71.35 100.81 73.73 100.73 76.12 100.65 C 77.12 101.45 78.13 102.27 79.13 103.07 C 79.29 102.22 79.44 101.36 79.58 100.51 C 76.14 99.41 71.67 99.77 69.14 96.87 C 67.56 92.89 67.47 85.99 72.71 84.81 Z" />
<path fill="#ff633b" opacity="1.00" d=" M 135.15 85.15 C 139.75 83.97 144.98 83.75 149.43 85.60 C 153.56 88.42 152.18 94.25 152.39 98.52 C 148.39 98.85 144.37 98.81 140.35 98.83 C 140.38 100.11 140.41 101.39 140.44 102.67 C 140.90 102.74 141.82 102.90 142.28 102.98 C 144.22 98.99 148.92 100.55 152.42 100.63 C 153.38 109.86 142.08 110.16 135.78 108.38 C 130.68 107.22 131.19 101.02 131.17 97.00 C 131.33 92.96 130.38 86.92 135.15 85.15 M 140.49 90.56 C 140.44 91.52 140.39 92.48 140.34 93.45 C 140.98 93.48 142.26 93.55 142.90 93.58 C 142.87 92.45 142.85 91.33 142.82 90.20 C 142.24 90.29 141.07 90.47 140.49 90.56 Z" />
<path fill="#ff633b" opacity="1.00" d=" M 88.90 84.81 C 91.78 84.83 94.88 84.12 97.63 85.21 C 99.09 89.42 99.54 93.88 100.68 98.18 C 101.77 93.70 102.56 89.15 103.77 84.70 C 106.65 84.66 109.53 84.68 112.40 84.79 C 110.28 94.52 107.22 104.03 104.62 113.64 C 103.88 118.13 98.32 115.91 95.19 116.15 C 95.65 113.91 96.18 111.68 96.69 109.45 C 92.27 102.04 91.31 93.03 88.90 84.81 Z" />
<path fill="#ff633b" opacity="1.00" d=" M 25.23 114.20 C 28.61 112.43 33.14 115.15 33.10 118.97 C 33.48 128.31 32.97 137.67 33.30 147.01 C 33.56 153.42 39.62 158.73 46.00 158.33 C 79.67 158.33 113.34 158.33 147.01 158.31 C 153.35 158.66 159.29 153.34 159.58 147.00 C 160.00 137.34 159.29 127.65 159.89 118.01 C 160.66 112.29 170.02 112.39 170.67 118.12 C 171.10 127.75 170.82 137.42 170.80 147.06 C 170.63 159.00 159.97 169.46 148.05 169.51 C 113.69 169.59 79.32 169.57 44.95 169.51 C 33.36 169.50 22.88 159.67 22.17 148.09 C 21.86 139.05 22.13 129.99 22.03 120.94 C 21.86 118.34 22.56 115.28 25.23 114.20 Z" />
</g>
</svg>
