<?xml version="1.0" encoding="UTF-8" ?>
<!DOCTYPE svg PUBLIC "-//W3C//DTD SVG 1.1//EN" "http://www.w3.org/Graphics/SVG/1.1/DTD/svg11.dtd">
<svg width="192pt" height="192pt" viewBox="0 0 192 192" version="1.1" xmlns="http://www.w3.org/2000/svg">
<g id="#5f6f81ff">
<path fill="#5f6f81" opacity="1.00" d=" M 20.08 41.94 C 19.92 29.72 30.77 18.67 43.02 18.76 C 77.34 18.72 111.66 18.71 145.97 18.76 C 158.19 18.72 169.03 29.74 168.83 41.95 C 168.87 76.32 168.93 110.69 168.81 145.06 C 168.70 157.02 157.98 167.51 146.05 167.55 C 112.02 167.63 77.98 167.56 43.95 167.58 C 33.50 167.89 23.19 160.30 20.97 149.99 C 20.42 146.28 24.35 143.05 27.90 144.10 C 30.83 144.65 31.65 147.79 32.94 150.02 C 34.94 154.10 39.54 156.50 44.01 156.33 C 77.67 156.32 111.33 156.32 144.99 156.31 C 151.69 156.71 157.81 150.76 157.64 144.07 C 157.71 110.36 157.66 76.65 157.68 42.94 C 158.19 36.09 151.98 29.45 145.01 30.14 C 110.66 30.44 76.34 29.31 42.00 30.11 C 32.37 30.98 29.98 41.78 31.29 49.74 C 54.85 49.89 78.42 49.75 101.98 49.77 C 111.71 49.95 122.82 51.62 129.34 59.66 C 137.78 69.37 134.09 85.48 122.73 91.19 C 130.53 94.38 137.54 100.85 138.45 109.64 C 140.59 120.16 133.82 130.99 124.31 135.28 C 117.62 138.17 110.21 138.73 103.00 138.75 C 78.65 138.73 54.29 138.76 29.94 138.72 C 24.28 139.01 19.59 133.58 20.06 128.06 C 20.04 99.36 20.02 70.65 20.08 41.94 M 31.33 61.49 C 31.26 69.93 31.34 78.37 31.27 86.81 C 42.31 86.78 53.36 87.11 64.40 86.83 C 64.37 78.41 64.47 69.98 64.33 61.56 C 53.33 61.44 42.33 61.58 31.33 61.49 M 82.72 61.58 C 82.57 69.85 82.69 78.12 82.65 86.39 C 92.79 86.40 103.22 87.62 113.17 85.24 C 123.07 82.31 123.43 66.66 113.85 63.13 C 103.76 60.32 93.07 61.84 82.72 61.58 M 31.34 98.54 C 31.37 107.57 31.11 116.62 31.44 125.64 C 31.59 127.42 33.76 126.82 34.95 127.04 C 58.63 127.06 82.31 127.02 105.99 127.03 C 111.75 126.98 118.42 125.96 122.10 121.02 C 127.18 114.12 124.51 102.74 115.95 100.10 C 105.21 96.88 93.73 98.80 82.68 98.40 C 82.46 105.28 83.06 112.20 82.30 119.06 C 79.11 118.06 76.46 115.45 73.09 115.15 C 70.16 115.92 67.70 117.93 64.87 119.02 C 63.84 112.35 64.63 105.54 64.41 98.82 C 53.41 98.22 42.36 98.78 31.34 98.54 Z" />
</g>
</svg>
