<?xml version="1.0" encoding="UTF-8" ?>
<!DOCTYPE svg PUBLIC "-//W3C//DTD SVG 1.1//EN" "http://www.w3.org/Graphics/SVG/1.1/DTD/svg11.dtd">
<svg width="192pt" height="192pt" viewBox="0 0 192 192" version="1.1" xmlns="http://www.w3.org/2000/svg">
<g id="#ff3661ff">
<path fill="#ff3661" opacity="1.00" d=" M 40.28 21.31 C 70.45 19.97 100.78 21.11 131.01 20.73 C 137.67 20.89 144.37 20.38 151.02 21.03 C 162.01 22.52 170.93 32.83 170.82 43.93 C 170.88 77.97 170.87 112.02 170.83 146.06 C 171.15 158.34 160.35 169.45 148.07 169.51 C 113.69 169.58 79.31 169.57 44.93 169.51 C 32.60 169.50 21.78 158.36 22.06 146.04 C 22.04 112.01 22.02 77.97 22.08 43.93 C 21.98 33.37 30.00 23.55 40.28 21.31 M 42.27 32.35 C 37.22 33.73 33.19 38.59 33.29 43.92 C 33.24 77.97 33.27 112.02 33.28 146.07 C 33.04 152.81 39.28 158.77 46.00 158.33 C 79.66 158.33 113.33 158.33 146.99 158.32 C 153.68 158.71 159.80 152.76 159.65 146.08 C 159.70 112.03 159.73 77.97 159.64 43.91 C 159.72 36.87 152.87 31.24 146.01 31.82 C 111.45 32.19 76.77 31.10 42.27 32.35 Z" />
<path fill="#ff3661" opacity="1.00" d=" M 73.63 61.98 C 73.48 58.63 76.69 56.03 79.90 56.30 C 91.55 56.33 103.22 56.07 114.85 56.43 C 120.67 57.01 120.83 66.34 115.05 67.16 C 105.17 67.54 95.26 67.20 85.36 67.31 C 85.39 74.79 85.37 82.28 85.36 89.76 C 93.89 89.99 102.45 89.49 110.96 90.00 C 116.24 90.73 116.75 99.11 111.62 100.49 C 102.91 101.18 94.13 100.55 85.39 100.79 C 85.36 108.38 85.37 115.98 85.38 123.58 C 95.57 123.77 105.78 123.28 115.94 123.81 C 121.64 124.92 120.93 134.39 115.04 134.47 C 103.36 134.66 91.67 134.50 79.98 134.54 C 76.33 134.96 73.13 131.64 73.57 128.02 C 73.60 106.01 73.50 83.99 73.63 61.98 Z" />
</g>
</svg>
