<?xml version="1.0" encoding="UTF-8" ?>
<!DOCTYPE svg PUBLIC "-//W3C//DTD SVG 1.1//EN" "http://www.w3.org/Graphics/SVG/1.1/DTD/svg11.dtd">
<svg width="192pt" height="192pt" viewBox="0 0 192 192" version="1.1" xmlns="http://www.w3.org/2000/svg">
<g id="#2bc7c8ff">
<path fill="#2bc7c8" opacity="1.00" d=" M 85.35 14.44 C 118.05 9.64 151.82 27.66 167.63 56.35 C 178.33 75.22 180.83 98.50 174.31 119.20 C 165.16 149.39 137.43 173.06 106.04 176.85 C 75.72 181.12 44.30 165.81 27.71 140.34 C 14.93 121.40 10.84 96.93 16.86 74.88 C 24.97 43.53 53.12 18.38 85.35 14.44 M 41.28 49.68 C 46.52 49.76 51.76 49.73 56.99 49.81 C 67.90 49.45 77.96 59.95 76.69 70.88 C 75.80 80.22 67.41 88.23 57.98 88.44 C 47.14 88.55 36.29 88.44 25.45 88.45 C 21.86 117.17 37.99 147.34 64.41 159.50 C 93.33 174.07 132.09 165.98 151.60 139.82 C 129.06 139.77 106.52 139.87 83.99 139.69 C 73.31 139.34 63.91 128.76 65.66 118.03 C 66.89 108.71 75.48 101.02 84.93 101.05 C 100.97 100.84 117.02 101.22 133.05 100.86 C 138.68 100.72 139.83 92.22 135.60 89.48 C 131.92 87.87 127.75 89.04 123.93 88.01 C 115.34 86.06 108.32 77.96 108.46 69.01 C 108.47 59.12 117.17 50.32 126.98 49.87 C 134.83 49.66 142.68 49.85 150.53 49.65 C 139.02 36.33 122.70 26.93 105.06 25.08 C 81.38 21.94 56.47 31.05 41.28 49.68 M 27.16 77.56 C 37.97 77.66 48.79 77.81 59.60 77.43 C 67.94 76.53 68.18 62.27 59.97 60.89 C 51.32 60.25 42.60 60.70 33.92 60.66 C 30.87 65.93 28.70 71.67 27.16 77.56 M 122.75 76.26 C 125.52 77.96 128.90 77.45 131.98 77.68 C 141.99 77.65 150.66 87.88 148.76 97.75 C 147.19 105.92 139.31 112.08 131.04 112.02 C 114.74 112.12 98.40 111.37 82.11 112.31 C 73.88 113.97 74.48 128.09 83.09 128.72 C 108.32 129.25 133.59 128.86 158.83 128.92 C 169.84 107.97 169.71 81.38 157.97 60.75 C 147.30 60.68 136.61 60.42 125.95 60.80 C 118.67 61.42 116.94 72.60 122.75 76.26 Z" />
</g>
</svg>
