<?xml version="1.0" encoding="UTF-8" ?>
<!DOCTYPE svg PUBLIC "-//W3C//DTD SVG 1.1//EN" "http://www.w3.org/Graphics/SVG/1.1/DTD/svg11.dtd">
<svg width="192pt" height="192pt" viewBox="0 0 192 192" version="1.1" xmlns="http://www.w3.org/2000/svg">
<g id="#44e372ff">
<path fill="#44e372" opacity="1.00" d=" M 61.07 20.10 C 66.32 16.69 73.03 14.37 79.15 16.88 C 86.13 19.32 90.28 26.02 92.89 32.56 C 105.27 31.14 116.75 25.51 129.21 24.55 C 143.44 23.44 158.19 26.24 170.63 33.35 C 178.38 38.57 176.81 49.77 172.93 56.96 C 168.05 66.30 158.75 72.03 149.75 76.85 C 121.98 91.68 88.82 97.96 57.96 90.20 C 55.15 89.38 51.43 88.92 50.25 85.77 C 48.32 81.78 52.53 76.71 56.82 78.22 C 89.45 87.63 125.33 79.67 153.45 61.49 C 159.39 57.40 166.30 50.59 164.30 42.78 C 154.83 37.55 143.78 35.35 133.02 35.63 C 117.16 35.99 102.56 45.60 86.54 43.50 C 80.97 39.83 82.39 30.38 75.53 27.59 C 68.62 25.58 64.01 34.46 57.00 32.95 C 46.73 30.91 39.68 39.92 33.42 46.45 C 29.71 49.83 28.83 55.01 26.00 58.95 C 22.53 62.75 15.46 59.03 16.62 54.01 C 18.41 47.79 21.77 41.99 26.39 37.42 C 32.67 30.74 39.55 23.49 49.01 21.84 C 52.98 20.78 57.56 22.82 61.07 20.10 Z" />
<path fill="#44e372" opacity="1.00" d=" M 64.13 40.89 C 65.93 38.49 67.59 35.07 71.00 34.92 C 76.66 34.25 79.96 40.09 81.57 44.64 C 79.35 42.80 77.46 40.61 75.44 38.57 C 75.44 39.60 75.44 40.63 75.44 41.67 C 73.69 42.81 71.94 44.16 72.71 46.55 C 74.34 45.94 75.96 45.30 77.59 44.70 C 77.77 48.97 73.88 51.06 70.64 52.76 C 68.65 48.99 65.67 44.90 60.93 44.93 C 61.33 47.39 62.24 49.73 62.71 52.18 C 63.45 57.88 57.16 63.19 51.67 61.37 C 47.39 57.93 44.21 51.50 47.23 46.25 C 50.32 40.24 58.17 38.88 64.13 40.89 Z" />
<path fill="#44e372" opacity="1.00" d=" M 141.20 51.46 C 142.06 43.94 152.95 43.90 154.24 51.18 C 149.89 51.08 145.54 51.17 141.20 51.46 Z" />
<path fill="#44e372" opacity="1.00" d=" M 13.08 77.10 C 18.17 66.52 29.23 60.34 40.05 57.02 C 45.89 55.22 49.56 64.41 44.24 67.20 C 36.50 70.38 27.71 73.64 23.52 81.47 C 20.60 88.34 23.46 96.41 28.31 101.66 C 30.43 104.18 34.10 106.19 33.69 109.99 C 33.58 118.55 33.17 127.11 33.33 135.69 C 59.31 160.74 100.85 167.41 133.39 151.78 C 126.39 143.73 119.23 135.82 112.00 127.98 C 109.26 125.36 110.26 120.14 113.93 118.96 C 123.30 115.70 132.84 112.56 141.33 107.30 C 154.21 99.66 163.76 86.55 166.92 71.90 C 168.62 65.57 179.02 68.23 177.65 74.60 C 173.00 100.49 150.48 119.21 126.28 126.68 C 133.03 134.58 140.40 141.98 146.73 150.24 C 149.04 152.88 148.26 157.45 144.98 158.90 C 133.34 164.70 120.89 169.24 107.90 170.76 C 79.12 174.46 48.95 165.08 27.40 145.63 C 25.24 143.48 22.01 141.51 22.09 138.07 C 21.85 129.38 22.17 120.69 22.38 112.00 C 13.27 103.29 7.91 89.24 13.08 77.10 Z" />
</g>
</svg>
