<?xml version="1.0" encoding="UTF-8" ?>
<!DOCTYPE svg PUBLIC "-//W3C//DTD SVG 1.1//EN" "http://www.w3.org/Graphics/SVG/1.1/DTD/svg11.dtd">
<svg width="192pt" height="192pt" viewBox="0 0 192 192" version="1.1" xmlns="http://www.w3.org/2000/svg">
<g id="#bb7f48ff">
<path fill="#bb7f48" opacity="1.00" d=" M 85.28 14.35 C 117.00 9.79 150.25 26.00 166.36 53.65 C 178.70 74.05 181.31 99.93 173.46 122.42 C 163.74 151.46 136.50 173.55 106.06 177.00 C 74.96 181.21 42.39 165.60 26.22 138.71 C 8.55 110.91 10.29 72.52 30.40 46.43 C 43.42 28.97 63.65 17.08 85.28 14.35 M 87.40 25.51 C 65.30 28.01 44.99 41.81 34.25 61.24 C 24.83 77.87 22.84 98.38 28.47 116.60 C 36.71 144.14 63.23 165.05 92.04 166.10 C 113.70 167.50 135.59 158.11 149.60 141.55 C 168.67 119.93 172.01 86.32 157.70 61.32 C 144.31 36.60 115.29 21.79 87.40 25.51 Z" />
<path fill="#bb7f48" opacity="1.00" d=" M 53.25 69.23 C 64.23 51.64 86.82 41.80 107.10 46.92 C 120.85 49.66 133.33 58.59 139.73 71.14 C 141.11 73.95 139.30 77.35 136.57 78.55 C 113.00 92.13 89.45 105.76 65.85 119.31 C 72.22 128.81 83.82 133.95 95.03 134.43 C 113.05 135.22 130.35 121.42 133.63 103.70 C 134.28 100.98 134.04 97.46 136.85 95.89 C 140.33 93.51 145.76 96.70 144.91 101.00 C 143.36 117.96 132.28 133.78 116.75 140.88 C 96.81 150.72 70.41 144.91 56.70 127.32 C 43.17 111.21 41.89 86.85 53.25 69.23 M 60.88 78.94 C 56.36 88.53 56.10 99.89 59.88 109.77 C 82.01 97.25 103.96 84.39 125.99 71.70 C 118.49 61.49 105.43 56.43 93.00 56.90 C 79.39 57.78 66.40 66.38 60.88 78.94 Z" />
</g>
</svg>
