<?xml version="1.0" encoding="UTF-8" ?>
<!DOCTYPE svg PUBLIC "-//W3C//DTD SVG 1.1//EN" "http://www.w3.org/Graphics/SVG/1.1/DTD/svg11.dtd">
<svg width="192pt" height="192pt" viewBox="0 0 192 192" version="1.1" xmlns="http://www.w3.org/2000/svg">
<g id="#778abdff">
<path fill="#778abd" opacity="1.00" d=" M 92.64 64.38 C 90.82 61.42 93.49 57.24 96.97 57.76 C 109.99 57.72 123.01 57.71 136.03 57.75 C 139.54 57.29 142.22 61.46 140.49 64.50 C 139.15 67.35 135.56 66.85 132.98 67.28 C 137.37 73.18 140.97 79.69 145.75 85.29 C 149.70 79.20 153.84 73.24 157.94 67.26 C 152.78 68.77 146.46 62.87 151.58 58.58 C 158.05 56.66 165.26 58.22 172.02 57.71 C 175.43 57.01 178.90 60.29 177.68 63.74 C 176.48 67.67 171.65 67.06 168.42 67.29 C 162.73 76.00 156.84 84.58 150.93 93.15 C 157.13 102.84 163.87 112.19 170.31 121.73 C 173.28 121.97 177.26 120.91 179.14 123.93 C 181.23 126.88 178.65 131.34 175.07 131.11 C 168.03 131.13 160.98 131.25 153.94 131.04 C 150.39 130.99 148.40 126.29 150.61 123.60 C 152.30 121.20 155.53 121.93 158.04 121.69 C 153.60 115.27 149.33 108.72 144.84 102.33 C 140.39 108.70 136.05 115.14 131.73 121.60 C 134.52 121.85 138.33 121.20 139.82 124.26 C 141.69 127.48 138.71 131.62 135.08 131.12 C 124.01 131.09 112.94 131.29 101.88 130.99 C 101.84 128.59 101.80 126.18 101.81 123.77 C 92.29 134.95 73.54 134.17 64.19 123.18 C 53.69 134.19 34.67 135.83 22.68 126.31 C 15.47 120.99 12.32 111.63 13.20 102.90 C 13.86 89.41 26.64 78.24 39.98 78.58 C 48.76 78.60 57.12 83.35 62.24 90.37 C 70.80 77.14 91.23 74.28 101.87 86.59 C 101.85 79.96 101.91 73.32 101.80 66.69 C 98.73 66.42 94.45 67.69 92.64 64.38 M 111.95 67.14 C 111.85 85.34 111.80 103.55 111.97 121.75 C 114.92 121.79 117.87 121.80 120.83 121.80 C 127.07 112.62 133.45 103.52 139.48 94.20 C 133.16 85.25 127.31 75.99 120.93 67.09 C 117.94 67.13 114.94 67.13 111.95 67.14 M 24.29 100.43 C 35.09 101.11 45.94 100.61 56.76 100.68 C 54.72 92.45 46.78 85.45 37.97 86.82 C 30.83 87.52 25.84 93.80 24.29 100.43 M 81.33 88.44 C 65.91 92.29 65.08 118.28 80.84 122.29 C 93.16 126.32 104.73 113.32 101.59 101.35 C 100.59 91.93 90.12 86.16 81.33 88.44 M 24.07 108.17 C 25.06 119.84 38.00 127.10 48.65 122.64 C 53.45 121.89 55.55 116.29 60.05 115.63 C 59.41 113.16 58.94 110.65 58.54 108.13 C 47.05 108.17 35.56 108.09 24.07 108.17 Z" />
</g>
</svg>
