<?xml version="1.0" encoding="UTF-8" ?>
<!DOCTYPE svg PUBLIC "-//W3C//DTD SVG 1.1//EN" "http://www.w3.org/Graphics/SVG/1.1/DTD/svg11.dtd">
<svg width="192pt" height="192pt" viewBox="0 0 192 192" version="1.1" xmlns="http://www.w3.org/2000/svg">
<g id="#18b9c5ff">
<path fill="#18b9c5" opacity="1.00" d=" M 78.65 36.37 C 81.26 22.85 94.14 12.22 108.00 12.76 C 121.46 12.79 133.60 23.24 136.22 36.35 C 146.69 36.58 157.17 36.10 167.62 36.57 C 173.43 37.33 173.49 46.75 167.66 47.51 C 155.45 47.85 143.21 47.63 131.00 47.60 C 127.39 47.80 125.24 44.23 125.33 40.98 C 125.06 31.60 116.35 23.53 106.96 24.11 C 98.11 24.01 90.09 31.57 89.57 40.40 C 89.58 43.41 88.35 47.18 84.85 47.51 C 74.64 47.88 64.39 47.47 54.17 47.69 C 53.93 55.80 54.43 63.94 53.92 72.03 C 53.88 75.64 50.24 77.44 47.04 77.36 C 37.99 77.72 30.28 85.96 30.39 94.99 C 29.99 104.19 37.81 112.77 47.03 113.16 C 50.06 113.13 53.53 114.68 53.86 118.06 C 54.50 126.26 53.90 134.52 54.16 142.74 C 64.12 143.04 74.09 142.69 84.05 142.92 C 87.79 142.84 89.67 146.68 89.57 149.95 C 90.03 158.85 98.10 166.44 107.00 166.45 C 116.15 166.88 124.78 159.21 125.26 150.02 C 125.28 147.04 126.53 143.36 129.97 143.00 C 140.22 142.57 150.50 143.09 160.76 142.75 C 160.93 132.78 160.96 122.79 160.72 112.82 C 153.62 113.22 145.50 112.21 140.98 106.02 C 134.81 98.56 136.42 85.96 144.67 80.68 C 149.35 77.35 155.31 77.79 160.75 77.71 C 161.28 71.62 160.17 65.37 161.39 59.38 C 163.65 54.04 172.52 56.08 172.10 61.92 C 171.54 70.05 174.80 80.50 167.47 86.46 C 163.05 90.40 156.83 88.33 151.62 89.66 C 147.11 91.75 147.72 99.13 152.25 100.86 C 156.25 102.14 160.70 100.66 164.62 102.39 C 169.20 104.24 172.25 109.03 172.15 113.95 C 172.21 123.32 172.24 132.70 172.14 142.07 C 172.19 148.49 166.48 154.18 160.07 154.14 C 152.13 154.30 144.18 154.14 136.23 154.19 C 133.57 167.62 120.81 178.31 106.99 177.74 C 93.42 177.90 81.32 167.26 78.54 154.17 C 70.68 154.16 62.81 154.30 54.94 154.13 C 48.85 154.19 43.20 149.15 42.82 143.03 C 42.49 136.73 42.83 130.41 42.65 124.10 C 29.29 121.38 18.69 108.74 19.15 94.99 C 18.93 81.40 29.51 69.09 42.70 66.41 C 42.80 60.27 42.54 54.11 42.80 47.97 C 42.95 42.04 48.06 36.72 54.01 36.51 C 62.22 36.24 70.44 36.53 78.65 36.37 Z" />
</g>
</svg>
