<?xml version="1.0" encoding="UTF-8" ?>
<!DOCTYPE svg PUBLIC "-//W3C//DTD SVG 1.1//EN" "http://www.w3.org/Graphics/SVG/1.1/DTD/svg11.dtd">
<svg width="192pt" height="192pt" viewBox="0 0 192 192" version="1.1" xmlns="http://www.w3.org/2000/svg">
<g id="#45e371ff">
<path fill="#45e371" opacity="1.00" d=" M 42.84 67.00 C 41.55 39.83 65.38 15.61 92.02 13.88 C 114.32 11.95 137.31 25.74 145.18 46.86 C 150.06 60.00 148.95 74.25 149.09 88.00 C 148.96 106.34 149.35 124.71 148.91 143.04 C 148.88 149.74 137.82 149.71 137.79 143.02 C 137.53 124.02 137.76 105.00 137.69 86.00 C 137.61 74.68 138.61 63.02 135.03 52.08 C 129.55 35.61 112.20 24.34 95.00 25.10 C 73.62 25.18 53.47 44.24 54.17 66.00 C 54.53 91.88 53.95 117.79 54.47 143.65 C 57.93 150.25 68.72 142.55 72.50 149.41 C 74.17 153.85 72.41 158.78 73.65 163.31 C 75.44 166.93 81.42 165.05 80.77 161.03 C 81.39 156.30 78.83 148.88 84.68 146.71 C 92.17 146.18 99.82 146.13 107.30 146.73 C 113.07 149.03 110.46 156.32 111.16 161.05 C 110.62 164.99 116.57 166.94 118.30 163.26 C 119.55 158.74 117.84 153.83 119.39 149.37 C 121.52 144.70 129.37 145.90 129.85 151.04 C 130.27 158.04 131.24 166.38 125.86 171.86 C 120.30 178.01 109.66 178.09 104.08 171.91 C 100.28 168.19 99.56 162.68 99.66 157.61 C 97.20 157.65 94.73 157.64 92.27 157.57 C 93.64 166.82 86.92 176.90 77.00 176.56 C 67.13 176.88 60.43 166.87 61.70 157.65 C 53.12 159.05 43.59 153.22 43.08 144.09 C 42.71 118.40 43.19 92.69 42.84 67.00 Z" />
<path fill="#45e371" opacity="1.00" d=" M 78.24 56.27 C 83.90 53.89 90.22 60.24 87.92 65.89 C 86.33 71.02 78.94 72.57 75.39 68.57 C 71.56 64.98 73.21 57.81 78.24 56.27 Z" />
<path fill="#45e371" opacity="1.00" d=" M 108.24 56.29 C 113.53 54.03 119.71 59.48 118.23 65.01 C 117.26 70.70 109.21 72.89 105.44 68.57 C 101.64 64.97 103.26 57.88 108.24 56.29 Z" />
<path fill="#45e371" opacity="1.00" d=" M 24.33 79.36 C 28.07 77.52 32.75 80.83 32.29 84.98 C 32.23 99.99 32.59 115.04 32.12 130.04 C 31.02 136.12 21.09 135.25 21.14 129.05 C 20.88 114.69 21.13 100.31 21.03 85.94 C 20.87 83.36 21.72 80.41 24.33 79.36 Z" />
<path fill="#45e371" opacity="1.00" d=" M 163.21 79.20 C 166.90 77.66 171.25 80.96 170.79 84.92 C 170.78 99.62 170.91 114.33 170.73 129.03 C 170.89 133.37 165.02 135.99 161.81 133.14 C 159.48 131.55 159.53 128.51 159.53 126.00 C 159.64 112.33 159.48 98.65 159.60 84.98 C 159.47 82.53 160.83 80.02 163.21 79.20 Z" />
</g>
</svg>
