<?xml version="1.0" encoding="UTF-8" ?>
<!DOCTYPE svg PUBLIC "-//W3C//DTD SVG 1.1//EN" "http://www.w3.org/Graphics/SVG/1.1/DTD/svg11.dtd">
<svg width="192pt" height="192pt" viewBox="0 0 192 192" version="1.1" xmlns="http://www.w3.org/2000/svg">
<g id="#eb9288ff">
<path fill="#eb9288" opacity="1.00" d=" M 87.31 12.35 C 104.91 7.23 124.90 21.58 125.14 40.01 C 126.54 55.98 112.70 70.72 96.95 71.55 C 81.84 72.92 66.78 61.44 64.55 46.34 C 61.68 31.26 72.46 15.65 87.31 12.35 M 89.31 23.36 C 81.18 25.51 74.91 33.47 75.36 41.98 C 75.39 51.47 83.68 59.69 93.02 60.37 C 103.78 61.59 114.82 52.04 113.87 40.97 C 114.22 28.90 100.59 19.48 89.31 23.36 Z" />
<path fill="#eb9288" opacity="1.00" d=" M 39.37 19.46 C 45.86 18.62 52.46 18.99 58.98 19.14 C 64.49 19.72 65.17 28.45 59.80 29.87 C 53.72 30.89 47.48 29.70 41.36 30.49 C 35.60 31.56 31.33 37.19 31.60 43.01 C 31.59 76.67 31.57 110.32 31.63 143.97 C 31.48 149.83 36.15 155.38 41.97 156.11 C 47.83 156.69 53.76 155.75 59.59 156.57 C 64.65 157.75 64.89 165.70 59.94 167.25 C 54.34 167.85 48.67 167.43 43.04 167.49 C 30.81 167.41 20.10 156.27 20.41 144.06 C 20.41 110.02 20.39 75.98 20.44 41.94 C 20.47 31.21 28.85 21.36 39.37 19.46 Z" />
<path fill="#eb9288" opacity="1.00" d=" M 129.32 19.39 C 134.81 18.49 140.49 19.21 146.05 19.00 C 158.30 18.85 169.36 29.74 169.22 42.03 C 169.27 76.01 169.24 109.99 169.24 143.97 C 169.65 156.10 159.08 167.24 146.96 167.49 C 141.32 167.52 135.65 167.73 130.02 167.37 C 124.70 166.39 124.44 157.93 129.65 156.61 C 135.70 155.61 141.91 156.75 148.00 156.03 C 153.66 155.18 158.08 149.76 157.97 144.07 C 157.98 110.36 157.96 76.66 157.98 42.96 C 158.34 37.03 153.72 31.32 147.86 30.44 C 141.94 29.83 135.95 30.72 130.03 30.01 C 124.93 29.02 124.43 21.08 129.32 19.39 Z" />
<path fill="#eb9288" opacity="1.00" d=" M 71.31 90.32 C 81.38 78.00 101.52 76.07 113.78 86.22 C 126.08 95.53 129.05 114.93 119.46 127.20 C 126.53 137.30 126.95 151.65 119.86 161.85 C 111.14 175.02 91.67 179.03 78.33 170.68 C 63.85 161.98 59.38 140.69 69.95 127.23 C 61.63 116.50 62.67 100.53 71.31 90.32 M 81.61 95.61 C 75.11 101.66 73.03 112.60 78.59 119.95 C 88.32 113.96 101.33 113.76 111.08 119.83 C 116.20 112.10 114.25 100.78 107.00 95.07 C 99.84 89.09 88.56 89.54 81.61 95.61 M 89.55 127.41 C 93.11 128.50 96.89 128.46 100.45 127.37 C 96.94 126.21 93.03 126.15 89.55 127.41 M 78.23 134.92 C 72.90 142.74 75.16 153.84 82.22 159.79 C 90.92 167.01 105.87 164.29 111.35 154.36 C 114.84 148.44 114.46 140.79 111.09 134.91 C 101.05 141.07 88.39 140.44 78.23 134.92 Z" />
</g>
</svg>
