<?xml version="1.0" encoding="UTF-8" ?>
<!DOCTYPE svg PUBLIC "-//W3C//DTD SVG 1.1//EN" "http://www.w3.org/Graphics/SVG/1.1/DTD/svg11.dtd">
<svg width="192pt" height="192pt" viewBox="0 0 192 192" version="1.1" xmlns="http://www.w3.org/2000/svg">
<g id="#a519ffff">
<path fill="#a519ff" opacity="1.00" d=" M 14.11 50.92 C 14.13 41.05 23.15 32.37 33.02 32.74 C 70.02 32.80 107.02 32.60 144.02 32.83 C 150.11 33.29 149.99 43.33 143.88 43.58 C 106.93 43.77 69.96 43.55 32.99 43.67 C 31.57 43.59 27.53 44.26 29.77 46.12 C 51.76 60.36 73.84 74.45 95.93 88.54 C 120.43 72.50 144.87 56.36 169.39 40.34 C 172.75 37.77 178.13 40.77 177.81 44.97 C 177.89 76.33 177.88 107.70 177.83 139.07 C 177.91 148.97 168.91 157.84 158.99 157.49 C 116.67 157.47 74.35 157.51 32.03 157.46 C 22.44 157.33 14.05 148.63 14.09 139.07 C 14.03 109.69 14.02 80.30 14.11 50.92 M 99.40 99.36 C 97.43 100.91 94.58 100.95 92.57 99.44 C 70.05 85.04 47.55 70.59 25.04 56.17 C 24.68 83.45 24.94 110.75 24.92 138.04 C 24.63 142.53 28.43 146.72 32.99 146.50 C 74.99 146.54 117.00 146.55 159.00 146.48 C 163.47 146.64 167.29 142.49 166.95 138.08 C 166.90 110.40 167.10 82.73 166.84 55.06 C 144.43 69.94 121.88 84.60 99.40 99.36 Z" />
</g>
</svg>
