<?xml version="1.0" encoding="UTF-8" ?>
<!DOCTYPE svg PUBLIC "-//W3C//DTD SVG 1.1//EN" "http://www.w3.org/Graphics/SVG/1.1/DTD/svg11.dtd">
<svg width="192pt" height="192pt" viewBox="0 0 192 192" version="1.1" xmlns="http://www.w3.org/2000/svg">
<g id="#668acaff">
<path fill="#668aca" opacity="1.00" d=" M 40.58 39.54 C 38.48 29.01 45.38 16.68 57.00 16.80 C 83.67 16.80 110.36 16.66 137.03 16.85 C 148.16 17.47 154.26 29.39 152.40 39.52 C 165.00 42.17 174.95 53.99 174.79 66.95 C 174.78 93.66 174.90 120.37 174.76 147.08 C 174.30 161.39 161.38 173.76 147.05 173.57 C 113.04 173.60 79.01 173.64 45.00 173.52 C 30.63 173.29 18.09 160.41 18.13 146.06 C 18.05 119.70 18.09 93.33 18.14 66.97 C 17.98 53.99 27.94 42.10 40.58 39.54 M 51.64 33.96 C 51.73 50.35 51.59 66.74 51.63 83.13 C 66.40 92.52 81.46 101.45 96.27 110.78 C 111.36 101.74 126.33 92.45 141.24 83.10 C 141.11 66.39 141.30 49.66 141.11 32.95 C 140.87 29.41 137.26 27.59 134.04 27.87 C 108.68 27.85 83.31 27.80 57.95 27.84 C 54.56 27.65 51.40 30.50 51.64 33.96 M 152.41 51.27 C 152.39 59.57 152.40 67.87 152.40 76.17 C 156.00 74.14 159.60 72.05 163.01 69.70 C 164.92 62.09 159.52 54.08 152.41 51.27 M 29.85 69.75 C 33.33 72.14 37.06 74.15 40.58 76.49 C 40.55 68.09 40.67 59.69 40.50 51.29 C 33.32 53.99 27.91 62.17 29.85 69.75 M 29.46 82.94 C 29.44 103.99 29.40 125.03 29.48 146.08 C 29.56 154.71 37.34 162.37 46.01 162.14 C 79.67 162.15 113.34 162.13 147.01 162.10 C 155.61 162.27 163.40 154.57 163.36 145.97 C 163.42 125.01 163.44 104.05 163.36 83.10 C 141.95 96.01 120.77 109.34 99.40 122.32 C 97.43 123.71 94.85 123.32 92.95 122.03 C 71.79 109.01 50.65 95.93 29.46 82.94 Z" />
<path fill="#668aca" opacity="1.00" d=" M 66.43 39.58 C 80.23 38.70 94.20 39.31 108.06 39.24 C 114.15 39.35 114.94 48.89 109.04 50.22 C 95.37 50.57 81.67 50.38 67.99 50.31 C 62.40 50.16 61.21 41.35 66.43 39.58 Z" />
<path fill="#668aca" opacity="1.00" d=" M 67.42 61.68 C 73.77 61.46 80.17 61.38 86.51 61.71 C 92.04 62.63 92.12 71.47 86.67 72.52 C 80.24 72.81 73.77 72.76 67.34 72.55 C 61.68 71.73 61.68 62.41 67.42 61.68 Z" />
</g>
</svg>
