<?xml version="1.0" encoding="UTF-8" ?>
<!DOCTYPE svg PUBLIC "-//W3C//DTD SVG 1.1//EN" "http://www.w3.org/Graphics/SVG/1.1/DTD/svg11.dtd">
<svg width="192pt" height="192pt" viewBox="0 0 192 192" version="1.1" xmlns="http://www.w3.org/2000/svg">
<g id="#f99632ff">
<path fill="#f99632" opacity="1.00" d=" M 40.52 39.54 C 38.80 29.71 44.16 18.08 54.96 16.92 C 82.29 16.56 109.66 16.77 137.00 16.79 C 148.21 17.39 154.25 29.36 152.45 39.53 C 164.64 42.19 174.44 53.35 174.73 65.93 C 174.78 92.98 174.82 120.03 174.72 147.08 C 174.25 161.37 161.36 173.70 147.06 173.54 C 113.05 173.57 79.02 173.61 45.01 173.50 C 30.65 173.26 18.09 160.40 18.16 146.05 C 18.08 119.69 18.11 93.33 18.16 66.97 C 17.97 54.00 27.93 42.19 40.52 39.54 M 51.74 32.96 C 51.47 49.49 52.19 66.17 51.28 82.62 C 65.44 92.33 80.55 100.76 95.05 110.02 C 96.41 111.49 97.91 109.84 99.18 109.16 C 113.09 100.37 127.45 92.14 141.10 83.03 C 141.20 66.67 141.04 50.30 141.12 33.94 C 141.29 31.09 139.04 28.08 136.04 28.13 C 109.68 28.11 83.32 28.10 56.96 28.13 C 54.22 27.95 52.09 30.41 51.74 32.96 M 152.43 51.30 C 152.39 59.53 152.46 67.77 152.39 76.00 C 156.20 74.41 159.53 71.84 163.09 69.75 C 164.87 62.11 159.62 54.04 152.43 51.30 M 29.46 69.51 C 33.07 71.96 36.88 74.09 40.54 76.47 C 40.50 68.09 40.61 59.71 40.47 51.33 C 33.17 53.96 28.46 61.84 29.46 69.51 M 29.44 82.97 C 29.41 104.00 29.40 125.04 29.45 146.07 C 29.53 154.72 37.34 162.38 46.01 162.18 C 79.68 162.18 113.34 162.18 147.01 162.15 C 155.64 162.28 163.41 154.59 163.41 145.97 C 163.45 125.05 163.42 104.13 163.43 83.21 C 141.64 95.88 120.40 109.70 98.72 122.64 C 96.88 123.74 94.64 123.09 92.97 122.01 C 71.79 109.01 50.69 95.85 29.44 82.97 Z" />
<path fill="#f99632" opacity="1.00" d=" M 66.40 39.54 C 80.19 38.55 94.20 39.27 108.06 39.15 C 114.19 39.31 115.00 48.93 109.05 50.26 C 95.38 50.57 81.67 50.39 68.00 50.35 C 62.36 50.21 61.08 41.31 66.40 39.54 Z" />
<path fill="#f99632" opacity="1.00" d=" M 67.41 61.61 C 73.77 61.42 80.18 61.33 86.54 61.65 C 92.09 62.64 92.19 71.47 86.68 72.57 C 80.24 72.88 73.75 72.82 67.31 72.60 C 61.57 71.73 61.62 62.39 67.41 61.61 Z" />
</g>
</svg>
