<?xml version="1.0" encoding="UTF-8" ?>
<!DOCTYPE svg PUBLIC "-//W3C//DTD SVG 1.1//EN" "http://www.w3.org/Graphics/SVG/1.1/DTD/svg11.dtd">
<svg width="192pt" height="192pt" viewBox="0 0 192 192" version="1.1" xmlns="http://www.w3.org/2000/svg">
<g id="#d5d5d5ff">
<path fill="#d5d5d5" opacity="1.00" d=" M 14.13 50.92 C 14.15 41.06 23.14 32.39 33.02 32.74 C 70.01 32.82 107.02 32.58 144.01 32.85 C 150.11 33.27 149.98 43.33 143.87 43.56 C 109.59 43.76 75.29 43.56 41.00 43.62 C 37.06 43.74 32.99 43.11 29.18 44.39 C 28.66 45.80 30.07 46.34 30.99 47.01 C 52.64 60.85 74.26 74.74 95.91 88.57 C 120.41 72.50 144.86 56.36 169.39 40.34 C 172.76 37.77 178.12 40.76 177.81 44.96 C 177.91 76.33 177.90 107.71 177.84 139.08 C 177.88 148.98 168.91 157.82 158.98 157.48 C 116.66 157.46 74.34 157.51 32.02 157.43 C 22.43 157.29 14.06 148.63 14.10 139.07 C 14.04 109.69 14.04 80.30 14.13 50.92 M 99.39 99.34 C 97.39 100.87 94.61 100.92 92.58 99.42 C 69.98 85.03 47.50 70.44 24.87 56.09 C 24.87 83.41 24.82 110.73 24.91 138.05 C 24.60 142.55 28.43 146.72 32.99 146.50 C 74.68 146.57 116.37 146.50 158.06 146.50 C 162.82 147.02 167.34 142.92 166.92 138.07 C 166.90 110.39 167.00 82.71 166.87 55.04 C 144.44 69.90 121.89 84.59 99.39 99.34 Z" />
</g>
</svg>
