<?xml version="1.0" encoding="UTF-8" ?>
<!DOCTYPE svg PUBLIC "-//W3C//DTD SVG 1.1//EN" "http://www.w3.org/Graphics/SVG/1.1/DTD/svg11.dtd">
<svg width="192pt" height="192pt" viewBox="0 0 192 192" version="1.1" xmlns="http://www.w3.org/2000/svg">
<g id="#ec31b0ff">
<path fill="#ec31b0" opacity="1.00" d=" M 14.16 50.93 C 14.16 41.07 23.16 32.41 33.01 32.75 C 70.01 32.82 107.02 32.58 144.01 32.84 C 150.03 33.25 150.07 43.20 144.01 43.56 C 107.02 43.80 70.01 43.53 33.02 43.63 C 31.33 43.60 29.79 44.38 28.25 44.97 C 50.53 59.90 73.38 73.99 95.90 88.56 C 120.42 72.50 144.86 56.34 169.40 40.33 C 172.77 37.76 178.13 40.77 177.82 44.97 C 177.94 76.33 177.93 107.71 177.87 139.07 C 177.92 148.99 168.94 157.87 158.99 157.52 C 117.00 157.51 75.01 157.48 33.02 157.48 C 23.07 157.86 14.04 149.00 14.11 139.08 C 14.06 109.70 14.07 80.31 14.16 50.93 M 99.39 99.36 C 97.40 100.90 94.61 100.94 92.58 99.44 C 69.98 85.04 47.48 70.45 24.85 56.08 C 24.84 83.40 24.80 110.73 24.92 138.05 C 24.61 142.56 28.43 146.73 33.00 146.50 C 74.68 146.56 116.37 146.49 158.06 146.49 C 162.81 147.00 167.29 142.91 166.94 138.08 C 166.91 110.41 167.08 82.74 166.84 55.07 C 144.43 69.95 121.88 84.62 99.39 99.36 Z" />
</g>
</svg>
