<?xml version="1.0" encoding="UTF-8" ?>
<!DOCTYPE svg PUBLIC "-//W3C//DTD SVG 1.1//EN" "http://www.w3.org/Graphics/SVG/1.1/DTD/svg11.dtd">
<svg width="192pt" height="192pt" viewBox="0 0 192 192" version="1.1" xmlns="http://www.w3.org/2000/svg">
<g id="#19afffff">
<path fill="#19afff" opacity="1.00" d=" M 14.12 50.91 C 14.16 41.05 23.14 32.39 33.00 32.74 C 70.00 32.81 107.01 32.58 144.01 32.84 C 150.01 33.25 150.07 43.18 144.02 43.55 C 107.03 43.81 70.02 43.53 33.03 43.65 C 31.30 43.69 29.69 44.41 28.07 44.95 C 50.53 59.72 73.30 74.01 95.90 88.56 C 120.42 72.51 144.87 56.34 169.41 40.33 C 172.78 37.78 178.13 40.78 177.81 44.97 C 177.91 76.34 177.90 107.72 177.84 139.08 C 177.90 148.98 168.92 157.84 158.99 157.50 C 117.00 157.49 75.00 157.48 33.00 157.48 C 23.06 157.85 14.05 149.01 14.10 139.09 C 14.03 109.70 14.03 80.30 14.12 50.91 M 99.37 99.36 C 97.39 100.89 94.61 100.93 92.60 99.45 C 69.99 85.05 47.49 70.48 24.87 56.10 C 24.88 83.42 24.81 110.74 24.93 138.06 C 24.62 142.57 28.45 146.73 33.02 146.50 C 75.00 146.54 117.00 146.55 158.98 146.46 C 163.45 146.64 167.26 142.50 166.94 138.08 C 166.90 110.41 167.09 82.73 166.84 55.06 C 144.43 69.94 121.87 84.61 99.37 99.36 Z" />
</g>
</svg>
