<?xml version="1.0" encoding="UTF-8" ?>
<!DOCTYPE svg PUBLIC "-//W3C//DTD SVG 1.1//EN" "http://www.w3.org/Graphics/SVG/1.1/DTD/svg11.dtd">
<svg width="192pt" height="192pt" viewBox="0 0 192 192" version="1.1" xmlns="http://www.w3.org/2000/svg">
<g id="#ed31b1ff">
<path fill="#ed31b1" opacity="1.00" d=" M 40.55 39.61 C 38.61 29.42 44.70 17.32 55.97 16.83 C 82.98 16.69 110.00 16.68 137.01 16.80 C 148.06 17.32 154.42 29.23 152.34 39.33 C 164.46 42.31 174.48 53.17 174.73 65.93 C 174.80 92.98 174.85 120.03 174.73 147.08 C 174.27 161.38 161.36 173.73 147.05 173.55 C 113.04 173.58 79.03 173.60 45.02 173.48 C 30.68 173.25 18.10 160.41 18.19 146.06 C 18.12 119.70 18.18 93.33 18.22 66.96 C 18.00 54.02 27.96 42.18 40.55 39.61 M 51.70 33.95 C 51.77 50.37 51.68 66.80 51.70 83.23 C 66.46 92.59 81.49 101.52 96.29 110.82 C 110.57 102.33 124.58 93.38 138.80 84.79 C 139.73 84.11 141.35 83.57 141.04 82.08 C 141.08 66.03 141.02 49.98 141.06 33.93 C 141.36 30.66 138.35 27.67 135.07 28.11 C 109.03 28.15 82.99 28.07 56.96 28.15 C 53.84 27.93 51.57 31.06 51.70 33.95 M 29.37 69.57 C 33.09 71.94 36.91 74.14 40.57 76.60 C 40.46 68.12 40.67 59.64 40.45 51.16 C 33.17 54.07 28.45 61.75 29.37 69.57 M 152.50 51.27 C 152.40 59.59 152.45 67.91 152.48 76.23 C 156.12 74.15 159.61 71.82 163.27 69.77 C 164.63 61.97 159.72 54.16 152.50 51.27 M 29.43 82.84 C 29.38 103.91 29.38 124.99 29.44 146.07 C 29.49 154.73 37.33 162.37 45.99 162.19 C 79.67 162.19 113.35 162.17 147.02 162.12 C 155.63 162.27 163.40 154.58 163.38 145.97 C 163.43 124.97 163.48 103.97 163.37 82.97 C 142.03 96.06 120.74 109.23 99.37 122.29 C 97.18 123.90 94.40 123.06 92.36 121.65 C 71.42 108.66 50.40 95.79 29.43 82.84 Z" />
<path fill="#ed31b1" opacity="1.00" d=" M 66.41 39.54 C 78.18 38.48 90.15 39.37 102.00 39.03 C 105.47 39.19 110.12 38.14 112.32 41.64 C 114.79 44.99 112.18 50.29 108.04 50.36 C 94.69 50.47 81.33 50.47 67.99 50.33 C 62.34 50.22 61.09 41.27 66.41 39.54 Z" />
<path fill="#ed31b1" opacity="1.00" d=" M 67.40 61.63 C 73.77 61.40 80.19 61.30 86.55 61.66 C 92.11 62.60 92.22 71.50 86.69 72.57 C 80.25 72.93 73.75 72.86 67.31 72.60 C 61.52 71.77 61.58 62.37 67.40 61.63 Z" />
</g>
</svg>
