<?xml version="1.0" encoding="UTF-8" ?>
<!DOCTYPE svg PUBLIC "-//W3C//DTD SVG 1.1//EN" "http://www.w3.org/Graphics/SVG/1.1/DTD/svg11.dtd">
<svg width="192pt" height="192pt" viewBox="0 0 192 192" version="1.1" xmlns="http://www.w3.org/2000/svg">
<g id="#c42cd3ff">
<path fill="#c42cd3" opacity="1.00" d=" M 40.55 39.55 C 38.59 29.37 44.73 17.30 55.98 16.83 C 82.98 16.69 110.01 16.68 137.01 16.82 C 148.20 17.37 154.30 29.38 152.42 39.53 C 164.62 42.16 174.45 53.34 174.72 65.94 C 174.79 92.98 174.83 120.04 174.71 147.08 C 174.27 161.38 161.36 173.71 147.06 173.54 C 113.04 173.57 79.02 173.61 45.00 173.49 C 30.65 173.26 18.09 160.41 18.16 146.06 C 18.08 119.70 18.12 93.33 18.16 66.97 C 17.98 54.00 27.94 42.16 40.55 39.55 M 51.71 33.95 C 51.77 50.36 51.68 66.76 51.68 83.17 C 66.42 92.57 81.48 101.47 96.26 110.81 C 111.33 101.75 126.33 92.53 141.18 83.13 C 141.06 66.73 141.13 50.33 141.10 33.94 C 141.36 30.64 138.40 27.63 135.06 28.11 C 109.03 28.15 82.99 28.07 56.97 28.15 C 53.85 27.94 51.59 31.05 51.71 33.95 M 152.44 51.24 C 152.41 59.55 152.43 67.86 152.43 76.17 C 156.15 74.23 159.57 71.79 163.25 69.80 C 164.67 61.96 159.68 54.14 152.44 51.24 M 29.39 69.54 C 33.10 71.89 36.87 74.12 40.55 76.50 C 40.49 68.08 40.63 59.64 40.45 51.22 C 33.19 54.08 28.52 61.77 29.39 69.54 M 29.44 82.91 C 29.42 103.97 29.39 125.02 29.46 146.08 C 29.52 154.73 37.34 162.38 46.01 162.17 C 79.68 162.18 113.35 162.18 147.01 162.14 C 155.64 162.28 163.41 154.60 163.40 145.97 C 163.45 125.00 163.47 104.02 163.39 83.04 C 141.96 95.97 120.76 109.29 99.38 122.29 C 97.42 123.69 94.87 123.30 92.97 122.01 C 71.79 108.98 50.64 95.90 29.44 82.91 Z" />
<path fill="#c42cd3" opacity="1.00" d=" M 66.39 39.52 C 80.19 38.58 94.19 39.22 108.05 39.17 C 114.19 39.26 115.02 48.97 109.04 50.24 C 95.37 50.60 81.67 50.40 68.00 50.33 C 62.34 50.23 61.10 41.30 66.39 39.52 Z" />
<path fill="#c42cd3" opacity="1.00" d=" M 67.41 61.63 C 73.77 61.40 80.18 61.32 86.53 61.67 C 92.10 62.60 92.19 71.50 86.68 72.56 C 80.24 72.90 73.75 72.84 67.31 72.59 C 61.57 71.79 61.62 62.34 67.41 61.63 Z" />
</g>
</svg>
