<?xml version="1.0" encoding="UTF-8" ?>
<!DOCTYPE svg PUBLIC "-//W3C//DTD SVG 1.1//EN" "http://www.w3.org/Graphics/SVG/1.1/DTD/svg11.dtd">
<svg width="192pt" height="192pt" viewBox="0 0 192 192" version="1.1" xmlns="http://www.w3.org/2000/svg">
<g id="#47e370ff">
<path fill="#47e370" opacity="1.00" d=" M 34.19 37.15 C 37.01 29.09 45.72 24.31 54.02 24.73 C 73.33 24.91 92.65 24.53 111.96 24.86 C 139.72 26.10 165.11 45.90 173.93 72.10 C 181.25 93.02 178.23 117.32 165.64 135.62 C 153.03 154.54 130.80 166.71 108.00 166.54 C 93.66 166.42 79.29 166.86 64.98 166.20 C 52.21 164.49 45.09 149.28 50.74 137.99 C 41.52 134.10 37.50 122.92 40.67 113.68 C 34.59 113.86 27.95 114.02 22.82 110.20 C 12.76 103.40 12.78 86.61 22.77 79.75 C 27.58 76.02 33.86 76.07 39.63 76.00 C 37.77 70.42 38.59 64.43 41.00 59.16 C 34.18 54.35 31.15 44.98 34.19 37.15 M 51.43 36.66 C 44.30 36.71 42.01 47.74 49.04 49.98 C 59.17 51.77 69.72 49.75 79.93 51.06 C 85.65 51.93 85.74 61.23 79.92 62.04 C 71.83 63.06 63.55 61.95 55.41 62.61 C 50.05 63.46 48.49 71.21 52.50 74.50 C 56.53 78.16 62.91 74.31 66.85 78.14 C 70.04 81.11 68.10 87.27 63.72 87.69 C 52.94 88.20 42.07 87.26 31.33 88.43 C 25.13 90.20 25.68 100.92 32.27 101.66 C 42.11 102.54 52.08 101.37 61.91 102.28 C 66.08 102.51 68.74 107.78 66.05 111.10 C 62.68 114.56 57.11 112.54 53.52 115.54 C 49.89 118.68 50.85 125.79 55.75 127.12 C 61.29 128.60 67.24 126.65 72.74 128.35 C 76.21 129.52 77.62 134.36 75.16 137.12 C 71.74 140.89 65.41 138.02 62.16 142.13 C 58.38 146.45 61.32 154.12 67.13 154.57 C 81.43 154.77 95.76 154.78 110.06 154.67 C 131.84 154.07 152.28 139.88 160.99 120.00 C 169.63 101.12 167.39 77.74 155.10 60.97 C 144.47 45.95 126.45 36.43 108.00 36.55 C 89.14 36.62 70.28 36.44 51.43 36.66 Z" />
<path fill="#47e370" opacity="1.00" d=" M 119.37 61.38 C 127.21 60.15 134.99 67.09 134.61 75.01 C 134.76 82.21 128.19 88.64 121.01 88.40 C 113.85 88.54 107.44 82.16 107.56 75.00 C 107.30 68.32 112.76 62.12 119.37 61.38 Z" />
</g>
</svg>
