<?xml version="1.0" encoding="UTF-8" ?>
<!DOCTYPE svg PUBLIC "-//W3C//DTD SVG 1.1//EN" "http://www.w3.org/Graphics/SVG/1.1/DTD/svg11.dtd">
<svg width="192pt" height="192pt" viewBox="0 0 192 192" version="1.1" xmlns="http://www.w3.org/2000/svg">
<g id="#908c9cff">
<path fill="#908c9c" opacity="1.00" d=" M 22.23 26.95 C 21.83 23.58 24.53 20.53 27.98 20.79 C 44.66 20.75 61.35 20.65 78.02 20.83 C 81.24 20.91 83.22 23.95 83.07 26.95 C 83.22 39.61 83.11 52.26 83.17 64.92 C 92.06 55.88 100.89 46.78 109.89 37.85 C 112.02 35.46 115.87 35.75 117.92 38.09 C 129.47 49.53 140.94 61.05 152.41 72.56 C 154.95 74.66 155.58 78.69 152.97 81.02 C 144.04 90.33 135.00 99.54 125.98 108.75 C 138.65 108.91 151.34 108.65 164.01 108.80 C 167.41 108.60 169.87 111.77 169.62 114.99 C 169.65 131.68 169.89 148.37 169.72 165.06 C 169.76 168.55 166.15 170.51 163.01 170.24 C 135.67 170.22 108.32 170.39 80.98 170.24 C 74.72 169.90 74.48 159.24 80.91 159.08 C 106.67 158.77 132.45 158.90 158.21 158.82 C 158.85 146.03 158.45 132.99 158.40 120.11 C 145.26 120.15 132.11 120.33 118.97 120.14 C 117.31 120.21 115.40 119.96 114.04 121.10 C 106.91 127.57 100.94 135.37 93.45 141.42 C 88.31 145.16 82.25 136.89 86.73 132.78 C 104.63 114.19 122.89 95.94 140.77 77.32 C 131.51 68.46 122.76 58.52 113.24 50.28 C 103.38 60.66 92.85 70.47 83.27 81.05 C 82.81 101.39 83.57 121.76 82.92 142.08 C 82.18 157.74 67.62 170.72 52.01 169.90 C 36.04 170.43 21.99 155.91 22.29 140.07 C 22.09 102.37 22.07 64.66 22.23 26.95 M 33.44 32.30 C 33.74 38.02 33.05 43.87 33.78 49.51 C 46.37 49.43 58.96 49.51 71.55 49.45 C 71.56 43.66 71.71 37.87 71.45 32.09 C 58.79 32.44 46.00 31.70 33.44 32.30 M 33.46 61.23 C 33.56 67.35 33.40 73.48 33.47 79.60 C 46.18 79.83 58.91 79.61 71.62 79.61 C 71.74 73.47 71.65 67.33 71.64 61.19 C 58.92 61.13 46.18 61.06 33.46 61.23 M 33.51 91.27 C 33.91 96.85 32.83 102.97 34.04 108.22 C 46.36 108.45 58.70 108.26 71.03 108.27 C 72.40 103.11 71.23 96.84 71.57 91.26 C 58.89 91.20 46.20 91.16 33.51 91.27 M 33.39 120.26 C 33.52 127.18 33.25 134.11 33.48 141.03 C 33.96 149.26 40.30 156.74 48.43 158.34 C 58.23 160.59 69.21 154.11 71.25 144.10 C 72.40 136.20 71.60 128.12 71.74 120.15 C 58.97 120.34 46.11 119.14 33.39 120.26 Z" />
</g>
</svg>
