<?xml version="1.0" encoding="UTF-8" ?>
<!DOCTYPE svg PUBLIC "-//W3C//DTD SVG 1.1//EN" "http://www.w3.org/Graphics/SVG/1.1/DTD/svg11.dtd">
<svg width="192pt" height="192pt" viewBox="0 0 192 192" version="1.1" xmlns="http://www.w3.org/2000/svg">
<g id="#c521d2ff">
<path fill="#c521d2" opacity="1.00" d=" M 51.35 51.41 C 63.22 49.78 75.88 53.12 85.02 60.95 C 89.49 65.11 83.52 73.08 78.33 69.84 C 69.76 64.05 58.85 60.53 48.64 63.74 C 36.03 67.18 26.57 79.04 25.68 92.03 C 24.39 105.11 32.11 118.43 44.02 123.94 C 58.30 130.85 77.31 125.03 85.15 111.19 C 88.94 105.14 89.63 97.90 90.04 90.94 C 91.07 74.29 102.98 59.17 118.61 53.64 C 131.85 48.73 147.47 50.78 158.88 59.14 C 170.17 67.29 176.94 81.11 176.75 95.00 C 176.88 111.83 166.12 128.10 150.65 134.70 C 136.74 140.67 119.31 139.35 107.39 129.62 C 103.06 126.31 106.66 118.53 111.99 119.64 C 116.03 121.19 119.41 124.13 123.61 125.35 C 139.32 130.71 158.48 121.39 163.28 105.33 C 169.12 91.00 162.07 73.71 148.91 66.20 C 134.19 58.01 113.75 63.69 105.59 78.49 C 99.89 87.00 102.21 97.70 99.11 107.02 C 95.00 120.96 83.46 132.52 69.43 136.41 C 53.47 140.94 34.76 135.86 24.13 122.89 C 12.83 109.12 10.79 88.27 19.82 72.79 C 26.23 61.25 38.28 53.15 51.35 51.41 Z" />
<path fill="#c521d2" opacity="1.00" d=" M 40.67 98.02 C 48.11 88.96 55.97 80.18 64.18 71.80 C 63.39 77.80 61.18 83.49 60.24 89.45 C 63.85 89.67 67.47 89.65 71.08 89.89 C 63.54 98.76 56.42 108.24 47.72 115.98 C 48.82 109.91 51.38 104.25 52.88 98.29 C 48.81 98.25 44.73 98.30 40.67 98.02 Z" />
<path fill="#c521d2" opacity="1.00" d=" M 130.34 73.38 C 138.89 71.66 147.10 81.37 143.37 89.41 C 140.89 94.12 139.40 99.19 138.33 104.37 C 134.55 105.04 130.58 105.07 126.81 104.32 C 124.11 100.22 124.06 94.81 121.42 90.56 C 117.36 83.66 122.52 74.19 130.34 73.38 M 131.03 78.57 C 134.79 80.10 137.26 83.12 139.16 86.59 C 141.29 81.96 135.67 75.70 131.03 78.57 Z" />
<path fill="#c521d2" opacity="1.00" d=" M 128.15 107.98 C 132.05 106.98 138.80 107.19 137.28 113.02 C 135.40 120.35 121.28 114.58 128.15 107.98 Z" />
</g>
</svg>
