<?xml version="1.0" encoding="UTF-8" ?>
<!DOCTYPE svg PUBLIC "-//W3C//DTD SVG 1.1//EN" "http://www.w3.org/Graphics/SVG/1.1/DTD/svg11.dtd">
<svg width="192pt" height="192pt" viewBox="0 0 192 192" version="1.1" xmlns="http://www.w3.org/2000/svg">
<g id="#7663acff">
<path fill="#7663ac" opacity="1.00" d=" M 22.13 43.94 C 21.90 31.71 32.80 20.72 45.02 20.77 C 54.35 20.79 63.70 20.61 73.02 20.85 C 78.79 21.21 79.39 30.54 73.71 31.61 C 64.15 32.13 54.53 31.49 44.95 31.88 C 38.77 32.14 33.10 37.62 33.29 43.93 C 33.26 77.98 33.28 112.02 33.29 146.07 C 33.03 152.81 39.29 158.78 46.00 158.34 C 79.67 158.31 113.33 158.31 147.00 158.28 C 153.68 158.71 159.78 152.74 159.63 146.07 C 159.71 112.36 159.66 78.65 159.67 44.94 C 160.03 39.32 156.10 33.87 150.69 32.41 C 146.74 31.46 142.65 31.90 138.63 31.88 C 138.49 45.20 138.76 58.54 138.53 71.86 C 138.46 75.92 133.22 78.67 129.92 76.15 C 125.05 72.28 120.53 67.97 115.83 63.89 C 110.72 67.69 106.38 72.43 101.28 76.25 C 97.61 78.46 92.42 75.43 92.90 71.06 C 92.89 56.03 92.73 40.99 92.98 25.97 C 92.85 19.71 102.92 18.97 103.90 25.05 C 104.54 36.29 104.01 47.59 104.16 58.85 C 108.08 56.13 110.96 50.99 116.03 50.60 C 120.69 51.68 123.44 56.20 127.24 58.81 C 127.37 47.87 127.19 36.92 127.34 25.98 C 127.17 22.98 129.99 20.39 132.97 20.75 C 138.65 20.78 144.34 20.55 150.02 20.90 C 161.44 21.91 170.99 32.47 170.84 43.94 C 170.86 77.64 170.95 111.33 171.00 145.02 C 171.60 157.68 160.85 169.54 148.06 169.55 C 113.69 169.62 79.32 169.59 44.95 169.53 C 33.00 169.53 22.31 159.04 22.12 147.09 C 22.01 112.71 22.10 78.32 22.13 43.94 Z" />
</g>
</svg>
