<?xml version="1.0" encoding="UTF-8" ?>
<!DOCTYPE svg PUBLIC "-//W3C//DTD SVG 1.1//EN" "http://www.w3.org/Graphics/SVG/1.1/DTD/svg11.dtd">
<svg width="192pt" height="192pt" viewBox="0 0 192 192" version="1.1" xmlns="http://www.w3.org/2000/svg">
<g id="#ff3660ff">
<path fill="#ff3660" opacity="1.00" d=" M 30.47 34.93 C 30.38 25.26 39.32 16.86 48.95 17.35 C 84.59 17.38 120.24 17.23 155.88 17.41 C 162.45 17.28 162.63 28.04 156.05 28.09 C 119.74 28.44 83.39 27.94 47.08 28.33 C 39.30 29.21 39.54 41.83 47.39 42.44 C 82.58 42.85 117.80 42.44 152.99 42.63 C 157.85 42.51 161.64 47.30 161.10 51.99 C 161.05 90.68 161.26 129.38 161.00 168.06 C 160.97 174.55 150.39 174.52 150.40 168.06 C 150.19 131.37 150.40 94.67 150.31 57.97 C 150.67 55.48 148.61 53.04 146.02 53.39 C 113.69 53.34 81.35 53.39 49.02 53.37 C 46.37 53.38 43.80 52.71 41.25 52.07 C 41.21 86.41 41.20 120.75 41.25 155.10 C 41.02 159.25 44.94 162.72 49.01 162.38 C 77.29 162.52 105.58 162.18 133.85 162.53 C 140.10 163.17 139.37 173.42 133.06 173.13 C 104.70 173.27 76.34 173.22 47.98 173.15 C 38.49 173.15 30.09 164.56 30.44 155.05 C 30.45 115.01 30.41 74.97 30.47 34.93 Z" />
<path fill="#ff3660" opacity="1.00" d=" M 90.77 97.65 C 94.11 93.17 94.20 85.97 98.02 82.36 C 101.77 86.05 102.35 92.97 105.02 97.84 C 109.85 98.26 114.71 98.16 119.53 98.68 C 121.10 98.46 121.83 100.81 120.57 101.59 C 117.20 105.02 112.45 107.02 109.56 110.85 C 110.30 115.66 112.23 120.21 112.98 125.02 C 113.19 126.50 112.55 127.23 111.07 127.20 C 106.46 124.94 102.86 120.69 98.00 119.08 C 93.14 120.71 89.54 124.97 84.93 127.24 C 82.51 127.45 83.00 124.89 83.36 123.33 C 84.37 119.10 85.48 114.91 86.54 110.70 C 82.97 107.08 78.43 104.62 74.90 100.97 C 74.44 99.46 75.76 98.42 77.16 98.54 C 81.68 98.08 86.27 98.36 90.77 97.65 Z" />
</g>
</svg>
