<?xml version="1.0" encoding="UTF-8" ?>
<!DOCTYPE svg PUBLIC "-//W3C//DTD SVG 1.1//EN" "http://www.w3.org/Graphics/SVG/1.1/DTD/svg11.dtd">
<svg width="192pt" height="192pt" viewBox="0 0 192 192" version="1.1" xmlns="http://www.w3.org/2000/svg">
<g id="#19b0ffff">
<path fill="#19b0ff" opacity="1.00" d=" M 84.42 14.53 C 117.88 9.25 153.18 27.44 168.51 57.59 C 184.35 86.86 179.65 125.55 157.14 150.10 C 135.58 174.99 98.32 184.29 67.58 172.48 C 47.07 165.00 29.93 148.91 21.12 128.94 C 9.38 103.08 12.52 71.18 29.20 48.17 C 42.00 30.06 62.41 17.53 84.42 14.53 M 87.37 25.45 C 63.52 28.08 41.87 44.01 31.84 65.74 C 18.20 93.95 26.38 130.56 50.92 150.11 C 76.64 172.27 118.39 171.40 143.15 148.17 C 167.02 127.53 173.63 90.24 158.45 62.60 C 145.36 37.10 115.81 21.63 87.37 25.45 Z" />
<path fill="#19b0ff" opacity="1.00" d=" M 76.12 81.10 C 78.09 69.99 90.94 63.15 101.44 66.58 C 110.25 68.96 116.79 77.89 115.82 87.07 C 115.78 94.05 110.67 99.41 105.41 103.31 C 105.20 110.21 105.65 117.13 105.18 124.02 C 104.57 127.89 100.18 128.49 96.98 128.28 C 93.37 128.23 87.92 129.04 86.60 124.57 C 85.63 117.49 87.02 110.24 85.78 103.18 C 79.09 98.09 74.29 89.71 76.12 81.10 Z" />
</g>
</svg>
