<?xml version="1.0" encoding="UTF-8" ?>
<!DOCTYPE svg PUBLIC "-//W3C//DTD SVG 1.1//EN" "http://www.w3.org/Graphics/SVG/1.1/DTD/svg11.dtd">
<svg width="192pt" height="192pt" viewBox="0 0 192 192" version="1.1" xmlns="http://www.w3.org/2000/svg">
<g id="#8f99a3ff">
<path fill="#8f99a3" opacity="1.00" d=" M 39.33 21.46 C 46.12 19.82 53.11 20.74 60.00 20.78 C 84.00 20.77 108.00 20.77 132.00 20.77 C 139.62 20.70 147.49 19.60 154.86 22.11 C 164.00 25.12 170.79 34.28 170.69 43.95 C 170.69 78.65 170.74 113.36 170.68 148.06 C 170.49 160.29 159.16 170.84 146.98 170.49 C 112.66 170.48 78.34 170.53 44.02 170.45 C 31.79 170.35 20.89 159.31 21.19 147.04 C 21.17 112.67 21.17 78.30 21.21 43.94 C 21.10 33.45 29.12 23.65 39.33 21.46 M 32.32 43.93 C 32.26 78.30 32.29 112.68 32.31 147.06 C 32.04 153.82 38.36 159.61 45.00 159.36 C 79.00 159.36 113.01 159.37 147.01 159.33 C 153.68 159.54 159.75 153.69 159.63 147.00 C 159.69 112.67 159.71 78.33 159.63 44.00 C 159.70 37.68 154.19 32.62 148.18 31.76 C 147.93 60.86 148.20 89.97 148.05 119.07 C 148.10 123.76 145.30 128.29 140.90 130.04 C 127.56 135.76 114.12 141.28 100.74 146.91 C 97.49 148.35 93.73 148.12 90.53 146.66 C 77.60 141.17 64.60 135.83 51.67 130.33 C 47.42 128.73 44.09 124.73 44.02 120.08 C 43.74 90.65 44.23 61.19 43.78 31.76 C 37.72 32.48 32.19 37.60 32.32 43.93 M 55.31 31.86 C 55.36 61.05 55.15 90.25 55.42 119.44 C 68.91 125.16 82.44 130.79 95.97 136.40 C 109.49 130.75 123.04 125.15 136.51 119.38 C 136.74 90.25 136.57 61.10 136.61 31.96 C 109.52 31.57 82.40 31.74 55.31 31.86 Z" />
<path fill="#8f99a3" opacity="1.00" d=" M 64.48 61.42 C 67.08 58.01 72.30 60.14 76.02 59.62 C 79.44 58.77 81.22 63.92 77.98 65.29 C 75.39 65.58 72.78 65.42 70.18 65.39 C 70.16 66.67 70.14 67.95 70.13 69.23 C 72.76 69.44 76.70 68.51 77.52 71.97 C 77.18 75.79 72.87 75.26 70.11 75.28 C 70.14 76.56 70.17 77.84 70.20 79.11 C 72.77 79.14 75.35 79.00 77.90 79.28 C 80.80 79.95 80.04 85.23 76.92 84.65 C 72.95 84.23 67.80 86.11 64.61 83.35 C 63.98 76.10 64.24 68.71 64.48 61.42 Z" />
<path fill="#8f99a3" opacity="1.00" d=" M 83.77 61.99 C 85.47 57.72 91.45 60.23 95.02 59.59 C 101.25 59.21 98.91 67.18 99.29 71.05 C 99.82 76.55 93.04 75.19 89.59 75.17 C 89.50 77.86 89.72 80.58 89.25 83.25 C 88.09 85.74 83.58 84.93 83.72 82.01 C 83.57 75.34 83.50 68.65 83.77 61.99 M 89.42 65.38 C 88.84 68.27 90.24 70.17 93.35 69.42 C 93.39 68.45 93.47 66.50 93.51 65.53 C 92.14 65.48 90.78 65.43 89.42 65.38 Z" />
<path fill="#8f99a3" opacity="1.00" d=" M 104.32 60.22 C 106.22 58.51 109.31 60.56 108.81 62.98 C 108.77 69.61 109.08 76.28 108.64 82.90 C 107.79 86.33 102.03 84.55 103.17 81.05 C 103.87 74.26 101.68 66.30 104.32 60.22 Z" />
<path fill="#8f99a3" opacity="1.00" d=" M 112.93 62.08 C 115.28 57.39 122.53 60.20 126.89 59.87 C 131.59 63.50 125.73 71.65 121.99 65.48 C 121.14 65.46 119.45 65.44 118.60 65.42 C 118.61 70.01 118.58 74.60 118.63 79.19 C 119.46 79.16 121.12 79.11 121.95 79.08 C 123.22 77.70 124.75 75.71 126.88 76.84 C 129.42 78.86 129.21 85.17 125.02 84.70 C 121.28 84.66 117.43 85.15 113.76 84.27 C 111.68 77.22 113.13 69.41 112.93 62.08 Z" />
<path fill="#8f99a3" opacity="1.00" d=" M 73.20 117.81 C 67.53 115.59 69.89 106.10 75.98 106.97 C 82.86 108.99 89.29 112.39 95.98 114.98 C 102.35 112.35 108.63 109.44 115.10 107.07 C 121.41 105.31 124.93 115.32 118.78 117.78 C 111.24 120.68 104.02 125.11 96.00 126.39 C 87.96 125.17 80.77 120.66 73.20 117.81 Z" />
</g>
</svg>
