<?xml version="1.0" encoding="UTF-8" ?>
<!DOCTYPE svg PUBLIC "-//W3C//DTD SVG 1.1//EN" "http://www.w3.org/Graphics/SVG/1.1/DTD/svg11.dtd">
<svg width="192pt" height="192pt" viewBox="0 0 192 192" version="1.1" xmlns="http://www.w3.org/2000/svg">
<g id="#ce8f5cff">
<path fill="#ce8f5c" opacity="1.00" d=" M 39.34 21.42 C 43.15 20.47 47.11 20.75 51.00 20.71 C 82.99 20.73 114.99 20.69 146.98 20.72 C 159.06 20.43 169.96 30.99 170.27 43.03 C 170.35 51.35 170.53 59.70 170.18 68.01 C 169.55 73.55 160.80 74.07 159.40 68.71 C 158.38 59.85 159.56 50.85 158.84 41.96 C 157.91 36.03 152.01 31.43 146.01 32.10 C 112.66 32.37 79.32 31.71 45.98 31.89 C 40.04 31.59 34.04 35.94 33.24 41.96 C 32.58 50.86 33.81 59.88 32.60 68.73 C 31.23 74.09 22.55 73.47 21.90 68.01 C 21.53 60.03 21.80 52.02 21.77 44.03 C 21.65 33.65 29.28 23.90 39.34 21.42 Z" />
<path fill="#ce8f5c" opacity="1.00" d=" M 17.17 79.16 C 23.73 79.23 30.28 79.23 36.84 79.15 C 36.79 81.51 36.77 83.86 36.76 86.21 C 32.61 86.23 28.47 86.26 24.32 86.21 C 24.36 87.98 24.37 89.75 24.39 91.52 C 27.47 91.51 30.56 91.52 33.65 91.52 C 33.66 93.91 33.68 96.30 33.71 98.69 C 30.61 98.67 27.51 98.67 24.41 98.64 C 24.38 100.46 24.33 102.27 24.27 104.10 C 28.45 104.32 32.63 104.24 36.81 104.20 C 36.78 106.60 36.78 109.00 36.78 111.41 C 30.27 111.40 23.75 111.46 17.24 111.36 C 17.18 100.62 17.30 89.89 17.17 79.16 Z" />
<path fill="#ce8f5c" opacity="1.00" d=" M 42.34 79.17 C 48.40 79.46 54.56 78.70 60.56 79.54 C 62.97 81.45 62.01 85.26 62.28 88.00 C 61.92 91.41 63.32 95.85 60.36 98.39 C 56.78 98.96 53.12 98.60 49.51 98.65 C 49.49 102.91 49.48 107.17 49.47 111.43 C 47.23 111.11 44.33 112.14 42.48 110.82 C 42.19 100.28 42.52 89.72 42.34 79.17 M 49.48 86.20 C 49.48 87.97 49.48 89.75 49.48 91.53 C 51.42 91.50 53.36 91.49 55.30 91.48 C 55.21 89.74 55.14 88.00 55.06 86.26 C 53.20 86.24 51.34 86.22 49.48 86.20 Z" />
<path fill="#ce8f5c" opacity="1.00" d=" M 67.49 79.19 C 69.88 79.20 72.27 79.19 74.67 79.17 C 74.62 89.92 74.71 100.68 74.65 111.44 C 72.27 111.42 69.90 111.40 67.53 111.37 C 67.44 100.65 67.56 89.92 67.49 79.19 Z" />
<path fill="#ce8f5c" opacity="1.00" d=" M 81.53 79.58 C 86.59 78.87 91.86 78.65 96.98 78.99 C 101.53 80.15 99.33 86.02 99.82 89.38 C 97.46 89.37 95.09 89.36 92.73 89.33 C 92.68 88.55 92.58 86.98 92.53 86.20 C 90.80 86.22 89.07 86.23 87.34 86.23 C 87.37 87.98 87.38 89.74 87.39 91.49 C 90.98 91.43 94.57 91.49 98.16 91.54 C 101.29 95.67 99.33 101.26 99.86 106.06 C 100.70 114.38 89.94 110.68 84.97 111.44 C 78.77 112.18 80.17 104.81 80.18 100.93 C 82.53 100.88 84.89 100.84 87.25 100.80 C 87.29 101.64 87.36 103.32 87.40 104.16 C 89.16 104.15 90.91 104.15 92.67 104.15 C 92.60 102.32 92.56 100.49 92.50 98.67 C 88.34 98.23 79.62 100.96 80.16 94.07 C 80.77 89.36 78.71 83.65 81.53 79.58 Z" />
<path fill="#ce8f5c" opacity="1.00" d=" M 107.27 79.28 C 112.07 78.35 117.15 78.83 122.04 78.99 C 125.50 79.30 125.23 83.46 125.24 86.01 C 124.99 93.64 125.61 101.32 124.93 108.92 C 123.37 112.91 118.28 111.03 115.00 111.48 C 111.85 111.14 106.63 112.77 105.44 108.71 C 104.98 101.15 105.44 93.56 105.25 85.99 C 105.41 83.70 104.65 80.47 107.27 79.28 M 112.52 86.22 C 112.54 92.20 112.51 98.17 112.55 104.14 C 114.28 104.13 116.02 104.12 117.76 104.12 C 117.78 98.16 117.77 92.20 117.74 86.25 C 116.00 86.24 114.26 86.23 112.52 86.22 Z" />
<path fill="#ce8f5c" opacity="1.00" d=" M 130.47 78.91 C 135.98 78.84 141.51 78.61 147.02 78.96 C 149.05 78.98 150.51 81.00 150.31 82.94 C 150.43 90.97 150.35 99.01 150.35 107.04 C 150.62 109.04 149.19 111.37 147.03 111.38 C 141.53 111.62 136.03 111.39 130.53 111.44 C 130.33 100.60 130.49 89.75 130.47 78.91 M 137.68 86.26 C 137.69 92.21 137.67 98.16 137.70 104.11 C 139.49 104.11 141.28 104.10 143.08 104.10 C 143.05 98.14 143.18 92.18 142.95 86.22 C 141.19 86.24 139.44 86.25 137.68 86.26 Z" />
<path fill="#ce8f5c" opacity="1.00" d=" M 155.01 78.84 C 161.59 78.81 168.17 78.75 174.75 78.88 C 174.76 81.32 174.77 83.77 174.78 86.21 C 170.59 86.26 166.41 86.27 162.23 86.25 C 162.30 88.00 162.37 89.75 162.44 91.50 C 165.50 91.43 168.57 91.43 171.63 91.48 C 171.66 93.89 171.68 96.31 171.70 98.73 C 168.58 98.76 165.45 98.78 162.33 98.77 C 162.32 100.55 162.31 102.33 162.31 104.11 C 166.46 104.10 170.61 104.11 174.76 104.13 C 174.77 106.56 174.77 108.99 174.79 111.42 C 168.16 111.49 161.53 111.51 154.90 111.38 C 154.91 100.54 154.73 89.69 155.01 78.84 Z" />
<path fill="#ce8f5c" opacity="1.00" d=" M 25.21 117.07 C 28.61 115.64 32.81 118.24 32.90 121.96 C 33.40 130.32 32.87 138.71 33.12 147.09 C 33.28 153.17 38.95 158.36 44.99 158.25 C 78.99 158.29 113.01 158.28 147.01 158.22 C 153.08 158.35 158.68 153.16 158.96 147.10 C 159.30 138.43 158.60 129.73 159.24 121.09 C 160.06 115.38 169.30 115.33 170.13 121.06 C 170.61 129.67 170.30 138.34 170.29 146.98 C 170.11 159.10 159.20 169.74 147.06 169.58 C 113.02 169.62 78.98 169.61 44.94 169.56 C 33.22 169.68 22.54 159.71 21.86 148.01 C 21.59 139.67 21.77 131.32 21.75 122.97 C 21.57 120.51 22.87 118.02 25.21 117.07 Z" />
</g>
</svg>
