<?xml version="1.0" encoding="UTF-8" ?>
<!DOCTYPE svg PUBLIC "-//W3C//DTD SVG 1.1//EN" "http://www.w3.org/Graphics/SVG/1.1/DTD/svg11.dtd">
<svg width="192pt" height="192pt" viewBox="0 0 192 192" version="1.1" xmlns="http://www.w3.org/2000/svg">
<g id="#18b7c5ff">
<path fill="#18b7c5" opacity="1.00" d=" M 23.20 59.04 C 25.45 47.38 36.12 38.13 47.90 37.15 C 57.55 36.07 67.32 40.51 73.26 48.11 C 87.11 48.20 100.96 48.14 114.81 48.12 C 121.41 39.63 132.82 35.19 143.38 37.62 C 154.20 39.82 163.41 48.98 165.15 59.96 C 168.60 80.34 172.01 100.73 175.58 121.09 C 177.11 131.45 171.20 142.31 161.73 146.75 C 152.64 151.38 140.84 149.56 133.51 142.48 C 129.24 138.63 127.18 133.12 124.71 128.07 C 115.58 136.25 99.75 132.79 95.13 121.35 C 92.04 121.04 91.41 124.84 89.53 126.55 C 83.06 134.19 70.81 134.40 63.34 128.07 C 60.96 133.16 58.88 138.72 54.43 142.43 C 45.72 150.18 31.71 151.83 22.00 144.98 C 14.77 140.01 11.26 130.74 12.39 122.17 C 16.17 101.16 19.55 80.07 23.20 59.04 M 47.34 48.44 C 40.68 49.71 34.93 55.29 33.91 62.06 C 30.42 82.39 27.05 102.73 23.54 123.06 C 22.72 127.93 24.48 133.46 28.82 136.14 C 36.11 140.58 46.99 137.25 50.40 129.38 C 52.92 124.53 54.81 119.35 57.68 114.70 C 60.45 110.84 67.05 111.82 68.70 116.26 C 70.17 120.20 74.72 122.76 78.74 120.89 C 83.63 119.22 82.29 111.91 87.44 110.63 C 91.76 110.00 96.24 110.01 100.57 110.61 C 105.77 111.79 104.46 119.09 109.26 120.81 C 113.25 122.80 117.90 120.26 119.39 116.30 C 120.92 112.09 126.79 110.92 129.91 114.07 C 135.69 121.38 136.21 133.39 145.83 137.21 C 154.84 141.04 165.84 132.82 164.51 123.10 C 161.19 102.70 157.60 82.34 154.19 61.95 C 152.62 51.21 139.43 44.79 129.91 49.87 C 124.54 52.00 122.53 59.53 116.04 59.27 C 101.69 59.38 87.33 59.30 72.98 59.31 C 69.41 59.55 66.21 57.64 64.20 54.80 C 60.37 49.67 53.59 47.18 47.34 48.44 Z" />
<path fill="#18b7c5" opacity="1.00" d=" M 135.34 64.41 C 140.32 62.08 146.17 67.89 143.57 72.86 C 141.88 76.55 146.31 73.36 148.01 73.71 C 154.14 73.81 156.18 83.11 150.67 85.77 C 145.92 88.76 139.38 83.48 141.52 78.22 C 143.03 74.46 138.23 77.28 136.36 76.65 C 130.35 75.71 129.63 66.37 135.34 64.41 Z" />
<path fill="#18b7c5" opacity="1.00" d=" M 45.49 74.46 C 45.08 70.66 46.26 65.49 51.00 65.49 C 55.78 65.32 57.27 70.51 56.78 74.38 C 60.58 74.06 65.88 75.35 65.72 80.11 C 65.94 84.89 60.61 86.27 56.80 85.77 C 57.28 89.58 55.88 94.94 51.11 94.70 C 46.28 94.91 45.08 89.42 45.33 85.62 C 41.46 86.38 36.30 84.75 36.51 80.00 C 36.47 75.24 41.69 74.05 45.49 74.46 Z" />
<path fill="#18b7c5" opacity="1.00" d=" M 123.93 85.08 C 118.86 81.36 122.79 72.43 128.99 73.76 C 134.35 74.46 135.46 80.67 133.21 84.76 C 136.02 83.73 139.51 82.50 142.03 85.03 C 146.42 88.49 143.64 96.43 138.02 96.34 C 132.44 96.68 129.42 89.67 132.64 85.36 C 129.72 85.81 126.43 87.71 123.93 85.08 Z" />
<path fill="#18b7c5" opacity="1.00" d=" M 80.32 75.22 C 84.55 73.47 91.93 74.19 92.12 80.03 C 92.14 86.16 84.40 86.77 80.11 84.92 C 76.48 82.92 76.58 77.05 80.32 75.22 Z" />
<path fill="#18b7c5" opacity="1.00" d=" M 98.44 75.53 C 102.62 73.28 110.66 74.03 110.72 80.11 C 110.76 86.09 103.23 86.69 98.98 85.05 C 95.39 83.27 95.01 77.67 98.44 75.53 Z" />
</g>
</svg>
