<?xml version="1.0" encoding="UTF-8" ?>
<!DOCTYPE svg PUBLIC "-//W3C//DTD SVG 1.1//EN" "http://www.w3.org/Graphics/SVG/1.1/DTD/svg11.dtd">
<svg width="192pt" height="192pt" viewBox="0 0 192 192" version="1.1" xmlns="http://www.w3.org/2000/svg">
<g id="#ff643bff">
<path fill="#ff643b" opacity="1.00" d=" M 12.72 93.00 C 11.53 51.99 45.78 13.04 87.01 10.68 C 93.23 11.21 93.16 21.32 86.94 21.71 C 53.85 24.76 26.10 54.13 24.11 87.15 C 33.97 87.32 43.87 86.79 53.71 87.39 C 59.00 88.48 59.14 96.77 53.97 98.19 C 44.04 98.76 34.06 98.27 24.10 98.41 C 25.91 129.37 50.27 157.70 80.99 163.11 C 84.18 163.95 88.44 163.32 90.43 166.52 C 92.84 169.87 90.16 175.13 86.05 175.15 C 45.23 172.14 11.64 133.67 12.72 93.00 Z" />
<path fill="#ff643b" opacity="1.00" d=" M 118.62 25.37 C 112.22 23.92 114.20 13.44 120.66 14.41 C 151.97 23.97 175.03 54.45 177.01 86.98 C 178.70 108.30 171.23 129.82 157.57 146.15 C 163.04 152.10 169.26 157.37 174.47 163.54 C 177.42 168.16 171.54 173.96 166.91 171.20 C 160.77 166.31 156.01 159.82 149.87 154.95 C 137.14 165.49 121.62 173.35 104.98 175.10 C 99.65 175.41 97.38 167.57 101.91 164.84 C 106.70 162.94 112.07 162.89 116.90 160.94 C 148.90 150.89 170.44 115.83 165.21 82.74 C 161.84 56.92 143.17 33.99 118.62 25.37 Z" />
<path fill="#ff643b" opacity="1.00" d=" M 89.36 69.47 C 100.78 66.46 113.44 73.65 117.29 84.67 C 121.47 95.68 116.09 109.36 105.31 114.29 C 93.65 120.51 77.76 114.47 72.80 102.31 C 66.71 89.22 75.24 72.35 89.36 69.47 Z" />
</g>
</svg>
