<?xml version="1.0" encoding="UTF-8" ?>
<!DOCTYPE svg PUBLIC "-//W3C//DTD SVG 1.1//EN" "http://www.w3.org/Graphics/SVG/1.1/DTD/svg11.dtd">
<svg width="192pt" height="192pt" viewBox="0 0 192 192" version="1.1" xmlns="http://www.w3.org/2000/svg">
<g id="#b39452ff">
<path fill="#b39452" opacity="1.00" d=" M 43.31 17.31 C 51.86 14.16 52.96 25.18 51.76 30.93 C 51.27 37.42 40.73 37.43 40.17 30.96 C 40.31 26.48 38.46 19.92 43.31 17.31 Z" />
<path fill="#b39452" opacity="1.00" d=" M 92.22 17.27 C 95.99 15.60 100.61 18.88 100.30 22.98 C 100.46 39.32 100.54 55.68 100.22 72.01 C 99.72 78.44 89.21 78.37 88.71 71.98 C 88.42 57.00 88.71 41.99 88.47 27.00 C 88.45 23.54 88.50 18.88 92.22 17.27 Z" />
<path fill="#b39452" opacity="1.00" d=" M 140.40 17.49 C 144.15 15.56 149.09 18.74 148.79 22.97 C 148.85 52.29 148.99 81.63 148.80 110.95 C 148.69 117.87 137.36 117.86 137.11 110.98 C 136.86 82.32 137.16 53.63 137.05 24.96 C 136.93 22.16 137.36 18.62 140.40 17.49 Z" />
<path fill="#b39452" opacity="1.00" d=" M 32.18 48.21 C 39.23 45.41 47.52 47.69 55.05 46.94 C 59.77 46.06 63.55 51.83 60.96 55.81 C 59.13 59.23 54.88 58.52 51.66 58.67 C 51.60 92.47 51.65 126.26 51.73 160.06 C 51.89 163.87 50.17 168.55 46.02 169.43 C 42.12 168.86 39.93 164.74 40.17 161.07 C 40.14 126.95 40.22 92.84 40.16 58.72 C 33.76 61.05 26.09 53.51 32.18 48.21 Z" />
<path fill="#b39452" opacity="1.00" d=" M 78.72 92.01 C 79.77 85.69 87.35 87.08 91.99 87.02 C 97.94 87.89 108.05 84.05 110.19 92.02 C 111.30 97.82 104.80 99.50 100.34 98.96 C 100.39 119.65 100.28 140.34 100.32 161.02 C 100.59 164.65 98.18 169.29 94.00 168.85 C 90.54 168.81 88.51 165.10 88.63 161.98 C 88.56 141.04 88.70 120.10 88.56 99.16 C 84.09 99.60 77.59 97.83 78.72 92.01 Z" />
<path fill="#b39452" opacity="1.00" d=" M 127.88 136.06 C 125.53 132.38 128.62 127.07 132.95 127.16 C 139.64 127.02 146.35 127.01 153.05 127.14 C 157.41 127.06 160.49 132.38 158.14 136.09 C 156.32 139.50 152.00 139.17 148.72 139.23 C 148.57 147.71 149.02 156.21 148.53 164.66 C 147.51 170.28 138.51 170.22 137.40 164.71 C 136.90 156.23 137.36 147.71 137.19 139.22 C 133.93 139.20 129.62 139.52 127.88 136.06 Z" />
</g>
</svg>
