<?xml version="1.0" encoding="UTF-8" ?>
<!DOCTYPE svg PUBLIC "-//W3C//DTD SVG 1.1//EN" "http://www.w3.org/Graphics/SVG/1.1/DTD/svg11.dtd">
<svg width="192pt" height="192pt" viewBox="0 0 192 192" version="1.1" xmlns="http://www.w3.org/2000/svg">
<g id="#45e371ff">
<path fill="#45e371" opacity="1.00" d=" M 86.36 15.45 C 110.59 11.90 135.67 20.91 153.02 37.96 C 177.58 60.69 184.57 99.79 169.96 129.79 C 160.95 148.21 145.42 163.81 126.04 171.04 C 105.75 178.55 82.35 178.67 62.60 169.42 C 48.08 162.61 35.22 151.74 27.07 137.84 C 24.21 133.34 30.67 127.86 34.71 131.19 C 38.12 134.54 40.30 138.95 43.62 142.42 C 63.39 165.16 98.36 172.25 125.58 159.52 C 142.30 151.52 156.49 137.33 162.54 119.60 C 168.91 100.90 168.13 79.26 158.15 61.94 C 150.35 48.45 138.33 37.25 123.95 31.11 C 105.70 23.47 84.19 23.65 66.29 32.23 C 44.64 42.24 28.52 63.92 26.37 87.81 C 25.84 90.49 29.28 90.19 31.00 90.28 C 64.00 90.25 97.01 90.28 130.01 90.25 C 131.50 90.13 134.51 90.32 134.21 88.01 C 131.32 70.81 115.39 57.46 98.01 57.14 C 82.38 55.63 67.21 65.81 60.76 79.76 C 59.35 83.55 53.54 84.00 51.47 80.59 C 49.50 78.00 51.15 74.85 52.45 72.38 C 61.40 54.93 81.70 44.45 101.08 46.22 C 125.89 48.62 147.37 71.42 145.74 96.77 C 145.24 100.41 141.08 101.27 138.03 101.14 C 99.68 101.12 61.33 101.14 22.99 101.13 C 20.01 101.17 15.72 100.63 15.33 96.91 C 13.18 56.87 46.57 19.16 86.36 15.45 Z" />
<path fill="#45e371" opacity="1.00" d=" M 47.83 106.69 C 51.48 106.82 55.59 106.11 58.84 108.13 C 61.53 111.60 62.83 115.96 65.68 119.34 C 74.87 131.83 92.09 137.42 106.90 132.93 C 115.68 130.55 123.08 124.67 128.53 117.51 C 131.64 113.02 139.27 116.85 137.93 121.94 C 125.73 143.74 95.89 151.03 73.98 140.02 C 60.83 133.63 51.28 120.76 47.83 106.69 Z" />
</g>
</svg>
