<?xml version="1.0" encoding="UTF-8" ?>
<!DOCTYPE svg PUBLIC "-//W3C//DTD SVG 1.1//EN" "http://www.w3.org/Graphics/SVG/1.1/DTD/svg11.dtd">
<svg width="192pt" height="192pt" viewBox="0 0 192 192" version="1.1" xmlns="http://www.w3.org/2000/svg">
<g id="#1ab1ffff">
<path fill="#1ab1ff" opacity="1.00" d=" M 74.88 13.93 C 88.28 10.59 102.54 10.69 115.95 13.90 C 122.41 16.05 119.41 24.29 120.24 29.37 C 126.62 32.05 132.59 35.61 138.14 39.73 C 142.94 37.25 150.03 31.72 154.58 37.44 C 162.65 47.50 170.50 58.44 173.81 71.09 C 175.62 78.06 167.01 79.76 162.74 82.83 C 163.52 89.46 163.44 96.15 162.74 102.78 C 166.87 105.75 175.12 107.29 173.90 113.90 C 170.33 127.47 163.05 140.15 153.12 150.07 C 147.95 153.63 142.76 147.64 138.10 145.67 C 132.75 150.16 126.58 153.52 120.13 156.15 C 119.44 161.14 122.44 168.94 116.46 171.46 C 102.67 174.85 87.70 175.59 74.11 170.94 C 68.83 168.15 71.44 161.08 70.70 156.30 C 64.46 153.38 58.36 150.12 52.81 146.02 C 48.03 147.60 42.95 153.42 37.85 150.12 C 27.59 140.03 20.28 126.91 16.73 113.00 C 16.52 106.89 24.05 105.77 27.99 102.83 C 27.34 96.28 27.72 89.72 27.79 83.17 C 24.62 79.22 15.75 78.73 16.75 72.01 C 20.57 58.41 27.84 45.73 37.44 35.39 C 42.66 31.50 47.85 37.91 52.67 39.64 C 55.66 36.63 61.50 33.95 64.33 38.61 C 67.60 44.44 60.43 47.79 56.72 50.73 C 51.73 54.46 46.80 48.60 42.23 46.80 C 36.71 53.99 31.91 61.83 29.01 70.46 C 32.06 72.24 35.34 73.69 38.09 75.93 C 40.92 78.52 39.22 82.65 39.13 85.93 C 38.04 92.90 39.44 99.88 39.64 106.84 C 38.42 111.58 32.61 112.55 29.03 115.08 C 32.21 123.51 36.15 132.38 42.87 138.48 C 47.20 136.18 51.60 130.61 56.95 134.12 C 62.84 140.49 70.90 144.03 78.77 147.32 C 84.10 149.92 81.52 156.94 82.06 161.63 C 90.49 163.21 99.28 163.50 107.69 161.67 C 110.80 157.98 106.60 151.29 110.96 147.97 C 116.40 145.01 122.57 143.34 127.54 139.51 C 130.68 137.34 133.02 133.49 137.19 133.29 C 141.60 132.94 144.74 136.69 148.28 138.68 C 154.29 131.84 158.82 123.77 161.79 115.17 C 157.92 112.34 150.51 111.08 150.97 105.04 C 152.29 97.09 152.43 88.97 151.02 81.02 C 150.02 74.66 157.88 73.25 161.88 70.38 C 158.67 61.87 153.42 54.32 147.99 47.10 C 143.70 49.04 138.88 54.67 134.09 50.90 C 127.50 45.36 119.93 41.22 111.98 38.00 C 106.47 35.35 110.65 28.06 107.93 23.98 C 99.43 21.86 90.45 22.62 81.84 23.79 C 81.56 27.73 83.13 33.42 78.61 35.51 C 74.40 37.51 69.79 33.44 70.65 29.01 C 71.23 24.06 68.68 16.04 74.88 13.93 Z" />
<path fill="#1ab1ff" opacity="1.00" d=" M 80.39 70.53 C 87.77 70.08 95.24 70.12 102.63 70.49 C 105.67 73.28 101.46 77.91 99.57 80.38 C 92.28 80.75 84.91 80.66 77.63 80.31 C 74.32 77.61 78.76 73.17 80.39 70.53 Z" />
<path fill="#1ab1ff" opacity="1.00" d=" M 105.96 79.95 C 110.13 70.72 123.01 67.35 131.44 72.60 C 133.21 73.36 132.92 76.55 130.93 76.76 C 127.50 76.83 123.11 75.44 120.71 78.75 C 114.45 88.07 120.91 100.87 113.93 109.94 C 107.50 117.87 95.94 115.22 87.10 114.51 C 86.81 109.62 92.80 110.41 96.03 110.05 C 99.93 110.27 103.32 106.83 103.37 103.00 C 103.89 95.32 102.50 87.14 105.96 79.95 Z" />
<path fill="#1ab1ff" opacity="1.00" d=" M 70.59 87.44 C 78.79 86.78 87.10 87.20 95.35 87.27 C 94.07 90.82 92.63 94.46 90.10 97.31 C 86.49 97.63 82.85 97.46 79.23 97.50 C 78.01 99.52 76.86 101.59 75.85 103.73 C 78.97 104.54 83.33 102.80 85.67 105.08 C 84.44 108.18 82.53 110.95 80.89 113.84 C 72.29 113.68 63.64 114.39 55.07 113.43 C 60.02 104.63 65.20 95.96 70.59 87.44 Z" />
</g>
</svg>
