<?xml version="1.0" encoding="UTF-8" ?>
<!DOCTYPE svg PUBLIC "-//W3C//DTD SVG 1.1//EN" "http://www.w3.org/Graphics/SVG/1.1/DTD/svg11.dtd">
<svg width="192pt" height="192pt" viewBox="0 0 192 192" version="1.1" xmlns="http://www.w3.org/2000/svg">
<g id="#43c2daff">
<path fill="#43c2da" opacity="1.00" d=" M 84.40 14.50 C 103.95 11.75 124.50 16.11 140.97 27.07 C 168.25 44.64 182.94 79.33 176.37 111.14 C 170.44 144.37 141.82 171.90 108.39 176.57 C 77.17 181.80 43.88 166.72 27.02 139.99 C 8.46 111.89 10.03 72.32 30.75 45.77 C 43.58 28.80 63.30 17.28 84.40 14.50 M 87.41 25.55 C 64.77 27.97 44.12 42.53 33.59 62.62 C 17.40 91.73 26.09 131.39 52.78 151.24 C 77.95 171.47 117.03 170.66 141.24 149.25 C 166.22 128.98 173.73 90.92 158.28 62.70 C 145.29 37.19 115.83 21.68 87.41 25.55 Z" />
<path fill="#43c2da" opacity="1.00" d=" M 72.59 61.49 C 81.59 56.72 92.15 57.77 101.98 57.73 C 110.02 58.04 119.65 59.23 124.48 66.55 C 129.97 75.34 128.29 86.16 128.59 96.00 C 128.88 98.42 127.73 101.58 124.89 101.63 C 111.09 102.12 97.23 101.34 83.44 102.02 C 84.11 108.09 81.71 115.73 86.52 120.52 C 91.67 122.92 97.90 122.20 103.36 121.37 C 109.57 120.08 105.90 109.74 112.95 109.93 C 117.77 110.56 124.42 107.90 127.92 112.20 C 129.66 120.60 125.11 130.72 116.67 133.69 C 108.50 136.75 99.59 136.21 91.02 136.22 C 83.87 135.94 76.09 135.36 70.24 130.78 C 64.62 125.95 63.31 118.04 63.14 111.01 C 63.14 100.98 63.00 90.95 63.21 80.93 C 63.58 73.66 65.69 65.23 72.59 61.49 M 85.00 75.00 C 82.86 79.30 83.67 84.27 83.44 88.89 C 91.67 89.10 99.91 88.98 108.15 88.97 C 108.01 84.19 108.89 78.95 106.40 74.61 C 103.70 71.29 98.84 71.90 95.01 71.75 C 91.56 71.95 87.10 71.67 85.00 75.00 Z" />
</g>
</svg>
