<?xml version="1.0" encoding="UTF-8" ?>
<!DOCTYPE svg PUBLIC "-//W3C//DTD SVG 1.1//EN" "http://www.w3.org/Graphics/SVG/1.1/DTD/svg11.dtd">
<svg width="192pt" height="192pt" viewBox="0 0 192 192" version="1.1" xmlns="http://www.w3.org/2000/svg">
<g id="#46e370ff">
<path fill="#46e370" opacity="1.00" d=" M 27.88 57.88 C 72.98 44.76 117.98 31.27 163.12 18.30 C 171.59 16.12 178.75 26.15 174.77 33.68 C 160.27 75.84 145.77 118.01 131.33 160.18 C 130.04 164.12 128.67 168.77 124.47 170.51 C 118.70 173.54 110.81 169.87 109.57 163.44 C 107.24 152.75 105.24 141.98 102.78 131.32 C 98.36 129.75 93.10 129.67 89.41 126.59 C 85.66 122.66 90.23 115.70 95.31 117.60 C 101.53 119.75 110.37 119.66 113.17 126.83 C 116.10 136.87 117.13 147.40 120.17 157.40 C 133.43 119.36 146.66 81.29 159.36 43.06 C 132.70 68.83 106.39 94.97 79.81 120.82 C 77.23 123.46 72.31 122.45 70.99 119.02 C 67.16 109.26 64.13 99.19 60.52 89.35 C 60.22 88.01 58.71 87.86 57.64 87.51 C 46.30 84.76 34.91 82.26 23.61 79.38 C 17.08 77.74 14.12 69.24 17.72 63.70 C 19.77 60.01 24.13 58.95 27.88 57.88 M 29.70 69.17 C 40.69 72.10 51.83 74.44 62.86 77.19 C 66.54 77.96 69.57 80.75 70.71 84.33 C 73.33 91.64 75.76 99.03 78.34 106.36 C 103.43 82.00 128.46 57.57 153.24 32.88 C 112.04 44.93 70.85 56.98 29.70 69.17 Z" />
</g>
</svg>
