<?xml version="1.0" encoding="UTF-8" ?>
<!DOCTYPE svg PUBLIC "-//W3C//DTD SVG 1.1//EN" "http://www.w3.org/Graphics/SVG/1.1/DTD/svg11.dtd">
<svg width="192pt" height="192pt" viewBox="0 0 192 192" version="1.1" xmlns="http://www.w3.org/2000/svg">
<g id="#a419ffff">
<path fill="#a419ff" opacity="1.00" d=" M 18.77 9.29 C 22.38 17.65 25.32 27.37 33.97 32.00 C 37.96 34.69 43.12 33.66 46.58 30.62 C 73.26 10.59 112.21 9.55 140.07 27.85 C 144.49 29.97 148.59 35.86 154.00 33.01 C 163.65 29.30 166.87 18.77 170.20 10.01 C 170.58 10.08 171.33 10.22 171.71 10.29 C 175.41 22.11 176.34 35.54 171.12 47.07 C 169.99 50.57 166.76 54.33 168.95 58.04 C 185.08 89.34 179.01 130.90 153.51 155.50 C 130.82 178.82 93.71 186.05 63.85 173.22 C 38.36 162.81 19.04 138.81 14.42 111.65 C 11.53 93.83 13.19 74.79 21.59 58.59 C 23.93 55.19 20.26 52.07 19.05 48.98 C 13.22 36.57 14.74 22.00 18.77 9.29 M 87.39 26.50 C 55.44 29.53 28.08 56.88 24.88 88.79 C 20.39 121.42 41.90 155.01 73.34 164.70 C 103.73 175.21 139.90 161.77 156.15 134.06 C 168.24 114.43 169.82 88.82 160.20 67.87 C 148.16 40.27 117.31 22.61 87.39 26.50 Z" />
<path fill="#a419ff" opacity="1.00" d=" M 138.45 75.44 C 140.91 74.69 143.84 76.27 144.06 78.95 C 144.67 87.37 137.51 95.63 129.00 95.84 C 122.03 96.37 114.54 92.02 112.88 84.97 C 112.05 82.37 114.29 79.93 116.83 79.71 C 124.02 78.25 131.23 76.80 138.45 75.44 Z" />
<path fill="#a419ff" opacity="1.00" d=" M 48.24 77.20 C 55.96 77.13 63.48 79.71 71.13 80.60 C 73.65 81.31 77.58 80.83 78.50 83.97 C 76.60 94.49 62.38 99.62 53.96 93.08 C 49.25 89.90 44.58 82.44 48.24 77.20 Z" />
</g>
</svg>
