<?xml version="1.0" encoding="UTF-8" ?>
<!DOCTYPE svg PUBLIC "-//W3C//DTD SVG 1.1//EN" "http://www.w3.org/Graphics/SVG/1.1/DTD/svg11.dtd">
<svg width="192pt" height="192pt" viewBox="0 0 192 192" version="1.1" xmlns="http://www.w3.org/2000/svg">
<g id="#19b0ffff">
<path fill="#19b0ff" opacity="1.00" d=" M 25.57 51.59 C 43.48 21.88 81.36 6.31 114.98 15.06 C 151.45 23.29 179.57 59.19 177.62 96.70 C 176.91 100.10 173.15 101.51 170.01 101.20 C 136.33 101.05 102.63 101.43 68.97 101.01 C 62.57 100.68 62.57 90.20 68.99 89.94 C 101.42 89.62 133.88 89.88 166.33 89.80 C 165.12 71.41 156.23 53.75 142.35 41.66 C 123.57 24.87 95.61 19.54 71.91 27.97 C 41.01 38.27 20.32 71.75 24.97 104.00 C 28.31 134.52 53.68 160.68 84.01 165.19 C 110.38 169.82 138.69 157.88 153.71 135.72 C 155.53 133.13 157.24 129.36 161.01 129.61 C 165.31 129.52 168.09 135.01 165.50 138.44 C 155.31 155.02 139.01 167.75 120.44 173.57 C 90.29 183.55 54.91 173.96 34.04 150.01 C 9.92 123.79 6.31 81.55 25.57 51.59 Z" />
</g>
</svg>
