<?xml version="1.0" encoding="UTF-8" ?>
<!DOCTYPE svg PUBLIC "-//W3C//DTD SVG 1.1//EN" "http://www.w3.org/Graphics/SVG/1.1/DTD/svg11.dtd">
<svg width="192pt" height="192pt" viewBox="0 0 192 192" version="1.1" xmlns="http://www.w3.org/2000/svg">
<g id="#1ab2ffff">
<path fill="#1ab2ff" opacity="1.00" d=" M 19.60 57.03 C 19.35 44.69 30.96 34.72 42.96 35.25 C 73.99 35.35 105.03 35.13 136.05 35.30 C 143.09 35.10 143.13 46.89 135.99 46.58 C 105.31 46.70 74.62 46.50 43.93 46.54 C 36.78 46.44 30.46 52.83 30.72 60.00 C 30.72 84.00 30.71 108.01 30.84 132.01 C 30.61 138.65 36.29 144.68 42.99 144.54 C 78.02 144.65 113.05 144.61 148.07 144.54 C 154.85 144.80 160.99 138.90 160.80 132.08 C 160.80 117.79 160.99 103.49 160.81 89.20 C 157.80 89.02 154.55 89.57 151.75 88.24 C 149.24 86.06 151.67 83.06 153.02 81.00 C 157.50 74.79 161.56 68.27 166.30 62.27 C 168.20 59.75 172.50 61.93 171.96 64.94 C 172.05 87.97 171.89 111.01 172.01 134.05 C 172.17 146.21 160.85 156.18 149.00 156.14 C 113.33 156.30 77.66 156.18 41.99 156.13 C 30.16 156.20 19.56 145.83 19.56 133.97 C 19.47 108.32 19.43 82.67 19.60 57.03 Z" />
<path fill="#1ab2ff" opacity="1.00" d=" M 156.20 35.02 C 159.77 34.21 162.25 38.24 165.20 39.77 C 167.13 41.49 171.97 43.42 169.58 46.57 C 168.08 48.87 165.61 53.47 162.46 50.60 C 158.93 47.73 154.50 45.62 151.79 41.95 C 152.05 39.19 154.35 36.95 156.20 35.02 Z" />
<path fill="#1ab2ff" opacity="1.00" d=" M 146.37 48.35 C 149.57 47.29 151.97 51.02 154.58 52.40 C 156.92 54.39 162.42 56.69 159.30 60.39 C 150.29 72.65 141.12 84.81 132.04 97.03 C 128.82 101.68 122.17 103.74 116.91 102.14 C 113.83 97.09 114.29 89.88 118.33 85.40 C 127.81 73.15 136.52 60.27 146.37 48.35 Z" />
<path fill="#1ab2ff" opacity="1.00" d=" M 44.31 102.42 C 61.50 101.53 78.84 102.16 96.08 102.08 C 102.69 101.65 103.63 112.50 97.03 113.14 C 80.02 113.47 62.98 113.29 45.96 113.22 C 40.10 113.27 38.76 104.14 44.31 102.42 Z" />
<path fill="#1ab2ff" opacity="1.00" d=" M 44.45 121.61 C 65.55 120.89 86.77 121.36 107.90 121.34 C 114.50 121.32 114.66 132.30 108.03 132.39 C 87.35 132.56 66.65 132.50 45.97 132.41 C 40.01 132.54 38.78 123.17 44.45 121.61 Z" />
</g>
</svg>
