<?xml version="1.0" encoding="UTF-8" ?>
<!DOCTYPE svg PUBLIC "-//W3C//DTD SVG 1.1//EN" "http://www.w3.org/Graphics/SVG/1.1/DTD/svg11.dtd">
<svg width="192pt" height="192pt" viewBox="0 0 192 192" version="1.1" xmlns="http://www.w3.org/2000/svg">
<g id="#a519ffff">
<path fill="#a519ff" opacity="1.00" d=" M 54.11 38.17 C 57.24 25.46 70.03 16.33 82.99 16.81 C 95.16 17.39 107.06 26.01 109.80 38.16 C 111.92 45.66 110.42 53.82 106.17 60.30 C 110.51 67.42 115.32 74.25 119.54 81.44 C 123.98 89.24 118.86 100.20 110.23 102.20 C 113.15 102.64 116.19 103.48 118.35 105.62 C 131.72 119.93 145.72 133.66 159.09 147.97 C 165.35 154.48 163.04 166.07 155.41 170.45 C 148.09 174.77 138.54 171.89 132.81 166.21 C 125.03 158.04 116.49 150.65 108.18 143.04 C 102.98 147.90 97.43 152.37 92.19 157.19 C 85.65 163.48 79.44 171.42 70.00 173.16 C 58.72 174.19 47.29 168.29 41.50 158.54 C 31.03 142.55 27.51 122.78 28.46 103.92 C 29.38 91.47 33.46 77.56 44.97 70.92 C 51.05 66.98 58.50 68.27 65.23 69.21 C 55.77 62.28 50.73 49.59 54.11 38.17 M 66.09 37.05 C 59.25 47.84 68.42 63.79 81.15 63.55 C 88.00 62.68 89.91 70.40 93.17 74.77 C 95.92 78.01 93.24 83.38 89.09 83.27 C 78.03 82.12 67.07 80.08 55.99 79.11 C 47.36 78.56 42.72 87.70 40.83 94.82 C 36.72 113.37 39.99 133.35 48.98 150.02 C 52.92 158.35 63.00 165.59 72.08 160.14 C 82.41 152.27 91.69 143.04 101.51 134.53 C 104.03 132.08 107.91 128.52 111.41 131.50 C 122.34 140.88 132.56 151.11 143.50 160.48 C 146.85 163.28 154.41 160.49 151.34 155.59 C 138.64 142.01 125.53 128.75 112.60 115.37 C 110.70 113.11 107.25 111.74 104.63 113.67 C 95.38 120.34 86.52 127.56 77.30 134.29 C 74.37 136.92 69.39 135.27 68.67 131.40 C 66.67 122.08 64.68 112.30 66.75 102.81 C 68.07 96.57 73.51 91.50 79.93 91.00 C 88.91 90.55 97.90 91.83 106.88 91.72 C 109.77 91.60 111.33 87.78 109.45 85.60 C 103.03 75.36 96.39 65.25 89.89 55.05 C 88.33 52.80 86.29 49.95 83.22 50.13 C 80.83 51.50 79.27 55.03 76.01 54.25 C 72.62 53.93 70.44 50.02 71.74 46.94 C 74.21 41.14 81.27 37.98 87.27 39.82 C 92.57 41.02 96.41 45.16 99.32 49.50 C 101.80 41.10 96.53 31.55 88.33 28.76 C 80.11 25.43 70.11 29.16 66.09 37.05 M 77.57 120.52 C 86.37 114.82 93.65 106.63 103.33 102.44 C 95.58 102.84 87.82 101.21 80.12 101.89 C 74.40 105.93 77.11 114.60 77.57 120.52 Z" />
</g>
</svg>
