<?xml version="1.0" encoding="UTF-8" ?>
<!DOCTYPE svg PUBLIC "-//W3C//DTD SVG 1.1//EN" "http://www.w3.org/Graphics/SVG/1.1/DTD/svg11.dtd">
<svg width="192pt" height="192pt" viewBox="0 0 192 192" version="1.1" xmlns="http://www.w3.org/2000/svg">
<g id="#19b0ffff">
<path fill="#19b0ff" opacity="1.00" d=" M 57.14 42.14 C 61.92 37.54 69.64 45.23 65.00 50.01 C 51.89 65.13 38.55 80.05 25.35 95.09 C 38.50 110.43 52.19 125.30 65.30 140.66 C 69.48 145.71 61.40 152.80 56.97 147.98 C 42.41 131.87 28.21 115.42 13.84 99.13 C 11.61 96.92 11.72 93.12 13.97 90.97 C 28.41 74.74 42.55 58.23 57.14 42.14 Z" />
<path fill="#19b0ff" opacity="1.00" d=" M 115.34 41.38 C 119.81 38.79 125.47 44.34 122.92 48.85 C 108.75 81.29 94.49 113.71 80.17 146.09 C 77.94 152.46 67.48 148.85 69.60 142.47 C 83.33 110.42 97.68 78.60 111.58 46.61 C 112.50 44.69 113.26 42.36 115.34 41.38 Z" />
<path fill="#19b0ff" opacity="1.00" d=" M 127.53 49.54 C 123.56 44.55 131.30 37.66 135.78 42.19 C 150.34 58.30 164.58 74.71 178.95 91.00 C 181.44 93.32 181.17 97.37 178.71 99.61 C 164.49 115.73 150.33 131.94 136.00 147.95 C 131.51 152.89 123.32 145.67 127.62 140.57 C 140.75 125.29 154.27 110.33 167.48 95.11 C 154.23 79.87 140.61 64.93 127.53 49.54 Z" />
</g>
</svg>
