<?xml version="1.0" encoding="UTF-8" ?>
<!DOCTYPE svg PUBLIC "-//W3C//DTD SVG 1.1//EN" "http://www.w3.org/Graphics/SVG/1.1/DTD/svg11.dtd">
<svg width="192pt" height="192pt" viewBox="0 0 192 192" version="1.1" xmlns="http://www.w3.org/2000/svg">
<g id="#ee5374ff">
<path fill="#ee5374" opacity="1.00" d=" M 47.88 32.14 C 42.62 27.87 45.90 17.64 52.96 18.18 C 71.58 18.03 86.34 32.80 95.99 47.33 C 105.50 32.83 119.94 19.12 138.05 17.77 C 145.00 17.00 149.67 25.93 145.28 31.25 C 141.59 36.32 133.93 34.89 130.87 29.90 C 117.86 35.44 107.05 46.56 101.87 59.70 C 108.22 62.45 112.91 68.27 113.77 75.21 C 130.21 61.27 147.54 48.40 165.63 36.71 C 168.85 34.42 173.95 36.95 173.81 40.97 C 173.86 56.61 174.10 72.28 173.70 87.90 C 172.93 93.39 164.16 93.35 163.33 87.90 C 162.80 75.72 163.36 63.49 163.07 51.29 C 143.18 65.28 122.81 79.31 106.76 97.77 C 103.37 101.84 98.40 108.75 103.71 113.32 C 111.49 118.14 121.22 117.12 130.00 117.59 C 137.65 118.00 145.99 117.27 152.07 112.08 C 154.86 110.05 156.94 105.80 160.99 106.66 C 164.78 107.22 166.72 112.30 164.19 115.21 C 158.74 122.12 150.48 126.35 141.93 127.96 C 153.02 139.23 153.39 157.05 146.58 170.60 C 145.42 173.06 142.54 173.86 140.02 173.53 C 122.93 172.66 105.91 164.32 95.92 150.22 C 86.63 163.58 70.90 171.53 54.95 173.32 C 51.85 173.51 47.73 174.33 45.74 171.23 C 38.47 157.67 38.70 139.33 50.02 127.95 C 32.14 125.41 19.12 108.61 18.25 91.06 C 17.75 74.69 18.14 58.30 18.04 41.93 C 17.35 37.56 22.66 34.14 26.29 36.75 C 44.33 48.54 61.83 61.23 78.14 75.35 C 78.97 68.33 83.68 62.36 90.18 59.69 C 84.84 46.65 74.37 35.26 61.22 29.93 C 58.37 34.32 51.82 36.33 47.88 32.14 M 28.72 51.26 C 28.83 64.51 28.36 77.79 28.98 91.03 C 29.76 104.27 40.18 117.04 53.99 117.50 C 65.18 117.27 77.32 118.84 87.66 113.71 C 93.95 109.25 88.37 101.53 84.74 97.28 C 68.69 79.06 48.51 65.09 28.72 51.26 M 93.25 70.18 C 84.83 73.30 90.67 87.07 98.85 82.86 C 106.94 79.60 101.26 66.24 93.25 70.18 M 68.66 128.71 C 58.64 131.83 50.08 142.10 51.63 152.99 C 51.86 156.28 52.66 159.50 53.49 162.68 C 66.68 161.26 80.15 154.87 87.38 143.37 C 91.10 137.77 90.70 130.85 90.58 124.43 C 83.65 127.50 75.99 127.46 68.66 128.71 M 101.33 124.43 C 101.31 130.63 100.75 137.30 104.20 142.82 C 111.27 154.70 125.02 161.15 138.37 162.72 C 140.23 155.72 141.93 147.63 138.02 140.99 C 134.09 134.18 127.17 128.41 119.03 128.05 C 113.01 127.60 106.94 126.78 101.33 124.43 Z" />
</g>
</svg>
