<?xml version="1.0" encoding="UTF-8" ?>
<!DOCTYPE svg PUBLIC "-//W3C//DTD SVG 1.1//EN" "http://www.w3.org/Graphics/SVG/1.1/DTD/svg11.dtd">
<svg width="192pt" height="192pt" viewBox="0 0 192 192" version="1.1" xmlns="http://www.w3.org/2000/svg">
<g id="#d6d6d6ff">
<path fill="#d6d6d6" opacity="1.00" d=" M 86.39 15.48 C 116.34 9.63 147.51 33.15 150.44 63.43 C 151.37 81.93 150.65 100.49 150.87 119.01 C 151.31 137.10 142.22 155.04 127.37 165.36 C 112.98 175.73 93.47 178.38 76.82 172.29 C 59.84 166.32 46.32 151.55 41.87 134.11 C 39.38 125.29 40.20 116.04 40.07 107.00 C 40.17 93.35 39.88 79.69 40.24 66.05 C 41.63 41.22 61.82 19.17 86.39 15.48 M 88.39 26.51 C 68.38 29.47 51.95 47.65 51.36 67.93 C 51.27 86.31 51.18 104.70 51.41 123.08 C 52.41 145.72 73.32 165.05 95.99 164.18 C 118.30 164.44 138.45 145.26 139.44 123.00 C 139.59 104.07 139.74 85.13 139.38 66.21 C 137.86 41.51 112.74 21.94 88.39 26.51 Z" />
<path fill="#d6d6d6" opacity="1.00" d=" M 93.47 56.61 C 96.97 55.14 101.21 58.15 101.00 61.93 C 101.01 67.92 101.32 73.95 100.83 79.92 C 99.84 85.40 91.09 85.39 90.05 79.94 C 89.52 74.31 89.94 68.63 89.81 62.97 C 89.55 60.34 90.87 57.52 93.47 56.61 Z" />
</g>
</svg>
