<?xml version="1.0" encoding="UTF-8" ?>
<!DOCTYPE svg PUBLIC "-//W3C//DTD SVG 1.1//EN" "http://www.w3.org/Graphics/SVG/1.1/DTD/svg11.dtd">
<svg width="192pt" height="192pt" viewBox="0 0 192 192" version="1.1" xmlns="http://www.w3.org/2000/svg">
<g id="#81aa6eff">
<path fill="#81aa6e" opacity="1.00" d=" M 30.30 46.38 C 39.79 45.21 49.46 45.93 59.02 45.92 C 64.92 46.08 65.64 55.63 59.92 56.84 C 51.63 57.63 43.25 56.86 34.92 57.19 C 30.31 57.02 26.18 61.36 26.36 65.93 C 26.30 85.31 26.33 104.69 26.35 124.07 C 26.14 128.14 29.09 132.06 33.06 132.97 C 39.19 133.85 45.45 132.64 51.57 133.58 C 56.74 135.08 56.39 143.50 50.99 144.37 C 45.36 144.79 39.68 144.54 34.03 144.50 C 23.95 144.19 15.18 135.15 15.09 125.08 C 14.97 105.37 15.05 85.66 15.06 65.95 C 14.89 56.94 21.56 48.45 30.30 46.38 Z" />
<path fill="#81aa6e" opacity="1.00" d=" M 88.57 48.46 C 90.71 44.55 97.14 45.21 98.52 49.40 C 99.85 53.10 96.81 56.14 95.01 59.01 C 88.32 69.18 81.38 79.19 74.90 89.49 C 85.94 89.66 96.98 89.42 108.01 89.60 C 112.31 89.45 115.06 95.06 112.38 98.41 C 102.69 113.02 93.06 127.70 83.24 142.22 C 79.78 147.72 70.66 142.36 73.68 136.66 C 81.18 124.52 89.62 112.96 97.12 100.81 C 86.07 100.63 75.02 100.88 63.97 100.68 C 59.59 100.89 57.03 95.03 59.79 91.75 C 69.35 77.30 78.93 62.86 88.57 48.46 Z" />
<path fill="#81aa6e" opacity="1.00" d=" M 120.20 46.18 C 125.73 45.32 131.40 45.97 136.98 45.81 C 147.74 45.54 157.26 55.27 157.06 65.98 C 157.15 85.33 157.10 104.68 157.08 124.03 C 157.41 134.52 148.51 144.26 137.96 144.51 C 129.33 144.50 120.66 144.88 112.05 144.31 C 106.75 142.97 106.91 134.43 112.33 133.44 C 120.87 132.82 129.47 133.63 138.02 133.06 C 142.46 132.72 145.90 128.46 145.75 124.09 C 145.85 105.04 145.79 85.99 145.78 66.94 C 146.10 62.88 143.53 58.82 139.64 57.54 C 133.25 56.36 126.62 58.00 120.26 56.66 C 115.68 55.07 115.63 47.82 120.20 46.18 Z" />
<path fill="#81aa6e" opacity="1.00" d=" M 171.33 82.27 C 174.65 81.64 178.04 84.57 177.84 87.97 C 177.92 92.96 178.00 97.96 177.79 102.95 C 177.81 107.19 172.16 109.79 168.94 107.00 C 165.28 104.17 166.98 98.97 166.61 95.01 C 166.68 90.54 165.31 83.37 171.33 82.27 Z" />
</g>
</svg>
