<?xml version="1.0" encoding="UTF-8" ?>
<!DOCTYPE svg PUBLIC "-//W3C//DTD SVG 1.1//EN" "http://www.w3.org/Graphics/SVG/1.1/DTD/svg11.dtd">
<svg width="192pt" height="192pt" viewBox="0 0 192 192" version="1.1" xmlns="http://www.w3.org/2000/svg">
<g id="#d89861ff">
<path fill="#d89861" opacity="1.00" d=" M 74.11 34.04 C 75.72 29.77 82.51 29.68 84.19 33.93 C 95.64 59.96 106.56 86.22 118.01 112.25 C 123.54 102.94 128.46 93.26 133.99 83.95 C 136.04 80.46 141.76 80.99 143.32 84.64 C 154.56 107.11 165.65 129.65 176.78 152.18 C 178.97 155.62 176.13 160.66 172.02 160.46 C 121.34 160.48 70.65 160.31 19.97 160.29 C 16.18 160.49 13.19 156.21 14.69 152.73 C 23.09 130.17 31.56 107.63 40.08 85.13 C 41.44 80.55 48.51 80.24 50.36 84.61 C 51.50 85.84 51.44 88.87 53.47 88.79 C 60.38 70.56 67.09 52.23 74.11 34.04 M 79.38 51.84 C 72.64 69.92 65.87 88.00 59.03 106.03 C 57.63 110.61 50.46 110.76 48.72 106.36 C 47.57 105.28 47.56 101.75 45.66 102.39 C 39.74 117.86 34.04 133.43 28.13 148.91 C 59.19 149.09 90.25 149.00 121.31 148.95 C 107.27 116.62 93.87 83.97 79.38 51.84 M 123.60 125.05 C 126.78 133.25 130.36 141.29 133.93 149.32 C 143.58 149.27 153.23 149.38 162.88 149.34 C 154.81 132.50 146.50 115.77 138.08 99.10 C 133.21 107.72 128.47 116.42 123.60 125.05 Z" />
</g>
</svg>
