<?xml version="1.0" encoding="UTF-8" ?>
<!DOCTYPE svg PUBLIC "-//W3C//DTD SVG 1.1//EN" "http://www.w3.org/Graphics/SVG/1.1/DTD/svg11.dtd">
<svg width="192pt" height="192pt" viewBox="0 0 192 192" version="1.1" xmlns="http://www.w3.org/2000/svg">
<g id="#c420d3ff">
<path fill="#c420d3" opacity="1.00" d=" M 92.37 14.46 C 96.85 13.49 101.61 14.23 105.69 16.29 C 124.37 25.58 143.07 34.85 161.75 44.14 C 168.46 47.32 173.02 54.50 172.79 61.96 C 172.80 84.32 172.83 106.69 172.78 129.05 C 172.85 136.19 168.53 143.11 162.12 146.23 C 143.23 155.66 124.31 165.04 105.40 174.42 C 99.65 177.35 92.60 177.18 86.92 174.17 C 68.22 164.83 49.45 155.61 30.77 146.24 C 24.39 143.05 20.10 136.20 20.13 129.05 C 20.13 106.34 20.08 83.63 20.16 60.92 C 20.24 52.99 25.89 46.08 33.07 43.18 C 52.92 33.81 72.12 22.85 92.37 14.46 M 92.35 26.31 C 74.46 35.24 56.49 44.05 38.63 53.05 C 56.81 62.48 75.32 71.28 93.59 80.55 C 94.79 80.98 96.06 82.23 97.38 81.44 C 116.29 72.12 135.14 62.66 154.05 53.34 C 137.35 43.99 119.70 36.14 102.67 27.32 C 99.60 25.48 95.66 24.41 92.35 26.31 M 31.43 62.18 C 31.44 84.46 31.38 106.74 31.45 129.02 C 31.40 132.24 33.54 135.17 36.42 136.48 C 54.54 145.49 72.64 154.53 90.80 163.45 C 90.72 139.48 91.00 115.51 90.66 91.55 C 70.85 81.89 51.17 71.97 31.43 62.18 M 102.28 91.50 C 102.00 115.46 102.22 139.43 102.17 163.39 C 120.28 154.49 138.32 145.45 156.40 136.49 C 159.70 135.09 161.75 131.62 161.51 128.06 C 161.48 106.11 161.57 84.16 161.47 62.20 C 141.73 71.96 122.10 81.93 102.28 91.50 Z" />
</g>
</svg>
