<?xml version="1.0" encoding="UTF-8" ?>
<!DOCTYPE svg PUBLIC "-//W3C//DTD SVG 1.1//EN" "http://www.w3.org/Graphics/SVG/1.1/DTD/svg11.dtd">
<svg width="192pt" height="192pt" viewBox="0 0 192 192" version="1.1" xmlns="http://www.w3.org/2000/svg">
<g id="#c650b6ff">
<path fill="#c650b6" opacity="1.00" d=" M 73.89 13.86 C 100.54 7.08 130.60 16.57 148.17 37.78 C 150.84 41.11 148.30 46.79 144.00 46.90 C 140.67 47.50 138.58 44.52 136.53 42.47 C 121.78 27.08 98.79 20.27 78.02 25.07 C 48.39 31.29 25.56 60.78 27.27 91.06 C 27.90 105.89 34.80 120.28 45.70 130.30 C 48.59 133.05 53.28 134.14 56.73 131.77 C 63.06 127.94 64.43 120.12 68.32 114.36 C 71.89 108.76 78.18 104.52 85.02 104.92 C 92.70 105.19 99.16 109.99 104.82 114.72 C 108.69 110.37 113.69 106.72 116.87 101.95 C 116.10 90.71 121.29 78.99 131.23 73.25 C 139.04 68.39 150.35 66.10 152.98 55.91 C 153.60 51.42 159.46 48.81 162.85 52.15 C 178.98 69.29 182.78 99.34 166.77 117.76 C 160.68 124.67 151.25 127.89 142.17 127.17 C 133.15 136.14 124.35 145.35 115.19 154.17 C 110.52 158.60 102.83 151.72 106.54 146.54 C 114.01 138.30 122.21 130.69 129.95 122.68 C 126.62 120.73 124.49 116.71 121.26 115.13 C 107.41 128.64 93.94 142.57 80.26 156.26 C 77.01 158.95 78.05 164.81 82.09 166.11 C 86.26 168.00 89.14 162.35 93.27 163.62 C 97.48 164.41 99.24 170.22 96.33 173.28 C 90.28 179.58 79.37 180.00 72.83 174.22 C 65.73 168.52 64.42 157.15 70.04 150.00 C 78.30 140.64 88.14 132.56 96.03 122.97 C 92.73 119.84 88.61 116.99 83.95 116.67 C 77.84 117.98 76.32 124.94 73.67 129.68 C 69.98 137.35 62.84 144.07 54.05 144.82 C 47.88 145.50 41.82 142.81 37.36 138.67 C 23.52 125.74 15.23 106.98 15.40 87.99 C 15.36 53.97 40.72 21.65 73.89 13.86 M 138.64 82.62 C 131.34 86.16 127.07 95.03 129.31 102.90 C 131.39 111.28 140.61 116.92 149.03 114.92 C 157.70 113.18 162.96 104.52 164.52 96.39 C 165.85 86.95 164.94 76.82 160.04 68.46 C 154.56 75.38 146.29 78.77 138.64 82.62 Z" />
<path fill="#c650b6" opacity="1.00" d=" M 87.42 35.62 C 93.76 33.75 100.25 40.72 97.86 46.90 C 96.22 52.89 87.76 54.95 83.48 50.52 C 78.46 46.14 80.93 36.97 87.42 35.62 Z" />
<path fill="#c650b6" opacity="1.00" d=" M 120.39 47.42 C 127.34 46.30 132.81 54.96 128.86 60.78 C 125.85 66.26 117.24 66.34 114.03 61.01 C 110.39 55.88 114.06 47.81 120.39 47.42 Z" />
<path fill="#c650b6" opacity="1.00" d=" M 58.42 49.52 C 63.82 48.33 69.34 53.33 68.61 58.83 C 68.53 65.98 58.44 69.62 53.82 64.18 C 48.88 59.67 51.79 50.40 58.42 49.52 Z" />
<path fill="#c650b6" opacity="1.00" d=" M 44.25 79.22 C 50.72 75.72 58.79 82.77 56.48 89.65 C 55.04 95.67 46.68 98.01 42.24 93.78 C 37.53 89.97 38.66 81.60 44.25 79.22 Z" />
</g>
</svg>
