<?xml version="1.0" encoding="UTF-8" ?>
<!DOCTYPE svg PUBLIC "-//W3C//DTD SVG 1.1//EN" "http://www.w3.org/Graphics/SVG/1.1/DTD/svg11.dtd">
<svg width="192pt" height="192pt" viewBox="0 0 192 192" version="1.1" xmlns="http://www.w3.org/2000/svg">
<g id="#ff517dff">
<path fill="#ff517d" opacity="1.00" d=" M 88.36 29.45 C 122.63 24.64 157.25 50.81 162.10 85.03 C 168.21 117.27 146.71 151.49 115.15 160.22 C 84.51 170.06 48.59 153.92 35.42 124.61 C 26.23 105.46 27.00 81.91 37.47 63.42 C 47.69 44.81 67.23 31.71 88.36 29.45 M 89.42 40.54 C 72.99 42.36 57.75 52.04 48.90 65.97 C 39.68 80.19 37.65 98.71 43.34 114.65 C 48.83 130.30 61.69 143.22 77.38 148.62 C 91.70 153.78 108.14 152.65 121.64 145.61 C 137.07 137.66 148.48 122.21 151.09 105.00 C 154.14 87.11 147.78 67.91 134.45 55.57 C 122.70 44.11 105.68 38.56 89.42 40.54 Z" />
</g>
</svg>
