<?xml version="1.0" encoding="UTF-8" ?>
<!DOCTYPE svg PUBLIC "-//W3C//DTD SVG 1.1//EN" "http://www.w3.org/Graphics/SVG/1.1/DTD/svg11.dtd">
<svg width="192pt" height="192pt" viewBox="0 0 192 192" version="1.1" xmlns="http://www.w3.org/2000/svg">
<g id="#bc8c72ff">
<path fill="#bc8c72" opacity="1.00" d=" M 94.18 29.65 C 103.44 22.16 114.24 16.27 126.01 13.98 C 128.39 13.39 130.82 15.57 130.72 17.96 C 130.89 25.33 130.68 32.69 130.81 40.05 C 134.11 40.08 138.64 37.72 140.94 41.21 C 142.53 43.94 140.26 46.64 139.21 49.10 C 133.24 60.39 130.73 73.20 130.67 85.90 C 129.88 99.96 115.87 110.45 102.15 108.65 C 102.18 127.84 102.15 147.02 102.17 166.21 C 107.79 166.14 113.44 166.54 119.04 165.90 C 127.92 164.65 135.40 157.71 137.80 149.15 C 131.25 148.44 124.66 148.94 118.13 149.59 C 112.54 149.70 110.86 141.09 116.00 138.95 C 124.40 136.44 133.36 138.11 142.00 137.59 C 145.19 137.14 149.14 138.55 149.67 142.12 C 151.06 159.95 135.69 176.63 117.95 177.42 C 103.65 177.61 89.34 177.58 75.05 177.42 C 57.88 176.66 43.01 161.18 43.12 143.97 C 42.75 141.01 44.94 137.92 48.01 137.73 C 62.54 137.61 79.13 135.44 90.76 146.26 C 90.70 133.71 90.89 121.15 90.66 108.60 C 77.01 110.48 63.15 99.94 62.26 86.04 C 62.24 73.18 59.39 60.22 52.84 49.08 C 51.49 46.51 48.82 43.11 51.49 40.44 C 54.45 37.88 58.64 40.32 62.06 40.39 C 62.22 34.94 61.93 29.48 62.19 24.03 C 62.22 21.75 64.58 19.78 66.83 20.34 C 76.22 22.48 85.87 24.52 94.18 29.65 M 104.01 36.39 C 106.53 39.37 109.23 42.19 111.87 45.07 C 114.37 44.08 116.91 43.19 119.42 42.20 C 119.32 37.41 119.44 32.62 119.27 27.83 C 113.80 29.93 108.74 32.96 104.01 36.39 M 73.57 33.74 C 73.79 36.67 72.80 40.01 73.98 42.68 C 82.13 45.43 89.79 49.73 95.90 55.83 C 97.81 54.15 99.72 52.47 101.64 50.80 C 94.57 42.14 84.55 35.94 73.57 33.74 M 67.54 52.93 C 71.29 62.85 73.56 73.36 73.53 83.99 C 73.48 90.37 78.61 96.34 84.98 97.03 C 90.03 97.35 95.09 97.10 100.14 97.13 C 102.26 76.96 87.43 56.87 67.54 52.93 M 103.19 64.83 C 109.14 73.99 112.07 84.93 111.75 95.83 C 116.63 93.59 119.64 88.30 119.38 82.98 C 119.43 72.70 121.57 62.56 124.86 52.86 C 116.72 54.70 108.94 58.72 103.19 64.83 M 55.09 148.89 C 57.30 158.02 65.60 165.21 74.95 166.06 C 79.99 166.44 85.06 166.20 90.11 166.20 C 87.90 157.71 80.58 150.77 71.89 149.32 C 66.33 148.46 60.68 148.88 55.09 148.89 Z" />
</g>
</svg>
