<?xml version="1.0" encoding="UTF-8" ?>
<!DOCTYPE svg PUBLIC "-//W3C//DTD SVG 1.1//EN" "http://www.w3.org/Graphics/SVG/1.1/DTD/svg11.dtd">
<svg width="192pt" height="192pt" viewBox="0 0 192 192" version="1.1" xmlns="http://www.w3.org/2000/svg">
<g id="#ff527dff">
<path fill="#ff527d" opacity="1.00" d=" M 37.38 34.48 C 74.85 33.42 112.51 34.32 150.05 33.99 C 153.59 33.43 157.31 36.14 156.97 39.90 C 157.03 76.97 157.01 114.03 156.98 151.09 C 157.27 154.35 154.34 157.27 151.09 156.98 C 114.03 157.00 76.96 157.03 39.91 156.97 C 36.66 157.23 33.76 154.34 34.04 151.09 C 33.97 114.38 34.06 77.67 34.02 40.96 C 33.81 38.39 34.77 35.45 37.38 34.48 M 45.18 45.19 C 45.17 78.73 45.17 112.27 45.18 145.80 C 78.72 145.80 112.27 145.80 145.81 145.80 C 145.83 112.26 145.83 78.73 145.82 45.20 C 112.27 45.20 78.72 45.20 45.18 45.19 Z" />
</g>
</svg>
