<?xml version="1.0" encoding="UTF-8" ?>
<!DOCTYPE svg PUBLIC "-//W3C//DTD SVG 1.1//EN" "http://www.w3.org/Graphics/SVG/1.1/DTD/svg11.dtd">
<svg width="192pt" height="192pt" viewBox="0 0 192 192" version="1.1" xmlns="http://www.w3.org/2000/svg">
<g id="#18adffff">
<path fill="#18adff" opacity="1.00" d=" M 30.48 35.35 C 31.78 26.02 40.57 18.50 50.01 18.74 C 84.34 18.76 118.66 18.69 152.99 18.77 C 163.02 18.88 171.87 27.90 171.82 37.93 C 171.84 59.60 171.99 81.29 171.77 102.96 C 171.53 109.12 161.46 109.15 161.14 102.99 C 160.74 81.31 161.20 59.59 160.96 37.91 C 160.93 33.60 157.09 29.78 152.84 29.57 C 147.28 29.32 141.72 29.58 136.16 29.45 C 136.13 52.06 136.15 74.68 136.15 97.30 C 141.31 97.48 146.50 96.98 151.64 97.56 C 156.71 98.56 156.99 106.67 151.92 107.92 C 146.06 108.56 140.12 108.01 134.22 108.18 C 125.20 128.49 116.21 148.82 107.14 169.10 C 105.62 173.27 100.52 172.83 97.01 172.04 C 85.17 169.93 75.65 159.01 75.32 146.97 C 75.19 138.81 75.34 130.65 75.26 122.49 C 63.18 122.41 51.10 122.58 39.03 122.41 C 27.92 122.20 18.75 111.15 20.53 100.19 C 23.80 78.57 27.14 56.96 30.48 35.35 M 40.94 38.01 C 37.72 59.01 34.46 80.00 31.31 101.01 C 30.09 106.29 34.55 111.82 39.98 111.63 C 53.33 111.76 66.68 111.60 80.02 111.68 C 83.06 111.34 86.07 113.82 86.00 116.94 C 86.27 126.98 85.87 137.03 86.17 147.06 C 86.56 153.98 92.06 159.85 98.70 161.43 C 107.34 142.11 115.87 122.75 124.52 103.44 C 125.65 101.12 125.29 98.48 125.35 95.99 C 125.31 73.85 125.35 51.70 125.35 29.55 C 100.23 29.39 75.11 29.47 50.00 29.49 C 45.30 29.33 41.20 33.38 40.94 38.01 Z" />
</g>
</svg>
