<?xml version="1.0" encoding="UTF-8" ?>
<!DOCTYPE svg PUBLIC "-//W3C//DTD SVG 1.1//EN" "http://www.w3.org/Graphics/SVG/1.1/DTD/svg11.dtd">
<svg width="192pt" height="192pt" viewBox="0 0 192 192" version="1.1" xmlns="http://www.w3.org/2000/svg">
<g id="#ff5580ff">
<path fill="#ff5580" opacity="1.00" d=" M 93.36 30.44 C 96.10 29.26 99.43 30.65 100.64 33.36 C 123.21 73.43 145.80 113.51 168.33 153.61 C 170.69 157.26 167.41 162.51 163.09 162.00 C 118.03 161.99 72.97 162.02 27.91 161.98 C 23.61 162.48 20.34 157.27 22.68 153.63 C 45.09 113.74 67.57 73.88 89.99 33.99 C 90.81 32.57 91.73 31.02 93.36 30.44 M 95.43 47.05 C 76.03 81.65 56.51 116.19 37.09 150.79 C 76.02 150.81 114.95 150.79 153.89 150.79 C 134.41 116.21 115.08 81.53 95.43 47.05 Z" />
</g>
</svg>
