<?xml version="1.0" encoding="UTF-8" ?>
<!DOCTYPE svg PUBLIC "-//W3C//DTD SVG 1.1//EN" "http://www.w3.org/Graphics/SVG/1.1/DTD/svg11.dtd">
<svg width="192pt" height="192pt" viewBox="0 0 192 192" version="1.1" xmlns="http://www.w3.org/2000/svg">
<g id="#7ab16dff">
<path fill="#7ab16d" opacity="1.00" d=" M 31.28 40.36 C 33.48 39.85 35.75 39.74 38.00 39.71 C 71.66 39.78 105.32 39.67 138.97 39.76 C 150.66 39.74 161.02 50.27 160.86 61.95 C 160.90 83.98 160.89 106.01 160.88 128.05 C 161.16 139.81 150.76 150.52 138.97 150.50 C 104.66 150.54 70.34 150.53 36.03 150.49 C 24.21 150.53 13.86 139.82 14.06 128.05 C 14.01 106.02 14.00 83.98 14.08 61.95 C 14.05 51.94 21.54 42.58 31.28 40.36 M 33.37 51.54 C 28.46 52.90 25.08 57.90 25.34 62.94 C 25.36 84.65 25.28 106.37 25.38 128.08 C 25.29 134.18 30.91 139.51 36.99 139.17 C 70.66 139.18 104.33 139.20 138.00 139.13 C 144.11 139.48 149.67 134.12 149.57 128.01 C 149.63 106.01 149.66 83.99 149.56 61.99 C 149.59 55.54 143.33 50.35 137.01 51.13 C 102.47 51.44 67.86 50.61 33.37 51.54 Z" />
<path fill="#7ab16d" opacity="1.00" d=" M 42.33 61.45 C 49.68 60.57 61.34 59.36 63.20 69.01 C 63.86 83.98 63.26 99.01 63.50 114.00 C 63.54 118.27 63.91 123.29 60.45 126.45 C 56.35 130.46 50.14 129.17 44.96 129.21 C 39.63 129.28 34.99 124.38 35.28 119.07 C 35.27 103.02 35.26 86.97 35.32 70.93 C 35.18 66.66 38.20 62.55 42.33 61.45 Z" />
<path fill="#7ab16d" opacity="1.00" d=" M 168.34 74.35 C 172.02 72.51 177.75 74.41 177.78 79.04 C 177.91 89.99 178.07 100.98 177.70 111.92 C 176.90 118.15 166.20 118.10 165.42 111.87 C 164.97 102.26 165.43 92.62 165.22 83.00 C 165.17 79.93 164.99 75.84 168.34 74.35 Z" />
</g>
</svg>
