<?xml version="1.0" encoding="UTF-8" ?>
<!DOCTYPE svg PUBLIC "-//W3C//DTD SVG 1.1//EN" "http://www.w3.org/Graphics/SVG/1.1/DTD/svg11.dtd">
<svg width="192pt" height="192pt" viewBox="0 0 192 192" version="1.1" xmlns="http://www.w3.org/2000/svg">
<g id="#ae5674ff">
<path fill="#ae5674" opacity="1.00" d=" M 84.29 14.38 C 89.78 14.21 99.67 11.03 100.94 18.95 C 101.32 43.96 100.98 69.01 101.11 94.03 C 101.56 97.63 98.94 101.65 95.01 101.33 C 70.01 101.41 45.01 101.33 20.01 101.36 C 17.05 101.70 13.80 100.02 13.16 96.96 C 11.24 56.59 44.30 18.87 84.29 14.38 M 24.48 89.83 C 46.20 90.12 67.95 90.09 89.67 89.85 C 89.47 68.33 89.68 46.81 89.56 25.29 C 55.92 27.27 26.92 56.28 24.48 89.83 Z" />
<path fill="#ae5674" opacity="1.00" d=" M 124.28 20.36 C 124.93 20.32 126.24 20.24 126.89 20.19 C 160.44 33.07 182.07 70.54 176.84 106.06 C 173.53 134.35 154.04 159.78 127.88 170.85 C 108.87 179.00 86.79 179.80 67.34 172.66 C 45.88 164.95 27.70 147.99 19.36 126.68 C 17.39 120.76 26.64 116.93 29.43 122.46 C 35.95 137.48 47.38 150.44 62.00 157.97 C 82.68 169.15 108.92 169.05 129.43 157.52 C 152.82 145.02 167.85 118.57 166.20 92.03 C 165.07 65.88 148.06 41.33 124.04 30.96 C 119.12 29.40 119.24 21.63 124.28 20.36 Z" />
</g>
</svg>
