<?xml version="1.0" encoding="UTF-8" ?>
<!DOCTYPE svg PUBLIC "-//W3C//DTD SVG 1.1//EN" "http://www.w3.org/Graphics/SVG/1.1/DTD/svg11.dtd">
<svg width="192pt" height="192pt" viewBox="0 0 192 192" version="1.1" xmlns="http://www.w3.org/2000/svg">
<g id="#a81bffff">
<path fill="#a81bff" opacity="1.00" d=" M 24.61 38.03 C 24.45 27.17 34.11 17.38 45.03 17.70 C 79.01 17.66 112.99 17.64 146.98 17.70 C 157.79 17.51 167.27 27.26 167.17 38.00 C 167.23 57.00 167.23 76.01 167.18 95.01 C 167.20 101.26 164.04 107.10 159.38 111.14 C 163.39 123.25 166.51 135.64 170.16 147.86 C 171.34 152.44 173.56 157.14 172.34 161.96 C 170.97 167.97 165.18 172.63 158.98 172.54 C 116.97 172.56 74.96 172.55 32.94 172.52 C 26.62 172.67 20.66 167.89 19.38 161.71 C 18.31 157.15 20.31 152.73 21.45 148.41 C 25.14 136.00 28.36 123.45 32.36 111.14 C 27.75 107.06 24.57 101.23 24.60 94.97 C 24.57 75.99 24.56 57.01 24.61 38.03 M 42.27 29.37 C 38.17 30.53 35.66 34.83 35.83 38.96 C 35.81 57.32 35.82 75.68 35.83 94.03 C 35.49 99.13 39.62 104.28 44.93 104.03 C 78.98 104.06 113.03 104.04 147.08 104.01 C 152.24 104.12 156.23 99.02 155.86 94.07 C 155.83 75.37 155.93 56.66 155.81 37.96 C 155.86 32.39 150.39 28.18 145.01 28.89 C 110.78 29.21 76.44 28.18 42.27 29.37 M 42.76 115.65 C 38.48 129.31 34.83 143.16 30.76 156.88 C 29.87 158.62 30.66 161.38 32.96 161.22 C 74.66 161.31 116.35 161.25 158.05 161.22 C 159.89 161.60 161.98 159.99 161.22 158.02 C 157.54 144.69 153.64 131.42 149.82 118.12 C 149.52 116.19 147.92 115.00 145.99 115.36 C 111.59 115.57 77.15 114.96 42.76 115.65 Z" />
<path fill="#a81bff" opacity="1.00" d=" M 42.21 144.12 C 47.05 143.27 52.10 143.62 57.00 143.87 C 62.30 144.76 62.83 153.06 57.68 154.60 C 52.86 155.14 47.94 154.97 43.11 154.71 C 37.99 153.87 37.42 145.95 42.21 144.12 Z" />
<path fill="#a81bff" opacity="1.00" d=" M 70.22 144.10 C 87.06 143.15 104.09 143.82 121.00 143.75 C 127.65 143.85 127.72 154.79 121.03 154.90 C 107.04 155.35 93.01 155.09 79.00 154.95 C 75.73 154.94 72.06 155.72 69.12 153.89 C 65.64 151.52 66.28 145.64 70.22 144.10 Z" />
<path fill="#a81bff" opacity="1.00" d=" M 134.22 144.15 C 139.04 143.21 144.10 143.63 148.99 143.86 C 154.32 144.70 154.89 153.07 149.69 154.60 C 144.96 155.48 140.02 155.28 135.25 154.77 C 130.05 154.02 129.36 145.95 134.22 144.15 Z" />
</g>
</svg>
