<?xml version="1.0" encoding="UTF-8" ?>
<!DOCTYPE svg PUBLIC "-//W3C//DTD SVG 1.1//EN" "http://www.w3.org/Graphics/SVG/1.1/DTD/svg11.dtd">
<svg width="192pt" height="192pt" viewBox="0 0 192 192" version="1.1" xmlns="http://www.w3.org/2000/svg">
<g id="#40e175ff">
<path fill="#40e175" opacity="1.00" d=" M 31.29 40.36 C 33.81 39.77 36.42 39.72 39.00 39.71 C 72.33 39.79 105.66 39.66 138.99 39.77 C 150.66 39.77 161.00 50.28 160.84 61.94 C 160.87 83.98 160.86 106.02 160.85 128.05 C 161.14 139.81 150.74 150.49 138.97 150.48 C 104.66 150.52 70.33 150.51 36.02 150.47 C 24.22 150.50 13.87 139.83 14.07 128.07 C 14.02 106.03 14.01 83.98 14.08 61.93 C 14.06 51.93 21.55 42.58 31.29 40.36 M 33.38 51.53 C 28.46 52.88 25.06 57.89 25.33 62.94 C 25.35 84.65 25.27 106.37 25.37 128.08 C 25.27 134.18 30.90 139.51 36.98 139.18 C 70.65 139.20 104.33 139.23 138.01 139.15 C 144.12 139.48 149.70 134.12 149.59 128.00 C 149.64 106.00 149.67 84.00 149.58 62.00 C 149.61 55.54 143.36 50.33 137.02 51.12 C 102.48 51.42 67.87 50.59 33.38 51.53 Z" />
<path fill="#40e175" opacity="1.00" d=" M 42.31 61.40 C 56.51 60.48 70.83 61.26 85.07 61.00 C 90.59 60.60 95.65 65.47 95.45 71.00 C 95.52 87.00 95.49 103.00 95.47 119.00 C 95.81 124.66 90.65 129.65 85.03 129.26 C 71.67 129.24 58.31 129.34 44.95 129.22 C 39.61 129.29 34.99 124.38 35.25 119.08 C 35.22 103.02 35.20 86.97 35.27 70.92 C 35.16 66.64 38.17 62.52 42.31 61.40 Z" />
<path fill="#40e175" opacity="1.00" d=" M 168.35 74.36 C 172.02 72.51 177.76 74.43 177.76 79.06 C 177.88 90.00 178.04 100.97 177.68 111.90 C 176.91 118.13 166.19 118.08 165.44 111.86 C 165.00 102.25 165.44 92.62 165.24 83.01 C 165.19 79.94 165.00 75.85 168.35 74.36 Z" />
</g>
</svg>
