<?xml version="1.0" encoding="UTF-8" ?>
<!DOCTYPE svg PUBLIC "-//W3C//DTD SVG 1.1//EN" "http://www.w3.org/Graphics/SVG/1.1/DTD/svg11.dtd">
<svg width="192pt" height="192pt" viewBox="0 0 192 192" version="1.1" xmlns="http://www.w3.org/2000/svg">
<g id="#696a6dff">
<path fill="#696a6d" opacity="1.00" d=" M 14.39 73.08 C 12.78 47.32 36.27 23.25 62.03 24.00 C 75.00 24.10 87.68 32.44 91.94 44.87 C 94.62 44.80 97.30 44.81 99.99 44.91 C 104.08 32.75 116.27 24.46 128.93 24.04 C 154.55 22.71 178.24 46.08 177.62 71.65 C 177.57 84.71 169.17 97.41 156.68 101.71 C 160.01 135.57 129.95 167.56 96.00 166.57 C 62.02 167.62 31.97 135.59 35.23 101.74 C 23.25 97.51 14.96 85.67 14.39 73.08 M 57.39 35.49 C 40.55 37.69 26.21 52.95 25.58 70.01 C 25.16 79.35 31.02 89.44 40.65 91.33 C 43.97 91.85 48.05 93.93 47.44 97.94 C 43.07 117.45 53.66 138.44 70.66 148.34 C 85.45 157.31 104.99 157.58 120.03 149.04 C 135.66 140.47 146.13 122.95 145.50 105.05 C 145.48 101.72 143.63 98.28 144.96 95.03 C 146.55 91.74 150.67 91.83 153.63 90.59 C 161.70 87.88 166.27 79.15 166.29 70.99 C 166.42 51.73 148.27 34.22 128.99 35.38 C 120.19 35.78 111.68 42.14 110.06 51.03 C 109.70 54.48 106.83 58.20 103.00 57.08 C 97.69 55.65 92.27 56.40 86.95 57.23 C 82.16 56.43 82.18 50.91 80.69 47.35 C 77.10 38.38 66.55 34.11 57.39 35.49 Z" />
</g>
</svg>
