<?xml version="1.0" encoding="UTF-8" ?>
<!DOCTYPE svg PUBLIC "-//W3C//DTD SVG 1.1//EN" "http://www.w3.org/Graphics/SVG/1.1/DTD/svg11.dtd">
<svg width="192pt" height="192pt" viewBox="0 0 192 192" version="1.1" xmlns="http://www.w3.org/2000/svg">
<g id="#ae36d8ff">
<path fill="#ae36d8" opacity="1.00" d=" M 60.69 28.29 C 55.82 25.99 57.48 17.69 62.98 17.76 C 84.65 17.60 106.34 17.58 128.00 17.77 C 133.09 17.82 135.06 25.29 130.80 27.95 C 126.58 29.97 121.65 28.87 117.13 29.09 C 117.20 44.75 117.13 60.42 117.16 76.08 C 117.06 77.41 117.55 78.65 118.27 79.74 C 132.14 101.54 146.03 123.33 159.86 145.16 C 164.97 153.09 162.55 164.47 154.94 169.93 C 151.02 173.01 145.86 173.77 141.01 173.58 C 109.35 173.49 77.69 173.64 46.04 173.50 C 33.05 173.43 23.97 157.64 30.39 146.37 C 44.54 123.33 59.61 100.83 73.65 77.75 C 74.01 61.55 73.73 45.31 73.77 29.10 C 69.42 28.97 64.89 29.69 60.69 28.29 M 85.10 29.09 C 85.08 38.67 85.09 48.26 85.08 57.84 C 92.01 57.88 98.93 57.87 105.86 57.86 C 105.85 48.27 105.90 38.69 105.81 29.10 C 98.91 29.13 92.00 29.15 85.10 29.09 M 85.09 69.10 C 84.70 73.85 86.24 79.18 83.60 83.47 C 69.34 105.88 55.04 128.26 40.86 150.71 C 37.44 155.26 41.30 162.55 46.98 162.22 C 79.32 162.27 111.68 162.29 144.02 162.21 C 149.61 162.46 153.37 155.33 150.09 150.82 C 136.05 128.57 121.90 106.39 107.77 84.21 C 104.57 79.83 106.27 74.13 105.83 69.11 C 98.91 69.13 92.00 69.15 85.09 69.10 Z" />
<path fill="#ae36d8" opacity="1.00" d=" M 84.29 104.32 C 90.15 101.43 97.34 107.88 95.11 114.02 C 93.65 119.67 85.59 121.70 81.72 117.27 C 77.75 113.57 79.21 106.23 84.29 104.32 Z" />
<path fill="#ae36d8" opacity="1.00" d=" M 108.37 122.52 C 118.05 119.80 127.87 130.16 124.56 139.67 C 122.15 149.38 108.35 152.81 101.74 145.26 C 94.36 138.28 98.40 124.45 108.37 122.52 M 110.41 133.53 C 108.12 134.73 109.21 138.74 111.96 138.22 C 115.38 137.49 113.64 132.05 110.41 133.53 Z" />
<path fill="#ae36d8" opacity="1.00" d=" M 68.31 136.43 C 74.09 133.64 81.10 139.88 79.12 145.94 C 77.82 151.48 70.27 153.74 66.13 149.89 C 61.67 146.33 62.88 138.34 68.31 136.43 Z" />
</g>
</svg>
