<?xml version="1.0" encoding="UTF-8" ?>
<!DOCTYPE svg PUBLIC "-//W3C//DTD SVG 1.1//EN" "http://www.w3.org/Graphics/SVG/1.1/DTD/svg11.dtd">
<svg width="192pt" height="192pt" viewBox="0 0 192 192" version="1.1" xmlns="http://www.w3.org/2000/svg">
<g id="#45e372ff">
<path fill="#45e372" opacity="1.00" d=" M 16.26 26.73 C 13.56 22.21 19.24 16.54 23.79 19.14 C 27.20 21.73 29.90 25.12 33.06 28.00 C 36.77 26.10 40.80 24.66 45.03 24.74 C 79.01 24.72 112.99 24.73 146.97 24.73 C 151.20 24.62 155.24 26.03 158.97 27.90 C 162.13 25.11 164.63 21.53 168.19 19.23 C 172.62 17.08 177.72 22.26 175.57 26.66 C 173.34 30.20 169.79 32.68 167.09 35.84 C 169.00 39.63 170.51 43.72 170.44 48.03 C 170.46 60.68 170.50 73.35 170.42 86.00 C 170.59 89.43 167.29 92.10 163.98 91.66 C 128.00 91.59 92.00 91.85 56.02 91.51 C 49.89 90.98 49.89 81.01 56.03 80.52 C 89.35 80.23 122.70 80.51 156.02 80.37 C 157.45 80.52 159.33 79.78 159.18 78.05 C 159.36 68.04 159.24 58.01 159.24 47.99 C 159.29 41.16 152.77 35.33 146.00 35.83 C 112.33 35.87 78.65 35.74 44.98 35.88 C 38.15 35.86 32.47 42.25 32.89 48.99 C 32.87 82.33 32.88 115.67 32.90 149.02 C 32.46 155.71 38.17 162.04 44.93 161.99 C 78.97 162.08 113.02 162.02 147.06 162.01 C 153.48 162.14 159.31 156.43 159.23 150.00 C 159.39 134.71 159.05 119.40 159.39 104.12 C 159.92 98.10 169.67 97.99 170.31 104.02 C 170.62 119.65 170.46 135.31 170.39 150.96 C 170.07 163.08 159.07 173.43 146.98 173.24 C 112.99 173.28 79.00 173.29 45.02 173.23 C 32.66 173.32 21.61 162.37 21.79 149.99 C 21.74 116.33 21.80 82.67 21.77 49.01 C 21.61 44.44 23.03 40.03 25.00 35.96 C 22.19 32.79 18.72 30.20 16.26 26.73 Z" />
<path fill="#45e372" opacity="1.00" d=" M 62.37 50.47 C 68.37 50.05 72.35 57.89 68.48 62.48 C 65.26 67.14 57.32 65.98 55.53 60.64 C 53.58 56.02 57.37 50.40 62.37 50.47 Z" />
<path fill="#45e372" opacity="1.00" d=" M 129.24 50.47 C 138.93 49.46 139.72 65.48 130.01 65.44 C 120.44 66.37 119.69 50.58 129.24 50.47 Z" />
</g>
</svg>
