<?xml version="1.0" encoding="UTF-8" ?>
<!DOCTYPE svg PUBLIC "-//W3C//DTD SVG 1.1//EN" "http://www.w3.org/Graphics/SVG/1.1/DTD/svg11.dtd">
<svg width="192pt" height="192pt" viewBox="0 0 192 192" version="1.1" xmlns="http://www.w3.org/2000/svg">
<g id="#c11fd5ff">
<path fill="#c11fd5" opacity="1.00" d=" M 54.55 25.57 C 69.07 12.11 90.48 6.79 109.68 11.40 C 128.12 15.58 144.41 28.60 152.16 45.92 C 160.03 63.51 159.78 85.02 149.81 101.75 C 140.29 118.61 122.79 130.69 103.45 132.84 C 104.80 135.92 106.07 139.03 107.15 142.22 C 104.87 142.41 102.59 142.49 100.31 142.58 C 101.24 152.12 104.29 161.90 111.08 168.92 C 112.93 170.93 115.63 172.92 115.18 176.02 C 114.90 180.20 109.34 182.71 106.18 179.82 C 95.26 170.67 90.08 156.40 88.92 142.53 C 86.78 142.46 84.64 142.37 82.50 142.25 C 83.63 139.00 84.93 135.80 86.22 132.62 C 60.76 128.87 38.78 107.60 35.00 82.01 C 30.97 61.38 38.95 39.45 54.55 25.57 M 89.37 21.46 C 74.70 23.15 61.22 31.84 53.33 44.28 C 43.51 58.65 42.95 78.15 50.29 93.70 C 58.62 110.60 76.92 122.63 96.00 121.78 C 113.81 122.42 130.88 111.96 139.67 96.68 C 150.66 78.67 147.92 53.73 133.83 38.16 C 122.89 25.81 105.75 19.32 89.37 21.46 Z" />
</g>
</svg>
