<?xml version="1.0" encoding="UTF-8" ?>
<!DOCTYPE svg PUBLIC "-//W3C//DTD SVG 1.1//EN" "http://www.w3.org/Graphics/SVG/1.1/DTD/svg11.dtd">
<svg width="192pt" height="192pt" viewBox="0 0 192 192" version="1.1" xmlns="http://www.w3.org/2000/svg">
<g id="#d98336ff">
<path fill="#d98336" opacity="1.00" d=" M 28.37 19.46 C 32.72 17.70 36.84 21.54 36.24 25.97 C 36.25 73.00 36.40 120.03 36.21 167.05 C 36.34 173.44 26.01 174.33 25.32 167.92 C 24.93 120.61 25.42 73.28 25.24 25.96 C 24.95 23.39 25.89 20.61 28.37 19.46 Z" />
<path fill="#d98336" opacity="1.00" d=" M 43.75 25.00 C 43.26 21.44 46.41 18.22 49.98 18.73 C 87.00 18.74 124.01 18.66 161.02 18.76 C 165.20 18.40 167.89 23.34 166.00 26.88 C 160.99 40.59 156.29 54.43 151.03 68.04 C 148.43 73.48 139.16 69.94 141.10 64.06 C 144.76 52.53 149.18 41.23 152.91 29.71 C 142.16 29.71 131.42 29.65 120.68 29.74 C 135.23 63.44 150.68 96.77 165.67 130.28 C 167.79 134.11 164.24 138.85 160.01 138.26 C 123.34 138.29 86.66 138.28 49.98 138.26 C 46.47 138.67 43.31 135.53 43.75 132.01 C 43.72 96.34 43.72 60.67 43.75 25.00 M 54.69 29.70 C 54.65 62.20 54.67 94.70 54.69 127.19 C 87.19 127.23 119.69 127.25 152.19 127.16 C 137.55 94.64 122.85 62.14 108.03 29.70 C 90.25 29.70 72.47 29.67 54.69 29.70 Z" />
</g>
</svg>
