<?xml version="1.0" encoding="UTF-8" ?>
<!DOCTYPE svg PUBLIC "-//W3C//DTD SVG 1.1//EN" "http://www.w3.org/Graphics/SVG/1.1/DTD/svg11.dtd">
<svg width="192pt" height="192pt" viewBox="0 0 192 192" version="1.1" xmlns="http://www.w3.org/2000/svg">
<g id="#18b7c5ff">
<path fill="#18b7c5" opacity="1.00" d=" M 82.41 12.53 C 115.88 7.25 151.17 25.44 166.51 55.58 C 182.23 84.64 177.75 123.01 155.62 147.57 C 134.29 172.63 97.16 182.26 66.33 170.77 C 45.48 163.40 28.04 147.15 19.11 126.94 C 7.59 101.52 10.39 70.29 26.35 47.38 C 39.10 28.62 59.92 15.59 82.41 12.53 M 85.38 23.47 C 63.50 25.91 43.40 39.49 32.55 58.59 C 22.44 76.03 20.55 97.87 27.17 116.87 C 35.79 142.34 60.07 161.63 86.91 163.92 C 109.54 166.38 132.93 156.96 147.60 139.58 C 166.70 117.95 170.04 84.32 155.73 59.30 C 142.33 34.55 113.31 19.74 85.38 23.47 Z" />
<path fill="#18b7c5" opacity="1.00" d=" M 91.32 61.39 C 97.79 60.12 104.70 63.31 108.06 68.96 C 113.99 78.33 120.24 87.50 125.97 96.99 C 131.35 106.52 123.92 119.68 113.05 120.19 C 100.36 120.38 87.64 120.48 74.96 120.13 C 64.16 119.31 57.20 106.04 62.66 96.68 C 68.37 87.43 74.42 78.39 80.26 69.21 C 82.66 65.23 86.68 62.19 91.32 61.39 M 93.41 72.45 C 91.11 72.73 89.96 75.00 88.78 76.71 C 83.52 85.09 78.00 93.31 72.77 101.71 C 70.76 104.68 73.28 109.27 76.92 108.97 C 88.63 109.00 100.35 109.08 112.06 108.92 C 115.63 108.94 117.72 104.19 115.56 101.44 C 110.00 92.69 104.36 83.96 98.71 75.26 C 97.65 73.39 95.62 72.01 93.41 72.45 Z" />
</g>
</svg>
