<?xml version="1.0" encoding="UTF-8" ?>
<!DOCTYPE svg PUBLIC "-//W3C//DTD SVG 1.1//EN" "http://www.w3.org/Graphics/SVG/1.1/DTD/svg11.dtd">
<svg width="192pt" height="192pt" viewBox="0 0 192 192" version="1.1" xmlns="http://www.w3.org/2000/svg">
<g id="#18adffff">
<path fill="#18adff" opacity="1.00" d=" M 84.41 13.53 C 104.39 10.73 125.36 15.56 142.00 26.99 C 168.18 44.55 182.43 78.14 176.33 109.16 C 169.65 147.93 132.10 177.59 93.00 176.54 C 69.99 176.54 46.99 176.57 23.99 176.51 C 19.12 177.00 16.08 170.74 19.11 167.05 C 24.12 158.31 32.77 148.05 26.20 137.73 C 9.30 110.89 10.30 74.41 28.37 48.40 C 41.11 29.64 61.95 16.65 84.41 13.53 M 28.61 73.62 C 22.49 92.95 25.49 114.74 36.17 131.93 C 42.42 142.13 40.77 155.53 33.75 164.91 C 54.17 165.10 74.59 164.98 95.01 164.98 C 117.35 164.71 139.28 153.58 152.49 135.54 C 163.28 121.16 168.09 102.47 165.42 84.68 C 161.38 51.74 131.35 24.32 98.02 24.15 C 67.17 22.55 37.31 44.07 28.61 73.62 Z" />
<path fill="#18adff" opacity="1.00" d=" M 79.69 73.66 C 82.23 70.70 87.18 70.23 90.05 72.96 C 94.75 77.61 98.79 82.88 103.41 87.61 C 105.52 89.86 109.13 90.41 111.84 88.95 C 120.73 84.19 129.32 78.85 138.27 74.19 C 140.64 73.04 142.61 76.99 140.37 78.37 C 129.98 89.66 119.59 100.95 109.08 112.13 C 106.62 114.99 101.92 115.38 99.06 112.88 C 94.27 108.69 89.97 103.96 85.15 99.79 C 82.96 97.78 79.60 97.75 77.02 98.98 C 67.64 103.16 58.37 107.58 48.90 111.57 C 47.58 110.48 46.12 108.39 47.96 107.01 C 58.49 95.86 69.11 84.77 79.69 73.66 Z" />
</g>
</svg>
