<?xml version="1.0" encoding="UTF-8" ?>
<!DOCTYPE svg PUBLIC "-//W3C//DTD SVG 1.1//EN" "http://www.w3.org/Graphics/SVG/1.1/DTD/svg11.dtd">
<svg width="192pt" height="192pt" viewBox="0 0 192 192" version="1.1" xmlns="http://www.w3.org/2000/svg">
<g id="#4970c2ff">
<path fill="#4970c2" opacity="1.00" d=" M 22.13 43.94 C 21.90 31.72 32.80 20.74 45.01 20.78 C 75.34 20.79 105.69 20.60 136.01 20.85 C 142.32 21.09 142.27 31.66 135.94 31.73 C 105.95 31.98 75.95 31.67 45.96 31.81 C 39.41 31.64 33.08 37.21 33.30 43.93 C 33.23 72.98 33.32 102.04 33.26 131.10 C 47.24 114.43 60.87 97.48 74.75 80.74 C 78.35 76.02 85.88 74.32 90.52 78.49 C 96.85 84.12 102.77 90.21 109.05 95.90 C 110.59 97.57 113.34 97.60 114.64 95.61 C 132.07 74.26 148.14 51.74 166.08 30.84 C 169.79 34.53 170.88 39.93 170.86 44.97 C 170.97 71.65 170.74 98.33 171.05 125.00 C 170.59 133.72 171.89 142.54 170.33 151.19 C 168.14 161.80 157.89 169.91 147.05 169.58 C 115.49 169.53 83.92 169.72 52.36 169.45 C 46.06 169.25 45.86 158.92 52.16 158.48 C 84.09 158.06 116.06 158.48 148.01 158.23 C 154.76 158.18 160.18 151.67 159.66 145.06 C 159.61 116.90 159.80 88.74 159.57 60.58 C 146.79 76.82 133.99 93.05 121.40 109.44 C 117.67 114.46 109.66 115.12 105.08 110.91 C 98.80 105.22 92.90 99.09 86.49 93.53 C 84.64 91.60 82.10 93.05 80.84 94.86 C 63.11 116.42 45.80 138.33 27.91 159.76 C 23.05 157.30 22.45 150.92 22.08 146.06 C 22.06 112.02 22.08 77.98 22.13 43.94 Z" />
</g>
</svg>
