<?xml version="1.0" encoding="UTF-8" ?>
<!DOCTYPE svg PUBLIC "-//W3C//DTD SVG 1.1//EN" "http://www.w3.org/Graphics/SVG/1.1/DTD/svg11.dtd">
<svg width="192pt" height="192pt" viewBox="0 0 192 192" version="1.1" xmlns="http://www.w3.org/2000/svg">
<g id="#4b72c7ff">
<path fill="#4b72c7" opacity="1.00" d=" M 22.13 43.94 C 21.90 31.71 32.80 20.71 45.02 20.78 C 79.34 20.73 113.67 20.71 147.99 20.77 C 160.20 20.73 171.01 31.75 170.83 43.94 C 170.90 77.98 170.91 112.02 170.87 146.06 C 171.16 158.03 160.93 169.00 148.96 169.49 C 135.98 169.70 122.98 169.57 110.00 169.54 C 105.87 169.82 101.96 166.28 102.03 162.11 C 101.84 146.69 102.19 131.26 101.86 115.84 C 96.35 115.67 90.81 116.19 85.33 115.58 C 81.88 114.37 83.25 109.80 82.90 107.00 C 83.26 104.12 81.87 99.79 85.20 98.27 C 90.76 97.62 96.40 98.19 101.99 97.99 C 102.12 89.88 101.59 81.72 102.61 73.65 C 103.67 65.95 109.12 58.98 116.57 56.54 C 124.45 54.02 132.93 54.31 141.06 55.17 C 141.30 60.47 141.33 65.78 141.09 71.08 C 134.48 71.95 124.97 68.85 121.14 76.15 C 118.87 83.20 120.21 90.81 119.87 98.09 C 125.88 98.25 131.91 97.89 137.91 98.23 C 139.25 98.20 140.44 99.63 140.16 100.95 C 139.87 105.76 138.88 110.48 138.29 115.25 C 132.31 116.98 126.01 115.80 119.89 116.16 C 119.86 130.20 119.86 144.23 119.90 158.27 C 129.27 158.28 138.64 158.38 148.01 158.24 C 154.75 158.18 160.18 151.67 159.67 145.07 C 159.64 111.35 159.75 77.64 159.63 43.92 C 159.68 37.31 153.57 31.71 147.04 31.88 C 113.35 31.77 79.65 31.78 45.96 31.81 C 39.41 31.63 33.08 37.21 33.29 43.93 C 33.25 77.97 33.28 112.02 33.29 146.06 C 33.06 152.41 38.62 158.26 44.99 158.29 C 58.86 158.56 72.77 157.99 86.63 158.52 C 92.36 159.17 92.73 168.35 87.00 169.34 C 73.03 169.85 59.01 169.45 45.03 169.53 C 32.65 169.59 21.77 158.40 22.08 146.05 C 22.06 112.01 22.07 77.97 22.13 43.94 Z" />
</g>
</svg>
