<?xml version="1.0" encoding="UTF-8" ?>
<!DOCTYPE svg PUBLIC "-//W3C//DTD SVG 1.1//EN" "http://www.w3.org/Graphics/SVG/1.1/DTD/svg11.dtd">
<svg width="192pt" height="192pt" viewBox="0 0 192 192" version="1.1" xmlns="http://www.w3.org/2000/svg">
<g id="#dc439eff">
<path fill="#dc439e" opacity="1.00" d=" M 22.09 43.94 C 21.89 31.71 32.78 20.65 45.03 20.75 C 79.35 20.69 113.67 20.70 147.98 20.77 C 160.18 20.77 171.00 31.75 170.79 43.95 C 170.83 78.32 170.87 112.70 170.77 147.07 C 170.73 158.94 159.27 171.52 146.83 168.29 C 138.35 165.69 129.62 163.82 121.34 160.65 C 113.51 156.98 112.56 147.54 111.14 140.05 C 109.52 134.37 114.82 130.34 116.51 125.40 C 119.94 119.54 120.34 112.19 125.20 107.19 C 127.78 103.99 128.20 99.76 128.58 95.82 C 119.18 87.97 128.83 74.57 124.36 64.60 C 116.71 49.33 95.96 45.29 81.38 52.37 C 76.41 55.90 72.05 60.45 68.51 65.39 C 67.37 74.60 69.15 84.00 69.40 93.27 C 61.03 93.49 63.47 103.34 67.56 107.48 C 72.27 111.83 71.95 118.72 74.83 124.08 C 77.24 130.08 84.48 134.72 82.10 141.98 C 80.04 148.88 80.69 158.57 72.89 161.91 C 63.52 165.23 53.73 167.31 44.00 169.28 C 31.90 169.55 21.74 157.86 22.09 146.03 C 22.07 112.00 22.04 77.97 22.09 43.94 M 33.29 43.93 C 33.23 77.97 33.27 112.01 33.27 146.06 C 32.86 152.31 38.47 158.53 44.94 157.49 C 52.88 156.02 60.72 154.00 68.43 151.60 C 69.32 147.44 70.21 143.29 71.08 139.13 C 63.19 131.21 63.24 119.12 56.06 110.96 C 51.91 103.33 50.08 92.25 57.13 85.72 C 58.38 76.47 53.62 65.42 60.25 57.26 C 65.88 50.92 71.51 43.84 79.63 40.62 C 96.84 34.42 118.48 37.91 130.14 52.91 C 138.74 61.72 136.78 74.84 135.76 85.96 C 143.44 94.80 138.95 108.26 132.63 116.59 C 129.44 123.88 126.59 131.36 122.66 138.31 C 122.92 142.25 123.42 146.85 125.83 150.08 C 132.98 153.06 140.71 154.56 148.12 156.87 C 154.61 159.13 159.91 151.97 159.67 146.07 C 159.69 112.02 159.75 77.96 159.65 43.91 C 159.71 37.14 153.39 31.62 146.77 31.82 C 113.26 31.83 79.75 31.90 46.24 31.85 C 39.58 31.55 33.14 37.10 33.29 43.93 Z" />
</g>
</svg>
