<?xml version="1.0" encoding="UTF-8" ?>
<!DOCTYPE svg PUBLIC "-//W3C//DTD SVG 1.1//EN" "http://www.w3.org/Graphics/SVG/1.1/DTD/svg11.dtd">
<svg width="192pt" height="192pt" viewBox="0 0 192 192" version="1.1" xmlns="http://www.w3.org/2000/svg">
<g id="#32b2e8ff">
<path fill="#32b2e8" opacity="1.00" d=" M 48.92 31.97 C 49.02 23.64 56.69 16.38 65.02 16.74 C 85.67 16.74 106.32 16.71 126.97 16.74 C 135.17 16.55 142.66 23.72 142.77 31.92 C 142.89 45.59 142.77 59.26 142.83 72.92 C 148.91 73.10 155.00 72.90 161.08 73.03 C 168.68 73.31 175.15 80.36 174.87 87.94 C 174.90 111.65 174.95 135.36 174.87 159.07 C 174.96 166.90 167.89 173.80 160.07 173.56 C 117.36 173.59 74.65 173.56 31.94 173.54 C 24.11 173.83 16.97 166.92 17.06 159.07 C 17.02 135.02 16.99 110.96 17.11 86.91 C 17.26 77.90 26.50 71.61 35.05 72.97 C 40.09 71.79 44.66 78.05 41.06 82.16 C 38.08 86.77 30.09 81.42 28.43 87.13 C 28.17 110.75 28.38 134.39 28.33 158.02 C 27.88 160.73 30.40 162.75 32.99 162.25 C 75.33 162.20 117.67 162.29 160.01 162.16 C 162.32 162.43 163.77 160.07 163.53 158.01 C 163.52 134.66 163.60 111.31 163.51 87.97 C 163.69 86.04 162.01 84.17 160.04 84.35 C 154.27 84.33 148.49 84.16 142.73 84.47 C 141.99 88.20 140.29 91.84 137.29 94.29 C 124.87 104.54 112.43 114.77 100.00 125.01 C 97.84 127.22 94.09 127.32 91.86 125.17 C 79.60 115.08 67.36 104.95 55.09 94.87 C 51.19 91.82 48.76 86.98 48.86 82.00 C 48.91 65.33 48.79 48.64 48.92 31.97 M 60.26 32.05 C 59.99 47.69 60.26 63.35 60.13 79.00 C 60.19 81.39 59.74 84.38 62.03 85.94 C 73.26 95.25 84.54 104.51 95.81 113.77 C 106.81 104.80 117.71 95.72 128.69 86.73 C 130.17 85.58 131.67 84.07 131.47 82.02 C 131.52 65.68 131.52 49.33 131.48 32.99 C 131.65 30.51 129.67 27.89 127.03 28.14 C 106.67 28.28 86.32 27.67 65.96 27.93 C 63.41 27.75 60.29 29.13 60.26 32.05 Z" />
<path fill="#32b2e8" opacity="1.00" d=" M 82.44 42.62 C 88.50 40.89 94.62 48.01 91.56 53.66 C 89.55 58.85 81.83 60.11 78.41 55.61 C 74.34 51.44 76.94 43.94 82.44 42.62 Z" />
<path fill="#32b2e8" opacity="1.00" d=" M 106.44 42.60 C 111.84 41.11 117.58 46.52 116.21 52.00 C 115.23 57.60 107.69 60.61 103.39 56.61 C 98.19 52.84 100.26 43.95 106.44 42.60 Z" />
<path fill="#32b2e8" opacity="1.00" d=" M 76.32 66.37 C 79.20 65.74 82.63 66.11 83.63 69.36 C 87.98 79.25 104.09 79.10 108.31 69.14 C 110.26 63.61 119.87 66.03 118.46 72.02 C 115.87 79.66 108.73 85.30 100.91 86.86 C 90.18 89.29 78.03 83.34 73.86 73.06 C 72.70 70.60 74.00 67.59 76.32 66.37 Z" />
</g>
</svg>
