<?xml version="1.0" encoding="UTF-8" ?>
<!DOCTYPE svg PUBLIC "-//W3C//DTD SVG 1.1//EN" "http://www.w3.org/Graphics/SVG/1.1/DTD/svg11.dtd">
<svg width="192pt" height="192pt" viewBox="0 0 192 192" version="1.1" xmlns="http://www.w3.org/2000/svg">
<g id="#6b6e9cff">
<path fill="#6b6e9c" opacity="1.00" d=" M 85.28 15.34 C 121.54 10.34 159.27 32.63 172.06 66.97 C 186.97 102.77 171.67 147.93 137.87 167.00 C 131.21 170.11 126.74 159.15 133.43 156.44 C 163.04 138.58 175.02 97.50 159.41 66.58 C 145.26 35.05 106.05 18.21 73.43 29.65 C 42.44 39.06 21.03 71.78 24.80 103.95 C 26.81 124.56 38.44 143.87 55.57 155.47 C 59.55 157.68 58.85 164.36 54.42 165.53 C 49.78 166.73 46.39 162.44 42.98 160.07 C 17.74 139.74 6.82 103.70 16.73 72.81 C 25.65 42.33 53.77 18.93 85.28 15.34 Z" />
<path fill="#6b6e9c" opacity="1.00" d=" M 88.34 35.42 C 118.48 31.18 149.17 53.25 154.83 83.12 C 159.67 104.86 151.05 128.85 133.51 142.57 C 118.66 154.76 97.78 159.08 79.31 153.82 C 60.50 148.78 44.67 134.05 38.29 115.66 C 32.28 98.94 34.14 79.58 43.47 64.43 C 52.87 48.51 69.97 37.47 88.34 35.42 M 134.52 67.17 C 131.91 73.31 128.95 79.52 123.93 84.10 C 123.33 83.92 122.12 83.58 121.51 83.41 C 121.22 80.03 120.95 76.64 120.70 73.26 C 112.66 88.88 99.78 103.16 82.65 108.60 C 76.14 109.25 82.73 100.72 81.08 97.14 C 80.40 97.17 79.04 97.23 78.36 97.27 C 73.36 104.53 67.21 111.56 59.00 115.20 C 56.87 114.55 57.09 111.88 56.36 110.19 C 53.09 110.50 51.71 113.87 49.90 116.12 C 56.99 131.97 73.19 144.57 91.02 144.21 C 108.33 144.56 127.47 138.25 137.16 123.04 C 147.27 108.29 148.19 87.99 139.77 72.26 C 138.49 70.18 137.52 66.95 134.52 67.17 Z" />
<path fill="#6b6e9c" opacity="1.00" d=" M 118.30 99.39 C 127.42 94.91 134.02 110.01 124.76 113.76 C 115.57 118.61 108.76 102.95 118.30 99.39 Z" />
</g>
</svg>
