<?xml version="1.0" encoding="UTF-8" ?>
<!DOCTYPE svg PUBLIC "-//W3C//DTD SVG 1.1//EN" "http://www.w3.org/Graphics/SVG/1.1/DTD/svg11.dtd">
<svg width="192pt" height="192pt" viewBox="0 0 192 192" version="1.1" xmlns="http://www.w3.org/2000/svg">
<g id="#45e371ff">
<path fill="#45e371" opacity="1.00" d=" M 85.38 14.45 C 117.08 9.69 150.37 25.92 166.45 53.57 C 179.03 74.38 181.31 100.95 172.74 123.68 C 162.51 151.71 135.77 172.83 106.06 175.98 C 74.00 180.25 40.67 163.08 25.28 134.71 C 9.63 107.21 12.18 70.64 31.73 45.73 C 44.59 28.79 64.27 17.20 85.38 14.45 M 83.07 26.13 C 87.47 27.91 91.78 29.93 96.29 31.41 C 100.90 30.12 105.21 27.91 109.65 26.12 C 100.86 24.73 91.86 24.77 83.07 26.13 M 61.38 34.40 C 52.69 39.64 44.47 46.48 39.18 55.17 C 40.40 61.86 42.20 68.44 43.75 75.06 C 52.20 77.96 60.69 80.76 69.18 83.55 C 76.29 77.87 83.47 72.24 90.50 66.46 C 91.20 58.19 90.67 49.75 90.73 41.42 C 83.26 38.50 75.84 35.48 68.37 32.57 C 65.86 31.27 63.49 33.27 61.38 34.40 M 124.47 32.50 C 117.02 35.40 109.65 38.50 102.18 41.34 C 101.98 49.61 102.17 57.88 102.06 66.15 C 109.18 72.10 116.48 77.83 123.77 83.56 C 132.22 80.71 140.71 77.96 149.15 75.07 C 150.79 68.38 152.35 61.68 153.88 54.97 C 147.52 45.77 138.84 38.24 128.99 33.01 C 127.62 32.23 125.96 31.73 124.47 32.50 M 30.92 70.11 C 29.14 74.90 27.82 79.85 27.04 84.89 C 28.98 82.58 30.94 80.28 32.83 77.92 C 32.19 75.32 31.57 72.71 30.92 70.11 M 161.93 70.14 C 161.28 72.74 160.67 75.35 160.12 77.97 C 161.98 80.31 163.87 82.62 165.83 84.87 C 165.12 79.82 163.73 74.90 161.93 70.14 M 96.39 76.23 C 90.07 81.37 83.64 86.37 77.34 91.52 C 77.55 99.63 81.00 107.54 82.56 115.55 C 91.82 115.63 101.08 115.61 110.33 115.56 C 112.32 107.73 114.33 99.90 116.19 92.03 C 109.61 86.74 103.05 81.42 96.39 76.23 M 40.05 86.89 C 36.12 91.66 32.18 96.42 28.18 101.13 C 26.24 103.06 27.32 106.03 27.58 108.39 C 29.41 116.85 32.21 125.44 37.39 132.43 C 44.88 133.81 52.44 134.81 59.96 136.05 C 64.02 130.73 68.06 125.38 72.01 119.98 C 69.93 111.40 67.78 102.85 65.59 94.31 C 58.18 91.72 50.70 89.35 43.28 86.80 C 42.26 86.61 40.77 85.62 40.05 86.89 M 127.33 94.25 C 125.17 102.81 122.95 111.35 120.95 119.95 C 124.80 125.43 128.97 130.68 133.01 136.03 C 140.57 134.87 148.12 133.61 155.69 132.49 C 161.30 123.67 165.09 113.50 165.98 103.06 C 161.72 97.13 156.67 91.75 152.07 86.07 C 143.79 88.71 135.58 91.53 127.33 94.25 M 69.37 142.35 C 73.84 149.63 78.48 156.81 83.15 163.97 C 92.57 165.88 102.37 165.56 111.76 163.60 C 115.81 156.71 119.82 149.79 123.64 142.76 C 120.07 137.36 116.06 132.02 111.78 127.16 C 101.68 126.59 91.29 126.64 81.17 127.14 C 76.79 131.73 73.40 137.37 69.37 142.35 M 47.83 145.54 C 53.13 150.79 59.32 155.08 66.04 158.31 C 63.63 154.66 61.66 150.65 58.76 147.37 C 55.16 146.52 51.46 146.22 47.83 145.54 M 134.22 147.29 C 132.16 150.65 130.28 154.10 128.30 157.50 C 134.50 154.46 140.10 150.31 145.07 145.53 C 141.45 146.13 137.83 146.67 134.22 147.29 Z" />
</g>
</svg>
