<?xml version="1.0" encoding="UTF-8" ?>
<!DOCTYPE svg PUBLIC "-//W3C//DTD SVG 1.1//EN" "http://www.w3.org/Graphics/SVG/1.1/DTD/svg11.dtd">
<svg width="192pt" height="192pt" viewBox="0 0 192 192" version="1.1" xmlns="http://www.w3.org/2000/svg">
<g id="#f65991ff">
<path fill="#f65991" opacity="1.00" d=" M 22.10 43.93 C 21.90 31.71 32.77 20.70 44.99 20.77 C 79.33 20.73 113.67 20.71 148.00 20.76 C 160.20 20.75 171.00 31.74 170.81 43.93 C 170.79 59.58 171.04 75.26 170.70 90.90 C 170.17 96.83 160.51 96.91 159.86 90.99 C 159.42 75.31 159.87 59.61 159.65 43.92 C 159.72 37.30 153.58 31.69 147.06 31.84 C 113.36 31.80 79.65 31.79 45.95 31.81 C 39.39 31.60 33.10 37.23 33.28 43.93 C 33.23 77.97 33.26 112.03 33.27 146.08 C 33.02 152.82 39.28 158.78 45.99 158.34 C 79.66 158.33 113.34 158.33 147.01 158.31 C 153.70 158.70 159.80 152.76 159.65 146.07 C 159.68 138.76 159.78 131.43 159.60 124.12 C 159.73 122.58 158.27 121.44 156.81 121.68 C 122.53 121.61 88.25 121.73 53.97 121.60 C 47.92 122.16 46.07 112.71 51.75 110.82 C 58.01 109.86 64.45 110.66 70.79 110.43 C 54.25 92.46 57.08 61.31 76.64 46.67 C 95.64 30.81 127.21 35.67 140.52 56.54 C 151.80 72.56 150.26 95.80 137.28 110.40 C 146.53 110.43 155.77 110.30 165.01 110.44 C 168.37 110.42 171.04 113.64 170.83 116.91 C 170.87 126.96 170.93 137.02 170.80 147.07 C 170.61 159.00 159.96 169.44 148.05 169.51 C 113.69 169.58 79.32 169.56 44.95 169.50 C 32.62 169.50 21.78 158.38 22.07 146.06 C 22.05 112.02 22.04 77.97 22.10 43.93 M 79.00 61.77 C 88.30 60.16 98.06 68.69 95.21 78.31 C 92.96 88.49 78.77 91.24 72.29 83.35 C 73.67 96.66 84.17 111.96 99.00 110.42 C 104.93 110.11 110.98 111.01 116.83 109.88 C 134.05 102.94 140.57 79.95 130.78 64.45 C 129.46 73.90 117.43 79.30 109.83 73.20 C 101.94 67.70 103.62 55.05 111.82 50.67 C 99.82 47.66 86.80 52.28 79.00 61.77 Z" />
<path fill="#f65991" opacity="1.00" d=" M 62.16 138.75 C 60.32 135.16 60.75 128.17 66.14 128.37 C 71.09 127.14 77.91 129.19 76.15 135.60 C 74.78 135.59 73.41 135.59 72.04 135.59 C 71.72 134.45 71.40 133.30 71.09 132.17 C 69.44 132.17 67.79 132.16 66.14 132.17 C 63.87 139.68 75.51 135.58 76.44 141.60 C 76.71 144.13 77.07 147.17 75.32 149.27 C 70.32 152.05 59.70 151.40 61.71 143.24 C 63.07 143.23 64.43 143.21 65.79 143.20 C 66.11 144.35 66.42 145.50 66.73 146.66 C 68.40 146.69 70.07 146.73 71.74 146.74 C 71.80 145.26 71.88 143.78 71.85 142.29 C 68.65 141.13 64.79 141.07 62.16 138.75 Z" />
<path fill="#f65991" opacity="1.00" d=" M 98.66 129.66 C 104.35 126.40 115.53 127.67 113.61 136.54 C 112.19 136.59 110.78 136.64 109.37 136.68 C 109.01 135.26 108.66 133.84 108.31 132.42 C 106.33 132.33 104.36 132.28 102.38 132.28 C 101.36 136.94 101.22 141.93 102.46 146.57 C 104.55 146.63 106.69 146.69 108.70 145.97 C 108.80 144.76 108.91 143.54 109.02 142.33 C 108.25 142.16 106.70 141.81 105.93 141.64 C 105.94 140.89 105.95 139.38 105.95 138.63 C 108.46 138.53 110.97 138.50 113.48 138.52 C 113.48 142.58 114.84 149.77 109.06 150.36 C 104.99 150.68 97.74 151.66 97.29 145.91 C 97.44 140.58 95.81 134.45 98.66 129.66 Z" />
<path fill="#f65991" opacity="1.00" d=" M 83.96 128.64 C 85.89 128.94 89.13 127.46 89.98 129.92 C 92.14 136.66 94.24 143.43 96.01 150.29 C 94.44 150.24 92.87 150.18 91.31 150.09 C 90.95 148.83 90.59 147.57 90.23 146.31 C 88.03 146.31 85.82 146.30 83.62 146.28 C 83.17 147.63 82.72 148.97 82.27 150.32 C 80.69 150.28 79.12 150.23 77.54 150.19 C 79.47 142.94 81.76 135.80 83.96 128.64 M 86.85 134.10 C 86.03 136.87 85.34 139.69 84.83 142.54 C 86.30 142.56 87.77 142.57 89.24 142.59 C 88.49 139.74 87.73 136.90 86.85 134.10 Z" />
<path fill="#f65991" opacity="1.00" d=" M 120.86 128.59 C 122.82 128.94 126.14 127.42 126.88 130.06 C 129.03 136.74 131.08 143.46 132.87 150.25 C 131.33 150.23 129.80 150.22 128.27 150.19 C 127.84 148.89 127.43 147.60 127.01 146.30 C 124.82 146.31 122.64 146.30 120.45 146.28 C 120.03 147.62 119.60 148.96 119.17 150.31 C 117.58 150.27 115.98 150.23 114.39 150.18 C 116.32 142.92 118.58 135.75 120.86 128.59 M 123.76 134.02 C 122.96 136.86 122.18 139.70 121.37 142.54 C 122.94 142.55 124.51 142.57 126.08 142.59 C 125.31 139.73 124.54 136.87 123.76 134.02 Z" />
</g>
</svg>
