<?xml version="1.0" encoding="UTF-8" ?>
<!DOCTYPE svg PUBLIC "-//W3C//DTD SVG 1.1//EN" "http://www.w3.org/Graphics/SVG/1.1/DTD/svg11.dtd">
<svg width="192pt" height="192pt" viewBox="0 0 192 192" version="1.1" xmlns="http://www.w3.org/2000/svg">
<g id="#a419ffff">
<path fill="#a419ff" opacity="1.00" d=" M 77.60 21.62 C 79.30 17.47 83.47 14.59 88.01 14.78 C 103.34 14.72 118.68 14.68 134.01 14.79 C 141.12 14.95 146.25 23.35 142.82 29.68 C 135.37 44.03 127.57 58.21 119.98 72.48 C 127.98 72.83 135.99 72.20 143.98 72.69 C 151.33 73.27 155.37 82.96 150.57 88.58 C 128.60 115.91 106.31 143.00 84.28 170.29 C 77.69 177.92 66.80 174.95 58.00 175.44 C 53.26 176.24 48.73 171.30 50.73 166.71 C 56.75 151.78 62.84 136.85 69.11 122.02 C 71.88 116.59 81.02 119.88 79.74 125.85 C 75.08 138.66 69.38 151.12 64.42 163.83 C 68.38 163.30 73.75 165.48 76.47 161.55 C 97.18 135.64 118.36 110.11 139.12 84.24 C 129.73 84.19 120.34 84.37 110.96 84.15 C 106.66 84.12 103.44 79.23 105.41 75.32 C 113.75 58.88 123.10 42.94 131.24 26.40 C 116.90 26.33 102.56 26.33 88.22 26.40 C 75.65 52.06 62.95 77.70 50.81 103.56 C 60.53 103.96 70.28 103.29 79.99 103.76 C 85.95 104.77 85.91 114.09 80.00 115.20 C 69.33 115.39 58.64 115.34 47.96 115.22 C 41.03 115.20 35.75 107.33 38.98 101.00 C 51.82 74.53 64.69 48.06 77.60 21.62 Z" />
</g>
</svg>
