<?xml version="1.0" encoding="UTF-8" ?>
<!DOCTYPE svg PUBLIC "-//W3C//DTD SVG 1.1//EN" "http://www.w3.org/Graphics/SVG/1.1/DTD/svg11.dtd">
<svg width="192pt" height="192pt" viewBox="0 0 192 192" version="1.1" xmlns="http://www.w3.org/2000/svg">
<g id="#1ab0ffff">
<path fill="#1ab0ff" opacity="1.00" d=" M 37.35 19.45 C 40.14 18.55 43.09 18.36 46.00 18.35 C 79.33 18.39 112.66 18.30 145.98 18.36 C 158.16 18.15 169.07 28.87 169.21 41.02 C 169.23 53.01 169.56 65.05 169.05 77.03 C 168.22 82.75 158.97 82.65 158.29 76.91 C 157.72 64.94 158.40 52.92 157.99 40.94 C 157.78 34.78 152.13 29.49 145.98 29.55 C 112.00 29.52 78.00 29.50 44.01 29.54 C 37.50 29.48 31.83 35.44 32.03 41.92 C 31.77 53.30 32.14 64.68 31.90 76.06 C 32.04 80.12 26.79 82.89 23.51 80.48 C 20.86 78.98 20.87 75.66 20.87 73.01 C 20.98 62.33 20.77 51.64 20.98 40.96 C 21.18 31.28 28.09 22.25 37.35 19.45 Z" />
<path fill="#1ab0ff" opacity="1.00" d=" M 24.22 87.27 C 70.79 86.60 117.45 87.07 164.05 87.04 C 170.94 87.44 169.99 98.93 163.05 98.20 C 117.35 98.25 71.65 98.32 25.96 98.15 C 19.89 98.41 18.41 88.89 24.22 87.27 Z" />
<path fill="#1ab0ff" opacity="1.00" d=" M 24.22 104.13 C 27.55 102.49 32.01 105.18 31.93 108.95 C 32.24 120.65 31.86 132.38 32.08 144.09 C 32.03 150.79 38.33 156.41 44.94 156.00 C 78.31 155.99 111.68 156.02 145.05 155.99 C 151.33 156.39 157.51 151.40 157.95 145.04 C 158.39 132.74 157.69 120.39 158.28 108.10 C 158.95 102.37 168.26 102.27 169.04 107.98 C 169.59 119.95 169.20 131.98 169.24 143.97 C 169.41 156.36 158.37 167.39 145.99 167.20 C 112.00 167.27 78.00 167.29 44.01 167.19 C 32.11 167.23 21.33 156.99 21.00 145.06 C 20.75 133.70 20.96 122.34 20.89 110.98 C 20.75 108.32 21.47 105.20 24.22 104.13 Z" />
</g>
</svg>
