<?xml version="1.0" encoding="UTF-8" ?>
<!DOCTYPE svg PUBLIC "-//W3C//DTD SVG 1.1//EN" "http://www.w3.org/Graphics/SVG/1.1/DTD/svg11.dtd">
<svg width="192pt" height="192pt" viewBox="0 0 192 192" version="1.1" xmlns="http://www.w3.org/2000/svg">
<g id="#607080ff">
<path fill="#607080" opacity="1.00" d=" M 60.35 23.35 C 61.81 22.75 63.43 22.77 64.99 22.71 C 99.67 22.76 134.35 22.68 169.03 22.74 C 173.13 22.24 176.60 25.89 176.18 29.94 C 176.22 72.31 176.21 114.69 176.18 157.06 C 176.44 162.61 171.73 167.90 166.07 167.71 C 124.36 167.79 82.65 167.72 40.95 167.72 C 26.74 168.02 13.96 155.25 14.14 141.05 C 14.11 112.01 14.12 82.96 14.15 53.92 C 13.91 49.02 18.03 44.36 22.99 44.28 C 29.28 44.19 35.60 44.03 41.89 44.36 C 46.95 44.76 48.30 52.61 43.65 54.69 C 38.49 56.38 32.88 54.69 27.58 55.64 C 25.31 56.39 25.26 58.96 25.31 60.94 C 25.35 87.31 25.30 113.69 25.34 140.07 C 24.95 148.65 32.46 156.73 41.14 156.57 C 49.45 156.77 56.96 149.40 56.91 141.09 C 57.06 103.69 56.85 66.29 57.05 28.90 C 56.98 26.61 58.18 24.27 60.35 23.35 M 68.25 37.97 C 68.10 72.32 68.29 106.68 68.16 141.03 C 68.33 146.50 65.29 151.22 64.15 156.41 C 96.11 156.83 128.08 156.43 160.04 156.61 C 161.89 156.64 165.07 156.69 164.79 153.99 C 164.99 117.00 164.78 80.00 164.89 43.01 C 164.96 40.04 164.99 37.02 164.04 34.17 C 133.35 34.17 102.66 34.11 71.97 34.19 C 69.73 33.85 67.93 35.76 68.25 37.97 Z" />
<path fill="#607080" opacity="1.00" d=" M 80.38 49.50 C 102.87 48.63 125.49 49.41 148.03 49.10 C 151.39 48.67 155.63 50.09 156.01 53.96 C 156.40 60.31 156.23 66.70 156.12 73.05 C 156.16 76.27 153.17 78.82 150.02 78.55 C 127.68 78.59 105.33 78.58 82.98 78.55 C 79.81 78.86 76.71 76.27 76.73 73.03 C 76.52 67.02 76.59 60.98 76.70 54.96 C 76.63 52.60 78.11 50.26 80.38 49.50 M 88.18 60.49 C 88.17 62.74 88.17 64.99 88.17 67.24 C 107.05 67.28 125.94 67.26 144.82 67.24 C 144.78 64.99 144.74 62.74 144.71 60.49 C 125.86 60.53 107.02 60.52 88.18 60.49 Z" />
<path fill="#607080" opacity="1.00" d=" M 79.26 92.19 C 101.03 90.76 123.11 92.02 145.00 91.56 C 148.84 91.71 154.28 90.56 156.26 94.89 C 158.29 98.99 154.49 103.68 150.09 103.13 C 127.38 103.13 104.65 103.30 81.94 103.04 C 76.09 103.39 73.82 94.51 79.26 92.19 Z" />
<path fill="#607080" opacity="1.00" d=" M 79.41 116.49 C 103.19 115.35 127.21 116.26 151.08 116.04 C 157.82 115.52 158.84 126.73 152.01 127.24 C 128.68 127.59 105.31 127.37 81.96 127.34 C 75.97 127.86 73.85 118.68 79.41 116.49 Z" />
</g>
</svg>
