<?xml version="1.0" encoding="UTF-8" ?>
<!DOCTYPE svg PUBLIC "-//W3C//DTD SVG 1.1//EN" "http://www.w3.org/Graphics/SVG/1.1/DTD/svg11.dtd">
<svg width="192pt" height="192pt" viewBox="0 0 192 192" version="1.1" xmlns="http://www.w3.org/2000/svg">
<g id="#ff633cff">
<path fill="#ff633c" opacity="1.00" d=" M 94.40 24.65 C 94.13 23.51 94.60 21.80 96.06 21.84 C 103.62 22.94 110.57 26.41 118.04 27.91 C 132.45 31.04 147.29 30.16 161.89 31.30 C 165.12 31.45 164.19 35.20 163.12 37.08 C 159.42 44.34 155.24 51.34 151.64 58.65 C 149.33 62.62 147.76 68.08 142.53 68.92 C 154.12 72.19 166.15 72.39 178.08 73.12 C 181.10 72.58 181.57 77.31 178.71 77.72 C 162.29 82.27 144.19 82.57 128.41 75.59 C 123.54 72.50 123.62 64.54 128.56 61.55 C 131.97 59.75 135.97 59.61 139.64 58.56 C 142.86 52.88 145.67 46.98 148.79 41.26 C 134.80 40.89 120.59 40.33 107.16 36.01 C 107.60 40.61 109.89 45.81 106.95 50.02 C 105.12 52.95 101.55 53.68 98.35 53.85 C 102.53 57.95 107.15 61.60 111.11 65.91 C 114.39 69.47 115.10 75.83 111.24 79.24 C 98.19 90.26 80.71 93.82 67.31 104.32 C 59.40 110.20 49.88 105.18 41.22 105.08 C 34.43 111.67 29.62 119.90 23.94 127.40 C 30.95 127.48 37.99 127.79 44.99 127.25 C 51.81 125.50 58.95 118.65 66.06 122.91 C 71.43 126.41 69.60 133.42 67.50 138.29 C 70.43 137.74 73.36 138.19 76.00 139.55 C 101.82 116.51 133.08 99.92 165.64 88.52 C 167.97 86.91 170.80 90.80 168.21 92.25 C 134.24 114.58 98.64 134.77 67.07 160.52 C 66.47 160.14 65.28 159.37 64.68 158.99 C 65.14 156.96 65.64 154.95 66.14 152.93 C 60.10 158.56 53.73 163.84 47.01 168.65 C 45.30 167.98 43.29 166.45 44.38 164.38 C 48.85 153.97 54.61 144.09 58.05 133.23 C 46.60 140.55 32.76 137.81 19.96 137.96 C 12.34 137.85 9.55 127.51 14.35 122.41 C 21.55 113.62 26.82 102.98 36.01 96.00 C 44.54 90.17 55.14 100.91 63.23 94.26 C 75.31 85.02 90.66 81.51 102.83 72.41 C 93.76 64.05 84.61 55.79 75.66 47.31 C 74.02 46.43 74.33 43.46 76.29 43.38 C 83.37 42.84 90.49 43.16 97.58 43.04 C 96.70 36.88 95.30 30.80 94.40 24.65 Z" />
<path fill="#ff633c" opacity="1.00" d=" M 100.56 147.59 C 115.55 136.31 130.21 123.73 147.71 116.54 C 133.50 128.63 118.68 140.49 107.82 155.84 C 102.77 160.67 95.13 151.96 100.56 147.59 Z" />
</g>
</svg>
