<?xml version="1.0" encoding="UTF-8" ?>
<!DOCTYPE svg PUBLIC "-//W3C//DTD SVG 1.1//EN" "http://www.w3.org/Graphics/SVG/1.1/DTD/svg11.dtd">
<svg width="192pt" height="192pt" viewBox="0 0 192 192" version="1.1" xmlns="http://www.w3.org/2000/svg">
<g id="#19b0ffff">
<path fill="#19b0ff" opacity="1.00" d=" M 85.36 14.46 C 116.82 9.87 149.80 25.74 166.10 52.96 C 178.31 72.62 181.38 97.55 174.62 119.65 C 165.96 149.12 139.39 172.35 108.97 176.78 C 78.23 182.03 45.43 167.77 28.24 141.78 C 9.54 115.00 9.47 76.89 28.04 50.03 C 40.93 30.73 62.29 17.31 85.36 14.46 M 87.40 25.53 C 67.29 27.93 48.55 39.52 37.34 56.38 C 25.51 73.77 22.18 96.55 28.49 116.61 C 37.11 145.89 66.41 167.40 96.99 166.47 C 127.77 166.61 156.68 144.09 164.34 114.34 C 170.62 92.03 164.89 66.86 149.56 49.48 C 134.50 31.80 110.44 22.56 87.40 25.53 Z" />
<path fill="#19b0ff" opacity="1.00" d=" M 89.30 53.37 C 106.83 50.29 125.52 59.57 133.83 75.26 C 142.01 89.79 140.40 108.99 130.06 122.03 C 120.15 135.16 102.31 141.48 86.33 137.57 C 67.84 133.51 53.43 115.98 53.22 97.02 C 52.12 76.12 68.61 56.29 89.30 53.37 M 91.37 64.46 C 75.87 66.48 63.49 81.36 64.47 96.98 C 64.70 113.73 80.23 128.32 96.98 127.38 C 114.60 127.40 129.72 110.41 127.63 92.89 C 126.52 75.32 108.72 61.36 91.37 64.46 Z" />
</g>
</svg>
