<?xml version="1.0" encoding="UTF-8" ?>
<!DOCTYPE svg PUBLIC "-//W3C//DTD SVG 1.1//EN" "http://www.w3.org/Graphics/SVG/1.1/DTD/svg11.dtd">
<svg width="192pt" height="192pt" viewBox="0 0 192 192" version="1.1" xmlns="http://www.w3.org/2000/svg">
<g id="#676fadff">
<path fill="#676fad" opacity="1.00" d=" M 91.37 11.53 C 93.44 10.41 95.76 11.28 97.65 12.32 C 122.31 25.02 147.01 37.65 171.68 50.34 C 173.87 51.29 175.34 53.55 175.16 55.96 C 175.20 79.99 175.18 104.02 175.17 128.05 C 175.42 130.49 173.86 132.69 171.71 133.71 C 146.73 147.11 121.74 160.50 96.76 173.89 C 94.77 175.09 92.23 174.97 90.27 173.77 C 65.53 160.50 40.78 147.22 16.04 133.93 C 13.76 132.88 11.83 130.75 12.15 128.08 C 12.15 104.02 12.15 79.97 12.18 55.92 C 12.05 53.90 12.96 51.77 14.81 50.83 C 40.23 37.53 65.81 24.54 91.37 11.53 M 91.66 23.65 C 83.06 27.97 74.55 32.45 65.96 36.81 C 86.48 47.92 107.63 57.88 128.39 68.56 C 130.64 70.25 132.98 67.97 135.07 67.11 C 142.38 63.04 150.21 59.84 157.22 55.29 C 136.89 44.84 116.57 34.37 96.24 23.92 C 94.84 23.09 93.12 22.78 91.66 23.65 M 52.03 43.94 C 44.64 47.71 37.31 51.57 29.88 55.27 C 50.82 66.90 72.44 77.48 93.81 88.35 C 101.83 83.95 110.22 80.21 118.10 75.55 C 97.02 65.07 76.04 54.42 55.00 43.85 C 54.07 43.15 52.96 43.37 52.03 43.94 M 23.17 64.56 C 23.22 84.85 22.92 105.16 23.32 125.45 C 44.94 136.89 66.43 148.59 88.05 160.04 C 88.14 140.34 88.07 120.65 88.12 100.96 C 87.99 99.64 88.43 97.73 86.75 97.23 C 65.55 86.36 44.39 75.40 23.17 64.56 M 136.72 78.73 C 135.51 90.60 137.04 102.95 135.98 114.92 C 134.78 120.08 126.54 119.74 125.55 114.63 C 125.03 104.67 125.60 94.65 125.26 84.67 C 116.47 88.93 107.80 93.44 99.18 98.01 C 99.17 118.67 99.21 139.32 99.16 159.98 C 120.89 148.47 142.58 136.84 164.18 125.09 C 164.13 105.00 164.30 84.90 164.11 64.80 C 154.83 69.12 145.78 73.97 136.72 78.73 Z" />
</g>
</svg>
