<?xml version="1.0" encoding="UTF-8" ?>
<!DOCTYPE svg PUBLIC "-//W3C//DTD SVG 1.1//EN" "http://www.w3.org/Graphics/SVG/1.1/DTD/svg11.dtd">
<svg width="192pt" height="192pt" viewBox="0 0 192 192" version="1.1" xmlns="http://www.w3.org/2000/svg">
<g id="#606f80ff">
<path fill="#606f80" opacity="1.00" d=" M 61.33 19.37 C 80.03 17.75 99.14 19.13 118.00 18.67 C 122.59 19.12 128.36 17.15 131.77 21.23 C 144.28 33.71 156.76 46.23 169.28 58.71 C 170.75 60.07 172.02 61.84 171.84 63.96 C 171.89 84.65 171.87 105.35 171.86 126.05 C 172.25 130.11 168.24 132.26 165.94 134.94 C 153.54 146.96 141.83 159.80 129.00 171.30 C 108.70 171.96 88.33 171.38 68.00 171.59 C 65.31 171.45 62.07 172.18 60.04 169.92 C 47.17 157.14 34.39 144.27 21.54 131.47 C 20.03 130.09 18.84 128.22 19.05 126.08 C 19.04 105.36 19.03 84.63 19.06 63.91 C 18.85 60.71 21.72 58.74 23.66 56.66 C 36.29 44.32 48.43 31.41 61.33 19.37 M 66.20 30.22 C 54.43 41.79 42.84 53.56 31.13 65.19 C 29.98 66.10 30.48 67.71 30.34 68.96 C 30.51 87.46 30.06 106.01 30.56 124.47 C 42.36 136.38 54.23 148.23 66.13 160.04 C 84.38 160.57 102.71 160.08 120.99 160.27 C 122.44 160.10 124.32 160.74 125.41 159.42 C 136.61 148.26 147.75 137.04 158.97 125.89 C 159.71 125.09 160.83 124.32 160.61 123.06 C 160.61 104.41 160.65 85.76 160.59 67.11 C 160.76 65.81 159.53 65.05 158.80 64.20 C 147.39 52.92 136.17 41.45 124.72 30.22 C 105.22 30.13 85.71 30.14 66.20 30.22 Z" />
<path fill="#606f80" opacity="1.00" d=" M 93.25 48.28 C 97.07 46.22 101.95 49.79 101.44 54.01 C 101.42 73.35 101.57 92.69 101.37 112.02 C 100.85 118.27 90.71 118.23 90.16 112.00 C 89.85 93.00 90.13 73.98 90.03 54.96 C 89.78 52.37 90.70 49.41 93.25 48.28 Z" />
<path fill="#606f80" opacity="1.00" d=" M 93.20 127.25 C 98.42 125.28 104.47 130.11 103.58 135.62 C 103.22 141.79 94.77 144.89 90.45 140.49 C 85.96 136.88 87.66 128.80 93.20 127.25 Z" />
</g>
</svg>
