<?xml version="1.0" encoding="UTF-8" ?>
<!DOCTYPE svg PUBLIC "-//W3C//DTD SVG 1.1//EN" "http://www.w3.org/Graphics/SVG/1.1/DTD/svg11.dtd">
<svg width="192pt" height="192pt" viewBox="0 0 192 192" version="1.1" xmlns="http://www.w3.org/2000/svg">
<g id="#42e273ff">
<path fill="#42e273" opacity="1.00" d=" M 40.29 21.36 C 70.77 19.91 101.44 21.14 132.00 20.73 C 139.86 21.16 148.10 19.54 155.66 22.32 C 164.80 25.73 171.20 35.21 170.84 44.98 C 170.84 78.67 170.90 112.37 170.83 146.06 C 171.05 158.33 160.26 169.36 148.01 169.51 C 126.32 169.63 104.63 169.52 82.94 169.56 C 79.59 169.74 76.31 168.44 74.02 165.97 C 58.53 150.47 43.05 134.94 27.52 119.48 C 24.91 116.91 21.55 114.17 22.05 110.06 C 22.06 88.02 21.99 65.98 22.09 43.94 C 22.09 33.42 30.04 23.63 40.29 21.36 M 41.34 33.42 C 36.73 35.23 33.67 40.05 33.85 44.98 C 33.82 64.99 33.84 85.01 33.85 105.02 C 33.74 107.48 34.52 109.92 36.38 111.59 C 50.55 125.77 64.75 139.93 78.91 154.13 C 81.20 156.65 84.55 157.93 87.95 157.73 C 107.66 157.69 127.37 157.79 147.08 157.68 C 153.74 157.86 159.52 151.66 159.02 145.03 C 159.01 111.68 159.04 78.31 159.01 44.96 C 159.42 38.39 153.56 32.36 146.99 32.56 C 113.66 32.52 80.33 32.59 47.00 32.52 C 45.09 32.56 43.12 32.66 41.34 33.42 Z" />
<path fill="#42e273" opacity="1.00" d=" M 54.39 51.47 C 73.11 50.26 92.15 51.35 110.99 50.92 C 113.69 50.90 118.14 50.44 118.51 54.14 C 118.50 57.74 120.29 64.38 115.07 65.00 C 96.05 65.32 76.99 65.05 57.95 65.13 C 50.80 66.02 51.07 54.96 54.39 51.47 Z" />
<path fill="#42e273" opacity="1.00" d=" M 55.19 74.27 C 68.77 73.71 82.42 74.23 96.03 74.01 C 104.84 71.94 104.86 90.32 96.00 88.24 C 83.32 88.18 70.65 88.22 57.97 88.22 C 50.72 89.36 50.59 76.76 55.19 74.27 Z" />
<path fill="#42e273" opacity="1.00" d=" M 54.39 97.47 C 61.63 96.62 69.38 96.61 76.62 97.47 C 79.99 100.97 80.26 112.11 73.04 111.15 C 68.01 111.15 62.98 111.16 57.95 111.14 C 50.79 112.04 51.07 100.95 54.39 97.47 Z" />
</g>
</svg>
