<?xml version="1.0" encoding="UTF-8" ?>
<!DOCTYPE svg PUBLIC "-//W3C//DTD SVG 1.1//EN" "http://www.w3.org/Graphics/SVG/1.1/DTD/svg11.dtd">
<svg width="192pt" height="192pt" viewBox="0 0 192 192" version="1.1" xmlns="http://www.w3.org/2000/svg">
<g id="#ff3661ff">
<path fill="#ff3661" opacity="1.00" d=" M 93.05 24.04 C 95.67 19.43 99.32 14.32 104.99 13.61 C 108.92 14.12 110.13 18.69 110.38 22.04 C 111.61 37.40 106.07 52.46 98.62 65.66 C 94.42 72.25 101.78 78.55 103.25 84.93 C 111.53 83.24 118.57 78.35 126.44 75.58 C 126.88 78.58 124.64 80.81 122.31 82.26 C 116.77 85.70 111.10 89.01 104.98 91.32 C 109.77 112.82 111.07 135.42 106.00 156.99 C 104.26 163.89 101.74 171.43 95.41 175.45 C 91.39 178.30 84.70 178.84 81.43 174.61 C 79.59 171.09 78.33 167.23 77.73 163.30 C 76.44 139.17 77.04 114.97 79.51 90.94 C 70.29 84.34 71.73 68.50 82.52 64.36 C 86.91 51.42 86.06 36.37 93.05 24.04 M 101.00 27.99 C 98.01 40.71 94.79 53.45 93.63 66.49 C 101.20 53.20 108.19 37.87 105.81 22.23 C 102.67 21.53 101.88 25.80 101.00 27.99 M 80.30 76.57 C 82.40 74.70 81.65 71.68 81.81 69.21 C 80.03 71.29 79.95 73.98 80.30 76.57 M 93.02 74.38 C 92.19 78.09 91.43 81.93 92.23 85.72 C 94.32 85.79 96.41 85.79 98.50 85.77 C 96.89 81.87 95.22 77.99 93.02 74.38 M 90.73 94.14 C 89.69 109.40 89.80 124.72 89.55 140.01 C 89.59 150.32 88.61 160.87 91.57 170.91 C 96.68 169.74 98.36 164.21 99.84 159.85 C 105.91 138.12 105.26 114.81 100.31 92.93 C 97.11 93.23 93.91 93.60 90.73 94.14 Z" />
<path fill="#ff3661" opacity="1.00" d=" M 75.32 16.31 C 81.81 12.04 89.01 22.12 82.01 25.99 C 64.53 30.09 48.37 40.15 38.08 55.03 C 24.60 73.85 21.57 99.46 30.00 120.99 C 36.51 138.29 50.23 152.47 66.96 160.18 C 72.75 162.61 69.46 172.22 63.38 170.59 C 30.40 157.28 9.59 120.16 14.73 85.03 C 18.49 52.58 43.68 24.22 75.32 16.31 Z" />
<path fill="#ff3661" opacity="1.00" d=" M 122.37 19.43 C 126.03 18.43 129.38 21.07 132.61 22.40 C 160.62 36.04 179.19 66.84 177.80 98.02 C 177.45 133.36 151.16 166.45 116.82 174.72 C 112.83 175.77 109.14 171.38 110.47 167.59 C 111.47 164.01 115.63 163.60 118.59 162.51 C 146.59 153.53 166.87 125.40 166.60 95.99 C 167.23 67.74 148.83 40.63 122.71 30.15 C 117.61 28.84 117.25 20.93 122.37 19.43 Z" />
</g>
</svg>
