<?xml version="1.0" encoding="UTF-8" ?>
<!DOCTYPE svg PUBLIC "-//W3C//DTD SVG 1.1//EN" "http://www.w3.org/Graphics/SVG/1.1/DTD/svg11.dtd">
<svg width="192pt" height="192pt" viewBox="0 0 192 192" version="1.1" xmlns="http://www.w3.org/2000/svg">
<g id="#ff762cff">
<path fill="#ff762c" opacity="1.00" d=" M 19.22 24.95 C 18.03 20.56 23.80 16.86 27.31 19.70 C 42.70 31.37 57.88 43.34 73.23 55.07 C 79.30 43.82 85.07 32.39 91.21 21.18 C 93.06 17.73 98.73 18.07 100.28 21.63 C 106.33 32.82 112.22 44.11 118.22 55.34 C 133.75 43.53 149.05 31.42 164.60 19.64 C 168.44 16.70 174.22 21.08 172.58 25.59 C 165.16 57.16 157.98 88.86 150.27 120.32 C 133.82 137.48 116.63 154.00 99.88 170.91 C 97.67 173.54 93.55 173.12 91.40 170.63 C 75.20 154.48 59.00 138.32 42.82 122.15 C 40.69 120.33 40.83 117.34 40.17 114.84 C 33.25 84.86 26.06 54.94 19.22 24.95 M 81.87 61.69 C 86.49 65.39 91.18 69.02 95.92 72.57 C 100.55 69.07 105.15 65.53 109.69 61.92 C 105.14 53.15 100.49 44.43 95.82 35.73 C 90.57 44.00 86.40 52.99 81.87 61.69 M 33.02 37.35 C 37.87 59.13 43.19 80.80 48.17 102.54 C 54.83 89.86 61.86 77.33 68.06 64.42 C 56.34 55.44 44.67 46.41 33.02 37.35 M 123.34 64.88 C 129.95 77.69 136.90 90.33 143.51 103.15 C 148.61 81.20 153.90 59.30 158.85 37.33 C 147.10 46.61 135.13 55.63 123.34 64.88 M 62.31 98.52 C 70.61 92.11 79.03 85.84 87.18 79.24 C 83.70 76.54 80.20 73.86 76.72 71.16 C 71.91 80.28 67.11 89.40 62.31 98.52 M 104.68 79.22 C 112.59 85.69 120.79 91.81 128.89 98.04 C 124.17 89.18 119.52 80.29 114.77 71.45 C 111.41 74.05 108.06 76.65 104.68 79.22 M 54.59 118.00 C 68.17 131.89 82.04 145.52 95.80 159.24 C 109.62 145.49 123.49 131.79 137.18 117.92 C 123.45 107.27 109.71 96.62 95.92 86.05 C 82.12 96.67 68.32 107.28 54.59 118.00 Z" />
</g>
</svg>
