<?xml version="1.0" encoding="UTF-8" ?>
<!DOCTYPE svg PUBLIC "-//W3C//DTD SVG 1.1//EN" "http://www.w3.org/Graphics/SVG/1.1/DTD/svg11.dtd">
<svg width="192pt" height="192pt" viewBox="0 0 192 192" version="1.1" xmlns="http://www.w3.org/2000/svg">
<g id="#617080ff">
<path fill="#617080" opacity="1.00" d=" M 90.38 17.44 C 105.93 15.10 122.62 22.75 130.54 36.43 C 138.08 49.09 137.43 65.93 129.15 78.08 C 125.98 82.01 126.50 88.30 130.87 91.13 C 135.12 95.47 141.53 93.83 146.86 95.31 C 162.78 98.68 175.53 112.87 177.30 129.04 C 179.89 148.04 166.35 167.39 147.87 172.03 C 131.15 176.76 112.21 168.13 104.02 153.00 C 102.16 149.72 100.63 145.71 96.95 144.08 C 92.40 145.60 90.73 150.64 88.35 154.34 C 78.80 170.41 57.05 177.61 39.82 170.26 C 26.04 164.81 16.39 150.75 15.44 136.07 C 14.02 115.39 31.33 95.44 52.15 94.47 C 56.06 93.94 61.13 95.53 63.94 91.94 C 67.15 87.73 66.48 81.60 63.49 77.45 C 54.91 64.83 55.19 47.25 63.48 34.56 C 69.43 25.34 79.52 18.96 90.38 17.44 M 92.43 28.60 C 73.51 30.25 61.84 53.95 72.15 69.91 C 79.49 79.36 79.41 94.87 69.35 102.37 C 62.90 107.59 54.19 104.31 46.89 106.86 C 34.23 110.54 25.31 123.92 26.85 137.01 C 28.31 147.90 36.34 158.06 47.18 160.79 C 59.54 164.28 73.87 158.21 79.67 146.68 C 82.98 140.27 88.23 133.52 95.96 132.83 C 104.03 132.31 109.91 139.32 113.08 145.95 C 118.54 157.51 132.51 164.53 144.98 161.06 C 159.15 157.44 169.22 141.73 165.49 127.36 C 162.88 115.23 151.45 105.99 139.09 105.68 C 127.13 105.89 114.96 95.46 115.74 83.01 C 115.70 78.35 118.13 74.26 120.50 70.43 C 125.83 61.80 125.86 50.17 120.43 41.58 C 114.68 32.28 103.19 27.22 92.43 28.60 Z" />
<path fill="#617080" opacity="1.00" d=" M 91.27 90.25 C 98.20 87.89 106.37 90.37 110.87 96.13 C 115.66 101.91 116.15 110.75 112.10 117.05 C 108.12 123.67 99.51 127.00 92.11 124.86 C 84.65 122.93 78.94 115.75 78.82 108.03 C 78.40 100.20 83.79 92.55 91.27 90.25 M 95.38 99.43 C 89.55 100.27 86.58 108.04 90.51 112.50 C 94.04 117.37 102.42 116.02 104.38 110.39 C 106.86 104.80 101.32 98.12 95.38 99.43 Z" />
</g>
</svg>
