<?xml version="1.0" encoding="UTF-8" ?>
<!DOCTYPE svg PUBLIC "-//W3C//DTD SVG 1.1//EN" "http://www.w3.org/Graphics/SVG/1.1/DTD/svg11.dtd">
<svg width="192pt" height="192pt" viewBox="0 0 192 192" version="1.1" xmlns="http://www.w3.org/2000/svg">
<g id="#19b0ffff">
<path fill="#19b0ff" opacity="1.00" d=" M 40.29 21.33 C 42.49 20.83 44.76 20.74 47.01 20.73 C 80.67 20.78 114.33 20.68 147.99 20.76 C 160.20 20.74 170.99 31.75 170.82 43.93 C 170.89 77.97 170.89 112.02 170.85 146.07 C 171.14 158.35 160.35 169.47 148.05 169.52 C 113.69 169.59 79.32 169.56 44.95 169.50 C 32.63 169.50 21.79 158.37 22.07 146.05 C 22.05 112.01 22.05 77.97 22.10 43.93 C 21.99 33.38 30.02 23.56 40.29 21.33 M 42.27 32.32 C 37.19 33.69 33.15 38.58 33.27 43.93 C 33.23 77.97 33.25 112.02 33.27 146.06 C 33.02 152.80 39.25 158.74 45.95 158.33 C 79.89 158.30 113.83 158.35 147.76 158.27 C 154.17 158.27 159.76 152.46 159.64 146.08 C 159.69 112.03 159.72 77.97 159.64 43.93 C 159.72 36.88 152.89 31.22 146.02 31.81 C 111.45 32.18 76.77 31.09 42.27 32.32 Z" />
<path fill="#19b0ff" opacity="1.00" d=" M 44.70 72.73 C 53.20 72.30 61.79 72.29 70.30 72.78 C 70.43 74.97 70.53 77.17 70.61 79.36 C 64.82 81.06 58.67 79.81 52.72 80.18 C 52.72 83.77 52.72 87.36 52.72 90.95 C 57.70 91.16 62.70 90.86 67.68 91.31 C 68.07 93.73 68.06 96.18 67.62 98.59 C 62.66 98.77 57.69 98.69 52.73 98.70 C 52.67 103.98 52.88 109.27 52.53 114.55 C 49.78 114.74 47.02 114.78 44.27 114.68 C 43.21 102.84 44.13 90.89 43.78 79.00 C 44.01 76.95 43.23 74.41 44.70 72.73 Z" />
<path fill="#19b0ff" opacity="1.00" d=" M 91.58 72.69 C 99.37 72.27 107.19 72.51 114.99 72.48 C 119.00 71.84 118.95 78.20 116.86 80.01 C 111.36 80.45 105.82 80.08 100.30 80.15 C 100.32 83.75 100.31 87.36 100.29 90.97 C 105.13 91.23 110.01 90.62 114.81 91.38 C 115.97 93.54 115.27 96.12 115.36 98.46 C 110.36 98.89 105.35 98.70 100.34 98.69 C 100.16 103.75 100.65 108.85 100.05 113.89 C 97.81 115.55 94.31 114.85 91.68 114.31 C 90.92 100.51 91.20 86.53 91.58 72.69 Z" />
<path fill="#19b0ff" opacity="1.00" d=" M 75.45 73.23 C 77.92 71.71 81.11 72.70 83.86 72.79 C 84.23 86.73 84.54 100.75 83.71 114.66 C 80.91 114.27 74.94 116.52 75.20 112.05 C 75.30 99.12 74.85 86.14 75.45 73.23 Z" />
<path fill="#19b0ff" opacity="1.00" d=" M 126.90 76.86 C 127.35 70.50 139.67 70.39 140.57 76.40 C 144.22 89.07 148.41 101.59 151.73 114.35 C 148.81 114.75 145.68 115.34 142.85 114.25 C 141.83 111.97 141.32 109.51 140.65 107.12 C 136.23 107.10 131.81 107.10 127.40 107.12 C 126.73 109.59 126.01 112.05 125.29 114.51 C 122.26 114.84 119.22 114.85 116.19 114.57 C 118.68 101.76 123.55 89.49 126.90 76.86 M 129.35 99.81 C 132.46 99.84 135.57 99.86 138.69 99.86 C 137.17 94.27 135.69 88.68 134.00 83.15 C 132.40 88.68 130.93 94.26 129.35 99.81 Z" />
</g>
</svg>
