<?xml version="1.0" encoding="UTF-8" ?>
<!DOCTYPE svg PUBLIC "-//W3C//DTD SVG 1.1//EN" "http://www.w3.org/Graphics/SVG/1.1/DTD/svg11.dtd">
<svg width="192pt" height="192pt" viewBox="0 0 192 192" version="1.1" xmlns="http://www.w3.org/2000/svg">
<g id="#d5486aff">
<path fill="#d5486a" opacity="1.00" d=" M 46.28 13.36 C 64.78 12.05 83.44 13.17 102.00 12.78 C 106.24 13.06 111.52 11.56 114.64 15.33 C 130.27 31.04 145.98 46.70 161.61 62.42 C 163.50 64.06 163.94 66.58 163.81 68.96 C 163.73 97.33 163.89 125.71 163.75 154.08 C 163.62 166.02 153.00 176.49 141.07 176.54 C 111.03 176.63 80.98 176.60 50.93 176.54 C 38.53 176.62 27.71 165.40 28.01 153.04 C 27.99 114.01 27.94 74.97 28.04 35.94 C 27.97 25.39 35.95 15.50 46.28 13.36 M 39.34 36.94 C 39.35 75.65 39.31 114.36 39.37 153.07 C 39.15 159.78 45.30 165.67 52.00 165.20 C 81.34 165.23 110.67 165.24 140.01 165.18 C 146.65 165.54 152.69 159.64 152.44 152.98 C 152.49 126.21 152.54 99.42 152.42 72.64 C 144.33 72.54 136.24 72.85 128.17 72.49 C 115.61 71.68 104.83 60.63 104.18 48.10 C 103.86 40.12 104.27 32.12 103.96 24.13 C 86.27 24.22 68.58 24.03 50.90 24.22 C 44.30 24.15 38.85 30.46 39.34 36.94 M 115.37 32.13 C 115.51 37.36 115.18 42.61 115.54 47.83 C 116.11 54.70 122.06 60.69 128.97 61.12 C 134.07 61.41 139.18 61.18 144.28 61.16 C 134.70 51.43 124.98 41.84 115.37 32.13 Z" />
<path fill="#d5486a" opacity="1.00" d=" M 53.44 107.10 C 60.35 106.50 67.68 105.66 74.42 107.60 C 81.87 111.87 78.77 122.00 79.19 129.03 C 78.81 137.17 69.50 138.37 63.13 137.50 C 62.86 141.62 62.86 145.75 62.78 149.88 C 59.65 150.12 56.52 150.06 53.41 149.79 C 53.32 135.56 53.26 121.32 53.44 107.10 M 63.01 116.32 C 62.85 120.12 62.85 123.94 62.86 127.75 C 65.08 127.75 67.31 127.76 69.54 127.74 C 69.55 123.94 69.53 120.14 69.52 116.35 C 67.35 116.34 65.18 116.33 63.01 116.32 Z" />
<path fill="#d5486a" opacity="1.00" d=" M 83.27 107.17 C 86.38 106.89 89.64 106.28 92.67 107.35 C 93.98 112.70 93.11 118.31 93.22 123.77 C 95.10 123.78 96.97 123.80 98.84 123.83 C 98.76 118.25 98.50 112.65 99.20 107.10 C 102.37 106.73 105.57 106.76 108.73 107.13 C 108.98 121.38 108.88 135.63 108.79 149.87 C 105.49 150.17 102.17 150.07 98.88 149.71 C 98.71 144.37 98.75 139.02 98.73 133.68 C 96.92 133.69 95.11 133.69 93.30 133.69 C 93.33 138.97 93.30 144.26 93.33 149.54 C 89.98 150.07 86.58 150.24 83.21 149.80 C 83.13 135.59 83.01 121.38 83.27 107.17 Z" />
<path fill="#d5486a" opacity="1.00" d=" M 113.42 107.20 C 121.08 106.85 131.57 103.94 137.39 110.44 C 138.40 117.78 137.82 125.48 137.69 132.94 C 135.01 138.52 127.76 137.51 122.65 137.52 C 122.70 141.63 122.71 145.74 122.61 149.85 C 119.48 150.09 116.34 150.08 113.21 149.83 C 113.24 135.62 112.78 121.38 113.42 107.20 M 122.69 116.29 C 122.69 120.12 122.70 123.95 122.67 127.77 C 124.87 127.76 127.07 127.75 129.27 127.73 C 129.36 123.95 129.35 120.16 129.27 116.37 C 127.07 116.35 124.88 116.33 122.69 116.29 Z" />
</g>
</svg>
