<?xml version="1.0" encoding="UTF-8" ?>
<!DOCTYPE svg PUBLIC "-//W3C//DTD SVG 1.1//EN" "http://www.w3.org/Graphics/SVG/1.1/DTD/svg11.dtd">
<svg width="192pt" height="192pt" viewBox="0 0 192 192" version="1.1" xmlns="http://www.w3.org/2000/svg">
<g id="#d29d6aff">
<path fill="#d29d6a" opacity="1.00" d=" M 46.28 13.36 C 65.11 12.05 84.11 13.17 103.01 12.78 C 106.71 13.06 111.27 11.72 114.10 14.84 C 129.80 30.50 145.42 46.23 161.12 61.89 C 162.84 63.44 164.03 65.56 163.79 67.95 C 163.76 96.65 163.87 125.37 163.75 154.07 C 163.60 166.01 152.99 176.48 141.07 176.54 C 111.02 176.63 80.98 176.59 50.93 176.53 C 38.54 176.61 27.72 165.39 28.01 153.04 C 27.98 114.01 28.00 74.97 28.06 35.94 C 27.97 25.39 35.97 15.51 46.28 13.36 M 39.32 36.94 C 39.33 75.65 39.30 114.36 39.35 153.07 C 39.13 159.78 45.31 165.68 52.01 165.21 C 81.34 165.22 110.68 165.23 140.01 165.17 C 146.61 165.55 152.64 159.68 152.44 153.07 C 152.48 126.26 152.53 99.44 152.42 72.63 C 144.30 72.53 136.17 72.85 128.05 72.46 C 115.55 71.61 104.84 60.58 104.18 48.10 C 103.92 40.11 104.19 32.12 104.07 24.13 C 86.35 24.17 68.63 24.04 50.91 24.19 C 44.31 24.12 38.81 30.45 39.32 36.94 M 115.36 32.10 C 115.50 37.34 115.18 42.59 115.52 47.83 C 116.10 54.70 122.06 60.70 128.98 61.13 C 134.07 61.39 139.17 61.18 144.27 61.16 C 134.70 51.40 124.96 41.82 115.36 32.10 Z" />
<path fill="#d29d6a" opacity="1.00" d=" M 83.84 103.93 C 83.86 98.66 90.37 100.85 93.71 101.07 C 93.92 114.40 93.80 127.74 93.79 141.07 C 94.20 145.42 90.80 150.41 86.06 149.82 C 81.59 149.68 77.00 150.30 72.60 149.37 C 66.85 146.12 68.27 138.78 68.27 133.28 C 71.39 132.70 74.57 132.68 77.69 133.27 C 77.79 135.70 77.86 138.13 77.96 140.56 C 79.89 140.57 81.83 140.59 83.78 140.61 C 83.84 128.38 83.67 116.15 83.84 103.93 Z" />
<path fill="#d29d6a" opacity="1.00" d=" M 98.39 108.13 C 98.65 103.32 103.58 100.46 108.01 100.59 C 113.05 100.48 119.90 99.83 122.68 105.08 C 123.05 109.51 122.72 113.98 122.82 118.43 C 120.12 118.47 117.42 118.48 114.72 118.48 C 113.93 115.88 113.63 113.17 113.63 110.45 C 111.85 110.46 110.07 110.46 108.29 110.46 C 108.30 113.52 108.29 116.59 108.28 119.66 C 113.13 121.18 117.96 122.80 122.76 124.47 C 122.84 131.00 122.84 137.54 122.82 144.08 C 123.11 147.14 120.01 149.90 117.04 149.78 C 112.24 149.71 107.32 150.30 102.60 149.37 C 96.81 146.07 98.26 138.66 98.29 133.11 C 101.28 132.49 104.34 132.53 107.38 132.66 C 108.14 135.24 108.39 137.91 108.36 140.59 C 110.17 140.58 111.97 140.59 113.78 140.60 C 113.77 137.69 113.76 134.77 113.76 131.86 C 108.78 129.91 103.37 128.95 98.67 126.34 C 97.70 120.36 98.18 114.17 98.39 108.13 Z" />
</g>
</svg>
