<?xml version="1.0" encoding="UTF-8" ?>
<!DOCTYPE svg PUBLIC "-//W3C//DTD SVG 1.1//EN" "http://www.w3.org/Graphics/SVG/1.1/DTD/svg11.dtd">
<svg width="192pt" height="192pt" viewBox="0 0 192 192" version="1.1" xmlns="http://www.w3.org/2000/svg">
<g id="#dc8535ff">
<path fill="#dc8535" opacity="1.00" d=" M 46.29 13.35 C 65.12 12.07 84.11 13.15 103.00 12.79 C 106.70 13.08 111.28 11.68 114.10 14.83 C 129.96 30.67 145.79 46.55 161.61 62.41 C 163.18 63.82 163.96 65.85 163.79 67.95 C 163.76 96.65 163.87 125.37 163.75 154.07 C 163.62 166.01 152.99 176.50 141.07 176.54 C 111.03 176.62 80.99 176.59 50.95 176.54 C 38.94 176.61 28.26 166.07 28.05 154.08 C 27.92 115.05 28.02 76.01 28.00 36.98 C 27.54 26.07 35.57 15.56 46.29 13.35 M 39.34 36.93 C 39.35 75.64 39.31 114.36 39.36 153.07 C 39.14 159.78 45.31 165.68 52.01 165.20 C 81.34 165.23 110.68 165.23 140.01 165.18 C 146.64 165.55 152.69 159.63 152.45 152.99 C 152.47 126.21 152.56 99.43 152.41 72.65 C 144.33 72.53 136.25 72.83 128.18 72.49 C 115.62 71.68 104.84 60.63 104.17 48.09 C 103.91 40.11 104.18 32.13 104.05 24.14 C 86.34 24.17 68.62 24.05 50.91 24.20 C 44.32 24.13 38.83 30.45 39.34 36.93 M 115.36 32.12 C 115.52 37.36 115.19 42.60 115.53 47.83 C 116.11 54.70 122.07 60.70 128.98 61.13 C 134.07 61.37 139.18 61.18 144.27 61.17 C 134.70 51.42 124.97 41.83 115.36 32.12 Z" />
<path fill="#dc8535" opacity="1.00" d=" M 70.42 107.23 C 74.35 107.18 81.71 104.56 82.62 110.17 C 85.72 123.39 89.57 136.47 92.09 149.82 C 89.07 149.83 86.05 149.83 83.03 149.82 C 82.35 147.33 81.68 144.84 81.06 142.33 C 77.73 142.31 74.41 142.32 71.08 142.33 C 70.56 144.77 70.00 147.20 69.48 149.64 C 66.35 149.92 63.20 149.88 60.07 149.64 C 63.18 135.43 66.98 121.37 70.42 107.23 M 73.41 133.43 C 75.21 133.39 77.00 133.37 78.80 133.35 C 77.98 130.02 77.21 126.67 76.17 123.40 C 74.89 126.64 74.27 130.07 73.41 133.43 Z" />
<path fill="#dc8535" opacity="1.00" d=" M 88.11 107.26 C 91.17 106.33 94.48 106.22 97.53 107.30 C 99.18 114.61 100.78 121.95 102.34 129.29 C 106.36 123.02 105.57 114.40 108.51 107.44 C 111.26 105.76 114.85 106.51 117.76 107.44 C 114.88 121.63 111.11 135.63 107.77 149.72 C 104.33 149.20 97.81 151.93 97.20 146.86 C 94.36 133.62 90.48 120.59 88.11 107.26 Z" />
<path fill="#dc8535" opacity="1.00" d=" M 120.77 120.00 C 121.07 115.54 119.87 110.79 121.86 106.60 C 124.51 106.58 127.16 106.59 129.81 106.67 C 129.87 121.07 129.75 135.48 129.88 149.88 C 126.98 149.84 124.08 149.82 121.19 149.75 C 120.25 139.88 121.02 129.91 120.77 120.00 Z" />
</g>
</svg>
