<?xml version="1.0" encoding="UTF-8" ?>
<!DOCTYPE svg PUBLIC "-//W3C//DTD SVG 1.1//EN" "http://www.w3.org/Graphics/SVG/1.1/DTD/svg11.dtd">
<svg width="192pt" height="192pt" viewBox="0 0 192 192" version="1.1" xmlns="http://www.w3.org/2000/svg">
<g id="#eea763ff">
<path fill="#eea763" opacity="1.00" d=" M 36.42 20.60 C 69.61 20.04 102.85 20.49 136.06 20.35 C 144.41 19.92 151.63 27.69 150.78 35.97 C 151.13 40.59 145.05 43.52 141.61 40.48 C 138.11 38.44 141.32 31.45 136.07 31.69 C 103.04 31.70 69.99 31.45 36.98 31.79 C 29.85 32.69 30.72 44.36 37.93 44.15 C 76.64 44.34 115.36 44.08 154.07 44.28 C 162.88 44.14 170.20 52.41 170.19 60.99 C 170.27 93.33 170.22 125.68 170.22 158.03 C 170.58 164.63 164.65 170.57 158.04 170.18 C 117.36 170.14 76.67 170.28 35.99 170.23 C 28.28 170.64 21.09 163.85 21.46 156.06 C 21.43 116.69 21.45 77.32 21.46 37.95 C 21.26 29.50 28.03 21.64 36.42 20.60 M 32.72 59.96 C 32.69 91.65 32.72 123.34 32.73 155.03 C 32.43 157.08 33.65 159.26 35.96 158.84 C 76.93 158.89 117.90 158.88 158.86 158.83 C 158.92 126.53 158.92 94.22 158.86 61.91 C 159.24 58.52 156.52 55.17 152.98 55.51 C 114.04 55.45 75.09 55.47 36.14 55.48 C 33.71 55.14 32.55 57.94 32.72 59.96 Z" />
<path fill="#eea763" opacity="1.00" d=" M 79.43 85.13 C 79.19 83.55 80.41 82.05 82.07 82.32 C 91.04 82.19 100.03 82.28 109.00 82.27 C 113.89 81.96 112.30 88.55 111.55 91.53 C 104.51 91.65 97.47 91.58 90.43 91.59 C 90.39 96.07 90.38 100.54 90.41 105.02 C 95.62 105.11 100.84 104.90 106.05 105.07 C 110.50 104.82 109.90 111.97 107.91 114.23 C 102.11 114.82 96.25 114.34 90.43 114.46 C 90.24 120.61 90.70 126.79 90.19 132.92 C 87.29 135.05 78.33 135.83 79.37 130.06 C 79.42 115.08 79.32 100.10 79.43 85.13 Z" />
</g>
</svg>
