<?xml version="1.0" encoding="UTF-8" ?>
<!DOCTYPE svg PUBLIC "-//W3C//DTD SVG 1.1//EN" "http://www.w3.org/Graphics/SVG/1.1/DTD/svg11.dtd">
<svg width="192pt" height="192pt" viewBox="0 0 192 192" version="1.1" xmlns="http://www.w3.org/2000/svg">
<g id="#4f5867ff">
<path fill="#4f5867" opacity="1.00" d=" M 46.30 13.39 C 65.13 12.04 84.12 13.19 103.01 12.79 C 106.70 13.05 111.25 11.75 114.08 14.87 C 129.93 30.70 145.76 46.58 161.59 62.44 C 163.18 63.82 163.91 65.85 163.75 67.95 C 163.73 96.65 163.81 125.36 163.72 154.06 C 163.68 166.02 152.96 176.52 141.05 176.56 C 111.02 176.62 80.98 176.60 50.95 176.56 C 38.97 176.62 28.24 166.08 28.12 154.09 C 28.01 114.71 28.08 75.32 28.10 35.94 C 27.97 25.40 36.01 15.53 46.30 13.39 M 39.36 36.94 C 39.37 75.65 39.35 114.36 39.38 153.07 C 39.08 159.81 45.30 165.69 51.99 165.26 C 81.33 165.29 110.67 165.30 140.00 165.24 C 146.66 165.58 152.74 159.67 152.48 152.99 C 152.49 126.20 152.58 99.41 152.44 72.63 C 144.30 72.55 136.15 72.82 128.02 72.49 C 115.54 71.60 104.82 60.57 104.23 48.08 C 103.94 40.12 104.37 32.15 104.00 24.20 C 86.31 24.25 68.61 24.13 50.92 24.26 C 44.35 24.11 38.83 30.50 39.36 36.94 M 115.38 32.15 C 115.53 37.37 115.22 42.61 115.53 47.83 C 116.07 54.72 122.06 60.69 128.96 61.18 C 134.08 61.46 139.22 61.23 144.35 61.22 C 134.74 51.49 125.01 41.86 115.38 32.15 Z" />
<path fill="#4f5867" opacity="1.00" d=" M 50.73 150.05 C 53.95 135.53 57.01 120.75 61.78 106.68 C 65.34 107.03 69.22 106.02 72.57 107.32 C 76.53 121.03 79.67 135.02 83.05 148.89 C 81.01 151.57 76.78 149.67 73.83 150.14 C 73.01 147.58 72.29 145.00 71.63 142.40 C 68.48 142.43 65.34 142.44 62.19 142.43 C 61.49 145.02 60.80 147.62 60.05 150.21 C 56.95 150.23 53.84 150.19 50.73 150.05 M 66.89 123.42 C 66.02 126.62 65.26 129.85 64.53 133.08 C 66.13 133.14 67.73 133.18 69.33 133.24 C 68.51 129.96 67.74 126.68 66.89 123.42 Z" />
<path fill="#4f5867" opacity="1.00" d=" M 84.18 116.92 C 83.77 112.13 86.86 106.91 92.03 106.65 C 97.28 106.48 103.58 105.32 107.89 109.11 C 111.08 112.95 110.58 118.34 110.25 122.99 C 108.72 125.77 104.91 124.53 102.34 124.55 C 99.71 122.77 100.93 119.10 100.54 116.42 C 98.44 116.45 96.35 116.46 94.25 116.47 C 94.08 124.59 94.07 132.72 94.24 140.84 C 96.35 140.90 98.47 140.94 100.59 140.96 C 100.98 138.21 99.75 134.69 102.12 132.63 C 105.12 132.32 110.74 131.33 110.39 135.97 C 111.04 141.41 110.12 149.85 103.09 150.17 C 96.81 149.86 86.91 152.57 84.69 144.37 C 83.54 135.30 84.47 126.06 84.18 116.92 Z" />
<path fill="#4f5867" opacity="1.00" d=" M 118.60 107.71 C 123.65 105.73 129.51 106.11 134.74 107.18 C 141.79 109.71 140.48 118.73 139.55 124.58 C 137.15 124.63 134.73 124.83 132.33 124.57 C 129.72 122.76 130.92 119.11 130.54 116.42 C 128.44 116.45 126.35 116.46 124.25 116.47 C 124.08 124.59 124.07 132.72 124.24 140.84 C 126.35 140.90 128.47 140.94 130.59 140.96 C 130.98 138.21 129.75 134.69 132.12 132.63 C 134.46 132.35 136.83 132.45 139.18 132.41 C 141.14 138.41 141.57 149.44 133.09 150.17 C 127.15 149.65 118.44 152.59 115.22 145.76 C 113.07 139.10 114.66 131.88 114.18 125.00 C 114.48 119.20 112.53 111.20 118.60 107.71 Z" />
</g>
</svg>
