<?xml version="1.0" encoding="UTF-8" ?>
<!DOCTYPE svg PUBLIC "-//W3C//DTD SVG 1.1//EN" "http://www.w3.org/Graphics/SVG/1.1/DTD/svg11.dtd">
<svg width="192pt" height="192pt" viewBox="0 0 192 192" version="1.1" xmlns="http://www.w3.org/2000/svg">
<g id="#c96753ff">
<path fill="#c96753" opacity="1.00" d=" M 46.28 13.35 C 65.12 12.05 84.11 13.17 103.01 12.77 C 106.71 13.04 111.27 11.73 114.10 14.83 C 129.97 30.66 145.80 46.54 161.62 62.41 C 163.52 64.05 163.96 66.58 163.83 68.97 C 163.74 97.34 163.90 125.71 163.76 154.07 C 163.64 166.02 153.01 176.51 141.07 176.55 C 111.03 176.64 80.98 176.62 50.94 176.56 C 38.53 176.63 27.70 165.40 28.00 153.03 C 27.99 114.00 27.95 74.97 28.02 35.95 C 27.97 25.39 35.94 15.50 46.28 13.35 M 39.35 36.94 C 39.36 75.65 39.32 114.36 39.38 153.07 C 39.15 159.78 45.32 165.67 52.01 165.19 C 81.34 165.22 110.67 165.22 139.99 165.17 C 146.64 165.55 152.68 159.63 152.43 152.98 C 152.47 126.21 152.54 99.43 152.40 72.66 C 144.32 72.55 136.24 72.86 128.17 72.50 C 115.61 71.69 104.83 60.64 104.17 48.10 C 103.85 40.11 104.27 32.11 103.91 24.11 C 86.24 24.25 68.57 24.02 50.91 24.22 C 44.31 24.15 38.86 30.46 39.35 36.94 M 115.37 32.15 C 115.52 37.38 115.19 42.61 115.55 47.83 C 116.12 54.69 122.07 60.69 128.97 61.11 C 134.05 61.39 139.15 61.17 144.24 61.15 C 134.68 51.41 124.97 41.84 115.37 32.15 Z" />
<path fill="#c96753" opacity="1.00" d=" M 48.28 101.08 C 52.02 100.94 57.14 99.06 59.99 102.04 C 62.83 110.01 63.25 118.70 66.30 126.63 C 68.88 118.35 69.73 109.61 72.50 101.41 C 76.21 100.15 85.01 98.61 84.31 104.97 C 84.21 119.62 84.55 134.29 84.14 148.93 C 81.62 151.22 77.53 149.81 74.39 149.72 C 74.17 143.62 74.68 137.48 73.97 131.40 C 72.00 137.43 71.09 143.72 69.58 149.86 C 67.42 150.02 65.23 150.29 63.09 149.90 C 60.77 143.68 60.16 136.98 58.42 130.59 C 57.73 136.98 57.91 143.41 57.79 149.82 C 54.61 150.18 51.40 150.15 48.23 149.77 C 48.11 133.54 48.00 117.30 48.28 101.08 Z" />
<path fill="#c96753" opacity="1.00" d=" M 88.39 101.21 C 95.07 100.25 102.11 99.99 108.73 101.37 C 114.55 103.69 114.58 110.72 114.34 116.00 C 114.01 121.02 115.43 126.84 112.14 131.14 C 108.89 135.31 103.10 134.54 98.43 134.45 C 98.55 139.67 98.61 144.90 98.30 150.12 C 94.99 150.21 91.67 150.10 88.38 149.73 C 88.32 133.55 88.30 117.38 88.39 101.21 M 98.45 110.42 C 98.54 115.15 98.54 119.88 98.43 124.62 C 100.34 124.57 102.24 124.53 104.15 124.50 C 104.13 119.86 104.13 115.23 104.16 110.59 C 102.25 110.54 100.35 110.48 98.45 110.42 Z" />
<path fill="#c96753" opacity="1.00" d=" M 120.43 103.42 C 123.81 99.62 129.45 100.64 133.99 100.57 C 138.14 100.42 143.75 103.02 142.89 107.97 C 142.68 120.02 142.80 132.04 142.87 144.08 C 143.12 148.64 137.82 150.60 134.01 150.18 C 129.52 149.81 123.78 151.49 120.41 147.64 C 117.71 144.91 118.18 140.81 118.27 137.32 C 121.35 137.14 124.44 137.12 127.54 137.19 C 127.86 138.34 128.18 139.48 128.51 140.63 C 130.39 140.58 132.26 140.55 134.14 140.51 C 134.13 137.19 134.13 133.87 134.15 130.55 C 131.01 130.48 127.82 130.78 124.71 130.26 C 122.71 127.93 123.20 123.92 124.22 121.22 C 127.27 119.87 130.88 120.80 134.14 120.51 C 134.13 117.19 134.13 113.88 134.16 110.57 C 132.30 110.52 130.45 110.48 128.60 110.43 C 128.28 111.57 127.95 112.71 127.62 113.85 C 124.50 114.19 121.36 114.08 118.25 113.66 C 118.18 110.18 117.56 106.03 120.43 103.42 Z" />
</g>
</svg>
