<?xml version="1.0" encoding="UTF-8" ?>
<!DOCTYPE svg PUBLIC "-//W3C//DTD SVG 1.1//EN" "http://www.w3.org/Graphics/SVG/1.1/DTD/svg11.dtd">
<svg width="192pt" height="192pt" viewBox="0 0 192 192" version="1.1" xmlns="http://www.w3.org/2000/svg">
<g id="#85675cff">
<path fill="#85675c" opacity="1.00" d=" M 46.31 13.39 C 65.13 12.05 84.11 13.19 103.00 12.79 C 106.70 13.05 111.26 11.74 114.09 14.86 C 129.94 30.70 145.77 46.56 161.60 62.42 C 163.18 63.82 163.94 65.85 163.78 67.95 C 163.76 96.65 163.85 125.36 163.75 154.06 C 163.67 166.02 152.99 176.53 141.06 176.56 C 111.03 176.64 80.99 176.60 50.95 176.56 C 38.56 176.64 27.69 165.40 28.06 153.04 C 28.04 114.01 28.05 74.97 28.10 35.94 C 27.97 25.40 36.01 15.53 46.31 13.39 M 39.35 36.94 C 39.36 75.65 39.33 114.36 39.37 153.06 C 39.10 159.80 45.31 165.68 52.01 165.24 C 81.34 165.25 110.68 165.26 140.01 165.20 C 146.65 165.55 152.71 159.64 152.45 152.98 C 152.47 126.20 152.57 99.42 152.41 72.64 C 144.33 72.56 136.25 72.82 128.17 72.51 C 115.62 71.69 104.83 60.63 104.21 48.09 C 103.95 40.12 104.25 32.15 104.08 24.19 C 86.36 24.21 68.64 24.11 50.92 24.23 C 44.33 24.09 38.81 30.48 39.35 36.94 M 115.36 32.14 C 115.53 37.37 115.21 42.61 115.53 47.84 C 116.08 54.73 122.08 60.69 128.99 61.16 C 134.08 61.43 139.18 61.21 144.28 61.19 C 134.71 51.43 124.98 41.84 115.36 32.14 Z" />
<path fill="#85675c" opacity="1.00" d=" M 53.11 114.95 C 53.18 110.29 57.41 106.45 62.02 106.56 C 67.26 106.50 74.10 105.37 77.48 110.45 C 79.83 114.66 79.47 119.94 78.43 124.50 C 75.62 124.43 72.53 125.22 69.92 123.88 C 69.21 121.48 69.49 118.94 69.40 116.47 C 67.29 116.42 65.18 116.39 63.06 116.35 C 62.51 124.49 62.82 132.66 62.88 140.82 C 65.04 140.91 67.21 140.99 69.38 141.06 C 69.61 138.40 68.94 135.49 70.21 133.05 C 72.83 132.17 76.08 132.02 78.59 133.25 C 79.62 138.67 80.12 146.32 74.47 149.42 C 70.16 150.90 65.43 149.99 60.94 150.16 C 56.19 150.39 52.81 145.50 53.03 141.08 C 52.99 132.37 52.87 123.65 53.11 114.95 Z" />
<path fill="#85675c" opacity="1.00" d=" M 83.07 108.95 C 82.88 105.73 86.95 106.66 89.00 106.47 C 94.30 106.86 100.11 105.43 104.99 108.07 C 109.14 110.48 109.16 115.79 109.15 120.00 C 108.98 127.35 109.38 134.71 108.94 142.05 C 108.91 146.21 105.43 150.44 101.06 150.18 C 95.09 150.15 89.11 150.40 83.17 149.88 C 82.81 136.25 82.96 122.59 83.07 108.95 M 93.38 116.55 C 93.35 124.54 93.39 132.52 93.34 140.51 C 95.20 140.50 97.06 140.50 98.93 140.49 C 99.04 132.53 99.09 124.56 98.81 116.60 C 97.00 116.58 95.19 116.57 93.38 116.55 Z" />
<path fill="#85675c" opacity="1.00" d=" M 113.07 108.95 C 113.06 105.38 117.72 106.79 120.00 106.47 C 126.01 106.86 134.24 104.72 137.87 111.06 C 137.71 119.66 139.77 128.94 136.25 137.06 C 136.90 141.43 138.40 145.69 138.23 150.18 C 135.26 150.23 132.29 150.18 129.33 149.91 C 128.36 146.02 127.35 142.14 126.42 138.25 C 125.20 138.22 123.99 138.19 122.77 138.15 C 122.77 142.19 123.04 146.26 122.37 150.26 C 119.30 150.23 116.23 150.15 113.17 149.89 C 112.79 136.25 112.95 122.59 113.07 108.95 M 122.92 116.37 C 122.74 120.33 122.73 124.30 122.80 128.26 C 124.92 128.24 127.05 128.23 129.17 128.20 C 129.31 124.27 129.32 120.33 129.05 116.40 C 127.01 116.38 124.97 116.37 122.92 116.37 Z" />
</g>
</svg>
