<?xml version="1.0" encoding="UTF-8" ?>
<!DOCTYPE svg PUBLIC "-//W3C//DTD SVG 1.1//EN" "http://www.w3.org/Graphics/SVG/1.1/DTD/svg11.dtd">
<svg width="192pt" height="192pt" viewBox="0 0 192 192" version="1.1" xmlns="http://www.w3.org/2000/svg">
<g id="#f89c30ff">
<path fill="#f89c30" opacity="1.00" d=" M 45.36 13.51 C 63.78 11.75 82.48 13.21 101.01 12.74 C 105.57 13.19 111.35 11.16 114.69 15.30 C 130.33 31.00 146.02 46.66 161.68 62.35 C 163.30 63.75 164.04 65.83 163.88 67.95 C 163.84 96.66 163.97 125.36 163.83 154.07 C 163.68 166.02 153.01 176.51 141.08 176.53 C 111.03 176.60 80.98 176.57 50.93 176.52 C 38.56 176.57 27.72 165.38 28.04 153.02 C 28.03 114.00 28.02 74.98 28.08 35.96 C 27.94 25.70 35.46 16.07 45.36 13.51 M 39.34 35.92 C 39.29 74.97 39.31 114.02 39.34 153.07 C 39.14 159.37 44.65 165.21 51.00 165.15 C 80.66 165.22 110.32 165.14 139.99 165.16 C 146.62 165.61 152.77 159.73 152.53 153.08 C 152.54 126.23 152.62 99.39 152.50 72.55 C 144.35 72.47 136.20 72.74 128.07 72.41 C 115.60 71.50 104.91 60.53 104.26 48.06 C 104.02 40.09 104.26 32.10 104.15 24.13 C 86.41 24.12 68.67 24.10 50.93 24.13 C 44.72 24.00 39.21 29.76 39.34 35.92 M 115.39 32.03 C 115.51 37.03 115.31 42.03 115.49 47.03 C 115.74 54.16 121.82 60.58 128.96 61.09 C 134.08 61.32 139.21 61.16 144.33 61.11 C 134.79 51.30 125.06 41.70 115.39 32.03 Z" />
<path fill="#f89c30" opacity="1.00" d=" M 53.30 95.35 C 76.06 94.00 99.14 95.06 122.02 94.79 C 128.83 94.20 129.79 105.38 123.00 105.93 C 100.66 106.30 78.27 106.13 55.92 106.02 C 50.10 106.49 47.92 97.56 53.30 95.35 Z" />
<path fill="#f89c30" opacity="1.00" d=" M 54.32 117.43 C 77.17 117.07 100.07 117.21 122.92 117.31 C 129.18 117.66 129.29 127.97 123.01 128.37 C 100.35 128.54 77.66 128.51 55.00 128.37 C 49.08 128.07 48.50 118.49 54.32 117.43 Z" />
<path fill="#f89c30" opacity="1.00" d=" M 53.24 140.23 C 65.67 138.88 78.45 139.90 91.01 139.69 C 97.36 139.55 98.25 149.94 91.92 150.71 C 79.64 151.00 67.33 150.87 55.05 150.75 C 49.66 150.60 48.34 142.25 53.24 140.23 Z" />
</g>
</svg>
