<?xml version="1.0" encoding="UTF-8" ?>
<!DOCTYPE svg PUBLIC "-//W3C//DTD SVG 1.1//EN" "http://www.w3.org/Graphics/SVG/1.1/DTD/svg11.dtd">
<svg width="192pt" height="192pt" viewBox="0 0 192 192" version="1.1" xmlns="http://www.w3.org/2000/svg">
<g id="#cf813bff">
<path fill="#cf813b" opacity="1.00" d=" M 46.29 13.34 C 65.13 12.07 84.11 13.15 103.00 12.78 C 106.71 13.06 111.28 11.70 114.11 14.83 C 129.81 30.48 145.44 46.23 161.14 61.89 C 162.86 63.44 164.05 65.56 163.81 67.94 C 163.78 96.65 163.89 125.36 163.77 154.07 C 163.63 166.02 153.00 176.52 141.05 176.56 C 111.02 176.64 80.98 176.61 50.95 176.56 C 38.55 176.64 27.70 165.42 28.00 153.06 C 28.00 114.02 27.95 74.97 28.02 35.93 C 27.97 25.37 35.96 15.49 46.29 13.34 M 39.34 36.92 C 39.36 75.63 39.32 114.35 39.37 153.07 C 39.15 159.76 45.30 165.66 51.98 165.19 C 81.33 165.21 110.68 165.22 140.02 165.16 C 146.64 165.53 152.68 159.63 152.43 153.00 C 152.46 126.22 152.54 99.44 152.40 72.66 C 144.33 72.55 136.26 72.85 128.20 72.51 C 115.62 71.70 104.83 60.64 104.16 48.09 C 103.85 40.10 104.26 32.09 103.90 24.10 C 86.24 24.24 68.57 24.02 50.91 24.21 C 44.33 24.15 38.87 30.45 39.34 36.92 M 115.37 32.15 C 115.52 37.37 115.19 42.60 115.54 47.81 C 116.11 54.68 122.05 60.69 128.97 61.11 C 134.06 61.38 139.16 61.16 144.26 61.15 C 134.68 51.43 124.98 41.84 115.37 32.15 Z" />
<path fill="#cf813b" opacity="1.00" d=" M 82.39 107.40 C 85.15 106.56 89.66 105.25 91.08 108.75 C 94.21 114.83 97.11 121.03 100.27 127.09 C 100.48 120.53 100.33 113.96 100.39 107.40 C 103.37 106.24 106.64 106.26 109.61 107.38 C 109.65 121.51 109.71 135.64 109.58 149.77 C 106.89 149.81 104.20 149.81 101.50 149.79 C 98.46 143.11 95.13 136.55 91.71 130.06 C 91.56 136.62 91.73 143.19 91.59 149.76 C 88.54 149.83 85.49 149.83 82.44 149.73 C 82.30 135.62 82.40 121.51 82.39 107.40 Z" />
<path fill="#cf813b" opacity="1.00" d=" M 52.38 107.38 C 58.97 106.06 66.09 106.14 72.69 107.33 C 80.98 111.05 77.77 121.88 78.18 129.04 C 77.69 137.27 68.26 138.34 61.82 137.49 C 61.84 141.58 61.81 145.68 61.77 149.77 C 58.66 149.83 55.55 149.83 52.44 149.73 C 52.29 135.61 52.42 121.50 52.38 107.38 M 61.80 116.33 C 61.82 120.13 61.82 123.93 61.80 127.73 C 64.04 127.75 66.27 127.78 68.51 127.81 C 68.59 123.98 68.58 120.15 68.53 116.32 C 66.29 116.33 64.04 116.33 61.80 116.33 Z" />
<path fill="#cf813b" opacity="1.00" d=" M 113.93 114.96 C 114.08 110.24 118.28 106.46 122.97 106.63 C 128.18 106.56 135.04 105.54 138.35 110.61 C 139.32 114.47 138.67 118.53 138.76 122.47 C 134.03 123.39 128.63 122.43 130.21 116.33 C 127.96 116.34 125.71 116.35 123.46 116.38 C 123.49 124.51 123.47 132.64 123.47 140.77 C 125.74 140.77 128.00 140.78 130.27 140.78 C 130.34 139.06 130.39 137.34 130.45 135.63 C 129.08 135.28 127.71 134.91 126.35 134.55 C 126.42 131.71 125.43 128.48 126.93 125.92 C 130.65 124.69 134.84 125.63 138.74 125.45 C 138.62 132.42 139.35 139.51 138.40 146.42 C 134.92 152.07 127.36 149.11 121.94 149.83 C 116.91 150.61 113.72 145.52 113.83 141.05 C 113.78 132.36 113.59 123.65 113.93 114.96 Z" />
</g>
</svg>
