<?xml version="1.0" encoding="UTF-8" ?>
<!DOCTYPE svg PUBLIC "-//W3C//DTD SVG 1.1//EN" "http://www.w3.org/Graphics/SVG/1.1/DTD/svg11.dtd">
<svg width="192pt" height="192pt" viewBox="0 0 192 192" version="1.1" xmlns="http://www.w3.org/2000/svg">
<g id="#5f6f81ff">
<path fill="#5f6f81" opacity="1.00" d=" M 45.36 13.52 C 64.12 11.75 83.14 13.22 102.00 12.73 C 106.03 13.14 111.07 11.39 114.16 14.80 C 130.01 30.64 145.83 46.50 161.67 62.35 C 163.30 63.75 164.04 65.83 163.87 67.96 C 163.83 96.66 163.94 125.36 163.82 154.06 C 163.76 166.06 152.95 176.61 140.98 176.56 C 110.99 176.61 81.01 176.60 51.02 176.56 C 39.00 176.64 28.25 166.08 28.09 154.06 C 27.98 114.70 28.06 75.33 28.07 35.96 C 27.95 25.71 35.46 16.07 45.36 13.52 M 39.38 35.93 C 39.32 74.97 39.35 114.02 39.37 153.07 C 39.14 159.37 44.65 165.21 51.00 165.16 C 80.66 165.24 110.32 165.15 139.98 165.18 C 146.61 165.61 152.80 159.74 152.54 153.06 C 152.49 126.24 152.71 99.41 152.43 72.59 C 144.30 72.47 136.17 72.77 128.05 72.45 C 115.58 71.53 104.90 60.53 104.26 48.06 C 103.99 40.10 104.34 32.14 104.09 24.18 C 86.37 24.18 68.65 24.16 50.94 24.19 C 44.76 24.03 39.24 29.80 39.38 35.93 M 115.40 32.11 C 115.56 37.08 115.34 42.06 115.51 47.03 C 115.75 54.16 121.83 60.61 128.98 61.09 C 134.05 61.33 139.14 61.22 144.22 61.07 C 134.75 51.28 125.05 41.72 115.40 32.11 Z" />
<path fill="#5f6f81" opacity="1.00" d=" M 53.27 95.32 C 76.05 94.00 99.12 95.04 122.01 94.78 C 128.89 94.17 129.86 105.42 123.02 106.05 C 100.67 106.32 78.29 106.16 55.93 106.13 C 50.08 106.54 47.85 97.59 53.27 95.32 Z" />
<path fill="#5f6f81" opacity="1.00" d=" M 54.29 117.40 C 77.15 117.01 100.07 117.18 122.94 117.29 C 129.23 117.66 129.32 128.04 123.00 128.44 C 100.35 128.59 77.68 128.58 55.02 128.43 C 49.07 128.12 48.43 118.53 54.29 117.40 Z" />
<path fill="#5f6f81" opacity="1.00" d=" M 53.21 140.21 C 65.66 138.87 78.44 139.86 91.00 139.68 C 97.42 139.59 98.29 149.86 91.95 150.85 C 79.99 151.51 67.93 151.13 55.95 151.05 C 50.11 151.37 47.84 142.59 53.21 140.21 Z" />
</g>
</svg>
