<?xml version="1.0" encoding="UTF-8" ?>
<!DOCTYPE svg PUBLIC "-//W3C//DTD SVG 1.1//EN" "http://www.w3.org/Graphics/SVG/1.1/DTD/svg11.dtd">
<svg width="192pt" height="192pt" viewBox="0 0 192 192" version="1.1" xmlns="http://www.w3.org/2000/svg">
<g id="#a419ffff">
<path fill="#a419ff" opacity="1.00" d=" M 18.10 41.93 C 18.04 31.31 27.43 21.86 38.03 21.75 C 50.35 21.55 62.68 21.76 75.00 21.64 C 77.74 21.68 81.19 21.37 82.89 24.02 C 87.08 29.99 91.01 36.15 95.10 42.19 C 110.36 42.33 125.64 41.98 140.88 42.34 C 146.75 43.00 146.91 52.52 141.01 53.30 C 126.02 53.75 111.00 53.31 96.00 53.50 C 93.18 53.42 89.58 53.95 87.73 51.27 C 83.66 45.63 80.05 39.66 76.06 33.96 C 75.23 32.62 73.35 33.06 72.04 32.86 C 61.01 32.93 49.98 32.75 38.95 32.94 C 33.63 32.77 28.90 37.58 29.33 42.93 C 29.37 78.90 29.15 114.89 29.44 150.86 C 30.17 158.76 39.38 158.84 45.38 158.24 C 45.46 134.16 45.31 110.07 45.47 85.99 C 45.60 76.94 53.93 69.20 62.94 69.50 C 93.64 69.45 124.35 69.46 155.06 69.48 C 164.11 69.10 172.66 76.78 172.79 85.92 C 172.93 107.30 172.87 128.69 172.84 150.07 C 173.03 160.22 164.13 169.36 154.00 169.51 C 115.32 169.61 76.63 169.52 37.95 169.53 C 27.44 169.91 17.89 160.59 18.07 150.07 C 18.04 114.02 18.02 77.97 18.10 41.93 M 56.71 86.97 C 56.65 110.73 56.68 134.49 56.71 158.25 C 88.81 158.25 120.92 158.29 153.02 158.21 C 157.51 158.42 161.61 154.50 161.51 150.00 C 161.60 129.00 161.58 108.00 161.53 87.00 C 161.74 83.50 158.49 80.48 155.03 80.75 C 124.34 80.71 93.65 80.68 62.97 80.74 C 59.56 80.56 56.51 83.54 56.71 86.97 Z" />
<path fill="#a419ff" opacity="1.00" d=" M 119.32 94.29 C 128.07 93.12 137.14 93.85 146.00 93.89 C 151.96 94.56 151.91 104.17 145.97 104.86 C 137.69 105.31 129.32 105.26 121.03 104.89 C 115.72 104.47 114.45 96.39 119.32 94.29 Z" />
</g>
</svg>
