<?xml version="1.0" encoding="UTF-8" ?>
<!DOCTYPE svg PUBLIC "-//W3C//DTD SVG 1.1//EN" "http://www.w3.org/Graphics/SVG/1.1/DTD/svg11.dtd">
<svg width="192pt" height="192pt" viewBox="0 0 192 192" version="1.1" xmlns="http://www.w3.org/2000/svg">
<g id="#a93bb9ff">
<path fill="#a93bb9" opacity="1.00" d=" M 46.30 13.35 C 64.80 12.06 83.45 13.16 102.00 12.78 C 106.24 13.06 111.50 11.55 114.62 15.31 C 130.27 31.04 145.99 46.70 161.63 62.43 C 163.50 64.07 163.93 66.58 163.82 68.95 C 163.73 97.32 163.88 125.69 163.75 154.06 C 163.62 166.02 152.99 176.49 141.06 176.54 C 111.02 176.63 80.98 176.60 50.95 176.55 C 38.55 176.63 27.72 165.43 28.01 153.06 C 27.99 114.02 27.96 74.96 28.02 35.91 C 27.99 25.37 35.96 15.48 46.30 13.35 M 39.34 36.92 C 39.35 75.64 39.31 114.36 39.37 153.08 C 39.15 159.77 45.28 165.65 51.97 165.19 C 81.32 165.23 110.68 165.24 140.03 165.18 C 146.64 165.54 152.63 159.68 152.44 153.07 C 152.49 126.26 152.53 99.45 152.42 72.63 C 144.35 72.55 136.26 72.85 128.20 72.49 C 115.62 71.70 104.82 60.63 104.17 48.08 C 103.86 40.10 104.26 32.10 103.93 24.12 C 86.25 24.23 68.58 24.02 50.91 24.21 C 44.32 24.16 38.87 30.44 39.34 36.92 M 115.38 32.13 C 115.51 37.35 115.18 42.59 115.54 47.81 C 116.10 54.69 122.05 60.68 128.96 61.12 C 134.07 61.40 139.19 61.17 144.31 61.17 C 134.70 51.46 124.98 41.85 115.38 32.13 Z" />
<path fill="#a93bb9" opacity="1.00" d=" M 47.38 102.40 C 50.94 102.32 54.79 101.40 58.17 102.82 C 61.03 111.16 62.24 120.01 64.22 128.60 C 66.42 119.87 67.94 110.99 70.37 102.32 C 73.98 102.24 77.77 101.56 81.25 102.79 C 82.17 118.41 81.59 134.18 81.53 149.85 C 78.45 149.94 75.37 149.93 72.30 149.83 C 72.03 143.38 72.30 136.90 71.55 130.47 C 70.41 136.99 69.14 143.50 67.39 149.89 C 65.30 149.86 63.22 149.82 61.14 149.73 C 59.27 142.53 57.61 135.25 56.55 127.88 C 56.40 135.12 56.59 142.36 56.45 149.60 C 53.39 149.89 50.31 149.95 47.24 149.84 C 47.15 134.03 46.88 118.20 47.38 102.40 Z" />
<path fill="#a93bb9" opacity="1.00" d=" M 86.02 102.48 C 91.88 102.38 97.78 102.05 103.62 102.59 C 108.51 103.24 111.00 108.47 110.52 112.99 C 110.14 118.78 111.52 124.91 109.36 130.43 C 106.65 135.61 100.18 134.73 95.31 134.68 C 95.32 139.66 95.32 144.65 95.28 149.63 C 92.07 150.00 88.82 150.00 85.62 149.57 C 85.76 133.88 84.98 118.13 86.02 102.48 M 95.30 111.70 C 95.33 116.26 95.31 120.83 95.31 125.39 C 97.11 125.36 98.92 125.34 100.73 125.31 C 100.78 120.76 100.79 116.21 100.62 111.66 C 98.84 111.67 97.07 111.69 95.30 111.70 Z" />
<path fill="#a93bb9" opacity="1.00" d=" M 130.77 102.32 C 133.96 102.09 137.17 102.14 140.36 102.50 C 136.71 111.41 130.97 119.31 126.05 127.55 C 128.15 127.54 130.26 127.55 132.36 127.57 C 132.34 125.00 132.36 122.43 132.44 119.87 C 135.30 119.93 138.91 118.47 141.19 120.71 C 141.59 122.73 141.52 124.81 141.66 126.86 C 145.47 128.47 143.35 133.27 143.89 136.42 C 143.28 136.42 142.04 136.43 141.43 136.44 C 141.54 140.83 141.53 145.23 141.41 149.63 C 138.43 149.89 135.43 149.92 132.44 149.63 C 132.30 145.25 132.32 140.86 132.36 136.48 C 126.81 136.37 121.22 136.91 115.71 136.23 C 113.50 133.43 114.27 128.97 116.04 126.06 C 120.93 118.14 125.88 110.25 130.77 102.32 Z" />
</g>
</svg>
