<?xml version="1.0" encoding="UTF-8" ?>
<!DOCTYPE svg PUBLIC "-//W3C//DTD SVG 1.1//EN" "http://www.w3.org/Graphics/SVG/1.1/DTD/svg11.dtd">
<svg width="192pt" height="192pt" viewBox="0 0 192 192" version="1.1" xmlns="http://www.w3.org/2000/svg">
<g id="#f6af2aff">
<path fill="#f6af2a" opacity="1.00" d=" M 26.08 40.94 C 25.66 31.79 33.82 23.42 43.00 23.74 C 74.33 23.86 105.68 23.48 137.00 23.92 C 147.62 25.26 149.87 37.39 148.59 46.19 C 158.13 45.12 167.16 53.32 166.84 62.93 C 166.87 93.64 166.91 124.36 166.84 155.07 C 167.08 161.38 161.28 166.81 155.05 166.54 C 116.68 166.57 78.32 166.55 39.95 166.53 C 32.61 166.92 25.88 160.44 26.08 153.08 C 26.01 115.70 26.07 78.32 26.08 40.94 M 41.45 46.22 C 73.38 46.51 105.34 46.30 137.28 46.29 C 136.58 42.78 139.46 35.27 134.04 35.15 C 103.35 35.12 72.65 35.05 41.97 35.18 C 35.28 34.81 34.83 45.86 41.45 46.22 M 37.36 61.93 C 37.41 92.80 37.26 123.68 37.45 154.55 C 38.94 154.83 40.44 155.12 41.97 155.16 C 79.82 155.04 117.67 155.21 155.51 155.03 C 155.45 124.36 155.57 93.69 155.47 63.02 C 155.63 60.06 153.09 57.25 150.03 57.67 C 113.67 57.65 77.31 57.65 40.95 57.63 C 38.38 57.05 37.03 59.75 37.36 61.93 Z" />
</g>
</svg>
