<?xml version="1.0" encoding="UTF-8" ?>
<!DOCTYPE svg PUBLIC "-//W3C//DTD SVG 1.1//EN" "http://www.w3.org/Graphics/SVG/1.1/DTD/svg11.dtd">
<svg width="192pt" height="192pt" viewBox="0 0 192 192" version="1.1" xmlns="http://www.w3.org/2000/svg">
<g id="#c220d4ff">
<path fill="#c220d4" opacity="1.00" d=" M 26.06 40.94 C 25.66 31.80 33.81 23.40 42.99 23.74 C 74.32 23.85 105.67 23.48 136.99 23.92 C 147.62 25.25 149.87 37.39 148.59 46.19 C 158.12 45.12 167.18 53.32 166.83 62.93 C 166.86 93.64 166.88 124.36 166.83 155.07 C 167.08 161.37 161.27 166.81 155.06 166.54 C 116.69 166.56 78.32 166.55 39.95 166.54 C 32.61 166.93 25.88 160.44 26.06 153.08 C 26.01 115.70 26.04 78.32 26.06 40.94 M 41.46 46.21 C 73.39 46.49 105.35 46.30 137.28 46.29 C 136.58 42.78 139.45 35.28 134.04 35.15 C 103.35 35.13 72.65 35.06 41.96 35.19 C 35.29 34.84 34.87 45.84 41.46 46.21 M 37.35 62.94 C 37.46 93.47 37.23 124.01 37.47 154.54 C 38.95 154.83 40.44 155.12 41.96 155.15 C 79.83 155.06 117.70 155.21 155.57 155.06 C 155.55 124.69 155.58 94.31 155.56 63.94 C 155.92 60.73 153.55 57.20 150.03 57.67 C 112.96 57.60 75.88 57.74 38.81 57.59 C 37.67 59.15 37.18 61.01 37.35 62.94 Z" />
</g>
</svg>
