<?xml version="1.0" encoding="UTF-8" ?>
<!DOCTYPE svg PUBLIC "-//W3C//DTD SVG 1.1//EN" "http://www.w3.org/Graphics/SVG/1.1/DTD/svg11.dtd">
<svg width="192pt" height="192pt" viewBox="0 0 192 192" version="1.1" xmlns="http://www.w3.org/2000/svg">
<g id="#ca9d44ff">
<path fill="#ca9d44" opacity="1.00" d=" M 46.27 13.35 C 65.11 12.07 84.10 13.15 103.00 12.78 C 106.71 13.08 111.30 11.66 114.11 14.83 C 129.97 30.67 145.80 46.54 161.63 62.41 C 163.20 63.82 163.98 65.85 163.82 67.96 C 163.78 96.66 163.90 125.37 163.78 154.07 C 163.62 166.02 153.02 176.51 141.08 176.56 C 111.03 176.65 80.98 176.61 50.93 176.55 C 38.52 176.62 27.69 165.38 28.00 153.02 C 28.01 114.00 27.94 74.97 28.03 35.95 C 27.97 25.40 35.95 15.52 46.27 13.35 M 39.33 36.95 C 39.35 75.66 39.31 114.37 39.36 153.07 C 39.14 159.77 45.33 165.68 52.02 165.19 C 81.34 165.20 110.67 165.20 139.99 165.15 C 146.59 165.56 152.63 159.67 152.42 153.08 C 152.46 126.27 152.54 99.46 152.39 72.65 C 144.28 72.55 136.16 72.86 128.06 72.49 C 115.54 71.63 104.83 60.59 104.16 48.09 C 103.85 40.10 104.28 32.10 103.93 24.11 C 86.26 24.22 68.58 24.03 50.91 24.20 C 44.32 24.14 38.82 30.47 39.33 36.95 M 115.35 32.13 C 115.53 37.37 115.20 42.62 115.53 47.85 C 116.13 54.70 122.08 60.69 128.98 61.12 C 134.04 61.34 139.12 61.20 144.18 61.11 C 134.66 51.36 124.95 41.81 115.35 32.13 Z" />
<path fill="#ca9d44" opacity="1.00" d=" M 53.76 109.00 C 53.98 106.33 53.06 102.99 55.09 100.87 C 57.89 100.32 60.95 100.21 63.60 101.45 C 63.67 114.49 63.67 127.53 63.59 140.57 C 68.62 140.87 73.77 139.95 78.71 141.18 C 78.82 144.04 78.85 146.90 78.75 149.76 C 70.59 149.84 62.43 149.85 54.27 149.76 C 53.13 136.23 54.12 122.58 53.76 109.00 Z" />
<path fill="#ca9d44" opacity="1.00" d=" M 86.36 101.54 C 93.26 99.80 105.25 98.68 107.01 108.00 C 107.69 118.30 107.07 128.67 107.32 139.00 C 107.52 143.06 106.25 148.22 101.91 149.63 C 97.28 150.02 92.61 149.81 87.97 149.77 C 83.65 149.73 81.26 144.91 81.40 141.08 C 81.37 130.70 81.36 120.31 81.40 109.93 C 81.37 106.54 82.99 102.78 86.36 101.54 M 91.31 110.30 C 91.28 120.45 91.29 130.60 91.30 140.75 C 93.39 140.75 95.48 140.76 97.58 140.77 C 97.55 130.63 97.62 120.48 97.53 110.34 C 95.46 110.34 93.39 110.32 91.31 110.30 Z" />
<path fill="#ca9d44" opacity="1.00" d=" M 111.42 109.92 C 111.23 105.49 114.35 101.08 119.00 100.82 C 124.58 100.62 131.14 99.41 135.86 103.15 C 139.45 107.25 137.15 113.20 137.87 118.12 C 135.21 118.54 132.44 118.83 129.79 118.20 C 127.56 116.38 128.91 112.97 128.53 110.49 C 126.20 110.48 123.87 110.47 121.55 110.43 C 121.41 120.49 121.44 130.55 121.53 140.61 C 123.87 140.58 126.22 140.58 128.57 140.58 C 128.57 137.94 128.57 135.30 128.57 132.66 C 123.11 132.45 124.02 126.00 125.43 122.42 C 129.48 122.36 133.53 122.40 137.58 122.38 C 137.88 130.10 138.13 137.94 137.48 145.63 C 134.51 152.48 125.72 148.96 119.98 149.84 C 115.29 150.77 111.46 146.48 111.47 142.03 C 111.28 131.33 111.38 120.62 111.42 109.92 Z" />
</g>
</svg>
