<?xml version="1.0" encoding="UTF-8" ?>
<!DOCTYPE svg PUBLIC "-//W3C//DTD SVG 1.1//EN" "http://www.w3.org/Graphics/SVG/1.1/DTD/svg11.dtd">
<svg width="192pt" height="192pt" viewBox="0 0 192 192" version="1.1" xmlns="http://www.w3.org/2000/svg">
<g id="#4cc276ff">
<path fill="#4cc276" opacity="1.00" d=" M 46.29 13.35 C 65.12 12.06 84.10 13.16 103.00 12.78 C 106.70 13.06 111.28 11.71 114.11 14.84 C 129.96 30.68 145.78 46.55 161.60 62.41 C 163.18 63.83 163.94 65.86 163.79 67.96 C 163.76 96.66 163.85 125.37 163.74 154.07 C 163.63 166.01 152.99 176.50 141.06 176.55 C 111.02 176.62 80.97 176.60 50.93 176.55 C 38.54 176.62 27.71 165.40 28.01 153.04 C 27.99 114.01 27.94 74.97 28.04 35.93 C 27.98 25.38 35.96 15.50 46.29 13.35 M 39.34 36.94 C 39.35 75.65 39.32 114.36 39.37 153.07 C 39.14 159.78 45.31 165.68 52.01 165.21 C 81.34 165.24 110.67 165.25 140.00 165.19 C 146.61 165.56 152.65 159.69 152.45 153.07 C 152.40 126.25 152.71 99.41 152.30 72.59 C 144.26 72.61 136.21 72.80 128.18 72.50 C 115.62 71.68 104.83 60.63 104.18 48.09 C 103.87 40.11 104.30 32.11 103.94 24.13 C 86.26 24.23 68.58 24.04 50.91 24.21 C 44.33 24.15 38.85 30.47 39.34 36.94 M 115.37 32.13 C 115.52 37.36 115.19 42.60 115.53 47.82 C 116.10 54.70 122.06 60.69 128.98 61.13 C 134.07 61.40 139.17 61.19 144.27 61.17 C 134.71 51.42 124.97 41.84 115.37 32.13 Z" />
<path fill="#4cc276" opacity="1.00" d=" M 58.38 110.15 C 59.25 104.48 66.65 107.26 70.61 107.13 C 74.13 121.31 77.95 135.43 80.99 149.72 C 78.08 150.06 75.09 150.52 72.18 149.87 C 70.62 147.72 70.56 144.82 69.80 142.32 C 66.55 142.35 63.30 142.35 60.05 142.34 C 59.39 144.92 58.69 147.49 58.03 150.07 C 54.98 150.17 51.93 150.16 48.88 149.99 C 51.37 136.57 55.29 123.45 58.38 110.15 M 64.78 123.55 C 63.80 126.77 63.06 130.06 62.30 133.34 C 64.04 133.34 65.78 133.35 67.52 133.36 C 66.72 130.06 65.95 126.74 64.78 123.55 Z" />
<path fill="#4cc276" opacity="1.00" d=" M 84.42 107.27 C 89.36 105.70 94.84 106.88 99.99 106.56 C 104.82 106.14 109.87 109.83 109.81 114.91 C 109.77 120.65 110.49 126.55 109.26 132.19 C 106.65 138.32 99.15 137.73 93.66 137.51 C 93.73 141.60 93.73 145.70 93.64 149.79 C 90.51 150.26 87.33 150.22 84.20 149.79 C 84.22 135.63 83.73 121.40 84.42 107.27 M 93.80 116.29 C 93.66 120.11 93.66 123.94 93.76 127.77 C 95.89 127.76 98.02 127.76 100.15 127.75 C 100.41 123.96 100.40 120.15 100.14 116.36 C 98.03 116.34 95.91 116.32 93.80 116.29 Z" />
<path fill="#4cc276" opacity="1.00" d=" M 114.26 107.13 C 117.37 106.80 121.82 105.18 124.02 108.10 C 124.69 112.41 124.24 116.81 124.19 121.15 C 127.08 116.37 129.19 110.94 133.09 106.90 C 135.73 106.63 141.52 105.08 141.85 108.90 C 139.17 115.20 134.82 120.69 132.15 126.99 C 134.69 135.02 141.22 141.59 142.11 150.12 C 138.92 150.01 135.55 150.67 132.50 149.54 C 129.79 145.05 128.07 140.01 124.98 135.74 C 123.94 140.18 124.34 144.78 124.40 149.30 C 121.13 150.57 117.61 150.20 114.22 149.76 C 114.06 135.56 113.98 121.34 114.26 107.13 Z" />
</g>
</svg>
