<?xml version="1.0" encoding="UTF-8" ?>
<!DOCTYPE svg PUBLIC "-//W3C//DTD SVG 1.1//EN" "http://www.w3.org/Graphics/SVG/1.1/DTD/svg11.dtd">
<svg width="192pt" height="192pt" viewBox="0 0 192 192" version="1.1" xmlns="http://www.w3.org/2000/svg">
<g id="#babec3ff">
<path fill="#babec3" opacity="1.00" d=" M 46.28 13.35 C 65.11 12.07 84.10 13.15 103.00 12.78 C 106.70 13.08 111.28 11.68 114.10 14.83 C 129.96 30.67 145.79 46.53 161.62 62.40 C 163.18 63.81 163.98 65.84 163.81 67.95 C 163.78 96.66 163.90 125.37 163.77 154.08 C 163.59 166.01 153.01 176.48 141.08 176.54 C 111.03 176.64 80.98 176.60 50.93 176.53 C 38.93 176.58 28.26 166.06 28.05 154.07 C 27.93 114.70 27.99 75.32 28.04 35.94 C 27.98 25.39 35.95 15.51 46.28 13.35 M 39.31 36.94 C 39.33 75.65 39.29 114.36 39.34 153.07 C 39.15 159.77 45.32 165.68 52.02 165.19 C 81.35 165.19 110.68 165.20 140.00 165.15 C 146.58 165.54 152.62 159.66 152.42 153.08 C 152.46 126.27 152.52 99.46 152.40 72.65 C 144.29 72.54 136.17 72.86 128.07 72.47 C 115.55 71.61 104.85 60.59 104.16 48.10 C 103.90 40.11 104.16 32.11 104.05 24.11 C 86.34 24.14 68.62 24.02 50.91 24.17 C 44.32 24.14 38.80 30.44 39.31 36.94 M 115.35 32.09 C 115.50 37.34 115.17 42.60 115.52 47.85 C 116.12 54.71 122.07 60.69 128.98 61.12 C 134.07 61.35 139.16 61.17 144.25 61.14 C 134.68 51.39 124.95 41.80 115.35 32.09 Z" />
<path fill="#babec3" opacity="1.00" d=" M 52.44 107.48 C 60.64 105.95 69.41 106.36 77.69 107.24 C 77.81 110.32 77.83 113.41 77.34 116.45 C 74.90 116.42 72.47 116.41 70.03 116.36 C 69.39 127.48 69.82 138.66 69.81 149.81 C 66.70 149.73 63.60 149.74 60.49 149.67 C 60.41 138.58 60.42 127.49 60.48 116.40 C 57.78 116.43 54.95 116.78 52.44 115.56 C 52.46 112.87 52.45 110.17 52.44 107.48 Z" />
<path fill="#babec3" opacity="1.00" d=" M 80.45 108.30 C 80.84 107.89 81.62 107.08 82.01 106.68 C 84.72 106.91 88.00 105.78 90.29 107.64 C 92.38 110.96 93.74 114.67 95.44 118.19 C 98.58 114.72 98.97 109.49 102.72 106.50 C 105.49 106.55 108.30 106.55 110.97 107.42 C 108.92 114.73 104.49 121.13 101.34 128.01 C 104.81 135.21 108.80 142.17 111.85 149.56 C 108.45 149.80 105.03 149.77 101.62 149.69 C 99.48 146.03 98.81 141.08 95.12 138.62 C 93.26 142.23 91.95 146.16 89.64 149.51 C 86.45 149.99 83.20 149.71 80.00 149.60 C 82.03 141.90 87.59 135.60 89.84 128.03 C 87.31 121.21 83.24 115.03 80.45 108.30 Z" />
<path fill="#babec3" opacity="1.00" d=" M 114.30 107.25 C 122.34 105.97 130.62 106.77 138.75 106.80 C 138.77 110.02 138.75 113.24 138.60 116.46 C 136.24 116.43 133.88 116.42 131.52 116.39 C 131.62 127.48 131.59 138.58 131.54 149.68 C 128.34 149.74 125.14 149.74 121.94 149.75 C 121.62 138.63 121.91 127.51 121.78 116.39 C 119.38 116.44 116.99 116.38 114.60 116.38 C 114.21 113.35 114.20 110.29 114.30 107.25 Z" />
</g>
</svg>
