<?xml version="1.0" encoding="UTF-8" ?>
<!DOCTYPE svg PUBLIC "-//W3C//DTD SVG 1.1//EN" "http://www.w3.org/Graphics/SVG/1.1/DTD/svg11.dtd">
<svg width="192pt" height="192pt" viewBox="0 0 192 192" version="1.1" xmlns="http://www.w3.org/2000/svg">
<g id="#f47293ff">
<path fill="#f47293" opacity="1.00" d=" M 45.36 13.54 C 63.78 11.75 82.48 13.23 101.00 12.75 C 105.34 13.23 110.75 11.26 114.15 14.81 C 129.98 30.66 145.81 46.52 161.65 62.36 C 163.28 63.76 164.00 65.84 163.84 67.96 C 163.80 96.66 163.93 125.37 163.79 154.07 C 163.67 166.01 152.98 176.48 141.07 176.50 C 111.02 176.57 80.98 176.55 50.93 176.50 C 38.98 176.52 28.29 166.04 28.13 154.08 C 28.01 114.70 28.10 75.33 28.11 35.95 C 27.96 25.71 35.49 16.09 45.36 13.54 M 39.33 35.94 C 39.27 74.98 39.29 114.02 39.32 153.07 C 39.10 159.39 44.63 165.22 50.99 165.18 C 80.65 165.26 110.33 165.17 139.99 165.19 C 146.63 165.61 152.81 159.75 152.55 153.07 C 152.56 126.22 152.63 99.36 152.53 72.51 C 144.70 72.49 136.87 72.63 129.05 72.46 C 116.21 72.02 104.91 60.86 104.29 48.04 C 104.07 40.07 104.29 32.09 104.19 24.11 C 86.44 24.12 68.69 24.09 50.94 24.13 C 44.69 23.95 39.17 29.75 39.33 35.94 M 115.38 32.00 C 115.49 37.00 115.29 42.01 115.47 47.01 C 115.70 54.17 121.80 60.60 128.96 61.11 C 134.09 61.38 139.22 61.19 144.35 61.13 C 134.84 51.28 125.08 41.67 115.38 32.00 Z" />
<path fill="#f47293" opacity="1.00" d=" M 53.28 95.28 C 76.06 94.02 99.13 95.01 122.01 94.76 C 128.93 94.08 129.90 105.47 123.01 105.99 C 100.67 106.25 78.29 106.10 55.94 106.07 C 50.02 106.58 47.81 97.53 53.28 95.28 Z" />
<path fill="#f47293" opacity="1.00" d=" M 54.28 117.38 C 77.15 116.94 100.08 117.09 122.95 117.23 C 129.37 117.67 129.29 128.18 122.85 128.44 C 100.29 128.60 77.72 128.56 55.16 128.42 C 49.09 128.28 48.29 118.49 54.28 117.38 Z" />
<path fill="#f47293" opacity="1.00" d=" M 53.21 140.15 C 65.68 138.88 78.43 139.80 91.00 139.65 C 97.46 139.48 98.28 149.88 91.94 150.83 C 79.98 151.41 67.93 151.07 55.94 151.01 C 50.03 151.41 47.81 142.55 53.21 140.15 Z" />
</g>
</svg>
