<?xml version="1.0" encoding="UTF-8" ?>
<!DOCTYPE svg PUBLIC "-//W3C//DTD SVG 1.1//EN" "http://www.w3.org/Graphics/SVG/1.1/DTD/svg11.dtd">
<svg width="192pt" height="192pt" viewBox="0 0 192 192" version="1.1" xmlns="http://www.w3.org/2000/svg">
<g id="#8392a2ff">
<path fill="#8392a2" opacity="1.00" d=" M 18.07 41.93 C 18.03 31.31 27.41 21.83 38.04 21.74 C 50.35 21.54 62.68 21.76 75.00 21.63 C 77.74 21.68 81.19 21.36 82.90 24.01 C 87.10 29.97 91.01 36.14 95.09 42.18 C 110.36 42.33 125.64 41.97 140.89 42.35 C 146.76 43.01 146.91 52.54 141.00 53.32 C 126.02 53.76 110.99 53.34 95.99 53.53 C 93.17 53.44 89.56 53.97 87.71 51.28 C 83.55 45.36 79.61 39.28 75.64 33.22 C 63.41 33.02 51.19 33.19 38.96 33.13 C 33.62 32.66 28.94 37.68 29.35 42.93 C 29.38 78.91 29.18 114.90 29.45 150.87 C 30.20 158.76 39.37 158.84 45.37 158.24 C 45.46 134.16 45.29 110.07 45.45 85.99 C 45.60 76.91 53.98 69.14 63.03 69.49 C 94.00 69.47 124.99 69.40 155.96 69.52 C 165.09 69.53 173.19 77.80 172.83 86.95 C 172.85 107.98 172.87 129.02 172.82 150.05 C 173.08 160.59 163.49 169.91 152.99 169.55 C 114.34 169.53 75.68 169.60 37.03 169.51 C 26.83 169.43 17.90 160.24 18.06 150.06 C 18.02 114.02 17.99 77.97 18.07 41.93 M 56.73 86.97 C 56.66 110.72 56.69 134.48 56.72 158.24 C 88.82 158.27 120.92 158.30 153.01 158.23 C 157.49 158.42 161.64 154.53 161.52 150.01 C 161.61 129.01 161.59 108.00 161.53 86.99 C 161.75 83.49 158.48 80.50 155.03 80.75 C 124.35 80.72 93.66 80.68 62.97 80.76 C 59.57 80.61 56.54 83.53 56.73 86.97 Z" />
<path fill="#8392a2" opacity="1.00" d=" M 119.32 94.30 C 127.41 93.01 135.81 94.06 144.02 93.73 C 147.57 93.25 151.09 96.38 150.53 100.03 C 150.26 103.70 146.30 105.45 143.03 105.15 C 135.70 104.99 128.33 105.46 121.02 104.90 C 115.73 104.44 114.46 96.41 119.32 94.30 Z" />
</g>
</svg>
