<?xml version="1.0" encoding="UTF-8" ?>
<!DOCTYPE svg PUBLIC "-//W3C//DTD SVG 1.1//EN" "http://www.w3.org/Graphics/SVG/1.1/DTD/svg11.dtd">
<svg width="192pt" height="192pt" viewBox="0 0 192 192" version="1.1" xmlns="http://www.w3.org/2000/svg">
<g id="#ca9a6bff">
<path fill="#ca9a6b" opacity="1.00" d=" M 46.27 13.35 C 65.11 12.07 84.10 13.15 103.00 12.79 C 106.70 13.08 111.29 11.68 114.10 14.84 C 129.95 30.67 145.78 46.54 161.61 62.40 C 163.18 63.81 163.97 65.84 163.81 67.95 C 163.77 96.66 163.89 125.37 163.76 154.08 C 163.61 166.01 153.00 176.49 141.07 176.55 C 111.03 176.63 80.98 176.60 50.93 176.54 C 38.53 176.62 27.70 165.39 28.01 153.03 C 27.99 114.01 27.96 74.98 28.04 35.96 C 27.97 25.40 35.95 15.52 46.27 13.35 M 39.33 36.95 C 39.34 75.66 39.30 114.37 39.36 153.08 C 39.14 159.77 45.32 165.69 52.02 165.20 C 81.34 165.21 110.67 165.22 140.00 165.17 C 146.60 165.56 152.64 159.68 152.44 153.08 C 152.47 126.26 152.53 99.45 152.41 72.63 C 144.30 72.56 136.17 72.85 128.06 72.48 C 115.54 71.62 104.84 60.59 104.17 48.09 C 103.87 40.10 104.27 32.10 103.97 24.11 C 86.28 24.20 68.60 24.03 50.91 24.19 C 44.32 24.13 38.81 30.46 39.33 36.95 M 115.34 32.12 C 115.52 37.36 115.19 42.60 115.52 47.83 C 116.12 54.70 122.07 60.70 128.98 61.13 C 134.05 61.35 139.13 61.20 144.20 61.12 C 134.68 51.36 124.95 41.80 115.34 32.12 Z" />
<path fill="#ca9a6b" opacity="1.00" d=" M 105.74 105.99 C 105.78 104.16 105.57 100.68 108.14 100.62 C 115.72 100.68 123.33 100.28 130.89 100.85 C 130.80 104.01 130.81 107.16 130.85 110.32 C 125.95 110.64 121.03 110.49 116.13 110.42 C 115.74 113.77 115.76 117.15 115.81 120.52 C 119.56 120.78 123.40 120.16 127.09 120.88 C 128.85 123.53 128.95 127.54 127.16 130.20 C 123.44 130.90 119.58 130.30 115.81 130.51 C 115.81 136.93 115.88 143.35 115.77 149.76 C 112.59 149.86 109.40 149.84 106.22 149.76 C 105.18 135.22 106.09 120.57 105.74 105.99 Z" />
<path fill="#ca9a6b" opacity="1.00" d=" M 60.74 108.72 C 61.66 98.48 74.66 100.05 81.87 101.28 C 88.65 103.30 87.98 111.84 87.44 117.41 C 85.20 119.31 81.66 118.58 78.98 118.14 C 77.23 116.01 77.88 112.98 77.64 110.44 C 75.31 110.48 72.99 110.51 70.66 110.53 C 70.56 120.45 70.79 130.38 70.54 140.30 C 72.93 140.61 75.35 140.67 77.76 140.60 C 77.76 137.87 77.76 135.13 77.78 132.39 C 76.61 132.14 75.43 131.89 74.25 131.63 C 73.60 128.59 73.41 125.40 74.47 122.42 C 78.44 122.51 82.44 122.06 86.40 122.58 C 88.86 124.89 87.18 128.96 87.65 132.00 C 87.26 137.80 89.44 145.73 83.38 149.32 C 78.34 150.41 73.07 149.59 67.94 149.83 C 63.18 150.24 60.50 145.15 60.60 141.01 C 60.64 130.25 60.36 119.47 60.74 108.72 Z" />
<path fill="#ca9a6b" opacity="1.00" d=" M 91.56 104.01 C 91.24 98.83 98.49 100.41 101.61 101.43 C 101.67 117.53 101.69 133.63 101.60 149.73 C 98.37 149.82 95.14 149.85 91.91 149.86 C 91.11 134.62 91.81 119.29 91.56 104.01 Z" />
</g>
</svg>
