<?xml version="1.0" encoding="UTF-8" ?>
<!DOCTYPE svg PUBLIC "-//W3C//DTD SVG 1.1//EN" "http://www.w3.org/Graphics/SVG/1.1/DTD/svg11.dtd">
<svg width="192pt" height="192pt" viewBox="0 0 192 192" version="1.1" xmlns="http://www.w3.org/2000/svg">
<g id="#30a0ddff">
<path fill="#30a0dd" opacity="1.00" d=" M 46.28 13.36 C 65.11 12.06 84.10 13.16 103.00 12.79 C 106.70 13.07 111.29 11.68 114.11 14.84 C 129.94 30.66 145.75 46.50 161.56 62.34 C 163.15 63.77 163.98 65.81 163.81 67.95 C 163.78 96.66 163.90 125.37 163.77 154.07 C 163.62 166.01 153.01 176.51 141.07 176.55 C 111.03 176.64 80.98 176.60 50.93 176.54 C 38.93 176.60 28.26 166.05 28.05 154.07 C 27.91 114.70 28.03 75.32 28.05 35.95 C 27.97 25.40 35.96 15.53 46.28 13.36 M 39.32 36.96 C 39.34 75.66 39.30 114.37 39.36 153.07 C 39.14 159.78 45.32 165.68 52.02 165.20 C 81.35 165.21 110.68 165.21 140.00 165.16 C 146.63 165.55 152.65 159.61 152.44 152.99 C 152.45 126.21 152.54 99.43 152.40 72.65 C 144.29 72.54 136.17 72.86 128.06 72.48 C 115.55 71.62 104.84 60.59 104.17 48.10 C 103.90 40.11 104.20 32.12 104.03 24.13 C 86.33 24.17 68.62 24.04 50.91 24.19 C 44.32 24.13 38.80 30.47 39.32 36.96 M 115.36 32.12 C 115.51 37.36 115.19 42.61 115.52 47.84 C 116.12 54.71 122.07 60.69 128.98 61.12 C 134.06 61.36 139.15 61.18 144.23 61.14 C 134.68 51.39 124.96 41.81 115.36 32.12 Z" />
<path fill="#30a0dd" opacity="1.00" d=" M 55.38 114.11 C 55.65 109.31 60.59 106.44 65.02 106.59 C 69.55 106.66 75.15 105.71 78.54 109.46 C 81.75 112.69 80.67 117.65 80.75 121.75 C 77.65 121.86 74.55 121.85 71.45 121.71 C 71.24 119.90 71.03 118.10 70.80 116.31 C 68.89 116.31 66.98 116.32 65.06 116.32 C 64.93 118.23 64.83 120.15 64.75 122.07 C 70.02 123.94 75.48 125.25 80.60 127.53 C 80.75 133.39 81.42 139.41 80.21 145.17 C 76.66 152.38 66.77 150.96 60.33 149.57 C 54.62 147.39 54.77 140.46 55.41 135.41 C 58.42 135.13 61.45 135.11 64.47 135.35 C 65.00 137.63 64.30 142.03 67.97 141.25 C 72.41 142.07 71.09 136.67 71.05 134.03 C 65.88 132.25 60.25 131.28 55.56 128.43 C 54.81 123.72 55.11 118.86 55.38 114.11 Z" />
<path fill="#30a0dd" opacity="1.00" d=" M 84.66 113.43 C 85.75 106.71 93.54 106.05 99.00 106.54 C 103.89 105.99 109.36 108.73 110.01 114.00 C 110.67 122.63 110.11 131.34 110.31 140.00 C 110.51 143.42 108.94 146.54 107.01 149.25 C 107.61 151.08 108.25 152.89 108.88 154.71 C 105.64 154.84 102.41 154.86 99.18 154.84 C 98.49 153.41 97.81 151.97 97.12 150.55 C 91.82 151.27 84.93 149.11 84.53 142.86 C 84.34 133.07 84.09 123.21 84.66 113.43 M 94.13 116.32 C 93.59 124.44 93.73 132.61 94.04 140.74 C 96.27 140.76 98.51 140.77 100.75 140.78 C 100.78 132.62 100.83 124.46 100.70 116.30 C 98.51 116.32 96.32 116.32 94.13 116.32 Z" />
<path fill="#30a0dd" opacity="1.00" d=" M 114.39 107.43 C 117.44 106.56 121.99 105.32 124.30 108.07 C 124.67 118.91 124.46 129.79 124.38 140.64 C 128.22 140.64 132.09 140.31 135.91 140.81 C 137.79 143.45 136.73 147.42 136.29 150.52 C 129.01 149.98 121.47 151.53 114.38 149.65 C 114.36 135.57 114.35 121.50 114.39 107.43 Z" />
</g>
</svg>
