<?xml version="1.0" encoding="UTF-8" ?>
<!DOCTYPE svg PUBLIC "-//W3C//DTD SVG 1.1//EN" "http://www.w3.org/Graphics/SVG/1.1/DTD/svg11.dtd">
<svg width="192pt" height="192pt" viewBox="0 0 192 192" version="1.1" xmlns="http://www.w3.org/2000/svg">
<g id="#1ab1ffff">
<path fill="#1ab1ff" opacity="1.00" d=" M 21.47 37.95 C 21.20 28.58 29.58 20.21 38.94 20.40 C 71.31 20.33 103.69 20.35 136.06 20.35 C 142.46 20.15 148.72 24.58 150.25 30.87 C 151.20 35.21 150.64 39.70 150.80 44.10 C 160.69 42.81 170.31 50.96 170.20 61.00 C 170.26 93.34 170.22 125.67 170.23 158.01 C 170.61 164.62 164.65 170.60 158.02 170.19 C 114.34 170.08 70.64 170.40 26.96 170.15 C 20.02 170.39 20.10 158.72 26.97 158.95 C 70.92 158.79 114.89 158.76 158.85 158.82 C 158.93 126.52 158.90 94.22 158.87 61.92 C 159.25 58.54 156.53 55.16 152.99 55.50 C 114.04 55.45 75.09 55.47 36.14 55.47 C 33.73 55.10 32.51 57.95 32.71 59.96 C 32.64 86.61 32.81 113.25 32.65 139.89 C 32.60 146.55 21.55 146.47 21.52 139.85 C 21.36 105.89 21.50 71.92 21.47 37.95 M 36.97 44.08 C 71.12 44.42 105.30 44.12 139.47 44.18 C 138.68 40.27 141.62 33.61 137.03 31.76 C 104.02 31.53 70.98 31.65 37.96 31.66 C 30.71 31.47 29.86 43.10 36.97 44.08 Z" />
<path fill="#1ab1ff" opacity="1.00" d=" M 103.62 105.58 C 112.36 102.06 125.55 102.93 128.83 113.47 C 132.08 108.12 137.54 103.72 144.02 103.53 C 147.25 103.88 148.30 108.91 145.37 110.32 C 134.94 112.83 128.50 125.95 133.34 135.64 C 134.10 139.80 138.64 139.94 142.00 140.12 C 142.04 142.65 141.99 145.19 141.85 147.72 C 134.84 148.64 127.83 144.66 125.86 137.71 C 122.16 144.15 115.26 148.60 107.64 147.70 C 107.54 145.16 107.51 142.62 107.60 140.07 C 116.77 141.40 120.66 131.96 123.31 125.02 C 123.50 120.85 122.09 116.62 119.96 113.08 C 117.27 110.77 113.26 111.68 109.99 111.65 C 104.50 111.77 102.09 117.39 100.01 121.60 C 102.90 121.59 105.81 121.51 108.69 121.93 C 108.60 124.17 108.58 126.42 108.62 128.66 C 104.61 129.45 100.50 128.89 96.45 129.29 C 93.05 138.11 86.33 149.46 75.26 147.66 C 70.65 147.23 71.31 139.46 76.02 139.96 C 82.58 140.48 86.07 134.20 88.23 129.02 C 85.36 128.88 82.49 128.81 79.62 128.87 C 79.50 126.47 79.48 124.07 79.54 121.67 C 83.53 121.56 87.53 121.67 91.52 121.58 C 94.60 115.70 97.07 108.46 103.62 105.58 Z" />
</g>
</svg>
