<?xml version="1.0" encoding="UTF-8" ?>
<!DOCTYPE svg PUBLIC "-//W3C//DTD SVG 1.1//EN" "http://www.w3.org/Graphics/SVG/1.1/DTD/svg11.dtd">
<svg width="192pt" height="192pt" viewBox="0 0 192 192" version="1.1" xmlns="http://www.w3.org/2000/svg">
<g id="#ff891fff">
<path fill="#ff891f" opacity="1.00" d=" M 18.10 41.95 C 18.02 31.32 27.42 21.84 38.04 21.75 C 50.36 21.54 62.68 21.77 75.01 21.64 C 77.73 21.69 81.18 21.37 82.88 24.01 C 87.08 29.97 91.01 36.13 95.08 42.18 C 110.36 42.34 125.65 41.96 140.92 42.35 C 146.76 43.03 146.90 52.53 141.00 53.30 C 126.02 53.76 110.99 53.31 95.99 53.51 C 92.93 53.53 89.03 53.82 87.28 50.71 C 83.36 44.90 79.44 39.10 75.66 33.20 C 63.45 32.55 51.19 32.92 38.97 32.96 C 33.63 32.77 28.91 37.59 29.33 42.93 C 29.37 78.91 29.15 114.91 29.45 150.88 C 30.19 158.78 39.39 158.84 45.38 158.24 C 45.46 134.15 45.30 110.06 45.47 85.98 C 45.63 76.91 53.98 69.14 63.03 69.49 C 94.00 69.48 124.99 69.40 155.96 69.52 C 165.10 69.51 173.19 77.80 172.84 86.96 C 172.87 107.99 172.89 129.02 172.83 150.05 C 173.07 160.56 163.54 169.86 153.06 169.54 C 114.37 169.54 75.67 169.59 36.98 169.50 C 26.82 169.39 17.90 160.22 18.07 150.06 C 18.03 114.02 18.02 77.98 18.10 41.95 M 56.72 86.97 C 56.64 110.73 56.69 134.49 56.71 158.25 C 88.81 158.25 120.91 158.29 153.00 158.21 C 157.49 158.44 161.60 154.53 161.51 150.03 C 161.60 129.01 161.58 107.99 161.52 86.98 C 161.73 83.47 158.48 80.48 155.02 80.75 C 124.34 80.71 93.65 80.68 62.98 80.75 C 59.56 80.57 56.52 83.53 56.72 86.97 Z" />
<path fill="#ff891f" opacity="1.00" d=" M 119.30 94.30 C 127.39 93.01 135.79 94.05 144.00 93.73 C 148.35 93.01 152.17 97.96 149.98 101.90 C 148.14 105.61 143.46 105.11 140.00 105.15 C 133.41 104.85 126.75 105.65 120.21 104.71 C 115.44 103.58 114.84 96.27 119.30 94.30 Z" />
</g>
</svg>
