<?xml version="1.0" encoding="UTF-8" ?>
<!DOCTYPE svg PUBLIC "-//W3C//DTD SVG 1.1//EN" "http://www.w3.org/Graphics/SVG/1.1/DTD/svg11.dtd">
<svg width="192pt" height="192pt" viewBox="0 0 192 192" version="1.1" xmlns="http://www.w3.org/2000/svg">
<g id="#3aa698ff">
<path fill="#3aa698" opacity="1.00" d=" M 46.31 13.40 C 65.13 12.03 84.11 13.20 103.00 12.78 C 106.70 13.04 111.24 11.77 114.09 14.86 C 129.95 30.69 145.80 46.56 161.63 62.43 C 163.52 64.06 163.95 66.57 163.83 68.95 C 163.75 97.32 163.92 125.69 163.78 154.06 C 163.65 166.03 153.01 176.54 141.05 176.57 C 111.02 176.65 80.98 176.61 50.95 176.55 C 38.57 176.63 27.71 165.42 28.04 153.06 C 28.03 114.02 28.05 74.97 28.11 35.92 C 27.99 25.39 36.02 15.53 46.31 13.40 M 39.33 36.93 C 39.35 75.64 39.31 114.35 39.37 153.06 C 39.12 159.78 45.29 165.66 51.98 165.21 C 81.33 165.23 110.69 165.22 140.04 165.16 C 146.68 165.53 152.67 159.59 152.43 152.96 C 152.46 126.19 152.53 99.42 152.41 72.65 C 144.28 72.54 136.14 72.87 128.02 72.47 C 115.52 71.61 104.82 60.56 104.20 48.08 C 103.94 40.11 104.20 32.13 104.11 24.16 C 86.38 24.19 68.64 24.07 50.92 24.21 C 44.31 24.08 38.79 30.44 39.33 36.93 M 115.37 32.11 C 115.51 37.35 115.19 42.59 115.53 47.81 C 116.08 54.70 122.06 60.69 128.97 61.13 C 134.08 61.42 139.19 61.17 144.30 61.18 C 134.70 51.44 124.98 41.83 115.37 32.11 Z" />
<path fill="#3aa698" opacity="1.00" d=" M 57.60 107.55 C 62.69 105.97 68.44 106.01 73.55 107.50 C 79.09 109.70 78.66 116.60 78.52 121.51 C 75.23 122.27 71.82 122.37 68.56 121.38 C 68.53 119.70 68.49 118.02 68.46 116.34 C 66.45 116.35 64.44 116.36 62.43 116.36 C 59.40 127.95 79.71 121.25 78.56 131.97 C 78.21 137.81 80.36 146.54 73.64 149.52 C 68.63 150.59 63.33 150.41 58.27 149.75 C 52.38 148.30 51.94 140.97 52.76 136.06 C 55.52 134.10 59.19 135.33 62.32 135.49 C 62.43 137.29 62.53 139.08 62.63 140.88 C 64.57 140.98 66.52 141.07 68.46 141.16 C 68.49 138.81 68.49 136.46 68.49 134.11 C 62.76 131.33 51.03 132.12 52.46 123.00 C 52.62 117.73 51.44 109.88 57.60 107.55 Z" />
<path fill="#3aa698" opacity="1.00" d=" M 81.17 107.29 C 84.16 106.69 87.78 105.61 90.53 107.40 C 93.15 114.85 93.86 122.86 96.11 130.44 C 98.23 122.72 99.65 114.82 101.50 107.04 C 104.47 106.75 111.69 104.77 110.68 109.80 C 107.73 123.11 104.23 136.30 101.22 149.60 C 97.91 150.22 94.53 150.27 91.20 149.80 C 87.79 135.65 84.13 121.54 81.17 107.29 Z" />
<path fill="#3aa698" opacity="1.00" d=" M 113.79 115.96 C 113.61 111.29 117.14 106.77 121.98 106.66 C 127.46 106.55 134.85 105.20 138.36 110.58 C 139.72 114.40 138.99 118.58 138.83 122.54 C 134.08 123.41 128.64 122.51 130.06 116.37 C 127.88 116.38 125.71 116.39 123.53 116.42 C 123.54 124.53 123.52 132.64 123.54 140.75 C 125.75 140.75 127.97 140.75 130.18 140.75 C 130.25 139.05 130.30 137.34 130.37 135.64 C 129.01 135.32 127.66 134.99 126.30 134.65 C 126.19 131.73 125.22 128.48 126.85 125.82 C 130.71 124.73 134.83 125.45 138.80 125.39 C 139.07 132.16 139.60 139.03 138.66 145.76 C 136.08 151.92 128.21 149.86 122.95 150.17 C 118.48 150.73 114.31 147.51 113.99 142.98 C 113.45 134.00 113.82 124.96 113.79 115.96 Z" />
</g>
</svg>
