<?xml version="1.0" encoding="UTF-8" ?>
<!DOCTYPE svg PUBLIC "-//W3C//DTD SVG 1.1//EN" "http://www.w3.org/Graphics/SVG/1.1/DTD/svg11.dtd">
<svg width="192pt" height="192pt" viewBox="0 0 192 192" version="1.1" xmlns="http://www.w3.org/2000/svg">
<g id="#44e272ff">
<path fill="#44e272" opacity="1.00" d=" M 18.08 41.95 C 18.02 31.31 27.42 21.84 38.04 21.74 C 50.69 21.56 63.34 21.74 75.99 21.65 C 78.45 21.61 81.42 21.68 82.89 24.00 C 87.08 29.98 91.00 36.13 95.10 42.17 C 110.37 42.33 125.65 41.99 140.91 42.33 C 146.75 43.05 146.91 52.52 141.01 53.33 C 125.36 53.73 109.68 53.36 94.01 53.51 C 91.49 53.66 88.61 53.11 87.27 50.72 C 83.37 44.91 79.46 39.11 75.65 33.24 C 63.43 32.98 51.20 33.21 38.97 33.13 C 33.62 32.62 28.93 37.68 29.35 42.93 C 29.38 78.91 29.18 114.91 29.44 150.88 C 30.21 158.76 39.37 158.85 45.37 158.23 C 45.47 134.15 45.30 110.06 45.45 85.97 C 45.63 76.94 53.92 69.19 62.93 69.49 C 93.64 69.44 124.35 69.46 155.06 69.48 C 164.11 69.11 172.67 76.79 172.79 85.93 C 172.92 107.30 172.86 128.67 172.83 150.04 C 173.09 160.56 163.54 169.88 153.06 169.55 C 114.37 169.55 75.68 169.60 36.99 169.52 C 26.82 169.40 17.89 160.22 18.07 150.05 C 18.02 114.02 18.01 77.98 18.08 41.95 M 56.71 86.97 C 56.68 110.72 56.67 134.48 56.73 158.23 C 88.82 158.28 120.91 158.28 153.00 158.22 C 157.48 158.44 161.61 154.53 161.52 150.03 C 161.60 129.02 161.58 108.00 161.53 86.99 C 161.74 83.49 158.47 80.49 155.02 80.74 C 124.34 80.72 93.66 80.70 62.98 80.74 C 59.57 80.60 56.53 83.54 56.71 86.97 Z" />
<path fill="#44e272" opacity="1.00" d=" M 119.30 94.30 C 128.06 93.09 137.15 93.88 146.02 93.87 C 151.95 94.61 151.93 104.14 145.99 104.88 C 137.69 105.34 129.30 105.27 121.00 104.91 C 115.73 104.42 114.46 96.42 119.30 94.30 Z" />
</g>
</svg>
