<?xml version="1.0" encoding="UTF-8" ?>
<!DOCTYPE svg PUBLIC "-//W3C//DTD SVG 1.1//EN" "http://www.w3.org/Graphics/SVG/1.1/DTD/svg11.dtd">
<svg width="192pt" height="192pt" viewBox="0 0 192 192" version="1.1" xmlns="http://www.w3.org/2000/svg">
<g id="#b71feaff">
<path fill="#b71fea" opacity="1.00" d=" M 45.36 13.52 C 63.78 11.75 82.47 13.21 101.00 12.74 C 105.56 13.20 111.35 11.16 114.69 15.30 C 130.32 31.00 146.01 46.66 161.67 62.34 C 163.30 63.75 164.04 65.83 163.87 67.96 C 163.83 96.66 163.96 125.36 163.82 154.06 C 163.69 166.01 153.00 176.51 141.07 176.52 C 111.03 176.59 80.98 176.57 50.94 176.51 C 38.95 176.55 28.26 166.04 28.09 154.06 C 27.98 114.70 28.07 75.33 28.08 35.97 C 27.95 25.71 35.46 16.06 45.36 13.52 M 39.34 35.93 C 39.28 74.97 39.30 114.02 39.34 153.06 C 39.13 159.37 44.64 165.22 51.00 165.15 C 80.66 165.23 110.32 165.14 139.98 165.16 C 146.61 165.61 152.78 159.73 152.53 153.07 C 152.54 126.22 152.61 99.37 152.50 72.53 C 144.36 72.48 136.21 72.73 128.07 72.41 C 115.60 71.50 104.92 60.53 104.26 48.06 C 104.02 40.09 104.29 32.10 104.13 24.12 C 86.40 24.12 68.67 24.10 50.94 24.13 C 44.72 23.98 39.20 29.76 39.34 35.93 M 115.36 32.06 C 115.53 37.05 115.30 42.05 115.49 47.04 C 115.74 54.17 121.82 60.60 128.97 61.08 C 134.05 61.32 139.15 61.19 144.23 61.08 C 134.79 51.23 125.05 41.67 115.36 32.06 Z" />
<path fill="#b71fea" opacity="1.00" d=" M 53.31 95.38 C 76.05 93.97 99.13 95.08 122.00 94.78 C 128.87 94.15 129.84 105.38 123.02 105.98 C 100.67 106.21 78.28 106.22 55.92 105.97 C 50.14 106.48 47.95 97.57 53.31 95.38 Z" />
<path fill="#b71fea" opacity="1.00" d=" M 54.33 117.44 C 77.18 117.08 100.08 117.16 122.95 117.27 C 129.24 117.68 129.31 128.01 122.98 128.41 C 100.33 128.57 77.66 128.52 55.01 128.37 C 49.10 128.06 48.51 118.50 54.33 117.44 Z" />
<path fill="#b71fea" opacity="1.00" d=" M 53.24 140.24 C 65.32 138.83 77.76 139.96 89.98 139.61 C 94.59 138.89 98.30 144.71 95.42 148.47 C 93.11 151.84 88.50 150.94 85.00 151.15 C 75.01 150.83 65.02 150.94 55.03 150.76 C 49.66 150.58 48.35 142.26 53.24 140.24 Z" />
</g>
</svg>
