<?xml version="1.0" encoding="UTF-8" ?>
<!DOCTYPE svg PUBLIC "-//W3C//DTD SVG 1.1//EN" "http://www.w3.org/Graphics/SVG/1.1/DTD/svg11.dtd">
<svg width="192pt" height="192pt" viewBox="0 0 192 192" version="1.1" xmlns="http://www.w3.org/2000/svg">
<g id="#4fc576ff">
<path fill="#4fc576" opacity="1.00" d=" M 46.30 13.35 C 65.13 12.06 84.11 13.17 103.00 12.78 C 106.70 13.06 111.27 11.71 114.10 14.84 C 129.95 30.68 145.78 46.56 161.61 62.43 C 163.18 63.83 163.93 65.86 163.78 67.95 C 163.75 96.65 163.85 125.36 163.74 154.06 C 163.63 166.01 152.98 176.50 141.05 176.54 C 111.02 176.62 80.98 176.60 50.95 176.54 C 38.55 176.63 27.73 165.41 28.02 153.06 C 27.97 114.01 27.97 74.97 28.04 35.92 C 27.99 25.37 35.97 15.50 46.30 13.35 M 39.34 36.93 C 39.35 75.64 39.31 114.36 39.36 153.07 C 39.13 159.78 45.30 165.67 51.99 165.21 C 81.33 165.24 110.68 165.25 140.02 165.20 C 146.63 165.55 152.65 159.68 152.46 153.07 C 152.47 126.26 152.59 99.44 152.40 72.63 C 144.33 72.55 136.25 72.82 128.19 72.49 C 115.63 71.69 104.83 60.63 104.18 48.08 C 103.92 40.11 104.19 32.13 104.06 24.15 C 86.35 24.19 68.63 24.06 50.91 24.21 C 44.33 24.14 38.84 30.46 39.34 36.93 M 115.37 32.12 C 115.51 37.35 115.19 42.59 115.53 47.82 C 116.09 54.70 122.06 60.69 128.97 61.14 C 134.08 61.41 139.20 61.18 144.31 61.19 C 134.72 51.44 124.98 41.84 115.37 32.12 Z" />
<path fill="#4fc576" opacity="1.00" d=" M 85.06 109.04 C 90.13 105.45 97.00 106.21 102.79 107.22 C 108.88 108.97 108.81 116.32 108.48 121.44 C 105.22 122.30 101.75 122.56 98.56 121.24 C 98.52 119.60 98.49 117.97 98.47 116.33 C 96.47 116.34 94.47 116.35 92.46 116.35 C 92.52 118.29 92.58 120.24 92.62 122.18 C 97.69 124.38 104.36 124.52 108.25 128.51 C 108.08 135.41 111.29 146.61 102.88 149.74 C 97.61 150.25 91.90 150.91 86.80 149.17 C 81.86 146.69 82.42 140.25 82.67 135.60 C 85.86 134.93 89.14 134.85 92.31 135.60 C 92.44 137.42 92.55 139.25 92.64 141.07 C 94.59 141.10 96.53 141.11 98.48 141.11 C 98.49 138.77 98.49 136.43 98.48 134.09 C 92.83 131.30 80.96 132.11 82.48 123.03 C 82.64 118.35 81.77 112.90 85.06 109.04 Z" />
<path fill="#4fc576" opacity="1.00" d=" M 52.81 113.67 C 54.35 104.85 65.35 106.15 71.95 106.96 C 79.29 108.51 79.07 117.49 78.30 123.30 C 76.24 125.71 72.42 124.12 69.62 124.43 C 69.16 121.76 68.92 119.07 68.76 116.37 C 66.62 116.35 64.49 116.35 62.35 116.34 C 62.33 124.55 62.27 132.76 62.38 140.97 C 64.54 141.02 66.69 141.02 68.85 140.96 C 69.33 138.32 68.29 134.90 70.13 132.80 C 72.78 132.66 76.58 131.43 78.34 134.03 C 78.64 138.88 79.45 144.90 75.46 148.53 C 71.16 151.24 65.73 149.87 60.93 150.14 C 56.19 150.61 52.59 146.29 52.60 141.81 C 52.61 132.44 52.20 123.02 52.81 113.67 Z" />
<path fill="#4fc576" opacity="1.00" d=" M 111.35 109.77 C 110.37 104.82 117.68 106.61 120.56 107.16 C 122.39 114.84 123.78 122.62 125.82 130.25 C 128.34 122.79 128.89 114.81 131.49 107.40 C 133.91 105.72 137.20 106.80 139.96 106.76 C 139.12 121.42 133.71 135.42 130.83 149.78 C 127.58 149.93 123.74 151.08 120.88 149.09 C 117.43 136.07 114.49 122.88 111.35 109.77 Z" />
</g>
</svg>
