<?xml version="1.0" encoding="UTF-8" ?>
<!DOCTYPE svg PUBLIC "-//W3C//DTD SVG 1.1//EN" "http://www.w3.org/Graphics/SVG/1.1/DTD/svg11.dtd">
<svg width="192pt" height="192pt" viewBox="0 0 192 192" version="1.1" xmlns="http://www.w3.org/2000/svg">
<g id="#ff3660ff">
<path fill="#ff3660" opacity="1.00" d=" M 18.09 41.93 C 18.03 31.31 27.42 21.85 38.02 21.74 C 50.68 21.56 63.34 21.74 76.00 21.65 C 78.45 21.62 81.42 21.68 82.89 24.01 C 87.09 29.98 90.99 36.16 95.12 42.19 C 110.37 42.32 125.65 41.99 140.89 42.33 C 146.75 43.03 146.91 52.49 141.02 53.33 C 125.36 53.72 109.67 53.36 94.00 53.50 C 91.48 53.66 88.62 53.10 87.28 50.72 C 83.35 44.91 79.46 39.06 75.60 33.20 C 63.72 32.80 51.85 33.08 39.97 32.91 C 34.33 32.37 28.85 37.13 29.34 42.93 C 29.37 78.91 29.17 114.90 29.44 150.87 C 30.20 158.76 39.37 158.85 45.38 158.24 C 45.46 134.16 45.31 110.07 45.46 86.00 C 45.61 76.92 53.97 69.15 63.02 69.49 C 93.67 69.45 124.33 69.46 154.98 69.47 C 164.06 69.06 172.66 76.76 172.79 85.92 C 172.92 107.30 172.86 128.68 172.83 150.06 C 173.07 160.57 163.53 169.87 153.06 169.54 C 114.38 169.54 75.69 169.59 37.00 169.51 C 26.83 169.41 17.89 160.24 18.07 150.06 C 18.02 114.02 18.02 77.97 18.09 41.93 M 56.71 86.95 C 56.66 110.71 56.67 134.48 56.72 158.24 C 88.82 158.27 120.92 158.28 153.02 158.22 C 157.50 158.43 161.62 154.51 161.52 150.01 C 161.60 129.01 161.58 108.00 161.53 86.99 C 161.74 83.50 158.49 80.49 155.04 80.74 C 124.35 80.72 93.65 80.69 62.95 80.74 C 59.56 80.60 56.53 83.53 56.71 86.95 Z" />
<path fill="#ff3660" opacity="1.00" d=" M 119.32 94.29 C 128.07 93.11 137.15 93.87 146.00 93.88 C 151.95 94.59 151.93 104.17 145.96 104.86 C 137.69 105.34 129.31 105.26 121.03 104.90 C 115.73 104.46 114.45 96.40 119.32 94.29 Z" />
</g>
</svg>
