<?xml version="1.0" encoding="UTF-8" ?>
<!DOCTYPE svg PUBLIC "-//W3C//DTD SVG 1.1//EN" "http://www.w3.org/Graphics/SVG/1.1/DTD/svg11.dtd">
<svg width="192pt" height="192pt" viewBox="0 0 192 192" version="1.1" xmlns="http://www.w3.org/2000/svg">
<g id="#3d7fd1ff">
<path fill="#3d7fd1" opacity="1.00" d=" M 45.37 13.57 C 63.78 11.74 82.48 13.25 101.00 12.75 C 105.33 13.25 110.75 11.25 114.14 14.83 C 129.98 30.67 145.82 46.52 161.67 62.36 C 163.30 63.76 164.02 65.83 163.86 67.95 C 163.83 96.66 163.96 125.37 163.83 154.07 C 163.72 166.03 153.00 176.54 141.06 176.54 C 111.02 176.60 80.98 176.57 50.94 176.52 C 38.98 176.55 28.27 166.05 28.14 154.08 C 28.04 114.70 28.14 75.32 28.16 35.94 C 27.97 25.72 35.52 16.12 45.37 13.57 M 39.33 35.94 C 39.29 74.98 39.31 114.02 39.34 153.06 C 39.10 159.39 44.63 165.22 50.99 165.18 C 80.65 165.25 110.33 165.15 139.99 165.17 C 146.62 165.60 152.79 159.73 152.53 153.07 C 152.53 126.23 152.64 99.38 152.49 72.54 C 144.34 72.47 136.18 72.74 128.04 72.41 C 115.59 71.47 104.90 60.50 104.30 48.03 C 104.08 40.07 104.31 32.11 104.20 24.15 C 86.45 24.14 68.69 24.13 50.94 24.15 C 44.69 23.90 39.14 29.76 39.33 35.94 M 115.39 32.02 C 115.50 37.01 115.31 42.01 115.47 47.00 C 115.70 54.16 121.80 60.61 128.97 61.11 C 134.08 61.36 139.21 61.20 144.33 61.12 C 134.81 51.29 125.08 41.68 115.39 32.02 Z" />
<path fill="#3d7fd1" opacity="1.00" d=" M 53.27 95.26 C 76.05 94.02 99.12 94.99 122.01 94.76 C 128.95 94.08 129.92 105.50 123.01 106.05 C 100.66 106.25 78.28 106.13 55.92 106.11 C 49.99 106.59 47.80 97.54 53.27 95.26 Z" />
<path fill="#3d7fd1" opacity="1.00" d=" M 54.28 117.36 C 77.14 116.92 100.07 117.09 122.95 117.21 C 129.30 117.67 129.38 128.05 122.98 128.45 C 100.34 128.62 77.66 128.60 55.01 128.43 C 49.01 128.13 48.36 118.49 54.28 117.36 Z" />
<path fill="#3d7fd1" opacity="1.00" d=" M 53.21 140.13 C 65.68 138.88 78.43 139.79 91.00 139.64 C 97.48 139.49 98.31 149.88 91.95 150.87 C 79.98 151.44 67.93 151.07 55.94 151.06 C 50.01 151.40 47.79 142.57 53.21 140.13 Z" />
</g>
</svg>
