<?xml version="1.0" encoding="UTF-8" ?>
<!DOCTYPE svg PUBLIC "-//W3C//DTD SVG 1.1//EN" "http://www.w3.org/Graphics/SVG/1.1/DTD/svg11.dtd">
<svg width="192pt" height="192pt" viewBox="0 0 192 192" version="1.1" xmlns="http://www.w3.org/2000/svg">
<g id="#e38530ff">
<path fill="#e38530" opacity="1.00" d=" M 46.31 13.35 C 65.13 12.08 84.12 13.15 103.00 12.79 C 106.70 13.09 111.29 11.67 114.10 14.84 C 129.96 30.68 145.79 46.55 161.62 62.42 C 163.19 63.82 163.96 65.85 163.79 67.94 C 163.75 96.65 163.86 125.36 163.75 154.06 C 163.62 166.01 152.98 176.50 141.05 176.54 C 111.02 176.62 80.99 176.59 50.96 176.54 C 38.57 176.63 27.73 165.42 28.01 153.07 C 27.97 114.02 27.98 74.97 28.04 35.92 C 27.99 25.37 35.98 15.50 46.31 13.35 M 39.36 35.93 C 39.30 74.97 39.33 114.02 39.35 153.07 C 39.13 159.76 45.29 165.67 51.97 165.21 C 81.33 165.23 110.68 165.24 140.03 165.19 C 146.65 165.54 152.68 159.63 152.46 153.01 C 152.47 126.22 152.56 99.43 152.41 72.64 C 144.34 72.53 136.26 72.82 128.20 72.49 C 115.63 71.68 104.83 60.63 104.17 48.07 C 103.93 40.10 104.18 32.12 104.06 24.15 C 86.35 24.16 68.63 24.06 50.92 24.19 C 44.73 24.14 39.28 29.78 39.36 35.93 M 115.36 32.12 C 115.51 37.35 115.20 42.59 115.51 47.81 C 116.10 54.69 122.05 60.69 128.97 61.14 C 134.07 61.37 139.19 61.19 144.30 61.18 C 134.71 51.43 124.98 41.83 115.36 32.12 Z" />
<path fill="#e38530" opacity="1.00" d=" M 83.46 101.24 C 87.20 101.18 90.95 101.17 94.69 101.28 C 98.53 117.34 102.22 133.53 105.01 149.80 C 101.83 149.82 98.66 149.79 95.48 149.76 C 94.87 146.73 94.27 143.70 93.45 140.73 C 90.50 140.75 87.54 140.80 84.59 140.86 C 84.03 143.81 83.52 146.76 82.89 149.69 C 79.62 149.84 76.35 149.87 73.09 149.61 C 76.33 133.44 79.88 117.33 83.46 101.24 M 86.35 132.23 C 88.18 132.21 90.02 132.21 91.85 132.21 C 91.06 127.41 90.13 122.62 89.10 117.86 C 88.03 122.62 87.29 127.45 86.35 132.23 Z" />
<path fill="#e38530" opacity="1.00" d=" M 108.58 104.04 C 108.09 98.94 114.64 100.84 117.77 100.78 C 117.85 117.14 117.70 133.49 117.85 149.85 C 114.86 149.80 111.86 149.78 108.86 149.80 C 108.21 134.57 108.78 119.29 108.58 104.04 Z" />
</g>
</svg>
