<?xml version="1.0" encoding="UTF-8" ?>
<!DOCTYPE svg PUBLIC "-//W3C//DTD SVG 1.1//EN" "http://www.w3.org/Graphics/SVG/1.1/DTD/svg11.dtd">
<svg width="192pt" height="192pt" viewBox="0 0 192 192" version="1.1" xmlns="http://www.w3.org/2000/svg">
<g id="#c320d4ff">
<path fill="#c320d4" opacity="1.00" d=" M 18.09 41.94 C 18.02 31.32 27.42 21.84 38.03 21.74 C 50.35 21.54 62.68 21.76 75.00 21.64 C 77.73 21.68 81.18 21.36 82.88 24.01 C 87.08 29.98 91.01 36.14 95.09 42.19 C 110.36 42.33 125.65 41.97 140.90 42.35 C 146.75 43.03 146.90 52.51 141.01 53.30 C 126.02 53.76 111.00 53.32 96.00 53.51 C 92.93 53.53 89.04 53.82 87.28 50.72 C 83.36 44.91 79.44 39.09 75.65 33.20 C 63.44 32.55 51.18 32.93 38.96 32.97 C 33.63 32.78 28.91 37.59 29.33 42.94 C 29.37 78.92 29.16 114.91 29.44 150.89 C 30.21 158.78 39.39 158.84 45.38 158.24 C 45.46 134.15 45.31 110.06 45.46 85.97 C 45.61 76.93 53.93 69.20 62.94 69.49 C 93.65 69.44 124.36 69.46 155.07 69.48 C 164.11 69.11 172.66 76.79 172.78 85.92 C 172.93 107.30 172.85 128.68 172.82 150.05 C 173.04 160.20 164.15 169.34 154.01 169.51 C 115.33 169.60 76.63 169.52 37.94 169.54 C 27.43 169.91 17.87 160.59 18.07 150.05 C 18.03 114.02 18.01 77.98 18.09 41.94 M 56.72 86.98 C 56.65 110.73 56.69 134.49 56.71 158.25 C 88.81 158.25 120.91 158.30 153.01 158.22 C 157.49 158.43 161.61 154.53 161.52 150.02 C 161.61 129.01 161.59 107.99 161.53 86.98 C 161.74 83.47 158.47 80.48 155.02 80.74 C 124.34 80.71 93.65 80.68 62.98 80.75 C 59.57 80.58 56.50 83.53 56.72 86.98 Z" />
<path fill="#c320d4" opacity="1.00" d=" M 119.30 94.30 C 127.40 93.01 135.79 94.05 144.00 93.73 C 147.55 93.24 151.08 96.36 150.53 100.02 C 150.25 103.69 146.31 105.44 143.03 105.13 C 135.69 104.98 128.32 105.44 121.01 104.88 C 115.72 104.44 114.47 96.41 119.30 94.30 Z" />
</g>
</svg>
