<?xml version="1.0" encoding="UTF-8" ?>
<!DOCTYPE svg PUBLIC "-//W3C//DTD SVG 1.1//EN" "http://www.w3.org/Graphics/SVG/1.1/DTD/svg11.dtd">
<svg width="192pt" height="192pt" viewBox="0 0 192 192" version="1.1" xmlns="http://www.w3.org/2000/svg">
<g id="#96634cff">
<path fill="#96634c" opacity="1.00" d=" M 18.11 41.93 C 18.06 31.32 27.41 21.87 38.02 21.75 C 50.34 21.55 62.67 21.77 75.00 21.64 C 77.73 21.68 81.18 21.37 82.88 24.01 C 87.11 29.96 90.99 36.16 95.12 42.18 C 110.38 42.35 125.65 41.97 140.90 42.34 C 146.78 43.01 146.96 52.59 141.01 53.35 C 126.02 53.79 111.00 53.36 95.99 53.54 C 93.16 53.47 89.58 53.98 87.72 51.30 C 83.53 45.39 79.65 39.25 75.61 33.24 C 63.06 33.11 50.52 33.16 37.97 33.21 C 33.00 33.19 28.97 38.08 29.36 42.93 C 29.40 78.91 29.20 114.90 29.47 150.87 C 30.19 158.76 39.38 158.86 45.37 158.23 C 45.47 134.15 45.30 110.07 45.46 86.00 C 45.61 76.92 53.98 69.16 63.03 69.50 C 94.01 69.48 124.99 69.39 155.97 69.51 C 165.10 69.51 173.21 77.78 172.86 86.94 C 172.82 107.98 173.28 129.03 172.94 150.06 C 173.04 160.61 163.56 169.97 152.99 169.59 C 114.33 169.58 75.68 169.63 37.02 169.54 C 26.83 169.45 17.89 160.26 18.07 150.07 C 18.04 114.02 18.05 77.98 18.11 41.93 M 56.73 86.94 C 56.67 110.70 56.68 134.46 56.75 158.21 C 88.84 158.28 120.94 158.26 153.03 158.19 C 157.49 158.40 161.59 154.50 161.49 150.01 C 161.59 129.01 161.57 108.00 161.51 86.99 C 161.69 83.52 158.48 80.52 155.04 80.78 C 124.68 80.71 94.33 80.75 63.97 80.72 C 60.33 80.32 56.48 83.05 56.73 86.94 Z" />
<path fill="#96634c" opacity="1.00" d=" M 119.32 94.29 C 125.75 93.00 132.47 94.08 139.01 93.71 C 142.61 93.92 147.45 92.69 149.71 96.37 C 152.20 99.87 149.28 105.05 145.09 105.08 C 137.08 105.18 129.03 105.40 121.04 104.96 C 115.73 104.46 114.43 96.41 119.32 94.29 Z" />
</g>
</svg>
