<?xml version="1.0" encoding="UTF-8" ?>
<!DOCTYPE svg PUBLIC "-//W3C//DTD SVG 1.1//EN" "http://www.w3.org/Graphics/SVG/1.1/DTD/svg11.dtd">
<svg width="192pt" height="192pt" viewBox="0 0 192 192" version="1.1" xmlns="http://www.w3.org/2000/svg">
<g id="#f6b02bff">
<path fill="#f6b02b" opacity="1.00" d=" M 63.29 21.30 C 72.96 17.75 84.31 24.46 86.57 34.34 C 89.18 43.69 83.06 54.22 73.71 56.70 C 64.32 59.62 53.69 53.27 51.10 43.95 C 48.19 34.71 54.20 24.18 63.29 21.30 Z" />
<path fill="#f6b02b" opacity="1.00" d=" M 137.24 35.20 C 139.43 34.14 142.10 34.54 144.01 35.99 C 166.84 52.22 179.42 82.24 173.72 109.83 C 170.77 127.02 161.66 143.13 148.12 154.17 C 145.45 156.22 142.72 159.30 138.99 158.64 C 133.66 158.01 130.72 150.45 134.55 146.55 C 143.30 137.87 152.27 128.93 157.69 117.68 C 166.95 95.09 159.98 67.30 141.54 51.41 C 139.24 49.38 136.55 47.82 134.45 45.57 C 131.79 42.28 133.38 36.79 137.24 35.20 Z" />
<path fill="#f6b02b" opacity="1.00" d=" M 29.32 78.37 C 39.24 74.78 50.80 81.95 52.80 92.12 C 55.26 101.96 47.87 112.54 38.01 114.21 C 27.93 116.23 17.58 108.06 16.57 97.98 C 15.50 89.50 21.25 80.95 29.32 78.37 Z" />
<path fill="#f6b02b" opacity="1.00" d=" M 93.44 90.63 C 100.11 89.94 106.94 90.17 113.63 90.50 C 120.18 91.80 120.27 102.28 113.69 103.60 C 107.00 103.96 100.21 104.07 93.53 103.53 C 87.42 101.97 87.33 92.28 93.44 90.63 Z" />
<path fill="#f6b02b" opacity="1.00" d=" M 66.33 135.41 C 76.84 133.40 87.61 142.33 87.90 152.95 C 88.62 163.55 78.45 173.19 67.94 172.12 C 59.22 171.34 51.53 163.87 50.93 155.06 C 50.12 145.86 57.35 137.03 66.33 135.41 Z" />
</g>
</svg>
