<?xml version="1.0" encoding="UTF-8" ?>
<!DOCTYPE svg PUBLIC "-//W3C//DTD SVG 1.1//EN" "http://www.w3.org/Graphics/SVG/1.1/DTD/svg11.dtd">
<svg width="192pt" height="192pt" viewBox="0 0 192 192" version="1.1" xmlns="http://www.w3.org/2000/svg">
<g id="#9283bcff">
<path fill="#9283bc" opacity="1.00" d=" M 25.19 22.18 C 28.74 20.39 33.19 23.78 32.58 27.65 C 32.37 31.38 27.53 33.73 24.51 31.46 C 21.04 29.46 21.45 23.65 25.19 22.18 Z" />
<path fill="#9283bc" opacity="1.00" d=" M 162.23 22.24 C 165.54 20.46 170.01 23.24 169.83 27.00 C 170.06 30.76 165.52 33.71 162.22 31.79 C 158.32 30.11 158.33 23.90 162.23 22.24 Z" />
<path fill="#9283bc" opacity="1.00" d=" M 36.35 40.48 C 32.34 37.93 33.15 34.60 36.69 32.12 C 38.04 33.51 39.41 34.89 40.77 36.27 C 39.30 37.68 37.86 39.10 36.35 40.48 Z" />
<path fill="#9283bc" opacity="1.00" d=" M 155.13 32.15 C 156.49 33.60 157.89 35.00 159.32 36.38 C 157.99 37.78 156.61 39.12 155.26 40.50 C 153.89 39.06 152.51 37.63 151.12 36.21 C 152.46 34.86 153.80 33.51 155.13 32.15 Z" />
<path fill="#9283bc" opacity="1.00" d=" M 44.34 40.21 C 46.01 41.29 47.35 42.76 48.76 44.14 C 46.31 48.34 42.69 48.33 40.25 44.13 C 41.59 42.80 42.89 41.42 44.34 40.21 Z" />
<path fill="#9283bc" opacity="1.00" d=" M 147.28 40.16 C 148.87 41.30 150.26 42.70 151.63 44.09 C 150.27 45.52 148.90 46.95 147.54 48.38 C 146.05 46.98 144.60 45.55 143.14 44.13 C 144.49 42.78 145.80 41.38 147.28 40.16 Z" />
<path fill="#9283bc" opacity="1.00" d=" M 72.36 44.39 C 75.40 43.63 77.26 47.91 74.78 49.75 C 66.50 58.15 58.18 66.55 49.71 74.77 C 47.15 77.81 42.40 73.20 45.61 70.62 C 54.47 61.85 62.90 52.44 72.36 44.39 Z" />
<path fill="#9283bc" opacity="1.00" d=" M 117.44 44.51 C 119.71 43.36 121.42 45.77 122.92 47.08 C 130.64 55.01 138.68 62.64 146.32 70.64 C 149.25 73.21 144.85 77.58 142.27 74.83 C 133.89 66.85 125.86 58.48 117.64 50.34 C 115.77 48.89 114.85 45.74 117.44 44.51 Z" />
<path fill="#9283bc" opacity="1.00" d=" M 52.31 47.91 C 53.77 49.29 55.21 50.68 56.66 52.07 C 54.22 56.30 50.64 56.34 48.21 52.07 C 49.58 50.69 50.95 49.30 52.31 47.91 Z" />
<path fill="#9283bc" opacity="1.00" d=" M 139.36 47.89 C 140.84 49.26 142.30 50.65 143.76 52.04 C 141.32 56.30 137.70 56.36 135.27 52.08 C 136.63 50.68 138.00 49.29 139.36 47.89 Z" />
<path fill="#9283bc" opacity="1.00" d=" M 62.78 69.13 C 65.04 66.87 67.30 64.61 69.61 62.40 C 78.36 71.21 87.15 79.97 95.95 88.73 C 104.76 79.98 113.52 71.19 122.29 62.40 C 124.60 64.64 126.88 66.91 129.15 69.18 C 120.71 78.24 111.29 86.45 103.15 95.74 C 124.77 117.82 146.84 139.46 168.63 161.38 C 170.66 163.39 170.25 167.00 169.31 169.40 C 166.81 169.58 163.66 170.38 161.71 168.34 C 139.75 146.46 117.93 124.44 95.93 102.61 C 73.52 124.85 51.22 147.21 28.93 169.57 C 26.65 169.52 24.38 169.46 22.10 169.33 C 22.36 166.71 21.11 163.38 23.35 161.37 C 45.25 139.48 67.13 117.57 89.03 95.69 C 80.37 86.75 71.31 78.20 62.78 69.13 Z" />
</g>
</svg>
