<?xml version="1.0" encoding="UTF-8" ?>
<!DOCTYPE svg PUBLIC "-//W3C//DTD SVG 1.1//EN" "http://www.w3.org/Graphics/SVG/1.1/DTD/svg11.dtd">
<svg width="192pt" height="192pt" viewBox="0 0 192 192" version="1.1" xmlns="http://www.w3.org/2000/svg">
<g id="#0cb2ffff">
<path fill="#0cb2ff" opacity="1.00" d=" M 39.31 21.37 C 75.12 19.88 111.11 21.07 146.99 20.73 C 159.15 20.32 170.37 30.78 170.75 42.94 C 170.91 77.98 170.90 113.01 170.78 148.06 C 170.51 159.98 159.86 170.40 147.96 170.51 C 113.32 170.64 78.69 170.62 44.05 170.50 C 30.02 170.53 19.13 156.60 21.04 142.99 C 21.08 109.97 21.00 76.94 21.12 43.92 C 21.07 33.40 29.07 23.61 39.31 21.37 M 32.34 43.93 C 32.25 59.35 32.32 74.78 32.31 90.21 C 36.03 90.25 39.76 90.27 43.48 90.20 C 39.71 83.44 37.54 74.86 41.84 67.79 C 47.12 57.57 62.06 54.62 70.75 62.21 C 79.40 68.95 79.41 81.50 73.87 90.21 C 79.31 90.28 84.76 90.27 90.21 90.24 C 90.61 82.09 89.45 73.77 90.79 65.74 C 94.68 59.79 103.29 63.27 108.57 65.47 C 113.24 68.77 120.68 66.86 122.22 61.09 C 124.33 54.95 117.60 48.19 111.47 50.66 C 106.35 52.99 100.90 55.20 95.14 54.68 C 92.35 54.48 90.17 51.76 90.26 49.02 C 90.08 43.31 90.29 37.59 90.17 31.88 C 75.10 31.88 60.02 31.76 44.95 31.92 C 38.43 31.74 32.28 37.31 32.34 43.93 M 101.17 31.86 C 100.89 35.71 100.82 39.57 101.10 43.42 C 105.78 41.30 110.66 38.78 115.98 39.54 C 126.01 40.30 134.20 50.02 133.24 60.04 C 132.83 69.83 123.72 78.07 114.00 77.83 C 109.28 78.11 105.15 75.56 100.94 73.86 C 100.87 79.32 100.89 84.78 100.91 90.24 C 108.28 90.35 115.65 90.16 123.02 90.32 C 125.74 90.22 128.35 92.44 128.56 95.17 C 129.15 100.91 126.86 106.31 124.54 111.40 C 122.25 117.13 127.98 123.87 134.01 122.46 C 139.94 121.61 142.99 114.24 139.68 109.33 C 137.36 103.85 133.49 94.85 139.72 90.77 C 146.27 89.56 153.06 90.77 159.69 90.14 C 159.49 74.77 159.76 59.40 159.57 44.03 C 159.55 37.47 153.59 31.80 147.06 31.96 C 131.76 31.77 116.46 31.93 101.17 31.86 M 51.72 82.27 C 53.92 87.61 57.30 95.68 52.08 100.15 C 45.75 102.16 38.85 100.65 32.29 101.10 C 32.34 116.42 32.26 131.75 32.33 147.06 C 32.18 153.75 38.37 159.52 44.98 159.25 C 60.07 159.28 75.15 159.26 90.23 159.23 C 90.26 155.40 90.26 151.57 90.19 147.74 C 85.94 149.48 81.77 152.04 76.99 151.71 C 66.56 152.05 57.33 142.35 57.94 131.97 C 57.88 121.93 67.08 113.29 76.99 113.35 C 81.75 113.09 85.94 115.63 90.20 117.34 C 90.27 111.89 90.23 106.44 90.21 100.99 C 82.80 100.49 75.37 101.51 67.97 100.94 C 65.29 100.87 62.82 98.71 62.59 96.00 C 62.04 90.24 64.36 84.81 66.67 79.69 C 69.08 73.61 62.25 66.68 56.13 69.06 C 50.58 70.56 48.56 77.69 51.72 82.27 M 101.10 100.88 C 100.29 109.01 101.73 117.32 100.31 125.34 C 96.09 131.60 87.17 127.74 81.64 125.32 C 76.17 121.71 67.96 126.42 68.62 133.01 C 68.74 139.29 76.52 143.27 81.73 139.75 C 87.24 137.40 96.02 133.54 100.31 139.61 C 101.59 146.01 100.51 152.71 100.88 159.22 C 116.26 159.26 131.65 159.26 147.03 159.21 C 153.66 159.47 159.63 153.58 159.57 146.97 C 159.65 131.61 159.66 116.25 159.56 100.89 C 155.63 100.85 151.70 100.83 147.77 100.90 C 150.09 106.26 152.94 111.93 151.32 117.95 C 149.14 130.85 132.62 137.78 121.95 130.12 C 111.90 123.96 111.50 110.15 117.31 100.90 C 111.91 100.85 106.50 100.89 101.10 100.88 Z" />
</g>
</svg>
