<?xml version="1.0" encoding="UTF-8" ?>
<!DOCTYPE svg PUBLIC "-//W3C//DTD SVG 1.1//EN" "http://www.w3.org/Graphics/SVG/1.1/DTD/svg11.dtd">
<svg width="192pt" height="192pt" viewBox="0 0 192 192" version="1.1" xmlns="http://www.w3.org/2000/svg">
<g id="#1bb4ffff">
<path fill="#1bb4ff" opacity="1.00" d=" M 55.33 29.28 C 85.75 9.91 127.78 16.12 154.20 39.64 C 154.48 33.63 153.73 27.55 154.58 21.60 C 156.06 16.26 164.71 16.66 165.63 22.14 C 166.13 33.10 165.75 44.11 165.83 55.09 C 166.23 58.86 162.66 61.82 159.03 61.37 C 148.35 61.24 137.65 61.61 126.99 61.18 C 121.39 60.38 120.64 51.64 126.13 50.07 C 133.37 49.13 140.75 49.94 148.05 49.62 C 127.06 30.43 94.64 23.09 68.39 35.42 C 64.42 36.88 60.85 40.94 56.31 39.63 C 51.95 38.21 51.16 31.46 55.33 29.28 Z" />
<path fill="#1bb4ff" opacity="1.00" d=" M 39.34 38.48 C 45.64 36.12 52.78 42.21 51.51 48.79 C 50.83 55.71 41.56 59.23 36.39 54.64 C 30.69 50.46 32.48 40.36 39.34 38.48 Z" />
<path fill="#1bb4ff" opacity="1.00" d=" M 30.41 58.45 C 35.14 57.52 38.90 63.31 36.26 67.32 C 28.93 82.88 28.19 101.16 33.50 117.45 C 35.75 123.50 25.88 127.72 23.19 121.79 C 15.82 102.86 17.11 80.97 25.62 62.63 C 26.46 60.59 28.07 58.66 30.41 58.45 Z" />
<path fill="#1bb4ff" opacity="1.00" d=" M 92.37 73.44 C 106.81 70.42 121.15 84.48 118.39 98.98 C 116.94 110.50 105.45 119.46 93.93 118.03 C 83.23 117.18 74.15 107.70 73.70 96.99 C 72.78 85.88 81.36 75.08 92.37 73.44 Z" />
<path fill="#1bb4ff" opacity="1.00" d=" M 165.38 90.36 C 168.78 88.33 173.65 91.01 173.75 94.97 C 173.97 103.40 172.68 111.94 169.92 119.91 C 168.24 125.21 159.87 124.21 158.87 118.95 C 158.76 114.33 161.07 109.98 161.47 105.37 C 162.85 100.46 160.28 93.55 165.38 90.36 Z" />
<path fill="#1bb4ff" opacity="1.00" d=" M 152.32 125.37 C 158.15 122.62 165.59 127.58 165.31 134.00 C 165.68 141.04 156.79 146.12 150.98 141.98 C 144.63 138.41 145.44 127.85 152.32 125.37 Z" />
<path fill="#1bb4ff" opacity="1.00" d=" M 33.27 129.24 C 39.36 126.84 46.46 132.49 45.62 138.94 C 45.37 146.06 35.89 150.21 30.52 145.45 C 24.70 141.30 26.41 131.24 33.27 129.24 Z" />
<path fill="#1bb4ff" opacity="1.00" d=" M 143.30 142.30 C 147.31 140.88 152.68 145.78 151.30 149.94 C 125.51 178.36 77.04 181.24 48.07 156.01 C 45.41 153.02 47.63 148.12 51.31 147.31 C 54.22 146.42 56.54 148.79 58.77 150.23 C 80.26 165.37 110.91 165.31 132.62 150.65 C 136.51 148.29 139.59 144.88 143.30 142.30 Z" />
</g>
</svg>
