<?xml version="1.0" encoding="UTF-8" ?>
<!DOCTYPE svg PUBLIC "-//W3C//DTD SVG 1.1//EN" "http://www.w3.org/Graphics/SVG/1.1/DTD/svg11.dtd">
<svg width="192pt" height="192pt" viewBox="0 0 192 192" version="1.1" xmlns="http://www.w3.org/2000/svg">
<g id="#ff3661ff">
<path fill="#ff3661" opacity="1.00" d=" M 85.49 16.69 C 91.74 16.07 98.14 15.58 104.36 16.63 C 108.39 17.44 109.63 23.02 106.74 25.74 C 104.44 28.08 100.92 27.07 98.01 27.17 C 84.45 26.42 70.80 30.17 59.28 37.30 C 56.78 38.88 53.28 40.82 50.67 38.33 C 47.48 35.85 48.61 30.80 51.88 28.93 C 61.89 22.26 73.54 18.09 85.49 16.69 Z" />
<path fill="#ff3661" opacity="1.00" d=" M 92.41 35.49 C 95.69 33.80 99.55 34.83 103.05 35.02 C 131.08 37.88 154.96 62.87 156.36 91.05 C 156.78 114.01 152.94 137.42 143.34 158.38 C 140.54 163.98 131.37 159.94 133.59 154.04 C 141.07 135.31 145.70 115.26 145.46 95.01 C 145.35 82.30 139.90 69.94 131.37 60.63 C 122.10 50.66 108.40 45.84 95.02 45.29 C 90.02 45.41 88.22 37.90 92.41 35.49 Z" />
<path fill="#ff3661" opacity="1.00" d=" M 41.25 38.15 C 46.33 35.65 51.03 43.30 46.89 46.94 C 35.31 59.03 27.72 75.13 27.10 91.97 C 26.76 94.88 27.30 98.62 24.49 100.49 C 21.24 103.08 15.84 100.21 16.14 96.05 C 15.97 74.58 24.38 51.89 41.25 38.15 Z" />
<path fill="#ff3661" opacity="1.00" d=" M 145.35 38.31 C 147.65 36.95 150.46 37.97 152.12 39.83 C 166.77 54.46 175.24 75.21 174.75 95.91 C 174.85 100.26 169.32 102.27 166.09 99.90 C 163.63 98.04 164.11 94.62 163.82 91.92 C 163.07 75.39 155.82 59.48 144.47 47.53 C 141.59 45.05 141.77 40.03 145.35 38.31 Z" />
<path fill="#ff3661" opacity="1.00" d=" M 90.39 53.45 C 102.36 52.07 115.09 55.74 123.96 64.05 C 135.26 74.87 140.58 91.81 137.19 107.11 C 136.17 111.76 128.84 112.18 127.20 107.78 C 126.07 104.30 126.89 100.58 126.82 97.01 C 127.46 82.69 117.50 68.41 103.65 64.50 C 98.13 62.81 92.52 64.78 86.97 65.09 C 83.10 64.98 80.91 60.08 82.96 56.97 C 84.65 54.62 87.71 53.96 90.39 53.45 Z" />
<path fill="#ff3661" opacity="1.00" d=" M 71.46 60.49 C 75.81 56.97 82.61 62.78 79.37 67.47 C 74.93 72.33 69.09 76.24 66.66 82.67 C 62.79 90.83 64.68 100.10 62.58 108.66 C 59.78 122.76 51.59 135.53 40.47 144.54 C 37.56 147.15 31.93 145.80 31.51 141.58 C 30.71 138.74 32.91 136.50 34.87 134.84 C 43.75 127.20 50.07 116.55 52.09 104.98 C 53.34 98.73 52.55 92.27 54.04 86.06 C 56.18 75.69 62.67 66.35 71.46 60.49 Z" />
<path fill="#ff3661" opacity="1.00" d=" M 44.28 64.22 C 48.20 61.96 53.51 66.44 51.67 70.69 C 48.34 78.38 45.30 86.44 45.40 94.96 C 45.70 107.63 40.11 120.28 30.42 128.46 C 26.73 131.60 20.61 127.73 21.82 123.02 C 23.46 118.68 27.98 116.18 29.95 111.96 C 36.63 102.04 33.05 89.61 36.79 78.80 C 38.61 73.73 39.68 67.56 44.28 64.22 Z" />
<path fill="#ff3661" opacity="1.00" d=" M 89.28 72.28 C 100.61 69.10 113.00 75.99 117.48 86.59 C 120.28 92.68 119.60 99.57 119.02 106.04 C 116.80 130.45 107.28 154.53 90.96 172.92 C 86.62 177.79 78.64 170.95 82.91 165.94 C 98.85 146.35 108.72 121.43 108.31 96.00 C 108.58 90.19 104.18 84.97 98.85 83.18 C 92.64 81.04 85.03 84.82 83.19 91.17 C 82.33 94.36 82.44 97.70 82.13 100.97 C 81.06 122.98 70.12 144.27 53.14 158.22 C 48.03 162.37 41.11 154.41 46.08 150.09 C 61.59 136.64 71.54 116.68 71.39 96.00 C 71.17 85.23 78.59 74.65 89.28 72.28 Z" />
<path fill="#ff3661" opacity="1.00" d=" M 127.39 115.43 C 131.76 112.60 136.61 117.40 135.36 121.98 C 132.19 139.55 125.35 156.57 115.40 171.40 C 111.77 176.61 103.06 170.71 106.49 165.38 C 114.38 152.23 120.90 138.10 123.94 122.99 C 124.62 120.34 124.75 116.97 127.39 115.43 Z" />
</g>
</svg>
