<?xml version="1.0" encoding="UTF-8" ?>
<!DOCTYPE svg PUBLIC "-//W3C//DTD SVG 1.1//EN" "http://www.w3.org/Graphics/SVG/1.1/DTD/svg11.dtd">
<svg width="192pt" height="192pt" viewBox="0 0 192 192" version="1.1" xmlns="http://www.w3.org/2000/svg">
<g id="#c420d2ff">
<path fill="#c420d2" opacity="1.00" d=" M 131.09 31.86 C 130.56 29.27 128.81 25.94 131.90 24.31 C 145.35 32.20 154.41 46.46 156.59 61.82 C 158.27 57.28 159.46 52.56 161.28 48.06 C 162.39 48.37 163.72 48.49 164.12 49.79 C 181.64 81.18 172.29 123.41 146.23 147.24 C 121.47 169.95 81.87 171.15 53.53 154.57 C 28.46 140.05 12.71 108.82 20.14 80.17 C 21.12 74.67 24.68 69.25 22.50 63.62 C 18.53 49.17 29.29 32.87 44.07 30.77 C 45.30 34.71 44.65 38.88 44.78 42.94 C 49.02 41.57 54.59 43.59 57.64 39.64 C 63.14 34.14 72.31 30.56 79.72 33.32 C 80.71 40.78 75.12 48.55 76.70 56.32 C 79.23 62.32 87.19 59.56 91.17 63.81 C 97.78 69.30 95.00 81.65 86.42 83.44 C 81.80 85.81 73.23 84.64 72.76 91.49 C 79.15 90.82 84.80 87.57 90.96 86.08 C 98.64 84.48 105.87 92.45 103.99 99.94 C 102.47 106.70 95.35 109.53 90.19 113.07 C 97.82 115.04 106.85 114.60 112.73 108.75 C 121.96 99.76 122.51 85.73 121.34 73.70 C 120.66 66.42 115.82 60.60 113.76 53.78 C 120.94 53.62 128.06 56.06 134.13 59.80 C 134.65 50.39 133.45 40.96 131.09 31.86 M 60.44 54.82 C 53.29 50.19 44.46 53.54 38.64 58.72 C 36.63 56.61 36.41 51.62 33.50 51.26 C 29.35 58.56 37.15 66.08 33.07 73.13 C 24.62 94.59 30.22 121.03 47.36 136.65 C 70.50 158.49 109.01 161.47 135.00 143.02 C 155.54 128.00 164.51 101.01 162.00 76.27 C 158.55 80.71 154.67 84.84 150.24 88.31 C 149.28 89.17 147.95 88.24 146.86 88.21 C 146.37 79.14 147.10 69.96 145.34 60.99 C 143.28 68.21 142.69 75.87 139.52 82.79 C 134.47 83.26 134.51 76.50 132.19 73.35 C 133.31 89.17 131.45 107.61 118.25 118.30 C 102.70 130.39 79.35 124.69 66.78 110.92 C 66.82 110.48 66.90 109.60 66.94 109.16 C 76.47 106.45 86.97 104.62 94.15 97.08 C 83.88 98.59 73.17 104.85 62.80 102.18 C 62.05 94.84 61.01 85.57 66.87 79.85 C 71.77 75.06 79.34 75.74 84.86 72.09 C 79.66 70.96 73.96 69.98 70.36 65.62 C 64.97 60.51 64.83 52.46 66.57 45.71 C 63.77 48.18 61.86 51.41 60.44 54.82 Z" />
</g>
</svg>
