<?xml version="1.0" encoding="UTF-8" ?>
<!DOCTYPE svg PUBLIC "-//W3C//DTD SVG 1.1//EN" "http://www.w3.org/Graphics/SVG/1.1/DTD/svg11.dtd">
<svg width="192pt" height="192pt" viewBox="0 0 192 192" version="1.1" xmlns="http://www.w3.org/2000/svg">
<g id="#ff613cff">
<path fill="#ff613c" opacity="1.00" d=" M 57.77 22.71 C 59.66 16.45 68.05 13.55 73.19 17.77 C 81.71 25.70 85.49 38.08 83.09 49.46 C 91.78 53.11 90.33 63.70 91.47 71.32 C 105.36 64.35 120.49 60.54 135.37 56.36 C 143.07 54.28 150.30 50.58 156.22 45.21 C 161.85 39.94 172.35 44.31 172.56 52.01 C 172.50 63.76 169.37 75.79 162.16 85.25 C 164.98 101.24 159.14 120.08 143.58 127.34 C 143.21 129.77 142.92 132.31 141.60 134.45 C 134.09 146.74 122.14 156.83 107.85 159.97 C 87.28 163.51 64.84 160.74 46.33 172.33 C 39.87 177.70 28.96 172.58 30.03 163.97 C 32.37 154.10 35.26 144.22 40.15 135.26 C 48.31 115.85 59.87 97.72 75.09 83.07 C 80.14 78.47 80.94 71.13 79.53 64.79 C 73.54 69.23 68.34 76.06 59.92 76.01 C 63.69 67.18 68.10 58.62 71.46 49.62 C 74.02 42.83 71.27 35.48 67.21 29.92 C 61.13 44.38 52.10 57.27 43.19 70.08 C 37.93 78.20 31.90 86.35 30.30 96.12 C 28.32 107.32 31.77 118.47 35.23 129.01 C 36.51 134.22 28.13 136.78 26.20 131.79 C 19.46 115.41 15.77 95.75 24.20 79.27 C 34.60 59.95 49.52 43.22 57.77 22.71 M 106.34 78.34 C 90.07 84.36 75.17 94.94 65.71 109.65 C 54.78 126.24 46.11 144.66 41.46 163.97 C 58.49 154.69 78.01 153.24 96.99 152.48 C 110.83 152.07 122.90 143.66 130.41 132.44 C 123.72 131.85 116.78 133.52 110.27 131.62 C 109.57 129.94 111.50 129.31 112.65 128.69 C 121.93 124.93 131.92 122.71 140.67 117.72 C 148.86 112.93 151.94 102.86 151.28 93.84 C 142.63 100.68 131.15 104.84 120.15 101.94 C 120.18 101.34 120.24 100.15 120.27 99.55 C 129.41 95.06 138.52 90.46 147.29 85.28 C 156.57 79.35 160.28 67.96 160.82 57.46 C 145.02 69.66 124.37 71.06 106.34 78.34 Z" />
</g>
</svg>
