<?xml version="1.0" encoding="UTF-8" ?>
<!DOCTYPE svg PUBLIC "-//W3C//DTD SVG 1.1//EN" "http://www.w3.org/Graphics/SVG/1.1/DTD/svg11.dtd">
<svg width="192pt" height="192pt" viewBox="0 0 192 192" version="1.1" xmlns="http://www.w3.org/2000/svg">
<g id="#ff613cff">
<path fill="#ff613c" opacity="1.00" d=" M 85.40 13.49 C 99.89 11.39 115.21 13.81 128.01 21.04 C 131.30 22.72 131.75 27.66 128.76 29.86 C 125.82 32.11 122.19 29.94 119.35 28.63 C 100.88 19.77 77.70 21.98 61.34 34.34 C 58.68 36.15 55.71 39.47 52.20 37.88 C 48.65 36.44 47.89 31.29 50.92 28.92 C 60.56 20.56 72.80 15.33 85.40 13.49 Z" />
<path fill="#ff613c" opacity="1.00" d=" M 95.98 39.93 C 96.13 35.94 98.12 31.44 102.10 30.03 C 105.47 29.06 107.71 32.43 110.58 33.47 C 117.11 35.93 124.25 34.83 131.03 35.94 C 148.30 39.12 163.93 51.25 170.15 67.86 C 176.81 85.86 177.66 106.43 170.54 124.44 C 159.62 150.84 134.95 172.58 106.04 175.95 C 86.74 178.14 66.38 173.90 50.41 162.60 C 29.96 148.16 15.85 124.32 15.27 99.04 C 14.90 77.57 18.76 56.05 25.90 35.84 C 26.71 32.22 31.35 30.24 34.30 32.71 C 37.51 36.09 39.26 40.54 41.94 44.31 C 47.48 44.38 53.70 45.16 58.26 41.29 C 65.39 35.69 75.18 35.40 83.64 37.52 C 87.32 38.52 88.35 44.02 85.42 46.40 C 81.55 49.66 76.58 52.82 76.29 58.46 C 82.50 59.00 88.75 58.16 94.94 58.86 C 98.96 59.67 100.40 65.58 97.10 68.09 C 92.35 72.27 87.28 76.07 82.35 80.03 C 84.55 82.37 87.03 84.46 88.98 87.02 C 90.94 89.79 89.25 94.20 85.92 94.92 C 81.74 95.65 77.46 95.03 73.25 95.31 C 81.17 106.47 97.00 101.70 108.02 98.73 C 113.62 96.66 117.54 105.69 112.10 108.22 C 101.58 112.82 89.42 114.29 78.15 111.94 C 67.56 109.78 60.49 98.74 61.35 88.30 C 62.41 84.00 67.48 84.25 70.97 84.37 C 65.15 77.89 73.99 73.04 78.42 69.37 C 75.20 69.44 71.23 69.92 69.08 66.92 C 64.32 61.46 65.52 53.46 68.99 47.66 C 64.72 48.68 62.11 52.29 58.66 54.58 C 52.52 55.75 46.15 54.93 39.92 55.12 C 36.43 55.40 34.24 52.45 32.51 49.90 C 25.69 76.80 20.50 107.93 36.10 132.85 C 46.91 150.73 66.27 163.03 87.03 165.33 C 109.05 168.13 132.30 159.73 147.00 143.01 C 163.93 124.11 170.36 95.54 160.10 71.86 C 155.82 60.72 146.65 51.28 135.00 48.05 C 125.88 45.22 116.06 46.85 106.93 43.96 C 110.91 57.36 125.88 61.84 137.91 65.10 C 145.23 67.02 147.27 75.33 146.28 81.96 C 146.02 102.93 133.73 124.07 113.79 131.90 C 93.12 140.75 67.26 132.83 54.59 114.43 C 52.14 111.07 54.88 105.93 59.01 106.08 C 62.89 106.40 64.67 110.40 67.18 112.82 C 80.97 128.16 107.67 128.92 122.16 114.17 C 132.57 104.44 135.93 89.55 135.64 75.77 C 125.75 72.54 115.26 69.81 107.24 62.78 C 100.30 57.41 95.56 48.82 95.98 39.93 Z" />
</g>
</svg>
