<?xml version="1.0" encoding="UTF-8" ?>
<!DOCTYPE svg PUBLIC "-//W3C//DTD SVG 1.1//EN" "http://www.w3.org/Graphics/SVG/1.1/DTD/svg11.dtd">
<svg width="192pt" height="192pt" viewBox="0 0 192 192" version="1.1" xmlns="http://www.w3.org/2000/svg">
<g id="#ff8b1fff">
<path fill="#ff8b1f" opacity="1.00" d=" M 117.62 10.66 C 119.90 9.14 123.43 9.64 124.77 12.17 C 131.65 25.40 144.36 33.97 154.00 44.99 C 164.11 55.77 171.78 69.22 173.99 83.97 C 178.96 115.37 163.00 148.60 135.73 164.79 C 108.29 182.02 70.51 179.98 45.07 159.92 C 18.88 140.41 6.88 104.33 16.05 73.00 C 20.51 57.60 30.29 43.25 44.31 35.13 C 47.56 32.96 49.91 37.10 52.16 38.83 C 52.28 41.71 52.46 44.60 52.79 47.47 C 57.01 44.30 60.96 40.49 66.05 38.75 C 69.26 37.66 73.01 40.65 72.52 44.05 C 71.99 49.46 71.59 55.09 74.14 60.11 C 79.51 57.61 85.15 55.71 91.06 55.04 C 91.62 46.95 92.48 38.60 96.25 31.28 C 100.87 22.28 109.02 15.66 117.62 10.66 M 101.56 56.03 C 112.39 58.62 122.55 64.97 128.34 74.65 C 136.64 87.66 135.86 105.47 127.01 118.02 C 118.42 130.73 102.20 137.71 87.07 134.88 C 70.03 132.27 55.23 117.47 54.18 100.02 C 53.68 94.51 57.34 89.39 62.24 87.18 C 69.65 83.44 78.14 84.42 86.08 83.05 C 80.76 78.90 74.13 76.57 69.49 71.51 C 64.86 67.00 63.09 60.62 61.54 54.56 C 57.18 57.52 54.63 65.24 48.37 63.61 C 43.56 61.06 44.13 54.54 42.43 50.04 C 17.51 71.76 18.56 112.95 37.91 138.01 C 56.78 164.02 94.46 173.37 123.34 159.35 C 154.75 145.42 172.75 106.12 160.38 73.61 C 152.34 52.40 131.16 41.01 118.75 22.90 C 106.86 29.50 101.12 42.79 101.56 56.03 M 83.24 67.24 C 87.70 71.57 93.97 73.33 98.50 77.51 C 101.64 82.47 96.57 87.12 93.15 90.21 C 85.81 98.52 71.92 90.78 64.67 98.91 C 65.66 116.82 85.99 129.16 102.62 123.50 C 119.28 118.97 128.38 98.49 121.03 82.96 C 115.16 68.74 97.47 61.52 83.24 67.24 Z" />
</g>
</svg>
