<?xml version="1.0" encoding="UTF-8" ?>
<!DOCTYPE svg PUBLIC "-//W3C//DTD SVG 1.1//EN" "http://www.w3.org/Graphics/SVG/1.1/DTD/svg11.dtd">
<svg width="192pt" height="192pt" viewBox="0 0 192 192" version="1.1" xmlns="http://www.w3.org/2000/svg">
<g id="#44e372ff">
<path fill="#44e372" opacity="1.00" d=" M 38.31 19.37 C 41.81 18.57 45.43 18.73 49.00 18.72 C 81.34 18.78 113.68 18.67 146.01 18.77 C 157.84 18.73 168.47 29.12 168.75 40.94 C 168.75 48.24 169.06 55.57 168.60 62.86 C 167.69 68.30 159.02 68.34 157.95 62.94 C 157.15 55.38 158.18 47.74 157.47 40.18 C 156.68 34.27 150.95 29.75 145.06 29.87 C 111.70 29.78 78.33 29.85 44.96 29.82 C 38.69 29.38 32.41 34.06 31.65 40.40 C 31.04 47.90 31.97 55.47 31.24 62.96 C 30.14 68.36 21.28 68.12 20.54 62.64 C 20.08 55.76 20.44 48.83 20.37 41.92 C 20.28 31.47 28.12 21.65 38.31 19.37 Z" />
<path fill="#44e372" opacity="1.00" d=" M 23.63 84.59 C 23.00 75.78 32.07 71.61 39.67 73.04 C 39.72 75.47 39.73 77.89 39.76 80.31 C 36.76 80.24 33.41 80.86 32.99 84.47 C 40.13 84.85 47.27 84.59 54.41 84.65 C 54.52 91.71 54.51 98.77 54.45 105.83 C 55.64 106.03 56.83 106.23 58.02 106.43 C 58.05 108.66 58.08 110.88 58.11 113.11 C 52.57 113.16 47.02 113.19 41.48 113.01 C 41.44 110.77 41.40 108.52 41.36 106.27 C 42.57 106.23 43.78 106.19 44.99 106.15 C 45.03 101.30 45.02 96.46 44.85 91.61 C 41.10 91.54 37.34 91.53 33.58 91.56 C 33.59 96.32 33.60 101.09 33.56 105.86 C 34.86 106.00 36.17 106.14 37.47 106.28 C 37.46 108.56 37.47 110.84 37.48 113.12 C 31.81 113.14 26.14 113.17 20.47 113.05 C 20.47 110.82 20.46 108.59 20.44 106.36 C 21.60 106.26 22.76 106.16 23.91 106.06 C 23.99 101.22 23.95 96.39 23.87 91.55 C 22.58 91.52 21.30 91.49 20.02 91.46 C 20.05 89.26 20.06 87.06 20.05 84.87 C 21.24 84.78 22.44 84.68 23.63 84.59 Z" />
<path fill="#44e372" opacity="1.00" d=" M 47.32 73.17 C 52.34 69.80 57.26 78.31 51.97 81.03 C 47.11 84.11 42.38 76.01 47.32 73.17 Z" />
<path fill="#44e372" opacity="1.00" d=" M 93.80 88.84 C 99.35 82.17 111.41 82.37 116.24 89.78 C 118.44 92.95 118.34 96.94 118.18 100.63 C 112.07 100.70 105.95 100.61 99.83 100.74 C 102.02 107.67 109.85 106.07 114.82 103.53 C 115.93 105.68 117.04 107.84 118.15 109.99 C 112.07 113.86 103.85 115.53 97.40 111.55 C 89.51 107.21 88.00 95.48 93.80 88.84 M 100.07 95.22 C 102.94 95.32 105.82 95.32 108.69 95.23 C 107.94 89.87 101.24 90.38 100.07 95.22 Z" />
<path fill="#44e372" opacity="1.00" d=" M 133.64 90.05 C 135.72 86.51 139.25 84.03 143.45 84.03 C 143.52 87.13 143.58 90.23 143.55 93.33 C 135.90 92.17 132.55 99.63 133.81 106.10 C 135.06 106.16 136.32 106.22 137.58 106.28 C 137.57 108.56 137.58 110.84 137.58 113.12 C 131.91 113.15 126.24 113.17 120.57 113.05 C 120.57 110.79 120.57 108.54 120.56 106.28 C 121.80 106.22 123.04 106.17 124.28 106.11 C 124.28 101.35 124.31 96.60 124.22 91.85 C 122.99 91.65 121.77 91.46 120.54 91.27 C 120.58 89.09 120.59 86.92 120.59 84.75 C 125.33 85.14 134.16 82.44 133.64 90.05 Z" />
<path fill="#44e372" opacity="1.00" d=" M 158.93 89.93 C 161.04 86.43 164.54 84.18 168.64 83.93 C 168.75 87.06 168.85 90.20 168.83 93.34 C 161.30 92.16 157.80 99.43 159.10 105.87 C 160.30 106.04 161.50 106.21 162.71 106.38 C 162.69 108.62 162.67 110.86 162.66 113.11 C 157.04 113.14 151.41 113.24 145.80 112.91 C 145.81 110.69 145.82 108.47 145.82 106.26 C 147.05 106.20 148.29 106.16 149.53 106.11 C 148.33 101.31 152.84 91.85 145.77 91.07 C 145.79 88.96 145.80 86.85 145.80 84.74 C 150.47 85.22 159.41 82.39 158.93 89.93 Z" />
<path fill="#44e372" opacity="1.00" d=" M 57.04 84.80 C 61.99 84.80 66.94 84.80 71.88 84.79 C 71.86 86.80 71.88 88.81 71.94 90.82 C 71.42 91.17 70.37 91.88 69.85 92.24 C 71.06 96.48 72.32 100.71 73.64 104.92 C 74.95 100.72 76.20 96.50 77.51 92.29 C 76.96 91.87 75.87 91.02 75.32 90.60 C 75.40 88.67 75.43 86.73 75.42 84.80 C 80.35 84.80 85.28 84.80 90.21 84.80 C 90.21 86.80 90.23 88.81 90.26 90.82 C 86.12 91.60 85.56 96.02 84.29 99.32 C 82.68 103.97 80.99 108.59 79.17 113.17 C 75.53 113.09 71.85 113.44 68.24 112.88 C 64.95 106.08 63.10 98.67 60.14 91.72 C 59.06 91.57 57.98 91.43 56.90 91.28 C 56.96 89.12 57.01 86.96 57.04 84.80 Z" />
<path fill="#44e372" opacity="1.00" d=" M 25.32 119.42 C 28.09 119.08 31.01 121.17 31.31 124.00 C 31.89 131.25 31.08 138.54 31.66 145.78 C 32.31 151.75 37.97 156.56 43.97 156.32 C 77.65 156.34 111.34 156.33 145.03 156.31 C 151.06 156.63 156.82 151.84 157.50 145.83 C 158.18 138.29 157.07 130.65 158.02 123.14 C 159.33 118.11 167.40 118.26 168.55 123.32 C 169.15 130.53 168.71 137.81 168.77 145.05 C 168.64 157.01 157.94 167.52 145.99 167.52 C 112.00 167.60 78.00 167.54 44.01 167.54 C 32.10 167.90 21.12 157.86 20.45 145.97 C 20.24 138.98 20.30 131.98 20.40 125.00 C 20.26 122.20 22.53 119.62 25.32 119.42 Z" />
</g>
</svg>
