<?xml version="1.0" encoding="UTF-8" ?>
<!DOCTYPE svg PUBLIC "-//W3C//DTD SVG 1.1//EN" "http://www.w3.org/Graphics/SVG/1.1/DTD/svg11.dtd">
<svg width="192pt" height="192pt" viewBox="0 0 192 192" version="1.1" xmlns="http://www.w3.org/2000/svg">
<g id="#f6ac28ff">
<path fill="#f6ac28" opacity="1.00" d=" M 42.28 16.22 C 77.04 15.14 112.13 15.98 147.02 15.79 C 153.26 16.79 151.76 24.45 151.85 29.00 C 151.09 35.29 154.02 42.94 148.97 47.97 C 141.85 56.17 134.66 64.32 127.53 72.52 C 126.30 73.66 126.33 75.40 126.31 76.95 C 126.31 107.30 126.35 137.64 126.38 167.99 C 126.70 171.27 124.89 175.73 121.02 175.54 C 104.01 175.58 87.00 175.56 70.00 175.54 C 66.08 175.78 64.23 171.30 64.52 167.98 C 64.61 137.97 64.57 107.96 64.56 77.96 C 64.46 76.16 64.79 74.04 63.38 72.64 C 56.27 64.42 49.06 56.28 41.95 48.05 C 37.03 43.32 39.75 36.00 39.07 30.00 C 39.54 25.44 37.32 18.95 42.28 16.22 M 50.12 26.63 C 50.08 30.17 50.07 33.72 50.08 37.27 C 80.33 37.30 110.57 37.27 140.81 37.25 C 140.81 33.73 140.79 30.21 140.76 26.69 C 110.55 26.60 80.34 26.67 50.12 26.63 M 56.70 48.38 C 61.92 54.75 67.55 60.77 72.92 67.02 C 74.86 69.20 75.57 72.15 75.47 75.02 C 75.49 104.87 75.38 134.71 75.43 164.56 C 88.77 164.61 102.10 164.60 115.43 164.56 C 115.45 134.38 115.44 104.19 115.45 74.01 C 115.39 71.69 115.90 69.28 117.54 67.53 C 122.99 61.06 128.79 54.88 134.17 48.35 C 108.34 48.39 82.52 48.32 56.70 48.38 Z" />
<path fill="#f6ac28" opacity="1.00" d=" M 94.41 74.44 C 101.41 72.75 103.70 84.40 96.60 85.50 C 89.54 87.24 87.23 75.49 94.41 74.44 Z" />
<path fill="#f6ac28" opacity="1.00" d=" M 93.48 89.64 C 96.98 88.14 101.22 91.13 101.07 94.92 C 101.13 101.59 101.40 108.30 100.92 114.95 C 99.94 120.53 91.05 120.55 90.07 114.97 C 89.59 108.66 89.98 102.30 89.86 95.96 C 89.57 93.34 90.91 90.56 93.48 89.64 Z" />
</g>
</svg>
