<?xml version="1.0" encoding="UTF-8" ?>
<!DOCTYPE svg PUBLIC "-//W3C//DTD SVG 1.1//EN" "http://www.w3.org/Graphics/SVG/1.1/DTD/svg11.dtd">
<svg width="192pt" height="192pt" viewBox="0 0 192 192" version="1.1" xmlns="http://www.w3.org/2000/svg">
<g id="#fe485aff">
<path fill="#fe485a" opacity="1.00" d=" M 126.18 16.20 C 129.53 14.49 133.84 17.24 133.95 20.93 C 134.07 25.74 134.78 30.79 133.40 35.45 C 131.18 40.51 122.76 38.59 122.93 33.04 C 123.44 27.58 120.58 19.70 126.18 16.20 Z" />
<path fill="#fe485a" opacity="1.00" d=" M 159.25 25.34 C 163.88 23.48 168.53 29.49 165.57 33.49 C 162.25 37.47 158.49 41.13 154.60 44.55 C 150.15 47.98 143.23 41.49 147.03 37.02 C 150.73 32.84 154.46 28.25 159.25 25.34 Z" />
<path fill="#fe485a" opacity="1.00" d=" M 92.26 29.34 C 97.59 27.69 103.35 30.00 107.12 33.86 C 124.12 50.88 141.17 67.85 158.11 84.92 C 163.56 90.16 164.24 99.32 159.14 105.04 C 152.68 111.94 145.91 118.58 139.14 125.18 C 130.09 132.73 117.29 126.88 107.00 129.94 C 92.75 143.36 79.42 157.78 65.23 171.28 C 59.11 176.94 48.93 176.82 42.98 170.95 C 35.45 163.53 27.94 156.07 20.58 148.48 C 14.86 142.54 14.78 132.48 20.36 126.43 C 33.94 112.30 48.28 98.88 61.71 84.63 C 65.27 73.67 58.16 59.05 68.35 50.35 C 76.42 43.53 82.34 33.55 92.26 29.34 M 87.75 46.95 C 106.67 65.97 125.88 84.71 144.97 103.56 C 147.59 100.63 153.60 97.19 150.28 92.69 C 132.91 75.06 115.40 57.54 97.82 40.12 C 93.10 39.22 90.59 44.08 87.75 46.95 M 69.18 93.14 C 55.93 106.57 42.42 119.75 29.23 133.25 C 26.71 135.43 26.85 139.47 29.37 141.59 C 36.36 148.63 43.32 155.71 50.44 162.62 C 52.61 164.89 56.32 164.69 58.39 162.39 C 72.03 149.03 85.35 135.34 98.95 121.94 C 109.62 111.85 128.13 124.84 136.95 111.71 C 117.96 92.82 98.96 73.94 79.80 55.23 C 66.32 63.19 80.18 82.92 69.18 93.14 Z" />
<path fill="#fe485a" opacity="1.00" d=" M 157.44 57.67 C 162.30 57.34 167.34 57.01 172.13 57.90 C 177.17 59.42 176.72 67.41 171.61 68.45 C 166.67 68.81 161.57 69.05 156.67 68.30 C 151.67 66.69 152.12 58.40 157.44 57.67 Z" />
<path fill="#fe485a" opacity="1.00" d=" M 86.36 97.47 C 91.38 94.70 97.07 101.87 93.14 106.07 C 86.73 112.68 80.25 119.28 73.55 125.61 C 68.83 129.48 61.89 122.55 65.75 117.75 C 72.51 110.91 79.06 103.71 86.36 97.47 Z" />
</g>
</svg>
