<?xml version="1.0" encoding="UTF-8" ?>
<!DOCTYPE svg PUBLIC "-//W3C//DTD SVG 1.1//EN" "http://www.w3.org/Graphics/SVG/1.1/DTD/svg11.dtd">
<svg width="192pt" height="192pt" viewBox="0 0 192 192" version="1.1" xmlns="http://www.w3.org/2000/svg">
<g id="#18aeffff">
<path fill="#18aeff" opacity="1.00" d=" M 39.71 32.36 C 69.13 5.73 117.73 5.42 147.48 31.68 C 152.61 27.06 157.16 21.82 162.34 17.25 C 167.04 13.75 173.78 20.38 170.09 25.07 C 164.75 30.72 159.18 36.17 153.57 41.56 C 149.27 45.25 142.88 43.62 139.39 39.64 C 114.79 18.40 75.55 17.94 50.27 38.27 C 24.84 57.22 15.74 94.19 29.23 122.86 C 41.32 150.82 72.85 168.44 103.02 164.03 C 124.85 161.38 145.01 147.89 155.79 128.72 C 167.71 108.21 167.88 81.78 156.84 60.86 C 153.83 54.96 163.13 49.85 166.54 55.42 C 177.02 74.43 179.09 97.78 172.51 118.44 C 163.49 147.91 136.57 170.83 106.03 175.00 C 71.82 180.57 35.56 161.75 20.41 130.60 C 5.44 101.81 10.35 64.64 31.66 40.30 C 26.51 35.10 21.10 30.13 16.20 24.71 C 12.97 20.28 18.59 14.07 23.37 16.69 C 29.22 21.44 34.04 27.39 39.71 32.36 Z" />
<path fill="#18aeff" opacity="1.00" d=" M 64.30 61.36 C 72.76 58.89 80.93 69.36 75.87 76.81 C 72.26 84.08 60.95 83.60 57.32 76.65 C 53.89 70.83 57.59 62.52 64.30 61.36 Z" />
<path fill="#18aeff" opacity="1.00" d=" M 117.35 61.47 C 123.55 59.48 130.90 64.38 130.81 71.04 C 131.56 78.65 122.75 84.78 115.88 81.18 C 107.04 77.94 108.09 63.33 117.35 61.47 Z" />
</g>
</svg>
