<?xml version="1.0" encoding="UTF-8" ?>
<!DOCTYPE svg PUBLIC "-//W3C//DTD SVG 1.1//EN" "http://www.w3.org/Graphics/SVG/1.1/DTD/svg11.dtd">
<svg width="192pt" height="192pt" viewBox="0 0 192 192" version="1.1" xmlns="http://www.w3.org/2000/svg">
<g id="#1ab0ffff">
<path fill="#1ab0ff" opacity="1.00" d=" M 135.73 31.73 C 142.57 24.46 154.41 18.20 163.93 24.08 C 172.87 30.37 170.49 43.75 163.87 50.88 C 154.61 60.41 145.19 69.79 135.71 79.11 C 139.76 102.91 144.49 126.59 148.56 150.39 C 148.57 157.55 140.39 160.45 136.42 165.41 C 133.30 169.74 125.94 171.41 122.97 166.04 C 115.20 149.08 108.00 131.84 100.34 114.83 C 94.19 120.68 88.32 126.83 82.28 132.80 C 82.97 140.21 83.97 147.59 84.60 155.01 C 85.13 160.33 79.77 163.28 76.58 166.63 C 73.25 170.39 66.32 169.02 64.83 164.18 C 61.64 154.64 59.11 144.88 55.88 135.35 C 46.36 132.44 36.81 129.66 27.36 126.57 C 22.63 125.04 21.22 118.27 24.85 114.91 C 28.31 111.60 31.37 105.97 36.94 106.77 C 44.21 107.46 51.45 108.42 58.72 109.05 C 64.60 102.97 70.77 97.17 76.53 90.96 C 59.62 83.27 42.46 76.10 25.61 68.29 C 20.28 65.48 21.77 58.09 26.03 54.99 C 30.95 50.96 33.89 42.91 40.95 42.65 C 64.66 46.75 88.30 51.32 111.98 55.58 C 119.90 47.63 127.83 39.70 135.73 31.73 M 145.01 37.04 C 135.91 45.93 127.07 55.09 117.99 64.00 C 116.20 65.89 113.45 66.41 110.98 65.83 C 87.81 61.67 64.69 57.19 41.50 53.14 C 39.13 55.79 36.74 58.40 34.37 61.05 C 51.10 68.58 67.96 75.84 84.71 83.32 C 89.06 84.91 90.80 91.06 87.53 94.49 C 80.70 101.67 73.52 108.51 66.62 115.63 C 64.79 117.37 62.82 119.64 60.03 119.45 C 51.94 119.08 43.94 117.39 35.83 117.24 C 43.62 123.21 55.66 122.36 63.82 128.19 C 68.19 136.90 69.59 146.89 73.13 155.99 C 76.87 146.04 66.52 132.30 76.27 124.26 C 83.01 117.66 89.54 110.85 96.31 104.27 C 99.50 100.74 105.95 101.82 107.76 106.23 C 115.35 123.11 122.64 140.14 130.16 157.06 C 132.83 154.69 135.46 152.30 138.08 149.87 C 133.91 126.77 129.66 103.68 125.45 80.59 C 124.74 77.75 125.48 74.68 127.70 72.72 C 137.00 63.33 146.40 54.04 155.66 44.61 C 158.34 41.55 161.24 36.50 158.35 32.70 C 153.63 30.79 148.59 34.12 145.01 37.04 Z" />
</g>
</svg>
