<?xml version="1.0" encoding="UTF-8" ?>
<!DOCTYPE svg PUBLIC "-//W3C//DTD SVG 1.1//EN" "http://www.w3.org/Graphics/SVG/1.1/DTD/svg11.dtd">
<svg width="192pt" height="192pt" viewBox="0 0 192 192" version="1.1" xmlns="http://www.w3.org/2000/svg">
<g id="#1ab0ffff">
<path fill="#1ab0ff" opacity="1.00" d=" M 84.42 14.53 C 118.14 9.20 153.69 27.73 168.85 58.25 C 184.68 88.09 179.18 127.39 155.69 151.68 C 132.25 177.44 91.76 185.02 60.58 169.52 C 28.92 154.89 9.37 118.51 14.89 84.03 C 19.32 48.82 49.22 18.96 84.42 14.53 M 87.37 25.46 C 61.95 28.20 39.11 46.19 30.02 70.01 C 22.51 89.28 23.95 111.88 34.12 129.93 C 42.83 145.63 57.71 157.83 74.89 163.11 C 94.05 169.08 115.76 166.49 132.84 155.89 C 159.72 139.98 173.13 105.16 163.67 75.34 C 154.65 43.15 120.54 20.68 87.37 25.46 Z" />
<path fill="#1ab0ff" opacity="1.00" d=" M 89.47 44.63 C 107.49 42.10 126.43 50.20 137.14 64.87 C 147.67 78.61 150.31 97.83 144.03 113.93 C 138.17 129.68 124.06 141.99 107.67 145.68 C 89.64 150.18 69.49 143.64 57.37 129.59 C 45.29 116.19 41.32 96.19 47.23 79.16 C 53.22 60.86 70.30 46.79 89.47 44.63 M 90.50 55.76 C 75.39 57.70 61.98 69.00 57.59 83.59 C 52.98 97.64 57.10 114.01 67.75 124.24 C 77.03 133.60 91.11 137.69 103.99 134.99 C 118.14 132.26 130.25 121.19 134.38 107.40 C 138.31 94.74 135.51 80.18 126.94 70.04 C 118.28 59.44 104.06 53.82 90.50 55.76 Z" />
<path fill="#1ab0ff" opacity="1.00" d=" M 91.33 83.39 C 100.94 79.20 111.95 89.63 108.44 99.46 C 105.84 109.68 90.54 111.96 85.11 102.89 C 80.38 96.32 83.66 85.99 91.33 83.39 Z" />
</g>
</svg>
