<?xml version="1.0" encoding="UTF-8" ?>
<!DOCTYPE svg PUBLIC "-//W3C//DTD SVG 1.1//EN" "http://www.w3.org/Graphics/SVG/1.1/DTD/svg11.dtd">
<svg width="192pt" height="192pt" viewBox="0 0 192 192" version="1.1" xmlns="http://www.w3.org/2000/svg">
<g id="#ec31afff">
<path fill="#ec31af" opacity="1.00" d=" M 82.47 12.47 C 88.54 10.57 91.50 20.94 85.88 22.98 C 81.25 24.06 76.56 24.89 71.97 26.20 C 65.90 28.13 62.78 16.24 69.16 15.29 C 73.57 14.22 78.00 13.24 82.47 12.47 Z" />
<path fill="#ec31af" opacity="1.00" d=" M 102.38 12.49 C 108.03 11.15 113.86 14.41 119.42 15.57 C 125.64 16.67 123.03 27.78 117.03 26.25 C 112.41 24.99 107.74 24.01 103.06 23.05 C 98.34 21.70 99.37 15.07 102.38 12.49 Z" />
<path fill="#ec31af" opacity="1.00" d=" M 136.43 24.44 C 142.32 24.05 145.84 30.68 150.42 33.63 C 154.60 36.13 152.88 42.29 148.75 43.76 C 146.10 45.10 143.79 42.63 141.96 41.05 C 139.09 38.20 135.47 36.25 132.62 33.40 C 130.15 30.05 133.35 25.96 136.43 24.44 Z" />
<path fill="#ec31af" opacity="1.00" d=" M 49.33 25.27 C 54.20 22.33 59.91 30.88 55.32 34.29 C 51.69 36.98 48.16 39.79 44.80 42.82 C 40.15 47.44 32.26 38.17 37.27 34.25 C 41.15 31.09 45.12 27.98 49.33 25.27 Z" />
<path fill="#ec31af" opacity="1.00" d=" M 158.36 49.46 C 160.56 48.11 163.87 48.45 165.07 50.97 C 167.41 55.43 169.45 60.07 171.29 64.75 C 173.40 70.17 163.58 74.16 161.14 68.96 C 159.17 64.60 157.02 60.33 154.85 56.07 C 153.51 53.34 155.68 50.27 158.36 49.46 Z" />
<path fill="#ec31af" opacity="1.00" d=" M 25.38 50.33 C 29.32 48.13 35.78 52.79 33.31 57.32 C 31.08 61.54 29.14 65.88 27.20 70.23 C 24.06 75.58 13.83 69.84 17.33 64.36 C 19.91 59.67 21.60 54.19 25.38 50.33 Z" />
<path fill="#ec31af" opacity="1.00" d=" M 78.37 64.47 C 82.51 62.61 87.27 63.67 90.98 66.02 C 100.85 71.85 110.93 77.33 120.71 83.30 C 127.89 88.02 127.74 99.89 120.38 104.38 C 110.14 110.53 99.72 116.42 89.34 122.36 C 81.64 127.02 70.52 121.03 70.33 112.00 C 70.15 100.31 70.33 88.62 70.30 76.93 C 70.00 71.58 73.41 66.42 78.37 64.47 M 81.47 78.96 C 81.54 89.86 81.50 100.76 81.54 111.67 C 81.92 111.96 82.68 112.54 83.06 112.83 C 93.80 106.83 104.40 100.59 115.01 94.37 C 113.87 91.70 110.97 90.73 108.67 89.30 C 100.03 84.49 91.68 79.13 82.89 74.59 C 81.12 75.38 81.58 77.41 81.47 78.96 Z" />
<path fill="#ec31af" opacity="1.00" d=" M 12.99 85.02 C 15.05 80.91 20.58 82.88 24.23 82.42 C 23.32 88.58 23.44 94.81 23.66 101.00 C 24.05 107.48 12.01 107.36 12.22 101.03 C 12.25 95.70 12.01 90.27 12.99 85.02 Z" />
<path fill="#ec31af" opacity="1.00" d=" M 167.36 82.33 C 170.57 80.83 176.51 81.46 176.69 85.96 C 176.88 91.29 177.09 96.76 176.01 102.01 C 174.15 107.70 163.62 105.32 165.18 99.04 C 166.49 93.64 162.75 86.44 167.36 82.33 Z" />
<path fill="#ec31af" opacity="1.00" d=" M 163.38 115.39 C 167.48 113.53 174.26 117.92 171.81 122.70 C 169.69 127.18 167.47 131.65 164.87 135.88 C 161.50 140.78 152.17 134.82 155.66 129.62 C 158.73 125.17 159.44 119.10 163.38 115.39 Z" />
<path fill="#ec31af" opacity="1.00" d=" M 21.36 116.45 C 23.82 115.29 27.11 116.27 27.99 118.98 C 29.78 123.15 31.90 127.15 33.98 131.18 C 36.76 136.64 26.32 141.89 23.79 136.25 C 21.49 131.73 19.34 127.11 17.58 122.35 C 16.37 119.60 18.99 117.26 21.36 116.45 Z" />
<path fill="#ec31af" opacity="1.00" d=" M 40.43 143.50 C 46.35 143.15 49.60 149.98 54.59 152.43 C 61.17 155.81 53.38 166.62 48.10 161.89 C 44.22 158.83 40.35 155.67 36.89 152.13 C 33.92 149.18 37.31 144.64 40.43 143.50 Z" />
<path fill="#ec31af" opacity="1.00" d=" M 146.34 143.27 C 151.16 142.58 156.02 150.15 151.42 153.42 C 147.71 156.41 143.92 159.32 139.96 161.97 C 134.88 165.78 128.44 156.13 133.80 152.77 C 138.25 149.97 141.68 145.61 146.34 143.27 Z" />
<path fill="#ec31af" opacity="1.00" d=" M 69.21 161.23 C 74.52 160.82 79.65 163.57 84.97 164.06 C 91.82 164.67 89.49 176.84 83.03 175.42 C 78.14 174.42 73.30 173.08 68.57 171.47 C 64.10 170.00 65.42 162.77 69.21 161.23 Z" />
<path fill="#ec31af" opacity="1.00" d=" M 115.36 161.43 C 121.48 158.04 126.21 167.76 121.42 171.51 C 116.52 173.47 111.12 173.91 105.97 174.96 C 99.91 176.72 97.40 165.83 103.16 164.26 C 107.22 163.30 111.37 162.68 115.36 161.43 Z" />
</g>
</svg>
