<?xml version="1.0" encoding="UTF-8" ?>
<!DOCTYPE svg PUBLIC "-//W3C//DTD SVG 1.1//EN" "http://www.w3.org/Graphics/SVG/1.1/DTD/svg11.dtd">
<svg width="192pt" height="192pt" viewBox="0 0 192 192" version="1.1" xmlns="http://www.w3.org/2000/svg">
<g id="#ff8a1fff">
<path fill="#ff8a1f" opacity="1.00" d=" M 84.37 13.45 C 116.08 8.74 149.41 24.70 165.81 52.19 C 178.64 72.84 181.32 99.28 173.32 122.19 C 163.62 150.83 136.96 172.90 106.91 176.73 C 76.29 181.43 43.96 166.87 26.99 140.99 C 8.13 113.67 8.53 74.84 27.91 47.89 C 40.88 29.25 61.81 16.33 84.37 13.45 M 87.38 24.46 C 67.21 26.70 48.27 38.05 36.88 54.86 C 24.35 72.70 20.98 96.47 27.83 117.14 C 35.98 142.96 60.03 162.74 86.95 165.70 C 110.10 168.67 134.29 159.20 149.35 141.40 C 168.98 119.24 172.14 84.51 156.77 59.20 C 143.10 35.30 114.74 21.03 87.38 24.46 Z" />
<path fill="#ff8a1f" opacity="1.00" d=" M 82.26 52.27 C 85.60 51.12 89.19 54.54 88.24 57.94 C 85.64 77.35 83.39 96.82 81.16 116.28 C 80.60 121.44 72.18 121.21 71.83 116.05 C 73.54 96.65 76.30 77.33 78.75 58.01 C 78.90 55.69 79.71 52.93 82.26 52.27 Z" />
<path fill="#ff8a1f" opacity="1.00" d=" M 102.37 52.47 C 110.04 51.55 111.53 63.80 104.03 65.19 C 96.16 66.55 94.44 53.29 102.37 52.47 Z" />
<path fill="#ff8a1f" opacity="1.00" d=" M 51.18 71.10 C 51.54 59.83 62.20 49.68 73.71 53.44 C 73.86 55.52 73.73 57.72 72.66 59.57 C 70.08 60.66 66.90 59.68 64.56 61.46 C 61.47 63.61 61.09 67.66 60.52 71.05 C 64.08 70.71 69.77 71.11 69.50 76.03 C 69.24 81.17 63.27 80.43 59.63 80.60 C 57.82 95.98 56.57 111.47 53.57 126.66 C 52.10 131.18 44.58 129.88 44.66 125.10 C 46.21 110.25 49.09 95.52 49.99 80.60 C 46.89 80.77 43.33 78.58 44.04 75.07 C 44.40 71.55 48.29 70.81 51.18 71.10 Z" />
<path fill="#ff8a1f" opacity="1.00" d=" M 99.23 71.20 C 102.34 69.57 106.53 72.51 105.84 76.03 C 104.35 89.65 102.75 103.28 101.05 116.88 C 99.92 121.63 92.34 120.76 92.05 115.98 C 92.91 103.24 94.90 90.59 96.19 77.89 C 96.48 75.46 96.60 72.32 99.23 71.20 Z" />
<path fill="#ff8a1f" opacity="1.00" d=" M 137.29 71.35 C 142.15 70.26 147.61 72.76 149.57 77.41 C 154.38 89.29 150.32 103.56 141.19 112.23 C 135.61 117.40 126.49 118.28 120.52 113.21 C 118.94 119.53 119.04 126.15 117.37 132.44 C 115.36 136.65 108.11 134.84 108.64 130.08 C 111.14 110.75 113.32 91.37 115.90 72.06 C 118.19 71.97 120.53 71.68 122.77 72.27 C 124.63 74.73 123.45 78.20 123.82 81.06 C 127.31 76.72 131.50 72.25 137.29 71.35 M 134.35 79.38 C 124.62 83.80 121.40 96.07 121.47 105.96 C 124.83 109.84 131.63 109.91 135.18 106.21 C 141.06 100.48 142.49 91.52 141.26 83.70 C 140.73 80.55 137.41 78.47 134.35 79.38 Z" />
</g>
</svg>
