<?xml version="1.0" encoding="UTF-8" ?>
<!DOCTYPE svg PUBLIC "-//W3C//DTD SVG 1.1//EN" "http://www.w3.org/Graphics/SVG/1.1/DTD/svg11.dtd">
<svg width="192pt" height="192pt" viewBox="0 0 192 192" version="1.1" xmlns="http://www.w3.org/2000/svg">
<g id="#18adffff">
<path fill="#18adff" opacity="1.00" d=" M 38.52 48.59 C 44.19 38.51 60.13 36.44 67.86 45.15 C 72.62 50.87 67.93 61.45 59.94 59.47 C 54.37 58.85 55.07 52.22 57.17 48.60 C 54.64 49.19 51.70 49.76 50.33 52.27 C 46.33 58.71 44.42 66.15 42.13 73.31 C 44.99 72.88 47.86 72.42 50.75 72.35 C 50.42 75.10 50.02 77.99 48.48 80.36 C 45.56 81.74 41.65 81.15 39.19 83.17 C 35.06 93.53 33.09 104.67 29.10 115.09 C 26.82 120.90 20.80 124.44 14.69 124.56 C 18.17 111.42 22.98 98.62 25.90 85.34 C 22.15 85.73 18.44 86.58 14.65 86.53 C 15.36 83.81 15.73 80.79 17.58 78.56 C 21.13 76.73 25.98 77.71 28.99 75.07 C 32.32 66.33 34.07 56.91 38.52 48.59 Z" />
<path fill="#18adff" opacity="1.00" d=" M 80.49 59.61 C 83.95 58.23 88.03 61.12 87.64 64.88 C 88.01 68.76 83.58 71.57 80.15 69.93 C 75.73 68.29 75.86 60.86 80.49 59.61 Z" />
<path fill="#18adff" opacity="1.00" d=" M 58.75 63.76 C 62.27 62.12 66.26 61.92 70.07 61.61 C 67.22 74.33 62.86 86.68 59.53 99.29 C 60.93 99.69 62.33 100.09 63.73 100.51 C 62.09 107.54 50.40 106.66 49.09 99.93 C 48.26 94.78 50.99 90.02 52.16 85.14 C 54.48 78.06 55.82 70.61 58.75 63.76 Z" />
<path fill="#18adff" opacity="1.00" d=" M 74.18 74.10 C 77.67 72.72 81.48 72.39 85.20 72.21 C 83.67 81.39 80.31 90.13 78.11 99.16 C 79.59 99.42 81.08 99.69 82.56 99.98 C 81.17 106.57 71.41 107.24 68.18 101.88 C 65.95 97.24 68.51 92.29 69.83 87.80 C 71.42 83.28 71.96 78.37 74.18 74.10 Z" />
<path fill="#18adff" opacity="1.00" d=" M 91.77 74.69 C 94.51 72.19 99.13 72.77 102.67 71.83 C 102.98 72.41 103.61 73.59 103.92 74.18 C 109.02 71.28 116.92 71.22 119.59 77.39 C 121.79 83.72 120.54 90.97 118.07 97.06 C 114.48 105.77 103.21 110.30 94.73 105.97 C 93.49 112.50 86.25 108.80 81.86 108.49 C 84.90 97.16 88.21 85.86 91.77 74.69 M 105.38 79.38 C 99.22 81.95 99.48 89.98 97.40 95.40 C 95.90 98.41 98.49 102.14 101.89 101.06 C 107.68 98.59 111.03 92.08 111.15 85.98 C 111.19 82.89 109.09 78.53 105.38 79.38 Z" />
<path fill="#18adff" opacity="1.00" d=" M 125.97 76.95 C 126.89 71.54 133.79 73.06 137.77 71.83 C 138.09 72.41 138.74 73.57 139.06 74.16 C 144.15 71.30 152.02 71.19 154.66 77.37 C 158.66 88.51 153.29 103.87 141.19 107.31 C 137.25 108.54 133.22 107.20 129.51 105.86 C 128.61 108.74 127.74 111.63 126.83 114.51 C 123.05 114.34 119.30 113.85 115.58 113.18 C 118.58 100.98 122.66 89.07 125.97 76.95 M 140.42 79.47 C 134.66 81.31 134.93 88.41 133.06 93.12 C 131.69 96.10 131.47 101.24 136.00 101.20 C 142.57 99.52 145.90 92.25 146.26 85.97 C 146.35 82.85 144.15 78.46 140.42 79.47 Z" />
<path fill="#18adff" opacity="1.00" d=" M 168.22 107.37 C 174.93 108.19 177.46 117.35 174.90 122.83 C 171.65 127.33 165.34 127.23 160.43 128.50 C 142.33 130.92 124.00 128.47 106.02 126.18 C 87.61 123.60 68.16 118.77 49.99 125.03 C 45.00 126.55 38.01 133.68 43.75 138.25 C 54.69 145.17 68.43 137.47 74.85 127.85 C 77.53 122.63 83.97 125.97 88.39 126.28 C 82.12 143.63 61.58 154.66 43.73 149.37 C 38.08 147.90 32.14 144.49 30.50 138.48 C 28.11 128.95 34.08 118.52 43.28 115.27 C 64.66 106.39 88.00 112.01 109.96 115.09 C 129.24 117.28 152.81 122.76 168.22 107.37 Z" />
</g>
</svg>
