<?xml version="1.0" encoding="UTF-8" ?>
<!DOCTYPE svg PUBLIC "-//W3C//DTD SVG 1.1//EN" "http://www.w3.org/Graphics/SVG/1.1/DTD/svg11.dtd">
<svg width="192pt" height="192pt" viewBox="0 0 192 192" version="1.1" xmlns="http://www.w3.org/2000/svg">
<g id="#8ca2adff">
<path fill="#8ca2ad" opacity="1.00" d=" M 32.74 42.74 C 53.09 17.17 89.54 6.25 120.59 16.52 C 153.35 26.45 177.56 58.73 177.84 92.99 C 179.32 128.48 154.79 164.24 120.02 173.21 C 121.02 155.57 122.01 137.92 123.20 120.29 C 127.01 119.76 130.76 118.87 134.46 117.80 C 133.46 130.91 131.35 143.93 130.35 157.05 C 158.72 141.82 173.29 105.93 163.81 75.18 C 155.65 45.36 126.06 22.93 95.00 24.12 C 62.90 23.69 33.12 48.54 26.89 79.87 C 19.95 109.54 34.65 142.59 61.52 157.03 C 60.55 143.61 59.04 130.25 57.66 116.87 C 61.19 118.37 64.89 119.40 68.60 120.33 C 70.57 138.44 72.09 156.61 73.53 174.77 C 52.28 167.84 33.35 153.08 23.22 132.93 C 8.17 104.48 12.03 67.40 32.74 42.74 Z" />
<path fill="#8ca2ad" opacity="1.00" d=" M 76.18 69.13 C 84.41 52.81 107.45 46.75 122.30 57.67 C 133.60 65.58 138.12 80.84 134.07 93.86 C 138.24 98.03 138.73 105.32 133.08 108.49 C 133.40 109.70 133.73 110.90 134.06 112.10 C 121.85 116.20 108.77 116.58 96.00 116.52 C 84.05 116.29 71.82 116.28 60.30 112.74 C 57.66 112.25 57.67 109.34 57.45 107.24 C 49.84 103.75 48.67 92.43 56.11 88.09 C 50.82 82.51 50.60 72.74 56.71 67.70 C 62.38 62.69 71.17 63.67 76.18 69.13 Z" />
<path fill="#8ca2ad" opacity="1.00" d=" M 80.16 121.17 C 83.66 121.91 91.38 119.10 90.60 125.00 C 91.15 142.82 91.84 160.65 92.20 178.47 C 89.25 178.42 86.31 178.12 83.43 177.53 C 81.94 158.78 80.86 139.97 80.16 121.17 Z" />
<path fill="#8ca2ad" opacity="1.00" d=" M 101.73 122.94 C 104.03 120.40 109.23 121.27 112.23 122.06 C 111.94 140.24 111.11 158.45 110.60 176.64 C 107.74 177.80 104.68 178.26 101.62 178.43 C 101.64 159.94 101.49 141.43 101.73 122.94 Z" />
</g>
</svg>
