<?xml version="1.0" encoding="UTF-8" ?>
<!DOCTYPE svg PUBLIC "-//W3C//DTD SVG 1.1//EN" "http://www.w3.org/Graphics/SVG/1.1/DTD/svg11.dtd">
<svg width="192pt" height="192pt" viewBox="0 0 192 192" version="1.1" xmlns="http://www.w3.org/2000/svg">
<g id="#1ab0ffff">
<path fill="#1ab0ff" opacity="1.00" d=" M 40.34 21.43 C 43.50 20.65 46.78 20.72 50.00 20.73 C 83.00 20.79 116.00 20.66 148.99 20.77 C 160.78 20.90 171.20 31.28 171.53 43.03 C 171.52 48.52 171.94 54.07 171.30 59.53 C 170.06 64.60 161.92 64.59 160.70 59.52 C 159.74 53.44 161.10 47.19 159.97 41.12 C 158.62 35.38 152.80 31.50 147.01 31.83 C 113.67 31.82 80.33 31.79 46.99 31.80 C 40.17 31.35 33.65 37.05 33.69 43.98 C 33.47 59.53 33.93 75.10 33.50 90.64 C 32.69 96.72 22.77 96.20 22.63 90.03 C 22.41 74.70 22.58 59.36 22.56 44.02 C 22.46 33.58 30.21 23.82 40.34 21.43 Z" />
<path fill="#1ab0ff" opacity="1.00" d=" M 79.39 70.27 C 81.02 69.15 83.12 69.49 84.99 69.37 C 113.33 69.51 141.69 69.22 170.02 69.49 C 174.69 69.81 175.80 75.81 172.93 78.88 C 169.39 83.29 168.08 91.94 161.00 91.44 C 132.66 91.39 104.32 91.46 75.98 91.39 C 71.75 91.94 68.62 86.72 71.15 83.28 C 73.85 78.94 75.91 74.06 79.39 70.27 Z" />
<path fill="#1ab0ff" opacity="1.00" d=" M 163.42 98.49 C 167.15 96.41 172.07 99.76 171.57 103.99 C 171.62 118.31 171.65 132.64 171.56 146.96 C 171.38 158.86 160.85 169.32 148.98 169.51 C 114.64 169.61 80.30 169.53 45.96 169.52 C 34.53 169.70 23.93 160.38 22.75 148.99 C 22.39 144.02 22.36 139.00 22.70 134.02 C 23.31 128.86 31.27 128.05 33.15 132.79 C 34.58 138.30 32.75 144.18 34.28 149.71 C 35.77 154.74 40.79 158.42 46.05 158.32 C 80.01 158.34 113.98 158.32 147.95 158.29 C 154.56 158.52 160.55 152.63 160.34 145.99 C 160.45 132.00 160.30 118.00 160.40 104.01 C 160.31 101.79 161.34 99.47 163.42 98.49 Z" />
<path fill="#1ab0ff" opacity="1.00" d=" M 27.43 102.52 C 29.07 101.45 31.14 101.75 33.00 101.64 C 61.01 101.75 89.03 101.57 117.03 101.72 C 121.82 101.45 123.99 107.67 120.95 111.01 C 117.42 115.47 116.09 124.11 108.99 123.67 C 80.66 123.62 52.32 123.71 23.99 123.59 C 19.80 124.03 16.81 118.77 19.25 115.36 C 21.93 111.07 23.92 106.19 27.43 102.52 Z" />
</g>
</svg>
