<?xml version="1.0" encoding="UTF-8" ?>
<!DOCTYPE svg PUBLIC "-//W3C//DTD SVG 1.1//EN" "http://www.w3.org/Graphics/SVG/1.1/DTD/svg11.dtd">
<svg width="192pt" height="192pt" viewBox="0 0 192 192" version="1.1" xmlns="http://www.w3.org/2000/svg">
<g id="#9a838aff">
<path fill="#9a838a" opacity="1.00" d=" M 85.38 12.30 C 91.88 7.35 101.74 7.73 107.85 13.15 C 115.28 19.73 121.90 27.59 125.42 36.98 C 137.56 34.03 150.50 35.33 162.06 39.93 C 169.21 43.00 173.64 51.17 172.48 58.83 C 170.46 71.54 165.24 84.16 155.57 92.96 C 164.51 101.81 169.68 113.82 171.66 126.12 C 172.78 133.86 168.16 141.99 160.89 144.93 C 150.21 148.96 138.41 150.89 127.12 148.42 C 123.50 158.91 116.30 167.80 107.89 174.88 C 101.71 179.75 92.29 179.76 86.10 174.88 C 77.32 167.80 69.96 158.70 66.11 148.01 C 54.24 150.26 41.83 148.92 30.64 144.36 C 23.40 141.22 18.98 132.87 20.35 125.11 C 22.39 113.40 27.16 101.90 35.56 93.32 C 25.88 84.79 20.78 72.29 18.57 59.83 C 17.16 51.88 21.86 43.38 29.33 40.33 C 40.87 35.97 53.78 34.17 65.81 37.60 C 69.79 27.53 76.97 19.01 85.38 12.30 M 91.15 22.19 C 84.73 27.68 78.87 34.42 76.24 42.58 C 85.23 48.28 91.27 57.43 95.63 66.93 C 99.58 56.95 106.19 47.90 115.15 41.87 C 112.23 33.91 106.70 27.12 100.31 21.67 C 97.71 19.37 93.53 19.77 91.15 22.19 M 34.38 50.47 C 31.30 51.42 29.08 54.77 29.73 57.98 C 31.70 68.78 36.11 80.06 45.43 86.56 C 54.24 92.77 65.66 93.15 75.97 91.65 C 75.19 88.52 73.17 84.62 75.90 81.87 C 78.98 79.09 83.54 79.34 87.43 79.26 C 85.13 68.61 79.13 58.20 69.98 52.00 C 59.41 45.06 45.77 46.55 34.38 50.47 M 124.01 50.00 C 114.01 54.97 108.02 65.25 104.47 75.45 C 103.90 76.76 104.61 78.12 104.86 79.41 C 109.02 79.18 113.89 78.84 117.27 81.75 C 119.97 84.55 118.11 88.57 117.17 91.70 C 126.76 92.71 137.16 91.98 145.32 86.31 C 154.58 79.90 159.14 68.77 161.06 58.03 C 161.92 54.82 160.09 51.19 156.94 50.10 C 146.46 46.43 134.29 44.87 124.01 50.00 M 43.96 101.03 C 36.92 107.68 33.39 117.15 31.54 126.46 C 30.67 129.92 32.98 133.58 36.38 134.52 C 45.08 137.44 54.70 139.00 63.70 136.48 C 64.95 132.80 64.24 128.44 65.59 124.62 C 67.14 116.77 72.19 110.38 75.35 103.27 C 66.57 104.16 57.46 104.11 49.08 100.98 C 47.44 100.52 45.27 99.28 43.96 101.03 M 119.19 103.35 C 119.27 104.93 118.91 106.70 120.06 107.99 C 125.81 116.52 129.51 126.69 129.16 137.08 C 137.71 139.50 146.83 137.65 155.12 135.03 C 158.59 134.20 161.22 130.64 160.35 127.04 C 158.37 116.62 154.12 105.71 145.15 99.39 C 137.05 103.07 127.99 103.91 119.19 103.35 M 106.35 110.18 C 104.31 114.53 101.06 121.00 95.25 119.73 C 91.77 118.29 89.63 114.79 87.89 111.60 C 86.23 111.68 84.06 111.36 83.12 113.12 C 77.96 120.99 74.18 130.54 75.91 140.09 C 77.69 150.41 84.68 158.93 92.46 165.53 C 94.59 167.49 97.95 167.82 100.42 166.31 C 111.96 157.30 121.24 142.18 116.72 127.14 C 114.53 121.06 112.15 113.56 106.35 110.18 Z" />
</g>
</svg>
