<?xml version="1.0" encoding="UTF-8" ?>
<!DOCTYPE svg PUBLIC "-//W3C//DTD SVG 1.1//EN" "http://www.w3.org/Graphics/SVG/1.1/DTD/svg11.dtd">
<svg width="192pt" height="192pt" viewBox="0 0 192 192" version="1.1" xmlns="http://www.w3.org/2000/svg">
<g id="#8199ccff">
<path fill="#8199cc" opacity="1.00" d=" M 84.39 14.54 C 116.06 9.89 149.25 26.07 165.44 53.60 C 177.35 73.15 180.25 97.77 173.59 119.64 C 166.24 144.32 146.51 164.85 122.15 173.20 C 102.08 180.21 79.25 179.06 60.05 169.89 C 31.84 156.71 12.28 126.33 13.15 95.05 C 12.58 55.49 45.03 18.87 84.39 14.54 M 62.05 33.07 C 43.32 42.87 29.54 61.39 25.50 82.13 C 54.34 82.19 83.19 82.20 112.03 82.07 C 119.37 82.28 123.18 72.00 117.82 67.17 C 114.76 63.07 108.38 66.76 105.59 62.41 C 103.05 59.49 104.53 54.40 108.28 53.38 C 119.75 50.55 131.69 60.34 132.12 71.94 C 133.20 83.27 123.37 93.97 112.04 94.07 C 82.79 94.18 53.53 94.06 24.28 94.13 C 24.34 97.37 24.46 100.61 24.63 103.84 C 53.76 104.02 82.89 103.84 112.01 103.93 C 121.33 103.84 129.19 112.77 128.47 121.96 C 128.39 131.41 118.75 140.25 109.28 137.71 C 103.40 135.13 106.30 126.19 112.33 126.27 C 118.31 125.86 117.86 115.93 112.00 115.79 C 83.70 115.59 55.38 115.70 27.07 115.69 C 33.75 138.75 52.85 157.76 76.08 163.98 C 98.25 170.28 123.35 164.88 140.83 149.81 C 163.47 131.20 172.03 97.92 161.35 70.65 C 153.79 50.50 136.53 34.24 115.91 28.04 C 98.23 22.56 78.40 24.37 62.05 33.07 Z" />
</g>
</svg>
