<?xml version="1.0" encoding="UTF-8" ?>
<!DOCTYPE svg PUBLIC "-//W3C//DTD SVG 1.1//EN" "http://www.w3.org/Graphics/SVG/1.1/DTD/svg11.dtd">
<svg width="192pt" height="192pt" viewBox="0 0 192 192" version="1.1" xmlns="http://www.w3.org/2000/svg">
<g id="#19b0ffff">
<path fill="#19b0ff" opacity="1.00" d=" M 87.49 11.74 C 120.40 8.07 154.03 26.91 168.51 56.59 C 184.47 87.38 178.06 127.92 153.00 151.99 C 128.70 177.10 87.36 183.46 56.94 166.09 C 51.10 162.08 57.60 152.40 63.57 156.44 C 93.17 172.27 132.93 162.53 152.05 135.02 C 165.40 116.96 169.01 92.36 161.82 71.13 C 152.81 43.08 124.58 22.46 94.99 23.23 C 63.72 22.64 34.41 46.06 27.27 76.36 C 21.20 99.91 28.35 126.24 45.64 143.37 C 50.81 147.80 44.01 156.64 38.47 152.54 C 13.72 129.78 6.60 90.86 20.39 60.38 C 31.91 33.70 58.47 14.20 87.49 11.74 Z" />
<path fill="#19b0ff" opacity="1.00" d=" M 59.36 55.25 C 61.57 53.83 64.18 54.84 66.46 55.48 C 82.51 60.53 98.64 65.31 114.67 70.42 C 117.24 71.08 118.43 73.61 119.04 75.96 C 123.95 92.35 129.11 108.68 133.98 125.08 C 135.63 129.39 130.94 134.04 126.65 132.43 C 110.02 127.42 93.45 122.20 76.84 117.12 C 74.34 116.58 72.43 114.64 71.89 112.15 C 66.90 95.73 61.86 79.32 56.86 62.90 C 55.76 60.16 56.65 56.66 59.36 55.25 M 71.15 69.28 C 74.84 81.71 78.70 94.09 82.49 106.48 C 94.83 110.28 107.16 114.12 119.51 117.85 C 115.69 105.49 111.98 93.09 108.13 80.73 C 95.81 76.87 83.46 73.14 71.15 69.28 Z" />
</g>
</svg>
