<?xml version="1.0" encoding="UTF-8" ?>
<!DOCTYPE svg PUBLIC "-//W3C//DTD SVG 1.1//EN" "http://www.w3.org/Graphics/SVG/1.1/DTD/svg11.dtd">
<svg width="192pt" height="192pt" viewBox="0 0 192 192" version="1.1" xmlns="http://www.w3.org/2000/svg">
<g id="#a319ffff">
<path fill="#a319ff" opacity="1.00" d=" M 18.26 38.94 C 18.03 28.31 27.29 18.61 37.92 18.41 C 50.62 18.25 63.33 18.43 76.04 18.32 C 78.36 18.29 81.11 18.25 82.66 20.32 C 86.91 25.23 90.96 30.31 95.11 35.31 C 110.36 35.48 125.62 35.11 140.86 35.47 C 146.93 36.14 146.78 46.14 140.64 46.50 C 125.42 46.76 110.19 46.49 94.97 46.62 C 92.65 46.54 89.81 46.91 88.17 44.86 C 83.76 39.85 79.76 34.48 75.28 29.52 C 63.18 29.69 51.09 29.51 39.00 29.60 C 33.55 29.39 28.96 34.60 29.44 39.94 C 29.50 76.58 29.33 113.22 29.53 149.85 C 29.83 155.69 36.17 158.36 41.31 157.49 C 41.39 129.30 41.25 101.11 41.40 72.92 C 41.52 63.85 49.89 56.00 58.94 56.41 C 91.32 56.42 123.70 56.35 156.08 56.42 C 165.22 56.42 173.16 64.84 172.79 73.94 C 172.80 98.98 172.82 124.02 172.79 149.06 C 173.09 159.59 163.60 169.11 153.05 168.72 C 114.69 168.74 76.32 168.73 37.95 168.71 C 27.41 169.09 17.92 159.58 18.24 149.06 C 18.22 112.35 18.22 75.64 18.26 38.94 M 52.63 73.98 C 52.57 101.79 52.65 129.60 52.60 157.41 C 86.07 157.51 119.53 157.46 153.00 157.42 C 157.55 157.61 161.66 153.57 161.50 149.01 C 161.56 124.01 161.56 99.00 161.51 73.99 C 161.74 70.50 158.53 67.35 155.02 67.68 C 123.01 67.65 90.99 67.64 58.97 67.66 C 55.52 67.39 52.36 70.51 52.63 73.98 Z" />
</g>
</svg>
