<?xml version="1.0" encoding="UTF-8" ?>
<!DOCTYPE svg PUBLIC "-//W3C//DTD SVG 1.1//EN" "http://www.w3.org/Graphics/SVG/1.1/DTD/svg11.dtd">
<svg width="192pt" height="192pt" viewBox="0 0 192 192" version="1.1" xmlns="http://www.w3.org/2000/svg">
<g id="#f7a62cff">
<path fill="#f7a62c" opacity="1.00" d=" M 18.26 40.94 C 18.03 30.31 27.28 20.63 37.92 20.41 C 51.28 20.28 64.65 20.36 78.01 20.35 C 80.06 20.22 81.95 21.23 83.17 22.85 C 87.15 27.64 91.13 32.44 95.06 37.27 C 110.32 37.52 125.60 37.09 140.86 37.47 C 146.94 38.14 146.79 48.14 140.63 48.50 C 123.98 48.59 107.29 48.82 90.65 48.38 C 84.18 44.40 80.91 36.54 75.09 31.64 C 63.07 31.52 51.03 31.59 39.00 31.60 C 33.55 31.38 28.96 36.60 29.44 41.94 C 29.50 78.58 29.34 115.22 29.53 151.85 C 29.83 157.67 36.16 160.38 41.31 159.47 C 41.39 131.29 41.24 103.10 41.39 74.92 C 41.53 66.20 49.29 58.48 58.02 58.43 C 90.67 58.38 123.32 58.38 155.96 58.41 C 165.15 58.35 173.16 66.79 172.80 75.95 C 172.81 100.98 172.83 126.02 172.80 151.06 C 173.09 161.59 163.60 171.11 153.05 170.73 C 114.69 170.75 76.32 170.73 37.95 170.71 C 27.41 171.09 17.91 161.58 18.24 151.05 C 18.22 114.35 18.22 77.64 18.26 40.94 M 52.63 75.99 C 52.59 103.79 52.62 131.61 52.63 159.41 C 86.08 159.49 119.53 159.46 152.98 159.41 C 157.55 159.63 161.64 155.57 161.50 151.01 C 161.56 126.01 161.55 101.00 161.51 75.99 C 161.74 72.47 158.49 69.35 154.98 69.67 C 122.99 69.67 91.00 69.65 59.01 69.65 C 55.55 69.40 52.35 72.49 52.63 75.99 Z" />
<path fill="#f7a62c" opacity="1.00" d=" M 104.29 82.28 C 108.57 80.44 115.92 81.92 115.48 87.76 C 115.04 93.46 107.92 93.71 103.82 92.16 C 100.09 90.10 100.30 83.92 104.29 82.28 Z" />
<path fill="#f7a62c" opacity="1.00" d=" M 92.58 113.35 C 88.32 111.44 88.69 104.63 93.12 103.15 C 98.01 102.29 103.06 102.93 108.01 102.75 C 111.16 102.37 114.57 104.61 114.62 107.96 C 114.85 117.91 114.56 127.86 114.77 137.81 C 119.04 138.28 124.74 136.24 127.75 140.27 C 130.37 143.77 127.45 149.28 123.07 149.06 C 113.70 149.14 104.31 149.20 94.94 149.03 C 90.75 149.12 87.91 143.80 90.41 140.41 C 93.33 136.25 99.12 138.23 103.38 137.87 C 103.66 129.94 103.49 122.01 103.47 114.08 C 99.85 114.05 96.08 114.49 92.58 113.35 Z" />
</g>
</svg>
