<?xml version="1.0" encoding="UTF-8" ?>
<!DOCTYPE svg PUBLIC "-//W3C//DTD SVG 1.1//EN" "http://www.w3.org/Graphics/SVG/1.1/DTD/svg11.dtd">
<svg width="192pt" height="192pt" viewBox="0 0 192 192" version="1.1" xmlns="http://www.w3.org/2000/svg">
<g id="#ff7e1fff">
<path fill="#ff7e1f" opacity="1.00" d=" M 18.24 38.94 C 18.01 28.30 27.27 18.61 37.92 18.39 C 50.63 18.23 63.33 18.41 76.04 18.31 C 78.37 18.27 81.11 18.25 82.68 20.31 C 86.91 25.23 90.96 30.31 95.11 35.29 C 110.36 35.48 125.61 35.11 140.85 35.47 C 146.93 36.13 146.79 46.14 140.64 46.50 C 125.42 46.76 110.19 46.50 94.96 46.62 C 92.64 46.55 89.80 46.93 88.16 44.86 C 83.73 39.86 79.77 34.45 75.24 29.53 C 63.16 29.70 51.08 29.52 39.00 29.62 C 33.55 29.40 28.98 34.61 29.45 39.95 C 29.51 76.57 29.34 113.21 29.54 149.84 C 29.82 155.68 36.17 158.35 41.31 157.49 C 41.38 129.30 41.24 101.11 41.38 72.93 C 41.51 63.85 49.88 56.00 58.94 56.40 C 91.32 56.42 123.70 56.36 156.07 56.42 C 165.21 56.43 173.15 64.83 172.78 73.94 C 172.76 99.32 172.85 124.70 172.73 150.08 C 172.53 160.23 163.20 169.07 153.05 168.71 C 114.68 168.72 76.31 168.72 37.94 168.71 C 27.41 169.10 17.91 159.58 18.23 149.06 C 18.21 112.35 18.20 75.65 18.24 38.94 M 52.64 73.98 C 52.59 101.79 52.63 129.61 52.62 157.43 C 86.08 157.48 119.54 157.49 152.99 157.43 C 157.57 157.65 161.67 153.56 161.52 149.00 C 161.57 124.00 161.56 99.00 161.52 74.00 C 161.75 70.50 158.52 67.34 155.03 67.67 C 123.01 67.65 90.99 67.65 58.97 67.67 C 55.52 67.41 52.38 70.52 52.64 73.98 Z" />
<path fill="#ff7e1f" opacity="1.00" d=" M 97.38 77.45 C 102.77 77.14 108.23 77.09 113.61 77.48 C 116.10 78.76 116.68 81.94 118.06 84.19 C 122.82 85.09 129.39 82.15 132.93 86.18 C 133.18 89.97 134.97 95.85 130.92 98.14 C 126.67 99.32 125.83 94.34 126.20 91.29 C 122.47 91.24 118.72 91.50 115.00 91.19 C 112.25 90.11 111.67 86.76 110.35 84.43 C 107.11 84.23 103.86 84.28 100.62 84.37 C 99.25 86.70 98.65 89.97 95.99 91.18 C 92.26 91.51 88.51 91.25 84.78 91.28 C 85.07 94.30 84.28 99.23 80.07 98.17 C 75.88 95.93 77.85 89.93 77.97 86.09 C 81.66 82.24 88.06 85.06 92.86 84.19 C 94.27 81.95 94.79 78.62 97.38 77.45 Z" />
<path fill="#ff7e1f" opacity="1.00" d=" M 81.17 105.98 C 80.62 103.71 82.59 101.35 84.96 101.69 C 95.30 101.66 105.66 101.60 116.00 101.72 C 120.00 101.47 120.58 108.06 116.68 108.57 C 107.30 108.94 97.88 108.61 88.49 108.71 C 89.28 119.14 90.35 129.54 91.25 139.96 C 100.72 140.03 110.19 140.02 119.65 139.96 C 120.85 128.03 121.57 116.03 123.07 104.14 C 123.81 100.40 130.06 101.24 129.75 105.06 C 128.88 117.78 127.50 130.47 126.40 143.18 C 126.52 145.53 124.42 147.46 122.09 147.12 C 111.03 147.14 99.97 147.13 88.92 147.12 C 86.69 147.45 84.44 145.74 84.53 143.41 C 83.39 130.94 82.19 118.47 81.17 105.98 Z" />
</g>
</svg>
