<?xml version="1.0" encoding="UTF-8" ?>
<!DOCTYPE svg PUBLIC "-//W3C//DTD SVG 1.1//EN" "http://www.w3.org/Graphics/SVG/1.1/DTD/svg11.dtd">
<svg width="192pt" height="192pt" viewBox="0 0 192 192" version="1.1" xmlns="http://www.w3.org/2000/svg">
<g id="#ff831fff">
<path fill="#ff831f" opacity="1.00" d=" M 18.25 38.93 C 18.03 28.30 27.28 18.62 37.92 18.40 C 50.62 18.24 63.33 18.42 76.03 18.31 C 78.36 18.28 81.10 18.25 82.67 20.32 C 86.92 25.22 90.96 30.31 95.11 35.30 C 110.35 35.49 125.61 35.10 140.84 35.48 C 146.82 36.10 146.85 45.88 140.86 46.47 C 125.57 46.80 110.26 46.47 94.96 46.62 C 92.64 46.55 89.80 46.92 88.16 44.86 C 83.74 39.86 79.76 34.47 75.26 29.53 C 63.17 29.70 51.08 29.51 38.99 29.61 C 33.54 29.39 28.98 34.61 29.45 39.94 C 29.51 76.57 29.33 113.21 29.54 149.84 C 29.82 155.70 36.17 158.31 41.31 157.51 C 41.38 129.32 41.24 101.12 41.39 72.92 C 41.52 63.85 49.88 56.00 58.94 56.40 C 91.32 56.42 123.70 56.35 156.08 56.42 C 165.22 56.42 173.15 64.83 172.79 73.94 C 172.80 98.98 172.82 124.02 172.79 149.06 C 173.09 159.59 163.60 169.10 153.06 168.73 C 114.69 168.74 76.31 168.73 37.94 168.71 C 27.41 169.09 17.91 159.58 18.23 149.06 C 18.21 112.35 18.21 75.64 18.25 38.93 M 52.64 73.97 C 52.58 101.79 52.64 129.61 52.63 157.43 C 86.08 157.47 119.54 157.48 152.99 157.41 C 157.57 157.64 161.66 153.56 161.50 148.99 C 161.56 124.00 161.56 98.99 161.51 74.00 C 161.73 70.50 158.53 67.36 155.03 67.68 C 123.01 67.66 90.99 67.64 58.97 67.67 C 55.52 67.40 52.38 70.51 52.64 73.97 Z" />
<path fill="#ff831f" opacity="1.00" d=" M 73.13 84.92 C 72.87 82.08 74.94 79.18 77.98 79.46 C 91.86 79.42 105.77 79.26 119.64 79.54 C 124.60 80.16 125.04 88.32 119.74 88.71 C 107.39 89.12 95.00 88.73 82.63 88.89 C 82.59 100.60 82.60 112.32 82.62 124.04 C 87.80 124.45 93.26 123.19 98.27 124.78 C 101.90 128.14 104.41 132.54 107.86 136.10 C 111.02 132.25 113.67 127.82 117.55 124.64 C 122.47 123.31 127.76 124.41 132.83 124.02 C 132.94 110.67 132.65 97.30 132.96 83.96 C 132.69 78.62 141.23 77.87 142.15 82.98 C 142.73 97.29 142.20 111.66 142.42 125.99 C 142.58 128.77 142.29 132.56 138.97 133.31 C 133.47 133.96 127.91 133.17 122.40 133.65 C 116.53 137.53 114.44 147.41 106.98 148.35 C 101.12 145.15 98.06 138.40 93.64 133.51 C 88.09 133.44 82.53 133.77 76.99 133.38 C 74.37 133.03 72.95 130.53 73.14 128.05 C 73.10 113.68 73.11 99.30 73.13 84.92 Z" />
<path fill="#ff831f" opacity="1.00" d=" M 91.43 94.57 C 101.58 93.89 111.83 94.44 122.01 94.29 C 125.70 93.88 129.06 98.44 126.56 101.61 C 124.90 104.15 121.63 103.78 119.01 103.79 C 110.05 103.63 101.08 103.97 92.13 103.63 C 87.22 103.49 86.70 95.47 91.43 94.57 Z" />
<path fill="#ff831f" opacity="1.00" d=" M 91.32 109.46 C 98.14 108.81 105.08 109.17 111.93 109.26 C 116.99 109.48 117.69 117.58 112.63 118.45 C 105.83 118.85 98.96 118.69 92.14 118.53 C 87.27 118.46 86.70 110.52 91.32 109.46 Z" />
</g>
</svg>
