<?xml version="1.0" encoding="UTF-8" ?>
<!DOCTYPE svg PUBLIC "-//W3C//DTD SVG 1.1//EN" "http://www.w3.org/Graphics/SVG/1.1/DTD/svg11.dtd">
<svg width="192pt" height="192pt" viewBox="0 0 192 192" version="1.1" xmlns="http://www.w3.org/2000/svg">
<g id="#19aeffff">
<path fill="#19aeff" opacity="1.00" d=" M 18.27 38.95 C 18.03 28.32 27.29 18.64 37.92 18.41 C 50.96 18.28 64.01 18.41 77.05 18.34 C 79.09 18.26 81.34 18.59 82.66 20.32 C 86.89 25.23 90.95 30.29 95.08 35.29 C 110.34 35.51 125.61 35.10 140.85 35.47 C 146.82 36.13 146.84 45.85 140.87 46.48 C 125.58 46.78 110.27 46.47 94.98 46.61 C 92.65 46.55 89.82 46.90 88.16 44.85 C 83.73 39.84 79.77 34.40 75.22 29.49 C 63.15 29.70 51.07 29.49 39.00 29.59 C 33.54 29.36 28.94 34.60 29.43 39.95 C 29.50 76.58 29.33 113.22 29.53 149.85 C 29.83 155.69 36.17 158.36 41.31 157.48 C 41.39 129.30 41.26 101.11 41.40 72.92 C 41.54 64.24 49.23 56.53 57.93 56.44 C 90.64 56.38 123.36 56.38 156.08 56.41 C 165.22 56.42 173.16 64.84 172.80 73.95 C 172.81 98.99 172.83 124.03 172.80 149.06 C 173.09 159.59 163.60 169.10 153.05 168.74 C 114.68 168.75 76.31 168.73 37.95 168.70 C 27.42 169.08 17.92 159.58 18.24 149.06 C 18.23 112.36 18.24 75.65 18.27 38.95 M 52.63 73.99 C 52.58 101.80 52.62 129.61 52.63 157.42 C 86.08 157.48 119.53 157.47 152.99 157.40 C 157.56 157.63 161.64 153.56 161.50 149.01 C 161.56 124.01 161.55 99.00 161.51 74.00 C 161.74 70.48 158.52 67.36 155.01 67.68 C 123.00 67.65 90.99 67.64 58.98 67.65 C 55.52 67.38 52.34 70.51 52.63 73.99 Z" />
<path fill="#19aeff" opacity="1.00" d=" M 75.49 89.48 C 79.58 86.52 82.69 78.98 88.64 81.42 C 96.78 84.09 104.91 86.78 113.05 89.42 C 116.16 86.72 118.77 83.46 122.07 80.99 C 126.63 80.57 131.31 80.46 135.84 81.07 C 139.25 83.57 137.27 88.45 137.81 92.02 C 138.92 98.14 132.40 101.02 129.22 105.15 C 131.87 113.61 134.84 121.97 137.50 130.43 C 138.79 134.11 134.54 136.18 132.62 138.61 C 130.32 140.79 127.05 145.64 123.73 142.24 C 119.51 135.93 115.95 129.18 111.92 122.74 C 110.43 124.10 108.99 125.50 107.59 126.94 C 107.99 129.87 109.31 132.87 108.75 135.82 C 106.27 139.22 102.99 141.99 100.02 144.97 C 98.71 146.47 96.32 146.44 95.02 144.96 C 90.66 139.59 89.10 131.57 82.05 128.87 C 78.96 126.29 72.25 125.24 73.16 120.10 C 75.98 116.35 79.48 113.04 83.06 110.00 C 86.02 109.42 89.03 110.75 91.97 111.16 C 94.79 108.54 97.26 105.53 100.24 103.08 C 103.21 100.89 107.25 105.09 105.14 108.01 C 102.46 111.35 99.23 114.22 96.23 117.27 C 93.41 120.32 89.03 117.67 85.65 117.30 C 84.61 118.38 83.63 119.51 82.74 120.71 C 89.89 123.87 95.10 129.27 98.22 136.42 C 99.31 135.35 100.40 134.27 101.48 133.20 C 101.04 130.27 99.63 127.22 100.32 124.28 C 103.15 120.54 106.79 117.44 110.09 114.11 C 111.72 112.21 114.86 112.94 115.85 115.12 C 119.66 121.30 123.26 127.62 127.06 133.82 C 128.03 132.82 129.01 131.83 129.99 130.84 C 127.41 122.83 124.70 114.87 122.06 106.88 C 119.58 100.79 127.58 97.73 130.49 93.50 C 130.51 91.71 130.54 89.93 130.60 88.14 C 128.75 88.13 126.91 88.12 125.07 88.09 C 120.52 91.22 117.15 99.70 110.60 96.38 C 102.73 93.75 94.83 91.23 86.97 88.59 C 85.95 89.60 84.94 90.62 83.93 91.64 C 87.07 93.99 94.29 95.55 92.01 100.77 C 88.60 104.89 84.10 99.83 80.68 98.28 C 77.45 96.72 71.44 93.51 75.49 89.48 Z" />
</g>
</svg>
