<?xml version="1.0" encoding="UTF-8" ?>
<!DOCTYPE svg PUBLIC "-//W3C//DTD SVG 1.1//EN" "http://www.w3.org/Graphics/SVG/1.1/DTD/svg11.dtd">
<svg width="192pt" height="192pt" viewBox="0 0 192 192" version="1.1" xmlns="http://www.w3.org/2000/svg">
<g id="#ff3660ff">
<path fill="#ff3660" opacity="1.00" d=" M 18.25 38.93 C 18.02 28.30 27.28 18.62 37.92 18.40 C 50.62 18.24 63.33 18.42 76.03 18.31 C 78.36 18.29 81.10 18.25 82.67 20.31 C 86.92 25.22 90.96 30.33 95.13 35.31 C 110.37 35.47 125.62 35.11 140.85 35.48 C 146.82 36.11 146.84 45.89 140.85 46.47 C 125.57 46.80 110.26 46.47 94.96 46.62 C 92.64 46.54 89.80 46.93 88.16 44.86 C 83.75 39.87 79.76 34.50 75.29 29.54 C 63.19 29.68 51.08 29.52 38.99 29.61 C 33.55 29.40 28.98 34.61 29.45 39.94 C 29.51 76.57 29.33 113.21 29.54 149.85 C 29.82 155.70 36.17 158.34 41.31 157.50 C 41.39 129.31 41.24 101.11 41.39 72.93 C 41.52 63.85 49.88 56.00 58.94 56.40 C 91.31 56.42 123.69 56.36 156.07 56.42 C 165.20 56.42 173.15 64.83 172.78 73.93 C 172.80 98.98 172.81 124.02 172.78 149.06 C 173.09 159.59 163.60 169.11 153.05 168.72 C 114.68 168.73 76.31 168.73 37.94 168.71 C 27.41 169.10 17.91 159.58 18.24 149.06 C 18.22 112.35 18.21 75.64 18.25 38.93 M 52.64 73.97 C 52.58 101.79 52.64 129.61 52.62 157.43 C 86.08 157.49 119.54 157.48 153.00 157.42 C 157.57 157.64 161.66 153.56 161.51 149.00 C 161.56 124.00 161.56 99.00 161.51 74.00 C 161.74 70.50 158.53 67.36 155.03 67.68 C 123.01 67.65 90.98 67.64 58.96 67.67 C 55.51 67.41 52.38 70.51 52.64 73.97 Z" />
<path fill="#ff3660" opacity="1.00" d=" M 101.56 84.37 C 102.96 78.57 112.14 78.48 113.69 84.24 C 114.50 91.69 113.80 99.24 114.05 106.73 C 121.61 107.00 129.27 106.18 136.78 107.15 C 142.96 109.15 141.67 119.46 135.02 119.48 C 116.67 119.60 98.31 119.60 79.97 119.46 C 73.44 119.35 72.13 109.21 78.23 107.19 C 85.82 106.14 93.59 107.02 101.25 106.73 C 101.49 99.28 100.88 91.78 101.56 84.37 Z" />
<path fill="#ff3660" opacity="1.00" d=" M 105.23 125.32 C 109.51 123.42 114.58 127.32 114.02 131.92 C 113.70 136.34 115.48 142.20 111.33 145.30 C 107.37 148.38 100.99 145.02 101.30 140.03 C 101.59 135.10 99.48 127.84 105.23 125.32 Z" />
</g>
</svg>
