<?xml version="1.0" encoding="UTF-8" ?>
<!DOCTYPE svg PUBLIC "-//W3C//DTD SVG 1.1//EN" "http://www.w3.org/Graphics/SVG/1.1/DTD/svg11.dtd">
<svg width="192pt" height="192pt" viewBox="0 0 192 192" version="1.1" xmlns="http://www.w3.org/2000/svg">
<g id="#ff365cff">
<path fill="#ff365c" opacity="1.00" d=" M 18.21 42.01 C 16.79 30.72 25.46 19.17 37.02 18.46 C 49.68 18.15 62.36 18.47 75.03 18.31 C 77.64 18.36 80.84 17.96 82.66 20.31 C 86.94 25.21 90.95 30.34 95.14 35.32 C 110.37 35.47 125.61 35.10 140.83 35.48 C 146.83 36.07 146.86 45.92 140.84 46.47 C 125.56 46.81 110.25 46.47 94.96 46.63 C 92.64 46.54 89.82 46.91 88.18 44.87 C 83.75 39.89 79.76 34.52 75.31 29.55 C 63.20 29.68 51.09 29.51 38.98 29.62 C 33.53 29.41 28.99 34.61 29.45 39.94 C 29.52 76.57 29.33 113.21 29.55 149.83 C 29.80 155.71 36.17 158.29 41.31 157.53 C 41.39 129.33 41.23 101.13 41.39 72.94 C 41.51 63.86 49.86 56.00 58.93 56.40 C 91.30 56.42 123.68 56.35 156.06 56.42 C 165.20 56.41 173.15 64.82 172.79 73.93 C 172.80 98.98 172.82 124.03 172.78 149.08 C 173.08 159.60 163.60 169.11 153.07 168.72 C 114.69 168.74 76.31 168.73 37.93 168.71 C 27.40 169.09 17.92 159.59 18.23 149.07 C 18.19 113.39 18.26 77.70 18.21 42.01 M 52.65 73.96 C 52.57 101.78 52.64 129.60 52.63 157.43 C 86.09 157.48 119.55 157.49 153.01 157.42 C 157.59 157.63 161.66 153.55 161.50 148.98 C 161.56 123.99 161.56 99.00 161.51 74.01 C 161.74 70.51 158.56 67.38 155.05 67.69 C 123.02 67.65 90.98 67.64 58.95 67.68 C 55.50 67.43 52.40 70.50 52.65 73.96 Z" />
<path fill="#ff365c" opacity="1.00" d=" M 93.80 84.75 C 97.52 78.22 106.54 75.34 113.29 78.79 C 119.21 81.21 122.42 87.84 122.17 94.00 C 122.05 101.34 122.44 108.69 121.96 116.01 C 121.13 125.09 110.93 131.81 102.29 128.71 C 95.68 126.83 90.86 119.83 91.76 112.99 C 92.69 109.12 97.25 108.89 99.98 111.01 C 100.80 113.88 100.67 117.65 103.57 119.36 C 107.09 121.55 112.62 119.33 112.82 114.96 C 113.08 107.31 113.06 99.62 112.83 91.96 C 112.84 87.51 107.00 84.94 103.55 87.52 C 96.77 91.99 105.38 104.26 96.01 106.55 C 94.11 105.58 91.49 104.62 91.66 102.01 C 91.53 96.25 90.70 89.93 93.80 84.75 Z" />
<path fill="#ff365c" opacity="1.00" d=" M 77.32 114.99 C 76.81 111.70 80.73 108.14 83.84 110.02 C 86.59 111.20 86.37 114.51 86.77 116.97 C 87.71 126.44 96.40 134.22 105.86 134.47 C 113.72 134.59 112.05 145.21 110.07 150.17 C 105.26 152.56 101.19 148.35 102.07 143.47 C 88.46 141.19 77.48 128.85 77.32 114.99 Z" />
<path fill="#ff365c" opacity="1.00" d=" M 127.93 111.00 C 130.69 108.96 135.32 109.06 136.21 113.00 C 136.96 124.19 130.39 135.88 120.00 140.47 C 115.66 139.99 113.37 134.03 117.52 131.61 C 124.87 127.41 127.29 118.90 127.93 111.00 Z" />
</g>
</svg>
