<?xml version="1.0" encoding="UTF-8" ?>
<!DOCTYPE svg PUBLIC "-//W3C//DTD SVG 1.1//EN" "http://www.w3.org/Graphics/SVG/1.1/DTD/svg11.dtd">
<svg width="192pt" height="192pt" viewBox="0 0 192 192" version="1.1" xmlns="http://www.w3.org/2000/svg">
<g id="#f6b02bff">
<path fill="#f6b02b" opacity="1.00" d=" M 41.00 32.40 C 34.89 31.90 35.04 21.86 41.15 21.52 C 76.45 21.30 111.76 21.44 147.07 21.43 C 159.46 21.37 170.33 32.61 170.00 44.98 C 170.05 79.00 170.07 113.03 169.99 147.05 C 170.04 159.24 159.21 170.02 147.05 170.07 C 113.02 170.16 78.99 170.13 44.97 170.09 C 32.58 170.34 21.32 159.51 21.41 147.06 C 21.40 114.71 21.36 82.35 21.44 49.99 C 21.28 46.02 25.22 43.07 29.00 43.55 C 66.67 43.55 104.34 43.52 142.00 43.54 C 145.13 43.22 148.36 45.67 148.22 48.96 C 148.31 54.31 148.43 59.68 148.15 65.02 C 147.81 70.07 140.23 71.44 137.92 67.05 C 136.23 63.26 137.24 58.89 136.85 54.86 C 102.06 54.76 67.26 54.59 32.47 54.91 C 32.55 85.60 32.43 116.30 32.54 147.00 C 32.58 153.45 38.48 159.09 44.93 158.85 C 78.64 158.88 112.35 158.86 146.06 158.86 C 152.99 159.27 159.25 152.99 158.82 146.06 C 158.83 112.35 158.87 78.64 158.81 44.92 C 159.02 38.51 153.39 32.69 147.00 32.58 C 111.67 32.40 76.32 32.72 41.00 32.40 Z" />
</g>
</svg>
