<?xml version="1.0" encoding="UTF-8" ?>
<!DOCTYPE svg PUBLIC "-//W3C//DTD SVG 1.1//EN" "http://www.w3.org/Graphics/SVG/1.1/DTD/svg11.dtd">
<svg width="192pt" height="192pt" viewBox="0 0 192 192" version="1.1" xmlns="http://www.w3.org/2000/svg">
<g id="#46b7f5ff">
<path fill="#46b7f5" opacity="1.00" d=" M 18.29 40.95 C 18.04 30.33 27.30 20.64 37.93 20.43 C 51.28 20.31 64.65 20.39 78.01 20.37 C 80.05 20.22 81.94 21.25 83.15 22.86 C 87.12 27.65 91.12 32.42 95.02 37.26 C 110.30 37.57 125.59 37.10 140.86 37.47 C 146.81 38.14 146.82 47.85 140.86 48.47 C 125.57 48.76 110.27 48.47 94.98 48.60 C 92.64 48.56 89.82 48.88 88.17 46.84 C 83.71 41.82 79.78 36.35 75.18 31.47 C 63.12 31.71 51.06 31.47 39.01 31.57 C 33.55 31.34 28.92 36.59 29.42 41.95 C 29.48 78.58 29.33 115.22 29.52 151.85 C 29.82 157.68 36.17 160.42 41.32 159.46 C 41.40 131.28 41.27 103.10 41.41 74.92 C 41.55 66.21 49.30 58.49 58.03 58.45 C 90.67 58.40 123.32 58.39 155.97 58.41 C 164.76 58.38 172.62 66.14 172.75 74.92 C 172.86 100.30 172.80 125.68 172.80 151.05 C 173.09 161.59 163.59 171.11 153.04 170.73 C 114.68 170.74 76.32 170.72 37.95 170.69 C 27.42 171.08 17.92 161.57 18.26 151.05 C 18.25 114.35 18.25 77.65 18.29 40.95 M 52.60 76.01 C 52.59 103.80 52.60 131.60 52.62 159.40 C 86.08 159.53 119.55 159.44 153.00 159.41 C 157.56 159.61 161.66 155.56 161.50 151.01 C 161.56 126.01 161.55 101.00 161.52 76.00 C 161.76 72.46 158.49 69.36 154.99 69.66 C 123.00 69.65 91.00 69.64 59.01 69.63 C 55.53 69.35 52.33 72.51 52.60 76.01 Z" />
<path fill="#46b7f5" opacity="1.00" d=" M 70.38 82.53 C 94.19 82.30 118.04 82.29 141.85 82.49 C 148.05 82.98 148.07 93.09 141.88 93.58 C 118.05 93.75 94.18 93.74 70.35 93.54 C 64.28 92.97 64.31 83.08 70.38 82.53 Z" />
<path fill="#46b7f5" opacity="1.00" d=" M 69.44 110.57 C 93.24 109.85 117.18 110.38 141.03 110.24 C 145.58 110.00 148.40 116.01 145.43 119.40 C 143.75 121.84 140.59 121.59 138.00 121.60 C 115.47 121.45 92.91 121.74 70.39 121.42 C 64.79 120.87 64.07 112.12 69.44 110.57 Z" />
<path fill="#46b7f5" opacity="1.00" d=" M 69.38 138.49 C 93.20 137.62 117.18 138.23 141.06 138.11 C 147.65 137.82 148.61 148.64 141.99 149.33 C 118.33 149.58 94.65 149.43 70.98 149.38 C 65.05 149.47 63.77 140.16 69.38 138.49 Z" />
</g>
</svg>
