<?xml version="1.0" encoding="UTF-8" ?>
<!DOCTYPE svg PUBLIC "-//W3C//DTD SVG 1.1//EN" "http://www.w3.org/Graphics/SVG/1.1/DTD/svg11.dtd">
<svg width="192pt" height="192pt" viewBox="0 0 192 192" version="1.1" xmlns="http://www.w3.org/2000/svg">
<g id="#c420d3ff">
<path fill="#c420d3" opacity="1.00" d=" M 40.99 32.39 C 34.84 31.93 35.03 21.81 41.16 21.53 C 76.45 21.26 111.76 21.44 147.06 21.43 C 159.46 21.36 170.31 32.59 169.99 44.96 C 170.05 79.00 170.08 113.04 169.98 147.07 C 170.01 159.25 159.21 170.01 147.06 170.06 C 113.03 170.19 78.98 170.13 44.95 170.08 C 32.55 170.34 21.30 159.51 21.40 147.06 C 21.39 114.71 21.33 82.35 21.44 50.00 C 21.27 46.01 25.20 43.09 28.99 43.55 C 66.67 43.54 104.35 43.51 142.02 43.55 C 145.15 43.26 148.35 45.66 148.20 48.96 C 148.27 54.59 148.63 60.29 147.96 65.89 C 146.81 70.69 139.32 71.00 137.59 66.44 C 136.55 62.68 137.04 58.69 136.86 54.84 C 102.08 54.68 67.31 54.81 32.53 54.76 C 32.47 85.17 32.52 115.58 32.51 145.99 C 32.07 152.81 38.07 159.12 44.92 158.85 C 78.64 158.89 112.36 158.86 146.07 158.86 C 153.00 159.27 159.25 152.99 158.82 146.07 C 158.83 112.36 158.87 78.64 158.80 44.93 C 159.02 38.50 153.39 32.68 146.98 32.59 C 111.65 32.38 76.31 32.77 40.99 32.39 Z" />
</g>
</svg>
