<?xml version="1.0" encoding="UTF-8" ?>
<!DOCTYPE svg PUBLIC "-//W3C//DTD SVG 1.1//EN" "http://www.w3.org/Graphics/SVG/1.1/DTD/svg11.dtd">
<svg width="192pt" height="192pt" viewBox="0 0 192 192" version="1.1" xmlns="http://www.w3.org/2000/svg">
<g id="#496fc0ff">
<path fill="#496fc0" opacity="1.00" d=" M 18.28 38.95 C 18.03 28.34 27.30 18.64 37.92 18.43 C 51.28 18.31 64.65 18.38 78.02 18.37 C 80.06 18.22 81.94 19.25 83.15 20.86 C 87.17 25.63 91.11 30.48 95.08 35.28 C 110.34 35.53 125.62 35.09 140.87 35.47 C 146.83 36.13 146.85 45.89 140.88 46.50 C 125.59 46.81 110.27 46.49 94.97 46.63 C 92.64 46.56 89.79 46.94 88.15 44.87 C 83.72 39.86 79.77 34.43 75.22 29.53 C 63.14 29.68 51.07 29.52 39.00 29.59 C 33.58 29.39 28.94 34.61 29.44 39.94 C 29.50 76.58 29.34 113.22 29.54 149.85 C 29.83 155.67 36.16 158.39 41.30 157.47 C 41.40 129.29 41.25 101.10 41.40 72.92 C 41.55 64.21 49.30 56.49 58.03 56.45 C 90.67 56.39 123.32 56.38 155.97 56.40 C 165.17 56.35 173.18 64.80 172.82 73.96 C 172.84 98.99 172.87 124.02 172.84 149.05 C 173.12 159.60 163.62 169.18 153.04 168.77 C 114.68 168.78 76.32 168.75 37.96 168.72 C 27.41 169.15 17.89 159.57 18.24 149.05 C 18.24 112.35 18.25 75.65 18.28 38.95 M 52.63 73.98 C 52.56 101.76 52.68 129.53 52.60 157.31 C 85.75 157.65 118.91 157.33 152.06 157.43 C 156.90 157.96 161.66 153.99 161.47 149.01 C 161.53 124.01 161.53 99.00 161.49 73.99 C 161.69 70.48 158.48 67.40 154.99 67.70 C 123.00 67.68 91.00 67.66 59.01 67.65 C 55.56 67.40 52.35 70.50 52.63 73.98 Z" />
</g>
</svg>
