<?xml version="1.0" encoding="UTF-8" ?>
<!DOCTYPE svg PUBLIC "-//W3C//DTD SVG 1.1//EN" "http://www.w3.org/Graphics/SVG/1.1/DTD/svg11.dtd">
<svg width="192pt" height="192pt" viewBox="0 0 192 192" version="1.1" xmlns="http://www.w3.org/2000/svg">
<g id="#18adffff">
<path fill="#18adff" opacity="1.00" d=" M 18.27 38.96 C 18.02 28.33 27.28 18.64 37.91 18.42 C 50.95 18.27 64.00 18.41 77.05 18.34 C 79.09 18.25 81.35 18.59 82.67 20.33 C 86.88 25.24 90.95 30.27 95.06 35.27 C 110.33 35.53 125.62 35.10 140.88 35.47 C 146.81 36.16 146.83 45.83 140.89 46.47 C 125.59 46.78 110.28 46.47 94.98 46.61 C 92.64 46.56 89.83 46.89 88.16 44.86 C 83.73 39.84 79.77 34.39 75.20 29.49 C 63.14 29.71 51.07 29.49 39.01 29.59 C 33.56 29.36 28.94 34.59 29.43 39.94 C 29.49 76.58 29.33 113.23 29.53 149.87 C 29.84 155.68 36.17 158.39 41.31 157.46 C 41.39 129.28 41.26 101.10 41.40 72.92 C 41.54 64.24 49.23 56.53 57.93 56.44 C 90.64 56.38 123.36 56.38 156.08 56.41 C 164.83 56.44 172.63 64.18 172.76 72.92 C 172.87 98.29 172.81 123.67 172.81 149.04 C 173.10 159.59 163.60 169.12 153.03 168.74 C 114.68 168.75 76.32 168.73 37.97 168.70 C 27.42 169.10 17.91 159.57 18.24 149.04 C 18.23 112.35 18.23 75.66 18.27 38.96 M 52.62 74.01 C 52.59 101.81 52.61 129.62 52.63 157.42 C 86.08 157.49 119.53 157.46 152.97 157.41 C 157.54 157.63 161.64 153.57 161.50 149.02 C 161.56 124.01 161.55 98.99 161.51 73.98 C 161.73 70.46 158.50 67.36 154.99 67.67 C 123.00 67.65 91.00 67.64 59.00 67.65 C 55.52 67.37 52.33 70.52 52.62 74.01 Z" />
</g>
</svg>
