<?xml version="1.0" encoding="UTF-8" ?>
<!DOCTYPE svg PUBLIC "-//W3C//DTD SVG 1.1//EN" "http://www.w3.org/Graphics/SVG/1.1/DTD/svg11.dtd">
<svg width="192pt" height="192pt" viewBox="0 0 192 192" version="1.1" xmlns="http://www.w3.org/2000/svg">
<g id="#4a71c4ff">
<path fill="#4a71c4" opacity="1.00" d=" M 18.29 38.91 C 18.06 28.30 27.33 18.63 37.94 18.44 C 50.30 18.28 62.66 18.46 75.03 18.34 C 77.63 18.40 80.81 17.97 82.62 20.32 C 86.95 25.20 90.92 30.40 95.18 35.35 C 110.39 35.47 125.63 35.11 140.83 35.49 C 146.84 36.06 146.86 45.96 140.84 46.48 C 125.55 46.83 110.24 46.47 94.95 46.63 C 92.64 46.54 89.82 46.92 88.19 44.87 C 83.77 39.90 79.76 34.56 75.37 29.56 C 63.23 29.64 51.09 29.51 38.95 29.60 C 33.53 29.41 28.96 34.62 29.43 39.95 C 29.50 76.57 29.32 113.21 29.55 149.83 C 29.79 155.72 36.17 158.29 41.31 157.55 C 41.37 129.67 41.31 101.80 41.37 73.92 C 41.04 64.87 48.89 56.50 57.99 56.46 C 90.66 56.39 123.32 56.38 155.98 56.41 C 165.16 56.36 173.15 64.78 172.81 73.91 C 172.83 98.97 172.86 124.03 172.83 149.09 C 173.09 159.61 163.64 169.14 153.08 168.76 C 114.70 168.77 76.31 168.74 37.92 168.71 C 27.39 169.11 17.92 159.58 18.25 149.08 C 18.24 112.36 18.25 75.63 18.29 38.91 M 52.63 73.93 C 52.55 101.76 52.65 129.59 52.62 157.43 C 86.07 157.47 119.52 157.46 152.96 157.39 C 157.54 157.60 161.64 153.57 161.47 148.98 C 161.54 123.99 161.55 99.00 161.48 74.01 C 161.70 70.47 158.48 67.40 154.96 67.70 C 122.99 67.66 91.01 67.65 59.03 67.65 C 55.59 67.40 52.39 70.44 52.63 73.93 Z" />
<path fill="#4a71c4" opacity="1.00" d=" M 106.91 91.01 C 105.57 85.40 110.09 77.43 116.33 78.66 C 123.83 85.07 130.39 92.60 137.56 99.42 C 142.57 103.69 135.68 110.31 131.07 110.96 C 125.54 110.10 122.94 115.52 119.30 118.54 C 119.05 125.00 119.57 131.50 119.04 137.95 C 118.78 141.30 113.98 142.74 111.87 140.12 C 107.13 135.60 102.65 130.82 97.98 126.23 C 91.91 132.08 86.20 138.32 79.99 144.01 C 76.41 147.17 70.80 141.57 74.03 138.03 C 80.63 131.00 87.66 124.35 94.41 117.44 C 95.85 115.68 98.66 114.89 100.49 116.57 C 104.01 119.74 107.31 123.19 110.51 126.70 C 110.74 121.57 108.53 114.98 113.41 111.41 C 117.88 107.72 121.16 101.45 127.71 101.57 C 123.68 98.48 119.88 95.08 116.48 91.31 C 115.16 97.27 109.73 100.68 105.88 104.93 C 102.44 109.01 96.64 107.28 92.03 107.50 C 96.33 110.33 93.93 117.97 88.66 116.36 C 84.63 113.48 81.45 109.54 77.91 106.09 C 74.93 103.69 77.22 98.45 80.93 98.73 C 87.09 98.48 93.27 98.76 99.43 98.63 C 101.92 96.08 104.45 93.58 106.91 91.01 Z" />
</g>
</svg>
