<?xml version="1.0" encoding="UTF-8" ?>
<!DOCTYPE svg PUBLIC "-//W3C//DTD SVG 1.1//EN" "http://www.w3.org/Graphics/SVG/1.1/DTD/svg11.dtd">
<svg width="192pt" height="192pt" viewBox="0 0 192 192" version="1.1" xmlns="http://www.w3.org/2000/svg">
<g id="#464d5dff">
<path fill="#464d5d" opacity="1.00" d=" M 18.23 38.94 C 17.98 27.92 27.92 18.06 38.93 18.36 C 52.72 18.54 66.59 17.88 80.33 18.68 C 86.29 23.04 90.07 29.88 95.09 35.28 C 110.34 35.53 125.61 35.04 140.84 35.50 C 146.85 36.02 146.89 46.04 140.87 46.51 C 125.59 46.87 110.28 46.51 94.98 46.68 C 92.64 46.54 89.74 47.04 88.12 44.91 C 83.67 39.93 79.75 34.49 75.18 29.61 C 63.11 29.74 51.03 29.54 38.97 29.68 C 33.54 29.52 29.01 34.66 29.48 40.00 C 29.50 76.33 29.43 112.67 29.53 149.00 C 29.21 155.28 35.85 158.36 41.29 157.54 C 41.37 129.34 41.21 101.13 41.38 72.93 C 41.52 63.81 49.91 55.99 59.01 56.40 C 91.33 56.42 123.66 56.35 155.98 56.42 C 165.16 56.36 173.17 64.80 172.80 73.94 C 172.82 98.98 172.83 124.02 172.80 149.06 C 173.15 159.60 163.63 169.23 153.05 168.76 C 114.68 168.77 76.31 168.76 37.95 168.75 C 27.37 169.23 17.86 159.59 18.22 149.06 C 18.20 112.36 18.19 75.65 18.23 38.94 M 52.68 73.96 C 52.58 101.78 52.68 129.60 52.65 157.42 C 85.76 157.51 118.88 157.43 151.99 157.45 C 156.87 157.98 161.71 154.05 161.47 149.00 C 161.56 124.33 161.48 99.66 161.51 74.99 C 162.00 71.22 159.01 67.41 155.05 67.74 C 123.02 67.68 90.99 67.68 58.96 67.72 C 55.53 67.48 52.45 70.53 52.68 73.96 Z" />
</g>
</svg>
