<?xml version="1.0" encoding="UTF-8" ?>
<!DOCTYPE svg PUBLIC "-//W3C//DTD SVG 1.1//EN" "http://www.w3.org/Graphics/SVG/1.1/DTD/svg11.dtd">
<svg width="192pt" height="192pt" viewBox="0 0 192 192" version="1.1" xmlns="http://www.w3.org/2000/svg">
<g id="#44c2daff">
<path fill="#44c2da" opacity="1.00" d=" M 40.97 32.40 C 34.83 31.91 35.03 21.80 41.16 21.52 C 76.45 21.25 111.76 21.44 147.05 21.43 C 159.45 21.36 170.30 32.58 169.99 44.94 C 170.00 78.99 170.03 113.04 169.93 147.09 C 170.04 159.25 159.19 169.99 147.08 170.04 C 113.03 170.19 78.98 170.12 44.93 170.08 C 32.54 170.34 21.31 159.49 21.40 147.05 C 21.39 114.70 21.33 82.35 21.43 50.00 C 21.26 46.01 25.18 43.08 28.98 43.54 C 66.66 43.53 104.35 43.51 142.04 43.55 C 145.15 43.27 148.34 45.65 148.20 48.94 C 148.26 54.58 148.63 60.28 147.96 65.88 C 146.81 70.68 139.33 70.99 137.60 66.44 C 136.55 62.68 137.06 58.69 136.86 54.84 C 102.09 54.68 67.31 54.82 32.54 54.77 C 32.47 85.18 32.52 115.59 32.51 146.01 C 32.08 152.81 38.07 159.11 44.92 158.85 C 78.64 158.89 112.37 158.86 146.09 158.86 C 153.01 159.28 159.25 153.00 158.83 146.09 C 158.83 112.37 158.87 78.65 158.80 44.92 C 159.02 38.49 153.38 32.67 146.97 32.58 C 111.65 32.38 76.29 32.77 40.97 32.40 Z" />
</g>
</svg>
