<?xml version="1.0" encoding="UTF-8" ?>
<!DOCTYPE svg PUBLIC "-//W3C//DTD SVG 1.1//EN" "http://www.w3.org/Graphics/SVG/1.1/DTD/svg11.dtd">
<svg width="192pt" height="192pt" viewBox="0 0 192 192" version="1.1" xmlns="http://www.w3.org/2000/svg">
<g id="#ab1dffff">
<path fill="#ab1dff" opacity="1.00" d=" M 18.27 38.94 C 18.03 28.32 27.29 18.62 37.93 18.41 C 50.97 18.27 64.01 18.41 77.05 18.33 C 79.09 18.26 81.34 18.59 82.66 20.32 C 86.90 25.23 90.95 30.31 95.10 35.30 C 110.34 35.50 125.60 35.12 140.84 35.47 C 146.92 36.12 146.79 46.12 140.64 46.49 C 125.42 46.74 110.18 46.48 94.96 46.61 C 92.64 46.55 89.82 46.89 88.17 44.85 C 83.73 39.84 79.77 34.40 75.21 29.49 C 63.14 29.71 51.07 29.49 38.99 29.59 C 33.55 29.38 28.95 34.60 29.43 39.94 C 29.50 76.57 29.33 113.21 29.53 149.83 C 29.81 155.68 36.17 158.37 41.32 157.49 C 41.39 129.31 41.26 101.12 41.40 72.94 C 41.53 64.25 49.23 56.53 57.93 56.45 C 90.64 56.38 123.35 56.39 156.06 56.42 C 165.20 56.42 173.15 64.83 172.78 73.94 C 172.77 99.32 172.87 124.70 172.74 150.08 C 172.52 160.23 163.21 169.07 153.05 168.72 C 114.68 168.73 76.31 168.72 37.94 168.70 C 27.42 169.08 17.93 159.58 18.25 149.06 C 18.23 112.36 18.23 75.65 18.27 38.94 M 52.63 73.98 C 52.55 101.77 52.67 129.56 52.58 157.35 C 86.04 157.60 119.51 157.42 152.98 157.43 C 157.55 157.63 161.67 153.57 161.51 148.99 C 161.56 124.00 161.56 99.00 161.52 74.01 C 161.76 70.50 158.54 67.34 155.03 67.67 C 123.01 67.64 90.99 67.63 58.97 67.65 C 55.52 67.38 52.35 70.51 52.63 73.98 Z" />
<path fill="#ab1dff" opacity="1.00" d=" M 73.14 103.02 C 76.79 84.42 98.35 72.21 116.18 78.73 C 133.06 83.70 143.45 103.37 138.15 120.12 C 134.28 134.52 119.90 145.01 105.02 144.50 C 89.28 144.30 74.59 131.74 72.65 116.01 C 72.54 113.22 75.44 111.62 77.92 111.91 C 84.64 112.18 91.37 112.60 98.09 112.11 C 97.62 104.48 93.97 97.61 89.72 91.44 C 85.21 95.13 82.42 100.42 80.95 105.98 C 78.18 108.61 72.98 107.20 73.14 103.02 M 97.14 87.06 C 102.37 94.49 105.88 103.09 106.96 112.13 C 107.41 103.32 108.02 94.45 110.85 86.00 C 106.25 85.34 101.58 85.68 97.14 87.06 M 118.56 89.94 C 116.91 96.35 115.71 102.90 115.96 109.55 C 120.85 108.42 125.60 106.78 130.17 104.73 C 128.44 98.74 124.91 91.89 118.56 89.94 M 117.03 118.26 C 118.16 122.42 119.40 126.65 121.83 130.27 C 126.72 126.16 129.81 120.29 130.76 113.99 C 126.27 115.67 121.72 117.23 117.03 118.26 M 106.53 120.16 C 105.79 125.53 104.10 130.70 102.05 135.71 C 106.11 136.05 110.18 135.73 114.10 134.62 C 112.26 129.78 109.82 125.16 108.71 120.06 C 108.17 120.08 107.07 120.13 106.53 120.16 M 82.73 120.75 C 85.01 125.87 89.09 130.04 93.86 132.89 C 95.72 129.05 96.96 124.95 97.73 120.76 C 92.74 121.14 87.72 121.20 82.73 120.75 Z" />
</g>
</svg>
