<?xml version="1.0" encoding="UTF-8" ?>
<!DOCTYPE svg PUBLIC "-//W3C//DTD SVG 1.1//EN" "http://www.w3.org/Graphics/SVG/1.1/DTD/svg11.dtd">
<svg width="192pt" height="192pt" viewBox="0 0 192 192" version="1.1" xmlns="http://www.w3.org/2000/svg">
<g id="#4d75cdff">
<path fill="#4d75cd" opacity="1.00" d=" M 18.24 38.95 C 18.01 28.31 27.27 18.60 37.92 18.40 C 50.28 18.22 62.64 18.43 75.01 18.30 C 77.64 18.35 80.84 17.96 82.66 20.32 C 86.92 25.20 90.95 30.29 95.08 35.28 C 110.34 35.51 125.62 35.07 140.87 35.49 C 146.83 36.11 146.84 45.90 140.87 46.47 C 125.58 46.83 110.27 46.47 94.97 46.64 C 92.64 46.56 89.80 46.92 88.15 44.86 C 83.71 39.88 79.76 34.47 75.23 29.55 C 63.15 29.71 51.07 29.51 38.99 29.64 C 33.55 29.43 29.00 34.61 29.46 39.94 C 29.52 76.58 29.34 113.22 29.55 149.86 C 29.82 155.73 36.18 158.28 41.31 157.53 C 41.39 129.33 41.22 101.12 41.39 72.92 C 41.51 63.84 49.88 56.00 58.95 56.40 C 91.32 56.42 123.70 56.35 156.08 56.43 C 165.22 56.43 173.16 64.84 172.78 73.95 C 172.79 98.98 172.81 124.02 172.77 149.05 C 173.10 159.58 163.60 169.14 153.04 168.72 C 114.68 168.73 76.31 168.73 37.95 168.72 C 27.40 169.13 17.90 159.58 18.23 149.05 C 18.21 112.35 18.20 75.65 18.24 38.95 M 52.66 73.98 C 52.57 101.79 52.65 129.61 52.63 157.42 C 86.08 157.49 119.54 157.49 152.99 157.42 C 157.57 157.64 161.65 153.58 161.50 149.02 C 161.56 124.01 161.56 98.99 161.50 73.99 C 161.72 70.48 158.52 67.38 155.02 67.69 C 123.01 67.66 90.99 67.65 58.97 67.69 C 55.52 67.44 52.40 70.51 52.66 73.98 Z" />
<path fill="#4d75cd" opacity="1.00" d=" M 71.39 89.11 C 71.13 85.99 74.02 83.98 76.92 84.34 C 97.96 84.35 119.00 84.27 140.03 84.38 C 144.24 84.05 145.25 88.72 144.82 91.99 C 144.35 108.66 145.61 125.44 144.17 142.04 C 142.22 142.91 140.19 143.76 138.00 143.59 C 117.67 143.52 97.33 143.58 77.00 143.55 C 73.86 143.98 70.99 141.14 71.33 138.02 C 71.35 121.72 71.23 105.41 71.39 89.11 M 80.54 93.50 C 80.54 95.21 80.53 96.92 80.51 98.63 C 95.68 98.63 110.86 98.49 126.02 98.68 C 130.58 98.69 131.38 104.10 129.09 107.17 C 113.01 108.55 96.75 107.42 80.60 107.76 C 80.54 116.62 80.60 125.49 80.55 134.36 C 98.88 134.33 117.22 134.28 135.55 134.38 C 135.66 120.75 135.55 107.11 135.61 93.48 C 117.25 93.62 98.89 93.58 80.54 93.50 Z" />
<path fill="#4d75cd" opacity="1.00" d=" M 88.37 120.49 C 92.88 119.73 101.63 118.26 101.95 124.96 C 100.76 130.88 93.44 129.35 89.04 129.01 C 84.82 128.43 84.58 121.81 88.37 120.49 Z" />
<path fill="#4d75cd" opacity="1.00" d=" M 103.49 125.04 C 103.36 116.14 120.92 119.52 115.22 128.22 C 111.34 129.69 104.25 130.67 103.49 125.04 Z" />
</g>
</svg>
