<?xml version="1.0" encoding="UTF-8" ?>
<!DOCTYPE svg PUBLIC "-//W3C//DTD SVG 1.1//EN" "http://www.w3.org/Graphics/SVG/1.1/DTD/svg11.dtd">
<svg width="192pt" height="192pt" viewBox="0 0 192 192" version="1.1" xmlns="http://www.w3.org/2000/svg">
<g id="#f7a32cff">
<path fill="#f7a32c" opacity="1.00" d=" M 18.25 38.94 C 18.03 28.30 27.29 18.62 37.92 18.40 C 51.29 18.28 64.65 18.36 78.02 18.35 C 80.06 18.22 81.96 19.23 83.17 20.85 C 87.18 25.64 91.13 30.48 95.12 35.30 C 110.36 35.48 125.62 35.10 140.85 35.47 C 146.83 36.12 146.85 45.88 140.85 46.48 C 125.57 46.79 110.26 46.48 94.97 46.62 C 92.64 46.55 89.81 46.91 88.16 44.86 C 83.75 39.85 79.77 34.46 75.26 29.53 C 63.17 29.69 51.08 29.51 38.99 29.60 C 33.54 29.39 28.97 34.61 29.44 39.94 C 29.50 76.57 29.34 113.21 29.54 149.84 C 29.82 155.68 36.16 158.36 41.30 157.48 C 41.39 129.30 41.24 101.11 41.39 72.93 C 41.53 64.21 49.29 56.48 58.02 56.43 C 90.67 56.38 123.33 56.38 155.97 56.41 C 165.16 56.36 173.15 64.79 172.80 73.93 C 172.82 98.98 172.84 124.02 172.80 149.06 C 173.09 159.59 163.61 169.11 153.06 168.74 C 114.69 168.75 76.31 168.73 37.94 168.71 C 27.41 169.09 17.92 159.58 18.23 149.06 C 18.22 112.35 18.22 75.64 18.25 38.94 M 52.64 73.97 C 52.58 101.77 52.66 129.58 52.61 157.38 C 86.07 157.53 119.53 157.44 152.99 157.41 C 157.55 157.61 161.65 153.57 161.50 149.00 C 161.55 124.00 161.55 99.00 161.51 74.00 C 161.72 70.51 158.54 67.35 155.03 67.68 C 133.56 67.66 112.08 67.66 90.61 67.67 C 90.54 80.15 90.58 92.64 90.61 105.12 C 95.98 105.55 101.19 109.51 101.66 115.12 C 101.92 123.10 101.74 131.09 101.76 139.08 C 101.94 144.87 96.82 150.09 91.05 150.19 C 87.02 150.31 82.98 150.31 78.95 150.19 C 73.17 150.11 68.03 144.89 68.21 139.08 C 68.24 131.09 68.07 123.09 68.33 115.11 C 68.81 109.50 73.99 105.58 79.35 105.12 C 79.37 92.64 79.42 80.15 79.35 67.67 C 72.56 67.67 65.76 67.61 58.97 67.67 C 55.52 67.40 52.37 70.51 52.64 73.97 M 79.42 116.56 C 79.34 124.01 79.41 131.46 79.37 138.91 C 83.10 138.99 86.84 138.99 90.57 138.90 C 90.52 131.46 90.59 124.02 90.52 116.58 C 86.82 116.58 83.12 116.57 79.42 116.56 Z" />
</g>
</svg>
