<?xml version="1.0" encoding="UTF-8" ?>
<!DOCTYPE svg PUBLIC "-//W3C//DTD SVG 1.1//EN" "http://www.w3.org/Graphics/SVG/1.1/DTD/svg11.dtd">
<svg width="192pt" height="192pt" viewBox="0 0 192 192" version="1.1" xmlns="http://www.w3.org/2000/svg">
<g id="#44c1dbff">
<path fill="#44c1db" opacity="1.00" d=" M 18.20 42.01 C 16.78 30.72 25.43 19.19 36.97 18.46 C 49.64 18.14 62.33 18.46 75.01 18.30 C 77.64 18.34 80.85 17.95 82.68 20.32 C 86.91 25.22 90.96 30.28 95.08 35.28 C 110.34 35.51 125.62 35.08 140.87 35.48 C 146.82 36.13 146.83 45.85 140.87 46.47 C 125.92 46.79 110.95 46.47 95.99 46.62 C 84.79 48.40 82.45 33.35 74.07 29.60 C 62.38 29.60 50.69 29.56 39.00 29.62 C 33.55 29.40 28.99 34.60 29.45 39.94 C 29.51 76.57 29.33 113.22 29.54 149.85 C 29.82 155.71 36.17 158.32 41.31 157.51 C 41.39 129.31 41.23 101.11 41.39 72.92 C 41.51 63.84 49.89 56.00 58.95 56.40 C 91.32 56.42 123.70 56.36 156.07 56.43 C 165.21 56.43 173.15 64.84 172.77 73.95 C 172.78 98.98 172.80 124.02 172.76 149.06 C 173.08 159.58 163.58 169.09 153.05 168.70 C 114.68 168.72 76.32 168.72 37.95 168.70 C 27.41 169.09 17.92 159.58 18.23 149.06 C 18.18 113.37 18.25 77.69 18.20 42.01 M 52.65 73.99 C 52.58 101.80 52.63 129.62 52.62 157.43 C 86.07 157.49 119.53 157.49 152.98 157.43 C 157.56 157.66 161.66 153.58 161.52 149.02 C 161.57 124.01 161.57 99.00 161.52 73.99 C 161.75 70.48 158.52 67.35 155.01 67.67 C 123.01 67.65 90.99 67.64 58.99 67.68 C 55.51 67.40 52.37 70.51 52.65 73.99 Z" />
<path fill="#44c1db" opacity="1.00" d=" M 102.12 84.13 C 103.86 82.02 106.66 82.05 109.00 82.95 C 109.81 84.87 110.45 86.89 110.31 89.00 C 110.27 105.01 110.27 121.01 110.29 137.01 C 110.36 138.78 109.76 140.45 109.24 142.12 C 108.13 142.53 107.02 142.95 105.92 143.39 C 103.90 142.70 101.46 141.57 101.69 139.00 C 101.53 124.73 101.56 110.45 101.68 96.18 C 96.62 101.93 91.00 107.19 85.55 112.56 C 82.16 116.16 76.26 110.17 79.73 106.68 C 86.94 98.94 94.68 91.66 102.12 84.13 Z" />
<path fill="#44c1db" opacity="1.00" d=" M 115.32 90.35 C 118.76 90.39 120.67 93.93 122.83 96.12 C 125.72 100.18 129.85 103.20 132.56 107.37 C 135.21 111.07 129.59 115.77 126.25 112.89 C 121.49 107.57 116.60 102.35 112.06 96.84 C 110.22 94.28 112.21 90.44 115.32 90.35 Z" />
</g>
</svg>
