<?xml version="1.0" encoding="UTF-8" ?>
<!DOCTYPE svg PUBLIC "-//W3C//DTD SVG 1.1//EN" "http://www.w3.org/Graphics/SVG/1.1/DTD/svg11.dtd">
<svg width="192pt" height="192pt" viewBox="0 0 192 192" version="1.1" xmlns="http://www.w3.org/2000/svg">
<g id="#ff623cff">
<path fill="#ff623c" opacity="1.00" d=" M 40.99 32.39 C 34.85 31.93 35.03 21.83 41.16 21.54 C 76.45 21.25 111.77 21.44 147.07 21.43 C 159.47 21.36 170.32 32.60 169.99 44.97 C 170.05 79.00 170.09 113.03 169.97 147.05 C 170.04 159.24 159.21 170.03 147.05 170.06 C 113.02 170.19 78.99 170.14 44.96 170.09 C 32.57 170.34 21.31 159.52 21.41 147.07 C 21.40 114.71 21.33 82.34 21.44 49.99 C 21.28 46.00 25.20 43.10 29.00 43.55 C 66.66 43.54 104.34 43.51 142.00 43.55 C 145.12 43.26 148.34 45.67 148.20 48.96 C 148.27 54.60 148.64 60.30 147.96 65.91 C 146.80 70.70 139.31 70.99 137.59 66.44 C 136.56 62.68 137.02 58.70 136.86 54.84 C 102.09 54.68 67.31 54.81 32.53 54.75 C 32.47 85.17 32.52 115.58 32.51 145.99 C 32.07 152.81 38.07 159.12 44.93 158.84 C 78.64 158.89 112.35 158.86 146.06 158.85 C 152.99 159.27 159.24 153.00 158.82 146.07 C 158.82 112.36 158.87 78.64 158.80 44.93 C 159.01 38.50 153.40 32.70 147.00 32.59 C 111.67 32.37 76.32 32.77 40.99 32.39 Z" />
</g>
</svg>
