<?xml version="1.0" encoding="UTF-8" ?>
<!DOCTYPE svg PUBLIC "-//W3C//DTD SVG 1.1//EN" "http://www.w3.org/Graphics/SVG/1.1/DTD/svg11.dtd">
<svg width="192pt" height="192pt" viewBox="0 0 192 192" version="1.1" xmlns="http://www.w3.org/2000/svg">
<g id="#3e7fcfff">
<path fill="#3e7fcf" opacity="1.00" d=" M 18.31 40.93 C 18.06 30.33 27.33 20.65 37.93 20.45 C 51.29 20.34 64.65 20.40 78.00 20.40 C 80.05 20.23 81.92 21.27 83.13 22.87 C 87.19 27.66 91.11 32.55 95.14 37.35 C 110.36 37.49 125.61 37.15 140.82 37.49 C 146.81 38.10 146.85 47.90 140.84 48.48 C 125.56 48.78 110.25 48.47 94.96 48.61 C 92.64 48.53 89.81 48.92 88.18 46.85 C 83.75 41.85 79.77 36.46 75.30 31.50 C 63.19 31.66 51.09 31.50 38.98 31.57 C 33.55 31.37 28.91 36.61 29.41 41.95 C 29.48 78.58 29.32 115.21 29.52 151.84 C 29.79 157.69 36.17 160.39 41.32 159.51 C 41.41 131.32 41.28 103.13 41.42 74.94 C 41.56 66.23 49.30 58.52 58.02 58.47 C 90.67 58.41 123.32 58.40 155.97 58.42 C 165.15 58.36 173.16 66.80 172.79 75.93 C 172.81 100.98 172.84 126.03 172.81 151.08 C 173.10 161.60 163.61 171.15 153.05 170.74 C 114.68 170.75 76.31 170.73 37.94 170.69 C 27.42 171.12 17.92 161.56 18.27 151.06 C 18.27 114.35 18.28 77.64 18.31 40.93 M 52.61 75.96 C 52.54 103.78 52.64 131.61 52.59 159.43 C 86.05 159.51 119.51 159.46 152.97 159.41 C 157.54 159.62 161.66 155.56 161.49 150.98 C 161.55 125.99 161.55 101.00 161.51 76.01 C 161.74 72.47 158.48 69.37 154.97 69.67 C 122.99 69.65 91.01 69.64 59.03 69.62 C 55.58 69.36 52.32 72.47 52.61 75.96 Z" />
<path fill="#3e7fcf" opacity="1.00" d=" M 104.36 81.52 C 108.14 81.19 113.60 80.17 115.64 84.37 C 124.14 101.22 132.55 118.13 140.98 135.02 C 143.94 140.42 139.80 147.49 134.02 148.42 C 123.73 150.14 116.99 140.21 108.08 137.02 C 101.10 140.22 95.33 146.03 88.03 148.42 C 80.81 150.57 72.43 143.79 75.09 136.15 C 83.04 119.55 91.55 103.20 99.65 86.66 C 100.71 84.59 101.78 81.96 104.36 81.52 M 86.60 137.24 C 91.90 133.98 97.27 130.80 102.43 127.33 C 103.38 119.92 102.52 112.20 102.76 104.67 C 97.49 115.58 91.92 126.35 86.60 137.24 M 113.78 105.20 C 113.59 112.49 113.75 119.79 113.68 127.08 C 119.00 130.62 124.48 133.92 129.94 137.26 C 124.46 126.62 119.37 115.78 113.78 105.20 Z" />
</g>
</svg>
