<?xml version="1.0" encoding="UTF-8" ?>
<!DOCTYPE svg PUBLIC "-//W3C//DTD SVG 1.1//EN" "http://www.w3.org/Graphics/SVG/1.1/DTD/svg11.dtd">
<svg width="192pt" height="192pt" viewBox="0 0 192 192" version="1.1" xmlns="http://www.w3.org/2000/svg">
<g id="#dc4799ff">
<path fill="#dc4799" opacity="1.00" d=" M 41.00 32.42 C 34.93 31.97 34.95 21.95 41.03 21.53 C 76.33 21.17 111.66 21.45 146.98 21.43 C 158.98 21.35 169.81 31.91 169.90 43.93 C 169.99 78.30 169.95 112.68 169.92 147.05 C 170.06 159.24 159.18 170.01 147.05 170.07 C 113.03 170.18 79.00 170.16 44.98 170.08 C 32.93 170.30 21.86 160.11 21.46 148.01 C 21.33 115.65 21.45 83.30 21.40 50.94 C 20.93 47.14 24.08 43.37 28.00 43.59 C 66.00 43.44 104.00 43.51 141.99 43.55 C 145.13 43.22 148.34 45.68 148.22 48.96 C 148.21 54.60 148.64 60.31 147.96 65.91 C 146.77 70.69 139.32 70.99 137.59 66.44 C 136.53 62.71 137.08 58.73 136.86 54.90 C 102.11 54.64 67.34 54.93 32.59 54.74 C 32.39 85.18 32.55 115.62 32.49 146.06 C 32.08 152.84 38.09 159.17 44.93 158.86 C 78.64 158.88 112.35 158.85 146.06 158.86 C 152.99 159.29 159.28 152.98 158.82 146.06 C 158.82 112.35 158.87 78.64 158.80 44.93 C 159.05 38.50 153.38 32.69 147.00 32.57 C 111.67 32.42 76.32 32.79 41.00 32.42 Z" />
</g>
</svg>
