<?xml version="1.0" encoding="UTF-8" ?>
<!DOCTYPE svg PUBLIC "-//W3C//DTD SVG 1.1//EN" "http://www.w3.org/Graphics/SVG/1.1/DTD/svg11.dtd">
<svg width="192pt" height="192pt" viewBox="0 0 192 192" version="1.1" xmlns="http://www.w3.org/2000/svg">
<g id="#44c1dbff">
<path fill="#44c1db" opacity="1.00" d=" M 18.24 38.95 C 18.01 28.31 27.26 18.62 37.91 18.39 C 50.61 18.23 63.32 18.41 76.03 18.30 C 78.36 18.27 81.11 18.25 82.67 20.31 C 86.90 25.22 90.96 30.29 95.09 35.29 C 110.35 35.50 125.62 35.09 140.87 35.48 C 146.82 36.14 146.83 45.85 140.87 46.47 C 125.58 46.79 110.27 46.48 94.97 46.62 C 92.64 46.55 89.81 46.91 88.16 44.86 C 83.73 39.86 79.76 34.46 75.25 29.53 C 63.17 29.71 51.08 29.52 39.00 29.62 C 33.55 29.40 28.98 34.60 29.45 39.94 C 29.51 76.58 29.33 113.22 29.54 149.85 C 29.83 155.70 36.17 158.34 41.31 157.50 C 41.39 129.30 41.23 101.11 41.39 72.92 C 41.51 63.84 49.89 55.99 58.95 56.40 C 91.32 56.42 123.70 56.36 156.08 56.43 C 165.21 56.43 173.16 64.85 172.77 73.95 C 172.75 99.33 172.85 124.71 172.72 150.09 C 172.52 160.24 163.19 169.06 153.04 168.70 C 114.68 168.72 76.32 168.72 37.96 168.70 C 27.42 169.09 17.91 159.58 18.23 149.05 C 18.21 112.35 18.20 75.65 18.24 38.95 M 52.64 73.98 C 52.58 101.80 52.63 129.62 52.62 157.43 C 86.07 157.49 119.53 157.49 152.98 157.43 C 157.56 157.66 161.67 153.58 161.52 149.02 C 161.57 124.01 161.57 99.00 161.52 73.99 C 161.76 70.48 158.52 67.35 155.01 67.67 C 123.00 67.65 90.99 67.64 58.99 67.67 C 55.52 67.40 52.37 70.51 52.64 73.98 Z" />
</g>
</svg>
