<?xml version="1.0" encoding="UTF-8" ?>
<!DOCTYPE svg PUBLIC "-//W3C//DTD SVG 1.1//EN" "http://www.w3.org/Graphics/SVG/1.1/DTD/svg11.dtd">
<svg width="192pt" height="192pt" viewBox="0 0 192 192" version="1.1" xmlns="http://www.w3.org/2000/svg">
<g id="#ff603cff">
<path fill="#ff603c" opacity="1.00" d=" M 18.25 38.97 C 18.01 28.33 27.27 18.62 37.91 18.40 C 50.61 18.24 63.32 18.42 76.02 18.31 C 78.35 18.28 81.10 18.24 82.67 20.32 C 86.89 25.22 90.95 30.26 95.05 35.26 C 110.32 35.54 125.61 35.08 140.88 35.48 C 146.81 36.14 146.84 45.84 140.90 46.47 C 125.60 46.80 110.29 46.48 94.98 46.62 C 92.87 46.50 90.37 46.94 88.68 45.36 C 83.85 40.40 80.14 34.38 75.09 29.65 C 63.07 29.52 51.04 29.60 39.01 29.61 C 33.56 29.39 28.97 34.60 29.45 39.94 C 29.51 76.58 29.34 113.23 29.54 149.87 C 29.84 155.69 36.17 158.37 41.31 157.47 C 41.39 129.28 41.24 101.10 41.39 72.92 C 41.52 63.84 49.90 55.98 58.97 56.40 C 91.34 56.42 123.71 56.35 156.08 56.42 C 165.22 56.42 173.17 64.85 172.79 73.96 C 172.80 98.99 172.82 124.02 172.79 149.04 C 173.11 159.58 163.59 169.12 153.03 168.72 C 114.68 168.74 76.32 168.73 37.96 168.71 C 27.41 169.11 17.90 159.57 18.24 149.04 C 18.22 112.35 18.22 75.66 18.25 38.97 M 52.64 74.00 C 52.59 101.80 52.62 129.61 52.63 157.42 C 86.08 157.50 119.53 157.47 152.98 157.42 C 157.55 157.64 161.65 153.58 161.50 149.03 C 161.56 124.01 161.56 98.99 161.51 73.98 C 161.73 70.48 158.50 67.35 155.00 67.68 C 123.00 67.65 91.00 67.65 59.00 67.67 C 55.52 67.39 52.36 70.51 52.64 74.00 Z" />
</g>
</svg>
