<?xml version="1.0" encoding="UTF-8" ?>
<!DOCTYPE svg PUBLIC "-//W3C//DTD SVG 1.1//EN" "http://www.w3.org/Graphics/SVG/1.1/DTD/svg11.dtd">
<svg width="192pt" height="192pt" viewBox="0 0 192 192" version="1.1" xmlns="http://www.w3.org/2000/svg">
<g id="#19afffff">
<path fill="#19afff" opacity="1.00" d=" M 40.99 32.38 C 34.41 31.82 35.35 20.86 42.00 21.47 C 76.99 21.37 111.99 21.40 146.98 21.42 C 159.41 21.31 170.33 32.57 170.00 44.96 C 170.05 79.00 170.07 113.03 169.99 147.06 C 170.04 159.24 159.22 170.03 147.05 170.06 C 113.02 170.16 78.99 170.13 44.96 170.08 C 32.57 170.35 21.32 159.50 21.41 147.06 C 21.41 114.71 21.36 82.35 21.45 50.00 C 21.28 46.02 25.21 43.09 28.99 43.56 C 66.66 43.55 104.34 43.51 142.01 43.55 C 145.15 43.24 148.36 45.65 148.21 48.96 C 148.24 54.60 148.63 60.30 147.97 65.90 C 146.79 70.69 139.32 70.99 137.59 66.44 C 136.53 62.69 137.07 58.69 136.87 54.84 C 103.23 54.65 69.59 54.84 35.95 54.70 C 34.88 54.95 32.26 54.11 32.53 56.03 C 32.44 86.04 32.52 116.05 32.50 146.06 C 32.11 152.84 38.09 159.12 44.92 158.85 C 78.64 158.88 112.36 158.86 146.07 158.85 C 152.99 159.26 159.23 152.99 158.82 146.08 C 158.83 112.36 158.87 78.64 158.80 44.92 C 159.02 38.50 153.39 32.68 146.99 32.58 C 111.66 32.38 76.31 32.74 40.99 32.38 Z" />
</g>
</svg>
