<?xml version="1.0" encoding="UTF-8" ?>
<!DOCTYPE svg PUBLIC "-//W3C//DTD SVG 1.1//EN" "http://www.w3.org/Graphics/SVG/1.1/DTD/svg11.dtd">
<svg width="192pt" height="192pt" viewBox="0 0 192 192" version="1.1" xmlns="http://www.w3.org/2000/svg">
<g id="#8392a2ff">
<path fill="#8392a2" opacity="1.00" d=" M 18.23 38.96 C 18.00 28.31 27.26 18.61 37.92 18.39 C 50.62 18.22 63.32 18.41 76.02 18.30 C 78.36 18.28 81.10 18.24 82.67 20.31 C 86.91 25.21 90.96 30.28 95.08 35.28 C 110.34 35.51 125.62 35.08 140.87 35.49 C 146.94 36.14 146.78 46.16 140.65 46.50 C 125.43 46.78 110.20 46.50 94.98 46.64 C 92.64 46.56 89.79 46.93 88.15 44.86 C 83.71 39.87 79.76 34.45 75.22 29.55 C 63.15 29.72 51.07 29.52 39.00 29.63 C 33.56 29.43 29.00 34.61 29.46 39.94 C 29.52 76.58 29.34 113.22 29.55 149.86 C 29.83 155.71 36.17 158.32 41.31 157.50 C 41.38 129.31 41.22 101.11 41.38 72.92 C 41.51 63.84 49.89 55.99 58.95 56.40 C 91.32 56.42 123.70 56.36 156.07 56.43 C 165.21 56.42 173.17 64.85 172.78 73.96 C 172.79 98.99 172.80 124.02 172.77 149.05 C 173.10 159.58 163.59 169.13 153.04 168.71 C 114.68 168.73 76.32 168.73 37.95 168.72 C 27.40 169.13 17.89 159.57 18.23 149.04 C 18.20 112.35 18.19 75.65 18.23 38.96 M 52.66 73.99 C 52.58 101.80 52.64 129.61 52.63 157.43 C 86.08 157.49 119.53 157.49 152.98 157.43 C 157.55 157.66 161.66 153.58 161.51 149.02 C 161.56 124.01 161.56 98.99 161.51 73.98 C 161.74 70.49 158.51 67.36 155.02 67.68 C 123.01 67.65 90.99 67.65 58.99 67.69 C 55.52 67.42 52.38 70.52 52.66 73.99 Z" />
</g>
</svg>
