<?xml version="1.0" encoding="UTF-8" ?>
<!DOCTYPE svg PUBLIC "-//W3C//DTD SVG 1.1//EN" "http://www.w3.org/Graphics/SVG/1.1/DTD/svg11.dtd">
<svg width="192pt" height="192pt" viewBox="0 0 192 192" version="1.1" xmlns="http://www.w3.org/2000/svg">
<g id="#18aeffff">
<path fill="#18aeff" opacity="1.00" d=" M 18.27 38.96 C 18.03 28.33 27.28 18.64 37.91 18.42 C 50.96 18.27 64.00 18.41 77.05 18.34 C 79.08 18.26 81.34 18.59 82.66 20.32 C 86.89 25.23 90.95 30.28 95.07 35.28 C 110.33 35.52 125.61 35.09 140.86 35.47 C 146.82 36.14 146.83 45.85 140.87 46.47 C 125.58 46.78 110.27 46.47 94.98 46.61 C 92.65 46.55 89.82 46.89 88.17 44.85 C 83.73 39.84 79.78 34.40 75.21 29.49 C 63.15 29.70 51.08 29.49 39.01 29.59 C 33.55 29.36 28.95 34.60 29.43 39.94 C 29.50 76.58 29.33 113.23 29.53 149.86 C 29.83 155.70 36.17 158.36 41.31 157.48 C 41.37 129.64 41.31 101.80 41.36 73.95 C 41.01 64.91 48.84 56.52 57.93 56.45 C 90.64 56.38 123.36 56.38 156.08 56.42 C 165.22 56.42 173.17 64.84 172.80 73.95 C 172.81 98.99 172.83 124.02 172.80 149.05 C 173.10 159.59 163.60 169.11 153.05 168.73 C 114.68 168.75 76.32 168.73 37.96 168.70 C 27.42 169.09 17.91 159.57 18.24 149.04 C 18.23 112.35 18.24 75.65 18.27 38.96 M 52.63 73.99 C 52.58 101.80 52.62 129.61 52.63 157.42 C 86.08 157.48 119.53 157.47 152.98 157.40 C 157.55 157.63 161.63 153.58 161.50 149.02 C 161.56 124.01 161.55 99.00 161.51 73.99 C 161.73 70.47 158.52 67.36 155.01 67.68 C 123.00 67.65 91.00 67.64 58.99 67.65 C 55.52 67.37 52.34 70.51 52.63 73.99 Z" />
<path fill="#18aeff" opacity="1.00" d=" M 102.85 82.05 C 103.96 76.98 111.93 76.63 113.50 81.58 C 114.36 86.23 113.61 91.02 113.98 95.73 C 124.00 95.79 134.02 95.63 144.03 95.78 C 147.26 95.69 149.75 98.90 149.44 102.01 C 149.37 109.00 149.73 116.02 149.26 123.00 C 148.22 128.28 139.92 128.62 138.48 123.42 C 137.69 118.04 138.36 112.55 138.13 107.12 C 130.06 107.10 121.99 107.10 113.92 107.12 C 113.65 112.61 114.40 118.19 113.50 123.62 C 111.91 128.63 103.88 128.14 102.82 123.03 C 102.32 117.75 102.72 112.43 102.63 107.13 C 94.52 107.09 86.42 107.11 78.32 107.13 C 78.22 112.40 78.60 117.71 78.13 122.97 C 77.07 128.46 68.21 128.49 67.29 122.93 C 66.92 115.94 67.22 108.93 67.14 101.93 C 66.73 98.63 69.63 95.49 72.98 95.77 C 82.86 95.67 92.74 95.80 102.62 95.71 C 102.73 91.16 102.31 86.58 102.85 82.05 Z" />
<path fill="#18aeff" opacity="1.00" d=" M 64.28 134.29 C 69.35 133.09 74.78 133.70 79.96 133.88 C 85.17 134.78 85.71 142.98 80.67 144.58 C 75.62 145.49 70.31 145.33 65.22 144.71 C 60.39 143.68 59.77 136.20 64.28 134.29 Z" />
<path fill="#18aeff" opacity="1.00" d=" M 99.39 134.52 C 104.32 132.84 109.85 133.85 115.00 133.80 C 120.45 134.17 121.55 142.63 116.46 144.49 C 111.46 145.63 106.14 145.19 101.06 144.80 C 96.26 144.02 95.14 136.82 99.39 134.52 Z" />
<path fill="#18aeff" opacity="1.00" d=" M 135.31 134.30 C 140.05 133.02 145.14 133.80 150.01 133.74 C 154.25 133.63 156.95 139.13 154.43 142.49 C 152.14 145.95 147.52 144.97 144.00 145.14 C 140.60 144.91 136.43 145.93 133.77 143.21 C 131.21 140.67 132.04 135.84 135.31 134.30 Z" />
</g>
</svg>
