<?xml version="1.0" encoding="UTF-8" ?>
<!DOCTYPE svg PUBLIC "-//W3C//DTD SVG 1.1//EN" "http://www.w3.org/Graphics/SVG/1.1/DTD/svg11.dtd">
<svg width="192pt" height="192pt" viewBox="0 0 192 192" version="1.1" xmlns="http://www.w3.org/2000/svg">
<g id="#4a71c5ff">
<path fill="#4a71c5" opacity="1.00" d=" M 18.29 38.95 C 18.04 28.34 27.30 18.64 37.92 18.44 C 51.28 18.32 64.65 18.38 78.01 18.39 C 80.06 18.24 81.91 19.27 83.14 20.86 C 87.19 25.63 91.10 30.50 95.09 35.31 C 110.34 35.52 125.62 35.09 140.86 35.49 C 146.83 36.11 146.85 45.91 140.87 46.48 C 125.58 46.82 110.27 46.47 94.97 46.63 C 92.64 46.55 89.82 46.92 88.17 44.86 C 83.72 39.87 79.78 34.45 75.26 29.53 C 63.17 29.68 51.08 29.50 38.99 29.59 C 33.56 29.38 28.95 34.61 29.43 39.94 C 29.50 76.58 29.32 113.22 29.54 149.85 C 29.81 155.72 36.17 158.30 41.31 157.53 C 41.37 129.67 41.31 101.81 41.37 73.95 C 41.03 64.87 48.90 56.48 58.03 56.46 C 90.67 56.39 123.32 56.38 155.97 56.41 C 165.16 56.35 173.16 64.79 172.81 73.94 C 172.83 98.98 172.86 124.02 172.82 149.06 C 173.11 159.60 163.63 169.16 153.05 168.76 C 114.69 168.77 76.32 168.74 37.95 168.71 C 27.41 169.13 17.90 159.58 18.25 149.06 C 18.24 112.35 18.25 75.65 18.29 38.95 M 52.63 73.98 C 52.54 101.77 52.69 129.56 52.59 157.36 C 86.05 157.57 119.53 157.42 153.00 157.39 C 157.56 157.59 161.63 153.57 161.47 149.01 C 161.54 124.00 161.55 99.00 161.49 74.00 C 161.69 70.47 158.49 67.41 154.99 67.69 C 122.99 67.66 91.00 67.65 59.01 67.65 C 55.56 67.40 52.35 70.49 52.63 73.98 Z" />
<path fill="#4a71c5" opacity="1.00" d=" M 74.08 78.86 C 79.25 78.72 84.75 78.00 89.74 79.24 C 90.54 84.45 91.51 90.97 88.77 95.77 C 83.82 96.27 78.40 96.80 73.60 95.41 C 72.79 90.20 71.96 83.73 74.08 78.86 Z" />
<path fill="#4a71c5" opacity="1.00" d=" M 100.15 83.10 C 113.10 82.77 126.09 83.03 139.05 82.98 C 143.56 82.33 143.62 92.40 139.02 91.69 C 126.68 91.72 114.32 91.71 101.97 91.69 C 97.65 92.17 98.07 85.12 100.15 83.10 Z" />
<path fill="#4a71c5" opacity="1.00" d=" M 73.46 105.31 C 78.52 103.90 84.65 104.11 89.77 105.18 C 91.10 110.34 90.06 115.88 90.31 121.19 C 84.99 122.63 78.98 122.70 73.68 121.35 C 72.33 116.33 72.76 110.49 73.46 105.31 Z" />
<path fill="#4a71c5" opacity="1.00" d=" M 100.14 109.05 C 113.09 108.61 126.07 108.95 139.03 108.88 C 143.67 108.58 142.05 114.65 141.50 117.47 C 127.58 117.54 113.62 117.88 99.73 117.32 C 98.57 114.95 98.02 110.97 100.14 109.05 Z" />
<path fill="#4a71c5" opacity="1.00" d=" M 73.04 132.91 C 72.93 129.63 76.92 130.56 79.00 130.41 C 82.57 130.78 86.61 129.58 89.90 131.19 C 90.93 136.44 90.18 141.90 90.25 147.24 C 84.87 148.06 79.07 148.32 73.79 147.27 C 72.03 142.97 73.25 137.61 73.04 132.91 Z" />
<path fill="#4a71c5" opacity="1.00" d=" M 100.13 134.95 C 113.07 134.42 126.07 134.82 139.03 134.75 C 143.32 134.36 142.86 141.15 140.94 143.30 C 127.33 143.69 113.65 143.66 100.04 143.31 C 98.28 141.23 98.14 136.90 100.13 134.95 Z" />
</g>
</svg>
