<?xml version="1.0" encoding="UTF-8" ?>
<!DOCTYPE svg PUBLIC "-//W3C//DTD SVG 1.1//EN" "http://www.w3.org/Graphics/SVG/1.1/DTD/svg11.dtd">
<svg width="192pt" height="192pt" viewBox="0 0 192 192" version="1.1" xmlns="http://www.w3.org/2000/svg">
<g id="#f6b12cff">
<path fill="#f6b12c" opacity="1.00" d=" M 18.27 38.92 C 18.04 28.29 27.30 18.62 37.93 18.41 C 51.29 18.29 64.65 18.36 78.00 18.37 C 80.05 18.23 81.93 19.24 83.15 20.85 C 87.19 25.64 91.13 30.50 95.13 35.32 C 110.36 35.48 125.61 35.11 140.84 35.48 C 146.82 36.09 146.85 45.89 140.84 46.46 C 125.56 46.80 110.26 46.46 94.96 46.61 C 92.87 46.49 90.38 46.92 88.70 45.35 C 83.86 40.41 80.17 34.41 75.15 29.65 C 63.10 29.49 51.04 29.59 38.99 29.60 C 33.53 29.38 28.96 34.60 29.43 39.94 C 29.50 76.57 29.32 113.21 29.54 149.84 C 29.81 155.71 36.17 158.30 41.32 157.53 C 41.37 129.66 41.30 101.79 41.36 73.92 C 41.02 64.85 48.90 56.47 58.02 56.44 C 90.67 56.38 123.32 56.38 155.97 56.42 C 165.16 56.36 173.15 64.79 172.79 73.93 C 172.81 98.97 172.83 124.02 172.79 149.07 C 173.08 159.59 163.60 169.09 153.06 168.73 C 114.69 168.74 76.31 168.72 37.94 168.70 C 27.41 169.07 17.93 159.58 18.24 149.07 C 18.23 112.35 18.23 75.64 18.27 38.92 M 52.63 73.97 C 52.56 101.78 52.66 129.59 52.60 157.40 C 86.06 157.52 119.52 157.45 152.98 157.42 C 157.56 157.61 161.66 153.57 161.50 148.99 C 161.56 124.00 161.56 99.00 161.51 74.01 C 161.75 70.46 158.49 67.36 154.97 67.67 C 122.99 67.65 91.01 67.64 59.03 67.65 C 55.56 67.40 52.35 70.45 52.63 73.97 Z" />
<path fill="#f6b12c" opacity="1.00" d=" M 100.32 75.40 C 113.59 72.51 128.25 80.97 131.98 94.11 C 135.64 104.87 131.30 117.26 122.53 124.22 C 122.35 126.57 122.70 130.03 119.70 130.67 C 112.14 133.29 104.59 135.97 96.97 138.40 C 92.44 139.72 89.25 132.75 93.10 130.11 C 99.42 127.18 106.31 125.70 112.75 123.06 C 112.28 116.70 119.69 117.40 122.38 113.41 C 125.56 105.43 124.87 94.91 118.03 89.00 C 111.75 82.99 100.66 83.32 94.88 89.87 C 86.41 97.20 88.88 112.30 98.43 117.61 C 102.94 119.98 99.94 127.61 95.02 126.26 C 87.09 122.67 81.99 114.41 80.69 105.98 C 78.73 92.85 87.58 79.10 100.32 75.40 Z" />
<path fill="#f6b12c" opacity="1.00" d=" M 93.75 142.77 C 101.40 139.85 109.22 137.26 117.03 134.80 C 121.75 133.71 123.71 139.80 121.17 143.07 C 113.03 145.99 104.88 148.94 96.62 151.47 C 91.88 152.40 89.23 144.75 93.75 142.77 Z" />
</g>
</svg>
