<?xml version="1.0" encoding="UTF-8" ?>
<!DOCTYPE svg PUBLIC "-//W3C//DTD SVG 1.1//EN" "http://www.w3.org/Graphics/SVG/1.1/DTD/svg11.dtd">
<svg width="192pt" height="192pt" viewBox="0 0 192 192" version="1.1" xmlns="http://www.w3.org/2000/svg">
<g id="#f2a62eff">
<path fill="#f2a62e" opacity="1.00" d=" M 18.25 40.94 C 18.03 30.30 27.29 20.62 37.93 20.40 C 51.28 20.28 64.65 20.36 78.00 20.35 C 80.05 20.22 81.96 21.23 83.17 22.85 C 87.17 27.65 91.14 32.46 95.10 37.29 C 110.35 37.49 125.61 37.10 140.84 37.46 C 146.94 38.12 146.80 48.16 140.63 48.51 C 125.42 48.76 110.18 48.50 94.96 48.62 C 92.64 48.55 89.80 48.92 88.15 46.86 C 83.73 41.85 79.77 36.43 75.22 31.52 C 63.14 31.71 51.07 31.51 39.00 31.60 C 33.55 31.38 28.97 36.61 29.44 41.94 C 29.50 78.57 29.34 115.21 29.54 151.84 C 29.82 157.67 36.16 160.35 41.31 159.48 C 41.35 131.63 41.30 103.78 41.35 75.94 C 41.01 66.85 48.90 58.45 58.03 58.43 C 90.67 58.38 123.32 58.38 155.96 58.41 C 165.16 58.35 173.16 66.79 172.81 75.94 C 172.82 100.98 172.84 126.02 172.81 151.07 C 173.09 161.60 163.61 171.11 153.06 170.74 C 114.69 170.75 76.32 170.74 37.94 170.72 C 27.41 171.09 17.92 161.59 18.23 151.07 C 18.21 114.36 18.22 77.65 18.25 40.94 M 52.64 75.98 C 52.59 103.79 52.63 131.61 52.63 159.42 C 86.09 159.47 119.55 159.47 153.00 159.40 C 157.57 159.62 161.64 155.55 161.50 151.00 C 161.55 126.00 161.55 101.00 161.51 76.00 C 161.73 72.47 158.49 69.37 154.98 69.68 C 122.99 69.67 91.01 69.65 59.02 69.66 C 55.57 69.41 52.36 72.47 52.64 75.98 Z" />
<path fill="#f2a62e" opacity="1.00" d=" M 121.60 81.50 C 125.94 79.60 130.61 85.11 127.99 89.07 C 122.65 95.37 116.21 100.68 110.80 106.93 C 112.12 108.19 113.41 109.47 114.70 110.76 C 120.40 105.11 125.88 99.22 131.74 93.76 C 135.86 90.10 142.45 95.88 139.48 100.49 C 128.86 112.96 114.25 122.63 107.99 138.38 C 117.88 138.48 127.78 138.07 137.65 138.50 C 142.78 139.55 142.91 147.63 137.90 149.03 C 117.96 150.33 97.87 148.16 77.98 149.41 C 74.51 149.87 71.50 146.31 72.36 142.96 C 73.51 135.30 74.89 127.67 76.12 120.02 C 76.36 117.80 77.47 115.39 79.82 114.81 C 98.14 110.37 107.46 92.20 121.60 81.50 M 86.10 124.11 C 85.43 128.62 84.58 133.10 83.96 137.63 C 88.56 136.62 93.53 136.57 97.91 134.96 C 100.56 129.32 103.44 123.74 107.29 118.79 C 106.10 117.13 104.71 115.63 103.21 114.25 C 98.24 118.67 92.29 121.76 86.10 124.11 Z" />
</g>
</svg>
