<?xml version="1.0" encoding="UTF-8" ?>
<!DOCTYPE svg PUBLIC "-//W3C//DTD SVG 1.1//EN" "http://www.w3.org/Graphics/SVG/1.1/DTD/svg11.dtd">
<svg width="192pt" height="192pt" viewBox="0 0 192 192" version="1.1" xmlns="http://www.w3.org/2000/svg">
<g id="#a51affff">
<path fill="#a51aff" opacity="1.00" d=" M 18.26 38.94 C 18.03 28.31 27.28 18.61 37.92 18.41 C 50.28 18.24 62.65 18.44 75.01 18.31 C 77.63 18.37 80.83 17.96 82.65 20.32 C 86.92 25.21 90.95 30.32 95.11 35.31 C 110.36 35.49 125.62 35.09 140.86 35.49 C 146.93 36.12 146.78 46.15 140.64 46.48 C 125.42 46.78 110.19 46.47 94.96 46.62 C 92.64 46.54 89.82 46.89 88.17 44.85 C 83.74 39.86 79.76 34.48 75.29 29.52 C 63.19 29.69 51.09 29.49 39.00 29.60 C 33.54 29.39 28.97 34.60 29.44 39.94 C 29.51 76.57 29.32 113.22 29.54 149.85 C 29.82 155.74 36.18 158.27 41.32 157.54 C 41.39 129.34 41.25 101.13 41.40 72.92 C 41.52 63.85 49.88 56.01 58.94 56.41 C 91.32 56.42 123.70 56.35 156.07 56.42 C 165.22 56.42 173.15 64.83 172.79 73.94 C 172.80 98.98 172.82 124.02 172.79 149.06 C 173.09 159.59 163.60 169.10 153.06 168.72 C 114.69 168.74 76.31 168.73 37.94 168.70 C 27.41 169.08 17.92 159.58 18.24 149.06 C 18.22 112.35 18.22 75.65 18.26 38.94 M 52.64 73.97 C 52.55 101.78 52.66 129.60 52.60 157.42 C 86.07 157.50 119.53 157.47 153.00 157.42 C 157.56 157.60 161.65 153.58 161.50 149.01 C 161.56 124.01 161.56 99.00 161.51 73.99 C 161.73 70.48 158.54 67.36 155.02 67.68 C 123.01 67.65 90.99 67.63 58.98 67.67 C 55.51 67.40 52.37 70.49 52.64 73.97 Z" />
<path fill="#a51aff" opacity="1.00" d=" M 69.60 93.99 C 69.14 90.91 71.84 87.90 74.96 88.20 C 89.26 88.29 103.59 87.96 117.87 88.36 C 122.77 89.06 121.51 95.05 121.59 98.53 C 126.61 95.23 131.46 91.63 136.71 88.71 C 139.51 87.06 143.25 89.80 143.01 92.94 C 143.27 105.95 143.00 118.98 143.13 132.00 C 143.08 134.57 143.32 138.25 140.31 139.27 C 137.38 140.61 134.73 138.04 132.38 136.65 C 126.33 132.34 119.76 128.73 113.93 124.13 C 109.99 121.16 114.81 114.50 118.86 117.00 C 124.05 119.90 128.85 123.48 133.88 126.66 C 133.77 118.18 133.89 109.71 133.79 101.23 C 128.18 104.58 123.19 109.36 117.00 111.48 C 110.23 110.52 112.90 102.04 112.49 97.33 C 101.28 97.39 90.07 97.38 78.86 97.34 C 78.67 108.37 78.89 119.41 78.74 130.45 C 91.50 130.69 104.27 130.36 117.03 130.59 C 120.88 130.62 122.37 134.92 121.14 138.07 C 119.52 138.77 117.91 139.74 116.08 139.66 C 102.38 139.66 88.69 139.67 75.00 139.66 C 72.34 139.95 69.54 137.84 69.65 135.04 C 69.53 121.36 69.64 107.67 69.60 93.99 Z" />
</g>
</svg>
