<?xml version="1.0" encoding="UTF-8" ?>
<!DOCTYPE svg PUBLIC "-//W3C//DTD SVG 1.1//EN" "http://www.w3.org/Graphics/SVG/1.1/DTD/svg11.dtd">
<svg width="192pt" height="192pt" viewBox="0 0 192 192" version="1.1" xmlns="http://www.w3.org/2000/svg">
<g id="#ed31b1ff">
<path fill="#ed31b1" opacity="1.00" d=" M 40.99 32.36 C 34.44 31.79 35.38 20.91 41.99 21.51 C 76.98 21.39 111.98 21.42 146.97 21.43 C 159.41 21.31 170.33 32.56 170.01 44.96 C 170.05 78.99 170.05 113.03 170.01 147.06 C 170.07 159.24 159.23 170.06 147.06 170.08 C 113.03 170.15 78.99 170.14 44.95 170.08 C 32.56 170.34 21.32 159.50 21.42 147.06 C 21.42 114.71 21.38 82.35 21.48 50.00 C 21.31 46.04 25.22 43.12 28.99 43.58 C 66.66 43.57 104.34 43.52 142.01 43.55 C 145.14 43.25 148.36 45.65 148.21 48.95 C 148.26 54.59 148.63 60.29 147.97 65.90 C 146.82 70.70 139.32 71.01 137.59 66.45 C 136.52 62.69 137.06 58.70 136.86 54.85 C 102.08 54.65 67.28 54.79 32.50 54.70 C 32.45 85.13 32.50 115.56 32.50 145.99 C 32.06 152.81 38.07 159.12 44.93 158.85 C 78.64 158.88 112.36 158.86 146.08 158.84 C 152.99 159.22 159.19 152.98 158.81 146.08 C 158.82 112.36 158.87 78.64 158.80 44.93 C 159.00 38.50 153.39 32.68 146.98 32.59 C 111.66 32.37 76.31 32.73 40.99 32.36 Z" />
</g>
</svg>
