<?xml version="1.0" encoding="UTF-8" ?>
<!DOCTYPE svg PUBLIC "-//W3C//DTD SVG 1.1//EN" "http://www.w3.org/Graphics/SVG/1.1/DTD/svg11.dtd">
<svg width="192pt" height="192pt" viewBox="0 0 192 192" version="1.1" xmlns="http://www.w3.org/2000/svg">
<g id="#96644cff">
<path fill="#96644c" opacity="1.00" d=" M 40.99 32.43 C 34.84 31.97 35.05 21.84 41.17 21.54 C 76.46 21.29 111.77 21.44 147.06 21.43 C 159.47 21.36 170.32 32.60 170.02 44.97 C 170.09 78.65 170.03 112.34 170.05 146.02 C 170.36 155.84 163.89 165.38 154.64 168.65 C 149.66 170.59 144.23 170.18 139.00 170.18 C 110.00 170.18 80.99 170.17 51.99 170.18 C 46.82 170.22 41.45 170.50 36.55 168.55 C 27.38 165.28 21.03 155.76 21.37 146.05 C 21.43 114.04 21.32 82.02 21.44 50.01 C 21.28 46.03 25.20 43.09 29.00 43.55 C 66.67 43.55 104.34 43.51 142.01 43.54 C 145.14 43.23 148.34 45.70 148.23 48.96 C 148.26 54.60 148.65 60.30 147.99 65.91 C 146.85 70.74 139.30 71.04 137.57 66.46 C 136.53 62.73 137.04 58.76 136.82 54.93 C 102.07 54.61 67.32 54.85 32.56 54.77 C 32.44 85.18 32.55 115.58 32.52 145.99 C 32.06 152.82 38.09 159.10 44.93 158.85 C 78.64 158.88 112.36 158.86 146.07 158.85 C 152.98 159.25 159.23 152.98 158.80 146.07 C 158.80 112.36 158.85 78.64 158.78 44.93 C 158.97 38.51 153.36 32.74 146.98 32.62 C 111.65 32.43 76.31 32.76 40.99 32.43 Z" />
</g>
</svg>
