<?xml version="1.0" encoding="UTF-8" ?>
<!DOCTYPE svg PUBLIC "-//W3C//DTD SVG 1.1//EN" "http://www.w3.org/Graphics/SVG/1.1/DTD/svg11.dtd">
<svg width="192pt" height="192pt" viewBox="0 0 192 192" version="1.1" xmlns="http://www.w3.org/2000/svg">
<g id="#8492a2ff">
<path fill="#8492a2" opacity="1.00" d=" M 40.99 32.41 C 34.82 31.95 35.02 21.81 41.17 21.53 C 76.45 21.24 111.77 21.44 147.06 21.43 C 161.68 21.26 172.25 36.10 170.06 50.00 C 169.96 82.36 170.15 114.71 169.97 147.07 C 170.02 159.25 159.22 170.01 147.07 170.06 C 113.03 170.22 78.99 170.14 44.95 170.10 C 32.55 170.35 21.29 159.52 21.40 147.05 C 21.38 114.70 21.31 82.35 21.43 50.00 C 21.26 46.00 25.19 43.08 28.99 43.54 C 66.67 43.53 104.34 43.50 142.02 43.55 C 145.14 43.27 148.34 45.65 148.20 48.95 C 148.28 54.59 148.64 60.29 147.96 65.89 C 146.83 70.70 139.32 71.01 137.59 66.45 C 136.58 62.68 137.00 58.70 136.85 54.83 C 102.08 54.70 67.31 54.82 32.55 54.78 C 32.48 85.18 32.52 115.59 32.52 145.99 C 32.08 152.81 38.07 159.12 44.93 158.85 C 78.64 158.89 112.36 158.86 146.07 158.86 C 153.00 159.28 159.25 153.00 158.82 146.08 C 158.82 112.36 158.87 78.64 158.79 44.92 C 159.01 38.49 153.38 32.69 146.97 32.60 C 111.65 32.39 76.30 32.79 40.99 32.41 Z" />
</g>
</svg>
