<?xml version="1.0" encoding="UTF-8" ?>
<!DOCTYPE svg PUBLIC "-//W3C//DTD SVG 1.1//EN" "http://www.w3.org/Graphics/SVG/1.1/DTD/svg11.dtd">
<svg width="192pt" height="192pt" viewBox="0 0 192 192" version="1.1" xmlns="http://www.w3.org/2000/svg">
<g id="#8392a2ff">
<path fill="#8392a2" opacity="1.00" d=" M 18.19 42.00 C 16.79 30.70 25.45 19.15 37.02 18.46 C 49.68 18.12 62.36 18.46 75.03 18.29 C 77.64 18.35 80.83 17.97 82.65 20.31 C 86.96 25.19 90.95 30.35 95.15 35.32 C 110.38 35.46 125.62 35.08 140.84 35.50 C 146.93 36.08 146.81 46.16 140.66 46.49 C 125.44 46.81 110.19 46.48 94.96 46.64 C 92.63 46.55 89.82 46.91 88.18 44.87 C 83.74 39.91 79.75 34.55 75.33 29.57 C 63.21 29.69 51.08 29.52 38.96 29.64 C 33.52 29.46 29.01 34.62 29.46 39.95 C 29.53 76.57 29.33 113.21 29.56 149.83 C 29.80 155.74 36.18 158.23 41.31 157.57 C 41.38 129.36 41.22 101.14 41.38 72.93 C 41.51 63.85 49.86 56.00 58.93 56.40 C 91.31 56.42 123.68 56.35 156.06 56.43 C 165.20 56.42 173.14 64.82 172.77 73.93 C 172.79 98.97 172.80 124.03 172.77 149.08 C 173.08 159.59 163.60 169.11 153.07 168.71 C 114.69 168.73 76.31 168.73 37.94 168.71 C 27.40 169.11 17.92 159.60 18.23 149.08 C 18.17 113.39 18.25 77.69 18.19 42.00 M 52.67 73.93 C 52.56 101.76 52.66 129.60 52.62 157.44 C 86.09 157.47 119.55 157.51 153.02 157.42 C 157.60 157.63 161.67 153.55 161.51 148.98 C 161.56 123.99 161.57 99.00 161.50 74.01 C 161.73 70.50 158.56 67.40 155.06 67.69 C 123.02 67.65 90.98 67.65 58.95 67.70 C 55.51 67.46 52.43 70.48 52.67 73.93 Z" />
<path fill="#8392a2" opacity="1.00" d=" M 78.36 83.45 C 84.56 82.83 90.83 83.35 97.06 83.18 C 99.06 83.08 102.14 83.36 102.25 85.97 C 102.57 92.64 102.44 99.34 102.34 106.01 C 102.49 107.89 100.94 109.62 99.01 109.42 C 92.66 109.60 86.30 109.53 79.95 109.45 C 77.94 109.77 76.10 108.04 76.27 106.03 C 76.08 100.34 76.28 94.64 76.18 88.94 C 76.25 87.01 75.94 84.08 78.36 83.45 M 82.81 89.80 C 82.78 94.14 82.79 98.49 82.79 102.84 C 87.12 102.88 91.45 102.87 95.78 102.84 C 95.77 98.48 95.77 94.13 95.71 89.77 C 91.41 89.78 87.11 89.77 82.81 89.80 Z" />
<path fill="#8392a2" opacity="1.00" d=" M 111.29 83.40 C 117.52 82.89 123.81 83.32 130.07 83.18 C 132.01 83.05 134.83 83.55 134.92 86.01 C 135.33 92.35 135.09 98.73 135.08 105.08 C 135.21 106.98 134.35 109.47 132.05 109.40 C 125.36 109.59 118.65 109.58 111.96 109.40 C 109.62 109.50 108.70 107.01 108.84 105.06 C 108.80 99.03 108.75 92.99 108.88 86.95 C 108.71 85.37 109.68 83.74 111.29 83.40 M 115.50 89.78 C 115.45 94.14 115.46 98.50 115.46 102.86 C 119.80 102.87 124.14 102.87 128.49 102.85 C 128.49 98.49 128.49 94.14 128.45 89.78 C 124.13 89.77 119.82 89.77 115.50 89.78 Z" />
<path fill="#8392a2" opacity="1.00" d=" M 78.17 116.21 C 85.10 115.68 92.09 115.98 99.04 116.04 C 101.24 115.76 102.59 117.98 102.37 119.95 C 102.42 126.31 102.52 132.67 102.32 139.02 C 102.38 140.78 100.79 142.22 99.06 142.13 C 91.99 142.39 84.92 142.09 77.84 142.24 C 74.65 137.48 76.85 131.36 76.20 126.01 C 76.68 122.85 74.81 118.15 78.17 116.21 M 82.81 122.56 C 82.78 126.88 82.78 131.20 82.81 135.52 C 87.13 135.53 91.45 135.53 95.77 135.53 C 95.77 131.19 95.77 126.86 95.72 122.52 C 91.42 122.57 87.11 122.55 82.81 122.56 Z" />
<path fill="#8392a2" opacity="1.00" d=" M 111.39 122.40 C 108.28 122.06 108.02 116.88 111.08 116.16 C 117.73 115.70 124.44 116.03 131.11 115.98 C 133.41 115.59 135.38 117.62 135.06 119.90 C 135.06 126.56 135.42 133.27 134.86 139.90 C 133.24 143.69 128.19 141.76 125.00 142.23 C 120.01 141.67 114.39 143.42 109.81 141.20 C 108.36 137.80 107.75 132.35 110.47 129.46 C 114.46 127.33 116.10 132.48 115.67 135.52 C 119.94 135.53 124.21 135.54 128.49 135.51 C 128.49 131.19 128.49 126.87 128.45 122.55 C 122.77 122.43 117.06 122.81 111.39 122.40 Z" />
</g>
</svg>
