<?xml version="1.0" encoding="UTF-8" ?>
<!DOCTYPE svg PUBLIC "-//W3C//DTD SVG 1.1//EN" "http://www.w3.org/Graphics/SVG/1.1/DTD/svg11.dtd">
<svg width="192pt" height="192pt" viewBox="0 0 192 192" version="1.1" xmlns="http://www.w3.org/2000/svg">
<g id="#41add8ff">
<path fill="#41add8" opacity="1.00" d=" M 18.25 40.94 C 18.02 30.31 27.28 20.62 37.92 20.40 C 50.62 20.24 63.33 20.41 76.03 20.30 C 78.36 20.27 81.11 20.24 82.68 22.31 C 86.88 27.21 90.97 32.23 95.04 37.25 C 110.31 37.52 125.60 37.05 140.86 37.45 C 146.84 38.09 146.86 47.90 140.87 48.49 C 125.58 48.82 110.27 48.49 94.97 48.64 C 92.87 48.51 90.37 48.95 88.68 47.38 C 83.84 42.43 80.15 36.39 75.09 31.67 C 63.06 31.52 51.03 31.61 39.00 31.61 C 33.55 31.40 28.98 36.61 29.45 41.95 C 29.52 78.57 29.34 115.21 29.55 151.84 C 29.83 157.67 36.16 160.33 41.28 159.46 C 41.34 131.62 41.28 103.78 41.34 75.94 C 41.00 66.86 48.88 58.44 58.03 58.42 C 90.67 58.36 123.32 58.35 155.97 58.39 C 165.18 58.34 173.17 66.79 172.83 75.95 C 172.85 100.98 172.88 126.02 172.84 151.06 C 173.11 161.61 163.62 171.13 153.05 170.77 C 114.68 170.79 76.31 170.77 37.95 170.73 C 27.40 171.11 17.90 161.59 18.22 151.06 C 18.20 114.35 18.21 77.65 18.25 40.94 M 52.64 76.01 C 52.61 103.80 52.64 131.60 52.65 159.39 C 86.10 159.48 119.55 159.44 152.99 159.38 C 157.55 159.58 161.62 155.56 161.47 151.00 C 161.54 126.00 161.53 101.00 161.48 76.00 C 161.70 72.47 158.50 69.40 154.99 69.71 C 123.00 69.68 91.00 69.67 59.01 69.67 C 55.53 69.42 52.38 72.51 52.64 76.01 Z" />
<path fill="#41add8" opacity="1.00" d=" M 104.47 78.42 C 108.21 74.99 114.37 79.78 112.43 84.36 C 109.09 89.10 104.15 92.46 100.69 97.12 C 114.42 97.41 128.18 96.86 141.90 97.32 C 147.14 98.65 146.27 107.27 140.85 107.45 C 123.23 107.61 105.61 107.50 87.99 107.45 C 83.02 107.77 81.41 100.73 84.92 97.95 C 91.48 91.49 97.83 84.80 104.47 78.42 Z" />
<path fill="#41add8" opacity="1.00" d=" M 73.34 133.48 C 68.16 132.37 68.75 123.71 74.13 123.46 C 91.75 123.24 109.39 123.35 127.02 123.33 C 131.49 122.81 134.38 129.03 131.02 132.06 C 124.26 138.95 117.51 145.89 110.52 152.55 C 106.55 156.00 100.25 150.50 102.90 146.01 C 106.28 141.57 110.82 138.16 114.31 133.79 C 100.66 133.47 86.98 133.99 73.34 133.48 Z" />
</g>
</svg>
