<?xml version="1.0" encoding="UTF-8" ?>
<!DOCTYPE svg PUBLIC "-//W3C//DTD SVG 1.1//EN" "http://www.w3.org/Graphics/SVG/1.1/DTD/svg11.dtd">
<svg width="192pt" height="192pt" viewBox="0 0 192 192" version="1.1" xmlns="http://www.w3.org/2000/svg">
<g id="#5e6f81ff">
<path fill="#5e6f81" opacity="1.00" d=" M 18.24 38.95 C 18.01 28.32 27.28 18.61 37.92 18.40 C 51.28 18.27 64.66 18.35 78.02 18.36 C 80.08 18.21 81.94 19.27 83.17 20.87 C 87.21 25.61 91.10 30.49 95.10 35.28 C 110.35 35.52 125.62 35.08 140.86 35.48 C 146.83 36.08 146.86 45.95 140.88 46.50 C 125.58 46.82 110.27 46.51 94.97 46.65 C 92.63 46.55 89.76 46.99 88.13 44.88 C 83.69 39.89 79.77 34.45 75.19 29.58 C 63.13 29.69 51.05 29.56 38.99 29.64 C 33.58 29.46 29.00 34.62 29.46 39.94 C 29.52 76.57 29.36 113.22 29.55 149.84 C 29.82 155.67 36.16 158.36 41.29 157.48 C 41.39 129.29 41.22 101.11 41.38 72.92 C 41.51 63.85 49.89 56.02 58.94 56.40 C 91.32 56.42 123.70 56.36 156.07 56.42 C 165.21 56.42 173.17 64.84 172.80 73.95 C 172.81 98.98 172.82 124.02 172.80 149.06 C 173.13 159.59 163.61 169.20 153.04 168.74 C 114.68 168.76 76.32 168.75 37.96 168.73 C 27.39 169.19 17.88 159.58 18.23 149.05 C 18.21 112.35 18.20 75.65 18.24 38.95 M 52.66 73.97 C 52.60 101.78 52.64 129.59 52.65 157.41 C 86.09 157.50 119.54 157.47 152.99 157.42 C 157.56 157.64 161.65 153.56 161.49 149.01 C 161.54 124.01 161.54 99.00 161.49 73.99 C 161.69 70.52 158.52 67.41 155.03 67.71 C 123.01 67.68 90.98 67.67 58.96 67.70 C 55.54 67.44 52.39 70.54 52.66 73.97 Z" />
</g>
</svg>
