<?xml version="1.0" encoding="UTF-8" ?>
<!DOCTYPE svg PUBLIC "-//W3C//DTD SVG 1.1//EN" "http://www.w3.org/Graphics/SVG/1.1/DTD/svg11.dtd">
<svg width="192pt" height="192pt" viewBox="0 0 192 192" version="1.1" xmlns="http://www.w3.org/2000/svg">
<g id="#ff365fff">
<path fill="#ff365f" opacity="1.00" d=" M 18.25 38.95 C 18.02 28.31 27.27 18.62 37.91 18.40 C 50.96 18.25 64.00 18.40 77.05 18.32 C 79.09 18.24 81.35 18.58 82.68 20.32 C 86.89 25.23 90.96 30.27 95.07 35.27 C 110.33 35.52 125.61 35.10 140.87 35.47 C 146.82 36.15 146.84 45.86 140.87 46.48 C 125.58 46.79 110.27 46.48 94.98 46.62 C 92.64 46.56 89.80 46.92 88.14 44.86 C 83.71 39.85 79.77 34.41 75.19 29.52 C 63.13 29.71 51.07 29.52 39.01 29.61 C 33.57 29.39 28.97 34.61 29.45 39.94 C 29.51 76.58 29.34 113.22 29.54 149.85 C 29.83 155.67 36.17 158.40 41.31 157.46 C 41.35 129.62 41.30 101.78 41.35 73.95 C 41.00 64.90 48.83 56.51 57.93 56.44 C 90.64 56.37 123.36 56.38 156.07 56.42 C 165.21 56.42 173.16 64.84 172.79 73.95 C 172.77 99.33 172.87 124.71 172.74 150.08 C 172.53 160.24 163.21 169.09 153.05 168.72 C 114.68 168.74 76.32 168.73 37.96 168.71 C 27.42 169.11 17.90 159.58 18.23 149.05 C 18.22 112.35 18.21 75.65 18.25 38.95 M 52.63 73.99 C 52.59 101.80 52.63 129.61 52.63 157.42 C 86.08 157.50 119.53 157.47 152.98 157.43 C 157.55 157.65 161.66 153.57 161.51 149.02 C 161.56 124.01 161.56 98.99 161.51 73.99 C 161.74 70.49 158.51 67.35 155.01 67.68 C 123.00 67.66 90.99 67.65 58.98 67.66 C 55.52 67.40 52.37 70.52 52.63 73.99 Z" />
<path fill="#ff365f" opacity="1.00" d=" M 80.10 95.96 C 76.35 90.32 83.76 82.80 89.46 86.53 C 95.62 91.64 100.62 98.07 106.80 103.18 C 112.32 97.60 117.68 91.81 123.54 86.60 C 129.54 82.44 137.31 91.04 132.61 96.57 C 118.65 110.94 104.40 125.07 90.14 139.15 C 84.86 143.98 76.09 136.86 79.75 130.64 C 84.87 124.30 91.27 119.05 96.76 113.01 C 91.27 107.27 85.27 101.98 80.10 95.96 Z" />
<path fill="#ff365f" opacity="1.00" d=" M 118.23 120.32 C 124.30 118.48 127.73 125.06 131.63 128.39 C 135.70 131.74 134.09 138.94 129.01 140.29 C 123.00 141.82 119.71 135.43 115.84 132.12 C 111.82 128.87 113.33 121.78 118.23 120.32 Z" />
</g>
</svg>
