<?xml version="1.0" encoding="UTF-8" ?>
<!DOCTYPE svg PUBLIC "-//W3C//DTD SVG 1.1//EN" "http://www.w3.org/Graphics/SVG/1.1/DTD/svg11.dtd">
<svg width="192pt" height="192pt" viewBox="0 0 192 192" version="1.1" xmlns="http://www.w3.org/2000/svg">
<g id="#f6ab27ff">
<path fill="#f6ab27" opacity="1.00" d=" M 18.26 38.96 C 18.02 28.32 27.27 18.63 37.91 18.41 C 51.28 18.28 64.66 18.37 78.03 18.36 C 80.06 18.22 81.96 19.24 83.17 20.85 C 87.15 25.64 91.13 30.43 95.06 35.27 C 110.33 35.53 125.62 35.09 140.88 35.47 C 146.81 36.17 146.84 45.81 140.89 46.47 C 125.60 46.79 110.28 46.48 94.98 46.61 C 92.87 46.51 90.38 46.93 88.67 45.35 C 83.88 40.37 80.11 34.39 75.11 29.62 C 63.08 29.54 51.04 29.59 39.01 29.59 C 33.56 29.37 28.95 34.60 29.44 39.95 C 29.50 76.59 29.34 113.23 29.53 149.87 C 29.85 155.68 36.17 158.39 41.31 157.46 C 41.39 129.28 41.25 101.09 41.40 72.91 C 41.54 64.20 49.30 56.47 58.03 56.43 C 90.68 56.38 123.32 56.38 155.97 56.41 C 164.77 56.38 172.63 64.14 172.76 72.92 C 172.86 98.29 172.80 123.67 172.80 149.04 C 173.10 159.58 163.59 169.12 153.03 168.73 C 114.67 168.74 76.32 168.73 37.96 168.71 C 27.42 169.10 17.91 159.57 18.24 149.04 C 18.22 112.35 18.22 75.65 18.26 38.96 M 52.63 74.00 C 52.56 101.76 52.68 129.53 52.58 157.29 C 85.73 157.68 118.90 157.33 152.06 157.45 C 156.90 157.98 161.68 154.00 161.50 149.03 C 161.56 124.01 161.55 98.99 161.51 73.98 C 161.73 70.47 158.50 67.37 155.00 67.67 C 123.00 67.66 91.00 67.65 58.99 67.65 C 55.53 67.41 52.34 70.50 52.63 74.00 Z" />
<path fill="#f6ab27" opacity="1.00" d=" M 122.95 77.01 C 124.96 74.65 128.69 75.25 130.49 77.54 C 135.38 82.61 140.63 87.37 145.31 92.63 C 148.38 97.61 142.27 101.21 139.42 104.43 C 136.22 107.06 133.50 112.45 128.67 111.37 C 124.89 108.60 121.82 104.92 118.53 101.58 C 115.88 98.38 119.57 93.52 123.36 94.46 C 126.23 95.34 127.87 98.12 130.08 99.95 C 131.61 98.44 133.13 96.94 134.63 95.40 C 131.71 92.71 128.99 89.82 126.14 87.05 C 111.50 101.85 96.47 116.28 82.20 131.45 C 81.99 134.24 82.00 137.05 82.05 139.86 C 85.37 139.42 89.72 141.23 92.08 138.09 C 100.55 129.57 108.98 120.99 117.57 112.60 C 121.73 108.85 128.12 115.15 124.31 119.36 C 115.79 128.46 106.69 137.04 97.99 145.98 C 93.57 152.09 85.27 148.64 78.96 149.55 C 75.09 150.32 71.66 146.92 72.43 143.05 C 73.06 137.60 71.11 131.49 73.60 126.48 C 89.95 109.90 106.50 93.50 122.95 77.01 Z" />
</g>
</svg>
