<?xml version="1.0" encoding="UTF-8" ?>
<!DOCTYPE svg PUBLIC "-//W3C//DTD SVG 1.1//EN" "http://www.w3.org/Graphics/SVG/1.1/DTD/svg11.dtd">
<svg width="192pt" height="192pt" viewBox="0 0 192 192" version="1.1" xmlns="http://www.w3.org/2000/svg">
<g id="#ff555fff">
<path fill="#ff555f" opacity="1.00" d=" M 18.24 38.96 C 18.01 28.32 27.27 18.62 37.91 18.40 C 50.96 18.25 64.00 18.40 77.05 18.32 C 79.09 18.24 81.35 18.58 82.67 20.31 C 86.88 25.22 90.95 30.25 95.05 35.26 C 110.32 35.54 125.62 35.08 140.88 35.47 C 146.94 36.19 146.77 46.13 140.64 46.51 C 125.43 46.75 110.20 46.50 94.98 46.62 C 92.64 46.56 89.81 46.91 88.15 44.86 C 83.72 39.85 79.77 34.41 75.19 29.52 C 63.13 29.71 51.07 29.52 39.00 29.61 C 33.56 29.40 28.97 34.61 29.45 39.95 C 29.51 76.58 29.34 113.23 29.54 149.86 C 29.84 155.68 36.17 158.39 41.31 157.46 C 41.39 129.28 41.24 101.10 41.39 72.92 C 41.53 64.24 49.22 56.52 57.92 56.44 C 90.64 56.37 123.36 56.38 156.08 56.42 C 165.22 56.43 173.17 64.85 172.78 73.97 C 172.76 99.34 172.86 124.71 172.74 150.08 C 172.53 160.24 163.19 169.09 153.03 168.71 C 114.68 168.73 76.32 168.73 37.97 168.71 C 27.42 169.11 17.90 159.57 18.23 149.04 C 18.21 112.35 18.21 75.65 18.24 38.96 M 52.64 74.00 C 52.60 101.80 52.62 129.61 52.63 157.42 C 86.08 157.51 119.53 157.47 152.98 157.43 C 157.54 157.65 161.66 153.58 161.51 149.03 C 161.56 124.01 161.56 98.99 161.51 73.98 C 161.74 70.48 158.50 67.34 155.00 67.67 C 123.01 67.65 91.01 67.65 59.01 67.67 C 55.53 67.39 52.36 70.51 52.64 74.00 Z" />
</g>
</svg>
