<?xml version="1.0" encoding="UTF-8" ?>
<!DOCTYPE svg PUBLIC "-//W3C//DTD SVG 1.1//EN" "http://www.w3.org/Graphics/SVG/1.1/DTD/svg11.dtd">
<svg width="192pt" height="192pt" viewBox="0 0 192 192" version="1.1" xmlns="http://www.w3.org/2000/svg">
<g id="#8192a4ff">
<path fill="#8192a4" opacity="1.00" d=" M 18.19 42.01 C 16.79 30.72 25.43 19.17 36.99 18.46 C 49.65 18.12 62.34 18.47 75.01 18.29 C 77.63 18.36 80.84 17.96 82.65 20.32 C 86.94 25.19 90.96 30.31 95.10 35.31 C 110.35 35.49 125.62 35.07 140.86 35.50 C 146.94 36.10 146.79 46.17 140.65 46.49 C 125.43 46.81 110.19 46.48 94.97 46.64 C 92.63 46.56 89.82 46.90 88.16 44.86 C 83.72 39.88 79.74 34.51 75.28 29.55 C 63.18 29.72 51.08 29.51 38.99 29.64 C 33.55 29.44 29.02 34.60 29.46 39.93 C 29.53 76.57 29.33 113.22 29.56 149.85 C 29.82 155.75 36.18 158.22 41.31 157.57 C 41.38 129.35 41.22 101.13 41.39 72.92 C 41.51 63.84 49.87 56.00 58.94 56.40 C 91.32 56.42 123.70 56.35 156.08 56.43 C 165.21 56.43 173.15 64.84 172.77 73.94 C 172.79 98.98 172.80 124.02 172.77 149.06 C 173.09 159.58 163.60 169.12 153.05 168.71 C 114.69 168.73 76.32 168.73 37.95 168.71 C 27.40 169.12 17.91 159.59 18.23 149.06 C 18.17 113.38 18.25 77.69 18.19 42.01 M 52.66 73.97 C 52.55 101.78 52.69 129.60 52.60 157.41 C 86.07 157.51 119.54 157.48 153.01 157.43 C 157.57 157.62 161.67 153.58 161.51 149.01 C 161.56 124.00 161.57 98.99 161.50 73.99 C 161.72 70.48 158.54 67.39 155.03 67.69 C 123.01 67.65 90.99 67.65 58.97 67.70 C 55.51 67.44 52.41 70.49 52.66 73.97 Z" />
<path fill="#8192a4" opacity="1.00" d=" M 89.84 84.92 C 93.84 76.35 104.83 71.89 113.67 75.31 C 121.40 77.85 126.82 85.78 126.69 93.86 C 126.63 97.25 122.20 100.08 119.40 97.60 C 115.99 94.66 117.85 88.81 113.91 86.09 C 108.74 81.32 99.62 83.97 97.62 90.64 C 96.29 97.76 98.26 105.16 96.26 112.21 C 93.03 113.50 89.55 113.60 86.12 113.43 C 85.96 122.61 86.08 131.80 86.03 140.99 C 100.15 140.92 114.26 140.94 128.37 140.98 C 128.39 131.79 128.34 122.61 128.40 113.43 C 122.72 113.49 117.05 113.33 111.38 113.56 C 112.57 117.14 116.69 118.46 118.06 121.93 C 121.28 127.94 118.03 136.17 111.66 138.48 C 105.30 141.40 97.15 137.17 95.55 130.44 C 93.80 124.64 97.15 118.37 102.44 115.77 C 102.87 111.92 100.87 105.36 106.06 104.13 C 114.69 103.53 123.39 103.97 132.05 103.90 C 135.07 103.49 138.00 105.82 137.74 108.97 C 137.85 120.99 137.78 133.02 137.77 145.04 C 138.10 148.21 135.15 150.96 132.01 150.55 C 115.34 150.54 98.67 150.59 82.00 150.53 C 79.35 150.77 76.56 148.85 76.68 146.01 C 76.43 135.01 76.71 124.00 76.56 113.00 C 76.65 110.32 76.22 107.26 78.06 105.05 C 80.93 103.25 84.50 104.00 87.71 103.84 C 87.76 97.52 86.79 90.75 89.84 84.92 M 105.43 129.59 C 108.61 131.00 110.24 127.99 109.89 125.21 C 106.78 123.20 102.71 126.38 105.43 129.59 Z" />
</g>
</svg>
