<?xml version="1.0" encoding="UTF-8" ?>
<!DOCTYPE svg PUBLIC "-//W3C//DTD SVG 1.1//EN" "http://www.w3.org/Graphics/SVG/1.1/DTD/svg11.dtd">
<svg width="192pt" height="192pt" viewBox="0 0 192 192" version="1.1" xmlns="http://www.w3.org/2000/svg">
<g id="#ff507cff">
<path fill="#ff507c" opacity="1.00" d=" M 18.26 38.93 C 18.03 28.30 27.29 18.63 37.92 18.41 C 50.62 18.25 63.33 18.42 76.04 18.32 C 78.36 18.29 81.10 18.25 82.66 20.31 C 86.91 25.23 90.95 30.33 95.13 35.31 C 110.37 35.48 125.62 35.12 140.85 35.47 C 146.82 36.12 146.84 45.87 140.85 46.47 C 125.57 46.79 110.26 46.47 94.96 46.62 C 92.64 46.55 89.81 46.92 88.17 44.86 C 83.76 39.85 79.76 34.50 75.30 29.54 C 63.20 29.67 51.09 29.52 38.99 29.60 C 33.54 29.39 28.96 34.61 29.44 39.95 C 29.50 76.58 29.33 113.22 29.54 149.85 C 29.82 155.69 36.17 158.36 41.31 157.49 C 41.39 129.30 41.25 101.11 41.39 72.93 C 41.52 63.86 49.87 56.01 58.93 56.41 C 91.31 56.42 123.69 56.36 156.07 56.42 C 165.21 56.42 173.15 64.83 172.79 73.93 C 172.80 98.98 172.82 124.02 172.79 149.07 C 173.09 159.59 163.60 169.10 153.06 168.72 C 114.69 168.74 76.31 168.73 37.94 168.71 C 27.41 169.09 17.92 159.58 18.24 149.06 C 18.22 112.35 18.22 75.64 18.26 38.93 M 52.63 73.96 C 52.57 101.77 52.64 129.59 52.61 157.41 C 86.07 157.51 119.53 157.46 152.98 157.42 C 157.55 157.62 161.66 153.57 161.51 149.00 C 161.56 124.00 161.55 99.00 161.51 74.00 C 161.74 70.51 158.54 67.36 155.04 67.68 C 123.02 67.65 90.99 67.64 58.96 67.66 C 55.52 67.40 52.37 70.50 52.63 73.96 Z" />
<path fill="#ff507c" opacity="1.00" d=" M 103.13 78.17 C 105.74 75.54 110.74 76.53 112.08 80.01 C 113.00 82.72 112.50 85.68 112.61 88.49 C 116.57 88.85 120.89 87.71 124.59 89.45 C 128.78 91.78 127.60 99.11 122.74 99.67 C 116.19 100.17 109.60 99.49 103.06 99.95 C 99.45 100.41 99.80 106.30 103.41 106.33 C 109.48 106.25 116.57 106.01 120.79 111.24 C 128.50 119.26 123.32 133.55 112.61 135.62 C 112.40 139.02 113.54 143.15 110.95 145.90 C 108.32 148.68 103.14 147.70 101.78 144.11 C 100.96 141.36 101.39 138.43 101.29 135.61 C 97.56 135.35 93.58 136.24 90.02 134.95 C 85.53 132.82 86.44 125.35 91.36 124.47 C 97.85 123.86 104.41 124.63 110.92 124.11 C 113.97 123.34 113.86 118.64 110.90 117.82 C 105.58 117.38 99.61 118.57 95.14 114.87 C 84.80 108.02 89.07 90.39 101.27 88.65 C 101.64 85.18 100.36 80.92 103.13 78.17 Z" />
</g>
</svg>
