<?xml version="1.0" encoding="UTF-8" ?>
<!DOCTYPE svg PUBLIC "-//W3C//DTD SVG 1.1//EN" "http://www.w3.org/Graphics/SVG/1.1/DTD/svg11.dtd">
<svg width="192pt" height="192pt" viewBox="0 0 192 192" version="1.1" xmlns="http://www.w3.org/2000/svg">
<g id="#d33aadff">
<path fill="#d33aad" opacity="1.00" d=" M 18.25 38.95 C 17.99 27.90 27.96 18.01 39.01 18.33 C 52.65 18.44 66.32 17.99 79.94 18.53 C 86.43 22.48 89.74 30.25 95.45 35.23 C 110.61 35.54 125.81 35.06 140.96 35.51 C 146.77 36.28 146.80 45.71 140.98 46.44 C 125.66 46.82 110.32 46.48 95.00 46.65 C 92.64 46.56 89.78 46.95 88.12 44.87 C 83.79 39.88 79.74 34.63 75.40 29.64 C 63.27 29.63 51.13 29.59 39.00 29.62 C 33.57 29.43 28.97 34.60 29.45 39.94 C 29.51 76.58 29.33 113.22 29.53 149.86 C 29.82 155.71 36.18 158.37 41.33 157.50 C 41.36 129.65 41.30 101.80 41.34 73.95 C 41.00 64.85 48.88 56.44 58.03 56.41 C 90.67 56.31 123.33 56.40 155.98 56.44 C 164.74 56.42 172.61 64.16 172.70 72.92 C 172.80 98.29 172.74 123.67 172.74 149.05 C 173.05 159.22 164.17 168.59 153.97 168.68 C 114.99 168.81 76.01 168.75 37.03 168.67 C 26.82 168.59 17.95 159.23 18.25 149.05 C 18.23 112.35 18.22 75.65 18.25 38.95 M 52.66 73.99 C 52.56 101.77 52.70 129.56 52.57 157.35 C 85.73 157.60 118.89 157.34 152.05 157.48 C 156.91 158.02 161.72 154.01 161.53 149.01 C 161.58 124.01 161.58 99.00 161.54 73.99 C 161.80 70.45 158.48 67.35 154.99 67.63 C 122.99 67.67 91.00 67.70 59.00 67.69 C 55.55 67.44 52.38 70.49 52.66 73.99 Z" />
</g>
</svg>
