<?xml version="1.0" encoding="UTF-8" ?>
<!DOCTYPE svg PUBLIC "-//W3C//DTD SVG 1.1//EN" "http://www.w3.org/Graphics/SVG/1.1/DTD/svg11.dtd">
<svg width="192pt" height="192pt" viewBox="0 0 192 192" version="1.1" xmlns="http://www.w3.org/2000/svg">
<g id="#f89235ff">
<path fill="#f89235" opacity="1.00" d=" M 18.25 40.93 C 18.03 30.29 27.29 20.61 37.93 20.40 C 50.63 20.24 63.33 20.41 76.03 20.31 C 78.37 20.28 81.12 20.25 82.68 22.32 C 86.91 27.23 90.97 32.29 95.10 37.29 C 110.35 37.48 125.61 37.09 140.85 37.46 C 146.94 38.12 146.80 48.15 140.64 48.51 C 123.98 48.60 107.27 48.83 90.63 48.38 C 84.18 44.39 80.90 36.57 75.11 31.65 C 63.08 31.53 51.03 31.60 39.00 31.61 C 33.55 31.39 28.97 36.61 29.45 41.95 C 29.51 78.58 29.34 115.21 29.54 151.83 C 29.82 157.67 36.16 160.34 41.30 159.48 C 41.34 131.63 41.29 103.78 41.34 75.94 C 41.01 66.85 48.90 58.45 58.03 58.43 C 90.67 58.37 123.32 58.37 155.97 58.40 C 165.16 58.35 173.16 66.79 172.81 75.94 C 172.82 100.98 172.85 126.03 172.81 151.07 C 173.09 161.60 163.61 171.11 153.06 170.74 C 114.69 170.76 76.31 170.74 37.94 170.72 C 27.40 171.10 17.91 161.58 18.22 151.06 C 18.21 114.35 18.21 77.64 18.25 40.93 M 52.64 75.97 C 52.59 103.78 52.64 131.60 52.64 159.42 C 86.09 159.47 119.54 159.47 152.99 159.40 C 157.57 159.62 161.64 155.55 161.49 151.00 C 161.55 126.00 161.54 101.00 161.50 76.00 C 161.73 72.46 158.48 69.37 154.97 69.68 C 122.99 69.67 91.00 69.66 59.03 69.67 C 55.57 69.42 52.37 72.47 52.64 75.97 Z" />
<path fill="#f89235" opacity="1.00" d=" M 70.28 92.27 C 82.41 79.19 105.43 79.32 117.26 92.72 C 118.94 94.77 118.65 97.95 116.78 99.78 C 111.78 105.01 106.54 110.02 101.46 115.18 C 106.44 120.31 111.61 125.26 116.60 130.39 C 118.51 132.17 119.00 135.32 117.43 137.47 C 105.92 150.75 83.47 151.27 71.05 138.93 C 57.96 127.08 57.55 104.53 70.28 92.27 M 80.80 97.78 C 71.80 104.06 69.25 117.52 75.29 126.68 C 81.04 136.34 94.66 139.67 104.32 133.99 C 99.71 128.82 94.52 124.21 89.78 119.17 C 87.84 117.38 87.41 114.12 89.08 112.02 C 93.87 106.48 99.72 101.91 104.29 96.18 C 96.88 92.48 87.50 92.66 80.80 97.78 Z" />
<path fill="#f89235" opacity="1.00" d=" M 118.43 110.56 C 123.14 108.61 132.85 108.41 132.58 115.66 C 132.01 121.70 124.71 121.10 120.32 120.58 C 115.67 119.91 114.42 112.90 118.43 110.56 Z" />
<path fill="#f89235" opacity="1.00" d=" M 144.23 110.19 C 147.32 109.22 150.73 109.49 153.91 109.90 C 158.69 111.18 159.01 118.63 154.36 120.32 C 151.20 121.05 147.81 120.98 144.64 120.39 C 140.20 118.92 139.91 111.98 144.23 110.19 Z" />
</g>
</svg>
