<?xml version="1.0" encoding="UTF-8" ?>
<!DOCTYPE svg PUBLIC "-//W3C//DTD SVG 1.1//EN" "http://www.w3.org/Graphics/SVG/1.1/DTD/svg11.dtd">
<svg width="192pt" height="192pt" viewBox="0 0 192 192" version="1.1" xmlns="http://www.w3.org/2000/svg">
<g id="#ff3660ff">
<path fill="#ff3660" opacity="1.00" d=" M 18.25 38.92 C 18.03 28.28 27.30 18.61 37.94 18.40 C 50.64 18.25 63.34 18.42 76.05 18.31 C 78.37 18.28 81.10 18.25 82.66 20.30 C 86.92 25.22 90.95 30.35 95.16 35.32 C 110.38 35.46 125.62 35.12 140.83 35.47 C 146.82 36.10 146.85 45.90 140.84 46.48 C 125.56 46.79 110.25 46.48 94.95 46.62 C 92.64 46.54 89.81 46.93 88.18 44.88 C 83.77 39.88 79.76 34.54 75.32 29.56 C 63.20 29.66 51.08 29.53 38.97 29.61 C 33.54 29.42 28.98 34.62 29.45 39.94 C 29.51 76.57 29.34 113.20 29.54 149.83 C 29.81 155.68 36.16 158.36 41.31 157.49 C 41.36 129.64 41.30 101.78 41.35 73.92 C 41.02 64.88 48.85 56.50 57.94 56.44 C 90.64 56.37 123.36 56.38 156.06 56.42 C 165.20 56.42 173.15 64.82 172.79 73.93 C 172.77 99.31 172.87 124.70 172.74 150.08 C 172.53 160.23 163.22 169.08 153.07 168.72 C 114.69 168.73 76.31 168.73 37.93 168.71 C 27.41 169.09 17.92 159.59 18.23 149.08 C 18.22 112.36 18.21 75.64 18.25 38.92 M 52.64 73.94 C 52.58 101.77 52.63 129.60 52.62 157.42 C 86.09 157.49 119.55 157.48 153.02 157.42 C 157.59 157.63 161.67 153.54 161.51 148.99 C 161.56 124.00 161.56 99.00 161.51 74.00 C 161.74 70.52 158.55 67.37 155.05 67.68 C 123.02 67.65 90.98 67.65 58.94 67.67 C 55.51 67.42 52.39 70.50 52.64 73.94 Z" />
<path fill="#ff3660" opacity="1.00" d=" M 82.14 94.75 C 78.83 90.07 85.32 83.66 89.94 87.13 C 96.41 92.98 102.30 99.47 108.62 105.50 C 114.88 99.44 120.79 92.98 127.25 87.15 C 131.95 83.54 138.60 90.34 134.91 94.97 C 129.07 101.28 122.78 107.17 116.73 113.28 C 122.50 120.13 129.66 125.72 135.32 132.63 C 138.09 137.44 131.69 143.11 127.25 139.87 C 120.79 134.00 114.86 127.56 108.60 121.47 C 102.29 127.54 96.35 134.00 89.89 139.90 C 85.24 143.22 78.83 136.93 82.14 132.23 C 87.97 125.68 94.56 119.83 100.59 113.45 C 94.49 107.18 87.98 101.27 82.14 94.75 Z" />
</g>
</svg>
