<?xml version="1.0" encoding="UTF-8" ?>
<!DOCTYPE svg PUBLIC "-//W3C//DTD SVG 1.1//EN" "http://www.w3.org/Graphics/SVG/1.1/DTD/svg11.dtd">
<svg width="192pt" height="192pt" viewBox="0 0 192 192" version="1.1" xmlns="http://www.w3.org/2000/svg">
<g id="#8592a0ff">
<path fill="#8592a0" opacity="1.00" d=" M 18.19 42.00 C 16.78 30.72 25.43 19.18 36.98 18.46 C 49.64 18.12 62.33 18.46 75.00 18.30 C 77.63 18.35 80.84 17.95 82.67 20.31 C 86.93 25.20 90.95 30.30 95.09 35.29 C 110.34 35.51 125.61 35.07 140.85 35.49 C 146.94 36.12 146.79 46.17 140.64 46.50 C 125.43 46.79 110.19 46.49 94.96 46.64 C 92.63 46.56 89.80 46.91 88.15 44.86 C 83.71 39.88 79.76 34.47 75.24 29.56 C 63.16 29.71 51.08 29.52 39.00 29.64 C 33.56 29.43 29.01 34.61 29.46 39.94 C 29.52 76.57 29.34 113.21 29.55 149.84 C 29.82 155.72 36.17 158.27 41.31 157.53 C 41.38 129.33 41.22 101.12 41.38 72.92 C 41.51 63.84 49.88 55.99 58.95 56.40 C 91.32 56.42 123.70 56.36 156.07 56.43 C 165.21 56.42 173.16 64.84 172.78 73.95 C 172.79 98.98 172.80 124.02 172.77 149.06 C 173.10 159.59 163.59 169.12 153.05 168.71 C 114.68 168.73 76.32 168.73 37.95 168.72 C 27.40 169.12 17.90 159.58 18.23 149.05 C 18.17 113.37 18.25 77.69 18.19 42.00 M 52.66 73.98 C 52.58 101.79 52.65 129.61 52.63 157.43 C 86.08 157.49 119.54 157.50 152.99 157.43 C 157.57 157.65 161.66 153.58 161.51 149.01 C 161.56 124.01 161.57 99.00 161.51 73.99 C 161.73 70.49 158.53 67.38 155.03 67.69 C 123.02 67.65 91.00 67.65 58.98 67.69 C 55.52 67.43 52.40 70.50 52.66 73.98 Z" />
<path fill="#8592a0" opacity="1.00" d=" M 82.44 88.43 C 92.40 78.29 109.07 75.75 121.61 82.48 C 136.01 89.55 143.83 107.53 138.75 122.83 C 134.48 137.63 118.32 149.58 102.85 146.14 C 101.65 141.87 100.46 136.22 103.51 132.54 C 107.30 129.70 111.20 134.11 110.75 137.99 C 122.82 135.94 132.32 124.31 131.54 112.02 C 131.52 98.33 118.59 86.37 104.93 87.47 C 93.18 87.71 82.55 97.34 81.03 108.97 C 79.49 118.31 83.64 128.21 91.32 133.72 C 95.24 136.65 90.38 143.49 86.37 140.59 C 69.22 129.44 67.26 102.11 82.44 88.43 Z" />
<path fill="#8592a0" opacity="1.00" d=" M 92.04 107.00 C 91.32 99.91 96.94 93.16 103.93 92.13 C 112.94 90.38 121.67 98.99 120.31 108.00 C 119.81 113.60 115.30 117.49 110.66 119.99 C 110.68 123.30 110.78 128.88 106.10 128.76 C 100.14 127.96 101.24 120.05 103.12 116.06 C 104.51 111.43 112.03 111.50 111.70 106.10 C 111.81 102.30 107.58 99.44 104.11 101.06 C 99.77 102.17 101.65 108.25 98.01 110.08 C 95.68 111.51 92.27 109.71 92.04 107.00 Z" />
</g>
</svg>
