<?xml version="1.0" encoding="UTF-8" ?>
<!DOCTYPE svg PUBLIC "-//W3C//DTD SVG 1.1//EN" "http://www.w3.org/Graphics/SVG/1.1/DTD/svg11.dtd">
<svg width="192pt" height="192pt" viewBox="0 0 192 192" version="1.1" xmlns="http://www.w3.org/2000/svg">
<g id="#ff831fff">
<path fill="#ff831f" opacity="1.00" d=" M 18.21 42.01 C 16.79 30.72 25.45 19.18 37.00 18.47 C 49.67 18.15 62.35 18.47 75.02 18.31 C 77.64 18.36 80.84 17.96 82.66 20.32 C 86.93 25.21 90.95 30.31 95.11 35.30 C 110.35 35.49 125.61 35.08 140.84 35.49 C 146.83 36.08 146.85 45.91 140.85 46.46 C 125.57 46.82 110.26 46.46 94.96 46.63 C 92.64 46.55 89.82 46.89 88.17 44.86 C 83.74 39.87 79.76 34.48 75.27 29.53 C 63.18 29.70 51.08 29.50 38.99 29.62 C 33.53 29.40 28.99 34.61 29.45 39.94 C 29.51 76.57 29.33 113.21 29.55 149.84 C 29.81 155.73 36.17 158.26 41.31 157.54 C 41.39 129.34 41.24 101.13 41.39 72.92 C 41.52 63.85 49.88 56.01 58.94 56.40 C 91.31 56.42 123.69 56.35 156.07 56.42 C 165.22 56.42 173.15 64.83 172.79 73.94 C 172.80 98.98 172.82 124.03 172.79 149.07 C 173.08 159.60 163.60 169.10 153.06 168.73 C 114.69 168.74 76.31 168.73 37.94 168.71 C 27.41 169.09 17.92 159.58 18.23 149.06 C 18.19 113.38 18.27 77.69 18.21 42.01 M 52.65 73.97 C 52.57 101.79 52.64 129.61 52.63 157.43 C 86.08 157.47 119.54 157.49 153.00 157.41 C 157.58 157.63 161.65 153.56 161.50 148.99 C 161.56 124.00 161.56 99.00 161.50 74.01 C 161.73 70.50 158.55 67.38 155.03 67.69 C 123.01 67.65 90.98 67.64 58.96 67.68 C 55.50 67.42 52.39 70.50 52.65 73.97 Z" />
<path fill="#ff831f" opacity="1.00" d=" M 103.51 76.60 C 123.42 72.88 143.66 93.62 138.48 113.63 C 135.91 127.13 123.26 134.29 114.12 143.11 C 111.19 145.73 107.62 150.68 103.21 147.90 C 95.92 141.51 88.67 135.03 81.48 128.52 C 69.81 117.11 69.89 96.19 82.41 85.44 C 84.66 82.44 89.94 83.55 90.79 87.16 C 92.02 90.68 88.42 93.07 86.66 95.60 C 80.29 103.77 82.24 116.40 90.04 122.96 C 95.59 127.37 100.41 132.60 106.00 136.95 C 111.46 132.44 116.47 127.43 121.95 122.95 C 127.21 118.28 130.09 110.97 128.84 103.98 C 127.49 95.03 119.67 88.24 111.16 86.15 C 111.05 89.62 111.00 93.10 111.09 96.57 C 118.21 99.28 121.36 108.71 117.14 115.08 C 112.58 123.12 99.47 123.17 94.87 115.15 C 90.58 108.76 93.76 99.34 100.85 96.56 C 102.03 90.13 98.31 81.56 103.51 76.60 M 103.21 110.44 C 103.91 110.68 105.31 111.16 106.01 111.40 C 106.70 111.15 108.09 110.66 108.78 110.41 C 110.94 104.14 101.02 104.18 103.21 110.44 Z" />
</g>
</svg>
