<?xml version="1.0" encoding="UTF-8" ?>
<!DOCTYPE svg PUBLIC "-//W3C//DTD SVG 1.1//EN" "http://www.w3.org/Graphics/SVG/1.1/DTD/svg11.dtd">
<svg width="192pt" height="192pt" viewBox="0 0 192 192" version="1.1" xmlns="http://www.w3.org/2000/svg">
<g id="#4be56eff">
<path fill="#4be56e" opacity="1.00" d=" M 18.25 38.93 C 18.03 28.30 27.28 18.62 37.92 18.41 C 50.28 18.23 62.65 18.43 75.01 18.31 C 77.63 18.37 80.83 17.96 82.65 20.32 C 86.94 25.20 90.94 30.34 95.13 35.32 C 110.36 35.49 125.62 35.09 140.85 35.50 C 146.82 36.09 146.85 45.91 140.86 46.46 C 125.92 46.83 110.94 46.46 95.99 46.63 C 93.35 46.48 90.11 47.14 88.17 44.87 C 83.75 39.88 79.75 34.52 75.31 29.55 C 63.20 29.69 51.09 29.51 38.98 29.62 C 33.53 29.42 28.99 34.61 29.45 39.94 C 29.51 76.57 29.32 113.21 29.55 149.84 C 29.81 155.74 36.18 158.25 41.31 157.56 C 41.39 129.35 41.24 101.14 41.39 72.93 C 41.52 63.83 49.92 55.98 59.01 56.40 C 91.33 56.43 123.65 56.36 155.97 56.43 C 165.16 56.37 173.15 64.79 172.78 73.93 C 172.79 98.98 172.82 124.02 172.78 149.07 C 173.09 159.59 163.60 169.11 153.06 168.72 C 114.69 168.73 76.31 168.73 37.94 168.71 C 27.41 169.10 17.92 159.59 18.24 149.07 C 18.22 112.36 18.21 75.64 18.25 38.93 M 52.65 73.96 C 52.56 101.78 52.66 129.60 52.61 157.43 C 86.07 157.49 119.53 157.48 152.99 157.42 C 157.57 157.61 161.66 153.58 161.50 149.00 C 161.56 124.00 161.57 98.99 161.50 74.00 C 161.74 70.45 158.49 67.39 154.98 67.68 C 122.99 67.66 91.00 67.65 59.01 67.67 C 55.56 67.44 52.39 70.45 52.65 73.96 Z" />
<path fill="#4be56e" opacity="1.00" d=" M 91.98 75.98 C 95.27 73.55 98.50 77.21 99.49 80.19 C 104.87 78.08 110.85 78.07 116.24 80.12 C 117.47 77.17 120.61 73.52 124.01 76.02 C 127.65 78.20 125.31 82.51 123.83 85.28 C 132.63 95.16 128.84 109.05 129.64 120.99 C 129.68 126.57 131.43 136.51 122.74 135.62 C 122.72 138.46 122.63 141.31 122.19 144.12 C 119.45 146.17 114.58 146.10 113.90 142.04 C 113.71 136.24 111.40 125.30 120.64 126.29 C 120.56 119.02 120.58 111.75 120.61 104.48 C 112.15 104.62 103.68 104.58 95.22 104.51 C 95.14 111.83 95.19 119.15 95.16 126.48 C 100.16 126.69 105.52 125.48 110.15 127.96 C 112.40 133.26 106.93 136.66 102.15 135.44 C 102.06 137.89 102.25 140.38 101.67 142.78 C 100.74 146.23 95.10 146.61 93.68 143.33 C 92.82 140.84 93.02 138.15 92.84 135.57 C 89.95 135.67 86.38 134.31 86.29 130.96 C 86.07 120.97 86.24 110.97 86.19 100.97 C 86.06 95.36 88.06 89.75 91.92 85.64 C 90.66 82.62 88.07 78.18 91.98 75.98 M 95.78 95.58 C 103.90 95.71 112.03 95.68 120.16 95.61 C 116.06 85.07 99.82 84.92 95.78 95.58 Z" />
<path fill="#4be56e" opacity="1.00" d=" M 78.19 96.08 C 81.02 94.48 84.99 96.73 84.77 100.07 C 84.79 106.23 85.23 112.48 84.51 118.61 C 83.07 123.90 74.59 121.35 75.91 116.06 C 76.87 109.64 73.51 101.17 78.19 96.08 Z" />
<path fill="#4be56e" opacity="1.00" d=" M 133.19 96.09 C 136.07 94.48 140.02 96.52 139.83 99.95 C 139.85 106.17 140.29 112.47 139.57 118.65 C 138.08 123.90 129.70 121.34 130.93 116.08 C 131.85 109.63 128.57 101.28 133.19 96.09 Z" />
</g>
</svg>
