<?xml version="1.0" encoding="UTF-8" ?>
<!DOCTYPE svg PUBLIC "-//W3C//DTD SVG 1.1//EN" "http://www.w3.org/Graphics/SVG/1.1/DTD/svg11.dtd">
<svg width="192pt" height="192pt" viewBox="0 0 192 192" version="1.1" xmlns="http://www.w3.org/2000/svg">
<g id="#606f80ff">
<path fill="#606f80" opacity="1.00" d=" M 40.99 32.44 C 34.83 31.99 35.03 21.83 41.16 21.54 C 76.45 21.26 111.77 21.44 147.06 21.43 C 159.48 21.36 170.31 32.61 170.02 44.97 C 170.06 79.00 170.10 113.03 170.00 147.06 C 170.06 159.27 159.23 170.05 147.05 170.12 C 113.03 170.24 79.00 170.17 44.97 170.15 C 32.56 170.37 21.27 159.55 21.39 147.06 C 21.39 114.71 21.32 82.35 21.43 50.00 C 21.27 46.01 25.20 43.09 29.00 43.54 C 66.67 43.54 104.34 43.51 142.01 43.55 C 145.13 43.25 148.34 45.69 148.22 48.96 C 148.28 54.60 148.65 60.30 147.98 65.91 C 146.84 70.74 139.29 71.04 137.57 66.45 C 136.57 62.71 136.99 58.74 136.83 54.89 C 102.08 54.65 67.32 54.85 32.57 54.77 C 32.45 85.18 32.55 115.59 32.53 145.99 C 32.07 152.81 38.08 159.11 44.93 158.85 C 78.64 158.89 112.36 158.86 146.07 158.85 C 152.99 159.27 159.25 152.98 158.80 146.06 C 158.80 112.35 158.85 78.63 158.78 44.92 C 158.97 38.51 153.38 32.74 146.99 32.63 C 111.66 32.42 76.31 32.78 40.99 32.44 Z" />
</g>
</svg>
