<?xml version="1.0" encoding="UTF-8" ?>
<!DOCTYPE svg PUBLIC "-//W3C//DTD SVG 1.1//EN" "http://www.w3.org/Graphics/SVG/1.1/DTD/svg11.dtd">
<svg width="192pt" height="192pt" viewBox="0 0 192 192" version="1.1" xmlns="http://www.w3.org/2000/svg">
<g id="#c11fd5ff">
<path fill="#c11fd5" opacity="1.00" d=" M 18.25 38.94 C 18.02 28.30 27.28 18.60 37.92 18.40 C 50.63 18.24 63.33 18.42 76.03 18.31 C 78.37 18.28 81.11 18.25 82.67 20.32 C 86.91 25.22 90.96 30.29 95.08 35.28 C 110.33 35.51 125.60 35.09 140.84 35.48 C 146.82 36.10 146.84 45.89 140.85 46.47 C 125.57 46.79 110.26 46.47 94.97 46.62 C 92.87 46.50 90.37 46.94 88.69 45.36 C 83.85 40.41 80.15 34.39 75.10 29.66 C 63.07 29.52 51.03 29.61 39.00 29.61 C 33.55 29.40 28.97 34.61 29.45 39.95 C 29.51 76.57 29.33 113.21 29.54 149.84 C 29.82 155.69 36.17 158.35 41.31 157.49 C 41.35 129.64 41.30 101.79 41.35 73.94 C 41.01 64.89 48.84 56.50 57.94 56.44 C 90.64 56.37 123.36 56.38 156.07 56.42 C 165.21 56.42 173.15 64.83 172.78 73.94 C 172.79 98.98 172.81 124.02 172.78 149.06 C 173.09 159.59 163.60 169.10 153.05 168.72 C 114.69 168.73 76.32 168.72 37.95 168.71 C 27.41 169.10 17.92 159.58 18.23 149.06 C 18.21 112.35 18.21 75.64 18.25 38.94 M 52.64 73.97 C 52.58 101.79 52.63 129.61 52.63 157.43 C 86.08 157.49 119.54 157.48 152.99 157.42 C 157.57 157.65 161.66 153.56 161.51 149.00 C 161.56 124.00 161.56 99.00 161.51 74.00 C 161.75 70.50 158.53 67.35 155.03 67.68 C 123.01 67.65 90.99 67.64 58.98 67.67 C 55.52 67.40 52.37 70.50 52.64 73.97 Z" />
</g>
</svg>
