<?xml version="1.0" encoding="UTF-8" ?>
<!DOCTYPE svg PUBLIC "-//W3C//DTD SVG 1.1//EN" "http://www.w3.org/Graphics/SVG/1.1/DTD/svg11.dtd">
<svg width="192pt" height="192pt" viewBox="0 0 192 192" version="1.1" xmlns="http://www.w3.org/2000/svg">
<g id="#f6b02cff">
<path fill="#f6b02c" opacity="1.00" d=" M 22.10 43.93 C 21.90 31.71 32.78 20.68 45.01 20.77 C 79.34 20.73 113.67 20.71 148.00 20.77 C 160.20 20.74 171.00 31.74 170.82 43.93 C 170.84 73.92 170.99 103.93 170.77 133.92 C 170.79 140.53 159.93 140.61 159.79 134.02 C 159.50 104.00 159.83 73.95 159.64 43.92 C 159.70 37.31 153.58 31.67 147.05 31.85 C 113.35 31.80 79.65 31.79 45.95 31.82 C 39.38 31.60 33.10 37.23 33.28 43.93 C 33.23 77.97 33.25 112.02 33.27 146.07 C 33.06 149.63 35.05 152.67 37.16 155.34 C 44.97 142.82 58.70 135.47 72.60 131.72 C 61.15 123.40 54.44 109.12 55.95 94.96 C 57.24 75.58 74.55 58.95 93.93 58.24 C 111.78 56.86 129.64 68.76 135.01 85.88 C 140.80 102.26 134.43 121.63 120.35 131.70 C 134.53 135.71 149.10 143.19 156.30 156.66 C 159.53 162.36 154.56 170.11 148.01 169.52 C 113.69 169.58 79.35 169.57 45.02 169.50 C 32.65 169.54 21.82 158.39 22.06 146.06 C 22.05 112.02 22.03 77.97 22.10 43.93 M 90.35 69.49 C 78.81 71.74 69.25 81.42 67.04 92.96 C 64.49 104.92 70.33 117.94 80.77 124.22 C 91.76 131.27 107.25 129.73 116.69 120.73 C 126.99 111.73 129.47 95.30 122.29 83.67 C 116.03 72.86 102.60 66.73 90.35 69.49 M 48.06 158.25 C 80.27 158.39 112.48 158.35 144.68 158.24 C 137.28 149.02 125.92 143.99 114.62 141.46 C 91.82 136.92 64.24 139.81 48.06 158.25 Z" />
</g>
</svg>
