<?xml version="1.0" encoding="UTF-8" ?>
<!DOCTYPE svg PUBLIC "-//W3C//DTD SVG 1.1//EN" "http://www.w3.org/Graphics/SVG/1.1/DTD/svg11.dtd">
<svg width="192pt" height="192pt" viewBox="0 0 192 192" version="1.1" xmlns="http://www.w3.org/2000/svg">
<g id="#617080ff">
<path fill="#617080" opacity="1.00" d=" M 82.61 15.60 C 99.98 10.59 119.74 15.68 132.58 28.40 C 145.37 40.64 151.24 59.70 147.09 76.96 C 145.05 86.65 139.80 95.35 133.05 102.50 C 153.09 109.34 173.65 125.15 174.80 147.95 C 176.20 160.68 163.02 167.66 152.67 170.71 C 125.22 178.39 96.18 178.73 67.97 176.06 C 52.99 173.96 36.76 172.21 24.41 162.68 C 14.55 154.94 17.84 140.53 22.93 130.96 C 30.67 116.85 45.05 107.76 59.89 102.53 C 47.04 89.56 41.33 69.86 46.32 52.16 C 50.85 34.71 65.18 20.25 82.61 15.60 M 90.40 25.50 C 74.74 27.68 61.19 39.91 57.22 55.18 C 52.56 71.68 59.89 90.51 74.44 99.55 C 78.96 101.45 79.05 108.81 74.15 110.22 C 61.31 113.29 48.51 118.50 39.07 128.04 C 33.28 134.02 28.97 142.11 29.49 150.63 C 30.28 153.71 33.45 155.43 36.06 156.86 C 46.08 161.61 57.19 163.25 68.09 164.62 C 91.29 167.12 114.89 166.77 137.89 162.65 C 145.73 161.00 153.91 159.21 160.57 154.51 C 165.77 150.88 162.94 143.68 161.20 138.84 C 153.68 122.67 136.06 114.38 119.54 110.48 C 114.44 109.70 113.35 102.13 117.98 99.89 C 133.47 90.50 141.02 70.16 135.03 52.99 C 129.36 34.58 109.40 22.35 90.40 25.50 Z" />
<path fill="#617080" opacity="1.00" d=" M 90.80 134.81 C 90.50 130.62 90.31 124.10 95.96 123.66 C 102.10 123.19 102.73 130.32 102.21 134.80 C 106.39 134.59 112.81 134.43 113.30 140.01 C 113.88 146.14 106.69 146.93 102.20 146.20 C 102.79 150.67 102.11 157.96 95.97 157.42 C 90.37 156.97 90.47 150.44 90.72 146.24 C 86.21 146.88 79.06 146.16 79.61 139.97 C 80.09 134.31 86.61 134.64 90.80 134.81 Z" />
</g>
</svg>
