<?xml version="1.0" encoding="UTF-8" ?>
<!DOCTYPE svg PUBLIC "-//W3C//DTD SVG 1.1//EN" "http://www.w3.org/Graphics/SVG/1.1/DTD/svg11.dtd">
<svg width="192pt" height="192pt" viewBox="0 0 192 192" version="1.1" xmlns="http://www.w3.org/2000/svg">
<g id="#b21bdfff">
<path fill="#b21bdf" opacity="1.00" d=" M 51.48 27.02 C 51.27 23.58 54.65 20.98 57.93 21.34 C 83.24 21.38 108.55 21.24 133.86 21.40 C 140.09 21.27 141.12 31.27 134.98 32.41 C 111.08 32.91 87.14 32.37 63.23 32.66 C 62.04 51.53 63.09 71.09 62.71 90.23 C 86.78 90.61 110.89 89.97 134.95 90.54 C 141.01 91.61 140.21 101.54 134.01 101.53 C 110.34 101.65 86.66 101.67 62.98 101.51 C 62.41 120.65 62.87 139.83 62.75 158.99 C 62.74 162.32 63.37 166.92 59.63 168.58 C 55.89 170.79 50.88 167.20 51.44 162.99 C 51.45 117.66 51.39 72.34 51.48 27.02 Z" />
</g>
</svg>
