<?xml version="1.0" encoding="UTF-8" ?>
<!DOCTYPE svg PUBLIC "-//W3C//DTD SVG 1.1//EN" "http://www.w3.org/Graphics/SVG/1.1/DTD/svg11.dtd">
<svg width="192pt" height="192pt" viewBox="0 0 192 192" version="1.1" xmlns="http://www.w3.org/2000/svg">
<g id="#45e371ff">
<path fill="#45e371" opacity="1.00" d=" M 92.95 15.93 C 94.55 14.86 96.71 14.56 98.39 15.66 C 129.99 35.38 152.84 71.88 149.49 109.93 C 147.06 134.37 125.62 154.56 101.32 156.59 C 99.93 162.78 101.34 169.16 100.29 175.40 C 97.52 175.17 93.74 176.56 91.63 174.48 C 90.32 168.65 91.97 162.49 90.61 156.61 C 65.98 154.56 44.37 133.84 42.32 109.03 C 39.44 71.47 61.94 35.67 92.95 15.93 M 87.12 32.11 C 79.92 38.22 73.36 45.17 67.98 52.95 C 66.76 54.26 66.71 56.66 68.63 57.35 C 75.43 61.25 82.28 65.09 89.21 68.76 C 90.25 67.74 91.43 66.68 91.15 65.06 C 91.16 54.69 91.27 44.32 91.11 33.95 C 91.44 31.61 88.66 30.47 87.12 32.11 M 101.43 31.12 C 99.80 40.29 101.12 49.72 100.68 59.00 C 101.02 62.29 99.45 66.60 102.78 68.75 C 110.00 64.63 117.53 60.96 124.48 56.41 C 125.41 52.44 120.69 49.42 118.78 46.21 C 113.44 40.89 108.94 33.27 101.43 31.12 M 61.33 65.22 C 56.69 71.40 54.99 79.66 53.26 87.17 C 52.32 89.49 54.76 90.65 56.39 91.58 C 66.74 97.22 76.95 103.16 87.34 108.74 C 89.22 110.40 91.75 108.26 91.16 106.06 C 90.99 97.79 91.58 89.46 90.86 81.22 C 84.40 76.45 76.83 73.25 69.96 69.05 C 67.14 67.77 64.53 65.18 61.33 65.22 M 128.43 65.52 C 120.42 69.72 112.66 74.39 104.67 78.65 C 103.05 79.68 100.48 80.51 100.74 82.90 C 100.63 90.61 100.68 98.33 100.72 106.04 C 100.42 107.71 101.71 108.73 102.81 109.73 C 114.71 102.96 126.97 96.72 138.56 89.47 C 138.67 82.64 135.62 76.04 133.30 69.68 C 132.39 67.75 131.30 63.86 128.43 65.52 M 137.42 101.58 C 126.35 107.28 115.66 113.75 104.67 119.63 C 103.04 120.65 100.47 121.49 100.75 123.90 C 100.61 130.27 100.71 136.65 100.70 143.02 C 100.53 144.52 101.23 146.86 103.15 146.49 C 124.02 144.02 141.18 124.10 140.14 103.04 C 139.74 101.98 138.57 101.01 137.42 101.58 M 52.29 102.19 C 49.71 121.32 64.95 140.74 83.55 145.51 C 85.86 145.85 89.69 147.94 90.98 144.97 C 91.38 137.98 91.15 130.95 91.11 123.96 C 91.45 121.87 89.44 120.94 87.96 120.06 C 77.41 114.26 66.94 108.33 56.41 102.48 C 55.20 101.98 53.26 100.51 52.29 102.19 Z" />
</g>
</svg>
