<?xml version="1.0" encoding="UTF-8" ?>
<!DOCTYPE svg PUBLIC "-//W3C//DTD SVG 1.1//EN" "http://www.w3.org/Graphics/SVG/1.1/DTD/svg11.dtd">
<svg width="192pt" height="192pt" viewBox="0 0 192 192" version="1.1" xmlns="http://www.w3.org/2000/svg">
<g id="#43c2daff">
<path fill="#43c2da" opacity="1.00" d=" M 87.33 14.41 C 118.87 10.69 151.30 27.67 166.77 55.28 C 178.10 74.84 180.73 99.17 173.72 120.67 C 164.57 150.43 137.02 173.41 106.05 176.90 C 72.99 181.52 38.61 163.07 23.59 133.38 C 8.65 105.65 12.12 69.45 31.94 44.99 C 45.31 27.91 65.75 16.61 87.33 14.41 M 83.52 26.26 C 87.67 28.08 91.81 29.94 96.00 31.67 C 100.17 29.97 104.28 28.14 108.39 26.32 C 100.18 24.89 91.73 24.95 83.52 26.26 M 44.29 47.77 C 45.15 56.52 45.86 65.28 46.67 74.03 C 51.64 76.59 56.66 79.06 61.74 81.41 C 70.50 74.96 79.28 68.53 88.11 62.16 C 89.07 61.34 90.72 60.65 90.40 59.07 C 90.44 53.27 90.36 47.46 90.41 41.66 C 82.65 38.04 74.67 34.92 66.84 31.45 C 58.36 35.34 50.48 40.75 44.29 47.77 M 101.61 41.67 C 101.64 47.85 101.66 54.04 101.59 60.22 C 111.24 67.68 121.24 74.67 131.06 81.90 C 135.86 79.38 140.63 76.81 145.37 74.19 C 146.17 65.47 147.01 56.75 147.64 48.02 C 141.20 41.18 133.52 35.54 125.01 31.57 C 117.22 34.95 109.33 38.11 101.61 41.67 M 26.11 86.57 C 29.24 83.00 32.63 79.60 35.41 75.75 C 35.32 71.12 34.66 66.50 34.14 61.89 C 29.86 69.48 27.29 77.96 26.11 86.57 M 157.79 62.54 C 157.34 66.98 156.83 71.41 156.58 75.87 C 159.57 79.38 162.54 82.91 165.71 86.26 C 164.48 77.98 162.03 69.79 157.79 62.54 M 68.96 90.06 C 72.11 100.89 75.84 111.53 79.23 122.29 C 90.44 122.37 101.65 122.34 112.86 122.30 C 116.26 111.55 119.89 100.88 123.18 90.10 C 114.12 83.49 105.09 76.85 96.01 70.28 C 87.00 76.90 77.95 83.44 68.96 90.06 M 26.06 104.02 C 27.16 113.22 30.07 122.24 34.72 130.26 C 43.15 132.23 51.61 134.08 60.02 136.15 C 63.16 133.23 65.78 129.81 68.76 126.72 C 65.19 115.23 61.52 103.75 57.62 92.36 C 53.13 89.39 47.96 87.33 43.06 85.03 C 36.84 90.66 31.78 97.77 26.06 104.02 M 134.20 93.26 C 130.30 104.21 127.03 115.41 123.29 126.42 C 126.05 129.78 128.90 133.07 131.98 136.13 C 140.35 134.06 148.83 132.35 157.18 130.20 C 161.97 123.02 164.28 114.29 165.66 105.80 C 166.46 103.38 164.04 101.88 162.78 100.21 C 158.18 95.17 154.06 89.69 149.17 84.93 C 144.26 87.84 138.95 90.10 134.20 93.26 M 77.63 133.57 C 74.90 136.78 71.99 139.83 69.23 143.01 C 73.48 150.36 77.86 157.63 82.25 164.90 C 91.32 166.74 100.73 166.67 109.82 164.95 C 114.19 157.66 118.59 150.38 122.86 143.02 C 120.08 139.84 117.22 136.72 114.41 133.57 C 102.15 133.53 89.89 133.51 77.63 133.57 M 45.08 144.24 C 50.95 150.48 57.95 155.68 65.73 159.30 C 63.44 155.28 61.03 151.32 58.64 147.36 C 54.14 146.23 49.61 145.25 45.08 144.24 M 133.38 147.37 C 131.04 151.40 128.59 155.37 126.28 159.41 C 134.23 155.80 141.34 150.48 147.30 144.11 C 142.66 145.21 137.99 146.18 133.38 147.37 Z" />
</g>
</svg>
