<?xml version="1.0" encoding="UTF-8" ?>
<!DOCTYPE svg PUBLIC "-//W3C//DTD SVG 1.1//EN" "http://www.w3.org/Graphics/SVG/1.1/DTD/svg11.dtd">
<svg width="192pt" height="192pt" viewBox="0 0 192 192" version="1.1" xmlns="http://www.w3.org/2000/svg">
<g id="#43e273ff">
<path fill="#43e273" opacity="1.00" d=" M 23.50 55.44 C 38.21 28.74 68.49 11.39 99.05 13.13 C 128.70 14.16 156.78 32.80 169.41 59.61 C 180.05 81.36 180.26 107.89 169.82 129.75 C 156.88 157.92 127.12 177.54 96.00 177.47 C 66.83 178.02 38.13 161.53 23.94 136.04 C 21.69 132.09 24.11 126.77 28.38 125.48 C 46.93 118.34 65.33 110.80 83.96 103.89 C 85.10 105.86 86.20 107.85 87.23 109.89 C 70.82 118.97 54.18 127.65 37.75 136.71 C 57.02 164.64 97.46 174.44 127.41 158.50 C 157.15 144.03 173.25 107.21 163.47 75.56 C 154.87 43.72 121.83 21.10 89.02 24.59 C 67.80 26.30 47.82 38.30 36.16 56.07 C 26.48 70.43 22.70 88.36 24.98 105.47 C 44.03 101.35 62.81 96.00 81.92 92.15 C 82.18 95.02 83.49 99.72 79.77 100.80 C 62.02 107.62 44.42 114.81 26.66 121.62 C 22.61 123.63 17.27 121.26 16.01 116.94 C 10.22 96.53 13.05 73.88 23.50 55.44 Z" />
<path fill="#43e273" opacity="1.00" d=" M 65.05 47.94 C 65.00 44.90 68.02 42.63 70.93 42.97 C 90.64 42.99 110.35 42.89 130.06 43.02 C 135.96 42.83 136.85 52.40 131.00 53.32 C 112.51 53.72 93.99 53.38 75.49 53.48 C 75.41 64.33 75.61 75.18 75.40 86.02 C 75.30 90.15 69.55 92.23 66.70 89.32 C 64.58 87.50 65.05 84.48 64.96 82.00 C 65.07 70.64 64.88 59.29 65.05 47.94 Z" />
<path fill="#43e273" opacity="1.00" d=" M 101.27 80.28 C 107.54 78.75 114.61 81.48 118.01 87.01 C 122.40 93.64 120.62 103.53 113.97 108.00 C 106.57 113.46 94.63 110.66 90.94 102.07 C 86.57 93.57 91.90 82.23 101.27 80.28 Z" />
<path fill="#43e273" opacity="1.00" d=" M 69.34 124.41 C 72.56 123.79 75.79 126.69 75.45 129.99 C 75.46 136.32 75.65 142.68 75.35 149.00 C 74.72 154.15 66.77 154.67 65.31 149.77 C 64.56 143.55 65.18 137.21 64.98 130.94 C 64.60 128.07 66.26 124.81 69.34 124.41 Z" />
</g>
</svg>
