<?xml version="1.0" encoding="UTF-8" ?>
<!DOCTYPE svg PUBLIC "-//W3C//DTD SVG 1.1//EN" "http://www.w3.org/Graphics/SVG/1.1/DTD/svg11.dtd">
<svg width="192pt" height="192pt" viewBox="0 0 192 192" version="1.1" xmlns="http://www.w3.org/2000/svg">
<g id="#bf8a5dff">
<path fill="#bf8a5d" opacity="1.00" d=" M 53.56 25.56 C 67.78 16.75 84.96 12.54 101.64 14.04 C 101.62 32.73 101.69 51.42 101.62 70.10 C 104.42 71.15 107.20 72.25 109.83 73.67 C 120.50 63.11 131.14 52.52 141.65 41.81 C 133.27 34.45 122.95 29.74 112.31 26.71 C 106.69 24.59 109.06 15.26 115.00 15.99 C 131.53 19.69 146.66 29.09 157.75 41.86 C 144.62 55.30 131.02 68.29 118.01 81.84 C 119.49 84.35 120.54 87.08 121.34 89.87 C 136.36 90.16 151.39 89.94 166.41 90.00 C 165.62 78.94 161.92 68.26 156.38 58.72 C 153.49 53.05 162.36 47.93 165.88 53.11 C 174.82 67.35 178.78 84.52 177.63 101.26 C 158.94 101.30 140.26 101.23 121.58 101.30 C 120.77 104.26 119.61 107.11 118.17 109.82 C 128.49 120.26 138.84 130.68 149.33 140.94 C 157.49 133.93 161.72 122.33 164.91 111.97 C 167.07 106.30 176.55 108.98 175.49 114.98 C 171.72 131.14 162.71 146.27 150.00 156.98 C 136.16 144.91 123.70 130.64 110.13 117.98 C 107.41 119.48 104.54 120.68 101.58 121.61 C 101.52 136.36 101.65 151.12 101.51 165.87 C 112.73 165.62 123.41 161.33 133.11 155.96 C 138.70 153.33 143.56 162.08 138.53 165.52 C 124.39 174.18 106.76 179.11 90.45 176.80 C 90.31 158.46 90.37 140.11 90.41 121.77 C 87.30 120.69 84.34 119.26 81.29 118.06 C 71.12 128.77 60.23 138.82 50.18 149.63 C 58.72 156.76 68.85 161.73 79.56 164.61 C 84.99 166.72 82.83 175.85 77.01 175.18 C 60.43 171.54 45.23 162.12 34.19 149.26 C 47.47 136.28 60.63 123.17 73.71 109.98 C 72.19 107.16 71.16 104.13 69.96 101.18 C 55.11 101.38 40.25 101.16 25.40 101.30 C 26.36 112.28 29.87 122.92 35.39 132.44 C 38.19 138.14 29.61 142.85 26.02 138.00 C 17.10 123.84 13.23 106.75 14.22 90.09 C 32.87 90.06 51.51 90.00 70.15 90.11 C 71.27 87.23 72.30 84.31 73.86 81.63 C 63.33 70.99 52.77 60.36 42.07 49.89 C 34.87 58.28 29.90 68.38 27.06 79.03 C 25.19 84.92 15.46 82.44 16.46 76.40 C 20.20 59.99 29.43 44.92 42.09 33.85 C 55.48 46.99 68.59 60.43 81.97 73.58 C 84.63 72.18 87.43 71.08 90.28 70.12 C 90.08 55.15 90.60 40.15 90.05 25.20 C 79.04 26.10 68.46 29.84 58.90 35.29 C 53.12 37.95 48.33 28.97 53.56 25.56 M 92.37 81.49 C 85.10 83.10 79.89 90.66 81.16 98.04 C 81.94 106.83 91.82 113.04 100.14 110.25 C 108.06 108.10 112.90 98.75 109.96 91.04 C 107.64 83.97 99.58 79.61 92.37 81.49 Z" />
</g>
</svg>
