<?xml version="1.0" encoding="UTF-8" ?>
<!DOCTYPE svg PUBLIC "-//W3C//DTD SVG 1.1//EN" "http://www.w3.org/Graphics/SVG/1.1/DTD/svg11.dtd">
<svg width="192pt" height="192pt" viewBox="0 0 192 192" version="1.1" xmlns="http://www.w3.org/2000/svg">
<g id="#eea864ff">
<path fill="#eea864" opacity="1.00" d=" M 20.09 41.96 C 19.88 29.71 30.78 18.67 43.03 18.76 C 77.34 18.73 111.66 18.71 145.97 18.76 C 158.19 18.73 169.00 29.76 168.82 41.96 C 168.89 75.98 168.88 110.01 168.84 144.04 C 169.15 156.36 158.30 167.50 145.97 167.52 C 127.33 167.58 108.67 167.58 90.03 167.51 C 85.46 167.97 82.36 161.83 85.51 158.48 C 91.53 152.10 97.88 146.02 104.03 139.76 C 84.40 120.03 64.60 100.47 44.92 80.80 C 40.14 85.05 35.87 89.82 31.27 94.27 C 31.24 110.87 31.25 127.46 31.27 144.06 C 31.10 149.71 35.46 155.03 40.99 156.08 C 46.39 156.90 51.94 155.66 57.30 156.74 C 62.10 158.33 61.86 166.00 56.96 167.30 C 51.69 167.77 46.35 167.60 41.06 167.38 C 29.45 166.40 19.82 155.67 20.07 144.03 C 20.05 110.01 20.04 75.98 20.09 41.96 M 31.27 41.93 C 31.21 54.02 31.29 66.11 31.24 78.20 C 47.35 62.19 63.46 46.16 79.27 29.86 C 67.51 29.75 55.75 29.80 44.00 29.81 C 37.42 29.58 31.11 35.22 31.27 41.93 M 81.45 43.88 C 101.14 63.62 120.97 83.22 140.74 102.88 C 146.40 97.17 152.13 91.53 157.71 85.74 C 157.62 71.13 157.76 56.52 157.65 41.91 C 157.71 35.28 151.53 29.66 145.00 29.84 C 128.65 29.86 112.29 29.70 95.95 29.90 C 90.58 33.86 86.34 39.30 81.45 43.88 M 73.29 51.95 C 66.61 59.04 59.40 65.61 52.85 72.82 C 72.58 92.43 92.28 112.06 112.02 131.66 C 118.97 124.79 125.87 117.86 132.71 110.87 C 112.88 91.25 93.34 71.33 73.29 51.95 M 103.68 156.23 C 117.45 156.42 131.22 156.27 144.99 156.31 C 151.68 156.69 157.79 150.77 157.65 144.08 C 157.72 130.04 157.68 115.99 157.65 101.95 C 139.69 120.08 121.58 138.05 103.68 156.23 Z" />
</g>
</svg>
