<?xml version="1.0" encoding="UTF-8" ?>
<!DOCTYPE svg PUBLIC "-//W3C//DTD SVG 1.1//EN" "http://www.w3.org/Graphics/SVG/1.1/DTD/svg11.dtd">
<svg width="192pt" height="192pt" viewBox="0 0 192 192" version="1.1" xmlns="http://www.w3.org/2000/svg">
<g id="#4a70c3ff">
<path fill="#4a70c3" opacity="1.00" d=" M 40.29 21.35 C 43.80 20.56 47.42 20.75 50.99 20.74 C 83.32 20.78 115.65 20.69 147.98 20.76 C 160.20 20.72 171.01 31.75 170.84 43.94 C 170.91 77.63 170.88 111.33 171.00 145.02 C 171.59 157.68 160.84 169.54 148.06 169.55 C 113.69 169.62 79.31 169.59 44.94 169.53 C 32.61 169.51 21.76 158.37 22.08 146.04 C 22.07 112.01 22.08 77.97 22.13 43.94 C 21.98 33.38 30.04 23.58 40.29 21.35 M 42.28 32.33 C 37.22 33.72 33.13 38.58 33.29 43.93 C 33.25 77.97 33.28 112.02 33.29 146.06 C 33.03 152.81 39.29 158.78 46.00 158.34 C 79.66 158.31 113.33 158.31 146.99 158.28 C 153.67 158.70 159.77 152.74 159.63 146.08 C 159.68 112.03 159.71 77.97 159.63 43.92 C 159.71 36.42 152.15 30.93 145.00 31.82 C 110.77 32.20 76.43 31.04 42.28 32.33 Z" />
<path fill="#4a70c3" opacity="1.00" d=" M 98.52 60.45 C 100.97 55.88 106.82 57.54 111.03 57.27 C 113.32 56.95 115.96 58.38 115.68 60.99 C 115.77 83.96 115.85 106.95 115.68 129.91 C 115.66 133.91 110.73 133.29 108.00 133.33 C 105.36 133.09 101.32 134.13 100.12 130.94 C 99.79 127.55 99.96 124.14 99.82 120.74 C 90.19 120.72 80.57 120.75 70.94 120.73 C 64.55 121.22 65.91 112.44 67.53 108.62 C 77.66 92.44 88.22 76.52 98.52 60.45 M 84.19 107.33 C 89.44 107.43 94.70 107.41 99.95 107.37 C 99.96 99.18 100.00 90.98 99.77 82.79 C 94.74 91.07 89.32 99.11 84.19 107.33 Z" />
</g>
</svg>
