<?xml version="1.0" encoding="UTF-8" ?>
<!DOCTYPE svg PUBLIC "-//W3C//DTD SVG 1.1//EN" "http://www.w3.org/Graphics/SVG/1.1/DTD/svg11.dtd">
<svg width="192pt" height="192pt" viewBox="0 0 192 192" version="1.1" xmlns="http://www.w3.org/2000/svg">
<g id="#4a71c3ff">
<path fill="#4a71c3" opacity="1.00" d=" M 21.23 42.91 C 21.34 31.53 31.69 21.72 43.00 21.79 C 67.66 21.70 92.33 21.71 116.99 21.77 C 127.17 21.72 136.70 29.52 138.55 39.54 C 139.60 45.94 138.99 52.45 139.10 58.91 C 145.42 59.12 151.74 58.82 158.05 59.09 C 165.44 59.64 171.49 66.57 171.17 73.97 C 171.17 99.33 171.23 124.70 171.14 150.06 C 171.11 161.14 161.16 170.95 150.08 170.79 C 114.03 170.85 77.99 170.82 41.95 170.74 C 31.00 170.79 21.15 161.05 21.18 150.08 C 21.14 114.36 21.14 78.63 21.23 42.91 M 31.81 43.96 C 31.79 78.99 31.81 114.02 31.85 149.05 C 31.60 155.02 36.91 160.45 42.94 160.03 C 72.23 160.06 101.53 159.96 130.83 160.01 C 129.28 156.56 128.10 152.89 128.15 149.07 C 128.08 113.70 128.23 78.33 128.14 42.96 C 128.28 37.13 122.81 32.12 117.05 32.48 C 92.04 32.51 67.02 32.42 42.01 32.50 C 36.14 32.55 31.45 38.22 31.81 43.96 M 139.17 69.67 C 139.09 96.14 139.16 122.60 139.13 149.07 C 138.73 154.95 144.15 160.35 150.01 160.01 C 155.69 160.00 160.65 154.72 160.24 149.03 C 160.23 124.34 160.28 99.64 160.24 74.95 C 160.52 72.44 158.57 69.93 156.01 69.80 C 150.40 69.48 144.78 69.78 139.17 69.67 Z" />
<path fill="#4a71c3" opacity="1.00" d=" M 50.82 59.97 C 53.89 58.75 57.64 59.70 60.97 59.49 C 53.99 80.97 46.84 102.44 39.08 123.65 C 38.71 119.75 39.14 115.82 40.04 112.02 C 43.75 94.69 46.89 77.23 50.82 59.97 Z" />
<path fill="#4a71c3" opacity="1.00" d=" M 70.64 59.51 C 74.49 59.42 78.33 59.39 82.18 59.47 C 77.99 66.46 73.82 73.48 69.24 80.22 C 67.70 80.23 66.16 80.24 64.62 80.25 C 65.74 91.03 56.28 98.78 51.83 107.84 C 50.58 107.83 49.33 107.81 48.08 107.80 C 55.44 91.63 63.07 75.58 70.64 59.51 Z" />
<path fill="#4a71c3" opacity="1.00" d=" M 65.66 81.28 C 70.56 81.29 75.47 81.22 80.37 81.36 C 80.53 83.42 80.68 85.49 80.95 87.54 C 78.18 87.62 75.42 87.65 72.65 87.62 C 72.54 88.65 72.42 89.69 72.29 90.72 C 74.45 90.81 76.60 90.87 78.76 90.94 C 78.76 93.04 78.77 95.13 78.79 97.22 C 76.68 97.29 74.58 97.33 72.48 97.39 C 72.46 100.05 72.43 102.71 72.39 105.38 C 70.16 105.34 67.93 105.31 65.70 105.27 C 65.68 97.27 65.44 89.27 65.66 81.28 Z" />
<path fill="#4a71c3" opacity="1.00" d=" M 80.95 87.54 C 84.77 80.52 95.46 79.01 100.57 85.42 C 106.91 92.10 102.02 104.30 93.04 105.34 C 83.90 106.55 76.68 95.63 80.95 87.54 M 90.35 86.12 C 89.54 90.64 89.68 95.25 90.24 99.79 C 90.96 99.83 92.41 99.92 93.13 99.96 C 93.80 95.52 93.49 91.02 93.34 86.55 C 92.34 86.41 91.35 86.27 90.35 86.12 Z" />
<path fill="#4a71c3" opacity="1.00" d=" M 100.49 81.30 C 102.92 81.28 105.36 81.27 107.79 81.26 C 108.78 82.72 109.73 84.20 110.72 85.66 C 111.60 84.20 112.47 82.74 113.35 81.28 C 115.83 81.26 118.31 81.27 120.79 81.33 C 119.36 86.04 112.88 90.53 116.32 95.65 C 118.11 98.86 119.98 102.03 121.59 105.33 C 119.05 105.37 116.51 105.36 113.97 105.33 C 112.87 103.30 111.79 101.27 110.73 99.23 C 109.45 104.49 105.38 106.75 100.13 105.24 C 101.95 100.75 105.08 96.84 106.62 92.26 C 104.76 88.51 102.32 85.07 100.49 81.30 Z" />
<path fill="#4a71c3" opacity="1.00" d=" M 49.40 108.90 C 51.28 108.88 53.17 108.86 55.05 108.83 C 56.81 111.86 58.50 114.93 60.25 117.98 C 60.34 115.04 60.37 112.11 60.38 109.18 C 62.41 109.04 64.45 108.99 66.49 109.02 C 66.54 116.17 66.67 123.31 66.44 130.46 C 64.58 130.42 62.73 130.40 60.88 130.37 C 59.13 127.34 57.43 124.29 55.66 121.28 C 55.64 124.37 55.65 127.46 55.38 130.54 C 53.37 130.43 51.36 130.29 49.35 130.18 C 49.38 123.08 49.32 115.99 49.40 108.90 Z" />
<path fill="#4a71c3" opacity="1.00" d=" M 68.20 108.99 C 72.91 108.97 77.70 108.50 82.34 109.56 C 82.22 111.14 82.12 112.71 82.03 114.29 C 79.39 114.37 76.75 114.40 74.11 114.40 C 74.13 115.43 74.15 116.46 74.17 117.49 C 76.23 117.54 78.29 117.57 80.36 117.63 C 80.36 119.02 80.35 120.41 80.35 121.81 C 78.24 121.96 76.13 122.11 74.02 122.26 C 74.05 122.93 74.11 124.27 74.14 124.94 C 76.76 125.08 79.38 125.15 82.01 125.20 C 81.81 126.97 81.63 128.73 81.44 130.50 C 77.04 130.60 72.64 130.54 68.24 130.52 C 67.75 123.37 68.38 116.17 68.20 108.99 Z" />
<path fill="#4a71c3" opacity="1.00" d=" M 82.22 109.08 C 84.04 109.05 85.86 109.02 87.69 109.02 C 88.50 112.21 89.31 115.42 90.10 118.62 C 90.95 115.35 91.81 112.08 92.73 108.83 C 94.40 108.90 96.07 108.96 97.75 109.04 C 98.43 112.19 99.06 115.34 99.69 118.50 C 100.29 115.29 100.96 112.09 101.70 108.91 C 103.58 108.92 105.46 108.91 107.34 108.92 C 105.93 116.20 104.37 123.46 102.43 130.61 C 100.65 130.51 98.88 130.42 97.11 130.32 C 96.46 127.59 95.79 124.87 95.10 122.16 C 94.41 124.90 93.74 127.65 93.08 130.40 C 91.32 130.40 89.57 130.41 87.82 130.43 C 85.69 123.56 84.06 116.54 82.34 109.56 L 82.22 109.08 Z" />
<path fill="#4a71c3" opacity="1.00" d=" M 112.26 109.28 C 116.60 107.59 121.22 110.45 122.41 114.76 C 120.89 115.31 119.37 115.86 117.85 116.42 C 116.62 115.70 115.39 115.00 114.15 114.30 C 113.88 114.73 113.35 115.59 113.08 116.02 C 116.94 118.02 123.87 119.65 122.47 125.42 C 120.54 133.80 107.15 132.24 106.30 123.93 C 108.09 123.52 109.88 123.09 111.67 122.66 C 112.13 123.23 113.05 124.36 113.51 124.93 C 114.64 124.86 115.77 124.80 116.90 124.74 C 116.33 121.76 112.42 122.14 110.32 120.68 C 105.05 118.50 107.24 110.27 112.26 109.28 Z" />
</g>
</svg>
