<?xml version="1.0" encoding="UTF-8" ?>
<!DOCTYPE svg PUBLIC "-//W3C//DTD SVG 1.1//EN" "http://www.w3.org/Graphics/SVG/1.1/DTD/svg11.dtd">
<svg width="192pt" height="192pt" viewBox="0 0 192 192" version="1.1" xmlns="http://www.w3.org/2000/svg">
<g id="#1ab2ffff">
<path fill="#1ab2ff" opacity="1.00" d=" M 62.30 24.26 C 88.52 9.61 123.50 7.63 148.87 25.17 C 164.35 36.18 173.58 54.45 176.09 73.01 C 176.72 77.04 171.93 80.47 168.32 78.61 C 164.82 77.28 164.89 73.07 164.13 70.01 C 160.79 52.59 149.74 35.96 132.95 29.07 C 105.23 17.40 71.88 26.27 50.52 46.54 C 35.14 61.53 24.61 82.24 24.66 104.01 C 24.46 123.06 33.23 143.11 50.15 152.88 C 82.38 171.95 128.52 159.59 147.37 127.37 C 153.59 117.10 156.21 104.06 151.61 92.64 C 147.22 96.82 147.24 105.03 141.04 107.19 C 134.58 107.32 132.10 99.74 128.00 95.89 C 126.57 101.37 125.84 107.48 121.81 111.80 C 117.47 116.48 110.93 118.07 104.82 118.79 C 109.96 123.40 117.36 123.38 123.86 123.55 C 128.83 123.71 131.59 130.54 128.17 134.13 C 115.33 147.46 93.44 150.84 77.23 141.88 C 65.25 135.58 57.24 122.61 57.20 109.04 C 57.05 91.40 63.39 72.77 77.32 61.30 C 89.61 51.28 106.45 45.79 122.13 49.88 C 122.89 50.25 125.29 50.45 124.88 48.92 C 120.05 45.92 114.54 44.25 109.67 41.36 C 105.67 38.50 108.09 31.44 112.98 31.47 C 129.93 35.61 145.87 48.80 147.99 66.98 C 148.75 72.99 140.06 76.37 136.51 71.48 C 128.97 62.52 116.59 58.01 105.07 60.31 C 93.28 62.61 82.08 69.50 75.87 79.96 C 69.59 91.47 65.86 105.87 70.43 118.62 C 76.16 133.13 94.42 139.03 108.47 133.69 C 99.99 130.17 91.47 124.91 88.09 115.88 C 85.96 111.45 90.04 105.66 94.95 106.46 C 101.16 107.43 108.88 108.70 113.80 103.79 C 117.20 96.98 117.42 89.08 118.67 81.68 C 119.74 76.79 126.76 75.39 130.00 78.99 C 133.23 82.63 135.46 87.02 138.43 90.87 C 141.88 88.75 141.59 83.48 142.76 79.89 C 143.50 74.72 150.84 72.95 154.08 76.90 C 167.69 90.33 167.92 112.33 159.57 128.61 C 138.67 171.81 76.26 187.50 37.97 158.16 C 23.03 146.44 14.74 127.67 13.59 108.96 C 11.54 74.46 32.23 40.55 62.30 24.26 M 126.11 50.38 C 126.43 50.70 126.43 50.70 126.11 50.38 Z" />
</g>
</svg>
