<?xml version="1.0" encoding="UTF-8" ?>
<!DOCTYPE svg PUBLIC "-//W3C//DTD SVG 1.1//EN" "http://www.w3.org/Graphics/SVG/1.1/DTD/svg11.dtd">
<svg width="192pt" height="192pt" viewBox="0 0 192 192" version="1.1" xmlns="http://www.w3.org/2000/svg">
<g id="#27b69dff">
<path fill="#27b69d" opacity="1.00" d=" M 26.09 45.95 C 26.21 34.86 35.97 25.05 47.04 24.73 C 79.02 24.62 111.01 24.70 142.99 24.66 C 147.71 24.61 152.64 25.66 156.45 28.57 C 160.18 31.53 160.43 37.71 156.95 40.97 C 152.10 45.76 147.42 50.74 142.41 55.36 C 137.92 58.59 132.00 52.45 135.02 48.02 C 138.74 43.58 143.45 40.03 146.96 35.41 C 113.96 35.11 80.94 35.33 47.94 35.28 C 41.77 35.06 36.29 40.84 36.51 46.94 C 36.54 79.54 36.48 112.14 36.58 144.74 C 38.53 145.49 39.51 142.84 40.92 141.91 C 53.75 128.59 67.80 115.95 79.91 102.22 C 69.18 93.23 58.31 84.40 47.59 75.40 C 44.04 72.86 45.64 66.53 50.00 66.14 C 86.35 65.95 122.71 65.92 159.06 65.99 C 162.10 65.99 164.42 69.05 164.15 71.97 C 164.17 101.67 164.25 131.37 164.12 161.06 C 163.92 165.18 158.44 167.31 155.41 164.63 C 133.08 146.30 110.93 127.74 88.58 109.43 C 72.94 124.83 57.53 140.48 41.94 155.93 C 38.63 159.16 32.72 158.78 29.85 155.14 C 27.28 151.67 26.04 147.31 26.00 143.01 C 26.07 110.66 26.02 78.31 26.09 45.95 M 65.99 76.58 C 94.82 101.00 124.14 124.90 153.35 148.86 C 153.44 124.86 153.50 100.85 153.35 76.85 C 124.28 76.30 95.11 76.75 65.99 76.58 Z" />
</g>
</svg>
