<?xml version="1.0" encoding="UTF-8" ?>
<!DOCTYPE svg PUBLIC "-//W3C//DTD SVG 1.1//EN" "http://www.w3.org/Graphics/SVG/1.1/DTD/svg11.dtd">
<svg width="192pt" height="192pt" viewBox="0 0 192 192" version="1.1" xmlns="http://www.w3.org/2000/svg">
<g id="#ff613cff">
<path fill="#ff613c" opacity="1.00" d=" M 77.38 15.48 C 81.55 13.75 88.35 14.18 88.49 20.00 C 88.68 25.73 82.09 25.99 78.02 26.96 C 47.90 34.17 25.04 63.09 24.72 94.02 C 24.10 114.77 33.16 135.59 48.95 149.09 C 51.24 151.16 54.68 153.32 53.95 156.92 C 53.55 160.79 48.51 163.10 45.37 160.74 C 18.67 140.81 6.88 103.65 16.95 71.90 C 25.10 44.08 49.07 21.72 77.38 15.48 Z" />
<path fill="#ff613c" opacity="1.00" d=" M 97.14 24.16 C 107.07 15.93 120.92 14.04 133.35 15.65 C 141.63 17.54 142.29 30.45 134.40 33.36 C 127.43 35.25 119.03 32.80 113.14 38.14 C 105.95 44.79 106.29 55.44 104.55 64.36 C 112.29 65.67 120.21 64.62 128.03 64.98 C 126.89 69.53 127.39 74.71 124.71 78.73 C 112.61 91.86 98.90 103.55 87.23 117.04 C 92.33 121.16 100.50 116.32 106.20 119.75 C 90.02 137.06 73.53 154.14 56.77 170.90 C 62.03 158.79 69.33 147.60 74.08 135.29 C 68.65 133.00 60.46 137.60 56.82 132.25 C 64.77 115.92 73.94 100.09 80.99 83.38 C 74.40 82.31 67.71 83.03 61.07 82.81 C 61.73 76.85 62.60 70.91 63.49 64.98 C 69.58 65.17 78.21 65.85 80.64 58.67 C 84.57 46.59 86.58 32.63 97.14 24.16 Z" />
<path fill="#ff613c" opacity="1.00" d=" M 146.41 36.52 C 148.20 35.34 150.77 35.12 152.54 36.46 C 179.72 61.08 185.79 104.82 167.37 136.36 C 150.25 167.75 110.98 184.92 76.39 175.60 C 71.75 173.83 72.33 166.31 77.09 165.11 C 81.73 164.74 86.27 166.51 90.92 166.56 C 121.81 169.23 152.59 148.89 162.57 119.60 C 171.68 94.78 165.40 65.07 146.63 46.34 C 143.55 43.98 142.82 38.77 146.41 36.52 Z" />
</g>
</svg>
