<?xml version="1.0" encoding="UTF-8" ?>
<!DOCTYPE svg PUBLIC "-//W3C//DTD SVG 1.1//EN" "http://www.w3.org/Graphics/SVG/1.1/DTD/svg11.dtd">
<svg width="192pt" height="192pt" viewBox="0 0 192 192" version="1.1" xmlns="http://www.w3.org/2000/svg">
<g id="#1cb6ffff">
<path fill="#1cb6ff" opacity="1.00" d=" M 71.09 41.09 C 102.79 33.18 134.48 25.20 166.19 17.32 C 170.32 15.81 174.65 19.70 174.14 23.93 C 174.21 55.28 174.14 86.64 174.18 117.99 C 174.28 124.09 172.85 130.29 169.54 135.46 C 161.42 149.06 142.06 153.85 128.61 145.41 C 113.56 137.09 109.08 115.22 119.67 101.66 C 128.95 88.27 148.95 85.62 161.98 95.03 C 161.94 73.62 162.14 52.21 161.87 30.81 C 133.82 37.88 105.73 44.79 77.68 51.88 C 77.64 82.61 77.72 113.34 77.67 144.07 C 77.70 157.07 68.24 169.32 55.66 172.60 C 42.06 176.65 26.29 169.55 20.43 156.61 C 13.73 143.48 18.71 126.01 31.22 118.27 C 41.50 111.37 55.58 112.22 65.61 119.18 C 65.72 95.11 65.57 71.03 65.69 46.96 C 65.59 43.89 68.23 41.57 71.09 41.09 M 140.47 101.75 C 132.09 103.34 125.49 111.46 126.08 120.05 C 126.00 130.54 136.70 139.32 146.99 137.21 C 156.36 135.90 163.41 126.28 161.89 116.95 C 160.81 106.96 150.24 99.56 140.47 101.75 M 46.44 125.53 C 37.08 125.95 29.13 134.64 29.57 144.00 C 29.63 153.57 38.38 162.05 47.98 161.58 C 57.31 161.60 65.68 153.36 65.64 144.00 C 66.24 133.77 56.62 124.58 46.44 125.53 Z" />
</g>
</svg>
