<?xml version="1.0" encoding="UTF-8" ?>
<!DOCTYPE svg PUBLIC "-//W3C//DTD SVG 1.1//EN" "http://www.w3.org/Graphics/SVG/1.1/DTD/svg11.dtd">
<svg width="192pt" height="192pt" viewBox="0 0 192 192" version="1.1" xmlns="http://www.w3.org/2000/svg">
<g id="#19afffff">
<path fill="#19afff" opacity="1.00" d=" M 83.38 12.46 C 105.52 9.36 128.71 15.86 146.09 29.90 C 148.90 31.78 151.79 35.23 149.78 38.74 C 147.89 42.78 142.28 42.43 139.66 39.33 C 115.91 18.89 78.36 17.60 53.18 36.21 C 49.94 38.18 47.17 42.51 42.87 41.41 C 38.70 40.41 37.21 34.38 40.69 31.72 C 52.60 21.27 67.68 14.54 83.38 12.46 Z" />
<path fill="#19afff" opacity="1.00" d=" M 83.39 43.53 C 99.73 40.26 117.73 44.60 130.21 55.78 C 134.62 60.61 127.21 67.95 122.37 63.67 C 108.19 52.03 86.78 50.37 71.20 60.21 C 68.12 61.81 65.46 65.44 61.60 64.53 C 57.47 63.74 55.85 57.84 59.06 55.08 C 65.99 49.22 74.52 45.33 83.39 43.53 Z" />
<path fill="#19afff" opacity="1.00" d=" M 157.21 48.15 C 159.78 46.92 163.03 48.08 164.40 50.54 C 176.42 69.45 179.85 93.38 174.21 115.01 C 166.51 145.77 139.48 170.48 108.15 175.37 C 77.64 180.93 44.89 167.23 27.23 141.79 C 8.32 115.79 6.91 78.34 24.20 51.20 C 28.28 45.57 37.48 52.55 33.11 58.08 C 15.24 87.19 22.69 128.35 49.66 149.31 C 67.17 163.72 91.81 168.88 113.60 162.52 C 138.16 155.67 158.15 134.74 163.73 109.85 C 167.94 91.99 164.71 72.57 155.05 56.98 C 152.92 54.13 153.77 49.52 157.21 48.15 Z" />
<path fill="#19afff" opacity="1.00" d=" M 88.35 72.46 C 99.49 69.08 112.48 75.98 115.73 87.17 C 116.62 90.18 114.29 93.79 111.04 93.75 C 100.02 93.91 88.99 93.85 77.97 93.76 C 74.64 93.88 72.10 90.19 73.08 87.09 C 75.24 80.05 81.28 74.42 88.35 72.46 Z" />
</g>
</svg>
