<?xml version="1.0" encoding="UTF-8" ?>
<!DOCTYPE svg PUBLIC "-//W3C//DTD SVG 1.1//EN" "http://www.w3.org/Graphics/SVG/1.1/DTD/svg11.dtd">
<svg width="192pt" height="192pt" viewBox="0 0 192 192" version="1.1" xmlns="http://www.w3.org/2000/svg">
<g id="#f6a926ff">
<path fill="#f6a926" opacity="1.00" d=" M 21.07 43.92 C 20.68 34.10 29.09 24.95 38.96 24.78 C 54.97 24.75 71.00 24.62 87.00 24.84 C 93.33 25.18 93.28 35.63 86.92 35.89 C 70.97 36.48 54.96 35.86 38.99 36.18 C 35.10 36.28 32.04 40.16 32.33 43.94 C 32.27 58.49 32.33 73.04 32.31 87.59 C 54.54 87.70 76.77 87.75 99.00 87.97 C 99.10 72.95 98.94 57.92 99.08 42.90 C 99.14 33.04 108.14 24.39 118.01 24.74 C 133.67 24.80 149.35 24.59 165.00 24.83 C 171.35 25.17 171.29 35.63 164.93 35.91 C 148.97 36.45 132.96 35.88 116.99 36.18 C 113.10 36.28 110.09 40.17 110.33 43.94 C 110.26 58.61 110.37 73.28 110.30 87.95 C 125.42 88.17 140.58 87.86 155.68 88.40 C 161.71 89.30 161.26 99.29 155.05 99.42 C 140.14 99.60 125.22 99.32 110.31 99.29 C 110.19 119.86 110.58 140.45 110.13 161.01 C 109.37 166.92 99.84 166.86 99.17 160.94 C 98.69 140.38 99.28 119.79 98.91 99.22 C 76.71 99.27 54.52 98.93 32.33 98.84 C 32.17 119.56 32.57 140.31 32.14 161.01 C 31.28 167.41 20.81 166.51 21.10 160.04 C 20.96 121.34 21.09 82.62 21.07 43.92 Z" />
</g>
</svg>
