<?xml version="1.0" encoding="UTF-8" ?>
<!DOCTYPE svg PUBLIC "-//W3C//DTD SVG 1.1//EN" "http://www.w3.org/Graphics/SVG/1.1/DTD/svg11.dtd">
<svg width="192pt" height="192pt" viewBox="0 0 192 192" version="1.1" xmlns="http://www.w3.org/2000/svg">
<g id="#dc3b62ff">
<path fill="#dc3b62" opacity="1.00" d=" M 40.28 21.28 C 75.44 19.97 110.76 21.10 145.99 20.70 C 158.52 19.74 170.41 30.36 170.73 42.93 C 170.79 51.24 170.96 59.58 170.65 67.88 C 170.14 73.36 161.55 74.11 159.97 68.87 C 158.96 60.12 160.14 51.21 159.40 42.41 C 158.70 36.93 153.67 32.08 148.05 32.14 C 113.68 32.13 79.31 32.13 44.95 32.14 C 39.37 31.99 34.28 36.73 33.47 42.15 C 32.77 51.01 33.92 59.97 32.92 68.78 C 31.39 74.04 22.86 73.40 22.20 67.94 C 21.73 59.96 22.05 51.93 22.04 43.93 C 22.02 33.37 29.96 23.50 40.28 21.28 Z" />
<path fill="#dc3b62" opacity="1.00" d=" M 118.86 97.74 C 119.30 91.85 115.88 84.33 121.87 80.19 C 124.59 86.34 122.22 93.29 124.55 99.40 C 122.69 102.22 123.09 105.68 122.98 108.89 C 122.54 107.99 121.68 106.20 121.24 105.31 C 121.23 106.59 121.22 107.87 121.22 109.15 C 120.23 108.54 119.25 107.93 118.25 107.33 C 118.39 104.51 118.29 101.63 116.87 99.11 C 117.37 98.77 118.36 98.08 118.86 97.74 Z" />
<path fill="#dc3b62" opacity="1.00" d=" M 33.21 83.34 C 37.42 83.26 41.62 83.24 45.82 83.19 C 45.79 84.98 45.77 86.76 45.75 88.54 C 43.41 88.53 41.07 88.54 38.72 88.55 C 38.71 89.53 38.69 91.48 38.68 92.46 C 40.65 92.54 42.63 92.57 44.60 92.54 C 45.05 94.18 45.42 95.85 45.75 97.53 C 43.51 98.26 41.15 98.41 38.81 98.38 C 38.77 100.90 38.73 103.42 38.66 105.95 C 38.14 105.84 37.09 105.64 36.57 105.54 C 35.49 104.18 34.39 102.83 33.26 101.52 C 33.20 95.46 33.27 89.40 33.21 83.34 Z" />
<path fill="#dc3b62" opacity="1.00" d=" M 48.18 83.28 C 53.06 83.81 59.43 81.56 63.04 85.94 C 66.17 89.96 64.40 95.81 60.03 98.09 C 61.21 99.96 62.43 101.81 63.68 103.64 C 59.51 105.75 55.86 102.70 53.73 99.29 C 53.72 101.48 53.71 103.67 53.68 105.85 C 51.89 105.02 50.07 104.27 48.21 103.61 C 48.24 96.84 48.30 90.06 48.18 83.28 M 53.87 88.04 C 53.78 90.22 53.72 92.40 53.72 94.59 C 55.30 94.10 56.88 93.60 58.46 93.09 C 59.14 89.93 56.89 87.92 53.87 88.04 Z" />
<path fill="#dc3b62" opacity="1.00" d=" M 66.21 83.25 C 70.39 83.27 74.56 83.24 78.74 83.25 C 78.74 85.03 78.74 86.82 78.75 88.61 C 76.40 88.59 74.05 88.56 71.71 88.55 C 71.69 89.51 71.66 91.44 71.65 92.40 C 75.93 91.94 79.89 92.82 78.69 98.04 C 76.40 98.27 74.09 98.36 71.79 98.38 C 71.75 99.68 71.71 100.98 71.67 102.28 C 74.25 102.31 76.83 102.35 79.40 102.55 C 77.71 104.05 75.84 105.33 73.95 106.55 C 71.41 105.15 68.52 105.34 66.17 107.03 C 66.32 99.10 66.23 91.17 66.21 83.25 Z" />
<path fill="#dc3b62" opacity="1.00" d=" M 80.49 83.29 C 84.80 83.22 89.12 83.13 93.43 83.40 C 93.41 85.11 93.40 86.82 93.39 88.53 C 91.09 88.53 88.80 88.51 86.50 88.50 C 86.46 89.84 86.43 91.18 86.39 92.52 C 88.52 92.62 90.65 92.68 92.77 92.74 C 92.76 94.58 92.76 96.41 92.75 98.25 C 90.62 98.28 88.49 98.30 86.36 98.33 C 86.43 99.65 86.49 100.98 86.56 102.30 C 89.05 102.27 91.57 102.31 94.02 102.85 C 92.07 104.14 90.11 105.41 88.11 106.61 C 85.69 104.88 82.96 105.86 80.51 106.93 C 80.41 99.05 80.38 91.17 80.49 83.29 Z" />
<path fill="#dc3b62" opacity="1.00" d=" M 100.54 83.30 C 104.86 83.21 109.18 83.22 113.51 83.27 C 113.51 85.02 113.52 86.76 113.53 88.52 C 111.19 88.52 108.84 88.52 106.50 88.53 C 106.50 89.52 106.49 91.52 106.49 92.51 C 108.55 92.61 110.61 92.69 112.67 92.77 C 112.69 94.56 112.71 96.36 112.74 98.16 C 110.72 98.41 108.32 97.75 106.57 98.85 C 106.38 101.30 106.43 103.76 106.36 106.22 C 105.96 106.38 105.16 106.70 104.76 106.86 C 103.56 104.88 102.18 103.02 100.58 101.34 C 100.52 95.33 100.46 89.31 100.54 83.30 Z" />
<path fill="#dc3b62" opacity="1.00" d=" M 129.27 83.30 C 133.49 83.44 137.91 82.62 141.97 83.98 C 147.58 86.77 146.94 95.67 141.27 98.07 C 142.69 100.06 144.23 102.05 144.83 104.46 C 140.84 104.85 136.81 103.21 135.49 99.14 C 135.22 101.43 134.91 103.71 134.58 105.99 C 133.37 105.21 132.16 104.43 130.95 103.66 C 130.38 104.46 129.81 105.27 129.24 106.07 C 129.44 98.48 129.26 90.89 129.27 83.30 M 135.28 88.38 C 134.73 91.85 135.19 96.27 139.53 93.26 C 139.57 91.61 139.40 89.96 138.75 88.43 C 137.59 88.42 136.43 88.40 135.28 88.38 Z" />
<path fill="#dc3b62" opacity="1.00" d=" M 147.44 83.21 C 151.57 83.40 155.70 83.33 159.83 83.26 C 159.78 85.00 159.74 86.74 159.70 88.47 C 157.52 88.51 155.35 88.62 153.19 88.81 C 153.24 90.07 153.30 91.33 153.34 92.59 C 155.47 92.65 157.60 92.69 159.74 92.75 C 159.73 94.58 159.73 96.41 159.73 98.24 C 157.55 98.28 155.37 98.31 153.20 98.36 C 151.84 103.48 157.26 102.33 160.54 102.52 C 158.93 104.13 157.04 105.43 155.03 106.51 C 152.59 104.97 149.66 105.39 147.41 107.04 C 147.40 99.10 147.27 91.15 147.44 83.21 Z" />
<path fill="#dc3b62" opacity="1.00" d=" M 25.21 119.07 C 28.67 117.27 33.24 120.05 33.16 123.96 C 33.52 131.64 33.08 139.33 33.37 147.01 C 33.64 153.37 39.65 158.71 46.00 158.29 C 79.67 158.29 113.34 158.29 147.01 158.27 C 153.01 158.57 158.70 153.77 159.40 147.80 C 160.12 139.27 158.97 130.64 159.96 122.14 C 161.53 116.92 170.08 117.71 170.64 123.13 C 170.99 131.10 170.77 139.09 170.75 147.06 C 170.58 159.02 159.90 169.50 147.97 169.55 C 113.63 169.62 79.28 169.61 44.94 169.55 C 33.62 169.51 23.39 160.14 22.24 148.91 C 21.70 141.27 22.12 133.60 21.97 125.95 C 21.80 123.30 22.58 120.26 25.21 119.07 Z" />
</g>
</svg>
