<?xml version="1.0" encoding="UTF-8" ?>
<!DOCTYPE svg PUBLIC "-//W3C//DTD SVG 1.1//EN" "http://www.w3.org/Graphics/SVG/1.1/DTD/svg11.dtd">
<svg width="192pt" height="192pt" viewBox="0 0 192 192" version="1.1" xmlns="http://www.w3.org/2000/svg">
<g id="#ff623cff">
<path fill="#ff623c" opacity="1.00" d=" M 39.25 21.31 C 74.42 19.97 109.76 21.12 145.00 20.72 C 157.84 19.80 169.75 31.09 169.58 43.95 C 169.55 75.59 169.73 107.24 169.50 138.87 C 169.18 145.17 158.84 145.17 158.54 138.85 C 158.29 107.25 158.58 75.63 158.41 44.03 C 158.49 37.45 152.53 31.76 146.01 31.86 C 112.34 31.79 78.67 31.82 45.00 31.83 C 38.43 31.58 32.09 37.21 32.25 43.92 C 32.18 77.97 32.21 112.02 32.24 146.07 C 32.04 152.44 37.62 158.30 44.02 158.30 C 84.31 158.45 124.60 158.15 164.89 158.42 C 171.33 158.68 171.32 169.29 164.86 169.47 C 124.56 169.65 84.24 169.53 43.93 169.52 C 31.58 169.53 20.76 158.36 21.06 146.02 C 21.04 112.00 21.03 77.98 21.08 43.96 C 20.97 33.39 28.96 23.54 39.25 21.31 Z" />
<path fill="#ff623c" opacity="1.00" d=" M 58.37 86.89 C 50.66 81.28 52.23 66.65 63.02 66.42 C 74.08 65.80 76.57 81.37 68.18 86.78 C 74.17 88.94 80.30 93.37 81.45 100.02 C 81.94 102.62 78.71 103.20 76.90 103.83 C 68.13 105.81 58.87 105.75 50.08 103.91 C 48.21 103.31 44.96 102.64 45.30 100.06 C 46.37 93.46 52.40 88.98 58.37 86.89 Z" />
<path fill="#ff623c" opacity="1.00" d=" M 46.24 114.32 C 69.44 113.98 92.71 114.07 115.93 114.26 C 121.61 114.98 120.82 124.29 115.07 124.07 C 92.36 124.11 69.63 124.28 46.93 123.99 C 41.68 123.71 41.10 115.35 46.24 114.32 Z" />
<path fill="#ff623c" opacity="1.00" d=" M 46.35 134.49 C 77.85 134.16 109.38 134.34 140.89 134.39 C 146.60 134.44 146.84 143.98 141.04 144.16 C 109.69 144.33 78.31 144.32 46.96 144.16 C 41.62 144.01 41.10 135.33 46.35 134.49 Z" />
</g>
</svg>
