<?xml version="1.0" encoding="UTF-8" ?>
<!DOCTYPE svg PUBLIC "-//W3C//DTD SVG 1.1//EN" "http://www.w3.org/Graphics/SVG/1.1/DTD/svg11.dtd">
<svg width="192pt" height="192pt" viewBox="0 0 192 192" version="1.1" xmlns="http://www.w3.org/2000/svg">
<g id="#f6b22dff">
<path fill="#f6b22d" opacity="1.00" d=" M 79.55 16.53 C 92.24 7.67 113.34 15.28 115.79 31.09 C 117.93 45.24 111.74 60.65 100.58 69.57 C 97.24 72.87 90.85 70.91 90.63 66.02 C 90.19 61.57 95.16 60.30 97.31 57.30 C 102.48 50.50 106.06 41.73 104.69 33.09 C 103.41 25.65 94.17 22.62 87.70 24.81 C 82.15 27.77 79.11 33.92 77.75 39.84 C 75.16 51.43 78.38 63.19 78.46 74.85 C 97.06 74.43 117.16 76.80 132.17 88.79 C 143.47 97.64 149.83 112.84 146.30 127.02 C 142.03 145.79 128.93 160.66 117.62 175.62 C 113.75 180.67 105.29 174.84 108.45 169.39 C 118.34 155.05 131.36 141.83 135.34 124.32 C 137.97 113.63 132.30 102.55 123.55 96.48 C 110.61 87.33 94.07 85.84 78.68 86.29 C 78.09 102.48 74.64 118.76 67.16 133.20 C 63.46 140.09 57.47 147.17 49.01 147.39 C 41.25 147.86 34.19 141.52 33.56 133.82 C 32.48 121.76 37.19 110.02 42.44 99.42 C 45.37 94.09 54.38 98.00 52.50 103.79 C 48.99 112.20 44.90 120.72 44.55 130.00 C 44.45 132.40 45.05 135.87 48.05 136.04 C 52.30 136.18 54.71 131.83 56.73 128.72 C 64.98 113.26 67.91 95.40 67.35 78.02 C 67.26 65.64 64.25 53.29 66.09 40.93 C 67.47 31.58 71.77 22.23 79.55 16.53 Z" />
<path fill="#f6b22d" opacity="1.00" d=" M 150.45 25.60 C 155.75 23.57 160.85 30.00 157.89 34.75 C 150.23 49.43 142.59 64.13 134.73 78.71 C 133.23 82.71 126.79 79.92 128.82 76.08 C 134.15 61.45 139.92 46.97 145.32 32.36 C 146.32 29.71 147.40 26.47 150.45 25.60 Z" />
<path fill="#f6b22d" opacity="1.00" d=" M 96.29 94.32 C 105.55 92.14 115.81 95.12 123.39 100.63 C 128.55 104.81 122.01 113.52 116.60 109.45 C 110.45 105.99 99.76 101.13 95.09 109.05 C 89.21 121.18 85.38 134.19 80.92 146.89 C 79.44 150.55 79.64 156.08 75.02 157.37 C 70.49 158.61 66.52 153.53 68.41 149.35 C 72.54 135.60 77.32 122.00 82.73 108.69 C 85.12 102.40 89.55 96.28 96.29 94.32 Z" />
<path fill="#f6b22d" opacity="1.00" d=" M 101.29 116.35 C 105.69 114.66 110.37 119.86 108.17 124.03 C 102.51 136.38 97.04 148.84 91.15 161.06 C 88.03 166.66 78.62 162.03 81.21 156.12 C 86.20 144.62 91.66 133.31 96.76 121.85 C 97.77 119.71 98.75 117.05 101.29 116.35 Z" />
<path fill="#f6b22d" opacity="1.00" d=" M 114.36 125.37 C 118.96 123.93 123.32 129.59 120.69 133.67 C 114.81 145.45 109.33 157.47 103.10 169.06 C 99.54 174.10 90.98 169.19 93.51 163.58 C 98.65 152.49 104.32 141.64 109.57 130.60 C 110.62 128.48 111.78 125.91 114.36 125.37 Z" />
</g>
</svg>
