<?xml version="1.0" encoding="UTF-8" ?>
<!DOCTYPE svg PUBLIC "-//W3C//DTD SVG 1.1//EN" "http://www.w3.org/Graphics/SVG/1.1/DTD/svg11.dtd">
<svg width="192pt" height="192pt" viewBox="0 0 192 192" version="1.1" xmlns="http://www.w3.org/2000/svg">
<g id="#7ebf60ff">
<path fill="#7ebf60" opacity="1.00" d=" M 75.12 23.14 C 78.81 13.30 90.55 7.49 100.63 10.52 C 110.69 13.04 117.94 23.67 116.34 33.97 C 114.82 44.46 106.78 52.86 97.68 57.61 C 94.25 59.65 90.77 56.80 88.00 54.96 C 81.90 50.87 77.42 44.86 74.36 38.25 C 43.07 47.79 23.12 83.27 31.12 115.00 C 34.10 121.43 24.01 126.51 20.83 120.22 C 15.94 103.92 17.65 85.90 24.20 70.28 C 32.85 49.49 51.20 33.10 72.75 26.63 C 74.41 26.33 74.45 24.34 75.12 23.14 M 91.29 18.36 C 84.37 20.16 79.87 28.06 81.95 34.91 C 83.94 41.47 89.43 46.21 95.00 49.81 C 101.52 45.59 108.53 39.43 108.53 31.01 C 108.63 22.54 99.35 15.63 91.29 18.36 Z" />
<path fill="#7ebf60" opacity="1.00" d=" M 93.25 28.21 C 97.48 25.67 101.14 32.87 96.82 34.95 C 92.60 37.57 88.81 30.25 93.25 28.21 Z" />
<path fill="#7ebf60" opacity="1.00" d=" M 125.39 32.40 C 127.21 31.18 129.62 31.45 131.43 32.54 C 151.80 43.41 167.08 63.97 170.63 86.87 C 170.62 93.31 160.30 94.12 159.35 87.72 C 155.62 68.82 143.23 51.90 126.26 42.75 C 122.02 41.12 121.23 34.58 125.39 32.40 Z" />
<path fill="#7ebf60" opacity="1.00" d=" M 82.67 77.64 C 86.42 69.12 99.27 67.79 104.86 75.15 C 110.36 81.49 107.84 91.56 100.90 95.72 C 109.24 98.17 116.72 104.44 118.87 113.11 C 119.63 115.47 120.51 119.86 117.02 120.33 C 102.35 120.59 87.66 120.41 72.99 120.41 C 71.13 120.64 69.32 118.93 69.58 117.05 C 70.20 106.80 78.52 98.40 88.16 95.79 C 82.44 91.89 79.16 84.09 82.67 77.64 Z" />
<path fill="#7ebf60" opacity="1.00" d=" M 162.56 109.52 C 166.55 107.56 171.52 111.67 170.42 115.96 C 166.57 135.44 154.69 153.16 138.24 164.25 C 115.55 179.98 84.30 181.89 59.86 169.06 C 55.36 172.00 51.07 177.82 45.22 176.79 C 35.43 171.81 26.38 163.29 23.84 152.24 C 21.28 141.07 28.31 128.68 39.35 125.41 C 50.03 121.78 63.05 126.71 67.96 137.03 C 71.69 144.18 70.78 152.78 67.28 159.83 C 83.16 167.48 102.23 168.06 118.61 161.60 C 138.39 154.17 153.87 136.44 158.67 115.87 C 159.16 113.39 159.93 110.52 162.56 109.52 M 35.00 150.02 C 36.58 156.36 41.73 161.04 46.92 164.63 C 52.01 160.92 57.27 156.35 58.77 149.95 C 60.51 142.82 54.30 135.24 47.00 135.42 C 39.58 135.04 33.19 142.79 35.00 150.02 Z" />
<path fill="#7ebf60" opacity="1.00" d=" M 45.35 145.42 C 47.86 144.85 50.40 147.35 49.75 149.88 C 49.59 153.33 44.22 154.01 42.80 151.06 C 41.45 148.94 42.85 145.79 45.35 145.42 Z" />
</g>
</svg>
