<?xml version="1.0" encoding="UTF-8" ?>
<!DOCTYPE svg PUBLIC "-//W3C//DTD SVG 1.1//EN" "http://www.w3.org/Graphics/SVG/1.1/DTD/svg11.dtd">
<svg width="192pt" height="192pt" viewBox="0 0 192 192" version="1.1" xmlns="http://www.w3.org/2000/svg">
<g id="#5f6f80ff">
<path fill="#5f6f80" opacity="1.00" d=" M 57.45 59.65 C 54.86 54.68 61.67 48.77 65.62 53.44 C 69.69 60.63 72.36 68.56 75.91 76.04 C 78.76 81.36 74.41 86.75 72.09 91.40 C 67.00 80.92 62.33 70.23 57.45 59.65 Z" />
<path fill="#5f6f80" opacity="1.00" d=" M 124.42 52.47 C 128.48 51.52 132.06 56.17 129.84 59.84 C 121.53 78.79 112.99 97.67 104.57 116.57 C 102.08 121.31 93.46 117.87 95.69 112.70 C 103.50 94.28 111.83 76.08 119.75 57.70 C 120.74 55.59 121.75 52.81 124.42 52.47 Z" />
<path fill="#5f6f80" opacity="1.00" d=" M 84.38 73.39 C 88.55 70.82 93.59 75.95 91.24 80.13 C 83.06 98.32 74.97 116.56 66.86 134.78 C 65.89 137.65 62.85 139.58 59.90 138.27 C 56.54 137.08 56.94 132.79 58.20 130.17 C 65.77 113.08 73.15 95.91 80.77 78.84 C 81.73 76.91 82.48 74.63 84.38 73.39 Z" />
<path fill="#5f6f80" opacity="1.00" d=" M 99.32 73.34 C 103.39 71.17 108.26 75.66 106.12 79.87 C 101.36 91.38 95.94 102.61 91.06 114.07 C 89.99 117.92 84.21 119.87 81.94 116.05 C 79.67 111.06 84.15 106.25 85.59 101.62 C 90.39 92.36 92.97 81.52 99.32 73.34 Z" />
<path fill="#5f6f80" opacity="1.00" d=" M 17.44 77.66 C 29.88 76.01 42.42 80.64 51.90 88.64 C 55.40 86.52 59.03 84.58 62.91 83.25 C 64.14 85.78 65.51 88.28 66.30 91.00 C 64.72 93.23 61.69 93.86 59.43 95.26 C 61.64 96.68 63.90 98.02 66.18 99.33 C 65.14 102.24 63.89 105.08 62.30 107.73 C 58.65 106.18 55.18 104.28 51.80 102.23 C 42.57 110.11 30.25 114.97 18.03 113.29 C 13.55 112.74 11.03 103.82 16.93 103.79 C 26.62 104.50 36.13 101.14 43.91 95.48 C 36.30 90.21 27.34 86.55 17.94 87.04 C 12.37 87.35 12.23 78.35 17.44 77.66 Z" />
<path fill="#5f6f80" opacity="1.00" d=" M 138.69 88.69 C 148.93 81.81 161.02 76.19 173.66 77.49 C 177.91 78.09 179.95 86.20 174.72 86.57 C 164.87 85.92 155.08 89.41 147.58 95.75 C 155.17 101.58 164.36 105.17 174.04 104.65 C 180.12 104.70 177.21 113.15 172.76 113.73 C 160.34 115.34 149.09 108.37 138.80 102.36 C 133.82 102.87 129.58 108.37 124.31 108.02 C 122.70 105.56 121.60 102.79 120.82 99.98 C 123.40 98.04 126.51 97.00 129.35 95.53 C 126.80 94.28 124.23 93.06 121.68 91.81 C 122.87 88.84 124.24 85.94 125.68 83.08 C 130.33 84.15 134.28 87.61 138.69 88.69 Z" />
<path fill="#5f6f80" opacity="1.00" d=" M 109.73 110.89 C 111.30 107.09 112.92 103.29 114.99 99.73 C 120.46 110.31 124.99 121.40 129.55 132.40 C 131.63 137.20 124.98 141.21 121.71 137.31 C 117.21 128.76 114.11 119.52 109.73 110.89 Z" />
</g>
</svg>
