<?xml version="1.0" encoding="UTF-8" ?>
<!DOCTYPE svg PUBLIC "-//W3C//DTD SVG 1.1//EN" "http://www.w3.org/Graphics/SVG/1.1/DTD/svg11.dtd">
<svg width="192pt" height="192pt" viewBox="0 0 192 192" version="1.1" xmlns="http://www.w3.org/2000/svg">
<g id="#19b0ffff">
<path fill="#19b0ff" opacity="1.00" d=" M 48.93 28.50 C 75.65 9.34 114.03 8.79 141.21 27.35 C 147.79 23.69 156.95 24.00 162.24 29.77 C 167.60 35.08 168.23 43.97 164.29 50.29 C 183.60 78.84 182.16 119.55 160.29 146.30 C 157.14 149.05 161.90 151.43 163.51 153.49 C 166.10 156.71 171.19 159.11 170.68 163.88 C 170.31 168.05 164.69 170.25 161.59 167.43 C 157.90 164.00 154.45 160.33 150.87 156.79 C 137.61 167.88 121.36 175.68 103.99 177.15 C 81.69 179.40 58.49 172.11 41.83 157.03 C 37.72 160.55 34.45 165.03 30.04 168.17 C 25.54 170.49 20.15 165.06 22.62 160.58 C 25.86 156.30 30.16 152.93 33.75 148.96 C 11.90 124.11 7.77 85.65 23.87 56.74 C 24.62 54.93 26.97 52.87 25.13 50.97 C 20.48 44.89 20.82 35.65 26.06 30.04 C 31.69 23.53 42.38 23.15 48.93 28.50 M 87.37 25.48 C 65.78 27.96 45.85 41.20 34.97 59.99 C 24.69 77.28 22.49 99.06 28.97 118.09 C 37.21 143.28 60.69 162.64 87.05 165.68 C 110.45 168.84 134.95 159.17 149.99 141.00 C 169.38 118.64 172.02 83.81 156.19 58.79 C 142.28 35.53 114.28 21.93 87.37 25.48 Z" />
<path fill="#19b0ff" opacity="1.00" d=" M 110.49 60.52 C 112.34 58.06 117.07 59.78 116.19 62.98 C 113.86 71.40 110.30 79.45 108.07 87.90 C 111.47 88.57 114.97 87.97 118.36 88.58 C 121.22 89.40 121.04 93.38 118.87 94.89 C 106.21 107.22 93.53 119.55 80.80 131.80 C 78.65 134.62 73.95 132.56 74.94 129.04 C 77.53 120.59 81.40 112.56 83.90 104.08 C 80.21 103.24 76.33 104.36 72.70 103.30 C 70.60 102.09 71.31 99.22 72.95 97.95 C 85.44 85.45 97.86 72.86 110.49 60.52 Z" />
</g>
</svg>
