<?xml version="1.0" encoding="UTF-8" ?>
<!DOCTYPE svg PUBLIC "-//W3C//DTD SVG 1.1//EN" "http://www.w3.org/Graphics/SVG/1.1/DTD/svg11.dtd">
<svg width="192pt" height="192pt" viewBox="0 0 192 192" version="1.1" xmlns="http://www.w3.org/2000/svg">
<g id="#ff3660ff">
<path fill="#ff3660" opacity="1.00" d=" M 39.30 21.30 C 74.12 19.98 109.11 21.13 143.99 20.71 C 152.96 20.04 162.09 24.68 166.45 32.60 C 170.77 39.91 169.46 48.74 169.39 56.82 C 168.88 62.04 160.78 63.04 158.92 58.16 C 157.42 52.35 159.40 46.12 157.73 40.31 C 156.06 34.99 150.52 31.54 145.04 31.83 C 111.68 31.83 78.31 31.79 44.95 31.84 C 39.26 31.68 33.75 35.78 32.53 41.37 C 31.61 46.79 32.90 52.37 31.79 57.76 C 30.35 62.56 22.84 62.49 21.41 57.72 C 20.65 52.84 21.12 47.84 21.13 42.92 C 21.45 32.72 29.35 23.43 39.30 21.30 Z" />
<path fill="#ff3660" opacity="1.00" d=" M 21.36 68.07 C 25.42 68.04 29.48 68.02 33.53 68.12 C 35.16 77.02 36.30 86.01 37.89 94.91 C 39.55 86.01 40.78 77.04 42.30 68.11 C 46.40 68.02 50.49 68.03 54.59 68.07 C 54.87 82.58 54.22 97.11 54.95 111.61 C 58.06 97.26 59.46 82.57 61.95 68.09 C 66.22 68.02 70.48 68.01 74.75 68.10 C 77.28 83.22 79.12 98.46 81.78 113.55 C 82.13 98.39 81.91 83.22 82.01 68.05 C 90.53 67.44 100.71 67.61 105.60 75.98 C 105.24 73.37 104.91 70.76 104.60 68.14 C 107.87 68.12 111.13 68.12 114.40 68.16 C 115.96 78.71 117.24 89.29 118.79 99.84 C 120.41 89.29 121.74 78.70 123.24 68.13 C 132.29 68.13 141.33 68.12 150.37 68.13 C 150.42 71.46 150.44 74.78 150.42 78.11 C 147.56 78.12 144.71 78.13 141.86 78.15 C 141.85 82.07 141.85 85.99 141.85 89.92 C 144.69 89.97 147.54 90.01 150.38 90.03 C 150.42 93.29 150.44 96.56 150.45 99.83 C 147.60 99.83 144.76 99.84 141.92 99.84 C 141.83 103.87 141.83 107.89 141.86 111.92 C 144.67 111.98 147.49 112.03 150.31 112.06 C 150.36 115.25 150.39 118.44 150.41 121.63 C 144.31 121.70 138.22 121.68 132.12 121.64 C 131.92 106.41 132.52 91.16 131.60 75.95 C 129.52 91.25 126.91 106.47 124.51 121.71 C 120.76 121.74 117.00 121.75 113.25 121.65 C 111.38 111.11 109.61 100.55 107.92 89.99 C 107.13 94.22 105.10 98.07 102.03 101.08 C 103.85 108.00 106.08 114.80 107.95 121.70 C 104.77 121.73 101.60 121.73 98.43 121.66 C 96.68 115.99 95.72 110.09 93.68 104.52 C 93.17 104.39 92.17 104.13 91.66 104.00 C 91.52 109.90 91.61 115.81 91.59 121.71 C 85.51 121.70 79.42 121.80 73.34 121.63 C 72.83 118.94 72.40 116.25 72.00 113.54 C 69.56 113.54 67.12 113.55 64.69 113.55 C 64.32 116.27 63.91 118.98 63.49 121.70 C 57.24 121.74 51.00 121.72 44.76 121.69 C 44.68 113.77 44.79 105.84 44.57 97.93 C 43.14 105.83 41.98 113.78 40.52 121.68 C 38.80 121.66 37.08 121.65 35.36 121.63 C 33.93 113.73 32.69 105.79 31.25 97.89 C 30.99 105.81 30.80 113.74 30.90 121.66 C 27.72 121.66 24.54 121.65 21.36 121.63 C 21.33 103.77 21.35 85.92 21.36 68.07 M 91.68 77.74 C 91.62 83.55 91.59 89.36 91.71 95.16 C 99.90 93.46 100.45 78.78 91.68 77.74 M 65.96 104.74 C 67.67 104.76 69.37 104.78 71.07 104.79 C 70.21 97.53 69.41 90.25 68.29 83.02 C 67.55 90.27 66.55 97.48 65.96 104.74 Z" />
<path fill="#ff3660" opacity="1.00" d=" M 152.12 68.13 C 155.30 68.12 158.48 68.12 161.66 68.14 C 161.73 82.73 161.68 97.33 161.69 111.93 C 164.41 111.97 167.13 112.00 169.84 112.02 C 169.86 115.23 169.86 118.45 169.85 121.67 C 163.93 121.68 158.02 121.68 152.10 121.65 C 152.10 103.81 152.09 85.97 152.12 68.13 Z" />
<path fill="#ff3660" opacity="1.00" d=" M 24.23 129.15 C 27.29 127.58 31.47 129.63 31.98 133.05 C 32.67 138.22 31.74 143.48 32.50 148.65 C 33.58 154.36 39.18 158.67 44.99 158.33 C 78.67 158.31 112.35 158.35 146.03 158.30 C 151.24 158.44 156.21 154.80 157.76 149.84 C 159.35 143.97 157.44 137.71 158.91 131.85 C 160.74 127.06 168.65 127.92 169.35 133.02 C 169.72 138.33 169.68 143.69 169.33 149.00 C 168.17 160.42 157.51 169.78 146.04 169.54 C 111.71 169.52 77.37 169.64 43.04 169.47 C 30.20 169.04 19.88 156.67 21.02 144.00 C 21.68 139.15 18.98 132.09 24.23 129.15 Z" />
</g>
</svg>
