<?xml version="1.0" encoding="UTF-8" ?>
<!DOCTYPE svg PUBLIC "-//W3C//DTD SVG 1.1//EN" "http://www.w3.org/Graphics/SVG/1.1/DTD/svg11.dtd">
<svg width="192pt" height="192pt" viewBox="0 0 192 192" version="1.1" xmlns="http://www.w3.org/2000/svg">
<g id="#4f7e9cff">
<path fill="#4f7e9c" opacity="1.00" d=" M 20.12 35.93 C 19.98 26.51 28.64 18.31 38.02 18.75 C 71.02 18.86 104.04 18.52 137.03 18.91 C 148.52 20.04 150.80 33.08 149.44 42.45 C 159.12 41.24 168.70 49.08 168.75 58.93 C 168.76 82.27 168.87 105.61 168.71 128.94 C 168.63 135.40 157.87 135.39 157.64 128.98 C 157.33 105.99 157.65 82.98 157.50 59.99 C 157.83 56.44 154.55 53.40 151.04 53.77 C 112.35 53.76 73.65 53.69 34.97 53.79 C 32.60 53.57 31.14 55.83 31.41 57.98 C 31.36 89.99 31.36 122.01 31.41 154.03 C 30.94 156.74 33.81 157.60 35.97 157.25 C 76.51 157.07 117.06 157.50 157.58 157.02 C 157.67 153.84 156.87 150.31 158.53 147.42 C 160.70 144.05 166.27 144.47 168.12 147.98 C 170.79 155.93 168.07 168.00 157.99 168.48 C 116.67 168.65 75.34 168.52 34.01 168.54 C 26.35 168.78 19.60 161.69 20.09 154.06 C 20.09 114.68 20.06 75.31 20.12 35.93 M 36.14 42.47 C 70.09 42.69 104.05 42.46 138.00 42.57 C 137.56 38.57 140.55 29.77 134.07 30.15 C 101.36 30.22 68.65 30.06 35.95 30.23 C 28.77 30.46 29.04 42.30 36.14 42.47 Z" />
<path fill="#4f7e9c" opacity="1.00" d=" M 89.36 91.32 C 96.08 88.22 103.87 88.72 110.98 89.95 C 117.32 91.12 120.49 97.15 122.89 102.48 C 127.11 93.57 136.40 88.05 146.28 89.04 C 147.06 92.04 146.83 95.15 146.53 98.20 C 134.67 96.15 128.90 108.65 126.10 117.90 C 126.42 124.99 127.21 137.26 136.96 136.71 C 141.60 136.65 139.47 142.78 139.69 145.72 C 130.39 147.38 121.49 141.52 118.98 132.51 C 114.62 139.99 107.25 146.51 98.04 145.85 C 93.09 146.39 95.48 139.87 95.11 136.95 C 100.01 136.83 105.77 136.33 108.45 131.54 C 112.09 125.33 117.77 118.53 115.27 110.90 C 114.07 106.55 113.67 100.25 108.56 98.70 C 104.24 98.08 99.78 98.18 95.45 98.70 C 89.23 100.36 86.45 107.00 84.02 112.34 C 87.82 112.43 91.61 112.43 95.40 112.61 C 95.67 115.55 95.69 118.50 95.47 121.44 C 90.33 122.09 85.07 121.03 79.99 122.00 C 76.35 128.25 73.93 135.43 68.49 140.47 C 63.92 144.85 57.30 146.20 51.16 145.75 C 50.92 142.82 50.93 139.89 51.02 136.96 C 60.49 138.34 67.22 130.04 69.20 121.70 C 65.45 121.54 61.67 121.85 57.95 121.21 C 57.97 118.38 57.97 115.56 57.97 112.73 C 63.19 111.81 68.78 113.39 73.80 111.86 C 77.97 104.42 81.13 95.28 89.36 91.32 Z" />
</g>
</svg>
