<?xml version="1.0" encoding="UTF-8" ?>
<!DOCTYPE svg PUBLIC "-//W3C//DTD SVG 1.1//EN" "http://www.w3.org/Graphics/SVG/1.1/DTD/svg11.dtd">
<svg width="192pt" height="192pt" viewBox="0 0 192 192" version="1.1" xmlns="http://www.w3.org/2000/svg">
<g id="#ff3661ff">
<path fill="#ff3661" opacity="1.00" d=" M 109.38 16.35 C 119.74 11.59 132.68 14.28 140.51 22.49 C 152.68 34.39 151.28 57.45 137.02 67.06 C 129.12 71.30 121.08 75.36 112.91 79.03 C 107.60 80.95 103.25 73.15 107.60 69.59 C 114.14 65.61 121.28 62.66 128.08 59.13 C 136.99 55.46 139.49 43.46 135.78 35.26 C 132.28 27.09 121.83 22.78 113.71 26.75 C 98.13 33.58 82.04 40.05 68.49 50.55 C 53.42 62.56 54.29 88.15 68.83 100.20 C 73.03 103.93 78.14 106.31 83.01 109.00 C 87.89 111.58 88.07 119.51 83.27 122.26 C 76.19 126.33 68.40 129.14 61.55 133.61 C 51.72 141.64 54.49 160.16 66.82 164.27 C 74.45 167.32 82.06 163.20 88.70 159.71 C 99.75 154.10 111.18 149.18 121.82 142.78 C 136.57 132.60 139.99 110.09 129.20 95.82 C 126.98 92.37 123.38 90.16 121.00 86.87 C 118.59 82.35 124.18 76.98 128.59 79.51 C 145.50 91.16 151.69 115.50 142.98 134.00 C 139.17 141.95 133.58 149.44 125.68 153.69 C 112.88 160.83 99.50 166.86 86.39 173.41 C 75.75 178.76 61.82 177.22 53.19 168.80 C 41.62 158.00 41.25 137.66 52.49 126.50 C 57.90 121.49 65.05 119.13 71.44 115.67 C 63.56 111.16 56.20 105.19 51.86 97.07 C 42.17 79.51 45.01 55.03 61.05 42.10 C 75.40 30.61 92.69 23.69 109.38 16.35 Z" />
</g>
</svg>
