<?xml version="1.0" encoding="UTF-8" ?>
<!DOCTYPE svg PUBLIC "-//W3C//DTD SVG 1.1//EN" "http://www.w3.org/Graphics/SVG/1.1/DTD/svg11.dtd">
<svg width="192pt" height="192pt" viewBox="0 0 192 192" version="1.1" xmlns="http://www.w3.org/2000/svg">
<g id="#e12f9fff">
<path fill="#e12f9f" opacity="1.00" d=" M 75.83 25.81 C 84.34 17.59 97.91 15.38 108.63 20.35 C 118.98 24.89 126.20 35.70 126.25 47.02 C 126.26 56.69 126.52 66.37 126.11 76.03 C 125.49 81.19 117.61 82.23 115.56 77.48 C 114.46 73.81 115.12 69.87 114.94 66.09 C 107.67 65.94 100.34 66.57 93.11 65.79 C 87.84 64.71 87.79 56.22 93.10 55.16 C 100.37 54.66 107.69 55.11 114.98 54.97 C 114.92 50.11 115.52 44.99 113.53 40.41 C 110.73 33.51 103.45 28.66 95.97 29.08 C 86.73 28.84 78.48 36.88 77.83 45.98 C 77.31 55.93 77.96 65.92 77.56 75.87 C 77.18 80.95 69.46 82.32 67.19 77.81 C 65.69 74.14 66.59 69.99 66.38 66.12 C 59.23 66.19 52.07 66.02 44.92 66.17 C 38.75 66.16 33.24 71.76 33.30 77.92 C 33.23 101.97 33.28 126.02 33.28 150.06 C 32.99 156.84 39.23 162.76 45.95 162.39 C 79.62 162.41 113.30 162.41 146.97 162.42 C 153.70 162.76 159.90 156.84 159.67 150.07 C 159.73 126.37 159.68 102.66 159.68 78.95 C 160.09 72.51 154.63 66.22 148.09 66.21 C 144.84 65.91 140.54 66.79 138.52 63.49 C 135.82 59.74 139.41 54.18 143.94 54.94 C 157.05 53.13 170.47 63.58 170.76 77.04 C 170.91 101.68 170.83 126.33 170.77 150.97 C 170.74 164.17 157.95 174.88 145.00 173.55 C 111.67 173.48 78.35 173.60 45.02 173.51 C 33.03 173.57 22.27 163.09 22.09 151.08 C 21.95 126.70 22.01 102.32 22.06 77.94 C 21.97 66.15 32.13 55.43 43.93 55.02 C 51.41 54.84 58.89 55.03 66.38 54.95 C 65.56 44.51 67.58 33.04 75.83 25.81 Z" />
</g>
</svg>
