<?xml version="1.0" encoding="UTF-8" ?>
<!DOCTYPE svg PUBLIC "-//W3C//DTD SVG 1.1//EN" "http://www.w3.org/Graphics/SVG/1.1/DTD/svg11.dtd">
<svg width="192pt" height="192pt" viewBox="0 0 192 192" version="1.1" xmlns="http://www.w3.org/2000/svg">
<g id="#19b0ffff">
<path fill="#19b0ff" opacity="1.00" d=" M 113.36 14.49 C 121.68 11.62 131.52 16.00 134.91 24.12 C 139.03 32.60 135.72 42.86 128.93 48.91 C 135.96 49.18 143.02 48.79 150.04 49.23 C 161.33 50.28 170.82 60.58 170.82 71.94 C 170.88 99.31 170.94 126.70 170.82 154.07 C 170.65 166.01 159.99 176.47 148.07 176.52 C 113.69 176.59 79.32 176.56 44.94 176.51 C 32.99 176.50 22.29 166.05 22.11 154.08 C 21.96 127.72 22.13 101.36 22.06 75.00 C 20.14 59.91 35.49 45.65 50.31 49.74 C 55.71 52.26 52.90 61.09 47.01 60.18 C 40.21 59.45 33.27 64.91 33.29 71.92 C 33.21 98.96 33.27 126.02 33.26 153.06 C 32.97 159.84 39.26 165.70 45.94 165.39 C 79.62 165.38 113.30 165.40 146.97 165.34 C 153.64 165.63 159.85 159.81 159.65 153.07 C 159.71 126.36 159.67 99.65 159.68 72.95 C 160.05 66.13 153.92 59.86 147.07 60.25 C 130.04 60.26 113.00 60.19 95.97 60.28 C 93.62 60.13 92.01 61.99 90.66 63.63 C 86.13 69.28 80.15 73.92 73.32 76.38 C 68.32 78.09 63.45 71.17 67.21 67.20 C 70.56 64.37 75.08 63.20 78.04 59.80 C 72.37 56.89 65.69 55.65 61.08 50.92 C 54.69 45.30 53.81 34.16 60.27 28.26 C 65.36 23.36 73.68 23.88 79.19 27.82 C 83.73 30.41 86.32 35.04 89.71 38.81 C 94.44 28.39 101.89 17.94 113.36 14.49 M 100.06 47.80 C 109.04 47.46 119.32 44.07 123.83 35.72 C 126.52 31.27 122.58 24.33 117.10 26.22 C 108.00 29.25 101.39 38.52 100.06 47.80 M 66.37 41.63 C 69.84 47.11 76.67 49.82 82.97 49.85 C 81.60 43.50 77.24 37.18 70.98 34.93 C 67.10 33.29 64.25 38.65 66.37 41.63 Z" />
</g>
</svg>
