<?xml version="1.0" encoding="UTF-8" ?>
<!DOCTYPE svg PUBLIC "-//W3C//DTD SVG 1.1//EN" "http://www.w3.org/Graphics/SVG/1.1/DTD/svg11.dtd">
<svg width="192pt" height="192pt" viewBox="0 0 192 192" version="1.1" xmlns="http://www.w3.org/2000/svg">
<g id="#6b7989ff">
<path fill="#6b7989" opacity="1.00" d=" M 21.11 43.96 C 20.87 31.69 31.81 20.71 44.05 20.73 C 78.02 20.63 112.00 20.68 145.97 20.70 C 158.11 20.35 169.34 30.76 169.64 42.94 C 169.74 64.96 169.69 87.00 169.68 109.02 C 170.24 112.37 165.48 113.97 163.45 111.58 C 157.21 106.10 150.98 100.61 144.87 95.00 C 128.53 108.87 112.66 123.37 96.49 137.46 C 93.41 140.14 89.85 144.58 85.26 142.67 C 80.70 141.29 79.01 134.78 82.55 131.49 C 90.52 124.10 98.90 117.17 106.88 109.79 C 103.97 107.06 100.99 104.42 97.95 101.84 C 83.37 113.93 69.62 127.07 55.07 139.19 C 50.04 141.95 44.49 134.73 48.64 130.68 C 63.53 117.21 78.73 104.06 93.75 90.72 C 95.74 88.56 99.41 88.33 101.55 90.39 C 106.18 94.32 110.54 98.55 115.15 102.51 C 124.09 95.03 132.46 86.86 141.55 79.59 C 148.96 76.46 153.25 85.39 158.61 88.81 C 158.50 73.87 158.65 58.93 158.54 44.00 C 158.62 37.40 152.56 31.71 146.02 31.86 C 112.35 31.76 78.67 31.80 45.00 31.82 C 38.41 31.57 32.11 37.22 32.28 43.93 C 32.21 77.97 32.22 112.02 32.27 146.07 C 32.11 152.76 38.35 158.57 44.99 158.16 C 78.99 158.44 112.99 158.21 146.99 158.26 C 152.01 158.45 156.79 154.89 158.14 150.08 C 159.40 144.55 157.63 138.68 159.18 133.22 C 161.16 128.65 168.63 129.39 169.63 134.28 C 170.07 139.14 169.84 144.06 169.73 148.94 C 169.06 160.36 158.41 169.93 146.99 169.56 C 113.00 169.45 79.00 169.80 45.02 169.36 C 32.41 169.85 20.84 158.70 21.09 146.05 C 21.06 112.02 21.07 77.99 21.11 43.96 Z" />
<path fill="#6b7989" opacity="1.00" d=" M 57.25 47.24 C 65.44 44.07 75.40 49.54 77.28 58.06 C 79.97 67.09 72.40 77.11 63.04 77.21 C 55.05 77.78 47.51 71.02 46.97 63.08 C 46.30 56.28 50.72 49.33 57.25 47.24 Z" />
</g>
</svg>
