<?xml version="1.0" encoding="UTF-8" ?>
<!DOCTYPE svg PUBLIC "-//W3C//DTD SVG 1.1//EN" "http://www.w3.org/Graphics/SVG/1.1/DTD/svg11.dtd">
<svg width="192pt" height="192pt" viewBox="0 0 192 192" version="1.1" xmlns="http://www.w3.org/2000/svg">
<g id="#58db69ff">
<path fill="#58db69" opacity="1.00" d=" M 21.07 43.95 C 20.87 31.68 31.79 20.68 44.04 20.72 C 78.02 20.61 111.99 20.66 145.97 20.69 C 158.12 20.32 169.34 30.75 169.65 42.93 C 169.76 64.96 169.70 86.99 169.70 109.02 C 170.25 112.36 165.48 113.98 163.45 111.59 C 157.20 106.11 150.99 100.59 144.84 94.99 C 128.52 108.90 112.65 123.36 96.48 137.46 C 93.53 139.95 90.43 144.04 86.06 142.93 C 81.03 142.05 78.73 135.03 82.52 131.49 C 90.48 124.11 98.86 117.17 106.84 109.80 C 104.00 107.00 100.92 104.46 97.95 101.81 C 83.38 113.94 69.62 127.06 55.07 139.19 C 50.03 141.93 44.47 134.73 48.60 130.66 C 63.52 117.21 78.71 104.05 93.73 90.70 C 95.76 88.54 99.41 88.24 101.57 90.37 C 106.18 94.32 110.57 98.52 115.15 102.50 C 124.07 95.00 132.46 86.84 141.55 79.56 C 148.93 76.44 153.25 85.34 158.58 88.78 C 158.51 73.85 158.62 58.92 158.53 44.00 C 158.60 37.41 152.57 31.68 146.02 31.86 C 112.35 31.81 78.67 31.83 45.00 31.83 C 38.39 31.54 32.15 37.23 32.26 43.92 C 32.20 77.97 32.20 112.02 32.26 146.07 C 32.15 152.73 38.35 158.56 44.98 158.13 C 78.65 158.43 112.32 158.15 145.98 158.26 C 151.30 158.74 156.70 155.29 158.12 150.08 C 159.40 144.55 157.62 138.69 159.16 133.22 C 161.27 128.25 169.53 129.64 169.77 135.06 C 169.70 142.49 171.02 150.52 167.32 157.34 C 163.52 164.79 155.36 169.74 146.98 169.56 C 115.32 169.56 83.66 169.58 52.00 169.54 C 46.75 169.25 41.29 169.80 36.30 167.84 C 27.41 164.57 20.99 155.55 21.06 146.05 C 21.02 112.02 21.03 77.98 21.07 43.95 Z" />
<path fill="#58db69" opacity="1.00" d=" M 57.31 47.39 C 66.48 43.74 77.53 51.34 77.58 61.15 C 78.25 70.05 69.80 78.05 60.97 76.95 C 53.44 76.43 47.02 69.58 47.15 62.01 C 46.87 55.61 51.27 49.43 57.31 47.39 Z" />
</g>
</svg>
