<?xml version="1.0" encoding="UTF-8" ?>
<!DOCTYPE svg PUBLIC "-//W3C//DTD SVG 1.1//EN" "http://www.w3.org/Graphics/SVG/1.1/DTD/svg11.dtd">
<svg width="192pt" height="192pt" viewBox="0 0 192 192" version="1.1" xmlns="http://www.w3.org/2000/svg">
<g id="#65da6dff">
<path fill="#65da6d" opacity="1.00" d=" M 22.10 41.95 C 21.98 30.82 30.96 20.54 41.97 19.08 C 46.26 18.64 50.64 18.48 54.93 19.00 C 59.90 20.06 60.36 28.05 55.46 29.54 C 51.13 30.27 46.66 29.68 42.32 30.44 C 37.24 31.70 33.24 36.64 33.29 41.92 C 33.23 75.96 33.29 110.01 33.27 144.05 C 32.82 150.93 39.08 157.13 45.93 156.78 C 63.97 156.80 82.01 156.85 100.05 156.74 C 90.75 144.89 81.90 132.69 72.35 121.05 C 66.67 128.44 61.02 135.89 55.04 143.03 C 50.97 147.76 42.79 141.57 46.29 136.33 C 53.21 126.98 60.62 117.97 67.76 108.78 C 69.85 105.36 75.19 105.24 77.32 108.68 C 84.39 117.86 91.53 127.00 98.46 136.29 C 111.91 120.74 123.99 103.96 137.10 88.10 C 139.48 85.40 144.06 86.07 145.91 89.05 C 154.14 99.79 162.80 110.25 170.73 121.20 C 171.00 129.46 170.89 137.76 170.77 146.04 C 170.33 158.21 159.09 168.31 147.03 168.09 C 113.34 168.15 79.65 168.18 45.97 168.08 C 33.50 168.38 22.08 157.61 22.09 145.06 C 22.02 110.69 22.04 76.32 22.10 41.95 M 105.95 145.86 C 108.73 149.49 111.50 153.14 114.30 156.75 C 125.22 156.83 136.15 156.81 147.07 156.77 C 153.52 157.00 159.52 151.51 159.63 145.02 C 159.68 138.46 159.83 131.87 159.55 125.32 C 153.77 117.05 147.26 109.25 141.02 101.30 C 129.31 116.14 117.45 130.86 105.95 145.86 Z" />
<path fill="#65da6d" opacity="1.00" d=" M 66.39 19.51 C 83.01 17.70 100.17 19.33 117.00 18.86 C 121.23 18.93 127.68 17.70 129.18 23.06 C 129.76 28.68 129.37 34.36 129.40 40.00 C 129.76 43.54 126.57 46.77 123.02 46.38 C 105.00 46.31 86.98 46.39 68.97 46.16 C 62.31 45.66 63.35 37.74 63.48 33.00 C 64.03 28.55 61.87 22.43 66.39 19.51 M 83.33 23.36 C 78.62 25.13 81.97 33.07 86.58 30.48 C 91.00 28.52 87.77 21.31 83.33 23.36 M 95.36 23.40 C 90.62 25.16 94.00 33.11 98.60 30.51 C 102.98 28.55 99.79 21.38 95.36 23.40 M 106.41 23.49 C 103.86 24.66 103.43 28.57 105.77 30.16 C 108.15 32.22 112.18 30.07 111.99 26.99 C 111.97 24.25 108.89 22.35 106.41 23.49 M 83.36 34.39 C 78.57 36.10 81.96 44.21 86.59 41.49 C 90.92 39.51 87.75 32.40 83.36 34.39 M 95.39 34.41 C 90.58 36.12 93.99 44.26 98.60 41.52 C 102.93 39.54 99.78 32.49 95.39 34.41 M 106.43 34.52 C 101.86 36.41 105.17 43.99 109.66 41.64 C 114.29 39.79 110.92 32.29 106.43 34.52 Z" />
<path fill="#65da6d" opacity="1.00" d=" M 137.20 19.25 C 141.37 18.25 145.79 18.75 150.04 18.96 C 161.43 20.01 170.92 30.50 170.81 41.95 C 170.82 57.32 170.98 72.70 170.75 88.06 C 170.64 94.07 161.15 94.78 159.94 88.94 C 159.29 73.30 159.94 57.58 159.64 41.91 C 159.59 36.67 155.68 31.81 150.66 30.45 C 146.07 29.51 141.17 30.97 136.72 29.26 C 132.80 27.27 133.10 20.85 137.20 19.25 Z" />
</g>
</svg>
