<?xml version="1.0" encoding="UTF-8" ?>
<!DOCTYPE svg PUBLIC "-//W3C//DTD SVG 1.1//EN" "http://www.w3.org/Graphics/SVG/1.1/DTD/svg11.dtd">
<svg width="192pt" height="192pt" viewBox="0 0 192 192" version="1.1" xmlns="http://www.w3.org/2000/svg">
<g id="#ff3e5cff">
<path fill="#ff3e5c" opacity="1.00" d=" M 21.08 43.96 C 20.87 31.69 31.79 20.67 44.05 20.72 C 78.02 20.62 111.99 20.67 145.97 20.69 C 158.11 20.32 169.33 30.75 169.64 42.93 C 169.75 64.96 169.69 86.99 169.68 109.02 C 170.22 112.34 165.47 113.97 163.45 111.58 C 157.20 106.10 151.00 100.57 144.85 94.99 C 128.51 108.88 112.65 123.35 96.48 137.45 C 93.40 140.14 89.86 144.52 85.26 142.66 C 80.68 141.31 79.00 134.77 82.55 131.48 C 90.50 124.08 98.91 117.18 106.85 109.77 C 103.96 107.02 100.94 104.42 97.94 101.80 C 83.61 113.82 69.91 126.62 55.68 138.76 C 50.81 142.53 44.15 135.00 48.62 130.66 C 63.52 117.20 78.72 104.05 93.73 90.71 C 95.75 88.57 99.41 88.25 101.56 90.38 C 106.17 94.32 110.56 98.51 115.13 102.50 C 124.08 95.03 132.45 86.84 141.55 79.57 C 148.95 76.45 153.26 85.37 158.61 88.80 C 158.47 73.86 158.65 58.93 158.53 43.99 C 158.60 37.39 152.57 31.67 146.01 31.85 C 112.34 31.80 78.67 31.82 45.00 31.83 C 38.39 31.52 32.13 37.22 32.25 43.92 C 32.18 77.97 32.19 112.03 32.25 146.08 C 32.14 152.75 38.35 158.56 44.99 158.13 C 78.65 158.44 112.32 158.16 145.99 158.27 C 151.30 158.73 156.71 155.30 158.12 150.08 C 159.40 144.55 157.62 138.68 159.17 133.22 C 161.27 128.26 169.52 129.65 169.75 135.06 C 169.70 142.49 170.99 150.51 167.31 157.34 C 163.37 165.10 154.71 170.01 146.03 169.56 C 112.04 169.39 78.04 169.87 44.06 169.30 C 31.77 169.37 20.87 158.33 21.07 146.05 C 21.02 112.02 21.03 77.99 21.08 43.96 Z" />
<path fill="#ff3e5c" opacity="1.00" d=" M 57.29 47.34 C 64.55 44.59 73.34 48.53 76.32 55.64 C 79.76 62.93 76.14 72.56 68.67 75.66 C 60.92 79.53 50.65 75.10 47.96 66.92 C 44.95 59.25 49.49 49.86 57.29 47.34 Z" />
</g>
</svg>
