<?xml version="1.0" encoding="UTF-8" ?>
<!DOCTYPE svg PUBLIC "-//W3C//DTD SVG 1.1//EN" "http://www.w3.org/Graphics/SVG/1.1/DTD/svg11.dtd">
<svg width="192pt" height="192pt" viewBox="0 0 192 192" version="1.1" xmlns="http://www.w3.org/2000/svg">
<g id="#f55e7fff">
<path fill="#f55e7f" opacity="1.00" d=" M 91.40 14.35 C 94.04 12.28 97.94 12.36 100.59 14.36 C 109.08 20.36 116.53 28.31 120.27 38.15 C 129.43 35.21 139.18 34.28 148.73 35.33 C 152.32 35.73 155.17 38.73 155.67 42.26 C 157.22 51.79 156.62 61.78 153.10 70.83 C 162.55 75.10 170.62 81.96 177.10 89.99 C 179.30 92.59 179.33 96.61 177.33 99.33 C 171.35 108.00 163.00 115.11 153.20 119.11 C 156.76 128.28 157.08 138.27 156.38 147.97 C 156.00 151.12 153.53 153.78 150.46 154.50 C 140.44 156.64 129.90 155.61 120.32 152.02 C 116.06 161.49 109.10 169.58 100.91 175.88 C 98.58 177.77 95.09 178.16 92.58 176.38 C 83.63 170.34 76.02 162.00 71.92 151.91 C 62.20 154.80 51.91 156.21 41.84 154.40 C 39.39 153.78 37.42 151.69 36.83 149.25 C 34.75 139.25 35.53 128.74 39.08 119.16 C 29.72 114.77 21.35 108.19 15.04 99.99 C 13.07 97.63 12.70 94.04 14.47 91.46 C 20.40 82.37 29.09 75.13 39.11 70.95 C 36.14 62.00 35.39 52.43 36.27 43.07 C 36.66 39.91 38.98 37.03 42.10 36.24 C 51.95 33.96 62.36 34.99 71.85 38.36 C 76.15 28.83 83.22 20.77 91.40 14.35 M 79.73 59.52 C 80.64 68.67 87.17 75.61 90.38 83.90 C 94.06 82.74 97.97 82.46 101.64 83.84 C 104.61 77.45 109.46 71.95 111.14 64.98 C 115.17 50.17 108.68 33.59 96.04 25.01 C 86.18 33.50 77.74 45.91 79.73 59.52 M 47.39 46.63 C 47.07 53.83 47.58 61.15 50.13 67.95 C 56.95 66.75 63.92 67.60 70.55 69.41 C 68.44 63.03 67.72 56.22 68.64 49.55 C 62.07 46.36 54.55 45.97 47.39 46.63 M 123.25 49.37 C 124.26 56.01 123.50 62.73 121.96 69.22 C 128.48 67.60 135.26 66.51 141.95 67.71 C 145.10 61.05 145.45 53.54 144.74 46.33 C 137.47 46.11 130.06 46.59 123.25 49.37 M 25.66 95.07 C 33.94 105.00 46.54 112.95 59.95 111.31 C 69.37 110.48 77.40 105.04 84.92 99.77 C 84.02 96.38 84.22 92.86 84.88 89.44 C 79.05 87.14 74.37 82.62 68.31 80.79 C 52.88 75.54 35.03 81.91 25.66 95.07 M 107.32 89.94 C 108.36 93.13 108.29 96.51 107.37 99.73 C 114.81 104.81 122.57 110.41 131.91 110.90 C 145.38 112.66 158.60 105.59 166.59 95.00 C 158.73 85.82 147.57 78.24 135.04 78.69 C 124.55 78.69 116.18 85.35 107.32 89.94 M 91.57 106.34 C 86.88 113.10 81.68 119.98 80.48 128.37 C 78.07 142.45 84.65 156.89 96.11 165.16 C 106.18 157.02 114.23 144.39 112.57 130.96 C 111.64 121.59 106.08 113.67 100.49 106.43 C 97.53 106.85 94.53 106.78 91.57 106.34 M 50.05 122.74 C 47.18 129.29 46.56 136.55 47.40 143.61 C 54.71 144.45 62.04 143.01 68.97 140.73 C 67.99 134.13 68.79 127.44 70.22 120.97 C 63.65 122.84 56.83 123.18 50.05 122.74 M 122.22 120.90 C 124.40 127.36 124.51 134.24 124.03 140.98 C 130.58 144.11 137.96 144.54 145.08 143.95 C 145.40 136.62 145.28 129.02 141.98 122.29 C 135.38 123.23 128.65 122.54 122.22 120.90 Z" />
</g>
</svg>
