<?xml version="1.0" encoding="UTF-8" ?>
<!DOCTYPE svg PUBLIC "-//W3C//DTD SVG 1.1//EN" "http://www.w3.org/Graphics/SVG/1.1/DTD/svg11.dtd">
<svg width="192pt" height="192pt" viewBox="0 0 192 192" version="1.1" xmlns="http://www.w3.org/2000/svg">
<g id="#f7a632ff">
<path fill="#f7a632" opacity="1.00" d=" M 21.09 43.95 C 20.87 31.68 31.80 20.69 44.04 20.73 C 78.02 20.62 111.99 20.67 145.97 20.69 C 158.12 20.32 169.33 30.75 169.65 42.93 C 169.76 64.96 169.70 86.99 169.69 109.03 C 170.21 112.34 165.48 113.98 163.45 111.58 C 157.20 106.10 150.97 100.58 144.84 94.97 C 128.53 108.89 112.64 123.33 96.48 137.45 C 93.52 139.94 90.43 144.01 86.06 142.90 C 81.03 142.05 78.73 135.03 82.52 131.50 C 90.48 124.09 98.88 117.15 106.87 109.78 C 103.96 107.03 100.93 104.42 97.93 101.77 C 83.63 113.83 69.91 126.60 55.68 138.74 C 50.82 142.54 44.15 134.99 48.62 130.66 C 63.52 117.20 78.72 104.05 93.73 90.71 C 95.76 88.55 99.40 88.24 101.56 90.37 C 106.18 94.32 110.57 98.51 115.15 102.51 C 124.07 95.00 132.45 86.83 141.56 79.56 C 148.93 76.45 153.27 85.35 158.59 88.79 C 158.49 73.85 158.64 58.92 158.53 43.98 C 158.59 37.39 152.57 31.66 146.02 31.85 C 112.35 31.81 78.67 31.81 45.00 31.81 C 38.37 31.50 32.12 37.21 32.24 43.92 C 32.18 77.97 32.18 112.03 32.25 146.08 C 32.14 152.75 38.35 158.56 44.99 158.13 C 78.66 158.43 112.33 158.15 145.99 158.25 C 151.30 158.72 156.70 155.29 158.10 150.08 C 159.39 144.54 157.63 138.68 159.16 133.21 C 161.29 128.25 169.52 129.63 169.77 135.06 C 169.75 142.49 171.00 150.51 167.31 157.34 C 163.37 165.11 154.71 170.00 146.03 169.57 C 112.37 169.41 78.70 169.84 45.05 169.32 C 32.42 169.87 20.84 158.71 21.07 146.05 C 21.03 112.02 21.04 77.98 21.09 43.95 Z" />
<path fill="#f7a632" opacity="1.00" d=" M 62.24 46.51 C 70.47 46.32 77.92 53.74 77.56 62.00 C 77.67 70.14 70.17 77.49 61.97 76.88 C 53.65 77.11 46.45 69.17 47.15 60.95 C 47.33 53.13 54.46 46.42 62.24 46.51 Z" />
</g>
</svg>
