<?xml version="1.0" encoding="UTF-8" ?>
<!DOCTYPE svg PUBLIC "-//W3C//DTD SVG 1.1//EN" "http://www.w3.org/Graphics/SVG/1.1/DTD/svg11.dtd">
<svg width="192pt" height="192pt" viewBox="0 0 192 192" version="1.1" xmlns="http://www.w3.org/2000/svg">
<g id="#19afffff">
<path fill="#19afff" opacity="1.00" d=" M 48.37 39.47 C 71.17 37.86 94.14 39.15 117.00 38.80 C 128.30 39.23 140.31 37.05 150.87 42.18 C 163.58 48.18 170.93 61.51 174.33 74.62 C 179.18 94.88 178.72 116.51 172.55 136.44 C 170.18 142.90 166.52 150.69 159.05 152.13 C 150.09 152.34 141.10 148.57 134.78 142.22 C 128.18 135.44 122.49 127.84 116.09 120.89 C 113.14 117.26 108.07 118.43 103.99 118.22 C 95.20 118.58 86.32 117.60 77.58 118.59 C 70.78 124.41 65.50 131.88 59.07 138.10 C 53.89 141.53 47.83 134.30 51.50 129.57 C 56.10 124.18 61.29 119.32 65.93 113.96 C 69.23 110.08 73.63 106.57 79.01 106.76 C 89.67 106.75 100.33 106.83 110.99 106.73 C 115.31 106.58 119.58 108.28 122.54 111.44 C 129.67 118.67 135.98 126.67 142.98 134.03 C 146.74 137.95 152.04 140.81 157.58 140.61 C 163.26 132.36 164.49 121.81 165.74 112.06 C 166.82 95.45 165.99 77.53 157.15 62.93 C 152.61 55.24 144.11 49.91 135.04 50.22 C 108.01 50.36 80.96 50.00 53.93 50.30 C 42.23 50.49 33.51 60.41 29.78 70.70 C 23.79 87.43 23.49 105.80 26.75 123.14 C 27.93 129.01 29.16 135.24 32.85 140.11 C 36.59 142.36 41.18 137.26 44.97 140.08 C 48.49 142.11 48.36 147.91 44.70 149.71 C 40.76 151.49 36.30 152.48 31.97 152.06 C 25.89 151.09 22.13 145.38 19.86 140.15 C 14.33 126.19 12.91 110.93 13.54 96.03 C 14.18 82.28 16.97 68.19 24.39 56.40 C 29.71 47.88 38.36 41.25 48.37 39.47 Z" />
<path fill="#19afff" opacity="1.00" d=" M 53.47 68.37 C 55.20 65.38 59.46 65.92 62.27 66.74 C 65.61 69.07 63.91 73.82 64.29 77.26 C 67.27 77.36 70.37 76.89 73.27 77.69 C 76.18 79.28 75.51 83.20 75.20 85.93 C 73.37 90.11 67.97 88.09 64.42 88.51 C 64.42 91.33 64.58 94.17 64.24 96.98 C 63.06 100.60 58.48 99.87 55.57 99.42 C 51.59 97.46 53.60 92.14 53.11 88.64 C 50.22 88.61 47.29 88.87 44.43 88.38 C 41.19 86.82 41.77 82.35 42.50 79.48 C 44.74 75.99 49.60 77.86 53.02 77.41 C 53.12 74.41 52.63 71.28 53.47 68.37 Z" />
<path fill="#19afff" opacity="1.00" d=" M 120.44 72.52 C 129.61 66.93 137.35 82.69 127.69 86.73 C 118.91 91.53 111.45 76.88 120.44 72.52 Z" />
<path fill="#19afff" opacity="1.00" d=" M 139.44 86.48 C 144.31 83.27 151.43 87.23 151.47 92.99 C 152.03 98.97 144.68 103.59 139.58 100.32 C 134.39 97.60 134.23 89.27 139.44 86.48 Z" />
</g>
</svg>
