<?xml version="1.0" encoding="UTF-8" ?>
<!DOCTYPE svg PUBLIC "-//W3C//DTD SVG 1.1//EN" "http://www.w3.org/Graphics/SVG/1.1/DTD/svg11.dtd">
<svg width="192pt" height="192pt" viewBox="0 0 192 192" version="1.1" xmlns="http://www.w3.org/2000/svg">
<g id="#1ab0ffff">
<path fill="#1ab0ff" opacity="1.00" d=" M 132.91 32.97 C 131.80 29.04 135.98 24.91 139.87 26.28 C 151.49 30.28 159.92 40.59 164.08 51.87 C 169.25 65.80 171.60 80.55 174.88 94.99 C 177.11 108.47 179.21 123.63 172.09 136.05 C 167.14 144.86 155.31 147.89 146.34 143.71 C 136.64 139.36 129.73 130.89 122.96 123.01 C 116.39 116.00 105.99 115.48 97.00 115.26 C 87.26 115.46 76.09 116.39 69.08 124.01 C 63.86 130.43 58.18 136.64 51.29 141.30 C 44.17 146.08 34.04 147.35 26.73 142.28 C 19.58 137.38 16.83 128.35 16.18 120.10 C 14.73 101.00 21.25 82.71 25.54 64.39 C 28.35 51.39 33.53 37.77 45.19 30.20 C 48.65 27.88 53.98 24.44 57.47 28.58 C 60.78 32.39 57.36 37.30 53.27 38.56 C 67.52 55.13 81.88 71.62 96.17 88.17 C 110.69 71.67 125.09 55.05 139.40 38.38 C 136.89 37.13 133.52 36.13 132.91 32.97 M 36.20 68.15 C 32.07 86.16 25.17 104.30 27.90 123.07 C 28.66 128.60 32.42 135.50 39.05 134.16 C 50.06 131.69 55.88 120.82 63.59 113.63 C 78.35 102.08 99.19 102.33 116.64 106.42 C 130.13 109.46 135.80 123.29 146.33 130.70 C 149.73 133.37 154.39 135.25 158.64 133.57 C 162.94 131.50 164.43 126.44 165.13 122.08 C 166.87 108.94 163.59 95.88 160.75 83.13 C 157.69 70.42 155.94 56.68 148.03 45.85 C 132.62 63.51 117.25 81.21 101.95 98.96 C 99.34 102.56 93.56 102.74 90.84 99.18 C 75.41 81.50 60.18 63.63 44.73 45.96 C 39.83 52.40 38.25 60.51 36.20 68.15 Z" />
<path fill="#1ab0ff" opacity="1.00" d=" M 97.05 31.03 C 102.34 31.05 107.65 30.71 112.92 31.14 C 114.44 31.24 115.04 33.74 113.89 34.70 C 111.03 38.45 107.69 41.78 104.78 45.48 C 108.11 46.20 113.09 44.08 114.85 47.99 C 107.88 57.41 100.82 66.87 93.04 75.62 C 92.05 74.91 90.03 74.64 90.35 72.99 C 91.15 68.03 93.62 63.47 94.08 58.43 C 90.95 58.15 87.31 59.22 84.59 57.28 C 83.67 55.16 85.37 53.12 86.17 51.25 C 89.89 44.56 92.88 37.45 97.05 31.03 Z" />
<path fill="#1ab0ff" opacity="1.00" d=" M 89.32 120.40 C 98.97 118.78 109.75 119.33 118.11 124.91 C 121.30 126.92 121.88 131.55 119.40 134.36 C 112.60 143.57 106.20 153.08 99.18 162.12 C 97.27 164.86 93.75 162.91 92.18 160.85 C 85.38 152.20 79.09 143.16 73.10 133.94 C 71.19 131.35 71.59 127.26 74.43 125.52 C 78.96 122.80 84.17 121.39 89.32 120.40 Z" />
</g>
</svg>
