<?xml version="1.0" encoding="UTF-8" ?>
<!DOCTYPE svg PUBLIC "-//W3C//DTD SVG 1.1//EN" "http://www.w3.org/Graphics/SVG/1.1/DTD/svg11.dtd">
<svg width="192pt" height="192pt" viewBox="0 0 192 192" version="1.1" xmlns="http://www.w3.org/2000/svg">
<g id="#db28b0ff">
<path fill="#db28b0" opacity="1.00" d=" M 71.19 19.13 C 72.18 15.79 75.55 13.61 78.97 13.70 C 89.65 13.70 100.35 13.58 111.02 13.75 C 115.14 13.74 117.89 17.29 119.07 20.87 C 122.63 30.31 126.62 39.60 129.90 49.14 C 131.09 51.95 128.62 54.15 126.22 55.01 C 131.44 54.97 136.69 54.84 141.91 55.27 C 145.83 55.62 146.89 61.73 143.49 63.51 C 140.14 64.95 136.36 64.17 132.82 64.31 C 133.64 72.67 127.54 78.39 122.85 84.29 C 129.75 84.64 136.69 84.00 143.57 84.68 C 146.40 84.94 149.23 87.79 147.60 90.68 C 144.81 95.84 140.12 99.68 136.86 104.54 C 149.97 108.89 160.71 120.95 161.56 135.01 C 161.98 149.19 161.79 163.37 161.80 177.56 C 144.18 177.54 126.56 177.61 108.95 177.52 C 97.81 177.30 87.59 170.59 81.60 161.42 C 76.11 153.24 70.20 145.34 64.92 137.04 C 62.39 131.80 68.17 127.82 70.68 123.90 C 67.36 120.25 64.45 116.22 60.88 112.80 C 49.40 112.74 39.48 123.13 38.64 134.44 C 38.13 145.65 38.39 156.89 38.33 168.11 C 48.13 168.32 57.96 167.77 67.74 168.37 C 72.48 169.41 71.95 177.27 67.02 177.45 C 54.37 177.68 41.70 177.53 29.04 177.49 C 29.17 162.99 28.74 148.47 29.27 133.97 C 30.13 119.98 40.73 108.19 53.91 104.22 C 50.42 99.68 46.08 95.73 43.25 90.73 C 41.43 87.77 44.55 84.86 47.41 84.63 C 54.28 84.14 61.18 84.45 68.06 84.34 C 66.79 81.57 64.42 79.72 62.09 77.89 C 58.29 74.50 58.51 68.99 58.12 64.33 C 54.80 64.19 51.38 64.70 48.12 63.90 C 44.35 62.76 44.31 56.29 48.32 55.45 C 51.77 54.76 55.32 55.17 58.82 55.07 C 62.84 43.06 66.88 31.04 71.19 19.13 M 73.55 40.38 C 78.23 40.56 82.93 40.16 87.60 40.59 C 92.05 41.34 92.08 48.71 87.64 49.46 C 82.02 49.92 76.37 49.46 70.74 49.50 C 69.78 51.24 68.88 53.02 68.06 54.84 C 87.38 55.37 106.73 54.92 126.06 55.04 C 123.35 54.13 121.33 52.17 120.04 49.66 C 116.96 49.58 112.55 50.54 111.12 46.88 C 109.36 43.21 113.04 39.99 116.54 40.00 C 114.39 34.46 112.21 28.93 109.96 23.43 C 105.20 25.93 100.66 29.75 95.00 29.64 C 89.12 29.89 84.24 26.10 79.44 23.27 C 77.40 28.95 75.54 34.69 73.55 40.38 M 67.48 64.51 C 67.64 66.94 66.97 70.06 69.32 71.66 C 77.34 77.50 78.57 88.16 84.18 95.79 C 90.23 102.57 103.11 101.96 107.89 93.96 C 112.27 86.90 113.88 77.98 120.50 72.47 C 122.96 70.54 123.66 67.39 123.15 64.42 C 104.59 64.51 86.04 64.29 67.48 64.51 M 57.27 93.70 C 64.78 102.88 72.78 111.66 80.16 120.93 C 83.17 126.20 76.72 130.27 74.34 134.38 C 79.75 142.49 85.41 150.42 90.96 158.44 C 90.81 142.63 90.50 126.13 83.49 111.60 C 80.84 105.55 75.96 100.91 73.02 95.04 C 68.40 92.00 62.45 94.07 57.27 93.70 M 111.16 105.08 C 101.22 120.66 99.05 139.90 100.12 158.00 C 105.54 150.09 111.19 142.34 116.42 134.30 C 113.94 130.23 107.41 125.94 110.72 120.69 C 118.11 111.57 126.03 102.87 133.35 93.69 C 128.64 94.09 123.72 92.92 119.15 94.01 C 116.06 97.29 114.22 101.68 111.16 105.08 M 120.20 123.83 C 122.33 127.51 126.42 130.50 126.82 134.89 C 121.10 146.59 110.80 155.99 105.87 168.00 C 121.32 168.39 136.77 168.09 152.22 168.14 C 152.31 156.46 152.93 144.73 151.77 133.09 C 150.26 122.23 140.59 114.02 129.98 112.57 C 126.57 116.19 123.40 120.03 120.20 123.83 Z" />
</g>
</svg>
