<?xml version="1.0" encoding="UTF-8" ?>
<!DOCTYPE svg PUBLIC "-//W3C//DTD SVG 1.1//EN" "http://www.w3.org/Graphics/SVG/1.1/DTD/svg11.dtd">
<svg width="192pt" height="192pt" viewBox="0 0 192 192" version="1.1" xmlns="http://www.w3.org/2000/svg">
<g id="#45e371ff">
<path fill="#45e371" opacity="1.00" d=" M 58.31 26.03 C 60.69 18.48 67.21 10.46 76.01 11.83 C 89.43 13.61 97.88 26.21 101.78 38.15 C 106.01 51.16 108.64 65.68 105.28 79.09 C 95.77 59.17 81.12 41.43 62.13 29.92 C 60.76 28.79 58.37 28.10 58.31 26.03 M 72.56 22.84 C 78.06 27.24 83.54 31.64 88.88 36.23 C 85.89 29.67 80.45 22.85 72.56 22.84 Z" />
<path fill="#45e371" opacity="1.00" d=" M 126.61 27.59 C 136.30 21.85 146.03 34.83 142.90 43.88 C 137.31 59.48 127.69 73.85 114.43 83.94 C 112.40 76.09 113.61 67.92 114.08 59.95 C 115.43 48.60 116.52 34.83 126.61 27.59 Z" />
<path fill="#45e371" opacity="1.00" d=" M 35.23 55.02 C 33.73 43.61 43.65 34.34 53.78 31.45 C 75.26 42.87 93.16 61.66 102.66 84.15 C 89.84 90.15 74.91 87.56 62.08 82.96 C 49.80 78.21 37.05 69.03 35.23 55.02 M 46.40 52.33 C 46.30 57.32 49.47 61.74 53.08 64.88 C 62.22 72.57 74.27 75.92 86.03 76.45 C 77.83 63.16 66.32 52.02 53.02 43.87 C 50.00 45.86 46.56 48.35 46.40 52.33 Z" />
<path fill="#45e371" opacity="1.00" d=" M 129.54 74.53 C 137.42 65.82 142.40 55.10 146.84 44.35 C 151.05 48.28 153.92 54.20 152.22 60.00 C 148.73 75.49 133.84 89.95 117.11 87.17 C 120.83 82.56 125.89 79.24 129.54 74.53 Z" />
<path fill="#45e371" opacity="1.00" d=" M 119.55 94.17 C 134.59 94.89 152.28 105.50 152.66 122.04 C 151.94 127.17 151.11 135.32 145.52 136.92 C 140.66 120.69 131.63 105.99 119.55 94.17 Z" />
<path fill="#45e371" opacity="1.00" d=" M 59.92 104.84 C 72.99 97.78 88.32 93.05 103.19 96.37 C 93.98 118.76 77.72 138.15 58.08 152.20 C 54.02 155.89 49.35 151.43 45.97 149.03 C 38.53 143.79 34.01 133.57 37.88 124.83 C 42.20 115.54 51.18 109.55 59.92 104.84 M 49.70 126.74 C 45.14 131.72 49.48 138.17 54.06 141.22 C 66.32 131.97 76.95 120.47 84.85 107.28 C 71.89 110.66 58.58 116.37 49.70 126.74 Z" />
<path fill="#45e371" opacity="1.00" d=" M 116.16 97.32 C 129.27 106.58 135.98 122.81 141.35 137.60 C 144.56 144.40 138.56 153.17 130.99 152.45 C 122.21 152.12 118.09 142.89 116.56 135.44 C 114.23 122.95 113.78 109.95 115.50 97.37 L 116.16 97.32 Z" />
<path fill="#45e371" opacity="1.00" d=" M 59.18 158.92 C 79.59 144.21 95.42 123.97 106.09 101.30 C 111.26 120.99 106.22 142.27 97.08 160.05 C 92.88 168.55 84.26 177.02 74.03 175.26 C 66.08 173.71 61.75 165.89 59.18 158.92 M 73.19 162.32 C 74.86 163.25 76.73 165.14 78.72 163.81 C 86.02 160.12 88.72 151.63 91.57 144.54 C 85.89 150.91 79.68 156.78 73.19 162.32 Z" />
</g>
</svg>
