<?xml version="1.0" encoding="UTF-8" ?>
<!DOCTYPE svg PUBLIC "-//W3C//DTD SVG 1.1//EN" "http://www.w3.org/Graphics/SVG/1.1/DTD/svg11.dtd">
<svg width="192pt" height="192pt" viewBox="0 0 192 192" version="1.1" xmlns="http://www.w3.org/2000/svg">
<g id="#1ab1ffff">
<path fill="#1ab1ff" opacity="1.00" d=" M 89.39 17.49 C 107.90 15.68 127.42 16.77 144.57 24.54 C 153.39 28.72 162.71 35.33 164.50 45.59 C 166.15 54.15 163.04 64.99 154.20 68.27 C 146.22 71.23 138.18 66.95 130.87 64.07 C 119.98 59.09 107.93 56.41 95.94 57.04 C 75.17 58.94 58.79 80.37 62.20 100.90 C 64.71 116.64 77.13 130.82 93.00 133.88 C 105.88 135.97 119.70 131.16 128.45 121.46 C 131.12 118.76 133.25 115.54 136.18 113.10 C 141.35 113.05 141.17 120.99 139.20 124.34 C 129.55 140.45 108.86 147.82 90.81 144.37 C 65.52 139.47 46.97 112.33 51.87 86.97 C 55.69 65.13 75.50 46.61 97.99 46.22 C 111.74 46.00 125.26 49.56 137.69 55.28 C 142.05 56.66 147.07 60.16 151.57 57.58 C 156.19 52.50 154.50 43.80 149.08 39.92 C 136.50 29.81 119.61 27.71 103.99 27.44 C 83.33 26.52 62.07 34.69 48.40 50.42 C 27.00 74.78 26.46 114.76 47.53 139.48 C 69.08 164.32 109.01 169.82 136.97 152.96 C 150.99 144.57 161.74 128.78 159.76 111.92 C 159.44 102.60 155.11 90.97 144.68 89.39 C 131.81 88.33 118.80 88.63 105.95 89.98 C 97.89 90.15 96.66 101.89 101.18 106.79 C 106.68 110.78 114.00 106.83 119.97 109.09 C 124.40 111.28 123.07 118.87 118.03 119.10 C 110.92 119.30 103.50 119.53 96.70 117.22 C 84.45 108.83 85.09 86.44 99.12 80.28 C 114.81 77.48 131.06 77.61 146.88 79.19 C 161.95 81.32 170.15 97.02 170.46 111.02 C 172.83 131.45 160.51 150.99 143.56 161.52 C 114.43 179.71 73.76 176.48 47.52 154.44 C 19.71 131.31 13.90 88.14 30.96 56.97 C 42.44 35.24 65.23 20.67 89.39 17.49 Z" />
</g>
</svg>
