<?xml version="1.0" encoding="UTF-8" ?>
<!DOCTYPE svg PUBLIC "-//W3C//DTD SVG 1.1//EN" "http://www.w3.org/Graphics/SVG/1.1/DTD/svg11.dtd">
<svg width="192pt" height="192pt" viewBox="0 0 192 192" version="1.1" xmlns="http://www.w3.org/2000/svg">
<g id="#6b7989ff">
<path fill="#6b7989" opacity="1.00" d=" M 144.40 18.44 C 151.97 17.10 158.81 25.64 155.68 32.72 C 153.32 39.93 142.79 41.87 137.97 36.03 C 132.20 30.22 136.26 19.20 144.40 18.44 Z" />
<path fill="#6b7989" opacity="1.00" d=" M 80.34 25.42 C 95.44 22.72 111.61 26.83 123.54 36.48 C 137.78 47.56 145.77 66.10 143.96 84.06 C 142.63 100.38 133.34 115.76 119.63 124.67 C 105.03 134.46 85.57 136.39 69.32 129.70 C 51.16 122.57 37.66 105.00 35.53 85.59 C 31.56 57.76 52.62 29.65 80.34 25.42 M 84.41 35.54 C 68.78 37.33 54.63 48.21 48.89 62.86 C 43.23 76.57 45.34 93.06 54.18 104.96 C 61.74 115.38 74.05 122.21 86.93 122.94 C 102.07 124.03 117.43 116.47 125.89 103.88 C 135.10 90.83 136.09 72.62 128.45 58.60 C 120.30 42.87 102.03 33.19 84.41 35.54 Z" />
<path fill="#6b7989" opacity="1.00" d=" M 37.37 141.55 C 71.56 141.10 105.81 141.44 140.02 141.36 C 144.04 140.88 147.22 145.56 145.26 149.11 C 143.84 152.28 139.93 152.18 137.00 152.19 C 104.32 152.04 71.63 152.34 38.96 152.05 C 32.69 152.67 31.18 142.66 37.37 141.55 Z" />
<path fill="#6b7989" opacity="1.00" d=" M 66.33 162.33 C 81.10 161.24 96.15 162.02 111.02 161.91 C 117.23 162.03 117.15 172.29 110.98 172.53 C 97.00 172.80 83.00 172.60 69.02 172.57 C 63.41 173.18 61.25 164.57 66.33 162.33 Z" />
</g>
</svg>
