<?xml version="1.0" encoding="UTF-8" ?>
<!DOCTYPE svg PUBLIC "-//W3C//DTD SVG 1.1//EN" "http://www.w3.org/Graphics/SVG/1.1/DTD/svg11.dtd">
<svg width="192pt" height="192pt" viewBox="0 0 192 192" version="1.1" xmlns="http://www.w3.org/2000/svg">
<g id="#42e274ff">
<path fill="#42e274" opacity="1.00" d=" M 20.36 21.51 C 23.38 20.98 25.60 23.64 27.86 25.19 C 37.27 33.18 48.20 39.59 60.17 42.85 C 78.33 47.48 97.44 49.64 116.00 46.04 C 130.73 44.05 145.28 39.27 157.27 30.27 C 161.16 27.52 164.59 24.09 168.74 21.74 C 172.03 20.34 175.71 23.52 175.25 26.98 C 175.26 45.32 175.43 63.68 175.16 82.02 C 175.09 88.18 165.14 88.87 164.31 82.75 C 163.59 69.89 164.29 56.97 163.66 44.11 C 163.22 40.86 159.41 42.49 157.63 43.57 C 138.70 53.48 117.55 59.83 96.00 58.50 C 74.44 59.86 53.23 53.62 34.29 43.67 C 32.42 42.64 28.55 40.71 27.97 44.07 C 27.32 56.89 28.00 69.79 27.37 82.61 C 26.69 88.44 17.27 88.47 16.60 82.62 C 16.21 64.42 16.57 46.18 16.42 27.96 C 16.10 25.22 17.35 22.01 20.36 21.51 Z" />
<path fill="#42e274" opacity="1.00" d=" M 37.98 60.98 C 38.13 57.60 42.39 56.10 44.93 58.09 C 53.83 63.23 63.91 65.91 74.04 67.23 C 91.89 69.50 110.10 69.66 127.88 66.71 C 134.26 65.68 140.29 63.19 145.79 59.85 C 148.80 57.59 153.37 60.26 153.14 63.94 C 153.29 70.29 153.37 76.68 153.10 83.03 C 153.13 85.58 150.78 86.91 148.72 87.72 C 137.62 92.31 126.47 96.76 115.46 101.55 C 112.83 102.45 111.21 105.18 111.81 107.93 C 113.41 120.32 115.70 132.63 117.08 145.04 C 117.58 149.42 113.86 152.35 111.11 155.11 C 105.98 159.89 101.43 165.26 95.98 169.69 C 90.32 165.90 86.10 160.46 81.15 155.85 C 78.05 152.58 73.33 149.22 74.44 144.04 C 76.17 132.01 77.86 119.96 79.85 107.97 C 80.83 104.20 77.30 101.85 74.29 100.71 C 62.17 95.72 50.06 90.72 37.90 85.81 C 37.87 77.53 37.63 69.24 37.98 60.98 M 49.20 72.68 C 49.16 74.49 49.12 76.29 49.07 78.10 C 59.78 82.75 70.78 86.72 81.38 91.62 C 87.88 94.63 92.35 101.78 91.14 109.01 C 89.03 120.69 87.59 132.48 85.71 144.20 C 88.95 147.73 92.36 151.08 95.79 154.41 C 99.10 151.11 102.40 147.80 105.73 144.53 C 104.22 132.63 102.15 120.81 100.59 108.92 C 99.56 101.74 103.69 94.27 110.37 91.42 C 120.69 86.95 131.10 82.71 141.50 78.45 L 141.89 77.91 C 141.89 77.06 141.91 75.37 141.92 74.52 C 128.21 79.50 113.43 79.98 99.01 80.27 C 82.21 79.89 65.04 78.75 49.20 72.68 Z" />
<path fill="#42e274" opacity="1.00" d=" M 40.70 98.45 C 50.07 100.47 58.90 104.39 67.60 108.31 C 62.91 111.79 57.34 113.80 52.00 116.03 C 50.55 116.41 48.20 117.58 47.29 115.74 C 44.39 110.29 42.17 104.45 40.70 98.45 Z" />
<path fill="#42e274" opacity="1.00" d=" M 118.44 108.79 C 127.17 104.20 136.69 101.21 146.10 98.34 C 144.06 104.14 141.98 109.94 139.53 115.58 C 138.83 117.73 136.43 116.55 134.99 116.03 C 129.44 113.69 123.82 111.49 118.44 108.79 Z" />
</g>
</svg>
