<?xml version="1.0" encoding="UTF-8" ?>
<!DOCTYPE svg PUBLIC "-//W3C//DTD SVG 1.1//EN" "http://www.w3.org/Graphics/SVG/1.1/DTD/svg11.dtd">
<svg width="192pt" height="192pt" viewBox="0 0 192 192" version="1.1" xmlns="http://www.w3.org/2000/svg">
<g id="#44e372ff">
<path fill="#44e372" opacity="1.00" d=" M 67.16 53.18 C 67.59 49.71 65.62 42.95 70.98 42.82 C 100.36 41.76 128.07 57.30 147.45 78.54 C 149.50 80.42 149.87 83.80 147.85 85.86 C 136.27 98.50 122.96 109.80 107.77 117.90 C 95.47 124.44 81.19 128.33 67.25 125.67 C 67.23 122.40 67.21 119.13 67.23 115.86 C 82.16 120.56 97.47 113.24 108.78 103.78 C 116.93 96.59 126.79 91.38 133.89 83.02 C 123.19 70.56 108.37 62.39 93.16 56.74 C 84.88 53.58 75.96 52.73 67.16 53.18 Z" />
<path fill="#44e372" opacity="1.00" d=" M 11.27 82.35 C 24.96 65.61 45.67 55.07 67.16 53.18 C 67.22 57.45 67.29 61.72 67.19 66.00 C 50.94 67.91 35.05 74.70 23.09 85.99 C 30.23 105.05 46.76 121.82 67.18 125.81 C 67.23 129.69 67.27 133.57 67.22 137.45 C 84.64 139.40 102.38 135.64 118.14 128.20 C 133.03 121.12 148.35 114.56 161.63 104.62 C 166.46 100.78 171.52 106.25 176.01 108.01 C 180.83 109.49 181.63 116.74 177.02 118.98 C 159.86 129.92 140.38 136.63 120.86 141.97 C 104.31 146.08 87.27 149.60 70.14 148.50 C 65.42 147.29 67.77 141.04 67.25 137.55 C 42.94 134.52 23.59 115.90 13.55 94.40 C 12.16 90.68 8.36 86.22 11.27 82.35 Z" />
<path fill="#44e372" opacity="1.00" d=" M 67.20 65.99 C 81.74 64.04 97.05 69.38 106.97 80.21 C 109.60 85.03 103.41 87.87 100.57 90.62 C 97.62 93.24 92.75 98.50 89.17 93.86 C 84.65 85.37 77.53 77.38 67.22 76.87 C 67.24 73.24 67.24 69.62 67.20 65.99 Z" />
<path fill="#44e372" opacity="1.00" d=" M 47.16 84.19 C 52.59 79.27 59.88 76.54 67.22 76.87 C 67.24 89.82 67.26 102.76 67.22 115.71 C 57.14 112.05 49.39 103.55 45.22 93.83 C 43.78 90.63 44.59 86.58 47.16 84.19 Z" />
</g>
</svg>
