<?xml version="1.0" encoding="UTF-8" ?>
<!DOCTYPE svg PUBLIC "-//W3C//DTD SVG 1.1//EN" "http://www.w3.org/Graphics/SVG/1.1/DTD/svg11.dtd">
<svg width="192pt" height="192pt" viewBox="0 0 192 192" version="1.1" xmlns="http://www.w3.org/2000/svg">
<g id="#4a70c2ff">
<path fill="#4a70c2" opacity="1.00" d=" M 22.27 57.92 C 22.96 38.28 40.40 21.20 60.03 20.80 C 94.70 20.69 129.38 20.70 164.04 20.79 C 171.90 21.35 169.96 31.72 168.92 36.98 C 165.16 43.30 157.83 37.43 157.90 31.77 C 125.60 31.71 93.30 31.65 61.01 31.74 C 46.53 31.81 33.39 44.35 33.24 58.93 C 33.09 82.63 33.20 106.33 33.19 130.03 C 32.82 145.30 46.81 158.91 62.01 158.52 C 85.32 158.17 108.64 158.51 131.95 158.31 C 146.17 157.91 158.55 145.29 158.74 131.07 C 158.66 119.51 159.19 107.91 158.45 96.36 C 136.88 94.02 114.79 96.57 93.12 95.05 C 87.71 93.11 89.31 84.18 95.14 84.46 C 117.11 84.36 139.10 84.34 161.07 84.32 C 165.43 84.00 169.83 87.45 169.79 91.97 C 169.98 105.65 169.95 119.35 169.71 133.02 C 168.84 152.13 152.09 168.74 132.96 169.38 C 108.66 169.71 84.34 169.57 60.03 169.40 C 40.31 169.07 22.85 151.77 22.23 132.08 C 22.05 107.36 22.06 82.64 22.27 57.92 Z" />
</g>
</svg>
