<?xml version="1.0" encoding="UTF-8" ?>
<!DOCTYPE svg PUBLIC "-//W3C//DTD SVG 1.1//EN" "http://www.w3.org/Graphics/SVG/1.1/DTD/svg11.dtd">
<svg width="192pt" height="192pt" viewBox="0 0 192 192" version="1.1" xmlns="http://www.w3.org/2000/svg">
<g id="#918464ff">
<path fill="#918464" opacity="1.00" d=" M 84.40 18.51 C 114.50 13.72 146.37 28.87 161.86 55.07 C 174.78 76.02 176.68 103.20 166.86 125.76 C 155.27 153.58 126.22 173.11 96.00 172.72 C 66.80 173.42 38.41 155.55 25.88 129.26 C 14.73 106.77 15.53 78.81 28.07 57.05 C 39.60 36.45 61.00 21.73 84.40 18.51 M 88.45 28.64 C 65.50 30.90 44.45 45.99 34.85 66.93 C 25.36 86.96 26.77 111.65 38.55 130.42 C 53.52 155.40 85.72 168.02 113.66 159.69 C 132.05 154.64 147.84 141.20 156.00 124.00 C 164.78 105.82 164.60 83.62 155.57 65.57 C 143.71 40.88 115.68 25.41 88.45 28.64 Z" />
<path fill="#918464" opacity="1.00" d=" M 62.95 58.96 C 71.39 53.15 80.90 64.26 76.60 72.47 C 71.24 79.49 67.39 87.98 67.75 96.99 C 67.45 101.88 69.72 106.51 69.32 111.38 C 51.37 101.35 48.28 73.07 62.95 58.96 Z" />
<path fill="#918464" opacity="1.00" d=" M 102.14 57.88 C 105.96 57.05 111.30 56.56 113.78 60.31 C 116.40 64.31 117.96 68.92 118.85 73.59 C 111.27 73.09 114.02 80.96 113.46 85.82 C 113.21 91.57 108.63 96.93 102.83 97.62 C 95.70 98.72 89.15 92.06 88.95 85.15 C 92.29 82.78 97.02 82.10 99.11 78.14 C 103.20 72.07 99.50 64.19 102.14 57.88 Z" />
<path fill="#918464" opacity="1.00" d=" M 125.11 74.66 C 128.65 76.11 130.39 79.80 132.25 82.89 C 141.37 99.53 136.26 122.78 120.00 133.06 C 106.12 142.52 84.04 141.32 73.85 127.19 C 86.75 131.34 101.89 130.65 112.67 121.71 C 126.67 110.88 130.73 90.98 125.11 74.66 Z" />
</g>
</svg>
