<?xml version="1.0" encoding="UTF-8" ?>
<!DOCTYPE svg PUBLIC "-//W3C//DTD SVG 1.1//EN" "http://www.w3.org/Graphics/SVG/1.1/DTD/svg11.dtd">
<svg width="192pt" height="192pt" viewBox="0 0 192 192" version="1.1" xmlns="http://www.w3.org/2000/svg">
<g id="#f3ab48ff">
<path fill="#f3ab48" opacity="1.00" d=" M 82.26 18.24 C 89.44 12.33 100.63 12.32 107.85 18.17 C 112.68 22.26 116.70 27.24 121.50 31.36 C 128.28 32.26 135.22 31.04 142.02 32.03 C 150.61 33.40 157.83 40.78 158.95 49.42 C 159.63 55.90 158.91 62.44 159.32 68.94 C 163.42 74.32 169.11 78.37 173.27 83.74 C 178.72 91.15 178.33 102.25 172.18 109.14 C 168.04 113.68 163.49 117.82 159.24 122.26 C 159.12 128.52 159.43 134.80 159.08 141.05 C 158.44 149.43 152.11 156.93 144.00 159.09 C 136.59 160.91 128.74 158.92 121.35 160.29 C 116.72 164.33 112.78 169.12 108.12 173.14 C 101.02 179.16 89.74 179.26 82.48 173.46 C 77.61 169.35 73.61 164.31 68.74 160.22 C 61.81 159.09 54.61 160.54 47.64 159.41 C 38.93 157.76 31.84 149.92 31.17 141.07 C 30.84 134.78 31.23 128.47 30.97 122.17 C 26.80 117.95 22.52 113.85 18.42 109.55 C 11.69 102.38 11.37 90.26 17.74 82.75 C 21.96 77.98 26.77 73.77 31.09 69.09 C 31.12 63.03 30.95 56.96 31.16 50.90 C 31.59 41.76 38.98 33.59 47.98 32.08 C 54.79 31.08 61.72 32.16 68.55 31.47 C 73.42 27.39 77.42 22.36 82.26 18.24 M 83.97 31.64 C 91.40 31.63 98.84 31.69 106.27 31.66 C 103.09 28.57 99.92 24.45 94.99 24.60 C 90.14 24.51 87.16 28.67 83.97 31.64 M 70.33 45.34 C 61.09 54.77 51.58 63.96 42.38 73.43 C 41.17 85.48 42.23 97.83 41.87 110.00 C 42.19 113.12 40.79 117.12 43.56 119.44 C 53.42 129.25 63.20 139.13 73.09 148.90 C 87.73 149.03 102.36 148.91 117.00 148.97 C 127.36 138.65 137.83 128.41 147.97 117.89 C 148.58 103.33 148.26 88.64 148.14 74.05 C 139.68 64.53 130.13 55.92 121.28 46.71 C 119.39 45.11 117.86 42.25 115.00 42.57 C 101.67 42.59 88.33 42.58 74.99 42.57 C 72.92 42.23 71.66 44.12 70.33 45.34 M 45.16 45.15 C 41.34 48.36 41.83 53.76 41.87 58.24 C 47.28 53.14 52.43 47.79 57.68 42.54 C 53.44 42.60 48.51 41.92 45.16 45.15 M 132.61 42.60 C 137.78 47.88 143.02 53.09 148.26 58.30 C 148.31 53.96 148.88 48.86 145.44 45.54 C 142.15 42.02 136.98 42.53 132.61 42.60 M 24.10 96.02 C 23.88 100.78 27.99 103.84 31.03 106.84 C 31.15 99.47 31.04 92.10 30.87 84.73 C 27.88 87.93 23.55 91.06 24.10 96.02 M 159.20 84.64 C 159.25 92.04 159.23 99.43 159.21 106.83 C 162.18 103.75 166.25 100.77 166.19 96.01 C 166.56 91.03 162.26 87.86 159.20 84.64 M 42.13 133.33 C 42.24 137.44 41.21 142.31 44.42 145.58 C 47.65 149.51 53.14 149.01 57.68 148.90 C 52.51 143.70 47.27 138.56 42.13 133.33 M 132.54 148.84 C 136.81 148.84 141.85 149.56 145.17 146.19 C 148.86 142.97 148.29 137.70 148.23 133.30 C 142.94 138.42 137.86 143.75 132.54 148.84 M 84.13 159.87 C 87.10 162.99 90.25 167.01 95.03 166.85 C 99.87 167.09 103.06 163.02 106.07 159.87 C 98.76 159.82 91.44 159.81 84.13 159.87 Z" />
<path fill="#f3ab48" opacity="1.00" d=" M 90.35 63.43 C 103.37 61.35 117.13 68.09 123.54 79.59 C 130.82 92.00 128.55 109.15 118.04 119.04 C 108.44 128.90 92.38 131.27 80.25 124.88 C 68.33 118.97 60.96 105.26 62.65 92.06 C 64.05 77.70 76.05 65.31 90.35 63.43 M 91.46 74.68 C 82.46 76.13 74.97 83.91 73.90 92.97 C 72.50 102.45 78.37 112.34 87.34 115.67 C 96.08 119.22 106.89 116.06 112.34 108.36 C 118.17 100.66 117.74 88.96 111.24 81.78 C 106.48 76.16 98.70 73.41 91.46 74.68 Z" />
</g>
</svg>
