<?xml version="1.0" encoding="UTF-8" ?>
<!DOCTYPE svg PUBLIC "-//W3C//DTD SVG 1.1//EN" "http://www.w3.org/Graphics/SVG/1.1/DTD/svg11.dtd">
<svg width="192pt" height="192pt" viewBox="0 0 192 192" version="1.1" xmlns="http://www.w3.org/2000/svg">
<g id="#3986d6ff">
<path fill="#3986d6" opacity="1.00" d=" M 83.86 14.78 C 92.81 13.12 101.95 13.94 111.00 13.79 C 113.68 13.89 117.25 13.54 118.74 16.35 C 120.79 19.24 118.58 23.76 115.04 23.91 C 104.95 24.69 94.77 23.49 84.69 24.57 C 82.95 37.15 82.80 50.00 80.42 62.44 C 76.00 71.53 64.45 68.06 56.42 68.71 C 69.63 88.80 82.86 108.88 96.31 128.81 C 110.10 109.15 123.10 88.90 136.24 68.80 C 128.44 68.08 117.74 71.40 112.86 63.23 C 110.46 56.46 111.07 49.01 109.90 41.97 C 109.80 38.48 108.05 33.84 111.48 31.38 C 114.49 29.04 119.42 31.27 119.57 35.11 C 120.53 42.84 121.20 50.61 121.95 58.37 C 129.14 58.77 136.37 58.06 143.54 58.74 C 148.09 59.22 151.38 64.67 148.84 68.74 C 142.84 78.25 136.48 87.54 130.23 96.90 C 136.52 96.12 148.07 97.84 145.00 106.85 C 131.11 128.82 116.35 150.29 102.17 172.09 C 98.31 178.90 87.50 179.46 83.17 172.84 C 71.36 154.94 59.34 137.14 47.79 119.06 C 44.81 113.94 52.96 108.74 56.37 113.61 C 68.51 131.41 80.11 149.60 92.19 167.46 C 106.02 147.94 118.82 127.64 132.01 107.66 C 129.05 107.65 126.08 107.67 123.12 107.70 C 117.21 116.61 111.43 125.60 105.38 134.40 C 101.10 140.40 91.10 140.09 87.14 133.90 C 72.88 112.47 58.72 90.98 44.56 69.48 C 41.36 65.40 44.46 59.21 49.47 58.76 C 56.61 58.14 63.81 58.79 70.97 58.40 C 71.98 47.25 73.07 36.10 74.26 24.96 C 74.72 19.91 78.92 15.65 83.86 14.78 Z" />
</g>
</svg>
