<?xml version="1.0" encoding="UTF-8" ?>
<!DOCTYPE svg PUBLIC "-//W3C//DTD SVG 1.1//EN" "http://www.w3.org/Graphics/SVG/1.1/DTD/svg11.dtd">
<svg width="192pt" height="192pt" viewBox="0 0 192 192" version="1.1" xmlns="http://www.w3.org/2000/svg">
<g id="#fe455cff">
<path fill="#fe455c" opacity="1.00" d=" M 90.65 17.46 C 92.09 12.44 100.04 12.65 101.31 17.68 C 101.96 23.37 101.39 29.15 101.60 34.88 C 113.73 36.17 125.40 41.00 134.86 48.72 C 139.20 44.78 142.88 40.09 147.55 36.55 C 152.25 34.05 157.80 40.27 154.64 44.61 C 151.12 49.01 146.66 52.55 142.93 56.77 C 150.66 66.25 155.37 77.91 156.81 90.03 C 162.50 90.12 168.25 89.68 173.92 90.25 C 179.00 91.56 179.09 99.76 173.91 100.98 C 168.22 101.76 162.41 101.08 156.67 101.35 C 155.53 113.52 150.53 125.09 142.94 134.62 C 146.85 138.88 151.44 142.55 154.97 147.14 C 157.48 151.64 151.81 157.26 147.36 154.59 C 142.79 151.07 139.13 146.49 134.87 142.60 C 125.42 150.36 113.72 155.16 101.57 156.44 C 101.39 162.26 102.04 168.16 101.24 173.93 C 99.66 178.83 91.82 178.56 90.58 173.57 C 89.95 167.87 90.62 162.10 90.23 156.38 C 78.11 155.23 66.57 150.28 57.08 142.71 C 52.61 146.37 49.18 151.19 44.51 154.58 C 40.02 157.26 34.40 151.50 36.98 147.04 C 40.55 142.53 45.07 138.84 48.98 134.62 C 41.34 125.09 36.44 113.48 35.18 101.31 C 29.49 101.11 23.74 101.73 18.09 101.00 C 12.80 99.82 12.86 91.46 18.08 90.23 C 23.77 89.68 29.51 90.20 35.23 89.99 C 36.42 77.84 41.33 66.18 49.02 56.72 C 45.20 52.60 40.87 48.96 37.28 44.65 C 34.10 40.28 39.65 33.97 44.42 36.61 C 49.03 40.16 52.72 44.80 57.02 48.73 C 66.48 40.99 78.17 36.14 90.33 34.90 C 90.57 29.09 89.93 23.22 90.65 17.46 M 88.42 46.55 C 62.82 49.91 43.04 75.67 46.59 101.30 C 48.63 121.19 63.91 138.87 83.33 143.67 C 99.75 148.14 118.28 143.34 130.39 131.37 C 144.29 118.37 149.32 97.01 142.79 79.14 C 135.39 57.17 111.35 42.64 88.42 46.55 Z" />
<path fill="#fe455c" opacity="1.00" d=" M 74.38 74.47 C 79.12 72.91 84.00 78.40 81.83 82.90 C 80.27 87.03 74.14 88.10 71.39 84.59 C 68.32 81.41 70.08 75.47 74.38 74.47 Z" />
<path fill="#fe455c" opacity="1.00" d=" M 114.38 74.41 C 119.02 73.05 123.66 78.34 121.65 82.76 C 120.24 86.96 114.15 88.11 111.28 84.76 C 107.97 81.53 109.83 75.27 114.38 74.41 Z" />
<path fill="#fe455c" opacity="1.00" d=" M 113.40 101.45 C 117.84 100.18 122.11 105.69 119.62 109.64 C 109.38 125.85 82.58 125.96 72.39 109.67 C 69.56 104.31 77.60 98.77 81.47 103.53 C 86.99 110.79 98.09 113.03 105.70 107.76 C 108.71 106.19 110.08 102.43 113.40 101.45 Z" />
</g>
</svg>
