<?xml version="1.0" encoding="UTF-8" ?>
<!DOCTYPE svg PUBLIC "-//W3C//DTD SVG 1.1//EN" "http://www.w3.org/Graphics/SVG/1.1/DTD/svg11.dtd">
<svg width="192pt" height="192pt" viewBox="0 0 192 192" version="1.1" xmlns="http://www.w3.org/2000/svg">
<g id="#1ab1ffff">
<path fill="#1ab1ff" opacity="1.00" d=" M 20.11 41.95 C 19.89 29.71 30.79 18.70 43.02 18.77 C 52.35 18.80 61.70 18.55 71.02 18.89 C 76.56 19.45 77.12 28.29 71.69 29.56 C 62.14 30.21 52.52 29.47 42.95 29.88 C 36.74 30.08 31.11 35.63 31.27 41.93 C 31.23 75.98 31.25 110.03 31.27 144.07 C 31.02 150.80 37.25 156.75 43.95 156.34 C 77.89 156.30 111.84 156.36 145.79 156.27 C 152.18 156.27 157.78 150.46 157.64 144.08 C 157.73 110.37 157.66 76.65 157.68 42.94 C 158.22 35.96 151.97 29.62 145.02 29.85 C 129.93 29.78 114.83 29.82 99.74 29.82 C 99.74 59.09 99.68 88.37 99.80 117.65 C 107.23 110.78 114.00 103.23 121.45 96.39 C 126.13 92.43 133.27 99.52 129.19 104.22 C 119.31 114.64 108.89 124.58 98.81 134.83 C 96.59 137.58 92.23 138.00 89.86 135.22 C 79.58 124.80 68.95 114.68 58.91 104.03 C 55.25 99.39 61.92 92.57 66.59 96.31 C 74.15 103.14 80.99 110.75 88.41 117.74 C 88.56 86.55 88.36 55.34 88.53 24.15 C 88.43 20.79 91.77 18.31 94.98 18.73 C 111.98 18.77 128.98 18.68 145.98 18.76 C 158.20 18.72 169.01 29.74 168.82 41.94 C 168.89 75.98 168.90 110.02 168.85 144.05 C 169.14 156.33 158.36 167.47 146.07 167.51 C 111.69 167.59 77.31 167.56 42.94 167.50 C 30.61 167.49 19.79 156.36 20.07 144.04 C 20.05 110.01 20.05 75.98 20.11 41.95 Z" />
</g>
</svg>
