<?xml version="1.0" encoding="UTF-8" ?>
<!DOCTYPE svg PUBLIC "-//W3C//DTD SVG 1.1//EN" "http://www.w3.org/Graphics/SVG/1.1/DTD/svg11.dtd">
<svg width="192pt" height="192pt" viewBox="0 0 192 192" version="1.1" xmlns="http://www.w3.org/2000/svg">
<g id="#46e371ff">
<path fill="#46e371" opacity="1.00" d=" M 11.20 48.14 C 14.05 37.80 24.24 30.02 34.98 30.09 C 45.03 29.79 54.69 36.50 58.29 45.82 C 60.78 51.89 60.04 58.59 60.14 65.00 C 60.07 70.89 60.66 76.99 58.64 82.64 C 55.18 92.67 44.67 100.19 33.95 99.10 C 28.30 98.25 28.28 88.88 34.11 88.41 C 39.98 88.34 45.45 85.22 47.97 79.82 C 40.62 79.86 32.92 80.97 25.93 78.08 C 14.36 73.64 7.75 60.01 11.20 48.14 M 23.61 47.51 C 18.41 54.88 22.88 66.31 31.64 68.30 C 37.37 69.19 43.22 68.53 49.00 68.73 C 48.44 61.05 51.17 51.89 45.39 45.60 C 39.69 39.07 28.07 40.06 23.61 47.51 Z" />
<path fill="#46e371" opacity="1.00" d=" M 65.32 30.39 C 68.89 29.04 72.95 32.22 72.56 36.00 C 72.53 49.21 72.81 62.44 72.42 75.64 C 71.62 81.56 61.77 80.99 61.65 75.02 C 61.42 62.35 61.68 49.67 61.63 36.99 C 61.40 34.31 62.49 31.20 65.32 30.39 Z" />
<path fill="#46e371" opacity="1.00" d=" M 74.45 50.35 C 76.54 38.56 88.07 29.35 100.06 30.15 C 112.14 30.38 123.08 40.81 123.65 52.92 C 123.86 60.30 123.74 67.68 123.73 75.06 C 123.76 88.30 111.29 100.35 97.97 99.15 C 93.99 98.69 92.01 93.55 94.40 90.44 C 96.26 87.71 99.93 88.39 102.72 87.61 C 106.86 86.75 109.77 83.35 111.75 79.84 C 104.02 79.95 95.79 81.02 88.56 77.60 C 78.43 73.01 72.28 61.30 74.45 50.35 M 85.20 55.00 C 85.01 61.67 90.46 67.99 97.13 68.63 C 102.35 69.02 107.58 68.71 112.80 68.81 C 112.77 63.84 112.97 58.87 112.75 53.91 C 112.53 46.93 105.96 40.95 99.00 41.22 C 91.64 40.93 84.85 47.60 85.20 55.00 Z" />
<path fill="#46e371" opacity="1.00" d=" M 125.88 48.99 C 128.50 37.85 139.60 29.49 151.05 30.15 C 163.16 30.34 174.18 40.78 174.73 52.93 C 174.92 61.88 174.88 70.84 174.80 79.79 C 165.54 79.78 156.25 80.04 147.00 79.67 C 132.73 78.28 122.01 62.87 125.88 48.99 M 136.28 55.00 C 136.04 61.94 142.03 68.46 148.98 68.72 C 153.94 68.99 158.90 68.81 163.86 68.86 C 163.77 63.61 164.11 58.34 163.70 53.10 C 162.99 46.45 156.70 40.97 150.01 41.20 C 142.67 40.98 136.02 47.66 136.28 55.00 Z" />
<path fill="#46e371" opacity="1.00" d=" M 83.26 92.25 C 87.07 90.24 91.80 93.75 91.22 97.95 C 91.17 117.32 91.45 136.71 91.08 156.06 C 90.48 162.01 80.70 161.89 80.29 155.92 C 80.00 137.29 80.28 118.63 80.13 99.98 C 80.01 97.14 80.19 93.52 83.26 92.25 Z" />
<path fill="#46e371" opacity="1.00" d=" M 106.00 114.94 C 106.32 101.57 119.48 89.57 132.88 91.83 C 138.73 93.75 136.60 103.26 130.41 102.53 C 121.30 102.59 115.54 111.96 117.07 120.41 C 122.21 120.63 127.40 120.08 132.51 120.73 C 137.43 121.83 137.72 129.68 132.92 131.20 C 127.71 131.98 122.40 131.39 117.15 131.52 C 116.86 139.93 117.61 148.40 116.78 156.77 C 115.50 162.31 106.57 161.55 106.06 155.96 C 105.71 142.30 105.84 128.60 106.00 114.94 Z" />
<path fill="#46e371" opacity="1.00" d=" M 96.30 111.29 C 99.65 109.45 104.31 112.08 104.26 115.95 C 104.52 127.96 104.19 139.99 104.38 152.00 C 104.39 154.74 104.51 158.29 101.71 159.81 C 98.27 162.08 93.00 159.20 93.36 155.02 C 93.26 142.32 93.34 129.62 93.32 116.93 C 93.15 114.66 94.14 112.26 96.30 111.29 Z" />
<path fill="#46e371" opacity="1.00" d=" M 136.28 138.09 C 133.78 120.74 153.31 105.83 169.44 112.48 C 174.32 114.43 182.75 118.85 179.18 125.22 C 171.76 133.44 163.49 140.89 155.90 148.96 C 160.78 150.46 165.65 149.19 170.10 147.06 C 175.87 145.26 179.33 154.35 174.03 157.06 C 159.37 167.16 136.96 155.84 136.28 138.09 M 147.91 140.95 C 154.05 135.00 160.12 128.98 166.06 122.84 C 155.15 118.42 143.65 130.07 147.91 140.95 Z" />
</g>
</svg>
