<?xml version="1.0" encoding="UTF-8" ?>
<!DOCTYPE svg PUBLIC "-//W3C//DTD SVG 1.1//EN" "http://www.w3.org/Graphics/SVG/1.1/DTD/svg11.dtd">
<svg width="192pt" height="192pt" viewBox="0 0 192 192" version="1.1" xmlns="http://www.w3.org/2000/svg">
<g id="#1bb4ffff">
<path fill="#1bb4ff" opacity="1.00" d=" M 93.38 15.44 C 98.82 12.46 99.66 20.32 101.24 23.70 C 111.40 50.62 135.47 68.93 147.11 94.95 C 151.66 105.59 154.00 117.39 152.31 128.94 C 149.58 149.13 134.36 166.74 115.16 173.21 C 100.34 178.16 83.42 177.80 69.39 170.59 C 54.47 162.83 42.28 148.73 39.24 131.91 C 35.62 113.98 41.84 95.55 51.71 80.65 C 64.52 62.07 80.88 45.61 89.49 24.41 C 90.96 21.51 91.25 17.94 93.38 15.44 M 55.56 98.60 C 48.66 111.10 48.63 126.72 54.51 139.60 C 59.91 151.19 71.17 159.11 83.12 162.86 C 99.51 167.95 117.91 161.66 129.69 149.70 C 142.46 136.26 144.02 114.66 135.43 98.60 C 124.58 77.51 106.78 60.97 95.60 40.06 C 84.12 60.84 66.56 77.55 55.56 98.60 Z" />
</g>
</svg>
