<?xml version="1.0" encoding="UTF-8" ?>
<!DOCTYPE svg PUBLIC "-//W3C//DTD SVG 1.1//EN" "http://www.w3.org/Graphics/SVG/1.1/DTD/svg11.dtd">
<svg width="192pt" height="192pt" viewBox="0 0 192 192" version="1.1" xmlns="http://www.w3.org/2000/svg">
<g id="#2b99eaff">
<path fill="#2b99ea" opacity="1.00" d=" M 129.39 12.47 C 133.41 10.82 137.96 15.26 136.36 19.33 C 130.99 34.84 134.20 51.68 139.14 66.86 C 146.56 88.06 158.78 108.75 157.37 131.96 C 156.23 146.84 148.45 161.49 136.26 170.20 C 131.19 174.30 124.22 166.31 128.90 161.89 C 141.20 152.91 148.26 137.07 145.90 121.91 C 143.90 105.84 136.35 91.28 130.73 76.30 C 124.86 61.20 121.55 44.91 122.71 28.67 C 111.04 35.04 100.66 43.41 89.98 51.25 C 109.23 67.45 126.29 88.07 132.14 113.06 C 137.13 134.15 127.45 157.69 108.93 169.00 C 93.87 178.64 73.77 179.46 57.92 171.22 C 43.30 163.85 32.60 149.14 30.32 132.90 C 25.87 98.57 53.68 67.40 43.89 33.01 C 42.61 27.94 49.19 23.74 53.40 26.65 C 62.83 32.16 72.46 37.42 81.21 43.99 C 96.54 32.43 111.97 20.74 129.39 12.47 M 57.23 41.92 C 58.60 60.51 52.34 78.42 46.94 95.91 C 42.84 108.87 38.83 122.89 42.59 136.42 C 47.50 154.11 65.54 167.01 83.93 165.43 C 103.91 164.62 121.21 147.01 121.96 127.07 C 122.47 106.89 110.64 88.82 97.79 74.21 C 85.60 61.93 72.56 50.16 57.23 41.92 Z" />
</g>
</svg>
