<?xml version="1.0" encoding="UTF-8" ?>
<!DOCTYPE svg PUBLIC "-//W3C//DTD SVG 1.1//EN" "http://www.w3.org/Graphics/SVG/1.1/DTD/svg11.dtd">
<svg width="192pt" height="192pt" viewBox="0 0 192 192" version="1.1" xmlns="http://www.w3.org/2000/svg">
<g id="#6d99b6ff">
<path fill="#6d99b6" opacity="1.00" d=" M 48.30 14.31 C 78.11 12.97 108.11 14.13 137.99 13.72 C 147.70 12.87 156.95 21.10 156.75 30.93 C 156.81 73.97 156.80 117.02 156.75 160.06 C 157.05 169.23 149.12 177.37 139.97 177.43 C 110.66 177.51 81.34 177.62 52.02 177.49 C 42.81 177.55 34.92 169.23 35.10 160.09 C 34.99 117.37 35.04 74.65 35.07 31.94 C 34.78 23.93 40.27 15.94 48.30 14.31 M 49.45 25.52 C 46.70 26.91 45.81 30.10 45.90 32.96 C 46.50 75.33 45.68 117.72 46.12 160.09 C 45.76 163.93 49.30 166.96 53.01 166.59 C 81.67 166.61 110.34 166.64 139.00 166.58 C 143.17 166.98 146.37 163.09 145.86 159.07 C 145.86 116.69 145.90 74.30 145.84 31.92 C 146.27 27.98 143.06 24.37 139.03 24.66 C 111.02 24.47 83.01 24.74 55.00 24.52 C 53.12 24.57 51.13 24.54 49.45 25.52 Z" />
<path fill="#6d99b6" opacity="1.00" d=" M 76.78 32.83 C 81.45 29.21 86.28 34.58 85.78 39.40 C 92.27 39.86 98.87 40.04 105.35 39.43 C 105.94 35.30 108.65 29.84 113.79 32.17 C 120.24 36.46 117.60 50.30 109.02 50.48 C 100.35 50.61 91.66 50.58 82.98 50.50 C 74.42 50.50 72.20 38.24 76.78 32.83 Z" />
<path fill="#6d99b6" opacity="1.00" d=" M 91.30 68.33 C 104.35 65.65 118.40 74.34 122.08 87.05 C 124.38 97.75 120.87 110.24 111.66 116.71 C 102.21 123.52 88.31 123.41 79.38 115.73 C 70.24 109.01 68.07 96.31 70.84 85.87 C 73.84 76.93 81.99 69.91 91.30 68.33 M 80.88 89.43 C 91.02 89.56 101.16 89.54 111.29 89.43 C 108.48 82.33 100.63 77.39 92.99 79.15 C 87.39 80.07 83.24 84.51 80.88 89.43 M 81.61 100.75 C 85.83 113.96 106.44 113.51 111.07 100.76 C 101.25 100.69 91.43 100.65 81.61 100.75 Z" />
<path fill="#6d99b6" opacity="1.00" d=" M 81.03 155.20 C 71.02 155.31 72.92 136.86 82.15 136.49 C 91.09 136.20 100.06 136.30 109.00 136.44 C 117.40 136.72 119.91 149.43 114.48 154.38 C 109.56 157.53 105.65 151.86 105.73 147.36 C 99.27 147.33 92.79 146.96 86.35 147.49 C 85.13 150.39 85.09 154.77 81.03 155.20 Z" />
</g>
</svg>
