<?xml version="1.0" encoding="UTF-8" ?>
<!DOCTYPE svg PUBLIC "-//W3C//DTD SVG 1.1//EN" "http://www.w3.org/Graphics/SVG/1.1/DTD/svg11.dtd">
<svg width="192pt" height="192pt" viewBox="0 0 192 192" version="1.1" xmlns="http://www.w3.org/2000/svg">
<g id="#629bbfff">
<path fill="#629bbf" opacity="1.00" d=" M 61.41 20.49 C 85.22 9.06 114.64 10.40 137.28 24.03 C 139.94 21.75 141.59 13.93 145.94 17.05 C 149.14 24.06 151.50 31.43 154.42 38.57 C 155.15 40.16 155.85 42.84 153.63 43.59 C 144.86 44.26 135.97 44.40 127.20 43.92 C 123.94 40.35 129.76 36.81 130.93 33.39 C 115.59 24.76 97.06 21.87 79.89 25.97 C 58.77 30.73 40.54 45.97 31.66 65.66 C 29.35 71.77 19.15 68.46 21.09 62.08 C 28.71 43.85 43.59 28.91 61.41 20.49 Z" />
<path fill="#629bbf" opacity="1.00" d=" M 19.21 73.27 C 23.85 70.98 28.72 76.40 26.74 80.94 C 19.64 112.52 37.39 147.10 66.95 160.09 C 86.48 168.94 110.11 168.18 129.00 158.00 C 150.75 146.51 166.05 123.12 166.48 98.35 C 166.44 96.61 164.81 95.09 163.04 95.29 C 134.04 95.08 105.02 95.54 76.03 95.07 C 69.59 94.13 70.39 83.66 76.96 83.95 C 106.98 83.78 137.01 83.88 167.03 83.90 C 171.88 83.72 176.57 87.26 177.56 92.04 C 180.09 128.00 155.01 163.26 120.67 173.69 C 90.23 183.78 54.57 173.57 34.00 149.01 C 17.11 129.66 10.26 102.11 16.10 77.11 C 16.44 75.41 17.64 73.97 19.21 73.27 Z" />
</g>
</svg>
