<?xml version="1.0" encoding="UTF-8" ?>
<!DOCTYPE svg PUBLIC "-//W3C//DTD SVG 1.1//EN" "http://www.w3.org/Graphics/SVG/1.1/DTD/svg11.dtd">
<svg width="192pt" height="192pt" viewBox="0 0 192 192" version="1.1" xmlns="http://www.w3.org/2000/svg">
<g id="#c99b44ff">
<path fill="#c99b44" opacity="1.00" d=" M 14.37 35.99 C 14.16 27.13 25.43 21.18 32.62 26.36 C 53.78 41.57 74.70 57.15 95.86 72.37 C 116.87 56.89 137.80 41.28 158.84 25.83 C 165.92 20.35 177.63 26.00 177.53 35.03 C 177.63 69.34 177.56 103.67 177.59 137.99 C 177.72 145.88 175.06 154.71 167.90 158.95 C 159.50 164.10 149.27 161.72 139.97 162.30 C 136.43 162.79 131.88 161.17 131.70 157.04 C 131.47 139.29 131.80 121.53 131.55 103.78 C 120.66 111.43 110.16 119.63 99.39 127.45 C 97.45 129.02 94.44 129.12 92.47 127.55 C 81.72 119.69 71.20 111.50 60.36 103.75 C 60.02 112.12 60.86 120.58 59.94 128.88 C 58.53 134.32 49.63 133.53 49.34 127.90 C 49.12 115.92 49.20 103.93 49.31 91.95 C 49.34 87.78 54.79 85.71 57.94 88.11 C 70.66 97.39 83.15 107.00 95.91 116.23 C 108.43 106.97 120.94 97.67 133.44 88.39 C 136.57 85.56 142.57 87.51 142.61 91.97 C 142.76 111.62 142.64 131.27 142.68 150.92 C 148.48 150.74 154.47 151.72 160.12 150.12 C 165.13 148.52 166.24 142.56 166.13 137.97 C 166.00 103.91 166.52 69.83 165.93 35.77 C 162.93 36.39 160.71 38.58 158.32 40.31 C 138.75 54.77 119.22 69.27 99.64 83.70 C 97.74 85.25 94.94 85.77 92.88 84.21 C 70.40 68.49 48.87 51.27 26.05 36.11 C 25.12 70.37 25.96 104.72 25.68 139.02 C 25.51 143.19 26.06 148.69 30.65 150.32 C 36.47 152.04 42.77 149.99 48.63 151.42 C 53.72 153.41 52.55 161.84 47.02 162.17 C 40.87 162.19 34.57 162.88 28.50 161.62 C 19.82 159.51 14.20 150.76 14.34 142.07 C 14.28 106.71 14.30 71.35 14.37 35.99 Z" />
</g>
</svg>
