<?xml version="1.0" encoding="UTF-8" ?>
<!DOCTYPE svg PUBLIC "-//W3C//DTD SVG 1.1//EN" "http://www.w3.org/Graphics/SVG/1.1/DTD/svg11.dtd">
<svg width="192pt" height="192pt" viewBox="0 0 192 192" version="1.1" xmlns="http://www.w3.org/2000/svg">
<g id="#ff3661ff">
<path fill="#ff3661" opacity="1.00" d=" M 26.28 36.32 C 27.81 35.85 29.42 35.77 31.01 35.73 C 74.67 35.74 118.33 35.73 161.98 35.73 C 170.27 35.31 177.91 42.66 177.81 50.94 C 177.88 80.65 177.88 110.36 177.82 140.06 C 178.06 148.47 170.44 155.89 162.06 155.54 C 118.36 155.57 74.65 155.55 30.95 155.53 C 22.54 155.93 14.85 148.51 15.08 140.07 C 14.98 110.70 15.08 81.33 15.04 51.97 C 14.67 44.97 19.59 38.25 26.28 36.32 M 38.80 48.13 C 56.43 63.21 74.19 78.15 91.91 93.14 C 95.45 96.30 101.21 95.76 104.45 92.42 C 121.12 77.62 137.99 63.05 154.55 48.13 C 115.97 48.13 77.38 48.13 38.80 48.13 M 27.35 54.77 C 27.27 81.27 27.35 107.76 27.31 134.25 C 38.27 123.91 48.47 112.75 59.47 102.47 C 64.80 98.46 71.99 106.53 67.45 111.41 C 57.12 122.01 46.61 132.45 36.11 142.88 C 76.30 143.41 116.51 143.06 156.70 143.04 C 146.50 132.33 135.78 122.12 125.60 111.40 C 121.09 106.55 128.16 98.39 133.56 102.47 C 144.51 112.72 154.64 123.86 165.54 134.19 C 165.59 107.85 165.57 81.50 165.55 55.16 C 147.35 71.10 129.26 87.19 111.03 103.09 C 103.81 109.65 92.13 109.63 84.81 103.25 C 65.62 87.14 46.60 70.82 27.35 54.77 Z" />
</g>
</svg>
