<?xml version="1.0" encoding="UTF-8" ?>
<!DOCTYPE svg PUBLIC "-//W3C//DTD SVG 1.1//EN" "http://www.w3.org/Graphics/SVG/1.1/DTD/svg11.dtd">
<svg width="192pt" height="192pt" viewBox="0 0 192 192" version="1.1" xmlns="http://www.w3.org/2000/svg">
<g id="#8492a2ff">
<path fill="#8492a2" opacity="1.00" d=" M 26.27 36.31 C 27.80 35.83 29.42 35.77 31.01 35.72 C 74.67 35.74 118.33 35.73 161.99 35.73 C 170.26 35.32 177.91 42.66 177.81 50.94 C 177.87 80.64 177.86 110.35 177.81 140.05 C 178.08 148.46 170.44 155.89 162.06 155.54 C 118.36 155.57 74.65 155.56 30.95 155.54 C 22.53 155.94 14.84 148.51 15.07 140.06 C 14.97 110.70 15.07 81.34 15.02 51.97 C 14.65 44.97 19.58 38.26 26.27 36.31 M 38.82 48.14 C 56.45 63.21 74.20 78.14 91.90 93.13 C 95.44 96.30 101.22 95.76 104.46 92.41 C 121.11 77.61 137.99 63.08 154.52 48.14 C 115.95 48.14 77.39 48.14 38.82 48.14 M 27.35 54.83 C 27.29 81.29 27.36 107.76 27.32 134.23 C 38.29 123.91 48.47 112.75 59.46 102.46 C 64.49 98.72 71.49 105.70 67.93 110.81 C 57.71 121.78 46.64 131.98 36.37 142.92 C 76.47 143.36 116.60 143.11 156.71 143.05 C 146.51 132.33 135.78 122.12 125.59 111.40 C 121.10 106.54 128.17 98.40 133.56 102.47 C 144.51 112.74 154.65 123.88 165.54 134.20 C 165.59 107.86 165.58 81.51 165.55 55.17 C 149.33 69.40 133.17 83.68 116.97 97.93 C 112.80 101.61 108.70 105.83 103.17 107.34 C 96.62 109.40 89.32 107.18 84.23 102.79 C 65.25 86.82 46.43 70.67 27.35 54.83 Z" />
</g>
</svg>
