<?xml version="1.0" encoding="UTF-8" ?>
<!DOCTYPE svg PUBLIC "-//W3C//DTD SVG 1.1//EN" "http://www.w3.org/Graphics/SVG/1.1/DTD/svg11.dtd">
<svg width="192pt" height="192pt" viewBox="0 0 192 192" version="1.1" xmlns="http://www.w3.org/2000/svg">
<g id="#f6af2aff">
<path fill="#f6af2a" opacity="1.00" d=" M 14.41 35.99 C 14.19 27.17 25.41 21.22 32.58 26.38 C 53.75 41.62 74.71 57.16 95.85 72.44 C 116.86 56.92 137.82 41.33 158.87 25.86 C 165.92 20.38 177.58 26.04 177.48 35.02 C 177.58 69.34 177.51 103.67 177.55 137.99 C 177.71 146.10 174.78 155.18 167.26 159.27 C 158.61 164.03 148.39 161.66 138.99 162.27 C 135.63 162.81 131.69 160.73 131.64 157.01 C 131.40 139.30 131.70 121.57 131.50 103.85 C 120.72 111.62 110.15 119.69 99.43 127.54 C 97.21 129.37 93.91 129.06 91.81 127.22 C 81.32 119.44 70.92 111.54 60.38 103.83 C 60.11 112.18 60.84 120.60 60.02 128.91 C 58.63 134.45 49.65 133.61 49.21 127.95 C 48.86 116.29 49.13 104.59 49.09 92.91 C 48.53 88.31 54.41 85.06 57.99 88.01 C 70.68 97.30 83.19 106.83 95.88 116.12 C 108.60 106.75 121.21 97.24 133.97 87.92 C 137.20 85.34 142.65 87.80 142.73 91.96 C 142.93 111.61 142.75 131.27 142.83 150.93 C 148.58 150.75 154.51 151.70 160.13 150.17 C 165.16 148.55 166.25 142.58 166.20 137.98 C 166.22 104.98 166.25 71.98 166.23 38.98 C 166.30 37.60 165.95 36.34 165.18 35.19 C 143.30 51.32 121.49 67.53 99.61 83.66 C 97.70 85.20 94.99 85.69 92.91 84.16 C 70.39 68.46 48.87 51.15 25.99 36.06 C 25.09 70.33 25.90 104.70 25.62 139.02 C 25.44 143.20 26.03 148.72 30.62 150.35 C 36.46 152.02 42.76 149.97 48.62 151.47 C 53.64 153.45 52.48 161.77 47.04 162.13 C 40.16 162.02 32.90 163.31 26.31 160.81 C 18.38 157.84 14.05 149.21 14.36 141.05 C 14.37 106.03 14.33 71.01 14.41 35.99 Z" />
</g>
</svg>
