<?xml version="1.0" encoding="UTF-8" ?>
<!DOCTYPE svg PUBLIC "-//W3C//DTD SVG 1.1//EN" "http://www.w3.org/Graphics/SVG/1.1/DTD/svg11.dtd">
<svg width="192pt" height="192pt" viewBox="0 0 192 192" version="1.1" xmlns="http://www.w3.org/2000/svg">
<g id="#f06b88ff">
<path fill="#f06b88" opacity="1.00" d=" M 26.26 36.28 C 27.79 35.77 29.42 35.75 31.02 35.72 C 74.67 35.72 118.33 35.71 161.99 35.70 C 170.23 35.28 177.89 42.69 177.78 50.94 C 177.84 80.64 177.83 110.35 177.79 140.06 C 178.04 148.44 170.40 155.90 162.06 155.58 C 118.36 155.62 74.65 155.60 30.94 155.55 C 22.57 155.94 14.89 148.48 15.12 140.08 C 15.06 110.36 15.10 80.64 15.11 50.92 C 15.09 44.26 20.02 38.28 26.26 36.28 M 38.73 48.12 C 56.41 63.18 74.14 78.17 91.88 93.16 C 95.20 96.14 100.69 95.92 103.92 92.91 C 120.85 78.00 137.79 63.09 154.69 48.14 C 116.04 48.10 77.38 48.13 38.73 48.12 M 27.35 54.56 C 27.24 81.20 27.31 107.84 27.32 134.49 C 38.08 123.85 48.56 112.91 59.48 102.45 C 64.58 98.78 71.44 105.79 67.89 110.90 C 57.58 121.79 46.69 132.14 36.18 142.86 C 76.36 143.24 116.54 143.02 156.72 142.91 C 146.34 132.41 135.83 122.02 125.56 111.41 C 121.22 106.50 128.11 98.49 133.56 102.45 C 144.42 112.88 154.82 123.81 165.54 134.40 C 165.52 107.96 165.64 81.52 165.54 55.07 C 147.76 70.80 129.92 86.46 112.11 102.15 C 107.20 106.65 100.17 109.34 93.56 107.53 C 87.11 106.27 82.63 101.19 77.74 97.26 C 60.96 83.00 44.07 68.88 27.35 54.56 Z" />
</g>
</svg>
