<?xml version="1.0" encoding="UTF-8" ?>
<!DOCTYPE svg PUBLIC "-//W3C//DTD SVG 1.1//EN" "http://www.w3.org/Graphics/SVG/1.1/DTD/svg11.dtd">
<svg width="192pt" height="192pt" viewBox="0 0 192 192" version="1.1" xmlns="http://www.w3.org/2000/svg">
<g id="#ff8b1fff">
<path fill="#ff8b1f" opacity="1.00" d=" M 84.41 14.52 C 117.62 9.30 152.64 27.16 168.15 56.92 C 184.38 86.27 179.83 125.37 157.13 150.10 C 135.74 174.77 98.92 184.15 68.32 172.75 C 47.49 165.38 30.03 149.15 21.11 128.94 C 9.36 103.07 12.52 71.18 29.19 48.16 C 42.00 30.05 62.41 17.52 84.41 14.52 M 87.37 25.46 C 63.53 28.09 41.88 44.02 31.86 65.75 C 18.08 94.16 26.54 131.09 51.46 150.54 C 77.40 172.46 119.16 171.19 143.69 147.69 C 167.56 126.64 173.65 88.83 157.74 61.30 C 144.34 36.53 115.31 21.72 87.37 25.46 Z" />
<path fill="#ff8b1f" opacity="1.00" d=" M 55.32 70.29 C 60.96 67.06 67.75 67.76 74.00 67.66 C 79.14 67.83 85.21 67.98 88.93 72.08 C 92.09 76.58 92.49 82.53 92.03 87.84 C 88.42 90.30 78.97 90.72 80.27 84.03 C 80.85 76.17 71.17 77.24 66.01 77.93 C 61.72 78.53 61.80 83.70 61.77 87.00 C 62.06 94.95 61.20 102.99 62.29 110.89 C 63.71 116.34 70.86 114.58 75.04 114.65 C 81.22 114.63 80.45 107.10 80.38 102.81 C 77.94 102.56 75.10 103.40 72.98 101.85 C 71.90 98.62 72.03 92.81 76.95 93.96 C 81.96 95.04 93.12 90.55 92.28 98.99 C 92.13 105.61 92.93 112.68 89.95 118.83 C 87.07 124.04 80.35 124.55 75.03 124.70 C 68.55 124.58 61.57 125.48 55.63 122.31 C 51.15 119.61 50.38 113.84 50.10 109.07 C 49.89 100.70 50.00 92.32 50.07 83.95 C 50.33 79.11 50.91 73.22 55.32 70.29 Z" />
<path fill="#ff8b1f" opacity="1.00" d=" M 109.29 68.37 C 117.08 67.37 125.26 66.99 132.92 68.96 C 138.30 70.23 140.54 75.93 140.89 80.91 C 141.53 89.58 141.10 98.29 141.19 106.97 C 140.94 112.20 140.71 118.64 136.04 122.00 C 129.67 125.71 121.96 124.55 114.93 124.66 C 109.24 124.63 101.97 123.03 100.32 116.68 C 97.72 106.70 99.45 96.21 98.96 86.01 C 98.57 78.86 100.67 69.20 109.29 68.37 M 113.37 78.48 C 110.22 80.42 110.94 84.83 110.72 88.00 C 111.02 95.62 110.18 103.32 111.21 110.89 C 111.90 115.00 116.82 114.80 120.00 114.83 C 123.53 114.99 128.94 114.70 129.07 109.99 C 129.56 101.01 129.43 91.96 129.15 82.97 C 128.51 75.50 118.40 77.31 113.37 78.48 Z" />
</g>
</svg>
