<?xml version="1.0" encoding="UTF-8" ?>
<!DOCTYPE svg PUBLIC "-//W3C//DTD SVG 1.1//EN" "http://www.w3.org/Graphics/SVG/1.1/DTD/svg11.dtd">
<svg width="192pt" height="192pt" viewBox="0 0 192 192" version="1.1" xmlns="http://www.w3.org/2000/svg">
<g id="#7097a7ff">
<path fill="#7097a7" opacity="1.00" d=" M 73.44 20.45 C 85.50 15.31 100.26 15.54 111.66 22.35 C 129.97 33.94 139.42 59.15 129.97 79.33 C 147.88 77.76 166.08 87.95 173.56 104.39 C 177.74 113.11 178.95 123.37 176.77 132.77 C 174.51 138.60 164.83 136.24 165.46 130.02 C 166.57 121.81 165.61 113.08 160.96 106.03 C 153.91 94.16 138.49 88.64 125.37 92.43 C 112.46 96.02 102.45 108.43 102.40 121.95 C 101.87 133.50 108.27 144.99 118.33 150.67 C 128.02 156.52 140.68 156.21 150.39 150.55 C 156.22 146.92 162.57 155.98 157.24 160.21 C 145.76 167.43 130.58 169.64 117.97 164.03 C 110.20 160.55 104.10 154.37 98.66 147.98 C 88.76 171.57 56.40 181.13 35.37 166.59 C 32.55 163.85 33.59 158.68 37.14 157.08 C 40.23 155.40 43.31 157.68 46.13 158.82 C 56.85 163.61 70.22 161.84 79.19 154.22 C 89.39 145.78 93.59 130.75 88.64 118.36 C 84.15 105.99 71.16 97.34 57.99 98.11 C 41.30 97.92 26.42 113.34 27.20 130.02 C 26.96 133.63 29.06 138.10 26.02 141.01 C 22.95 144.41 16.57 142.56 15.91 137.97 C 13.54 124.53 16.76 109.50 26.75 99.75 C 34.42 92.60 44.38 88.13 54.70 86.51 C 46.06 74.37 43.82 57.63 49.87 43.93 C 53.48 38.59 62.53 43.33 60.41 49.33 C 55.24 63.31 60.62 80.70 73.85 88.10 C 86.44 95.97 104.27 93.33 113.92 82.01 C 123.66 71.28 124.50 53.82 115.75 42.24 C 107.80 30.71 91.91 26.07 78.90 31.09 C 72.55 33.94 67.55 23.88 73.44 20.45 Z" />
</g>
</svg>
