<?xml version="1.0" encoding="UTF-8" ?>
<!DOCTYPE svg PUBLIC "-//W3C//DTD SVG 1.1//EN" "http://www.w3.org/Graphics/SVG/1.1/DTD/svg11.dtd">
<svg width="192pt" height="192pt" viewBox="0 0 192 192" version="1.1" xmlns="http://www.w3.org/2000/svg">
<g id="#ae8840ff">
<path fill="#ae8840" opacity="1.00" d=" M 38.36 21.46 C 41.51 20.68 44.78 20.69 48.00 20.68 C 80.99 20.74 113.99 20.63 146.98 20.72 C 159.12 20.42 170.23 30.90 170.62 43.03 C 170.63 50.55 171.00 58.11 170.44 65.61 C 169.21 70.90 160.81 70.84 159.56 65.58 C 158.64 57.77 159.78 49.84 159.01 42.01 C 158.07 36.41 152.70 32.12 147.07 32.15 C 113.02 32.12 78.98 32.16 44.93 32.13 C 39.06 31.75 33.21 36.13 32.28 41.99 C 31.73 49.62 32.63 57.32 31.86 64.93 C 31.16 70.48 22.51 71.24 20.94 65.86 C 20.18 58.63 20.77 51.29 20.63 44.02 C 20.57 33.62 28.29 23.91 38.36 21.46 Z" />
<path fill="#ae8840" opacity="1.00" d=" M 22.88 75.95 C 32.50 70.41 48.34 75.25 48.83 87.64 C 45.92 87.72 43.02 87.76 40.12 87.74 C 38.64 83.05 33.07 80.31 28.61 82.76 C 22.40 86.01 22.47 94.68 24.53 100.44 C 27.70 106.90 37.85 106.43 40.31 99.51 C 37.62 99.39 34.93 99.32 32.24 99.22 C 32.22 96.56 32.22 93.91 32.23 91.25 C 37.67 91.25 43.12 91.21 48.57 91.29 C 48.71 98.28 48.59 105.27 48.66 112.26 C 46.69 112.35 44.72 112.40 42.75 112.46 C 42.23 111.53 41.71 110.60 41.20 109.68 C 33.86 115.88 21.49 113.73 16.58 105.49 C 11.00 96.13 12.85 81.57 22.88 75.95 Z" />
<path fill="#ae8840" opacity="1.00" d=" M 128.81 74.71 C 131.80 74.59 134.79 74.58 137.78 74.68 C 137.83 87.31 137.84 99.94 137.78 112.57 C 134.60 112.55 131.26 113.08 128.28 111.72 C 120.28 117.16 110.22 109.71 109.78 100.92 C 108.75 110.24 98.84 115.88 90.20 112.86 C 76.68 109.23 77.41 86.00 91.39 83.59 C 100.10 81.23 108.83 87.45 109.91 96.31 C 110.05 87.00 120.42 79.68 128.77 85.13 C 128.71 81.66 128.77 78.18 128.81 74.71 M 94.33 91.32 C 87.90 92.10 88.00 104.60 94.31 105.57 C 102.60 106.77 102.65 90.05 94.33 91.32 M 122.00 105.28 C 131.54 108.13 131.41 89.22 121.88 91.49 C 118.51 95.12 117.98 101.94 122.00 105.28 Z" />
<path fill="#ae8840" opacity="1.00" d=" M 141.24 75.26 C 148.44 75.48 155.81 74.49 162.88 76.08 C 170.86 78.10 171.80 89.86 165.35 94.23 C 166.50 96.04 167.59 97.89 168.64 99.76 C 170.25 95.85 173.94 93.70 178.14 94.89 C 176.21 98.58 173.38 101.70 171.25 105.28 C 173.22 109.85 175.48 114.28 178.23 118.43 C 176.23 118.51 174.24 118.58 172.25 118.67 C 170.60 116.05 169.16 113.31 167.90 110.49 C 166.19 113.23 164.42 115.94 162.69 118.67 C 160.68 118.58 158.67 118.47 156.67 118.32 C 159.75 114.08 162.56 109.66 165.14 105.11 C 163.88 102.58 162.53 100.10 161.17 97.63 C 156.45 96.05 151.43 96.85 146.56 96.69 C 146.53 102.04 146.59 107.39 146.51 112.74 C 144.75 112.71 142.98 112.70 141.22 112.70 C 141.17 100.22 141.15 87.74 141.24 75.26 M 146.54 80.25 C 146.56 84.03 146.54 87.81 146.53 91.59 C 152.64 91.20 162.25 94.06 164.46 86.05 C 163.00 77.45 152.58 80.94 146.54 80.25 Z" />
<path fill="#ae8840" opacity="1.00" d=" M 61.39 83.60 C 65.91 82.91 71.02 83.26 74.61 86.39 C 81.54 92.61 81.33 105.16 73.99 110.99 C 68.92 114.33 61.85 114.39 56.65 111.30 C 46.75 104.63 48.94 85.83 61.39 83.60 M 64.26 91.32 C 59.19 91.78 58.86 98.79 60.36 102.50 C 61.54 106.66 68.31 106.74 69.61 102.65 C 71.47 98.50 70.34 90.32 64.26 91.32 Z" />
<path fill="#ae8840" opacity="1.00" d=" M 25.35 121.41 C 28.68 120.78 31.88 123.65 32.00 126.97 C 32.38 133.99 31.97 141.04 32.15 148.07 C 32.23 154.21 37.98 159.45 44.05 159.36 C 78.34 159.40 112.64 159.37 146.93 159.34 C 152.77 159.54 158.30 154.84 159.04 149.05 C 159.69 141.19 158.67 133.24 159.54 125.41 C 160.73 120.01 169.22 120.08 170.43 125.42 C 171.05 132.93 170.60 140.52 170.66 148.06 C 170.51 160.37 159.36 171.06 147.07 170.83 C 112.69 170.85 78.31 170.85 43.93 170.80 C 32.11 170.89 21.30 160.81 20.70 148.99 C 20.50 141.65 20.56 134.31 20.65 126.97 C 20.50 124.24 22.68 121.77 25.35 121.41 Z" />
</g>
</svg>
