<?xml version="1.0" encoding="UTF-8" ?>
<!DOCTYPE svg PUBLIC "-//W3C//DTD SVG 1.1//EN" "http://www.w3.org/Graphics/SVG/1.1/DTD/svg11.dtd">
<svg width="192pt" height="192pt" viewBox="0 0 192 192" version="1.1" xmlns="http://www.w3.org/2000/svg">
<g id="#7abd89ff">
<path fill="#7abd89" opacity="1.00" d=" M 94.36 17.47 C 110.32 13.70 127.88 24.17 132.13 39.99 C 134.55 48.32 133.27 57.50 128.99 65.01 C 111.70 95.03 94.17 124.92 76.94 154.98 C 73.28 162.03 67.22 167.81 59.88 170.90 C 48.69 175.66 34.99 173.08 25.97 165.01 C 15.18 155.59 11.96 138.58 19.02 126.01 C 37.38 95.26 54.85 63.97 73.15 33.17 C 77.58 25.23 85.40 19.25 94.36 17.47 M 83.45 37.44 C 69.12 61.20 55.63 85.46 41.53 109.36 C 56.76 106.83 73.47 115.75 78.03 130.88 C 91.91 107.09 105.69 83.24 119.47 59.40 C 124.78 50.55 122.38 38.15 113.99 32.07 C 104.78 24.66 89.39 27.01 83.45 37.44 M 42.35 120.44 C 32.98 122.89 26.05 132.27 26.65 141.96 C 26.93 151.10 33.84 159.47 42.81 161.38 C 56.05 165.22 70.42 152.61 68.60 138.99 C 67.86 126.35 54.39 117.26 42.35 120.44 Z" />
<path fill="#7abd89" opacity="1.00" d=" M 141.33 84.41 C 156.18 81.68 171.90 93.04 173.56 108.10 C 174.81 115.54 172.33 123.06 168.23 129.23 C 161.58 140.01 155.65 151.22 149.00 162.01 C 142.03 172.77 127.25 177.57 115.35 172.67 C 100.98 167.32 92.90 148.96 100.09 135.05 C 106.93 122.41 114.61 110.23 121.76 97.76 C 125.76 90.57 133.21 85.59 141.33 84.41 M 141.31 96.39 C 137.02 97.45 133.50 100.56 131.48 104.43 C 124.62 116.48 117.13 128.19 110.61 140.42 C 104.99 151.72 117.10 165.94 129.17 162.34 C 137.75 160.63 141.18 151.89 145.17 145.20 C 150.24 136.00 155.99 127.16 160.86 117.87 C 166.30 106.10 153.45 92.28 141.31 96.39 Z" />
</g>
</svg>
