<?xml version="1.0" encoding="UTF-8" ?>
<!DOCTYPE svg PUBLIC "-//W3C//DTD SVG 1.1//EN" "http://www.w3.org/Graphics/SVG/1.1/DTD/svg11.dtd">
<svg width="192pt" height="192pt" viewBox="0 0 192 192" version="1.1" xmlns="http://www.w3.org/2000/svg">
<g id="#18aeffff">
<path fill="#18aeff" opacity="1.00" d=" M 25.10 35.93 C 24.80 25.66 36.64 17.59 46.05 21.89 C 61.22 29.61 75.99 38.14 91.12 45.92 C 94.80 46.54 100.69 45.05 101.76 50.10 C 102.15 60.76 101.73 71.45 101.94 82.13 C 104.27 80.42 106.31 78.10 109.14 77.24 C 113.08 76.53 115.74 80.16 118.62 82.20 C 118.80 71.49 118.33 60.75 118.84 50.05 C 120.50 44.32 127.62 46.64 132.01 46.18 C 139.31 45.36 146.72 50.76 147.66 58.13 C 148.17 64.32 147.48 70.56 148.02 76.75 C 153.73 80.19 161.12 82.23 164.24 88.68 C 168.06 95.98 164.87 105.88 157.42 109.48 C 120.60 129.30 83.85 149.24 47.00 168.99 C 37.41 174.21 24.58 165.86 25.07 155.07 C 25.03 115.35 25.05 75.64 25.10 35.93 M 36.30 36.98 C 36.37 76.61 36.16 116.25 36.42 155.87 C 37.75 161.32 44.06 158.49 47.03 156.10 C 46.98 123.71 46.92 91.31 47.06 58.93 C 47.67 49.04 58.36 44.65 67.07 46.01 C 58.97 41.32 50.66 36.99 42.40 32.60 C 39.46 30.85 35.64 33.65 36.30 36.98 M 57.56 60.99 C 57.53 90.70 57.54 120.42 57.53 150.14 C 84.43 136.41 110.90 121.69 137.43 107.22 C 137.21 91.47 137.54 75.72 137.25 59.97 C 136.76 55.74 131.63 56.85 128.66 56.77 C 128.54 68.80 128.72 80.85 128.59 92.88 C 128.61 96.35 124.73 98.72 121.57 97.57 C 117.23 95.50 114.47 90.96 110.14 89.02 C 105.93 91.32 103.11 95.68 98.65 97.58 C 95.55 98.76 92.10 96.27 91.97 93.04 C 91.64 80.97 92.10 68.88 91.72 56.81 C 81.47 56.79 71.22 56.73 60.97 56.85 C 58.80 56.75 57.31 58.98 57.56 60.99 M 147.88 89.63 C 147.79 93.65 147.81 97.67 147.84 101.69 C 150.45 100.17 154.88 99.16 154.60 95.33 C 154.33 91.89 150.36 91.05 147.88 89.63 Z" />
</g>
</svg>
