<?xml version="1.0" encoding="UTF-8" ?>
<!DOCTYPE svg PUBLIC "-//W3C//DTD SVG 1.1//EN" "http://www.w3.org/Graphics/SVG/1.1/DTD/svg11.dtd">
<svg width="192pt" height="192pt" viewBox="0 0 192 192" version="1.1" xmlns="http://www.w3.org/2000/svg">
<g id="#42afcdff">
<path fill="#42afcd" opacity="1.00" d=" M 31.36 35.12 C 31.99 27.84 38.67 21.75 45.99 21.78 C 79.32 21.71 112.66 21.76 146.00 21.75 C 153.47 21.51 160.40 27.57 161.19 34.98 C 161.60 40.53 161.25 46.10 161.34 51.66 C 167.64 54.38 172.54 60.87 171.53 67.96 C 169.44 80.59 166.28 93.05 164.33 105.69 C 166.41 121.52 169.44 137.24 171.63 153.07 C 172.68 161.81 164.80 170.04 156.06 169.58 C 116.04 169.58 76.02 169.62 36.01 169.52 C 27.55 169.57 20.24 161.33 21.33 152.94 C 23.50 137.26 26.47 121.68 28.59 106.00 C 26.82 93.24 23.46 80.70 21.42 67.97 C 20.46 61.08 25.01 54.59 31.19 51.90 C 31.35 46.31 31.00 40.70 31.36 35.12 M 42.60 34.62 C 41.47 40.04 42.35 45.68 42.09 51.18 C 78.24 51.19 114.38 51.18 150.53 51.13 C 149.88 45.45 152.05 38.90 149.20 33.80 C 144.29 31.14 138.04 33.22 132.60 32.55 C 133.02 36.53 132.22 42.46 127.00 42.36 C 121.91 42.26 121.23 36.47 121.50 32.56 C 104.63 32.58 87.75 32.54 70.88 32.58 C 71.14 36.37 70.93 41.88 66.01 42.35 C 60.54 42.84 59.57 36.65 59.79 32.55 C 54.21 33.49 47.05 30.45 42.60 34.62 M 34.41 62.57 C 32.86 63.44 31.91 65.21 32.30 66.99 C 34.35 80.05 37.93 92.90 39.61 106.01 C 37.46 121.71 34.59 137.33 32.29 153.02 C 31.40 155.99 33.93 158.97 37.00 158.57 C 76.67 158.58 116.34 158.59 156.00 158.53 C 158.90 158.86 161.39 156.03 160.63 153.20 C 158.26 137.44 155.46 121.73 153.23 105.96 C 154.97 92.59 158.72 79.48 160.64 66.12 C 160.68 62.67 156.78 61.74 154.03 62.10 C 114.17 62.46 74.19 61.52 34.41 62.57 Z" />
<path fill="#42afcd" opacity="1.00" d=" M 76.57 88.50 C 82.78 88.16 92.37 86.42 95.32 93.64 C 96.49 98.79 97.66 106.25 92.33 109.45 C 98.11 112.85 96.96 120.97 95.31 126.39 C 91.68 132.79 83.03 130.57 76.97 130.69 C 70.48 130.88 67.61 123.74 68.89 118.24 C 71.44 118.19 73.98 118.18 76.53 118.24 C 76.92 119.96 77.32 121.67 77.72 123.38 C 80.90 124.37 84.24 124.38 87.43 123.41 C 88.37 120.19 88.29 116.83 87.38 113.61 C 84.29 112.94 81.14 112.72 77.99 112.71 C 77.76 110.57 77.77 108.41 78.06 106.28 C 81.05 106.01 84.42 106.79 87.05 104.98 C 88.19 102.43 87.87 99.44 87.43 96.75 C 84.03 92.76 75.98 94.74 76.95 100.75 C 74.38 100.81 71.82 100.80 69.25 100.73 C 68.32 95.51 70.30 88.76 76.57 88.50 Z" />
<path fill="#42afcd" opacity="1.00" d=" M 102.11 92.12 C 106.83 90.25 112.31 87.82 117.32 89.73 C 117.93 100.81 117.39 111.96 117.60 123.07 C 120.07 123.11 122.54 123.11 125.00 123.22 C 124.96 125.48 126.72 130.08 123.02 130.01 C 115.44 130.17 107.80 130.42 100.23 129.74 C 100.17 127.59 100.17 125.44 100.24 123.29 C 103.22 123.05 106.22 123.14 109.22 123.08 C 109.24 114.73 109.25 106.37 109.23 98.01 C 106.45 97.77 103.66 97.94 100.88 97.72 C 101.07 95.85 99.57 92.82 102.11 92.12 Z" />
</g>
</svg>
