<?xml version="1.0" encoding="UTF-8" ?>
<!DOCTYPE svg PUBLIC "-//W3C//DTD SVG 1.1//EN" "http://www.w3.org/Graphics/SVG/1.1/DTD/svg11.dtd">
<svg width="192pt" height="192pt" viewBox="0 0 192 192" version="1.1" xmlns="http://www.w3.org/2000/svg">
<g id="#4ca1d2ff">
<path fill="#4ca1d2" opacity="1.00" d=" M 48.91 31.99 C 48.99 23.64 56.68 16.36 65.02 16.73 C 85.67 16.74 106.32 16.70 126.97 16.73 C 135.19 16.52 142.67 23.70 142.80 31.92 C 142.94 45.59 142.81 59.26 142.87 72.94 C 148.94 73.24 155.02 72.91 161.09 73.12 C 168.65 73.34 175.13 80.40 174.78 87.96 C 174.79 111.66 174.82 135.36 174.76 159.06 C 174.97 166.88 167.82 173.71 160.06 173.51 C 117.36 173.53 74.65 173.52 31.94 173.51 C 24.14 173.78 16.97 166.92 17.12 159.07 C 17.08 135.02 17.03 110.96 17.14 86.91 C 17.25 77.92 26.50 71.63 35.03 73.01 C 40.05 71.80 44.64 78.02 41.06 82.14 C 38.08 86.74 30.10 81.45 28.43 87.11 C 28.16 110.74 28.37 134.39 28.32 158.03 C 27.98 160.21 29.63 162.51 31.98 162.27 C 74.65 162.34 117.33 162.34 160.01 162.28 C 162.35 162.52 163.90 160.15 163.59 158.02 C 163.57 134.66 163.65 111.30 163.55 87.95 C 163.76 86.01 162.04 84.10 160.05 84.34 C 154.45 84.30 148.83 84.20 143.24 84.38 C 141.56 87.49 140.92 91.51 137.84 93.84 C 125.29 104.29 112.63 114.63 100.03 125.03 C 97.83 127.24 94.11 127.36 91.85 125.19 C 79.58 115.10 67.35 104.97 55.08 94.89 C 51.18 91.83 48.73 86.98 48.85 81.99 C 48.91 65.32 48.79 48.65 48.91 31.99 M 60.16 33.95 C 60.50 50.72 59.49 67.67 60.67 84.34 C 71.85 94.67 84.17 103.86 95.80 113.73 C 106.98 104.62 118.08 95.41 129.22 86.24 C 130.94 85.08 131.66 83.09 131.48 81.07 C 131.45 65.04 131.52 49.00 131.46 32.97 C 131.61 30.52 129.64 27.94 127.04 28.15 C 106.35 28.10 85.65 28.12 64.96 28.14 C 61.71 27.69 59.69 31.04 60.16 33.95 Z" />
<path fill="#4ca1d2" opacity="1.00" d=" M 83.18 37.04 C 91.94 36.95 100.69 37.02 109.45 37.00 C 109.47 38.79 109.51 40.59 109.57 42.39 C 100.88 42.71 92.17 42.56 83.47 42.58 C 83.28 40.74 83.21 38.89 83.18 37.04 Z" />
<path fill="#4ca1d2" opacity="1.00" d=" M 68.22 46.93 C 86.49 46.79 104.75 46.87 123.02 46.88 C 122.99 48.89 122.93 50.90 122.85 52.92 C 104.66 53.03 86.45 53.11 68.26 52.87 C 68.26 50.89 68.24 48.91 68.22 46.93 Z" />
<path fill="#4ca1d2" opacity="1.00" d=" M 92.37 56.46 C 98.63 55.27 105.57 57.40 109.86 62.14 C 114.54 67.69 112.54 76.81 106.58 80.60 C 97.58 87.33 81.59 83.77 78.97 72.02 C 76.98 63.75 84.87 57.33 92.37 56.46 M 95.39 61.48 C 90.22 61.49 84.39 66.39 86.17 71.92 C 89.08 79.56 101.27 80.31 104.86 72.88 C 108.00 67.02 101.10 60.96 95.39 61.48 Z" />
<path fill="#4ca1d2" opacity="1.00" d=" M 91.79 87.80 C 94.33 86.58 97.37 87.36 100.10 87.26 C 98.79 90.52 97.37 93.74 95.84 96.91 C 94.58 100.25 90.21 98.53 87.52 98.93 C 88.67 95.16 89.56 91.08 91.79 87.80 Z" />
</g>
</svg>
