<?xml version="1.0" encoding="UTF-8" ?>
<!DOCTYPE svg PUBLIC "-//W3C//DTD SVG 1.1//EN" "http://www.w3.org/Graphics/SVG/1.1/DTD/svg11.dtd">
<svg width="192pt" height="192pt" viewBox="0 0 192 192" version="1.1" xmlns="http://www.w3.org/2000/svg">
<g id="#829ca2ff">
<path fill="#829ca2" opacity="1.00" d=" M 49.36 24.50 C 72.76 18.41 98.28 35.75 101.83 59.52 C 105.59 79.18 93.60 100.23 74.82 107.11 C 67.98 110.29 60.31 109.74 52.98 109.50 C 34.37 107.22 18.75 91.15 16.50 72.60 C 13.09 51.21 28.18 29.04 49.36 24.50 M 52.43 35.68 C 39.87 38.39 29.74 49.25 28.00 61.99 C 24.67 79.42 39.13 97.80 57.00 98.07 C 69.04 99.27 81.18 92.53 86.85 81.92 C 93.31 70.47 91.68 55.03 82.58 45.44 C 75.20 36.87 63.34 33.81 52.43 35.68 Z" />
<path fill="#829ca2" opacity="1.00" d=" M 160.29 52.38 C 168.50 50.12 176.21 59.22 173.19 67.01 C 170.81 73.26 162.40 76.59 156.85 72.29 C 149.03 67.62 151.15 54.02 160.29 52.38 Z" />
<path fill="#829ca2" opacity="1.00" d=" M 124.35 67.43 C 138.79 62.35 154.56 76.14 152.21 91.06 C 150.95 101.34 141.48 110.08 130.99 109.61 C 119.66 110.41 109.18 100.33 109.10 89.06 C 108.32 79.43 115.17 70.11 124.35 67.43 M 127.36 78.51 C 121.03 80.51 118.01 89.27 122.56 94.46 C 127.28 100.89 138.99 98.63 140.54 90.64 C 142.71 82.92 134.82 76.02 127.36 78.51 Z" />
<path fill="#829ca2" opacity="1.00" d=" M 124.29 117.34 C 141.03 112.00 158.84 128.57 155.87 145.50 C 154.02 159.93 138.07 171.25 123.93 166.43 C 112.83 163.53 105.03 152.37 105.43 141.01 C 105.29 129.98 113.73 119.95 124.29 117.34 M 126.48 128.73 C 114.80 131.59 113.93 149.71 124.64 154.36 C 132.95 158.75 143.97 152.27 144.45 142.97 C 145.50 133.53 135.47 125.64 126.48 128.73 Z" />
</g>
</svg>
