<?xml version="1.0" encoding="UTF-8" ?>
<!DOCTYPE svg PUBLIC "-//W3C//DTD SVG 1.1//EN" "http://www.w3.org/Graphics/SVG/1.1/DTD/svg11.dtd">
<svg width="192pt" height="192pt" viewBox="0 0 192 192" version="1.1" xmlns="http://www.w3.org/2000/svg">
<g id="#3ad483ff">
<path fill="#3ad483" opacity="1.00" d=" M 51.97 35.97 C 55.69 26.31 65.67 19.57 76.03 19.70 C 100.01 19.67 123.99 19.57 147.96 19.74 C 161.18 19.90 172.90 31.70 172.82 44.94 C 172.79 62.93 173.08 80.92 172.67 98.90 C 171.44 113.32 156.81 123.61 142.79 121.73 C 142.64 127.23 143.32 132.94 141.31 138.20 C 138.07 147.62 128.96 154.74 118.97 155.35 C 108.72 155.70 98.43 155.16 88.18 155.59 C 77.21 159.92 67.17 166.80 56.01 170.55 C 48.28 170.05 50.71 160.65 50.36 155.48 C 35.70 157.59 20.49 146.23 20.10 131.08 C 20.02 113.02 19.89 94.95 20.17 76.89 C 21.08 62.35 35.72 51.43 49.93 53.50 C 50.33 47.64 49.55 41.51 51.97 35.97 M 61.46 53.25 C 80.33 53.31 99.21 53.15 118.08 53.29 C 131.09 53.65 142.46 64.95 142.98 77.95 C 143.26 88.78 143.01 99.63 143.08 110.47 C 151.30 111.78 160.57 106.59 161.42 97.83 C 161.76 80.54 161.47 63.24 161.56 45.95 C 161.95 38.47 155.64 31.23 148.05 31.16 C 123.69 31.11 99.32 31.12 74.95 31.16 C 63.74 31.29 59.66 43.88 61.46 53.25 M 31.42 77.98 C 31.21 95.00 31.39 112.03 31.33 129.05 C 31.02 135.17 34.98 141.11 40.70 143.24 C 46.38 145.32 52.61 143.21 58.36 144.72 C 62.67 146.61 61.52 151.99 61.69 155.74 C 69.61 152.19 77.15 147.80 85.14 144.45 C 96.96 143.49 108.95 145.03 120.73 143.68 C 130.30 141.43 132.76 130.61 131.45 122.11 C 112.29 122.18 93.12 122.19 73.97 121.77 C 61.64 121.10 50.86 110.40 50.13 98.09 C 49.89 86.93 50.35 75.77 49.91 64.62 C 41.44 63.24 31.87 68.90 31.42 77.98 M 61.63 64.84 C 61.61 75.22 61.59 85.61 61.64 95.99 C 61.35 103.67 68.36 110.57 76.02 110.22 C 94.42 110.23 112.82 110.21 131.22 110.18 C 131.25 99.79 131.29 89.40 131.23 79.01 C 131.48 71.42 124.53 64.75 117.01 64.92 C 98.56 64.77 80.09 64.85 61.63 64.84 Z" />
</g>
</svg>
