<?xml version="1.0" encoding="UTF-8" ?>
<!DOCTYPE svg PUBLIC "-//W3C//DTD SVG 1.1//EN" "http://www.w3.org/Graphics/SVG/1.1/DTD/svg11.dtd">
<svg width="192pt" height="192pt" viewBox="0 0 192 192" version="1.1" xmlns="http://www.w3.org/2000/svg">
<g id="#24b3f8ff">
<path fill="#24b3f8" opacity="1.00" d=" M 109.87 23.87 C 111.44 21.51 114.51 21.67 117.00 21.65 C 128.32 21.74 139.64 21.56 150.96 21.72 C 161.07 21.74 170.03 30.83 169.83 40.95 C 169.89 77.31 169.90 113.68 169.87 150.05 C 170.14 159.73 161.65 168.51 151.96 168.52 C 114.32 168.59 76.67 168.57 39.02 168.50 C 29.31 168.53 20.82 159.73 21.06 150.05 C 21.03 127.35 21.05 104.65 21.08 81.95 C 20.74 73.30 28.37 65.44 37.02 65.52 C 67.67 65.46 98.32 65.43 128.96 65.50 C 137.59 65.47 145.16 73.34 144.84 81.95 C 144.92 107.03 144.83 132.11 144.91 157.19 C 150.04 157.74 157.88 157.59 158.49 150.86 C 158.77 114.56 158.55 78.24 158.62 41.93 C 159.08 37.16 154.90 32.61 150.03 33.09 C 139.12 33.08 128.12 32.49 117.25 33.19 C 113.14 38.52 109.90 44.49 105.83 49.85 C 103.97 52.25 100.63 51.59 98.00 51.73 C 82.12 51.54 66.22 51.96 50.35 51.51 C 44.78 50.56 44.79 41.53 50.41 40.66 C 66.53 40.19 82.70 40.71 98.83 40.39 C 102.45 34.85 106.02 29.26 109.87 23.87 M 32.34 81.97 C 32.27 104.65 32.29 127.34 32.34 150.02 C 32.16 154.09 35.95 157.61 39.99 157.26 C 71.20 157.13 102.43 157.51 133.63 157.02 C 133.42 132.01 133.65 106.99 133.53 81.97 C 133.76 78.98 130.97 76.46 128.03 76.74 C 98.02 76.69 68.00 76.70 37.98 76.70 C 34.99 76.36 32.05 78.89 32.34 81.97 Z" />
<path fill="#24b3f8" opacity="1.00" d=" M 49.20 120.16 C 53.63 119.11 58.40 119.32 62.89 119.95 C 67.99 121.36 68.02 129.38 62.94 130.84 C 58.68 131.38 54.33 131.18 50.05 130.97 C 45.15 129.71 44.48 122.09 49.20 120.16 Z" />
<path fill="#24b3f8" opacity="1.00" d=" M 73.27 127.71 C 71.16 118.21 82.91 119.04 88.96 119.87 C 94.21 120.56 95.35 128.42 90.45 130.52 C 85.76 131.17 80.98 130.55 76.26 130.71 C 75.26 129.70 74.27 128.70 73.27 127.71 Z" />
<path fill="#24b3f8" opacity="1.00" d=" M 101.80 120.90 C 106.15 119.02 111.30 119.33 115.89 120.09 C 120.74 121.27 121.11 128.58 116.63 130.56 C 111.88 130.98 107.09 130.57 102.32 130.66 C 98.97 128.45 97.96 123.18 101.80 120.90 Z" />
</g>
</svg>
