<?xml version="1.0" encoding="UTF-8" ?>
<!DOCTYPE svg PUBLIC "-//W3C//DTD SVG 1.1//EN" "http://www.w3.org/Graphics/SVG/1.1/DTD/svg11.dtd">
<svg width="192pt" height="192pt" viewBox="0 0 192 192" version="1.1" xmlns="http://www.w3.org/2000/svg">
<g id="#3f8eb9ff">
<path fill="#3f8eb9" opacity="1.00" d=" M 25.16 35.93 C 24.81 25.66 36.71 17.61 46.10 21.94 C 61.22 29.69 75.96 38.19 91.07 45.93 C 94.85 46.40 100.64 45.07 101.88 50.07 C 102.37 60.70 101.99 71.39 102.06 82.04 C 104.53 80.15 106.75 77.44 110.01 77.01 C 113.59 77.07 115.86 80.24 118.61 82.06 C 118.70 71.40 118.30 60.70 118.80 50.05 C 120.20 44.61 126.87 46.47 130.99 46.11 C 138.33 45.07 146.21 49.85 147.58 57.35 C 148.43 63.81 147.37 70.37 148.18 76.84 C 153.38 80.17 160.07 81.91 163.48 87.46 C 168.08 94.51 165.57 105.11 158.04 109.07 C 121.04 129.06 84.04 149.07 46.98 168.97 C 37.80 173.97 25.36 166.43 25.20 156.09 C 25.07 116.04 25.17 75.99 25.16 35.93 M 36.35 35.95 C 36.26 75.64 36.32 115.34 36.33 155.04 C 36.27 162.14 48.49 158.78 47.00 153.03 C 47.02 121.36 46.90 89.68 47.06 58.01 C 48.35 48.70 58.35 44.82 66.72 45.96 C 59.14 41.11 50.91 37.31 43.07 32.88 C 40.57 31.11 36.16 32.55 36.35 35.95 M 57.64 60.99 C 57.59 90.63 57.64 120.26 57.58 149.90 C 61.61 149.11 64.92 146.26 68.64 144.60 C 91.47 132.02 114.83 120.21 137.32 107.12 C 137.18 91.40 137.41 75.68 137.18 59.96 C 136.69 55.73 131.63 57.43 128.76 57.16 C 128.60 69.07 128.81 80.99 128.68 92.89 C 128.63 96.41 124.75 98.87 121.52 97.63 C 117.21 95.56 114.42 91.09 110.17 89.07 C 106.02 91.41 103.14 95.73 98.70 97.64 C 95.58 98.92 92.02 96.27 91.92 93.03 C 91.66 81.07 92.05 69.10 91.70 57.14 C 81.17 57.16 70.63 57.06 60.10 57.19 C 58.30 57.21 57.56 59.46 57.64 60.99 M 148.22 89.73 C 147.76 93.66 147.83 97.62 147.95 101.57 C 150.66 100.39 155.01 99.04 154.61 95.32 C 154.55 91.95 150.61 91.10 148.22 89.73 Z" />
</g>
</svg>
