<?xml version="1.0" encoding="UTF-8" ?>
<!DOCTYPE svg PUBLIC "-//W3C//DTD SVG 1.1//EN" "http://www.w3.org/Graphics/SVG/1.1/DTD/svg11.dtd">
<svg width="192pt" height="192pt" viewBox="0 0 192 192" version="1.1" xmlns="http://www.w3.org/2000/svg">
<g id="#2bc7b2ff">
<path fill="#2bc7b2" opacity="1.00" d=" M 79.63 15.70 C 112.54 8.09 148.35 24.70 165.56 53.42 C 185.89 84.11 179.52 128.11 153.48 153.48 C 131.46 175.77 96.10 183.95 66.82 172.28 C 35.67 160.51 13.67 128.32 14.18 95.00 C 14.07 63.48 34.56 33.68 63.11 20.95 C 67.97 18.66 72.90 25.40 69.38 29.40 C 66.27 32.17 61.91 33.14 58.52 35.59 C 31.96 51.32 19.35 85.68 27.90 115.09 C 33.99 138.37 53.14 157.21 76.18 163.76 C 91.39 168.37 107.88 166.73 122.68 161.40 C 107.62 114.95 91.84 68.72 76.61 22.32 C 75.70 19.75 77.09 16.68 79.63 15.70 M 89.40 25.58 C 94.01 39.37 98.56 53.18 103.16 66.97 C 108.70 67.16 114.24 67.01 119.78 67.00 C 120.18 64.06 121.69 60.51 125.14 60.39 C 128.92 59.87 131.21 63.64 131.48 66.95 C 138.64 67.21 145.82 66.83 152.97 67.19 C 157.24 67.49 159.23 73.35 156.28 76.32 C 153.79 78.97 149.86 77.94 146.65 78.46 C 143.93 87.13 138.97 94.85 133.73 102.20 C 137.12 107.65 143.64 111.32 147.27 116.89 C 149.66 121.54 143.57 126.78 139.35 123.70 C 134.51 119.92 130.59 115.08 125.94 111.08 C 123.94 112.77 121.97 114.51 120.00 116.23 C 123.53 129.71 128.62 142.79 132.89 156.08 C 155.87 142.77 168.85 115.22 166.12 89.03 C 164.27 69.66 154.40 50.96 138.74 39.26 C 124.83 28.67 106.79 23.61 89.40 25.58 M 107.02 78.30 C 107.93 81.35 108.93 84.38 110.02 87.38 C 111.73 84.17 116.15 82.10 119.19 84.87 C 121.67 87.78 123.07 91.50 125.85 94.20 C 129.52 89.29 132.73 84.00 135.01 78.29 C 125.68 78.33 116.35 78.32 107.02 78.30 M 112.82 95.35 C 113.59 98.55 114.75 101.63 115.69 104.77 C 120.88 102.81 114.59 97.85 112.82 95.35 Z" />
<path fill="#2bc7b2" opacity="1.00" d=" M 38.74 88.70 C 46.23 71.77 71.11 66.06 84.30 79.74 C 88.40 84.11 82.05 91.47 77.15 87.90 C 70.70 82.53 60.62 81.43 53.88 86.88 C 44.65 93.74 45.29 109.91 55.31 115.73 C 64.43 121.64 78.65 117.33 81.61 106.47 C 75.45 106.15 69.18 107.05 63.10 106.07 C 57.60 104.64 58.43 95.71 64.09 95.29 C 72.06 95.02 80.06 95.16 88.04 95.20 C 91.59 95.12 94.14 98.64 93.65 102.01 C 93.29 120.04 73.15 134.69 55.97 128.07 C 40.13 123.20 31.33 103.68 38.74 88.70 Z" />
</g>
</svg>
