<?xml version="1.0" encoding="UTF-8" ?>
<!DOCTYPE svg PUBLIC "-//W3C//DTD SVG 1.1//EN" "http://www.w3.org/Graphics/SVG/1.1/DTD/svg11.dtd">
<svg width="192pt" height="192pt" viewBox="0 0 192 192" version="1.1" xmlns="http://www.w3.org/2000/svg">
<g id="#4fa1d0ff">
<path fill="#4fa1d0" opacity="1.00" d=" M 48.92 31.96 C 49.01 23.63 56.68 16.37 65.01 16.73 C 85.67 16.74 106.33 16.69 126.99 16.74 C 135.21 16.53 142.68 23.71 142.80 31.93 C 142.94 45.59 142.82 59.26 142.87 72.93 C 148.94 73.22 155.01 72.91 161.08 73.12 C 168.65 73.33 175.12 80.39 174.78 87.94 C 174.80 111.65 174.83 135.36 174.76 159.07 C 174.96 166.89 167.82 173.72 160.06 173.50 C 117.36 173.53 74.65 173.53 31.94 173.51 C 24.14 173.78 16.97 166.93 17.12 159.07 C 17.13 134.71 16.92 110.33 17.22 85.98 C 18.00 75.31 30.97 70.18 39.93 74.07 C 44.24 76.79 42.14 84.19 37.03 84.19 C 34.17 84.68 29.16 83.09 28.43 87.13 C 28.16 110.75 28.37 134.39 28.32 158.01 C 27.84 160.74 30.37 162.76 32.97 162.31 C 74.99 162.31 117.01 162.31 159.02 162.31 C 161.19 162.65 163.70 161.28 163.53 158.86 C 163.67 135.55 163.56 112.24 163.59 88.93 C 163.79 87.07 163.02 84.61 160.87 84.42 C 154.86 84.14 148.84 84.31 142.83 84.39 C 141.97 88.13 140.38 91.85 137.32 94.31 C 124.89 104.57 112.45 114.82 100.00 125.05 C 97.80 127.23 94.12 127.35 91.86 125.20 C 79.58 115.12 67.36 104.98 55.08 94.90 C 51.19 91.83 48.73 87.00 48.85 82.01 C 48.90 65.33 48.78 48.64 48.92 31.96 M 60.20 32.96 C 60.13 49.31 60.13 65.68 60.21 82.03 C 60.01 84.14 61.60 85.64 63.10 86.85 C 74.02 95.79 84.90 104.79 95.81 113.74 C 106.61 104.93 117.31 96.00 128.12 87.19 C 129.72 85.86 131.65 84.34 131.44 82.00 C 131.50 65.67 131.50 49.33 131.45 33.00 C 131.61 30.54 129.66 27.94 127.03 28.16 C 106.35 28.09 85.65 28.12 64.96 28.15 C 62.22 27.79 59.93 30.28 60.20 32.96 Z" />
<path fill="#4fa1d0" opacity="1.00" d=" M 73.29 42.88 C 73.47 36.55 82.59 32.44 87.40 36.60 C 89.85 38.89 88.83 42.37 87.61 45.01 C 88.94 48.28 90.48 52.62 87.51 55.50 C 83.31 59.23 76.29 58.41 72.40 54.59 C 68.52 51.08 66.89 45.92 65.76 40.98 C 66.87 40.76 67.99 40.54 69.10 40.32 C 70.79 46.49 73.91 55.52 81.99 54.33 C 85.83 54.43 86.32 50.13 85.06 47.42 C 83.82 47.59 82.59 47.78 81.36 47.96 C 81.02 47.11 80.68 46.27 80.34 45.42 C 82.57 44.05 86.64 42.44 85.13 39.10 C 82.14 36.86 78.35 39.23 76.55 41.86 C 77.26 42.65 77.98 43.43 78.70 44.21 C 78.37 45.13 78.04 46.05 77.71 46.97 C 75.80 46.23 73.26 45.36 73.29 42.88 Z" />
<path fill="#4fa1d0" opacity="1.00" d=" M 97.81 36.79 C 102.83 33.44 110.97 34.44 113.99 40.02 C 115.96 43.62 114.99 47.87 113.84 51.57 C 115.54 51.57 117.23 51.58 118.93 51.59 C 119.00 46.05 118.93 40.51 118.99 34.98 C 120.20 34.99 121.41 35.01 122.63 35.03 C 122.65 41.72 122.61 48.42 122.67 55.11 C 117.49 55.23 112.30 55.41 107.14 54.97 C 106.95 50.42 112.81 47.94 110.87 43.08 C 109.22 36.43 99.73 37.35 97.02 42.76 C 100.65 42.68 105.83 43.32 105.99 47.99 C 107.40 53.63 100.27 57.63 95.92 54.13 C 90.72 49.70 92.22 40.29 97.81 36.79 M 99.28 46.49 C 95.17 46.17 96.63 52.05 99.87 51.94 C 103.34 52.02 102.83 45.70 99.28 46.49 Z" />
<path fill="#4fa1d0" opacity="1.00" d=" M 102.93 69.19 C 100.88 64.46 104.78 59.00 110.01 59.91 C 114.56 59.17 118.21 63.61 116.95 67.96 C 115.56 73.04 109.15 72.80 105.85 75.97 C 104.10 78.19 106.14 81.67 108.95 81.36 C 113.50 81.52 119.79 78.40 119.00 73.05 C 119.01 68.81 118.95 64.58 119.03 60.34 C 120.21 60.38 121.39 60.42 122.57 60.46 C 122.61 68.64 122.57 76.81 122.60 84.99 C 121.40 85.01 120.20 85.04 119.00 85.06 C 119.00 84.13 119.00 82.28 119.00 81.35 C 114.92 84.93 108.39 86.74 103.66 83.41 C 99.78 80.50 100.51 73.89 104.98 71.94 C 107.70 69.80 113.75 69.70 112.98 65.06 C 110.83 61.14 105.20 64.07 106.25 68.17 C 105.14 68.51 104.03 68.85 102.93 69.19 Z" />
<path fill="#4fa1d0" opacity="1.00" d=" M 67.29 77.66 C 64.07 71.73 67.13 61.40 75.03 61.92 C 79.49 61.60 82.16 67.16 79.80 70.70 C 77.83 74.24 73.22 73.37 69.85 73.53 C 72.04 82.25 83.63 83.07 90.31 79.32 C 95.32 76.61 96.08 67.11 90.02 65.37 C 86.08 66.04 87.63 70.78 90.24 72.16 C 90.28 73.45 90.32 74.73 90.37 76.02 C 86.59 76.06 82.81 76.06 79.03 75.98 C 79.05 75.29 79.08 73.89 79.10 73.20 C 81.15 73.17 83.19 73.14 85.24 73.13 C 84.46 70.06 83.31 66.38 85.64 63.67 C 88.57 60.18 94.48 61.86 96.57 65.46 C 100.23 71.99 97.44 81.71 89.92 83.99 C 82.24 86.54 71.26 85.85 67.29 77.66 M 70.08 69.31 C 72.41 70.82 77.87 70.39 76.50 66.53 C 74.40 63.62 70.89 66.92 70.08 69.31 Z" />
</g>
</svg>
