<?xml version="1.0" encoding="UTF-8" ?>
<!DOCTYPE svg PUBLIC "-//W3C//DTD SVG 1.1//EN" "http://www.w3.org/Graphics/SVG/1.1/DTD/svg11.dtd">
<svg width="192pt" height="192pt" viewBox="0 0 192 192" version="1.1" xmlns="http://www.w3.org/2000/svg">
<g id="#4ba2d3ff">
<path fill="#4ba2d3" opacity="1.00" d=" M 48.91 31.97 C 49.00 23.63 56.68 16.37 65.01 16.73 C 85.67 16.74 106.32 16.70 126.98 16.73 C 135.20 16.52 142.68 23.71 142.80 31.93 C 142.93 45.59 142.81 59.27 142.87 72.94 C 148.94 73.25 155.02 72.91 161.09 73.12 C 168.65 73.34 175.13 80.40 174.77 87.95 C 174.79 111.65 174.82 135.36 174.75 159.07 C 174.96 166.89 167.81 173.71 160.06 173.51 C 117.36 173.52 74.65 173.52 31.94 173.51 C 24.15 173.78 16.97 166.92 17.12 159.07 C 17.08 135.02 17.03 110.97 17.14 86.92 C 17.25 77.92 26.51 71.62 35.04 73.01 C 40.07 71.80 44.65 78.05 41.05 82.15 C 38.07 86.74 30.06 81.44 28.42 87.13 C 28.16 110.75 28.37 134.39 28.32 158.02 C 27.97 160.21 29.63 162.49 31.98 162.27 C 74.66 162.34 117.34 162.34 160.01 162.28 C 162.36 162.52 163.91 160.14 163.59 158.01 C 163.58 134.67 163.65 111.32 163.56 87.98 C 163.77 86.02 162.04 84.09 160.03 84.34 C 154.27 84.32 148.50 84.14 142.74 84.46 C 142.04 88.21 140.32 91.86 137.32 94.32 C 124.89 104.56 112.45 114.81 100.01 125.04 C 97.83 127.24 94.11 127.35 91.85 125.19 C 79.59 115.11 67.35 104.98 55.08 94.89 C 51.18 91.83 48.73 86.99 48.85 82.00 C 48.91 65.33 48.79 48.64 48.91 31.97 M 60.20 32.96 C 60.09 48.65 60.22 64.34 60.14 80.03 C 60.11 82.13 60.09 84.60 62.04 85.92 C 73.26 95.23 84.54 104.49 95.82 113.73 C 106.80 104.78 117.69 95.70 128.66 86.73 C 130.14 85.57 131.63 84.06 131.44 82.01 C 131.50 65.68 131.50 49.33 131.46 33.00 C 131.62 30.53 129.64 27.92 127.02 28.15 C 106.34 28.10 85.65 28.12 64.97 28.14 C 62.24 27.76 59.92 30.29 60.20 32.96 Z" />
<path fill="#4ba2d3" opacity="1.00" d=" M 68.94 43.11 C 72.57 38.27 81.08 34.42 85.21 40.76 C 89.84 49.29 81.45 56.93 78.33 64.35 C 77.15 66.57 75.40 71.93 78.94 72.27 C 85.07 67.32 88.66 59.70 95.43 55.43 C 99.73 52.78 105.70 51.87 110.03 54.95 C 113.66 57.47 114.67 62.02 115.89 65.99 C 118.14 65.99 120.40 65.99 122.66 66.05 C 122.66 68.64 122.65 71.23 122.63 73.82 C 120.37 73.87 118.11 73.87 115.85 73.85 C 114.85 80.44 112.63 88.23 105.72 90.82 C 99.67 93.69 91.46 88.91 91.95 81.99 C 92.57 73.53 100.26 67.52 108.09 65.82 C 108.06 61.85 103.85 59.03 100.32 61.36 C 93.42 65.62 89.57 73.28 83.34 78.34 C 78.11 82.06 70.19 77.78 69.60 71.59 C 67.54 61.42 78.12 54.37 79.02 45.07 C 77.01 45.94 75.25 47.27 73.62 48.71 C 71.95 46.94 70.31 45.13 68.94 43.11 M 99.78 81.04 C 99.14 82.81 100.93 84.82 102.75 83.80 C 106.40 81.94 106.96 77.39 108.21 73.90 C 104.58 74.89 100.73 77.12 99.78 81.04 Z" />
</g>
</svg>
