<?xml version="1.0" encoding="UTF-8" ?>
<!DOCTYPE svg PUBLIC "-//W3C//DTD SVG 1.1//EN" "http://www.w3.org/Graphics/SVG/1.1/DTD/svg11.dtd">
<svg width="192pt" height="192pt" viewBox="0 0 192 192" version="1.1" xmlns="http://www.w3.org/2000/svg">
<g id="#55a379ff">
<path fill="#55a379" opacity="1.00" d=" M 90.33 23.98 C 90.22 19.61 93.60 15.38 98.00 14.86 C 116.80 13.02 135.75 25.28 141.98 43.08 C 148.17 59.09 143.36 78.33 130.73 89.86 C 143.18 90.30 155.64 89.90 168.10 90.10 C 172.15 90.14 175.84 93.37 176.61 97.31 C 178.74 115.93 166.79 134.76 149.33 141.32 C 133.07 147.99 113.35 143.11 101.58 130.20 C 101.71 142.46 101.65 154.72 101.63 166.98 C 101.82 171.12 98.99 175.19 94.94 176.25 C 74.65 179.06 54.04 164.68 48.89 144.98 C 44.30 129.52 49.62 112.20 61.21 101.20 C 49.14 101.37 37.06 101.25 24.99 101.28 C 20.53 101.56 16.06 98.40 15.30 93.92 C 13.17 74.70 26.02 55.29 44.36 49.36 C 60.25 43.67 78.86 48.66 90.26 60.97 C 90.38 48.64 90.23 36.31 90.33 23.98 M 101.66 26.04 C 101.68 44.70 101.50 63.38 101.75 82.04 C 103.06 84.89 105.89 86.88 108.17 89.00 C 123.53 86.36 134.98 70.44 133.14 55.01 C 132.05 39.18 117.51 25.86 101.66 26.04 M 26.22 89.88 C 45.10 90.27 64.00 89.99 82.89 90.00 C 85.19 87.78 87.46 85.54 89.63 83.19 C 86.39 68.54 72.01 57.29 56.94 58.31 C 40.42 58.52 26.19 73.45 26.22 89.88 M 109.38 101.33 C 107.22 103.91 103.74 105.78 102.58 108.95 C 106.09 124.00 121.72 134.88 137.07 132.85 C 152.76 131.43 165.78 117.05 165.65 101.29 C 146.89 101.30 128.13 101.22 109.38 101.33 M 58.83 136.98 C 60.34 152.51 74.62 165.41 90.25 165.23 C 90.29 146.48 90.33 127.74 90.24 109.00 C 87.80 106.85 85.90 103.80 83.02 102.31 C 67.75 105.56 56.66 121.52 58.83 136.98 Z" />
</g>
</svg>
