<?xml version="1.0" encoding="UTF-8" ?>
<!DOCTYPE svg PUBLIC "-//W3C//DTD SVG 1.1//EN" "http://www.w3.org/Graphics/SVG/1.1/DTD/svg11.dtd">
<svg width="192pt" height="192pt" viewBox="0 0 192 192" version="1.1" xmlns="http://www.w3.org/2000/svg">
<g id="#78b57bff">
<path fill="#78b57b" opacity="1.00" d=" M 77.28 24.34 C 87.11 22.83 97.14 24.18 107.04 23.51 C 117.88 22.80 128.45 28.86 133.81 38.19 C 146.87 60.46 160.01 82.69 173.06 104.96 C 177.81 113.03 178.18 123.44 173.76 131.73 C 169.44 139.69 164.69 147.42 160.25 155.31 C 155.44 163.91 145.74 169.30 135.97 169.45 C 109.98 169.54 83.99 169.47 58.00 169.56 C 48.08 169.87 38.14 164.57 33.20 155.92 C 28.90 147.94 24.11 140.24 19.69 132.33 C 15.22 124.17 14.78 113.74 19.50 105.59 C 32.31 83.38 45.30 61.26 58.14 39.07 C 62.12 31.84 69.08 25.98 77.28 24.34 M 79.88 34.43 C 84.37 44.32 90.38 53.56 96.06 62.82 C 101.83 53.76 107.32 44.46 112.21 34.89 C 101.54 33.56 90.64 34.48 79.88 34.43 M 27.83 113.53 C 40.78 113.62 53.74 113.67 66.69 113.53 C 74.89 100.82 82.07 87.35 89.76 74.28 C 83.60 62.75 76.96 51.45 70.14 40.29 C 55.79 64.54 41.16 88.73 27.83 113.53 M 121.58 41.38 C 115.08 52.26 108.77 63.28 102.38 74.24 C 109.87 87.29 117.60 100.20 125.14 113.22 C 138.44 113.30 151.74 113.27 165.04 113.21 C 151.98 90.00 138.12 67.24 124.79 44.19 C 123.82 43.21 123.36 40.38 121.58 41.38 M 79.74 113.27 C 90.67 113.40 101.61 113.34 112.54 113.27 C 107.12 103.84 101.67 94.42 96.02 85.12 C 90.55 94.48 85.05 103.82 79.74 113.27 M 27.84 124.35 C 32.99 133.86 37.94 143.82 44.50 152.37 C 50.01 143.06 55.33 133.65 60.76 124.30 C 49.79 124.38 38.82 124.29 27.84 124.35 M 73.43 124.25 C 67.13 135.79 60.06 146.90 53.92 158.52 C 82.33 158.76 110.79 158.95 139.18 158.21 C 132.85 146.80 126.14 135.62 119.70 124.28 C 104.28 124.17 88.85 124.20 73.43 124.25 M 132.79 124.31 C 136.94 134.49 143.46 143.62 148.81 153.23 C 154.67 143.85 160.97 134.45 165.16 124.21 C 154.37 124.20 143.58 124.23 132.79 124.31 Z" />
</g>
</svg>
