<?xml version="1.0" encoding="UTF-8" ?>
<!DOCTYPE svg PUBLIC "-//W3C//DTD SVG 1.1//EN" "http://www.w3.org/Graphics/SVG/1.1/DTD/svg11.dtd">
<svg width="192pt" height="192pt" viewBox="0 0 192 192" version="1.1" xmlns="http://www.w3.org/2000/svg">
<g id="#34cb88ff">
<path fill="#34cb88" opacity="1.00" d=" M 36.32 21.36 C 40.22 20.13 44.50 20.92 48.05 22.83 C 63.76 31.22 79.36 39.86 95.14 48.11 C 103.71 49.25 112.73 47.11 121.20 49.71 C 132.31 53.04 140.41 62.53 145.35 72.64 C 147.67 79.05 155.67 79.49 160.27 83.70 C 168.82 90.18 167.17 105.01 157.43 109.51 C 120.61 129.31 83.88 149.28 47.02 168.99 C 37.79 174.04 25.31 166.47 25.14 156.08 C 24.96 116.37 25.16 76.66 25.10 36.94 C 24.67 29.94 29.56 23.18 36.32 21.36 M 36.33 36.91 C 36.33 76.28 36.28 115.65 36.37 155.02 C 36.09 158.60 40.69 160.36 43.30 158.21 C 63.89 147.02 84.62 136.08 105.11 124.70 C 94.45 124.70 83.80 124.70 73.15 124.69 C 68.44 128.87 64.34 134.66 57.73 135.77 C 48.11 138.14 38.46 129.12 39.45 119.45 C 41.52 104.34 43.76 89.25 46.12 74.19 C 48.40 61.15 59.60 51.26 72.27 48.61 C 62.22 43.41 52.42 37.75 42.35 32.61 C 39.42 30.93 35.68 33.60 36.33 36.91 M 72.37 59.52 C 63.90 61.06 57.37 68.63 56.28 77.05 C 54.19 91.36 51.97 105.67 50.13 120.01 C 49.00 123.92 54.59 127.63 57.57 124.68 C 64.88 117.95 71.66 110.64 78.88 103.81 C 80.00 102.77 81.39 101.94 82.97 101.92 C 94.09 101.27 105.29 102.60 116.38 101.43 C 124.86 100.56 131.67 93.56 133.31 85.37 C 136.84 73.25 126.96 59.04 114.09 59.17 C 100.19 59.34 86.24 58.67 72.37 59.52 M 151.07 90.93 C 151.23 93.92 151.66 96.89 152.41 99.80 C 155.74 97.14 154.74 92.64 151.07 90.93 M 122.62 110.66 C 109.98 114.94 96.20 110.34 83.52 113.58 C 94.36 115.71 107.91 109.81 116.60 118.62 C 125.18 114.02 133.73 109.40 142.28 104.75 C 141.76 101.50 141.19 98.26 140.67 95.01 C 136.96 102.31 130.40 108.08 122.62 110.66 Z" />
<path fill="#34cb88" opacity="1.00" d=" M 70.87 74.88 C 70.70 71.33 71.59 66.21 76.10 66.18 C 80.73 65.93 81.90 71.11 81.66 74.76 C 85.15 74.80 90.19 75.57 90.36 80.03 C 90.93 84.89 85.47 86.24 81.70 85.89 C 82.06 89.60 80.76 95.00 76.01 94.62 C 71.50 94.54 70.76 89.34 70.70 85.85 C 66.96 86.24 61.80 84.80 62.18 80.11 C 62.23 75.59 67.33 74.72 70.87 74.88 Z" />
<path fill="#34cb88" opacity="1.00" d=" M 114.34 66.31 C 117.92 65.33 121.57 69.07 120.60 72.63 C 120.09 76.66 114.40 78.24 111.80 75.20 C 108.86 72.49 110.47 67.11 114.34 66.31 Z" />
<path fill="#34cb88" opacity="1.00" d=" M 105.32 75.25 C 108.99 74.15 112.80 78.00 111.72 81.67 C 111.09 85.63 105.48 87.14 102.92 84.08 C 100.04 81.41 101.57 76.17 105.32 75.25 Z" />
<path fill="#34cb88" opacity="1.00" d=" M 122.40 75.44 C 125.82 73.95 129.91 77.04 129.59 80.70 C 129.64 84.70 124.44 87.23 121.32 84.73 C 118.06 82.52 118.53 76.71 122.40 75.44 Z" />
<path fill="#34cb88" opacity="1.00" d=" M 113.39 84.43 C 119.74 81.38 123.89 92.15 117.33 94.33 C 111.26 96.88 107.24 86.69 113.39 84.43 Z" />
</g>
</svg>
