<?xml version="1.0" encoding="UTF-8" ?>
<!DOCTYPE svg PUBLIC "-//W3C//DTD SVG 1.1//EN" "http://www.w3.org/Graphics/SVG/1.1/DTD/svg11.dtd">
<svg width="192pt" height="192pt" viewBox="0 0 192 192" version="1.1" xmlns="http://www.w3.org/2000/svg">
<g id="#4a70c3ff">
<path fill="#4a70c3" opacity="1.00" d=" M 84.41 14.54 C 116.10 9.60 149.57 25.50 165.94 53.03 C 184.11 81.92 181.23 122.07 159.00 148.00 C 137.87 174.18 99.81 184.57 68.30 172.77 C 47.47 165.40 30.03 149.15 21.12 128.94 C 9.38 103.08 12.53 71.19 29.21 48.18 C 42.00 30.06 62.42 17.54 84.41 14.54 M 87.37 25.47 C 65.01 27.95 44.53 42.09 33.86 61.82 C 22.21 82.80 22.47 109.80 34.48 130.57 C 47.30 153.52 73.67 168.03 99.95 166.14 C 123.08 165.09 145.00 151.60 156.71 131.69 C 171.77 107.06 169.35 73.28 150.83 51.12 C 135.91 32.35 111.12 22.47 87.37 25.47 Z" />
<path fill="#4a70c3" opacity="1.00" d=" M 62.76 78.72 C 71.61 60.15 97.12 52.32 114.56 63.46 C 119.08 66.77 115.67 74.82 110.13 73.81 C 104.82 72.26 99.67 69.44 93.92 70.18 C 78.17 71.00 66.67 88.98 72.25 103.67 C 76.37 117.92 94.51 125.46 107.58 118.50 C 113.67 115.46 118.56 109.24 119.02 102.33 C 113.04 102.07 107.02 102.62 101.07 101.91 C 95.87 100.82 96.08 92.28 101.38 91.56 C 110.25 91.24 119.16 91.24 128.04 91.45 C 130.89 91.39 133.37 94.11 133.10 96.94 C 132.83 107.07 127.95 116.77 120.75 123.76 C 107.24 136.31 84.17 135.74 70.89 123.14 C 58.69 112.35 55.13 93.12 62.76 78.72 Z" />
</g>
</svg>
