<?xml version="1.0" encoding="UTF-8" ?>
<!DOCTYPE svg PUBLIC "-//W3C//DTD SVG 1.1//EN" "http://www.w3.org/Graphics/SVG/1.1/DTD/svg11.dtd">
<svg width="192pt" height="192pt" viewBox="0 0 192 192" version="1.1" xmlns="http://www.w3.org/2000/svg">
<g id="#539acbff">
<path fill="#539acb" opacity="1.00" d=" M 80.31 15.49 C 103.26 10.69 128.12 17.04 146.35 31.69 C 158.05 41.33 167.51 53.89 172.90 68.11 C 184.61 99.35 173.96 137.17 148.27 158.27 C 125.57 177.49 92.08 183.30 64.61 171.40 C 33.64 158.62 12.44 125.49 14.25 91.96 C 15.41 61.27 35.88 32.54 64.03 20.66 C 70.76 19.06 73.04 29.89 66.41 31.43 C 36.13 44.31 19.28 80.27 27.12 111.95 C 31.96 134.45 48.80 153.67 70.31 161.74 C 86.99 168.57 106.03 167.52 122.75 161.36 C 107.59 115.22 92.09 69.19 76.83 23.09 C 75.49 20.14 77.02 16.21 80.31 15.49 M 89.39 25.49 C 93.97 39.34 98.58 53.18 103.17 67.02 C 108.68 67.10 114.19 67.03 119.71 67.01 C 120.20 63.85 122.08 60.01 125.87 60.37 C 129.45 60.35 131.04 64.00 131.57 66.99 C 138.69 67.18 145.84 66.83 152.95 67.21 C 157.23 67.47 159.22 73.34 156.28 76.32 C 153.80 78.87 149.91 78.06 146.71 78.40 C 143.89 87.30 138.69 95.11 133.46 102.75 C 137.93 107.23 142.81 111.36 146.88 116.20 C 149.96 120.45 144.62 126.55 140.02 124.06 C 134.76 120.43 130.78 115.23 125.97 111.04 C 123.95 112.79 121.95 114.54 119.92 116.28 C 123.64 129.73 128.61 142.83 132.87 156.12 C 152.87 144.45 165.54 121.97 166.37 98.98 C 167.34 78.09 158.75 56.83 143.13 42.85 C 128.71 29.83 108.69 23.49 89.39 25.49 M 106.99 78.30 C 107.97 81.39 108.99 84.46 110.00 87.54 C 111.62 84.23 116.10 82.05 119.17 84.87 C 121.63 87.82 123.19 91.44 125.82 94.28 C 129.50 89.33 132.69 84.01 135.04 78.30 C 125.69 78.32 116.34 78.32 106.99 78.30 M 112.71 95.09 C 113.61 98.51 114.73 101.87 116.00 105.18 C 120.50 102.01 114.55 98.05 112.71 95.09 Z" />
<path fill="#539acb" opacity="1.00" d=" M 36.57 95.84 C 39.05 77.43 62.35 65.70 78.41 75.47 C 81.69 77.30 86.40 79.89 85.45 84.39 C 84.62 88.74 78.95 90.10 75.88 87.11 C 69.29 81.90 58.96 81.90 52.80 87.81 C 44.66 95.07 45.76 110.16 55.31 115.72 C 64.46 121.65 78.60 117.31 81.65 106.48 C 75.48 106.16 69.22 107.05 63.11 106.09 C 57.60 104.66 58.41 95.68 64.11 95.31 C 72.07 94.98 80.06 95.14 88.03 95.21 C 91.15 95.15 93.78 97.94 93.64 101.03 C 93.92 117.53 77.40 132.10 61.01 129.31 C 45.53 127.33 33.33 111.35 36.57 95.84 Z" />
</g>
</svg>
