<?xml version="1.0" encoding="UTF-8" ?>
<!DOCTYPE svg PUBLIC "-//W3C//DTD SVG 1.1//EN" "http://www.w3.org/Graphics/SVG/1.1/DTD/svg11.dtd">
<svg width="192pt" height="192pt" viewBox="0 0 192 192" version="1.1" xmlns="http://www.w3.org/2000/svg">
<g id="#42dc79ff">
<path fill="#42dc79" opacity="1.00" d=" M 18.13 37.94 C 17.78 27.77 26.85 18.60 37.02 18.76 C 54.28 18.82 71.56 18.46 88.81 18.94 C 92.09 27.93 95.12 36.99 98.26 46.02 C 114.17 46.27 130.09 46.06 146.00 46.12 C 151.37 46.24 157.07 45.48 162.06 47.94 C 168.97 51.03 173.42 58.46 173.19 65.99 C 173.17 95.67 173.25 125.36 173.15 155.04 C 173.14 165.08 164.16 174.07 154.06 173.77 C 135.77 173.76 117.48 173.89 99.19 173.70 C 95.69 164.71 92.90 155.47 89.53 146.44 C 72.03 146.40 54.52 146.48 37.02 146.40 C 27.20 146.49 18.29 137.92 18.15 128.07 C 18.07 98.03 18.14 67.98 18.13 37.94 M 29.57 37.97 C 29.53 67.65 29.54 97.33 29.57 127.01 C 29.31 131.50 33.52 135.30 37.92 134.94 C 64.24 134.96 90.56 134.98 116.88 134.92 C 104.83 100.03 92.79 65.13 80.64 30.27 C 66.09 30.27 51.53 30.20 36.98 30.30 C 32.93 30.19 29.43 33.98 29.57 37.97 M 102.32 57.61 C 103.84 62.02 105.27 66.46 106.93 70.81 C 118.29 71.05 129.68 70.57 141.03 71.05 C 148.67 71.84 149.23 84.10 141.68 85.56 C 131.85 86.23 121.96 85.62 112.11 85.82 C 113.32 89.51 114.59 93.19 115.88 96.85 C 126.23 97.20 136.60 96.64 146.93 97.14 C 153.96 98.60 154.39 109.56 147.46 111.53 C 138.74 112.35 129.90 111.61 121.13 111.86 C 124.41 121.89 128.11 131.79 131.35 141.84 C 125.93 148.66 120.48 155.46 115.04 162.26 C 128.04 162.35 141.03 162.34 154.03 162.29 C 158.36 162.44 161.99 158.31 161.63 154.06 C 161.59 124.68 161.76 95.30 161.67 65.93 C 162.05 61.63 158.34 57.59 154.03 57.64 C 136.80 57.57 119.56 57.62 102.32 57.61 M 101.84 146.46 C 102.85 149.71 103.96 152.93 105.12 156.13 C 107.84 152.99 110.37 149.68 112.93 146.41 C 109.23 146.43 105.53 146.43 101.84 146.46 Z" />
<path fill="#42dc79" opacity="1.00" d=" M 59.32 61.44 C 63.87 59.64 69.54 62.98 69.51 68.01 C 69.49 78.20 69.77 88.43 69.39 98.62 C 68.10 105.99 56.61 106.19 54.96 98.92 C 54.27 89.32 54.89 79.63 54.66 70.00 C 54.31 66.55 55.91 62.71 59.32 61.44 Z" />
</g>
</svg>
