<?xml version="1.0" encoding="UTF-8" ?>
<!DOCTYPE svg PUBLIC "-//W3C//DTD SVG 1.1//EN" "http://www.w3.org/Graphics/SVG/1.1/DTD/svg11.dtd">
<svg width="192pt" height="192pt" viewBox="0 0 192 192" version="1.1" xmlns="http://www.w3.org/2000/svg">
<g id="#5890d4ff">
<path fill="#5890d4" opacity="1.00" d=" M 119.88 24.37 C 130.12 13.01 148.43 10.52 161.38 18.60 C 173.99 25.89 180.57 41.86 176.68 55.91 C 175.02 62.96 170.23 68.62 167.26 75.07 C 166.86 94.70 167.21 114.36 167.09 134.00 C 166.92 139.90 167.81 146.04 165.63 151.68 C 162.46 160.53 153.42 166.83 143.99 166.58 C 111.67 166.59 79.35 166.64 47.03 166.52 C 35.21 166.48 24.90 155.81 25.03 144.04 C 24.94 111.69 25.04 79.33 25.05 46.98 C 24.76 35.17 35.07 24.33 46.93 24.29 C 71.25 24.30 95.57 24.08 119.88 24.37 M 139.30 25.36 C 125.62 27.95 117.20 44.68 123.80 57.10 C 130.20 68.68 136.93 80.09 143.59 91.52 C 143.86 91.59 144.39 91.74 144.66 91.81 C 150.92 81.02 157.12 70.18 163.37 59.38 C 167.43 52.69 167.96 43.84 164.14 36.93 C 159.70 28.11 148.93 22.93 139.30 25.36 M 36.36 46.93 C 36.28 79.97 36.36 113.02 36.33 146.07 C 38.81 145.19 40.28 142.86 42.16 141.15 C 66.93 116.42 91.54 91.50 116.42 66.88 C 110.73 57.54 108.81 45.89 112.70 35.48 C 91.11 35.68 69.52 35.49 47.93 35.56 C 41.82 35.31 36.15 40.78 36.36 46.93 M 104.32 94.99 C 121.34 112.09 138.22 129.37 155.56 146.14 C 155.89 129.04 155.70 111.93 155.65 94.83 C 153.15 98.97 151.05 103.35 148.30 107.32 C 146.08 110.19 141.24 109.72 139.53 106.54 C 133.79 96.76 128.12 86.93 122.57 77.03 C 116.13 82.62 110.43 89.03 104.32 94.99 M 96.21 103.08 C 79.09 120.40 61.68 137.44 44.71 154.91 C 79.00 155.27 113.33 155.33 147.61 154.83 C 130.75 137.32 113.32 120.34 96.21 103.08 Z" />
</g>
</svg>
