<?xml version="1.0" encoding="UTF-8" ?>
<!DOCTYPE svg PUBLIC "-//W3C//DTD SVG 1.1//EN" "http://www.w3.org/Graphics/SVG/1.1/DTD/svg11.dtd">
<svg width="192pt" height="192pt" viewBox="0 0 192 192" version="1.1" xmlns="http://www.w3.org/2000/svg">
<g id="#ff3661ff">
<path fill="#ff3661" opacity="1.00" d=" M 52.35 41.39 C 70.21 39.29 87.05 51.56 104.84 46.78 C 117.59 44.48 130.60 38.45 143.64 42.35 C 156.46 46.71 164.01 59.39 168.60 71.39 C 175.19 89.50 178.96 109.00 177.34 128.31 C 176.78 137.84 171.25 149.37 160.36 149.59 C 146.66 149.44 135.76 139.52 125.87 131.16 C 119.21 124.10 109.33 121.58 99.97 120.89 C 89.55 120.35 78.33 121.57 69.50 127.57 C 59.17 136.37 48.72 146.62 34.97 149.44 C 24.75 151.66 15.93 142.80 14.66 133.18 C 11.40 113.99 15.29 94.26 21.01 75.90 C 26.04 61.08 35.19 43.77 52.35 41.39 M 133.37 52.53 C 118.05 53.23 103.40 61.62 87.85 58.40 C 76.50 56.96 65.62 51.41 54.01 52.71 C 42.14 54.98 36.30 67.17 32.48 77.41 C 27.01 93.28 23.83 110.25 25.07 127.06 C 25.52 131.57 26.95 138.99 33.01 138.13 C 48.45 135.03 56.88 119.67 71.00 114.02 C 88.91 107.16 110.61 107.53 127.13 117.89 C 136.04 125.06 144.13 133.94 155.19 137.85 C 157.86 138.73 161.70 139.21 163.34 136.29 C 166.68 130.50 166.47 123.49 166.39 117.02 C 165.42 100.79 162.37 84.39 155.44 69.59 C 151.39 60.93 143.89 51.94 133.37 52.53 Z" />
<path fill="#ff3661" opacity="1.00" d=" M 123.22 69.19 C 129.75 65.58 135.28 76.45 128.63 79.61 C 121.94 83.71 116.14 72.23 123.22 69.19 Z" />
<path fill="#ff3661" opacity="1.00" d=" M 59.33 82.02 C 58.88 77.73 59.05 70.86 64.96 70.94 C 70.75 70.85 71.17 77.59 70.64 81.85 C 73.24 82.01 75.93 81.77 78.45 82.53 C 82.15 83.96 83.02 89.41 79.96 91.93 C 77.32 94.07 73.68 93.10 70.56 93.55 C 71.22 97.81 70.80 104.53 65.01 104.48 C 58.96 104.48 59.10 97.61 59.12 93.28 C 54.68 94.09 47.55 93.13 48.14 87.12 C 48.65 81.55 55.19 81.75 59.33 82.02 Z" />
<path fill="#ff3661" opacity="1.00" d=" M 113.35 80.47 C 117.19 79.97 120.66 83.89 119.63 87.65 C 118.81 92.34 111.88 93.73 109.22 89.82 C 106.35 86.44 108.93 80.63 113.35 80.47 Z" />
<path fill="#ff3661" opacity="1.00" d=" M 137.34 80.45 C 144.92 79.62 145.66 92.10 138.00 92.16 C 130.50 92.90 129.76 80.48 137.34 80.45 Z" />
<path fill="#ff3661" opacity="1.00" d=" M 124.38 92.42 C 131.88 90.16 134.65 102.85 126.88 103.82 C 119.69 105.60 117.19 93.76 124.38 92.42 Z" />
</g>
</svg>
