<?xml version="1.0" encoding="UTF-8" ?>
<!DOCTYPE svg PUBLIC "-//W3C//DTD SVG 1.1//EN" "http://www.w3.org/Graphics/SVG/1.1/DTD/svg11.dtd">
<svg width="192pt" height="192pt" viewBox="0 0 192 192" version="1.1" xmlns="http://www.w3.org/2000/svg">
<g id="#1cb5ffff">
<path fill="#1cb5ff" opacity="1.00" d=" M 36.89 38.90 C 57.35 17.11 90.31 8.27 118.91 17.07 C 139.71 23.15 157.75 37.92 168.00 57.00 C 181.09 80.70 181.15 111.15 167.80 134.74 C 164.34 139.93 155.41 135.02 158.21 129.28 C 166.67 113.11 169.01 93.75 163.84 76.17 C 158.63 57.62 145.41 41.54 128.27 32.75 C 109.52 22.95 86.31 22.37 67.05 31.09 C 41.00 42.42 23.47 70.61 25.37 99.04 C 26.31 131.46 52.42 160.64 84.46 165.43 C 83.99 160.85 85.14 155.97 83.33 151.61 C 76.73 140.73 67.83 131.22 61.96 119.91 C 59.27 105.38 58.04 90.55 55.63 75.95 C 54.48 71.56 59.01 68.58 62.95 69.43 C 67.55 70.10 73.94 67.51 77.10 71.98 C 79.72 82.47 79.39 93.63 83.19 103.86 C 87.79 117.75 100.50 128.28 115.00 130.21 C 128.81 131.94 143.25 134.70 154.40 143.64 C 156.83 145.17 158.02 148.65 156.10 151.06 C 134.43 175.57 97.22 184.16 66.84 172.21 C 46.42 164.54 29.45 148.29 20.83 128.27 C 7.65 98.81 14.19 61.88 36.89 38.90 Z" />
<path fill="#1cb5ff" opacity="1.00" d=" M 118.37 57.44 C 135.30 54.46 152.68 67.89 154.13 84.99 C 156.64 102.45 141.70 119.75 124.06 119.77 C 107.46 120.88 92.03 106.54 91.65 89.96 C 90.55 74.37 102.88 59.40 118.37 57.44 M 120.39 68.49 C 112.15 69.44 105.00 76.00 103.31 84.12 C 101.21 92.74 105.77 102.35 113.68 106.32 C 120.90 110.21 130.41 108.97 136.42 103.40 C 143.15 97.57 145.05 87.07 140.84 79.24 C 137.15 71.84 128.58 67.34 120.39 68.49 Z" />
</g>
</svg>
