<?xml version="1.0" encoding="UTF-8" ?>
<!DOCTYPE svg PUBLIC "-//W3C//DTD SVG 1.1//EN" "http://www.w3.org/Graphics/SVG/1.1/DTD/svg11.dtd">
<svg width="192pt" height="192pt" viewBox="0 0 192 192" version="1.1" xmlns="http://www.w3.org/2000/svg">
<g id="#fb9723ff">
<path fill="#fb9723" opacity="1.00" d=" M 25.09 35.92 C 24.83 25.92 36.05 17.90 45.40 21.64 C 54.07 25.66 62.22 30.75 70.80 34.98 C 87.28 25.96 108.34 25.96 124.71 35.26 C 141.03 44.07 152.22 61.36 153.88 79.81 C 161.85 82.84 168.06 91.29 165.25 100.01 C 164.07 104.37 160.75 107.86 156.76 109.84 C 120.16 129.51 83.65 149.37 47.00 168.98 C 37.79 174.01 25.33 166.46 25.13 156.09 C 24.96 116.04 25.08 75.97 25.09 35.92 M 36.35 36.09 C 36.27 75.74 36.30 115.39 36.34 155.03 C 36.09 158.16 40.05 160.37 42.62 158.54 C 54.76 152.04 66.90 145.54 78.96 138.89 C 59.61 132.14 44.65 114.33 41.72 94.00 C 38.46 74.98 45.98 54.97 60.25 42.15 C 54.26 39.04 48.40 35.66 42.38 32.60 C 39.86 31.09 36.14 33.07 36.35 36.09 M 88.37 40.48 C 75.34 43.09 63.77 51.89 57.59 63.62 C 49.76 78.00 50.61 96.65 59.77 110.24 C 67.10 121.51 79.68 129.21 93.10 130.40 C 94.84 130.74 96.30 129.56 97.77 128.84 C 110.70 121.71 123.85 114.94 136.71 107.67 C 143.40 96.72 144.46 82.70 140.47 70.59 C 133.83 49.37 110.13 35.42 88.37 40.48 M 153.79 92.61 C 153.21 94.88 152.72 97.18 152.41 99.52 C 154.69 97.89 155.01 95.00 153.79 92.61 Z" />
<path fill="#fb9723" opacity="1.00" d=" M 97.58 57.51 C 102.84 57.47 108.10 57.31 113.35 57.60 C 113.36 61.35 113.40 65.10 113.36 68.85 C 110.09 68.86 106.80 68.66 103.55 69.12 C 103.58 77.74 103.68 86.36 103.53 94.98 C 103.37 101.87 95.61 106.74 89.23 104.82 C 82.45 102.85 79.26 93.41 84.01 87.97 C 87.15 83.77 92.94 83.14 97.57 85.02 C 97.57 75.85 97.55 66.68 97.58 57.51 Z" />
</g>
</svg>
