<?xml version="1.0" encoding="UTF-8" ?>
<!DOCTYPE svg PUBLIC "-//W3C//DTD SVG 1.1//EN" "http://www.w3.org/Graphics/SVG/1.1/DTD/svg11.dtd">
<svg width="192pt" height="192pt" viewBox="0 0 192 192" version="1.1" xmlns="http://www.w3.org/2000/svg">
<g id="#4ea9c7ff">
<path fill="#4ea9c7" opacity="1.00" d=" M 30.25 34.97 C 30.57 27.46 37.42 21.05 44.92 21.10 C 78.30 21.02 111.69 21.05 145.08 21.08 C 152.73 20.86 159.75 27.35 160.23 34.98 C 160.53 40.24 160.27 45.52 160.32 50.79 C 166.50 53.59 171.45 59.89 170.48 66.96 C 168.45 79.68 165.05 92.20 163.29 104.94 C 165.44 120.54 168.38 136.03 170.56 151.63 C 171.66 160.39 163.76 168.50 155.04 168.13 C 115.00 168.09 74.96 168.21 34.93 168.07 C 26.32 168.08 18.96 159.65 20.30 151.12 C 22.55 135.71 25.36 120.37 27.54 104.95 C 25.77 92.22 22.40 79.69 20.35 66.98 C 19.42 60.11 24.01 53.70 30.16 51.04 C 30.24 45.68 30.01 40.32 30.25 34.97 M 42.15 33.16 C 39.70 38.37 41.26 44.66 40.94 50.30 C 77.09 50.35 113.25 50.31 149.41 50.27 C 148.75 44.57 150.97 38.02 148.03 32.91 C 142.90 30.69 136.90 32.04 131.44 32.08 C 132.02 35.95 131.08 41.79 126.00 41.55 C 121.00 41.71 120.03 35.99 120.55 32.14 C 103.70 31.41 86.78 31.89 69.91 31.90 C 70.36 35.93 69.37 42.09 63.98 41.54 C 59.03 41.27 58.70 35.56 58.73 31.78 C 53.28 32.39 47.11 30.40 42.15 33.16 M 34.29 61.42 C 31.86 61.79 30.72 64.59 31.35 66.80 C 33.59 79.28 36.60 91.64 38.61 104.14 C 36.65 120.47 33.23 136.64 31.19 152.96 C 30.93 156.06 34.34 157.54 36.98 157.17 C 76.34 157.11 115.70 157.17 155.07 157.07 C 157.75 157.42 160.19 154.72 159.53 152.09 C 157.26 136.04 154.13 120.09 152.12 104.02 C 154.23 91.23 157.39 78.59 159.51 65.80 C 159.93 62.80 156.78 60.79 154.06 61.25 C 114.14 61.37 74.20 61.02 34.29 61.42 Z" />
<path fill="#4ea9c7" opacity="1.00" d=" M 66.59 88.59 C 70.10 84.48 76.19 85.23 81.04 85.13 C 85.47 85.07 91.46 86.08 92.66 91.16 C 94.04 97.01 94.44 104.27 89.89 108.90 C 85.95 113.10 81.62 116.92 77.64 121.09 C 82.77 121.17 87.91 121.03 93.04 121.20 C 93.19 123.73 95.03 128.98 91.01 129.02 C 82.50 129.03 73.90 129.67 65.44 128.55 C 65.61 125.92 64.56 122.70 66.57 120.57 C 71.76 115.09 77.48 110.14 82.69 104.70 C 85.23 102.16 84.78 98.24 84.40 95.00 C 80.63 90.39 71.30 92.94 73.11 99.79 C 70.49 99.80 67.84 100.06 65.25 99.59 C 63.81 96.15 64.81 91.81 66.59 88.59 Z" />
<path fill="#4ea9c7" opacity="1.00" d=" M 100.01 90.03 C 101.60 86.18 106.19 85.21 109.93 85.13 C 114.64 85.13 119.77 84.53 124.06 86.91 C 127.57 89.21 127.69 93.78 127.63 97.54 C 124.89 98.36 122.05 98.19 119.26 97.81 C 118.88 96.45 118.52 95.09 118.17 93.72 C 114.90 93.32 110.06 91.69 107.93 95.09 C 107.31 97.94 107.65 100.89 107.52 103.78 C 114.22 100.63 127.03 100.39 128.19 110.00 C 128.58 115.45 129.42 121.54 126.53 126.48 C 123.27 130.32 117.59 130.06 113.00 130.18 C 108.59 129.97 102.77 130.08 100.29 125.66 C 97.81 120.13 99.02 113.87 98.75 108.00 C 99.02 102.03 97.90 95.77 100.01 90.03 M 110.22 110.28 C 106.44 111.23 107.68 116.15 107.70 119.02 C 108.48 123.12 113.86 122.22 116.91 121.83 C 120.84 121.01 119.48 116.04 119.53 113.16 C 118.96 108.88 113.24 110.17 110.22 110.28 Z" />
</g>
</svg>
