<?xml version="1.0" encoding="UTF-8" ?>
<!DOCTYPE svg PUBLIC "-//W3C//DTD SVG 1.1//EN" "http://www.w3.org/Graphics/SVG/1.1/DTD/svg11.dtd">
<svg width="192pt" height="192pt" viewBox="0 0 192 192" version="1.1" xmlns="http://www.w3.org/2000/svg">
<g id="#4970c2ff">
<path fill="#4970c2" opacity="1.00" d=" M 85.33 14.42 C 117.01 9.84 150.23 26.05 166.33 53.66 C 178.66 74.05 181.29 99.92 173.44 122.41 C 163.81 151.11 137.09 173.08 107.04 176.84 C 75.67 181.51 42.62 165.85 26.28 138.70 C 8.36 110.51 10.45 71.44 31.32 45.35 C 44.35 28.49 64.17 17.07 85.33 14.42 M 87.38 25.46 C 64.78 27.97 44.10 42.39 33.52 62.45 C 22.20 83.34 22.59 110.01 34.48 130.56 C 48.30 155.49 78.16 170.16 106.33 165.46 C 137.46 161.48 163.51 134.19 166.21 102.95 C 168.88 79.55 158.76 55.32 140.36 40.67 C 125.73 28.58 106.16 23.28 87.38 25.46 Z" />
<path fill="#4970c2" opacity="1.00" d=" M 41.17 89.15 C 42.83 82.35 48.79 77.64 55.10 75.31 C 56.25 77.59 57.38 79.88 58.49 82.19 C 52.93 84.07 48.56 88.99 48.98 95.12 C 51.69 95.15 54.40 95.17 57.11 95.18 C 57.30 100.84 57.23 106.51 57.22 112.18 C 51.53 112.24 45.84 112.32 40.15 112.09 C 40.36 104.45 39.48 96.67 41.17 89.15 Z" />
<path fill="#4970c2" opacity="1.00" d=" M 69.68 88.62 C 71.48 82.07 77.35 77.68 83.40 75.27 C 84.62 77.57 85.77 79.91 86.87 82.26 C 81.29 84.02 77.22 88.91 77.18 94.87 C 79.94 95.11 82.72 95.22 85.49 95.17 C 85.59 100.80 85.53 106.43 85.58 112.06 C 79.88 112.36 74.16 112.30 68.46 112.04 C 68.68 104.24 67.74 96.27 69.68 88.62 Z" />
<path fill="#4970c2" opacity="1.00" d=" M 101.78 76.21 C 107.44 76.19 113.11 76.18 118.77 76.21 C 118.69 83.19 119.21 90.22 118.28 97.16 C 117.26 104.84 110.91 111.04 103.59 112.98 C 102.55 110.67 101.50 108.36 100.47 106.05 C 106.12 104.37 110.24 99.36 110.02 93.35 C 107.27 93.35 104.52 93.31 101.77 93.25 C 101.72 87.57 101.72 81.89 101.78 76.21 Z" />
<path fill="#4970c2" opacity="1.00" d=" M 130.35 76.21 C 136.02 76.16 141.69 76.18 147.36 76.18 C 147.36 83.60 147.97 91.14 146.54 98.47 C 145.10 105.62 138.96 110.86 132.28 113.10 C 131.14 110.76 130.04 108.40 128.99 106.03 C 134.55 104.30 138.76 99.43 138.60 93.42 C 135.84 93.38 133.07 93.30 130.31 93.19 C 130.33 87.53 130.30 81.87 130.35 76.21 Z" />
</g>
</svg>
