<?xml version="1.0" encoding="UTF-8" ?>
<!DOCTYPE svg PUBLIC "-//W3C//DTD SVG 1.1//EN" "http://www.w3.org/Graphics/SVG/1.1/DTD/svg11.dtd">
<svg width="192pt" height="192pt" viewBox="0 0 192 192" version="1.1" xmlns="http://www.w3.org/2000/svg">
<g id="#3eb0d0ff">
<path fill="#3eb0d0" opacity="1.00" d=" M 30.34 34.13 C 31.18 26.61 38.41 20.67 45.94 21.11 C 78.98 21.11 112.03 21.07 145.08 21.14 C 152.35 20.97 159.11 26.82 160.05 34.02 C 160.68 39.75 160.02 45.54 160.42 51.29 C 166.98 53.81 171.62 60.88 170.36 67.96 C 168.17 80.31 165.26 92.55 163.22 104.91 C 165.27 120.86 168.37 136.69 170.55 152.63 C 171.51 161.36 163.73 169.33 155.06 169.10 C 115.36 169.12 75.65 169.17 35.95 169.08 C 27.34 169.41 19.43 161.65 20.23 152.95 C 22.35 136.93 25.47 121.03 27.58 105.01 C 25.51 92.30 22.40 79.76 20.32 67.05 C 19.47 60.11 24.25 53.99 30.24 51.09 C 30.21 45.44 29.98 39.77 30.34 34.13 M 42.18 33.18 C 39.53 38.39 41.22 44.84 41.05 50.54 C 77.19 50.44 113.33 50.67 149.47 50.39 C 148.66 44.70 151.09 38.03 148.00 32.99 C 142.90 30.70 136.88 32.14 131.41 32.00 C 131.96 35.89 131.13 41.84 126.00 41.65 C 120.91 41.83 120.06 35.90 120.55 32.01 C 103.64 31.56 86.71 31.98 69.79 31.81 C 70.35 35.83 69.50 42.05 64.13 41.65 C 59.04 41.57 58.69 35.64 58.79 31.83 C 53.33 32.42 47.15 30.45 42.18 33.18 M 33.23 62.07 C 31.43 62.95 30.88 65.11 31.29 66.96 C 33.53 79.67 36.62 92.25 38.59 105.00 C 36.46 121.03 33.44 136.96 31.18 152.98 C 30.50 155.75 33.18 158.40 35.92 158.00 C 75.63 157.98 115.35 158.04 155.07 157.97 C 157.70 158.28 160.13 155.69 159.56 153.08 C 157.26 137.02 154.31 121.05 152.09 104.98 C 154.12 92.11 157.23 79.40 159.49 66.57 C 160.11 63.94 157.67 61.27 155.01 61.55 C 116.01 61.45 77.00 61.55 38.00 61.47 C 36.42 61.61 34.65 61.20 33.23 62.07 Z" />
<path fill="#3eb0d0" opacity="1.00" d=" M 81.45 92.13 C 81.94 87.91 86.19 85.42 90.14 85.33 C 95.21 85.21 100.60 84.53 105.41 86.56 C 109.41 88.63 109.76 93.58 109.59 97.55 C 106.86 97.94 104.10 97.92 101.35 97.79 C 100.96 96.44 100.58 95.09 100.21 93.74 C 96.85 92.76 92.14 91.58 89.77 95.03 C 89.37 97.96 89.56 100.94 89.49 103.89 C 96.15 100.70 108.99 100.39 110.18 109.99 C 110.46 115.76 111.79 122.85 107.55 127.52 C 101.52 131.29 93.70 130.41 87.00 129.21 C 81.57 127.96 80.66 121.65 80.75 116.99 C 81.05 108.71 80.12 100.34 81.45 92.13 M 92.22 110.17 C 88.14 111.45 89.70 116.75 89.80 119.96 C 91.46 122.86 95.28 122.20 98.07 122.03 C 103.20 121.62 101.66 115.16 101.27 111.69 C 99.03 109.28 95.18 109.60 92.22 110.17 Z" />
</g>
</svg>
