<?xml version="1.0" encoding="UTF-8" ?>
<!DOCTYPE svg PUBLIC "-//W3C//DTD SVG 1.1//EN" "http://www.w3.org/Graphics/SVG/1.1/DTD/svg11.dtd">
<svg width="192pt" height="192pt" viewBox="0 0 192 192" version="1.1" xmlns="http://www.w3.org/2000/svg">
<g id="#46a3d7ff">
<path fill="#46a3d7" opacity="1.00" d=" M 48.91 32.00 C 48.99 23.65 56.68 16.37 65.02 16.73 C 85.67 16.74 106.32 16.70 126.97 16.73 C 135.19 16.52 142.67 23.71 142.80 31.92 C 142.93 45.60 142.81 59.28 142.87 72.96 C 148.94 73.25 155.02 72.92 161.10 73.13 C 168.66 73.34 175.13 80.42 174.77 87.97 C 174.78 111.67 174.81 135.37 174.75 159.06 C 174.96 166.88 167.81 173.70 160.06 173.50 C 117.36 173.52 74.65 173.52 31.94 173.51 C 24.15 173.77 16.97 166.91 17.13 159.07 C 17.09 135.02 17.04 110.96 17.15 86.91 C 17.25 77.93 26.50 71.63 35.02 73.02 C 40.05 71.80 44.63 78.01 41.06 82.14 C 38.06 86.72 30.10 81.45 28.42 87.10 C 28.16 110.73 28.37 134.39 28.32 158.03 C 27.97 160.22 29.63 162.53 32.00 162.28 C 74.66 162.34 117.34 162.35 160.00 162.29 C 162.35 162.54 163.90 160.16 163.59 158.02 C 163.58 134.67 163.66 111.31 163.56 87.95 C 163.77 86.01 162.05 84.09 160.06 84.34 C 154.28 84.32 148.49 84.12 142.72 84.48 C 142.05 88.23 140.31 91.86 137.33 94.31 C 124.90 104.55 112.46 114.79 100.03 125.03 C 97.84 127.24 94.10 127.36 91.84 125.18 C 79.58 115.10 67.34 104.97 55.08 94.89 C 51.18 91.83 48.73 86.98 48.85 82.00 C 48.91 65.33 48.79 48.66 48.91 32.00 M 60.16 33.95 C 60.49 50.72 59.49 67.67 60.66 84.34 C 71.84 94.67 84.17 103.85 95.79 113.74 C 106.63 104.96 117.31 95.99 128.12 87.18 C 129.71 85.87 131.66 84.37 131.44 82.05 C 131.50 65.69 131.50 49.32 131.46 32.96 C 131.61 30.52 129.64 27.94 127.05 28.15 C 106.36 28.10 85.66 28.12 64.97 28.14 C 61.71 27.68 59.69 31.04 60.16 33.95 Z" />
<path fill="#46a3d7" opacity="1.00" d=" M 72.20 44.20 C 86.35 42.97 100.74 44.00 114.99 43.64 C 119.29 43.05 123.63 46.50 123.23 51.01 C 123.08 59.30 123.71 67.67 122.89 75.92 C 120.30 82.83 111.60 80.36 105.94 80.67 C 100.09 80.81 99.27 73.99 95.91 70.84 C 91.60 72.67 91.81 80.57 85.90 80.58 C 80.05 80.38 70.88 83.00 68.26 75.79 C 67.39 67.92 68.12 59.92 67.87 52.00 C 67.56 48.81 69.10 45.41 72.20 44.20 M 81.16 57.14 C 77.88 58.46 76.63 63.17 79.27 65.71 C 81.68 68.79 87.05 67.60 88.14 63.91 C 89.92 59.87 85.14 55.35 81.16 57.14 M 105.39 57.52 C 101.90 59.35 101.83 64.90 105.35 66.74 C 108.33 68.72 112.77 66.53 113.20 63.02 C 114.16 58.86 108.99 55.13 105.39 57.52 Z" />
</g>
</svg>
