<?xml version="1.0" encoding="UTF-8" ?>
<!DOCTYPE svg PUBLIC "-//W3C//DTD SVG 1.1//EN" "http://www.w3.org/Graphics/SVG/1.1/DTD/svg11.dtd">
<svg width="192pt" height="192pt" viewBox="0 0 192 192" version="1.1" xmlns="http://www.w3.org/2000/svg">
<g id="#4298e2ff">
<path fill="#4298e2" opacity="1.00" d=" M 21.06 40.95 C 20.88 30.79 29.88 21.69 40.04 21.72 C 52.02 21.61 64.01 21.66 76.00 21.69 C 78.22 21.50 80.31 22.56 81.48 24.44 C 85.11 29.69 88.60 35.03 92.10 40.37 C 108.24 40.69 124.42 40.11 140.54 40.64 C 146.49 41.64 145.97 51.40 139.90 51.65 C 123.94 51.92 107.96 51.64 92.00 51.76 C 89.40 51.79 86.20 51.91 84.66 49.35 C 80.90 44.03 77.45 38.50 73.76 33.13 C 62.49 33.14 51.23 33.08 39.96 33.15 C 35.40 33.00 31.90 37.58 32.32 41.94 C 32.39 78.25 32.19 114.57 32.43 150.88 C 33.00 157.65 40.86 157.73 45.98 157.21 C 46.02 132.12 45.95 107.04 46.02 81.95 C 45.76 73.30 53.34 65.40 62.03 65.49 C 92.35 65.40 122.67 65.45 152.99 65.43 C 161.58 64.99 169.66 72.28 169.85 80.92 C 170.04 103.96 170.25 127.00 169.96 150.04 C 170.09 159.72 161.75 168.51 152.01 168.55 C 114.34 168.62 76.66 168.60 38.99 168.53 C 29.26 168.54 20.81 159.73 21.01 150.04 C 20.99 113.68 21.02 77.31 21.06 40.95 M 57.37 81.98 C 57.24 107.00 57.42 132.03 57.29 157.06 C 88.52 157.41 119.78 157.13 151.02 157.16 C 155.42 157.55 159.02 153.33 158.58 149.07 C 158.57 126.71 158.67 104.34 158.55 81.98 C 158.68 79.00 155.97 76.52 153.02 76.79 C 123.01 76.74 92.99 76.74 62.98 76.75 C 59.99 76.42 57.13 78.92 57.37 81.98 Z" />
<path fill="#4298e2" opacity="1.00" d=" M 79.24 114.01 C 80.03 93.84 105.95 81.12 122.56 92.48 C 126.51 95.68 123.19 102.89 118.14 101.71 C 113.20 100.30 108.02 97.41 102.83 99.71 C 90.04 102.94 85.23 121.01 94.93 130.08 C 103.17 139.54 121.73 136.48 124.11 123.37 C 119.79 123.11 115.36 123.82 111.11 122.89 C 106.57 121.69 107.12 113.31 112.09 113.34 C 118.74 113.15 125.40 113.19 132.05 113.29 C 134.52 113.23 136.76 115.57 136.62 118.02 C 136.67 126.47 132.32 134.58 126.09 140.11 C 115.84 148.79 99.42 148.44 89.30 139.71 C 81.69 133.60 77.97 123.65 79.24 114.01 Z" />
</g>
</svg>
