<?xml version="1.0" encoding="UTF-8" ?>
<!DOCTYPE svg PUBLIC "-//W3C//DTD SVG 1.1//EN" "http://www.w3.org/Graphics/SVG/1.1/DTD/svg11.dtd">
<svg width="192pt" height="192pt" viewBox="0 0 192 192" version="1.1" xmlns="http://www.w3.org/2000/svg">
<g id="#4ca0dbff">
<path fill="#4ca0db" opacity="1.00" d=" M 109.84 23.85 C 111.42 21.49 114.49 21.65 117.00 21.64 C 128.66 21.77 140.33 21.47 151.98 21.78 C 161.73 22.28 170.01 31.20 169.87 40.95 C 169.94 73.97 169.86 106.98 170.08 140.00 C 169.92 146.26 170.85 153.00 167.75 158.73 C 164.66 164.85 157.88 168.73 151.06 168.59 C 113.71 168.58 76.35 168.61 39.00 168.54 C 29.27 168.54 20.83 159.74 21.02 150.05 C 21.04 127.00 20.96 103.95 21.09 80.91 C 21.27 72.60 28.77 65.49 37.03 65.51 C 67.67 65.43 98.32 65.42 128.96 65.48 C 137.61 65.45 145.16 73.32 144.88 81.94 C 144.97 107.01 144.80 132.09 145.09 157.16 C 150.18 157.73 157.89 157.49 158.47 150.84 C 158.76 114.55 158.53 78.23 158.60 41.93 C 158.98 37.60 155.52 33.16 151.04 33.15 C 139.75 33.08 128.46 33.13 117.17 33.14 C 113.49 38.48 110.03 43.97 106.34 49.30 C 104.08 52.78 99.46 51.49 96.00 51.75 C 92.52 51.47 87.95 52.80 85.57 49.44 C 83.23 46.50 84.84 41.61 88.49 40.71 C 91.89 40.16 95.37 40.61 98.81 40.36 C 102.44 34.83 106.01 29.24 109.84 23.85 M 32.35 81.98 C 32.30 104.66 32.30 127.34 32.36 150.02 C 32.19 154.06 35.96 157.61 39.99 157.23 C 71.18 157.11 102.39 157.45 133.57 157.01 C 133.47 132.00 133.60 106.99 133.52 81.98 C 133.71 79.02 130.97 76.47 128.03 76.77 C 98.02 76.74 68.00 76.72 37.98 76.73 C 34.99 76.37 32.09 78.92 32.35 81.98 Z" />
<path fill="#4ca0db" opacity="1.00" d=" M 24.20 41.25 C 30.02 40.36 36.07 40.66 41.94 41.05 C 47.17 42.23 47.19 50.71 41.94 51.91 C 36.34 52.30 30.65 52.26 25.04 51.93 C 20.11 50.88 19.56 43.11 24.20 41.25 Z" />
<path fill="#4ca0db" opacity="1.00" d=" M 55.40 41.51 C 61.18 40.37 67.15 40.71 72.99 40.94 C 78.53 41.59 79.19 50.37 73.80 51.84 C 68.57 52.60 63.24 51.51 57.96 51.82 C 52.39 52.48 50.65 43.86 55.40 41.51 Z" />
<path fill="#4ca0db" opacity="1.00" d=" M 55.21 117.00 C 54.53 100.53 70.77 86.23 87.02 88.44 C 91.45 89.02 96.40 90.10 99.60 93.43 C 102.73 97.35 98.05 103.46 93.39 101.51 C 88.34 99.33 82.56 97.66 77.33 100.33 C 65.20 104.85 62.03 122.65 72.06 130.94 C 80.92 139.51 97.53 135.75 100.76 123.48 C 96.23 122.98 91.54 123.92 87.12 122.82 C 82.71 121.36 83.29 113.66 88.09 113.35 C 95.27 113.23 102.51 112.96 109.67 113.47 C 114.58 115.39 112.70 121.77 111.76 125.68 C 108.14 138.82 94.67 148.27 81.01 146.28 C 66.63 145.01 54.32 131.57 55.21 117.00 Z" />
</g>
</svg>
