<?xml version="1.0" encoding="UTF-8" ?>
<!DOCTYPE svg PUBLIC "-//W3C//DTD SVG 1.1//EN" "http://www.w3.org/Graphics/SVG/1.1/DTD/svg11.dtd">
<svg width="192pt" height="192pt" viewBox="0 0 192 192" version="1.1" xmlns="http://www.w3.org/2000/svg">
<g id="#44c2daff">
<path fill="#44c2da" opacity="1.00" d=" M 56.92 39.98 C 57.74 31.57 65.55 24.59 74.02 24.76 C 88.67 24.72 103.33 24.69 117.99 24.77 C 127.00 24.73 135.09 32.90 134.85 41.91 C 134.79 46.82 127.17 47.76 124.68 44.33 C 123.41 40.99 122.58 36.10 118.02 36.09 C 103.35 35.76 88.63 35.99 73.97 36.07 C 68.23 36.06 67.46 42.57 67.80 46.95 C 95.56 47.31 123.33 46.68 151.09 47.13 C 165.18 47.45 177.59 59.92 177.78 74.03 C 177.92 95.35 177.81 116.67 177.84 138.00 C 178.45 152.72 165.72 166.25 150.99 166.49 C 114.33 166.58 77.66 166.57 41.01 166.49 C 26.64 166.30 14.01 153.43 14.08 139.06 C 14.02 117.35 13.96 95.63 14.11 73.92 C 14.32 59.11 28.15 46.19 42.95 47.16 C 47.06 47.39 49.33 52.68 46.95 55.94 C 45.37 58.42 42.18 58.20 39.63 58.65 C 31.69 59.47 25.23 67.00 25.33 74.94 C 25.31 96.31 25.28 117.70 25.35 139.07 C 25.36 147.81 33.31 155.42 42.02 155.23 C 78.00 155.29 114.00 155.30 149.99 155.23 C 159.06 155.40 167.01 147.09 166.62 138.07 C 166.63 117.02 166.67 95.97 166.59 74.93 C 166.70 66.15 158.85 58.26 150.06 58.39 C 118.94 58.29 87.82 58.45 56.69 58.32 C 56.82 52.21 56.39 46.08 56.92 39.98 Z" />
</g>
</svg>
