<?xml version="1.0" encoding="UTF-8" ?>
<!DOCTYPE svg PUBLIC "-//W3C//DTD SVG 1.1//EN" "http://www.w3.org/Graphics/SVG/1.1/DTD/svg11.dtd">
<svg width="192pt" height="192pt" viewBox="0 0 192 192" version="1.1" xmlns="http://www.w3.org/2000/svg">
<g id="#19afffff">
<path fill="#19afff" opacity="1.00" d=" M 17.38 44.30 C 26.02 26.56 49.13 17.54 67.32 25.68 C 81.26 31.79 88.29 47.38 88.69 61.94 C 88.78 91.65 88.73 121.36 88.74 151.07 C 89.07 160.50 80.41 168.99 71.00 168.52 C 62.20 168.56 54.25 160.87 54.01 152.08 C 53.80 132.95 54.15 113.82 53.84 94.70 C 42.15 93.31 29.97 90.04 21.10 81.89 C 19.23 80.04 16.78 78.02 17.08 75.09 C 17.25 64.83 16.68 54.51 17.38 44.30 M 27.44 47.33 C 27.13 56.08 27.33 64.87 27.36 73.64 C 37.04 82.89 51.07 85.89 64.11 85.30 C 64.47 107.75 63.85 130.24 64.42 152.67 C 65.67 160.36 78.08 159.56 78.42 151.81 C 78.65 123.21 78.44 94.60 78.53 65.99 C 78.69 58.78 77.27 51.46 73.95 45.03 C 65.31 26.94 35.29 30.07 27.44 47.33 Z" />
<path fill="#19afff" opacity="1.00" d=" M 117.81 29.77 C 135.98 15.30 165.80 24.23 174.76 45.09 C 175.01 55.08 174.78 65.08 174.88 75.08 C 175.22 78.01 172.74 80.03 170.86 81.85 C 162.01 90.05 149.81 93.30 138.11 94.72 C 137.99 113.50 138.18 132.29 138.02 151.07 C 138.15 160.21 130.18 168.51 121.00 168.53 C 111.52 169.04 102.89 160.55 103.11 151.09 C 103.07 122.05 103.12 93.02 103.12 63.98 C 103.27 51.32 107.54 37.84 117.81 29.77 M 124.82 36.80 C 116.86 42.80 113.89 53.38 113.43 62.93 C 113.46 92.57 113.34 122.22 113.50 151.85 C 113.80 159.61 126.27 160.26 127.48 152.63 C 127.97 130.20 127.51 107.72 127.72 85.28 C 140.77 85.88 154.84 82.88 164.52 73.60 C 164.51 64.86 164.74 56.10 164.42 47.37 C 157.84 33.17 137.66 29.04 124.82 36.80 Z" />
<path fill="#19afff" opacity="1.00" d=" M 44.33 60.29 C 47.91 58.10 52.78 61.80 51.74 65.83 C 51.31 69.92 45.38 71.28 42.93 68.17 C 40.76 65.86 41.48 61.70 44.33 60.29 Z" />
<path fill="#19afff" opacity="1.00" d=" M 142.39 60.46 C 145.32 58.43 149.80 60.49 150.20 64.02 C 151.02 67.73 146.82 71.02 143.36 69.63 C 139.46 68.41 138.80 62.47 142.39 60.46 Z" />
</g>
</svg>
