<?xml version="1.0" encoding="UTF-8" ?>
<!DOCTYPE svg PUBLIC "-//W3C//DTD SVG 1.1//EN" "http://www.w3.org/Graphics/SVG/1.1/DTD/svg11.dtd">
<svg width="192pt" height="192pt" viewBox="0 0 192 192" version="1.1" xmlns="http://www.w3.org/2000/svg">
<g id="#4babc9ff">
<path fill="#4babc9" opacity="1.00" d=" M 30.25 34.97 C 30.57 27.47 37.42 21.05 44.91 21.10 C 78.30 21.02 111.69 21.05 145.07 21.09 C 152.73 20.86 159.74 27.35 160.23 34.98 C 160.52 40.24 160.27 45.52 160.32 50.78 C 166.49 53.60 171.44 59.88 170.48 66.95 C 168.45 79.67 165.06 92.20 163.28 104.94 C 165.44 120.54 168.37 136.04 170.56 151.63 C 171.66 160.39 163.77 168.50 155.05 168.13 C 115.01 168.09 74.97 168.21 34.93 168.07 C 26.32 168.07 18.95 159.65 20.31 151.11 C 22.56 135.71 25.35 120.38 27.54 104.97 C 25.77 92.23 22.41 79.70 20.35 66.98 C 19.42 60.11 24.01 53.71 30.16 51.04 C 30.24 45.68 30.02 40.32 30.25 34.97 M 42.15 33.17 C 39.67 38.36 41.27 44.66 40.94 50.29 C 77.09 50.36 113.25 50.31 149.40 50.26 C 148.76 44.57 150.96 38.02 148.04 32.91 C 142.89 30.71 136.90 32.02 131.43 32.08 C 132.01 35.96 131.08 41.78 126.00 41.54 C 121.01 41.70 120.03 36.01 120.56 32.16 C 103.71 31.40 86.78 31.86 69.91 31.92 C 70.08 35.62 69.85 41.16 65.01 41.52 C 59.52 42.21 58.46 35.88 58.73 31.79 C 53.28 32.39 47.10 30.39 42.15 33.17 M 34.30 61.42 C 31.86 61.79 30.72 64.59 31.35 66.80 C 33.59 79.28 36.59 91.63 38.61 104.14 C 36.64 120.47 33.23 136.64 31.19 152.96 C 30.93 156.06 34.34 157.54 36.97 157.17 C 76.34 157.11 115.71 157.18 155.07 157.07 C 157.75 157.42 160.19 154.72 159.53 152.09 C 157.26 136.04 154.14 120.09 152.11 104.02 C 154.24 91.23 157.38 78.60 159.51 65.80 C 159.93 62.80 156.78 60.79 154.06 61.25 C 114.14 61.37 74.20 61.02 34.30 61.42 Z" />
<path fill="#4babc9" opacity="1.00" d=" M 97.43 92.32 C 98.17 86.35 104.95 84.77 109.99 85.09 C 115.50 84.95 123.64 84.69 125.45 91.35 C 126.53 96.69 127.63 104.36 122.04 107.59 C 125.02 108.83 126.70 111.83 126.48 115.03 C 126.63 119.77 126.86 126.38 121.73 128.68 C 115.68 130.79 108.91 130.57 102.72 129.17 C 98.55 128.30 96.75 123.85 96.67 120.00 C 96.45 115.60 96.04 109.59 101.00 107.63 C 95.57 104.56 97.12 97.46 97.43 92.32 M 106.87 93.80 C 104.92 96.64 105.53 100.34 106.66 103.37 C 109.72 104.16 113.21 104.78 116.14 103.23 C 118.00 100.55 117.87 96.48 116.15 93.75 C 113.20 92.81 109.78 92.71 106.87 93.80 M 108.24 111.26 C 104.32 112.08 105.49 117.07 105.72 119.96 C 108.94 124.15 119.64 122.97 117.65 115.99 C 118.60 110.44 111.89 110.65 108.24 111.26 Z" />
<path fill="#4babc9" opacity="1.00" d=" M 67.22 89.41 C 72.81 87.57 78.54 85.06 84.56 86.47 C 84.78 98.02 84.59 109.57 84.69 121.12 C 87.23 121.30 90.06 120.58 92.43 121.68 C 92.88 123.96 92.65 126.30 92.62 128.60 C 84.09 129.92 75.44 128.58 66.86 128.92 C 66.05 126.36 66.04 123.63 66.90 121.08 C 69.82 121.22 72.75 121.15 75.67 121.02 C 75.61 112.37 75.66 103.72 75.64 95.06 C 72.86 94.85 70.08 94.76 67.29 94.76 C 66.84 92.99 66.78 91.19 67.22 89.41 Z" />
</g>
</svg>
