<?xml version="1.0" encoding="UTF-8" ?>
<!DOCTYPE svg PUBLIC "-//W3C//DTD SVG 1.1//EN" "http://www.w3.org/Graphics/SVG/1.1/DTD/svg11.dtd">
<svg width="192pt" height="192pt" viewBox="0 0 192 192" version="1.1" xmlns="http://www.w3.org/2000/svg">
<g id="#2ebcddff">
<path fill="#2ebcdd" opacity="1.00" d=" M 109.42 24.41 C 110.59 22.49 112.77 21.54 114.99 21.69 C 126.98 21.67 138.98 21.59 150.97 21.72 C 161.09 21.73 170.02 30.82 169.86 40.93 C 169.92 77.31 169.92 113.69 169.89 150.06 C 170.14 159.74 161.67 168.51 151.98 168.55 C 114.33 168.60 76.68 168.58 39.03 168.53 C 29.31 168.55 20.83 159.75 21.04 150.07 C 21.02 127.36 21.04 104.64 21.06 81.93 C 20.73 73.26 28.38 65.48 37.03 65.52 C 67.68 65.44 98.32 65.43 128.96 65.49 C 137.60 65.46 145.16 73.32 144.86 81.94 C 144.97 107.02 144.81 132.10 144.97 157.18 C 150.09 157.72 157.90 157.55 158.47 150.83 C 158.77 114.54 158.54 78.23 158.61 41.93 C 158.99 37.60 155.53 33.14 151.04 33.14 C 139.75 33.07 128.45 33.13 117.15 33.12 C 112.89 38.92 109.60 45.51 104.79 50.84 C 100.16 52.64 94.87 51.40 89.98 51.67 C 85.19 51.94 82.60 45.24 86.13 42.08 C 89.64 39.15 94.63 40.99 98.79 40.39 C 102.28 35.03 105.80 29.69 109.42 24.41 M 32.35 81.99 C 32.29 104.66 32.30 127.34 32.35 150.01 C 32.17 154.05 35.94 157.61 39.97 157.24 C 71.18 157.13 102.40 157.46 133.59 157.03 C 133.46 132.02 133.62 107.01 133.53 82.01 C 133.74 79.04 130.99 76.45 128.05 76.76 C 98.02 76.71 67.99 76.72 37.97 76.72 C 34.98 76.36 32.06 78.92 32.35 81.99 Z" />
<path fill="#2ebcdd" opacity="1.00" d=" M 24.43 41.51 C 30.22 41.13 36.06 41.24 41.85 41.37 C 46.83 42.45 46.83 50.48 41.87 51.60 C 36.08 51.82 30.21 51.94 24.43 51.45 C 20.33 49.55 20.36 43.42 24.43 41.51 Z" />
<path fill="#2ebcdd" opacity="1.00" d=" M 56.32 41.43 C 62.11 41.15 67.95 41.10 73.74 41.33 C 78.46 42.70 78.52 50.30 73.73 51.63 C 68.22 52.07 62.64 51.80 57.11 51.66 C 52.08 51.38 51.65 42.61 56.32 41.43 Z" />
<path fill="#2ebcdd" opacity="1.00" d=" M 55.11 114.92 C 55.71 95.77 78.31 82.24 95.56 90.58 C 100.03 91.50 102.64 97.58 98.61 100.66 C 93.63 104.20 88.40 97.96 82.98 99.19 C 69.38 99.31 61.31 116.92 69.29 127.67 C 76.62 139.42 96.86 137.59 100.65 123.73 C 96.20 122.73 91.52 124.03 87.12 122.90 C 82.61 121.40 83.19 113.65 88.08 113.26 C 94.72 112.99 101.39 113.14 108.03 113.19 C 110.64 113.04 113.08 115.36 112.88 118.00 C 113.06 133.23 99.49 147.28 84.01 146.50 C 67.58 146.90 53.14 131.31 55.11 114.92 Z" />
</g>
</svg>
