<?xml version="1.0" encoding="UTF-8" ?>
<!DOCTYPE svg PUBLIC "-//W3C//DTD SVG 1.1//EN" "http://www.w3.org/Graphics/SVG/1.1/DTD/svg11.dtd">
<svg width="192pt" height="192pt" viewBox="0 0 192 192" version="1.1" xmlns="http://www.w3.org/2000/svg">
<g id="#e04385ff">
<path fill="#e04385" opacity="1.00" d=" M 25.09 35.93 C 24.81 25.90 36.07 17.87 45.44 21.62 C 56.18 26.62 66.22 33.10 76.96 38.08 C 95.32 38.47 113.71 37.94 132.08 38.34 C 139.87 38.34 146.68 45.25 147.04 52.94 C 147.45 60.77 146.84 68.63 147.34 76.46 C 152.41 79.35 158.28 81.32 162.30 85.73 C 168.41 92.67 166.30 104.79 158.06 109.11 C 121.08 129.12 84.10 149.16 47.00 168.97 C 37.42 174.23 24.59 165.84 25.10 155.07 C 25.07 115.36 25.02 75.64 25.09 35.93 M 36.33 36.99 C 36.34 76.33 36.27 115.69 36.35 155.03 C 36.06 158.17 40.09 160.37 42.63 158.54 C 57.00 150.73 71.56 143.24 85.70 135.02 C 77.80 134.46 69.89 134.82 61.99 134.63 C 53.94 134.52 47.20 127.02 47.35 119.08 C 47.22 97.37 47.31 75.65 47.31 53.94 C 47.19 48.03 50.90 42.90 55.67 39.76 C 50.97 37.36 46.49 34.51 41.67 32.37 C 38.80 31.20 35.78 34.05 36.33 36.99 M 57.79 54.96 C 57.78 75.98 57.79 97.01 57.79 118.04 C 57.35 121.54 60.46 124.75 63.99 124.26 C 77.99 124.19 92.02 124.47 106.01 124.11 C 116.37 119.01 126.45 113.27 136.60 107.76 C 136.48 89.83 136.67 71.90 136.52 53.97 C 136.59 50.61 133.15 48.34 130.02 48.71 C 108.00 48.73 85.99 48.69 63.97 48.73 C 60.48 48.32 57.35 51.46 57.79 54.96 M 147.16 89.10 C 147.17 93.43 147.17 97.76 147.14 102.10 C 149.96 100.34 154.97 99.37 154.58 95.14 C 153.97 91.59 149.73 90.85 147.16 89.10 Z" />
<path fill="#e04385" opacity="1.00" d=" M 65.24 58.22 C 68.20 58.13 72.31 56.83 74.49 59.40 C 74.73 62.46 76.16 67.18 72.98 69.10 C 69.91 69.18 63.86 70.68 63.72 66.01 C 63.86 63.47 62.77 59.93 65.24 58.22 Z" />
<path fill="#e04385" opacity="1.00" d=" M 119.24 58.21 C 122.35 58.12 128.45 56.37 128.80 61.02 C 128.72 63.74 130.01 68.80 126.06 69.21 C 123.15 69.21 117.65 70.44 117.65 66.01 C 117.81 63.46 116.69 59.85 119.24 58.21 Z" />
<path fill="#e04385" opacity="1.00" d=" M 65.46 80.63 C 69.64 79.64 76.49 79.82 74.90 86.01 C 76.96 92.75 67.03 93.42 63.90 89.95 C 63.92 86.98 62.40 82.45 65.46 80.63 Z" />
<path fill="#e04385" opacity="1.00" d=" M 119.45 80.61 C 122.64 80.38 129.03 78.95 128.84 83.98 C 128.78 86.56 129.85 91.67 125.89 91.63 C 123.25 91.48 119.51 92.69 117.85 89.96 C 117.84 86.97 116.35 82.42 119.45 80.61 Z" />
<path fill="#e04385" opacity="1.00" d=" M 65.24 103.15 C 68.30 102.95 74.53 101.33 74.81 105.94 C 74.67 108.66 76.09 113.78 72.07 114.12 C 69.22 114.21 63.83 115.27 63.72 111.02 C 63.88 108.45 62.73 104.84 65.24 103.15 Z" />
</g>
</svg>
