<?xml version="1.0" encoding="UTF-8" ?>
<!DOCTYPE svg PUBLIC "-//W3C//DTD SVG 1.1//EN" "http://www.w3.org/Graphics/SVG/1.1/DTD/svg11.dtd">
<svg width="192pt" height="192pt" viewBox="0 0 192 192" version="1.1" xmlns="http://www.w3.org/2000/svg">
<g id="#46abccff">
<path fill="#46abcc" opacity="1.00" d=" M 30.35 34.13 C 31.18 26.60 38.41 20.67 45.94 21.11 C 78.98 21.11 112.03 21.06 145.07 21.14 C 152.35 20.97 159.11 26.80 160.06 34.01 C 160.67 39.73 160.05 45.50 160.41 51.24 C 166.94 53.83 171.64 60.84 170.37 67.96 C 168.19 80.31 165.25 92.54 163.23 104.91 C 165.25 120.86 168.39 136.69 170.55 152.63 C 171.52 161.35 163.74 169.34 155.06 169.10 C 115.36 169.13 75.65 169.17 35.95 169.08 C 27.34 169.41 19.42 161.65 20.23 152.95 C 22.34 136.93 25.49 121.02 27.56 105.00 C 25.53 92.29 22.38 79.76 20.33 67.05 C 19.47 60.12 24.24 53.98 30.24 51.10 C 30.20 45.44 29.96 39.77 30.35 34.13 M 42.19 33.18 C 39.50 38.40 41.28 44.83 41.00 50.53 C 77.15 50.47 113.30 50.60 149.45 50.43 C 148.68 44.72 151.08 38.05 147.99 32.99 C 142.89 30.70 136.90 32.19 131.44 31.96 C 131.95 35.87 131.16 41.84 126.00 41.66 C 120.87 41.83 120.07 35.87 120.53 31.97 C 103.63 31.65 86.72 31.90 69.81 31.85 C 70.34 35.86 69.48 42.06 64.12 41.66 C 59.04 41.57 58.69 35.64 58.78 31.83 C 53.33 32.40 47.16 30.47 42.19 33.18 M 33.23 62.07 C 31.43 62.96 30.89 65.11 31.30 66.95 C 33.51 79.67 36.64 92.25 38.59 105.00 C 36.47 121.03 33.43 136.96 31.19 152.99 C 30.50 155.75 33.18 158.39 35.91 158.00 C 75.63 157.98 115.35 158.04 155.07 157.96 C 157.69 158.27 160.13 155.71 159.56 153.10 C 157.26 137.03 154.28 121.06 152.11 104.98 C 154.09 92.11 157.25 79.40 159.49 66.56 C 160.09 63.94 157.68 61.28 155.02 61.55 C 116.01 61.44 77.00 61.56 37.99 61.46 C 36.41 61.59 34.66 61.24 33.23 62.07 Z" />
<path fill="#46abcc" opacity="1.00" d=" M 73.35 85.42 C 79.85 85.23 90.01 83.30 92.89 91.06 C 93.94 96.50 95.15 103.76 90.03 107.57 C 95.59 110.80 93.85 118.16 93.46 123.45 C 90.89 131.78 80.06 130.23 73.30 129.68 C 66.89 129.83 63.49 122.79 65.26 117.23 C 67.80 117.17 70.35 117.16 72.89 117.18 C 73.32 123.18 80.08 122.74 84.38 121.46 C 85.63 118.28 85.55 114.78 84.36 111.59 C 81.09 110.93 77.76 110.76 74.44 110.58 C 74.44 108.54 74.44 106.50 74.44 104.46 C 77.72 104.18 81.07 104.27 84.26 103.27 C 85.14 100.25 85.68 96.85 84.02 93.99 C 81.19 92.25 77.71 92.69 74.68 93.60 C 74.27 95.00 73.86 96.39 73.45 97.79 C 70.74 97.85 68.03 97.84 65.33 97.67 C 64.29 92.18 66.98 85.51 73.35 85.42 Z" />
<path fill="#46abcc" opacity="1.00" d=" M 101.13 89.41 C 106.77 87.58 112.53 84.99 118.59 86.45 C 118.81 97.99 118.63 109.53 118.71 121.07 C 121.26 121.25 124.07 120.56 126.44 121.66 C 126.90 123.95 126.67 126.30 126.65 128.62 C 118.81 129.66 110.84 128.97 102.95 129.08 C 98.78 129.20 100.29 123.65 100.86 121.06 C 103.78 121.13 106.70 121.11 109.62 121.05 C 109.63 112.42 109.62 103.79 109.63 95.16 C 106.83 94.95 104.03 94.81 101.23 94.75 C 100.83 92.99 100.78 91.19 101.13 89.41 Z" />
</g>
</svg>
