<?xml version="1.0" encoding="UTF-8" ?>
<!DOCTYPE svg PUBLIC "-//W3C//DTD SVG 1.1//EN" "http://www.w3.org/Graphics/SVG/1.1/DTD/svg11.dtd">
<svg width="192pt" height="192pt" viewBox="0 0 192 192" version="1.1" xmlns="http://www.w3.org/2000/svg">
<g id="#ff5f3cff">
<path fill="#ff5f3c" opacity="1.00" d=" M 25.06 35.92 C 24.83 25.91 36.04 17.89 45.41 21.62 C 54.08 25.64 62.23 30.71 70.78 34.98 C 87.28 25.99 108.33 25.97 124.70 35.27 C 141.00 44.09 152.20 61.35 153.86 79.78 C 157.89 81.95 162.26 84.31 164.25 88.69 C 168.05 96.00 164.89 105.88 157.42 109.49 C 120.61 129.30 83.87 149.27 47.01 168.99 C 37.41 174.25 24.59 165.87 25.05 155.08 C 25.00 115.36 25.01 75.64 25.06 35.92 M 36.33 36.98 C 36.34 76.33 36.28 115.68 36.36 155.02 C 36.11 158.15 40.04 160.34 42.61 158.52 C 54.76 152.05 66.89 145.51 78.97 138.89 C 64.12 133.57 51.62 122.01 45.55 107.41 C 35.81 85.39 42.24 58.01 60.24 42.17 C 54.24 39.06 48.39 35.66 42.36 32.62 C 39.43 30.86 35.68 33.70 36.33 36.98 M 88.36 40.47 C 75.08 43.14 63.35 52.23 57.23 64.28 C 49.44 79.22 50.87 98.50 61.00 112.01 C 68.75 122.67 81.59 130.27 94.88 130.26 C 108.87 122.86 122.86 115.38 136.68 107.67 C 143.20 97.24 144.34 83.84 140.96 72.11 C 134.96 50.10 110.68 35.25 88.36 40.47 M 153.82 92.56 C 153.21 94.87 152.70 97.20 152.39 99.57 C 154.71 97.88 154.93 95.03 153.82 92.56 Z" />
<path fill="#ff5f3c" opacity="1.00" d=" M 97.59 57.51 C 102.84 57.48 108.09 57.36 113.34 57.58 C 113.37 61.33 113.38 65.08 113.36 68.84 C 110.09 68.77 106.81 68.73 103.55 69.06 C 103.56 77.71 103.68 86.35 103.51 94.99 C 103.35 102.40 94.34 107.44 87.83 104.28 C 82.00 101.48 79.64 93.02 84.02 87.98 C 87.15 83.75 92.94 83.21 97.57 85.02 C 97.59 75.85 97.55 66.68 97.59 57.51 Z" />
</g>
</svg>
