<?xml version="1.0" encoding="UTF-8" ?>
<!DOCTYPE svg PUBLIC "-//W3C//DTD SVG 1.1//EN" "http://www.w3.org/Graphics/SVG/1.1/DTD/svg11.dtd">
<svg width="192pt" height="192pt" viewBox="0 0 192 192" version="1.1" xmlns="http://www.w3.org/2000/svg">
<g id="#1ab1ffff">
<path fill="#1ab1ff" opacity="1.00" d=" M 85.34 13.41 C 118.28 8.60 152.72 26.52 168.05 55.97 C 185.59 87.63 179.07 130.75 152.18 155.19 C 130.27 176.49 96.14 183.21 67.65 172.37 C 47.14 164.84 30.03 148.70 21.20 128.73 C 9.67 103.31 12.29 72.10 28.05 49.04 C 40.89 29.70 62.29 16.29 85.34 13.41 M 78.83 26.90 C 83.58 30.55 89.53 32.09 94.45 35.48 C 105.08 42.48 112.42 53.18 119.71 63.36 C 127.47 74.00 133.83 86.81 146.26 92.77 C 152.51 96.25 160.69 95.48 166.09 90.75 C 166.78 87.32 165.55 83.79 165.12 80.37 C 156.19 81.00 148.65 75.20 143.70 68.32 C 135.92 57.60 128.89 45.99 118.31 37.71 C 107.53 29.06 92.57 22.63 78.83 26.90 M 132.83 36.39 C 139.30 45.44 146.49 53.95 152.94 63.02 C 155.20 65.57 157.63 69.57 161.42 69.25 C 157.35 56.41 148.08 45.58 137.45 37.52 C 136.19 36.27 134.50 36.17 132.83 36.39 M 34.76 59.86 C 40.27 59.77 45.39 56.99 50.97 57.55 C 66.75 58.18 80.03 68.54 90.00 79.99 C 99.91 91.44 106.67 105.73 119.09 114.90 C 126.94 120.81 136.80 125.56 146.87 123.65 C 156.73 121.98 166.31 113.92 166.08 103.27 C 155.63 107.35 143.65 104.91 135.00 97.98 C 118.64 86.18 112.05 65.95 98.05 51.95 C 89.73 43.41 78.44 36.06 66.00 37.38 C 52.68 38.96 40.31 47.53 34.76 59.86 M 25.35 92.01 C 25.14 96.22 25.42 100.45 25.88 104.64 C 30.95 101.08 36.53 97.30 43.07 98.04 C 57.31 98.95 68.13 109.98 76.28 120.70 C 87.55 135.39 103.77 148.37 123.01 149.11 C 135.40 149.20 149.73 144.39 155.66 132.68 C 138.37 137.76 119.88 130.96 107.44 118.58 C 95.42 107.32 88.13 92.10 76.47 80.53 C 69.04 73.55 59.48 67.63 48.97 67.78 C 36.38 68.39 26.47 79.89 25.35 92.01 M 30.84 122.04 C 43.46 157.23 88.90 176.97 122.63 160.09 C 106.26 158.07 90.40 151.14 79.00 139.00 C 68.12 128.66 60.64 113.22 45.35 108.68 C 37.20 106.10 30.34 114.41 30.84 122.04 Z" />
</g>
</svg>
