<?xml version="1.0" encoding="UTF-8" ?>
<!DOCTYPE svg PUBLIC "-//W3C//DTD SVG 1.1//EN" "http://www.w3.org/Graphics/SVG/1.1/DTD/svg11.dtd">
<svg width="192pt" height="192pt" viewBox="0 0 192 192" version="1.1" xmlns="http://www.w3.org/2000/svg">
<g id="#8aaa7bff">
<path fill="#8aaa7b" opacity="1.00" d=" M 28.28 24.25 C 29.76 23.62 31.42 23.80 32.99 23.71 C 76.33 23.85 119.68 23.57 163.02 23.84 C 169.85 24.32 168.95 35.61 162.07 35.05 C 118.37 35.20 74.64 35.20 30.94 35.05 C 25.02 35.50 22.81 26.53 28.28 24.25 Z" />
<path fill="#8aaa7b" opacity="1.00" d=" M 25.05 82.95 C 24.74 79.27 28.75 77.19 31.98 77.61 C 62.99 77.79 94.00 77.42 125.00 77.73 C 131.38 77.56 132.16 88.06 126.02 89.04 C 96.17 89.29 66.30 89.06 36.45 89.15 C 36.44 113.43 36.61 137.72 36.39 162.00 C 36.78 168.76 25.75 169.67 25.11 162.98 C 24.87 136.31 25.23 109.62 25.05 82.95 Z" />
<path fill="#8aaa7b" opacity="1.00" d=" M 157.31 78.30 C 161.20 76.20 166.12 79.67 165.74 83.98 C 165.66 110.27 166.20 136.60 165.67 162.87 C 164.91 169.17 155.07 169.17 154.19 162.93 C 153.79 136.95 154.39 110.94 154.15 84.95 C 153.86 82.34 154.90 79.56 157.31 78.30 Z" />
</g>
</svg>
