<?xml version="1.0" encoding="UTF-8" ?>
<!DOCTYPE svg PUBLIC "-//W3C//DTD SVG 1.1//EN" "http://www.w3.org/Graphics/SVG/1.1/DTD/svg11.dtd">
<svg width="192pt" height="192pt" viewBox="0 0 192 192" version="1.1" xmlns="http://www.w3.org/2000/svg">
<g id="#c521d2ff">
<path fill="#c521d2" opacity="1.00" d=" M 84.40 14.52 C 118.13 9.19 153.69 27.73 168.85 58.26 C 184.91 88.52 178.97 128.49 154.71 152.70 C 130.82 178.07 90.16 184.93 59.25 168.87 C 28.33 153.88 9.47 118.03 14.88 84.05 C 19.30 48.83 49.20 18.96 84.40 14.52 M 87.37 25.46 C 65.24 27.93 44.95 41.79 34.19 61.21 C 24.25 78.77 22.59 100.66 29.43 119.61 C 39.49 148.72 70.22 168.90 100.98 166.08 C 130.80 164.49 157.77 141.69 164.55 112.65 C 170.04 91.02 164.51 66.96 149.95 50.03 C 134.96 31.94 110.65 22.52 87.37 25.46 Z" />
<path fill="#c521d2" opacity="1.00" d=" M 58.79 95.01 C 58.50 77.16 73.32 60.56 91.05 58.71 C 99.25 57.75 108.27 58.93 115.06 63.91 C 119.17 67.77 114.76 75.42 109.34 73.64 C 103.22 71.15 96.50 68.82 89.87 70.82 C 75.78 74.16 66.99 90.98 72.50 104.42 C 77.01 118.23 94.77 125.32 107.59 118.50 C 113.69 115.47 118.56 109.22 119.05 102.31 C 113.06 102.04 107.03 102.58 101.07 101.89 C 95.87 100.80 96.09 92.28 101.37 91.56 C 110.25 91.24 119.16 91.25 128.04 91.45 C 130.89 91.40 133.36 94.12 133.08 96.95 C 132.79 107.06 127.93 116.75 120.72 123.73 C 107.42 136.12 84.78 135.73 71.43 123.61 C 63.30 116.52 58.48 105.81 58.79 95.01 Z" />
</g>
</svg>
