<?xml version="1.0" encoding="UTF-8" ?>
<!DOCTYPE svg PUBLIC "-//W3C//DTD SVG 1.1//EN" "http://www.w3.org/Graphics/SVG/1.1/DTD/svg11.dtd">
<svg width="192pt" height="192pt" viewBox="0 0 192 192" version="1.1" xmlns="http://www.w3.org/2000/svg">
<g id="#4ea97bff">
<path fill="#4ea97b" opacity="1.00" d=" M 36.31 21.37 C 40.22 20.13 44.51 20.91 48.06 22.84 C 63.77 31.24 79.35 39.89 95.14 48.12 C 104.45 49.19 114.41 46.78 123.43 50.45 C 134.77 54.79 142.08 65.35 147.14 75.88 C 152.23 80.14 159.89 81.36 163.51 87.44 C 168.29 94.77 165.37 105.70 157.41 109.48 C 120.59 129.28 83.86 149.26 47.00 168.97 C 37.80 174.03 25.32 166.45 25.18 156.08 C 25.00 116.38 25.17 76.67 25.11 36.96 C 24.66 29.96 29.55 23.19 36.31 21.37 M 36.37 36.10 C 36.28 75.74 36.31 115.39 36.37 155.03 C 36.05 158.63 40.71 160.42 43.32 158.24 C 63.79 147.04 84.55 136.33 104.81 124.77 C 94.25 124.71 83.68 124.73 73.12 124.74 C 68.29 129.15 63.91 135.13 56.94 135.97 C 47.49 137.69 38.48 128.83 39.43 119.42 C 41.42 104.62 43.72 89.84 45.92 75.06 C 47.92 61.66 59.25 51.26 72.27 48.59 C 62.23 43.41 52.43 37.76 42.37 32.62 C 39.84 31.16 36.11 33.04 36.37 36.10 M 72.39 59.55 C 63.94 61.09 57.43 68.63 56.32 77.01 C 54.21 91.33 52.04 105.64 50.15 119.98 C 49.00 123.87 54.60 127.63 57.57 124.66 C 65.48 117.56 72.40 109.33 80.56 102.54 C 93.09 100.23 106.26 103.52 118.86 100.90 C 126.57 99.16 132.07 92.17 133.46 84.60 C 136.46 72.67 126.62 59.10 114.08 59.19 C 100.19 59.36 86.24 58.67 72.39 59.55 M 151.12 90.89 C 151.25 93.88 151.64 96.86 152.36 99.77 C 155.90 97.25 154.76 92.57 151.12 90.89 M 110.03 112.54 C 101.26 113.20 92.12 111.15 83.61 113.59 C 94.42 115.70 107.97 109.76 116.58 118.61 C 125.19 114.10 133.70 109.42 142.24 104.81 C 141.76 101.60 141.19 98.40 140.65 95.19 C 135.01 106.42 122.47 113.17 110.03 112.54 Z" />
<path fill="#4ea97b" opacity="1.00" d=" M 70.88 74.88 C 70.62 71.31 71.59 66.21 76.09 66.15 C 80.74 65.92 81.92 71.09 81.70 74.76 C 85.54 74.53 91.02 76.11 90.38 81.02 C 90.14 85.38 85.18 86.04 81.75 85.94 C 82.07 89.66 80.75 95.02 76.01 94.65 C 71.50 94.58 70.71 89.40 70.69 85.89 C 66.93 86.27 61.78 84.81 62.15 80.10 C 62.23 75.59 67.31 74.65 70.88 74.88 Z" />
<path fill="#4ea97b" opacity="1.00" d=" M 114.32 66.28 C 117.92 65.28 121.61 69.06 120.62 72.65 C 120.11 77.04 113.62 78.33 111.31 74.66 C 108.95 71.79 110.76 67.06 114.32 66.28 Z" />
<path fill="#4ea97b" opacity="1.00" d=" M 105.29 75.23 C 108.98 74.08 112.86 78.01 111.75 81.70 C 111.12 85.69 105.48 87.15 102.91 84.10 C 100.02 81.42 101.54 76.18 105.29 75.23 Z" />
<path fill="#4ea97b" opacity="1.00" d=" M 122.38 75.42 C 128.61 72.64 132.74 83.09 126.35 85.38 C 120.10 88.25 115.97 77.60 122.38 75.42 Z" />
<path fill="#4ea97b" opacity="1.00" d=" M 113.36 84.41 C 116.58 82.82 120.80 85.53 120.74 89.11 C 121.18 93.03 116.39 96.10 113.02 94.02 C 109.31 92.12 109.30 85.90 113.36 84.41 Z" />
</g>
</svg>
