<?xml version="1.0" encoding="UTF-8" ?>
<!DOCTYPE svg PUBLIC "-//W3C//DTD SVG 1.1//EN" "http://www.w3.org/Graphics/SVG/1.1/DTD/svg11.dtd">
<svg width="192pt" height="192pt" viewBox="0 0 192 192" version="1.1" xmlns="http://www.w3.org/2000/svg">
<g id="#f8903bff">
<path fill="#f8903b" opacity="1.00" d=" M 20.87 41.88 C 32.37 24.91 56.71 18.70 74.92 28.18 C 83.02 31.95 88.60 39.11 95.07 44.97 C 99.85 42.40 103.11 37.00 107.60 33.64 C 123.29 19.98 148.99 20.62 164.00 35.02 C 180.88 49.71 182.51 77.94 167.45 94.48 C 143.69 118.64 119.42 142.29 95.67 166.45 C 71.82 143.28 48.50 119.52 24.95 96.04 C 10.92 81.98 9.13 57.89 20.87 41.88 M 37.86 41.84 C 28.20 48.69 23.38 61.47 26.02 72.99 C 28.01 83.16 36.23 90.89 43.82 96.92 C 58.23 82.78 72.47 68.44 86.72 54.14 C 82.85 50.38 79.22 46.36 75.14 42.82 C 64.83 34.15 48.62 33.76 37.86 41.84 M 113.20 45.20 C 92.89 65.45 72.61 85.73 52.32 106.00 C 66.75 120.24 80.84 135.28 95.69 148.83 C 115.99 128.75 136.11 108.49 156.32 88.32 C 164.56 80.48 167.63 67.86 164.03 57.09 C 160.30 45.17 148.54 36.24 136.01 36.10 C 127.55 35.69 119.10 39.16 113.20 45.20 Z" />
</g>
</svg>
