<?xml version="1.0" encoding="UTF-8" ?>
<!DOCTYPE svg PUBLIC "-//W3C//DTD SVG 1.1//EN" "http://www.w3.org/Graphics/SVG/1.1/DTD/svg11.dtd">
<svg width="192pt" height="192pt" viewBox="0 0 192 192" version="1.1" xmlns="http://www.w3.org/2000/svg">
<g id="#ad5376ff">
<path fill="#ad5376" opacity="1.00" d=" M 77.32 24.39 C 87.14 22.85 97.15 24.23 107.05 23.52 C 117.62 22.87 128.03 28.56 133.48 37.57 C 146.56 59.82 159.62 82.07 172.70 104.31 C 176.24 110.51 178.30 118.12 176.26 125.16 C 173.27 135.46 166.30 143.95 161.47 153.41 C 156.82 163.00 146.63 169.43 135.97 169.46 C 109.65 169.54 83.33 169.53 57.01 169.58 C 47.41 169.64 37.98 164.25 33.22 155.91 C 28.96 147.90 24.13 140.21 19.72 132.29 C 15.28 124.16 14.83 113.73 19.55 105.61 C 32.37 83.40 45.34 61.28 58.19 39.09 C 62.17 31.88 69.12 26.00 77.32 24.39 M 79.87 34.41 C 84.27 44.38 90.41 53.60 96.05 62.93 C 101.84 53.85 107.36 44.54 112.23 34.93 C 101.57 33.50 90.64 34.52 79.87 34.41 M 35.44 99.42 C 32.93 104.14 29.58 108.46 27.83 113.56 C 40.80 113.67 53.77 113.70 66.74 113.56 C 74.81 100.81 82.31 87.51 89.62 74.29 C 83.86 62.57 76.80 51.44 70.18 40.17 C 58.20 59.67 47.09 79.71 35.44 99.42 M 121.57 41.39 C 115.07 52.25 108.77 63.25 102.39 74.19 C 109.87 87.23 117.57 100.14 125.14 113.13 C 138.42 113.21 151.70 113.17 164.98 113.13 C 151.93 89.96 138.09 67.23 124.76 44.21 C 123.79 43.24 123.33 40.38 121.57 41.39 M 79.74 113.22 C 90.65 113.34 101.57 113.30 112.49 113.23 C 107.07 103.80 101.61 94.40 95.98 85.09 C 90.54 94.45 85.03 103.77 79.74 113.22 M 27.83 124.34 C 32.64 134.05 38.34 143.34 44.03 152.56 C 50.30 143.57 55.11 133.65 60.82 124.30 C 49.82 124.37 38.83 124.29 27.83 124.34 M 73.44 124.26 C 67.13 135.77 60.09 146.88 53.94 158.47 C 82.33 158.80 110.78 158.89 139.16 158.23 C 132.75 146.85 126.05 135.63 119.60 124.27 C 104.21 124.21 88.82 124.22 73.44 124.26 M 132.81 124.36 C 137.12 134.42 143.54 143.49 148.77 153.12 C 154.67 143.80 160.77 134.37 165.14 124.24 C 154.36 124.23 143.58 124.27 132.81 124.36 Z" />
</g>
</svg>
