<?xml version="1.0" encoding="UTF-8" ?>
<!DOCTYPE svg PUBLIC "-//W3C//DTD SVG 1.1//EN" "http://www.w3.org/Graphics/SVG/1.1/DTD/svg11.dtd">
<svg width="192pt" height="192pt" viewBox="0 0 192 192" version="1.1" xmlns="http://www.w3.org/2000/svg">
<g id="#77ca7eff">
<path fill="#77ca7e" opacity="1.00" d=" M 68.36 25.35 C 83.02 23.78 98.16 25.14 113.00 24.68 C 117.09 25.05 122.86 23.21 125.31 27.62 C 142.59 57.09 159.69 86.67 176.97 116.14 C 179.21 119.43 176.07 122.63 174.52 125.41 C 167.39 138.00 160.35 150.65 153.23 163.25 C 152.23 165.21 150.30 166.78 147.98 166.55 C 114.66 166.64 81.33 166.48 48.00 166.54 C 44.88 166.60 40.66 167.40 38.91 164.01 C 31.11 149.87 23.08 135.84 15.25 121.70 C 13.98 119.77 14.08 117.26 15.36 115.37 C 31.65 87.34 47.99 59.34 64.28 31.31 C 65.55 29.29 66.33 26.77 68.36 25.35 M 80.87 35.42 C 95.16 61.99 111.27 87.60 126.84 113.46 C 138.82 113.42 150.80 113.49 162.78 113.40 C 147.77 87.37 132.60 61.42 117.49 35.45 C 105.28 35.39 93.08 35.43 80.87 35.42 M 71.13 40.88 C 56.24 66.40 41.36 91.93 26.55 117.49 C 25.37 119.14 27.14 120.73 27.75 122.23 C 33.16 131.48 38.04 141.06 43.69 150.16 C 58.58 124.16 73.80 98.37 89.49 72.86 C 83.76 62.00 77.40 51.44 71.13 40.88 M 77.67 113.32 C 89.80 113.43 101.93 113.37 114.06 113.31 C 108.01 103.19 101.98 93.05 95.82 82.99 C 89.78 93.10 83.61 103.14 77.67 113.32 M 71.15 124.14 C 65.06 134.67 58.95 145.18 52.90 155.73 C 83.56 155.93 114.22 155.69 144.88 155.82 C 151.02 145.37 156.82 134.73 162.75 124.16 C 132.22 124.32 101.69 124.03 71.15 124.14 Z" />
</g>
</svg>
