<?xml version="1.0" encoding="UTF-8" ?>
<!DOCTYPE svg PUBLIC "-//W3C//DTD SVG 1.1//EN" "http://www.w3.org/Graphics/SVG/1.1/DTD/svg11.dtd">
<svg width="192pt" height="192pt" viewBox="0 0 192 192" version="1.1" xmlns="http://www.w3.org/2000/svg">
<g id="#3cbcf7ff">
<path fill="#3cbcf7" opacity="1.00" d=" M 81.33 14.39 C 84.71 13.70 89.39 12.79 91.36 16.53 C 93.76 20.37 90.36 25.37 85.98 25.13 C 56.57 28.71 31.14 52.79 26.06 81.99 C 25.28 85.00 25.78 89.02 22.77 90.89 C 19.52 93.09 14.47 90.93 14.10 86.94 C 16.75 51.27 46.16 20.13 81.33 14.39 Z" />
<path fill="#3cbcf7" opacity="1.00" d=" M 102.33 14.32 C 107.43 12.93 112.78 15.22 117.81 16.22 C 150.37 24.88 175.53 55.38 177.61 89.04 C 180.28 119.01 164.69 149.47 139.06 165.13 C 119.15 177.69 93.74 180.91 71.30 173.84 C 40.66 164.67 16.78 135.99 14.14 104.01 C 14.20 98.84 21.95 97.12 24.40 101.54 C 26.04 105.72 25.92 110.38 27.40 114.63 C 35.69 145.99 67.63 168.67 99.99 166.10 C 133.53 164.76 163.24 136.39 166.16 102.96 C 170.29 70.41 148.55 37.14 117.16 27.73 C 112.42 26.07 107.39 25.62 102.55 24.42 C 98.34 22.78 98.26 16.17 102.33 14.32 Z" />
<path fill="#3cbcf7" opacity="1.00" d=" M 51.91 71.07 C 54.88 68.25 60.12 70.40 64.00 69.73 C 70.37 69.85 80.11 68.81 82.34 76.64 C 83.53 83.28 84.21 90.84 81.16 97.07 C 76.39 102.88 67.82 100.98 61.20 101.32 C 61.15 105.45 61.48 109.62 60.78 113.72 C 57.92 114.25 55.01 114.17 52.15 113.71 C 51.35 99.54 51.80 85.26 51.91 71.07 M 61.22 77.70 C 61.19 82.91 61.20 88.11 61.19 93.32 C 65.05 93.00 69.73 94.48 72.96 91.78 C 74.33 88.06 74.10 83.73 73.23 79.91 C 70.59 76.18 65.10 78.16 61.22 77.70 Z" />
<path fill="#3cbcf7" opacity="1.00" d=" M 86.34 89.72 C 85.00 85.54 87.53 80.13 92.10 79.32 C 97.37 78.35 103.05 78.10 108.20 79.78 C 112.35 81.25 113.18 86.12 113.08 89.98 C 112.91 97.88 113.46 105.81 112.72 113.69 C 110.48 114.07 108.21 114.16 105.95 114.02 C 105.37 113.39 104.79 112.76 104.21 112.13 C 99.46 115.67 91.85 115.45 87.26 111.76 C 84.27 107.56 84.31 101.20 86.70 96.73 C 90.98 91.76 98.31 93.78 104.06 93.33 C 103.92 91.09 104.29 88.71 103.41 86.58 C 99.94 84.00 94.36 85.62 94.29 90.42 C 91.72 90.30 88.44 91.45 86.34 89.72 M 94.12 103.95 C 93.65 108.06 98.64 107.93 101.40 107.47 C 105.12 106.96 103.71 102.31 103.91 99.75 C 100.47 99.91 93.44 98.38 94.12 103.95 Z" />
<path fill="#3cbcf7" opacity="1.00" d=" M 114.71 82.09 C 113.09 77.67 120.02 78.78 122.42 79.61 C 125.45 87.18 127.10 95.25 129.67 103.00 C 132.60 95.29 134.18 87.07 137.45 79.51 C 140.10 78.85 147.24 77.59 145.43 82.36 C 141.24 95.83 136.95 109.28 132.68 122.72 C 131.65 126.70 126.66 124.89 123.73 125.05 C 123.61 121.50 125.13 118.22 126.18 114.91 C 120.59 104.79 118.66 92.95 114.71 82.09 Z" />
</g>
</svg>
