<?xml version="1.0" encoding="UTF-8" ?>
<!DOCTYPE svg PUBLIC "-//W3C//DTD SVG 1.1//EN" "http://www.w3.org/Graphics/SVG/1.1/DTD/svg11.dtd">
<svg width="192pt" height="192pt" viewBox="0 0 192 192" version="1.1" xmlns="http://www.w3.org/2000/svg">
<g id="#19b0ffff">
<path fill="#19b0ff" opacity="1.00" d=" M 39.32 21.41 C 42.49 20.65 45.77 20.72 49.00 20.72 C 82.00 20.79 115.00 20.66 148.00 20.78 C 160.09 20.99 170.80 31.81 170.77 43.93 C 170.83 78.31 170.82 112.69 170.80 147.07 C 170.94 159.63 159.59 170.75 147.06 170.52 C 112.71 170.55 78.37 170.60 44.03 170.48 C 31.78 170.31 21.02 159.32 21.09 147.08 C 21.00 113.04 21.07 79.00 21.08 44.96 C 20.73 34.11 28.74 23.79 39.32 21.41 M 43.43 32.70 C 37.46 33.31 32.69 38.98 32.91 44.95 C 32.83 78.65 32.87 112.34 32.92 146.04 C 32.55 152.64 38.27 158.78 44.93 158.58 C 78.98 158.60 113.03 158.62 147.07 158.56 C 153.61 158.64 159.32 152.59 158.95 146.07 C 158.95 112.35 158.98 78.63 158.93 44.91 C 159.23 38.42 153.47 32.47 146.96 32.61 C 112.45 32.65 77.93 32.43 43.43 32.70 Z" />
<path fill="#19b0ff" opacity="1.00" d=" M 98.44 111.51 C 110.29 109.34 122.87 111.06 135.01 110.58 C 141.53 109.88 143.06 120.39 136.71 121.60 C 124.86 122.09 112.95 121.79 101.08 121.72 C 95.94 121.76 94.09 114.03 98.44 111.51 Z" />
<path fill="#19b0ff" opacity="1.00" d=" M 99.37 133.46 C 111.51 132.49 123.85 133.12 136.06 133.12 C 142.34 133.55 142.35 143.86 136.02 144.23 C 124.35 144.48 112.64 144.43 100.97 144.24 C 95.37 144.03 94.09 135.29 99.37 133.46 Z" />
</g>
</svg>
