<?xml version="1.0" encoding="UTF-8" ?>
<!DOCTYPE svg PUBLIC "-//W3C//DTD SVG 1.1//EN" "http://www.w3.org/Graphics/SVG/1.1/DTD/svg11.dtd">
<svg width="192pt" height="192pt" viewBox="0 0 192 192" version="1.1" xmlns="http://www.w3.org/2000/svg">
<g id="#8fc8e6ff">
<path fill="#8fc8e6" opacity="1.00" d=" M 21.04 44.96 C 20.66 32.85 30.83 21.55 42.97 20.92 C 50.63 20.76 58.32 20.62 65.97 20.98 C 71.63 21.90 72.11 30.85 66.57 32.37 C 58.74 33.18 50.81 32.18 42.96 32.85 C 37.24 33.71 32.74 39.17 32.93 44.96 C 32.86 78.65 32.91 112.34 32.94 146.03 C 32.52 152.62 38.31 158.76 44.94 158.57 C 78.98 158.57 113.03 158.58 147.07 158.54 C 153.62 158.63 159.27 152.57 158.97 146.07 C 159.00 132.57 159.04 119.06 158.92 105.55 C 144.42 123.43 117.58 129.47 96.91 119.24 C 79.36 111.09 67.21 92.42 67.37 73.00 C 66.84 54.08 78.03 35.58 94.75 26.84 C 109.36 18.90 127.86 18.75 142.61 26.44 C 159.10 34.74 170.55 52.44 170.74 70.99 C 170.95 96.34 170.85 121.70 170.85 147.05 C 170.96 159.65 159.64 170.78 147.06 170.55 C 112.71 170.58 78.36 170.62 44.01 170.50 C 31.73 170.32 20.99 159.33 21.04 147.06 C 20.97 113.03 21.05 79.00 21.04 44.96 M 112.38 32.51 C 94.16 35.10 79.33 51.66 78.55 70.01 C 77.49 84.72 85.30 99.56 97.95 107.10 C 111.19 115.30 129.12 114.84 141.90 105.92 C 154.99 97.19 161.94 80.43 158.89 64.99 C 155.44 43.93 133.38 28.39 112.38 32.51 Z" />
<path fill="#8fc8e6" opacity="1.00" d=" M 115.33 49.40 C 126.21 47.43 137.75 54.37 141.17 64.87 C 146.61 78.92 135.13 95.78 120.07 95.80 C 106.31 96.91 93.91 83.65 95.81 70.00 C 96.72 59.77 105.18 50.88 115.33 49.40 M 116.45 60.70 C 110.88 61.83 106.66 67.36 107.05 73.03 C 107.17 79.58 113.44 85.19 119.99 84.45 C 127.23 84.12 132.82 76.22 130.64 69.28 C 129.06 63.30 122.51 59.20 116.45 60.70 Z" />
</g>
</svg>
