<?xml version="1.0" encoding="UTF-8" ?>
<!DOCTYPE svg PUBLIC "-//W3C//DTD SVG 1.1//EN" "http://www.w3.org/Graphics/SVG/1.1/DTD/svg11.dtd">
<svg width="192pt" height="192pt" viewBox="0 0 192 192" version="1.1" xmlns="http://www.w3.org/2000/svg">
<g id="#45e371ff">
<path fill="#45e371" opacity="1.00" d=" M 40.21 21.13 C 61.73 20.05 83.42 21.00 105.00 20.65 C 108.19 20.84 112.08 19.87 114.52 22.51 C 127.41 35.29 140.27 48.10 153.09 60.95 C 154.84 62.44 154.89 64.83 154.87 66.95 C 154.80 99.65 154.94 132.35 154.82 165.04 C 155.06 168.21 152.11 170.88 149.00 170.54 C 113.67 170.57 78.34 170.56 43.01 170.54 C 39.41 170.97 36.51 167.57 37.04 164.08 C 37.04 118.36 37.04 72.64 37.06 26.92 C 36.89 24.57 37.92 22.06 40.21 21.13 M 47.64 31.30 C 47.62 74.18 47.65 117.05 47.64 159.93 C 79.85 160.08 112.06 159.97 144.27 159.98 C 144.27 130.06 144.29 100.14 144.26 70.21 C 133.15 70.15 122.03 70.30 110.92 70.16 C 108.03 70.33 105.29 67.97 105.35 65.03 C 105.16 53.80 105.38 42.55 105.26 31.32 C 86.05 31.31 66.85 31.34 47.64 31.30 M 115.88 38.84 C 115.82 45.74 115.84 52.65 115.87 59.56 C 122.81 59.62 129.75 59.62 136.69 59.55 C 129.77 52.63 122.88 45.68 115.88 38.84 Z" />
<path fill="#45e371" opacity="1.00" d=" M 62.41 92.54 C 83.93 91.92 105.53 92.44 127.08 92.27 C 129.83 91.89 132.67 94.05 132.38 96.97 C 132.48 112.00 132.47 127.04 132.39 142.07 C 132.53 144.91 129.68 146.84 127.04 146.49 C 106.35 146.50 85.66 146.50 64.97 146.49 C 62.20 146.90 59.33 144.79 59.50 141.87 C 59.39 127.23 59.50 112.58 59.46 97.94 C 59.32 95.79 60.08 93.17 62.41 92.54 M 69.34 100.34 C 65.62 101.94 66.79 108.49 70.98 108.38 C 76.98 108.52 83.00 108.62 88.99 108.32 C 93.60 107.94 93.59 100.39 89.00 99.95 C 82.49 99.85 75.74 99.16 69.34 100.34 M 101.31 100.26 C 97.54 101.80 98.62 108.61 102.94 108.39 C 108.95 108.48 114.99 108.65 121.00 108.29 C 125.44 107.72 125.35 100.51 120.93 99.96 C 114.43 99.81 107.72 99.26 101.31 100.26 M 69.46 115.66 C 65.64 117.30 66.75 123.84 71.02 123.85 C 77.23 123.95 83.52 124.30 89.70 123.64 C 93.84 122.50 93.15 115.64 88.87 115.42 C 82.41 115.36 75.87 114.95 69.46 115.66 M 101.45 115.61 C 97.57 117.15 98.56 123.96 102.94 123.86 C 108.92 124.01 114.94 124.15 120.91 123.78 C 125.43 123.26 125.37 115.87 120.86 115.44 C 114.41 115.31 107.88 115.02 101.45 115.61 M 69.43 130.60 C 65.64 132.28 66.76 138.82 71.04 138.77 C 77.23 138.86 83.48 139.17 89.64 138.59 C 93.81 137.52 93.20 130.55 88.88 130.37 C 82.41 130.30 75.86 129.89 69.43 130.60 M 101.44 130.56 C 97.88 131.97 98.32 138.12 102.23 138.68 C 108.43 139.02 114.69 138.98 120.89 138.70 C 125.42 138.26 125.38 130.81 120.87 130.39 C 114.41 130.26 107.87 129.95 101.44 130.56 Z" />
</g>
</svg>
