<?xml version="1.0" encoding="UTF-8" ?>
<!DOCTYPE svg PUBLIC "-//W3C//DTD SVG 1.1//EN" "http://www.w3.org/Graphics/SVG/1.1/DTD/svg11.dtd">
<svg width="192pt" height="192pt" viewBox="0 0 192 192" version="1.1" xmlns="http://www.w3.org/2000/svg">
<g id="#c249e9ff">
<path fill="#c249e9" opacity="1.00" d=" M 25.13 35.92 C 24.82 25.94 36.07 17.92 45.38 21.65 C 56.15 26.61 66.15 33.24 76.96 38.08 C 95.33 38.40 113.72 38.00 132.09 38.22 C 139.86 38.39 146.73 45.19 147.05 52.95 C 147.38 60.79 146.87 68.64 147.29 76.48 C 152.21 79.22 157.74 81.21 161.81 85.21 C 168.42 92.02 166.52 104.67 158.04 109.06 C 121.04 129.06 84.06 149.09 46.99 168.95 C 37.43 174.21 24.59 165.83 25.11 155.07 C 25.07 115.36 25.05 75.64 25.13 35.92 M 36.35 36.09 C 36.25 75.73 36.28 115.39 36.34 155.03 C 36.06 158.18 40.07 160.40 42.63 158.55 C 57.10 150.73 71.71 143.14 85.98 134.97 C 77.98 134.69 69.97 135.06 61.97 134.78 C 53.94 134.46 47.17 127.05 47.28 119.06 C 47.25 97.35 47.26 75.64 47.29 53.93 C 47.19 48.00 50.91 42.80 55.77 39.71 C 51.27 37.41 46.93 34.80 42.39 32.60 C 39.87 31.10 36.11 33.03 36.35 36.09 M 57.81 54.95 C 57.81 75.98 57.81 97.01 57.83 118.04 C 57.37 121.53 60.46 124.73 63.98 124.21 C 78.00 124.17 92.04 124.37 106.05 124.09 C 116.41 119.06 126.43 113.27 136.58 107.80 C 136.44 89.86 136.66 71.91 136.49 53.97 C 136.56 50.63 133.15 48.36 130.03 48.75 C 108.01 48.75 85.99 48.71 63.97 48.74 C 60.48 48.33 57.35 51.45 57.81 54.95 M 147.15 89.04 C 147.14 93.41 147.14 97.78 147.13 102.15 C 149.78 100.42 154.33 99.65 154.61 95.87 C 154.80 91.77 149.87 90.88 147.15 89.04 Z" />
<path fill="#c249e9" opacity="1.00" d=" M 66.40 64.34 C 71.34 62.80 76.84 64.06 82.00 63.63 C 84.94 63.82 89.42 62.67 90.61 66.35 C 91.07 72.89 90.77 79.48 90.78 86.04 C 90.99 89.12 87.61 90.38 85.06 90.12 C 79.13 89.89 73.12 90.62 67.26 89.68 C 62.93 87.63 65.25 81.77 64.68 78.00 C 65.35 73.57 63.04 67.87 66.40 64.34 Z" />
<path fill="#c249e9" opacity="1.00" d=" M 98.31 64.22 C 107.04 62.92 116.14 63.98 125.01 63.66 C 131.05 62.56 131.87 73.37 126.02 73.51 C 117.36 73.59 108.68 73.65 100.02 73.47 C 95.61 73.23 95.00 66.33 98.31 64.22 Z" />
<path fill="#c249e9" opacity="1.00" d=" M 99.18 80.20 C 108.12 79.76 117.11 80.05 126.06 80.05 C 131.37 80.28 131.35 89.86 125.97 89.96 C 117.64 90.25 109.28 90.14 100.95 90.02 C 95.61 90.47 94.47 81.79 99.18 80.20 Z" />
</g>
</svg>
