<?xml version="1.0" encoding="UTF-8" ?>
<!DOCTYPE svg PUBLIC "-//W3C//DTD SVG 1.1//EN" "http://www.w3.org/Graphics/SVG/1.1/DTD/svg11.dtd">
<svg width="192pt" height="192pt" viewBox="0 0 192 192" version="1.1" xmlns="http://www.w3.org/2000/svg">
<g id="#6c99b7ff">
<path fill="#6c99b7" opacity="1.00" d=" M 135.37 14.48 C 151.84 10.62 169.91 20.27 176.13 35.92 C 181.44 48.13 178.79 62.57 170.93 73.03 C 170.54 98.03 170.96 123.07 170.72 148.08 C 170.40 160.29 159.19 170.84 146.99 170.53 C 113.00 170.52 79.02 170.58 45.04 170.50 C 32.73 170.42 21.95 159.32 22.08 147.05 C 22.01 113.03 22.05 79.00 22.06 44.98 C 21.72 32.58 32.50 21.23 44.93 21.11 C 70.25 20.92 95.58 21.20 120.89 20.98 C 125.39 18.17 130.07 15.46 135.37 14.48 M 137.42 25.61 C 123.28 28.44 114.29 44.94 119.64 58.37 C 124.03 71.70 140.80 78.69 153.34 72.33 C 165.05 67.09 170.91 52.09 165.68 40.33 C 161.41 29.42 148.81 22.93 137.42 25.61 M 33.78 46.00 C 33.95 80.53 33.47 115.07 34.02 149.59 C 60.71 123.64 86.57 96.82 113.07 70.67 C 106.01 59.53 104.71 44.93 110.85 33.09 C 88.88 33.19 66.92 33.08 44.95 33.15 C 38.38 33.08 33.33 39.70 33.78 46.00 M 121.28 79.02 C 115.93 84.50 110.53 89.93 105.07 95.30 C 122.88 113.41 140.69 131.55 158.88 149.27 C 159.18 126.94 159.16 104.60 158.87 82.27 C 146.99 88.51 132.04 86.79 121.28 79.02 M 42.96 158.44 C 77.31 158.96 111.68 158.54 146.04 158.66 C 147.25 158.27 150.11 159.41 149.88 157.35 C 132.34 139.42 114.44 121.81 96.85 103.92 C 78.77 121.93 60.25 139.75 42.96 158.44 Z" />
</g>
</svg>
