<?xml version="1.0" encoding="UTF-8" ?>
<!DOCTYPE svg PUBLIC "-//W3C//DTD SVG 1.1//EN" "http://www.w3.org/Graphics/SVG/1.1/DTD/svg11.dtd">
<svg width="192pt" height="192pt" viewBox="0 0 192 192" version="1.1" xmlns="http://www.w3.org/2000/svg">
<g id="#39b2d2ff">
<path fill="#39b2d2" opacity="1.00" d=" M 30.35 34.13 C 31.18 26.61 38.41 20.67 45.94 21.11 C 78.99 21.11 112.04 21.07 145.08 21.15 C 152.36 20.98 159.10 26.82 160.05 34.01 C 160.66 39.73 160.06 45.50 160.39 51.24 C 166.94 53.82 171.63 60.84 170.36 67.97 C 168.17 80.31 165.26 92.54 163.22 104.91 C 165.27 120.86 168.37 136.69 170.55 152.63 C 171.51 161.35 163.74 169.33 155.07 169.10 C 115.36 169.12 75.65 169.17 35.95 169.07 C 27.34 169.41 19.43 161.65 20.23 152.95 C 22.35 136.93 25.47 121.02 27.58 105.00 C 25.51 92.29 22.40 79.75 20.32 67.05 C 19.48 60.13 24.23 53.97 30.24 51.12 C 30.21 45.46 29.97 39.78 30.35 34.13 M 42.18 33.18 C 39.48 38.39 41.33 44.82 40.94 50.51 C 77.11 50.52 113.28 50.55 149.44 50.46 C 148.70 44.74 151.08 38.05 148.01 32.97 C 142.89 30.65 136.92 32.25 131.46 31.88 C 131.93 35.79 131.19 41.83 126.00 41.65 C 120.84 41.82 120.09 35.80 120.51 31.89 C 103.61 31.73 86.70 31.85 69.80 31.84 C 70.34 35.85 69.48 42.04 64.13 41.65 C 59.04 41.57 58.69 35.63 58.79 31.83 C 53.33 32.41 47.15 30.45 42.18 33.18 M 33.23 62.06 C 31.43 62.95 30.88 65.10 31.29 66.94 C 33.52 79.66 36.61 92.25 38.59 105.00 C 36.45 121.03 33.44 136.97 31.18 152.99 C 30.50 155.75 33.18 158.40 35.91 158.00 C 75.63 157.98 115.35 158.04 155.07 157.97 C 157.69 158.28 160.13 155.71 159.57 153.10 C 157.25 137.04 154.31 121.06 152.10 104.99 C 154.11 92.11 157.23 79.41 159.49 66.57 C 160.11 63.94 157.68 61.27 155.02 61.54 C 116.01 61.45 77.00 61.55 38.00 61.46 C 36.42 61.60 34.66 61.21 33.23 62.06 Z" />
<path fill="#39b2d2" opacity="1.00" d=" M 89.57 85.53 C 95.79 85.26 103.56 83.74 108.43 88.58 C 111.72 95.20 111.76 104.65 105.93 109.94 C 102.15 113.71 98.28 117.40 94.45 121.12 C 99.64 121.17 104.83 121.00 110.02 121.22 C 110.34 123.63 111.14 126.40 109.86 128.64 C 100.83 129.81 91.59 128.82 82.49 128.59 C 82.58 125.75 81.51 122.17 84.04 120.08 C 89.15 114.83 94.65 109.97 99.73 104.69 C 102.30 102.06 101.84 98.01 101.32 94.69 C 97.42 90.58 88.24 92.80 90.34 99.55 C 87.67 99.77 84.96 100.06 82.31 99.55 C 80.20 94.26 82.83 85.84 89.57 85.53 Z" />
</g>
</svg>
