<?xml version="1.0" encoding="UTF-8" ?>
<!DOCTYPE svg PUBLIC "-//W3C//DTD SVG 1.1//EN" "http://www.w3.org/Graphics/SVG/1.1/DTD/svg11.dtd">
<svg width="192pt" height="192pt" viewBox="0 0 192 192" version="1.1" xmlns="http://www.w3.org/2000/svg">
<g id="#1ab0ffff">
<path fill="#1ab0ff" opacity="1.00" d=" M 38.32 37.31 C 58.65 16.67 90.44 8.65 118.20 16.74 C 136.36 21.72 152.33 33.54 163.20 48.81 C 182.34 75.88 182.82 115.14 162.95 141.93 C 157.12 147.02 151.04 138.53 154.41 132.91 C 142.60 136.50 129.58 134.52 119.29 127.75 C 116.05 125.33 110.76 123.75 110.56 119.00 C 110.44 114.65 115.94 111.71 119.39 114.48 C 126.32 119.32 134.23 123.68 142.97 123.36 C 153.95 123.19 164.41 114.63 166.05 103.64 C 154.68 106.45 141.88 107.31 131.76 100.25 C 115.65 90.31 108.47 71.68 94.69 59.31 C 87.30 52.68 78.92 46.03 68.86 44.39 C 57.27 43.28 44.53 49.02 38.39 59.00 C 49.76 56.16 61.97 57.86 71.92 64.14 C 84.29 71.09 93.02 82.62 101.05 93.99 C 103.47 97.47 100.17 102.87 95.98 102.38 C 92.67 102.35 90.98 99.09 89.23 96.78 C 81.38 85.40 71.34 74.55 57.88 70.08 C 49.41 67.07 39.28 69.57 33.27 76.28 C 26.55 83.62 23.98 94.24 25.98 103.94 C 30.40 101.34 34.62 97.79 40.02 97.66 C 52.44 96.98 63.36 104.91 71.17 113.85 C 79.83 123.77 87.73 135.00 99.71 141.24 C 102.58 142.97 106.66 144.21 107.29 148.02 C 108.12 152.19 103.01 155.91 99.28 153.78 C 88.37 148.77 79.04 140.76 71.30 131.67 C 64.66 123.72 58.36 114.76 48.63 110.35 C 43.50 107.92 35.86 108.52 33.26 114.28 C 29.80 120.70 32.41 128.05 36.54 133.43 C 52.40 159.30 86.20 171.97 115.20 163.28 C 121.91 161.58 127.85 157.96 134.17 155.31 C 139.55 153.39 143.53 161.78 138.95 164.93 C 121.70 175.93 100.16 179.81 80.11 175.80 C 47.73 169.96 20.61 142.38 15.40 109.88 C 10.45 83.89 19.23 55.69 38.32 37.31 M 66.59 31.24 C 69.32 33.56 73.16 33.39 76.38 34.63 C 90.04 39.02 101.19 48.86 110.43 59.53 C 119.89 70.35 126.39 84.32 139.33 91.63 C 147.65 96.50 158.30 95.05 166.19 90.01 C 165.76 86.03 165.12 82.08 164.48 78.13 C 156.66 79.58 148.16 78.36 142.07 72.90 C 131.33 62.88 123.56 50.17 113.28 39.72 C 106.33 32.73 97.15 27.00 87.00 27.07 C 79.95 26.75 73.23 29.23 66.59 31.24 M 121.97 30.21 C 121.76 30.40 121.33 30.77 121.11 30.96 C 129.16 41.45 138.03 51.34 146.60 61.42 C 149.83 65.60 155.00 68.40 160.38 67.16 C 153.13 50.45 138.98 36.76 121.97 30.21 Z" />
</g>
</svg>
