<?xml version="1.0" encoding="UTF-8" ?>
<!DOCTYPE svg PUBLIC "-//W3C//DTD SVG 1.1//EN" "http://www.w3.org/Graphics/SVG/1.1/DTD/svg11.dtd">
<svg width="192pt" height="192pt" viewBox="0 0 192 192" version="1.1" xmlns="http://www.w3.org/2000/svg">
<g id="#4aaacbff">
<path fill="#4aaacb" opacity="1.00" d=" M 30.34 34.14 C 31.17 26.61 38.40 20.67 45.93 21.11 C 78.98 21.11 112.03 21.06 145.08 21.13 C 152.36 20.97 159.11 26.81 160.06 34.01 C 160.66 39.73 160.07 45.49 160.39 51.22 C 166.93 53.83 171.65 60.84 170.36 67.97 C 168.18 80.32 165.26 92.55 163.23 104.91 C 165.26 120.86 168.38 136.69 170.55 152.63 C 171.52 161.36 163.74 169.34 155.07 169.10 C 115.36 169.13 75.65 169.17 35.95 169.08 C 27.34 169.41 19.43 161.65 20.23 152.95 C 22.34 136.93 25.48 121.03 27.57 105.00 C 25.52 92.29 22.38 79.75 20.32 67.04 C 19.48 60.13 24.23 53.98 30.23 51.12 C 30.21 45.46 29.96 39.78 30.34 34.14 M 42.19 33.19 C 39.49 38.39 41.33 44.82 40.95 50.52 C 77.11 50.50 113.27 50.56 149.43 50.46 C 148.69 44.74 151.07 38.06 147.99 32.99 C 142.89 30.69 136.91 32.23 131.45 31.91 C 131.94 35.83 131.18 41.84 126.00 41.66 C 120.85 41.82 120.08 35.83 120.51 31.92 C 103.62 31.73 86.72 31.85 69.82 31.86 C 70.34 35.87 69.47 42.06 64.12 41.66 C 59.04 41.57 58.69 35.64 58.78 31.84 C 53.33 32.40 47.15 30.47 42.19 33.19 M 33.23 62.07 C 31.43 62.96 30.89 65.10 31.30 66.94 C 33.52 79.66 36.63 92.25 38.59 105.00 C 36.47 121.04 33.44 136.97 31.19 152.99 C 30.50 155.75 33.18 158.39 35.91 158.00 C 75.63 157.98 115.36 158.04 155.08 157.96 C 157.69 158.26 160.13 155.71 159.56 153.10 C 157.26 137.04 154.29 121.06 152.10 104.99 C 154.10 92.11 157.24 79.40 159.49 66.56 C 160.09 63.94 157.68 61.28 155.02 61.55 C 116.01 61.44 77.00 61.55 37.99 61.46 C 36.42 61.59 34.66 61.23 33.23 62.07 Z" />
<path fill="#4aaacb" opacity="1.00" d=" M 96.35 92.12 C 96.90 87.86 101.11 85.38 105.12 85.27 C 110.20 85.08 115.60 84.50 120.41 86.53 C 124.44 88.58 124.77 93.57 124.60 97.55 C 121.87 98.38 119.03 98.17 116.25 97.80 C 115.87 96.42 115.51 95.05 115.16 93.68 C 112.32 93.19 109.34 92.68 106.51 93.45 C 103.15 95.65 105.10 100.43 104.52 103.75 C 109.25 101.31 114.93 101.71 119.96 102.88 C 125.28 104.74 125.66 111.24 125.55 116.00 C 125.68 120.73 125.34 127.40 119.85 129.01 C 113.83 130.68 107.21 130.65 101.20 128.95 C 95.92 127.14 95.71 120.65 95.72 115.99 C 96.06 108.04 95.09 100.00 96.35 92.12 M 107.22 110.27 C 103.20 111.44 104.69 116.81 104.84 119.93 C 107.20 123.31 112.68 122.57 115.91 120.90 C 117.12 118.06 116.81 114.68 116.21 111.73 C 114.05 109.19 110.14 110.20 107.22 110.27 Z" />
<path fill="#4aaacb" opacity="1.00" d=" M 67.19 89.43 C 72.79 87.57 78.52 85.08 84.56 86.46 C 84.78 98.01 84.60 109.56 84.69 121.11 C 87.33 121.05 89.98 121.09 92.60 121.45 C 92.66 123.83 92.66 126.21 92.63 128.60 C 84.09 129.95 75.43 128.54 66.85 128.92 C 66.05 126.36 66.05 123.64 66.88 121.09 C 69.80 121.16 72.72 121.16 75.63 121.11 C 75.63 112.38 75.68 103.64 75.60 94.90 C 72.85 94.83 70.09 94.81 67.33 94.77 C 66.87 93.01 66.78 91.21 67.19 89.43 Z" />
</g>
</svg>
