<?xml version="1.0" encoding="UTF-8" ?>
<!DOCTYPE svg PUBLIC "-//W3C//DTD SVG 1.1//EN" "http://www.w3.org/Graphics/SVG/1.1/DTD/svg11.dtd">
<svg width="192pt" height="192pt" viewBox="0 0 192 192" version="1.1" xmlns="http://www.w3.org/2000/svg">
<g id="#328cc9ff">
<path fill="#328cc9" opacity="1.00" d=" M 80.29 15.44 C 105.81 10.11 133.65 18.52 152.19 36.80 C 164.41 48.83 173.68 64.29 176.59 81.33 C 180.31 103.47 174.57 127.09 161.02 145.01 C 141.46 171.37 105.11 183.69 73.59 174.45 C 41.40 165.53 16.90 135.10 14.51 101.86 C 11.36 67.84 32.81 33.91 64.02 20.73 C 70.66 19.19 72.94 29.83 66.36 31.36 C 36.04 44.21 19.25 80.20 27.01 111.88 C 31.63 133.37 47.14 152.03 67.36 160.62 C 84.69 168.64 105.14 168.22 122.77 161.35 C 107.44 115.28 92.10 69.21 76.79 23.13 C 75.41 20.16 76.99 16.19 80.29 15.44 M 90.03 25.41 C 93.28 39.53 99.02 53.05 103.19 66.95 C 108.70 67.03 114.21 66.98 119.73 67.00 C 120.13 64.01 121.67 60.49 125.14 60.31 C 128.94 59.84 131.28 63.56 131.50 66.92 C 138.66 67.15 145.84 66.80 153.00 67.11 C 157.31 67.45 159.29 73.33 156.36 76.37 C 153.99 78.91 150.22 78.21 147.11 78.21 C 143.91 86.79 139.20 94.64 134.02 102.14 C 137.13 107.93 143.80 111.23 147.32 116.85 C 149.81 121.55 143.56 126.87 139.30 123.77 C 134.50 119.95 130.57 115.14 125.93 111.14 C 123.86 113.63 118.58 115.36 120.67 119.33 C 124.76 131.55 128.80 143.79 132.91 156.00 C 152.81 144.32 165.50 121.91 166.26 98.96 C 167.28 78.33 158.87 57.34 143.60 43.37 C 129.32 30.18 109.35 23.72 90.03 25.41 M 107.06 78.32 C 108.00 81.26 108.95 84.20 109.97 87.11 C 111.93 84.13 116.15 82.10 119.22 84.80 C 121.69 87.70 123.11 91.37 125.81 94.12 C 129.51 89.26 132.61 83.95 134.96 78.31 C 125.66 78.37 116.36 78.36 107.06 78.32 M 112.90 95.55 C 113.74 98.76 114.84 101.90 116.00 105.01 C 120.39 102.15 114.73 98.27 112.90 95.55 Z" />
<path fill="#328cc9" opacity="1.00" d=" M 36.84 94.90 C 40.00 76.74 63.32 65.84 79.03 75.92 C 82.28 77.71 86.78 80.69 85.20 85.04 C 83.94 88.94 78.76 89.73 75.94 87.03 C 69.32 81.81 58.93 81.84 52.73 87.72 C 44.59 95.05 45.64 110.17 55.24 115.80 C 64.46 121.86 78.77 117.34 81.78 106.40 C 75.57 106.09 69.24 107.01 63.11 106.00 C 58.10 104.66 58.29 96.61 63.37 95.55 C 71.56 95.01 79.81 95.38 88.03 95.35 C 91.13 95.20 93.62 98.00 93.55 101.02 C 93.87 118.17 75.94 133.07 59.10 128.87 C 44.16 125.86 33.22 109.93 36.84 94.90 Z" />
</g>
</svg>
