<?xml version="1.0" encoding="UTF-8" ?>
<!DOCTYPE svg PUBLIC "-//W3C//DTD SVG 1.1//EN" "http://www.w3.org/Graphics/SVG/1.1/DTD/svg11.dtd">
<svg width="192pt" height="192pt" viewBox="0 0 192 192" version="1.1" xmlns="http://www.w3.org/2000/svg">
<g id="#4fa8c9ff">
<path fill="#4fa8c9" opacity="1.00" d=" M 30.35 34.12 C 31.18 26.60 38.42 20.67 45.94 21.11 C 78.99 21.11 112.03 21.05 145.07 21.13 C 152.35 20.97 159.12 26.80 160.05 34.01 C 160.67 39.73 160.07 45.50 160.41 51.24 C 166.93 53.84 171.64 60.83 170.36 67.95 C 168.20 80.31 165.24 92.54 163.24 104.91 C 165.24 120.87 168.40 136.69 170.55 152.64 C 171.51 161.36 163.74 169.34 155.06 169.10 C 115.36 169.13 75.65 169.17 35.95 169.08 C 27.35 169.41 19.42 161.66 20.23 152.95 C 22.33 136.93 25.50 121.03 27.56 105.01 C 25.54 92.30 22.37 79.76 20.33 67.06 C 19.46 60.14 24.23 53.99 30.22 51.12 C 30.23 45.45 29.94 39.77 30.35 34.12 M 42.19 33.19 C 39.50 38.40 41.28 44.84 41.02 50.53 C 77.16 50.46 113.31 50.62 149.45 50.42 C 148.68 44.72 151.07 38.04 147.98 32.99 C 142.89 30.72 136.90 32.17 131.45 31.99 C 131.93 35.90 131.15 41.84 126.00 41.66 C 120.88 41.83 120.09 35.90 120.52 32.01 C 103.63 31.62 86.72 31.93 69.82 31.85 C 70.32 35.86 69.49 42.05 64.13 41.66 C 59.04 41.57 58.70 35.65 58.78 31.84 C 53.33 32.40 47.14 30.47 42.19 33.19 M 33.24 62.08 C 31.41 62.95 30.90 65.13 31.30 66.96 C 33.51 79.68 36.66 92.25 38.58 105.00 C 36.49 121.04 33.42 136.96 31.19 152.98 C 30.50 155.76 33.18 158.39 35.92 157.99 C 75.63 157.98 115.35 158.05 155.07 157.96 C 157.70 158.27 160.14 155.70 159.55 153.09 C 157.28 137.02 154.27 121.05 152.11 104.98 C 154.09 92.10 157.25 79.40 159.49 66.56 C 160.09 63.94 157.68 61.28 155.01 61.56 C 116.01 61.44 77.00 61.56 38.00 61.46 C 36.42 61.60 34.66 61.24 33.24 62.08 Z" />
<path fill="#4fa8c9" opacity="1.00" d=" M 71.57 85.49 C 77.78 85.17 85.56 83.72 90.43 88.56 C 93.74 95.17 93.77 104.65 87.93 109.94 C 84.19 113.70 80.31 117.32 76.59 121.10 C 81.75 121.16 86.91 121.02 92.07 121.22 C 92.14 123.74 94.04 128.99 90.02 129.01 C 81.51 129.08 72.91 129.61 64.44 128.56 C 64.56 125.72 63.52 122.16 66.03 120.06 C 71.13 114.81 76.63 109.97 81.69 104.70 C 84.23 102.15 83.78 98.25 83.40 95.00 C 79.63 90.39 70.32 92.93 72.10 99.77 C 69.49 99.82 66.85 100.04 64.25 99.60 C 62.22 94.20 64.75 85.79 71.57 85.49 Z" />
<path fill="#4fa8c9" opacity="1.00" d=" M 99.11 92.11 C 99.93 86.01 106.94 84.83 111.99 85.07 C 117.31 85.07 125.06 84.47 127.29 90.65 C 129.36 98.57 127.88 106.90 128.36 115.00 C 128.36 119.91 128.53 126.88 122.97 128.93 C 117.15 130.68 110.74 130.60 104.88 129.08 C 100.19 127.71 98.78 122.03 99.65 117.75 C 102.00 116.40 105.07 117.33 107.70 117.17 C 108.08 118.54 108.46 119.91 108.83 121.29 C 112.14 122.00 116.94 123.45 119.14 119.94 C 119.62 117.08 119.39 114.18 119.46 111.30 C 114.31 114.02 107.81 113.75 102.57 111.47 C 96.91 106.97 98.49 98.42 99.11 92.11 M 110.24 93.27 C 105.83 94.16 107.55 100.05 107.74 103.27 C 110.50 105.97 116.77 106.27 119.17 102.95 C 119.40 99.98 120.34 96.18 118.10 93.78 C 115.67 92.66 112.83 93.08 110.24 93.27 Z" />
</g>
</svg>
