<?xml version="1.0" encoding="UTF-8" ?>
<!DOCTYPE svg PUBLIC "-//W3C//DTD SVG 1.1//EN" "http://www.w3.org/Graphics/SVG/1.1/DTD/svg11.dtd">
<svg width="192pt" height="192pt" viewBox="0 0 192 192" version="1.1" xmlns="http://www.w3.org/2000/svg">
<g id="#f6b12cff">
<path fill="#f6b12c" opacity="1.00" d=" M 40.20 21.16 C 61.71 20.03 83.42 21.02 105.00 20.66 C 108.19 20.85 112.08 19.86 114.53 22.51 C 127.40 35.30 140.26 48.10 153.08 60.94 C 154.85 62.44 154.90 64.84 154.88 66.97 C 154.81 99.67 154.95 132.36 154.83 165.05 C 155.05 168.21 152.11 170.87 149.01 170.54 C 113.67 170.57 78.33 170.55 42.99 170.53 C 39.40 170.95 36.49 167.54 37.04 164.06 C 37.05 118.35 37.06 72.64 37.08 26.93 C 36.90 24.60 37.91 22.07 40.20 21.16 M 47.70 31.24 C 47.49 74.13 47.69 117.04 47.63 159.94 C 79.84 160.07 112.04 159.98 144.25 159.98 C 144.26 130.05 144.29 100.12 144.26 70.19 C 133.15 70.14 122.04 70.26 110.93 70.14 C 108.05 70.33 105.31 67.97 105.35 65.04 C 105.15 53.79 105.43 42.53 105.23 31.27 C 86.05 31.29 66.88 31.36 47.70 31.24 M 115.87 38.83 C 115.85 45.75 115.73 52.67 115.95 59.59 C 122.77 59.57 129.59 59.68 136.41 59.51 C 129.83 52.37 122.77 45.67 115.87 38.83 Z" />
<path fill="#f6b12c" opacity="1.00" d=" M 62.20 99.13 C 79.40 98.33 96.77 98.75 114.02 98.90 C 120.38 99.82 119.51 110.11 113.06 110.00 C 96.70 110.16 80.30 110.27 63.95 109.94 C 58.16 109.93 56.76 100.99 62.20 99.13 Z" />
<path fill="#f6b12c" opacity="1.00" d=" M 63.36 117.49 C 78.90 117.10 94.46 117.47 110.01 117.30 C 112.83 117.17 116.37 117.38 117.82 120.28 C 119.95 123.71 117.12 128.76 113.04 128.55 C 96.49 128.59 79.92 128.72 63.37 128.47 C 57.30 127.94 57.26 118.02 63.36 117.49 Z" />
<path fill="#f6b12c" opacity="1.00" d=" M 62.25 136.37 C 71.79 135.50 81.47 136.24 91.06 135.99 C 95.58 135.26 99.32 140.83 96.61 144.62 C 95.10 147.33 91.71 147.38 88.99 147.28 C 80.33 147.09 71.65 147.51 63.00 147.08 C 57.78 146.14 57.21 138.01 62.25 136.37 Z" />
</g>
</svg>
