<?xml version="1.0" encoding="UTF-8" ?>
<!DOCTYPE svg PUBLIC "-//W3C//DTD SVG 1.1//EN" "http://www.w3.org/Graphics/SVG/1.1/DTD/svg11.dtd">
<svg width="192pt" height="192pt" viewBox="0 0 192 192" version="1.1" xmlns="http://www.w3.org/2000/svg">
<g id="#f6b02cff">
<path fill="#f6b02c" opacity="1.00" d=" M 60.36 22.54 C 80.77 20.70 101.48 22.26 122.00 21.72 C 130.71 21.02 139.66 25.25 144.15 32.83 C 153.98 49.72 163.71 66.67 173.47 83.60 C 177.63 90.74 177.49 100.05 173.22 107.11 C 163.55 123.82 153.95 140.57 144.26 157.27 C 140.12 164.27 132.11 168.70 123.98 168.53 C 104.99 168.57 86.00 168.54 67.01 168.54 C 58.61 168.74 50.37 164.04 46.29 156.69 C 36.67 140.00 27.03 123.32 17.43 106.62 C 13.37 99.59 13.37 90.44 17.52 83.44 C 26.99 66.95 36.53 50.50 46.01 34.01 C 49.04 28.50 54.27 24.20 60.36 22.54 M 63.34 33.45 C 60.03 34.27 57.39 36.76 55.76 39.69 C 46.27 56.23 36.66 72.72 27.21 89.28 C 25.00 93.00 25.19 97.78 27.46 101.42 C 36.97 117.95 46.51 134.46 56.05 150.97 C 58.16 154.90 62.54 157.37 67.00 157.18 C 86.00 157.19 105.01 157.19 124.01 157.16 C 128.48 157.35 132.75 154.75 134.88 150.86 C 144.39 134.37 153.92 117.88 163.41 101.38 C 165.82 97.55 165.73 92.48 163.34 88.67 C 153.82 72.18 144.32 55.67 134.79 39.18 C 132.51 35.00 127.73 32.61 123.01 33.09 C 103.13 33.37 83.18 32.65 63.34 33.45 Z" />
<path fill="#f6b02c" opacity="1.00" d=" M 87.32 58.40 C 102.35 54.77 119.05 61.70 127.19 74.81 C 135.72 87.76 134.85 105.95 125.18 118.06 C 116.09 130.00 99.45 135.43 85.09 130.98 C 70.15 126.87 58.83 112.56 58.21 97.07 C 56.80 79.34 69.94 62.02 87.32 58.40 M 89.37 69.55 C 77.97 72.18 69.18 83.25 69.45 94.99 C 69.14 107.66 79.41 119.39 91.96 120.93 C 107.07 123.53 122.25 110.31 121.74 95.00 C 122.37 78.69 105.10 65.05 89.37 69.55 Z" />
</g>
</svg>
