<?xml version="1.0" encoding="UTF-8" ?>
<!DOCTYPE svg PUBLIC "-//W3C//DTD SVG 1.1//EN" "http://www.w3.org/Graphics/SVG/1.1/DTD/svg11.dtd">
<svg width="192pt" height="192pt" viewBox="0 0 192 192" version="1.1" xmlns="http://www.w3.org/2000/svg">
<g id="#3bb1d1ff">
<path fill="#3bb1d1" opacity="1.00" d=" M 30.35 34.13 C 31.18 26.60 38.41 20.67 45.94 21.11 C 78.99 21.11 112.03 21.07 145.08 21.15 C 152.35 20.97 159.11 26.81 160.05 34.02 C 160.67 39.75 160.04 45.52 160.41 51.27 C 166.96 53.82 171.62 60.86 170.36 67.96 C 168.18 80.31 165.25 92.54 163.23 104.91 C 165.26 120.86 168.38 136.69 170.55 152.63 C 171.51 161.35 163.73 169.33 155.06 169.10 C 115.36 169.13 75.65 169.17 35.95 169.08 C 27.34 169.41 19.43 161.65 20.23 152.95 C 22.35 136.93 25.48 121.03 27.57 105.00 C 25.52 92.30 22.39 79.76 20.33 67.06 C 19.47 60.13 24.24 53.98 30.24 51.11 C 30.22 45.45 29.97 39.78 30.35 34.13 M 42.18 33.18 C 39.51 38.39 41.26 44.84 41.02 50.53 C 77.16 50.47 113.32 50.62 149.47 50.42 C 148.67 44.71 151.09 38.03 147.99 32.98 C 142.89 30.68 136.89 32.18 131.43 31.95 C 131.94 35.85 131.15 41.85 126.00 41.65 C 120.88 41.83 120.08 35.86 120.54 31.97 C 103.63 31.61 86.71 31.95 69.79 31.81 C 70.34 35.82 69.50 42.05 64.13 41.65 C 59.04 41.57 58.69 35.63 58.79 31.82 C 53.33 32.42 47.14 30.45 42.18 33.18 M 33.23 62.07 C 31.41 62.93 30.89 65.12 31.29 66.95 C 33.52 79.67 36.63 92.25 38.59 105.00 C 36.46 121.03 33.43 136.96 31.18 152.98 C 30.50 155.75 33.18 158.40 35.91 158.00 C 75.63 157.98 115.35 158.05 155.07 157.96 C 157.69 158.28 160.14 155.70 159.56 153.09 C 157.26 137.03 154.29 121.05 152.10 104.98 C 154.11 92.11 157.24 79.40 159.49 66.56 C 160.10 63.93 157.68 61.27 155.01 61.55 C 116.01 61.44 77.00 61.55 37.99 61.46 C 36.42 61.60 34.66 61.21 33.23 62.07 Z" />
<path fill="#3bb1d1" opacity="1.00" d=" M 82.07 86.29 C 90.93 86.23 99.80 86.09 108.67 86.28 C 109.28 88.75 109.34 91.29 108.72 93.76 C 102.62 93.97 96.51 93.64 90.41 93.90 C 90.45 96.88 90.45 99.87 90.36 102.85 C 94.79 100.41 100.17 100.81 104.94 101.86 C 110.00 103.46 110.85 109.43 110.61 114.00 C 110.53 118.92 111.45 125.47 106.44 128.39 C 100.38 130.84 93.41 130.60 87.17 128.99 C 82.59 127.73 81.30 122.24 81.79 118.10 C 83.80 116.25 87.28 117.50 89.88 117.25 C 89.91 122.92 97.26 123.30 100.98 120.93 C 102.42 117.46 101.81 113.30 101.37 109.62 C 95.55 104.18 87.86 113.11 81.81 108.91 C 81.67 101.39 81.31 93.78 82.07 86.29 Z" />
</g>
</svg>
