<?xml version="1.0" encoding="UTF-8" ?>
<!DOCTYPE svg PUBLIC "-//W3C//DTD SVG 1.1//EN" "http://www.w3.org/Graphics/SVG/1.1/DTD/svg11.dtd">
<svg width="192pt" height="192pt" viewBox="0 0 192 192" version="1.1" xmlns="http://www.w3.org/2000/svg">
<g id="#6e9ea5ff">
<path fill="#6e9ea5" opacity="1.00" d=" M 79.30 14.36 C 83.50 12.59 88.67 16.40 87.42 21.01 C 86.62 24.94 82.25 25.40 79.03 26.10 C 52.95 31.86 31.40 53.86 26.07 80.02 C 25.50 82.49 25.28 85.54 22.81 86.93 C 19.27 89.25 13.92 86.28 14.27 81.99 C 18.89 48.76 46.42 20.56 79.30 14.36 Z" />
<path fill="#6e9ea5" opacity="1.00" d=" M 105.43 14.58 C 106.57 14.10 107.77 13.96 109.04 14.14 C 142.98 19.07 171.81 47.97 176.59 81.95 C 177.04 86.21 171.71 89.19 168.19 86.94 C 165.25 85.24 165.36 81.46 164.53 78.58 C 158.55 51.61 135.18 29.75 108.00 25.14 C 102.49 25.12 100.41 17.04 105.43 14.58 Z" />
<path fill="#6e9ea5" opacity="1.00" d=" M 90.39 57.30 C 95.56 52.53 104.98 57.00 104.69 63.98 C 104.76 84.66 104.78 105.35 104.70 126.03 C 104.82 130.70 100.60 134.76 96.00 134.86 C 91.44 134.66 86.91 130.95 87.09 126.10 C 86.79 111.78 87.20 97.43 86.86 83.10 C 82.63 86.25 78.84 91.71 72.95 91.10 C 66.17 90.50 62.56 81.32 67.49 76.44 C 74.86 69.77 82.75 63.67 90.39 57.30 Z" />
<path fill="#6e9ea5" opacity="1.00" d=" M 19.34 102.41 C 22.78 101.99 25.41 105.08 25.63 108.31 C 30.37 135.27 52.25 158.25 79.00 164.15 C 81.85 164.91 85.58 165.02 86.98 168.13 C 88.86 171.58 85.99 176.37 82.05 176.24 C 47.91 171.32 18.89 142.22 14.27 108.01 C 14.08 105.18 16.54 102.56 19.34 102.41 Z" />
<path fill="#6e9ea5" opacity="1.00" d=" M 168.25 103.11 C 171.76 100.90 176.91 103.85 176.65 108.01 C 172.01 142.54 142.45 171.81 107.95 176.38 C 103.95 176.45 101.08 171.59 103.11 168.12 C 104.43 165.23 107.94 165.15 110.62 164.49 C 137.00 159.09 159.07 137.19 164.70 110.87 C 165.42 108.16 165.41 104.60 168.25 103.11 Z" />
</g>
</svg>
