<?xml version="1.0" encoding="UTF-8" ?>
<!DOCTYPE svg PUBLIC "-//W3C//DTD SVG 1.1//EN" "http://www.w3.org/Graphics/SVG/1.1/DTD/svg11.dtd">
<svg width="192pt" height="192pt" viewBox="0 0 192 192" version="1.1" xmlns="http://www.w3.org/2000/svg">
<g id="#18adffff">
<path fill="#18adff" opacity="1.00" d=" M 84.41 14.53 C 117.88 9.25 153.17 27.44 168.51 57.59 C 184.72 87.50 179.37 127.22 155.69 151.68 C 132.09 177.64 91.18 185.09 59.92 169.20 C 28.63 154.39 9.43 118.27 14.89 84.04 C 19.31 48.83 49.21 18.97 84.41 14.53 M 87.35 25.45 C 63.25 28.11 41.42 44.36 31.53 66.43 C 18.31 94.55 26.60 130.71 50.92 150.11 C 76.64 172.27 118.39 171.40 143.15 148.17 C 167.43 127.21 173.78 89.05 157.74 61.30 C 144.34 36.52 115.30 21.71 87.35 25.45 Z" />
<path fill="#18adff" opacity="1.00" d=" M 62.75 78.72 C 71.60 60.14 97.11 52.31 114.56 63.46 C 119.07 66.78 115.64 74.79 110.11 73.79 C 105.12 72.38 100.35 69.65 94.97 70.11 C 79.37 70.20 67.23 87.33 71.77 102.12 C 74.52 114.08 87.01 122.36 99.07 120.98 C 108.86 120.22 118.31 112.39 119.03 102.30 C 113.05 102.04 107.02 102.56 101.07 101.88 C 95.88 100.80 96.09 92.27 101.38 91.56 C 109.93 91.21 118.52 91.34 127.08 91.38 C 130.23 91.03 133.43 93.66 133.08 96.95 C 132.79 107.07 127.92 116.75 120.72 123.74 C 106.86 136.64 82.98 135.62 69.87 122.14 C 58.45 111.23 55.38 92.68 62.75 78.72 Z" />
</g>
</svg>
