<?xml version="1.0" encoding="UTF-8" ?>
<!DOCTYPE svg PUBLIC "-//W3C//DTD SVG 1.1//EN" "http://www.w3.org/Graphics/SVG/1.1/DTD/svg11.dtd">
<svg width="192pt" height="192pt" viewBox="0 0 192 192" version="1.1" xmlns="http://www.w3.org/2000/svg">
<g id="#19b0ffff">
<path fill="#19b0ff" opacity="1.00" d=" M 84.42 14.53 C 116.11 9.60 149.58 25.51 165.94 53.04 C 183.53 81.12 181.41 119.81 160.76 145.74 C 148.09 162.21 128.97 173.54 108.41 176.60 C 82.72 180.66 55.16 171.71 37.22 152.78 C 15.26 130.58 7.99 95.47 19.43 66.40 C 29.61 39.05 55.46 18.35 84.42 14.53 M 41.09 51.02 C 20.74 75.16 19.96 113.25 39.51 138.09 C 46.71 123.38 59.10 111.24 74.61 105.61 C 64.88 97.31 59.82 83.68 63.09 71.14 C 66.51 55.98 81.54 44.56 97.07 45.36 C 112.70 45.69 126.93 58.25 129.22 73.72 C 131.26 85.56 126.22 97.94 117.09 105.59 C 127.34 109.81 137.49 115.89 143.77 125.25 C 146.73 130.54 138.59 135.81 134.87 131.19 C 122.08 116.14 100.12 109.17 81.19 115.38 C 67.65 119.38 55.85 129.19 50.07 142.13 C 48.94 145.10 49.71 148.75 52.03 150.93 C 69.24 165.09 93.44 169.65 114.82 163.73 C 146.63 155.49 169.66 122.84 166.39 90.07 C 164.45 55.56 133.65 25.58 98.99 25.12 C 76.97 23.75 54.89 33.89 41.09 51.02 M 92.44 56.67 C 81.43 58.29 72.59 68.88 73.27 80.05 C 73.34 92.26 84.95 102.71 97.07 101.83 C 108.38 101.33 118.36 91.36 118.51 79.97 C 119.34 66.37 105.91 54.21 92.44 56.67 Z" />
</g>
</svg>
