<?xml version="1.0" encoding="UTF-8" ?>
<!DOCTYPE svg PUBLIC "-//W3C//DTD SVG 1.1//EN" "http://www.w3.org/Graphics/SVG/1.1/DTD/svg11.dtd">
<svg width="192pt" height="192pt" viewBox="0 0 192 192" version="1.1" xmlns="http://www.w3.org/2000/svg">
<g id="#9c9c74ff">
<path fill="#9c9c74" opacity="1.00" d=" M 90.94 18.96 C 90.75 14.54 96.72 12.07 99.79 15.20 C 112.67 27.32 125.42 39.58 138.25 51.75 C 139.75 53.08 141.00 54.85 140.81 56.96 C 140.91 68.01 140.79 79.06 140.87 90.12 C 151.56 90.26 162.26 89.95 172.95 90.22 C 177.25 90.43 179.44 96.30 176.34 99.29 C 163.98 112.30 151.59 125.29 139.19 138.26 C 137.89 139.72 135.95 140.36 134.03 140.22 C 123.16 140.22 112.29 140.21 101.41 140.21 C 101.44 150.81 101.48 161.41 101.41 172.01 C 101.83 176.45 95.93 179.33 92.68 176.35 C 79.76 164.27 67.08 151.92 54.22 139.78 C 52.87 138.45 51.36 136.92 51.46 134.87 C 51.30 123.51 51.55 112.15 51.35 100.80 C 40.60 100.68 29.84 100.89 19.10 100.68 C 14.70 100.69 12.36 94.56 15.60 91.61 C 27.72 78.73 40.01 66.01 52.16 53.15 C 53.41 51.79 55.02 50.57 56.98 50.75 C 68.26 50.66 79.55 50.74 90.83 50.71 C 90.97 40.13 90.73 29.54 90.94 18.96 M 101.71 32.05 C 101.30 48.98 102.45 65.87 102.13 82.81 C 104.47 85.21 106.87 87.55 109.22 89.94 C 116.14 90.16 123.06 90.01 129.98 90.02 C 129.95 79.99 130.15 69.95 129.99 59.93 C 130.09 58.34 128.49 57.47 127.58 56.41 C 118.90 48.35 110.54 39.93 101.71 32.05 M 59.37 61.49 C 50.05 70.71 41.43 80.59 32.10 89.80 C 48.98 90.07 65.86 90.01 82.74 89.86 C 85.20 87.26 87.96 84.95 90.26 82.20 C 90.88 75.36 90.39 68.42 90.46 61.54 C 80.09 61.50 69.73 61.57 59.37 61.49 M 92.94 95.28 C 93.90 96.34 94.91 97.37 95.98 98.33 C 98.95 96.74 99.19 94.26 96.02 92.73 C 95.00 93.59 93.98 94.45 92.94 95.28 M 62.21 101.13 C 62.30 111.63 62.10 122.13 62.31 132.62 C 71.77 141.37 80.66 150.78 90.47 159.11 C 90.62 142.40 90.22 125.69 90.19 108.99 C 88.25 105.96 85.25 103.79 82.81 101.16 C 75.94 101.11 69.07 101.16 62.21 101.13 M 109.14 101.16 C 106.53 103.67 103.90 106.17 101.52 108.90 C 101.56 115.72 101.49 122.55 101.56 129.37 C 112.01 129.39 122.46 129.52 132.91 129.28 C 141.70 119.82 150.79 110.65 159.52 101.13 C 142.73 101.15 125.93 101.13 109.14 101.16 Z" />
</g>
</svg>
