<?xml version="1.0" encoding="UTF-8" ?>
<!DOCTYPE svg PUBLIC "-//W3C//DTD SVG 1.1//EN" "http://www.w3.org/Graphics/SVG/1.1/DTD/svg11.dtd">
<svg width="192pt" height="192pt" viewBox="0 0 192 192" version="1.1" xmlns="http://www.w3.org/2000/svg">
<g id="#1cb6ffff">
<path fill="#1cb6ff" opacity="1.00" d=" M 93.28 24.33 C 99.35 22.13 105.79 26.02 108.64 31.36 C 129.79 66.85 151.05 102.29 172.14 137.81 C 177.71 147.59 174.82 163.74 162.98 167.20 C 152.70 167.95 142.33 167.22 132.02 167.41 C 122.58 167.68 113.60 162.17 108.79 154.19 C 106.00 149.38 100.94 144.89 94.95 146.21 C 87.05 147.77 85.10 156.89 79.15 161.18 C 73.10 166.51 64.76 167.59 57.00 167.12 C 47.97 166.43 38.80 167.57 29.85 166.24 C 18.84 161.84 16.37 146.52 21.90 136.96 C 42.83 101.92 63.92 66.97 84.88 31.94 C 86.82 28.64 89.53 25.53 93.28 24.33 M 95.48 37.44 C 74.08 72.17 53.45 107.41 32.28 142.30 C 29.90 145.53 29.35 150.61 32.45 153.56 C 39.92 154.40 47.49 153.75 55.00 154.00 C 60.30 153.84 66.15 154.91 70.86 151.84 C 75.34 149.28 77.19 144.19 80.62 140.60 C 85.43 135.23 92.81 131.98 100.05 133.17 C 107.72 134.26 113.87 139.90 117.74 146.33 C 120.69 151.28 126.19 154.63 132.02 154.37 C 141.65 154.28 151.30 154.68 160.92 154.35 C 164.34 152.29 164.17 146.99 162.13 143.92 C 141.34 109.04 120.54 74.16 99.73 39.28 C 99.01 37.73 97.00 35.42 95.48 37.44 Z" />
</g>
</svg>
