<?xml version="1.0" encoding="UTF-8" ?>
<!DOCTYPE svg PUBLIC "-//W3C//DTD SVG 1.1//EN" "http://www.w3.org/Graphics/SVG/1.1/DTD/svg11.dtd">
<svg width="192pt" height="192pt" viewBox="0 0 192 192" version="1.1" xmlns="http://www.w3.org/2000/svg">
<g id="#a98164ff">
<path fill="#a98164" opacity="1.00" d=" M 77.32 24.40 C 87.14 22.84 97.15 24.25 107.04 23.52 C 117.60 22.89 128.02 28.56 133.45 37.58 C 146.65 60.04 159.87 82.50 173.05 104.97 C 176.20 110.81 178.13 117.83 176.46 124.41 C 173.69 135.06 166.40 143.72 161.49 153.41 C 156.85 162.97 146.71 169.43 136.06 169.46 C 109.69 169.55 83.32 169.55 56.95 169.58 C 46.59 169.66 36.55 163.30 32.17 153.94 C 28.18 146.63 23.78 139.55 19.73 132.28 C 15.30 124.16 14.84 113.73 19.56 105.62 C 32.38 83.41 45.35 61.29 58.20 39.10 C 62.18 31.89 69.13 26.00 77.32 24.40 M 79.92 34.41 C 84.19 44.40 90.43 53.62 96.06 62.94 C 101.84 53.85 107.38 44.55 112.22 34.93 C 101.59 33.48 90.66 34.53 79.92 34.41 M 35.06 100.04 C 32.68 104.56 29.44 108.66 27.83 113.55 C 40.83 113.79 53.83 113.49 66.83 113.71 C 74.65 100.71 82.39 87.58 89.64 74.28 C 83.86 62.55 76.79 51.43 70.20 40.12 C 58.07 59.84 46.85 80.11 35.06 100.04 M 121.14 42.00 C 114.86 52.71 108.61 63.44 102.37 74.18 C 109.84 87.22 117.53 100.14 125.11 113.12 C 138.40 113.18 151.70 113.16 164.99 113.09 C 151.81 89.74 137.88 66.79 124.41 43.60 C 123.73 42.50 122.20 39.66 121.14 42.00 M 79.71 113.21 C 90.65 113.33 101.59 113.27 112.53 113.22 C 107.07 103.80 101.63 94.37 95.99 85.05 C 90.54 94.42 85.03 103.76 79.71 113.21 M 27.81 124.34 C 32.65 134.05 38.33 143.37 44.04 152.60 C 50.28 143.57 55.12 133.66 60.83 124.30 C 49.82 124.36 38.81 124.27 27.81 124.34 M 73.43 124.26 C 67.15 135.77 60.05 146.85 53.98 158.47 C 82.34 158.78 110.77 158.90 139.12 158.19 C 132.70 146.83 126.03 135.61 119.58 124.27 C 104.20 124.20 88.82 124.21 73.43 124.26 M 132.83 124.36 C 137.11 134.41 143.57 143.45 148.75 153.08 C 154.66 143.78 160.75 134.35 165.12 124.24 C 154.36 124.21 143.60 124.27 132.83 124.36 Z" />
</g>
</svg>
