<?xml version="1.0" encoding="UTF-8" ?>
<!DOCTYPE svg PUBLIC "-//W3C//DTD SVG 1.1//EN" "http://www.w3.org/Graphics/SVG/1.1/DTD/svg11.dtd">
<svg width="192pt" height="192pt" viewBox="0 0 192 192" version="1.1" xmlns="http://www.w3.org/2000/svg">
<g id="#0d9af4ff">
<path fill="#0d9af4" opacity="1.00" d=" M 94.45 13.50 C 99.95 12.14 104.50 17.76 103.51 23.00 C 103.08 29.50 105.97 40.49 96.98 42.09 C 89.60 43.08 87.54 34.70 88.55 29.01 C 88.56 23.51 87.28 15.02 94.45 13.50 Z" />
<path fill="#0d9af4" opacity="1.00" d=" M 59.27 40.19 C 63.91 37.99 69.90 41.81 69.64 47.00 C 69.67 69.61 69.93 92.25 69.51 114.85 C 68.68 122.69 55.97 122.83 54.99 115.00 C 54.45 93.02 54.93 70.99 54.75 48.99 C 54.48 45.51 55.74 41.54 59.27 40.19 Z" />
<path fill="#0d9af4" opacity="1.00" d=" M 126.32 40.28 C 130.94 37.89 137.13 41.71 136.89 46.96 C 136.73 52.59 137.94 58.62 135.92 63.99 C 132.57 70.56 121.49 67.49 122.05 60.09 C 122.78 53.63 119.27 44.14 126.32 40.28 Z" />
<path fill="#0d9af4" opacity="1.00" d=" M 94.44 46.56 C 98.98 45.24 104.00 49.16 103.68 53.92 C 103.63 82.49 103.96 111.09 103.52 139.65 C 102.47 147.73 89.35 147.15 88.98 139.01 C 88.62 111.01 88.92 82.97 88.83 54.96 C 88.50 51.27 90.70 47.42 94.44 46.56 Z" />
<path fill="#0d9af4" opacity="1.00" d=" M 127.30 71.34 C 132.13 69.50 137.68 73.81 137.17 78.94 C 137.14 101.30 137.42 123.67 137.04 146.01 C 136.42 154.31 122.85 154.16 122.42 145.85 C 122.13 123.56 122.36 101.24 122.31 78.94 C 122.08 75.64 124.14 72.39 127.30 71.34 Z" />
<path fill="#0d9af4" opacity="1.00" d=" M 29.34 74.43 C 34.13 72.51 39.72 76.85 39.22 81.95 C 39.12 91.96 39.56 102.00 38.99 111.99 C 37.94 119.30 26.34 119.71 24.71 112.53 C 23.86 102.72 24.59 92.79 24.34 82.94 C 24.02 79.40 25.76 75.53 29.34 74.43 Z" />
<path fill="#0d9af4" opacity="1.00" d=" M 158.31 74.32 C 163.03 72.72 168.33 76.97 167.82 81.93 C 167.65 92.16 168.28 102.46 167.50 112.66 C 165.74 119.77 154.22 119.17 153.20 111.93 C 152.67 101.95 153.07 91.92 152.99 81.92 C 152.77 78.53 155.01 75.22 158.31 74.32 Z" />
<path fill="#0d9af4" opacity="1.00" d=" M 60.41 124.50 C 64.67 123.11 69.67 126.45 69.83 130.97 C 69.96 136.44 70.45 142.04 69.46 147.45 C 67.66 153.52 58.22 153.96 55.80 148.15 C 54.28 143.26 55.26 137.97 55.03 132.93 C 54.69 129.30 56.77 125.47 60.41 124.50 Z" />
<path fill="#0d9af4" opacity="1.00" d=" M 93.27 150.26 C 97.80 148.22 103.55 152.01 103.41 156.99 C 103.39 162.58 104.03 168.31 102.94 173.82 C 100.96 180.08 91.15 179.98 89.11 173.82 C 88.04 168.63 88.74 163.24 88.60 157.98 C 88.36 154.73 90.18 151.43 93.27 150.26 Z" />
</g>
</svg>
