<?xml version="1.0" encoding="UTF-8" ?>
<!DOCTYPE svg PUBLIC "-//W3C//DTD SVG 1.1//EN" "http://www.w3.org/Graphics/SVG/1.1/DTD/svg11.dtd">
<svg width="192pt" height="192pt" viewBox="0 0 192 192" version="1.1" xmlns="http://www.w3.org/2000/svg">
<g id="#8a668dff">
<path fill="#8a668d" opacity="1.00" d=" M 77.30 24.37 C 87.13 22.85 97.14 24.21 107.04 23.52 C 117.62 22.84 128.01 28.57 133.47 37.58 C 146.55 59.82 159.62 82.06 172.71 104.30 C 176.26 110.51 178.31 118.13 176.25 125.17 C 173.26 135.46 166.29 143.95 161.46 153.40 C 156.83 163.00 146.62 169.41 135.97 169.45 C 109.65 169.52 83.33 169.51 57.01 169.56 C 47.41 169.62 37.98 164.25 33.21 155.92 C 28.94 147.92 24.12 140.22 19.71 132.30 C 15.27 124.16 14.81 113.73 19.54 105.61 C 32.36 83.40 45.33 61.27 58.18 39.08 C 62.15 31.86 69.11 25.99 77.30 24.37 M 79.90 34.42 C 84.28 44.37 90.41 53.59 96.06 62.89 C 101.84 53.83 107.34 44.53 112.20 34.95 C 101.57 33.49 90.64 34.54 79.90 34.42 M 35.47 99.40 C 32.98 104.14 29.59 108.44 27.86 113.55 C 40.81 113.66 53.76 113.69 66.71 113.55 C 74.91 100.85 82.11 87.39 89.77 74.30 C 83.63 62.77 77.08 51.42 70.13 40.36 C 58.12 59.75 47.10 79.77 35.47 99.40 M 121.58 41.38 C 115.07 52.22 108.85 63.25 102.39 74.12 C 109.80 87.23 117.59 100.12 125.14 113.15 C 138.42 113.23 151.70 113.19 164.98 113.15 C 151.80 89.77 137.87 66.81 124.39 43.60 C 123.57 42.73 123.13 40.40 121.58 41.38 M 79.74 113.24 C 90.66 113.38 101.58 113.32 112.49 113.26 C 107.10 103.82 101.65 94.41 95.99 85.13 C 90.53 94.47 85.04 103.80 79.74 113.24 M 27.85 124.34 C 32.65 134.04 38.36 143.31 44.01 152.53 C 50.31 143.58 55.09 133.64 60.79 124.30 C 49.81 124.38 38.83 124.29 27.85 124.34 M 73.44 124.26 C 67.15 135.80 60.00 146.87 53.97 158.53 C 82.36 158.73 110.79 158.96 139.16 158.23 C 132.76 146.84 126.07 135.62 119.60 124.27 C 104.21 124.21 88.83 124.23 73.44 124.26 M 132.83 124.35 C 137.06 134.44 143.54 143.50 148.77 153.13 C 154.66 143.81 160.81 134.39 165.12 124.24 C 154.36 124.23 143.59 124.27 132.83 124.35 Z" />
</g>
</svg>
