<?xml version="1.0" encoding="UTF-8" ?>
<!DOCTYPE svg PUBLIC "-//W3C//DTD SVG 1.1//EN" "http://www.w3.org/Graphics/SVG/1.1/DTD/svg11.dtd">
<svg width="192pt" height="192pt" viewBox="0 0 192 192" version="1.1" xmlns="http://www.w3.org/2000/svg">
<g id="#f8903aff">
<path fill="#f8903a" opacity="1.00" d=" M 118.81 25.38 C 126.44 16.35 139.11 11.92 150.70 14.39 C 164.53 16.96 175.91 29.09 177.54 43.07 C 179.63 54.98 172.87 65.35 167.19 75.08 C 166.94 95.05 167.15 115.03 167.08 135.00 C 166.98 140.80 167.70 146.88 165.34 152.36 C 161.96 160.84 153.15 166.79 143.98 166.55 C 111.67 166.56 79.35 166.61 47.03 166.50 C 35.24 166.45 24.91 155.81 25.05 144.04 C 25.00 111.69 25.05 79.33 25.06 46.98 C 24.79 35.49 34.53 24.87 46.05 24.33 C 70.22 24.14 94.41 24.44 118.58 24.16 L 118.81 25.38 M 124.89 35.85 C 120.03 43.52 120.96 53.67 125.99 61.01 C 132.36 71.13 137.46 82.68 144.59 91.91 C 151.09 80.35 157.93 68.96 164.37 57.36 C 169.90 46.85 165.18 32.71 154.58 27.45 C 144.48 21.82 130.60 25.84 124.89 35.85 M 36.34 46.93 C 36.33 79.91 36.24 112.90 36.39 145.89 C 36.69 145.85 37.28 145.77 37.58 145.73 C 63.86 119.48 90.07 93.15 116.32 66.87 C 110.68 57.53 108.69 45.87 112.64 35.49 C 91.08 35.61 69.51 35.50 47.94 35.53 C 41.83 35.28 36.12 40.78 36.34 46.93 M 104.30 94.99 C 121.33 112.06 138.14 129.46 155.57 146.08 C 155.93 128.99 155.68 111.88 155.68 94.79 C 153.42 98.80 151.19 102.84 148.79 106.78 C 146.81 110.16 141.32 110.04 139.47 106.57 C 133.78 96.83 128.15 87.05 122.57 77.24 C 116.01 82.36 110.40 89.14 104.30 94.99 M 96.19 103.09 C 79.05 120.38 61.60 137.40 44.71 154.93 C 79.01 155.30 113.39 155.42 147.69 154.83 C 130.74 137.38 113.40 120.29 96.19 103.09 Z" />
</g>
</svg>
