<?xml version="1.0" encoding="UTF-8" ?>
<!DOCTYPE svg PUBLIC "-//W3C//DTD SVG 1.1//EN" "http://www.w3.org/Graphics/SVG/1.1/DTD/svg11.dtd">
<svg width="192pt" height="192pt" viewBox="0 0 192 192" version="1.1" xmlns="http://www.w3.org/2000/svg">
<g id="#2a98e9ff">
<path fill="#2a98e9" opacity="1.00" d=" M 51.97 35.96 C 55.70 26.30 65.67 19.56 76.03 19.69 C 100.01 19.66 123.99 19.56 147.96 19.73 C 161.20 19.87 172.90 31.69 172.86 44.94 C 172.88 62.63 173.07 80.34 172.79 98.03 C 172.04 112.82 157.17 123.69 142.83 121.76 C 142.71 127.00 143.30 132.41 141.58 137.47 C 138.64 146.91 129.86 154.26 120.00 155.27 C 109.20 155.94 98.30 154.88 87.55 155.77 C 77.82 160.22 68.39 165.32 58.70 169.87 C 55.73 171.59 51.45 169.93 50.64 166.56 C 50.08 162.90 50.43 159.17 50.34 155.49 C 35.68 157.59 20.49 146.23 20.07 131.09 C 19.97 113.03 19.89 94.95 20.16 76.90 C 21.08 62.35 35.71 51.43 49.94 53.48 C 50.28 47.62 49.56 41.49 51.97 35.96 M 61.45 53.30 C 80.32 53.33 99.20 53.19 118.07 53.31 C 130.69 53.66 141.89 64.33 142.85 76.92 C 143.39 88.08 142.94 99.27 143.08 110.45 C 151.58 111.84 161.14 106.11 161.46 96.99 C 161.64 79.97 161.49 62.95 161.54 45.93 C 161.97 38.07 154.99 30.69 147.04 31.11 C 123.01 31.15 98.98 31.08 74.95 31.14 C 63.71 31.29 59.67 43.90 61.45 53.30 M 31.42 77.99 C 31.20 95.01 31.38 112.04 31.33 129.06 C 31.06 134.91 34.66 140.63 40.03 142.94 C 45.85 145.50 52.42 143.07 58.38 144.71 C 62.67 146.60 61.55 151.96 61.71 155.71 C 69.62 152.14 77.16 147.77 85.15 144.42 C 96.95 143.44 108.93 144.95 120.71 143.65 C 130.38 141.38 132.72 130.43 131.40 121.89 C 112.58 121.80 93.76 121.90 74.94 121.79 C 61.94 121.61 50.25 110.10 50.14 97.05 C 50.14 86.25 50.15 75.44 50.17 64.63 C 41.63 63.18 31.87 68.77 31.42 77.99 M 61.60 64.77 C 61.59 75.18 61.56 85.58 61.60 95.98 C 61.30 103.67 68.34 110.58 76.00 110.25 C 94.42 110.26 112.83 110.23 131.24 110.21 C 131.26 99.81 131.31 89.40 131.26 79.00 C 131.48 71.41 124.54 64.74 117.03 64.85 C 98.56 64.76 80.08 64.82 61.60 64.77 Z" />
</g>
</svg>
