<?xml version="1.0" encoding="UTF-8" ?>
<!DOCTYPE svg PUBLIC "-//W3C//DTD SVG 1.1//EN" "http://www.w3.org/Graphics/SVG/1.1/DTD/svg11.dtd">
<svg width="192pt" height="192pt" viewBox="0 0 192 192" version="1.1" xmlns="http://www.w3.org/2000/svg">
<g id="#418db8ff">
<path fill="#418db8" opacity="1.00" d=" M 90.33 24.03 C 90.19 19.63 93.60 15.39 98.01 14.85 C 111.56 13.64 125.46 19.47 134.25 29.84 C 149.47 46.74 147.50 74.93 130.72 90.07 C 143.18 90.19 155.64 90.01 168.09 90.14 C 172.14 90.16 175.82 93.40 176.58 97.33 C 178.69 115.92 166.76 134.73 149.32 141.27 C 133.09 147.96 113.39 143.08 101.63 130.20 C 101.74 142.46 101.71 154.72 101.68 166.97 C 101.87 171.46 98.50 175.86 93.98 176.46 C 74.81 178.42 55.61 165.63 49.62 147.40 C 43.85 131.40 48.94 112.73 61.24 101.18 C 49.15 101.36 37.06 101.22 24.98 101.26 C 20.55 101.52 16.07 98.37 15.32 93.91 C 13.21 74.69 26.04 55.30 44.38 49.38 C 60.27 43.71 78.87 48.70 90.26 61.01 C 90.34 48.68 90.24 36.35 90.33 24.03 M 101.66 26.04 C 101.59 44.04 101.70 62.03 101.64 80.03 C 101.19 84.32 105.87 86.25 108.14 89.20 C 122.70 86.18 134.06 71.99 133.21 57.03 C 133.23 40.44 118.22 25.81 101.66 26.04 M 26.23 89.92 C 45.10 90.32 64.00 90.03 82.88 90.05 C 85.18 87.79 87.50 85.57 89.65 83.17 C 86.42 68.53 72.02 57.23 56.94 58.29 C 40.40 58.45 26.08 73.46 26.23 89.92 M 109.35 101.31 C 107.01 103.53 104.76 105.84 102.41 108.05 C 105.46 124.15 122.61 135.69 138.69 132.65 C 153.71 130.50 165.82 116.47 165.66 101.27 C 146.89 101.28 128.12 101.20 109.35 101.31 M 58.74 135.96 C 59.76 151.80 74.24 165.49 90.19 165.10 C 90.25 146.39 90.26 127.68 90.23 108.97 C 87.83 106.80 85.91 103.79 83.06 102.29 C 68.14 105.50 57.11 120.77 58.74 135.96 Z" />
</g>
</svg>
