<?xml version="1.0" encoding="UTF-8" ?>
<!DOCTYPE svg PUBLIC "-//W3C//DTD SVG 1.1//EN" "http://www.w3.org/Graphics/SVG/1.1/DTD/svg11.dtd">
<svg width="192pt" height="192pt" viewBox="0 0 192 192" version="1.1" xmlns="http://www.w3.org/2000/svg">
<g id="#4da9c8ff">
<path fill="#4da9c8" opacity="1.00" d=" M 30.25 34.97 C 30.57 27.47 37.42 21.05 44.92 21.09 C 78.30 21.02 111.69 21.05 145.08 21.08 C 152.74 20.86 159.74 27.35 160.23 34.97 C 160.51 40.24 160.27 45.52 160.33 50.80 C 166.51 53.59 171.44 59.89 170.48 66.95 C 168.43 79.67 165.08 92.20 163.27 104.94 C 165.46 120.53 168.36 136.03 170.57 151.63 C 171.60 159.98 164.42 167.94 156.07 168.08 C 116.03 168.19 75.99 168.11 35.95 168.12 C 27.33 168.58 19.37 160.70 20.23 152.02 C 22.34 135.99 25.62 120.09 27.55 104.06 C 25.41 91.94 22.67 79.92 20.45 67.82 C 19.12 60.72 23.69 53.77 30.16 51.06 C 30.23 45.70 30.02 40.33 30.25 34.97 M 41.69 33.69 C 40.11 39.05 41.11 44.77 40.88 50.28 C 77.05 50.37 113.23 50.30 149.40 50.26 C 148.75 44.57 150.98 38.01 148.03 32.92 C 142.93 30.64 136.90 32.12 131.44 31.99 C 132.03 35.89 131.12 41.77 126.01 41.55 C 120.99 41.70 120.02 35.97 120.54 32.10 C 103.70 31.47 86.79 31.81 69.92 31.93 C 70.08 35.63 69.85 41.16 65.01 41.53 C 59.52 42.22 58.46 35.88 58.73 31.79 C 53.18 32.57 46.35 29.92 41.69 33.69 M 34.28 61.41 C 31.87 61.80 30.72 64.57 31.35 66.78 C 33.59 79.27 36.58 91.63 38.62 104.15 C 36.61 120.14 33.48 136.01 31.24 151.98 C 30.48 154.82 33.12 157.50 35.95 157.12 C 75.65 157.17 115.37 157.14 155.07 157.07 C 157.74 157.42 160.18 154.72 159.53 152.10 C 157.24 136.05 154.16 120.10 152.10 104.03 C 154.26 91.47 157.19 79.03 159.45 66.48 C 160.30 63.31 157.09 60.67 154.07 61.25 C 114.14 61.36 74.20 61.02 34.28 61.41 Z" />
<path fill="#4da9c8" opacity="1.00" d=" M 70.00 85.86 C 75.22 84.78 80.79 84.74 86.00 85.86 C 93.72 87.82 92.98 97.76 91.92 103.89 C 88.78 111.07 81.61 115.34 76.55 121.09 C 81.70 121.19 86.86 121.00 92.01 121.22 C 92.26 123.73 94.00 128.97 90.01 129.02 C 81.52 129.00 72.91 129.73 64.48 128.54 C 64.61 125.92 63.55 122.69 65.56 120.58 C 70.77 115.11 76.47 110.13 81.70 104.70 C 84.25 102.16 83.77 98.25 83.41 95.00 C 79.63 90.38 70.31 92.92 72.11 99.77 C 69.50 99.78 66.85 100.08 64.26 99.59 C 62.53 94.81 64.10 87.02 70.00 85.86 Z" />
<path fill="#4da9c8" opacity="1.00" d=" M 108.29 85.28 C 113.65 85.08 119.33 84.46 124.42 86.52 C 129.52 89.30 128.98 96.04 129.24 101.00 C 128.84 108.90 130.22 117.06 127.91 124.75 C 125.80 130.24 118.86 129.93 114.00 130.18 C 109.16 129.95 102.32 130.26 100.01 124.99 C 97.44 117.27 99.10 108.97 98.61 101.00 C 97.89 94.34 99.81 84.99 108.29 85.28 M 110.25 93.35 C 106.32 94.43 107.79 99.89 107.47 102.99 C 108.10 109.01 106.08 115.66 108.85 121.23 C 112.47 122.51 119.93 123.53 120.13 118.02 C 120.44 111.02 120.47 103.97 120.12 96.98 C 120.08 91.80 113.70 93.09 110.25 93.35 Z" />
</g>
</svg>
