<?xml version="1.0" encoding="UTF-8" ?>
<!DOCTYPE svg PUBLIC "-//W3C//DTD SVG 1.1//EN" "http://www.w3.org/Graphics/SVG/1.1/DTD/svg11.dtd">
<svg width="192pt" height="192pt" viewBox="0 0 192 192" version="1.1" xmlns="http://www.w3.org/2000/svg">
<g id="#30cabaff">
<path fill="#30caba" opacity="1.00" d=" M 38.35 37.36 C 56.93 18.58 85.13 9.96 111.02 15.16 C 130.62 18.51 148.39 29.88 160.64 45.40 C 182.31 72.60 183.91 114.73 162.44 142.43 C 156.24 146.53 151.43 138.21 154.35 132.85 C 139.44 137.95 123.12 132.33 111.65 122.35 C 107.96 117.96 113.88 110.99 118.73 114.09 C 125.95 118.92 133.92 123.74 142.96 123.32 C 153.96 123.20 164.21 114.63 166.08 103.75 C 161.32 103.89 156.84 105.95 152.05 105.81 C 142.20 106.39 132.70 102.00 125.46 95.57 C 116.57 87.92 110.63 77.67 103.35 68.62 C 96.48 60.15 88.21 52.68 78.53 47.57 C 65.01 39.86 46.23 46.31 38.34 59.05 C 49.72 56.12 61.97 57.86 71.94 64.13 C 84.31 71.08 93.05 82.62 101.07 93.99 C 103.51 97.47 100.18 102.92 95.99 102.40 C 92.66 102.39 90.96 99.12 89.21 96.81 C 81.37 85.43 71.32 74.57 57.86 70.11 C 49.40 67.11 39.29 69.60 33.30 76.30 C 26.58 83.64 23.98 94.25 26.01 103.94 C 33.86 97.16 45.17 95.59 54.38 100.61 C 72.78 109.15 80.31 130.36 97.83 140.13 C 100.94 142.32 105.52 143.23 107.06 147.08 C 108.89 151.52 103.37 156.16 99.25 153.81 C 88.34 148.80 79.03 140.77 71.28 131.70 C 64.65 123.74 58.35 114.79 48.62 110.38 C 43.27 107.74 35.20 108.76 32.95 115.01 C 29.25 122.70 34.12 130.38 38.62 136.43 C 55.94 161.74 91.07 172.63 119.71 161.77 C 125.06 160.12 129.67 156.70 135.01 155.07 C 140.13 154.26 143.24 161.98 138.99 164.94 C 115.73 179.93 84.69 181.33 59.93 169.13 C 36.69 157.69 19.12 134.84 15.25 109.08 C 10.55 83.33 19.53 55.54 38.35 37.36 M 66.54 32.02 C 83.71 34.94 98.39 45.46 109.50 58.48 C 119.45 69.50 125.98 84.07 139.33 91.64 C 147.66 96.53 158.30 95.03 166.22 90.02 C 165.62 86.17 165.44 82.24 164.39 78.48 C 160.41 77.89 156.03 79.52 152.01 78.05 C 142.97 75.94 137.25 68.15 131.58 61.46 C 122.53 50.93 114.96 38.46 102.60 31.40 C 91.71 24.90 77.27 26.14 66.54 32.02 M 122.68 33.28 C 130.95 43.02 139.04 52.93 147.56 62.47 C 150.65 66.24 155.56 68.20 160.40 67.17 C 153.24 50.67 139.37 37.12 122.66 30.46 C 120.12 29.50 121.80 32.44 122.68 33.28 Z" />
</g>
</svg>
