<?xml version="1.0" encoding="UTF-8" ?>
<!DOCTYPE svg PUBLIC "-//W3C//DTD SVG 1.1//EN" "http://www.w3.org/Graphics/SVG/1.1/DTD/svg11.dtd">
<svg width="192pt" height="192pt" viewBox="0 0 192 192" version="1.1" xmlns="http://www.w3.org/2000/svg">
<g id="#46a4dfff">
<path fill="#46a4df" opacity="1.00" d=" M 109.85 23.85 C 111.67 21.19 115.21 21.73 118.00 21.63 C 129.32 21.78 140.65 21.46 151.97 21.78 C 161.72 22.27 170.01 31.20 169.86 40.95 C 169.93 77.32 169.91 113.69 169.97 150.05 C 170.06 159.72 161.75 168.51 152.01 168.55 C 114.34 168.61 76.67 168.59 38.99 168.53 C 29.26 168.54 20.83 159.73 21.02 150.05 C 21.01 127.35 21.02 104.65 21.05 81.95 C 20.72 73.27 28.37 65.47 37.03 65.51 C 67.35 65.40 97.67 65.47 127.99 65.45 C 136.58 65.00 144.64 72.29 144.82 80.92 C 145.08 106.33 144.71 131.76 145.04 157.17 C 150.13 157.71 157.88 157.53 158.46 150.86 C 158.77 114.56 158.53 78.24 158.60 41.94 C 158.98 37.61 155.53 33.16 151.05 33.15 C 139.75 33.07 128.46 33.14 117.16 33.13 C 113.49 38.47 110.03 43.97 106.33 49.29 C 104.08 52.78 99.46 51.49 96.00 51.75 C 92.53 51.46 87.96 52.79 85.58 49.45 C 83.23 46.52 84.84 41.61 88.49 40.71 C 91.91 40.19 95.39 40.58 98.83 40.36 C 102.44 34.82 106.01 29.23 109.85 23.85 M 32.36 81.98 C 32.29 104.66 32.30 127.35 32.36 150.03 C 32.19 154.07 35.97 157.61 40.00 157.23 C 71.19 157.10 102.41 157.49 133.60 156.99 C 133.43 131.98 133.63 106.98 133.52 81.98 C 133.72 79.01 130.96 76.47 128.02 76.77 C 98.01 76.72 67.99 76.72 37.97 76.73 C 34.99 76.38 32.08 78.91 32.36 81.98 Z" />
<path fill="#46a4df" opacity="1.00" d=" M 24.32 41.40 C 29.79 40.36 35.50 40.94 41.05 41.03 C 46.66 41.39 47.41 50.44 41.94 51.70 C 36.38 52.42 30.64 52.36 25.08 51.74 C 20.25 50.76 19.77 43.15 24.32 41.40 Z" />
<path fill="#46a4df" opacity="1.00" d=" M 56.29 41.40 C 62.10 41.11 67.96 41.05 73.77 41.30 C 78.48 42.73 78.54 50.27 73.76 51.65 C 68.57 52.59 63.22 51.52 57.97 51.77 C 52.31 52.35 51.23 42.80 56.29 41.40 Z" />
<path fill="#46a4df" opacity="1.00" d=" M 56.55 120.07 C 54.98 106.86 65.00 93.60 78.12 91.47 C 84.26 90.80 91.00 91.07 96.20 94.79 C 99.64 97.39 97.45 103.84 93.01 103.48 C 88.51 102.41 84.02 99.48 79.25 101.19 C 70.03 103.17 64.10 113.87 67.23 122.75 C 69.80 131.64 80.62 137.02 89.19 133.30 C 93.65 131.78 96.61 127.71 98.06 123.38 C 93.85 122.73 89.58 123.01 85.37 122.53 C 82.24 120.89 82.51 116.13 85.22 114.22 C 91.83 114.66 98.42 113.32 105.01 113.97 C 107.65 113.90 109.62 116.43 109.38 118.96 C 108.69 130.67 99.96 142.06 88.02 143.86 C 73.17 147.18 57.49 135.21 56.55 120.07 Z" />
</g>
</svg>
