<?xml version="1.0" encoding="UTF-8" ?>
<!DOCTYPE svg PUBLIC "-//W3C//DTD SVG 1.1//EN" "http://www.w3.org/Graphics/SVG/1.1/DTD/svg11.dtd">
<svg width="192pt" height="192pt" viewBox="0 0 192 192" version="1.1" xmlns="http://www.w3.org/2000/svg">
<g id="#e12e95ff">
<path fill="#e12e95" opacity="1.00" d=" M 25.07 35.93 C 24.83 25.90 36.05 17.87 45.44 21.62 C 54.10 25.64 62.26 30.70 70.81 34.96 C 87.30 25.99 108.34 25.97 124.70 35.27 C 141.01 44.09 152.21 61.36 153.87 79.80 C 161.53 82.80 167.72 90.64 165.46 99.19 C 164.50 103.61 161.40 107.38 157.42 109.47 C 120.63 129.33 83.88 149.29 47.00 168.98 C 37.80 174.02 25.34 166.46 25.14 156.10 C 24.98 116.04 25.07 75.98 25.07 35.93 M 36.37 36.10 C 36.28 75.74 36.31 115.39 36.35 155.03 C 36.06 158.17 40.08 160.36 42.62 158.54 C 54.75 152.05 66.87 145.54 78.91 138.89 C 59.59 132.08 44.65 114.32 41.73 93.98 C 38.48 74.98 45.99 55.02 60.21 42.18 C 54.22 39.06 48.37 35.68 42.36 32.63 C 39.87 31.09 36.15 33.11 36.37 36.10 M 88.37 40.47 C 75.34 43.09 63.77 51.89 57.58 63.62 C 49.40 78.65 50.72 98.30 61.00 112.01 C 68.75 122.66 81.61 130.31 94.89 130.23 C 108.87 122.84 122.83 115.35 136.67 107.69 C 143.46 96.78 144.44 82.70 140.48 70.59 C 133.84 49.37 110.13 35.41 88.37 40.47 M 153.81 92.63 C 153.22 94.86 152.72 97.12 152.40 99.41 C 154.80 97.89 154.91 95.00 153.81 92.63 Z" />
<path fill="#e12e95" opacity="1.00" d=" M 97.58 57.55 C 102.84 57.48 108.11 57.27 113.36 57.65 C 113.35 61.38 113.40 65.11 113.36 68.84 C 110.08 68.82 106.79 68.66 103.54 69.14 C 103.57 77.75 103.67 86.37 103.52 94.98 C 103.38 102.39 94.35 107.45 87.83 104.29 C 82.00 101.49 79.63 93.02 84.02 87.98 C 87.15 83.75 92.94 83.20 97.57 85.01 C 97.58 75.86 97.57 66.70 97.58 57.55 Z" />
</g>
</svg>
