<?xml version="1.0" encoding="UTF-8" ?>
<!DOCTYPE svg PUBLIC "-//W3C//DTD SVG 1.1//EN" "http://www.w3.org/Graphics/SVG/1.1/DTD/svg11.dtd">
<svg width="192pt" height="192pt" viewBox="0 0 192 192" version="1.1" xmlns="http://www.w3.org/2000/svg">
<g id="#c9b056ff">
<path fill="#c9b056" opacity="1.00" d=" M 85.29 14.39 C 116.99 9.81 150.23 26.03 166.33 53.66 C 178.66 74.05 181.28 99.92 173.43 122.40 C 163.81 151.08 137.11 173.05 107.07 176.82 C 75.70 181.51 42.60 165.85 26.26 138.69 C 8.85 111.31 10.25 73.59 29.61 47.56 C 42.61 29.52 63.20 17.15 85.29 14.39 M 87.37 25.47 C 65.49 27.92 45.38 41.49 34.55 60.60 C 24.31 78.26 22.51 100.44 29.44 119.61 C 38.60 145.74 64.32 165.07 92.05 166.14 C 113.47 167.48 135.13 158.34 149.14 142.10 C 168.26 120.86 172.08 87.69 158.43 62.61 C 145.34 37.12 115.80 21.65 87.37 25.47 Z" />
<path fill="#c9b056" opacity="1.00" d=" M 132.36 50.43 C 137.43 47.35 143.34 54.92 139.01 59.03 C 112.83 86.17 86.65 113.32 60.33 140.31 C 55.24 144.70 48.20 136.43 53.07 132.01 C 79.59 104.91 105.52 77.15 132.36 50.43 Z" />
</g>
</svg>
