<?xml version="1.0" encoding="UTF-8" ?>
<!DOCTYPE svg PUBLIC "-//W3C//DTD SVG 1.1//EN" "http://www.w3.org/Graphics/SVG/1.1/DTD/svg11.dtd">
<svg width="192pt" height="192pt" viewBox="0 0 192 192" version="1.1" xmlns="http://www.w3.org/2000/svg">
<g id="#f99833ff">
<path fill="#f99833" opacity="1.00" d=" M 116.37 38.02 C 115.76 31.12 115.39 20.88 124.09 19.06 C 138.35 18.22 152.71 18.91 167.00 18.70 C 172.65 18.33 178.01 23.18 177.76 28.93 C 177.84 72.97 177.85 117.03 177.82 161.07 C 178.10 166.48 173.43 171.51 167.99 171.50 C 120.65 171.60 73.29 171.56 25.95 171.54 C 20.14 172.02 14.74 166.92 15.04 161.07 C 15.02 140.69 15.02 120.30 15.06 99.92 C 14.79 94.47 19.54 89.46 25.01 89.53 C 38.69 89.39 52.38 89.49 66.06 89.47 C 71.78 89.09 77.20 94.13 76.85 99.94 C 76.75 115.58 77.11 131.26 76.68 146.89 C 75.84 152.84 66.15 152.60 65.55 146.62 C 65.10 132.42 65.60 118.17 65.33 103.96 C 65.49 102.09 63.86 100.61 62.03 100.76 C 51.33 100.66 40.63 100.70 29.94 100.73 C 28.00 100.57 26.05 101.86 26.37 103.98 C 26.27 121.66 26.29 139.35 26.37 157.03 C 26.09 159.08 28.02 160.54 29.94 160.23 C 58.62 160.28 87.30 160.22 115.98 160.22 C 115.99 129.46 116.00 98.69 115.98 67.93 C 116.27 65.91 115.28 63.27 112.84 63.54 C 101.47 63.56 90.07 63.22 78.72 63.70 C 74.17 67.34 79.39 75.03 75.12 79.11 C 72.22 82.25 66.17 80.30 65.79 76.00 C 65.46 71.68 65.58 67.33 65.70 63.00 C 65.78 57.15 71.12 52.19 76.92 52.26 C 90.30 52.13 103.69 52.18 117.08 52.22 C 122.83 51.99 127.87 57.20 127.51 62.94 C 127.60 95.38 127.50 127.81 127.57 160.25 C 140.61 160.23 153.65 160.43 166.68 160.13 C 166.56 118.08 166.70 76.04 166.64 33.99 C 167.02 31.77 165.42 29.63 163.04 29.87 C 152.04 29.86 141.01 29.64 130.02 29.97 C 124.84 31.57 129.67 38.80 125.75 41.76 C 122.66 45.25 116.25 42.64 116.37 38.02 Z" />
</g>
</svg>
