<?xml version="1.0" encoding="UTF-8" ?>
<!DOCTYPE svg PUBLIC "-//W3C//DTD SVG 1.1//EN" "http://www.w3.org/Graphics/SVG/1.1/DTD/svg11.dtd">
<svg width="192pt" height="192pt" viewBox="0 0 192 192" version="1.1" xmlns="http://www.w3.org/2000/svg">
<g id="#ff3661ff">
<path fill="#ff3661" opacity="1.00" d=" M 63.40 19.42 C 93.90 6.21 132.22 13.78 154.79 38.33 C 158.65 43.71 150.21 49.77 145.92 45.13 C 131.16 30.36 109.86 22.52 89.04 24.54 C 58.29 26.80 31.10 51.48 25.74 81.81 C 19.82 110.10 33.58 140.89 58.35 155.65 C 78.62 168.28 105.36 169.49 126.74 158.88 C 147.83 148.68 163.37 127.44 165.92 104.06 C 166.46 102.17 164.86 100.63 163.02 100.81 C 142.40 100.73 121.79 100.81 101.17 100.76 C 100.38 110.05 101.47 119.42 100.58 128.68 C 99.16 134.09 90.45 133.56 89.76 128.00 C 89.39 118.93 89.81 109.83 89.55 100.76 C 80.47 100.67 71.37 100.99 62.30 100.61 C 56.65 99.85 56.40 90.81 62.02 89.74 C 71.20 89.23 80.42 89.70 89.61 89.52 C 89.80 80.37 89.33 71.20 89.84 62.07 C 90.84 56.49 99.80 56.54 100.70 62.13 C 101.23 71.24 100.62 80.38 101.01 89.50 C 124.68 89.58 148.35 89.46 172.02 89.55 C 174.72 89.36 177.41 91.38 177.70 94.11 C 178.82 125.72 159.04 156.46 130.44 169.59 C 109.55 179.53 84.49 179.95 63.24 170.84 C 33.41 158.51 12.63 127.34 13.19 95.00 C 12.73 62.71 33.53 31.58 63.40 19.42 Z" />
</g>
</svg>
