<?xml version="1.0" encoding="UTF-8" ?>
<!DOCTYPE svg PUBLIC "-//W3C//DTD SVG 1.1//EN" "http://www.w3.org/Graphics/SVG/1.1/DTD/svg11.dtd">
<svg width="192pt" height="192pt" viewBox="0 0 192 192" version="1.1" xmlns="http://www.w3.org/2000/svg">
<g id="#fd505bff">
<path fill="#fd505b" opacity="1.00" d=" M 90.27 22.10 C 91.16 15.92 101.29 16.70 101.26 22.95 C 100.26 37.01 104.93 50.51 109.38 63.62 C 119.76 91.58 142.84 115.93 172.65 122.42 C 179.06 122.94 179.22 133.11 173.06 134.17 C 161.91 134.53 150.73 134.20 139.56 134.32 C 136.64 151.67 123.38 166.71 106.46 171.59 C 85.93 178.14 61.69 168.18 51.85 149.01 C 50.10 145.32 53.65 140.70 57.67 141.38 C 61.13 141.71 62.38 145.39 64.26 147.75 C 73.64 161.00 92.56 166.02 107.31 159.28 C 117.66 154.84 125.53 145.29 127.99 134.30 C 91.65 134.31 55.30 134.35 18.97 134.28 C 13.07 133.44 12.50 123.66 18.57 122.59 C 39.67 117.76 58.48 104.40 70.47 86.44 C 82.95 67.49 90.92 44.97 90.27 22.10 M 95.93 59.44 C 87.56 85.10 71.63 109.39 47.68 122.86 C 79.75 123.20 111.83 123.06 143.90 122.92 C 120.25 109.17 104.12 85.14 95.93 59.44 Z" />
</g>
</svg>
