<?xml version="1.0" encoding="UTF-8" ?>
<!DOCTYPE svg PUBLIC "-//W3C//DTD SVG 1.1//EN" "http://www.w3.org/Graphics/SVG/1.1/DTD/svg11.dtd">
<svg width="192pt" height="192pt" viewBox="0 0 192 192" version="1.1" xmlns="http://www.w3.org/2000/svg">
<g id="#61969eff">
<path fill="#61969e" opacity="1.00" d=" M 77.33 24.38 C 87.14 22.86 97.15 24.21 107.03 23.54 C 117.60 22.88 127.99 28.58 133.42 37.59 C 146.52 59.83 159.59 82.08 172.68 104.32 C 176.37 110.75 178.41 118.70 176.07 125.96 C 172.89 135.88 166.23 144.21 161.49 153.42 C 156.83 162.97 146.71 169.43 136.06 169.47 C 109.69 169.56 83.32 169.54 56.95 169.57 C 46.87 169.63 37.02 163.64 32.52 154.61 C 28.45 147.06 23.89 139.78 19.73 132.29 C 15.28 124.16 14.83 113.74 19.55 105.62 C 32.37 83.41 45.34 61.29 58.19 39.09 C 62.17 31.88 69.12 25.99 77.33 24.38 M 79.84 34.42 C 84.31 44.37 90.39 53.61 96.06 62.94 C 101.85 53.83 107.38 44.50 112.27 34.87 C 101.55 33.58 90.63 34.46 79.84 34.42 M 30.99 107.00 C 29.70 109.07 28.63 111.27 27.79 113.55 C 40.77 113.67 53.76 113.71 66.73 113.56 C 74.94 100.84 82.13 87.37 89.81 74.28 C 83.67 62.68 76.90 51.42 70.19 40.14 C 56.71 62.17 44.18 84.79 30.99 107.00 M 102.34 74.21 C 109.83 87.24 117.52 100.15 125.10 113.13 C 138.39 113.18 151.69 113.17 164.99 113.10 C 152.32 90.55 138.83 68.46 125.91 46.04 C 124.76 44.22 123.85 42.09 122.02 40.83 C 115.12 51.73 108.95 63.11 102.34 74.21 M 79.72 113.23 C 90.66 113.34 101.61 113.29 112.55 113.23 C 107.10 103.79 101.65 94.36 96.00 85.04 C 90.55 94.42 85.02 103.76 79.72 113.23 M 27.81 124.34 C 32.67 134.04 38.31 143.37 44.05 152.58 C 50.28 143.55 55.12 133.65 60.83 124.29 C 49.82 124.36 38.82 124.28 27.81 124.34 M 73.43 124.25 C 67.13 135.78 60.05 146.87 53.95 158.50 C 82.33 158.76 110.76 158.90 139.13 158.20 C 132.70 146.84 126.04 135.62 119.59 124.27 C 104.20 124.20 88.82 124.22 73.43 124.25 M 132.79 124.36 C 137.17 134.40 143.54 143.47 148.76 153.10 C 154.66 143.77 160.69 134.34 165.17 124.24 C 154.37 124.22 143.58 124.27 132.79 124.36 Z" />
</g>
</svg>
