<?xml version="1.0" encoding="UTF-8" ?>
<!DOCTYPE svg PUBLIC "-//W3C//DTD SVG 1.1//EN" "http://www.w3.org/Graphics/SVG/1.1/DTD/svg11.dtd">
<svg width="192pt" height="192pt" viewBox="0 0 192 192" version="1.1" xmlns="http://www.w3.org/2000/svg">
<g id="#3eb0d0ff">
<path fill="#3eb0d0" opacity="1.00" d=" M 30.35 34.13 C 31.18 26.61 38.41 20.68 45.93 21.11 C 78.98 21.11 112.03 21.07 145.08 21.14 C 152.35 20.97 159.11 26.82 160.05 34.02 C 160.66 39.74 160.05 45.50 160.40 51.24 C 166.94 53.83 171.64 60.84 170.36 67.96 C 168.18 80.31 165.25 92.55 163.23 104.91 C 165.26 120.86 168.38 136.69 170.55 152.63 C 171.52 161.35 163.74 169.33 155.07 169.10 C 115.36 169.13 75.65 169.17 35.95 169.07 C 27.34 169.41 19.43 161.65 20.23 152.96 C 22.34 136.93 25.48 121.03 27.57 105.00 C 25.53 92.30 22.39 79.76 20.33 67.06 C 19.47 60.13 24.24 53.98 30.25 51.10 C 30.20 45.45 29.97 39.78 30.35 34.13 M 42.18 33.18 C 39.49 38.40 41.29 44.83 40.98 50.53 C 77.14 50.48 113.29 50.59 149.45 50.44 C 148.69 44.73 151.08 38.04 148.00 32.98 C 142.89 30.68 136.90 32.20 131.44 31.93 C 131.94 35.84 131.16 41.83 126.00 41.65 C 120.87 41.82 120.07 35.84 120.53 31.94 C 103.63 31.69 86.71 31.85 69.80 31.87 C 70.35 35.87 69.47 42.04 64.13 41.66 C 59.04 41.57 58.69 35.63 58.79 31.83 C 53.33 32.41 47.15 30.46 42.18 33.18 M 33.23 62.07 C 31.43 62.96 30.88 65.11 31.29 66.95 C 33.51 79.67 36.63 92.25 38.59 105.00 C 36.46 121.04 33.43 136.97 31.18 152.99 C 30.49 155.76 33.18 158.39 35.91 158.00 C 75.63 157.98 115.35 158.04 155.07 157.96 C 157.69 158.27 160.14 155.71 159.56 153.09 C 157.26 137.03 154.29 121.05 152.11 104.98 C 154.10 92.11 157.24 79.40 159.49 66.56 C 160.10 63.94 157.68 61.27 155.02 61.54 C 116.01 61.44 77.00 61.55 37.99 61.46 C 36.41 61.59 34.65 61.22 33.23 62.07 Z" />
<path fill="#3eb0d0" opacity="1.00" d=" M 81.65 91.60 C 83.00 85.67 89.97 84.90 95.00 85.15 C 100.24 84.96 107.76 85.10 109.41 91.35 C 110.53 96.69 111.62 104.41 105.99 107.59 C 111.72 109.89 110.67 117.06 110.21 122.00 C 109.99 127.28 104.80 129.94 100.08 129.97 C 93.90 130.05 84.53 131.46 81.59 124.43 C 80.33 119.01 78.91 110.64 85.00 107.65 C 79.52 104.26 81.17 96.96 81.65 91.60 M 90.65 93.61 C 89.22 96.72 89.26 100.28 90.62 103.41 C 94.59 104.81 102.20 105.22 101.43 99.02 C 102.90 92.39 95.06 91.81 90.65 93.61 M 92.24 111.15 C 88.26 112.12 89.48 117.01 89.68 120.01 C 91.68 122.99 95.88 122.26 98.92 121.86 C 102.74 121.00 101.60 116.20 101.43 113.36 C 99.86 110.10 95.22 110.63 92.24 111.15 Z" />
</g>
</svg>
