<?xml version="1.0" encoding="UTF-8" ?>
<!DOCTYPE svg PUBLIC "-//W3C//DTD SVG 1.1//EN" "http://www.w3.org/Graphics/SVG/1.1/DTD/svg11.dtd">
<svg width="192pt" height="192pt" viewBox="0 0 192 192" version="1.1" xmlns="http://www.w3.org/2000/svg">
<g id="#46e371ff">
<path fill="#46e371" opacity="1.00" d=" M 20.45 42.43 C 31.68 25.27 55.91 18.68 74.27 27.84 C 82.94 31.64 88.76 39.31 95.62 45.47 C 99.68 41.26 103.72 36.99 108.16 33.18 C 121.11 22.45 140.58 20.74 155.28 28.82 C 168.44 35.79 177.50 50.01 177.79 64.95 C 178.32 76.33 173.97 87.87 166.02 96.02 C 142.62 119.54 118.98 142.82 95.68 166.44 C 71.97 143.48 48.88 119.82 25.42 96.57 C 11.14 82.73 8.95 58.65 20.45 42.43 M 40.89 39.95 C 27.64 47.04 21.65 64.56 27.72 78.30 C 31.01 86.06 37.71 91.63 43.78 97.17 C 58.00 82.77 72.46 68.59 86.69 54.19 C 83.02 50.56 79.47 46.81 75.66 43.32 C 66.31 35.05 51.67 33.74 40.89 39.95 M 113.20 45.20 C 92.88 65.44 72.61 85.73 52.31 105.99 C 66.51 120.45 81.04 134.58 95.23 149.06 C 115.75 129.35 135.58 108.86 155.84 88.85 C 163.99 81.33 167.49 69.25 164.47 58.56 C 161.25 45.95 149.08 36.23 136.03 36.12 C 127.56 35.68 119.11 39.16 113.20 45.20 Z" />
</g>
</svg>
