<?xml version="1.0" encoding="UTF-8" ?>
<!DOCTYPE svg PUBLIC "-//W3C//DTD SVG 1.1//EN" "http://www.w3.org/Graphics/SVG/1.1/DTD/svg11.dtd">
<svg width="192pt" height="192pt" viewBox="0 0 192 192" version="1.1" xmlns="http://www.w3.org/2000/svg">
<g id="#18acffff">
<path fill="#18acff" opacity="1.00" d=" M 42.15 22.96 C 42.10 19.91 45.01 17.51 47.97 17.72 C 79.65 17.62 111.33 17.70 143.02 17.67 C 146.22 17.26 149.86 19.46 149.74 22.97 C 149.92 29.58 149.73 36.20 149.80 42.81 C 156.88 43.01 163.96 42.66 171.04 42.97 C 174.01 43.10 176.08 46.08 175.84 48.92 C 175.80 57.57 176.10 66.24 175.65 74.87 C 174.41 87.86 162.27 98.12 149.37 98.06 C 146.96 115.39 133.82 130.54 117.02 135.33 C 110.91 136.16 108.70 126.47 114.63 124.66 C 127.88 119.94 138.32 107.40 138.67 93.08 C 138.87 71.60 138.85 50.11 138.73 28.63 C 110.20 28.66 81.67 28.66 53.13 28.60 C 52.97 49.41 53.22 70.21 53.15 91.01 C 52.88 101.88 58.22 112.64 66.99 119.05 C 75.25 125.34 85.81 127.74 96.03 127.71 C 98.58 127.45 101.27 129.29 101.31 131.99 C 101.64 142.15 101.41 152.33 101.49 162.49 C 109.27 162.80 117.15 161.96 124.87 162.92 C 130.34 164.67 128.86 173.76 123.01 173.48 C 104.68 173.55 86.33 173.72 68.01 173.38 C 62.34 172.81 62.11 163.69 67.71 162.76 C 75.26 162.15 82.87 162.72 90.45 162.50 C 90.44 154.53 90.46 146.57 90.43 138.61 C 67.71 137.80 45.39 121.43 42.49 98.02 C 29.33 98.13 17.08 87.35 16.20 74.10 C 15.90 65.72 16.12 57.31 16.09 48.92 C 15.80 46.04 17.97 43.07 20.97 42.99 C 27.99 42.67 35.03 42.98 42.06 42.86 C 42.16 36.23 41.92 29.59 42.15 22.96 M 27.13 53.79 C 27.17 60.49 26.84 67.22 27.25 73.91 C 28.03 81.27 34.81 86.57 41.92 87.16 C 42.12 76.04 42.18 64.91 41.89 53.79 C 36.97 53.80 32.05 53.80 27.13 53.79 M 149.82 53.85 C 149.79 64.92 149.80 75.98 149.83 87.05 C 157.03 86.70 163.81 81.20 164.67 73.88 C 165.12 67.21 164.79 60.52 164.78 53.84 C 159.79 53.84 154.81 53.83 149.82 53.85 Z" />
<path fill="#18acff" opacity="1.00" d=" M 95.23 50.19 C 101.79 48.40 102.56 56.47 104.25 60.74 C 105.97 66.18 112.61 64.00 116.85 64.51 C 120.74 64.26 123.48 69.15 121.32 72.37 C 118.72 75.84 113.56 76.80 111.72 80.88 C 110.90 85.47 114.91 89.45 114.36 94.04 C 113.45 97.46 108.97 99.04 106.16 96.86 C 102.90 95.13 100.30 91.43 96.35 91.46 C 92.26 92.47 89.64 96.36 85.70 97.73 C 82.65 98.58 79.30 96.05 79.30 92.90 C 79.66 89.12 81.95 85.80 82.24 82.01 C 81.33 75.63 70.09 75.53 71.94 68.09 C 74.32 61.90 82.13 65.83 86.87 63.94 C 91.92 60.99 89.57 52.51 95.23 50.19 Z" />
</g>
</svg>
