<?xml version="1.0" encoding="UTF-8" ?>
<!DOCTYPE svg PUBLIC "-//W3C//DTD SVG 1.1//EN" "http://www.w3.org/Graphics/SVG/1.1/DTD/svg11.dtd">
<svg width="192pt" height="192pt" viewBox="0 0 192 192" version="1.1" xmlns="http://www.w3.org/2000/svg">
<g id="#ff3663ff">
<path fill="#ff3663" opacity="1.00" d=" M 41.98 31.22 C 35.65 31.19 35.62 20.70 42.00 20.77 C 64.33 20.54 86.67 20.75 109.00 20.66 C 111.28 20.47 113.53 21.20 115.03 22.97 C 127.70 35.64 140.44 48.24 153.08 60.94 C 154.86 62.44 154.89 64.84 154.87 66.98 C 154.80 99.67 154.93 132.36 154.82 165.05 C 155.05 168.20 152.12 170.87 149.02 170.54 C 113.67 170.56 78.33 170.55 42.98 170.54 C 39.40 170.96 36.49 167.54 37.04 164.06 C 37.08 126.02 36.96 87.97 37.11 49.93 C 36.78 43.77 46.83 43.07 47.48 49.13 C 47.83 86.05 47.53 123.00 47.64 159.94 C 79.85 160.07 112.05 159.98 144.26 159.98 C 144.27 130.05 144.31 100.12 144.25 70.20 C 133.14 70.16 122.04 70.28 110.94 70.15 C 108.06 70.35 105.31 67.99 105.34 65.06 C 105.12 53.79 105.50 42.52 105.16 31.25 C 84.10 31.33 63.03 31.40 41.98 31.22 M 115.92 38.92 C 115.85 45.81 115.65 52.72 116.04 59.61 C 122.79 59.56 129.54 59.67 136.29 59.53 C 129.92 52.28 122.75 45.74 115.92 38.92 Z" />
<path fill="#ff3663" opacity="1.00" d=" M 62.69 111.65 C 68.45 111.82 74.64 110.50 80.08 112.83 C 84.07 116.11 82.77 122.12 82.52 126.65 C 81.34 133.02 73.40 131.60 68.67 131.79 C 68.63 134.41 68.63 137.03 68.63 139.65 C 66.72 140.07 64.77 140.11 62.83 139.93 C 62.30 130.53 62.59 121.08 62.69 111.65 M 68.66 116.63 C 68.64 119.97 68.63 123.30 68.64 126.63 C 71.06 126.58 73.59 126.96 75.91 126.10 C 77.30 123.59 76.90 120.45 76.31 117.75 C 74.23 115.91 71.17 116.91 68.66 116.63 Z" />
<path fill="#ff3663" opacity="1.00" d=" M 86.36 139.61 C 86.58 130.24 85.81 120.81 86.76 111.49 C 93.24 112.61 104.72 108.28 106.99 116.97 C 107.20 123.76 108.69 131.34 105.74 137.67 C 100.28 141.56 92.66 140.10 86.36 139.61 M 92.40 134.82 C 95.13 134.58 98.45 135.67 100.74 133.78 C 101.78 129.28 101.20 124.56 101.20 119.97 C 101.36 115.31 95.53 116.89 92.57 116.50 C 92.26 122.60 92.53 128.72 92.40 134.82 Z" />
<path fill="#ff3663" opacity="1.00" d=" M 111.42 139.57 C 111.68 130.22 111.04 120.84 111.76 111.51 C 117.60 111.59 123.45 111.40 129.29 111.64 C 129.37 113.20 129.47 114.76 129.59 116.32 C 125.61 116.93 121.57 116.61 117.56 116.67 C 117.55 119.09 117.54 121.52 117.54 123.96 C 121.80 124.08 130.24 122.24 127.39 129.29 C 124.09 129.21 120.80 129.28 117.50 129.27 C 117.59 132.84 117.64 136.43 117.30 140.00 C 115.32 140.16 113.34 140.05 111.42 139.57 Z" />
</g>
</svg>
