<?xml version="1.0" encoding="UTF-8" ?>
<!DOCTYPE svg PUBLIC "-//W3C//DTD SVG 1.1//EN" "http://www.w3.org/Graphics/SVG/1.1/DTD/svg11.dtd">
<svg width="192pt" height="192pt" viewBox="0 0 192 192" version="1.1" xmlns="http://www.w3.org/2000/svg">
<g id="#f6ae2aff">
<path fill="#f6ae2a" opacity="1.00" d=" M 84.42 14.53 C 117.37 9.35 152.14 26.87 167.80 56.27 C 184.31 85.48 180.09 124.63 157.60 149.57 C 136.27 174.61 99.16 184.24 68.33 172.75 C 47.49 165.39 30.04 149.15 21.12 128.94 C 9.37 103.08 12.52 71.19 29.19 48.18 C 41.99 30.05 62.41 17.52 84.42 14.53 M 87.39 25.45 C 63.27 28.10 41.42 44.36 31.53 66.44 C 18.19 94.77 26.76 131.25 51.46 150.54 C 77.40 172.46 119.15 171.18 143.68 147.70 C 167.56 126.65 173.65 88.83 157.74 61.29 C 144.34 36.54 115.32 21.72 87.39 25.45 Z" />
<path fill="#f6ae2a" opacity="1.00" d=" M 58.80 95.99 C 58.04 78.49 71.85 61.88 89.04 58.99 C 97.68 57.55 107.10 58.59 114.55 63.45 C 119.05 66.75 115.65 74.78 110.13 73.80 C 104.84 72.21 99.68 69.43 93.93 70.14 C 78.49 70.99 66.99 88.30 71.99 102.89 C 75.42 116.14 90.98 124.31 103.89 119.98 C 111.76 117.73 118.37 110.61 119.08 102.34 C 113.10 102.00 107.06 102.58 101.10 101.88 C 95.89 100.84 96.08 92.30 101.36 91.55 C 110.23 91.25 119.14 91.26 128.02 91.45 C 130.89 91.38 133.34 94.11 133.07 96.96 C 132.80 107.07 127.91 116.75 120.73 123.74 C 109.57 134.11 91.84 135.53 78.56 128.56 C 66.72 122.36 58.69 109.41 58.80 95.99 Z" />
</g>
</svg>
