<?xml version="1.0" encoding="UTF-8" ?>
<!DOCTYPE svg PUBLIC "-//W3C//DTD SVG 1.1//EN" "http://www.w3.org/Graphics/SVG/1.1/DTD/svg11.dtd">
<svg width="192pt" height="192pt" viewBox="0 0 192 192" version="1.1" xmlns="http://www.w3.org/2000/svg">
<g id="#2799eeff">
<path fill="#2799ee" opacity="1.00" d=" M 73.56 17.59 C 80.78 11.01 92.91 11.23 99.80 18.20 C 111.39 29.62 122.85 41.16 134.38 52.63 C 136.29 54.72 139.14 56.70 138.74 59.92 C 138.80 83.30 138.83 106.68 138.83 130.06 C 138.90 131.88 138.47 133.79 136.99 134.99 C 124.47 147.46 112.00 159.99 99.46 172.44 C 92.48 179.14 80.52 179.14 73.45 172.59 C 68.31 167.70 63.36 162.63 58.38 157.59 C 51.53 150.59 51.47 138.34 58.27 131.30 C 70.21 119.12 82.47 107.26 94.37 95.06 C 82.30 82.98 70.13 71.00 58.17 58.82 C 51.59 51.85 51.62 40.07 58.07 33.03 C 63.15 27.80 68.30 22.63 73.56 17.59 M 80.48 26.47 C 75.83 31.14 71.10 35.74 66.51 40.48 C 63.48 43.62 63.95 49.00 67.11 51.88 C 78.82 63.58 90.52 75.30 102.30 86.93 C 110.80 78.67 119.21 70.29 127.58 61.88 C 115.86 50.12 104.11 38.38 92.35 26.65 C 89.37 23.29 83.55 23.18 80.48 26.47 M 110.09 95.09 C 115.81 100.83 121.46 106.66 127.44 112.12 C 127.53 100.73 127.52 89.32 127.46 77.92 C 121.58 83.55 115.82 89.31 110.09 95.09 M 66.77 138.80 C 63.72 141.79 63.77 147.15 66.86 150.09 C 71.53 154.77 76.19 159.48 80.92 164.10 C 84.09 167.14 89.59 166.68 92.45 163.44 C 104.13 151.71 115.96 140.13 127.54 128.30 C 119.06 120.03 110.75 111.60 102.29 103.31 C 90.50 115.20 78.58 126.95 66.77 138.80 Z" />
</g>
</svg>
