<?xml version="1.0" encoding="UTF-8" ?>
<!DOCTYPE svg PUBLIC "-//W3C//DTD SVG 1.1//EN" "http://www.w3.org/Graphics/SVG/1.1/DTD/svg11.dtd">
<svg width="192pt" height="192pt" viewBox="0 0 192 192" version="1.1" xmlns="http://www.w3.org/2000/svg">
<g id="#ff3660ff">
<path fill="#ff3660" opacity="1.00" d=" M 84.41 14.52 C 116.11 9.59 149.57 25.50 165.93 53.04 C 178.30 73.07 181.21 98.53 173.91 120.88 C 164.60 150.59 137.03 173.45 106.07 176.93 C 74.74 181.23 41.95 165.27 25.88 138.06 C 8.48 110.13 10.54 71.78 30.86 45.89 C 43.71 28.98 63.35 17.40 84.41 14.52 M 87.37 25.46 C 63.28 28.13 41.43 44.37 31.55 66.44 C 18.21 94.76 26.76 131.24 51.46 150.54 C 77.21 172.29 118.57 171.23 143.17 148.18 C 167.44 127.21 173.80 89.04 157.74 61.29 C 144.34 36.54 115.31 21.73 87.37 25.46 Z" />
<path fill="#ff3660" opacity="1.00" d=" M 58.79 95.01 C 58.51 77.52 72.72 61.21 90.00 58.85 C 98.35 57.60 107.40 58.78 114.55 63.46 C 119.40 67.01 115.10 75.53 109.35 73.64 C 102.98 71.00 95.86 68.69 89.01 71.08 C 75.38 74.83 67.13 91.30 72.51 104.43 C 76.93 117.96 94.13 125.10 106.89 118.83 C 113.36 115.93 118.47 109.49 119.08 102.34 C 113.09 102.01 107.05 102.59 101.09 101.90 C 95.89 100.82 96.08 92.29 101.38 91.56 C 110.24 91.24 119.15 91.26 128.03 91.45 C 130.88 91.40 133.35 94.12 133.09 96.94 C 132.79 107.06 127.93 116.76 120.72 123.74 C 107.41 136.13 84.76 135.73 71.41 123.61 C 63.30 116.52 58.47 105.81 58.79 95.01 Z" />
</g>
</svg>
