<?xml version="1.0" encoding="UTF-8" ?>
<!DOCTYPE svg PUBLIC "-//W3C//DTD SVG 1.1//EN" "http://www.w3.org/Graphics/SVG/1.1/DTD/svg11.dtd">
<svg width="192pt" height="192pt" viewBox="0 0 192 192" version="1.1" xmlns="http://www.w3.org/2000/svg">
<g id="#6b7b8dff">
<path fill="#6b7b8d" opacity="1.00" d=" M 36.30 21.36 C 40.73 19.94 45.53 21.18 49.40 23.53 C 58.61 28.33 67.56 33.76 76.96 38.10 C 95.33 38.25 113.71 38.07 132.08 38.18 C 139.52 38.39 146.16 44.58 147.00 51.95 C 147.64 60.08 146.63 68.38 147.50 76.43 C 152.91 79.94 159.94 81.68 163.53 87.44 C 168.14 94.53 165.60 105.13 158.06 109.12 C 121.06 129.09 84.08 149.14 47.01 169.00 C 37.79 174.04 25.34 166.46 25.14 156.09 C 25.01 116.04 25.10 75.99 25.11 35.93 C 25.05 29.28 29.92 23.11 36.30 21.36 M 36.38 35.96 C 36.29 75.64 36.34 115.33 36.35 155.02 C 36.05 158.15 40.11 160.40 42.65 158.55 C 56.93 150.75 71.46 143.36 85.51 135.15 C 77.66 134.99 69.79 135.50 61.97 134.88 C 53.92 134.43 47.15 127.10 47.24 119.06 C 47.21 97.35 47.22 75.64 47.23 53.93 C 47.18 48.08 50.78 42.95 55.52 39.81 C 51.26 37.19 46.80 34.93 42.38 32.60 C 39.93 31.22 36.20 32.98 36.38 35.96 M 57.90 54.96 C 57.82 75.98 57.88 97.01 57.87 118.03 C 57.52 121.01 59.78 124.27 62.95 124.15 C 77.32 124.26 91.69 124.23 106.05 124.17 C 116.31 118.89 126.55 113.44 136.53 107.67 C 136.51 89.77 136.59 71.87 136.49 53.97 C 136.53 50.66 133.12 48.43 130.03 48.78 C 107.66 48.82 85.30 48.71 62.94 48.83 C 59.75 48.92 57.59 51.92 57.90 54.96 M 147.19 89.13 C 147.16 93.44 147.20 97.74 147.16 102.05 C 149.83 100.46 154.24 99.66 154.59 95.98 C 154.85 91.85 149.93 90.94 147.19 89.13 Z" />
<path fill="#6b7b8d" opacity="1.00" d=" M 121.38 63.42 C 127.62 61.73 133.67 68.89 130.94 74.76 C 129.46 78.80 124.96 80.39 120.97 79.82 C 117.80 82.28 115.07 85.31 112.36 88.26 C 114.36 94.65 107.65 101.72 101.25 98.85 C 96.77 97.38 95.71 92.43 95.65 88.30 C 95.08 87.68 94.45 87.12 93.78 86.62 C 91.93 86.65 90.08 86.67 88.24 86.67 C 85.51 89.12 82.99 91.80 80.37 94.37 C 79.87 97.73 80.07 101.75 76.95 103.95 C 72.08 108.34 63.30 104.50 63.39 97.87 C 62.91 91.79 69.39 87.90 74.88 89.30 C 77.42 86.69 80.03 84.16 82.60 81.58 C 82.39 77.64 83.10 73.00 87.13 71.11 C 92.90 67.73 100.56 73.49 99.24 79.98 C 99.12 84.14 104.24 82.56 106.86 82.83 C 109.68 80.03 113.17 77.45 115.11 74.04 C 114.11 69.50 116.55 64.31 121.38 63.42 Z" />
</g>
</svg>
