<?xml version="1.0" encoding="UTF-8" ?>
<!DOCTYPE svg PUBLIC "-//W3C//DTD SVG 1.1//EN" "http://www.w3.org/Graphics/SVG/1.1/DTD/svg11.dtd">
<svg width="192pt" height="192pt" viewBox="0 0 192 192" version="1.1" xmlns="http://www.w3.org/2000/svg">
<g id="#4ab4d2ff">
<path fill="#4ab4d2" opacity="1.00" d=" M 109.85 23.86 C 111.43 21.49 114.50 21.65 117.01 21.64 C 128.67 21.77 140.33 21.47 151.99 21.78 C 161.72 22.29 170.00 31.20 169.86 40.94 C 169.94 74.29 169.89 107.65 169.93 141.00 C 170.01 146.93 170.71 153.32 167.74 158.74 C 164.65 164.85 157.86 168.74 151.05 168.58 C 113.70 168.57 76.36 168.60 39.02 168.53 C 29.30 168.55 20.82 159.75 21.04 150.06 C 21.04 127.02 20.97 103.96 21.10 80.92 C 21.26 72.61 28.77 65.50 37.03 65.52 C 67.68 65.44 98.32 65.43 128.97 65.49 C 137.21 65.48 144.63 72.68 144.82 80.92 C 145.07 106.34 144.71 131.76 145.03 157.17 C 150.14 157.73 157.90 157.52 158.47 150.83 C 158.76 114.54 158.54 78.23 158.60 41.94 C 158.99 37.60 155.52 33.15 151.03 33.14 C 139.75 33.08 128.45 33.13 117.16 33.13 C 113.80 38.09 110.50 43.09 107.20 48.10 C 104.01 54.04 96.30 51.01 90.93 51.72 C 86.14 52.56 82.48 46.41 85.64 42.65 C 88.91 38.86 94.50 41.08 98.81 40.37 C 102.43 34.83 106.01 29.25 109.85 23.86 M 32.35 81.99 C 32.29 104.66 32.30 127.34 32.35 150.01 C 32.17 154.05 35.95 157.61 39.98 157.24 C 71.18 157.11 102.40 157.48 133.59 157.00 C 133.45 132.00 133.62 107.00 133.52 82.00 C 133.74 79.03 130.98 76.46 128.03 76.76 C 98.01 76.73 67.99 76.72 37.97 76.72 C 34.98 76.36 32.06 78.93 32.35 81.99 Z" />
<path fill="#4ab4d2" opacity="1.00" d=" M 24.33 41.39 C 29.78 40.34 35.48 40.99 41.02 40.99 C 46.67 41.38 47.44 50.47 41.91 51.72 C 36.65 52.48 31.25 52.17 25.96 51.93 C 20.54 51.71 19.35 43.29 24.33 41.39 Z" />
<path fill="#4ab4d2" opacity="1.00" d=" M 56.30 41.40 C 62.10 41.15 67.93 41.12 73.72 41.34 C 78.44 42.69 78.49 50.31 73.72 51.61 C 68.20 52.01 62.63 51.79 57.11 51.66 C 52.07 51.37 51.62 42.65 56.30 41.40 Z" />
<path fill="#4ab4d2" opacity="1.00" d=" M 55.17 117.00 C 54.60 102.07 68.05 88.35 82.94 88.35 C 88.75 88.17 95.35 89.23 99.64 93.42 C 103.16 98.10 96.78 104.25 92.00 101.06 C 81.13 94.93 66.35 103.63 66.22 116.00 C 64.72 127.65 76.68 137.90 87.97 135.23 C 94.11 134.27 98.57 129.32 100.63 123.71 C 96.19 122.73 91.51 124.04 87.13 122.88 C 82.66 121.39 83.23 113.63 88.11 113.30 C 95.03 113.10 101.99 113.06 108.91 113.28 C 113.09 113.73 113.37 118.66 112.65 121.88 C 110.60 138.17 93.32 150.29 77.31 145.65 C 64.49 142.84 54.43 130.21 55.17 117.00 Z" />
</g>
</svg>
