<?xml version="1.0" encoding="UTF-8" ?>
<!DOCTYPE svg PUBLIC "-//W3C//DTD SVG 1.1//EN" "http://www.w3.org/Graphics/SVG/1.1/DTD/svg11.dtd">
<svg width="192pt" height="192pt" viewBox="0 0 192 192" version="1.1" xmlns="http://www.w3.org/2000/svg">
<g id="#969c7aff">
<path fill="#969c7a" opacity="1.00" d=" M 88.40 22.04 C 88.22 17.65 91.67 13.49 96.01 12.87 C 114.52 11.15 133.18 22.95 139.65 40.36 C 146.25 56.52 141.49 76.17 128.64 87.87 C 141.13 88.17 153.62 87.89 166.10 88.03 C 170.17 88.12 173.88 91.31 174.66 95.29 C 176.81 114.18 164.47 133.30 146.63 139.62 C 130.46 145.88 111.11 140.91 99.51 128.16 C 99.69 140.43 99.58 152.71 99.59 164.98 C 99.83 169.44 96.44 173.76 91.99 174.40 C 78.87 175.61 65.40 170.19 56.60 160.41 C 40.55 143.65 42.15 114.67 59.27 99.24 C 46.84 99.31 34.40 99.31 21.97 99.24 C 17.79 99.25 14.01 96.00 13.23 91.94 C 11.13 72.69 23.97 53.25 42.34 47.29 C 58.31 41.55 76.87 46.69 88.39 58.93 C 88.38 46.63 88.35 34.33 88.40 22.04 M 99.60 24.04 C 99.59 42.71 99.48 61.40 99.67 80.07 C 101.03 82.99 104.09 84.76 106.12 87.23 C 121.50 84.24 133.03 68.62 131.20 53.02 C 130.10 37.17 115.54 23.68 99.60 24.04 M 24.23 87.86 C 43.13 88.17 62.04 87.93 80.94 87.98 C 83.20 85.77 85.54 83.62 87.58 81.18 C 84.31 66.55 69.98 55.36 54.93 56.31 C 38.43 56.62 24.28 71.44 24.23 87.86 M 107.32 99.31 C 105.00 101.52 102.76 103.82 100.43 106.03 C 103.44 121.53 119.44 132.88 135.06 130.82 C 150.72 129.37 163.73 115.03 163.61 99.29 C 144.85 99.28 126.08 99.23 107.32 99.31 M 56.76 134.98 C 58.30 150.55 72.63 163.46 88.30 163.28 C 88.34 144.52 88.38 125.76 88.31 107.00 C 85.84 104.85 83.92 101.71 81.02 100.28 C 65.72 103.47 54.60 119.50 56.76 134.98 Z" />
</g>
</svg>
