<?xml version="1.0" encoding="UTF-8" ?>
<!DOCTYPE svg PUBLIC "-//W3C//DTD SVG 1.1//EN" "http://www.w3.org/Graphics/SVG/1.1/DTD/svg11.dtd">
<svg width="192pt" height="192pt" viewBox="0 0 192 192" version="1.1" xmlns="http://www.w3.org/2000/svg">
<g id="#46accbff">
<path fill="#46accb" opacity="1.00" d=" M 30.25 34.97 C 30.58 27.46 37.43 21.05 44.92 21.10 C 78.31 21.02 111.69 21.06 145.07 21.09 C 152.74 20.86 159.74 27.36 160.23 34.98 C 160.52 40.25 160.26 45.52 160.33 50.79 C 166.49 53.60 171.44 59.88 170.47 66.95 C 168.45 79.67 165.06 92.20 163.28 104.94 C 165.44 120.54 168.37 136.04 170.56 151.64 C 171.66 160.39 163.76 168.49 155.05 168.13 C 115.01 168.09 74.97 168.21 34.93 168.07 C 26.32 168.07 18.95 159.65 20.31 151.11 C 22.56 135.70 25.36 120.37 27.54 104.96 C 25.77 92.22 22.41 79.70 20.35 66.99 C 19.42 60.11 24.01 53.71 30.16 51.04 C 30.25 45.68 30.02 40.32 30.25 34.97 M 42.15 33.16 C 39.63 38.35 41.31 44.67 40.92 50.30 C 77.08 50.34 113.24 50.32 149.41 50.26 C 148.75 44.57 150.98 38.01 148.03 32.92 C 142.93 30.64 136.90 32.09 131.44 32.02 C 132.00 35.90 131.12 41.78 126.00 41.54 C 120.99 41.69 120.05 35.97 120.55 32.11 C 103.70 31.44 86.79 31.87 69.93 31.89 C 70.05 35.60 69.88 41.15 65.02 41.52 C 59.52 42.22 58.47 35.87 58.73 31.78 C 53.28 32.41 47.09 30.37 42.15 33.16 M 34.30 61.42 C 31.86 61.79 30.72 64.59 31.35 66.80 C 33.59 79.28 36.59 91.64 38.61 104.15 C 36.63 120.14 33.47 136.01 31.24 151.98 C 30.48 154.82 33.12 157.50 35.96 157.12 C 75.66 157.17 115.36 157.15 155.06 157.07 C 157.74 157.42 160.20 154.73 159.54 152.09 C 157.26 136.04 154.14 120.09 152.11 104.02 C 154.24 91.23 157.38 78.59 159.51 65.80 C 159.93 62.81 156.79 60.79 154.07 61.25 C 114.15 61.37 74.20 61.02 34.30 61.42 Z" />
<path fill="#46accb" opacity="1.00" d=" M 67.60 88.60 C 71.11 84.49 77.18 85.25 82.04 85.15 C 86.45 85.08 92.45 86.08 93.64 91.16 C 95.04 96.99 95.43 104.25 90.89 108.89 C 86.93 113.11 82.58 116.96 78.56 121.13 C 83.72 121.17 88.88 121.03 94.04 121.23 C 94.27 123.64 95.16 126.40 93.86 128.62 C 84.81 129.79 75.55 128.74 66.45 128.57 C 66.57 125.72 65.52 122.16 68.05 120.06 C 73.13 114.81 78.64 109.98 83.70 104.71 C 86.25 102.16 85.76 98.24 85.42 94.98 C 82.90 91.52 74.15 91.65 74.46 97.03 C 74.89 101.51 69.01 99.58 66.27 99.58 C 64.80 96.15 65.85 91.82 67.60 88.60 Z" />
<path fill="#46accb" opacity="1.00" d=" M 101.15 89.41 C 106.78 87.57 112.53 85.00 118.58 86.45 C 118.82 97.98 118.62 109.52 118.71 121.05 C 121.24 121.30 124.12 120.49 126.42 121.69 C 126.94 123.96 126.66 126.32 126.65 128.63 C 118.21 129.52 109.60 129.27 101.15 128.82 C 99.44 126.73 100.29 123.51 100.88 121.06 C 103.80 121.13 106.72 121.12 109.63 121.02 C 109.62 112.40 109.63 103.79 109.63 95.17 C 106.84 94.94 104.04 94.84 101.24 94.74 C 100.82 92.98 100.77 91.18 101.15 89.41 Z" />
</g>
</svg>
