<?xml version="1.0" encoding="UTF-8" ?>
<!DOCTYPE svg PUBLIC "-//W3C//DTD SVG 1.1//EN" "http://www.w3.org/Graphics/SVG/1.1/DTD/svg11.dtd">
<svg width="192pt" height="192pt" viewBox="0 0 192 192" version="1.1" xmlns="http://www.w3.org/2000/svg">
<g id="#63a4c4ff">
<path fill="#63a4c4" opacity="1.00" d=" M 39.31 21.40 C 42.00 20.78 47.91 19.40 47.30 23.97 C 40.46 31.83 32.68 38.90 25.39 46.36 C 24.10 48.08 21.19 47.01 21.12 44.95 C 20.68 34.11 28.76 23.80 39.31 21.40 Z" />
<path fill="#63a4c4" opacity="1.00" d=" M 65.20 21.19 C 70.54 18.53 75.64 26.36 71.35 30.29 C 57.54 44.21 43.79 58.22 29.78 71.93 C 24.67 75.69 18.03 68.01 22.58 63.50 C 36.80 49.44 50.49 34.65 65.20 21.19 Z" />
<path fill="#63a4c4" opacity="1.00" d=" M 95.37 21.45 C 100.48 18.32 106.48 25.98 102.03 30.09 C 79.15 53.18 56.16 76.17 33.31 99.30 C 31.26 101.38 28.95 104.29 25.65 103.51 C 21.29 102.94 19.62 96.73 22.94 93.94 C 47.15 69.85 70.93 45.26 95.37 21.45 Z" />
<path fill="#63a4c4" opacity="1.00" d=" M 114.40 21.51 C 124.69 19.87 135.50 21.25 145.99 20.79 C 159.21 19.89 171.39 31.76 170.88 44.99 C 170.61 79.68 171.47 114.39 170.76 149.06 C 169.82 160.92 158.89 170.83 146.98 170.58 C 113.00 170.60 79.01 170.61 45.02 170.55 C 32.85 170.70 21.93 160.17 21.45 148.04 C 21.42 137.17 21.18 126.26 21.58 115.40 C 22.70 109.20 32.70 109.71 33.23 115.99 C 33.48 126.35 33.22 136.72 33.35 147.08 C 33.40 153.18 38.89 158.59 44.98 158.57 C 79.01 158.58 113.04 158.57 147.07 158.55 C 153.26 158.66 158.76 153.24 158.97 147.10 C 159.01 113.05 158.98 79.00 158.98 44.95 C 159.17 38.84 154.11 33.19 148.00 32.74 C 137.45 32.55 126.88 32.84 116.32 32.59 C 110.90 32.08 109.51 23.86 114.40 21.51 Z" />
</g>
</svg>
