<?xml version="1.0" encoding="UTF-8" ?>
<!DOCTYPE svg PUBLIC "-//W3C//DTD SVG 1.1//EN" "http://www.w3.org/Graphics/SVG/1.1/DTD/svg11.dtd">
<svg width="192pt" height="192pt" viewBox="0 0 192 192" version="1.1" xmlns="http://www.w3.org/2000/svg">
<g id="#19b0ffff">
<path fill="#19b0ff" opacity="1.00" d=" M 86.41 13.53 C 113.21 11.76 140.16 13.21 167.02 12.72 C 172.08 11.69 176.01 17.81 172.91 21.95 C 168.11 30.59 159.41 40.36 165.28 50.69 C 179.09 72.56 181.73 100.92 172.00 124.91 C 162.47 149.57 140.12 168.55 114.40 174.43 C 91.02 179.91 65.36 174.36 46.35 159.68 C 20.91 140.52 8.47 105.70 16.76 74.83 C 24.74 42.77 53.76 17.69 86.41 13.53 M 36.62 57.62 C 19.00 84.01 23.50 121.88 45.91 144.08 C 66.74 166.17 102.40 171.49 128.97 156.96 C 147.26 147.33 160.89 129.26 164.94 108.97 C 168.65 91.40 165.17 72.55 155.72 57.31 C 149.41 47.06 151.23 33.71 158.09 24.22 C 138.06 24.29 118.03 24.20 97.99 24.26 C 73.63 24.00 49.66 37.05 36.62 57.62 Z" />
<path fill="#19b0ff" opacity="1.00" d=" M 88.30 58.37 C 102.58 55.13 118.30 61.44 126.47 73.55 C 134.34 84.60 135.31 100.02 128.89 111.96 C 122.41 124.61 108.18 132.87 93.94 131.80 C 75.37 131.24 59.17 114.59 59.04 96.03 C 57.98 78.55 71.17 61.74 88.30 58.37 M 91.39 68.54 C 78.93 70.50 69.11 82.41 69.51 95.01 C 69.40 106.77 78.14 117.77 89.55 120.52 C 105.12 124.98 122.28 112.10 122.52 95.96 C 123.82 79.61 107.48 65.13 91.39 68.54 Z" />
</g>
</svg>
