<?xml version="1.0" encoding="UTF-8" ?>
<!DOCTYPE svg PUBLIC "-//W3C//DTD SVG 1.1//EN" "http://www.w3.org/Graphics/SVG/1.1/DTD/svg11.dtd">
<svg width="192pt" height="192pt" viewBox="0 0 192 192" version="1.1" xmlns="http://www.w3.org/2000/svg">
<g id="#42aeceff">
<path fill="#42aece" opacity="1.00" d=" M 30.34 34.12 C 31.19 26.60 38.41 20.67 45.94 21.11 C 78.98 21.11 112.03 21.07 145.07 21.14 C 152.35 20.97 159.10 26.80 160.05 34.00 C 160.68 39.74 160.03 45.53 160.42 51.29 C 166.98 53.81 171.62 60.87 170.37 67.95 C 168.17 80.30 165.27 92.54 163.22 104.91 C 165.27 120.86 168.37 136.69 170.55 152.63 C 171.51 161.36 163.73 169.33 155.06 169.10 C 115.36 169.13 75.65 169.17 35.95 169.08 C 27.34 169.41 19.43 161.65 20.23 152.95 C 22.35 136.93 25.46 121.03 27.58 105.01 C 25.51 92.31 22.40 79.77 20.32 67.07 C 19.46 60.13 24.24 53.99 30.24 51.09 C 30.21 45.44 29.97 39.77 30.34 34.12 M 42.18 33.18 C 39.52 38.39 41.24 44.84 41.04 50.53 C 77.18 50.45 113.33 50.65 149.47 50.40 C 148.66 44.70 151.09 38.02 147.99 32.98 C 142.89 30.72 136.88 32.13 131.42 32.00 C 131.96 35.89 131.13 41.86 126.00 41.65 C 120.91 41.84 120.06 35.90 120.55 32.03 C 103.63 31.56 86.70 31.98 69.77 31.82 C 70.37 35.83 69.49 42.05 64.13 41.65 C 59.04 41.57 58.69 35.62 58.79 31.82 C 53.33 32.44 47.14 30.44 42.18 33.18 M 33.23 62.07 C 31.42 62.95 30.88 65.12 31.29 66.96 C 33.53 79.67 36.62 92.26 38.59 105.00 C 36.45 121.03 33.45 136.96 31.18 152.99 C 30.50 155.74 33.18 158.40 35.91 158.00 C 75.63 157.98 115.35 158.04 155.07 157.97 C 157.70 158.28 160.14 155.69 159.56 153.08 C 157.25 137.02 154.31 121.05 152.09 104.98 C 154.12 92.11 157.23 79.40 159.49 66.56 C 160.10 63.93 157.67 61.27 155.01 61.55 C 116.01 61.45 77.00 61.55 38.00 61.47 C 36.42 61.61 34.65 61.20 33.23 62.07 Z" />
<path fill="#42aece" opacity="1.00" d=" M 68.19 88.49 C 73.76 86.55 79.51 84.10 85.54 85.48 C 85.76 97.04 85.59 108.59 85.66 120.15 C 88.30 120.07 90.96 120.09 93.58 120.47 C 93.66 122.85 93.66 125.23 93.63 127.61 C 85.15 128.10 76.63 127.88 68.14 127.72 C 66.62 125.94 67.29 122.91 67.64 120.70 C 70.35 119.52 73.71 120.45 76.67 120.07 C 76.62 111.36 76.68 102.65 76.63 93.93 C 73.84 93.81 71.05 93.76 68.26 93.72 C 68.23 91.98 68.21 90.23 68.19 88.49 Z" />
<path fill="#42aece" opacity="1.00" d=" M 99.21 88.41 C 104.80 86.57 110.54 84.00 116.56 85.47 C 116.81 97.02 116.62 108.57 116.70 120.12 C 119.23 120.32 122.10 119.50 124.42 120.68 C 124.92 122.95 124.66 125.30 124.63 127.61 C 116.21 128.52 107.59 128.31 99.16 127.78 C 97.45 125.80 98.25 122.46 98.92 120.07 C 101.82 120.16 104.73 120.12 107.63 120.04 C 107.63 111.39 107.64 102.75 107.63 94.11 C 104.86 93.88 102.08 93.78 99.31 93.76 C 98.78 92.00 98.71 90.19 99.21 88.41 Z" />
</g>
</svg>
