<?xml version="1.0" encoding="UTF-8" ?>
<!DOCTYPE svg PUBLIC "-//W3C//DTD SVG 1.1//EN" "http://www.w3.org/Graphics/SVG/1.1/DTD/svg11.dtd">
<svg width="192pt" height="192pt" viewBox="0 0 192 192" version="1.1" xmlns="http://www.w3.org/2000/svg">
<g id="#9b9b75ff">
<path fill="#9b9b75" opacity="1.00" d=" M 35.08 27.35 C 54.73 26.87 74.37 26.34 94.01 25.92 C 96.24 25.93 98.86 25.57 100.57 27.34 C 110.07 36.36 118.92 46.10 128.58 54.93 C 136.78 46.34 145.28 38.05 153.67 29.64 C 157.17 25.70 164.29 28.71 164.08 33.93 C 164.61 53.95 165.07 73.98 165.56 94.00 C 165.79 96.35 165.26 98.81 163.41 100.42 C 154.60 109.30 145.70 118.11 136.89 127.02 C 145.18 135.78 153.96 144.07 162.31 152.76 C 165.89 156.28 163.09 163.02 158.08 163.06 C 137.72 163.44 117.36 164.13 97.00 164.48 C 94.96 164.68 92.99 163.87 91.60 162.40 C 82.69 153.57 73.95 144.57 64.98 135.81 C 55.87 144.10 47.67 153.37 38.67 161.78 C 34.98 165.12 28.49 161.97 28.77 157.01 C 28.27 137.00 27.80 117.00 27.33 96.99 C 27.23 94.86 27.40 92.51 29.08 90.98 C 37.94 81.85 47.17 73.07 55.92 63.86 C 48.37 54.31 38.29 46.20 30.07 36.93 C 27.15 33.20 30.36 27.10 35.08 27.35 M 49.74 39.29 C 63.03 53.04 76.75 66.38 90.29 79.88 C 94.43 80.49 98.69 80.03 102.87 80.05 C 108.02 74.32 114.61 69.32 118.89 63.16 C 110.65 54.83 102.56 46.21 93.92 38.34 C 79.19 38.32 64.47 39.17 49.74 39.29 M 111.52 89.83 C 111.81 93.83 111.12 97.95 111.96 101.86 C 117.14 107.45 122.70 112.69 128.03 118.13 C 136.57 109.89 144.99 101.51 153.30 93.03 C 152.88 78.27 152.71 63.49 152.14 48.73 C 138.33 62.16 124.96 76.05 111.52 89.83 M 39.56 97.89 C 39.75 112.65 40.32 127.41 40.52 142.17 C 53.69 129.82 65.84 116.40 78.83 103.84 C 83.41 100.34 80.56 93.92 81.28 89.02 C 75.87 83.49 70.41 78.00 64.87 72.60 C 56.25 80.83 47.90 89.37 39.56 97.89 M 94.13 92.80 C 94.15 94.38 94.15 95.96 94.13 97.54 C 95.72 97.53 97.31 97.54 98.90 97.55 C 98.87 95.97 98.84 94.39 98.85 92.82 C 97.27 92.83 95.70 92.82 94.13 92.80 M 90.33 110.31 C 84.79 115.85 79.09 121.24 73.80 127.01 C 81.23 134.97 89.17 142.43 96.75 150.24 C 97.68 151.02 98.54 152.35 99.95 152.10 C 114.35 151.81 128.75 151.45 143.16 151.01 C 129.78 137.29 115.91 124.08 102.46 110.43 C 98.42 110.29 94.37 110.39 90.33 110.31 Z" />
</g>
</svg>
