<?xml version="1.0" encoding="UTF-8" ?>
<!DOCTYPE svg PUBLIC "-//W3C//DTD SVG 1.1//EN" "http://www.w3.org/Graphics/SVG/1.1/DTD/svg11.dtd">
<svg width="192pt" height="192pt" viewBox="0 0 192 192" version="1.1" xmlns="http://www.w3.org/2000/svg">
<g id="#29b89fff">
<path fill="#29b89f" opacity="1.00" d=" M 86.42 13.54 C 119.63 8.30 154.66 26.16 170.17 55.93 C 186.55 85.50 181.77 124.94 158.69 149.66 C 135.54 176.01 94.78 184.20 63.24 168.86 C 31.21 154.40 11.34 117.77 16.90 83.02 C 21.34 47.83 51.23 17.98 86.42 13.54 M 89.37 24.47 C 65.27 27.11 43.44 43.37 33.54 65.43 C 20.20 93.76 28.75 130.25 53.46 149.54 C 79.40 171.45 121.15 170.17 145.67 146.68 C 169.74 125.47 175.69 87.24 159.37 59.66 C 145.82 35.27 117.06 20.79 89.37 24.47 Z" />
<path fill="#29b89f" opacity="1.00" d=" M 64.76 77.72 C 73.54 59.34 98.47 51.55 116.00 62.05 C 119.58 64.13 119.47 69.87 115.94 71.96 C 112.28 74.28 108.37 71.25 104.81 70.24 C 93.77 66.46 80.90 72.38 75.88 82.74 C 70.80 91.85 72.38 103.93 79.36 111.61 C 86.20 119.23 97.85 122.32 107.42 118.43 C 114.60 115.84 120.40 109.03 121.07 101.35 C 115.08 101.05 109.04 101.61 103.08 100.91 C 97.88 99.83 98.08 91.29 103.37 90.56 C 112.24 90.24 121.15 90.24 130.03 90.45 C 132.89 90.38 135.38 93.11 135.10 95.95 C 134.82 106.08 129.95 115.76 122.75 122.76 C 109.24 135.31 86.17 134.73 72.89 122.14 C 60.69 111.34 57.13 92.12 64.76 77.72 Z" />
</g>
</svg>
