<?xml version="1.0" encoding="UTF-8" ?>
<!DOCTYPE svg PUBLIC "-//W3C//DTD SVG 1.1//EN" "http://www.w3.org/Graphics/SVG/1.1/DTD/svg11.dtd">
<svg width="192pt" height="192pt" viewBox="0 0 192 192" version="1.1" xmlns="http://www.w3.org/2000/svg">
<g id="#4cc276ff">
<path fill="#4cc276" opacity="1.00" d=" M 85.36 14.45 C 102.99 11.85 121.73 16.22 135.90 27.15 C 153.05 40.38 163.07 62.33 161.67 83.96 C 160.86 96.74 155.99 108.85 150.05 120.04 C 139.28 140.79 124.32 159.61 105.48 173.56 C 99.72 177.91 91.63 177.19 86.01 172.97 C 69.92 162.62 58.12 147.11 47.62 131.41 C 37.52 116.13 29.39 98.63 29.22 80.00 C 28.76 48.41 53.70 18.30 85.36 14.45 M 87.43 25.57 C 61.74 28.53 41.18 52.36 40.58 77.95 C 40.10 95.29 48.05 111.47 57.36 125.61 C 67.26 140.28 78.27 154.98 93.63 164.31 C 95.55 165.75 98.03 165.20 99.76 163.73 C 116.46 150.99 129.81 134.16 139.55 115.61 C 144.82 105.75 149.40 95.19 150.30 83.93 C 152.10 62.11 139.53 39.70 119.61 30.40 C 109.67 25.59 98.33 24.24 87.43 25.57 Z" />
<path fill="#4cc276" opacity="1.00" d=" M 92.39 46.48 C 106.84 44.34 121.81 53.59 126.48 67.39 C 130.74 78.98 127.25 92.85 118.04 101.06 C 108.25 110.41 92.31 112.20 80.68 105.26 C 69.30 98.87 62.71 84.95 65.34 72.10 C 67.59 58.90 79.11 48.05 92.39 46.48 M 94.38 57.47 C 84.24 58.31 75.54 67.72 76.09 78.00 C 75.59 89.49 86.68 99.42 97.99 98.29 C 109.43 97.73 118.84 86.28 116.86 74.94 C 115.57 64.34 104.97 56.12 94.38 57.47 Z" />
</g>
</svg>
