<?xml version="1.0" encoding="UTF-8" ?>
<!DOCTYPE svg PUBLIC "-//W3C//DTD SVG 1.1//EN" "http://www.w3.org/Graphics/SVG/1.1/DTD/svg11.dtd">
<svg width="192pt" height="192pt" viewBox="0 0 192 192" version="1.1" xmlns="http://www.w3.org/2000/svg">
<g id="#ff365fff">
<path fill="#ff365f" opacity="1.00" d=" M 85.39 19.51 C 98.25 17.52 111.94 19.16 123.37 25.62 C 140.18 34.80 151.51 52.95 152.70 72.02 C 153.38 83.71 149.25 94.96 144.46 105.40 C 136.24 122.92 125.04 138.92 112.96 153.95 C 108.68 159.23 99.99 152.52 103.99 147.02 C 118.23 127.53 133.81 107.79 139.91 83.97 C 146.16 60.35 127.79 34.80 104.28 30.72 C 92.35 29.27 79.81 32.03 69.89 38.90 C 57.90 47.06 50.41 61.45 50.87 75.97 C 51.36 87.34 55.84 98.04 60.95 108.04 C 71.48 127.97 85.87 145.53 100.81 162.28 C 104.83 167.39 96.78 174.65 92.25 169.77 C 78.32 155.09 65.77 139.01 55.39 121.61 C 45.93 105.30 37.17 86.84 39.65 67.47 C 43.21 44.36 61.78 23.11 85.39 19.51 Z" />
<path fill="#ff365f" opacity="1.00" d=" M 88.29 47.35 C 98.97 44.52 111.36 47.90 118.30 56.71 C 128.04 68.50 126.47 87.80 114.50 97.50 C 101.69 108.75 79.18 105.17 71.09 89.95 C 61.71 74.51 70.23 51.40 88.29 47.35 M 91.39 58.57 C 82.72 61.02 76.74 70.92 79.39 79.68 C 81.55 87.98 90.45 94.02 98.98 92.27 C 107.42 90.88 114.11 82.58 113.10 73.97 C 112.80 63.46 101.40 55.56 91.39 58.57 Z" />
</g>
</svg>
