<?xml version="1.0" encoding="UTF-8" ?>
<!DOCTYPE svg PUBLIC "-//W3C//DTD SVG 1.1//EN" "http://www.w3.org/Graphics/SVG/1.1/DTD/svg11.dtd">
<svg width="192pt" height="192pt" viewBox="0 0 192 192" version="1.1" xmlns="http://www.w3.org/2000/svg">
<g id="#bdd1dbff">
<path fill="#bdd1db" opacity="1.00" d=" M 39.32 21.39 C 42.16 20.72 45.09 20.71 47.99 20.71 C 81.33 20.80 114.66 20.65 147.99 20.77 C 160.10 20.96 170.79 31.81 170.79 43.92 C 170.84 78.30 170.85 112.69 170.81 147.07 C 170.92 159.64 159.59 170.75 147.05 170.52 C 112.71 170.55 78.37 170.60 44.03 170.47 C 31.77 170.32 21.02 159.32 21.07 147.07 C 20.98 113.04 21.06 79.00 21.06 44.96 C 20.73 34.10 28.74 23.78 39.32 21.39 M 43.43 32.70 C 37.46 33.30 32.69 38.98 32.92 44.95 C 32.84 78.65 32.90 112.35 32.92 146.05 C 32.53 152.64 38.30 158.76 44.93 158.57 C 78.98 158.59 113.03 158.61 147.07 158.55 C 153.60 158.64 159.32 152.59 158.92 146.07 C 158.88 112.35 159.02 78.63 158.93 44.91 C 159.22 38.41 153.46 32.47 146.96 32.61 C 112.45 32.65 77.93 32.42 43.43 32.70 Z" />
<path fill="#bdd1db" opacity="1.00" d=" M 98.49 111.60 C 110.35 109.41 122.91 111.13 135.04 110.65 C 141.46 110.01 142.89 120.34 136.67 121.51 C 124.84 121.93 112.96 121.65 101.12 121.60 C 96.10 121.68 94.24 114.03 98.49 111.60 Z" />
<path fill="#bdd1db" opacity="1.00" d=" M 99.41 133.55 C 111.56 132.74 123.86 133.21 136.05 133.24 C 142.20 133.61 142.24 143.74 136.04 144.15 C 124.36 144.44 112.63 144.40 100.95 144.15 C 95.44 143.90 94.32 135.38 99.41 133.55 Z" />
</g>
</svg>
