<?xml version="1.0" encoding="UTF-8" ?>
<!DOCTYPE svg PUBLIC "-//W3C//DTD SVG 1.1//EN" "http://www.w3.org/Graphics/SVG/1.1/DTD/svg11.dtd">
<svg width="192pt" height="192pt" viewBox="0 0 192 192" version="1.1" xmlns="http://www.w3.org/2000/svg">
<g id="#567891ff">
<path fill="#567891" opacity="1.00" d=" M 39.32 21.41 C 43.81 20.42 48.44 20.77 53.00 20.74 C 82.00 20.74 111.00 20.75 140.00 20.73 C 145.23 20.74 150.70 20.32 155.64 22.39 C 164.72 25.83 171.15 35.25 170.79 44.99 C 170.78 79.01 170.82 113.03 170.78 147.04 C 171.00 159.66 159.56 170.83 146.98 170.55 C 112.99 170.58 79.00 170.58 45.01 170.54 C 32.40 170.87 20.95 159.68 21.10 147.05 C 21.01 113.03 21.08 79.01 21.08 44.99 C 20.72 34.13 28.73 23.80 39.32 21.41 M 40.35 33.53 C 35.46 35.56 32.56 40.78 32.90 46.00 C 32.87 79.33 32.81 112.67 32.93 146.01 C 32.57 152.62 38.24 158.79 44.93 158.58 C 78.97 158.61 113.03 158.64 147.08 158.56 C 153.64 158.67 159.36 152.58 158.94 146.05 C 158.95 112.35 158.99 78.64 158.92 44.94 C 159.24 38.45 153.48 32.52 146.98 32.63 C 113.32 32.56 79.66 32.65 46.00 32.58 C 44.09 32.66 42.12 32.74 40.35 33.53 Z" />
<path fill="#567891" opacity="1.00" d=" M 98.39 111.45 C 109.61 109.20 121.51 111.08 133.00 110.42 C 137.25 109.58 142.29 113.17 140.80 117.79 C 139.85 121.69 135.39 122.39 132.00 122.20 C 121.67 121.94 111.32 122.52 101.02 121.92 C 95.85 121.70 93.99 114.08 98.39 111.45 Z" />
<path fill="#567891" opacity="1.00" d=" M 99.32 133.37 C 111.17 132.48 123.18 133.24 135.09 133.00 C 139.56 132.54 142.90 138.45 139.95 141.95 C 138.06 145.01 134.08 144.40 131.01 144.50 C 121.01 144.30 111.00 144.69 101.01 144.32 C 95.31 144.17 93.99 135.29 99.32 133.37 Z" />
</g>
</svg>
