<?xml version="1.0" encoding="UTF-8" ?>
<!DOCTYPE svg PUBLIC "-//W3C//DTD SVG 1.1//EN" "http://www.w3.org/Graphics/SVG/1.1/DTD/svg11.dtd">
<svg width="192pt" height="192pt" viewBox="0 0 192 192" version="1.1" xmlns="http://www.w3.org/2000/svg">
<g id="#8bd887ff">
<path fill="#8bd887" opacity="1.00" d=" M 150.30 17.41 C 163.80 12.98 177.84 27.64 173.02 40.94 C 169.59 54.19 150.68 58.65 141.74 48.25 C 131.97 38.86 137.11 20.43 150.30 17.41 Z" />
<path fill="#8bd887" opacity="1.00" d=" M 17.31 46.96 C 17.26 34.87 27.92 24.05 40.02 23.96 C 68.02 23.83 96.04 23.81 124.04 23.96 C 130.41 24.20 130.50 34.77 124.07 34.95 C 96.04 35.40 67.96 34.93 39.92 35.18 C 33.81 35.30 28.51 40.92 28.43 46.97 C 28.30 82.63 28.52 118.30 28.33 153.96 C 59.84 123.67 90.08 91.86 121.33 61.25 C 126.34 57.39 133.02 65.11 128.59 69.56 C 94.72 103.70 60.78 137.78 26.83 171.84 C 23.69 175.42 17.12 172.77 17.31 168.05 C 17.26 127.69 17.29 87.32 17.31 46.96 Z" />
<path fill="#8bd887" opacity="1.00" d=" M 159.24 61.33 C 162.80 59.95 166.92 63.31 166.65 67.03 C 166.67 95.01 166.72 122.99 166.64 150.97 C 166.42 163.23 155.29 173.85 143.06 173.61 C 112.08 173.59 81.10 173.69 50.13 173.54 C 43.47 173.37 43.37 162.53 50.06 162.25 C 81.03 162.05 112.02 162.21 143.00 162.13 C 149.53 162.45 155.46 156.48 155.27 149.97 C 155.34 122.30 155.26 94.63 155.33 66.96 C 155.25 64.49 156.86 62.08 159.24 61.33 Z" />
</g>
</svg>
