<?xml version="1.0" encoding="UTF-8" ?>
<!DOCTYPE svg PUBLIC "-//W3C//DTD SVG 1.1//EN" "http://www.w3.org/Graphics/SVG/1.1/DTD/svg11.dtd">
<svg width="192pt" height="192pt" viewBox="0 0 192 192" version="1.1" xmlns="http://www.w3.org/2000/svg">
<g id="#1ab0ffff">
<path fill="#1ab0ff" opacity="1.00" d=" M 84.42 13.53 C 105.35 10.54 127.36 16.09 144.35 28.67 C 169.33 46.76 182.45 79.75 176.16 110.02 C 169.10 148.41 131.79 177.58 92.99 176.53 C 70.00 176.54 47.00 176.57 24.00 176.51 C 19.13 177.02 16.07 170.74 19.11 167.05 C 24.13 158.31 32.76 148.04 26.20 137.73 C 9.31 110.89 10.31 74.41 28.37 48.41 C 41.10 29.64 61.96 16.66 84.42 13.53 M 50.53 40.57 C 24.68 61.56 17.72 101.50 35.05 129.96 C 42.29 140.41 41.43 154.95 33.70 164.89 C 54.14 165.11 74.58 164.97 95.01 164.98 C 118.07 164.71 140.68 152.82 153.74 133.78 C 173.78 106.36 168.57 65.05 143.39 42.62 C 118.66 18.80 76.31 17.99 50.53 40.57 Z" />
<path fill="#1ab0ff" opacity="1.00" d=" M 56.81 67.97 C 56.54 61.09 63.34 55.62 70.00 56.52 C 77.17 56.07 87.09 55.84 89.63 64.33 C 90.23 70.94 94.86 77.48 92.14 84.10 C 90.18 87.65 87.06 90.49 83.90 92.97 C 80.48 94.60 76.63 90.59 78.09 87.19 C 79.90 84.52 82.54 82.56 84.52 80.03 C 82.60 75.42 82.66 70.05 80.30 65.70 C 75.41 65.75 63.52 62.37 65.94 71.02 C 67.97 86.09 76.02 99.68 87.47 109.54 C 97.13 119.84 111.09 125.62 125.03 126.67 C 128.03 124.93 126.39 120.83 126.83 118.01 C 126.48 115.74 127.78 111.96 124.90 111.01 C 120.89 110.21 116.94 109.14 112.99 108.09 C 108.61 108.53 107.11 115.76 102.08 114.24 C 96.72 111.51 91.75 107.80 87.74 103.30 C 85.09 100.00 89.26 94.92 93.01 96.80 C 96.38 99.16 99.13 102.32 102.67 104.48 C 109.13 95.15 120.39 101.22 128.97 103.02 C 137.20 106.63 135.59 116.69 135.59 123.98 C 135.88 130.21 130.24 135.87 124.01 135.56 C 106.56 134.15 89.77 126.01 78.23 112.78 C 65.67 101.29 58.17 84.85 56.81 67.97 Z" />
</g>
</svg>
