<?xml version="1.0" encoding="UTF-8" ?>
<!DOCTYPE svg PUBLIC "-//W3C//DTD SVG 1.1//EN" "http://www.w3.org/Graphics/SVG/1.1/DTD/svg11.dtd">
<svg width="192pt" height="192pt" viewBox="0 0 192 192" version="1.1" xmlns="http://www.w3.org/2000/svg">
<g id="#ff8e1fff">
<path fill="#ff8e1f" opacity="1.00" d=" M 89.35 13.44 C 109.20 10.24 129.52 24.51 134.23 43.85 C 136.80 52.55 134.41 62.01 136.27 70.62 C 152.14 85.16 160.24 107.96 155.27 129.15 C 150.76 151.72 132.33 170.95 109.68 175.63 C 91.62 180.67 71.41 175.82 56.99 164.02 C 42.74 152.51 33.84 134.39 34.27 115.99 C 34.30 99.79 41.22 84.06 52.52 72.57 C 54.15 66.31 52.71 59.42 53.36 52.92 C 54.22 33.53 70.16 16.15 89.35 13.44 M 66.44 43.39 C 64.04 49.56 64.21 56.28 64.22 62.78 C 79.55 55.57 97.48 53.32 113.84 58.22 C 117.89 59.22 119.02 65.19 115.58 67.58 C 112.69 69.95 109.00 67.84 105.86 67.32 C 84.28 62.37 60.23 73.62 50.62 93.64 C 39.74 114.24 45.84 141.60 64.26 155.80 C 83.03 143.95 108.11 143.53 127.01 155.34 C 140.74 144.56 147.79 126.21 145.04 108.99 C 143.41 97.50 137.50 86.84 129.00 79.00 C 122.12 72.51 125.02 62.36 124.39 54.02 C 124.74 38.35 110.80 23.84 95.02 24.16 C 82.65 23.60 70.74 31.87 66.44 43.39 Z" />
<path fill="#ff8e1f" opacity="1.00" d=" M 92.31 103.38 C 100.35 101.89 109.12 105.50 113.52 112.43 C 119.20 120.84 117.74 133.34 109.84 139.86 C 101.54 147.27 87.33 146.38 80.21 137.76 C 69.70 126.44 76.77 105.37 92.31 103.38 Z" />
</g>
</svg>
