<?xml version="1.0" encoding="UTF-8" ?>
<!DOCTYPE svg PUBLIC "-//W3C//DTD SVG 1.1//EN" "http://www.w3.org/Graphics/SVG/1.1/DTD/svg11.dtd">
<svg width="192pt" height="192pt" viewBox="0 0 192 192" version="1.1" xmlns="http://www.w3.org/2000/svg">
<g id="#33b5d4ff">
<path fill="#33b5d4" opacity="1.00" d=" M 30.27 34.98 C 30.65 27.11 38.12 20.63 45.94 21.12 C 78.99 21.11 112.03 21.08 145.07 21.15 C 152.35 20.97 159.09 26.82 160.05 34.01 C 160.68 39.75 160.01 45.54 160.42 51.30 C 166.99 53.80 171.61 60.89 170.36 67.96 C 168.16 80.31 165.27 92.55 163.21 104.91 C 165.27 120.86 168.36 136.70 170.55 152.64 C 171.50 161.36 163.72 169.33 155.05 169.10 C 115.36 169.12 75.65 169.17 35.96 169.07 C 27.34 169.41 19.43 161.65 20.23 152.95 C 22.36 136.93 25.46 121.03 27.59 105.01 C 25.50 92.31 22.41 79.77 20.33 67.07 C 19.47 60.13 24.25 53.98 30.25 51.10 C 30.17 45.72 30.07 40.34 30.27 34.98 M 42.17 33.17 C 39.53 38.39 41.21 44.85 41.05 50.54 C 77.19 50.45 113.34 50.66 149.48 50.41 C 148.67 44.70 151.10 38.02 148.00 32.97 C 142.89 30.69 136.87 32.14 131.40 31.97 C 131.97 35.86 131.13 41.84 126.01 41.64 C 120.91 41.84 120.04 35.88 120.57 32.00 C 103.64 31.55 86.70 31.98 69.77 31.80 C 70.36 35.81 69.50 42.04 64.13 41.65 C 59.04 41.57 58.69 35.62 58.80 31.82 C 53.33 32.42 47.14 30.44 42.17 33.17 M 34.43 61.62 C 31.98 61.97 30.65 64.69 31.29 66.97 C 33.53 79.68 36.60 92.26 38.59 105.00 C 36.44 121.03 33.45 136.96 31.18 152.98 C 30.50 155.74 33.18 158.41 35.92 158.00 C 75.63 157.98 115.35 158.04 155.07 157.97 C 157.70 158.29 160.15 155.69 159.57 153.07 C 157.24 137.02 154.32 121.04 152.09 104.97 C 154.14 92.11 157.22 79.40 159.50 66.57 C 160.22 63.46 156.98 60.96 154.06 61.49 C 114.18 61.61 74.29 61.30 34.43 61.62 Z" />
<path fill="#33b5d4" opacity="1.00" d=" M 83.23 89.52 C 88.78 87.58 94.51 85.15 100.52 86.50 C 100.75 98.05 100.59 109.59 100.67 121.13 C 103.22 121.32 106.07 120.56 108.43 121.68 C 108.89 123.94 108.64 126.28 108.62 128.57 C 100.21 129.79 91.63 128.54 83.16 128.72 C 81.60 126.96 82.34 123.90 82.64 121.69 C 85.40 120.58 88.71 121.46 91.68 121.05 C 91.63 112.34 91.66 103.63 91.68 94.92 C 88.88 94.76 86.09 94.69 83.29 94.70 C 83.28 92.98 83.26 91.25 83.23 89.52 Z" />
</g>
</svg>
