<?xml version="1.0" encoding="UTF-8" ?>
<!DOCTYPE svg PUBLIC "-//W3C//DTD SVG 1.1//EN" "http://www.w3.org/Graphics/SVG/1.1/DTD/svg11.dtd">
<svg width="192pt" height="192pt" viewBox="0 0 192 192" version="1.1" xmlns="http://www.w3.org/2000/svg">
<g id="#908465ff">
<path fill="#908465" opacity="1.00" d=" M 79.67 16.64 C 83.73 16.32 88.61 13.96 92.21 16.78 C 96.02 19.87 93.37 26.79 88.39 26.46 C 56.12 29.11 28.19 57.19 26.17 89.58 C 74.11 89.61 122.05 89.47 170.00 89.53 C 172.78 89.30 175.88 91.06 176.20 94.03 C 177.53 129.00 153.00 162.76 119.44 172.58 C 88.70 182.57 52.75 171.60 32.72 146.26 C 22.25 133.45 16.16 117.35 14.87 100.89 C 11.24 101.13 6.79 99.25 6.96 95.00 C 6.98 90.85 11.33 89.04 14.93 89.50 C 17.30 54.37 45.00 22.99 79.67 16.64 M 26.22 100.66 C 27.23 125.24 43.46 148.09 65.61 158.41 C 83.76 167.11 105.72 167.40 124.06 159.06 C 146.83 148.98 163.71 125.81 164.77 100.74 C 118.59 100.88 72.40 100.72 26.22 100.66 Z" />
</g>
</svg>
