<?xml version="1.0" encoding="UTF-8" ?>
<!DOCTYPE svg PUBLIC "-//W3C//DTD SVG 1.1//EN" "http://www.w3.org/Graphics/SVG/1.1/DTD/svg11.dtd">
<svg width="192pt" height="192pt" viewBox="0 0 192 192" version="1.1" xmlns="http://www.w3.org/2000/svg">
<g id="#a51affff">
<path fill="#a51aff" opacity="1.00" d=" M 50.93 35.92 C 59.27 28.55 73.10 29.18 80.79 37.21 C 87.63 43.78 89.12 54.64 84.97 63.06 C 93.21 81.47 102.16 99.57 110.51 117.94 C 116.72 114.95 123.91 114.34 130.41 116.79 C 142.69 89.30 154.85 61.74 167.36 34.35 C 170.37 28.38 180.23 33.27 177.33 39.32 C 164.87 67.60 152.10 95.75 139.57 124.00 C 146.27 133.07 145.00 146.98 136.14 154.18 C 127.96 161.53 114.35 161.19 106.53 153.47 C 99.25 146.85 97.61 135.43 102.14 126.80 C 93.82 108.47 85.05 90.34 76.60 72.07 C 69.90 75.62 61.90 75.85 54.97 72.79 C 44.47 100.38 34.26 128.08 23.63 155.61 C 20.93 161.54 11.06 157.48 13.36 151.32 C 24.07 122.21 35.37 93.30 46.05 64.18 C 40.68 55.14 42.70 42.56 50.93 35.92 M 62.28 42.38 C 57.34 43.70 53.70 48.85 54.40 53.98 C 54.81 59.61 60.21 64.21 65.85 63.69 C 72.36 63.49 77.49 56.51 75.71 50.23 C 74.32 44.49 67.99 40.74 62.28 42.38 M 117.34 127.46 C 112.40 129.51 109.60 135.61 111.41 140.68 C 112.94 145.87 118.77 149.25 124.04 147.94 C 130.06 146.80 134.14 139.92 132.07 134.10 C 130.34 128.13 122.98 124.71 117.34 127.46 Z" />
</g>
</svg>
