<?xml version="1.0" encoding="UTF-8" ?>
<!DOCTYPE svg PUBLIC "-//W3C//DTD SVG 1.1//EN" "http://www.w3.org/Graphics/SVG/1.1/DTD/svg11.dtd">
<svg width="192pt" height="192pt" viewBox="0 0 192 192" version="1.1" xmlns="http://www.w3.org/2000/svg">
<g id="#606f80ff">
<path fill="#606f80" opacity="1.00" d=" M 83.33 12.40 C 115.02 7.84 148.24 24.05 164.32 51.67 C 176.40 71.59 179.14 96.77 171.95 118.90 C 163.02 147.26 137.52 169.51 108.16 174.36 C 76.19 180.42 41.66 165.06 24.66 137.34 C 6.33 109.10 8.25 69.63 29.29 43.34 C 42.34 26.48 62.17 15.04 83.33 12.40 M 85.40 23.50 C 63.06 26.02 42.56 40.12 31.90 59.85 C 22.50 76.83 20.80 97.74 26.94 116.11 C 35.23 141.61 59.18 161.13 85.90 163.82 C 109.07 166.68 133.19 157.03 148.06 139.05 C 167.29 116.86 170.01 82.37 154.61 57.39 C 140.80 33.76 112.56 19.92 85.40 23.50 Z" />
<path fill="#606f80" opacity="1.00" d=" M 94.36 51.53 C 102.56 48.89 111.04 56.75 111.04 64.93 C 111.28 83.63 110.99 102.35 111.16 121.05 C 111.10 125.61 117.19 123.20 120.04 123.93 C 123.90 123.60 122.93 128.24 120.52 129.53 C 114.86 134.20 110.48 141.42 104.03 144.46 C 97.84 139.21 92.18 133.21 86.66 127.26 C 85.63 121.27 94.67 125.31 98.00 123.08 C 97.96 105.36 98.22 87.63 97.88 69.92 C 97.88 66.33 93.21 66.66 91.12 68.26 C 85.89 71.56 80.13 74.05 75.31 77.97 C 76.36 81.75 82.09 85.97 78.23 89.64 C 70.21 87.26 61.93 85.68 54.06 82.84 C 53.90 74.52 57.74 65.99 59.88 57.82 C 64.89 55.47 65.35 63.91 68.87 65.95 C 77.52 61.41 85.72 56.06 94.36 51.53 Z" />
</g>
</svg>
