<?xml version="1.0" encoding="UTF-8" ?>
<!DOCTYPE svg PUBLIC "-//W3C//DTD SVG 1.1//EN" "http://www.w3.org/Graphics/SVG/1.1/DTD/svg11.dtd">
<svg width="192pt" height="192pt" viewBox="0 0 192 192" version="1.1" xmlns="http://www.w3.org/2000/svg">
<g id="#ff633cff">
<path fill="#ff633c" opacity="1.00" d=" M 38.38 19.53 C 58.87 18.30 79.51 19.18 100.06 19.06 C 106.70 19.00 106.73 30.03 100.06 30.00 C 81.02 30.37 61.95 29.91 42.91 30.21 C 36.37 30.26 30.79 36.43 31.23 42.93 C 31.22 76.64 31.18 110.36 31.25 144.08 C 31.03 150.89 37.28 156.75 44.03 156.38 C 77.68 156.39 111.32 156.41 144.96 156.36 C 151.64 156.63 157.73 150.79 157.57 144.08 C 157.78 126.04 157.43 107.99 157.73 89.96 C 157.73 83.39 168.67 83.45 168.65 90.02 C 168.87 108.33 168.75 126.66 168.71 144.97 C 168.62 156.95 157.92 167.43 145.99 167.51 C 111.64 167.59 77.29 167.57 42.94 167.51 C 30.59 167.52 19.75 156.38 20.06 144.04 C 20.04 110.00 20.01 75.97 20.10 41.93 C 20.06 31.40 28.11 21.66 38.38 19.53 Z" />
<path fill="#ff633c" opacity="1.00" d=" M 125.38 19.58 C 149.68 18.71 171.31 42.85 168.20 66.91 C 166.77 71.61 159.42 72.03 157.53 67.48 C 156.06 61.83 156.34 55.72 153.61 50.41 C 148.90 39.43 137.64 32.42 125.99 31.16 C 119.40 30.94 118.95 20.55 125.38 19.58 Z" />
<path fill="#ff633c" opacity="1.00" d=" M 125.35 38.30 C 139.88 38.41 151.57 53.17 149.23 67.29 C 147.52 71.69 140.42 71.89 138.64 67.45 C 137.51 62.96 137.24 57.79 133.45 54.55 C 130.50 51.38 126.03 50.69 122.46 48.54 C 118.74 45.57 120.63 38.90 125.35 38.30 Z" />
<path fill="#ff633c" opacity="1.00" d=" M 119.35 57.39 C 125.26 54.35 133.01 60.45 131.03 66.96 C 129.95 72.54 122.51 75.46 117.96 71.97 C 112.91 68.53 113.57 59.70 119.35 57.39 Z" />
</g>
</svg>
