<?xml version="1.0" encoding="UTF-8" ?>
<!DOCTYPE svg PUBLIC "-//W3C//DTD SVG 1.1//EN" "http://www.w3.org/Graphics/SVG/1.1/DTD/svg11.dtd">
<svg width="192pt" height="192pt" viewBox="0 0 192 192" version="1.1" xmlns="http://www.w3.org/2000/svg">
<g id="#f6b12cff">
<path fill="#f6b12c" opacity="1.00" d=" M 40.28 21.34 C 42.48 20.85 44.75 20.74 47.00 20.72 C 80.66 20.78 114.33 20.68 147.99 20.76 C 160.19 20.73 170.99 31.75 170.82 43.94 C 170.89 77.98 170.88 112.02 170.84 146.06 C 171.14 158.34 160.35 169.46 148.06 169.51 C 113.69 169.59 79.32 169.56 44.95 169.50 C 32.62 169.49 21.78 158.37 22.07 146.05 C 22.05 112.01 22.04 77.97 22.10 43.94 C 21.98 33.38 30.01 23.55 40.28 21.34 M 42.27 32.32 C 37.20 33.71 33.16 38.58 33.27 43.92 C 33.23 77.97 33.26 112.02 33.27 146.07 C 33.03 152.81 39.28 158.77 46.00 158.33 C 79.67 158.32 113.33 158.32 147.00 158.30 C 153.69 158.68 159.79 152.76 159.65 146.08 C 159.69 112.03 159.72 77.97 159.64 43.92 C 159.72 36.87 152.88 31.22 146.02 31.81 C 111.45 32.18 76.77 31.10 42.27 32.32 Z" />
<path fill="#f6b12c" opacity="1.00" d=" M 56.27 99.24 C 63.40 97.26 70.94 99.19 77.86 101.20 C 82.61 102.81 88.25 105.56 89.28 110.99 C 90.45 120.67 80.68 130.06 70.99 128.12 C 62.80 126.64 54.27 122.05 51.03 113.98 C 49.14 108.77 50.17 101.05 56.27 99.24 Z" />
<path fill="#f6b12c" opacity="1.00" d=" M 123.38 99.46 C 130.20 98.43 140.80 97.09 143.70 105.26 C 146.47 117.22 135.05 127.10 124.00 128.24 C 112.99 131.03 102.16 118.37 105.94 107.97 C 109.53 102.12 117.09 100.61 123.38 99.46 Z" />
</g>
</svg>
