<?xml version="1.0" encoding="UTF-8" ?>
<!DOCTYPE svg PUBLIC "-//W3C//DTD SVG 1.1//EN" "http://www.w3.org/Graphics/SVG/1.1/DTD/svg11.dtd">
<svg width="192pt" height="192pt" viewBox="0 0 192 192" version="1.1" xmlns="http://www.w3.org/2000/svg">
<g id="#19b0ffff">
<path fill="#19b0ff" opacity="1.00" d=" M 40.29 15.33 C 75.77 13.97 111.43 15.12 146.98 14.73 C 159.55 14.22 171.00 25.36 170.82 37.93 C 170.90 71.97 170.87 106.01 170.86 140.04 C 171.29 151.79 161.64 162.77 149.91 163.78 C 139.29 164.59 128.62 163.75 117.98 164.22 C 109.67 165.07 104.93 173.68 97.02 175.36 C 88.14 174.74 83.23 164.32 74.06 164.15 C 63.71 164.09 53.34 164.09 42.99 163.73 C 31.66 162.81 22.16 152.43 22.10 141.08 C 22.02 106.70 22.06 72.31 22.11 37.93 C 22.00 27.37 30.02 17.57 40.29 15.33 M 42.29 26.33 C 37.20 27.68 33.19 32.60 33.27 37.92 C 33.22 71.97 33.27 106.02 33.26 140.07 C 32.83 146.95 39.11 153.06 45.94 152.72 C 79.65 152.72 113.36 152.76 147.07 152.68 C 153.88 152.95 159.97 146.88 159.66 140.06 C 159.67 106.01 159.74 71.96 159.64 37.92 C 159.68 30.88 152.88 25.25 146.01 25.82 C 111.45 26.17 76.77 25.07 42.29 26.33 Z" />
<path fill="#19b0ff" opacity="1.00" d=" M 79.80 48.74 C 81.37 44.59 87.82 44.24 89.82 48.20 C 91.21 51.41 90.37 55.09 90.56 58.49 C 94.25 58.54 97.94 58.55 101.64 58.53 C 101.80 55.16 101.08 51.58 102.28 48.35 C 104.18 44.31 110.64 44.48 112.34 48.61 C 113.24 51.81 112.73 55.24 112.92 58.54 C 116.22 58.63 119.67 58.07 122.86 59.10 C 127.16 60.96 126.91 67.99 122.43 69.45 C 119.28 70.05 116.05 69.73 112.86 69.77 C 112.84 73.45 112.84 77.13 112.85 80.82 C 116.11 80.95 119.50 80.47 122.67 81.36 C 127.01 83.04 127.07 90.01 122.70 91.69 C 119.53 92.68 116.12 92.15 112.85 92.24 C 112.82 95.38 113.10 98.55 112.55 101.66 C 111.29 105.68 105.31 106.69 102.86 103.20 C 100.76 100.00 101.87 95.86 101.62 92.24 C 97.93 92.24 94.24 92.24 90.55 92.25 C 90.50 95.45 90.95 98.74 90.17 101.89 C 88.60 106.29 81.69 106.48 79.90 102.16 C 78.87 98.97 79.46 95.52 79.34 92.22 C 76.03 92.10 72.55 92.76 69.38 91.61 C 65.25 89.80 65.21 83.23 69.39 81.44 C 72.57 80.38 76.04 81.00 79.34 80.87 C 79.36 77.17 79.35 73.46 79.32 69.75 C 76.09 69.67 72.78 70.10 69.61 69.36 C 65.37 67.69 65.08 61.07 69.26 59.15 C 72.49 58.05 76.02 58.67 79.39 58.49 C 79.46 55.25 78.95 51.91 79.80 48.74 M 90.59 69.77 C 90.57 73.46 90.57 77.14 90.58 80.83 C 94.27 80.87 97.95 80.87 101.64 80.85 C 101.64 77.18 101.62 73.50 101.60 69.83 C 97.93 69.76 94.26 69.72 90.59 69.77 Z" />
<path fill="#19b0ff" opacity="1.00" d=" M 56.29 108.28 C 58.95 106.80 61.82 108.35 63.78 110.21 C 72.94 118.12 84.64 123.91 96.98 123.50 C 109.67 123.27 121.31 116.86 130.58 108.58 C 135.53 104.98 141.96 112.39 137.88 116.87 C 125.70 128.92 108.26 136.24 91.00 134.57 C 77.58 133.33 65.14 126.66 55.25 117.72 C 52.07 115.34 52.64 109.88 56.29 108.28 Z" />
</g>
</svg>
