<?xml version="1.0" encoding="UTF-8" ?>
<!DOCTYPE svg PUBLIC "-//W3C//DTD SVG 1.1//EN" "http://www.w3.org/Graphics/SVG/1.1/DTD/svg11.dtd">
<svg width="192pt" height="192pt" viewBox="0 0 192 192" version="1.1" xmlns="http://www.w3.org/2000/svg">
<g id="#1ab2ffff">
<path fill="#1ab2ff" opacity="1.00" d=" M 154.73 36.78 C 159.32 33.41 165.84 39.85 162.42 44.46 C 156.79 50.66 150.52 56.26 144.66 62.23 C 150.48 66.69 156.41 71.22 160.86 77.14 C 163.34 80.29 161.09 85.69 157.00 85.88 C 152.81 86.53 150.82 82.17 148.17 79.83 C 130.64 62.61 104.37 55.47 80.35 59.44 C 43.58 66.18 15.56 106.75 26.77 143.37 C 72.50 143.14 118.23 143.32 163.96 143.22 C 167.72 133.77 168.61 122.86 164.70 113.31 C 148.12 113.21 131.54 113.50 114.98 113.17 C 108.96 112.46 108.98 102.76 115.02 102.12 C 132.35 101.82 149.71 102.10 167.06 101.98 C 169.44 101.79 172.04 102.69 173.14 104.95 C 181.08 119.19 179.91 137.22 172.57 151.45 C 171.57 153.55 169.27 154.70 167.00 154.55 C 118.72 154.53 70.43 154.60 22.15 154.48 C 16.46 154.15 16.19 147.23 14.92 143.03 C 7.62 112.61 22.08 79.84 47.12 61.94 C 41.72 56.35 35.89 51.18 30.67 45.44 C 26.96 40.82 33.68 34.04 38.32 37.72 C 44.79 43.49 50.71 49.89 57.01 55.85 C 80.80 43.04 110.39 45.15 134.31 56.51 C 141.28 50.11 147.65 43.05 154.73 36.78 Z" />
<path fill="#1ab2ff" opacity="1.00" d=" M 67.24 79.28 C 72.58 77.37 78.74 82.34 77.81 87.98 C 77.51 94.14 69.12 97.72 64.55 93.45 C 59.46 89.75 61.15 80.84 67.24 79.28 Z" />
<path fill="#1ab2ff" opacity="1.00" d=" M 119.26 79.33 C 129.07 75.42 134.73 91.71 124.76 94.77 C 114.84 99.04 109.05 82.26 119.26 79.33 Z" />
</g>
</svg>
