<?xml version="1.0" encoding="UTF-8" ?>
<!DOCTYPE svg PUBLIC "-//W3C//DTD SVG 1.1//EN" "http://www.w3.org/Graphics/SVG/1.1/DTD/svg11.dtd">
<svg width="192pt" height="192pt" viewBox="0 0 192 192" version="1.1" xmlns="http://www.w3.org/2000/svg">
<g id="#606f80ff">
<path fill="#606f80" opacity="1.00" d=" M 38.27 19.32 C 73.76 17.97 109.43 19.11 144.98 18.73 C 157.55 18.19 169.04 29.37 168.83 41.94 C 168.89 75.98 168.88 110.01 168.85 144.05 C 169.23 156.36 158.35 167.51 146.06 167.55 C 111.69 167.61 77.32 167.59 42.95 167.55 C 30.60 167.56 19.75 156.37 20.06 144.04 C 20.04 110.00 20.03 75.97 20.08 41.94 C 19.97 31.38 28.00 21.56 38.27 19.32 M 40.29 30.41 C 35.27 31.76 31.17 36.62 31.32 41.93 C 31.28 75.97 31.31 110.02 31.31 144.07 C 31.05 150.80 37.30 156.78 44.01 156.33 C 77.67 156.32 111.33 156.32 145.00 156.31 C 151.68 156.71 157.80 150.75 157.64 144.08 C 157.71 110.36 157.66 76.65 157.67 42.93 C 158.18 36.09 151.99 29.44 145.02 30.14 C 110.11 30.64 75.14 28.84 40.29 30.41 Z" />
<path fill="#606f80" opacity="1.00" d=" M 120.35 37.33 C 123.85 32.17 132.57 37.25 129.91 42.87 C 122.00 57.34 113.54 71.52 105.48 85.91 C 109.27 92.18 107.34 101.33 100.43 104.47 C 93.09 108.44 83.10 103.17 82.28 94.87 C 80.92 87.12 87.87 80.09 95.52 80.31 C 103.96 66.08 111.77 51.46 120.35 37.33 Z" />
<path fill="#606f80" opacity="1.00" d=" M 63.34 119.24 C 66.58 116.93 71.57 120.06 70.85 123.98 C 70.87 127.53 66.17 129.75 63.38 127.63 C 60.33 125.87 60.35 121.06 63.34 119.24 Z" />
<path fill="#606f80" opacity="1.00" d=" M 78.21 119.04 C 81.17 117.37 85.26 119.62 85.47 123.01 C 86.12 127.07 80.71 130.22 77.58 127.44 C 74.62 125.50 75.02 120.54 78.21 119.04 Z" />
<path fill="#606f80" opacity="1.00" d=" M 92.34 119.24 C 95.59 116.93 100.56 120.06 99.86 123.98 C 99.86 127.53 95.17 129.75 92.38 127.63 C 89.35 125.87 89.36 121.05 92.34 119.24 Z" />
<path fill="#606f80" opacity="1.00" d=" M 107.22 119.06 C 110.51 117.11 115.05 120.25 114.44 124.01 C 114.27 127.67 109.38 129.92 106.58 127.44 C 103.68 125.48 104.00 120.52 107.22 119.06 Z" />
<path fill="#606f80" opacity="1.00" d=" M 121.22 119.07 C 124.17 117.31 128.33 119.60 128.49 123.00 C 129.12 126.75 124.47 129.89 121.24 127.87 C 117.82 126.20 117.71 120.69 121.22 119.07 Z" />
<path fill="#606f80" opacity="1.00" d=" M 63.36 133.31 C 66.57 131.02 71.49 134.10 70.88 137.97 C 70.91 141.89 65.45 144.05 62.75 141.22 C 60.26 139.20 60.60 134.93 63.36 133.31 Z" />
<path fill="#606f80" opacity="1.00" d=" M 78.22 133.08 C 81.18 131.46 85.23 133.63 85.44 137.01 C 86.23 141.11 80.68 144.29 77.55 141.50 C 74.63 139.50 75.02 134.60 78.22 133.08 Z" />
<path fill="#606f80" opacity="1.00" d=" M 92.36 133.31 C 95.57 131.01 100.51 134.10 99.86 137.98 C 99.93 141.90 94.43 144.06 91.75 141.22 C 89.28 139.21 89.63 134.92 92.36 133.31 Z" />
<path fill="#606f80" opacity="1.00" d=" M 107.22 133.08 C 110.17 131.45 114.24 133.64 114.43 137.01 C 115.23 141.10 109.68 144.30 106.56 141.50 C 103.63 139.50 104.05 134.61 107.22 133.08 Z" />
<path fill="#606f80" opacity="1.00" d=" M 121.23 133.08 C 124.20 131.46 128.26 133.61 128.48 137.01 C 129.26 141.13 123.69 144.29 120.56 141.48 C 117.69 139.44 118.07 134.64 121.23 133.08 Z" />
</g>
</svg>
