<?xml version="1.0" encoding="UTF-8" ?>
<!DOCTYPE svg PUBLIC "-//W3C//DTD SVG 1.1//EN" "http://www.w3.org/Graphics/SVG/1.1/DTD/svg11.dtd">
<svg width="192pt" height="192pt" viewBox="0 0 192 192" version="1.1" xmlns="http://www.w3.org/2000/svg">
<g id="#7f92a7ff">
<path fill="#7f92a7" opacity="1.00" d=" M 39.30 21.30 C 74.79 19.98 110.45 21.10 146.00 20.73 C 158.56 20.21 170.02 31.37 169.81 43.93 C 169.87 77.98 169.86 112.02 169.82 146.07 C 170.16 158.36 159.32 169.47 147.05 169.51 C 112.69 169.58 78.32 169.57 43.96 169.52 C 31.62 169.52 20.79 158.39 21.06 146.07 C 21.02 112.02 21.01 77.97 21.06 43.92 C 20.99 33.35 29.00 23.52 39.30 21.30 M 41.29 32.37 C 36.23 33.74 32.21 38.60 32.31 43.93 C 32.25 77.97 32.28 112.02 32.29 146.07 C 32.05 152.80 38.27 158.76 44.98 158.33 C 78.66 158.33 112.34 158.34 146.02 158.33 C 152.72 158.70 158.81 152.76 158.65 146.07 C 158.70 112.02 158.73 77.97 158.64 43.93 C 158.72 36.88 151.90 31.27 145.04 31.82 C 110.47 32.19 75.79 31.12 41.29 32.37 Z" />
<path fill="#7f92a7" opacity="1.00" d=" M 119.07 46.23 C 120.75 46.25 122.43 46.27 124.12 46.28 C 124.31 53.56 124.21 60.84 124.22 68.12 C 120.32 67.46 111.67 70.56 112.21 64.07 C 112.34 59.91 111.74 55.63 112.64 51.54 C 114.23 49.97 116.86 50.75 118.89 50.43 C 118.95 49.03 119.01 47.63 119.07 46.23 M 118.42 64.10 C 118.90 60.85 118.84 57.55 118.21 54.33 C 117.43 57.53 117.17 60.98 118.42 64.10 Z" />
<path fill="#7f92a7" opacity="1.00" d=" M 98.16 50.35 C 101.90 51.42 106.12 49.99 109.60 51.35 C 111.12 56.72 109.89 62.62 110.27 68.20 C 108.42 68.09 106.58 67.98 104.74 67.87 C 104.72 63.37 104.87 58.85 104.48 54.36 C 102.17 58.36 103.93 63.45 103.38 67.89 C 101.64 67.88 99.90 67.88 98.16 67.87 C 98.16 62.03 98.17 56.19 98.16 50.35 Z" />
<path fill="#7f92a7" opacity="1.00" d=" M 56.53 51.37 C 59.83 49.63 64.13 50.85 67.83 50.61 C 68.08 58.19 68.72 65.89 67.37 73.41 C 63.58 73.56 59.78 73.58 55.99 73.49 C 56.00 72.12 56.01 70.74 56.01 69.36 C 58.43 69.27 60.85 69.13 63.24 68.74 C 60.83 67.72 55.67 69.02 56.03 65.05 C 56.10 60.53 55.31 55.73 56.53 51.37 M 61.84 54.29 C 61.31 57.47 61.23 60.71 61.68 63.90 C 62.96 60.84 62.58 57.43 61.84 54.29 Z" />
<path fill="#7f92a7" opacity="1.00" d=" M 69.93 50.64 C 73.79 51.09 79.08 48.97 81.94 52.16 C 82.12 57.81 81.88 63.48 82.23 69.13 C 83.63 69.17 85.04 69.20 86.45 69.23 C 86.46 70.84 86.48 72.44 86.50 74.05 C 88.65 74.57 92.36 73.28 93.09 76.07 C 93.67 81.42 93.19 86.83 93.32 92.20 C 91.49 92.10 89.67 91.98 87.85 91.87 C 87.85 87.60 87.84 83.33 87.83 79.06 L 86.54 79.19 C 86.55 83.43 86.53 87.66 86.55 91.90 C 84.81 91.89 83.07 91.88 81.33 91.87 C 81.33 85.88 81.35 79.88 81.30 73.89 C 79.90 73.56 78.50 73.24 77.11 72.91 C 76.62 69.16 76.59 65.38 76.64 61.61 C 76.32 61.64 75.68 61.69 75.36 61.71 C 75.37 63.77 75.36 65.83 75.37 67.89 C 73.54 67.89 71.72 67.88 69.89 67.87 C 69.90 62.13 69.78 56.38 69.93 50.64 Z" />
<path fill="#7f92a7" opacity="1.00" d=" M 83.84 54.85 C 83.03 48.54 91.88 50.25 95.60 51.29 C 96.81 56.79 95.92 62.52 96.13 68.11 C 92.20 68.21 88.24 68.24 84.34 67.66 C 83.78 64.31 83.78 60.88 84.46 57.55 C 86.89 57.05 89.88 57.50 91.59 55.33 C 89.13 55.31 85.53 57.35 83.84 54.85 Z" />
<path fill="#7f92a7" opacity="1.00" d=" M 65.81 76.12 C 68.90 71.67 74.83 76.74 79.20 75.55 C 79.22 76.54 79.25 78.53 79.26 79.53 C 77.03 79.54 74.79 79.56 72.56 79.57 C 72.62 82.38 72.20 85.34 73.50 87.95 C 73.80 85.59 73.90 83.22 73.95 80.86 C 75.73 80.86 77.50 80.87 79.28 80.88 C 78.61 84.46 81.62 91.89 76.09 92.13 C 73.27 91.94 69.41 93.17 67.38 90.66 C 67.22 85.76 67.11 80.88 65.81 76.12 Z" />
<path fill="#7f92a7" opacity="1.00" d=" M 95.76 74.74 C 99.25 74.20 103.59 73.40 106.71 75.32 C 107.39 78.58 107.08 81.93 107.12 85.23 C 104.56 85.28 101.99 85.32 99.43 85.57 C 101.44 87.61 104.53 86.01 107.02 86.26 C 110.07 94.52 92.78 95.10 94.77 87.04 C 95.16 83.04 93.82 78.25 95.76 74.74 Z" />
<path fill="#7f92a7" opacity="1.00" d=" M 109.16 75.13 C 112.32 73.39 116.78 74.69 120.44 74.39 C 120.45 75.39 120.47 77.40 120.48 78.41 C 118.42 78.43 116.35 78.47 114.30 78.63 C 116.15 79.98 118.51 79.75 120.66 79.97 C 120.63 81.23 120.60 82.49 120.57 83.75 C 118.33 83.82 116.09 83.93 113.85 84.08 C 113.84 86.77 113.82 89.46 113.75 92.15 C 112.03 92.12 110.31 92.09 108.60 92.07 C 108.92 86.45 107.91 80.60 109.16 75.13 Z" />
<path fill="#7f92a7" opacity="1.00" d=" M 121.52 74.17 C 123.73 74.14 125.95 74.12 128.17 74.07 C 128.58 74.43 129.40 75.15 129.82 75.51 C 131.54 75.48 133.26 75.47 134.99 75.46 C 135.03 76.81 135.07 78.16 135.11 79.51 C 132.95 79.54 130.80 79.58 128.64 79.63 C 128.63 82.40 128.10 85.34 129.44 87.92 C 129.75 85.57 129.85 83.20 129.91 80.83 C 131.63 80.85 133.36 80.87 135.09 80.90 C 134.91 84.36 135.84 88.17 134.42 91.42 C 131.05 92.54 126.96 92.78 123.67 91.33 C 122.83 85.66 123.10 79.80 121.52 74.17 Z" />
<path fill="#7f92a7" opacity="1.00" d=" M 62.83 100.71 C 61.68 93.94 69.99 94.99 74.23 95.81 C 76.62 100.95 74.74 107.23 75.33 112.82 C 71.69 112.77 68.01 113.09 64.38 112.56 C 62.04 110.55 63.09 106.82 63.18 104.09 C 64.02 100.69 68.77 102.96 70.59 100.48 C 68.01 100.51 65.42 100.69 62.83 100.71 Z" />
<path fill="#7f92a7" opacity="1.00" d=" M 77.31 95.54 C 79.07 95.53 80.82 95.52 82.58 95.52 C 82.56 101.69 84.06 108.77 78.88 113.43 C 75.58 108.16 77.98 101.42 77.31 95.54 Z" />
<path fill="#7f92a7" opacity="1.00" d=" M 84.15 95.43 C 85.78 95.44 87.41 95.46 89.05 95.47 C 89.15 99.21 89.18 102.95 89.17 106.69 C 87.41 106.85 85.64 107.02 83.88 107.19 C 83.84 103.27 83.93 99.35 84.15 95.43 Z" />
<path fill="#7f92a7" opacity="1.00" d=" M 92.75 95.68 C 96.51 95.02 100.19 97.09 104.01 96.61 C 104.13 97.97 104.25 99.32 104.37 100.68 C 102.05 100.72 99.74 100.76 97.44 100.84 C 97.43 103.60 97.40 106.36 97.70 109.11 C 99.50 107.09 98.90 104.29 99.17 101.83 C 100.87 101.85 102.58 101.86 104.28 101.88 C 104.33 105.31 104.32 108.74 104.20 112.16 C 101.20 112.65 98.19 113.06 95.15 113.20 C 95.66 111.46 96.20 109.74 96.74 108.02 C 96.41 107.59 95.77 106.74 95.44 106.31 C 94.37 106.47 93.31 106.64 92.24 106.81 C 93.35 103.12 88.60 98.01 92.75 95.68 Z" />
<path fill="#7f92a7" opacity="1.00" d=" M 106.12 99.94 C 105.30 93.53 114.16 94.87 117.84 96.32 C 119.16 101.48 118.19 107.01 118.30 112.31 C 110.83 115.43 104.51 106.84 106.12 99.94 M 112.53 108.99 C 113.04 105.66 113.00 102.26 112.48 98.93 C 111.32 102.15 111.10 105.82 112.53 108.99 Z" />
<path fill="#7f92a7" opacity="1.00" d=" M 82.09 120.80 C 80.20 116.24 82.19 110.56 86.86 108.64 C 89.05 109.25 91.26 109.80 93.49 110.28 C 93.21 115.69 93.38 121.11 93.29 126.53 C 93.74 126.90 94.64 127.63 95.09 128.00 C 94.18 128.74 93.27 129.47 92.36 130.20 C 91.48 129.39 90.60 128.58 89.71 127.78 C 89.75 126.28 89.78 124.79 89.80 123.29 C 88.29 123.56 86.79 123.85 85.29 124.18 C 85.24 124.79 85.13 126.02 85.08 126.63 C 86.78 127.36 88.48 128.08 90.16 128.87 C 88.10 130.81 85.79 129.10 83.75 128.17 C 82.73 129.29 81.70 130.39 80.64 131.48 C 81.03 127.90 83.82 124.39 82.09 120.80 M 84.71 112.74 C 83.16 115.47 82.99 118.58 83.95 121.54 C 85.05 119.83 86.11 118.11 87.17 116.38 C 86.50 116.13 85.14 115.62 84.46 115.36 C 85.88 114.24 87.32 113.15 88.75 112.05 C 87.40 112.28 86.05 112.51 84.71 112.74 M 86.50 121.62 C 87.77 121.49 89.05 121.36 90.32 121.23 C 90.30 119.10 90.27 116.97 90.23 114.84 C 88.97 117.09 87.72 119.35 86.50 121.62 Z" />
<path fill="#7f92a7" opacity="1.00" d=" M 105.95 110.07 C 108.68 112.36 111.04 115.04 113.63 117.47 C 113.11 122.07 115.44 128.14 110.81 131.20 C 109.42 130.20 108.03 129.21 106.65 128.21 C 106.88 124.16 105.71 119.52 108.62 116.16 C 107.28 114.35 106.30 112.31 105.95 110.07 M 109.39 117.37 C 109.07 121.17 107.47 125.99 110.98 128.82 C 110.27 125.05 111.83 120.64 109.39 117.37 Z" />
<path fill="#7f92a7" opacity="1.00" d=" M 49.19 112.98 C 51.43 114.51 53.72 115.97 56.11 117.24 C 55.47 119.04 54.82 120.85 54.18 122.66 C 63.26 125.68 59.63 136.27 54.01 140.86 C 52.96 140.13 51.91 139.41 50.86 138.69 C 48.66 139.80 44.65 142.12 43.62 138.36 C 42.35 134.34 46.45 131.96 49.98 132.10 C 40.17 129.84 45.66 118.52 49.19 112.98 M 49.08 117.69 C 48.72 120.36 49.59 122.77 52.56 122.99 C 53.01 121.99 53.47 120.98 53.93 119.98 C 52.37 119.09 50.76 118.31 49.08 117.69 M 46.81 125.28 C 46.59 127.00 49.16 128.68 50.74 128.07 C 50.89 126.42 48.30 125.05 46.81 125.28 M 51.53 126.88 C 52.99 127.97 54.50 128.98 56.03 129.98 C 56.22 131.61 56.44 133.24 56.69 134.87 C 58.42 130.84 56.30 126.43 51.53 126.88 M 49.81 132.41 C 50.91 133.39 52.05 134.31 53.20 135.23 C 53.33 134.19 53.46 133.14 53.58 132.10 C 52.32 132.19 51.06 132.30 49.81 132.41 M 45.12 139.15 C 46.67 138.78 48.16 138.20 49.56 137.42 C 48.29 136.63 47.01 135.85 45.72 135.09 C 45.50 136.44 45.30 137.79 45.12 139.15 Z" />
<path fill="#7f92a7" opacity="1.00" d=" M 99.77 116.90 C 100.51 116.17 101.25 115.45 101.99 114.72 C 102.56 114.99 103.70 115.54 104.27 115.82 C 103.79 120.19 103.88 124.61 104.44 128.97 C 103.82 129.26 102.57 129.84 101.94 130.13 C 101.75 125.60 101.85 121.04 101.33 116.53 C 96.21 119.76 102.48 128.04 96.84 130.20 C 96.62 125.38 96.63 120.55 96.78 115.74 C 97.78 116.12 98.77 116.51 99.77 116.90 Z" />
<path fill="#7f92a7" opacity="1.00" d=" M 76.35 116.51 C 76.99 116.73 78.28 117.19 78.92 117.42 C 77.35 122.06 81.60 129.06 76.90 131.82 C 76.43 127.49 76.61 123.11 76.13 118.78 C 72.48 122.13 74.81 127.45 74.22 131.77 C 73.60 131.67 72.34 131.47 71.71 131.36 C 71.70 126.73 71.48 122.09 71.68 117.46 C 72.64 117.97 73.60 118.49 74.56 119.01 C 75.01 118.38 75.90 117.13 76.35 116.51 Z" />
<path fill="#7f92a7" opacity="1.00" d=" M 116.46 117.29 C 118.32 117.71 120.18 118.09 122.06 118.42 C 122.15 119.20 122.32 120.77 122.41 121.55 C 121.25 121.12 120.10 120.68 118.95 120.25 C 118.34 123.95 117.79 128.15 120.82 131.00 C 119.79 131.32 118.75 131.64 117.72 131.96 C 114.96 127.55 117.22 122.15 116.46 117.29 Z" />
<path fill="#7f92a7" opacity="1.00" d=" M 61.52 122.48 C 61.30 118.28 66.11 119.36 68.80 119.36 C 68.32 124.22 68.56 129.10 68.88 133.96 C 67.72 133.78 66.57 133.55 65.42 133.35 C 64.59 134.22 63.76 135.08 62.92 135.95 C 59.41 131.95 61.33 126.83 63.77 122.85 C 63.51 126.30 62.85 129.95 64.42 133.21 C 65.23 130.99 65.93 128.58 64.49 126.46 C 65.35 125.25 65.68 123.81 65.81 122.35 C 64.38 122.38 62.95 122.43 61.52 122.48 Z" />
<path fill="#7f92a7" opacity="1.00" d=" M 123.77 131.90 C 124.60 127.26 122.35 120.97 127.05 117.97 C 128.05 120.32 131.37 122.75 129.31 125.42 C 127.74 124.36 126.99 122.53 125.86 121.07 C 127.93 124.58 123.76 132.77 129.46 132.60 C 128.47 133.19 127.49 133.79 126.52 134.40 C 125.60 133.56 124.68 132.73 123.77 131.90 Z" />
<path fill="#7f92a7" opacity="1.00" d=" M 132.20 120.86 C 134.29 121.05 136.13 122.06 137.86 123.17 C 136.76 127.86 137.96 132.66 137.18 137.36 C 136.38 136.57 135.59 135.78 134.80 134.98 C 133.76 135.40 132.72 135.83 131.69 136.25 C 130.03 132.44 130.46 128.24 132.85 124.84 C 133.39 125.57 134.46 127.03 135.00 127.76 C 134.99 126.87 134.96 125.09 134.95 124.20 C 133.96 124.29 132.98 124.39 132.00 124.49 C 132.06 123.28 132.13 122.07 132.20 120.86 M 132.90 127.44 C 132.77 129.50 132.81 131.56 132.98 133.62 C 135.83 132.39 135.09 128.88 132.90 127.44 Z" />
<path fill="#7f92a7" opacity="1.00" d=" M 120.28 128.37 C 119.75 125.78 119.48 123.10 122.53 122.07 C 122.64 124.50 122.68 126.93 122.70 129.36 C 122.10 129.11 120.88 128.62 120.28 128.37 Z" />
<path fill="#7f92a7" opacity="1.00" d=" M 146.05 126.70 C 146.72 125.16 147.39 123.63 148.14 122.14 C 148.02 125.15 147.08 128.02 145.95 130.79 C 147.12 133.42 147.44 136.27 147.38 139.13 C 146.78 139.43 145.58 140.03 144.98 140.33 C 143.34 139.03 141.48 138.07 139.47 137.52 C 140.34 136.27 141.20 135.00 142.05 133.73 C 140.21 131.29 139.81 128.32 140.15 125.35 C 140.66 124.93 141.68 124.11 142.19 123.70 C 143.47 124.70 144.75 125.70 146.05 126.70 M 141.98 126.49 C 142.10 128.12 142.26 129.75 142.43 131.37 C 143.55 130.61 144.58 129.72 145.54 128.77 C 144.35 128.01 143.16 127.25 141.98 126.49 M 141.83 136.06 C 142.99 136.76 144.16 137.45 145.33 138.14 C 145.33 136.17 144.96 134.25 144.22 132.43 C 143.41 133.63 142.62 134.85 141.83 136.06 Z" />
</g>
</svg>
