<?xml version="1.0" encoding="UTF-8" ?>
<!DOCTYPE svg PUBLIC "-//W3C//DTD SVG 1.1//EN" "http://www.w3.org/Graphics/SVG/1.1/DTD/svg11.dtd">
<svg width="192pt" height="192pt" viewBox="0 0 192 192" version="1.1" xmlns="http://www.w3.org/2000/svg">
<g id="#1bb4ffff">
<path fill="#1bb4ff" opacity="1.00" d=" M 40.44 18.66 C 71.93 17.97 103.48 18.54 135.00 18.34 C 141.62 18.57 148.61 17.43 154.87 20.19 C 163.75 23.84 169.97 33.39 169.15 43.03 C 168.47 46.77 163.59 48.62 160.55 46.40 C 157.96 44.90 158.30 41.61 157.68 39.10 C 156.65 33.31 150.78 29.12 144.99 29.52 C 111.33 29.55 77.67 29.50 44.01 29.52 C 37.74 29.35 32.01 34.73 31.72 40.98 C 31.41 60.53 31.94 80.11 31.48 99.64 C 30.59 105.55 20.86 105.03 20.67 99.00 C 20.42 80.01 20.64 61.01 20.58 42.01 C 20.29 30.72 29.26 20.19 40.44 18.66 Z" />
<path fill="#1bb4ff" opacity="1.00" d=" M 164.65 57.73 C 166.87 55.65 171.32 56.44 171.13 59.99 C 171.21 72.97 170.85 85.96 170.67 98.93 C 171.24 102.10 166.54 103.79 164.88 101.13 C 162.53 97.49 161.00 93.41 158.91 89.63 C 148.22 106.75 135.29 123.53 116.98 132.96 C 100.03 142.01 79.80 143.11 61.35 138.57 C 47.05 135.65 33.22 130.13 21.17 121.87 C 17.30 118.46 20.83 111.43 25.86 112.38 C 48.45 125.25 75.94 134.81 101.92 127.02 C 123.23 120.39 138.36 102.16 149.07 83.43 C 144.85 83.40 140.54 84.38 136.38 83.53 C 133.76 81.89 134.72 77.59 137.30 76.29 C 146.42 70.12 155.53 63.92 164.65 57.73 Z" />
<path fill="#1bb4ff" opacity="1.00" d=" M 163.23 108.46 C 166.33 108.11 169.38 110.80 169.22 113.97 C 169.34 124.30 169.35 134.65 169.21 144.98 C 168.91 157.01 157.98 167.34 145.98 167.20 C 111.65 167.24 77.31 167.35 42.98 167.14 C 28.37 167.02 17.07 151.17 21.29 137.34 C 22.88 134.26 27.53 133.57 29.93 136.11 C 32.37 138.41 31.36 142.05 31.81 145.01 C 32.22 151.07 37.89 156.06 43.92 155.98 C 77.63 156.03 111.34 155.99 145.05 155.99 C 151.71 156.44 158.07 150.79 158.07 144.04 C 158.28 134.02 158.00 123.99 158.18 113.97 C 158.06 111.16 160.45 108.62 163.23 108.46 Z" />
</g>
</svg>
