<?xml version="1.0" encoding="UTF-8" ?>
<!DOCTYPE svg PUBLIC "-//W3C//DTD SVG 1.1//EN" "http://www.w3.org/Graphics/SVG/1.1/DTD/svg11.dtd">
<svg width="192pt" height="192pt" viewBox="0 0 192 192" version="1.1" xmlns="http://www.w3.org/2000/svg">
<g id="#18b7c5ff">
<path fill="#18b7c5" opacity="1.00" d=" M 84.41 14.53 C 117.63 9.30 152.65 27.16 168.16 56.92 C 184.27 86.06 179.93 124.82 157.62 149.57 C 136.28 174.63 99.16 184.26 68.32 172.77 C 47.49 165.40 30.03 149.15 21.11 128.94 C 9.37 103.07 12.52 71.19 29.19 48.17 C 42.00 30.06 62.41 17.52 84.41 14.53 M 87.38 25.46 C 63.28 28.11 41.43 44.37 31.54 66.43 C 18.20 94.76 26.76 131.24 51.46 150.54 C 77.40 172.45 119.16 171.18 143.69 147.68 C 167.56 126.64 173.64 88.83 157.74 61.30 C 144.33 36.54 115.31 21.74 87.38 25.46 Z" />
<path fill="#18b7c5" opacity="1.00" d=" M 130.78 60.69 C 142.36 59.12 153.95 68.29 156.52 79.56 C 160.78 94.70 147.67 111.16 132.00 110.57 C 118.23 110.93 106.88 98.52 106.99 85.03 C 114.94 76.94 122.71 68.65 130.78 60.69 M 119.06 90.17 C 122.23 100.15 136.85 102.45 142.98 94.02 C 149.17 86.82 145.08 74.45 135.93 72.14 C 129.84 77.61 124.83 84.32 119.06 90.17 Z" />
<path fill="#18b7c5" opacity="1.00" d=" M 38.05 86.93 C 38.38 73.56 50.79 62.44 64.06 62.99 C 72.26 71.29 80.35 79.70 88.52 88.03 C 88.26 101.83 76.05 114.25 62.00 113.27 C 48.55 112.97 37.03 100.37 38.05 86.93 M 53.15 97.84 C 59.74 105.18 72.96 102.24 76.16 93.00 C 70.71 87.03 65.44 80.88 59.77 75.13 C 49.59 76.33 45.72 91.05 53.15 97.84 Z" />
</g>
</svg>
