<?xml version="1.0" encoding="UTF-8" ?>
<!DOCTYPE svg PUBLIC "-//W3C//DTD SVG 1.1//EN" "http://www.w3.org/Graphics/SVG/1.1/DTD/svg11.dtd">
<svg width="192pt" height="192pt" viewBox="0 0 192 192" version="1.1" xmlns="http://www.w3.org/2000/svg">
<g id="#ff8a1fff">
<path fill="#ff8a1f" opacity="1.00" d=" M 39.37 21.53 C 43.16 20.52 47.12 20.74 51.00 20.73 C 83.33 20.77 115.66 20.68 147.98 20.76 C 159.82 20.74 170.45 31.11 170.77 42.93 C 170.82 49.52 171.12 56.15 170.63 62.73 C 169.73 68.09 161.09 68.21 159.95 62.93 C 159.17 56.04 160.17 49.06 159.47 42.16 C 158.65 36.26 152.92 31.74 147.04 31.85 C 113.35 31.80 79.66 31.80 45.98 31.83 C 40.05 31.67 34.23 36.17 33.43 42.13 C 32.79 49.04 33.83 56.03 32.93 62.91 C 31.85 68.20 23.25 68.05 22.28 62.76 C 21.75 56.51 22.15 50.21 22.09 43.94 C 21.98 33.69 29.51 24.13 39.37 21.53 Z" />
<path fill="#ff8a1f" opacity="1.00" d=" M 65.08 66.77 C 66.56 66.56 68.05 66.67 69.48 67.09 C 70.01 69.87 67.92 75.51 72.17 75.58 C 78.96 76.80 72.50 63.92 80.28 66.70 C 80.13 70.34 81.45 74.80 78.78 77.79 C 75.20 80.11 69.87 80.18 66.40 77.59 C 63.81 74.64 65.10 70.32 65.08 66.77 Z" />
<path fill="#ff8a1f" opacity="1.00" d=" M 92.78 66.79 C 94.11 66.46 95.44 66.15 96.78 65.85 C 97.22 70.32 97.15 74.81 97.06 79.30 C 92.30 80.72 89.70 75.99 86.54 73.43 C 86.47 76.74 85.94 80.68 81.67 80.18 C 81.29 75.68 81.35 71.15 81.63 66.64 C 86.46 65.60 89.16 70.04 92.26 72.78 C 92.53 70.79 92.68 68.79 92.78 66.79 Z" />
<path fill="#ff8a1f" opacity="1.00" d=" M 53.00 79.16 C 46.60 78.47 46.58 67.34 53.01 66.78 C 56.62 66.33 61.62 66.09 63.33 70.10 C 60.00 70.27 56.67 70.26 53.34 70.37 C 50.88 74.18 55.24 77.13 58.50 74.82 C 57.46 74.65 55.38 74.29 54.34 74.12 C 55.09 69.58 60.43 71.79 63.65 71.46 C 65.44 77.84 58.16 80.90 53.00 79.16 Z" />
<path fill="#ff8a1f" opacity="1.00" d=" M 99.52 73.48 C 96.88 71.86 98.10 67.36 101.08 66.96 C 105.19 66.30 109.38 66.66 113.53 66.73 C 112.98 72.44 106.28 69.42 102.53 70.52 C 105.54 71.50 108.79 71.05 111.79 72.01 C 114.72 73.40 114.06 78.32 110.87 78.94 C 106.71 79.88 102.39 79.49 98.18 79.16 C 98.18 78.33 98.16 76.66 98.16 75.83 C 101.66 75.46 105.18 75.43 108.70 75.54 C 108.69 75.27 108.68 74.73 108.67 74.47 C 105.64 74.34 102.28 75.08 99.52 73.48 Z" />
<path fill="#ff8a1f" opacity="1.00" d=" M 122.34 67.29 C 126.99 65.57 135.72 66.16 134.96 73.02 C 135.46 78.79 128.43 80.53 124.01 79.18 C 118.64 78.19 117.62 69.77 122.34 67.29 M 124.47 70.41 C 124.34 71.95 124.24 73.49 124.16 75.03 C 126.20 75.48 128.28 75.50 130.35 75.21 C 131.74 70.93 127.93 69.53 124.47 70.41 Z" />
<path fill="#ff8a1f" opacity="1.00" d=" M 136.12 66.81 C 140.13 66.59 144.15 66.60 148.17 66.79 C 148.19 67.62 148.22 69.30 148.23 70.14 C 145.67 70.19 143.09 70.22 140.55 70.55 C 142.69 71.44 145.04 71.27 147.31 71.25 C 147.13 72.37 146.94 73.49 146.76 74.61 C 144.87 74.74 142.99 74.87 141.11 75.00 C 140.77 76.46 140.45 77.94 140.12 79.41 C 138.77 79.40 137.42 79.38 136.07 79.33 C 135.81 75.16 135.87 70.98 136.12 66.81 Z" />
<path fill="#ff8a1f" opacity="1.00" d=" M 22.54 82.59 C 31.54 82.50 40.58 82.10 49.55 82.72 C 55.18 83.40 57.37 90.80 53.18 94.56 C 57.99 98.23 57.71 106.58 51.79 108.95 C 42.47 112.98 32.31 114.79 22.41 116.82 C 22.34 105.42 22.00 93.98 22.54 82.59 M 32.17 88.09 C 32.14 90.30 32.17 92.50 32.28 94.71 C 36.67 94.55 41.25 94.95 45.45 93.42 C 47.74 92.45 47.48 88.23 44.89 87.89 C 40.68 87.33 36.38 87.52 32.17 88.09 M 32.50 99.71 C 32.24 102.11 32.16 104.52 32.21 106.93 C 36.98 106.65 41.92 106.26 46.34 104.32 C 48.23 103.50 48.20 100.64 46.56 99.58 C 41.90 98.97 37.18 99.68 32.50 99.71 Z" />
<path fill="#ff8a1f" opacity="1.00" d=" M 68.47 82.75 C 75.66 82.59 84.86 80.61 90.14 86.88 C 94.91 93.90 93.77 106.84 84.46 109.47 C 78.84 110.49 72.96 110.53 67.34 109.53 C 54.99 106.53 55.48 84.37 68.47 82.75 M 71.38 90.51 C 67.55 92.35 67.66 98.78 70.37 101.65 C 73.68 102.65 77.37 102.45 80.73 101.78 C 83.66 99.28 83.33 93.85 81.09 90.95 C 78.01 89.89 74.59 90.32 71.38 90.51 Z" />
<path fill="#ff8a1f" opacity="1.00" d=" M 105.41 82.61 C 110.03 82.27 114.70 82.22 119.30 82.82 C 131.83 85.03 132.16 106.96 119.71 109.61 C 114.14 110.43 108.32 110.54 102.80 109.34 C 90.25 105.87 91.81 83.08 105.41 82.61 M 107.40 90.55 C 103.60 91.84 103.90 97.59 105.34 100.57 C 108.25 103.29 113.09 102.28 116.68 101.69 C 119.52 99.11 119.28 93.83 116.98 90.97 C 113.95 89.88 110.55 90.24 107.40 90.55 Z" />
<path fill="#ff8a1f" opacity="1.00" d=" M 158.75 84.73 C 161.49 80.94 166.65 82.82 170.58 82.52 C 171.07 94.03 170.73 105.56 170.76 117.08 C 167.36 116.80 163.98 116.25 160.75 115.14 C 160.63 108.98 160.88 102.82 160.50 96.67 C 157.08 100.18 154.19 104.16 150.91 107.80 C 147.42 104.31 144.60 100.23 141.16 96.69 C 141.05 101.58 141.18 106.46 140.90 111.34 C 137.68 110.63 133.74 111.02 131.12 108.88 C 130.61 100.17 131.04 91.43 130.99 82.70 C 134.82 82.42 139.56 81.32 142.51 84.52 C 145.47 87.57 147.86 91.12 150.85 94.14 C 153.65 91.14 156.10 87.85 158.75 84.73 Z" />
<path fill="#ff8a1f" opacity="1.00" d=" M 25.41 122.50 C 28.64 120.91 32.90 123.39 33.10 126.99 C 33.62 133.94 32.92 140.92 33.40 147.87 C 34.11 153.91 39.94 158.70 46.00 158.33 C 79.67 158.33 113.33 158.33 146.99 158.31 C 153.03 158.64 158.77 153.84 159.50 147.84 C 160.12 140.60 159.19 133.28 159.94 126.05 C 161.07 120.66 169.74 120.85 170.64 126.28 C 171.13 133.19 170.81 140.15 170.79 147.07 C 170.61 159.00 159.96 169.45 148.06 169.51 C 113.69 169.58 79.31 169.56 44.94 169.51 C 33.37 169.47 22.90 159.67 22.18 148.10 C 21.90 141.38 22.04 134.63 22.08 127.90 C 21.97 125.62 23.29 123.38 25.41 122.50 Z" />
</g>
</svg>
