<?xml version="1.0" encoding="UTF-8" ?>
<!DOCTYPE svg PUBLIC "-//W3C//DTD SVG 1.1//EN" "http://www.w3.org/Graphics/SVG/1.1/DTD/svg11.dtd">
<svg width="192pt" height="192pt" viewBox="0 0 192 192" version="1.1" xmlns="http://www.w3.org/2000/svg">
<g id="#ff3663ff">
<path fill="#ff3663" opacity="1.00" d=" M 82.11 23.03 C 88.13 13.34 103.88 13.44 109.85 23.14 C 115.93 34.61 121.11 46.55 126.99 58.13 C 139.93 60.20 152.98 61.71 165.86 64.11 C 177.38 66.79 181.90 83.01 173.10 91.07 C 164.12 100.12 155.01 109.04 146.05 118.12 C 147.99 131.45 150.77 144.66 152.46 158.02 C 152.99 169.34 139.90 178.00 129.64 173.32 C 118.27 167.63 107.22 161.31 95.97 155.38 C 84.66 161.26 73.62 167.67 62.20 173.33 C 51.59 178.16 38.23 168.69 39.49 157.06 C 41.39 144.07 43.86 131.16 45.86 118.18 C 37.11 109.25 28.17 100.50 19.34 91.64 C 10.26 83.94 13.89 67.57 25.31 64.34 C 38.39 61.64 51.75 60.31 64.94 58.12 C 70.79 46.49 76.00 34.53 82.11 23.03 M 93.41 27.58 C 91.66 28.47 90.89 30.38 90.04 32.03 C 85.23 42.18 80.30 52.28 75.44 62.41 C 73.81 66.15 70.23 68.88 66.16 69.35 C 54.08 71.21 41.96 72.87 29.89 74.79 C 26.00 75.03 23.85 80.45 26.85 83.10 C 35.58 92.05 44.56 100.77 53.36 109.65 C 56.12 112.30 57.70 116.24 56.99 120.07 C 55.04 132.40 52.84 144.69 50.85 157.02 C 49.69 161.25 55.02 164.81 58.63 162.55 C 69.30 156.99 79.81 151.11 90.45 145.51 C 93.81 143.64 98.05 143.66 101.41 145.51 C 112.09 151.12 122.62 157.02 133.33 162.58 C 136.98 164.78 142.22 161.22 141.02 156.98 C 139.07 144.64 136.82 132.35 134.90 120.00 C 134.26 116.41 135.52 112.65 138.10 110.09 C 147.03 101.05 156.16 92.18 165.05 83.10 C 168.01 80.44 165.92 75.16 162.10 74.83 C 150.04 72.88 137.92 71.24 125.84 69.37 C 122.03 68.92 118.52 66.57 116.84 63.09 C 111.40 52.13 106.27 41.01 100.82 30.06 C 99.61 27.24 96.07 26.41 93.41 27.58 Z" />
</g>
</svg>
