<?xml version="1.0" encoding="UTF-8" ?>
<!DOCTYPE svg PUBLIC "-//W3C//DTD SVG 1.1//EN" "http://www.w3.org/Graphics/SVG/1.1/DTD/svg11.dtd">
<svg width="192pt" height="192pt" viewBox="0 0 192 192" version="1.1" xmlns="http://www.w3.org/2000/svg">
<g id="#607080ff">
<path fill="#607080" opacity="1.00" d=" M 48.93 31.97 C 49.00 23.63 56.68 16.39 65.01 16.74 C 85.66 16.74 106.32 16.71 126.98 16.75 C 135.16 16.57 142.70 23.72 142.76 31.93 C 142.89 45.59 142.75 59.24 142.82 72.90 C 148.91 73.14 155.00 72.85 161.09 73.06 C 168.67 73.32 175.17 80.36 174.85 87.95 C 174.88 111.65 174.91 135.36 174.83 159.06 C 175.02 166.93 167.88 173.84 160.05 173.57 C 117.35 173.60 74.65 173.58 31.94 173.56 C 24.10 173.87 16.96 166.93 17.07 159.08 C 17.10 134.71 16.87 110.32 17.20 85.96 C 18.00 75.30 30.99 70.12 39.95 74.06 C 43.51 76.38 42.92 82.35 38.92 83.85 C 35.66 85.38 29.66 82.44 28.48 87.13 C 28.19 110.75 28.41 134.39 28.37 158.02 C 27.91 160.73 30.39 162.73 32.98 162.26 C 74.99 162.26 117.01 162.26 159.01 162.24 C 161.63 162.76 163.92 160.65 163.54 158.00 C 163.57 134.98 163.56 111.95 163.55 88.93 C 163.77 87.03 162.89 84.57 160.69 84.46 C 154.74 84.24 148.77 84.30 142.81 84.49 C 141.93 88.18 140.35 91.86 137.31 94.29 C 124.91 104.57 112.44 114.79 100.02 125.05 C 97.82 127.21 94.09 127.34 91.85 125.17 C 79.58 115.10 67.35 104.98 55.09 94.90 C 51.18 91.83 48.77 86.99 48.86 82.01 C 48.90 65.33 48.77 48.65 48.93 31.97 M 60.24 32.96 C 60.16 49.32 60.16 65.68 60.24 82.03 C 60.01 84.15 61.58 85.66 63.08 86.87 C 74.03 95.80 84.88 104.85 95.82 113.78 C 106.64 104.97 117.34 96.02 128.16 87.21 C 129.76 85.88 131.71 84.35 131.47 82.01 C 131.53 65.67 131.53 49.33 131.48 32.99 C 131.63 30.53 129.67 27.91 127.02 28.20 C 106.34 28.13 85.66 28.17 64.98 28.19 C 62.24 27.79 59.94 30.29 60.24 32.96 Z" />
<path fill="#607080" opacity="1.00" d=" M 77.86 42.84 C 82.52 40.84 91.51 43.26 90.51 49.44 C 84.94 49.61 79.22 50.17 73.72 49.29 C 70.56 46.79 75.45 43.68 77.86 42.84 Z" />
<path fill="#607080" opacity="1.00" d=" M 107.86 42.84 C 112.51 40.83 121.51 43.25 120.51 49.43 C 114.93 49.64 109.22 50.14 103.71 49.31 C 100.57 46.74 105.44 43.70 107.86 42.84 Z" />
<path fill="#607080" opacity="1.00" d=" M 81.36 73.38 C 89.55 75.16 98.11 77.03 106.40 74.50 C 108.74 74.12 113.54 71.76 113.76 75.80 C 109.45 88.13 91.13 91.24 82.89 81.10 C 81.21 79.18 77.37 74.81 81.36 73.38 Z" />
</g>
</svg>
