<?xml version="1.0" encoding="UTF-8" ?>
<!DOCTYPE svg PUBLIC "-//W3C//DTD SVG 1.1//EN" "http://www.w3.org/Graphics/SVG/1.1/DTD/svg11.dtd">
<svg width="192pt" height="192pt" viewBox="0 0 192 192" version="1.1" xmlns="http://www.w3.org/2000/svg">
<g id="#ff3663ff">
<path fill="#ff3663" opacity="1.00" d=" M 103.15 13.67 C 113.55 18.39 123.40 24.24 133.75 29.09 C 135.74 30.30 139.04 31.07 138.94 33.96 C 139.70 45.93 139.87 57.94 140.36 69.92 C 140.33 71.68 141.43 73.16 142.84 74.10 C 153.18 81.19 164.54 86.94 174.37 94.68 C 174.53 107.06 173.59 119.66 172.06 131.99 C 167.24 123.31 167.19 112.83 163.21 103.82 C 153.45 98.84 143.48 93.83 133.10 90.27 C 125.18 94.99 118.56 101.69 110.92 106.89 C 108.35 105.48 105.86 103.95 103.50 102.22 C 105.96 97.76 108.79 93.52 111.28 89.08 C 106.34 89.12 101.41 89.50 96.47 89.47 C 96.47 86.72 95.25 83.17 96.90 80.89 C 104.91 76.99 113.41 74.13 121.57 70.54 C 123.04 59.41 124.33 48.26 125.45 37.09 C 118.15 29.18 109.21 22.63 103.15 13.67 Z" />
<path fill="#ff3663" opacity="1.00" d=" M 52.68 29.86 C 63.34 24.86 73.68 19.09 84.66 14.83 C 79.27 23.78 69.81 29.37 63.62 37.64 C 64.45 48.68 65.70 59.78 67.24 70.78 C 75.85 73.94 84.30 77.52 92.73 81.13 C 92.84 83.93 92.82 86.73 92.62 89.53 C 87.45 89.51 82.29 89.13 77.12 89.18 C 79.41 94.01 82.64 98.27 85.43 102.80 C 83.06 104.29 80.72 105.96 77.99 106.73 C 70.58 102.49 64.46 96.34 57.58 91.33 C 55.01 89.52 51.98 91.67 49.42 92.50 C 41.67 96.12 33.64 99.20 26.01 103.04 C 21.75 112.85 20.97 123.98 16.79 133.88 C 15.10 123.02 15.27 111.98 14.36 101.04 C 14.37 98.12 13.31 94.21 16.38 92.39 C 26.02 85.98 35.94 79.98 45.61 73.60 C 47.33 72.60 48.54 70.90 48.46 68.86 C 48.99 58.25 49.54 47.64 49.80 37.03 C 49.99 34.45 49.63 30.87 52.68 29.86 Z" />
<path fill="#ff3663" opacity="1.00" d=" M 91.06 55.09 C 94.65 52.41 98.59 55.29 101.72 57.22 C 107.28 60.83 113.35 63.63 118.75 67.48 C 118.07 70.62 113.70 71.33 111.03 72.28 C 104.45 73.74 100.19 66.82 94.16 66.19 C 89.47 67.79 85.62 71.20 81.16 73.34 C 77.26 71.76 73.32 70.22 69.68 68.08 C 75.83 62.36 84.07 59.62 91.06 55.09 Z" />
<path fill="#ff3663" opacity="1.00" d=" M 55.50 121.65 C 55.06 111.88 54.96 102.00 55.54 92.22 C 58.87 94.63 62.55 96.75 65.24 99.91 C 66.90 104.88 64.63 110.54 66.47 115.48 C 70.28 118.55 75.20 119.96 78.84 123.25 C 80.23 127.50 80.40 132.06 80.59 136.50 C 72.10 131.85 63.13 127.56 55.50 121.65 Z" />
<path fill="#ff3663" opacity="1.00" d=" M 122.77 99.91 C 125.95 97.21 129.24 94.55 133.18 93.01 C 133.50 102.63 133.72 112.32 133.12 121.92 C 125.36 127.46 116.74 131.91 108.27 136.33 C 108.28 131.82 108.39 127.18 109.88 122.89 C 113.40 119.43 118.65 118.47 122.53 115.45 C 123.30 110.32 122.53 105.08 122.77 99.91 Z" />
<path fill="#ff3663" opacity="1.00" d=" M 79.92 108.97 C 81.06 106.48 84.54 106.03 86.96 105.19 C 89.84 109.34 91.38 114.28 94.32 118.41 C 96.89 113.98 99.10 109.35 101.51 104.83 C 104.13 106.11 106.67 107.53 109.19 108.99 C 108.52 118.28 106.69 127.44 105.95 136.73 C 114.48 142.93 122.62 149.78 131.46 155.51 C 141.78 154.50 151.72 149.08 162.32 149.57 C 154.49 156.55 145.11 161.51 136.64 167.67 C 134.21 169.01 131.62 172.08 128.62 170.43 C 117.75 165.04 107.12 159.14 96.29 153.68 C 94.67 152.54 92.92 153.78 91.41 154.45 C 80.57 160.19 69.69 165.87 58.79 171.49 C 47.61 163.81 35.32 157.36 25.39 148.08 C 35.31 149.56 44.77 153.07 54.47 155.47 C 56.71 156.24 58.53 154.39 60.23 153.26 C 67.81 147.41 75.58 141.83 83.08 135.90 C 82.35 126.89 80.23 118.01 79.92 108.97 Z" />
</g>
</svg>
