<?xml version="1.0" encoding="UTF-8" ?>
<!DOCTYPE svg PUBLIC "-//W3C//DTD SVG 1.1//EN" "http://www.w3.org/Graphics/SVG/1.1/DTD/svg11.dtd">
<svg width="192pt" height="192pt" viewBox="0 0 192 192" version="1.1" xmlns="http://www.w3.org/2000/svg">
<g id="#4970c2ff">
<path fill="#4970c2" opacity="1.00" d=" M 13.74 38.23 C 10.33 34.85 13.06 28.37 17.95 28.75 C 36.31 28.61 54.68 28.69 73.05 28.71 C 75.56 28.46 77.62 30.04 79.06 31.93 C 83.94 37.94 88.96 43.85 93.71 49.97 C 98.23 45.34 101.99 40.05 106.18 35.13 C 108.56 32.40 110.72 28.29 114.97 28.69 C 133.32 28.69 151.68 28.55 170.02 28.75 C 174.86 28.39 177.64 34.84 174.26 38.21 C 164.49 50.11 154.83 62.13 144.91 73.90 C 140.78 78.66 132.72 72.46 136.07 67.25 C 143.08 57.98 150.82 49.25 158.01 40.11 C 144.16 40.26 130.31 39.99 116.47 40.25 C 111.54 46.58 106.34 52.71 101.26 58.92 C 103.42 61.74 105.90 64.31 107.84 67.29 C 109.97 70.70 107.06 75.74 103.01 75.51 C 98.57 75.45 96.65 70.65 93.93 67.88 C 91.70 70.40 90.01 73.60 86.97 75.23 C 82.66 76.98 77.93 72.16 79.74 67.93 C 81.58 64.61 84.38 61.96 86.64 58.94 C 81.70 52.99 76.91 46.93 71.93 41.02 C 70.77 39.52 68.67 39.95 67.03 39.82 C 54.60 39.91 42.16 39.78 29.73 39.87 C 36.84 49.21 44.77 57.92 51.82 67.29 C 55.16 72.47 47.21 78.51 43.10 73.93 C 33.15 62.18 23.51 50.13 13.74 38.23 Z" />
<path fill="#4970c2" opacity="1.00" d=" M 52.17 80.39 C 55.16 80.84 60.13 78.69 61.24 82.67 C 64.46 90.95 68.13 99.08 70.90 107.52 C 67.79 107.69 64.67 107.69 61.55 107.61 C 60.79 106.27 60.04 104.93 59.29 103.59 C 56.90 103.60 54.52 103.61 52.13 103.64 C 50.85 109.41 44.66 107.50 40.35 107.45 C 44.10 98.35 48.09 89.34 52.17 80.39 M 55.17 94.67 C 54.19 95.56 54.22 97.88 55.86 97.97 C 58.06 97.90 57.13 93.49 55.17 94.67 Z" />
<path fill="#4970c2" opacity="1.00" d=" M 102.97 80.50 C 108.84 80.49 114.72 80.46 120.60 80.53 C 120.67 82.44 120.72 84.36 120.76 86.27 C 117.89 86.41 115.01 86.40 112.14 86.40 C 112.13 87.89 112.13 89.37 112.13 90.86 C 114.98 90.93 117.84 90.94 120.70 91.08 C 120.72 92.91 120.82 94.75 120.63 96.58 C 118.09 97.81 114.93 96.92 112.14 97.12 C 112.15 100.52 112.07 103.91 111.85 107.30 C 108.86 107.36 105.86 107.34 102.87 107.22 C 102.78 98.31 102.62 89.40 102.97 80.50 Z" />
<path fill="#4970c2" opacity="1.00" d=" M 165.64 80.50 C 168.77 80.42 171.90 80.42 175.04 80.52 C 172.01 85.18 168.45 89.46 165.25 94.00 C 168.39 98.50 171.84 102.78 175.00 107.28 C 171.31 107.43 167.62 107.39 163.94 107.31 C 162.27 105.24 160.65 103.12 159.02 101.02 C 157.42 103.15 155.80 105.27 154.13 107.35 C 148.87 107.31 143.61 107.50 138.36 107.22 C 137.33 102.46 132.56 103.24 128.81 103.51 C 127.49 108.97 121.55 107.22 117.39 107.15 C 121.07 98.22 125.08 89.44 128.97 80.60 C 131.62 80.47 134.28 80.49 136.93 80.59 C 140.21 88.30 143.06 96.18 146.37 103.88 C 149.03 100.68 151.51 97.34 153.96 93.98 C 150.81 89.44 147.31 85.15 144.22 80.58 C 147.48 80.49 150.76 80.24 154.02 80.61 C 156.93 81.50 157.66 85.51 160.40 86.60 C 162.26 84.67 163.87 82.52 165.64 80.50 M 132.48 93.59 C 131.95 95.03 131.45 96.49 130.98 97.96 C 131.82 97.92 133.49 97.84 134.33 97.80 C 133.76 96.37 133.12 94.98 132.48 93.59 Z" />
<path fill="#4970c2" opacity="1.00" d=" M 13.06 80.56 C 16.01 80.53 18.96 80.50 21.91 80.58 C 22.08 83.69 22.10 86.81 22.16 89.93 C 25.08 90.04 28.00 90.06 30.92 90.01 C 31.05 86.88 31.05 83.74 31.08 80.61 C 34.05 80.53 37.01 80.50 39.98 80.58 C 40.33 89.47 40.18 98.38 40.09 107.27 C 37.10 107.36 34.10 107.34 31.10 107.20 C 31.04 103.95 30.98 100.71 30.79 97.46 C 27.93 97.44 25.06 97.44 22.20 97.47 C 22.11 100.73 22.10 104.00 22.09 107.27 C 19.08 107.34 16.07 107.33 13.06 107.27 C 13.04 98.36 13.06 89.46 13.06 80.56 Z" />
<path fill="#4970c2" opacity="1.00" d=" M 71.87 80.56 C 74.84 80.46 77.82 80.46 80.79 80.57 C 80.92 87.34 80.74 94.11 80.93 100.87 C 83.76 100.97 86.59 101.02 89.41 101.09 C 89.47 103.17 89.51 105.25 89.53 107.33 C 83.62 107.34 77.71 107.40 71.80 107.25 C 71.82 98.36 71.74 89.46 71.87 80.56 Z" />
<path fill="#4970c2" opacity="1.00" d=" M 90.65 80.59 C 93.68 80.51 96.72 80.51 99.75 80.64 C 99.82 89.52 99.87 98.39 99.74 107.27 C 96.66 107.36 93.59 107.34 90.52 107.29 C 90.43 98.39 90.57 89.49 90.65 80.59 Z" />
<path fill="#4970c2" opacity="1.00" d=" M 41.88 113.81 C 45.98 108.99 54.26 115.37 50.58 120.57 C 43.92 129.31 36.61 137.56 29.81 146.21 C 43.55 146.35 57.29 146.23 71.03 146.25 C 76.29 139.97 81.47 133.62 86.62 127.25 C 84.70 124.81 82.44 122.59 80.94 119.85 C 79.33 116.43 82.24 112.03 86.00 112.13 C 89.80 112.04 91.66 115.89 93.94 118.27 C 96.24 115.88 98.14 111.94 101.98 112.13 C 105.68 112.13 108.58 116.47 106.99 119.85 C 105.49 122.59 103.23 124.80 101.29 127.22 C 106.42 133.62 111.59 139.99 116.90 146.24 C 130.62 146.19 144.34 146.27 158.06 146.18 C 151.23 137.58 143.97 129.32 137.33 120.59 C 133.58 115.28 141.98 108.89 146.11 113.85 C 155.75 125.25 165.16 136.88 174.57 148.48 C 177.60 151.90 174.61 157.98 170.02 157.55 C 152.01 157.68 134.00 157.53 115.99 157.60 C 113.68 157.68 111.11 157.39 109.66 155.36 C 104.35 149.05 99.27 142.55 93.92 136.28 C 88.67 142.58 83.55 149.00 78.29 155.30 C 76.85 157.33 74.32 157.70 72.01 157.59 C 54.00 157.51 35.99 157.63 17.99 157.51 C 13.39 157.96 10.34 151.89 13.39 148.45 C 22.83 136.87 32.20 125.20 41.88 113.81 Z" />
</g>
</svg>
