<?xml version="1.0" encoding="UTF-8" ?>
<!DOCTYPE svg PUBLIC "-//W3C//DTD SVG 1.1//EN" "http://www.w3.org/Graphics/SVG/1.1/DTD/svg11.dtd">
<svg width="192pt" height="192pt" viewBox="0 0 192 192" version="1.1" xmlns="http://www.w3.org/2000/svg">
<g id="#2bbba3ff">
<path fill="#2bbba3" opacity="1.00" d=" M 84.42 13.53 C 105.81 10.46 128.32 16.34 145.47 29.50 C 169.75 47.74 182.36 80.21 176.18 110.02 C 170.50 140.02 146.46 165.16 117.18 173.26 C 103.53 177.54 89.10 176.44 75.00 176.56 C 58.00 176.53 40.99 176.60 23.99 176.52 C 20.17 176.91 16.88 172.73 18.16 169.12 C 21.22 161.77 27.59 155.76 28.53 147.60 C 29.26 139.89 23.28 134.08 20.80 127.27 C 8.66 100.00 13.38 66.32 32.22 43.23 C 45.07 27.25 64.10 16.38 84.42 13.53 M 50.54 40.58 C 24.70 61.57 17.73 101.51 35.06 129.97 C 42.31 140.42 41.40 154.87 33.80 164.88 C 54.20 165.13 74.61 164.97 95.01 164.97 C 118.07 164.71 140.68 152.82 153.74 133.78 C 173.77 106.36 168.57 65.05 143.37 42.63 C 118.66 18.82 76.31 18.01 50.54 40.58 Z" />
<path fill="#2bbba3" opacity="1.00" d=" M 56.77 73.97 C 56.44 70.90 58.76 67.74 61.98 67.71 C 69.31 67.48 76.67 67.61 84.02 67.65 C 87.00 67.44 89.92 69.91 89.82 72.98 C 89.98 82.00 89.89 91.03 89.87 100.05 C 89.89 109.66 83.74 119.26 74.71 122.73 C 69.18 124.62 65.12 116.19 70.01 113.09 C 74.56 110.58 78.05 106.39 78.88 101.16 C 73.03 100.40 67.13 101.17 61.27 100.67 C 58.53 100.44 56.73 97.62 56.81 95.03 C 56.66 88.01 56.76 80.99 56.77 73.97 M 67.88 78.72 C 67.79 82.37 67.81 86.03 67.90 89.69 C 71.53 89.73 75.16 89.75 78.79 89.74 C 78.81 86.07 78.81 82.40 78.73 78.73 C 75.11 78.72 71.50 78.69 67.88 78.72 Z" />
<path fill="#2bbba3" opacity="1.00" d=" M 100.96 72.96 C 100.89 69.79 103.93 67.34 106.99 67.63 C 114.32 67.62 121.67 67.45 129.00 67.71 C 132.15 67.78 134.27 70.97 134.05 73.94 C 134.13 82.64 134.14 91.35 134.05 100.05 C 133.94 109.69 127.85 119.35 118.72 122.76 C 113.23 124.58 109.27 116.23 114.04 113.14 C 118.60 110.59 122.17 106.42 122.95 101.13 C 117.34 100.52 111.69 101.08 106.07 100.76 C 103.09 100.79 100.71 97.96 100.90 95.06 C 100.85 87.70 100.75 80.32 100.96 72.96 M 112.16 78.72 C 112.09 82.38 112.08 86.05 112.10 89.71 C 115.71 89.72 119.33 89.73 122.94 89.73 C 122.98 86.06 122.95 82.39 122.82 78.73 C 119.26 78.72 115.71 78.72 112.16 78.72 Z" />
</g>
</svg>
