<?xml version="1.0" encoding="UTF-8" ?>
<!DOCTYPE svg PUBLIC "-//W3C//DTD SVG 1.1//EN" "http://www.w3.org/Graphics/SVG/1.1/DTD/svg11.dtd">
<svg width="192pt" height="192pt" viewBox="0 0 192 192" version="1.1" xmlns="http://www.w3.org/2000/svg">
<g id="#ff517dff">
<path fill="#ff517d" opacity="1.00" d=" M 22.84 56.93 C 36.45 31.04 64.78 13.90 94.01 13.74 C 124.73 12.83 154.96 30.84 168.80 58.27 C 180.56 80.73 180.84 108.73 169.58 131.44 C 158.23 154.97 135.03 172.27 109.23 176.41 C 85.34 180.53 59.76 173.50 41.54 157.47 C 38.26 154.98 39.21 149.19 43.14 147.93 C 45.94 146.72 48.59 148.60 50.61 150.37 C 68.69 165.44 94.57 170.16 116.92 162.97 C 145.56 154.40 166.81 126.13 166.55 96.14 C 153.69 102.17 136.93 97.75 129.39 85.52 C 125.95 85.87 122.47 86.02 119.04 85.49 C 116.14 93.15 109.99 99.92 101.84 101.92 C 93.79 104.15 85.27 101.35 78.79 96.44 C 68.10 101.68 53.92 99.89 45.97 90.69 C 37.30 99.12 32.61 110.45 28.55 121.61 C 26.91 126.46 19.06 126.47 17.44 121.60 C 10.17 100.55 12.27 76.50 22.84 56.93 M 39.76 51.77 C 28.92 65.20 23.48 82.73 24.54 99.94 C 29.04 93.00 33.91 86.18 40.03 80.56 C 33.69 64.53 45.97 44.99 63.03 43.52 C 67.86 42.63 71.31 49.42 67.71 52.74 C 64.83 55.03 60.83 54.90 57.69 56.72 C 48.63 61.49 47.17 75.57 54.48 82.50 C 59.29 87.49 67.37 88.21 73.51 85.50 C 76.43 83.85 80.13 80.69 83.37 83.52 C 86.45 86.93 90.04 90.44 94.98 90.45 C 104.42 91.59 111.46 79.89 106.98 71.82 C 104.87 68.48 107.94 63.68 111.91 64.83 C 116.19 66.76 117.41 72.50 122.14 73.97 C 126.36 75.57 129.94 71.69 133.99 71.55 C 137.02 71.77 137.84 74.98 138.84 77.28 C 142.62 87.46 158.16 89.82 165.20 82.07 C 159.66 50.52 130.00 25.45 97.99 25.11 C 75.76 23.90 53.49 34.34 39.76 51.77 Z" />
<path fill="#ff517d" opacity="1.00" d=" M 140.41 106.36 C 144.64 104.16 150.83 105.73 152.76 110.30 C 154.78 114.84 153.31 121.39 148.41 123.41 C 144.01 124.50 138.11 123.33 136.10 118.80 C 134.44 114.40 136.15 108.63 140.41 106.36 Z" />
<path fill="#ff517d" opacity="1.00" d=" M 47.27 120.26 C 53.93 117.75 61.47 124.83 59.46 131.63 C 57.93 138.53 48.03 140.79 43.40 135.61 C 38.59 131.01 41.01 122.17 47.27 120.26 Z" />
<path fill="#ff517d" opacity="1.00" d=" M 96.49 120.67 C 104.66 120.56 116.15 117.11 121.30 125.62 C 126.82 138.29 115.70 152.39 103.00 154.30 C 89.52 157.10 73.68 145.78 75.36 131.31 C 77.63 122.15 88.79 121.51 96.49 120.67 M 80.11 137.48 C 80.70 141.79 84.20 145.03 87.54 147.49 C 99.01 155.46 117.79 147.46 118.93 133.22 C 106.30 128.98 91.67 130.95 80.11 137.48 Z" />
</g>
</svg>
