<?xml version="1.0" encoding="UTF-8" ?>
<!DOCTYPE svg PUBLIC "-//W3C//DTD SVG 1.1//EN" "http://www.w3.org/Graphics/SVG/1.1/DTD/svg11.dtd">
<svg width="192pt" height="192pt" viewBox="0 0 192 192" version="1.1" xmlns="http://www.w3.org/2000/svg">
<g id="#1ab0ffff">
<path fill="#1ab0ff" opacity="1.00" d=" M 64.42 20.16 C 65.32 14.31 74.69 14.57 75.38 20.40 C 75.73 35.01 75.40 49.64 75.54 64.25 C 89.26 64.18 103.00 64.50 116.71 64.07 C 116.68 49.39 116.45 34.68 116.82 20.01 C 117.84 14.40 126.85 14.52 127.70 20.12 C 128.05 34.81 127.71 49.52 127.87 64.22 C 142.47 64.41 157.09 64.00 171.67 64.40 C 177.76 65.32 177.24 75.31 171.02 75.46 C 156.73 75.63 142.43 75.54 128.14 75.48 C 127.62 89.16 127.75 102.90 128.09 116.58 C 142.70 116.75 157.34 116.23 171.93 116.83 C 177.87 118.07 177.10 127.77 170.95 127.90 C 156.61 128.39 142.23 127.92 127.88 128.13 C 127.77 142.73 128.02 157.34 127.78 171.94 C 127.41 178.16 117.21 178.21 116.74 172.00 C 116.47 157.38 116.72 142.75 116.62 128.12 C 102.92 127.79 89.18 127.67 75.49 128.17 C 75.51 142.77 75.68 157.39 75.42 171.99 C 74.92 178.25 64.74 178.11 64.33 171.89 C 64.06 157.24 64.35 142.57 64.20 127.92 C 49.23 127.68 34.23 128.16 19.27 127.67 C 13.49 126.51 14.08 117.07 20.01 116.73 C 34.67 116.47 49.36 116.60 64.04 116.66 C 64.36 102.94 64.43 89.16 64.01 75.44 C 49.34 75.54 34.67 75.62 20.01 75.40 C 14.04 75.08 13.52 65.53 19.35 64.46 C 34.29 64.04 49.27 64.44 64.23 64.25 C 64.39 49.56 64.03 34.84 64.42 20.16 M 75.53 75.53 C 75.52 89.19 75.55 102.86 75.52 116.52 C 89.22 116.67 102.92 116.55 116.61 116.58 C 116.63 102.90 116.70 89.21 116.57 75.53 C 102.89 75.54 89.21 75.52 75.53 75.53 Z" />
</g>
</svg>
