<?xml version="1.0" encoding="UTF-8" ?>
<!DOCTYPE svg PUBLIC "-//W3C//DTD SVG 1.1//EN" "http://www.w3.org/Graphics/SVG/1.1/DTD/svg11.dtd">
<svg width="192pt" height="192pt" viewBox="0 0 192 192" version="1.1" xmlns="http://www.w3.org/2000/svg">
<g id="#8c7392ff">
<path fill="#8c7392" opacity="1.00" d=" M 79.38 15.47 C 85.35 14.45 88.66 23.31 83.50 26.45 C 69.24 34.92 54.87 43.26 40.42 51.41 C 33.99 55.05 28.38 44.21 34.80 40.81 C 49.67 32.42 64.11 23.00 79.38 15.47 Z" />
<path fill="#8c7392" opacity="1.00" d=" M 109.23 15.47 C 111.69 15.41 113.76 17.02 115.84 18.12 C 129.02 25.98 142.52 33.33 155.58 41.38 C 160.79 45.25 155.56 54.33 149.55 51.51 C 135.03 43.47 120.73 34.97 106.41 26.57 C 101.46 23.89 103.66 15.56 109.23 15.47 Z" />
<path fill="#8c7392" opacity="1.00" d=" M 87.33 56.42 C 103.09 53.12 120.18 60.76 128.56 74.43 C 137.08 87.60 136.70 105.79 127.62 118.59 C 120.19 129.37 107.20 136.39 93.99 135.67 C 73.05 136.12 54.42 116.84 55.06 96.00 C 54.37 77.29 68.96 59.66 87.33 56.42 M 89.37 67.47 C 75.75 69.83 65.19 83.25 66.20 97.06 C 66.33 113.10 82.05 126.64 97.95 124.41 C 113.87 123.11 126.25 106.67 123.13 90.99 C 120.91 75.52 104.72 64.15 89.37 67.47 Z" />
<path fill="#8c7392" opacity="1.00" d=" M 21.20 66.13 C 25.04 64.47 29.80 67.79 29.42 72.01 C 29.46 88.34 29.60 104.68 29.37 121.00 C 29.19 127.66 18.45 128.19 17.58 121.62 C 17.17 105.41 17.56 89.17 17.43 72.95 C 17.17 70.16 18.47 67.19 21.20 66.13 Z" />
<path fill="#8c7392" opacity="1.00" d=" M 163.38 66.46 C 167.25 64.12 172.59 67.53 172.23 72.00 C 172.30 88.33 172.46 104.68 172.17 121.01 C 171.99 127.60 161.35 128.22 160.37 121.73 C 159.88 105.83 160.38 89.89 160.19 73.98 C 160.00 71.15 160.55 67.82 163.38 66.46 Z" />
<path fill="#8c7392" opacity="1.00" d=" M 36.20 140.26 C 38.94 139.09 41.68 140.66 43.98 142.05 C 57.17 149.88 70.66 157.25 83.75 165.25 C 89.20 168.86 84.37 178.39 78.21 175.85 C 63.88 167.97 49.87 159.47 35.69 151.29 C 31.16 149.19 31.50 141.92 36.20 140.26 Z" />
<path fill="#8c7392" opacity="1.00" d=" M 148.40 140.55 C 154.77 136.64 160.84 147.01 154.71 150.82 C 140.45 159.21 126.19 167.64 111.72 175.65 C 105.53 178.73 100.25 168.63 106.12 165.13 C 120.10 156.77 134.26 148.66 148.40 140.55 Z" />
</g>
</svg>
