<?xml version="1.0" encoding="UTF-8" ?>
<!DOCTYPE svg PUBLIC "-//W3C//DTD SVG 1.1//EN" "http://www.w3.org/Graphics/SVG/1.1/DTD/svg11.dtd">
<svg width="192pt" height="192pt" viewBox="0 0 192 192" version="1.1" xmlns="http://www.w3.org/2000/svg">
<g id="#ff3660ff">
<path fill="#ff3660" opacity="1.00" d=" M 19.91 47.93 C 29.73 26.72 57.33 16.48 78.48 26.51 C 82.31 29.10 80.68 35.86 75.99 36.28 C 71.58 36.00 67.47 33.77 62.98 33.75 C 46.30 32.00 30.08 44.55 26.81 60.85 C 23.49 78.89 31.01 97.01 41.77 111.19 C 56.22 130.08 75.45 144.83 95.93 156.66 C 112.19 147.30 127.44 136.03 140.47 122.49 C 153.83 108.54 165.13 90.91 165.86 71.07 C 166.81 57.84 159.77 44.27 148.05 37.91 C 135.76 30.95 119.43 32.76 108.59 41.66 C 100.90 47.67 96.26 56.45 91.93 64.97 C 88.01 71.23 78.71 63.88 83.20 58.27 C 88.48 47.02 95.94 36.30 106.66 29.65 C 120.16 21.26 138.17 20.29 152.28 27.75 C 165.52 34.57 174.83 48.29 176.48 63.07 C 178.63 83.57 170.01 103.66 157.52 119.50 C 141.96 139.18 121.64 154.65 99.91 166.95 C 97.73 168.41 94.92 168.86 92.65 167.30 C 76.50 158.47 61.51 147.51 48.20 134.79 C 35.19 122.14 23.74 107.17 18.27 89.65 C 14.13 76.15 13.43 60.84 19.91 47.93 Z" />
<path fill="#ff3660" opacity="1.00" d=" M 91.28 90.31 C 92.89 86.50 99.01 86.70 100.35 90.62 C 101.04 94.04 100.64 97.57 100.69 101.03 C 104.27 101.14 107.99 100.58 111.47 101.58 C 115.39 103.24 114.99 109.61 110.90 110.77 C 107.53 111.26 104.10 111.02 100.70 111.04 C 100.63 114.52 101.06 118.09 100.35 121.52 C 98.97 125.49 92.79 125.64 91.22 121.75 C 90.37 118.25 90.85 114.58 90.77 111.02 C 87.28 110.97 83.73 111.39 80.30 110.66 C 76.25 109.24 76.32 102.80 80.38 101.46 C 83.78 100.71 87.31 101.09 90.77 101.05 C 90.87 97.48 90.32 93.78 91.28 90.31 Z" />
</g>
</svg>
