<?xml version="1.0" encoding="UTF-8" ?>
<!DOCTYPE svg PUBLIC "-//W3C//DTD SVG 1.1//EN" "http://www.w3.org/Graphics/SVG/1.1/DTD/svg11.dtd">
<svg width="192pt" height="192pt" viewBox="0 0 192 192" version="1.1" xmlns="http://www.w3.org/2000/svg">
<g id="#ff3661ff">
<path fill="#ff3661" opacity="1.00" d=" M 42.36 29.99 C 42.71 21.51 50.58 14.41 59.03 14.69 C 83.34 14.65 107.66 14.65 131.98 14.69 C 140.41 14.41 148.29 21.51 148.67 29.98 C 148.89 45.92 148.60 61.86 148.82 77.80 C 150.90 74.86 154.26 72.06 153.58 68.04 C 153.46 64.04 152.78 57.84 158.01 56.85 C 164.62 56.57 171.32 56.41 177.92 56.94 C 184.67 59.88 181.17 69.04 181.71 74.76 C 178.65 82.69 167.84 77.69 161.39 79.23 C 159.26 82.24 157.01 85.16 154.79 88.11 C 159.73 91.48 163.78 96.77 163.58 103.02 C 163.56 118.35 163.69 133.69 163.52 149.02 C 163.27 153.96 157.60 154.45 153.80 154.23 C 153.77 157.78 153.97 161.34 153.65 164.88 C 152.89 171.46 146.60 176.75 140.00 176.55 C 133.64 176.63 127.73 171.58 126.72 165.31 C 126.21 161.61 126.51 157.85 126.42 154.12 C 105.73 154.14 85.04 154.12 64.35 154.13 C 64.30 158.06 64.69 162.04 63.99 165.92 C 62.70 172.23 56.42 177.00 49.99 176.53 C 43.70 176.33 38.01 171.19 37.19 164.95 C 36.82 161.37 37.00 157.77 36.94 154.18 C 33.15 154.56 27.64 153.67 27.48 148.86 C 27.34 133.25 27.34 117.62 27.49 102.00 C 27.57 96.11 31.63 91.39 36.17 88.11 C 33.79 86.04 31.74 83.51 28.98 81.93 C 23.53 81.40 17.99 82.39 12.58 81.46 C 7.96 79.58 9.29 73.91 9.10 70.00 C 8.95 66.25 8.59 60.59 13.40 59.65 C 20.01 59.37 26.71 59.27 33.31 59.70 C 41.73 62.74 33.02 75.13 42.23 78.08 C 42.43 62.05 42.16 46.01 42.36 29.99 M 53.45 36.56 C 81.50 36.65 109.54 36.59 137.59 36.58 C 138.04 32.40 137.78 25.84 132.07 25.89 C 107.70 25.78 83.31 25.77 58.94 25.88 C 53.18 25.80 53.02 32.39 53.45 36.56 M 53.45 47.92 C 53.50 60.80 53.47 73.68 53.47 86.56 C 65.62 86.66 77.77 86.57 89.92 86.61 C 89.93 73.66 90.08 60.71 89.83 47.77 C 77.70 47.86 65.57 47.57 53.45 47.92 M 101.18 47.77 C 101.14 60.71 101.16 73.65 101.17 86.59 C 113.30 86.60 125.43 86.62 137.57 86.58 C 137.57 73.69 137.58 60.81 137.56 47.92 C 125.44 47.58 113.30 47.86 101.18 47.77 M 38.61 103.17 C 38.51 116.38 38.64 129.59 38.56 142.80 C 76.50 142.96 114.44 142.82 152.37 142.86 C 152.36 129.57 152.46 116.26 152.34 102.97 C 152.45 99.67 149.11 97.38 146.03 97.73 C 112.34 97.72 78.65 97.72 44.97 97.72 C 41.77 97.34 38.46 99.81 38.61 103.17 M 48.22 154.09 C 48.28 157.27 47.98 160.47 48.42 163.63 C 48.89 165.72 52.22 165.91 52.92 163.81 C 53.43 160.61 53.12 157.36 53.14 154.14 C 51.50 154.13 49.86 154.11 48.22 154.09 M 137.72 154.13 C 138.38 157.76 135.80 163.54 139.96 165.45 C 144.70 164.08 141.90 157.74 142.59 154.13 C 140.97 154.13 139.34 154.13 137.72 154.13 Z" />
<path fill="#ff3661" opacity="1.00" d=" M 69.38 110.41 C 86.40 109.03 103.84 110.12 121.02 109.85 C 125.50 109.48 125.58 117.18 121.05 116.73 C 104.40 116.80 87.74 116.83 71.09 116.71 C 67.89 116.81 66.70 112.00 69.38 110.41 Z" />
<path fill="#ff3661" opacity="1.00" d=" M 49.28 112.26 C 55.65 109.30 63.69 115.01 62.95 122.00 C 63.01 129.47 53.29 134.24 47.39 129.63 C 40.99 125.62 42.15 114.80 49.28 112.26 Z" />
<path fill="#ff3661" opacity="1.00" d=" M 135.29 112.32 C 142.09 109.10 150.54 115.65 149.24 123.02 C 148.60 130.46 138.89 134.52 133.09 129.89 C 126.80 125.63 128.09 114.88 135.29 112.32 Z" />
<path fill="#ff3661" opacity="1.00" d=" M 69.40 125.46 C 86.39 124.13 103.86 125.14 121.02 124.95 C 125.51 124.51 125.60 132.28 121.05 131.79 C 104.39 131.85 87.71 131.90 71.06 131.76 C 67.86 131.90 66.71 127.00 69.40 125.46 Z" />
</g>
</svg>
