<?xml version="1.0" encoding="UTF-8" ?>
<!DOCTYPE svg PUBLIC "-//W3C//DTD SVG 1.1//EN" "http://www.w3.org/Graphics/SVG/1.1/DTD/svg11.dtd">
<svg width="192pt" height="192pt" viewBox="0 0 192 192" version="1.1" xmlns="http://www.w3.org/2000/svg">
<g id="#ff517dff">
<path fill="#ff517d" opacity="1.00" d=" M 47.86 13.85 C 62.36 10.68 77.34 12.83 92.04 12.33 C 95.96 11.58 100.42 14.53 99.69 18.84 C 99.66 23.10 95.32 24.69 92.04 26.06 C 79.78 31.31 71.86 47.31 78.25 59.73 C 84.60 74.29 110.70 73.76 114.68 57.71 C 116.58 49.79 108.19 44.29 101.13 44.55 C 96.29 44.89 91.99 39.78 94.16 35.15 C 98.40 26.05 105.70 17.80 115.40 14.47 C 134.40 7.64 157.71 15.34 168.42 32.58 C 174.59 42.51 175.84 54.54 175.79 65.99 C 175.71 87.68 175.80 109.37 175.67 131.07 C 174.76 153.76 154.26 173.93 131.26 172.73 C 127.48 172.04 125.62 166.94 128.03 163.96 C 129.85 161.25 133.44 161.72 136.26 161.18 C 147.70 159.77 157.91 151.69 161.92 140.88 C 164.80 134.65 164.46 127.69 164.38 121.00 C 164.48 101.67 164.45 82.34 164.45 63.01 C 164.34 52.74 162.67 41.48 155.17 33.83 C 143.21 21.00 118.72 18.45 107.85 33.97 C 120.82 36.54 130.27 51.02 124.69 63.67 C 116.30 86.16 80.39 87.44 69.22 66.74 C 60.63 52.94 65.07 34.57 76.00 23.43 C 65.32 23.73 53.96 22.13 44.06 27.13 C 33.43 32.06 26.55 43.34 26.14 54.93 C 24.95 76.60 26.20 98.31 25.74 120.00 C 25.66 130.42 26.49 142.00 33.85 150.11 C 45.88 163.87 71.82 167.95 83.10 151.18 C 71.16 148.86 61.80 136.50 65.41 124.32 C 69.49 107.72 89.46 99.90 104.82 105.22 C 116.69 108.52 125.29 119.90 126.24 132.04 C 127.58 148.73 116.48 165.30 100.65 170.62 C 96.78 171.84 92.66 167.95 93.70 164.01 C 94.48 160.19 98.85 159.50 101.65 157.65 C 112.87 151.40 119.09 135.43 111.95 124.03 C 106.96 115.43 95.25 113.20 86.39 116.41 C 79.82 118.78 74.17 126.20 76.70 133.34 C 78.92 139.01 85.55 140.39 90.97 140.80 C 95.35 140.84 98.70 145.83 96.92 149.88 C 92.27 160.34 83.29 169.27 72.00 172.16 C 51.80 177.27 28.01 167.13 19.11 147.95 C 14.70 138.28 14.29 127.44 14.51 116.99 C 14.95 95.31 13.57 73.59 15.07 51.93 C 16.48 33.94 30.20 17.81 47.86 13.85 Z" />
</g>
</svg>
