<?xml version="1.0" encoding="UTF-8" ?>
<!DOCTYPE svg PUBLIC "-//W3C//DTD SVG 1.1//EN" "http://www.w3.org/Graphics/SVG/1.1/DTD/svg11.dtd">
<svg width="192pt" height="192pt" viewBox="0 0 192 192" version="1.1" xmlns="http://www.w3.org/2000/svg">
<g id="#ff613cff">
<path fill="#ff613c" opacity="1.00" d=" M 70.31 22.38 C 80.30 19.69 91.11 25.15 96.04 33.99 C 104.03 47.04 99.36 66.64 85.11 73.21 C 74.60 78.56 61.17 73.42 55.50 63.45 C 46.25 49.20 53.15 26.57 70.31 22.38 M 72.29 34.25 C 59.73 38.74 60.62 60.57 73.99 63.22 C 84.16 64.67 90.31 52.27 87.30 43.67 C 85.74 37.36 78.92 31.75 72.29 34.25 Z" />
<path fill="#ff613c" opacity="1.00" d=" M 119.35 34.46 C 128.98 31.52 139.99 36.67 144.25 45.70 C 151.11 58.93 144.12 77.21 129.94 82.08 C 120.05 86.05 107.99 80.98 103.52 71.41 C 96.26 57.68 104.25 38.51 119.35 34.46 M 121.34 46.44 C 113.73 49.63 110.31 60.08 114.82 67.05 C 116.99 70.76 121.88 72.38 125.87 70.83 C 133.80 67.93 137.55 57.14 132.93 50.01 C 130.62 46.20 125.40 44.53 121.34 46.44 Z" />
<path fill="#ff613c" opacity="1.00" d=" M 30.47 53.72 C 45.78 50.31 59.68 66.21 57.31 80.98 C 56.36 91.45 46.72 100.46 36.03 99.54 C 22.34 98.81 12.23 84.36 14.58 71.20 C 15.72 62.87 22.08 55.34 30.47 53.72 M 31.26 65.20 C 19.25 70.88 28.07 92.40 40.64 87.57 C 52.44 81.89 43.70 60.59 31.26 65.20 Z" />
<path fill="#ff613c" opacity="1.00" d=" M 151.28 72.30 C 159.73 69.72 169.66 73.04 174.37 80.61 C 180.85 90.47 177.61 104.47 168.70 111.73 C 159.63 120.08 143.21 119.51 136.43 108.57 C 127.62 95.47 136.32 75.98 151.28 72.30 M 153.30 84.22 C 145.59 86.90 141.34 99.00 148.77 104.24 C 157.75 109.34 168.70 97.94 165.17 88.85 C 163.56 84.14 157.67 82.14 153.30 84.22 Z" />
<path fill="#ff613c" opacity="1.00" d=" M 82.32 80.38 C 98.06 77.70 114.92 84.93 123.72 98.26 C 129.50 107.16 135.24 116.09 140.92 125.05 C 146.90 134.56 146.37 147.61 139.68 156.63 C 132.79 166.49 119.27 171.03 107.85 167.18 C 104.47 165.92 100.97 164.92 97.76 163.25 C 93.69 160.36 95.97 153.16 100.99 153.19 C 107.39 153.96 113.19 158.77 119.92 156.88 C 131.04 155.01 137.54 141.06 131.56 131.41 C 125.15 121.53 119.17 111.31 112.21 101.79 C 100.72 87.52 76.45 87.77 65.27 102.30 C 58.61 111.73 52.63 121.64 46.39 131.36 C 40.55 140.75 46.50 154.42 57.27 156.72 C 63.62 158.76 69.42 154.90 75.36 153.44 C 80.41 152.54 83.82 159.62 79.98 163.02 C 68.70 170.00 52.79 170.88 42.58 161.40 C 32.50 152.84 29.82 137.00 36.65 125.65 C 42.13 116.85 47.84 108.17 53.42 99.43 C 59.74 89.33 70.53 82.16 82.32 80.38 Z" />
</g>
</svg>
