<?xml version="1.0" encoding="UTF-8" ?>
<!DOCTYPE svg PUBLIC "-//W3C//DTD SVG 1.1//EN" "http://www.w3.org/Graphics/SVG/1.1/DTD/svg11.dtd">
<svg width="192pt" height="192pt" viewBox="0 0 192 192" version="1.1" xmlns="http://www.w3.org/2000/svg">
<g id="#a419ffff">
<path fill="#a419ff" opacity="1.00" d=" M 19.90 62.95 C 32.06 34.13 61.59 13.39 93.02 12.78 C 122.04 11.61 150.81 27.43 165.63 52.36 C 177.98 72.48 180.96 98.02 173.56 120.44 C 165.44 146.04 144.03 166.91 118.18 174.23 C 93.84 181.46 66.17 176.46 46.09 160.90 C 40.44 156.23 40.59 147.48 44.90 141.95 C 56.60 124.68 74.36 111.53 94.21 105.14 C 95.10 97.03 102.25 89.20 110.85 90.34 C 121.80 92.78 127.06 108.98 119.15 117.11 C 112.66 123.07 101.91 121.30 96.86 114.33 C 81.17 122.97 67.71 136.62 61.58 153.66 C 60.78 155.74 62.03 158.05 64.04 158.85 C 84.32 169.05 109.57 168.51 129.40 157.46 C 156.17 143.22 171.31 110.69 164.89 81.03 C 160.51 58.22 144.04 38.28 122.60 29.45 C 101.59 20.60 76.30 22.72 57.18 35.19 C 35.88 48.64 22.87 73.98 24.59 99.15 C 33.39 93.28 40.61 84.99 50.14 80.01 C 51.01 74.38 53.73 68.52 59.26 66.16 C 66.55 62.63 75.82 67.10 78.45 74.55 C 81.80 82.62 76.58 93.05 67.93 94.78 C 62.18 96.24 56.45 93.17 52.86 88.80 C 40.07 99.14 33.96 114.67 27.16 129.09 C 26.45 132.29 21.60 132.52 20.69 129.36 C 11.06 108.67 10.75 83.87 19.90 62.95 Z" />
</g>
</svg>
