<?xml version="1.0" encoding="UTF-8" ?>
<!DOCTYPE svg PUBLIC "-//W3C//DTD SVG 1.1//EN" "http://www.w3.org/Graphics/SVG/1.1/DTD/svg11.dtd">
<svg width="192pt" height="192pt" viewBox="0 0 192 192" version="1.1" xmlns="http://www.w3.org/2000/svg">
<g id="#9a7c7fff">
<path fill="#9a7c7f" opacity="1.00" d=" M 22.07 43.94 C 21.88 31.70 32.76 20.65 45.02 20.76 C 74.02 20.72 103.03 20.69 132.04 20.76 C 135.40 20.55 138.10 23.69 137.99 26.93 C 138.15 32.25 138.27 37.60 137.94 42.92 C 135.92 44.71 133.31 45.62 131.04 47.03 C 128.75 45.48 126.34 44.11 123.83 42.95 C 123.72 39.17 123.94 35.40 123.70 31.63 C 122.48 35.23 123.54 39.15 123.12 42.88 C 120.59 44.08 118.17 45.48 115.88 47.08 C 113.25 45.64 110.65 44.16 108.14 42.52 C 105.45 43.82 103.09 46.16 100.19 46.79 C 97.83 45.46 95.49 44.10 93.25 42.59 C 91.92 39.10 93.53 35.11 92.32 31.53 C 92.09 35.36 92.31 39.20 92.37 43.03 C 89.85 44.54 87.29 45.98 84.62 47.23 C 84.77 50.04 85.04 52.89 84.64 55.70 C 82.78 57.75 80.06 58.74 77.84 60.33 C 75.31 58.90 72.19 58.00 70.34 55.71 C 70.06 53.13 70.31 50.52 70.26 47.92 C 70.73 47.49 71.67 46.62 72.14 46.18 C 69.74 47.47 67.57 45.66 65.46 44.70 C 70.37 46.65 69.75 51.71 69.46 56.09 C 66.90 57.67 64.31 59.19 61.62 60.54 C 61.78 64.18 60.90 69.36 65.65 70.28 C 73.76 73.54 78.18 62.87 85.64 61.73 C 90.23 61.60 90.80 56.10 94.60 54.53 C 100.08 51.42 107.72 54.89 109.09 61.02 C 111.07 67.23 105.55 74.24 99.06 73.74 C 95.02 73.93 91.92 70.97 89.59 68.04 C 83.13 69.10 79.38 75.27 73.43 77.43 C 69.11 78.97 64.23 77.95 60.41 75.57 C 56.37 72.56 50.48 72.85 47.21 68.69 C 46.17 65.79 47.16 62.67 47.81 59.79 C 47.45 59.81 46.74 59.86 46.39 59.89 C 46.42 62.98 46.39 66.07 46.45 69.17 C 44.10 70.75 41.63 72.17 39.07 73.39 C 37.25 72.07 35.33 70.89 33.34 69.83 C 33.23 95.24 33.30 120.65 33.30 146.06 C 33.04 152.85 39.22 158.51 45.87 158.44 C 51.99 158.40 52.96 168.11 47.00 169.39 C 34.35 170.80 22.28 159.73 22.08 147.08 C 21.96 112.70 22.03 78.32 22.07 43.94 M 77.27 31.60 C 76.92 35.66 77.79 39.82 76.57 43.77 C 77.05 43.79 78.02 43.82 78.50 43.83 C 76.79 39.92 78.78 35.50 77.27 31.60 M 38.63 46.39 C 39.15 49.88 39.71 53.50 38.43 56.89 C 38.91 56.87 39.86 56.81 40.34 56.79 C 38.67 53.53 41.19 49.01 38.63 46.39 M 97.28 58.35 C 93.28 59.57 92.45 65.66 95.97 67.95 C 99.64 71.38 106.00 66.97 104.63 62.35 C 104.05 59.03 100.35 57.28 97.28 58.35 Z" />
<path fill="#9a7c7f" opacity="1.00" d=" M 146.12 31.64 C 140.55 31.35 139.82 22.51 145.13 21.07 C 158.20 18.93 171.11 30.80 170.80 43.94 C 170.86 77.98 170.88 112.01 170.85 146.05 C 171.21 158.36 160.36 169.50 148.06 169.53 C 119.36 169.62 90.65 169.52 61.94 169.54 C 58.98 169.88 55.69 168.02 55.28 164.90 C 54.77 159.62 55.30 154.31 55.02 149.02 C 57.00 147.53 59.08 146.18 61.16 144.84 C 67.23 146.65 69.55 151.93 68.15 157.93 L 68.86 157.87 C 68.81 154.93 68.79 151.99 68.76 149.05 C 71.26 147.80 73.69 146.41 76.03 144.88 C 78.44 146.23 80.82 147.63 83.21 149.01 C 83.22 152.12 83.12 155.23 83.34 158.34 C 84.23 155.36 83.67 152.19 83.86 149.13 C 86.38 147.88 88.84 146.49 91.12 144.83 C 93.72 146.45 96.34 148.04 98.99 149.57 C 101.38 147.71 103.97 146.14 106.73 144.89 C 108.25 145.76 109.79 146.58 111.40 147.25 C 106.66 145.37 106.24 140.66 107.20 136.19 C 109.16 134.23 111.78 133.13 114.07 131.62 C 116.66 132.89 119.17 134.32 121.58 135.90 C 121.54 138.68 121.54 141.46 121.59 144.24 C 119.56 145.58 117.46 146.80 115.25 147.82 C 114.87 148.00 114.10 148.35 113.72 148.53 C 114.04 151.83 114.16 155.15 114.54 158.45 C 114.83 154.91 114.38 151.31 115.25 147.82 C 117.97 147.55 120.22 145.93 122.54 144.66 C 122.28 141.76 122.27 138.85 122.35 135.95 C 124.80 134.17 127.46 132.65 130.35 131.71 C 130.86 126.34 129.37 120.85 123.00 120.72 C 115.49 122.74 110.71 130.45 102.55 131.36 C 100.31 137.03 93.25 140.65 87.69 137.28 C 80.93 133.88 80.70 123.03 87.49 119.52 C 92.71 116.22 99.10 119.32 102.27 123.97 C 107.95 122.92 111.59 118.07 116.44 115.41 C 120.93 112.91 126.63 113.48 130.94 116.11 C 135.17 119.17 140.77 119.24 144.67 122.94 C 144.65 126.49 145.64 130.90 141.96 133.03 C 143.16 132.60 144.37 132.18 145.58 131.78 C 145.24 128.83 145.22 125.85 145.26 122.89 C 147.74 121.51 150.01 119.36 152.86 118.85 C 155.17 120.06 157.37 121.48 159.70 122.66 C 159.63 96.42 159.76 70.17 159.66 43.92 C 159.77 36.77 152.91 31.55 146.12 31.64 M 90.34 123.26 C 86.54 124.76 86.00 130.42 89.13 132.85 C 92.08 135.18 97.11 133.68 97.91 129.88 C 99.38 125.74 94.23 120.98 90.34 123.26 M 136.42 134.47 C 137.52 138.10 137.40 141.90 136.60 145.57 C 138.39 142.73 138.71 137.01 136.42 134.47 M 151.72 135.13 C 152.31 138.01 152.33 140.95 152.27 143.88 C 151.50 144.59 150.73 145.31 149.97 146.02 C 151.06 145.59 152.16 145.14 153.25 144.71 C 152.83 141.52 152.43 138.24 153.32 135.10 C 152.92 135.10 152.12 135.12 151.72 135.13 M 128.66 148.48 C 129.31 151.56 129.26 154.72 129.19 157.85 L 129.85 157.84 C 129.76 154.86 129.77 151.88 129.76 148.90 C 131.85 148.14 133.89 147.17 135.55 145.65 C 133.24 146.57 130.99 147.62 128.66 148.48 Z" />
</g>
</svg>
