<?xml version="1.0" encoding="UTF-8" ?>
<!DOCTYPE svg PUBLIC "-//W3C//DTD SVG 1.1//EN" "http://www.w3.org/Graphics/SVG/1.1/DTD/svg11.dtd">
<svg width="192pt" height="192pt" viewBox="0 0 192 192" version="1.1" xmlns="http://www.w3.org/2000/svg">
<g id="#2ab9a2ff">
<path fill="#2ab9a2" opacity="1.00" d=" M 48.36 17.44 C 68.97 13.35 90.07 30.24 91.58 50.97 C 91.86 62.94 91.80 74.93 91.64 86.89 C 91.41 92.65 82.27 93.45 80.85 87.92 C 79.89 75.57 81.15 63.09 80.24 50.73 C 78.39 35.94 62.54 24.83 48.02 28.95 C 36.86 31.70 28.38 42.49 28.46 54.00 C 28.14 66.36 37.89 77.84 49.99 79.97 C 55.33 81.11 60.87 79.82 66.19 80.87 C 71.02 82.52 70.68 90.40 65.65 91.47 C 57.17 91.97 48.23 92.29 40.30 88.72 C 26.32 82.92 16.55 68.17 17.29 52.97 C 17.55 35.74 31.31 19.98 48.36 17.44 Z" />
<path fill="#2ab9a2" opacity="1.00" d=" M 130.36 17.44 C 142.85 15.15 156.25 19.91 164.59 29.45 C 174.26 40.13 176.92 56.60 170.67 69.64 C 164.17 84.34 147.88 93.24 132.00 91.77 C 127.47 92.57 120.48 91.08 121.61 85.01 C 122.94 78.78 130.41 80.71 135.00 80.44 C 149.10 81.29 162.56 69.31 162.71 55.07 C 163.53 41.05 151.11 27.94 137.03 28.24 C 123.47 27.73 111.38 39.65 110.75 53.02 C 110.42 64.30 110.88 75.60 110.56 86.88 C 110.40 91.13 104.60 93.32 101.52 90.50 C 99.18 88.76 99.40 85.60 99.38 83.01 C 99.53 72.67 99.21 62.33 99.57 51.99 C 100.50 35.29 113.82 20.21 130.36 17.44 Z" />
<path fill="#2ab9a2" opacity="1.00" d=" M 48.32 100.41 C 54.13 99.67 60.09 99.43 65.90 100.13 C 70.56 101.44 70.98 108.71 66.49 110.53 C 62.43 111.76 58.11 110.84 53.94 111.17 C 40.75 111.28 28.92 122.84 28.50 136.03 C 27.59 149.43 38.60 162.25 52.03 163.21 C 65.82 164.86 79.07 153.45 80.34 139.80 C 80.91 127.89 80.09 115.92 80.74 104.02 C 81.67 98.41 90.78 98.50 91.57 104.13 C 91.96 115.76 91.75 127.43 91.69 139.07 C 91.01 158.36 73.43 175.33 54.01 174.65 C 35.25 174.83 18.40 158.74 17.34 140.09 C 15.53 121.46 29.95 103.34 48.32 100.41 Z" />
<path fill="#2ab9a2" opacity="1.00" d=" M 102.36 100.42 C 105.76 98.39 110.72 101.10 110.61 105.12 C 110.83 116.06 110.50 127.02 110.75 137.97 C 111.13 149.50 119.83 160.18 131.12 162.69 C 144.00 165.88 158.13 157.37 161.63 144.65 C 165.74 132.08 158.25 117.58 146.00 113.00 C 139.43 109.99 132.08 111.87 125.22 110.73 C 120.02 109.18 120.56 100.68 125.97 99.95 C 133.89 99.60 142.17 99.25 149.68 102.26 C 161.75 106.83 171.19 117.88 173.46 130.63 C 176.35 145.17 169.32 161.00 156.76 168.81 C 146.07 175.85 131.63 176.62 120.27 170.73 C 108.11 164.64 99.74 151.61 99.46 137.98 C 99.29 127.66 99.44 117.33 99.39 107.01 C 99.26 104.51 99.92 101.62 102.36 100.42 Z" />
</g>
</svg>
