<?xml version="1.0" encoding="UTF-8" ?>
<!DOCTYPE svg PUBLIC "-//W3C//DTD SVG 1.1//EN" "http://www.w3.org/Graphics/SVG/1.1/DTD/svg11.dtd">
<svg width="192pt" height="192pt" viewBox="0 0 192 192" version="1.1" xmlns="http://www.w3.org/2000/svg">
<g id="#1ab2ffff">
<path fill="#1ab2ff" opacity="1.00" d=" M 66.00 61.99 C 75.80 46.15 95.80 37.40 114.03 41.87 C 133.01 45.86 147.48 63.23 149.29 82.35 C 166.17 85.11 178.99 102.09 176.94 119.08 C 175.65 135.23 161.38 149.31 145.07 149.70 C 112.69 149.76 80.32 149.73 47.95 149.68 C 29.67 149.44 13.66 133.26 13.19 115.07 C 12.19 100.30 21.25 85.90 34.61 79.77 C 38.40 66.76 52.89 58.59 66.00 61.99 M 98.39 52.50 C 87.57 54.23 78.26 61.82 73.60 71.63 C 72.05 75.25 67.60 75.15 64.59 73.57 C 56.62 70.02 46.82 75.76 45.20 84.13 C 44.86 87.11 42.64 89.08 39.90 89.95 C 28.99 94.11 22.47 106.65 24.85 118.00 C 26.82 129.34 37.36 138.51 48.94 138.49 C 80.31 138.57 111.69 138.51 143.06 138.49 C 156.30 139.01 167.58 125.99 165.56 112.98 C 164.47 102.26 154.82 93.32 144.03 93.16 C 139.48 93.51 137.20 88.90 137.84 84.94 C 137.85 65.14 117.89 48.55 98.39 52.50 Z" />
</g>
</svg>
