<?xml version="1.0" encoding="UTF-8" ?>
<!DOCTYPE svg PUBLIC "-//W3C//DTD SVG 1.1//EN" "http://www.w3.org/Graphics/SVG/1.1/DTD/svg11.dtd">
<svg width="192pt" height="192pt" viewBox="0 0 192 192" version="1.1" xmlns="http://www.w3.org/2000/svg">
<g id="#18b6c5ff">
<path fill="#18b6c5" opacity="1.00" d=" M 92.45 11.69 C 95.94 10.84 99.51 11.81 102.71 13.24 C 117.26 19.52 133.35 20.10 148.91 21.30 C 157.62 22.20 162.44 32.25 159.07 40.00 C 153.30 57.02 158.34 74.76 161.19 91.78 C 163.91 106.70 161.23 122.79 152.14 135.14 C 139.63 152.00 121.24 163.21 103.02 172.99 C 98.66 175.60 93.09 175.96 88.59 173.47 C 72.45 165.05 56.64 155.30 44.08 141.94 C 35.60 132.97 29.78 121.32 28.74 108.94 C 26.92 89.02 36.72 69.89 33.77 49.94 C 33.31 44.50 30.90 39.43 30.56 34.00 C 30.37 26.83 36.96 21.01 43.93 21.06 C 60.46 20.44 77.16 18.29 92.45 11.69 M 44.11 32.35 C 40.06 32.56 42.88 37.49 43.23 39.84 C 48.80 58.77 42.89 78.10 40.19 96.93 C 38.29 109.32 42.00 122.34 50.19 131.83 C 61.87 145.33 77.38 154.75 92.98 163.04 C 94.77 164.44 96.88 163.60 98.61 162.57 C 116.20 152.81 134.78 142.06 145.52 124.43 C 154.26 109.91 150.08 92.55 147.03 77.02 C 143.88 62.43 144.80 47.27 148.97 32.99 C 132.78 30.91 115.96 30.81 100.58 24.52 C 98.22 23.74 95.67 21.77 93.18 23.26 C 77.74 30.01 60.71 31.32 44.11 32.35 Z" />
</g>
</svg>
