<?xml version="1.0" encoding="UTF-8" ?>
<!DOCTYPE svg PUBLIC "-//W3C//DTD SVG 1.1//EN" "http://www.w3.org/Graphics/SVG/1.1/DTD/svg11.dtd">
<svg width="192pt" height="192pt" viewBox="0 0 192 192" version="1.1" xmlns="http://www.w3.org/2000/svg">
<g id="#ff3661ff">
<path fill="#ff3661" opacity="1.00" d=" M 37.37 19.52 C 41.49 18.43 45.79 18.77 50.00 18.73 C 72.00 18.84 94.02 18.53 116.01 18.87 C 122.01 19.43 121.94 29.31 115.91 29.71 C 91.94 30.00 67.94 29.70 43.95 29.84 C 37.40 29.63 31.13 35.24 31.29 41.93 C 31.16 67.96 31.43 94.00 31.16 120.03 C 31.08 126.70 20.15 126.75 20.13 120.05 C 19.94 94.02 20.07 67.97 20.08 41.94 C 19.98 31.69 27.51 22.12 37.37 19.52 Z" />
<path fill="#ff3661" opacity="1.00" d=" M 138.01 21.02 C 141.07 18.41 145.51 19.11 148.33 21.68 C 153.02 25.64 159.40 30.71 157.14 37.69 C 161.01 39.07 165.07 39.98 168.70 41.96 C 167.04 43.90 165.61 46.48 163.08 47.34 C 159.28 46.35 155.69 44.71 151.98 43.47 C 150.72 44.73 149.47 45.99 148.22 47.24 C 150.83 49.80 153.45 52.35 155.94 55.03 C 154.47 57.05 152.80 58.90 150.94 60.57 C 141.67 52.46 133.00 43.61 124.31 34.87 C 128.40 29.83 132.94 25.06 138.01 21.02 M 134.40 33.69 C 137.34 36.66 140.32 39.59 143.32 42.50 C 145.51 40.15 148.46 38.18 149.47 34.99 C 148.31 31.39 144.90 29.26 142.00 27.16 C 138.94 28.67 136.69 31.25 134.40 33.69 Z" />
<path fill="#ff3661" opacity="1.00" d=" M 118.91 39.89 C 121.27 36.91 123.74 41.11 125.21 42.90 C 122.00 46.63 118.43 50.03 115.05 53.61 C 117.03 55.58 119.02 57.55 121.03 59.49 C 124.09 56.48 126.98 53.30 130.16 50.42 C 131.95 51.65 133.50 53.19 134.80 54.93 C 132.01 58.15 128.93 61.11 125.98 64.19 C 127.96 66.22 129.97 68.24 132.02 70.21 C 135.81 66.91 138.72 62.51 142.97 59.81 C 144.62 60.91 147.24 62.38 146.79 64.70 C 142.08 70.15 136.72 75.03 131.76 80.25 C 122.09 72.65 113.80 63.31 104.97 54.73 C 109.07 49.31 114.27 44.84 118.91 39.89 Z" />
<path fill="#ff3661" opacity="1.00" d=" M 160.41 60.36 C 163.78 58.08 168.96 60.88 168.78 64.97 C 168.93 91.33 168.85 117.70 168.83 144.06 C 169.16 156.35 158.35 167.46 146.07 167.51 C 120.43 167.56 94.78 167.62 69.15 167.48 C 62.82 167.59 62.08 157.25 68.37 156.50 C 94.23 156.05 120.14 156.51 146.02 156.27 C 152.34 156.18 157.78 150.37 157.65 144.08 C 157.74 118.05 157.64 92.01 157.70 65.97 C 157.57 63.78 158.41 61.47 160.41 60.36 Z" />
<path fill="#ff3661" opacity="1.00" d=" M 96.74 62.82 C 101.22 59.58 106.02 63.66 108.93 67.00 C 107.48 68.98 105.85 70.82 104.03 72.47 C 102.33 71.43 100.70 70.27 98.98 69.25 C 96.97 71.04 94.57 72.68 93.44 75.21 C 93.58 77.54 95.92 79.50 98.03 80.11 C 103.91 78.51 108.40 71.93 114.88 73.08 C 119.46 75.69 125.21 79.98 124.78 85.85 C 122.85 91.28 118.06 95.22 113.64 98.67 C 109.15 101.84 103.93 97.99 101.42 94.15 C 102.97 92.40 104.58 90.70 106.27 89.08 C 109.94 93.77 115.40 90.79 116.88 85.95 C 116.30 83.25 112.75 79.68 109.85 81.91 C 105.29 84.11 101.31 88.34 95.98 88.38 C 91.17 86.25 85.89 81.94 85.48 76.36 C 87.04 70.56 92.11 66.33 96.74 62.82 Z" />
<path fill="#ff3661" opacity="1.00" d=" M 68.60 97.37 C 64.91 93.25 70.40 88.75 73.97 87.10 C 85.26 92.40 96.17 98.57 107.27 104.28 C 105.75 110.03 99.97 111.03 95.92 107.07 C 93.22 109.76 90.56 112.50 87.91 115.24 C 88.92 117.19 90.13 119.03 90.92 121.08 C 90.29 123.75 87.59 125.27 85.83 127.20 C 79.11 117.91 74.51 107.20 68.60 97.37 M 76.81 96.44 C 79.32 100.92 81.91 105.35 84.54 109.76 C 86.44 107.81 88.35 105.85 90.20 103.85 C 85.76 101.34 81.28 98.90 76.81 96.44 Z" />
<path fill="#ff3661" opacity="1.00" d=" M 54.31 107.29 C 57.74 105.07 61.88 106.98 64.53 109.50 C 68.78 113.35 74.56 118.14 72.21 124.64 C 76.10 126.03 80.16 126.98 83.82 128.93 C 82.36 130.84 80.90 132.83 78.92 134.24 C 74.79 133.79 71.05 131.66 67.11 130.45 C 65.86 131.71 64.62 132.98 63.38 134.25 C 65.99 136.80 68.60 139.35 71.06 142.04 C 69.60 144.08 67.88 145.93 65.98 147.57 C 57.89 140.51 50.56 132.62 42.70 125.30 C 41.38 123.87 38.36 121.73 40.86 119.89 C 45.28 115.65 49.06 110.56 54.31 107.29 M 49.53 120.72 C 52.50 123.68 55.46 126.65 58.53 129.50 C 60.55 126.85 64.76 124.81 64.37 121.04 C 62.58 118.31 60.17 115.51 56.99 114.49 C 53.75 115.36 51.86 118.52 49.53 120.72 Z" />
<path fill="#ff3661" opacity="1.00" d=" M 20.11 141.71 C 24.86 135.79 30.36 130.43 35.97 125.32 C 37.41 126.62 38.84 127.94 40.27 129.25 C 37.81 133.74 33.49 136.77 30.18 140.59 C 32.18 142.56 34.18 144.53 36.20 146.48 C 39.21 143.49 42.12 140.41 45.15 137.44 C 47.06 138.57 48.61 140.16 49.92 141.93 C 47.11 145.15 44.06 148.14 41.08 151.20 C 43.09 153.22 45.11 155.23 47.16 157.20 C 50.91 153.89 53.83 149.57 58.02 146.82 C 59.98 147.61 61.16 149.49 62.51 151.01 C 57.56 156.68 52.06 161.84 46.84 167.26 C 37.31 159.50 28.86 150.36 20.11 141.71 Z" />
</g>
</svg>
