<?xml version="1.0" encoding="UTF-8" ?>
<!DOCTYPE svg PUBLIC "-//W3C//DTD SVG 1.1//EN" "http://www.w3.org/Graphics/SVG/1.1/DTD/svg11.dtd">
<svg width="192pt" height="192pt" viewBox="0 0 192 192" version="1.1" xmlns="http://www.w3.org/2000/svg">
<g id="#afae5aff">
<path fill="#afae5a" opacity="1.00" d=" M 46.85 25.98 C 46.96 20.01 56.56 19.59 57.32 25.47 C 57.94 44.21 57.25 63.02 57.67 81.78 C 70.77 81.70 83.88 81.69 96.98 81.76 C 110.27 81.80 122.02 93.72 122.03 106.98 C 121.95 125.62 122.28 144.29 121.87 162.92 C 120.69 168.62 111.37 167.77 111.30 161.92 C 111.02 143.61 111.39 125.29 111.15 106.98 C 111.02 99.15 103.80 92.36 95.98 92.61 C 83.19 92.58 70.39 92.59 57.59 92.60 C 57.45 115.68 57.75 138.77 57.48 161.85 C 57.47 168.18 46.96 168.43 46.83 162.02 C 46.68 116.68 46.67 71.32 46.85 25.98 Z" />
<path fill="#afae5a" opacity="1.00" d=" M 136.29 23.38 C 140.29 21.75 144.82 25.63 143.64 29.82 C 142.90 34.47 135.82 35.42 133.60 31.43 C 132.45 28.61 132.96 24.42 136.29 23.38 Z" />
<path fill="#afae5a" opacity="1.00" d=" M 135.43 42.44 C 138.70 39.91 143.83 42.99 143.52 47.00 C 143.57 85.28 143.69 123.58 143.54 161.86 C 143.57 168.12 133.23 168.28 133.02 162.04 C 132.45 124.70 133.41 87.35 133.13 50.01 C 133.17 47.37 132.67 43.95 135.43 42.44 Z" />
</g>
</svg>
