<?xml version="1.0" encoding="UTF-8" ?>
<!DOCTYPE svg PUBLIC "-//W3C//DTD SVG 1.1//EN" "http://www.w3.org/Graphics/SVG/1.1/DTD/svg11.dtd">
<svg width="192pt" height="192pt" viewBox="0 0 192 192" version="1.1" xmlns="http://www.w3.org/2000/svg">
<g id="#a51affff">
<path fill="#a51aff" opacity="1.00" d=" M 82.30 12.40 C 114.14 6.85 148.18 22.42 164.90 50.03 C 177.27 69.66 180.53 94.65 173.80 116.83 C 165.14 146.82 137.92 170.32 106.94 174.36 C 75.95 179.21 43.08 164.15 26.44 137.58 C 8.64 110.67 9.24 73.20 27.86 46.86 C 40.33 28.61 60.44 15.79 82.30 12.40 M 86.38 23.49 C 64.06 26.16 43.64 40.39 33.20 60.26 C 22.59 79.92 22.27 104.71 32.34 124.65 C 45.46 151.80 77.21 168.09 106.92 162.65 C 136.88 158.11 161.85 132.12 165.12 101.99 C 167.96 80.18 159.85 57.27 143.71 42.30 C 128.76 27.67 107.05 20.90 86.38 23.49 Z" />
<path fill="#a51aff" opacity="1.00" d=" M 50.28 60.93 C 50.48 54.28 56.26 48.39 62.93 48.15 C 67.64 47.99 72.36 47.95 77.07 48.18 C 83.60 48.65 88.92 54.43 89.37 60.88 C 89.81 66.36 93.45 71.40 92.28 77.00 C 91.31 82.53 86.58 86.16 82.70 89.75 C 79.19 92.40 73.72 89.36 73.95 85.01 C 74.42 80.52 79.16 78.49 81.46 75.02 C 79.17 70.10 79.62 63.74 76.60 59.49 C 71.78 60.03 65.22 57.57 61.52 60.93 C 63.79 93.03 90.03 121.17 121.67 126.45 C 124.31 126.91 129.64 128.51 129.19 124.03 C 128.27 119.47 132.11 110.33 124.99 110.08 C 120.99 109.67 117.29 107.73 113.34 107.31 C 109.53 109.57 107.14 115.72 101.90 114.35 C 95.30 111.32 89.71 106.36 85.23 100.70 C 82.04 96.32 87.64 90.02 92.39 92.68 C 96.07 95.35 98.50 99.54 102.59 101.77 C 106.04 97.71 111.50 94.89 116.90 96.33 C 121.09 97.62 125.29 98.89 129.65 99.51 C 136.27 100.72 141.00 107.37 140.46 114.01 C 140.18 121.07 142.08 129.74 135.96 134.96 C 129.87 140.72 121.01 137.82 113.84 136.24 C 79.56 127.97 52.36 96.24 50.28 60.93 Z" />
</g>
</svg>
