<?xml version="1.0" encoding="UTF-8" ?>
<!DOCTYPE svg PUBLIC "-//W3C//DTD SVG 1.1//EN" "http://www.w3.org/Graphics/SVG/1.1/DTD/svg11.dtd">
<svg width="192pt" height="192pt" viewBox="0 0 192 192" version="1.1" xmlns="http://www.w3.org/2000/svg">
<g id="#ff613cff">
<path fill="#ff613c" opacity="1.00" d=" M 86.37 14.45 C 103.56 11.72 121.87 16.54 135.23 27.76 C 149.93 39.82 158.63 58.93 157.57 77.97 C 156.69 94.60 149.74 110.21 141.57 124.48 C 130.45 143.08 116.71 160.12 101.10 175.14 C 98.46 178.18 93.42 178.38 90.77 175.24 C 69.65 154.58 50.93 130.74 39.84 103.13 C 33.82 88.08 32.05 70.87 37.31 55.34 C 44.42 34.02 64.10 17.60 86.37 14.45 M 47.48 60.39 C 43.55 73.48 45.58 87.69 50.75 100.14 C 60.90 124.53 77.24 145.91 95.93 164.39 C 114.71 145.36 131.75 123.70 141.54 98.60 C 147.58 83.67 148.56 65.97 140.44 51.61 C 131.90 35.17 113.62 24.21 95.01 25.10 C 73.73 24.88 53.52 40.03 47.48 60.39 Z" />
<path fill="#ff613c" opacity="1.00" d=" M 62.41 63.43 C 66.24 62.68 69.45 66.33 69.12 70.03 C 69.56 83.53 81.43 95.31 94.94 95.57 C 108.14 96.45 120.93 86.18 122.77 73.06 C 123.37 70.14 122.64 66.37 125.41 64.39 C 128.69 61.67 134.38 64.08 134.56 68.39 C 135.24 86.99 120.08 104.35 101.68 106.62 C 82.06 110.06 61.68 95.49 58.35 75.90 C 57.35 71.57 56.52 64.45 62.41 63.43 Z" />
</g>
</svg>
