<?xml version="1.0" encoding="UTF-8" ?>
<!DOCTYPE svg PUBLIC "-//W3C//DTD SVG 1.1//EN" "http://www.w3.org/Graphics/SVG/1.1/DTD/svg11.dtd">
<svg width="192pt" height="192pt" viewBox="0 0 192 192" version="1.1" xmlns="http://www.w3.org/2000/svg">
<g id="#1ab2ffff">
<path fill="#1ab2ff" opacity="1.00" d=" M 84.41 14.53 C 116.10 9.59 149.57 25.50 165.93 53.04 C 178.44 73.29 181.27 99.11 173.66 121.65 C 164.32 150.38 137.88 172.59 107.92 176.67 C 76.57 181.70 43.31 166.35 26.69 139.34 C 8.47 111.31 10.22 72.18 30.88 45.89 C 43.73 28.99 63.35 17.41 84.41 14.53 M 87.36 25.46 C 61.94 28.21 39.11 46.19 30.02 70.01 C 22.60 89.06 23.90 111.35 33.77 129.29 C 42.44 145.30 57.47 157.76 74.90 163.11 C 94.06 169.08 115.78 166.50 132.85 155.89 C 159.74 139.97 173.13 105.15 163.67 75.33 C 154.64 43.14 120.53 20.68 87.36 25.46 Z" />
<path fill="#1ab2ff" opacity="1.00" d=" M 72.33 64.96 C 72.10 60.74 77.24 61.64 80.00 61.56 C 82.26 61.69 86.19 60.95 86.51 64.14 C 86.81 72.56 86.53 80.99 86.64 89.41 C 93.29 89.52 99.95 89.46 106.61 89.45 C 106.74 81.12 106.47 72.78 106.73 64.45 C 106.92 60.74 111.48 61.70 114.00 61.56 C 116.62 61.52 121.24 61.05 121.00 64.95 C 121.10 85.63 121.19 106.33 120.96 127.00 C 120.60 130.46 116.41 129.52 114.02 129.71 C 111.54 129.47 107.23 130.57 106.75 127.04 C 106.43 118.69 106.75 110.32 106.60 101.96 C 99.96 101.68 93.31 101.86 86.67 101.86 C 86.52 110.19 86.78 118.54 86.56 126.87 C 86.50 130.26 82.31 129.60 80.01 129.70 C 77.45 129.46 72.71 130.65 72.37 126.89 C 72.19 106.25 72.31 85.60 72.33 64.96 Z" />
</g>
</svg>
