<?xml version="1.0" encoding="UTF-8" ?>
<!DOCTYPE svg PUBLIC "-//W3C//DTD SVG 1.1//EN" "http://www.w3.org/Graphics/SVG/1.1/DTD/svg11.dtd">
<svg width="192pt" height="192pt" viewBox="0 0 192 192" version="1.1" xmlns="http://www.w3.org/2000/svg">
<g id="#ff8b1fff">
<path fill="#ff8b1f" opacity="1.00" d=" M 38.33 21.42 C 41.50 20.68 44.77 20.71 48.00 20.71 C 80.99 20.80 113.99 20.64 146.98 20.78 C 159.25 20.78 170.10 31.71 170.09 43.97 C 170.20 78.32 170.15 112.67 170.12 147.02 C 170.39 159.44 159.52 170.73 147.06 170.70 C 112.36 170.74 77.64 170.74 42.93 170.67 C 30.59 170.60 19.83 159.35 20.14 147.04 C 20.13 112.67 20.10 78.30 20.17 43.93 C 20.15 33.43 28.12 23.68 38.33 21.42 M 40.37 32.53 C 34.96 33.93 31.11 39.39 31.38 44.94 C 31.39 78.99 31.35 113.03 31.41 147.08 C 31.21 153.78 37.30 159.76 44.00 159.45 C 78.00 159.47 112.00 159.45 146.00 159.45 C 152.77 159.84 158.98 153.86 158.79 147.07 C 158.84 113.03 158.80 78.98 158.81 44.93 C 159.26 38.00 153.02 31.66 146.07 32.11 C 110.84 32.38 75.54 31.55 40.37 32.53 Z" />
<path fill="#ff8b1f" opacity="1.00" d=" M 119.64 47.28 C 123.09 42.07 130.48 42.17 133.16 48.04 C 129.36 49.45 124.83 46.28 120.95 49.10 C 120.62 48.64 119.97 47.73 119.64 47.28 Z" />
<path fill="#ff8b1f" opacity="1.00" d=" M 118.24 48.96 C 125.84 56.51 133.41 64.07 140.95 71.68 C 137.76 74.89 134.83 78.47 130.84 80.74 C 130.81 79.28 130.81 77.83 130.81 76.37 C 125.02 70.70 119.32 64.95 113.63 59.19 C 112.17 59.14 110.71 59.08 109.26 59.02 C 111.48 55.04 115.11 52.18 118.24 48.96 Z" />
<path fill="#ff8b1f" opacity="1.00" d=" M 128.78 50.16 C 132.63 52.80 137.25 55.89 138.73 60.48 C 136.01 60.06 133.35 59.32 130.60 59.12 C 130.01 56.13 129.37 53.15 128.78 50.16 Z" />
<path fill="#ff8b1f" opacity="1.00" d=" M 81.23 57.50 C 82.46 56.10 83.71 54.73 84.97 53.36 C 86.22 54.72 87.46 56.07 88.69 57.44 C 86.20 57.31 83.71 57.33 81.23 57.50 Z" />
<path fill="#ff8b1f" opacity="1.00" d=" M 140.87 56.32 C 147.59 58.05 148.24 66.49 142.77 70.14 C 142.24 69.89 141.18 69.37 140.65 69.12 C 142.94 65.06 141.99 60.56 140.87 56.32 Z" />
<path fill="#ff8b1f" opacity="1.00" d=" M 60.84 77.74 C 67.41 71.04 74.07 64.44 80.67 57.78 C 84.70 61.76 88.75 65.73 92.67 69.82 C 86.94 75.21 81.50 80.91 75.98 86.52 C 73.40 81.95 69.43 78.34 65.44 75.02 C 65.25 75.24 64.87 75.69 64.68 75.92 C 65.55 77.46 66.63 78.86 67.61 80.34 C 65.35 79.47 63.11 78.58 60.84 77.74 M 75.57 63.94 C 78.63 67.62 82.21 73.37 86.90 73.89 C 87.19 70.62 83.31 68.84 81.53 66.46 C 79.97 65.17 77.50 61.38 75.57 63.94 M 69.96 70.03 C 72.42 73.71 76.34 79.83 80.93 79.90 C 81.02 76.89 77.75 73.85 74.71 74.89 C 75.03 74.40 75.66 73.42 75.98 72.93 C 74.18 71.72 72.35 67.87 69.96 70.03 Z" />
<path fill="#ff8b1f" opacity="1.00" d=" M 86.31 58.11 C 88.30 59.86 90.18 61.74 91.94 63.73 C 90.31 63.53 88.68 63.31 87.06 63.11 C 86.80 61.44 86.54 59.78 86.31 58.11 Z" />
<path fill="#ff8b1f" opacity="1.00" d=" M 98.92 68.29 C 102.16 65.16 105.02 61.50 109.02 59.28 C 109.07 60.75 109.12 62.21 109.17 63.68 C 114.91 69.38 120.62 75.11 126.31 80.86 C 127.76 80.86 129.22 80.87 130.67 80.90 C 127.70 85.62 123.63 89.75 118.87 92.68 C 118.86 91.22 118.86 89.76 118.87 88.30 C 114.24 83.81 109.87 79.05 105.03 74.78 C 108.62 82.45 113.42 89.51 116.59 97.37 C 107.61 93.65 99.16 88.76 90.35 84.68 C 88.34 83.75 86.06 84.31 83.93 84.14 C 86.32 80.38 89.74 77.48 92.85 74.36 C 96.98 76.36 101.10 78.39 105.28 80.29 C 103.21 76.26 101.04 72.29 98.92 68.29 Z" />
<path fill="#ff8b1f" opacity="1.00" d=" M 92.99 61.49 C 94.37 62.74 95.74 64.01 97.11 65.27 C 95.69 66.68 94.26 68.09 92.82 69.49 C 93.08 66.83 93.17 64.15 92.99 61.49 Z" />
<path fill="#ff8b1f" opacity="1.00" d=" M 56.33 82.13 C 57.63 80.82 58.93 79.51 60.24 78.20 C 64.44 82.05 67.92 86.77 72.90 89.69 C 71.14 91.38 69.41 93.09 67.71 94.84 C 64.99 89.74 60.08 86.40 56.33 82.13 Z" />
<path fill="#ff8b1f" opacity="1.00" d=" M 137.54 80.64 C 139.22 82.37 140.84 84.17 142.28 86.12 C 140.17 85.47 138.13 84.58 135.97 84.13 C 137.94 89.17 143.37 92.73 147.52 96.30 C 145.74 98.13 143.94 99.93 142.12 101.71 C 139.40 96.15 134.08 92.63 130.09 88.09 C 132.67 85.71 135.26 83.33 137.54 80.64 Z" />
<path fill="#ff8b1f" opacity="1.00" d=" M 53.21 85.21 C 54.11 84.38 55.01 83.54 55.91 82.71 C 56.74 85.03 57.62 87.33 58.39 89.66 C 56.58 88.28 54.88 86.76 53.21 85.21 Z" />
<path fill="#ff8b1f" opacity="1.00" d=" M 75.06 91.33 C 88.61 80.21 110.61 103.31 97.46 115.61 C 96.01 106.88 87.01 102.62 81.90 96.10 C 80.48 93.20 75.62 94.23 75.06 91.33 Z" />
<path fill="#ff8b1f" opacity="1.00" d=" M 126.84 91.27 C 127.74 90.45 128.64 89.64 129.55 88.83 C 131.15 96.00 141.29 101.15 135.73 109.13 C 132.56 103.29 127.41 98.68 121.95 95.01 C 124.31 94.33 126.71 93.79 129.15 93.43 C 128.37 92.71 127.60 91.99 126.84 91.27 Z" />
<path fill="#ff8b1f" opacity="1.00" d=" M 94.70 88.77 C 102.18 90.13 105.09 99.80 113.29 98.64 C 111.39 101.55 108.96 104.11 105.94 105.86 C 107.01 97.91 98.58 94.37 94.70 88.77 Z" />
<path fill="#ff8b1f" opacity="1.00" d=" M 97.22 116.57 C 83.54 129.08 61.21 106.50 73.21 92.67 C 76.21 102.28 85.59 107.65 91.97 114.91 C 93.76 115.32 95.53 115.85 97.22 116.57 Z" />
<path fill="#ff8b1f" opacity="1.00" d=" M 120.98 96.11 C 124.39 101.77 129.22 106.73 134.96 110.01 C 130.93 112.49 125.95 111.79 122.67 108.42 C 122.26 110.81 121.10 112.92 119.66 114.84 C 118.45 110.82 115.35 107.76 111.35 106.52 C 113.75 104.50 116.67 103.17 119.77 104.41 C 119.31 101.56 119.83 98.74 120.98 96.11 Z" />
<path fill="#ff8b1f" opacity="1.00" d=" M 53.16 114.99 C 56.19 110.54 60.19 106.82 64.39 103.48 C 64.85 105.54 64.73 108.00 66.54 109.46 C 71.72 114.73 77.02 119.87 82.17 125.16 C 83.63 125.19 85.09 125.24 86.54 125.29 C 83.44 129.82 79.50 133.83 74.94 136.89 C 75.85 131.27 70.15 128.63 67.07 124.99 C 65.56 125.98 63.93 126.94 62.04 126.40 C 62.96 125.15 63.91 123.93 64.88 122.71 C 61.27 119.68 58.67 114.22 53.16 114.99 Z" />
<path fill="#ff8b1f" opacity="1.00" d=" M 105.93 112.30 C 107.58 110.70 109.20 109.08 110.83 107.47 C 115.33 111.47 118.91 116.64 124.29 119.56 C 122.45 121.43 120.61 123.29 118.78 125.16 C 115.63 119.98 111.14 115.42 105.93 112.30 Z" />
<path fill="#ff8b1f" opacity="1.00" d=" M 101.05 117.61 C 102.32 116.11 103.63 114.65 104.95 113.20 C 106.38 114.61 107.80 116.03 109.21 117.47 C 106.49 117.38 103.76 117.41 101.05 117.61 Z" />
<path fill="#ff8b1f" opacity="1.00" d=" M 42.50 125.44 C 45.32 121.74 48.59 118.36 52.20 115.41 C 54.20 115.56 53.22 117.74 53.39 119.05 C 59.12 125.02 64.98 130.87 70.93 136.63 C 72.26 136.76 74.49 135.76 74.57 137.86 C 71.29 141.91 67.47 145.52 63.48 148.87 C 62.65 147.32 62.75 145.61 63.14 143.96 C 56.20 137.90 50.98 129.40 42.50 125.44 Z" />
<path fill="#ff8b1f" opacity="1.00" d=" M 95.54 122.84 C 97.17 121.14 98.83 119.46 100.51 117.81 C 104.59 122.22 109.31 126.03 113.02 130.76 C 111.58 132.48 109.92 134.00 108.31 135.56 C 105.23 130.42 100.87 125.67 95.54 122.84 Z" />
<path fill="#ff8b1f" opacity="1.00" d=" M 106.45 118.27 C 108.66 120.12 110.70 122.15 112.61 124.31 C 110.81 124.04 109.02 123.75 107.22 123.48 C 106.95 121.74 106.69 120.01 106.45 118.27 Z" />
<path fill="#ff8b1f" opacity="1.00" d=" M 113.57 130.19 C 113.70 127.34 113.73 124.49 113.56 121.65 C 115.03 123.07 116.50 124.51 117.96 125.95 C 116.51 127.37 115.05 128.79 113.57 130.19 Z" />
<path fill="#ff8b1f" opacity="1.00" d=" M 89.35 128.48 C 97.33 121.76 109.52 133.84 102.57 141.82 C 100.14 135.95 95.13 131.04 89.35 128.48 Z" />
<path fill="#ff8b1f" opacity="1.00" d=" M 83.90 134.32 C 85.56 132.72 87.20 131.10 88.84 129.48 C 93.14 133.71 97.39 138.00 101.65 142.27 C 100.13 143.81 98.59 145.34 97.04 146.86 C 93.26 142.16 89.26 137.27 83.90 134.32 Z" />
</g>
</svg>
