<?xml version="1.0" encoding="UTF-8" ?>
<!DOCTYPE svg PUBLIC "-//W3C//DTD SVG 1.1//EN" "http://www.w3.org/Graphics/SVG/1.1/DTD/svg11.dtd">
<svg width="192pt" height="192pt" viewBox="0 0 192 192" version="1.1" xmlns="http://www.w3.org/2000/svg">
<g id="#ff3660ff">
<path fill="#ff3660" opacity="1.00" d=" M 39.29 21.35 C 42.14 20.70 45.09 20.71 48.00 20.71 C 81.33 20.80 114.66 20.65 147.99 20.78 C 160.06 21.02 170.52 31.97 170.36 44.02 C 170.31 59.69 170.55 75.36 170.25 91.02 C 169.81 97.25 159.65 97.10 159.28 90.92 C 158.94 75.28 159.34 59.61 159.12 43.97 C 159.21 37.10 152.76 31.46 146.01 31.85 C 112.33 31.82 78.65 31.79 44.97 31.84 C 38.44 31.70 32.25 37.36 32.43 44.01 C 32.23 47.28 33.09 51.68 29.62 53.57 C 25.86 56.13 20.56 52.45 21.17 48.08 C 19.63 36.26 27.42 23.86 39.29 21.35 Z" />
<path fill="#ff3660" opacity="1.00" d=" M 21.06 75.85 C 21.55 69.72 21.79 59.36 29.97 58.96 C 36.18 57.86 39.67 66.57 45.96 64.10 C 51.47 60.99 58.60 58.77 64.32 62.71 C 69.44 66.39 75.13 69.45 79.49 74.07 C 85.01 76.22 90.88 76.70 96.69 77.45 C 104.22 78.96 107.80 86.92 114.96 89.09 C 120.99 91.81 127.17 94.87 134.02 94.15 C 143.34 93.33 150.75 100.49 159.90 100.83 C 163.09 101.56 168.99 100.20 169.33 104.86 C 169.73 110.07 173.07 118.36 166.01 120.41 C 161.55 119.61 156.96 119.23 152.56 118.06 C 155.48 115.66 157.83 112.35 155.87 108.52 C 148.04 108.80 140.55 106.19 132.84 105.47 C 128.17 104.90 128.83 112.95 124.03 112.47 C 111.49 112.61 99.77 106.99 89.12 100.93 C 80.11 99.16 72.83 92.08 63.45 91.97 C 61.49 102.22 61.49 112.67 60.13 122.98 C 59.33 126.93 58.70 133.77 53.05 132.85 C 47.86 132.17 41.08 134.58 37.24 130.03 C 42.35 128.53 47.97 128.98 52.87 126.89 C 54.95 123.87 53.39 119.87 53.49 116.46 C 49.75 116.79 46.03 116.24 42.33 115.76 C 45.23 112.93 50.16 114.09 53.05 111.96 C 51.79 99.76 54.37 86.11 45.71 76.04 C 45.16 76.12 44.05 76.28 43.49 76.36 C 43.03 77.99 42.56 79.62 42.08 81.25 C 39.34 81.29 36.51 81.17 33.96 82.35 C 30.06 79.50 25.57 77.53 21.06 75.85 M 162.25 114.27 C 160.70 117.27 165.58 114.40 162.25 114.27 Z" />
<path fill="#ff3660" opacity="1.00" d=" M 24.29 89.28 C 27.65 87.45 32.27 90.12 32.28 93.96 C 32.53 111.32 32.26 128.70 32.40 146.07 C 32.22 152.75 38.32 158.68 45.00 158.32 C 78.67 158.34 112.33 158.31 146.00 158.33 C 151.81 158.71 157.56 154.63 158.79 148.90 C 159.79 142.41 158.57 135.79 159.43 129.30 C 160.32 125.54 165.50 124.02 168.34 126.62 C 170.91 128.61 170.29 132.16 170.41 135.00 C 170.14 141.56 171.24 148.43 168.71 154.68 C 165.36 163.39 156.40 169.56 147.06 169.53 C 112.71 169.56 78.36 169.58 44.02 169.51 C 32.10 169.44 21.46 158.99 21.23 147.07 C 21.09 130.03 21.23 112.99 21.16 95.95 C 20.98 93.38 21.70 90.40 24.29 89.28 Z" />
</g>
</svg>
