<?xml version="1.0" encoding="UTF-8" ?>
<!DOCTYPE svg PUBLIC "-//W3C//DTD SVG 1.1//EN" "http://www.w3.org/Graphics/SVG/1.1/DTD/svg11.dtd">
<svg width="192pt" height="192pt" viewBox="0 0 192 192" version="1.1" xmlns="http://www.w3.org/2000/svg">
<g id="#ff3661ff">
<path fill="#ff3661" opacity="1.00" d=" M 40.28 21.32 C 70.77 19.97 101.44 21.11 132.00 20.73 C 140.11 21.19 148.66 19.42 156.40 22.56 C 165.24 26.11 171.23 35.46 170.84 44.97 C 170.84 78.67 170.89 112.36 170.83 146.06 C 171.15 158.35 160.34 169.46 148.06 169.51 C 113.69 169.59 79.31 169.57 44.94 169.51 C 32.61 169.51 21.77 158.38 22.06 146.05 C 22.03 112.01 22.02 77.97 22.08 43.93 C 21.98 33.37 30.00 23.54 40.28 21.32 M 33.30 43.93 C 33.22 77.64 33.30 111.35 33.26 145.06 C 33.02 148.29 34.28 151.30 35.92 154.01 C 41.99 152.05 47.68 148.73 51.76 143.76 C 54.52 139.96 59.43 142.08 63.16 142.73 C 77.25 145.73 93.37 146.18 105.74 137.74 C 110.58 134.89 112.26 128.66 117.60 126.54 C 123.49 123.40 128.79 119.24 134.88 116.45 C 133.19 96.86 117.67 83.21 106.73 68.28 C 102.41 62.29 98.18 56.20 93.02 50.89 C 85.11 52.15 79.56 58.29 72.72 61.85 C 71.09 62.45 70.35 63.97 69.77 65.49 C 72.34 66.35 74.92 67.18 77.49 68.02 C 78.57 64.60 80.80 59.28 85.32 60.58 C 92.85 63.00 101.13 66.87 104.28 74.67 C 106.09 81.78 102.46 88.83 102.74 95.99 C 102.75 101.38 105.04 106.33 106.64 111.36 C 107.65 114.11 105.61 117.39 102.69 117.64 C 99.36 118.08 97.26 114.89 94.84 113.19 C 89.25 108.23 81.07 106.81 74.02 109.02 C 69.57 110.42 67.10 116.07 61.98 115.50 C 55.71 114.56 53.74 106.74 47.65 105.34 C 44.81 104.22 40.60 105.07 39.01 101.89 C 38.30 99.28 38.26 95.42 41.30 94.29 C 49.52 93.54 57.53 97.66 62.74 103.90 C 70.95 97.03 82.90 96.11 92.69 99.86 C 91.75 92.58 93.96 85.49 94.49 78.31 C 93.26 75.24 90.00 73.38 87.80 70.98 C 87.28 75.70 83.59 81.25 78.14 78.91 C 71.69 76.21 61.99 76.39 58.99 68.95 C 59.03 63.06 61.06 55.56 67.16 53.17 C 75.30 49.47 82.20 43.05 90.97 40.82 C 98.77 39.46 103.47 47.05 107.76 52.20 C 119.22 69.94 136.62 84.18 143.05 104.89 C 144.72 110.79 146.63 118.16 142.45 123.44 C 133.80 130.20 122.44 133.66 115.71 142.72 C 100.46 157.10 77.40 156.52 58.23 152.20 C 55.93 154.35 53.54 156.40 51.04 158.31 C 83.01 158.34 114.99 158.32 146.96 158.32 C 153.65 158.66 159.82 152.81 159.65 146.07 C 159.73 112.36 159.67 78.65 159.68 44.93 C 160.20 37.96 153.99 31.65 147.04 31.86 C 113.35 31.80 79.66 31.80 45.97 31.84 C 39.39 31.61 33.15 37.24 33.30 43.93 Z" />
</g>
</svg>
