<?xml version="1.0" encoding="UTF-8" ?>
<!DOCTYPE svg PUBLIC "-//W3C//DTD SVG 1.1//EN" "http://www.w3.org/Graphics/SVG/1.1/DTD/svg11.dtd">
<svg width="192pt" height="192pt" viewBox="0 0 192 192" version="1.1" xmlns="http://www.w3.org/2000/svg">
<g id="#b01df1ff">
<path fill="#b01df1" opacity="1.00" d=" M 82.44 14.54 C 102.77 11.46 124.26 16.01 141.22 27.76 C 162.66 42.15 176.76 67.12 177.16 93.02 C 178.16 117.66 167.13 142.42 148.23 158.25 C 124.67 178.85 88.96 183.61 60.72 170.25 C 31.33 157.01 11.63 125.22 13.03 92.99 C 13.43 54.64 44.49 19.74 82.44 14.54 M 54.81 37.79 C 32.22 53.05 20.58 81.93 25.57 108.66 C 30.57 109.99 35.54 111.46 40.32 113.48 C 37.77 99.48 36.50 85.12 38.13 70.95 C 38.43 66.61 43.99 63.94 47.58 66.41 C 57.37 72.65 66.10 80.45 73.85 89.10 C 77.05 74.24 82.08 59.41 90.79 46.83 C 92.66 43.18 98.38 42.86 100.46 46.45 C 108.31 59.44 113.93 73.80 117.13 88.64 C 124.72 80.32 133.19 72.73 142.61 66.54 C 146.39 63.78 152.45 66.29 152.84 71.04 C 153.98 85.03 153.96 99.29 150.97 113.06 C 155.47 111.46 160.04 110.07 164.64 108.76 C 168.98 84.83 160.45 59.00 142.00 42.98 C 118.66 21.48 80.53 19.18 54.81 37.79 M 82.77 103.93 C 82.19 108.55 75.39 110.08 72.88 106.12 C 66.05 96.65 58.05 87.96 48.67 80.95 C 48.28 95.43 50.82 109.82 53.79 123.90 C 53.73 127.49 49.59 130.00 46.34 128.58 C 40.56 126.23 35.09 123.14 29.10 121.28 C 37.85 144.42 59.58 162.09 84.10 165.65 C 115.91 171.26 149.70 151.85 160.93 121.60 C 155.20 123.33 149.86 126.03 144.45 128.51 C 140.08 130.43 135.40 125.45 137.29 121.15 C 141.16 108.08 142.88 94.45 142.09 80.82 C 132.70 87.80 124.83 96.55 118.08 106.06 C 115.32 110.47 107.80 108.15 107.93 102.97 C 106.42 88.31 102.12 73.99 95.51 60.83 C 88.46 74.17 84.71 89.03 82.77 103.93 Z" />
</g>
</svg>
