<?xml version="1.0" encoding="UTF-8" ?>
<!DOCTYPE svg PUBLIC "-//W3C//DTD SVG 1.1//EN" "http://www.w3.org/Graphics/SVG/1.1/DTD/svg11.dtd">
<svg width="192pt" height="192pt" viewBox="0 0 192 192" version="1.1" xmlns="http://www.w3.org/2000/svg">
<g id="#8492a1ff">
<path fill="#8492a1" opacity="1.00" d=" M 85.34 14.38 C 117.02 9.84 150.24 26.05 166.31 53.67 C 178.65 74.06 181.23 99.92 173.41 122.39 C 163.77 151.08 137.05 173.05 107.00 176.81 C 75.39 181.51 42.10 165.57 25.88 138.07 C 8.32 109.93 10.57 71.21 31.29 45.31 C 44.34 28.45 64.17 17.02 85.34 14.38 M 47.88 43.88 C 34.81 55.84 26.69 72.89 25.44 90.55 C 27.95 90.57 30.46 90.60 32.97 90.61 C 33.32 84.24 32.30 77.71 33.49 71.44 C 36.36 70.33 43.53 69.08 43.29 73.96 C 43.42 88.77 43.26 103.58 43.35 118.39 C 40.27 119.41 36.50 120.11 33.54 118.52 C 32.24 112.30 33.40 105.76 32.89 99.41 C 30.38 99.43 27.86 99.44 25.34 99.45 C 26.55 132.58 54.01 162.20 86.99 165.73 C 119.20 170.47 152.46 149.71 162.73 118.91 C 159.79 112.52 157.43 105.89 154.76 99.39 C 152.22 99.38 149.67 99.38 147.13 99.35 C 147.05 104.59 147.15 109.83 147.10 115.07 C 148.21 120.77 139.70 120.34 136.91 117.97 C 136.53 103.32 136.82 88.63 136.77 73.96 C 136.36 69.03 143.56 70.42 146.55 71.39 C 147.74 77.69 146.80 84.20 147.09 90.59 C 149.58 90.59 152.07 90.59 154.57 90.58 C 157.05 83.93 159.24 77.16 162.08 70.65 C 154.58 50.54 137.41 34.35 116.88 28.11 C 93.24 20.74 65.82 26.65 47.88 43.88 M 166.13 87.86 C 162.85 92.35 163.58 97.44 166.39 101.88 C 166.67 97.21 166.68 92.51 166.13 87.86 Z" />
<path fill="#8492a1" opacity="1.00" d=" M 60.37 70.49 C 67.30 69.91 74.68 69.25 81.32 71.76 C 87.29 74.64 86.99 82.37 87.12 88.00 C 86.71 96.26 88.08 104.76 85.92 112.84 C 84.29 118.79 77.31 119.85 72.06 119.82 C 66.05 119.65 59.22 120.74 54.06 116.96 C 49.60 112.58 50.42 105.70 50.27 100.00 C 50.63 92.47 49.39 84.73 51.35 77.36 C 52.30 73.21 56.39 70.92 60.37 70.49 M 63.28 79.35 C 60.27 80.44 60.73 84.42 60.54 87.00 C 60.76 93.96 60.03 100.98 61.01 107.88 C 61.73 111.55 66.19 111.12 69.02 111.19 C 72.07 111.39 76.54 110.84 76.53 106.86 C 76.99 98.98 76.98 91.02 76.54 83.14 C 75.76 77.00 67.56 78.58 63.28 79.35 Z" />
<path fill="#8492a1" opacity="1.00" d=" M 103.36 70.44 C 110.98 70.15 120.04 68.48 126.50 73.51 C 131.69 80.51 129.09 89.91 129.75 98.00 C 129.44 104.73 131.20 114.22 124.15 118.13 C 116.86 120.75 108.68 120.12 101.14 119.05 C 94.58 118.03 92.81 110.66 92.98 105.03 C 93.21 96.24 92.26 87.33 93.68 78.62 C 94.33 73.82 98.75 70.74 103.36 70.44 M 105.42 79.55 C 102.11 82.24 103.67 87.28 103.26 91.00 C 103.80 97.13 102.07 103.77 104.44 109.56 C 108.24 111.95 114.73 112.12 118.37 109.39 C 120.60 101.24 119.09 92.39 119.32 83.97 C 119.25 77.00 109.96 78.30 105.42 79.55 Z" />
</g>
</svg>
