<?xml version="1.0" encoding="UTF-8" ?>
<!DOCTYPE svg PUBLIC "-//W3C//DTD SVG 1.1//EN" "http://www.w3.org/Graphics/SVG/1.1/DTD/svg11.dtd">
<svg width="192pt" height="192pt" viewBox="0 0 192 192" version="1.1" xmlns="http://www.w3.org/2000/svg">
<g id="#2d9fddff">
<path fill="#2d9fdd" opacity="1.00" d=" M 84.44 13.60 C 103.13 11.17 122.90 14.88 138.79 25.21 C 143.72 28.98 138.18 37.32 132.73 34.19 C 114.28 23.02 90.75 20.70 70.58 28.49 C 66.59 29.82 63.07 32.31 59.00 33.40 C 54.19 33.24 51.51 26.58 55.47 23.53 C 64.24 18.17 74.31 15.11 84.44 13.60 Z" />
<path fill="#2d9fdd" opacity="1.00" d=" M 48.32 37.39 C 66.24 33.38 84.87 45.40 90.78 62.33 C 96.71 79.61 94.45 99.16 86.61 115.47 C 80.24 129.13 64.62 138.04 49.60 135.61 C 36.30 134.15 25.02 124.31 19.79 112.29 C 13.35 97.11 12.00 79.44 17.83 63.85 C 22.41 50.49 34.47 40.09 48.32 37.39 M 50.39 48.55 C 40.56 50.62 31.89 57.89 28.56 67.44 C 23.60 80.18 24.86 94.64 29.91 107.15 C 33.39 115.44 40.68 122.56 49.72 124.25 C 59.90 126.23 70.96 120.95 75.72 111.71 C 82.67 98.53 84.74 82.59 80.80 68.17 C 77.23 55.44 63.80 45.48 50.39 48.55 Z" />
<path fill="#2d9fdd" opacity="1.00" d=" M 132.30 37.32 C 146.51 34.56 161.85 41.28 169.28 53.73 C 179.77 70.27 179.78 91.81 172.69 109.65 C 166.90 124.41 152.11 135.76 135.99 135.72 C 124.69 135.94 113.86 129.72 107.62 120.44 C 97.28 105.46 95.00 85.76 99.28 68.31 C 102.97 52.66 116.47 40.04 132.30 37.32 M 134.40 48.53 C 120.56 50.63 110.24 63.30 109.10 76.96 C 107.27 92.93 110.67 112.50 125.33 121.64 C 138.57 128.96 155.52 120.32 161.27 107.28 C 168.08 91.92 168.57 72.52 158.66 58.36 C 153.44 50.62 143.50 46.86 134.40 48.53 Z" />
<path fill="#2d9fdd" opacity="1.00" d=" M 52.26 68.29 C 60.43 65.84 66.96 73.66 68.13 81.01 C 69.63 90.52 69.29 100.98 64.55 109.59 C 61.80 114.73 55.18 118.71 49.62 115.29 C 41.33 110.04 39.36 99.15 39.58 90.04 C 39.94 81.51 43.35 71.22 52.26 68.29 Z" />
<path fill="#2d9fdd" opacity="1.00" d=" M 135.32 68.42 C 141.06 66.46 147.12 70.39 149.33 75.67 C 153.45 85.28 152.68 96.48 149.26 106.18 C 147.12 112.37 140.46 118.73 133.53 115.55 C 125.22 111.06 122.89 100.69 122.71 91.98 C 122.63 82.92 125.87 71.71 135.32 68.42 Z" />
<path fill="#2d9fdd" opacity="1.00" d=" M 92.11 129.14 C 93.45 127.96 95.49 126.16 97.23 127.74 C 101.20 131.29 105.94 133.85 111.03 135.39 C 107.59 141.86 100.90 146.27 95.97 151.72 C 90.03 147.13 85.20 141.25 79.87 135.98 C 84.01 133.81 88.56 132.29 92.11 129.14 Z" />
<path fill="#2d9fdd" opacity="1.00" d=" M 153.44 137.49 C 157.97 134.15 164.03 140.44 161.03 144.96 C 149.88 159.94 133.28 170.71 115.15 175.11 C 86.03 182.52 53.26 172.13 33.89 149.14 C 30.80 145.96 33.62 139.98 38.00 140.23 C 40.96 139.92 42.66 142.69 44.54 144.47 C 57.46 158.23 76.16 166.20 95.01 166.35 C 117.84 166.96 139.43 155.07 153.44 137.49 Z" />
</g>
</svg>
