<?xml version="1.0" encoding="UTF-8" ?>
<!DOCTYPE svg PUBLIC "-//W3C//DTD SVG 1.1//EN" "http://www.w3.org/Graphics/SVG/1.1/DTD/svg11.dtd">
<svg width="192pt" height="192pt" viewBox="0 0 192 192" version="1.1" xmlns="http://www.w3.org/2000/svg">
<g id="#a61affff">
<path fill="#a61aff" opacity="1.00" d=" M 14.20 78.96 C 14.35 74.41 19.66 72.47 23.55 73.38 C 24.70 78.51 24.02 83.77 24.07 88.96 C 29.61 89.08 35.15 89.11 40.69 88.93 C 40.77 83.69 40.06 78.39 41.14 73.21 C 45.10 72.64 50.42 74.49 50.57 79.14 C 50.62 89.71 50.77 100.29 50.50 110.86 C 50.20 115.39 44.71 117.03 40.89 116.18 C 40.27 110.85 40.73 105.49 40.58 100.15 C 35.08 100.07 29.57 100.14 24.07 100.09 C 24.06 105.39 24.52 110.72 23.79 115.99 C 19.66 117.51 14.00 114.84 14.10 110.06 C 14.09 99.69 13.94 89.32 14.20 78.96 Z" />
<path fill="#a61aff" opacity="1.00" d=" M 61.43 77.41 C 69.03 71.63 80.69 71.55 87.90 78.06 C 87.06 81.11 86.12 84.14 85.05 87.11 C 78.65 83.85 68.59 81.83 64.41 89.42 C 58.81 98.38 70.59 110.78 79.61 104.63 C 88.70 97.47 88.91 83.51 98.58 76.67 C 109.37 68.68 126.60 74.56 130.81 87.14 C 134.87 97.41 129.54 110.20 119.45 114.60 C 112.72 117.47 104.26 117.08 98.37 112.51 C 98.11 109.42 99.85 106.50 100.62 103.54 C 104.74 105.12 109.25 107.09 113.72 105.70 C 120.26 103.87 124.13 95.42 120.57 89.45 C 117.63 83.27 108.16 81.18 103.39 86.39 C 96.90 94.04 95.37 104.95 87.77 111.78 C 78.89 119.38 63.88 117.35 57.20 107.78 C 50.10 98.67 52.10 84.23 61.43 77.41 Z" />
<path fill="#a61aff" opacity="1.00" d=" M 142.56 77.59 C 150.25 71.33 162.37 71.63 169.78 78.20 C 178.19 85.06 179.99 98.50 173.51 107.26 C 175.03 109.48 176.51 111.74 177.99 114.00 C 174.46 117.00 169.47 116.89 165.70 114.39 C 156.69 118.58 144.73 116.45 138.77 108.19 C 131.58 99.20 133.30 84.50 142.56 77.59 M 146.48 101.55 C 149.45 106.45 155.56 106.19 160.52 107.03 C 158.07 104.19 155.76 101.22 153.83 98.00 C 157.64 93.93 163.80 93.78 167.08 98.57 C 169.16 90.99 163.10 82.42 154.98 83.29 C 146.25 83.45 141.29 94.73 146.48 101.55 Z" />
</g>
</svg>
