<?xml version="1.0" encoding="UTF-8" ?>
<!DOCTYPE svg PUBLIC "-//W3C//DTD SVG 1.1//EN" "http://www.w3.org/Graphics/SVG/1.1/DTD/svg11.dtd">
<svg width="192pt" height="192pt" viewBox="0 0 192 192" version="1.1" xmlns="http://www.w3.org/2000/svg">
<g id="#8492a2ff">
<path fill="#8492a2" opacity="1.00" d=" M 26.09 31.82 C 20.07 30.55 22.91 21.59 28.12 21.36 C 39.27 20.68 50.32 24.05 60.30 28.82 C 80.97 18.71 106.25 18.36 126.84 28.86 C 138.13 23.51 150.71 21.67 163.07 21.00 C 167.94 20.51 171.35 25.42 170.76 29.94 C 170.94 68.97 170.81 108.01 170.83 147.05 C 171.23 159.38 160.33 170.45 148.06 170.52 C 113.69 170.58 79.32 170.58 44.96 170.52 C 32.61 170.56 21.74 159.39 22.05 147.05 C 22.08 113.35 21.90 79.64 22.14 45.94 C 22.35 39.49 32.90 39.56 33.12 46.00 C 33.52 79.98 33.10 114.00 33.33 148.00 C 33.50 154.43 39.63 159.77 46.00 159.39 C 79.66 159.39 113.33 159.42 146.99 159.39 C 153.62 159.75 160.10 153.80 159.42 147.01 C 159.45 108.82 159.54 70.64 159.41 32.45 C 149.54 33.38 139.53 35.04 130.61 39.59 C 127.85 41.16 124.54 40.65 121.90 39.10 C 104.22 29.75 82.05 30.29 64.43 39.49 C 61.72 41.07 58.39 40.84 55.76 39.23 C 46.67 34.30 36.31 32.41 26.09 31.82 Z" />
<path fill="#8492a2" opacity="1.00" d=" M 55.46 57.49 C 67.46 47.93 86.19 49.45 96.85 60.34 C 107.17 50.24 124.57 48.03 136.57 56.43 C 147.95 63.72 153.01 78.93 148.67 91.66 C 143.94 106.15 127.15 115.70 112.31 111.63 C 106.48 109.37 104.64 117.95 99.20 118.46 C 93.04 120.19 88.55 114.93 84.78 110.98 C 71.14 115.15 54.89 109.96 47.77 97.23 C 39.77 84.49 43.35 66.35 55.46 57.49 M 55.49 70.46 C 50.29 78.50 51.65 89.86 58.32 96.65 C 64.19 103.03 74.04 105.32 82.10 102.08 C 88.69 97.89 91.89 107.49 96.87 110.24 C 101.48 107.35 104.71 98.41 111.03 101.98 C 122.58 107.38 137.46 99.82 140.65 87.69 C 144.74 74.24 133.10 59.10 118.98 60.12 C 108.08 59.76 99.21 68.42 96.77 78.61 C 94.68 69.23 87.07 60.75 77.07 60.19 C 68.65 59.00 59.78 63.07 55.49 70.46 Z" />
<path fill="#8492a2" opacity="1.00" d=" M 63.07 80.10 C 64.54 74.27 70.85 71.35 76.48 72.12 C 74.46 74.68 72.65 78.81 75.59 81.43 C 78.28 84.09 82.08 82.29 84.42 80.14 C 85.98 86.33 81.46 93.21 74.98 93.68 C 67.67 94.90 60.80 87.22 63.07 80.10 Z" />
<path fill="#8492a2" opacity="1.00" d=" M 116.79 72.26 C 122.68 71.17 129.10 74.77 130.33 80.82 C 132.17 87.85 125.21 94.99 118.15 93.75 C 111.57 93.23 107.48 86.22 108.77 80.05 C 111.17 82.49 115.40 84.23 118.06 81.13 C 120.81 78.42 118.70 74.72 116.79 72.26 Z" />
</g>
</svg>
