<?xml version="1.0" encoding="UTF-8" ?>
<!DOCTYPE svg PUBLIC "-//W3C//DTD SVG 1.1//EN" "http://www.w3.org/Graphics/SVG/1.1/DTD/svg11.dtd">
<svg width="192pt" height="192pt" viewBox="0 0 192 192" version="1.1" xmlns="http://www.w3.org/2000/svg">
<g id="#606f80ff">
<path fill="#606f80" opacity="1.00" d=" M 38.36 21.53 C 42.16 20.55 46.11 20.73 50.00 20.72 C 82.33 20.78 114.66 20.67 146.99 20.76 C 158.83 20.74 169.48 31.10 169.79 42.94 C 169.83 50.25 170.12 57.59 169.66 64.88 C 169.01 70.16 160.82 70.70 159.12 65.78 C 157.92 57.99 159.29 50.01 158.46 42.17 C 157.61 36.37 151.95 31.60 146.03 32.14 C 112.34 32.48 78.66 31.48 44.97 31.91 C 39.31 31.78 33.74 35.75 32.58 41.39 C 31.49 49.46 33.14 57.75 31.75 65.77 C 30.07 70.71 22.02 70.11 21.25 64.91 C 20.65 57.95 21.12 50.92 21.06 43.93 C 20.98 33.69 28.49 24.11 38.36 21.53 Z" />
<path fill="#606f80" opacity="1.00" d=" M 18.18 81.01 C 18.13 77.08 24.82 76.59 25.72 80.21 C 26.44 83.83 26.08 87.56 26.12 91.24 C 26.64 91.21 27.67 91.16 28.19 91.14 C 28.25 87.54 27.96 83.90 28.45 80.32 C 29.16 76.53 35.97 77.07 36.06 80.98 C 36.45 90.31 36.28 99.69 36.17 109.02 C 36.48 113.03 30.78 113.96 28.78 111.14 C 27.14 107.08 29.79 101.77 26.42 98.42 C 25.92 102.50 26.57 106.69 25.63 110.71 C 24.28 114.17 17.74 113.08 18.14 109.04 C 17.98 99.71 17.92 90.34 18.18 81.01 Z" />
<path fill="#606f80" opacity="1.00" d=" M 48.28 78.32 C 53.48 76.31 59.75 80.40 60.07 85.95 C 60.43 92.29 60.51 98.69 60.01 105.02 C 59.42 111.13 51.69 114.94 46.59 111.38 C 40.92 107.92 42.29 100.60 42.15 95.01 C 41.99 89.08 41.24 80.66 48.28 78.32 M 50.34 85.53 C 49.95 91.69 50.19 97.87 50.10 104.04 C 50.60 104.23 51.60 104.61 52.10 104.80 C 51.49 98.65 54.84 90.24 50.34 85.53 Z" />
<path fill="#606f80" opacity="1.00" d=" M 66.60 82.97 C 66.36 75.65 77.07 76.84 81.19 79.79 C 87.54 84.69 82.48 92.84 84.26 99.23 C 84.71 103.20 85.00 107.31 84.19 111.25 C 82.50 113.26 78.33 113.44 77.08 110.88 C 76.33 106.82 76.97 102.62 76.13 98.55 C 73.08 102.08 75.66 107.09 74.03 111.11 C 72.21 114.09 66.28 112.96 66.76 109.04 C 66.61 100.35 66.63 91.65 66.60 82.97 M 74.58 86.17 C 74.58 87.74 74.58 89.31 74.58 90.88 C 75.08 90.86 76.08 90.82 76.59 90.80 C 76.60 89.28 76.60 87.76 76.60 86.24 C 76.10 86.22 75.09 86.19 74.58 86.17 Z" />
<path fill="#606f80" opacity="1.00" d=" M 94.24 78.17 C 101.78 75.62 100.67 85.50 100.37 90.06 C 101.09 95.06 91.63 95.04 92.41 90.00 C 92.74 86.20 90.91 80.92 94.24 78.17 Z" />
<path fill="#606f80" opacity="1.00" d=" M 109.58 85.38 C 106.17 83.51 107.64 76.99 111.94 77.83 C 116.40 78.46 125.38 75.21 125.77 82.01 C 125.22 90.19 119.59 96.88 116.82 104.40 C 118.86 104.50 120.91 104.51 122.93 104.85 C 126.84 105.30 126.71 112.45 122.73 112.58 C 118.39 112.86 113.94 113.09 109.64 112.37 C 106.78 110.79 107.75 106.89 108.36 104.31 C 110.55 98.14 113.80 92.41 116.35 86.39 C 114.09 86.12 111.77 86.05 109.58 85.38 Z" />
<path fill="#606f80" opacity="1.00" d=" M 136.36 78.45 C 142.49 75.66 149.61 81.45 148.86 87.95 C 148.00 95.20 151.19 103.99 146.09 110.08 C 140.70 116.21 129.95 110.92 130.72 103.00 C 131.20 94.99 127.50 82.96 136.36 78.45 M 138.80 86.18 C 138.71 92.40 138.53 98.64 138.96 104.86 C 139.41 104.60 140.30 104.10 140.75 103.84 C 140.82 97.96 140.86 92.07 140.68 86.19 C 140.21 86.18 139.27 86.18 138.80 86.18 Z" />
<path fill="#606f80" opacity="1.00" d=" M 154.76 86.01 C 154.99 83.20 153.86 78.05 158.01 77.84 C 162.76 76.84 163.42 82.60 164.65 85.78 C 164.90 83.69 164.86 81.54 165.51 79.52 C 167.01 76.52 172.90 77.36 172.70 81.09 C 172.94 90.39 172.86 99.72 172.75 109.03 C 173.37 112.96 167.67 113.99 165.68 111.33 C 164.54 109.66 163.92 107.71 163.15 105.86 C 164.21 110.43 159.55 115.41 155.61 111.42 C 153.74 103.21 155.33 94.43 154.76 86.01 Z" />
<path fill="#606f80" opacity="1.00" d=" M 94.20 97.21 C 101.90 94.56 100.67 104.43 100.33 109.08 C 100.81 114.08 91.97 113.91 92.48 109.02 C 92.83 105.27 90.80 99.80 94.20 97.21 Z" />
<path fill="#606f80" opacity="1.00" d=" M 25.34 121.30 C 28.38 120.52 31.84 122.80 32.06 125.99 C 32.69 133.26 31.83 140.59 32.43 147.87 C 33.08 153.94 38.94 158.68 45.00 158.33 C 78.66 158.33 112.34 158.33 146.00 158.31 C 152.04 158.62 157.81 153.85 158.49 147.83 C 159.09 140.57 158.27 133.26 158.83 125.99 C 159.01 121.84 164.57 119.62 167.66 122.31 C 170.16 124.03 169.85 127.33 169.91 129.99 C 169.76 136.28 170.11 142.59 169.69 148.88 C 168.65 160.16 158.29 169.51 146.98 169.55 C 112.66 169.62 78.34 169.59 44.02 169.55 C 32.71 169.57 22.41 160.25 21.25 149.02 C 20.72 142.01 21.04 134.95 21.00 127.92 C 20.75 125.05 22.32 121.89 25.34 121.30 Z" />
</g>
</svg>
