<?xml version="1.0" encoding="UTF-8" ?>
<!DOCTYPE svg PUBLIC "-//W3C//DTD SVG 1.1//EN" "http://www.w3.org/Graphics/SVG/1.1/DTD/svg11.dtd">
<svg width="192pt" height="192pt" viewBox="0 0 192 192" version="1.1" xmlns="http://www.w3.org/2000/svg">
<g id="#ff643bff">
<path fill="#ff643b" opacity="1.00" d=" M 33.76 14.58 C 52.03 21.34 69.59 29.96 87.59 37.43 C 90.56 38.92 94.59 39.58 95.92 43.04 C 99.64 51.42 103.80 59.63 107.15 68.17 C 92.65 57.90 79.48 45.86 65.10 35.43 C 60.43 36.36 55.75 39.47 51.12 39.11 C 45.05 31.17 38.98 23.12 33.76 14.58 Z" />
<path fill="#ff643b" opacity="1.00" d=" M 104.39 22.58 C 119.26 22.16 134.18 22.50 149.06 22.42 C 161.16 22.27 172.07 32.90 172.17 45.01 C 172.28 79.34 172.24 113.67 172.20 147.99 C 172.27 159.55 162.53 169.98 151.04 170.87 C 145.06 171.24 139.01 171.40 133.05 170.84 C 127.74 170.10 127.12 161.82 132.21 160.22 C 138.55 159.17 145.07 160.54 151.43 159.49 C 157.06 158.34 161.31 152.80 160.97 147.05 C 160.95 113.35 160.99 79.64 160.95 45.93 C 161.24 39.43 155.46 33.55 148.99 33.57 C 134.32 33.41 119.64 33.72 104.97 33.44 C 98.74 33.40 98.28 23.33 104.39 22.58 Z" />
<path fill="#ff643b" opacity="1.00" d=" M 57.98 39.85 C 60.91 39.09 64.52 37.10 67.04 39.82 C 78.18 49.00 90.10 57.31 100.78 67.01 C 76.77 63.64 52.93 59.06 29.00 55.20 C 25.02 54.33 20.66 54.49 17.11 52.26 C 30.56 47.60 44.44 44.26 57.98 39.85 Z" />
<path fill="#ff643b" opacity="1.00" d=" M 25.42 66.47 C 29.25 63.60 34.79 67.40 34.12 71.96 C 34.24 96.99 34.12 122.03 34.18 147.07 C 33.92 152.22 37.26 157.23 42.10 159.01 C 47.74 161.00 53.95 158.82 59.62 160.45 C 64.03 162.35 63.47 169.60 58.77 170.70 C 53.61 171.53 48.29 171.24 43.09 170.72 C 32.07 169.36 22.97 159.19 23.01 148.04 C 22.88 123.36 23.03 98.68 22.94 74.00 C 22.96 71.36 22.82 68.04 25.42 66.47 Z" />
<path fill="#ff643b" opacity="1.00" d=" M 82.32 76.35 C 85.75 73.11 88.66 66.84 94.34 68.50 C 107.02 71.13 119.80 73.30 132.43 76.13 C 123.27 88.62 112.96 100.23 103.41 112.44 C 102.09 113.73 100.86 116.43 98.61 115.45 C 92.92 113.25 87.39 110.61 81.81 108.15 C 79.78 101.45 77.79 94.73 75.98 87.97 C 74.31 82.90 79.72 79.83 82.32 76.35 Z" />
<path fill="#ff643b" opacity="1.00" d=" M 145.80 86.86 C 146.82 81.66 148.12 76.46 150.33 71.63 C 153.57 77.33 149.85 82.88 145.80 86.86 Z" />
<path fill="#ff643b" opacity="1.00" d=" M 122.42 94.45 C 126.30 88.99 130.45 83.64 135.03 78.76 C 139.13 81.65 141.80 86.19 145.23 89.82 C 148.02 92.63 145.66 96.57 144.67 99.64 C 141.85 107.17 136.36 115.52 127.50 115.96 C 125.73 108.82 123.25 101.73 122.42 94.45 Z" />
<path fill="#ff643b" opacity="1.00" d=" M 61.08 115.09 C 66.56 109.65 75.73 107.45 82.62 111.47 C 87.78 114.40 93.54 116.40 98.30 119.97 C 98.24 124.60 97.47 129.21 96.63 133.76 C 80.49 132.48 64.41 130.16 48.36 128.05 C 52.09 123.26 56.81 119.38 61.08 115.09 Z" />
<path fill="#ff643b" opacity="1.00" d=" M 48.51 132.53 C 64.58 133.89 80.67 135.60 96.64 137.87 C 88.85 147.01 81.12 156.32 73.01 165.15 C 64.57 154.50 56.31 143.66 48.51 132.53 Z" />
<path fill="#ff643b" opacity="1.00" d=" M 75.18 167.03 C 80.18 161.51 85.33 156.00 91.01 151.20 C 101.83 155.81 112.60 160.87 122.69 166.96 C 115.49 168.93 108.04 169.54 100.69 170.64 C 92.02 172.19 83.46 169.22 75.18 167.03 Z" />
</g>
</svg>
