<?xml version="1.0" encoding="UTF-8" ?>
<!DOCTYPE svg PUBLIC "-//W3C//DTD SVG 1.1//EN" "http://www.w3.org/Graphics/SVG/1.1/DTD/svg11.dtd">
<svg width="192pt" height="192pt" viewBox="0 0 192 192" version="1.1" xmlns="http://www.w3.org/2000/svg">
<g id="#ff3662ff">
<path fill="#ff3662" opacity="1.00" d=" M 107.92 22.08 C 101.95 19.89 105.16 9.97 111.30 11.56 C 138.98 17.80 161.75 39.01 173.64 64.31 C 175.82 68.89 170.17 73.79 165.88 71.29 C 143.96 59.89 121.69 48.86 98.19 41.11 C 103.94 45.31 110.19 48.81 115.83 53.19 C 140.15 71.04 160.00 96.34 167.09 126.04 C 168.62 130.63 162.66 135.11 158.75 132.18 C 133.19 105.54 105.19 79.09 70.27 65.47 C 102.58 87.91 131.43 118.16 143.64 156.32 C 145.06 159.60 142.54 163.86 138.89 163.88 C 134.06 164.21 131.97 158.89 128.83 156.15 C 106.02 132.33 79.82 110.22 48.38 98.95 C 70.21 116.59 89.16 139.72 95.44 167.63 C 96.57 172.25 90.50 176.22 86.78 173.16 C 73.02 163.22 59.57 152.85 45.81 142.91 C 50.80 151.11 57.70 157.84 64.39 164.62 C 68.52 169.39 61.28 176.49 56.59 172.40 C 42.84 159.95 30.88 144.62 25.31 126.72 C 23.11 121.94 28.99 116.68 33.39 119.69 C 48.55 130.59 63.33 142.04 78.51 152.93 C 66.14 126.59 43.24 106.62 17.99 92.98 C 12.99 90.09 16.36 81.76 21.95 82.81 C 59.33 83.71 91.21 106.67 118.61 129.95 C 98.86 98.17 67.91 74.62 34.54 58.52 C 30.03 56.08 32.04 48.44 37.11 48.34 C 53.38 47.21 69.46 52.08 84.04 58.94 C 107.14 69.92 127.20 86.13 146.09 103.15 C 127.45 69.94 93.49 48.18 58.36 35.66 C 54.14 33.97 54.34 27.15 58.60 25.61 C 67.69 22.13 77.72 24.08 86.93 26.06 C 109.97 31.77 131.61 41.84 152.98 51.95 C 141.87 37.30 125.81 26.45 107.92 22.08 Z" />
</g>
</svg>
