<?xml version="1.0" encoding="UTF-8" ?>
<!DOCTYPE svg PUBLIC "-//W3C//DTD SVG 1.1//EN" "http://www.w3.org/Graphics/SVG/1.1/DTD/svg11.dtd">
<svg width="192pt" height="192pt" viewBox="0 0 192 192" version="1.1" xmlns="http://www.w3.org/2000/svg">
<g id="#a4e737ff">
<path fill="#a4e737" opacity="1.00" d=" M 96.05 20.08 C 103.96 14.18 116.18 16.06 121.86 24.14 C 128.81 33.98 130.04 46.38 131.53 57.99 C 145.26 54.75 155.31 67.87 162.27 77.76 C 174.59 93.32 182.02 115.35 173.39 134.38 C 165.55 152.13 143.81 162.93 125.06 157.08 C 120.93 155.91 116.80 152.90 112.36 154.49 C 107.81 157.17 103.86 160.81 99.00 162.99 C 81.63 172.17 59.79 170.73 42.93 161.10 C 26.15 151.15 14.74 132.51 13.84 112.98 C 12.98 96.08 19.68 78.68 32.42 67.39 C 42.33 58.74 54.15 52.79 65.69 46.67 C 77.75 40.18 85.13 27.99 96.05 20.08 M 102.40 29.36 C 95.55 34.43 90.36 41.35 84.01 47.00 C 73.00 57.88 57.54 62.07 45.44 71.45 C 32.90 79.53 25.27 94.15 25.05 108.97 C 24.45 127.45 35.81 145.73 52.60 153.44 C 65.81 159.27 81.80 159.66 94.62 152.56 C 100.90 149.55 105.67 143.35 112.97 142.72 C 120.46 141.54 126.69 147.05 134.00 147.30 C 148.02 148.16 162.28 137.96 165.04 123.98 C 167.75 111.44 163.12 98.36 155.80 88.20 C 150.38 80.63 145.29 71.70 136.07 68.31 C 133.05 72.75 125.75 76.93 122.15 70.77 C 119.09 57.84 120.44 43.41 113.34 31.61 C 111.26 27.73 105.86 26.69 102.40 29.36 Z" />
<path fill="#a4e737" opacity="1.00" d=" M 91.37 70.40 C 97.61 67.49 105.15 72.53 105.90 79.13 C 107.83 93.66 108.14 109.01 102.83 122.89 C 98.30 134.61 85.17 141.10 73.02 139.80 C 58.44 138.81 46.18 125.62 45.96 111.06 C 45.33 98.89 53.60 87.10 64.96 82.98 C 70.00 81.19 75.33 80.27 80.28 78.22 C 84.55 76.47 87.23 72.35 91.37 70.40 M 69.35 93.38 C 58.58 96.60 53.58 110.70 60.05 119.95 C 66.51 131.41 85.83 131.71 91.86 119.76 C 97.09 107.75 96.23 94.19 94.98 81.45 C 88.22 88.64 78.46 90.82 69.35 93.38 Z" />
<path fill="#a4e737" opacity="1.00" d=" M 135.30 96.31 C 145.67 93.56 156.72 102.40 156.69 113.02 C 157.24 123.00 147.90 131.99 137.97 131.15 C 129.24 130.62 121.85 122.74 121.70 114.03 C 121.34 105.88 127.32 98.03 135.30 96.31 M 137.39 107.44 C 132.67 108.73 131.43 115.67 135.44 118.50 C 138.77 121.50 144.34 119.10 145.26 114.96 C 146.47 110.56 141.78 105.93 137.39 107.44 Z" />
</g>
</svg>
