<?xml version="1.0" encoding="UTF-8" ?>
<!DOCTYPE svg PUBLIC "-//W3C//DTD SVG 1.1//EN" "http://www.w3.org/Graphics/SVG/1.1/DTD/svg11.dtd">
<svg width="192pt" height="192pt" viewBox="0 0 192 192" version="1.1" xmlns="http://www.w3.org/2000/svg">
<g id="#1bb3ffff">
<path fill="#1bb3ff" opacity="1.00" d=" M 49.39 21.37 C 50.65 20.35 52.48 20.91 53.99 20.71 C 83.00 20.80 112.02 20.67 141.03 20.76 C 144.12 20.20 144.49 23.78 144.37 25.99 C 144.27 35.33 144.56 44.69 144.24 54.02 C 144.07 59.60 135.24 60.68 133.76 55.31 C 132.70 47.96 134.04 40.44 133.13 33.06 C 132.43 31.40 130.52 31.67 129.06 31.57 C 107.36 31.58 85.65 31.60 63.94 31.55 C 62.46 31.56 60.82 31.60 59.69 32.71 C 58.79 40.07 60.03 47.57 59.11 54.93 C 57.88 60.63 48.51 59.75 48.58 53.84 C 48.95 43.12 47.32 31.68 49.39 21.37 Z" />
<path fill="#1bb3ff" opacity="1.00" d=" M 21.16 78.91 C 21.15 69.11 30.16 60.63 39.93 61.10 C 77.31 61.03 114.69 61.01 152.06 61.05 C 161.40 60.67 170.31 68.49 170.68 77.91 C 170.90 92.96 170.83 108.02 170.74 123.07 C 170.85 130.46 165.76 137.44 158.83 139.85 C 154.10 141.49 149.00 141.10 144.08 141.08 C 143.87 148.69 144.52 156.34 143.70 163.91 C 143.22 168.14 139.01 170.75 134.98 170.51 C 108.99 170.59 83.00 170.57 57.01 170.49 C 52.98 170.81 48.71 168.16 48.24 163.93 C 47.61 156.30 48.26 148.61 47.89 140.96 C 43.54 140.80 39.13 141.11 34.82 140.30 C 26.98 138.65 21.10 131.04 21.12 123.08 C 21.04 108.36 21.00 93.63 21.16 78.91 M 32.15 78.94 C 32.04 94.19 31.70 109.50 32.37 124.72 C 34.22 131.66 42.62 129.91 48.01 130.02 C 48.07 123.00 47.75 115.96 48.19 108.94 C 48.41 104.56 52.77 101.59 56.95 101.91 C 82.98 101.85 109.02 101.81 135.04 101.92 C 139.25 101.61 143.56 104.68 143.78 109.06 C 144.14 116.01 143.81 122.98 143.93 129.93 C 149.46 130.13 158.41 131.31 159.62 123.88 C 160.14 109.25 159.80 94.55 159.80 79.90 C 160.03 75.66 156.40 71.81 152.09 72.15 C 114.70 72.07 77.31 72.11 39.92 72.13 C 36.03 71.80 32.09 74.90 32.15 78.94 M 59.23 112.87 C 59.17 128.40 59.22 143.93 59.20 159.46 C 83.71 159.46 108.22 159.45 132.73 159.45 C 132.74 144.00 132.77 128.54 132.72 113.09 C 108.22 113.18 83.73 112.71 59.23 112.87 Z" />
<path fill="#1bb3ff" opacity="1.00" d=" M 138.26 79.27 C 143.39 76.92 149.61 81.46 149.20 87.02 C 149.25 93.01 141.55 96.95 136.75 93.28 C 131.59 90.03 132.48 81.31 138.26 79.27 Z" />
<path fill="#1bb3ff" opacity="1.00" d=" M 74.41 123.51 C 87.68 121.58 101.53 122.89 115.01 122.81 C 121.43 122.93 121.20 133.45 114.87 133.51 C 102.30 133.79 89.70 133.72 77.12 133.54 C 71.96 133.66 69.87 125.96 74.41 123.51 Z" />
<path fill="#1bb3ff" opacity="1.00" d=" M 72.28 139.37 C 86.15 138.52 100.10 139.37 114.00 139.08 C 116.96 139.15 120.65 138.71 122.72 141.35 C 125.78 145.07 121.39 150.76 117.06 150.19 C 102.36 150.06 87.64 150.43 72.95 150.01 C 66.91 149.97 66.27 140.14 72.28 139.37 Z" />
</g>
</svg>
