<?xml version="1.0" encoding="UTF-8" ?>
<!DOCTYPE svg PUBLIC "-//W3C//DTD SVG 1.1//EN" "http://www.w3.org/Graphics/SVG/1.1/DTD/svg11.dtd">
<svg width="192pt" height="192pt" viewBox="0 0 192 192" version="1.1" xmlns="http://www.w3.org/2000/svg">
<g id="#19b0ffff">
<path fill="#19b0ff" opacity="1.00" d=" M 39.06 19.06 C 45.32 16.10 52.60 19.23 57.13 23.86 C 63.57 30.42 70.08 36.92 76.74 43.26 C 83.27 49.83 83.39 59.62 83.21 68.26 C 91.52 68.47 99.84 68.25 108.16 68.36 C 109.31 60.56 107.45 51.60 113.14 45.10 C 119.85 37.85 127.23 31.22 134.06 24.07 C 138.88 18.99 146.99 15.86 153.54 19.51 C 160.12 23.50 164.15 31.31 163.81 38.99 C 163.69 64.96 163.89 90.94 163.66 116.90 C 163.18 123.04 153.19 123.14 152.60 116.98 C 152.25 90.37 152.66 63.75 152.47 37.15 C 152.21 33.41 148.68 26.89 144.31 30.26 C 136.93 36.50 130.60 43.93 123.45 50.45 C 118.02 55.27 120.69 63.12 119.56 69.40 C 119.24 74.24 115.76 79.17 110.60 79.46 C 101.07 79.75 91.52 79.61 81.99 79.54 C 76.81 79.61 72.40 75.17 72.17 70.07 C 71.32 63.42 73.46 55.26 67.79 50.21 C 60.73 43.95 54.55 36.76 47.56 30.45 C 43.46 26.75 39.06 32.95 39.33 36.92 C 39.41 76.62 39.28 116.32 39.41 156.02 C 38.92 160.19 43.58 163.94 47.28 161.23 C 54.84 154.86 61.72 147.66 68.51 140.48 C 72.91 135.65 71.70 128.87 72.00 122.93 C 72.13 117.50 76.69 112.70 82.13 112.39 C 90.77 112.11 99.43 112.31 108.07 112.27 C 114.75 112.00 120.26 118.48 119.82 124.96 C 119.43 130.15 119.13 135.99 122.78 140.19 C 129.38 147.59 136.53 154.52 143.97 161.07 C 146.75 163.64 151.29 161.34 151.88 157.88 C 153.50 150.74 151.50 143.22 153.04 136.11 C 155.22 131.09 163.56 132.58 163.70 138.09 C 163.26 147.67 165.83 158.52 159.89 166.91 C 154.74 174.39 143.13 175.72 136.44 169.58 C 128.50 162.53 120.84 155.12 113.84 147.13 C 108.35 140.60 107.82 131.70 108.48 123.57 C 100.04 123.63 91.61 123.53 83.17 123.66 C 83.83 132.59 82.69 142.36 76.08 149.02 C 68.56 156.50 61.47 164.58 53.00 170.99 C 43.07 177.69 28.66 169.86 28.27 158.06 C 27.99 118.04 28.12 78.01 28.08 37.99 C 27.57 30.24 32.21 22.57 39.06 19.06 Z" />
</g>
</svg>
