<?xml version="1.0" encoding="UTF-8" ?>
<!DOCTYPE svg PUBLIC "-//W3C//DTD SVG 1.1//EN" "http://www.w3.org/Graphics/SVG/1.1/DTD/svg11.dtd">
<svg width="192pt" height="192pt" viewBox="0 0 192 192" version="1.1" xmlns="http://www.w3.org/2000/svg">
<g id="#3fe175ff">
<path fill="#3fe175" opacity="1.00" d=" M 16.53 27.57 C 15.61 23.56 20.04 19.92 23.84 21.36 C 72.67 33.47 121.52 45.53 170.33 57.71 C 174.89 58.44 176.35 64.96 172.65 67.64 C 135.86 101.20 98.99 134.69 62.12 168.16 C 59.20 171.22 53.45 169.54 52.70 165.34 C 48.87 151.85 44.82 138.40 41.21 124.86 C 39.74 118.85 49.23 115.75 51.65 121.40 C 55.17 132.04 57.85 142.96 61.11 153.69 C 93.24 124.59 125.48 95.56 157.28 66.10 C 114.82 55.61 72.39 44.98 29.92 34.53 C 33.59 51.39 38.04 68.08 41.99 84.88 C 45.97 83.33 51.75 85.69 50.61 90.64 C 48.39 95.89 46.52 101.55 43.13 106.14 C 36.66 109.12 31.58 101.39 26.17 98.83 C 20.64 95.19 25.56 88.21 31.03 88.48 C 26.68 68.08 21.12 47.92 16.53 27.57 Z" />
</g>
</svg>
