<?xml version="1.0" encoding="UTF-8" ?>
<!DOCTYPE svg PUBLIC "-//W3C//DTD SVG 1.1//EN" "http://www.w3.org/Graphics/SVG/1.1/DTD/svg11.dtd">
<svg width="192pt" height="192pt" viewBox="0 0 192 192" version="1.1" xmlns="http://www.w3.org/2000/svg">
<g id="#ff3662ff">
<path fill="#ff3662" opacity="1.00" d=" M 38.33 21.41 C 41.16 20.73 44.10 20.71 47.00 20.71 C 80.33 20.79 113.65 20.65 146.98 20.78 C 159.26 20.78 170.10 31.72 170.11 43.97 C 170.20 78.32 170.15 112.67 170.14 147.02 C 170.38 159.43 159.52 170.74 147.06 170.70 C 112.35 170.73 77.64 170.74 42.94 170.68 C 30.60 170.61 19.82 159.35 20.13 147.04 C 20.12 112.67 20.10 78.30 20.16 43.93 C 20.15 33.43 28.12 23.69 38.33 21.41 M 40.37 32.52 C 34.99 33.96 31.09 39.39 31.38 44.95 C 31.40 78.99 31.37 113.02 31.41 147.06 C 31.19 153.76 37.32 159.76 44.01 159.46 C 78.01 159.46 112.00 159.45 146.00 159.45 C 152.76 159.85 158.99 153.85 158.79 147.08 C 158.80 112.69 158.86 78.30 158.77 43.91 C 158.75 36.91 151.89 31.28 145.02 32.10 C 110.15 32.41 75.19 31.56 40.37 32.52 Z" />
<path fill="#ff3662" opacity="1.00" d=" M 72.70 75.98 C 70.59 66.57 78.93 58.31 88.07 58.24 C 96.09 75.66 94.15 95.81 92.40 114.38 C 84.38 102.48 75.93 90.16 72.70 75.98 Z" />
<path fill="#ff3662" opacity="1.00" d=" M 102.39 58.30 C 111.49 58.25 120.08 66.53 117.80 75.93 C 114.67 90.16 106.20 102.58 97.99 114.38 C 96.43 95.80 94.47 75.74 102.39 58.30 Z" />
<path fill="#ff3662" opacity="1.00" d=" M 56.10 95.91 C 49.40 88.24 54.43 77.47 60.85 71.45 C 71.98 85.28 81.45 100.53 88.71 116.74 C 77.17 111.06 65.25 105.12 56.10 95.91 Z" />
<path fill="#ff3662" opacity="1.00" d=" M 129.48 71.49 C 134.42 75.95 138.57 82.50 137.53 89.42 C 136.75 94.44 132.81 98.06 128.91 100.90 C 120.51 107.13 111.38 112.40 101.83 116.63 C 108.94 100.42 118.67 85.47 129.48 71.49 Z" />
<path fill="#ff3662" opacity="1.00" d=" M 46.45 96.80 C 60.18 103.86 73.80 111.34 86.55 120.08 C 78.04 120.24 69.48 120.64 60.99 119.99 C 50.36 118.70 43.22 106.92 46.45 96.80 Z" />
<path fill="#ff3662" opacity="1.00" d=" M 104.07 120.00 C 116.73 111.17 130.42 103.90 144.01 96.63 C 147.52 106.95 139.99 119.11 129.04 120.05 C 120.73 120.43 112.38 120.31 104.07 120.00 Z" />
<path fill="#ff3662" opacity="1.00" d=" M 54.73 123.49 C 65.11 123.06 75.49 122.49 85.88 122.44 C 81.11 126.36 75.88 129.90 70.16 132.27 C 63.53 134.47 57.70 128.82 54.73 123.49 Z" />
<path fill="#ff3662" opacity="1.00" d=" M 104.63 122.50 C 115.02 122.54 125.41 122.96 135.78 123.57 C 132.84 128.82 127.17 134.33 120.62 132.40 C 114.82 130.01 109.51 126.43 104.63 122.50 Z" />
</g>
</svg>
