<?xml version="1.0" encoding="UTF-8" ?>
<!DOCTYPE svg PUBLIC "-//W3C//DTD SVG 1.1//EN" "http://www.w3.org/Graphics/SVG/1.1/DTD/svg11.dtd">
<svg width="192pt" height="192pt" viewBox="0 0 192 192" version="1.1" xmlns="http://www.w3.org/2000/svg">
<g id="#fe8f20ff">
<path fill="#fe8f20" opacity="1.00" d=" M 45.38 33.51 C 49.16 32.48 53.12 32.74 57.00 32.74 C 85.66 32.74 114.32 32.73 142.98 32.73 C 162.13 33.77 179.15 50.62 179.74 69.92 C 179.76 90.30 179.77 110.68 179.73 131.06 C 179.73 142.78 171.36 153.81 160.18 157.20 C 150.63 160.42 139.59 157.54 132.51 150.48 C 121.71 139.60 111.05 128.59 100.31 117.65 C 98.31 115.23 94.69 115.33 92.60 117.58 C 81.27 128.92 70.25 140.57 58.93 151.92 C 50.14 160.06 35.83 160.54 25.98 154.05 C 17.92 148.96 12.86 139.57 13.06 130.03 C 13.07 111.00 12.99 91.96 13.11 72.93 C 13.47 54.51 27.44 37.59 45.38 33.51 M 51.46 46.70 C 38.13 48.22 27.07 60.47 27.17 73.94 C 27.19 93.30 27.02 112.67 27.26 132.03 C 27.84 142.11 40.98 148.12 49.00 142.04 C 60.64 130.68 71.89 118.90 83.63 107.65 C 91.07 100.89 103.00 100.85 110.46 107.57 C 122.22 118.79 133.45 130.56 145.07 141.92 C 153.06 148.17 166.30 142.15 166.97 132.05 C 167.27 113.04 167.02 94.02 167.10 75.02 C 167.42 63.67 160.12 52.66 149.56 48.52 C 142.75 45.56 135.20 46.70 128.00 46.48 C 102.49 46.63 76.96 46.18 51.46 46.70 Z" />
<path fill="#fe8f20" opacity="1.00" d=" M 54.82 68.91 C 56.75 63.76 65.11 63.52 67.48 68.42 C 68.93 71.68 68.13 75.38 68.31 78.83 C 71.67 78.99 75.21 78.40 78.45 79.55 C 83.60 81.71 83.55 90.23 78.40 92.35 C 75.16 93.47 71.66 93.08 68.30 93.10 C 68.22 96.31 68.71 99.63 67.80 102.76 C 65.99 108.23 56.95 108.37 54.87 103.05 C 53.78 99.82 54.35 96.32 54.23 92.97 C 51.01 92.75 47.72 93.17 44.55 92.51 C 38.98 90.67 38.84 81.45 44.34 79.43 C 47.55 78.50 50.96 78.97 54.25 78.85 C 54.35 75.54 53.83 72.11 54.82 68.91 Z" />
<path fill="#fe8f20" opacity="1.00" d=" M 128.36 65.45 C 133.20 63.08 139.15 67.77 138.17 73.01 C 137.56 78.23 130.61 80.83 126.71 77.37 C 122.69 74.29 123.66 67.31 128.36 65.45 Z" />
<path fill="#fe8f20" opacity="1.00" d=" M 114.36 79.46 C 119.54 76.88 125.84 82.49 123.97 87.92 C 122.72 92.96 115.59 94.68 112.15 90.83 C 108.78 87.57 109.97 81.20 114.36 79.46 Z" />
<path fill="#fe8f20" opacity="1.00" d=" M 142.35 79.43 C 150.83 75.33 156.41 89.68 147.65 92.53 C 139.40 96.05 134.13 82.58 142.35 79.43 Z" />
<path fill="#fe8f20" opacity="1.00" d=" M 128.36 93.45 C 132.82 91.31 138.44 95.10 138.22 100.01 C 138.45 105.41 131.63 108.94 127.29 105.82 C 122.70 103.03 123.36 95.40 128.36 93.45 Z" />
</g>
</svg>
