<?xml version="1.0" encoding="UTF-8" ?>
<!DOCTYPE svg PUBLIC "-//W3C//DTD SVG 1.1//EN" "http://www.w3.org/Graphics/SVG/1.1/DTD/svg11.dtd">
<svg width="192pt" height="192pt" viewBox="0 0 192 192" version="1.1" xmlns="http://www.w3.org/2000/svg">
<g id="#19afffff">
<path fill="#19afff" opacity="1.00" d=" M 49.69 25.70 C 58.28 19.13 71.46 20.31 78.87 28.14 C 84.20 33.31 86.01 40.99 85.50 48.21 C 101.36 48.25 117.23 48.13 133.08 48.24 C 139.36 48.19 144.95 53.69 145.06 59.95 C 145.29 68.79 145.07 77.64 145.15 86.48 C 158.39 84.62 172.05 95.29 171.73 109.00 C 172.26 122.86 158.54 133.87 145.13 131.89 C 144.96 140.61 145.22 149.35 145.00 158.07 C 145.02 164.43 139.46 170.17 133.06 170.16 C 126.69 170.21 120.31 170.24 113.94 170.14 C 108.06 170.13 103.31 164.73 103.32 158.99 C 103.14 149.49 93.33 141.68 84.04 143.97 C 76.21 145.52 71.01 153.21 71.09 160.96 C 70.29 168.70 61.63 171.27 55.00 170.23 C 50.44 171.29 45.25 167.11 47.36 162.32 C 49.51 157.40 55.72 159.15 59.94 158.86 C 60.40 144.40 73.41 131.58 88.04 132.35 C 102.17 132.37 114.22 144.89 114.77 158.82 C 121.04 158.85 127.32 158.95 133.60 158.76 C 134.25 148.33 132.64 137.66 134.50 127.37 C 137.25 119.40 146.42 120.98 152.93 119.86 C 163.22 116.72 162.43 100.35 151.87 98.22 C 145.49 97.87 136.87 98.27 134.50 90.65 C 132.82 80.41 134.47 69.85 133.60 59.49 C 117.39 59.44 101.19 59.51 84.99 59.45 C 79.39 59.57 74.22 54.65 74.30 49.01 C 74.29 44.54 74.50 39.39 70.92 36.08 C 66.30 30.98 57.28 31.77 53.61 37.59 C 49.46 42.93 53.70 50.76 48.80 55.78 C 44.23 61.17 36.57 59.03 30.41 59.51 C 30.22 66.82 30.27 74.14 30.37 81.45 C 43.99 81.21 57.00 91.63 58.59 105.35 C 61.34 121.70 46.72 137.23 30.39 136.64 C 30.09 146.43 30.59 156.24 30.15 166.03 C 29.35 171.89 19.88 171.83 19.21 165.94 C 18.90 155.97 18.98 145.95 19.19 135.97 C 19.78 128.65 27.23 124.51 34.01 124.87 C 46.44 123.62 52.21 106.44 43.06 97.91 C 39.55 93.91 34.14 92.95 29.10 92.65 C 22.23 91.80 18.15 84.50 19.05 78.00 C 19.86 70.07 17.25 61.35 20.95 53.97 C 24.88 47.08 33.56 48.16 40.28 48.22 C 39.50 39.76 42.53 30.69 49.69 25.70 Z" />
</g>
</svg>
