<?xml version="1.0" encoding="UTF-8" ?>
<!DOCTYPE svg PUBLIC "-//W3C//DTD SVG 1.1//EN" "http://www.w3.org/Graphics/SVG/1.1/DTD/svg11.dtd">
<svg width="192pt" height="192pt" viewBox="0 0 192 192" version="1.1" xmlns="http://www.w3.org/2000/svg">
<g id="#f36584ff">
<path fill="#f36584" opacity="1.00" d=" M 39.30 21.38 C 69.78 19.92 100.45 21.16 131.00 20.74 C 137.97 20.97 145.00 20.22 151.91 21.23 C 162.45 23.20 170.86 33.19 170.76 43.95 C 170.76 78.66 170.82 113.37 170.74 148.07 C 170.51 160.30 159.24 170.82 147.06 170.51 C 112.69 170.52 78.31 170.58 43.94 170.47 C 31.68 170.39 20.89 159.32 21.11 147.06 C 21.07 112.68 21.07 78.31 21.13 43.94 C 21.06 33.42 29.07 23.62 39.30 21.38 M 41.33 32.44 C 35.89 33.82 31.91 39.34 32.30 44.95 C 32.32 78.99 32.27 113.03 32.33 147.07 C 32.16 153.77 38.37 159.58 45.01 159.28 C 79.00 159.29 113.01 159.32 147.00 159.25 C 153.67 159.51 159.64 153.64 159.60 147.00 C 159.69 112.98 159.63 78.96 159.63 44.94 C 160.06 38.01 153.95 31.78 147.04 31.92 C 114.36 31.73 81.68 31.92 49.00 31.81 C 46.43 31.81 43.83 31.82 41.33 32.44 Z" />
<path fill="#f36584" opacity="1.00" d=" M 50.10 83.01 C 50.21 80.51 49.34 76.08 52.97 75.83 C 59.61 75.69 66.29 75.49 72.92 75.94 C 76.92 78.40 74.38 84.32 75.07 88.24 C 71.83 88.27 68.60 88.27 65.36 88.20 C 65.40 84.96 62.28 85.84 60.11 85.76 C 60.18 87.02 60.26 88.29 60.32 89.56 C 65.21 91.72 72.33 91.77 74.56 97.52 C 75.54 102.57 75.09 107.83 74.94 112.94 C 74.62 115.88 71.14 115.52 68.99 115.54 C 63.35 115.35 57.68 115.84 52.06 115.26 C 48.36 112.53 50.80 106.95 50.15 103.01 C 53.33 102.99 56.51 102.97 59.69 102.98 C 59.57 106.29 62.96 105.24 65.12 105.46 C 66.07 99.47 58.42 100.47 54.86 98.22 C 48.80 95.68 50.23 88.25 50.10 83.01 Z" />
<path fill="#f36584" opacity="1.00" d=" M 85.24 76.08 C 92.08 75.34 99.06 75.71 105.93 75.86 C 108.98 76.09 108.58 79.82 108.61 82.00 C 108.33 92.63 109.06 103.33 108.26 113.91 C 105.18 117.03 99.99 114.95 96.00 115.53 C 92.10 114.95 86.95 117.04 83.96 113.83 C 83.22 103.60 83.91 93.27 83.64 83.00 C 83.88 80.70 82.94 77.58 85.24 76.08 M 93.75 85.72 C 93.64 92.25 93.68 98.77 93.73 105.30 C 95.27 105.36 96.80 105.43 98.34 105.50 C 98.75 99.00 98.41 92.49 98.55 85.98 C 96.95 85.88 95.35 85.80 93.75 85.72 Z" />
<path fill="#f36584" opacity="1.00" d=" M 117.10 83.01 C 117.21 80.52 116.39 76.12 119.97 75.83 C 126.87 75.76 133.88 75.23 140.73 76.13 C 143.47 79.39 141.65 84.31 142.13 88.25 C 138.88 88.28 135.63 88.28 132.38 88.20 C 132.38 84.99 129.32 85.92 127.16 85.89 C 127.23 87.08 127.31 88.28 127.38 89.49 C 132.40 91.75 140.01 91.81 141.83 98.09 C 142.42 103.00 142.25 108.01 142.01 112.94 C 141.76 115.92 138.15 115.53 136.00 115.57 C 130.37 115.37 124.69 115.92 119.08 115.26 C 115.37 112.54 117.76 106.94 117.14 103.00 C 120.34 102.99 123.54 102.97 126.74 102.99 C 126.83 106.06 130.03 105.30 132.12 105.44 C 133.05 99.45 125.39 100.53 121.86 98.22 C 115.85 95.63 117.21 88.26 117.10 83.01 Z" />
</g>
</svg>
