<?xml version="1.0" encoding="UTF-8" ?>
<!DOCTYPE svg PUBLIC "-//W3C//DTD SVG 1.1//EN" "http://www.w3.org/Graphics/SVG/1.1/DTD/svg11.dtd">
<svg width="192pt" height="192pt" viewBox="0 0 192 192" version="1.1" xmlns="http://www.w3.org/2000/svg">
<g id="#96644cff">
<path fill="#96644c" opacity="1.00" d=" M 38.41 23.49 C 39.78 22.64 41.46 22.80 43.00 22.72 C 78.68 22.81 114.37 22.63 150.05 22.79 C 156.87 22.81 156.84 33.92 150.03 34.03 C 114.01 34.30 77.96 34.18 41.93 34.10 C 36.10 34.78 33.16 26.29 38.41 23.49 Z" />
<path fill="#96644c" opacity="1.00" d=" M 24.27 42.29 C 27.76 41.30 31.42 41.65 34.99 41.61 C 77.32 41.63 119.66 41.57 161.99 41.61 C 170.28 41.34 177.89 48.62 177.83 56.94 C 177.96 86.30 177.80 115.68 177.98 145.03 C 178.45 157.13 168.19 168.45 155.97 168.55 C 115.66 168.63 75.34 168.60 35.03 168.54 C 22.86 168.46 12.39 157.15 13.05 145.03 C 13.06 116.00 13.07 86.98 13.07 57.95 C 12.71 50.97 17.54 44.18 24.27 42.29 M 26.44 53.56 C 24.85 54.47 24.27 56.27 24.40 58.01 C 24.40 87.33 24.38 116.66 24.42 145.98 C 24.28 152.12 29.89 157.47 35.98 157.25 C 75.66 157.26 115.34 157.26 155.02 157.20 C 161.06 157.39 166.58 152.04 166.50 145.98 C 166.58 116.66 166.56 87.33 166.53 58.00 C 166.77 55.45 164.80 52.68 162.01 53.17 C 117.98 53.30 73.98 52.57 29.94 52.82 C 28.71 52.81 27.54 53.06 26.44 53.56 Z" />
<path fill="#96644c" opacity="1.00" d=" M 76.01 92.00 C 73.38 83.59 81.09 74.44 89.86 76.09 C 95.85 91.40 94.84 108.43 93.11 124.46 C 85.88 114.64 79.10 103.91 76.01 92.00 Z" />
<path fill="#96644c" opacity="1.00" d=" M 101.28 76.21 C 109.05 74.77 116.88 83.11 114.92 91.04 C 112.48 103.41 104.60 113.89 97.79 124.21 C 95.86 108.39 94.80 91.18 101.28 76.21 Z" />
<path fill="#96644c" opacity="1.00" d=" M 65.49 86.84 C 75.33 98.68 83.71 112.15 89.63 126.30 C 82.07 122.88 74.81 118.74 67.97 114.03 C 63.83 111.08 59.30 107.43 58.69 102.01 C 58.00 96.10 61.93 91.10 65.49 86.84 Z" />
<path fill="#96644c" opacity="1.00" d=" M 101.13 126.12 C 106.67 111.77 115.65 98.96 125.01 86.84 C 130.88 91.95 135.28 101.62 129.40 108.35 C 121.52 116.32 111.20 121.48 101.13 126.12 Z" />
<path fill="#96644c" opacity="1.00" d=" M 53.02 108.53 C 64.99 114.86 77.10 121.14 88.08 129.09 C 80.43 129.43 72.71 129.64 65.07 129.07 C 55.84 127.38 50.61 117.31 53.02 108.53 Z" />
<path fill="#96644c" opacity="1.00" d=" M 102.87 129.06 C 113.74 121.19 125.62 114.53 137.70 108.73 C 140.53 117.64 134.46 128.10 125.01 129.19 C 117.65 129.58 110.24 129.45 102.87 129.06 Z" />
<path fill="#96644c" opacity="1.00" d=" M 60.01 131.87 C 69.27 131.53 78.53 130.73 87.79 130.88 C 83.57 134.47 78.71 137.33 73.77 139.82 C 67.75 141.90 62.86 136.46 60.01 131.87 Z" />
<path fill="#96644c" opacity="1.00" d=" M 103.37 131.05 C 112.40 130.48 121.42 131.60 130.44 131.80 C 128.25 137.04 122.23 142.11 116.35 139.56 C 111.83 137.06 107.22 134.54 103.37 131.05 Z" />
</g>
</svg>
