<?xml version="1.0" encoding="UTF-8" ?>
<!DOCTYPE svg PUBLIC "-//W3C//DTD SVG 1.1//EN" "http://www.w3.org/Graphics/SVG/1.1/DTD/svg11.dtd">
<svg width="192pt" height="192pt" viewBox="0 0 192 192" version="1.1" xmlns="http://www.w3.org/2000/svg">
<g id="#18aeffff">
<path fill="#18aeff" opacity="1.00" d=" M 49.28 29.36 C 71.96 24.21 93.52 41.19 101.53 61.41 C 103.07 67.72 93.39 71.57 90.78 65.33 C 84.78 50.90 70.67 37.62 53.99 39.92 C 38.01 41.60 27.48 56.94 25.58 71.91 C 23.80 81.82 24.86 92.71 30.99 101.01 C 39.23 112.47 52.33 118.71 63.98 126.04 C 74.75 132.56 84.42 140.86 92.64 150.39 C 94.49 152.74 98.23 152.26 99.85 149.89 C 110.57 137.38 123.85 127.36 138.02 119.09 C 149.94 111.76 163.18 102.75 166.09 88.05 C 168.48 72.89 164.48 55.05 151.35 45.75 C 140.87 38.06 125.74 38.92 115.49 46.58 C 113.14 48.07 111.08 50.86 107.99 50.40 C 104.02 50.16 101.53 45.08 103.86 41.82 C 119.72 24.76 149.94 24.92 165.05 42.96 C 181.54 62.22 183.68 95.19 164.38 113.39 C 151.99 125.89 135.04 132.29 121.97 143.94 C 116.24 148.54 111.37 154.04 106.34 159.35 C 99.25 165.85 87.37 163.58 82.25 155.73 C 67.31 137.11 43.13 130.14 26.63 113.37 C 15.25 102.14 11.48 85.13 14.58 69.72 C 17.04 51.13 30.23 33.14 49.28 29.36 Z" />
</g>
</svg>
