<?xml version="1.0" encoding="UTF-8" ?>
<!DOCTYPE svg PUBLIC "-//W3C//DTD SVG 1.1//EN" "http://www.w3.org/Graphics/SVG/1.1/DTD/svg11.dtd">
<svg width="192pt" height="192pt" viewBox="0 0 192 192" version="1.1" xmlns="http://www.w3.org/2000/svg">
<g id="#7a4b72ff">
<path fill="#7a4b72" opacity="1.00" d=" M 82.42 12.57 C 103.04 9.65 125.01 14.68 141.69 27.30 C 146.81 31.82 139.54 39.97 134.36 35.66 C 108.71 17.37 70.89 19.27 47.47 40.46 C 29.53 55.87 20.48 80.68 24.11 104.04 C 28.05 133.85 53.11 159.19 82.91 163.34 C 112.81 168.57 144.71 151.90 157.54 124.41 C 168.62 101.90 166.37 73.63 151.87 53.15 C 148.98 50.02 150.69 44.37 154.99 43.70 C 159.07 42.91 161.31 46.95 163.16 49.83 C 176.75 70.92 179.53 98.38 170.88 121.88 C 160.83 149.82 134.55 171.10 105.04 174.80 C 72.95 179.64 39.27 163.05 23.22 134.92 C 11.73 115.48 9.05 91.19 15.66 69.63 C 24.45 39.86 51.59 16.53 82.42 12.57 Z" />
<path fill="#7a4b72" opacity="1.00" d=" M 85.32 41.39 C 108.11 37.32 132.44 50.12 141.90 71.24 C 150.53 89.35 147.62 112.24 134.63 127.54 C 120.75 144.72 95.56 151.25 75.05 143.06 C 71.57 141.44 66.46 140.40 65.64 135.99 C 64.54 131.56 69.96 127.55 73.84 130.00 C 85.07 135.96 98.94 136.80 110.61 131.58 C 124.97 125.47 135.14 110.62 135.34 94.97 C 135.91 82.60 130.43 70.17 120.98 62.18 C 108.51 51.28 89.38 49.11 74.78 56.94 C 54.55 66.73 46.41 94.15 57.59 113.56 C 61.82 118.92 53.54 126.15 48.94 121.04 C 39.25 106.22 38.65 86.20 46.42 70.39 C 53.68 55.18 68.68 44.03 85.32 41.39 Z" />
<path fill="#7a4b72" opacity="1.00" d=" M 70.30 84.08 C 75.80 83.38 85.73 82.54 84.41 91.01 C 85.72 97.35 79.18 98.64 74.41 98.33 C 74.45 100.02 74.51 101.70 74.61 103.38 C 73.21 103.53 71.80 103.62 70.39 103.71 C 70.20 97.17 70.34 90.62 70.30 84.08 M 74.48 87.41 C 74.49 89.78 74.49 92.14 74.47 94.51 C 82.07 97.40 81.99 84.56 74.48 87.41 Z" />
<path fill="#7a4b72" opacity="1.00" d=" M 86.84 83.90 C 91.11 84.25 96.79 82.41 100.00 86.00 C 101.30 89.84 101.52 95.11 98.02 97.92 C 98.93 99.72 99.81 101.54 100.66 103.37 C 99.29 103.54 97.92 103.63 96.55 103.72 C 95.19 101.51 94.66 97.13 91.32 97.61 C 91.11 99.63 90.90 101.65 90.71 103.67 C 89.48 103.67 88.26 103.69 87.03 103.73 C 86.44 97.14 86.79 90.51 86.84 83.90 M 91.27 87.30 C 91.03 89.61 90.87 91.93 90.84 94.26 C 93.21 94.21 97.46 94.66 96.61 90.99 C 97.54 87.43 93.78 87.16 91.27 87.30 Z" />
<path fill="#7a4b72" opacity="1.00" d=" M 105.31 84.33 C 109.30 83.28 117.15 82.15 117.77 87.94 C 118.08 92.74 119.06 98.26 116.62 102.63 C 112.26 105.38 102.37 105.25 103.02 98.05 C 103.29 93.64 101.40 87.46 105.31 84.33 M 107.48 87.44 C 107.15 91.54 107.25 95.65 107.32 99.76 C 109.22 100.32 111.96 101.17 113.49 99.51 C 113.97 95.82 113.92 92.04 113.49 88.36 C 112.35 86.32 109.38 87.71 107.48 87.44 Z" />
</g>
</svg>
