<?xml version="1.0" encoding="UTF-8" ?>
<!DOCTYPE svg PUBLIC "-//W3C//DTD SVG 1.1//EN" "http://www.w3.org/Graphics/SVG/1.1/DTD/svg11.dtd">
<svg width="192pt" height="192pt" viewBox="0 0 192 192" version="1.1" xmlns="http://www.w3.org/2000/svg">
<g id="#2ab9a1ff">
<path fill="#2ab9a1" opacity="1.00" d=" M 22.13 43.93 C 21.91 31.71 32.81 20.72 45.02 20.77 C 61.69 20.76 78.36 20.67 95.03 20.80 C 101.19 20.81 101.90 31.04 95.71 31.66 C 78.80 32.06 61.86 31.56 44.95 31.86 C 38.75 32.12 33.09 37.60 33.29 43.93 C 33.25 77.98 33.28 112.02 33.29 146.07 C 33.05 152.41 38.63 158.26 44.99 158.29 C 52.75 158.44 60.51 158.21 68.27 158.38 C 83.54 114.06 98.20 69.53 113.26 25.14 C 113.91 22.58 116.22 20.52 118.96 20.76 C 128.97 20.75 139.00 20.63 149.01 20.81 C 160.83 21.30 170.98 32.12 170.84 43.94 C 170.91 77.97 170.93 112.02 170.89 146.06 C 171.18 158.40 160.32 169.57 147.96 169.55 C 130.98 169.56 113.99 169.72 97.01 169.45 C 90.62 169.12 90.73 158.62 97.13 158.42 C 114.08 158.10 131.06 158.44 148.01 158.23 C 154.33 158.17 159.74 152.34 159.63 146.07 C 159.68 112.02 159.71 77.97 159.63 43.92 C 159.71 36.44 152.14 30.89 145.00 31.81 C 137.64 32.38 129.73 30.77 122.71 32.59 C 107.72 76.70 93.01 120.92 78.12 165.07 C 77.46 167.81 74.86 169.82 72.01 169.55 C 62.68 169.54 53.35 169.66 44.03 169.48 C 32.04 169.00 21.81 158.03 22.08 146.05 C 22.07 112.01 22.08 77.97 22.13 43.93 Z" />
</g>
</svg>
