<?xml version="1.0" encoding="UTF-8" ?>
<!DOCTYPE svg PUBLIC "-//W3C//DTD SVG 1.1//EN" "http://www.w3.org/Graphics/SVG/1.1/DTD/svg11.dtd">
<svg width="192pt" height="192pt" viewBox="0 0 192 192" version="1.1" xmlns="http://www.w3.org/2000/svg">
<g id="#46e371ff">
<path fill="#46e371" opacity="1.00" d=" M 14.24 68.26 C 18.55 68.02 22.86 68.03 27.18 68.01 C 28.29 73.58 27.29 79.29 27.79 84.91 C 36.52 85.68 49.11 82.25 53.82 92.15 C 56.75 102.17 54.94 112.95 55.16 123.28 C 50.53 123.29 45.89 123.52 41.27 123.08 C 41.14 115.16 41.90 107.09 40.81 99.28 C 37.80 96.64 32.32 97.50 28.63 98.62 C 26.31 106.55 28.47 115.23 27.35 123.43 C 23.18 122.50 17.44 125.06 14.32 121.69 C 13.68 103.93 14.20 86.06 14.24 68.26 Z" />
<path fill="#46e371" opacity="1.00" d=" M 113.84 67.74 C 118.61 68.81 129.41 64.79 127.88 72.98 C 127.84 89.74 127.84 106.49 127.82 123.25 C 123.19 123.37 118.57 123.37 113.94 123.21 C 113.65 104.73 113.84 86.23 113.84 67.74 Z" />
<path fill="#46e371" opacity="1.00" d=" M 64.07 85.17 C 68.45 85.27 73.39 84.18 77.42 85.69 C 78.36 93.60 76.62 101.85 78.42 109.59 C 82.40 110.92 91.37 112.34 91.26 106.02 C 91.36 99.05 91.22 92.08 91.31 85.12 C 95.78 84.90 100.26 84.84 104.74 85.15 C 105.54 92.42 104.77 99.73 104.82 107.02 C 104.83 111.73 104.26 117.19 100.32 120.36 C 95.37 124.11 88.83 123.34 83.01 123.35 C 77.75 123.29 71.65 123.35 67.67 119.33 C 63.83 115.25 63.54 109.29 63.61 104.00 C 63.80 97.73 63.21 91.41 64.07 85.17 Z" />
<path fill="#46e371" opacity="1.00" d=" M 136.90 84.92 C 141.32 84.47 145.76 84.65 150.18 84.74 C 151.77 92.87 149.22 101.54 151.58 109.44 C 155.37 111.09 164.33 112.28 164.18 106.04 C 164.37 99.05 164.07 92.06 164.33 85.08 C 168.80 84.29 173.34 84.72 177.85 84.76 C 177.79 93.82 177.99 102.89 177.78 111.94 C 177.21 119.10 169.98 124.31 163.00 123.36 C 154.26 123.31 141.90 125.21 137.87 115.08 C 135.56 105.29 136.67 94.91 136.90 84.92 Z" />
</g>
</svg>
