<?xml version="1.0" encoding="UTF-8" ?>
<!DOCTYPE svg PUBLIC "-//W3C//DTD SVG 1.1//EN" "http://www.w3.org/Graphics/SVG/1.1/DTD/svg11.dtd">
<svg width="192pt" height="192pt" viewBox="0 0 192 192" version="1.1" xmlns="http://www.w3.org/2000/svg">
<g id="#1eb9ffff">
<path fill="#1eb9ff" opacity="1.00" d=" M 30.33 25.11 C 31.31 19.01 41.25 19.81 41.32 25.99 C 41.56 51.01 41.29 76.04 41.45 101.06 C 42.06 119.21 52.71 136.52 68.44 145.52 C 84.34 154.93 105.15 155.25 121.30 146.25 C 138.00 137.23 149.28 119.05 149.74 100.04 C 150.02 75.04 149.54 50.02 149.98 25.03 C 151.10 18.98 160.94 19.79 161.04 25.96 C 161.30 72.65 161.16 119.36 161.11 166.06 C 161.51 172.33 151.73 173.84 150.07 167.90 C 149.45 157.13 150.00 146.30 149.74 135.51 C 132.27 162.19 94.17 172.24 66.04 156.91 C 44.76 146.03 30.23 122.99 30.17 99.01 C 30.24 74.38 29.98 49.73 30.33 25.11 Z" />
</g>
</svg>
