<?xml version="1.0" encoding="UTF-8" ?>
<!DOCTYPE svg PUBLIC "-//W3C//DTD SVG 1.1//EN" "http://www.w3.org/Graphics/SVG/1.1/DTD/svg11.dtd">
<svg width="192pt" height="192pt" viewBox="0 0 192 192" version="1.1" xmlns="http://www.w3.org/2000/svg">
<g id="#a419ffff">
<path fill="#a419ff" opacity="1.00" d=" M 54.48 23.70 C 72.70 21.33 92.26 30.79 100.72 47.25 C 101.32 55.40 100.74 63.60 101.02 71.78 C 122.64 71.80 144.27 71.83 165.90 71.76 C 167.45 52.03 149.74 33.82 130.02 34.63 C 123.98 34.46 118.35 36.72 112.87 38.94 C 107.63 40.20 103.91 32.56 108.19 29.17 C 130.05 16.10 161.19 25.95 172.17 48.79 C 181.37 66.11 177.64 88.96 163.57 102.57 C 143.66 121.68 123.61 140.63 103.61 159.64 C 99.54 164.00 92.11 164.42 87.72 160.31 C 68.07 141.62 48.42 122.91 28.76 104.23 C 15.92 92.71 10.24 73.81 15.19 57.20 C 20.01 39.49 36.24 25.70 54.48 23.70 M 49.35 36.31 C 34.35 40.77 23.68 56.14 24.73 71.76 C 46.37 71.84 68.02 71.81 89.66 71.77 C 89.58 64.63 89.84 57.48 89.54 50.35 C 81.35 37.32 63.88 31.38 49.35 36.31 M 27.28 83.14 C 31.19 92.76 39.93 98.87 47.01 105.99 C 61.23 106.01 75.45 106.04 89.67 105.96 C 89.66 98.35 89.67 90.73 89.65 83.12 C 68.86 83.13 48.07 83.09 27.28 83.14 M 101.10 83.08 C 100.91 90.71 101.05 98.33 100.99 105.96 C 115.23 106.04 129.47 106.01 143.71 105.97 C 150.71 98.80 159.50 92.78 163.33 83.14 C 142.59 83.06 121.84 83.17 101.10 83.08 M 58.94 117.26 C 69.09 127.09 79.39 136.77 89.64 146.51 C 89.68 136.78 89.66 127.04 89.65 117.31 C 79.41 117.27 69.18 117.36 58.94 117.26 M 101.11 117.27 C 100.96 127.01 101.05 136.75 101.05 146.49 C 111.28 136.77 121.52 127.06 131.72 117.30 C 121.52 117.30 111.31 117.34 101.11 117.27 Z" />
</g>
</svg>
