<?xml version="1.0" encoding="UTF-8" ?>
<!DOCTYPE svg PUBLIC "-//W3C//DTD SVG 1.1//EN" "http://www.w3.org/Graphics/SVG/1.1/DTD/svg11.dtd">
<svg width="192pt" height="192pt" viewBox="0 0 192 192" version="1.1" xmlns="http://www.w3.org/2000/svg">
<g id="#17aaffff">
<path fill="#17aaff" opacity="1.00" d=" M 76.99 23.03 C 89.62 13.39 106.45 9.68 122.00 12.78 C 137.58 15.76 151.64 25.68 159.77 39.28 C 168.92 54.21 170.41 73.50 163.67 89.66 C 156.29 108.31 138.28 122.14 118.38 124.54 C 98.38 127.42 77.34 118.41 65.38 102.17 C 65.38 125.11 65.59 148.08 65.29 171.01 C 64.43 177.45 53.90 176.53 54.17 170.04 C 54.03 136.03 54.13 102.01 54.16 67.99 C 54.12 50.51 62.90 33.34 76.99 23.03 M 103.41 23.57 C 81.51 26.83 64.12 47.89 65.45 70.06 C 65.77 93.39 86.67 113.79 109.97 113.74 C 126.67 114.30 143.14 104.72 151.02 90.01 C 158.97 75.80 158.26 57.29 149.25 43.73 C 139.73 28.66 120.94 20.54 103.41 23.57 Z" />
<path fill="#17aaff" opacity="1.00" d=" M 25.40 33.56 C 30.35 31.16 36.81 35.41 35.95 41.01 C 35.88 46.78 28.07 49.93 23.87 46.12 C 19.58 42.98 20.49 35.59 25.40 33.56 Z" />
<path fill="#17aaff" opacity="1.00" d=" M 105.30 43.40 C 121.64 38.55 139.26 54.18 136.29 70.97 C 134.65 87.49 114.56 97.99 100.04 89.88 C 91.32 85.54 85.68 75.79 86.42 66.05 C 86.93 55.45 94.99 45.84 105.30 43.40 M 107.36 54.50 C 98.64 56.83 94.61 68.53 100.26 75.66 C 106.08 84.47 121.10 82.43 124.37 72.38 C 128.71 62.29 117.64 50.69 107.36 54.50 Z" />
<path fill="#17aaff" opacity="1.00" d=" M 26.47 54.61 C 30.45 53.01 34.64 56.86 34.05 60.94 C 34.07 97.32 34.16 133.70 34.01 170.07 C 34.20 176.54 23.82 177.39 22.90 171.02 C 22.54 134.70 22.88 98.34 22.74 62.00 C 22.47 59.09 23.36 55.61 26.47 54.61 Z" />
</g>
</svg>
