<?xml version="1.0" encoding="UTF-8" ?>
<!DOCTYPE svg PUBLIC "-//W3C//DTD SVG 1.1//EN" "http://www.w3.org/Graphics/SVG/1.1/DTD/svg11.dtd">
<svg width="512pt" height="512pt" viewBox="0 0 512 512" version="1.1" xmlns="http://www.w3.org/2000/svg">
<g id="#898a7fff">
<path fill="#898a7f" opacity="1.00" d=" M 134.66 61.59 C 158.53 51.45 185.92 50.03 210.82 57.22 C 252.71 68.96 285.71 106.71 291.59 149.84 C 319.80 138.98 352.29 139.58 379.87 152.12 C 421.27 170.20 449.30 214.82 446.84 260.04 C 445.96 296.22 426.28 331.21 396.00 350.98 C 365.73 371.38 325.47 375.45 291.57 362.10 C 287.39 389.20 273.27 414.65 252.18 432.22 C 231.67 449.53 204.87 459.29 178.00 458.77 C 142.47 459.00 107.59 440.90 86.85 412.13 C 67.59 386.02 60.51 351.45 67.77 319.85 C 73.25 294.68 87.89 271.88 107.88 255.75 C 69.69 226.24 54.63 171.22 72.31 126.33 C 83.04 97.41 106.19 73.46 134.66 61.59 M 169.38 102.49 C 137.62 106.53 112.15 137.02 114.10 169.03 C 114.61 201.71 143.32 230.73 176.04 231.38 C 207.89 233.54 238.37 208.44 242.62 176.85 C 247.35 152.78 235.87 126.98 215.73 113.33 C 202.41 103.98 185.46 99.99 169.38 102.49 M 326.52 191.80 C 305.97 194.00 286.40 206.40 276.90 224.95 C 262.49 248.76 267.50 281.51 286.96 301.03 C 299.17 313.51 316.51 320.86 334.00 320.49 C 354.15 320.38 373.87 309.98 385.49 293.54 C 397.13 277.55 400.75 256.03 394.80 237.16 C 386.47 208.42 356.30 188.23 326.52 191.80 M 168.33 281.41 C 149.48 284.42 132.41 296.41 122.95 312.96 C 105.72 341.36 115.69 381.78 143.96 399.11 C 170.48 417.17 209.79 410.68 229.21 385.18 C 249.15 361.34 247.58 323.28 226.00 300.99 C 211.64 285.42 189.21 277.72 168.33 281.41 Z" />
</g>
</svg>
