<?xml version="1.0" encoding="UTF-8" ?>
<!DOCTYPE svg PUBLIC "-//W3C//DTD SVG 1.1//EN" "http://www.w3.org/Graphics/SVG/1.1/DTD/svg11.dtd">
<svg width="512pt" height="512pt" viewBox="0 0 512 512" version="1.1" xmlns="http://www.w3.org/2000/svg">
<g id="#ff3662ff">
<path fill="#ff3662" opacity="1.00" d=" M 235.50 37.72 C 274.73 34.21 314.87 41.50 350.27 58.81 C 401.53 83.62 442.25 129.26 460.82 183.12 C 475.45 224.93 476.80 271.23 464.87 313.87 C 449.65 368.90 411.69 417.08 361.88 444.92 C 306.24 476.83 236.29 481.77 176.58 458.53 C 118.53 436.45 71.13 388.33 50.03 329.90 C 26.41 266.34 34.80 191.90 72.43 135.43 C 108.16 80.29 169.96 43.05 235.50 37.72 M 236.40 67.56 C 173.63 73.07 115.60 112.98 87.21 169.10 C 58.57 224.15 59.93 293.43 90.73 347.30 C 107.99 377.85 133.91 403.46 164.70 420.29 C 220.79 451.39 292.93 450.68 348.36 418.39 C 380.08 400.17 406.36 372.58 422.90 339.94 C 452.18 282.97 449.40 210.96 415.45 156.59 C 398.97 129.79 375.72 107.18 348.42 91.54 C 314.83 72.04 275.00 63.76 236.40 67.56 Z" />
</g>
</svg>
