<?xml version="1.0" encoding="UTF-8" ?>
<!DOCTYPE svg PUBLIC "-//W3C//DTD SVG 1.1//EN" "http://www.w3.org/Graphics/SVG/1.1/DTD/svg11.dtd">
<svg width="512pt" height="512pt" viewBox="0 0 512 512" version="1.1" xmlns="http://www.w3.org/2000/svg">
<g id="#f6b02cff">
<path fill="#f6b02c" opacity="1.00" d=" M 247.49 38.70 C 262.26 37.03 277.50 40.15 290.42 47.51 C 332.89 72.05 375.37 96.57 417.83 121.15 C 439.07 133.44 453.00 157.42 452.86 182.00 C 452.85 231.34 452.90 280.67 452.85 330.01 C 452.74 354.27 438.90 377.77 418.01 390.00 C 375.56 414.56 333.09 439.10 290.62 463.63 C 273.32 473.60 251.75 475.83 232.84 469.32 C 224.45 466.73 217.11 461.84 209.54 457.55 C 174.25 437.15 138.96 416.74 103.66 396.34 C 95.78 391.73 87.50 387.54 80.85 381.17 C 66.40 367.94 57.79 348.58 57.79 328.98 C 57.74 279.99 57.76 231.00 57.79 182.01 C 57.81 157.63 71.37 133.78 92.42 121.43 C 134.20 97.20 176.04 73.09 217.84 48.89 C 226.85 43.44 236.99 39.79 247.49 38.70 M 249.39 68.49 C 243.95 69.25 238.73 71.19 234.01 73.98 C 191.96 98.31 149.90 122.58 107.86 146.92 C 95.59 154.01 87.68 167.82 87.58 181.97 C 87.57 230.99 87.58 280.01 87.58 329.03 C 87.61 343.46 95.80 357.54 108.39 364.61 C 150.61 389.02 192.83 413.44 235.07 437.81 C 247.39 444.92 263.41 444.88 275.71 437.75 C 317.96 413.35 360.19 388.92 402.43 364.50 C 414.94 357.40 423.13 343.38 423.07 328.98 C 423.12 280.33 423.09 231.67 423.10 183.02 C 423.38 168.56 415.43 154.34 402.97 147.02 C 360.75 122.59 318.52 98.19 276.29 73.78 C 268.26 68.99 258.63 67.21 249.39 68.49 Z" />
</g>
</svg>
