<?xml version="1.0" encoding="UTF-8" ?>
<!DOCTYPE svg PUBLIC "-//W3C//DTD SVG 1.1//EN" "http://www.w3.org/Graphics/SVG/1.1/DTD/svg11.dtd">
<svg width="512pt" height="512pt" viewBox="0 0 512 512" version="1.1" xmlns="http://www.w3.org/2000/svg">
<g id="#ff633cff">
<path fill="#ff633c" opacity="1.00" d=" M 335.35 54.46 C 355.80 53.14 376.46 54.13 396.99 53.96 C 429.19 54.58 457.80 82.71 458.76 114.94 C 458.98 156.64 458.81 198.35 458.85 240.05 C 459.32 248.20 452.13 255.65 444.00 255.64 C 435.57 256.12 427.91 248.47 428.28 240.06 C 428.24 199.39 428.35 158.71 428.24 118.04 C 428.44 100.67 413.38 85.10 396.07 84.54 C 377.05 84.37 358.03 84.62 339.01 84.42 C 331.37 84.33 324.60 77.66 324.33 70.04 C 323.76 63.10 328.63 56.26 335.35 54.46 Z" />
<path fill="#ff633c" opacity="1.00" d=" M 64.36 207.52 C 72.98 203.88 83.65 210.39 84.49 219.66 C 85.61 227.01 80.25 234.53 72.99 236.03 C 65.59 237.95 57.38 233.03 55.35 225.71 C 53.02 218.50 57.24 210.04 64.36 207.52 Z" />
<path fill="#ff633c" opacity="1.00" d=" M 65.42 256.64 C 74.45 254.09 84.42 261.63 84.38 271.02 C 84.56 312.37 84.33 353.72 84.49 395.07 C 84.95 412.82 101.27 428.06 119.01 427.39 C 137.34 427.46 155.67 427.30 173.99 427.45 C 183.71 427.63 191.13 438.59 187.57 447.68 C 185.26 454.99 177.31 458.83 169.99 458.17 C 149.01 457.56 127.90 459.40 107.02 456.97 C 77.97 452.22 54.48 425.46 53.88 395.97 C 53.74 354.65 53.85 313.32 53.82 272.01 C 53.46 264.97 58.56 258.21 65.42 256.64 Z" />
<path fill="#ff633c" opacity="1.00" d=" M 437.36 276.52 C 448.89 271.12 462.11 284.34 456.93 295.88 C 452.95 307.50 434.98 308.45 429.79 297.32 C 425.56 289.90 429.37 279.50 437.36 276.52 Z" />
</g>
</svg>
