<?xml version="1.0" encoding="UTF-8" ?>
<!DOCTYPE svg PUBLIC "-//W3C//DTD SVG 1.1//EN" "http://www.w3.org/Graphics/SVG/1.1/DTD/svg11.dtd">
<svg width="512pt" height="512pt" viewBox="0 0 512 512" version="1.1" xmlns="http://www.w3.org/2000/svg">
<g id="#8492a2ff">
<path fill="#8492a2" opacity="1.00" d=" M 335.35 54.46 C 355.80 53.15 376.46 54.12 396.99 53.96 C 429.19 54.58 457.82 82.71 458.76 114.94 C 458.97 156.64 458.80 198.35 458.84 240.05 C 459.33 248.25 452.03 255.71 443.87 255.64 C 435.50 256.03 427.91 248.43 428.30 240.07 C 428.29 201.04 428.28 162.02 428.30 123.00 C 430.62 104.02 415.41 85.07 396.07 84.54 C 377.05 84.38 358.03 84.63 339.02 84.43 C 331.37 84.34 324.59 77.65 324.32 70.03 C 323.76 63.09 328.63 56.25 335.35 54.46 Z" />
<path fill="#8492a2" opacity="1.00" d=" M 64.36 207.50 C 76.04 202.35 89.02 216.07 83.41 227.43 C 79.24 238.34 62.41 239.47 56.87 229.17 C 51.96 221.63 55.88 210.41 64.36 207.50 Z" />
<path fill="#8492a2" opacity="1.00" d=" M 66.36 256.43 C 72.76 255.18 79.67 258.58 82.64 264.36 C 84.95 268.52 84.41 273.43 84.46 278.00 C 84.46 316.68 84.43 355.37 84.47 394.06 C 84.43 411.07 99.02 426.48 116.04 427.26 C 135.35 427.63 154.68 427.21 174.00 427.46 C 182.68 427.66 189.82 436.49 188.24 445.02 C 187.25 452.36 180.40 458.07 173.05 458.07 C 156.04 458.29 139.02 458.07 122.00 458.18 C 111.17 458.22 100.18 456.44 90.40 451.59 C 68.96 441.43 54.10 418.76 53.84 394.97 C 53.78 353.98 53.83 312.99 53.82 272.00 C 53.41 264.62 59.08 257.61 66.36 256.43 Z" />
<path fill="#8492a2" opacity="1.00" d=" M 437.37 276.53 C 448.58 271.31 461.60 283.68 457.20 295.15 C 453.89 306.67 436.61 308.88 430.52 298.54 C 425.28 291.14 428.86 279.66 437.37 276.53 Z" />
</g>
</svg>
