<?xml version="1.0" encoding="UTF-8" ?>
<!DOCTYPE svg PUBLIC "-//W3C//DTD SVG 1.1//EN" "http://www.w3.org/Graphics/SVG/1.1/DTD/svg11.dtd">
<svg width="512pt" height="512pt" viewBox="0 0 512 512" version="1.1" xmlns="http://www.w3.org/2000/svg">
<g id="#ff633cff">
<path fill="#ff633c" opacity="1.00" d=" M 235.51 37.72 C 274.73 34.21 314.88 41.50 350.27 58.81 C 401.53 83.62 442.26 129.26 460.82 183.13 C 475.46 224.93 476.80 271.23 464.87 313.87 C 449.72 368.67 412.01 416.69 362.49 444.58 C 306.76 476.79 236.51 481.87 176.58 458.53 C 118.53 436.45 71.13 388.33 50.03 329.89 C 26.41 266.33 34.80 191.90 72.43 135.43 C 108.17 80.29 169.96 43.05 235.51 37.72 M 236.40 67.56 C 173.63 73.06 115.60 112.97 87.21 169.09 C 58.57 224.14 59.92 293.42 90.73 347.30 C 107.99 377.85 133.90 403.45 164.69 420.29 C 220.78 451.39 292.93 450.68 348.36 418.38 C 380.08 400.17 406.36 372.58 422.89 339.94 C 452.18 282.97 449.40 210.96 415.45 156.58 C 398.96 129.79 375.72 107.18 348.42 91.53 C 314.82 72.04 275.00 63.76 236.40 67.56 Z" />
</g>
</svg>
