<?xml version="1.0" encoding="UTF-8" ?>
<!DOCTYPE svg PUBLIC "-//W3C//DTD SVG 1.1//EN" "http://www.w3.org/Graphics/SVG/1.1/DTD/svg11.dtd">
<svg width="512pt" height="512pt" viewBox="0 0 512 512" version="1.1" xmlns="http://www.w3.org/2000/svg">
<g id="#97644cff">
<path fill="#97644c" opacity="1.00" d=" M 235.50 37.73 C 300.40 31.53 367.27 56.59 412.12 103.88 C 452.60 145.54 475.07 203.99 472.88 262.02 C 471.83 295.20 463.14 328.14 447.43 357.40 C 418.58 412.13 365.34 453.34 305.03 467.26 C 275.53 474.23 244.64 475.01 214.85 469.39 C 151.99 458.07 95.47 417.24 64.52 361.43 C 29.21 299.37 27.60 219.79 60.32 156.33 C 93.28 90.24 161.79 43.56 235.50 37.73 M 236.41 67.59 C 173.91 73.08 116.07 112.67 87.59 168.45 C 62.56 216.25 59.86 274.96 80.06 324.96 C 103.29 384.05 158.35 429.36 221.00 440.15 C 257.40 446.69 295.75 442.53 329.70 427.74 C 362.55 413.55 391.04 389.65 411.07 360.02 C 447.31 307.24 453.15 235.55 426.49 177.42 C 411.42 144.01 386.29 115.28 355.31 95.73 C 320.32 73.33 277.69 63.53 236.41 67.59 Z" />
</g>
</svg>
