<?xml version="1.0" encoding="UTF-8" ?>
<!DOCTYPE svg PUBLIC "-//W3C//DTD SVG 1.1//EN" "http://www.w3.org/Graphics/SVG/1.1/DTD/svg11.dtd">
<svg width="247pt" height="247pt" viewBox="0 0 247 247" version="1.1" xmlns="http://www.w3.org/2000/svg">
<g id="#ffffffff">
<path fill="#ffffff" opacity="1.00" d=" M 62.38 19.35 C 68.76 12.67 80.41 12.58 86.98 19.04 C 112.87 44.81 138.74 70.61 164.61 96.42 C 167.80 99.40 167.98 104.85 165.00 108.04 C 161.99 111.72 155.75 111.94 152.47 108.51 C 126.59 82.75 100.75 56.95 74.87 31.19 C 59.99 46.01 44.96 60.71 30.31 75.76 C 37.24 82.47 44.02 89.35 50.86 96.15 C 54.16 99.23 54.37 104.93 51.13 108.13 C 48.02 111.72 41.93 111.74 38.70 108.31 C 31.68 101.33 24.61 94.40 17.69 87.32 C 11.56 80.76 11.82 69.53 18.27 63.29 C 32.95 48.62 47.66 33.98 62.38 19.35 Z" />
<path fill="#ffffff" opacity="1.00" d=" M 159.52 19.52 C 165.84 12.85 177.46 12.46 184.08 18.89 C 199.00 33.65 213.86 48.48 228.71 63.30 C 235.57 69.89 235.31 81.93 228.35 88.35 C 202.42 114.11 176.63 140.02 150.59 165.66 C 143.57 172.13 132.14 161.74 138.14 154.14 C 164.10 127.81 190.45 101.82 216.68 75.74 C 202.00 60.73 187.01 46.02 172.12 31.21 C 164.69 38.41 157.63 46.01 149.99 52.98 C 142.84 58.28 132.81 48.31 138.12 41.13 C 144.97 33.67 152.43 26.76 159.52 19.52 Z" />
<path fill="#ffffff" opacity="1.00" d=" M 96.47 82.50 C 103.47 76.18 114.69 86.49 108.89 93.98 C 82.96 120.49 56.27 146.29 30.29 172.75 C 45.23 187.42 59.92 202.34 74.87 217.00 C 82.35 209.77 89.40 202.06 97.15 195.13 C 104.29 190.16 114.00 199.85 108.93 206.98 C 101.95 214.61 94.31 221.67 87.05 229.06 C 80.50 235.71 68.66 235.49 62.22 228.78 C 47.52 214.14 32.80 199.53 18.14 184.85 C 11.60 178.35 11.61 166.70 18.28 160.29 C 44.34 134.35 70.31 108.33 96.47 82.50 Z" />
<path fill="#ffffff" opacity="1.00" d=" M 120.37 102.53 C 123.17 101.13 126.64 102.03 128.74 104.25 C 133.62 109.05 138.46 113.89 143.29 118.74 C 146.31 121.44 146.31 126.58 143.29 129.28 C 138.28 134.29 133.32 139.35 128.20 144.25 C 125.43 146.93 120.71 146.68 118.10 143.90 C 113.09 138.92 108.03 133.97 103.11 128.90 C 100.10 125.88 100.83 120.64 104.06 118.06 C 109.59 113.00 114.34 106.96 120.37 102.53 Z" />
<path fill="#ffffff" opacity="1.00" d=" M 81.38 150.58 C 75.46 142.99 86.86 132.72 93.88 139.13 C 120.11 164.93 146.03 191.06 172.12 217.01 C 187.04 202.31 201.75 187.41 216.70 172.75 C 209.74 165.23 202.08 158.38 195.14 150.86 C 189.20 143.61 199.79 133.12 207.02 138.88 C 214.47 145.77 221.48 153.15 228.72 160.28 C 235.38 166.69 235.41 178.35 228.84 184.84 C 214.00 199.67 199.15 214.50 184.23 229.24 C 177.56 235.73 165.73 235.44 159.43 228.57 C 133.48 202.51 107.14 176.82 81.38 150.58 Z" />
</g>
</svg>
