<?xml version="1.0" encoding="UTF-8" ?>
<!DOCTYPE svg PUBLIC "-//W3C//DTD SVG 1.1//EN" "http://www.w3.org/Graphics/SVG/1.1/DTD/svg11.dtd">
<svg width="512pt" height="512pt" viewBox="0 0 512 512" version="1.1" xmlns="http://www.w3.org/2000/svg">
<g id="#cfdd3fff">
<path fill="#cfdd3f" opacity="1.00" d=" M 104.47 75.46 C 118.13 58.42 141.46 49.80 162.88 54.36 C 182.14 58.42 198.22 72.15 208.29 88.68 C 225.44 114.99 243.22 141.22 265.45 163.55 C 278.37 176.77 294.58 186.18 311.35 193.66 C 332.29 202.95 354.14 210.25 376.43 215.55 C 390.06 219.32 402.73 227.44 410.75 239.22 C 419.02 250.99 422.13 265.81 421.02 280.01 C 420.47 291.10 418.14 302.51 411.75 311.79 C 405.26 321.51 394.99 327.99 384.32 332.29 C 363.11 341.01 341.30 348.21 319.18 354.23 C 301.09 359.66 281.65 363.36 266.55 375.48 C 246.45 390.16 229.63 408.76 213.85 427.87 C 199.88 442.90 181.40 454.38 161.11 458.26 C 142.39 461.18 122.25 451.33 113.65 434.33 C 105.21 418.19 108.17 397.00 120.89 383.93 C 123.28 380.93 127.51 379.40 128.52 375.42 C 135.08 356.39 135.46 335.79 132.99 315.98 C 130.88 294.43 129.67 272.55 132.76 251.02 C 135.58 232.12 151.92 216.32 170.93 214.23 C 196.38 210.88 220.78 232.90 222.89 257.91 C 223.51 266.01 222.91 275.00 217.59 281.57 C 209.09 292.33 199.81 302.44 190.19 312.21 C 172.73 331.21 150.88 346.99 139.05 370.52 C 162.75 360.61 188.63 358.21 213.97 356.03 C 235.87 355.99 257.55 346.46 272.19 330.16 C 291.24 309.67 298.00 278.61 288.81 252.15 C 280.74 228.58 261.16 210.00 238.37 200.64 C 217.45 192.24 194.44 193.89 172.85 188.28 C 159.69 185.96 147.35 180.67 135.65 174.37 C 125.02 168.80 113.85 163.40 105.96 154.04 C 86.49 132.76 85.76 97.44 104.47 75.46 Z" />
</g>
</svg>
