<?xml version="1.0" encoding="UTF-8" ?>
<!DOCTYPE svg PUBLIC "-//W3C//DTD SVG 1.1//EN" "http://www.w3.org/Graphics/SVG/1.1/DTD/svg11.dtd">
<svg width="512pt" height="512pt" viewBox="0 0 512 512" version="1.1" xmlns="http://www.w3.org/2000/svg">
<g id="#2ab5f3ff">
<path fill="#2ab5f3" opacity="1.00" d=" M 242.42 21.56 C 280.71 19.34 319.54 26.50 354.35 42.66 C 411.53 68.78 457.19 118.90 477.69 178.35 C 499.82 240.78 493.69 312.53 461.20 370.27 C 445.78 397.89 424.78 422.41 399.72 441.73 C 358.77 473.61 306.93 491.35 255.00 490.72 C 214.81 490.86 174.70 480.06 139.82 460.15 C 88.67 431.19 49.17 382.35 31.84 326.16 C 19.54 286.82 17.87 244.21 26.91 204.00 C 39.75 146.39 75.41 94.31 124.42 61.44 C 159.16 37.74 200.45 23.86 242.42 21.56 Z" />
</g>
</svg>
