<?xml version="1.0" encoding="UTF-8" ?>
<!DOCTYPE svg PUBLIC "-//W3C//DTD SVG 1.1//EN" "http://www.w3.org/Graphics/SVG/1.1/DTD/svg11.dtd">
<svg width="512pt" height="512pt" viewBox="0 0 512 512" version="1.1" xmlns="http://www.w3.org/2000/svg">
<g id="#b183a6ff">
<path fill="#b183a6" opacity="1.00" d=" M 241.45 21.66 C 278.30 19.46 315.71 25.72 349.56 40.57 C 405.76 64.80 451.68 111.91 474.15 168.87 C 493.41 216.57 495.84 270.62 481.93 320.07 C 473.41 349.75 459.16 377.80 439.90 401.96 C 407.42 443.10 360.73 472.85 309.62 484.62 C 251.45 498.29 188.08 488.99 136.71 458.30 C 85.19 428.07 46.01 377.51 30.01 319.92 C 19.03 281.02 18.32 239.26 27.90 199.99 C 42.73 137.98 84.42 83.13 139.92 51.82 C 170.80 34.03 205.91 23.82 241.45 21.66 Z" />
</g>
</svg>
