<?xml version="1.0" encoding="UTF-8" ?>
<!DOCTYPE svg PUBLIC "-//W3C//DTD SVG 1.1//EN" "http://www.w3.org/Graphics/SVG/1.1/DTD/svg11.dtd">
<svg width="192pt" height="192pt" viewBox="0 0 192 192" version="1.1" xmlns="http://www.w3.org/2000/svg">
<g id="#dc7f2eff">
<path fill="#dc7f2e" opacity="1.00" d=" M 82.38 14.50 C 103.28 11.04 125.45 16.07 142.75 28.32 C 161.97 41.68 175.17 63.66 177.18 87.06 C 176.89 93.68 166.14 93.64 166.05 86.96 C 162.60 53.17 131.96 25.05 97.99 24.55 C 68.95 23.17 40.33 41.61 29.65 68.64 C 26.88 75.01 25.74 81.87 24.50 88.64 C 22.79 94.26 12.61 92.23 14.14 86.03 C 17.08 50.35 47.14 19.63 82.38 14.50 Z" />
<path fill="#dc7f2e" opacity="1.00" d=" M 115.35 47.43 C 119.35 45.65 126.00 46.28 126.50 51.65 C 126.99 60.29 119.96 67.28 112.77 70.91 C 108.57 72.96 101.33 71.53 101.07 65.98 C 101.27 57.60 107.93 50.52 115.35 47.43 Z" />
<path fill="#dc7f2e" opacity="1.00" d=" M 96.82 77.75 C 102.23 75.17 112.97 77.07 111.22 84.97 C 105.38 103.11 98.10 120.99 95.56 140.01 C 94.39 148.91 97.06 157.98 101.45 165.66 C 129.59 163.72 155.16 143.19 163.26 116.21 C 164.93 111.86 164.78 106.97 166.75 102.77 C 169.57 98.36 177.28 100.78 176.97 106.02 C 173.74 134.09 154.32 159.37 128.40 170.42 C 105.67 180.44 78.42 179.36 56.59 167.50 C 35.14 156.17 19.29 134.86 14.76 111.02 C 14.20 108.01 13.12 104.20 15.85 101.90 C 19.13 98.67 25.25 101.19 25.34 105.81 C 28.72 129.94 45.74 151.24 68.17 160.51 C 77.01 148.46 80.60 133.30 83.59 118.87 C 84.22 113.52 85.95 107.57 83.50 102.47 C 78.62 98.66 72.91 103.48 68.01 104.76 C 63.76 104.84 66.31 99.78 68.18 98.21 C 76.60 90.04 86.26 82.90 96.82 77.75 Z" />
</g>
</svg>
