<?xml version="1.0" encoding="UTF-8" ?>
<!DOCTYPE svg PUBLIC "-//W3C//DTD SVG 1.1//EN" "http://www.w3.org/Graphics/SVG/1.1/DTD/svg11.dtd">
<svg width="192pt" height="192pt" viewBox="0 0 192 192" version="1.1" xmlns="http://www.w3.org/2000/svg">
<g id="#69b991ff">
<path fill="#69b991" opacity="1.00" d=" M 117.36 14.38 C 119.69 13.08 122.63 13.67 124.57 15.39 C 130.51 20.17 136.68 24.64 142.73 29.28 C 145.69 31.29 145.78 35.81 143.35 38.28 C 138.46 44.14 134.06 50.38 129.19 56.24 C 126.97 58.94 122.74 59.02 120.18 56.76 C 114.31 52.33 108.41 47.91 102.64 43.35 C 99.27 40.95 99.41 35.95 102.19 33.16 C 107.35 26.99 111.67 20.03 117.36 14.38 M 113.02 37.02 C 115.59 40.74 120.21 42.93 123.69 45.90 C 126.55 42.25 129.43 38.60 132.17 34.85 C 128.58 31.90 124.82 29.16 121.11 26.35 C 118.45 29.93 115.40 33.24 113.02 37.02 Z" />
<path fill="#69b991" opacity="1.00" d=" M 52.72 28.99 C 52.41 25.25 55.32 21.59 59.15 21.49 C 68.38 21.35 77.62 21.40 86.85 21.46 C 90.76 21.46 93.93 25.16 93.55 29.01 C 93.30 37.31 93.99 45.69 93.22 53.94 C 90.85 60.81 82.42 58.29 76.93 58.70 C 72.53 59.41 68.89 54.15 71.29 50.34 C 73.47 46.42 78.55 47.67 82.22 47.45 C 82.30 42.50 82.30 37.55 82.21 32.61 C 76.18 32.61 70.16 32.63 64.13 32.59 C 64.06 52.63 64.09 72.68 64.11 92.72 C 70.12 92.75 76.13 92.72 82.14 92.75 C 82.43 87.79 82.24 82.83 82.17 77.87 C 78.44 77.60 73.19 78.96 71.17 74.77 C 68.98 70.89 72.69 65.94 77.00 66.61 C 82.39 67.04 90.61 64.56 93.14 71.10 C 94.05 78.21 93.32 85.48 93.52 92.66 C 103.85 92.79 114.18 92.74 124.51 92.69 C 124.52 87.85 124.47 83.00 124.53 78.16 C 119.54 77.65 114.50 77.64 109.52 78.17 C 112.43 85.02 103.17 92.30 98.90 85.03 C 98.19 79.23 95.94 69.57 103.07 66.92 C 111.34 66.18 119.69 66.79 128.00 66.59 C 131.76 66.16 135.69 69.04 135.69 72.98 C 135.82 81.28 135.94 89.61 135.70 97.91 C 135.68 101.40 132.54 104.30 129.07 104.09 C 106.04 104.16 83.00 104.16 59.97 104.09 C 56.38 104.46 52.55 101.95 52.85 98.04 C 52.55 75.03 52.74 52.01 52.72 28.99 Z" />
<path fill="#69b991" opacity="1.00" d=" M 45.11 123.62 C 38.70 123.51 38.52 112.86 44.99 112.60 C 78.64 112.37 112.32 112.44 145.97 112.51 C 150.79 112.14 153.70 118.81 150.07 122.02 C 132.66 139.95 115.08 157.71 97.51 175.48 C 95.30 178.30 90.79 178.18 88.59 175.41 C 77.95 164.06 67.00 152.97 56.55 141.45 C 52.68 136.47 60.34 129.73 64.80 134.19 C 74.39 143.90 83.66 153.94 93.18 163.72 C 106.22 150.42 119.45 137.31 132.26 123.80 C 103.21 123.61 74.16 123.86 45.11 123.62 Z" />
</g>
</svg>
