<?xml version="1.0" encoding="UTF-8" ?>
<!DOCTYPE svg PUBLIC "-//W3C//DTD SVG 1.1//EN" "http://www.w3.org/Graphics/SVG/1.1/DTD/svg11.dtd">
<svg width="192pt" height="192pt" viewBox="0 0 192 192" version="1.1" xmlns="http://www.w3.org/2000/svg">
<g id="#45e372ff">
<path fill="#45e372" opacity="1.00" d=" M 84.41 13.52 C 105.58 10.50 127.85 16.20 144.92 29.09 C 170.07 47.63 182.89 81.36 175.78 111.87 C 167.91 149.41 131.14 177.54 92.99 176.54 C 69.99 176.55 46.99 176.59 24.00 176.52 C 19.12 177.03 16.08 170.75 19.11 167.05 C 23.91 158.46 32.51 148.66 26.54 138.42 C 9.37 111.45 10.09 74.63 28.36 48.40 C 41.09 29.63 61.95 16.65 84.41 13.52 M 28.64 73.63 C 22.51 92.92 25.50 114.66 36.12 131.83 C 42.42 142.03 40.83 155.48 33.79 164.88 C 53.86 165.14 73.94 164.94 94.01 164.99 C 116.23 165.03 138.19 154.32 151.67 136.64 C 163.02 122.11 168.18 102.93 165.43 84.68 C 161.38 51.75 131.35 24.33 98.01 24.17 C 67.17 22.58 37.33 44.09 28.64 73.63 Z" />
<path fill="#45e372" opacity="1.00" d=" M 64.29 69.34 C 75.51 68.59 86.81 69.18 98.07 69.02 C 105.65 68.79 112.69 75.31 112.84 82.93 C 112.93 91.30 112.96 99.68 112.83 108.05 C 112.58 115.57 105.54 121.93 98.05 121.65 C 87.68 121.66 77.30 121.71 66.93 121.63 C 59.21 121.66 52.46 114.67 52.60 106.97 C 52.57 98.99 52.49 91.00 52.65 83.02 C 52.83 76.51 57.90 70.57 64.29 69.34 Z" />
<path fill="#45e372" opacity="1.00" d=" M 131.24 73.11 C 135.24 70.86 139.68 74.85 139.43 79.02 C 139.55 90.00 139.75 101.02 139.38 111.99 C 139.53 116.35 134.54 120.08 130.68 117.27 C 126.22 113.79 122.94 109.05 119.10 104.94 C 114.01 99.67 114.19 90.55 119.38 85.40 C 123.32 81.32 126.53 76.36 131.24 73.11 Z" />
</g>
</svg>
