<?xml version="1.0" encoding="UTF-8" ?>
<!DOCTYPE svg PUBLIC "-//W3C//DTD SVG 1.1//EN" "http://www.w3.org/Graphics/SVG/1.1/DTD/svg11.dtd">
<svg width="192pt" height="192pt" viewBox="0 0 192 192" version="1.1" xmlns="http://www.w3.org/2000/svg">
<g id="#c79656ff">
<path fill="#c79656" opacity="1.00" d=" M 147.59 40.80 C 147.50 36.07 146.35 28.32 152.98 27.71 C 159.93 27.97 158.74 36.00 158.70 40.80 C 162.00 40.97 165.46 40.32 168.64 41.43 C 172.47 43.10 172.80 49.06 169.23 51.20 C 165.93 52.70 162.18 51.99 158.68 52.14 C 158.61 55.22 158.92 58.34 158.43 61.39 C 157.27 65.09 152.15 66.44 149.40 63.65 C 146.35 60.61 147.94 55.92 147.51 52.10 C 144.20 52.07 140.74 52.53 137.54 51.41 C 134.50 49.87 133.46 45.40 135.89 42.85 C 138.82 39.53 143.73 41.23 147.59 40.80 Z" />
<path fill="#c79656" opacity="1.00" d=" M 70.64 72.05 C 83.29 55.99 107.97 51.09 125.74 61.21 C 138.64 68.75 148.26 82.71 148.41 97.94 C 162.51 99.72 174.92 110.74 177.04 125.01 C 180.74 143.42 164.70 162.57 145.97 162.43 C 112.66 162.52 79.35 162.63 46.04 162.39 C 31.48 162.21 18.24 151.42 14.60 137.41 C 10.29 123.97 15.79 108.47 27.02 100.13 C 30.44 98.18 29.84 93.71 31.64 90.64 C 37.81 75.94 55.35 67.80 70.64 72.05 M 99.49 67.75 C 92.12 68.86 85.11 72.54 80.27 78.25 C 78.19 80.56 76.39 83.66 73.04 84.19 C 69.57 84.50 66.45 82.37 63.00 82.36 C 53.52 81.72 44.10 88.09 41.22 97.16 C 40.05 100.49 40.25 104.78 36.91 106.90 C 31.41 110.45 26.74 115.65 25.15 122.14 C 21.50 135.35 31.85 150.87 45.95 151.01 C 78.96 151.38 111.98 150.97 144.99 151.07 C 158.44 151.73 169.98 136.63 165.06 123.90 C 162.43 114.95 153.23 108.89 144.01 109.37 C 138.93 109.85 136.51 104.36 137.16 100.05 C 137.95 80.86 118.55 63.59 99.49 67.75 Z" />
<path fill="#c79656" opacity="1.00" d=" M 87.98 99.12 C 89.75 92.85 99.44 91.66 102.43 97.57 C 105.06 103.43 102.05 109.87 102.19 115.99 C 105.48 116.31 111.79 114.83 111.47 120.02 C 107.97 126.08 103.25 131.39 98.45 136.45 C 96.80 138.59 93.40 138.26 91.91 136.12 C 87.47 130.93 82.32 126.01 79.27 119.87 C 79.01 114.74 85.54 116.33 88.75 116.13 C 88.65 110.47 86.74 104.74 87.98 99.12 Z" />
</g>
</svg>
