<?xml version="1.0" encoding="UTF-8" ?>
<!DOCTYPE svg PUBLIC "-//W3C//DTD SVG 1.1//EN" "http://www.w3.org/Graphics/SVG/1.1/DTD/svg11.dtd">
<svg width="192pt" height="192pt" viewBox="0 0 192 192" version="1.1" xmlns="http://www.w3.org/2000/svg">
<g id="#8c74a9ff">
<path fill="#8c74a9" opacity="1.00" d=" M 39.36 21.53 C 42.83 20.59 46.45 20.72 50.00 20.72 C 82.65 20.77 115.31 20.68 147.97 20.75 C 160.22 20.69 171.03 31.74 170.87 43.95 C 170.93 78.32 171.45 112.70 170.79 147.07 C 170.64 159.00 159.96 169.45 148.07 169.52 C 113.69 169.58 79.31 169.56 44.94 169.51 C 33.01 169.47 22.32 159.02 22.14 147.07 C 22.02 134.69 22.10 122.31 22.11 109.92 C 21.84 104.01 27.08 98.62 33.00 98.71 C 48.66 98.66 64.33 98.67 80.00 98.70 C 85.09 98.31 89.53 102.92 89.14 107.97 C 89.06 119.64 89.47 131.34 88.93 142.98 C 88.03 148.67 78.97 148.67 78.09 142.98 C 77.46 133.02 78.20 123.01 77.75 113.04 C 77.87 111.05 75.84 109.86 74.04 110.15 C 61.68 110.17 49.30 110.08 36.94 110.19 C 34.95 110.07 33.18 111.99 33.33 113.95 C 33.19 124.65 33.30 135.36 33.28 146.07 C 32.99 152.83 39.29 158.81 46.01 158.36 C 79.67 158.34 113.33 158.33 146.98 158.33 C 153.68 158.72 159.82 152.77 159.65 146.08 C 159.64 112.02 159.72 77.96 159.62 43.91 C 159.66 37.32 153.55 31.69 147.02 31.95 C 113.35 31.76 79.67 31.86 45.99 31.84 C 39.80 31.66 33.71 36.65 33.36 42.96 C 33.02 56.96 33.63 71.00 33.07 84.98 C 32.33 90.85 22.91 90.83 22.20 84.96 C 21.83 71.31 22.12 57.62 22.07 43.95 C 21.98 33.70 29.50 24.13 39.36 21.53 Z" />
<path fill="#8c74a9" opacity="1.00" d=" M 105.29 99.36 C 116.37 97.78 127.78 99.09 138.99 98.66 C 143.84 98.07 148.81 101.95 148.71 106.98 C 148.78 117.66 148.78 128.35 148.71 139.03 C 148.83 143.58 144.51 147.52 140.03 147.27 C 129.68 147.28 119.33 147.28 108.98 147.27 C 104.43 147.58 100.21 143.59 100.21 139.05 C 100.09 128.68 100.19 118.30 100.16 107.94 C 99.92 104.37 101.94 100.73 105.29 99.36 M 111.42 110.16 C 111.46 118.73 111.45 127.30 111.42 135.87 C 120.10 136.06 128.79 135.93 137.48 135.95 C 137.52 127.35 137.53 118.74 137.46 110.13 C 128.78 110.16 120.10 110.12 111.42 110.16 Z" />
</g>
</svg>
