<?xml version="1.0" encoding="UTF-8" ?>
<!DOCTYPE svg PUBLIC "-//W3C//DTD SVG 1.1//EN" "http://www.w3.org/Graphics/SVG/1.1/DTD/svg11.dtd">
<svg width="192pt" height="192pt" viewBox="0 0 192 192" version="1.1" xmlns="http://www.w3.org/2000/svg">
<g id="#ff3661ff">
<path fill="#ff3661" opacity="1.00" d=" M 77.27 29.33 C 83.56 17.94 95.89 9.78 109.02 9.37 C 116.42 9.34 123.90 12.71 128.63 18.41 C 135.40 27.33 131.27 40.05 137.94 49.01 C 145.68 59.31 160.86 59.04 168.83 69.18 C 176.15 76.82 177.24 89.84 169.82 97.80 C 156.03 113.08 136.80 122.81 124.95 140.00 C 120.82 145.13 118.97 151.63 115.01 156.84 C 116.89 135.62 131.67 118.52 146.90 104.88 C 152.73 99.08 159.89 94.26 164.04 87.02 C 166.93 79.13 160.25 71.89 154.17 67.78 C 147.50 62.00 137.50 60.19 133.11 51.94 C 127.92 41.99 128.82 29.48 121.42 20.56 C 116.44 14.47 107.52 14.02 100.64 16.75 C 93.53 19.51 86.49 23.98 82.45 30.58 C 81.67 37.24 87.55 42.66 87.27 49.44 C 88.90 49.10 90.53 48.76 92.17 48.44 C 93.56 52.03 93.76 56.58 97.04 59.08 C 105.84 57.02 116.72 53.97 120.04 44.45 C 121.41 46.95 122.93 49.78 121.64 52.66 C 119.97 57.09 121.42 62.37 118.31 66.30 C 112.29 74.38 101.73 76.87 94.70 83.77 C 91.89 86.48 93.27 90.78 95.82 93.13 C 104.85 102.72 114.05 113.53 116.12 126.99 C 116.75 132.32 116.87 138.35 113.49 142.86 C 113.73 132.18 113.42 120.54 106.03 112.01 C 100.21 104.83 91.69 99.92 87.54 91.39 C 85.38 87.59 86.02 82.36 89.49 79.54 C 96.76 73.52 105.55 69.69 113.08 64.02 C 115.00 62.64 115.57 60.24 116.31 58.13 C 108.68 58.58 102.24 63.11 95.08 65.05 C 92.26 61.72 91.59 57.10 89.53 53.30 C 87.51 53.45 85.48 53.62 83.46 53.74 C 83.51 49.32 84.79 44.18 81.37 40.61 C 79.16 37.39 74.54 33.54 77.27 29.33 Z" />
<path fill="#ff3661" opacity="1.00" d=" M 31.41 39.47 C 41.13 34.67 53.45 33.52 63.17 38.88 C 67.49 41.20 68.88 46.11 70.88 50.20 C 73.05 54.27 78.43 53.05 82.23 53.72 C 81.33 58.56 83.97 62.68 85.50 67.02 C 84.16 70.97 79.33 72.63 77.48 76.45 C 72.39 84.73 75.37 95.54 81.75 102.23 C 86.02 107.54 92.16 110.73 97.15 115.23 C 82.37 111.86 70.90 97.85 68.55 83.11 C 64.37 82.64 60.12 82.82 56.00 81.90 C 64.68 78.94 74.28 76.05 79.85 68.17 C 76.56 65.29 75.22 61.12 77.76 57.27 C 73.41 56.45 67.81 55.95 65.66 51.39 C 63.74 47.31 61.48 42.59 56.65 41.46 C 45.70 38.70 33.06 43.27 26.74 52.74 C 19.31 63.74 20.52 80.35 30.87 89.15 C 46.16 102.16 65.15 109.38 83.06 117.92 C 96.39 124.39 108.87 135.89 110.42 151.43 C 111.02 160.88 110.89 171.29 106.37 179.81 C 105.55 170.19 104.89 160.51 102.89 151.04 C 101.24 143.29 95.42 137.35 89.57 132.41 C 77.03 122.23 62.01 115.82 47.11 109.93 C 31.50 103.35 17.22 89.58 15.64 71.96 C 14.94 59.55 20.20 45.79 31.41 39.47 Z" />
</g>
</svg>
