<?xml version="1.0" encoding="UTF-8" ?>
<!DOCTYPE svg PUBLIC "-//W3C//DTD SVG 1.1//EN" "http://www.w3.org/Graphics/SVG/1.1/DTD/svg11.dtd">
<svg width="192pt" height="192pt" viewBox="0 0 192 192" version="1.1" xmlns="http://www.w3.org/2000/svg">
<g id="#d6d6d6ff">
<path fill="#d6d6d6" opacity="1.00" d=" M 21.52 43.50 C 38.09 25.03 62.95 13.51 87.96 15.21 C 109.45 16.54 131.15 28.35 140.95 48.03 C 147.81 61.19 149.03 77.66 141.88 90.96 C 136.89 101.69 125.94 109.46 113.97 109.65 C 104.36 110.38 94.52 103.80 92.37 94.23 C 85.15 102.45 91.36 115.58 100.26 119.77 C 117.49 129.85 140.00 119.58 149.30 103.34 C 161.99 83.31 158.52 56.52 145.32 37.63 C 141.44 32.56 149.16 25.87 153.64 30.32 C 165.29 45.71 170.55 65.91 167.81 85.03 C 165.02 103.57 153.92 121.47 136.74 129.77 C 123.54 136.74 106.78 137.15 93.92 129.15 C 82.22 122.74 75.15 108.10 78.99 95.09 C 81.37 86.84 89.45 81.38 97.99 82.06 C 96.45 76.68 89.72 75.67 85.03 77.06 C 73.91 79.48 67.98 91.48 67.59 102.02 C 67.59 117.74 78.05 132.23 92.05 138.85 C 111.63 148.88 136.00 145.00 153.66 132.72 C 158.81 128.52 165.88 136.58 161.07 141.10 C 144.62 153.41 122.78 158.59 102.59 154.44 C 84.08 150.55 66.74 138.09 59.94 120.04 C 54.21 107.01 55.50 91.25 63.50 79.45 C 69.87 69.51 82.25 63.64 93.97 65.73 C 102.23 67.22 109.41 74.35 109.39 83.03 C 115.10 80.96 115.69 73.45 113.28 68.66 C 109.98 60.43 101.70 55.12 93.04 54.30 C 80.65 52.13 68.17 57.84 59.79 66.79 C 48.60 77.95 44.26 94.54 45.57 109.99 C 47.34 128.98 57.72 146.66 72.47 158.55 C 74.49 160.21 77.11 162.02 76.90 164.99 C 77.04 169.12 71.83 172.06 68.43 169.69 C 50.58 156.56 37.78 136.32 34.75 114.26 C 32.45 96.61 36.45 77.69 47.62 63.59 C 59.53 47.99 80.38 38.62 99.82 44.18 C 115.89 47.72 129.79 65.01 124.73 81.69 C 122.87 88.78 116.27 93.53 109.17 94.33 C 108.70 95.37 108.25 96.41 107.90 97.50 C 118.96 101.26 130.17 92.80 133.36 82.37 C 140.41 63.36 128.32 41.75 110.91 33.20 C 86.13 19.52 54.10 27.31 34.39 46.38 C 31.56 48.71 29.28 53.10 25.01 52.42 C 21.00 51.92 18.83 46.56 21.52 43.50 Z" />
</g>
</svg>
