<?xml version="1.0" encoding="UTF-8" ?>
<!DOCTYPE svg PUBLIC "-//W3C//DTD SVG 1.1//EN" "http://www.w3.org/Graphics/SVG/1.1/DTD/svg11.dtd">
<svg width="192pt" height="192pt" viewBox="0 0 192 192" version="1.1" xmlns="http://www.w3.org/2000/svg">
<g id="#617080ff">
<path fill="#617080" opacity="1.00" d=" M 115.37 17.47 C 117.48 16.97 120.56 15.85 121.94 18.24 C 124.84 32.52 115.29 47.62 101.20 51.32 C 97.85 51.94 92.15 55.17 90.31 50.74 C 89.77 35.56 100.57 21.07 115.37 17.47 Z" />
<path fill="#617080" opacity="1.00" d=" M 95.93 59.67 C 104.85 54.91 114.82 51.45 125.06 52.03 C 137.42 52.63 149.25 59.90 155.41 70.60 C 157.36 74.90 153.83 78.62 150.10 80.17 C 136.65 87.62 134.98 108.47 146.92 118.08 C 151.00 122.54 161.31 122.51 159.62 130.67 C 154.64 145.36 145.26 158.44 133.82 168.84 C 126.83 175.28 115.89 174.57 108.15 169.89 C 101.52 165.14 92.35 166.91 85.74 170.80 C 78.69 174.71 69.51 173.79 63.24 168.79 C 53.48 161.25 47.09 150.36 41.42 139.61 C 34.45 126.98 31.69 112.24 32.43 97.92 C 33.41 80.45 43.33 63.08 59.41 55.43 C 71.29 49.91 84.96 53.81 95.93 59.67 M 106.05 69.02 C 101.87 70.51 97.91 75.17 93.18 72.99 C 85.18 68.45 75.75 63.66 66.36 66.50 C 52.31 71.89 44.58 87.49 45.10 102.00 C 44.53 120.92 53.73 138.43 65.11 152.93 C 68.62 156.91 73.75 162.50 79.56 159.41 C 89.79 153.65 103.49 151.41 113.77 158.24 C 117.24 160.35 122.42 162.13 125.70 158.73 C 133.71 151.31 140.51 142.41 145.00 132.43 C 132.79 125.77 124.93 111.88 126.01 97.95 C 126.44 87.53 132.01 77.96 139.83 71.28 C 130.57 62.86 116.62 63.61 106.05 69.02 Z" />
</g>
</svg>
