<?xml version="1.0" encoding="UTF-8" ?>
<!DOCTYPE svg PUBLIC "-//W3C//DTD SVG 1.1//EN" "http://www.w3.org/Graphics/SVG/1.1/DTD/svg11.dtd">
<svg width="192pt" height="192pt" viewBox="0 0 192 192" version="1.1" xmlns="http://www.w3.org/2000/svg">
<g id="#45e372ff">
<path fill="#45e372" opacity="1.00" d=" M 84.66 28.67 C 98.56 19.52 116.65 17.23 132.42 22.50 C 147.97 27.55 160.96 39.81 166.94 55.02 C 173.39 71.03 171.81 90.01 162.71 104.69 C 153.04 120.79 134.79 131.33 115.99 131.49 C 100.79 131.50 85.60 131.50 70.40 131.48 C 70.01 139.43 71.56 147.80 68.29 155.33 C 63.45 167.15 48.86 173.69 36.85 169.13 C 26.16 165.58 18.87 154.16 20.17 142.96 C 21.08 131.53 30.77 121.60 42.18 120.44 C 47.81 120.05 53.46 120.39 59.10 120.25 C 59.17 104.82 59.07 89.39 59.15 73.96 C 59.44 55.86 69.45 38.40 84.66 28.67 M 70.62 70.45 C 70.06 87.01 70.54 103.62 70.37 120.20 C 85.90 120.30 101.44 120.34 116.97 120.17 C 136.78 119.66 154.83 104.23 158.65 84.82 C 164.58 60.41 145.77 34.00 120.86 31.37 C 96.97 27.56 72.87 46.44 70.62 70.45 M 31.33 145.94 C 31.39 152.73 37.21 158.80 43.97 159.23 C 51.17 160.06 58.30 154.24 58.94 147.04 C 59.28 141.85 59.19 136.64 58.90 131.46 C 53.67 131.62 48.43 131.25 43.21 131.66 C 36.36 132.47 30.86 139.05 31.33 145.94 Z" />
</g>
</svg>
