<?xml version="1.0" encoding="UTF-8" ?>
<!DOCTYPE svg PUBLIC "-//W3C//DTD SVG 1.1//EN" "http://www.w3.org/Graphics/SVG/1.1/DTD/svg11.dtd">
<svg width="192pt" height="192pt" viewBox="0 0 192 192" version="1.1" xmlns="http://www.w3.org/2000/svg">
<g id="#f6af2aff">
<path fill="#f6af2a" opacity="1.00" d=" M 40.28 21.33 C 43.80 20.55 47.42 20.74 51.00 20.73 C 83.33 20.77 115.66 20.69 147.99 20.76 C 160.19 20.74 170.99 31.75 170.82 43.93 C 170.89 77.98 170.88 112.02 170.84 146.06 C 171.14 158.35 160.34 169.46 148.05 169.51 C 113.69 169.58 79.31 169.56 44.94 169.51 C 32.62 169.49 21.79 158.37 22.07 146.05 C 22.05 112.01 22.03 77.97 22.10 43.94 C 21.98 33.38 30.00 23.55 40.28 21.33 M 42.28 32.32 C 37.20 33.71 33.16 38.58 33.27 43.93 C 33.23 77.98 33.26 112.02 33.27 146.06 C 33.03 152.80 39.28 158.78 46.00 158.33 C 79.67 158.32 113.34 158.32 147.00 158.31 C 153.69 158.68 159.79 152.75 159.65 146.07 C 159.69 112.02 159.72 77.97 159.65 43.92 C 159.72 36.88 152.88 31.22 146.01 31.81 C 111.45 32.18 76.77 31.11 42.28 32.32 Z" />
<path fill="#f6af2a" opacity="1.00" d=" M 126.73 76.94 C 128.76 77.00 130.80 77.05 132.84 77.14 C 133.17 80.33 133.26 83.54 133.03 86.74 C 137.97 83.33 148.11 84.40 147.97 91.97 C 147.81 97.95 149.54 104.86 146.18 110.18 C 140.38 114.43 132.98 110.35 126.46 111.56 C 126.43 100.03 125.90 88.44 126.73 76.94 M 134.23 91.14 C 132.08 94.37 133.52 99.20 133.19 103.05 C 132.45 107.34 138.32 107.54 140.77 105.70 C 141.69 101.56 141.31 97.21 141.11 93.01 C 140.92 89.73 136.32 90.23 134.23 91.14 Z" />
<path fill="#f6af2a" opacity="1.00" d=" M 45.79 79.10 C 47.61 77.70 50.27 78.67 52.43 78.58 C 52.92 89.57 52.67 100.59 52.56 111.59 C 50.38 111.71 48.18 111.75 45.99 111.74 C 45.19 100.92 45.55 89.95 45.79 79.10 Z" />
<path fill="#f6af2a" opacity="1.00" d=" M 58.56 78.58 C 60.78 78.50 63.10 78.05 65.26 78.75 C 69.06 85.12 71.80 92.08 75.24 98.65 C 78.35 92.55 81.19 86.31 84.28 80.19 C 85.41 77.23 89.13 78.78 91.54 78.40 C 92.52 89.42 92.23 100.65 91.70 111.71 C 89.57 111.73 87.43 111.74 85.29 111.73 C 84.59 105.28 85.10 98.78 84.81 92.30 C 82.15 97.82 79.60 103.39 76.65 108.77 C 75.61 108.73 74.58 108.69 73.54 108.62 C 70.77 103.23 68.20 97.74 65.45 92.33 C 65.29 98.55 65.63 104.77 65.29 110.98 C 63.55 112.59 60.66 111.46 58.46 111.53 C 58.34 100.55 58.15 89.55 58.56 78.58 Z" />
<path fill="#f6af2a" opacity="1.00" d=" M 97.60 78.82 C 103.96 78.20 110.57 77.90 116.88 79.11 C 122.17 80.31 122.16 86.70 122.21 91.01 C 121.90 96.83 123.17 103.13 120.60 108.57 C 117.19 112.98 110.83 111.43 106.00 111.79 C 103.34 111.40 99.82 112.66 97.72 110.91 C 97.36 100.23 97.66 89.51 97.60 78.82 M 104.64 84.44 C 104.63 91.54 104.63 98.65 104.64 105.76 C 108.07 105.42 115.00 107.51 114.96 102.06 C 114.82 96.60 115.71 90.94 114.35 85.61 C 111.64 83.48 107.82 84.75 104.64 84.44 Z" />
</g>
</svg>
