<?xml version="1.0" encoding="UTF-8" ?>
<!DOCTYPE svg PUBLIC "-//W3C//DTD SVG 1.1//EN" "http://www.w3.org/Graphics/SVG/1.1/DTD/svg11.dtd">
<svg width="192pt" height="192pt" viewBox="0 0 192 192" version="1.1" xmlns="http://www.w3.org/2000/svg">
<g id="#996987ff">
<path fill="#996987" opacity="1.00" d=" M 41.42 21.57 C 75.96 21.15 110.52 21.48 145.07 21.35 C 153.98 21.07 162.74 26.30 166.67 34.31 C 170.32 41.31 169.00 49.43 169.24 57.00 C 169.02 65.29 169.68 73.64 168.93 81.90 C 167.85 87.62 158.31 86.91 158.14 81.05 C 157.62 68.68 158.21 56.28 157.88 43.91 C 157.72 37.77 152.04 32.53 145.96 32.57 C 111.95 32.52 77.95 32.52 43.95 32.54 C 37.34 32.38 31.57 38.42 31.70 44.96 C 31.54 56.93 31.86 68.91 31.59 80.87 C 31.59 85.28 25.56 87.44 22.49 84.53 C 20.31 82.67 20.64 79.57 20.59 77.00 C 20.70 66.00 20.53 55.01 20.67 44.01 C 20.85 32.76 30.22 22.63 41.42 21.57 Z" />
<path fill="#996987" opacity="1.00" d=" M 41.22 51.96 C 43.58 50.65 46.56 52.52 46.36 55.21 C 46.60 66.33 46.71 77.50 46.33 88.61 C 46.60 92.66 39.70 93.10 39.66 89.01 C 39.31 78.68 39.65 68.33 39.50 57.99 C 39.65 55.94 39.24 53.29 41.22 51.96 Z" />
<path fill="#996987" opacity="1.00" d=" M 54.54 55.19 C 54.28 51.35 60.04 50.06 61.74 53.32 C 64.52 58.45 66.32 64.06 68.98 69.27 C 71.71 64.06 73.32 58.33 76.19 53.19 C 77.97 50.16 83.72 51.42 83.43 55.20 C 83.64 66.41 83.68 77.64 83.41 88.84 C 83.51 92.60 77.17 93.07 76.62 89.40 C 75.69 83.34 76.63 77.14 76.06 71.03 C 73.71 74.61 73.16 82.75 67.18 81.01 C 64.41 78.40 63.70 74.33 61.71 71.17 C 61.19 77.22 61.99 83.32 61.26 89.35 C 60.78 93.03 54.46 92.59 54.54 88.84 C 54.31 77.64 54.33 66.40 54.54 55.19 Z" />
<path fill="#996987" opacity="1.00" d=" M 91.26 55.08 C 91.20 50.90 97.80 50.11 99.16 53.82 C 101.68 58.72 103.38 64.01 105.96 68.89 C 108.43 63.93 110.18 58.65 112.74 53.73 C 114.12 50.06 120.75 51.00 120.43 55.20 C 120.60 66.33 120.79 77.50 120.42 88.63 C 120.52 92.59 114.40 93.54 113.53 89.62 C 112.67 83.49 113.52 77.25 113.03 71.08 C 110.76 74.74 110.20 82.83 104.16 81.06 C 101.37 78.52 100.64 74.52 98.73 71.37 C 98.08 77.55 99.24 83.88 98.02 89.98 C 97.03 93.54 91.31 92.46 91.33 88.88 C 90.85 77.64 90.99 66.33 91.26 55.08 Z" />
<path fill="#996987" opacity="1.00" d=" M 134.36 52.44 C 140.95 49.36 149.73 53.77 150.46 61.18 C 150.84 68.55 151.09 76.03 150.28 83.37 C 148.70 91.83 136.96 94.91 131.04 88.95 C 125.57 83.39 128.06 74.95 127.47 67.99 C 126.94 62.14 128.18 54.84 134.36 52.44 M 136.47 59.50 C 132.65 65.25 135.35 73.34 134.67 80.02 C 133.83 85.26 142.45 86.65 143.32 81.55 C 143.85 75.45 143.58 69.28 143.49 63.15 C 143.73 59.58 139.27 57.42 136.47 59.50 Z" />
<path fill="#996987" opacity="1.00" d=" M 26.34 99.38 C 31.10 97.69 38.01 98.97 39.77 104.31 C 40.96 106.61 38.80 109.41 36.28 108.73 C 33.88 107.44 32.69 103.55 29.38 104.39 C 27.11 104.39 26.09 107.77 28.06 108.91 C 32.53 112.03 38.94 114.03 40.31 120.01 C 41.76 126.02 35.59 130.90 29.98 130.36 C 24.47 130.59 18.65 124.74 21.23 119.23 C 24.18 116.76 26.45 120.15 27.35 122.72 C 28.45 126.50 36.28 124.09 33.85 120.25 C 30.71 115.64 23.46 115.27 21.22 109.75 C 19.49 105.59 22.25 100.78 26.34 99.38 Z" />
<path fill="#996987" opacity="1.00" d=" M 48.28 99.30 C 54.01 96.79 62.45 101.17 61.25 107.98 C 59.51 110.95 56.34 109.06 55.33 106.62 C 54.22 103.41 48.88 103.69 48.52 107.18 C 48.22 112.26 47.97 117.45 48.68 122.51 C 50.05 125.70 54.81 124.83 55.81 121.76 C 56.71 118.76 61.08 118.66 61.47 122.02 C 61.42 129.46 51.07 132.98 45.82 128.20 C 40.71 123.98 42.81 116.70 42.36 110.97 C 41.90 106.38 43.51 100.95 48.28 99.30 Z" />
<path fill="#996987" opacity="1.00" d=" M 70.26 99.22 C 75.71 97.21 82.64 100.91 82.91 106.96 C 83.05 112.75 83.70 118.72 82.35 124.40 C 79.96 131.94 67.71 132.38 64.98 124.91 C 63.46 119.13 63.88 113.01 64.29 107.11 C 64.40 103.54 66.80 100.22 70.26 99.22 M 72.45 104.50 C 67.69 107.58 70.75 115.15 69.97 120.05 C 68.79 124.12 74.96 126.31 76.68 122.70 C 77.24 117.52 77.05 112.25 76.78 107.06 C 76.72 104.87 74.31 103.93 72.45 104.50 Z" />
<path fill="#996987" opacity="1.00" d=" M 86.90 101.10 C 86.97 98.04 92.02 98.05 92.10 101.10 C 92.88 107.97 91.90 114.92 92.55 121.80 C 92.53 125.36 98.59 125.34 98.73 121.86 C 99.68 114.12 97.88 106.17 99.82 98.54 C 101.39 99.13 104.30 98.55 104.19 101.02 C 104.62 108.00 104.72 115.04 104.17 122.02 C 103.99 126.68 99.71 130.77 94.98 130.33 C 90.26 130.10 86.80 125.57 86.74 121.03 C 86.62 114.40 86.37 107.72 86.90 101.10 Z" />
<path fill="#996987" opacity="1.00" d=" M 107.89 100.18 C 111.30 97.77 116.03 99.17 119.99 98.84 C 122.22 98.97 126.70 98.48 126.10 101.97 C 125.98 104.89 122.12 104.59 120.11 105.46 C 119.42 112.87 120.20 120.33 119.67 127.74 C 119.71 130.94 114.13 131.18 114.07 127.93 C 113.51 120.31 114.18 112.65 113.75 105.02 C 110.98 104.90 106.21 104.11 107.89 100.18 Z" />
<path fill="#996987" opacity="1.00" d=" M 134.80 100.76 C 139.85 95.78 149.84 100.34 148.52 107.58 C 146.65 113.68 142.34 118.64 139.32 124.19 C 142.38 124.91 148.21 122.78 149.07 127.04 C 149.13 131.27 143.73 129.93 141.00 130.23 C 137.99 129.97 132.33 131.35 131.92 127.01 C 133.87 119.45 141.07 113.94 142.61 106.30 C 140.64 101.68 137.45 106.78 137.11 109.59 C 131.24 111.32 131.26 103.32 134.80 100.76 Z" />
<path fill="#996987" opacity="1.00" d=" M 159.10 100.10 C 160.30 97.38 165.20 99.11 164.02 102.00 C 162.30 107.60 159.22 112.68 157.15 118.16 C 157.73 118.16 158.90 118.15 159.49 118.15 C 159.06 112.30 166.31 111.82 166.41 117.71 C 167.45 118.48 168.47 119.27 169.48 120.08 C 169.21 122.04 167.99 123.46 166.46 124.62 C 165.75 126.65 165.97 130.27 163.00 130.25 C 159.82 130.46 160.12 126.41 159.34 124.31 C 156.33 123.90 149.71 125.18 150.36 120.36 C 152.89 113.47 155.83 106.67 159.10 100.10 Z" />
<path fill="#996987" opacity="1.00" d=" M 23.42 140.51 C 26.47 138.57 31.17 140.67 31.52 144.33 C 32.10 148.05 30.87 152.41 33.49 155.55 C 36.32 158.81 41.01 158.95 44.99 159.04 C 78.33 158.99 111.67 159.00 145.02 159.00 C 148.99 158.95 153.67 158.67 156.41 155.37 C 159.57 151.38 156.32 145.48 159.51 141.55 C 162.24 138.27 168.31 139.79 169.00 144.06 C 169.78 150.46 169.27 157.72 164.77 162.76 C 159.90 168.35 152.15 170.30 144.98 170.28 C 111.33 170.27 77.67 170.32 44.01 170.25 C 34.83 170.32 24.34 165.96 21.55 156.46 C 20.69 151.41 18.69 144.15 23.42 140.51 Z" />
</g>
</svg>
