<?xml version="1.0" encoding="UTF-8" ?>
<!DOCTYPE svg PUBLIC "-//W3C//DTD SVG 1.1//EN" "http://www.w3.org/Graphics/SVG/1.1/DTD/svg11.dtd">
<svg width="192pt" height="192pt" viewBox="0 0 192 192" version="1.1" xmlns="http://www.w3.org/2000/svg">
<g id="#29a4edff">
<path fill="#29a4ed" opacity="1.00" d=" M 43.36 19.44 C 76.19 18.23 109.13 19.08 142.01 18.82 C 147.97 18.37 153.75 22.95 154.23 28.98 C 154.49 37.85 154.30 46.74 154.32 55.62 C 163.75 55.55 172.83 63.22 172.82 72.93 C 172.88 99.98 172.86 127.02 172.85 154.07 C 172.98 163.47 164.44 171.80 155.06 171.55 C 116.02 171.60 76.98 171.58 37.94 171.54 C 28.52 171.83 19.99 163.50 20.04 154.08 C 19.99 125.35 20.04 96.63 20.05 67.91 C 19.51 63.66 24.67 60.30 28.24 62.83 C 36.69 68.33 45.31 73.64 53.54 79.46 C 57.62 83.20 53.02 90.61 47.86 88.31 C 42.04 84.91 36.58 80.90 30.81 77.41 C 30.79 102.62 30.80 127.83 30.83 153.04 C 30.48 157.06 33.89 160.87 37.98 160.69 C 76.68 160.76 115.37 160.69 154.07 160.70 C 158.35 161.18 162.48 157.45 162.00 153.08 C 161.90 127.87 162.17 102.66 161.85 77.46 C 141.25 91.04 120.51 104.41 99.87 117.91 C 97.82 119.42 95.05 119.54 93.03 117.91 C 84.03 111.91 74.76 106.29 65.93 100.05 C 61.52 96.37 66.45 88.34 71.73 91.22 C 80.02 96.32 88.09 101.80 96.25 107.13 C 116.90 93.97 137.48 80.63 157.79 66.93 C 153.22 65.61 146.02 68.76 143.85 62.90 C 143.09 51.83 143.89 40.64 143.45 29.53 C 111.04 29.67 78.62 29.28 46.22 29.68 C 46.01 35.01 46.94 40.54 45.73 45.76 C 43.93 50.82 35.46 49.25 35.60 43.84 C 35.85 35.50 32.92 22.78 43.36 19.44 Z" />
</g>
</svg>
