<?xml version="1.0" encoding="UTF-8" ?>
<!DOCTYPE svg PUBLIC "-//W3C//DTD SVG 1.1//EN" "http://www.w3.org/Graphics/SVG/1.1/DTD/svg11.dtd">
<svg width="192pt" height="192pt" viewBox="0 0 192 192" version="1.1" xmlns="http://www.w3.org/2000/svg">
<g id="#1ab1ffff">
<path fill="#1ab1ff" opacity="1.00" d=" M 69.53 24.45 C 64.81 22.62 65.97 14.63 71.14 14.50 C 87.37 14.25 103.63 14.33 119.86 14.43 C 125.51 14.10 126.92 22.92 121.72 24.65 C 115.91 25.84 109.85 25.19 103.94 25.33 C 106.36 27.31 108.33 29.76 109.78 32.53 C 119.73 32.58 131.34 31.14 138.93 39.08 C 145.54 45.23 147.18 55.10 145.49 63.63 C 144.04 68.00 136.90 67.97 135.35 63.68 C 133.94 59.23 135.62 54.13 133.10 49.95 C 130.91 45.49 125.71 43.65 121.01 43.76 C 103.66 43.79 86.31 43.67 68.97 43.79 C 62.40 43.68 56.57 49.33 56.79 55.97 C 56.68 75.64 56.80 95.32 56.76 114.99 C 56.26 125.55 64.57 133.23 69.33 141.84 C 86.84 141.87 104.39 141.94 121.90 141.82 C 126.33 135.63 130.59 129.16 134.37 122.55 C 135.22 108.76 134.19 94.83 134.86 81.01 C 135.45 75.19 145.43 75.12 145.90 81.03 C 146.08 95.35 146.20 109.72 145.84 124.03 C 143.31 133.00 136.01 139.73 131.98 148.03 C 134.23 155.54 138.42 162.39 140.36 170.01 C 141.11 175.02 133.85 178.03 130.63 174.33 C 128.58 172.09 129.08 167.02 125.04 167.19 C 104.77 167.15 84.49 167.28 64.22 167.21 C 62.88 170.04 62.13 173.52 59.37 175.36 C 55.45 177.50 49.97 173.68 51.31 169.20 C 53.63 161.93 57.18 155.11 59.74 147.92 C 54.01 138.51 45.90 129.56 45.55 117.96 C 45.45 97.32 45.52 76.67 45.55 56.03 C 45.55 47.48 50.29 38.89 58.14 35.18 C 65.42 31.48 73.82 32.74 81.67 32.63 C 83.14 29.82 85.12 27.32 87.59 25.34 C 81.60 25.12 75.35 26.24 69.53 24.45 M 70.02 153.13 C 69.64 154.05 69.25 154.97 68.85 155.88 C 86.90 155.67 104.96 156.02 123.00 155.68 C 122.11 154.25 120.98 152.73 119.05 153.13 C 102.71 153.12 86.36 153.29 70.02 153.13 Z" />
<path fill="#1ab1ff" opacity="1.00" d=" M 74.26 107.24 C 78.98 105.38 84.78 108.89 85.13 114.00 C 86.04 120.46 77.70 125.75 72.42 121.58 C 66.97 118.27 68.05 108.99 74.26 107.24 Z" />
<path fill="#1ab1ff" opacity="1.00" d=" M 111.32 107.39 C 116.42 105.00 123.08 109.20 122.69 114.93 C 122.92 121.00 115.33 125.40 110.30 121.76 C 104.74 118.68 105.23 109.55 111.32 107.39 Z" />
</g>
</svg>
