<?xml version="1.0" encoding="UTF-8" ?>
<!DOCTYPE svg PUBLIC "-//W3C//DTD SVG 1.1//EN" "http://www.w3.org/Graphics/SVG/1.1/DTD/svg11.dtd">
<svg width="192pt" height="192pt" viewBox="0 0 192 192" version="1.1" xmlns="http://www.w3.org/2000/svg">
<g id="#77bfebff">
<path fill="#77bfeb" opacity="1.00" d=" M 67.41 24.38 C 84.42 9.39 113.02 10.97 128.34 27.65 C 143.58 43.01 144.03 68.71 131.59 85.87 C 127.19 81.49 125.75 74.68 127.78 68.84 C 131.66 57.28 128.52 43.73 119.94 35.07 C 109.66 24.62 92.26 21.91 79.59 29.52 C 68.29 35.85 61.42 49.17 63.16 62.05 C 64.19 72.36 70.77 81.03 78.05 87.94 C 88.24 97.42 97.76 107.57 107.73 117.27 C 112.87 122.33 116.84 129.62 115.14 137.02 C 113.00 148.08 100.09 155.22 89.54 151.50 C 81.44 148.57 75.36 139.81 76.44 131.11 C 77.60 124.94 85.60 121.90 90.55 125.84 C 86.36 130.03 86.43 138.23 92.53 140.55 C 99.25 143.87 107.96 135.26 103.10 128.83 C 90.24 113.45 74.35 100.91 61.20 85.81 C 46.64 67.94 49.62 38.99 67.41 24.38 Z" />
<path fill="#77bfeb" opacity="1.00" d=" M 80.49 46.52 C 86.72 37.77 100.63 36.19 108.68 43.29 C 113.72 47.64 117.50 54.71 115.51 61.45 C 113.59 67.06 105.99 68.94 101.40 65.34 C 104.84 61.85 105.86 55.65 101.71 52.29 C 96.73 47.28 86.70 51.83 87.78 59.01 C 89.58 66.31 96.63 70.34 101.50 75.49 C 111.95 86.01 123.72 95.43 132.37 107.59 C 140.17 118.46 142.63 132.88 138.80 145.71 C 134.55 160.15 122.44 172.03 107.87 175.86 C 91.84 180.25 73.75 174.62 62.72 162.27 C 51.03 149.64 47.88 129.88 55.33 114.34 C 57.83 109.27 65.34 108.81 68.80 113.13 C 58.20 127.79 61.70 150.08 76.79 160.23 C 89.36 168.89 107.98 167.79 118.88 156.86 C 130.42 146.32 132.44 127.34 123.44 114.57 C 111.23 98.62 94.78 86.51 81.52 71.49 C 75.47 64.66 75.01 53.81 80.49 46.52 Z" />
</g>
</svg>
