<?xml version="1.0" encoding="UTF-8" ?>
<!DOCTYPE svg PUBLIC "-//W3C//DTD SVG 1.1//EN" "http://www.w3.org/Graphics/SVG/1.1/DTD/svg11.dtd">
<svg width="192pt" height="192pt" viewBox="0 0 192 192" version="1.1" xmlns="http://www.w3.org/2000/svg">
<g id="#c521d2ff">
<path fill="#c521d2" opacity="1.00" d=" M 85.32 18.41 C 106.58 15.38 128.98 21.80 145.38 35.66 C 169.15 55.23 179.21 89.78 168.91 118.90 C 158.86 149.11 128.79 170.99 97.02 171.70 C 74.01 171.85 50.99 171.78 27.98 171.72 C 23.46 172.00 21.00 166.09 23.80 162.76 C 28.30 154.78 36.27 145.71 30.84 136.15 C 18.24 116.01 15.39 90.12 23.88 67.87 C 33.23 41.75 57.86 22.08 85.32 18.41 M 67.00 35.00 C 48.82 43.74 35.18 61.25 31.15 81.02 C 27.53 97.70 30.97 115.59 39.93 130.05 C 45.65 139.63 44.08 152.03 37.60 160.82 C 51.07 161.12 64.54 160.89 78.00 160.96 C 88.97 160.81 100.14 161.72 110.86 158.85 C 133.13 153.41 152.22 136.06 159.07 114.09 C 165.94 92.92 160.73 68.55 146.30 51.70 C 127.71 28.88 93.23 21.80 67.00 35.00 Z" />
<path fill="#c521d2" opacity="1.00" d=" M 54.37 84.53 C 61.54 82.19 69.33 89.34 67.62 96.69 C 66.60 104.46 55.95 108.18 50.33 102.70 C 44.00 97.69 46.52 86.37 54.37 84.53 Z" />
<path fill="#c521d2" opacity="1.00" d=" M 93.34 84.44 C 100.94 82.19 108.70 90.45 105.97 97.91 C 103.96 105.47 93.12 107.90 88.10 101.90 C 82.63 96.43 85.76 85.99 93.34 84.44 Z" />
<path fill="#c521d2" opacity="1.00" d=" M 132.29 84.35 C 139.44 82.53 146.73 89.82 144.82 96.96 C 143.55 104.65 132.94 108.14 127.42 102.57 C 121.03 97.31 124.11 85.71 132.29 84.35 Z" />
</g>
</svg>
