<?xml version="1.0" encoding="UTF-8" ?>
<!DOCTYPE svg PUBLIC "-//W3C//DTD SVG 1.1//EN" "http://www.w3.org/Graphics/SVG/1.1/DTD/svg11.dtd">
<svg width="192pt" height="192pt" viewBox="0 0 192 192" version="1.1" xmlns="http://www.w3.org/2000/svg">
<g id="#1ab1ffff">
<path fill="#1ab1ff" opacity="1.00" d=" M 101.23 13.33 C 140.57 13.84 175.55 48.88 177.53 88.02 C 177.33 92.00 172.16 94.56 168.92 92.13 C 165.28 89.64 166.44 84.59 165.32 80.87 C 159.85 51.02 133.20 26.82 102.97 24.21 C 97.00 24.29 95.59 15.08 101.23 13.33 Z" />
<path fill="#1ab1ff" opacity="1.00" d=" M 74.43 15.54 C 81.33 12.59 85.33 24.31 78.10 26.12 C 47.35 33.91 24.11 64.17 25.41 96.01 C 25.34 130.65 54.42 162.09 88.91 164.90 C 120.33 168.68 152.29 148.27 162.52 118.42 C 164.17 114.51 164.44 110.14 166.24 106.31 C 169.16 101.75 177.13 104.59 176.41 109.99 C 170.68 143.83 141.08 171.70 107.05 175.81 C 74.71 180.63 40.73 163.71 24.87 135.17 C 12.94 114.49 10.89 88.50 19.28 66.16 C 28.15 41.75 49.29 22.19 74.43 15.54 Z" />
<path fill="#1ab1ff" opacity="1.00" d=" M 102.37 38.47 C 127.81 40.44 149.99 62.64 152.15 88.05 C 151.84 94.01 142.27 94.81 141.21 88.86 C 138.82 70.62 124.71 54.47 106.65 50.45 C 103.74 49.64 99.79 49.83 98.23 46.70 C 96.29 43.46 98.63 38.84 102.37 38.47 Z" />
<path fill="#1ab1ff" opacity="1.00" d=" M 90.46 63.68 C 106.90 60.28 124.33 72.43 126.92 88.98 C 130.41 105.52 118.07 123.07 101.41 125.54 C 84.97 128.90 67.57 116.57 65.12 100.02 C 61.76 83.61 73.95 66.25 90.46 63.68 M 92.46 74.73 C 84.37 76.10 77.57 82.86 76.22 90.96 C 74.52 99.38 78.98 108.51 86.61 112.42 C 94.08 116.49 104.05 115.07 110.07 109.05 C 116.38 103.08 118.06 92.88 113.87 85.24 C 110.01 77.58 100.90 73.10 92.46 74.73 Z" />
</g>
</svg>
