<?xml version="1.0" encoding="UTF-8" ?>
<!DOCTYPE svg PUBLIC "-//W3C//DTD SVG 1.1//EN" "http://www.w3.org/Graphics/SVG/1.1/DTD/svg11.dtd">
<svg width="192pt" height="192pt" viewBox="0 0 192 192" version="1.1" xmlns="http://www.w3.org/2000/svg">
<g id="#1bb3ffff">
<path fill="#1bb3ff" opacity="1.00" d=" M 67.13 30.14 C 76.01 15.66 96.51 10.34 111.30 18.72 C 126.82 26.55 133.69 47.22 125.85 62.77 C 118.48 79.23 97.17 86.67 80.99 78.87 C 74.66 89.78 68.93 101.08 62.89 112.17 C 72.39 117.74 79.23 127.61 80.36 138.65 C 90.43 138.67 100.50 138.67 110.57 138.65 C 111.98 121.97 127.19 107.95 143.98 108.24 C 162.04 107.66 178.44 123.90 177.82 142.00 C 178.25 158.96 163.82 174.37 146.96 175.41 C 131.01 177.10 115.24 165.67 111.47 150.16 C 100.78 150.21 90.07 149.87 79.40 150.14 C 75.34 167.58 55.89 179.38 38.55 174.49 C 20.81 170.56 9.05 150.61 14.22 133.17 C 18.23 116.90 35.53 105.81 52.00 108.56 C 58.52 96.42 65.13 84.32 71.56 72.13 C 60.59 61.34 58.51 42.95 67.13 30.14 M 90.39 26.54 C 80.62 28.63 72.95 37.96 73.07 47.99 C 72.60 58.38 80.55 68.21 90.71 70.22 C 104.16 73.61 118.54 61.82 117.80 47.97 C 118.03 34.22 103.69 23.08 90.39 26.54 M 140.51 119.82 C 128.53 121.51 119.56 134.15 122.16 146.03 C 124.15 158.02 137.05 166.63 148.89 163.72 C 160.97 161.40 169.34 147.97 165.78 136.11 C 163.12 125.29 151.48 117.76 140.51 119.82 M 40.34 120.43 C 30.03 123.30 22.90 134.24 24.51 144.84 C 25.77 155.74 36.01 164.63 47.00 164.23 C 58.06 164.35 68.16 155.08 69.01 144.07 C 71.13 128.94 54.81 115.45 40.34 120.43 Z" />
</g>
</svg>
