<?xml version="1.0" encoding="UTF-8" ?>
<!DOCTYPE svg PUBLIC "-//W3C//DTD SVG 1.1//EN" "http://www.w3.org/Graphics/SVG/1.1/DTD/svg11.dtd">
<svg width="192pt" height="192pt" viewBox="0 0 192 192" version="1.1" xmlns="http://www.w3.org/2000/svg">
<g id="#daa43bff">
<path fill="#daa43b" opacity="1.00" d=" M 40.29 21.31 C 75.78 19.96 111.43 21.10 146.98 20.72 C 159.58 20.16 171.02 31.36 170.86 43.93 C 170.94 77.98 170.93 112.02 170.89 146.06 C 171.16 158.37 160.37 169.49 148.06 169.54 C 113.38 169.59 78.70 169.66 44.03 169.48 C 30.76 169.03 20.50 155.98 21.97 143.00 C 22.04 109.98 21.96 76.95 22.06 43.93 C 21.98 33.37 29.98 23.51 40.29 21.31 M 42.29 32.37 C 36.82 33.79 32.84 39.28 33.26 44.93 C 33.29 78.65 33.24 112.36 33.29 146.08 C 33.09 152.80 39.28 158.75 45.99 158.30 C 79.67 158.29 113.34 158.29 147.01 158.27 C 153.70 158.65 159.75 152.74 159.62 146.07 C 159.68 112.02 159.71 77.97 159.62 43.92 C 159.67 36.88 152.89 31.27 146.02 31.88 C 111.46 32.20 76.79 31.14 42.29 32.37 Z" />
<path fill="#daa43b" opacity="1.00" d=" M 45.78 69.42 C 47.10 69.43 48.42 69.44 49.75 69.46 C 49.74 76.45 49.81 83.45 49.71 90.45 C 48.44 90.44 47.17 90.44 45.90 90.44 C 45.48 83.44 45.65 76.42 45.78 69.42 Z" />
<path fill="#daa43b" opacity="1.00" d=" M 53.76 69.54 C 55.05 69.49 56.33 69.44 57.62 69.39 C 59.82 73.51 61.80 77.75 64.29 81.71 C 64.56 77.65 64.50 73.57 64.53 69.50 C 65.89 69.47 67.24 69.45 68.60 69.42 C 68.67 76.44 68.69 83.46 68.61 90.48 C 67.34 90.44 66.08 90.40 64.82 90.37 C 62.70 86.20 60.74 81.91 57.98 78.11 C 57.66 82.24 57.77 86.39 57.72 90.53 C 56.39 90.45 55.07 90.37 53.74 90.29 C 53.70 83.37 53.68 76.46 53.76 69.54 Z" />
<path fill="#daa43b" opacity="1.00" d=" M 72.88 79.15 C 71.70 75.89 71.29 69.57 76.11 69.35 C 81.02 68.26 87.27 69.41 86.86 75.65 C 85.53 75.71 84.19 75.77 82.86 75.82 C 82.18 72.50 79.42 72.11 76.49 72.44 C 76.50 73.98 76.53 75.53 76.56 77.07 C 79.85 78.07 83.74 78.20 86.33 80.68 C 86.80 83.63 87.78 87.90 84.95 89.93 C 79.98 91.64 71.67 91.43 72.17 84.24 C 73.47 83.96 74.77 83.69 76.07 83.43 C 76.56 84.75 77.07 86.06 77.57 87.37 C 79.19 87.33 80.81 87.29 82.44 87.25 C 82.49 85.73 82.54 84.21 82.58 82.69 C 79.35 81.57 75.66 81.29 72.88 79.15 Z" />
<path fill="#daa43b" opacity="1.00" d=" M 90.23 69.42 C 94.13 69.57 98.17 68.95 101.98 69.99 C 105.97 71.83 104.70 77.18 104.53 80.70 C 103.54 85.17 97.86 84.23 94.41 84.40 C 94.70 87.77 94.74 91.37 90.36 90.74 C 90.08 83.64 90.28 76.53 90.23 69.42 M 94.36 72.59 C 94.36 75.30 94.35 78.00 94.36 80.71 C 96.39 80.62 98.41 80.53 100.44 80.42 C 100.51 78.12 100.52 75.82 100.50 73.52 C 98.46 73.21 96.41 72.89 94.36 72.59 Z" />
<path fill="#daa43b" opacity="1.00" d=" M 107.76 69.54 C 109.09 69.47 110.42 69.41 111.76 69.35 C 111.78 76.41 111.84 83.48 111.72 90.54 C 110.40 90.46 109.07 90.38 107.75 90.30 C 107.68 83.38 107.66 76.46 107.76 69.54 Z" />
<path fill="#daa43b" opacity="1.00" d=" M 116.19 69.39 C 120.47 69.81 125.39 68.35 129.20 70.81 C 131.71 74.72 131.43 80.86 127.85 84.15 C 128.66 86.23 129.47 88.31 130.22 90.41 C 128.98 90.43 127.75 90.45 126.51 90.46 C 125.04 87.66 124.07 84.01 120.52 83.27 C 120.27 85.67 120.03 88.08 119.76 90.48 C 118.59 90.47 117.42 90.46 116.26 90.45 C 116.16 83.43 116.26 76.41 116.19 69.39 M 120.29 72.58 C 120.25 75.20 120.23 77.83 120.19 80.45 C 122.23 80.40 124.26 80.34 126.29 80.27 C 126.36 78.04 126.40 75.81 126.42 73.59 C 124.38 73.24 122.33 72.89 120.29 72.58 Z" />
<path fill="#daa43b" opacity="1.00" d=" M 133.80 69.42 C 138.03 69.41 142.26 69.40 146.49 69.45 C 146.55 70.55 146.60 71.66 146.66 72.77 C 143.85 72.79 141.03 72.80 138.22 72.80 C 138.21 74.59 138.21 76.38 138.20 78.18 C 140.65 78.20 143.10 78.22 145.55 78.29 C 145.52 79.39 145.49 80.49 145.46 81.59 C 143.04 81.61 140.62 81.62 138.19 81.62 C 138.19 83.31 138.19 85.01 138.18 86.70 C 141.00 86.72 143.82 86.74 146.64 86.81 C 146.66 87.70 146.70 89.48 146.72 90.37 C 142.39 90.48 138.06 90.48 133.73 90.37 C 133.69 83.39 133.61 76.41 133.80 69.42 Z" />
<path fill="#daa43b" opacity="1.00" d=" M 134.62 95.65 C 140.26 94.25 148.25 95.97 146.72 103.44 C 145.06 103.42 143.42 103.40 141.77 103.36 C 141.62 102.05 141.48 100.74 141.34 99.43 C 137.46 98.67 134.04 99.87 135.16 104.38 C 138.88 105.75 143.42 105.74 146.39 108.62 C 146.90 111.83 147.64 115.84 145.64 118.65 C 140.17 122.11 128.83 121.03 130.32 112.30 C 133.60 111.57 136.05 112.54 136.06 116.25 C 139.10 116.69 143.55 116.18 142.20 111.95 C 139.25 108.90 134.10 109.89 130.92 107.02 C 129.62 103.18 129.09 96.14 134.62 95.65 Z" />
<path fill="#daa43b" opacity="1.00" d=" M 46.00 95.70 C 47.54 95.76 49.07 95.82 50.61 95.90 C 51.86 100.88 52.57 106.01 54.47 110.81 C 55.92 106.01 57.00 101.11 58.18 96.24 C 59.65 96.23 61.13 96.23 62.60 96.22 C 63.94 101.22 65.10 106.27 66.34 111.30 C 69.79 106.25 66.51 94.72 74.99 95.56 C 73.66 103.70 71.36 111.64 69.50 119.67 C 67.71 119.67 65.92 119.66 64.12 119.65 C 62.93 115.17 61.90 110.65 60.64 106.19 C 58.82 110.50 57.98 115.12 56.83 119.63 C 55.03 119.66 53.23 119.67 51.43 119.68 C 49.49 111.72 47.17 103.82 46.00 95.70 Z" />
<path fill="#daa43b" opacity="1.00" d=" M 80.56 95.96 C 82.81 96.09 86.62 94.56 87.32 97.69 C 89.69 104.97 91.80 112.34 93.92 119.69 C 92.18 119.68 90.45 119.66 88.72 119.62 C 88.51 118.24 88.31 116.86 88.12 115.47 C 85.36 115.41 82.60 115.39 79.84 115.39 C 79.51 116.81 79.18 118.23 78.84 119.65 C 77.15 119.67 75.47 119.69 73.79 119.71 C 75.50 111.64 78.34 103.89 80.56 95.96 M 83.62 102.28 C 82.65 105.30 81.82 108.37 81.04 111.45 C 82.94 111.45 84.85 111.46 86.76 111.46 C 85.91 108.34 84.99 105.22 83.62 102.28 Z" />
<path fill="#daa43b" opacity="1.00" d=" M 96.42 95.72 C 98.04 95.94 100.22 95.17 101.20 96.93 C 101.59 103.15 101.25 109.40 101.34 115.63 C 105.18 115.99 111.79 113.66 111.54 119.64 C 106.49 119.75 101.45 119.71 96.41 119.67 C 96.38 111.69 96.37 103.70 96.42 95.72 Z" />
<path fill="#daa43b" opacity="1.00" d=" M 113.78 96.90 C 114.78 95.17 116.93 95.92 118.56 95.72 C 118.62 102.34 118.61 108.97 118.58 115.59 C 121.86 115.61 125.14 115.62 128.42 115.68 C 128.48 117.00 128.53 118.33 128.59 119.66 C 123.63 119.74 118.68 119.72 113.72 119.69 C 113.70 112.09 113.47 104.49 113.78 96.90 Z" />
</g>
</svg>
