<?xml version="1.0" encoding="UTF-8" ?>
<!DOCTYPE svg PUBLIC "-//W3C//DTD SVG 1.1//EN" "http://www.w3.org/Graphics/SVG/1.1/DTD/svg11.dtd">
<svg width="192pt" height="192pt" viewBox="0 0 192 192" version="1.1" xmlns="http://www.w3.org/2000/svg">
<g id="#bf46a2ff">
<path fill="#bf46a2" opacity="1.00" d=" M 40.28 21.34 C 43.80 20.56 47.42 20.75 51.00 20.74 C 83.32 20.77 115.65 20.67 147.97 20.75 C 160.21 20.68 171.01 31.75 170.85 43.95 C 170.92 77.98 170.87 112.01 170.85 146.04 C 171.18 158.34 160.35 169.47 148.06 169.52 C 113.69 169.59 79.31 169.57 44.94 169.51 C 32.61 169.50 21.77 158.36 22.08 146.03 C 22.06 112.01 22.08 77.98 22.12 43.95 C 21.98 33.39 30.02 23.59 40.28 21.34 M 60.48 31.79 C 55.31 31.87 50.13 31.61 44.96 31.86 C 38.76 32.12 33.10 37.61 33.28 43.93 C 33.24 77.97 33.27 112.02 33.28 146.06 C 33.02 152.81 39.29 158.78 46.01 158.34 C 79.67 158.32 113.33 158.33 146.98 158.31 C 153.68 158.71 159.80 152.76 159.65 146.08 C 159.73 112.36 159.66 78.65 159.67 44.94 C 160.18 37.95 153.93 31.65 146.98 31.88 C 118.15 31.83 89.31 31.85 60.48 31.79 Z" />
<path fill="#bf46a2" opacity="1.00" d=" M 90.38 62.46 C 108.27 58.41 127.41 71.93 129.76 90.06 C 132.95 107.56 119.59 125.67 102.03 128.07 C 84.76 131.23 66.78 118.32 64.09 101.02 C 60.52 83.78 73.10 65.50 90.38 62.46 M 92.41 73.59 C 81.42 75.61 73.30 86.97 75.04 98.03 C 76.22 108.71 86.24 117.48 97.00 117.12 C 107.70 117.30 117.55 108.53 118.68 97.90 C 121.03 83.57 106.52 70.17 92.41 73.59 Z" />
</g>
</svg>
