<?xml version="1.0" encoding="UTF-8" ?>
<!DOCTYPE svg PUBLIC "-//W3C//DTD SVG 1.1//EN" "http://www.w3.org/Graphics/SVG/1.1/DTD/svg11.dtd">
<svg width="192pt" height="192pt" viewBox="0 0 192 192" version="1.1" xmlns="http://www.w3.org/2000/svg">
<g id="#2d9fddff">
<path fill="#2d9fdd" opacity="1.00" d=" M 82.41 12.49 C 114.13 7.55 147.59 23.48 163.98 51.03 C 176.80 71.74 179.42 98.27 171.19 121.17 C 161.26 149.83 134.22 171.59 104.05 174.97 C 73.70 179.08 41.95 164.34 25.44 138.58 C 6.13 110.08 7.93 69.40 29.73 42.74 C 42.59 26.45 61.80 15.26 82.41 12.49 M 85.40 23.51 C 65.05 25.89 46.10 37.72 34.94 54.88 C 23.69 71.73 20.40 93.54 26.03 112.99 C 33.29 139.39 57.18 160.16 84.36 163.57 C 107.95 166.98 132.79 157.36 147.96 139.00 C 167.02 117.02 169.96 82.95 154.91 58.05 C 141.26 34.09 112.76 19.89 85.40 23.51 Z" />
<path fill="#2d9fdd" opacity="1.00" d=" M 160.40 17.48 C 165.48 16.13 170.89 20.81 170.27 26.04 C 170.08 32.47 161.24 36.01 156.74 31.33 C 151.91 27.31 154.21 18.58 160.40 17.48 Z" />
<path fill="#2d9fdd" opacity="1.00" d=" M 129.37 49.55 C 136.69 48.49 140.98 58.81 135.41 63.41 C 131.16 67.71 123.00 64.79 122.29 58.87 C 121.33 54.41 124.91 49.91 129.37 49.55 Z" />
<path fill="#2d9fdd" opacity="1.00" d=" M 86.35 62.45 C 105.29 57.04 126.52 73.24 125.85 93.01 C 127.03 110.33 111.24 126.23 94.00 125.65 C 77.12 126.27 61.35 111.02 62.15 94.00 C 61.16 79.44 72.32 65.66 86.35 62.45 M 88.29 73.33 C 78.02 76.00 70.89 87.31 73.31 97.71 C 75.06 107.55 84.64 115.23 94.65 114.63 C 104.81 114.53 113.83 106.06 114.91 96.02 C 117.07 81.90 101.97 68.83 88.29 73.33 Z" />
</g>
</svg>
