<?xml version="1.0" encoding="UTF-8" ?>
<!DOCTYPE svg PUBLIC "-//W3C//DTD SVG 1.1//EN" "http://www.w3.org/Graphics/SVG/1.1/DTD/svg11.dtd">
<svg width="192pt" height="192pt" viewBox="0 0 192 192" version="1.1" xmlns="http://www.w3.org/2000/svg">
<g id="#da69b3ff">
<path fill="#da69b3" opacity="1.00" d=" M 40.27 21.32 C 71.11 20.04 102.12 21.01 133.02 20.82 C 139.46 20.95 139.43 31.78 132.94 31.72 C 103.95 31.91 74.96 31.71 45.97 31.81 C 39.40 31.59 33.09 37.23 33.27 43.93 C 33.23 77.98 33.26 112.02 33.26 146.07 C 33.01 152.52 38.76 158.39 45.20 158.35 C 79.40 158.38 113.61 158.40 147.81 158.36 C 154.22 158.33 159.88 152.49 159.69 146.07 C 159.83 117.05 159.51 88.00 159.84 58.99 C 160.25 52.79 170.40 52.92 170.69 59.09 C 170.93 88.07 170.74 117.07 170.76 146.06 C 171.12 158.32 160.28 169.37 148.06 169.47 C 113.69 169.53 79.31 169.53 44.94 169.48 C 32.63 169.46 21.77 158.36 22.09 146.04 C 22.06 112.00 22.05 77.97 22.10 43.94 C 21.98 33.38 30.00 23.56 40.27 21.32 Z" />
<path fill="#da69b3" opacity="1.00" d=" M 156.27 21.32 C 163.86 18.30 172.58 25.81 170.71 33.73 C 169.49 41.94 158.13 45.68 152.40 39.57 C 146.45 34.40 148.77 23.66 156.27 21.32 Z" />
<path fill="#da69b3" opacity="1.00" d=" M 92.31 58.33 C 105.87 56.56 120.07 63.00 127.68 74.37 C 136.04 86.28 136.39 103.19 128.48 115.41 C 121.02 127.54 106.26 134.60 92.13 132.64 C 74.09 130.76 59.24 114.14 59.36 96.00 C 58.71 77.43 73.83 60.16 92.31 58.33 M 92.49 69.78 C 81.51 71.49 72.30 80.92 70.98 91.97 C 69.31 102.75 75.36 114.05 85.15 118.79 C 99.78 126.79 119.84 116.75 122.37 100.33 C 126.31 83.33 109.55 66.26 92.49 69.78 Z" />
</g>
</svg>
