<?xml version="1.0" encoding="UTF-8" ?>
<!DOCTYPE svg PUBLIC "-//W3C//DTD SVG 1.1//EN" "http://www.w3.org/Graphics/SVG/1.1/DTD/svg11.dtd">
<svg width="192pt" height="192pt" viewBox="0 0 192 192" version="1.1" xmlns="http://www.w3.org/2000/svg">
<g id="#8e7659ff">
<path fill="#8e7659" opacity="1.00" d=" M 22.12 43.93 C 21.93 32.09 32.16 21.35 43.97 20.86 C 49.98 20.72 56.02 20.51 62.01 20.94 C 65.11 21.14 64.76 24.76 64.80 26.97 C 64.60 44.60 65.03 62.25 64.61 79.87 C 63.84 86.10 53.60 85.34 53.67 79.03 C 53.44 63.42 53.68 47.79 53.57 32.17 C 49.58 32.28 45.52 31.74 41.60 32.60 C 36.88 34.19 33.19 38.86 33.31 43.93 C 33.26 77.97 33.30 112.02 33.30 146.06 C 33.01 152.83 39.27 158.76 45.99 158.35 C 79.66 158.33 113.33 158.33 147.00 158.31 C 153.70 158.70 159.81 152.76 159.64 146.07 C 159.72 112.36 159.67 78.64 159.68 44.93 C 160.01 39.34 156.09 33.83 150.66 32.45 C 147.17 31.89 143.63 32.21 140.13 32.14 C 139.90 48.06 140.52 64.03 139.82 79.92 C 138.90 86.10 128.78 85.33 128.83 79.04 C 128.60 61.36 128.84 43.66 128.72 25.97 C 128.50 23.79 129.20 20.71 131.98 20.83 C 137.99 20.66 144.03 20.56 150.03 20.95 C 161.41 21.99 170.96 32.48 170.82 43.94 C 170.89 77.98 170.87 112.02 170.85 146.06 C 171.21 158.37 160.34 169.51 148.05 169.54 C 113.68 169.61 79.31 169.58 44.95 169.53 C 32.61 169.55 21.75 158.39 22.09 146.05 C 22.06 112.01 22.06 77.97 22.12 43.93 Z" />
<path fill="#8e7659" opacity="1.00" d=" M 75.32 21.31 C 79.21 19.23 84.02 22.72 83.57 27.01 C 83.54 44.54 83.91 62.11 83.47 79.63 C 82.92 86.17 72.16 85.54 72.19 79.04 C 71.89 62.36 72.30 45.65 72.11 28.96 C 72.02 26.15 72.33 22.57 75.32 21.31 Z" />
<path fill="#8e7659" opacity="1.00" d=" M 94.32 21.31 C 98.12 19.28 102.89 22.77 102.42 26.97 C 102.36 44.64 102.78 62.35 102.25 80.00 C 101.30 86.22 91.10 85.28 91.20 79.03 C 91.00 62.01 91.27 44.97 91.15 27.94 C 90.98 25.37 91.71 22.40 94.32 21.31 Z" />
<path fill="#8e7659" opacity="1.00" d=" M 113.34 21.34 C 117.16 19.25 121.89 22.86 121.46 27.03 C 121.42 44.55 121.82 62.10 121.37 79.61 C 120.83 86.14 110.13 85.52 110.18 79.04 C 109.94 62.36 110.35 45.66 110.17 28.97 C 110.05 26.15 110.32 22.60 113.34 21.34 Z" />
</g>
</svg>
