<?xml version="1.0" encoding="UTF-8" ?>
<!DOCTYPE svg PUBLIC "-//W3C//DTD SVG 1.1//EN" "http://www.w3.org/Graphics/SVG/1.1/DTD/svg11.dtd">
<svg width="192pt" height="192pt" viewBox="0 0 192 192" version="1.1" xmlns="http://www.w3.org/2000/svg">
<g id="#474e5eff">
<path fill="#474e5e" opacity="1.00" d=" M 111.87 20.88 C 115.67 15.13 125.17 15.48 128.65 21.39 C 140.84 41.70 152.18 62.77 159.44 85.41 C 163.43 98.08 166.00 112.15 161.11 124.95 C 154.97 142.60 136.62 154.75 117.99 153.74 C 105.36 171.37 81.00 179.55 60.56 171.61 C 38.67 163.95 24.79 139.70 28.66 116.92 C 33.48 87.38 48.49 60.81 63.24 35.21 C 67.06 27.60 77.18 24.14 84.72 28.28 C 91.53 31.72 93.49 39.70 97.85 45.37 C 102.39 37.14 106.73 28.76 111.87 20.88 M 118.21 31.21 C 113.15 39.58 108.52 48.23 104.16 56.99 C 112.74 74.27 121.30 91.84 125.30 110.84 C 127.71 121.30 127.21 132.28 123.88 142.48 C 136.88 141.27 148.31 131.22 151.68 118.68 C 154.78 108.27 151.77 97.39 148.75 87.33 C 142.17 67.81 132.62 49.42 122.25 31.67 C 121.72 30.00 118.99 29.46 118.21 31.21 M 75.36 38.37 C 73.93 39.28 73.12 40.84 72.24 42.23 C 61.02 61.43 50.36 81.18 43.53 102.43 C 40.35 113.18 37.58 124.85 41.03 135.89 C 45.32 151.18 60.08 162.89 76.03 163.16 C 92.11 164.08 107.98 153.31 113.07 138.04 C 117.28 127.64 115.39 116.07 112.38 105.63 C 105.64 82.66 93.99 61.56 81.98 41.00 C 80.85 38.32 77.97 37.63 75.36 38.37 Z" />
</g>
</svg>
