<?xml version="1.0" encoding="UTF-8" ?>
<!DOCTYPE svg PUBLIC "-//W3C//DTD SVG 1.1//EN" "http://www.w3.org/Graphics/SVG/1.1/DTD/svg11.dtd">
<svg width="192pt" height="192pt" viewBox="0 0 192 192" version="1.1" xmlns="http://www.w3.org/2000/svg">
<g id="#ff3661ff">
<path fill="#ff3661" opacity="1.00" d=" M 93.67 12.73 C 98.89 9.65 106.49 13.74 106.28 19.94 C 107.27 25.75 103.32 30.52 102.43 36.03 C 107.40 38.49 112.41 40.96 117.09 43.93 C 121.25 46.96 120.39 52.52 120.83 56.98 C 122.73 69.68 125.16 82.28 126.79 95.03 C 127.25 100.30 131.63 105.89 127.94 110.88 C 127.38 113.15 125.21 113.47 123.20 113.26 C 123.44 106.28 124.82 98.93 121.61 92.38 C 118.27 85.27 116.63 77.55 113.73 70.33 C 111.60 77.24 117.44 84.10 114.45 90.91 C 117.71 102.68 119.80 114.84 120.75 127.00 C 119.00 134.15 124.15 140.86 121.18 147.85 C 123.41 151.56 124.05 155.88 124.53 160.11 C 153.91 147.43 172.00 113.41 165.25 81.97 C 160.86 57.40 142.26 36.22 118.68 28.21 C 114.29 27.32 112.76 21.07 116.38 18.36 C 120.02 15.47 124.50 18.53 128.14 19.83 C 157.59 32.19 178.23 62.97 177.82 95.01 C 178.43 125.79 159.67 155.65 132.03 169.02 C 110.39 179.87 83.89 180.38 61.89 170.25 C 31.96 157.00 11.58 124.77 13.32 91.95 C 14.17 57.00 40.12 24.48 74.06 16.08 C 80.98 14.58 82.94 26.03 75.98 27.07 C 43.57 35.82 20.61 69.72 24.95 103.10 C 26.71 120.20 35.14 136.35 47.82 147.90 C 49.89 138.80 52.97 129.86 53.97 120.55 C 52.49 122.78 52.91 127.41 49.57 127.51 C 51.32 121.34 52.09 114.99 52.97 108.66 C 50.39 108.28 46.80 108.54 45.40 105.83 C 45.79 102.35 47.23 99.10 48.35 95.81 C 51.85 96.60 52.58 100.57 54.04 103.31 C 55.55 101.33 57.41 99.68 59.73 98.74 C 60.91 95.04 64.15 92.13 63.95 88.04 C 64.20 78.41 68.91 69.51 68.88 59.92 C 70.41 54.09 70.74 47.52 74.68 42.66 C 79.14 39.06 85.63 39.49 90.06 35.72 C 91.77 31.77 89.07 27.91 88.58 24.06 C 89.01 19.97 89.44 14.77 93.67 12.73 M 124.29 110.91 C 124.32 114.25 127.30 109.34 124.29 110.91 M 97.07 112.99 C 89.57 129.49 87.03 147.57 82.87 165.10 C 91.85 166.69 101.09 166.54 110.04 164.79 C 111.11 157.72 107.45 151.11 108.42 144.12 C 108.13 140.68 106.04 137.60 106.10 134.09 C 106.28 126.37 101.73 119.67 100.30 112.24 C 99.24 112.49 97.90 112.14 97.07 112.99 M 57.54 126.35 C 53.39 133.60 52.67 142.05 50.29 149.93 C 55.96 154.71 62.45 158.39 69.27 161.25 C 69.73 156.34 72.55 152.02 72.89 147.10 C 72.39 140.18 76.78 134.25 76.18 127.24 C 70.37 127.63 64.57 127.05 58.76 127.34 C 58.46 127.09 57.85 126.60 57.54 126.35 Z" />
</g>
</svg>
