<?xml version="1.0" encoding="UTF-8" ?>
<!DOCTYPE svg PUBLIC "-//W3C//DTD SVG 1.1//EN" "http://www.w3.org/Graphics/SVG/1.1/DTD/svg11.dtd">
<svg width="192pt" height="192pt" viewBox="0 0 192 192" version="1.1" xmlns="http://www.w3.org/2000/svg">
<g id="#3f5c77ff">
<path fill="#3f5c77" opacity="1.00" d=" M 22.11 43.96 C 21.88 31.72 32.79 20.68 45.03 20.77 C 79.34 20.73 113.66 20.72 147.98 20.77 C 160.17 20.75 171.05 31.75 170.80 43.96 C 170.83 78.32 170.89 112.70 170.79 147.06 C 170.73 159.02 159.96 169.48 148.07 169.54 C 114.37 169.64 80.68 169.53 46.99 169.58 C 41.90 169.73 36.64 168.52 32.50 165.48 C 28.38 162.28 28.20 155.53 32.05 152.04 C 44.82 139.08 57.87 126.39 70.57 113.35 C 60.89 101.64 60.83 83.40 70.71 71.80 C 81.94 57.39 105.37 55.81 118.44 68.58 C 130.99 79.65 132.44 100.05 122.03 113.05 C 131.12 122.59 140.81 131.58 149.82 141.19 C 153.83 145.93 146.73 153.23 142.02 148.94 C 126.64 134.05 111.81 118.56 96.18 103.93 C 78.15 121.95 60.03 139.89 42.07 157.97 C 76.68 158.87 111.36 158.07 145.99 158.37 C 152.99 159.13 159.88 153.20 159.66 146.07 C 159.72 112.37 159.68 78.65 159.68 44.95 C 160.21 38.08 153.97 31.46 147.00 32.17 C 114.01 31.38 80.99 31.99 47.99 31.82 C 41.23 31.14 33.72 35.75 33.39 42.97 C 33.15 71.99 33.47 101.02 33.24 130.04 C 33.53 136.58 22.91 137.48 22.23 130.95 C 21.90 101.97 22.15 72.95 22.11 43.96 M 78.39 104.89 C 83.26 100.58 87.57 95.70 92.32 91.27 C 94.50 89.07 98.43 89.19 100.55 91.42 C 105.13 95.62 109.18 100.38 113.94 104.41 C 123.85 90.70 111.69 69.69 94.94 71.37 C 78.79 71.59 69.09 91.87 78.39 104.89 Z" />
</g>
</svg>
