<?xml version="1.0" encoding="UTF-8" ?>
<!DOCTYPE svg PUBLIC "-//W3C//DTD SVG 1.1//EN" "http://www.w3.org/Graphics/SVG/1.1/DTD/svg11.dtd">
<svg width="192pt" height="192pt" viewBox="0 0 192 192" version="1.1" xmlns="http://www.w3.org/2000/svg">
<g id="#95765eff">
<path fill="#95765e" opacity="1.00" d=" M 40.44 18.66 C 71.60 18.01 102.82 18.56 134.00 18.37 C 140.89 18.60 148.16 17.41 154.67 20.30 C 163.14 23.84 169.03 32.75 168.81 41.95 C 168.75 58.61 168.97 75.28 168.72 91.93 C 168.60 98.23 158.09 98.33 157.86 92.02 C 157.43 75.02 157.94 57.99 157.63 40.98 C 157.43 34.58 151.43 29.21 145.06 29.50 C 111.35 29.50 77.64 29.46 43.94 29.51 C 37.26 29.31 31.27 35.31 31.55 42.01 C 31.52 75.67 31.55 109.33 31.55 142.99 C 31.20 149.39 36.55 155.43 42.98 155.65 C 58.64 156.01 74.34 155.43 90.00 155.91 C 96.12 156.29 96.03 166.43 89.91 166.69 C 74.26 166.95 58.59 166.77 42.94 166.76 C 30.97 166.76 20.47 155.97 20.47 144.06 C 20.43 110.02 20.47 75.98 20.47 41.95 C 20.16 30.64 29.24 20.11 40.44 18.66 Z" />
<path fill="#95765e" opacity="1.00" d=" M 107.40 107.60 C 110.82 107.61 117.93 105.63 117.77 110.99 C 117.82 128.67 117.86 146.36 117.76 164.04 C 118.19 167.36 114.32 167.47 112.00 167.38 C 109.47 167.33 104.74 167.93 105.12 164.05 C 104.99 146.69 105.14 129.32 105.07 111.95 C 105.06 110.29 105.11 107.57 107.40 107.60 Z" />
<path fill="#95765e" opacity="1.00" d=" M 127.86 110.98 C 127.40 106.35 133.07 107.54 136.00 107.38 C 145.10 107.88 154.71 106.07 163.38 109.59 C 170.23 112.81 170.30 121.51 170.34 128.00 C 170.24 134.66 170.81 143.27 164.41 147.39 C 157.11 151.32 148.51 149.87 140.56 150.20 C 140.09 155.58 141.69 161.56 139.66 166.56 C 135.95 167.54 127.16 169.35 127.82 163.03 C 127.82 145.68 127.74 128.33 127.86 110.98 M 140.60 118.40 C 140.56 125.31 140.56 132.23 140.60 139.15 C 145.25 138.99 150.07 139.78 154.60 138.47 C 158.34 136.47 157.34 131.48 157.60 127.97 C 157.43 124.79 157.90 119.92 153.97 118.83 C 149.58 117.89 145.05 118.53 140.60 118.40 Z" />
</g>
</svg>
