<?xml version="1.0" encoding="UTF-8" ?>
<!DOCTYPE svg PUBLIC "-//W3C//DTD SVG 1.1//EN" "http://www.w3.org/Graphics/SVG/1.1/DTD/svg11.dtd">
<svg width="192pt" height="192pt" viewBox="0 0 192 192" version="1.1" xmlns="http://www.w3.org/2000/svg">
<g id="#3298e3ff">
<path fill="#3298e3" opacity="1.00" d=" M 69.52 43.02 C 80.16 28.35 97.83 18.05 116.04 16.83 C 130.19 15.43 144.85 24.57 148.35 38.62 C 153.83 59.95 142.88 81.79 128.19 96.80 C 131.14 100.19 133.29 104.24 137.01 106.92 C 142.48 111.64 145.06 118.67 148.42 124.87 C 150.70 123.81 154.72 122.42 155.46 126.00 C 153.69 131.12 149.24 135.37 144.11 137.21 C 134.87 143.04 128.12 152.20 118.68 157.74 C 118.28 160.17 117.91 162.61 117.48 165.05 C 114.07 164.81 112.10 161.88 109.99 159.59 C 106.22 163.64 101.48 167.42 99.96 172.95 C 96.22 173.02 91.40 174.72 88.47 171.56 C 87.50 168.26 86.86 163.43 90.20 161.26 C 95.65 157.20 99.21 151.25 102.52 145.45 C 105.21 142.21 109.99 140.37 110.60 135.69 C 111.34 127.80 110.70 119.41 107.13 112.22 C 106.26 112.42 104.53 112.81 103.66 113.00 C 104.19 112.68 105.23 112.03 105.75 111.71 C 105.12 107.73 105.58 103.29 103.22 99.81 C 96.88 93.86 89.49 88.93 83.70 82.42 C 83.44 78.13 79.80 74.61 80.63 70.26 C 78.52 67.13 76.08 63.87 75.70 60.01 C 76.24 55.18 80.72 50.67 85.80 51.41 C 90.79 51.77 92.76 57.18 96.97 59.13 C 95.34 60.61 93.35 63.47 97.62 63.10 C 97.05 63.50 96.48 63.91 95.91 64.31 C 96.34 65.37 96.75 66.44 97.16 67.51 C 94.26 67.57 91.41 68.08 88.57 68.62 C 89.11 67.97 90.18 66.67 90.72 66.02 C 88.45 66.65 86.15 67.14 83.85 67.64 C 85.59 67.53 87.34 67.44 89.09 67.37 C 88.30 69.73 85.61 69.20 83.73 69.68 C 84.82 69.72 87.01 69.79 88.10 69.82 C 87.28 70.93 86.37 71.97 85.32 72.86 C 90.27 73.78 93.90 71.17 97.35 68.06 C 97.38 67.42 97.45 66.14 97.48 65.49 C 103.27 61.61 108.19 55.20 105.52 47.85 C 107.35 47.25 109.19 46.65 111.04 46.07 C 108.88 41.70 105.06 44.96 103.86 48.08 C 101.72 47.18 100.63 45.19 99.53 43.27 C 88.53 46.80 76.89 47.84 65.51 49.65 C 64.19 51.18 62.85 52.69 61.44 54.14 C 62.05 52.66 62.68 51.18 63.32 49.72 C 58.64 49.11 50.49 52.17 49.13 45.69 C 65.63 47.05 81.86 42.75 97.96 39.86 C 99.81 41.22 101.75 42.43 103.75 43.55 C 105.38 42.99 107.02 42.44 108.66 41.91 C 108.81 40.24 109.03 38.57 109.29 36.90 C 110.89 39.66 110.04 43.54 113.87 44.68 C 113.60 46.11 113.31 47.53 113.02 48.95 C 114.61 49.17 116.22 49.37 117.81 49.61 C 115.89 58.67 111.76 66.75 107.16 74.71 C 114.67 79.95 119.63 87.49 124.70 94.91 C 119.68 101.07 113.38 105.92 107.12 110.72 C 126.24 100.45 140.76 80.01 141.55 57.99 C 142.19 45.53 135.23 32.28 123.12 27.92 C 107.59 22.06 90.27 28.14 77.62 37.73 C 75.08 39.72 72.78 42.22 69.52 43.02 Z" />
<path fill="#3298e3" opacity="1.00" d=" M 42.42 24.58 C 51.48 24.23 60.58 24.25 69.64 24.53 C 75.05 25.32 75.32 34.02 69.97 35.20 C 61.38 35.83 52.74 35.14 44.14 35.50 C 38.02 35.94 32.84 41.79 33.24 47.95 C 33.26 81.99 33.21 116.03 33.28 150.07 C 33.17 156.32 38.79 161.71 44.92 161.94 C 55.62 162.38 66.36 161.81 77.07 162.16 C 80.99 162.42 83.08 167.64 80.74 170.69 C 79.10 173.30 75.67 173.08 72.99 173.16 C 63.31 172.99 53.61 173.37 43.94 172.96 C 32.20 172.46 22.04 161.84 22.17 150.07 C 22.12 116.04 22.18 82.00 22.19 47.97 C 21.80 36.53 31.07 25.86 42.42 24.58 Z" />
<path fill="#3298e3" opacity="1.00" d=" M 113.66 41.77 C 116.09 40.65 118.31 38.16 121.23 38.95 C 121.27 40.72 120.32 42.29 119.74 43.90 C 117.71 43.19 115.69 42.47 113.66 41.77 Z" />
<path fill="#3298e3" opacity="1.00" d=" M 50.17 44.15 C 53.12 42.55 50.38 47.48 50.17 44.15 Z" />
<path fill="#3298e3" opacity="1.00" d=" M 163.27 54.37 C 166.89 52.87 171.20 56.05 170.77 59.96 C 170.83 89.99 170.86 120.03 170.80 150.06 C 170.90 161.47 161.36 171.86 150.04 172.91 C 144.74 173.22 139.37 173.43 134.10 172.81 C 129.18 171.86 128.69 164.13 133.35 162.42 C 138.95 161.20 144.82 162.70 150.45 161.51 C 155.94 160.13 159.98 154.72 159.69 149.06 C 159.71 119.70 159.70 90.34 159.70 60.99 C 159.49 58.33 160.53 55.28 163.27 54.37 Z" />
<path fill="#3298e3" opacity="1.00" d=" M 87.07 72.51 C 87.67 68.96 90.71 67.99 93.92 68.20 C 94.30 72.14 89.73 71.90 87.07 72.51 Z" />
</g>
</svg>
