<?xml version="1.0" encoding="UTF-8" ?>
<!DOCTYPE svg PUBLIC "-//W3C//DTD SVG 1.1//EN" "http://www.w3.org/Graphics/SVG/1.1/DTD/svg11.dtd">
<svg width="192pt" height="192pt" viewBox="0 0 192 192" version="1.1" xmlns="http://www.w3.org/2000/svg">
<g id="#40e175ff">
<path fill="#40e175" opacity="1.00" d=" M 43.38 17.49 C 48.92 16.35 54.79 17.52 59.63 20.40 C 91.94 39.08 124.35 57.61 156.62 76.38 C 169.94 84.23 170.20 105.85 157.00 113.96 C 125.39 132.45 93.54 150.55 61.87 168.92 C 56.61 172.29 50.29 174.46 44.01 173.21 C 33.45 171.63 24.85 161.78 25.05 151.04 C 25.04 113.68 25.00 76.31 25.09 38.94 C 25.13 28.64 33.33 19.33 43.38 17.49 M 45.39 28.55 C 40.21 29.61 36.09 34.59 36.34 39.93 C 36.33 76.98 36.29 114.04 36.37 151.09 C 36.10 159.19 45.96 165.06 52.96 160.95 C 85.36 142.38 117.70 123.71 150.02 105.01 C 157.20 101.20 157.35 89.72 150.29 85.72 C 118.42 67.23 86.45 48.92 54.56 30.47 C 51.85 28.77 48.58 27.85 45.39 28.55 Z" />
<path fill="#40e175" opacity="1.00" d=" M 62.28 62.28 C 65.93 60.82 70.10 61.53 73.39 63.57 C 85.83 70.82 98.42 77.85 110.79 85.24 C 118.01 89.59 117.84 101.43 110.49 105.57 C 97.62 113.07 84.73 120.57 71.75 127.87 C 64.59 131.73 54.75 126.16 54.38 118.04 C 54.16 103.34 54.33 88.63 54.30 73.94 C 54.10 68.84 57.49 63.97 62.28 62.28 M 65.54 73.03 C 65.81 88.04 64.99 103.13 65.94 118.09 C 79.13 110.60 92.64 103.47 105.26 95.09 C 93.51 87.98 81.46 81.38 69.64 74.38 C 68.41 73.56 66.98 73.20 65.54 73.03 Z" />
</g>
</svg>
