<?xml version="1.0" encoding="UTF-8" ?>
<!DOCTYPE svg PUBLIC "-//W3C//DTD SVG 1.1//EN" "http://www.w3.org/Graphics/SVG/1.1/DTD/svg11.dtd">
<svg width="192pt" height="192pt" viewBox="0 0 192 192" version="1.1" xmlns="http://www.w3.org/2000/svg">
<g id="#ac34bfff">
<path fill="#ac34bf" opacity="1.00" d=" M 87.15 15.12 C 90.63 9.76 99.37 9.70 102.95 14.98 C 108.20 22.88 112.86 31.15 118.08 39.07 C 127.43 37.10 136.64 34.53 146.01 32.69 C 152.48 31.60 158.60 38.40 156.72 44.69 C 154.62 53.59 152.61 62.50 150.40 71.36 C 158.28 76.65 166.57 81.30 174.49 86.53 C 179.88 90.05 179.86 98.91 174.44 102.40 C 166.53 107.50 158.47 112.37 150.45 117.30 C 152.51 126.59 154.89 135.81 156.90 145.11 C 158.08 151.17 152.09 157.30 145.98 156.21 C 136.65 154.49 127.55 151.53 118.17 150.07 C 112.42 157.80 108.12 166.65 102.48 174.51 C 98.72 179.25 90.51 178.86 87.19 173.81 C 82.12 166.09 77.55 158.04 72.47 150.33 C 62.58 150.98 52.92 155.11 42.99 156.32 C 37.28 156.42 32.29 150.71 33.39 145.06 C 35.31 135.77 37.78 126.60 39.77 117.32 C 31.76 112.29 23.62 107.47 15.70 102.31 C 10.46 98.83 10.39 90.18 15.60 86.64 C 23.55 81.46 31.72 76.61 39.77 71.57 C 37.77 62.28 35.31 53.08 33.37 43.78 C 32.10 37.38 38.68 31.21 45.00 32.82 C 54.04 34.80 63.04 37.03 72.05 39.15 C 77.31 31.29 81.96 23.02 87.15 15.12 M 80.81 46.72 C 78.64 49.96 74.38 51.32 70.65 50.45 C 62.17 48.51 53.71 46.47 45.24 44.47 C 46.97 53.04 49.23 61.48 51.12 70.01 C 52.15 74.04 50.25 78.57 46.65 80.66 C 39.39 85.24 32.04 89.69 24.75 94.25 C 31.87 99.64 39.91 103.67 47.29 108.69 C 50.55 110.88 52.08 115.21 51.11 118.99 C 49.19 127.37 47.15 135.71 45.23 144.08 C 54.01 142.77 62.50 140.08 71.20 138.36 C 75.03 137.57 79.21 139.42 81.23 142.77 C 85.92 150.14 90.41 157.63 95.09 165.01 C 99.81 157.74 104.22 150.27 108.86 142.95 C 111.02 139.25 115.69 137.35 119.82 138.50 C 128.24 140.39 136.61 142.52 145.04 144.37 C 143.16 135.89 141.04 127.47 139.13 119.00 C 138.13 115.00 139.82 110.50 143.38 108.36 C 150.77 103.60 158.40 99.21 165.73 94.36 C 158.28 89.79 150.82 85.22 143.43 80.54 C 139.92 78.40 138.13 73.99 139.11 70.00 C 140.97 61.49 143.18 53.05 144.99 44.53 C 136.58 46.39 128.22 48.49 119.81 50.40 C 115.70 51.49 111.13 49.66 108.95 46.02 C 104.31 38.71 99.86 31.28 95.21 23.97 C 90.06 31.32 85.78 39.25 80.81 46.72 Z" />
<path fill="#ac34bf" opacity="1.00" d=" M 91.41 62.51 C 97.17 62.12 109.22 60.71 107.76 69.86 C 104.89 73.83 101.65 80.44 107.31 83.75 C 114.09 88.85 118.99 75.56 125.49 81.52 C 132.14 94.23 127.25 111.38 115.87 119.86 C 106.10 127.33 91.95 128.80 81.07 122.86 C 67.89 116.37 60.54 99.92 64.79 85.81 C 68.05 73.71 78.97 64.12 91.41 62.51 M 75.24 98.87 C 77.48 109.71 89.12 117.43 99.99 115.02 C 109.51 113.47 116.90 104.80 117.42 95.23 C 104.08 99.78 89.80 87.19 93.21 73.37 C 81.43 74.79 72.18 87.21 75.24 98.87 Z" />
</g>
</svg>
