<?xml version="1.0" encoding="UTF-8" ?>
<!DOCTYPE svg PUBLIC "-//W3C//DTD SVG 1.1//EN" "http://www.w3.org/Graphics/SVG/1.1/DTD/svg11.dtd">
<svg width="192pt" height="192pt" viewBox="0 0 192 192" version="1.1" xmlns="http://www.w3.org/2000/svg">
<g id="#4970c2ff">
<path fill="#4970c2" opacity="1.00" d=" M 40.45 18.69 C 46.94 18.12 53.49 18.61 60.00 18.41 C 62.63 18.50 65.82 17.94 67.81 20.13 C 70.83 22.96 69.17 28.80 65.00 29.38 C 57.75 29.83 50.45 29.30 43.19 29.58 C 36.88 29.87 31.37 35.64 31.56 41.99 C 31.51 75.66 31.56 109.33 31.57 143.00 C 31.21 149.13 35.92 155.10 42.07 155.83 C 50.66 156.42 59.31 155.52 67.89 156.24 C 73.55 157.53 72.92 166.84 67.03 167.15 C 58.68 167.38 50.30 167.41 41.95 167.10 C 30.26 166.41 20.35 155.75 20.45 144.05 C 20.44 110.01 20.46 75.97 20.47 41.93 C 20.21 30.65 29.28 20.17 40.45 18.69 Z" />
<path fill="#4970c2" opacity="1.00" d=" M 80.35 18.65 C 88.73 18.24 97.18 18.32 105.56 18.68 C 109.22 22.08 101.01 23.15 101.79 26.98 C 101.12 42.90 102.02 58.86 101.22 74.77 C 95.66 72.01 88.95 69.85 84.95 65.00 C 83.62 55.63 85.22 45.99 84.29 36.53 C 73.69 36.81 64.63 49.12 71.38 58.60 C 80.73 69.32 94.89 73.87 106.56 81.52 C 118.06 87.14 129.17 96.56 130.91 110.00 C 132.60 120.06 128.18 130.95 119.62 136.62 C 113.58 140.56 106.61 142.67 100.17 145.85 C 108.08 152.96 99.90 165.15 91.47 167.28 C 91.72 162.31 87.27 159.87 84.79 156.30 C 82.40 152.53 84.68 148.24 86.60 144.84 C 78.71 139.84 68.62 137.25 59.97 142.01 C 59.81 133.01 59.15 123.94 60.00 114.99 C 62.28 113.53 63.58 115.90 64.28 117.71 C 68.95 128.56 78.96 137.77 90.99 139.12 C 101.40 140.09 114.31 135.62 117.83 124.86 C 120.71 113.81 111.22 104.16 101.78 100.22 C 101.59 107.14 101.55 114.09 101.89 121.00 C 101.99 123.78 104.86 124.90 106.79 126.29 C 106.74 126.88 106.65 128.05 106.60 128.63 C 97.62 129.56 88.39 129.61 79.41 128.61 C 79.38 128.04 79.32 126.90 79.29 126.33 C 81.40 125.00 84.33 123.74 84.34 120.80 C 84.49 111.54 84.53 102.26 84.50 93.00 C 84.70 90.08 81.73 88.68 79.66 87.36 C 72.18 82.88 63.70 78.36 60.14 69.89 C 53.04 55.39 62.46 36.91 77.59 32.54 C 80.27 31.41 85.68 31.42 84.75 27.19 C 84.60 23.74 77.04 22.15 80.35 18.65 Z" />
<path fill="#4970c2" opacity="1.00" d=" M 115.46 18.68 C 125.62 18.05 135.86 18.55 146.05 18.41 C 158.16 18.26 169.06 28.90 169.19 41.00 C 169.30 75.33 169.25 109.67 169.23 144.00 C 169.43 156.00 159.02 166.83 147.04 167.19 C 138.37 167.31 129.67 167.46 121.01 167.12 C 115.43 166.51 114.84 157.72 120.23 156.28 C 129.12 155.52 138.12 156.36 147.04 155.88 C 153.35 155.36 158.41 149.34 158.03 143.05 C 158.02 109.35 158.15 75.64 158.02 41.94 C 158.19 35.72 152.98 30.09 146.80 29.67 C 136.54 29.29 126.25 29.85 115.99 29.41 C 110.43 28.81 110.06 19.90 115.46 18.68 Z" />
</g>
</svg>
