<?xml version="1.0" encoding="UTF-8" ?>
<!DOCTYPE svg PUBLIC "-//W3C//DTD SVG 1.1//EN" "http://www.w3.org/Graphics/SVG/1.1/DTD/svg11.dtd">
<svg width="192pt" height="192pt" viewBox="0 0 192 192" version="1.1" xmlns="http://www.w3.org/2000/svg">
<g id="#496fc1ff">
<path fill="#496fc1" opacity="1.00" d=" M 41.92 20.88 C 44.55 17.94 49.38 18.18 51.96 21.06 C 64.53 33.48 77.00 46.01 89.50 58.51 C 90.28 59.18 91.48 60.86 92.51 59.51 C 98.83 53.52 104.78 47.13 111.09 41.13 C 113.92 38.30 118.78 38.70 121.40 41.62 C 130.43 50.58 139.37 59.63 148.36 68.64 C 151.40 71.28 152.25 76.30 149.40 79.39 C 143.09 86.18 136.04 92.29 129.87 99.21 C 143.23 112.83 156.85 126.19 170.27 139.75 C 173.42 142.49 173.80 147.67 170.76 150.64 C 164.37 157.30 157.80 163.80 151.23 170.28 C 148.29 173.51 142.90 173.13 140.12 169.88 C 130.91 160.42 121.28 151.33 112.35 141.62 C 108.62 136.93 115.44 130.00 120.15 133.87 C 129.00 142.10 137.13 151.11 145.92 159.42 C 150.61 154.76 155.38 150.18 159.85 145.30 C 147.03 132.78 134.48 119.97 121.80 107.30 C 117.23 111.51 109.22 106.32 112.48 100.52 C 120.53 91.59 129.63 83.59 137.86 74.81 C 131.33 66.86 123.16 59.74 115.92 52.19 C 107.07 60.91 98.34 69.76 89.47 78.47 C 86.70 81.62 81.07 79.95 80.16 75.96 C 79.09 72.85 81.77 70.52 83.23 68.13 C 71.08 56.10 59.08 43.93 46.93 31.91 C 42.11 36.45 37.38 41.12 32.89 45.99 C 44.87 58.24 57.12 70.23 69.14 82.44 C 73.27 78.18 81.29 81.88 79.33 87.96 C 76.43 92.34 72.14 95.72 68.47 99.46 C 62.01 104.67 55.18 94.89 48.32 98.38 C 45.17 99.76 46.08 103.92 46.52 106.61 C 48.48 113.22 52.09 119.43 56.91 124.37 C 60.84 120.80 64.20 116.61 68.29 113.23 C 72.61 110.40 78.29 115.50 76.37 120.13 C 73.29 124.99 68.29 128.25 64.86 132.84 C 70.40 137.77 76.73 142.19 84.00 144.06 C 86.45 144.52 89.90 144.93 91.34 142.35 C 94.65 135.80 86.18 129.35 90.06 123.03 C 93.40 119.07 97.25 115.52 100.97 111.92 C 104.52 108.65 110.83 112.32 110.02 116.99 C 109.01 121.90 103.43 123.97 101.23 128.12 C 104.99 137.23 104.27 150.59 93.65 154.56 C 79.94 158.82 66.67 149.44 56.82 140.83 C 51.34 144.53 47.61 150.27 42.48 154.37 C 38.06 157.28 32.25 151.48 34.77 146.97 C 38.77 141.56 44.14 137.32 48.61 132.31 C 42.65 125.48 37.71 117.51 35.44 108.67 C 33.82 102.30 34.81 94.53 40.23 90.21 C 45.09 86.08 51.90 85.98 57.89 86.91 C 46.13 75.41 34.65 63.62 22.97 52.03 C 19.56 49.16 19.08 43.57 22.39 40.44 C 28.84 33.86 35.36 27.35 41.92 20.88 Z" />
</g>
</svg>
