<?xml version="1.0" encoding="UTF-8" ?>
<!DOCTYPE svg PUBLIC "-//W3C//DTD SVG 1.1//EN" "http://www.w3.org/Graphics/SVG/1.1/DTD/svg11.dtd">
<svg width="192pt" height="192pt" viewBox="0 0 192 192" version="1.1" xmlns="http://www.w3.org/2000/svg">
<g id="#5e6f81ff">
<path fill="#5e6f81" opacity="1.00" d=" M 53.36 22.33 C 54.75 18.65 59.41 14.75 63.19 17.85 C 75.15 28.86 85.92 41.26 98.06 52.05 C 109.23 48.95 120.02 44.54 131.15 41.30 C 135.33 39.81 139.87 44.42 138.48 48.57 C 136.70 54.65 134.66 60.66 132.53 66.62 C 130.88 71.91 121.43 71.78 120.64 66.02 C 120.56 62.88 121.91 59.93 122.79 56.97 C 117.79 58.64 112.79 60.32 107.78 61.97 C 119.20 74.27 131.54 85.69 143.07 97.88 C 147.25 102.55 140.43 111.62 135.13 106.87 C 110.49 82.78 86.44 58.04 61.92 33.81 C 58.30 47.11 56.56 61.35 60.14 74.85 C 64.37 90.35 73.88 104.90 87.96 113.10 C 106.69 124.10 130.53 124.83 150.39 116.37 C 154.11 114.68 160.01 113.12 162.47 117.52 C 164.45 121.70 160.23 125.36 156.78 126.89 C 135.69 136.07 110.76 136.77 89.56 127.54 C 79.77 123.31 71.39 116.48 63.96 108.93 C 57.30 126.81 50.94 144.79 44.26 162.65 C 52.26 163.42 60.55 161.57 68.35 163.75 C 74.06 165.47 72.87 174.68 66.96 174.98 C 56.63 175.44 46.26 175.07 35.92 175.15 C 31.33 175.43 28.12 170.22 29.98 166.13 C 38.23 143.93 46.19 121.61 54.37 99.38 C 56.11 95.71 53.12 92.40 51.86 89.14 C 42.68 68.04 44.14 43.16 53.36 22.33 Z" />
<path fill="#5e6f81" opacity="1.00" d=" M 83.37 135.43 C 86.74 134.83 89.69 137.68 90.16 140.89 C 92.13 149.92 94.36 158.91 96.04 168.00 C 96.98 173.85 87.69 177.76 84.89 172.07 C 82.10 162.56 80.33 152.72 78.20 143.03 C 77.14 139.58 79.91 135.86 83.37 135.43 Z" />
</g>
</svg>
