<?xml version="1.0" encoding="UTF-8" ?>
<!DOCTYPE svg PUBLIC "-//W3C//DTD SVG 1.1//EN" "http://www.w3.org/Graphics/SVG/1.1/DTD/svg11.dtd">
<svg width="192pt" height="192pt" viewBox="0 0 192 192" version="1.1" xmlns="http://www.w3.org/2000/svg">
<g id="#ff3661ff">
<path fill="#ff3661" opacity="1.00" d=" M 48.47 13.66 C 64.63 12.98 80.83 13.47 97.01 13.39 C 127.27 13.63 156.27 32.40 169.13 59.73 C 179.14 80.27 179.91 105.03 171.20 126.14 C 161.32 150.68 138.90 169.73 113.00 175.25 C 90.03 180.49 64.92 175.07 46.17 160.80 C 25.97 145.87 13.44 121.14 13.44 96.00 C 13.48 80.98 13.36 65.95 13.50 50.92 C 14.26 32.23 29.86 15.60 48.47 13.66 M 46.35 25.48 C 33.99 28.41 24.59 40.31 24.64 53.03 C 24.62 68.01 24.53 82.99 24.70 97.97 C 25.33 121.00 38.26 143.08 57.81 155.19 C 76.80 167.29 101.69 169.30 122.42 160.52 C 151.93 148.72 170.77 115.43 165.09 84.04 C 160.48 51.27 130.10 24.73 96.99 24.61 C 80.13 25.09 63.09 23.52 46.35 25.48 Z" />
<path fill="#ff3661" opacity="1.00" d=" M 88.31 53.38 C 106.06 50.12 125.05 59.67 133.24 75.71 C 145.33 97.05 134.28 126.81 111.37 135.36 C 88.70 145.36 59.89 130.98 54.03 106.99 C 46.76 83.52 64.04 56.72 88.31 53.38 M 89.42 64.60 C 77.61 66.72 67.56 76.19 64.72 87.85 C 61.76 98.89 65.54 111.33 74.05 118.94 C 84.66 129.02 102.41 129.99 114.01 121.05 C 125.79 112.75 130.27 95.93 124.19 82.86 C 118.60 69.71 103.44 61.71 89.42 64.60 Z" />
</g>
</svg>
