<?xml version="1.0" encoding="UTF-8" ?>
<!DOCTYPE svg PUBLIC "-//W3C//DTD SVG 1.1//EN" "http://www.w3.org/Graphics/SVG/1.1/DTD/svg11.dtd">
<svg width="192pt" height="192pt" viewBox="0 0 192 192" version="1.1" xmlns="http://www.w3.org/2000/svg">
<g id="#1ab1ffff">
<path fill="#1ab1ff" opacity="1.00" d=" M 85.34 13.43 C 94.01 12.48 102.97 12.37 111.46 14.53 C 117.40 16.87 114.28 26.83 108.01 25.09 C 86.11 21.22 62.60 28.06 46.62 43.63 C 27.98 61.15 20.05 89.19 27.14 113.83 C 27.70 116.35 29.20 119.19 27.61 121.63 C 25.68 125.41 19.37 125.38 17.75 121.36 C 8.97 96.50 13.62 67.52 29.37 46.42 C 42.50 28.42 63.18 16.08 85.34 13.43 Z" />
<path fill="#1ab1ff" opacity="1.00" d=" M 61.57 45.58 C 87.38 38.00 113.16 30.31 139.00 22.82 C 142.75 21.60 146.48 25.17 146.03 28.94 C 146.18 54.63 145.96 80.33 146.14 106.02 C 146.28 116.14 147.68 127.17 142.31 136.31 C 136.85 145.27 124.22 147.88 115.21 142.94 C 104.65 137.69 100.83 122.94 107.03 113.02 C 111.97 104.68 122.74 100.53 132.00 103.55 C 131.90 81.96 132.15 60.37 131.87 38.78 C 111.52 44.85 91.11 50.72 70.76 56.83 C 70.80 77.89 70.75 98.94 70.81 119.99 C 70.89 129.37 72.52 139.14 69.26 148.19 C 65.81 158.04 54.12 164.02 44.13 160.85 C 34.38 158.19 27.55 147.99 28.97 137.95 C 29.90 124.83 44.39 115.25 56.83 119.69 C 56.79 97.12 56.81 74.54 56.83 51.96 C 56.53 48.95 58.60 46.15 61.57 45.58 M 122.32 115.47 C 116.13 117.41 114.37 126.42 119.49 130.48 C 124.37 135.05 133.26 131.63 133.91 125.02 C 135.04 118.77 128.25 113.24 122.32 115.47 M 49.36 131.46 C 43.00 131.51 38.84 139.37 42.24 144.70 C 45.28 150.47 54.53 150.37 57.49 144.56 C 61.09 138.92 55.97 130.78 49.36 131.46 Z" />
<path fill="#1ab1ff" opacity="1.00" d=" M 155.37 42.44 C 157.28 42.19 159.23 43.06 160.40 44.58 C 173.97 61.69 179.98 84.43 177.02 106.04 C 173.64 132.55 156.34 156.68 132.45 168.58 C 113.11 178.37 89.63 180.33 69.20 172.89 C 63.30 169.79 67.98 160.12 74.06 162.81 C 105.48 173.31 142.60 158.30 157.88 128.94 C 171.14 105.04 168.77 73.58 151.96 52.01 C 148.79 48.83 150.81 42.77 155.37 42.44 Z" />
</g>
</svg>
