<?xml version="1.0" encoding="UTF-8" ?>
<!DOCTYPE svg PUBLIC "-//W3C//DTD SVG 1.1//EN" "http://www.w3.org/Graphics/SVG/1.1/DTD/svg11.dtd">
<svg width="192pt" height="192pt" viewBox="0 0 192 192" version="1.1" xmlns="http://www.w3.org/2000/svg">
<g id="#6aa6caff">
<path fill="#6aa6ca" opacity="1.00" d=" M 92.30 13.35 C 100.05 10.49 108.30 19.46 104.92 26.95 C 102.64 33.62 93.21 35.85 88.34 30.66 C 82.79 25.68 85.17 15.45 92.30 13.35 Z" />
<path fill="#6aa6ca" opacity="1.00" d=" M 86.31 47.35 C 113.13 41.36 141.79 62.68 143.58 90.13 C 147.28 116.11 125.77 142.17 99.57 143.44 C 74.38 146.53 49.73 126.12 47.27 101.03 C 43.69 76.50 61.88 51.49 86.31 47.35 M 88.36 58.50 C 70.97 61.55 57.43 78.39 58.26 96.04 C 58.34 112.15 70.25 127.27 85.87 131.16 C 100.48 135.32 117.11 129.21 125.75 116.77 C 134.37 105.00 134.99 88.11 127.26 75.75 C 119.51 62.70 103.27 55.34 88.36 58.50 Z" />
<path fill="#6aa6ca" opacity="1.00" d=" M 152.36 47.48 C 159.49 44.01 168.38 51.30 166.16 58.99 C 164.82 66.91 153.45 69.77 148.48 63.56 C 143.96 58.63 146.04 49.79 152.36 47.48 Z" />
<path fill="#6aa6ca" opacity="1.00" d=" M 28.37 52.55 C 35.23 50.18 42.83 56.70 41.67 63.82 C 40.89 71.71 29.79 75.52 24.44 69.56 C 18.88 64.66 21.19 54.46 28.37 52.55 Z" />
<path fill="#6aa6ca" opacity="1.00" d=" M 72.89 76.78 C 74.93 76.72 76.98 76.71 79.02 76.77 C 79.02 78.55 79.00 80.33 78.97 82.11 C 76.96 82.13 74.95 82.12 72.94 82.03 C 72.90 80.28 72.89 78.53 72.89 76.78 Z" />
<path fill="#6aa6ca" opacity="1.00" d=" M 85.25 79.18 C 87.19 79.10 89.14 79.06 91.09 79.08 C 91.23 80.88 91.36 82.68 91.47 84.48 C 93.07 84.49 94.67 84.50 96.27 84.51 C 96.56 86.15 96.67 87.81 96.63 89.47 C 94.86 89.57 93.11 89.76 91.34 89.86 C 91.42 94.56 91.37 99.26 91.39 103.95 C 93.13 104.18 94.87 104.39 96.62 104.59 C 96.60 106.17 96.53 107.75 96.39 109.33 C 92.85 109.03 87.15 110.93 85.47 106.64 C 84.46 101.11 85.25 95.42 84.91 89.83 C 83.83 89.65 82.76 89.46 81.69 89.27 C 81.71 87.79 81.73 86.30 81.76 84.82 C 82.55 84.71 84.13 84.50 84.92 84.40 C 85.03 82.66 85.10 80.92 85.25 79.18 Z" />
<path fill="#6aa6ca" opacity="1.00" d=" M 72.89 84.67 C 74.94 84.55 76.98 84.54 79.03 84.66 C 79.17 92.79 79.36 100.94 78.94 109.07 C 76.95 109.12 74.95 109.10 72.96 108.99 C 72.65 100.89 72.78 92.77 72.89 84.67 Z" />
<path fill="#6aa6ca" opacity="1.00" d=" M 98.43 84.55 C 100.30 84.55 102.16 84.57 104.03 84.63 C 105.94 89.83 107.03 95.29 109.14 100.42 C 110.98 95.23 112.36 89.90 114.06 84.67 C 116.13 84.58 118.20 84.57 120.27 84.64 C 118.02 92.97 115.49 101.30 112.19 109.27 C 109.81 108.91 105.84 110.17 105.20 106.87 C 102.97 99.43 99.91 92.19 98.43 84.55 Z" />
<path fill="#6aa6ca" opacity="1.00" d=" M 155.39 118.53 C 162.47 115.26 170.97 122.29 169.52 129.82 C 168.52 137.47 157.91 141.00 152.51 135.49 C 147.02 130.86 148.58 120.99 155.39 118.53 Z" />
<path fill="#6aa6ca" opacity="1.00" d=" M 33.41 123.43 C 41.06 122.06 47.44 130.92 43.85 137.77 C 41.01 144.97 29.70 145.82 25.95 139.01 C 21.71 133.07 26.27 124.02 33.41 123.43 Z" />
<path fill="#6aa6ca" opacity="1.00" d=" M 92.31 157.39 C 100.08 154.62 108.21 163.43 104.88 170.93 C 102.65 177.59 93.20 179.82 88.38 174.63 C 82.85 169.68 85.21 159.48 92.31 157.39 Z" />
</g>
</svg>
