<?xml version="1.0" encoding="UTF-8" ?>
<!DOCTYPE svg PUBLIC "-//W3C//DTD SVG 1.1//EN" "http://www.w3.org/Graphics/SVG/1.1/DTD/svg11.dtd">
<svg width="192pt" height="192pt" viewBox="0 0 192 192" version="1.1" xmlns="http://www.w3.org/2000/svg">
<g id="#19afffff">
<path fill="#19afff" opacity="1.00" d=" M 85.34 14.43 C 117.00 9.87 150.14 26.14 166.25 53.69 C 181.84 79.15 181.80 113.44 165.58 138.58 C 161.76 143.78 152.94 137.92 156.43 132.34 C 166.43 115.63 169.34 94.85 163.88 76.12 C 157.53 53.30 138.83 34.51 116.09 27.92 C 91.50 20.41 63.04 27.57 45.35 46.35 C 24.13 67.37 19.09 102.42 33.44 128.60 C 34.86 131.33 37.31 134.49 35.47 137.63 C 33.70 141.26 28.00 141.58 25.95 138.03 C 8.00 109.58 10.75 70.08 32.21 44.22 C 45.25 27.99 64.66 17.02 85.34 14.43 Z" />
<path fill="#19afff" opacity="1.00" d=" M 94.25 39.28 C 103.77 37.84 101.35 50.15 101.41 56.01 C 101.66 63.05 90.03 63.00 90.29 56.03 C 91.00 50.59 87.63 41.93 94.25 39.28 Z" />
<path fill="#19afff" opacity="1.00" d=" M 57.20 54.20 C 61.38 52.08 64.55 56.26 67.15 58.86 C 69.48 61.57 73.66 63.88 73.04 68.02 C 72.66 72.32 66.75 74.32 63.78 71.27 C 60.84 68.53 57.93 65.72 55.29 62.70 C 52.96 60.11 54.04 55.57 57.20 54.20 Z" />
<path fill="#19afff" opacity="1.00" d=" M 131.43 58.61 C 133.37 57.45 134.05 60.58 132.79 61.69 C 125.32 75.86 117.88 90.05 110.22 104.11 C 105.34 113.44 91.37 115.46 84.03 107.95 C 75.92 100.88 77.37 86.09 87.06 81.14 C 101.82 73.59 116.43 65.65 131.43 58.61 M 94.44 89.53 C 89.48 90.21 87.67 97.38 91.64 100.40 C 94.99 103.39 101.01 101.35 101.67 96.85 C 102.73 92.71 98.54 88.67 94.44 89.53 Z" />
<path fill="#19afff" opacity="1.00" d=" M 41.40 90.54 C 46.14 89.52 51.14 90.03 55.97 90.17 C 61.39 90.85 62.06 99.36 56.81 100.90 C 51.98 101.61 46.94 101.50 42.09 100.97 C 37.25 99.84 36.81 92.33 41.40 90.54 Z" />
<path fill="#19afff" opacity="1.00" d=" M 131.23 90.33 C 136.07 89.72 141.07 89.84 145.93 90.26 C 151.06 91.53 151.15 99.80 145.93 100.99 C 141.03 101.50 135.96 101.62 131.09 100.90 C 126.35 99.29 126.40 91.77 131.23 90.33 Z" />
<path fill="#19afff" opacity="1.00" d=" M 47.38 149.44 C 50.64 149.06 52.93 151.95 55.45 153.52 C 78.92 170.47 112.99 170.46 136.44 153.49 C 139.06 151.82 141.51 148.75 144.97 149.49 C 148.87 150.10 150.94 155.35 148.37 158.37 C 119.67 183.82 72.29 183.84 43.59 158.39 C 40.85 155.26 43.23 149.69 47.38 149.44 Z" />
</g>
</svg>
