<?xml version="1.0" encoding="UTF-8" ?>
<!DOCTYPE svg PUBLIC "-//W3C//DTD SVG 1.1//EN" "http://www.w3.org/Graphics/SVG/1.1/DTD/svg11.dtd">
<svg width="192pt" height="192pt" viewBox="0 0 192 192" version="1.1" xmlns="http://www.w3.org/2000/svg">
<g id="#f6b12cff">
<path fill="#f6b12c" opacity="1.00" d=" M 61.06 26.14 C 83.87 15.59 111.54 16.42 133.66 28.35 C 158.79 41.59 176.05 68.53 177.04 96.99 C 177.32 115.66 177.13 134.35 177.15 153.02 C 177.34 162.15 169.96 170.68 160.85 171.62 C 150.46 173.27 140.01 164.53 139.84 154.01 C 139.63 142.69 139.79 131.35 139.77 120.02 C 139.55 112.98 143.61 106.03 149.92 102.88 C 154.80 100.20 160.54 100.85 165.88 100.79 C 165.97 80.56 156.86 60.60 141.53 47.40 C 121.04 29.02 89.45 24.81 64.73 36.83 C 40.50 48.10 24.04 73.98 24.32 100.73 C 29.60 100.87 35.26 100.23 40.10 102.82 C 46.50 105.91 50.67 112.92 50.43 120.01 C 50.38 131.34 50.52 142.67 50.37 153.99 C 50.22 164.59 39.61 173.37 29.16 171.57 C 20.20 170.51 12.91 162.10 13.14 153.07 C 13.17 134.36 13.03 115.65 13.23 96.95 C 14.22 66.82 33.62 38.44 61.06 26.14 M 24.35 112.12 C 24.53 126.28 24.12 140.47 24.55 154.63 C 25.61 162.09 37.53 162.32 38.90 154.91 C 39.42 142.64 39.26 130.27 39.00 117.99 C 37.66 111.12 29.65 111.88 24.35 112.12 M 151.25 118.08 C 151.06 130.33 150.89 142.65 151.33 154.90 C 152.66 162.25 164.48 162.07 165.65 154.70 C 166.15 140.52 165.77 126.29 165.82 112.09 C 160.55 111.88 152.40 111.16 151.25 118.08 Z" />
</g>
</svg>
