<?xml version="1.0" encoding="UTF-8" ?>
<!DOCTYPE svg PUBLIC "-//W3C//DTD SVG 1.1//EN" "http://www.w3.org/Graphics/SVG/1.1/DTD/svg11.dtd">
<svg width="192pt" height="192pt" viewBox="0 0 192 192" version="1.1" xmlns="http://www.w3.org/2000/svg">
<g id="#ff633bff">
<path fill="#ff633b" opacity="1.00" d=" M 39.28 21.36 C 41.48 20.83 43.75 20.70 46.00 20.73 C 79.99 20.76 113.99 20.70 147.98 20.75 C 160.14 20.83 170.93 31.78 170.79 43.95 C 170.79 78.66 170.85 113.36 170.78 148.07 C 170.51 159.98 159.86 170.40 147.96 170.52 C 113.32 170.58 78.68 170.57 44.03 170.51 C 31.72 170.45 20.86 159.36 21.07 147.05 C 21.03 112.68 21.03 78.31 21.08 43.94 C 21.06 33.43 29.03 23.61 39.28 21.36 M 41.35 32.45 C 35.94 33.85 31.92 39.35 32.32 44.95 C 32.32 78.99 32.30 113.03 32.33 147.07 C 32.18 153.76 38.41 159.55 45.02 159.26 C 79.01 159.26 113.00 159.26 147.00 159.24 C 153.62 159.49 159.63 153.62 159.59 147.01 C 159.66 112.98 159.62 78.96 159.61 44.94 C 160.06 37.71 153.26 31.10 146.00 32.11 C 111.11 32.65 76.18 30.97 41.35 32.45 Z" />
<path fill="#ff633b" opacity="1.00" d=" M 42.94 68.01 C 42.77 62.50 49.55 64.20 53.07 64.01 C 55.68 63.51 58.08 66.48 56.92 68.89 C 54.90 73.89 52.55 78.75 50.55 83.76 C 46.89 79.90 45.41 73.14 42.94 68.01 Z" />
<path fill="#ff633b" opacity="1.00" d=" M 68.26 64.32 C 71.37 62.94 75.17 65.56 75.02 68.95 C 75.15 83.99 75.10 99.04 75.04 114.08 C 74.13 129.31 46.66 128.80 45.17 114.05 C 44.26 110.15 45.79 104.18 50.91 105.12 C 56.92 105.83 53.07 114.06 58.19 115.73 C 61.36 117.10 65.30 114.46 65.20 111.02 C 65.29 97.00 65.18 82.98 65.26 68.97 C 65.16 66.98 66.41 65.04 68.26 64.32 Z" />
<path fill="#ff633b" opacity="1.00" d=" M 82.53 69.01 C 82.25 66.48 84.34 63.94 86.93 64.02 C 91.98 63.96 97.02 64.02 102.07 64.00 C 107.40 63.84 112.36 68.58 112.18 73.98 C 112.20 80.37 113.55 88.49 107.14 92.45 C 113.66 94.28 112.12 101.88 112.22 107.00 C 111.78 112.06 113.83 118.59 109.09 122.19 C 104.08 125.63 97.66 123.69 92.00 124.21 C 88.48 124.46 83.26 124.53 82.61 119.98 C 82.40 103.00 82.56 86.00 82.53 69.01 M 92.39 71.19 C 92.49 77.29 92.36 83.38 92.46 89.48 C 95.50 89.13 100.90 91.13 101.80 86.90 C 102.42 82.18 102.78 77.15 101.43 72.52 C 99.32 69.88 95.32 71.54 92.39 71.19 M 92.39 97.20 C 92.50 103.96 92.36 110.72 92.47 117.48 C 95.57 117.08 100.81 119.09 101.89 114.90 C 102.48 110.00 102.57 104.95 102.00 100.05 C 101.10 95.61 95.58 97.46 92.39 97.20 Z" />
<path fill="#ff633b" opacity="1.00" d=" M 122.32 64.36 C 125.39 62.85 129.41 65.53 129.18 68.95 C 129.30 82.98 129.14 97.01 129.26 111.03 C 128.99 115.28 134.79 117.75 137.73 114.76 C 140.37 112.77 138.49 108.92 140.64 106.66 C 142.88 103.93 147.71 104.81 148.93 108.11 C 150.03 113.40 149.72 120.51 144.09 123.16 C 138.66 125.20 132.66 123.78 126.98 124.21 C 123.29 124.77 119.34 121.87 119.42 118.01 C 119.37 101.67 119.38 85.33 119.42 68.99 C 119.33 67.03 120.48 65.10 122.32 64.36 Z" />
<path fill="#ff633b" opacity="1.00" d=" M 48.25 87.31 C 55.05 84.68 58.89 96.01 51.94 98.15 C 45.01 100.84 41.21 89.35 48.25 87.31 Z" />
</g>
</svg>
