<?xml version="1.0" encoding="UTF-8" ?>
<!DOCTYPE svg PUBLIC "-//W3C//DTD SVG 1.1//EN" "http://www.w3.org/Graphics/SVG/1.1/DTD/svg11.dtd">
<svg width="192pt" height="192pt" viewBox="0 0 192 192" version="1.1" xmlns="http://www.w3.org/2000/svg">
<g id="#ff527dff">
<path fill="#ff527d" opacity="1.00" d=" M 22.09 43.94 C 21.89 31.71 32.78 20.67 45.03 20.76 C 66.69 20.71 88.36 20.74 110.03 20.74 C 113.88 20.21 117.28 24.31 115.93 27.98 C 108.28 57.28 100.21 86.47 92.78 115.83 C 90.44 124.15 88.95 133.30 82.91 139.90 C 76.25 146.92 64.53 147.08 56.79 141.75 C 58.59 138.05 60.81 134.59 62.99 131.11 C 68.82 133.87 74.68 129.60 75.71 123.67 C 83.62 93.01 92.14 62.50 100.02 31.83 C 82.00 31.82 63.98 31.78 45.97 31.83 C 39.41 31.61 33.12 37.23 33.28 43.92 C 33.24 77.97 33.26 112.02 33.27 146.07 C 33.03 152.81 39.28 158.77 46.00 158.33 C 79.66 158.32 113.33 158.33 146.99 158.31 C 153.68 158.71 159.79 152.76 159.65 146.08 C 159.72 112.36 159.67 78.65 159.68 44.93 C 159.98 39.81 156.82 34.80 152.08 32.86 C 146.83 30.71 140.99 32.67 135.59 31.42 C 130.94 29.71 131.24 22.20 136.08 20.97 C 140.70 20.49 145.38 20.66 150.02 20.90 C 161.44 21.91 170.96 32.47 170.82 43.94 C 170.89 77.98 170.87 112.02 170.85 146.06 C 171.16 158.35 160.34 169.45 148.06 169.51 C 113.69 169.58 79.31 169.56 44.93 169.51 C 32.60 169.51 21.77 158.37 22.06 146.04 C 22.04 112.01 22.03 77.97 22.09 43.94 Z" />
<path fill="#ff527d" opacity="1.00" d=" M 109.44 82.43 C 116.70 76.21 128.16 75.74 136.03 81.12 C 135.21 85.19 134.10 89.19 133.01 93.20 C 128.12 90.58 120.44 85.93 116.24 92.00 C 118.87 96.37 124.54 97.35 127.44 101.52 C 133.34 108.42 130.61 119.54 123.27 124.28 C 115.47 130.06 105.07 127.44 96.86 124.02 C 97.84 119.94 98.83 115.85 100.20 111.88 C 104.79 113.97 109.79 115.95 114.94 115.00 C 117.61 114.64 118.55 111.04 116.93 109.11 C 113.79 105.34 108.03 104.79 105.45 100.43 C 101.87 94.54 104.60 86.74 109.44 82.43 Z" />
</g>
</svg>
