<?xml version="1.0" encoding="UTF-8" ?>
<!DOCTYPE svg PUBLIC "-//W3C//DTD SVG 1.1//EN" "http://www.w3.org/Graphics/SVG/1.1/DTD/svg11.dtd">
<svg width="192pt" height="192pt" viewBox="0 0 192 192" version="1.1" xmlns="http://www.w3.org/2000/svg">
<g id="#1cb5ffff">
<path fill="#1cb5ff" opacity="1.00" d=" M 82.39 14.47 C 88.14 13.76 94.13 12.69 99.86 13.87 C 105.67 16.13 103.07 25.63 96.88 24.59 C 65.21 23.59 34.87 46.43 27.11 77.15 C 19.13 105.29 30.98 137.44 55.17 153.81 C 59.08 156.77 63.70 158.55 67.78 161.21 C 72.15 164.83 67.72 172.62 62.35 170.61 C 29.64 156.91 8.93 120.00 14.16 84.91 C 18.19 49.79 47.45 19.68 82.39 14.47 Z" />
<path fill="#1cb5ff" opacity="1.00" d=" M 119.43 17.65 C 128.96 15.41 139.40 21.53 142.17 30.89 C 145.50 40.53 139.80 51.98 130.15 55.20 C 120.80 58.84 109.31 53.86 105.51 44.61 C 100.36 33.79 107.68 19.74 119.43 17.65 Z" />
<path fill="#1cb5ff" opacity="1.00" d=" M 149.48 48.45 C 147.14 43.22 154.69 38.18 158.57 42.43 C 166.86 51.74 172.44 63.28 175.76 75.25 C 171.08 80.85 159.99 79.95 159.49 88.58 C 155.18 110.97 149.47 133.68 137.26 153.21 C 155.21 140.50 166.73 119.07 166.86 97.02 C 167.02 94.00 166.23 90.14 169.14 88.13 C 172.35 85.48 177.88 87.79 178.09 91.99 C 179.20 111.97 172.35 132.19 159.65 147.62 C 144.75 165.99 121.55 177.35 97.93 177.87 C 80.57 177.29 70.26 159.82 67.10 144.57 C 71.00 145.35 72.37 149.49 75.06 151.93 C 80.36 157.13 87.94 161.28 95.56 159.32 C 104.50 157.09 110.39 149.27 114.59 141.59 C 123.21 125.93 128.50 108.05 128.51 90.13 C 106.44 91.91 84.11 92.46 62.10 89.65 C 56.04 88.68 49.70 88.03 44.31 84.86 C 44.61 78.61 45.67 72.17 48.53 66.56 C 49.35 64.76 51.36 64.87 53.01 65.18 C 70.48 68.27 88.29 69.67 106.03 68.82 C 123.46 68.15 141.33 67.00 157.70 60.45 C 155.32 56.20 152.00 52.58 149.48 48.45 Z" />
</g>
</svg>
