<?xml version="1.0" encoding="UTF-8" ?>
<!DOCTYPE svg PUBLIC "-//W3C//DTD SVG 1.1//EN" "http://www.w3.org/Graphics/SVG/1.1/DTD/svg11.dtd">
<svg width="192pt" height="192pt" viewBox="0 0 192 192" version="1.1" xmlns="http://www.w3.org/2000/svg">
<g id="#1bb4ffff">
<path fill="#1bb4ff" opacity="1.00" d=" M 96.40 25.49 C 126.41 20.53 158.11 37.53 170.90 65.05 C 181.57 86.84 179.80 114.10 166.34 134.30 C 151.28 157.94 121.38 170.84 93.85 165.34 C 89.83 164.93 85.87 162.30 81.81 163.79 C 67.14 168.03 50.68 165.53 38.00 157.00 C 23.43 147.48 14.03 130.46 14.09 113.00 C 13.76 95.24 23.20 77.71 38.17 68.17 C 40.38 66.80 42.87 65.51 43.86 62.94 C 54.04 43.00 74.24 28.63 96.40 25.49 M 66.67 51.34 C 82.03 48.82 98.49 56.01 106.53 69.44 C 110.46 75.21 110.80 82.53 114.76 88.28 C 126.78 110.30 119.91 139.96 99.84 154.86 C 125.78 158.29 152.54 142.44 162.11 118.14 C 169.03 101.53 167.78 81.80 158.77 66.22 C 148.51 47.96 128.06 35.66 107.00 36.08 C 92.21 35.67 77.68 41.63 66.67 51.34 M 58.40 71.59 C 55.49 72.48 51.16 72.53 50.31 76.16 C 48.00 82.84 46.80 89.97 47.19 97.04 C 50.28 110.54 65.26 119.52 78.69 116.62 C 92.02 114.32 102.67 100.83 100.71 87.27 C 91.41 74.28 73.92 68.00 58.40 71.59 M 27.39 125.63 C 32.66 142.46 49.47 154.69 67.12 154.54 C 50.97 143.38 39.33 125.66 36.61 106.11 C 35.88 99.39 34.41 92.72 34.64 85.92 C 26.01 96.99 22.79 112.22 27.39 125.63 M 53.71 123.05 C 59.90 134.80 69.99 144.42 82.08 149.93 C 83.09 150.28 84.27 151.12 85.34 150.46 C 102.11 142.92 112.01 123.56 108.95 105.50 C 100.14 126.05 72.78 134.85 53.71 123.05 Z" />
</g>
</svg>
