<?xml version="1.0" encoding="UTF-8" ?>
<!DOCTYPE svg PUBLIC "-//W3C//DTD SVG 1.1//EN" "http://www.w3.org/Graphics/SVG/1.1/DTD/svg11.dtd">
<svg width="192pt" height="192pt" viewBox="0 0 192 192" version="1.1" xmlns="http://www.w3.org/2000/svg">
<g id="#f6b02bff">
<path fill="#f6b02b" opacity="1.00" d=" M 81.20 31.21 C 94.69 22.52 110.58 15.33 126.99 17.23 C 140.60 18.44 152.17 29.63 154.23 43.05 C 154.50 48.09 146.72 50.09 144.72 45.39 C 142.87 39.85 140.50 33.95 135.26 30.75 C 127.00 25.64 116.46 26.60 107.61 29.54 C 91.49 34.63 77.94 45.38 66.01 57.04 C 48.45 74.54 34.77 96.33 28.35 120.38 C 25.27 132.83 25.05 147.82 34.01 157.99 C 42.03 165.89 54.58 163.59 64.15 160.20 C 83.33 153.12 100.21 140.43 113.71 125.25 C 100.03 122.86 86.11 121.62 72.62 118.28 C 67.71 117.00 68.22 109.02 73.30 108.48 C 87.54 106.46 101.83 104.78 116.08 102.85 C 98.66 100.23 81.20 97.94 63.80 95.23 C 58.22 94.52 58.38 85.09 64.03 84.65 C 84.17 82.36 104.36 80.47 124.51 78.19 C 111.08 76.72 97.57 75.77 84.22 73.85 C 78.87 71.80 81.12 63.94 86.19 63.18 C 107.18 59.55 128.05 55.14 149.06 51.65 C 153.10 50.41 157.06 55.09 155.05 58.83 C 153.83 61.54 150.61 61.76 148.08 62.24 C 138.60 63.74 129.19 65.62 119.75 67.33 C 137.11 69.44 154.55 70.80 171.90 72.94 C 177.22 73.83 177.08 82.88 171.72 83.56 C 149.17 86.16 126.55 88.25 103.99 90.73 C 119.82 93.00 135.66 95.26 151.48 97.59 C 157.39 98.01 157.59 107.94 151.74 108.58 C 137.67 110.56 123.54 112.19 109.45 114.08 C 114.74 115.13 120.14 115.51 125.39 116.70 C 129.32 117.72 130.08 123.55 126.62 125.64 C 111.22 145.32 90.57 161.47 66.94 170.04 C 54.15 174.62 37.79 175.99 27.34 165.68 C 15.04 153.20 14.41 133.66 18.55 117.57 C 28.07 82.45 51.45 51.81 81.20 31.21 Z" />
</g>
</svg>
