<?xml version="1.0" encoding="UTF-8" ?>
<!DOCTYPE svg PUBLIC "-//W3C//DTD SVG 1.1//EN" "http://www.w3.org/Graphics/SVG/1.1/DTD/svg11.dtd">
<svg width="192pt" height="192pt" viewBox="0 0 192 192" version="1.1" xmlns="http://www.w3.org/2000/svg">
<g id="#10c9c3ff">
<path fill="#10c9c3" opacity="1.00" d=" M 84.41 14.54 C 117.63 9.30 152.66 27.16 168.17 56.93 C 184.28 86.07 179.94 124.82 157.63 149.57 C 136.30 174.63 99.16 184.27 68.32 172.76 C 47.49 165.39 30.04 149.15 21.13 128.94 C 9.61 103.53 12.41 72.30 28.36 49.39 C 41.10 30.64 61.92 17.60 84.41 14.54 M 87.37 25.46 C 61.95 28.20 39.12 46.19 30.02 70.00 C 22.69 88.82 23.87 110.80 33.41 128.63 C 41.90 144.71 56.79 157.32 74.13 162.87 C 93.48 169.14 115.55 166.64 132.85 155.88 C 159.72 139.97 173.12 105.16 163.66 75.35 C 154.64 43.15 120.54 20.69 87.37 25.46 Z" />
<path fill="#10c9c3" opacity="1.00" d=" M 83.57 63.59 C 95.70 59.93 107.82 56.22 120.01 52.79 C 125.98 50.91 129.87 57.88 129.25 62.99 C 128.46 80.33 129.69 97.72 128.85 115.05 C 128.29 125.06 116.01 131.93 107.30 126.69 C 99.04 122.76 96.68 111.21 102.06 104.01 C 105.81 98.62 112.84 96.61 119.12 97.67 C 119.33 86.43 119.17 75.19 119.06 63.96 C 108.42 66.83 97.84 69.99 87.32 73.30 C 86.75 90.87 87.83 108.49 86.92 126.04 C 86.55 134.39 78.31 140.83 70.15 139.68 C 59.97 138.78 54.11 125.80 59.14 117.22 C 62.64 110.88 70.33 107.99 77.30 109.10 C 77.44 96.73 77.04 84.34 77.34 71.97 C 77.33 68.15 79.73 64.46 83.57 63.59 Z" />
</g>
</svg>
