<?xml version="1.0" encoding="UTF-8" ?>
<!DOCTYPE svg PUBLIC "-//W3C//DTD SVG 1.1//EN" "http://www.w3.org/Graphics/SVG/1.1/DTD/svg11.dtd">
<svg width="192pt" height="192pt" viewBox="0 0 192 192" version="1.1" xmlns="http://www.w3.org/2000/svg">
<g id="#f6b12cff">
<path fill="#f6b12c" opacity="1.00" d=" M 83.34 40.40 C 103.36 37.03 123.47 48.35 133.91 65.12 C 136.24 70.80 127.84 75.80 124.02 71.03 C 117.11 61.91 107.62 54.00 96.14 51.74 C 76.84 48.28 56.47 62.43 52.73 81.64 C 52.09 86.10 50.36 91.48 45.16 92.19 C 33.90 94.53 25.03 105.40 25.65 116.99 C 26.14 128.92 37.08 139.09 48.97 139.03 C 73.98 139.03 98.99 139.02 124.00 139.18 C 132.92 139.10 142.49 140.07 150.57 135.48 C 163.97 128.45 170.13 110.69 164.12 96.83 C 160.93 88.84 153.88 83.03 145.98 80.01 C 140.29 77.90 142.85 68.09 148.99 69.44 C 161.42 72.93 171.63 83.15 175.65 95.36 C 182.46 115.02 172.22 138.90 152.90 146.93 C 145.74 150.16 137.76 150.69 130.01 150.52 C 103.01 150.29 76.01 150.38 49.01 150.36 C 32.84 150.44 17.76 137.90 14.95 121.97 C 11.67 105.41 22.48 87.76 38.40 82.53 C 42.27 82.07 41.79 77.66 42.92 74.89 C 48.22 56.79 64.95 43.35 83.34 40.40 Z" />
</g>
</svg>
