<?xml version="1.0" encoding="UTF-8" ?>
<!DOCTYPE svg PUBLIC "-//W3C//DTD SVG 1.1//EN" "http://www.w3.org/Graphics/SVG/1.1/DTD/svg11.dtd">
<svg width="192pt" height="192pt" viewBox="0 0 192 192" version="1.1" xmlns="http://www.w3.org/2000/svg">
<g id="#44e372ff">
<path fill="#44e372" opacity="1.00" d=" M 48.68 27.68 C 65.99 15.51 88.12 10.49 108.99 14.07 C 132.71 17.89 154.39 32.79 166.42 53.60 C 169.51 58.13 165.43 64.68 160.06 64.22 C 142.57 64.31 125.08 64.27 107.59 64.23 C 109.23 67.16 110.54 70.26 111.67 73.42 C 115.88 73.37 120.10 73.29 124.30 73.69 C 124.48 76.98 124.51 80.27 124.48 83.57 C 120.28 84.31 116.02 84.20 111.78 84.14 C 109.68 96.82 97.99 104.88 85.81 106.24 C 96.04 117.62 105.96 129.28 115.60 141.17 C 115.53 141.75 115.38 142.93 115.31 143.51 C 110.16 143.71 104.69 144.54 99.70 143.28 C 89.47 131.86 79.84 119.86 69.27 108.71 C 65.71 105.48 65.57 98.47 68.06 94.99 C 78.10 94.79 91.98 95.63 96.35 84.19 C 86.93 83.91 77.47 84.49 68.06 83.91 C 65.27 81.61 67.24 76.96 66.83 73.70 C 76.34 72.97 85.89 73.73 95.41 73.25 C 88.85 64.26 76.54 67.34 67.42 65.56 C 66.52 61.81 64.50 52.40 70.99 53.52 C 96.67 53.51 122.35 53.58 148.03 53.49 C 149.58 53.74 150.46 52.39 151.44 51.47 C 134.01 28.83 102.46 18.67 75.14 27.15 C 45.39 35.44 23.43 65.09 24.38 96.00 C 24.18 126.30 46.01 154.79 75.10 162.95 C 96.69 169.52 121.29 164.98 139.01 150.97 C 160.07 135.03 170.38 106.86 165.13 81.02 C 163.50 74.56 174.00 71.87 175.83 78.16 C 183.56 110.82 167.84 146.93 139.39 164.45 C 119.71 177.05 94.56 180.58 72.16 173.89 C 41.93 165.38 18.12 138.13 13.91 106.98 C 9.08 76.71 23.44 44.84 48.68 27.68 Z" />
</g>
</svg>
