<?xml version="1.0" encoding="UTF-8" ?>
<!DOCTYPE svg PUBLIC "-//W3C//DTD SVG 1.1//EN" "http://www.w3.org/Graphics/SVG/1.1/DTD/svg11.dtd">
<svg width="192pt" height="192pt" viewBox="0 0 192 192" version="1.1" xmlns="http://www.w3.org/2000/svg">
<g id="#ff3661ff">
<path fill="#ff3661" opacity="1.00" d=" M 39.23 23.17 C 76.09 22.20 113.13 22.91 150.05 22.81 C 157.09 22.61 157.11 34.16 150.06 34.00 C 114.03 34.23 77.97 34.12 41.94 34.05 C 35.69 34.89 33.24 25.21 39.23 23.17 Z" />
<path fill="#ff3661" opacity="1.00" d=" M 24.30 42.35 C 27.78 41.37 31.43 41.70 35.00 41.65 C 77.33 41.68 119.66 41.64 161.99 41.67 C 170.77 41.27 178.57 49.22 178.14 57.98 C 178.17 87.32 178.17 116.68 178.13 146.02 C 178.33 157.89 167.97 168.67 156.07 168.72 C 116.03 168.84 75.98 168.77 35.94 168.74 C 24.18 169.05 13.41 158.85 13.18 147.08 C 13.04 117.37 13.17 87.65 13.13 57.94 C 12.79 50.99 17.61 44.26 24.30 42.35 M 27.24 53.32 C 24.78 53.96 24.29 56.79 24.42 58.96 C 24.47 87.99 24.40 117.03 24.46 146.07 C 24.30 152.19 29.87 157.69 36.00 157.44 C 75.67 157.47 115.33 157.45 155.00 157.44 C 161.20 157.77 166.87 152.28 166.76 146.08 C 166.84 116.71 166.84 87.33 166.77 57.96 C 167.03 55.32 164.83 52.73 162.07 53.12 C 117.14 53.30 72.12 52.18 27.24 53.32 Z" />
<path fill="#ff3661" opacity="1.00" d=" M 55.24 67.26 C 59.74 65.45 63.46 69.72 63.13 74.02 C 63.73 89.81 77.02 103.93 92.90 104.85 C 109.17 106.55 125.55 94.30 127.87 78.00 C 128.59 74.26 127.86 68.93 132.12 67.11 C 136.64 65.76 139.74 70.87 139.61 74.79 C 139.29 93.52 124.76 110.31 106.82 114.78 C 92.50 118.72 76.41 114.55 65.64 104.37 C 56.71 96.13 51.69 84.07 51.61 71.98 C 51.54 69.78 53.13 67.78 55.24 67.26 Z" />
</g>
</svg>
