<?xml version="1.0" encoding="UTF-8" ?>
<!DOCTYPE svg PUBLIC "-//W3C//DTD SVG 1.1//EN" "http://www.w3.org/Graphics/SVG/1.1/DTD/svg11.dtd">
<svg width="192pt" height="192pt" viewBox="0 0 192 192" version="1.1" xmlns="http://www.w3.org/2000/svg">
<g id="#f6b12cff">
<path fill="#f6b12c" opacity="1.00" d=" M 39.34 21.42 C 42.82 20.54 46.44 20.74 50.00 20.73 C 82.33 20.77 114.65 20.69 146.98 20.76 C 158.84 20.70 169.48 31.10 169.79 42.93 C 169.76 48.83 170.24 54.79 169.53 60.65 C 168.16 65.38 160.78 65.53 159.17 60.88 C 158.00 54.48 159.44 47.84 158.39 41.41 C 157.20 35.83 151.69 31.70 146.03 31.84 C 112.68 31.79 79.34 31.83 45.99 31.79 C 40.19 31.43 34.42 35.42 33.04 41.11 C 31.78 47.68 33.49 54.52 32.14 61.05 C 30.30 65.85 22.53 65.06 21.71 59.99 C 21.33 54.35 21.54 48.68 21.60 43.03 C 21.90 32.95 29.52 23.70 39.34 21.42 Z" />
<path fill="#f6b12c" opacity="1.00" d=" M 34.11 72.19 C 36.82 70.48 45.03 69.53 44.13 74.95 C 44.16 85.64 44.17 96.33 44.12 107.01 C 43.99 111.31 43.26 116.86 38.68 118.67 C 33.16 120.59 27.09 120.40 21.36 119.63 C 21.13 117.19 20.75 114.68 21.30 112.25 C 24.57 109.36 31.54 113.59 33.47 108.61 C 34.48 96.53 33.18 84.28 34.11 72.19 Z" />
<path fill="#f6b12c" opacity="1.00" d=" M 59.27 71.29 C 66.46 70.15 74.12 69.81 81.17 71.84 C 88.10 74.30 87.83 82.96 87.84 88.99 C 87.37 97.42 89.04 106.22 86.36 114.38 C 83.68 121.16 75.01 120.60 69.00 120.68 C 63.01 120.71 54.39 120.77 52.14 113.81 C 49.78 105.11 51.29 95.92 50.87 87.02 C 50.67 80.92 51.89 72.41 59.27 71.29 M 64.43 79.63 C 62.00 80.08 61.33 82.80 61.32 84.91 C 61.17 91.63 61.27 98.35 61.27 105.07 C 59.33 114.95 79.47 114.85 77.49 104.99 C 77.38 97.67 77.91 90.30 77.18 83.01 C 75.84 77.52 68.56 79.45 64.43 79.63 Z" />
<path fill="#f6b12c" opacity="1.00" d=" M 94.91 73.95 C 94.90 69.31 101.08 71.71 104.00 71.13 C 111.91 71.73 123.28 68.63 127.81 77.26 C 129.15 83.15 130.63 91.90 124.24 95.39 C 130.08 97.16 129.70 104.09 129.48 108.99 C 129.73 113.59 126.79 118.23 122.15 119.21 C 114.88 120.87 107.35 119.82 99.97 120.14 C 98.28 120.01 94.99 120.48 94.95 118.00 C 94.78 103.32 94.86 88.63 94.91 73.95 M 104.85 79.62 C 104.83 83.55 104.83 87.48 104.86 91.41 C 109.13 90.97 114.41 92.83 117.96 89.89 C 119.31 86.86 119.89 81.15 115.91 79.85 C 112.25 79.31 108.54 79.67 104.85 79.62 M 104.89 99.31 C 104.83 103.37 104.83 107.42 104.86 111.47 C 109.30 111.10 114.35 112.66 118.36 110.37 C 120.06 107.39 120.59 101.80 117.28 99.70 C 113.22 98.84 109.01 99.47 104.89 99.31 Z" />
<path fill="#f6b12c" opacity="1.00" d=" M 138.96 72.96 C 145.81 69.27 154.29 70.29 161.73 71.33 C 168.69 72.57 169.55 80.91 168.66 86.61 C 165.64 87.02 162.37 87.72 159.45 86.48 C 157.94 84.56 159.21 81.51 157.46 79.61 C 154.78 78.57 151.79 78.67 148.98 78.99 C 144.64 79.29 145.08 85.60 146.68 88.36 C 153.38 92.15 162.70 90.82 168.16 96.81 C 170.64 103.13 171.01 111.38 167.33 117.31 C 161.12 122.25 152.24 120.63 144.86 120.18 C 137.45 119.82 134.71 110.73 136.85 104.85 C 139.41 103.54 142.77 104.15 145.59 104.47 C 147.51 106.61 145.41 111.41 149.10 112.04 C 152.30 112.26 156.50 113.24 159.02 110.77 C 159.69 108.08 159.99 104.90 158.70 102.36 C 151.93 98.28 141.95 100.00 136.79 93.30 C 134.91 86.91 133.83 78.12 138.96 72.96 Z" />
<path fill="#f6b12c" opacity="1.00" d=" M 24.40 127.50 C 27.49 125.59 32.04 127.78 32.47 131.38 C 32.99 136.90 32.25 142.47 32.82 147.99 C 33.63 153.79 39.10 158.51 44.99 158.32 C 78.66 158.34 112.33 158.31 145.99 158.31 C 151.79 158.64 157.32 154.28 158.42 148.60 C 159.38 142.52 158.03 136.26 159.15 130.21 C 161.01 124.86 169.91 126.34 169.80 132.06 C 169.56 140.39 171.32 149.43 167.11 157.07 C 163.18 164.77 154.67 169.72 146.05 169.55 C 112.35 169.55 78.65 169.56 44.94 169.53 C 35.56 169.62 26.57 163.46 23.20 154.72 C 20.76 148.77 21.71 142.24 21.50 135.99 C 21.43 132.97 21.27 129.12 24.40 127.50 Z" />
</g>
</svg>
