<?xml version="1.0" encoding="UTF-8" ?>
<!DOCTYPE svg PUBLIC "-//W3C//DTD SVG 1.1//EN" "http://www.w3.org/Graphics/SVG/1.1/DTD/svg11.dtd">
<svg width="192pt" height="192pt" viewBox="0 0 192 192" version="1.1" xmlns="http://www.w3.org/2000/svg">
<g id="#a2a5aaff">
<path fill="#a2a5aa" opacity="1.00" d=" M 84.27 19.35 C 116.26 14.31 149.94 31.89 164.22 60.90 C 175.10 82.09 175.33 108.37 164.80 129.74 C 152.32 155.93 124.11 173.77 95.01 173.19 C 65.17 173.62 36.47 154.64 24.58 127.38 C 14.68 105.43 15.90 78.85 27.85 57.94 C 39.40 37.31 60.80 22.50 84.27 19.35 M 87.53 29.75 C 69.59 31.76 52.69 41.43 41.95 55.95 C 30.20 71.35 25.92 92.02 30.34 110.86 C 34.54 129.73 47.57 146.31 64.75 155.10 C 82.26 164.23 103.90 164.85 121.95 156.87 C 150.43 144.93 167.51 111.56 160.21 81.48 C 153.74 49.04 120.35 25.17 87.53 29.75 Z" />
<path fill="#a2a5aa" opacity="1.00" d=" M 39.35 79.93 C 39.40 71.18 47.27 63.64 55.93 63.52 C 62.31 63.45 68.70 63.43 75.07 63.53 C 82.55 63.76 89.21 69.33 91.05 76.54 C 93.77 76.66 96.49 76.64 99.21 76.68 C 101.39 69.40 108.08 63.34 115.93 63.49 C 123.29 63.69 130.75 62.88 138.05 63.98 C 156.59 68.33 156.23 100.73 137.34 104.30 C 129.64 104.86 121.87 104.56 114.16 104.47 C 105.11 103.73 99.01 95.19 98.46 86.60 C 96.20 86.68 93.94 86.71 91.67 86.71 C 91.89 95.30 85.22 103.47 76.60 104.45 C 70.06 104.72 63.50 104.47 56.96 104.56 C 50.37 104.86 43.91 100.86 41.05 94.95 C 38.60 90.33 39.39 84.95 39.35 79.93 M 54.16 73.97 C 48.63 75.81 49.26 82.36 49.47 87.01 C 49.06 90.71 52.24 94.26 55.92 94.39 C 61.61 94.55 67.31 94.38 73.00 94.45 C 84.95 95.81 84.89 72.33 73.00 73.57 C 66.73 73.81 60.37 73.08 54.16 73.97 M 113.29 74.26 C 106.68 78.13 106.79 90.87 113.96 94.18 C 120.29 94.72 126.66 94.28 133.00 94.42 C 144.56 95.22 144.52 72.93 133.01 73.61 C 126.46 73.94 119.67 72.81 113.29 74.26 Z" />
</g>
</svg>
