<?xml version="1.0" encoding="UTF-8" ?>
<!DOCTYPE svg PUBLIC "-//W3C//DTD SVG 1.1//EN" "http://www.w3.org/Graphics/SVG/1.1/DTD/svg11.dtd">
<svg width="192pt" height="192pt" viewBox="0 0 192 192" version="1.1" xmlns="http://www.w3.org/2000/svg">
<g id="#8e6378ff">
<path fill="#8e6378" opacity="1.00" d=" M 100.64 58.04 C 101.16 32.89 124.48 10.46 149.70 12.10 C 149.78 51.41 149.94 90.73 149.65 130.04 C 148.71 155.02 125.53 176.22 100.70 175.35 C 100.35 136.25 100.50 97.14 100.64 58.04 M 111.87 60.01 C 111.69 94.06 111.80 128.12 111.82 162.17 C 127.37 158.43 138.53 142.86 138.43 127.06 C 138.53 93.04 138.45 59.03 138.46 25.01 C 122.88 28.56 111.90 44.33 111.87 60.01 Z" />
<path fill="#8e6378" opacity="1.00" d=" M 57.29 127.32 C 69.41 123.53 83.17 131.16 87.07 143.07 C 91.40 154.55 85.33 168.41 74.17 173.32 C 61.41 179.74 44.50 172.25 40.35 158.67 C 35.56 145.81 44.16 130.62 57.29 127.32 M 59.39 138.59 C 53.60 140.58 49.56 146.88 50.68 152.98 C 51.58 159.32 57.56 164.51 64.01 164.21 C 71.72 164.34 78.34 156.51 76.83 148.92 C 75.67 141.18 66.83 135.46 59.39 138.59 Z" />
</g>
</svg>
