<?xml version="1.0" encoding="UTF-8" ?>
<!DOCTYPE svg PUBLIC "-//W3C//DTD SVG 1.1//EN" "http://www.w3.org/Graphics/SVG/1.1/DTD/svg11.dtd">
<svg width="192pt" height="192pt" viewBox="0 0 192 192" version="1.1" xmlns="http://www.w3.org/2000/svg">
<g id="#19b0ffff">
<path fill="#19b0ff" opacity="1.00" d=" M 40.29 21.33 C 70.44 19.96 100.77 21.12 131.00 20.73 C 138.23 20.99 145.55 20.12 152.72 21.34 C 162.96 23.60 170.91 33.42 170.82 43.94 C 170.89 77.98 170.89 112.02 170.85 146.06 C 171.14 158.35 160.36 169.47 148.06 169.51 C 113.69 169.59 79.32 169.56 44.94 169.50 C 32.62 169.49 21.78 158.36 22.07 146.04 C 22.05 112.01 22.05 77.97 22.10 43.93 C 21.99 33.38 30.02 23.56 40.29 21.33 M 42.27 32.32 C 37.18 33.69 33.16 38.58 33.27 43.93 C 33.23 77.97 33.25 112.02 33.27 146.06 C 33.03 152.80 39.25 158.73 45.94 158.33 C 79.88 158.30 113.83 158.36 147.77 158.27 C 154.18 158.27 159.76 152.46 159.64 146.07 C 159.70 112.02 159.73 77.97 159.64 43.92 C 159.72 36.87 152.88 31.23 146.01 31.81 C 111.45 32.18 76.77 31.08 42.27 32.32 Z" />
<path fill="#19b0ff" opacity="1.00" d=" M 53.26 47.34 C 64.79 46.71 76.42 47.04 87.98 47.15 C 93.60 47.59 94.36 56.54 88.89 57.94 C 80.35 58.88 71.69 57.89 63.11 58.39 C 61.14 58.37 59.32 60.08 59.27 62.07 C 58.70 70.66 59.73 79.33 58.80 87.89 C 57.58 93.52 48.25 92.80 47.97 87.01 C 47.59 76.68 47.91 66.32 47.82 55.98 C 47.51 52.30 49.51 48.32 53.26 47.34 Z" />
<path fill="#19b0ff" opacity="1.00" d=" M 135.31 99.32 C 138.56 98.83 141.78 101.68 141.60 105.00 C 141.71 115.33 141.66 125.67 141.63 136.00 C 141.91 140.65 137.61 144.59 133.03 144.22 C 122.38 144.12 111.68 144.58 101.05 143.98 C 95.47 143.03 95.45 134.01 101.05 133.10 C 109.36 132.45 117.72 133.16 126.04 132.79 C 128.55 132.87 130.53 130.46 130.29 128.03 C 130.49 120.35 130.15 112.66 130.39 104.99 C 130.28 102.19 132.51 99.59 135.31 99.32 Z" />
</g>
</svg>
