<?xml version="1.0" encoding="UTF-8" ?>
<!DOCTYPE svg PUBLIC "-//W3C//DTD SVG 1.1//EN" "http://www.w3.org/Graphics/SVG/1.1/DTD/svg11.dtd">
<svg width="192pt" height="192pt" viewBox="0 0 192 192" version="1.1" xmlns="http://www.w3.org/2000/svg">
<g id="#52ac79ff">
<path fill="#52ac79" opacity="1.00" d=" M 39.31 21.40 C 42.82 20.59 46.43 20.75 50.00 20.74 C 82.33 20.79 114.67 20.70 147.00 20.78 C 158.81 20.79 169.46 31.12 169.73 42.94 C 169.73 47.82 170.16 52.76 169.47 57.61 C 168.05 62.26 160.81 62.30 159.20 57.76 C 157.85 52.18 159.52 46.29 158.22 40.69 C 156.62 35.05 150.75 31.46 145.02 31.77 C 112.01 31.78 78.99 31.77 45.98 31.76 C 40.47 31.48 34.90 34.82 33.12 40.13 C 31.37 45.88 33.38 52.11 31.92 57.87 C 30.16 62.36 23.14 62.12 21.68 57.53 C 20.96 53.04 21.45 48.45 21.37 43.93 C 21.28 33.48 29.13 23.67 39.31 21.40 Z" />
<path fill="#52ac79" opacity="1.00" d=" M 31.03 66.22 C 33.91 62.79 37.28 59.80 40.42 56.61 C 40.65 71.94 40.70 87.30 40.44 102.62 C 35.88 108.79 29.78 116.99 20.85 113.79 C 23.67 109.74 28.36 107.10 30.51 102.66 C 31.25 90.54 30.16 78.32 31.03 66.22 Z" />
<path fill="#52ac79" opacity="1.00" d=" M 76.03 57.01 C 79.70 59.98 83.16 63.21 86.67 66.38 C 86.93 71.78 86.65 77.20 86.92 82.60 C 91.54 78.48 95.69 73.86 100.24 69.65 C 100.34 74.10 100.65 78.57 100.28 83.02 C 96.11 88.32 90.94 92.85 86.08 97.54 C 82.70 94.05 78.77 90.98 76.04 86.94 C 75.75 76.97 76.08 66.98 76.03 57.01 Z" />
<path fill="#52ac79" opacity="1.00" d=" M 42.87 67.12 C 49.82 66.92 56.85 66.40 63.77 67.08 C 67.31 70.21 70.83 73.49 73.77 77.19 C 74.36 83.94 74.35 90.81 73.68 97.56 C 66.71 97.42 59.67 97.99 52.73 97.31 C 49.24 94.14 45.47 90.95 42.91 86.98 C 42.59 80.37 42.80 73.74 42.87 67.12 M 53.42 77.20 C 53.36 80.67 53.37 84.14 53.47 87.61 C 56.74 87.74 60.34 88.63 63.44 87.39 C 63.82 84.06 63.54 80.71 63.45 77.38 C 60.11 77.20 56.77 77.15 53.42 77.20 Z" />
<path fill="#52ac79" opacity="1.00" d=" M 113.30 67.30 C 119.86 66.58 126.54 67.15 133.14 67.07 C 130.15 70.38 127.31 73.96 123.69 76.61 C 120.20 76.95 116.68 76.68 113.19 76.99 C 113.20 78.83 113.23 80.66 113.26 82.50 C 114.97 82.60 116.69 82.69 118.40 82.79 C 116.97 84.48 115.53 86.15 114.05 87.79 C 120.22 88.24 126.41 87.92 132.58 88.22 C 129.49 91.59 126.44 95.06 122.86 97.91 C 116.25 98.40 109.56 98.25 102.93 97.87 C 102.63 91.00 102.39 84.03 102.99 77.19 C 106.21 73.70 109.64 70.32 113.30 67.30 Z" />
<path fill="#52ac79" opacity="1.00" d=" M 145.06 66.95 C 150.00 71.38 154.39 76.37 159.31 80.82 C 159.47 76.20 159.40 71.57 159.45 66.94 C 162.87 70.37 166.71 73.43 169.70 77.25 C 170.56 87.56 169.59 97.98 169.74 108.33 C 166.68 105.05 163.03 102.26 160.44 98.58 C 158.13 93.60 160.21 87.90 159.33 82.64 C 156.98 84.94 154.63 87.23 152.08 89.29 C 149.55 86.87 147.04 84.42 144.47 82.04 C 144.22 86.96 144.35 91.88 144.24 96.80 C 141.86 94.50 139.48 92.21 137.14 89.87 C 133.24 86.87 134.72 81.39 134.96 77.18 C 138.10 73.56 141.70 70.36 145.06 66.95 Z" />
<path fill="#52ac79" opacity="1.00" d=" M 145.39 99.35 C 148.16 95.61 151.80 92.61 155.05 89.30 C 155.31 98.88 155.27 108.47 155.23 118.06 C 155.33 122.35 150.81 124.45 148.43 127.43 C 142.83 135.28 132.03 130.54 123.94 131.70 C 123.63 124.58 123.23 117.29 124.06 110.25 C 127.32 106.52 130.89 103.03 134.63 99.79 C 137.78 103.20 141.06 106.51 143.93 110.17 C 140.79 110.41 137.65 110.44 134.51 110.55 C 134.30 113.70 134.27 116.86 134.27 120.02 C 137.59 120.59 142.43 121.97 144.87 119.02 C 145.40 112.48 144.33 105.82 145.39 99.35 Z" />
<path fill="#52ac79" opacity="1.00" d=" M 56.93 100.84 C 60.28 99.15 64.21 100.00 67.80 100.20 C 68.49 109.12 67.91 118.08 68.16 127.01 C 69.20 133.82 61.83 137.09 57.98 141.47 C 57.60 130.98 58.15 120.47 57.65 109.98 C 54.43 109.78 51.20 109.73 47.97 109.63 C 50.89 106.64 53.60 103.39 56.93 100.84 Z" />
<path fill="#52ac79" opacity="1.00" d=" M 80.56 100.51 C 86.95 99.77 93.53 100.05 99.97 100.46 C 97.01 103.65 94.26 107.15 90.72 109.72 C 87.30 110.64 83.65 109.98 80.14 110.19 C 80.15 111.95 80.18 113.71 80.22 115.48 C 81.80 115.73 83.38 115.98 84.97 116.23 C 83.47 117.93 81.98 119.64 80.58 121.43 C 87.05 121.70 93.52 121.49 99.98 121.78 C 95.62 125.33 92.56 132.53 86.00 131.45 C 80.67 131.30 75.32 131.70 70.00 131.21 C 69.85 124.49 69.74 117.75 70.01 111.04 C 72.86 107.00 76.86 103.77 80.56 100.51 Z" />
<path fill="#52ac79" opacity="1.00" d=" M 102.84 100.51 C 106.64 104.99 114.10 108.15 113.13 115.00 C 112.96 123.77 113.41 132.55 112.71 141.30 C 109.11 136.79 101.81 133.68 102.69 127.01 C 102.81 118.18 102.59 109.34 102.84 100.51 Z" />
<path fill="#52ac79" opacity="1.00" d=" M 113.55 100.59 C 116.93 103.64 120.29 106.74 123.36 110.13 C 120.16 110.28 116.96 110.24 113.76 110.12 C 113.42 106.95 113.40 103.76 113.55 100.59 Z" />
<path fill="#52ac79" opacity="1.00" d=" M 38.85 107.89 C 41.18 105.62 43.65 103.51 45.99 101.27 C 46.33 110.85 46.19 120.45 46.11 130.04 C 43.12 126.93 39.83 124.08 37.10 120.72 C 36.90 116.52 35.27 111.11 38.85 107.89 Z" />
<path fill="#52ac79" opacity="1.00" d=" M 24.37 119.42 C 27.69 117.52 32.23 120.19 32.33 123.97 C 32.65 131.64 32.20 139.33 32.50 147.00 C 32.77 153.33 38.67 158.67 44.99 158.37 C 78.66 158.38 112.34 158.36 146.01 158.37 C 152.35 158.71 158.38 153.38 158.63 147.00 C 158.98 139.03 158.33 131.02 158.91 123.06 C 159.83 117.49 168.81 117.57 169.63 123.14 C 170.03 131.09 169.76 139.09 169.75 147.06 C 169.65 159.02 158.90 169.50 146.98 169.51 C 112.66 169.56 78.34 169.56 44.02 169.50 C 32.47 169.41 22.13 159.49 21.44 147.99 C 21.21 140.30 21.36 132.60 21.35 124.91 C 21.21 122.70 22.30 120.39 24.37 119.42 Z" />
</g>
</svg>
