<?xml version="1.0" encoding="UTF-8" ?>
<!DOCTYPE svg PUBLIC "-//W3C//DTD SVG 1.1//EN" "http://www.w3.org/Graphics/SVG/1.1/DTD/svg11.dtd">
<svg width="192pt" height="192pt" viewBox="0 0 192 192" version="1.1" xmlns="http://www.w3.org/2000/svg">
<g id="#f0d154ff">
<path fill="#f0d154" opacity="1.00" d=" M 81.38 14.43 C 84.90 13.43 90.55 13.10 91.02 17.97 C 91.39 38.00 91.17 58.06 91.11 78.10 C 91.54 81.92 86.67 84.71 83.60 82.38 C 66.51 72.48 49.39 62.63 32.37 52.61 C 29.88 51.41 29.04 47.91 30.78 45.74 C 42.84 29.37 61.42 18.09 81.38 14.43 M 42.29 47.23 C 55.27 54.91 68.40 62.36 81.46 69.91 C 81.46 54.79 81.53 39.67 81.43 24.55 C 66.45 27.88 52.62 35.87 42.29 47.23 Z" />
<path fill="#f0d154" opacity="1.00" d=" M 103.31 14.27 C 104.75 13.42 106.48 13.88 108.04 14.02 C 128.97 17.11 148.65 28.68 161.20 45.76 C 163.15 48.16 161.71 51.87 159.06 53.05 C 142.17 62.83 125.29 72.62 108.38 82.34 C 105.30 84.71 100.32 81.94 100.81 78.06 C 100.65 59.04 100.85 40.02 100.71 21.00 C 100.77 18.60 100.72 15.43 103.31 14.27 M 110.48 24.85 C 110.46 39.87 110.36 54.89 110.46 69.91 C 123.54 62.40 136.62 54.89 149.60 47.20 C 139.29 36.00 125.58 27.49 110.48 24.85 Z" />
<path fill="#f0d154" opacity="1.00" d=" M 24.31 60.38 C 26.29 60.19 28.01 61.44 29.69 62.28 C 46.14 71.84 62.64 81.31 79.04 90.94 C 82.47 92.66 82.10 98.15 78.60 99.56 C 61.71 109.35 44.82 119.14 27.92 128.91 C 25.65 130.39 21.93 130.00 20.83 127.25 C 12.05 107.47 11.97 84.08 20.19 64.11 C 20.85 62.29 22.27 60.58 24.31 60.38 M 27.70 117.74 C 40.85 110.24 53.98 102.72 67.03 95.06 C 53.92 87.50 40.82 79.93 27.72 72.36 C 22.62 86.94 22.64 103.15 27.70 117.74 Z" />
<path fill="#f0d154" opacity="1.00" d=" M 164.36 61.18 C 166.83 59.31 170.48 60.79 171.44 63.59 C 179.97 83.66 179.97 107.28 171.20 127.27 C 170.07 130.02 166.33 130.54 164.04 128.96 C 146.96 119.04 129.82 109.19 112.77 99.21 C 109.60 97.58 109.67 92.35 112.94 90.86 C 130.02 80.87 147.16 70.97 164.36 61.18 M 125.06 95.06 C 138.05 102.72 151.13 110.22 164.19 117.76 C 169.16 103.20 169.37 86.97 164.07 72.46 C 151.05 79.97 138.06 87.53 125.06 95.06 Z" />
<path fill="#f0d154" opacity="1.00" d=" M 84.45 107.45 C 87.41 105.77 91.39 108.60 91.08 111.91 C 91.30 131.62 91.20 151.35 91.16 171.06 C 91.48 173.91 89.05 176.83 86.08 176.44 C 64.51 173.98 44.12 162.28 31.08 144.93 C 28.93 142.74 29.66 138.81 32.42 137.50 C 49.72 127.42 66.99 117.26 84.45 107.45 M 42.33 142.89 C 52.50 154.37 66.46 162.32 81.43 165.56 C 81.44 150.48 81.51 135.39 81.40 120.31 C 68.40 127.87 55.34 135.33 42.33 142.89 Z" />
<path fill="#f0d154" opacity="1.00" d=" M 103.40 107.46 C 105.44 106.26 107.72 107.50 109.56 108.50 C 126.03 118.03 142.51 127.56 158.99 137.08 C 161.90 138.37 163.21 142.46 160.89 144.90 C 148.06 162.00 128.11 173.52 106.94 176.34 C 103.70 177.27 100.33 174.38 100.76 171.04 C 100.72 151.68 100.75 132.32 100.76 112.96 C 100.65 110.84 101.34 108.44 103.40 107.46 M 110.48 120.27 C 110.49 135.35 110.46 150.44 110.50 165.52 C 125.46 162.37 139.32 154.33 149.49 142.91 C 136.52 135.30 123.49 127.80 110.48 120.27 Z" />
</g>
</svg>
