<?xml version="1.0" encoding="UTF-8" ?>
<!DOCTYPE svg PUBLIC "-//W3C//DTD SVG 1.1//EN" "http://www.w3.org/Graphics/SVG/1.1/DTD/svg11.dtd">
<svg width="192pt" height="192pt" viewBox="0 0 192 192" version="1.1" xmlns="http://www.w3.org/2000/svg">
<g id="#617080ff">
<path fill="#617080" opacity="1.00" d=" M 80.01 12.93 C 111.13 7.10 144.68 21.55 161.99 48.01 C 174.41 66.18 178.71 89.49 174.06 110.96 C 169.42 133.12 154.99 153.00 135.38 164.31 C 132.96 166.21 129.01 164.77 128.36 161.78 C 127.15 155.95 128.38 149.95 127.68 144.10 C 126.31 140.00 124.58 136.00 124.03 131.68 C 121.33 134.76 117.54 137.73 117.51 142.21 C 117.68 150.48 118.75 158.70 119.65 166.91 C 120.06 169.84 117.67 172.38 114.90 172.86 C 101.04 176.54 86.10 176.58 72.31 172.58 C 66.91 170.69 68.43 163.85 69.49 159.60 C 70.63 150.13 73.77 138.08 64.27 131.73 C 63.79 136.41 61.73 140.67 60.48 145.15 C 60.34 151.00 61.54 157.03 59.76 162.74 C 58.77 165.22 55.54 166.19 53.31 164.72 C 24.26 148.69 7.46 113.66 13.09 80.94 C 18.04 47.13 46.31 18.48 80.01 12.93 M 33.48 57.44 C 16.40 84.57 21.53 122.96 45.15 144.63 C 46.04 139.44 45.73 134.19 45.95 128.96 C 46.07 123.73 49.76 119.29 49.46 114.00 C 49.44 108.90 50.17 103.47 53.19 99.22 C 56.88 95.24 63.32 96.07 66.96 91.93 C 71.15 87.48 78.99 88.38 82.21 82.90 C 83.55 74.77 79.01 67.15 79.73 58.98 C 78.54 51.01 86.78 45.26 93.98 45.22 C 101.37 44.91 109.90 50.87 108.61 59.00 C 109.48 67.17 104.86 74.80 106.13 82.91 C 108.00 86.23 112.08 87.24 115.40 88.52 C 120.64 89.80 123.59 95.19 129.11 95.90 C 137.45 97.33 139.01 107.03 139.11 114.03 C 138.82 119.62 142.64 124.37 142.59 129.93 C 142.62 134.70 142.55 139.49 143.17 144.24 C 158.94 129.23 166.88 106.58 164.08 85.00 C 160.65 51.73 130.54 23.67 97.00 23.18 C 71.60 21.62 46.40 35.70 33.48 57.44 Z" />
</g>
</svg>
