<?xml version="1.0" encoding="UTF-8" ?>
<!DOCTYPE svg PUBLIC "-//W3C//DTD SVG 1.1//EN" "http://www.w3.org/Graphics/SVG/1.1/DTD/svg11.dtd">
<svg width="192pt" height="192pt" viewBox="0 0 192 192" version="1.1" xmlns="http://www.w3.org/2000/svg">
<g id="#18b7c5ff">
<path fill="#18b7c5" opacity="1.00" d=" M 39.32 22.40 C 42.82 21.60 46.43 21.72 50.00 21.72 C 82.33 21.78 114.66 21.66 146.99 21.77 C 159.31 21.70 170.19 32.68 170.14 44.97 C 170.24 78.99 170.18 113.00 170.17 147.01 C 170.49 159.44 159.58 170.89 147.07 170.73 C 112.69 170.75 78.31 170.75 43.93 170.69 C 31.56 170.73 20.72 159.39 21.14 147.05 C 21.14 113.01 21.12 78.97 21.17 44.92 C 21.07 34.40 29.08 24.62 39.32 22.40 M 41.31 33.42 C 36.30 34.81 32.26 39.62 32.36 44.93 C 32.30 78.97 32.35 113.01 32.34 147.05 C 32.01 153.84 38.19 159.86 44.94 159.57 C 78.64 159.61 112.35 159.58 146.05 159.56 C 152.89 159.94 159.10 153.93 158.92 147.08 C 159.00 113.36 158.96 79.64 158.94 45.93 C 159.38 38.96 153.08 32.44 146.04 33.10 C 111.15 33.19 76.14 32.10 41.31 33.42 Z" />
<path fill="#18b7c5" opacity="1.00" d=" M 95.69 60.82 C 97.41 54.68 105.01 55.10 110.07 55.17 C 114.68 54.91 119.65 56.74 121.11 61.53 C 121.41 59.44 120.83 55.63 123.99 55.69 C 131.32 55.53 138.67 55.45 145.99 55.73 C 149.35 56.12 148.61 60.53 148.20 62.90 C 146.08 65.25 142.50 63.99 139.71 64.36 C 139.42 73.32 140.27 82.36 139.31 91.26 C 136.76 93.10 129.93 93.55 130.04 89.05 C 129.87 80.80 130.12 72.55 129.91 64.30 C 127.56 64.28 125.21 64.30 122.87 64.25 C 122.29 63.48 121.72 62.71 121.15 61.94 C 121.00 64.08 121.75 66.55 120.40 68.42 C 116.43 70.72 110.21 69.23 111.09 63.68 C 109.12 63.58 107.15 63.48 105.18 63.45 C 103.08 72.85 118.30 67.58 120.92 75.12 C 122.17 80.30 123.13 87.76 118.13 91.25 C 112.84 93.47 106.62 93.07 101.10 91.94 C 94.87 90.80 92.61 77.12 101.02 78.64 C 104.76 77.71 105.68 81.52 105.86 84.36 C 107.90 84.37 109.95 84.35 112.00 84.27 C 111.95 82.64 111.90 81.01 111.85 79.38 C 106.91 77.65 101.07 77.57 97.00 74.00 C 94.36 70.24 94.92 65.11 95.69 60.82 Z" />
<path fill="#18b7c5" opacity="1.00" d=" M 51.76 58.94 C 51.53 54.36 58.97 54.63 61.15 57.09 C 61.84 63.69 61.23 70.37 61.46 77.00 C 61.34 81.34 62.09 86.44 58.94 89.95 C 55.35 92.83 50.32 92.44 45.99 92.30 C 41.90 92.45 42.23 87.03 43.46 84.44 C 45.95 83.23 48.84 83.76 51.52 83.44 C 51.97 75.28 51.50 67.10 51.76 58.94 Z" />
<path fill="#18b7c5" opacity="1.00" d=" M 64.52 57.43 C 66.23 54.38 74.25 54.40 74.00 58.98 C 74.41 67.22 73.80 75.49 74.33 83.74 C 77.04 83.95 79.94 84.70 82.54 83.55 C 83.64 75.75 82.70 67.80 83.00 59.94 C 81.47 53.71 94.17 53.74 92.69 59.95 C 92.40 68.66 93.36 77.48 92.12 86.12 C 90.53 93.39 81.70 92.91 75.94 92.72 C 70.81 93.14 64.82 90.39 64.58 84.61 C 64.08 75.58 64.14 66.46 64.52 57.43 Z" />
<path fill="#18b7c5" opacity="1.00" d=" M 37.53 99.35 C 36.66 94.68 43.65 95.56 46.34 96.72 C 48.65 102.19 49.06 108.26 50.72 113.94 C 52.05 109.10 53.11 104.19 54.43 99.35 C 54.87 94.76 63.12 94.50 64.05 98.83 C 65.52 103.57 66.31 108.48 67.85 113.20 C 69.43 108.63 70.17 103.84 71.32 99.15 C 71.69 94.73 79.84 94.57 81.24 98.06 C 79.36 108.47 76.42 118.69 74.14 129.03 C 73.59 133.99 66.56 133.53 63.48 131.49 C 61.38 126.75 60.83 121.48 59.25 116.56 C 57.90 121.48 57.21 126.63 55.29 131.38 C 52.19 133.75 44.76 133.86 44.41 128.65 C 42.16 118.87 39.67 109.15 37.53 99.35 Z" />
<path fill="#18b7c5" opacity="1.00" d=" M 84.28 96.26 C 86.94 95.75 92.31 94.95 92.30 98.99 C 92.40 109.66 92.59 120.37 92.21 131.04 C 90.19 133.93 82.13 133.88 82.66 129.03 C 82.59 119.69 82.65 110.34 82.56 100.99 C 82.73 99.34 82.26 96.93 84.28 96.26 Z" />
<path fill="#18b7c5" opacity="1.00" d=" M 95.69 99.96 C 94.95 95.11 101.41 95.22 104.34 96.71 C 107.83 101.65 109.97 107.43 112.89 112.73 C 113.20 107.62 112.47 102.40 113.38 97.35 C 115.78 94.75 123.53 94.93 122.70 99.92 C 122.48 110.39 123.21 120.97 122.34 131.39 C 120.28 133.58 114.24 133.71 112.82 130.25 C 110.27 125.49 107.88 120.65 105.43 115.84 C 105.33 120.89 105.74 125.97 105.25 131.01 C 103.46 133.67 97.75 133.62 95.89 130.99 C 95.37 120.67 95.78 110.30 95.69 99.96 Z" />
<path fill="#18b7c5" opacity="1.00" d=" M 125.93 99.93 C 125.22 95.01 132.34 94.98 135.02 97.04 C 136.50 101.05 135.40 105.65 135.70 109.89 C 136.50 109.90 138.09 109.93 138.89 109.94 C 140.90 105.55 141.60 100.43 144.47 96.53 C 147.10 95.81 151.80 94.82 153.09 98.07 C 151.84 103.64 149.19 108.77 147.38 114.17 C 149.27 120.25 153.50 125.81 153.51 132.33 C 150.67 132.54 147.61 133.34 144.90 132.13 C 142.20 128.03 141.08 123.12 139.01 118.69 C 138.18 118.69 136.54 118.68 135.72 118.68 C 135.42 123.11 136.46 127.76 135.03 132.04 C 132.29 132.93 127.85 133.81 126.08 130.89 C 125.65 120.59 125.96 110.25 125.93 99.93 Z" />
</g>
</svg>
