<?xml version="1.0" encoding="UTF-8" ?>
<!DOCTYPE svg PUBLIC "-//W3C//DTD SVG 1.1//EN" "http://www.w3.org/Graphics/SVG/1.1/DTD/svg11.dtd">
<svg width="192pt" height="192pt" viewBox="0 0 192 192" version="1.1" xmlns="http://www.w3.org/2000/svg">
<g id="#f35556ff">
<path fill="#f35556" opacity="1.00" d=" M 13.61 59.22 C 13.94 48.05 23.81 38.35 35.03 38.45 C 62.34 38.38 89.66 38.37 116.97 38.43 C 125.04 38.46 133.09 43.15 136.38 50.64 C 139.26 56.48 138.44 63.12 138.60 69.40 C 146.88 65.20 154.70 60.15 162.94 55.88 C 169.14 52.74 176.64 58.22 176.17 64.98 C 176.23 83.99 176.37 103.03 176.10 122.04 C 176.36 128.45 169.28 133.93 163.30 130.79 C 153.39 125.46 143.79 119.54 133.99 114.02 C 129.92 111.96 127.27 107.64 127.40 103.07 C 127.21 88.71 127.35 74.34 127.23 59.97 C 127.38 54.39 122.54 49.56 116.97 49.70 C 89.72 49.58 62.46 49.63 35.21 49.67 C 29.28 49.66 24.47 55.15 24.75 60.99 C 24.69 82.66 24.57 104.34 24.73 126.01 C 24.64 131.99 29.97 137.15 35.94 136.84 C 62.98 136.42 90.04 137.15 117.09 136.80 C 121.66 136.84 126.17 133.52 126.86 128.88 C 127.46 126.36 127.04 123.15 129.44 121.46 C 132.43 118.87 137.70 120.71 138.36 124.64 C 139.90 136.42 129.91 147.86 118.05 148.08 C 90.36 148.42 62.65 147.99 34.96 148.14 C 23.69 147.97 13.75 138.29 13.53 126.97 C 13.40 104.39 13.35 81.80 13.61 59.22 M 139.12 82.26 C 138.20 89.27 138.90 96.65 138.80 103.80 C 147.56 108.68 156.17 113.85 164.89 118.81 C 164.87 101.75 164.92 84.69 164.87 67.63 C 156.39 72.69 147.58 77.20 139.12 82.26 Z" />
<path fill="#f35556" opacity="1.00" d=" M 53.39 84.51 C 59.59 82.68 66.22 88.67 64.94 95.03 C 64.27 101.85 55.18 105.37 50.01 100.97 C 43.87 96.70 46.10 86.03 53.39 84.51 Z" />
<path fill="#f35556" opacity="1.00" d=" M 91.37 84.40 C 98.22 82.71 104.64 90.36 101.98 96.83 C 99.85 103.60 89.73 105.06 85.73 99.24 C 81.50 94.12 84.82 85.42 91.37 84.40 Z" />
</g>
</svg>
