<?xml version="1.0" encoding="UTF-8" ?>
<!DOCTYPE svg PUBLIC "-//W3C//DTD SVG 1.1//EN" "http://www.w3.org/Graphics/SVG/1.1/DTD/svg11.dtd">
<svg width="192pt" height="192pt" viewBox="0 0 192 192" version="1.1" xmlns="http://www.w3.org/2000/svg">
<g id="#978593ff">
<path fill="#978593" opacity="1.00" d=" M 77.25 27.07 C 77.70 20.21 88.94 21.10 88.38 27.98 C 88.51 70.99 88.43 114.00 88.45 157.00 C 88.86 160.71 85.89 164.64 82.01 164.52 C 69.66 164.63 57.30 164.59 44.94 164.52 C 33.19 164.43 22.90 153.80 23.07 142.07 C 23.09 127.39 22.88 112.70 23.20 98.04 C 23.69 91.93 33.57 91.91 34.16 98.00 C 34.59 112.67 34.16 127.39 34.37 142.07 C 34.28 148.15 39.91 153.50 45.97 153.17 C 56.33 153.19 66.69 153.18 77.06 153.15 C 77.20 111.12 76.95 69.09 77.25 27.07 Z" />
<path fill="#978593" opacity="1.00" d=" M 153.69 26.98 C 153.65 20.18 164.82 20.22 164.75 26.98 C 164.92 65.33 164.84 103.70 164.83 142.06 C 165.05 153.81 154.72 164.42 142.97 164.52 C 129.98 164.60 116.98 164.58 103.99 164.52 C 100.00 164.78 96.75 160.94 97.18 157.06 C 97.19 136.02 97.17 114.97 97.21 93.92 C 96.89 90.66 99.63 87.51 102.97 87.72 C 119.83 87.60 136.70 87.73 153.57 87.65 C 153.65 67.43 153.43 47.19 153.69 26.98 M 108.40 99.16 C 108.45 117.12 108.45 135.09 108.41 153.06 C 119.61 153.36 130.82 153.13 142.02 153.17 C 148.09 153.45 153.64 148.06 153.54 141.98 C 153.60 127.71 153.55 113.43 153.56 99.15 C 138.50 99.13 123.45 99.13 108.40 99.16 Z" />
</g>
</svg>
