<?xml version="1.0" encoding="UTF-8" ?>
<!DOCTYPE svg PUBLIC "-//W3C//DTD SVG 1.1//EN" "http://www.w3.org/Graphics/SVG/1.1/DTD/svg11.dtd">
<svg width="192pt" height="192pt" viewBox="0 0 192 192" version="1.1" xmlns="http://www.w3.org/2000/svg">
<g id="#47e470ff">
<path fill="#47e470" opacity="1.00" d=" M 20.08 41.93 C 19.89 29.70 30.77 18.66 43.02 18.76 C 52.35 18.78 61.70 18.59 71.02 18.84 C 76.82 19.17 77.40 28.53 71.73 29.61 C 62.16 30.19 52.54 29.54 42.96 29.90 C 36.77 30.15 31.15 35.64 31.29 41.93 C 31.25 75.97 31.28 110.02 31.28 144.07 C 31.06 150.43 36.66 156.27 43.03 156.30 C 77.00 156.38 110.98 156.30 144.95 156.33 C 151.66 156.72 157.82 150.79 157.65 144.07 C 157.65 109.72 157.81 75.35 157.58 40.99 C 156.82 30.73 144.90 28.27 136.56 30.10 C 136.60 43.07 136.63 56.04 136.56 69.01 C 137.07 73.39 131.51 76.88 127.93 74.12 C 123.03 70.28 118.54 65.90 113.79 61.86 C 108.74 65.73 104.34 70.41 99.26 74.25 C 95.62 76.48 90.41 73.41 90.89 69.06 C 90.89 54.03 90.75 38.98 90.96 23.95 C 90.84 17.69 100.92 16.95 101.91 23.04 C 102.51 34.28 102.01 45.59 102.15 56.85 C 106.29 54.06 109.40 48.07 115.01 48.75 C 119.03 50.54 121.78 54.26 125.26 56.87 C 125.36 45.91 125.19 34.94 125.33 23.98 C 125.15 20.95 127.99 18.41 130.97 18.75 C 136.65 18.76 142.35 18.55 148.03 18.90 C 159.44 19.92 168.97 30.47 168.82 41.93 C 168.88 75.97 168.87 110.02 168.83 144.05 C 169.18 156.35 158.35 167.47 146.06 167.52 C 111.69 167.59 77.32 167.57 42.94 167.52 C 30.60 167.53 19.77 156.38 20.06 144.05 C 20.04 110.01 20.02 75.97 20.08 41.93 Z" />
<path fill="#47e470" opacity="1.00" d=" M 61.89 92.89 C 65.16 93.22 69.70 91.36 72.10 94.12 C 72.75 106.04 72.20 118.04 72.38 129.99 C 72.28 134.90 71.90 141.40 66.73 143.73 C 61.15 145.94 54.90 145.51 49.03 145.15 C 46.36 143.61 47.28 139.39 47.89 136.87 C 51.32 133.86 58.87 138.37 60.88 132.89 C 62.03 119.62 60.03 106.06 61.89 92.89 Z" />
<path fill="#47e470" opacity="1.00" d=" M 77.85 92.96 C 81.53 93.28 88.33 90.61 89.20 95.85 C 91.58 106.17 93.77 116.52 96.18 126.83 C 98.88 116.86 101.18 106.79 103.72 96.77 C 103.95 90.94 114.88 90.89 115.30 96.62 C 117.84 106.68 120.20 116.79 122.83 126.83 C 125.71 115.85 127.40 104.53 130.65 93.67 C 133.49 91.74 137.76 93.04 141.15 92.95 C 138.57 109.99 133.63 126.78 129.64 143.59 C 126.33 146.55 116.59 147.12 116.10 140.87 C 113.99 132.06 111.74 123.27 109.60 114.47 C 106.72 124.16 105.00 134.19 101.97 143.83 C 98.22 146.44 88.75 147.09 88.46 140.62 C 85.15 124.70 80.09 109.03 77.85 92.96 Z" />
</g>
</svg>
