<?xml version="1.0" encoding="UTF-8" ?>
<!DOCTYPE svg PUBLIC "-//W3C//DTD SVG 1.1//EN" "http://www.w3.org/Graphics/SVG/1.1/DTD/svg11.dtd">
<svg width="192pt" height="192pt" viewBox="0 0 192 192" version="1.1" xmlns="http://www.w3.org/2000/svg">
<g id="#969c7aff">
<path fill="#969c7a" opacity="1.00" d=" M 65.36 17.49 C 85.92 9.80 109.55 10.14 129.49 19.52 C 131.88 20.73 131.53 24.08 129.44 25.41 C 109.64 41.97 90.13 58.89 70.06 75.12 C 68.63 77.05 65.02 76.86 65.30 73.93 C 65.21 55.12 65.30 36.30 65.36 17.49 M 83.37 23.48 C 80.60 23.88 76.77 24.69 76.48 28.11 C 76.26 34.36 76.29 40.63 76.46 46.89 C 76.50 49.64 80.25 51.05 82.20 49.20 C 90.07 42.77 97.82 36.18 105.61 29.65 C 108.06 28.17 107.78 24.04 104.94 23.23 C 97.83 21.97 90.48 22.40 83.37 23.48 Z" />
<path fill="#969c7a" opacity="1.00" d=" M 47.29 28.31 C 49.34 28.02 50.81 30.09 50.44 32.00 C 50.42 73.67 50.53 115.33 50.41 156.99 C 50.79 158.99 48.85 160.08 47.11 159.89 C 19.45 140.18 5.64 102.25 16.73 69.69 C 22.26 53.24 33.10 38.26 47.29 28.31 M 31.89 60.83 C 20.86 81.42 20.91 107.44 32.15 127.92 C 33.75 131.04 38.88 129.30 38.44 125.87 C 38.62 104.91 38.54 83.94 38.49 62.97 C 38.87 60.59 36.83 59.26 34.99 58.35 C 33.92 59.11 32.49 59.56 31.89 60.83 Z" />
<path fill="#969c7a" opacity="1.00" d=" M 144.39 31.41 C 145.89 30.13 147.82 30.67 149.08 31.97 C 160.94 42.18 169.83 55.89 174.02 70.99 C 175.84 76.40 166.68 79.85 164.56 74.55 C 160.86 64.66 156.39 54.74 149.11 46.93 C 146.89 44.78 143.87 46.10 141.96 47.94 C 125.19 62.18 108.18 76.16 91.43 90.42 C 88.97 92.18 89.19 95.69 91.61 97.37 C 108.39 111.59 125.32 125.66 142.17 139.81 C 144.07 141.71 147.40 142.68 149.48 140.48 C 156.22 133.24 160.30 124.07 163.86 114.97 C 165.53 110.55 173.30 109.71 174.23 115.00 C 170.26 131.01 160.68 145.58 148.02 156.09 C 146.12 157.98 143.82 156.03 142.27 154.75 C 119.26 135.42 96.10 116.25 73.12 96.89 C 70.21 94.82 72.04 91.04 74.46 89.46 C 97.88 70.25 120.84 50.44 144.39 31.41 Z" />
<path fill="#969c7a" opacity="1.00" d=" M 65.93 109.90 C 87.34 127.11 108.02 145.24 129.19 162.76 C 131.03 163.84 132.62 166.92 130.02 168.11 C 110.06 177.87 86.13 178.13 65.43 170.45 C 65.43 150.29 64.79 129.98 65.93 109.90 M 79.29 138.34 C 77.62 138.58 76.20 140.22 76.40 141.95 C 76.32 147.92 76.27 153.91 76.43 159.89 C 76.36 162.56 78.96 164.19 81.33 164.53 C 88.86 165.98 96.70 166.44 104.29 165.29 C 107.17 164.90 108.27 160.76 105.93 159.03 C 98.82 152.81 91.43 146.90 84.27 140.73 C 82.80 139.65 81.31 137.92 79.29 138.34 Z" />
</g>
</svg>
