<?xml version="1.0" encoding="UTF-8" ?>
<!DOCTYPE svg PUBLIC "-//W3C//DTD SVG 1.1//EN" "http://www.w3.org/Graphics/SVG/1.1/DTD/svg11.dtd">
<svg width="192pt" height="192pt" viewBox="0 0 192 192" version="1.1" xmlns="http://www.w3.org/2000/svg">
<g id="#ff3662ff">
<path fill="#ff3662" opacity="1.00" d=" M 22.08 43.96 C 21.88 31.71 32.77 20.66 45.03 20.76 C 54.36 20.77 63.70 20.60 73.02 20.83 C 78.81 21.19 79.39 30.50 73.73 31.62 C 64.16 32.16 54.55 31.55 44.97 31.89 C 38.77 32.12 33.15 37.63 33.29 43.93 C 33.24 77.97 33.27 112.02 33.28 146.07 C 33.03 152.81 39.29 158.79 46.01 158.33 C 79.67 158.33 113.33 158.33 146.98 158.32 C 153.68 158.72 159.82 152.77 159.65 146.08 C 159.65 111.70 159.81 77.32 159.58 42.95 C 158.78 32.73 146.86 30.20 138.53 32.17 C 138.63 45.11 138.60 58.05 138.56 70.98 C 139.08 75.36 133.54 78.85 129.95 76.14 C 125.07 72.28 120.55 67.96 115.86 63.88 C 110.70 67.64 106.38 72.43 101.26 76.24 C 97.62 78.51 92.41 75.38 92.89 71.05 C 92.96 55.71 92.60 40.33 93.07 25.01 C 93.97 19.39 102.98 19.45 103.91 25.02 C 104.49 36.28 104.00 47.59 104.15 58.86 C 108.06 56.13 110.95 50.99 116.03 50.60 C 120.69 51.66 123.40 56.21 127.23 58.77 C 127.39 47.83 127.18 36.89 127.33 25.95 C 127.17 22.95 130.01 20.36 132.99 20.74 C 138.66 20.78 144.34 20.54 150.00 20.90 C 161.44 21.90 170.98 32.48 170.82 43.96 C 170.88 77.99 170.87 112.02 170.83 146.04 C 171.18 158.34 160.35 169.46 148.07 169.51 C 113.69 169.58 79.31 169.56 44.93 169.51 C 32.59 169.51 21.76 158.36 22.06 146.03 C 22.04 112.01 22.02 77.98 22.08 43.96 Z" />
</g>
</svg>
