<?xml version="1.0" encoding="UTF-8" ?>
<!DOCTYPE svg PUBLIC "-//W3C//DTD SVG 1.1//EN" "http://www.w3.org/Graphics/SVG/1.1/DTD/svg11.dtd">
<svg width="192pt" height="192pt" viewBox="0 0 192 192" version="1.1" xmlns="http://www.w3.org/2000/svg">
<g id="#18b8c5ff">
<path fill="#18b8c5" opacity="1.00" d=" M 84.07 19.16 C 91.00 14.72 100.53 14.95 107.18 19.81 C 124.99 32.31 142.78 44.84 160.58 57.37 C 166.38 61.20 170.02 68.01 169.85 74.97 C 169.88 100.33 169.60 125.68 169.72 151.04 C 170.09 163.30 159.33 174.44 147.07 174.52 C 112.69 174.60 78.31 174.58 43.93 174.51 C 31.65 174.46 20.88 163.31 21.24 151.04 C 21.33 130.03 21.14 109.02 21.17 88.02 C 21.51 81.73 31.75 81.70 32.17 87.99 C 32.66 109.32 32.17 130.68 32.44 152.02 C 32.70 158.38 38.69 163.70 45.02 163.38 C 78.67 163.40 112.33 163.40 145.98 163.35 C 152.61 163.64 158.73 157.75 158.53 151.08 C 158.57 126.03 158.55 100.99 158.62 75.94 C 158.84 72.37 157.32 68.73 154.27 66.74 C 136.52 54.19 118.72 41.68 100.94 29.17 C 97.78 26.72 93.12 26.60 89.82 28.84 C 83.85 32.60 77.95 36.45 71.98 40.20 C 70.60 40.68 71.62 42.09 72.32 42.62 C 85.85 56.11 99.34 69.65 112.88 83.12 C 115.04 85.30 117.98 87.54 117.63 90.99 C 117.59 110.95 117.81 130.92 117.53 150.87 C 117.09 157.10 106.91 157.12 106.47 150.86 C 106.12 131.90 106.46 112.90 106.33 93.93 C 106.54 92.48 105.22 91.55 104.41 90.57 C 89.91 76.17 75.54 61.63 61.03 47.25 C 52.90 52.49 44.68 57.59 36.63 62.94 C 50.40 77.30 64.79 91.08 78.72 105.29 C 80.91 107.26 80.45 110.36 80.51 113.00 C 80.37 125.66 80.67 138.34 80.37 151.00 C 79.84 157.16 69.82 157.02 69.35 150.90 C 69.06 137.91 69.28 124.90 69.27 111.91 C 55.62 97.83 41.60 84.13 27.78 70.23 C 25.65 68.00 22.45 65.67 23.26 62.14 C 24.51 57.97 28.11 54.98 31.64 52.69 C 49.14 41.54 66.57 30.30 84.07 19.16 Z" />
</g>
</svg>
