<?xml version="1.0" encoding="UTF-8" ?>
<!DOCTYPE svg PUBLIC "-//W3C//DTD SVG 1.1//EN" "http://www.w3.org/Graphics/SVG/1.1/DTD/svg11.dtd">
<svg width="192pt" height="192pt" viewBox="0 0 192 192" version="1.1" xmlns="http://www.w3.org/2000/svg">
<g id="#18aeffff">
<path fill="#18aeff" opacity="1.00" d=" M 30.36 24.33 C 38.37 17.39 51.15 16.84 59.58 23.37 C 65.24 27.25 67.67 34.37 67.46 41.01 C 67.36 51.61 67.69 62.22 67.39 72.83 C 85.37 57.67 102.95 42.04 120.86 26.81 C 126.85 21.62 135.00 17.51 143.08 19.80 C 153.50 22.29 159.55 34.85 155.83 44.71 C 154.04 49.23 150.92 53.20 147.03 56.11 C 136.79 64.20 126.56 72.29 116.29 80.33 C 130.94 98.73 146.57 116.38 160.96 135.00 C 166.72 142.78 165.91 154.31 159.39 161.39 C 154.16 167.47 145.19 170.24 137.55 167.48 C 130.37 165.02 125.33 158.94 121.00 153.01 C 111.37 140.69 100.73 129.20 90.91 117.05 C 87.34 112.17 94.70 105.76 99.01 110.06 C 110.56 123.51 122.36 136.79 133.18 150.84 C 136.26 154.56 140.71 158.58 145.95 157.32 C 152.77 155.81 156.49 146.64 151.88 141.10 C 136.82 121.91 120.88 103.43 105.42 84.57 C 102.73 81.65 103.15 76.71 106.36 74.35 C 116.51 66.16 126.85 58.20 137.05 50.07 C 140.00 47.71 143.34 45.53 145.06 42.03 C 147.78 37.51 144.47 30.35 139.00 30.15 C 134.75 29.79 131.17 32.55 128.01 35.00 C 107.97 52.28 87.97 69.60 67.94 86.89 C 64.28 90.50 57.44 88.03 56.73 83.00 C 56.40 67.82 56.96 52.60 56.35 37.44 C 54.57 26.47 34.64 27.21 35.00 38.95 C 34.69 73.96 35.03 108.97 34.88 143.99 C 34.96 147.55 34.61 151.83 37.64 154.37 C 43.12 159.02 54.09 157.99 56.15 150.22 C 57.84 139.47 54.95 128.12 57.71 117.61 C 63.81 110.42 72.30 105.55 79.45 99.41 C 84.07 95.45 91.06 102.42 87.00 107.05 C 80.81 112.56 73.99 117.36 67.59 122.63 C 67.26 131.73 67.80 140.87 67.31 149.98 C 66.40 159.01 58.84 166.86 49.73 167.69 C 38.04 170.21 24.20 161.78 24.17 149.08 C 24.12 113.06 24.13 77.03 24.08 41.00 C 23.97 34.96 25.65 28.42 30.36 24.33 Z" />
</g>
</svg>
