<?xml version="1.0" encoding="UTF-8" ?>
<!DOCTYPE svg PUBLIC "-//W3C//DTD SVG 1.1//EN" "http://www.w3.org/Graphics/SVG/1.1/DTD/svg11.dtd">
<svg width="192pt" height="192pt" viewBox="0 0 192 192" version="1.1" xmlns="http://www.w3.org/2000/svg">
<g id="#ff603cff">
<path fill="#ff603c" opacity="1.00" d=" M 34.07 23.91 C 33.70 20.45 36.30 16.80 39.95 16.80 C 51.31 16.67 62.69 16.73 74.05 16.77 C 76.96 16.54 79.59 19.10 79.53 21.99 C 79.69 36.58 79.48 51.17 79.63 65.76 C 88.41 50.43 96.91 34.94 105.67 19.61 C 106.64 17.64 108.81 16.58 110.96 16.75 C 123.65 16.78 136.34 16.60 149.02 16.83 C 153.38 16.97 155.13 22.45 152.69 25.68 C 140.39 48.19 127.67 70.47 115.22 92.90 C 127.97 115.75 140.78 138.59 153.59 161.38 C 154.83 165.07 152.07 169.54 148.02 169.48 C 135.68 169.64 123.33 169.45 110.99 169.47 C 106.84 169.85 105.21 165.47 103.40 162.60 C 97.77 152.25 91.73 142.11 86.41 131.61 C 84.31 126.46 92.11 122.20 95.35 126.64 C 101.69 137.14 107.30 148.08 113.40 158.73 C 122.24 159.00 131.09 158.76 139.93 158.92 C 128.71 138.58 117.26 118.36 105.93 98.08 C 103.98 95.00 103.90 91.00 105.86 87.90 C 117.09 67.70 128.50 47.60 139.65 27.35 C 130.90 27.40 122.15 27.35 113.40 27.38 C 101.89 47.87 90.42 68.39 78.81 88.83 C 76.75 93.19 69.48 91.82 69.11 87.06 C 68.75 67.17 69.26 47.25 68.90 27.35 C 60.81 27.39 52.72 27.34 44.63 27.38 C 44.63 71.08 44.62 114.79 44.65 158.49 C 52.75 158.52 60.85 158.44 68.95 158.45 C 69.03 141.28 68.80 124.10 69.10 106.94 C 69.46 101.03 79.12 101.07 79.42 107.00 C 79.69 125.67 79.47 144.35 79.53 163.02 C 79.90 166.18 77.34 169.27 74.09 169.14 C 63.04 169.27 51.98 169.20 40.93 169.18 C 37.01 169.50 33.66 165.97 34.05 162.09 C 34.02 116.03 34.05 69.97 34.07 23.91 Z" />
</g>
</svg>
