<?xml version="1.0" encoding="UTF-8" ?>
<!DOCTYPE svg PUBLIC "-//W3C//DTD SVG 1.1//EN" "http://www.w3.org/Graphics/SVG/1.1/DTD/svg11.dtd">
<svg width="192pt" height="192pt" viewBox="0 0 192 192" version="1.1" xmlns="http://www.w3.org/2000/svg">
<g id="#f6b32eff">
<path fill="#f6b32e" opacity="1.00" d=" M 64.55 44.99 C 63.50 25.38 84.41 10.31 102.93 14.22 C 116.56 16.29 128.71 27.86 129.63 41.92 C 129.90 52.19 129.61 62.47 129.78 72.75 C 139.73 80.21 149.15 90.52 150.41 103.43 C 151.76 115.86 149.89 129.16 142.79 139.70 C 136.36 149.21 124.48 154.95 113.03 153.27 C 108.30 152.39 104.52 148.59 103.50 143.92 C 96.58 152.53 83.80 156.44 73.69 151.25 C 64.86 146.89 61.52 136.21 62.12 126.96 C 62.37 112.33 69.53 96.70 83.32 90.29 C 92.64 86.01 104.65 87.44 111.89 95.03 C 112.34 93.09 112.79 91.14 113.25 89.20 C 116.97 89.19 120.69 89.17 124.41 89.20 C 121.18 104.82 117.25 120.30 114.21 135.97 C 113.77 138.40 113.18 142.11 116.07 143.28 C 123.52 144.34 130.72 139.72 134.65 133.62 C 140.12 125.13 141.66 114.52 140.42 104.63 C 134.41 85.38 114.06 72.13 94.05 73.69 C 73.05 74.73 54.49 91.91 51.66 112.71 C 48.59 131.35 58.55 151.00 75.17 159.84 C 89.79 167.90 108.83 167.16 122.57 157.60 C 124.80 156.18 127.09 153.80 129.99 154.77 C 134.15 155.61 135.78 161.69 132.33 164.30 C 119.01 175.00 100.66 179.00 84.06 175.00 C 67.02 171.14 52.24 158.86 45.11 142.94 C 36.55 124.33 38.94 100.92 52.07 85.00 C 67.23 65.49 95.65 57.53 118.64 66.67 C 118.54 58.50 118.81 50.33 118.52 42.17 C 117.53 32.92 108.99 25.97 100.04 24.98 C 88.39 23.08 75.40 32.03 75.47 44.40 C 75.79 51.00 65.00 51.50 64.55 44.99 M 84.72 101.72 C 75.57 110.29 72.23 124.52 75.49 136.46 C 79.15 146.92 94.35 144.59 99.48 136.54 C 106.34 127.36 106.18 115.26 109.45 104.66 C 103.62 97.63 91.76 94.98 84.72 101.72 Z" />
</g>
</svg>
