<?xml version="1.0" encoding="UTF-8" ?>
<!DOCTYPE svg PUBLIC "-//W3C//DTD SVG 1.1//EN" "http://www.w3.org/Graphics/SVG/1.1/DTD/svg11.dtd">
<svg width="192pt" height="192pt" viewBox="0 0 192 192" version="1.1" xmlns="http://www.w3.org/2000/svg">
<g id="#47e470ff">
<path fill="#47e470" opacity="1.00" d=" M 88.35 14.46 C 102.01 11.35 117.04 17.75 124.37 29.64 C 132.60 42.14 131.15 59.99 120.95 70.96 C 111.48 81.88 94.73 85.58 81.60 79.42 C 68.51 73.72 60.00 59.21 61.47 45.00 C 62.52 30.38 73.99 17.34 88.35 14.46 M 90.39 25.56 C 78.44 28.00 70.20 41.06 73.08 52.90 C 75.36 64.77 88.02 73.33 99.89 70.68 C 112.57 68.51 121.38 54.49 117.72 42.12 C 114.88 30.43 102.08 22.69 90.39 25.56 Z" />
<path fill="#47e470" opacity="1.00" d=" M 13.57 82.58 C 14.34 80.21 16.56 78.42 19.03 78.10 C 53.68 77.42 84.96 103.17 95.29 135.53 C 104.74 106.23 130.90 82.31 161.91 78.63 C 167.14 77.96 175.30 76.26 177.18 83.02 C 180.54 113.46 166.55 145.75 140.82 162.80 C 115.12 180.00 79.57 181.29 53.16 164.89 C 25.22 148.39 9.74 114.52 13.57 82.58 M 126.89 106.87 C 110.52 121.37 101.98 143.21 102.29 164.89 C 116.74 163.26 130.90 157.52 141.80 147.79 C 158.07 133.21 167.21 111.16 166.32 89.36 C 151.81 91.03 137.61 96.82 126.89 106.87 M 24.41 89.44 C 23.29 112.72 33.77 136.49 52.41 150.67 C 62.61 158.66 75.11 163.51 87.97 164.94 C 90.28 128.51 61.51 92.12 24.41 89.44 Z" />
</g>
</svg>
