<?xml version="1.0" encoding="UTF-8" ?>
<!DOCTYPE svg PUBLIC "-//W3C//DTD SVG 1.1//EN" "http://www.w3.org/Graphics/SVG/1.1/DTD/svg11.dtd">
<svg width="192pt" height="192pt" viewBox="0 0 192 192" version="1.1" xmlns="http://www.w3.org/2000/svg">
<g id="#ff3661ff">
<path fill="#ff3661" opacity="1.00" d=" M 54.30 17.35 C 79.78 15.92 105.44 17.15 130.99 16.72 C 143.84 15.82 155.95 27.00 155.78 39.92 C 155.82 76.64 155.81 113.36 155.80 150.07 C 156.05 162.34 145.23 173.40 132.97 173.51 C 108.32 173.59 83.67 173.58 59.02 173.51 C 46.71 173.44 35.89 162.37 36.06 150.08 C 36.03 113.36 36.03 76.64 36.08 39.92 C 36.07 29.39 44.06 19.63 54.30 17.35 M 47.36 39.92 C 47.28 76.64 47.30 113.36 47.35 150.07 C 47.25 155.99 52.13 161.41 57.97 162.10 C 62.01 162.49 66.09 162.19 70.14 162.24 C 70.30 126.54 69.96 90.82 70.33 55.13 C 71.08 48.74 81.60 49.50 81.41 55.97 C 81.55 91.36 81.48 126.75 81.45 162.13 C 98.31 162.40 115.17 162.20 132.03 162.23 C 138.62 162.44 144.68 156.60 144.54 149.97 C 144.59 113.63 144.55 77.29 144.57 40.95 C 145.03 34.14 138.97 27.64 132.06 28.11 C 108.36 28.29 84.67 27.88 60.98 27.93 C 54.16 27.38 47.31 32.89 47.36 39.92 Z" />
</g>
</svg>
