<?xml version="1.0" encoding="UTF-8" ?>
<!DOCTYPE svg PUBLIC "-//W3C//DTD SVG 1.1//EN" "http://www.w3.org/Graphics/SVG/1.1/DTD/svg11.dtd">
<svg width="192pt" height="192pt" viewBox="0 0 192 192" version="1.1" xmlns="http://www.w3.org/2000/svg">
<g id="#45e371ff">
<path fill="#45e371" opacity="1.00" d=" M 45.59 20.50 C 61.52 12.25 82.50 15.34 94.96 28.41 C 109.19 13.90 133.69 11.78 150.02 23.98 C 166.48 35.34 171.94 59.46 161.78 76.74 C 157.83 84.16 151.09 89.42 145.32 95.35 C 152.14 102.40 160.20 108.80 163.83 118.25 C 171.79 136.04 164.17 158.71 147.45 168.52 C 131.16 178.72 108.27 176.16 94.90 162.26 C 84.91 172.84 69.19 176.92 55.14 173.77 C 37.61 169.71 23.30 153.28 23.18 135.04 C 23.05 109.02 23.14 82.99 23.15 56.97 C 23.24 41.93 32.01 27.17 45.59 20.50 M 60.39 27.51 C 46.34 29.14 34.86 41.80 34.51 55.92 C 34.38 81.96 34.46 108.01 34.47 134.05 C 34.13 150.72 50.46 165.26 66.95 163.40 C 76.40 163.16 84.69 157.61 90.42 150.41 C 94.72 146.33 99.98 150.58 102.91 154.10 C 113.74 166.02 133.93 166.45 145.73 155.75 C 155.27 147.44 158.51 132.65 152.77 121.27 C 148.42 112.38 139.90 106.75 133.44 99.55 C 131.27 97.10 131.55 93.14 133.78 90.83 C 138.57 85.94 143.65 81.33 148.32 76.32 C 156.32 67.41 158.03 53.42 152.04 42.98 C 144.73 28.87 125.37 23.14 111.39 30.46 C 106.59 32.70 102.96 36.63 99.16 40.18 C 95.99 43.07 90.89 41.76 88.61 38.40 C 82.04 29.95 70.91 25.88 60.39 27.51 Z" />
</g>
</svg>
