<?xml version="1.0" encoding="UTF-8" ?>
<!DOCTYPE svg PUBLIC "-//W3C//DTD SVG 1.1//EN" "http://www.w3.org/Graphics/SVG/1.1/DTD/svg11.dtd">
<svg width="192pt" height="192pt" viewBox="0 0 192 192" version="1.1" xmlns="http://www.w3.org/2000/svg">
<g id="#2abaa2ff">
<path fill="#2abaa2" opacity="1.00" d=" M 60.30 17.35 C 81.10 16.09 102.11 17.15 122.99 16.79 C 130.29 16.20 137.20 22.58 137.00 29.94 C 137.23 49.63 137.03 69.34 137.10 89.03 C 137.33 93.79 134.90 98.35 131.04 101.07 C 121.32 108.35 111.63 115.68 101.87 122.89 C 97.36 126.37 90.63 126.39 86.10 122.93 C 76.33 115.70 66.68 108.31 56.89 101.10 C 53.06 98.35 50.68 93.73 50.75 89.00 C 50.94 69.33 50.65 49.66 50.92 29.99 C 50.78 24.27 54.88 18.97 60.30 17.35 M 62.46 28.46 C 62.06 49.20 62.32 69.96 62.33 90.71 C 71.65 98.10 81.38 104.98 90.81 112.24 C 92.17 113.09 93.86 115.00 95.41 113.40 C 105.51 105.88 115.61 98.35 125.58 90.66 C 125.67 71.09 125.62 51.51 125.61 31.94 C 125.40 30.67 126.02 28.10 123.93 28.33 C 103.44 28.31 82.93 28.02 62.46 28.46 Z" />
<path fill="#2abaa2" opacity="1.00" d=" M 30.45 39.70 C 34.94 39.57 41.00 37.67 44.31 41.68 C 47.34 45.43 43.70 51.35 39.01 50.60 C 34.96 50.23 28.63 50.47 28.61 55.97 C 28.50 88.31 28.59 120.66 28.61 153.01 C 28.25 156.58 31.44 159.47 34.93 159.03 C 74.31 159.03 113.68 158.98 153.06 158.99 C 156.50 159.52 159.59 156.42 159.26 153.01 C 159.28 120.66 159.40 88.31 159.23 55.97 C 159.03 50.12 152.31 50.55 148.12 50.59 C 142.85 50.69 140.74 42.85 145.25 40.22 C 155.51 36.14 169.47 42.38 170.59 54.14 C 170.90 87.11 170.64 120.09 170.77 153.06 C 171.22 162.17 163.16 170.54 154.06 170.50 C 114.02 170.56 73.98 170.50 33.94 170.48 C 24.82 170.60 16.74 162.15 17.19 153.05 C 17.21 120.68 17.19 88.31 17.25 55.94 C 17.17 48.34 23.12 41.35 30.45 39.70 Z" />
<path fill="#2abaa2" opacity="1.00" d=" M 89.30 47.39 C 99.30 44.06 110.74 52.55 110.83 62.97 C 111.55 72.20 103.20 80.83 94.00 80.63 C 85.10 80.89 77.05 72.88 77.03 64.02 C 76.76 56.56 82.15 49.40 89.30 47.39 Z" />
<path fill="#2abaa2" opacity="1.00" d=" M 58.20 133.21 C 79.41 132.37 100.75 133.18 122.01 132.77 C 125.54 132.96 130.22 131.89 132.49 135.41 C 135.00 138.84 132.33 144.33 128.04 144.29 C 105.35 144.37 82.64 144.37 59.95 144.28 C 53.95 144.37 52.47 134.97 58.20 133.21 Z" />
</g>
</svg>
