<?xml version="1.0" encoding="UTF-8" ?>
<!DOCTYPE svg PUBLIC "-//W3C//DTD SVG 1.1//EN" "http://www.w3.org/Graphics/SVG/1.1/DTD/svg11.dtd">
<svg width="192pt" height="192pt" viewBox="0 0 192 192" version="1.1" xmlns="http://www.w3.org/2000/svg">
<g id="#ff517dff">
<path fill="#ff517d" opacity="1.00" d=" M 87.38 15.50 C 113.37 9.85 140.74 30.77 142.40 57.23 C 142.36 71.61 143.99 86.15 149.34 99.60 C 151.54 103.39 148.53 108.66 144.05 108.23 C 112.02 108.26 79.98 108.27 47.95 108.22 C 43.86 108.66 40.45 104.08 42.28 100.32 C 47.26 87.48 49.59 73.70 49.31 59.94 C 49.57 38.61 66.38 19.09 87.38 15.50 M 60.97 55.57 C 72.39 54.23 83.32 49.52 92.24 42.29 C 94.53 40.10 98.07 40.69 100.22 42.74 C 108.96 49.80 119.72 54.18 130.85 55.59 C 128.29 39.11 112.81 25.61 96.00 26.09 C 79.14 25.53 63.53 39.01 60.97 55.57 M 60.97 66.91 C 63.19 84.16 79.74 97.80 97.07 96.93 C 113.59 96.62 128.65 83.32 130.87 66.92 C 118.32 65.69 106.20 61.02 95.94 53.72 C 85.63 60.96 73.54 65.68 60.97 66.91 M 57.73 88.55 C 56.97 91.33 56.20 94.10 55.37 96.86 C 58.72 96.94 62.07 96.95 65.41 96.89 C 62.62 94.33 60.12 91.48 57.73 88.55 M 126.35 96.84 C 129.70 96.89 133.05 96.94 136.40 96.95 C 135.61 94.14 134.84 91.33 134.09 88.51 C 131.78 91.52 129.24 94.36 126.35 96.84 Z" />
<path fill="#ff517d" opacity="1.00" d=" M 44.75 137.70 C 48.42 127.25 58.86 119.65 69.94 119.43 C 86.98 119.36 104.03 119.40 121.07 119.40 C 132.79 119.27 143.89 127.45 147.43 138.59 C 150.73 148.74 154.36 158.80 157.41 169.03 C 158.85 174.85 149.88 178.10 147.14 172.87 C 143.08 162.36 140.10 151.42 136.19 140.84 C 133.75 134.82 127.48 130.71 121.01 130.68 C 104.34 130.65 87.66 130.65 70.99 130.67 C 63.96 130.59 57.25 135.40 55.13 142.12 C 52.69 149.45 50.17 156.77 47.88 164.16 C 69.22 164.35 90.57 163.94 111.89 164.34 C 117.99 164.84 118.17 174.81 112.02 175.41 C 88.36 175.74 64.67 175.45 40.99 175.54 C 36.83 176.24 33.06 171.81 34.71 167.87 C 38.00 157.79 41.34 147.73 44.75 137.70 Z" />
</g>
</svg>
