<?xml version="1.0" encoding="UTF-8" ?>
<!DOCTYPE svg PUBLIC "-//W3C//DTD SVG 1.1//EN" "http://www.w3.org/Graphics/SVG/1.1/DTD/svg11.dtd">
<svg width="192pt" height="192pt" viewBox="0 0 192 192" version="1.1" xmlns="http://www.w3.org/2000/svg">
<g id="#ff565fff">
<path fill="#ff565f" opacity="1.00" d=" M 15.14 38.07 C 34.07 37.43 53.05 38.01 72.00 37.78 C 74.92 37.91 78.92 37.27 80.50 40.44 C 84.37 47.62 89.72 54.12 92.06 62.03 C 93.66 69.06 88.71 75.13 85.35 80.79 C 81.03 72.74 76.81 64.64 72.47 56.59 C 70.90 53.45 67.51 51.50 64.01 51.62 C 56.33 51.66 48.65 51.56 40.98 51.81 C 37.52 51.67 35.42 55.83 37.37 58.63 C 47.27 78.72 57.18 98.82 67.17 118.86 C 68.61 122.72 74.40 122.63 75.69 118.70 C 87.75 93.35 99.33 67.75 111.46 42.42 C 112.99 38.58 117.25 37.45 121.01 37.73 C 139.94 37.92 158.92 37.35 177.82 38.17 C 178.04 43.30 175.44 47.85 173.33 52.34 C 158.81 83.14 144.29 113.94 129.76 144.73 C 128.31 147.54 126.97 150.83 123.97 152.29 C 120.33 153.34 117.28 150.24 115.63 147.37 C 111.93 140.71 108.45 133.92 104.82 127.21 C 102.72 122.97 100.38 118.25 101.58 113.40 C 102.82 108.69 105.69 104.67 108.12 100.53 C 111.82 107.57 115.48 114.63 119.54 121.46 C 120.86 124.00 124.87 123.32 125.69 120.71 C 135.81 100.08 146.13 79.53 155.78 58.67 C 157.69 55.79 155.62 51.58 152.06 51.77 C 144.03 51.77 135.98 51.37 127.97 51.89 C 123.26 52.30 120.29 56.43 118.53 60.40 C 105.22 88.82 91.94 117.25 78.66 145.69 C 77.03 149.27 73.50 153.29 69.12 152.08 C 64.91 149.35 63.60 144.06 61.16 139.93 C 46.25 108.71 31.78 77.28 17.03 45.99 C 15.77 43.53 15.01 40.85 15.14 38.07 Z" />
</g>
</svg>
