<?xml version="1.0" encoding="UTF-8" ?>
<!DOCTYPE svg PUBLIC "-//W3C//DTD SVG 1.1//EN" "http://www.w3.org/Graphics/SVG/1.1/DTD/svg11.dtd">
<svg width="192pt" height="192pt" viewBox="0 0 192 192" version="1.1" xmlns="http://www.w3.org/2000/svg">
<g id="#b39c73ff">
<path fill="#b39c73" opacity="1.00" d=" M 43.23 22.88 C 41.71 16.12 50.15 10.30 55.93 14.13 C 63.27 19.42 70.24 25.22 77.40 30.75 C 81.71 25.92 85.65 20.77 89.92 15.92 C 93.15 12.02 99.80 12.07 102.97 16.02 C 107.15 20.85 111.13 25.85 115.28 30.71 C 122.63 25.28 129.55 19.27 137.02 14.01 C 142.75 10.45 150.87 16.02 149.65 22.64 C 146.27 36.71 141.79 50.53 138.66 64.68 C 136.87 73.14 128.61 79.30 120.04 79.12 C 103.68 79.06 87.29 79.33 70.93 78.98 C 62.03 78.54 54.75 71.04 53.60 62.36 C 50.63 49.08 46.42 36.10 43.23 22.88 M 96.20 25.90 C 91.85 31.31 87.36 36.61 82.91 41.94 C 81.11 44.36 77.34 45.13 74.96 43.09 C 68.76 38.57 62.99 33.46 56.68 29.08 C 59.20 39.78 62.58 50.26 64.91 61.00 C 65.39 64.90 68.97 68.00 72.93 67.71 C 88.65 67.73 104.37 67.75 120.09 67.69 C 123.59 67.83 126.98 65.35 127.64 61.86 C 130.10 50.79 133.51 39.96 136.13 28.93 C 130.03 33.52 124.14 38.40 118.02 42.98 C 115.88 44.85 112.35 44.66 110.48 42.50 C 105.51 37.15 101.34 31.09 96.20 25.90 Z" />
<path fill="#b39c73" opacity="1.00" d=" M 28.40 50.44 C 33.35 47.16 39.30 54.12 35.63 58.64 C 17.16 87.90 24.70 129.81 52.22 150.79 C 78.95 172.94 121.76 170.94 146.11 146.12 C 166.50 126.96 173.23 95.20 162.74 69.32 C 161.19 64.67 158.06 60.71 156.67 56.02 C 156.33 50.96 163.70 48.15 166.57 52.44 C 184.02 79.65 182.48 117.33 163.28 143.27 C 145.23 168.86 111.73 182.26 81.03 175.91 C 59.19 171.77 39.36 158.30 27.41 139.57 C 10.17 113.32 9.53 75.85 28.40 50.44 Z" />
<path fill="#b39c73" opacity="1.00" d=" M 103.10 96.16 C 111.34 89.95 120.47 84.00 130.96 82.82 C 134.33 93.79 134.11 106.27 130.23 117.13 C 127.23 124.67 119.56 131.31 111.03 129.99 C 104.72 129.15 100.21 124.36 96.03 120.01 C 94.04 129.12 83.04 135.30 74.60 130.47 C 62.92 123.15 57.50 107.73 60.89 94.57 C 69.56 95.91 77.74 99.55 86.39 101.18 C 83.63 105.28 83.05 112.34 88.12 114.85 C 93.64 114.39 93.05 106.33 90.20 103.08 C 95.68 103.70 99.14 99.04 103.10 96.16 M 108.16 96.00 C 103.92 100.75 104.33 111.09 111.02 113.20 C 118.85 111.48 117.09 94.65 108.16 96.00 Z" />
</g>
</svg>
