<?xml version="1.0" encoding="UTF-8" ?>
<!DOCTYPE svg PUBLIC "-//W3C//DTD SVG 1.1//EN" "http://www.w3.org/Graphics/SVG/1.1/DTD/svg11.dtd">
<svg width="192pt" height="192pt" viewBox="0 0 192 192" version="1.1" xmlns="http://www.w3.org/2000/svg">
<g id="#ff8226ff">
<path fill="#ff8226" opacity="1.00" d=" M 66.05 38.04 C 67.52 36.30 69.75 35.60 71.97 35.73 C 103.66 35.77 135.34 35.65 167.02 35.78 C 173.27 35.73 178.72 41.76 177.84 47.99 C 177.65 53.19 172.94 56.28 169.72 59.72 C 157.80 71.83 145.33 83.44 133.73 95.85 C 147.59 109.79 161.65 123.55 175.42 137.56 C 181.08 143.83 176.50 155.22 168.03 155.67 C 137.03 155.91 106.02 155.69 75.02 155.72 C 72.25 155.68 68.92 156.65 66.79 154.30 C 50.62 138.10 34.31 122.04 18.15 105.84 C 12.69 100.42 12.82 90.71 18.41 85.43 C 34.28 69.62 50.18 53.85 66.05 38.04 M 26.86 92.93 C 24.74 94.41 25.06 97.48 27.08 98.89 C 41.61 113.28 55.98 127.85 70.66 142.08 C 102.37 110.23 134.63 78.93 166.36 47.09 C 135.20 47.03 104.07 47.08 72.92 47.11 C 57.52 62.33 42.21 77.65 26.86 92.93 M 125.47 103.87 C 111.90 117.45 98.29 130.98 84.64 144.47 C 111.93 144.61 139.23 144.48 166.52 144.51 C 152.83 130.98 139.52 117.00 125.47 103.87 Z" />
</g>
</svg>
