<?xml version="1.0" encoding="UTF-8" ?>
<!DOCTYPE svg PUBLIC "-//W3C//DTD SVG 1.1//EN" "http://www.w3.org/Graphics/SVG/1.1/DTD/svg11.dtd">
<svg width="192pt" height="192pt" viewBox="0 0 192 192" version="1.1" xmlns="http://www.w3.org/2000/svg">
<g id="#40e175ff">
<path fill="#40e175" opacity="1.00" d=" M 53.48 19.99 C 52.98 13.28 64.02 12.42 64.49 19.15 C 64.81 45.76 64.49 72.39 64.65 99.02 C 85.86 81.48 106.80 63.60 128.05 46.12 C 133.06 41.81 140.13 49.92 135.42 54.39 C 113.31 73.23 90.90 91.77 68.60 110.41 C 88.56 128.16 109.54 144.84 129.91 162.15 C 132.75 164.83 137.75 167.18 136.79 171.87 C 136.12 176.10 130.31 177.86 127.36 174.75 C 106.44 157.30 85.60 139.75 64.67 122.31 C 64.45 139.08 64.88 155.88 64.47 172.64 C 63.75 179.02 53.33 178.27 53.49 171.86 C 53.38 121.24 53.42 70.61 53.48 19.99 Z" />
</g>
</svg>
