<?xml version="1.0" encoding="UTF-8" ?>
<!DOCTYPE svg PUBLIC "-//W3C//DTD SVG 1.1//EN" "http://www.w3.org/Graphics/SVG/1.1/DTD/svg11.dtd">
<svg width="192pt" height="192pt" viewBox="0 0 192 192" version="1.1" xmlns="http://www.w3.org/2000/svg">
<g id="#ff3661ff">
<path fill="#ff3661" opacity="1.00" d=" M 85.63 21.39 C 91.71 16.90 100.03 16.52 105.97 21.55 C 114.63 18.60 126.55 20.80 129.43 30.68 C 127.68 31.34 125.93 31.99 124.18 32.63 C 132.25 32.68 141.07 33.06 147.68 38.31 C 152.45 41.99 156.12 48.70 153.85 54.69 C 149.97 55.20 147.20 52.16 144.54 49.87 C 147.22 59.98 160.84 57.15 165.34 65.65 C 167.96 69.54 167.04 74.42 165.26 78.45 C 161.59 75.80 158.97 72.10 155.94 68.80 C 158.45 75.66 163.38 81.38 169.04 85.88 C 179.78 92.51 179.15 107.67 175.05 118.08 C 171.07 113.89 167.18 109.44 161.87 106.88 C 170.67 115.98 176.18 130.24 170.33 142.34 C 167.81 148.65 162.05 152.89 155.70 154.85 C 155.39 153.08 155.11 151.31 154.81 149.54 C 150.15 162.94 134.94 169.85 121.45 167.04 C 121.51 166.30 121.63 164.83 121.69 164.09 C 106.31 175.15 84.59 175.15 69.20 164.12 C 69.27 164.86 69.43 166.35 69.51 167.10 C 56.15 169.69 41.59 163.19 36.23 150.35 C 35.88 151.88 35.52 153.40 35.16 154.93 C 25.66 151.95 18.26 143.19 18.28 133.02 C 16.91 123.09 23.10 114.73 28.77 107.33 C 23.50 109.53 19.81 113.96 15.97 117.99 C 12.02 107.93 11.18 93.96 20.70 86.73 C 27.29 82.44 32.12 75.94 35.10 68.73 C 31.85 71.81 29.69 76.06 25.59 78.18 C 22.41 72.34 24.09 64.39 30.15 61.16 C 36.11 58.01 44.78 57.29 46.68 49.47 C 43.83 51.72 40.18 56.64 36.19 53.81 C 34.98 38.02 53.23 31.27 66.32 32.70 C 64.69 31.85 63.09 30.97 61.47 30.09 C 65.35 20.37 76.72 19.08 85.63 21.39 M 77.70 31.60 C 77.17 35.15 76.50 39.11 73.42 41.41 C 68.91 45.28 62.58 43.80 57.15 44.30 C 59.23 53.23 54.41 62.56 46.36 66.68 C 45.80 78.99 36.64 89.11 27.14 96.04 C 33.24 95.59 39.68 99.59 40.36 105.99 C 41.43 113.01 34.73 117.21 31.76 122.70 C 28.45 127.64 29.19 133.98 31.22 139.25 C 36.27 138.02 42.37 138.89 45.29 143.67 C 48.08 148.36 50.95 153.71 56.65 155.30 C 60.47 157.44 63.33 153.17 66.98 152.77 C 72.34 151.69 76.51 155.87 81.06 157.87 C 89.76 162.22 100.37 162.38 109.14 158.16 C 113.77 156.31 117.70 152.15 123.01 152.56 C 126.05 152.67 128.45 154.75 131.12 155.93 C 136.94 155.38 142.00 151.29 143.92 145.79 C 146.52 139.70 153.66 137.59 159.75 138.82 C 161.90 133.90 161.95 128.26 159.64 123.38 C 157.55 117.15 149.73 114.12 149.75 107.00 C 149.25 99.99 156.04 94.62 162.76 95.27 C 153.70 88.23 145.42 78.51 144.32 66.71 C 136.69 62.22 131.78 53.23 134.47 44.36 C 128.75 43.68 122.14 45.62 117.21 41.82 C 114.04 39.53 113.09 35.55 112.55 31.90 C 106.76 33.79 100.93 32.15 95.90 29.10 C 90.43 32.55 83.94 33.88 77.70 31.60 Z" />
<path fill="#ff3661" opacity="1.00" d=" M 76.34 63.44 C 79.88 63.10 82.80 66.51 82.36 69.97 C 82.26 83.98 82.65 98.02 82.17 112.02 C 81.27 117.73 72.04 117.62 71.29 111.90 C 70.87 97.93 71.23 83.92 71.12 69.93 C 70.74 66.77 73.05 63.55 76.34 63.44 Z" />
<path fill="#ff3661" opacity="1.00" d=" M 113.35 63.47 C 116.99 62.88 120.21 66.34 119.73 69.93 C 119.64 83.90 119.98 97.90 119.57 111.86 C 118.89 117.84 109.08 117.62 108.62 111.62 C 108.23 97.73 108.55 83.81 108.47 69.92 C 108.19 66.90 110.22 63.81 113.35 63.47 Z" />
</g>
</svg>
