<?xml version="1.0" encoding="UTF-8" ?>
<!DOCTYPE svg PUBLIC "-//W3C//DTD SVG 1.1//EN" "http://www.w3.org/Graphics/SVG/1.1/DTD/svg11.dtd">
<svg width="192pt" height="192pt" viewBox="0 0 192 192" version="1.1" xmlns="http://www.w3.org/2000/svg">
<g id="#45e371ff">
<path fill="#45e371" opacity="1.00" d=" M 92.31 13.43 C 96.27 12.07 100.87 13.23 103.76 16.24 C 112.13 24.55 120.49 32.86 128.82 41.20 C 132.93 45.26 132.86 52.66 128.56 56.55 C 120.05 65.01 111.60 73.54 103.03 81.94 C 98.79 85.82 91.68 85.41 87.81 81.20 C 79.43 72.91 71.04 64.62 62.76 56.22 C 58.07 51.51 59.29 43.34 64.49 39.50 C 73.95 31.06 81.75 20.37 92.31 13.43 M 71.27 48.72 C 79.48 56.81 87.41 65.50 96.03 72.98 C 104.11 65.05 112.17 57.07 120.09 48.97 C 112.64 40.29 103.89 32.49 95.79 24.31 C 87.57 32.39 79.41 40.55 71.27 48.72 Z" />
<path fill="#45e371" opacity="1.00" d=" M 46.42 59.64 C 50.26 58.70 54.50 59.91 57.21 62.79 C 65.56 71.11 73.96 79.39 82.25 87.77 C 86.32 91.83 86.04 99.02 81.99 103.00 C 73.60 111.26 65.30 119.63 56.91 127.91 C 52.77 132.16 45.30 132.10 41.25 127.76 C 32.88 119.46 24.51 111.16 16.19 102.81 C 12.07 98.73 12.16 91.38 16.40 87.42 C 24.40 79.41 32.44 71.44 40.45 63.43 C 42.11 61.73 44.06 60.19 46.42 59.64 M 24.83 95.05 C 32.41 103.69 41.05 111.43 49.14 119.62 C 57.42 111.56 65.60 103.39 73.74 95.19 C 65.46 87.15 57.59 78.63 49.02 70.93 C 40.88 78.88 32.83 86.95 24.83 95.05 Z" />
<path fill="#45e371" opacity="1.00" d=" M 140.40 59.50 C 143.98 58.84 147.82 60.04 150.37 62.63 C 158.73 70.93 167.10 79.23 175.42 87.57 C 179.41 91.50 179.67 98.58 175.63 102.58 C 167.19 111.18 158.56 119.59 150.02 128.09 C 146.03 132.09 138.93 132.09 134.95 128.06 C 126.54 119.80 118.20 111.46 109.85 103.13 C 105.51 99.13 105.29 91.67 109.58 87.55 C 117.55 79.53 125.62 71.60 133.60 63.60 C 135.46 61.68 137.70 59.94 140.40 59.50 M 142.14 71.13 C 134.02 79.03 125.99 87.06 118.00 95.10 C 125.83 103.40 134.14 111.26 142.16 119.38 C 150.81 112.14 158.83 103.24 167.00 95.13 C 158.69 87.23 150.94 78.11 142.14 71.13 Z" />
<path fill="#45e371" opacity="1.00" d=" M 92.25 106.35 C 96.25 104.97 100.90 106.12 103.82 109.18 C 112.19 117.47 120.56 125.77 128.86 134.14 C 132.96 138.21 132.81 145.65 128.51 149.52 C 120.16 157.82 111.84 166.16 103.47 174.45 C 99.53 178.46 92.44 178.60 88.41 174.63 C 79.80 166.22 71.32 157.67 62.81 149.15 C 58.07 144.50 59.29 136.29 64.45 132.45 C 73.90 123.99 81.71 113.32 92.25 106.35 M 71.33 141.66 C 79.47 149.82 87.49 158.16 95.92 165.99 C 103.80 157.71 113.10 150.08 119.95 141.25 C 112.00 133.14 103.93 125.14 95.80 117.21 C 87.60 125.32 79.39 133.42 71.33 141.66 Z" />
</g>
</svg>
