<?xml version="1.0" encoding="UTF-8" ?>
<!DOCTYPE svg PUBLIC "-//W3C//DTD SVG 1.1//EN" "http://www.w3.org/Graphics/SVG/1.1/DTD/svg11.dtd">
<svg width="192pt" height="192pt" viewBox="0 0 192 192" version="1.1" xmlns="http://www.w3.org/2000/svg">
<g id="#ff3661ff">
<path fill="#ff3661" opacity="1.00" d=" M 38.41 23.46 C 39.78 22.64 41.46 22.81 43.00 22.71 C 78.67 22.81 114.34 22.63 150.01 22.80 C 156.81 22.70 156.83 33.95 150.04 33.92 C 113.69 34.48 77.32 33.93 40.97 33.82 C 35.51 34.11 33.63 25.86 38.41 23.46 Z" />
<path fill="#ff3661" opacity="1.00" d=" M 22.33 42.40 C 24.14 41.74 26.10 41.63 28.01 41.59 C 73.33 41.64 118.66 41.56 163.98 41.62 C 171.56 41.45 178.22 48.39 177.84 55.94 C 177.85 85.98 177.90 116.02 177.82 146.06 C 178.03 158.15 167.11 168.84 155.05 168.54 C 115.04 168.54 75.02 168.59 35.01 168.51 C 23.25 168.39 12.93 157.82 13.08 146.06 C 13.00 116.02 13.05 85.98 13.06 55.94 C 12.83 50.03 16.74 44.32 22.33 42.40 M 24.59 53.58 C 24.08 84.06 24.53 114.56 24.36 145.05 C 23.83 151.51 29.50 157.51 36.00 157.24 C 75.66 157.27 115.33 157.28 155.00 157.23 C 161.44 157.43 167.05 151.46 166.56 145.05 C 166.40 114.59 166.90 84.10 166.31 53.65 C 162.65 52.47 158.78 52.84 155.00 52.83 C 115.67 52.83 76.33 52.82 37.00 52.82 C 32.86 52.86 28.63 52.42 24.59 53.58 Z" />
<path fill="#ff3661" opacity="1.00" d=" M 62.25 79.16 C 72.94 73.93 87.28 75.26 95.86 83.92 C 104.26 75.12 118.36 74.02 129.09 78.84 C 137.39 82.63 141.81 92.17 141.30 101.00 C 141.07 110.34 141.64 119.71 141.14 129.04 C 140.31 134.39 131.83 134.95 130.24 129.79 C 128.96 118.65 130.97 107.21 128.90 96.14 C 126.38 83.57 104.63 83.85 102.54 96.57 C 100.76 107.49 102.56 118.67 101.53 129.66 C 99.97 135.04 90.66 134.65 89.79 129.00 C 89.15 118.33 90.27 107.56 89.11 96.92 C 87.22 84.21 66.00 83.06 62.56 95.38 C 60.20 106.69 62.55 118.49 61.16 129.91 C 59.54 135.01 51.08 134.20 50.60 128.83 C 50.25 118.24 50.42 107.62 50.60 97.02 C 50.74 89.45 55.54 82.50 62.25 79.16 Z" />
</g>
</svg>
