<?xml version="1.0" encoding="UTF-8" ?>
<!DOCTYPE svg PUBLIC "-//W3C//DTD SVG 1.1//EN" "http://www.w3.org/Graphics/SVG/1.1/DTD/svg11.dtd">
<svg width="192pt" height="192pt" viewBox="0 0 192 192" version="1.1" xmlns="http://www.w3.org/2000/svg">
<g id="#4b83a6ff">
<path fill="#4b83a6" opacity="1.00" d=" M 31.74 19.97 C 31.53 16.20 35.44 13.49 38.95 14.02 C 75.99 13.95 113.03 13.99 150.06 14.00 C 154.31 14.15 156.90 19.79 154.16 23.08 C 139.29 43.90 124.56 64.83 109.54 85.54 C 105.67 90.85 96.73 84.97 100.10 79.27 C 112.57 61.18 125.89 43.65 138.09 25.40 C 108.14 25.40 78.19 25.45 48.24 25.35 C 81.64 71.76 114.96 118.22 148.31 164.67 C 151.36 168.02 148.58 174.10 144.02 173.78 C 111.33 173.82 78.64 173.79 45.94 173.77 C 38.52 173.98 31.82 167.39 31.75 160.00 C 31.70 113.32 31.73 66.64 31.74 19.97 M 43.16 37.65 C 43.19 78.46 43.09 119.27 43.21 160.08 C 43.10 162.06 45.39 162.81 47.01 162.59 C 75.63 162.62 104.25 162.58 132.87 162.60 C 103.05 120.89 73.22 79.19 43.16 37.65 Z" />
</g>
</svg>
