<?xml version="1.0" encoding="UTF-8" ?>
<!DOCTYPE svg PUBLIC "-//W3C//DTD SVG 1.1//EN" "http://www.w3.org/Graphics/SVG/1.1/DTD/svg11.dtd">
<svg width="192pt" height="192pt" viewBox="0 0 192 192" version="1.1" xmlns="http://www.w3.org/2000/svg">
<g id="#19b0ffff">
<path fill="#19b0ff" opacity="1.00" d=" M 40.29 21.33 C 75.77 19.97 111.43 21.12 146.98 20.73 C 159.55 20.20 171.01 31.37 170.82 43.93 C 170.89 77.98 170.89 112.02 170.85 146.06 C 171.14 158.35 160.35 169.47 148.06 169.52 C 113.69 169.59 79.31 169.56 44.95 169.50 C 32.62 169.49 21.79 158.37 22.07 146.05 C 22.05 112.01 22.05 77.97 22.10 43.93 C 21.99 33.37 30.03 23.57 40.29 21.33 M 42.28 32.31 C 37.20 33.69 33.15 38.57 33.27 43.93 C 33.23 77.97 33.26 112.02 33.26 146.06 C 33.02 152.79 39.25 158.74 45.95 158.33 C 79.89 158.30 113.83 158.35 147.77 158.27 C 154.17 158.27 159.76 152.45 159.64 146.07 C 159.69 112.02 159.72 77.97 159.64 43.92 C 159.72 36.88 152.88 31.22 146.02 31.81 C 111.45 32.17 76.77 31.10 42.28 32.31 Z" />
<path fill="#19b0ff" opacity="1.00" d=" M 99.77 66.78 C 104.16 60.30 115.83 57.27 121.35 63.58 C 125.24 70.27 116.97 75.11 111.07 73.42 C 109.47 80.11 111.99 87.40 108.75 93.74 C 107.36 96.16 109.72 98.56 109.98 101.00 C 110.69 106.43 109.73 111.95 110.51 117.39 C 114.03 117.71 118.48 116.84 120.90 120.08 C 123.69 123.37 121.98 128.85 117.95 130.19 C 111.62 131.29 104.13 130.49 99.95 125.03 C 94.67 118.66 97.28 109.89 96.63 102.36 C 94.67 102.14 92.72 101.88 90.77 101.66 C 90.51 97.49 90.52 93.31 90.78 89.14 C 92.74 89.00 94.71 88.84 96.68 88.64 C 97.56 81.38 95.27 73.19 99.77 66.78 Z" />
<path fill="#19b0ff" opacity="1.00" d=" M 74.23 61.12 C 78.66 59.11 83.88 63.21 83.25 67.96 C 83.15 86.98 83.49 106.02 83.08 125.02 C 82.11 131.78 71.19 131.64 70.45 124.84 C 70.07 105.89 70.40 86.90 70.30 67.94 C 70.07 65.12 71.56 62.23 74.23 61.12 Z" />
</g>
</svg>
