<?xml version="1.0" encoding="UTF-8" ?>
<!DOCTYPE svg PUBLIC "-//W3C//DTD SVG 1.1//EN" "http://www.w3.org/Graphics/SVG/1.1/DTD/svg11.dtd">
<svg width="192pt" height="192pt" viewBox="0 0 192 192" version="1.1" xmlns="http://www.w3.org/2000/svg">
<g id="#ff633cff">
<path fill="#ff633c" opacity="1.00" d=" M 40.27 21.32 C 75.76 19.97 111.42 21.11 146.98 20.73 C 159.55 20.19 171.03 31.37 170.82 43.95 C 170.88 77.98 170.88 112.01 170.84 146.05 C 171.16 158.33 160.35 169.45 148.07 169.51 C 113.69 169.59 79.31 169.57 44.94 169.51 C 32.60 169.50 21.77 158.36 22.06 146.03 C 22.04 112.01 22.03 77.98 22.08 43.95 C 21.97 33.38 29.99 23.57 40.27 21.32 M 42.27 32.33 C 37.21 33.73 33.17 38.59 33.29 43.93 C 33.24 77.97 33.27 112.02 33.28 146.07 C 33.03 152.82 39.28 158.79 46.01 158.33 C 79.67 158.33 113.33 158.33 146.98 158.31 C 153.68 158.72 159.81 152.77 159.65 146.08 C 159.70 112.03 159.72 77.97 159.64 43.91 C 159.72 36.87 152.85 31.24 146.00 31.82 C 111.44 32.18 76.76 31.11 42.27 32.33 Z" />
<path fill="#ff633c" opacity="1.00" d=" M 80.35 61.35 C 84.20 60.63 87.94 64.12 87.65 67.99 C 87.51 86.54 87.89 105.11 87.46 123.64 C 86.40 130.35 75.42 129.89 75.07 123.06 C 74.81 104.70 75.00 86.31 74.98 67.94 C 74.73 64.78 77.19 61.71 80.35 61.35 Z" />
<path fill="#ff633c" opacity="1.00" d=" M 108.63 64.64 C 111.05 62.63 117.59 59.88 117.94 64.94 C 117.96 71.77 118.15 78.67 117.59 85.47 C 115.47 89.21 111.65 91.62 108.95 94.93 C 112.10 99.13 118.70 101.89 117.93 107.98 C 117.66 114.21 118.40 120.53 117.53 126.71 C 112.67 129.20 105.45 124.71 105.45 119.02 C 104.75 115.23 106.66 110.46 103.52 107.48 C 100.13 103.86 96.31 100.65 93.10 96.86 C 91.89 95.62 92.22 93.60 93.40 92.47 C 96.98 88.36 101.33 84.97 104.74 80.73 C 105.95 75.42 103.36 68.43 108.63 64.64 Z" />
</g>
</svg>
