<?xml version="1.0" encoding="UTF-8" ?>
<!DOCTYPE svg PUBLIC "-//W3C//DTD SVG 1.1//EN" "http://www.w3.org/Graphics/SVG/1.1/DTD/svg11.dtd">
<svg width="192pt" height="192pt" viewBox="0 0 192 192" version="1.1" xmlns="http://www.w3.org/2000/svg">
<g id="#af7d7dff">
<path fill="#af7d7d" opacity="1.00" d=" M 85.40 14.54 C 101.18 12.39 117.80 14.75 132.01 22.04 C 137.48 25.47 132.09 34.82 126.36 31.52 C 108.36 23.25 86.84 22.58 68.64 30.65 C 65.98 31.89 62.04 32.83 60.00 30.04 C 57.75 27.54 58.53 23.10 61.62 21.68 C 69.07 17.99 77.19 15.73 85.40 14.54 Z" />
<path fill="#af7d7d" opacity="1.00" d=" M 38.24 39.24 C 43.33 37.20 48.19 44.33 44.23 48.20 C 39.74 52.63 36.48 57.97 33.51 63.48 C 30.12 68.59 21.43 63.72 24.01 58.14 C 27.70 51.27 31.76 43.74 38.24 39.24 Z" />
<path fill="#af7d7d" opacity="1.00" d=" M 151.25 39.26 C 154.46 38.07 157.21 40.62 159.00 42.98 C 162.88 47.97 166.86 53.10 169.19 59.03 C 170.67 64.44 162.61 68.16 159.47 63.56 C 156.63 58.24 153.63 52.98 149.16 48.83 C 145.95 46.11 147.21 40.39 151.25 39.26 Z" />
<path fill="#af7d7d" opacity="1.00" d=" M 19.42 73.47 C 23.16 70.62 29.16 74.38 28.03 79.00 C 25.64 89.88 25.91 101.15 28.11 112.03 C 28.79 117.89 19.50 119.94 17.53 114.43 C 14.43 103.39 14.46 91.57 16.38 80.32 C 16.93 77.91 17.11 74.93 19.42 73.47 Z" />
<path fill="#af7d7d" opacity="1.00" d=" M 167.36 73.30 C 170.57 71.21 175.31 73.34 175.86 77.13 C 178.61 89.09 178.62 101.78 175.71 113.72 C 174.78 117.89 168.78 119.13 166.12 115.88 C 163.99 113.59 165.04 110.32 165.45 107.59 C 167.20 98.50 166.83 89.10 165.02 80.05 C 164.32 77.57 165.02 74.64 167.36 73.30 Z" />
<path fill="#af7d7d" opacity="1.00" d=" M 67.29 75.91 C 75.21 75.74 83.15 75.76 91.07 75.99 C 94.65 76.23 93.66 80.57 93.83 83.01 C 93.50 89.10 94.38 95.29 93.36 101.32 C 89.80 103.37 85.31 102.18 81.35 102.44 C 79.99 107.59 80.94 112.96 80.56 118.21 C 76.99 116.25 75.29 112.30 72.65 109.38 C 70.44 106.21 66.86 103.28 67.25 99.05 C 67.30 91.33 67.29 83.62 67.29 75.91 Z" />
<path fill="#af7d7d" opacity="1.00" d=" M 99.00 81.99 C 98.99 79.78 98.73 75.83 101.95 75.92 C 108.31 75.76 114.68 75.90 121.04 75.86 C 122.65 75.88 125.29 76.08 125.46 78.16 C 125.82 84.78 125.60 91.43 125.62 98.06 C 126.11 105.09 116.92 101.51 112.73 102.66 C 112.05 107.58 113.43 113.49 111.90 117.83 C 107.24 113.98 103.21 107.73 99.56 102.43 C 98.36 95.73 99.37 88.78 99.00 81.99 Z" />
<path fill="#af7d7d" opacity="1.00" d=" M 26.40 125.45 C 32.71 122.07 35.41 130.03 37.88 134.17 C 39.89 137.99 43.60 140.57 45.66 144.31 C 47.60 149.69 39.97 153.73 36.24 149.78 C 31.44 144.74 27.42 138.91 24.30 132.69 C 22.87 130.21 23.97 126.84 26.40 125.45 Z" />
<path fill="#af7d7d" opacity="1.00" d=" M 161.21 125.15 C 165.71 122.74 171.27 128.20 168.67 132.70 C 165.22 139.20 161.18 145.71 155.64 150.62 C 149.94 154.14 143.97 145.33 149.28 141.32 C 154.65 136.96 156.24 129.60 161.21 125.15 Z" />
<path fill="#af7d7d" opacity="1.00" d=" M 62.37 158.44 C 64.75 157.53 67.09 158.98 69.28 159.78 C 87.40 167.61 108.74 166.85 126.58 158.57 C 132.28 155.63 137.44 164.85 132.11 168.23 C 110.58 179.28 83.84 179.24 62.03 168.92 C 57.38 167.22 57.66 159.82 62.37 158.44 Z" />
</g>
</svg>
