<?xml version="1.0" encoding="UTF-8" ?>
<!DOCTYPE svg PUBLIC "-//W3C//DTD SVG 1.1//EN" "http://www.w3.org/Graphics/SVG/1.1/DTD/svg11.dtd">
<svg width="192pt" height="192pt" viewBox="0 0 192 192" version="1.1" xmlns="http://www.w3.org/2000/svg">
<g id="#b799b1ff">
<path fill="#b799b1" opacity="1.00" d=" M 79.39 12.44 C 82.18 11.73 85.83 11.66 87.44 14.53 C 89.95 17.96 87.16 22.99 83.06 23.18 C 71.30 24.89 60.41 30.16 50.82 36.99 C 45.48 39.81 40.22 31.65 44.81 27.86 C 54.86 20.03 66.88 14.78 79.39 12.44 Z" />
<path fill="#b799b1" opacity="1.00" d=" M 102.44 12.54 C 117.15 11.67 131.69 19.03 143.54 27.44 C 148.56 31.28 142.79 39.76 137.39 36.54 C 127.58 29.45 116.20 24.51 104.17 22.84 C 99.18 22.26 97.92 14.75 102.44 12.54 Z" />
<path fill="#b799b1" opacity="1.00" d=" M 31.34 42.36 C 36.33 40.67 40.75 47.33 37.24 51.25 C 30.15 60.80 25.84 72.17 24.03 83.89 C 22.59 89.44 13.62 88.49 13.22 82.82 C 14.33 70.12 19.34 57.91 26.34 47.32 C 27.71 45.43 28.91 42.99 31.34 42.36 Z" />
<path fill="#b799b1" opacity="1.00" d=" M 153.33 42.34 C 155.79 40.98 159.03 42.11 160.46 44.45 C 168.54 55.43 174.08 68.45 175.66 82.03 C 176.25 88.05 166.63 89.83 164.95 84.01 C 163.07 72.28 158.84 60.83 151.71 51.25 C 149.24 48.65 149.91 43.76 153.33 42.34 Z" />
<path fill="#b799b1" opacity="1.00" d=" M 88.42 50.54 C 105.26 47.98 123.00 56.87 131.34 71.66 C 139.38 85.19 138.97 103.15 130.31 116.30 C 121.34 130.58 103.42 138.67 86.79 135.45 C 68.08 132.59 52.76 115.94 51.27 97.09 C 48.66 74.89 66.23 52.96 88.42 50.54 M 89.50 61.85 C 73.75 63.87 61.19 79.19 62.56 95.06 C 63.13 112.84 81.01 127.43 98.55 124.37 C 115.64 122.36 128.69 104.56 125.21 87.66 C 122.71 71.33 105.82 59.03 89.50 61.85 Z" />
<path fill="#b799b1" opacity="1.00" d=" M 16.42 99.43 C 19.67 98.24 23.81 99.86 24.23 103.60 C 25.93 115.43 30.98 126.54 37.91 136.20 C 40.96 141.62 32.59 146.88 28.81 142.20 C 20.70 131.63 15.47 118.90 13.43 105.75 C 12.85 103.23 14.10 100.58 16.42 99.43 Z" />
<path fill="#b799b1" opacity="1.00" d=" M 167.44 99.53 C 171.09 97.54 176.34 100.65 175.61 104.99 C 173.67 118.84 168.12 132.38 159.25 143.24 C 154.75 147.39 147.54 140.99 150.97 136.01 C 157.68 126.92 162.48 116.37 164.30 105.18 C 164.54 102.97 165.35 100.63 167.44 99.53 Z" />
<path fill="#b799b1" opacity="1.00" d=" M 46.33 149.33 C 49.23 147.68 52.13 149.95 54.41 151.60 C 63.34 157.97 73.91 161.57 84.64 163.45 C 90.34 165.09 88.93 174.36 83.04 174.32 C 69.41 172.55 56.20 167.06 45.27 158.70 C 42.00 156.44 42.62 150.77 46.33 149.33 Z" />
<path fill="#b799b1" opacity="1.00" d=" M 138.33 149.34 C 143.59 147.48 148.06 155.15 143.62 158.64 C 132.48 167.25 118.87 172.69 104.92 174.41 C 98.59 174.44 97.77 164.18 104.15 163.42 C 116.60 161.83 128.06 156.24 138.33 149.34 Z" />
</g>
</svg>
