<?xml version="1.0" encoding="UTF-8" ?>
<!DOCTYPE svg PUBLIC "-//W3C//DTD SVG 1.1//EN" "http://www.w3.org/Graphics/SVG/1.1/DTD/svg11.dtd">
<svg width="192pt" height="192pt" viewBox="0 0 192 192" version="1.1" xmlns="http://www.w3.org/2000/svg">
<g id="#c521d2ff">
<path fill="#c521d2" opacity="1.00" d=" M 61.05 29.08 C 83.63 17.34 112.08 18.03 134.06 30.86 C 159.26 45.01 175.12 74.19 172.64 103.08 C 171.47 109.76 173.96 116.73 171.21 123.18 C 168.09 132.49 158.43 140.79 148.19 136.74 C 147.25 124.20 148.15 111.58 147.84 99.00 C 148.10 96.69 147.26 93.78 148.98 91.92 C 153.37 90.00 158.29 91.62 162.24 93.84 C 161.06 59.82 130.09 30.39 96.00 31.31 C 62.11 30.34 31.28 59.39 29.69 93.16 C 34.15 90.68 45.42 88.82 43.71 96.98 C 43.07 109.89 45.03 122.88 43.64 135.73 C 40.86 139.55 34.75 137.20 30.87 136.18 C 31.18 145.15 28.29 156.45 36.07 163.12 C 38.51 162.90 41.30 163.13 43.20 161.27 C 52.39 153.41 58.59 142.81 64.42 132.38 C 66.80 128.36 66.65 123.51 65.76 119.08 C 62.48 99.94 62.75 79.80 69.29 61.35 C 71.66 55.02 74.95 48.63 80.44 44.47 C 84.49 41.31 90.98 41.57 94.12 45.88 C 100.23 53.59 99.05 64.14 97.29 73.16 C 93.42 90.57 85.55 106.78 77.80 122.73 C 72.40 129.85 78.53 138.29 80.23 145.70 C 82.01 149.12 83.19 156.74 87.80 155.90 C 90.12 144.03 84.15 132.04 86.11 120.09 C 87.59 113.30 98.08 111.21 101.87 117.11 C 110.20 129.89 104.37 147.67 113.87 159.76 C 114.89 145.68 105.33 133.12 106.77 119.00 C 107.05 114.54 110.33 110.25 114.99 109.89 C 120.54 108.89 125.02 113.68 126.50 118.58 C 129.63 128.38 131.54 138.53 134.76 148.31 C 136.97 154.76 142.29 160.31 149.11 161.71 C 154.81 163.20 160.51 161.39 166.03 160.08 C 170.02 159.57 172.14 165.65 168.68 167.75 C 155.73 173.82 137.58 170.91 130.13 157.77 C 126.03 146.39 123.28 134.54 120.12 122.87 C 119.42 120.17 117.91 117.78 115.80 115.96 C 115.13 117.23 114.20 118.48 114.13 119.98 C 113.63 134.15 123.79 147.16 120.40 161.42 C 119.10 167.54 110.76 168.57 107.41 163.58 C 97.60 151.12 103.01 133.27 94.95 120.05 C 93.53 120.86 92.94 122.34 93.08 123.93 C 93.00 135.08 97.31 146.16 95.21 157.30 C 93.86 164.10 84.36 166.20 80.05 160.95 C 74.69 154.25 71.75 145.91 70.24 137.54 C 64.76 147.24 58.59 156.75 50.42 164.41 C 46.64 167.55 42.18 170.94 36.98 170.49 C 30.88 169.74 25.62 164.88 24.30 158.88 C 22.26 149.68 24.27 140.18 23.05 130.91 C 22.29 124.47 18.19 118.62 19.21 111.95 C 20.13 105.96 18.65 99.96 19.16 93.95 C 20.13 66.86 36.83 41.17 61.05 29.08 M 75.36 65.37 C 69.58 81.95 70.49 99.76 72.25 116.94 C 80.97 99.99 89.63 82.28 91.67 63.08 C 91.82 58.35 91.70 51.03 85.97 49.65 C 79.54 52.10 77.37 59.44 75.36 65.37 Z" />
</g>
</svg>
