<?xml version="1.0" encoding="UTF-8" ?>
<!DOCTYPE svg PUBLIC "-//W3C//DTD SVG 1.1//EN" "http://www.w3.org/Graphics/SVG/1.1/DTD/svg11.dtd">
<svg width="192pt" height="192pt" viewBox="0 0 192 192" version="1.1" xmlns="http://www.w3.org/2000/svg">
<g id="#f6b02cff">
<path fill="#f6b02c" opacity="1.00" d=" M 144.18 25.56 C 151.34 16.35 166.95 16.90 173.03 26.99 C 178.28 34.82 175.33 46.07 167.63 51.17 C 170.38 57.34 168.13 64.04 161.95 66.91 C 163.30 71.98 165.32 76.87 166.46 82.00 C 167.17 87.21 159.38 89.73 156.79 85.24 C 154.47 79.32 152.62 73.15 150.98 67.00 C 149.88 62.09 154.53 59.13 157.89 56.64 C 157.36 53.67 156.25 50.70 156.53 47.65 C 157.08 42.35 165.02 42.64 164.99 36.99 C 166.29 29.80 155.21 26.51 152.20 33.07 C 149.41 38.94 142.39 36.56 137.83 34.56 C 134.92 37.75 131.08 42.17 126.26 39.89 C 120.37 36.81 114.51 33.59 108.88 30.06 C 104.71 27.12 107.97 19.77 112.97 20.88 C 118.38 22.92 123.14 26.40 128.26 29.05 C 131.80 23.55 138.62 22.35 144.18 25.56 Z" />
<path fill="#f6b02c" opacity="1.00" d=" M 83.11 31.11 C 86.06 27.51 91.57 26.87 95.23 29.76 C 104.13 36.16 112.67 43.05 121.43 49.62 C 124.72 51.61 125.08 56.62 121.99 58.96 C 100.27 79.59 78.60 100.28 56.66 120.67 C 53.70 122.84 53.22 126.99 56.89 128.75 C 81.96 109.28 106.10 88.65 131.00 68.98 C 133.51 66.50 138.09 67.06 139.77 70.20 C 145.74 80.29 151.57 90.46 157.41 100.62 C 159.79 104.36 158.92 109.67 155.29 112.30 C 130.47 129.99 104.33 146.12 76.45 158.57 C 63.99 163.44 50.73 169.14 37.07 167.00 C 31.58 165.97 31.61 157.18 37.08 156.15 C 42.07 156.14 47.13 156.47 51.99 155.06 C 74.52 149.23 94.71 137.23 114.64 125.61 C 125.78 119.29 136.16 111.77 146.68 104.50 C 142.12 96.90 137.85 89.12 133.25 81.55 C 110.02 100.22 87.24 119.46 63.67 137.69 C 55.53 143.64 44.16 136.00 42.83 127.03 C 41.83 121.03 45.53 115.60 49.67 111.67 C 69.94 93.00 89.84 73.93 109.78 54.91 C 103.23 49.96 96.81 44.84 90.18 39.99 C 70.84 61.59 51.33 83.34 36.27 108.26 C 30.59 117.68 24.39 127.60 24.30 138.99 C 24.59 145.09 15.05 146.51 13.39 140.73 C 12.33 131.43 15.77 122.15 19.99 113.99 C 36.47 83.18 59.74 56.80 83.11 31.11 Z" />
</g>
</svg>
