<?xml version="1.0" encoding="UTF-8" ?>
<!DOCTYPE svg PUBLIC "-//W3C//DTD SVG 1.1//EN" "http://www.w3.org/Graphics/SVG/1.1/DTD/svg11.dtd">
<svg width="192pt" height="192pt" viewBox="0 0 192 192" version="1.1" xmlns="http://www.w3.org/2000/svg">
<g id="#8cae73ff">
<path fill="#8cae73" opacity="1.00" d=" M 89.33 17.40 C 100.53 15.60 112.24 18.87 121.09 25.92 C 122.71 27.45 124.84 28.01 127.03 28.09 C 145.10 29.73 160.72 45.09 163.07 63.02 C 163.50 65.09 163.14 67.54 164.77 69.18 C 176.80 83.27 178.07 105.70 166.45 120.44 C 163.57 123.32 164.45 127.57 163.48 131.19 C 160.42 146.77 147.49 159.83 131.96 163.10 C 128.27 164.00 123.97 163.16 121.01 166.03 C 107.82 175.74 88.69 176.09 75.21 166.77 C 73.22 165.59 71.54 163.43 69.01 163.67 C 50.88 163.56 33.97 150.28 29.26 132.82 C 28.00 129.33 28.76 124.97 25.74 122.29 C 12.34 106.96 13.41 82.07 27.31 67.40 C 28.10 49.79 41.00 33.58 58.17 29.31 C 61.74 27.84 66.25 29.09 69.18 26.21 C 74.91 21.46 81.98 18.44 89.33 17.40 M 74.43 36.41 C 62.61 46.81 61.67 66.87 72.24 78.48 C 74.82 78.79 77.38 79.27 79.91 79.84 C 74.72 59.91 86.26 37.50 105.30 29.77 C 94.79 26.21 82.51 28.76 74.43 36.41 M 93.24 79.22 C 101.37 57.83 128.59 46.50 149.43 56.15 C 144.07 45.35 132.19 37.90 119.99 39.12 C 100.56 39.02 85.79 61.31 93.24 79.22 M 43.96 86.86 C 48.23 83.76 53.02 81.46 58.13 80.14 C 51.49 68.58 50.97 54.23 55.80 41.90 C 39.28 49.44 33.44 72.22 43.96 86.86 M 105.07 82.97 C 126.12 73.32 153.44 84.52 161.55 106.21 C 167.14 91.06 158.53 72.05 142.82 67.37 C 128.57 62.44 111.79 69.55 105.07 82.97 M 29.25 106.15 C 30.88 102.61 32.77 99.19 34.97 95.96 C 32.79 92.74 30.78 89.40 29.09 85.89 C 26.86 92.42 26.79 99.68 29.25 106.15 M 64.42 90.57 C 55.21 92.25 46.91 98.31 42.56 106.61 C 35.69 118.88 38.75 135.49 49.41 144.61 C 60.62 154.98 79.44 155.02 90.70 144.72 C 102.85 134.62 105.24 114.46 94.64 102.42 C 88.09 92.90 75.64 88.50 64.42 90.57 M 112.35 93.39 C 133.72 101.78 145.43 128.64 135.86 149.76 C 149.06 143.88 156.11 127.78 151.97 114.02 C 147.96 97.40 128.25 87.62 112.35 93.39 M 110.61 106.43 C 119.47 126.73 108.69 152.89 87.91 160.73 C 101.91 165.47 118.87 158.37 124.58 144.60 C 131.05 130.75 124.42 112.88 110.61 106.43 Z" />
</g>
</svg>
