<?xml version="1.0" encoding="UTF-8" ?>
<!DOCTYPE svg PUBLIC "-//W3C//DTD SVG 1.1//EN" "http://www.w3.org/Graphics/SVG/1.1/DTD/svg11.dtd">
<svg width="192pt" height="192pt" viewBox="0 0 192 192" version="1.1" xmlns="http://www.w3.org/2000/svg">
<g id="#93624bff">
<path fill="#93624b" opacity="1.00" d=" M 13.59 41.35 C 11.83 37.12 16.48 32.45 20.74 34.29 C 23.88 36.10 26.10 39.10 28.80 41.46 C 32.26 39.64 36.05 38.29 40.01 38.42 C 82.34 38.44 124.67 38.33 166.99 38.44 C 174.31 38.05 179.36 45.94 177.64 52.65 C 176.63 63.11 174.43 77.38 162.42 80.42 C 150.83 81.07 139.15 80.48 127.52 80.57 C 122.68 102.37 102.25 118.20 80.35 119.88 C 78.48 127.96 77.38 136.20 75.20 144.20 C 73.63 149.63 69.91 155.36 64.02 156.51 C 55.36 156.69 46.68 156.56 38.01 156.56 C 29.74 156.46 21.23 151.22 19.26 142.85 C 16.37 130.49 21.71 117.87 29.15 108.16 C 34.52 101.22 36.02 91.83 33.60 83.45 C 28.71 81.91 23.80 79.48 20.97 75.00 C 15.92 67.51 17.43 57.56 20.94 49.75 C 18.46 46.98 15.43 44.62 13.59 41.35 M 30.17 68.75 C 33.28 73.13 40.57 71.65 43.00 77.02 C 48.58 89.07 46.28 103.87 38.48 114.44 C 33.21 121.44 28.85 129.97 29.93 138.98 C 30.28 142.96 34.34 145.02 37.95 145.05 C 46.00 145.41 54.07 145.06 62.12 145.21 C 63.14 143.14 64.21 141.06 64.82 138.82 C 68.76 121.96 71.33 104.81 74.88 87.87 C 77.16 77.45 87.07 70.30 97.46 69.70 C 118.56 68.73 139.78 70.08 160.85 69.09 C 165.43 63.85 165.59 56.35 165.94 49.75 C 123.94 49.75 81.94 49.72 39.95 49.71 C 30.90 49.95 26.88 61.44 30.17 68.75 M 93.25 82.80 C 96.66 84.51 100.66 84.25 104.09 85.78 C 108.28 88.26 106.85 95.50 101.95 96.02 C 96.22 96.61 90.41 94.80 85.67 91.61 C 84.64 97.08 83.47 102.52 82.97 108.07 C 97.25 105.38 111.65 95.47 115.15 80.73 C 107.88 81.11 100.00 79.37 93.25 82.80 Z" />
</g>
</svg>
