<?xml version="1.0" encoding="UTF-8" ?>
<!DOCTYPE svg PUBLIC "-//W3C//DTD SVG 1.1//EN" "http://www.w3.org/Graphics/SVG/1.1/DTD/svg11.dtd">
<svg width="192pt" height="192pt" viewBox="0 0 192 192" version="1.1" xmlns="http://www.w3.org/2000/svg">
<g id="#1fbcffff">
<path fill="#1fbcff" opacity="1.00" d=" M 162.83 20.76 C 166.13 16.77 173.14 19.91 172.61 24.98 C 172.60 65.61 172.79 106.25 172.53 146.87 C 172.05 153.12 161.93 153.13 161.42 146.88 C 161.17 110.70 161.46 74.51 161.30 38.32 C 158.20 41.40 155.08 44.45 152.05 47.61 C 154.28 49.92 156.59 52.14 158.84 54.44 C 157.13 56.45 155.26 58.31 153.27 60.04 C 150.95 57.79 148.73 55.43 146.37 53.21 C 144.58 55.03 142.74 56.80 141.01 58.69 C 142.74 60.47 144.51 62.21 146.22 64.01 C 144.49 65.96 142.65 67.81 140.77 69.61 C 138.93 67.86 137.18 66.02 135.34 64.27 C 133.53 66.09 131.69 67.87 129.96 69.76 C 131.67 71.56 133.45 73.28 135.16 75.08 C 133.45 77.05 131.59 78.86 129.73 80.68 C 127.88 78.95 126.13 77.11 124.30 75.34 C 122.47 77.14 120.65 78.95 118.92 80.84 C 122.41 84.56 126.15 88.04 129.66 91.75 C 127.91 93.69 126.08 95.55 124.11 97.26 C 120.45 93.68 116.92 89.98 113.23 86.43 C 111.42 88.23 109.58 90.01 107.87 91.91 C 109.56 93.73 111.34 95.46 113.06 97.25 C 111.33 99.19 109.49 101.01 107.63 102.82 C 105.76 101.11 104.00 99.29 102.17 97.53 C 100.34 99.30 98.54 101.10 96.82 102.98 C 98.50 104.80 100.28 106.53 102.01 108.31 C 100.29 110.24 98.48 112.10 96.61 113.90 C 94.70 112.23 92.96 110.39 91.12 108.65 C 89.28 110.38 87.49 112.17 85.78 114.02 C 89.18 117.83 93.00 121.25 96.48 124.99 C 94.73 126.92 92.89 128.77 90.99 130.56 C 87.27 127.03 83.81 123.23 80.03 119.76 C 78.21 121.49 76.43 123.26 74.71 125.09 C 76.34 126.96 78.12 128.68 79.88 130.42 C 78.15 132.41 76.41 134.44 74.26 136.01 C 72.52 134.28 70.80 132.51 69.00 130.83 C 67.15 132.56 65.36 134.36 63.60 136.19 C 65.32 138.04 67.12 139.81 68.84 141.66 C 67.01 143.51 65.33 145.54 63.20 147.07 C 61.45 145.34 59.74 143.57 57.95 141.89 C 56.09 143.63 54.29 145.44 52.51 147.27 C 54.64 149.59 56.91 151.77 59.08 154.06 C 57.34 155.98 55.50 157.82 53.65 159.64 C 51.33 157.48 49.21 155.11 46.90 152.95 C 44.11 155.62 41.39 158.37 38.71 161.15 C 81.78 161.33 124.86 161.02 167.93 161.25 C 174.34 161.71 174.28 172.14 167.86 172.47 C 120.30 172.65 72.72 172.51 25.14 172.50 C 20.29 172.92 17.36 166.23 20.96 162.94 C 68.20 115.50 115.54 68.15 162.83 20.76 Z" />
</g>
</svg>
