<?xml version="1.0" encoding="UTF-8" ?>
<!DOCTYPE svg PUBLIC "-//W3C//DTD SVG 1.1//EN" "http://www.w3.org/Graphics/SVG/1.1/DTD/svg11.dtd">
<svg width="192pt" height="192pt" viewBox="0 0 192 192" version="1.1" xmlns="http://www.w3.org/2000/svg">
<g id="#ff3661ff">
<path fill="#ff3661" opacity="1.00" d=" M 38.36 21.52 C 42.82 20.40 47.45 20.77 52.00 20.73 C 83.33 20.74 114.66 20.73 145.99 20.73 C 156.13 20.44 165.93 27.59 168.67 37.35 C 169.94 41.29 165.88 45.23 161.98 44.19 C 158.99 43.56 158.16 40.35 156.77 38.09 C 154.63 33.78 149.67 31.63 145.02 31.82 C 111.67 31.86 78.31 31.77 44.96 31.85 C 37.97 31.57 31.67 37.90 32.22 44.92 C 32.23 78.64 32.17 112.36 32.25 146.07 C 32.06 152.82 38.25 158.78 44.99 158.33 C 78.67 158.32 112.34 158.34 146.01 158.31 C 150.42 158.39 154.95 156.00 156.89 151.96 C 158.22 149.72 159.08 146.49 162.09 146.05 C 165.88 145.04 169.79 148.87 168.72 152.67 C 166.13 162.58 156.18 169.79 145.99 169.54 C 112.00 169.54 78.01 169.59 44.02 169.51 C 31.64 169.57 20.78 158.41 21.06 146.06 C 21.03 112.02 21.01 77.97 21.08 43.93 C 20.99 33.69 28.50 24.12 38.36 21.52 Z" />
<path fill="#ff3661" opacity="1.00" d=" M 162.38 52.42 C 165.94 51.04 170.10 54.18 169.80 57.97 C 169.85 82.95 169.97 107.95 169.75 132.92 C 169.82 139.63 158.79 139.67 158.68 133.00 C 158.38 108.68 158.68 84.33 158.54 59.99 C 158.31 57.02 159.15 53.39 162.38 52.42 Z" />
<path fill="#ff3661" opacity="1.00" d=" M 54.36 84.53 C 61.68 81.58 70.32 88.22 69.39 96.03 C 69.06 104.34 58.31 109.51 51.72 104.29 C 44.35 99.62 46.06 87.14 54.36 84.53 Z" />
<path fill="#ff3661" opacity="1.00" d=" M 92.29 84.34 C 100.70 81.38 109.47 90.77 106.09 98.95 C 103.56 106.95 91.78 109.02 86.81 102.18 C 81.71 96.43 84.86 86.24 92.29 84.34 Z" />
<path fill="#ff3661" opacity="1.00" d=" M 129.34 84.42 C 137.29 81.42 146.12 89.63 143.77 97.77 C 142.21 105.73 131.29 109.23 125.44 103.55 C 118.91 98.33 121.30 86.66 129.34 84.42 Z" />
</g>
</svg>
