<?xml version="1.0" encoding="UTF-8" ?>
<!DOCTYPE svg PUBLIC "-//W3C//DTD SVG 1.1//EN" "http://www.w3.org/Graphics/SVG/1.1/DTD/svg11.dtd">
<svg width="192pt" height="192pt" viewBox="0 0 192 192" version="1.1" xmlns="http://www.w3.org/2000/svg">
<g id="#ff3661ff">
<path fill="#ff3661" opacity="1.00" d=" M 40.27 21.31 C 75.76 19.97 111.42 21.11 146.98 20.73 C 159.55 20.19 171.02 31.37 170.82 43.94 C 170.88 77.98 170.87 112.02 170.83 146.06 C 171.16 158.34 160.34 169.45 148.06 169.51 C 113.69 169.58 79.31 169.56 44.94 169.51 C 32.61 169.50 21.78 158.37 22.06 146.04 C 22.04 112.01 22.02 77.97 22.08 43.94 C 21.97 33.38 30.00 23.55 40.27 21.31 M 42.27 32.34 C 37.22 33.74 33.18 38.59 33.29 43.92 C 33.24 77.97 33.27 112.02 33.28 146.06 C 33.03 152.81 39.29 158.78 46.01 158.33 C 79.67 158.33 113.33 158.33 146.99 158.32 C 153.68 158.71 159.80 152.75 159.65 146.08 C 159.70 112.03 159.72 77.97 159.64 43.92 C 159.72 36.88 152.87 31.23 146.01 31.82 C 111.44 32.19 76.77 31.11 42.27 32.34 Z" />
<path fill="#ff3661" opacity="1.00" d=" M 56.92 79.98 C 64.03 68.51 81.40 68.30 91.71 75.28 C 100.53 82.79 100.05 95.72 106.09 104.95 C 111.15 111.39 120.88 112.33 127.97 108.95 C 130.75 107.02 129.73 102.48 126.86 101.16 C 120.84 98.09 113.10 98.90 107.97 94.03 C 101.85 87.56 104.25 74.86 113.20 72.24 C 122.74 68.53 138.74 70.68 139.52 83.35 C 136.25 83.85 132.97 84.28 129.68 84.58 C 128.84 78.53 121.38 77.20 116.79 79.86 C 113.87 81.88 114.04 87.24 117.57 88.54 C 123.16 90.73 129.59 90.75 134.67 94.24 C 142.19 99.44 141.50 113.15 132.59 116.57 C 122.69 120.26 110.67 120.15 101.55 114.45 C 91.26 107.21 92.30 92.97 85.71 83.27 C 80.80 76.49 68.58 77.54 65.56 85.62 C 62.56 93.04 62.62 103.33 69.31 108.76 C 75.43 112.89 83.30 109.49 88.28 105.10 C 89.48 107.98 90.56 110.91 91.44 113.90 C 81.68 120.28 66.98 121.59 58.42 112.57 C 51.43 103.38 51.71 89.96 56.92 79.98 Z" />
</g>
</svg>
