<?xml version="1.0" encoding="UTF-8" ?>
<!DOCTYPE svg PUBLIC "-//W3C//DTD SVG 1.1//EN" "http://www.w3.org/Graphics/SVG/1.1/DTD/svg11.dtd">
<svg width="192pt" height="192pt" viewBox="0 0 192 192" version="1.1" xmlns="http://www.w3.org/2000/svg">
<g id="#1ab0ffff">
<path fill="#1ab0ff" opacity="1.00" d=" M 84.41 14.53 C 118.13 9.20 153.68 27.73 168.85 58.25 C 184.67 88.09 179.19 127.39 155.69 151.68 C 132.26 177.44 91.76 185.01 60.58 169.52 C 28.92 154.89 9.38 118.51 14.89 84.02 C 19.33 48.82 49.22 18.97 84.41 14.53 M 87.37 25.45 C 63.26 28.09 41.42 44.36 31.52 66.43 C 18.19 94.77 26.75 131.25 51.46 150.55 C 77.40 172.46 119.15 171.17 143.68 147.69 C 167.55 126.63 173.64 88.83 157.74 61.29 C 144.34 36.53 115.31 21.72 87.37 25.45 Z" />
<path fill="#1ab0ff" opacity="1.00" d=" M 97.18 51.03 C 97.91 48.42 102.26 49.35 101.72 52.06 C 101.98 62.69 101.55 73.35 101.92 83.97 C 104.84 87.02 110.11 84.81 114.00 85.46 C 117.03 86.01 122.52 83.75 123.44 87.98 C 114.69 105.56 105.29 122.84 96.19 140.25 C 95.57 142.30 93.27 141.61 91.79 141.11 C 91.27 130.80 91.81 120.47 91.43 110.17 C 91.60 108.79 90.33 107.92 89.08 107.94 C 82.81 107.51 76.51 108.14 70.25 107.68 C 68.15 107.31 68.29 104.77 69.34 103.39 C 78.62 85.94 87.85 68.45 97.18 51.03 Z" />
</g>
</svg>
