<?xml version="1.0" encoding="UTF-8" ?>
<!DOCTYPE svg PUBLIC "-//W3C//DTD SVG 1.1//EN" "http://www.w3.org/Graphics/SVG/1.1/DTD/svg11.dtd">
<svg width="192pt" height="192pt" viewBox="0 0 192 192" version="1.1" xmlns="http://www.w3.org/2000/svg">
<g id="#99898cff">
<path fill="#99898c" opacity="1.00" d=" M 66.22 44.56 C 74.32 31.09 86.81 20.43 101.08 13.97 C 122.54 14.62 143.38 25.32 157.39 41.50 C 127.90 30.59 95.22 33.66 66.22 44.56 Z" />
<path fill="#99898c" opacity="1.00" d=" M 28.27 49.35 C 40.60 31.30 60.31 18.32 81.93 14.78 C 74.72 21.28 67.53 27.88 61.75 35.73 C 48.10 53.22 40.81 74.82 37.95 96.63 C 30.82 84.26 26.79 70.13 25.59 55.93 C 25.10 53.37 27.02 51.35 28.27 49.35 Z" />
<path fill="#99898c" opacity="1.00" d=" M 127.77 40.20 C 142.39 43.40 156.69 49.37 168.75 58.27 C 180.28 79.78 180.98 106.84 170.78 129.01 C 167.73 95.31 150.54 64.60 127.77 40.20 Z" />
<path fill="#99898c" opacity="1.00" d=" M 103.42 79.58 C 99.17 74.57 100.13 67.17 104.17 62.35 C 101.83 75.64 117.22 87.88 129.35 80.94 C 124.60 92.11 108.96 87.80 103.42 79.58 Z" />
<path fill="#99898c" opacity="1.00" d=" M 20.16 126.90 C 12.56 108.12 11.87 86.38 19.18 67.41 C 24.26 98.54 41.58 125.85 61.47 149.66 C 48.12 144.68 35.05 138.72 23.14 130.84 C 21.61 130.01 20.74 128.48 20.16 126.90 Z" />
<path fill="#99898c" opacity="1.00" d=" M 83.72 80.00 C 83.63 75.22 85.88 70.83 88.86 67.24 C 84.57 88.26 110.04 106.75 128.54 95.71 C 125.62 100.76 120.91 105.07 115.01 106.11 C 99.63 109.04 83.79 95.52 83.72 80.00 Z" />
<path fill="#99898c" opacity="1.00" d=" M 64.13 98.87 C 61.50 89.70 64.73 79.80 71.17 73.00 C 70.20 80.37 69.80 88.17 72.83 95.15 C 77.60 106.48 88.35 114.78 100.03 118.06 C 109.53 120.72 119.38 117.60 127.62 112.80 C 122.24 125.98 105.85 131.69 92.83 127.22 C 79.22 123.56 67.06 113.04 64.13 98.87 Z" />
<path fill="#99898c" opacity="1.00" d=" M 151.78 121.73 C 154.69 116.13 156.59 110.08 159.30 104.39 C 161.62 116.45 163.61 128.73 163.11 141.06 C 163.22 143.22 161.59 144.82 160.41 146.44 C 146.52 164.13 125.10 176.05 102.54 177.35 C 123.16 163.24 141.01 144.45 151.78 121.73 Z" />
<path fill="#99898c" opacity="1.00" d=" M 32.57 147.39 C 60.91 159.12 92.43 159.43 122.27 154.28 C 112.09 163.56 100.55 171.53 88.02 177.26 C 66.51 175.53 45.96 164.29 32.57 147.39 Z" />
</g>
</svg>
