<?xml version="1.0" encoding="UTF-8" ?>
<!DOCTYPE svg PUBLIC "-//W3C//DTD SVG 1.1//EN" "http://www.w3.org/Graphics/SVG/1.1/DTD/svg11.dtd">
<svg width="192pt" height="192pt" viewBox="0 0 192 192" version="1.1" xmlns="http://www.w3.org/2000/svg">
<g id="#fa8b33ff">
<path fill="#fa8b33" opacity="1.00" d=" M 83.40 12.50 C 103.60 9.76 124.74 14.86 141.43 26.56 C 168.92 45.32 182.81 81.77 174.15 114.01 C 165.51 149.02 131.89 175.41 95.98 176.44 C 71.32 176.64 46.66 176.51 22.00 176.49 C 17.14 176.95 14.22 170.76 17.14 167.06 C 21.96 158.43 30.61 148.61 24.71 138.31 C 11.09 116.57 8.23 88.54 17.62 64.62 C 27.84 36.93 54.19 16.27 83.40 12.50 M 59.35 32.37 C 40.57 42.98 27.14 62.58 24.26 83.98 C 21.74 100.69 25.80 118.04 34.67 132.33 C 40.63 142.52 38.71 155.56 31.92 164.84 C 52.62 165.07 73.32 164.98 94.02 164.89 C 119.26 164.53 143.75 150.09 156.08 128.04 C 171.88 101.27 166.12 64.59 143.71 43.29 C 122.16 21.34 85.81 16.89 59.35 32.37 Z" />
<path fill="#fa8b33" opacity="1.00" d=" M 86.33 40.40 C 103.70 37.53 122.21 43.94 134.13 56.89 C 146.66 69.99 151.74 89.60 147.23 107.15 C 143.19 123.94 130.53 138.30 114.44 144.55 C 98.11 151.13 78.61 148.90 64.18 138.81 C 49.30 128.77 40.09 110.97 40.59 93.01 C 40.54 67.44 61.01 43.92 86.33 40.40 M 89.08 54.09 C 81.10 63.49 78.99 76.35 78.13 88.28 C 89.17 88.36 100.21 88.32 111.25 88.29 C 110.38 76.29 108.30 63.25 100.10 53.90 C 97.32 50.23 91.78 50.45 89.08 54.09 M 52.22 88.30 C 57.09 88.34 61.96 88.33 66.83 88.31 C 67.33 77.37 69.70 66.56 73.90 56.44 C 62.19 62.90 53.97 75.06 52.22 88.30 M 115.49 56.57 C 119.84 66.62 121.90 77.45 122.71 88.33 C 127.54 88.28 132.36 88.34 137.19 88.27 C 135.37 75.11 127.24 62.88 115.49 56.57 M 52.23 99.66 C 53.89 112.95 62.22 125.16 73.98 131.56 C 69.57 121.49 67.45 110.60 66.73 99.67 C 61.90 99.66 57.07 99.66 52.23 99.66 M 78.15 99.69 C 79.02 111.82 81.12 125.08 89.59 134.41 C 92.35 137.82 97.48 137.50 100.10 134.10 C 108.26 124.73 110.42 111.71 111.22 99.69 C 100.20 99.67 89.17 99.66 78.15 99.69 M 122.62 99.70 C 122.02 110.58 119.83 121.39 115.50 131.41 C 127.20 125.10 135.51 112.92 137.09 99.71 C 132.26 99.66 127.44 99.67 122.62 99.70 Z" />
</g>
</svg>
