<?xml version="1.0" encoding="UTF-8" ?>
<!DOCTYPE svg PUBLIC "-//W3C//DTD SVG 1.1//EN" "http://www.w3.org/Graphics/SVG/1.1/DTD/svg11.dtd">
<svg width="192pt" height="192pt" viewBox="0 0 192 192" version="1.1" xmlns="http://www.w3.org/2000/svg">
<g id="#9f8688ff">
<path fill="#9f8688" opacity="1.00" d=" M 64.18 42.55 C 72.35 29.11 84.80 18.44 99.07 11.95 C 120.54 12.67 141.52 23.28 155.41 39.61 C 125.97 28.44 93.21 31.77 64.18 42.55 Z" />
<path fill="#9f8688" opacity="1.00" d=" M 23.59 51.94 C 35.18 31.36 56.65 16.62 79.94 12.80 C 55.01 32.81 39.42 62.88 35.98 94.54 C 28.48 81.69 24.25 66.79 23.59 51.94 Z" />
<path fill="#9f8688" opacity="1.00" d=" M 125.83 38.22 C 137.97 40.64 149.53 45.61 160.21 51.80 C 163.20 53.75 167.04 55.21 168.23 58.91 C 177.84 79.77 179.16 105.60 168.66 126.25 C 165.55 92.82 148.32 62.49 125.83 38.22 Z" />
<path fill="#9f8688" opacity="1.00" d=" M 18.47 125.63 C 10.62 106.72 9.73 84.66 17.20 65.50 C 22.28 96.58 39.57 123.82 59.40 147.59 C 46.05 142.71 33.04 136.68 21.15 128.85 C 19.89 128.12 18.94 127.01 18.47 125.63 Z" />
<path fill="#9f8688" opacity="1.00" d=" M 63.24 82.10 C 66.33 82.04 69.43 82.00 72.52 82.08 C 71.93 87.66 74.35 94.51 70.01 99.03 C 65.01 103.52 55.69 100.22 55.86 93.04 C 56.67 93.03 58.28 92.99 59.09 92.98 C 59.36 97.45 65.16 99.51 68.07 96.08 C 69.82 92.81 68.80 88.90 68.85 85.36 C 66.97 85.36 65.08 85.30 63.21 85.12 C 63.22 84.37 63.24 82.85 63.24 82.10 Z" />
<path fill="#9f8688" opacity="1.00" d=" M 81.32 82.14 C 82.57 82.06 83.82 81.99 85.08 81.91 C 88.09 88.23 90.75 94.71 93.63 101.10 C 92.70 101.10 90.83 101.10 89.90 101.10 C 89.20 99.84 88.49 98.58 87.81 97.32 C 84.71 97.35 81.60 97.37 78.50 97.38 C 77.95 98.61 77.39 99.83 76.83 101.06 C 75.57 101.06 74.31 101.05 73.06 101.04 C 75.80 94.74 78.62 88.46 81.32 82.14 M 83.21 86.46 C 82.10 88.91 81.05 91.38 79.99 93.86 C 82.23 93.91 84.47 93.96 86.72 94.00 C 85.68 91.43 84.52 88.90 83.21 86.46 Z" />
<path fill="#9f8688" opacity="1.00" d=" M 93.19 82.04 C 94.47 82.02 95.75 82.01 97.03 81.99 C 98.99 86.73 100.72 91.56 102.58 96.34 C 104.76 91.70 106.35 86.82 108.23 82.07 C 109.55 82.04 110.87 82.02 112.18 81.99 C 109.94 88.06 107.43 94.02 104.99 100.00 C 104.45 101.77 102.19 100.89 100.87 101.17 C 98.33 94.79 95.68 88.45 93.19 82.04 Z" />
<path fill="#9f8688" opacity="1.00" d=" M 119.30 82.10 C 120.57 82.04 121.84 81.98 123.12 81.92 C 126.11 88.24 128.78 94.71 131.64 101.09 C 130.71 101.10 128.86 101.13 127.93 101.14 C 127.23 99.86 126.48 98.61 125.78 97.33 C 122.70 97.35 119.62 97.38 116.53 97.39 C 115.97 98.64 115.40 99.88 114.83 101.12 C 113.56 101.08 112.30 101.04 111.04 101.00 C 113.81 94.71 116.59 88.42 119.30 82.10 M 121.16 86.63 C 120.08 89.03 119.06 91.45 118.01 93.87 C 120.23 93.91 122.46 93.95 124.68 94.00 C 123.65 91.48 122.60 88.95 121.16 86.63 Z" />
<path fill="#9f8688" opacity="1.00" d=" M 150.10 119.07 C 152.95 113.74 154.51 107.84 157.35 102.53 C 159.60 114.56 161.63 126.78 161.12 139.06 C 161.26 141.23 159.58 142.81 158.40 144.43 C 144.58 162.06 123.24 173.99 100.76 175.31 C 121.39 160.92 139.42 142.06 150.10 119.07 Z" />
<path fill="#9f8688" opacity="1.00" d=" M 30.59 145.28 C 58.82 157.27 90.42 157.34 120.23 152.30 C 110.09 161.61 98.51 169.49 86.03 175.29 C 64.54 173.45 43.82 162.36 30.59 145.28 Z" />
</g>
</svg>
