<?xml version="1.0" encoding="UTF-8" ?>
<!DOCTYPE svg PUBLIC "-//W3C//DTD SVG 1.1//EN" "http://www.w3.org/Graphics/SVG/1.1/DTD/svg11.dtd">
<svg width="192pt" height="192pt" viewBox="0 0 192 192" version="1.1" xmlns="http://www.w3.org/2000/svg">
<g id="#5aa6c0ff">
<path fill="#5aa6c0" opacity="1.00" d=" M 37.16 35.11 C 47.74 21.70 65.07 14.41 82.00 14.98 C 100.34 15.85 118.19 25.03 129.82 39.18 C 135.01 45.02 129.65 55.13 122.01 54.60 C 114.39 53.85 109.91 46.50 103.02 43.95 C 95.02 40.52 86.02 44.54 79.96 49.96 C 72.31 57.06 70.77 68.32 72.00 78.21 C 74.63 73.95 75.17 68.54 78.86 64.89 C 81.84 61.46 86.53 60.14 90.95 60.24 C 107.98 60.31 125.00 60.20 142.03 60.28 C 146.13 60.18 150.05 63.82 149.79 68.02 C 149.62 77.27 144.21 88.06 134.02 89.11 C 124.04 89.64 113.98 89.40 103.98 89.25 C 98.32 88.65 97.73 79.62 103.32 78.44 C 113.18 77.77 123.12 78.77 132.96 77.91 C 136.28 77.57 137.02 73.92 138.04 71.36 C 122.02 71.45 105.99 71.28 89.97 71.43 C 87.11 70.99 85.88 73.91 85.07 76.10 C 82.51 83.04 79.85 89.96 77.55 96.99 C 78.61 102.25 82.20 106.64 85.10 111.05 C 92.01 99.75 106.60 105.21 117.32 103.35 C 121.06 100.71 117.97 95.18 121.40 92.35 C 123.94 90.11 128.54 90.86 130.02 94.03 C 132.47 101.86 128.11 111.58 120.11 114.19 C 112.03 115.85 103.64 113.70 95.59 115.49 C 94.89 117.11 94.12 118.69 93.27 120.23 C 100.63 126.89 109.75 133.12 120.09 132.79 C 130.58 132.13 138.42 123.22 141.76 113.85 C 144.22 108.49 142.91 102.37 144.79 96.89 C 146.78 91.67 153.75 89.82 158.42 92.52 C 162.45 94.67 163.86 99.48 164.36 103.71 C 166.31 121.41 161.42 139.67 151.33 154.29 C 143.10 166.15 129.70 174.82 115.08 175.63 C 98.56 176.90 82.17 170.86 68.96 161.19 C 41.07 140.90 24.63 106.34 25.32 71.99 C 25.56 58.93 28.99 45.52 37.16 35.11 M 52.02 36.06 C 40.67 44.98 36.46 60.09 36.57 74.00 C 36.65 106.77 53.95 139.71 82.47 156.42 C 95.67 163.97 112.70 167.63 126.95 160.85 C 143.05 152.59 151.49 134.18 152.94 116.82 C 148.58 128.67 139.66 139.83 127.00 143.13 C 114.21 146.66 100.98 140.96 90.97 133.16 C 69.59 116.89 56.94 88.88 61.25 62.09 C 64.21 43.30 83.38 28.74 102.30 31.65 C 86.46 23.49 65.95 24.55 52.02 36.06 Z" />
</g>
</svg>
