<?xml version="1.0" encoding="UTF-8" ?>
<!DOCTYPE svg PUBLIC "-//W3C//DTD SVG 1.1//EN" "http://www.w3.org/Graphics/SVG/1.1/DTD/svg11.dtd">
<svg width="192pt" height="192pt" viewBox="0 0 192 192" version="1.1" xmlns="http://www.w3.org/2000/svg">
<g id="#496fc1ff">
<path fill="#496fc1" opacity="1.00" d=" M 31.36 25.52 C 41.44 23.85 51.80 25.16 61.99 24.74 C 71.51 24.15 80.26 32.47 80.19 41.99 C 80.33 62.00 80.13 82.02 80.28 102.02 C 80.10 105.57 83.49 108.52 86.96 108.18 C 109.67 108.26 132.38 108.04 155.09 108.23 C 163.91 108.39 171.62 116.13 171.88 124.93 C 172.23 132.95 172.24 141.02 171.88 149.04 C 171.54 158.17 163.14 166.02 153.98 165.59 C 114.66 165.57 75.34 165.62 36.02 165.52 C 26.86 165.53 18.86 157.19 19.08 148.07 C 19.06 112.69 19.07 77.31 19.13 41.93 C 19.07 34.56 24.32 27.61 31.36 25.52 M 34.30 36.43 C 31.55 37.23 30.08 40.21 30.33 42.94 C 30.34 77.96 30.28 112.99 30.37 148.01 C 30.17 151.55 33.51 154.49 36.97 154.24 C 75.99 154.26 115.01 154.26 154.03 154.17 C 157.48 154.44 160.63 151.47 160.53 148.01 C 160.67 140.68 160.64 133.33 160.55 126.00 C 160.74 122.44 157.50 119.35 153.97 119.60 C 131.33 119.52 108.68 119.66 86.03 119.52 C 76.83 119.57 68.75 111.22 68.98 102.05 C 68.88 82.34 69.03 62.63 68.92 42.92 C 69.25 39.55 66.60 35.98 63.03 36.19 C 53.46 36.27 43.84 35.80 34.30 36.43 Z" />
<path fill="#496fc1" opacity="1.00" d=" M 41.40 45.39 C 46.06 43.88 48.56 51.51 43.88 53.03 C 38.93 55.27 36.06 46.55 41.40 45.39 Z" />
<path fill="#496fc1" opacity="1.00" d=" M 55.33 45.31 C 60.22 44.15 61.90 52.26 57.05 53.26 C 51.93 54.66 50.16 46.12 55.33 45.31 Z" />
<path fill="#496fc1" opacity="1.00" d=" M 40.40 57.49 C 44.83 54.64 49.04 62.11 44.46 64.46 C 40.02 67.07 35.90 59.94 40.40 57.49 Z" />
<path fill="#496fc1" opacity="1.00" d=" M 54.33 57.33 C 59.12 54.77 62.47 62.92 57.67 64.65 C 53.06 66.76 49.77 59.32 54.33 57.33 Z" />
<path fill="#496fc1" opacity="1.00" d=" M 146.24 127.48 C 151.29 127.04 151.83 135.61 146.68 135.59 C 141.38 136.31 140.81 127.36 146.24 127.48 Z" />
<path fill="#496fc1" opacity="1.00" d=" M 130.36 128.20 C 134.68 124.92 139.43 132.27 134.92 135.00 C 130.76 137.94 126.00 130.99 130.36 128.20 Z" />
<path fill="#496fc1" opacity="1.00" d=" M 131.39 139.37 C 136.34 137.46 139.00 145.72 133.97 147.21 C 129.05 148.87 126.43 140.81 131.39 139.37 Z" />
<path fill="#496fc1" opacity="1.00" d=" M 145.30 139.29 C 150.56 137.64 152.44 146.59 147.02 147.31 C 142.11 148.29 140.43 140.34 145.30 139.29 Z" />
</g>
</svg>
