<?xml version="1.0" encoding="UTF-8" ?>
<!DOCTYPE svg PUBLIC "-//W3C//DTD SVG 1.1//EN" "http://www.w3.org/Graphics/SVG/1.1/DTD/svg11.dtd">
<svg width="192pt" height="192pt" viewBox="0 0 192 192" version="1.1" xmlns="http://www.w3.org/2000/svg">
<g id="#ff8a1fff">
<path fill="#ff8a1f" opacity="1.00" d=" M 17.09 27.92 C 17.04 22.12 22.15 16.82 27.97 16.77 C 38.97 16.69 49.98 16.75 60.98 16.74 C 72.44 16.63 83.14 25.37 85.49 36.56 C 86.78 43.20 86.01 50.02 86.20 56.74 C 91.35 55.90 96.62 55.84 101.77 56.77 C 101.85 50.83 101.50 44.88 101.97 38.95 C 103.27 27.05 113.99 17.03 126.01 16.77 C 137.01 16.67 148.01 16.76 159.01 16.73 C 165.13 16.39 170.92 21.75 170.81 27.93 C 170.88 38.97 170.88 50.02 170.81 61.07 C 170.82 72.09 162.66 82.39 152.00 85.07 C 144.99 86.74 137.73 85.92 130.60 86.13 C 131.55 90.77 131.32 95.52 131.04 100.23 C 136.96 100.40 142.90 99.98 148.81 100.52 C 160.77 101.92 170.74 112.85 170.81 124.93 C 170.91 135.97 170.87 147.02 170.84 158.07 C 171.09 164.40 165.24 169.87 158.98 169.53 C 148.00 169.55 137.02 169.61 126.04 169.49 C 114.25 169.21 103.70 159.64 102.06 148.01 C 101.41 142.09 101.88 136.11 101.73 130.17 C 96.59 131.02 91.34 130.99 86.20 130.16 C 85.90 138.58 87.48 147.60 83.48 155.41 C 79.41 163.84 70.33 169.52 60.97 169.53 C 49.99 169.53 38.99 169.60 28.01 169.49 C 22.06 169.39 16.91 164.03 17.06 158.08 C 17.00 147.38 17.06 136.67 17.04 125.97 C 16.87 116.23 22.83 106.74 31.70 102.71 C 39.62 98.87 48.65 100.72 57.11 100.25 C 56.50 95.48 56.47 90.64 57.29 85.89 C 51.24 85.75 45.17 86.12 39.13 85.67 C 27.04 84.39 17.10 73.21 17.09 61.08 C 17.02 50.02 17.04 38.97 17.09 27.92 M 28.37 30.97 C 28.26 41.00 28.29 51.04 28.35 61.07 C 28.41 68.26 34.84 74.59 42.01 74.62 C 48.54 74.75 55.07 74.65 61.59 74.66 C 64.91 69.35 69.26 64.60 74.71 61.45 C 75.03 54.95 74.83 48.44 74.84 41.93 C 74.94 34.66 68.43 27.88 61.07 28.12 C 51.03 28.15 40.98 28.06 30.94 28.16 C 29.27 27.98 28.19 29.40 28.37 30.97 M 113.10 41.93 C 113.11 48.26 112.97 54.60 113.16 60.93 C 118.11 64.86 123.11 69.03 126.33 74.65 C 132.88 74.63 139.44 74.75 145.99 74.60 C 153.15 74.50 159.50 68.16 159.53 60.99 C 159.59 51.04 159.60 41.09 159.53 31.15 C 159.71 29.67 158.61 27.97 156.98 28.16 C 146.96 28.06 136.95 28.15 126.93 28.12 C 119.56 27.84 112.91 34.60 113.10 41.93 M 89.44 67.70 C 76.08 69.85 65.92 83.58 68.12 97.01 C 69.64 110.27 82.64 120.85 95.95 119.49 C 109.70 118.78 121.15 105.63 119.99 91.91 C 119.51 76.89 104.21 64.69 89.44 67.70 M 126.72 111.64 C 123.38 117.22 118.88 122.17 113.23 125.45 C 112.97 131.99 113.05 138.54 113.14 145.09 C 113.37 152.18 119.88 158.32 126.97 158.17 C 136.67 158.18 146.38 158.20 156.08 158.16 C 157.97 158.53 159.81 156.98 159.53 155.03 C 159.57 145.02 159.60 135.02 159.52 125.02 C 159.37 117.94 153.02 111.72 145.96 111.62 C 139.54 111.57 133.13 111.59 126.72 111.64 M 28.37 125.01 C 28.27 135.01 28.29 145.03 28.35 155.03 C 28.07 157.08 30.00 158.51 31.92 158.18 C 41.62 158.22 51.32 158.21 61.02 158.18 C 68.11 158.26 74.52 152.10 74.80 145.03 C 74.91 138.53 74.96 132.01 74.73 125.51 C 69.03 122.18 64.58 117.15 61.12 111.60 C 54.75 111.61 48.37 111.54 42.00 111.61 C 34.89 111.63 28.50 117.89 28.37 125.01 Z" />
</g>
</svg>
