<?xml version="1.0" encoding="UTF-8" ?>
<!DOCTYPE svg PUBLIC "-//W3C//DTD SVG 1.1//EN" "http://www.w3.org/Graphics/SVG/1.1/DTD/svg11.dtd">
<svg width="192pt" height="192pt" viewBox="0 0 192 192" version="1.1" xmlns="http://www.w3.org/2000/svg">
<g id="#43c3d9ff">
<path fill="#43c3d9" opacity="1.00" d=" M 85.32 14.39 C 105.78 11.67 127.17 17.01 143.84 29.18 C 165.30 44.48 178.55 70.62 177.79 97.01 C 177.54 100.58 178.43 105.49 174.62 107.52 C 170.96 109.93 165.69 106.31 166.37 102.06 C 168.15 82.28 161.34 61.85 147.60 47.43 C 134.50 33.27 115.35 24.68 96.00 25.10 C 77.13 24.68 58.37 32.75 45.35 46.35 C 30.98 60.83 23.77 81.75 25.48 102.02 C 26.15 108.44 15.84 109.82 14.54 103.65 C 12.16 82.54 18.83 60.65 32.20 44.18 C 45.23 27.94 64.64 16.98 85.32 14.39 Z" />
<path fill="#43c3d9" opacity="1.00" d=" M 47.60 97.62 C 57.99 89.23 72.06 87.40 84.99 88.51 C 89.64 88.75 94.20 90.85 98.88 89.65 C 112.87 86.98 128.32 87.49 140.68 95.27 C 149.49 100.85 154.11 110.57 160.82 118.18 C 163.11 121.44 167.01 118.28 169.92 117.75 C 173.76 116.10 178.24 119.96 177.37 124.01 C 171.83 138.39 156.46 148.46 141.00 147.14 C 123.06 145.58 106.26 135.46 95.79 120.91 C 85.08 135.56 68.13 145.63 49.99 147.22 C 35.11 148.45 20.14 138.99 14.80 125.06 C 13.60 122.03 15.73 118.21 19.00 117.75 C 22.58 116.98 25.93 120.68 29.36 119.43 C 35.93 112.58 40.41 103.90 47.60 97.62 M 49.34 112.36 C 43.92 118.63 40.11 127.01 32.25 130.62 C 37.56 134.75 44.38 136.84 51.09 135.89 C 67.57 133.53 82.55 123.00 90.26 108.22 C 92.33 103.28 99.43 103.85 101.33 108.62 C 109.24 123.26 124.32 133.98 140.94 135.82 C 147.41 136.66 153.88 134.44 159.02 130.58 C 147.75 124.84 144.47 110.75 133.81 104.25 C 126.06 99.79 116.81 98.88 108.05 99.68 C 101.91 100.17 95.72 102.47 89.58 100.59 C 75.61 97.83 57.83 99.29 49.34 112.36 Z" />
<path fill="#43c3d9" opacity="1.00" d=" M 48.30 151.36 C 51.49 150.11 54.19 152.67 56.64 154.31 C 78.65 169.57 109.50 170.21 132.29 156.23 C 135.57 153.49 141.24 155.62 141.50 159.99 C 142.09 164.49 137.27 166.36 134.08 168.13 C 106.67 182.88 70.77 180.08 46.34 160.68 C 43.18 158.14 44.49 152.50 48.30 151.36 Z" />
</g>
</svg>
