<?xml version="1.0" encoding="UTF-8" ?>
<!DOCTYPE svg PUBLIC "-//W3C//DTD SVG 1.1//EN" "http://www.w3.org/Graphics/SVG/1.1/DTD/svg11.dtd">
<svg width="192pt" height="192pt" viewBox="0 0 192 192" version="1.1" xmlns="http://www.w3.org/2000/svg">
<g id="#c38f6bff">
<path fill="#c38f6b" opacity="1.00" d=" M 148.34 21.43 C 154.74 18.90 162.64 22.68 164.89 29.13 C 167.49 35.67 163.41 43.74 156.73 45.74 C 150.79 47.94 143.71 44.57 141.10 38.93 C 138.12 32.38 141.38 23.77 148.34 21.43 Z" />
<path fill="#c38f6b" opacity="1.00" d=" M 23.34 43.46 C 31.64 40.53 40.51 49.74 36.96 57.86 C 34.22 65.78 22.22 67.42 17.71 60.26 C 13.16 54.56 16.54 45.48 23.34 43.46 Z" />
<path fill="#c38f6b" opacity="1.00" d=" M 86.32 49.39 C 100.01 46.81 114.78 51.52 124.42 61.59 C 134.94 72.17 139.07 88.54 134.77 102.84 C 130.82 116.92 119.03 128.40 104.87 132.02 C 90.10 136.14 73.37 131.27 62.97 120.04 C 52.12 108.89 48.55 91.46 53.89 76.87 C 58.81 62.82 71.65 51.93 86.32 49.39 M 87.34 61.43 C 75.58 63.97 65.79 74.06 63.90 85.99 C 61.66 98.17 67.86 111.27 78.66 117.31 C 91.01 124.77 108.37 121.68 117.37 110.41 C 126.73 99.68 126.59 82.39 117.32 71.66 C 110.25 63.06 98.21 58.87 87.34 61.43 Z" />
<path fill="#c38f6b" opacity="1.00" d=" M 162.35 55.51 C 168.90 53.07 176.52 59.87 174.59 66.66 C 173.34 73.64 163.49 76.35 158.65 71.36 C 153.58 66.84 155.78 57.30 162.35 55.51 Z" />
<path fill="#c38f6b" opacity="1.00" d=" M 140.32 124.42 C 146.22 122.65 153.16 126.14 154.89 132.12 C 157.37 138.86 152.04 146.75 145.01 147.43 C 139.12 148.26 133.24 143.78 132.09 138.04 C 130.76 132.28 134.66 125.98 140.32 124.42 Z" />
<path fill="#c38f6b" opacity="1.00" d=" M 47.41 138.56 C 56.43 136.70 65.81 143.89 66.50 153.03 C 67.63 161.95 60.04 170.79 51.03 170.83 C 42.93 171.53 35.07 165.09 34.07 157.05 C 32.54 148.59 38.95 139.82 47.41 138.56 Z" />
</g>
</svg>
