<?xml version="1.0" encoding="UTF-8" ?>
<!DOCTYPE svg PUBLIC "-//W3C//DTD SVG 1.1//EN" "http://www.w3.org/Graphics/SVG/1.1/DTD/svg11.dtd">
<svg width="192pt" height="192pt" viewBox="0 0 192 192" version="1.1" xmlns="http://www.w3.org/2000/svg">
<g id="#ff8b1fff">
<path fill="#ff8b1f" opacity="1.00" d=" M 85.34 13.43 C 95.12 12.32 105.29 12.39 114.79 15.14 C 121.26 18.07 116.78 28.91 110.00 26.16 C 79.11 19.16 45.25 36.53 32.51 65.42 C 22.39 86.82 24.32 113.13 36.97 133.07 C 40.53 138.85 31.44 145.06 27.32 139.71 C 9.46 113.20 9.85 76.07 27.61 49.60 C 40.39 29.91 62.03 16.29 85.34 13.43 Z" />
<path fill="#ff8b1f" opacity="1.00" d=" M 136.18 18.23 C 138.08 12.22 148.06 14.78 146.82 20.98 C 143.57 33.73 139.37 46.26 135.90 58.96 C 145.04 63.23 153.75 69.38 159.03 78.15 C 161.66 83.20 154.51 88.64 150.38 84.69 C 145.56 78.62 139.87 72.98 132.55 70.04 C 129.27 80.93 126.43 91.98 122.75 102.72 C 120.04 108.30 110.75 104.55 112.51 98.66 C 120.28 71.82 128.16 44.99 136.18 18.23 Z" />
<path fill="#ff8b1f" opacity="1.00" d=" M 117.57 27.59 C 120.78 22.41 129.55 26.62 127.52 32.37 C 121.29 53.47 115.06 74.59 108.59 95.61 C 106.61 101.19 97.11 98.94 97.97 92.98 C 100.10 83.69 103.52 74.72 105.82 65.45 C 95.78 65.10 83.83 68.60 79.92 78.86 C 74.83 89.45 80.58 101.03 78.21 112.00 C 75.92 121.97 68.10 129.25 60.43 135.41 C 53.35 140.89 49.95 149.49 44.18 156.09 C 40.10 160.16 32.86 154.57 35.52 149.57 C 38.80 144.23 42.44 139.11 46.05 133.99 C 51.88 126.23 61.55 121.92 65.98 113.00 C 69.06 107.05 66.96 100.23 66.58 93.94 C 65.60 81.99 69.58 68.86 79.52 61.50 C 87.97 55.24 98.93 53.75 109.18 54.33 C 112.26 45.51 114.18 36.28 117.57 27.59 Z" />
<path fill="#ff8b1f" opacity="1.00" d=" M 153.32 41.40 C 155.58 40.61 158.18 41.52 159.64 43.38 C 179.67 67.51 183.46 103.42 169.50 131.42 C 160.60 149.71 144.67 164.47 125.68 171.79 C 102.19 181.02 74.25 178.71 52.98 164.97 C 47.00 160.57 54.58 150.90 60.39 155.62 C 88.83 173.16 129.14 166.14 149.82 139.86 C 170.58 115.50 171.29 76.82 151.17 51.87 C 147.84 48.81 148.84 42.71 153.32 41.40 Z" />
<path fill="#ff8b1f" opacity="1.00" d=" M 98.36 112.47 C 105.50 110.62 113.54 112.99 118.47 118.51 C 124.59 124.93 125.63 135.45 120.99 142.99 C 116.52 150.77 106.48 154.93 97.86 152.22 C 89.05 149.91 82.54 141.09 82.95 131.99 C 82.92 122.99 89.64 114.59 98.36 112.47 M 101.31 123.40 C 94.40 124.68 91.72 134.37 96.92 139.07 C 101.50 143.96 110.61 141.59 112.26 135.12 C 114.50 128.66 107.93 121.57 101.31 123.40 Z" />
</g>
</svg>
