<?xml version="1.0" encoding="UTF-8" ?>
<!DOCTYPE svg PUBLIC "-//W3C//DTD SVG 1.1//EN" "http://www.w3.org/Graphics/SVG/1.1/DTD/svg11.dtd">
<svg width="192pt" height="192pt" viewBox="0 0 192 192" version="1.1" xmlns="http://www.w3.org/2000/svg">
<g id="#73aa8dff">
<path fill="#73aa8d" opacity="1.00" d=" M 41.17 55.14 C 51.77 52.10 63.35 54.12 72.76 59.71 C 85.43 51.72 102.36 51.82 115.04 59.74 C 126.23 52.89 140.77 51.63 152.72 57.27 C 167.11 63.61 176.85 79.23 175.84 94.98 C 175.39 111.02 163.87 125.81 148.65 130.65 C 137.53 134.38 124.97 132.63 115.02 126.53 C 102.40 134.50 85.45 134.56 72.82 126.59 C 62.63 132.65 49.87 134.42 38.63 130.36 C 22.75 125.05 11.30 108.76 12.15 91.97 C 12.28 75.04 24.87 59.41 41.17 55.14 M 28.69 76.61 C 21.14 86.60 21.62 101.66 29.85 111.11 C 37.68 120.79 52.48 124.35 63.58 118.47 C 51.18 104.42 51.42 81.77 63.56 67.63 C 51.75 61.70 36.24 65.84 28.69 76.61 M 82.08 67.34 C 93.81 82.02 94.31 104.22 81.95 118.71 C 89.48 122.05 98.50 122.24 105.92 118.51 C 93.57 104.29 93.98 81.86 105.89 67.48 C 98.35 64.31 89.65 64.30 82.08 67.34 M 124.22 67.50 C 136.32 81.89 136.48 104.34 124.21 118.66 C 135.56 123.93 150.15 120.87 158.02 111.01 C 166.65 101.05 166.59 84.96 157.90 75.04 C 149.99 65.27 135.56 62.49 124.22 67.50 M 72.24 75.14 C 63.14 85.25 63.66 101.71 72.54 111.81 C 81.52 102.80 82.20 87.33 74.89 77.11 C 74.19 76.32 73.57 74.68 72.24 75.14 M 114.39 75.39 C 105.67 85.51 106.07 101.87 115.04 111.72 C 123.64 102.43 124.48 87.19 117.01 76.99 C 116.36 76.33 115.51 74.31 114.39 75.39 Z" />
</g>
</svg>
