<?xml version="1.0" encoding="UTF-8" ?>
<!DOCTYPE svg PUBLIC "-//W3C//DTD SVG 1.1//EN" "http://www.w3.org/Graphics/SVG/1.1/DTD/svg11.dtd">
<svg width="192pt" height="192pt" viewBox="0 0 192 192" version="1.1" xmlns="http://www.w3.org/2000/svg">
<g id="#f77e5aff">
<path fill="#f77e5a" opacity="1.00" d=" M 65.47 34.94 C 65.29 23.85 74.92 13.77 86.00 13.47 C 107.36 13.27 128.72 13.34 150.08 13.40 C 161.42 13.45 171.41 23.66 171.18 35.01 C 171.26 76.01 171.23 117.00 171.20 158.00 C 171.38 168.24 162.21 177.28 152.01 177.20 C 129.68 177.29 107.34 177.27 85.01 177.21 C 75.07 177.36 65.82 169.03 65.47 159.00 C 65.34 143.22 65.55 127.42 65.41 111.64 C 61.16 111.63 56.92 111.63 52.67 111.65 C 52.39 115.63 53.29 119.89 51.71 123.67 C 50.11 127.50 44.57 128.23 41.79 125.28 C 34.60 118.12 27.63 110.73 20.62 103.39 C 17.70 100.60 17.88 95.58 20.90 92.93 C 27.96 86.00 34.98 79.00 42.19 72.21 C 45.91 68.36 53.01 71.74 52.56 77.00 C 52.38 83.37 53.24 89.90 52.20 96.19 C 47.34 100.12 40.43 94.63 41.12 88.86 C 38.32 92.03 34.40 94.48 32.39 98.17 C 33.71 102.42 38.30 104.94 41.06 108.36 C 41.51 104.84 43.43 100.95 47.41 100.63 C 54.59 100.18 61.81 100.46 69.01 100.46 C 73.12 100.26 77.02 103.67 76.68 107.92 C 76.77 124.28 76.68 140.64 76.66 157.00 C 76.26 161.65 80.20 166.05 84.91 165.91 C 106.96 166.03 129.02 165.95 151.08 165.94 C 155.96 166.33 160.44 162.00 159.89 157.06 C 159.87 116.35 159.95 75.63 159.85 34.92 C 159.99 29.19 154.66 24.26 148.99 24.59 C 128.66 24.58 108.34 24.57 88.01 24.58 C 82.20 24.15 76.60 29.08 76.72 34.98 C 76.74 43.24 76.51 51.51 76.88 59.77 C 81.00 59.88 86.96 58.29 89.18 62.95 C 91.22 66.91 87.31 71.62 83.05 70.85 C 77.27 70.32 67.70 73.26 65.71 65.57 C 65.12 55.39 65.60 45.15 65.47 34.94 Z" />
<path fill="#f77e5a" opacity="1.00" d=" M 95.65 59.00 C 94.82 53.53 101.71 49.36 106.02 52.98 C 114.57 59.78 123.91 65.63 131.87 73.14 C 135.19 75.86 135.46 81.33 132.18 84.19 C 124.24 92.07 115.01 98.45 106.16 105.23 C 102.78 108.16 96.99 106.43 95.86 102.09 C 95.35 98.90 95.63 95.64 95.68 92.42 C 84.29 90.39 72.39 92.68 60.89 91.23 C 56.23 89.07 56.94 81.26 62.12 80.36 C 74.42 79.72 86.78 80.55 99.08 79.83 C 104.39 79.84 107.94 84.96 107.23 90.01 C 111.57 86.60 116.00 83.31 120.10 79.61 C 117.77 74.27 111.23 72.39 107.34 68.25 C 108.28 73.99 103.62 79.18 97.78 78.57 C 93.35 73.33 96.59 65.38 95.65 59.00 Z" />
</g>
</svg>
