<?xml version="1.0" encoding="UTF-8" ?>
<!DOCTYPE svg PUBLIC "-//W3C//DTD SVG 1.1//EN" "http://www.w3.org/Graphics/SVG/1.1/DTD/svg11.dtd">
<svg width="192pt" height="192pt" viewBox="0 0 192 192" version="1.1" xmlns="http://www.w3.org/2000/svg">
<g id="#469db1ff">
<path fill="#469db1" opacity="1.00" d=" M 41.87 45.88 C 54.50 31.62 73.02 22.87 92.03 21.95 C 114.58 20.42 136.93 30.57 151.79 47.38 C 160.04 43.99 171.31 48.20 171.92 57.96 C 172.41 88.98 171.99 120.04 172.13 151.07 C 172.51 155.23 169.23 159.07 165.04 159.24 C 144.03 162.60 123.42 168.75 102.07 169.61 C 76.14 170.95 50.94 163.61 25.57 159.55 C 21.67 159.30 17.93 156.24 18.14 152.10 C 18.17 121.05 18.12 89.98 18.22 58.92 C 18.06 51.47 25.41 45.01 32.79 46.51 C 35.81 46.56 39.75 49.18 41.87 45.88 M 53.76 50.07 C 69.99 53.27 86.42 57.40 103.08 55.89 C 114.84 54.87 126.31 51.94 137.87 49.69 C 115.35 27.97 75.95 27.80 53.76 50.07 M 29.52 57.37 C 28.72 87.86 29.39 118.41 29.18 148.92 C 54.75 153.19 80.32 160.68 106.48 158.25 C 124.92 156.80 142.76 151.69 160.96 148.73 C 160.98 119.13 161.09 89.53 160.91 59.94 C 161.26 55.82 156.30 57.95 154.02 58.16 C 131.11 61.35 108.48 69.44 85.07 66.73 C 66.40 64.60 48.15 59.68 29.52 57.37 Z" />
</g>
</svg>
