<?xml version="1.0" encoding="UTF-8" ?>
<!DOCTYPE svg PUBLIC "-//W3C//DTD SVG 1.1//EN" "http://www.w3.org/Graphics/SVG/1.1/DTD/svg11.dtd">
<svg width="192pt" height="192pt" viewBox="0 0 192 192" version="1.1" xmlns="http://www.w3.org/2000/svg">
<g id="#ff8a1fff">
<path fill="#ff8a1f" opacity="1.00" d=" M 21.22 42.07 C 20.05 31.68 28.60 21.53 39.00 20.84 C 46.98 20.53 54.99 20.62 62.98 20.78 C 72.16 21.13 80.27 28.75 81.37 37.85 C 82.25 44.88 84.43 51.61 86.58 58.31 C 88.80 66.32 84.77 74.55 78.61 79.61 C 75.01 82.42 72.27 88.17 66.97 87.23 C 62.36 86.15 60.95 79.64 64.70 76.73 C 68.33 72.02 75.65 68.76 75.19 61.98 C 73.05 54.77 70.64 47.60 69.72 40.08 C 69.39 36.17 66.07 32.59 62.01 32.63 C 54.67 32.58 47.31 32.47 39.98 32.69 C 35.44 32.99 32.25 37.69 33.16 42.06 C 36.70 74.44 52.96 105.18 77.47 126.59 C 97.70 144.22 123.32 155.71 150.04 158.56 C 154.42 159.20 158.73 155.45 158.69 151.02 C 158.82 144.00 158.74 136.96 158.72 129.93 C 159.01 125.72 155.48 121.99 151.35 121.68 C 143.98 120.74 136.91 118.49 129.85 116.31 C 120.19 114.75 117.74 129.85 108.36 128.60 C 96.08 122.30 85.15 113.20 76.31 102.62 C 72.56 97.48 80.36 90.49 85.01 95.02 C 92.20 102.71 100.00 109.93 109.01 115.45 C 114.56 109.14 121.94 102.77 131.03 104.37 C 138.38 106.10 145.42 109.12 153.00 109.89 C 162.53 110.81 170.64 119.38 170.63 129.02 C 170.65 136.67 170.73 144.32 170.59 151.97 C 170.30 162.76 159.78 171.77 149.07 170.46 C 114.63 166.79 81.79 150.10 58.42 124.56 C 37.70 101.95 24.26 72.62 21.22 42.07 Z" />
</g>
</svg>
