<?xml version="1.0" encoding="UTF-8" ?>
<!DOCTYPE svg PUBLIC "-//W3C//DTD SVG 1.1//EN" "http://www.w3.org/Graphics/SVG/1.1/DTD/svg11.dtd">
<svg width="192pt" height="192pt" viewBox="0 0 192 192" version="1.1" xmlns="http://www.w3.org/2000/svg">
<g id="#606f80ff">
<path fill="#606f80" opacity="1.00" d=" M 112.40 20.47 C 121.53 14.53 132.54 12.49 143.24 11.66 C 144.27 19.78 139.58 27.52 139.38 35.60 C 151.79 58.69 165.02 81.38 177.58 104.40 C 180.92 112.34 177.31 121.62 171.05 127.04 C 164.84 132.36 157.22 136.79 149.06 137.95 C 142.55 129.61 135.92 121.16 127.77 114.25 C 114.20 102.92 98.77 93.29 88.14 78.87 C 83.14 71.96 79.26 62.80 82.31 54.30 C 83.45 50.63 89.38 52.77 88.34 56.29 C 87.05 63.72 92.54 69.78 97.38 74.63 C 115.45 92.29 141.53 101.32 154.66 123.96 C 161.23 122.12 166.82 115.64 166.29 108.70 C 153.08 86.32 139.48 64.15 126.12 41.86 C 123.01 37.38 127.34 32.46 128.03 27.83 C 119.61 29.96 113.12 39.25 103.88 36.44 C 88.67 34.23 72.45 36.23 59.04 44.03 C 38.71 56.16 24.80 80.06 27.39 104.03 C 30.09 131.70 51.96 155.49 78.61 162.39 C 102.06 169.11 128.83 162.37 145.88 144.80 C 149.52 140.31 157.14 145.94 153.81 150.71 C 144.53 165.02 128.57 174.11 111.97 177.02 C 77.53 183.37 38.98 167.35 21.70 136.33 C 4.29 105.65 11.23 63.16 38.24 40.24 C 56.51 24.64 81.60 19.82 105.04 21.18 C 107.48 21.17 110.24 22.01 112.40 20.47 Z" />
</g>
</svg>
