<?xml version="1.0" encoding="UTF-8" ?>
<!DOCTYPE svg PUBLIC "-//W3C//DTD SVG 1.1//EN" "http://www.w3.org/Graphics/SVG/1.1/DTD/svg11.dtd">
<svg width="192pt" height="192pt" viewBox="0 0 192 192" version="1.1" xmlns="http://www.w3.org/2000/svg">
<g id="#1eaefcff">
<path fill="#1eaefc" opacity="1.00" d=" M 84.41 14.53 C 117.88 9.25 153.17 27.44 168.51 57.59 C 184.73 87.51 179.37 127.21 155.70 151.68 C 132.10 177.64 91.18 185.10 59.91 169.20 C 28.63 154.39 9.43 118.28 14.89 84.05 C 19.31 48.83 49.21 18.97 84.41 14.53 M 87.36 25.45 C 63.52 28.08 41.88 44.01 31.85 65.73 C 18.20 93.94 26.39 130.55 50.93 150.10 C 76.65 172.26 118.38 171.39 143.15 148.17 C 167.42 127.20 173.78 89.05 157.74 61.29 C 144.34 36.53 115.30 21.71 87.36 25.45 Z" />
<path fill="#1eaefc" opacity="1.00" d=" M 76.44 70.71 C 82.85 67.99 88.58 76.40 84.70 81.68 C 81.98 85.75 75.28 85.50 72.88 81.23 C 70.24 77.66 72.27 71.99 76.44 70.71 Z" />
<path fill="#1eaefc" opacity="1.00" d=" M 38.26 87.89 C 38.59 86.60 37.99 84.86 39.06 83.87 C 45.67 83.55 52.32 83.74 58.94 83.83 C 59.00 85.26 59.04 86.69 59.08 88.11 C 57.98 88.36 56.87 88.61 55.77 88.86 C 55.72 93.22 55.69 97.57 55.79 101.93 C 59.65 100.11 63.31 97.93 67.07 95.92 C 67.26 96.59 67.66 97.93 67.86 98.60 C 72.38 94.79 75.90 89.36 80.94 86.47 C 84.85 89.83 88.16 93.83 92.01 97.26 C 94.31 95.01 97.45 92.88 97.01 89.21 C 95.88 88.82 94.76 88.43 93.64 88.04 C 93.63 86.64 93.65 85.24 93.68 83.84 C 101.09 83.84 108.56 83.29 115.93 84.12 C 126.94 86.62 126.85 105.18 115.92 107.74 C 108.61 108.68 101.17 108.05 93.81 108.07 C 93.69 106.62 93.60 105.18 93.51 103.74 C 94.62 103.48 95.73 103.23 96.85 103.00 C 96.86 101.22 96.86 99.44 96.87 97.66 C 90.74 103.53 84.82 109.62 78.83 115.63 C 78.00 114.79 77.19 113.94 76.39 113.07 C 77.35 111.99 78.32 110.90 79.29 109.82 C 76.67 106.62 73.65 103.79 70.71 100.89 C 68.31 102.59 67.15 105.22 67.16 108.13 C 58.10 108.17 49.03 108.32 39.97 108.08 C 37.64 108.18 38.69 105.16 38.38 103.73 C 39.52 103.49 40.66 103.25 41.80 103.01 C 41.88 98.34 41.84 93.67 41.81 89.00 C 40.63 88.63 39.44 88.27 38.26 87.89 M 109.73 91.35 C 109.60 94.36 109.63 97.39 109.84 100.40 C 114.65 99.85 114.46 91.87 109.73 91.35 Z" />
<path fill="#1eaefc" opacity="1.00" d=" M 124.61 83.71 C 131.40 83.78 138.20 83.61 145.00 83.83 C 145.03 85.25 145.05 86.67 145.08 88.08 C 143.99 88.35 142.91 88.62 141.83 88.89 C 141.80 93.27 141.80 97.65 141.83 102.02 C 145.70 99.98 149.45 97.73 153.42 95.88 C 153.57 99.88 153.58 103.89 153.52 107.90 C 144.35 108.45 135.14 108.19 125.96 108.09 C 123.62 108.20 124.64 105.15 124.32 103.71 C 125.44 103.44 126.55 103.16 127.67 102.88 C 127.69 98.20 127.69 93.52 127.68 88.84 C 126.58 88.63 125.49 88.43 124.39 88.23 C 124.44 86.72 124.51 85.21 124.61 83.71 Z" />
</g>
</svg>
