<?xml version="1.0" encoding="UTF-8" ?>
<!DOCTYPE svg PUBLIC "-//W3C//DTD SVG 1.1//EN" "http://www.w3.org/Graphics/SVG/1.1/DTD/svg11.dtd">
<svg width="192pt" height="192pt" viewBox="0 0 192 192" version="1.1" xmlns="http://www.w3.org/2000/svg">
<g id="#f6b12cff">
<path fill="#f6b12c" opacity="1.00" d=" M 39.30 21.37 C 42.47 20.61 45.76 20.73 49.00 20.73 C 81.66 20.77 114.32 20.70 146.99 20.76 C 159.20 20.73 170.01 31.73 169.82 43.93 C 169.89 77.97 169.88 112.02 169.85 146.06 C 170.10 157.65 160.54 168.36 148.98 169.38 C 144.00 169.65 138.99 169.72 134.02 169.37 C 129.06 168.42 128.30 160.76 132.98 158.87 C 137.52 157.61 142.35 158.69 147.01 158.27 C 153.33 158.19 158.80 152.36 158.66 146.07 C 158.69 112.02 158.71 77.97 158.66 43.92 C 158.74 37.29 152.56 31.65 146.03 31.84 C 112.34 31.81 78.65 31.79 44.97 31.81 C 38.79 31.70 32.87 36.76 32.48 43.00 C 32.21 56.33 32.65 69.69 32.28 83.01 C 31.44 88.88 22.01 88.76 21.40 82.86 C 21.08 69.90 21.31 56.90 21.30 43.93 C 21.24 33.46 29.08 23.62 39.30 21.37 Z" />
<path fill="#f6b12c" opacity="1.00" d=" M 21.06 99.92 C 20.18 94.08 29.95 94.73 32.51 97.43 C 33.02 117.86 32.57 138.35 32.74 158.81 C 41.84 158.94 50.94 158.84 60.04 158.86 C 66.71 156.99 66.73 171.07 60.04 169.20 C 48.01 169.12 35.98 169.29 23.95 169.12 C 22.22 169.26 20.87 167.76 21.08 166.06 C 20.99 144.02 21.09 121.97 21.06 99.92 Z" />
<path fill="#f6b12c" opacity="1.00" d=" M 72.15 98.96 C 71.90 97.30 73.17 95.60 74.96 95.84 C 84.31 95.80 93.66 95.67 103.01 95.93 C 109.30 96.29 116.95 97.86 119.82 104.23 C 123.12 112.03 122.12 120.80 121.88 129.05 C 121.75 136.13 117.30 142.97 110.10 144.46 C 113.67 152.00 117.80 159.30 121.11 166.96 C 119.77 170.81 112.94 169.51 109.98 167.98 C 105.51 160.87 102.56 152.86 98.53 145.48 C 93.68 145.47 88.83 145.52 83.98 145.44 C 83.22 153.01 84.60 160.80 83.29 168.25 C 79.94 169.67 71.44 170.94 72.10 165.08 C 72.14 143.04 72.07 121.00 72.15 98.96 M 83.80 106.14 C 83.79 115.79 83.77 125.44 83.82 135.10 C 90.76 134.89 97.80 135.71 104.67 134.57 C 110.73 133.22 110.47 125.87 110.35 121.00 C 110.33 116.05 111.14 108.65 105.12 106.82 C 98.13 105.43 90.89 106.39 83.80 106.14 Z" />
</g>
</svg>
