<?xml version="1.0" encoding="UTF-8" ?>
<!DOCTYPE svg PUBLIC "-//W3C//DTD SVG 1.1//EN" "http://www.w3.org/Graphics/SVG/1.1/DTD/svg11.dtd">
<svg width="192pt" height="192pt" viewBox="0 0 192 192" version="1.1" xmlns="http://www.w3.org/2000/svg">
<g id="#43b1d8ff">
<path fill="#43b1d8" opacity="1.00" d=" M 83.59 21.53 C 101.77 14.19 123.73 17.61 138.75 30.23 C 153.12 41.82 160.68 60.86 158.60 79.16 C 169.33 81.82 177.88 91.77 177.87 102.98 C 178.46 115.72 167.76 127.62 154.99 128.21 C 145.35 128.34 135.66 128.56 126.02 128.10 C 120.61 126.87 120.58 118.26 126.05 117.11 C 135.39 116.67 144.76 117.21 154.10 116.87 C 161.07 116.56 166.95 109.99 166.52 103.02 C 166.45 96.00 160.04 89.92 153.04 90.14 C 149.14 90.70 145.22 87.17 146.36 83.16 C 149.14 70.98 146.84 57.62 139.45 47.46 C 130.92 35.25 115.83 27.96 100.94 29.17 C 82.30 30.00 65.60 44.30 61.33 62.38 C 60.48 66.77 55.55 66.90 52.01 66.44 C 37.85 65.62 25.14 79.01 26.40 93.08 C 26.78 105.10 36.90 115.89 48.93 116.81 C 57.94 117.28 66.99 116.65 75.99 117.10 C 81.83 117.90 81.85 127.32 76.00 128.16 C 67.36 128.52 58.69 128.28 50.04 128.26 C 37.44 127.98 25.51 120.43 19.55 109.39 C 13.12 97.87 13.61 82.88 20.87 71.85 C 27.41 61.37 39.51 55.04 51.79 54.94 C 56.96 39.93 68.77 27.33 83.59 21.53 Z" />
<path fill="#43b1d8" opacity="1.00" d=" M 109.30 93.15 C 109.92 93.20 111.17 93.30 111.80 93.36 C 108.95 102.71 105.05 111.71 102.29 121.09 C 111.04 126.59 120.58 130.89 128.99 136.90 C 119.31 148.57 109.47 160.12 99.55 171.57 C 98.37 173.36 96.22 171.95 97.29 170.12 C 101.27 160.26 105.76 150.60 109.89 140.79 C 101.88 136.19 93.07 133.15 84.85 128.94 C 91.90 116.41 101.35 105.20 109.30 93.15 Z" />
</g>
</svg>
