<?xml version="1.0" encoding="UTF-8" ?>
<!DOCTYPE svg PUBLIC "-//W3C//DTD SVG 1.1//EN" "http://www.w3.org/Graphics/SVG/1.1/DTD/svg11.dtd">
<svg width="192pt" height="192pt" viewBox="0 0 192 192" version="1.1" xmlns="http://www.w3.org/2000/svg">
<g id="#decca9ff">
<path fill="#decca9" opacity="1.00" d=" M 30.86 45.89 C 45.60 26.39 69.53 13.99 94.01 13.78 C 100.54 14.09 100.93 24.71 94.42 25.46 C 79.77 26.03 65.23 30.93 53.60 39.94 C 66.56 54.70 79.90 69.13 93.01 83.77 C 98.75 62.56 104.34 41.31 110.12 20.12 C 110.60 17.60 113.26 15.82 115.77 16.46 C 151.64 24.21 178.58 59.49 177.85 95.99 C 178.02 125.44 160.80 154.07 134.74 167.76 C 113.25 179.50 86.46 180.71 63.98 171.02 C 39.52 160.89 20.90 138.08 15.75 112.13 C 10.91 89.25 16.59 64.42 30.86 45.89 M 119.49 30.11 C 114.61 48.96 109.47 67.76 104.43 86.57 C 123.10 80.44 141.74 74.23 160.39 68.03 C 152.69 50.70 137.97 35.38 119.49 30.11 M 27.86 111.83 C 46.96 105.58 66.03 99.24 85.09 92.87 C 71.65 77.89 58.13 62.98 44.68 48.02 C 28.79 64.66 22.52 89.53 27.86 111.83 M 163.62 79.28 C 144.82 85.89 125.81 91.91 106.89 98.17 C 107.38 100.09 108.96 101.38 110.19 102.82 C 122.50 116.30 134.54 130.01 146.96 143.37 C 162.74 126.73 169.95 101.46 163.62 79.28 M 31.85 123.14 C 38.92 140.85 54.17 154.91 72.05 161.34 C 77.20 142.57 82.30 123.77 87.13 104.92 C 68.66 110.86 50.29 117.10 31.85 123.14 M 83.98 164.56 C 102.78 167.91 122.54 162.88 137.91 151.70 C 125.15 136.94 111.85 122.61 98.78 108.11 C 93.95 126.95 88.33 145.61 83.98 164.56 Z" />
</g>
</svg>
