<?xml version="1.0" encoding="UTF-8" ?>
<!DOCTYPE svg PUBLIC "-//W3C//DTD SVG 1.1//EN" "http://www.w3.org/Graphics/SVG/1.1/DTD/svg11.dtd">
<svg width="192pt" height="192pt" viewBox="0 0 192 192" version="1.1" xmlns="http://www.w3.org/2000/svg">
<g id="#ed33b3ff">
<path fill="#ed33b3" opacity="1.00" d=" M 38.43 23.50 C 40.11 22.51 42.14 22.76 44.01 22.66 C 79.34 22.78 114.68 22.52 150.00 22.76 C 156.80 22.72 156.83 33.92 150.03 33.92 C 113.71 33.86 77.32 33.88 40.98 33.78 C 35.54 34.11 33.67 25.86 38.43 23.50 Z" />
<path fill="#ed33b3" opacity="1.00" d=" M 13.12 41.63 C 68.03 41.63 122.94 41.58 177.86 41.60 C 177.88 76.42 177.94 111.25 177.87 146.07 C 178.01 158.16 167.13 168.86 155.05 168.56 C 115.04 168.56 75.03 168.59 35.03 168.50 C 23.28 168.38 12.93 157.83 13.10 146.07 C 13.04 111.26 13.12 76.44 13.12 41.63 M 24.35 52.81 C 24.36 83.87 24.33 114.93 24.38 146.00 C 24.27 152.13 29.88 157.47 35.98 157.25 C 75.66 157.25 115.34 157.26 155.01 157.17 C 161.07 157.38 166.56 152.03 166.50 145.97 C 166.60 115.00 166.53 84.02 166.55 53.04 C 119.16 52.59 71.75 52.87 24.35 52.81 Z" />
<path fill="#ed33b3" opacity="1.00" d=" M 61.91 82.16 C 64.04 80.45 69.59 80.04 71.44 82.45 C 71.99 94.90 71.52 107.41 71.68 119.89 C 77.73 120.13 83.80 119.72 89.84 120.10 C 91.83 121.98 91.78 126.29 89.98 128.33 C 81.35 128.76 72.68 128.54 64.04 128.45 C 61.03 128.59 61.63 124.97 61.55 123.01 C 61.84 109.40 61.12 95.72 61.91 82.16 Z" />
<path fill="#ed33b3" opacity="1.00" d=" M 95.67 83.94 C 95.11 80.16 99.66 81.12 102.00 80.97 C 109.75 81.50 118.31 79.51 125.35 83.60 C 130.57 88.08 129.32 95.84 129.34 101.98 C 129.46 106.86 127.00 111.78 122.19 113.45 C 124.32 118.01 126.84 122.40 128.67 127.10 C 126.51 129.70 122.03 128.63 119.06 127.99 C 116.45 123.65 114.79 118.81 112.57 114.26 C 110.28 114.26 107.99 114.25 105.70 114.23 C 105.56 118.94 106.10 123.70 105.26 128.36 C 102.27 128.05 97.57 129.95 95.79 126.96 C 95.42 112.63 95.70 98.27 95.67 83.94 M 105.70 89.62 C 105.68 94.93 105.69 100.23 105.70 105.53 C 109.63 105.35 113.88 106.34 117.59 104.69 C 120.38 101.13 119.57 95.62 118.47 91.52 C 115.27 88.17 109.85 90.10 105.70 89.62 Z" />
</g>
</svg>
