<?xml version="1.0" encoding="UTF-8" ?>
<!DOCTYPE svg PUBLIC "-//W3C//DTD SVG 1.1//EN" "http://www.w3.org/Graphics/SVG/1.1/DTD/svg11.dtd">
<svg width="192pt" height="192pt" viewBox="0 0 192 192" version="1.1" xmlns="http://www.w3.org/2000/svg">
<g id="#96644cff">
<path fill="#96644c" opacity="1.00" d=" M 40.35 21.42 C 75.54 20.54 110.81 21.26 146.03 21.00 C 158.51 20.50 169.98 31.41 169.97 43.93 C 170.03 78.30 170.00 112.69 169.99 147.06 C 169.99 159.19 159.20 169.99 147.07 169.98 C 112.69 170.00 78.30 170.04 43.93 169.96 C 31.83 169.97 21.02 159.18 21.05 147.07 C 21.00 112.70 21.02 78.31 21.08 43.93 C 21.07 33.10 29.70 23.16 40.35 21.42 M 41.36 32.51 C 35.89 33.87 31.83 39.29 32.12 44.93 C 32.11 78.64 32.10 112.36 32.13 146.07 C 31.73 152.99 38.00 159.28 44.93 158.86 C 78.65 158.87 112.36 158.87 146.08 158.86 C 152.99 159.24 159.23 152.98 158.86 146.08 C 158.89 112.36 158.89 78.64 158.87 44.92 C 159.30 37.55 152.28 31.27 145.03 32.11 C 110.48 32.41 75.86 31.60 41.36 32.51 Z" />
<path fill="#96644c" opacity="1.00" d=" M 59.43 68.48 C 68.83 66.95 76.68 77.92 72.24 86.34 C 68.73 94.93 55.75 96.17 50.61 88.46 C 44.74 81.19 50.06 69.01 59.43 68.48 Z" />
<path fill="#96644c" opacity="1.00" d=" M 126.30 69.28 C 135.39 65.06 146.23 74.63 143.26 84.14 C 141.32 93.33 128.38 96.99 122.05 89.95 C 115.75 84.04 118.00 72.10 126.30 69.28 Z" />
<path fill="#96644c" opacity="1.00" d=" M 84.72 94.73 C 91.77 93.15 99.46 93.41 106.60 94.51 C 113.68 99.26 105.46 107.13 103.13 112.38 C 108.52 112.59 113.96 112.00 119.32 112.66 C 124.59 114.11 124.19 122.71 118.51 123.24 C 103.43 123.76 88.27 123.56 73.17 123.42 C 67.66 123.51 65.93 115.10 71.04 113.04 C 76.76 111.60 82.82 112.80 88.66 112.37 C 86.48 107.07 78.58 99.91 84.72 94.73 Z" />
</g>
</svg>
