<?xml version="1.0" encoding="UTF-8" ?>
<!DOCTYPE svg PUBLIC "-//W3C//DTD SVG 1.1//EN" "http://www.w3.org/Graphics/SVG/1.1/DTD/svg11.dtd">
<svg width="192pt" height="192pt" viewBox="0 0 192 192" version="1.1" xmlns="http://www.w3.org/2000/svg">
<g id="#b2787fff">
<path fill="#b2787f" opacity="1.00" d=" M 51.05 18.05 C 55.96 12.90 64.95 12.98 69.78 18.21 C 88.76 37.27 107.95 56.15 126.76 75.37 C 131.38 80.94 123.30 88.88 117.79 84.16 C 98.33 65.36 79.77 45.57 60.13 26.97 C 49.37 37.66 38.66 48.40 27.96 59.15 C 32.75 65.51 39.40 70.23 44.28 76.50 C 46.99 82.20 39.64 88.02 34.70 84.25 C 29.28 79.38 24.33 73.97 19.13 68.86 C 13.96 63.96 13.91 54.98 19.06 50.06 C 29.71 39.38 40.38 28.71 51.05 18.05 Z" />
<path fill="#b2787f" opacity="1.00" d=" M 122.27 18.25 C 127.05 13.00 136.04 12.96 140.94 18.05 C 151.64 28.69 162.29 39.38 172.96 50.05 C 178.15 54.94 178.11 64.03 172.92 68.92 C 153.88 87.87 135.03 107.04 115.87 125.86 C 110.57 131.10 102.05 122.26 107.00 116.97 C 125.73 97.43 145.64 78.96 164.06 59.16 C 153.33 48.42 142.68 37.60 131.85 26.97 C 125.70 32.00 120.89 38.55 114.59 43.38 C 109.01 45.94 103.08 38.67 106.92 33.85 C 111.78 28.42 117.18 23.48 122.27 18.25 Z" />
<path fill="#b2787f" opacity="1.00" d=" M 75.82 64.75 C 80.96 59.55 89.99 67.34 85.23 73.14 C 66.65 92.78 46.54 111.26 28.21 131.01 C 38.82 141.88 49.32 153.12 60.70 163.12 C 66.19 157.80 71.25 151.97 77.11 147.06 C 82.62 143.94 89.03 151.30 85.30 156.37 C 80.48 161.82 75.04 166.72 69.98 171.96 C 65.23 177.40 55.72 177.54 50.92 172.10 C 40.26 161.42 29.61 150.74 18.95 140.06 C 13.77 135.15 13.99 126.01 19.29 121.26 C 38.15 102.44 56.88 83.49 75.82 64.75 Z" />
<path fill="#b2787f" opacity="1.00" d=" M 90.27 82.29 C 92.50 78.78 98.00 77.76 100.63 81.36 C 104.52 85.97 110.16 89.31 112.58 95.00 C 110.80 100.24 105.72 103.21 102.27 107.26 C 99.99 109.87 96.10 113.43 92.76 110.22 C 88.37 105.61 82.80 101.68 79.77 96.03 C 79.95 89.86 86.88 86.84 90.27 82.29 Z" />
<path fill="#b2787f" opacity="1.00" d=" M 65.70 115.27 C 60.96 110.51 67.67 101.61 73.44 105.64 C 93.35 124.38 111.85 144.70 131.92 163.23 C 142.51 152.22 154.23 142.01 164.00 130.35 C 158.76 125.14 153.33 120.08 148.40 114.58 C 144.31 109.47 151.92 101.72 157.05 105.92 C 162.53 110.75 167.44 116.21 172.70 121.28 C 177.97 126.00 178.25 135.19 173.04 140.04 C 162.37 150.70 151.71 161.39 141.04 172.06 C 136.27 177.44 126.85 177.20 122.10 171.90 C 103.31 153.01 84.37 134.26 65.70 115.27 Z" />
</g>
</svg>
