<?xml version="1.0" encoding="UTF-8" ?>
<!DOCTYPE svg PUBLIC "-//W3C//DTD SVG 1.1//EN" "http://www.w3.org/Graphics/SVG/1.1/DTD/svg11.dtd">
<svg width="192pt" height="192pt" viewBox="0 0 192 192" version="1.1" xmlns="http://www.w3.org/2000/svg">
<g id="#96644cff">
<path fill="#96644c" opacity="1.00" d=" M 41.05 34.10 C 66.98 10.78 107.96 7.12 137.70 25.26 C 168.67 42.95 185.09 82.52 174.87 116.81 C 173.50 119.73 169.70 120.45 166.98 119.07 C 160.97 116.41 154.89 113.86 148.96 111.03 C 145.51 109.59 145.76 105.47 145.52 102.37 C 144.24 86.14 136.65 69.26 121.96 61.03 C 114.50 67.57 107.10 74.18 99.66 80.74 C 97.59 82.84 94.06 83.27 91.80 81.21 C 83.54 74.74 75.67 67.78 67.33 61.40 C 53.08 69.89 45.92 86.87 46.14 103.01 C 46.03 105.88 46.37 109.75 43.29 111.24 C 36.93 114.39 30.35 117.12 23.87 120.02 C 21.00 121.55 16.97 120.27 15.98 117.05 C 7.45 87.61 17.81 53.99 41.05 34.10 M 36.38 56.30 C 26.35 70.96 22.44 89.48 25.25 106.98 C 28.40 105.68 31.52 104.30 34.60 102.84 C 34.93 83.40 43.21 62.84 60.47 52.54 C 63.75 50.71 68.02 47.36 71.66 50.28 C 79.63 56.53 87.32 63.14 95.24 69.47 C 102.82 62.99 110.11 56.16 117.75 49.75 C 121.14 47.01 125.22 49.97 128.33 51.69 C 145.10 61.43 154.61 80.36 156.62 99.19 C 156.46 104.08 162.53 104.16 165.77 106.07 C 168.63 86.28 162.80 65.43 149.79 50.20 C 136.47 34.29 115.83 24.55 95.00 25.15 C 71.84 24.70 49.19 37.14 36.38 56.30 Z" />
<path fill="#96644c" opacity="1.00" d=" M 67.31 90.33 C 73.43 88.80 79.74 94.84 78.38 101.04 C 77.40 108.02 67.79 111.21 62.90 106.08 C 57.39 101.45 60.21 91.46 67.31 90.33 Z" />
<path fill="#96644c" opacity="1.00" d=" M 119.34 90.40 C 125.48 88.59 132.05 94.57 130.76 100.85 C 129.97 108.04 119.93 111.30 115.07 105.93 C 109.93 101.27 112.54 91.77 119.34 90.40 Z" />
<path fill="#96644c" opacity="1.00" d=" M 90.39 120.51 C 94.01 120.10 97.81 119.77 101.37 120.63 C 105.84 124.89 101.53 134.83 94.98 133.44 C 88.92 133.27 86.38 124.23 90.39 120.51 Z" />
<path fill="#96644c" opacity="1.00" d=" M 26.41 129.51 C 29.37 127.65 33.22 129.39 34.67 132.34 C 43.72 147.04 58.18 158.39 74.78 163.27 C 104.91 172.86 140.13 159.37 156.25 132.21 C 159.08 126.11 169.13 130.36 166.58 136.64 C 150.56 165.74 115.22 182.14 82.57 176.61 C 58.70 173.00 36.81 158.24 24.60 137.41 C 22.83 134.85 23.70 131.04 26.41 129.51 Z" />
<path fill="#96644c" opacity="1.00" d=" M 80.07 149.27 C 85.96 146.63 90.26 141.73 94.17 136.75 C 94.06 145.54 87.98 152.85 80.02 155.98 C 77.05 155.46 77.41 150.24 80.07 149.27 Z" />
<path fill="#96644c" opacity="1.00" d=" M 97.16 137.50 C 100.98 142.20 105.25 146.62 110.79 149.29 C 113.42 150.43 112.62 153.53 112.47 155.77 C 103.68 154.40 98.17 145.83 97.16 137.50 Z" />
</g>
</svg>
