<?xml version="1.0" encoding="UTF-8" ?>
<!DOCTYPE svg PUBLIC "-//W3C//DTD SVG 1.1//EN" "http://www.w3.org/Graphics/SVG/1.1/DTD/svg11.dtd">
<svg width="192pt" height="192pt" viewBox="0 0 192 192" version="1.1" xmlns="http://www.w3.org/2000/svg">
<g id="#41e274ff">
<path fill="#41e274" opacity="1.00" d=" M 43.37 14.45 C 50.08 13.07 57.18 14.41 63.04 17.93 C 93.06 35.22 123.06 52.53 153.06 69.85 C 161.54 74.68 167.14 84.19 166.83 94.00 C 166.95 103.75 161.25 113.12 152.74 117.79 C 122.07 135.44 91.50 153.30 60.73 170.77 C 44.28 179.62 21.82 166.76 21.16 148.10 C 20.89 112.40 21.09 76.67 21.07 40.96 C 21.02 28.26 30.97 16.77 43.37 14.45 M 45.40 25.55 C 37.85 27.01 31.98 34.23 32.34 41.95 C 32.36 76.97 32.22 112.00 32.41 147.02 C 32.63 158.36 46.55 166.10 56.32 160.33 C 87.01 142.72 117.69 125.06 148.27 107.25 C 158.29 101.31 157.70 84.94 147.36 79.61 C 117.38 62.25 87.35 44.96 57.34 27.64 C 53.79 25.47 49.47 24.76 45.40 25.55 Z" />
<path fill="#41e274" opacity="1.00" d=" M 66.45 63.69 C 70.45 62.54 74.56 63.98 77.95 66.11 C 87.59 71.84 97.47 77.16 107.00 83.04 C 114.31 87.81 113.90 99.99 106.26 104.23 C 95.92 110.28 85.57 116.34 75.10 122.17 C 67.27 126.45 56.58 119.88 56.74 110.99 C 56.64 99.33 56.66 87.66 56.73 76.00 C 56.62 70.27 60.94 65.03 66.45 63.69 M 68.20 112.11 C 79.97 107.77 90.41 99.93 101.45 93.87 C 100.55 92.34 99.16 91.22 97.60 90.43 C 87.94 85.09 78.56 79.25 68.82 74.07 C 66.93 86.56 68.08 99.47 68.20 112.11 Z" />
</g>
</svg>
