<?xml version="1.0" encoding="UTF-8" ?>
<!DOCTYPE svg PUBLIC "-//W3C//DTD SVG 1.1//EN" "http://www.w3.org/Graphics/SVG/1.1/DTD/svg11.dtd">
<svg width="192pt" height="192pt" viewBox="0 0 192 192" version="1.1" xmlns="http://www.w3.org/2000/svg">
<g id="#91c9cfff">
<path fill="#91c9cf" opacity="1.00" d=" M 83.29 14.37 C 114.01 9.90 146.29 25.31 162.19 51.94 C 174.67 72.09 177.35 97.88 169.38 120.19 C 159.21 150.21 129.69 172.33 97.97 173.46 C 82.34 173.65 66.69 173.69 51.06 173.42 C 31.33 172.41 14.41 154.76 14.04 135.04 C 14.17 118.68 13.50 102.29 14.45 85.96 C 17.36 49.99 47.32 18.45 83.29 14.37 M 83.38 25.48 C 52.92 29.52 27.92 56.46 25.41 86.95 C 24.67 102.62 25.26 118.33 25.08 134.02 C 24.95 148.89 38.07 162.26 52.93 162.45 C 67.30 162.52 81.68 162.50 96.05 162.44 C 117.17 162.04 137.61 151.03 149.85 133.88 C 162.95 116.05 166.41 91.73 159.00 70.91 C 148.89 40.23 115.25 19.91 83.38 25.48 Z" />
<path fill="#91c9cf" opacity="1.00" d=" M 84.44 46.63 C 102.59 42.68 122.52 50.69 133.06 65.94 C 143.85 80.71 144.78 101.82 135.50 117.56 C 127.37 131.83 111.49 141.36 95.04 141.54 C 86.34 141.57 77.64 141.62 68.94 141.52 C 57.14 141.27 46.43 130.92 46.18 119.06 C 46.14 109.69 46.13 100.33 46.20 90.97 C 46.94 69.78 63.55 50.43 84.44 46.63 M 85.33 57.45 C 73.81 60.06 63.91 68.61 59.58 79.60 C 54.91 91.16 57.31 103.87 56.69 115.99 C 56.03 123.12 61.64 130.41 68.97 130.65 C 78.00 130.76 87.04 130.75 96.06 130.65 C 111.81 130.11 126.21 118.15 129.91 102.89 C 133.72 88.91 128.26 72.99 116.70 64.27 C 108.00 57.37 96.11 54.85 85.33 57.45 Z" />
</g>
</svg>
