<?xml version="1.0" encoding="UTF-8" ?>
<!DOCTYPE svg PUBLIC "-//W3C//DTD SVG 1.1//EN" "http://www.w3.org/Graphics/SVG/1.1/DTD/svg11.dtd">
<svg width="192pt" height="192pt" viewBox="0 0 192 192" version="1.1" xmlns="http://www.w3.org/2000/svg">
<g id="#47e470ff">
<path fill="#47e470" opacity="1.00" d=" M 84.41 13.52 C 105.34 10.53 127.36 16.07 144.35 28.66 C 168.87 46.44 182.01 78.56 176.47 108.41 C 171.31 139.06 146.99 165.00 117.19 173.24 C 103.53 177.52 89.09 176.43 75.00 176.55 C 57.98 176.52 40.97 176.60 23.96 176.52 C 19.09 176.99 16.09 170.73 19.11 167.04 C 24.12 158.31 32.75 148.05 26.19 137.75 C 9.30 110.90 10.28 74.40 28.37 48.39 C 41.10 29.63 61.95 16.65 84.41 13.52 M 28.63 73.63 C 22.51 92.92 25.49 114.67 36.12 131.83 C 42.42 142.03 40.83 155.48 33.78 164.88 C 53.86 165.13 73.93 164.94 94.01 164.99 C 116.23 165.03 138.18 154.32 151.66 136.65 C 163.03 122.11 168.19 102.91 165.42 84.64 C 161.36 51.73 131.34 24.34 98.02 24.17 C 67.18 22.58 37.33 44.09 28.63 73.63 Z" />
<path fill="#47e470" opacity="1.00" d=" M 53.30 80.94 C 55.40 80.58 57.94 79.80 59.83 81.09 C 60.44 88.43 59.88 95.82 60.14 103.18 C 64.32 103.30 68.50 103.22 72.67 103.35 C 72.86 105.49 72.90 107.64 72.85 109.80 C 66.38 110.26 59.81 110.52 53.37 109.63 C 53.23 100.07 53.32 90.51 53.30 80.94 Z" />
<path fill="#47e470" opacity="1.00" d=" M 87.65 80.72 C 90.09 80.37 93.11 79.86 94.88 82.09 C 98.88 87.10 102.32 92.56 106.37 97.55 C 106.52 91.96 106.40 86.36 106.48 80.77 C 108.67 80.42 110.90 80.40 113.09 80.77 C 113.22 90.15 113.39 99.55 113.05 108.92 C 111.20 111.35 106.88 110.04 105.25 107.79 C 101.63 102.84 98.09 97.83 94.33 92.99 C 94.31 98.61 94.40 104.23 94.23 109.85 C 92.05 110.06 89.87 110.06 87.70 109.86 C 87.45 100.15 87.56 90.44 87.65 80.72 Z" />
<path fill="#47e470" opacity="1.00" d=" M 117.75 80.71 C 124.01 80.13 130.33 80.60 136.62 80.50 C 136.83 82.68 136.88 84.87 136.82 87.06 C 132.59 87.38 128.34 87.24 124.10 87.30 C 124.13 88.73 124.17 90.16 124.23 91.60 C 128.41 91.84 132.60 91.75 136.78 91.95 C 136.86 94.16 136.86 96.38 136.74 98.59 C 132.53 98.69 128.33 98.66 124.12 98.71 C 124.14 100.17 124.16 101.62 124.20 103.08 C 128.36 103.31 132.53 103.24 136.69 103.35 C 136.83 105.49 136.88 107.64 136.84 109.79 C 130.37 110.26 123.80 110.51 117.36 109.64 C 117.50 100.02 116.68 90.23 117.75 80.71 Z" />
<path fill="#47e470" opacity="1.00" d=" M 76.83 80.64 C 78.99 80.53 81.15 80.51 83.32 80.58 C 83.54 90.38 83.54 100.18 83.33 109.98 C 81.18 110.08 79.02 110.02 76.88 109.85 C 76.55 100.12 76.73 90.38 76.83 80.64 Z" />
</g>
</svg>
