<?xml version="1.0" encoding="UTF-8" ?>
<!DOCTYPE svg PUBLIC "-//W3C//DTD SVG 1.1//EN" "http://www.w3.org/Graphics/SVG/1.1/DTD/svg11.dtd">
<svg width="192pt" height="192pt" viewBox="0 0 192 192" version="1.1" xmlns="http://www.w3.org/2000/svg">
<g id="#4970c2ff">
<path fill="#4970c2" opacity="1.00" d=" M 37.44 21.66 C 72.29 21.01 107.19 21.52 142.05 21.34 C 154.46 20.79 165.95 31.51 166.06 43.97 C 166.15 70.66 166.18 97.36 166.05 124.05 C 166.17 130.35 156.09 131.17 155.11 124.98 C 154.71 98.31 155.13 71.60 154.91 44.91 C 155.09 38.46 149.46 32.59 142.99 32.59 C 108.98 32.53 74.96 32.55 40.94 32.54 C 34.27 32.32 28.32 38.35 28.55 45.01 C 28.51 78.67 28.56 112.33 28.56 145.99 C 28.07 152.83 34.06 159.18 40.93 158.98 C 74.98 158.99 109.04 159.07 143.10 158.94 C 148.13 159.01 151.79 155.24 154.41 151.40 C 157.90 147.03 165.60 151.49 163.71 156.71 C 160.27 165.21 150.96 170.40 141.98 170.28 C 108.32 170.27 74.66 170.33 41.01 170.24 C 28.91 170.49 17.83 160.13 17.50 147.99 C 17.38 113.65 17.49 79.29 17.47 44.94 C 17.19 33.65 26.26 23.13 37.44 21.66 Z" />
<path fill="#4970c2" opacity="1.00" d=" M 103.66 38.66 C 108.20 36.73 114.32 34.83 118.48 38.52 C 122.27 42.53 120.16 48.58 117.71 52.71 C 112.87 61.33 104.23 66.71 95.37 70.45 C 90.58 89.51 92.23 110.67 82.35 128.36 C 107.87 139.41 136.92 144.93 164.40 138.42 C 167.67 137.80 170.91 136.03 174.30 136.87 C 173.25 140.73 169.57 143.01 165.96 144.10 C 138.61 152.01 108.80 149.94 82.38 139.58 C 79.63 138.73 76.36 136.43 73.76 138.80 C 66.24 144.65 56.79 148.99 47.07 147.87 C 42.47 147.47 37.57 143.01 40.14 138.15 C 45.72 124.99 62.49 121.98 74.95 126.09 C 78.22 119.21 78.52 111.43 79.82 104.04 C 81.09 93.57 82.99 83.17 83.98 72.66 C 75.71 73.40 66.98 73.32 59.20 70.13 C 61.37 66.83 64.68 63.57 68.84 63.40 C 74.54 64.14 80.17 66.25 85.99 65.38 C 87.86 54.63 93.32 43.46 103.66 38.66 M 102.64 45.65 C 98.95 51.16 97.68 57.89 96.27 64.26 C 102.64 62.37 107.72 56.92 109.60 50.62 C 110.92 46.68 105.91 42.68 102.64 45.65 M 52.95 131.71 C 48.84 133.83 50.63 139.93 55.02 140.18 C 59.91 140.66 67.18 139.85 69.17 134.61 C 63.87 133.35 58.49 130.97 52.95 131.71 Z" />
</g>
</svg>
