<?xml version="1.0" encoding="UTF-8" ?>
<!DOCTYPE svg PUBLIC "-//W3C//DTD SVG 1.1//EN" "http://www.w3.org/Graphics/SVG/1.1/DTD/svg11.dtd">
<svg width="192pt" height="192pt" viewBox="0 0 192 192" version="1.1" xmlns="http://www.w3.org/2000/svg">
<g id="#496fc1ff">
<path fill="#496fc1" opacity="1.00" d=" M 91.59 53.41 C 86.30 49.60 92.23 40.66 97.82 44.18 C 123.89 59.07 149.83 74.20 175.84 89.21 C 179.98 90.91 180.40 97.27 176.40 99.37 C 149.84 114.47 123.30 129.66 96.63 144.55 C 90.87 147.35 85.86 138.59 90.96 134.97 C 114.49 121.26 138.33 108.04 161.97 94.51 C 138.70 80.51 114.88 67.38 91.59 53.41 Z" />
<path fill="#496fc1" opacity="1.00" d=" M 12.61 50.99 C 12.65 44.77 22.59 44.04 23.59 50.13 C 23.95 77.66 23.62 105.21 23.79 132.75 C 47.73 119.49 71.33 105.57 95.31 92.40 C 101.24 89.68 105.95 99.24 100.33 102.35 C 74.05 117.43 47.63 132.28 21.29 147.26 C 17.58 149.98 11.95 146.52 12.52 142.00 C 12.54 111.66 12.41 81.32 12.61 50.99 Z" />
</g>
</svg>
