<?xml version="1.0" encoding="UTF-8" ?>
<!DOCTYPE svg PUBLIC "-//W3C//DTD SVG 1.1//EN" "http://www.w3.org/Graphics/SVG/1.1/DTD/svg11.dtd">
<svg width="192pt" height="192pt" viewBox="0 0 192 192" version="1.1" xmlns="http://www.w3.org/2000/svg">
<g id="#1ab1ffff">
<path fill="#1ab1ff" opacity="1.00" d=" M 21.56 43.02 C 22.19 31.14 33.13 21.09 45.01 21.38 C 79.00 21.36 112.99 21.32 146.97 21.36 C 159.11 21.21 170.07 31.85 170.18 44.00 C 170.27 78.33 170.23 112.66 170.21 146.99 C 170.41 159.37 159.34 170.35 146.99 170.20 C 113.00 170.28 79.00 170.27 45.01 170.20 C 32.57 170.49 21.32 159.52 21.46 147.05 C 21.52 130.17 21.28 113.26 21.59 96.39 C 22.21 90.46 31.80 90.46 32.41 96.39 C 32.77 113.24 32.38 130.13 32.60 146.99 C 32.59 153.47 38.46 159.14 44.92 158.98 C 78.63 159.03 112.35 159.00 146.06 158.99 C 153.10 159.45 159.55 153.12 159.05 146.03 C 159.07 112.34 159.14 78.64 159.05 44.95 C 159.24 38.44 153.51 32.49 146.98 32.55 C 112.97 32.51 78.96 32.52 44.95 32.52 C 38.67 32.33 32.87 37.71 32.62 43.99 C 32.46 50.66 32.50 57.35 32.59 64.02 C 32.51 66.91 35.07 69.46 37.97 69.31 C 52.17 69.43 66.38 69.32 80.59 69.34 C 79.95 65.05 80.60 57.28 86.89 58.96 C 93.17 62.93 98.91 67.75 104.88 72.17 C 107.77 74.06 107.39 78.81 104.30 80.30 C 98.18 83.90 92.48 88.36 85.99 91.23 C 80.06 91.73 80.28 84.65 80.57 80.57 C 64.38 80.57 48.19 80.63 32.01 80.53 C 26.10 80.47 21.11 74.91 21.46 69.05 C 21.51 60.38 21.34 51.69 21.56 43.02 Z" />
<path fill="#1ab1ff" opacity="1.00" d=" M 83.60 128.00 C 85.21 122.89 92.11 125.88 96.08 125.12 C 101.72 124.50 99.91 131.55 100.17 135.00 C 99.63 138.99 102.33 146.74 95.97 146.64 C 91.84 140.44 86.99 134.64 83.60 128.00 Z" />
<path fill="#1ab1ff" opacity="1.00" d=" M 108.42 125.51 C 112.04 123.73 116.64 126.97 116.24 130.97 C 116.13 135.51 116.89 140.24 115.68 144.67 C 113.40 149.89 104.61 147.79 105.05 142.05 C 105.64 136.69 102.65 128.75 108.42 125.51 Z" />
<path fill="#1ab1ff" opacity="1.00" d=" M 124.37 125.42 C 127.93 123.80 132.36 127.02 131.99 130.91 C 131.90 135.41 132.56 140.07 131.52 144.48 C 129.39 149.87 120.31 147.95 120.82 142.05 C 121.51 136.67 118.34 128.49 124.37 125.42 Z" />
<path fill="#1ab1ff" opacity="1.00" d=" M 140.30 125.36 C 143.90 123.90 148.13 127.14 147.78 130.98 C 147.69 135.43 148.31 140.02 147.33 144.38 C 145.26 149.88 136.03 147.99 136.58 142.01 C 137.27 136.60 134.06 128.27 140.30 125.36 Z" />
</g>
</svg>
