<?xml version="1.0" encoding="UTF-8" ?>
<!DOCTYPE svg PUBLIC "-//W3C//DTD SVG 1.1//EN" "http://www.w3.org/Graphics/SVG/1.1/DTD/svg11.dtd">
<svg width="192pt" height="192pt" viewBox="0 0 192 192" version="1.1" xmlns="http://www.w3.org/2000/svg">
<g id="#ff3662ff">
<path fill="#ff3662" opacity="1.00" d=" M 44.42 25.56 C 77.28 25.06 110.18 25.47 143.06 25.34 C 154.78 24.96 165.44 35.29 165.37 47.03 C 165.42 79.34 165.43 111.66 165.37 143.97 C 165.36 155.69 154.67 165.88 142.98 165.49 C 110.66 165.45 78.34 165.60 46.02 165.40 C 33.77 164.98 24.00 153.07 25.26 141.00 C 25.32 109.65 25.22 78.29 25.32 46.93 C 25.35 36.40 33.97 26.78 44.42 25.56 M 43.37 36.60 C 38.73 38.27 35.62 43.09 35.78 47.99 C 35.77 79.67 35.76 111.34 35.79 143.02 C 35.49 149.54 41.43 155.33 47.93 154.95 C 79.64 154.96 111.36 154.98 143.08 154.94 C 149.43 155.13 155.14 149.45 154.86 143.07 C 154.91 111.36 154.91 79.64 154.86 47.93 C 155.19 41.49 149.52 35.60 143.04 35.85 C 113.03 35.79 83.01 35.85 53.00 35.80 C 49.78 35.84 46.46 35.53 43.37 36.60 Z" />
<path fill="#ff3662" opacity="1.00" d=" M 82.33 56.29 C 84.02 55.33 86.61 55.74 87.38 57.72 C 88.77 61.21 84.26 65.15 80.99 63.14 C 78.76 61.19 79.97 57.53 82.33 56.29 Z" />
<path fill="#ff3662" opacity="1.00" d=" M 114.99 57.07 C 117.35 57.02 119.71 57.02 122.07 57.08 C 121.72 62.64 120.61 68.12 120.04 73.66 C 124.03 69.06 127.93 62.93 135.07 65.41 C 133.33 68.78 130.04 70.94 128.07 74.12 C 128.93 79.66 133.21 84.10 134.15 89.67 C 131.88 89.73 129.59 89.95 127.35 89.57 C 124.29 85.04 122.90 79.60 119.98 74.97 C 119.16 78.87 118.87 82.85 118.00 86.74 C 115.67 86.71 113.33 86.69 110.99 86.66 C 111.94 76.75 113.44 66.90 114.99 57.07 Z" />
<path fill="#ff3662" opacity="1.00" d=" M 57.86 58.07 C 60.35 58.00 62.84 57.98 65.33 58.01 C 64.94 65.32 62.99 72.48 62.81 79.80 C 66.83 79.85 70.85 79.82 74.87 80.04 C 74.64 82.29 74.35 84.53 74.02 86.76 C 67.79 86.73 57.76 89.64 54.98 81.98 C 55.29 74.01 56.86 66.02 57.86 58.07 Z" />
<path fill="#ff3662" opacity="1.00" d=" M 78.98 65.17 C 81.29 65.15 83.59 65.16 85.90 65.24 C 85.39 72.34 84.13 79.36 83.17 86.41 C 80.78 86.52 78.39 86.53 76.00 86.37 C 76.88 79.29 77.61 72.17 78.98 65.17 Z" />
<path fill="#ff3662" opacity="1.00" d=" M 90.00 68.10 C 90.67 63.93 95.94 64.91 99.01 64.54 C 103.35 63.97 108.64 66.10 109.12 70.97 C 109.27 76.19 108.03 81.36 107.25 86.50 C 104.86 86.54 102.46 86.48 100.07 86.22 C 100.54 81.53 101.86 76.90 101.68 72.17 C 101.08 70.13 98.44 70.70 96.82 70.52 C 95.93 75.63 95.32 80.78 94.58 85.92 C 92.19 85.13 89.67 85.10 87.24 85.69 C 88.27 79.84 88.77 73.91 90.00 68.10 Z" />
<path fill="#ff3662" opacity="1.00" d=" M 88.97 95.54 C 82.68 94.11 87.19 84.89 92.29 87.70 C 95.45 90.52 92.37 94.86 88.97 95.54 Z" />
<path fill="#ff3662" opacity="1.00" d=" M 65.62 92.62 C 66.93 88.34 75.93 87.95 76.09 93.02 C 77.51 101.46 78.98 109.89 80.24 118.36 C 77.69 118.62 75.11 118.65 72.55 118.54 C 72.22 116.68 71.91 114.81 71.60 112.95 C 69.12 112.78 66.64 112.79 64.17 113.01 C 63.42 114.79 62.67 116.57 61.92 118.35 C 59.40 118.55 56.86 118.56 54.33 118.43 C 57.70 109.66 61.87 101.22 65.62 92.62 M 67.00 106.62 C 68.27 106.63 69.55 106.62 70.82 106.62 C 70.71 104.33 70.58 102.03 70.39 99.75 C 68.13 101.27 67.97 104.29 67.00 106.62 Z" />
<path fill="#ff3662" opacity="1.00" d=" M 120.27 93.29 C 122.60 93.24 124.93 93.20 127.27 93.14 C 126.74 99.42 125.24 105.59 123.74 111.69 C 121.95 111.64 120.18 111.59 118.40 111.53 C 118.77 105.43 119.23 99.32 120.27 93.29 Z" />
<path fill="#ff3662" opacity="1.00" d=" M 85.55 96.44 C 87.90 96.29 90.26 96.31 92.59 96.61 C 91.47 104.12 91.14 111.79 89.14 119.14 C 87.95 123.67 83.56 126.48 79.14 127.14 C 77.23 126.08 77.48 123.28 76.86 121.39 C 86.62 117.46 82.51 104.53 85.55 96.44 Z" />
<path fill="#ff3662" opacity="1.00" d=" M 96.06 101.01 C 100.30 94.57 109.21 95.90 115.63 97.58 C 115.33 103.86 114.52 110.17 113.26 116.31 C 108.34 119.26 101.35 119.62 96.33 116.70 C 92.25 112.67 93.59 105.61 96.06 101.01 M 106.64 111.90 C 107.17 108.73 107.66 105.55 107.61 102.33 C 100.94 100.69 98.86 114.29 106.64 111.90 Z" />
<path fill="#ff3662" opacity="1.00" d=" M 120.32 113.35 C 126.03 112.37 125.08 121.62 120.01 121.28 C 114.72 121.47 115.70 113.54 120.32 113.35 Z" />
<path fill="#ff3662" opacity="1.00" d=" M 49.41 137.50 C 79.51 130.80 110.66 126.77 141.50 129.32 C 113.14 131.64 84.31 133.80 56.92 142.29 C 54.24 140.99 51.57 139.58 49.41 137.50 Z" />
</g>
</svg>
