<?xml version="1.0" encoding="UTF-8" ?>
<!DOCTYPE svg PUBLIC "-//W3C//DTD SVG 1.1//EN" "http://www.w3.org/Graphics/SVG/1.1/DTD/svg11.dtd">
<svg width="192pt" height="192pt" viewBox="0 0 192 192" version="1.1" xmlns="http://www.w3.org/2000/svg">
<g id="#1ab0ffff">
<path fill="#1ab0ff" opacity="1.00" d=" M 40.29 21.33 C 75.77 19.97 111.43 21.12 146.98 20.73 C 159.55 20.20 171.01 31.36 170.82 43.93 C 170.89 77.97 170.89 112.02 170.85 146.06 C 171.14 158.35 160.35 169.47 148.06 169.52 C 113.69 169.59 79.32 169.56 44.95 169.51 C 32.63 169.49 21.79 158.37 22.07 146.05 C 22.05 112.01 22.06 77.97 22.10 43.94 C 21.99 33.38 30.02 23.57 40.29 21.33 M 42.28 32.31 C 37.20 33.70 33.14 38.57 33.27 43.93 C 33.23 77.97 33.26 112.02 33.26 146.06 C 33.02 152.79 39.25 158.74 45.95 158.34 C 79.89 158.30 113.83 158.35 147.77 158.27 C 154.17 158.27 159.77 152.45 159.65 146.07 C 159.69 112.02 159.72 77.97 159.65 43.92 C 159.72 36.88 152.88 31.21 146.01 31.81 C 111.45 32.17 76.77 31.10 42.28 32.31 Z" />
<path fill="#1ab0ff" opacity="1.00" d=" M 71.35 63.37 C 77.05 61.63 82.75 68.49 79.74 73.73 C 77.66 78.66 70.09 79.27 67.14 74.87 C 64.03 70.92 66.39 64.35 71.35 63.37 Z" />
<path fill="#1ab0ff" opacity="1.00" d=" M 103.04 85.30 C 108.68 81.79 115.59 79.52 122.13 81.86 C 127.73 83.50 130.70 89.48 130.48 95.02 C 130.37 102.99 130.63 110.98 130.16 118.93 C 127.75 122.69 120.43 122.21 117.35 119.62 C 115.50 111.12 118.59 101.79 115.68 93.39 C 112.23 89.58 106.23 91.40 102.17 93.23 C 101.21 101.90 102.40 110.71 101.39 119.35 C 98.20 122.78 87.04 123.04 88.20 116.05 C 88.60 104.74 87.83 93.34 88.88 82.07 C 92.93 82.03 96.97 82.05 101.02 82.00 C 101.68 83.11 102.38 84.19 103.04 85.30 Z" />
<path fill="#1ab0ff" opacity="1.00" d=" M 66.32 82.32 C 70.63 81.80 74.97 82.10 79.30 82.09 C 80.08 93.36 79.30 104.71 79.49 116.01 C 80.69 123.06 68.90 123.04 66.12 118.94 C 65.82 106.75 66.12 94.52 66.32 82.32 Z" />
</g>
</svg>
