<?xml version="1.0" encoding="UTF-8" ?>
<!DOCTYPE svg PUBLIC "-//W3C//DTD SVG 1.1//EN" "http://www.w3.org/Graphics/SVG/1.1/DTD/svg11.dtd">
<svg width="192pt" height="192pt" viewBox="0 0 192 192" version="1.1" xmlns="http://www.w3.org/2000/svg">
<g id="#a51affff">
<path fill="#a51aff" opacity="1.00" d=" M 54.35 14.45 C 71.36 9.99 89.50 24.61 89.46 42.03 C 89.36 77.67 89.59 113.32 89.37 148.95 C 89.00 164.47 74.29 177.21 58.97 176.21 C 49.84 175.72 40.92 170.72 36.03 162.94 C 33.55 159.11 37.56 153.61 41.99 154.74 C 45.93 155.79 47.37 160.39 50.94 162.17 C 59.04 167.72 71.25 164.50 75.88 155.95 C 78.72 151.13 78.13 145.36 78.16 140.00 C 78.18 107.67 78.13 75.33 78.21 42.99 C 78.40 33.74 70.41 25.00 61.03 25.08 C 52.17 24.64 43.28 31.90 42.88 40.95 C 42.60 71.98 42.88 103.02 42.69 134.05 C 42.64 140.69 31.70 140.66 31.59 134.03 C 31.34 103.04 31.50 72.02 31.60 41.02 C 31.76 28.23 42.07 17.06 54.35 14.45 Z" />
<path fill="#a51aff" opacity="1.00" d=" M 126.33 120.39 C 141.24 117.54 157.11 128.27 159.63 143.31 C 163.44 159.92 149.05 177.66 132.00 177.21 C 117.26 178.18 103.62 165.54 102.64 150.97 C 101.44 136.75 112.14 122.61 126.33 120.39 M 127.44 131.70 C 119.30 133.52 113.36 141.77 113.93 150.05 C 114.59 158.93 122.99 166.75 132.05 165.90 C 142.77 166.15 151.54 154.17 148.11 144.00 C 145.81 135.29 136.20 129.55 127.44 131.70 Z" />
</g>
</svg>
