<?xml version="1.0" encoding="UTF-8" ?>
<!DOCTYPE svg PUBLIC "-//W3C//DTD SVG 1.1//EN" "http://www.w3.org/Graphics/SVG/1.1/DTD/svg11.dtd">
<svg width="192pt" height="192pt" viewBox="0 0 192 192" version="1.1" xmlns="http://www.w3.org/2000/svg">
<g id="#ce9a4cff">
<path fill="#ce9a4c" opacity="1.00" d=" M 40.12 19.94 C 40.25 16.50 43.77 14.27 47.00 14.66 C 79.67 14.66 112.34 14.63 145.00 14.65 C 148.23 14.27 151.65 16.57 151.78 19.97 C 152.01 25.78 151.74 31.60 151.90 37.41 C 158.21 38.75 167.85 34.30 171.52 41.37 C 172.24 53.88 171.62 66.50 171.84 79.05 C 172.15 81.92 171.01 85.27 167.93 86.05 C 145.90 91.86 123.62 96.85 101.64 102.82 C 101.69 106.00 101.66 109.17 101.68 112.35 C 105.28 112.12 110.47 112.15 111.44 116.59 C 112.72 130.04 113.14 143.55 114.21 157.02 C 114.96 167.10 106.17 176.70 95.99 176.51 C 85.80 176.76 76.94 167.12 77.75 157.02 C 78.81 143.47 79.16 129.86 80.54 116.35 C 81.64 112.07 86.67 112.20 90.19 112.37 C 91.33 106.17 87.47 97.59 93.11 93.11 C 115.36 86.99 137.94 81.94 160.28 76.10 C 160.30 67.11 160.33 58.13 160.27 49.14 C 157.46 49.11 154.66 49.12 151.87 49.17 C 151.79 54.79 151.99 60.42 151.80 66.04 C 151.76 69.00 149.01 71.69 146.01 71.44 C 112.67 71.49 79.33 71.47 45.99 71.43 C 42.99 71.66 40.20 69.04 40.10 66.06 C 39.82 60.41 40.12 54.75 39.90 49.10 C 37.11 49.10 34.32 49.13 31.53 49.18 C 31.27 52.87 32.76 57.68 29.32 60.30 C 25.93 63.15 20.12 60.47 20.14 56.05 C 20.01 48.36 20.04 40.65 20.13 32.96 C 20.04 28.50 25.94 25.81 29.31 28.69 C 32.14 30.67 31.52 34.45 31.61 37.43 C 34.40 37.50 37.19 37.51 39.99 37.45 C 40.14 31.62 39.78 25.77 40.12 19.94 M 51.71 26.24 C 51.61 37.45 51.68 48.66 51.68 59.87 C 81.16 60.06 110.64 59.94 140.12 59.93 C 140.12 48.71 140.26 37.50 140.06 26.28 C 110.61 26.25 81.16 26.30 51.71 26.24 M 91.35 123.85 C 90.58 135.25 89.72 146.65 89.29 158.07 C 88.90 162.63 94.30 166.62 98.47 164.50 C 101.79 163.18 103.16 159.37 102.60 156.03 C 101.77 145.23 101.63 134.36 100.29 123.61 C 97.31 123.72 94.32 123.55 91.35 123.85 Z" />
</g>
</svg>
