<?xml version="1.0" encoding="UTF-8" ?>
<!DOCTYPE svg PUBLIC "-//W3C//DTD SVG 1.1//EN" "http://www.w3.org/Graphics/SVG/1.1/DTD/svg11.dtd">
<svg width="192pt" height="192pt" viewBox="0 0 192 192" version="1.1" xmlns="http://www.w3.org/2000/svg">
<g id="#4e8ac7ff">
<path fill="#4e8ac7" opacity="1.00" d=" M 100.60 18.62 C 101.09 17.20 103.08 13.99 104.24 16.71 C 107.35 26.58 110.89 36.82 112.13 46.95 C 102.43 51.58 92.43 55.73 82.37 59.56 C 88.43 45.91 94.32 32.17 100.60 18.62 Z" />
<path fill="#4e8ac7" opacity="1.00" d=" M 155.33 39.39 C 158.93 37.73 164.16 37.79 166.27 41.70 C 168.60 45.42 166.05 49.66 163.30 52.30 C 125.80 90.80 88.49 129.49 50.97 167.96 C 47.07 172.77 38.57 169.15 39.36 163.00 C 42.26 146.13 46.70 129.52 49.73 112.66 C 41.95 108.99 33.93 105.74 26.42 101.55 C 21.74 98.64 23.16 90.91 28.38 89.49 C 70.67 72.74 113.01 56.08 155.33 39.39 M 41.90 96.56 C 46.99 99.02 52.19 101.26 57.25 103.78 C 60.63 105.32 62.41 109.27 61.45 112.84 C 59.00 124.70 56.20 136.49 53.93 148.38 C 83.73 118.08 113.50 87.67 142.68 56.77 C 108.99 69.76 75.31 82.91 41.90 96.56 Z" />
<path fill="#4e8ac7" opacity="1.00" d=" M 130.55 102.01 C 129.87 95.91 139.44 93.83 141.33 99.63 C 147.76 117.96 154.21 136.31 160.33 154.75 C 162.04 160.05 155.71 165.04 150.93 162.18 C 135.98 153.18 121.17 143.93 106.32 134.77 C 102.42 132.78 102.67 126.40 106.73 124.76 C 109.97 123.12 113.05 125.66 115.69 127.26 C 125.50 133.27 135.17 139.50 145.13 145.26 C 140.55 130.75 134.88 116.58 130.55 102.01 Z" />
</g>
</svg>
