<?xml version="1.0" encoding="UTF-8" ?>
<!DOCTYPE svg PUBLIC "-//W3C//DTD SVG 1.1//EN" "http://www.w3.org/Graphics/SVG/1.1/DTD/svg11.dtd">
<svg width="192pt" height="192pt" viewBox="0 0 192 192" version="1.1" xmlns="http://www.w3.org/2000/svg">
<g id="#ff3662ff">
<path fill="#ff3662" opacity="1.00" d=" M 84.42 14.52 C 116.11 9.59 149.58 25.51 165.93 53.05 C 178.43 73.30 181.27 99.11 173.66 121.64 C 164.32 150.40 137.84 172.62 107.85 176.68 C 76.52 181.69 43.27 166.33 26.67 139.32 C 8.46 111.29 10.21 72.17 30.87 45.89 C 43.72 28.98 63.36 17.39 84.42 14.52 M 87.40 25.46 C 63.29 28.11 41.44 44.37 31.54 66.45 C 18.22 94.77 26.76 131.24 51.46 150.54 C 77.40 172.46 119.16 171.19 143.69 147.70 C 167.77 126.47 173.72 88.23 157.38 60.64 C 143.83 36.26 115.07 21.78 87.40 25.46 Z" />
<path fill="#ff3662" opacity="1.00" d=" M 89.36 65.47 C 105.62 61.27 123.57 72.73 126.81 89.14 C 131.09 105.81 118.85 124.17 101.88 126.75 C 85.73 130.15 68.55 118.42 65.65 102.23 C 61.94 86.18 73.22 68.70 89.36 65.47 Z" />
</g>
</svg>
