<?xml version="1.0" encoding="UTF-8" ?>
<!DOCTYPE svg PUBLIC "-//W3C//DTD SVG 1.1//EN" "http://www.w3.org/Graphics/SVG/1.1/DTD/svg11.dtd">
<svg width="192pt" height="192pt" viewBox="0 0 192 192" version="1.1" xmlns="http://www.w3.org/2000/svg">
<g id="#ff3661ff">
<path fill="#ff3661" opacity="1.00" d=" M 40.28 21.31 C 75.76 19.97 111.43 21.11 146.98 20.73 C 159.55 20.19 171.02 31.37 170.82 43.95 C 170.88 77.98 170.87 112.02 170.83 146.06 C 171.16 158.34 160.34 169.45 148.06 169.51 C 113.69 169.58 79.32 169.56 44.95 169.51 C 32.61 169.50 21.78 158.37 22.06 146.04 C 22.04 112.01 22.02 77.98 22.08 43.94 C 21.97 33.38 30.00 23.55 40.28 21.31 M 42.27 32.34 C 37.22 33.74 33.18 38.59 33.29 43.92 C 33.24 77.97 33.27 112.02 33.28 146.06 C 33.03 152.80 39.29 158.78 46.01 158.33 C 79.67 158.33 113.33 158.33 146.99 158.32 C 153.68 158.71 159.80 152.76 159.65 146.08 C 159.70 112.03 159.72 77.97 159.64 43.92 C 159.72 36.88 152.87 31.23 146.01 31.82 C 111.44 32.19 76.76 31.11 42.27 32.34 Z" />
<path fill="#ff3661" opacity="1.00" d=" M 112.53 70.16 C 113.02 64.02 123.04 64.00 123.54 70.16 C 123.91 84.73 123.58 99.33 123.70 113.92 C 129.20 112.32 137.80 116.15 133.96 122.81 C 128.24 127.74 119.31 124.52 112.31 125.04 C 112.60 106.75 112.16 88.45 112.53 70.16 Z" />
<path fill="#ff3661" opacity="1.00" d=" M 52.64 66.73 C 64.80 67.90 75.34 74.83 86.18 79.86 C 102.25 88.86 106.10 108.29 107.00 125.17 C 97.16 124.79 87.03 123.59 78.25 118.83 C 67.59 113.24 60.84 101.89 58.83 90.26 C 57.54 82.32 59.34 72.69 52.64 66.73 Z" />
</g>
</svg>
