<?xml version="1.0" encoding="UTF-8" ?>
<!DOCTYPE svg PUBLIC "-//W3C//DTD SVG 1.1//EN" "http://www.w3.org/Graphics/SVG/1.1/DTD/svg11.dtd">
<svg width="192pt" height="192pt" viewBox="0 0 192 192" version="1.1" xmlns="http://www.w3.org/2000/svg">
<g id="#ff3661ff">
<path fill="#ff3661" opacity="1.00" d=" M 39.36 21.53 C 43.15 20.51 47.12 20.74 51.00 20.72 C 83.33 20.77 115.66 20.68 147.99 20.76 C 159.83 20.75 170.45 31.10 170.77 42.93 C 170.84 48.91 171.07 54.91 170.67 60.88 C 170.00 66.13 161.86 66.81 160.12 61.87 C 158.93 55.14 160.38 48.19 159.34 41.42 C 158.16 35.86 152.68 31.77 147.05 31.86 C 113.35 31.80 79.65 31.80 45.95 31.84 C 40.28 31.71 34.75 35.79 33.56 41.39 C 32.42 48.36 34.44 55.69 32.45 62.49 C 29.82 67.74 21.19 64.86 22.07 59.08 C 22.05 53.38 21.91 47.67 22.20 41.97 C 22.90 32.44 30.19 23.98 39.36 21.53 Z" />
<path fill="#ff3661" opacity="1.00" d=" M 25.81 72.03 C 29.25 71.82 32.71 71.82 36.15 72.13 C 36.95 84.23 36.16 96.38 36.57 108.50 C 42.32 108.97 48.13 108.27 53.86 108.92 C 55.83 111.24 54.48 115.12 54.74 118.05 C 45.01 118.28 35.23 118.61 25.53 117.89 C 25.59 102.61 25.07 87.29 25.81 72.03 Z" />
<path fill="#ff3661" opacity="1.00" d=" M 60.23 72.17 C 63.84 71.84 67.48 71.82 71.10 72.08 C 71.60 78.27 71.25 84.48 71.38 90.68 C 75.77 84.94 79.20 78.44 83.95 72.99 C 88.18 70.97 93.25 72.17 97.80 71.97 C 93.78 79.17 87.53 84.83 83.34 91.95 C 87.88 101.01 94.09 109.12 98.70 118.15 C 94.49 118.28 90.24 118.62 86.05 118.06 C 81.54 112.43 78.91 105.51 74.85 99.54 C 68.84 103.87 72.36 112.02 71.20 118.16 C 67.66 117.59 59.92 120.71 60.05 115.05 C 60.13 100.76 59.82 86.46 60.23 72.17 Z" />
<path fill="#ff3661" opacity="1.00" d=" M 100.85 77.89 C 106.78 72.75 115.58 71.70 122.93 73.95 C 129.72 76.03 133.50 83.99 131.56 90.68 C 129.42 98.46 123.06 103.99 116.99 108.83 C 122.21 109.07 127.46 108.74 132.66 109.33 C 132.76 112.22 132.76 115.12 132.68 118.01 C 122.07 118.66 111.41 118.23 100.77 118.23 C 99.84 115.48 99.63 112.15 101.96 110.00 C 107.91 103.96 115.43 99.16 119.63 91.58 C 121.40 88.65 120.76 84.17 117.35 82.76 C 112.70 80.76 108.04 83.52 103.94 85.52 C 102.89 82.99 101.85 80.44 100.85 77.89 Z" />
<path fill="#ff3661" opacity="1.00" d=" M 141.18 79.25 C 147.75 76.11 154.72 72.67 162.24 73.68 C 162.44 88.51 162.53 103.35 162.19 118.17 C 158.72 118.34 155.24 118.34 151.77 118.17 C 150.91 106.83 151.89 95.42 151.26 84.05 C 148.53 85.26 145.80 86.49 142.98 87.49 C 142.26 84.77 141.64 82.02 141.18 79.25 Z" />
<path fill="#ff3661" opacity="1.00" d=" M 25.29 125.32 C 28.64 123.66 33.03 126.22 33.13 129.98 C 33.60 135.93 32.94 141.91 33.40 147.86 C 34.10 153.90 39.93 158.70 46.00 158.33 C 79.67 158.33 113.34 158.33 147.00 158.32 C 152.78 158.61 158.30 154.26 159.38 148.59 C 160.33 141.84 158.97 134.93 160.09 128.21 C 161.88 123.28 170.01 124.01 170.67 129.28 C 171.07 135.50 170.88 141.77 170.74 148.01 C 170.09 159.58 159.63 169.43 148.06 169.51 C 113.69 169.58 79.32 169.57 44.95 169.51 C 33.70 169.46 23.44 160.22 22.27 149.02 C 21.81 143.00 22.07 136.94 22.06 130.91 C 21.94 128.61 23.11 126.24 25.29 125.32 Z" />
</g>
</svg>
