<?xml version="1.0" encoding="UTF-8" ?>
<!DOCTYPE svg PUBLIC "-//W3C//DTD SVG 1.1//EN" "http://www.w3.org/Graphics/SVG/1.1/DTD/svg11.dtd">
<svg width="192pt" height="192pt" viewBox="0 0 192 192" version="1.1" xmlns="http://www.w3.org/2000/svg">
<g id="#5ace7dff">
<path fill="#5ace7d" opacity="1.00" d=" M 22.08 43.95 C 21.89 31.71 32.77 20.68 45.02 20.76 C 62.02 20.71 79.02 20.74 96.01 20.74 C 99.51 20.36 102.92 23.45 102.74 26.99 C 102.87 34.76 102.70 42.53 102.80 50.30 C 107.03 50.94 115.75 48.04 115.35 55.00 C 110.85 60.82 105.02 65.56 99.98 70.95 C 98.54 73.02 95.42 73.16 93.86 71.14 C 89.02 66.29 84.10 61.51 79.36 56.57 C 77.21 54.79 78.37 50.77 81.14 50.45 C 84.36 50.21 87.60 50.42 90.83 50.31 C 90.69 44.91 91.04 39.49 90.64 34.10 C 90.44 31.93 87.71 31.80 86.03 31.79 C 72.68 31.83 59.34 31.79 45.99 31.82 C 39.79 31.66 33.69 36.65 33.34 42.97 C 33.04 66.30 33.58 89.65 33.08 112.96 C 32.22 118.80 22.94 118.83 22.20 112.95 C 21.88 89.96 22.13 66.95 22.08 43.95 Z" />
<path fill="#5ace7d" opacity="1.00" d=" M 117.27 31.71 C 111.54 31.09 111.38 21.80 117.04 20.87 C 127.34 20.56 137.66 20.78 147.97 20.75 C 160.19 20.72 171.03 31.74 170.83 43.95 C 170.88 77.98 170.87 112.02 170.84 146.05 C 171.20 158.36 160.34 169.45 148.07 169.52 C 113.38 169.56 78.69 169.64 44.01 169.48 C 28.81 169.05 17.52 151.63 23.67 137.63 C 31.08 122.35 43.97 110.05 58.86 102.07 C 54.26 93.98 49.02 86.24 44.73 77.99 C 42.90 72.67 50.63 68.42 54.07 72.89 C 59.37 80.95 63.97 89.46 69.12 97.62 C 86.67 91.39 106.24 91.36 123.78 97.64 C 128.90 89.43 133.57 80.92 138.87 72.83 C 142.29 68.45 149.95 72.69 148.21 77.96 C 143.92 86.21 138.68 93.96 134.08 102.05 C 143.82 107.33 152.62 114.32 159.70 122.86 C 159.64 96.55 159.74 70.23 159.65 43.91 C 159.68 37.68 154.18 32.22 148.03 31.92 C 137.78 31.62 127.51 32.09 117.27 31.71 M 87.40 104.52 C 64.89 107.28 44.26 121.62 33.78 141.72 C 31.12 149.14 36.87 158.35 45.01 158.29 C 79.34 158.34 113.67 158.35 148.00 158.28 C 155.83 158.23 161.33 149.75 159.44 142.43 C 146.48 116.32 116.29 100.48 87.40 104.52 Z" />
<path fill="#5ace7d" opacity="1.00" d=" M 62.35 125.41 C 68.77 123.66 75.03 130.72 72.87 136.92 C 71.28 143.11 62.60 145.69 58.17 140.84 C 53.00 136.27 55.60 126.77 62.35 125.41 Z" />
<path fill="#5ace7d" opacity="1.00" d=" M 122.29 125.37 C 128.27 122.95 135.13 128.78 134.12 135.04 C 133.64 141.33 125.65 145.44 120.46 141.59 C 114.29 137.92 115.41 127.55 122.29 125.37 Z" />
</g>
</svg>
