<?xml version="1.0" encoding="UTF-8" ?>
<!DOCTYPE svg PUBLIC "-//W3C//DTD SVG 1.1//EN" "http://www.w3.org/Graphics/SVG/1.1/DTD/svg11.dtd">
<svg width="192pt" height="192pt" viewBox="0 0 192 192" version="1.1" xmlns="http://www.w3.org/2000/svg">
<g id="#19b0ffff">
<path fill="#19b0ff" opacity="1.00" d=" M 31.69 39.24 C 27.18 34.70 33.97 27.02 39.03 30.96 C 57.93 49.54 76.54 68.43 95.31 87.14 C 114.44 68.68 132.86 49.41 151.91 30.87 C 156.99 27.03 163.68 34.66 159.30 39.20 C 140.79 57.95 122.05 76.50 103.49 95.20 C 122.03 114.12 141.02 132.62 159.55 151.56 C 163.59 156.34 156.46 163.58 151.65 159.40 C 132.78 140.82 114.26 121.86 95.41 103.25 C 76.68 121.93 58.11 140.76 39.30 159.34 C 34.46 163.60 27.23 156.23 31.44 151.46 C 49.95 132.57 68.90 114.11 87.38 95.19 C 68.90 76.46 50.13 58.00 31.69 39.24 Z" />
<path fill="#19b0ff" opacity="1.00" d=" M 94.41 31.52 C 100.44 30.45 105.68 37.50 102.93 42.97 C 100.69 49.05 91.12 49.49 88.31 43.66 C 85.38 38.90 88.85 32.00 94.41 31.52 Z" />
<path fill="#19b0ff" opacity="1.00" d=" M 37.31 87.36 C 43.39 84.79 50.34 91.63 47.85 97.74 C 46.32 103.12 38.79 105.15 34.75 101.29 C 30.06 97.56 31.58 89.18 37.31 87.36 Z" />
<path fill="#19b0ff" opacity="1.00" d=" M 148.27 87.22 C 158.55 83.46 163.47 100.76 152.91 103.03 C 142.98 106.30 138.39 89.91 148.27 87.22 Z" />
<path fill="#19b0ff" opacity="1.00" d=" M 94.36 142.35 C 100.49 141.29 105.76 148.42 102.91 153.96 C 100.73 159.33 92.70 160.41 89.16 155.83 C 84.97 151.23 88.10 142.88 94.36 142.35 Z" />
</g>
</svg>
