<?xml version="1.0" encoding="UTF-8" ?>
<!DOCTYPE svg PUBLIC "-//W3C//DTD SVG 1.1//EN" "http://www.w3.org/Graphics/SVG/1.1/DTD/svg11.dtd">
<svg width="192pt" height="192pt" viewBox="0 0 192 192" version="1.1" xmlns="http://www.w3.org/2000/svg">
<g id="#617080ff">
<path fill="#617080" opacity="1.00" d=" M 55.36 18.49 C 79.79 16.75 104.46 18.24 128.99 17.71 C 142.96 16.72 156.09 28.91 155.84 42.95 C 155.85 84.31 155.95 125.68 155.80 167.04 C 156.21 174.18 144.35 174.18 144.71 167.03 C 144.45 125.67 144.75 84.30 144.57 42.93 C 144.58 35.77 138.30 29.17 131.07 29.20 C 107.70 29.15 84.31 29.17 60.94 29.19 C 53.68 29.07 47.31 35.75 47.38 42.94 C 47.24 84.31 47.51 125.70 47.26 167.06 C 47.52 174.14 35.82 174.14 36.12 167.06 C 35.93 126.04 36.11 85.01 36.05 43.99 C 35.60 32.35 44.01 21.16 55.36 18.49 Z" />
<path fill="#617080" opacity="1.00" d=" M 73.25 83.23 C 78.74 74.94 89.15 70.27 98.99 71.79 C 111.18 73.44 121.27 84.64 121.55 96.95 C 121.72 104.43 121.57 111.92 121.55 119.40 C 126.74 119.02 134.56 119.29 135.34 125.99 C 135.79 138.64 135.38 151.34 135.53 164.01 C 135.89 168.31 132.47 172.50 128.03 172.38 C 107.69 172.50 87.33 172.35 66.98 172.45 C 62.25 172.91 58.06 168.73 58.49 164.00 C 58.55 151.67 58.40 139.32 58.56 126.99 C 58.48 122.55 62.69 119.13 66.99 119.53 C 77.66 119.63 88.34 119.28 98.99 119.70 C 104.79 120.07 105.39 129.48 99.71 130.56 C 89.74 131.15 79.72 130.59 69.73 130.80 C 69.75 140.84 69.81 150.88 69.69 160.91 C 87.88 161.16 106.08 160.99 124.27 160.99 C 124.16 150.93 124.23 140.87 124.22 130.80 C 119.76 130.39 113.07 132.54 110.76 127.34 C 109.41 116.36 111.31 105.13 109.81 94.15 C 107.41 83.75 93.41 79.39 85.46 86.44 C 78.55 91.79 80.03 101.24 79.68 108.90 C 79.28 114.47 70.51 115.19 69.00 109.87 C 67.96 100.92 68.06 90.99 73.25 83.23 Z" />
</g>
</svg>
