<?xml version="1.0" encoding="UTF-8" ?>
<!DOCTYPE svg PUBLIC "-//W3C//DTD SVG 1.1//EN" "http://www.w3.org/Graphics/SVG/1.1/DTD/svg11.dtd">
<svg width="192pt" height="192pt" viewBox="0 0 192 192" version="1.1" xmlns="http://www.w3.org/2000/svg">
<g id="#92845fff">
<path fill="#92845f" opacity="1.00" d=" M 20.18 40.93 C 20.46 29.07 31.19 18.77 43.02 18.78 C 77.34 18.75 111.66 18.71 145.99 18.78 C 158.17 18.78 169.01 29.76 168.78 41.95 C 168.84 75.98 168.83 110.01 168.80 144.04 C 169.00 153.23 163.09 162.10 154.63 165.63 C 149.11 168.19 142.89 167.46 136.99 167.55 C 120.00 167.47 102.97 167.91 85.99 167.42 C 80.59 165.36 83.43 158.36 82.69 153.99 C 82.58 126.94 58.11 103.71 31.27 104.10 C 31.31 117.42 31.25 130.74 31.29 144.06 C 31.00 150.44 36.65 156.30 43.02 156.34 C 51.88 156.58 60.77 156.05 69.62 156.56 C 75.00 157.43 75.29 165.98 70.03 167.32 C 61.05 167.82 52.02 167.43 43.02 167.52 C 31.08 167.53 20.32 157.04 20.16 145.07 C 20.08 110.36 19.83 75.64 20.18 40.93 M 31.35 40.96 C 31.15 47.63 31.35 54.30 31.26 60.98 C 41.73 61.03 52.21 61.42 62.68 61.03 C 62.61 50.69 62.69 40.34 62.63 30.00 C 56.43 29.55 50.20 29.81 43.99 29.80 C 37.81 29.66 31.65 34.62 31.35 40.96 M 74.07 29.83 C 73.55 40.26 73.95 50.72 73.86 61.17 C 87.55 61.22 101.25 61.20 114.94 61.16 C 114.90 50.71 115.11 40.25 114.80 29.81 C 101.22 29.79 87.65 29.72 74.07 29.83 M 126.30 29.92 C 126.27 40.31 126.29 50.70 126.28 61.09 C 136.75 61.22 147.24 61.29 157.71 61.04 C 157.61 54.35 157.86 47.65 157.59 40.96 C 157.16 34.69 151.20 29.73 145.02 29.82 C 138.78 29.77 132.53 29.69 126.30 29.92 M 31.28 72.96 C 31.33 79.34 31.32 85.72 31.28 92.11 C 49.75 93.45 68.37 101.29 80.13 115.98 C 88.99 127.34 94.40 141.72 94.15 156.20 C 101.20 156.30 108.24 156.28 115.29 156.21 C 117.64 123.65 95.18 94.16 67.34 79.64 C 56.50 73.49 43.55 71.50 31.28 72.96 M 77.94 72.39 C 92.82 81.64 105.83 94.07 114.87 109.14 C 114.96 96.89 115.09 84.63 114.79 72.39 C 102.51 72.47 90.23 72.45 77.94 72.39 M 126.31 72.41 C 126.24 86.19 126.32 99.97 126.28 113.75 C 136.75 113.85 147.22 113.81 157.70 113.78 C 157.65 99.99 157.79 86.20 157.62 72.42 C 147.18 72.45 136.75 72.46 126.31 72.41 M 126.27 125.16 C 126.35 135.41 126.08 145.88 127.13 155.99 C 132.95 156.86 139.05 156.13 144.99 156.35 C 151.32 156.70 157.30 151.38 157.61 145.04 C 157.83 138.42 157.63 131.79 157.66 125.17 C 147.20 125.15 136.73 125.17 126.27 125.16 Z" />
</g>
</svg>
