<?xml version="1.0" encoding="UTF-8" ?>
<!DOCTYPE svg PUBLIC "-//W3C//DTD SVG 1.1//EN" "http://www.w3.org/Graphics/SVG/1.1/DTD/svg11.dtd">
<svg width="192pt" height="192pt" viewBox="0 0 192 192" version="1.1" xmlns="http://www.w3.org/2000/svg">
<g id="#887fadff">
<path fill="#887fad" opacity="1.00" d=" M 40.27 21.30 C 70.77 19.97 101.44 21.11 132.00 20.74 C 138.89 20.99 145.88 20.12 152.71 21.36 C 162.93 23.62 170.92 33.43 170.79 43.95 C 170.85 77.98 170.86 112.02 170.82 146.05 C 171.17 158.34 160.33 169.45 148.06 169.52 C 113.69 169.56 79.31 169.61 44.94 169.53 C 32.59 169.55 21.76 158.37 22.05 146.04 C 22.06 112.01 22.00 77.98 22.05 43.95 C 21.97 33.38 29.98 23.54 40.27 21.30 M 33.30 43.92 C 33.25 77.97 33.28 112.02 33.29 146.07 C 33.06 152.78 39.29 158.77 46.01 158.30 C 60.85 158.09 75.75 158.68 90.57 157.96 C 90.26 139.08 90.70 120.17 90.38 101.29 C 77.28 99.72 63.09 101.40 49.61 100.43 C 44.22 98.99 44.76 90.13 50.39 89.54 C 63.69 89.22 77.02 89.41 90.33 89.43 C 90.89 75.98 90.19 62.47 90.67 49.01 C 91.61 43.24 100.85 43.37 101.57 49.16 C 101.88 62.55 101.60 75.98 101.71 89.38 C 120.85 89.45 139.99 89.45 159.12 89.37 C 160.46 75.01 159.32 59.68 159.69 44.94 C 160.25 37.94 153.97 31.65 147.03 31.81 C 113.34 31.71 79.66 31.84 45.97 31.86 C 39.44 31.64 33.15 37.26 33.30 43.92 M 101.82 100.68 C 101.77 119.88 101.78 139.08 101.84 158.28 C 117.22 158.37 132.61 158.36 148.00 158.29 C 154.75 158.21 160.25 151.70 159.69 145.06 C 159.27 130.35 160.52 115.06 159.07 100.71 C 139.99 100.61 120.90 100.65 101.82 100.68 Z" />
</g>
</svg>
