<?xml version="1.0" encoding="UTF-8" ?>
<!DOCTYPE svg PUBLIC "-//W3C//DTD SVG 1.1//EN" "http://www.w3.org/Graphics/SVG/1.1/DTD/svg11.dtd">
<svg width="192pt" height="192pt" viewBox="0 0 192 192" version="1.1" xmlns="http://www.w3.org/2000/svg">
<g id="#ff3661ff">
<path fill="#ff3661" opacity="1.00" d=" M 40.28 21.31 C 75.77 19.97 111.43 21.11 146.98 20.73 C 159.55 20.19 171.01 31.37 170.82 43.93 C 170.88 77.98 170.87 112.02 170.83 146.06 C 171.15 158.35 160.34 169.46 148.06 169.51 C 113.69 169.58 79.32 169.57 44.95 169.51 C 32.61 169.51 21.78 158.37 22.06 146.04 C 22.04 112.01 22.02 77.97 22.08 43.93 C 21.97 33.37 30.00 23.55 40.28 21.31 M 42.27 32.34 C 37.22 33.73 33.18 38.59 33.29 43.93 C 33.24 77.97 33.27 112.02 33.28 146.07 C 33.03 152.81 39.28 158.79 46.01 158.33 C 79.67 158.33 113.34 158.33 147.00 158.32 C 153.69 158.71 159.81 152.76 159.65 146.07 C 159.70 112.02 159.72 77.97 159.64 43.92 C 159.72 36.87 152.86 31.24 146.01 31.82 C 111.44 32.19 76.77 31.11 42.27 32.34 Z" />
<path fill="#ff3661" opacity="1.00" d=" M 47.41 61.16 C 49.53 61.00 51.66 61.00 53.79 61.14 C 54.41 69.67 53.94 78.23 54.09 86.78 C 58.33 86.84 62.58 86.61 66.81 87.08 C 66.80 88.88 66.73 90.69 66.55 92.49 C 60.30 92.40 54.00 92.91 47.77 92.26 C 46.69 82.04 47.49 71.50 47.41 61.16 Z" />
<path fill="#ff3661" opacity="1.00" d=" M 72.36 61.49 C 77.74 60.16 83.86 59.81 89.06 61.91 C 93.84 65.69 91.87 72.71 92.33 78.00 C 92.31 83.11 93.26 91.44 86.45 92.50 C 81.18 92.81 74.83 94.10 70.36 90.59 C 67.04 85.77 68.79 79.48 68.33 74.00 C 68.47 69.77 67.63 63.57 72.36 61.49 M 77.29 66.43 C 74.70 66.80 75.26 70.07 75.08 71.95 C 75.32 76.70 74.45 81.62 75.74 86.25 C 78.38 87.64 82.74 88.09 84.98 85.89 C 86.18 80.47 85.47 74.71 85.41 69.17 C 85.13 65.14 80.03 66.28 77.29 66.43 Z" />
<path fill="#ff3661" opacity="1.00" d=" M 100.30 61.41 C 105.85 60.26 112.48 59.50 117.58 62.45 C 121.51 67.30 119.61 74.23 120.11 80.00 C 120.25 84.77 120.01 92.19 113.70 92.59 C 107.36 93.64 96.08 94.17 96.23 85.02 C 97.23 77.47 92.88 66.37 100.30 61.41 M 105.27 66.39 C 100.40 69.25 103.68 77.14 102.75 82.03 C 101.28 87.96 109.92 88.84 112.81 85.72 C 113.82 80.24 113.35 74.53 113.13 68.98 C 112.71 65.17 107.90 66.32 105.27 66.39 Z" />
<path fill="#ff3661" opacity="1.00" d=" M 124.75 61.07 C 131.21 61.40 138.32 59.60 144.31 62.66 C 148.20 66.73 147.19 73.31 146.40 78.42 C 144.54 84.82 136.41 83.26 131.30 83.48 C 131.28 86.45 131.26 89.41 131.19 92.38 C 129.02 92.50 126.84 92.50 124.66 92.36 C 124.47 81.94 124.31 71.49 124.75 61.07 M 131.31 66.64 C 131.27 70.33 131.26 74.03 131.28 77.72 C 133.98 77.44 137.36 78.52 139.58 76.64 C 140.61 73.79 140.74 70.30 139.43 67.53 C 137.02 66.03 133.99 66.85 131.31 66.64 Z" />
<path fill="#ff3661" opacity="1.00" d=" M 47.03 98.14 C 48.96 98.10 50.90 98.10 52.83 98.15 C 53.25 102.16 53.19 106.19 53.16 110.20 C 54.67 110.20 56.19 110.19 57.71 110.16 C 59.16 106.12 60.55 102.06 62.21 98.11 C 64.20 98.08 66.18 98.11 68.16 98.21 C 67.26 103.34 64.33 107.85 63.31 112.92 C 64.86 117.82 67.31 122.40 68.88 127.30 C 66.82 127.65 64.71 127.70 62.62 127.54 C 60.96 123.58 59.37 119.59 57.83 115.58 C 56.27 115.55 54.72 115.53 53.16 115.51 C 53.17 119.44 53.13 123.37 53.16 127.30 C 51.06 127.74 48.90 127.73 46.80 127.28 C 46.94 117.57 46.53 107.84 47.03 98.14 Z" />
<path fill="#ff3661" opacity="1.00" d=" M 72.18 98.18 C 74.14 98.10 76.09 98.10 78.05 98.13 C 78.64 107.87 78.19 117.64 78.31 127.39 C 76.36 127.24 72.35 128.95 72.07 126.03 C 71.97 116.75 71.82 107.45 72.18 98.18 Z" />
<path fill="#ff3661" opacity="1.00" d=" M 81.71 98.13 C 88.72 98.07 95.76 97.79 102.76 98.28 C 104.53 103.78 99.51 104.07 95.40 103.49 C 95.34 111.46 95.41 119.43 95.35 127.40 C 93.39 127.34 90.68 128.47 89.19 126.89 C 88.73 119.10 89.30 111.28 88.86 103.49 C 86.44 103.48 84.01 103.45 81.59 103.32 C 81.60 101.59 81.63 99.86 81.71 98.13 Z" />
<path fill="#ff3661" opacity="1.00" d=" M 104.26 98.29 C 111.22 97.75 118.22 98.13 125.20 98.07 C 125.54 99.83 125.56 101.62 125.41 103.41 C 122.99 103.46 120.57 103.48 118.14 103.48 C 117.98 111.47 118.23 119.47 117.99 127.46 C 115.93 127.64 113.86 127.63 111.81 127.47 C 111.65 119.48 111.84 111.48 111.67 103.49 C 107.57 104.04 102.51 103.78 104.26 98.29 Z" />
<path fill="#ff3661" opacity="1.00" d=" M 130.98 100.96 C 131.48 96.84 136.63 97.75 139.49 98.54 C 142.98 107.94 145.46 117.71 148.34 127.32 C 144.11 128.90 140.45 126.96 140.44 122.22 C 137.41 122.19 134.38 122.18 131.35 122.18 C 130.79 124.01 130.24 125.84 129.63 127.65 C 127.48 127.71 125.32 127.62 123.20 127.27 C 125.59 118.45 128.40 109.74 130.98 100.96 M 135.78 106.29 C 134.58 109.85 133.60 113.48 132.89 117.16 C 134.96 117.17 137.03 117.18 139.11 117.18 C 138.13 113.51 137.30 109.78 135.78 106.29 Z" />
</g>
</svg>
