<?xml version="1.0" encoding="UTF-8" ?>
<!DOCTYPE svg PUBLIC "-//W3C//DTD SVG 1.1//EN" "http://www.w3.org/Graphics/SVG/1.1/DTD/svg11.dtd">
<svg width="192pt" height="192pt" viewBox="0 0 192 192" version="1.1" xmlns="http://www.w3.org/2000/svg">
<g id="#ff3663ff">
<path fill="#ff3663" opacity="1.00" d=" M 44.22 20.82 C 41.78 15.83 49.15 11.92 52.84 15.19 C 66.18 34.81 68.34 61.29 57.87 82.75 C 82.14 90.87 109.06 91.25 133.41 83.24 C 122.70 61.72 124.70 34.93 138.15 15.16 C 142.67 11.34 150.27 17.27 146.13 22.31 C 136.59 38.91 134.56 59.73 142.78 77.28 C 144.25 81.63 149.23 87.44 144.22 91.24 C 115.38 102.95 82.36 102.95 52.96 93.11 C 50.12 98.82 47.35 104.58 44.95 110.48 C 64.80 115.76 81.74 128.39 95.66 143.12 C 109.19 128.13 126.38 115.75 146.09 110.52 C 145.06 106.63 141.23 102.61 143.62 98.56 C 145.62 95.06 151.30 95.31 152.98 98.99 C 158.31 109.85 162.31 121.81 161.65 134.05 C 161.13 148.47 154.67 161.91 146.80 173.72 C 144.74 177.60 138.34 177.44 136.60 173.37 C 135.22 170.36 138.01 167.80 139.35 165.37 C 148.01 152.18 153.18 135.72 149.14 120.03 C 130.03 125.22 113.63 137.93 101.22 153.05 C 100.70 159.65 101.57 166.33 100.81 172.90 C 99.50 177.72 91.60 177.69 90.20 172.92 C 89.59 166.35 90.34 159.72 89.85 153.14 C 77.48 137.93 60.99 125.24 41.85 120.04 C 37.77 135.98 43.20 152.64 52.04 165.97 C 53.38 168.18 55.67 170.63 54.43 173.41 C 52.81 177.15 47.01 177.64 44.70 174.32 C 34.54 159.76 27.19 141.94 29.85 123.89 C 32.82 101.32 49.48 83.47 52.93 61.06 C 55.25 47.07 50.74 33.06 44.22 20.82 Z" />
<path fill="#ff3663" opacity="1.00" d=" M 92.41 69.49 C 95.72 67.21 101.42 69.65 100.97 73.96 C 100.66 78.52 94.10 79.99 91.29 76.73 C 89.16 74.66 89.81 70.84 92.41 69.49 Z" />
</g>
</svg>
