<?xml version="1.0" encoding="UTF-8" ?>
<!DOCTYPE svg PUBLIC "-//W3C//DTD SVG 1.1//EN" "http://www.w3.org/Graphics/SVG/1.1/DTD/svg11.dtd">
<svg width="192pt" height="192pt" viewBox="0 0 192 192" version="1.1" xmlns="http://www.w3.org/2000/svg">
<g id="#c55ca1ff">
<path fill="#c55ca1" opacity="1.00" d=" M 92.36 24.35 C 94.02 22.48 97.21 22.14 99.04 23.95 C 105.14 29.31 109.92 35.92 114.85 42.32 C 121.55 37.95 128.61 34.00 136.15 31.29 C 138.42 30.36 141.11 31.82 142.02 34.00 C 145.42 41.22 147.55 48.96 149.27 56.73 C 157.09 55.25 165.06 54.38 173.02 54.71 C 175.83 54.61 177.99 57.33 177.81 60.02 C 178.07 74.26 175.69 88.70 169.94 101.79 C 162.73 117.85 148.40 130.15 131.93 136.04 C 104.43 144.30 72.87 143.91 47.16 130.18 C 42.55 132.19 37.48 134.29 34.58 138.63 C 33.48 141.95 36.94 144.18 39.23 145.84 C 49.38 152.02 61.32 154.29 72.93 155.97 C 94.31 158.45 116.31 157.91 137.16 152.23 C 143.98 150.04 151.38 147.81 156.35 142.37 C 158.66 140.05 155.49 137.06 156.45 134.39 C 157.39 130.31 163.18 128.94 165.89 132.12 C 170.41 137.93 168.52 146.58 163.28 151.28 C 154.08 159.83 141.36 162.97 129.39 165.47 C 102.78 170.16 74.91 169.71 48.87 162.14 C 38.99 158.82 27.10 154.25 23.68 143.35 C 21.31 134.02 29.32 126.48 36.91 122.72 C 19.80 106.88 13.78 82.56 14.17 59.96 C 13.92 57.23 16.19 54.65 18.97 54.73 C 26.92 54.42 34.88 55.34 42.70 56.76 C 44.37 48.95 46.53 41.19 49.92 33.94 C 50.94 31.47 54.04 30.39 56.42 31.57 C 63.73 34.33 70.62 38.13 77.14 42.42 C 81.70 36.00 86.60 29.75 92.36 24.35 M 73.66 84.98 C 74.99 102.09 84.50 117.41 95.93 129.73 C 108.59 116.03 119.31 98.33 118.17 79.04 C 116.84 62.04 107.40 46.75 95.95 34.58 C 83.26 48.14 72.71 65.80 73.66 84.98 M 56.89 42.23 C 54.83 47.66 53.29 53.27 52.06 58.95 C 56.90 60.89 61.74 62.83 66.47 65.05 C 67.90 60.16 69.90 55.46 72.16 50.90 C 67.51 47.31 62.13 44.83 56.89 42.23 M 120.03 51.10 C 121.88 55.73 124.15 60.21 125.48 65.04 C 130.13 62.74 134.93 60.82 139.78 59.02 C 138.54 53.34 137.12 47.68 134.94 42.28 C 129.92 45.03 124.01 47.03 120.03 51.10 M 23.71 64.42 C 24.59 80.84 28.22 98.06 38.97 111.01 C 50.05 124.14 67.51 129.71 84.10 131.31 C 71.36 115.60 61.80 95.78 64.20 75.06 C 51.97 67.94 37.77 64.76 23.71 64.42 M 129.86 73.91 C 128.84 74.54 127.14 75.29 127.74 76.84 C 129.78 96.81 120.22 115.91 107.94 131.03 C 124.73 129.84 142.36 123.76 153.35 110.42 C 163.60 97.51 167.53 80.65 167.97 64.45 C 154.83 64.94 141.50 67.58 129.86 73.91 Z" />
</g>
</svg>
