<?xml version="1.0" encoding="UTF-8" ?>
<!DOCTYPE svg PUBLIC "-//W3C//DTD SVG 1.1//EN" "http://www.w3.org/Graphics/SVG/1.1/DTD/svg11.dtd">
<svg width="192pt" height="192pt" viewBox="0 0 192 192" version="1.1" xmlns="http://www.w3.org/2000/svg">
<g id="#4a71c4ff">
<path fill="#4a71c4" opacity="1.00" d=" M 109.84 15.87 C 123.42 9.88 140.47 13.56 150.36 24.62 C 162.43 37.50 162.79 59.54 150.25 72.24 C 146.82 75.39 143.13 79.77 138.12 79.76 C 132.90 79.34 131.59 71.53 136.33 69.31 C 145.07 64.02 150.30 53.23 147.75 43.13 C 145.21 31.71 133.75 23.02 121.99 24.30 C 110.33 24.99 99.98 35.28 99.58 47.03 C 99.42 65.53 99.51 84.03 99.49 102.53 C 117.67 102.70 135.85 102.49 154.02 102.61 C 158.47 102.25 161.39 108.12 158.56 111.50 C 156.40 114.62 152.21 113.59 148.99 113.78 C 132.49 113.88 115.97 113.47 99.48 113.95 C 99.39 123.30 99.85 132.67 99.22 142.00 C 97.60 159.73 80.77 174.23 63.01 173.47 C 45.08 173.44 28.78 158.11 28.17 140.08 C 26.64 122.46 40.57 105.50 57.99 103.06 C 67.97 102.04 78.04 102.80 88.05 102.60 C 88.51 84.05 88.03 65.49 88.33 46.94 C 88.67 33.56 97.54 21.00 109.84 15.87 M 56.14 115.17 C 42.05 118.83 35.01 137.26 42.33 149.67 C 46.81 158.12 56.65 162.94 66.07 162.01 C 75.38 161.41 84.20 154.76 86.61 145.63 C 89.37 135.24 88.12 124.38 88.17 113.77 C 77.49 113.66 66.71 113.40 56.14 115.17 Z" />
</g>
</svg>
