<?xml version="1.0" encoding="UTF-8" ?>
<!DOCTYPE svg PUBLIC "-//W3C//DTD SVG 1.1//EN" "http://www.w3.org/Graphics/SVG/1.1/DTD/svg11.dtd">
<svg width="192pt" height="192pt" viewBox="0 0 192 192" version="1.1" xmlns="http://www.w3.org/2000/svg">
<g id="#3f5d78ff">
<path fill="#3f5d78" opacity="1.00" d=" M 40.29 21.33 C 76.79 20.09 113.47 20.89 150.03 20.92 C 161.42 21.93 170.97 32.49 170.80 43.94 C 170.83 78.32 170.89 112.69 170.78 147.06 C 170.70 159.02 159.95 169.49 148.05 169.55 C 113.69 169.60 79.32 169.59 44.95 169.55 C 32.62 169.55 21.76 158.38 22.10 146.04 C 22.08 112.01 22.07 77.97 22.12 43.94 C 21.97 33.38 30.03 23.58 40.29 21.33 M 42.30 32.41 C 37.26 33.77 33.16 38.60 33.33 43.93 C 33.28 77.97 33.31 112.02 33.32 146.07 C 33.01 152.83 39.29 158.78 46.00 158.36 C 79.66 158.35 113.33 158.36 146.99 158.35 C 153.68 158.70 159.84 152.78 159.65 146.07 C 159.73 112.36 159.67 78.65 159.68 44.94 C 160.21 37.96 153.97 31.69 147.03 31.91 C 112.14 32.07 77.11 31.05 42.30 32.41 Z" />
<path fill="#3f5d78" opacity="1.00" d=" M 53.44 46.50 C 57.24 43.55 62.94 47.38 62.29 51.97 C 62.23 81.32 62.51 110.70 62.15 140.04 C 61.77 146.29 51.49 146.16 51.18 139.97 C 50.84 111.32 51.20 82.65 51.02 53.99 C 51.06 51.37 50.80 48.03 53.44 46.50 Z" />
<path fill="#3f5d78" opacity="1.00" d=" M 87.38 52.01 C 86.81 47.94 90.97 44.19 94.93 45.71 C 98.89 46.91 99.13 51.57 99.11 55.00 C 99.13 81.10 99.11 107.20 99.11 133.30 C 111.41 133.42 123.72 133.16 136.01 133.38 C 140.06 133.12 143.48 137.79 141.60 141.50 C 140.44 144.52 136.93 145.27 134.04 145.21 C 120.67 145.11 107.29 145.29 93.93 145.12 C 90.09 145.28 86.86 141.82 87.33 137.99 C 87.34 109.33 87.33 80.67 87.38 52.01 Z" />
<path fill="#3f5d78" opacity="1.00" d=" M 129.40 50.12 C 129.91 43.93 140.09 44.23 140.37 50.40 C 140.68 70.92 140.44 91.46 140.49 111.99 C 140.92 115.49 137.72 117.38 134.98 118.57 C 132.11 117.54 128.88 115.57 129.27 112.03 C 129.32 91.40 129.06 70.74 129.40 50.12 Z" />
</g>
</svg>
