<?xml version="1.0" encoding="UTF-8" ?>
<!DOCTYPE svg PUBLIC "-//W3C//DTD SVG 1.1//EN" "http://www.w3.org/Graphics/SVG/1.1/DTD/svg11.dtd">
<svg width="192pt" height="192pt" viewBox="0 0 192 192" version="1.1" xmlns="http://www.w3.org/2000/svg">
<g id="#ff3664ff">
<path fill="#ff3664" opacity="1.00" d=" M 99.98 25.96 C 105.06 24.47 105.23 14.71 111.72 17.24 C 118.91 25.17 124.71 34.38 131.36 42.81 L 132.09 43.06 C 143.82 39.99 155.39 36.28 167.23 33.66 C 168.39 36.39 165.91 38.44 164.54 40.49 C 158.82 48.25 152.96 55.91 147.45 63.82 C 153.15 71.67 159.14 79.31 164.90 87.12 C 167.82 90.96 167.70 96.84 164.46 100.47 C 159.68 106.01 154.73 111.41 149.92 116.93 C 146.91 120.70 141.33 122.37 136.93 120.10 C 130.44 116.91 124.14 113.35 117.62 110.19 C 115.17 116.83 116.50 124.53 119.04 130.99 C 122.45 139.24 132.20 141.01 137.98 147.02 C 143.10 152.12 148.10 158.55 148.37 166.04 C 147.35 174.71 135.80 175.02 129.68 172.31 C 124.68 167.73 130.95 161.48 136.41 162.98 C 134.28 153.00 122.77 150.11 115.88 144.15 C 105.23 133.83 105.35 117.74 107.13 104.09 C 94.02 109.06 77.92 104.72 70.29 92.65 C 67.85 89.66 70.05 84.56 73.97 84.49 C 78.01 84.24 79.45 88.71 82.16 90.83 C 88.66 96.88 98.87 97.30 106.30 92.71 C 118.01 98.62 129.57 104.79 141.20 110.85 C 146.56 105.48 151.59 99.74 156.40 93.88 C 151.72 84.88 143.82 77.35 138.42 68.57 C 136.27 64.57 137.27 59.52 140.18 56.17 C 140.98 54.64 143.40 53.04 141.63 51.35 C 136.20 52.24 129.86 55.38 125.08 50.93 C 119.84 45.19 115.66 38.55 110.86 32.43 C 83.31 42.81 60.35 64.43 48.57 91.44 C 38.29 113.74 32.42 138.56 34.87 163.18 C 61.87 163.50 88.89 162.97 115.87 163.43 C 121.51 164.28 120.83 173.61 115.02 173.47 C 88.69 173.63 62.35 173.56 36.01 173.48 C 30.09 173.69 24.71 168.48 24.51 162.60 C 22.11 132.74 30.32 102.73 44.63 76.66 C 56.98 54.36 76.73 36.37 99.98 25.96 Z" />
<path fill="#ff3664" opacity="1.00" d=" M 119.09 74.61 C 118.41 69.16 115.23 63.31 116.93 57.98 C 121.81 62.85 126.51 67.93 130.98 73.16 C 129.18 76.44 122.72 73.88 119.09 74.61 Z" />
</g>
</svg>
