<?xml version="1.0" encoding="UTF-8" ?>
<!DOCTYPE svg PUBLIC "-//W3C//DTD SVG 1.1//EN" "http://www.w3.org/Graphics/SVG/1.1/DTD/svg11.dtd">
<svg width="192pt" height="192pt" viewBox="0 0 192 192" version="1.1" xmlns="http://www.w3.org/2000/svg">
<g id="#3987deff">
<path fill="#3987de" opacity="1.00" d=" M 102.38 15.10 C 103.38 11.62 107.47 13.65 109.82 14.24 C 133.70 21.01 154.90 39.67 161.10 64.18 C 158.47 65.45 157.59 62.35 156.22 60.78 C 148.06 49.23 136.79 39.06 122.87 35.32 C 120.10 34.41 116.01 35.37 116.28 38.96 C 116.09 64.32 116.41 89.69 116.13 115.04 C 115.65 124.45 106.00 131.03 96.99 129.68 C 82.04 132.04 71.19 113.05 78.42 100.58 C 82.62 91.80 92.81 88.13 102.03 89.69 C 102.59 64.84 101.94 39.95 102.38 15.10 Z" />
<path fill="#3987de" opacity="1.00" d=" M 69.37 50.47 C 75.17 47.94 79.79 57.25 74.28 60.29 C 60.50 67.65 48.57 79.52 43.59 94.58 C 37.97 112.86 43.08 133.91 56.29 147.71 C 66.39 158.69 81.14 165.05 96.03 165.23 C 112.04 165.34 128.05 165.19 144.06 165.13 C 147.73 165.22 150.51 161.55 150.09 158.03 C 149.82 137.51 151.18 116.94 149.35 96.47 C 148.81 88.14 144.71 80.22 138.72 74.49 C 138.42 96.01 139.48 117.55 138.88 139.06 C 138.93 146.89 131.77 153.17 124.06 152.60 C 105.75 152.02 84.58 155.49 69.57 142.40 C 50.06 126.97 48.76 93.36 69.12 78.17 C 75.26 75.46 79.66 84.73 74.28 88.28 C 59.06 102.49 64.84 130.41 83.84 138.21 C 95.31 142.64 107.97 140.82 120.00 141.36 C 122.76 141.24 127.95 142.34 127.62 138.04 C 127.84 112.37 127.29 86.68 127.45 61.01 C 126.92 57.32 131.51 54.32 134.63 56.38 C 147.19 64.83 158.48 77.34 160.31 92.93 C 162.74 114.86 161.07 136.96 161.43 158.98 C 161.68 168.33 153.32 176.69 143.97 176.48 C 127.98 176.47 112.00 176.62 96.02 176.51 C 78.18 176.33 60.52 168.73 48.34 155.66 C 32.53 139.27 26.22 114.31 32.56 92.41 C 38.19 74.08 52.34 58.91 69.37 50.47 Z" />
</g>
</svg>
