<?xml version="1.0" encoding="UTF-8" ?>
<!DOCTYPE svg PUBLIC "-//W3C//DTD SVG 1.1//EN" "http://www.w3.org/Graphics/SVG/1.1/DTD/svg11.dtd">
<svg width="192pt" height="192pt" viewBox="0 0 192 192" version="1.1" xmlns="http://www.w3.org/2000/svg">
<g id="#ff3660ff">
<path fill="#ff3660" opacity="1.00" d=" M 91.07 24.82 C 92.42 21.28 91.57 15.23 96.07 14.03 C 101.27 13.93 100.73 20.56 101.40 24.11 C 105.73 20.28 110.48 16.40 116.36 15.44 C 118.00 14.98 118.65 16.95 119.67 17.79 C 116.06 20.73 112.29 23.77 110.56 28.26 C 117.62 23.90 126.23 21.87 134.40 23.70 C 136.02 23.93 136.10 27.15 134.21 27.18 C 129.02 28.49 123.50 29.67 119.64 33.72 C 126.74 33.45 136.73 33.22 139.54 41.40 C 135.26 41.57 128.59 39.28 127.23 45.12 C 125.96 59.47 127.42 73.97 126.36 88.34 C 124.98 101.10 116.22 113.26 103.40 116.37 C 86.96 120.89 68.63 109.13 65.62 92.39 C 63.10 75.49 66.28 58.16 63.80 41.26 C 60.19 41.08 56.19 42.61 52.99 40.30 C 57.63 34.05 65.65 33.00 72.85 34.20 C 69.51 30.02 64.42 28.40 59.37 27.43 C 57.18 27.42 56.00 24.04 58.59 23.65 C 66.56 21.76 74.93 23.89 81.80 28.11 C 80.76 23.44 76.27 21.38 73.35 18.11 C 73.42 16.34 74.31 15.50 76.02 15.57 C 82.05 16.50 87.25 20.20 91.07 24.82 M 75.44 45.40 C 73.87 58.86 74.80 73.28 75.12 87.09 C 75.22 100.26 89.69 110.60 102.14 106.16 C 111.45 103.27 116.38 93.27 116.56 84.06 C 116.66 72.08 116.81 60.09 116.62 48.12 C 116.24 43.39 110.23 44.87 107.00 44.63 C 96.56 45.18 85.45 43.47 75.44 45.40 Z" />
<path fill="#ff3660" opacity="1.00" d=" M 49.26 72.33 C 51.03 67.50 59.34 68.57 59.32 73.98 C 59.52 84.75 58.31 96.27 63.87 106.07 C 69.86 117.92 83.21 124.08 95.97 124.99 C 110.90 124.48 125.31 114.31 129.91 99.92 C 133.49 91.35 131.11 81.96 132.10 73.04 C 133.04 67.42 142.64 68.37 142.61 74.12 C 143.31 86.49 142.73 99.56 136.94 110.79 C 130.22 124.42 116.02 133.69 101.07 135.42 C 100.76 145.47 100.85 155.53 101.07 165.58 C 108.38 165.70 115.71 165.38 123.02 165.71 C 127.11 165.64 129.68 170.91 127.20 174.13 C 125.40 176.82 121.83 176.48 119.00 176.53 C 102.01 176.35 85.00 176.71 68.01 176.36 C 62.30 175.75 62.33 166.49 68.02 165.84 C 75.39 165.24 82.81 165.76 90.20 165.61 C 90.31 155.78 90.53 145.92 90.19 136.10 C 85.14 133.96 79.19 133.59 74.31 130.66 C 53.41 120.25 44.33 94.28 49.26 72.33 Z" />
</g>
</svg>
