<?xml version="1.0" encoding="UTF-8" ?>
<!DOCTYPE svg PUBLIC "-//W3C//DTD SVG 1.1//EN" "http://www.w3.org/Graphics/SVG/1.1/DTD/svg11.dtd">
<svg width="192pt" height="192pt" viewBox="0 0 192 192" version="1.1" xmlns="http://www.w3.org/2000/svg">
<g id="#8392a2ff">
<path fill="#8392a2" opacity="1.00" d=" M 85.35 20.40 C 117.00 16.11 149.97 32.46 166.07 59.95 C 184.32 89.42 180.84 130.74 157.10 156.15 C 151.60 160.24 144.92 151.49 150.20 147.13 C 171.91 121.92 171.71 81.28 149.69 56.33 C 129.20 31.19 90.73 23.66 62.28 39.25 C 43.43 49.04 29.56 67.75 25.65 88.63 C 21.56 109.15 27.21 131.31 40.70 147.31 C 44.07 150.32 42.45 156.26 38.04 157.16 C 33.19 158.03 30.85 152.81 28.30 149.71 C 9.12 123.51 7.97 85.79 25.53 58.47 C 38.42 37.66 61.01 23.20 85.35 20.40 Z" />
<path fill="#8392a2" opacity="1.00" d=" M 90.35 66.29 C 91.93 61.79 99.01 62.12 100.38 66.61 C 109.80 88.86 119.20 111.12 128.49 133.42 C 130.53 137.29 126.32 142.44 122.19 140.80 C 113.08 137.32 104.24 133.16 95.20 129.50 C 86.37 133.28 77.58 137.16 68.68 140.74 C 64.45 142.59 59.87 137.19 62.17 133.20 C 71.52 110.88 80.88 88.56 90.35 66.29 M 93.68 86.46 C 89.06 96.96 84.81 107.63 80.23 118.15 C 79.38 119.93 78.87 121.88 79.35 123.84 C 84.91 123.00 89.54 119.35 94.99 118.17 C 100.27 118.92 104.73 122.39 109.88 123.65 C 111.68 123.32 111.91 121.39 111.11 120.03 C 106.17 108.46 101.50 96.76 96.33 85.28 C 95.40 85.47 94.03 85.29 93.68 86.46 Z" />
</g>
</svg>
