<?xml version="1.0" encoding="UTF-8" ?>
<!DOCTYPE svg PUBLIC "-//W3C//DTD SVG 1.1//EN" "http://www.w3.org/Graphics/SVG/1.1/DTD/svg11.dtd">
<svg width="192pt" height="192pt" viewBox="0 0 192 192" version="1.1" xmlns="http://www.w3.org/2000/svg">
<g id="#867882ff">
<path fill="#867882" opacity="1.00" d=" M 73.93 17.28 C 78.11 16.34 82.87 13.54 86.97 16.10 C 93.85 21.36 96.36 30.62 95.53 38.97 C 94.37 55.38 96.33 71.98 93.54 88.27 C 93.15 71.68 86.38 56.27 84.56 39.97 C 85.55 31.00 80.84 22.68 73.93 17.28 Z" />
<path fill="#867882" opacity="1.00" d=" M 105.42 16.41 C 109.51 13.26 114.72 16.36 119.07 17.29 C 111.53 22.72 107.27 31.66 108.26 40.97 C 105.92 57.00 99.70 72.31 98.89 88.66 C 96.75 71.70 98.35 54.52 97.26 37.48 C 96.58 29.72 99.31 21.43 105.42 16.41 Z" />
<path fill="#867882" opacity="1.00" d=" M 53.90 28.32 C 57.74 23.61 63.58 19.48 69.66 19.28 C 76.00 24.94 76.22 34.70 77.51 42.61 C 77.82 52.29 82.72 60.79 86.20 69.56 C 72.43 58.45 64.15 42.42 53.90 28.32 Z" />
<path fill="#867882" opacity="1.00" d=" M 120.36 22.34 C 121.24 20.75 122.68 18.51 124.82 19.26 C 130.37 20.64 135.43 23.81 138.97 28.33 C 128.74 42.43 120.53 58.56 106.61 69.52 C 109.50 62.09 113.81 55.06 114.85 47.02 C 115.79 38.65 116.60 30.01 120.36 22.34 Z" />
<path fill="#867882" opacity="1.00" d=" M 44.48 45.62 C 44.20 39.69 48.54 34.97 51.72 30.40 C 57.22 45.22 66.73 58.55 79.70 67.73 C 73.49 65.48 67.47 62.70 61.10 60.89 C 53.81 58.56 46.01 53.70 44.48 45.62 Z" />
<path fill="#867882" opacity="1.00" d=" M 141.04 30.54 C 145.57 35.81 151.38 43.56 146.62 50.47 C 139.31 61.66 124.46 62.01 113.43 67.55 C 126.18 58.37 135.64 45.23 141.04 30.54 Z" />
<path fill="#867882" opacity="1.00" d=" M 42.52 51.57 C 48.59 63.62 62.70 65.57 74.38 68.70 C 78.61 69.72 85.50 74.03 81.95 78.97 C 74.45 86.02 61.17 85.32 54.14 77.86 C 47.19 70.90 43.65 61.20 42.52 51.57 Z" />
<path fill="#867882" opacity="1.00" d=" M 121.78 67.68 C 132.68 65.46 144.48 62.10 150.43 51.78 C 149.16 61.78 145.39 71.92 137.86 78.89 C 130.30 85.63 116.67 86.12 110.15 77.77 C 108.83 71.28 116.93 68.97 121.78 67.68 Z" />
<path fill="#867882" opacity="1.00" d=" M 41.43 62.12 C 45.43 71.60 49.81 82.83 60.42 86.47 C 68.17 89.37 76.31 86.30 83.46 83.23 C 74.23 90.72 63.09 96.86 58.96 108.80 C 52.55 106.97 47.79 101.72 45.33 95.68 C 41.05 85.12 39.80 73.39 41.43 62.12 Z" />
<path fill="#867882" opacity="1.00" d=" M 137.12 84.09 C 144.68 79.09 147.88 70.19 151.33 62.24 C 153.29 73.66 151.72 85.64 147.28 96.31 C 144.73 101.71 140.37 107.54 134.02 108.27 C 131.62 105.43 130.54 101.74 128.18 98.86 C 122.99 92.39 115.41 88.60 109.18 83.29 C 117.86 87.09 128.69 90.24 137.12 84.09 Z" />
<path fill="#867882" opacity="1.00" d=" M 84.65 94.68 C 88.74 93.07 93.09 94.68 96.31 97.32 C 99.68 95.32 103.58 93.13 107.62 94.51 C 116.45 97.69 120.00 107.77 128.25 111.81 C 133.93 114.22 140.96 114.79 146.38 111.40 C 151.57 108.41 154.89 103.26 159.15 99.23 C 154.36 113.02 139.78 125.16 124.57 121.41 C 114.52 119.22 110.81 107.17 100.68 105.25 C 97.87 104.90 97.35 101.88 96.44 99.72 C 95.96 104.54 91.50 105.56 87.67 106.81 C 80.33 111.13 76.10 120.61 66.87 121.62 C 51.97 124.16 38.45 112.42 33.77 99.05 C 38.42 103.76 42.26 109.73 48.58 112.39 C 55.53 114.99 64.04 113.68 69.45 108.44 C 74.45 103.81 78.15 97.43 84.65 94.68 Z" />
<path fill="#867882" opacity="1.00" d=" M 106.23 112.16 C 111.62 116.94 116.09 122.92 122.41 126.54 C 127.15 128.95 132.21 125.97 136.39 123.80 C 128.23 135.72 119.43 147.90 107.45 156.24 C 108.05 148.45 110.35 140.83 109.98 132.97 C 109.89 125.86 107.60 119.07 106.23 112.16 Z" />
<path fill="#867882" opacity="1.00" d=" M 69.67 127.62 C 76.29 124.16 80.72 117.87 86.31 113.10 C 84.75 120.66 82.43 128.19 82.57 135.99 C 82.57 143.15 84.75 150.07 85.06 157.20 C 73.19 148.67 64.30 136.59 56.18 124.60 C 60.22 126.76 64.98 129.69 69.67 127.62 Z" />
<path fill="#867882" opacity="1.00" d=" M 89.08 113.38 C 92.75 118.82 100.27 119.08 103.98 113.54 C 102.73 122.36 104.74 131.15 104.26 139.97 C 102.99 152.18 100.03 164.40 94.86 175.55 C 91.92 165.73 90.05 155.61 88.81 145.44 C 87.57 134.76 89.84 124.07 89.08 113.38 Z" />
</g>
</svg>
