<?xml version="1.0" encoding="UTF-8" ?>
<!DOCTYPE svg PUBLIC "-//W3C//DTD SVG 1.1//EN" "http://www.w3.org/Graphics/SVG/1.1/DTD/svg11.dtd">
<svg width="192pt" height="192pt" viewBox="0 0 192 192" version="1.1" xmlns="http://www.w3.org/2000/svg">
<g id="#19afffff">
<path fill="#19afff" opacity="1.00" d=" M 95.98 41.99 C 109.07 25.32 130.05 15.58 151.07 14.95 C 157.66 15.81 156.74 26.55 150.00 26.13 C 129.05 27.26 109.58 39.17 98.73 57.08 C 108.75 68.70 118.58 80.88 125.12 94.85 C 129.28 102.85 125.05 114.11 115.71 115.62 C 101.23 117.74 86.48 117.05 71.88 117.44 C 81.90 135.75 96.83 151.01 109.33 167.65 C 111.93 172.68 104.90 178.12 100.71 174.30 C 87.34 159.19 75.36 142.84 63.30 126.73 C 57.65 139.63 52.63 152.79 48.13 166.13 C 47.33 168.37 46.41 171.16 43.79 171.78 C 39.69 173.51 35.04 168.83 36.70 164.73 C 43.75 143.35 52.37 122.51 62.32 102.32 C 71.49 81.19 81.56 60.11 95.98 41.99 M 72.98 106.17 C 87.02 105.44 101.34 106.82 115.17 104.00 C 115.98 100.05 113.52 96.59 111.74 93.30 C 106.12 84.00 99.56 75.29 92.54 67.00 C 84.78 79.39 78.73 92.75 72.98 106.17 Z" />
<path fill="#19afff" opacity="1.00" d=" M 127.34 42.44 C 141.11 37.31 156.30 51.96 151.84 65.90 C 148.78 79.53 129.79 84.92 120.00 74.98 C 109.42 65.72 113.74 46.21 127.34 42.44 M 130.28 53.38 C 124.84 55.29 123.53 63.37 127.97 67.00 C 132.14 70.70 139.68 68.46 140.93 62.95 C 142.87 57.00 136.01 50.76 130.28 53.38 Z" />
</g>
</svg>
