<?xml version="1.0" encoding="UTF-8" ?>
<!DOCTYPE svg PUBLIC "-//W3C//DTD SVG 1.1//EN" "http://www.w3.org/Graphics/SVG/1.1/DTD/svg11.dtd">
<svg width="192pt" height="192pt" viewBox="0 0 192 192" version="1.1" xmlns="http://www.w3.org/2000/svg">
<g id="#ff527dff">
<path fill="#ff527d" opacity="1.00" d=" M 38.33 21.42 C 41.49 20.68 44.76 20.71 47.99 20.72 C 87.00 20.84 126.01 20.55 165.01 20.85 C 172.01 21.21 171.09 32.70 164.10 32.04 C 124.05 32.21 83.99 32.05 43.94 32.11 C 37.42 31.72 31.42 37.49 31.41 43.99 C 31.24 70.33 31.59 96.69 31.25 123.02 C 30.85 129.30 20.57 129.18 20.24 122.95 C 19.98 96.97 20.21 70.96 20.14 44.97 C 19.70 34.12 27.72 23.74 38.33 21.42 Z" />
<path fill="#ff527d" opacity="1.00" d=" M 58.68 64.98 C 58.24 60.18 64.88 57.34 68.09 60.87 C 77.17 69.72 86.02 78.81 95.02 87.74 C 104.06 78.87 112.90 69.80 121.96 60.96 C 125.18 57.29 131.93 60.13 131.55 65.00 C 131.55 85.87 131.78 106.77 131.44 127.64 C 130.77 133.51 121.39 133.65 120.47 127.85 C 119.98 111.48 120.50 95.06 120.22 78.67 C 113.04 85.66 106.10 92.91 98.87 99.86 C 96.61 102.18 92.72 101.72 90.67 99.36 C 83.82 92.53 76.95 85.71 70.17 78.81 C 69.36 95.16 70.86 111.58 69.70 127.90 C 68.77 134.02 58.72 133.23 58.71 127.04 C 58.57 106.36 58.64 85.66 58.68 64.98 Z" />
<path fill="#ff527d" opacity="1.00" d=" M 161.40 64.50 C 165.22 61.78 170.73 65.41 170.13 69.95 C 170.14 95.98 170.22 122.02 170.08 148.05 C 169.88 160.13 159.08 170.77 146.98 170.71 C 106.33 170.68 65.66 170.84 25.01 170.60 C 18.66 170.32 18.66 159.88 25.02 159.60 C 65.66 159.24 106.34 159.60 146.99 159.40 C 153.40 159.33 158.97 153.47 158.79 147.07 C 158.85 121.37 158.76 95.67 158.83 69.97 C 158.74 67.86 159.51 65.62 161.40 64.50 Z" />
</g>
</svg>
