<?xml version="1.0" encoding="UTF-8" ?>
<!DOCTYPE svg PUBLIC "-//W3C//DTD SVG 1.1//EN" "http://www.w3.org/Graphics/SVG/1.1/DTD/svg11.dtd">
<svg width="192pt" height="192pt" viewBox="0 0 192 192" version="1.1" xmlns="http://www.w3.org/2000/svg">
<g id="#1ab2ffff">
<path fill="#1ab2ff" opacity="1.00" d=" M 17.11 44.94 C 16.98 37.11 24.27 30.42 32.01 30.82 C 51.68 30.88 71.36 30.65 91.02 30.93 C 97.37 31.17 97.42 41.61 91.08 41.94 C 71.08 42.41 51.04 41.87 31.03 42.20 C 29.03 42.13 28.11 44.25 28.32 45.97 C 28.27 78.65 28.32 111.34 28.30 144.02 C 27.93 146.22 29.51 148.64 31.96 148.25 C 74.31 148.27 116.66 148.27 159.01 148.20 C 160.96 148.52 162.67 146.79 162.52 144.87 C 162.61 113.28 162.52 81.68 162.57 50.08 C 141.61 70.95 120.72 91.90 99.73 112.75 C 97.60 115.40 93.21 115.68 90.95 113.03 C 85.01 107.00 78.79 101.22 73.07 94.98 C 69.43 90.35 76.05 83.68 80.71 87.21 C 85.73 91.62 90.26 96.59 95.02 101.28 C 118.39 78.54 141.19 55.19 164.43 32.32 C 167.85 28.70 174.51 32.02 173.83 36.92 C 173.87 72.97 173.90 109.02 173.85 145.06 C 174.11 152.94 166.91 159.93 159.06 159.55 C 116.37 159.54 73.67 159.57 30.98 159.50 C 23.44 159.46 16.85 152.58 17.07 145.05 C 17.06 111.68 17.05 78.31 17.11 44.94 Z" />
</g>
</svg>
