<?xml version="1.0" encoding="UTF-8" ?>
<!DOCTYPE svg PUBLIC "-//W3C//DTD SVG 1.1//EN" "http://www.w3.org/Graphics/SVG/1.1/DTD/svg11.dtd">
<svg width="192pt" height="192pt" viewBox="0 0 192 192" version="1.1" xmlns="http://www.w3.org/2000/svg">
<g id="#ff365dff">
<path fill="#ff365d" opacity="1.00" d=" M 18.69 51.64 C 21.75 44.55 26.59 36.21 35.05 35.29 C 39.88 34.45 42.38 39.96 41.80 44.00 C 41.05 53.18 38.91 62.18 37.45 71.26 C 38.69 71.56 40.26 72.71 41.15 71.16 C 48.94 60.92 56.47 50.45 64.14 40.14 C 66.76 36.30 74.67 36.35 74.65 41.97 C 71.69 53.82 67.02 65.25 64.29 77.19 C 63.61 78.71 65.03 79.53 66.01 80.38 C 74.15 69.08 81.18 56.90 90.46 46.45 C 92.89 43.33 97.92 42.00 100.97 45.00 C 102.86 47.39 102.08 50.72 101.45 53.43 C 98.33 64.78 95.45 76.29 94.46 88.04 C 93.82 90.36 97.38 91.78 98.47 89.62 C 108.79 75.69 118.16 60.94 125.17 45.05 C 126.87 41.41 128.85 37.52 132.47 35.45 C 136.63 34.16 141.42 38.92 139.08 43.01 C 133.86 53.64 129.41 64.69 126.31 76.14 C 125.46 80.44 124.55 86.40 128.66 89.33 C 132.94 91.32 137.02 87.49 138.97 83.98 C 147.05 70.00 154.82 55.83 162.81 41.80 C 164.80 37.86 170.07 37.27 173.33 39.96 C 173.11 41.52 173.15 43.15 172.55 44.63 C 162.09 64.36 151.12 83.95 142.77 104.71 C 137.41 119.37 132.13 135.44 136.98 150.99 C 136.14 158.12 124.92 155.27 123.60 149.41 C 118.79 133.50 128.47 118.21 131.95 103.20 C 127.64 103.74 122.61 104.12 119.35 100.66 C 114.17 95.56 115.24 87.62 116.00 81.08 C 110.75 87.82 105.44 94.52 100.33 101.36 C 97.94 104.66 94.24 107.47 89.97 107.16 C 86.12 106.69 84.16 102.57 84.41 99.05 C 84.75 88.99 86.41 79.01 86.55 68.93 C 78.97 81.03 70.68 92.67 61.94 103.94 C 59.46 107.92 51.62 107.44 51.55 102.06 C 52.22 92.32 54.89 82.75 54.88 72.95 C 54.24 73.04 52.97 73.22 52.33 73.32 C 44.47 83.08 38.32 94.04 31.44 104.47 C 28.71 108.93 20.95 106.29 21.64 101.04 C 24.66 85.58 28.95 70.36 32.31 54.96 C 32.89 53.39 32.43 52.21 30.95 51.42 C 26.64 53.21 26.55 60.91 21.00 60.24 C 16.70 59.65 17.16 54.55 18.69 51.64 Z" />
</g>
</svg>
