<?xml version="1.0" encoding="UTF-8" ?>
<!DOCTYPE svg PUBLIC "-//W3C//DTD SVG 1.1//EN" "http://www.w3.org/Graphics/SVG/1.1/DTD/svg11.dtd">
<svg width="192pt" height="192pt" viewBox="0 0 192 192" version="1.1" xmlns="http://www.w3.org/2000/svg">
<g id="#378adbff">
<path fill="#378adb" opacity="1.00" d=" M 40.43 18.61 C 71.60 17.90 102.82 18.49 134.00 18.28 C 140.92 18.52 148.20 17.33 154.77 20.13 C 163.40 23.64 169.53 32.69 169.22 42.06 C 169.10 47.82 158.11 47.87 158.12 41.98 C 157.98 35.52 152.64 29.53 145.99 29.62 C 112.00 29.55 78.00 29.58 44.01 29.58 C 37.28 29.34 31.68 35.30 31.53 41.87 C 31.55 47.80 20.64 47.84 20.44 42.05 C 20.06 30.69 29.19 20.07 40.43 18.61 Z" />
<path fill="#378adb" opacity="1.00" d=" M 29.30 54.22 C 31.36 54.14 33.45 54.26 35.23 55.43 C 39.08 52.88 43.52 53.77 46.88 56.68 C 50.36 53.31 57.20 52.26 59.81 57.15 C 61.60 62.90 60.51 69.08 60.65 75.01 C 58.88 75.04 57.12 74.99 55.35 74.91 C 55.03 70.07 55.88 65.07 54.65 60.34 C 53.48 57.41 49.08 58.64 48.32 61.28 C 46.99 65.66 47.73 70.32 47.58 74.83 C 45.84 74.90 44.09 74.96 42.35 74.97 C 41.97 69.97 43.20 64.63 41.23 59.88 C 39.32 57.14 35.33 59.25 34.80 62.03 C 34.26 66.24 34.64 70.50 34.55 74.74 C 32.79 74.95 31.01 75.06 29.23 75.02 C 29.13 68.09 29.05 61.15 29.30 54.22 Z" />
<path fill="#378adb" opacity="1.00" d=" M 69.41 55.37 C 72.56 52.87 76.72 53.75 80.06 55.31 C 81.97 54.41 84.04 54.04 86.14 53.91 C 86.42 60.98 86.43 68.08 86.15 75.16 C 83.99 75.23 81.86 74.91 79.83 74.20 C 76.78 74.95 73.36 76.32 70.41 74.54 C 63.40 70.90 62.87 59.75 69.41 55.37 M 73.31 59.29 C 67.67 61.81 70.30 71.81 76.64 70.52 C 84.27 69.27 80.82 55.31 73.31 59.29 Z" />
<path fill="#378adb" opacity="1.00" d=" M 91.28 54.11 C 93.23 54.19 95.17 54.53 96.92 55.43 C 100.65 53.13 106.38 52.99 108.56 57.42 C 110.27 63.05 109.19 69.08 109.40 74.87 C 107.66 75.02 105.92 75.15 104.17 75.21 C 103.41 70.15 104.50 64.87 103.19 59.91 C 100.95 57.26 97.07 59.44 96.66 62.43 C 96.00 66.61 96.42 70.88 96.15 75.10 C 94.48 75.10 92.81 75.11 91.14 75.09 C 90.74 68.11 90.54 61.07 91.28 54.11 Z" />
<path fill="#378adb" opacity="1.00" d=" M 117.94 54.90 C 121.18 52.91 124.98 54.29 128.24 55.45 C 130.07 54.79 132.52 53.07 134.23 54.78 C 134.67 61.58 134.73 68.49 134.08 75.28 C 132.94 85.49 115.33 85.92 112.99 76.30 C 118.46 75.37 127.31 81.77 129.19 73.33 C 126.12 74.43 122.78 75.90 119.54 74.50 C 111.49 71.71 110.71 59.06 117.94 54.90 M 121.36 59.44 C 115.75 61.86 118.72 71.55 124.90 69.86 C 132.57 68.59 128.70 55.78 121.36 59.44 Z" />
<path fill="#378adb" opacity="1.00" d=" M 139.04 63.97 C 138.69 56.37 147.82 50.84 154.24 55.33 C 156.23 54.44 158.38 54.17 160.55 54.29 C 160.64 61.16 160.65 68.03 160.56 74.90 C 158.35 75.33 156.15 74.98 154.06 74.22 C 146.94 78.60 137.98 71.90 139.04 63.97 M 147.37 59.40 C 141.45 62.36 145.54 73.09 151.99 70.12 C 158.65 67.39 154.14 55.68 147.37 59.40 Z" />
<path fill="#378adb" opacity="1.00" d=" M 73.37 81.46 C 80.39 80.11 89.55 83.20 90.77 91.11 C 91.78 101.57 91.96 112.27 90.60 122.70 C 87.13 136.61 61.53 134.19 62.27 119.03 C 62.18 110.68 62.11 102.32 62.31 93.98 C 62.29 87.80 67.05 81.91 73.37 81.46 M 76.19 89.87 C 74.56 90.92 75.06 93.31 74.80 94.97 C 74.83 103.66 74.66 112.36 75.00 121.03 C 74.57 123.43 78.46 124.34 78.70 121.79 C 79.53 112.55 78.95 103.21 79.05 93.94 C 79.17 92.30 78.46 88.32 76.19 89.87 Z" />
<path fill="#378adb" opacity="1.00" d=" M 95.40 92.14 C 95.73 85.60 103.04 80.32 109.15 81.75 C 112.78 86.23 118.36 87.01 123.52 88.39 C 125.48 93.16 124.99 98.54 124.68 103.57 C 120.60 103.55 116.51 103.57 112.42 103.51 C 112.03 99.11 112.73 94.58 111.52 90.28 C 109.64 88.21 107.68 90.94 108.07 92.95 C 107.94 102.28 107.74 111.64 108.12 120.96 C 107.81 122.91 110.21 124.14 111.53 122.60 C 112.58 118.94 112.16 115.09 112.37 111.34 C 116.50 111.01 120.66 111.07 124.80 111.25 C 125.21 117.75 125.41 126.21 118.72 129.73 C 111.10 133.91 97.63 132.33 95.69 122.35 C 94.58 112.33 94.71 102.18 95.40 92.14 Z" />
<path fill="#378adb" opacity="1.00" d=" M 129.46 87.68 C 133.75 86.00 137.14 81.29 142.21 82.65 C 142.35 88.24 142.20 93.83 142.37 99.43 C 144.59 94.04 145.31 88.11 147.87 82.87 C 151.58 81.96 155.45 82.54 159.22 82.49 C 158.06 90.25 153.88 97.26 152.80 105.00 C 154.80 113.82 158.04 122.33 160.22 131.11 C 155.94 131.04 151.38 132.05 147.27 130.75 C 145.07 125.24 144.45 119.21 142.36 113.64 C 142.24 119.48 142.40 125.32 142.16 131.15 C 137.90 131.32 133.62 131.38 129.36 131.03 C 129.27 116.58 129.12 102.12 129.46 87.68 Z" />
<path fill="#378adb" opacity="1.00" d=" M 29.20 82.74 C 37.33 82.87 46.47 81.06 53.85 85.14 C 58.56 90.54 59.63 101.72 52.89 105.97 C 60.69 111.76 56.40 122.91 57.27 131.15 C 53.35 131.32 49.41 131.43 45.52 130.84 C 44.36 123.65 48.24 114.31 42.77 108.72 C 40.96 116.04 42.41 123.66 41.81 131.11 C 37.62 131.32 33.42 131.35 29.23 131.08 C 29.02 114.97 29.14 98.85 29.20 82.74 M 42.23 91.09 C 41.93 94.50 41.84 97.92 41.87 101.35 C 42.72 101.37 44.42 101.42 45.28 101.44 C 46.35 98.23 46.24 94.86 45.41 91.60 C 44.35 91.43 43.29 91.26 42.23 91.09 Z" />
<path fill="#378adb" opacity="1.00" d=" M 25.35 138.43 C 28.77 137.84 31.72 140.75 31.64 144.12 C 31.82 150.55 37.47 156.07 43.92 155.96 C 77.97 156.01 112.03 156.05 146.09 155.94 C 152.88 155.87 158.17 149.67 158.17 143.06 C 158.35 137.35 167.69 136.71 169.02 142.08 C 170.76 155.09 158.97 167.50 145.98 167.24 C 112.00 167.32 78.01 167.30 44.02 167.24 C 31.53 167.57 20.22 156.49 20.41 143.98 C 20.18 141.16 22.52 138.52 25.35 138.43 Z" />
</g>
</svg>
