<?xml version="1.0" encoding="UTF-8" ?>
<!DOCTYPE svg PUBLIC "-//W3C//DTD SVG 1.1//EN" "http://www.w3.org/Graphics/SVG/1.1/DTD/svg11.dtd">
<svg width="192pt" height="192pt" viewBox="0 0 192 192" version="1.1" xmlns="http://www.w3.org/2000/svg">
<g id="#45e371ff">
<path fill="#45e371" opacity="1.00" d=" M 75.80 22.87 C 97.17 18.05 121.28 20.33 139.24 33.75 C 156.74 46.31 167.77 67.42 167.83 88.99 C 167.87 110.35 167.89 131.71 167.83 153.07 C 167.96 162.49 159.40 170.84 149.98 170.54 C 123.98 170.53 97.96 170.65 71.96 170.48 C 65.72 170.40 65.01 160.35 71.15 159.37 C 97.43 158.92 123.76 159.36 150.05 159.15 C 153.82 159.34 156.95 155.75 156.62 152.07 C 156.59 130.69 156.69 109.30 156.58 87.92 C 156.14 65.11 140.70 43.65 119.34 35.74 C 111.25 32.46 102.45 31.86 93.81 32.09 C 106.53 37.47 118.46 48.46 119.37 63.02 C 120.33 79.57 110.51 94.21 100.52 106.50 C 82.61 127.26 64.95 148.25 46.94 168.90 C 36.84 174.54 23.71 164.07 24.07 153.10 C 24.05 131.05 23.95 108.99 24.13 86.94 C 24.90 57.31 46.97 29.84 75.80 22.87 M 35.35 87.93 C 35.19 109.31 35.30 130.69 35.29 152.08 C 34.96 155.46 37.44 158.33 40.58 159.23 C 57.92 138.70 75.56 118.44 92.94 97.95 C 101.44 87.06 111.28 73.41 107.09 58.86 C 100.97 44.51 84.17 39.55 70.16 36.67 C 50.05 45.31 35.78 65.98 35.35 87.93 Z" />
</g>
</svg>
