<?xml version="1.0" encoding="UTF-8" ?>
<!DOCTYPE svg PUBLIC "-//W3C//DTD SVG 1.1//EN" "http://www.w3.org/Graphics/SVG/1.1/DTD/svg11.dtd">
<svg width="192pt" height="192pt" viewBox="0 0 192 192" version="1.1" xmlns="http://www.w3.org/2000/svg">
<g id="#4970c2ff">
<path fill="#4970c2" opacity="1.00" d=" M 101.29 15.25 C 107.22 11.45 115.70 16.04 115.66 23.10 C 116.06 38.36 116.61 53.69 115.78 68.92 C 114.55 76.73 104.99 77.95 99.32 74.05 C 98.79 80.14 98.78 87.00 103.21 91.78 C 107.50 96.25 111.89 100.64 115.89 105.39 C 120.58 103.02 123.21 98.23 123.91 93.15 C 118.92 91.99 114.86 87.27 116.21 81.95 C 118.94 70.67 122.15 59.48 125.41 48.34 C 127.10 42.44 135.06 40.27 139.60 44.34 C 147.95 51.65 155.39 59.93 163.24 67.77 C 166.42 70.71 167.97 75.71 165.75 79.66 C 163.97 83.20 159.76 83.84 156.53 85.46 C 158.40 96.81 154.95 108.51 149.51 118.42 C 144.65 126.94 135.83 131.66 128.10 137.11 C 120.77 147.97 125.59 162.99 117.68 173.62 C 110.91 181.24 100.15 176.28 92.12 173.85 C 83.55 170.39 85.22 159.44 79.40 153.57 C 75.21 148.44 67.84 149.78 62.16 147.81 C 47.95 143.88 39.35 130.60 32.69 118.40 C 27.62 118.35 22.70 114.39 23.26 109.00 C 24.33 98.65 26.19 88.35 28.00 78.10 C 29.01 72.25 36.44 69.26 41.18 72.86 C 49.32 78.62 55.21 86.86 62.13 93.91 C 65.93 97.67 65.19 103.90 61.14 107.15 C 63.11 110.64 65.24 114.09 68.00 117.01 C 70.27 119.72 75.18 119.16 76.27 123.04 C 77.91 127.35 73.29 131.79 69.02 130.27 C 59.72 128.06 54.88 118.75 50.39 111.17 C 47.94 112.00 45.53 112.94 43.14 113.93 C 47.41 121.57 52.19 129.41 59.58 134.41 C 66.64 139.22 76.12 136.98 83.17 141.84 C 90.53 146.74 93.99 155.30 96.42 163.44 C 100.61 164.63 104.78 165.93 109.11 166.54 C 113.50 154.47 110.92 139.99 119.52 129.49 C 125.84 123.78 134.58 120.76 139.28 113.27 C 143.78 105.72 146.22 96.80 145.56 87.98 C 142.17 88.53 138.85 89.43 135.56 90.40 C 135.26 99.88 131.24 109.93 122.49 114.57 C 118.81 117.08 113.39 120.71 109.52 116.47 C 105.51 110.29 100.38 105.00 95.17 99.83 C 87.28 91.46 86.39 78.94 88.95 68.21 C 84.67 66.08 80.64 63.36 76.06 61.87 C 71.52 76.43 72.08 93.75 81.89 106.10 C 87.67 113.99 98.65 119.83 97.81 131.01 C 98.44 135.55 93.21 139.45 89.19 136.92 C 84.66 134.60 87.97 128.52 84.46 125.48 C 78.20 118.98 71.44 112.68 67.46 104.42 C 60.07 89.52 60.80 71.70 66.00 56.22 C 60.50 52.69 57.29 43.90 63.43 39.38 C 75.89 31.11 88.60 23.18 101.29 15.25 M 72.80 46.84 C 83.43 52.55 94.19 58.04 104.74 63.91 C 104.67 51.54 104.81 39.18 104.44 26.82 C 93.64 33.03 83.22 39.98 72.80 46.84 M 135.05 55.72 C 132.75 63.84 130.57 71.98 128.33 80.11 C 136.81 78.76 144.93 75.84 153.31 74.04 C 147.40 67.77 141.44 61.52 135.05 55.72 M 38.14 84.89 C 37.22 91.57 36.01 98.21 35.09 104.89 C 40.42 102.87 45.70 100.75 51.01 98.68 C 46.87 93.95 42.77 89.15 38.14 84.89 Z" />
</g>
</svg>
