<?xml version="1.0" encoding="UTF-8" ?>
<!DOCTYPE svg PUBLIC "-//W3C//DTD SVG 1.1//EN" "http://www.w3.org/Graphics/SVG/1.1/DTD/svg11.dtd">
<svg width="192pt" height="192pt" viewBox="0 0 192 192" version="1.1" xmlns="http://www.w3.org/2000/svg">
<g id="#46e371ff">
<path fill="#46e371" opacity="1.00" d=" M 18.64 48.64 C 30.54 40.67 44.10 35.12 58.11 32.20 C 62.32 31.20 66.66 34.69 66.71 38.97 C 66.96 52.31 65.89 65.74 67.98 78.99 C 69.05 83.15 64.58 87.02 60.61 85.48 C 56.65 84.24 56.68 79.56 56.35 76.18 C 54.87 65.62 55.64 54.95 55.44 44.33 C 45.25 47.11 35.46 51.32 26.48 56.89 C 29.65 70.04 40.24 79.53 47.44 90.54 C 51.94 95.14 51.86 103.58 46.15 107.16 C 37.07 113.04 28.70 121.25 26.48 132.26 C 35.37 138.07 45.33 142.21 55.58 144.93 C 56.20 132.46 53.66 119.31 58.52 107.43 C 60.11 102.83 65.32 100.20 69.96 101.77 C 86.98 106.09 104.99 106.03 122.02 101.83 C 127.00 100.26 131.96 103.70 133.51 108.40 C 138.18 120.02 135.54 132.85 136.22 145.02 C 146.44 142.45 156.18 138.12 165.21 132.71 C 158.64 118.08 148.20 105.64 139.88 92.03 C 137.49 87.07 143.02 83.81 146.44 81.46 C 155.16 75.69 164.33 67.58 164.91 56.40 C 155.51 52.02 146.06 47.66 136.24 44.27 C 135.55 56.84 138.18 70.10 133.02 82.03 C 131.38 86.17 126.77 88.83 122.38 87.54 C 108.86 84.10 94.76 83.62 80.93 85.18 C 74.99 84.79 74.25 75.32 80.11 74.16 C 94.35 71.98 109.05 72.87 123.05 76.19 C 126.51 67.21 124.25 57.37 124.92 48.02 C 125.37 43.40 123.74 37.87 127.05 34.04 C 130.12 30.79 134.96 32.18 138.68 33.30 C 150.04 37.00 161.06 41.80 171.63 47.37 C 176.31 49.61 177.50 55.34 176.14 59.97 C 173.73 73.41 163.77 83.75 152.70 90.94 C 160.44 103.34 169.81 114.86 175.59 128.38 C 177.77 133.04 176.65 139.29 171.87 141.85 C 160.25 148.96 147.46 154.51 134.02 157.03 C 130.32 158.15 125.93 155.83 125.24 151.93 C 123.88 139.08 126.73 125.82 123.44 113.20 C 105.31 117.31 86.36 117.34 68.25 113.08 C 65.26 125.72 67.69 138.84 66.56 151.66 C 66.12 155.61 61.69 158.16 57.97 157.05 C 44.35 154.28 31.31 148.78 19.58 141.35 C 15.03 138.59 14.54 132.59 16.03 127.95 C 18.91 115.16 28.57 105.37 39.08 98.24 C 31.98 87.90 23.24 78.50 17.89 67.07 C 15.71 61.36 12.90 53.21 18.64 48.64 Z" />
</g>
</svg>
