<?xml version="1.0" encoding="UTF-8" ?>
<!DOCTYPE svg PUBLIC "-//W3C//DTD SVG 1.1//EN" "http://www.w3.org/Graphics/SVG/1.1/DTD/svg11.dtd">
<svg width="192pt" height="192pt" viewBox="0 0 192 192" version="1.1" xmlns="http://www.w3.org/2000/svg">
<g id="#606f80ff">
<path fill="#606f80" opacity="1.00" d=" M 37.33 19.41 C 41.48 18.45 45.77 18.76 50.00 18.73 C 81.66 18.76 113.33 18.70 144.99 18.74 C 153.26 18.67 161.27 23.47 165.27 30.68 C 169.55 38.02 168.35 46.90 168.18 55.01 C 167.84 60.41 159.51 61.32 157.66 56.40 C 156.25 50.50 158.12 44.25 156.48 38.36 C 154.87 33.16 149.45 29.55 144.01 30.14 C 110.66 30.50 77.33 29.53 43.98 29.88 C 39.02 29.71 33.97 32.30 31.87 36.91 C 29.06 43.18 31.86 50.34 29.97 56.76 C 27.93 61.13 20.60 60.33 19.71 55.55 C 19.16 50.74 19.47 45.86 19.53 41.03 C 19.81 30.92 27.49 21.66 37.33 19.41 Z" />
<path fill="#606f80" opacity="1.00" d=" M 27.72 82.80 C 31.12 79.58 34.90 75.68 40.00 75.95 C 45.34 75.88 49.56 79.65 52.31 83.87 C 55.89 80.46 59.55 75.90 65.00 76.04 C 70.76 75.74 77.10 79.83 77.38 85.97 C 77.47 93.90 77.67 101.85 77.33 109.78 C 73.04 109.86 68.75 109.79 64.47 109.67 C 64.36 107.08 64.27 104.50 64.14 101.91 C 59.50 103.66 55.84 107.56 51.00 108.72 C 46.41 107.47 42.68 104.04 38.36 102.04 C 38.12 104.54 37.88 107.04 37.64 109.54 C 32.23 109.45 26.79 110.05 21.41 109.41 C 18.86 109.05 19.08 105.96 19.02 104.05 C 19.08 94.96 18.91 85.84 19.69 76.76 C 24.02 75.89 26.09 79.51 27.72 82.80 Z" />
<path fill="#606f80" opacity="1.00" d=" M 89.43 79.42 C 96.85 73.73 107.48 75.61 113.87 81.96 C 115.41 78.82 119.82 75.02 122.85 78.22 C 123.77 88.54 122.90 98.99 123.24 109.36 C 119.12 111.06 116.26 108.10 113.20 106.15 C 106.36 112.78 94.39 113.61 87.75 106.25 C 79.84 99.20 81.08 85.55 89.43 79.42 Z" />
<path fill="#606f80" opacity="1.00" d=" M 137.55 82.03 C 144.04 75.30 155.60 73.52 162.75 80.22 C 172.54 88.26 169.79 106.47 157.49 110.46 C 149.44 113.98 141.00 109.60 135.50 103.68 C 135.41 109.23 135.48 114.78 135.41 120.33 C 132.96 121.27 128.01 121.95 128.20 118.05 C 128.19 104.44 127.93 90.81 128.23 77.20 C 132.34 76.28 135.56 78.60 137.55 82.03 Z" />
<path fill="#606f80" opacity="1.00" d=" M 24.35 127.46 C 32.30 127.07 30.59 136.82 30.59 142.00 C 29.65 149.21 35.49 156.62 42.99 156.31 C 76.65 156.36 110.33 156.30 144.00 156.32 C 149.27 156.63 154.52 153.37 156.31 148.36 C 158.20 142.61 156.20 136.40 157.68 130.61 C 159.57 125.75 167.65 126.78 168.14 132.01 C 168.56 137.31 168.59 142.69 167.99 147.99 C 166.36 158.93 156.06 167.72 144.98 167.57 C 110.66 167.58 76.34 167.64 42.03 167.53 C 28.97 167.41 18.23 154.88 19.42 142.00 C 19.80 137.08 17.49 128.62 24.35 127.46 Z" />
</g>
</svg>
