<?xml version="1.0" encoding="UTF-8" ?>
<!DOCTYPE svg PUBLIC "-//W3C//DTD SVG 1.1//EN" "http://www.w3.org/Graphics/SVG/1.1/DTD/svg11.dtd">
<svg width="192pt" height="192pt" viewBox="0 0 192 192" version="1.1" xmlns="http://www.w3.org/2000/svg">
<g id="#c78c7dff">
<path fill="#c78c7d" opacity="1.00" d=" M 85.40 12.53 C 119.90 8.22 155.68 28.50 169.50 60.41 C 183.39 89.94 176.67 127.52 153.58 150.54 C 135.43 169.63 107.60 178.85 81.64 174.45 C 51.37 170.26 24.76 147.25 16.01 118.01 C 8.82 95.74 12.13 70.40 24.62 50.64 C 37.62 29.51 60.77 15.13 85.40 12.53 M 62.66 30.54 C 79.97 34.96 96.63 42.62 110.08 54.59 C 112.70 53.38 115.46 52.49 118.26 51.82 C 118.61 43.15 117.28 34.46 114.82 26.17 C 97.70 21.00 78.70 22.68 62.66 30.54 M 128.03 31.50 C 128.88 38.77 129.87 46.04 129.53 53.38 C 133.19 54.94 135.93 57.96 139.14 60.07 C 144.45 58.88 149.76 57.75 155.19 57.27 C 148.71 46.41 139.08 37.58 128.03 31.50 M 24.65 106.00 C 46.55 89.71 72.20 78.84 98.71 72.70 C 99.25 69.14 100.40 65.71 101.83 62.41 C 86.78 49.72 67.77 41.33 47.95 40.62 C 29.34 56.26 20.27 82.12 24.65 106.00 M 118.40 63.55 C 109.20 65.51 107.72 78.85 114.91 84.05 C 120.15 88.85 129.63 86.82 131.92 79.96 C 135.65 71.71 127.32 61.17 118.40 63.55 M 144.14 70.44 C 144.37 75.29 144.11 80.15 142.67 84.81 C 151.40 92.88 157.62 103.20 162.46 113.96 C 166.73 99.34 166.49 83.16 160.79 68.97 C 155.41 67.70 149.56 69.41 144.14 70.44 M 27.92 117.99 C 36.38 141.80 58.78 160.11 83.88 163.35 C 98.54 143.38 106.48 119.38 110.66 95.18 C 106.43 92.35 102.99 88.52 100.70 83.97 C 74.46 89.89 48.85 100.87 27.92 117.99 M 134.49 94.43 C 130.61 96.89 126.12 98.05 121.57 98.37 C 117.33 121.53 110.04 144.49 96.93 164.24 C 120.48 163.63 143.32 150.35 155.22 129.99 C 152.60 117.12 146.34 105.12 137.47 95.46 C 136.79 94.66 135.55 93.52 134.49 94.43 Z" />
</g>
</svg>
