<?xml version="1.0" encoding="UTF-8" ?>
<!DOCTYPE svg PUBLIC "-//W3C//DTD SVG 1.1//EN" "http://www.w3.org/Graphics/SVG/1.1/DTD/svg11.dtd">
<svg width="192pt" height="192pt" viewBox="0 0 192 192" version="1.1" xmlns="http://www.w3.org/2000/svg">
<g id="#fc5c4eff">
<path fill="#fc5c4e" opacity="1.00" d=" M 48.56 38.62 C 65.17 25.56 87.38 20.91 108.09 23.67 C 144.20 28.84 173.92 62.31 173.81 98.99 C 173.94 109.64 172.00 121.33 164.20 129.19 C 158.52 135.12 150.51 137.85 142.68 139.53 C 144.51 152.24 136.36 166.36 122.85 167.56 C 104.96 167.98 87.03 167.93 69.15 167.57 C 55.48 166.40 47.37 152.24 48.92 139.45 C 40.55 137.61 31.82 134.65 26.15 127.85 C 19.30 119.96 18.17 109.02 18.08 99.00 C 17.86 75.48 30.31 52.99 48.56 38.62 M 48.56 52.64 C 54.69 59.50 58.34 68.95 56.37 78.17 C 54.18 91.81 42.11 102.31 28.38 103.02 C 27.51 115.45 36.88 128.16 49.70 129.07 C 52.16 119.27 58.46 110.23 67.71 105.80 C 77.36 100.78 88.54 102.23 99.01 102.02 C 106.50 102.40 114.34 101.55 121.43 104.54 C 131.69 108.72 139.51 118.15 141.96 128.94 C 155.02 127.97 164.40 115.70 163.20 102.89 C 153.18 101.93 143.38 96.32 139.01 86.99 C 132.80 76.03 135.17 62.00 143.49 52.82 C 118.89 26.89 73.19 26.64 48.56 52.64 M 29.39 92.42 C 44.06 91.12 51.86 71.70 41.90 60.76 C 35.07 69.98 30.63 80.99 29.39 92.42 M 150.25 60.83 C 140.69 71.86 148.18 91.23 162.88 92.34 C 161.41 81.01 157.24 69.92 150.25 60.83 M 76.36 113.51 C 68.66 115.78 62.23 122.29 60.34 130.12 C 59.45 135.35 59.52 140.71 59.67 146.00 C 59.87 152.37 65.73 157.56 72.02 157.41 C 88.01 157.49 104.00 157.46 119.98 157.41 C 125.78 157.54 131.47 152.94 131.92 147.04 C 132.35 141.81 132.45 136.49 131.64 131.30 C 129.69 120.78 119.79 112.31 108.98 112.65 C 98.12 112.83 87.09 111.63 76.36 113.51 Z" />
<path fill="#fc5c4e" opacity="1.00" d=" M 91.42 37.55 C 101.83 35.89 112.93 40.25 119.33 48.65 C 127.15 58.40 127.66 73.21 120.45 83.43 C 113.23 94.20 98.55 99.15 86.32 94.80 C 73.96 90.79 65.29 77.88 66.33 64.92 C 66.89 51.36 78.01 39.35 91.42 37.55 M 95.38 47.53 C 87.76 47.63 80.46 52.65 77.88 59.86 C 74.57 67.97 77.83 78.05 85.19 82.77 C 92.12 87.55 102.12 86.96 108.45 81.43 C 114.75 76.22 116.97 66.82 113.73 59.34 C 110.80 52.13 103.15 47.22 95.38 47.53 Z" />
<path fill="#fc5c4e" opacity="1.00" d=" M 79.36 117.45 C 88.33 117.57 84.66 129.28 85.26 135.06 C 85.54 141.65 74.72 141.66 75.01 135.06 C 75.90 129.41 71.96 119.63 79.36 117.45 Z" />
<path fill="#fc5c4e" opacity="1.00" d=" M 111.34 117.41 C 114.87 117.03 117.37 120.67 116.87 123.95 C 116.50 128.57 117.81 133.60 115.95 137.94 C 113.04 142.59 105.49 139.30 106.51 134.00 C 107.23 128.60 103.76 118.84 111.34 117.41 Z" />
</g>
</svg>
