<?xml version="1.0" encoding="UTF-8" ?>
<!DOCTYPE svg PUBLIC "-//W3C//DTD SVG 1.1//EN" "http://www.w3.org/Graphics/SVG/1.1/DTD/svg11.dtd">
<svg width="192pt" height="192pt" viewBox="0 0 192 192" version="1.1" xmlns="http://www.w3.org/2000/svg">
<g id="#e94a6eff">
<path fill="#e94a6e" opacity="1.00" d=" M 50.12 23.21 C 64.31 17.27 80.03 19.18 94.98 19.60 C 109.26 20.28 123.97 17.72 137.88 22.09 C 155.55 27.64 167.61 46.58 165.56 64.93 C 164.86 73.55 160.43 81.32 154.80 87.69 C 163.04 89.86 170.49 96.37 171.82 105.07 C 173.73 116.86 163.33 128.17 151.71 128.81 C 145.16 150.68 125.94 168.49 102.99 171.24 C 74.95 175.14 47.20 155.44 39.23 128.75 C 29.30 128.14 20.04 120.14 19.17 110.04 C 18.14 100.07 25.76 90.79 35.14 88.19 C 38.35 87.62 37.42 83.62 38.41 81.33 C 40.84 70.63 51.07 62.78 62.00 62.91 C 84.33 62.82 106.65 62.84 128.98 62.90 C 138.11 62.68 146.59 68.22 150.93 76.12 C 156.28 67.59 156.98 56.43 152.71 47.31 C 148.13 37.05 137.25 30.04 126.02 30.14 C 104.99 30.16 83.95 30.03 62.92 30.20 C 47.36 30.98 34.84 45.64 35.45 61.03 C 35.92 66.74 26.91 67.99 25.51 62.61 C 24.31 46.10 34.72 29.40 50.12 23.21 M 48.78 81.22 C 79.94 81.41 111.11 81.37 142.27 81.23 C 140.05 76.59 135.39 73.00 130.07 73.27 C 107.03 73.26 83.98 73.25 60.93 73.28 C 55.65 73.05 50.98 76.59 48.78 81.22 M 48.14 91.72 C 48.30 101.85 47.51 112.04 48.65 122.13 C 51.57 143.28 70.58 160.64 91.92 161.66 C 110.83 162.81 131.04 152.53 138.73 134.72 C 144.67 121.22 143.13 106.08 142.87 91.74 C 111.30 91.74 79.72 91.73 48.14 91.72 M 37.72 118.46 C 37.75 111.59 37.80 104.71 37.64 97.84 C 26.83 99.52 26.90 116.92 37.72 118.46 M 153.37 97.82 C 153.31 104.63 153.32 111.45 153.35 118.27 C 164.38 117.00 164.19 99.39 153.37 97.82 Z" />
<path fill="#e94a6e" opacity="1.00" d=" M 82.78 37.70 C 83.78 35.38 86.03 33.09 88.79 34.07 C 91.82 35.70 93.30 39.08 95.72 41.41 C 98.20 38.11 102.00 30.95 106.74 35.29 C 110.30 40.93 113.09 47.09 115.90 53.14 C 117.61 57.12 112.09 60.86 108.98 57.99 C 106.20 54.80 104.92 50.61 102.81 46.99 C 100.66 49.46 99.02 53.67 95.21 53.61 C 91.80 53.02 90.33 49.34 88.25 46.97 C 86.18 50.64 84.89 54.85 82.07 58.03 C 78.93 60.76 73.57 57.06 75.20 53.16 C 77.41 47.87 80.29 42.87 82.78 37.70 Z" />
<path fill="#e94a6e" opacity="1.00" d=" M 71.37 97.40 C 79.40 94.27 80.50 105.33 78.46 110.50 C 76.64 114.86 69.06 113.87 68.85 109.00 C 68.86 105.19 67.39 99.71 71.37 97.40 Z" />
<path fill="#e94a6e" opacity="1.00" d=" M 115.18 97.15 C 122.63 94.75 123.32 104.01 122.30 109.00 C 122.02 114.31 113.58 114.78 112.33 109.76 C 111.92 105.61 110.64 99.50 115.18 97.15 Z" />
<path fill="#e94a6e" opacity="1.00" d=" M 71.13 124.52 C 75.96 124.13 80.80 122.96 85.67 123.43 C 90.97 124.10 90.43 132.17 95.95 132.25 C 100.88 131.13 100.49 123.38 106.11 123.31 C 111.77 123.67 118.06 123.30 123.22 125.74 C 125.15 132.77 118.73 142.65 110.43 140.43 C 107.48 145.62 101.14 147.68 95.82 144.81 C 90.25 147.41 83.74 145.93 80.60 140.42 C 72.60 142.39 67.44 134.11 67.26 127.16 C 67.42 125.30 69.54 124.60 71.13 124.52 Z" />
</g>
</svg>
