<?xml version="1.0" encoding="UTF-8" ?>
<!DOCTYPE svg PUBLIC "-//W3C//DTD SVG 1.1//EN" "http://www.w3.org/Graphics/SVG/1.1/DTD/svg11.dtd">
<svg width="192pt" height="192pt" viewBox="0 0 192 192" version="1.1" xmlns="http://www.w3.org/2000/svg">
<g id="#1bb4ffff">
<path fill="#1bb4ff" opacity="1.00" d=" M 128.69 32.43 C 130.35 22.73 142.28 17.87 150.64 22.60 C 158.49 18.13 169.67 22.22 172.14 31.06 C 175.11 41.64 168.68 52.20 160.49 58.48 C 156.80 61.33 152.07 65.45 147.17 62.85 C 136.46 56.94 126.24 45.54 128.69 32.43 M 139.81 34.09 C 138.31 41.79 144.88 47.89 150.66 51.79 C 156.21 47.74 163.00 41.77 161.26 34.12 C 158.96 29.76 154.90 34.07 151.87 34.80 C 147.57 36.32 143.11 28.91 139.81 34.09 Z" />
<path fill="#1bb4ff" opacity="1.00" d=" M 95.99 74.85 C 109.27 61.05 133.74 59.75 147.52 73.48 C 158.01 83.63 159.43 99.22 159.09 113.02 C 158.07 130.53 159.26 148.12 158.43 165.62 C 156.83 173.25 147.78 171.70 142.00 171.67 C 136.49 171.55 127.61 173.31 126.10 165.94 C 125.54 150.98 126.47 135.97 126.94 121.00 C 126.85 116.04 126.72 110.52 123.45 106.48 C 119.95 102.34 112.91 102.31 109.29 106.29 C 105.58 110.20 105.03 115.90 104.79 121.02 C 104.58 135.38 105.41 149.73 105.04 164.09 C 105.06 167.97 101.85 171.67 97.86 171.60 C 91.96 171.71 86.05 171.74 80.15 171.58 C 76.26 171.49 72.98 167.97 73.06 164.10 C 72.33 147.48 72.98 130.83 72.46 114.20 C 72.08 110.35 71.80 104.81 67.16 103.73 C 62.72 102.88 57.23 102.35 53.63 105.64 C 50.09 109.87 50.41 115.82 50.37 121.01 C 51.00 135.35 50.75 149.72 50.87 164.08 C 51.14 167.91 47.89 171.57 44.02 171.59 C 37.73 171.69 31.43 171.72 25.15 171.57 C 21.27 171.52 18.04 167.93 18.22 164.09 C 18.18 134.04 18.16 103.97 18.27 73.92 C 17.90 69.64 21.58 65.71 25.92 66.08 C 32.39 66.31 39.04 65.35 45.39 66.63 C 52.37 69.97 49.18 78.96 49.77 85.03 C 50.41 89.63 44.56 92.76 40.97 89.99 C 37.15 86.95 39.10 81.47 38.62 77.28 C 35.55 77.28 32.47 77.29 29.40 77.29 C 29.45 104.98 29.38 132.68 29.45 160.37 C 32.89 160.35 36.32 160.33 39.75 160.29 C 39.42 147.54 39.90 134.78 39.16 122.05 C 38.86 113.21 39.64 102.98 46.72 96.72 C 54.11 90.61 65.24 90.49 73.72 94.28 C 81.70 98.19 83.71 107.86 83.75 115.95 C 83.82 130.76 83.97 145.56 84.18 160.37 C 87.39 160.38 90.60 160.35 93.82 160.29 C 93.94 145.52 93.13 130.73 93.89 115.98 C 94.45 104.86 102.08 93.12 113.95 92.14 C 126.30 90.29 137.12 101.15 137.74 113.11 C 138.79 128.81 136.83 144.57 137.15 160.32 C 140.58 160.30 144.00 160.31 147.43 160.29 C 147.52 143.87 147.17 127.45 147.80 111.04 C 147.89 101.01 147.32 89.66 140.04 81.95 C 129.46 71.12 109.29 73.58 101.32 86.36 C 98.70 91.03 91.62 90.18 89.64 85.39 C 84.98 76.42 73.10 74.48 64.45 78.42 C 60.62 80.89 54.90 77.93 55.48 73.21 C 55.81 68.73 60.87 67.58 64.39 66.50 C 75.42 63.20 88.30 66.01 95.99 74.85 Z" />
</g>
</svg>
