<?xml version="1.0" encoding="UTF-8" ?>
<!DOCTYPE svg PUBLIC "-//W3C//DTD SVG 1.1//EN" "http://www.w3.org/Graphics/SVG/1.1/DTD/svg11.dtd">
<svg width="192pt" height="192pt" viewBox="0 0 192 192" version="1.1" xmlns="http://www.w3.org/2000/svg">
<g id="#ff3662ff">
<path fill="#ff3662" opacity="1.00" d=" M 29.11 18.92 C 29.17 14.37 35.50 12.07 38.55 15.39 C 57.18 33.21 75.75 51.09 94.33 68.96 C 114.81 51.74 134.11 32.29 154.41 14.55 C 158.10 12.16 163.38 15.60 162.84 19.92 C 162.82 41.64 162.94 63.36 162.78 85.08 C 162.62 91.73 151.80 91.62 151.62 85.00 C 151.49 67.42 151.60 49.84 151.56 32.26 C 134.00 48.46 116.38 64.60 98.82 80.80 C 96.59 83.25 92.48 83.20 90.32 80.69 C 73.61 64.77 57.12 48.60 40.32 32.79 C 40.23 50.52 40.49 68.27 40.19 86.00 C 38.76 91.80 29.37 91.18 29.11 85.09 C 29.00 63.03 29.02 40.97 29.11 18.92 Z" />
<path fill="#ff3662" opacity="1.00" d=" M 29.16 105.01 C 29.88 99.04 39.40 99.03 40.20 104.98 C 40.49 122.75 40.22 140.55 40.33 158.33 C 57.46 142.50 73.98 125.99 90.96 109.99 C 93.06 107.98 96.67 108.28 98.63 110.34 C 116.33 126.48 133.84 142.83 151.59 158.92 C 151.58 141.28 151.47 123.64 151.64 106.01 C 152.04 99.59 162.39 99.66 162.78 106.04 C 162.94 128.04 162.87 150.06 162.82 172.06 C 162.95 176.48 157.04 179.24 153.74 176.26 C 134.02 158.27 114.44 140.11 94.76 122.07 C 75.93 139.80 57.45 157.91 38.73 175.75 C 35.60 179.36 29.02 176.82 29.07 172.08 C 29.06 149.73 28.91 127.36 29.16 105.01 Z" />
</g>
</svg>
