<?xml version="1.0" encoding="UTF-8" ?>
<!DOCTYPE svg PUBLIC "-//W3C//DTD SVG 1.1//EN" "http://www.w3.org/Graphics/SVG/1.1/DTD/svg11.dtd">
<svg width="192pt" height="192pt" viewBox="0 0 192 192" version="1.1" xmlns="http://www.w3.org/2000/svg">
<g id="#19afffff">
<path fill="#19afff" opacity="1.00" d=" M 39.38 21.54 C 42.51 20.69 45.78 20.72 49.00 20.72 C 82.34 20.83 115.68 20.60 149.02 20.82 C 162.13 21.31 172.32 34.23 170.90 47.06 C 171.78 51.30 167.97 55.98 163.51 54.38 C 158.97 53.01 159.72 47.61 159.62 43.92 C 159.74 37.30 153.56 31.69 147.06 31.85 C 113.36 31.80 79.65 31.79 45.94 31.81 C 39.73 31.64 33.63 36.65 33.33 42.99 C 32.99 52.33 33.56 61.69 33.09 71.02 C 32.80 75.41 26.70 77.34 23.78 74.21 C 21.75 72.40 22.11 69.46 22.04 67.02 C 22.16 58.99 21.95 50.95 22.15 42.92 C 22.45 33.04 29.89 24.06 39.38 21.54 Z" />
<path fill="#19afff" opacity="1.00" d=" M 105.98 56.94 C 107.79 51.35 115.02 54.04 119.38 53.80 C 119.84 57.35 118.03 60.54 116.82 63.75 C 107.79 86.75 98.80 109.77 89.77 132.77 C 87.82 138.21 80.59 135.82 76.23 135.51 C 76.17 131.86 77.93 128.59 79.20 125.27 C 88.14 102.50 97.06 79.72 105.98 56.94 Z" />
<path fill="#19afff" opacity="1.00" d=" M 42.51 76.50 C 45.47 75.10 49.54 75.04 52.46 76.54 C 54.41 81.11 52.88 86.46 53.36 91.33 C 58.16 91.76 63.31 90.43 67.88 92.10 C 69.24 95.01 69.95 100.07 66.98 102.18 C 62.47 102.72 57.90 102.31 53.37 102.39 C 52.88 107.32 54.47 112.79 52.38 117.37 C 49.40 118.64 45.59 118.69 42.63 117.33 C 40.54 112.75 42.11 107.32 41.60 102.39 C 37.09 102.31 32.55 102.72 28.06 102.17 C 25.08 100.10 25.64 94.95 27.15 92.14 C 31.63 90.39 36.85 91.78 41.61 91.37 C 42.07 86.45 40.68 81.16 42.51 76.50 Z" />
<path fill="#19afff" opacity="1.00" d=" M 129.17 81.23 C 141.11 80.67 153.11 81.16 165.08 80.99 C 171.81 79.64 171.84 93.54 165.07 92.18 C 153.68 92.18 142.29 92.24 130.90 92.14 C 125.60 92.48 125.51 83.08 129.17 81.23 Z" />
<path fill="#19afff" opacity="1.00" d=" M 128.32 102.16 C 140.42 100.85 152.82 101.94 165.04 101.59 C 171.81 100.18 171.88 114.26 165.06 112.74 C 153.71 112.72 142.35 112.78 130.99 112.70 C 125.64 113.14 126.02 105.02 128.32 102.16 Z" />
<path fill="#19afff" opacity="1.00" d=" M 25.39 120.40 C 28.66 118.86 32.95 121.31 33.11 124.98 C 33.55 132.31 33.02 139.67 33.32 147.00 C 33.55 153.39 39.62 158.72 45.98 158.33 C 79.66 158.32 113.34 158.32 147.02 158.30 C 152.02 158.50 156.88 155.33 158.73 150.69 C 160.43 146.75 159.01 142.29 160.20 138.26 C 161.90 134.24 168.16 134.01 170.13 137.91 C 174.53 151.99 164.27 169.00 148.96 169.47 C 114.29 169.65 79.62 169.53 44.95 169.50 C 33.37 169.47 22.89 159.65 22.18 148.08 C 21.90 140.69 22.07 133.29 22.08 125.90 C 21.97 123.60 23.21 121.28 25.39 120.40 Z" />
</g>
</svg>
