<?xml version="1.0" encoding="UTF-8" ?>
<!DOCTYPE svg PUBLIC "-//W3C//DTD SVG 1.1//EN" "http://www.w3.org/Graphics/SVG/1.1/DTD/svg11.dtd">
<svg width="192pt" height="192pt" viewBox="0 0 192 192" version="1.1" xmlns="http://www.w3.org/2000/svg">
<g id="#d59b3fff">
<path fill="#d59b3f" opacity="1.00" d=" M 40.27 21.31 C 75.76 19.96 111.42 21.10 146.98 20.71 C 159.59 20.15 171.03 31.36 170.87 43.94 C 171.15 77.97 171.19 112.02 170.96 146.05 C 171.11 158.36 160.42 169.51 148.06 169.55 C 113.69 169.63 79.31 169.61 44.94 169.54 C 32.58 169.54 21.77 158.38 22.01 146.04 C 21.99 112.01 21.95 77.97 22.04 43.94 C 21.98 33.38 29.96 23.52 40.27 21.31 M 42.28 32.37 C 37.24 33.76 33.21 38.60 33.30 43.93 C 33.25 77.97 33.28 112.02 33.29 146.06 C 33.08 152.78 39.29 158.75 46.00 158.29 C 79.66 158.28 113.33 158.28 146.99 158.26 C 153.67 158.66 159.75 152.73 159.62 146.07 C 159.71 112.36 159.64 78.65 159.66 44.94 C 160.14 38.08 154.00 31.48 147.02 32.09 C 112.12 32.12 77.12 31.19 42.28 32.37 Z" />
<path fill="#d59b3f" opacity="1.00" d=" M 47.41 70.40 C 52.87 69.26 58.50 69.77 64.03 69.83 C 68.28 69.95 67.19 75.16 67.34 78.00 C 66.89 81.74 68.33 86.00 66.36 89.37 C 63.04 91.41 58.73 89.93 55.00 90.38 C 52.13 90.26 46.93 91.33 46.84 87.04 C 46.77 81.50 46.29 75.87 47.41 70.40 Z" />
<path fill="#d59b3f" opacity="1.00" d=" M 85.65 80.00 C 86.17 76.76 84.04 71.35 88.09 69.92 C 93.89 69.72 99.85 69.19 105.57 70.44 C 106.34 76.63 107.08 83.36 105.37 89.37 C 100.37 91.51 94.36 89.94 88.97 90.31 C 83.93 89.80 86.08 83.40 85.65 80.00 Z" />
<path fill="#d59b3f" opacity="1.00" d=" M 128.31 70.21 C 133.72 69.24 139.41 69.73 144.91 69.91 C 148.94 71.38 146.87 76.75 147.38 80.00 C 147.18 83.67 148.94 90.91 143.02 90.38 C 137.91 89.60 131.36 92.18 127.20 88.71 C 126.99 82.81 125.18 75.31 128.31 70.21 Z" />
<path fill="#d59b3f" opacity="1.00" d=" M 67.61 101.43 C 69.70 97.88 74.64 100.04 77.99 99.45 C 81.04 99.94 85.75 98.07 87.57 101.35 C 87.99 107.35 87.93 113.43 87.44 119.44 C 81.68 120.03 75.87 119.87 70.09 119.72 C 68.55 119.80 67.27 118.39 67.48 116.86 C 67.43 111.72 67.22 106.55 67.61 101.43 Z" />
<path fill="#d59b3f" opacity="1.00" d=" M 110.44 99.58 C 115.81 99.15 121.26 99.27 126.64 99.51 C 129.66 99.96 129.04 103.78 129.18 106.00 C 128.82 110.39 130.04 115.12 128.27 119.27 C 123.10 121.04 117.35 119.87 111.96 120.04 C 106.72 119.85 108.89 113.36 108.47 110.00 C 109.06 106.67 106.87 101.63 110.44 99.58 Z" />
</g>
</svg>
