<?xml version="1.0" encoding="UTF-8" ?>
<!DOCTYPE svg PUBLIC "-//W3C//DTD SVG 1.1//EN" "http://www.w3.org/Graphics/SVG/1.1/DTD/svg11.dtd">
<svg width="192pt" height="192pt" viewBox="0 0 192 192" version="1.1" xmlns="http://www.w3.org/2000/svg">
<g id="#eb4099ff">
<path fill="#eb4099" opacity="1.00" d=" M 72.39 14.54 C 86.18 10.89 99.66 17.99 111.21 24.80 C 125.35 33.04 139.61 41.07 153.80 49.20 C 165.11 55.35 171.06 68.50 171.05 81.00 C 170.89 92.01 171.60 103.03 171.02 114.04 C 170.27 125.08 164.42 136.20 154.47 141.54 C 134.25 153.41 115.00 167.18 93.45 176.63 C 83.05 181.44 70.57 178.97 61.39 172.62 C 52.23 165.34 40.65 161.84 31.65 154.32 C 24.18 148.16 19.15 138.80 19.20 129.02 C 19.21 107.02 19.24 85.01 19.20 63.01 C 18.55 53.59 23.11 44.29 30.09 38.14 C 35.53 33.15 42.71 30.86 48.81 26.86 C 56.55 22.56 63.83 17.14 72.39 14.54 M 67.69 29.42 C 84.25 37.23 99.28 47.88 115.33 56.65 C 122.36 61.09 131.44 63.70 135.50 71.60 C 140.59 81.19 136.05 93.66 127.06 99.14 C 111.64 108.59 95.84 117.42 80.42 126.87 C 81.21 132.76 87.40 136.34 92.87 133.78 C 109.93 127.38 124.91 116.68 140.70 107.75 C 147.97 103.71 155.80 98.98 159.00 90.87 C 160.68 79.81 159.11 65.73 148.41 59.56 C 132.76 50.52 117.01 41.64 101.38 32.55 C 91.47 26.57 78.00 21.30 67.69 29.42 M 31.06 57.99 C 30.59 81.64 31.02 105.33 30.86 128.99 C 30.65 137.78 37.14 145.09 44.41 149.18 C 42.85 126.15 43.82 102.99 44.11 79.92 C 43.78 65.36 61.41 55.15 74.07 61.92 C 90.31 70.47 105.93 80.14 121.92 89.17 C 127.00 85.29 128.36 76.37 121.84 73.20 C 103.80 63.47 86.48 52.46 68.69 42.30 C 55.22 33.77 34.99 42.98 31.06 57.99 M 58.82 73.82 C 55.70 78.16 55.39 83.80 55.18 88.97 C 54.84 105.66 55.54 122.35 55.53 139.05 C 55.05 152.42 65.96 166.46 80.01 166.16 C 88.05 166.93 95.56 163.28 102.21 159.20 C 118.07 149.33 134.56 140.48 150.13 130.16 C 157.01 125.46 159.86 116.93 159.54 108.88 C 152.63 114.48 144.55 118.35 137.03 123.02 C 122.91 131.20 109.18 140.88 93.31 145.29 C 82.53 148.36 71.02 140.27 69.64 129.32 C 68.09 110.10 70.14 90.67 68.60 71.49 C 65.24 71.36 61.24 70.95 58.82 73.82 M 80.82 78.89 C 80.75 90.26 80.80 101.63 80.81 113.00 C 90.57 107.25 100.39 101.61 110.03 95.65 C 100.20 90.22 90.59 84.42 80.82 78.89 Z" />
</g>
</svg>
