<?xml version="1.0" encoding="UTF-8" ?>
<!DOCTYPE svg PUBLIC "-//W3C//DTD SVG 1.1//EN" "http://www.w3.org/Graphics/SVG/1.1/DTD/svg11.dtd">
<svg width="192pt" height="192pt" viewBox="0 0 192 192" version="1.1" xmlns="http://www.w3.org/2000/svg">
<g id="#1ab0ffff">
<path fill="#1ab0ff" opacity="1.00" d=" M 12.13 41.91 C 11.87 37.14 16.34 33.31 20.98 33.76 C 56.66 33.76 92.33 33.74 128.00 33.73 C 136.25 33.47 144.76 34.13 152.27 37.82 C 166.44 44.32 175.93 59.42 175.80 74.98 C 175.79 98.67 175.92 122.36 175.76 146.04 C 176.00 150.26 172.13 153.74 167.98 153.43 C 157.66 153.43 147.32 153.53 136.99 153.43 C 132.54 153.53 128.99 149.43 129.13 145.10 C 129.12 132.45 128.92 119.76 129.37 107.12 C 130.45 101.16 140.24 101.89 140.37 107.99 C 140.62 119.35 140.33 130.73 140.43 142.10 C 148.45 142.19 156.48 142.25 164.51 142.06 C 164.40 119.05 164.69 96.02 164.40 73.01 C 163.82 58.26 150.82 45.50 136.07 45.17 C 98.50 45.03 60.91 45.15 23.33 45.11 C 23.40 77.46 23.43 109.80 23.35 142.15 C 31.42 142.18 39.49 142.36 47.56 142.05 C 47.50 120.37 47.49 98.69 47.57 77.01 C 47.21 72.41 51.56 68.96 55.93 69.42 C 81.90 69.48 107.89 69.23 133.85 69.52 C 142.00 70.30 140.54 80.19 140.43 86.01 C 140.83 90.59 134.85 93.53 131.40 90.63 C 128.25 88.33 129.34 84.01 129.11 80.68 C 105.65 80.63 82.19 80.66 58.74 80.60 C 58.67 102.41 58.81 124.22 58.69 146.03 C 58.96 150.22 55.10 153.66 51.00 153.41 C 40.33 153.39 29.64 153.61 18.98 153.33 C 14.41 153.01 11.67 148.32 12.06 144.06 C 12.23 110.01 12.06 75.96 12.13 41.91 Z" />
<path fill="#1ab0ff" opacity="1.00" d=" M 77.24 93.23 C 86.72 91.94 96.43 93.13 106.00 92.65 C 110.57 91.99 115.53 95.10 115.62 99.99 C 115.79 115.01 115.66 130.05 115.70 145.08 C 116.01 149.41 112.48 153.59 108.01 153.44 C 98.67 153.48 89.33 153.47 80.00 153.43 C 75.53 153.61 72.00 149.39 72.24 145.08 C 72.21 130.36 72.21 115.64 72.26 100.92 C 72.18 97.66 74.10 94.34 77.24 93.23 M 83.49 104.10 C 83.55 116.75 83.56 129.41 83.50 142.06 C 90.46 142.28 97.43 142.08 104.39 142.17 C 104.38 129.42 104.40 116.67 104.40 103.92 C 97.43 104.18 90.46 103.83 83.49 104.10 Z" />
</g>
</svg>
