<?xml version="1.0" encoding="UTF-8" ?>
<!DOCTYPE svg PUBLIC "-//W3C//DTD SVG 1.1//EN" "http://www.w3.org/Graphics/SVG/1.1/DTD/svg11.dtd">
<svg width="192pt" height="192pt" viewBox="0 0 192 192" version="1.1" xmlns="http://www.w3.org/2000/svg">
<g id="#f6b530ff">
<path fill="#f6b530" opacity="1.00" d=" M 99.94 18.88 C 102.45 15.72 107.14 16.98 109.99 18.97 C 116.57 23.60 122.99 28.60 128.25 34.74 C 130.11 37.02 132.66 38.54 135.34 39.66 C 143.64 43.26 151.53 48.24 157.28 55.33 C 153.59 54.38 149.98 53.17 146.32 52.10 C 154.30 60.46 157.52 72.67 154.31 83.84 C 152.13 73.24 143.63 66.42 135.74 59.92 C 135.12 62.57 135.57 66.76 132.03 67.34 C 125.88 68.02 120.42 63.69 117.44 58.64 C 118.39 58.43 120.29 57.99 121.24 57.78 C 121.09 46.20 117.17 34.38 109.05 25.94 C 107.66 24.61 105.25 22.62 103.54 24.53 C 98.55 30.04 100.97 40.73 92.69 43.29 C 92.76 41.68 92.83 40.07 92.90 38.47 C 82.91 40.57 73.91 45.57 64.63 49.61 C 59.56 51.75 54.75 55.22 52.49 60.40 C 51.12 62.96 50.77 66.49 47.72 67.68 C 37.13 72.95 28.94 81.61 20.30 89.45 C 24.38 79.06 32.73 70.96 41.82 64.79 C 46.81 61.81 46.79 54.89 51.46 51.50 C 59.54 45.19 69.80 42.59 78.57 37.46 C 80.17 34.53 79.41 30.73 80.73 27.59 C 85.79 26.90 88.45 34.54 93.62 33.69 C 96.34 29.03 96.77 23.31 99.94 18.88 Z" />
<path fill="#f6b530" opacity="1.00" d=" M 105.20 46.61 C 103.11 43.13 106.22 39.09 107.98 36.08 C 114.86 40.43 116.66 49.35 116.56 56.94 C 112.93 53.32 109.17 49.84 105.20 46.61 Z" />
<path fill="#f6b530" opacity="1.00" d=" M 65.37 57.22 C 69.48 51.68 76.22 49.22 80.94 44.31 C 82.43 45.47 84.69 46.08 85.38 48.00 C 80.26 53.53 72.25 54.89 65.37 57.22 Z" />
<path fill="#f6b530" opacity="1.00" d=" M 90.57 44.30 C 94.22 45.77 102.58 46.63 100.39 52.35 C 96.11 56.17 90.38 57.85 85.66 61.06 C 86.62 61.42 88.53 62.15 89.48 62.51 C 86.55 68.42 82.72 73.83 79.83 79.77 C 76.82 86.17 68.19 84.69 63.11 81.81 C 71.06 80.75 77.21 74.70 79.30 67.10 C 74.33 72.05 65.95 70.61 63.06 78.00 C 59.71 74.71 62.56 70.83 64.67 67.86 C 61.58 65.67 60.29 62.05 62.99 58.89 C 63.67 60.06 64.36 61.23 65.04 62.41 C 70.85 58.33 80.44 64.07 83.63 56.51 C 86.05 53.11 89.88 51.17 92.88 48.36 C 92.11 47.00 91.35 45.65 90.57 44.30 M 73.49 64.42 C 73.02 65.87 72.54 67.32 72.09 68.78 C 73.56 67.24 74.98 65.66 76.41 64.08 C 75.68 64.16 74.22 64.34 73.49 64.42 Z" />
<path fill="#f6b530" opacity="1.00" d=" M 108.16 59.39 C 114.60 64.17 119.51 71.70 118.92 79.99 C 118.27 87.15 118.71 94.53 122.28 100.94 C 118.71 99.17 115.57 96.71 112.27 94.51 C 111.75 102.67 118.72 108.88 118.83 116.95 C 119.28 121.75 117.55 126.40 114.89 130.32 C 113.08 122.30 107.20 116.34 103.94 109.04 C 99.95 99.04 107.09 89.70 109.21 80.20 C 111.74 73.40 110.96 65.97 108.16 59.39 Z" />
<path fill="#f6b530" opacity="1.00" d=" M 89.97 65.96 C 93.03 60.97 99.92 61.27 104.35 64.20 C 96.03 67.30 94.12 76.43 91.98 84.01 C 89.67 89.74 95.55 94.43 95.70 100.12 C 98.20 110.47 92.16 119.68 89.19 129.11 C 84.71 136.41 76.78 141.31 68.39 142.69 C 63.72 143.12 61.70 149.78 65.16 152.83 C 69.14 156.24 75.10 157.44 80.10 156.06 C 83.06 149.04 84.80 141.04 90.79 135.76 C 96.71 129.43 108.67 130.31 112.78 138.24 C 115.85 143.44 113.79 149.53 111.58 154.62 C 118.63 152.29 123.50 146.38 126.10 139.63 C 127.62 142.07 128.43 144.86 129.34 147.57 C 134.77 137.53 130.92 125.79 128.34 115.49 C 132.21 116.15 135.73 117.92 139.02 120.00 C 140.04 108.26 135.81 96.89 129.29 87.31 C 132.93 87.46 136.48 88.33 139.96 89.36 C 138.01 82.85 133.15 77.72 131.35 71.15 C 141.49 76.90 150.98 86.35 149.45 99.06 C 146.99 97.92 144.55 96.75 142.11 95.56 C 146.22 107.28 147.51 120.16 144.02 132.21 C 142.71 130.66 141.43 129.10 140.16 127.53 C 140.20 139.23 138.71 150.93 134.69 161.95 C 144.62 155.18 151.28 143.95 152.51 132.00 C 154.55 117.80 149.99 101.82 158.21 89.07 C 159.02 101.02 160.33 112.97 163.71 124.51 C 167.61 115.29 169.06 105.28 169.62 95.35 C 169.45 92.15 175.01 91.88 175.17 95.09 C 178.43 127.00 160.03 160.37 130.70 173.78 C 126.13 176.21 120.01 172.16 120.43 167.02 C 120.90 163.58 122.28 160.34 123.07 156.97 C 117.11 159.00 111.28 161.87 104.93 162.39 C 102.76 162.92 100.61 160.10 102.28 158.34 C 105.75 153.25 109.96 146.98 107.36 140.59 C 105.45 135.96 99.28 135.81 95.93 138.93 C 88.23 144.36 88.76 154.66 86.48 162.83 C 77.63 161.60 66.32 162.52 60.25 154.77 C 57.48 148.77 55.47 142.22 54.72 135.63 C 58.53 136.82 64.04 140.38 67.10 136.05 C 70.19 130.32 70.57 122.81 76.79 119.17 C 70.64 112.09 59.03 115.13 54.41 122.28 C 53.82 126.57 54.23 130.93 53.92 135.24 C 50.61 134.12 47.64 132.25 45.17 129.80 C 41.97 126.41 36.61 126.93 33.38 123.63 C 28.96 119.06 27.63 112.39 23.14 107.87 C 20.93 105.39 18.10 103.36 16.58 100.35 C 15.37 96.98 18.17 94.12 20.18 91.79 C 20.16 92.81 20.11 94.83 20.09 95.84 C 24.62 91.22 31.22 92.56 36.34 95.34 C 35.75 101.23 30.10 105.81 31.63 111.99 C 32.54 118.01 39.06 123.41 45.16 121.23 C 50.06 118.25 54.56 114.58 58.92 110.86 C 52.51 105.50 46.48 114.06 41.56 117.50 C 42.88 110.22 48.20 102.46 56.02 101.63 C 60.51 101.45 62.73 106.49 60.87 110.18 C 71.92 104.76 86.49 109.97 90.94 121.62 C 91.20 112.42 90.63 101.94 84.20 94.74 C 81.81 92.04 78.64 94.38 76.74 96.34 C 81.23 99.38 84.77 104.31 83.18 110.03 C 80.40 107.09 77.77 103.53 73.71 102.35 C 69.72 101.03 65.62 103.30 61.58 102.50 C 58.81 101.70 57.23 99.06 55.51 96.95 C 47.50 96.48 42.83 103.44 37.90 108.48 C 39.93 101.43 46.99 89.59 55.50 95.77 C 55.39 90.78 54.85 84.69 48.50 84.51 C 52.89 81.03 59.09 83.19 60.43 88.61 C 62.08 95.33 71.89 95.64 74.65 89.60 C 77.00 84.74 82.26 83.07 87.25 84.68 C 87.92 78.44 87.47 71.83 89.97 65.96 M 20.96 100.09 C 23.55 102.63 26.30 105.03 29.45 106.87 C 29.29 104.26 27.90 102.06 26.54 99.92 C 27.34 98.59 28.15 97.27 28.94 95.93 C 25.72 96.05 23.10 97.83 20.96 100.09 M 51.07 130.80 C 50.82 127.77 50.46 124.76 49.99 121.77 C 45.59 124.15 47.09 128.95 51.07 130.80 M 78.40 123.50 C 78.60 125.50 78.81 127.50 78.98 129.51 C 77.43 129.78 75.88 130.04 74.34 130.30 C 74.23 131.72 74.13 133.15 74.04 134.58 C 77.63 132.18 82.32 130.11 82.95 125.28 C 81.44 124.67 79.92 124.07 78.40 123.50 M 57.86 139.89 C 58.63 141.56 59.42 143.22 60.22 144.87 C 61.14 143.79 62.06 142.71 62.98 141.63 C 61.27 141.04 59.57 140.45 57.86 139.89 Z" />
<path fill="#f6b530" opacity="1.00" d=" M 38.28 98.30 C 39.49 93.10 43.39 86.30 49.78 88.13 C 45.76 91.31 41.83 94.60 38.28 98.30 Z" />
</g>
</svg>
