<?xml version="1.0" encoding="UTF-8" ?>
<!DOCTYPE svg PUBLIC "-//W3C//DTD SVG 1.1//EN" "http://www.w3.org/Graphics/SVG/1.1/DTD/svg11.dtd">
<svg width="192pt" height="192pt" viewBox="0 0 192 192" version="1.1" xmlns="http://www.w3.org/2000/svg">
<g id="#ca9b42ff">
<path fill="#ca9b42" opacity="1.00" d=" M 86.43 29.63 C 103.92 26.74 122.87 31.92 135.87 44.11 C 139.54 48.75 133.83 55.42 128.67 52.27 C 119.51 44.82 107.99 39.71 96.00 40.21 C 73.42 39.48 52.31 57.24 48.35 79.33 C 47.67 82.23 47.86 86.20 44.63 87.61 C 41.28 89.69 36.57 86.66 36.55 82.86 C 38.62 56.57 60.38 33.52 86.43 29.63 Z" />
<path fill="#ca9b42" opacity="1.00" d=" M 74.14 71.75 C 69.70 61.18 78.77 48.49 89.94 47.95 C 101.25 46.61 112.29 57.58 110.30 68.98 C 109.27 71.91 112.32 73.67 114.38 71.40 C 126.20 62.81 139.68 53.99 155.01 55.42 C 170.67 56.54 182.31 73.91 177.76 88.84 C 175.89 94.51 173.75 101.21 168.10 104.13 C 165.42 102.44 167.28 99.43 168.12 97.23 C 171.09 90.82 173.10 83.28 170.57 76.38 C 167.53 69.46 159.34 65.78 152.04 66.71 C 142.31 67.94 133.80 73.38 126.15 79.21 C 121.77 82.71 117.35 86.73 115.33 92.11 C 113.66 100.03 116.20 108.46 113.23 116.19 C 109.55 125.08 114.50 134.96 110.99 143.91 C 109.80 147.25 105.84 148.08 103.67 150.61 C 103.30 154.37 104.17 158.36 102.15 161.81 C 95.92 158.90 92.06 152.13 87.72 146.92 C 89.95 142.60 95.38 141.16 98.50 137.61 C 99.80 134.47 99.75 129.43 95.96 128.04 C 91.84 126.49 87.78 122.67 83.14 124.07 C 77.00 126.62 79.92 136.27 73.47 138.51 C 66.77 140.19 58.06 142.69 53.08 136.19 C 57.05 132.96 62.09 131.87 66.58 129.67 C 67.66 124.24 66.47 118.58 67.14 113.08 C 71.02 109.20 77.22 109.30 81.98 106.92 C 82.65 104.71 84.08 100.52 81.08 99.64 C 73.11 100.74 65.92 104.86 57.97 106.13 C 47.33 108.47 35.74 106.43 26.68 100.35 C 11.72 90.23 9.52 64.68 24.98 53.93 C 27.34 51.79 33.83 48.60 34.10 53.97 C 31.45 58.85 26.03 61.98 24.63 67.62 C 23.31 73.54 22.99 80.29 26.34 85.63 C 30.14 91.89 37.79 95.13 44.96 94.54 C 57.24 93.77 69.74 90.13 79.57 82.55 C 81.10 78.16 75.58 75.46 74.14 71.75 Z" />
<path fill="#ca9b42" opacity="1.00" d=" M 146.45 73.58 C 149.53 71.33 154.29 73.44 154.96 77.11 C 160.61 102.47 147.23 130.62 123.89 142.12 C 119.97 143.98 115.52 139.65 116.62 135.65 C 117.07 132.77 119.92 131.57 122.09 130.17 C 137.56 120.71 146.75 102.04 144.62 83.99 C 144.56 80.53 142.76 75.77 146.45 73.58 Z" />
<path fill="#ca9b42" opacity="1.00" d=" M 49.20 111.53 C 54.10 111.81 55.73 117.29 58.50 120.49 C 62.05 124.55 57.01 131.28 52.12 129.04 C 48.59 126.94 46.44 123.12 44.44 119.65 C 42.32 116.26 45.37 111.53 49.20 111.53 Z" />
</g>
</svg>
