<?xml version="1.0" encoding="UTF-8" ?>
<!DOCTYPE svg PUBLIC "-//W3C//DTD SVG 1.1//EN" "http://www.w3.org/Graphics/SVG/1.1/DTD/svg11.dtd">
<svg width="192pt" height="192pt" viewBox="0 0 192 192" version="1.1" xmlns="http://www.w3.org/2000/svg">
<g id="#a61affff">
<path fill="#a61aff" opacity="1.00" d=" M 20.92 59.96 C 33.89 31.75 63.92 12.48 95.00 12.73 C 125.38 12.21 154.93 30.31 168.64 57.35 C 180.22 79.41 180.89 106.78 170.40 129.38 C 159.75 152.99 137.35 170.90 111.90 175.86 C 90.37 180.36 67.23 175.65 49.06 163.30 C 40.28 167.07 31.56 171.02 22.73 174.68 C 19.09 176.53 14.47 173.00 15.06 169.02 C 15.73 160.70 16.29 152.36 17.29 144.08 C 18.26 138.59 27.01 138.63 28.12 144.04 C 28.53 149.48 27.42 154.92 27.34 160.37 C 34.15 157.55 40.84 154.44 47.65 151.65 C 50.40 150.28 53.08 152.16 55.24 153.73 C 74.39 167.20 100.40 169.91 122.03 161.06 C 150.04 150.16 169.02 120.08 166.34 90.06 C 164.61 58.77 139.77 30.69 108.89 25.28 C 83.46 20.20 55.74 30.34 39.80 50.83 C 24.02 70.14 20.09 97.91 29.13 121.06 C 31.75 127.08 22.17 131.56 19.15 125.87 C 10.30 105.03 11.25 80.37 20.92 59.96 Z" />
<path fill="#a61aff" opacity="1.00" d=" M 107.26 69.13 C 113.25 66.14 120.81 71.47 120.48 78.01 C 120.57 85.17 111.28 90.00 105.61 85.41 C 99.62 81.59 100.74 71.74 107.26 69.13 Z" />
<path fill="#a61aff" opacity="1.00" d=" M 70.38 76.41 C 77.25 75.10 83.55 83.10 80.40 89.44 C 77.97 95.80 68.46 97.18 64.46 91.58 C 59.72 86.37 63.50 77.16 70.38 76.41 Z" />
<path fill="#a61aff" opacity="1.00" d=" M 135.41 92.52 C 139.86 89.27 146.27 94.86 143.60 99.68 C 133.17 115.69 116.33 128.55 96.92 130.69 C 79.82 132.42 61.98 128.01 47.86 118.15 C 42.48 114.42 47.75 105.13 53.71 108.37 C 67.30 116.89 84.00 122.15 99.99 118.11 C 114.69 114.59 126.33 104.06 135.41 92.52 Z" />
</g>
</svg>
