<?xml version="1.0" encoding="UTF-8" ?>
<!DOCTYPE svg PUBLIC "-//W3C//DTD SVG 1.1//EN" "http://www.w3.org/Graphics/SVG/1.1/DTD/svg11.dtd">
<svg width="192pt" height="192pt" viewBox="0 0 192 192" version="1.1" xmlns="http://www.w3.org/2000/svg">
<g id="#ff3661ff">
<path fill="#ff3661" opacity="1.00" d=" M 58.41 15.44 C 62.40 12.41 67.02 19.44 62.71 21.93 C 58.72 24.90 54.22 18.09 58.41 15.44 Z" />
<path fill="#ff3661" opacity="1.00" d=" M 104.40 19.46 C 109.57 18.00 115.05 23.86 112.82 28.88 C 111.26 33.46 104.75 35.28 101.32 31.66 C 96.95 28.19 99.12 20.63 104.40 19.46 Z" />
<path fill="#ff3661" opacity="1.00" d=" M 57.28 47.27 C 67.05 32.66 88.38 27.94 103.61 36.49 C 107.77 39.13 112.47 35.47 116.98 36.14 C 135.18 35.37 150.72 52.33 149.57 70.28 C 162.43 74.44 166.19 92.08 156.10 101.10 C 163.60 114.13 160.98 131.65 149.15 141.18 C 143.56 146.32 135.89 147.72 128.60 148.42 C 125.11 161.34 108.64 168.36 97.33 160.66 C 92.98 156.94 88.97 163.04 84.45 163.46 C 67.62 168.74 49.02 154.93 48.57 137.44 C 35.50 134.92 25.41 122.33 27.13 108.90 C 27.50 102.45 31.12 96.93 35.11 92.09 C 27.16 79.14 34.12 59.85 49.18 56.29 C 53.93 55.76 54.68 50.37 57.28 47.27 M 79.38 44.58 C 71.62 46.48 66.20 52.95 62.89 59.88 C 59.18 68.05 47.19 65.38 44.21 74.16 C 39.93 81.45 48.51 88.33 45.71 95.74 C 44.91 98.61 42.72 100.73 40.99 103.05 C 36.81 108.49 37.66 116.81 42.23 121.75 C 46.32 126.28 53.67 125.53 57.38 130.60 C 60.65 134.13 59.68 139.28 61.54 143.41 C 65.36 152.30 77.57 156.11 85.66 150.65 C 90.37 147.31 96.99 146.81 101.79 150.25 C 105.26 152.74 110.23 153.55 113.78 150.76 C 117.61 147.99 117.73 142.39 121.68 139.68 C 126.46 135.48 133.43 137.74 138.71 134.71 C 146.22 130.52 151.11 121.05 148.42 112.58 C 146.94 107.93 143.81 103.35 145.29 98.25 C 145.95 93.76 151.43 91.18 150.64 86.36 C 149.82 81.49 143.85 81.23 141.24 77.74 C 138.51 74.84 138.04 70.76 138.03 66.96 C 137.72 57.72 130.39 49.38 121.30 47.77 C 114.17 45.96 106.68 51.37 99.90 47.25 C 93.77 43.57 86.25 42.42 79.38 44.58 Z" />
<path fill="#ff3661" opacity="1.00" d=" M 43.22 41.20 C 47.10 39.45 51.68 43.58 50.56 47.63 C 49.71 51.74 43.73 53.26 41.10 49.93 C 38.46 47.28 39.79 42.44 43.22 41.20 Z" />
<path fill="#ff3661" opacity="1.00" d=" M 155.33 58.25 C 162.17 54.20 168.16 65.75 161.06 69.11 C 154.23 73.08 148.41 61.66 155.33 58.25 Z" />
<path fill="#ff3661" opacity="1.00" d=" M 100.59 69.48 C 104.01 69.19 106.48 71.99 109.01 73.83 C 115.00 69.63 126.37 72.15 125.70 80.84 C 123.48 91.61 117.23 101.24 115.07 111.99 C 114.22 116.95 120.08 116.88 123.35 117.68 C 126.81 117.89 127.79 123.29 124.60 124.62 C 115.94 127.98 102.70 122.69 103.59 111.98 C 105.91 102.79 111.81 94.92 114.55 85.84 C 113.40 84.19 110.95 84.01 110.02 85.98 C 104.71 94.88 100.73 104.53 95.55 113.51 C 93.67 117.40 86.34 117.77 85.53 112.99 C 86.37 104.10 94.30 96.24 92.70 87.19 C 91.19 87.37 89.01 86.47 88.28 88.35 C 83.52 98.46 80.37 109.32 75.32 119.30 C 70.29 126.72 56.84 120.79 58.71 112.00 C 61.83 101.25 65.57 90.66 68.97 79.98 C 70.41 74.74 75.57 70.95 80.98 71.05 C 84.62 71.32 87.51 73.95 91.01 74.72 C 94.61 73.86 96.66 69.66 100.59 69.48 Z" />
<path fill="#ff3661" opacity="1.00" d=" M 176.44 79.44 C 180.27 78.03 182.63 84.43 178.87 85.91 C 174.71 88.16 171.94 80.59 176.44 79.44 Z" />
<path fill="#ff3661" opacity="1.00" d=" M 16.29 85.35 C 20.96 83.75 26.17 88.15 25.42 93.03 C 25.10 98.35 18.08 101.43 13.99 97.93 C 9.26 94.79 10.70 86.57 16.29 85.35 Z" />
<path fill="#ff3661" opacity="1.00" d=" M 166.40 100.49 C 171.66 96.81 176.55 106.46 170.60 108.55 C 165.63 110.85 161.61 103.17 166.40 100.49 Z" />
<path fill="#ff3661" opacity="1.00" d=" M 38.31 143.19 C 41.85 141.12 45.45 146.87 41.89 149.02 C 38.28 151.85 34.17 145.31 38.31 143.19 Z" />
<path fill="#ff3661" opacity="1.00" d=" M 133.40 154.50 C 138.72 151.59 145.54 157.19 143.98 162.96 C 142.90 168.47 135.19 170.87 131.37 166.63 C 127.49 163.28 128.70 156.44 133.40 154.50 Z" />
<path fill="#ff3661" opacity="1.00" d=" M 90.30 167.35 C 93.48 166.19 97.10 169.35 96.49 172.65 C 96.00 175.82 91.97 177.60 89.29 175.84 C 86.03 173.99 86.68 168.38 90.30 167.35 Z" />
</g>
</svg>
