<?xml version="1.0" encoding="UTF-8" ?>
<!DOCTYPE svg PUBLIC "-//W3C//DTD SVG 1.1//EN" "http://www.w3.org/Graphics/SVG/1.1/DTD/svg11.dtd">
<svg width="192pt" height="192pt" viewBox="0 0 192 192" version="1.1" xmlns="http://www.w3.org/2000/svg">
<g id="#71d660ff">
<path fill="#71d660" opacity="1.00" d=" M 37.24 21.19 C 74.42 20.14 111.79 21.04 149.04 20.73 C 153.51 19.90 157.34 25.03 155.04 28.99 C 153.36 32.35 149.17 32.08 146.00 32.10 C 110.32 31.94 74.62 32.33 38.95 31.80 C 33.30 31.88 31.97 22.99 37.24 21.19 Z" />
<path fill="#71d660" opacity="1.00" d=" M 13.20 43.22 C 16.58 42.61 21.91 41.42 23.39 45.62 C 27.30 53.52 31.01 61.53 34.99 69.40 C 39.09 61.31 42.85 53.05 46.94 44.96 C 48.68 41.25 53.54 43.08 56.73 43.08 C 57.19 57.32 57.36 71.64 56.69 85.86 C 54.04 87.39 50.77 86.40 47.88 86.26 C 47.62 77.76 47.83 69.25 47.70 60.75 C 44.40 67.46 41.21 74.22 37.80 80.87 C 37.00 83.34 32.98 83.40 32.06 81.00 C 28.60 74.39 25.49 67.59 22.11 60.93 C 21.81 69.45 22.51 78.01 21.63 86.51 C 18.85 86.61 16.06 86.61 13.27 86.52 C 12.41 72.15 12.48 57.57 13.20 43.22 Z" />
<path fill="#71d660" opacity="1.00" d=" M 64.65 43.68 C 71.80 41.56 80.33 43.24 88.01 42.77 C 92.65 41.92 91.15 47.48 91.34 50.33 C 85.45 50.87 79.53 50.56 73.63 50.62 C 73.61 53.94 73.61 57.26 73.56 60.58 C 78.67 60.73 83.79 60.55 88.89 60.88 C 89.02 63.42 89.00 65.96 88.69 68.48 C 83.66 68.62 78.63 68.55 73.61 68.58 C 73.61 71.96 73.61 75.34 73.64 78.73 C 79.54 78.75 85.43 78.67 91.33 78.82 C 91.61 81.27 92.04 83.81 91.29 86.22 C 82.45 87.08 73.47 86.62 64.58 86.39 C 64.27 72.17 64.08 57.87 64.65 43.68 Z" />
<path fill="#71d660" opacity="1.00" d=" M 97.17 42.99 C 100.43 43.14 105.35 41.22 107.12 44.96 C 111.29 52.98 114.87 61.31 119.13 69.28 C 123.21 61.24 126.94 53.04 131.01 45.00 C 132.67 41.22 137.60 43.13 140.81 43.00 C 141.23 57.49 141.50 72.06 140.68 86.54 C 137.83 86.09 132.06 88.40 131.88 84.05 C 131.65 76.37 131.93 68.68 131.73 60.99 C 128.39 67.63 125.28 74.38 121.87 80.98 C 121.08 83.36 116.93 83.36 116.13 80.98 C 112.69 74.38 109.60 67.59 106.19 60.97 C 105.93 69.48 106.71 78.05 105.70 86.53 C 102.88 86.46 99.78 87.23 97.15 85.90 C 96.67 71.63 96.69 57.27 97.17 42.99 Z" />
<path fill="#71d660" opacity="1.00" d=" M 148.75 42.90 C 157.45 42.78 166.20 42.35 174.87 43.07 C 175.95 45.35 175.38 47.96 175.38 50.39 C 169.51 50.83 163.62 50.59 157.73 50.65 C 157.73 53.99 157.73 57.33 157.79 60.67 C 162.75 60.93 167.89 60.01 172.75 61.20 C 173.70 63.55 173.06 66.10 172.72 68.51 C 167.73 68.62 162.74 68.57 157.74 68.59 C 157.74 71.96 157.74 75.34 157.74 78.71 C 163.45 78.90 169.20 78.38 174.89 78.97 C 176.51 80.85 175.90 84.02 175.28 86.28 C 166.45 87.01 157.51 86.71 148.65 86.36 C 148.39 71.88 148.21 57.37 148.75 42.90 Z" />
<path fill="#71d660" opacity="1.00" d=" M 13.38 99.48 C 21.44 99.37 29.75 98.49 37.67 100.26 C 43.68 101.75 44.33 108.90 44.33 114.02 C 44.07 121.46 45.12 129.09 43.35 136.40 C 42.38 140.62 38.01 142.62 34.03 142.84 C 27.38 143.30 20.68 143.22 14.02 143.00 C 11.78 143.16 12.13 140.52 12.03 139.06 C 12.07 127.02 12.04 114.98 12.05 102.93 C 12.22 101.70 11.70 99.81 13.38 99.48 M 21.33 107.12 C 21.34 116.49 21.34 125.86 21.33 135.24 C 25.71 134.69 34.13 137.49 34.83 131.05 C 35.02 123.91 35.62 116.60 34.43 109.53 C 31.74 105.32 25.53 107.75 21.33 107.12 Z" />
<path fill="#71d660" opacity="1.00" d=" M 51.04 99.41 C 59.20 99.57 67.64 98.26 75.62 100.42 C 82.12 102.46 81.83 110.51 81.76 116.02 C 82.16 121.31 80.48 127.15 75.17 129.36 C 77.28 133.77 79.74 138.04 81.23 142.72 C 78.30 142.96 75.19 143.65 72.35 142.62 C 69.75 138.63 68.33 134.01 66.14 129.80 C 64.05 129.81 61.96 129.82 59.87 129.84 C 59.89 134.29 60.14 138.77 59.39 143.19 C 56.45 142.57 50.19 144.81 50.67 140.05 C 50.83 126.51 50.17 112.93 51.04 99.41 M 59.89 107.22 C 59.88 112.11 59.88 117.01 59.89 121.91 C 63.69 121.58 68.32 123.10 71.53 120.52 C 72.97 116.82 73.04 112.18 71.45 108.52 C 68.20 106.11 63.67 107.60 59.89 107.22 Z" />
<path fill="#71d660" opacity="1.00" d=" M 94.28 99.38 C 100.78 98.38 107.70 98.04 114.06 99.94 C 120.08 102.16 119.88 109.70 119.91 115.00 C 119.50 122.54 120.90 130.34 118.72 137.68 C 116.49 144.04 108.49 143.63 103.00 143.68 C 97.55 143.71 89.69 143.75 87.73 137.36 C 85.72 129.43 86.97 121.11 86.65 113.02 C 86.47 107.63 87.82 100.28 94.28 99.38 M 98.22 107.14 C 94.91 109.00 96.30 113.83 95.87 117.01 C 96.43 122.82 94.58 129.35 97.32 134.69 C 101.39 136.50 110.49 137.52 110.51 131.00 C 110.67 124.14 110.87 117.23 110.39 110.38 C 109.57 104.90 102.09 106.35 98.22 107.14 Z" />
<path fill="#71d660" opacity="1.00" d=" M 126.34 102.93 C 125.34 97.94 132.97 98.39 135.42 100.36 C 135.86 114.45 135.59 128.59 135.54 142.69 C 132.48 142.75 126.09 144.96 126.36 140.02 C 126.29 127.66 126.36 115.29 126.34 102.93 Z" />
<path fill="#71d660" opacity="1.00" d=" M 144.38 99.47 C 153.11 99.57 162.51 97.80 170.82 101.13 C 177.48 106.14 174.79 115.81 175.42 123.00 C 175.28 129.68 176.66 140.18 168.20 142.29 C 160.09 143.54 151.56 143.56 143.46 142.55 C 142.59 129.74 143.38 116.82 143.08 103.96 C 143.36 102.47 142.46 100.08 144.38 99.47 M 152.39 107.13 C 152.41 116.48 152.42 125.83 152.39 135.18 C 156.76 134.68 165.15 137.47 165.87 131.06 C 165.92 123.91 166.59 116.59 165.46 109.53 C 162.73 105.35 156.60 107.73 152.39 107.13 Z" />
<path fill="#71d660" opacity="1.00" d=" M 37.45 155.61 C 74.92 154.81 112.51 155.39 150.03 155.25 C 156.85 154.76 157.67 165.99 150.83 166.41 C 113.62 166.68 76.38 166.55 39.16 166.44 C 33.25 166.57 31.85 157.32 37.45 155.61 Z" />
</g>
</svg>
