<?xml version="1.0" encoding="UTF-8" ?>
<!DOCTYPE svg PUBLIC "-//W3C//DTD SVG 1.1//EN" "http://www.w3.org/Graphics/SVG/1.1/DTD/svg11.dtd">
<svg width="192pt" height="192pt" viewBox="0 0 192 192" version="1.1" xmlns="http://www.w3.org/2000/svg">
<g id="#bf6682ff">
<path fill="#bf6682" opacity="1.00" d=" M 39.37 21.53 C 43.16 20.51 47.12 20.74 51.00 20.73 C 83.33 20.77 115.67 20.69 148.00 20.77 C 159.49 20.79 169.92 30.55 170.69 42.01 C 170.83 46.14 171.20 50.35 170.44 54.44 C 168.98 58.82 161.95 59.01 160.25 54.71 C 158.75 49.73 160.79 44.21 158.68 39.33 C 156.59 34.46 151.25 31.51 146.03 31.81 C 112.67 31.85 79.31 31.78 45.95 31.84 C 40.77 31.76 35.74 35.09 33.96 39.98 C 32.35 44.73 34.18 49.93 32.68 54.68 C 31.15 58.70 24.72 58.93 22.81 55.10 C 19.07 41.94 24.93 25.02 39.37 21.53 Z" />
<path fill="#bf6682" opacity="1.00" d=" M 22.23 62.88 C 25.25 62.85 29.85 61.07 31.48 64.60 C 35.22 71.93 38.64 79.42 42.32 86.78 C 46.44 78.92 49.78 70.64 54.21 62.96 C 56.78 62.08 59.56 62.66 62.21 62.76 C 62.63 75.94 62.49 89.15 62.29 102.34 C 59.57 102.60 56.83 102.60 54.11 102.23 C 53.81 94.54 54.01 86.84 53.78 79.15 C 50.83 85.37 47.87 91.61 44.68 97.72 C 43.97 99.37 41.83 98.97 40.45 98.62 C 36.76 92.62 34.36 85.89 30.71 79.85 C 30.36 87.35 30.88 94.87 30.37 102.37 C 27.80 102.22 24.41 103.43 22.37 101.66 C 21.83 88.77 22.15 75.80 22.23 62.88 Z" />
<path fill="#bf6682" opacity="1.00" d=" M 69.17 62.87 C 77.19 62.15 85.25 62.63 93.29 62.59 C 93.76 64.88 93.79 67.22 93.56 69.54 C 88.23 69.89 82.90 69.68 77.57 69.74 C 77.55 72.77 77.55 75.79 77.55 78.82 C 82.11 78.86 86.68 78.85 91.24 78.93 C 91.55 81.15 91.69 83.39 91.66 85.64 C 87.00 86.52 82.25 86.05 77.54 86.14 C 77.55 89.17 77.55 92.19 77.57 95.22 C 82.92 95.30 88.27 95.14 93.62 95.39 C 94.11 97.74 94.19 100.14 93.57 102.48 C 85.63 102.46 77.64 102.93 69.73 102.27 C 68.13 89.41 69.34 75.96 69.17 62.87 Z" />
<path fill="#bf6682" opacity="1.00" d=" M 98.85 62.78 C 101.51 62.60 104.25 62.19 106.88 62.85 C 111.56 70.41 114.74 78.84 118.90 86.71 C 123.20 78.86 126.27 70.31 131.05 62.77 C 133.97 62.46 139.86 61.19 139.06 65.96 C 138.84 78.12 139.71 90.38 138.58 102.49 C 136.02 102.21 132.66 103.54 130.68 101.52 C 130.16 94.27 130.77 86.97 130.34 79.70 C 127.17 85.50 124.58 91.60 121.46 97.43 C 120.79 99.44 117.21 99.58 116.38 97.64 C 113.17 91.59 110.29 85.36 107.23 79.23 C 106.91 86.99 107.92 94.86 106.64 102.56 C 104.02 102.61 101.40 102.52 98.80 102.21 C 98.63 89.07 98.54 75.92 98.85 62.78 Z" />
<path fill="#bf6682" opacity="1.00" d=" M 145.80 62.76 C 153.91 62.36 162.07 62.34 170.18 62.77 C 170.27 64.98 170.34 67.18 170.38 69.39 C 165.01 70.07 159.59 69.64 154.20 69.74 C 154.17 72.77 154.16 75.81 154.17 78.84 C 158.78 78.86 163.40 78.74 168.01 79.08 C 167.77 81.32 169.52 84.77 166.95 86.01 C 162.69 86.37 158.41 86.06 154.14 86.12 C 154.17 89.15 154.17 92.18 154.18 95.21 C 159.60 95.33 165.03 94.98 170.43 95.53 C 170.60 97.81 170.60 100.11 170.44 102.40 C 162.22 102.58 153.96 102.91 145.76 102.22 C 145.54 89.07 145.47 75.91 145.80 62.76 Z" />
<path fill="#bf6682" opacity="1.00" d=" M 22.05 114.91 C 20.83 105.03 40.29 105.96 37.88 116.08 C 36.54 116.21 35.19 116.36 33.85 116.52 C 33.38 115.08 32.92 113.63 32.46 112.19 C 24.53 109.93 26.45 119.07 26.62 124.00 C 26.92 126.83 30.74 125.41 32.65 125.73 C 32.91 124.42 33.18 123.12 33.46 121.82 C 32.43 121.49 31.40 121.17 30.37 120.85 C 30.38 120.21 30.40 118.92 30.41 118.28 C 32.82 118.16 35.23 118.12 37.63 118.15 C 37.45 121.82 38.99 127.82 34.31 129.20 C 30.69 129.58 26.04 130.53 23.16 127.76 C 21.23 123.82 22.20 119.16 22.05 114.91 Z" />
<path fill="#bf6682" opacity="1.00" d=" M 141.38 108.62 C 145.42 108.10 152.69 107.21 153.10 112.98 C 152.92 118.02 154.76 124.24 151.45 128.48 C 146.95 130.47 137.18 131.03 137.61 123.80 C 138.24 118.94 135.14 110.57 141.38 108.62 M 142.37 112.33 C 142.00 116.75 141.89 121.20 142.42 125.61 C 144.41 125.41 147.27 126.70 148.56 124.64 C 149.12 120.59 148.77 116.48 148.50 112.42 C 146.45 112.25 144.41 112.21 142.37 112.33 Z" />
<path fill="#bf6682" opacity="1.00" d=" M 40.75 129.25 C 40.52 122.39 40.56 115.52 40.74 108.65 C 44.93 108.56 49.12 108.56 53.31 108.67 C 53.33 109.60 53.37 111.45 53.39 112.38 C 50.65 112.42 47.90 112.44 45.16 112.41 C 45.13 113.90 45.09 115.40 45.05 116.90 C 47.44 116.95 49.84 117.04 52.23 117.11 C 52.23 118.32 52.24 119.53 52.28 120.74 C 49.91 120.76 47.54 120.78 45.17 120.78 C 45.14 122.35 45.12 123.91 45.08 125.48 C 47.90 125.50 50.72 125.52 53.54 125.62 C 54.50 132.42 44.79 128.20 40.75 129.25 Z" />
<path fill="#bf6682" opacity="1.00" d=" M 55.98 108.70 C 57.30 108.69 58.63 108.68 59.95 108.64 C 62.12 112.75 64.24 116.89 66.34 121.04 C 66.31 116.91 66.29 112.78 66.43 108.66 C 67.87 108.68 69.30 108.72 70.74 108.77 C 70.75 115.58 70.80 122.40 70.72 129.21 C 69.43 129.25 68.15 129.31 66.86 129.38 C 64.57 125.27 62.45 121.07 60.37 116.85 C 60.41 121.01 60.41 125.18 60.32 129.35 C 58.86 129.28 57.40 129.22 55.93 129.16 C 55.98 122.34 55.87 115.52 55.98 108.70 Z" />
<path fill="#bf6682" opacity="1.00" d=" M 74.20 108.73 C 78.42 108.52 82.65 108.52 86.88 108.73 C 86.88 109.63 86.88 111.43 86.88 112.33 C 84.11 112.43 81.35 112.45 78.58 112.50 C 78.59 113.95 78.60 115.41 78.60 116.87 C 81.00 116.93 83.40 117.05 85.79 117.16 C 85.77 118.34 85.77 119.52 85.78 120.71 C 83.40 120.76 81.02 120.80 78.64 120.82 C 78.62 122.36 78.60 123.89 78.57 125.42 C 81.39 125.49 84.20 125.53 87.01 125.65 C 87.04 126.54 87.09 128.34 87.11 129.24 C 82.81 129.38 78.50 129.41 74.20 129.16 C 74.12 122.35 74.13 115.54 74.20 108.73 Z" />
<path fill="#bf6682" opacity="1.00" d=" M 89.56 109.21 C 93.59 108.10 99.07 107.92 102.89 110.14 C 104.90 114.06 105.18 120.09 101.25 122.97 C 102.19 125.02 103.10 127.08 104.01 129.15 C 102.62 129.23 101.23 129.32 99.84 129.43 C 98.75 127.36 97.71 125.27 96.73 123.15 C 96.08 123.13 94.80 123.08 94.15 123.05 C 94.00 125.13 93.86 127.21 93.72 129.30 C 92.29 129.25 90.87 129.20 89.45 129.14 C 89.54 122.50 89.23 115.85 89.56 109.21 M 94.13 112.27 C 93.99 114.62 93.87 116.96 93.82 119.31 C 95.62 119.28 97.42 119.23 99.22 119.16 C 100.90 114.98 99.00 111.11 94.13 112.27 Z" />
<path fill="#bf6682" opacity="1.00" d=" M 111.09 108.73 C 112.97 108.99 116.17 107.54 116.94 110.02 C 119.03 116.39 120.94 122.83 122.67 129.30 C 121.19 129.26 119.71 129.22 118.22 129.19 C 117.82 127.96 117.42 126.73 117.02 125.50 C 115.01 125.50 113.00 125.51 110.99 125.53 C 110.61 128.84 108.12 130.02 105.06 129.20 C 106.84 122.31 109.09 115.56 111.09 108.73 M 113.94 114.25 C 113.18 116.79 112.45 119.33 111.73 121.87 C 113.22 121.90 114.70 121.93 116.19 121.97 C 115.48 119.39 114.73 116.81 113.94 114.25 Z" />
<path fill="#bf6682" opacity="1.00" d=" M 121.20 108.73 C 126.13 108.49 131.06 108.52 136.00 108.71 C 136.03 109.61 136.11 111.41 136.14 112.31 C 134.46 112.37 132.78 112.43 131.09 112.47 C 130.70 118.07 130.99 123.69 130.80 129.29 C 129.35 129.25 127.89 129.20 126.45 129.14 C 126.42 123.61 126.46 118.09 126.39 112.56 C 124.65 112.44 122.90 112.32 121.16 112.18 C 121.17 111.32 121.19 109.59 121.20 108.73 Z" />
<path fill="#bf6682" opacity="1.00" d=" M 156.18 108.72 C 160.63 108.91 166.00 107.35 169.76 110.36 C 171.57 114.30 171.81 120.08 168.06 123.02 C 168.96 125.10 169.85 127.18 170.73 129.26 C 169.23 129.25 167.73 129.23 166.23 129.21 C 165.35 127.20 164.42 125.21 163.54 123.20 C 162.82 123.17 161.36 123.11 160.64 123.08 C 160.63 125.12 160.62 127.16 160.60 129.21 C 159.13 129.21 157.66 129.20 156.20 129.21 C 156.07 122.38 156.11 115.55 156.18 108.72 M 160.63 112.37 C 160.63 114.70 160.62 117.02 160.64 119.35 C 162.46 119.26 164.29 119.15 166.11 119.02 C 166.30 116.92 166.32 114.81 166.21 112.70 C 164.35 112.58 162.49 112.47 160.63 112.37 Z" />
<path fill="#bf6682" opacity="1.00" d=" M 26.41 132.45 C 32.51 131.16 34.14 138.44 33.27 143.01 C 31.97 150.27 37.24 158.28 44.97 158.30 C 78.98 158.40 113.00 158.32 147.01 158.34 C 152.02 158.55 156.92 155.37 158.76 150.71 C 160.77 145.81 158.71 140.31 160.30 135.36 C 162.15 131.26 168.71 131.42 170.35 135.61 C 171.30 139.65 170.77 143.89 170.71 148.00 C 170.10 159.60 159.57 169.46 147.98 169.51 C 113.66 169.57 79.34 169.56 45.02 169.52 C 32.66 169.56 21.78 158.41 22.07 146.06 C 22.29 141.46 20.37 134.02 26.41 132.45 Z" />
</g>
</svg>
