<?xml version="1.0" encoding="UTF-8" ?>
<!DOCTYPE svg PUBLIC "-//W3C//DTD SVG 1.1//EN" "http://www.w3.org/Graphics/SVG/1.1/DTD/svg11.dtd">
<svg width="192pt" height="192pt" viewBox="0 0 192 192" version="1.1" xmlns="http://www.w3.org/2000/svg">
<g id="#f73961ff">
<path fill="#f73961" opacity="1.00" d=" M 38.11 21.06 C 53.86 14.61 73.39 18.43 85.20 30.80 C 96.79 42.66 101.59 61.56 95.22 77.13 C 89.45 89.46 74.04 91.65 65.97 101.96 C 58.01 110.79 57.71 124.55 63.25 134.70 C 64.41 137.21 66.62 139.76 65.65 142.71 C 64.64 146.70 58.78 148.07 56.21 144.80 C 44.96 129.50 45.29 105.87 59.42 92.43 C 66.22 84.81 76.32 81.47 83.62 74.59 C 89.53 64.74 86.63 51.61 80.40 42.57 C 71.46 29.40 52.03 25.36 38.44 33.47 C 27.38 40.08 20.74 54.30 24.85 66.87 C 30.16 60.39 40.46 58.34 47.23 63.73 C 53.27 68.11 54.14 76.45 52.32 83.19 C 48.94 95.86 42.35 107.75 41.49 121.03 C 40.61 134.02 47.93 147.82 60.29 152.74 C 80.53 159.99 102.39 152.21 123.06 157.20 C 120.23 152.71 123.64 145.63 129.36 147.54 C 135.05 150.78 138.44 160.11 133.40 165.40 C 129.95 168.93 124.55 168.81 120.01 168.17 C 99.81 164.01 78.69 170.82 58.81 164.23 C 41.41 158.89 29.91 140.86 30.16 123.00 C 30.16 108.01 37.38 94.47 41.38 80.36 C 42.26 77.37 42.42 71.75 37.95 72.09 C 32.87 71.54 33.37 77.69 33.21 81.04 C 33.33 85.44 27.24 87.96 24.14 84.86 C 17.14 78.61 12.55 69.53 12.35 60.07 C 11.81 43.43 22.71 27.24 38.11 21.06 Z" />
<path fill="#f73961" opacity="1.00" d=" M 105.48 28.54 C 107.87 23.90 113.64 21.66 118.11 24.91 C 121.48 23.14 125.84 22.36 128.97 25.10 C 135.46 30.98 144.04 37.91 141.82 47.86 C 149.22 55.38 155.07 66.22 152.16 77.00 C 149.13 86.61 138.85 91.56 129.60 93.30 C 130.94 99.62 138.46 96.67 143.00 98.06 C 151.28 98.90 158.33 108.98 153.61 116.59 C 148.00 123.80 137.88 124.49 129.49 123.34 C 127.07 130.70 124.82 138.21 121.19 145.09 C 119.44 148.91 113.78 150.59 110.75 147.28 C 106.50 142.46 108.44 134.88 103.75 130.27 C 98.93 123.86 90.53 122.74 83.07 122.70 C 77.39 122.43 76.70 113.37 82.11 111.96 C 95.29 109.80 109.48 116.13 115.93 128.01 C 117.19 124.87 118.26 121.66 119.08 118.38 C 115.96 115.81 112.45 113.74 108.34 113.40 C 103.07 112.54 102.99 104.09 108.09 102.81 C 115.89 100.90 122.16 106.88 128.07 110.90 C 132.95 113.05 139.36 113.43 143.82 110.08 C 137.94 107.82 131.09 109.93 125.59 106.45 C 119.96 103.01 118.85 95.98 116.37 90.39 C 112.21 91.64 106.60 89.42 107.37 84.33 C 109.12 77.36 118.74 77.83 124.15 79.79 C 132.14 85.09 145.65 75.79 140.73 66.32 C 139.29 58.05 126.91 54.51 130.35 45.32 C 131.56 41.58 127.05 39.40 125.03 36.92 C 121.25 38.97 117.26 38.02 113.75 35.93 C 113.03 41.14 116.11 48.11 110.26 51.27 C 106.56 54.83 99.23 51.76 100.52 46.39 C 103.34 40.73 101.15 33.68 105.48 28.54 Z" />
<path fill="#f73961" opacity="1.00" d=" M 154.72 82.79 C 157.64 81.80 160.54 80.75 163.51 79.91 C 163.78 80.63 164.32 82.08 164.59 82.80 C 165.66 82.70 166.73 82.59 167.80 82.48 C 168.17 83.32 168.54 84.16 168.92 85.00 C 170.09 84.82 171.26 84.64 172.43 84.46 C 173.56 87.56 174.63 90.67 175.69 93.79 C 174.63 94.44 173.56 95.08 172.51 95.74 C 172.60 96.49 172.79 98.00 172.89 98.75 C 172.31 99.05 171.17 99.66 170.59 99.96 C 170.68 101.27 170.76 102.59 170.84 103.90 C 168.00 104.81 165.25 105.94 162.42 106.87 C 160.22 102.26 156.69 98.25 151.14 98.45 C 150.73 96.47 150.35 94.48 149.99 92.49 C 150.49 92.08 151.50 91.26 152.00 90.85 C 152.23 89.00 152.99 87.33 154.12 85.86 C 154.32 84.84 154.52 83.81 154.72 82.79 Z" />
</g>
</svg>
