<?xml version="1.0" encoding="UTF-8" ?>
<!DOCTYPE svg PUBLIC "-//W3C//DTD SVG 1.1//EN" "http://www.w3.org/Graphics/SVG/1.1/DTD/svg11.dtd">
<svg width="192pt" height="192pt" viewBox="0 0 192 192" version="1.1" xmlns="http://www.w3.org/2000/svg">
<g id="#9fa6adff">
<path fill="#9fa6ad" opacity="1.00" d=" M 17.01 34.92 C 17.14 26.12 25.16 18.31 34.02 18.71 C 60.33 18.72 86.65 18.65 112.97 18.73 C 121.51 18.76 129.06 26.46 129.08 34.97 C 129.12 42.70 129.05 50.44 129.10 58.17 C 138.76 58.25 148.43 58.08 158.09 58.24 C 166.61 58.50 174.02 66.43 173.69 74.96 C 173.70 103.65 173.76 132.34 173.68 161.03 C 173.76 168.66 164.25 174.18 157.71 170.11 C 146.00 162.95 134.84 154.84 123.01 147.89 C 108.00 147.65 92.96 147.91 77.94 147.75 C 70.59 147.82 63.92 141.97 62.39 134.90 C 61.71 127.49 62.86 119.99 61.60 112.62 C 51.60 118.96 41.80 125.63 31.77 131.92 C 25.52 135.79 16.71 130.28 16.99 123.08 C 17.00 93.69 16.96 64.31 17.01 34.92 M 28.37 35.97 C 28.33 64.06 28.34 92.15 28.37 120.24 C 40.69 113.21 51.99 104.42 64.35 97.50 C 80.48 96.72 96.81 97.56 113.00 97.10 C 115.97 97.00 117.94 93.86 117.76 91.09 C 117.76 72.71 117.79 54.34 117.75 35.96 C 117.92 32.90 115.24 29.92 112.11 30.14 C 86.04 30.11 59.96 30.10 33.89 30.15 C 30.78 29.94 28.11 32.92 28.37 35.97 M 129.14 69.27 C 129.01 77.20 129.15 85.13 129.07 93.06 C 128.70 101.34 121.33 108.54 113.03 108.72 C 99.69 108.94 86.33 108.57 72.98 108.88 C 72.61 115.93 72.88 123.00 72.82 130.05 C 72.72 133.09 74.69 136.70 78.08 136.66 C 93.39 136.83 108.71 136.66 124.02 136.73 C 127.57 136.62 130.26 139.23 133.10 140.95 C 142.97 147.28 152.70 153.84 162.63 160.09 C 162.63 131.71 162.67 103.34 162.61 74.97 C 162.83 71.97 160.07 69.04 157.03 69.35 C 147.73 69.25 138.43 69.40 129.14 69.27 Z" />
<path fill="#9fa6ad" opacity="1.00" d=" M 48.35 47.41 C 58.85 46.98 69.40 47.25 79.91 47.26 C 85.31 47.62 85.30 57.31 79.92 57.70 C 69.65 57.86 59.35 57.88 49.09 57.68 C 44.35 56.61 43.90 49.26 48.35 47.41 Z" />
<path fill="#9fa6ad" opacity="1.00" d=" M 49.38 69.55 C 54.02 69.33 58.71 69.26 63.34 69.59 C 68.75 70.95 68.53 79.32 63.04 80.38 C 58.36 80.52 53.63 80.72 48.97 80.24 C 43.84 78.81 44.09 70.48 49.38 69.55 Z" />
</g>
</svg>
