<?xml version="1.0" encoding="UTF-8" ?>
<!DOCTYPE svg PUBLIC "-//W3C//DTD SVG 1.1//EN" "http://www.w3.org/Graphics/SVG/1.1/DTD/svg11.dtd">
<svg width="192pt" height="192pt" viewBox="0 0 192 192" version="1.1" xmlns="http://www.w3.org/2000/svg">
<g id="#a61affff">
<path fill="#a61aff" opacity="1.00" d=" M 84.42 13.53 C 105.57 10.49 127.85 16.20 144.91 29.08 C 169.79 47.43 182.63 80.64 175.98 110.91 C 168.52 148.89 131.48 177.55 93.00 176.53 C 69.98 176.53 46.96 176.57 23.94 176.50 C 19.09 176.97 16.09 170.71 19.12 167.04 C 24.12 158.31 32.76 148.06 26.21 137.76 C 9.30 110.91 10.29 74.41 28.37 48.39 C 41.11 29.64 61.95 16.63 84.42 13.53 M 28.62 73.63 C 22.48 92.92 25.49 114.67 36.12 131.84 C 42.43 142.04 40.79 155.49 33.77 164.91 C 53.85 165.11 73.92 164.96 94.00 164.99 C 116.45 165.03 138.63 154.09 152.08 136.09 C 163.17 121.63 168.14 102.67 165.42 84.63 C 161.35 51.71 131.34 24.33 98.03 24.15 C 67.18 22.55 37.30 44.07 28.62 73.63 Z" />
<path fill="#a61aff" opacity="1.00" d=" M 66.23 78.21 C 85.78 77.72 105.40 77.95 124.97 78.09 C 130.89 78.74 130.98 88.27 125.08 89.09 C 106.03 89.42 86.94 89.20 67.88 89.20 C 61.74 89.45 60.30 79.78 66.23 78.21 Z" />
<path fill="#a61aff" opacity="1.00" d=" M 66.41 100.59 C 85.57 100.03 104.81 100.42 124.00 100.38 C 128.44 100.19 131.30 106.02 128.43 109.42 C 126.80 111.88 123.63 111.69 121.04 111.69 C 103.08 111.54 85.11 111.83 67.16 111.54 C 61.32 111.17 60.69 101.80 66.41 100.59 Z" />
</g>
</svg>
