<?xml version="1.0" encoding="UTF-8" ?>
<!DOCTYPE svg PUBLIC "-//W3C//DTD SVG 1.1//EN" "http://www.w3.org/Graphics/SVG/1.1/DTD/svg11.dtd">
<svg width="192pt" height="192pt" viewBox="0 0 192 192" version="1.1" xmlns="http://www.w3.org/2000/svg">
<g id="#e22da1ff">
<path fill="#e22da1" opacity="1.00" d=" M 84.41 13.52 C 105.80 10.45 128.33 16.32 145.47 29.49 C 170.26 48.11 182.81 81.58 175.75 111.87 C 167.87 149.38 131.13 177.50 93.00 176.52 C 70.00 176.53 47.00 176.58 24.01 176.52 C 19.12 177.03 16.07 170.75 19.11 167.04 C 24.12 158.31 32.76 148.04 26.17 137.73 C 9.28 110.88 10.28 74.40 28.35 48.39 C 41.09 29.63 61.94 16.63 84.41 13.52 M 28.64 73.64 C 22.51 92.92 25.51 114.66 36.13 131.83 C 42.44 142.04 40.80 155.47 33.80 164.90 C 53.20 165.13 72.60 164.94 92.00 165.03 C 100.52 165.12 109.07 163.93 117.15 161.19 C 147.51 151.58 169.56 119.89 165.82 87.90 C 163.25 54.02 133.15 24.86 99.03 24.19 C 67.86 22.16 37.41 43.74 28.64 73.64 Z" />
<path fill="#e22da1" opacity="1.00" d=" M 65.40 78.53 C 84.80 77.25 104.54 78.27 124.06 78.01 C 130.55 77.67 131.46 88.21 125.07 89.10 C 106.04 89.45 86.99 89.20 67.95 89.22 C 62.24 89.53 60.19 80.85 65.40 78.53 Z" />
<path fill="#e22da1" opacity="1.00" d=" M 66.41 100.58 C 85.58 100.02 104.83 100.41 124.02 100.39 C 130.62 100.08 131.46 110.93 124.87 111.53 C 105.64 111.76 86.37 111.74 67.13 111.55 C 61.31 111.15 60.68 101.79 66.41 100.58 Z" />
</g>
</svg>
