<?xml version="1.0" encoding="UTF-8" ?>
<!DOCTYPE svg PUBLIC "-//W3C//DTD SVG 1.1//EN" "http://www.w3.org/Graphics/SVG/1.1/DTD/svg11.dtd">
<svg width="192pt" height="192pt" viewBox="0 0 192 192" version="1.1" xmlns="http://www.w3.org/2000/svg">
<g id="#96644cff">
<path fill="#96644c" opacity="1.00" d=" M 84.42 13.54 C 105.81 10.45 128.32 16.34 145.47 29.49 C 170.00 47.92 182.63 80.88 176.01 110.94 C 170.00 140.83 145.75 165.66 116.45 173.50 C 103.00 177.56 88.85 176.45 75.00 176.59 C 57.99 176.56 40.98 176.64 23.97 176.55 C 20.15 176.91 16.92 172.76 18.14 169.14 C 21.19 161.79 27.61 155.79 28.52 147.62 C 29.26 139.90 23.27 134.09 20.79 127.28 C 8.55 99.77 13.46 65.76 32.68 42.65 C 45.53 26.99 64.34 16.32 84.42 13.54 M 31.07 67.03 C 22.07 87.78 24.20 112.67 36.12 131.82 C 42.44 142.00 40.88 155.44 33.85 164.84 C 53.90 165.19 73.95 164.92 94.01 164.99 C 116.22 165.01 138.18 154.32 151.66 136.63 C 163.01 122.10 168.17 102.92 165.41 84.67 C 161.38 52.12 131.99 24.89 99.05 24.23 C 70.33 22.41 41.95 40.46 31.07 67.03 Z" />
<path fill="#96644c" opacity="1.00" d=" M 66.21 78.23 C 85.47 77.65 104.79 78.07 124.06 78.01 C 130.60 77.66 131.53 88.26 125.08 89.15 C 106.04 89.47 86.97 89.27 67.92 89.25 C 61.76 89.52 60.25 79.81 66.21 78.23 Z" />
<path fill="#96644c" opacity="1.00" d=" M 66.43 100.61 C 85.59 100.01 104.83 100.42 124.02 100.39 C 130.66 100.04 131.52 111.02 124.87 111.56 C 105.64 111.78 86.38 111.75 67.15 111.56 C 61.31 111.18 60.70 101.80 66.43 100.61 Z" />
</g>
</svg>
