<?xml version="1.0" encoding="UTF-8" ?>
<!DOCTYPE svg PUBLIC "-//W3C//DTD SVG 1.1//EN" "http://www.w3.org/Graphics/SVG/1.1/DTD/svg11.dtd">
<svg width="192pt" height="192pt" viewBox="0 0 192 192" version="1.1" xmlns="http://www.w3.org/2000/svg">
<g id="#ed32b2ff">
<path fill="#ed32b2" opacity="1.00" d=" M 84.43 13.56 C 114.60 8.99 146.62 23.09 163.47 48.56 C 177.87 69.44 181.77 97.23 173.13 121.14 C 161.78 154.20 127.84 177.33 92.99 176.55 C 69.99 176.55 46.99 176.58 23.99 176.51 C 19.13 177.00 16.09 170.74 19.12 167.05 C 23.92 158.46 32.52 148.68 26.57 138.43 C 9.41 111.46 10.13 74.66 28.39 48.42 C 41.12 29.67 61.97 16.66 84.43 13.56 M 28.60 73.61 C 22.47 92.91 25.47 114.66 36.10 131.83 C 42.41 142.03 40.81 155.50 33.76 164.90 C 53.84 165.12 73.92 164.95 94.01 164.99 C 116.67 165.00 139.07 153.85 152.47 135.53 C 163.27 121.16 168.07 102.48 165.41 84.69 C 161.37 51.76 131.36 24.30 98.02 24.15 C 67.16 22.51 37.29 44.07 28.60 73.61 Z" />
<path fill="#ed32b2" opacity="1.00" d=" M 66.21 78.24 C 85.77 77.69 105.41 77.97 124.99 78.09 C 130.91 78.76 130.98 88.29 125.07 89.10 C 106.04 89.42 86.97 89.20 67.92 89.20 C 61.80 89.47 60.28 79.83 66.21 78.24 Z" />
<path fill="#ed32b2" opacity="1.00" d=" M 66.42 100.60 C 85.86 100.10 105.39 100.28 124.85 100.46 C 130.96 101.04 131.00 111.00 124.87 111.54 C 105.64 111.77 86.37 111.72 67.14 111.53 C 61.32 111.15 60.71 101.80 66.42 100.60 Z" />
</g>
</svg>
