<?xml version="1.0" encoding="UTF-8" ?>
<!DOCTYPE svg PUBLIC "-//W3C//DTD SVG 1.1//EN" "http://www.w3.org/Graphics/SVG/1.1/DTD/svg11.dtd">
<svg width="192pt" height="192pt" viewBox="0 0 192 192" version="1.1" xmlns="http://www.w3.org/2000/svg">
<g id="#a9cee1ff">
<path fill="#a9cee1" opacity="1.00" d=" M 84.40 13.51 C 105.57 10.50 127.86 16.18 144.93 29.08 C 170.74 48.07 183.47 83.08 175.25 114.15 C 166.64 149.56 132.34 176.11 96.04 176.49 C 72.03 176.63 48.01 176.53 23.99 176.52 C 19.14 177.00 16.04 170.75 19.09 167.05 C 24.11 158.33 32.74 148.02 26.18 137.73 C 8.05 109.05 10.65 69.36 32.21 43.21 C 45.06 27.23 64.09 16.36 84.40 13.51 M 28.62 73.62 C 22.50 92.92 25.49 114.67 36.13 131.83 C 42.44 142.04 40.79 155.49 33.78 164.91 C 53.85 165.10 73.93 164.96 94.00 164.99 C 115.97 164.97 137.72 154.55 151.22 137.16 C 162.78 122.69 168.11 103.43 165.46 85.08 C 161.61 52.33 132.13 24.89 99.04 24.16 C 67.86 22.14 37.40 43.71 28.62 73.62 Z" />
<path fill="#a9cee1" opacity="1.00" d=" M 83.35 71.47 C 90.25 69.87 93.42 77.53 97.63 81.38 C 101.23 84.97 104.54 91.36 110.64 89.52 C 120.07 84.89 128.89 79.03 138.27 74.28 C 140.59 73.15 142.52 76.95 140.32 78.33 C 129.55 89.88 119.02 101.68 108.02 112.99 C 102.15 117.48 96.80 110.92 92.96 107.05 C 88.60 103.54 84.91 96.52 78.31 98.41 C 69.01 102.26 59.99 106.80 50.70 110.68 C 48.19 112.11 45.90 108.88 48.02 107.03 C 58.65 95.98 69.12 84.78 79.76 73.75 C 80.79 72.77 81.92 71.76 83.35 71.47 Z" />
</g>
</svg>
