<?xml version="1.0" encoding="UTF-8" ?>
<!DOCTYPE svg PUBLIC "-//W3C//DTD SVG 1.1//EN" "http://www.w3.org/Graphics/SVG/1.1/DTD/svg11.dtd">
<svg width="192pt" height="192pt" viewBox="0 0 192 192" version="1.1" xmlns="http://www.w3.org/2000/svg">
<g id="#fa8e31ff">
<path fill="#fa8e31" opacity="1.00" d=" M 17.08 34.91 C 17.21 26.50 24.57 18.96 33.00 18.75 C 59.66 18.71 86.32 18.71 112.99 18.74 C 121.49 18.87 128.91 26.48 129.06 34.94 C 129.16 42.62 129.01 50.30 129.12 57.97 C 138.77 58.18 148.44 57.88 158.09 58.10 C 166.69 58.45 174.07 66.34 173.81 74.94 C 173.84 103.64 173.89 132.34 173.80 161.04 C 173.82 168.76 164.37 174.16 157.71 170.25 C 146.31 163.05 135.12 155.50 123.76 148.24 C 108.49 147.86 93.19 148.39 77.93 147.98 C 69.90 147.74 62.74 141.05 61.97 133.06 C 61.58 126.22 62.00 119.35 61.70 112.51 C 51.64 118.83 41.82 125.55 31.76 131.87 C 25.53 135.68 16.79 130.29 17.05 123.09 C 17.02 93.70 17.01 64.30 17.08 34.91 M 28.33 35.98 C 28.32 64.04 28.30 92.11 28.34 120.17 C 40.32 113.53 51.40 105.17 63.14 98.06 C 65.88 96.57 69.05 97.35 72.01 97.31 C 85.34 97.31 98.68 97.32 112.01 97.29 C 115.36 97.58 118.17 94.33 117.79 91.07 C 117.77 72.70 117.81 54.33 117.78 35.96 C 118.01 32.88 115.24 29.83 112.09 30.13 C 86.04 30.12 59.99 30.11 33.95 30.13 C 30.79 29.85 28.02 32.88 28.33 35.98 M 129.16 69.33 C 128.96 77.24 129.19 85.17 129.05 93.09 C 128.58 101.33 121.31 108.49 113.02 108.65 C 99.74 108.76 86.46 108.62 73.18 108.71 C 73.12 116.15 73.15 123.59 73.17 131.04 C 72.92 134.16 75.89 136.96 78.99 136.67 C 93.99 136.69 109.00 136.66 124.01 136.67 C 127.37 136.35 129.89 138.88 132.56 140.47 C 142.59 146.92 152.49 153.57 162.57 159.93 C 162.57 131.62 162.61 103.30 162.56 74.98 C 162.74 72.00 160.01 69.23 157.02 69.38 C 147.74 69.32 138.45 69.40 129.16 69.33 Z" />
<path fill="#fa8e31" opacity="1.00" d=" M 48.31 47.36 C 56.08 46.13 64.12 47.15 72.00 46.81 C 75.65 47.13 80.33 45.65 83.02 48.94 C 85.91 52.23 83.40 57.90 79.06 58.07 C 69.36 58.08 59.64 58.30 49.96 57.96 C 44.52 57.73 43.32 49.29 48.31 47.36 Z" />
<path fill="#fa8e31" opacity="1.00" d=" M 49.35 69.46 C 54.07 69.27 58.88 69.06 63.56 69.57 C 68.74 70.99 68.60 79.19 63.35 80.38 C 58.72 80.74 54.03 80.65 49.39 80.42 C 43.84 79.40 43.76 70.49 49.35 69.46 Z" />
</g>
</svg>
