<?xml version="1.0" encoding="UTF-8" ?>
<!DOCTYPE svg PUBLIC "-//W3C//DTD SVG 1.1//EN" "http://www.w3.org/Graphics/SVG/1.1/DTD/svg11.dtd">
<svg width="192pt" height="192pt" viewBox="0 0 192 192" version="1.1" xmlns="http://www.w3.org/2000/svg">
<g id="#1ab0ffff">
<path fill="#1ab0ff" opacity="1.00" d=" M 84.42 13.54 C 105.58 10.49 127.85 16.21 144.92 29.09 C 169.54 47.26 182.40 79.98 176.16 110.02 C 169.10 148.41 131.79 177.58 92.99 176.54 C 69.99 176.54 47.00 176.57 24.00 176.51 C 19.13 177.01 16.08 170.74 19.11 167.05 C 23.91 158.46 32.51 148.67 26.56 138.42 C 9.39 111.46 10.11 74.65 28.37 48.41 C 41.11 29.65 61.95 16.64 84.42 13.54 M 28.61 73.62 C 22.49 92.92 25.48 114.67 36.11 131.84 C 42.42 142.04 40.80 155.50 33.76 164.90 C 53.84 165.11 73.93 164.95 94.01 164.99 C 116.46 165.02 138.64 154.08 152.08 136.07 C 163.15 121.63 168.12 102.70 165.42 84.68 C 161.38 51.74 131.35 24.32 98.01 24.15 C 67.16 22.55 37.31 44.07 28.61 73.62 Z" />
<path fill="#1ab0ff" opacity="1.00" d=" M 66.19 78.22 C 85.76 77.70 105.41 77.96 125.00 78.09 C 130.92 78.78 130.96 88.28 125.06 89.10 C 106.03 89.41 86.97 89.20 67.93 89.20 C 61.80 89.50 60.26 79.82 66.19 78.22 Z" />
<path fill="#1ab0ff" opacity="1.00" d=" M 66.41 100.59 C 85.86 100.10 105.40 100.29 124.86 100.47 C 130.95 101.06 130.98 110.99 124.87 111.53 C 105.64 111.76 86.37 111.72 67.14 111.53 C 61.31 111.14 60.70 101.80 66.41 100.59 Z" />
</g>
</svg>
