<?xml version="1.0" encoding="UTF-8" ?>
<!DOCTYPE svg PUBLIC "-//W3C//DTD SVG 1.1//EN" "http://www.w3.org/Graphics/SVG/1.1/DTD/svg11.dtd">
<svg width="192pt" height="192pt" viewBox="0 0 192 192" version="1.1" xmlns="http://www.w3.org/2000/svg">
<g id="#2ab9a2ff">
<path fill="#2ab9a2" opacity="1.00" d=" M 115.49 37.71 C 136.83 35.13 159.19 46.52 169.46 65.42 C 171.50 69.00 168.28 73.91 164.20 73.52 C 160.42 73.46 158.96 69.50 157.03 66.93 C 145.41 50.02 121.13 43.70 102.74 52.78 C 95.13 56.71 89.11 63.80 80.42 65.48 C 71.35 66.88 63.05 61.22 54.00 61.57 C 43.52 62.19 33.85 68.69 28.42 77.53 C 20.83 89.73 23.38 107.34 34.44 116.61 C 41.61 123.63 52.37 126.41 62.14 124.37 C 69.45 123.47 77.03 119.93 84.31 122.78 C 93.27 126.83 100.71 133.95 110.35 136.54 C 122.03 139.39 135.07 137.94 145.18 131.15 C 159.32 121.98 167.46 104.72 165.66 87.96 C 165.31 81.88 174.98 80.59 176.51 86.35 C 180.39 111.97 163.44 139.03 138.67 146.75 C 127.90 150.01 116.09 150.14 105.30 146.88 C 95.97 144.04 88.56 137.35 79.86 133.28 C 69.86 133.04 60.11 137.88 49.98 135.96 C 30.90 133.62 14.80 117.27 13.08 98.06 C 9.25 71.90 34.95 46.29 61.10 50.94 C 68.64 51.59 76.96 57.52 83.86 51.89 C 93.08 44.70 103.50 38.40 115.49 37.71 Z" />
<path fill="#2ab9a2" opacity="1.00" d=" M 69.40 75.12 C 68.92 70.95 77.22 70.90 77.01 74.97 C 77.63 83.52 76.67 92.14 77.34 100.69 C 78.48 101.85 80.15 102.25 81.56 102.99 C 81.71 105.60 81.00 108.39 78.94 110.14 C 74.57 109.96 69.08 107.07 69.36 102.01 C 69.32 93.05 69.26 84.08 69.40 75.12 Z" />
<path fill="#2ab9a2" opacity="1.00" d=" M 112.80 74.98 C 112.52 70.83 120.96 70.97 120.43 75.16 C 120.77 83.73 120.31 92.33 120.64 100.90 C 126.40 101.84 125.43 107.25 122.23 110.59 C 118.44 109.30 113.14 107.85 112.83 103.02 C 112.63 93.68 112.53 84.31 112.80 74.98 Z" />
<path fill="#2ab9a2" opacity="1.00" d=" M 43.95 79.93 C 52.18 76.41 62.72 81.20 65.11 89.89 C 66.93 94.57 63.94 100.49 68.00 104.27 C 67.44 107.10 66.00 111.80 62.15 109.75 C 53.27 105.94 61.45 93.75 54.48 88.49 C 49.99 85.01 42.48 88.35 42.31 94.12 C 41.71 99.31 47.13 103.39 52.03 102.04 C 55.69 100.80 58.71 106.84 56.23 109.15 C 49.00 112.65 39.50 109.15 35.85 102.09 C 31.57 94.21 35.45 83.08 43.95 79.93 Z" />
<path fill="#2ab9a2" opacity="1.00" d=" M 92.32 79.40 C 99.87 77.13 108.69 81.42 111.41 88.85 C 112.01 90.30 111.69 92.37 109.98 92.87 C 102.85 96.20 95.46 98.99 88.28 102.26 C 86.53 102.90 84.09 104.36 82.66 102.35 C 77.22 93.96 82.73 81.62 92.32 79.40 M 88.65 93.85 C 92.97 92.23 97.30 90.56 101.28 88.21 C 96.21 85.51 89.92 88.20 88.65 93.85 Z" />
<path fill="#2ab9a2" opacity="1.00" d=" M 135.36 79.50 C 146.56 75.68 159.05 87.30 155.71 98.75 C 154.93 104.44 145.79 100.49 147.63 95.86 C 148.95 90.12 142.08 85.04 136.98 87.98 C 133.74 90.19 130.67 86.99 129.59 84.04 C 130.01 81.28 133.07 80.31 135.36 79.50 Z" />
<path fill="#2ab9a2" opacity="1.00" d=" M 126.15 87.88 C 128.95 86.89 133.70 89.44 132.84 92.96 C 132.18 96.54 133.89 100.24 137.32 101.65 C 140.51 103.39 143.70 100.58 146.95 100.73 C 148.89 101.90 151.35 104.16 150.69 106.63 C 144.58 112.82 133.45 111.47 128.02 105.00 C 124.05 100.53 122.49 92.87 126.15 87.88 Z" />
<path fill="#2ab9a2" opacity="1.00" d=" M 102.27 100.54 C 105.27 100.38 109.71 105.79 105.78 107.80 C 100.64 111.13 92.97 111.93 88.06 107.80 C 88.06 104.84 90.42 100.55 93.92 101.83 C 96.84 102.84 99.58 101.52 102.27 100.54 Z" />
</g>
</svg>
