<?xml version="1.0" encoding="UTF-8" ?>
<!DOCTYPE svg PUBLIC "-//W3C//DTD SVG 1.1//EN" "http://www.w3.org/Graphics/SVG/1.1/DTD/svg11.dtd">
<svg width="192pt" height="192pt" viewBox="0 0 192 192" version="1.1" xmlns="http://www.w3.org/2000/svg">
<g id="#ff633bff">
<path fill="#ff633b" opacity="1.00" d=" M 86.10 16.06 C 100.78 11.71 118.21 17.30 126.73 30.25 C 135.76 43.60 133.52 63.11 121.19 73.68 C 129.71 72.10 138.78 68.02 147.32 71.72 C 155.85 75.27 158.47 85.64 157.77 94.04 C 157.12 101.45 150.83 107.17 143.86 108.87 C 136.64 110.59 129.35 112.06 122.25 114.27 C 122.11 116.16 121.81 118.27 123.23 119.79 C 131.27 130.04 140.39 139.50 147.90 150.14 C 151.28 155.35 143.15 161.57 139.00 156.97 C 131.68 147.08 123.43 137.92 115.60 128.43 C 109.07 122.02 108.59 109.01 117.33 104.32 C 125.07 100.93 133.61 100.01 141.69 97.69 C 150.13 95.84 147.25 79.59 138.45 81.54 C 129.88 82.82 121.59 85.62 113.05 87.07 C 106.52 88.16 100.28 81.20 102.74 74.85 C 104.29 69.53 110.37 68.45 113.87 64.87 C 123.58 56.79 123.06 40.40 113.64 32.33 C 103.09 22.50 84.41 24.11 76.05 36.01 C 69.22 45.03 72.16 58.52 80.42 65.61 C 83.77 68.56 88.66 70.41 90.01 75.08 C 91.81 80.74 86.98 87.35 80.88 86.63 C 71.77 85.70 63.11 82.11 54.02 81.11 C 46.53 80.13 43.09 92.19 48.83 96.17 C 57.89 100.98 69.86 99.19 77.79 106.23 C 83.53 112.06 82.59 121.80 77.90 127.97 C 70.41 137.71 61.79 146.56 54.43 156.38 C 52.80 163.11 64.99 169.96 69.45 163.47 C 75.86 156.18 81.93 148.60 88.39 141.36 C 92.33 136.96 99.81 136.73 103.82 141.17 C 109.83 147.86 115.21 155.10 121.09 161.92 C 123.50 164.95 127.53 164.67 130.99 164.74 C 135.07 166.33 139.61 171.78 135.94 175.95 C 129.29 180.38 120.18 177.40 114.98 172.01 C 108.21 164.97 102.87 156.68 96.01 149.72 C 89.25 157.39 83.04 165.57 75.94 172.92 C 62.79 186.32 35.10 167.71 44.65 150.66 C 52.09 140.27 61.27 131.20 68.97 120.99 C 70.70 118.71 71.62 113.80 67.85 113.10 C 58.31 109.90 46.68 110.38 39.28 102.69 C 30.23 92.85 35.24 73.95 48.32 70.42 C 56.32 68.32 64.18 71.96 71.97 73.34 C 64.34 65.72 59.70 54.81 61.17 43.95 C 62.61 30.62 73.48 19.62 86.10 16.06 Z" />
</g>
</svg>
