<?xml version="1.0" encoding="UTF-8" ?>
<!DOCTYPE svg PUBLIC "-//W3C//DTD SVG 1.1//EN" "http://www.w3.org/Graphics/SVG/1.1/DTD/svg11.dtd">
<svg width="192pt" height="192pt" viewBox="0 0 192 192" version="1.1" xmlns="http://www.w3.org/2000/svg">
<g id="#ff8a1fff">
<path fill="#ff8a1f" opacity="1.00" d=" M 40.27 21.32 C 75.76 19.96 111.43 21.12 146.99 20.73 C 159.55 20.20 171.03 31.38 170.82 43.95 C 170.88 77.98 170.88 112.02 170.84 146.05 C 171.15 158.33 160.35 169.45 148.07 169.51 C 113.70 169.58 79.31 169.56 44.93 169.51 C 32.60 169.49 21.78 158.36 22.06 146.03 C 22.04 112.01 22.02 77.97 22.09 43.95 C 21.97 33.39 29.99 23.56 40.27 21.32 M 42.27 32.34 C 37.20 33.72 33.18 38.59 33.28 43.92 C 33.24 77.97 33.26 112.02 33.27 146.07 C 33.03 152.82 39.29 158.78 46.01 158.33 C 79.67 158.33 113.33 158.33 146.99 158.31 C 153.69 158.71 159.79 152.76 159.65 146.08 C 159.70 112.03 159.72 77.97 159.64 43.92 C 159.72 36.87 152.87 31.23 146.00 31.82 C 111.44 32.19 76.76 31.10 42.27 32.34 Z" />
<path fill="#ff8a1f" opacity="1.00" d=" M 62.77 74.14 C 75.21 73.97 87.65 74.03 100.08 74.08 C 107.74 73.97 114.02 81.51 113.11 89.01 C 112.43 98.24 113.35 107.50 112.85 116.73 C 109.34 116.82 105.82 116.81 102.31 116.70 C 102.00 107.79 102.52 98.86 102.01 89.96 C 101.81 86.42 98.53 83.46 95.01 83.47 C 87.86 83.40 80.69 83.31 73.53 83.46 C 73.29 94.56 73.75 105.69 73.29 116.79 C 69.81 116.79 66.34 116.79 62.86 116.75 C 62.50 102.56 62.70 88.34 62.77 74.14 Z" />
<path fill="#ff8a1f" opacity="1.00" d=" M 120.49 74.19 C 124.02 74.00 127.57 74.01 131.11 74.13 C 131.39 88.33 131.32 102.56 131.15 116.76 C 127.58 116.83 124.00 116.83 120.42 116.64 C 120.51 102.49 120.38 88.34 120.49 74.19 Z" />
<path fill="#ff8a1f" opacity="1.00" d=" M 82.45 90.99 C 85.99 90.74 89.54 90.74 93.08 90.89 C 93.31 99.50 93.26 108.13 93.13 116.75 C 89.57 116.82 86.00 116.83 82.44 116.64 C 82.37 108.09 82.37 99.54 82.45 90.99 Z" />
</g>
</svg>
