<?xml version="1.0" encoding="UTF-8" ?>
<!DOCTYPE svg PUBLIC "-//W3C//DTD SVG 1.1//EN" "http://www.w3.org/Graphics/SVG/1.1/DTD/svg11.dtd">
<svg width="192pt" height="192pt" viewBox="0 0 192 192" version="1.1" xmlns="http://www.w3.org/2000/svg">
<g id="#fd7737ff">
<path fill="#fd7737" opacity="1.00" d=" M 91.55 22.54 C 93.72 20.43 97.36 20.17 99.60 22.33 C 124.01 41.95 148.47 61.51 172.80 81.23 C 176.92 84.30 174.12 91.51 169.02 91.12 C 164.70 90.38 161.96 86.38 158.45 84.07 C 158.42 111.05 158.52 138.04 158.41 165.02 C 158.51 168.37 155.21 170.87 152.01 170.51 C 114.34 170.51 76.67 170.54 39.00 170.48 C 35.96 170.72 33.01 168.16 33.05 165.06 C 32.88 138.16 33.22 111.25 32.90 84.35 C 29.66 86.65 27.04 90.28 22.99 91.11 C 17.79 91.60 14.87 84.24 19.14 81.17 C 43.22 61.56 67.43 42.10 91.55 22.54 M 44.27 75.26 C 44.28 103.25 44.29 131.23 44.27 159.22 C 78.55 159.31 112.84 159.27 147.13 159.22 C 147.22 131.15 147.13 103.09 147.19 75.02 C 130.07 61.20 112.91 47.43 95.76 33.64 C 78.55 47.45 61.40 61.35 44.27 75.26 Z" />
<path fill="#fd7737" opacity="1.00" d=" M 60.20 89.39 C 72.82 89.28 85.45 89.33 98.07 89.34 C 104.39 89.17 110.87 94.33 110.82 100.91 C 110.88 111.96 110.89 123.00 110.83 134.05 C 107.26 134.18 103.69 134.22 100.12 134.00 C 99.77 124.32 100.38 114.63 99.97 104.95 C 99.79 101.47 96.49 98.71 93.05 98.92 C 85.61 98.81 78.17 98.68 70.73 98.78 C 70.40 110.50 70.73 122.24 70.62 133.97 C 67.13 134.26 63.62 134.17 60.12 134.02 C 60.08 119.15 60.07 104.27 60.20 89.39 Z" />
<path fill="#fd7737" opacity="1.00" d=" M 120.41 89.41 C 123.89 89.24 127.38 89.28 130.87 89.36 C 131.24 104.25 130.96 119.15 131.01 134.04 C 127.45 134.16 123.87 134.30 120.32 133.94 C 120.26 119.10 120.12 104.25 120.41 89.41 Z" />
<path fill="#fd7737" opacity="1.00" d=" M 80.19 106.45 C 83.76 106.34 87.34 106.41 90.91 106.37 C 91.70 115.53 91.22 124.83 91.15 134.04 C 87.48 134.17 83.80 134.24 80.13 133.98 C 80.07 124.80 80.03 115.62 80.19 106.45 Z" />
</g>
</svg>
