<?xml version="1.0" encoding="UTF-8" ?>
<!DOCTYPE svg PUBLIC "-//W3C//DTD SVG 1.1//EN" "http://www.w3.org/Graphics/SVG/1.1/DTD/svg11.dtd">
<svg width="192pt" height="192pt" viewBox="0 0 192 192" version="1.1" xmlns="http://www.w3.org/2000/svg">
<g id="#25a0f0ff">
<path fill="#25a0f0" opacity="1.00" d=" M 72.07 16.08 C 76.57 12.26 83.49 18.44 80.33 23.37 C 71.36 33.00 61.68 41.98 52.60 51.51 C 85.72 51.89 118.86 51.47 151.99 51.70 C 157.01 51.75 159.09 59.16 154.99 61.95 C 122.36 84.09 89.97 106.59 57.31 128.69 C 88.88 128.93 120.46 128.65 152.02 128.83 C 156.57 129.00 158.86 135.38 155.44 138.40 C 142.89 150.91 130.51 163.61 117.81 175.96 C 113.05 179.27 106.58 172.77 110.06 168.06 C 119.08 158.57 128.53 149.47 137.70 140.11 C 105.12 140.19 72.53 139.95 39.95 140.23 C 35.01 141.56 30.85 135.02 34.14 131.13 C 67.18 108.60 100.32 85.81 133.37 63.13 C 101.59 63.16 69.81 63.10 38.04 62.81 C 33.76 62.53 31.59 56.65 34.59 53.61 C 47.04 41.07 59.46 28.47 72.07 16.08 Z" />
</g>
</svg>
