<?xml version="1.0" encoding="UTF-8" ?>
<!DOCTYPE svg PUBLIC "-//W3C//DTD SVG 1.1//EN" "http://www.w3.org/Graphics/SVG/1.1/DTD/svg11.dtd">
<svg width="192pt" height="192pt" viewBox="0 0 192 192" version="1.1" xmlns="http://www.w3.org/2000/svg">
<g id="#1ab0ffff">
<path fill="#1ab0ff" opacity="1.00" d=" M 111.77 44.79 C 119.81 33.49 135.09 26.52 148.68 31.20 C 159.66 34.84 166.90 45.01 170.49 55.58 C 177.57 75.91 178.38 98.24 174.27 119.28 C 172.28 130.41 160.83 139.99 149.30 136.76 C 138.47 134.16 133.04 121.45 136.13 111.32 C 138.19 107.01 145.45 107.88 146.26 112.63 C 146.84 116.99 146.03 122.80 150.70 125.20 C 156.70 128.27 162.61 121.97 163.31 116.28 C 166.86 97.38 166.12 77.38 159.75 59.15 C 157.17 51.70 152.38 44.04 144.40 41.69 C 134.59 39.06 124.48 45.18 119.50 53.47 C 115.01 61.11 112.18 69.58 108.77 77.73 C 106.77 82.60 104.82 88.35 99.66 90.71 C 94.14 93.32 87.54 90.65 84.00 86.03 C 76.72 76.89 71.83 65.84 63.08 57.88 C 56.09 51.61 44.75 51.80 37.59 57.67 C 30.20 63.62 27.04 73.14 25.09 82.10 C 20.95 100.39 24.70 119.46 31.32 136.68 C 32.92 140.69 35.39 145.37 40.04 146.21 C 44.63 147.02 48.89 142.56 48.20 138.02 C 46.90 125.88 39.46 114.57 41.13 102.12 C 41.59 97.78 47.61 96.31 50.04 99.93 C 58.47 110.84 63.10 124.36 72.13 134.87 C 83.89 147.19 107.95 144.16 115.15 128.27 C 120.20 116.24 123.26 103.44 128.43 91.45 C 130.59 86.93 138.13 88.28 138.72 93.20 C 138.92 97.69 136.23 101.69 135.02 105.91 C 129.75 118.43 128.39 133.34 118.18 143.20 C 102.22 159.22 71.69 156.77 59.55 137.24 C 60.70 148.07 50.89 158.65 39.95 157.58 C 31.32 157.17 24.56 150.09 21.52 142.45 C 13.14 121.86 9.08 98.62 14.78 76.78 C 17.47 65.35 22.89 53.65 33.06 47.09 C 43.49 40.10 58.19 40.17 68.32 47.69 C 80.09 56.19 84.95 70.77 94.93 80.77 C 101.05 69.03 104.03 55.68 111.77 44.79 Z" />
</g>
</svg>
