<?xml version="1.0" encoding="UTF-8" ?>
<!DOCTYPE svg PUBLIC "-//W3C//DTD SVG 1.1//EN" "http://www.w3.org/Graphics/SVG/1.1/DTD/svg11.dtd">
<svg width="192pt" height="192pt" viewBox="0 0 192 192" version="1.1" xmlns="http://www.w3.org/2000/svg">
<g id="#ff633bff">
<path fill="#ff633b" opacity="1.00" d=" M 41.43 21.64 C 76.28 20.96 111.19 21.52 146.07 21.34 C 158.51 20.76 170.06 31.50 170.18 43.99 C 170.27 78.33 170.23 112.67 170.21 147.00 C 170.39 159.37 159.34 170.31 147.01 170.22 C 113.00 170.29 79.00 170.28 44.99 170.22 C 32.56 170.48 21.33 159.51 21.45 147.05 C 21.42 113.01 21.45 78.97 21.45 44.93 C 21.19 33.63 30.25 23.12 41.43 21.64 M 42.47 32.77 C 36.84 33.84 32.43 39.25 32.58 44.99 C 32.53 78.66 32.57 112.33 32.57 146.00 C 32.10 152.81 38.08 159.14 44.91 158.98 C 78.63 159.02 112.35 158.99 146.08 159.00 C 153.11 159.45 159.53 153.10 159.07 146.04 C 159.08 112.34 159.16 78.64 159.05 44.94 C 159.24 38.08 152.89 32.03 146.04 32.53 C 111.53 32.72 76.97 32.21 42.47 32.77 Z" />
<path fill="#ff633b" opacity="1.00" d=" M 62.16 74.83 C 74.44 74.62 86.73 74.77 99.02 74.74 C 106.17 74.40 112.68 80.85 112.46 87.99 C 112.10 97.78 112.50 107.58 112.31 117.37 C 108.77 117.55 105.21 117.54 101.66 117.39 C 101.46 108.65 101.77 99.90 101.45 91.16 C 101.48 87.31 97.98 83.87 94.09 84.15 C 87.03 84.09 79.97 84.11 72.91 84.17 C 72.63 95.22 73.02 106.27 72.77 117.33 C 69.23 117.59 65.69 117.55 62.15 117.35 C 61.98 103.19 62.05 89.00 62.16 74.83 Z" />
<path fill="#ff633b" opacity="1.00" d=" M 119.94 74.82 C 123.50 74.73 127.07 74.52 130.61 74.99 C 130.48 89.16 130.95 103.35 130.38 117.50 C 126.87 117.51 123.35 117.52 119.83 117.38 C 119.86 103.20 119.68 89.00 119.94 74.82 Z" />
<path fill="#ff633b" opacity="1.00" d=" M 81.99 91.51 C 85.51 91.45 89.04 91.34 92.56 91.65 C 92.54 100.23 92.63 108.81 92.51 117.39 C 88.95 117.54 85.39 117.54 81.83 117.37 C 81.83 108.75 81.55 100.12 81.99 91.51 Z" />
</g>
</svg>
