<?xml version="1.0" encoding="UTF-8" ?>
<!DOCTYPE svg PUBLIC "-//W3C//DTD SVG 1.1//EN" "http://www.w3.org/Graphics/SVG/1.1/DTD/svg11.dtd">
<svg width="192pt" height="192pt" viewBox="0 0 192 192" version="1.1" xmlns="http://www.w3.org/2000/svg">
<g id="#1ab1ffff">
<path fill="#1ab1ff" opacity="1.00" d=" M 61.64 25.63 C 90.60 10.87 128.71 17.26 150.90 41.09 C 152.79 43.42 151.79 46.82 149.64 48.60 C 140.90 57.20 132.32 65.99 123.49 74.50 C 119.33 78.52 112.25 72.37 115.71 67.67 C 123.13 59.55 131.29 52.12 138.93 44.20 C 118.33 26.30 86.56 23.16 62.94 36.89 C 37.20 50.85 23.26 82.87 30.77 111.21 C 35.62 131.54 50.64 149.09 69.97 157.02 C 88.60 164.85 110.76 163.59 128.34 153.60 C 116.59 135.66 89.70 131.80 73.03 145.05 C 68.40 149.62 61.05 142.13 65.54 137.59 C 76.48 128.36 91.81 124.61 105.84 127.25 C 120.72 129.90 133.78 139.99 140.62 153.39 C 141.70 155.56 140.70 158.40 138.71 159.69 C 119.26 173.04 93.50 176.33 71.19 168.83 C 42.15 159.45 20.35 131.55 18.48 101.07 C 15.73 70.19 33.75 39.00 61.64 25.63 Z" />
<path fill="#1ab1ff" opacity="1.00" d=" M 93.42 34.44 C 96.59 33.10 100.63 35.65 100.55 39.14 C 100.60 46.62 100.87 54.15 100.41 61.62 C 99.42 66.61 91.48 66.72 90.33 61.76 C 89.65 55.19 90.25 48.56 90.02 41.96 C 89.84 39.13 90.27 35.49 93.42 34.44 Z" />
<path fill="#1ab1ff" opacity="1.00" d=" M 156.29 51.41 C 157.93 51.30 159.68 51.92 160.66 53.30 C 179.31 80.85 176.66 120.68 154.51 145.51 C 151.85 148.31 146.65 146.63 145.84 142.93 C 144.90 139.55 147.95 137.10 149.64 134.59 C 165.56 113.45 166.65 82.70 152.67 60.30 C 149.95 57.12 151.96 51.56 156.29 51.41 Z" />
<path fill="#1ab1ff" opacity="1.00" d=" M 88.37 72.48 C 101.90 67.77 117.70 77.89 119.39 92.02 C 121.76 105.42 110.64 119.22 97.04 119.68 C 85.25 120.69 73.96 111.50 71.96 99.96 C 69.56 88.39 77.03 75.81 88.37 72.48 M 92.41 83.62 C 83.30 85.63 80.16 98.67 87.44 104.56 C 93.92 111.47 106.33 106.65 107.59 97.62 C 109.45 89.20 100.65 81.16 92.41 83.62 Z" />
<path fill="#1ab1ff" opacity="1.00" d=" M 128.28 90.25 C 136.09 89.29 144.12 89.89 152.01 89.92 C 157.44 90.18 158.14 98.77 152.97 100.17 C 145.33 100.71 137.62 100.41 129.96 100.33 C 124.74 100.19 123.45 92.13 128.28 90.25 Z" />
</g>
</svg>
