<?xml version="1.0" encoding="UTF-8" ?>
<!DOCTYPE svg PUBLIC "-//W3C//DTD SVG 1.1//EN" "http://www.w3.org/Graphics/SVG/1.1/DTD/svg11.dtd">
<svg width="192pt" height="192pt" viewBox="0 0 192 192" version="1.1" xmlns="http://www.w3.org/2000/svg">
<g id="#ff5f3cff">
<path fill="#ff5f3c" opacity="1.00" d=" M 87.49 17.68 C 107.79 15.88 128.87 21.42 145.11 33.89 C 160.78 45.67 171.63 64.25 172.33 84.04 C 173.33 98.81 166.74 113.94 154.88 122.89 C 151.79 125.40 146.56 123.09 146.54 119.02 C 146.17 115.84 149.07 113.99 151.04 112.05 C 158.50 105.26 162.21 94.94 161.68 84.94 C 161.20 67.42 151.11 51.09 136.93 41.16 C 113.09 23.97 77.94 23.24 54.50 41.56 C 39.33 52.92 29.39 71.00 28.12 89.92 C 26.71 107.47 32.69 125.44 44.30 138.67 C 56.80 153.21 75.81 161.98 95.01 161.71 C 99.86 161.89 103.49 155.58 100.46 151.65 C 97.76 147.94 94.98 143.81 95.15 139.00 C 94.99 129.99 102.96 121.74 112.00 121.70 C 118.31 121.75 124.64 121.38 130.93 121.83 C 135.65 123.09 135.68 130.79 130.90 131.99 C 124.02 133.15 116.82 131.28 110.03 132.98 C 105.20 134.93 104.75 141.20 108.51 144.47 C 117.13 154.20 109.72 171.12 97.02 172.26 C 74.37 173.38 51.58 163.37 36.65 146.36 C 16.78 124.38 11.75 90.71 23.73 63.70 C 34.55 38.29 59.94 19.90 87.49 17.68 Z" />
<path fill="#ff5f3c" opacity="1.00" d=" M 72.33 40.38 C 81.19 37.06 91.66 43.73 92.92 52.97 C 94.43 61.20 88.18 69.66 80.01 71.01 C 71.66 72.72 62.99 66.28 61.66 57.99 C 60.25 50.52 65.23 42.76 72.33 40.38 M 76.32 50.32 C 69.74 51.44 71.88 62.02 78.33 60.45 C 84.83 59.32 82.71 48.91 76.32 50.32 Z" />
<path fill="#ff5f3c" opacity="1.00" d=" M 107.34 40.40 C 115.65 37.26 125.49 42.85 127.67 51.30 C 130.21 59.64 124.29 68.99 115.91 70.84 C 107.39 73.11 98.10 66.59 96.77 58.01 C 95.33 50.56 100.27 42.81 107.34 40.40 M 111.33 50.33 C 104.85 51.55 106.99 61.86 113.35 60.48 C 119.99 59.39 117.80 48.81 111.33 50.33 Z" />
<path fill="#ff5f3c" opacity="1.00" d=" M 51.35 68.43 C 60.87 64.87 71.99 72.92 72.04 82.96 C 72.50 91.29 65.33 98.98 57.03 99.32 C 48.87 99.86 41.15 93.08 40.47 84.96 C 39.68 77.79 44.56 70.66 51.35 68.43 M 55.36 78.37 C 48.65 79.40 50.82 90.20 57.38 88.50 C 63.74 87.26 61.65 77.12 55.36 78.37 Z" />
<path fill="#ff5f3c" opacity="1.00" d=" M 128.36 68.49 C 136.93 65.21 147.11 71.26 148.91 80.11 C 151.17 88.97 144.02 98.45 135.04 99.26 C 127.00 100.24 119.03 93.97 117.81 86.02 C 116.42 78.62 121.30 70.86 128.36 68.49 M 132.38 78.41 C 128.92 79.14 126.89 83.80 129.41 86.57 C 131.45 89.58 136.27 89.12 137.90 85.94 C 140.25 82.42 136.39 77.37 132.38 78.41 Z" />
</g>
</svg>
