<?xml version="1.0" encoding="UTF-8" ?>
<!DOCTYPE svg PUBLIC "-//W3C//DTD SVG 1.1//EN" "http://www.w3.org/Graphics/SVG/1.1/DTD/svg11.dtd">
<svg width="192pt" height="192pt" viewBox="0 0 192 192" version="1.1" xmlns="http://www.w3.org/2000/svg">
<g id="#bc903cff">
<path fill="#bc903c" opacity="1.00" d=" M 84.33 14.40 C 115.54 9.91 148.33 25.41 164.75 52.30 C 177.09 71.84 180.51 96.69 173.92 118.85 C 165.25 149.71 136.96 173.77 105.08 177.25 C 74.17 181.41 41.86 165.95 25.60 139.36 C 7.59 111.51 9.21 72.78 29.47 46.53 C 42.49 29.05 62.70 17.17 84.33 14.40 M 86.44 25.59 C 55.81 28.87 29.40 54.45 25.24 85.00 C 20.35 113.70 35.55 144.17 61.20 157.82 C 82.46 169.66 109.89 169.25 130.80 156.80 C 158.26 141.27 172.35 106.21 163.02 76.01 C 154.20 43.51 119.85 20.76 86.44 25.59 Z" />
<path fill="#bc903c" opacity="1.00" d=" M 86.39 52.54 C 104.68 48.13 124.94 57.77 133.41 74.48 C 141.86 89.90 139.13 110.31 127.08 123.07 C 115.63 136.06 95.91 140.42 79.91 134.01 C 63.97 127.90 52.14 111.28 53.22 94.01 C 52.14 74.53 67.62 56.43 86.39 52.54 M 88.30 63.32 C 76.34 66.03 66.45 76.21 64.31 88.32 C 61.08 103.19 70.53 119.34 84.88 124.20 C 98.12 129.33 114.27 123.75 121.93 111.90 C 128.51 102.27 129.20 88.98 123.32 78.84 C 116.74 66.72 101.74 59.86 88.30 63.32 Z" />
</g>
</svg>
