<?xml version="1.0" encoding="UTF-8" ?>
<!DOCTYPE svg PUBLIC "-//W3C//DTD SVG 1.1//EN" "http://www.w3.org/Graphics/SVG/1.1/DTD/svg11.dtd">
<svg width="192pt" height="192pt" viewBox="0 0 192 192" version="1.1" xmlns="http://www.w3.org/2000/svg">
<g id="#42b9f7ff">
<path fill="#42b9f7" opacity="1.00" d=" M 66.31 19.24 C 96.04 7.39 132.61 15.00 154.49 38.53 C 155.93 40.42 155.52 43.25 153.86 44.87 C 136.49 63.34 118.98 81.69 101.60 100.16 C 105.32 108.51 102.74 119.05 95.09 124.22 C 82.79 132.65 64.81 132.10 53.04 123.00 C 49.48 119.79 52.19 114.31 56.37 113.37 C 66.26 109.80 67.87 97.33 77.24 93.15 C 82.29 90.50 88.33 90.28 93.69 92.10 C 109.51 75.13 125.73 58.50 141.29 41.30 C 124.90 27.58 102.24 21.91 81.34 26.42 C 51.40 32.25 27.37 59.53 25.46 89.99 C 22.12 123.16 45.69 156.17 78.02 164.00 C 108.61 172.54 143.49 157.32 158.15 129.19 C 169.12 109.28 169.30 84.16 159.21 63.86 C 156.31 57.89 165.93 53.96 169.11 58.95 C 179.57 78.99 180.54 103.53 172.62 124.63 C 163.87 148.00 143.84 166.82 119.92 173.98 C 97.66 180.85 72.50 177.67 52.76 165.25 C 27.66 149.91 12.13 120.34 14.22 90.93 C 15.53 59.53 36.98 30.34 66.31 19.24 Z" />
</g>
</svg>
