<?xml version="1.0" encoding="UTF-8" ?>
<!DOCTYPE svg PUBLIC "-//W3C//DTD SVG 1.1//EN" "http://www.w3.org/Graphics/SVG/1.1/DTD/svg11.dtd">
<svg width="192pt" height="192pt" viewBox="0 0 192 192" version="1.1" xmlns="http://www.w3.org/2000/svg">
<g id="#a71bffff">
<path fill="#a71bff" opacity="1.00" d=" M 84.34 17.43 C 112.52 15.95 140.83 17.18 169.05 16.95 C 176.17 16.02 177.21 27.78 170.07 28.08 C 144.05 28.32 118.02 27.96 91.99 28.13 C 71.32 28.55 51.58 39.99 39.75 56.75 C 21.08 82.54 23.94 121.71 47.38 143.63 C 64.40 161.41 91.39 167.77 114.82 160.77 C 139.90 153.20 160.17 130.30 162.61 103.89 C 164.19 83.53 162.59 63.03 163.62 42.66 C 165.02 36.86 174.62 37.96 174.52 44.01 C 174.31 64.35 175.28 84.77 173.81 105.07 C 170.39 142.04 137.12 173.30 100.06 174.61 C 72.30 176.99 44.78 162.47 29.38 139.59 C 16.05 120.06 12.88 94.34 19.88 71.89 C 28.53 43.37 54.76 21.16 84.34 17.43 Z" />
<path fill="#a71bff" opacity="1.00" d=" M 53.42 98.50 C 57.14 97.12 60.57 100.33 61.13 103.88 C 65.90 120.29 83.11 131.81 100.11 129.86 C 115.57 128.65 129.00 116.71 132.84 101.81 C 134.55 95.94 144.24 97.94 143.61 104.00 C 139.36 124.92 119.26 141.04 97.98 141.29 C 75.74 142.30 54.09 125.86 49.60 103.99 C 49.50 101.59 51.11 99.21 53.42 98.50 Z" />
</g>
</svg>
