<?xml version="1.0" encoding="UTF-8" ?>
<!DOCTYPE svg PUBLIC "-//W3C//DTD SVG 1.1//EN" "http://www.w3.org/Graphics/SVG/1.1/DTD/svg11.dtd">
<svg width="192pt" height="192pt" viewBox="0 0 192 192" version="1.1" xmlns="http://www.w3.org/2000/svg">
<g id="#9a41f7ff">
<path fill="#9a41f7" opacity="1.00" d=" M 114.35 14.43 C 122.31 12.24 131.32 15.08 136.63 21.40 C 143.05 28.61 143.63 40.17 138.02 48.01 C 132.68 55.96 121.82 59.60 112.80 56.28 C 104.30 53.45 98.09 45.01 98.04 36.03 C 97.65 26.21 104.83 16.81 114.35 14.43 M 117.28 25.31 C 110.86 26.74 107.20 34.79 110.51 40.53 C 113.44 46.69 122.53 48.16 127.30 43.32 C 135.41 36.47 127.44 22.08 117.28 25.31 Z" />
<path fill="#9a41f7" opacity="1.00" d=" M 14.12 69.92 C 14.98 61.16 23.24 54.22 31.93 54.13 C 47.30 54.07 62.67 54.10 78.04 54.07 C 83.38 53.92 88.45 56.32 92.26 59.96 C 116.86 59.98 141.46 60.00 166.06 59.99 C 172.74 59.94 178.38 66.39 178.08 72.96 C 178.04 92.66 178.17 112.38 178.01 132.08 C 177.38 146.96 162.90 159.02 148.15 157.23 C 137.23 172.94 116.89 181.00 98.18 176.72 C 79.27 172.98 63.78 156.41 61.48 137.24 C 50.97 136.92 40.45 137.27 29.94 137.08 C 21.16 136.24 13.48 127.95 14.03 119.01 C 14.12 102.65 14.01 86.28 14.12 69.92 M 29.39 66.47 C 26.92 67.65 25.37 70.28 25.58 73.02 C 25.58 88.28 25.53 103.54 25.62 118.80 C 25.41 122.41 28.59 125.61 32.19 125.46 C 47.45 125.59 62.72 125.50 77.98 125.49 C 81.64 125.82 85.54 122.88 85.21 119.00 C 85.27 103.33 85.36 87.64 85.19 71.97 C 85.27 67.78 80.78 65.35 77.01 65.87 C 61.16 66.28 45.12 65.04 29.39 66.47 M 97.12 71.31 C 96.91 88.18 97.34 105.07 96.91 121.93 C 95.29 133.00 83.49 139.22 73.04 137.07 C 75.92 153.42 91.26 166.61 108.01 166.06 C 126.38 167.16 143.80 151.42 144.23 132.95 C 144.41 114.63 144.30 96.30 144.30 77.97 C 144.69 74.38 141.57 71.20 138.00 71.40 C 124.38 71.26 110.75 71.44 97.12 71.31 M 155.11 71.32 C 157.25 88.06 155.52 105.12 156.08 122.00 C 156.32 129.87 156.09 137.81 153.90 145.44 C 161.04 144.12 166.79 137.34 166.31 129.99 C 166.26 110.49 166.44 90.99 166.23 71.49 C 162.53 71.31 158.82 71.33 155.11 71.32 Z" />
<path fill="#9a41f7" opacity="1.00" d=" M 39.38 74.36 C 50.09 73.18 61.06 73.66 71.83 74.09 C 72.20 77.04 72.19 80.02 71.84 82.97 C 68.07 83.50 64.26 83.35 60.47 83.34 C 60.34 94.85 60.75 106.38 60.31 117.88 C 58.42 120.16 54.10 119.17 51.37 118.63 C 50.22 106.98 51.22 95.07 50.88 83.31 C 47.14 82.99 42.96 84.21 39.52 82.47 C 39.01 79.80 39.31 77.05 39.38 74.36 Z" />
</g>
</svg>
