<?xml version="1.0" encoding="UTF-8" ?>
<!DOCTYPE svg PUBLIC "-//W3C//DTD SVG 1.1//EN" "http://www.w3.org/Graphics/SVG/1.1/DTD/svg11.dtd">
<svg width="192pt" height="192pt" viewBox="0 0 192 192" version="1.1" xmlns="http://www.w3.org/2000/svg">
<g id="#1ab1ffff">
<path fill="#1ab1ff" opacity="1.00" d=" M 19.29 30.37 C 47.53 24.96 75.76 19.45 104.02 14.13 C 107.60 13.09 111.21 16.28 110.98 19.91 C 111.17 33.53 111.10 47.15 111.00 60.77 C 117.81 55.16 128.90 59.85 129.50 68.69 C 132.72 72.85 138.15 75.45 140.45 80.59 C 142.18 85.89 149.21 85.69 151.15 90.89 C 154.55 97.76 149.63 105.59 142.94 108.00 C 139.84 113.94 135.70 119.36 129.81 122.78 C 129.85 132.06 117.87 137.93 111.02 131.26 C 111.11 134.39 111.08 137.52 111.08 140.65 C 129.24 140.66 147.39 140.67 165.55 140.63 C 165.56 111.48 165.58 82.33 165.55 53.18 C 152.39 53.01 139.19 53.52 126.06 52.94 C 120.08 51.84 120.79 41.94 126.96 41.96 C 141.65 41.76 156.36 41.89 171.06 41.89 C 174.31 41.64 177.10 44.72 176.79 47.91 C 176.82 80.62 176.84 113.33 176.81 146.04 C 177.17 149.75 173.56 152.45 170.08 152.10 C 150.42 152.12 130.75 152.14 111.09 152.08 C 110.98 158.41 111.26 164.74 110.96 171.05 C 110.95 174.49 107.38 177.31 104.03 176.35 C 75.41 170.85 46.74 165.50 18.17 159.75 C 12.01 158.40 13.66 148.14 19.99 148.87 C 46.59 153.66 73.11 159.03 99.68 164.02 C 99.65 118.13 99.77 72.24 99.64 26.36 C 74.90 31.18 50.13 35.88 25.38 40.64 C 25.20 71.76 25.60 102.91 25.19 134.03 C 24.09 140.18 14.09 139.33 14.14 133.05 C 13.96 101.01 14.12 68.96 14.09 36.92 C 13.70 33.72 16.05 30.65 19.29 30.37 M 111.06 78.77 C 111.05 90.44 111.16 102.11 111.00 113.77 C 116.51 109.48 124.51 111.40 128.20 117.10 C 132.04 114.48 135.25 110.90 136.94 106.53 C 127.40 103.08 127.61 88.84 136.81 85.08 C 134.79 81.13 131.72 77.86 128.14 75.26 C 124.55 81.00 116.60 82.89 111.06 78.77 Z" />
<path fill="#1ab1ff" opacity="1.00" d=" M 52.26 70.31 C 59.18 69.05 66.54 68.87 73.37 70.69 C 79.25 72.55 79.91 79.82 79.42 85.02 C 77.42 87.45 73.74 86.11 70.99 86.25 C 67.08 85.74 70.54 79.29 66.70 78.40 C 63.44 77.97 59.92 77.68 56.76 78.76 C 54.74 81.74 54.44 88.22 59.05 88.98 C 64.84 90.93 71.21 91.34 76.58 94.43 C 80.97 97.33 80.38 103.38 80.49 107.98 C 80.62 112.69 79.09 118.64 73.85 119.89 C 67.08 121.53 59.88 121.45 53.07 120.09 C 46.29 118.78 44.56 110.07 46.46 104.48 C 49.40 103.78 52.66 103.61 55.57 104.52 C 57.28 106.55 55.40 110.52 58.20 111.87 C 61.57 112.67 65.37 112.84 68.64 111.57 C 70.57 109.11 69.87 105.51 69.35 102.66 C 62.60 97.38 50.58 100.27 45.97 91.92 C 44.29 84.75 43.05 72.68 52.26 70.31 Z" />
</g>
</svg>
