<?xml version="1.0" encoding="UTF-8" ?>
<!DOCTYPE svg PUBLIC "-//W3C//DTD SVG 1.1//EN" "http://www.w3.org/Graphics/SVG/1.1/DTD/svg11.dtd">
<svg width="192pt" height="192pt" viewBox="0 0 192 192" version="1.1" xmlns="http://www.w3.org/2000/svg">
<g id="#ff8a1fff">
<path fill="#ff8a1f" opacity="1.00" d=" M 110.35 14.47 C 116.32 12.91 122.24 15.40 127.86 17.15 C 138.43 20.33 149.05 23.34 159.65 26.39 C 162.95 27.19 164.97 30.67 164.84 33.93 C 164.85 75.30 164.90 116.67 164.83 158.03 C 164.99 161.44 162.47 164.47 159.22 165.28 C 146.24 168.79 133.38 172.77 120.46 176.49 C 116.53 177.63 112.26 178.00 108.36 176.55 C 82.95 166.88 57.35 157.69 31.90 148.14 C 29.02 146.92 25.94 144.51 26.07 141.07 C 26.02 110.68 26.04 80.29 26.07 49.90 C 25.74 46.86 28.29 44.70 30.97 43.97 C 57.46 34.22 83.80 24.02 110.35 14.47 M 36.65 53.10 C 36.60 80.23 36.63 107.36 36.65 134.49 C 42.47 132.36 48.16 129.90 53.94 127.64 C 54.06 104.07 53.98 80.49 54.02 56.92 C 53.68 53.93 55.84 51.17 58.83 50.79 C 76.57 46.57 94.29 42.30 112.04 38.12 C 115.76 36.70 119.68 40.12 119.18 43.96 C 119.15 79.99 119.04 116.03 119.08 152.07 C 119.53 155.52 116.92 159.39 113.13 158.72 C 101.62 157.41 90.19 155.42 78.68 154.12 C 89.18 158.00 99.71 161.81 110.11 165.95 C 112.16 166.81 114.43 167.22 116.60 166.50 C 129.15 163.03 141.57 159.04 154.16 155.68 C 154.39 115.76 154.25 75.83 154.25 35.90 C 142.65 32.46 130.97 29.28 119.44 25.58 C 117.07 24.90 114.49 24.02 112.06 25.00 C 86.90 34.30 61.82 43.83 36.65 53.10 M 64.71 60.17 C 64.35 84.06 64.76 107.97 64.52 131.86 C 63.79 137.59 56.46 137.22 52.43 139.56 C 71.03 142.45 89.71 144.79 108.35 147.43 C 108.47 114.93 108.53 82.43 108.51 49.93 C 93.86 53.12 79.36 56.95 64.71 60.17 Z" />
</g>
</svg>
