<?xml version="1.0" encoding="UTF-8" ?>
<!DOCTYPE svg PUBLIC "-//W3C//DTD SVG 1.1//EN" "http://www.w3.org/Graphics/SVG/1.1/DTD/svg11.dtd">
<svg width="192pt" height="192pt" viewBox="0 0 192 192" version="1.1" xmlns="http://www.w3.org/2000/svg">
<g id="#1ab1ffff">
<path fill="#1ab1ff" opacity="1.00" d=" M 19.29 30.38 C 47.53 24.96 75.76 19.43 104.02 14.14 C 107.62 13.11 111.21 16.26 110.97 19.91 C 111.23 36.13 111.00 52.37 111.07 68.59 C 124.06 68.70 137.05 68.42 150.03 68.70 C 156.21 68.67 156.99 78.80 150.88 79.65 C 137.65 80.10 124.37 79.70 111.12 79.82 C 111.08 83.43 111.07 87.04 111.07 90.65 C 124.35 90.85 137.67 90.31 150.94 90.90 C 156.96 91.96 156.21 101.89 150.04 101.90 C 137.07 102.38 124.06 102.00 111.08 102.08 C 111.08 105.76 111.08 109.43 111.08 113.11 C 124.34 113.29 137.63 112.80 150.88 113.32 C 156.47 114.21 156.53 123.21 150.95 124.21 C 137.69 124.72 124.38 124.31 111.10 124.39 C 111.07 129.90 111.08 135.41 111.07 140.92 C 129.23 141.00 147.39 140.95 165.56 140.95 C 165.54 111.57 165.60 82.19 165.54 52.81 C 152.46 52.61 139.36 53.05 126.30 52.59 C 120.39 51.90 120.50 42.26 126.41 41.64 C 141.25 41.25 156.14 41.51 171.00 41.51 C 174.45 41.30 177.22 44.57 176.80 47.94 C 176.81 80.65 176.85 113.37 176.81 146.09 C 177.16 149.36 174.39 152.40 171.07 152.20 C 151.08 152.30 131.08 152.25 111.09 152.21 C 110.91 158.79 111.42 165.40 110.83 171.96 C 110.32 175.55 106.24 177.32 103.00 176.19 C 74.74 170.66 46.39 165.48 18.18 159.74 C 12.01 158.41 13.66 148.13 19.97 148.89 C 46.59 153.63 73.11 159.03 99.68 164.03 C 99.66 118.14 99.75 72.24 99.65 26.35 C 74.90 31.18 50.13 35.88 25.36 40.64 C 25.28 71.44 25.47 102.25 25.28 133.05 C 25.35 139.92 14.09 139.89 14.16 133.05 C 13.94 101.02 14.12 68.96 14.10 36.92 C 13.72 33.70 16.04 30.69 19.29 30.38 Z" />
<path fill="#1ab1ff" opacity="1.00" d=" M 36.64 76.32 C 39.81 76.39 43.17 75.67 46.21 76.81 C 49.06 84.22 49.79 92.29 52.03 99.91 C 54.46 92.41 55.06 84.31 58.08 77.05 C 61.43 75.68 68.60 74.72 69.07 79.98 C 70.72 86.59 72.06 93.28 73.87 99.85 C 75.78 92.91 77.02 85.80 78.83 78.84 C 79.90 74.53 85.63 76.49 88.84 76.43 C 90.31 78.49 88.69 81.02 88.38 83.22 C 85.11 94.16 83.06 105.50 79.17 116.21 C 75.44 116.88 68.49 118.50 67.95 113.01 C 66.22 106.10 64.98 99.07 62.88 92.25 C 60.24 100.14 59.92 108.85 56.40 116.35 C 52.84 116.73 46.43 118.43 45.69 113.39 C 42.81 101.02 38.26 88.91 36.64 76.32 Z" />
</g>
</svg>
