<?xml version="1.0" encoding="UTF-8" ?>
<!DOCTYPE svg PUBLIC "-//W3C//DTD SVG 1.1//EN" "http://www.w3.org/Graphics/SVG/1.1/DTD/svg11.dtd">
<svg width="192pt" height="192pt" viewBox="0 0 192 192" version="1.1" xmlns="http://www.w3.org/2000/svg">
<g id="#a61bffff">
<path fill="#a61bff" opacity="1.00" d=" M 19.28 30.37 C 47.52 24.95 75.74 19.44 104.00 14.12 C 107.59 13.07 111.22 16.27 110.99 19.92 C 111.21 33.95 111.00 47.99 111.08 62.02 C 118.35 62.23 125.65 61.70 132.90 62.26 C 138.44 63.30 138.49 72.14 132.96 73.27 C 125.70 73.76 118.40 73.37 111.12 73.44 C 111.11 75.82 111.09 78.21 111.08 80.59 C 118.36 80.77 125.67 80.25 132.93 80.85 C 138.45 81.91 138.49 90.83 132.91 91.84 C 125.67 92.48 118.35 91.96 111.08 92.08 C 111.09 94.45 111.09 96.81 111.08 99.18 C 118.29 99.35 125.52 98.90 132.70 99.38 C 138.20 100.22 138.68 108.82 133.34 110.31 C 125.97 111.00 118.52 110.41 111.12 110.59 C 111.10 113.09 111.08 115.60 111.08 118.10 C 118.29 118.29 125.53 117.83 132.73 118.31 C 138.39 119.19 138.60 128.16 133.00 129.35 C 125.73 129.81 118.42 129.43 111.14 129.51 C 111.07 133.22 111.06 136.94 111.09 140.65 C 129.25 140.66 147.40 140.67 165.56 140.64 C 165.56 111.49 165.58 82.34 165.55 53.19 C 152.39 53.02 139.19 53.52 126.06 52.94 C 120.08 51.85 120.79 41.94 126.96 41.96 C 141.66 41.76 156.37 41.88 171.07 41.89 C 174.34 41.63 177.10 44.73 176.79 47.92 C 176.81 80.63 176.83 113.34 176.80 146.04 C 177.17 149.75 173.56 152.43 170.08 152.10 C 150.42 152.13 130.75 152.14 111.09 152.09 C 110.99 158.41 111.25 164.74 110.97 171.06 C 110.94 174.49 107.39 177.31 104.03 176.35 C 75.45 170.86 46.82 165.51 18.28 159.79 C 12.02 158.54 13.59 148.16 19.97 148.87 C 46.58 153.65 73.10 159.03 99.68 164.02 C 99.66 118.14 99.77 72.25 99.64 26.37 C 74.90 31.18 50.14 35.89 25.39 40.64 C 25.20 71.77 25.61 102.92 25.20 134.03 C 24.09 140.19 14.09 139.33 14.14 133.05 C 13.94 101.01 14.11 68.96 14.07 36.92 C 13.70 33.73 16.03 30.65 19.28 30.37 Z" />
<path fill="#a61bff" opacity="1.00" d=" M 148.24 62.31 C 151.86 60.76 156.27 63.98 155.84 67.92 C 155.78 86.90 156.05 105.91 155.71 124.89 C 154.89 131.12 144.59 130.38 144.69 124.03 C 144.55 105.35 144.64 86.67 144.65 67.99 C 144.44 65.54 145.93 63.16 148.24 62.31 Z" />
<path fill="#a61bff" opacity="1.00" d=" M 43.62 71.61 C 47.12 71.33 52.49 69.55 54.39 73.59 C 59.25 82.88 63.91 92.27 68.76 101.57 C 69.03 91.76 68.45 81.92 69.05 72.13 C 71.81 70.52 76.44 70.48 79.10 72.15 C 79.84 88.04 79.47 104.07 79.30 120.00 C 76.40 122.46 69.32 122.62 67.94 118.07 C 63.37 109.03 58.73 100.03 54.14 91.01 C 53.65 100.85 54.85 110.88 53.51 120.59 C 50.76 121.93 46.35 122.05 43.63 120.32 C 43.23 104.11 43.29 87.84 43.62 71.61 Z" />
</g>
</svg>
