<?xml version="1.0" encoding="UTF-8" ?>
<!DOCTYPE svg PUBLIC "-//W3C//DTD SVG 1.1//EN" "http://www.w3.org/Graphics/SVG/1.1/DTD/svg11.dtd">
<svg width="192pt" height="192pt" viewBox="0 0 192 192" version="1.1" xmlns="http://www.w3.org/2000/svg">
<g id="#ff8b1fff">
<path fill="#ff8b1f" opacity="1.00" d=" M 21.27 30.37 C 49.20 24.97 77.15 19.60 105.09 14.24 C 108.46 13.06 112.70 15.29 112.76 19.06 C 112.97 28.04 112.75 37.04 112.86 46.03 C 117.78 45.43 122.85 43.96 127.79 45.10 C 131.62 46.66 132.13 51.67 129.71 54.69 C 124.00 63.69 119.74 73.69 112.95 81.95 C 112.69 91.77 112.91 101.62 112.87 111.46 C 117.09 110.90 122.93 112.74 122.28 118.01 C 120.19 124.14 115.65 129.14 113.05 135.07 C 112.52 147.03 113.09 159.05 112.80 171.04 C 112.94 174.45 109.34 177.30 106.04 176.36 C 77.45 170.88 48.82 165.51 20.28 159.79 C 14.01 158.54 15.59 148.15 21.97 148.87 C 48.56 153.64 75.06 159.05 101.63 164.02 C 101.60 118.14 101.69 72.26 101.59 26.38 C 76.86 31.17 52.13 35.90 27.39 40.65 C 27.21 71.77 27.62 102.92 27.19 134.03 C 26.10 140.20 16.09 139.34 16.13 133.06 C 15.94 101.02 16.10 68.96 16.07 36.92 C 15.70 33.73 18.02 30.64 21.27 30.37 Z" />
<path fill="#ff8b1f" opacity="1.00" d=" M 143.33 49.36 C 145.15 48.74 147.05 49.44 148.68 50.29 C 157.15 54.75 164.42 61.59 169.12 69.95 C 171.34 73.54 168.26 78.71 164.03 78.39 C 154.02 78.42 143.99 78.57 133.99 78.30 C 128.97 77.78 127.77 71.33 130.85 67.94 C 135.25 62.00 137.06 53.49 143.33 49.36 Z" />
<path fill="#ff8b1f" opacity="1.00" d=" M 49.80 70.91 C 53.23 70.55 60.47 68.44 60.23 73.96 C 60.32 86.50 60.23 99.04 60.27 111.58 C 66.79 111.86 73.40 111.09 79.87 111.98 C 81.53 114.42 80.53 117.62 80.39 120.37 C 70.20 120.70 59.88 121.14 49.73 120.15 C 49.51 103.74 49.39 87.31 49.80 70.91 Z" />
<path fill="#ff8b1f" opacity="1.00" d=" M 146.25 84.36 C 153.80 83.54 161.47 84.19 169.08 84.00 C 172.16 83.69 175.23 86.01 175.49 89.15 C 176.77 100.01 174.52 111.38 168.74 120.70 C 166.52 124.17 160.85 123.66 159.10 119.98 C 153.77 110.91 148.47 101.81 143.30 92.65 C 141.39 89.75 142.98 85.42 146.25 84.36 Z" />
<path fill="#ff8b1f" opacity="1.00" d=" M 139.38 108.48 C 141.81 108.15 144.10 109.67 145.20 111.78 C 148.54 117.43 151.89 123.08 155.16 128.77 C 156.89 131.28 156.31 135.07 153.67 136.70 C 145.32 142.46 135.10 145.50 124.97 145.34 C 120.81 145.27 118.18 140.00 120.53 136.58 C 125.07 128.46 129.79 120.44 134.36 112.34 C 135.37 110.41 137.06 108.59 139.38 108.48 Z" />
</g>
</svg>
