<?xml version="1.0" encoding="UTF-8" ?>
<!DOCTYPE svg PUBLIC "-//W3C//DTD SVG 1.1//EN" "http://www.w3.org/Graphics/SVG/1.1/DTD/svg11.dtd">
<svg width="192pt" height="192pt" viewBox="0 0 192 192" version="1.1" xmlns="http://www.w3.org/2000/svg">
<g id="#36cf92ff">
<path fill="#36cf92" opacity="1.00" d=" M 22.04 32.92 C 22.35 25.87 29.06 20.18 36.04 20.56 C 75.01 20.51 114.00 20.55 152.98 20.56 C 160.38 20.10 167.54 26.43 167.21 33.99 C 167.26 48.67 167.28 63.34 167.21 78.02 C 167.31 85.03 160.96 91.00 154.08 91.10 C 143.64 91.20 133.20 91.06 122.77 91.16 C 122.71 99.44 122.87 107.72 122.71 116.00 C 122.60 123.12 116.17 129.30 109.05 129.12 C 98.74 129.14 88.42 129.13 78.11 129.11 C 78.12 138.76 78.17 148.42 78.11 158.08 C 77.96 165.31 71.18 171.23 64.06 171.10 C 54.69 171.13 45.31 171.19 35.94 171.07 C 28.89 171.19 22.04 165.29 22.06 158.07 C 22.15 116.35 21.90 74.63 22.04 32.92 M 33.67 32.58 C 33.42 55.67 33.69 78.76 33.54 101.85 C 44.52 102.15 55.52 102.02 66.51 101.95 C 66.45 78.68 66.52 55.41 66.47 32.15 C 55.55 32.37 44.56 31.57 33.67 32.58 M 78.11 32.11 C 78.16 42.91 78.10 53.72 78.14 64.52 C 89.08 64.55 100.02 64.50 110.96 64.54 C 111.15 53.74 111.12 42.93 111.03 32.13 C 100.06 32.10 89.08 32.16 78.11 32.11 M 122.77 32.16 C 122.76 47.85 122.82 63.55 122.77 79.24 C 133.58 79.29 144.39 79.30 155.20 79.21 C 156.52 65.55 155.37 51.71 155.79 37.98 C 155.68 35.87 156.40 31.77 153.05 32.17 C 142.96 32.06 132.86 32.14 122.77 32.16 M 78.11 76.11 C 78.15 89.85 78.11 103.58 78.13 117.32 C 89.05 117.24 99.98 117.64 110.89 117.10 C 111.30 103.46 111.02 89.79 111.04 76.14 C 100.06 76.10 89.09 76.16 78.11 76.11 M 33.57 113.70 C 33.69 128.80 33.25 143.93 33.81 159.02 C 44.58 159.39 55.37 159.26 66.15 159.05 C 66.88 143.96 66.36 128.81 66.43 113.70 C 55.48 113.70 44.52 113.69 33.57 113.70 Z" />
</g>
</svg>
