<?xml version="1.0" encoding="UTF-8" ?>
<!DOCTYPE svg PUBLIC "-//W3C//DTD SVG 1.1//EN" "http://www.w3.org/Graphics/SVG/1.1/DTD/svg11.dtd">
<svg width="192pt" height="192pt" viewBox="0 0 192 192" version="1.1" xmlns="http://www.w3.org/2000/svg">
<g id="#18b6c5ff">
<path fill="#18b6c5" opacity="1.00" d=" M 67.95 33.59 C 82.25 12.71 112.03 4.55 134.62 16.43 C 159.56 27.97 171.98 60.77 159.48 85.55 C 157.27 88.76 151.79 88.27 150.09 84.79 C 148.22 81.16 151.12 77.44 151.69 73.84 C 156.98 55.46 146.74 34.57 129.58 26.55 C 112.99 18.02 90.92 22.66 79.42 37.44 C 76.15 40.66 74.04 48.08 68.17 45.79 C 60.19 41.61 48.84 44.99 46.30 54.13 C 43.32 59.80 50.99 68.96 42.90 71.94 C 29.70 76.40 20.23 90.97 24.19 104.84 C 27.06 117.12 39.37 126.26 51.98 125.25 C 55.32 124.53 59.50 126.28 59.69 130.09 C 60.00 138.75 59.63 147.43 59.86 156.10 C 70.58 146.14 80.21 134.88 91.35 125.47 C 110.50 124.23 129.83 125.73 149.03 124.91 C 160.23 123.17 167.78 110.40 164.36 99.65 C 162.28 93.64 171.73 89.87 174.55 95.43 C 182.08 113.31 167.28 135.81 147.97 136.43 C 130.49 136.51 113.01 136.36 95.52 136.49 C 83.06 149.02 70.58 161.54 58.02 173.96 C 54.88 177.46 48.40 174.68 48.63 170.02 C 48.45 158.91 48.54 147.80 48.52 136.69 C 38.50 136.03 28.69 131.59 22.02 124.01 C 12.38 113.41 9.35 97.22 14.94 83.96 C 18.46 74.77 25.98 67.63 34.62 63.19 C 33.88 56.99 34.70 50.50 38.12 45.16 C 43.85 34.98 56.91 30.48 67.95 33.59 Z" />
<path fill="#18b6c5" opacity="1.00" d=" M 63.13 60.98 C 71.39 60.64 79.70 60.75 87.97 60.92 C 89.61 60.73 89.81 62.74 90.25 63.85 C 92.48 72.33 94.29 80.92 96.57 89.39 C 96.75 91.30 99.30 92.18 100.52 90.61 C 103.78 81.05 104.78 70.74 108.28 61.32 C 116.36 60.15 124.81 61.04 133.03 60.85 C 136.15 60.94 135.40 64.94 135.43 67.05 C 135.51 69.76 130.66 69.17 130.79 71.97 C 130.70 81.67 130.74 91.38 130.78 101.08 C 130.23 103.82 133.45 104.15 135.22 105.10 C 135.07 107.79 136.58 111.44 134.02 113.33 C 127.37 113.69 120.69 113.52 114.03 113.42 C 110.73 113.36 111.48 109.21 111.54 107.00 C 110.88 103.40 116.68 105.06 116.72 101.90 C 116.90 94.39 116.87 86.87 116.64 79.36 C 116.04 79.32 114.83 79.23 114.22 79.19 C 110.70 90.54 108.25 102.24 104.27 113.44 C 99.78 113.06 94.50 114.55 90.51 112.62 C 87.11 102.63 84.96 92.21 81.82 82.12 C 81.68 80.48 80.27 79.93 78.83 79.87 C 78.52 87.60 78.73 95.33 78.74 103.05 C 80.21 103.75 81.68 104.42 83.16 105.10 C 83.01 107.79 84.49 111.37 82.00 113.30 C 75.73 113.59 69.38 113.74 63.12 113.21 C 60.45 109.97 61.26 103.58 66.34 103.21 C 66.62 92.36 66.51 81.50 66.40 70.65 C 61.73 70.05 60.22 64.20 63.13 60.98 Z" />
</g>
</svg>
