<?xml version="1.0" encoding="UTF-8" ?>
<!DOCTYPE svg PUBLIC "-//W3C//DTD SVG 1.1//EN" "http://www.w3.org/Graphics/SVG/1.1/DTD/svg11.dtd">
<svg width="192pt" height="192pt" viewBox="0 0 192 192" version="1.1" xmlns="http://www.w3.org/2000/svg">
<g id="#41e274ff">
<path fill="#41e274" opacity="1.00" d=" M 23.17 23.95 C 23.19 20.15 27.47 17.64 30.90 18.97 C 73.68 40.26 116.47 61.58 159.26 82.87 C 162.64 84.58 166.61 86.01 168.46 89.59 C 171.39 94.54 169.47 101.63 164.33 104.30 C 120.16 126.53 75.76 148.33 31.67 170.72 C 27.92 173.03 22.53 170.35 22.19 165.95 C 21.76 156.95 22.31 147.93 22.05 138.92 C 21.83 136.32 23.24 133.78 25.69 132.80 C 51.45 120.05 77.37 107.59 103.08 94.73 C 83.11 84.74 63.08 74.88 43.16 64.79 C 37.41 62.08 41.26 52.10 47.35 54.59 C 70.80 66.05 94.15 77.75 117.45 89.50 C 121.80 91.15 122.35 97.98 117.99 99.94 C 90.53 113.57 62.89 126.88 35.44 140.52 C 30.59 144.67 33.63 151.98 32.82 157.51 C 74.54 136.54 116.42 115.87 158.12 94.85 C 116.55 74.07 74.93 53.39 33.33 32.68 C 32.88 40.98 33.70 49.40 32.50 57.64 C 31.00 62.67 23.00 61.88 22.35 56.72 C 22.15 45.80 22.45 34.84 23.17 23.95 Z" />
</g>
</svg>
