<?xml version="1.0" encoding="UTF-8" ?>
<!DOCTYPE svg PUBLIC "-//W3C//DTD SVG 1.1//EN" "http://www.w3.org/Graphics/SVG/1.1/DTD/svg11.dtd">
<svg width="192pt" height="192pt" viewBox="0 0 192 192" version="1.1" xmlns="http://www.w3.org/2000/svg">
<g id="#c75fb3ff">
<path fill="#c75fb3" opacity="1.00" d=" M 85.33 12.42 C 102.92 10.15 121.24 13.56 136.72 22.26 C 160.65 35.41 177.24 60.93 179.46 88.16 C 180.74 110.83 177.35 134.68 165.34 154.32 C 162.25 159.78 153.23 154.85 156.21 149.27 C 167.07 130.57 170.65 108.23 168.75 86.87 C 165.73 58.08 143.97 32.63 116.08 24.98 C 95.31 18.83 71.89 22.73 54.25 35.31 C 36.30 47.53 24.49 68.17 22.88 89.81 C 21.64 108.31 24.62 127.36 32.88 144.06 C 34.20 147.09 37.35 150.22 35.67 153.72 C 34.21 157.28 28.58 157.73 26.65 154.36 C 17.66 139.84 13.69 122.72 12.61 105.82 C 10.29 84.48 15.96 62.18 29.16 45.12 C 42.37 27.10 63.13 15.01 85.33 12.42 Z" />
<path fill="#c75fb3" opacity="1.00" d=" M 87.12 79.13 C 91.42 74.17 99.76 73.90 104.24 78.75 C 111.74 86.43 121.40 92.10 131.99 94.17 C 142.53 96.46 153.79 94.68 164.18 96.02 C 164.48 111.23 164.45 127.26 157.19 141.09 C 149.21 158.46 133.39 172.29 114.64 176.64 C 94.56 182.92 71.62 178.87 54.85 166.21 C 33.87 149.87 23.91 121.50 28.95 95.61 C 36.90 95.54 44.86 95.81 52.79 95.33 C 65.73 94.40 78.15 88.47 87.12 79.13 M 38.31 106.12 C 37.10 125.45 45.19 145.47 60.99 157.07 C 79.09 171.48 106.06 172.83 125.70 160.73 C 144.43 149.64 155.29 127.75 153.61 106.13 C 132.55 107.75 110.43 101.17 95.98 85.22 C 81.52 101.20 59.38 107.66 38.31 106.12 Z" />
</g>
</svg>
