<?xml version="1.0" encoding="UTF-8" ?>
<!DOCTYPE svg PUBLIC "-//W3C//DTD SVG 1.1//EN" "http://www.w3.org/Graphics/SVG/1.1/DTD/svg11.dtd">
<svg width="192pt" height="192pt" viewBox="0 0 192 192" version="1.1" xmlns="http://www.w3.org/2000/svg">
<g id="#af2be6ff">
<path fill="#af2be6" opacity="1.00" d=" M 47.57 33.57 C 55.93 16.80 80.21 7.53 96.32 18.72 C 112.68 7.67 136.95 16.59 145.46 33.55 C 153.49 36.25 161.15 40.97 165.52 48.45 C 173.09 61.13 171.95 77.02 167.64 90.62 C 165.80 94.83 169.85 98.35 170.59 102.34 C 174.55 113.77 168.44 126.72 158.04 132.31 C 158.72 137.75 159.61 143.68 156.66 148.66 C 152.62 156.34 143.81 159.76 135.57 160.38 C 128.49 173.90 109.51 180.85 96.68 171.11 C 83.58 180.68 64.67 174.08 57.42 160.37 C 49.19 159.74 40.41 156.31 36.37 148.64 C 33.43 143.67 34.32 137.77 35.01 132.34 C 24.73 126.67 18.46 113.81 22.42 102.38 C 23.25 98.40 27.14 94.85 25.39 90.61 C 21.28 77.43 20.01 62.25 26.80 49.72 C 31.01 41.62 39.06 36.31 47.57 33.57 M 57.87 43.17 C 50.60 43.84 42.99 46.44 38.79 52.83 C 32.06 62.18 32.32 74.79 36.04 85.28 C 47.47 76.66 65.29 77.01 75.16 87.79 C 78.72 91.92 72.42 97.90 68.28 94.83 C 64.50 91.87 59.89 89.97 55.02 90.10 C 43.04 89.47 31.82 101.69 34.52 113.63 C 36.65 120.75 44.44 123.56 50.96 125.17 C 48.44 130.85 45.18 137.62 48.24 143.72 C 52.11 150.03 60.27 150.09 66.53 152.22 C 69.22 158.40 74.77 164.12 82.01 163.76 C 86.82 163.92 91.61 160.08 91.27 155.01 C 91.35 114.33 91.37 73.65 91.29 32.97 C 91.61 30.45 89.75 28.35 87.58 27.39 C 75.70 22.28 59.99 30.17 57.87 43.17 M 107.38 26.60 C 104.44 27.16 101.88 29.79 102.17 32.91 C 102.29 72.96 102.42 113.01 102.52 153.05 C 102.34 157.06 103.85 161.84 108.11 163.08 C 114.10 164.88 120.07 160.84 123.56 156.24 C 114.14 151.36 108.34 140.10 110.63 129.64 C 111.88 125.62 118.26 125.35 119.92 129.18 C 121.38 133.68 120.87 138.98 124.27 142.71 C 128.93 149.27 139.71 150.01 145.15 144.15 C 149.05 138.17 145.33 130.99 142.96 125.17 C 153.34 124.07 163.42 114.20 158.86 103.29 C 150.66 109.35 139.61 113.96 129.50 110.57 C 124.14 107.46 129.21 100.76 134.11 101.34 C 156.78 100.00 167.15 69.62 154.47 52.52 C 150.11 46.97 142.91 44.97 136.26 43.76 C 133.55 31.32 119.56 23.13 107.38 26.60 Z" />
<path fill="#af2be6" opacity="1.00" d=" M 77.35 46.42 C 81.42 45.75 83.43 50.68 82.14 53.97 C 79.37 63.26 68.91 67.92 59.89 68.27 C 55.15 68.23 53.04 60.61 57.67 58.83 C 62.23 57.68 67.61 57.74 71.03 54.02 C 73.28 51.65 73.61 47.05 77.35 46.42 Z" />
<path fill="#af2be6" opacity="1.00" d=" M 120.37 52.37 C 126.63 51.25 127.47 59.14 130.02 62.99 C 133.97 69.07 141.56 70.01 148.12 70.83 C 153.26 71.68 152.72 78.95 148.17 80.32 C 136.84 82.56 123.48 77.01 119.31 65.68 C 117.61 61.64 114.95 54.70 120.37 52.37 Z" />
<path fill="#af2be6" opacity="1.00" d=" M 50.35 109.30 C 66.24 106.18 79.71 125.01 76.56 139.70 C 75.16 145.46 66.12 144.04 66.77 138.04 C 67.77 129.07 61.59 120.10 52.70 118.22 C 48.46 117.82 46.57 111.57 50.35 109.30 Z" />
</g>
</svg>
