<?xml version="1.0" encoding="UTF-8" ?>
<!DOCTYPE svg PUBLIC "-//W3C//DTD SVG 1.1//EN" "http://www.w3.org/Graphics/SVG/1.1/DTD/svg11.dtd">
<svg width="192pt" height="192pt" viewBox="0 0 192 192" version="1.1" xmlns="http://www.w3.org/2000/svg">
<g id="#36d5a7ff">
<path fill="#36d5a7" opacity="1.00" d=" M 24.07 44.92 C 24.17 33.46 34.58 23.45 46.02 23.69 C 78.68 23.74 111.35 23.51 144.00 23.81 C 158.53 24.62 167.70 41.13 163.30 54.32 C 160.68 58.13 155.40 56.25 151.54 56.69 C 151.49 64.04 151.53 71.38 151.53 78.72 C 149.79 78.74 148.05 78.76 146.31 78.77 C 146.28 80.55 146.26 82.33 146.23 84.11 C 140.36 84.13 134.48 84.20 128.61 84.04 C 128.58 82.32 128.56 80.60 128.54 78.88 C 126.79 78.81 125.04 78.72 123.30 78.66 C 123.32 74.88 123.29 71.09 123.30 67.31 C 119.79 67.30 116.29 67.30 112.78 67.32 C 112.74 79.63 112.79 91.94 112.76 104.25 C 111.02 104.24 109.28 104.23 107.54 104.23 C 107.51 105.98 107.50 107.72 107.50 109.47 C 100.48 109.46 93.46 109.53 86.44 109.42 C 86.42 107.71 86.41 106.00 86.39 104.29 C 84.64 104.25 82.90 104.20 81.15 104.16 C 81.12 89.55 81.17 74.93 81.13 60.31 C 77.63 60.32 74.13 60.30 70.62 60.28 C 70.62 71.42 70.61 82.56 70.63 93.70 C 68.88 93.74 67.14 93.78 65.39 93.81 C 65.37 95.58 65.36 97.35 65.35 99.11 C 59.47 99.12 53.60 99.20 47.72 99.04 C 47.69 97.29 47.66 95.54 47.62 93.79 C 45.86 93.73 44.10 93.67 42.34 93.60 C 42.48 87.19 42.41 80.78 42.39 74.37 C 36.59 73.29 27.70 77.21 24.31 70.78 C 23.69 62.20 24.17 53.53 24.07 44.92 M 34.54 45.00 C 34.34 51.21 34.53 57.42 34.46 63.63 C 38.86 63.69 43.25 63.68 47.65 63.68 C 47.68 65.40 47.71 67.11 47.74 68.82 C 49.49 68.91 51.25 68.99 53.00 69.08 C 53.16 75.54 53.06 82.01 53.09 88.47 C 55.40 88.47 57.71 88.48 60.03 88.47 C 60.06 77.28 60.01 66.09 60.05 54.90 C 61.79 54.88 63.53 54.86 65.28 54.84 C 65.30 53.10 65.33 51.36 65.36 49.62 C 72.37 49.60 79.38 49.60 86.39 49.63 C 86.41 51.34 86.44 53.06 86.47 54.78 C 88.18 54.83 89.90 54.88 91.62 54.94 C 91.73 69.56 91.63 84.18 91.67 98.80 C 95.19 98.88 98.72 98.89 102.24 98.85 C 102.26 86.60 102.27 74.34 102.23 62.09 C 103.96 62.03 105.69 61.97 107.43 61.91 C 107.47 60.16 107.51 58.42 107.56 56.67 C 114.53 56.67 121.51 56.70 128.49 56.65 C 128.53 58.38 128.61 60.11 128.67 61.84 C 130.40 61.91 132.13 61.98 133.87 62.06 C 133.84 65.85 133.87 69.64 133.89 73.44 C 136.21 73.46 138.54 73.48 140.87 73.49 C 140.90 66.14 140.80 58.80 140.93 51.46 C 142.67 51.42 144.41 51.40 146.16 51.38 C 146.18 49.61 146.20 47.85 146.23 46.09 C 148.75 46.10 151.27 46.03 153.80 45.90 C 153.45 39.81 148.45 34.00 142.07 34.26 C 110.02 34.25 77.97 34.24 45.92 34.27 C 40.07 34.07 34.83 39.24 34.54 45.00 Z" />
<path fill="#36d5a7" opacity="1.00" d=" M 156.33 66.33 C 159.66 64.44 164.25 67.10 164.08 70.96 C 164.25 94.64 164.16 118.34 164.13 142.03 C 164.26 153.71 153.75 164.10 142.06 163.82 C 110.02 163.86 77.98 163.83 45.94 163.78 C 34.31 164.05 23.91 153.67 24.01 142.07 C 24.02 124.02 23.87 105.97 24.10 87.93 C 24.34 81.94 34.21 81.99 34.38 88.00 C 34.66 105.99 34.35 124.00 34.54 142.00 C 34.59 148.00 39.95 153.35 45.99 153.21 C 78.00 153.24 110.01 153.22 142.02 153.16 C 148.07 153.38 153.46 147.99 153.48 141.99 C 153.59 118.66 153.50 95.32 153.53 71.98 C 153.38 69.77 154.24 67.35 156.33 66.33 Z" />
</g>
</svg>
