<?xml version="1.0" encoding="UTF-8" ?>
<!DOCTYPE svg PUBLIC "-//W3C//DTD SVG 1.1//EN" "http://www.w3.org/Graphics/SVG/1.1/DTD/svg11.dtd">
<svg width="192pt" height="192pt" viewBox="0 0 192 192" version="1.1" xmlns="http://www.w3.org/2000/svg">
<g id="#ff3662ff">
<path fill="#ff3662" opacity="1.00" d=" M 44.42 25.58 C 77.62 25.07 110.86 25.42 144.07 25.38 C 157.52 25.37 168.52 39.78 164.72 52.68 C 162.52 57.39 154.48 55.38 155.04 50.08 C 155.72 43.02 150.64 35.53 143.05 35.87 C 111.02 35.83 78.98 35.73 46.95 35.90 C 39.65 35.93 34.99 43.25 35.65 50.03 C 36.21 55.58 27.71 57.41 25.75 52.30 C 22.77 40.22 31.97 26.88 44.42 25.58 Z" />
<path fill="#ff3662" opacity="1.00" d=" M 29.32 59.38 C 31.81 59.69 35.59 58.18 36.79 61.20 C 39.87 67.08 42.57 73.16 45.53 79.10 C 49.06 72.69 51.48 65.64 55.53 59.55 C 57.56 59.23 59.63 59.34 61.67 59.37 C 62.04 70.15 61.96 80.95 61.73 91.73 C 59.55 91.78 57.37 91.79 55.19 91.74 C 54.83 85.55 54.99 79.35 54.85 73.16 C 52.02 78.32 50.03 83.96 46.74 88.85 C 46.12 88.86 44.88 88.86 44.26 88.87 C 40.96 83.98 38.97 78.35 36.16 73.19 C 36.02 79.37 36.10 85.56 35.77 91.73 C 33.61 91.78 31.44 91.78 29.27 91.74 C 29.05 80.96 28.98 70.16 29.32 59.38 Z" />
<path fill="#ff3662" opacity="1.00" d=" M 67.77 59.79 C 69.70 59.15 72.42 58.76 74.09 60.06 C 74.62 70.60 74.33 81.20 74.19 91.76 C 71.96 91.79 69.72 91.77 67.49 91.67 C 67.53 81.05 66.90 70.35 67.77 59.79 Z" />
<path fill="#ff3662" opacity="1.00" d=" M 80.13 59.32 C 82.38 59.64 85.71 58.39 86.93 61.00 C 90.20 66.93 93.04 73.09 96.27 79.05 C 96.30 72.55 96.19 66.05 96.36 59.56 C 98.51 59.41 100.66 59.34 102.81 59.33 C 103.44 70.13 103.28 80.98 102.92 91.79 C 100.60 91.50 97.07 92.86 95.90 90.08 C 92.77 84.43 90.21 78.49 86.90 72.94 C 86.54 79.18 86.88 85.45 86.61 91.70 C 84.38 91.78 82.15 91.78 79.92 91.73 C 79.79 80.93 79.44 70.10 80.13 59.32 Z" />
<path fill="#ff3662" opacity="1.00" d=" M 108.59 61.93 C 107.99 58.26 113.36 58.84 115.24 60.07 C 115.71 64.24 115.40 68.46 115.44 72.65 C 118.61 72.66 121.78 72.66 124.96 72.67 C 124.93 68.24 124.91 63.81 125.22 59.40 C 127.38 59.36 129.53 59.37 131.69 59.43 C 132.04 70.19 131.99 80.97 131.73 91.73 C 129.55 91.79 127.36 91.80 125.18 91.75 C 124.91 87.37 124.95 82.98 124.89 78.59 C 121.75 78.60 118.62 78.61 115.48 78.60 C 115.49 83.00 115.50 87.39 115.27 91.78 C 113.08 91.80 110.90 91.79 108.71 91.75 C 108.40 81.81 108.53 71.86 108.59 61.93 Z" />
<path fill="#ff3662" opacity="1.00" d=" M 142.94 62.87 C 143.23 58.18 149.92 58.47 152.63 60.35 C 156.22 70.62 159.23 81.16 162.06 91.69 C 159.79 91.78 157.53 91.80 155.26 91.76 C 154.63 89.78 154.04 87.80 153.47 85.81 C 150.13 85.80 146.79 85.80 143.45 85.81 C 142.88 87.79 142.28 89.77 141.66 91.74 C 139.31 91.80 136.95 91.80 134.60 91.75 C 136.85 81.99 140.23 72.52 142.94 62.87 M 148.43 67.68 C 147.21 71.89 146.04 76.13 144.91 80.37 C 147.28 80.38 149.65 80.38 152.01 80.37 C 150.92 76.11 149.74 71.87 148.43 67.68 Z" />
<path fill="#ff3662" opacity="1.00" d=" M 28.82 102.71 C 30.65 94.83 40.93 96.91 46.90 97.28 C 53.03 97.93 53.25 105.18 52.90 109.90 C 50.78 109.95 48.66 109.99 46.54 110.03 C 47.94 103.35 40.67 100.26 35.88 104.00 C 34.86 110.24 34.89 116.91 35.87 123.15 C 40.79 126.67 47.93 123.77 46.52 117.08 C 48.65 117.04 50.78 117.06 52.91 117.15 C 53.24 121.89 53.09 129.16 46.91 129.81 C 41.06 130.31 31.41 132.18 28.98 125.02 C 27.87 117.69 28.08 110.07 28.82 102.71 Z" />
<path fill="#ff3662" opacity="1.00" d=" M 57.74 97.71 C 59.71 97.03 61.84 97.17 63.87 97.41 C 65.10 106.14 64.07 115.11 64.39 123.94 C 68.72 123.96 73.06 123.95 77.39 123.98 C 77.57 125.84 77.65 127.71 77.66 129.59 C 71.02 129.72 64.31 130.20 57.70 129.40 C 57.36 118.86 57.29 108.24 57.74 97.71 Z" />
<path fill="#ff3662" opacity="1.00" d=" M 87.14 100.07 C 87.90 95.91 93.31 97.07 96.26 97.78 C 100.22 108.10 103.05 118.94 105.99 129.62 C 103.77 129.72 101.54 129.76 99.32 129.75 C 98.62 127.73 97.95 125.70 97.27 123.67 C 93.97 123.72 90.66 123.74 87.35 123.76 C 86.80 125.78 86.22 127.78 85.58 129.77 C 83.19 129.70 80.80 129.65 78.42 129.58 C 81.07 119.67 84.21 109.90 87.14 100.07 M 88.86 118.31 C 91.23 118.32 93.60 118.32 95.98 118.31 C 94.83 114.06 93.70 109.81 92.46 105.58 C 91.15 109.79 89.98 114.05 88.86 118.31 Z" />
<path fill="#ff3662" opacity="1.00" d=" M 109.23 97.39 C 116.21 97.97 125.08 95.02 130.63 100.39 C 132.94 106.43 133.93 115.97 127.31 119.72 C 128.93 122.94 130.50 126.18 131.87 129.51 C 129.69 129.68 127.49 129.89 125.31 129.64 C 123.23 126.78 122.14 123.36 120.69 120.17 C 119.11 120.13 117.52 120.12 115.94 120.12 C 115.90 123.31 115.90 126.50 115.73 129.69 C 113.56 129.74 111.39 129.74 109.22 129.69 C 108.82 118.94 108.80 108.15 109.23 97.39 M 115.90 103.13 C 115.90 106.81 115.90 110.50 115.90 114.18 C 118.69 114.00 121.72 114.54 124.34 113.33 C 125.73 110.57 125.47 107.17 124.57 104.30 C 122.15 102.43 118.74 103.47 115.90 103.13 Z" />
<path fill="#ff3662" opacity="1.00" d=" M 141.29 97.39 C 147.07 96.98 155.42 95.02 159.24 100.63 C 161.30 108.16 160.43 116.28 160.00 124.00 C 159.53 129.93 152.62 130.52 148.00 130.34 C 143.91 130.25 137.91 130.35 136.50 125.48 C 135.03 119.45 135.91 113.15 135.73 107.01 C 135.64 103.18 136.75 98.02 141.29 97.39 M 144.29 103.19 C 140.98 107.57 143.21 114.60 142.69 120.02 C 142.03 125.54 149.18 124.95 152.62 123.61 C 154.27 117.94 153.37 111.83 153.32 106.00 C 153.21 101.56 147.27 102.39 144.29 103.19 Z" />
<path fill="#ff3662" opacity="1.00" d=" M 28.26 134.24 C 32.60 132.03 36.74 136.67 35.77 140.94 C 34.84 147.69 39.79 154.85 46.90 154.89 C 78.62 155.07 110.34 154.90 142.06 154.97 C 146.71 155.23 151.52 152.84 153.60 148.58 C 155.57 144.83 154.28 140.41 155.51 136.50 C 157.29 132.57 163.78 132.98 165.03 137.12 C 168.96 152.13 155.52 167.78 140.00 165.52 C 111.67 165.47 83.34 165.50 55.00 165.50 C 49.44 165.46 43.58 165.98 38.40 163.55 C 30.79 160.24 25.50 152.38 25.29 144.09 C 25.24 140.72 24.51 135.98 28.26 134.24 Z" />
</g>
</svg>
