<?xml version="1.0" encoding="UTF-8" ?>
<!DOCTYPE svg PUBLIC "-//W3C//DTD SVG 1.1//EN" "http://www.w3.org/Graphics/SVG/1.1/DTD/svg11.dtd">
<svg width="192pt" height="192pt" viewBox="0 0 192 192" version="1.1" xmlns="http://www.w3.org/2000/svg">
<g id="#b3709eff">
<path fill="#b3709e" opacity="1.00" d=" M 19.17 24.05 C 19.16 19.72 24.88 17.29 28.15 19.88 C 50.73 42.50 73.34 65.11 96.01 87.63 C 118.34 65.40 140.55 43.04 162.84 20.78 C 165.66 17.38 171.84 19.00 172.55 23.38 C 173.42 27.04 170.07 29.53 167.84 31.84 C 144.99 54.66 122.15 77.50 99.37 100.39 C 97.33 102.12 93.85 101.90 92.03 99.92 C 71.52 79.26 50.90 58.72 30.40 38.07 C 30.53 81.04 30.57 124.02 30.47 166.99 C 30.89 174.23 18.86 174.16 19.22 166.95 C 18.98 119.32 19.48 71.68 19.17 24.05 Z" />
<path fill="#b3709e" opacity="1.00" d=" M 165.24 59.33 C 168.85 58.05 173.01 61.14 172.55 65.01 C 172.48 99.33 172.80 133.66 172.47 167.98 C 171.75 174.42 161.13 173.50 161.48 166.99 C 161.35 133.33 161.55 99.67 161.46 66.01 C 161.17 63.28 162.42 60.14 165.24 59.33 Z" />
</g>
</svg>
