<?xml version="1.0" encoding="UTF-8" ?>
<!DOCTYPE svg PUBLIC "-//W3C//DTD SVG 1.1//EN" "http://www.w3.org/Graphics/SVG/1.1/DTD/svg11.dtd">
<svg width="192pt" height="192pt" viewBox="0 0 192 192" version="1.1" xmlns="http://www.w3.org/2000/svg">
<g id="#b86b91ff">
<path fill="#b86b91" opacity="1.00" d=" M 35.83 39.58 C 52.40 20.98 78.40 11.73 103.05 14.04 C 130.72 16.28 156.55 33.70 168.91 58.56 C 124.23 58.64 79.54 58.48 34.85 58.49 C 29.10 67.96 25.27 78.78 24.67 89.88 C 75.72 89.92 126.78 89.79 177.83 89.91 C 178.94 109.11 173.50 128.73 161.93 144.18 C 122.58 144.25 83.23 144.24 43.88 144.17 C 67.25 169.92 109.99 173.53 137.57 152.50 C 143.16 150.86 149.40 152.11 155.23 151.86 C 133.87 175.46 97.89 183.73 68.09 172.92 C 48.52 166.01 31.54 151.50 22.32 132.84 C 66.82 132.89 111.32 132.84 155.83 132.86 C 161.66 123.33 165.79 112.38 165.98 101.13 C 115.02 101.09 64.04 101.27 13.08 101.03 C 12.42 82.93 17.24 64.46 27.59 49.49 C 28.27 48.70 28.84 47.29 30.12 47.49 C 69.07 47.47 108.01 47.51 146.96 47.36 C 123.94 21.07 80.46 17.74 52.97 38.99 C 47.54 40.55 41.50 39.24 35.83 39.58 Z" />
</g>
</svg>
