<?xml version="1.0" encoding="UTF-8" ?>
<!DOCTYPE svg PUBLIC "-//W3C//DTD SVG 1.1//EN" "http://www.w3.org/Graphics/SVG/1.1/DTD/svg11.dtd">
<svg width="192pt" height="192pt" viewBox="0 0 192 192" version="1.1" xmlns="http://www.w3.org/2000/svg">
<g id="#746988ff">
<path fill="#746988" opacity="1.00" d=" M 25.11 43.95 C 24.89 31.71 35.79 20.69 48.03 20.77 C 78.02 20.71 108.02 20.74 138.01 20.75 C 143.12 20.39 148.06 24.71 147.85 29.93 C 147.81 62.30 148.19 94.65 148.12 127.02 C 148.00 128.68 148.22 130.64 146.85 131.87 C 135.79 144.14 124.94 156.62 113.81 168.81 C 109.33 173.64 101.40 166.49 105.44 161.50 C 114.94 150.34 125.01 139.64 134.62 128.56 C 136.49 126.53 136.72 123.67 136.70 121.04 C 136.65 91.39 136.72 61.75 136.67 32.10 C 107.80 31.46 78.88 31.96 49.99 31.82 C 43.12 31.25 36.12 36.80 36.31 43.93 C 36.26 77.97 36.30 112.02 36.29 146.06 C 35.96 152.49 41.56 158.44 47.99 158.49 C 62.99 158.69 78.01 158.35 93.01 158.63 C 99.22 158.57 100.01 168.76 93.88 169.56 C 78.58 169.94 63.25 169.65 47.94 169.69 C 35.91 169.77 25.21 159.08 25.12 147.07 C 25.01 112.70 25.08 78.32 25.11 43.95 Z" />
<path fill="#746988" opacity="1.00" d=" M 158.34 21.32 C 161.52 19.59 166.13 21.40 166.73 25.10 C 167.55 31.02 166.88 37.03 167.14 42.99 C 167.04 46.18 167.53 50.41 164.29 52.29 C 160.88 54.74 155.52 52.07 155.43 47.88 C 155.14 41.58 155.45 35.27 155.31 28.97 C 155.22 26.19 155.45 22.68 158.34 21.32 Z" />
<path fill="#746988" opacity="1.00" d=" M 159.37 60.48 C 162.90 59.22 167.07 62.17 166.80 65.97 C 166.76 73.54 167.24 81.17 166.59 88.71 C 165.27 93.93 156.83 93.82 155.67 88.55 C 155.01 81.38 155.57 74.13 155.41 66.94 C 155.18 64.21 156.57 61.23 159.37 60.48 Z" />
<path fill="#746988" opacity="1.00" d=" M 159.20 100.20 C 162.99 98.79 167.15 101.96 166.96 105.95 C 167.11 113.26 167.44 120.63 166.77 127.91 C 165.91 133.52 156.92 133.84 155.65 128.32 C 154.90 121.58 155.59 114.74 155.34 107.97 C 155.08 104.94 155.88 101.18 159.20 100.20 Z" />
<path fill="#746988" opacity="1.00" d=" M 157.25 139.33 C 161.34 137.67 166.48 140.58 166.87 145.05 C 167.33 151.03 167.13 157.07 167.01 163.06 C 167.03 166.80 163.84 170.34 160.02 170.25 C 153.70 170.29 147.34 170.60 141.04 170.04 C 135.64 169.13 133.72 161.40 137.92 157.93 C 144.42 151.82 150.13 144.69 157.25 139.33 Z" />
</g>
</svg>
