<?xml version="1.0" encoding="UTF-8" ?>
<!DOCTYPE svg PUBLIC "-//W3C//DTD SVG 1.1//EN" "http://www.w3.org/Graphics/SVG/1.1/DTD/svg11.dtd">
<svg width="192pt" height="192pt" viewBox="0 0 192 192" version="1.1" xmlns="http://www.w3.org/2000/svg">
<g id="#bb927eff">
<path fill="#bb927e" opacity="1.00" d=" M 83.26 19.37 C 95.59 15.70 109.07 27.44 107.74 40.06 C 107.51 45.12 104.69 49.67 101.01 53.01 C 84.63 69.29 68.40 85.71 51.97 101.94 C 43.81 109.55 29.96 107.05 23.92 98.01 C 18.26 90.96 19.04 79.82 25.58 73.58 C 41.72 57.39 57.92 41.25 74.06 25.06 C 76.60 22.45 79.69 20.28 83.26 19.37 M 85.34 30.45 C 83.39 31.32 81.99 33.02 80.47 34.47 C 64.59 50.57 48.33 66.32 32.61 82.57 C 27.04 90.04 39.65 100.21 45.56 92.58 C 62.00 76.03 78.64 59.66 94.98 43.02 C 100.06 37.11 92.23 27.69 85.34 30.45 Z" />
<path fill="#bb927e" opacity="1.00" d=" M 131.23 35.32 C 142.68 30.79 156.03 40.23 157.26 52.04 C 157.91 57.49 155.90 63.16 152.02 67.02 C 124.01 95.01 96.04 123.03 68.01 151.00 C 60.97 158.07 48.45 157.54 41.80 150.20 C 34.18 143.59 33.42 130.77 40.58 123.56 C 68.18 95.83 95.91 68.23 123.53 40.53 C 125.71 38.31 128.24 36.33 131.23 35.32 M 137.26 45.50 C 134.71 45.53 132.68 47.26 131.00 48.99 C 103.58 76.56 75.91 103.91 48.58 131.56 C 42.54 138.17 53.45 149.05 60.02 142.95 C 88.11 115.08 116.05 87.04 144.00 59.02 C 149.10 54.08 143.67 45.27 137.26 45.50 Z" />
<path fill="#bb927e" opacity="1.00" d=" M 148.25 84.35 C 160.23 80.80 173.39 91.76 172.80 104.04 C 172.80 108.94 170.54 113.67 167.01 117.02 C 150.30 133.63 133.73 150.38 116.98 166.95 C 109.68 173.73 97.21 172.74 90.81 165.19 C 83.57 158.54 83.15 146.08 90.10 139.08 C 106.36 122.68 122.77 106.42 139.06 90.05 C 141.60 87.44 144.68 85.27 148.25 84.35 M 150.36 95.47 C 132.36 111.56 115.89 129.59 98.54 146.49 C 91.46 152.85 102.59 164.93 109.53 158.50 C 126.29 141.94 142.90 125.22 159.53 108.55 C 165.43 102.87 157.53 92.54 150.36 95.47 Z" />
<path fill="#bb927e" opacity="1.00" d=" M 154.33 145.44 C 162.99 141.71 173.53 149.66 172.18 159.02 C 171.77 169.01 158.50 174.81 150.97 168.14 C 142.97 162.42 144.99 148.58 154.33 145.44 Z" />
</g>
</svg>
