<?xml version="1.0" encoding="UTF-8" ?>
<!DOCTYPE svg PUBLIC "-//W3C//DTD SVG 1.1//EN" "http://www.w3.org/Graphics/SVG/1.1/DTD/svg11.dtd">
<svg width="192pt" height="192pt" viewBox="0 0 192 192" version="1.1" xmlns="http://www.w3.org/2000/svg">
<g id="#47e470ff">
<path fill="#47e470" opacity="1.00" d=" M 92.36 19.48 C 95.71 18.08 99.64 19.31 101.90 22.08 C 118.23 40.00 133.11 59.56 143.49 81.57 C 151.50 98.20 156.43 119.73 145.21 136.08 C 134.24 150.84 117.30 159.19 102.62 169.63 C 98.73 172.83 93.01 173.24 88.99 170.04 C 74.75 160.18 58.89 151.87 47.51 138.52 C 37.00 126.09 37.63 108.23 42.57 93.59 C 51.35 68.18 67.83 46.36 85.22 26.20 C 87.43 23.83 89.35 20.94 92.36 19.48 M 91.76 37.72 C 76.18 56.27 60.93 76.18 53.60 99.60 C 49.56 111.34 50.53 125.97 60.47 134.53 C 71.25 143.46 82.69 151.97 95.11 158.41 C 95.62 118.95 95.30 79.45 95.39 39.98 C 96.08 37.69 93.30 35.05 91.76 37.72 Z" />
</g>
</svg>
