<?xml version="1.0" encoding="UTF-8" ?>
<!DOCTYPE svg PUBLIC "-//W3C//DTD SVG 1.1//EN" "http://www.w3.org/Graphics/SVG/1.1/DTD/svg11.dtd">
<svg width="192pt" height="192pt" viewBox="0 0 192 192" version="1.1" xmlns="http://www.w3.org/2000/svg">
<g id="#43c2daff">
<path fill="#43c2da" opacity="1.00" d=" M 84.34 14.41 C 105.60 11.44 128.04 16.69 145.17 29.80 C 167.95 46.10 180.27 75.35 177.05 103.04 C 175.13 123.00 165.14 141.90 150.47 155.45 C 136.71 167.98 118.41 175.00 99.96 176.36 C 81.03 177.68 62.04 171.33 46.88 160.13 C 26.37 144.48 13.47 118.87 14.12 92.97 C 14.73 54.45 45.80 18.81 84.34 14.41 M 108.62 25.87 C 134.25 41.96 145.00 76.51 133.82 104.49 C 149.43 89.30 154.18 63.98 144.67 44.33 C 135.06 34.57 122.07 28.30 108.62 25.87 M 76.44 27.50 C 62.03 31.55 49.00 40.39 39.98 52.35 C 58.38 42.48 81.50 41.25 100.27 50.81 C 111.04 56.23 118.60 65.90 126.64 74.55 C 124.45 49.36 101.84 27.75 76.44 27.50 M 27.41 79.32 C 22.70 96.24 26.44 114.53 34.84 129.67 C 32.68 112.39 37.68 94.27 48.75 80.78 C 58.45 68.74 72.69 60.57 87.90 57.95 C 65.94 50.68 39.84 59.86 27.41 79.32 M 90.38 68.48 C 79.78 70.45 70.96 79.41 69.10 90.01 C 66.99 100.38 71.79 111.62 80.57 117.45 C 90.55 124.40 105.11 123.29 113.92 114.91 C 123.41 106.49 125.46 91.16 118.48 80.57 C 112.78 71.20 101.09 66.31 90.38 68.48 M 161.61 68.96 C 161.13 98.73 138.27 125.76 109.11 131.48 C 132.09 135.39 156.88 122.55 165.89 100.93 C 167.26 90.14 165.19 79.15 161.61 68.96 M 56.09 152.86 C 87.30 175.61 136.18 165.32 155.38 131.78 C 128.90 151.44 87.18 146.37 67.81 119.18 C 59.66 110.27 57.14 97.62 58.96 85.92 C 42.60 104.09 41.23 133.50 56.09 152.86 Z" />
</g>
</svg>
