<?xml version="1.0" encoding="UTF-8" ?>
<!DOCTYPE svg PUBLIC "-//W3C//DTD SVG 1.1//EN" "http://www.w3.org/Graphics/SVG/1.1/DTD/svg11.dtd">
<svg width="192pt" height="192pt" viewBox="0 0 192 192" version="1.1" xmlns="http://www.w3.org/2000/svg">
<g id="#19b0ffff">
<path fill="#19b0ff" opacity="1.00" d=" M 84.41 14.53 C 117.88 9.25 153.18 27.45 168.51 57.60 C 184.47 87.09 179.56 126.11 156.65 150.63 C 134.02 176.38 94.51 184.87 63.27 170.75 C 31.76 157.52 11.01 123.02 14.34 88.96 C 16.66 51.81 47.48 19.12 84.41 14.53 M 87.35 25.45 C 63.25 28.10 41.42 44.36 31.53 66.42 C 18.19 94.76 26.75 131.24 51.46 150.54 C 77.40 172.46 119.15 171.18 143.68 147.68 C 167.55 126.64 173.64 88.84 157.75 61.30 C 144.34 36.53 115.30 21.71 87.35 25.45 Z" />
<path fill="#19b0ff" opacity="1.00" d=" M 49.41 87.31 C 52.17 72.66 69.61 63.28 83.42 68.58 C 88.23 70.26 92.20 73.57 95.70 77.18 C 101.58 69.70 111.45 65.85 120.85 67.52 C 132.87 69.44 142.83 80.65 142.67 92.95 C 142.69 101.93 142.99 110.92 142.52 119.88 C 141.90 125.51 132.89 125.51 132.10 119.95 C 131.30 110.37 132.26 100.71 131.63 91.12 C 130.71 84.04 124.12 78.37 117.04 78.21 C 109.30 77.77 101.83 84.21 101.19 91.93 C 100.33 101.49 101.52 111.15 100.56 120.67 C 99.15 125.71 90.94 125.07 90.13 119.95 C 89.66 110.63 90.22 101.27 89.76 91.95 C 89.25 84.53 82.55 77.97 75.00 78.25 C 67.82 77.95 61.08 83.82 60.24 90.93 C 59.64 100.58 60.61 110.31 59.76 119.93 C 58.75 125.94 48.77 125.18 48.78 119.01 C 48.92 108.46 47.98 97.79 49.41 87.31 Z" />
</g>
</svg>
