<?xml version="1.0" encoding="UTF-8" ?>
<!DOCTYPE svg PUBLIC "-//W3C//DTD SVG 1.1//EN" "http://www.w3.org/Graphics/SVG/1.1/DTD/svg11.dtd">
<svg width="192pt" height="192pt" viewBox="0 0 192 192" version="1.1" xmlns="http://www.w3.org/2000/svg">
<g id="#7f465fff">
<path fill="#7f465f" opacity="1.00" d=" M 82.39 14.50 C 99.16 12.31 116.87 15.02 131.69 23.31 C 136.72 26.71 131.84 35.56 126.27 32.75 C 105.98 22.56 80.90 22.38 60.71 32.91 C 55.39 36.20 49.53 28.16 54.09 24.07 C 62.57 18.74 72.54 16.01 82.39 14.50 Z" />
<path fill="#7f465f" opacity="1.00" d=" M 39.39 35.50 C 44.32 34.71 47.85 41.65 43.97 44.99 C 32.78 55.93 25.45 70.50 23.14 85.97 C 21.90 91.91 12.31 90.92 12.25 84.89 C 14.02 67.74 22.29 51.53 34.08 39.07 C 35.59 37.58 37.12 35.69 39.39 35.50 Z" />
<path fill="#7f465f" opacity="1.00" d=" M 143.26 37.17 C 149.91 34.73 157.87 37.50 161.73 43.40 C 167.11 51.28 172.93 58.90 177.99 66.99 C 183.37 76.53 175.85 89.46 165.04 90.03 C 153.45 90.18 141.79 90.52 130.22 89.86 C 118.20 88.14 113.07 72.09 121.23 63.34 C 128.68 54.82 132.52 42.12 143.26 37.17 M 146.19 48.15 C 140.22 55.61 135.08 63.70 129.61 71.52 C 127.30 74.18 129.49 78.67 132.95 78.62 C 142.30 78.85 151.67 78.46 161.03 78.63 C 163.49 78.66 166.77 78.67 167.85 75.93 C 169.12 72.89 166.55 70.33 165.01 68.00 C 160.17 61.46 155.95 54.45 150.76 48.18 C 149.23 48.19 147.71 48.18 146.19 48.15 Z" />
<path fill="#7f465f" opacity="1.00" d=" M 16.30 101.34 C 19.76 100.33 23.23 103.10 23.42 106.61 C 25.70 121.84 33.40 135.95 44.32 146.71 C 48.67 151.17 42.01 158.60 37.04 154.95 C 23.72 142.81 14.97 125.79 12.33 107.99 C 11.61 105.14 13.44 102.03 16.30 101.34 Z" />
<path fill="#7f465f" opacity="1.00" d=" M 167.36 101.45 C 171.30 99.91 175.80 103.76 174.75 107.90 C 172.16 126.00 163.11 143.28 149.47 155.49 C 144.59 159.53 137.60 151.59 142.20 147.20 C 152.76 136.93 160.61 123.62 163.14 109.01 C 163.66 106.14 164.10 102.44 167.36 101.45 Z" />
<path fill="#7f465f" opacity="1.00" d=" M 55.39 158.47 C 58.01 156.81 60.91 158.50 63.36 159.61 C 82.81 168.97 106.46 168.38 125.70 158.73 C 131.19 155.63 136.74 164.05 131.91 167.92 C 108.72 180.78 79.02 180.67 55.63 168.31 C 51.69 166.53 51.55 160.45 55.39 158.47 Z" />
</g>
</svg>
