<?xml version="1.0" encoding="UTF-8" ?>
<!DOCTYPE svg PUBLIC "-//W3C//DTD SVG 1.1//EN" "http://www.w3.org/Graphics/SVG/1.1/DTD/svg11.dtd">
<svg width="192pt" height="192pt" viewBox="0 0 192 192" version="1.1" xmlns="http://www.w3.org/2000/svg">
<g id="#ab4a93ff">
<path fill="#ab4a93" opacity="1.00" d=" M 54.77 24.76 C 76.63 11.87 104.57 10.15 127.88 20.14 C 156.92 32.12 177.46 61.98 177.88 93.45 C 179.38 128.08 156.02 162.32 122.90 172.81 C 116.84 173.82 114.35 164.15 120.13 162.12 C 137.84 155.48 152.82 141.75 160.47 124.41 C 168.96 105.62 168.55 83.09 159.40 64.62 C 148.05 40.86 122.44 24.53 96.00 25.12 C 70.84 24.62 46.32 39.26 34.25 61.24 C 22.77 81.43 22.41 107.36 33.16 127.92 C 44.00 149.27 66.66 164.99 90.71 165.72 C 96.30 156.41 101.98 147.12 107.18 137.58 C 89.42 141.83 68.97 136.02 58.38 120.57 C 48.50 106.87 47.28 87.38 55.62 72.65 C 65.00 55.97 86.02 46.62 104.64 51.49 C 122.28 55.86 136.61 71.80 138.21 90.04 C 139.62 103.06 133.74 115.36 127.16 126.19 C 116.96 143.19 107.27 160.48 97.23 177.58 C 73.00 178.08 48.88 167.19 33.37 148.56 C 18.94 131.66 11.93 108.71 14.49 86.64 C 17.09 61.15 32.59 37.51 54.77 24.76 M 87.32 62.40 C 69.85 65.61 57.76 84.73 62.22 101.90 C 65.78 119.24 85.04 131.05 102.11 126.22 C 118.98 122.45 130.31 103.81 125.96 87.08 C 122.47 70.22 104.13 58.30 87.32 62.40 Z" />
</g>
</svg>
