<?xml version="1.0" encoding="UTF-8" ?>
<!DOCTYPE svg PUBLIC "-//W3C//DTD SVG 1.1//EN" "http://www.w3.org/Graphics/SVG/1.1/DTD/svg11.dtd">
<svg width="192pt" height="192pt" viewBox="0 0 192 192" version="1.1" xmlns="http://www.w3.org/2000/svg">
<g id="#ff623cff">
<path fill="#ff623c" opacity="1.00" d=" M 38.32 20.39 C 73.19 19.61 108.12 20.27 143.00 20.03 C 152.02 19.66 161.06 24.81 165.01 32.97 C 168.27 39.11 167.66 46.30 167.41 52.99 C 166.82 57.90 159.49 59.10 157.16 54.82 C 155.51 51.13 156.75 46.91 156.30 43.00 C 156.25 36.65 150.40 31.12 144.08 31.26 C 110.03 31.21 75.97 31.19 41.92 31.27 C 34.82 31.16 29.13 38.07 29.82 45.00 C 30.05 49.65 30.82 57.69 23.99 57.48 C 17.25 56.81 18.75 48.77 18.72 44.02 C 18.27 32.71 27.14 22.04 38.32 20.39 Z" />
<path fill="#ff623c" opacity="1.00" d=" M 19.98 70.94 C 19.33 65.16 27.68 67.09 31.08 67.89 C 37.08 77.91 41.18 89.03 46.92 99.22 C 51.61 89.75 56.18 80.23 60.77 70.72 C 62.34 65.64 69.40 66.64 73.14 68.12 C 73.85 85.02 73.51 102.07 73.32 119.01 C 70.60 121.20 65.67 120.73 62.63 119.31 C 61.57 109.55 62.77 99.59 62.03 89.76 C 57.75 97.69 54.14 105.97 49.92 113.92 C 48.87 116.36 44.21 116.17 43.33 113.64 C 39.23 105.57 35.36 97.38 31.24 89.31 C 31.10 99.17 31.50 109.04 31.06 118.88 C 28.44 121.15 22.73 121.09 20.11 118.87 C 19.78 102.90 20.05 86.92 19.98 70.94 Z" />
<path fill="#ff623c" opacity="1.00" d=" M 86.36 67.38 C 89.76 67.37 96.85 65.38 96.24 70.97 C 96.13 86.94 96.47 102.93 96.07 118.89 C 93.44 121.15 87.73 121.09 85.10 118.86 C 84.77 103.24 85.08 87.60 84.95 71.98 C 85.19 70.42 84.44 68.07 86.36 67.38 Z" />
<path fill="#ff623c" opacity="1.00" d=" M 107.36 67.38 C 110.41 67.55 115.47 65.66 117.09 69.02 C 117.59 81.55 116.86 94.13 117.45 106.66 C 117.91 112.85 125.70 111.43 130.00 111.28 C 133.39 111.43 135.01 108.03 134.88 105.10 C 135.11 93.72 134.89 82.32 134.97 70.94 C 134.28 65.28 141.95 67.21 145.35 67.62 C 147.38 73.68 145.69 80.60 146.24 87.00 C 145.80 95.88 147.42 105.07 144.77 113.71 C 143.04 119.47 136.29 120.79 131.05 120.85 C 124.29 120.71 116.85 121.91 110.75 118.28 C 106.38 115.05 106.09 108.96 105.96 103.98 C 106.15 92.06 105.61 80.10 106.23 68.21 C 106.51 68.00 107.08 67.59 107.36 67.38 Z" />
<path fill="#ff623c" opacity="1.00" d=" M 157.27 67.32 C 160.56 67.36 167.59 65.45 166.81 70.94 C 166.58 87.10 167.26 103.33 166.48 119.44 C 163.39 120.68 158.36 121.24 155.82 118.89 C 155.24 103.29 155.77 87.63 155.56 72.00 C 155.77 70.40 155.08 67.75 157.27 67.32 Z" />
<path fill="#ff623c" opacity="1.00" d=" M 22.19 131.26 C 25.00 130.11 28.63 131.59 29.53 134.56 C 30.49 139.46 28.98 144.63 30.60 149.44 C 32.34 154.52 37.58 158.01 42.94 157.70 C 76.31 157.73 109.69 157.71 143.06 157.70 C 147.89 157.96 152.80 155.36 154.97 150.98 C 157.76 145.71 155.23 139.49 156.90 134.00 C 158.85 129.39 166.31 130.15 167.36 135.02 C 167.67 142.02 168.38 149.57 164.98 156.00 C 161.16 163.77 152.71 168.97 144.04 168.83 C 110.01 168.85 75.98 168.85 41.94 168.81 C 32.75 168.90 23.99 162.85 20.53 154.39 C 18.13 148.92 18.74 142.80 18.73 136.98 C 18.54 134.58 19.91 132.13 22.19 131.26 Z" />
</g>
</svg>
