<?xml version="1.0" encoding="UTF-8" ?>
<!DOCTYPE svg PUBLIC "-//W3C//DTD SVG 1.1//EN" "http://www.w3.org/Graphics/SVG/1.1/DTD/svg11.dtd">
<svg width="192pt" height="192pt" viewBox="0 0 192 192" version="1.1" xmlns="http://www.w3.org/2000/svg">
<g id="#606f80ff">
<path fill="#606f80" opacity="1.00" d=" M 13.49 46.00 C 13.40 35.40 25.95 26.21 35.50 32.56 C 55.49 46.40 75.33 60.47 95.22 74.47 C 113.58 61.81 131.73 48.84 150.00 36.06 C 154.04 33.05 158.62 29.66 163.99 30.62 C 172.24 31.65 177.63 40.10 177.29 48.03 C 177.24 80.69 177.49 113.36 177.17 146.01 C 177.03 156.26 165.04 165.29 155.60 159.45 C 139.81 148.62 124.12 137.58 108.58 126.40 C 103.42 122.05 109.68 112.95 115.56 116.57 C 131.25 127.23 146.64 138.35 162.20 149.21 C 163.99 148.10 165.16 146.24 164.94 144.08 C 164.98 114.05 164.93 84.03 164.96 54.00 C 164.94 50.35 165.34 46.54 163.79 43.11 C 160.60 42.83 158.35 45.33 155.91 46.94 C 139.33 58.59 122.76 70.26 106.17 81.89 C 114.33 89.15 114.42 103.84 105.22 110.25 C 81.91 126.60 58.71 143.11 35.31 159.30 C 25.88 165.38 13.59 156.39 13.51 146.00 C 13.36 112.67 13.40 79.33 13.49 46.00 M 27.18 42.90 C 26.22 44.80 25.42 46.81 25.61 48.99 C 25.66 80.66 25.58 112.34 25.66 144.01 C 25.46 146.08 26.69 147.77 27.94 149.27 C 47.00 136.54 65.55 123.01 84.33 109.86 C 76.51 102.46 76.59 89.29 84.31 81.85 C 66.75 69.32 49.00 57.06 31.43 44.55 C 30.21 43.57 28.67 43.22 27.18 42.90 M 94.30 90.26 C 88.70 92.30 90.02 101.36 95.74 101.86 C 101.87 100.18 101.00 89.48 94.30 90.26 Z" />
</g>
</svg>
