<?xml version="1.0" encoding="UTF-8" ?>
<!DOCTYPE svg PUBLIC "-//W3C//DTD SVG 1.1//EN" "http://www.w3.org/Graphics/SVG/1.1/DTD/svg11.dtd">
<svg width="192pt" height="192pt" viewBox="0 0 192 192" version="1.1" xmlns="http://www.w3.org/2000/svg">
<g id="#607080ff">
<path fill="#607080" opacity="1.00" d=" M 40.53 65.57 C 51.64 46.54 78.99 41.57 97.34 52.65 C 108.83 58.91 116.25 70.70 118.40 83.45 C 126.71 85.99 134.14 92.29 135.83 101.13 C 140.00 115.37 127.80 131.00 113.06 130.84 C 88.71 131.37 64.29 131.42 39.94 130.78 C 25.26 130.82 12.00 117.77 12.07 103.04 C 11.41 90.26 20.71 78.05 33.12 75.08 C 37.81 74.37 38.03 68.72 40.53 65.57 M 48.79 74.85 C 53.36 76.72 58.09 78.86 61.35 82.70 C 64.01 85.76 62.09 91.49 57.86 91.72 C 53.35 92.25 50.68 87.81 46.94 86.15 C 37.06 81.07 24.27 89.80 23.55 100.44 C 22.23 110.31 31.09 119.77 40.95 119.51 C 65.23 119.45 89.53 119.73 113.79 119.37 C 125.71 118.67 129.35 100.04 117.80 95.79 C 116.82 98.79 116.54 102.69 113.46 104.38 C 109.91 106.80 104.55 103.22 105.20 99.04 C 105.93 94.70 107.69 90.48 107.30 86.00 C 106.73 75.27 98.83 66.16 89.64 61.34 C 75.41 53.98 55.08 59.47 48.79 74.85 Z" />
<path fill="#607080" opacity="1.00" d=" M 160.23 74.26 C 162.81 73.15 165.87 74.28 167.40 76.56 C 179.46 94.58 179.76 120.11 166.76 137.74 C 164.14 140.76 158.28 139.87 157.11 135.89 C 155.95 132.02 158.99 128.84 160.54 125.61 C 167.33 112.75 166.38 96.57 158.68 84.32 C 156.39 81.29 155.95 75.73 160.23 74.26 Z" />
<path fill="#607080" opacity="1.00" d=" M 144.39 82.42 C 146.32 82.08 148.42 82.75 149.52 84.44 C 158.75 97.15 159.06 115.94 149.68 128.64 C 147.06 132.80 140.26 131.37 139.37 126.63 C 138.88 121.93 143.13 118.51 144.12 114.11 C 146.83 106.17 144.22 97.79 140.20 90.82 C 138.01 87.50 140.19 82.38 144.39 82.42 Z" />
</g>
</svg>
