<?xml version="1.0" encoding="UTF-8" ?>
<!DOCTYPE svg PUBLIC "-//W3C//DTD SVG 1.1//EN" "http://www.w3.org/Graphics/SVG/1.1/DTD/svg11.dtd">
<svg width="192pt" height="192pt" viewBox="0 0 192 192" version="1.1" xmlns="http://www.w3.org/2000/svg">
<g id="#1cb4ffff">
<path fill="#1cb4ff" opacity="1.00" d=" M 72.14 43.17 C 102.46 35.53 132.80 27.93 163.13 20.31 C 166.84 18.83 171.17 21.97 170.81 25.96 C 170.87 56.99 170.90 88.03 170.83 119.06 C 170.82 133.47 158.42 146.33 144.06 147.04 C 132.63 147.89 121.08 141.12 116.29 130.70 C 110.53 118.99 113.96 103.35 124.63 95.65 C 130.67 91.75 137.93 90.04 145.04 89.58 C 149.57 89.18 152.49 95.15 149.61 98.56 C 147.65 101.41 143.90 100.51 140.98 100.83 C 133.28 101.17 126.44 107.42 125.13 114.98 C 123.38 123.12 128.46 131.98 136.33 134.67 C 144.35 137.79 154.36 133.76 157.83 125.86 C 159.42 121.78 159.63 117.33 159.69 113.00 C 159.71 86.31 159.54 59.62 159.52 32.92 C 132.49 39.56 105.50 46.38 78.53 53.23 C 78.61 82.81 78.57 112.40 78.57 141.98 C 78.55 154.21 69.79 165.77 58.00 169.05 C 45.25 173.15 30.32 166.59 24.43 154.62 C 18.04 142.69 21.62 126.58 32.53 118.55 C 42.45 110.60 57.08 111.07 67.33 118.18 C 67.41 95.12 67.30 72.05 67.40 48.98 C 67.20 46.15 69.38 43.64 72.14 43.17 M 45.35 124.52 C 37.06 126.67 31.28 135.52 32.74 143.99 C 33.87 152.65 42.26 159.63 51.03 158.84 C 60.84 158.52 68.85 148.69 67.25 139.01 C 66.14 128.95 55.09 121.43 45.35 124.52 Z" />
</g>
</svg>
