<?xml version="1.0" encoding="UTF-8" ?>
<!DOCTYPE svg PUBLIC "-//W3C//DTD SVG 1.1//EN" "http://www.w3.org/Graphics/SVG/1.1/DTD/svg11.dtd">
<svg width="192pt" height="192pt" viewBox="0 0 192 192" version="1.1" xmlns="http://www.w3.org/2000/svg">
<g id="#19b0ffff">
<path fill="#19b0ff" opacity="1.00" d=" M 21.12 37.93 C 21.10 28.54 29.70 20.44 39.02 20.71 C 71.34 20.67 103.66 20.63 135.97 20.71 C 142.86 20.54 149.17 25.97 150.27 32.72 C 150.78 36.54 150.45 40.42 150.54 44.27 C 160.20 43.24 169.60 51.12 169.79 60.91 C 169.95 93.29 169.86 125.68 169.87 158.06 C 170.23 164.56 164.54 170.63 158.01 170.53 C 117.00 170.58 76.00 170.55 34.99 170.51 C 27.39 170.62 20.71 163.63 21.06 156.05 C 21.07 116.68 21.02 77.30 21.12 37.93 M 37.41 32.66 C 30.61 32.91 30.62 44.12 37.42 44.34 C 71.12 44.53 104.84 44.35 138.55 44.40 C 137.84 40.65 140.94 32.73 135.02 32.60 C 102.49 32.63 69.94 32.45 37.41 32.66 M 33.07 60.96 C 33.10 92.66 33.03 124.37 33.11 156.08 C 32.74 158.46 35.20 158.72 36.93 158.61 C 77.23 158.59 117.53 158.58 157.83 158.59 C 157.87 126.37 157.90 94.15 157.83 61.94 C 158.00 58.86 155.25 55.87 152.07 56.36 C 113.36 56.38 74.65 56.30 35.95 56.38 C 33.34 55.95 32.94 59.07 33.07 60.96 Z" />
<path fill="#19b0ff" opacity="1.00" d=" M 106.99 113.19 C 117.40 113.14 128.48 112.18 138.50 113.64 C 138.44 119.12 132.51 123.85 130.62 129.27 C 131.84 135.07 139.07 139.31 138.33 145.50 C 127.78 145.43 117.22 145.61 106.67 145.39 C 106.65 139.23 112.70 134.72 114.89 129.08 C 112.45 123.71 107.87 119.12 106.99 113.19 Z" />
<path fill="#19b0ff" opacity="1.00" d=" M 51.92 115.04 C 53.16 113.26 54.90 114.98 56.15 115.79 C 59.72 118.48 63.14 121.38 66.92 123.78 C 71.55 120.80 75.95 117.47 80.61 114.55 C 81.84 113.33 83.91 114.42 83.57 116.13 C 83.66 125.29 83.75 134.47 83.53 143.62 C 83.59 145.49 81.22 145.04 80.03 145.20 C 71.34 145.12 62.65 145.32 53.97 145.10 C 51.01 145.41 51.81 141.85 51.66 140.00 C 51.87 131.68 51.37 123.34 51.92 115.04 Z" />
<path fill="#19b0ff" opacity="1.00" d=" M 90.88 127.11 C 93.60 127.12 96.31 127.14 99.03 127.22 C 99.74 133.17 99.47 139.20 99.23 145.17 C 96.28 145.40 93.27 145.63 90.39 144.79 C 90.57 138.91 89.71 132.92 90.88 127.11 Z" />
</g>
</svg>
