<?xml version="1.0" encoding="UTF-8" ?>
<!DOCTYPE svg PUBLIC "-//W3C//DTD SVG 1.1//EN" "http://www.w3.org/Graphics/SVG/1.1/DTD/svg11.dtd">
<svg width="192pt" height="192pt" viewBox="0 0 192 192" version="1.1" xmlns="http://www.w3.org/2000/svg">
<g id="#6ab8baff">
<path fill="#6ab8ba" opacity="1.00" d=" M 20.18 43.95 C 19.94 28.71 35.70 18.19 49.99 20.73 C 82.32 20.77 114.64 20.65 146.97 20.76 C 159.27 20.73 170.18 31.71 170.13 44.01 C 170.14 54.00 170.41 64.02 169.99 73.99 C 169.07 79.76 159.86 79.75 158.99 73.98 C 158.48 63.97 159.01 53.93 158.76 43.91 C 158.70 37.36 152.57 31.72 146.05 32.11 C 112.02 32.12 77.99 32.11 43.96 32.12 C 37.05 31.67 30.93 38.11 31.38 44.94 C 31.41 78.98 31.34 113.02 31.39 147.06 C 31.15 153.75 37.25 159.76 43.93 159.48 C 77.97 159.47 112.02 159.45 146.06 159.45 C 152.79 159.81 159.00 153.84 158.79 147.08 C 158.78 131.87 158.90 116.65 158.72 101.43 C 122.48 101.42 86.23 101.53 49.99 101.35 C 43.98 101.48 42.52 92.06 48.30 90.42 C 57.61 89.71 67.02 90.33 76.37 90.10 C 76.34 80.58 74.59 68.49 84.35 62.83 C 82.98 60.65 80.31 56.31 84.73 56.01 C 85.79 57.70 86.87 59.36 87.95 61.04 C 92.59 60.20 97.37 60.00 101.98 61.15 C 103.26 59.45 104.10 57.22 105.99 56.11 C 109.84 56.67 106.85 60.84 105.88 62.82 C 115.55 68.49 113.83 80.41 113.76 89.88 C 130.53 90.34 147.32 89.90 164.09 90.07 C 167.34 89.83 170.33 92.67 170.13 95.95 C 170.21 113.31 170.25 130.67 170.10 148.03 C 169.88 160.09 159.14 170.73 147.06 170.71 C 112.36 170.74 77.65 170.73 42.95 170.67 C 30.63 170.60 19.82 159.35 20.18 147.04 C 20.21 112.68 20.06 78.31 20.18 43.95 M 87.26 67.47 C 84.64 67.80 85.66 71.57 88.03 71.53 C 90.14 70.61 89.75 66.93 87.26 67.47 M 102.25 67.47 C 99.70 67.77 100.59 71.67 103.03 71.53 C 105.06 70.54 104.75 67.00 102.25 67.47 Z" />
</g>
</svg>
