<?xml version="1.0" encoding="UTF-8" ?>
<!DOCTYPE svg PUBLIC "-//W3C//DTD SVG 1.1//EN" "http://www.w3.org/Graphics/SVG/1.1/DTD/svg11.dtd">
<svg width="192pt" height="192pt" viewBox="0 0 192 192" version="1.1" xmlns="http://www.w3.org/2000/svg">
<g id="#18adffff">
<path fill="#18adff" opacity="1.00" d=" M 16.12 32.93 C 16.18 28.39 22.51 26.08 25.55 29.41 C 48.84 51.19 72.08 73.03 95.35 94.84 C 119.03 73.07 142.24 50.74 165.88 28.92 C 169.47 25.88 175.46 29.30 174.85 33.92 C 174.80 75.59 175.03 117.27 174.77 158.93 C 174.00 164.86 164.52 164.94 163.70 158.99 C 163.31 121.57 163.77 84.11 163.48 46.68 C 142.04 66.50 120.89 86.66 99.51 106.55 C 97.42 108.87 93.56 108.91 91.44 106.61 C 70.04 86.59 48.71 66.50 27.34 46.46 C 27.19 83.99 27.45 121.52 27.22 159.05 C 26.17 165.35 15.93 164.51 16.08 158.07 C 16.04 116.36 16.03 74.64 16.12 32.93 Z" />
</g>
</svg>
