<?xml version="1.0" encoding="UTF-8" ?>
<!DOCTYPE svg PUBLIC "-//W3C//DTD SVG 1.1//EN" "http://www.w3.org/Graphics/SVG/1.1/DTD/svg11.dtd">
<svg width="192pt" height="192pt" viewBox="0 0 192 192" version="1.1" xmlns="http://www.w3.org/2000/svg">
<g id="#18b7c5ff">
<path fill="#18b7c5" opacity="1.00" d=" M 40.31 21.38 C 43.81 20.57 47.43 20.74 51.00 20.73 C 83.34 20.78 115.67 20.68 148.00 20.77 C 159.79 20.81 170.27 31.20 170.59 42.94 C 170.54 48.41 171.10 53.96 170.27 59.36 C 168.58 64.05 161.03 63.81 159.80 58.92 C 158.94 53.21 160.06 47.38 159.22 41.67 C 158.11 35.65 152.03 31.43 146.03 31.82 C 112.67 31.85 79.30 31.76 45.93 31.83 C 40.01 31.78 34.37 36.47 33.66 42.40 C 33.13 47.90 34.00 53.47 33.24 58.95 C 31.96 63.78 24.43 64.02 22.80 59.33 C 21.95 54.26 22.58 49.05 22.44 43.92 C 22.33 33.48 30.15 23.68 40.31 21.38 Z" />
<path fill="#18b7c5" opacity="1.00" d=" M 40.04 70.83 C 42.59 70.81 45.14 70.86 47.69 70.93 C 48.92 76.46 49.82 82.06 51.07 87.59 C 54.01 82.28 56.46 76.71 59.32 71.36 C 61.88 71.35 64.45 71.33 67.01 71.34 C 66.66 77.93 65.81 84.48 65.32 91.05 C 64.75 93.53 67.20 94.93 68.58 96.54 C 65.35 96.53 62.13 96.53 58.91 96.50 C 59.33 90.60 60.30 84.75 60.49 78.84 C 57.40 84.68 54.89 90.79 51.90 96.69 C 50.38 96.63 48.86 96.60 47.34 96.57 C 46.04 90.35 45.10 84.07 43.80 77.85 C 42.43 84.02 41.79 90.33 40.34 96.49 C 36.46 96.50 32.57 96.47 28.70 96.30 C 31.04 94.73 33.60 93.44 35.72 91.57 C 37.80 84.83 38.37 77.69 40.04 70.83 Z" />
<path fill="#18b7c5" opacity="1.00" d=" M 79.41 71.41 C 89.17 69.70 95.10 81.76 90.74 89.67 C 87.77 98.34 74.68 99.81 69.57 92.42 C 64.26 84.51 69.66 72.09 79.41 71.41 M 77.39 76.29 C 72.29 79.83 71.17 89.73 77.22 92.80 C 84.64 95.06 88.72 85.01 85.63 79.43 C 84.37 76.37 80.37 74.19 77.39 76.29 Z" />
<path fill="#18b7c5" opacity="1.00" d=" M 122.42 71.33 C 124.31 71.35 126.20 71.38 128.10 71.41 C 129.06 78.15 129.39 84.96 130.21 91.72 C 133.38 91.72 136.55 91.67 139.72 91.69 C 139.92 93.36 140.13 95.03 140.34 96.70 C 135.13 96.75 129.93 96.85 124.73 96.81 C 123.86 88.33 123.09 79.83 122.42 71.33 Z" />
<path fill="#18b7c5" opacity="1.00" d=" M 137.77 71.43 C 142.60 71.20 147.43 70.98 152.27 70.90 C 152.48 72.32 152.71 73.75 152.95 75.17 C 150.04 75.57 147.10 75.71 144.17 75.81 C 144.39 77.48 144.61 79.14 144.84 80.81 C 147.67 80.90 150.51 80.93 153.35 80.87 C 153.56 82.46 153.77 84.06 153.97 85.65 C 151.34 85.66 148.70 85.69 146.06 85.67 C 146.14 87.52 146.22 89.37 146.31 91.22 C 152.71 90.33 158.72 92.11 163.51 96.44 C 156.09 96.72 148.66 96.80 141.24 96.73 C 139.98 88.31 138.81 79.88 137.77 71.43 Z" />
<path fill="#18b7c5" opacity="1.00" d=" M 94.16 72.05 C 98.85 72.24 103.76 71.31 108.28 72.79 C 112.51 74.86 112.00 80.66 108.29 83.01 C 112.02 84.63 114.87 89.39 112.05 93.08 C 107.82 98.65 100.08 96.34 94.12 96.58 C 93.75 88.41 93.95 80.22 94.16 72.05 M 99.70 75.10 C 99.72 77.32 99.78 79.54 99.89 81.76 C 101.79 81.24 105.25 81.71 105.37 78.95 C 106.24 75.51 102.01 75.30 99.70 75.10 M 99.89 85.50 C 99.86 88.00 99.85 90.50 99.84 93.00 C 102.34 92.99 106.45 93.31 106.72 89.86 C 107.07 86.09 102.72 85.41 99.89 85.50 Z" />
<path fill="#18b7c5" opacity="1.00" d=" M 112.23 71.96 C 115.12 71.96 118.01 71.97 120.90 71.96 C 119.22 79.96 119.52 89.25 123.21 96.71 C 119.88 96.72 116.55 96.71 113.21 96.72 C 115.99 88.92 114.74 79.70 112.23 71.96 Z" />
<path fill="#18b7c5" opacity="1.00" d=" M 33.93 98.11 C 37.93 98.15 41.93 98.19 45.93 98.08 C 42.64 103.71 42.90 110.48 41.91 116.74 C 44.59 116.77 47.27 116.81 49.96 116.82 C 49.77 118.37 49.58 119.93 49.41 121.49 C 44.75 121.66 40.08 121.80 35.42 121.76 C 36.53 115.13 37.62 108.50 38.60 101.85 C 37.05 100.59 35.49 99.35 33.93 98.11 Z" />
<path fill="#18b7c5" opacity="1.00" d=" M 53.71 98.70 C 57.57 98.75 61.44 98.83 65.30 98.91 C 65.11 100.18 64.92 101.44 64.74 102.71 C 62.41 102.74 60.09 102.71 57.76 102.73 C 57.67 103.70 57.50 105.66 57.41 106.64 C 59.50 106.69 61.59 106.72 63.68 106.77 C 63.51 108.04 63.35 109.33 63.21 110.61 C 61.05 110.66 58.90 110.67 56.74 110.71 C 56.60 112.08 56.45 113.46 56.27 114.83 C 58.77 114.88 61.28 114.98 63.78 115.06 C 63.63 116.43 63.50 117.80 63.38 119.18 C 59.23 119.23 55.08 119.22 50.93 119.10 C 51.85 112.30 52.65 105.48 53.71 98.70 Z" />
<path fill="#18b7c5" opacity="1.00" d=" M 69.82 100.77 C 73.38 97.92 78.16 98.68 82.36 98.87 C 82.36 100.42 82.36 101.96 82.38 103.51 C 77.37 100.23 69.13 103.25 70.06 109.96 C 69.71 114.35 74.49 115.66 77.98 115.03 C 78.07 113.77 78.19 112.50 78.32 111.24 C 77.34 111.16 75.40 111.00 74.43 110.92 C 74.46 109.52 74.48 108.12 74.48 106.73 C 77.29 106.72 80.10 106.74 82.91 106.80 C 82.82 110.36 82.67 113.91 82.50 117.47 C 77.96 119.35 72.12 120.43 68.03 117.00 C 63.38 112.63 64.67 104.22 69.82 100.77 Z" />
<path fill="#18b7c5" opacity="1.00" d=" M 85.94 98.88 C 89.72 98.87 93.51 98.93 97.29 98.90 C 97.29 99.75 97.28 101.47 97.27 102.32 C 95.01 102.37 92.74 102.38 90.47 102.43 C 90.45 103.83 90.43 105.22 90.39 106.62 C 92.43 106.63 94.47 106.62 96.51 106.62 C 96.57 107.93 96.66 109.23 96.76 110.53 C 94.67 110.53 92.58 110.51 90.49 110.51 C 90.46 111.85 90.42 113.19 90.37 114.53 C 92.84 114.66 95.31 114.87 97.79 114.95 C 97.75 116.18 97.72 117.40 97.71 118.63 C 93.59 118.85 89.48 119.05 85.36 119.10 C 85.46 112.35 85.73 105.62 85.94 98.88 Z" />
<path fill="#18b7c5" opacity="1.00" d=" M 99.69 98.86 C 101.21 98.85 102.74 98.84 104.27 98.83 C 107.52 103.07 110.45 107.55 113.65 111.84 C 113.45 107.56 113.14 103.28 112.96 99.00 C 114.35 98.96 115.75 98.93 117.14 98.88 C 117.60 105.51 118.11 112.13 118.52 118.75 C 116.86 118.72 115.19 118.69 113.53 118.66 C 110.38 114.18 107.25 109.68 104.09 105.21 C 104.12 109.65 104.23 114.08 104.35 118.52 C 102.80 118.48 101.25 118.44 99.70 118.42 C 99.66 111.90 99.68 105.38 99.69 98.86 Z" />
<path fill="#18b7c5" opacity="1.00" d=" M 120.37 98.86 C 126.15 98.89 133.97 97.67 137.39 103.62 C 139.20 107.96 139.93 114.53 135.58 117.60 C 131.35 119.55 126.49 118.56 121.99 118.63 C 121.34 112.05 120.87 105.45 120.37 98.86 M 125.37 102.38 C 125.54 106.58 125.89 110.76 126.44 114.93 C 129.72 115.33 134.39 114.16 134.03 109.98 C 134.68 105.01 129.84 102.03 125.37 102.38 Z" />
<path fill="#18b7c5" opacity="1.00" d=" M 139.63 101.64 C 144.21 96.06 152.97 99.79 159.25 98.78 C 157.19 100.56 155.11 102.31 152.97 103.99 C 150.11 102.65 146.78 101.87 144.01 103.91 C 146.37 107.85 151.57 108.21 154.38 111.65 C 156.16 114.19 156.28 118.52 153.32 120.26 C 149.73 122.35 145.41 121.42 141.69 120.24 C 141.45 118.57 141.21 116.91 140.97 115.25 C 144.16 116.70 148.82 118.93 151.14 114.94 C 146.93 110.89 137.05 109.60 139.63 101.64 Z" />
<path fill="#18b7c5" opacity="1.00" d=" M 26.31 130.30 C 29.27 129.32 32.81 131.34 33.31 134.45 C 33.91 138.94 33.18 143.50 33.70 148.00 C 34.50 153.85 40.06 158.57 45.98 158.32 C 79.66 158.33 113.34 158.32 147.02 158.29 C 152.55 158.52 157.80 154.45 159.08 149.09 C 160.23 143.87 158.65 138.39 160.05 133.22 C 161.84 128.81 168.88 129.14 170.29 133.67 C 171.08 138.37 170.62 143.22 170.57 147.97 C 169.93 159.85 158.94 169.86 147.06 169.55 C 113.36 169.58 79.66 169.55 45.96 169.54 C 36.84 169.70 28.05 163.94 24.43 155.60 C 21.56 149.48 22.52 142.55 22.43 136.01 C 22.25 133.49 23.85 131.00 26.31 130.30 Z" />
</g>
</svg>
