<?xml version="1.0" encoding="UTF-8" ?>
<!DOCTYPE svg PUBLIC "-//W3C//DTD SVG 1.1//EN" "http://www.w3.org/Graphics/SVG/1.1/DTD/svg11.dtd">
<svg width="192pt" height="192pt" viewBox="0 0 192 192" version="1.1" xmlns="http://www.w3.org/2000/svg">
<g id="#ff633bff">
<path fill="#ff633b" opacity="1.00" d=" M 19.49 63.57 C 30.94 35.19 59.37 14.64 89.98 12.99 C 119.73 10.66 149.72 26.38 165.24 51.76 C 175.99 68.92 180.02 90.11 176.31 110.02 C 172.07 134.19 156.23 155.98 134.60 167.54 C 129.90 170.30 123.36 166.40 123.34 161.02 C 123.11 135.67 123.47 110.31 123.17 84.96 C 123.85 74.25 104.90 72.98 103.46 83.13 C 102.65 96.37 103.85 109.71 102.87 122.92 C 101.30 130.69 88.86 130.42 87.68 122.58 C 87.02 109.74 87.86 96.84 87.28 83.99 C 87.02 73.76 68.62 73.02 67.53 83.15 C 66.84 96.38 68.00 109.71 67.03 122.92 C 65.52 130.50 53.39 130.55 51.82 122.97 C 51.09 111.02 51.74 98.98 51.50 86.99 C 51.32 78.66 54.54 69.39 62.42 65.45 C 72.59 60.47 85.07 61.25 95.02 66.40 C 106.08 61.81 119.58 60.09 130.26 66.75 C 136.48 70.96 138.88 78.81 139.15 85.98 C 139.25 106.95 139.00 127.92 139.27 148.88 C 142.27 149.52 144.06 146.74 145.97 144.97 C 160.46 130.45 167.98 109.43 166.09 89.01 C 163.95 57.51 138.22 29.70 107.01 25.04 C 77.74 19.81 46.42 35.32 32.80 61.73 C 21.89 81.88 21.74 107.34 32.35 127.65 C 44.83 152.68 73.16 168.65 101.07 165.94 C 104.68 165.94 109.16 163.82 112.08 166.91 C 114.89 169.57 113.77 175.01 109.97 176.09 C 76.88 182.84 40.90 166.02 24.35 136.67 C 11.50 114.81 9.67 86.94 19.49 63.57 Z" />
</g>
</svg>
