<?xml version="1.0" encoding="UTF-8" ?>
<!DOCTYPE svg PUBLIC "-//W3C//DTD SVG 1.1//EN" "http://www.w3.org/Graphics/SVG/1.1/DTD/svg11.dtd">
<svg width="192pt" height="192pt" viewBox="0 0 192 192" version="1.1" xmlns="http://www.w3.org/2000/svg">
<g id="#1ab1ffff">
<path fill="#1ab1ff" opacity="1.00" d=" M 103.18 19.22 C 110.37 17.75 117.82 17.45 125.16 17.18 C 125.42 21.20 125.42 25.35 124.17 29.23 C 117.14 28.04 109.79 28.20 102.98 26.06 C 99.57 25.07 99.60 19.90 103.18 19.22 Z" />
<path fill="#1ab1ff" opacity="1.00" d=" M 128.91 16.75 C 139.58 16.71 150.63 15.48 160.92 18.98 C 166.62 20.87 171.12 25.68 172.49 31.55 C 175.25 42.45 175.36 53.82 175.22 65.00 C 175.07 72.91 175.89 81.01 173.76 88.73 C 172.96 91.66 168.10 91.53 167.30 88.65 C 162.08 72.39 164.19 52.95 152.98 39.02 C 146.55 32.37 136.77 32.17 128.50 29.51 C 127.68 25.34 128.88 20.99 128.91 16.75 Z" />
<path fill="#1ab1ff" opacity="1.00" d=" M 64.38 19.53 C 70.27 18.18 73.40 27.34 67.96 29.90 C 53.09 36.73 40.42 48.50 33.19 63.26 C 23.46 82.42 23.21 106.05 32.56 125.40 C 45.28 153.01 77.03 170.08 107.09 165.10 C 130.85 161.87 152.03 145.59 161.80 123.77 C 164.24 118.29 173.38 121.07 172.35 127.02 C 159.53 159.87 122.98 180.97 88.08 176.71 C 53.72 173.59 23.37 146.45 16.39 112.67 C 7.37 75.42 28.71 33.63 64.38 19.53 Z" />
<path fill="#1ab1ff" opacity="1.00" d=" M 63.89 67.98 C 63.80 65.82 63.97 62.42 67.00 62.69 C 71.04 62.93 77.17 60.94 79.25 65.67 C 85.31 77.97 91.20 90.35 97.26 102.64 C 103.43 90.28 109.30 77.78 115.43 65.41 C 116.97 61.54 121.75 62.78 125.00 62.56 C 127.31 62.34 130.75 62.86 130.28 65.98 C 130.39 85.65 130.36 105.34 130.30 125.02 C 130.68 129.16 125.71 128.44 123.00 128.48 C 120.74 128.35 116.81 129.06 116.50 125.86 C 116.12 114.01 116.61 102.14 116.26 90.29 C 111.04 100.17 106.39 110.35 101.29 120.30 C 99.95 123.60 93.91 123.50 92.82 120.06 C 87.77 110.12 83.12 99.99 77.93 90.12 C 77.60 102.04 78.09 113.98 77.70 125.89 C 77.37 129.17 73.29 128.30 71.00 128.47 C 68.34 128.47 63.60 129.08 63.96 125.04 C 63.80 106.02 63.95 87.00 63.89 67.98 Z" />
</g>
</svg>
