<?xml version="1.0" encoding="UTF-8" ?>
<!DOCTYPE svg PUBLIC "-//W3C//DTD SVG 1.1//EN" "http://www.w3.org/Graphics/SVG/1.1/DTD/svg11.dtd">
<svg width="192pt" height="192pt" viewBox="0 0 192 192" version="1.1" xmlns="http://www.w3.org/2000/svg">
<g id="#19afffff">
<path fill="#19afff" opacity="1.00" d=" M 93.41 14.53 C 96.81 12.58 100.04 15.40 102.28 17.72 C 116.89 31.46 137.18 37.76 156.99 37.64 C 160.76 37.04 164.63 39.99 164.20 43.98 C 164.40 66.24 165.84 88.84 160.78 110.71 C 157.32 126.06 150.16 140.76 139.12 152.08 C 128.82 162.93 115.57 170.53 101.68 175.81 C 99.25 176.63 96.65 178.19 94.04 177.17 C 77.85 171.64 62.39 162.92 50.90 150.06 C 39.79 137.84 33.15 122.11 30.15 105.99 C 26.25 85.21 27.54 63.97 27.78 42.96 C 27.88 38.21 33.23 37.18 37.01 37.60 C 57.98 37.68 78.49 29.20 93.41 14.53 M 38.92 48.95 C 38.47 77.42 36.44 108.51 52.40 133.61 C 62.35 149.29 78.74 159.75 95.99 165.85 C 118.95 158.03 139.86 141.08 147.26 117.32 C 154.63 95.30 153.33 71.70 152.86 48.83 C 132.15 48.33 111.45 41.10 95.91 27.20 C 80.41 41.25 59.60 48.13 38.92 48.95 Z" />
<path fill="#19afff" opacity="1.00" d=" M 85.67 62.64 C 87.61 56.38 95.22 58.69 100.07 58.50 C 104.23 57.89 108.68 61.44 107.73 65.84 C 106.23 71.34 104.04 76.62 102.26 82.03 C 108.82 80.81 115.23 78.91 121.78 77.63 C 111.73 97.72 101.70 117.93 90.78 137.54 C 92.26 125.86 94.77 114.33 96.52 102.69 C 91.29 104.37 86.14 106.30 80.90 107.93 C 79.29 108.68 77.10 106.80 77.71 105.08 C 80.27 90.92 82.86 76.75 85.67 62.64 Z" />
</g>
</svg>
