<?xml version="1.0" encoding="UTF-8" ?>
<!DOCTYPE svg PUBLIC "-//W3C//DTD SVG 1.1//EN" "http://www.w3.org/Graphics/SVG/1.1/DTD/svg11.dtd">
<svg width="192pt" height="192pt" viewBox="0 0 192 192" version="1.1" xmlns="http://www.w3.org/2000/svg">
<g id="#26c1d2ff">
<path fill="#26c1d2" opacity="1.00" d=" M 88.67 65.96 C 86.75 49.55 101.56 33.99 117.99 34.72 C 134.87 34.35 149.67 51.25 146.35 67.96 C 143.55 79.49 137.23 89.75 131.19 99.82 C 140.87 108.14 150.75 116.23 160.55 124.43 C 165.42 126.71 173.39 122.41 176.35 128.65 C 177.23 135.71 176.50 142.93 176.73 150.06 C 177.20 153.37 174.37 156.58 171.01 156.46 C 164.34 156.53 157.66 156.55 150.99 156.46 C 147.67 156.46 145.08 153.22 145.37 150.00 C 145.57 142.46 144.87 134.86 145.86 127.36 C 138.83 121.53 131.79 115.72 124.76 109.89 C 122.93 112.10 121.33 115.37 118.02 115.38 C 113.86 115.79 111.92 111.45 109.85 108.65 C 99.33 116.47 89.44 125.13 79.06 133.15 C 76.67 135.16 72.88 134.37 71.03 132.00 C 56.64 115.24 42.40 98.33 27.97 81.60 C 23.41 81.19 16.49 83.34 14.43 77.70 C 13.71 70.83 14.29 63.85 14.11 56.94 C 13.64 53.54 16.43 50.01 19.98 50.28 C 27.17 50.40 34.43 49.90 41.59 50.55 C 47.12 52.62 45.17 59.46 45.49 64.00 C 44.86 69.65 47.31 76.36 43.01 80.98 C 54.00 94.13 65.28 107.05 76.34 120.15 C 85.41 113.17 94.16 105.78 103.15 98.69 C 97.64 88.15 90.65 77.92 88.67 65.96 M 100.84 67.24 C 104.61 78.64 111.28 88.77 117.50 98.94 C 124.09 89.31 130.15 79.11 134.20 68.13 C 137.88 57.85 128.63 46.26 117.99 46.45 C 107.40 45.84 97.85 56.86 100.84 67.24 M 25.72 61.78 C 25.67 64.49 25.67 67.20 25.69 69.91 C 28.39 70.10 31.10 70.14 33.80 70.03 C 33.83 67.28 33.81 64.54 33.74 61.79 C 31.07 61.75 28.39 61.74 25.72 61.78 M 157.14 136.72 C 157.09 139.41 157.07 142.10 157.08 144.79 C 159.78 144.81 162.47 144.82 165.17 144.81 C 165.20 142.11 165.20 139.42 165.15 136.73 C 162.48 136.70 159.81 136.70 157.14 136.72 Z" />
</g>
</svg>
