<?xml version="1.0" encoding="UTF-8" ?>
<!DOCTYPE svg PUBLIC "-//W3C//DTD SVG 1.1//EN" "http://www.w3.org/Graphics/SVG/1.1/DTD/svg11.dtd">
<svg width="192pt" height="192pt" viewBox="0 0 192 192" version="1.1" xmlns="http://www.w3.org/2000/svg">
<g id="#1ab1ffff">
<path fill="#1ab1ff" opacity="1.00" d=" M 48.67 31.43 C 49.84 23.27 58.06 17.64 66.00 17.75 C 85.00 17.74 104.00 17.72 123.00 17.75 C 130.78 17.74 138.66 23.13 140.14 31.03 C 140.85 36.33 140.33 41.70 140.46 47.04 C 146.26 47.31 152.09 46.85 157.89 47.32 C 168.09 48.37 176.69 57.62 176.81 67.92 C 176.94 83.29 176.84 98.66 176.87 114.03 C 177.12 121.02 173.89 128.13 168.04 132.08 C 164.83 134.21 159.96 131.86 159.68 128.00 C 158.93 123.02 165.51 120.99 165.23 116.00 C 165.57 100.35 165.31 84.67 165.37 69.00 C 165.71 63.33 160.73 58.24 155.07 58.45 C 114.69 58.40 74.31 58.41 33.94 58.42 C 28.23 58.12 23.00 63.17 23.32 68.93 C 23.41 84.83 23.04 100.75 23.51 116.63 C 24.76 125.19 34.64 125.80 41.46 125.03 C 41.66 118.93 41.06 112.77 41.82 106.70 C 43.28 97.71 51.97 91.09 60.93 91.23 C 83.31 91.20 105.70 91.17 128.08 91.21 C 138.18 91.07 147.38 99.87 147.44 110.02 C 147.52 123.34 147.53 136.66 147.44 149.98 C 147.27 160.05 138.05 168.63 128.06 168.52 C 105.69 168.58 83.32 168.56 60.95 168.51 C 52.34 168.60 43.98 162.58 42.03 154.06 C 40.88 148.30 41.72 142.36 41.43 136.53 C 36.75 136.43 31.92 137.01 27.38 135.56 C 18.66 132.86 11.96 124.31 12.09 115.07 C 12.05 99.35 12.02 83.63 12.12 67.91 C 12.16 57.60 20.85 48.20 31.11 47.33 C 36.87 46.96 42.65 47.28 48.41 47.14 C 48.55 41.91 48.13 36.65 48.67 31.43 M 64.31 29.43 C 56.56 31.52 60.58 41.36 59.63 47.13 C 82.74 47.18 105.86 47.13 128.98 47.13 C 128.03 41.32 132.18 30.86 123.90 29.34 C 104.05 29.23 84.15 29.04 64.31 29.43 M 57.40 103.48 C 54.05 104.86 52.63 108.56 52.83 111.98 C 52.86 124.33 52.77 136.69 52.89 149.05 C 52.61 153.46 56.57 157.19 60.92 156.99 C 83.30 157.06 105.70 157.04 128.09 156.96 C 132.33 157.12 136.30 153.42 135.96 149.08 C 136.01 136.36 136.02 123.63 135.96 110.91 C 136.31 106.52 132.34 102.67 128.03 102.70 C 106.36 102.58 84.68 102.72 63.00 102.62 C 61.11 102.65 59.13 102.62 57.40 103.48 Z" />
<path fill="#1ab1ff" opacity="1.00" d=" M 129.21 72.22 C 135.42 71.73 141.72 71.86 147.94 72.13 C 153.60 73.15 153.63 82.17 147.95 83.22 C 141.99 83.61 135.97 83.53 130.00 83.26 C 124.44 82.58 123.85 73.74 129.21 72.22 Z" />
<path fill="#1ab1ff" opacity="1.00" d=" M 66.41 117.56 C 84.52 116.80 102.76 117.27 120.91 117.29 C 127.23 117.30 127.84 127.64 121.65 128.51 C 103.82 128.85 85.96 128.61 68.12 128.61 C 62.02 128.87 60.58 119.18 66.41 117.56 Z" />
<path fill="#1ab1ff" opacity="1.00" d=" M 66.40 131.54 C 84.52 130.79 102.77 131.27 120.92 131.27 C 127.51 131.25 127.72 142.34 121.03 142.39 C 103.35 142.57 85.65 142.52 67.97 142.40 C 61.94 142.55 60.68 133.12 66.40 131.54 Z" />
</g>
</svg>
