<?xml version="1.0" encoding="UTF-8" ?>
<!DOCTYPE svg PUBLIC "-//W3C//DTD SVG 1.1//EN" "http://www.w3.org/Graphics/SVG/1.1/DTD/svg11.dtd">
<svg width="192pt" height="192pt" viewBox="0 0 192 192" version="1.1" xmlns="http://www.w3.org/2000/svg">
<g id="#ff623cff">
<path fill="#ff623c" opacity="1.00" d=" M 40.42 18.64 C 75.28 17.96 110.19 18.53 145.07 18.34 C 157.50 17.76 169.05 28.49 169.18 40.97 C 169.27 75.32 169.23 109.67 169.21 144.02 C 169.37 156.37 158.34 167.29 146.03 167.21 C 112.01 167.29 77.99 167.28 43.98 167.22 C 31.54 167.47 20.32 156.50 20.45 144.04 C 20.42 110.00 20.45 75.97 20.45 41.93 C 20.19 30.64 29.24 20.13 40.42 18.64 M 41.48 29.78 C 35.85 30.83 31.45 36.23 31.58 41.97 C 31.53 75.65 31.57 109.33 31.57 143.02 C 31.11 149.82 37.09 156.13 43.91 155.98 C 77.63 156.02 111.36 155.99 145.09 156.00 C 152.12 156.45 158.53 150.11 158.07 143.06 C 158.08 109.35 158.16 75.64 158.04 41.93 C 158.24 35.06 151.88 29.02 145.04 29.53 C 110.52 29.72 75.97 29.21 41.48 29.78 Z" />
<path fill="#ff623c" opacity="1.00" d=" M 58.27 42.09 C 62.07 41.93 65.88 41.93 69.68 42.09 C 69.86 55.23 69.79 68.38 69.73 81.52 C 65.89 81.64 62.05 81.63 58.21 81.51 C 58.15 68.37 58.07 55.23 58.27 42.09 Z" />
<path fill="#ff623c" opacity="1.00" d=" M 47.72 44.79 C 50.75 44.72 53.78 44.73 56.80 44.87 C 56.94 57.08 56.87 69.29 56.85 81.51 C 53.79 81.62 50.73 81.62 47.67 81.52 C 47.58 69.28 47.51 57.03 47.72 44.79 Z" />
<path fill="#ff623c" opacity="1.00" d=" M 72.11 48.54 C 76.11 48.09 80.12 47.77 84.13 47.56 C 85.27 58.70 86.38 69.86 87.15 81.04 C 83.17 81.44 79.17 81.74 75.17 81.92 C 74.04 70.80 72.80 59.69 72.11 48.54 Z" />
<path fill="#ff623c" opacity="1.00" d=" M 111.83 50.33 C 123.62 50.22 135.41 50.24 147.20 50.31 C 147.22 52.12 147.24 53.92 147.26 55.73 C 135.41 55.81 123.55 55.80 111.70 55.73 C 111.71 53.93 111.75 52.13 111.83 50.33 Z" />
<path fill="#ff623c" opacity="1.00" d=" M 111.76 59.18 C 123.57 59.09 135.37 59.11 147.18 59.16 C 147.22 61.00 147.24 62.85 147.25 64.69 C 135.41 64.83 123.57 64.83 111.73 64.69 C 111.72 62.85 111.73 61.01 111.76 59.18 Z" />
<path fill="#ff623c" opacity="1.00" d=" M 111.80 68.38 C 118.41 68.31 125.02 68.25 131.62 68.41 C 131.64 70.22 131.67 72.03 131.70 73.84 C 125.06 74.37 118.38 74.18 111.73 73.94 C 111.72 72.08 111.74 70.23 111.80 68.38 Z" />
<path fill="#ff623c" opacity="1.00" d=" M 92.79 97.99 C 94.00 98.00 95.20 98.00 96.41 98.00 C 96.61 99.16 96.81 100.31 97.01 101.46 C 100.21 102.22 103.31 103.34 106.14 105.01 C 105.06 107.74 103.82 110.41 102.46 113.01 C 99.25 111.18 95.37 108.97 91.66 110.71 C 89.69 111.87 89.99 115.14 92.31 115.68 C 97.64 117.83 105.32 118.11 107.35 124.60 C 110.50 132.94 103.86 141.98 95.26 142.67 C 95.12 144.75 95.02 146.83 94.94 148.91 C 93.60 148.90 92.26 148.89 90.92 148.88 C 90.86 146.87 90.80 144.86 90.75 142.85 C 85.68 142.35 80.74 140.53 77.08 136.89 C 78.73 134.12 80.49 131.41 82.33 128.76 C 85.66 131.60 89.89 135.24 94.58 133.55 C 97.83 132.60 97.77 127.35 94.36 126.68 C 88.61 124.64 79.92 123.40 79.28 115.83 C 77.90 107.95 85.11 102.11 92.35 101.50 C 92.50 100.33 92.65 99.16 92.79 97.99 Z" />
</g>
</svg>
