<?xml version="1.0" encoding="UTF-8" ?>
<!DOCTYPE svg PUBLIC "-//W3C//DTD SVG 1.1//EN" "http://www.w3.org/Graphics/SVG/1.1/DTD/svg11.dtd">
<svg width="192pt" height="192pt" viewBox="0 0 192 192" version="1.1" xmlns="http://www.w3.org/2000/svg">
<g id="#f6b12cff">
<path fill="#f6b12c" opacity="1.00" d=" M 22.10 43.94 C 21.89 31.71 32.78 20.68 45.02 20.77 C 79.34 20.73 113.66 20.71 147.98 20.76 C 160.20 20.73 170.99 31.75 170.82 43.94 C 170.89 77.98 170.89 112.02 170.84 146.06 C 171.14 158.35 160.34 169.46 148.06 169.51 C 114.02 169.61 79.97 169.52 45.93 169.53 C 37.56 169.69 29.30 165.06 25.20 157.74 C 21.48 151.55 21.76 144.01 22.24 137.08 C 22.53 134.44 25.19 133.26 27.28 132.25 C 44.28 124.66 60.71 115.88 77.43 107.72 C 73.74 98.27 67.28 88.46 70.18 77.94 C 70.96 71.68 69.20 65.08 72.07 59.12 C 74.96 52.66 76.88 43.87 84.63 41.66 C 91.57 39.84 98.86 38.82 106.03 39.20 C 117.89 41.10 128.23 51.80 128.96 63.94 C 129.84 70.30 129.70 76.86 128.12 83.10 C 125.43 91.34 126.46 100.19 127.02 108.68 C 137.92 114.20 148.75 119.84 159.68 125.28 C 159.64 98.16 159.76 71.04 159.64 43.92 C 159.70 37.29 153.58 31.67 147.03 31.85 C 113.35 31.79 79.65 31.79 45.97 31.82 C 39.39 31.60 33.10 37.21 33.28 43.92 C 33.12 66.95 33.46 90.00 33.12 113.02 C 33.01 119.58 22.25 119.61 22.17 113.06 C 21.93 90.03 22.10 66.98 22.10 43.94 M 111.81 47.65 C 113.57 47.95 115.34 48.29 117.14 48.21 C 116.99 46.13 114.96 45.29 113.59 44.09 C 112.98 45.27 112.39 46.45 111.81 47.65 M 108.14 55.32 C 106.45 57.61 105.63 60.35 104.91 63.06 C 106.92 62.34 108.93 61.61 110.96 60.91 C 112.15 57.06 113.52 53.25 114.57 49.35 C 110.93 49.12 108.97 52.25 108.14 55.32 M 120.36 64.09 C 120.22 69.71 118.22 75.40 119.65 80.95 C 114.48 92.60 105.17 104.00 106.71 117.38 C 104.13 119.15 101.51 120.90 99.06 122.86 C 99.96 124.27 100.66 125.91 102.09 126.89 C 107.50 123.57 111.60 118.42 115.43 113.43 C 120.66 107.05 119.69 98.32 121.40 90.71 C 125.74 88.07 126.32 82.60 127.00 78.05 C 127.49 71.11 127.74 63.87 125.48 57.19 C 122.59 57.53 121.21 61.56 120.36 64.09 M 76.76 61.92 C 78.35 61.66 78.14 58.82 76.80 58.34 C 75.23 58.63 75.20 61.56 76.76 61.92 M 115.23 69.07 C 114.99 69.66 114.52 70.84 114.28 71.43 C 112.71 71.31 111.14 71.19 109.57 71.08 C 108.72 72.88 107.81 74.65 106.90 76.42 C 114.98 79.49 118.01 67.53 112.85 62.78 C 113.19 65.02 114.22 67.06 115.23 69.07 M 75.33 64.84 C 74.53 66.45 73.78 68.09 73.04 69.72 C 73.69 69.92 75.00 70.31 75.65 70.51 C 76.00 71.39 76.35 72.27 76.71 73.16 C 76.60 70.34 77.17 67.25 75.33 64.84 M 100.17 83.55 C 101.26 80.23 101.82 76.71 101.17 73.24 C 99.59 76.42 98.71 80.16 100.17 83.55 M 110.28 80.38 C 107.84 83.51 113.32 86.76 111.03 90.05 C 107.17 96.76 106.80 106.92 98.13 109.35 C 97.84 113.67 97.73 118.00 97.62 122.33 C 98.89 121.31 100.19 120.32 101.50 119.36 C 101.53 118.70 101.56 118.05 101.59 117.40 C 104.42 115.72 107.42 109.63 102.83 108.61 C 104.59 107.46 106.32 106.12 106.96 104.02 C 110.09 95.96 114.30 88.40 118.38 80.80 C 117.59 79.68 116.80 78.57 116.00 77.46 C 113.89 77.93 111.19 78.00 110.28 80.38 M 71.77 79.26 C 71.23 86.10 73.68 92.68 76.09 98.95 C 78.00 102.83 80.34 107.70 85.23 108.08 C 86.47 104.87 90.58 102.36 93.13 105.80 C 96.39 110.74 103.66 106.45 104.77 101.76 C 106.42 95.66 113.31 88.99 107.83 83.03 C 108.41 81.73 108.98 80.42 109.55 79.12 C 101.97 80.00 101.46 88.65 95.78 91.94 C 90.12 92.40 80.33 95.01 78.99 86.99 C 79.04 82.57 75.84 80.08 71.77 79.26 M 84.92 115.66 C 84.15 116.76 83.36 117.84 82.56 118.92 C 84.36 122.09 86.01 125.96 89.65 127.36 C 93.09 127.93 96.61 127.55 100.08 127.67 C 99.38 126.18 98.69 124.67 98.04 123.16 C 95.54 125.29 92.17 125.72 89.01 125.16 C 86.00 123.00 85.70 118.99 84.92 115.66 M 33.19 142.31 C 31.96 149.73 36.84 158.30 44.99 158.28 C 79.66 158.28 114.36 158.50 149.02 158.15 C 158.78 157.19 160.91 146.10 159.66 138.09 C 150.30 133.20 140.87 128.42 131.44 123.66 C 129.73 130.96 130.07 142.49 120.05 143.18 C 110.20 142.12 96.21 147.40 90.12 136.87 C 86.52 131.06 82.50 125.43 79.87 119.09 C 64.30 126.80 48.80 134.67 33.19 142.31 Z" />
</g>
</svg>
