<?xml version="1.0" encoding="UTF-8" ?>
<!DOCTYPE svg PUBLIC "-//W3C//DTD SVG 1.1//EN" "http://www.w3.org/Graphics/SVG/1.1/DTD/svg11.dtd">
<svg width="192pt" height="192pt" viewBox="0 0 192 192" version="1.1" xmlns="http://www.w3.org/2000/svg">
<g id="#637ccaff">
<path fill="#637cca" opacity="1.00" d=" M 25.80 34.83 C 40.13 14.62 69.88 8.43 91.31 20.72 C 103.62 27.24 112.06 39.52 115.78 52.75 C 130.81 47.39 148.75 50.56 160.60 61.37 C 187.58 87.44 174.99 140.53 139.36 152.09 C 141.44 156.16 144.15 159.89 146.12 164.02 C 147.61 166.81 145.32 170.98 142.01 170.65 C 134.67 170.67 127.32 170.70 119.98 170.63 C 116.79 170.87 114.06 167.37 115.41 164.37 C 117.39 160.01 120.27 156.13 122.50 151.90 C 113.68 148.42 105.19 143.15 99.73 135.24 C 97.94 131.29 102.46 126.91 106.39 128.56 C 109.46 130.78 111.49 134.16 114.52 136.45 C 122.42 143.66 135.03 145.03 144.00 139.01 C 163.20 126.13 170.72 98.32 160.44 77.60 C 152.93 62.65 133.28 56.07 118.12 62.94 C 119.05 80.83 114.58 99.18 103.74 113.65 C 97.64 124.08 86.76 131.03 75.28 134.20 C 77.52 138.88 81.37 142.89 82.55 148.01 C 82.41 153.47 76.12 153.48 72.13 153.14 C 71.98 160.07 72.40 167.03 71.92 173.94 C 70.87 179.51 62.03 179.53 60.98 173.96 C 60.44 167.07 60.91 160.13 60.75 153.22 C 57.03 153.30 50.93 153.07 50.93 148.01 C 51.86 142.86 55.86 138.89 58.00 134.19 C 46.07 130.13 34.60 122.97 28.11 111.86 C 13.26 89.48 10.05 57.55 25.80 34.83 M 57.40 25.57 C 38.92 28.92 26.47 46.98 25.62 65.06 C 24.30 87.67 34.64 113.01 56.11 122.89 C 66.89 127.49 79.78 123.99 88.05 116.07 C 107.20 98.56 114.09 67.53 101.66 44.33 C 93.42 28.79 74.13 21.77 57.40 25.57 M 66.03 140.73 C 64.23 145.87 70.97 140.35 66.03 140.73 M 130.32 158.33 C 128.86 158.86 129.16 161.86 130.96 161.24 C 132.51 160.74 132.12 157.69 130.32 158.33 Z" />
<path fill="#637cca" opacity="1.00" d=" M 59.34 29.43 C 62.83 29.03 66.97 27.69 70.07 29.97 C 73.43 32.67 71.45 38.97 66.94 38.76 C 54.56 38.90 42.73 47.99 40.43 60.31 C 39.60 63.63 40.37 67.96 37.34 70.29 C 34.21 72.61 29.62 69.80 29.73 66.04 C 28.89 48.79 42.52 32.53 59.34 29.43 Z" />
</g>
</svg>
