<?xml version="1.0" encoding="UTF-8" ?>
<!DOCTYPE svg PUBLIC "-//W3C//DTD SVG 1.1//EN" "http://www.w3.org/Graphics/SVG/1.1/DTD/svg11.dtd">
<svg width="192pt" height="192pt" viewBox="0 0 192 192" version="1.1" xmlns="http://www.w3.org/2000/svg">
<g id="#19b0ffff">
<path fill="#19b0ff" opacity="1.00" d=" M 62.98 19.98 C 89.73 8.31 122.58 12.37 145.56 30.41 C 165.62 45.68 177.88 70.78 177.12 96.03 C 176.96 99.06 173.82 100.96 170.99 100.66 C 135.33 100.64 99.67 100.75 64.02 100.57 C 57.15 100.70 57.17 89.40 64.02 89.47 C 97.91 89.31 131.82 89.43 165.72 89.39 C 164.37 70.58 155.08 52.52 140.46 40.60 C 118.56 22.33 85.39 19.42 60.66 33.65 C 43.34 43.35 30.38 60.62 26.32 80.10 C 18.93 111.72 36.17 147.14 66.27 159.80 C 98.12 174.59 139.84 161.76 156.69 130.65 C 159.13 124.38 169.78 127.78 167.41 134.33 C 159.11 150.66 144.54 163.61 127.71 170.72 C 98.01 183.49 60.92 177.05 38.02 153.99 C 15.07 132.03 7.36 96.21 18.58 66.60 C 26.20 45.87 42.67 28.64 62.98 19.98 Z" />
</g>
</svg>
