<?xml version="1.0" encoding="UTF-8" ?>
<!DOCTYPE svg PUBLIC "-//W3C//DTD SVG 1.1//EN" "http://www.w3.org/Graphics/SVG/1.1/DTD/svg11.dtd">
<svg width="192pt" height="192pt" viewBox="0 0 192 192" version="1.1" xmlns="http://www.w3.org/2000/svg">
<g id="#72697dff">
<path fill="#72697d" opacity="1.00" d=" M 40.28 21.33 C 43.80 20.57 47.42 20.73 51.00 20.72 C 83.33 20.79 115.66 20.67 147.99 20.77 C 160.20 20.73 171.01 31.75 170.82 43.94 C 170.89 77.98 170.87 112.02 170.84 146.05 C 171.21 158.37 160.35 169.50 148.06 169.54 C 113.69 169.61 79.32 169.59 44.95 169.54 C 32.61 169.54 21.76 158.38 22.07 146.05 C 22.04 112.01 22.04 77.97 22.09 43.93 C 21.98 33.38 30.00 23.55 40.28 21.33 M 42.29 32.41 C 37.24 33.75 33.18 38.62 33.33 43.93 C 33.27 77.98 33.30 112.02 33.31 146.06 C 33.05 152.81 39.28 158.76 46.00 158.33 C 79.66 158.33 113.33 158.33 147.00 158.31 C 153.70 158.70 159.80 152.77 159.64 146.07 C 159.72 112.36 159.67 78.64 159.67 44.93 C 160.18 37.96 153.98 31.68 147.03 31.92 C 115.02 31.69 83.01 31.91 51.00 31.79 C 48.09 31.79 45.14 31.72 42.29 32.41 Z" />
<path fill="#72697d" opacity="1.00" d=" M 51.73 75.65 C 54.61 73.35 59.59 73.86 62.10 76.65 C 68.09 72.25 77.55 72.74 83.11 77.70 C 89.23 71.83 101.57 72.10 106.82 79.06 C 105.93 72.87 114.87 72.96 117.67 76.61 C 122.30 72.73 128.88 73.59 134.37 74.64 C 140.21 76.06 141.61 82.77 141.52 87.94 C 141.37 97.05 141.96 106.21 141.25 115.28 C 138.05 117.33 129.53 117.89 130.59 112.02 C 130.44 103.73 130.84 95.43 130.47 87.15 C 130.69 80.36 116.69 80.78 118.13 87.95 C 117.29 97.25 119.70 107.30 116.89 116.12 C 110.62 116.09 103.55 117.55 97.73 115.27 C 96.77 105.89 97.87 96.38 97.24 86.97 C 97.43 80.76 85.14 80.74 85.42 86.97 C 84.92 96.27 85.77 105.61 85.05 114.89 C 82.71 117.42 77.54 116.97 74.76 115.24 C 73.45 104.70 75.62 93.90 73.52 83.42 C 70.06 82.76 64.20 81.02 62.66 85.44 C 61.64 95.22 62.87 105.13 62.07 114.94 C 59.61 117.38 54.58 116.95 51.75 115.26 C 51.25 102.10 51.30 88.81 51.73 75.65 Z" />
</g>
</svg>
