<?xml version="1.0" encoding="UTF-8" ?>
<!DOCTYPE svg PUBLIC "-//W3C//DTD SVG 1.1//EN" "http://www.w3.org/Graphics/SVG/1.1/DTD/svg11.dtd">
<svg width="192pt" height="192pt" viewBox="0 0 192 192" version="1.1" xmlns="http://www.w3.org/2000/svg">
<g id="#4aadcfff">
<path fill="#4aadcf" opacity="1.00" d=" M 17.38 43.93 C 17.23 31.82 27.86 20.79 40.02 20.76 C 74.68 20.73 109.35 20.66 144.01 20.78 C 150.54 20.81 150.65 31.78 144.06 31.79 C 109.70 31.98 75.34 31.74 40.98 31.85 C 34.46 31.71 28.44 37.42 28.51 44.00 C 28.40 72.90 28.58 101.81 28.43 130.71 C 41.26 118.38 53.91 105.87 66.75 93.57 C 64.77 85.67 70.37 76.24 78.94 76.18 C 86.69 75.20 93.15 82.25 93.42 89.67 C 98.19 93.42 102.96 97.19 107.82 100.84 C 112.62 97.48 119.16 97.33 124.07 100.58 C 129.02 95.70 133.83 90.69 138.70 85.72 C 134.03 77.00 140.85 65.77 150.67 65.66 C 154.77 53.44 158.63 41.12 163.01 29.01 C 165.45 23.77 174.12 26.28 173.56 32.01 C 169.88 44.86 165.08 57.40 161.14 70.17 C 162.31 73.38 164.46 76.41 163.85 80.04 C 163.88 88.20 155.49 93.96 147.78 92.65 C 141.95 99.08 135.37 104.86 129.74 111.42 C 129.44 118.53 123.43 125.35 116.00 124.84 C 108.61 125.22 102.75 118.31 102.53 111.25 C 97.81 107.40 93.02 103.60 88.07 100.05 C 84.00 103.00 78.91 103.01 74.17 102.08 C 58.91 117.00 43.45 131.74 28.33 146.80 C 29.06 153.07 34.49 158.64 41.02 158.30 C 74.67 158.29 108.32 158.28 141.98 158.26 C 148.26 158.61 154.12 153.28 154.44 147.01 C 154.74 134.02 154.31 121.01 154.65 108.02 C 155.01 101.70 165.20 101.73 165.65 108.01 C 165.87 120.99 165.74 133.99 165.72 146.97 C 165.54 158.92 154.97 169.47 143.01 169.55 C 108.67 169.62 74.33 169.60 39.99 169.53 C 27.74 169.42 17.09 158.27 17.36 146.06 C 17.32 112.02 17.32 77.97 17.38 43.93 Z" />
</g>
</svg>
