<?xml version="1.0" encoding="UTF-8" ?>
<!DOCTYPE svg PUBLIC "-//W3C//DTD SVG 1.1//EN" "http://www.w3.org/Graphics/SVG/1.1/DTD/svg11.dtd">
<svg width="192pt" height="192pt" viewBox="0 0 192 192" version="1.1" xmlns="http://www.w3.org/2000/svg">
<g id="#ff3662ff">
<path fill="#ff3662" opacity="1.00" d=" M 102.05 15.15 C 109.56 10.73 119.99 12.88 125.19 19.85 C 130.79 27.27 133.77 36.21 137.31 44.70 C 139.37 50.30 130.75 54.49 127.50 49.56 C 123.32 41.94 121.41 33.01 115.77 26.21 C 112.52 22.47 106.51 24.24 104.01 27.96 C 100.15 33.60 97.42 39.93 93.80 45.73 C 92.07 48.70 87.87 50.13 84.87 48.19 C 79.77 45.06 75.76 40.36 70.38 37.65 C 67.71 36.67 64.06 36.72 62.25 39.25 C 57.72 45.20 57.75 53.41 53.49 59.47 C 49.79 64.16 42.35 57.66 39.58 63.59 C 28.70 90.66 29.25 125.44 50.60 147.39 C 73.55 171.83 115.43 172.21 140.06 150.11 C 151.14 140.63 157.54 126.63 159.49 112.36 C 161.79 95.50 159.42 78.31 154.97 61.99 C 152.79 52.84 146.87 45.28 143.00 36.86 C 141.09 32.86 145.48 28.16 149.61 29.46 C 153.55 30.69 154.51 35.32 156.54 38.43 C 168.70 58.19 172.02 82.14 171.55 104.98 C 170.73 123.33 164.37 142.01 151.17 155.17 C 126.74 180.13 84.56 184.92 55.29 165.74 C 35.00 153.03 22.72 129.75 21.49 106.08 C 20.79 90.68 23.02 75.00 28.52 60.57 C 31.04 53.50 38.29 48.80 45.78 49.40 C 48.74 40.66 51.60 29.63 61.56 26.56 C 71.13 23.27 79.80 29.56 86.68 35.44 C 91.01 28.20 94.06 19.25 102.05 15.15 Z" />
<path fill="#ff3662" opacity="1.00" d=" M 85.36 57.43 C 101.63 53.95 118.44 68.36 117.44 84.98 C 117.45 100.83 101.55 114.00 85.97 111.11 C 72.98 109.35 62.47 97.15 62.87 84.01 C 62.69 71.23 72.77 59.42 85.36 57.43 M 86.44 68.68 C 79.16 70.32 73.58 77.55 74.20 85.04 C 74.34 93.60 82.55 100.85 91.05 100.12 C 100.06 99.88 107.55 90.89 105.99 81.97 C 104.94 72.95 95.22 66.36 86.44 68.68 Z" />
<path fill="#ff3662" opacity="1.00" d=" M 86.28 75.23 C 92.66 72.17 100.77 77.96 99.87 84.99 C 99.70 92.50 89.78 96.71 84.11 91.91 C 78.27 87.75 79.62 77.78 86.28 75.23 Z" />
<path fill="#ff3662" opacity="1.00" d=" M 113.83 133.74 C 123.96 131.64 133.43 126.47 140.13 118.51 C 141.33 119.28 142.96 120.16 141.97 121.84 C 136.34 139.36 119.43 152.50 100.98 153.27 C 87.87 153.67 73.96 149.87 64.18 140.83 C 60.97 138.23 63.91 132.48 67.90 133.61 C 83.06 135.98 98.73 137.12 113.83 133.74 Z" />
</g>
</svg>
