<?xml version="1.0" encoding="UTF-8" ?>
<!DOCTYPE svg PUBLIC "-//W3C//DTD SVG 1.1//EN" "http://www.w3.org/Graphics/SVG/1.1/DTD/svg11.dtd">
<svg width="192pt" height="192pt" viewBox="0 0 192 192" version="1.1" xmlns="http://www.w3.org/2000/svg">
<g id="#a318ffff">
<path fill="#a318ff" opacity="1.00" d=" M 18.07 28.93 C 17.35 23.98 24.18 20.69 27.53 24.44 C 50.49 47.59 73.48 70.71 96.29 94.01 C 119.54 71.00 142.29 47.46 165.44 24.34 C 168.84 20.68 175.52 24.04 174.84 28.93 C 174.79 73.60 175.04 118.28 174.73 162.94 C 173.93 169.38 163.37 168.53 163.66 161.99 C 163.56 122.06 163.66 82.11 163.62 42.17 C 142.64 63.34 121.71 84.57 100.76 105.76 C 98.61 108.31 94.37 108.36 92.20 105.81 C 71.21 84.61 50.27 63.36 29.30 42.14 C 29.23 82.77 29.49 123.42 29.18 164.05 C 28.14 170.35 17.94 169.51 18.10 163.08 C 17.98 118.37 18.08 73.65 18.07 28.93 Z" />
</g>
</svg>
