<?xml version="1.0" encoding="UTF-8" ?>
<!DOCTYPE svg PUBLIC "-//W3C//DTD SVG 1.1//EN" "http://www.w3.org/Graphics/SVG/1.1/DTD/svg11.dtd">
<svg width="192pt" height="192pt" viewBox="0 0 192 192" version="1.1" xmlns="http://www.w3.org/2000/svg">
<g id="#ca75fbff">
<path fill="#ca75fb" opacity="1.00" d=" M 22.14 42.91 C 22.46 31.06 33.16 20.70 45.02 20.76 C 79.34 20.73 113.67 20.71 147.99 20.76 C 160.19 20.75 170.99 31.73 170.82 43.93 C 170.88 77.97 170.88 112.02 170.84 146.07 C 171.13 158.35 160.34 169.45 148.06 169.50 C 113.69 169.57 79.31 169.55 44.94 169.50 C 32.62 169.48 21.79 158.37 22.07 146.06 C 22.10 124.05 21.93 102.04 22.17 80.04 C 22.48 73.76 32.68 73.73 33.09 79.99 C 33.48 102.32 33.07 124.68 33.30 147.02 C 33.57 153.41 39.64 158.75 46.00 158.34 C 79.67 158.32 113.34 158.32 147.01 158.31 C 153.69 158.68 159.81 152.76 159.65 146.08 C 159.70 112.03 159.72 77.97 159.65 43.92 C 159.72 37.30 153.57 31.66 147.05 31.83 C 113.35 31.80 79.66 31.79 45.96 31.80 C 39.74 31.61 33.65 36.64 33.31 42.98 C 33.20 47.83 33.08 52.69 33.47 57.53 C 68.63 58.11 103.83 57.42 139.00 57.87 C 145.09 58.81 144.31 69.10 138.06 69.00 C 102.03 69.23 65.99 69.04 29.95 69.10 C 26.61 69.44 22.38 67.93 22.16 64.05 C 21.97 57.01 22.04 49.95 22.14 42.91 Z" />
<path fill="#ca75fb" opacity="1.00" d=" M 118.40 110.59 C 124.56 109.90 130.83 110.31 137.02 110.34 C 142.68 110.76 146.14 116.68 145.33 122.00 C 144.55 128.71 147.72 137.63 141.27 142.32 C 135.05 145.49 127.64 143.70 120.92 143.95 C 114.71 144.11 110.53 137.80 111.54 131.99 C 112.03 124.69 108.99 113.31 118.40 110.59 Z" />
</g>
</svg>
