<?xml version="1.0" encoding="UTF-8" ?>
<!DOCTYPE svg PUBLIC "-//W3C//DTD SVG 1.1//EN" "http://www.w3.org/Graphics/SVG/1.1/DTD/svg11.dtd">
<svg width="192pt" height="192pt" viewBox="0 0 192 192" version="1.1" xmlns="http://www.w3.org/2000/svg">
<g id="#ae847fff">
<path fill="#ae847f" opacity="1.00" d=" M 97.75 23.72 C 102.13 20.49 107.51 18.82 112.90 18.46 C 131.60 16.90 150.34 19.61 169.04 18.05 C 175.14 16.94 179.35 25.61 174.58 29.60 C 154.96 44.90 136.78 62.89 113.34 72.33 C 106.33 85.47 100.16 99.09 93.41 112.39 C 92.60 113.98 91.23 116.46 93.32 117.71 C 107.30 126.90 128.60 127.42 140.65 114.79 C 133.83 104.92 124.20 96.71 117.09 86.86 C 115.05 84.05 116.91 79.84 120.29 79.29 C 124.49 78.31 127.84 81.76 130.43 84.56 C 138.01 92.98 145.44 101.55 152.92 110.06 C 155.38 112.61 156.32 116.87 153.83 119.73 C 148.69 125.82 141.57 129.85 134.46 133.23 C 134.42 145.15 134.65 157.09 134.36 169.00 C 133.72 175.02 123.70 174.98 123.09 168.99 C 122.72 158.05 123.15 147.08 122.86 136.14 C 117.85 136.46 112.81 136.15 107.89 135.13 C 107.14 146.58 108.13 158.13 107.41 169.59 C 106.08 175.15 96.84 174.68 96.19 168.96 C 95.61 156.49 96.59 143.96 95.69 131.52 C 90.03 129.54 84.43 127.02 79.68 123.30 C 77.15 121.24 77.56 117.51 78.83 114.85 C 85.93 100.31 94.01 86.22 100.47 71.39 C 102.09 67.04 97.31 64.73 94.75 62.25 C 83.60 52.16 85.87 32.29 97.75 23.72 M 109.36 30.49 C 102.30 32.40 97.83 40.75 100.46 47.65 C 102.64 54.63 111.07 58.57 117.83 55.84 C 124.92 53.36 128.66 44.40 125.25 37.66 C 122.62 31.71 115.53 28.77 109.36 30.49 Z" />
<path fill="#ae847f" opacity="1.00" d=" M 17.14 84.85 C 14.05 83.04 15.39 77.60 19.01 77.60 C 31.39 78.26 43.74 79.59 56.11 80.58 C 60.04 80.89 64.19 81.21 67.57 83.46 C 75.28 88.27 77.12 100.86 69.97 106.96 C 68.73 108.47 65.95 109.59 66.70 111.97 C 70.49 121.63 76.51 130.35 80.15 140.04 C 79.80 145.14 73.03 145.90 69.38 148.18 C 69.30 155.46 69.54 162.76 69.29 170.03 C 69.08 173.82 62.62 173.57 62.59 169.84 C 62.36 163.29 62.65 156.72 62.45 150.16 C 59.48 150.52 56.49 150.66 53.50 150.67 C 53.39 157.06 53.64 163.46 53.40 169.85 C 53.45 173.59 46.89 173.78 46.69 170.01 C 46.29 162.94 46.87 155.84 46.40 148.77 C 41.85 146.13 34.37 143.50 34.39 137.38 C 38.97 130.57 45.01 124.67 50.50 118.54 C 52.49 115.53 58.71 116.84 57.16 120.94 C 52.96 127.08 47.25 132.06 42.76 138.00 C 50.22 145.44 64.07 145.57 71.60 138.75 C 68.70 130.97 64.30 123.68 60.88 116.06 C 59.25 110.90 53.00 110.72 49.17 107.86 C 38.20 100.61 27.66 92.72 17.14 84.85 M 56.29 88.32 C 51.15 90.15 49.62 97.63 53.75 101.25 C 57.64 105.49 65.38 103.39 66.83 97.91 C 68.96 91.92 62.06 85.56 56.29 88.32 Z" />
</g>
</svg>
