<?xml version="1.0" encoding="UTF-8" ?>
<!DOCTYPE svg PUBLIC "-//W3C//DTD SVG 1.1//EN" "http://www.w3.org/Graphics/SVG/1.1/DTD/svg11.dtd">
<svg width="192pt" height="192pt" viewBox="0 0 192 192" version="1.1" xmlns="http://www.w3.org/2000/svg">
<g id="#c874fbff">
<path fill="#c874fb" opacity="1.00" d=" M 84.41 13.52 C 105.80 10.46 128.32 16.34 145.47 29.50 C 170.93 48.59 183.40 83.33 175.22 114.18 C 166.60 149.56 132.33 176.08 96.06 176.47 C 72.04 176.60 48.02 176.53 24.00 176.50 C 20.19 176.85 16.88 172.77 18.15 169.13 C 21.18 161.88 27.39 155.95 28.49 147.95 C 29.47 140.09 23.32 134.18 20.81 127.27 C 8.54 99.78 13.45 65.76 32.68 42.66 C 45.51 26.98 64.33 16.34 84.41 13.52 M 50.54 40.57 C 24.67 61.55 17.73 101.51 35.06 129.97 C 42.31 140.43 41.36 154.92 33.74 164.92 C 54.16 165.08 74.59 164.99 95.02 164.97 C 118.08 164.72 140.69 152.82 153.75 133.78 C 173.79 106.36 168.58 65.05 143.40 42.62 C 118.68 18.80 76.31 17.97 50.54 40.57 Z" />
<path fill="#c874fb" opacity="1.00" d=" M 67.74 80.87 C 69.20 68.31 80.16 57.57 92.92 57.08 C 105.22 56.09 116.99 64.77 120.39 76.51 C 132.51 77.84 142.74 88.70 142.68 101.01 C 143.22 114.03 132.02 126.05 118.98 126.35 C 103.66 126.51 88.33 126.37 73.01 126.42 C 61.71 126.56 51.37 117.28 50.36 106.02 C 48.78 94.73 56.80 83.61 67.74 80.87 M 90.37 68.53 C 83.16 70.33 78.12 77.59 78.62 84.95 C 79.16 88.34 76.50 91.47 73.03 91.32 C 66.84 91.37 61.15 96.70 61.18 102.98 C 60.75 109.47 66.46 115.54 72.99 115.38 C 87.99 115.41 102.99 115.41 117.99 115.37 C 125.17 115.50 131.59 109.17 131.71 102.02 C 132.20 94.87 126.21 87.88 118.98 87.62 C 116.40 87.36 113.15 87.99 111.49 85.44 C 109.76 82.48 110.13 78.69 108.18 75.79 C 104.74 69.69 97.08 66.73 90.37 68.53 Z" />
</g>
</svg>
