<?xml version="1.0" encoding="UTF-8" ?>
<!DOCTYPE svg PUBLIC "-//W3C//DTD SVG 1.1//EN" "http://www.w3.org/Graphics/SVG/1.1/DTD/svg11.dtd">
<svg width="192pt" height="192pt" viewBox="0 0 192 192" version="1.1" xmlns="http://www.w3.org/2000/svg">
<g id="#1bb4ffff">
<path fill="#1bb4ff" opacity="1.00" d=" M 86.99 45.00 C 78.38 37.05 82.01 21.58 92.89 17.66 C 92.70 29.24 102.66 39.37 114.31 38.96 C 110.56 49.95 94.95 53.58 86.99 45.00 Z" />
<path fill="#1bb4ff" opacity="1.00" d=" M 27.12 51.95 C 26.80 48.72 30.18 47.02 32.99 47.53 C 48.46 48.08 64.23 50.37 78.53 56.53 C 84.21 59.48 80.17 69.15 74.06 67.09 C 64.03 63.59 53.64 60.77 43.00 60.14 C 40.28 59.74 38.62 62.52 38.83 64.93 C 38.79 92.64 38.82 120.35 38.84 148.06 C 38.55 150.68 40.42 153.35 43.18 153.35 C 59.17 154.17 75.20 156.19 90.51 161.03 C 90.50 134.02 90.53 107.01 90.51 80.00 C 90.21 75.09 93.98 71.39 97.06 68.07 C 112.67 53.08 135.24 49.09 156.04 47.61 C 159.62 47.25 165.67 46.91 165.74 51.97 C 165.88 87.99 165.81 124.02 165.80 160.04 C 166.17 163.24 163.04 165.46 160.07 165.09 C 142.43 165.05 124.61 166.70 107.68 171.85 C 101.82 174.14 95.29 173.95 89.16 173.09 C 71.08 167.09 51.92 165.00 32.93 165.08 C 29.95 165.43 26.75 163.32 27.08 160.06 C 27.04 124.02 27.04 87.98 27.12 51.95 M 106.05 74.16 C 103.68 75.58 102.14 78.13 102.38 80.94 C 102.32 107.62 102.42 134.30 102.34 160.98 C 117.41 156.35 133.12 154.14 148.84 153.42 C 151.81 153.63 154.44 151.13 153.98 148.09 C 153.97 120.37 154.05 92.65 153.95 64.93 C 154.28 61.70 150.98 59.37 147.97 60.23 C 133.31 62.00 118.33 65.62 106.05 74.16 Z" />
</g>
</svg>
