<?xml version="1.0" encoding="UTF-8" ?>
<!DOCTYPE svg PUBLIC "-//W3C//DTD SVG 1.1//EN" "http://www.w3.org/Graphics/SVG/1.1/DTD/svg11.dtd">
<svg width="192pt" height="192pt" viewBox="0 0 192 192" version="1.1" xmlns="http://www.w3.org/2000/svg">
<g id="#ff507cff">
<path fill="#ff507c" opacity="1.00" d=" M 54.35 19.49 C 63.04 17.05 72.93 20.46 78.30 27.70 C 84.01 34.94 84.49 45.71 79.56 53.48 C 74.70 61.54 64.46 65.90 55.29 63.68 C 45.34 61.61 37.55 52.17 37.51 41.99 C 37.08 31.78 44.48 22.01 54.35 19.49 M 57.28 30.37 C 51.18 31.84 47.12 38.88 49.22 44.87 C 51.04 51.21 58.90 54.92 64.88 51.97 C 70.49 49.68 73.32 42.61 70.87 37.07 C 68.84 31.81 62.67 28.94 57.28 30.37 Z" />
<path fill="#ff507c" opacity="1.00" d=" M 125.32 19.40 C 141.46 14.55 158.09 31.75 152.74 47.72 C 148.83 64.03 125.79 69.93 114.59 57.40 C 102.25 45.87 108.75 22.76 125.32 19.40 M 127.36 30.53 C 121.44 32.22 117.88 39.13 119.88 44.95 C 121.66 51.11 129.18 54.73 135.08 52.14 C 140.78 50.01 143.95 43.00 141.59 37.35 C 139.55 31.79 132.97 28.72 127.36 30.53 Z" />
<path fill="#ff507c" opacity="1.00" d=" M 49.38 74.53 C 66.71 69.48 86.33 77.87 95.33 93.37 C 103.38 79.92 119.20 71.53 134.89 73.31 C 154.78 74.96 171.51 93.00 171.79 112.93 C 171.86 131.25 172.03 149.59 171.71 167.90 C 171.19 173.87 161.43 173.97 160.78 168.00 C 160.34 149.66 160.84 131.28 160.55 112.93 C 160.27 99.69 149.97 87.63 137.03 85.04 C 120.46 80.97 102.72 94.09 101.33 110.99 C 100.64 129.97 101.48 149.00 100.91 167.97 C 100.26 173.87 90.74 173.91 89.99 168.04 C 89.43 149.04 90.17 130.00 89.62 110.99 C 88.33 94.04 70.50 81.05 53.95 84.99 C 41.00 87.62 30.75 99.70 30.37 112.93 C 30.12 131.29 30.59 149.67 30.15 168.02 C 29.38 173.91 19.84 173.86 19.21 167.94 C 18.83 149.63 19.11 131.28 19.09 112.96 C 19.28 95.31 32.31 78.89 49.38 74.53 Z" />
</g>
</svg>
