<?xml version="1.0" encoding="UTF-8" ?>
<!DOCTYPE svg PUBLIC "-//W3C//DTD SVG 1.1//EN" "http://www.w3.org/Graphics/SVG/1.1/DTD/svg11.dtd">
<svg width="192pt" height="192pt" viewBox="0 0 192 192" version="1.1" xmlns="http://www.w3.org/2000/svg">
<g id="#2b85bcff">
<path fill="#2b85bc" opacity="1.00" d=" M 125.64 23.61 C 130.11 16.77 140.52 15.09 146.95 20.10 C 163.82 32.80 174.27 53.84 173.65 75.01 C 173.72 96.99 161.93 118.54 143.55 130.55 C 125.26 143.03 101.03 144.91 80.52 137.04 C 75.74 146.96 70.62 156.71 65.65 166.52 C 61.92 174.15 51.51 177.24 44.28 172.73 C 16.24 153.65 7.64 112.22 25.36 83.35 C 41.28 54.79 79.07 42.06 109.19 54.58 C 115.40 44.90 119.71 33.64 125.64 23.61 M 132.32 34.32 C 117.02 65.30 101.30 96.07 85.87 126.99 C 111.04 137.26 142.34 126.00 155.27 102.13 C 169.58 78.25 162.47 44.15 139.40 28.48 C 135.42 27.15 133.70 31.48 132.32 34.32 M 53.86 69.91 C 37.86 79.77 27.59 98.20 27.49 116.99 C 27.19 134.46 35.56 151.87 49.47 162.46 C 51.85 164.44 55.26 162.80 56.11 160.09 C 72.07 128.37 87.94 96.60 104.05 64.95 C 87.74 58.70 68.60 60.47 53.86 69.91 Z" />
</g>
</svg>
