<?xml version="1.0" encoding="UTF-8" ?>
<!DOCTYPE svg PUBLIC "-//W3C//DTD SVG 1.1//EN" "http://www.w3.org/Graphics/SVG/1.1/DTD/svg11.dtd">
<svg width="192pt" height="192pt" viewBox="0 0 192 192" version="1.1" xmlns="http://www.w3.org/2000/svg">
<g id="#bd9864ff">
<path fill="#bd9864" opacity="1.00" d=" M 53.40 20.50 C 77.97 15.03 104.05 34.18 106.41 59.17 C 106.78 62.72 107.52 67.73 103.48 69.48 C 99.76 71.63 95.03 68.01 95.38 63.91 C 95.44 48.01 82.62 33.48 66.91 31.36 C 50.71 28.60 33.71 39.45 29.58 55.38 C 25.74 69.33 31.59 83.61 38.50 95.56 C 52.35 118.55 71.76 137.59 92.02 154.93 C 93.81 157.01 97.15 156.95 98.93 154.89 C 120.37 136.35 141.23 116.07 154.89 90.94 C 161.62 78.37 165.97 62.42 158.80 49.08 C 151.13 33.45 130.52 26.50 114.88 34.07 C 109.27 37.27 103.48 28.62 108.72 24.71 C 131.25 11.92 162.82 24.47 171.08 48.88 C 179.55 71.79 167.00 95.49 153.79 113.81 C 138.31 134.70 119.46 152.94 99.15 169.10 C 96.67 171.48 92.90 170.56 90.69 168.31 C 68.74 150.41 47.99 130.46 32.29 106.74 C 23.25 92.65 15.47 76.26 17.36 59.08 C 19.39 40.21 34.72 23.83 53.40 20.50 Z" />
</g>
</svg>
