<?xml version="1.0" encoding="UTF-8" ?>
<!DOCTYPE svg PUBLIC "-//W3C//DTD SVG 1.1//EN" "http://www.w3.org/Graphics/SVG/1.1/DTD/svg11.dtd">
<svg width="192pt" height="192pt" viewBox="0 0 192 192" version="1.1" xmlns="http://www.w3.org/2000/svg">
<g id="#25bbf8ff">
<path fill="#25bbf8" opacity="1.00" d=" M 25.94 29.95 C 25.81 23.13 37.09 23.18 37.05 29.96 C 37.27 62.82 37.10 95.69 37.13 128.56 C 41.17 127.96 46.64 129.99 45.92 134.93 C 45.73 139.46 40.68 140.25 37.11 140.21 C 36.93 147.39 37.65 154.67 36.74 161.80 C 35.23 167.06 26.70 166.43 26.01 160.99 C 25.62 154.00 26.05 146.98 25.78 139.99 C 21.97 140.30 16.47 139.81 16.12 134.92 C 15.39 129.46 21.63 127.94 25.85 128.63 C 25.93 95.74 25.74 62.84 25.94 29.95 Z" />
<path fill="#25bbf8" opacity="1.00" d=" M 58.39 29.12 C 59.20 23.56 67.99 23.29 69.25 28.71 C 69.96 35.83 69.32 43.05 69.56 50.20 C 73.66 49.64 79.84 50.65 79.62 56.02 C 79.68 61.31 73.59 62.08 69.54 61.55 C 69.43 94.70 69.73 127.86 69.36 160.99 C 68.55 167.42 57.92 166.51 58.30 159.97 C 58.15 127.19 58.26 94.41 58.20 61.63 C 54.47 62.06 49.68 60.48 49.70 56.01 C 49.47 51.45 54.40 49.70 58.18 50.15 C 58.37 43.14 57.90 36.11 58.39 29.12 Z" />
<path fill="#25bbf8" opacity="1.00" d=" M 90.71 29.99 C 90.57 23.65 100.83 22.92 101.71 29.10 C 102.08 49.80 101.71 70.53 101.86 91.24 C 106.00 90.77 112.24 91.54 112.17 96.99 C 112.26 102.45 105.99 103.19 101.86 102.66 C 101.70 122.08 101.99 141.51 101.69 160.92 C 101.13 166.83 91.56 166.88 90.80 161.00 C 90.32 141.56 90.96 122.07 90.48 102.62 C 85.89 103.84 79.97 100.35 81.89 95.08 C 82.96 91.06 87.59 91.71 90.57 90.79 C 90.78 70.52 90.45 50.25 90.71 29.99 Z" />
<path fill="#25bbf8" opacity="1.00" d=" M 123.20 29.06 C 124.20 22.90 134.27 23.70 134.23 29.98 C 134.37 59.04 134.36 88.11 134.21 117.17 C 138.00 117.01 143.24 118.25 143.21 122.99 C 143.54 127.85 138.19 129.34 134.31 128.90 C 134.18 139.61 134.52 150.34 134.14 161.04 C 133.29 166.85 123.90 166.81 123.23 160.95 C 122.77 150.24 123.39 139.50 122.90 128.79 C 118.82 129.42 113.05 128.16 113.21 122.99 C 113.23 117.92 118.96 116.87 122.95 117.43 C 123.32 87.98 122.71 58.50 123.20 29.06 Z" />
<path fill="#25bbf8" opacity="1.00" d=" M 155.57 29.39 C 156.09 23.44 165.69 23.25 166.51 29.14 C 166.91 42.36 166.54 55.61 166.67 68.84 C 170.91 68.26 177.31 69.38 176.83 74.97 C 176.65 80.16 170.68 80.75 166.70 80.27 C 166.53 107.13 166.82 134.01 166.53 160.87 C 165.97 166.88 156.16 166.86 155.60 160.85 C 155.26 134.01 155.71 107.14 155.36 80.30 C 151.38 80.99 146.31 78.68 146.90 74.00 C 147.16 69.72 151.87 68.38 155.46 68.86 C 155.57 55.70 155.29 42.54 155.57 29.39 Z" />
</g>
</svg>
