<?xml version="1.0" encoding="UTF-8" ?>
<!DOCTYPE svg PUBLIC "-//W3C//DTD SVG 1.1//EN" "http://www.w3.org/Graphics/SVG/1.1/DTD/svg11.dtd">
<svg width="192pt" height="192pt" viewBox="0 0 192 192" version="1.1" xmlns="http://www.w3.org/2000/svg">
<g id="#29b9a0ff">
<path fill="#29b9a0" opacity="1.00" d=" M 80.47 18.47 C 86.81 12.29 98.71 14.98 101.79 23.26 C 107.17 40.78 110.99 58.83 116.56 76.25 C 134.09 81.30 151.86 85.54 169.38 90.63 C 177.97 93.62 180.74 105.87 174.33 112.31 C 154.23 132.55 134.03 152.71 113.81 172.84 C 107.23 179.67 94.31 176.50 91.74 167.35 C 86.86 150.08 82.56 132.66 77.64 115.40 C 60.11 110.52 42.44 106.06 24.94 101.08 C 16.20 98.37 13.13 86.03 19.47 79.48 C 39.75 59.09 60.08 38.75 80.47 18.47 M 86.65 26.59 C 66.94 46.24 47.26 65.94 27.59 85.63 C 25.26 87.37 26.15 91.48 29.16 91.78 C 44.33 95.83 59.47 100.05 74.71 103.88 C 72.89 96.92 70.70 90.03 69.23 82.98 C 67.68 74.69 75.70 66.49 84.02 67.82 C 91.04 69.26 97.88 71.49 104.84 73.22 C 100.83 58.20 96.86 43.16 92.75 28.17 C 92.42 25.19 88.40 24.26 86.65 26.59 M 79.78 78.86 C 79.21 88.32 84.23 97.57 85.94 106.94 C 94.09 109.23 102.27 111.45 110.48 113.52 C 112.80 114.41 115.40 111.80 114.52 109.48 C 112.35 101.12 110.20 92.73 107.74 84.45 C 98.43 82.98 89.11 77.29 79.78 78.86 M 119.34 87.60 C 121.02 94.78 123.44 101.79 124.83 109.04 C 126.11 117.49 117.69 125.47 109.31 123.73 C 102.50 122.25 95.82 120.17 89.08 118.40 C 93.06 133.55 97.13 148.70 101.29 163.81 C 101.76 166.47 105.53 167.21 107.10 165.08 C 126.81 145.45 146.46 125.75 166.13 106.07 C 168.47 104.50 168.01 100.44 165.05 99.96 C 149.85 95.71 134.57 91.73 119.34 87.60 Z" />
</g>
</svg>
