<?xml version="1.0" encoding="UTF-8" ?>
<!DOCTYPE svg PUBLIC "-//W3C//DTD SVG 1.1//EN" "http://www.w3.org/Graphics/SVG/1.1/DTD/svg11.dtd">
<svg width="192pt" height="192pt" viewBox="0 0 192 192" version="1.1" xmlns="http://www.w3.org/2000/svg">
<g id="#e95a72ff">
<path fill="#e95a72" opacity="1.00" d=" M 106.36 16.50 C 119.15 12.64 133.41 23.80 133.43 37.00 C 133.72 47.74 124.60 57.41 114.01 58.35 C 103.68 59.58 93.17 52.11 91.07 41.90 C 88.63 31.16 95.71 19.35 106.36 16.50 M 109.34 27.42 C 102.66 29.14 99.49 38.55 104.34 43.66 C 108.78 49.25 118.47 47.62 121.20 41.14 C 124.90 34.00 116.70 25.32 109.34 27.42 Z" />
<path fill="#e95a72" opacity="1.00" d=" M 47.38 32.53 C 55.71 30.40 64.98 34.14 69.77 41.22 C 74.77 48.09 74.84 58.03 69.99 65.00 C 65.08 72.50 55.12 76.08 46.54 73.50 C 37.84 71.33 31.10 63.05 31.08 54.03 C 30.62 44.22 37.78 34.70 47.38 32.53 M 50.39 43.45 C 43.68 44.60 39.92 53.44 44.09 58.94 C 48.20 64.87 58.40 64.05 61.35 57.39 C 65.00 50.48 57.89 41.68 50.39 43.45 Z" />
<path fill="#e95a72" opacity="1.00" d=" M 150.43 58.67 C 163.47 55.89 176.21 68.01 175.51 80.99 C 175.37 92.06 164.85 101.09 154.00 100.69 C 143.23 101.08 133.53 91.76 133.10 81.08 C 132.03 70.59 140.05 60.31 150.43 58.67 M 150.34 70.41 C 144.16 72.71 142.33 81.46 146.76 86.22 C 151.40 91.69 161.59 89.70 163.80 82.87 C 166.18 75.43 157.78 66.76 150.34 70.41 Z" />
<path fill="#e95a72" opacity="1.00" d=" M 93.42 86.66 C 100.22 84.51 107.39 92.07 104.65 98.72 C 102.87 105.01 94.00 107.00 89.46 102.51 C 84.09 97.90 86.55 88.22 93.42 86.66 Z" />
<path fill="#e95a72" opacity="1.00" d=" M 31.33 92.40 C 38.83 90.01 47.59 92.24 52.98 98.00 C 58.94 104.14 60.48 114.04 56.73 121.72 C 53.25 129.12 45.19 134.21 36.96 133.75 C 26.37 133.78 16.72 124.66 16.24 114.06 C 15.55 104.51 22.23 95.18 31.33 92.40 M 34.30 103.33 C 28.08 105.42 25.07 114.17 29.95 119.09 C 34.77 125.11 45.68 122.57 47.17 114.97 C 49.41 107.68 41.29 100.38 34.30 103.33 Z" />
<path fill="#e95a72" opacity="1.00" d=" M 134.44 116.66 C 143.13 115.08 152.78 119.08 156.98 127.04 C 162.47 136.60 159.14 149.96 149.66 155.67 C 139.50 162.46 124.15 158.10 119.11 146.96 C 112.81 134.95 120.76 118.37 134.44 116.66 M 134.31 128.32 C 128.48 130.36 126.53 138.22 129.87 143.15 C 132.87 147.93 140.18 149.16 144.52 145.50 C 148.72 142.30 149.62 135.74 146.50 131.51 C 143.83 127.77 138.46 126.65 134.31 128.32 Z" />
<path fill="#e95a72" opacity="1.00" d=" M 76.29 133.34 C 88.38 130.79 101.47 140.51 101.82 153.02 C 102.78 165.99 89.69 177.37 77.01 175.34 C 66.20 173.80 58.33 162.69 59.40 152.02 C 60.11 142.96 67.42 135.06 76.29 133.34 M 77.49 144.72 C 70.15 146.76 68.42 157.12 74.18 161.84 C 80.27 167.87 91.63 161.08 90.40 153.00 C 89.76 147.08 83.10 142.97 77.49 144.72 Z" />
</g>
</svg>
