<?xml version="1.0" encoding="UTF-8" ?>
<!DOCTYPE svg PUBLIC "-//W3C//DTD SVG 1.1//EN" "http://www.w3.org/Graphics/SVG/1.1/DTD/svg11.dtd">
<svg width="192pt" height="192pt" viewBox="0 0 192 192" version="1.1" xmlns="http://www.w3.org/2000/svg">
<g id="#ff3662ff">
<path fill="#ff3662" opacity="1.00" d=" M 91.36 14.49 C 96.32 13.04 101.67 14.38 105.98 17.02 C 126.76 29.24 147.69 41.19 168.28 53.72 C 173.54 56.73 176.89 63.13 175.37 69.16 C 168.57 93.32 162.43 117.67 155.99 141.93 C 154.94 146.54 151.50 150.23 147.34 152.29 C 131.49 160.60 115.59 168.84 99.45 176.56 C 95.68 178.65 91.45 176.95 87.90 175.25 C 73.57 168.44 59.78 160.54 45.70 153.23 C 40.20 150.51 36.06 145.35 34.66 139.37 C 28.72 116.08 22.22 92.94 16.50 69.60 C 14.73 62.53 19.28 55.63 25.43 52.47 C 47.24 39.55 68.86 26.09 91.36 14.49 M 92.41 25.57 C 71.55 37.28 50.85 49.31 30.07 61.16 C 26.85 62.75 24.73 66.44 26.14 69.98 C 32.06 91.70 38.22 113.34 43.87 135.13 C 44.63 138.24 45.69 141.78 48.90 143.18 C 62.72 150.23 76.30 157.73 90.04 164.91 C 93.19 166.67 97.11 167.24 100.34 165.34 C 114.41 158.12 128.38 150.71 142.39 143.39 C 145.21 142.12 146.78 139.32 147.43 136.42 C 153.10 115.18 158.49 93.87 164.76 72.81 C 165.95 69.26 166.89 64.28 162.89 62.13 C 143.53 50.81 124.21 39.37 104.62 28.42 C 100.98 26.39 96.67 23.13 92.41 25.57 Z" />
<path fill="#ff3662" opacity="1.00" d=" M 90.32 78.55 C 93.41 78.06 96.55 78.36 99.63 78.78 C 98.63 82.76 96.77 86.48 96.03 90.52 C 97.74 90.68 99.45 90.82 101.17 90.96 C 102.43 96.42 101.70 102.11 101.74 107.67 C 97.48 108.39 93.14 108.19 88.85 107.89 C 88.17 104.69 90.10 102.32 91.86 99.94 C 92.29 95.06 92.09 90.15 92.09 85.26 C 89.58 84.02 88.06 80.76 90.32 78.55 Z" />
<path fill="#ff3662" opacity="1.00" d=" M 103.05 78.98 C 107.58 76.96 113.27 81.29 114.10 86.01 C 115.87 92.09 110.80 98.81 104.36 98.35 C 105.18 94.25 107.15 90.55 108.62 86.68 C 105.31 85.79 100.00 82.99 103.05 78.98 Z" />
<path fill="#ff3662" opacity="1.00" d=" M 117.21 82.71 C 116.36 75.11 126.90 79.46 131.41 78.51 C 131.68 79.97 131.94 81.44 132.20 82.91 C 131.22 83.72 130.25 84.52 129.28 85.33 C 129.21 90.74 129.14 96.17 129.40 101.58 C 131.74 102.05 134.14 102.08 136.51 101.72 C 136.77 100.18 137.04 98.65 137.32 97.13 C 138.94 96.99 140.56 96.88 142.18 96.78 C 143.12 100.25 142.82 103.86 142.43 107.39 C 134.67 107.78 126.88 107.63 119.12 107.54 C 116.77 107.59 117.31 104.72 116.98 103.19 C 118.09 102.44 119.20 101.70 120.30 100.96 C 119.51 94.93 122.97 86.89 117.21 82.71 Z" />
<path fill="#ff3662" opacity="1.00" d=" M 50.19 78.95 C 54.28 79.16 61.17 76.88 62.76 82.13 C 64.33 86.52 65.24 91.13 67.07 95.43 C 70.58 90.77 70.75 84.60 73.56 79.60 C 76.99 77.89 81.09 78.92 84.78 79.01 C 84.92 80.38 85.05 81.75 85.17 83.12 C 84.16 83.73 83.14 84.33 82.13 84.94 C 83.20 90.92 79.42 99.18 85.01 103.36 C 84.79 104.74 84.55 106.12 84.29 107.50 C 81.16 107.11 77.29 108.52 74.69 106.33 C 73.72 102.89 74.32 99.22 73.79 95.71 C 69.57 98.04 71.31 104.19 68.08 107.42 C 63.05 106.01 65.63 97.74 60.91 95.72 C 60.64 99.57 60.52 103.43 60.16 107.27 C 56.63 107.58 53.09 107.56 49.57 107.23 C 48.91 104.19 50.36 102.20 52.94 100.86 C 53.36 95.60 53.09 90.31 53.09 85.04 C 52.03 84.36 50.98 83.68 49.92 82.99 C 50.01 81.64 50.09 80.30 50.19 78.95 Z" />
<path fill="#ff3662" opacity="1.00" d=" M 65.67 133.79 C 66.03 133.30 66.76 132.33 67.12 131.85 C 76.24 133.32 84.79 137.47 94.03 138.35 C 103.11 139.07 111.29 134.42 120.00 132.86 C 121.64 132.53 124.50 132.38 124.09 134.85 C 118.49 139.49 111.80 142.58 106.00 146.96 C 102.04 149.51 97.63 154.02 92.55 151.48 C 83.04 146.51 74.19 140.30 65.67 133.79 Z" />
</g>
</svg>
