<?xml version="1.0" encoding="UTF-8" ?>
<!DOCTYPE svg PUBLIC "-//W3C//DTD SVG 1.1//EN" "http://www.w3.org/Graphics/SVG/1.1/DTD/svg11.dtd">
<svg width="192pt" height="192pt" viewBox="0 0 192 192" version="1.1" xmlns="http://www.w3.org/2000/svg">
<g id="#86919cff">
<path fill="#86919c" opacity="1.00" d=" M 84.43 14.58 C 105.38 11.54 127.40 17.04 144.40 29.66 C 165.50 44.98 178.55 70.88 177.74 97.01 C 177.76 127.13 159.13 156.09 132.07 169.12 C 113.18 178.47 90.60 180.14 70.60 173.45 C 68.13 172.63 65.66 171.60 63.01 171.72 C 50.00 171.75 36.99 171.77 23.98 171.73 C 21.18 172.05 18.42 169.76 18.25 166.95 C 17.75 151.36 18.72 135.68 17.78 120.13 C 9.75 94.48 15.11 65.05 32.24 44.25 C 45.08 28.27 64.10 17.35 84.43 14.58 M 33.84 61.74 C 25.85 76.10 23.46 93.30 26.55 109.39 C 31.57 126.01 28.43 143.59 29.31 160.68 C 43.20 161.40 57.39 159.26 71.08 161.93 C 99.53 172.92 134.28 162.98 152.32 138.32 C 171.84 113.39 171.31 75.32 150.88 51.07 C 138.76 36.09 120.32 26.37 101.06 25.13 C 73.98 22.65 46.64 37.87 33.84 61.74 Z" />
<path fill="#86919c" opacity="1.00" d=" M 88.31 52.37 C 106.95 48.85 126.91 58.88 135.20 75.91 C 142.57 90.24 141.10 108.57 131.47 121.49 C 122.26 134.41 105.68 141.49 89.98 139.13 C 70.36 136.85 53.94 119.69 52.25 100.05 C 49.51 77.94 66.31 55.78 88.31 52.37 M 90.45 63.61 C 75.17 66.00 62.96 80.52 63.50 96.03 C 63.31 112.12 76.89 126.77 92.91 127.94 C 111.42 130.23 129.35 113.69 128.35 95.03 C 128.68 75.86 109.23 59.78 90.45 63.61 Z" />
</g>
</svg>
