<?xml version="1.0" encoding="UTF-8" ?>
<!DOCTYPE svg PUBLIC "-//W3C//DTD SVG 1.1//EN" "http://www.w3.org/Graphics/SVG/1.1/DTD/svg11.dtd">
<svg width="192pt" height="192pt" viewBox="0 0 192 192" version="1.1" xmlns="http://www.w3.org/2000/svg">
<g id="#89945cff">
<path fill="#89945c" opacity="1.00" d=" M 84.29 14.38 C 105.20 11.63 127.15 17.06 144.01 29.83 C 149.88 34.69 157.21 37.91 161.70 44.32 C 165.53 48.84 166.33 54.87 168.99 60.00 C 183.20 87.82 178.64 123.69 158.74 147.63 C 140.46 170.51 109.39 181.98 80.61 176.55 C 58.82 172.81 38.99 159.60 26.80 141.20 C 10.73 117.58 8.79 85.57 21.01 59.88 C 21.74 47.02 31.65 36.89 42.98 32.00 C 55.06 22.90 69.15 16.18 84.29 14.38 M 69.88 29.61 C 77.70 32.28 85.06 37.36 88.02 45.40 C 92.07 45.56 96.12 45.46 100.17 45.52 C 103.62 37.47 110.89 31.75 119.32 29.65 C 103.72 23.16 85.64 23.97 69.88 29.61 M 52.32 35.42 C 42.59 37.64 33.00 44.51 30.55 54.61 C 28.87 61.57 32.33 69.08 38.54 72.54 C 51.96 80.23 70.95 75.08 79.11 62.05 C 82.96 56.03 82.92 47.41 77.99 41.99 C 71.70 34.92 61.18 33.31 52.32 35.42 M 121.37 35.52 C 112.34 37.44 104.52 46.44 106.94 55.99 C 111.84 74.39 137.85 82.31 152.56 70.58 C 158.58 65.70 159.95 56.57 156.19 49.91 C 149.67 37.98 134.33 32.22 121.37 35.52 M 88.04 63.03 C 79.87 82.96 53.36 93.29 34.26 82.83 C 31.68 81.89 29.41 77.91 26.56 79.52 C 18.10 109.95 34.43 144.39 62.42 158.51 C 82.66 169.22 108.14 169.11 128.29 158.25 C 155.61 144.17 171.41 110.95 164.16 80.94 C 163.77 79.38 162.11 78.81 160.96 77.93 C 142.66 95.74 109.06 85.57 100.31 62.59 C 96.29 62.79 91.72 61.73 88.04 63.03 Z" />
<path fill="#89945c" opacity="1.00" d=" M 57.40 103.57 C 63.10 101.93 69.61 107.00 68.82 113.03 C 69.10 120.51 58.77 124.63 53.58 119.42 C 47.99 114.94 50.48 105.09 57.40 103.57 Z" />
<path fill="#89945c" opacity="1.00" d=" M 128.38 103.47 C 135.23 101.72 141.79 109.41 138.97 115.89 C 136.83 122.21 127.53 123.83 123.37 118.63 C 118.64 113.77 121.64 104.54 128.38 103.47 Z" />
<path fill="#89945c" opacity="1.00" d=" M 71.32 129.38 C 74.45 128.50 77.75 130.17 78.62 133.36 C 82.02 142.76 94.00 147.43 102.88 142.83 C 107.38 140.82 110.43 136.70 112.22 132.23 C 114.06 127.00 123.76 128.86 122.69 134.68 C 119.90 146.27 108.77 154.95 96.96 155.52 C 84.00 156.58 71.04 147.59 67.70 135.01 C 66.94 132.53 68.85 129.83 71.32 129.38 Z" />
</g>
</svg>
