<?xml version="1.0" encoding="UTF-8" ?>
<!DOCTYPE svg PUBLIC "-//W3C//DTD SVG 1.1//EN" "http://www.w3.org/Graphics/SVG/1.1/DTD/svg11.dtd">
<svg width="192pt" height="192pt" viewBox="0 0 192 192" version="1.1" xmlns="http://www.w3.org/2000/svg">
<g id="#f038a6ff">
<path fill="#f038a6" opacity="1.00" d=" M 84.41 13.54 C 116.12 8.65 149.56 24.42 166.26 51.74 C 179.29 72.26 182.41 98.64 174.69 121.67 C 166.87 145.63 147.50 165.46 123.69 173.76 C 101.42 181.80 75.74 179.57 55.20 167.81 C 26.63 152.04 9.39 118.36 13.64 85.94 C 17.35 49.47 48.03 18.07 84.41 13.54 M 87.37 24.49 C 64.57 27.06 43.59 41.48 32.85 61.73 C 22.53 80.59 21.53 104.17 30.13 123.86 C 40.56 148.72 66.02 166.41 93.03 167.13 C 115.56 168.26 138.17 157.74 152.05 140.00 C 170.47 117.45 172.65 83.40 157.25 58.68 C 143.24 34.91 114.77 20.91 87.37 24.49 Z" />
<path fill="#f038a6" opacity="1.00" d=" M 83.37 41.45 C 86.69 40.82 90.97 39.40 93.57 42.44 C 96.46 45.61 94.34 51.50 89.93 51.71 C 71.85 53.80 55.91 68.19 52.43 86.11 C 51.69 89.07 51.98 93.18 48.70 94.67 C 45.30 96.67 40.47 93.93 40.50 90.00 C 42.20 66.77 60.65 46.22 83.37 41.45 Z" />
<path fill="#f038a6" opacity="1.00" d=" M 101.41 41.54 C 105.12 38.57 111.08 42.38 109.95 46.96 C 109.45 50.71 104.50 52.84 101.51 50.43 C 98.47 48.48 98.45 43.56 101.41 41.54 Z" />
<path fill="#f038a6" opacity="1.00" d=" M 90.35 71.44 C 108.21 66.87 125.40 87.00 117.98 103.91 C 112.44 120.74 87.76 125.07 76.83 111.12 C 64.58 98.15 72.74 74.24 90.35 71.44 M 92.38 82.52 C 86.32 83.78 81.74 89.80 82.26 95.99 C 82.40 102.95 89.08 108.87 96.01 108.27 C 103.14 108.02 109.14 101.09 108.21 93.98 C 107.66 86.45 99.72 80.68 92.38 82.52 Z" />
<path fill="#f038a6" opacity="1.00" d=" M 141.39 96.38 C 144.79 94.09 150.15 96.79 149.94 101.00 C 148.02 125.80 126.73 147.44 101.99 149.84 C 97.60 150.65 94.42 145.17 96.65 141.56 C 98.00 138.79 101.38 138.74 103.99 138.13 C 120.86 134.99 134.94 120.84 138.14 104.00 C 138.76 101.33 138.68 97.92 141.39 96.38 Z" />
<path fill="#f038a6" opacity="1.00" d=" M 84.19 139.19 C 87.83 137.40 92.49 140.87 91.75 144.88 C 91.49 148.76 86.48 151.08 83.35 148.74 C 79.83 146.60 80.30 140.65 84.19 139.19 Z" />
</g>
</svg>
