<?xml version="1.0" encoding="UTF-8" ?>
<!DOCTYPE svg PUBLIC "-//W3C//DTD SVG 1.1//EN" "http://www.w3.org/Graphics/SVG/1.1/DTD/svg11.dtd">
<svg width="192pt" height="192pt" viewBox="0 0 192 192" version="1.1" xmlns="http://www.w3.org/2000/svg">
<g id="#ee35b6ff">
<path fill="#ee35b6" opacity="1.00" d=" M 70.93 31.12 C 65.05 30.10 65.00 20.74 70.99 19.89 C 102.32 19.56 133.68 19.83 165.03 19.73 C 168.87 19.33 171.20 23.55 170.83 26.95 C 170.74 59.32 170.94 91.70 170.79 124.07 C 170.28 141.33 151.94 156.08 135.01 151.07 C 118.52 147.00 107.63 127.08 115.50 111.41 C 122.35 94.95 145.27 88.35 159.23 100.04 C 159.26 86.40 159.29 72.76 159.23 59.13 C 132.11 59.12 104.99 59.09 77.86 59.14 C 77.81 83.42 77.78 107.71 77.92 131.99 C 78.11 137.88 78.50 143.97 76.60 149.65 C 72.95 161.08 62.10 170.06 49.98 170.58 C 37.77 170.81 25.95 162.70 21.93 151.12 C 15.52 136.25 25.97 118.33 40.91 113.87 C 49.62 110.87 59.31 113.34 66.50 118.79 C 66.46 97.53 66.50 76.27 66.52 55.01 C 66.32 50.96 69.93 47.20 74.02 47.45 C 102.33 47.60 130.64 47.34 158.95 47.53 C 159.53 42.13 159.11 36.67 159.17 31.24 C 129.76 31.16 100.34 31.40 70.93 31.12 M 135.39 106.62 C 124.64 110.05 121.21 124.70 127.58 133.45 C 133.36 141.80 146.65 142.75 153.95 135.92 C 161.28 129.18 161.11 116.03 153.54 109.55 C 148.59 105.42 141.40 104.47 135.39 106.62 M 45.32 124.40 C 34.18 125.89 28.41 139.30 32.94 149.04 C 37.00 159.53 51.88 162.12 60.23 155.28 C 68.16 149.01 68.60 135.64 61.23 128.76 C 57.11 124.67 50.91 123.45 45.32 124.40 Z" />
</g>
</svg>
