<?xml version="1.0" encoding="UTF-8" ?>
<!DOCTYPE svg PUBLIC "-//W3C//DTD SVG 1.1//EN" "http://www.w3.org/Graphics/SVG/1.1/DTD/svg11.dtd">
<svg width="192pt" height="192pt" viewBox="0 0 192 192" version="1.1" xmlns="http://www.w3.org/2000/svg">
<g id="#a81cffff">
<path fill="#a81cff" opacity="1.00" d=" M 70.95 31.13 C 65.01 30.18 64.96 20.67 70.99 19.87 C 102.33 19.56 133.69 19.82 165.03 19.73 C 168.42 19.36 170.90 22.85 170.79 25.97 C 170.80 58.33 170.83 90.69 170.79 123.05 C 170.76 137.21 159.07 150.13 145.04 151.80 C 128.79 153.88 112.71 139.38 112.97 123.00 C 112.76 108.95 124.32 96.22 138.11 94.31 C 145.60 93.07 153.22 95.66 159.25 100.06 C 159.28 86.42 159.30 72.77 159.24 59.13 C 132.13 59.12 105.01 59.09 77.90 59.14 C 77.82 83.43 77.80 107.71 77.92 132.00 C 78.11 137.89 78.49 143.96 76.60 149.64 C 72.95 161.06 62.10 170.05 49.98 170.57 C 37.48 170.85 25.49 162.31 21.63 150.40 C 15.59 135.12 26.93 117.18 42.34 113.44 C 50.69 111.07 59.63 113.67 66.46 118.73 C 66.48 97.48 66.48 76.23 66.50 54.99 C 66.32 50.94 69.91 47.19 74.01 47.42 C 102.32 47.58 130.64 47.35 158.94 47.53 C 159.57 42.13 159.10 36.67 159.18 31.25 C 129.77 31.17 100.35 31.39 70.95 31.13 M 135.39 106.60 C 124.64 110.05 121.19 124.69 127.57 133.45 C 133.35 141.81 146.65 142.79 153.97 135.94 C 161.31 129.19 161.15 116.02 153.54 109.53 C 148.59 105.40 141.40 104.46 135.39 106.60 M 45.34 124.41 C 34.21 125.90 28.42 139.30 32.95 149.05 C 37.02 159.52 51.88 162.12 60.22 155.28 C 68.37 148.86 68.59 134.99 60.70 128.28 C 56.59 124.55 50.69 123.50 45.34 124.41 Z" />
</g>
</svg>
