<?xml version="1.0" encoding="UTF-8" ?>
<!DOCTYPE svg PUBLIC "-//W3C//DTD SVG 1.1//EN" "http://www.w3.org/Graphics/SVG/1.1/DTD/svg11.dtd">
<svg width="192pt" height="192pt" viewBox="0 0 192 192" version="1.1" xmlns="http://www.w3.org/2000/svg">
<g id="#ff517cff">
<path fill="#ff517c" opacity="1.00" d=" M 84.54 25.02 C 84.27 18.85 89.91 13.49 96.00 13.70 C 108.66 13.67 121.33 13.60 134.00 13.73 C 142.49 13.82 149.96 21.51 149.83 30.00 C 150.23 38.28 143.29 46.16 134.99 46.64 C 129.11 46.92 123.22 46.47 117.34 46.86 C 117.39 77.90 117.38 108.94 117.36 139.97 C 117.33 155.18 107.16 169.67 92.93 174.97 C 80.00 180.16 64.37 177.30 54.08 167.90 C 41.89 157.36 37.76 138.88 44.24 124.14 C 51.58 105.70 74.92 95.34 93.17 103.85 C 97.43 106.36 95.89 113.49 91.03 114.18 C 86.63 113.80 82.45 111.68 77.94 112.23 C 64.11 112.55 52.16 125.18 52.42 138.97 C 51.92 153.31 64.66 166.37 79.01 166.22 C 93.21 166.72 106.09 154.18 106.11 140.00 C 106.23 107.31 106.13 74.62 106.19 41.93 C 105.84 38.91 108.02 35.73 111.19 35.57 C 119.09 35.14 127.05 35.89 134.93 35.23 C 139.81 34.12 139.74 26.34 134.90 25.26 C 121.84 24.93 108.75 25.20 95.68 25.13 C 95.58 46.97 95.88 68.83 95.54 90.66 C 94.83 96.92 84.61 96.33 84.59 90.02 C 84.43 68.36 84.55 46.68 84.54 25.02 Z" />
</g>
</svg>
