<?xml version="1.0" encoding="UTF-8" ?>
<!DOCTYPE svg PUBLIC "-//W3C//DTD SVG 1.1//EN" "http://www.w3.org/Graphics/SVG/1.1/DTD/svg11.dtd">
<svg width="192pt" height="192pt" viewBox="0 0 192 192" version="1.1" xmlns="http://www.w3.org/2000/svg">
<g id="#3690ffff">
<path fill="#3690ff" opacity="1.00" d=" M 84.40 13.52 C 116.12 8.64 149.57 24.41 166.27 51.74 C 179.29 72.26 182.39 98.63 174.68 121.66 C 166.87 145.63 147.49 165.45 123.68 173.76 C 101.44 181.78 75.78 179.58 55.25 167.84 C 26.51 152.01 9.20 118.06 13.67 85.49 C 17.56 49.18 48.17 18.03 84.40 13.52 M 87.38 24.50 C 64.33 27.11 43.16 41.82 32.52 62.41 C 22.52 81.15 21.66 104.41 30.15 123.87 C 40.57 148.72 66.03 166.41 93.03 167.13 C 115.56 168.27 138.17 157.75 152.06 140.01 C 170.13 117.84 172.61 84.59 158.02 59.99 C 144.27 35.48 115.29 20.83 87.38 24.50 Z" />
<path fill="#3690ff" opacity="1.00" d=" M 83.38 41.49 C 86.53 40.94 90.37 39.51 93.08 41.99 C 96.55 44.92 94.59 51.48 89.91 51.68 C 71.82 53.77 55.88 68.18 52.40 86.11 C 51.66 89.07 51.95 93.15 48.67 94.65 C 45.32 96.66 40.51 93.88 40.52 90.00 C 42.24 66.79 60.66 46.24 83.38 41.49 Z" />
<path fill="#3690ff" opacity="1.00" d=" M 101.44 41.56 C 104.75 38.89 110.31 41.74 109.94 46.01 C 110.23 49.84 105.52 52.79 102.21 50.81 C 98.63 49.23 98.21 43.72 101.44 41.56 Z" />
<path fill="#3690ff" opacity="1.00" d=" M 90.34 71.43 C 105.80 67.62 121.76 82.23 119.44 97.94 C 118.32 110.71 105.82 120.99 93.06 119.50 C 80.42 118.66 69.93 106.59 70.98 93.94 C 71.34 83.18 79.78 73.44 90.34 71.43 M 92.38 82.53 C 86.32 83.82 81.72 89.84 82.27 96.05 C 82.46 102.98 89.11 108.86 96.01 108.26 C 103.13 108.02 109.13 101.08 108.21 93.98 C 107.65 86.46 99.72 80.69 92.38 82.53 Z" />
<path fill="#3690ff" opacity="1.00" d=" M 141.40 96.41 C 144.76 94.10 150.17 96.82 149.88 101.02 C 148.00 125.78 126.71 147.41 102.01 149.80 C 97.61 150.63 94.52 145.19 96.68 141.56 C 98.02 138.80 101.39 138.77 103.99 138.17 C 120.88 135.03 134.97 120.85 138.17 104.00 C 138.79 101.34 138.70 97.95 141.40 96.41 Z" />
<path fill="#3690ff" opacity="1.00" d=" M 84.21 139.23 C 87.79 137.42 92.45 140.88 91.71 144.84 C 91.52 148.72 86.47 151.06 83.37 148.71 C 79.90 146.61 80.34 140.63 84.21 139.23 Z" />
</g>
</svg>
