<?xml version="1.0" encoding="UTF-8" ?>
<!DOCTYPE svg PUBLIC "-//W3C//DTD SVG 1.1//EN" "http://www.w3.org/Graphics/SVG/1.1/DTD/svg11.dtd">
<svg width="192pt" height="192pt" viewBox="0 0 192 192" version="1.1" xmlns="http://www.w3.org/2000/svg">
<g id="#778493ff">
<path fill="#778493" opacity="1.00" d=" M 84.40 13.49 C 116.13 8.63 149.57 24.39 166.28 51.73 C 179.30 72.25 182.41 98.63 174.70 121.66 C 165.42 150.52 139.16 172.97 109.17 177.51 C 77.19 183.11 43.00 167.61 25.95 140.04 C 8.01 112.63 8.91 74.58 28.07 48.02 C 41.03 29.41 61.91 16.52 84.40 13.49 M 87.42 24.55 C 64.38 27.16 43.21 41.86 32.58 62.44 C 23.31 79.81 21.84 101.07 28.50 119.58 C 37.67 146.22 63.81 165.95 92.02 167.08 C 114.88 168.55 137.97 158.03 152.06 140.00 C 170.30 117.64 172.63 83.99 157.63 59.34 C 143.74 35.25 115.04 20.92 87.42 24.55 Z" />
<path fill="#778493" opacity="1.00" d=" M 83.40 41.56 C 86.86 40.79 91.55 39.44 93.93 43.02 C 96.39 46.74 93.43 51.98 88.96 51.83 C 69.50 54.29 53.45 71.24 51.48 90.67 C 50.88 96.70 41.27 96.54 40.61 90.62 C 41.89 67.21 60.54 46.31 83.40 41.56 Z" />
<path fill="#778493" opacity="1.00" d=" M 101.49 41.60 C 104.73 38.98 110.32 41.79 109.83 46.01 C 110.25 49.82 105.48 52.77 102.23 50.83 C 98.75 49.19 98.25 43.74 101.49 41.60 Z" />
<path fill="#778493" opacity="1.00" d=" M 90.33 71.41 C 105.81 67.60 121.79 82.23 119.47 97.96 C 118.34 110.74 105.82 121.03 93.04 119.53 C 80.39 118.69 69.90 106.59 70.96 93.93 C 71.32 83.17 79.77 73.42 90.33 71.41 M 93.35 82.41 C 87.23 83.18 82.22 88.87 82.28 95.05 C 81.94 101.95 88.07 108.34 94.99 108.26 C 102.11 108.61 108.62 102.12 108.25 94.99 C 108.30 87.45 100.77 81.11 93.35 82.41 Z" />
<path fill="#778493" opacity="1.00" d=" M 141.43 96.49 C 145.13 93.85 150.86 97.51 149.77 102.03 C 147.31 126.60 125.79 148.10 101.04 149.73 C 94.69 149.87 94.51 139.06 100.88 138.86 C 118.71 136.64 134.36 122.58 138.03 104.94 C 138.84 102.06 138.49 98.23 141.43 96.49 Z" />
<path fill="#778493" opacity="1.00" d=" M 84.24 139.26 C 90.86 136.55 94.80 146.82 88.33 149.35 C 82.07 151.88 78.00 141.66 84.24 139.26 Z" />
</g>
</svg>
