<?xml version="1.0" encoding="UTF-8" ?>
<!DOCTYPE svg PUBLIC "-//W3C//DTD SVG 1.1//EN" "http://www.w3.org/Graphics/SVG/1.1/DTD/svg11.dtd">
<svg width="192pt" height="192pt" viewBox="0 0 192 192" version="1.1" xmlns="http://www.w3.org/2000/svg">
<g id="#3bda83ff">
<path fill="#3bda83" opacity="1.00" d=" M 85.32 13.39 C 117.02 8.88 150.21 24.95 166.64 52.36 C 179.50 73.00 182.36 99.43 174.43 122.40 C 166.39 146.30 146.82 165.93 122.93 174.01 C 100.63 181.83 75.01 179.39 54.60 167.47 C 26.09 151.44 9.09 117.49 13.73 85.05 C 17.81 48.59 48.87 17.51 85.32 13.39 M 87.40 24.51 C 64.35 27.12 43.18 41.83 32.54 62.42 C 22.79 80.68 21.70 103.26 29.54 122.41 C 39.36 147.36 64.20 165.52 91.00 167.05 C 114.19 168.85 137.79 158.33 152.08 140.01 C 170.49 117.45 172.67 83.40 157.26 58.69 C 143.25 34.93 114.79 20.93 87.40 24.51 Z" />
<path fill="#3bda83" opacity="1.00" d=" M 83.37 41.45 C 86.53 40.92 90.41 39.49 93.12 41.98 C 96.60 44.94 94.62 51.54 89.91 51.73 C 71.84 53.82 55.90 68.21 52.44 86.14 C 51.69 89.10 51.98 93.20 48.69 94.68 C 45.30 96.68 40.48 93.93 40.50 90.01 C 42.19 66.78 60.65 46.22 83.37 41.45 Z" />
<path fill="#3bda83" opacity="1.00" d=" M 101.43 41.52 C 104.51 39.12 109.47 41.25 109.99 45.07 C 110.94 49.21 105.91 53.05 102.19 50.87 C 98.60 49.22 98.15 43.72 101.43 41.52 Z" />
<path fill="#3bda83" opacity="1.00" d=" M 90.35 71.43 C 105.81 67.63 121.76 82.25 119.44 97.96 C 118.31 110.72 105.81 121.00 93.05 119.50 C 80.41 118.66 69.93 106.58 70.99 93.93 C 71.35 83.17 79.79 73.43 90.35 71.43 M 92.38 82.54 C 86.35 83.81 81.77 89.79 82.27 95.96 C 82.39 103.31 89.79 109.41 97.03 108.17 C 104.10 107.35 109.55 100.01 108.08 92.99 C 106.97 85.91 99.37 80.82 92.38 82.54 Z" />
<path fill="#3bda83" opacity="1.00" d=" M 141.38 96.36 C 144.81 94.09 150.17 96.79 149.95 101.02 C 148.04 125.82 126.73 147.48 101.98 149.86 C 97.58 150.67 94.41 145.16 96.65 141.54 C 98.02 138.78 101.41 138.74 104.02 138.12 C 120.87 134.97 134.93 120.84 138.12 104.02 C 138.76 101.35 138.67 97.91 141.38 96.36 Z" />
<path fill="#3bda83" opacity="1.00" d=" M 84.21 139.17 C 90.41 136.16 95.00 146.27 88.87 149.09 C 82.43 152.74 77.50 141.73 84.21 139.17 Z" />
</g>
</svg>
