<?xml version="1.0" encoding="UTF-8" ?>
<!DOCTYPE svg PUBLIC "-//W3C//DTD SVG 1.1//EN" "http://www.w3.org/Graphics/SVG/1.1/DTD/svg11.dtd">
<svg width="192pt" height="192pt" viewBox="0 0 192 192" version="1.1" xmlns="http://www.w3.org/2000/svg">
<g id="#8838ffff">
<path fill="#8838ff" opacity="1.00" d=" M 85.30 13.39 C 117.01 8.87 150.21 24.93 166.64 52.35 C 179.50 73.00 182.36 99.43 174.43 122.40 C 166.47 146.04 147.24 165.52 123.69 173.75 C 101.20 181.87 75.23 179.52 54.58 167.46 C 26.01 151.38 9.02 117.30 13.76 84.80 C 17.96 48.45 48.94 17.51 85.30 13.39 M 87.38 24.50 C 64.33 27.11 43.16 41.83 32.52 62.41 C 22.65 80.91 21.67 103.84 29.84 123.14 C 40.08 148.37 65.77 166.41 93.03 167.14 C 115.57 168.26 138.18 157.76 152.06 140.01 C 170.14 117.84 172.62 84.58 158.02 59.98 C 144.27 35.48 115.29 20.83 87.38 24.50 Z" />
<path fill="#8838ff" opacity="1.00" d=" M 83.37 41.48 C 86.85 40.74 91.59 39.37 93.97 42.98 C 96.51 46.71 93.47 52.01 89.00 51.88 C 69.87 54.30 53.81 70.78 51.70 89.93 C 51.65 94.26 46.18 96.94 42.77 94.22 C 39.18 91.66 40.81 86.90 41.48 83.36 C 45.83 62.87 62.87 45.82 83.37 41.48 Z" />
<path fill="#8838ff" opacity="1.00" d=" M 101.44 41.55 C 104.75 38.88 110.31 41.74 109.96 46.00 C 110.24 49.85 105.52 52.80 102.20 50.82 C 98.62 49.22 98.20 43.72 101.44 41.55 Z" />
<path fill="#8838ff" opacity="1.00" d=" M 90.34 71.43 C 105.80 67.63 121.75 82.23 119.44 97.94 C 118.32 110.70 105.82 120.98 93.07 119.50 C 80.43 118.66 69.94 106.60 70.98 93.95 C 71.34 83.18 79.78 73.44 90.34 71.43 M 92.39 82.53 C 86.70 83.74 82.21 89.13 82.25 94.98 C 81.85 101.93 88.06 108.35 95.00 108.28 C 102.50 108.64 109.20 101.45 108.21 93.98 C 107.66 86.46 99.73 80.70 92.39 82.53 Z" />
<path fill="#8838ff" opacity="1.00" d=" M 141.39 96.39 C 144.77 94.11 150.17 96.80 149.90 101.02 C 148.01 125.79 126.72 147.42 102.01 149.81 C 97.62 150.64 94.49 145.20 96.67 141.56 C 98.01 138.80 101.39 138.76 104.00 138.16 C 120.88 135.00 134.96 120.85 138.16 103.99 C 138.78 101.33 138.69 97.94 141.39 96.39 Z" />
<path fill="#8838ff" opacity="1.00" d=" M 84.20 139.22 C 87.81 137.40 92.46 140.88 91.73 144.86 C 91.51 148.73 86.47 151.07 83.37 148.72 C 79.88 146.62 80.33 140.63 84.20 139.22 Z" />
</g>
</svg>
