<?xml version="1.0" encoding="UTF-8" ?>
<!DOCTYPE svg PUBLIC "-//W3C//DTD SVG 1.1//EN" "http://www.w3.org/Graphics/SVG/1.1/DTD/svg11.dtd">
<svg width="192pt" height="192pt" viewBox="0 0 192 192" version="1.1" xmlns="http://www.w3.org/2000/svg">
<g id="#19b1c4ff">
<path fill="#19b1c4" opacity="1.00" d=" M 27.09 19.90 C 26.68 15.70 31.73 12.45 35.34 14.73 C 47.45 21.90 59.59 29.07 71.58 36.45 C 76.46 39.61 72.69 48.12 66.99 46.44 C 57.19 41.34 47.99 35.09 38.35 29.68 C 38.26 73.07 38.37 116.46 38.31 159.85 C 74.60 138.18 110.89 116.53 147.09 94.72 C 131.14 85.04 114.99 75.67 99.12 65.86 C 93.73 62.38 98.92 53.13 104.72 56.29 C 123.60 67.29 142.30 78.64 161.04 89.87 C 164.86 91.88 164.69 98.03 160.76 99.84 C 119.06 124.79 77.37 149.77 35.63 174.65 C 31.79 177.34 26.34 173.58 27.04 169.07 C 27.05 119.35 27.03 69.62 27.09 19.90 Z" />
<path fill="#19b1c4" opacity="1.00" d=" M 79.71 29.99 C 79.35 26.80 81.83 23.50 85.15 23.54 C 91.96 23.48 98.79 23.30 105.59 23.63 C 110.78 24.27 111.90 32.15 107.13 34.26 C 101.91 35.39 96.46 34.48 91.15 34.77 C 90.54 59.13 91.73 83.57 90.77 107.93 C 90.24 118.77 79.82 127.73 69.00 126.32 C 58.16 125.50 49.40 114.76 51.07 103.95 C 52.15 93.91 61.85 85.60 71.99 86.60 C 76.25 86.88 78.43 92.49 75.77 95.70 C 74.29 97.98 71.33 97.57 69.02 98.13 C 63.49 98.84 60.42 105.98 63.30 110.65 C 65.72 115.14 72.26 116.51 76.25 113.30 C 79.44 110.95 79.75 106.65 79.76 103.02 C 79.69 78.68 79.66 54.33 79.71 29.99 Z" />
</g>
</svg>
