<?xml version="1.0" encoding="UTF-8" ?>
<!DOCTYPE svg PUBLIC "-//W3C//DTD SVG 1.1//EN" "http://www.w3.org/Graphics/SVG/1.1/DTD/svg11.dtd">
<svg width="192pt" height="192pt" viewBox="0 0 192 192" version="1.1" xmlns="http://www.w3.org/2000/svg">
<g id="#ff3664ff">
<path fill="#ff3664" opacity="1.00" d=" M 70.94 31.14 C 65.00 30.20 64.95 20.64 70.99 19.87 C 102.33 19.55 133.69 19.82 165.03 19.73 C 168.42 19.37 170.91 22.84 170.79 25.97 C 170.81 58.33 170.82 90.69 170.79 123.05 C 170.76 137.23 159.06 150.12 145.04 151.81 C 128.79 153.88 112.73 139.38 112.97 123.01 C 112.75 108.95 124.32 96.23 138.11 94.31 C 145.61 93.07 153.21 95.67 159.26 100.07 C 159.28 86.42 159.31 72.78 159.25 59.14 C 132.14 59.13 105.02 59.10 77.91 59.15 C 77.83 81.43 77.81 103.72 77.89 126.00 C 77.68 135.04 79.46 144.67 75.24 153.10 C 69.59 165.66 54.29 174.09 40.86 169.16 C 29.67 165.98 21.53 155.46 20.09 144.10 C 18.60 128.64 31.63 113.72 47.04 112.65 C 54.05 111.98 60.84 114.72 66.46 118.72 C 66.48 97.48 66.47 76.24 66.49 55.00 C 66.32 50.94 69.90 47.19 74.01 47.42 C 102.33 47.58 130.66 47.34 158.98 47.54 C 159.52 42.13 159.11 36.68 159.19 31.26 C 129.77 31.17 100.35 31.42 70.94 31.14 M 136.29 106.31 C 125.50 109.08 121.25 123.11 126.78 132.23 C 131.91 141.39 145.67 143.12 153.44 136.41 C 161.12 129.98 161.34 116.79 154.05 109.99 C 149.35 105.69 142.31 104.49 136.29 106.31 M 45.34 124.42 C 34.22 125.92 28.42 139.29 32.95 149.03 C 37.01 159.51 51.87 162.12 60.22 155.29 C 68.16 149.01 68.60 135.64 61.21 128.77 C 57.10 124.69 50.92 123.46 45.34 124.42 Z" />
</g>
</svg>
