<?xml version="1.0" encoding="UTF-8" ?>
<!DOCTYPE svg PUBLIC "-//W3C//DTD SVG 1.1//EN" "http://www.w3.org/Graphics/SVG/1.1/DTD/svg11.dtd">
<svg width="192pt" height="192pt" viewBox="0 0 192 192" version="1.1" xmlns="http://www.w3.org/2000/svg">
<g id="#8492a1ff">
<path fill="#8492a1" opacity="1.00" d=" M 70.95 31.12 C 64.45 30.18 65.27 19.46 71.95 19.79 C 102.98 19.66 134.02 19.76 165.04 19.74 C 168.89 19.39 171.19 23.54 170.82 26.94 C 170.73 59.31 170.89 91.69 170.74 124.07 C 170.31 141.63 151.24 156.51 134.18 150.81 C 118.13 146.34 107.80 126.79 115.51 111.42 C 122.37 94.92 145.29 88.41 159.28 100.07 C 159.28 86.43 159.30 72.79 159.26 59.15 C 132.21 59.11 105.16 59.20 78.12 59.10 C 77.59 86.40 77.86 113.73 78.05 141.03 C 77.98 155.41 66.32 168.76 51.98 170.43 C 38.83 171.83 25.67 162.94 21.62 150.40 C 15.35 134.53 27.79 115.91 44.02 113.06 C 51.93 111.35 60.06 114.06 66.46 118.71 C 66.47 97.48 66.45 76.24 66.49 55.01 C 66.31 50.93 69.89 47.20 74.00 47.42 C 102.40 47.50 130.81 47.47 159.21 47.45 C 159.24 42.06 159.24 36.67 159.20 31.27 C 129.78 31.16 100.35 31.47 70.95 31.12 M 136.29 106.32 C 125.23 109.15 121.10 123.76 127.16 132.85 C 132.56 141.52 145.85 142.95 153.44 136.42 C 161.13 129.99 161.36 116.80 154.05 109.99 C 149.36 105.69 142.31 104.50 136.29 106.32 M 45.35 124.43 C 33.95 125.97 28.24 139.93 33.26 149.71 C 37.80 159.92 52.73 162.02 60.77 154.82 C 68.39 148.21 68.39 134.84 60.69 128.30 C 56.58 124.58 50.69 123.54 45.35 124.43 Z" />
</g>
</svg>
