<?xml version="1.0" encoding="UTF-8" ?>
<!DOCTYPE svg PUBLIC "-//W3C//DTD SVG 1.1//EN" "http://www.w3.org/Graphics/SVG/1.1/DTD/svg11.dtd">
<svg width="192pt" height="192pt" viewBox="0 0 192 192" version="1.1" xmlns="http://www.w3.org/2000/svg">
<g id="#ff643bff">
<path fill="#ff643b" opacity="1.00" d=" M 120.24 20.92 C 119.92 17.68 122.62 14.53 125.95 14.72 C 136.65 14.65 147.36 14.56 158.05 14.76 C 162.18 14.75 164.89 20.12 162.38 23.44 C 160.88 25.98 157.65 26.11 155.03 26.14 C 147.20 26.12 139.36 26.12 131.53 26.12 C 131.52 63.74 131.60 101.35 131.50 138.97 C 131.49 156.20 117.90 172.01 100.98 174.91 C 85.14 178.16 67.97 169.70 60.75 155.28 C 53.63 141.91 55.89 124.32 66.23 113.23 C 76.18 101.91 93.49 97.55 107.43 103.57 C 111.91 105.76 110.75 113.07 105.90 113.95 C 101.57 114.09 97.40 111.53 92.93 112.17 C 78.01 112.30 65.52 127.28 68.18 142.00 C 69.90 156.23 84.87 166.86 98.89 163.81 C 110.60 161.79 120.06 150.94 120.17 139.00 C 120.29 99.64 120.18 60.28 120.24 20.92 Z" />
<path fill="#ff643b" opacity="1.00" d=" M 83.38 23.52 C 91.91 22.11 100.72 22.01 109.22 23.69 C 113.53 24.23 115.35 30.26 112.13 33.13 C 110.31 35.29 107.30 34.70 104.85 34.39 C 88.61 31.81 71.41 36.36 58.45 46.46 C 42.90 58.11 33.56 77.62 34.40 97.05 C 34.64 111.43 40.56 125.31 49.89 136.13 C 53.70 140.92 46.88 147.57 42.12 143.88 C 19.80 120.84 16.89 82.28 34.71 55.74 C 45.55 38.88 63.62 26.90 83.38 23.52 Z" />
<path fill="#ff643b" opacity="1.00" d=" M 141.42 42.48 C 143.66 41.51 146.22 42.40 147.82 44.13 C 161.12 57.46 168.96 76.14 168.82 95.00 C 169.01 113.84 161.33 132.66 147.95 145.93 C 144.51 149.73 137.56 145.98 138.59 141.02 C 139.79 136.95 143.80 134.55 145.93 130.97 C 163.11 108.17 160.88 73.49 140.83 53.14 C 137.15 50.58 136.68 44.13 141.42 42.48 Z" />
</g>
</svg>
