<?xml version="1.0" encoding="UTF-8" ?>
<!DOCTYPE svg PUBLIC "-//W3C//DTD SVG 1.1//EN" "http://www.w3.org/Graphics/SVG/1.1/DTD/svg11.dtd">
<svg width="192pt" height="192pt" viewBox="0 0 192 192" version="1.1" xmlns="http://www.w3.org/2000/svg">
<g id="#f6b32eff">
<path fill="#f6b32e" opacity="1.00" d=" M 70.96 31.11 C 65.00 30.19 64.96 20.65 71.01 19.88 C 102.34 19.56 133.70 19.82 165.05 19.73 C 168.43 19.37 170.91 22.86 170.79 25.98 C 170.80 58.34 170.83 90.71 170.79 123.07 C 170.74 137.24 159.05 150.14 145.02 151.81 C 128.78 153.87 112.72 139.38 112.97 123.01 C 112.76 109.22 123.89 96.67 137.36 94.43 C 145.07 92.92 153.03 95.50 159.26 100.07 C 159.28 86.43 159.29 72.78 159.25 59.13 C 132.13 59.12 105.01 59.09 77.88 59.14 C 77.84 83.43 77.78 107.71 77.92 132.00 C 78.17 138.61 78.52 145.54 75.82 151.76 C 71.60 162.17 61.34 170.07 49.99 170.57 C 37.49 170.84 25.48 162.32 21.64 150.39 C 15.70 135.37 26.58 117.73 41.60 113.65 C 50.14 110.97 59.48 113.48 66.47 118.77 C 66.47 97.52 66.48 76.26 66.50 55.01 C 66.31 50.96 69.88 47.20 73.99 47.43 C 102.34 47.56 130.69 47.39 159.04 47.50 C 159.44 42.10 159.15 36.67 159.20 31.25 C 129.79 31.15 100.36 31.42 70.96 31.11 M 135.40 106.60 C 124.64 110.04 121.18 124.69 127.57 133.45 C 133.34 141.81 146.64 142.78 153.96 135.95 C 161.31 129.20 161.15 116.02 153.53 109.52 C 148.59 105.39 141.40 104.47 135.40 106.60 M 45.33 124.41 C 34.20 125.90 28.42 139.31 32.95 149.05 C 37.11 159.76 52.56 162.22 60.78 154.81 C 68.40 148.20 68.39 134.83 60.70 128.28 C 56.59 124.56 50.68 123.50 45.33 124.41 Z" />
</g>
</svg>
