<?xml version="1.0" encoding="UTF-8" ?>
<!DOCTYPE svg PUBLIC "-//W3C//DTD SVG 1.1//EN" "http://www.w3.org/Graphics/SVG/1.1/DTD/svg11.dtd">
<svg width="192pt" height="192pt" viewBox="0 0 192 192" version="1.1" xmlns="http://www.w3.org/2000/svg">
<g id="#627080ff">
<path fill="#627080" opacity="1.00" d=" M 90.24 22.21 C 91.81 17.58 99.10 17.66 100.66 22.25 C 101.64 27.00 100.90 31.91 101.12 36.73 C 105.30 36.47 111.67 36.47 112.10 42.03 C 112.54 48.00 105.56 48.83 101.14 48.15 C 101.10 85.84 101.12 123.53 101.13 161.22 C 106.41 161.27 111.69 161.27 116.97 161.23 C 117.06 132.14 116.88 103.03 117.05 73.94 C 117.07 67.14 128.22 67.18 128.24 73.99 C 128.50 103.02 128.30 132.08 128.34 161.12 C 134.47 161.38 140.61 161.23 146.74 161.22 C 146.71 147.54 146.80 133.86 146.68 120.18 C 142.23 120.81 135.26 120.04 135.71 114.01 C 136.05 108.40 142.59 108.54 146.74 108.74 C 146.81 91.82 146.59 74.89 146.84 57.98 C 146.95 51.40 157.77 51.42 157.96 57.96 C 158.34 74.87 158.01 91.81 158.12 108.72 C 162.29 108.48 168.68 108.48 169.13 114.03 C 169.61 120.04 162.58 120.86 158.14 120.15 C 158.10 133.84 158.11 147.53 158.13 161.22 C 162.40 161.74 167.53 159.92 171.13 162.88 C 174.88 166.10 172.02 173.13 167.00 172.55 C 119.33 172.61 71.66 172.60 23.99 172.54 C 18.57 173.17 15.83 165.24 20.39 162.34 C 24.22 160.26 28.90 161.68 33.08 161.25 C 33.24 122.52 32.97 83.78 33.23 45.06 C 33.55 38.73 43.85 38.67 44.28 44.99 C 44.54 83.68 44.37 122.39 44.37 161.08 C 50.46 161.36 56.59 161.43 62.68 161.06 C 62.52 140.44 62.70 119.83 62.59 99.21 C 58.19 99.62 51.17 99.06 51.33 93.12 C 51.48 87.24 58.32 87.31 62.62 87.64 C 62.78 78.43 62.33 69.19 62.84 60.00 C 63.87 54.49 72.82 54.60 73.68 60.13 C 74.18 69.27 73.52 78.46 74.01 87.61 C 78.18 87.22 84.58 87.56 84.70 93.11 C 85.01 98.88 78.18 99.64 73.89 99.25 C 73.80 119.90 73.88 140.55 73.86 161.20 C 79.17 161.30 84.48 161.26 89.79 161.24 C 89.76 123.55 89.88 85.86 89.73 48.17 C 85.27 48.81 78.30 48.03 78.68 42.00 C 79.06 36.34 85.60 36.48 89.79 36.78 C 90.01 31.93 89.32 27.00 90.24 22.21 Z" />
</g>
</svg>
