<?xml version="1.0" encoding="UTF-8" ?>
<!DOCTYPE svg PUBLIC "-//W3C//DTD SVG 1.1//EN" "http://www.w3.org/Graphics/SVG/1.1/DTD/svg11.dtd">
<svg width="192pt" height="192pt" viewBox="0 0 192 192" version="1.1" xmlns="http://www.w3.org/2000/svg">
<g id="#ff3663ff">
<path fill="#ff3663" opacity="1.00" d=" M 71.65 43.65 C 96.49 36.21 121.31 28.72 146.15 21.28 C 150.05 19.48 155.02 22.66 154.77 26.99 C 154.80 60.35 154.85 93.71 154.75 127.07 C 154.60 139.73 141.37 149.86 129.09 146.90 C 116.94 144.70 108.94 130.78 113.24 119.17 C 116.85 107.12 131.27 101.60 142.58 106.12 C 142.53 82.48 142.62 58.85 142.53 35.21 C 121.34 41.54 100.19 48.05 78.95 54.23 C 78.47 60.09 78.84 65.99 78.75 71.86 C 92.90 67.78 106.86 63.05 121.03 59.04 C 127.41 57.40 131.04 67.29 125.28 70.28 C 109.91 75.54 94.20 79.83 78.75 84.88 C 78.70 105.94 78.78 127.00 78.72 148.06 C 78.81 157.93 71.71 167.73 61.87 169.73 C 53.21 171.71 43.61 167.52 39.15 159.84 C 34.32 152.07 35.30 141.24 41.54 134.52 C 47.60 127.46 58.06 125.75 66.50 129.17 C 66.55 102.78 66.48 76.38 66.53 49.99 C 66.33 46.90 68.71 44.25 71.65 43.65 Z" />
</g>
</svg>
