<?xml version="1.0" encoding="UTF-8" ?>
<!DOCTYPE svg PUBLIC "-//W3C//DTD SVG 1.1//EN" "http://www.w3.org/Graphics/SVG/1.1/DTD/svg11.dtd">
<svg width="192pt" height="192pt" viewBox="0 0 192 192" version="1.1" xmlns="http://www.w3.org/2000/svg">
<g id="#ac6b43ff">
<path fill="#ac6b43" opacity="1.00" d=" M 85.35 13.42 C 117.04 8.90 150.20 24.98 166.63 52.36 C 179.50 73.01 182.36 99.44 174.44 122.41 C 166.39 146.31 146.83 165.96 122.93 174.03 C 100.63 181.85 75.01 179.40 54.60 167.47 C 26.81 151.81 9.92 119.14 13.48 87.38 C 16.59 50.02 48.08 17.59 85.35 13.42 M 87.39 24.51 C 64.09 27.14 42.71 42.15 32.18 63.08 C 22.49 81.69 21.75 104.65 30.14 123.87 C 40.30 148.10 64.73 165.56 91.00 167.06 C 114.19 168.87 137.79 158.33 152.08 140.01 C 170.49 117.45 172.68 83.40 157.26 58.68 C 143.24 34.93 114.79 20.94 87.39 24.51 Z" />
<path fill="#ac6b43" opacity="1.00" d=" M 83.32 41.39 C 86.83 40.66 91.66 39.28 94.03 42.95 C 96.89 46.70 93.50 52.19 88.98 52.01 C 69.58 54.46 53.59 71.37 51.65 90.74 C 51.06 96.89 41.00 96.74 40.48 90.62 C 41.66 67.12 60.44 46.20 83.32 41.39 Z" />
<path fill="#ac6b43" opacity="1.00" d=" M 101.40 41.46 C 104.83 38.83 110.39 41.68 110.12 46.02 C 110.48 50.62 104.07 53.40 100.93 50.05 C 98.28 47.83 98.60 43.39 101.40 41.46 Z" />
<path fill="#ac6b43" opacity="1.00" d=" M 90.37 71.46 C 108.21 66.91 125.40 87.01 117.99 103.91 C 112.54 120.46 88.45 125.07 77.32 111.66 C 64.49 98.87 72.45 74.28 90.37 71.46 M 92.38 82.54 C 86.36 83.80 81.74 89.78 82.28 95.95 C 82.35 103.31 89.79 109.44 97.03 108.20 C 104.13 107.37 109.54 100.03 108.11 93.00 C 106.96 85.91 99.38 80.82 92.38 82.54 Z" />
<path fill="#ac6b43" opacity="1.00" d=" M 141.39 96.29 C 144.90 94.07 150.16 96.77 150.08 101.00 C 148.06 126.26 126.22 147.98 101.01 150.15 C 97.04 149.76 94.54 144.96 96.60 141.52 C 97.99 138.74 101.38 138.66 104.02 138.05 C 120.84 134.92 134.87 120.81 138.05 104.02 C 138.71 101.32 138.61 97.82 141.39 96.29 Z" />
<path fill="#ac6b43" opacity="1.00" d=" M 84.19 139.07 C 87.94 137.45 92.54 140.82 91.86 144.90 C 91.58 148.91 86.43 151.16 83.23 148.79 C 79.72 146.53 80.30 140.61 84.19 139.07 Z" />
</g>
</svg>
