<?xml version="1.0" encoding="UTF-8" ?>
<!DOCTYPE svg PUBLIC "-//W3C//DTD SVG 1.1//EN" "http://www.w3.org/Graphics/SVG/1.1/DTD/svg11.dtd">
<svg width="192pt" height="192pt" viewBox="0 0 192 192" version="1.1" xmlns="http://www.w3.org/2000/svg">
<g id="#3d6380ff">
<path fill="#3d6380" opacity="1.00" d=" M 22.13 43.95 C 21.89 31.72 32.81 20.75 45.01 20.78 C 79.33 20.73 113.66 20.73 147.98 20.78 C 160.16 20.77 171.02 31.76 170.79 43.95 C 170.81 78.32 170.88 112.69 170.77 147.06 C 170.68 159.01 159.94 169.48 148.05 169.54 C 118.41 169.57 88.77 169.60 59.14 169.52 C 55.73 169.63 53.27 166.26 53.64 163.02 C 53.62 142.41 53.68 121.80 53.61 101.19 C 50.60 101.12 47.46 101.55 44.54 100.59 C 40.92 99.40 39.73 94.17 42.57 91.57 C 45.53 88.82 49.96 90.38 53.59 89.93 C 53.70 81.31 53.21 72.66 53.81 64.06 C 54.96 58.67 63.50 59.04 64.34 64.45 C 64.96 72.91 64.40 81.44 64.61 89.93 C 67.39 89.99 70.17 89.83 72.94 90.12 C 76.66 90.95 78.52 96.00 75.91 98.92 C 73.09 102.19 68.26 100.97 64.46 101.21 C 64.68 120.28 64.15 139.38 64.73 158.44 C 72.77 158.26 80.82 158.45 88.87 158.33 C 88.83 147.61 88.91 136.89 88.82 126.16 C 85.14 125.94 80.63 127.22 77.74 124.27 C 74.96 121.45 76.39 116.17 80.22 115.17 C 83.08 114.80 85.96 115.01 88.83 114.98 C 88.96 98.01 88.54 81.02 89.05 64.07 C 90.29 58.28 99.57 59.23 99.75 65.09 C 100.02 81.69 99.76 98.30 99.89 114.91 C 102.59 114.97 105.29 114.85 107.98 115.10 C 111.91 115.76 113.88 121.22 111.03 124.10 C 108.15 127.28 103.46 125.93 99.70 126.18 C 99.67 136.89 99.65 147.59 99.71 158.30 C 109.20 158.42 118.69 158.37 128.18 158.33 C 128.14 133.52 128.39 108.70 128.06 83.89 C 124.97 83.68 121.74 84.16 118.75 83.23 C 114.61 81.38 114.87 74.56 119.20 73.08 C 122.10 72.65 125.05 72.85 127.97 72.84 C 128.00 69.98 127.79 67.09 128.22 64.25 C 128.98 60.61 133.82 58.71 136.76 61.11 C 140.41 63.84 138.78 68.91 139.13 72.79 C 142.31 72.89 145.58 72.50 148.70 73.26 C 152.63 75.01 152.82 81.04 149.04 83.06 C 145.96 84.36 142.46 83.62 139.20 83.81 C 139.03 108.64 139.18 133.47 139.13 158.31 C 147.19 159.58 158.38 157.71 159.53 147.85 C 159.91 113.56 159.59 79.24 159.69 44.94 C 160.30 37.50 153.26 31.26 146.01 31.81 C 112.66 31.80 79.31 31.72 45.97 31.84 C 39.46 31.72 33.08 37.22 33.32 43.94 C 33.31 78.29 33.24 112.66 33.36 147.02 C 33.32 152.27 37.60 155.84 41.74 158.26 C 46.15 161.43 42.46 169.24 37.15 167.76 C 28.13 164.89 21.98 155.39 22.11 146.04 C 22.10 112.01 22.09 77.98 22.13 43.95 Z" />
</g>
</svg>
