<?xml version="1.0" encoding="UTF-8" ?>
<!DOCTYPE svg PUBLIC "-//W3C//DTD SVG 1.1//EN" "http://www.w3.org/Graphics/SVG/1.1/DTD/svg11.dtd">
<svg width="192pt" height="192pt" viewBox="0 0 192 192" version="1.1" xmlns="http://www.w3.org/2000/svg">
<g id="#e83f88ff">
<path fill="#e83f88" opacity="1.00" d=" M 84.41 13.51 C 116.13 8.64 149.56 24.41 166.26 51.74 C 179.28 72.26 182.37 98.63 174.67 121.65 C 166.85 145.62 147.48 165.41 123.68 173.74 C 101.43 181.77 75.79 179.57 55.25 167.84 C 26.64 152.09 9.33 118.37 13.61 85.93 C 17.31 49.45 48.01 18.04 84.41 13.51 M 87.39 24.51 C 64.35 27.12 43.17 41.83 32.54 62.41 C 22.66 80.92 21.68 103.84 29.85 123.14 C 39.85 147.73 64.47 165.53 91.01 167.05 C 114.20 168.86 137.80 158.33 152.09 140.01 C 170.50 117.44 172.67 83.39 157.26 58.68 C 143.24 34.93 114.78 20.93 87.39 24.51 Z" />
<path fill="#e83f88" opacity="1.00" d=" M 83.37 41.46 C 86.54 40.91 90.39 39.50 93.11 41.98 C 96.60 44.94 94.62 51.52 89.92 51.72 C 71.85 53.81 55.91 68.20 52.43 86.12 C 51.69 89.08 51.99 93.19 48.69 94.68 C 45.30 96.68 40.47 93.93 40.50 90.00 C 42.20 66.77 60.65 46.21 83.37 41.46 Z" />
<path fill="#e83f88" opacity="1.00" d=" M 101.42 41.54 C 104.77 38.89 110.32 41.72 109.99 46.01 C 110.29 50.21 104.79 53.11 101.51 50.43 C 98.47 48.49 98.45 43.56 101.42 41.54 Z" />
<path fill="#e83f88" opacity="1.00" d=" M 90.34 71.43 C 105.80 67.62 121.76 82.23 119.44 97.94 C 118.32 110.71 105.82 120.99 93.06 119.50 C 80.42 118.67 69.93 106.59 70.98 93.94 C 71.33 83.18 79.78 73.43 90.34 71.43 M 92.39 82.54 C 82.86 84.24 78.77 97.49 85.80 104.19 C 92.08 111.59 105.49 108.27 107.76 98.89 C 110.83 89.86 101.58 80.10 92.39 82.54 Z" />
<path fill="#e83f88" opacity="1.00" d=" M 141.39 96.39 C 144.77 94.09 150.17 96.81 149.91 101.01 C 148.03 125.79 126.72 147.43 102.00 149.83 C 97.62 150.64 94.45 145.19 96.66 141.56 C 98.01 138.79 101.39 138.76 104.00 138.15 C 120.87 135.01 134.96 120.84 138.15 104.00 C 138.78 101.33 138.69 97.93 141.39 96.39 Z" />
<path fill="#e83f88" opacity="1.00" d=" M 84.20 139.20 C 87.82 137.40 92.48 140.88 91.74 144.87 C 91.51 148.75 86.48 151.07 83.36 148.74 C 79.85 146.61 80.31 140.65 84.20 139.20 Z" />
</g>
</svg>
