<?xml version="1.0" encoding="UTF-8" ?>
<!DOCTYPE svg PUBLIC "-//W3C//DTD SVG 1.1//EN" "http://www.w3.org/Graphics/SVG/1.1/DTD/svg11.dtd">
<svg width="192pt" height="192pt" viewBox="0 0 192 192" version="1.1" xmlns="http://www.w3.org/2000/svg">
<g id="#ff623cff">
<path fill="#ff623c" opacity="1.00" d=" M 14.16 48.94 C 14.66 37.09 28.93 29.06 39.36 34.64 C 67.45 49.82 95.44 65.17 123.44 80.51 C 133.27 85.65 135.22 100.55 127.10 108.09 C 121.65 112.78 114.73 115.25 108.66 119.01 C 124.76 128.12 141.09 136.84 157.33 145.70 C 160.76 147.86 165.90 145.15 165.81 141.04 C 165.91 111.00 165.87 80.95 165.83 50.90 C 166.32 46.52 161.16 43.66 157.45 45.61 C 144.87 52.27 132.51 59.39 119.88 65.95 C 113.61 68.95 108.50 58.84 114.42 55.44 C 127.31 48.28 140.23 41.11 153.30 34.27 C 163.67 29.36 177.24 37.44 177.73 48.92 C 177.87 79.97 177.83 111.03 177.76 142.08 C 177.58 154.16 162.86 162.48 152.33 156.68 C 125.31 142.06 98.41 127.21 71.41 112.55 C 59.04 108.25 55.39 90.13 66.11 82.12 C 71.46 78.25 77.72 75.87 83.20 72.19 C 67.15 63.43 51.12 54.64 35.05 45.90 C 31.71 43.80 26.19 45.58 26.16 49.95 C 26.01 80.31 26.09 110.68 26.12 141.04 C 25.94 145.22 31.22 147.91 34.64 145.65 C 47.24 138.99 59.58 131.81 72.25 125.30 C 77.95 122.97 83.52 131.49 78.33 135.37 C 65.33 142.80 52.10 149.91 38.89 156.96 C 28.37 162.23 14.40 153.84 14.13 142.09 C 13.99 111.05 13.97 79.98 14.16 48.94 M 74.06 91.18 C 70.60 93.16 70.99 98.81 74.54 100.50 C 81.64 104.47 88.79 108.35 95.96 112.18 C 103.13 108.26 110.33 104.42 117.45 100.41 C 121.21 98.54 121.00 92.50 117.25 90.76 C 110.14 86.94 103.07 83.03 95.98 79.17 C 88.65 83.13 81.28 87.04 74.06 91.18 Z" />
</g>
</svg>
