<?xml version="1.0" encoding="UTF-8" ?>
<!DOCTYPE svg PUBLIC "-//W3C//DTD SVG 1.1//EN" "http://www.w3.org/Graphics/SVG/1.1/DTD/svg11.dtd">
<svg width="192pt" height="192pt" viewBox="0 0 192 192" version="1.1" xmlns="http://www.w3.org/2000/svg">
<g id="#e52b9eff">
<path fill="#e52b9e" opacity="1.00" d=" M 70.94 31.13 C 64.99 30.23 64.94 20.60 71.00 19.87 C 102.33 19.54 133.69 19.82 165.04 19.73 C 168.88 19.35 171.20 23.55 170.83 26.95 C 170.76 58.98 170.82 91.02 170.75 123.05 C 170.80 138.94 155.89 153.24 139.92 151.85 C 125.49 150.80 112.81 137.61 112.98 123.01 C 112.77 109.48 123.49 97.11 136.64 94.58 C 144.57 92.79 152.84 95.38 159.27 100.08 C 159.30 86.43 159.31 72.78 159.25 59.13 C 132.19 59.10 105.14 59.17 78.09 59.10 C 77.63 86.40 77.86 113.72 78.04 141.02 C 77.97 155.41 66.30 168.75 51.96 170.42 C 38.82 171.80 25.67 162.94 21.62 150.41 C 15.45 134.86 27.32 116.58 43.11 113.24 C 51.28 111.20 59.87 113.84 66.49 118.75 C 66.42 97.50 66.47 76.25 66.49 55.01 C 66.28 50.92 69.90 47.18 74.01 47.41 C 102.34 47.55 130.67 47.36 158.99 47.52 C 159.47 42.11 159.15 36.68 159.17 31.26 C 129.76 31.17 100.34 31.42 70.94 31.13 M 136.29 106.30 C 124.44 109.33 120.66 125.74 128.42 134.57 C 134.59 141.96 147.01 142.49 153.98 135.96 C 161.17 129.36 161.19 116.62 154.05 109.98 C 149.36 105.67 142.30 104.49 136.29 106.30 M 45.35 124.42 C 34.24 125.93 28.44 139.29 32.96 149.03 C 37.02 159.50 51.87 162.12 60.22 155.29 C 68.15 149.02 68.60 135.64 61.21 128.78 C 57.10 124.71 50.91 123.45 45.35 124.42 Z" />
</g>
</svg>
