<?xml version="1.0" encoding="UTF-8" ?>
<!DOCTYPE svg PUBLIC "-//W3C//DTD SVG 1.1//EN" "http://www.w3.org/Graphics/SVG/1.1/DTD/svg11.dtd">
<svg width="192pt" height="192pt" viewBox="0 0 192 192" version="1.1" xmlns="http://www.w3.org/2000/svg">
<g id="#19afffff">
<path fill="#19afff" opacity="1.00" d=" M 84.89 34.99 C 84.73 24.02 94.01 13.93 105.02 13.45 C 114.69 13.24 124.38 13.35 134.07 13.38 C 142.46 13.29 149.92 20.62 150.20 28.97 C 150.91 37.43 144.05 45.62 135.57 46.31 C 129.63 46.60 123.68 46.32 117.74 46.42 C 117.69 77.64 117.80 108.86 117.72 140.07 C 117.55 157.03 104.61 172.75 88.04 176.26 C 73.23 179.83 56.81 173.23 48.34 160.64 C 39.53 148.20 39.36 130.46 47.83 117.81 C 57.13 103.09 77.52 96.07 93.55 103.49 C 98.66 106.37 95.18 115.37 89.39 113.59 C 80.32 110.27 69.57 111.72 62.27 118.25 C 53.25 125.70 50.13 139.30 55.16 149.89 C 59.92 160.88 72.56 167.80 84.39 165.46 C 96.47 163.43 106.25 152.26 106.47 139.97 C 106.66 106.98 106.45 73.98 106.60 40.98 C 106.39 37.99 108.93 35.16 111.96 35.22 C 119.63 34.87 127.32 35.49 134.97 34.95 C 140.46 34.12 140.07 25.17 134.57 24.72 C 125.37 24.40 116.15 24.66 106.94 24.59 C 101.29 24.28 95.97 29.20 96.14 34.92 C 95.93 53.29 96.37 71.68 95.93 90.04 C 95.61 96.27 85.33 96.26 85.01 90.03 C 84.63 71.70 84.89 53.33 84.89 34.99 Z" />
</g>
</svg>
