<?xml version="1.0" encoding="UTF-8" ?>
<!DOCTYPE svg PUBLIC "-//W3C//DTD SVG 1.1//EN" "http://www.w3.org/Graphics/SVG/1.1/DTD/svg11.dtd">
<svg width="192pt" height="192pt" viewBox="0 0 192 192" version="1.1" xmlns="http://www.w3.org/2000/svg">
<g id="#4ae46eff">
<path fill="#4ae46e" opacity="1.00" d=" M 91.70 16.74 C 94.25 13.43 99.92 15.26 100.66 19.16 C 101.51 22.84 103.50 26.16 106.48 28.51 C 120.57 39.85 136.11 49.32 149.71 61.28 C 162.33 72.41 172.26 87.43 174.61 104.33 C 176.73 118.60 170.50 133.41 159.52 142.59 C 156.48 145.50 152.56 147.30 149.66 150.36 C 153.52 150.30 159.32 150.88 159.34 155.99 C 159.93 161.12 154.05 162.33 150.15 161.86 C 149.80 166.82 151.95 175.75 144.88 176.61 C 112.25 176.88 79.60 176.85 46.97 176.67 C 39.51 176.14 41.63 166.90 41.30 161.83 C 38.69 161.63 35.67 162.26 33.42 160.58 C 30.31 158.40 30.73 152.80 34.33 151.35 C 36.56 150.48 39.02 150.70 41.36 150.48 C 39.10 147.07 34.97 145.70 32.13 142.85 C 21.28 133.80 14.59 119.41 16.59 105.19 C 18.90 89.42 27.98 75.25 39.65 64.67 C 54.81 51.37 71.79 40.27 86.62 26.60 C 89.78 24.14 89.45 19.71 91.70 16.74 M 34.28 88.25 C 28.66 97.63 25.02 109.40 28.97 120.10 C 32.32 129.59 40.53 136.16 48.88 141.16 C 52.28 142.96 52.80 146.96 52.57 150.42 C 81.35 150.53 110.12 150.39 138.90 150.48 C 139.07 147.42 139.12 143.84 141.88 141.85 C 148.28 136.66 155.69 132.21 160.15 125.06 C 165.10 117.01 164.50 106.86 161.98 98.10 C 157.87 84.50 147.78 73.78 137.04 64.94 C 123.79 53.63 107.97 45.56 95.74 33.03 C 76.43 52.71 49.58 64.70 34.28 88.25 M 52.65 162.15 C 52.63 162.95 52.60 164.54 52.58 165.34 C 81.33 165.60 110.09 165.33 138.85 165.47 C 138.90 164.36 138.96 163.25 139.01 162.13 C 110.22 162.13 81.43 162.09 52.65 162.15 Z" />
</g>
</svg>
