<?xml version="1.0" encoding="UTF-8" ?>
<!DOCTYPE svg PUBLIC "-//W3C//DTD SVG 1.1//EN" "http://www.w3.org/Graphics/SVG/1.1/DTD/svg11.dtd">
<svg width="192pt" height="192pt" viewBox="0 0 192 192" version="1.1" xmlns="http://www.w3.org/2000/svg">
<g id="#5fb1bdff">
<path fill="#5fb1bd" opacity="1.00" d=" M 84.40 14.51 C 117.12 9.38 151.63 26.58 167.47 55.60 C 184.38 84.89 180.32 124.44 157.65 149.57 C 134.83 176.53 93.81 185.33 61.91 170.18 C 29.51 155.93 9.25 119.04 14.87 84.04 C 19.30 48.82 49.20 18.96 84.40 14.51 M 87.37 25.47 C 65.74 27.89 45.83 41.19 34.92 59.96 C 24.37 77.73 22.42 100.21 29.44 119.60 C 37.97 143.80 60.63 162.33 86.13 165.59 C 109.35 168.96 133.86 159.91 149.14 142.08 C 168.43 120.66 172.11 87.10 158.08 61.96 C 144.84 36.84 115.55 21.70 87.37 25.47 Z" />
<path fill="#5fb1bd" opacity="1.00" d=" M 80.85 88.71 C 84.45 83.08 86.71 76.44 91.98 72.03 C 96.72 71.83 102.08 72.89 105.01 76.98 C 107.25 80.57 105.70 84.88 105.36 88.74 C 108.85 83.20 110.96 76.47 116.29 72.31 C 122.47 71.01 131.38 74.60 130.85 82.01 C 130.28 89.27 126.86 95.92 125.39 103.00 C 127.32 101.81 129.03 100.28 131.05 99.25 C 133.59 99.00 133.74 102.43 134.74 104.05 C 129.74 109.30 125.03 115.45 118.18 118.34 C 115.06 118.95 110.08 119.75 108.81 115.88 C 107.04 106.12 116.24 96.62 113.05 87.24 C 104.96 94.00 101.54 105.18 99.16 115.12 C 95.13 117.52 87.69 120.80 84.26 116.69 C 85.32 107.74 88.94 99.09 89.81 90.04 C 90.37 88.03 87.62 86.39 86.67 88.62 C 81.25 96.18 77.72 105.21 76.38 114.41 C 72.89 117.89 64.84 120.52 61.15 116.81 C 61.66 105.38 65.44 94.25 65.64 82.78 C 63.82 82.24 61.99 81.79 60.14 81.40 C 60.43 78.99 60.79 76.60 61.25 74.23 C 67.52 74.24 73.77 73.55 80.03 73.24 C 81.26 73.17 83.46 73.09 83.40 74.89 C 82.71 79.53 81.14 84.01 80.85 88.71 Z" />
</g>
</svg>
