<?xml version="1.0" encoding="UTF-8" ?>
<!DOCTYPE svg PUBLIC "-//W3C//DTD SVG 1.1//EN" "http://www.w3.org/Graphics/SVG/1.1/DTD/svg11.dtd">
<svg width="192pt" height="192pt" viewBox="0 0 192 192" version="1.1" xmlns="http://www.w3.org/2000/svg">
<g id="#ff8a1fff">
<path fill="#ff8a1f" opacity="1.00" d=" M 39.30 21.34 C 74.11 19.92 109.11 21.15 144.00 20.71 C 152.96 20.02 162.08 24.68 166.43 32.60 C 171.25 40.86 169.11 50.78 169.47 59.84 C 169.56 65.77 160.26 67.04 158.70 61.34 C 157.82 54.95 158.90 48.43 158.16 42.02 C 157.22 35.89 151.13 31.43 145.04 31.83 C 111.67 31.84 78.30 31.79 44.94 31.83 C 39.29 31.74 33.87 35.88 32.70 41.44 C 31.74 48.17 33.23 55.12 31.92 61.78 C 30.11 66.59 22.33 65.89 21.46 60.83 C 21.08 55.21 21.38 49.56 21.31 43.93 C 21.21 33.44 29.08 23.61 39.30 21.34 Z" />
<path fill="#ff8a1f" opacity="1.00" d=" M 99.21 66.49 C 101.99 66.37 103.95 68.96 104.76 71.35 C 108.46 81.45 104.68 92.46 107.19 102.72 C 108.49 107.53 113.56 108.75 117.56 110.40 C 120.79 111.97 119.12 116.68 115.94 117.06 C 109.84 118.30 103.57 114.86 100.15 109.88 C 93.22 100.22 92.17 87.62 93.28 76.12 C 93.86 72.46 94.95 67.35 99.21 66.49 Z" />
<path fill="#ff8a1f" opacity="1.00" d=" M 106.12 71.30 C 113.86 65.40 124.90 67.87 134.01 68.15 C 140.07 69.39 147.31 69.92 151.48 75.07 C 149.11 83.19 135.50 76.09 135.30 85.00 C 133.25 95.75 133.42 107.36 128.27 117.23 C 126.72 121.09 121.65 119.50 121.09 115.87 C 117.57 104.27 120.07 91.93 119.14 80.02 C 115.52 76.70 105.68 77.87 106.12 71.30 Z" />
<path fill="#ff8a1f" opacity="1.00" d=" M 18.11 86.05 C 20.53 71.40 43.78 68.95 50.61 81.39 C 53.41 86.81 49.48 92.46 45.04 95.46 C 47.28 96.47 49.40 97.73 51.31 99.30 C 52.52 96.28 49.23 92.68 51.58 89.54 C 58.44 76.92 78.14 74.12 88.99 83.02 C 95.01 87.79 93.00 97.19 86.99 101.01 C 77.96 107.62 62.67 109.55 54.56 100.76 C 54.50 104.64 58.04 108.65 55.83 112.85 C 50.29 127.08 26.55 127.98 19.82 114.30 C 16.89 105.26 16.64 95.40 18.11 86.05 M 33.37 81.46 C 30.63 81.97 28.15 84.76 29.33 87.63 C 31.70 92.23 40.05 91.75 41.77 86.81 C 42.58 82.32 36.90 80.42 33.37 81.46 M 70.32 89.40 C 66.07 89.83 58.92 94.36 63.05 98.99 C 68.73 103.35 79.12 102.25 82.93 95.84 C 83.87 89.20 74.98 88.37 70.32 89.40 M 35.35 103.49 C 31.93 104.08 27.83 108.07 30.51 111.53 C 34.82 116.57 45.87 115.84 47.72 108.88 C 47.25 103.17 39.79 102.35 35.35 103.49 Z" />
<path fill="#ff8a1f" opacity="1.00" d=" M 155.58 75.60 C 157.41 71.42 162.50 74.37 165.84 74.37 C 168.34 75.18 172.41 74.21 173.62 76.97 C 171.93 80.72 168.16 83.09 166.83 87.01 C 168.94 87.65 174.58 87.22 172.87 90.68 C 163.70 100.92 154.51 111.19 144.86 120.98 C 142.24 120.76 139.63 120.36 137.08 119.75 C 139.73 110.97 146.92 103.92 151.10 95.66 C 149.65 95.07 148.21 94.46 146.74 93.92 C 148.78 87.45 152.73 81.75 155.58 75.60 Z" />
<path fill="#ff8a1f" opacity="1.00" d=" M 162.39 121.44 C 165.85 120.27 169.73 123.35 169.50 126.97 C 169.54 133.98 169.67 140.99 169.43 147.99 C 168.74 159.47 158.46 169.34 146.95 169.51 C 112.65 169.58 78.35 169.56 44.05 169.51 C 32.12 169.48 21.53 158.96 21.33 147.05 C 21.39 142.18 20.95 137.26 21.58 132.42 C 22.87 127.59 30.38 127.45 31.96 132.16 C 33.13 137.54 31.86 143.14 32.66 148.57 C 33.74 154.22 39.20 158.63 44.98 158.33 C 78.66 158.32 112.34 158.34 146.02 158.31 C 152.23 158.51 157.98 153.24 158.29 147.03 C 158.61 140.08 158.15 133.10 158.48 126.15 C 158.58 123.94 160.32 122.04 162.39 121.44 Z" />
</g>
</svg>
