<?xml version="1.0" encoding="UTF-8" ?>
<!DOCTYPE svg PUBLIC "-//W3C//DTD SVG 1.1//EN" "http://www.w3.org/Graphics/SVG/1.1/DTD/svg11.dtd">
<svg width="192pt" height="192pt" viewBox="0 0 192 192" version="1.1" xmlns="http://www.w3.org/2000/svg">
<g id="#8b74b1ff">
<path fill="#8b74b1" opacity="1.00" d=" M 59.07 21.14 C 91.77 4.43 134.93 13.41 158.17 41.86 C 161.18 45.31 166.10 50.49 161.90 54.95 C 141.78 75.39 121.20 95.40 101.18 115.93 C 102.23 119.11 107.37 120.62 106.41 124.26 C 102.36 126.21 97.41 124.65 93.00 125.14 C 90.11 124.70 86.16 126.28 83.99 123.89 C 83.71 116.97 83.59 109.98 84.07 103.07 C 87.71 100.42 89.90 106.76 92.88 108.12 C 112.01 88.75 131.50 69.70 150.56 50.25 C 130.50 24.69 92.19 16.50 63.43 31.59 C 34.66 45.40 18.48 80.02 26.10 110.99 C 28.12 117.06 18.62 120.73 15.84 115.18 C 5.32 78.83 24.94 37.16 59.07 21.14 Z" />
<path fill="#8b74b1" opacity="1.00" d=" M 81.21 61.20 C 88.13 61.28 95.75 60.13 102.27 61.79 C 103.44 68.53 102.66 75.83 102.68 82.76 C 98.78 87.21 96.20 75.87 91.94 79.96 C 74.25 97.61 56.58 115.28 38.88 132.91 C 38.06 133.75 36.72 134.96 37.70 136.22 C 57.45 165.46 100.38 174.73 130.59 156.58 C 159.01 140.98 173.33 104.77 163.22 73.94 C 160.12 67.64 170.10 62.63 173.26 68.74 C 184.76 100.62 173.60 139.05 146.72 159.75 C 128.78 174.08 104.62 179.83 82.06 176.19 C 58.21 172.49 36.52 157.48 24.37 136.67 C 22.98 134.65 23.52 131.91 25.37 130.38 C 44.87 110.89 64.42 91.45 83.92 71.96 C 88.38 67.89 76.39 64.93 81.21 61.20 Z" />
</g>
</svg>
