<?xml version="1.0" encoding="UTF-8" ?>
<!DOCTYPE svg PUBLIC "-//W3C//DTD SVG 1.1//EN" "http://www.w3.org/Graphics/SVG/1.1/DTD/svg11.dtd">
<svg width="192pt" height="192pt" viewBox="0 0 192 192" version="1.1" xmlns="http://www.w3.org/2000/svg">
<g id="#19b0ffff">
<path fill="#19b0ff" opacity="1.00" d=" M 27.31 36.35 C 29.81 35.68 32.43 35.68 35.00 35.66 C 76.67 35.73 118.34 35.60 160.00 35.70 C 169.66 35.51 178.25 44.27 177.85 53.92 C 177.86 81.97 177.93 110.02 177.84 138.07 C 177.90 147.46 169.41 155.73 160.04 155.54 C 117.35 155.57 74.65 155.55 31.95 155.52 C 22.58 155.74 14.07 147.49 14.10 138.10 C 14.01 110.05 14.09 81.98 14.09 53.93 C 13.80 45.93 19.57 38.31 27.31 36.35 M 25.71 54.95 C 25.73 82.32 25.68 109.70 25.75 137.07 C 25.53 140.53 28.42 143.90 31.98 143.75 C 38.65 143.92 45.34 143.74 52.02 143.79 C 51.96 111.67 52.25 79.55 51.91 47.44 C 44.99 47.58 38.06 47.27 31.15 47.56 C 27.52 47.76 25.36 51.59 25.71 54.95 M 63.78 47.44 C 63.75 49.75 63.71 52.07 63.69 54.38 C 85.16 54.45 106.63 54.39 128.09 54.39 C 128.10 52.09 128.10 49.78 128.08 47.48 C 106.65 47.46 85.21 47.50 63.78 47.44 M 139.86 47.48 C 139.85 79.57 139.86 111.65 139.88 143.74 C 146.59 143.76 153.31 143.91 160.02 143.73 C 163.51 143.78 166.39 140.52 166.05 137.07 C 166.08 109.36 166.13 81.64 166.06 53.93 C 166.30 50.53 163.40 47.42 159.98 47.52 C 153.27 47.37 146.56 47.54 139.86 47.48 M 63.71 66.18 C 63.74 92.04 63.73 117.89 63.73 143.75 C 85.20 143.85 106.66 143.78 128.13 143.78 C 128.08 141.44 127.99 139.11 127.90 136.78 C 118.04 136.64 108.15 137.09 98.32 136.57 C 92.69 135.49 92.64 126.47 98.27 125.32 C 108.16 124.58 118.15 125.26 128.08 124.99 C 128.11 105.39 128.10 85.79 128.10 66.19 C 106.64 66.17 85.17 66.20 63.71 66.18 Z" />
<path fill="#19b0ff" opacity="1.00" d=" M 34.90 75.40 C 35.03 72.78 35.48 68.87 39.00 69.07 C 42.38 69.07 42.75 72.82 42.89 75.38 C 45.39 75.49 49.03 75.83 49.20 79.08 C 49.64 82.74 45.51 83.24 42.84 83.42 C 42.82 85.94 42.35 89.74 39.01 89.65 C 35.56 89.90 35.01 86.00 34.92 83.42 C 32.26 83.29 28.21 82.63 28.61 79.07 C 28.74 75.79 32.42 75.56 34.90 75.40 Z" />
<path fill="#19b0ff" opacity="1.00" d=" M 157.20 72.43 C 161.96 71.78 162.82 79.72 157.92 79.89 C 153.11 80.65 152.36 72.65 157.20 72.43 Z" />
<path fill="#19b0ff" opacity="1.00" d=" M 148.20 81.47 C 153.15 81.18 153.08 89.61 148.01 88.95 C 143.33 88.98 143.52 81.19 148.20 81.47 Z" />
<path fill="#19b0ff" opacity="1.00" d=" M 31.25 112.29 C 35.77 111.76 40.38 111.87 44.92 112.19 C 48.37 112.89 48.53 118.59 44.98 119.29 C 40.38 119.60 35.69 119.72 31.11 119.17 C 28.24 117.86 28.30 113.42 31.25 112.29 Z" />
<path fill="#19b0ff" opacity="1.00" d=" M 80.35 125.40 C 84.69 123.69 89.53 128.50 87.77 132.85 C 86.65 136.94 80.74 138.15 78.00 135.00 C 75.03 132.14 76.39 126.56 80.35 125.40 Z" />
<path fill="#19b0ff" opacity="1.00" d=" M 31.23 127.20 C 35.73 126.59 40.37 126.70 44.89 127.11 C 48.39 127.73 48.53 133.44 45.01 134.21 C 40.68 134.61 36.30 134.55 31.97 134.25 C 28.47 133.88 27.87 128.32 31.23 127.20 Z" />
</g>
</svg>
