<?xml version="1.0" encoding="UTF-8" ?>
<!DOCTYPE svg PUBLIC "-//W3C//DTD SVG 1.1//EN" "http://www.w3.org/Graphics/SVG/1.1/DTD/svg11.dtd">
<svg width="192pt" height="192pt" viewBox="0 0 192 192" version="1.1" xmlns="http://www.w3.org/2000/svg">
<g id="#fc604cff">
<path fill="#fc604c" opacity="1.00" d=" M 86.48 23.43 C 85.03 10.80 107.23 10.34 106.25 22.98 C 115.37 26.97 125.01 29.73 134.04 33.92 C 140.56 37.59 140.41 46.35 138.53 52.64 C 135.07 62.63 131.64 72.86 125.76 81.73 C 122.13 86.24 114.24 81.67 116.29 76.28 C 121.40 65.97 127.15 55.36 128.43 43.79 C 118.21 38.58 106.07 36.98 96.84 30.04 C 94.99 31.53 93.24 33.32 90.84 33.89 C 81.77 36.31 73.06 39.99 64.55 43.87 C 65.82 52.51 68.39 60.92 72.29 68.74 C 74.48 74.15 66.44 78.82 62.83 74.21 C 57.88 66.28 55.62 57.03 53.73 47.97 C 52.44 42.13 55.03 35.09 60.94 32.92 C 69.41 29.65 77.64 25.67 86.48 23.43 Z" />
<path fill="#fc604c" opacity="1.00" d=" M 171.69 70.73 C 176.48 67.94 182.20 74.39 178.99 78.84 C 172.99 85.78 164.44 89.96 155.92 92.95 C 136.64 99.33 115.79 98.52 96.01 95.08 C 76.32 91.82 55.23 91.75 36.72 100.09 C 41.25 105.62 41.91 114.31 36.66 119.61 C 31.03 126.20 19.52 125.47 14.70 118.29 C 9.84 111.88 12.00 101.83 18.96 97.87 C 42.42 79.85 74.21 79.32 102.11 84.61 C 125.62 88.07 153.24 87.95 171.69 70.73 Z" />
<path fill="#fc604c" opacity="1.00" d=" M 73.24 100.35 C 75.14 96.88 80.84 96.80 82.75 100.30 C 86.12 106.32 85.73 114.13 81.91 119.86 C 78.00 126.82 70.87 132.13 69.76 140.47 C 69.01 147.77 69.71 155.13 69.72 162.44 C 86.53 167.67 104.80 167.33 121.71 162.71 C 122.38 151.93 125.47 139.36 117.69 130.32 C 112.34 123.16 103.45 114.38 108.91 104.84 C 113.52 98.97 121.84 105.90 118.48 112.04 C 122.63 119.54 129.63 125.31 132.33 133.62 C 135.62 143.48 133.63 153.97 132.97 164.08 C 132.87 168.19 130.11 172.05 126.09 173.14 C 106.59 178.91 85.38 179.11 65.92 173.12 C 60.88 171.53 58.04 166.15 58.40 161.07 C 58.50 151.02 56.68 140.44 60.87 130.93 C 63.72 123.59 70.52 118.68 73.48 111.42 C 74.91 107.69 70.77 103.87 73.24 100.35 Z" />
</g>
</svg>
