<?xml version="1.0" encoding="UTF-8" ?>
<!DOCTYPE svg PUBLIC "-//W3C//DTD SVG 1.1//EN" "http://www.w3.org/Graphics/SVG/1.1/DTD/svg11.dtd">
<svg width="192pt" height="192pt" viewBox="0 0 192 192" version="1.1" xmlns="http://www.w3.org/2000/svg">
<g id="#1ab0ffff">
<path fill="#1ab0ff" opacity="1.00" d=" M 84.42 14.53 C 116.12 9.59 149.56 25.50 165.93 53.03 C 178.76 73.73 181.36 100.26 173.15 123.14 C 163.39 151.22 137.22 172.78 107.71 176.69 C 76.65 181.61 43.80 166.54 27.07 139.96 C 8.47 111.90 10.04 72.35 30.87 45.89 C 43.73 29.00 63.34 17.36 84.42 14.53 M 87.38 25.48 C 66.03 27.93 46.31 40.89 35.35 59.33 C 24.89 76.51 22.46 98.26 28.73 117.36 C 36.68 142.67 59.99 162.26 86.34 165.59 C 109.71 168.98 134.33 159.57 149.54 141.52 C 168.98 119.55 172.11 85.15 156.94 60.04 C 143.28 36.06 114.77 21.85 87.38 25.48 Z" />
<path fill="#1ab0ff" opacity="1.00" d=" M 90.77 37.69 C 92.29 32.56 100.58 33.11 101.41 38.38 C 102.02 44.97 101.33 51.62 101.69 58.23 C 107.39 60.06 113.19 61.83 118.11 65.39 C 123.18 60.68 127.58 55.20 133.05 50.97 C 137.75 48.24 143.52 54.70 140.12 59.04 C 135.82 64.12 130.76 68.51 126.12 73.29 C 129.47 78.29 131.87 83.89 132.99 89.83 C 139.92 90.12 146.91 89.37 153.80 90.22 C 158.97 91.79 158.39 100.25 152.96 100.95 C 146.34 101.53 139.67 101.03 133.03 101.18 C 131.97 107.12 129.60 112.73 126.24 117.72 C 130.79 122.49 135.80 126.84 140.09 131.86 C 143.59 136.20 137.81 142.75 133.06 140.01 C 127.59 135.88 123.31 130.37 118.22 125.79 C 113.22 129.21 107.57 131.55 101.63 132.72 C 101.50 139.36 101.96 146.03 101.43 152.65 C 100.51 158.20 91.49 158.20 90.59 152.63 C 90.08 146.02 90.54 139.37 90.38 132.74 C 84.42 131.57 78.73 129.25 73.72 125.81 C 68.62 130.40 64.33 135.92 58.84 140.04 C 54.08 142.70 48.53 136.13 51.92 131.87 C 56.19 126.87 61.19 122.54 65.73 117.78 C 62.31 112.78 59.99 107.11 58.84 101.17 C 52.24 101.03 45.60 101.55 39.03 100.91 C 33.68 100.22 33.06 91.75 38.22 90.25 C 45.05 89.37 51.99 90.09 58.87 89.88 C 60.06 83.92 62.40 78.26 65.84 73.25 C 61.23 68.47 56.18 64.10 51.90 59.03 C 48.57 54.67 54.22 48.24 58.94 50.99 C 64.39 55.22 68.77 60.66 73.82 65.34 C 78.82 61.99 84.44 59.60 90.38 58.55 C 90.67 51.61 89.90 44.58 90.77 37.69 M 92.39 70.52 C 79.38 72.07 69.17 84.95 70.70 97.98 C 71.67 112.90 87.67 124.31 102.10 120.19 C 116.74 116.95 125.61 99.36 119.26 85.70 C 115.01 75.38 103.45 68.76 92.39 70.52 Z" />
<path fill="#1ab0ff" opacity="1.00" d=" M 90.18 89.73 C 90.38 87.60 90.66 85.46 91.36 83.43 C 92.95 84.68 94.48 86.00 96.00 87.35 C 97.50 86.00 99.02 84.68 100.59 83.41 C 101.35 85.42 101.64 87.54 101.86 89.67 C 103.65 89.81 105.44 89.93 107.21 90.22 C 107.68 92.49 105.41 93.80 104.24 95.40 C 105.50 96.90 106.76 98.42 107.76 100.12 C 105.92 101.18 103.76 101.16 101.71 101.40 C 101.62 103.37 101.49 105.35 101.30 107.32 C 99.41 106.39 97.68 105.18 95.99 103.92 C 94.32 105.16 92.62 106.37 90.74 107.26 C 90.54 105.30 90.40 103.33 90.30 101.37 C 88.50 101.19 86.70 101.06 84.93 100.73 C 84.04 98.46 86.70 97.15 87.80 95.53 C 86.59 93.87 84.44 92.48 84.72 90.18 C 86.53 89.92 88.35 89.84 90.18 89.73 Z" />
</g>
</svg>
