<?xml version="1.0" encoding="UTF-8" ?>
<!DOCTYPE svg PUBLIC "-//W3C//DTD SVG 1.1//EN" "http://www.w3.org/Graphics/SVG/1.1/DTD/svg11.dtd">
<svg width="192pt" height="192pt" viewBox="0 0 192 192" version="1.1" xmlns="http://www.w3.org/2000/svg">
<g id="#a419ffff">
<path fill="#a419ff" opacity="1.00" d=" M 35.40 17.44 C 36.80 16.68 38.46 16.81 39.99 16.72 C 73.65 16.79 107.32 16.67 140.98 16.76 C 153.20 16.73 164.00 27.74 163.82 39.94 C 163.84 66.98 163.97 94.03 163.77 121.07 C 163.08 148.02 139.84 171.85 112.95 173.36 C 92.65 173.76 72.33 173.48 52.03 173.50 C 39.65 173.55 28.78 162.39 29.06 150.04 C 29.11 113.37 28.88 76.69 29.21 40.03 C 29.72 33.33 40.64 34.27 40.17 40.95 C 40.38 77.32 40.18 113.70 40.27 150.07 C 40.03 156.82 46.28 162.76 53.01 162.33 C 72.32 162.28 91.64 162.42 110.95 162.24 C 132.61 161.60 151.70 142.74 152.56 121.08 C 152.84 94.37 152.61 67.64 152.68 40.93 C 153.21 33.95 146.97 27.63 140.01 27.87 C 106.00 27.71 71.99 27.91 37.98 27.75 C 32.50 28.12 30.54 19.77 35.40 17.44 Z" />
<path fill="#a419ff" opacity="1.00" d=" M 51.45 36.51 C 53.03 35.29 55.14 35.56 57.00 35.45 C 83.67 35.56 110.34 35.37 137.01 35.53 C 140.46 35.37 142.88 38.75 142.52 42.00 C 142.54 58.00 142.56 74.00 142.51 90.01 C 142.90 93.63 139.60 96.62 136.05 96.18 C 109.01 96.17 81.96 96.25 54.93 96.13 C 51.61 96.38 48.88 93.33 49.20 90.09 C 49.14 74.38 49.24 58.67 49.17 42.97 C 49.13 40.65 49.29 37.91 51.45 36.51 M 60.18 46.48 C 60.24 59.37 60.19 72.25 60.21 85.14 C 83.95 85.12 107.70 85.17 131.44 85.09 C 131.45 72.22 131.49 59.35 131.42 46.48 C 107.67 46.48 83.93 46.46 60.18 46.48 Z" />
<path fill="#a419ff" opacity="1.00" d=" M 62.11 120.13 C 63.33 116.50 68.40 115.22 71.17 117.87 C 74.12 120.60 72.90 125.09 73.16 128.65 C 76.31 128.74 79.62 128.21 82.64 129.32 C 86.41 131.10 86.73 137.05 83.10 139.16 C 80.04 140.72 76.42 139.99 73.11 140.10 C 73.11 143.28 73.51 146.57 72.62 149.67 C 70.96 153.97 63.99 154.00 62.28 149.71 C 61.35 146.61 61.80 143.30 61.73 140.11 C 58.43 139.99 54.85 140.69 51.80 139.16 C 48.12 137.05 48.43 130.99 52.31 129.27 C 55.33 128.24 58.61 128.75 61.74 128.67 C 61.76 125.82 61.51 122.93 62.11 120.13 Z" />
<path fill="#a419ff" opacity="1.00" d=" M 126.33 118.41 C 132.23 116.47 139.12 120.80 139.90 126.97 C 141.11 132.97 136.10 139.16 130.03 139.42 C 124.56 139.87 119.28 135.46 118.71 130.02 C 117.97 124.96 121.39 119.74 126.33 118.41 Z" />
<path fill="#a419ff" opacity="1.00" d=" M 104.34 134.45 C 109.95 131.89 117.11 135.39 118.74 141.27 C 120.56 146.68 117.11 152.98 111.68 154.58 C 106.32 156.50 99.98 153.09 98.30 147.72 C 96.49 142.59 99.28 136.44 104.34 134.45 Z" />
</g>
</svg>
