<?xml version="1.0" encoding="UTF-8" ?>
<!DOCTYPE svg PUBLIC "-//W3C//DTD SVG 1.1//EN" "http://www.w3.org/Graphics/SVG/1.1/DTD/svg11.dtd">
<svg width="192pt" height="192pt" viewBox="0 0 192 192" version="1.1" xmlns="http://www.w3.org/2000/svg">
<g id="#5f6f81ff">
<path fill="#5f6f81" opacity="1.00" d=" M 39.29 22.38 C 69.44 20.87 99.78 22.15 130.00 21.72 C 138.21 22.14 146.74 20.56 154.68 23.23 C 164.04 26.47 170.48 36.15 170.20 46.01 C 170.16 80.01 170.28 114.02 170.15 148.03 C 170.01 160.11 159.19 170.94 147.05 170.73 C 112.68 170.75 78.31 170.76 43.95 170.71 C 31.94 170.76 21.25 160.05 21.17 148.06 C 21.08 113.70 21.13 79.32 21.16 44.95 C 21.06 34.43 29.04 24.61 39.29 22.38 M 32.40 44.93 C 32.34 78.97 32.39 113.02 32.38 147.06 C 32.06 153.82 38.21 159.84 44.93 159.56 C 78.64 159.61 112.35 159.58 146.06 159.56 C 152.89 159.93 159.11 153.93 158.92 147.08 C 158.99 113.37 158.97 79.65 158.93 45.93 C 159.30 40.24 155.31 35.42 150.25 33.34 C 149.91 44.55 150.51 55.78 149.96 66.97 C 149.67 72.73 140.63 73.44 139.29 67.93 C 138.54 56.36 139.30 44.71 138.89 33.11 C 135.99 33.16 133.08 33.18 130.17 33.16 C 130.12 44.46 130.40 55.78 130.06 67.08 C 129.73 72.89 120.51 73.33 119.38 67.74 C 118.70 56.24 119.39 44.67 119.05 33.14 C 116.15 33.17 113.24 33.18 110.34 33.17 C 110.44 43.12 110.32 53.06 110.41 63.00 C 110.33 65.55 110.63 68.66 108.43 70.47 C 105.39 73.35 99.55 71.17 99.40 66.90 C 99.09 55.66 99.43 44.40 99.25 33.15 C 90.88 33.15 82.51 33.18 74.14 33.14 C 73.96 44.41 74.58 55.72 73.84 66.96 C 73.56 72.70 64.52 73.43 63.17 67.92 C 62.42 56.36 63.15 44.72 62.81 33.14 C 59.92 33.16 57.03 33.17 54.14 33.14 C 54.20 43.09 54.11 53.04 54.20 63.00 C 54.16 65.73 54.29 69.09 51.74 70.83 C 48.60 73.14 43.41 71.00 43.18 67.00 C 42.74 55.61 43.42 44.20 42.76 32.81 C 37.32 34.33 32.26 38.90 32.40 44.93 Z" />
</g>
</svg>
