<?xml version="1.0" encoding="UTF-8" ?>
<!DOCTYPE svg PUBLIC "-//W3C//DTD SVG 1.1//EN" "http://www.w3.org/Graphics/SVG/1.1/DTD/svg11.dtd">
<svg width="192pt" height="192pt" viewBox="0 0 192 192" version="1.1" xmlns="http://www.w3.org/2000/svg">
<g id="#18b9c5ff">
<path fill="#18b9c5" opacity="1.00" d=" M 91.13 41.17 C 94.20 39.53 97.94 39.23 101.07 40.89 C 124.64 51.99 148.23 63.04 171.76 74.22 C 175.71 75.66 177.28 81.18 174.26 84.24 C 171.63 86.55 168.20 87.62 165.13 89.21 C 164.93 101.12 165.34 113.06 164.93 124.97 C 164.20 130.92 154.66 130.94 153.89 125.01 C 153.48 114.93 153.94 104.83 153.65 94.75 C 150.48 96.21 147.35 97.76 144.23 99.33 C 143.63 108.56 144.02 117.81 143.94 127.04 C 142.72 139.30 129.95 145.51 119.42 148.46 C 99.13 153.36 75.75 152.95 57.79 141.24 C 48.62 135.66 47.59 123.91 49.41 114.35 C 50.92 110.25 57.23 109.73 59.39 113.53 C 61.94 118.42 58.55 124.63 61.57 129.40 C 65.41 133.34 70.66 135.61 75.89 137.09 C 91.03 141.57 107.56 140.70 122.35 135.36 C 126.73 133.36 132.58 130.60 132.58 125.00 C 132.58 118.32 132.59 111.63 132.47 104.95 C 121.72 109.96 111.13 115.32 100.37 120.31 C 97.46 121.80 94.06 121.25 91.27 119.78 C 67.88 108.47 44.42 97.28 21.05 85.91 C 16.14 84.16 15.70 76.60 20.59 74.54 C 44.03 63.28 67.64 52.34 91.13 41.17 M 94.36 52.31 C 74.92 61.79 54.99 70.37 35.82 80.32 C 55.29 89.84 74.88 99.12 94.42 108.49 C 96.47 109.90 98.66 108.34 100.58 107.50 C 119.41 98.31 138.42 89.48 157.19 80.17 C 138.02 70.78 118.57 61.94 99.34 52.68 C 97.79 51.85 95.95 51.14 94.36 52.31 Z" />
</g>
</svg>
