<?xml version="1.0" encoding="UTF-8" ?>
<!DOCTYPE svg PUBLIC "-//W3C//DTD SVG 1.1//EN" "http://www.w3.org/Graphics/SVG/1.1/DTD/svg11.dtd">
<svg width="192pt" height="192pt" viewBox="0 0 192 192" version="1.1" xmlns="http://www.w3.org/2000/svg">
<g id="#46e371ff">
<path fill="#46e371" opacity="1.00" d=" M 57.14 36.81 C 69.23 28.14 83.79 21.80 98.95 22.84 C 112.03 23.47 124.19 29.37 134.72 36.82 C 136.51 33.60 137.58 29.85 140.20 27.18 C 143.54 24.31 149.24 27.71 148.36 32.03 C 146.99 36.62 144.25 40.64 142.32 45.00 C 148.70 53.23 153.22 63.01 154.49 73.39 C 155.90 85.77 154.38 98.28 155.45 110.65 C 156.15 113.87 158.55 118.99 162.61 117.59 C 167.74 114.70 166.40 108.12 168.55 103.60 C 171.63 98.99 178.73 103.02 177.75 107.99 C 178.42 119.50 167.24 132.90 155.08 127.06 C 155.10 133.38 155.10 139.70 155.10 146.03 C 155.55 152.53 149.13 156.09 145.63 160.66 C 142.66 164.65 136.74 162.59 135.73 158.06 C 133.76 163.79 124.46 162.46 125.23 156.09 C 125.75 149.60 135.38 150.39 135.94 156.56 C 138.34 151.36 145.61 148.48 144.54 142.03 C 144.54 121.68 144.63 101.33 144.53 80.98 C 144.57 64.94 135.82 49.26 122.18 40.83 C 106.40 31.02 84.75 30.63 69.27 41.29 C 59.31 47.58 51.95 57.53 48.80 68.87 C 47.65 74.33 38.94 73.51 38.68 68.01 C 40.16 59.57 44.56 51.91 49.57 45.05 C 47.65 40.66 44.85 36.62 43.54 31.99 C 42.61 27.68 48.39 24.29 51.66 27.27 C 54.27 29.90 55.35 33.62 57.14 36.81 Z" />
<path fill="#46e371" opacity="1.00" d=" M 71.44 63.66 C 88.44 61.32 89.64 93.13 72.98 93.38 C 59.52 90.83 58.85 68.01 71.44 63.66 Z" />
<path fill="#46e371" opacity="1.00" d=" M 116.42 63.59 C 133.10 61.82 134.22 92.61 117.98 93.40 C 104.13 91.28 103.45 67.61 116.42 63.59 Z" />
<path fill="#46e371" opacity="1.00" d=" M 41.38 78.47 C 45.20 77.83 48.65 82.32 46.83 85.82 C 45.37 89.51 39.55 89.87 37.66 86.38 C 35.63 83.35 37.77 78.87 41.38 78.47 Z" />
<path fill="#46e371" opacity="1.00" d=" M 37.58 97.52 C 39.75 92.85 47.43 94.84 47.22 99.96 C 47.57 115.26 47.07 130.59 47.45 145.88 C 49.41 149.29 52.52 152.02 55.23 154.89 C 60.69 152.27 62.98 143.20 69.89 143.15 C 75.18 145.48 77.83 151.29 82.17 154.91 C 87.65 152.21 89.93 143.13 96.88 143.15 C 102.10 145.70 105.10 151.27 109.18 155.27 C 112.40 152.81 114.28 148.70 118.06 147.04 C 122.35 145.61 126.49 151.09 123.84 154.75 C 120.47 159.02 116.79 163.06 112.97 166.93 C 111.22 169.08 107.75 169.00 105.93 167.00 C 102.41 163.56 99.27 159.75 95.91 156.16 C 91.30 160.14 88.35 167.37 82.02 168.48 C 76.35 166.34 73.39 160.12 68.98 156.16 C 65.23 160.04 62.07 164.56 57.79 167.89 C 53.66 170.17 50.61 165.46 48.13 162.88 C 44.62 158.45 39.90 154.84 37.33 149.76 C 36.36 142.26 37.10 134.64 36.82 127.10 C 23.19 133.59 10.85 116.13 14.87 103.94 C 16.78 100.68 22.16 100.89 23.73 104.35 C 25.41 108.63 24.58 114.25 28.74 117.26 C 31.23 119.30 34.06 116.42 35.16 114.24 C 38.13 109.10 35.79 102.90 37.58 97.52 Z" />
</g>
</svg>
