<?xml version="1.0" encoding="UTF-8" ?>
<!DOCTYPE svg PUBLIC "-//W3C//DTD SVG 1.1//EN" "http://www.w3.org/Graphics/SVG/1.1/DTD/svg11.dtd">
<svg width="192pt" height="192pt" viewBox="0 0 192 192" version="1.1" xmlns="http://www.w3.org/2000/svg">
<g id="#ff517dff">
<path fill="#ff517d" opacity="1.00" d=" M 69.43 21.50 C 85.36 13.13 105.29 14.04 121.29 21.72 C 135.39 29.83 152.52 28.00 167.74 24.64 C 170.93 23.58 174.46 25.78 175.03 29.06 C 178.62 43.55 177.88 59.92 169.82 72.83 C 167.90 76.44 161.51 77.27 159.79 73.09 C 158.21 70.47 160.13 67.65 161.24 65.27 C 165.85 56.48 167.10 46.12 165.15 36.42 C 156.92 38.65 148.35 38.96 139.87 38.60 C 147.66 55.21 151.57 73.28 157.49 90.57 C 160.06 93.91 163.71 96.48 165.49 100.45 C 171.78 112.08 167.42 126.16 160.37 136.39 C 142.85 161.85 110.02 177.05 79.31 170.63 C 56.58 165.83 35.71 150.65 25.51 129.59 C 20.86 119.81 19.28 107.95 23.86 97.85 C 27.31 89.57 35.39 84.34 43.56 81.49 C 47.95 79.39 53.03 85.36 50.32 89.38 C 47.60 93.88 41.32 93.16 37.93 96.92 C 30.41 103.72 31.06 115.46 35.05 123.98 C 48.89 153.98 87.76 169.52 118.28 156.21 C 132.75 149.95 146.23 139.90 153.84 125.82 C 156.83 119.84 159.38 112.39 155.94 106.05 C 152.85 99.51 145.73 96.73 139.28 94.71 C 133.46 92.07 136.79 82.09 143.20 83.65 C 137.33 67.15 136.71 46.79 121.87 35.16 C 105.90 24.18 81.65 23.14 66.95 36.93 C 57.33 45.47 52.12 57.72 49.01 69.94 C 47.83 75.70 38.25 74.79 38.26 68.86 C 39.68 58.01 44.88 48.05 50.23 38.64 C 42.88 37.97 35.55 36.77 28.18 36.39 C 26.35 36.05 25.93 38.04 25.57 39.37 C 24.04 49.38 26.49 59.67 31.44 68.42 C 34.63 73.83 25.32 79.22 22.12 73.90 C 13.33 60.50 11.41 42.74 16.79 27.66 C 17.87 24.15 22.11 24.08 25.03 24.96 C 39.58 28.04 56.25 29.93 69.43 21.50 Z" />
<path fill="#ff517d" opacity="1.00" d=" M 53.35 118.39 C 56.82 117.30 59.23 120.52 61.49 122.54 C 72.19 132.48 87.49 138.96 102.14 135.23 C 112.36 132.86 120.64 126.11 128.14 119.15 C 132.66 115.59 139.08 122.12 135.69 126.63 C 125.10 138.37 110.13 147.16 93.99 147.36 C 77.73 147.48 62.25 139.36 51.12 127.86 C 47.93 125.13 49.24 119.36 53.35 118.39 Z" />
</g>
</svg>
