<?xml version="1.0" encoding="UTF-8" ?>
<!DOCTYPE svg PUBLIC "-//W3C//DTD SVG 1.1//EN" "http://www.w3.org/Graphics/SVG/1.1/DTD/svg11.dtd">
<svg width="192pt" height="192pt" viewBox="0 0 192 192" version="1.1" xmlns="http://www.w3.org/2000/svg">
<g id="#ff8a1fff">
<path fill="#ff8a1f" opacity="1.00" d=" M 65.65 23.62 C 82.12 13.12 104.00 13.38 121.29 21.72 C 135.38 29.82 152.50 28.01 167.71 24.64 C 170.89 23.55 174.45 25.77 175.03 29.04 C 178.62 43.55 177.88 59.92 169.81 72.85 C 167.90 76.43 161.51 77.26 159.80 73.10 C 158.20 70.48 160.11 67.64 161.25 65.27 C 165.86 56.48 167.09 46.11 165.16 36.41 C 156.92 38.65 148.34 38.97 139.85 38.59 C 147.82 55.35 151.54 73.75 157.78 91.13 C 169.01 99.67 171.37 115.80 165.04 128.03 C 149.26 160.24 109.42 179.27 74.56 169.52 C 54.25 163.74 35.86 149.89 26.16 130.95 C 21.02 120.87 19.06 108.43 23.86 97.85 C 27.31 89.56 35.40 84.34 43.58 81.48 C 47.96 79.39 53.02 85.36 50.32 89.38 C 47.77 93.75 41.84 93.09 38.46 96.46 C 30.42 103.11 30.95 115.28 35.06 123.98 C 48.89 153.98 87.77 169.52 118.28 156.21 C 132.95 149.86 146.65 139.59 154.17 125.19 C 156.96 119.36 159.29 112.15 155.93 106.04 C 152.84 99.52 145.74 96.70 139.27 94.73 C 133.47 92.09 136.78 82.01 143.22 83.70 C 137.34 67.19 136.72 46.81 121.87 35.17 C 105.90 24.19 81.65 23.14 66.95 36.94 C 57.33 45.48 52.10 57.74 49.01 69.98 C 47.68 76.16 37.31 74.39 38.26 68.04 C 40.25 57.56 44.69 47.58 50.50 38.66 C 43.05 38.00 35.65 36.81 28.19 36.38 C 26.39 36.06 25.92 38.04 25.57 39.36 C 24.06 49.38 26.49 59.72 31.48 68.46 C 34.59 73.87 25.30 79.21 22.12 73.90 C 13.32 60.49 11.42 42.75 16.78 27.66 C 17.71 24.57 21.39 23.98 24.10 24.78 C 37.67 27.66 52.65 29.69 65.65 23.62 Z" />
<path fill="#ff8a1f" opacity="1.00" d=" M 53.36 118.39 C 56.55 117.37 58.93 120.09 60.97 122.06 C 70.79 131.31 84.31 137.78 98.05 136.00 C 108.32 134.63 117.57 129.01 124.94 121.93 C 126.86 120.18 128.91 117.71 131.83 118.25 C 135.95 118.62 138.14 124.18 135.27 127.21 C 125.01 138.06 111.20 146.48 95.98 147.29 C 79.03 148.17 62.69 139.81 51.10 127.85 C 47.92 125.11 49.26 119.34 53.36 118.39 Z" />
</g>
</svg>
