<?xml version="1.0" encoding="UTF-8" ?>
<!DOCTYPE svg PUBLIC "-//W3C//DTD SVG 1.1//EN" "http://www.w3.org/Graphics/SVG/1.1/DTD/svg11.dtd">
<svg width="192pt" height="192pt" viewBox="0 0 192 192" version="1.1" xmlns="http://www.w3.org/2000/svg">
<g id="#766879ff">
<path fill="#766879" opacity="1.00" d=" M 20.09 41.94 C 19.89 29.70 30.78 18.67 43.03 18.77 C 77.34 18.72 111.66 18.71 145.98 18.76 C 158.19 18.72 169.03 29.74 168.82 41.95 C 168.90 61.98 168.83 82.02 168.87 102.06 C 169.04 104.46 168.26 106.82 166.41 108.40 C 154.72 120.05 143.09 131.76 131.38 143.39 C 129.13 146.12 124.75 146.34 122.45 143.55 C 113.69 134.67 104.60 126.08 96.11 116.95 C 92.28 112.36 99.08 105.47 103.72 109.18 C 111.73 116.40 119.01 124.42 126.79 131.90 C 136.33 122.40 145.80 112.83 155.38 103.37 C 156.53 102.16 157.96 100.86 157.68 99.01 C 157.64 79.98 157.76 60.94 157.63 41.91 C 157.71 34.85 150.85 29.33 144.00 29.86 C 111.00 29.80 77.99 29.81 44.99 29.83 C 38.14 29.30 31.10 34.79 31.33 41.93 C 31.27 75.97 31.30 110.02 31.31 144.07 C 31.04 150.82 37.29 156.77 44.01 156.33 C 77.67 156.33 111.33 156.33 144.99 156.31 C 150.01 156.52 154.89 153.36 156.74 148.70 C 158.71 143.80 156.71 138.30 158.35 133.36 C 160.32 129.07 167.44 129.72 168.55 134.32 C 169.19 138.47 168.92 142.72 168.67 146.89 C 167.62 158.16 157.28 167.51 145.97 167.55 C 111.66 167.61 77.34 167.59 43.02 167.54 C 30.64 167.60 19.74 156.41 20.07 144.03 C 20.04 110.00 20.04 75.97 20.09 41.94 Z" />
<path fill="#766879" opacity="1.00" d=" M 87.90 56.70 C 89.94 56.70 91.98 56.73 94.02 56.80 C 94.06 58.46 94.09 60.12 94.13 61.79 C 92.12 61.79 90.11 61.77 88.11 61.74 C 88.03 60.06 87.96 58.38 87.90 56.70 Z" />
<path fill="#766879" opacity="1.00" d=" M 56.08 67.18 C 59.48 62.62 66.93 61.95 70.95 66.06 C 73.45 68.42 73.70 72.04 74.23 75.23 C 69.67 75.43 65.10 75.29 60.54 75.50 C 63.24 81.65 69.17 75.41 73.81 76.75 C 72.37 82.54 65.49 85.07 60.27 82.79 C 54.21 80.59 52.55 72.17 56.08 67.18 M 60.46 70.70 C 62.83 70.83 65.21 70.85 67.58 70.77 C 66.09 67.55 62.05 67.58 60.46 70.70 Z" />
<path fill="#766879" opacity="1.00" d=" M 119.40 63.57 C 127.19 61.26 134.56 69.80 131.38 77.20 C 129.10 84.87 117.88 85.62 113.55 79.41 C 109.22 73.94 112.40 64.76 119.40 63.57 M 120.39 68.41 C 117.47 70.73 117.31 76.42 120.59 78.48 C 127.28 80.58 127.08 66.13 120.39 68.41 Z" />
<path fill="#766879" opacity="1.00" d=" M 132.74 63.82 C 138.38 66.32 145.70 60.43 149.82 66.29 C 152.15 71.43 150.91 77.39 150.85 82.86 C 148.81 82.91 146.76 82.93 144.71 82.94 C 144.48 78.30 144.73 73.62 144.04 69.01 C 136.25 68.08 139.64 78.17 138.78 82.84 C 136.77 82.92 134.77 82.99 132.77 83.07 C 132.35 76.66 132.52 70.23 132.74 63.82 Z" />
<path fill="#766879" opacity="1.00" d=" M 36.45 63.91 C 38.61 63.91 40.77 63.93 42.92 63.99 C 44.07 67.50 45.13 71.04 46.40 74.50 C 47.55 70.97 48.63 67.41 49.89 63.91 C 51.88 63.90 53.88 63.89 55.88 63.91 C 53.91 70.16 51.87 76.41 49.55 82.54 C 47.24 83.70 43.27 83.64 42.24 80.79 C 40.04 75.27 37.99 69.66 36.45 63.91 Z" />
<path fill="#766879" opacity="1.00" d=" M 74.67 63.79 C 76.97 63.85 79.35 63.92 81.32 65.27 C 83.14 64.46 85.06 63.94 87.03 63.70 C 87.06 65.45 87.08 67.21 87.09 68.96 C 79.20 69.10 81.39 77.55 80.78 82.91 C 78.76 82.88 76.31 83.56 74.70 81.95 C 74.15 75.92 74.46 69.84 74.67 63.79 Z" />
<path fill="#766879" opacity="1.00" d=" M 87.97 63.96 C 90.04 63.90 92.11 63.85 94.18 63.80 C 94.45 70.23 94.50 76.66 94.10 83.08 C 92.17 82.61 88.24 83.93 88.06 81.02 C 87.63 75.35 87.85 69.64 87.97 63.96 Z" />
<path fill="#766879" opacity="1.00" d=" M 95.59 63.95 C 100.87 63.96 106.16 63.96 111.44 63.94 C 112.85 70.15 106.54 73.72 103.06 77.78 C 106.10 77.84 109.14 77.92 112.19 78.04 C 112.19 79.66 112.18 81.27 112.16 82.89 C 106.44 82.77 100.03 84.48 94.75 81.91 C 94.75 76.25 100.44 73.33 103.42 69.21 C 100.80 69.17 98.18 69.11 95.56 69.07 C 95.56 67.36 95.57 65.66 95.59 63.95 Z" />
</g>
</svg>
