<?xml version="1.0" encoding="UTF-8" ?>
<!DOCTYPE svg PUBLIC "-//W3C//DTD SVG 1.1//EN" "http://www.w3.org/Graphics/SVG/1.1/DTD/svg11.dtd">
<svg width="192pt" height="192pt" viewBox="0 0 192 192" version="1.1" xmlns="http://www.w3.org/2000/svg">
<g id="#45e371ff">
<path fill="#45e371" opacity="1.00" d=" M 45.75 36.31 C 73.50 11.38 119.12 11.77 146.79 36.64 C 149.25 34.46 151.21 31.66 154.02 29.89 C 157.83 27.97 162.56 31.90 161.43 36.02 C 160.02 39.45 156.62 41.42 154.32 44.19 C 157.10 48.34 161.33 51.96 162.34 57.00 C 162.90 62.69 154.44 65.21 151.64 60.39 C 141.83 44.65 125.28 33.19 106.88 30.29 C 81.54 25.62 54.29 37.87 40.78 59.77 C 38.26 64.96 29.59 62.78 29.79 57.01 C 30.60 51.81 35.10 48.19 37.87 43.95 C 35.78 41.48 32.94 39.62 31.32 36.78 C 29.69 33.32 32.86 28.99 36.62 29.49 C 40.72 29.97 42.36 34.66 45.75 36.31 Z" />
<path fill="#45e371" opacity="1.00" d=" M 74.34 63.45 C 78.47 63.47 83.36 61.17 86.93 64.10 C 90.61 67.04 88.73 73.78 83.99 74.28 C 68.03 75.17 52.10 77.76 36.95 82.92 C 33.66 84.29 31.39 87.49 30.79 90.95 C 29.40 111.51 38.66 132.38 54.73 145.27 C 77.30 163.85 112.38 164.38 135.56 146.59 C 153.68 133.03 163.69 109.46 160.85 87.01 C 160.69 85.81 160.17 84.52 158.85 84.25 C 142.05 78.20 124.32 74.97 106.55 73.55 C 102.52 72.95 100.54 67.40 103.33 64.39 C 105.61 61.34 109.71 62.53 112.92 62.73 C 130.73 64.04 148.31 67.93 165.11 73.94 C 167.31 74.84 170.49 75.21 171.15 77.94 C 175.34 95.94 172.47 115.42 163.60 131.61 C 148.69 159.14 115.93 175.56 84.95 170.84 C 67.06 168.38 50.35 159.07 38.47 145.52 C 21.90 127.08 15.02 100.35 21.22 76.27 C 37.88 69.05 56.19 65.13 74.34 63.45 Z" />
<path fill="#45e371" opacity="1.00" d=" M 94.91 100.99 C 93.52 93.47 100.33 85.82 108.05 87.14 C 115.95 87.92 120.94 97.82 116.59 104.56 C 112.88 111.46 102.76 112.14 97.59 106.51 C 92.80 108.76 88.15 111.27 83.36 113.51 C 83.23 115.21 83.24 116.93 83.30 118.65 C 88.09 121.00 92.80 123.53 97.66 125.73 C 105.27 116.60 121.64 125.33 117.72 136.75 C 116.02 143.62 107.39 147.36 101.20 143.93 C 96.41 141.65 94.34 136.11 94.80 131.07 C 90.24 128.65 85.60 126.33 80.92 124.14 C 77.84 125.53 74.94 128.37 71.13 127.72 C 62.48 127.87 56.84 116.84 61.85 109.82 C 65.82 103.13 75.53 103.05 80.74 108.31 C 85.40 105.77 90.38 103.75 94.91 100.99 Z" />
</g>
</svg>
