<?xml version="1.0" encoding="UTF-8" ?>
<!DOCTYPE svg PUBLIC "-//W3C//DTD SVG 1.1//EN" "http://www.w3.org/Graphics/SVG/1.1/DTD/svg11.dtd">
<svg width="192pt" height="192pt" viewBox="0 0 192 192" version="1.1" xmlns="http://www.w3.org/2000/svg">
<g id="#c521d2ff">
<path fill="#c521d2" opacity="1.00" d=" M 22.07 43.94 C 21.89 31.70 32.77 20.65 45.03 20.75 C 64.36 20.76 83.69 20.64 103.02 20.81 C 108.94 21.03 109.56 30.67 103.73 31.64 C 84.16 32.11 64.54 31.60 44.96 31.89 C 38.77 32.13 33.14 37.64 33.28 43.93 C 33.24 77.98 33.26 112.02 33.27 146.07 C 33.03 152.78 39.26 158.75 45.94 158.33 C 79.89 158.31 113.84 158.36 147.78 158.30 C 154.19 158.31 159.80 152.46 159.66 146.07 C 159.66 111.71 159.80 77.34 159.59 42.98 C 159.61 32.74 142.12 26.68 138.09 37.08 C 137.38 51.72 138.03 66.46 137.78 81.14 C 133.93 77.95 130.40 74.42 126.70 71.07 C 122.69 74.15 119.32 77.96 115.34 81.07 C 115.35 65.69 115.32 50.32 115.35 34.94 C 115.11 27.55 121.59 20.77 129.00 20.76 C 135.66 20.73 142.33 20.65 149.00 20.81 C 160.82 21.31 170.99 32.11 170.82 43.94 C 170.88 77.97 170.87 112.01 170.83 146.05 C 171.17 158.34 160.34 169.45 148.06 169.51 C 113.69 169.58 79.31 169.56 44.94 169.51 C 32.99 169.50 22.33 159.03 22.10 147.09 C 21.98 112.71 22.06 78.32 22.07 43.94 Z" />
</g>
</svg>
