<?xml version="1.0" encoding="UTF-8" ?>
<!DOCTYPE svg PUBLIC "-//W3C//DTD SVG 1.1//EN" "http://www.w3.org/Graphics/SVG/1.1/DTD/svg11.dtd">
<svg width="192pt" height="192pt" viewBox="0 0 192 192" version="1.1" xmlns="http://www.w3.org/2000/svg">
<g id="#18b6c5ff">
<path fill="#18b6c5" opacity="1.00" d=" M 84.40 14.47 C 119.34 9.31 156.03 29.74 169.96 62.17 C 171.79 65.85 168.16 70.45 164.18 69.73 C 159.53 69.25 158.71 63.78 156.51 60.56 C 141.55 33.61 107.85 19.23 78.03 27.09 C 57.22 32.03 39.34 47.05 30.39 66.41 C 28.19 72.49 17.99 69.37 19.81 63.07 C 30.58 36.90 56.41 17.93 84.40 14.47 Z" />
<path fill="#18b6c5" opacity="1.00" d=" M 94.34 46.16 C 97.04 44.45 99.89 46.51 102.31 47.72 C 117.40 56.03 132.75 63.88 147.76 72.32 C 152.64 75.12 148.38 83.56 143.19 80.88 C 127.61 72.90 112.34 64.30 96.84 56.16 C 85.62 62.09 74.52 68.23 63.25 74.05 C 63.25 69.08 63.24 64.10 63.23 59.13 C 60.87 59.13 58.50 59.13 56.13 59.11 C 56.20 65.46 56.14 71.82 56.17 78.17 C 51.97 80.28 48.05 82.99 43.66 84.67 C 39.57 86.13 35.78 80.83 38.26 77.36 C 40.84 74.69 44.47 73.40 47.63 71.53 C 47.66 64.56 47.64 57.59 47.65 50.62 C 55.64 50.59 63.64 50.59 71.63 50.61 C 71.66 53.17 71.68 55.73 71.71 58.29 C 79.37 54.47 86.74 50.09 94.34 46.16 Z" />
<path fill="#18b6c5" opacity="1.00" d=" M 96.14 78.00 C 98.59 77.11 101.17 77.19 103.54 78.32 C 103.57 86.82 103.74 95.34 103.51 103.84 C 103.12 111.40 95.11 117.07 87.82 115.38 C 79.14 114.07 74.21 103.21 78.80 95.78 C 82.02 89.74 89.69 87.86 95.87 90.05 C 95.84 86.03 95.82 82.01 96.14 78.00 M 88.25 97.19 C 81.58 99.53 85.93 110.31 92.37 107.42 C 99.04 105.06 94.74 94.18 88.25 97.19 Z" />
<path fill="#18b6c5" opacity="1.00" d=" M 105.75 78.65 C 108.08 77.33 112.43 76.14 113.67 79.23 C 114.09 91.36 113.78 103.53 113.81 115.68 C 111.17 115.71 108.52 115.70 105.88 115.67 C 105.62 103.33 105.79 90.99 105.75 78.65 Z" />
<path fill="#18b6c5" opacity="1.00" d=" M 153.06 78.99 C 154.91 76.55 159.08 76.62 160.88 79.10 C 161.45 86.07 160.97 93.10 161.10 100.09 C 165.52 95.29 170.50 85.28 178.22 90.90 C 174.96 95.05 171.55 99.07 168.11 103.06 C 171.53 107.21 175.11 111.22 178.41 115.46 C 175.38 115.73 172.35 115.74 169.32 115.71 C 166.58 112.54 163.78 109.42 161.14 106.16 C 161.12 109.33 161.12 112.50 161.07 115.67 C 158.34 115.72 155.62 115.71 152.89 115.67 C 152.88 103.44 152.85 91.20 153.06 78.99 Z" />
<path fill="#18b6c5" opacity="1.00" d=" M 118.34 80.15 C 122.43 77.12 127.18 84.31 122.62 86.72 C 118.53 89.73 113.93 82.67 118.34 80.15 Z" />
<path fill="#18b6c5" opacity="1.00" d=" M 12.84 97.73 C 14.86 89.96 24.83 86.75 31.36 91.16 C 36.96 87.66 46.03 88.67 48.20 95.71 C 49.28 102.27 48.43 109.00 48.71 115.63 C 45.92 115.67 43.13 115.69 40.35 115.66 C 40.12 110.13 40.63 104.58 40.08 99.07 C 39.41 96.67 35.62 96.63 34.97 99.06 C 34.50 104.59 34.93 110.16 34.69 115.70 C 31.92 115.70 29.16 115.68 26.40 115.63 C 26.18 110.12 26.70 104.58 26.13 99.10 C 25.75 96.63 21.50 96.60 21.16 99.09 C 20.38 104.58 21.05 110.16 20.79 115.68 C 18.01 115.69 15.23 115.68 12.45 115.62 C 12.62 109.67 11.91 103.63 12.84 97.73 Z" />
<path fill="#18b6c5" opacity="1.00" d=" M 51.64 90.65 C 53.88 88.44 57.06 89.29 59.61 90.36 C 59.93 95.55 59.41 100.77 59.97 105.95 C 60.88 108.42 65.07 108.38 65.52 105.68 C 66.04 100.70 65.64 95.68 65.66 90.69 C 68.18 89.18 71.89 88.18 73.95 90.98 C 74.37 100.32 74.20 109.71 74.04 119.05 C 73.57 126.27 66.25 130.70 59.49 130.14 C 59.47 127.71 59.47 125.28 59.47 122.86 C 63.14 122.12 65.74 119.46 66.04 115.66 C 59.83 116.60 52.76 113.19 51.56 106.63 C 51.19 101.33 51.09 95.94 51.64 90.65 Z" />
<path fill="#18b6c5" opacity="1.00" d=" M 116.47 90.15 C 119.08 88.96 121.93 88.99 124.50 90.28 C 124.58 98.75 124.58 107.23 124.51 115.70 C 121.83 115.72 119.15 115.70 116.47 115.66 C 116.40 107.16 116.40 98.66 116.47 90.15 Z" />
<path fill="#18b6c5" opacity="1.00" d=" M 127.80 97.97 C 129.20 89.57 140.93 86.07 146.79 92.19 C 152.86 98.43 149.63 107.97 150.34 115.73 C 147.53 115.73 144.72 115.71 141.91 115.66 C 141.57 109.40 142.61 103.01 141.04 96.88 C 139.57 97.10 138.08 97.22 136.65 97.63 C 135.43 103.52 136.46 109.66 136.08 115.66 C 133.36 115.39 129.85 116.56 127.63 115.03 C 127.39 109.36 127.22 103.62 127.80 97.97 Z" />
<path fill="#18b6c5" opacity="1.00" d=" M 22.36 122.25 C 25.40 120.38 29.37 122.17 30.56 125.38 C 37.50 140.20 49.59 152.55 64.39 159.58 C 83.87 169.01 107.67 168.70 126.94 158.88 C 141.67 151.63 153.23 138.90 160.16 124.13 C 163.10 118.45 172.70 122.93 170.17 128.88 C 157.89 157.82 127.45 177.85 96.00 177.72 C 63.92 178.54 32.41 158.45 19.91 128.86 C 18.88 126.45 20.10 123.46 22.36 122.25 Z" />
</g>
</svg>
