<?xml version="1.0" encoding="UTF-8" ?>
<!DOCTYPE svg PUBLIC "-//W3C//DTD SVG 1.1//EN" "http://www.w3.org/Graphics/SVG/1.1/DTD/svg11.dtd">
<svg width="192pt" height="192pt" viewBox="0 0 192 192" version="1.1" xmlns="http://www.w3.org/2000/svg">
<g id="#589dbfff">
<path fill="#589dbf" opacity="1.00" d=" M 93.42 21.48 C 97.19 18.97 102.31 22.63 101.59 27.00 C 101.61 72.99 101.71 119.00 101.59 164.99 C 102.28 171.53 91.51 172.51 91.04 166.03 C 90.81 120.02 91.05 73.99 90.93 27.97 C 90.84 25.59 91.09 22.77 93.42 21.48 Z" />
<path fill="#589dbf" opacity="1.00" d=" M 63.42 37.35 C 66.76 34.86 72.03 37.84 71.65 42.00 C 71.76 83.00 71.78 124.01 71.69 165.00 C 72.34 171.57 61.61 172.46 61.12 165.97 C 60.79 125.66 61.13 85.32 60.95 44.99 C 60.97 42.32 60.75 38.93 63.42 37.35 Z" />
<path fill="#589dbf" opacity="1.00" d=" M 35.36 72.33 C 38.70 71.59 41.99 74.63 41.68 78.00 C 41.68 107.29 41.87 136.59 41.61 165.87 C 41.35 171.88 31.53 171.96 31.14 165.97 C 30.79 136.97 31.09 107.94 30.99 78.93 C 30.70 76.05 32.28 72.79 35.36 72.33 Z" />
<path fill="#589dbf" opacity="1.00" d=" M 124.31 80.35 C 128.00 78.93 132.11 81.98 131.54 85.95 C 131.49 112.58 131.69 139.22 131.47 165.84 C 131.30 171.78 121.52 171.88 121.26 165.93 C 120.98 139.62 121.28 113.28 121.15 86.96 C 120.98 84.43 121.50 81.20 124.31 80.35 Z" />
<path fill="#589dbf" opacity="1.00" d=" M 155.39 110.40 C 158.68 109.57 162.10 112.54 161.67 115.93 C 161.66 132.58 161.82 149.24 161.62 165.89 C 161.48 171.87 151.59 171.82 151.42 165.87 C 151.19 149.25 151.38 132.63 151.35 116.01 C 151.09 113.46 152.84 110.88 155.39 110.40 Z" />
</g>
</svg>
