<?xml version="1.0" encoding="UTF-8" ?>
<!DOCTYPE svg PUBLIC "-//W3C//DTD SVG 1.1//EN" "http://www.w3.org/Graphics/SVG/1.1/DTD/svg11.dtd">
<svg width="192pt" height="192pt" viewBox="0 0 192 192" version="1.1" xmlns="http://www.w3.org/2000/svg">
<g id="#19afffff">
<path fill="#19afff" opacity="1.00" d=" M 57.61 16.53 C 60.09 14.94 63.37 14.44 66.01 15.97 C 75.97 21.46 85.77 27.22 95.73 32.71 C 105.53 27.23 115.29 21.67 125.08 16.18 C 127.46 14.69 130.54 14.63 132.92 16.17 C 142.15 21.60 151.24 27.29 160.71 32.31 C 164.71 34.22 167.11 38.55 166.75 42.95 C 166.56 71.99 166.64 101.02 166.66 130.06 C 167.00 133.68 164.84 137.05 161.60 138.58 C 140.79 150.37 120.07 162.32 99.37 174.31 C 96.80 176.00 93.43 175.83 90.92 174.13 C 70.16 161.74 49.05 149.95 28.17 137.78 C 25.38 136.31 24.04 133.12 24.20 130.07 C 24.18 100.36 24.22 70.65 24.14 40.94 C 23.85 37.81 25.64 34.84 28.42 33.45 C 38.17 27.85 47.90 22.20 57.61 16.53 M 62.28 27.25 C 55.44 31.28 48.49 35.11 41.65 39.14 C 57.42 48.94 73.86 57.65 89.78 67.22 C 92.25 68.57 95.18 71.12 97.95 68.92 C 114.97 58.86 132.28 49.29 149.28 39.18 C 142.52 35.17 135.78 31.16 128.99 27.20 C 119.46 32.55 110.00 38.05 100.55 43.55 C 97.54 45.40 93.60 45.22 90.62 43.42 C 81.13 38.10 71.84 32.43 62.28 27.25 M 35.49 49.25 C 35.58 73.56 35.42 97.87 35.48 122.18 C 42.37 118.60 48.97 114.49 55.72 110.65 C 57.17 110.04 56.56 108.23 56.73 107.03 C 56.62 92.07 56.82 77.11 56.75 62.14 C 49.76 57.69 42.56 53.58 35.49 49.25 M 134.73 60.99 C 134.74 77.33 134.72 93.68 134.74 110.03 C 141.44 114.25 148.33 118.14 155.16 122.13 C 155.27 97.84 155.13 73.54 155.13 49.25 C 148.32 53.14 141.47 56.97 134.73 60.99 M 68.21 68.03 C 68.28 82.17 68.03 96.31 68.33 110.44 C 75.53 114.35 82.50 118.67 89.74 122.50 C 89.65 108.43 89.94 94.36 89.69 80.29 C 82.51 76.24 75.26 72.32 68.21 68.03 M 101.19 80.28 C 100.55 94.37 101.02 108.50 100.96 122.61 C 108.37 118.46 115.60 113.99 123.14 110.07 C 123.12 95.94 123.47 81.80 123.27 67.66 C 115.88 71.82 108.61 76.17 101.19 80.28 M 42.08 132.56 C 57.93 141.78 73.71 151.15 89.83 159.91 C 89.74 151.79 89.31 143.67 89.61 135.55 C 80.34 130.70 71.51 124.61 62.09 120.31 C 55.53 124.37 47.53 127.51 42.08 132.56 M 101.23 135.44 C 100.59 143.56 101.73 151.74 101.12 159.89 C 117.17 150.62 133.35 141.57 149.26 132.09 C 142.50 128.10 135.71 124.15 128.93 120.19 C 119.74 125.35 110.70 130.80 101.23 135.44 Z" />
</g>
</svg>
