<?xml version="1.0" encoding="UTF-8" ?>
<!DOCTYPE svg PUBLIC "-//W3C//DTD SVG 1.1//EN" "http://www.w3.org/Graphics/SVG/1.1/DTD/svg11.dtd">
<svg width="192pt" height="192pt" viewBox="0 0 192 192" version="1.1" xmlns="http://www.w3.org/2000/svg">
<g id="#da4e98ff">
<path fill="#da4e98" opacity="1.00" d=" M 35.85 26.86 C 33.97 23.41 37.07 18.82 40.93 19.09 C 76.97 19.02 113.03 18.99 149.07 19.02 C 153.14 18.75 156.18 23.64 154.09 27.16 C 147.57 39.22 140.75 51.13 134.21 63.18 C 147.50 63.26 160.79 63.02 174.07 63.25 C 177.94 63.42 180.38 68.13 178.43 71.44 C 160.54 103.85 142.53 136.21 124.59 168.60 C 123.03 172.68 116.75 173.26 114.63 169.39 C 107.96 157.69 101.61 145.82 94.99 134.10 C 88.37 145.81 82.00 157.67 75.35 169.35 C 73.44 172.92 67.62 172.80 65.83 169.18 C 47.79 136.85 29.93 104.40 11.94 72.03 C 9.58 68.70 11.85 63.37 16.08 63.32 C 29.33 63.14 42.60 63.30 55.85 63.24 C 49.32 51.04 42.37 39.06 35.85 26.86 M 50.37 30.18 C 56.59 41.15 62.38 52.39 68.91 63.17 C 86.45 62.73 104.13 63.59 121.58 62.69 C 127.63 51.88 133.64 41.04 139.60 30.19 C 109.86 30.20 80.12 30.20 50.37 30.18 M 26.03 74.39 C 40.89 101.20 55.65 128.07 70.71 154.77 C 76.38 143.82 83.35 133.26 88.27 122.09 C 79.43 106.20 70.88 90.12 61.79 74.36 C 49.87 74.42 37.95 74.35 26.03 74.39 M 128.23 74.38 C 119.29 89.89 110.81 105.66 102.08 121.28 C 101.06 122.56 102.32 123.94 102.84 125.10 C 108.37 134.94 113.81 144.83 119.31 154.69 C 134.30 128.01 149.05 101.19 163.89 74.42 C 152.00 74.41 140.11 74.44 128.23 74.38 M 74.97 74.62 C 81.45 86.81 88.31 98.79 95.00 110.87 C 101.70 98.81 108.51 86.81 115.02 74.64 C 101.67 74.62 88.32 74.60 74.97 74.62 Z" />
</g>
</svg>
