<?xml version="1.0" encoding="UTF-8" ?>
<!DOCTYPE svg PUBLIC "-//W3C//DTD SVG 1.1//EN" "http://www.w3.org/Graphics/SVG/1.1/DTD/svg11.dtd">
<svg width="192pt" height="192pt" viewBox="0 0 192 192" version="1.1" xmlns="http://www.w3.org/2000/svg">
<g id="#ff5b44ff">
<path fill="#ff5b44" opacity="1.00" d=" M 46.45 30.45 C 69.55 12.47 102.63 8.58 129.23 20.78 C 133.60 23.61 132.42 30.97 127.31 32.27 C 118.17 35.60 110.82 43.71 109.90 53.60 C 119.50 56.71 128.66 62.06 134.71 70.31 C 142.54 80.44 144.95 93.99 142.61 106.44 C 139.20 126.02 122.12 142.72 102.02 144.11 C 77.27 147.55 52.98 128.30 49.03 103.97 C 42.29 70.46 65.24 36.19 96.64 25.00 C 65.14 24.04 35.22 47.14 27.72 77.64 C 18.92 108.90 35.08 144.64 64.27 158.77 C 93.79 174.32 133.36 164.86 152.73 137.72 C 173.68 110.70 170.32 68.89 145.64 45.32 C 140.37 41.06 147.11 32.25 152.51 36.54 C 176.64 59.13 184.77 97.02 171.47 127.41 C 158.84 158.51 125.58 179.59 92.03 177.44 C 57.12 176.26 25.12 150.04 16.82 116.16 C 8.29 85.03 20.58 49.69 46.45 30.45 M 64.59 68.44 C 56.00 85.78 56.82 109.57 71.81 123.19 C 84.85 136.12 108.41 136.62 121.39 123.38 C 133.13 112.02 135.98 92.06 126.64 78.40 C 121.87 71.16 114.00 66.61 105.82 64.21 C 102.31 63.34 98.57 61.01 98.43 56.98 C 98.31 48.71 101.27 40.59 105.97 33.85 C 88.09 38.93 72.37 51.41 64.59 68.44 Z" />
</g>
</svg>
