<?xml version="1.0" encoding="UTF-8" ?>
<!DOCTYPE svg PUBLIC "-//W3C//DTD SVG 1.1//EN" "http://www.w3.org/Graphics/SVG/1.1/DTD/svg11.dtd">
<svg width="192pt" height="192pt" viewBox="0 0 192 192" version="1.1" xmlns="http://www.w3.org/2000/svg">
<g id="#18b7c5ff">
<path fill="#18b7c5" opacity="1.00" d=" M 39.29 21.37 C 42.80 20.57 46.43 20.74 50.00 20.73 C 82.66 20.79 115.32 20.67 147.98 20.77 C 160.15 20.81 170.93 31.78 170.79 43.94 C 170.83 78.31 170.83 112.68 170.82 147.05 C 171.09 159.34 160.25 170.44 147.97 170.52 C 113.32 170.60 78.67 170.58 44.03 170.50 C 31.70 170.47 20.86 159.35 21.08 147.04 C 21.04 112.68 21.04 78.30 21.11 43.94 C 21.06 33.42 29.05 23.61 39.29 21.37 M 41.33 32.47 C 35.91 33.84 31.95 39.35 32.32 44.94 C 32.33 78.98 32.28 113.03 32.35 147.07 C 32.19 153.76 38.39 159.54 45.01 159.25 C 79.01 159.26 113.01 159.26 147.00 159.21 C 154.02 159.51 160.06 153.00 159.60 146.07 C 159.62 112.36 159.64 78.65 159.61 44.94 C 160.04 37.68 153.27 31.16 146.00 32.10 C 111.12 32.67 76.14 30.84 41.33 32.47 Z" />
<path fill="#18b7c5" opacity="1.00" d=" M 89.71 72.84 C 96.07 72.21 103.42 71.21 109.04 74.91 C 113.47 79.67 112.73 87.30 111.28 93.14 C 107.53 99.84 100.98 104.37 95.76 109.87 C 100.98 110.27 106.39 109.41 111.50 110.52 C 112.83 112.91 113.25 118.78 109.04 118.19 C 100.43 117.93 91.68 118.86 83.17 117.68 C 81.87 115.11 81.93 111.26 84.15 109.15 C 89.42 103.74 95.13 98.77 100.33 93.30 C 103.25 90.57 103.23 86.19 102.46 82.58 C 100.96 79.49 96.78 80.45 94.00 80.60 C 90.17 81.16 92.24 86.19 89.96 88.09 C 87.46 88.36 84.73 88.66 82.36 87.64 C 80.47 82.01 82.76 73.49 89.71 72.84 Z" />
<path fill="#18b7c5" opacity="1.00" d=" M 123.58 73.58 C 129.70 71.75 136.49 71.80 142.66 73.37 C 148.18 75.00 148.90 81.54 148.57 86.40 C 145.67 86.75 142.73 86.80 139.82 86.51 C 140.24 80.19 132.91 78.80 128.52 81.51 C 126.76 84.40 127.81 88.06 127.47 91.28 C 132.69 89.12 138.75 89.20 144.09 90.86 C 149.30 92.87 149.59 99.26 149.54 104.01 C 149.52 108.55 149.63 114.52 145.01 116.99 C 139.78 119.49 133.74 118.63 128.14 118.53 C 123.59 118.42 118.83 115.56 118.46 110.64 C 117.68 102.12 118.28 93.53 118.11 84.98 C 118.02 80.70 118.88 75.11 123.58 73.58 M 129.39 98.39 C 126.55 100.12 127.69 104.22 127.60 107.02 C 127.85 111.64 133.68 110.76 136.85 110.49 C 140.99 109.98 140.03 104.86 139.98 101.92 C 140.07 96.54 132.88 97.38 129.39 98.39 Z" />
<path fill="#18b7c5" opacity="1.00" d=" M 43.37 73.37 C 46.42 73.00 51.12 71.65 52.80 75.13 C 57.20 83.46 61.33 91.94 65.70 100.29 C 65.97 91.57 65.40 82.81 65.98 74.12 C 67.88 71.94 72.03 73.06 74.77 73.34 C 76.08 87.91 74.91 102.74 75.36 117.41 C 72.15 118.24 67.00 119.58 65.30 115.73 C 61.00 107.42 56.85 99.03 52.49 90.76 C 52.49 99.64 52.44 108.52 52.51 117.41 C 49.48 118.16 42.64 119.94 42.99 115.05 C 43.16 101.17 42.44 87.21 43.37 73.37 Z" />
</g>
</svg>
