<?xml version="1.0" encoding="UTF-8" ?>
<!DOCTYPE svg PUBLIC "-//W3C//DTD SVG 1.1//EN" "http://www.w3.org/Graphics/SVG/1.1/DTD/svg11.dtd">
<svg width="192pt" height="192pt" viewBox="0 0 192 192" version="1.1" xmlns="http://www.w3.org/2000/svg">
<g id="#85c4e6ff">
<path fill="#85c4e6" opacity="1.00" d=" M 29.30 41.96 C 30.13 29.74 44.51 21.46 55.60 26.46 C 65.76 31.47 75.43 37.45 85.56 42.52 C 99.46 44.12 113.99 40.97 127.67 44.32 C 136.21 48.93 130.12 59.30 125.26 64.35 C 134.74 69.71 144.50 74.61 153.84 80.20 C 164.76 87.30 164.25 105.49 152.87 111.89 C 133.78 122.53 114.54 132.92 95.37 143.43 C 93.26 144.56 91.71 146.44 89.76 147.79 C 77.17 151.80 66.57 160.30 54.45 165.45 C 43.35 169.70 29.78 160.96 29.23 149.05 C 28.95 113.36 28.90 77.65 29.30 41.96 M 40.95 43.92 C 40.78 55.49 40.77 67.07 41.01 78.64 C 47.93 67.90 67.71 68.73 71.06 82.01 C 72.54 92.85 71.77 103.97 71.62 114.89 C 71.20 121.01 61.57 121.72 60.20 115.77 C 59.05 106.39 60.58 96.82 59.37 87.43 C 59.03 84.05 56.74 80.57 53.00 80.59 C 46.47 79.53 40.98 85.69 41.29 91.96 C 41.09 110.33 40.68 128.70 40.95 147.07 C 40.62 152.41 47.05 156.38 51.68 153.73 C 59.50 149.61 67.21 145.26 74.96 141.01 C 74.20 134.10 75.81 127.25 77.68 120.65 C 84.24 98.60 95.28 78.00 109.39 59.87 C 96.57 59.76 83.75 59.89 70.94 59.77 C 67.34 59.68 63.16 59.22 60.75 56.21 C 58.11 52.36 58.56 46.22 62.84 43.67 C 58.99 41.72 55.32 39.43 51.43 37.57 C 47.02 35.12 40.85 38.86 40.95 43.92 M 118.09 74.02 C 106.66 90.12 99.49 109.19 97.38 128.81 C 113.55 119.81 129.86 111.06 146.03 102.07 C 150.92 99.84 151.18 92.11 146.42 89.60 C 137.03 84.30 127.53 79.21 118.09 74.02 Z" />
</g>
</svg>
