<?xml version="1.0" encoding="UTF-8" ?>
<!DOCTYPE svg PUBLIC "-//W3C//DTD SVG 1.1//EN" "http://www.w3.org/Graphics/SVG/1.1/DTD/svg11.dtd">
<svg width="192pt" height="192pt" viewBox="0 0 192 192" version="1.1" xmlns="http://www.w3.org/2000/svg">
<g id="#ff527dff">
<path fill="#ff527d" opacity="1.00" d=" M 66.00 26.01 C 69.52 23.82 74.42 24.75 76.93 28.03 C 89.75 43.84 102.42 59.76 115.34 75.48 C 115.55 68.33 115.22 61.17 115.42 54.02 C 115.45 49.96 118.25 46.54 121.80 44.86 C 127.71 41.79 133.32 38.10 139.41 35.42 C 144.50 33.95 148.65 41.12 144.72 44.75 C 139.03 48.69 132.61 51.50 126.68 55.08 C 126.51 66.60 126.91 78.13 126.52 89.64 C 125.91 94.85 118.41 96.98 115.08 92.94 C 99.69 74.49 84.87 55.54 69.64 36.95 C 58.50 42.92 47.46 49.10 36.36 55.17 C 36.43 87.46 36.43 119.76 36.42 152.05 C 46.07 147.38 55.60 142.47 65.20 137.69 C 65.24 125.79 65.02 113.87 65.28 101.96 C 65.22 96.65 72.68 93.67 76.12 97.85 C 91.83 116.49 107.00 135.61 122.84 154.14 C 133.67 148.62 144.52 143.10 155.45 137.76 C 155.40 102.51 154.97 67.26 155.10 32.02 C 155.54 25.73 165.71 25.72 166.21 31.99 C 166.59 67.01 166.46 102.03 166.77 137.05 C 167.18 141.46 164.87 145.94 160.73 147.70 C 149.15 153.43 137.64 159.31 126.10 165.13 C 122.49 167.27 117.65 166.16 115.16 162.84 C 102.24 147.21 89.41 131.51 76.45 115.90 C 76.46 123.61 76.56 131.31 76.42 139.01 C 76.39 142.73 73.95 146.07 70.62 147.59 C 58.62 153.55 46.71 159.71 34.64 165.53 C 30.22 167.95 24.74 163.96 25.19 159.09 C 25.01 124.37 25.23 89.65 25.09 54.93 C 24.94 50.83 27.40 46.95 31.07 45.17 C 42.76 38.87 54.37 32.42 66.00 26.01 Z" />
</g>
</svg>
