<?xml version="1.0" encoding="UTF-8" ?>
<!DOCTYPE svg PUBLIC "-//W3C//DTD SVG 1.1//EN" "http://www.w3.org/Graphics/SVG/1.1/DTD/svg11.dtd">
<svg width="192pt" height="192pt" viewBox="0 0 192 192" version="1.1" xmlns="http://www.w3.org/2000/svg">
<g id="#1bb4ffff">
<path fill="#1bb4ff" opacity="1.00" d=" M 163.38 62.41 C 167.18 60.10 172.58 63.54 171.95 67.98 C 171.84 72.30 166.14 74.87 162.82 72.12 C 159.42 69.89 159.75 64.22 163.38 62.41 Z" />
<path fill="#1bb4ff" opacity="1.00" d=" M 71.22 63.50 C 75.43 63.01 78.91 68.01 76.82 71.77 C 75.09 75.70 68.89 75.96 66.77 72.28 C 64.55 68.83 67.00 63.60 71.22 63.50 Z" />
<path fill="#1bb4ff" opacity="1.00" d=" M 136.74 80.98 C 136.06 75.17 144.13 75.51 147.52 77.41 C 149.87 84.15 146.92 92.06 149.20 98.76 C 154.18 101.19 160.41 99.31 165.87 99.77 C 166.75 92.67 165.51 85.43 166.57 78.40 C 168.73 75.31 175.53 75.27 177.59 78.34 C 178.08 87.54 177.83 96.81 177.72 106.03 C 177.94 109.65 174.26 111.76 171.00 111.37 C 135.98 111.37 100.96 111.36 65.93 111.35 C 62.93 110.81 61.30 113.67 59.28 115.29 C 50.54 122.93 36.95 123.66 26.94 118.13 C 15.71 112.13 10.93 96.78 16.30 85.37 C 18.60 82.02 22.75 85.22 25.17 86.83 C 28.14 88.80 25.75 92.33 25.50 95.00 C 24.87 102.37 30.94 109.01 38.01 110.26 C 47.11 112.38 57.31 104.54 56.80 95.04 C 56.83 91.20 53.54 88.53 52.68 85.00 C 53.75 81.85 56.59 78.68 59.93 78.02 C 63.58 79.24 64.70 83.57 66.27 86.67 C 77.87 75.20 96.77 74.35 111.05 80.93 C 118.80 84.36 124.91 91.33 126.54 99.74 C 129.94 99.82 133.34 99.81 136.74 99.72 C 136.81 93.47 136.67 87.22 136.74 80.98 M 68.77 99.67 C 84.03 99.92 99.30 99.81 114.56 99.73 C 105.43 83.68 78.77 84.99 68.77 99.67 Z" />
<path fill="#1bb4ff" opacity="1.00" d=" M 141.28 117.35 C 145.24 115.68 149.91 119.74 148.89 123.90 C 148.27 128.01 142.86 130.01 139.68 127.38 C 136.11 124.84 137.04 118.61 141.28 117.35 Z" />
</g>
</svg>
