<?xml version="1.0" encoding="UTF-8" ?>
<!DOCTYPE svg PUBLIC "-//W3C//DTD SVG 1.1//EN" "http://www.w3.org/Graphics/SVG/1.1/DTD/svg11.dtd">
<svg width="192pt" height="192pt" viewBox="0 0 192 192" version="1.1" xmlns="http://www.w3.org/2000/svg">
<g id="#a61affff">
<path fill="#a61aff" opacity="1.00" d=" M 85.35 14.40 C 118.81 9.52 153.82 28.03 168.85 58.25 C 184.78 88.30 179.08 127.94 155.20 152.19 C 131.55 177.75 90.96 184.97 59.91 169.20 C 28.61 154.38 9.41 118.25 14.89 84.01 C 19.35 48.48 49.78 18.45 85.35 14.40 M 87.39 25.45 C 63.28 28.10 41.42 44.36 31.53 66.44 C 18.19 94.77 26.76 131.25 51.46 150.55 C 77.40 172.46 119.16 171.18 143.69 147.69 C 167.56 126.64 173.65 88.83 157.74 61.29 C 144.34 36.54 115.32 21.72 87.39 25.45 Z" />
<path fill="#a61aff" opacity="1.00" d=" M 66.87 68.85 C 73.70 67.45 81.05 67.27 87.80 69.16 C 92.78 70.64 94.69 76.19 94.66 80.92 C 94.84 85.96 95.15 92.86 89.41 95.02 C 95.34 96.99 95.38 103.90 95.08 109.06 C 95.13 113.87 93.51 119.71 88.36 121.29 C 81.54 123.31 74.10 122.99 67.15 121.86 C 60.01 120.75 57.53 112.33 58.99 106.16 C 62.02 104.40 65.91 105.35 69.24 105.72 C 68.00 113.60 77.71 115.04 82.81 111.79 C 84.74 108.92 84.25 104.84 83.34 101.67 C 80.51 98.19 75.48 100.29 71.67 99.35 C 69.57 97.30 70.34 93.61 71.04 91.04 C 74.82 89.33 80.45 92.20 83.08 88.14 C 83.88 85.13 84.28 81.32 82.35 78.64 C 79.61 76.72 75.84 77.20 72.73 77.80 C 68.66 78.63 71.76 85.73 67.03 85.28 C 64.53 85.05 60.72 86.36 59.21 83.77 C 58.26 77.95 60.27 70.21 66.87 68.85 Z" />
<path fill="#a61aff" opacity="1.00" d=" M 105.61 71.64 C 111.89 69.67 118.40 67.60 125.06 68.83 C 126.40 83.25 125.26 97.87 125.65 112.37 C 128.72 112.60 132.09 111.76 134.97 113.04 C 136.30 115.61 135.45 118.65 135.39 121.41 C 125.70 122.90 115.76 121.84 105.97 122.03 C 100.84 122.39 102.65 116.06 102.74 112.90 C 106.53 112.04 110.43 112.48 114.27 112.38 C 114.28 101.43 114.31 90.49 114.26 79.54 C 111.05 79.50 107.82 79.74 104.63 79.35 C 102.53 77.65 102.32 72.21 105.61 71.64 Z" />
</g>
</svg>
