<?xml version="1.0" encoding="UTF-8" ?>
<!DOCTYPE svg PUBLIC "-//W3C//DTD SVG 1.1//EN" "http://www.w3.org/Graphics/SVG/1.1/DTD/svg11.dtd">
<svg width="192pt" height="192pt" viewBox="0 0 192 192" version="1.1" xmlns="http://www.w3.org/2000/svg">
<g id="#28c0d0ff">
<path fill="#28c0d0" opacity="1.00" d=" M 86.41 14.50 C 102.71 11.86 120.02 15.83 133.32 25.69 C 148.38 36.56 158.05 54.46 158.82 73.02 C 159.68 90.56 153.21 107.51 144.63 122.50 C 134.26 140.26 121.23 156.33 107.55 171.61 C 101.66 178.32 90.51 177.96 84.87 171.14 C 66.91 150.46 48.84 128.83 39.09 102.89 C 33.61 88.05 32.08 71.33 37.27 56.18 C 44.28 34.62 63.98 17.86 86.41 14.50 M 89.38 25.48 C 62.24 28.62 41.35 56.23 45.75 83.23 C 50.71 114.00 71.93 138.52 91.42 161.53 C 93.17 164.15 97.01 166.87 99.56 163.56 C 115.92 144.77 132.35 125.24 142.05 102.03 C 148.34 87.03 150.01 69.27 142.67 54.32 C 133.56 34.53 111.00 22.16 89.38 25.48 Z" />
<path fill="#28c0d0" opacity="1.00" d=" M 72.85 49.94 C 72.62 43.98 80.75 46.15 84.45 46.58 C 91.76 56.56 97.30 67.83 104.20 78.14 C 104.46 68.41 104.11 58.67 104.36 48.94 C 104.18 45.34 108.66 46.15 111.00 46.02 C 113.34 46.11 117.44 45.50 117.31 49.00 C 117.54 67.34 117.32 85.69 117.41 104.02 C 117.97 110.27 109.11 108.60 105.42 107.48 C 98.58 97.22 92.52 86.36 86.21 75.74 C 85.47 85.78 86.23 95.87 85.75 105.92 C 85.74 108.84 81.97 108.21 80.00 108.35 C 77.38 108.32 72.64 108.99 72.88 105.03 C 72.76 86.67 72.81 68.30 72.85 49.94 Z" />
</g>
</svg>
