<?xml version="1.0" encoding="UTF-8" ?>
<!DOCTYPE svg PUBLIC "-//W3C//DTD SVG 1.1//EN" "http://www.w3.org/Graphics/SVG/1.1/DTD/svg11.dtd">
<svg width="192pt" height="192pt" viewBox="0 0 192 192" version="1.1" xmlns="http://www.w3.org/2000/svg">
<g id="#29b8a0ff">
<path fill="#29b8a0" opacity="1.00" d=" M 46.21 17.22 C 49.51 13.33 55.34 13.03 59.66 15.31 C 68.44 19.73 74.07 28.50 77.59 37.40 C 84.67 55.64 93.52 73.99 93.38 94.01 C 119.08 88.96 147.69 87.51 170.59 102.42 C 177.80 106.11 184.00 115.22 179.21 123.12 C 173.48 131.72 161.64 129.61 153.71 134.75 C 147.40 137.91 143.84 144.48 137.86 148.01 C 133.03 150.70 127.55 144.09 130.82 139.80 C 137.66 133.21 144.15 125.67 153.34 122.31 C 158.71 119.98 164.81 119.92 169.98 117.05 C 164.48 110.19 155.56 107.39 147.58 104.50 C 128.35 98.87 108.23 103.04 88.98 106.31 C 84.11 107.47 81.12 102.26 82.01 98.02 C 83.26 78.40 74.41 60.37 67.56 42.56 C 64.92 35.56 60.91 28.54 54.04 24.98 C 51.39 32.15 53.65 39.96 51.29 47.18 C 49.60 53.78 45.53 59.32 42.26 65.16 C 41.14 70.57 46.91 73.77 48.69 78.33 C 50.77 81.66 47.87 86.38 44.07 86.42 C 39.64 86.21 35.07 84.23 30.69 85.82 C 26.89 87.53 25.53 91.85 24.57 95.57 C 22.12 104.65 24.19 114.69 29.70 122.26 C 31.52 124.93 35.01 126.21 38.10 125.21 C 48.85 122.45 59.44 119.12 70.16 116.27 C 73.44 115.12 77.33 117.68 77.41 121.18 C 77.76 133.11 75.59 145.00 76.20 156.93 C 76.38 160.03 79.07 162.25 81.83 163.20 C 90.62 166.33 100.89 165.87 108.97 161.00 C 112.32 159.09 115.99 156.25 116.02 152.02 C 116.30 147.66 112.72 144.21 112.62 139.99 C 112.72 135.55 118.66 133.22 121.86 136.17 C 128.03 144.12 129.79 156.67 122.53 164.56 C 110.74 177.09 90.65 179.82 75.29 172.69 C 68.93 169.70 64.80 162.97 64.70 155.97 C 64.51 147.01 65.69 138.08 65.93 129.12 C 57.38 131.65 48.82 134.16 40.18 136.34 C 33.72 137.90 26.60 135.81 22.17 130.83 C 11.26 117.92 9.12 98.20 17.38 83.39 C 20.40 77.97 26.14 74.74 32.15 73.79 C 25.74 60.96 40.84 52.20 41.23 40.00 C 41.51 32.29 40.82 23.49 46.21 17.22 Z" />
<path fill="#29b8a0" opacity="1.00" d=" M 100.74 23.69 C 103.12 19.68 109.48 20.76 110.92 25.04 C 117.67 39.47 114.61 56.10 111.20 71.02 C 124.46 64.03 139.51 56.89 154.86 60.20 C 160.54 61.45 159.95 70.85 154.05 71.18 C 135.80 68.53 119.21 79.10 104.61 88.65 C 100.52 91.61 94.07 86.95 96.10 82.13 C 100.81 67.62 105.12 52.28 103.06 36.89 C 102.82 32.40 98.24 28.14 100.74 23.69 Z" />
</g>
</svg>
