<?xml version="1.0" encoding="UTF-8" ?>
<!DOCTYPE svg PUBLIC "-//W3C//DTD SVG 1.1//EN" "http://www.w3.org/Graphics/SVG/1.1/DTD/svg11.dtd">
<svg width="192pt" height="192pt" viewBox="0 0 192 192" version="1.1" xmlns="http://www.w3.org/2000/svg">
<g id="#e59678ff">
<path fill="#e59678" opacity="1.00" d=" M 81.42 22.53 C 115.26 17.85 151.93 34.05 168.71 64.30 C 179.84 84.21 178.69 109.01 169.41 129.39 C 163.66 141.98 156.64 155.07 144.79 162.89 C 137.20 167.50 128.74 161.84 124.89 155.11 C 117.29 143.14 106.84 131.99 92.64 128.33 C 79.03 123.90 64.63 126.78 50.68 125.41 C 37.70 124.02 24.76 117.61 17.61 106.40 C 10.18 94.54 11.34 79.13 16.73 66.70 C 28.18 41.60 54.56 25.66 81.42 22.53 M 84.41 33.53 C 61.32 35.71 38.42 48.65 27.73 69.72 C 22.79 79.96 21.19 93.75 29.05 102.98 C 37.31 112.70 50.86 115.22 63.02 114.56 C 78.67 113.73 95.15 114.94 108.99 123.02 C 119.96 129.06 127.81 139.13 134.67 149.34 C 136.04 150.90 137.97 154.72 140.29 152.30 C 148.44 145.75 153.64 136.34 158.04 127.03 C 165.74 110.96 168.41 91.60 161.22 74.86 C 148.63 45.89 115.08 29.95 84.41 33.53 Z" />
<path fill="#e59678" opacity="1.00" d=" M 100.60 69.66 C 102.19 69.42 103.79 69.21 105.39 69.01 C 105.48 70.80 105.55 72.59 105.64 74.38 C 107.44 74.41 109.25 74.44 111.07 74.46 C 111.19 75.88 111.31 77.30 111.41 78.73 C 109.46 78.90 107.52 79.08 105.57 79.25 C 105.50 82.90 105.50 86.56 105.66 90.21 C 107.18 90.45 108.70 90.67 110.22 90.90 C 110.27 92.40 110.32 93.90 110.36 95.40 C 106.84 95.68 101.86 95.45 100.72 91.32 C 100.22 84.13 100.59 76.87 100.60 69.66 Z" />
<path fill="#e59678" opacity="1.00" d=" M 45.08 74.32 C 50.21 75.67 57.31 71.76 60.70 77.37 C 62.31 82.95 61.22 89.02 61.41 94.79 C 59.76 94.76 58.11 94.74 56.47 94.70 C 56.44 89.67 56.41 84.64 56.45 79.61 C 54.49 78.80 52.40 78.77 50.35 79.22 C 49.63 84.34 49.86 89.52 49.82 94.68 C 48.18 94.69 46.54 94.69 44.90 94.69 C 44.79 87.91 44.52 81.09 45.08 74.32 Z" />
<path fill="#e59678" opacity="1.00" d=" M 63.82 79.73 C 64.73 73.97 71.82 73.24 76.39 74.60 C 80.94 75.83 82.05 82.62 78.38 85.40 C 75.57 87.06 72.16 86.96 69.04 87.58 C 69.93 92.72 76.12 90.37 79.77 90.45 C 80.03 91.72 80.29 93.00 80.55 94.28 C 75.79 95.66 69.76 96.89 65.61 93.39 C 62.49 89.63 63.57 84.22 63.82 79.73 M 69.06 83.17 C 70.97 83.10 72.87 82.87 74.76 82.54 C 74.66 81.17 74.56 79.80 74.43 78.44 C 71.12 77.64 69.12 80.01 69.06 83.17 Z" />
<path fill="#e59678" opacity="1.00" d=" M 86.97 74.88 C 91.30 73.44 99.91 73.02 98.25 79.87 C 95.06 79.36 91.78 78.42 88.61 79.53 C 87.55 82.68 86.67 86.43 88.67 89.41 C 91.31 91.84 95.15 89.88 98.21 89.56 C 98.06 91.23 97.93 92.91 97.77 94.58 C 92.87 95.91 85.52 96.48 83.36 90.66 C 81.67 85.50 81.53 77.85 86.97 74.88 Z" />
<path fill="#e59678" opacity="1.00" d=" M 114.22 75.05 C 118.83 74.21 125.61 72.42 128.45 77.41 C 129.99 83.02 128.95 88.98 129.16 94.74 C 125.12 94.17 121.07 96.17 117.12 94.99 C 111.98 93.57 110.93 85.28 115.62 82.72 C 118.31 81.33 121.44 81.46 124.36 81.02 C 122.29 77.08 117.43 79.74 114.06 79.90 C 114.10 78.28 114.15 76.67 114.22 75.05 M 117.65 88.98 C 118.78 91.52 121.79 90.29 123.85 90.05 C 123.87 88.56 123.89 87.07 123.91 85.58 C 121.51 85.76 117.65 85.62 117.65 88.98 Z" />
<path fill="#e59678" opacity="1.00" d=" M 132.26 74.35 C 136.15 74.93 140.03 74.01 143.93 74.21 C 144.10 75.93 144.23 77.65 144.35 79.37 C 141.98 79.23 139.61 79.14 137.24 79.15 C 136.45 84.32 136.95 89.56 136.73 94.77 C 135.05 94.78 133.38 94.78 131.71 94.76 C 131.96 87.96 131.07 81.08 132.26 74.35 Z" />
</g>
</svg>
