<?xml version="1.0" encoding="UTF-8" ?>
<!DOCTYPE svg PUBLIC "-//W3C//DTD SVG 1.1//EN" "http://www.w3.org/Graphics/SVG/1.1/DTD/svg11.dtd">
<svg width="192pt" height="192pt" viewBox="0 0 192 192" version="1.1" xmlns="http://www.w3.org/2000/svg">
<g id="#ff5945ff">
<path fill="#ff5945" opacity="1.00" d=" M 38.36 22.53 C 41.49 21.66 44.77 21.66 48.00 21.65 C 81.32 21.73 114.65 21.58 147.97 21.72 C 159.70 21.65 170.13 32.19 169.83 43.94 C 169.85 78.65 169.91 113.36 169.82 148.07 C 169.75 159.50 159.46 169.56 148.06 169.52 C 113.35 169.58 78.65 169.56 43.94 169.52 C 32.10 169.65 21.68 158.85 22.05 147.04 C 22.03 112.67 22.03 78.30 22.07 43.94 C 21.92 34.20 28.96 25.01 38.36 22.53 M 41.43 32.67 C 36.39 33.89 32.56 38.79 32.65 43.98 C 32.61 78.32 32.63 112.66 32.65 147.00 C 32.40 153.55 38.39 159.36 44.93 158.95 C 78.98 158.97 113.03 158.97 147.07 158.94 C 153.57 159.28 159.49 153.53 159.24 147.01 C 159.29 112.67 159.30 78.32 159.24 43.98 C 159.41 37.53 153.47 31.95 147.06 32.33 C 111.86 32.54 76.60 31.84 41.43 32.67 Z" />
<path fill="#ff5945" opacity="1.00" d=" M 113.52 78.36 C 113.18 68.54 114.23 57.73 121.52 50.36 C 116.13 64.03 123.11 78.74 118.93 92.53 C 116.67 89.83 116.50 86.13 115.21 82.97 C 115.20 84.77 115.21 86.58 115.22 88.39 C 109.74 83.72 106.81 74.64 112.96 69.24 C 113.17 72.27 113.18 75.33 113.52 78.36 Z" />
<path fill="#ff5945" opacity="1.00" d=" M 97.56 91.83 C 96.41 84.54 105.51 80.01 110.92 84.30 C 113.11 87.82 108.75 89.61 105.96 89.99 C 105.78 90.48 105.43 91.46 105.25 91.96 C 107.64 92.52 111.65 92.61 111.42 96.03 C 111.15 98.85 107.79 98.86 105.69 99.25 C 105.27 104.59 105.88 109.98 105.22 115.31 C 104.68 118.73 99.25 119.13 98.10 115.91 C 97.32 110.44 98.01 104.87 97.71 99.36 C 96.80 98.77 95.90 98.18 94.99 97.60 C 95.62 100.69 98.15 105.41 94.44 107.44 C 89.32 108.44 84.02 107.48 78.84 108.04 C 80.64 113.01 86.52 112.79 90.34 110.40 C 93.45 108.46 96.36 113.43 93.47 115.41 C 86.00 121.97 72.84 117.49 71.06 107.60 C 70.99 110.30 71.13 113.04 70.59 115.71 C 69.72 118.93 64.32 118.82 63.43 115.65 C 62.52 110.90 63.63 105.98 62.71 101.23 C 61.71 97.90 56.37 98.07 55.36 101.27 C 54.44 106.03 55.65 110.96 54.66 115.71 C 53.59 119.19 47.37 118.71 47.35 114.88 C 47.21 108.07 46.90 101.20 47.53 94.41 C 48.85 90.78 53.45 91.81 55.24 94.47 C 61.55 88.19 72.44 93.62 71.17 102.48 C 72.86 91.45 88.65 87.83 94.67 97.32 C 94.71 96.50 94.77 94.87 94.80 94.05 C 95.72 93.31 96.64 92.57 97.56 91.83 M 78.79 102.66 C 82.22 102.86 85.66 102.85 89.10 102.64 C 88.10 96.82 79.74 96.80 78.79 102.66 Z" />
<path fill="#ff5945" opacity="1.00" d=" M 131.36 92.52 C 135.69 91.23 140.61 92.36 144.10 95.16 C 145.65 97.48 142.95 101.07 140.34 99.68 C 137.78 99.19 134.53 96.85 132.26 99.14 C 133.68 102.56 138.86 102.10 141.63 104.33 C 147.08 107.24 145.40 116.05 139.84 117.78 C 134.87 119.19 128.98 118.48 124.89 115.16 C 122.78 113.55 124.33 109.68 126.98 109.97 C 130.49 110.91 134.06 113.55 137.78 111.80 C 137.52 107.89 131.83 108.64 129.23 106.75 C 122.69 103.93 124.26 93.43 131.36 92.52 Z" />
<path fill="#ff5945" opacity="1.00" d=" M 115.21 97.17 C 117.79 95.96 120.90 98.15 120.65 100.98 C 120.61 106.02 121.33 111.26 120.18 116.19 C 118.04 120.33 111.74 117.39 112.91 113.05 C 113.69 107.96 110.75 100.84 115.21 97.17 Z" />
</g>
</svg>
