<?xml version="1.0" encoding="UTF-8" ?>
<!DOCTYPE svg PUBLIC "-//W3C//DTD SVG 1.1//EN" "http://www.w3.org/Graphics/SVG/1.1/DTD/svg11.dtd">
<svg width="192pt" height="192pt" viewBox="0 0 192 192" version="1.1" xmlns="http://www.w3.org/2000/svg">
<g id="#18b1e9ff">
<path fill="#18b1e9" opacity="1.00" d=" M 84.36 18.45 C 119.06 13.25 155.25 33.46 169.51 65.41 C 185.83 99.18 175.00 143.57 144.44 165.45 C 138.25 168.35 133.43 158.66 139.26 155.28 C 165.85 134.68 173.74 94.36 156.71 65.31 C 141.13 36.24 103.81 21.60 72.67 32.72 C 42.48 42.44 21.43 74.19 24.61 105.83 C 26.11 125.72 36.66 144.48 52.42 156.61 C 57.50 160.50 51.80 169.13 46.23 165.90 C 19.50 146.78 7.10 110.47 15.84 78.87 C 23.75 47.35 52.08 22.33 84.36 18.45 Z" />
<path fill="#18b1e9" opacity="1.00" d=" M 87.33 57.42 C 105.37 53.78 124.83 63.42 133.22 79.71 C 143.47 98.13 137.51 123.26 120.19 135.22 C 109.96 142.68 96.34 145.16 84.13 141.86 C 66.63 137.52 52.96 121.08 52.11 103.05 C 50.00 81.74 66.24 60.84 87.33 57.42 M 89.37 68.46 C 75.29 70.78 63.74 83.62 63.26 97.93 C 61.84 113.14 73.08 128.15 88.00 131.22 C 101.36 134.51 116.22 127.87 122.81 115.82 C 129.80 103.96 127.86 87.66 118.15 77.87 C 110.95 70.04 99.77 66.67 89.37 68.46 Z" />
</g>
</svg>
