<?xml version="1.0" encoding="UTF-8" ?>
<!DOCTYPE svg PUBLIC "-//W3C//DTD SVG 1.1//EN" "http://www.w3.org/Graphics/SVG/1.1/DTD/svg11.dtd">
<svg width="192pt" height="192pt" viewBox="0 0 192 192" version="1.1" xmlns="http://www.w3.org/2000/svg">
<g id="#606f80ff">
<path fill="#606f80" opacity="1.00" d=" M 86.37 13.47 C 117.42 9.66 149.71 25.43 165.71 52.31 C 182.93 79.87 181.48 117.83 161.70 143.70 C 159.27 147.16 153.08 146.03 152.07 141.91 C 150.80 138.05 154.34 135.10 155.99 131.99 C 172.73 105.66 168.76 68.41 146.74 46.27 C 128.40 26.60 98.33 19.09 72.93 27.99 C 69.97 28.88 66.36 30.86 63.55 28.53 C 60.17 26.12 60.92 20.21 64.91 18.88 C 71.73 15.99 79.04 14.35 86.37 13.47 Z" />
<path fill="#606f80" opacity="1.00" d=" M 21.81 36.75 C 40.33 29.33 62.51 33.08 79.05 43.86 C 98.62 56.83 110.32 77.78 125.05 95.43 C 125.51 81.62 124.96 67.79 125.35 53.98 C 129.21 53.67 133.09 53.63 136.96 53.88 C 137.56 82.01 137.24 110.18 137.09 138.32 C 129.77 132.87 124.26 125.44 118.71 118.29 C 106.31 101.41 94.16 84.31 81.06 67.96 C 74.05 59.05 66.72 50.01 56.84 44.13 C 46.44 37.60 33.91 35.61 21.81 36.75 Z" />
<path fill="#606f80" opacity="1.00" d=" M 30.42 45.49 C 35.96 41.54 42.20 49.90 37.41 54.41 C 17.73 81.32 21.19 121.72 45.03 144.97 C 63.84 164.45 94.32 171.32 119.65 161.69 C 122.63 160.72 126.29 158.55 129.18 160.90 C 132.45 163.15 132.17 168.75 128.42 170.36 C 104.63 181.18 75.62 179.23 53.27 165.76 C 36.57 155.87 23.61 139.84 17.51 121.42 C 9.02 96.18 13.20 66.09 30.42 45.49 Z" />
<path fill="#606f80" opacity="1.00" d=" M 57.20 52.25 C 62.53 56.01 66.70 61.12 70.81 66.12 C 88.65 88.99 104.53 113.44 123.93 135.06 C 136.15 148.83 154.91 156.19 173.24 153.38 C 153.30 161.95 128.71 157.25 111.54 144.41 C 94.71 130.57 83.16 111.74 69.31 95.19 C 68.68 108.98 69.68 122.82 68.75 136.60 C 65.00 136.31 60.65 137.72 57.29 135.79 C 56.78 107.98 57.02 80.08 57.20 52.25 Z" />
</g>
</svg>
