<?xml version="1.0" encoding="UTF-8" ?>
<!DOCTYPE svg PUBLIC "-//W3C//DTD SVG 1.1//EN" "http://www.w3.org/Graphics/SVG/1.1/DTD/svg11.dtd">
<svg width="192pt" height="192pt" viewBox="0 0 192 192" version="1.1" xmlns="http://www.w3.org/2000/svg">
<g id="#ff3661ff">
<path fill="#ff3661" opacity="1.00" d=" M 73.49 27.71 C 102.10 25.48 131.17 27.52 158.91 35.02 C 167.44 37.45 174.06 45.18 175.23 53.96 C 179.12 82.12 179.08 110.82 175.03 138.96 C 173.71 148.24 166.17 156.11 157.03 158.05 C 116.58 168.32 73.52 168.29 33.08 157.99 C 24.00 155.97 16.62 148.12 15.29 138.89 C 11.41 110.76 11.41 82.10 15.24 53.97 C 16.41 45.06 23.20 37.24 31.87 34.89 C 45.50 31.26 59.45 28.93 73.49 27.71 M 79.41 38.55 C 64.56 39.51 49.80 41.84 35.39 45.57 C 30.55 46.75 26.80 51.16 26.33 56.11 C 22.77 82.88 22.76 110.13 26.41 136.89 C 27.04 141.90 31.05 146.11 35.98 147.11 C 74.53 156.90 115.57 156.91 154.13 147.16 C 159.08 146.20 163.26 142.05 163.87 137.00 C 167.64 110.18 167.75 82.84 164.07 56.01 C 163.62 51.21 160.04 46.96 155.38 45.72 C 130.69 39.09 104.89 37.12 79.41 38.55 Z" />
<path fill="#ff3661" opacity="1.00" d=" M 54.33 61.99 C 53.87 56.99 60.80 54.19 64.02 57.99 C 84.02 77.80 103.94 97.71 123.89 117.58 C 124.14 98.70 123.75 79.81 124.08 60.94 C 124.52 54.75 134.63 54.80 135.09 60.97 C 135.41 84.33 135.18 107.72 135.20 131.08 C 135.56 135.87 129.08 138.65 125.79 135.26 C 105.60 115.52 85.84 95.33 65.64 75.60 C 65.44 94.40 65.81 113.21 65.47 132.00 C 65.04 138.27 54.72 138.12 54.41 131.87 C 54.16 108.59 54.32 85.28 54.33 61.99 Z" />
</g>
</svg>
