<?xml version="1.0" encoding="UTF-8" ?>
<!DOCTYPE svg PUBLIC "-//W3C//DTD SVG 1.1//EN" "http://www.w3.org/Graphics/SVG/1.1/DTD/svg11.dtd">
<svg width="192pt" height="192pt" viewBox="0 0 192 192" version="1.1" xmlns="http://www.w3.org/2000/svg">
<g id="#19afffff">
<path fill="#19afff" opacity="1.00" d=" M 85.40 16.47 C 106.61 14.03 129.03 19.63 145.55 33.45 C 165.70 50.32 179.08 76.38 177.67 102.99 C 176.86 122.13 168.89 140.94 155.72 154.83 C 150.88 158.81 143.77 151.68 147.93 146.89 C 159.23 134.01 166.37 117.25 166.38 100.00 C 166.79 79.22 156.59 59.35 141.83 45.17 C 123.29 27.50 94.35 22.50 70.63 31.67 C 48.90 40.29 32.11 60.10 26.83 82.83 C 21.75 106.04 29.47 131.14 45.70 148.30 C 50.35 153.06 42.61 160.88 37.87 156.15 C 19.34 137.25 10.73 109.19 15.28 83.13 C 21.63 49.29 50.83 20.32 85.40 16.47 Z" />
<path fill="#19afff" opacity="1.00" d=" M 85.32 41.37 C 109.65 36.67 136.57 49.88 145.98 73.13 C 147.02 78.02 140.40 81.77 136.77 78.25 C 134.01 74.92 132.45 70.73 129.49 67.52 C 118.48 53.63 98.49 48.58 81.84 53.82 C 69.76 57.77 60.13 67.22 54.36 78.35 C 51.23 83.83 41.99 79.30 44.47 73.44 C 52.13 57.28 67.53 44.48 85.32 41.37 Z" />
<path fill="#19afff" opacity="1.00" d=" M 88.31 66.34 C 104.01 62.78 121.43 72.30 126.17 87.84 C 130.46 101.18 131.20 115.33 132.81 129.16 C 133.83 135.05 127.19 139.09 122.00 137.11 C 106.27 133.40 89.00 131.45 75.98 121.03 C 64.61 111.68 61.35 94.03 68.14 81.07 C 72.20 73.46 79.88 68.01 88.31 66.34 M 80.74 82.75 C 72.10 91.97 75.52 108.62 86.34 114.68 C 96.93 120.78 109.28 122.69 121.05 125.32 C 119.48 113.27 119.13 100.76 114.62 89.35 C 109.48 76.46 90.28 72.65 80.74 82.75 Z" />
</g>
</svg>
