<?xml version="1.0" encoding="UTF-8" ?>
<!DOCTYPE svg PUBLIC "-//W3C//DTD SVG 1.1//EN" "http://www.w3.org/Graphics/SVG/1.1/DTD/svg11.dtd">
<svg width="192pt" height="192pt" viewBox="0 0 192 192" version="1.1" xmlns="http://www.w3.org/2000/svg">
<g id="#6a707cff">
<path fill="#6a707c" opacity="1.00" d=" M 38.36 21.49 C 42.50 20.50 46.78 20.77 51.00 20.75 C 82.33 20.75 113.66 20.75 144.99 20.74 C 157.94 19.88 170.06 30.95 170.11 43.98 C 170.28 78.32 170.19 112.67 170.16 147.01 C 170.29 159.40 159.55 170.76 147.05 170.66 C 112.35 170.67 77.65 170.68 42.95 170.64 C 30.65 170.60 19.85 159.32 20.23 147.05 C 20.23 112.68 20.20 78.31 20.25 43.94 C 20.19 33.47 28.16 23.71 38.36 21.49 M 40.35 32.51 C 35.00 33.94 31.01 39.39 31.38 44.95 C 31.40 78.99 31.38 113.02 31.40 147.06 C 31.13 153.78 37.30 159.83 44.01 159.51 C 78.00 159.51 112.00 159.50 145.99 159.51 C 152.77 159.90 159.10 153.88 158.81 147.06 C 158.84 113.02 158.82 78.98 158.83 44.95 C 159.35 38.02 153.01 31.55 146.04 32.16 C 110.82 32.40 75.54 31.69 40.35 32.51 Z" />
<path fill="#6a707c" opacity="1.00" d=" M 78.37 60.45 C 82.93 59.36 87.71 60.88 91.44 63.56 C 101.34 70.31 111.43 76.80 121.25 83.66 C 129.04 89.51 128.99 102.46 121.10 108.20 C 110.60 115.37 100.06 122.51 89.40 129.44 C 80.35 135.23 66.83 128.73 65.86 118.01 C 65.46 104.03 65.77 90.02 65.71 76.03 C 65.37 68.62 71.18 61.81 78.37 60.45 M 79.35 72.27 C 77.78 73.30 76.97 75.07 77.16 76.93 C 77.17 89.65 77.13 102.38 77.18 115.10 C 76.72 118.32 80.61 121.38 83.49 119.42 C 93.55 112.84 103.50 106.06 113.47 99.35 C 115.94 97.90 116.03 93.91 113.56 92.42 C 104.47 86.17 95.22 80.14 86.12 73.92 C 84.14 72.65 81.74 70.84 79.35 72.27 Z" />
</g>
</svg>
