<?xml version="1.0" encoding="UTF-8" ?>
<!DOCTYPE svg PUBLIC "-//W3C//DTD SVG 1.1//EN" "http://www.w3.org/Graphics/SVG/1.1/DTD/svg11.dtd">
<svg width="192pt" height="192pt" viewBox="0 0 192 192" version="1.1" xmlns="http://www.w3.org/2000/svg">
<g id="#4d7fa1ff">
<path fill="#4d7fa1" opacity="1.00" d=" M 40.29 21.34 C 70.44 19.97 100.77 21.13 131.00 20.74 C 137.67 20.91 144.37 20.38 151.02 21.05 C 161.99 22.55 170.95 32.85 170.79 43.95 C 170.84 77.98 170.83 112.02 170.80 146.05 C 171.19 158.34 160.32 169.46 148.06 169.52 C 113.69 169.58 79.32 169.56 44.95 169.52 C 32.63 169.51 21.76 158.35 22.10 146.03 C 22.08 112.00 22.08 77.97 22.12 43.95 C 21.98 33.39 30.03 23.58 40.29 21.34 M 42.28 32.35 C 37.24 33.73 33.14 38.58 33.30 43.93 C 33.26 77.97 33.29 112.01 33.29 146.06 C 32.99 152.82 39.29 158.80 46.01 158.37 C 79.67 158.36 113.33 158.36 146.99 158.35 C 153.69 158.73 159.84 152.79 159.66 146.07 C 159.70 112.03 159.74 77.97 159.65 43.92 C 159.76 36.40 152.15 30.92 145.00 31.77 C 110.78 32.20 76.43 31.02 42.28 32.35 Z" />
<path fill="#4d7fa1" opacity="1.00" d=" M 74.29 57.35 C 77.85 56.40 81.50 57.73 84.59 59.45 C 98.95 67.41 113.44 75.16 127.76 83.18 C 136.18 87.69 136.40 101.40 127.95 105.99 C 112.89 114.31 97.85 122.68 82.67 130.77 C 74.78 135.15 63.93 128.97 63.60 119.97 C 63.42 103.33 63.51 86.67 63.57 70.03 C 63.56 63.88 68.34 58.52 74.29 57.35 M 75.32 68.20 C 73.78 68.79 74.27 70.69 74.10 71.95 C 74.10 87.31 74.09 102.67 74.10 118.03 C 73.54 120.27 76.20 122.56 78.21 121.18 C 92.72 113.42 107.11 105.39 121.55 97.48 C 123.97 96.66 124.49 93.14 122.00 92.05 C 108.07 84.26 94.00 76.70 80.05 68.95 C 78.56 68.28 76.88 66.86 75.32 68.20 Z" />
</g>
</svg>
