<?xml version="1.0" encoding="UTF-8" ?>
<!DOCTYPE svg PUBLIC "-//W3C//DTD SVG 1.1//EN" "http://www.w3.org/Graphics/SVG/1.1/DTD/svg11.dtd">
<svg width="192pt" height="192pt" viewBox="0 0 192 192" version="1.1" xmlns="http://www.w3.org/2000/svg">
<g id="#e1c0a4ff">
<path fill="#e1c0a4" opacity="1.00" d=" M 29.73 50.73 C 39.81 38.57 57.18 32.24 72.42 37.59 C 74.98 38.11 77.49 40.69 80.14 39.27 C 90.11 34.73 101.95 34.63 111.91 39.23 C 113.76 40.40 115.62 38.96 117.37 38.36 C 129.74 33.20 144.58 35.77 155.02 44.00 C 184.57 67.89 185.53 118.31 158.41 144.40 C 146.81 155.76 128.28 158.86 113.74 151.47 C 102.56 156.60 89.33 156.82 78.25 151.23 C 63.20 159.44 43.57 155.31 32.04 142.96 C 8.66 118.63 8.01 76.31 29.73 50.73 M 36.38 60.41 C 21.80 80.16 21.57 109.38 35.47 129.55 C 42.35 139.88 55.20 146.66 67.67 143.43 C 42.30 118.57 42.62 73.09 67.30 47.82 C 55.51 44.68 43.27 50.91 36.38 60.41 M 70.46 61.43 C 56.50 81.16 56.46 109.83 70.35 129.61 C 77.40 139.82 90.33 146.86 102.84 143.45 C 78.21 118.11 78.28 73.06 102.86 47.70 C 90.42 44.37 77.47 51.24 70.46 61.43 M 126.40 47.49 C 113.56 49.98 104.39 61.18 99.91 72.87 C 93.47 89.83 94.43 109.77 103.40 125.64 C 108.75 134.97 117.82 143.16 128.95 144.04 C 139.04 145.07 148.62 139.38 154.73 131.70 C 169.40 112.92 170.29 85.03 158.37 64.65 C 152.00 53.72 139.57 44.80 126.40 47.49 Z" />
</g>
</svg>
