<?xml version="1.0" encoding="UTF-8" ?>
<!DOCTYPE svg PUBLIC "-//W3C//DTD SVG 1.1//EN" "http://www.w3.org/Graphics/SVG/1.1/DTD/svg11.dtd">
<svg width="192pt" height="192pt" viewBox="0 0 192 192" version="1.1" xmlns="http://www.w3.org/2000/svg">
<g id="#ff365dff">
<path fill="#ff365d" opacity="1.00" d=" M 24.06 35.96 C 23.83 25.86 31.84 16.37 41.93 15.21 C 47.25 14.32 52.52 16.20 57.05 18.89 C 89.13 36.50 121.22 54.10 153.33 71.66 C 158.05 74.00 162.52 77.36 164.79 82.26 C 169.40 91.42 166.04 103.86 156.98 108.94 C 126.03 126.36 95.01 143.66 64.02 161.00 C 59.62 164.17 52.72 160.51 53.00 155.08 C 52.93 128.70 52.91 102.31 53.01 75.94 C 52.98 67.15 63.49 60.79 71.29 64.83 C 82.09 70.62 92.88 76.47 103.53 82.53 C 111.24 87.20 111.11 99.79 103.26 104.25 C 93.25 109.95 83.06 115.35 72.98 120.95 C 70.17 122.65 66.85 122.94 63.66 123.22 C 63.84 131.49 63.17 139.80 64.05 148.04 C 66.98 147.25 69.58 145.65 72.18 144.14 C 98.45 129.41 124.75 114.75 151.00 99.99 C 157.62 96.74 157.75 86.20 151.21 82.81 C 117.25 64.13 83.28 45.46 49.26 26.90 C 42.94 23.10 34.34 28.79 34.76 35.98 C 34.62 80.95 34.91 125.94 34.63 170.90 C 34.24 177.39 23.56 176.55 24.09 170.07 C 23.98 125.37 24.06 80.66 24.06 35.96 M 63.68 76.97 C 63.59 87.65 63.64 98.35 63.66 109.03 C 63.27 110.77 64.63 111.69 65.86 112.56 C 76.35 106.80 86.93 101.20 97.31 95.24 C 99.23 94.47 98.80 91.72 96.98 91.10 C 87.09 85.62 77.19 80.13 67.21 74.81 C 65.64 73.64 63.41 75.07 63.68 76.97 Z" />
</g>
</svg>
