<?xml version="1.0" encoding="UTF-8" ?>
<!DOCTYPE svg PUBLIC "-//W3C//DTD SVG 1.1//EN" "http://www.w3.org/Graphics/SVG/1.1/DTD/svg11.dtd">
<svg width="192pt" height="192pt" viewBox="0 0 192 192" version="1.1" xmlns="http://www.w3.org/2000/svg">
<g id="#a51affff">
<path fill="#a51aff" opacity="1.00" d=" M 14.12 28.92 C 13.76 20.89 21.28 14.65 28.97 14.76 C 65.00 14.73 101.03 14.71 137.06 14.75 C 145.32 15.54 150.53 24.12 150.06 31.95 C 150.05 60.99 149.80 90.03 149.99 119.06 C 150.49 126.74 144.87 134.39 136.83 134.56 C 112.55 134.94 88.25 134.62 63.96 134.70 C 56.53 142.02 49.41 149.66 41.78 156.76 C 38.12 160.52 30.87 157.84 30.64 152.59 C 30.43 146.67 30.62 140.75 30.47 134.83 C 22.35 135.75 13.93 129.61 14.10 121.08 C 14.02 90.36 14.02 59.64 14.12 28.92 M 25.41 29.12 C 25.30 59.41 25.38 89.70 25.37 119.98 C 25.39 125.99 33.35 122.18 36.98 124.01 C 43.76 126.74 41.42 135.18 41.78 140.83 C 48.46 135.51 53.01 127.15 61.05 123.84 C 86.61 122.66 112.35 124.31 137.91 123.00 C 139.01 119.43 138.66 115.67 138.69 112.00 C 138.69 85.31 138.66 58.62 138.74 31.93 C 138.78 29.61 138.19 25.67 135.03 26.13 C 100.00 26.10 64.96 26.12 29.93 26.12 C 28.01 26.01 25.00 26.54 25.41 29.12 Z" />
<path fill="#a51aff" opacity="1.00" d=" M 43.25 44.22 C 70.05 43.00 97.13 43.93 124.03 43.74 C 131.04 43.62 131.04 55.05 124.04 54.99 C 98.02 55.22 71.97 55.15 45.94 55.02 C 39.97 55.55 37.70 46.46 43.25 44.22 Z" />
<path fill="#a51aff" opacity="1.00" d=" M 157.80 63.97 C 156.67 59.79 161.44 55.82 165.36 57.58 C 171.78 59.60 174.93 66.59 174.77 72.92 C 174.82 96.64 174.86 120.36 174.77 144.08 C 174.91 152.89 167.45 160.36 158.67 160.43 C 159.67 165.75 156.69 171.53 150.98 172.26 C 141.67 174.38 136.71 164.46 129.75 160.42 C 109.86 160.02 89.91 160.66 70.02 160.11 C 64.12 158.89 64.84 149.16 70.96 149.08 C 90.31 148.87 109.68 149.09 129.04 148.97 C 136.96 148.25 141.24 156.26 147.10 160.13 C 146.69 155.77 148.15 150.23 153.10 149.29 C 156.79 148.75 163.03 149.97 163.34 144.57 C 163.78 120.46 163.57 96.30 163.43 72.17 C 163.96 68.00 158.20 67.76 157.80 63.97 Z" />
<path fill="#a51aff" opacity="1.00" d=" M 44.39 73.42 C 47.83 72.39 51.66 75.37 51.42 78.97 C 51.46 85.98 51.63 93.00 51.33 100.00 C 50.78 105.69 41.79 106.18 40.49 100.67 C 39.90 93.79 40.40 86.85 40.23 79.94 C 39.91 77.12 41.51 74.10 44.39 73.42 Z" />
<path fill="#a51aff" opacity="1.00" d=" M 65.39 75.33 C 83.69 73.52 102.53 74.98 121.03 74.58 C 127.90 73.99 128.74 85.29 121.92 85.71 C 103.95 85.94 85.95 85.84 67.97 85.75 C 62.59 85.94 60.64 77.74 65.39 75.33 Z" />
<path fill="#a51aff" opacity="1.00" d=" M 66.47 93.66 C 84.88 92.99 103.41 93.38 121.86 93.44 C 128.23 93.77 128.25 104.26 121.86 104.55 C 103.70 104.72 85.50 104.76 67.35 104.52 C 61.72 104.03 61.01 95.07 66.47 93.66 Z" />
</g>
</svg>
