<?xml version="1.0" encoding="UTF-8" ?>
<!DOCTYPE svg PUBLIC "-//W3C//DTD SVG 1.1//EN" "http://www.w3.org/Graphics/SVG/1.1/DTD/svg11.dtd">
<svg width="192pt" height="192pt" viewBox="0 0 192 192" version="1.1" xmlns="http://www.w3.org/2000/svg">
<g id="#526fa8ff">
<path fill="#526fa8" opacity="1.00" d=" M 37.29 19.37 C 40.80 18.57 44.43 18.73 48.00 18.73 C 80.66 18.78 113.32 18.67 145.97 18.76 C 158.17 18.79 168.96 29.77 168.84 41.95 C 168.88 76.32 168.89 110.68 168.88 145.04 C 169.14 157.36 158.29 168.51 145.96 168.56 C 111.32 168.65 76.67 168.62 42.03 168.54 C 29.68 168.51 18.84 157.36 19.05 145.03 C 19.03 110.67 19.03 76.31 19.10 41.94 C 19.04 31.42 27.06 21.62 37.29 19.37 M 39.35 30.47 C 33.95 31.87 29.95 37.36 30.34 42.95 C 30.36 76.99 30.31 111.03 30.37 145.07 C 30.21 151.74 36.40 157.54 43.02 157.22 C 77.01 157.23 111.01 157.22 145.00 157.17 C 152.00 157.49 158.03 150.97 157.58 144.07 C 157.60 110.36 157.62 76.64 157.59 42.93 C 157.96 36.15 151.94 29.66 145.04 30.15 C 109.81 30.38 74.54 29.73 39.35 30.47 Z" />
<path fill="#526fa8" opacity="1.00" d=" M 45.36 58.99 C 45.11 56.36 47.24 53.83 49.96 53.99 C 55.27 53.84 60.64 53.59 65.92 54.19 C 69.36 55.05 69.25 59.18 69.21 62.01 C 68.96 70.98 69.59 80.00 68.90 88.94 C 68.22 93.41 60.89 93.37 60.21 88.93 C 59.78 80.36 60.36 71.76 59.81 63.18 C 58.06 63.19 56.31 63.19 54.56 63.18 C 54.37 71.66 54.75 80.16 54.39 88.63 C 53.80 93.46 46.17 93.44 45.50 88.67 C 45.11 78.79 45.39 68.88 45.36 58.99 Z" />
<path fill="#526fa8" opacity="1.00" d=" M 74.54 58.99 C 74.29 56.82 75.50 54.17 77.94 54.05 C 83.58 53.78 89.29 53.62 94.92 54.16 C 98.91 54.90 99.52 61.21 95.73 62.68 C 91.85 63.80 87.71 63.03 83.73 63.19 C 83.72 64.93 83.71 66.68 83.70 68.42 C 86.48 68.57 89.38 68.13 92.07 68.96 C 95.39 70.43 95.56 75.68 92.28 77.28 C 89.50 77.99 86.58 77.63 83.74 77.74 C 83.73 79.48 83.72 81.23 83.71 82.97 C 87.66 83.30 91.73 82.62 95.60 83.53 C 99.43 85.11 99.02 91.16 95.00 92.20 C 89.67 92.60 84.31 92.38 78.96 92.34 C 76.58 92.56 74.35 90.42 74.58 88.02 C 74.47 78.34 74.56 68.66 74.54 58.99 Z" />
<path fill="#526fa8" opacity="1.00" d=" M 102.57 59.37 C 101.30 55.31 106.99 52.17 109.92 55.09 C 112.04 57.78 113.03 61.14 114.56 64.17 C 116.29 61.29 117.35 58.04 119.27 55.27 C 121.95 52.21 127.71 54.90 126.89 58.98 C 125.30 63.96 122.13 68.26 119.99 73.02 C 122.05 77.83 125.15 82.17 126.90 87.10 C 127.77 91.04 122.63 94.05 119.64 91.33 C 117.33 88.61 116.36 85.01 114.59 81.94 C 112.95 85.13 112.08 88.92 109.53 91.51 C 106.44 94.15 101.33 90.46 102.60 86.71 C 104.50 81.97 107.32 77.66 109.47 73.03 C 107.23 68.45 104.40 64.14 102.57 59.37 Z" />
<path fill="#526fa8" opacity="1.00" d=" M 135.27 54.33 C 138.42 52.87 142.29 55.45 141.79 58.97 C 141.75 68.95 142.03 78.95 141.66 88.91 C 140.96 93.39 133.67 93.45 132.83 88.96 C 132.34 79.99 132.81 70.99 132.61 62.00 C 132.62 59.31 132.25 55.60 135.27 54.33 Z" />
<path fill="#526fa8" opacity="1.00" d=" M 45.54 100.37 C 46.77 95.76 52.47 97.30 56.00 97.04 C 60.17 97.67 66.69 95.12 68.84 100.10 C 69.39 105.94 69.46 111.97 68.83 117.81 C 66.33 123.19 59.06 119.62 54.47 121.01 C 54.33 124.95 55.08 129.05 54.04 132.88 C 52.25 137.22 45.18 135.52 45.39 130.90 C 45.37 120.73 45.07 110.52 45.54 100.37 M 54.50 106.36 C 54.51 108.08 54.52 109.81 54.52 111.53 C 56.32 111.58 58.11 111.62 59.91 111.67 C 59.89 109.87 59.86 108.07 59.84 106.28 C 58.06 106.31 56.28 106.34 54.50 106.36 Z" />
<path fill="#526fa8" opacity="1.00" d=" M 74.57 102.00 C 74.31 99.50 76.34 96.98 78.93 97.11 C 83.97 96.99 89.02 96.96 94.06 97.12 C 97.10 97.06 98.68 100.32 98.38 102.99 C 98.28 112.66 98.63 122.34 98.20 131.99 C 97.28 136.16 90.98 136.65 89.50 132.63 C 88.76 128.72 89.37 124.69 88.95 120.74 C 87.22 120.75 85.49 120.76 83.76 120.79 C 83.60 124.66 84.03 128.58 83.44 132.43 C 82.15 136.55 75.59 136.29 74.71 132.02 C 74.32 122.03 74.60 112.00 74.57 102.00 M 83.77 106.31 C 83.78 108.08 83.81 109.86 83.87 111.63 C 85.60 111.62 87.34 111.62 89.07 111.64 C 89.06 109.86 89.06 108.08 89.05 106.31 C 87.29 106.31 85.53 106.31 83.77 106.31 Z" />
<path fill="#526fa8" opacity="1.00" d=" M 105.03 101.97 C 104.30 97.97 109.93 95.36 112.63 98.30 C 114.68 100.99 115.61 104.36 117.45 107.20 C 119.03 104.19 119.99 100.78 122.15 98.12 C 125.18 95.19 130.78 98.55 129.55 102.61 C 127.65 107.99 124.20 112.71 122.29 118.10 C 121.63 122.93 122.78 127.90 121.57 132.67 C 120.18 136.73 113.65 136.13 112.87 131.97 C 112.30 127.44 113.08 122.86 112.52 118.34 C 110.52 112.67 106.66 107.77 105.03 101.97 Z" />
</g>
</svg>
