<?xml version="1.0" encoding="UTF-8" ?>
<!DOCTYPE svg PUBLIC "-//W3C//DTD SVG 1.1//EN" "http://www.w3.org/Graphics/SVG/1.1/DTD/svg11.dtd">
<svg width="192pt" height="192pt" viewBox="0 0 192 192" version="1.1" xmlns="http://www.w3.org/2000/svg">
<g id="#18aeffff">
<path fill="#18aeff" opacity="1.00" d=" M 83.39 11.47 C 103.94 8.05 125.94 14.63 141.23 28.78 C 162.60 48.54 169.60 82.38 156.61 108.64 C 149.23 124.34 135.75 135.70 123.86 147.87 C 115.36 156.36 106.99 164.98 98.51 173.49 C 96.43 175.75 92.62 175.73 90.56 173.45 C 77.78 160.89 65.47 147.86 52.33 135.67 C 44.87 128.64 38.17 120.62 33.80 111.28 C 21.57 86.19 25.29 53.94 43.94 32.97 C 54.02 21.43 68.31 13.90 83.39 11.47 M 70.86 26.86 C 55.48 33.55 44.00 47.84 39.92 64.01 C 34.12 85.44 41.06 109.58 57.27 124.73 C 69.97 136.69 82.22 149.10 94.50 161.48 C 105.94 149.92 117.22 138.20 128.88 126.88 C 138.04 117.88 146.39 107.40 149.82 94.81 C 156.99 70.22 145.37 41.41 122.72 29.25 C 107.05 20.44 87.26 19.38 70.86 26.86 Z" />
<path fill="#18aeff" opacity="1.00" d=" M 74.43 52.29 C 78.86 51.13 84.17 51.38 88.72 52.14 C 94.41 63.15 98.63 74.94 103.99 86.14 C 106.76 74.95 108.36 63.45 111.39 52.35 C 115.76 50.77 121.09 51.86 125.81 51.95 C 122.26 70.47 119.14 89.22 114.61 107.48 C 110.01 107.77 105.25 108.09 100.69 107.31 C 94.95 96.31 90.93 84.42 84.99 73.51 C 82.25 84.56 80.96 96.00 77.96 106.95 C 73.74 108.59 68.18 107.58 63.50 107.32 C 66.95 88.95 70.34 70.52 74.43 52.29 Z" />
</g>
</svg>
