<?xml version="1.0" encoding="UTF-8" ?>
<!DOCTYPE svg PUBLIC "-//W3C//DTD SVG 1.1//EN" "http://www.w3.org/Graphics/SVG/1.1/DTD/svg11.dtd">
<svg width="192pt" height="192pt" viewBox="0 0 192 192" version="1.1" xmlns="http://www.w3.org/2000/svg">
<g id="#18acffff">
<path fill="#18acff" opacity="1.00" d=" M 27.76 41.31 C 21.45 31.16 34.05 17.45 44.66 23.30 C 77.20 41.88 109.52 60.85 142.00 79.52 C 150.36 75.50 161.36 79.58 164.64 88.33 C 168.84 97.72 162.21 109.70 152.01 111.06 C 148.40 112.14 144.85 109.98 141.34 110.28 C 109.25 128.78 77.47 147.85 45.34 166.27 C 34.10 172.23 21.14 157.53 28.03 147.03 C 40.43 129.45 53.18 112.10 65.81 94.67 C 53.37 76.72 40.14 59.30 27.76 41.31 M 39.05 33.10 C 38.56 33.55 37.59 34.45 37.11 34.90 C 48.57 51.85 60.95 68.20 72.80 84.88 C 78.29 77.29 83.92 69.79 89.21 62.05 C 72.48 52.42 55.88 42.54 39.05 33.10 M 99.07 67.88 C 93.14 76.02 87.28 84.21 81.33 92.34 C 80.80 93.24 79.45 94.41 80.49 95.48 C 86.60 104.26 93.04 112.83 99.18 121.60 C 110.88 115.15 122.21 108.04 133.88 101.52 C 132.65 97.07 132.42 92.40 133.90 87.98 C 122.30 81.27 110.77 74.41 99.07 67.88 M 38.15 152.14 C 36.52 153.77 38.12 155.83 39.93 156.36 C 56.52 146.82 73.03 137.15 89.46 127.33 C 83.89 119.64 78.39 111.88 72.77 104.22 C 61.24 120.20 49.62 136.12 38.15 152.14 Z" />
</g>
</svg>
