<?xml version="1.0" encoding="UTF-8" ?>
<!DOCTYPE svg PUBLIC "-//W3C//DTD SVG 1.1//EN" "http://www.w3.org/Graphics/SVG/1.1/DTD/svg11.dtd">
<svg width="192pt" height="192pt" viewBox="0 0 192 192" version="1.1" xmlns="http://www.w3.org/2000/svg">
<g id="#ff3660ff">
<path fill="#ff3660" opacity="1.00" d=" M 38.09 37.92 C 38.09 26.28 48.36 15.88 60.00 15.77 C 84.00 15.71 108.00 15.70 131.99 15.77 C 143.60 15.92 153.83 26.32 153.81 37.92 C 153.89 70.97 153.87 104.02 153.83 137.07 C 154.16 149.59 142.57 160.46 130.14 159.81 C 129.22 165.06 132.44 172.75 126.86 176.05 C 122.72 176.81 116.08 177.89 114.17 172.90 C 113.50 168.55 114.03 164.11 113.77 159.72 C 101.57 159.72 89.37 159.74 77.17 159.71 C 75.80 164.95 79.39 172.63 73.87 176.00 C 69.71 176.83 63.03 177.90 61.09 172.89 C 60.46 168.57 60.97 164.18 60.72 159.83 C 48.64 159.86 37.82 149.22 38.06 137.06 C 38.04 104.02 38.01 70.97 38.09 37.92 M 57.37 27.52 C 52.52 28.97 49.09 33.90 49.33 38.94 C 49.33 71.65 49.28 104.37 49.35 137.08 C 49.22 143.22 54.85 148.73 61.01 148.45 C 84.33 148.47 107.66 148.48 130.99 148.43 C 137.15 148.68 142.70 143.14 142.55 136.99 C 142.58 104.31 142.56 71.62 142.57 38.94 C 142.91 32.70 137.42 26.72 131.07 27.12 C 106.51 27.39 81.87 26.61 57.37 27.52 Z" />
<path fill="#ff3660" opacity="1.00" d=" M 68.41 44.61 C 85.59 43.83 102.86 44.48 120.08 44.28 C 126.63 43.88 132.89 49.33 133.12 55.95 C 133.32 65.31 133.23 74.69 133.17 84.06 C 133.15 90.46 127.48 96.14 121.07 96.16 C 104.36 96.23 87.65 96.23 70.94 96.16 C 64.49 96.18 58.74 90.47 58.74 84.02 C 58.64 75.01 58.68 66.00 58.72 57.00 C 58.56 51.27 62.77 45.77 68.41 44.61 M 70.17 55.66 C 70.04 65.35 70.02 75.05 70.17 84.74 C 87.37 84.95 104.58 84.95 121.78 84.74 C 122.08 75.07 122.05 65.38 121.77 55.71 C 104.58 55.40 87.37 55.50 70.17 55.66 Z" />
<path fill="#ff3660" opacity="1.00" d=" M 63.42 113.47 C 68.51 110.65 75.49 115.18 74.90 120.98 C 75.10 126.98 67.42 130.84 62.62 127.39 C 57.48 124.36 57.96 115.89 63.42 113.47 Z" />
<path fill="#ff3660" opacity="1.00" d=" M 122.37 113.40 C 127.82 110.53 134.84 115.84 133.66 121.84 C 133.18 127.70 125.41 130.77 120.95 127.06 C 116.19 123.75 117.02 115.64 122.37 113.40 Z" />
</g>
</svg>
