<?xml version="1.0" encoding="UTF-8" ?>
<!DOCTYPE svg PUBLIC "-//W3C//DTD SVG 1.1//EN" "http://www.w3.org/Graphics/SVG/1.1/DTD/svg11.dtd">
<svg width="192pt" height="192pt" viewBox="0 0 192 192" version="1.1" xmlns="http://www.w3.org/2000/svg">
<g id="#19b0ffff">
<path fill="#19b0ff" opacity="1.00" d=" M 32.37 22.56 C 34.48 21.79 36.75 21.62 38.98 21.72 C 55.22 22.57 71.37 25.02 87.21 28.70 C 89.72 29.13 91.77 31.40 91.67 33.99 C 91.79 51.35 91.70 68.71 91.72 86.08 C 92.10 89.34 89.39 92.45 86.05 92.26 C 68.69 92.34 51.31 92.32 33.95 92.26 C 30.86 92.45 28.38 89.97 27.96 87.02 C 24.13 70.97 23.07 54.40 22.24 37.96 C 21.73 31.33 26.03 24.66 32.37 22.56 M 33.07 37.95 C 33.75 52.48 34.76 67.08 37.72 81.35 C 52.11 81.36 66.50 81.35 80.89 81.33 C 80.87 67.01 80.96 52.69 80.84 38.38 C 66.72 35.38 52.38 33.24 37.95 32.57 C 34.92 32.05 32.51 35.07 33.07 37.95 Z" />
<path fill="#19b0ff" opacity="1.00" d=" M 138.35 22.44 C 143.22 22.07 148.10 21.41 153.00 21.63 C 161.00 22.22 167.40 30.02 166.65 37.98 C 165.76 54.36 164.76 70.87 160.92 86.87 C 160.48 90.22 157.35 92.35 154.08 92.09 C 149.33 91.93 143.43 93.12 139.96 89.04 C 127.33 76.67 114.97 64.03 102.37 51.63 C 100.01 49.23 96.50 46.94 97.12 43.06 C 97.70 38.40 95.04 30.99 100.83 28.86 C 113.13 25.74 125.72 23.72 138.35 22.44 M 107.81 38.36 C 107.99 39.95 107.56 41.88 109.07 42.95 C 121.81 55.62 134.45 68.39 147.25 81.00 C 148.55 81.01 149.85 81.02 151.16 81.03 C 154.04 66.86 155.05 52.37 155.77 37.95 C 156.34 35.13 154.06 32.03 151.04 32.50 C 136.49 33.06 122.03 35.27 107.81 38.36 Z" />
<path fill="#19b0ff" opacity="1.00" d=" M 32.35 99.47 C 50.22 99.06 68.13 99.36 86.01 99.30 C 89.14 99.05 92.02 101.81 91.76 104.97 C 91.84 122.34 91.79 139.72 91.78 157.09 C 92.06 160.01 89.88 162.61 87.04 163.09 C 73.38 166.89 59.17 168.43 45.02 168.86 C 40.39 169.02 35.50 169.85 31.10 167.96 C 24.92 165.46 21.00 158.61 21.84 152.02 C 23.32 136.28 24.81 120.49 27.93 104.98 C 28.26 102.55 29.73 99.90 32.35 99.47 M 37.89 110.25 C 35.39 124.42 33.92 138.75 32.65 153.07 C 32.14 155.61 34.29 158.40 36.96 158.19 C 51.68 158.01 66.46 156.86 80.83 153.53 C 81.13 139.09 80.94 124.65 80.91 110.21 C 66.57 110.29 52.23 110.20 37.89 110.25 Z" />
<path fill="#19b0ff" opacity="1.00" d=" M 102.36 99.47 C 120.24 98.98 138.17 99.38 156.07 99.25 C 159.23 98.87 162.24 101.16 162.56 104.35 C 165.81 120.04 167.32 136.02 168.84 151.95 C 170.03 160.81 162.11 169.51 153.13 168.82 C 137.21 167.77 121.30 166.13 105.57 163.46 C 102.44 163.09 98.50 161.59 98.40 157.87 C 97.93 140.25 98.14 122.60 98.20 104.96 C 98.07 102.45 99.87 99.96 102.36 99.47 M 109.09 110.21 C 108.90 124.48 108.97 138.74 109.13 153.01 C 123.69 155.29 138.37 156.82 153.07 157.90 C 155.76 158.31 158.46 155.75 157.94 153.02 C 156.76 138.71 155.18 124.40 152.69 110.24 C 138.15 110.23 123.62 110.28 109.09 110.21 Z" />
</g>
</svg>
