<?xml version="1.0" encoding="UTF-8" ?>
<!DOCTYPE svg PUBLIC "-//W3C//DTD SVG 1.1//EN" "http://www.w3.org/Graphics/SVG/1.1/DTD/svg11.dtd">
<svg width="192pt" height="192pt" viewBox="0 0 192 192" version="1.1" xmlns="http://www.w3.org/2000/svg">
<g id="#5f88ceff">
<path fill="#5f88ce" opacity="1.00" d=" M 22.03 26.92 C 21.60 22.48 25.42 18.26 29.96 18.74 C 73.65 18.72 117.34 18.70 161.03 18.73 C 165.55 18.28 169.28 22.56 168.85 26.94 C 168.87 56.96 168.80 86.98 169.09 117.00 C 169.60 126.04 166.62 135.65 159.08 141.16 C 143.93 153.54 121.96 148.78 106.52 160.60 C 102.06 163.64 98.97 168.12 95.23 171.92 C 89.91 164.43 82.73 158.14 73.97 155.07 C 62.30 150.50 49.10 151.18 37.96 145.05 C 29.15 140.88 21.86 132.20 22.02 122.06 C 21.95 90.35 22.02 58.63 22.03 26.92 M 32.59 29.81 C 32.46 60.20 32.74 90.60 32.51 120.99 C 32.71 132.74 45.44 137.80 55.21 139.70 C 69.52 141.89 84.30 145.89 95.11 156.02 C 106.23 146.73 120.52 141.71 134.93 139.82 C 144.81 137.92 158.25 133.05 158.30 121.00 C 158.07 90.61 158.46 60.22 158.20 29.83 C 116.33 29.80 74.46 29.75 32.59 29.81 Z" />
<path fill="#5f88ce" opacity="1.00" d=" M 51.94 60.26 C 55.45 60.14 58.96 60.14 62.48 60.22 C 66.04 70.26 69.01 80.48 72.43 90.56 C 72.77 82.97 72.65 75.36 72.55 67.76 C 71.60 67.15 70.66 66.53 69.71 65.92 C 69.73 64.03 69.78 62.14 69.86 60.25 C 74.19 60.12 78.53 60.14 82.86 60.16 C 82.85 62.09 82.84 64.01 82.82 65.94 C 82.00 66.51 81.18 67.08 80.36 67.65 C 80.16 83.42 80.43 99.19 80.22 114.97 C 76.85 114.87 73.13 113.54 72.03 110.01 C 68.97 101.14 66.47 92.06 62.88 83.38 C 62.58 89.60 62.76 95.83 62.71 102.05 C 65.27 104.56 66.56 107.93 66.38 111.52 C 61.54 110.38 56.74 109.10 51.94 107.85 C 51.31 104.89 51.85 101.90 55.13 101.04 C 55.21 90.04 55.24 79.04 55.13 68.05 C 51.85 66.67 51.24 63.46 51.94 60.26 Z" />
<path fill="#5f88ce" opacity="1.00" d=" M 86.24 60.24 C 94.24 60.07 102.24 60.14 110.24 60.18 C 110.39 64.24 110.38 68.31 110.33 72.38 C 106.50 73.38 103.69 71.19 103.21 67.41 C 101.27 67.38 99.32 67.38 97.38 67.40 C 96.67 72.06 96.85 76.78 96.83 81.48 C 99.74 81.98 102.52 81.27 104.20 78.70 C 104.98 78.75 106.55 78.83 107.34 78.87 C 107.42 83.03 107.43 87.19 107.40 91.35 C 106.38 91.43 105.36 91.51 104.34 91.60 C 102.51 89.50 100.02 88.37 97.21 88.66 C 96.73 96.39 96.62 104.20 97.14 111.91 C 99.35 114.81 100.39 118.15 99.74 121.82 C 94.98 118.78 84.81 119.69 85.68 112.10 C 87.44 110.95 89.54 109.54 89.12 107.08 C 88.34 93.94 89.29 80.75 88.76 67.63 C 87.87 67.11 86.99 66.60 86.12 66.08 C 86.15 64.13 86.18 62.18 86.24 60.24 Z" />
<path fill="#5f88ce" opacity="1.00" d=" M 113.37 60.27 C 117.99 60.05 122.62 60.12 127.25 60.15 C 127.30 62.05 127.34 63.95 127.37 65.85 C 126.42 66.56 125.48 67.26 124.54 67.97 C 124.54 79.70 124.46 91.42 124.59 103.14 C 126.54 102.64 128.48 102.09 130.38 101.43 C 130.91 98.37 131.43 95.29 132.29 92.30 C 134.06 92.36 135.83 92.46 137.60 92.60 C 137.46 97.74 137.71 102.88 137.39 108.02 C 129.13 110.02 120.99 112.51 112.71 114.44 C 111.97 110.71 113.19 107.34 116.25 105.10 C 116.19 92.73 116.25 80.36 116.21 67.99 C 115.22 67.24 114.23 66.49 113.24 65.73 C 113.26 63.91 113.30 62.09 113.37 60.27 Z" />
</g>
</svg>
