<?xml version="1.0" encoding="UTF-8" ?>
<!DOCTYPE svg PUBLIC "-//W3C//DTD SVG 1.1//EN" "http://www.w3.org/Graphics/SVG/1.1/DTD/svg11.dtd">
<svg width="192pt" height="192pt" viewBox="0 0 192 192" version="1.1" xmlns="http://www.w3.org/2000/svg">
<g id="#3190e5ff">
<path fill="#3190e5" opacity="1.00" d=" M 21.09 42.91 C 21.30 30.94 31.97 20.45 43.94 20.43 C 60.90 20.44 77.88 20.19 94.82 20.53 C 100.86 21.16 100.78 31.14 94.65 31.51 C 77.77 31.84 60.86 31.44 43.98 31.66 C 37.62 31.79 32.05 37.56 32.29 43.94 C 32.25 72.25 32.30 100.57 32.28 128.89 C 58.02 115.20 70.36 80.94 57.63 54.38 C 54.07 48.95 59.42 40.73 65.88 43.08 C 75.47 47.40 83.85 54.12 90.92 61.87 C 92.93 46.56 103.46 34.30 112.30 22.29 C 116.44 16.33 126.00 23.65 121.14 29.19 C 110.36 42.86 98.44 58.57 101.02 77.06 C 104.79 85.14 106.00 93.98 107.34 102.69 C 111.55 111.49 118.20 119.31 126.66 124.29 C 124.06 115.74 121.16 107.08 121.46 98.01 C 123.58 73.17 133.28 48.07 152.38 31.37 C 155.16 29.20 158.21 24.47 162.21 26.77 C 167.09 30.98 169.88 37.53 169.74 43.96 C 169.75 78.00 169.82 112.04 169.79 146.07 C 169.97 158.24 159.14 169.06 147.03 169.15 C 131.34 169.18 115.63 169.37 99.95 169.05 C 94.21 168.63 93.61 159.46 99.24 158.27 C 115.15 157.67 131.13 158.28 147.06 157.92 C 153.56 157.63 159.04 151.57 158.63 145.06 C 158.48 110.36 158.97 75.65 158.42 40.96 C 142.63 55.64 134.75 76.93 132.70 98.01 C 132.63 109.62 136.90 120.96 143.85 130.16 C 148.14 135.60 141.79 143.97 135.38 141.53 C 123.90 137.03 113.13 130.02 105.35 120.34 C 102.78 131.98 99.02 143.90 90.92 152.94 C 85.38 158.82 79.61 164.63 72.91 169.17 C 67.85 171.60 62.55 164.51 66.34 160.40 C 74.12 153.22 83.27 146.81 87.97 136.98 C 94.12 123.97 97.00 109.09 94.31 94.82 C 91.86 80.73 83.37 67.95 71.76 59.69 C 77.68 81.75 71.91 106.55 56.67 123.58 C 47.82 133.49 36.28 140.72 23.93 145.44 C 22.52 144.33 20.68 143.17 21.02 141.08 C 20.98 108.36 20.94 75.63 21.09 42.91 Z" />
</g>
</svg>
