<?xml version="1.0" encoding="UTF-8" ?>
<!DOCTYPE svg PUBLIC "-//W3C//DTD SVG 1.1//EN" "http://www.w3.org/Graphics/SVG/1.1/DTD/svg11.dtd">
<svg width="192pt" height="192pt" viewBox="0 0 192 192" version="1.1" xmlns="http://www.w3.org/2000/svg">
<g id="#b02de4ff">
<path fill="#b02de4" opacity="1.00" d=" M 103.23 23.20 C 104.90 20.10 109.63 19.37 112.05 21.99 C 117.13 27.51 120.69 34.99 119.41 42.65 C 127.59 43.38 135.78 44.12 143.92 45.27 C 152.26 46.53 159.78 51.73 164.08 58.97 C 169.77 68.23 170.60 79.36 171.63 89.91 C 172.75 108.62 172.79 127.77 168.02 146.01 C 165.22 156.82 155.92 165.11 145.01 167.14 C 121.61 171.50 97.66 170.45 73.98 170.09 C 61.49 169.34 48.41 169.32 36.75 164.27 C 23.53 157.05 20.19 140.88 19.23 127.08 C 18.10 107.47 17.13 87.35 22.16 68.16 C 24.47 58.60 31.48 50.15 40.84 46.84 C 52.66 42.88 65.42 44.23 77.46 41.49 C 87.39 37.87 97.58 32.53 103.23 23.20 M 86.39 49.42 C 73.13 55.78 57.73 52.41 44.00 57.00 C 37.64 59.46 33.42 65.58 32.06 72.10 C 27.78 89.78 28.86 108.21 29.78 126.22 C 30.82 136.54 32.01 149.25 41.98 155.02 C 51.87 158.58 62.61 158.84 73.02 159.34 C 95.12 159.88 117.37 160.61 139.32 157.40 C 145.26 156.49 151.65 154.33 155.03 149.00 C 159.14 142.41 159.70 134.43 160.64 126.92 C 162.18 109.66 162.06 92.12 158.95 75.04 C 157.54 66.80 152.56 58.10 143.84 56.15 C 133.36 54.22 122.66 53.78 112.08 52.71 C 108.18 52.44 105.53 47.80 107.45 44.34 C 108.93 41.33 109.42 37.95 108.16 34.77 C 102.02 41.12 94.47 45.92 86.39 49.42 Z" />
<path fill="#b02de4" opacity="1.00" d=" M 55.34 79.42 C 62.79 75.82 71.67 83.87 69.56 91.65 C 68.26 99.12 58.11 102.71 52.53 97.47 C 46.28 92.70 48.09 82.17 55.34 79.42 Z" />
<path fill="#b02de4" opacity="1.00" d=" M 132.35 79.37 C 135.40 77.86 138.70 82.05 136.85 84.75 C 135.10 87.21 132.31 88.59 129.93 90.34 C 132.12 92.45 135.00 93.80 136.91 96.21 C 138.69 99.09 135.50 102.97 132.33 101.65 C 128.24 99.62 124.67 96.65 120.84 94.17 C 118.34 92.81 117.72 88.87 120.34 87.29 C 124.26 84.55 128.08 81.55 132.35 79.37 Z" />
<path fill="#b02de4" opacity="1.00" d=" M 86.38 111.43 C 94.40 110.28 101.15 116.50 107.52 120.52 C 110.56 122.92 115.74 125.82 113.41 130.45 C 107.12 137.34 98.76 142.30 90.00 145.39 C 83.86 146.64 84.10 138.83 83.59 134.81 C 83.72 127.15 81.96 118.07 86.38 111.43 Z" />
</g>
</svg>
