<?xml version="1.0" encoding="UTF-8" ?>
<!DOCTYPE svg PUBLIC "-//W3C//DTD SVG 1.1//EN" "http://www.w3.org/Graphics/SVG/1.1/DTD/svg11.dtd">
<svg width="192pt" height="192pt" viewBox="0 0 192 192" version="1.1" xmlns="http://www.w3.org/2000/svg">
<g id="#ff643bff">
<path fill="#ff643b" opacity="1.00" d=" M 21.49 43.94 C 21.64 31.70 32.79 21.06 45.01 21.36 C 79.00 21.34 112.99 21.31 146.98 21.36 C 159.12 21.21 170.07 31.85 170.18 44.00 C 170.26 60.67 170.26 77.36 170.18 94.03 C 170.26 99.90 165.09 104.68 159.38 104.96 C 152.00 97.14 137.52 99.03 133.09 109.04 C 129.55 115.96 132.21 124.53 138.06 129.29 C 130.15 131.57 121.51 129.23 113.35 130.52 C 111.92 132.64 111.58 136.51 113.43 138.43 C 120.40 139.52 127.74 137.52 134.55 139.45 C 135.47 147.52 135.23 155.81 134.83 163.94 C 133.68 171.31 122.18 172.45 119.24 165.74 C 117.25 160.13 119.46 153.94 117.78 148.22 C 116.04 148.27 114.31 148.38 112.58 148.52 C 112.04 153.66 112.78 158.85 112.18 163.98 C 111.48 168.20 107.03 170.59 103.02 170.26 C 83.34 170.19 63.65 170.39 43.97 170.16 C 31.89 169.95 21.34 159.12 21.46 147.05 C 21.45 112.68 21.40 78.31 21.49 43.94 M 32.58 45.00 C 32.52 78.66 32.57 112.33 32.57 146.00 C 32.11 152.82 38.06 159.16 44.92 158.98 C 59.31 159.00 73.70 159.05 88.09 158.96 C 92.85 159.10 96.83 154.66 96.47 149.98 C 96.44 134.45 96.70 118.92 96.54 103.40 C 85.02 101.59 73.19 103.66 61.62 102.38 C 54.39 100.47 55.67 88.72 63.11 88.33 C 95.09 88.02 127.09 88.30 159.08 88.17 C 159.06 73.77 159.19 59.36 159.04 44.95 C 159.23 38.44 153.50 32.50 146.97 32.56 C 112.97 32.52 78.96 32.53 44.95 32.55 C 38.29 32.34 32.36 38.36 32.58 45.00 Z" />
<path fill="#ff643b" opacity="1.00" d=" M 112.36 46.46 C 121.49 44.33 131.07 51.78 131.74 61.02 C 132.92 70.04 125.09 78.88 116.01 78.87 C 107.29 79.39 99.24 71.69 98.97 63.03 C 98.62 55.21 104.84 48.03 112.36 46.46 Z" />
<path fill="#ff643b" opacity="1.00" d=" M 143.37 159.13 C 143.28 155.39 149.67 155.38 151.08 158.03 C 151.42 161.58 151.61 165.25 150.94 168.77 C 149.21 171.11 145.92 169.88 143.55 169.44 C 143.34 166.01 143.10 162.56 143.37 159.13 Z" />
</g>
</svg>
