<?xml version="1.0" encoding="UTF-8" ?>
<!DOCTYPE svg PUBLIC "-//W3C//DTD SVG 1.1//EN" "http://www.w3.org/Graphics/SVG/1.1/DTD/svg11.dtd">
<svg width="192pt" height="192pt" viewBox="0 0 192 192" version="1.1" xmlns="http://www.w3.org/2000/svg">
<g id="#6cb6b2ff">
<path fill="#6cb6b2" opacity="1.00" d=" M 171.00 17.97 C 175.30 14.66 181.71 20.18 179.02 24.88 C 174.48 30.36 168.95 34.94 164.08 40.13 C 165.63 43.89 166.88 47.86 166.72 51.99 C 166.66 83.29 166.80 114.60 166.65 145.91 C 166.74 152.60 155.66 152.68 155.59 146.00 C 155.28 113.66 155.76 81.31 155.35 48.97 C 145.63 58.12 136.36 67.75 126.82 77.09 C 130.54 83.79 133.55 91.17 133.30 98.99 C 133.39 113.70 123.78 127.76 110.17 133.23 C 98.48 138.29 84.53 136.44 74.10 129.31 C 66.49 136.63 59.27 144.38 51.46 151.48 C 47.00 154.88 40.79 148.49 43.98 144.02 C 51.09 136.38 58.77 129.25 66.10 121.80 C 56.17 108.87 55.60 89.60 65.61 76.56 C 77.39 59.72 103.09 56.52 119.04 69.23 C 128.76 59.48 138.92 50.12 148.22 39.98 C 143.59 38.63 138.74 39.24 134.00 39.13 C 95.31 39.04 56.61 39.32 17.94 38.99 C 11.56 38.64 11.57 28.24 17.96 27.96 C 59.29 27.72 100.64 27.93 141.98 27.86 C 147.23 27.60 152.27 29.35 156.74 31.98 C 161.51 27.33 166.07 22.44 171.00 17.97 M 77.34 80.34 C 68.39 88.80 67.31 103.52 74.18 113.59 C 86.54 101.64 98.73 89.49 110.85 77.29 C 100.74 70.29 85.89 71.35 77.34 80.34 M 84.73 118.73 C 83.96 119.53 82.91 120.32 83.23 121.59 C 92.64 126.81 105.17 125.47 113.13 118.17 C 122.26 110.44 124.94 95.75 118.19 85.68 C 107.01 96.67 95.99 107.82 84.73 118.73 Z" />
<path fill="#6cb6b2" opacity="1.00" d=" M 29.41 46.42 C 33.22 45.52 36.69 49.23 36.14 52.98 C 36.20 84.01 36.12 115.04 36.18 146.07 C 35.95 152.88 42.27 158.78 49.03 158.36 C 90.31 158.44 131.60 158.28 172.87 158.44 C 179.62 158.41 179.61 169.54 172.87 169.49 C 131.23 169.64 89.58 169.56 47.93 169.53 C 35.95 169.55 25.10 159.07 24.98 147.04 C 24.91 115.68 24.98 84.32 24.95 52.97 C 24.55 50.04 26.38 46.92 29.41 46.42 Z" />
</g>
</svg>
