<?xml version="1.0" encoding="UTF-8" ?>
<!DOCTYPE svg PUBLIC "-//W3C//DTD SVG 1.1//EN" "http://www.w3.org/Graphics/SVG/1.1/DTD/svg11.dtd">
<svg width="192pt" height="192pt" viewBox="0 0 192 192" version="1.1" xmlns="http://www.w3.org/2000/svg">
<g id="#19b0ffff">
<path fill="#19b0ff" opacity="1.00" d=" M 52.56 25.52 C 79.81 7.92 117.52 9.12 143.64 28.32 C 166.30 44.32 179.61 72.40 177.69 100.08 C 177.40 103.94 177.78 109.94 172.83 110.84 C 168.38 111.92 164.90 107.09 166.14 103.01 C 170.17 72.08 150.92 40.29 121.86 29.21 C 103.81 22.01 82.77 22.75 65.30 31.27 C 47.73 39.69 33.99 55.71 28.36 74.37 C 22.80 92.47 24.79 112.76 33.89 129.39 C 44.36 114.27 53.82 98.42 64.43 83.42 C 71.44 78.66 76.08 88.86 81.07 92.31 C 81.68 86.69 79.85 80.33 83.47 75.43 C 88.05 67.96 92.27 60.27 96.94 52.87 C 99.22 49.10 105.42 50.10 106.68 54.23 C 111.80 66.86 116.65 79.61 121.75 92.25 C 122.85 83.47 129.80 77.87 137.11 73.96 C 139.77 73.22 142.58 74.81 143.64 77.29 C 151.32 92.70 158.90 108.17 166.50 123.62 C 168.54 127.62 168.75 132.57 166.68 136.60 C 149.92 166.61 112.79 183.32 79.21 175.80 C 46.13 169.34 19.20 140.38 14.89 107.00 C 9.99 75.52 25.39 42.15 52.56 25.52 M 92.66 82.44 C 92.01 90.28 92.59 98.20 92.05 106.06 C 91.97 110.31 86.19 112.87 83.07 109.89 C 78.26 105.55 73.77 100.85 69.08 96.37 C 59.70 110.84 50.16 125.19 40.80 139.67 C 55.57 158.45 80.25 168.72 103.99 165.76 C 124.15 163.58 143.00 152.06 154.29 135.23 C 156.31 132.32 156.43 128.40 154.76 125.30 C 148.55 112.84 142.60 100.24 136.22 87.87 C 131.02 95.12 130.78 104.78 126.53 112.54 C 124.10 115.84 118.33 114.92 117.06 111.02 C 111.40 97.03 106.05 82.92 100.40 68.93 C 97.91 73.48 94.85 77.74 92.66 82.44 Z" />
</g>
</svg>
