<?xml version="1.0" encoding="UTF-8" ?>
<!DOCTYPE svg PUBLIC "-//W3C//DTD SVG 1.1//EN" "http://www.w3.org/Graphics/SVG/1.1/DTD/svg11.dtd">
<svg width="192pt" height="192pt" viewBox="0 0 192 192" version="1.1" xmlns="http://www.w3.org/2000/svg">
<g id="#f6b12dff">
<path fill="#f6b12d" opacity="1.00" d=" M 79.39 15.52 C 104.85 9.93 132.77 17.39 151.90 35.13 C 154.70 37.68 154.73 42.40 152.14 45.11 C 139.60 59.23 126.98 73.28 114.43 87.40 C 115.48 88.45 116.59 89.46 117.86 90.26 C 131.22 78.48 144.68 66.83 158.14 55.17 C 161.31 52.19 166.99 53.15 169.01 56.99 C 179.73 76.53 181.76 100.55 174.74 121.68 C 166.80 146.19 146.61 166.40 121.99 174.08 C 115.77 175.87 112.44 165.84 118.45 163.52 C 134.77 158.04 149.12 146.73 157.78 131.79 C 169.17 112.71 170.69 88.17 161.76 67.83 C 150.15 77.87 138.45 87.87 127.05 98.13 C 128.31 102.00 134.14 103.41 134.31 107.97 C 134.81 121.43 129.50 134.33 122.64 145.64 C 114.90 158.21 104.67 169.64 91.96 177.29 C 77.88 178.54 64.36 172.58 52.59 165.41 C 26.12 149.11 10.73 116.80 14.92 85.99 C 15.73 82.88 19.49 81.43 22.31 82.74 C 38.17 87.75 55.48 91.80 71.87 86.88 C 81.50 84.22 89.73 78.32 97.26 71.96 C 100.34 74.09 102.77 76.99 105.70 79.31 C 117.26 66.22 129.03 53.32 140.53 40.18 C 120.24 23.95 90.87 20.41 67.29 31.24 C 50.19 38.86 36.67 53.60 29.91 70.98 C 27.35 76.40 18.18 73.28 19.51 67.38 C 28.70 41.30 52.35 21.07 79.39 15.52 M 93.69 89.78 C 99.86 95.80 106.56 101.28 112.55 107.46 C 116.14 112.13 110.11 118.97 105.00 116.08 C 97.79 110.35 91.37 103.66 84.51 97.51 C 82.26 95.42 79.08 96.73 76.59 97.57 C 60.22 103.18 42.41 100.70 26.06 96.29 C 26.12 129.05 51.05 160.86 84.07 165.37 C 90.01 166.63 93.86 161.18 97.87 157.87 C 110.61 145.46 121.37 129.26 122.40 111.05 C 113.96 103.07 105.36 95.26 96.78 87.44 C 95.75 88.22 94.73 89.00 93.69 89.78 Z" />
</g>
</svg>
