<?xml version="1.0" encoding="UTF-8" ?>
<!DOCTYPE svg PUBLIC "-//W3C//DTD SVG 1.1//EN" "http://www.w3.org/Graphics/SVG/1.1/DTD/svg11.dtd">
<svg width="192pt" height="192pt" viewBox="0 0 192 192" version="1.1" xmlns="http://www.w3.org/2000/svg">
<g id="#ff3662ff">
<path fill="#ff3662" opacity="1.00" d=" M 42.35 16.47 C 63.77 14.78 85.47 16.21 107.00 15.73 C 111.02 16.11 116.05 14.42 119.12 17.84 C 132.77 31.54 146.46 45.20 160.07 58.94 C 161.82 60.46 161.89 62.84 161.88 64.97 C 161.81 95.33 161.91 125.69 161.84 156.05 C 162.17 165.73 153.67 174.50 144.00 174.51 C 111.65 174.59 79.29 174.55 46.94 174.53 C 37.57 174.75 29.12 166.45 29.25 157.07 C 29.22 116.03 29.23 74.98 29.26 33.93 C 29.14 26.05 34.80 18.63 42.35 16.47 M 40.30 33.98 C 40.22 74.67 40.28 115.37 40.27 156.07 C 39.79 160.34 43.80 164.00 48.01 163.46 C 79.67 163.45 111.33 163.48 143.00 163.44 C 147.58 163.83 151.39 159.54 150.86 155.07 C 150.85 126.23 150.90 97.40 150.83 68.57 C 142.36 68.42 133.88 68.78 125.42 68.38 C 114.76 67.46 106.94 55.89 109.71 45.65 C 111.48 40.71 119.72 41.70 120.04 47.00 C 120.11 50.84 120.76 55.74 125.11 57.02 C 130.95 58.01 136.95 57.26 142.85 57.40 C 132.73 47.04 122.57 36.70 112.14 26.65 C 90.75 26.82 69.36 26.62 47.98 26.73 C 43.98 26.50 40.14 29.90 40.30 33.98 Z" />
<path fill="#ff3662" opacity="1.00" d=" M 58.20 99.28 C 70.11 98.58 82.12 99.07 94.06 99.03 C 100.30 98.89 101.13 109.01 94.97 109.92 C 83.32 110.36 71.61 110.11 59.94 110.05 C 54.03 110.25 52.61 100.97 58.20 99.28 Z" />
<path fill="#ff3662" opacity="1.00" d=" M 57.34 118.24 C 73.01 116.62 89.16 117.92 105.01 117.58 C 111.58 117.14 112.35 127.98 105.87 128.53 C 90.58 128.81 75.27 128.65 59.97 128.60 C 54.55 128.89 52.52 120.64 57.34 118.24 Z" />
<path fill="#ff3662" opacity="1.00" d=" M 57.43 136.57 C 78.24 135.74 99.19 136.35 120.04 136.25 C 126.35 136.05 127.28 146.30 121.02 147.21 C 100.36 147.55 79.65 147.35 58.98 147.31 C 53.28 147.28 52.00 138.24 57.43 136.57 Z" />
</g>
</svg>
