<?xml version="1.0" encoding="UTF-8" ?>
<!DOCTYPE svg PUBLIC "-//W3C//DTD SVG 1.1//EN" "http://www.w3.org/Graphics/SVG/1.1/DTD/svg11.dtd">
<svg width="192pt" height="192pt" viewBox="0 0 192 192" version="1.1" xmlns="http://www.w3.org/2000/svg">
<g id="#1ab1ffff">
<path fill="#1ab1ff" opacity="1.00" d=" M 42.35 16.49 C 63.44 14.78 84.81 16.22 106.00 15.74 C 110.33 16.21 115.75 14.25 119.11 17.85 C 132.77 31.55 146.47 45.20 160.08 58.95 C 161.81 60.46 161.90 62.83 161.89 64.96 C 161.82 95.33 161.93 125.70 161.86 156.06 C 162.15 165.74 153.67 174.51 143.99 174.51 C 111.64 174.60 79.28 174.54 46.94 174.52 C 37.57 174.74 29.14 166.44 29.26 157.07 C 29.23 116.02 29.26 74.97 29.29 33.93 C 29.16 26.06 34.82 18.65 42.35 16.49 M 40.28 33.98 C 40.21 74.67 40.27 115.37 40.26 156.07 C 39.78 160.32 43.77 163.96 47.93 163.46 C 79.62 163.45 111.30 163.46 142.98 163.43 C 147.55 163.80 151.35 159.54 150.86 155.07 C 150.84 126.22 150.92 97.38 150.81 68.53 C 142.35 68.44 133.88 68.76 125.43 68.37 C 114.76 67.46 106.94 55.88 109.72 45.64 C 111.50 40.72 119.71 41.70 120.03 47.00 C 120.09 50.85 120.75 55.74 125.11 57.02 C 130.99 58.02 137.04 57.22 142.98 57.42 C 132.72 47.16 122.63 36.72 112.19 26.63 C 90.78 26.80 69.37 26.60 47.97 26.70 C 43.96 26.46 40.10 29.88 40.28 33.98 Z" />
<path fill="#1ab1ff" opacity="1.00" d=" M 58.21 99.29 C 69.78 98.53 81.45 99.16 93.06 98.97 C 97.51 98.27 101.09 103.78 98.45 107.49 C 96.74 110.47 92.93 110.15 89.99 110.15 C 79.67 109.91 69.33 110.43 59.03 109.91 C 53.67 109.25 53.08 100.81 58.21 99.29 Z" />
<path fill="#1ab1ff" opacity="1.00" d=" M 57.34 118.25 C 73.01 116.63 89.16 117.92 105.01 117.57 C 111.59 117.15 112.34 127.96 105.87 128.53 C 90.58 128.80 75.27 128.64 59.98 128.59 C 54.55 128.87 52.53 120.64 57.34 118.25 Z" />
<path fill="#1ab1ff" opacity="1.00" d=" M 57.44 136.57 C 78.24 135.74 99.19 136.34 120.04 136.24 C 126.35 136.02 127.29 146.32 121.01 147.20 C 100.35 147.54 79.65 147.35 58.99 147.29 C 53.27 147.28 52.00 138.23 57.44 136.57 Z" />
</g>
</svg>
