<?xml version="1.0" encoding="UTF-8" ?>
<!DOCTYPE svg PUBLIC "-//W3C//DTD SVG 1.1//EN" "http://www.w3.org/Graphics/SVG/1.1/DTD/svg11.dtd">
<svg width="192pt" height="192pt" viewBox="0 0 192 192" version="1.1" xmlns="http://www.w3.org/2000/svg">
<g id="#ed33b3ff">
<path fill="#ed33b3" opacity="1.00" d=" M 42.36 16.52 C 63.44 14.77 84.81 16.24 106.00 15.75 C 110.33 16.21 115.74 14.27 119.11 17.86 C 132.62 31.37 146.10 44.90 159.60 58.41 C 161.18 59.82 162.03 61.82 161.87 63.94 C 161.88 94.65 161.95 125.36 161.90 156.06 C 162.16 165.76 153.70 174.53 143.99 174.53 C 111.64 174.63 79.29 174.55 46.95 174.52 C 37.58 174.74 29.14 166.46 29.27 157.08 C 29.25 116.03 29.29 74.98 29.32 33.93 C 29.18 26.07 34.84 18.67 42.36 16.52 M 40.28 33.98 C 40.20 74.67 40.27 115.37 40.27 156.07 C 39.79 160.32 43.76 163.96 47.93 163.46 C 79.61 163.44 111.30 163.45 142.98 163.40 C 147.54 163.77 151.34 159.54 150.85 155.07 C 150.83 126.23 150.92 97.39 150.81 68.54 C 142.34 68.45 133.87 68.77 125.41 68.37 C 114.76 67.45 106.95 55.88 109.72 45.64 C 111.49 40.72 119.74 41.70 120.02 47.00 C 120.11 50.85 120.75 55.76 125.12 57.02 C 131.00 58.02 137.03 57.22 142.97 57.42 C 132.74 47.14 122.62 36.75 112.22 26.63 C 90.81 26.77 69.38 26.59 47.97 26.67 C 43.95 26.43 40.04 29.85 40.28 33.98 Z" />
<path fill="#ed33b3" opacity="1.00" d=" M 58.21 99.31 C 69.78 98.52 81.45 99.16 93.06 98.97 C 97.51 98.27 101.10 103.80 98.45 107.49 C 96.74 110.48 92.93 110.15 89.99 110.16 C 79.67 109.91 69.33 110.46 59.03 109.90 C 53.68 109.26 53.09 100.81 58.21 99.31 Z" />
<path fill="#ed33b3" opacity="1.00" d=" M 57.34 118.26 C 73.01 116.63 89.16 117.92 105.01 117.57 C 111.60 117.13 112.35 127.99 105.87 128.54 C 90.58 128.82 75.27 128.64 59.98 128.59 C 54.56 128.87 52.54 120.66 57.34 118.26 Z" />
<path fill="#ed33b3" opacity="1.00" d=" M 57.43 136.58 C 78.24 135.74 99.18 136.32 120.04 136.22 C 126.36 136.01 127.31 146.35 121.01 147.21 C 100.35 147.56 79.64 147.35 58.97 147.29 C 53.27 147.26 52.01 138.24 57.43 136.58 Z" />
</g>
</svg>
