<?xml version="1.0" encoding="UTF-8" ?>
<!DOCTYPE svg PUBLIC "-//W3C//DTD SVG 1.1//EN" "http://www.w3.org/Graphics/SVG/1.1/DTD/svg11.dtd">
<svg width="192pt" height="192pt" viewBox="0 0 192 192" version="1.1" xmlns="http://www.w3.org/2000/svg">
<g id="#a61affff">
<path fill="#a61aff" opacity="1.00" d=" M 42.35 16.48 C 63.44 14.78 84.80 16.21 106.00 15.74 C 110.33 16.22 115.75 14.24 119.11 17.85 C 131.79 30.51 144.41 43.24 157.10 55.90 C 159.30 58.13 162.31 60.40 161.85 63.94 C 161.85 94.65 161.90 125.36 161.85 156.07 C 162.15 165.74 153.66 174.50 143.99 174.51 C 111.64 174.59 79.29 174.54 46.94 174.52 C 37.58 174.74 29.13 166.45 29.26 157.07 C 29.22 116.03 29.24 74.98 29.27 33.93 C 29.15 26.05 34.81 18.64 42.35 16.48 M 40.29 33.97 C 40.21 74.67 40.27 115.37 40.26 156.07 C 39.79 160.34 43.80 164.00 48.00 163.46 C 79.66 163.45 111.34 163.48 143.00 163.43 C 147.57 163.82 151.38 159.54 150.86 155.07 C 150.84 126.23 150.93 97.38 150.81 68.53 C 142.35 68.44 133.87 68.76 125.42 68.37 C 114.76 67.45 106.93 55.88 109.72 45.64 C 111.49 40.72 119.75 41.70 120.03 47.00 C 120.09 50.86 120.76 55.75 125.12 57.02 C 130.99 58.02 137.04 57.22 142.98 57.43 C 132.74 47.15 122.62 36.73 112.19 26.65 C 90.78 26.80 69.37 26.61 47.96 26.72 C 43.96 26.48 40.12 29.89 40.29 33.97 Z" />
<path fill="#a61aff" opacity="1.00" d=" M 58.20 99.28 C 69.78 98.54 81.45 99.16 93.07 98.97 C 97.51 98.27 101.10 103.81 98.44 107.49 C 96.74 110.48 92.94 110.15 89.99 110.15 C 79.67 109.92 69.33 110.43 59.03 109.92 C 53.67 109.25 53.07 100.82 58.20 99.28 Z" />
<path fill="#a61aff" opacity="1.00" d=" M 57.34 118.25 C 73.01 116.62 89.17 117.93 105.02 117.57 C 111.59 117.16 112.33 127.98 105.86 128.53 C 90.58 128.80 75.27 128.64 59.98 128.60 C 54.56 128.88 52.52 120.64 57.34 118.25 Z" />
<path fill="#a61aff" opacity="1.00" d=" M 57.43 136.57 C 76.55 135.68 95.82 136.47 115.00 136.16 C 118.18 136.27 122.33 135.44 124.39 138.59 C 127.02 141.91 124.31 147.44 120.05 147.32 C 99.69 147.39 79.32 147.42 58.97 147.30 C 53.27 147.26 52.00 138.24 57.43 136.57 Z" />
</g>
</svg>
