<?xml version="1.0" encoding="UTF-8" ?>
<!DOCTYPE svg PUBLIC "-//W3C//DTD SVG 1.1//EN" "http://www.w3.org/Graphics/SVG/1.1/DTD/svg11.dtd">
<svg width="192pt" height="192pt" viewBox="0 0 192 192" version="1.1" xmlns="http://www.w3.org/2000/svg">
<g id="#ff8b1fff">
<path fill="#ff8b1f" opacity="1.00" d=" M 42.35 16.47 C 63.44 14.78 84.80 16.20 105.99 15.74 C 110.32 16.22 115.75 14.24 119.12 17.85 C 131.79 30.51 144.41 43.24 157.09 55.90 C 159.30 58.13 162.32 60.40 161.85 63.95 C 161.85 94.65 161.89 125.36 161.84 156.06 C 162.16 165.73 153.66 174.50 143.99 174.51 C 111.64 174.59 79.29 174.55 46.94 174.52 C 37.58 174.75 29.14 166.45 29.26 157.07 C 29.22 116.03 29.24 74.98 29.26 33.94 C 29.14 26.06 34.80 18.63 42.35 16.47 M 40.29 33.98 C 40.22 74.67 40.28 115.37 40.27 156.06 C 39.79 160.33 43.80 164.00 48.00 163.46 C 79.66 163.45 111.33 163.48 142.99 163.43 C 147.12 163.77 150.98 160.21 150.81 156.05 C 150.90 126.89 150.88 97.72 150.82 68.56 C 142.36 68.42 133.88 68.77 125.43 68.38 C 114.76 67.46 106.93 55.88 109.71 45.64 C 111.50 40.72 119.72 41.70 120.04 46.99 C 120.09 50.85 120.76 55.74 125.11 57.02 C 130.96 58.01 136.98 57.24 142.90 57.41 C 132.73 47.08 122.59 36.71 112.16 26.65 C 90.76 26.81 69.37 26.62 47.98 26.73 C 43.98 26.49 40.13 29.89 40.29 33.98 Z" />
<path fill="#ff8b1f" opacity="1.00" d=" M 58.20 99.28 C 69.77 98.54 81.45 99.16 93.06 98.97 C 97.50 98.26 101.10 103.80 98.45 107.49 C 96.74 110.48 92.93 110.16 89.99 110.16 C 79.67 109.93 69.32 110.43 59.02 109.92 C 53.68 109.24 53.07 100.83 58.20 99.28 Z" />
<path fill="#ff8b1f" opacity="1.00" d=" M 57.34 118.25 C 73.01 116.62 89.16 117.93 105.01 117.57 C 111.58 117.15 112.35 127.97 105.87 128.53 C 90.59 128.80 75.27 128.65 59.98 128.60 C 54.55 128.88 52.52 120.64 57.34 118.25 Z" />
<path fill="#ff8b1f" opacity="1.00" d=" M 57.43 136.57 C 76.55 135.68 95.81 136.47 114.99 136.16 C 118.18 136.28 122.33 135.44 124.39 138.59 C 127.03 141.92 124.30 147.44 120.04 147.32 C 99.69 147.39 79.32 147.43 58.97 147.30 C 53.27 147.25 52.00 138.25 57.43 136.57 Z" />
</g>
</svg>
