<?xml version="1.0" encoding="UTF-8" ?>
<!DOCTYPE svg PUBLIC "-//W3C//DTD SVG 1.1//EN" "http://www.w3.org/Graphics/SVG/1.1/DTD/svg11.dtd">
<svg width="192pt" height="192pt" viewBox="0 0 192 192" version="1.1" xmlns="http://www.w3.org/2000/svg">
<g id="#18adffff">
<path fill="#18adff" opacity="1.00" d=" M 82.41 12.53 C 113.62 7.68 146.58 22.99 163.17 49.82 C 176.57 70.65 179.63 97.81 171.07 121.07 C 169.24 126.18 160.89 124.98 160.37 119.61 C 160.54 115.06 162.91 110.86 163.39 106.31 C 169.23 77.05 153.91 45.38 127.54 31.54 C 105.80 19.48 77.63 20.32 56.65 33.66 C 32.63 48.25 19.16 78.02 24.36 105.69 C 27.87 126.69 41.58 145.61 60.32 155.68 C 80.43 166.82 106.01 166.97 126.35 156.32 C 132.00 151.92 139.20 161.12 133.33 165.35 C 113.67 176.50 89.18 178.47 67.82 171.28 C 43.59 163.27 23.76 143.22 16.03 118.90 C 9.28 98.14 11.21 74.68 21.49 55.39 C 33.46 32.52 56.76 15.91 82.41 12.53 Z" />
<path fill="#18adff" opacity="1.00" d=" M 80.56 62.50 C 87.40 60.17 94.85 60.76 101.94 61.24 C 107.49 61.62 113.10 65.15 113.95 71.00 C 114.96 78.72 115.90 87.93 110.23 94.18 C 104.51 100.70 97.95 106.43 91.77 112.50 C 98.83 112.79 105.92 112.28 112.96 112.79 C 115.52 115.13 115.52 121.04 113.01 123.35 C 101.35 123.83 89.65 123.41 77.97 123.55 C 72.22 124.28 73.21 116.09 74.85 112.80 C 82.42 104.75 90.76 97.42 98.47 89.50 C 102.41 85.75 102.28 79.66 101.22 74.74 C 98.92 70.59 93.01 71.74 89.11 72.31 C 84.77 73.59 86.20 78.96 85.13 82.32 C 81.37 82.25 76.83 83.71 73.56 81.56 C 71.92 74.93 73.14 65.20 80.56 62.50 Z" />
</g>
</svg>
