<?xml version="1.0" encoding="UTF-8" ?>
<!DOCTYPE svg PUBLIC "-//W3C//DTD SVG 1.1//EN" "http://www.w3.org/Graphics/SVG/1.1/DTD/svg11.dtd">
<svg width="192pt" height="192pt" viewBox="0 0 192 192" version="1.1" xmlns="http://www.w3.org/2000/svg">
<g id="#ff3661ff">
<path fill="#ff3661" opacity="1.00" d=" M 88.92 16.89 C 92.59 12.85 99.41 12.82 103.10 16.84 C 112.64 26.33 122.22 35.80 131.61 45.42 C 135.09 48.85 133.60 55.43 128.98 56.99 C 124.98 58.22 120.67 57.55 116.55 57.53 C 115.47 65.31 117.75 73.54 115.06 81.05 C 111.69 87.69 103.09 85.90 97.00 86.12 C 90.41 85.80 80.90 88.04 77.43 80.60 C 75.15 73.23 76.91 65.27 76.31 57.67 C 72.11 57.49 67.84 58.06 63.70 57.25 C 58.74 56.00 56.82 49.07 60.47 45.46 C 69.79 35.78 79.42 26.39 88.92 16.89 M 75.50 46.21 C 80.49 45.92 86.36 48.16 87.29 53.66 C 87.99 60.66 87.37 67.74 87.61 74.78 C 93.40 74.82 99.20 74.82 104.99 74.79 C 105.39 67.42 104.33 59.93 105.64 52.64 C 106.84 47.76 112.19 46.31 116.60 46.24 C 109.74 39.42 102.98 32.48 96.02 25.75 C 89.13 32.52 82.34 39.39 75.50 46.21 Z" />
<path fill="#ff3661" opacity="1.00" d=" M 47.27 59.24 C 51.86 56.78 58.03 60.79 57.63 66.00 C 57.66 85.95 57.82 105.91 57.58 125.86 C 57.70 132.04 49.56 135.06 45.37 130.71 C 35.82 121.58 26.55 112.12 17.27 102.71 C 13.02 98.70 13.51 91.63 17.89 87.92 C 27.76 78.46 36.82 68.01 47.27 59.24 M 26.10 95.69 C 32.83 102.46 39.53 109.26 46.37 115.93 C 46.33 102.44 46.62 88.95 46.33 75.46 C 39.56 82.17 32.83 88.93 26.10 95.69 Z" />
<path fill="#ff3661" opacity="1.00" d=" M 140.26 59.28 C 143.68 58.18 146.93 60.43 149.16 62.83 C 157.76 71.57 166.57 80.11 175.09 88.93 C 179.02 92.91 178.45 99.69 174.33 103.32 C 165.37 112.03 156.67 121.03 147.77 129.79 C 143.59 134.39 134.96 131.46 135.06 125.06 C 134.89 106.03 135.04 86.98 134.99 67.94 C 134.76 64.35 136.51 60.26 140.26 59.28 M 146.25 75.91 C 146.29 89.01 146.28 102.12 146.25 115.22 C 152.83 108.72 159.34 102.16 165.97 95.71 C 159.46 89.05 152.81 82.53 146.25 75.91 Z" />
<path fill="#ff3661" opacity="1.00" d=" M 76.95 110.98 C 79.71 103.20 89.42 104.50 96.00 104.46 C 102.64 104.70 112.41 102.70 115.43 110.56 C 117.30 118.24 115.88 126.32 116.32 134.17 C 120.49 134.42 124.92 133.51 128.89 135.11 C 133.49 137.26 133.97 144.01 130.29 147.26 C 121.37 156.35 112.37 165.38 103.31 174.32 C 99.62 178.11 93.09 178.71 89.29 174.76 C 79.88 165.48 70.47 156.18 61.26 146.70 C 57.60 143.23 58.99 136.34 63.85 134.78 C 67.91 133.78 72.17 134.40 76.32 134.16 C 76.71 126.45 75.60 118.60 76.95 110.98 M 87.35 137.98 C 86.69 143.45 80.92 145.97 75.97 145.57 C 82.65 152.27 89.32 158.97 96.03 165.63 C 102.75 159.04 109.30 152.29 115.97 145.66 C 111.20 145.72 105.99 143.04 105.32 137.89 C 104.59 130.53 105.34 123.10 104.86 115.71 C 99.13 115.72 93.40 115.73 87.67 115.71 C 87.34 123.13 87.96 130.58 87.35 137.98 Z" />
</g>
</svg>
