<?xml version="1.0" encoding="UTF-8" ?>
<!DOCTYPE svg PUBLIC "-//W3C//DTD SVG 1.1//EN" "http://www.w3.org/Graphics/SVG/1.1/DTD/svg11.dtd">
<svg width="192pt" height="192pt" viewBox="0 0 192 192" version="1.1" xmlns="http://www.w3.org/2000/svg">
<g id="#9071aeff">
<path fill="#9071ae" opacity="1.00" d=" M 94.30 13.39 C 96.16 12.57 98.27 13.17 99.94 14.14 C 116.13 22.95 132.35 31.73 148.55 40.53 C 151.04 41.65 152.51 44.27 152.26 46.99 C 152.28 79.34 152.30 111.69 152.26 144.03 C 152.41 146.47 150.98 148.77 148.80 149.83 C 132.37 158.76 115.93 167.68 99.49 176.60 C 97.37 177.97 94.67 177.67 92.64 176.32 C 76.45 167.50 60.23 158.73 44.05 149.90 C 41.80 148.84 40.21 146.54 40.47 144.00 C 40.50 111.33 40.46 78.65 40.51 45.99 C 40.35 43.44 42.16 41.37 44.37 40.39 C 61.04 31.43 77.57 22.21 94.30 13.39 M 95.41 25.51 C 80.85 33.31 66.41 41.37 51.79 49.08 C 51.47 79.74 51.77 110.43 51.66 141.11 C 66.39 149.39 81.38 157.22 96.17 165.41 C 111.19 157.43 126.18 149.35 141.01 141.03 C 140.80 110.41 141.14 79.79 140.84 49.17 C 126.79 41.54 112.72 33.94 98.70 26.25 C 97.69 25.87 96.51 24.72 95.41 25.51 Z" />
<path fill="#9071ae" opacity="1.00" d=" M 27.31 50.33 C 31.27 49.21 34.97 53.10 34.36 57.00 C 34.25 84.33 34.54 111.69 34.25 139.02 C 33.69 145.22 23.68 145.12 23.15 138.98 C 22.86 111.65 23.13 84.29 23.05 56.94 C 22.70 54.07 24.38 51.00 27.31 50.33 Z" />
<path fill="#9071ae" opacity="1.00" d=" M 93.36 50.49 C 101.68 48.67 108.24 55.54 115.37 58.59 C 121.05 61.51 128.26 64.67 128.94 71.95 C 129.32 86.96 128.96 101.99 129.12 117.01 C 129.44 121.99 126.87 127.08 122.42 129.46 C 115.98 133.01 109.50 136.50 103.03 139.99 C 99.06 142.31 93.94 142.34 89.95 140.04 C 83.48 136.56 77.02 133.05 70.59 129.51 C 66.44 127.29 63.73 122.70 63.81 118.00 C 63.79 103.33 63.79 88.66 63.82 74.00 C 63.63 68.75 67.02 63.91 71.70 61.74 C 78.97 58.09 85.80 53.48 93.36 50.49 M 91.72 63.76 C 86.37 67.10 80.10 69.31 75.28 73.24 C 75.02 88.44 75.25 103.66 75.17 118.86 C 81.94 123.00 89.01 126.66 96.05 130.31 C 103.51 127.26 110.83 123.02 117.67 118.71 C 117.97 104.46 117.70 90.20 117.80 75.95 C 117.62 74.74 118.14 72.89 116.70 72.28 C 110.49 68.76 104.17 65.43 97.90 62.02 C 95.73 60.56 93.67 63.01 91.72 63.76 Z" />
<path fill="#9071ae" opacity="1.00" d=" M 162.37 50.45 C 166.37 48.85 170.57 52.88 169.89 56.95 C 169.77 83.99 170.12 111.03 169.92 138.05 C 170.28 144.82 159.26 145.79 158.65 138.98 C 158.37 111.67 158.63 84.33 158.54 57.01 C 158.26 54.28 159.60 51.29 162.37 50.45 Z" />
</g>
</svg>
