<?xml version="1.0" encoding="UTF-8" ?>
<!DOCTYPE svg PUBLIC "-//W3C//DTD SVG 1.1//EN" "http://www.w3.org/Graphics/SVG/1.1/DTD/svg11.dtd">
<svg width="192pt" height="192pt" viewBox="0 0 192 192" version="1.1" xmlns="http://www.w3.org/2000/svg">
<g id="#f6b32eff">
<path fill="#f6b32e" opacity="1.00" d=" M 54.19 24.79 C 49.79 20.32 56.55 12.64 61.51 16.58 C 73.19 27.66 84.33 39.35 95.82 50.64 C 107.20 39.41 118.30 27.89 129.81 16.81 C 134.53 12.43 141.88 19.86 137.62 24.57 C 128.58 34.10 119.07 43.20 109.84 52.55 C 125.55 52.73 141.27 52.43 156.97 52.69 C 167.40 53.07 176.38 62.57 176.20 73.00 C 176.24 100.67 176.25 128.34 176.20 156.00 C 176.31 166.71 166.73 176.24 156.03 176.15 C 116.02 176.22 76.00 176.19 35.98 176.17 C 25.18 176.38 15.41 166.90 15.47 156.07 C 15.43 128.36 15.45 100.64 15.48 72.93 C 15.37 62.42 24.50 52.93 35.02 52.69 C 46.01 52.60 57.02 52.45 68.00 52.75 C 73.81 53.16 74.36 62.42 68.73 63.62 C 57.51 64.33 46.21 63.45 34.98 64.02 C 30.03 64.37 26.32 69.14 26.67 73.99 C 26.64 100.99 26.65 128.00 26.68 155.01 C 26.29 160.56 31.41 165.43 36.93 164.86 C 76.31 164.86 115.69 164.89 155.07 164.84 C 160.44 165.25 165.27 160.44 164.95 155.09 C 164.98 128.03 164.99 100.97 164.94 73.91 C 165.31 68.97 161.19 63.90 156.06 64.12 C 135.69 64.06 115.31 63.55 94.94 64.15 C 92.67 63.83 91.16 61.89 89.58 60.42 C 77.86 48.47 65.80 36.84 54.19 24.79 Z" />
<path fill="#f6b32e" opacity="1.00" d=" M 86.27 103.32 C 95.95 100.77 106.14 110.01 104.71 119.86 C 103.87 130.97 89.41 137.51 80.69 130.34 C 70.61 123.37 74.20 105.71 86.27 103.32 Z" />
<path fill="#f6b32e" opacity="1.00" d=" M 47.57 107.34 C 47.98 103.87 52.83 102.22 55.13 104.91 C 57.96 108.33 59.92 112.38 62.61 115.91 C 64.03 111.46 63.64 101.80 70.88 103.95 C 76.57 108.54 70.80 116.79 70.72 122.83 C 70.02 126.83 69.33 134.21 63.43 132.54 C 59.13 129.71 57.56 124.20 54.23 120.38 C 53.23 123.98 53.23 127.99 51.26 131.25 C 48.78 134.49 42.96 132.13 43.52 128.04 C 44.50 121.08 46.14 114.21 47.57 107.34 Z" />
<path fill="#f6b32e" opacity="1.00" d=" M 106.57 107.94 C 106.39 103.79 112.50 101.92 114.76 105.34 C 116.35 108.20 116.28 111.65 116.98 114.78 C 120.03 111.18 121.47 105.59 126.01 103.65 C 132.47 103.06 132.36 111.39 134.43 115.58 C 136.60 111.99 137.89 107.83 140.57 104.56 C 143.79 101.62 149.83 105.59 147.77 109.71 C 144.69 116.55 141.25 123.24 137.91 129.97 C 136.72 133.46 131.18 133.78 129.66 130.41 C 128.02 126.90 127.11 123.10 125.65 119.51 C 122.44 123.16 120.48 127.69 117.33 131.37 C 114.88 134.24 109.78 132.41 109.46 128.71 C 108.33 121.82 107.09 114.90 106.57 107.94 Z" />
</g>
</svg>
