<?xml version="1.0" encoding="UTF-8" ?>
<!DOCTYPE svg PUBLIC "-//W3C//DTD SVG 1.1//EN" "http://www.w3.org/Graphics/SVG/1.1/DTD/svg11.dtd">
<svg width="192pt" height="192pt" viewBox="0 0 192 192" version="1.1" xmlns="http://www.w3.org/2000/svg">
<g id="#18adffff">
<path fill="#18adff" opacity="1.00" d=" M 65.98 20.85 C 67.30 15.89 71.62 11.58 77.00 11.77 C 88.67 11.72 100.34 11.70 112.00 11.78 C 117.40 11.68 121.54 16.05 122.88 20.98 C 129.61 21.02 136.35 20.82 143.08 21.05 C 149.58 21.46 154.95 27.43 154.81 33.93 C 154.89 70.31 154.91 106.70 154.84 143.08 C 154.97 149.60 149.55 155.54 143.06 156.05 C 137.42 156.38 131.75 156.12 126.09 156.14 C 128.46 160.46 131.61 164.40 133.37 169.01 C 134.73 174.42 126.70 178.04 123.60 173.40 C 119.22 166.38 115.15 159.14 111.01 151.98 C 109.10 149.46 110.75 145.24 113.98 145.05 C 123.84 144.69 133.73 145.32 143.58 144.72 C 143.72 107.25 143.79 69.77 143.56 32.30 C 133.73 31.90 123.86 32.54 114.04 31.97 C 110.10 31.06 112.12 25.90 111.64 22.98 C 100.15 22.72 88.66 22.92 77.17 22.86 C 76.72 25.90 78.79 32.05 74.05 32.13 C 64.46 32.32 54.87 32.05 45.28 32.25 C 45.16 69.75 45.12 107.26 45.31 144.75 C 55.22 145.26 65.15 144.74 75.07 145.02 C 78.19 145.04 80.25 149.05 78.49 151.62 C 74.21 158.93 69.95 166.27 65.40 173.41 C 62.31 178.05 54.31 174.39 55.62 169.00 C 57.38 164.40 60.55 160.48 62.88 156.15 C 57.23 156.12 51.58 156.35 45.93 156.08 C 39.39 155.68 33.90 149.61 34.07 143.07 C 34.04 106.69 34.06 70.31 34.10 33.93 C 33.89 27.45 39.38 21.31 45.91 21.09 C 52.59 20.76 59.29 20.93 65.98 20.85 Z" />
<path fill="#18adff" opacity="1.00" d=" M 60.29 47.36 C 81.02 45.46 102.12 47.09 123.00 46.51 C 129.96 45.61 137.17 50.85 137.49 58.05 C 137.70 65.35 137.59 72.66 137.55 79.97 C 137.67 86.65 131.65 92.54 124.99 92.34 C 105.00 92.38 85.00 92.36 65.01 92.34 C 58.31 92.64 52.13 86.81 52.22 80.08 C 52.16 73.03 52.18 65.97 52.22 58.92 C 52.13 53.88 55.55 49.05 60.29 47.36 M 62.63 58.96 C 62.55 65.98 62.45 73.01 62.68 80.03 C 62.82 82.60 66.28 81.63 67.99 81.89 C 87.66 81.34 107.57 82.87 127.09 81.12 C 126.99 73.18 127.65 65.18 126.72 57.28 C 106.81 56.87 86.89 57.25 66.98 57.09 C 65.50 57.30 62.41 56.53 62.63 58.96 Z" />
<path fill="#18adff" opacity="1.00" d=" M 72.38 122.56 C 87.11 122.28 101.89 122.26 116.62 122.56 C 122.90 123.37 122.46 133.81 116.05 133.97 C 101.70 134.20 87.30 134.25 72.94 133.94 C 66.57 133.79 66.09 123.33 72.38 122.56 Z" />
</g>
</svg>
