<?xml version="1.0" encoding="UTF-8" ?>
<!DOCTYPE svg PUBLIC "-//W3C//DTD SVG 1.1//EN" "http://www.w3.org/Graphics/SVG/1.1/DTD/svg11.dtd">
<svg width="192pt" height="192pt" viewBox="0 0 192 192" version="1.1" xmlns="http://www.w3.org/2000/svg">
<g id="#1ab0ffff">
<path fill="#1ab0ff" opacity="1.00" d=" M 34.43 44.64 C 45.62 44.05 56.86 44.45 68.06 44.41 C 80.48 44.56 91.37 55.56 91.56 67.94 C 91.62 90.91 91.72 113.90 91.53 136.86 C 91.43 143.57 80.37 143.80 80.13 137.04 C 79.72 114.35 80.27 91.63 79.99 68.93 C 80.17 62.07 74.00 55.71 67.07 56.11 C 57.02 56.14 46.96 56.04 36.91 56.16 C 30.35 56.24 24.89 62.47 25.01 68.92 C 24.85 90.62 25.04 112.33 25.04 134.03 C 25.05 136.63 24.90 139.85 22.30 141.26 C 18.60 143.89 12.96 140.48 13.47 135.99 C 13.46 113.31 13.42 90.62 13.50 67.94 C 13.66 56.46 23.03 46.04 34.43 44.64 Z" />
<path fill="#1ab0ff" opacity="1.00" d=" M 104.30 44.38 C 107.49 44.01 110.63 46.75 110.55 50.00 C 110.75 72.66 110.49 95.35 110.69 118.01 C 110.72 124.53 116.44 130.40 122.99 130.40 C 132.99 130.50 142.99 130.46 152.99 130.41 C 159.66 130.54 165.55 124.61 165.59 117.99 C 165.79 95.32 165.51 72.63 165.73 49.96 C 165.54 45.60 171.11 42.72 174.60 45.28 C 176.92 46.66 177.38 49.51 177.29 51.99 C 177.24 73.98 177.37 95.98 177.24 117.97 C 177.36 130.46 166.57 141.81 154.05 142.11 C 143.35 142.23 132.64 142.28 121.95 142.08 C 109.56 141.63 99.00 130.43 99.06 118.07 C 98.83 95.69 99.12 73.30 99.06 50.92 C 98.77 47.78 101.06 44.61 104.30 44.38 Z" />
</g>
</svg>
