<?xml version="1.0" encoding="UTF-8" ?>
<!DOCTYPE svg PUBLIC "-//W3C//DTD SVG 1.1//EN" "http://www.w3.org/Graphics/SVG/1.1/DTD/svg11.dtd">
<svg width="192pt" height="192pt" viewBox="0 0 192 192" version="1.1" xmlns="http://www.w3.org/2000/svg">
<g id="#2a8ec5ff">
<path fill="#2a8ec5" opacity="1.00" d=" M 78.38 10.46 C 83.52 8.19 88.37 15.48 84.54 19.45 C 79.92 23.08 74.38 25.37 69.41 28.48 C 66.40 29.99 63.19 32.98 59.62 31.42 C 55.63 29.98 54.86 23.81 58.60 21.63 C 65.12 17.79 71.64 13.89 78.38 10.46 Z" />
<path fill="#2a8ec5" opacity="1.00" d=" M 120.36 11.42 C 125.73 10.51 129.07 18.40 124.45 21.46 C 115.11 27.85 105.57 33.97 96.09 40.15 C 92.48 42.82 86.97 39.50 87.33 35.14 C 87.63 30.61 92.71 29.16 95.77 26.77 C 104.07 21.85 111.58 15.33 120.36 11.42 Z" />
<path fill="#2a8ec5" opacity="1.00" d=" M 145.37 23.48 C 150.73 20.60 156.34 28.75 151.64 32.67 C 146.22 36.64 140.52 40.30 134.76 43.76 C 129.32 46.61 123.91 38.48 128.55 34.56 C 133.97 30.63 139.65 26.97 145.37 23.48 Z" />
<path fill="#2a8ec5" opacity="1.00" d=" M 44.36 28.50 C 50.39 25.78 54.86 35.11 49.29 38.26 C 29.29 52.99 18.16 78.77 21.44 103.40 C 23.27 122.06 33.19 139.64 47.94 151.16 C 70.25 169.11 103.64 172.05 128.37 157.38 C 130.97 155.94 133.87 153.34 137.02 154.86 C 140.81 156.26 141.65 161.95 138.19 164.20 C 112.66 181.74 77.19 181.90 50.72 166.28 C 26.41 152.35 9.82 125.20 10.22 96.98 C 8.93 70.36 22.33 43.47 44.36 28.50 Z" />
<path fill="#2a8ec5" opacity="1.00" d=" M 106.40 44.50 C 111.98 41.88 117.21 50.48 112.05 54.08 C 103.33 60.12 94.33 65.77 85.46 71.60 C 81.94 74.20 76.45 71.41 76.53 67.01 C 76.35 63.53 79.65 61.75 82.15 60.13 C 90.32 55.05 98.10 49.34 106.40 44.50 Z" />
<path fill="#2a8ec5" opacity="1.00" d=" M 67.26 46.31 C 72.80 43.88 77.69 52.22 72.91 55.89 C 62.93 63.29 52.82 70.53 42.71 77.77 C 39.48 80.49 33.94 78.20 33.61 73.99 C 32.98 70.20 36.67 68.13 39.24 66.24 C 48.66 59.71 57.63 52.50 67.26 46.31 Z" />
<path fill="#2a8ec5" opacity="1.00" d=" M 141.41 49.48 C 146.95 46.25 152.81 54.83 147.72 58.75 C 134.51 67.94 121.17 76.98 107.74 85.84 C 102.19 89.08 96.37 80.36 101.53 76.53 C 114.71 67.37 128.02 58.34 141.41 49.48 Z" />
<path fill="#2a8ec5" opacity="1.00" d=" M 165.35 61.28 C 170.68 60.10 174.67 67.70 170.13 71.12 C 161.11 78.16 152.03 85.20 142.74 91.88 C 137.12 95.24 131.22 86.36 136.53 82.53 C 146.12 75.47 155.15 67.34 165.35 61.28 Z" />
<path fill="#2a8ec5" opacity="1.00" d=" M 77.31 80.33 C 82.57 79.64 85.79 87.26 81.37 90.36 C 74.97 94.79 68.78 99.64 61.99 103.45 C 56.14 105.25 52.11 96.48 57.31 93.30 C 63.99 89.06 70.01 83.33 77.31 80.33 Z" />
<path fill="#2a8ec5" opacity="1.00" d=" M 172.40 88.43 C 178.01 86.61 182.35 95.00 177.41 98.39 C 169.47 104.16 161.71 110.25 153.52 115.63 C 147.83 118.47 142.61 109.47 147.87 105.93 C 156.03 100.09 163.81 93.57 172.40 88.43 Z" />
<path fill="#2a8ec5" opacity="1.00" d=" M 122.29 90.32 C 125.96 88.88 130.31 92.54 129.64 96.41 C 129.44 99.72 126.08 101.15 123.72 102.80 C 117.99 106.32 112.62 110.42 106.72 113.64 C 101.25 116.16 96.21 107.69 101.06 104.10 C 108.03 99.37 114.98 94.50 122.29 90.32 Z" />
<path fill="#2a8ec5" opacity="1.00" d=" M 132.38 115.46 C 137.94 112.36 143.65 120.81 138.65 124.78 C 127.35 132.78 115.96 140.72 104.43 148.40 C 98.91 151.84 92.88 143.01 98.12 139.14 C 109.43 131.11 120.85 123.18 132.38 115.46 Z" />
<path fill="#2a8ec5" opacity="1.00" d=" M 168.35 125.42 C 173.75 123.21 178.59 131.29 173.98 134.96 C 167.73 139.79 161.20 144.28 154.76 148.85 C 151.22 151.81 145.17 148.59 145.75 143.98 C 145.65 140.61 149.06 138.99 151.35 137.22 C 157.10 133.42 162.35 128.82 168.35 125.42 Z" />
</g>
</svg>
