<?xml version="1.0" encoding="UTF-8" ?>
<!DOCTYPE svg PUBLIC "-//W3C//DTD SVG 1.1//EN" "http://www.w3.org/Graphics/SVG/1.1/DTD/svg11.dtd">
<svg width="192pt" height="192pt" viewBox="0 0 192 192" version="1.1" xmlns="http://www.w3.org/2000/svg">
<g id="#46e371ff">
<path fill="#46e371" opacity="1.00" d=" M 22.08 43.91 C 21.90 31.69 32.77 20.67 45.01 20.76 C 54.34 20.78 63.69 20.59 73.01 20.84 C 78.83 21.15 79.40 30.56 73.71 31.61 C 64.15 32.19 54.53 31.53 44.95 31.90 C 38.77 32.15 33.15 37.64 33.29 43.93 C 33.24 77.97 33.28 112.02 33.28 146.06 C 33.04 152.80 39.27 158.77 45.98 158.33 C 79.66 158.33 113.34 158.33 147.02 158.32 C 154.13 158.75 160.28 152.09 159.69 145.08 C 159.54 110.79 159.96 76.47 159.48 42.19 C 158.09 32.33 146.69 30.60 138.58 31.98 C 138.57 45.00 138.65 58.02 138.56 71.04 C 139.04 75.41 133.50 78.88 129.93 76.12 C 125.01 72.26 120.51 67.88 115.74 63.83 C 110.77 67.80 106.31 72.40 101.25 76.25 C 97.60 78.45 92.42 75.42 92.89 71.07 C 92.96 55.73 92.59 40.36 93.08 25.04 C 93.91 19.38 103.03 19.44 103.91 25.06 C 104.51 36.29 104.01 47.59 104.15 58.85 C 108.28 56.06 111.39 50.10 116.97 50.74 C 121.02 52.52 123.80 56.26 127.27 58.90 C 127.35 47.93 127.19 36.96 127.33 25.99 C 127.14 22.97 129.96 20.42 132.94 20.75 C 138.63 20.76 144.34 20.55 150.02 20.90 C 161.44 21.91 170.97 32.47 170.82 43.93 C 170.88 77.97 170.87 112.02 170.83 146.07 C 171.17 158.37 160.33 169.49 148.04 169.52 C 113.68 169.59 79.31 169.57 44.95 169.52 C 32.61 169.53 21.78 158.40 22.06 146.07 C 22.04 112.02 22.02 77.96 22.08 43.91 Z" />
<path fill="#46e371" opacity="1.00" d=" M 44.37 105.40 C 45.60 105.47 46.82 105.53 48.05 105.61 C 50.13 109.48 52.07 113.43 54.13 117.31 C 54.17 113.33 54.09 109.34 54.37 105.37 C 55.72 105.48 57.06 105.60 58.41 105.74 C 58.41 112.28 58.49 118.82 58.38 125.36 C 57.47 125.38 55.65 125.44 54.74 125.47 C 52.44 121.57 50.47 117.49 48.43 113.46 C 48.46 117.44 48.45 121.43 48.37 125.42 C 46.98 125.38 45.60 125.33 44.21 125.28 C 44.23 118.65 43.97 112.02 44.37 105.40 Z" />
<path fill="#46e371" opacity="1.00" d=" M 61.68 105.56 C 63.00 105.52 64.32 105.50 65.64 105.48 C 66.06 110.92 65.36 116.42 66.23 121.83 C 68.17 121.92 70.10 121.93 72.04 121.88 C 72.75 116.45 72.19 110.97 72.52 105.52 C 73.85 105.51 75.19 105.52 76.53 105.53 C 76.12 111.72 78.04 118.58 75.33 124.33 C 71.60 126.18 65.56 126.78 62.44 123.56 C 60.64 117.80 61.88 111.52 61.68 105.56 Z" />
<path fill="#46e371" opacity="1.00" d=" M 79.85 105.56 C 81.24 105.55 82.64 105.54 84.04 105.54 C 85.99 109.49 87.89 113.47 89.87 117.40 C 91.93 113.50 93.75 109.48 95.76 105.56 C 97.06 105.51 98.35 105.47 99.65 105.43 C 100.05 112.07 99.81 118.73 99.80 125.38 C 98.43 125.37 97.06 125.34 95.70 125.32 C 95.60 121.47 95.56 117.62 95.55 113.77 C 93.99 117.22 92.33 120.63 90.53 123.96 C 86.65 122.19 86.25 117.08 84.13 113.77 C 84.13 117.63 84.10 121.49 84.09 125.35 C 82.67 125.34 81.25 125.32 79.84 125.31 C 79.76 118.73 79.77 112.14 79.85 105.56 Z" />
<path fill="#46e371" opacity="1.00" d=" M 120.07 105.57 C 124.07 105.42 128.07 105.45 132.06 105.47 C 132.15 106.69 132.23 107.92 132.31 109.15 C 129.62 109.18 126.93 109.19 124.25 109.18 C 124.27 110.63 124.28 112.09 124.30 113.55 C 126.58 113.58 128.87 113.61 131.15 113.66 C 131.17 114.54 131.21 116.32 131.23 117.21 C 128.90 117.24 126.57 117.26 124.25 117.27 C 124.27 118.74 124.28 120.21 124.29 121.69 C 126.97 121.71 129.65 121.74 132.33 121.80 C 132.35 122.69 132.40 124.46 132.43 125.35 C 128.29 125.47 124.14 125.52 120.01 125.27 C 119.94 118.70 119.88 112.13 120.07 105.57 Z" />
<path fill="#46e371" opacity="1.00" d=" M 134.91 105.46 C 139.11 105.91 144.36 104.20 147.80 107.27 C 149.51 111.07 149.67 116.55 146.12 119.42 C 146.99 121.35 147.86 123.29 148.72 125.23 C 147.71 125.30 145.70 125.44 144.69 125.51 C 143.65 123.51 142.67 121.48 141.72 119.45 C 141.10 119.41 139.88 119.34 139.27 119.30 C 139.11 121.33 138.95 123.36 138.79 125.40 C 137.43 125.37 136.08 125.34 134.72 125.31 C 134.75 118.69 134.43 112.06 134.91 105.46 M 139.14 109.07 C 139.12 111.32 139.10 113.57 139.09 115.82 C 140.71 115.77 142.33 115.72 143.95 115.67 C 144.74 113.61 144.65 111.41 144.03 109.32 C 142.40 109.24 140.77 109.15 139.14 109.07 Z" />
<path fill="#46e371" opacity="1.00" d=" M 103.21 105.59 C 107.05 105.54 111.03 104.98 114.77 106.09 C 118.03 107.94 117.07 112.25 116.27 115.22 C 117.34 118.27 118.58 123.18 114.85 124.86 C 111.08 125.94 107.07 125.33 103.21 125.29 C 103.14 118.72 103.14 112.15 103.21 105.59 M 107.25 109.05 C 107.27 110.62 107.29 112.20 107.31 113.77 C 109.08 113.71 110.86 113.64 112.63 113.56 C 112.68 112.14 112.71 110.71 112.73 109.29 C 110.90 109.20 109.08 109.12 107.25 109.05 M 107.26 117.07 C 107.27 118.67 107.28 120.27 107.28 121.87 C 109.15 121.84 111.02 121.80 112.88 121.74 C 112.96 120.24 113.01 118.74 113.05 117.24 C 111.12 117.17 109.19 117.12 107.26 117.07 Z" />
<path fill="#46e371" opacity="1.00" d=" M 44.24 127.52 C 48.10 127.61 52.17 126.85 55.90 128.11 C 59.02 130.02 58.09 134.25 57.25 137.18 C 58.21 140.00 59.25 143.55 57.09 146.10 C 53.23 148.35 48.47 147.13 44.22 147.22 C 44.15 140.66 44.13 134.09 44.24 127.52 M 48.25 131.07 C 48.27 132.60 48.28 134.14 48.30 135.69 C 50.07 135.64 51.84 135.59 53.60 135.54 C 53.67 134.11 53.72 132.68 53.75 131.26 C 51.92 131.18 50.08 131.12 48.25 131.07 M 48.32 138.70 C 48.30 140.43 48.28 142.15 48.26 143.88 C 50.13 143.83 52.00 143.78 53.87 143.72 C 53.95 142.20 54.01 140.69 54.05 139.18 C 52.14 138.99 50.23 138.84 48.32 138.70 Z" />
<path fill="#46e371" opacity="1.00" d=" M 64.34 127.43 C 67.96 127.19 74.14 125.92 75.31 130.66 C 75.85 135.18 75.91 139.84 75.28 144.35 C 73.83 148.79 67.95 147.56 64.37 147.36 C 59.53 146.53 60.70 140.56 60.52 137.00 C 60.66 133.68 59.80 128.07 64.34 127.43 M 65.23 130.95 C 64.62 135.21 64.55 139.54 65.24 143.78 C 67.17 143.88 69.10 143.88 71.03 143.82 C 71.40 138.77 73.70 128.32 65.23 130.95 Z" />
<path fill="#46e371" opacity="1.00" d=" M 82.26 127.34 C 85.85 127.14 92.13 126.14 92.83 131.08 C 93.28 135.81 93.69 140.80 92.34 145.41 C 89.95 148.66 85.11 147.53 81.63 147.32 C 76.98 146.35 78.14 140.49 77.88 137.00 C 77.98 133.53 77.38 127.61 82.26 127.34 M 82.44 131.32 C 82.22 135.40 82.18 139.50 82.49 143.58 C 84.51 143.96 86.58 144.00 88.61 143.63 C 88.99 139.53 88.93 135.41 88.64 131.31 C 86.60 130.71 84.48 130.71 82.44 131.32 Z" />
<path fill="#46e371" opacity="1.00" d=" M 95.93 127.57 C 97.34 127.53 98.74 127.52 100.15 127.51 C 100.18 130.22 100.22 132.94 100.27 135.65 C 101.25 135.60 102.23 135.56 103.21 135.52 C 104.19 132.80 105.20 130.09 106.27 127.41 C 107.63 127.43 109.00 127.45 110.37 127.48 C 109.45 130.75 107.97 133.84 107.12 137.13 C 107.90 140.67 109.76 143.85 110.81 147.31 C 105.48 149.01 104.94 142.80 103.32 139.33 C 102.30 139.27 101.29 139.20 100.28 139.13 C 100.24 141.86 100.21 144.60 100.17 147.33 C 98.76 147.30 97.36 147.27 95.96 147.23 C 95.86 140.67 95.95 134.12 95.93 127.57 Z" />
</g>
</svg>
