<?xml version="1.0" encoding="UTF-8" ?>
<!DOCTYPE svg PUBLIC "-//W3C//DTD SVG 1.1//EN" "http://www.w3.org/Graphics/SVG/1.1/DTD/svg11.dtd">
<svg width="192pt" height="192pt" viewBox="0 0 192 192" version="1.1" xmlns="http://www.w3.org/2000/svg">
<g id="#9e15ffff">
<path fill="#9e15ff" opacity="1.00" d=" M 57.36 22.52 C 80.76 20.75 104.47 22.18 127.98 21.77 C 141.90 21.49 151.11 39.37 142.41 50.41 C 114.47 81.94 101.97 123.84 95.54 164.69 C 94.38 168.57 88.89 169.85 86.10 166.92 C 82.82 163.47 85.20 158.48 85.50 154.39 C 92.71 114.53 106.01 74.13 133.23 43.29 C 136.19 39.01 132.12 32.82 127.08 33.38 C 105.43 33.38 83.77 33.29 62.12 33.42 C 56.12 33.25 56.01 43.76 61.93 43.88 C 77.27 44.31 92.64 43.73 107.98 44.13 C 114.13 44.86 114.06 54.94 107.86 55.48 C 92.90 55.75 77.92 55.52 62.95 55.57 C 55.82 55.84 48.69 51.13 46.85 44.11 C 44.01 35.64 48.34 24.91 57.36 22.52 Z" />
</g>
</svg>
