<?xml version="1.0" encoding="UTF-8" ?>
<!DOCTYPE svg PUBLIC "-//W3C//DTD SVG 1.1//EN" "http://www.w3.org/Graphics/SVG/1.1/DTD/svg11.dtd">
<svg width="192pt" height="192pt" viewBox="0 0 192 192" version="1.1" xmlns="http://www.w3.org/2000/svg">
<g id="#ff891fff">
<path fill="#ff891f" opacity="1.00" d=" M 86.38 21.48 C 102.45 18.81 120.79 22.41 131.62 35.41 C 145.21 51.49 146.42 73.88 145.65 93.97 C 144.55 116.72 140.28 141.68 123.32 158.31 C 109.29 171.91 86.62 174.01 69.41 165.57 C 58.95 160.49 51.28 150.35 48.96 138.98 C 48.31 135.73 47.02 131.57 50.00 129.05 C 53.39 125.74 59.59 128.42 59.68 133.11 C 60.71 141.35 64.97 149.38 72.20 153.77 C 81.31 159.37 92.99 160.22 103.11 157.13 C 114.20 153.57 121.98 143.75 126.31 133.31 C 132.95 117.13 134.34 99.34 134.17 82.02 C 133.82 69.15 132.09 55.44 124.25 44.78 C 113.84 30.67 93.06 29.66 77.98 35.96 C 60.63 43.63 53.41 65.80 58.77 83.16 C 64.18 98.98 84.93 104.82 98.89 96.92 C 109.61 89.75 113.46 74.27 108.34 62.64 C 104.40 53.75 90.59 51.86 84.62 59.60 C 80.97 63.86 80.64 69.65 80.29 74.98 C 79.30 80.31 71.08 80.89 69.32 75.77 C 67.45 63.76 73.44 49.87 85.11 45.06 C 97.31 40.00 112.93 45.14 118.68 57.31 C 126.87 74.55 120.52 98.07 103.64 107.63 C 86.26 116.47 62.00 111.59 51.54 94.44 C 40.40 76.37 44.99 51.18 58.80 35.79 C 65.89 27.89 75.94 23.01 86.38 21.48 Z" />
</g>
</svg>
