<?xml version="1.0" encoding="UTF-8" ?>
<!DOCTYPE svg PUBLIC "-//W3C//DTD SVG 1.1//EN" "http://www.w3.org/Graphics/SVG/1.1/DTD/svg11.dtd">
<svg width="192pt" height="192pt" viewBox="0 0 192 192" version="1.1" xmlns="http://www.w3.org/2000/svg">
<g id="#a61affff">
<path fill="#a61aff" opacity="1.00" d=" M 84.38 13.45 C 116.09 8.75 149.41 24.70 165.81 52.19 C 178.64 72.84 181.32 99.28 173.32 122.18 C 163.62 150.84 136.95 172.91 106.90 176.73 C 76.28 181.42 43.96 166.87 27.00 141.00 C 8.13 113.67 8.54 74.85 27.91 47.89 C 40.89 29.25 61.81 16.33 84.38 13.45 M 87.38 24.45 C 67.20 26.69 48.27 38.05 36.87 54.85 C 24.50 72.49 21.05 95.90 27.59 116.41 C 35.52 142.58 59.77 162.72 86.96 165.70 C 110.11 168.67 134.29 159.20 149.35 141.40 C 168.98 119.24 172.14 84.51 156.78 59.21 C 143.10 35.30 114.74 21.02 87.38 24.45 Z" />
<path fill="#a61aff" opacity="1.00" d=" M 121.41 58.51 C 125.92 57.02 129.54 61.73 129.02 65.93 C 128.92 80.85 129.54 95.82 128.68 110.71 C 127.74 121.14 113.54 126.30 106.14 118.88 C 97.49 108.82 88.92 98.65 80.89 88.09 C 79.23 85.32 74.71 85.84 74.53 89.35 C 73.57 103.49 74.83 117.77 73.90 131.91 C 72.53 138.00 62.69 137.03 62.33 130.89 C 62.15 115.08 61.87 99.20 62.50 83.40 C 63.59 72.46 78.67 68.14 85.82 76.16 C 93.98 86.01 102.34 95.73 110.15 105.87 C 111.85 108.85 116.92 107.44 116.93 104.08 C 117.11 91.03 116.87 77.97 117.04 64.91 C 116.86 62.09 118.49 59.12 121.41 58.51 Z" />
</g>
</svg>
