<?xml version="1.0" encoding="UTF-8" ?>
<!DOCTYPE svg PUBLIC "-//W3C//DTD SVG 1.1//EN" "http://www.w3.org/Graphics/SVG/1.1/DTD/svg11.dtd">
<svg width="192pt" height="192pt" viewBox="0 0 192 192" version="1.1" xmlns="http://www.w3.org/2000/svg">
<g id="#3580d3ff">
<path fill="#3580d3" opacity="1.00" d=" M 43.56 44.53 C 68.90 17.03 110.71 7.86 146.16 17.79 C 155.31 19.68 161.30 31.46 154.94 39.21 C 158.90 41.63 164.28 43.81 165.02 49.02 C 165.70 53.15 162.34 56.49 158.69 57.70 C 146.67 62.58 138.04 73.21 132.92 84.84 C 130.38 90.43 121.09 87.28 122.35 81.33 C 127.11 67.87 137.14 56.63 149.29 49.28 C 120.33 39.35 84.04 47.04 65.45 72.45 C 53.45 88.99 52.25 111.95 60.69 130.31 C 67.58 144.74 81.17 155.11 95.95 160.56 C 91.58 153.52 88.60 145.40 89.06 137.00 C 88.80 117.10 106.24 99.24 126.04 98.51 C 143.91 97.06 161.50 109.60 166.30 126.80 C 171.54 143.75 163.54 163.46 147.99 171.98 C 138.54 178.23 126.78 177.23 115.99 177.54 C 87.13 177.57 57.62 165.42 39.70 142.32 C 17.94 114.23 19.32 70.73 43.56 44.53 M 79.68 32.68 C 62.14 40.01 46.56 53.62 39.82 71.73 C 31.29 94.31 35.40 122.29 52.56 139.81 C 40.83 117.85 40.56 89.49 54.46 68.42 C 71.96 41.39 106.99 29.94 137.94 34.77 C 141.20 35.91 143.95 33.83 146.32 31.89 C 145.67 28.62 142.00 28.37 139.38 27.59 C 119.65 22.95 98.40 25.04 79.68 32.68 M 121.36 110.54 C 106.36 113.97 96.60 131.00 101.32 145.67 C 104.86 158.59 118.71 167.95 132.06 165.20 C 147.94 164.33 159.59 147.18 155.93 132.00 C 153.13 116.81 136.25 106.23 121.36 110.54 Z" />
<path fill="#3580d3" opacity="1.00" d=" M 117.37 120.41 C 120.34 119.06 123.83 121.80 123.43 124.99 C 123.41 134.65 123.68 144.34 123.31 153.99 C 122.36 158.26 115.70 158.22 114.82 153.95 C 114.37 144.98 114.80 135.97 114.62 126.99 C 114.52 124.57 114.66 121.37 117.37 120.41 Z" />
<path fill="#3580d3" opacity="1.00" d=" M 129.78 121.78 C 132.75 119.73 137.03 119.53 140.37 120.67 C 143.24 123.95 140.93 128.90 136.44 128.46 C 135.97 135.27 135.95 141.85 136.51 148.66 C 140.93 148.05 143.20 153.32 140.48 156.38 C 137.34 157.85 133.34 157.31 130.30 155.77 C 126.52 152.81 127.88 147.38 127.39 143.22 C 125.44 141.40 124.37 138.33 125.94 135.93 C 129.45 131.95 125.70 125.54 129.78 121.78 Z" />
</g>
</svg>
