<?xml version="1.0" encoding="UTF-8" ?>
<!DOCTYPE svg PUBLIC "-//W3C//DTD SVG 1.1//EN" "http://www.w3.org/Graphics/SVG/1.1/DTD/svg11.dtd">
<svg width="192pt" height="192pt" viewBox="0 0 192 192" version="1.1" xmlns="http://www.w3.org/2000/svg">
<g id="#1bb2ffff">
<path fill="#1bb2ff" opacity="1.00" d=" M 83.35 12.42 C 101.59 10.05 120.75 13.83 136.36 23.65 C 141.74 27.31 135.97 36.42 130.33 32.89 C 108.42 19.77 79.61 19.76 57.66 32.80 C 52.39 36.31 46.47 28.13 51.05 24.08 C 60.61 17.62 71.96 13.97 83.35 12.42 Z" />
<path fill="#1bb2ff" opacity="1.00" d=" M 93.28 31.52 C 93.64 31.98 94.37 32.88 94.73 33.34 C 94.49 34.20 94.25 35.07 94.02 35.93 C 94.27 36.34 94.77 37.17 95.01 37.58 C 96.75 37.62 98.49 37.73 100.22 37.87 C 99.65 41.01 98.51 44.03 96.48 46.52 L 95.30 46.56 C 94.16 46.60 93.02 46.63 91.88 46.67 C 91.09 48.21 89.99 49.53 88.63 50.59 C 88.56 52.03 88.48 53.46 88.38 54.90 C 89.17 55.28 89.96 55.67 90.75 56.06 C 90.66 56.42 90.47 57.15 90.38 57.52 C 91.19 58.60 92.09 59.63 92.78 60.80 C 91.27 61.22 90.22 59.96 89.11 59.19 C 89.19 60.85 89.23 62.50 89.22 64.16 C 88.50 62.88 87.79 61.59 87.09 60.29 C 87.00 60.98 86.81 62.37 86.72 63.07 C 85.61 61.62 84.49 60.18 83.36 58.76 C 83.58 61.77 83.96 64.78 83.84 67.80 C 82.13 64.98 81.09 61.84 79.99 58.75 C 77.78 59.69 75.69 60.87 73.75 62.29 C 74.13 60.51 74.52 58.74 74.90 56.96 C 72.82 57.10 70.73 57.22 68.65 57.36 C 68.58 55.87 68.54 54.38 68.53 52.89 C 69.18 52.75 70.48 52.46 71.14 52.32 C 72.98 53.70 74.88 55.01 76.81 56.28 C 76.40 55.03 75.59 52.54 75.18 51.30 C 78.54 51.64 81.91 51.79 85.28 51.72 C 86.00 48.97 88.40 47.71 90.92 46.94 C 89.42 44.69 84.53 37.55 89.59 37.86 C 91.07 37.55 92.48 37.04 93.87 36.46 C 93.41 35.82 92.50 34.55 92.04 33.91 C 92.35 33.31 92.97 32.12 93.28 31.52 M 91.99 38.17 C 92.14 39.29 92.43 41.53 92.58 42.64 C 91.71 43.39 90.85 44.13 89.99 44.87 C 92.49 44.88 95.00 44.88 97.50 44.85 C 96.75 44.44 95.25 43.60 94.49 43.18 C 94.64 42.25 94.93 40.37 95.07 39.44 C 94.65 40.06 93.80 41.30 93.38 41.92 C 93.03 40.98 92.34 39.11 91.99 38.17 M 83.04 57.28 C 80.82 56.84 78.56 56.58 76.30 56.46 C 78.47 58.51 81.70 59.07 84.43 57.89 C 84.84 58.16 85.66 58.72 86.07 58.99 C 86.35 57.87 86.63 56.75 86.92 55.63 C 85.63 56.18 84.33 56.73 83.04 57.28 Z" />
<path fill="#1bb2ff" opacity="1.00" d=" M 34.01 36.78 C 41.05 43.19 47.13 51.14 50.20 60.22 C 45.93 56.48 43.27 51.24 38.68 47.82 C 40.59 54.96 47.93 58.09 51.46 64.12 C 50.74 61.59 50.38 58.98 50.55 56.34 C 55.90 57.94 57.71 63.41 58.76 68.29 C 58.82 66.20 58.87 64.12 58.92 62.03 C 61.55 66.75 66.38 69.38 69.93 73.21 C 70.49 77.03 67.89 80.51 67.24 84.22 C 70.51 86.34 74.39 85.81 78.05 85.64 C 77.79 84.71 77.53 83.78 77.27 82.85 C 78.52 83.04 79.78 83.24 81.04 83.44 C 80.61 85.22 80.93 88.05 78.23 87.51 C 78.40 88.10 78.57 88.68 78.73 89.26 C 84.52 90.93 80.65 97.42 78.52 100.66 C 75.53 104.03 76.87 108.73 75.99 112.78 C 72.18 109.38 73.02 104.02 71.67 99.66 C 70.91 104.44 70.89 109.42 68.95 113.94 C 66.16 109.92 67.17 104.85 66.81 100.28 C 65.70 105.11 65.66 111.52 60.03 113.45 C 58.41 108.47 60.84 103.66 62.45 99.05 C 58.82 103.70 56.56 110.11 50.28 111.94 C 49.87 107.14 52.81 103.12 54.83 99.05 C 50.95 102.74 48.18 108.63 42.11 108.99 C 42.53 104.62 44.96 100.93 47.50 97.49 C 43.72 100.68 39.54 104.53 34.15 103.75 C 35.66 99.58 38.57 96.19 42.16 93.65 C 37.60 95.56 32.84 97.52 27.77 96.96 C 30.29 91.94 35.44 89.40 40.43 87.47 C 34.55 87.70 28.56 88.37 22.76 86.97 C 27.86 83.66 33.90 82.66 39.81 81.91 C 32.79 81.17 25.71 79.58 19.95 75.29 C 25.88 74.23 31.90 74.87 37.88 74.90 C 31.18 72.76 23.66 70.74 19.57 64.44 C 30.58 64.66 41.40 68.26 51.18 73.10 C 45.25 74.19 40.04 69.77 34.08 70.00 C 38.50 72.61 43.67 73.28 48.45 74.94 C 51.05 72.69 54.47 73.91 57.45 74.48 C 58.51 71.78 61.55 73.31 63.61 73.55 C 61.69 71.81 60.12 69.73 58.94 67.42 C 59.10 68.34 59.41 70.18 59.56 71.10 C 57.18 69.47 54.89 67.71 52.77 65.75 C 48.65 66.03 45.70 62.59 42.75 60.24 C 36.08 54.50 31.05 45.76 34.01 36.78 Z" />
<path fill="#1bb2ff" opacity="1.00" d=" M 137.04 60.32 C 139.89 51.11 146.23 43.27 153.14 36.71 C 155.22 43.35 153.61 50.71 148.75 55.73 C 144.76 59.87 140.50 65.69 134.24 65.75 C 133.22 66.78 132.18 67.78 131.20 68.84 C 134.15 67.67 136.97 66.15 140.07 65.37 C 138.71 70.21 134.74 74.12 129.40 73.25 C 129.27 73.89 128.99 75.18 128.85 75.82 C 131.20 72.68 135.59 73.26 138.81 74.60 C 143.66 73.47 148.67 72.53 153.03 69.99 C 147.06 69.91 141.81 74.22 135.85 73.14 C 145.75 68.30 156.61 64.59 167.74 64.41 C 165.27 69.63 158.53 70.36 155.73 74.63 C 159.61 74.70 163.50 74.75 167.36 75.24 C 162.32 79.32 155.88 80.43 149.82 82.04 C 154.93 83.00 160.16 84.03 164.56 86.98 C 158.62 88.40 152.48 87.79 146.47 87.40 C 151.63 89.32 157.06 91.88 159.56 97.15 C 149.92 97.71 142.09 91.14 133.28 88.38 C 134.96 92.01 131.09 91.97 128.62 92.29 C 129.32 93.29 130.01 94.30 130.70 95.32 C 128.84 97.01 126.83 95.44 125.02 94.60 C 127.44 98.93 129.51 103.81 133.81 106.64 C 132.58 102.56 129.46 99.57 126.88 96.33 C 129.22 97.21 131.31 98.57 133.42 99.88 C 132.67 98.62 131.18 96.10 130.43 94.84 C 133.47 97.22 136.21 100.04 139.68 101.83 C 137.45 97.68 132.87 95.98 129.79 92.66 C 132.23 92.16 134.25 93.39 136.13 94.73 C 136.56 94.56 137.43 94.22 137.86 94.05 C 140.14 95.47 142.50 96.76 145.00 97.77 C 142.97 95.32 140.38 93.44 137.95 91.42 C 144.59 92.95 151.13 96.97 153.06 103.88 C 147.63 104.47 143.49 100.61 139.60 97.47 C 142.27 100.87 144.71 104.61 145.18 109.01 C 139.72 108.63 136.33 103.99 133.78 99.69 C 133.47 100.08 133.16 100.48 132.87 100.88 C 135.53 103.97 136.97 107.87 137.18 111.92 C 130.94 110.23 128.06 104.15 125.41 98.86 C 123.40 97.99 121.53 96.84 119.93 95.34 C 120.27 98.34 119.30 101.15 116.72 102.86 C 116.10 99.77 115.69 96.64 115.89 93.49 C 117.14 93.72 118.39 93.96 119.64 94.23 C 120.00 93.22 120.37 92.21 120.73 91.21 C 120.28 90.93 119.39 90.38 118.94 90.10 C 118.54 91.14 118.14 92.18 117.74 93.21 C 116.65 92.64 115.58 92.05 114.52 91.44 C 113.48 92.11 112.42 92.75 111.36 93.39 C 110.06 90.32 107.90 87.78 105.95 85.13 C 105.35 86.62 104.72 88.10 104.07 89.58 C 101.83 86.89 101.84 83.46 103.04 80.34 C 104.18 81.33 105.27 82.39 106.35 83.46 C 107.56 83.24 108.77 83.04 109.98 82.83 C 109.76 83.52 109.32 84.90 109.10 85.58 C 112.53 85.57 116.47 86.67 119.43 84.36 C 120.46 80.32 115.53 76.58 117.68 72.70 C 121.28 69.26 125.54 66.46 128.32 62.21 C 128.30 64.46 128.25 66.72 128.24 68.98 C 129.45 64.05 130.92 58.35 136.27 56.42 C 136.57 58.12 136.82 59.83 137.10 61.54 C 141.60 57.53 146.68 53.61 148.62 47.64 C 143.98 51.13 141.35 56.49 137.04 60.32 M 127.33 69.39 C 126.27 70.74 125.19 72.07 124.10 73.39 C 125.65 73.13 127.19 72.88 128.74 72.64 C 129.04 71.81 129.33 70.98 129.63 70.16 C 128.86 69.90 128.09 69.64 127.33 69.39 Z" />
<path fill="#1bb2ff" opacity="1.00" d=" M 66.28 43.48 C 67.61 41.38 69.79 40.29 72.19 39.94 C 70.64 41.74 68.64 43.03 66.28 43.48 Z" />
<path fill="#1bb2ff" opacity="1.00" d=" M 78.71 39.93 C 79.90 42.42 78.11 46.80 82.61 45.59 C 82.03 46.90 81.43 48.20 80.85 49.51 C 80.30 49.10 79.19 48.29 78.63 47.89 C 78.11 48.32 77.07 49.16 76.55 49.59 C 75.82 48.29 75.11 46.98 74.41 45.67 C 75.87 45.52 77.34 45.37 78.80 45.19 C 78.31 44.15 77.80 43.12 77.30 42.09 C 77.65 41.55 78.35 40.47 78.71 39.93 Z" />
<path fill="#1bb2ff" opacity="1.00" d=" M 108.34 40.10 C 108.77 40.65 109.21 41.20 109.64 41.74 C 108.21 44.69 110.02 45.74 112.75 46.02 C 111.90 47.51 110.86 48.88 109.85 50.27 C 109.74 49.21 109.52 47.10 109.41 46.05 C 108.79 47.00 107.57 48.92 106.95 49.88 C 106.10 48.46 105.25 47.04 104.43 45.61 C 105.87 45.49 107.32 45.36 108.77 45.20 C 108.30 44.18 107.83 43.15 107.36 42.13 C 107.60 41.62 108.10 40.61 108.34 40.10 Z" />
<path fill="#1bb2ff" opacity="1.00" d=" M 116.04 40.37 C 117.53 39.91 120.27 41.24 119.97 42.97 C 118.49 43.49 115.84 41.98 116.04 40.37 Z" />
<path fill="#1bb2ff" opacity="1.00" d=" M 113.89 40.72 C 115.83 43.35 119.20 46.93 116.18 50.09 C 115.16 47.03 113.45 44.05 113.89 40.72 Z" />
<path fill="#1bb2ff" opacity="1.00" d=" M 72.96 40.89 C 74.25 44.15 71.77 47.17 70.99 50.22 C 68.28 46.98 71.22 43.70 72.96 40.89 Z" />
<path fill="#1bb2ff" opacity="1.00" d=" M 66.30 53.92 C 66.70 50.16 63.25 45.72 65.62 42.45 C 67.55 45.98 68.74 50.29 66.30 53.92 Z" />
<path fill="#1bb2ff" opacity="1.00" d=" M 121.40 42.47 C 124.07 45.39 120.98 50.18 120.56 53.75 C 118.69 50.03 119.71 46.01 121.40 42.47 Z" />
<path fill="#1bb2ff" opacity="1.00" d=" M 95.30 46.56 C 97.60 47.35 99.80 48.40 101.75 49.86 C 101.36 50.30 100.59 51.17 100.21 51.61 C 104.21 51.76 108.21 51.75 112.20 51.37 C 111.58 52.99 110.94 54.59 110.31 56.20 C 112.88 55.25 115.04 51.56 118.06 52.79 C 119.37 54.06 118.48 55.92 118.38 57.46 C 116.33 57.15 114.27 56.99 112.20 56.95 C 112.62 58.75 113.05 60.55 113.45 62.36 C 111.65 61.10 109.82 59.91 107.91 58.83 C 106.77 59.44 105.62 60.05 104.48 60.67 C 105.28 60.56 106.89 60.33 107.69 60.22 C 105.96 62.50 104.86 65.17 103.26 67.52 C 103.21 65.04 103.49 62.57 103.49 60.10 C 105.76 58.30 108.70 57.90 111.22 56.57 C 108.85 56.48 106.50 56.77 104.20 57.35 C 103.28 56.78 102.37 56.21 101.45 55.63 C 99.65 56.57 97.79 57.67 95.68 57.11 C 96.72 56.29 97.77 55.50 98.84 54.72 C 98.72 53.34 98.62 51.97 98.51 50.59 C 97.17 49.48 96.03 48.15 95.30 46.56 Z" />
<path fill="#1bb2ff" opacity="1.00" d=" M 25.72 47.94 C 34.03 52.76 41.73 59.52 47.18 67.31 C 42.25 64.33 38.11 60.14 32.82 57.74 C 36.64 63.74 44.03 65.38 48.85 70.16 C 38.29 67.87 23.87 60.95 25.72 47.94 Z" />
<path fill="#1bb2ff" opacity="1.00" d=" M 139.86 67.22 C 145.58 59.56 153.06 52.63 161.51 47.97 C 163.42 61.03 148.76 67.85 138.25 70.27 C 142.95 65.41 150.39 63.91 154.17 57.91 C 148.88 60.20 144.94 64.59 139.86 67.22 Z" />
<path fill="#1bb2ff" opacity="1.00" d=" M 98.85 58.49 C 99.50 57.93 100.15 57.37 100.80 56.82 C 100.82 57.37 100.85 58.48 100.87 59.03 C 101.75 58.64 103.52 57.88 104.40 57.49 C 103.16 59.52 101.77 61.44 100.36 63.35 C 100.39 62.42 100.45 60.56 100.48 59.63 C 99.63 61.15 98.79 62.66 97.94 64.17 C 97.94 62.99 97.95 60.64 97.96 59.46 C 96.75 60.25 95.54 61.01 94.31 61.76 C 94.87 60.46 95.45 59.18 96.04 57.90 C 96.98 58.09 97.91 58.29 98.85 58.49 Z" />
<path fill="#1bb2ff" opacity="1.00" d=" M 91.36 66.82 C 91.82 65.11 91.48 63.06 92.85 61.72 C 95.74 62.59 97.76 65.57 98.25 68.47 C 99.00 66.81 99.79 65.16 100.85 63.67 C 101.46 65.80 101.79 68.00 101.91 70.21 C 103.72 72.17 105.83 73.81 108.11 75.20 C 106.35 75.53 104.56 75.68 102.78 75.78 C 104.42 76.70 106.08 77.60 107.76 78.45 C 108.88 77.49 110.01 76.53 111.15 75.59 C 110.94 77.77 111.45 80.92 108.88 81.90 C 106.07 83.23 104.03 79.89 102.60 78.02 C 102.49 79.46 102.15 80.85 101.60 82.18 C 100.38 79.78 99.41 77.28 98.48 74.76 C 99.24 74.48 99.99 74.20 100.75 73.93 C 101.42 73.35 102.08 72.77 102.75 72.19 C 101.44 71.00 100.16 69.77 98.88 68.55 C 99.21 70.56 99.88 72.87 97.48 73.69 C 96.14 71.85 95.11 69.80 95.03 67.49 C 93.94 67.30 92.85 67.09 91.76 66.87 C 92.93 69.95 90.93 72.66 88.07 73.61 C 88.14 74.68 88.22 75.74 88.31 76.81 C 89.35 75.81 90.33 74.55 91.35 73.46 C 91.26 75.27 91.12 77.08 90.93 78.89 C 91.59 77.93 92.25 76.97 92.90 76.01 C 93.88 76.34 94.85 76.68 95.83 77.03 C 95.86 76.10 95.93 74.25 95.96 73.32 C 98.88 75.90 100.38 79.82 96.45 82.43 C 96.54 80.62 96.64 78.81 96.75 77.01 C 95.99 79.23 95.47 81.79 93.24 83.05 C 92.63 82.17 91.40 80.43 90.79 79.56 C 90.49 82.99 90.51 86.58 88.19 89.39 C 85.09 86.75 84.97 82.02 88.92 80.15 C 88.55 79.43 88.11 78.75 87.62 78.12 C 86.75 79.48 86.15 81.14 84.76 82.08 C 84.76 80.94 84.76 78.68 84.77 77.55 C 83.31 79.62 81.30 83.27 78.26 81.81 C 75.77 80.86 76.27 77.77 76.17 75.66 C 77.23 76.55 78.26 77.46 79.29 78.38 C 80.78 77.77 82.24 77.12 83.70 76.46 C 82.30 75.97 80.89 75.50 79.50 75.00 C 81.57 73.67 83.49 72.13 85.23 70.38 C 84.71 72.57 83.15 77.20 86.47 72.75 C 86.42 73.75 86.32 75.77 86.27 76.78 C 87.82 72.61 88.51 68.19 90.17 64.07 L 91.36 66.82 Z" />
<path fill="#1bb2ff" opacity="1.00" d=" M 85.50 71.18 C 85.22 68.48 85.42 65.72 87.08 63.44 C 88.49 66.01 88.71 69.93 85.50 71.18 Z" />
<path fill="#1bb2ff" opacity="1.00" d=" M 47.13 65.38 C 51.64 66.49 55.78 68.80 59.07 72.08 C 53.73 75.67 48.48 70.42 47.13 65.38 Z" />
<path fill="#1bb2ff" opacity="1.00" d=" M 93.21 69.57 C 95.35 71.34 95.72 73.86 93.98 76.13 C 91.59 74.40 91.70 71.85 93.21 69.57 Z" />
<path fill="#1bb2ff" opacity="1.00" d=" M 83.49 80.45 C 86.11 83.25 85.09 86.92 82.98 89.68 C 82.10 87.53 81.49 85.28 81.21 82.98 C 81.78 82.34 82.92 81.08 83.49 80.45 Z" />
<path fill="#1bb2ff" opacity="1.00" d=" M 98.92 89.33 C 96.54 86.33 95.86 82.24 99.68 80.14 C 101.91 83.19 102.07 86.84 98.92 89.33 Z" />
<path fill="#1bb2ff" opacity="1.00" d=" M 90.61 84.87 C 92.52 83.36 94.74 83.37 96.66 84.89 C 95.69 86.57 94.64 88.21 93.48 89.76 C 92.49 88.15 91.53 86.52 90.61 84.87 Z" />
<path fill="#1bb2ff" opacity="1.00" d=" M 85.45 87.13 C 88.54 89.69 88.64 93.48 86.07 96.50 C 84.87 94.75 83.75 92.94 82.72 91.09 C 83.63 89.77 84.54 88.45 85.45 87.13 Z" />
<path fill="#1bb2ff" opacity="1.00" d=" M 90.09 87.05 C 93.47 89.37 93.62 93.40 91.67 96.73 C 88.61 94.35 88.60 90.34 90.09 87.05 Z" />
<path fill="#1bb2ff" opacity="1.00" d=" M 95.13 96.44 C 93.77 93.10 93.90 89.36 96.93 86.98 C 98.65 90.09 98.95 94.78 95.13 96.44 Z" />
<path fill="#1bb2ff" opacity="1.00" d=" M 101.35 87.12 C 103.58 88.94 104.68 91.48 103.28 94.19 C 106.26 96.29 105.60 100.15 103.35 102.51 C 103.43 104.89 103.21 107.37 101.23 108.99 C 103.90 110.92 106.80 112.58 109.12 114.97 C 107.91 114.72 105.50 114.23 104.30 113.98 C 106.34 115.27 107.00 117.00 106.27 119.17 C 106.96 118.87 108.32 118.25 109.00 117.94 C 108.50 117.30 107.51 116.01 107.02 115.37 C 109.97 115.98 112.87 116.86 115.53 118.30 C 114.29 118.86 113.04 119.41 111.79 119.96 C 112.88 119.89 115.05 119.74 116.13 119.67 L 116.27 120.75 C 114.18 121.19 112.19 121.88 110.30 122.84 C 116.49 119.50 118.63 126.54 120.25 130.87 C 121.12 124.45 128.72 123.36 133.22 126.85 C 132.01 124.99 130.72 123.17 129.23 121.53 C 129.35 121.18 129.60 120.49 129.72 120.14 C 128.93 120.21 127.33 120.36 126.54 120.44 C 125.64 116.30 129.85 113.30 133.47 112.68 C 134.75 116.92 136.84 120.95 137.45 125.37 C 137.75 130.36 134.18 134.36 131.18 137.92 C 129.09 137.34 127.02 136.70 124.92 136.18 C 125.28 137.90 126.17 139.40 127.50 140.56 C 127.24 139.67 126.72 137.91 126.46 137.03 C 128.48 137.64 130.49 138.29 132.49 138.99 C 131.07 140.23 129.61 141.43 128.20 142.67 C 126.26 142.55 124.33 142.46 122.40 142.22 C 120.95 134.45 116.84 126.48 109.24 123.19 C 107.88 123.64 106.51 124.07 105.13 124.46 C 105.17 125.01 105.26 126.12 105.30 126.67 C 102.61 125.10 100.42 122.89 98.16 120.79 C 99.00 124.91 103.51 126.25 105.12 129.88 C 99.51 129.38 97.02 123.58 96.14 118.74 C 95.38 121.54 95.34 124.42 97.19 126.83 C 96.05 126.29 94.92 125.74 93.79 125.19 C 92.92 125.47 92.06 125.75 91.20 126.03 C 92.57 121.91 89.64 118.11 89.91 113.96 C 91.85 115.56 92.64 117.98 93.65 120.18 C 94.37 118.46 95.09 116.75 95.79 115.03 C 95.12 115.66 93.78 116.93 93.10 117.57 C 91.57 113.95 90.77 109.94 93.03 106.42 C 93.64 106.97 94.85 108.07 95.45 108.62 C 94.81 106.03 94.74 103.36 96.17 101.01 C 98.78 102.97 98.67 106.33 100.03 109.00 C 99.89 104.68 101.63 100.78 102.25 96.58 C 98.63 94.42 98.43 89.98 101.35 87.12 M 95.72 109.76 C 95.59 111.49 95.42 113.21 95.21 114.93 C 95.68 114.82 96.62 114.61 97.09 114.51 C 97.12 115.77 97.15 117.03 97.17 118.29 C 99.88 119.69 101.81 122.11 104.07 124.08 C 105.17 123.29 106.27 122.50 107.37 121.72 C 106.29 120.59 105.19 119.49 104.05 118.42 C 99.54 119.60 97.37 115.11 96.47 111.54 C 98.53 112.56 100.64 115.82 103.17 114.02 C 100.39 113.69 98.22 111.74 99.38 108.80 C 98.17 109.16 96.95 109.48 95.72 109.76 M 121.05 132.59 C 121.71 133.32 122.36 134.05 123.02 134.79 C 125.85 133.28 129.05 132.25 131.68 134.83 C 133.40 131.43 131.79 126.73 127.70 126.30 C 123.91 125.76 122.03 129.58 121.05 132.59 Z" />
<path fill="#1bb2ff" opacity="1.00" d=" M 110.24 104.88 C 109.68 99.85 100.75 91.99 108.78 89.27 C 109.38 90.70 109.98 92.12 110.55 93.57 C 111.02 93.87 111.95 94.48 112.42 94.79 C 113.27 94.06 113.71 92.57 114.93 92.44 C 116.23 97.01 115.11 102.90 110.24 104.88 Z" />
<path fill="#1bb2ff" opacity="1.00" d=" M 17.33 94.43 C 21.62 93.85 23.90 98.30 23.78 102.00 C 26.78 131.98 51.32 158.02 80.97 163.09 C 102.69 167.24 126.15 160.42 142.20 145.21 C 155.04 133.38 162.99 116.66 164.47 99.30 C 164.71 93.04 174.92 92.80 175.51 99.01 C 174.38 128.52 154.86 156.05 128.08 168.12 C 101.00 180.81 67.11 176.93 43.69 158.30 C 25.94 144.61 14.24 123.35 12.40 101.00 C 11.82 97.91 14.13 94.63 17.33 94.43 Z" />
<path fill="#1bb2ff" opacity="1.00" d=" M 83.03 93.99 C 85.72 96.32 85.89 99.82 83.89 102.66 C 81.66 100.16 81.47 96.91 83.03 93.99 Z" />
<path fill="#1bb2ff" opacity="1.00" d=" M 88.11 103.11 C 85.65 100.33 85.74 96.54 88.67 94.17 C 90.68 96.98 91.17 100.81 88.11 103.11 Z" />
<path fill="#1bb2ff" opacity="1.00" d=" M 98.00 94.54 C 98.61 94.82 99.83 95.37 100.44 95.65 C 101.17 98.43 101.19 101.76 98.01 102.99 C 96.72 100.24 96.63 97.27 98.00 94.54 Z" />
<path fill="#1bb2ff" opacity="1.00" d=" M 93.20 95.06 C 96.06 97.37 96.22 100.87 93.76 103.55 C 91.10 101.27 91.36 97.78 93.20 95.06 Z" />
<path fill="#1bb2ff" opacity="1.00" d=" M 120.83 96.80 C 123.09 100.34 122.48 104.95 124.96 108.44 C 124.78 104.94 123.75 101.58 123.08 98.17 C 126.60 102.42 128.82 108.14 127.17 113.64 C 120.82 110.69 120.63 102.82 120.83 96.80 Z" />
<path fill="#1bb2ff" opacity="1.00" d=" M 85.62 108.48 C 83.30 106.24 83.58 103.00 85.84 100.82 C 86.22 101.62 86.97 103.24 87.34 104.05 C 87.00 105.05 86.65 106.06 86.31 107.07 C 87.27 108.53 87.97 110.13 88.47 111.80 C 87.81 112.32 86.48 113.36 85.81 113.89 C 85.51 113.16 84.90 111.71 84.59 110.98 C 84.93 110.15 85.28 109.31 85.62 108.48 Z" />
<path fill="#1bb2ff" opacity="1.00" d=" M 90.43 101.07 C 93.52 103.69 92.60 108.25 89.57 110.48 C 88.93 108.99 88.31 107.50 87.70 106.00 C 88.58 104.34 89.49 102.70 90.43 101.07 Z" />
<path fill="#1bb2ff" opacity="1.00" d=" M 118.80 100.78 C 121.58 104.32 120.56 110.18 118.19 113.84 C 117.40 111.62 116.79 109.34 116.25 107.05 C 116.89 107.21 118.16 107.53 118.79 107.69 C 118.71 105.38 118.69 103.08 118.80 100.78 Z" />
<path fill="#1bb2ff" opacity="1.00" d=" M 111.30 112.75 C 110.94 109.89 109.71 106.40 112.09 104.04 C 112.15 105.14 112.27 107.34 112.33 108.44 C 113.03 106.21 113.92 104.05 115.00 101.97 C 114.81 105.80 114.15 109.94 111.30 112.75 Z" />
<path fill="#1bb2ff" opacity="1.00" d=" M 78.14 114.84 C 80.00 113.07 82.07 111.54 84.33 110.33 C 84.06 111.53 83.77 112.72 83.47 113.91 C 84.34 114.22 85.21 114.53 86.08 114.84 C 87.61 113.66 89.13 112.47 90.68 111.32 C 90.49 111.98 90.10 113.30 89.91 113.96 C 89.24 117.18 86.17 119.11 83.00 118.45 C 81.97 119.51 80.94 120.58 79.94 121.67 C 81.00 122.46 82.05 123.25 83.10 124.05 C 85.34 122.23 87.32 120.14 89.22 117.98 C 92.22 122.95 87.37 129.04 82.29 130.00 C 83.59 126.18 88.18 124.84 89.19 120.78 C 87.03 122.56 85.01 124.48 82.85 126.24 C 81.97 124.75 80.43 124.19 78.84 123.79 C 78.79 122.41 78.73 121.03 78.68 119.65 C 78.32 120.00 77.60 120.71 77.25 121.06 C 77.43 121.56 77.80 122.54 77.98 123.04 C 71.44 125.94 68.05 132.15 65.50 138.46 C 66.06 142.65 62.20 142.91 59.10 142.70 C 57.68 141.48 56.24 140.31 54.83 139.08 C 56.66 138.37 58.49 137.67 60.33 136.98 C 60.40 137.82 60.54 139.50 60.61 140.34 C 61.32 139.23 62.02 138.11 62.74 137.01 C 62.34 136.84 61.55 136.51 61.15 136.34 C 55.55 140.18 51.98 133.30 50.30 128.87 C 48.88 123.48 51.96 118.22 53.63 113.23 C 57.24 112.17 60.42 116.48 61.24 119.72 C 60.38 119.97 59.52 120.21 58.66 120.46 C 57.09 122.49 55.56 124.55 54.24 126.75 C 58.60 123.49 65.97 124.49 66.88 130.66 C 68.88 126.75 70.60 119.34 76.63 122.87 C 74.62 121.79 72.49 120.97 70.42 120.03 C 71.64 119.95 74.08 119.80 75.30 119.72 C 74.39 119.37 72.57 118.66 71.67 118.31 C 75.16 115.53 80.01 117.26 83.31 114.26 C 82.01 114.40 79.43 114.69 78.14 114.84 M 55.63 134.91 C 58.80 130.61 63.26 136.71 66.26 132.99 C 65.22 130.06 63.84 126.08 60.01 126.30 C 55.58 126.26 53.73 131.39 55.63 134.91 Z" />
<path fill="#1bb2ff" opacity="1.00" d=" M 81.10 135.78 C 84.63 133.22 87.10 129.13 90.85 127.09 C 89.17 130.94 85.53 135.83 81.10 135.78 Z" />
<path fill="#1bb2ff" opacity="1.00" d=" M 84.85 136.28 C 88.03 133.18 91.13 130.00 93.68 126.35 C 95.68 129.28 97.92 132.05 100.50 134.51 C 100.73 131.31 96.39 129.67 95.89 126.40 C 99.63 129.26 102.79 132.96 106.18 136.12 C 104.21 135.84 102.31 134.88 100.27 135.55 C 95.40 133.06 89.60 133.93 84.85 136.28 Z" />
<path fill="#1bb2ff" opacity="1.00" d=" M 73.34 127.93 C 74.43 128.30 75.52 128.67 76.61 129.05 C 77.96 135.07 83.41 138.84 85.65 144.44 C 87.01 141.97 88.57 139.63 90.18 137.32 C 91.39 139.35 92.56 141.41 93.66 143.51 C 94.69 141.40 95.80 139.33 96.98 137.29 C 98.39 139.69 101.43 141.97 100.25 145.08 C 99.24 143.87 98.26 142.64 97.29 141.40 C 96.32 142.52 95.34 143.63 94.32 144.71 C 95.27 146.32 96.22 147.95 97.17 149.56 C 101.53 142.71 107.99 136.86 110.51 129.06 C 111.63 128.69 112.75 128.32 113.87 127.95 C 113.89 129.36 113.91 130.77 113.94 132.18 C 113.41 132.27 112.34 132.45 111.80 132.54 C 108.59 137.09 105.38 141.63 102.11 146.13 C 103.32 146.73 104.55 147.29 105.80 147.84 C 105.74 149.21 105.67 150.58 105.61 151.96 C 104.33 151.40 103.05 150.84 101.78 150.27 C 101.75 149.00 101.70 147.75 101.58 146.49 C 100.19 148.89 98.63 151.17 96.95 153.37 C 95.75 151.30 94.61 149.19 93.55 147.04 C 92.55 149.19 91.45 151.30 90.26 153.36 C 89.08 151.33 86.47 149.58 87.04 147.00 C 88.33 147.23 89.09 148.35 90.02 149.17 C 90.98 148.15 91.96 147.15 92.95 146.17 C 91.98 144.50 91.01 142.82 90.04 141.15 C 88.20 144.12 85.15 146.74 85.26 150.51 C 84.04 150.96 82.83 151.40 81.61 151.84 C 81.54 150.45 81.47 149.06 81.41 147.68 C 81.99 147.54 83.16 147.27 83.74 147.13 C 84.03 146.62 84.60 145.60 84.88 145.09 C 80.39 141.00 78.54 134.68 73.25 131.37 C 73.28 130.22 73.31 129.07 73.34 127.93 Z" />
<path fill="#1bb2ff" opacity="1.00" d=" M 92.39 135.14 C 93.38 133.85 96.14 135.20 94.86 136.71 C 93.90 138.14 91.21 136.62 92.39 135.14 Z" />
<path fill="#1bb2ff" opacity="1.00" d=" M 65.37 140.09 C 69.17 137.99 73.73 138.04 77.89 137.16 C 75.76 140.59 69.34 140.16 65.37 140.09 Z" />
<path fill="#1bb2ff" opacity="1.00" d=" M 109.27 137.36 C 113.48 137.63 118.09 138.09 121.85 140.17 C 117.88 139.99 111.55 140.60 109.27 137.36 Z" />
</g>
</svg>
