<?xml version="1.0" encoding="UTF-8" ?>
<!DOCTYPE svg PUBLIC "-//W3C//DTD SVG 1.1//EN" "http://www.w3.org/Graphics/SVG/1.1/DTD/svg11.dtd">
<svg width="192pt" height="192pt" viewBox="0 0 192 192" version="1.1" xmlns="http://www.w3.org/2000/svg">
<g id="#a81bffff">
<path fill="#a81bff" opacity="1.00" d=" M 67.73 19.81 C 86.48 10.31 110.24 11.65 127.76 23.29 C 143.90 33.97 154.41 52.59 154.97 71.96 C 155.44 90.98 155.72 110.00 156.08 129.02 C 156.48 135.47 153.07 142.72 146.35 144.31 C 138.67 146.69 129.98 140.92 129.30 132.90 C 128.59 121.09 129.08 109.22 128.42 97.42 C 128.19 94.71 124.08 95.16 124.52 97.95 C 124.52 115.64 125.11 133.33 125.17 151.03 C 125.53 158.58 118.55 165.33 111.02 164.74 C 104.20 164.65 98.67 158.51 98.34 151.89 C 97.59 133.36 98.12 114.78 97.10 96.27 C 96.24 96.24 94.52 96.17 93.67 96.14 C 92.92 118.75 94.32 141.41 94.16 164.03 C 94.24 172.38 85.27 179.17 77.26 176.70 C 71.14 175.27 67.29 169.08 67.28 163.02 C 67.06 147.35 66.53 131.67 66.69 116.01 C 67.00 110.09 76.46 109.57 77.53 115.34 C 78.42 131.39 77.85 147.53 78.68 163.59 C 78.49 166.94 83.63 166.17 82.91 163.06 C 82.80 141.35 82.20 119.63 82.11 97.92 C 82.02 90.98 88.02 84.70 94.99 84.67 C 101.93 84.37 108.32 90.19 108.56 97.15 C 109.08 115.03 109.00 132.93 109.55 150.80 C 109.14 154.05 114.20 154.30 113.90 150.99 C 113.87 133.01 113.24 115.02 113.29 97.03 C 113.27 90.24 119.30 84.43 125.99 84.26 C 132.71 83.93 139.08 89.41 139.63 96.14 C 140.35 107.93 139.81 119.80 140.55 131.59 C 140.58 133.63 142.86 133.20 144.24 133.62 C 145.50 120.15 143.99 106.54 144.17 93.01 C 143.57 81.55 144.94 69.73 141.30 58.64 C 135.51 40.41 118.31 26.26 99.07 25.07 C 77.56 22.50 56.01 36.64 48.78 56.84 C 44.89 67.11 45.95 78.26 45.82 89.01 C 45.89 103.35 45.75 117.70 45.99 132.03 C 45.59 134.29 48.48 135.59 50.13 134.22 C 51.78 131.24 49.94 127.10 52.42 124.44 C 54.80 121.64 59.76 122.25 61.42 125.52 C 63.95 132.86 61.05 142.57 53.18 145.23 C 44.93 148.67 34.81 141.93 34.73 133.02 C 34.69 112.36 34.48 91.70 34.73 71.05 C 35.30 49.57 48.74 29.50 67.73 19.81 Z" />
<path fill="#a81bff" opacity="1.00" d=" M 70.26 55.31 C 75.05 53.40 80.74 57.86 79.97 62.98 C 79.79 68.68 72.18 71.82 68.00 68.00 C 63.58 64.67 64.97 56.91 70.26 55.31 Z" />
<path fill="#a81bff" opacity="1.00" d=" M 114.41 55.55 C 119.27 53.04 125.56 57.58 124.77 62.97 C 124.60 68.60 117.09 71.81 112.88 68.09 C 108.59 64.98 109.49 57.53 114.41 55.55 Z" />
</g>
</svg>
