<?xml version="1.0" encoding="UTF-8" ?>
<!DOCTYPE svg PUBLIC "-//W3C//DTD SVG 1.1//EN" "http://www.w3.org/Graphics/SVG/1.1/DTD/svg11.dtd">
<svg width="192pt" height="192pt" viewBox="0 0 192 192" version="1.1" xmlns="http://www.w3.org/2000/svg">
<g id="#d62cbbff">
<path fill="#d62cbb" opacity="1.00" d=" M 85.36 18.43 C 116.95 13.79 149.98 31.23 164.34 59.66 C 176.70 82.90 175.91 112.63 162.03 135.04 C 160.12 138.36 154.80 138.20 153.05 134.82 C 151.40 132.33 152.99 129.52 154.22 127.26 C 163.74 110.33 164.95 89.16 157.93 71.10 C 151.36 54.12 137.59 40.10 120.69 33.29 C 93.94 21.97 60.52 30.79 42.94 53.94 C 26.00 74.92 23.97 106.20 37.82 129.30 C 41.58 134.47 33.29 140.76 29.44 135.55 C 11.84 108.23 15.00 69.78 36.27 45.29 C 48.55 30.66 66.40 20.85 85.36 18.43 Z" />
<path fill="#d62cbb" opacity="1.00" d=" M 85.01 47.89 C 100.72 44.23 118.07 49.10 129.55 60.44 C 140.81 71.17 146.33 87.55 143.73 102.90 C 141.78 115.77 134.20 127.42 123.71 135.01 C 123.70 138.75 123.74 142.48 123.79 146.22 C 132.77 146.37 141.76 146.00 150.72 146.41 C 152.18 146.29 152.24 148.52 151.16 149.13 C 136.84 164.36 115.88 173.05 95.00 172.74 C 73.74 172.71 52.27 163.53 38.39 147.29 C 47.40 145.05 56.93 146.81 66.14 146.23 C 66.17 142.13 66.19 138.04 66.21 133.95 C 50.97 122.27 43.48 101.41 48.70 82.81 C 53.12 65.64 67.68 51.64 85.01 47.89 M 58.62 99.80 C 60.00 111.56 67.48 122.27 77.84 127.91 C 79.01 119.69 76.04 110.76 79.86 103.07 C 82.04 106.44 81.81 110.48 81.81 114.31 C 83.34 114.29 84.88 114.27 86.41 114.25 C 86.35 106.24 85.74 97.56 90.65 90.66 C 95.74 84.30 91.04 75.64 94.42 68.65 C 95.36 70.00 96.28 71.37 97.20 72.74 C 103.24 73.84 109.03 76.03 115.14 76.82 C 108.84 79.60 102.33 76.03 95.92 76.93 C 100.62 78.77 105.65 79.59 110.31 81.56 C 105.79 82.36 101.25 81.60 96.73 81.22 C 95.66 87.24 100.55 91.52 102.15 96.88 C 104.04 102.47 103.37 108.45 103.41 114.25 C 104.98 114.29 106.54 114.31 108.11 114.35 C 108.10 110.53 107.86 106.50 110.01 103.12 C 113.65 111.02 110.66 120.11 112.35 128.47 C 127.73 121.24 136.37 102.56 131.90 86.15 C 127.95 69.42 111.21 56.80 93.98 58.11 C 72.98 58.24 55.49 79.10 58.62 99.80 M 92.96 98.22 C 93.64 98.89 94.32 99.56 95.01 100.23 C 95.63 99.58 96.26 98.93 96.90 98.28 C 96.41 97.81 95.43 96.85 94.94 96.37 C 94.45 96.84 93.46 97.76 92.96 98.22 M 86.32 118.45 C 84.83 122.23 84.75 126.31 84.79 130.32 C 85.70 130.33 87.54 130.35 88.45 130.37 C 88.60 126.29 88.87 121.93 86.32 118.45 M 101.64 130.25 C 102.52 130.26 104.29 130.28 105.18 130.29 C 105.25 126.33 105.27 122.25 103.51 118.60 C 101.23 122.08 101.52 126.28 101.64 130.25 M 93.23 130.34 C 94.39 130.33 95.55 130.33 96.71 130.34 C 96.81 126.35 97.03 122.18 94.92 118.60 C 92.84 122.19 93.09 126.36 93.23 130.34 Z" />
</g>
</svg>
