<?xml version="1.0" encoding="UTF-8" ?>
<!DOCTYPE svg PUBLIC "-//W3C//DTD SVG 1.1//EN" "http://www.w3.org/Graphics/SVG/1.1/DTD/svg11.dtd">
<svg width="192pt" height="192pt" viewBox="0 0 192 192" version="1.1" xmlns="http://www.w3.org/2000/svg">
<g id="#ff527eff">
<path fill="#ff527e" opacity="1.00" d=" M 21.08 44.96 C 21.14 29.21 35.13 14.70 51.03 14.77 C 86.35 14.70 121.67 14.74 156.99 14.74 C 164.99 14.31 173.65 23.75 169.49 31.41 C 165.51 36.40 158.41 31.85 158.86 26.22 C 122.55 26.19 86.23 26.14 49.92 26.24 C 40.44 26.17 32.56 34.71 32.48 44.01 C 32.32 72.04 32.49 100.08 32.40 128.11 C 36.85 125.55 41.79 123.60 47.02 123.74 C 83.35 123.70 119.68 123.76 156.02 123.71 C 157.59 123.92 159.44 122.77 159.27 121.02 C 159.50 97.07 159.10 73.10 159.48 49.16 C 159.96 42.59 171.05 43.44 170.63 49.98 C 170.71 74.27 170.80 98.58 170.60 122.86 C 170.28 130.76 162.24 135.44 154.98 135.25 C 118.63 135.11 82.28 135.18 45.93 135.24 C 38.06 134.82 31.60 142.36 32.43 150.02 C 32.35 157.27 38.68 163.73 46.02 163.38 C 85.63 163.47 125.26 163.28 164.86 163.43 C 171.36 163.04 172.89 172.89 166.71 174.61 C 133.49 175.22 100.23 174.27 67.01 174.76 C 58.62 174.98 50.10 176.24 41.81 174.37 C 30.35 171.73 20.99 160.96 21.03 149.03 C 21.07 114.34 21.03 79.65 21.08 44.96 Z" />
<path fill="#ff527e" opacity="1.00" d=" M 69.94 49.87 C 70.59 45.99 75.05 46.48 78.00 46.48 C 80.95 46.58 85.50 45.79 86.35 49.65 C 91.34 66.10 96.31 82.58 101.12 99.08 C 102.14 103.24 96.38 102.00 93.95 102.15 C 87.99 102.86 88.71 95.45 87.07 91.66 C 81.33 91.64 75.59 91.65 69.85 91.65 C 68.95 94.79 68.32 98.03 67.05 101.05 C 63.51 103.11 59.06 101.99 55.20 101.62 C 58.69 84.09 65.23 67.16 69.94 49.87 M 78.31 60.65 C 76.35 67.92 74.31 75.16 72.32 82.42 C 76.41 82.48 80.50 82.49 84.59 82.45 C 82.43 75.20 81.03 67.70 78.31 60.65 Z" />
<path fill="#ff527e" opacity="1.00" d=" M 113.54 58.53 C 119.72 57.26 126.27 57.23 132.44 58.57 C 137.16 59.54 139.79 64.40 139.73 68.93 C 139.89 78.64 139.77 88.36 139.80 98.08 C 140.59 103.98 130.78 103.37 128.66 99.44 C 123.84 104.23 115.83 103.03 110.01 100.98 C 103.45 97.16 104.11 87.55 106.31 81.35 C 110.99 73.91 121.15 76.57 128.51 76.02 C 128.18 73.06 129.57 69.15 126.97 66.96 C 122.36 64.89 116.43 66.71 116.43 72.47 C 113.25 72.56 109.97 73.10 106.87 72.17 C 104.38 67.05 107.70 59.61 113.54 58.53 M 116.84 85.78 C 114.29 90.27 117.82 95.55 123.06 94.04 C 129.07 95.01 128.93 88.33 128.50 84.25 C 124.70 84.71 119.93 82.96 116.84 85.78 Z" />
<path fill="#ff527e" opacity="1.00" d=" M 65.39 143.56 C 92.59 143.09 119.84 143.56 147.06 143.30 C 150.57 142.79 154.53 145.15 154.49 149.00 C 154.79 152.98 150.66 155.51 147.06 155.11 C 121.37 155.03 95.68 154.64 69.99 154.79 C 66.89 154.78 62.83 154.96 61.20 151.71 C 59.21 148.45 61.63 143.87 65.39 143.56 Z" />
</g>
</svg>
