<?xml version="1.0" encoding="UTF-8" ?>
<!DOCTYPE svg PUBLIC "-//W3C//DTD SVG 1.1//EN" "http://www.w3.org/Graphics/SVG/1.1/DTD/svg11.dtd">
<svg width="192pt" height="192pt" viewBox="0 0 192 192" version="1.1" xmlns="http://www.w3.org/2000/svg">
<g id="#ff643bff">
<path fill="#ff643b" opacity="1.00" d=" M 87.30 12.37 C 102.48 9.59 118.80 15.51 128.70 27.33 C 139.66 39.78 142.53 58.58 135.78 73.74 C 129.11 89.74 112.34 100.84 94.99 100.63 C 77.66 100.90 60.89 89.83 54.17 73.88 C 49.04 62.23 49.27 48.37 54.87 36.93 C 60.92 24.18 73.38 14.72 87.30 12.37 M 89.37 23.46 C 75.29 25.62 63.62 37.82 62.00 51.96 C 59.63 67.76 70.49 84.08 85.92 88.12 C 99.88 92.31 115.94 85.87 123.33 73.35 C 130.68 61.56 129.44 45.20 120.25 34.75 C 112.88 25.83 100.74 21.53 89.37 23.46 Z" />
<path fill="#ff643b" opacity="1.00" d=" M 32.04 103.94 C 26.47 99.34 34.19 90.69 39.59 95.47 C 72.95 115.05 117.27 116.82 150.08 95.13 C 155.44 90.95 162.23 99.79 156.95 103.93 C 142.32 114.24 124.64 119.70 106.95 121.63 C 121.64 136.74 136.87 151.33 151.49 166.49 C 155.59 171.50 147.72 178.63 143.15 173.86 C 127.02 158.00 111.20 141.83 95.09 125.95 C 79.02 141.91 63.13 158.05 46.99 173.94 C 42.60 178.50 34.88 171.62 38.70 166.65 C 53.28 151.35 68.73 136.84 83.33 121.55 C 65.29 119.25 47.59 113.39 32.04 103.94 Z" />
</g>
</svg>
