<?xml version="1.0" encoding="UTF-8" ?>
<!DOCTYPE svg PUBLIC "-//W3C//DTD SVG 1.1//EN" "http://www.w3.org/Graphics/SVG/1.1/DTD/svg11.dtd">
<svg width="192pt" height="192pt" viewBox="0 0 192 192" version="1.1" xmlns="http://www.w3.org/2000/svg">
<g id="#ff643bff">
<path fill="#ff643b" opacity="1.00" d=" M 54.37 23.57 C 50.82 18.89 57.48 12.25 62.16 15.91 C 73.79 26.99 84.95 38.59 96.41 49.86 C 107.96 38.62 119.08 26.91 130.77 15.82 C 135.78 12.11 142.52 19.67 138.10 24.14 C 126.26 36.28 114.08 48.10 102.16 60.17 C 100.50 61.85 98.62 63.82 96.02 63.50 C 76.32 63.60 56.63 63.51 36.93 63.53 C 31.87 63.24 27.06 67.81 27.38 72.94 C 27.37 100.29 27.36 127.65 27.38 155.00 C 27.19 160.07 31.95 164.55 36.98 164.25 C 76.66 164.26 116.34 164.29 156.02 164.22 C 161.05 164.49 165.64 160.02 165.54 154.99 C 165.58 127.66 165.57 100.33 165.55 73.00 C 165.76 68.20 161.62 63.73 156.82 63.58 C 145.22 63.38 133.59 63.81 122.00 63.37 C 116.35 62.27 116.44 53.29 122.14 52.37 C 133.78 52.14 145.43 52.30 157.07 52.28 C 167.79 52.42 177.20 62.21 176.83 72.94 C 176.87 100.32 176.89 127.69 176.83 155.07 C 177.09 165.77 167.64 175.40 156.97 175.52 C 116.66 175.58 76.34 175.56 36.03 175.51 C 25.31 175.46 15.86 165.80 16.06 155.07 C 16.05 127.35 16.00 99.63 16.10 71.91 C 16.27 61.52 25.54 52.34 35.93 52.30 C 51.56 52.23 67.18 52.34 82.81 52.24 C 73.36 42.65 63.56 33.38 54.37 23.57 Z" />
</g>
</svg>
