<?xml version="1.0" encoding="UTF-8" ?>
<!DOCTYPE svg PUBLIC "-//W3C//DTD SVG 1.1//EN" "http://www.w3.org/Graphics/SVG/1.1/DTD/svg11.dtd">
<svg width="192pt" height="192pt" viewBox="0 0 192 192" version="1.1" xmlns="http://www.w3.org/2000/svg">
<g id="#ff595eff">
<path fill="#ff595e" opacity="1.00" d=" M 55.37 39.48 C 68.88 36.34 81.90 42.37 95.00 44.36 C 106.43 43.36 117.27 37.76 128.98 38.71 C 144.85 38.91 158.12 50.50 164.83 64.19 C 175.05 83.18 180.27 105.60 176.15 127.02 C 173.91 138.97 164.50 150.06 152.00 151.48 C 139.65 152.70 129.62 144.05 118.38 140.59 C 100.99 134.19 81.30 135.76 64.66 143.64 C 55.73 147.88 46.28 153.30 36.00 151.21 C 24.54 149.53 17.39 138.52 15.07 127.98 C 9.80 104.80 16.15 80.24 28.19 60.18 C 34.11 50.13 43.74 41.87 55.37 39.48 M 57.39 50.57 C 49.22 52.34 42.60 58.29 38.33 65.28 C 28.98 80.33 23.56 98.16 24.59 115.97 C 25.36 124.14 26.87 133.87 34.22 138.79 C 42.11 142.89 50.48 137.87 57.61 134.50 C 77.38 124.46 101.17 122.29 122.12 129.93 C 130.73 132.55 138.25 137.96 147.02 140.09 C 156.15 141.74 163.54 133.29 165.03 124.97 C 168.59 106.72 164.23 87.60 155.81 71.27 C 150.83 60.70 141.62 50.21 129.04 50.10 C 115.33 48.75 102.72 58.11 89.04 54.96 C 78.71 52.40 68.18 48.58 57.39 50.57 Z" />
<path fill="#ff595e" opacity="1.00" d=" M 59.52 79.56 C 61.09 75.16 67.95 74.98 69.77 79.27 C 70.82 82.51 70.28 86.03 70.37 89.39 C 73.55 89.41 76.77 89.13 79.91 89.73 C 84.31 91.05 84.96 97.78 80.87 99.91 C 77.60 101.29 73.85 100.45 70.39 100.64 C 70.39 105.29 71.74 113.50 64.99 113.88 C 57.88 114.07 58.97 105.43 59.09 100.65 C 55.71 100.52 52.13 101.16 48.88 100.06 C 44.80 98.17 44.85 91.71 48.99 89.93 C 52.25 88.94 55.75 89.51 59.10 89.40 C 59.19 86.13 58.77 82.77 59.52 79.56 Z" />
<path fill="#ff595e" opacity="1.00" d=" M 124.33 81.40 C 133.96 77.82 145.12 86.82 143.36 97.01 C 142.23 107.70 127.93 113.29 119.86 106.16 C 111.16 99.74 113.85 84.31 124.33 81.40 Z" />
</g>
</svg>
