<?xml version="1.0" encoding="UTF-8" ?>
<!DOCTYPE svg PUBLIC "-//W3C//DTD SVG 1.1//EN" "http://www.w3.org/Graphics/SVG/1.1/DTD/svg11.dtd">
<svg width="192pt" height="192pt" viewBox="0 0 192 192" version="1.1" xmlns="http://www.w3.org/2000/svg">
<g id="#486ebeff">
<path fill="#486ebe" opacity="1.00" d=" M 14.87 43.16 C 10.10 33.54 20.66 21.47 30.84 25.10 C 51.95 32.88 72.90 41.14 93.94 49.14 C 94.94 49.55 96.06 49.69 97.07 49.20 C 118.42 41.18 139.64 32.77 161.07 24.98 C 171.45 21.54 181.77 34.05 176.65 43.61 C 170.76 53.93 164.13 63.82 158.03 74.03 C 156.71 75.92 155.70 78.40 153.42 79.31 C 143.71 81.96 133.29 82.33 123.84 85.55 C 116.05 111.69 108.91 138.04 101.19 164.20 C 100.04 169.33 91.90 169.55 90.57 164.43 C 82.95 138.28 75.82 111.98 68.26 85.82 C 58.62 83.72 48.93 81.81 39.30 79.62 C 36.73 79.27 35.33 76.97 34.11 74.95 C 27.84 64.27 20.87 53.99 14.87 43.16 M 25.17 36.17 C 25.18 37.74 25.31 39.37 26.26 40.68 C 31.59 49.36 37.00 57.99 42.27 66.71 C 43.03 67.94 43.89 69.34 45.50 69.44 C 54.88 71.48 64.31 73.33 73.67 75.45 C 76.22 75.83 77.98 77.96 78.51 80.39 C 84.31 100.78 89.97 121.22 95.86 141.59 C 101.92 120.97 107.71 100.26 113.65 79.60 C 114.19 77.23 115.76 74.92 118.33 74.53 C 128.12 72.54 137.98 70.90 147.78 68.96 C 154.09 58.65 160.69 48.51 166.77 38.06 C 166.52 37.54 166.02 36.51 165.77 36.00 C 163.09 36.23 160.51 37.01 158.05 38.09 C 138.54 45.61 118.96 52.93 99.45 60.45 C 97.45 61.22 95.23 61.94 93.17 60.92 C 72.19 52.92 51.22 44.86 30.26 36.78 C 28.64 36.15 26.88 36.24 25.17 36.17 Z" />
</g>
</svg>
