<?xml version="1.0" encoding="UTF-8" ?>
<!DOCTYPE svg PUBLIC "-//W3C//DTD SVG 1.1//EN" "http://www.w3.org/Graphics/SVG/1.1/DTD/svg11.dtd">
<svg width="192pt" height="192pt" viewBox="0 0 192 192" version="1.1" xmlns="http://www.w3.org/2000/svg">
<g id="#44c2daff">
<path fill="#44c2da" opacity="1.00" d=" M 40.24 21.31 C 75.74 19.96 111.42 21.11 146.99 20.73 C 159.55 20.20 171.03 31.39 170.81 43.96 C 170.87 77.99 170.86 112.01 170.82 146.03 C 171.15 158.31 160.34 169.43 148.07 169.50 C 113.69 169.57 79.31 169.56 44.94 169.51 C 32.60 169.49 21.78 158.35 22.05 146.02 C 22.03 112.00 22.00 77.98 22.06 43.96 C 21.96 33.40 29.96 23.57 40.24 21.31 M 42.26 32.34 C 37.22 33.76 33.18 38.59 33.28 43.93 C 33.24 77.97 33.27 112.02 33.27 146.07 C 33.06 152.42 38.66 158.27 45.02 158.30 C 79.01 158.37 113.00 158.31 146.98 158.33 C 153.68 158.71 159.82 152.78 159.67 146.08 C 159.70 112.03 159.72 77.97 159.65 43.92 C 159.72 36.87 152.86 31.20 145.99 31.81 C 111.43 32.18 76.75 31.14 42.26 32.34 Z" />
<path fill="#44c2da" opacity="1.00" d=" M 54.79 61.21 C 50.55 56.78 57.01 49.20 62.03 52.88 C 73.85 63.91 84.81 75.89 96.61 86.95 C 107.79 75.65 118.98 64.33 130.37 53.24 C 135.14 48.85 142.64 56.45 138.14 61.16 C 127.08 72.57 115.63 83.62 104.51 94.98 C 115.70 106.61 127.52 117.65 138.55 129.41 C 142.20 134.38 134.87 140.75 130.36 136.77 C 118.82 125.73 107.87 114.05 96.29 103.06 C 85.12 114.33 73.94 125.60 62.61 136.71 C 58.08 140.85 50.79 134.36 54.33 129.39 C 65.36 117.65 77.18 106.63 88.34 94.99 C 77.28 83.61 65.80 72.63 54.79 61.21 Z" />
</g>
</svg>
