<?xml version="1.0" encoding="UTF-8" ?>
<!DOCTYPE svg PUBLIC "-//W3C//DTD SVG 1.1//EN" "http://www.w3.org/Graphics/SVG/1.1/DTD/svg11.dtd">
<svg width="192pt" height="192pt" viewBox="0 0 192 192" version="1.1" xmlns="http://www.w3.org/2000/svg">
<g id="#1bb3ffff">
<path fill="#1bb3ff" opacity="1.00" d=" M 82.35 40.44 C 105.03 36.67 129.48 48.70 139.40 69.63 C 141.44 72.76 141.46 78.35 146.10 78.75 C 157.60 80.70 168.47 87.67 173.60 98.37 C 185.46 118.92 171.34 148.21 147.84 151.50 C 113.57 151.63 79.28 151.48 45.01 151.54 C 28.30 153.37 13.76 137.15 14.14 121.03 C 13.14 107.99 22.37 95.74 34.30 91.20 C 37.95 90.25 37.30 85.89 38.09 83.02 C 41.86 61.36 60.62 43.48 82.35 40.44 M 74.97 55.97 C 57.64 63.15 47.42 82.81 50.79 101.19 C 47.02 103.23 42.45 101.68 38.62 103.66 C 29.98 106.87 25.35 117.21 27.94 125.91 C 30.07 133.75 37.88 139.52 46.01 139.22 C 78.01 139.31 110.01 139.26 142.00 139.09 C 158.31 138.86 169.97 119.32 162.14 104.91 C 155.27 90.08 133.08 86.96 122.48 99.48 C 118.46 105.38 108.10 101.02 109.75 93.99 C 112.54 85.51 122.00 82.59 128.79 78.13 C 125.91 72.10 122.09 66.42 116.96 62.07 C 105.64 52.28 88.64 50.57 74.97 55.97 Z" />
</g>
</svg>
