<?xml version="1.0" encoding="UTF-8" ?>
<!DOCTYPE svg PUBLIC "-//W3C//DTD SVG 1.1//EN" "http://www.w3.org/Graphics/SVG/1.1/DTD/svg11.dtd">
<svg width="192pt" height="192pt" viewBox="0 0 192 192" version="1.1" xmlns="http://www.w3.org/2000/svg">
<g id="#ff3662ff">
<path fill="#ff3662" opacity="1.00" d=" M 42.42 21.53 C 76.95 21.09 111.51 21.46 146.05 21.34 C 157.74 20.86 168.72 30.30 169.89 41.96 C 170.22 47.27 170.31 52.64 169.88 57.95 C 168.97 63.04 161.04 63.60 159.39 58.70 C 158.28 53.25 159.59 47.59 158.62 42.10 C 157.49 36.78 152.44 32.56 146.98 32.56 C 112.99 32.53 79.00 32.54 45.02 32.55 C 39.18 32.47 33.81 37.23 33.02 42.98 C 32.45 47.93 33.20 52.93 32.65 57.89 C 32.09 61.74 26.85 63.62 23.92 61.06 C 21.34 59.22 21.71 55.78 21.69 53.00 C 21.83 47.70 21.20 42.20 23.07 37.11 C 25.86 28.80 33.69 22.47 42.42 21.53 Z" />
<path fill="#ff3662" opacity="1.00" d=" M 40.40 70.48 C 53.02 68.31 66.33 76.97 69.67 89.29 C 73.01 101.05 66.27 114.42 55.10 119.18 C 39.47 127.11 18.91 114.36 18.63 96.97 C 18.14 84.40 27.98 72.45 40.40 70.48 M 40.34 82.43 C 30.69 85.01 27.42 98.58 34.56 105.44 C 41.59 112.95 56.10 109.28 58.08 98.97 C 60.88 88.95 50.19 78.74 40.34 82.43 Z" />
<path fill="#ff3662" opacity="1.00" d=" M 77.95 75.97 C 77.89 70.92 84.61 67.77 88.02 71.92 C 100.32 85.27 112.89 98.46 124.83 112.14 C 128.82 117.05 121.68 124.38 116.77 120.19 C 107.55 111.05 98.92 101.28 89.87 91.94 C 89.34 100.41 90.26 108.93 89.38 117.36 C 87.84 123.43 78.07 122.31 77.99 116.04 C 77.77 102.69 77.80 89.31 77.95 75.97 Z" />
<path fill="#ff3662" opacity="1.00" d=" M 118.36 70.48 C 123.56 69.63 126.30 75.57 125.82 79.95 C 125.34 84.99 127.25 91.34 123.28 95.31 C 118.91 98.99 112.63 94.31 113.36 89.08 C 113.80 83.00 110.81 73.08 118.36 70.48 Z" />
<path fill="#ff3662" opacity="1.00" d=" M 134.72 76.99 C 134.44 73.52 137.23 69.74 140.91 70.00 C 151.63 70.00 162.35 69.98 173.07 70.02 C 173.19 74.00 174.23 79.73 169.35 81.32 C 162.03 82.60 154.44 80.97 147.06 82.26 C 146.50 84.73 146.42 87.27 147.02 89.74 C 153.64 90.10 160.33 89.27 166.90 90.19 C 172.50 91.50 172.22 100.35 166.60 101.41 C 160.02 102.06 153.37 101.39 146.76 101.76 C 146.64 104.30 146.62 106.85 146.69 109.39 C 154.12 110.00 161.67 108.72 169.03 109.93 C 174.10 111.43 173.27 117.35 173.16 121.45 C 162.44 121.64 151.72 121.55 141.00 121.52 C 136.98 121.87 134.37 117.63 134.69 114.00 C 134.80 101.67 134.74 89.33 134.72 76.99 Z" />
<path fill="#ff3662" opacity="1.00" d=" M 26.41 129.42 C 34.51 128.77 32.87 138.77 32.81 143.99 C 31.69 151.30 37.25 159.07 44.92 158.97 C 78.63 159.04 112.34 158.98 146.05 159.00 C 151.49 159.28 156.80 155.59 158.38 150.37 C 159.90 144.49 158.02 138.24 159.51 132.39 C 161.36 127.89 168.57 128.38 169.80 133.08 C 170.39 138.38 170.16 143.76 169.94 149.08 C 169.07 160.62 158.53 170.21 146.99 170.21 C 113.34 170.32 79.68 170.23 46.02 170.25 C 37.20 170.47 28.43 165.52 24.42 157.60 C 20.77 150.99 21.85 143.22 21.73 135.99 C 21.41 133.01 23.30 129.83 26.41 129.42 Z" />
</g>
</svg>
