<?xml version="1.0" encoding="UTF-8" ?>
<!DOCTYPE svg PUBLIC "-//W3C//DTD SVG 1.1//EN" "http://www.w3.org/Graphics/SVG/1.1/DTD/svg11.dtd">
<svg width="192pt" height="192pt" viewBox="0 0 192 192" version="1.1" xmlns="http://www.w3.org/2000/svg">
<g id="#669ccaff">
<path fill="#669cca" opacity="1.00" d=" M 39.25 21.34 C 43.11 20.48 47.08 20.68 51.00 20.67 C 82.98 20.71 114.97 20.57 146.95 20.72 C 159.21 20.69 170.06 31.72 169.87 43.97 C 169.84 77.65 170.06 111.33 169.99 145.00 C 170.49 157.62 159.71 169.34 146.97 169.31 C 114.65 169.35 82.32 169.37 50.00 169.28 C 47.10 169.62 45.44 165.53 47.68 163.70 C 60.62 150.63 73.44 137.43 86.47 124.46 C 91.03 119.84 99.14 126.23 95.95 131.81 C 89.41 140.24 81.24 147.24 73.91 154.96 C 72.18 156.31 74.11 158.64 75.97 158.04 C 99.31 158.12 122.66 158.04 146.01 158.04 C 152.55 158.38 158.67 152.67 158.62 146.08 C 158.69 112.03 158.69 77.97 158.63 43.92 C 158.70 37.30 152.57 31.59 146.00 31.91 C 112.33 31.81 78.66 31.83 45.00 31.84 C 38.44 31.59 32.28 37.30 32.40 43.93 C 32.36 66.97 32.36 90.01 32.41 113.05 C 31.83 114.94 34.50 116.51 35.70 114.84 C 43.10 107.88 49.94 100.29 57.44 93.45 C 62.49 89.60 69.69 96.67 65.96 101.81 C 53.35 114.90 40.30 127.58 27.47 140.47 C 25.55 143.03 20.92 141.27 21.25 138.06 C 21.18 106.70 21.24 75.33 21.25 43.97 C 21.08 33.46 29.03 23.62 39.25 21.34 Z" />
<path fill="#669cca" opacity="1.00" d=" M 90.50 61.72 C 100.54 60.08 111.34 63.16 118.63 70.37 C 128.62 79.74 131.51 95.91 125.12 108.08 C 122.23 113.89 117.34 118.30 112.81 122.81 C 110.88 125.08 107.22 124.93 105.40 122.61 C 92.77 109.92 80.17 97.20 67.56 84.49 C 65.56 82.82 64.57 79.58 66.52 77.49 C 73.08 70.48 80.52 63.10 90.50 61.72 M 83.79 76.90 C 81.61 81.23 87.16 84.19 89.86 86.64 C 95.08 82.48 104.00 85.04 104.99 91.96 C 106.20 95.03 103.33 97.75 103.46 100.56 C 105.87 102.99 108.85 108.46 112.85 105.94 C 121.10 96.14 116.52 79.08 104.61 74.51 C 97.93 71.49 89.43 71.98 83.79 76.90 Z" />
<path fill="#669cca" opacity="1.00" d=" M 73.38 108.56 C 79.63 106.04 85.66 114.93 80.66 119.64 C 64.50 135.80 48.38 152.04 31.99 167.96 C 25.95 172.96 17.60 163.45 23.00 158.00 C 38.20 142.54 53.69 127.35 68.95 111.95 C 70.29 110.67 71.58 109.19 73.38 108.56 Z" />
</g>
</svg>
