<?xml version="1.0" encoding="UTF-8" ?>
<!DOCTYPE svg PUBLIC "-//W3C//DTD SVG 1.1//EN" "http://www.w3.org/Graphics/SVG/1.1/DTD/svg11.dtd">
<svg width="192pt" height="192pt" viewBox="0 0 192 192" version="1.1" xmlns="http://www.w3.org/2000/svg">
<g id="#617080ff">
<path fill="#617080" opacity="1.00" d=" M 64.74 37.71 C 70.64 24.86 84.98 16.55 99.08 18.06 C 115.48 19.29 129.34 33.73 130.40 50.05 C 130.76 61.36 130.47 72.69 130.49 84.01 C 130.79 87.53 127.51 90.61 124.03 90.28 C 99.86 90.46 75.68 90.04 51.52 90.48 C 51.35 114.20 51.51 137.92 51.45 161.64 C 80.98 162.70 110.66 161.94 140.24 162.00 C 140.79 138.33 140.40 114.64 140.44 90.96 C 135.19 90.74 130.61 84.37 135.23 80.25 C 142.22 75.68 151.91 83.16 151.81 90.92 C 151.93 114.30 151.89 137.69 151.83 161.07 C 151.97 167.82 145.77 173.76 139.07 173.57 C 110.36 173.60 81.65 173.59 52.94 173.56 C 46.16 173.82 40.12 167.82 40.08 161.09 C 39.99 138.04 40.06 114.98 40.06 91.93 C 39.72 84.92 45.94 78.55 52.99 78.81 C 75.01 78.76 97.03 78.84 119.05 78.77 C 119.11 69.50 119.23 60.22 119.01 50.95 C 118.55 39.18 107.75 29.11 96.00 29.38 C 85.75 29.15 76.16 36.75 73.68 46.63 C 71.86 52.32 73.50 58.39 72.29 64.13 C 70.28 69.17 62.09 68.01 61.55 62.63 C 61.15 54.26 60.88 45.41 64.74 37.71 Z" />
</g>
</svg>
