<?xml version="1.0" encoding="UTF-8" ?>
<!DOCTYPE svg PUBLIC "-//W3C//DTD SVG 1.1//EN" "http://www.w3.org/Graphics/SVG/1.1/DTD/svg11.dtd">
<svg width="192pt" height="192pt" viewBox="0 0 192 192" version="1.1" xmlns="http://www.w3.org/2000/svg">
<g id="#42e273ff">
<path fill="#42e273" opacity="1.00" d=" M 112.37 10.52 C 121.80 6.88 131.78 17.71 127.99 26.87 C 125.17 35.30 112.83 37.70 107.05 30.95 C 100.88 24.77 103.74 12.75 112.37 10.52 Z" />
<path fill="#42e273" opacity="1.00" d=" M 41.25 40.23 C 45.65 37.44 51.08 38.37 56.00 38.27 C 78.69 38.16 101.38 38.24 124.06 38.15 C 127.19 38.05 130.35 39.19 132.52 41.49 C 142.01 50.99 151.53 60.46 160.98 69.99 C 164.39 73.19 164.64 78.89 161.26 82.21 C 155.36 88.33 149.23 94.24 143.17 100.21 C 140.17 103.46 133.99 101.47 133.62 97.00 C 132.99 93.83 135.73 91.68 137.71 89.71 C 142.17 85.17 146.91 80.88 151.16 76.13 C 142.32 67.22 133.46 58.33 124.53 49.53 C 99.08 49.40 73.62 49.49 48.17 49.55 C 43.38 51.13 41.40 57.04 36.74 58.78 C 32.06 60.33 27.64 54.47 30.49 50.43 C 33.66 46.65 37.10 42.96 41.25 40.23 Z" />
<path fill="#42e273" opacity="1.00" d=" M 85.22 54.12 C 89.71 50.97 95.91 56.57 93.33 61.40 C 89.66 65.90 85.12 69.63 81.20 73.93 C 86.01 78.57 90.52 84.15 95.78 87.93 C 105.12 78.89 114.06 69.41 123.53 60.51 C 128.55 56.93 135.09 64.35 130.89 68.87 C 120.93 78.93 110.94 88.97 100.82 98.86 C 98.24 101.49 94.59 101.28 91.36 100.24 C 72.55 119.14 53.69 138.00 34.74 156.76 C 30.22 161.62 22.17 154.46 26.32 149.40 C 45.02 130.05 64.69 111.58 83.20 92.07 C 81.28 90.03 79.29 88.06 77.25 86.16 C 66.96 96.22 56.98 106.63 46.55 116.54 C 41.84 120.31 35.01 113.45 38.75 108.72 C 48.75 98.24 59.31 88.29 69.38 77.87 C 68.02 74.82 68.03 71.02 70.61 68.59 C 75.41 63.70 80.17 58.74 85.22 54.12 Z" />
<path fill="#42e273" opacity="1.00" d=" M 81.43 140.67 C 91.78 138.09 102.86 146.48 103.50 157.04 C 104.47 167.22 95.29 177.06 85.02 176.53 C 76.03 176.60 67.65 169.13 67.05 160.09 C 66.05 151.18 72.64 142.34 81.43 140.67 M 82.27 152.22 C 77.69 154.07 76.88 161.19 81.10 163.89 C 84.60 166.71 90.27 164.95 91.72 160.75 C 94.11 155.39 87.38 149.32 82.27 152.22 Z" />
</g>
</svg>
