<?xml version="1.0" encoding="UTF-8" ?>
<!DOCTYPE svg PUBLIC "-//W3C//DTD SVG 1.1//EN" "http://www.w3.org/Graphics/SVG/1.1/DTD/svg11.dtd">
<svg width="192pt" height="192pt" viewBox="0 0 192 192" version="1.1" xmlns="http://www.w3.org/2000/svg">
<g id="#fa325eff">
<path fill="#fa325e" opacity="1.00" d=" M 86.64 16.63 C 92.52 12.96 100.39 13.06 106.20 16.81 C 124.17 27.52 142.29 37.99 160.16 48.86 C 163.97 51.28 168.75 57.20 164.06 61.08 C 144.61 72.28 124.82 82.94 105.24 93.93 C 124.71 106.15 144.49 117.88 163.95 130.09 C 168.79 133.84 164.15 139.92 160.19 142.17 C 142.20 152.91 124.13 163.52 106.09 174.17 C 100.33 177.68 92.70 177.58 87.00 173.99 C 69.40 163.58 51.78 153.21 34.20 142.76 C 28.74 139.56 25.07 133.44 25.13 127.07 C 25.09 106.04 25.13 85.00 25.12 63.96 C 24.95 57.59 28.22 51.05 33.85 47.89 C 51.45 37.48 69.04 27.04 86.64 16.63 M 92.39 26.37 C 75.84 36.14 59.29 45.89 42.77 55.69 C 59.83 66.29 76.98 76.73 94.12 87.20 C 112.87 76.92 131.52 66.46 150.16 55.99 C 133.61 46.10 116.98 36.33 100.38 26.52 C 98.02 24.93 94.79 24.79 92.39 26.37 M 36.33 65.03 C 36.38 85.69 36.28 106.35 36.38 127.01 C 36.26 129.81 38.23 132.15 40.56 133.45 C 57.94 143.71 75.31 153.99 92.69 164.24 C 95.45 166.21 99.08 165.55 101.70 163.68 C 117.78 153.95 134.23 144.78 150.14 134.77 C 112.20 111.54 74.26 88.29 36.33 65.03 Z" />
</g>
</svg>
