<?xml version="1.0" encoding="UTF-8" ?>
<!DOCTYPE svg PUBLIC "-//W3C//DTD SVG 1.1//EN" "http://www.w3.org/Graphics/SVG/1.1/DTD/svg11.dtd">
<svg width="192pt" height="192pt" viewBox="0 0 192 192" version="1.1" xmlns="http://www.w3.org/2000/svg">
<g id="#24a5e9ff">
<path fill="#24a5e9" opacity="1.00" d=" M 48.37 39.45 C 71.17 37.87 94.13 39.13 117.00 38.79 C 128.53 39.22 140.87 36.96 151.56 42.49 C 164.12 48.80 171.27 62.21 174.55 75.37 C 179.25 95.91 178.74 117.88 172.04 137.93 C 169.45 145.39 163.22 154.43 154.06 151.91 C 138.82 150.27 129.89 136.86 120.76 126.22 C 117.78 123.01 115.12 118.07 110.08 118.30 C 101.06 118.15 92.02 118.34 82.99 118.17 C 80.59 118.28 77.67 117.80 75.93 119.89 C 70.13 125.79 64.94 132.30 59.07 138.12 C 54.25 141.36 48.25 135.10 51.08 130.24 C 54.70 125.23 59.58 121.27 63.55 116.53 C 67.46 112.24 71.64 106.94 78.00 106.82 C 88.66 106.61 99.33 106.93 109.99 106.69 C 114.38 106.49 118.94 107.74 122.07 110.97 C 129.44 118.28 135.84 126.51 143.00 134.02 C 146.76 137.93 152.04 140.79 157.58 140.59 C 161.93 134.65 163.28 127.01 164.69 119.90 C 167.24 103.37 166.79 85.91 160.84 70.13 C 156.96 59.74 147.85 50.18 136.07 50.27 C 108.69 50.32 81.30 50.03 53.92 50.32 C 42.24 50.53 33.53 60.44 29.80 70.72 C 23.17 89.35 23.49 109.90 28.03 128.98 C 29.27 133.00 30.29 137.52 33.41 140.53 C 37.25 141.51 41.33 137.57 44.99 140.07 C 48.79 142.25 48.24 148.65 44.06 150.06 C 39.32 151.84 33.74 153.29 28.88 151.15 C 24.04 148.65 21.15 143.62 19.25 138.71 C 13.80 123.86 12.65 107.75 13.76 92.07 C 14.76 79.40 17.77 66.53 24.78 55.77 C 30.10 47.53 38.61 41.19 48.37 39.45 Z" />
<path fill="#24a5e9" opacity="1.00" d=" M 53.59 68.45 C 55.81 65.25 60.97 65.92 63.74 68.10 C 63.67 71.22 63.68 74.34 63.65 77.46 C 67.28 77.49 71.06 77.04 74.52 78.44 C 75.42 81.42 75.44 84.51 74.48 87.49 C 71.22 88.67 67.73 88.50 64.32 88.34 C 63.98 91.88 65.59 96.78 62.16 99.17 C 59.39 99.71 55.38 100.41 53.65 97.53 C 53.13 94.53 53.41 91.47 53.39 88.44 C 49.89 87.98 45.04 89.95 42.62 86.54 C 42.25 84.09 41.84 81.24 42.99 78.96 C 45.85 76.56 49.96 77.89 53.36 77.60 C 53.36 74.56 53.05 71.47 53.59 68.45 Z" />
<path fill="#24a5e9" opacity="1.00" d=" M 121.32 72.43 C 125.93 71.00 132.05 73.53 131.78 78.98 C 133.08 85.50 124.09 90.13 119.41 85.58 C 114.84 82.25 115.95 74.19 121.32 72.43 Z" />
<path fill="#24a5e9" opacity="1.00" d=" M 139.46 86.56 C 144.29 83.32 151.32 87.31 151.42 92.99 C 151.98 98.90 144.65 103.57 139.61 100.27 C 134.45 97.57 134.30 89.34 139.46 86.56 Z" />
</g>
</svg>
