<?xml version="1.0" encoding="UTF-8" ?>
<!DOCTYPE svg PUBLIC "-//W3C//DTD SVG 1.1//EN" "http://www.w3.org/Graphics/SVG/1.1/DTD/svg11.dtd">
<svg width="192pt" height="192pt" viewBox="0 0 192 192" version="1.1" xmlns="http://www.w3.org/2000/svg">
<g id="#447063ff">
<path fill="#447063" opacity="1.00" d=" M 35.11 36.96 C 34.85 24.70 45.78 13.64 58.04 13.74 C 79.35 13.64 100.66 13.64 121.97 13.74 C 133.79 13.77 144.52 24.08 144.75 35.94 C 144.73 43.20 144.97 50.48 144.63 57.74 C 144.38 60.61 141.38 61.72 139.01 62.42 C 136.63 61.49 133.88 59.94 133.83 57.02 C 133.50 50.01 134.01 42.98 133.63 35.97 C 133.25 29.64 127.24 24.69 121.01 24.87 C 100.34 24.76 79.66 24.73 58.99 24.88 C 52.39 24.56 46.03 30.19 46.28 36.93 C 46.24 75.97 46.27 115.02 46.27 154.06 C 45.90 160.90 52.26 166.81 59.01 166.42 C 79.67 166.42 100.33 166.43 120.99 166.40 C 127.02 166.65 132.88 161.93 133.56 155.87 C 134.16 148.28 133.28 140.64 133.98 133.07 C 135.19 127.78 143.64 127.98 144.61 133.29 C 145.02 140.53 144.71 147.80 144.76 155.06 C 144.77 167.03 133.97 177.57 122.06 177.55 C 100.69 177.59 79.31 177.59 57.95 177.55 C 45.96 177.62 35.25 167.06 35.14 155.07 C 35.02 115.70 35.10 76.33 35.11 36.96 Z" />
<path fill="#447063" opacity="1.00" d=" M 104.76 79.21 C 99.65 77.20 100.50 68.78 106.01 68.09 C 114.33 67.92 122.68 67.93 131.00 68.09 C 136.86 69.29 137.34 77.37 134.69 81.66 C 128.19 92.40 121.75 103.19 115.12 113.85 C 120.67 114.21 126.26 113.65 131.78 114.23 C 137.24 115.61 137.17 124.31 131.65 125.49 C 123.24 125.94 114.76 125.78 106.34 125.57 C 100.62 124.76 100.26 117.29 101.99 113.03 C 108.40 101.79 115.64 91.02 121.86 79.66 C 116.17 79.37 110.37 80.24 104.76 79.21 Z" />
<path fill="#447063" opacity="1.00" d=" M 139.53 70.97 C 139.05 66.75 144.32 67.67 147.00 67.57 C 150.54 67.58 156.78 66.55 156.15 72.02 C 153.89 78.17 149.20 83.12 146.69 89.19 C 149.23 89.31 151.85 89.02 154.34 89.66 C 156.72 90.60 156.25 94.27 153.94 95.01 C 150.00 95.34 146.02 95.32 142.08 95.03 C 139.03 94.49 138.79 90.52 140.17 88.34 C 143.04 83.25 146.31 78.39 149.11 73.26 C 145.99 72.79 140.98 74.80 139.53 70.97 Z" />
</g>
</svg>
