<?xml version="1.0" encoding="UTF-8" ?>
<!DOCTYPE svg PUBLIC "-//W3C//DTD SVG 1.1//EN" "http://www.w3.org/Graphics/SVG/1.1/DTD/svg11.dtd">
<svg width="192pt" height="192pt" viewBox="0 0 192 192" version="1.1" xmlns="http://www.w3.org/2000/svg">
<g id="#45e371ff">
<path fill="#45e371" opacity="1.00" d=" M 84.37 14.45 C 90.45 13.81 96.70 13.25 102.75 14.36 C 107.76 16.06 107.22 24.11 101.97 25.02 C 96.29 25.43 90.55 24.76 84.90 25.73 C 54.83 29.64 29.35 55.00 25.18 85.02 C 19.65 116.82 39.17 150.43 69.34 161.69 C 91.42 170.43 117.84 167.11 136.88 152.86 C 156.24 138.93 167.51 114.76 165.73 90.96 C 164.46 84.46 174.75 82.04 176.57 88.29 C 180.64 121.26 161.17 155.08 131.37 169.37 C 109.33 180.38 82.25 180.57 60.03 169.94 C 36.56 158.93 18.92 136.22 14.45 110.63 C 10.75 90.52 14.74 69.04 25.84 51.82 C 38.61 31.57 60.57 17.38 84.37 14.45 Z" />
<path fill="#45e371" opacity="1.00" d=" M 145.41 17.57 C 159.05 14.87 173.19 26.15 173.59 40.04 C 174.79 53.22 163.28 65.84 150.03 65.71 C 137.42 66.47 125.71 55.66 125.18 43.09 C 124.10 31.04 133.44 19.27 145.41 17.57 M 148.45 28.53 C 140.20 28.85 134.07 38.18 137.15 45.86 C 140.10 55.53 154.53 57.52 159.97 49.00 C 166.53 40.70 158.91 27.26 148.45 28.53 Z" />
<path fill="#45e371" opacity="1.00" d=" M 86.37 59.51 C 102.35 55.38 120.32 63.42 127.94 78.04 C 136.80 93.61 132.08 115.08 117.57 125.56 C 103.99 136.19 83.04 135.40 70.38 123.65 C 59.88 114.61 55.41 99.48 59.06 86.15 C 62.41 73.17 73.29 62.50 86.37 59.51 M 88.38 70.60 C 77.19 73.44 68.71 84.42 69.12 96.01 C 68.89 108.41 78.93 119.84 91.16 121.51 C 106.59 124.36 122.11 110.66 121.13 94.99 C 121.22 78.83 103.87 65.85 88.38 70.60 Z" />
</g>
</svg>
