<?xml version="1.0" encoding="UTF-8" ?>
<!DOCTYPE svg PUBLIC "-//W3C//DTD SVG 1.1//EN" "http://www.w3.org/Graphics/SVG/1.1/DTD/svg11.dtd">
<svg width="192pt" height="192pt" viewBox="0 0 192 192" version="1.1" xmlns="http://www.w3.org/2000/svg">
<g id="#ff3660ff">
<path fill="#ff3660" opacity="1.00" d=" M 140.78 18.67 C 142.49 14.24 149.55 14.36 151.09 18.87 C 152.02 23.19 151.27 27.70 151.54 32.10 C 155.89 32.35 160.33 31.69 164.63 32.47 C 169.19 33.99 169.37 41.17 164.90 42.92 C 160.57 44.02 155.97 43.18 151.53 43.44 C 151.27 47.90 152.09 52.52 151.01 56.88 C 149.19 61.39 141.95 61.08 140.59 56.38 C 139.77 52.09 140.70 47.67 140.02 43.35 C 135.73 43.28 131.32 43.91 127.11 43.00 C 122.35 41.40 122.54 33.84 127.33 32.43 C 131.59 31.76 135.95 32.32 140.25 32.11 C 140.54 27.65 139.68 23.03 140.78 18.67 Z" />
<path fill="#ff3660" opacity="1.00" d=" M 32.47 38.00 C 32.21 34.49 35.47 31.39 38.97 31.81 C 61.65 31.88 84.34 31.64 107.02 31.92 C 113.19 32.40 113.11 42.39 106.97 42.91 C 86.03 43.47 65.03 42.89 44.07 43.19 C 43.51 73.13 43.99 103.09 43.84 133.04 C 43.50 135.32 44.96 137.22 46.94 138.14 C 61.23 146.42 75.43 154.86 89.69 163.18 C 91.30 164.39 93.30 163.90 94.84 162.86 C 108.93 154.58 123.06 146.36 137.21 138.18 C 138.79 137.37 140.24 135.98 140.02 134.04 C 140.29 115.05 139.87 96.04 140.23 77.06 C 140.79 70.86 150.77 70.80 151.37 77.02 C 151.63 98.34 151.51 119.69 151.48 141.01 C 151.78 143.20 149.63 144.22 148.10 145.18 C 130.59 155.29 113.14 165.50 95.71 175.75 C 93.87 176.91 91.55 177.84 89.55 176.44 C 70.86 165.90 52.78 154.30 33.97 143.98 C 32.00 143.16 32.57 140.72 32.41 139.04 C 32.50 105.36 32.40 71.68 32.47 38.00 Z" />
<path fill="#ff3660" opacity="1.00" d=" M 117.61 83.67 C 122.11 80.03 128.32 87.17 124.14 91.16 C 113.30 102.30 102.18 113.19 91.26 124.26 C 89.31 126.74 85.39 127.30 83.21 124.79 C 75.36 116.98 67.45 109.21 59.78 101.23 C 55.64 97.22 61.77 90.17 66.31 93.73 C 73.42 100.30 79.98 107.47 86.99 114.15 C 97.23 104.03 107.20 93.61 117.61 83.67 Z" />
</g>
</svg>
