<?xml version="1.0" encoding="UTF-8" ?>
<!DOCTYPE svg PUBLIC "-//W3C//DTD SVG 1.1//EN" "http://www.w3.org/Graphics/SVG/1.1/DTD/svg11.dtd">
<svg width="192pt" height="192pt" viewBox="0 0 192 192" version="1.1" xmlns="http://www.w3.org/2000/svg">
<g id="#7b6c4fff">
<path fill="#7b6c4f" opacity="1.00" d=" M 97.91 56.14 C 106.42 55.85 113.36 49.51 115.95 41.65 C 120.91 41.20 128.30 41.64 128.71 48.12 C 129.47 73.75 129.01 99.43 129.06 125.08 C 128.97 133.25 118.62 132.31 113.15 131.08 C 103.76 121.13 96.69 109.11 87.82 98.66 C 87.49 107.74 87.86 116.83 87.65 125.90 C 87.87 130.66 81.22 133.42 77.94 130.04 C 75.47 128.16 75.79 124.75 75.73 122.00 C 75.87 109.33 75.60 96.65 75.86 83.98 C 75.72 79.39 80.54 75.48 84.98 76.83 C 88.24 77.53 89.95 80.63 91.88 83.02 C 98.66 91.82 105.18 100.82 112.19 109.45 C 112.39 95.57 112.37 81.69 112.38 67.82 C 107.57 67.75 102.77 67.80 97.96 67.74 C 97.78 63.87 97.79 60.00 97.91 56.14 Z" />
<path fill="#7b6c4f" opacity="1.00" d=" M 141.42 77.42 C 151.32 75.51 161.86 77.01 172.01 76.62 C 178.39 76.35 179.95 86.33 173.95 88.23 C 163.99 88.82 153.96 88.41 143.98 88.45 C 138.40 88.35 136.44 79.99 141.42 77.42 Z" />
<path fill="#7b6c4f" opacity="1.00" d=" M 33.34 79.45 C 49.08 75.19 65.97 88.79 65.49 105.00 C 65.65 116.76 56.93 127.91 45.43 130.46 C 32.53 134.03 17.97 125.64 14.31 112.83 C 9.50 98.88 18.89 82.38 33.34 79.45 M 35.36 90.53 C 28.67 92.22 23.74 99.06 24.39 105.96 C 24.63 113.86 32.13 120.61 40.03 119.88 C 49.44 119.85 56.68 109.35 53.55 100.52 C 51.34 93.01 42.89 88.48 35.36 90.53 Z" />
<path fill="#7b6c4f" opacity="1.00" d=" M 142.32 98.42 C 150.49 97.59 158.78 98.33 167.00 98.05 C 170.04 98.24 173.81 97.31 176.12 99.86 C 179.45 102.93 177.52 109.34 172.93 109.83 C 165.33 110.65 157.64 109.93 150.00 110.21 C 146.48 110.03 141.89 110.76 139.57 107.42 C 137.32 104.43 138.76 99.62 142.32 98.42 Z" />
<path fill="#7b6c4f" opacity="1.00" d=" M 143.41 119.63 C 153.20 119.40 163.03 119.41 172.83 119.63 C 179.16 120.17 179.42 130.59 173.01 131.31 C 163.02 131.54 152.97 131.59 142.98 131.28 C 136.97 130.02 137.21 120.27 143.41 119.63 Z" />
</g>
</svg>
