<?xml version="1.0" encoding="UTF-8" ?>
<!DOCTYPE svg PUBLIC "-//W3C//DTD SVG 1.1//EN" "http://www.w3.org/Graphics/SVG/1.1/DTD/svg11.dtd">
<svg width="192pt" height="192pt" viewBox="0 0 192 192" version="1.1" xmlns="http://www.w3.org/2000/svg">
<g id="#73c17dff">
<path fill="#73c17d" opacity="1.00" d=" M 35.89 21.86 C 37.49 18.30 42.87 17.66 45.19 20.82 C 49.32 26.75 52.19 33.53 56.45 39.35 C 87.96 39.57 119.48 39.30 150.99 39.39 C 153.59 39.16 155.73 40.97 156.82 43.18 C 163.58 55.04 170.52 66.80 177.20 78.71 C 179.11 81.97 176.87 86.71 173.02 87.04 C 166.35 87.27 159.66 87.12 152.98 87.08 C 136.95 114.42 121.32 142.01 105.38 169.41 C 104.33 171.37 102.25 172.72 99.99 172.53 C 86.33 172.58 72.67 172.58 59.01 172.52 C 54.80 173.05 51.39 168.04 53.50 164.35 C 56.61 158.49 60.26 152.93 63.29 147.02 C 47.35 119.20 31.20 91.50 15.25 63.69 C 13.79 61.51 14.30 58.74 15.70 56.68 C 22.47 45.09 29.11 33.43 35.89 21.86 M 40.48 36.33 C 35.85 44.50 30.95 52.54 26.48 60.80 C 40.81 85.21 54.87 109.77 69.12 134.22 C 74.16 126.73 78.26 118.63 82.92 110.89 C 84.13 109.59 82.73 108.17 82.16 106.95 C 68.88 84.14 55.37 61.47 42.58 38.38 C 41.98 37.72 41.67 35.93 40.48 36.33 M 63.00 50.63 C 67.46 59.16 72.54 67.35 77.31 75.71 C 105.60 75.81 133.88 75.33 162.16 75.69 C 157.73 67.29 152.93 59.07 148.01 50.95 C 119.73 50.34 91.33 50.82 63.00 50.63 M 83.86 87.12 C 86.15 91.20 88.49 95.26 90.89 99.28 C 93.33 95.28 95.59 91.17 97.93 87.12 C 93.24 87.15 88.55 87.15 83.86 87.12 M 111.09 87.15 C 96.81 111.76 82.39 136.33 68.54 161.18 C 78.04 161.34 87.54 161.28 97.04 161.20 C 111.32 136.56 125.55 111.89 139.70 87.18 C 130.17 87.19 120.63 87.25 111.09 87.15 Z" />
</g>
</svg>
