<?xml version="1.0" encoding="UTF-8" ?>
<!DOCTYPE svg PUBLIC "-//W3C//DTD SVG 1.1//EN" "http://www.w3.org/Graphics/SVG/1.1/DTD/svg11.dtd">
<svg width="192pt" height="192pt" viewBox="0 0 192 192" version="1.1" xmlns="http://www.w3.org/2000/svg">
<g id="#389abdff">
<path fill="#389abd" opacity="1.00" d=" M 42.13 25.03 C 46.30 18.33 56.02 15.87 62.71 20.25 C 97.66 41.33 132.72 62.23 167.55 83.49 C 175.66 88.25 175.80 100.95 167.68 105.78 C 132.98 127.15 97.96 148.03 63.04 169.06 C 56.20 173.75 45.93 171.44 41.69 164.36 C 39.26 160.34 40.09 155.46 39.95 151.00 C 39.82 138.71 39.90 126.41 39.82 114.12 C 33.81 110.09 27.34 106.78 21.40 102.65 C 17.02 99.66 17.13 92.54 21.46 89.57 C 27.30 85.60 33.61 82.38 39.49 78.48 C 40.26 66.72 39.48 54.82 39.75 43.00 C 40.02 37.01 38.61 30.36 42.13 25.03 M 51.17 32.93 C 50.99 45.80 51.14 58.69 51.11 71.56 C 56.19 68.91 60.77 65.27 66.08 63.12 C 71.36 61.87 75.12 69.49 70.85 72.85 C 64.60 77.07 57.84 80.50 51.49 84.56 C 50.75 92.21 51.32 100.01 51.23 107.72 C 54.60 109.74 57.92 111.81 61.35 113.72 C 61.60 105.39 61.00 97.01 61.72 88.71 C 62.97 83.32 71.72 83.65 72.52 89.13 C 72.97 99.07 72.62 109.06 72.61 119.02 C 72.55 124.76 65.73 128.48 60.64 126.35 C 57.33 124.85 54.36 122.71 51.22 120.89 C 51.40 133.47 50.92 146.08 51.45 158.64 C 53.55 161.29 56.96 159.76 59.19 158.16 C 93.70 137.00 128.91 116.87 162.88 94.92 C 161.85 93.68 160.77 92.45 159.34 91.66 C 125.17 71.15 91.10 50.47 56.92 29.98 C 54.70 28.37 51.07 30.14 51.17 32.93 M 32.21 96.09 C 34.70 97.74 37.24 99.33 39.81 100.87 C 39.81 97.81 39.76 94.75 39.68 91.69 C 37.14 93.07 34.65 94.53 32.21 96.09 Z" />
<path fill="#389abd" opacity="1.00" d=" M 138.34 25.98 C 138.08 21.95 143.35 19.17 146.63 21.41 C 154.81 26.18 162.90 31.12 170.98 36.07 C 174.47 37.83 174.66 43.31 171.22 45.23 C 162.15 50.90 152.95 56.38 143.71 61.76 C 140.38 64.47 136.17 58.93 139.26 56.28 C 147.24 50.45 156.72 46.71 164.28 40.34 C 157.93 36.67 151.75 32.71 145.43 29.01 C 145.29 34.36 145.60 39.71 145.32 45.05 C 145.18 48.95 138.17 48.87 138.35 44.90 C 138.20 38.60 138.28 32.28 138.34 25.98 Z" />
</g>
</svg>
