<?xml version="1.0" encoding="UTF-8" ?>
<!DOCTYPE svg PUBLIC "-//W3C//DTD SVG 1.1//EN" "http://www.w3.org/Graphics/SVG/1.1/DTD/svg11.dtd">
<svg width="192pt" height="192pt" viewBox="0 0 192 192" version="1.1" xmlns="http://www.w3.org/2000/svg">
<g id="#ff3661ff">
<path fill="#ff3661" opacity="1.00" d=" M 84.41 14.52 C 116.10 9.60 149.57 25.50 165.92 53.05 C 178.44 73.30 181.25 99.11 173.66 121.64 C 164.21 150.69 137.27 173.06 106.92 176.80 C 75.60 181.45 42.61 165.78 26.28 138.70 C 8.19 110.31 10.48 70.86 31.75 44.76 C 44.60 28.46 63.83 17.34 84.41 14.52 M 87.39 25.49 C 64.80 28.01 44.12 42.41 33.55 62.47 C 17.87 90.78 25.26 129.21 50.41 149.62 C 76.25 172.40 118.79 171.52 143.65 147.67 C 167.52 126.64 173.61 88.83 157.71 61.31 C 144.32 36.58 115.30 21.76 87.39 25.49 Z" />
<path fill="#ff3661" opacity="1.00" d=" M 65.37 80.53 C 77.54 75.80 90.42 89.98 84.65 101.65 C 80.18 113.52 61.64 114.13 56.39 102.57 C 51.87 94.45 56.50 83.20 65.37 80.53 Z" />
</g>
</svg>
