<?xml version="1.0" encoding="UTF-8" ?>
<!DOCTYPE svg PUBLIC "-//W3C//DTD SVG 1.1//EN" "http://www.w3.org/Graphics/SVG/1.1/DTD/svg11.dtd">
<svg width="192pt" height="192pt" viewBox="0 0 192 192" version="1.1" xmlns="http://www.w3.org/2000/svg">
<g id="#a2677eff">
<path fill="#a2677e" opacity="1.00" d=" M 83.30 15.36 C 101.00 12.29 119.97 16.69 134.20 27.75 C 150.19 39.94 160.75 59.73 160.14 80.01 C 159.83 86.27 149.44 86.31 149.10 80.06 C 149.00 62.99 140.50 46.34 126.72 36.28 C 111.84 25.15 90.96 22.46 73.88 29.93 C 54.77 38.19 41.24 58.10 41.21 79.01 C 41.15 85.72 30.19 85.74 30.06 79.05 C 29.49 48.75 53.39 20.22 83.30 15.36 Z" />
<path fill="#a2677e" opacity="1.00" d=" M 89.39 39.47 C 109.82 36.22 130.67 51.02 134.88 71.15 C 135.50 75.39 137.43 81.23 133.32 84.28 C 129.38 87.15 123.89 83.22 124.53 78.63 C 124.20 62.98 109.63 49.43 93.98 50.36 C 78.46 50.28 65.41 64.63 65.49 79.89 C 65.35 85.98 55.35 86.34 54.61 80.33 C 53.59 60.57 69.77 41.75 89.39 39.47 Z" />
<path fill="#a2677e" opacity="1.00" d=" M 82.85 88.82 C 88.14 79.38 103.85 79.60 108.41 89.62 C 112.82 97.66 107.92 106.94 100.33 110.76 C 102.37 115.85 105.73 120.53 106.81 125.92 C 106.44 131.42 99.89 130.52 95.99 130.45 C 92.07 130.22 85.73 131.87 84.48 126.65 C 84.67 120.78 89.29 116.02 90.10 110.19 C 82.05 106.81 78.15 96.39 82.85 88.82 Z" />
<path fill="#a2677e" opacity="1.00" d=" M 33.39 91.45 C 36.89 90.21 40.92 93.28 40.66 96.99 C 40.72 119.95 40.79 142.93 40.64 165.89 C 40.81 172.36 30.25 173.04 29.55 166.62 C 29.19 143.75 29.51 120.84 29.40 97.95 C 29.14 95.20 30.58 92.22 33.39 91.45 Z" />
<path fill="#a2677e" opacity="1.00" d=" M 58.39 91.42 C 62.29 90.37 65.86 94.15 65.32 97.99 C 65.27 120.66 65.48 143.35 65.24 166.01 C 65.17 172.67 54.14 172.76 54.17 166.05 C 53.95 143.35 54.18 120.64 54.11 97.94 C 53.78 95.09 55.46 92.02 58.39 91.42 Z" />
<path fill="#a2677e" opacity="1.00" d=" M 129.33 91.29 C 132.65 90.66 136.01 93.58 135.79 96.97 C 135.84 119.99 135.97 143.03 135.77 166.05 C 135.73 172.78 124.67 172.75 124.62 166.02 C 124.40 143.35 124.60 120.67 124.55 98.00 C 124.22 94.96 126.14 91.68 129.33 91.29 Z" />
<path fill="#a2677e" opacity="1.00" d=" M 153.34 91.31 C 156.74 90.43 160.49 93.40 160.19 96.98 C 160.26 119.98 160.35 143.01 160.15 166.02 C 160.17 172.23 150.18 173.04 149.13 166.96 C 148.71 143.97 149.09 120.95 148.94 97.95 C 148.57 95.03 150.33 91.91 153.34 91.31 Z" />
</g>
</svg>
