<?xml version="1.0" encoding="UTF-8" ?>
<!DOCTYPE svg PUBLIC "-//W3C//DTD SVG 1.1//EN" "http://www.w3.org/Graphics/SVG/1.1/DTD/svg11.dtd">
<svg width="192pt" height="192pt" viewBox="0 0 192 192" version="1.1" xmlns="http://www.w3.org/2000/svg">
<g id="#1ab1ffff">
<path fill="#1ab1ff" opacity="1.00" d=" M 51.21 44.30 C 54.04 37.22 57.05 27.75 65.99 26.83 C 85.31 26.56 104.68 26.58 124.01 26.81 C 133.18 27.71 136.05 37.50 139.12 44.64 C 145.74 44.62 152.36 44.48 158.98 44.67 C 166.23 45.03 172.31 51.75 172.11 58.99 C 172.19 88.66 172.14 118.34 172.14 148.01 C 172.55 155.71 165.83 162.93 158.07 162.77 C 116.02 162.82 73.97 162.80 31.93 162.73 C 24.64 162.85 18.08 156.35 18.05 149.08 C 17.98 119.04 18.06 88.99 18.05 58.95 C 17.79 52.12 23.24 45.73 29.99 44.81 C 37.03 44.11 44.23 45.21 51.21 44.30 M 66.41 37.56 C 61.55 42.19 62.40 50.85 56.79 54.72 C 48.39 56.02 39.73 54.69 31.25 55.39 C 29.10 55.67 28.35 58.13 28.55 60.00 C 28.59 89.34 28.54 118.68 28.58 148.02 C 28.30 150.45 30.54 152.57 32.96 152.19 C 74.32 152.20 115.68 152.18 157.04 152.15 C 159.47 152.55 161.74 150.50 161.47 148.03 C 161.53 118.69 161.49 89.34 161.50 60.00 C 161.68 58.11 160.87 55.71 158.74 55.39 C 150.27 54.70 141.61 56.02 133.23 54.73 C 127.37 50.86 128.81 41.08 122.90 37.42 C 104.09 37.32 85.20 37.02 66.41 37.56 Z" />
<path fill="#1ab1ff" opacity="1.00" d=" M 88.31 67.39 C 103.72 64.32 120.39 72.42 127.60 86.36 C 135.31 100.26 132.46 118.98 120.96 129.96 C 109.92 141.17 91.47 143.90 77.69 136.27 C 65.31 129.81 57.34 115.90 58.20 101.94 C 58.65 85.26 71.92 70.24 88.31 67.39 M 91.46 77.65 C 77.26 79.26 66.31 93.95 69.10 108.03 C 71.04 121.45 84.63 131.71 98.07 129.81 C 111.17 128.51 121.96 116.22 121.32 103.02 C 121.37 87.90 106.37 75.16 91.46 77.65 Z" />
</g>
</svg>
