<?xml version="1.0" encoding="UTF-8" ?>
<!DOCTYPE svg PUBLIC "-//W3C//DTD SVG 1.1//EN" "http://www.w3.org/Graphics/SVG/1.1/DTD/svg11.dtd">
<svg width="192pt" height="192pt" viewBox="0 0 192 192" version="1.1" xmlns="http://www.w3.org/2000/svg">
<g id="#a51affff">
<path fill="#a51aff" opacity="1.00" d=" M 47.56 29.62 C 64.73 16.87 87.02 11.92 108.09 14.59 C 139.00 18.65 166.44 42.38 174.36 72.63 C 181.61 96.64 176.76 123.76 161.85 143.86 C 159.49 147.29 154.10 149.46 150.60 146.46 C 147.94 144.17 148.29 140.02 150.72 137.70 C 168.14 116.63 170.84 84.62 157.00 61.01 C 150.74 50.27 141.33 41.69 131.04 34.90 C 125.24 31.26 118.03 33.73 112.70 37.06 C 120.26 43.96 128.09 50.87 133.11 59.95 C 150.87 88.96 143.06 130.43 115.60 150.61 C 111.95 153.20 106.52 150.13 106.46 145.78 C 106.23 142.45 109.27 140.40 111.37 138.34 C 125.95 125.55 133.25 105.09 129.96 85.96 C 127.04 66.41 113.38 48.78 94.99 41.43 C 81.26 47.16 70.17 58.69 64.55 72.43 C 56.06 92.74 60.13 117.75 74.76 134.23 C 89.40 150.95 114.12 157.79 135.34 151.30 C 138.14 150.55 141.34 149.10 144.06 150.89 C 147.58 152.82 147.93 158.39 144.61 160.70 C 124.82 175.44 98.09 180.22 74.33 173.63 C 45.11 165.96 21.70 140.63 16.05 110.98 C 9.44 80.75 22.51 47.63 47.56 29.62 M 60.97 34.94 C 35.00 49.91 20.22 82.61 28.17 111.86 C 36.11 144.84 70.30 168.98 104.12 164.35 C 83.92 159.66 65.93 146.11 56.29 127.70 C 45.55 107.96 45.07 82.78 56.06 63.03 C 65.61 44.59 83.26 31.03 103.37 26.04 C 88.78 24.29 73.66 27.54 60.97 34.94 Z" />
</g>
</svg>
