<?xml version="1.0" encoding="UTF-8" ?>
<!DOCTYPE svg PUBLIC "-//W3C//DTD SVG 1.1//EN" "http://www.w3.org/Graphics/SVG/1.1/DTD/svg11.dtd">
<svg width="192pt" height="192pt" viewBox="0 0 192 192" version="1.1" xmlns="http://www.w3.org/2000/svg">
<g id="#f73657ff">
<path fill="#f73657" opacity="1.00" d=" M 19.68 58.67 C 31.44 32.36 58.35 14.33 86.92 12.13 C 118.81 8.34 151.42 26.63 166.05 54.97 C 178.07 78.23 179.31 107.44 166.80 130.75 C 164.84 134.19 159.42 133.83 157.58 130.48 C 155.76 127.05 158.07 123.39 159.17 120.13 C 168.79 97.90 166.21 70.25 150.76 51.24 C 144.14 43.27 136.48 35.85 127.47 30.65 C 120.87 30.01 114.00 30.98 108.03 33.96 C 127.11 46.88 140.00 68.77 140.25 92.02 C 140.73 113.65 131.09 135.62 113.78 148.85 C 110.50 151.48 105.31 149.04 105.00 144.96 C 104.48 141.89 107.40 140.12 109.28 138.28 C 121.85 127.25 129.52 110.76 129.39 94.00 C 129.46 73.16 118.21 52.40 99.99 42.01 C 97.18 40.54 93.95 38.05 90.66 39.60 C 80.37 44.66 71.27 52.44 65.38 62.35 C 57.91 75.07 55.75 90.50 57.93 104.97 C 61.17 125.74 77.24 143.12 96.64 150.33 C 109.99 155.24 124.68 153.85 138.08 149.92 C 143.08 148.46 147.02 155.67 143.09 159.03 C 114.60 181.48 71.13 180.71 43.00 157.97 C 13.55 135.47 3.65 91.94 19.68 58.67 M 57.48 32.55 C 30.99 48.20 16.47 81.99 25.13 111.82 C 33.60 145.74 69.81 170.16 104.47 163.85 C 83.07 159.70 63.93 145.43 53.98 126.02 C 42.65 105.04 43.13 78.09 55.87 57.83 C 66.34 39.93 84.66 27.25 105.00 23.37 C 88.72 20.80 71.57 23.94 57.48 32.55 Z" />
</g>
</svg>
