<?xml version="1.0" encoding="UTF-8" ?>
<!DOCTYPE svg PUBLIC "-//W3C//DTD SVG 1.1//EN" "http://www.w3.org/Graphics/SVG/1.1/DTD/svg11.dtd">
<svg width="192pt" height="192pt" viewBox="0 0 192 192" version="1.1" xmlns="http://www.w3.org/2000/svg">
<g id="#f73657ff">
<path fill="#f73657" opacity="1.00" d=" M 36.16 35.17 C 58.85 12.86 95.09 5.36 124.60 17.46 C 142.58 24.92 158.09 38.75 166.72 56.30 C 178.18 79.64 179.40 109.18 165.88 131.86 C 162.44 135.25 155.98 131.75 156.92 127.01 C 158.14 121.35 161.15 116.26 162.53 110.63 C 166.32 95.10 165.55 78.10 158.48 63.59 C 152.82 51.65 143.28 42.05 132.90 34.11 C 126.13 27.65 115.64 30.75 108.02 33.95 C 127.10 46.88 140.01 68.77 140.26 92.02 C 140.73 113.65 131.09 135.63 113.77 148.85 C 110.50 151.48 105.34 149.05 105.01 144.99 C 104.46 141.91 107.39 140.13 109.27 138.28 C 122.11 127.04 129.81 110.10 129.38 93.01 C 129.10 72.50 117.92 52.23 99.98 42.01 C 97.17 40.52 93.92 38.04 90.63 39.62 C 79.25 45.21 69.30 54.19 63.60 65.62 C 57.34 78.27 55.71 93.05 58.28 106.87 C 61.91 125.83 76.31 141.56 93.72 149.20 C 107.42 155.12 123.05 154.38 137.11 150.12 C 142.34 147.73 147.40 155.30 143.06 159.05 C 116.30 180.05 76.25 180.87 48.23 161.75 C 20.49 143.87 6.64 107.98 13.89 75.96 C 17.15 60.59 25.02 46.24 36.16 35.17 M 32.31 58.28 C 20.89 77.41 19.62 102.00 28.82 122.26 C 41.06 150.52 73.26 169.33 103.91 163.81 C 82.51 159.33 63.41 144.96 53.63 125.35 C 42.65 104.48 43.27 77.88 55.87 57.83 C 66.25 40.00 84.42 27.57 104.52 23.35 C 76.18 18.41 46.29 33.34 32.31 58.28 Z" />
</g>
</svg>
