<?xml version="1.0" encoding="UTF-8" ?>
<!DOCTYPE svg PUBLIC "-//W3C//DTD SVG 1.1//EN" "http://www.w3.org/Graphics/SVG/1.1/DTD/svg11.dtd">
<svg width="192pt" height="192pt" viewBox="0 0 192 192" version="1.1" xmlns="http://www.w3.org/2000/svg">
<g id="#ff3662ff">
<path fill="#ff3662" opacity="1.00" d=" M 84.38 12.44 C 115.50 8.09 147.69 24.91 162.78 52.28 C 180.00 81.66 176.55 121.46 154.30 147.30 C 140.01 164.37 118.31 175.13 95.98 175.50 C 64.38 176.72 33.85 156.48 21.49 127.59 C 8.92 99.80 13.21 65.19 32.62 41.58 C 45.24 25.66 64.19 14.91 84.38 12.44 M 40.86 48.89 C 25.55 67.83 21.15 94.74 29.37 117.64 C 38.94 146.66 69.41 167.37 100.06 163.95 C 81.55 159.06 66.22 145.26 57.79 128.28 C 49.38 110.64 48.08 89.96 53.26 71.20 C 59.37 48.46 77.76 28.95 100.82 23.14 C 78.15 21.14 54.84 30.83 40.86 48.89 M 106.40 33.58 C 88.95 36.36 74.62 49.48 67.15 65.07 C 60.38 80.00 59.58 97.38 63.85 113.13 C 68.61 129.99 81.15 144.98 97.69 151.25 C 111.72 156.65 128.43 154.42 140.53 145.52 C 155.18 131.97 163.19 111.86 162.71 91.99 C 162.44 73.11 154.27 54.43 140.45 41.55 C 130.79 34.40 118.20 31.82 106.40 33.58 Z" />
<path fill="#ff3662" opacity="1.00" d=" M 111.25 42.13 C 125.39 42.92 135.52 55.34 140.34 67.66 C 147.74 86.75 147.05 109.21 137.43 127.40 C 132.28 136.98 123.34 145.78 112.01 146.68 C 109.78 147.01 109.27 144.00 111.20 143.20 C 123.44 134.47 130.27 119.94 132.52 105.38 C 135.74 83.83 129.54 59.09 111.33 45.66 C 109.88 44.91 109.24 42.63 111.25 42.13 Z" />
</g>
</svg>
