<?xml version="1.0" encoding="UTF-8" ?>
<!DOCTYPE svg PUBLIC "-//W3C//DTD SVG 1.1//EN" "http://www.w3.org/Graphics/SVG/1.1/DTD/svg11.dtd">
<svg width="192pt" height="192pt" viewBox="0 0 192 192" version="1.1" xmlns="http://www.w3.org/2000/svg">
<g id="#39d787ff">
<path fill="#39d787" opacity="1.00" d=" M 25.32 25.41 C 39.04 23.84 53.12 25.18 66.99 24.72 C 78.16 23.95 89.35 32.52 90.10 43.97 C 90.64 57.97 90.16 72.00 90.35 86.01 C 90.57 88.35 89.92 91.77 86.87 91.50 C 73.57 91.76 60.25 91.52 46.94 91.61 C 34.91 91.90 24.20 81.03 24.17 69.08 C 24.09 56.38 24.25 43.67 24.15 30.97 C 24.30 29.11 23.92 26.88 25.32 25.41 M 35.41 36.14 C 35.48 46.78 35.40 57.42 35.43 68.06 C 35.15 74.34 40.58 80.45 47.00 80.30 C 57.67 80.34 68.34 80.21 79.01 80.26 C 79.03 68.81 79.05 57.35 78.93 45.90 C 79.02 40.64 74.27 36.17 69.09 36.20 C 57.86 36.03 46.63 36.19 35.41 36.14 Z" />
<path fill="#39d787" opacity="1.00" d=" M 112.36 25.54 C 127.79 23.88 143.47 25.27 158.99 24.78 C 161.63 25.00 166.70 24.13 166.71 28.06 C 166.95 42.06 166.75 56.07 166.74 70.07 C 166.87 81.19 157.04 91.05 145.98 91.30 C 132.00 91.84 117.99 91.59 104.00 91.54 C 101.34 91.88 99.45 89.56 99.74 87.03 C 99.72 72.02 99.52 57.00 99.87 41.99 C 99.67 34.37 105.74 28.25 112.36 25.54 M 111.16 42.92 C 110.99 55.38 111.15 67.86 111.09 80.32 C 122.41 80.26 133.75 80.52 145.07 80.00 C 150.43 80.02 155.41 75.45 155.39 70.00 C 155.62 58.71 155.48 47.42 155.48 36.13 C 143.30 36.16 131.12 36.12 118.94 36.13 C 115.11 35.69 110.83 38.84 111.16 42.92 Z" />
<path fill="#39d787" opacity="1.00" d=" M 42.39 100.52 C 56.59 100.05 70.84 100.47 85.05 100.33 C 87.52 100.06 90.81 101.06 90.56 104.13 C 90.65 118.11 90.88 132.13 90.26 146.11 C 90.01 156.40 81.11 165.22 70.91 165.81 C 57.63 166.59 44.30 165.85 30.99 166.21 C 28.52 166.20 24.13 166.57 24.24 162.98 C 23.93 149.31 24.23 135.61 24.06 121.94 C 23.78 111.55 32.49 102.38 42.39 100.52 M 35.40 121.93 C 35.29 132.87 35.46 143.81 35.42 154.75 C 46.62 154.78 57.82 154.92 69.01 154.62 C 73.82 154.65 78.58 151.03 78.88 146.05 C 79.73 134.60 79.20 123.09 79.36 111.62 C 68.57 111.57 57.79 111.74 47.00 111.58 C 41.30 111.11 35.24 116.03 35.40 121.93 Z" />
<path fill="#39d787" opacity="1.00" d=" M 102.22 100.29 C 116.13 99.66 130.14 100.08 144.08 100.10 C 155.38 100.00 165.30 109.80 165.61 121.03 C 165.75 134.35 165.54 147.68 165.60 161.00 C 165.80 163.38 164.97 166.54 162.00 166.39 C 148.68 166.53 135.35 166.49 122.03 166.51 C 109.37 166.39 99.70 154.08 99.66 141.97 C 99.60 129.99 99.62 117.99 99.56 106.01 C 99.58 103.90 99.58 100.78 102.22 100.29 M 110.92 111.31 C 110.81 121.56 110.81 131.81 111.00 142.05 C 111.10 148.46 116.07 155.44 122.98 155.18 C 133.42 155.26 143.87 155.08 154.32 155.11 C 154.31 144.06 154.39 133.02 154.30 121.98 C 154.39 116.42 149.63 111.36 143.99 111.46 C 132.97 111.27 121.95 111.36 110.92 111.31 Z" />
</g>
</svg>
