<?xml version="1.0" encoding="UTF-8" ?>
<!DOCTYPE svg PUBLIC "-//W3C//DTD SVG 1.1//EN" "http://www.w3.org/Graphics/SVG/1.1/DTD/svg11.dtd">
<svg width="192pt" height="192pt" viewBox="0 0 192 192" version="1.1" xmlns="http://www.w3.org/2000/svg">
<g id="#ff8b1fff">
<path fill="#ff8b1f" opacity="1.00" d=" M 39.29 21.35 C 42.47 20.62 45.76 20.72 49.00 20.72 C 81.99 20.78 114.98 20.68 147.97 20.76 C 160.14 20.82 170.93 31.78 170.79 43.94 C 170.82 78.31 170.81 112.69 170.80 147.06 C 171.06 159.33 160.23 170.41 147.97 170.50 C 113.33 170.58 78.68 170.57 44.03 170.50 C 31.71 170.46 20.87 159.36 21.07 147.05 C 21.03 112.68 21.02 78.31 21.09 43.94 C 21.06 33.41 29.05 23.61 39.29 21.35 M 41.34 32.45 C 35.91 33.85 31.93 39.34 32.31 44.94 C 32.33 78.99 32.28 113.03 32.34 147.07 C 32.18 153.77 38.39 159.54 45.02 159.25 C 79.01 159.27 113.01 159.27 147.00 159.23 C 153.63 159.48 159.63 153.62 159.58 147.00 C 159.68 112.98 159.62 78.96 159.61 44.94 C 159.96 38.53 154.61 32.19 148.07 32.14 C 115.05 31.72 82.03 31.96 49.00 31.84 C 46.44 31.85 43.85 31.85 41.34 32.45 Z" />
<path fill="#ff8b1f" opacity="1.00" d=" M 57.68 49.69 C 66.84 43.75 78.84 46.11 87.70 51.40 C 88.04 54.83 83.77 58.04 81.00 59.60 C 76.03 57.52 70.10 54.81 64.96 58.00 C 62.50 59.49 63.00 63.33 65.58 64.40 C 73.22 68.34 83.02 69.16 88.59 76.42 C 93.05 82.73 89.85 91.86 83.41 95.46 C 72.98 101.78 57.28 99.78 49.60 90.12 C 52.29 88.02 54.64 85.18 57.97 84.11 C 63.02 86.47 68.41 90.27 74.25 88.11 C 77.37 87.63 80.36 83.16 76.99 80.98 C 69.88 75.98 59.88 75.97 53.95 69.08 C 48.84 63.26 51.20 53.46 57.68 49.69 Z" />
<path fill="#ff8b1f" opacity="1.00" d=" M 116.38 47.47 C 129.66 44.99 143.45 54.80 145.89 67.99 C 148.85 81.18 139.65 95.65 126.39 98.40 C 112.04 102.15 95.87 90.94 94.91 76.02 C 93.13 62.80 103.18 49.39 116.38 47.47 M 118.40 57.46 C 107.19 58.63 100.67 73.29 107.73 82.26 C 113.86 91.76 129.62 90.59 134.41 80.38 C 140.62 69.83 130.37 55.33 118.40 57.46 Z" />
<path fill="#ff8b1f" opacity="1.00" d=" M 52.64 107.63 C 53.78 102.64 60.30 105.14 63.95 104.98 C 62.64 115.08 58.89 124.72 57.71 134.82 C 61.21 134.82 64.70 134.91 68.19 135.08 C 68.03 138.22 67.61 141.41 66.28 144.28 C 61.77 146.02 56.73 144.73 52.00 145.15 C 49.59 145.13 44.88 145.65 45.14 142.02 C 47.37 130.51 50.08 119.07 52.64 107.63 Z" />
<path fill="#ff8b1f" opacity="1.00" d=" M 120.93 104.86 C 126.91 104.82 132.97 104.18 138.89 105.09 C 145.60 106.91 147.43 115.57 143.99 121.01 C 140.28 128.40 131.56 130.60 123.91 129.72 C 122.59 134.59 121.95 139.64 120.41 144.45 C 117.98 145.92 114.74 144.83 112.02 144.85 C 114.16 131.42 117.10 117.90 120.93 104.86 M 127.82 112.64 C 126.96 115.57 126.26 118.55 125.96 121.59 C 130.02 121.75 136.37 122.19 137.37 116.97 C 137.99 111.74 131.16 112.74 127.82 112.64 Z" />
<path fill="#ff8b1f" opacity="1.00" d=" M 79.43 106.47 C 83.38 104.10 85.36 110.15 87.64 112.41 C 93.23 118.25 92.49 128.27 86.59 133.59 C 82.69 137.07 79.10 140.95 74.86 144.03 C 72.58 145.37 70.18 142.38 71.27 140.16 C 74.05 128.97 75.78 117.33 79.43 106.47 Z" />
<path fill="#ff8b1f" opacity="1.00" d=" M 100.26 106.28 C 105.85 105.07 108.11 113.07 111.17 116.69 C 116.19 128.58 104.22 136.82 96.45 143.47 C 94.29 145.98 90.57 142.71 92.12 140.01 C 94.94 128.81 96.54 117.17 100.26 106.28 Z" />
</g>
</svg>
