<?xml version="1.0" encoding="UTF-8" ?>
<!DOCTYPE svg PUBLIC "-//W3C//DTD SVG 1.1//EN" "http://www.w3.org/Graphics/SVG/1.1/DTD/svg11.dtd">
<svg width="192pt" height="192pt" viewBox="0 0 192 192" version="1.1" xmlns="http://www.w3.org/2000/svg">
<g id="#2ab9a2ff">
<path fill="#2ab9a2" opacity="1.00" d=" M 64.22 15.30 C 69.47 13.63 72.46 19.30 75.80 22.22 C 78.99 25.12 77.13 31.14 72.84 31.61 C 68.27 32.43 65.88 27.61 62.86 25.11 C 59.44 22.60 60.13 16.67 64.22 15.30 Z" />
<path fill="#2ab9a2" opacity="1.00" d=" M 127.24 15.49 C 132.02 14.88 135.32 21.40 131.86 24.84 C 128.59 27.66 125.95 32.87 120.97 32.27 C 116.52 31.48 114.83 25.23 118.39 22.39 C 121.23 20.03 123.29 16.01 127.24 15.49 Z" />
<path fill="#2ab9a2" opacity="1.00" d=" M 95.33 22.38 C 97.29 22.10 99.17 23.14 100.47 24.55 C 122.65 46.70 144.83 68.84 166.99 91.00 C 169.25 93.03 169.37 97.04 167.06 99.08 C 144.74 121.43 122.38 143.76 100.02 166.07 C 97.79 168.67 93.43 168.27 91.36 165.66 C 69.20 143.47 47.00 121.32 24.88 99.09 C 22.57 97.01 22.63 93.00 24.95 90.95 C 46.93 68.93 68.97 46.96 90.95 24.94 C 92.15 23.74 93.52 22.45 95.33 22.38 M 36.87 95.00 C 56.33 114.92 76.20 134.46 95.92 154.12 C 115.67 134.48 135.44 114.85 154.99 95.01 C 135.33 75.32 115.70 55.59 95.93 36.01 C 76.18 55.60 56.52 75.30 36.87 95.00 Z" />
<path fill="#2ab9a2" opacity="1.00" d=" M 48.39 29.40 C 54.06 26.47 57.81 33.36 61.37 36.60 C 65.27 41.32 58.26 48.32 53.58 44.37 C 49.46 40.90 41.55 34.28 48.39 29.40 Z" />
<path fill="#2ab9a2" opacity="1.00" d=" M 140.20 30.27 C 144.82 28.25 149.64 33.78 147.29 38.13 C 144.93 41.15 142.14 43.92 139.13 46.28 C 134.51 48.57 129.06 43.14 131.62 38.57 C 134.12 35.52 136.86 32.40 140.20 30.27 Z" />
<path fill="#2ab9a2" opacity="1.00" d=" M 34.29 43.29 C 38.09 41.17 41.35 44.76 43.72 47.29 C 47.37 49.67 49.99 55.52 45.55 58.50 C 40.81 61.83 36.80 56.24 33.77 53.23 C 30.37 50.86 30.34 45.09 34.29 43.29 Z" />
<path fill="#2ab9a2" opacity="1.00" d=" M 155.38 44.37 C 160.29 43.31 164.08 49.92 160.60 53.58 C 157.86 56.19 155.59 59.64 151.99 61.10 C 146.79 62.57 142.74 55.36 146.63 51.67 C 149.45 49.18 151.61 45.45 155.38 44.37 Z" />
<path fill="#2ab9a2" opacity="1.00" d=" M 21.36 57.36 C 26.08 56.74 28.53 61.74 31.68 64.34 C 35.57 67.54 32.86 74.13 27.98 74.22 C 23.66 73.58 21.27 69.45 18.30 66.69 C 15.15 63.74 17.14 57.94 21.36 57.36 Z" />
<path fill="#2ab9a2" opacity="1.00" d=" M 169.33 59.34 C 174.06 58.49 177.67 64.81 174.46 68.41 C 171.69 70.97 169.47 74.45 165.95 75.99 C 160.96 77.74 156.46 70.84 160.06 66.98 C 163.02 64.36 165.28 60.28 169.33 59.34 Z" />
<path fill="#2ab9a2" opacity="1.00" d=" M 95.32 61.34 C 97.31 61.06 99.19 62.10 100.49 63.54 C 109.65 72.70 118.84 81.84 127.98 91.02 C 130.21 93.03 130.35 96.99 128.08 99.03 C 118.78 108.41 109.41 117.72 100.06 127.05 C 98.04 129.42 93.97 129.43 91.89 127.15 C 82.51 117.84 73.16 108.49 63.86 99.10 C 61.56 97.00 61.61 93.00 63.94 90.94 C 72.92 81.91 81.96 72.95 90.94 63.92 C 92.14 62.71 93.51 61.42 95.32 61.34 M 75.90 95.00 C 82.37 101.91 89.19 108.50 95.92 115.15 C 102.69 108.51 109.45 101.86 116.00 95.01 C 109.34 88.31 102.70 81.58 95.92 74.99 C 89.19 81.61 82.52 88.28 75.90 95.00 Z" />
<path fill="#2ab9a2" opacity="1.00" d=" M 164.36 115.44 C 169.50 113.53 172.57 119.31 175.88 122.13 C 179.32 125.06 177.48 131.44 172.91 131.85 C 168.30 132.49 165.87 127.68 162.83 125.12 C 159.61 122.56 160.41 116.80 164.36 115.44 Z" />
<path fill="#2ab9a2" opacity="1.00" d=" M 24.44 116.52 C 29.12 113.18 35.30 119.38 32.28 124.14 C 29.74 127.00 27.21 130.10 23.90 132.08 C 19.23 134.32 14.19 128.28 16.98 124.01 C 19.25 121.32 21.77 118.81 24.44 116.52 Z" />
<path fill="#2ab9a2" opacity="1.00" d=" M 149.19 129.17 C 154.51 127.18 157.59 133.07 160.99 135.99 C 164.43 138.99 162.24 145.40 157.67 145.61 C 153.26 146.05 150.99 141.41 148.02 138.98 C 144.70 136.48 145.27 130.75 149.19 129.17 Z" />
<path fill="#2ab9a2" opacity="1.00" d=" M 40.29 130.36 C 44.71 128.71 49.24 133.87 47.17 138.06 C 44.98 141.20 42.06 143.85 39.13 146.29 C 34.39 148.94 28.62 143.21 31.53 138.52 C 34.19 135.61 36.77 132.22 40.29 130.36 Z" />
<path fill="#2ab9a2" opacity="1.00" d=" M 134.39 143.45 C 138.10 141.30 141.47 144.62 143.80 147.20 C 147.23 149.68 150.38 154.92 146.32 158.37 C 141.76 162.23 137.17 157.03 134.24 153.77 C 130.72 151.37 130.23 145.47 134.39 143.45 Z" />
<path fill="#2ab9a2" opacity="1.00" d=" M 53.32 145.22 C 57.99 142.22 63.88 148.27 61.03 152.90 C 58.52 155.75 55.93 158.66 52.82 160.87 C 48.11 163.44 42.62 157.05 45.75 152.72 C 48.04 150.02 50.56 147.45 53.32 145.22 Z" />
<path fill="#2ab9a2" opacity="1.00" d=" M 122.34 157.42 C 126.83 157.50 129.19 162.18 132.27 164.80 C 136.11 168.50 132.18 175.58 126.97 174.25 C 123.30 172.83 120.95 169.33 118.23 166.64 C 115.19 163.35 117.82 157.33 122.34 157.42 Z" />
<path fill="#2ab9a2" opacity="1.00" d=" M 67.21 160.08 C 71.81 157.42 77.54 163.21 74.79 167.75 C 72.45 170.69 69.73 173.45 66.76 175.75 C 62.24 178.43 56.64 172.76 59.09 168.19 C 61.46 165.21 64.21 162.44 67.21 160.08 Z" />
</g>
</svg>
