<?xml version="1.0" encoding="UTF-8" ?>
<!DOCTYPE svg PUBLIC "-//W3C//DTD SVG 1.1//EN" "http://www.w3.org/Graphics/SVG/1.1/DTD/svg11.dtd">
<svg width="192pt" height="192pt" viewBox="0 0 192 192" version="1.1" xmlns="http://www.w3.org/2000/svg">
<g id="#9835ecff">
<path fill="#9835ec" opacity="1.00" d=" M 143.25 17.26 C 147.08 16.10 148.57 20.40 150.06 22.98 C 154.64 32.18 150.53 43.75 142.41 49.49 C 139.06 50.31 138.04 46.26 137.07 43.93 C 133.48 35.02 134.05 22.54 143.25 17.26 Z" />
<path fill="#9835ec" opacity="1.00" d=" M 82.50 31.67 C 116.31 27.56 150.50 51.20 158.86 84.15 C 167.97 115.27 152.46 151.00 123.77 165.93 C 103.29 177.20 77.25 177.40 56.60 166.44 C 29.57 152.79 13.48 120.79 19.06 90.95 C 23.82 59.93 51.22 34.34 82.50 31.67 M 82.42 42.57 C 65.03 44.55 48.88 54.53 39.18 69.07 C 29.69 83.00 26.52 101.01 30.63 117.35 C 34.75 135.07 47.52 150.40 63.99 158.02 C 78.54 164.85 95.83 165.50 110.89 159.88 C 126.84 154.02 140.01 141.11 146.24 125.30 C 153.78 106.57 151.14 84.10 139.27 67.73 C 126.75 49.80 104.13 39.76 82.42 42.57 Z" />
<path fill="#9835ec" opacity="1.00" d=" M 154.40 46.61 C 161.18 44.80 168.70 47.60 172.57 53.44 C 173.31 56.06 170.62 57.65 168.71 58.73 C 161.25 62.82 151.91 59.27 146.27 53.72 C 145.12 48.99 151.20 47.98 154.40 46.61 Z" />
</g>
</svg>
