<?xml version="1.0" encoding="UTF-8" ?>
<!DOCTYPE svg PUBLIC "-//W3C//DTD SVG 1.1//EN" "http://www.w3.org/Graphics/SVG/1.1/DTD/svg11.dtd">
<svg width="192pt" height="192pt" viewBox="0 0 192 192" version="1.1" xmlns="http://www.w3.org/2000/svg">
<g id="#d8d8d8ff">
<path fill="#d8d8d8" opacity="1.00" d=" M 86.50 48.52 C 93.73 41.05 100.62 32.12 111.00 29.03 C 116.15 27.35 121.83 32.67 119.98 37.90 C 117.87 43.60 114.23 48.79 113.30 54.90 C 117.29 59.76 124.11 60.86 129.60 63.44 C 143.91 69.98 157.55 79.49 165.77 93.21 C 177.13 111.92 180.33 134.65 178.26 156.17 C 177.76 161.04 171.40 163.51 167.70 160.34 C 157.32 150.97 151.15 135.65 156.31 121.98 C 153.81 118.58 152.09 113.69 148.08 111.98 C 142.48 115.01 137.63 119.32 131.78 121.98 C 135.27 124.46 139.27 126.02 143.00 128.07 C 148.79 131.82 147.86 141.85 141.32 144.27 C 125.38 150.73 107.42 146.47 92.26 139.82 C 82.55 136.00 74.11 127.82 63.01 128.68 C 49.67 129.55 35.38 131.43 23.03 124.98 C 15.93 121.50 11.78 113.20 13.57 105.44 C 17.34 76.73 43.83 54.84 71.93 52.09 C 76.74 51.02 82.91 52.72 86.50 48.52 M 91.86 58.87 C 85.82 63.58 77.69 62.19 70.61 63.55 C 47.89 66.69 26.89 85.02 24.52 108.47 C 23.73 112.73 27.99 115.51 31.54 116.49 C 47.54 122.09 65.29 112.95 80.74 121.21 C 96.27 130.01 113.78 138.67 132.17 135.46 C 127.03 132.21 121.43 129.26 117.58 124.43 C 114.47 120.31 117.62 114.37 122.37 113.43 C 131.20 111.24 137.32 103.81 145.70 100.79 C 152.00 98.50 157.21 103.44 160.74 108.01 C 153.85 90.27 137.53 78.14 120.13 71.79 C 113.95 69.26 107.03 66.57 103.47 60.52 C 100.83 56.24 102.36 51.05 103.72 46.62 C 99.72 50.66 96.13 55.11 91.86 58.87 Z" />
<path fill="#d8d8d8" opacity="1.00" d=" M 70.96 93.93 C 77.58 90.95 85.23 88.48 92.46 90.54 C 96.81 91.58 98.45 97.26 95.76 100.70 C 90.83 107.32 82.13 108.76 74.66 110.77 C 66.90 112.23 58.28 116.80 50.64 113.04 C 53.31 103.72 62.85 98.21 70.96 93.93 Z" />
<path fill="#d8d8d8" opacity="1.00" d=" M 54.16 132.86 C 57.97 132.43 61.83 131.97 65.66 132.43 C 70.29 134.02 72.72 139.22 72.77 143.87 C 64.90 145.96 57.13 139.83 54.16 132.86 Z" />
</g>
</svg>
