<?xml version="1.0" encoding="UTF-8" ?>
<!DOCTYPE svg PUBLIC "-//W3C//DTD SVG 1.1//EN" "http://www.w3.org/Graphics/SVG/1.1/DTD/svg11.dtd">
<svg width="192pt" height="192pt" viewBox="0 0 192 192" version="1.1" xmlns="http://www.w3.org/2000/svg">
<g id="#19b0ffff">
<path fill="#19b0ff" opacity="1.00" d=" M 82.35 14.41 C 114.18 8.86 148.20 24.45 164.91 52.05 C 177.72 72.35 180.72 98.40 173.08 121.14 C 163.78 150.02 137.18 172.36 107.07 176.34 C 76.03 181.25 43.11 166.18 26.44 139.58 C 8.65 112.67 9.25 75.20 27.87 48.86 C 40.35 30.61 60.48 17.77 82.35 14.41 M 83.38 25.58 C 58.33 29.60 36.44 48.35 28.41 72.38 C 20.82 94.23 24.82 119.70 39.01 138.01 C 58.31 164.38 96.76 173.66 125.96 158.97 C 155.82 145.21 172.66 109.08 163.70 77.37 C 155.45 42.81 118.32 18.74 83.38 25.58 Z" />
<path fill="#19b0ff" opacity="1.00" d=" M 88.40 45.48 C 104.10 43.15 120.64 48.96 131.56 60.45 C 143.57 72.72 148.48 91.41 143.95 107.99 C 139.71 125.05 125.73 139.14 108.79 143.72 C 91.79 148.63 72.44 143.56 60.00 131.00 C 46.96 118.42 41.84 98.45 47.12 81.12 C 52.35 62.52 69.24 47.97 88.40 45.48 M 90.43 56.55 C 68.65 58.71 52.09 81.59 57.04 102.97 C 60.08 119.21 74.49 132.42 90.94 134.03 C 106.19 135.99 121.97 127.79 129.37 114.36 C 136.69 101.61 135.86 84.71 127.21 72.81 C 119.16 61.16 104.48 54.61 90.43 56.55 Z" />
<path fill="#19b0ff" opacity="1.00" d=" M 83.76 81.66 C 87.53 71.85 104.36 72.47 107.23 82.66 C 108.77 87.30 106.38 92.06 102.54 94.71 C 109.21 98.12 110.60 108.02 104.91 112.93 C 98.86 117.37 88.92 117.00 84.03 110.96 C 80.32 105.71 82.38 97.91 87.87 94.73 C 83.87 91.74 81.68 86.45 83.76 81.66 M 94.36 80.39 C 87.41 81.03 88.99 93.16 95.94 92.04 C 103.30 91.56 101.87 78.60 94.36 80.39 M 92.33 98.23 C 87.46 100.65 88.15 109.46 93.82 110.37 C 97.75 111.50 102.13 108.20 101.60 103.99 C 101.97 99.30 96.37 95.86 92.33 98.23 Z" />
</g>
</svg>
