<?xml version="1.0" encoding="UTF-8" ?>
<!DOCTYPE svg PUBLIC "-//W3C//DTD SVG 1.1//EN" "http://www.w3.org/Graphics/SVG/1.1/DTD/svg11.dtd">
<svg width="192pt" height="192pt" viewBox="0 0 192 192" version="1.1" xmlns="http://www.w3.org/2000/svg">
<g id="#50bc76ff">
<path fill="#50bc76" opacity="1.00" d=" M 88.23 32.23 C 92.34 28.94 98.55 29.01 102.58 32.41 C 113.64 41.27 123.30 52.28 129.11 65.30 C 138.65 62.97 148.62 62.30 158.37 63.57 C 163.55 64.25 167.76 68.79 168.17 73.99 C 169.49 86.51 168.52 99.63 163.08 111.15 C 167.51 115.30 172.09 119.37 175.72 124.27 C 178.77 128.55 178.27 134.84 174.72 138.68 C 164.77 150.68 151.15 161.22 135.10 162.48 C 120.58 163.51 107.19 155.62 97.06 145.88 C 95.74 144.11 93.98 145.83 92.92 146.91 C 82.66 156.71 68.60 164.10 54.05 162.31 C 38.82 160.22 25.86 150.21 16.41 138.55 C 13.07 134.74 12.32 128.62 15.43 124.45 C 18.88 119.66 23.19 115.57 27.67 111.75 C 22.22 99.80 20.91 86.30 22.46 73.36 C 23.05 68.55 27.09 64.42 31.88 63.71 C 41.66 62.42 51.70 62.95 61.24 65.47 C 67.35 52.40 76.86 41.05 88.23 32.23 M 70.33 74.36 C 69.50 77.87 65.29 79.48 62.15 77.94 C 53.17 74.68 43.42 74.01 33.98 75.10 C 32.39 88.38 33.87 103.50 43.11 113.89 C 53.36 124.15 69.26 125.67 82.96 124.02 C 88.24 122.75 91.24 128.17 95.12 130.60 C 99.17 128.50 101.72 122.82 106.95 123.87 C 120.96 125.49 137.30 124.40 147.67 113.63 C 156.80 103.21 157.94 88.31 156.68 75.09 C 147.03 73.81 137.05 74.65 127.89 78.02 C 125.00 79.34 121.38 77.62 120.41 74.64 C 115.66 61.30 106.27 49.98 95.16 41.39 C 84.48 50.20 74.85 61.06 70.33 74.36 M 24.78 130.96 C 32.23 140.63 42.63 149.10 54.97 151.11 C 66.73 152.68 77.77 146.02 85.90 138.11 C 84.90 137.30 83.91 136.50 82.92 135.70 C 65.70 137.64 46.16 134.31 33.88 121.07 C 30.56 124.07 27.12 127.09 24.78 130.96 M 108.90 135.70 C 107.15 135.24 106.10 136.85 104.95 137.82 C 113.08 145.83 124.15 152.64 136.01 151.12 C 148.62 149.22 158.75 140.32 166.65 130.85 C 163.76 127.22 160.55 123.86 156.96 120.92 C 144.84 133.83 125.92 137.57 108.90 135.70 Z" />
</g>
</svg>
