<?xml version="1.0" encoding="UTF-8" ?>
<!DOCTYPE svg PUBLIC "-//W3C//DTD SVG 1.1//EN" "http://www.w3.org/Graphics/SVG/1.1/DTD/svg11.dtd">
<svg width="192pt" height="192pt" viewBox="0 0 192 192" version="1.1" xmlns="http://www.w3.org/2000/svg">
<g id="#ff623cff">
<path fill="#ff623c" opacity="1.00" d=" M 19.75 64.85 C 30.44 33.55 62.10 11.20 95.02 10.59 C 110.90 10.19 126.91 14.92 139.87 24.13 C 144.28 27.45 140.48 35.23 135.11 33.82 C 130.11 31.75 125.81 28.13 120.59 26.44 C 87.99 12.91 47.70 30.52 33.10 62.05 C 20.27 87.77 28.20 120.75 49.63 139.35 C 63.15 151.91 82.90 154.88 95.70 168.45 C 107.83 155.06 126.86 151.90 140.31 140.29 C 158.09 125.66 166.56 101.63 164.14 79.00 C 163.24 71.45 159.37 64.82 155.58 58.41 C 153.21 53.45 160.04 48.32 164.17 51.90 C 174.74 64.52 177.74 82.05 174.98 98.02 C 172.27 122.36 157.41 145.04 136.00 156.99 C 125.06 163.27 112.35 167.11 103.52 176.53 C 100.91 179.40 96.91 181.40 93.02 180.23 C 88.46 178.83 86.08 174.27 82.25 171.74 C 70.90 163.57 56.87 159.94 45.98 151.01 C 20.43 131.50 8.68 95.34 19.75 64.85 Z" />
<path fill="#ff623c" opacity="1.00" d=" M 155.24 25.03 C 154.71 21.13 156.13 15.65 161.01 15.84 C 165.86 15.71 167.22 21.14 166.71 25.02 C 170.70 24.47 176.24 26.03 175.98 30.99 C 175.92 35.90 170.52 36.88 166.64 36.72 C 167.31 40.55 165.77 45.97 161.00 45.73 C 156.24 46.01 154.60 40.61 155.33 36.76 C 151.41 36.83 146.06 35.94 145.94 30.98 C 145.78 26.02 151.22 24.49 155.24 25.03 Z" />
<path fill="#ff623c" opacity="1.00" d=" M 86.39 43.51 C 105.00 39.67 125.17 48.71 135.29 64.65 C 147.79 83.56 142.96 111.32 125.51 125.53 C 108.46 140.07 80.95 139.35 64.27 124.62 C 49.02 111.46 44.46 88.09 52.86 69.92 C 58.88 56.36 71.86 46.30 86.39 43.51 M 88.41 54.58 C 77.34 56.80 67.42 64.54 62.99 74.98 C 57.31 87.86 59.82 104.12 69.76 114.23 C 82.06 127.00 104.32 128.40 118.01 117.05 C 128.96 108.28 133.33 92.70 129.73 79.32 C 124.73 62.22 105.84 51.03 88.41 54.58 Z" />
</g>
</svg>
