<?xml version="1.0" encoding="UTF-8" ?>
<!DOCTYPE svg PUBLIC "-//W3C//DTD SVG 1.1//EN" "http://www.w3.org/Graphics/SVG/1.1/DTD/svg11.dtd">
<svg width="192pt" height="192pt" viewBox="0 0 192 192" version="1.1" xmlns="http://www.w3.org/2000/svg">
<g id="#40a1dfff">
<path fill="#40a1df" opacity="1.00" d=" M 47.98 25.65 C 41.65 26.12 41.42 14.46 47.96 15.27 C 86.66 15.52 125.35 15.00 164.02 14.75 C 170.48 14.06 172.03 24.47 165.77 25.80 C 156.93 26.69 147.96 25.66 139.09 26.30 C 133.49 26.92 129.18 32.39 129.50 37.94 C 129.60 66.62 129.29 95.31 129.71 123.98 C 129.19 140.74 120.12 156.89 106.25 166.25 C 87.54 179.67 60.06 178.31 42.38 163.72 C 28.41 152.74 20.66 134.69 22.45 116.99 C 23.80 98.44 35.75 81.48 52.25 73.16 C 74.19 62.10 102.92 68.64 118.08 87.95 C 118.19 71.29 118.08 54.63 118.15 37.96 C 118.03 33.69 119.41 29.61 121.10 25.75 C 96.73 25.69 72.35 25.78 47.98 25.65 M 70.39 79.48 C 57.19 80.82 45.41 89.49 38.96 100.89 C 30.65 115.46 31.86 135.22 42.79 148.14 C 52.36 160.51 69.03 166.51 84.33 163.38 C 104.14 159.90 119.83 140.19 118.17 120.01 C 118.66 95.78 94.04 75.67 70.39 79.48 Z" />
<path fill="#40a1df" opacity="1.00" d=" M 158.43 46.61 C 163.26 44.52 169.21 48.69 168.62 53.96 C 168.71 59.52 161.68 62.74 157.22 59.81 C 152.48 56.92 153.08 48.51 158.43 46.61 Z" />
<path fill="#40a1df" opacity="1.00" d=" M 72.28 109.29 C 80.14 106.29 88.92 114.39 86.59 122.46 C 85.01 130.53 73.81 133.94 68.13 127.88 C 62.20 122.54 64.57 111.56 72.28 109.29 Z" />
</g>
</svg>
