<?xml version="1.0" encoding="UTF-8" ?>
<!DOCTYPE svg PUBLIC "-//W3C//DTD SVG 1.1//EN" "http://www.w3.org/Graphics/SVG/1.1/DTD/svg11.dtd">
<svg width="192pt" height="192pt" viewBox="0 0 192 192" version="1.1" xmlns="http://www.w3.org/2000/svg">
<g id="#45e371ff">
<path fill="#45e371" opacity="1.00" d=" M 84.39 14.45 C 90.20 13.76 96.11 13.43 101.94 14.14 C 106.45 14.91 107.88 21.47 104.09 24.07 C 99.77 26.40 94.58 24.50 89.91 25.24 C 58.43 26.88 30.46 52.34 25.46 83.39 C 19.54 113.52 36.09 145.98 63.73 159.21 C 84.19 169.47 109.66 168.85 129.59 157.57 C 152.77 144.86 167.55 118.40 165.73 91.96 C 164.55 87.39 169.39 82.81 173.78 85.10 C 178.36 87.63 176.89 93.70 177.14 98.01 C 176.65 127.88 158.24 156.42 131.37 169.37 C 109.33 180.38 82.25 180.57 60.03 169.94 C 36.55 158.93 18.92 136.21 14.45 110.63 C 10.75 90.52 14.74 69.03 25.85 51.81 C 38.62 31.56 60.59 17.37 84.39 14.45 Z" />
<path fill="#45e371" opacity="1.00" d=" M 145.40 17.57 C 159.04 14.87 173.19 26.14 173.58 40.04 C 174.79 53.23 163.28 65.82 150.04 65.71 C 137.41 66.46 125.70 55.65 125.18 43.07 C 124.10 31.03 133.44 19.27 145.40 17.57 M 148.43 28.54 C 138.67 28.81 132.73 41.49 138.88 49.12 C 144.08 57.03 157.36 55.80 161.09 47.12 C 165.66 38.64 157.95 27.42 148.43 28.54 Z" />
<path fill="#45e371" opacity="1.00" d=" M 86.37 59.51 C 102.60 55.30 120.85 63.69 128.29 78.69 C 136.82 94.43 131.71 115.79 117.00 125.98 C 103.22 136.35 82.28 135.17 69.86 123.16 C 59.71 114.12 55.50 99.26 59.06 86.18 C 62.38 73.18 73.29 62.51 86.37 59.51 M 88.37 70.61 C 77.18 73.45 68.71 84.43 69.12 96.01 C 68.92 107.89 78.08 118.90 89.66 121.24 C 105.08 125.04 121.52 111.90 121.14 96.02 C 121.91 79.46 104.23 65.70 88.37 70.61 Z" />
</g>
</svg>
