<?xml version="1.0" encoding="UTF-8" ?>
<!DOCTYPE svg PUBLIC "-//W3C//DTD SVG 1.1//EN" "http://www.w3.org/Graphics/SVG/1.1/DTD/svg11.dtd">
<svg width="192pt" height="192pt" viewBox="0 0 192 192" version="1.1" xmlns="http://www.w3.org/2000/svg">
<g id="#16a9ffff">
<path fill="#16a9ff" opacity="1.00" d=" M 42.45 66.68 C 57.69 64.14 73.96 75.56 75.67 91.13 C 77.91 106.66 65.71 122.56 50.04 124.10 C 33.66 126.11 18.57 111.08 18.55 95.00 C 18.38 81.50 29.15 68.84 42.45 66.68 M 42.37 79.59 C 33.35 82.15 28.47 93.16 32.28 101.66 C 35.39 109.72 45.48 113.93 53.40 110.45 C 61.20 107.48 65.52 98.02 62.77 90.16 C 60.33 81.86 50.59 76.67 42.37 79.59 Z" />
<path fill="#16a9ff" opacity="1.00" d=" M 91.30 67.39 C 95.68 65.55 100.67 69.29 100.29 73.98 C 100.24 88.65 100.65 103.34 100.17 118.00 C 99.90 124.77 88.43 125.61 87.30 118.90 C 86.52 104.27 87.23 89.59 87.04 74.95 C 86.74 71.84 87.88 68.14 91.30 67.39 Z" />
<path fill="#16a9ff" opacity="1.00" d=" M 116.27 67.24 C 120.49 65.91 125.25 69.39 124.80 73.91 C 124.89 88.56 125.11 103.24 124.67 117.88 C 124.54 123.39 116.80 125.31 113.27 121.69 C 111.17 119.73 111.36 116.65 111.29 114.03 C 111.37 100.69 111.22 87.34 111.38 74.00 C 111.27 70.97 113.09 67.77 116.27 67.24 Z" />
<path fill="#16a9ff" opacity="1.00" d=" M 163.34 79.33 C 167.13 77.61 173.08 79.15 173.24 84.01 C 173.51 91.65 173.62 99.35 173.19 106.98 C 172.52 113.44 161.86 113.93 160.41 107.69 C 159.60 100.83 160.14 93.86 160.04 86.96 C 159.93 84.13 160.33 80.56 163.34 79.33 Z" />
<path fill="#16a9ff" opacity="1.00" d=" M 138.40 86.35 C 141.97 84.18 147.89 85.56 148.57 90.15 C 148.95 93.85 149.23 97.73 148.25 101.35 C 146.04 107.13 136.05 105.93 135.64 99.59 C 135.56 95.23 134.11 89.21 138.40 86.35 Z" />
</g>
</svg>
