<?xml version="1.0" encoding="UTF-8" ?>
<!DOCTYPE svg PUBLIC "-//W3C//DTD SVG 1.1//EN" "http://www.w3.org/Graphics/SVG/1.1/DTD/svg11.dtd">
<svg width="192pt" height="192pt" viewBox="0 0 192 192" version="1.1" xmlns="http://www.w3.org/2000/svg">
<g id="#ff643bff">
<path fill="#ff643b" opacity="1.00" d=" M 27.99 65.00 C 45.86 36.95 82.18 22.62 114.43 30.56 C 136.15 35.63 155.52 50.03 166.58 69.41 C 182.63 97.07 180.33 134.32 160.48 159.50 C 157.97 162.59 153.76 163.28 150.00 163.15 C 138.66 163.00 127.30 163.31 115.96 163.00 C 111.07 163.19 108.33 156.34 112.21 153.25 C 118.53 147.94 124.98 142.69 130.48 136.49 C 138.84 127.49 142.11 114.28 139.59 102.34 C 135.30 81.61 115.39 64.95 94.01 65.64 C 71.81 66.13 52.48 86.04 51.59 108.03 C 51.12 117.09 54.23 125.79 58.36 133.70 C 60.79 139.18 52.43 143.95 48.91 139.14 C 41.12 126.82 38.30 111.20 41.91 97.00 C 47.72 73.28 70.23 54.16 94.99 54.35 C 125.73 53.82 153.37 82.34 151.60 113.09 C 151.17 128.30 142.74 141.94 131.38 151.59 C 138.38 151.64 145.39 151.81 152.39 151.69 C 167.01 131.86 170.08 104.29 160.17 81.74 C 149.51 56.73 123.19 39.46 95.99 39.67 C 73.04 39.64 50.30 51.44 37.69 70.72 C 21.50 94.64 22.04 128.55 39.43 151.70 C 52.62 152.02 65.83 151.54 79.01 151.94 C 85.21 152.40 85.18 162.57 78.97 162.99 C 66.99 163.35 54.99 162.99 43.00 163.15 C 38.94 163.24 34.20 163.01 31.42 159.58 C 10.25 133.05 9.31 93.11 27.99 65.00 Z" />
</g>
</svg>
