<?xml version="1.0" encoding="UTF-8" ?>
<!DOCTYPE svg PUBLIC "-//W3C//DTD SVG 1.1//EN" "http://www.w3.org/Graphics/SVG/1.1/DTD/svg11.dtd">
<svg width="192pt" height="192pt" viewBox="0 0 192 192" version="1.1" xmlns="http://www.w3.org/2000/svg">
<g id="#eeaa69ff">
<path fill="#eeaa69" opacity="1.00" d=" M 105.42 14.50 C 108.83 13.65 112.61 16.37 112.53 19.97 C 112.74 36.99 112.44 54.02 112.58 71.05 C 113.22 76.44 107.61 79.09 104.76 82.78 C 103.88 84.25 100.65 86.16 100.86 83.08 C 100.68 62.38 100.82 41.67 100.80 20.97 C 100.55 18.06 102.44 15.01 105.42 14.50 Z" />
<path fill="#eeaa69" opacity="1.00" d=" M 85.38 43.49 C 88.92 43.01 91.52 46.65 91.02 49.95 C 90.93 64.22 91.20 78.52 90.72 92.76 C 87.65 95.88 83.27 90.18 80.79 88.00 C 80.50 75.34 80.75 62.66 80.67 49.99 C 80.32 47.02 82.20 43.73 85.38 43.49 Z" />
<path fill="#eeaa69" opacity="1.00" d=" M 136.27 70.25 C 141.90 67.05 147.70 75.75 142.82 79.80 C 130.28 88.70 118.88 99.44 110.12 112.13 C 98.56 129.94 94.57 151.46 93.37 172.34 C 92.39 178.85 81.83 178.48 81.29 171.92 C 79.17 131.37 101.83 91.22 136.27 70.25 Z" />
<path fill="#eeaa69" opacity="1.00" d=" M 49.21 84.22 C 52.74 82.56 56.06 85.37 58.97 87.04 C 67.79 92.78 76.61 98.62 84.88 105.11 C 89.56 109.51 82.54 117.67 77.57 113.43 C 68.89 106.06 59.07 100.22 49.00 94.96 C 44.54 93.03 44.71 85.98 49.21 84.22 Z" />
<path fill="#eeaa69" opacity="1.00" d=" M 138.35 97.31 C 141.59 95.18 146.25 98.22 145.92 102.00 C 145.86 105.18 142.68 106.74 140.67 108.69 C 122.51 124.28 113.10 148.29 112.68 171.93 C 113.24 177.44 104.59 179.20 103.01 173.90 C 100.34 144.45 114.73 114.77 138.35 97.31 Z" />
<path fill="#eeaa69" opacity="1.00" d=" M 51.41 110.49 C 60.81 111.95 67.50 120.62 75.05 125.98 C 80.41 129.18 75.54 138.12 70.06 135.01 C 63.39 129.62 56.67 124.27 49.58 119.42 C 46.07 117.20 47.37 111.18 51.41 110.49 Z" />
</g>
</svg>
