<?xml version="1.0" encoding="UTF-8" ?>
<!DOCTYPE svg PUBLIC "-//W3C//DTD SVG 1.1//EN" "http://www.w3.org/Graphics/SVG/1.1/DTD/svg11.dtd">
<svg width="192pt" height="192pt" viewBox="0 0 192 192" version="1.1" xmlns="http://www.w3.org/2000/svg">
<g id="#a419ffff">
<path fill="#a419ff" opacity="1.00" d=" M 31.28 21.33 C 45.74 19.84 60.43 21.08 74.99 20.67 C 83.06 19.94 90.88 26.82 90.65 35.03 C 90.69 48.67 90.71 62.33 90.65 75.97 C 90.76 83.68 83.71 90.35 76.05 90.10 C 62.35 90.10 48.63 90.19 34.93 90.06 C 27.58 89.98 21.03 83.46 21.10 76.08 C 21.01 62.36 21.05 48.64 21.08 34.92 C 20.99 28.78 25.40 23.01 31.28 21.33 M 34.21 32.22 C 32.14 32.82 32.35 35.26 32.29 36.95 C 32.39 49.93 32.17 62.91 32.39 75.88 C 32.24 78.33 34.99 79.09 36.95 78.87 C 49.97 78.82 63.01 78.96 76.03 78.81 C 78.10 78.99 79.73 77.03 79.38 75.02 C 79.39 61.68 79.49 48.33 79.34 34.99 C 79.37 31.65 75.36 31.85 73.01 31.84 C 60.09 32.14 47.08 31.36 34.21 32.22 Z" />
<path fill="#a419ff" opacity="1.00" d=" M 111.29 21.36 C 125.73 19.79 140.44 21.10 154.98 20.66 C 162.72 19.93 170.47 26.07 170.77 33.98 C 170.94 48.01 170.86 62.04 170.82 76.07 C 170.94 83.84 163.73 90.44 156.06 90.11 C 142.35 90.08 128.63 90.21 114.93 90.05 C 107.63 89.91 101.20 83.38 101.26 76.07 C 101.20 62.36 101.23 48.65 101.25 34.94 C 101.16 28.85 105.48 23.11 111.29 21.36 M 114.25 32.30 C 112.37 33.03 112.48 35.29 112.45 36.96 C 112.51 49.63 112.43 62.32 112.49 74.99 C 112.23 77.00 113.82 79.09 115.96 78.81 C 128.99 78.94 142.03 78.83 155.06 78.86 C 157.00 79.08 159.61 78.19 159.49 75.84 C 159.62 62.28 159.60 48.70 159.51 35.14 C 159.72 32.17 156.25 31.73 154.03 31.88 C 140.79 32.42 127.45 31.17 114.25 32.30 Z" />
<path fill="#a419ff" opacity="1.00" d=" M 31.36 101.51 C 45.82 100.24 60.47 101.33 75.01 100.95 C 82.96 100.15 90.69 106.88 90.64 114.93 C 90.73 128.64 90.71 142.35 90.66 156.07 C 90.86 163.86 83.73 170.63 75.99 170.34 C 62.33 170.36 48.66 170.42 35.00 170.31 C 27.52 170.28 20.92 163.56 21.07 156.08 C 21.03 142.36 21.00 128.64 21.09 114.92 C 21.09 108.82 25.53 103.17 31.36 101.51 M 34.30 112.39 C 31.91 113.14 32.39 116.02 32.28 117.96 C 32.39 130.60 32.20 143.25 32.37 155.88 C 32.23 157.81 34.08 159.32 35.95 159.00 C 49.31 159.05 62.67 159.08 76.03 158.98 C 78.27 159.32 79.70 157.03 79.38 155.02 C 79.38 142.00 79.43 128.98 79.37 115.96 C 79.81 113.45 77.36 111.77 75.07 112.19 C 61.48 112.32 47.87 111.91 34.30 112.39 Z" />
<path fill="#a419ff" opacity="1.00" d=" M 116.45 101.60 C 120.46 100.06 125.16 103.64 124.73 107.92 C 124.66 127.17 124.98 146.45 124.59 165.69 C 123.53 172.41 112.45 171.78 112.25 164.93 C 112.04 145.93 112.19 126.92 112.18 107.92 C 112.00 105.14 113.78 102.42 116.45 101.60 Z" />
<path fill="#a419ff" opacity="1.00" d=" M 151.27 101.27 C 153.57 100.24 156.46 101.71 157.16 104.09 C 157.85 113.89 159.36 125.66 150.32 132.33 C 145.75 135.54 151.39 138.93 153.70 141.33 C 159.43 146.70 156.85 155.12 157.43 162.01 C 157.66 165.20 157.68 170.73 153.03 170.15 C 146.00 168.62 143.61 160.30 144.04 153.94 C 144.25 144.90 132.59 142.08 131.00 134.10 C 134.71 127.35 144.10 123.72 144.15 115.01 C 143.66 109.53 145.77 103.39 151.27 101.27 Z" />
</g>
</svg>
