<?xml version="1.0" encoding="UTF-8" ?>
<!DOCTYPE svg PUBLIC "-//W3C//DTD SVG 1.1//EN" "http://www.w3.org/Graphics/SVG/1.1/DTD/svg11.dtd">
<svg width="192pt" height="192pt" viewBox="0 0 192 192" version="1.1" xmlns="http://www.w3.org/2000/svg">
<g id="#a61affff">
<path fill="#a61aff" opacity="1.00" d=" M 84.41 14.53 C 116.10 9.59 149.57 25.51 165.93 53.04 C 178.44 73.30 181.26 99.11 173.66 121.65 C 164.31 150.38 137.87 172.60 107.90 176.67 C 76.81 181.64 43.81 166.61 27.09 139.96 C 9.02 112.69 9.91 74.58 29.19 48.17 C 41.99 30.05 62.41 17.52 84.41 14.53 M 87.36 25.45 C 63.26 28.11 41.43 44.36 31.54 66.43 C 18.19 94.76 26.75 131.24 51.46 150.55 C 77.40 172.46 119.16 171.18 143.69 147.69 C 167.56 126.64 173.65 88.83 157.74 61.29 C 144.34 36.53 115.30 21.72 87.36 25.45 Z" />
<path fill="#a61aff" opacity="1.00" d=" M 90.34 49.40 C 116.78 45.37 142.93 68.30 142.50 95.01 C 143.53 120.46 120.42 143.31 95.01 142.20 C 70.98 142.20 49.58 121.04 49.43 96.99 C 48.21 73.68 67.14 51.73 90.34 49.40 M 90.47 60.70 C 75.76 62.85 63.25 75.24 61.10 89.98 C 58.52 104.23 65.98 119.45 78.64 126.38 C 91.46 133.85 108.88 131.87 119.70 121.71 C 131.50 111.31 134.79 92.70 127.05 78.97 C 120.32 65.93 104.94 58.28 90.47 60.70 Z" />
</g>
</svg>
