<?xml version="1.0" encoding="UTF-8" ?>
<!DOCTYPE svg PUBLIC "-//W3C//DTD SVG 1.1//EN" "http://www.w3.org/Graphics/SVG/1.1/DTD/svg11.dtd">
<svg width="192pt" height="192pt" viewBox="0 0 192 192" version="1.1" xmlns="http://www.w3.org/2000/svg">
<g id="#5a8ed3ff">
<path fill="#5a8ed3" opacity="1.00" d=" M 45.56 28.59 C 72.27 7.70 112.09 6.09 140.51 24.53 C 144.62 27.41 144.10 34.48 139.50 36.61 C 132.52 40.26 126.53 45.43 121.27 51.24 C 116.85 54.88 110.26 48.97 112.99 44.14 C 116.79 38.47 122.42 34.34 127.82 30.29 C 105.22 19.27 76.92 20.88 56.02 35.00 C 53.42 36.67 50.53 39.62 47.20 37.88 C 43.57 36.47 42.60 31.14 45.56 28.59 Z" />
<path fill="#5a8ed3" opacity="1.00" d=" M 154.85 53.08 C 150.92 47.70 159.56 41.11 163.74 46.28 C 184.48 73.47 185.24 113.79 165.95 141.96 C 162.93 146.38 155.40 145.40 153.48 140.43 C 149.72 132.94 144.24 126.56 138.46 120.59 C 135.18 116.11 140.81 109.78 145.64 112.44 C 151.68 116.85 155.99 123.18 160.25 129.24 C 173.08 105.50 170.71 74.84 154.85 53.08 Z" />
<path fill="#5a8ed3" opacity="1.00" d=" M 29.31 48.30 C 32.35 47.67 35.51 49.32 36.98 52.01 C 40.88 58.58 45.81 64.45 51.15 69.88 C 54.79 73.49 50.93 80.27 45.95 79.14 C 39.05 76.40 36.10 68.01 30.46 64.16 C 19.86 85.86 21.23 112.71 33.81 133.30 C 37.47 139.02 28.29 144.99 24.50 139.50 C 7.70 113.17 7.95 77.16 24.93 50.96 C 25.98 49.56 27.59 48.60 29.31 48.30 Z" />
<path fill="#5a8ed3" opacity="1.00" d=" M 91.40 58.51 C 102.75 57.06 114.64 61.18 122.60 69.42 C 132.54 79.28 136.14 95.02 131.21 108.16 C 126.12 123.02 110.79 133.84 94.99 132.87 C 77.28 133.11 61.20 118.44 58.97 101.01 C 55.46 81.03 71.25 60.48 91.40 58.51 M 91.41 69.65 C 79.00 71.65 69.22 83.43 69.57 96.00 C 69.50 109.90 82.02 122.39 96.00 121.87 C 111.72 122.47 125.14 106.45 121.86 91.07 C 119.76 77.16 105.22 66.96 91.41 69.65 Z" />
<path fill="#5a8ed3" opacity="1.00" d=" M 66.33 136.22 C 70.79 132.68 77.57 138.61 74.56 143.49 C 70.54 149.28 64.96 153.85 59.19 157.82 C 82.46 172.93 114.80 171.14 137.32 155.26 C 142.24 150.96 149.56 158.39 145.32 163.32 C 117.24 185.04 74.78 184.80 46.53 163.45 C 42.63 160.55 43.20 153.76 47.57 151.58 C 54.80 147.78 60.99 142.35 66.33 136.22 Z" />
</g>
</svg>
