<?xml version="1.0" encoding="UTF-8" ?>
<!DOCTYPE svg PUBLIC "-//W3C//DTD SVG 1.1//EN" "http://www.w3.org/Graphics/SVG/1.1/DTD/svg11.dtd">
<svg width="192pt" height="192pt" viewBox="0 0 192 192" version="1.1" xmlns="http://www.w3.org/2000/svg">
<g id="#ff3661ff">
<path fill="#ff3661" opacity="1.00" d=" M 91.08 21.07 C 93.14 18.44 97.24 17.85 99.67 20.31 C 112.66 31.66 125.73 42.93 138.62 54.38 C 141.93 57.11 140.07 63.21 135.88 63.74 C 132.61 64.54 130.22 61.82 127.98 59.95 C 117.28 50.83 106.59 41.70 95.83 32.66 C 82.57 45.68 69.52 58.98 56.78 72.51 C 86.85 72.77 116.93 72.46 147.00 72.65 C 153.28 72.18 154.82 82.21 148.72 83.61 C 132.99 84.33 117.17 83.29 101.43 84.13 C 101.47 104.41 101.60 124.71 101.38 145.00 C 100.96 151.29 90.67 151.20 90.30 144.92 C 89.93 124.58 90.37 104.22 90.09 83.87 C 74.09 83.68 58.07 84.00 42.08 83.71 C 37.48 83.44 35.55 76.96 39.09 74.07 C 56.40 56.39 73.76 38.75 91.08 21.07 Z" />
<path fill="#ff3661" opacity="1.00" d=" M 41.45 160.62 C 76.91 159.80 112.51 160.45 148.03 160.28 C 154.97 159.65 155.81 171.12 148.86 171.46 C 113.63 171.64 78.37 171.58 43.13 171.47 C 37.28 171.51 35.89 162.38 41.45 160.62 Z" />
</g>
</svg>
