<?xml version="1.0" encoding="UTF-8" ?>
<!DOCTYPE svg PUBLIC "-//W3C//DTD SVG 1.1//EN" "http://www.w3.org/Graphics/SVG/1.1/DTD/svg11.dtd">
<svg width="192pt" height="192pt" viewBox="0 0 192 192" version="1.1" xmlns="http://www.w3.org/2000/svg">
<g id="#ff633cff">
<path fill="#ff633c" opacity="1.00" d=" M 38.36 21.53 C 42.49 20.45 46.79 20.76 51.00 20.73 C 82.66 20.75 114.32 20.72 145.98 20.73 C 154.78 20.53 163.31 25.84 167.16 33.71 C 170.81 40.85 169.55 49.16 169.48 56.86 C 168.70 61.98 160.81 62.69 159.00 57.87 C 157.69 52.33 159.30 46.49 158.04 40.93 C 156.58 35.28 150.76 31.47 145.01 31.83 C 111.67 31.84 78.32 31.78 44.98 31.83 C 39.54 31.71 34.24 35.42 32.73 40.68 C 31.45 46.30 33.13 52.19 31.74 57.78 C 30.11 62.28 22.96 62.22 21.47 57.65 C 20.61 52.81 21.12 47.81 21.15 42.92 C 21.48 33.05 28.87 24.05 38.36 21.53 Z" />
<path fill="#ff633c" opacity="1.00" d=" M 33.44 68.59 C 40.59 68.25 48.14 67.50 55.00 70.03 C 60.13 72.04 61.35 78.15 61.56 83.04 C 61.71 91.35 61.66 99.66 61.59 107.97 C 61.33 112.67 60.66 118.55 56.07 121.08 C 49.88 124.12 42.71 123.32 36.03 123.28 C 30.04 123.32 22.79 120.79 21.89 114.00 C 20.33 102.89 21.05 91.51 21.39 80.33 C 21.45 73.73 26.89 68.57 33.44 68.59 M 35.36 78.52 C 32.06 79.83 32.53 84.09 32.41 86.98 C 32.62 94.50 32.01 102.06 32.74 109.56 C 33.25 114.06 38.66 113.82 42.03 113.77 C 45.32 113.98 50.02 113.23 50.05 109.01 C 50.48 100.36 50.41 91.65 50.09 82.99 C 49.47 75.97 40.17 77.65 35.36 78.52 Z" />
<path fill="#ff633c" opacity="1.00" d=" M 141.44 68.61 C 148.61 68.20 156.15 67.51 163.05 69.95 C 168.59 72.07 169.70 78.73 169.80 83.96 C 169.81 92.92 170.12 101.91 169.58 110.86 C 169.28 115.89 166.64 121.39 161.19 122.33 C 153.31 123.85 144.89 124.02 137.07 122.07 C 129.76 120.07 129.19 111.26 129.22 105.00 C 129.66 95.48 128.14 85.72 130.43 76.38 C 131.56 71.34 136.73 68.95 141.44 68.61 M 143.41 78.59 C 140.92 79.58 140.76 82.72 140.63 85.01 C 140.57 92.33 140.53 99.66 140.65 106.99 C 139.85 115.71 152.91 115.38 157.46 111.50 C 159.59 102.60 158.15 93.13 158.38 84.01 C 158.67 76.08 148.53 77.44 143.41 78.59 Z" />
<path fill="#ff633c" opacity="1.00" d=" M 73.65 72.32 C 71.92 67.10 80.61 68.98 83.48 69.56 C 88.22 76.85 90.96 85.35 95.08 93.03 C 99.20 85.38 101.98 76.97 106.59 69.63 C 109.47 68.90 118.31 67.08 116.52 72.41 C 111.61 83.09 106.10 93.49 101.23 104.18 C 100.09 109.02 101.08 114.09 100.74 119.02 C 101.25 124.48 93.25 122.95 90.10 121.90 C 87.84 115.63 91.27 108.13 88.03 101.97 C 83.19 92.11 78.32 82.26 73.65 72.32 Z" />
<path fill="#ff633c" opacity="1.00" d=" M 24.25 129.24 C 27.30 127.65 31.43 129.67 32.01 133.06 C 32.75 138.22 31.79 143.46 32.52 148.62 C 33.62 154.33 39.19 158.68 45.01 158.33 C 78.67 158.32 112.33 158.34 145.99 158.31 C 151.53 158.52 156.82 154.46 158.09 149.07 C 159.22 143.49 157.76 137.70 158.93 132.13 C 160.53 127.48 168.06 127.71 169.34 132.48 C 170.00 137.61 169.62 142.84 169.55 148.00 C 168.89 159.52 158.52 169.37 146.99 169.51 C 112.97 169.61 78.96 169.53 44.95 169.54 C 36.05 169.75 27.32 164.46 23.51 156.40 C 20.21 150.10 21.16 142.79 21.03 135.95 C 20.87 133.35 21.62 130.34 24.25 129.24 Z" />
</g>
</svg>
