<?xml version="1.0" encoding="UTF-8" ?>
<!DOCTYPE svg PUBLIC "-//W3C//DTD SVG 1.1//EN" "http://www.w3.org/Graphics/SVG/1.1/DTD/svg11.dtd">
<svg width="192pt" height="192pt" viewBox="0 0 192 192" version="1.1" xmlns="http://www.w3.org/2000/svg">
<g id="#54b9f0ff">
<path fill="#54b9f0" opacity="1.00" d=" M 40.28 21.35 C 42.16 20.92 44.09 20.73 46.02 20.75 C 80.00 20.76 113.99 20.72 147.97 20.75 C 160.18 20.75 171.00 31.75 170.81 43.95 C 170.88 77.98 170.88 112.02 170.85 146.05 C 171.15 158.33 160.35 169.45 148.07 169.52 C 113.69 169.57 79.32 169.55 44.94 169.50 C 33.01 169.46 22.35 159.01 22.12 147.07 C 22.03 112.70 22.11 78.32 22.12 43.95 C 21.99 33.40 30.03 23.58 40.28 21.35 M 42.26 32.31 C 37.18 33.66 33.11 38.59 33.26 43.93 C 33.23 77.98 33.25 112.02 33.25 146.06 C 33.02 152.43 38.65 158.26 45.01 158.32 C 79.26 158.35 113.52 158.32 147.78 158.29 C 154.18 158.26 159.77 152.45 159.66 146.07 C 159.69 112.02 159.71 77.97 159.66 43.92 C 159.72 36.87 152.87 31.18 145.99 31.80 C 111.43 32.17 76.74 31.05 42.26 32.31 Z" />
<path fill="#54b9f0" opacity="1.00" d=" M 63.40 54.56 C 84.26 54.00 105.18 54.44 126.06 54.29 C 132.95 53.96 139.32 60.06 139.13 66.98 C 139.17 75.66 139.16 84.34 139.13 93.02 C 139.28 99.53 133.51 105.57 126.97 105.57 C 106.66 105.60 86.34 105.55 66.02 105.57 C 59.22 105.96 53.02 99.84 53.11 93.08 C 53.06 84.37 53.08 75.65 53.12 66.93 C 53.00 61.04 57.63 55.58 63.40 54.56 M 64.67 65.76 C 64.28 75.19 64.27 84.70 64.68 94.12 C 85.66 94.08 106.80 94.69 127.69 93.78 C 127.91 85.18 127.77 76.57 127.76 67.97 C 128.04 66.66 127.31 65.33 125.82 65.65 C 105.44 65.71 85.04 65.42 64.67 65.76 Z" />
<path fill="#54b9f0" opacity="1.00" d=" M 57.41 118.50 C 64.65 116.41 67.15 128.70 59.64 129.52 C 52.82 130.96 50.63 119.82 57.41 118.50 Z" />
<path fill="#54b9f0" opacity="1.00" d=" M 76.43 118.50 C 79.69 117.77 83.14 120.65 82.87 124.01 C 83.25 128.22 77.71 131.18 74.42 128.58 C 70.39 126.22 71.69 119.08 76.43 118.50 Z" />
<path fill="#54b9f0" opacity="1.00" d=" M 95.45 118.53 C 98.92 118.06 102.14 121.35 101.51 124.82 C 101.09 129.05 95.02 131.18 92.27 127.72 C 88.86 124.80 91.29 119.00 95.45 118.53 Z" />
<path fill="#54b9f0" opacity="1.00" d=" M 113.48 118.66 C 120.42 116.56 122.54 128.60 115.63 129.42 C 109.04 130.68 106.96 120.02 113.48 118.66 Z" />
<path fill="#54b9f0" opacity="1.00" d=" M 130.41 119.33 C 133.77 116.75 139.28 119.72 138.92 123.96 C 139.21 127.38 135.69 130.16 132.43 129.46 C 127.75 128.78 126.40 121.78 130.41 119.33 Z" />
</g>
</svg>
