<?xml version="1.0" encoding="UTF-8" ?>
<!DOCTYPE svg PUBLIC "-//W3C//DTD SVG 1.1//EN" "http://www.w3.org/Graphics/SVG/1.1/DTD/svg11.dtd">
<svg width="192pt" height="192pt" viewBox="0 0 192 192" version="1.1" xmlns="http://www.w3.org/2000/svg">
<g id="#1bb3ffff">
<path fill="#1bb3ff" opacity="1.00" d=" M 62.06 27.07 C 65.10 23.33 71.21 25.50 71.77 30.12 C 75.23 43.85 88.75 54.12 103.03 52.76 C 108.19 53.00 116.98 50.11 118.73 57.06 C 121.09 72.79 124.06 88.43 126.65 104.12 C 126.84 105.44 127.35 106.82 128.76 107.26 C 139.63 112.65 152.46 114.81 161.39 123.61 C 166.08 127.96 168.27 134.16 169.17 140.35 C 175.91 141.17 174.87 149.07 175.12 154.00 C 175.39 158.40 175.38 165.32 169.39 165.54 C 141.89 167.27 110.39 170.17 87.64 151.35 C 80.84 141.83 67.80 149.67 58.63 145.37 C 54.76 143.21 55.19 136.91 59.25 135.24 C 62.70 133.98 66.50 134.78 70.10 134.47 C 66.01 126.98 56.84 130.64 50.01 129.83 C 45.54 130.66 38.88 128.70 39.99 122.93 C 41.34 116.78 48.85 118.19 53.51 117.99 C 41.83 106.19 29.73 94.79 18.09 82.94 C 15.40 80.42 15.95 75.97 18.69 73.71 C 34.01 58.99 47.46 42.48 62.06 27.07 M 64.32 41.98 C 56.43 51.01 48.25 59.77 40.24 68.69 C 57.17 85.12 73.91 101.73 90.80 118.20 C 97.14 124.23 102.96 131.15 111.04 134.92 C 125.28 141.94 141.66 141.05 157.09 140.69 C 156.59 136.74 154.63 133.02 151.38 130.65 C 141.67 123.30 128.64 122.38 118.96 115.00 C 114.37 111.48 115.24 105.13 113.91 100.10 C 109.49 99.99 104.96 100.51 100.63 99.42 C 96.09 98.01 95.52 90.90 99.80 88.81 C 103.60 87.09 107.94 88.20 111.97 87.75 C 107.88 82.47 97.37 89.36 92.75 83.26 C 90.38 80.07 92.24 74.94 96.23 74.29 C 100.57 73.71 104.97 73.95 109.33 73.85 C 108.81 70.66 108.25 67.48 107.68 64.29 C 98.49 64.55 88.77 64.14 80.61 59.41 C 73.43 55.51 68.51 48.78 64.32 41.98 M 32.49 80.51 C 53.05 100.60 73.47 120.84 94.00 140.96 C 112.83 157.46 139.75 155.34 163.00 153.81 L 163.00 152.53 C 139.76 153.45 113.44 154.50 94.61 138.36 C 73.44 118.27 52.90 97.51 31.92 77.21 C 30.19 78.08 31.67 79.70 32.49 80.51 Z" />
<path fill="#1bb3ff" opacity="1.00" d=" M 26.34 118.45 C 30.69 116.73 35.73 121.54 33.92 125.94 C 32.60 130.24 26.10 131.15 23.51 127.57 C 21.01 124.58 22.62 119.52 26.34 118.45 Z" />
<path fill="#1bb3ff" opacity="1.00" d=" M 41.40 135.54 C 45.02 132.94 50.55 136.01 50.58 140.36 C 50.86 144.85 45.13 148.26 41.40 145.50 C 37.79 143.41 37.80 137.64 41.40 135.54 Z" />
</g>
</svg>
