<?xml version="1.0" encoding="UTF-8" ?>
<!DOCTYPE svg PUBLIC "-//W3C//DTD SVG 1.1//EN" "http://www.w3.org/Graphics/SVG/1.1/DTD/svg11.dtd">
<svg width="192pt" height="192pt" viewBox="0 0 192 192" version="1.1" xmlns="http://www.w3.org/2000/svg">
<g id="#ff623cff">
<path fill="#ff623c" opacity="1.00" d=" M 65.54 24.59 C 74.10 20.72 80.40 32.27 88.68 28.60 C 95.04 27.53 101.53 28.26 107.78 29.63 C 113.13 26.31 119.95 22.11 126.31 24.72 C 131.75 29.83 132.00 38.02 132.92 44.96 C 135.92 49.55 139.22 53.99 141.63 58.96 C 150.14 47.12 169.81 46.91 178.85 58.15 C 180.76 60.50 182.85 63.87 181.03 66.86 C 179.26 70.00 175.05 68.73 172.45 70.43 C 170.53 72.91 171.36 76.73 169.03 78.98 C 166.42 81.62 162.49 79.61 159.28 80.31 C 156.95 82.20 155.03 84.70 151.98 85.48 C 154.18 101.16 156.39 118.03 150.08 133.06 C 141.42 154.57 117.67 167.52 95.00 166.58 C 68.02 167.38 41.21 147.13 37.38 119.87 C 36.61 108.50 36.79 96.93 39.27 85.77 C 36.56 84.17 34.13 82.21 31.80 80.12 C 29.10 79.15 25.96 81.25 23.34 79.67 C 20.02 78.01 20.71 73.71 19.15 70.88 C 16.86 67.85 11.72 70.92 9.74 67.28 C 7.48 63.04 11.62 59.12 14.34 56.31 C 23.92 46.90 41.26 47.83 49.30 58.82 C 51.68 52.12 59.06 47.78 58.69 40.20 C 59.76 34.73 60.78 28.10 65.54 24.59 M 109.03 39.14 C 101.34 37.67 93.32 36.18 85.62 38.56 C 79.44 41.18 75.54 34.21 69.90 33.26 C 67.35 38.59 68.29 44.77 66.17 50.11 C 61.25 55.89 57.45 62.45 54.35 69.36 C 53.24 72.88 48.24 74.00 45.83 71.19 C 43.53 67.84 42.25 63.59 38.65 61.29 C 33.94 57.89 27.60 58.87 22.63 61.13 C 25.38 63.80 27.75 66.84 29.16 70.43 C 33.28 70.44 37.09 72.07 40.16 74.75 C 44.41 73.41 50.80 75.57 49.84 80.97 C 47.33 90.44 45.84 100.16 46.21 109.98 C 45.00 125.80 53.93 141.52 67.42 149.56 C 85.62 161.06 110.83 160.01 128.01 147.04 C 138.01 139.62 144.41 127.50 144.82 115.04 C 145.40 103.52 144.16 91.97 141.32 80.80 C 140.38 75.33 146.79 73.60 150.99 74.86 C 154.14 72.12 158.11 70.70 162.26 70.51 C 163.38 66.65 165.97 63.57 169.07 61.13 C 163.66 58.88 156.73 57.90 151.81 61.78 C 148.57 64.14 147.48 68.16 145.37 71.37 C 143.68 73.95 139.40 73.87 137.89 71.15 C 134.19 65.15 131.56 58.46 127.08 52.95 C 121.67 47.80 124.44 39.56 121.48 33.23 C 116.72 33.88 113.51 37.96 109.03 39.14 Z" />
<path fill="#ff623c" opacity="1.00" d=" M 94.31 86.26 C 102.47 85.97 98.50 100.50 106.94 100.00 C 110.60 100.70 116.20 98.79 118.10 103.10 C 118.90 109.15 110.18 109.95 108.60 114.98 C 108.19 119.94 113.21 125.41 109.82 129.88 C 103.13 133.79 98.26 120.02 91.62 125.62 C 88.16 127.50 83.73 133.38 79.83 129.29 C 77.63 124.74 81.72 119.77 81.49 114.95 C 79.77 109.97 71.31 109.09 72.03 103.11 C 73.97 98.46 80.18 100.79 84.06 99.84 C 91.14 99.25 88.36 88.44 94.31 86.26 Z" />
</g>
</svg>
