<?xml version="1.0" encoding="UTF-8" ?>
<!DOCTYPE svg PUBLIC "-//W3C//DTD SVG 1.1//EN" "http://www.w3.org/Graphics/SVG/1.1/DTD/svg11.dtd">
<svg width="192pt" height="192pt" viewBox="0 0 192 192" version="1.1" xmlns="http://www.w3.org/2000/svg">
<g id="#1ab1ffff">
<path fill="#1ab1ff" opacity="1.00" d=" M 88.49 17.69 C 121.89 13.93 155.87 34.81 167.89 66.12 C 180.57 96.60 170.85 134.43 144.96 154.94 C 117.90 177.96 74.84 178.22 47.49 155.55 C 20.99 135.11 10.97 96.70 23.91 65.87 C 34.33 39.50 60.18 20.04 88.49 17.69 M 87.39 28.49 C 56.29 31.89 30.26 59.69 29.01 90.97 C 26.31 124.12 52.13 156.24 85.01 160.92 C 116.11 166.69 149.11 146.87 159.02 116.92 C 166.56 95.80 162.43 71.06 148.41 53.56 C 134.27 35.26 110.32 25.44 87.39 28.49 Z" />
<path fill="#1ab1ff" opacity="1.00" d=" M 83.05 59.62 C 85.07 61.09 86.45 63.19 87.82 65.24 C 93.04 63.61 98.63 63.61 103.85 65.26 C 105.22 63.20 106.66 61.18 108.45 59.46 C 107.87 61.80 106.59 63.84 105.28 65.84 C 110.43 68.59 114.45 73.42 114.90 79.42 C 102.19 79.52 89.48 79.50 76.77 79.42 C 77.22 73.44 81.27 68.61 86.38 65.83 C 85.09 63.86 83.90 61.82 83.05 59.62 M 86.24 69.96 C 86.33 71.33 86.31 72.69 86.20 74.06 C 90.60 74.76 90.63 69.31 86.24 69.96 M 103.26 70.24 C 101.32 70.37 101.73 74.60 104.01 73.92 C 106.83 74.09 106.11 68.98 103.26 70.24 Z" />
<path fill="#1ab1ff" opacity="1.00" d=" M 69.26 82.20 C 71.66 81.58 74.36 83.44 74.28 86.00 C 74.46 92.00 74.53 98.02 74.24 104.01 C 74.00 108.16 67.34 108.71 66.47 104.64 C 65.93 98.78 66.31 92.86 66.25 86.98 C 66.08 84.92 67.14 82.72 69.26 82.20 Z" />
<path fill="#1ab1ff" opacity="1.00" d=" M 77.05 81.95 C 89.58 81.91 102.11 81.87 114.65 81.97 C 114.57 92.20 114.93 102.45 114.51 112.67 C 114.04 116.07 110.04 115.96 107.46 116.35 C 107.43 119.96 107.90 123.65 107.17 127.21 C 106.08 130.45 100.95 130.42 99.74 127.29 C 98.99 123.62 99.48 119.83 99.42 116.11 C 97.03 116.11 94.64 116.11 92.25 116.09 C 92.23 119.69 92.56 123.33 92.03 126.91 C 91.16 130.29 86.00 130.56 84.59 127.45 C 83.72 123.83 84.28 120.04 84.21 116.36 C 81.44 116.04 77.10 115.84 77.10 112.07 C 76.78 102.04 76.96 91.99 77.05 81.95 Z" />
<path fill="#1ab1ff" opacity="1.00" d=" M 120.26 82.24 C 122.65 81.44 125.48 83.44 125.37 86.00 C 125.52 91.99 125.59 98.01 125.33 104.00 C 125.18 108.21 118.33 108.69 117.54 104.61 C 117.04 98.76 117.40 92.86 117.34 87.00 C 117.16 84.98 118.16 82.77 120.26 82.24 Z" />
</g>
</svg>
