<?xml version="1.0" encoding="UTF-8" ?>
<!DOCTYPE svg PUBLIC "-//W3C//DTD SVG 1.1//EN" "http://www.w3.org/Graphics/SVG/1.1/DTD/svg11.dtd">
<svg width="192pt" height="192pt" viewBox="0 0 192 192" version="1.1" xmlns="http://www.w3.org/2000/svg">
<g id="#18b5c5ff">
<path fill="#18b5c5" opacity="1.00" d=" M 34.99 30.96 C 51.22 18.43 76.19 18.52 91.64 32.34 C 93.44 33.62 95.46 36.72 97.93 35.07 C 104.19 30.20 111.31 23.11 119.74 24.29 C 132.60 34.51 138.37 52.34 135.48 68.36 C 132.02 88.75 117.72 105.78 100.71 116.76 C 90.77 122.80 81.07 129.47 73.11 138.03 C 80.18 144.23 87.30 150.39 94.47 156.47 C 96.32 158.15 98.67 156.56 100.08 155.14 C 115.59 141.29 132.07 128.49 146.60 113.59 C 156.13 103.78 164.86 91.94 166.33 77.94 C 168.29 61.94 160.91 44.25 146.08 36.86 C 142.80 34.92 137.49 34.81 136.53 30.34 C 135.31 25.73 140.77 21.81 144.85 24.10 C 168.78 31.70 181.83 59.16 176.99 83.02 C 174.27 98.54 164.46 111.66 153.61 122.60 C 138.64 137.72 121.88 150.88 105.97 164.96 C 100.39 170.13 91.13 169.50 85.91 164.12 C 67.63 147.76 47.85 132.87 31.71 114.29 C 29.26 111.81 26.82 107.80 29.52 104.58 C 40.40 90.38 59.48 86.55 71.22 73.22 C 80.85 64.23 84.83 49.32 78.87 37.23 C 65.24 29.17 46.26 33.14 36.17 45.15 C 25.57 57.39 23.75 75.56 29.61 90.37 C 31.46 96.25 22.32 100.01 19.49 94.56 C 9.99 73.16 15.92 45.18 34.99 30.96 M 92.84 46.59 C 94.65 64.45 82.94 80.20 69.02 90.00 C 60.34 96.91 49.46 100.51 41.35 108.16 C 48.34 116.33 56.43 123.47 64.39 130.67 C 73.92 120.44 85.64 112.74 97.40 105.35 C 110.34 96.25 121.34 83.00 124.29 67.12 C 126.42 56.21 123.45 44.40 116.04 36.05 C 108.17 39.53 102.69 49.25 92.84 46.59 Z" />
</g>
</svg>
