<?xml version="1.0" encoding="UTF-8" ?>
<!DOCTYPE svg PUBLIC "-//W3C//DTD SVG 1.1//EN" "http://www.w3.org/Graphics/SVG/1.1/DTD/svg11.dtd">
<svg width="192pt" height="192pt" viewBox="0 0 192 192" version="1.1" xmlns="http://www.w3.org/2000/svg">
<g id="#17acffff">
<path fill="#17acff" opacity="1.00" d=" M 53.39 13.51 C 63.71 11.75 74.93 15.29 82.32 22.69 C 88.00 28.70 86.07 39.00 79.22 43.26 C 69.73 49.56 61.42 57.40 53.92 65.93 C 49.16 71.65 39.78 71.70 34.95 66.06 C 20.32 48.73 30.42 17.27 53.39 13.51 M 45.31 30.32 C 38.26 37.76 36.63 52.24 44.67 59.31 C 52.48 50.90 60.37 42.40 70.02 36.04 C 71.66 34.59 74.56 33.58 74.49 30.99 C 67.29 22.93 52.62 21.56 45.31 30.32 Z" />
<path fill="#17acff" opacity="1.00" d=" M 99.39 42.51 C 117.33 38.93 136.89 45.26 149.18 58.85 C 163.09 73.57 166.88 96.50 159.17 115.10 C 151.16 135.02 130.38 148.48 108.97 148.14 C 102.13 147.36 96.45 152.37 94.65 158.68 C 88.92 173.43 71.45 180.84 56.57 176.42 C 45.75 173.14 37.57 163.14 35.92 152.03 C 29.94 119.77 41.41 84.79 65.28 62.28 C 74.90 53.23 86.07 44.87 99.39 42.51 M 102.36 53.44 C 93.32 54.78 85.42 59.81 78.54 65.57 C 53.10 85.96 40.19 121.31 47.73 153.17 C 50.97 166.10 68.32 170.28 78.19 162.26 C 84.89 157.33 85.26 147.86 91.71 142.72 C 97.36 137.32 105.46 136.66 112.86 136.58 C 132.27 135.57 149.50 119.34 151.50 100.00 C 151.73 93.48 151.95 86.75 149.41 80.60 C 143.01 61.75 121.88 49.61 102.36 53.44 Z" />
<path fill="#17acff" opacity="1.00" d=" M 104.35 71.42 C 114.03 69.11 124.84 73.49 130.08 81.97 C 135.84 90.64 134.82 103.07 127.74 110.71 C 117.56 122.89 95.81 120.63 88.59 106.40 C 80.69 93.15 89.15 74.22 104.35 71.42 M 106.38 82.55 C 97.53 84.42 93.79 96.48 99.92 103.09 C 106.10 110.68 120.01 107.61 122.14 97.96 C 124.96 88.87 115.33 79.76 106.38 82.55 Z" />
</g>
</svg>
