<?xml version="1.0" encoding="UTF-8" ?>
<!DOCTYPE svg PUBLIC "-//W3C//DTD SVG 1.1//EN" "http://www.w3.org/Graphics/SVG/1.1/DTD/svg11.dtd">
<svg width="192pt" height="192pt" viewBox="0 0 192 192" version="1.1" xmlns="http://www.w3.org/2000/svg">
<g id="#7d8a8cff">
<path fill="#7d8a8c" opacity="1.00" d=" M 57.34 13.39 C 60.10 12.34 63.09 12.37 66.00 12.36 C 92.65 12.45 119.31 12.26 145.97 12.40 C 154.15 12.46 161.35 19.81 161.21 28.00 C 161.28 72.33 161.24 116.66 161.24 160.99 C 161.74 169.79 153.75 177.66 144.99 177.27 C 117.66 177.30 90.33 177.31 63.00 177.25 C 55.11 177.43 47.65 171.01 47.11 163.05 C 46.90 157.74 46.70 152.38 47.23 147.09 C 48.18 142.13 55.87 141.73 57.60 146.35 C 58.86 151.72 57.55 157.33 58.33 162.76 C 58.90 165.25 61.60 166.41 63.95 166.13 C 90.99 166.08 118.04 166.11 145.08 166.05 C 147.84 166.36 150.32 163.80 150.06 161.06 C 150.13 117.03 150.15 72.98 150.12 28.94 C 150.43 25.98 148.09 23.08 144.99 23.46 C 117.14 23.54 89.26 23.19 61.42 23.60 C 55.36 26.41 59.24 34.82 58.07 40.05 C 59.09 46.04 50.12 49.05 47.57 43.46 C 46.46 33.00 44.86 17.74 57.34 13.39 Z" />
<path fill="#7d8a8c" opacity="1.00" d=" M 94.36 28.47 C 99.68 26.88 105.52 28.07 111.05 27.75 C 114.33 26.95 116.17 31.67 113.32 33.35 C 107.63 33.87 101.86 33.59 96.15 33.51 C 93.59 33.69 92.55 30.04 94.36 28.47 Z" />
<path fill="#7d8a8c" opacity="1.00" d=" M 70.46 48.61 C 91.96 45.56 114.26 59.59 120.69 80.34 C 125.21 94.04 122.95 109.82 114.50 121.55 C 104.93 135.30 87.56 143.08 70.93 140.99 C 56.25 139.46 42.61 130.48 35.43 117.59 C 27.53 103.87 27.46 86.06 35.27 72.29 C 42.34 59.38 55.86 50.34 70.46 48.61 M 68.35 60.41 C 53.98 63.49 42.36 76.29 40.97 90.96 C 38.85 106.98 49.55 123.27 64.87 128.14 C 79.02 133.12 95.92 127.85 104.70 115.69 C 113.35 104.41 113.96 87.79 106.11 75.94 C 98.38 63.55 82.58 56.94 68.35 60.41 Z" />
<path fill="#7d8a8c" opacity="1.00" d=" M 48.90 91.67 C 46.69 83.48 57.53 82.52 62.58 85.37 C 65.32 88.17 64.32 92.56 63.22 95.89 C 65.18 99.70 65.65 107.24 59.90 107.70 C 55.85 108.05 48.79 108.81 48.59 102.98 C 47.51 100.08 50.78 100.30 52.64 100.22 C 53.17 101.43 53.75 102.63 54.39 103.79 C 56.43 103.79 60.14 104.15 59.62 101.02 C 60.36 97.54 56.12 98.07 53.90 97.66 C 53.73 96.48 53.70 95.29 53.79 94.10 C 55.55 93.94 57.32 93.82 59.08 93.65 C 59.48 91.86 59.44 90.05 58.81 88.33 C 57.38 88.30 55.95 88.34 54.53 88.38 C 54.00 89.51 53.39 90.59 52.78 91.67 C 51.48 91.67 50.19 91.67 48.90 91.67 Z" />
<path fill="#7d8a8c" opacity="1.00" d=" M 68.32 86.36 C 72.74 82.05 84.69 82.97 83.37 91.34 C 81.89 91.49 80.41 91.56 78.93 91.55 C 78.42 90.47 77.91 89.39 77.39 88.32 C 75.81 88.35 74.23 88.46 72.66 88.58 C 72.47 90.24 72.30 91.90 72.15 93.57 C 75.90 93.07 82.12 91.72 83.35 96.68 C 83.89 100.39 84.71 106.74 79.71 107.63 C 75.49 108.49 67.67 108.90 67.53 102.85 C 67.69 97.40 66.58 91.60 68.32 86.36 M 72.51 97.54 C 72.45 99.51 72.47 101.48 72.50 103.46 C 75.25 104.04 79.92 104.26 78.77 100.02 C 79.30 96.24 74.84 97.41 72.51 97.54 Z" />
<path fill="#7d8a8c" opacity="1.00" d=" M 90.34 84.47 C 94.18 84.12 99.79 82.95 102.27 86.70 C 103.73 91.98 103.12 97.63 102.88 103.05 C 102.63 108.83 95.19 108.42 91.09 107.74 C 85.27 107.23 86.56 100.08 86.40 96.01 C 86.69 92.15 85.22 85.64 90.34 84.47 M 91.61 89.42 C 91.17 93.78 91.16 98.23 91.60 102.59 C 92.85 104.34 96.49 104.23 97.80 102.77 C 98.57 98.05 98.48 93.10 97.59 88.39 C 95.65 88.66 92.90 87.52 91.61 89.42 Z" />
<path fill="#7d8a8c" opacity="1.00" d=" M 100.21 156.12 C 103.17 156.02 107.58 154.60 109.42 157.67 C 111.49 165.09 93.18 162.41 100.21 156.12 Z" />
</g>
</svg>
