<?xml version="1.0" encoding="UTF-8" ?>
<!DOCTYPE svg PUBLIC "-//W3C//DTD SVG 1.1//EN" "http://www.w3.org/Graphics/SVG/1.1/DTD/svg11.dtd">
<svg width="192pt" height="192pt" viewBox="0 0 192 192" version="1.1" xmlns="http://www.w3.org/2000/svg">
<g id="#4399c0ff">
<path fill="#4399c0" opacity="1.00" d=" M 32.44 25.93 C 32.33 19.84 37.92 14.43 44.01 14.75 C 69.32 14.75 94.65 14.68 119.96 14.78 C 139.07 15.26 156.48 30.26 159.99 49.01 C 161.69 59.58 160.58 70.36 160.85 81.02 C 160.95 101.51 144.32 120.37 123.97 122.81 C 112.55 123.82 101.04 123.00 89.58 123.30 C 89.63 136.86 89.62 150.42 89.60 163.98 C 89.86 170.24 84.22 175.82 77.97 175.55 C 66.66 175.58 55.34 175.60 44.03 175.53 C 37.83 175.80 32.27 170.25 32.43 164.08 C 32.36 118.03 32.39 71.97 32.44 25.93 M 43.65 26.13 C 43.63 72.14 43.62 118.14 43.68 164.14 C 55.22 164.21 66.75 164.19 78.29 164.14 C 78.38 149.40 78.27 134.66 78.35 119.92 C 78.05 116.10 80.99 112.16 84.95 111.98 C 96.98 111.59 109.03 112.16 121.06 111.71 C 136.14 110.56 149.00 97.14 149.53 82.03 C 149.67 73.33 149.68 64.62 149.53 55.92 C 149.02 40.12 134.91 26.06 119.01 26.14 C 93.89 26.13 68.77 26.15 43.65 26.13 Z" />
<path fill="#4399c0" opacity="1.00" d=" M 77.38 45.54 C 85.57 44.95 93.83 45.36 102.05 45.23 C 110.29 44.89 117.98 51.75 118.57 59.96 C 118.81 65.93 118.82 71.92 118.60 77.89 C 118.08 85.79 111.02 92.62 103.07 92.69 C 95.04 92.77 87.00 92.78 78.97 92.62 C 74.48 92.60 70.78 88.42 70.82 84.02 C 70.76 74.01 70.70 63.99 70.87 53.98 C 70.84 50.11 73.61 46.46 77.38 45.54 M 82.12 56.39 C 81.65 64.75 81.75 73.16 82.16 81.53 C 89.27 81.30 96.41 81.80 103.50 81.24 C 108.93 79.85 107.20 73.14 107.46 69.00 C 107.12 64.93 108.95 58.90 104.22 56.79 C 96.90 55.99 89.48 56.73 82.12 56.39 Z" />
</g>
</svg>
