<?xml version="1.0" encoding="UTF-8" ?>
<!DOCTYPE svg PUBLIC "-//W3C//DTD SVG 1.1//EN" "http://www.w3.org/Graphics/SVG/1.1/DTD/svg11.dtd">
<svg width="192pt" height="192pt" viewBox="0 0 192 192" version="1.1" xmlns="http://www.w3.org/2000/svg">
<g id="#ff653bff">
<path fill="#ff653b" opacity="1.00" d=" M 94.49 14.57 C 98.63 11.67 104.91 16.04 103.17 20.96 C 101.61 26.50 103.63 32.36 107.78 36.22 C 118.65 47.02 131.53 55.76 141.28 67.71 C 152.77 81.74 160.17 99.66 159.56 117.98 C 159.16 134.61 151.17 150.76 138.45 161.41 C 113.81 181.94 73.90 181.78 50.23 159.77 C 37.98 148.28 30.54 131.10 32.58 114.21 C 34.32 99.59 44.85 87.11 57.65 80.54 C 63.37 78.33 67.75 87.30 62.46 90.41 C 53.90 95.80 45.82 103.56 44.04 113.97 C 41.51 129.11 49.12 144.74 60.93 154.07 C 80.10 168.99 109.05 168.75 128.62 154.70 C 141.39 145.54 149.01 129.74 148.18 114.04 C 147.40 94.48 136.53 76.60 122.02 63.98 C 111.38 53.42 96.30 45.64 91.66 30.44 C 85.02 36.02 78.76 42.67 76.28 51.20 C 73.00 60.92 74.48 71.76 79.22 80.74 C 84.19 91.28 95.14 97.52 99.77 108.27 C 103.22 115.84 103.12 125.80 96.99 131.99 C 89.64 139.57 76.93 139.16 68.60 133.41 C 59.74 127.22 54.44 116.56 53.42 105.96 C 53.35 99.52 63.85 98.93 64.47 105.34 C 66.11 115.08 72.48 127.34 84.02 126.34 C 91.26 125.97 92.18 116.97 89.05 111.95 C 84.40 103.59 76.03 98.05 71.30 89.70 C 63.65 77.30 60.81 61.59 65.60 47.62 C 70.01 33.02 82.16 22.62 94.49 14.57 Z" />
</g>
</svg>
