<?xml version="1.0" encoding="UTF-8" ?>
<!DOCTYPE svg PUBLIC "-//W3C//DTD SVG 1.1//EN" "http://www.w3.org/Graphics/SVG/1.1/DTD/svg11.dtd">
<svg width="192pt" height="192pt" viewBox="0 0 192 192" version="1.1" xmlns="http://www.w3.org/2000/svg">
<g id="#767990ff">
<path fill="#767990" opacity="1.00" d=" M 28.36 21.51 C 40.73 19.78 53.48 21.24 66.00 20.73 C 78.98 19.92 91.33 30.87 91.70 43.93 C 91.82 55.97 91.74 68.01 91.74 80.06 C 92.10 86.35 86.21 91.90 79.99 91.49 C 68.00 91.44 56.01 91.59 44.03 91.41 C 31.96 90.83 21.43 80.19 21.16 68.08 C 21.04 56.03 21.11 43.98 21.13 31.94 C 21.05 27.38 24.09 23.06 28.36 21.51 M 32.34 32.18 C 32.43 43.80 32.33 55.44 32.39 67.06 C 32.22 74.24 38.88 80.49 45.99 80.23 C 57.53 80.08 69.12 80.63 80.63 79.95 C 80.39 68.30 80.66 56.65 80.50 45.01 C 80.47 38.43 74.75 32.22 68.07 32.19 C 56.16 32.12 44.25 32.16 32.34 32.18 Z" />
<path fill="#767990" opacity="1.00" d=" M 119.27 21.30 C 132.43 20.03 145.76 21.05 158.99 20.73 C 165.18 20.29 171.05 25.69 170.83 31.95 C 170.83 43.99 170.90 56.03 170.80 68.07 C 170.60 80.54 159.41 91.43 146.97 91.50 C 134.99 91.54 123.00 91.58 111.03 91.47 C 105.04 91.51 99.87 86.01 100.10 80.07 C 100.12 68.02 100.03 55.97 100.17 43.92 C 100.52 33.20 108.86 23.59 119.27 21.30 M 111.48 44.94 C 111.38 56.59 111.55 68.25 111.40 79.90 C 122.92 80.49 134.48 80.03 146.01 80.13 C 153.12 80.38 159.57 74.10 159.50 66.99 C 159.61 55.40 159.51 43.80 159.54 32.20 C 148.01 32.11 136.48 32.18 124.95 32.15 C 117.94 31.70 111.48 37.97 111.48 44.94 Z" />
<path fill="#767990" opacity="1.00" d=" M 40.27 100.34 C 53.43 98.99 66.76 100.04 79.99 99.73 C 86.17 99.32 91.94 104.74 91.84 110.93 C 91.89 122.98 91.95 135.02 91.83 147.06 C 91.56 159.54 80.43 170.47 67.96 170.56 C 55.98 170.66 44.00 170.64 32.02 170.55 C 25.98 170.56 20.84 165.06 21.01 159.07 C 20.99 147.36 20.94 135.65 21.03 123.94 C 21.06 112.88 29.46 102.62 40.27 100.34 M 32.44 123.92 C 32.32 135.58 32.50 147.25 32.37 158.91 C 43.90 159.42 55.47 158.99 67.02 159.11 C 74.11 159.42 80.55 153.06 80.42 145.98 C 80.52 134.39 80.43 122.80 80.47 111.22 C 68.96 111.09 57.44 111.18 45.93 111.16 C 38.95 110.78 32.49 116.96 32.44 123.92 Z" />
<path fill="#767990" opacity="1.00" d=" M 107.34 100.52 C 119.73 98.77 132.46 100.22 144.99 99.73 C 157.97 98.95 170.40 109.83 170.73 122.94 C 170.81 135.29 170.81 147.66 170.74 160.01 C 170.71 166.04 164.87 170.90 158.98 170.54 C 147.00 170.51 135.01 170.67 123.03 170.46 C 110.96 169.87 100.43 159.19 100.19 147.08 C 100.10 135.03 100.15 122.98 100.17 110.94 C 100.02 106.39 103.17 102.14 107.34 100.52 M 111.40 111.19 C 111.49 122.82 111.39 134.44 111.44 146.07 C 111.28 153.22 117.87 159.53 124.99 159.22 C 136.54 159.06 148.13 159.58 159.66 158.95 C 159.43 147.30 159.71 135.65 159.53 124.00 C 159.48 117.03 153.09 110.77 146.06 111.16 C 134.51 111.17 122.95 111.13 111.40 111.19 Z" />
</g>
</svg>
