<?xml version="1.0" encoding="UTF-8" ?>
<!DOCTYPE svg PUBLIC "-//W3C//DTD SVG 1.1//EN" "http://www.w3.org/Graphics/SVG/1.1/DTD/svg11.dtd">
<svg width="192pt" height="192pt" viewBox="0 0 192 192" version="1.1" xmlns="http://www.w3.org/2000/svg">
<g id="#cf6750ff">
<path fill="#cf6750" opacity="1.00" d=" M 28.31 25.34 C 32.18 23.95 36.71 26.59 36.27 30.97 C 36.20 74.66 36.51 118.36 36.16 162.03 C 35.19 168.35 24.86 167.51 25.19 161.05 C 25.01 118.02 25.33 74.99 25.20 31.96 C 24.95 29.40 25.71 26.41 28.31 25.34 Z" />
<path fill="#cf6750" opacity="1.00" d=" M 104.31 42.38 C 127.57 38.27 152.26 51.55 161.92 73.03 C 169.80 89.72 168.20 110.44 157.73 125.66 C 147.83 140.67 129.98 149.99 112.01 149.54 C 95.37 149.44 79.15 141.01 69.33 127.60 C 58.63 113.39 55.83 93.73 62.08 77.09 C 68.57 59.05 85.34 45.23 104.31 42.38 M 106.40 53.49 C 92.89 55.47 80.63 64.38 74.59 76.63 C 67.73 90.06 68.87 107.16 77.49 119.55 C 85.63 131.70 100.34 139.07 114.96 138.15 C 129.96 137.59 144.13 128.32 150.87 114.95 C 157.25 102.79 157.09 87.48 150.43 75.47 C 142.23 59.87 123.82 50.64 106.40 53.49 Z" />
</g>
</svg>
