<?xml version="1.0" encoding="UTF-8" ?>
<!DOCTYPE svg PUBLIC "-//W3C//DTD SVG 1.1//EN" "http://www.w3.org/Graphics/SVG/1.1/DTD/svg11.dtd">
<svg width="192pt" height="192pt" viewBox="0 0 192 192" version="1.1" xmlns="http://www.w3.org/2000/svg">
<g id="#a81cffff">
<path fill="#a81cff" opacity="1.00" d=" M 146.43 19.65 C 157.51 17.63 169.16 25.04 172.23 35.83 C 176.26 47.89 168.41 62.05 156.09 65.06 C 143.26 68.91 128.77 59.28 127.24 46.03 C 125.12 33.91 134.26 21.36 146.43 19.65 Z" />
<path fill="#a81cff" opacity="1.00" d=" M 33.37 20.54 C 41.67 17.67 51.41 20.22 57.34 26.66 C 63.61 33.17 65.45 43.47 61.80 51.74 C 58.29 60.29 49.25 66.23 39.98 65.78 C 29.00 65.82 19.07 56.81 17.69 45.98 C 15.88 35.16 22.91 23.79 33.37 20.54 M 36.34 31.42 C 28.78 33.99 26.07 44.60 31.56 50.44 C 36.97 57.33 49.12 55.04 51.74 46.71 C 55.59 37.70 45.34 27.40 36.34 31.42 Z" />
<path fill="#a81cff" opacity="1.00" d=" M 88.36 20.47 C 96.66 17.69 106.40 20.28 112.26 26.76 C 118.65 33.42 120.35 44.03 116.37 52.36 C 112.61 60.86 103.30 66.50 94.01 65.77 C 83.28 65.39 73.77 56.45 72.49 45.84 C 70.77 34.99 77.86 23.66 88.36 20.47 M 91.32 31.38 C 85.27 33.41 81.85 40.77 84.20 46.71 C 86.18 52.53 93.08 55.99 98.92 54.01 C 105.01 52.27 108.81 45.15 106.76 39.13 C 105.00 32.81 97.47 28.84 91.32 31.38 Z" />
<path fill="#a81cff" opacity="1.00" d=" M 36.35 73.44 C 44.95 71.74 54.28 75.54 59.30 82.72 C 64.88 90.24 65.11 101.18 59.92 108.97 C 54.83 117.06 44.39 121.29 35.12 118.86 C 24.87 116.55 17.10 106.51 17.44 96.00 C 17.37 85.25 25.74 75.25 36.35 73.44 M 39.39 84.39 C 32.79 84.84 27.67 91.55 28.76 98.02 C 29.56 104.23 35.81 109.12 42.05 108.13 C 48.32 107.49 53.24 101.22 52.39 94.97 C 51.84 88.68 45.68 83.61 39.39 84.39 Z" />
<path fill="#a81cff" opacity="1.00" d=" M 91.32 73.39 C 108.37 69.58 124.03 88.98 116.83 104.87 C 111.25 121.05 87.24 124.67 77.22 110.76 C 66.19 97.98 74.56 75.64 91.32 73.39 Z" />
<path fill="#a81cff" opacity="1.00" d=" M 146.31 73.34 C 163.20 69.77 178.64 88.85 171.69 104.65 C 166.36 120.63 142.94 124.74 132.56 111.44 C 120.67 98.78 129.06 75.47 146.31 73.34 Z" />
<path fill="#a81cff" opacity="1.00" d=" M 34.36 126.52 C 48.12 122.14 63.58 133.62 63.64 147.96 C 64.54 160.49 53.58 172.19 41.03 172.16 C 29.58 172.60 18.89 163.34 17.63 151.97 C 15.93 140.87 23.51 129.37 34.36 126.52 M 37.33 137.41 C 31.31 139.01 27.24 145.86 29.06 151.89 C 30.44 158.08 37.35 162.20 43.45 160.50 C 49.98 159.02 54.14 151.44 51.84 145.14 C 49.97 139.24 43.28 135.69 37.33 137.41 Z" />
<path fill="#a81cff" opacity="1.00" d=" M 89.35 126.47 C 106.06 121.09 123.39 139.17 117.52 155.65 C 113.39 172.06 90.09 177.87 78.86 165.14 C 66.43 153.51 72.76 130.24 89.35 126.47 M 92.31 137.39 C 86.17 138.90 82.08 145.86 83.91 151.96 C 85.35 158.15 92.32 162.26 98.43 160.45 C 104.83 158.91 108.89 151.50 106.69 145.28 C 104.96 139.34 98.25 135.73 92.31 137.39 Z" />
<path fill="#a81cff" opacity="1.00" d=" M 144.32 126.40 C 155.01 123.38 167.11 129.44 171.33 139.66 C 176.84 151.48 170.15 166.92 157.70 170.87 C 145.87 175.40 131.48 168.05 128.04 155.91 C 123.82 143.75 131.80 129.31 144.32 126.40 Z" />
</g>
</svg>
