<?xml version="1.0" encoding="UTF-8" ?>
<!DOCTYPE svg PUBLIC "-//W3C//DTD SVG 1.1//EN" "http://www.w3.org/Graphics/SVG/1.1/DTD/svg11.dtd">
<svg width="192pt" height="192pt" viewBox="0 0 192 192" version="1.1" xmlns="http://www.w3.org/2000/svg">
<g id="#30cab5ff">
<path fill="#30cab5" opacity="1.00" d=" M 75.81 37.83 C 88.44 24.88 109.72 22.18 125.61 30.46 C 137.00 36.12 145.82 45.83 152.64 56.38 C 164.71 75.12 172.95 96.26 177.46 118.04 C 178.25 121.32 174.51 122.45 171.98 122.41 C 147.47 122.96 121.95 122.20 99.31 111.70 C 85.28 105.40 72.96 94.18 67.50 79.59 C 64.11 70.64 64.27 60.69 66.99 51.59 C 58.42 52.57 49.23 52.84 41.82 57.80 C 30.84 65.78 23.46 79.50 25.62 93.28 C 28.35 113.22 44.37 128.68 61.71 137.26 C 88.72 150.86 119.51 153.78 149.31 153.95 C 146.59 145.30 143.91 136.64 142.30 127.71 C 146.33 128.27 152.47 126.99 154.22 131.85 C 157.34 141.19 160.41 150.59 162.70 160.18 C 163.62 162.73 161.98 165.89 158.99 165.51 C 124.52 165.58 88.67 163.39 57.30 147.72 C 40.69 139.73 26.12 126.57 18.53 109.58 C 11.54 93.60 12.33 73.37 23.53 59.48 C 34.10 46.72 50.93 40.89 67.05 39.87 C 69.99 39.41 73.72 40.56 75.81 37.83 M 76.96 58.03 C 73.56 71.33 80.63 84.90 90.76 93.26 C 111.35 109.59 139.14 111.49 164.41 111.22 C 159.08 91.63 150.98 72.55 138.78 56.21 C 130.80 45.72 118.85 36.36 104.99 37.10 C 92.39 36.85 79.75 45.43 76.96 58.03 Z" />
</g>
</svg>
