<?xml version="1.0" encoding="UTF-8" ?>
<!DOCTYPE svg PUBLIC "-//W3C//DTD SVG 1.1//EN" "http://www.w3.org/Graphics/SVG/1.1/DTD/svg11.dtd">
<svg width="192pt" height="192pt" viewBox="0 0 192 192" version="1.1" xmlns="http://www.w3.org/2000/svg">
<g id="#ec8f77ff">
<path fill="#ec8f77" opacity="1.00" d=" M 45.22 32.18 C 73.12 9.22 115.97 7.49 145.26 28.85 C 154.12 27.26 163.04 25.79 172.03 25.20 C 177.61 25.41 179.03 34.06 173.77 36.01 C 168.09 37.31 162.20 37.36 156.46 38.41 C 180.78 62.55 186.94 102.46 170.92 132.77 C 156.39 161.88 123.47 180.28 91.04 177.29 C 71.22 175.80 52.19 166.78 38.33 152.54 C 37.94 158.35 38.62 164.16 38.64 169.96 C 37.84 175.68 28.63 175.83 27.64 170.16 C 26.17 160.19 27.06 150.04 27.94 140.06 C 26.65 136.30 24.04 133.11 22.58 129.39 C 8.89 100.19 15.01 63.46 37.04 39.99 C 31.65 34.98 24.98 31.34 17.64 30.28 C 11.74 29.31 12.29 19.81 18.18 19.32 C 28.46 19.72 37.87 25.28 45.22 32.18 M 52.92 40.75 C 56.28 45.62 59.77 50.54 61.87 56.11 C 63.66 61.33 56.12 65.63 52.50 61.51 C 49.52 57.40 47.93 52.33 44.22 48.74 C 26.59 68.38 21.65 97.89 31.58 122.29 C 38.92 96.51 54.52 73.00 76.38 57.30 C 92.22 45.54 110.65 37.73 129.58 32.49 C 105.35 20.04 73.81 23.08 52.92 40.75 M 83.88 65.88 C 60.52 82.41 44.63 108.69 40.16 136.87 C 56.52 161.19 89.56 171.95 117.44 163.50 C 136.97 157.96 153.70 143.52 162.14 125.08 C 175.69 96.88 167.23 60.48 142.75 41.04 C 121.81 45.46 101.30 53.28 83.88 65.88 Z" />
</g>
</svg>
