<?xml version="1.0" encoding="UTF-8" ?>
<!DOCTYPE svg PUBLIC "-//W3C//DTD SVG 1.1//EN" "http://www.w3.org/Graphics/SVG/1.1/DTD/svg11.dtd">
<svg width="192pt" height="192pt" viewBox="0 0 192 192" version="1.1" xmlns="http://www.w3.org/2000/svg">
<g id="#21acf7ff">
<path fill="#21acf7" opacity="1.00" d=" M 39.38 21.54 C 43.16 20.53 47.12 20.74 51.00 20.73 C 83.33 20.78 115.67 20.68 148.00 20.76 C 160.22 20.73 170.99 31.73 170.83 43.92 C 170.86 64.29 170.99 84.68 170.79 105.04 C 170.98 111.34 160.76 112.19 159.90 105.93 C 159.32 85.28 159.92 64.58 159.63 43.91 C 159.68 37.30 153.59 31.69 147.05 31.88 C 113.35 31.78 79.65 31.80 45.95 31.83 C 39.38 31.62 33.12 37.22 33.28 43.92 C 33.23 77.97 33.25 112.02 33.28 146.08 C 33.05 152.81 39.25 158.72 45.95 158.32 C 79.89 158.29 113.83 158.35 147.77 158.25 C 154.26 158.27 159.79 152.35 159.69 145.93 C 160.07 143.40 159.37 139.67 156.03 140.00 C 144.02 139.62 131.99 140.07 119.98 139.80 C 113.92 139.83 108.91 133.94 109.51 127.99 C 109.88 122.28 115.26 117.63 120.95 117.89 C 133.98 117.84 147.03 117.82 160.07 117.90 C 165.58 117.73 170.59 122.47 170.80 127.97 C 170.97 134.64 171.00 141.33 170.76 148.01 C 170.09 159.59 159.64 169.46 148.05 169.52 C 114.01 169.62 79.97 169.53 45.93 169.54 C 30.54 170.24 19.40 154.53 22.03 140.00 C 22.08 107.98 22.01 75.95 22.09 43.92 C 22.00 33.68 29.52 24.13 39.38 21.54 M 118.32 124.24 C 114.85 125.82 114.54 131.19 117.78 133.19 C 120.94 135.56 126.02 132.96 125.92 129.00 C 126.17 125.22 121.60 122.29 118.32 124.24 Z" />
<path fill="#21acf7" opacity="1.00" d=" M 104.10 59.45 C 108.55 59.08 111.32 55.75 114.23 52.82 C 115.92 54.29 115.37 56.76 115.74 58.73 C 116.64 58.77 118.43 58.86 119.33 58.90 C 119.40 61.31 119.42 63.71 119.38 66.12 C 118.09 66.14 116.81 66.17 115.52 66.20 C 115.51 73.60 115.64 81.01 115.44 88.42 C 113.07 88.41 110.71 88.38 108.35 88.31 C 108.19 80.98 108.31 73.64 108.26 66.31 C 106.90 66.15 105.53 65.99 104.17 65.82 C 104.13 63.70 104.12 61.57 104.10 59.45 Z" />
<path fill="#21acf7" opacity="1.00" d=" M 40.53 59.22 C 45.52 59.40 50.61 58.68 55.55 59.59 C 60.60 62.30 59.27 69.25 59.01 73.99 C 58.47 79.67 51.90 79.81 47.55 79.54 C 47.58 82.44 47.57 85.34 47.50 88.24 C 45.18 88.27 42.87 88.27 40.56 88.16 C 40.45 78.51 40.53 68.87 40.53 59.22 M 47.60 65.59 C 47.58 67.86 47.56 70.12 47.55 72.39 C 49.13 72.32 50.71 72.27 52.29 72.23 C 52.18 70.30 52.07 68.38 51.92 66.45 C 50.48 66.17 49.04 65.88 47.60 65.59 Z" />
<path fill="#21acf7" opacity="1.00" d=" M 64.11 59.13 C 69.17 59.72 77.20 57.01 79.42 63.37 C 80.22 71.36 79.78 79.48 79.56 87.50 C 73.77 87.89 65.28 90.41 61.65 84.38 C 61.09 80.02 59.96 74.56 62.75 70.78 C 65.41 67.04 71.69 70.44 73.31 65.83 C 70.28 65.64 67.23 65.59 64.19 65.55 C 64.17 63.41 64.15 61.27 64.11 59.13 M 68.32 75.29 C 68.31 77.38 68.32 79.48 68.35 81.57 C 69.78 81.57 71.21 81.57 72.64 81.56 C 72.67 79.47 72.67 77.38 72.64 75.30 C 71.20 75.29 69.76 75.28 68.32 75.29 Z" />
<path fill="#21acf7" opacity="1.00" d=" M 82.64 59.14 C 84.96 59.13 87.28 59.13 89.61 59.14 C 89.69 63.22 89.70 67.30 89.76 71.37 C 91.23 71.38 92.71 71.37 94.18 71.37 C 94.28 67.30 94.26 63.23 94.28 59.17 C 96.61 59.09 98.94 58.98 101.26 58.87 C 101.31 66.91 101.75 75.00 101.11 83.01 C 99.07 90.07 90.36 88.14 84.81 88.17 C 84.79 85.85 84.80 83.54 84.83 81.23 C 87.85 81.05 90.88 80.89 93.90 80.78 C 93.90 80.28 93.90 79.29 93.89 78.79 C 89.83 78.84 84.33 78.63 82.96 73.89 C 82.09 69.04 82.73 64.05 82.64 59.14 Z" />
<path fill="#21acf7" opacity="1.00" d=" M 122.11 58.69 C 124.69 58.71 127.28 58.86 129.81 59.41 C 133.08 58.16 136.53 58.56 139.57 60.23 C 143.98 57.09 151.25 58.63 152.28 64.42 C 152.87 72.31 152.49 80.26 152.43 88.17 C 150.04 88.17 147.64 88.15 145.25 88.11 C 144.92 80.82 145.48 73.52 144.81 66.25 C 143.62 66.21 142.42 66.18 141.23 66.15 C 140.55 73.50 141.07 80.89 140.77 88.26 C 138.38 88.29 136.00 88.27 133.62 88.20 C 133.29 80.85 133.77 73.50 133.31 66.16 C 132.02 66.19 130.72 66.23 129.44 66.28 C 129.17 73.58 129.44 80.88 129.24 88.19 C 126.86 88.18 124.48 88.14 122.10 88.09 C 121.98 78.29 121.84 68.49 122.11 58.69 Z" />
</g>
</svg>
