<?xml version="1.0" encoding="UTF-8" ?>
<!DOCTYPE svg PUBLIC "-//W3C//DTD SVG 1.1//EN" "http://www.w3.org/Graphics/SVG/1.1/DTD/svg11.dtd">
<svg width="192pt" height="192pt" viewBox="0 0 192 192" version="1.1" xmlns="http://www.w3.org/2000/svg">
<g id="#ff633cff">
<path fill="#ff633c" opacity="1.00" d=" M 38.40 23.47 C 39.78 22.65 41.46 22.81 43.00 22.71 C 78.67 22.82 114.35 22.62 150.02 22.80 C 156.82 22.71 156.82 33.93 150.04 33.93 C 113.69 34.50 77.33 33.74 40.97 33.81 C 35.52 34.12 33.64 25.87 38.40 23.47 Z" />
<path fill="#ff633c" opacity="1.00" d=" M 22.34 42.40 C 25.77 41.26 29.45 41.65 33.00 41.60 C 76.66 41.64 120.32 41.55 163.98 41.62 C 171.56 41.44 178.22 48.39 177.84 55.94 C 177.86 85.98 177.90 116.02 177.83 146.06 C 178.03 158.15 167.11 168.84 155.05 168.54 C 115.04 168.54 75.02 168.59 35.01 168.50 C 23.25 168.39 12.92 157.82 13.08 146.07 C 13.00 116.02 13.06 85.98 13.07 55.94 C 12.83 50.02 16.75 44.32 22.34 42.40 M 24.55 53.57 C 24.12 84.06 24.50 114.56 24.36 145.06 C 23.84 151.52 29.49 157.51 35.99 157.24 C 75.66 157.28 115.33 157.28 155.00 157.22 C 161.44 157.43 167.03 151.46 166.56 145.06 C 166.51 115.37 166.67 85.66 166.49 55.97 C 166.94 53.33 164.08 52.70 162.04 52.82 C 119.70 52.84 77.35 52.81 35.00 52.81 C 31.50 52.72 27.96 52.62 24.55 53.57 Z" />
<path fill="#ff633c" opacity="1.00" d=" M 64.36 80.50 C 67.64 79.32 71.57 81.57 72.13 85.01 C 72.84 89.70 66.43 93.51 62.82 90.14 C 59.30 87.73 60.11 81.55 64.36 80.50 Z" />
<path fill="#ff633c" opacity="1.00" d=" M 123.37 80.46 C 130.20 77.86 133.90 89.01 126.92 90.99 C 120.05 93.75 115.93 82.18 123.37 80.46 Z" />
<path fill="#ff633c" opacity="1.00" d=" M 61.39 98.44 C 64.65 97.87 70.95 96.97 70.78 101.97 C 71.05 115.56 83.09 128.63 97.09 127.74 C 109.56 126.74 119.07 115.08 119.97 103.00 C 119.11 96.60 131.98 96.46 130.77 102.97 C 129.98 115.29 123.78 127.57 113.04 134.08 C 102.87 141.00 88.82 140.93 78.39 134.61 C 66.84 127.67 59.83 114.30 59.87 100.92 C 59.89 99.83 60.40 99.00 61.39 98.44 Z" />
</g>
</svg>
