<?xml version="1.0" encoding="UTF-8" ?>
<!DOCTYPE svg PUBLIC "-//W3C//DTD SVG 1.1//EN" "http://www.w3.org/Graphics/SVG/1.1/DTD/svg11.dtd">
<svg width="192pt" height="192pt" viewBox="0 0 192 192" version="1.1" xmlns="http://www.w3.org/2000/svg">
<g id="#aecddfff">
<path fill="#aecddf" opacity="1.00" d=" M 40.27 21.33 C 75.76 19.96 111.42 21.12 146.98 20.72 C 159.58 20.17 171.01 31.37 170.85 43.95 C 170.93 77.98 170.93 112.01 170.88 146.05 C 171.14 158.37 160.34 169.49 148.00 169.53 C 113.65 169.59 79.28 169.57 44.93 169.51 C 32.59 169.49 21.78 158.35 22.05 146.03 C 22.02 112.00 22.03 77.97 22.08 43.94 C 21.98 33.39 29.98 23.54 40.27 21.33 M 41.37 32.59 C 36.73 34.29 33.17 38.90 33.27 43.92 C 33.22 77.97 33.25 112.03 33.26 146.08 C 33.05 152.81 39.29 158.78 46.01 158.31 C 79.67 158.30 113.33 158.29 146.99 158.27 C 153.67 158.67 159.76 152.75 159.63 146.08 C 159.68 112.03 159.71 77.97 159.63 43.91 C 159.69 37.31 153.55 31.65 147.02 31.87 C 115.01 31.80 83.00 31.85 51.00 31.80 C 47.78 31.84 44.46 31.53 41.37 32.59 Z" />
<path fill="#aecddf" opacity="1.00" d=" M 103.72 82.41 C 108.26 82.64 110.34 78.50 113.74 76.44 C 113.82 78.21 113.87 79.98 113.91 81.75 C 115.17 81.99 116.43 82.23 117.69 82.48 C 117.70 84.51 117.68 86.54 117.64 88.57 C 116.50 88.64 115.35 88.70 114.21 88.76 C 114.10 95.75 114.55 102.74 114.06 109.71 C 111.88 109.69 109.71 109.64 107.54 109.53 C 107.51 102.62 107.54 95.72 107.43 88.81 C 106.50 88.79 104.65 88.74 103.72 88.72 C 103.59 86.62 103.59 84.51 103.72 82.41 Z" />
<path fill="#aecddf" opacity="1.00" d=" M 44.21 82.21 C 48.85 82.46 53.71 81.49 58.21 82.83 C 63.07 85.70 61.34 92.35 61.20 97.01 C 59.93 101.70 54.44 101.52 50.56 101.45 C 50.65 104.15 50.64 106.86 50.42 109.56 C 48.34 109.50 46.27 109.44 44.19 109.37 C 44.18 100.31 44.18 91.26 44.21 82.21 M 50.64 88.69 C 50.61 90.65 50.58 92.60 50.54 94.56 C 51.94 94.60 53.33 94.62 54.72 94.63 C 54.76 92.61 54.68 90.58 54.47 88.57 C 53.51 88.60 51.60 88.66 50.64 88.69 Z" />
<path fill="#aecddf" opacity="1.00" d=" M 66.19 82.21 C 70.93 82.53 78.37 80.52 80.44 86.37 C 80.97 93.66 80.98 101.09 80.47 108.39 C 76.51 110.34 71.41 109.43 67.12 108.93 C 61.82 106.74 63.25 99.92 63.58 95.42 C 64.89 90.92 70.13 91.08 73.89 90.91 C 73.88 90.30 73.86 89.09 73.85 88.48 C 71.29 88.43 68.73 88.39 66.17 88.32 C 66.17 86.28 66.18 84.25 66.19 82.21 M 70.26 97.19 C 70.00 99.24 69.81 101.29 69.70 103.35 C 71.20 103.37 72.70 103.37 74.20 103.37 C 74.24 101.46 74.29 99.55 74.34 97.65 C 72.98 97.48 71.62 97.33 70.26 97.19 Z" />
<path fill="#aecddf" opacity="1.00" d=" M 83.50 82.24 C 85.61 82.19 87.72 82.16 89.83 82.14 C 90.24 85.99 90.19 89.86 90.26 93.72 C 91.55 93.76 92.84 93.80 94.14 93.84 C 94.44 89.98 94.34 86.11 94.37 82.24 C 96.51 82.18 98.66 82.16 100.80 82.17 C 100.66 89.90 101.41 97.74 100.44 105.41 C 97.97 111.33 90.56 109.19 85.57 109.43 C 85.52 107.34 85.50 105.24 85.46 103.15 C 88.41 102.01 93.59 104.49 94.64 100.72 C 90.72 100.72 85.39 100.80 83.88 96.25 C 82.94 91.66 83.62 86.90 83.50 82.24 Z" />
<path fill="#aecddf" opacity="1.00" d=" M 120.42 82.13 C 125.88 83.31 131.76 80.57 136.70 83.61 C 140.64 80.43 147.45 81.80 148.50 87.15 C 148.88 94.57 148.68 102.04 148.57 109.47 C 146.44 109.47 144.31 109.46 142.19 109.43 C 141.78 102.97 142.50 96.47 141.81 90.03 C 141.81 87.92 138.19 87.92 137.92 89.97 C 137.62 96.43 137.93 102.92 137.80 109.39 C 135.61 109.51 133.41 109.50 131.23 109.33 C 131.08 102.88 131.38 96.41 131.09 89.97 C 130.74 88.03 127.18 87.90 127.18 90.03 C 126.43 96.47 127.50 102.98 126.83 109.44 C 124.65 109.50 122.47 109.43 120.31 109.18 C 120.45 100.17 120.27 91.15 120.42 82.13 Z" />
</g>
</svg>
