<?xml version="1.0" encoding="UTF-8" ?>
<!DOCTYPE svg PUBLIC "-//W3C//DTD SVG 1.1//EN" "http://www.w3.org/Graphics/SVG/1.1/DTD/svg11.dtd">
<svg width="192pt" height="192pt" viewBox="0 0 192 192" version="1.1" xmlns="http://www.w3.org/2000/svg">
<g id="#378adcff">
<path fill="#378adc" opacity="1.00" d=" M 81.24 24.25 C 89.58 13.84 106.78 16.91 112.56 28.43 C 130.85 53.13 149.23 77.76 167.55 102.44 C 174.42 111.86 173.14 125.77 165.25 134.21 C 177.22 146.31 172.51 171.38 154.63 174.51 C 116.42 174.99 78.18 174.55 39.96 174.67 C 31.98 175.06 24.68 169.52 21.61 162.36 C 17.25 153.12 19.32 141.79 25.97 134.18 C 18.10 125.82 16.89 111.96 23.58 102.56 C 42.81 76.47 61.95 50.30 81.24 24.25 M 88.97 31.94 C 70.17 57.46 51.39 83.00 32.61 108.54 C 29.05 113.38 29.59 120.03 32.30 125.14 C 49.35 103.48 64.98 80.64 81.74 58.74 C 88.65 50.69 102.28 50.82 109.08 58.94 C 125.80 80.87 141.84 103.36 158.70 125.19 C 161.69 120.14 162.13 113.32 158.49 108.47 C 139.61 83.02 120.72 57.57 101.80 32.14 C 98.96 27.66 91.90 27.44 88.97 31.94 M 94.41 63.45 C 91.61 63.72 89.53 65.84 87.97 67.99 C 69.51 93.17 50.95 118.28 32.49 143.46 C 27.41 150.20 30.23 163.73 39.92 164.01 C 76.97 164.12 114.03 164.00 151.08 163.98 C 160.82 163.83 163.90 150.18 158.61 143.42 C 139.75 117.93 120.81 92.49 101.92 67.02 C 100.22 64.69 97.37 63.00 94.41 63.45 Z" />
</g>
</svg>
