<?xml version="1.0" encoding="UTF-8" ?>
<!DOCTYPE svg PUBLIC "-//W3C//DTD SVG 1.1//EN" "http://www.w3.org/Graphics/SVG/1.1/DTD/svg11.dtd">
<svg width="192pt" height="192pt" viewBox="0 0 192 192" version="1.1" xmlns="http://www.w3.org/2000/svg">
<g id="#2ab9a1ff">
<path fill="#2ab9a1" opacity="1.00" d=" M 61.11 46.09 C 80.73 39.17 103.87 47.70 114.91 65.18 C 131.13 60.46 149.43 69.79 155.43 85.49 C 168.94 89.35 178.88 102.98 177.83 117.08 C 177.42 132.65 163.54 146.29 147.97 146.49 C 121.64 146.59 95.31 146.45 68.98 146.53 C 64.87 146.94 61.31 143.08 61.75 139.03 C 61.75 121.34 61.73 103.65 61.77 85.96 C 61.35 81.98 65.18 78.88 69.00 79.47 C 76.89 79.83 85.15 78.42 92.73 81.19 C 98.58 83.42 99.45 90.58 99.40 96.01 C 99.29 102.14 100.21 109.63 95.20 114.20 C 88.82 118.51 80.67 116.97 73.42 117.42 C 72.78 123.29 73.19 129.21 73.14 135.10 C 97.76 135.28 122.39 135.13 147.01 135.12 C 157.99 135.36 167.58 124.95 166.48 114.03 C 166.00 103.68 156.44 95.43 146.25 95.51 C 145.15 78.23 122.44 68.95 109.54 80.51 C 105.04 64.97 89.21 53.47 72.92 55.19 C 52.96 56.10 37.56 76.49 40.96 95.98 C 32.03 98.10 24.99 106.62 25.48 115.93 C 25.48 126.28 34.71 135.25 45.02 135.25 C 51.20 134.85 53.12 144.69 46.99 146.33 C 31.20 147.68 15.94 134.74 14.44 118.99 C 12.85 106.97 19.22 94.79 29.49 88.57 C 29.76 69.60 43.09 51.87 61.11 46.09 M 73.49 89.49 C 72.68 95.52 73.26 101.63 73.10 107.70 C 77.09 107.57 81.19 108.21 85.10 107.20 C 88.49 106.09 88.05 101.83 88.20 99.00 C 88.01 95.86 88.81 91.34 85.40 89.66 C 81.51 88.74 77.43 89.06 73.49 89.49 Z" />
</g>
</svg>
