<?xml version="1.0" encoding="UTF-8" ?>
<!DOCTYPE svg PUBLIC "-//W3C//DTD SVG 1.1//EN" "http://www.w3.org/Graphics/SVG/1.1/DTD/svg11.dtd">
<svg width="192pt" height="192pt" viewBox="0 0 192 192" version="1.1" xmlns="http://www.w3.org/2000/svg">
<g id="#73a0a7ff">
<path fill="#73a0a7" opacity="1.00" d=" M 55.41 24.42 C 77.61 11.59 105.93 10.20 129.29 20.77 C 158.76 33.52 178.91 64.86 177.90 97.02 C 177.83 129.78 155.82 160.90 125.12 172.19 C 93.17 184.90 54.51 174.34 32.69 147.98 C 32.57 154.97 32.78 161.97 32.62 168.97 C 32.49 173.83 27.83 177.92 23.00 177.53 C 18.08 177.56 13.87 172.93 14.02 168.07 C 13.98 143.04 13.95 118.01 14.09 92.98 C 14.68 64.97 31.01 38.10 55.41 24.42 M 87.38 25.48 C 64.56 28.04 43.67 42.70 33.21 63.09 C 24.39 79.84 22.95 100.18 28.95 118.09 C 37.25 143.56 61.19 163.04 87.88 165.74 C 111.04 168.53 135.15 158.99 150.02 141.00 C 169.07 119.01 171.95 84.95 156.98 60.02 C 143.31 36.02 114.79 21.85 87.38 25.48 Z" />
<path fill="#73a0a7" opacity="1.00" d=" M 90.46 39.64 C 117.30 35.97 144.96 54.66 151.30 81.00 C 152.05 87.46 141.67 89.13 140.28 82.86 C 135.40 66.19 120.31 53.06 103.02 50.93 C 83.84 48.06 63.68 59.18 55.92 76.95 C 46.38 96.76 54.31 122.61 73.16 133.85 C 92.03 146.22 119.55 141.05 132.83 122.85 C 135.61 119.80 136.61 115.44 139.68 112.69 C 143.68 109.64 149.90 114.24 148.16 118.94 C 138.11 142.62 110.27 156.39 85.28 150.72 C 65.85 146.78 49.23 131.75 43.33 112.83 C 37.93 96.46 40.78 77.70 50.71 63.63 C 59.74 50.46 74.59 41.48 90.46 39.64 Z" />
<path fill="#73a0a7" opacity="1.00" d=" M 91.34 81.44 C 102.26 77.25 114.15 89.17 110.18 100.11 C 107.39 110.34 92.99 114.03 85.65 106.36 C 77.59 99.19 80.91 84.34 91.34 81.44 Z" />
</g>
</svg>
