<?xml version="1.0" encoding="UTF-8" ?>
<!DOCTYPE svg PUBLIC "-//W3C//DTD SVG 1.1//EN" "http://www.w3.org/Graphics/SVG/1.1/DTD/svg11.dtd">
<svg width="192pt" height="192pt" viewBox="0 0 192 192" version="1.1" xmlns="http://www.w3.org/2000/svg">
<g id="#4c515dff">
<path fill="#4c515d" opacity="1.00" d=" M 39.30 21.34 C 69.78 19.93 100.45 21.13 131.00 20.73 C 137.66 20.90 144.35 20.35 150.98 21.05 C 161.94 22.59 170.92 32.84 170.80 43.94 C 170.81 78.65 170.86 113.35 170.78 148.05 C 170.64 160.34 159.30 170.98 147.06 170.59 C 112.69 170.59 78.32 170.65 43.95 170.56 C 31.64 170.50 20.84 159.35 21.07 147.06 C 21.03 112.68 21.03 78.30 21.09 43.93 C 21.04 33.39 29.06 23.61 39.30 21.34 M 32.37 44.93 C 32.39 78.97 32.35 113.02 32.40 147.06 C 32.15 154.77 39.93 160.26 47.20 159.38 C 47.37 137.59 47.00 115.80 47.39 94.02 C 47.84 76.39 63.37 60.85 81.03 60.56 C 97.54 59.59 113.42 71.98 116.66 88.16 C 120.52 104.16 111.18 121.91 95.90 127.93 C 83.52 133.38 68.58 130.31 58.55 121.50 C 58.63 134.08 58.53 146.65 58.60 159.22 C 88.08 159.30 117.55 159.27 147.03 159.23 C 153.67 159.46 159.68 153.62 159.57 146.97 C 159.67 112.97 159.60 78.96 159.60 44.95 C 159.98 38.18 153.98 31.67 147.07 32.20 C 112.69 32.24 78.31 32.16 43.94 32.24 C 37.37 32.14 31.96 38.52 32.37 44.93 M 77.37 72.46 C 66.97 74.53 58.86 84.40 58.69 94.99 C 58.28 105.73 66.07 116.03 76.52 118.54 C 90.66 122.68 106.31 110.73 106.09 96.03 C 106.86 81.25 91.73 68.95 77.37 72.46 Z" />
<path fill="#4c515d" opacity="1.00" d=" M 135.24 45.28 C 139.69 43.41 145.09 47.12 144.64 52.00 C 144.55 57.35 137.20 60.42 133.43 56.53 C 129.51 53.56 130.76 46.99 135.24 45.28 Z" />
<path fill="#4c515d" opacity="1.00" d=" M 135.25 63.12 C 139.44 61.38 144.61 64.61 144.61 69.20 C 144.94 74.33 138.36 78.21 134.19 74.92 C 129.65 72.31 130.36 64.91 135.25 63.12 Z" />
<path fill="#4c515d" opacity="1.00" d=" M 136.38 80.37 C 140.97 79.14 145.59 83.82 144.45 88.39 C 143.42 93.22 136.74 95.40 133.27 91.69 C 129.30 88.38 131.27 81.17 136.38 80.37 Z" />
<path fill="#4c515d" opacity="1.00" d=" M 136.41 98.43 C 141.26 97.15 146.02 102.41 144.29 107.10 C 142.81 111.93 135.83 113.26 132.72 109.25 C 129.35 105.72 131.59 99.15 136.41 98.43 Z" />
<path fill="#4c515d" opacity="1.00" d=" M 135.25 117.10 C 139.46 115.36 144.62 118.60 144.63 123.21 C 144.94 128.32 138.33 132.24 134.19 128.92 C 129.63 126.30 130.36 118.89 135.25 117.10 Z" />
<path fill="#4c515d" opacity="1.00" d=" M 134.44 135.41 C 138.60 132.76 144.58 136.10 144.58 141.00 C 144.93 146.13 138.48 149.62 134.29 146.78 C 130.13 144.38 130.17 137.67 134.44 135.41 Z" />
</g>
</svg>
