<?xml version="1.0" encoding="UTF-8" ?>
<!DOCTYPE svg PUBLIC "-//W3C//DTD SVG 1.1//EN" "http://www.w3.org/Graphics/SVG/1.1/DTD/svg11.dtd">
<svg width="192pt" height="192pt" viewBox="0 0 192 192" version="1.1" xmlns="http://www.w3.org/2000/svg">
<g id="#18adffff">
<path fill="#18adff" opacity="1.00" d=" M 54.28 12.35 C 61.78 10.70 70.12 14.93 72.96 22.12 C 76.39 29.76 72.71 39.61 65.10 43.11 C 57.59 47.13 47.53 43.99 43.46 36.57 C 37.79 27.45 43.76 14.26 54.28 12.35 Z" />
<path fill="#18adff" opacity="1.00" d=" M 127.33 12.42 C 135.04 10.40 143.75 14.88 146.54 22.35 C 150.02 30.60 145.32 41.12 136.76 43.87 C 127.85 47.31 116.95 41.30 115.19 31.91 C 113.04 23.49 118.98 14.35 127.33 12.42 Z" />
<path fill="#18adff" opacity="1.00" d=" M 56.37 56.44 C 71.13 54.23 86.72 61.98 93.88 75.07 C 101.65 88.46 99.82 106.79 89.05 118.04 C 81.35 125.68 73.65 133.33 65.96 140.98 C 63.85 143.40 59.84 143.82 57.48 141.51 C 49.87 134.12 42.47 126.52 34.91 119.08 C 24.48 108.97 21.39 92.33 27.08 79.03 C 31.92 67.01 43.54 58.12 56.37 56.44 M 41.84 77.87 C 34.52 86.77 34.75 100.92 42.59 109.43 C 48.74 115.71 55.07 121.82 61.21 128.11 C 68.29 121.55 75.28 114.81 81.73 107.65 C 91.64 94.91 84.76 74.23 69.37 69.68 C 59.66 66.25 48.10 69.70 41.84 77.87 Z" />
<path fill="#18adff" opacity="1.00" d=" M 111.67 59.64 C 126.69 52.00 146.61 56.89 156.76 70.26 C 167.66 83.62 167.32 104.83 155.49 117.50 C 137.50 135.49 119.48 153.47 101.46 171.44 C 97.91 175.46 91.06 175.57 87.46 171.57 C 84.03 167.96 80.17 164.72 77.10 160.79 C 74.44 156.12 79.84 150.09 84.80 152.27 C 88.50 154.50 91.11 158.15 94.22 161.11 C 111.51 144.46 128.25 127.21 145.34 110.34 C 153.31 102.76 154.50 89.55 148.64 80.37 C 143.15 71.27 131.49 66.33 121.18 69.21 C 118.42 69.97 115.49 71.60 112.62 70.30 C 108.56 68.49 107.76 62.05 111.67 59.64 Z" />
</g>
</svg>
