<?xml version="1.0" encoding="UTF-8" ?>
<!DOCTYPE svg PUBLIC "-//W3C//DTD SVG 1.1//EN" "http://www.w3.org/Graphics/SVG/1.1/DTD/svg11.dtd">
<svg width="192pt" height="192pt" viewBox="0 0 192 192" version="1.1" xmlns="http://www.w3.org/2000/svg">
<g id="#f6b02bff">
<path fill="#f6b02b" opacity="1.00" d=" M 84.36 14.46 C 116.07 9.75 149.50 25.61 165.90 53.14 C 178.64 73.75 181.37 100.16 173.10 122.93 C 164.72 146.75 144.69 166.02 120.63 173.61 C 101.96 179.62 81.13 178.70 63.12 170.90 C 58.89 169.14 56.19 164.59 56.35 160.06 C 56.37 140.71 56.48 121.35 56.19 102.00 C 56.36 95.72 55.55 89.28 57.29 83.15 C 60.86 70.16 71.30 59.12 84.37 55.48 C 98.17 51.47 114.12 55.45 124.04 65.96 C 134.83 77.24 138.10 95.19 131.36 109.37 C 123.49 126.99 101.36 137.07 83.10 130.05 C 79.17 128.49 78.69 122.41 82.29 120.22 C 84.82 118.31 87.98 119.82 90.73 120.23 C 104.04 123.04 118.44 114.13 122.11 101.09 C 126.13 89.53 120.67 75.93 110.40 69.60 C 101.53 64.02 89.45 63.89 80.59 69.58 C 72.64 74.51 67.68 83.69 67.59 93.01 C 67.36 112.69 67.32 132.38 67.31 152.06 C 67.08 156.63 69.85 161.20 74.13 162.91 C 102.41 172.46 135.86 161.36 153.06 137.01 C 171.75 112.21 170.78 75.00 150.77 51.23 C 136.82 33.84 114.30 23.71 92.01 25.13 C 58.90 25.81 29.17 53.15 25.20 85.95 C 21.92 107.84 30.02 130.78 45.82 146.19 C 50.54 150.69 43.45 158.57 38.47 154.44 C 14.07 132.04 6.49 93.96 19.71 63.69 C 30.60 37.40 56.13 17.99 84.36 14.46 Z" />
</g>
</svg>
