<?xml version="1.0" encoding="UTF-8" ?>
<!DOCTYPE svg PUBLIC "-//W3C//DTD SVG 1.1//EN" "http://www.w3.org/Graphics/SVG/1.1/DTD/svg11.dtd">
<svg width="192pt" height="192pt" viewBox="0 0 192 192" version="1.1" xmlns="http://www.w3.org/2000/svg">
<g id="#cc6e65ff">
<path fill="#cc6e65" opacity="1.00" d=" M 76.28 52.33 C 79.88 51.16 83.79 54.21 83.44 58.00 C 83.36 83.66 83.75 109.34 83.39 134.99 C 82.26 141.15 72.25 140.28 72.28 133.97 C 72.21 108.65 72.44 83.33 72.38 58.01 C 72.06 55.48 73.89 53.00 76.28 52.33 Z" />
<path fill="#cc6e65" opacity="1.00" d=" M 94.41 53.50 C 97.57 52.39 102.05 53.26 102.59 57.13 C 102.77 82.72 102.90 108.32 102.71 133.90 C 102.20 139.93 92.47 139.97 91.70 134.00 C 91.43 109.34 91.76 84.67 91.64 60.00 C 91.40 57.54 92.22 54.87 94.41 53.50 Z" />
<path fill="#cc6e65" opacity="1.00" d=" M 57.27 56.31 C 61.00 54.61 65.44 57.91 65.07 61.93 C 65.14 84.31 65.08 106.68 65.10 129.06 C 65.49 132.80 61.75 136.40 58.01 135.21 C 41.76 129.55 27.00 119.04 17.11 104.88 C 14.56 100.96 11.39 95.91 14.28 91.31 C 23.30 74.63 39.70 62.76 57.27 56.31 M 28.22 91.18 C 27.39 92.95 24.33 94.87 26.06 96.91 C 32.77 107.26 42.69 115.38 53.73 120.78 C 53.70 104.19 53.85 87.59 53.65 71.00 C 43.44 74.80 35.01 82.78 28.22 91.18 Z" />
<path fill="#cc6e65" opacity="1.00" d=" M 110.85 63.98 C 110.75 60.14 115.37 57.36 118.74 59.16 C 131.82 65.26 142.61 75.19 152.11 85.87 C 158.20 80.04 162.49 71.66 168.93 65.82 C 173.83 62.54 180.39 69.14 177.01 74.01 C 171.45 81.09 165.83 88.14 160.37 95.31 C 165.16 103.17 171.85 110.14 177.27 117.70 C 180.14 122.79 173.39 128.73 168.69 125.30 C 162.61 119.13 157.94 111.70 152.31 105.13 C 142.65 116.11 131.57 126.29 118.12 132.37 C 114.72 133.61 110.68 130.69 110.83 127.05 C 110.78 106.03 110.74 85.00 110.85 63.98 M 122.17 74.88 C 122.17 88.66 122.17 102.45 122.17 116.23 C 130.86 110.84 138.06 103.38 144.66 95.65 C 138.12 87.80 130.75 80.51 122.17 74.88 Z" />
<path fill="#cc6e65" opacity="1.00" d=" M 37.37 92.40 C 41.23 89.69 45.52 96.13 41.61 98.63 C 37.70 101.99 32.93 94.86 37.37 92.40 Z" />
</g>
</svg>
