<?xml version="1.0" encoding="UTF-8" ?>
<!DOCTYPE svg PUBLIC "-//W3C//DTD SVG 1.1//EN" "http://www.w3.org/Graphics/SVG/1.1/DTD/svg11.dtd">
<svg width="192pt" height="192pt" viewBox="0 0 192 192" version="1.1" xmlns="http://www.w3.org/2000/svg">
<g id="#486ebeff">
<path fill="#486ebe" opacity="1.00" d=" M 12.09 53.94 C 11.74 51.45 13.02 48.52 15.95 48.77 C 26.61 48.61 37.29 48.62 47.96 48.80 C 55.43 49.20 64.36 50.29 68.89 57.06 C 74.03 65.43 72.40 75.67 72.68 85.01 C 72.72 92.87 71.32 102.55 63.61 106.59 C 55.76 110.44 46.60 110.47 38.06 109.92 C 32.35 109.37 31.12 100.54 36.35 98.31 C 42.23 96.42 49.12 99.17 54.61 95.62 C 58.54 92.78 58.40 87.36 58.49 83.01 C 58.28 77.56 59.17 71.87 57.29 66.63 C 55.95 62.90 51.75 61.38 48.09 61.32 C 40.83 61.06 33.57 61.34 26.31 61.17 C 26.22 84.45 26.56 107.76 26.16 131.02 C 25.58 138.92 12.74 138.95 12.23 131.04 C 11.86 105.35 12.22 79.64 12.09 53.94 Z" />
<path fill="#486ebe" opacity="1.00" d=" M 164.29 49.12 C 168.30 48.55 176.43 46.82 176.47 52.99 C 176.64 71.00 176.41 89.04 175.23 107.02 C 174.90 113.51 164.45 113.77 163.80 107.31 C 162.54 90.25 162.54 73.10 162.38 56.00 C 162.54 53.66 161.96 50.60 164.29 49.12 Z" />
<path fill="#486ebe" opacity="1.00" d=" M 81.15 52.13 C 83.93 48.29 90.72 49.31 92.11 53.90 C 99.33 75.80 105.86 97.94 113.10 119.84 C 120.28 97.88 126.55 75.61 133.76 53.67 C 136.48 46.53 148.46 50.17 146.69 57.64 C 139.19 82.51 130.85 107.15 123.10 131.96 C 122.36 134.42 121.21 137.71 118.03 137.51 C 113.51 137.34 106.05 139.47 104.59 133.44 C 96.61 109.09 88.75 84.70 80.74 60.36 C 79.81 57.70 79.09 54.47 81.15 52.13 Z" />
<path fill="#486ebe" opacity="1.00" d=" M 165.45 124.43 C 170.17 121.30 177.51 125.11 176.87 130.97 C 176.76 136.73 169.13 139.65 164.86 136.12 C 160.95 133.34 161.26 126.79 165.45 124.43 Z" />
</g>
</svg>
