<?xml version="1.0" encoding="UTF-8" ?>
<!DOCTYPE svg PUBLIC "-//W3C//DTD SVG 1.1//EN" "http://www.w3.org/Graphics/SVG/1.1/DTD/svg11.dtd">
<svg width="192pt" height="192pt" viewBox="0 0 192 192" version="1.1" xmlns="http://www.w3.org/2000/svg">
<g id="#ad7653ff">
<path fill="#ad7653" opacity="1.00" d=" M 77.84 15.83 C 95.26 11.09 114.71 15.10 128.98 26.10 C 142.58 36.36 151.52 52.87 151.72 70.01 C 152.72 92.93 137.81 115.34 116.43 123.52 C 110.64 124.90 107.78 130.40 106.88 135.83 C 102.97 146.91 102.39 159.99 93.79 168.79 C 85.11 177.01 72.20 177.60 60.91 177.52 C 46.75 177.08 36.03 161.42 41.03 148.08 C 44.01 138.98 53.43 132.30 63.06 132.99 C 67.12 133.27 69.56 138.64 67.00 141.86 C 64.44 145.36 59.26 143.62 56.06 146.22 C 49.93 150.08 49.78 160.10 55.93 164.05 C 62.30 169.10 73.01 164.22 73.13 156.02 C 73.39 139.34 73.13 122.65 73.27 105.98 C 73.00 102.74 75.59 99.52 78.98 99.76 C 84.98 99.68 91.01 99.48 96.99 99.88 C 101.97 100.59 103.03 108.28 98.43 110.36 C 94.11 112.01 89.28 110.81 84.75 111.16 C 84.19 128.29 85.94 145.59 83.77 162.61 C 91.69 155.36 91.58 143.67 95.20 134.19 C 96.80 125.15 101.86 116.03 111.12 113.13 C 130.52 106.22 143.18 84.69 139.53 64.38 C 136.22 41.96 114.49 24.64 92.01 25.43 C 74.20 25.46 57.32 36.83 50.18 53.07 C 47.70 59.14 37.72 55.66 39.42 49.38 C 45.83 32.92 60.84 20.30 77.84 15.83 Z" />
<path fill="#ad7653" opacity="1.00" d=" M 83.40 46.52 C 93.57 44.91 104.36 48.10 111.96 55.06 C 121.64 63.69 125.90 78.25 121.55 90.59 C 119.93 94.76 113.76 95.53 111.06 92.01 C 108.68 89.45 110.07 85.92 110.42 82.91 C 111.89 73.38 105.81 63.54 96.87 60.15 C 86.43 55.62 72.92 61.05 68.75 71.68 C 67.59 74.50 66.51 78.45 62.86 78.74 C 58.66 79.82 54.46 75.64 55.55 71.46 C 58.78 58.59 70.32 48.45 83.40 46.52 Z" />
</g>
</svg>
