<?xml version="1.0" encoding="UTF-8" ?>
<!DOCTYPE svg PUBLIC "-//W3C//DTD SVG 1.1//EN" "http://www.w3.org/Graphics/SVG/1.1/DTD/svg11.dtd">
<svg width="192pt" height="192pt" viewBox="0 0 192 192" version="1.1" xmlns="http://www.w3.org/2000/svg">
<g id="#2bbaa3ff">
<path fill="#2bbaa3" opacity="1.00" d=" M 110.35 15.43 C 132.59 11.95 155.59 26.17 164.51 46.41 C 171.24 62.33 165.60 80.07 157.16 94.13 C 159.80 100.70 167.38 104.82 170.63 111.35 C 172.46 116.69 164.89 121.12 161.16 116.84 C 155.61 110.74 150.01 104.65 144.66 98.36 C 142.37 95.73 143.90 92.22 145.86 89.94 C 153.75 78.96 159.21 64.23 154.07 50.95 C 149.22 39.46 138.39 31.04 126.63 27.45 C 114.09 23.94 100.19 28.05 90.64 36.64 C 70.20 56.19 49.88 75.88 29.32 95.30 C 24.24 99.71 17.03 91.37 21.97 86.96 C 41.44 68.10 61.11 49.45 80.62 30.63 C 88.51 22.50 99.21 17.27 110.35 15.43 Z" />
<path fill="#2bbaa3" opacity="1.00" d=" M 91.38 86.50 C 98.27 84.97 105.79 87.23 110.72 92.28 C 119.42 100.92 128.19 109.50 136.76 118.26 C 144.00 125.88 143.87 139.01 136.45 146.45 C 126.88 155.92 117.53 165.63 107.76 174.88 C 103.04 178.40 96.19 171.67 100.02 166.98 C 109.22 157.22 119.08 148.06 128.39 138.40 C 131.78 134.77 131.38 128.61 127.76 125.27 C 119.42 116.92 111.07 108.58 102.69 100.28 C 99.35 96.66 93.18 96.31 89.53 99.64 C 78.78 109.88 68.64 120.79 57.78 130.90 C 52.82 134.27 46.43 127.06 50.53 122.58 C 60.23 112.61 70.24 102.92 80.04 93.04 C 83.10 89.84 86.99 87.36 91.38 86.50 Z" />
</g>
</svg>
