<?xml version="1.0" encoding="UTF-8" ?>
<!DOCTYPE svg PUBLIC "-//W3C//DTD SVG 1.1//EN" "http://www.w3.org/Graphics/SVG/1.1/DTD/svg11.dtd">
<svg width="192pt" height="192pt" viewBox="0 0 192 192" version="1.1" xmlns="http://www.w3.org/2000/svg">
<g id="#ae8386ff">
<path fill="#ae8386" opacity="1.00" d=" M 17.35 61.00 C 17.04 56.72 22.18 57.26 25.03 57.27 C 27.33 57.37 31.39 56.86 31.58 60.15 C 31.94 66.25 31.65 72.37 31.67 78.48 C 37.64 72.86 46.84 74.40 54.15 75.83 C 62.70 78.28 63.55 88.57 63.36 96.00 C 62.84 107.50 64.36 119.34 62.60 130.62 C 58.77 132.24 48.29 134.06 48.84 127.05 C 48.71 115.67 49.00 104.28 48.73 92.91 C 49.61 83.52 30.95 83.59 31.84 92.97 C 31.24 105.40 32.43 117.95 31.29 130.31 C 27.25 132.74 15.70 133.90 17.24 126.05 C 17.36 104.37 17.18 82.68 17.35 61.00 Z" />
<path fill="#ae8386" opacity="1.00" d=" M 73.01 77.12 C 76.18 74.19 82.70 74.78 86.37 76.57 C 88.64 90.10 85.53 104.41 87.98 117.99 C 91.74 122.96 104.94 122.41 104.06 114.06 C 104.43 102.09 103.87 90.09 104.33 78.13 C 104.59 74.85 108.67 75.44 110.98 75.29 C 113.81 75.31 118.91 74.74 118.64 78.99 C 118.86 94.67 118.65 110.37 118.77 126.06 C 120.51 133.96 106.73 133.97 104.54 128.25 C 99.19 134.57 89.69 132.65 82.50 131.62 C 74.56 129.95 72.44 120.95 72.61 113.98 C 72.84 101.71 72.05 89.34 73.01 77.12 Z" />
<path fill="#ae8386" opacity="1.00" d=" M 131.88 78.88 C 138.36 73.77 147.24 74.77 154.97 74.77 C 161.88 74.74 170.29 77.29 172.13 84.87 C 173.64 91.81 174.35 99.60 172.45 106.42 C 162.36 108.37 151.74 106.74 141.44 107.25 C 141.80 111.68 140.28 117.00 143.36 120.72 C 146.75 122.76 151.12 122.11 154.88 121.71 C 159.90 121.14 157.29 112.52 162.93 113.08 C 166.17 113.31 171.07 111.73 173.04 115.08 C 174.00 121.25 170.90 128.60 164.68 130.77 C 158.41 133.06 151.58 132.49 145.02 132.42 C 139.11 132.19 131.93 130.71 129.19 124.77 C 125.76 117.00 127.23 108.24 126.88 100.00 C 127.07 92.86 126.28 84.32 131.88 78.88 M 143.98 85.96 C 140.39 88.65 141.73 93.85 141.39 97.73 C 147.24 97.75 153.09 97.74 158.94 97.74 C 158.52 93.82 160.00 88.35 156.06 85.86 C 152.19 84.84 147.82 84.77 143.98 85.96 Z" />
</g>
</svg>
