<?xml version="1.0" encoding="UTF-8" ?>
<!DOCTYPE svg PUBLIC "-//W3C//DTD SVG 1.1//EN" "http://www.w3.org/Graphics/SVG/1.1/DTD/svg11.dtd">
<svg width="192pt" height="192pt" viewBox="0 0 192 192" version="1.1" xmlns="http://www.w3.org/2000/svg">
<g id="#a61bffff">
<path fill="#a61bff" opacity="1.00" d=" M 21.56 61.44 C 34.11 33.52 63.36 14.10 94.02 13.75 C 123.01 12.72 151.65 28.68 166.31 53.66 C 177.64 72.44 180.80 95.85 175.05 117.00 C 168.17 143.23 147.26 165.29 121.40 173.46 C 116.08 175.20 109.98 170.69 110.13 165.09 C 109.99 155.34 110.23 145.59 110.02 135.85 C 100.17 146.94 75.96 142.00 74.30 125.92 C 73.68 114.62 74.42 103.28 73.79 91.98 C 70.35 91.74 66.90 91.68 63.45 91.57 C 62.95 88.38 60.89 81.26 65.96 81.37 C 78.42 81.26 90.88 81.42 103.34 81.29 C 94.81 72.01 87.50 61.70 80.83 51.03 C 79.76 49.79 80.13 47.25 82.09 47.33 C 86.06 47.55 91.59 45.73 94.01 49.99 C 99.58 58.80 105.01 67.70 110.48 76.57 C 114.92 85.53 126.51 79.21 134.16 81.84 C 134.40 84.96 134.41 88.10 134.28 91.23 C 130.32 92.10 126.24 91.59 122.22 91.94 C 121.54 113.28 122.01 134.68 121.98 156.04 C 121.51 158.77 124.80 160.67 127.00 159.11 C 143.60 151.01 156.79 136.16 162.74 118.66 C 169.61 99.05 167.23 76.42 156.26 58.75 C 143.61 37.87 119.55 24.18 95.02 25.09 C 64.35 24.71 35.49 47.25 27.78 76.83 C 21.40 99.55 27.37 125.27 43.28 142.73 C 57.09 158.46 78.15 167.20 99.03 166.27 C 105.39 165.57 107.12 175.65 100.98 177.24 C 68.46 180.03 35.77 160.46 22.06 130.96 C 11.60 109.39 11.40 83.16 21.56 61.44 M 86.08 91.94 C 85.66 102.60 85.82 113.30 86.25 123.95 C 87.14 130.93 95.62 131.12 101.02 130.52 C 106.06 130.53 110.24 126.07 110.01 121.05 C 110.08 111.36 110.39 101.64 109.81 91.96 C 101.91 91.61 93.98 91.63 86.08 91.94 Z" />
</g>
</svg>
