<?xml version="1.0" encoding="UTF-8" ?>
<!DOCTYPE svg PUBLIC "-//W3C//DTD SVG 1.1//EN" "http://www.w3.org/Graphics/SVG/1.1/DTD/svg11.dtd">
<svg width="192pt" height="192pt" viewBox="0 0 192 192" version="1.1" xmlns="http://www.w3.org/2000/svg">
<g id="#19b0ffff">
<path fill="#19b0ff" opacity="1.00" d=" M 92.35 14.44 C 99.95 12.86 106.73 17.69 113.41 20.51 C 128.37 28.30 145.08 31.20 161.41 34.57 C 170.00 36.47 174.02 45.97 172.98 54.05 C 171.03 78.85 169.55 104.48 159.63 127.62 C 149.89 147.17 133.06 162.84 113.68 172.67 C 104.88 177.72 93.92 179.53 84.31 175.73 C 64.89 167.87 48.17 153.79 36.49 136.45 C 28.14 123.79 24.70 108.71 22.41 93.93 C 19.99 79.73 18.70 65.35 18.22 50.97 C 17.88 43.77 22.35 36.32 29.63 34.64 C 41.17 32.05 52.96 30.22 64.16 26.30 C 73.84 23.02 82.54 17.34 92.35 14.44 M 94.47 25.53 C 85.60 28.59 77.50 33.53 68.63 36.62 C 56.91 40.92 44.48 42.74 32.36 45.56 C 29.13 46.38 29.42 50.37 29.42 52.98 C 30.19 65.02 30.99 77.09 33.00 89.00 C 35.13 102.99 37.76 117.41 45.44 129.57 C 55.59 145.02 70.29 157.50 87.29 164.80 C 92.51 167.07 98.63 167.04 103.86 164.79 C 130.30 153.33 152.51 129.28 156.22 99.95 C 159.35 84.13 160.93 68.06 161.71 51.96 C 161.91 49.26 161.17 45.61 157.89 45.31 C 140.97 42.02 123.84 38.54 108.39 30.57 C 103.83 28.82 99.50 25.25 94.47 25.53 Z" />
<path fill="#19b0ff" opacity="1.00" d=" M 130.19 67.16 C 135.36 64.50 141.11 71.74 137.08 76.04 C 124.24 89.21 111.06 102.07 98.08 115.12 C 95.97 117.73 91.75 118.17 89.41 115.61 C 81.36 107.64 73.26 99.71 65.40 91.55 C 61.48 87.19 67.14 80.05 72.33 82.75 C 80.07 88.62 86.03 97.32 93.74 102.79 C 106.15 91.21 117.50 78.39 130.19 67.16 Z" />
</g>
</svg>
