<?xml version="1.0" encoding="UTF-8" ?>
<!DOCTYPE svg PUBLIC "-//W3C//DTD SVG 1.1//EN" "http://www.w3.org/Graphics/SVG/1.1/DTD/svg11.dtd">
<svg width="192pt" height="192pt" viewBox="0 0 192 192" version="1.1" xmlns="http://www.w3.org/2000/svg">
<g id="#93cb47ff">
<path fill="#93cb47" opacity="1.00" d=" M 64.12 20.15 C 90.53 8.77 122.83 12.74 145.56 30.42 C 167.81 47.10 180.55 75.70 177.46 103.40 C 176.45 109.34 166.84 108.88 166.40 102.88 C 167.02 91.73 165.94 80.37 161.74 69.94 C 146.71 76.27 131.92 83.20 117.07 89.95 C 117.23 92.89 117.30 95.83 117.27 98.77 C 133.69 107.37 150.24 115.73 166.67 124.32 C 169.35 125.51 170.93 128.96 169.54 131.66 C 155.76 160.88 123.26 179.74 91.04 177.42 C 72.75 176.42 54.92 168.97 41.33 156.69 C 21.62 139.30 11.16 111.96 14.70 85.88 C 15.35 81.76 21.09 80.12 23.95 83.07 C 26.59 85.32 25.46 89.04 25.46 92.03 C 24.78 102.07 26.74 112.09 30.08 121.52 C 45.15 114.39 59.80 106.33 74.67 98.77 C 74.62 95.83 74.73 92.89 74.96 89.96 C 58.49 82.40 41.92 75.05 25.42 67.56 C 22.21 66.42 20.70 62.28 22.48 59.36 C 31.06 41.86 46.15 27.68 64.12 20.15 M 35.26 59.60 C 42.32 62.80 49.37 66.00 56.45 69.14 C 56.64 63.82 56.35 58.49 56.59 53.17 C 57.29 45.07 64.86 38.49 72.94 38.58 C 88.31 38.55 103.69 38.56 119.06 38.56 C 127.13 38.32 134.88 44.86 135.61 52.96 C 135.87 58.28 135.62 63.60 135.74 68.92 C 142.73 65.80 149.85 62.90 156.62 59.33 C 147.72 44.91 133.80 33.56 117.58 28.44 C 87.25 18.05 51.11 31.76 35.26 59.60 M 67.55 54.96 C 67.47 61.32 67.55 67.69 67.54 74.06 C 71.98 76.25 76.53 78.22 81.06 80.21 C 89.33 72.61 102.65 72.80 110.98 80.22 C 115.51 78.01 120.24 76.21 124.68 73.81 C 124.51 67.25 124.82 60.68 124.54 54.12 C 124.41 51.42 121.60 49.46 119.02 49.63 C 104.01 49.57 89.00 49.62 73.99 49.58 C 70.83 49.21 67.40 51.58 67.55 54.96 M 92.34 86.45 C 85.33 88.67 83.70 99.11 89.71 103.33 C 95.29 108.07 105.03 104.39 105.91 97.07 C 107.28 89.88 98.98 83.50 92.34 86.45 M 67.69 115.04 C 67.39 122.02 67.58 129.02 67.56 136.01 C 67.24 138.98 70.01 141.85 73.01 141.52 C 88.33 141.57 103.66 141.55 118.99 141.52 C 122.01 141.84 124.93 139.07 124.61 136.01 C 124.66 129.14 124.64 122.27 124.59 115.40 C 120.58 113.25 116.55 111.12 112.44 109.18 C 105.22 118.00 90.80 119.40 82.24 111.78 C 78.10 106.25 72.54 114.08 67.69 115.04 M 35.41 131.88 C 49.34 155.78 78.24 169.70 105.62 165.54 C 125.64 162.87 144.14 151.04 155.08 134.09 C 155.65 133.19 156.73 131.49 155.02 131.04 C 148.59 127.76 142.19 124.43 135.76 121.16 C 135.65 126.78 135.87 132.41 135.65 138.03 C 135.15 145.90 127.89 152.54 120.06 152.61 C 104.36 152.66 88.66 152.61 72.96 152.62 C 64.80 152.93 57.22 146.09 56.58 137.98 C 56.36 132.33 56.57 126.67 56.49 121.02 C 49.41 124.53 42.36 128.12 35.41 131.88 Z" />
<path fill="#93cb47" opacity="1.00" d=" M 87.08 59.72 C 84.55 59.88 84.50 54.94 87.08 55.24 C 93.62 55.18 100.17 55.00 106.70 55.37 C 106.73 56.78 106.73 58.20 106.67 59.62 C 100.15 59.97 93.60 59.88 87.08 59.72 Z" />
</g>
</svg>
