<?xml version="1.0" encoding="UTF-8" ?>
<!DOCTYPE svg PUBLIC "-//W3C//DTD SVG 1.1//EN" "http://www.w3.org/Graphics/SVG/1.1/DTD/svg11.dtd">
<svg width="192pt" height="192pt" viewBox="0 0 192 192" version="1.1" xmlns="http://www.w3.org/2000/svg">
<g id="#ff3661ff">
<path fill="#ff3661" opacity="1.00" d=" M 39.36 21.53 C 43.16 20.51 47.12 20.74 51.00 20.73 C 83.33 20.77 115.66 20.68 147.99 20.76 C 160.20 20.73 171.02 31.74 170.82 43.94 C 170.88 77.98 170.87 112.02 170.83 146.06 C 171.12 158.34 160.24 169.39 147.97 169.40 C 132.31 169.43 116.64 169.54 100.99 169.35 C 94.89 169.29 94.12 159.41 100.14 158.44 C 116.08 157.93 132.07 158.51 148.02 158.17 C 154.28 158.00 159.74 152.36 159.65 146.08 C 159.70 112.03 159.72 77.97 159.64 43.92 C 159.71 37.29 153.59 31.64 147.04 31.85 C 113.35 31.81 79.66 31.81 45.97 31.83 C 39.73 31.61 33.69 36.65 33.34 42.98 C 33.04 64.32 33.55 85.70 33.11 107.04 C 32.76 113.29 22.48 113.21 22.17 106.98 C 21.89 85.98 22.09 64.96 22.08 43.95 C 21.97 33.69 29.51 24.13 39.36 21.53 Z" />
<path fill="#ff3661" opacity="1.00" d=" M 88.67 120.03 C 90.04 118.39 90.94 115.99 93.02 115.18 C 98.13 117.81 102.62 121.54 107.39 124.73 C 110.27 126.83 106.48 129.74 105.24 131.68 C 99.73 127.78 94.07 124.08 88.67 120.03 Z" />
<path fill="#ff3661" opacity="1.00" d=" M 27.63 128.04 C 20.81 128.92 20.02 118.07 25.99 116.73 C 33.97 116.62 42.02 116.27 49.97 116.92 C 61.89 120.28 63.73 137.09 56.93 145.94 C 53.01 151.18 45.97 151.57 39.99 151.40 C 39.86 153.80 39.90 156.21 40.08 158.61 C 46.96 155.98 50.55 165.63 44.83 169.00 C 38.67 169.92 32.24 169.34 25.99 169.31 C 20.01 167.95 20.84 157.11 27.65 157.96 C 27.70 147.99 27.89 138.01 27.63 128.04 M 41.59 127.52 C 38.12 130.70 40.52 136.86 39.91 141.24 C 49.69 144.07 51.26 126.56 41.59 127.52 Z" />
<path fill="#ff3661" opacity="1.00" d=" M 66.65 151.14 C 73.61 141.09 80.60 131.06 87.86 121.23 C 93.24 124.98 98.66 128.69 104.09 132.37 C 98.05 143.00 90.23 152.62 83.20 162.65 C 77.55 159.00 72.14 155.02 66.65 151.14 Z" />
<path fill="#ff3661" opacity="1.00" d=" M 65.65 152.61 C 71.37 156.17 76.76 160.22 82.23 164.14 C 77.23 166.18 72.14 167.96 66.96 169.47 C 66.44 163.86 65.80 158.25 65.65 152.61 Z" />
</g>
</svg>
