<?xml version="1.0" encoding="UTF-8" ?>
<!DOCTYPE svg PUBLIC "-//W3C//DTD SVG 1.1//EN" "http://www.w3.org/Graphics/SVG/1.1/DTD/svg11.dtd">
<svg width="192pt" height="192pt" viewBox="0 0 192 192" version="1.1" xmlns="http://www.w3.org/2000/svg">
<g id="#9d7f94ff">
<path fill="#9d7f94" opacity="1.00" d=" M 64.12 31.12 C 58.90 29.23 60.32 20.59 65.97 20.73 C 93.30 20.60 120.64 20.65 147.97 20.70 C 160.21 20.78 170.98 31.69 170.83 43.94 C 170.83 78.65 170.93 113.37 170.77 148.08 C 170.61 160.08 159.90 170.41 147.97 170.52 C 113.33 170.58 78.68 170.57 44.03 170.53 C 32.02 170.55 21.33 160.07 21.07 148.08 C 20.98 113.37 21.05 78.66 21.03 43.95 C 21.03 34.77 26.94 25.75 35.61 22.56 C 37.73 21.96 39.86 23.40 40.63 25.36 C 45.59 36.10 50.08 47.08 55.21 57.74 C 56.89 61.20 61.74 60.61 63.68 57.72 C 71.39 48.88 80.57 41.12 87.30 31.56 C 79.59 31.17 71.77 32.05 64.12 31.12 M 108.78 31.69 C 116.46 40.81 125.04 49.14 133.09 57.94 C 135.10 60.84 139.91 60.95 141.49 57.57 C 145.45 49.00 149.39 40.40 152.93 31.64 C 138.21 31.52 123.49 31.44 108.78 31.69 M 81.20 51.81 C 84.38 57.61 87.58 63.40 90.92 69.11 C 95.84 68.98 100.82 69.59 105.69 68.83 C 109.21 63.33 112.14 57.47 115.37 51.80 C 109.72 45.68 104.18 39.41 98.09 33.73 C 92.40 39.70 86.76 45.72 81.20 51.81 M 31.65 45.00 C 31.67 79.00 31.61 113.00 31.67 146.99 C 31.49 153.65 37.27 159.76 43.95 159.82 C 52.46 159.90 60.98 159.94 69.49 159.77 C 74.18 132.11 78.79 104.44 83.47 76.78 C 84.44 72.83 81.01 69.78 79.54 66.42 C 77.72 64.15 77.24 59.97 74.33 59.13 C 68.92 64.46 63.99 70.28 58.52 75.56 C 57.09 77.24 54.21 76.55 53.31 74.66 C 47.00 61.60 41.84 47.97 35.21 35.06 C 33.05 37.93 31.48 41.33 31.65 45.00 M 143.40 74.41 C 142.68 76.37 139.91 77.22 138.33 75.85 C 132.33 70.50 127.72 63.67 121.36 58.74 C 118.57 65.51 111.43 71.44 113.54 79.34 C 118.11 106.15 122.56 132.97 127.12 159.78 C 134.10 159.89 141.08 159.95 148.05 159.80 C 154.63 159.61 160.34 153.60 160.19 147.01 C 160.28 113.34 160.18 79.66 160.24 45.99 C 160.28 43.88 159.79 41.81 159.23 39.79 C 153.44 51.08 148.91 62.98 143.40 74.41 M 91.91 77.73 C 87.54 105.10 82.64 132.38 78.28 159.75 C 91.61 159.98 104.95 159.85 118.28 159.82 C 114.16 133.81 109.59 107.86 105.32 81.87 C 105.50 74.59 96.41 78.63 91.91 77.73 Z" />
</g>
</svg>
