<?xml version="1.0" encoding="UTF-8" ?>
<!DOCTYPE svg PUBLIC "-//W3C//DTD SVG 1.1//EN" "http://www.w3.org/Graphics/SVG/1.1/DTD/svg11.dtd">
<svg width="192pt" height="192pt" viewBox="0 0 192 192" version="1.1" xmlns="http://www.w3.org/2000/svg">
<g id="#e12da2ff">
<path fill="#e12da2" opacity="1.00" d=" M 21.47 44.03 C 21.57 32.15 32.06 21.62 43.92 21.39 C 60.28 21.26 76.65 21.34 93.01 21.35 C 95.76 21.12 98.57 23.28 98.61 26.13 C 98.97 39.99 98.27 53.91 98.95 67.75 C 118.95 67.55 138.95 67.70 158.95 67.68 C 159.23 60.11 159.11 52.53 159.04 44.95 C 159.21 38.75 154.01 32.98 147.80 32.61 C 136.88 32.35 125.93 32.81 115.01 32.40 C 109.05 31.73 109.21 22.00 115.16 21.47 C 126.10 21.16 137.07 21.32 148.01 21.40 C 159.77 21.77 170.06 32.23 170.19 44.01 C 170.27 78.34 170.23 112.67 170.19 146.99 C 170.33 159.35 159.33 170.27 146.99 170.20 C 113.00 170.30 79.01 170.27 45.02 170.22 C 32.54 170.50 21.26 159.49 21.44 146.98 C 21.43 112.66 21.39 78.35 21.47 44.03 M 32.59 45.01 C 32.49 64.13 32.67 83.25 32.51 102.36 C 50.77 102.72 69.05 102.46 87.32 102.49 C 87.29 79.19 87.34 55.89 87.30 32.60 C 73.18 32.49 59.06 32.56 44.94 32.55 C 38.31 32.37 32.38 38.39 32.59 45.01 M 98.71 79.13 C 98.55 100.70 98.89 122.29 98.52 143.85 C 97.84 149.85 88.12 149.85 87.46 143.85 C 87.11 133.87 87.47 123.87 87.28 113.88 C 69.06 113.80 50.85 113.84 32.63 113.86 C 32.54 124.90 32.53 135.94 32.62 146.98 C 32.59 153.46 38.49 159.12 44.93 158.98 C 78.64 159.03 112.35 159.03 146.05 159.03 C 153.14 159.49 159.56 153.12 159.12 146.02 C 159.13 123.73 159.16 101.43 159.07 79.14 C 138.95 79.11 118.83 79.13 98.71 79.13 Z" />
</g>
</svg>
