<?xml version="1.0" encoding="UTF-8" ?>
<!DOCTYPE svg PUBLIC "-//W3C//DTD SVG 1.1//EN" "http://www.w3.org/Graphics/SVG/1.1/DTD/svg11.dtd">
<svg width="192pt" height="192pt" viewBox="0 0 192 192" version="1.1" xmlns="http://www.w3.org/2000/svg">
<g id="#a791a1ff">
<path fill="#a791a1" opacity="1.00" d=" M 59.36 49.02 C 58.34 29.30 76.36 11.57 96.00 12.56 C 114.45 12.41 129.93 29.31 130.31 47.35 C 148.70 40.18 171.00 51.82 176.30 70.64 C 182.29 88.22 171.36 108.27 154.32 114.60 C 166.21 129.75 162.31 153.67 146.92 164.92 C 132.09 176.49 109.08 172.56 97.73 157.95 C 87.01 174.03 62.95 178.13 47.51 166.53 C 31.78 155.95 28.82 132.73 38.99 117.30 C 20.56 112.52 9.49 91.11 15.12 73.16 C 19.80 54.57 41.32 43.71 59.36 49.02 M 92.44 23.55 C 76.89 24.57 65.93 42.61 72.14 56.91 C 74.49 61.34 69.14 66.80 64.73 64.26 C 60.05 61.12 54.78 58.49 49.00 58.56 C 35.68 58.39 23.94 70.73 24.48 83.98 C 24.73 97.08 36.82 108.46 50.00 107.58 C 55.50 106.37 59.22 114.27 54.51 117.47 C 47.72 122.36 43.06 130.46 43.73 138.98 C 44.37 152.02 56.78 163.58 69.97 162.22 C 80.49 161.42 89.70 153.34 92.16 143.13 C 93.53 138.16 101.38 138.36 102.57 143.36 C 105.32 152.77 114.02 160.22 123.91 160.74 C 135.27 161.64 146.90 153.93 149.60 142.69 C 152.66 132.37 147.46 121.06 138.65 115.33 C 134.43 112.89 136.24 105.60 141.10 105.40 C 148.69 105.23 156.57 102.55 161.39 96.41 C 169.78 86.51 168.11 70.09 158.05 61.95 C 149.76 54.86 136.76 54.60 128.07 61.15 C 125.63 63.29 121.71 64.60 119.22 61.77 C 115.40 57.16 120.40 51.26 119.31 46.03 C 118.76 32.61 105.48 22.34 92.44 23.55 Z" />
<path fill="#a791a1" opacity="1.00" d=" M 91.34 64.41 C 107.74 61.58 124.41 74.72 126.35 91.07 C 129.11 108.26 114.34 125.43 97.06 125.84 C 81.30 126.77 66.59 113.67 65.13 98.06 C 63.29 82.24 75.71 66.72 91.34 64.41 M 92.52 75.83 C 79.56 77.28 72.40 93.27 78.70 104.32 C 84.00 115.10 99.85 117.56 108.63 109.69 C 116.89 102.79 117.31 88.83 109.71 81.30 C 105.38 76.73 98.67 74.81 92.52 75.83 Z" />
</g>
</svg>
