<?xml version="1.0" encoding="UTF-8" ?>
<!DOCTYPE svg PUBLIC "-//W3C//DTD SVG 1.1//EN" "http://www.w3.org/Graphics/SVG/1.1/DTD/svg11.dtd">
<svg width="192pt" height="192pt" viewBox="0 0 192 192" version="1.1" xmlns="http://www.w3.org/2000/svg">
<g id="#4970c2ff">
<path fill="#4970c2" opacity="1.00" d=" M 22.13 43.94 C 21.90 31.71 32.81 20.71 45.02 20.77 C 54.35 20.79 63.70 20.59 73.02 20.86 C 78.73 21.27 79.32 30.48 73.71 31.59 C 64.14 32.16 54.53 31.48 44.95 31.88 C 38.76 32.14 33.09 37.61 33.29 43.93 C 33.25 59.11 33.27 74.30 33.29 89.48 C 52.69 89.45 72.08 89.57 91.47 89.39 C 91.47 68.31 91.41 47.23 91.52 26.16 C 91.40 22.78 94.76 20.33 97.97 20.74 C 114.64 20.75 131.31 20.69 147.98 20.76 C 160.20 20.73 171.02 31.73 170.84 43.94 C 170.90 67.30 170.94 90.68 170.86 114.05 C 171.17 117.56 168.03 119.72 164.99 120.44 C 156.48 117.81 160.64 107.40 159.62 100.89 C 140.66 100.59 121.70 100.81 102.73 100.75 C 102.69 119.92 102.70 139.09 102.75 158.26 C 117.49 158.35 132.24 158.27 146.99 158.28 C 151.99 158.53 156.86 155.32 158.71 150.69 C 160.73 145.78 158.71 140.27 160.26 135.28 C 162.04 130.95 168.89 131.18 170.44 135.58 C 171.64 140.16 171.05 145.01 170.60 149.67 C 169.15 160.62 159.02 169.51 147.97 169.56 C 113.66 169.62 79.34 169.59 45.03 169.53 C 32.65 169.60 21.76 158.40 22.08 146.04 C 22.07 112.01 22.08 77.97 22.13 43.94 M 102.70 31.82 C 102.67 51.02 102.68 70.21 102.71 89.41 C 121.63 89.58 140.55 89.30 159.46 89.53 C 159.94 74.67 159.55 59.80 159.67 44.93 C 160.20 37.96 153.95 31.68 147.03 31.88 C 132.25 31.77 117.47 31.84 102.70 31.82 M 33.29 100.73 C 33.28 115.84 33.27 130.95 33.29 146.06 C 33.06 152.41 38.63 158.26 44.99 158.29 C 60.46 158.37 75.94 158.31 91.41 158.28 C 91.43 139.10 91.51 119.92 91.38 100.74 C 72.02 100.72 52.65 100.67 33.29 100.73 Z" />
</g>
</svg>
