<?xml version="1.0" encoding="UTF-8" ?>
<!DOCTYPE svg PUBLIC "-//W3C//DTD SVG 1.1//EN" "http://www.w3.org/Graphics/SVG/1.1/DTD/svg11.dtd">
<svg width="192pt" height="192pt" viewBox="0 0 192 192" version="1.1" xmlns="http://www.w3.org/2000/svg">
<g id="#ff653bff">
<path fill="#ff653b" opacity="1.00" d=" M 68.48 31.00 C 68.81 23.66 75.65 17.41 83.00 17.74 C 92.34 17.77 101.68 17.64 111.02 17.80 C 118.31 18.00 124.55 24.68 124.49 31.93 C 124.61 39.39 124.47 46.85 124.55 54.30 C 138.03 54.40 151.52 54.25 165.01 54.36 C 168.53 54.13 171.26 57.56 170.85 60.95 C 170.82 90.65 170.94 120.36 170.80 150.07 C 170.61 161.99 159.96 172.44 148.06 172.51 C 113.69 172.58 79.32 172.57 44.95 172.51 C 33.00 172.48 22.34 162.03 22.10 150.08 C 21.97 120.36 22.08 90.64 22.06 60.92 C 21.63 57.50 24.44 54.07 27.99 54.38 C 56.39 54.29 84.80 54.40 113.20 54.31 C 113.24 47.18 113.26 40.05 113.22 32.93 C 113.49 31.05 112.17 28.78 110.05 29.16 C 100.48 29.21 90.88 28.87 81.33 29.34 C 76.85 33.85 82.47 42.14 77.69 46.76 C 74.70 49.57 69.18 47.68 68.57 43.62 C 68.22 39.43 68.38 35.20 68.48 31.00 M 33.25 65.62 C 33.29 93.44 33.24 121.25 33.28 149.07 C 33.03 155.81 39.29 161.78 46.00 161.33 C 79.67 161.32 113.33 161.33 146.99 161.32 C 154.11 161.76 160.29 155.08 159.69 148.06 C 159.54 120.55 159.97 93.02 159.47 65.52 C 117.40 65.73 75.32 65.49 33.25 65.62 Z" />
<path fill="#ff653b" opacity="1.00" d=" M 143.57 72.61 C 146.05 71.44 149.19 71.96 151.86 72.34 C 153.26 75.06 152.29 78.37 152.34 81.31 C 149.31 81.49 146.23 81.78 143.25 81.02 C 143.38 78.24 142.63 75.29 143.57 72.61 Z" />
<path fill="#ff653b" opacity="1.00" d=" M 91.43 74.53 C 107.75 72.14 124.78 81.42 131.87 96.25 C 139.58 111.30 136.01 131.09 123.47 142.46 C 111.69 153.80 92.69 156.49 78.29 148.72 C 64.24 141.62 55.42 125.58 57.15 109.90 C 58.54 92.04 73.61 76.46 91.43 74.53 M 92.47 85.74 C 80.98 87.25 71.13 96.53 68.84 107.87 C 65.11 123.45 77.19 140.24 93.12 141.67 C 109.12 144.06 124.92 130.18 124.63 114.03 C 125.39 97.37 108.89 82.90 92.47 85.74 Z" />
<path fill="#ff653b" opacity="1.00" d=" M 92.37 94.46 C 105.59 91.07 119.04 104.50 115.66 117.72 C 113.80 127.82 103.07 135.09 93.01 133.01 C 83.64 131.53 76.28 122.45 76.85 112.97 C 76.98 104.19 83.78 96.16 92.37 94.46 M 95.37 105.40 C 88.76 105.92 85.68 115.01 90.48 119.52 C 94.49 123.98 102.66 122.09 104.34 116.35 C 106.53 110.82 101.18 104.38 95.37 105.40 Z" />
</g>
</svg>
