<?xml version="1.0" encoding="UTF-8" ?>
<!DOCTYPE svg PUBLIC "-//W3C//DTD SVG 1.1//EN" "http://www.w3.org/Graphics/SVG/1.1/DTD/svg11.dtd">
<svg width="192pt" height="192pt" viewBox="0 0 192 192" version="1.1" xmlns="http://www.w3.org/2000/svg">
<g id="#1ab0ffff">
<path fill="#1ab0ff" opacity="1.00" d=" M 97.51 32.58 C 94.47 27.99 98.59 21.42 103.98 21.77 C 123.99 21.71 144.01 21.71 164.01 21.77 C 168.00 21.62 171.76 24.88 171.74 28.95 C 171.87 48.98 171.82 69.02 171.78 89.05 C 172.22 94.96 164.47 98.99 159.95 95.14 C 155.28 91.04 151.10 86.42 146.64 82.08 C 139.57 89.19 132.62 96.44 125.44 103.44 C 122.33 106.64 116.86 106.40 113.93 103.08 C 105.38 94.61 96.83 86.15 88.40 77.56 C 85.25 74.61 85.10 69.29 88.24 66.28 C 95.11 59.03 102.29 52.09 109.20 44.89 C 105.53 40.58 100.93 37.10 97.51 32.58 M 112.81 32.69 C 116.65 37.05 124.47 41.82 120.60 48.59 C 113.69 56.80 105.50 63.93 98.18 71.80 C 105.30 79.11 112.57 86.29 119.84 93.46 C 127.63 86.07 134.64 77.80 142.76 70.81 C 150.77 66.75 155.62 76.44 160.84 80.70 C 160.84 64.69 160.96 48.68 160.77 32.67 C 144.79 32.67 128.80 32.60 112.81 32.69 Z" />
<path fill="#1ab0ff" opacity="1.00" d=" M 69.66 84.66 C 72.79 81.66 77.99 81.99 80.94 85.08 C 89.51 93.49 98.02 101.97 106.44 110.52 C 109.67 113.44 109.94 118.72 106.82 121.81 C 100.59 128.28 94.22 134.66 87.73 140.86 C 83.33 144.37 76.64 138.51 79.73 133.71 C 85.06 127.61 91.22 122.26 96.75 116.33 C 89.50 109.15 82.39 101.82 75.02 94.76 C 66.27 103.12 58.15 112.19 49.11 120.20 C 41.26 124.63 36.18 114.86 31.13 110.52 C 31.04 126.52 31.05 142.52 31.12 158.52 C 47.10 158.54 63.08 158.53 79.07 158.51 C 76.19 155.23 72.32 152.68 70.23 148.81 C 68.30 144.10 74.47 139.39 78.48 142.52 C 83.63 147.34 88.57 152.41 93.48 157.47 C 97.62 161.79 93.89 169.70 87.98 169.47 C 68.00 169.60 48.01 169.56 28.02 169.47 C 23.87 169.73 20.04 166.30 20.14 162.09 C 19.95 142.03 20.06 121.96 20.11 101.90 C 19.71 96.00 27.52 92.21 31.93 96.12 C 36.51 100.20 40.61 104.79 45.08 108.99 C 53.36 100.97 61.29 92.59 69.66 84.66 Z" />
</g>
</svg>
