<?xml version="1.0" encoding="UTF-8" ?>
<!DOCTYPE svg PUBLIC "-//W3C//DTD SVG 1.1//EN" "http://www.w3.org/Graphics/SVG/1.1/DTD/svg11.dtd">
<svg width="192pt" height="192pt" viewBox="0 0 192 192" version="1.1" xmlns="http://www.w3.org/2000/svg">
<g id="#c85a81ff">
<path fill="#c85a81" opacity="1.00" d=" M 40.27 21.30 C 75.77 19.97 111.43 21.10 146.99 20.72 C 159.57 20.17 171.02 31.37 170.84 43.94 C 170.91 77.98 170.90 112.02 170.86 146.06 C 171.18 158.36 160.36 169.49 148.06 169.53 C 113.69 169.61 79.31 169.59 44.95 169.53 C 32.59 169.53 21.79 158.38 22.03 146.05 C 22.02 112.01 21.99 77.97 22.06 43.93 C 21.97 33.36 29.99 23.54 40.27 21.30 M 42.28 32.37 C 37.24 33.75 33.20 38.60 33.31 43.93 C 33.25 77.97 33.28 112.02 33.29 146.06 C 33.06 152.80 39.28 158.76 46.00 158.31 C 79.66 158.31 113.33 158.31 146.99 158.29 C 153.68 158.70 159.78 152.74 159.64 146.07 C 159.69 112.02 159.72 77.97 159.63 43.92 C 159.69 36.88 152.87 31.27 146.01 31.86 C 111.45 32.20 76.78 31.14 42.28 32.37 Z" />
<path fill="#c85a81" opacity="1.00" d=" M 49.36 53.34 C 54.07 52.41 58.92 52.60 63.64 53.33 C 63.89 60.11 66.57 69.49 60.28 74.26 C 57.30 75.54 50.03 77.67 50.14 72.60 C 54.14 72.32 59.08 71.17 59.20 66.24 C 56.02 66.06 52.34 67.36 49.48 65.72 C 48.75 61.63 49.19 57.45 49.36 53.34 Z" />
<path fill="#c85a81" opacity="1.00" d=" M 72.16 53.22 C 76.91 52.56 81.78 52.44 86.49 53.47 C 86.01 60.30 89.59 70.12 82.56 74.49 C 79.54 75.49 72.63 77.64 72.95 72.53 C 76.95 72.34 81.55 71.06 82.00 66.37 C 78.92 66.32 75.84 66.48 72.76 66.59 C 70.85 62.40 71.64 57.63 72.16 53.22 Z" />
<path fill="#c85a81" opacity="1.00" d=" M 141.52 88.47 C 142.41 87.01 144.65 87.52 144.83 89.16 C 145.62 92.13 141.28 93.20 141.10 95.87 C 142.73 98.17 147.83 101.89 142.96 103.71 C 139.98 101.38 136.27 98.83 135.13 95.13 C 136.89 92.60 139.18 90.46 141.52 88.47 Z" />
<path fill="#c85a81" opacity="1.00" d=" M 112.29 89.35 C 116.07 87.97 120.50 90.96 120.53 95.00 C 120.89 99.77 114.56 103.46 110.77 100.21 C 106.72 97.61 107.66 90.72 112.29 89.35 Z" />
<path fill="#c85a81" opacity="1.00" d=" M 111.41 113.65 C 121.53 113.32 131.69 113.33 141.82 113.60 C 147.47 114.11 146.31 121.01 146.47 125.01 C 147.00 132.00 145.31 139.99 138.87 143.85 C 127.73 150.32 107.66 146.49 107.31 131.07 C 108.25 125.55 104.21 115.77 111.41 113.65 Z" />
</g>
</svg>
