<?xml version="1.0" encoding="UTF-8" ?>
<!DOCTYPE svg PUBLIC "-//W3C//DTD SVG 1.1//EN" "http://www.w3.org/Graphics/SVG/1.1/DTD/svg11.dtd">
<svg width="192pt" height="192pt" viewBox="0 0 192 192" version="1.1" xmlns="http://www.w3.org/2000/svg">
<g id="#a218ffff">
<path fill="#a218ff" opacity="1.00" d=" M 77.15 12.33 C 102.65 5.08 131.70 15.42 147.23 36.81 C 167.37 63.34 162.70 104.80 137.22 126.23 C 117.83 143.45 87.76 147.41 64.83 135.18 C 59.34 131.26 65.42 122.30 71.13 125.87 C 91.85 135.82 118.31 130.82 133.82 113.82 C 148.71 97.99 152.80 73.04 143.82 53.25 C 137.78 39.66 125.73 28.99 111.66 24.28 C 94.25 18.18 73.79 21.83 59.62 33.64 C 47.28 43.63 39.82 59.11 39.38 74.95 C 39.29 104.97 39.48 134.99 39.28 165.01 C 45.86 165.18 52.46 165.28 59.03 164.94 C 59.50 161.97 58.76 158.80 59.86 155.96 C 61.57 152.16 67.44 151.85 69.57 155.41 C 72.56 162.95 69.84 174.04 61.00 176.15 C 52.38 176.89 43.66 176.31 35.00 176.47 C 31.01 176.72 27.74 172.96 28.06 169.07 C 27.98 137.02 28.08 104.97 28.20 72.93 C 29.30 44.99 49.85 18.96 77.15 12.33 Z" />
<path fill="#a218ff" opacity="1.00" d=" M 86.28 42.30 C 104.55 37.49 124.47 50.59 128.31 68.84 C 133.04 87.07 119.62 106.91 101.35 110.40 C 83.38 114.82 63.91 101.90 60.09 83.99 C 55.55 65.98 68.23 46.18 86.28 42.30 M 88.34 53.46 C 78.25 55.89 70.52 65.59 70.49 75.98 C 70.13 87.57 79.65 98.33 91.10 99.69 C 103.98 101.61 116.98 91.09 117.85 78.11 C 119.24 62.90 103.21 48.96 88.34 53.46 Z" />
</g>
</svg>
