<?xml version="1.0" encoding="UTF-8" ?>
<!DOCTYPE svg PUBLIC "-//W3C//DTD SVG 1.1//EN" "http://www.w3.org/Graphics/SVG/1.1/DTD/svg11.dtd">
<svg width="192pt" height="192pt" viewBox="0 0 192 192" version="1.1" xmlns="http://www.w3.org/2000/svg">
<g id="#a77597ff">
<path fill="#a77597" opacity="1.00" d=" M 62.13 18.18 C 90.70 5.59 126.13 11.81 148.89 33.12 C 151.54 35.96 156.05 38.53 155.38 43.02 C 154.75 47.24 148.89 49.13 146.00 45.95 C 135.38 34.76 121.28 26.59 105.95 24.21 C 103.46 23.24 102.64 26.05 101.63 27.66 C 96.19 37.09 90.74 46.52 85.14 55.86 C 110.44 56.19 135.75 55.93 161.05 55.96 C 164.15 55.81 167.31 57.49 168.66 60.33 C 180.75 86.22 177.40 118.46 160.36 141.39 C 142.17 166.91 108.83 180.51 78.02 173.96 C 41.96 167.23 13.16 133.73 12.10 97.03 C 10.21 63.66 31.45 31.00 62.13 18.18 M 39.70 48.62 C 38.07 50.37 40.31 52.33 40.98 54.00 C 46.67 62.98 51.23 72.81 57.53 81.31 C 68.74 61.94 80.44 42.84 91.25 23.24 C 71.47 23.75 52.19 33.30 39.70 48.62 M 31.38 60.95 C 21.85 79.41 20.85 101.94 28.96 121.09 C 41.31 121.06 53.67 121.13 66.03 121.04 C 54.50 101.00 43.58 80.60 31.38 60.95 M 78.61 67.48 C 73.69 76.28 68.12 84.76 63.54 93.72 C 68.55 102.90 74.31 111.66 79.33 120.84 C 89.15 121.19 98.99 120.93 108.83 120.97 C 114.04 111.91 119.23 102.82 124.61 93.86 C 119.79 84.92 114.41 76.30 109.35 67.49 C 99.10 67.43 88.86 67.43 78.61 67.48 M 121.99 67.41 C 133.42 87.02 144.98 106.56 156.63 126.04 C 165.83 108.09 167.06 86.19 159.43 67.47 C 146.95 67.41 134.47 67.50 121.99 67.41 M 130.31 104.86 C 119.86 124.60 109.07 144.16 98.59 163.88 C 118.40 163.02 137.45 152.74 149.49 137.05 C 143.01 126.38 137.30 115.18 130.31 104.86 M 35.19 132.56 C 46.27 149.55 65.07 161.13 85.19 163.60 C 91.49 152.83 97.84 142.08 104.03 131.25 C 81.08 131.62 58.14 132.35 35.19 132.56 Z" />
</g>
</svg>
