<?xml version="1.0" encoding="UTF-8" ?>
<!DOCTYPE svg PUBLIC "-//W3C//DTD SVG 1.1//EN" "http://www.w3.org/Graphics/SVG/1.1/DTD/svg11.dtd">
<svg width="192pt" height="192pt" viewBox="0 0 192 192" version="1.1" xmlns="http://www.w3.org/2000/svg">
<g id="#19b0ffff">
<path fill="#19b0ff" opacity="1.00" d=" M 22.29 41.07 C 23.59 29.96 33.80 20.75 45.01 20.76 C 79.33 20.74 113.66 20.71 147.98 20.76 C 160.20 20.73 171.01 31.74 170.82 43.94 C 170.89 77.98 170.89 112.02 170.85 146.05 C 171.16 158.34 160.37 169.47 148.07 169.52 C 113.70 169.59 79.31 169.56 44.94 169.50 C 32.60 169.50 21.76 158.36 22.07 146.03 C 22.10 122.03 21.94 98.02 22.17 74.02 C 22.49 67.76 32.70 67.71 33.09 73.99 C 33.52 98.32 33.06 122.69 33.31 147.03 C 33.57 153.40 39.61 158.70 45.94 158.34 C 79.89 158.30 113.84 158.35 147.79 158.27 C 154.18 158.26 159.76 152.45 159.64 146.08 C 159.69 116.68 159.74 87.27 159.62 57.87 C 144.29 69.20 126.08 77.01 106.94 78.34 C 77.56 80.51 48.79 68.73 25.60 51.37 C 22.37 49.05 21.59 44.77 22.29 41.07 M 33.68 43.17 C 54.49 58.82 80.61 69.20 107.00 67.05 C 126.67 65.50 144.91 56.08 159.70 43.37 C 159.23 36.97 153.45 31.65 147.02 31.84 C 113.34 31.80 79.65 31.79 45.97 31.81 C 39.90 31.48 32.91 37.05 33.68 43.17 Z" />
<path fill="#19b0ff" opacity="1.00" d=" M 86.51 108.45 C 89.84 101.77 99.96 100.53 104.79 106.24 C 109.81 111.39 108.02 120.29 102.07 123.91 C 101.96 130.26 102.35 136.63 101.89 142.96 C 100.94 148.07 93.05 148.66 91.27 143.80 C 89.94 137.20 91.62 130.26 90.43 123.68 C 85.76 120.29 83.44 113.68 86.51 108.45 Z" />
</g>
</svg>
