<?xml version="1.0" encoding="UTF-8" ?>
<!DOCTYPE svg PUBLIC "-//W3C//DTD SVG 1.1//EN" "http://www.w3.org/Graphics/SVG/1.1/DTD/svg11.dtd">
<svg width="192pt" height="192pt" viewBox="0 0 192 192" version="1.1" xmlns="http://www.w3.org/2000/svg">
<g id="#f6b02bff">
<path fill="#f6b02b" opacity="1.00" d=" M 39.37 21.54 C 43.16 20.52 47.12 20.75 51.00 20.73 C 83.33 20.77 115.65 20.69 147.98 20.76 C 160.19 20.73 171.02 31.74 170.82 43.95 C 170.89 77.98 170.88 112.01 170.85 146.04 C 171.16 158.33 160.36 169.46 148.07 169.51 C 113.69 169.59 79.31 169.56 44.93 169.50 C 32.99 169.48 22.34 159.00 22.12 147.07 C 21.96 137.36 22.07 127.64 22.07 117.93 C 21.91 115.28 23.19 112.85 25.08 111.08 C 39.46 96.79 53.85 82.52 68.23 68.23 C 70.31 66.30 71.94 63.54 74.90 62.90 C 95.00 57.40 115.05 51.72 135.16 46.30 C 139.48 44.90 143.75 49.80 142.00 53.93 C 136.57 73.44 130.91 92.90 125.46 112.41 C 125.00 113.84 124.66 115.43 123.49 116.48 C 110.70 129.03 98.08 141.76 85.31 154.33 C 84.47 155.50 82.02 156.87 84.00 158.18 C 104.99 158.51 125.99 158.22 146.98 158.30 C 153.68 158.69 159.79 152.77 159.65 146.08 C 159.69 112.03 159.72 77.97 159.64 43.91 C 159.71 37.29 153.55 31.67 147.02 31.85 C 113.34 31.80 79.66 31.79 45.98 31.81 C 39.77 31.63 33.68 36.63 33.33 42.96 C 33.02 58.99 33.54 75.03 33.09 91.05 C 32.46 97.07 22.69 97.01 22.20 90.97 C 21.89 75.31 22.12 59.62 22.10 43.95 C 21.98 33.70 29.52 24.14 39.37 21.54 M 120.76 62.36 C 122.35 64.26 124.06 66.06 125.82 67.81 C 126.48 65.48 127.11 63.15 127.72 60.81 C 125.39 61.26 123.06 61.76 120.76 62.36 M 83.89 72.62 C 86.98 79.87 90.40 87.01 94.03 93.99 C 100.91 97.91 108.28 100.95 115.32 104.58 C 117.50 96.46 120.48 88.47 121.91 80.21 C 117.49 75.26 112.60 70.75 107.97 66.00 C 99.93 68.17 91.92 70.44 83.89 72.62 M 37.12 115.12 C 35.26 116.97 33.28 119.16 33.32 121.96 C 33.15 130.07 33.30 138.18 33.27 146.29 C 49.98 130.02 66.41 113.45 82.99 97.03 C 80.00 90.90 77.06 84.75 73.98 78.67 C 61.62 90.75 49.45 103.01 37.12 115.12 M 91.01 105.14 C 74.01 121.96 57.09 138.87 40.10 155.71 C 41.47 159.24 46.02 158.10 49.00 158.36 C 54.48 157.89 60.35 159.25 65.58 157.59 C 80.33 143.33 94.92 128.83 109.31 114.20 C 103.20 111.19 97.12 108.14 91.01 105.14 Z" />
</g>
</svg>
