<?xml version="1.0" encoding="UTF-8" ?>
<!DOCTYPE svg PUBLIC "-//W3C//DTD SVG 1.1//EN" "http://www.w3.org/Graphics/SVG/1.1/DTD/svg11.dtd">
<svg width="192pt" height="192pt" viewBox="0 0 192 192" version="1.1" xmlns="http://www.w3.org/2000/svg">
<g id="#fb793fff">
<path fill="#fb793f" opacity="1.00" d=" M 82.98 23.27 C 96.48 16.76 112.26 20.47 125.02 26.98 C 140.38 35.07 155.67 49.34 155.44 68.02 C 154.66 77.32 145.67 83.76 136.89 84.73 C 120.19 86.94 103.70 79.36 90.92 69.11 C 80.67 60.56 71.27 47.45 74.75 33.40 C 60.86 31.46 44.44 31.26 33.59 41.59 C 26.37 48.85 26.21 60.28 29.65 69.38 C 36.64 88.27 51.67 102.92 67.99 114.10 C 89.80 128.51 116.40 139.02 142.90 134.69 C 152.43 133.37 162.10 127.25 164.50 117.45 C 167.37 106.18 162.19 94.95 156.63 85.40 C 153.46 79.96 161.94 74.34 165.79 79.22 C 175.63 93.46 181.40 113.73 171.53 129.46 C 165.75 138.67 155.43 144.08 144.95 146.02 C 140.83 146.42 138.57 150.28 135.51 152.56 C 112.27 172.70 76.01 178.31 49.31 161.69 C 20.72 145.11 9.07 107.87 17.92 76.87 C 20.00 71.89 16.51 67.06 16.42 62.04 C 14.51 48.68 21.04 34.45 32.94 27.85 C 48.07 19.09 66.42 20.38 82.98 23.27 M 93.37 31.53 C 86.95 32.28 83.94 39.68 86.86 45.14 C 94.02 60.67 110.56 70.65 127.06 73.28 C 132.93 73.83 141.62 73.73 143.70 66.88 C 144.57 58.79 138.89 51.86 133.45 46.55 C 122.77 36.78 108.14 29.57 93.37 31.53 M 26.80 90.17 C 24.98 106.34 28.62 123.38 38.28 136.63 C 48.10 150.28 64.21 159.17 81.02 160.08 C 96.25 161.11 111.43 156.00 123.82 147.30 C 85.47 142.93 49.30 121.50 26.80 90.17 Z" />
</g>
</svg>
