<?xml version="1.0" encoding="UTF-8" ?>
<!DOCTYPE svg PUBLIC "-//W3C//DTD SVG 1.1//EN" "http://www.w3.org/Graphics/SVG/1.1/DTD/svg11.dtd">
<svg width="192pt" height="192pt" viewBox="0 0 192 192" version="1.1" xmlns="http://www.w3.org/2000/svg">
<g id="#18adffff">
<path fill="#18adff" opacity="1.00" d=" M 84.31 14.39 C 111.13 9.75 139.72 22.99 154.13 45.94 C 160.48 56.56 165.80 68.44 166.08 81.00 C 166.43 90.06 161.78 99.52 153.42 103.51 C 143.66 108.56 130.57 104.08 125.65 94.35 C 122.20 88.27 124.14 80.89 121.48 74.58 C 117.27 63.18 105.25 54.76 92.94 56.13 C 78.92 56.86 67.94 70.31 68.01 83.98 C 67.47 98.00 78.88 111.52 92.95 112.77 C 101.79 113.24 111.90 110.87 116.93 102.93 C 121.06 98.27 129.10 104.43 125.64 109.68 C 118.78 121.34 103.58 124.90 90.95 123.88 C 73.72 121.93 59.34 107.09 57.10 90.04 C 54.16 71.46 66.09 51.55 84.34 46.33 C 102.77 40.32 123.95 51.05 131.26 68.70 C 134.10 74.42 134.20 80.86 134.94 87.06 C 136.38 94.50 147.33 96.92 151.77 90.73 C 157.53 82.90 153.88 72.47 150.80 64.28 C 143.46 43.87 124.62 28.15 103.04 25.26 C 79.16 21.53 54.08 35.14 43.76 56.91 C 37.52 69.62 36.87 84.11 36.75 98.01 C 36.76 123.02 36.97 148.05 36.75 173.05 C 36.72 179.74 25.72 179.68 25.64 173.03 C 25.38 151.03 25.73 129.01 25.51 107.00 C 25.44 90.35 25.25 73.16 31.31 57.37 C 39.76 35.03 60.69 18.02 84.31 14.39 Z" />
<path fill="#18adff" opacity="1.00" d=" M 144.77 115.74 C 147.16 111.34 154.53 113.09 154.99 118.00 C 155.01 122.92 151.75 127.13 148.83 130.83 C 136.59 143.80 120.10 153.54 102.06 155.01 C 90.74 156.22 79.64 152.92 69.29 148.64 C 68.98 157.07 69.60 165.54 68.98 173.94 C 67.85 179.84 58.14 179.11 58.04 173.05 C 57.75 162.01 57.86 150.95 58.01 139.91 C 57.62 135.99 62.05 132.70 65.64 134.47 C 74.69 138.52 83.81 143.22 93.90 143.82 C 110.15 145.05 125.78 137.29 137.34 126.33 C 140.78 123.55 143.03 119.73 144.77 115.74 Z" />
</g>
</svg>
