<?xml version="1.0" encoding="UTF-8" ?>
<!DOCTYPE svg PUBLIC "-//W3C//DTD SVG 1.1//EN" "http://www.w3.org/Graphics/SVG/1.1/DTD/svg11.dtd">
<svg width="192pt" height="192pt" viewBox="0 0 192 192" version="1.1" xmlns="http://www.w3.org/2000/svg">
<g id="#78c257ff">
<path fill="#78c257" opacity="1.00" d=" M 89.07 22.04 C 91.32 19.43 95.75 19.37 98.04 21.98 C 107.35 31.45 112.65 44.24 114.73 57.23 C 125.37 48.18 139.03 42.55 153.03 42.11 C 157.70 42.07 160.39 48.72 156.85 51.86 C 149.62 58.34 145.71 67.39 141.55 75.94 C 149.50 73.48 157.94 71.46 166.29 72.76 C 170.85 73.77 172.08 80.58 168.05 83.06 C 156.86 91.00 150.09 103.49 145.01 115.92 C 144.64 117.27 143.43 118.98 144.74 120.21 C 155.50 132.18 162.94 147.19 165.81 163.03 C 167.20 168.35 159.04 171.02 156.50 166.58 C 154.55 161.60 154.35 156.04 151.73 151.30 C 144.05 137.10 134.29 122.93 119.39 115.61 C 101.95 106.39 79.75 107.58 63.21 118.23 C 47.79 128.02 37.50 144.46 32.96 161.94 C 31.94 168.23 21.24 167.67 21.54 161.03 C 24.53 145.35 32.62 130.80 43.46 119.15 C 38.29 105.47 31.23 91.60 19.03 82.91 C 15.22 80.34 16.51 73.67 21.03 72.74 C 29.35 71.56 37.78 73.44 45.66 76.06 C 41.71 67.30 37.45 58.33 30.32 51.67 C 27.02 48.63 29.48 42.23 33.96 42.16 C 42.03 42.24 50.06 44.39 57.37 47.72 C 61.48 49.42 61.41 55.67 57.73 57.80 C 55.09 59.64 51.96 57.94 49.28 57.16 C 54.60 66.81 59.12 76.92 62.57 87.38 C 64.35 91.94 58.87 96.69 54.62 94.36 C 49.96 91.49 45.47 88.04 40.00 86.86 C 44.68 94.63 49.61 102.30 52.80 110.84 C 76.36 93.16 110.88 93.08 134.40 110.88 C 137.76 102.21 142.43 94.14 147.60 86.44 C 142.33 88.14 137.62 91.06 133.06 94.13 C 128.98 96.92 122.91 92.33 124.55 87.65 C 128.03 77.00 132.71 66.75 137.98 56.87 C 129.22 60.28 121.12 65.97 116.03 73.99 C 114.61 75.97 113.57 78.64 111.00 79.35 C 106.84 80.29 103.15 76.01 103.69 72.02 C 104.20 59.04 101.29 45.59 93.67 34.90 C 85.59 45.74 82.99 59.72 83.47 73.00 C 83.73 77.57 77.68 81.71 74.12 77.87 C 70.35 73.60 67.10 68.88 63.52 64.44 C 61.39 61.97 60.24 57.66 63.45 55.51 C 66.27 52.56 69.78 55.96 72.50 57.30 C 74.54 44.32 79.84 31.57 89.07 22.04 Z" />
</g>
</svg>
