<?xml version="1.0" encoding="UTF-8" ?>
<!DOCTYPE svg PUBLIC "-//W3C//DTD SVG 1.1//EN" "http://www.w3.org/Graphics/SVG/1.1/DTD/svg11.dtd">
<svg width="192pt" height="192pt" viewBox="0 0 192 192" version="1.1" xmlns="http://www.w3.org/2000/svg">
<g id="#e189c5ff">
<path fill="#e189c5" opacity="1.00" d=" M 51.37 17.32 C 56.24 12.51 64.70 12.67 69.44 17.58 C 88.44 36.56 107.53 55.47 126.39 74.59 C 131.44 79.67 123.71 88.32 118.08 83.94 C 98.68 64.93 79.57 45.57 60.37 26.34 C 49.62 37.30 38.63 48.02 27.88 58.99 C 32.92 64.66 38.81 69.55 43.69 75.34 C 47.35 80.63 40.27 87.61 35.02 83.99 C 29.36 78.99 24.23 73.40 18.87 68.09 C 13.89 63.29 13.85 54.68 18.81 49.86 C 29.63 38.98 40.46 28.11 51.37 17.32 Z" />
<path fill="#e189c5" opacity="1.00" d=" M 123.08 17.10 C 127.83 12.56 135.95 12.74 140.53 17.44 C 151.40 28.25 162.26 39.08 173.08 49.94 C 178.03 54.69 177.93 63.29 173.03 68.04 C 154.05 87.03 135.12 106.08 116.03 124.95 C 111.01 130.15 102.17 122.37 106.73 116.70 C 125.59 97.24 145.16 78.43 164.06 59.00 C 153.56 48.47 143.10 37.90 132.53 27.45 C 131.45 26.35 130.16 27.61 129.42 28.42 C 124.70 33.02 120.27 37.96 115.30 42.27 C 110.10 46.20 102.81 38.80 106.69 33.64 C 111.85 27.85 117.50 22.49 123.08 17.10 Z" />
<path fill="#e189c5" opacity="1.00" d=" M 76.01 64.17 C 81.31 59.07 89.86 67.45 84.88 72.86 C 66.00 92.03 46.80 110.88 27.88 130.01 C 37.89 141.54 49.43 151.95 60.20 162.86 C 65.94 157.73 70.92 151.77 76.78 146.79 C 81.95 143.44 88.83 150.23 85.35 155.44 C 80.37 161.06 74.76 166.12 69.53 171.53 C 64.79 176.62 56.08 176.80 51.23 171.78 C 40.39 160.95 29.55 150.11 18.77 139.22 C 13.78 134.42 14.08 125.69 19.07 121.01 C 38.05 102.06 56.90 82.98 76.01 64.17 Z" />
<path fill="#e189c5" opacity="1.00" d=" M 94.36 78.42 C 100.14 77.40 102.91 84.13 106.92 87.08 C 109.65 89.69 114.08 93.20 111.35 97.39 C 107.75 101.42 103.73 105.06 99.98 108.95 C 98.02 111.43 93.95 111.51 91.90 109.12 C 87.96 105.04 83.64 101.30 80.05 96.92 C 77.83 92.33 82.77 89.31 85.42 86.43 C 88.45 83.84 90.71 80.14 94.36 78.42 Z" />
<path fill="#e189c5" opacity="1.00" d=" M 65.41 114.56 C 60.26 109.15 68.86 100.56 74.28 105.67 C 93.49 124.52 112.39 143.68 131.44 162.69 C 142.57 152.37 153.07 141.33 163.82 130.60 C 159.63 124.22 152.29 119.63 147.80 113.20 C 144.99 107.92 151.82 101.92 156.76 105.10 C 162.57 110.30 167.93 116.00 173.42 121.54 C 178.15 126.26 177.90 134.56 173.29 139.27 C 162.50 150.15 151.65 160.98 140.79 171.78 C 135.90 176.78 127.19 176.75 122.37 171.67 C 103.37 152.65 84.24 133.74 65.41 114.56 Z" />
</g>
</svg>
