<?xml version="1.0" encoding="UTF-8" ?>
<!DOCTYPE svg PUBLIC "-//W3C//DTD SVG 1.1//EN" "http://www.w3.org/Graphics/SVG/1.1/DTD/svg11.dtd">
<svg width="192pt" height="192pt" viewBox="0 0 192 192" version="1.1" xmlns="http://www.w3.org/2000/svg">
<g id="#ff3662ff">
<path fill="#ff3662" opacity="1.00" d=" M 84.41 14.52 C 116.10 9.59 149.57 25.50 165.93 53.04 C 178.44 73.29 181.27 99.11 173.66 121.65 C 164.31 150.38 137.88 172.59 107.92 176.67 C 76.57 181.71 43.30 166.36 26.68 139.34 C 8.73 111.70 10.13 73.25 30.04 46.99 C 42.87 29.49 62.89 17.46 84.41 14.52 M 87.36 25.46 C 63.28 28.13 41.44 44.37 31.55 66.43 C 18.20 94.76 26.76 131.24 51.46 150.54 C 77.40 172.46 119.16 171.19 143.69 147.70 C 167.57 126.64 173.65 88.83 157.74 61.29 C 144.33 36.53 115.30 21.73 87.36 25.46 Z" />
<path fill="#ff3662" opacity="1.00" d=" M 67.07 74.04 C 77.80 55.94 106.15 52.19 121.32 66.69 C 133.53 78.13 131.61 98.56 122.06 111.04 C 115.09 120.43 99.21 124.36 90.78 114.75 C 88.03 125.21 85.91 137.05 77.31 144.44 C 73.82 128.58 80.92 113.37 83.50 97.99 C 81.55 91.83 81.15 84.06 86.29 79.28 C 89.49 75.94 96.20 76.40 97.82 81.13 C 100.69 90.09 91.98 98.57 94.61 107.41 C 98.27 114.36 108.51 111.86 111.92 105.93 C 117.52 97.25 119.74 85.25 115.23 75.68 C 109.65 65.88 96.02 64.36 86.42 68.53 C 74.27 73.38 67.72 90.81 76.74 101.30 C 76.37 103.61 75.75 105.87 74.88 108.04 C 70.55 107.81 67.27 104.27 65.36 100.67 C 61.28 92.28 62.21 81.91 67.07 74.04 Z" />
</g>
</svg>
