<?xml version="1.0" encoding="UTF-8" ?>
<!DOCTYPE svg PUBLIC "-//W3C//DTD SVG 1.1//EN" "http://www.w3.org/Graphics/SVG/1.1/DTD/svg11.dtd">
<svg width="192pt" height="192pt" viewBox="0 0 192 192" version="1.1" xmlns="http://www.w3.org/2000/svg">
<g id="#409fd7ff">
<path fill="#409fd7" opacity="1.00" d=" M 20.13 43.94 C 20.04 31.74 30.85 20.86 43.03 20.77 C 77.67 20.68 112.32 20.68 146.96 20.75 C 159.27 20.70 170.22 31.70 170.15 44.01 C 170.20 78.35 170.26 112.70 170.09 147.04 C 169.86 158.75 159.71 169.27 147.96 169.66 C 140.31 169.78 132.65 169.61 125.00 169.80 C 120.34 169.90 115.02 170.22 111.43 166.67 C 93.64 149.09 76.05 131.31 58.31 113.69 C 53.91 109.04 45.79 108.74 41.10 113.10 C 37.80 116.14 34.77 119.46 31.49 122.54 C 31.29 130.38 31.44 138.22 31.41 146.07 C 31.23 152.38 36.66 158.23 43.00 158.41 C 57.65 158.76 72.34 158.14 86.97 158.69 C 92.57 159.72 92.53 168.77 86.89 169.63 C 72.25 169.95 57.59 169.69 42.94 169.73 C 30.96 169.65 20.34 159.04 20.14 147.08 C 20.04 112.70 20.09 78.32 20.13 43.94 M 31.42 43.99 C 31.29 64.94 31.56 85.89 31.30 106.83 C 37.74 99.51 48.73 96.60 57.86 100.22 C 65.36 102.93 69.80 109.97 75.74 114.86 C 84.66 105.74 93.72 96.75 102.80 87.78 C 111.22 79.41 126.03 79.18 134.72 87.26 C 142.89 95.05 150.73 103.18 158.78 111.09 C 158.80 89.04 158.79 67.00 158.80 44.95 C 159.20 38.45 153.64 32.20 147.08 32.14 C 112.70 32.09 78.33 32.13 43.96 32.11 C 37.44 31.70 31.45 37.52 31.42 43.99 M 110.11 96.11 C 101.22 104.99 92.26 113.80 83.47 122.77 C 95.43 134.71 107.37 146.69 119.40 158.56 C 128.60 158.50 137.81 158.62 147.01 158.49 C 153.41 158.32 159.03 152.50 158.81 146.06 C 158.77 139.78 158.93 133.48 158.73 127.20 C 148.78 116.56 138.15 106.48 127.90 96.10 C 123.25 91.22 114.75 91.23 110.11 96.11 Z" />
<path fill="#409fd7" opacity="1.00" d=" M 60.37 42.48 C 72.15 38.74 85.76 46.92 88.24 58.97 C 91.09 70.47 83.27 83.11 71.69 85.62 C 58.77 89.32 44.23 78.54 44.20 65.06 C 43.32 54.92 50.61 45.06 60.37 42.48 M 62.33 53.44 C 58.16 55.10 54.91 59.37 55.26 63.97 C 54.86 70.87 62.33 76.73 68.94 74.79 C 74.06 73.71 77.99 68.60 77.58 63.35 C 77.53 56.09 69.01 50.40 62.33 53.44 Z" />
</g>
</svg>
