<?xml version="1.0" encoding="UTF-8" ?>
<!DOCTYPE svg PUBLIC "-//W3C//DTD SVG 1.1//EN" "http://www.w3.org/Graphics/SVG/1.1/DTD/svg11.dtd">
<svg width="192pt" height="192pt" viewBox="0 0 192 192" version="1.1" xmlns="http://www.w3.org/2000/svg">
<g id="#ff3662ff">
<path fill="#ff3662" opacity="1.00" d=" M 38.31 18.38 C 73.52 17.63 108.80 18.24 144.04 18.06 C 156.39 17.77 167.57 28.65 167.52 41.03 C 167.59 69.01 167.56 97.00 167.54 124.98 C 167.76 137.50 156.48 148.62 143.98 148.34 C 109.99 148.36 76.01 148.38 42.03 148.32 C 29.62 148.49 18.49 137.41 18.73 124.97 C 18.71 96.99 18.67 69.01 18.75 41.02 C 18.74 30.06 27.51 20.02 38.31 18.38 M 39.38 29.53 C 33.77 30.78 29.63 36.25 29.85 41.99 C 29.82 69.33 29.84 96.67 29.85 124.01 C 29.39 130.79 35.11 137.21 41.98 137.13 C 75.65 137.27 109.32 137.15 142.99 137.17 C 149.83 137.73 156.47 131.97 156.30 124.99 C 156.39 97.33 156.33 69.67 156.34 42.01 C 156.83 34.84 150.13 28.58 143.05 29.22 C 108.50 29.44 73.90 28.82 39.38 29.53 Z" />
<path fill="#ff3662" opacity="1.00" d=" M 48.59 65.59 C 53.33 65.54 58.49 64.47 63.00 66.03 C 64.25 70.61 63.33 75.61 63.34 80.34 C 58.43 80.83 53.51 80.75 48.60 80.41 C 47.93 75.51 47.95 70.50 48.59 65.59 Z" />
<path fill="#ff3662" opacity="1.00" d=" M 124.61 65.61 C 129.32 65.52 134.55 64.46 138.96 66.03 C 140.42 70.47 139.36 75.66 139.36 80.37 C 134.46 80.81 129.52 80.79 124.62 80.40 C 124.01 75.49 124.01 70.51 124.61 65.61 Z" />
<path fill="#ff3662" opacity="1.00" d=" M 70.37 94.03 C 70.72 91.22 68.75 85.56 73.01 85.25 C 87.89 85.23 102.80 84.99 117.67 85.36 C 120.33 87.94 120.14 94.28 117.83 97.00 C 108.83 97.57 99.77 97.04 90.74 97.25 C 90.87 100.70 90.67 104.15 90.63 107.60 C 87.05 108.60 82.80 108.95 79.35 107.68 C 77.55 104.66 78.81 100.65 78.44 97.24 C 75.72 97.00 70.11 98.39 70.37 94.03 Z" />
<path fill="#ff3662" opacity="1.00" d=" M 28.29 159.23 C 29.74 158.51 31.43 158.64 33.01 158.56 C 61.68 158.66 90.35 158.47 119.01 158.64 C 125.62 158.30 126.43 169.04 119.92 169.70 C 90.28 169.99 60.61 169.79 30.96 169.79 C 25.25 170.29 23.04 161.53 28.29 159.23 Z" />
<path fill="#ff3662" opacity="1.00" d=" M 134.20 159.12 C 139.03 157.97 144.08 158.85 149.00 158.56 C 152.38 158.74 156.73 157.71 159.10 160.83 C 161.94 164.03 159.37 169.84 155.05 169.76 C 148.47 169.84 141.84 170.06 135.27 169.64 C 130.25 168.73 129.51 161.07 134.20 159.12 Z" />
</g>
</svg>
