<?xml version="1.0" encoding="UTF-8" ?>
<!DOCTYPE svg PUBLIC "-//W3C//DTD SVG 1.1//EN" "http://www.w3.org/Graphics/SVG/1.1/DTD/svg11.dtd">
<svg width="192pt" height="192pt" viewBox="0 0 192 192" version="1.1" xmlns="http://www.w3.org/2000/svg">
<g id="#a81cffff">
<path fill="#a81cff" opacity="1.00" d=" M 95.95 32.88 C 101.34 24.82 111.75 26.95 120.01 26.73 C 125.84 27.07 132.62 25.40 137.55 29.43 C 145.07 36.90 152.93 44.14 160.06 51.93 C 162.94 61.62 164.41 78.10 151.58 81.18 C 155.05 88.87 164.81 89.88 169.31 96.69 C 173.48 102.81 172.36 111.88 166.68 116.68 C 163.18 119.56 159.04 121.52 155.29 124.04 C 155.14 129.56 156.42 135.98 152.53 140.56 C 145.40 147.41 138.30 154.33 131.58 161.60 C 129.02 163.99 125.37 164.57 121.99 164.56 C 109.00 164.46 96.00 164.45 83.00 164.55 C 79.85 164.57 76.53 164.03 73.97 162.06 C 66.98 155.06 60.35 147.60 52.69 141.29 C 49.89 138.59 49.59 134.50 49.30 130.86 C 44.83 125.13 37.26 120.27 38.13 112.05 C 38.92 103.55 35.78 93.09 43.09 86.66 C 42.89 79.52 42.30 70.87 49.25 66.50 C 49.22 61.44 51.29 56.38 55.80 53.76 C 61.49 47.47 67.96 41.94 73.58 35.59 C 80.00 30.84 88.56 33.59 95.95 32.88 M 105.86 38.23 C 105.66 40.20 105.47 42.17 105.26 44.14 C 96.97 44.25 88.67 44.13 80.38 44.19 C 80.12 46.17 79.87 48.15 79.61 50.13 C 77.65 50.36 75.68 50.56 73.71 50.78 C 73.65 52.75 73.60 54.73 73.53 56.70 C 71.53 56.78 69.52 56.83 67.51 56.90 C 67.43 59.05 67.37 61.21 67.30 63.37 C 65.11 63.49 62.92 63.55 60.74 63.63 C 60.67 67.79 60.71 71.95 60.62 76.11 C 58.57 76.23 56.52 76.33 54.47 76.45 C 54.32 82.75 54.50 89.06 54.32 95.36 C 52.78 95.46 51.24 95.56 49.70 95.66 C 49.37 101.95 49.40 108.26 49.43 114.56 C 50.99 114.68 52.54 114.79 54.10 114.91 C 54.34 116.92 54.56 118.93 54.82 120.94 C 56.74 121.15 58.66 121.35 60.58 121.57 C 60.73 125.65 60.66 129.74 60.78 133.83 C 62.82 134.01 64.85 134.18 66.89 134.38 C 67.13 136.28 67.33 138.18 67.52 140.09 C 72.15 139.59 74.55 141.93 73.97 146.58 C 75.86 146.80 77.77 147.02 79.66 147.27 C 79.89 149.22 80.10 151.17 80.32 153.13 C 95.12 153.23 109.93 153.29 124.73 153.10 C 124.87 151.05 125.00 149.00 125.14 146.95 C 127.04 146.85 128.94 146.76 130.84 146.67 C 131.00 144.61 131.14 142.55 131.32 140.49 C 133.28 140.46 135.25 140.44 137.22 140.41 C 137.54 138.41 137.82 136.40 138.15 134.40 C 140.07 134.19 141.98 133.99 143.89 133.76 C 144.14 127.49 143.83 121.22 144.11 114.95 C 149.73 115.17 154.18 111.46 158.64 108.61 C 160.98 107.30 161.23 103.60 159.00 102.07 C 154.58 98.87 149.86 95.13 144.06 95.52 C 144.00 93.53 143.94 91.55 143.87 89.57 C 139.85 89.38 137.49 86.51 137.05 82.68 C 130.87 82.73 124.69 82.52 118.52 82.84 C 118.33 84.84 118.12 86.83 117.87 88.83 C 115.97 88.90 114.07 88.94 112.18 88.92 C 111.86 82.65 111.95 76.37 112.11 70.09 C 124.83 69.85 137.55 70.07 150.26 69.89 C 150.47 65.65 150.45 61.39 150.27 57.15 C 148.23 56.96 146.19 56.80 144.16 56.64 C 144.03 54.67 143.92 52.70 143.81 50.73 C 141.78 50.58 139.76 50.45 137.73 50.28 C 137.67 48.34 137.61 46.39 137.54 44.45 C 135.55 44.21 133.55 43.97 131.56 43.68 C 131.38 41.86 131.22 40.04 131.04 38.21 C 122.65 38.06 114.25 38.03 105.86 38.23 Z" />
<path fill="#a81cff" opacity="1.00" d=" M 124.56 52.00 C 123.36 47.65 127.98 48.20 130.79 48.35 C 130.90 50.46 130.92 52.58 130.86 54.69 C 128.54 54.46 123.92 55.91 124.56 52.00 Z" />
<path fill="#a81cff" opacity="1.00" d=" M 76.92 75.66 C 79.06 75.60 81.19 75.59 83.33 75.62 C 83.56 82.49 83.50 89.38 83.36 96.26 C 78.94 96.37 74.52 96.40 70.11 96.17 C 69.91 91.66 69.92 87.15 70.00 82.64 C 72.17 82.53 74.35 82.47 76.52 82.38 C 76.71 80.14 76.81 77.90 76.92 75.66 Z" />
<path fill="#a81cff" opacity="1.00" d=" M 90.53 76.20 C 94.63 74.75 99.41 75.80 103.76 75.78 C 103.88 82.60 103.91 89.42 103.74 96.24 C 98.75 97.74 96.10 94.64 96.82 89.75 C 94.79 89.55 92.75 89.38 90.72 89.20 C 90.28 84.89 90.09 80.52 90.53 76.20 Z" />
<path fill="#a81cff" opacity="1.00" d=" M 19.08 99.92 C 18.42 93.94 26.75 94.84 30.25 96.12 C 30.77 103.57 30.33 111.07 30.31 118.53 C 26.84 118.12 21.42 120.30 19.37 116.68 C 18.68 111.14 19.16 105.50 19.08 99.92 Z" />
<path fill="#a81cff" opacity="1.00" d=" M 70.12 116.85 C 83.56 116.70 97.02 116.54 110.45 116.93 C 110.54 119.09 110.61 121.26 110.69 123.43 C 115.10 123.58 119.54 123.83 123.94 123.39 C 124.96 121.38 124.49 118.95 124.80 116.77 C 126.93 116.75 129.05 116.76 131.18 116.79 C 131.32 121.12 131.27 125.46 130.87 129.78 C 128.88 130.00 126.89 130.21 124.90 130.42 C 124.62 132.63 124.41 134.84 124.18 137.06 C 121.97 137.11 119.76 137.17 117.55 137.28 C 117.47 139.44 117.40 141.61 117.32 143.78 C 108.37 144.29 99.38 144.34 90.44 143.74 C 90.34 141.57 90.25 139.40 90.15 137.24 C 85.74 137.13 81.32 137.17 76.91 136.90 C 76.78 134.70 76.69 132.51 76.57 130.31 C 74.42 130.14 72.27 129.97 70.13 129.77 C 69.93 125.47 69.93 121.15 70.12 116.85 Z" />
</g>
</svg>
