<?xml version="1.0" encoding="UTF-8" ?>
<!DOCTYPE svg PUBLIC "-//W3C//DTD SVG 1.1//EN" "http://www.w3.org/Graphics/SVG/1.1/DTD/svg11.dtd">
<svg width="192pt" height="192pt" viewBox="0 0 192 192" version="1.1" xmlns="http://www.w3.org/2000/svg">
<g id="#ff841fff">
<path fill="#ff841f" opacity="1.00" d=" M 41.58 23.02 C 41.63 18.70 45.67 15.19 49.92 15.43 C 67.30 15.51 84.68 15.45 102.05 15.49 C 119.56 15.56 136.15 26.35 144.26 41.70 C 150.12 52.35 151.37 65.11 148.82 76.90 C 144.74 96.66 127.23 113.13 107.01 115.13 C 98.81 115.82 90.55 115.41 82.33 115.45 C 82.16 125.97 82.46 136.50 82.18 147.02 C 81.69 153.26 71.60 153.20 71.09 146.99 C 70.84 135.31 70.94 123.60 71.05 111.92 C 70.85 108.03 73.98 104.33 77.94 104.27 C 87.60 103.84 97.31 104.70 106.94 103.73 C 124.55 101.29 138.63 84.76 138.69 67.04 C 140.28 46.89 123.20 27.53 102.96 26.79 C 86.25 26.62 69.52 26.72 52.80 26.74 C 52.78 32.90 52.88 39.07 52.74 45.24 C 69.79 45.83 86.92 44.90 103.96 45.69 C 117.04 47.54 124.18 63.61 117.95 74.97 C 114.71 81.66 107.24 85.44 99.98 85.46 C 84.31 85.53 68.65 85.47 52.99 85.39 C 52.57 111.19 52.96 137.02 52.81 162.83 C 60.89 162.98 68.97 162.62 77.04 162.94 C 81.34 163.00 83.67 168.75 80.94 171.95 C 78.87 174.77 75.04 174.15 72.00 174.21 C 64.31 173.94 56.62 174.38 48.94 174.10 C 44.38 173.82 41.10 169.42 41.50 164.98 C 41.57 137.66 41.52 110.33 41.52 83.01 C 41.23 78.72 44.54 74.46 48.95 74.26 C 66.64 73.83 84.37 74.59 102.05 73.92 C 111.02 72.93 110.96 58.25 102.24 56.84 C 84.52 56.37 66.75 56.85 49.02 56.60 C 44.87 56.81 41.36 53.10 41.59 49.00 C 41.58 40.34 41.45 31.67 41.58 23.02 Z" />
</g>
</svg>
