<?xml version="1.0" encoding="UTF-8" ?>
<!DOCTYPE svg PUBLIC "-//W3C//DTD SVG 1.1//EN" "http://www.w3.org/Graphics/SVG/1.1/DTD/svg11.dtd">
<svg width="192pt" height="192pt" viewBox="0 0 192 192" version="1.1" xmlns="http://www.w3.org/2000/svg">
<g id="#12a1ffff">
<path fill="#12a1ff" opacity="1.00" d=" M 50.54 26.94 C 50.17 21.25 55.19 16.01 60.93 16.38 C 72.97 16.34 85.02 16.39 97.06 16.49 C 112.46 16.81 128.16 24.50 135.58 38.41 C 145.25 53.63 143.80 74.60 132.72 88.69 C 123.50 100.76 107.75 107.57 92.64 105.38 C 87.82 103.83 87.82 96.16 92.65 94.61 C 97.62 93.84 102.86 94.62 107.66 92.71 C 120.44 88.74 130.00 76.38 130.33 62.95 C 131.19 49.91 123.56 36.81 111.65 31.35 C 102.57 26.79 92.17 28.56 82.41 28.29 C 82.16 75.86 82.54 123.44 82.25 171.01 C 82.11 177.64 71.29 177.55 71.43 170.86 C 71.06 124.89 71.35 78.91 70.89 32.94 C 71.35 27.28 62.04 26.58 61.52 32.16 C 61.13 78.43 61.63 124.75 61.30 171.03 C 61.26 177.68 50.32 177.51 50.48 170.86 C 50.34 122.89 50.55 74.91 50.54 26.94 Z" />
</g>
</svg>
