<?xml version="1.0" encoding="UTF-8" ?>
<!DOCTYPE svg PUBLIC "-//W3C//DTD SVG 1.1//EN" "http://www.w3.org/Graphics/SVG/1.1/DTD/svg11.dtd">
<svg width="192pt" height="192pt" viewBox="0 0 192 192" version="1.1" xmlns="http://www.w3.org/2000/svg">
<g id="#606f80ff">
<path fill="#606f80" opacity="1.00" d=" M 51.28 14.33 C 77.76 12.96 104.42 14.11 130.98 13.73 C 143.52 13.26 155.03 24.37 154.80 36.95 C 154.81 74.99 154.87 113.03 154.78 151.06 C 154.64 162.99 143.96 173.44 132.06 173.53 C 106.69 173.63 81.32 173.61 55.94 173.53 C 43.60 173.52 32.82 162.35 33.06 150.04 C 33.03 112.34 33.03 74.64 33.09 36.94 C 33.02 26.39 41.02 16.59 51.28 14.33 M 53.32 25.44 C 47.88 26.82 43.91 32.33 44.30 37.95 C 44.32 75.32 44.27 112.70 44.33 150.07 C 44.15 156.79 50.32 162.66 57.01 162.30 C 81.67 162.33 106.33 162.35 130.99 162.28 C 137.63 162.56 143.75 156.75 143.59 150.07 C 143.65 112.69 143.60 75.31 143.62 37.94 C 144.09 31.12 137.98 24.51 131.03 25.15 C 105.13 25.38 79.19 24.79 53.32 25.44 Z" />
<path fill="#606f80" opacity="1.00" d=" M 125.40 34.45 C 129.69 31.67 135.73 36.10 134.47 41.02 C 133.81 45.76 127.10 47.52 124.03 43.99 C 121.31 41.29 122.01 36.26 125.40 34.45 Z" />
<path fill="#606f80" opacity="1.00" d=" M 89.46 46.73 C 102.49 43.93 116.32 53.78 118.04 66.96 C 120.35 79.43 111.13 92.44 98.70 94.63 C 85.47 97.74 71.28 87.43 69.80 74.00 C 67.80 61.56 77.05 48.77 89.46 46.73 M 89.36 58.49 C 81.19 61.22 78.30 72.62 83.92 79.03 C 89.75 86.77 103.29 84.35 106.19 75.15 C 110.41 65.34 99.13 54.15 89.36 58.49 Z" />
<path fill="#606f80" opacity="1.00" d=" M 90.32 100.38 C 104.67 97.77 119.05 110.46 118.35 124.99 C 118.42 137.78 106.86 149.34 94.00 148.84 C 81.81 149.35 70.70 139.02 69.71 126.97 C 68.14 114.46 77.83 101.99 90.32 100.38 M 92.45 111.56 C 82.42 112.24 77.32 125.67 84.04 132.98 C 89.71 140.25 102.41 138.35 105.84 129.85 C 110.27 121.16 101.99 110.05 92.45 111.56 Z" />
</g>
</svg>
