<?xml version="1.0" encoding="UTF-8" ?>
<!DOCTYPE svg PUBLIC "-//W3C//DTD SVG 1.1//EN" "http://www.w3.org/Graphics/SVG/1.1/DTD/svg11.dtd">
<svg width="192pt" height="192pt" viewBox="0 0 192 192" version="1.1" xmlns="http://www.w3.org/2000/svg">
<g id="#fe3e5eff">
<path fill="#fe3e5e" opacity="1.00" d=" M 20.48 40.93 C 20.64 28.71 31.75 18.09 43.94 18.36 C 77.98 18.34 112.03 18.31 146.06 18.36 C 158.18 18.26 169.08 28.89 169.19 41.02 C 169.20 58.69 169.38 76.37 169.10 94.03 C 168.45 99.99 158.74 99.92 158.22 93.95 C 157.89 76.63 158.27 59.29 158.05 41.97 C 158.24 35.45 152.51 29.51 145.99 29.56 C 111.97 29.53 77.95 29.54 43.94 29.54 C 37.29 29.35 31.36 35.38 31.58 42.02 C 31.56 67.05 31.52 92.08 31.61 117.10 C 36.70 113.97 39.30 105.47 46.31 106.57 C 51.42 108.75 54.52 113.87 58.89 117.17 C 69.33 105.84 79.60 94.36 90.10 83.09 C 92.57 80.10 97.40 80.22 99.91 83.09 C 112.35 94.95 124.77 106.83 137.22 118.67 C 141.06 114.99 143.84 110.19 148.21 107.11 C 154.61 104.68 158.37 112.00 162.73 115.26 C 165.89 118.09 169.83 121.22 169.22 126.00 C 168.67 135.07 170.79 144.68 167.17 153.31 C 163.58 161.54 154.96 167.18 145.98 167.22 C 112.66 167.32 79.33 167.22 46.01 167.27 C 33.25 168.36 20.85 157.94 20.49 145.01 C 20.39 110.32 20.42 75.62 20.48 40.93 M 95.24 94.22 C 84.13 105.81 73.88 118.25 62.47 129.51 C 54.92 133.20 50.45 123.38 45.03 119.81 C 40.64 124.49 36.25 129.19 32.10 134.07 C 31.53 137.34 31.90 140.71 31.82 144.02 C 31.42 150.53 37.58 156.13 43.93 155.98 C 77.63 156.02 111.34 155.99 145.04 156.00 C 151.64 156.43 158.11 150.80 157.95 144.06 C 157.88 138.11 157.92 132.16 157.83 126.21 C 155.63 124.13 153.42 122.06 151.19 120.01 C 147.97 123.54 145.01 127.31 141.59 130.64 C 138.90 133.20 134.67 132.26 132.36 129.67 C 119.99 117.86 107.57 106.08 95.24 94.22 Z" />
<path fill="#fe3e5e" opacity="1.00" d=" M 53.27 46.29 C 60.29 43.90 68.51 48.73 69.93 55.97 C 71.87 63.46 65.77 71.70 58.01 71.85 C 51.16 72.58 44.53 66.89 44.12 60.04 C 43.39 54.02 47.52 48.02 53.27 46.29 Z" />
</g>
</svg>
