<?xml version="1.0" encoding="UTF-8" ?>
<!DOCTYPE svg PUBLIC "-//W3C//DTD SVG 1.1//EN" "http://www.w3.org/Graphics/SVG/1.1/DTD/svg11.dtd">
<svg width="192pt" height="192pt" viewBox="0 0 192 192" version="1.1" xmlns="http://www.w3.org/2000/svg">
<g id="#ff537eff">
<path fill="#ff537e" opacity="1.00" d=" M 48.26 73.45 C 45.65 53.33 53.60 29.05 74.39 21.93 C 69.01 26.49 63.95 31.81 61.60 38.60 C 53.71 58.78 67.70 84.66 89.59 87.51 C 91.92 87.18 93.53 89.89 91.01 91.03 C 86.22 93.85 83.81 99.25 84.33 104.72 C 81.78 105.15 80.51 102.57 78.82 101.17 C 72.09 94.87 62.94 91.73 53.94 90.53 C 36.11 89.70 19.16 102.85 15.44 120.32 C 14.41 109.44 17.68 98.17 25.07 90.01 C 31.33 82.68 39.75 77.73 48.26 73.45 Z" />
<path fill="#ff537e" opacity="1.00" d=" M 120.35 22.78 C 140.22 30.85 146.63 54.45 144.26 74.04 C 163.05 81.98 180.48 100.90 175.91 122.71 C 174.87 116.13 172.98 109.49 168.83 104.17 C 154.95 85.40 123.00 85.43 109.86 105.10 C 106.14 103.38 108.45 98.08 105.68 95.33 C 104.73 92.40 98.74 91.52 100.13 88.44 C 111.13 86.14 120.65 79.10 127.07 69.99 C 136.00 55.06 133.07 34.65 120.35 22.78 Z" />
<path fill="#ff537e" opacity="1.00" d=" M 88.40 56.50 C 98.71 54.67 109.58 57.12 118.41 62.64 C 122.03 64.82 121.55 70.97 117.63 72.57 C 114.74 74.21 111.75 71.99 109.11 70.92 C 99.43 66.27 87.90 67.69 78.57 72.49 C 73.17 74.97 67.91 67.23 72.15 63.11 C 76.82 59.50 82.67 57.67 88.40 56.50 Z" />
<path fill="#ff537e" opacity="1.00" d=" M 55.23 95.26 C 59.02 93.61 63.43 96.96 63.17 101.01 C 63.44 110.98 68.23 120.76 76.33 126.67 C 78.81 128.65 82.63 130.24 82.49 134.00 C 82.78 138.04 78.05 141.56 74.35 139.56 C 59.82 132.35 50.68 116.09 51.62 99.95 C 51.80 97.86 53.28 96.00 55.23 95.26 Z" />
<path fill="#ff537e" opacity="1.00" d=" M 134.21 95.47 C 137.27 95.25 140.26 97.87 140.33 100.97 C 141.01 114.64 134.60 128.46 123.49 136.52 C 120.46 138.65 116.89 142.01 112.91 140.24 C 108.61 138.40 108.51 131.73 112.73 129.73 C 122.22 123.93 128.21 113.23 128.46 102.14 C 128.25 98.79 130.72 95.53 134.21 95.47 Z" />
<path fill="#ff537e" opacity="1.00" d=" M 87.17 115.81 C 86.93 114.08 85.06 111.15 87.72 110.51 C 91.58 112.45 96.12 114.44 100.39 112.42 C 102.03 112.07 104.05 109.89 105.27 112.00 C 101.30 122.58 101.96 134.46 106.25 144.84 C 114.02 160.46 132.97 169.10 149.88 164.48 C 132.37 177.15 108.94 169.81 93.64 157.19 C 76.99 168.81 51.88 173.20 35.89 158.09 C 41.70 160.22 47.77 162.31 54.06 161.83 C 75.91 160.90 93.88 136.98 87.17 115.81 Z" />
</g>
</svg>
