<?xml version="1.0" encoding="UTF-8" ?>
<!DOCTYPE svg PUBLIC "-//W3C//DTD SVG 1.1//EN" "http://www.w3.org/Graphics/SVG/1.1/DTD/svg11.dtd">
<svg width="192pt" height="192pt" viewBox="0 0 192 192" version="1.1" xmlns="http://www.w3.org/2000/svg">
<g id="#45e371ff">
<path fill="#45e371" opacity="1.00" d=" M 41.76 33.75 C 59.33 18.19 83.79 10.86 107.04 14.16 C 132.96 17.49 156.63 34.16 168.71 57.31 C 180.34 78.93 181.22 105.88 171.21 128.28 C 161.21 151.21 140.15 168.93 115.82 174.78 C 97.05 179.48 76.63 177.30 59.33 168.63 C 56.10 167.53 55.95 162.37 59.20 161.21 C 67.43 158.01 75.57 154.52 84.00 151.83 C 82.62 148.00 81.97 142.05 87.06 140.83 C 91.80 139.43 94.33 144.34 94.91 148.21 C 100.19 146.06 106.15 144.28 109.90 139.74 C 110.66 136.35 106.62 135.36 104.15 134.74 C 91.23 132.33 78.64 137.47 66.24 140.35 C 66.80 143.51 66.45 147.62 62.90 148.81 C 59.14 150.55 55.94 147.22 54.72 143.98 C 48.38 145.31 42.39 148.03 36.00 149.14 C 30.46 148.78 28.98 140.19 34.32 138.33 C 48.93 133.63 63.66 129.17 78.58 125.53 C 89.07 122.86 100.50 121.18 110.91 125.06 C 116.72 127.10 121.72 132.57 121.52 138.99 C 121.42 144.82 117.17 149.56 112.43 152.44 C 103.03 158.23 92.18 160.86 81.85 164.44 C 115.56 172.27 152.50 150.96 163.05 118.11 C 174.07 87.80 160.75 51.30 132.95 35.05 C 115.79 24.51 94.08 21.73 74.86 27.82 C 54.00 34.14 36.72 50.71 29.24 71.14 C 38.50 67.54 49.69 69.05 57.07 75.92 C 66.54 84.04 68.58 99.25 61.49 109.53 C 54.60 120.55 39.02 124.70 27.58 118.48 C 17.28 113.44 11.62 101.21 13.86 90.04 C 15.32 68.57 25.45 47.84 41.76 33.75 M 40.21 80.47 C 32.32 79.95 24.40 86.84 25.02 94.97 C 24.05 103.26 31.94 110.60 40.03 110.12 C 47.55 110.07 54.29 103.53 54.47 95.99 C 55.04 88.04 48.15 80.62 40.21 80.47 Z" />
<path fill="#45e371" opacity="1.00" d=" M 105.33 39.41 C 122.54 34.54 141.85 47.30 144.14 65.00 C 147.25 81.54 134.61 98.67 118.02 100.93 C 101.86 103.96 84.87 92.16 82.04 75.99 C 78.52 60.11 89.48 42.95 105.33 39.41 M 107.35 50.53 C 97.85 53.08 91.25 63.28 92.96 73.00 C 94.34 82.95 104.03 90.84 114.08 90.02 C 124.43 89.75 133.43 80.35 133.26 69.99 C 133.73 57.04 119.70 46.39 107.35 50.53 Z" />
<path fill="#45e371" opacity="1.00" d=" M 83.49 100.47 C 90.13 96.88 96.95 111.21 90.02 114.33 C 84.21 113.63 80.35 105.38 83.49 100.47 Z" />
<path fill="#45e371" opacity="1.00" d=" M 74.95 114.71 C 69.69 112.25 71.69 101.01 77.70 102.23 C 81.16 105.83 79.53 112.77 74.95 114.71 Z" />
</g>
</svg>
