<?xml version="1.0" encoding="UTF-8" ?>
<!DOCTYPE svg PUBLIC "-//W3C//DTD SVG 1.1//EN" "http://www.w3.org/Graphics/SVG/1.1/DTD/svg11.dtd">
<svg width="192pt" height="192pt" viewBox="0 0 192 192" version="1.1" xmlns="http://www.w3.org/2000/svg">
<g id="#4fd76dff">
<path fill="#4fd76d" opacity="1.00" d=" M 93.18 10.22 C 96.53 9.12 100.89 10.76 101.44 14.56 C 104.64 30.89 117.57 43.67 132.05 50.84 C 161.39 68.30 173.48 108.69 158.37 139.37 C 145.05 169.45 108.61 186.51 77.00 177.05 C 44.67 168.75 21.87 134.75 26.53 101.66 C 29.09 78.46 44.32 57.34 65.31 47.22 C 76.57 39.75 86.62 28.76 89.29 15.12 C 89.61 12.93 90.99 10.87 93.18 10.22 M 95.21 31.78 C 88.41 43.67 78.16 53.79 65.81 59.83 C 51.59 68.19 41.32 82.89 38.32 99.11 C 35.40 114.30 38.84 130.58 47.74 143.24 C 57.88 157.98 75.13 167.60 93.05 168.16 C 108.51 168.90 124.15 163.03 135.30 152.29 C 148.90 139.71 155.70 120.32 153.05 101.98 C 150.68 83.97 139.28 67.41 123.26 58.83 C 111.35 52.97 102.47 42.61 95.21 31.78 Z" />
<path fill="#4fd76d" opacity="1.00" d=" M 73.41 140.55 C 76.02 139.82 78.28 141.65 80.55 142.59 C 91.05 147.58 103.77 146.56 113.79 140.88 C 119.13 137.92 124.41 146.07 119.87 149.89 C 105.70 159.15 86.09 159.15 71.71 150.30 C 67.95 147.95 69.13 141.51 73.41 140.55 Z" />
</g>
</svg>
