<?xml version="1.0" encoding="UTF-8" ?>
<!DOCTYPE svg PUBLIC "-//W3C//DTD SVG 1.1//EN" "http://www.w3.org/Graphics/SVG/1.1/DTD/svg11.dtd">
<svg width="192pt" height="192pt" viewBox="0 0 192 192" version="1.1" xmlns="http://www.w3.org/2000/svg">
<g id="#19afffff">
<path fill="#19afff" opacity="1.00" d=" M 86.36 13.45 C 122.22 7.93 157.98 33.36 168.96 67.08 C 179.01 96.38 168.25 130.96 143.74 149.76 C 122.85 166.50 92.91 171.22 68.09 160.94 C 64.26 159.64 60.94 157.12 57.07 155.99 C 47.77 162.60 38.91 169.89 29.95 176.95 C 26.30 180.26 19.60 177.99 19.46 172.86 C 19.32 145.91 19.20 118.95 19.42 91.99 C 18.42 53.93 48.84 18.76 86.36 13.45 M 30.89 85.96 C 30.12 111.26 30.70 136.59 30.63 161.91 C 37.92 156.45 44.99 150.68 52.31 145.27 C 56.37 142.37 61.34 144.55 65.01 146.98 C 87.71 160.11 118.07 156.77 137.95 139.91 C 153.45 127.24 162.46 107.06 161.30 87.05 C 159.86 53.65 129.63 23.84 95.99 24.08 C 62.76 24.12 32.92 52.88 30.89 85.96 Z" />
<path fill="#19afff" opacity="1.00" d=" M 60.39 67.51 C 66.94 65.58 73.88 72.34 71.78 78.93 C 70.31 85.46 61.28 88.00 56.45 83.48 C 50.76 79.02 53.26 68.78 60.39 67.51 Z" />
<path fill="#19afff" opacity="1.00" d=" M 127.34 67.39 C 134.30 65.67 140.59 73.34 137.81 79.88 C 135.69 86.92 124.96 87.78 121.23 81.70 C 117.49 76.49 120.87 68.16 127.34 67.39 Z" />
<path fill="#19afff" opacity="1.00" d=" M 61.34 97.36 C 64.90 96.31 67.42 99.69 68.29 102.69 C 71.93 112.80 81.15 120.99 92.00 122.16 C 102.88 123.71 114.01 118.06 119.97 108.99 C 122.35 105.81 123.35 101.84 125.69 98.66 C 128.75 95.14 135.30 98.42 134.32 103.02 C 129.93 119.85 113.55 132.96 96.02 132.82 C 78.47 133.34 61.68 120.34 57.53 103.33 C 56.91 100.71 58.72 97.91 61.34 97.36 Z" />
</g>
</svg>
