<?xml version="1.0" encoding="UTF-8" ?>
<!DOCTYPE svg PUBLIC "-//W3C//DTD SVG 1.1//EN" "http://www.w3.org/Graphics/SVG/1.1/DTD/svg11.dtd">
<svg width="192pt" height="192pt" viewBox="0 0 192 192" version="1.1" xmlns="http://www.w3.org/2000/svg">
<g id="#d4d4d4ff">
<path fill="#d4d4d4" opacity="1.00" d=" M 42.35 19.47 C 47.09 18.17 52.26 18.87 56.39 21.56 C 92.97 42.16 129.74 62.37 166.56 82.50 C 176.78 87.22 177.66 103.22 167.90 108.90 C 156.81 114.87 146.25 122.08 134.44 126.51 C 108.18 141.27 81.85 155.90 55.56 170.61 C 51.44 172.97 46.53 172.54 41.98 172.31 C 36.46 169.98 32.90 163.99 33.03 158.06 C 33.05 116.69 33.08 75.31 33.09 33.94 C 32.92 27.90 36.61 21.62 42.35 19.47 M 43.37 31.79 C 43.20 74.54 43.28 117.29 43.35 160.04 C 64.86 138.80 86.17 117.36 107.51 95.95 C 86.14 74.55 64.85 53.07 43.37 31.79 M 64.13 37.81 C 80.76 54.96 97.87 71.64 114.73 88.57 C 119.58 83.72 124.49 78.93 129.24 73.99 C 107.53 61.95 86.02 49.52 64.13 37.81 M 121.75 96.07 C 127.40 101.90 133.15 107.64 139.00 113.29 C 146.60 109.18 154.13 104.91 161.66 100.66 C 165.16 99.18 165.61 93.68 162.15 91.88 C 154.49 87.43 146.73 83.15 138.96 78.88 C 133.21 84.59 127.47 90.32 121.75 96.07 M 63.81 154.18 C 85.57 142.16 107.26 130.00 128.92 117.80 C 124.21 113.09 119.46 108.42 114.81 103.65 C 97.40 120.04 80.92 137.46 63.81 154.18 Z" />
</g>
</svg>
