<?xml version="1.0" encoding="UTF-8" ?>
<!DOCTYPE svg PUBLIC "-//W3C//DTD SVG 1.1//EN" "http://www.w3.org/Graphics/SVG/1.1/DTD/svg11.dtd">
<svg width="192pt" height="192pt" viewBox="0 0 192 192" version="1.1" xmlns="http://www.w3.org/2000/svg">
<g id="#17acffff">
<path fill="#17acff" opacity="1.00" d=" M 42.34 19.47 C 47.07 18.16 52.26 18.87 56.39 21.55 C 92.96 42.16 129.74 62.37 166.56 82.50 C 176.77 87.22 177.67 103.23 167.91 108.91 C 156.83 114.89 146.27 122.08 134.46 126.52 C 108.19 141.27 81.86 155.92 55.57 170.63 C 51.44 172.97 46.52 172.58 41.97 172.32 C 36.44 169.99 32.91 163.99 33.03 158.06 C 33.05 116.69 33.07 75.31 33.10 33.94 C 32.92 27.89 36.61 21.63 42.34 19.47 M 43.39 31.77 C 43.21 74.53 43.30 117.29 43.37 160.04 C 64.86 138.80 86.16 117.35 107.51 95.97 C 86.16 74.56 64.84 53.10 43.39 31.77 M 62.95 36.86 C 80.21 54.09 97.44 71.35 114.71 88.56 C 119.62 83.74 124.47 78.85 129.31 73.97 C 107.16 61.65 85.02 49.33 62.95 36.86 M 121.77 96.08 C 127.41 101.91 133.17 107.64 138.99 113.29 C 146.61 109.18 154.13 104.91 161.67 100.66 C 165.16 99.17 165.60 93.69 162.14 91.89 C 154.49 87.44 146.72 83.16 138.96 78.90 C 133.22 84.62 127.48 90.33 121.77 96.08 M 64.99 153.34 C 86.50 141.87 107.63 129.68 128.92 117.80 C 124.23 113.14 119.53 108.48 114.89 103.76 C 97.75 119.68 81.44 136.66 64.99 153.34 Z" />
</g>
</svg>
