<?xml version="1.0" encoding="UTF-8" ?>
<!DOCTYPE svg PUBLIC "-//W3C//DTD SVG 1.1//EN" "http://www.w3.org/Graphics/SVG/1.1/DTD/svg11.dtd">
<svg width="192pt" height="192pt" viewBox="0 0 192 192" version="1.1" xmlns="http://www.w3.org/2000/svg">
<g id="#ad8d54ff">
<path fill="#ad8d54" opacity="1.00" d=" M 86.28 13.35 C 105.99 10.93 126.53 15.81 142.83 27.20 C 165.44 42.50 179.48 69.69 178.42 97.01 C 178.31 101.06 173.04 103.71 169.75 101.27 C 166.85 99.59 166.97 95.91 167.01 93.01 C 166.71 64.65 147.29 37.85 120.60 28.42 C 92.57 17.76 58.50 27.54 40.45 51.48 C 26.72 68.80 22.08 92.75 28.11 113.99 C 33.53 134.08 48.38 151.18 67.30 159.75 C 73.17 162.07 70.28 171.91 64.02 170.47 C 30.24 157.08 9.15 118.73 15.04 82.97 C 19.80 47.30 50.50 17.26 86.28 13.35 Z" />
<path fill="#ad8d54" opacity="1.00" d=" M 118.36 94.47 C 126.44 92.62 135.07 92.91 143.10 94.88 C 149.19 96.52 151.68 102.93 152.56 108.57 C 157.96 108.60 163.73 107.69 168.74 110.24 C 175.17 113.49 178.79 120.92 178.62 127.97 C 178.33 139.17 178.92 150.39 178.44 161.59 C 177.82 170.43 169.78 177.57 160.97 177.44 C 139.99 177.58 119.01 177.54 98.03 177.45 C 89.28 177.67 81.04 170.72 80.35 161.89 C 79.79 150.26 80.29 138.61 80.14 126.97 C 79.81 119.54 84.70 112.28 91.67 109.74 C 96.66 107.70 102.11 109.08 107.30 108.38 C 107.77 102.03 111.94 95.93 118.36 94.47 M 119.89 105.84 C 117.52 108.88 118.78 113.33 116.51 116.45 C 110.56 124.66 96.15 114.22 91.59 124.37 C 90.99 136.17 91.38 148.05 91.40 159.88 C 91.21 163.93 95.20 166.70 99.00 166.29 C 119.33 166.34 139.67 166.41 160.00 166.24 C 163.69 166.56 167.37 163.89 167.32 160.01 C 167.69 149.34 167.16 138.66 167.44 128.00 C 167.55 124.82 166.13 121.03 162.91 119.90 C 157.55 118.97 151.99 120.50 146.68 119.25 C 141.21 117.02 141.79 110.39 140.29 105.68 C 133.66 104.26 126.39 103.58 119.89 105.84 Z" />
<path fill="#ad8d54" opacity="1.00" d=" M 124.35 124.47 C 132.40 122.02 141.65 126.03 145.64 133.37 C 150.59 141.90 147.38 153.94 138.67 158.68 C 129.22 164.57 115.55 159.57 111.92 149.12 C 107.77 139.31 114.07 127.02 124.35 124.47 M 127.27 135.32 C 122.19 136.49 120.10 143.49 123.63 147.31 C 127.29 152.15 136.12 149.78 136.69 143.67 C 137.78 138.46 132.30 133.70 127.27 135.32 Z" />
</g>
</svg>
