<?xml version="1.0" encoding="UTF-8" ?>
<!DOCTYPE svg PUBLIC "-//W3C//DTD SVG 1.1//EN" "http://www.w3.org/Graphics/SVG/1.1/DTD/svg11.dtd">
<svg width="192pt" height="192pt" viewBox="0 0 192 192" version="1.1" xmlns="http://www.w3.org/2000/svg">
<g id="#18b7c5ff">
<path fill="#18b7c5" opacity="1.00" d=" M 82.89 15.79 C 91.81 14.32 101.16 14.25 110.07 15.83 C 116.13 19.14 113.68 27.68 115.56 33.31 C 119.47 34.69 123.29 36.33 127.01 38.18 C 130.65 35.44 133.52 31.55 137.70 29.60 C 142.80 27.95 147.38 34.75 143.85 38.84 C 139.58 42.89 135.07 46.75 130.44 50.38 C 126.58 53.07 122.78 49.14 119.32 47.67 C 115.02 44.90 109.12 45.19 105.42 41.58 C 103.19 37.08 103.70 31.70 102.63 26.85 C 98.50 26.46 94.35 26.56 90.21 26.73 C 88.69 31.99 90.41 39.07 85.77 42.85 C 79.94 44.78 73.98 46.46 68.69 49.72 C 62.00 53.26 57.22 44.98 51.94 42.21 C 48.90 44.98 45.98 47.90 43.21 50.94 C 45.85 55.04 49.61 58.48 51.51 63.01 C 51.85 67.67 47.79 71.13 46.54 75.43 C 44.53 79.12 45.02 84.74 40.74 86.78 C 36.34 88.01 31.72 88.19 27.21 88.87 C 26.84 93.06 26.66 97.29 27.30 101.47 C 31.92 102.23 36.80 102.19 41.21 103.87 C 45.08 106.73 44.46 112.37 46.72 116.31 C 47.94 120.41 52.41 124.13 50.55 128.65 C 48.33 132.44 45.33 135.70 42.75 139.24 C 44.96 142.78 48.26 145.41 51.18 148.33 C 56.54 145.69 61.34 137.31 67.96 141.10 C 73.27 144.70 79.58 146.11 85.38 148.58 C 89.30 152.73 87.85 159.28 89.32 164.46 C 93.42 164.65 97.54 164.65 101.64 164.47 C 102.98 159.44 101.92 153.45 105.11 149.11 C 108.97 146.50 114.01 146.44 118.07 144.14 C 121.55 142.85 125.02 139.10 128.94 140.97 C 132.86 143.26 136.20 146.40 139.92 148.99 C 143.01 146.25 145.91 143.31 148.63 140.20 C 145.64 134.91 137.13 129.49 141.85 122.82 C 145.34 117.69 146.44 111.47 149.01 105.97 C 153.29 102.36 159.66 103.63 164.83 102.23 C 165.05 98.11 165.05 93.99 164.72 89.88 C 158.58 88.40 148.32 90.27 147.41 81.62 C 146.67 74.96 140.52 69.75 141.08 63.09 C 144.33 57.89 148.86 53.51 152.89 48.88 C 156.76 44.70 164.23 49.26 162.55 54.62 C 160.64 58.79 156.82 61.71 153.93 65.20 C 155.52 69.05 157.25 72.85 158.46 76.85 C 164.04 78.81 172.24 76.49 175.69 82.30 C 177.38 91.28 177.29 100.78 175.75 109.78 C 172.35 115.80 163.93 113.41 158.24 115.26 C 156.94 119.19 155.30 123.00 153.44 126.70 C 156.16 132.06 164.25 136.71 161.33 143.40 C 155.91 150.57 149.49 157.31 141.97 162.28 C 135.42 163.29 131.35 156.36 126.09 153.52 C 122.36 155.38 118.47 156.88 114.55 158.28 C 112.85 163.80 115.02 171.84 109.39 175.33 C 100.32 177.06 90.68 177.05 81.61 175.35 C 75.81 171.79 78.23 163.52 76.24 157.90 C 72.33 156.61 68.55 154.97 64.88 153.10 C 59.60 155.78 55.39 163.18 48.81 161.35 C 41.45 156.22 35.01 149.59 29.72 142.37 C 27.36 135.67 35.20 131.21 38.00 125.88 C 36.28 122.12 34.62 118.32 33.41 114.35 C 27.84 112.36 19.56 114.78 16.20 108.86 C 14.62 99.82 14.54 90.27 16.27 81.26 C 19.81 75.53 28.05 77.85 33.70 75.98 C 35.02 72.13 36.52 68.33 38.53 64.77 C 36.01 59.26 28.15 54.99 30.35 48.28 C 35.54 41.02 42.06 34.54 49.30 29.33 C 56.00 27.20 60.39 34.94 65.74 37.73 C 69.48 35.92 73.32 34.34 77.28 33.07 C 79.20 27.50 76.77 18.97 82.89 15.79 Z" />
<path fill="#18b7c5" opacity="1.00" d=" M 90.34 59.40 C 107.01 56.47 124.67 66.54 130.77 82.29 C 136.76 96.45 132.69 114.02 121.10 124.13 C 110.62 133.82 94.39 136.41 81.35 130.66 C 66.48 124.49 56.83 107.94 59.03 91.94 C 60.62 75.69 74.20 61.68 90.34 59.40 M 92.38 70.48 C 80.46 72.06 70.42 82.82 70.12 94.92 C 69.27 105.82 76.27 116.60 86.41 120.53 C 101.33 127.14 120.16 116.19 121.94 100.03 C 124.96 83.51 108.87 67.53 92.38 70.48 Z" />
</g>
</svg>
