<?xml version="1.0" encoding="UTF-8" ?>
<!DOCTYPE svg PUBLIC "-//W3C//DTD SVG 1.1//EN" "http://www.w3.org/Graphics/SVG/1.1/DTD/svg11.dtd">
<svg width="192pt" height="192pt" viewBox="0 0 192 192" version="1.1" xmlns="http://www.w3.org/2000/svg">
<g id="#886fb2ff">
<path fill="#886fb2" opacity="1.00" d=" M 42.35 19.47 C 47.08 18.18 52.26 18.88 56.39 21.57 C 92.95 42.18 129.73 62.38 166.54 82.52 C 176.76 87.22 177.67 103.23 167.90 108.91 C 156.82 114.89 146.27 122.09 134.46 126.52 C 108.19 141.27 81.87 155.92 55.58 170.62 C 51.46 172.98 46.54 172.58 41.99 172.36 C 36.42 170.05 32.89 163.99 32.99 158.04 C 32.99 116.68 33.05 75.31 33.07 33.95 C 32.90 27.89 36.59 21.63 42.35 19.47 M 43.38 31.90 C 43.27 74.59 43.34 117.28 43.37 159.97 C 64.84 138.77 86.14 117.40 107.39 95.98 C 86.11 74.56 64.88 53.10 43.38 31.90 M 65.02 38.31 C 81.00 55.59 98.23 71.79 114.80 88.55 C 119.59 83.69 124.54 78.97 129.21 73.98 C 107.81 62.10 86.59 49.86 65.02 38.31 M 121.80 96.05 C 127.38 101.97 133.17 107.68 139.03 113.31 C 146.62 109.19 154.15 104.93 161.67 100.68 C 165.21 99.20 165.61 93.67 162.14 91.88 C 154.49 87.44 146.75 83.15 138.98 78.92 C 133.21 84.59 127.51 90.33 121.80 96.05 M 112.03 106.03 C 96.80 121.76 80.63 136.66 65.89 152.82 C 87.14 141.59 107.93 129.51 128.92 117.82 C 124.41 113.42 120.10 108.82 115.50 104.52 C 114.23 103.18 112.99 105.34 112.03 106.03 Z" />
</g>
</svg>
