<?xml version="1.0" encoding="UTF-8" ?>
<!DOCTYPE svg PUBLIC "-//W3C//DTD SVG 1.1//EN" "http://www.w3.org/Graphics/SVG/1.1/DTD/svg11.dtd">
<svg width="192pt" height="192pt" viewBox="0 0 192 192" version="1.1" xmlns="http://www.w3.org/2000/svg">
<g id="#f6ad29ff">
<path fill="#f6ad29" opacity="1.00" d=" M 42.35 19.46 C 47.08 18.15 52.26 18.87 56.39 21.55 C 92.96 42.16 129.74 62.37 166.56 82.50 C 176.77 87.22 177.67 103.22 167.91 108.91 C 156.82 114.88 146.27 122.09 134.45 126.52 C 108.19 141.27 81.87 155.92 55.58 170.62 C 51.45 172.98 46.53 172.57 41.97 172.32 C 36.45 169.98 32.90 163.99 33.03 158.05 C 33.04 116.69 33.06 75.32 33.08 33.95 C 32.90 27.89 36.62 21.65 42.35 19.46 M 43.37 31.84 C 43.24 74.57 43.30 117.30 43.36 160.03 C 64.88 138.81 86.16 117.35 107.51 95.97 C 86.18 74.54 64.87 53.09 43.37 31.84 M 63.04 36.93 C 80.27 54.14 97.45 71.40 114.73 88.56 C 119.57 83.72 124.48 78.95 129.20 74.00 C 107.20 61.55 85.04 49.38 63.04 36.93 M 121.79 96.06 C 127.41 101.93 133.17 107.65 139.01 113.28 C 146.62 109.19 154.13 104.90 161.66 100.67 C 165.17 99.18 165.60 93.68 162.14 91.88 C 154.48 87.45 146.74 83.14 138.96 78.91 C 133.22 84.61 127.49 90.32 121.79 96.06 M 112.00 106.01 C 96.53 121.80 80.51 137.07 65.30 153.10 C 86.75 141.81 107.72 129.59 128.91 117.80 C 124.40 113.42 120.08 108.82 115.50 104.51 C 114.20 103.13 112.96 105.29 112.00 106.01 Z" />
</g>
</svg>
