<?xml version="1.0" encoding="UTF-8" ?>
<!DOCTYPE svg PUBLIC "-//W3C//DTD SVG 1.1//EN" "http://www.w3.org/Graphics/SVG/1.1/DTD/svg11.dtd">
<svg width="192pt" height="192pt" viewBox="0 0 192 192" version="1.1" xmlns="http://www.w3.org/2000/svg">
<g id="#6da3a7ff">
<path fill="#6da3a7" opacity="1.00" d=" M 42.34 19.45 C 47.08 18.17 52.26 18.86 56.39 21.55 C 92.96 42.17 129.73 62.40 166.56 82.52 C 176.76 87.23 177.66 103.23 167.91 108.91 C 156.82 114.87 146.29 122.14 134.43 126.48 C 108.39 141.12 82.28 155.61 56.23 170.23 C 51.98 172.89 46.79 172.62 41.99 172.35 C 36.41 170.06 32.89 163.98 32.99 158.04 C 32.98 116.68 33.01 75.31 33.05 33.95 C 32.91 27.90 36.58 21.61 42.34 19.45 M 43.37 31.94 C 43.29 74.61 43.34 117.28 43.36 159.95 C 64.84 138.78 86.14 117.40 107.37 95.98 C 86.10 74.57 64.88 53.10 43.37 31.94 M 65.15 38.44 C 81.11 55.67 98.27 71.85 114.81 88.55 C 119.59 83.67 124.55 78.98 129.20 73.98 C 107.86 62.13 86.71 49.89 65.15 38.44 M 121.81 96.05 C 127.38 101.97 133.16 107.70 139.06 113.30 C 146.82 109.01 154.61 104.76 162.27 100.29 C 165.36 98.56 165.31 93.51 162.14 91.88 C 154.48 87.45 146.75 83.14 138.97 78.92 C 133.21 84.59 127.52 90.32 121.81 96.05 M 111.03 107.03 C 96.16 122.44 80.26 136.95 65.95 152.82 C 87.20 141.65 107.94 129.48 128.98 117.90 C 124.28 113.33 119.86 108.44 114.95 104.09 C 113.24 104.20 112.28 106.04 111.03 107.03 Z" />
</g>
</svg>
