<?xml version="1.0" encoding="UTF-8" ?>
<!DOCTYPE svg PUBLIC "-//W3C//DTD SVG 1.1//EN" "http://www.w3.org/Graphics/SVG/1.1/DTD/svg11.dtd">
<svg width="192pt" height="192pt" viewBox="0 0 192 192" version="1.1" xmlns="http://www.w3.org/2000/svg">
<g id="#41e274ff">
<path fill="#41e274" opacity="1.00" d=" M 42.34 19.44 C 47.08 18.16 52.28 18.84 56.40 21.54 C 92.96 42.17 129.75 62.37 166.56 82.51 C 176.77 87.22 177.67 103.23 167.91 108.91 C 156.83 114.89 146.28 122.10 134.45 126.53 C 108.20 141.28 81.89 155.92 55.61 170.63 C 51.48 173.01 46.54 172.60 41.98 172.33 C 36.44 169.99 32.89 163.98 33.04 158.03 C 33.04 116.68 33.03 75.32 33.06 33.97 C 32.89 27.90 36.59 21.62 42.34 19.44 M 43.35 31.95 C 43.30 74.63 43.33 117.31 43.34 159.99 C 64.90 138.84 86.17 117.40 107.45 95.97 C 86.18 74.54 64.92 53.08 43.35 31.95 M 63.16 37.02 C 80.37 54.19 97.44 71.50 114.78 88.53 C 119.56 83.67 124.51 78.97 129.17 73.99 C 107.22 61.56 85.11 49.43 63.16 37.02 M 121.84 96.04 C 127.41 101.94 133.16 107.69 139.06 113.28 C 146.64 109.16 154.15 104.91 161.66 100.68 C 165.18 99.19 165.61 93.68 162.13 91.89 C 154.49 87.45 146.74 83.18 138.99 78.94 C 133.22 84.59 127.54 90.33 121.84 96.04 M 114.19 103.81 C 97.54 120.59 80.75 137.25 64.07 154.02 C 85.73 142.05 107.35 129.99 128.89 117.80 C 123.90 113.24 119.68 107.76 114.19 103.81 Z" />
</g>
</svg>
