<?xml version="1.0" encoding="UTF-8" ?>
<!DOCTYPE svg PUBLIC "-//W3C//DTD SVG 1.1//EN" "http://www.w3.org/Graphics/SVG/1.1/DTD/svg11.dtd">
<svg width="192pt" height="192pt" viewBox="0 0 192 192" version="1.1" xmlns="http://www.w3.org/2000/svg">
<g id="#2dc5b9ff">
<path fill="#2dc5b9" opacity="1.00" d=" M 42.34 19.46 C 46.82 18.28 51.76 18.72 55.73 21.20 C 89.60 40.12 123.38 59.19 157.56 77.51 C 162.94 80.95 169.94 82.92 173.05 88.97 C 177.02 96.12 174.01 106.00 166.66 109.65 C 155.92 115.26 145.85 122.32 134.44 126.50 C 108.40 141.13 82.29 155.64 56.25 170.26 C 51.99 172.91 46.79 172.66 41.99 172.34 C 36.40 170.07 32.89 163.97 32.99 158.03 C 32.98 116.67 33.04 75.31 33.07 33.95 C 32.91 27.90 36.58 21.62 42.34 19.46 M 43.37 31.90 C 43.26 74.59 43.34 117.28 43.36 159.97 C 64.84 138.77 86.13 117.38 107.40 95.98 C 86.10 74.57 64.88 53.09 43.37 31.90 M 64.91 38.24 C 80.98 55.50 98.18 71.76 114.78 88.53 C 119.59 83.69 124.53 78.96 129.20 73.99 C 107.81 62.00 86.50 49.85 64.91 38.24 M 121.80 96.06 C 127.39 101.96 133.16 107.71 139.03 113.33 C 146.62 109.19 154.16 104.95 161.69 100.70 C 165.23 99.20 165.63 93.66 162.15 91.86 C 154.49 87.44 146.76 83.13 138.98 78.92 C 133.20 84.58 127.51 90.33 121.80 96.06 M 112.55 105.55 C 96.38 121.73 80.23 137.93 64.01 154.06 C 85.73 142.12 107.34 129.99 128.94 117.83 C 124.43 113.42 120.11 108.82 115.51 104.51 C 114.49 103.28 113.32 104.92 112.55 105.55 Z" />
</g>
</svg>
