<?xml version="1.0" encoding="UTF-8" ?>
<!DOCTYPE svg PUBLIC "-//W3C//DTD SVG 1.1//EN" "http://www.w3.org/Graphics/SVG/1.1/DTD/svg11.dtd">
<svg width="192pt" height="192pt" viewBox="0 0 192 192" version="1.1" xmlns="http://www.w3.org/2000/svg">
<g id="#464d5dff">
<path fill="#464d5d" opacity="1.00" d=" M 42.36 19.43 C 46.82 18.28 51.75 18.68 55.72 21.15 C 89.58 40.09 123.39 59.13 157.55 77.47 C 162.95 80.90 169.94 82.90 173.09 88.93 C 177.08 96.12 174.15 106.08 166.73 109.75 C 156.00 115.37 145.92 122.37 134.52 126.59 C 108.46 141.20 82.36 155.76 56.28 170.34 C 52.03 173.04 46.82 172.73 42.01 172.37 C 36.43 170.10 32.93 164.03 33.03 158.10 C 33.04 116.70 33.03 75.30 33.06 33.90 C 32.93 27.85 36.62 21.62 42.36 19.43 M 43.43 31.98 C 43.33 74.64 43.37 117.31 43.42 159.97 C 64.92 138.81 86.23 117.44 107.44 95.98 C 86.17 74.58 64.86 53.22 43.43 31.98 M 64.13 37.78 C 80.80 54.89 97.83 71.64 114.71 88.53 C 119.56 83.73 124.48 78.99 129.13 73.99 C 107.47 61.92 85.88 49.70 64.13 37.78 M 121.93 96.02 C 127.38 101.99 133.25 107.57 138.99 113.26 C 146.64 109.22 154.13 104.89 161.68 100.66 C 165.20 99.20 165.56 93.73 162.12 91.95 C 154.48 87.51 146.74 83.22 138.97 79.02 C 133.26 84.65 127.59 90.34 121.93 96.02 M 64.65 153.54 C 86.22 141.93 107.52 129.84 128.85 117.80 C 124.16 113.16 119.55 108.44 114.80 103.86 C 97.61 119.88 81.41 137.03 64.65 153.54 Z" />
</g>
</svg>
