<?xml version="1.0" encoding="UTF-8" ?>
<!DOCTYPE svg PUBLIC "-//W3C//DTD SVG 1.1//EN" "http://www.w3.org/Graphics/SVG/1.1/DTD/svg11.dtd">
<svg width="192pt" height="192pt" viewBox="0 0 192 192" version="1.1" xmlns="http://www.w3.org/2000/svg">
<g id="#fa7144ff">
<path fill="#fa7144" opacity="1.00" d=" M 42.34 19.45 C 46.82 18.29 51.77 18.71 55.74 21.20 C 89.60 40.12 123.40 59.17 157.57 77.50 C 162.95 80.93 169.94 82.91 173.06 88.96 C 177.04 96.12 174.03 106.00 166.67 109.67 C 155.93 115.27 145.86 122.32 134.45 126.51 C 108.41 141.14 82.30 155.65 56.25 170.26 C 51.99 172.91 46.79 172.67 41.99 172.32 C 36.41 170.04 32.91 163.97 33.00 158.04 C 33.01 116.68 33.03 75.31 33.05 33.95 C 32.90 27.89 36.59 21.63 42.34 19.45 M 43.37 31.90 C 43.27 74.60 43.32 117.30 43.36 160.00 C 64.87 138.80 86.14 117.35 107.47 95.97 C 86.15 74.56 64.88 53.11 43.37 31.90 M 64.86 38.18 C 80.92 55.48 98.16 71.74 114.76 88.55 C 119.58 83.69 124.51 78.94 129.22 73.97 C 107.77 62.03 86.46 49.84 64.86 38.18 M 121.80 96.06 C 127.40 101.95 133.16 107.69 139.03 113.31 C 146.62 109.17 154.16 104.94 161.68 100.68 C 165.21 99.19 165.62 93.67 162.14 91.87 C 154.49 87.43 146.73 83.15 138.97 78.91 C 133.22 84.60 127.50 90.33 121.80 96.06 M 112.01 106.02 C 96.71 121.78 80.55 136.78 65.69 152.94 C 86.99 141.65 107.87 129.55 128.93 117.82 C 124.41 113.43 120.11 108.82 115.50 104.52 C 114.21 103.18 112.97 105.31 112.01 106.02 Z" />
</g>
</svg>
