<?xml version="1.0" encoding="UTF-8" ?>
<!DOCTYPE svg PUBLIC "-//W3C//DTD SVG 1.1//EN" "http://www.w3.org/Graphics/SVG/1.1/DTD/svg11.dtd">
<svg width="192pt" height="192pt" viewBox="0 0 192 192" version="1.1" xmlns="http://www.w3.org/2000/svg">
<g id="#ff5f3cff">
<path fill="#ff5f3c" opacity="1.00" d=" M 42.34 19.44 C 47.08 18.18 52.27 18.83 56.39 21.54 C 92.96 42.16 129.74 62.37 166.55 82.50 C 176.77 87.22 177.67 103.23 167.91 108.92 C 156.82 114.88 146.27 122.10 134.46 126.52 C 108.19 141.28 81.87 155.93 55.57 170.64 C 51.45 173.02 46.53 172.55 41.97 172.34 C 36.45 169.98 32.91 164.00 33.03 158.06 C 33.04 116.69 33.04 75.31 33.07 33.94 C 32.90 27.87 36.62 21.65 42.34 19.44 M 43.39 31.87 C 43.25 74.58 43.31 117.30 43.37 160.02 C 64.89 138.81 86.17 117.36 107.50 95.97 C 86.19 74.54 64.87 53.12 43.39 31.87 M 63.03 36.92 C 80.27 54.12 97.43 71.40 114.72 88.55 C 119.57 83.72 124.49 78.95 129.20 73.98 C 107.18 61.56 85.02 49.39 63.03 36.92 M 121.82 96.06 C 127.40 101.94 133.17 107.64 139.00 113.27 C 146.63 109.21 154.13 104.89 161.67 100.67 C 165.19 99.19 165.60 93.67 162.14 91.88 C 154.48 87.46 146.74 83.14 138.96 78.94 C 133.22 84.62 127.50 90.32 121.82 96.06 M 112.51 105.51 C 96.31 121.74 80.13 138.01 63.84 154.15 C 85.58 142.14 107.27 130.02 128.90 117.81 C 124.40 113.41 120.07 108.84 115.50 104.51 C 114.50 103.26 113.28 104.85 112.51 105.51 Z" />
</g>
</svg>
