<?xml version="1.0" encoding="UTF-8" ?>
<!DOCTYPE svg PUBLIC "-//W3C//DTD SVG 1.1//EN" "http://www.w3.org/Graphics/SVG/1.1/DTD/svg11.dtd">
<svg width="192pt" height="192pt" viewBox="0 0 192 192" version="1.1" xmlns="http://www.w3.org/2000/svg">
<g id="#2abaa2ff">
<path fill="#2abaa2" opacity="1.00" d=" M 84.41 13.54 C 105.80 10.47 128.32 16.35 145.47 29.50 C 169.75 47.73 182.37 80.21 176.19 110.02 C 170.46 140.28 146.05 165.58 116.44 173.48 C 103.32 177.44 89.51 176.47 76.00 176.57 C 58.66 176.54 41.33 176.60 24.00 176.52 C 19.12 177.03 16.08 170.74 19.12 167.04 C 23.92 158.46 32.52 148.67 26.56 138.43 C 9.40 111.46 10.12 74.66 28.38 48.42 C 41.10 29.65 61.96 16.68 84.41 13.54 M 28.62 73.62 C 22.46 92.95 25.50 114.74 36.16 131.94 C 42.42 142.11 40.80 155.50 33.80 164.87 C 53.86 165.15 73.94 164.94 94.01 164.99 C 116.68 165.01 139.07 153.85 152.47 135.53 C 163.27 121.16 168.07 102.48 165.41 84.69 C 161.36 51.77 131.35 24.31 98.01 24.18 C 67.17 22.54 37.31 44.08 28.62 73.62 Z" />
<path fill="#2abaa2" opacity="1.00" d=" M 90.83 69.06 C 92.06 63.73 100.62 63.91 101.61 69.30 C 102.08 75.94 101.62 82.62 101.83 89.27 C 108.43 89.52 115.05 89.03 121.63 89.50 C 127.03 90.34 127.58 98.78 122.35 100.34 C 115.55 101.03 108.67 100.38 101.83 100.64 C 101.63 107.33 102.09 114.05 101.63 120.73 C 100.65 126.32 91.58 126.13 90.74 120.53 C 90.27 113.91 90.77 107.25 90.49 100.61 C 83.80 100.45 77.08 100.90 70.41 100.40 C 65.14 99.22 65.09 90.75 70.41 89.59 C 77.05 89.02 83.76 89.47 90.43 89.38 C 90.92 82.62 90.14 75.81 90.83 69.06 Z" />
</g>
</svg>
