<?xml version="1.0" encoding="UTF-8" ?>
<!DOCTYPE svg PUBLIC "-//W3C//DTD SVG 1.1//EN" "http://www.w3.org/Graphics/SVG/1.1/DTD/svg11.dtd">
<svg width="192pt" height="192pt" viewBox="0 0 192 192" version="1.1" xmlns="http://www.w3.org/2000/svg">
<g id="#887953ff">
<path fill="#887953" opacity="1.00" d=" M 40.27 21.33 C 72.11 20.03 104.12 21.02 136.02 20.81 C 142.42 20.90 142.52 31.80 136.05 31.75 C 106.03 31.95 76.00 31.70 45.98 31.83 C 39.46 31.67 33.09 37.22 33.31 43.93 C 33.27 77.97 33.30 112.02 33.30 146.07 C 33.01 152.82 39.30 158.80 46.01 158.34 C 79.67 158.32 113.33 158.32 146.99 158.31 C 153.67 158.71 159.80 152.76 159.64 146.08 C 159.77 117.05 159.55 88.01 159.76 58.99 C 159.67 52.27 170.80 52.28 170.79 58.95 C 170.96 87.98 170.86 117.01 170.86 146.04 C 171.25 158.36 160.38 169.50 148.08 169.56 C 113.70 169.62 79.31 169.59 44.93 169.54 C 32.99 169.52 22.29 159.03 22.12 147.07 C 22.00 112.70 22.09 78.33 22.11 43.96 C 21.97 33.39 30.01 23.58 40.27 21.33 Z" />
<path fill="#887953" opacity="1.00" d=" M 156.57 27.46 C 160.81 25.65 165.80 30.67 163.99 34.92 C 162.56 37.75 159.92 39.67 157.74 41.89 C 154.91 39.31 152.27 36.54 149.60 33.80 C 151.80 31.57 153.72 28.89 156.57 27.46 Z" />
<path fill="#887953" opacity="1.00" d=" M 147.41 35.59 C 150.37 38.09 153.03 40.91 155.68 43.72 C 138.77 60.81 121.66 77.69 104.74 94.76 C 101.99 97.68 97.78 98.38 94.04 99.23 C 89.82 96.86 93.96 91.32 95.10 88.07 C 112.42 70.47 130.05 53.16 147.41 35.59 Z" />
</g>
</svg>
