<?xml version="1.0" encoding="UTF-8" ?>
<!DOCTYPE svg PUBLIC "-//W3C//DTD SVG 1.1//EN" "http://www.w3.org/Graphics/SVG/1.1/DTD/svg11.dtd">
<svg width="192pt" height="192pt" viewBox="0 0 192 192" version="1.1" xmlns="http://www.w3.org/2000/svg">
<g id="#ff5b3cff">
<path fill="#ff5b3c" opacity="1.00" d=" M 85.30 14.40 C 105.26 11.74 126.13 16.74 142.62 28.31 C 161.42 41.26 174.35 62.36 177.18 85.03 C 177.65 88.42 178.52 93.02 174.85 94.98 C 170.77 97.36 165.81 93.61 166.27 89.08 C 163.88 54.25 131.99 24.50 96.98 25.10 C 65.63 23.83 35.64 46.60 27.79 76.85 C 22.11 97.25 26.23 120.10 38.79 137.17 C 50.83 153.95 70.50 164.78 91.08 166.18 C 97.47 166.50 97.42 177.03 91.05 177.31 C 60.84 176.04 32.60 156.03 20.82 128.27 C 11.04 106.08 11.91 79.53 23.20 58.07 C 35.18 34.57 59.10 17.65 85.30 14.40 Z" />
<path fill="#ff5b3c" opacity="1.00" d=" M 87.33 40.42 C 118.05 34.70 150.14 59.72 151.44 91.01 C 150.96 96.03 143.41 97.36 141.07 92.99 C 139.70 89.60 139.80 85.81 138.57 82.37 C 133.04 63.88 114.39 50.17 95.00 51.11 C 72.48 50.85 52.22 70.50 51.42 92.94 C 49.43 115.91 68.07 137.86 90.96 139.99 C 97.43 140.21 97.52 150.81 91.07 151.17 C 73.37 150.01 56.80 139.29 47.86 124.06 C 38.47 108.38 37.53 88.03 45.52 71.59 C 53.23 55.19 69.38 43.08 87.33 40.42 Z" />
</g>
</svg>
