<?xml version="1.0" encoding="UTF-8" ?>
<!DOCTYPE svg PUBLIC "-//W3C//DTD SVG 1.1//EN" "http://www.w3.org/Graphics/SVG/1.1/DTD/svg11.dtd">
<svg width="192pt" height="192pt" viewBox="0 0 192 192" version="1.1" xmlns="http://www.w3.org/2000/svg">
<g id="#1ab1ffff">
<path fill="#1ab1ff" opacity="1.00" d=" M 39.37 21.54 C 53.13 19.85 67.16 21.06 81.02 20.84 C 86.98 20.96 87.58 30.76 81.72 31.61 C 69.48 32.14 57.19 31.52 44.94 31.87 C 38.72 32.09 33.11 37.61 33.27 43.93 C 33.23 77.97 33.25 112.02 33.27 146.07 C 33.02 152.80 39.25 158.74 45.95 158.33 C 79.89 158.30 113.83 158.36 147.77 158.27 C 154.18 158.27 159.77 152.47 159.64 146.08 C 159.73 112.36 159.67 78.65 159.68 44.93 C 160.25 37.75 153.37 30.80 146.11 32.21 C 144.42 32.56 144.05 34.43 144.10 35.89 C 143.97 49.28 144.21 62.68 144.01 76.08 C 143.88 87.34 134.29 97.34 123.07 98.03 C 110.57 99.37 98.53 88.64 98.45 76.06 C 98.48 60.72 98.38 45.36 98.58 30.02 C 98.58 25.07 103.00 20.72 107.95 20.79 C 121.30 20.68 134.65 20.72 147.99 20.76 C 160.20 20.73 171.00 31.73 170.82 43.93 C 170.89 77.97 170.89 112.02 170.85 146.07 C 171.15 158.36 160.36 169.47 148.06 169.51 C 113.69 169.59 79.32 169.56 44.95 169.50 C 32.62 169.50 21.78 158.38 22.07 146.05 C 22.05 112.01 22.05 77.97 22.11 43.92 C 22.00 33.69 29.53 24.14 39.37 21.54 M 115.39 32.61 C 111.98 33.16 109.57 36.57 109.78 39.95 C 109.70 51.64 109.67 63.32 109.70 75.01 C 109.37 81.53 115.44 87.37 121.94 86.77 C 128.30 86.47 133.24 80.31 132.75 74.07 C 132.53 61.85 133.20 49.56 132.41 37.37 C 129.93 30.36 121.07 32.70 115.39 32.61 Z" />
<path fill="#1ab1ff" opacity="1.00" d=" M 118.32 65.42 C 123.78 63.18 130.26 68.10 129.57 73.96 C 129.36 80.04 121.67 83.85 116.69 80.34 C 110.98 77.01 112.00 67.43 118.32 65.42 Z" />
</g>
</svg>
