<?xml version="1.0" encoding="UTF-8" ?>
<!DOCTYPE svg PUBLIC "-//W3C//DTD SVG 1.1//EN" "http://www.w3.org/Graphics/SVG/1.1/DTD/svg11.dtd">
<svg width="192pt" height="192pt" viewBox="0 0 192 192" version="1.1" xmlns="http://www.w3.org/2000/svg">
<g id="#45e372ff">
<path fill="#45e372" opacity="1.00" d=" M 84.41 14.51 C 105.58 11.48 127.99 16.99 144.97 30.08 C 148.33 32.70 146.91 38.85 142.70 39.67 C 139.25 40.62 136.61 37.74 133.92 36.13 C 110.07 20.34 76.62 21.58 53.87 38.88 C 48.95 43.66 41.13 35.69 45.98 30.87 C 56.90 21.97 70.51 16.52 84.41 14.51 Z" />
<path fill="#45e372" opacity="1.00" d=" M 86.38 40.49 C 100.03 38.15 114.74 40.91 126.22 48.76 C 131.34 52.54 125.62 61.13 120.17 57.96 C 105.77 48.86 86.33 48.66 71.95 57.91 C 66.84 61.75 60.15 54.12 64.57 49.59 C 70.83 44.68 78.64 41.99 86.38 40.49 Z" />
<path fill="#45e372" opacity="1.00" d=" M 156.36 44.44 C 158.27 44.17 160.29 44.96 161.46 46.52 C 181.50 72.29 183.25 110.35 166.08 138.04 C 150.15 164.89 118.01 180.90 86.96 177.06 C 57.47 174.16 30.71 153.69 19.90 126.14 C 9.41 100.36 13.22 69.21 30.07 46.98 C 32.46 43.67 38.22 44.52 39.60 48.34 C 41.32 52.33 37.54 55.53 35.79 58.72 C 19.82 83.73 22.46 118.69 41.91 141.07 C 56.78 159.03 80.90 168.66 104.06 165.79 C 130.27 163.10 153.92 144.32 162.50 119.41 C 170.34 97.80 166.72 72.49 153.00 54.02 C 149.92 50.81 151.86 44.89 156.36 44.44 Z" />
<path fill="#45e372" opacity="1.00" d=" M 90.32 68.41 C 106.95 64.43 124.52 78.91 123.71 95.99 C 124.07 112.89 106.53 126.92 90.11 122.79 C 75.23 119.97 64.96 103.59 69.00 88.96 C 71.41 78.77 80.06 70.46 90.32 68.41 M 92.37 79.52 C 84.48 81.12 78.62 89.12 79.52 97.12 C 80.11 105.76 88.42 112.93 97.07 112.06 C 106.43 111.71 114.01 102.21 112.25 93.01 C 111.00 83.92 101.29 77.31 92.37 79.52 Z" />
</g>
</svg>
