<?xml version="1.0" encoding="UTF-8" ?>
<!DOCTYPE svg PUBLIC "-//W3C//DTD SVG 1.1//EN" "http://www.w3.org/Graphics/SVG/1.1/DTD/svg11.dtd">
<svg width="192pt" height="192pt" viewBox="0 0 192 192" version="1.1" xmlns="http://www.w3.org/2000/svg">
<g id="#ef9f65ff">
<path fill="#ef9f65" opacity="1.00" d=" M 63.85 27.87 C 90.11 15.09 123.88 19.79 145.66 39.29 C 147.29 37.65 148.90 35.99 150.44 34.27 C 148.12 24.58 161.38 17.66 167.97 25.04 C 175.06 31.87 167.83 44.36 158.36 42.44 C 156.82 44.02 155.27 45.60 153.71 47.16 C 168.72 66.21 174.88 92.23 167.76 115.68 C 159.37 146.23 129.70 169.21 97.99 169.52 C 68.69 170.76 39.88 152.77 27.97 126.02 C 15.95 100.62 20.35 68.80 38.37 47.32 C 36.73 45.70 35.10 44.07 33.47 42.44 C 23.68 44.41 16.64 31.00 24.47 24.53 C 31.63 17.70 43.79 25.32 41.62 34.76 C 45.11 39.42 54.70 43.69 50.59 50.54 C 37.05 64.51 30.14 84.66 33.09 103.98 C 36.61 131.52 60.27 154.76 87.87 157.76 C 106.09 160.15 125.20 154.21 138.70 141.71 C 152.50 129.30 160.32 110.58 159.30 92.04 C 158.48 69.16 143.97 47.39 123.13 37.90 C 106.11 30.05 85.80 30.17 68.69 37.71 C 62.98 40.13 58.47 30.98 63.85 27.87 Z" />
<path fill="#ef9f65" opacity="1.00" d=" M 61.33 72.35 C 66.68 71.31 72.29 74.92 73.77 80.11 C 75.54 85.55 72.01 91.78 66.67 93.54 C 60.53 95.82 53.05 91.16 52.38 84.63 C 51.33 78.96 55.73 73.24 61.33 72.35 M 65.29 76.21 C 60.91 78.02 64.50 85.32 68.63 82.68 C 72.75 80.70 69.21 73.80 65.29 76.21 Z" />
<path fill="#ef9f65" opacity="1.00" d=" M 126.38 72.52 C 134.00 70.25 142.06 78.08 139.77 85.77 C 138.13 93.56 127.42 96.96 121.72 91.29 C 115.19 85.93 118.07 74.17 126.38 72.52 M 124.31 76.26 C 120.05 78.18 123.63 85.07 127.67 82.70 C 132.01 80.80 128.27 73.75 124.31 76.26 Z" />
<path fill="#ef9f65" opacity="1.00" d=" M 90.55 94.57 C 94.26 93.80 98.67 93.37 102.20 94.92 C 106.05 98.77 100.01 102.73 97.35 105.12 C 102.69 109.54 111.04 109.88 116.51 105.52 C 120.08 103.10 123.79 108.98 120.52 111.51 C 118.24 115.61 110.46 113.43 110.70 118.96 C 110.27 124.14 109.06 129.55 105.61 133.60 C 100.56 139.69 89.80 139.10 85.30 132.65 C 81.74 127.85 81.62 121.63 81.21 115.91 C 77.36 114.84 72.63 113.91 70.77 109.90 C 69.28 106.74 73.63 103.50 76.26 105.77 C 81.81 109.77 89.71 109.45 94.99 105.11 C 92.12 102.78 85.91 98.14 90.55 94.57 Z" />
</g>
</svg>
