<?xml version="1.0" encoding="UTF-8" ?>
<!DOCTYPE svg PUBLIC "-//W3C//DTD SVG 1.1//EN" "http://www.w3.org/Graphics/SVG/1.1/DTD/svg11.dtd">
<svg width="192pt" height="192pt" viewBox="0 0 192 192" version="1.1" xmlns="http://www.w3.org/2000/svg">
<g id="#607080ff">
<path fill="#607080" opacity="1.00" d=" M 41.42 21.65 C 76.28 20.94 111.19 21.53 146.07 21.34 C 157.45 20.86 168.30 29.72 169.89 41.03 C 170.47 46.66 170.44 52.38 170.05 58.02 C 169.43 63.09 161.65 64.08 159.66 59.40 C 158.11 53.29 160.15 46.74 158.27 40.65 C 156.52 35.65 151.30 32.27 146.02 32.57 C 112.34 32.60 78.65 32.53 44.96 32.59 C 39.39 32.46 34.16 36.62 32.96 42.04 C 31.84 47.69 33.39 53.57 32.07 59.18 C 30.40 63.81 22.77 63.38 21.72 58.53 C 21.08 53.71 21.46 48.81 21.48 43.96 C 21.65 33.01 30.58 23.08 41.42 21.65 Z" />
<path fill="#607080" opacity="1.00" d=" M 21.69 74.38 C 30.63 73.84 39.64 73.88 48.59 74.35 C 48.67 76.76 48.67 79.16 48.59 81.56 C 42.64 81.94 36.67 81.73 30.72 81.78 C 30.68 85.50 30.67 89.21 30.67 92.93 C 35.72 92.96 40.77 92.89 45.81 93.18 C 46.02 95.58 46.15 97.99 46.24 100.40 C 41.08 100.88 35.88 100.74 30.71 100.72 C 30.66 106.05 30.74 111.39 30.58 116.73 C 27.60 117.20 24.57 117.17 21.60 116.69 C 21.53 102.59 21.39 88.48 21.69 74.38 Z" />
<path fill="#607080" opacity="1.00" d=" M 53.36 76.98 C 53.19 72.19 59.34 74.50 62.32 74.38 C 62.65 86.02 62.38 97.68 62.48 109.33 C 67.85 109.49 73.27 108.98 78.62 109.55 C 81.41 110.81 79.51 114.81 79.51 117.21 C 70.82 116.95 62.09 117.67 53.43 116.72 C 53.23 103.47 53.30 90.22 53.36 76.98 Z" />
<path fill="#607080" opacity="1.00" d=" M 88.36 74.52 C 95.70 73.16 104.25 72.22 111.05 75.89 C 116.81 82.01 113.98 91.40 114.71 98.99 C 114.81 105.46 115.41 115.70 106.97 117.07 C 99.82 117.72 91.41 119.13 85.10 114.90 C 80.20 108.42 82.54 99.56 81.94 92.00 C 82.13 85.97 81.11 76.85 88.36 74.52 M 94.33 81.54 C 90.17 82.44 91.51 87.90 91.16 91.00 C 91.67 96.82 90.02 103.17 92.35 108.63 C 96.26 110.86 105.59 111.58 105.42 105.03 C 105.57 98.36 105.78 91.66 105.27 85.01 C 104.63 79.83 97.96 81.34 94.33 81.54 Z" />
<path fill="#607080" opacity="1.00" d=" M 117.97 74.24 C 120.90 74.06 123.84 74.05 126.77 74.20 C 129.26 83.38 131.00 92.75 133.21 102.00 C 135.90 92.93 137.15 83.40 140.55 74.57 C 143.08 73.78 147.66 72.94 148.53 76.38 C 150.93 84.79 152.63 93.40 155.01 101.82 C 157.42 92.78 158.72 83.43 161.51 74.50 C 164.33 73.67 167.32 74.09 170.21 74.19 C 167.91 87.40 164.17 100.32 161.30 113.41 C 160.88 118.56 154.06 117.71 150.62 116.37 C 147.63 108.54 146.54 100.09 144.11 92.06 C 141.66 100.11 140.61 108.62 137.54 116.45 C 133.99 117.66 127.16 118.55 126.84 113.24 C 123.99 100.22 120.25 87.38 117.97 74.24 Z" />
<path fill="#607080" opacity="1.00" d=" M 24.37 130.31 C 27.47 128.50 32.00 130.58 32.40 134.20 C 33.03 139.40 31.98 144.71 33.06 149.86 C 34.38 155.55 40.19 159.40 45.92 159.01 C 79.31 158.98 112.71 159.02 146.10 158.99 C 151.49 159.23 156.86 155.69 158.43 150.47 C 159.90 144.86 158.39 138.98 159.44 133.33 C 160.78 128.56 168.42 128.49 169.83 133.25 C 171.03 144.10 171.34 157.36 161.78 164.79 C 157.16 168.75 151.01 170.46 144.99 170.32 C 111.65 170.26 78.31 170.37 44.97 170.26 C 35.92 170.29 27.17 164.71 23.52 156.42 C 20.63 150.33 21.52 143.43 21.41 136.91 C 21.31 134.43 21.87 131.47 24.37 130.31 Z" />
</g>
</svg>
