<?xml version="1.0" encoding="UTF-8" ?>
<!DOCTYPE svg PUBLIC "-//W3C//DTD SVG 1.1//EN" "http://www.w3.org/Graphics/SVG/1.1/DTD/svg11.dtd">
<svg width="192pt" height="192pt" viewBox="0 0 192 192" version="1.1" xmlns="http://www.w3.org/2000/svg">
<g id="#ff3663ff">
<path fill="#ff3663" opacity="1.00" d=" M 84.02 20.11 C 94.45 10.10 113.57 10.64 120.97 23.99 C 129.83 22.12 140.33 24.68 145.08 32.96 C 147.83 36.72 147.55 41.61 149.16 45.73 C 153.69 50.04 156.79 56.05 155.55 62.46 C 156.66 71.27 153.37 79.71 152.55 88.41 C 148.12 116.27 143.63 144.13 139.05 171.97 C 138.83 175.10 136.31 177.97 133.01 177.69 C 107.32 177.77 81.62 177.70 55.93 177.71 C 51.58 178.24 49.21 173.70 48.93 170.00 C 44.12 136.31 39.26 102.62 34.45 68.93 C 33.73 65.43 36.48 62.48 36.27 58.99 C 36.64 49.49 43.71 40.54 53.40 39.34 C 54.11 32.34 57.17 25.14 63.35 21.32 C 69.46 17.25 77.40 17.49 84.02 20.11 M 96.40 25.49 C 92.29 27.26 90.18 31.79 86.01 33.43 C 82.88 33.88 80.61 31.19 77.95 30.04 C 72.17 27.31 64.63 32.63 65.21 38.99 C 65.05 42.55 67.03 47.15 63.74 49.83 C 60.47 52.28 56.06 49.70 52.58 51.60 C 48.94 53.22 47.28 57.25 47.19 61.03 C 79.58 61.38 112.00 60.95 144.40 60.96 C 145.21 55.46 138.63 54.25 137.25 49.75 C 136.54 46.55 137.55 43.04 135.96 40.03 C 134.03 35.73 128.58 33.41 124.18 35.23 C 121.55 35.94 118.93 38.04 116.12 36.95 C 113.26 35.72 112.62 32.36 111.10 29.96 C 108.39 24.87 101.49 22.86 96.40 25.49 M 46.54 72.77 C 50.96 103.44 55.38 134.10 59.78 164.77 C 62.53 164.82 65.28 164.86 68.02 164.87 C 65.58 134.22 63.01 103.58 60.54 72.93 C 55.88 72.59 51.21 72.81 46.54 72.77 M 72.11 72.66 C 74.38 103.47 77.17 134.26 79.56 165.07 C 82.89 165.24 86.24 165.23 89.58 165.12 C 89.49 134.29 89.76 103.45 89.45 72.63 C 83.67 72.68 77.89 72.64 72.11 72.66 M 101.29 72.64 C 101.27 103.67 101.31 134.70 101.27 165.72 C 104.48 165.76 107.68 165.79 110.89 165.80 C 113.31 134.75 115.91 103.72 118.25 72.67 C 112.60 72.63 106.94 72.67 101.29 72.64 M 129.79 72.63 C 127.42 103.73 124.93 134.82 122.40 165.90 C 124.36 166.00 126.32 166.09 128.28 166.20 C 133.39 135.02 138.52 103.84 143.40 72.62 C 138.86 72.58 134.33 72.58 129.79 72.63 Z" />
<path fill="#ff3663" opacity="1.00" d=" M 97.25 37.31 C 106.00 35.74 116.04 41.82 117.17 50.99 C 117.79 54.78 113.76 58.31 110.11 56.99 C 106.96 56.14 106.52 52.47 104.79 50.20 C 101.91 47.28 96.48 49.49 94.17 45.74 C 91.98 42.78 93.59 38.09 97.25 37.31 Z" />
</g>
</svg>
