<?xml version="1.0" encoding="UTF-8" ?>
<!DOCTYPE svg PUBLIC "-//W3C//DTD SVG 1.1//EN" "http://www.w3.org/Graphics/SVG/1.1/DTD/svg11.dtd">
<svg width="192pt" height="192pt" viewBox="0 0 192 192" version="1.1" xmlns="http://www.w3.org/2000/svg">
<g id="#ac7d50ff">
<path fill="#ac7d50" opacity="1.00" d=" M 20.21 40.93 C 20.47 29.08 31.20 18.83 42.99 18.80 C 77.33 18.74 111.67 18.74 146.01 18.79 C 157.79 18.84 168.45 29.12 168.72 40.94 C 168.77 51.86 168.95 62.80 168.64 73.72 C 168.09 79.50 158.88 79.55 157.90 73.94 C 157.36 62.97 157.99 51.96 157.61 40.99 C 157.21 34.70 151.24 29.72 145.05 29.79 C 111.35 29.73 77.65 29.73 43.95 29.76 C 37.41 29.62 31.00 35.19 31.28 41.94 C 31.24 57.16 31.28 72.39 31.27 87.62 C 49.51 87.79 67.77 87.41 86.00 87.79 C 91.88 88.54 91.85 98.21 85.89 98.64 C 65.93 98.90 45.95 98.69 25.98 98.73 C 22.80 99.16 19.89 96.27 20.17 93.10 C 20.15 75.71 20.09 58.31 20.21 40.93 Z" />
<path fill="#ac7d50" opacity="1.00" d=" M 103.06 98.93 C 96.46 98.70 96.32 87.82 103.00 87.66 C 122.99 87.44 143.01 87.58 163.01 87.58 C 167.06 87.18 169.47 91.34 169.07 94.95 C 169.02 111.65 169.30 128.37 168.93 145.07 C 168.62 157.03 158.05 167.53 146.06 167.58 C 111.69 167.65 77.32 167.63 42.95 167.57 C 30.96 167.56 20.31 157.05 20.04 145.09 C 19.99 134.38 19.88 123.66 20.08 112.95 C 20.37 107.02 29.77 106.27 30.99 112.09 C 31.78 123.02 30.99 134.04 31.37 145.00 C 31.64 151.34 37.65 156.71 44.00 156.27 C 77.67 156.26 111.34 156.26 145.01 156.24 C 151.68 156.68 157.74 150.71 157.61 144.07 C 157.69 129.10 157.66 114.12 157.61 99.14 C 139.43 99.00 121.22 99.44 103.06 98.93 Z" />
</g>
</svg>
