<?xml version="1.0" encoding="UTF-8" ?>
<!DOCTYPE svg PUBLIC "-//W3C//DTD SVG 1.1//EN" "http://www.w3.org/Graphics/SVG/1.1/DTD/svg11.dtd">
<svg width="192pt" height="192pt" viewBox="0 0 192 192" version="1.1" xmlns="http://www.w3.org/2000/svg">
<g id="#b39765ff">
<path fill="#b39765" opacity="1.00" d=" M 39.28 21.33 C 42.47 20.62 45.75 20.71 49.00 20.71 C 81.99 20.77 114.99 20.65 147.98 20.75 C 160.19 20.76 170.94 31.77 170.85 43.94 C 170.90 78.31 170.90 112.69 170.88 147.06 C 171.10 159.37 160.28 170.49 147.96 170.56 C 113.32 170.65 78.67 170.62 44.03 170.54 C 31.68 170.52 20.86 159.39 21.02 147.07 C 20.96 113.04 20.99 79.00 21.01 44.97 C 20.62 34.08 28.63 23.66 39.28 21.33 M 41.37 32.48 C 35.94 33.86 32.02 39.35 32.34 44.93 C 32.36 78.97 32.31 113.02 32.37 147.07 C 32.24 153.71 38.39 159.51 45.00 159.19 C 79.00 159.21 113.01 159.19 147.02 159.16 C 154.02 159.49 160.02 152.94 159.57 146.05 C 159.59 112.35 159.61 78.64 159.58 44.94 C 159.94 38.15 153.96 31.69 147.06 32.13 C 111.83 32.38 76.55 31.67 41.37 32.48 Z" />
<path fill="#b39765" opacity="1.00" d=" M 56.38 59.44 C 60.34 57.90 65.19 60.50 65.24 64.96 C 65.48 84.64 65.24 104.33 65.37 124.01 C 65.58 126.97 64.71 130.45 61.74 131.74 C 57.83 134.05 52.47 130.47 52.71 126.04 C 52.64 106.02 52.71 85.99 52.69 65.96 C 52.54 63.32 53.90 60.54 56.38 59.44 Z" />
<path fill="#b39765" opacity="1.00" d=" M 82.47 59.57 C 95.85 58.43 110.34 57.33 123.40 61.59 C 149.33 71.49 151.88 112.46 128.85 126.88 C 116.36 134.88 100.98 131.87 87.00 132.48 C 83.15 133.08 78.90 130.23 79.15 126.09 C 79.08 106.04 79.17 85.98 79.15 65.93 C 78.89 63.35 80.13 60.77 82.47 59.57 M 91.63 70.67 C 91.59 87.20 91.61 103.73 91.64 120.26 C 101.18 119.78 111.49 121.93 120.34 117.33 C 136.29 108.70 135.79 81.50 119.61 73.37 C 110.89 69.18 100.94 71.13 91.63 70.67 Z" />
</g>
</svg>
