<?xml version="1.0" encoding="UTF-8" ?>
<!DOCTYPE svg PUBLIC "-//W3C//DTD SVG 1.1//EN" "http://www.w3.org/Graphics/SVG/1.1/DTD/svg11.dtd">
<svg width="192pt" height="192pt" viewBox="0 0 192 192" version="1.1" xmlns="http://www.w3.org/2000/svg">
<g id="#47e470ff">
<path fill="#47e470" opacity="1.00" d=" M 90.51 17.44 C 92.25 13.53 98.57 14.01 99.90 18.03 C 102.98 25.40 105.73 32.91 108.70 40.32 C 115.19 55.33 117.22 72.01 116.15 88.24 C 130.60 75.74 148.70 68.35 167.03 63.67 C 170.21 62.77 173.49 66.26 172.48 69.37 C 165.24 88.93 154.55 107.98 137.82 120.97 C 146.07 123.26 154.16 126.24 161.73 130.24 C 165.51 131.95 165.63 138.11 161.78 139.82 C 150.90 145.45 138.85 148.84 126.57 149.22 C 128.60 153.39 130.82 157.58 131.75 162.16 C 132.52 166.54 127.61 170.15 123.59 168.46 C 118.05 166.44 111.71 164.86 107.53 160.50 C 104.11 154.74 111.97 149.76 116.68 153.59 C 114.06 149.70 111.21 145.94 108.90 141.86 C 107.58 139.86 109.62 136.91 111.97 137.45 C 123.12 138.09 134.74 138.98 145.39 134.87 C 136.21 131.18 126.37 129.76 116.85 127.27 C 114.22 126.58 114.47 122.68 116.96 121.96 C 134.64 112.13 149.21 96.60 157.07 77.89 C 139.06 83.25 124.42 95.36 110.76 107.75 C 108.37 111.05 102.67 109.16 103.41 104.95 C 104.44 91.02 106.08 76.95 104.08 63.01 C 102.48 52.83 98.94 43.08 95.09 33.57 C 90.52 44.99 86.53 56.80 85.37 69.11 C 84.26 81.80 86.33 94.45 87.04 107.09 C 87.17 109.78 83.56 111.24 81.77 109.21 C 67.28 96.45 51.93 83.55 33.08 77.96 C 40.98 96.28 55.06 111.72 72.43 121.50 C 75.16 122.44 75.46 126.77 72.44 127.48 C 63.14 129.78 53.62 131.41 44.66 134.91 C 55.36 138.79 66.89 138.31 78.04 137.40 C 80.42 136.62 82.90 139.37 81.53 141.58 C 79.13 145.82 76.06 149.65 73.51 153.82 C 81.08 150.05 87.45 144.36 92.89 137.96 C 96.67 134.77 100.08 140.64 100.27 144.00 C 100.54 153.32 100.65 162.68 100.34 172.00 C 99.82 177.29 91.64 177.89 90.12 172.89 C 89.29 167.26 89.87 161.52 89.62 155.85 C 82.65 162.23 73.95 166.45 64.89 168.93 C 61.40 170.11 57.53 166.65 58.14 163.05 C 59.21 158.18 61.45 153.65 63.65 149.20 C 51.81 148.86 40.12 145.77 29.58 140.39 C 25.60 138.57 25.22 132.30 29.00 130.06 C 36.37 126.04 44.36 123.27 52.42 120.96 C 36.41 108.39 25.82 90.32 18.56 71.58 C 16.65 67.67 20.69 62.81 24.88 64.14 C 42.67 68.77 60.07 76.22 74.16 88.26 C 72.92 72.31 74.96 55.92 81.26 41.15 C 84.40 33.27 87.15 25.22 90.51 17.44 Z" />
</g>
</svg>
