<?xml version="1.0" encoding="UTF-8" ?>
<!DOCTYPE svg PUBLIC "-//W3C//DTD SVG 1.1//EN" "http://www.w3.org/Graphics/SVG/1.1/DTD/svg11.dtd">
<svg width="192pt" height="192pt" viewBox="0 0 192 192" version="1.1" xmlns="http://www.w3.org/2000/svg">
<g id="#4a70c3ff">
<path fill="#4a70c3" opacity="1.00" d=" M 18.08 62.95 C 17.79 53.31 26.40 44.64 36.02 44.72 C 60.00 44.66 83.99 44.68 107.98 44.68 C 117.46 44.41 126.10 52.56 126.41 62.03 C 126.49 67.36 126.72 72.72 126.28 78.04 C 125.20 82.66 117.96 83.23 116.31 78.74 C 115.04 73.05 116.40 67.10 115.56 61.34 C 114.87 57.91 111.52 55.24 108.01 55.40 C 84.32 55.37 60.62 55.38 36.93 55.37 C 32.65 54.89 28.54 58.68 28.63 62.97 C 28.58 84.65 28.63 106.33 28.63 128.01 C 28.29 132.54 32.47 136.50 36.96 136.13 C 60.31 136.17 83.67 136.11 107.02 136.09 C 110.90 136.49 114.96 133.83 115.59 129.88 C 116.27 119.98 115.27 109.99 116.08 100.10 C 119.12 93.87 128.58 95.81 133.72 98.28 C 143.06 104.65 152.10 111.45 161.39 117.90 C 161.41 103.15 161.52 88.40 161.34 73.65 C 155.42 77.39 150.16 82.18 144.01 85.51 C 138.80 87.11 134.93 79.50 139.27 76.28 C 147.29 70.27 155.51 64.53 163.68 58.74 C 166.93 56.11 172.20 58.83 172.08 62.96 C 172.28 84.66 172.18 106.36 172.13 128.06 C 172.64 132.57 166.87 135.49 163.47 132.61 C 151.11 123.85 138.84 114.96 126.49 106.18 C 126.44 114.11 126.67 122.05 126.39 129.98 C 125.84 139.20 117.33 147.12 108.05 146.75 C 84.02 146.74 59.98 146.74 35.95 146.71 C 26.54 146.87 18.09 138.46 18.08 129.08 C 18.02 107.04 18.08 84.99 18.08 62.95 Z" />
</g>
</svg>
