<?xml version="1.0" encoding="UTF-8" ?>
<!DOCTYPE svg PUBLIC "-//W3C//DTD SVG 1.1//EN" "http://www.w3.org/Graphics/SVG/1.1/DTD/svg11.dtd">
<svg width="192pt" height="192pt" viewBox="0 0 192 192" version="1.1" xmlns="http://www.w3.org/2000/svg">
<g id="#606f80ff">
<path fill="#606f80" opacity="1.00" d=" M 85.34 14.40 C 117.02 9.84 150.23 26.05 166.32 53.66 C 178.68 74.05 181.26 99.93 173.44 122.41 C 163.81 151.11 137.09 173.08 107.04 176.85 C 75.41 181.56 42.09 165.59 25.87 138.07 C 8.35 109.93 10.59 71.23 31.29 45.33 C 44.34 28.48 64.17 17.04 85.34 14.40 M 87.40 25.50 C 63.57 28.14 41.92 44.04 31.91 65.76 C 17.99 94.36 26.72 131.61 51.99 150.97 C 77.96 172.47 119.33 171.01 143.69 147.69 C 167.15 126.97 173.50 90.02 158.43 62.60 C 145.33 37.14 115.81 21.70 87.40 25.50 Z" />
<path fill="#606f80" opacity="1.00" d=" M 79.27 62.33 C 82.54 61.35 85.90 62.60 88.69 64.30 C 101.54 71.83 114.54 79.11 127.36 86.68 C 133.97 90.27 134.10 100.88 127.49 104.54 C 114.02 112.45 100.45 120.21 86.89 127.96 C 80.45 132.02 71.12 126.56 71.37 119.00 C 71.28 103.64 71.35 88.29 71.35 72.93 C 71.08 68.08 74.55 63.46 79.27 62.33 M 82.58 73.89 C 82.55 88.36 82.54 102.83 82.58 117.29 C 95.27 110.29 107.75 102.93 120.28 95.65 C 107.77 88.30 95.19 81.07 82.58 73.89 Z" />
</g>
</svg>
