<?xml version="1.0" encoding="UTF-8" ?>
<!DOCTYPE svg PUBLIC "-//W3C//DTD SVG 1.1//EN" "http://www.w3.org/Graphics/SVG/1.1/DTD/svg11.dtd">
<svg width="192pt" height="192pt" viewBox="0 0 192 192" version="1.1" xmlns="http://www.w3.org/2000/svg">
<g id="#52e769ff">
<path fill="#52e769" opacity="1.00" d=" M 73.85 19.31 C 74.07 17.05 73.74 13.09 77.10 13.38 C 89.01 13.31 100.93 13.27 112.84 13.40 C 116.06 13.33 115.52 17.21 115.77 19.35 C 121.51 19.61 127.26 19.25 133.00 19.43 C 140.01 19.56 146.41 25.91 146.22 32.99 C 146.24 45.33 146.23 57.67 146.22 70.01 C 146.40 73.70 144.30 77.53 140.76 78.85 C 124.78 84.60 105.30 84.52 91.50 73.56 C 81.63 65.59 67.65 65.19 56.03 68.99 C 54.29 70.41 54.98 73.04 54.79 75.00 C 55.09 103.55 54.36 132.14 55.17 160.66 C 80.73 160.71 106.30 160.69 131.86 160.55 C 133.40 160.79 134.86 159.50 134.72 157.92 C 134.92 136.61 134.57 115.28 134.89 93.98 C 134.87 87.10 146.18 87.10 146.15 93.97 C 146.30 116.32 146.27 138.68 146.17 161.03 C 146.27 167.39 140.27 172.55 134.04 172.13 C 108.36 172.11 82.67 172.17 56.98 172.21 C 49.79 172.66 43.07 166.32 43.44 159.06 C 43.45 117.02 43.43 74.98 43.42 32.95 C 43.27 25.81 49.83 19.37 56.93 19.41 C 62.57 19.23 68.21 19.64 73.85 19.31 M 55.29 31.28 C 54.34 39.87 55.06 48.55 54.88 57.18 C 69.33 53.55 85.85 54.57 97.91 64.08 C 108.12 72.43 122.61 72.65 134.66 68.70 C 134.83 56.84 134.86 44.96 134.67 33.11 C 134.67 30.20 130.95 30.83 129.00 30.73 C 104.44 31.24 79.79 30.13 55.29 31.28 Z" />
</g>
</svg>
