<?xml version="1.0" encoding="UTF-8" ?>
<!DOCTYPE svg PUBLIC "-//W3C//DTD SVG 1.1//EN" "http://www.w3.org/Graphics/SVG/1.1/DTD/svg11.dtd">
<svg width="192pt" height="192pt" viewBox="0 0 192 192" version="1.1" xmlns="http://www.w3.org/2000/svg">
<g id="#aa1dffff">
<path fill="#aa1dff" opacity="1.00" d=" M 134.63 18.57 C 137.41 12.93 146.88 16.92 144.75 22.88 C 135.84 43.61 126.18 64.03 117.07 84.69 C 130.20 91.01 143.67 96.67 156.65 103.26 C 161.72 106.79 156.85 115.66 151.12 112.89 C 122.15 99.57 93.19 86.19 64.30 72.70 C 58.12 70.43 61.46 60.01 67.90 62.16 C 80.97 67.82 93.79 74.11 106.79 79.96 C 116.15 59.53 125.18 38.94 134.63 18.57 Z" />
<path fill="#aa1dff" opacity="1.00" d=" M 54.02 78.01 C 55.11 74.85 59.07 73.35 61.98 74.99 C 91.34 88.63 120.69 102.28 150.02 115.97 C 153.33 117.07 155.03 121.08 153.31 124.17 C 146.57 138.79 140.04 153.52 133.05 168.03 C 127.04 179.44 107.33 177.02 104.47 164.43 C 103.54 157.02 107.27 149.98 108.28 142.71 C 101.65 147.23 95.34 152.22 88.73 156.77 C 85.48 159.03 81.08 159.14 77.57 157.40 C 65.72 151.92 53.88 146.39 42.06 140.84 C 34.59 137.50 31.03 127.81 34.53 120.42 C 40.98 106.26 47.52 92.14 54.02 78.01 M 61.57 88.14 C 56.23 100.51 50.30 112.63 44.83 124.94 C 43.71 127.15 44.90 129.94 47.21 130.78 C 59.05 136.30 70.84 141.93 82.77 147.26 C 90.73 141.41 98.68 135.51 106.75 129.82 C 112.59 125.75 121.44 131.00 120.84 138.02 C 119.62 146.27 116.77 154.20 115.33 162.41 C 117.82 164.25 122.18 165.24 123.66 161.67 C 129.46 149.21 135.21 136.72 140.85 124.19 C 116.77 112.94 92.67 101.75 68.60 90.50 C 66.33 89.52 64.15 87.99 61.57 88.14 Z" />
</g>
</svg>
