<?xml version="1.0" encoding="UTF-8" ?>
<!DOCTYPE svg PUBLIC "-//W3C//DTD SVG 1.1//EN" "http://www.w3.org/Graphics/SVG/1.1/DTD/svg11.dtd">
<svg width="192pt" height="192pt" viewBox="0 0 192 192" version="1.1" xmlns="http://www.w3.org/2000/svg">
<g id="#6e8ac7ff">
<path fill="#6e8ac7" opacity="1.00" d=" M 84.39 14.51 C 116.07 9.86 149.25 26.05 165.46 53.57 C 177.36 73.14 180.30 97.76 173.62 119.64 C 164.96 149.13 138.37 172.36 107.93 176.78 C 77.21 182.00 44.45 167.74 27.27 141.77 C 8.59 115.00 8.52 76.89 27.10 50.05 C 39.96 30.75 61.34 17.37 84.39 14.51 M 86.38 25.49 C 58.56 28.54 33.98 49.85 26.84 76.88 C 18.43 105.66 30.90 138.73 56.13 154.88 C 82.61 172.97 121.17 169.54 143.95 146.94 C 166.73 125.96 172.53 89.48 157.56 62.40 C 144.32 36.99 114.81 21.61 86.38 25.49 Z" />
<path fill="#6e8ac7" opacity="1.00" d=" M 79.30 61.38 C 84.01 60.01 89.24 60.92 93.21 63.80 C 103.13 70.51 113.19 77.05 123.03 83.89 C 131.24 89.69 131.01 103.24 122.69 108.82 C 112.10 115.90 101.65 123.21 90.90 130.03 C 81.47 135.31 68.49 127.87 68.16 117.11 C 67.90 103.73 68.12 90.34 68.08 76.95 C 67.84 70.01 72.59 63.28 79.30 61.38 M 82.29 72.38 C 79.97 73.13 79.33 75.79 79.48 77.95 C 79.55 90.65 79.41 103.35 79.56 116.04 C 79.35 119.44 83.81 121.47 86.40 119.40 C 96.19 112.89 105.98 106.35 115.67 99.71 C 118.38 98.19 118.23 94.01 115.54 92.56 C 106.38 86.34 97.16 80.19 87.99 73.98 C 86.31 72.92 84.37 71.44 82.29 72.38 Z" />
</g>
</svg>
