<?xml version="1.0" encoding="UTF-8" ?>
<!DOCTYPE svg PUBLIC "-//W3C//DTD SVG 1.1//EN" "http://www.w3.org/Graphics/SVG/1.1/DTD/svg11.dtd">
<svg width="192pt" height="192pt" viewBox="0 0 192 192" version="1.1" xmlns="http://www.w3.org/2000/svg">
<g id="#7ac2eaff">
<path fill="#7ac2ea" opacity="1.00" d=" M 122.48 34.45 C 132.00 25.17 145.86 20.66 159.02 22.77 C 161.67 23.32 165.57 23.16 166.67 26.24 C 169.70 37.53 168.45 50.19 162.24 60.22 C 157.59 67.70 150.79 73.45 144.82 79.83 C 128.91 96.29 112.27 112.08 96.70 128.85 C 100.37 133.80 109.82 137.95 106.23 145.25 C 96.85 155.63 78.56 154.73 69.71 144.02 C 61.88 151.43 54.43 159.26 46.56 166.64 C 40.83 171.95 30.94 170.95 26.06 164.96 C 21.21 159.57 21.30 150.62 26.39 145.42 C 31.19 140.55 36.07 135.76 40.98 131.00 C 43.81 127.67 50.05 129.60 50.37 134.01 C 50.91 138.59 46.04 141.00 43.46 144.03 C 45.02 145.66 46.61 147.27 48.21 148.87 C 52.58 144.58 56.95 140.28 61.24 135.92 C 56.07 129.73 49.98 124.37 44.73 118.25 C 37.15 108.92 37.58 93.09 47.42 85.53 C 54.21 82.99 57.70 91.01 62.12 94.55 C 82.05 74.33 102.21 54.33 122.48 34.45 M 130.82 41.82 C 110.53 61.68 90.48 81.78 70.31 101.77 C 72.16 103.66 74.05 105.53 75.99 107.33 C 85.53 98.08 94.67 88.41 104.28 79.24 C 108.91 74.90 116.25 82.32 111.93 86.96 C 102.74 96.49 93.25 105.75 83.92 115.14 C 85.49 117.00 87.16 118.77 88.91 120.46 C 109.07 100.10 129.30 79.81 149.28 59.28 C 155.80 52.53 158.50 42.59 156.82 33.42 C 147.46 32.45 137.58 35.06 130.82 41.82 M 50.53 98.81 C 49.03 103.23 50.00 108.28 53.38 111.58 C 62.28 120.68 71.35 129.62 80.47 138.50 C 83.70 141.76 88.63 143.00 92.98 141.44 C 78.83 127.23 65.08 112.58 50.53 98.81 M 34.33 153.25 C 30.82 154.80 34.41 159.17 37.00 159.42 C 41.23 158.23 37.52 152.18 34.33 153.25 Z" />
</g>
</svg>
