<?xml version="1.0" encoding="UTF-8" ?>
<!DOCTYPE svg PUBLIC "-//W3C//DTD SVG 1.1//EN" "http://www.w3.org/Graphics/SVG/1.1/DTD/svg11.dtd">
<svg width="192pt" height="192pt" viewBox="0 0 192 192" version="1.1" xmlns="http://www.w3.org/2000/svg">
<g id="#18aeffff">
<path fill="#18aeff" opacity="1.00" d=" M 89.36 21.36 C 92.68 19.33 96.99 19.66 100.20 21.76 C 112.02 29.00 123.59 36.64 135.21 44.20 C 144.73 38.79 153.99 32.90 163.58 27.61 C 167.48 25.39 172.69 28.55 172.64 32.99 C 172.84 40.94 172.82 48.92 172.67 56.88 C 172.48 62.05 167.22 64.19 163.49 66.59 C 162.91 72.83 165.93 81.38 159.45 85.41 C 147.20 92.84 134.78 99.98 122.51 107.38 C 124.10 110.48 126.19 115.09 122.64 117.73 C 116.13 121.87 109.31 125.53 102.97 129.96 C 97.97 133.48 91.03 133.44 86.06 129.90 C 79.66 125.49 72.78 121.86 66.19 117.79 C 62.51 115.16 64.67 110.45 66.27 107.27 C 53.83 99.83 41.28 92.57 28.90 85.05 C 22.59 80.81 26.77 72.13 24.84 66.29 C 21.33 63.92 16.42 61.84 16.22 56.91 C 16.08 48.93 16.12 40.94 16.18 32.96 C 16.03 28.30 21.61 24.96 25.62 27.44 C 34.96 32.68 44.04 38.41 53.30 43.81 C 65.30 36.29 77.19 28.59 89.36 21.36 M 64.24 50.25 C 72.54 55.38 81.01 60.24 89.32 65.37 C 92.62 63.66 96.42 63.63 99.75 65.31 C 107.92 60.40 116.17 55.60 124.33 50.64 C 114.39 44.13 104.49 37.57 94.32 31.44 C 84.29 37.71 74.21 43.89 64.24 50.25 M 27.41 41.53 C 27.42 45.86 27.38 50.19 27.37 54.52 C 30.76 56.63 35.27 58.35 36.26 62.69 C 36.99 67.32 36.28 72.05 36.68 76.72 C 50.25 84.63 63.82 92.57 77.21 100.78 C 80.95 103.28 79.13 108.07 77.27 111.16 C 81.73 113.87 86.30 116.40 90.59 119.38 C 92.32 120.52 94.55 122.17 96.57 120.59 C 101.53 117.32 106.54 114.13 111.66 111.12 C 109.83 107.79 108.12 102.59 112.32 100.27 C 125.57 92.34 138.86 84.45 152.19 76.65 C 152.50 71.97 151.80 67.22 152.59 62.59 C 153.58 58.38 157.89 56.58 161.30 54.70 C 161.58 50.45 161.42 46.20 161.39 41.95 C 142.14 53.19 123.08 64.78 103.78 75.94 C 100.05 78.60 95.80 75.35 91.87 76.86 C 89.08 77.82 86.20 76.64 83.81 75.21 C 65.07 63.89 46.22 52.74 27.41 41.53 Z" />
<path fill="#18aeff" opacity="1.00" d=" M 34.72 101.01 C 35.29 95.34 44.23 94.82 45.56 100.32 C 46.21 108.79 45.63 117.33 45.84 125.83 C 61.91 135.53 78.17 144.91 94.23 154.62 C 110.53 145.11 126.69 135.35 142.99 125.84 C 143.15 117.30 142.67 108.73 143.22 100.22 C 144.30 94.77 152.77 94.75 154.07 100.08 C 154.68 108.69 154.09 117.37 154.33 126.02 C 154.62 129.79 152.69 133.52 149.32 135.30 C 132.57 145.21 115.73 154.98 99.07 165.06 C 96.35 166.92 92.67 166.99 89.92 165.15 C 73.15 155.24 56.40 145.28 39.64 135.34 C 36.60 133.72 34.43 130.53 34.60 127.01 C 34.64 118.35 34.40 109.67 34.72 101.01 Z" />
</g>
</svg>
