<?xml version="1.0" encoding="UTF-8" ?>
<!DOCTYPE svg PUBLIC "-//W3C//DTD SVG 1.1//EN" "http://www.w3.org/Graphics/SVG/1.1/DTD/svg11.dtd">
<svg width="192pt" height="192pt" viewBox="0 0 192 192" version="1.1" xmlns="http://www.w3.org/2000/svg">
<g id="#60d494ff">
<path fill="#60d494" opacity="1.00" d=" M 62.38 15.40 C 66.78 13.31 71.84 18.42 69.80 22.84 C 53.64 70.94 37.56 119.09 21.22 167.13 C 18.90 173.82 7.91 169.67 10.67 163.08 C 26.62 115.29 42.80 67.58 58.82 19.83 C 59.40 17.98 60.43 16.08 62.38 15.40 Z" />
<path fill="#60d494" opacity="1.00" d=" M 108.97 26.24 C 102.80 26.16 101.99 16.24 108.10 15.25 C 129.41 14.85 150.76 15.18 172.08 15.07 C 176.26 14.46 179.98 19.02 178.08 22.95 C 167.02 54.89 155.90 86.82 144.80 118.76 C 144.09 121.77 141.02 123.41 138.07 123.14 C 109.35 123.09 80.64 123.20 51.93 123.09 C 47.90 123.42 44.61 119.06 46.30 115.32 C 53.63 94.99 60.94 74.65 68.44 54.39 C 70.57 48.18 80.95 51.53 78.96 57.86 C 72.69 75.89 65.98 93.77 59.52 111.73 C 84.80 111.84 110.10 111.88 135.38 111.71 C 145.13 83.20 155.22 54.80 164.96 26.28 C 146.30 26.29 127.63 26.39 108.97 26.24 Z" />
<path fill="#60d494" opacity="1.00" d=" M 110.98 44.30 C 105.65 43.10 105.75 34.39 111.18 33.50 C 122.77 33.12 134.40 33.39 146.01 33.32 C 150.24 32.86 153.31 37.71 151.48 41.44 C 144.67 61.32 137.87 81.19 130.99 101.04 C 130.20 104.10 126.93 105.28 124.06 105.14 C 108.74 104.58 93.39 105.03 78.07 104.76 C 74.15 104.74 71.98 99.92 73.71 96.64 C 77.81 85.72 81.44 74.60 85.83 63.80 C 88.70 58.65 97.55 62.20 95.82 67.96 C 93.18 76.65 89.66 85.07 86.72 93.67 C 98.35 93.82 109.98 93.73 121.61 93.72 C 127.15 77.29 133.11 61.00 138.36 44.48 C 129.24 44.34 120.09 44.69 110.98 44.30 Z" />
</g>
</svg>
