<?xml version="1.0" encoding="UTF-8" ?>
<!DOCTYPE svg PUBLIC "-//W3C//DTD SVG 1.1//EN" "http://www.w3.org/Graphics/SVG/1.1/DTD/svg11.dtd">
<svg width="192pt" height="192pt" viewBox="0 0 192 192" version="1.1" xmlns="http://www.w3.org/2000/svg">
<g id="#44c1daff">
<path fill="#44c1da" opacity="1.00" d=" M 43.68 49.81 C 46.19 49.76 48.71 49.75 51.22 49.82 C 51.58 53.45 51.58 57.11 51.47 60.75 C 55.63 59.02 60.45 58.82 64.70 60.32 C 68.81 62.05 68.95 67.17 69.07 70.97 C 68.94 77.76 69.56 84.60 68.54 91.35 C 66.12 91.28 63.67 91.30 61.31 90.74 C 60.11 82.81 62.17 74.57 60.19 66.78 C 57.47 65.28 51.62 64.88 51.63 69.19 C 51.21 76.14 51.89 83.12 51.37 90.07 C 49.48 92.42 46.06 90.80 43.52 90.77 C 43.41 77.12 43.11 63.45 43.68 49.81 Z" />
<path fill="#44c1da" opacity="1.00" d=" M 106.32 53.26 C 108.74 52.55 111.29 52.83 113.78 52.89 C 113.95 55.16 114.06 57.43 114.13 59.70 C 119.16 58.57 122.27 61.21 120.58 66.28 C 118.42 66.30 116.26 66.29 114.10 66.28 C 114.11 72.43 113.98 78.59 114.20 84.74 C 116.38 84.95 118.57 85.13 120.76 85.39 C 120.34 87.37 121.98 91.14 118.99 91.31 C 114.83 91.52 108.02 92.95 106.48 87.68 C 105.44 80.63 106.24 73.45 105.95 66.34 C 104.58 66.33 103.21 66.21 101.85 66.00 C 101.84 64.04 101.81 62.08 101.86 60.12 C 103.21 59.96 104.57 59.81 105.93 59.69 C 105.97 57.54 105.97 55.39 106.32 53.26 Z" />
<path fill="#44c1da" opacity="1.00" d=" M 20.70 61.35 C 26.28 57.81 37.67 58.03 38.56 66.34 C 39.04 72.42 39.04 78.58 38.56 84.67 C 37.76 92.84 26.41 93.24 21.01 89.55 C 21.34 93.50 21.23 97.47 20.61 101.39 C 18.19 101.28 15.69 101.54 13.35 100.75 C 12.64 87.87 13.11 74.89 13.11 61.99 C 12.70 58.75 17.09 60.26 19.07 59.64 C 19.48 60.07 20.29 60.92 20.70 61.35 M 22.34 66.45 C 19.97 70.76 21.53 76.28 21.21 81.06 C 20.46 85.90 27.41 86.01 30.02 83.97 C 31.57 79.26 30.68 74.00 30.65 69.09 C 30.63 64.91 25.08 65.46 22.34 66.45 Z" />
<path fill="#44c1da" opacity="1.00" d=" M 81.41 59.63 C 87.76 58.94 98.35 58.30 99.15 66.98 C 99.14 74.04 100.92 81.95 97.48 88.43 C 92.56 93.09 84.44 91.89 78.38 90.53 C 71.85 87.43 73.97 78.83 73.55 73.00 C 73.01 67.47 74.50 59.83 81.41 59.63 M 82.36 66.35 C 81.35 71.50 81.45 76.79 81.80 82.00 C 81.99 86.13 87.68 85.44 90.37 84.34 C 92.27 79.57 91.15 74.04 91.19 68.99 C 90.95 64.47 85.33 66.09 82.36 66.35 Z" />
<path fill="#44c1da" opacity="1.00" d=" M 131.43 59.70 C 136.45 59.30 142.14 58.58 146.64 61.35 C 151.07 65.26 149.49 71.78 149.82 76.99 C 149.87 81.79 150.28 88.71 144.70 90.67 C 139.28 91.98 133.13 92.28 127.89 90.11 C 122.39 86.35 124.41 78.66 123.96 73.00 C 123.49 67.64 124.72 60.10 131.43 59.70 M 133.33 66.45 C 130.87 70.70 132.46 76.30 132.15 81.07 C 131.25 86.77 142.66 86.72 141.70 81.01 C 141.68 76.33 142.28 71.50 141.11 66.92 C 138.86 65.35 135.80 65.56 133.33 66.45 Z" />
<path fill="#44c1da" opacity="1.00" d=" M 157.59 60.52 C 161.93 58.88 166.80 59.19 171.31 59.82 C 175.81 60.41 178.14 65.70 176.70 69.71 C 174.57 70.28 172.34 70.07 170.17 70.00 C 170.54 63.44 158.58 64.13 162.10 70.78 C 166.59 73.11 172.34 72.38 176.33 75.73 C 179.71 81.17 178.16 91.83 170.02 91.46 C 162.82 93.14 152.06 90.37 154.63 80.90 C 156.84 80.89 159.05 80.90 161.27 80.96 C 161.65 85.89 165.98 85.97 169.89 85.14 C 172.67 74.36 155.34 81.08 154.10 71.94 C 153.59 68.01 153.48 62.59 157.59 60.52 Z" />
<path fill="#44c1da" opacity="1.00" d=" M 145.45 111.53 C 150.04 105.34 159.00 104.90 166.08 105.18 C 169.04 105.73 174.18 105.19 174.62 109.19 C 175.01 117.40 171.87 125.84 166.25 131.85 C 165.59 131.40 164.26 130.51 163.59 130.06 C 165.28 124.23 167.45 118.34 166.65 112.15 C 159.62 111.14 152.51 111.97 145.45 111.53 Z" />
<path fill="#44c1da" opacity="1.00" d=" M 13.70 108.13 C 20.18 110.36 26.12 113.84 32.36 116.63 C 67.05 131.51 107.17 133.99 143.15 122.23 C 149.03 120.12 154.91 117.80 161.18 117.19 C 159.99 119.53 158.85 122.10 156.48 123.49 C 114.91 150.30 56.25 146.42 18.53 114.42 C 16.47 112.71 15.09 110.38 13.70 108.13 Z" />
</g>
</svg>
