<?xml version="1.0" encoding="UTF-8" ?>
<!DOCTYPE svg PUBLIC "-//W3C//DTD SVG 1.1//EN" "http://www.w3.org/Graphics/SVG/1.1/DTD/svg11.dtd">
<svg width="192pt" height="192pt" viewBox="0 0 192 192" version="1.1" xmlns="http://www.w3.org/2000/svg">
<g id="#1ab1ffff">
<path fill="#1ab1ff" opacity="1.00" d=" M 44.12 32.91 C 44.54 23.85 53.03 16.38 62.03 16.70 C 84.68 16.66 107.34 16.65 129.99 16.70 C 138.97 16.42 147.40 23.92 147.80 32.96 C 147.91 37.53 148.22 42.16 147.59 46.70 C 146.29 51.06 139.61 51.57 137.66 47.44 C 136.03 42.57 137.79 37.25 136.61 32.27 C 135.63 29.09 132.21 27.34 129.00 27.64 C 106.66 27.67 84.31 27.59 61.97 27.66 C 58.45 27.47 55.06 30.38 55.01 33.96 C 54.62 40.43 54.98 46.92 54.88 53.39 C 81.25 53.44 107.62 53.39 133.99 53.39 C 140.96 53.42 148.19 52.59 154.85 55.15 C 166.78 59.18 175.27 71.39 174.87 83.99 C 174.66 101.20 175.31 118.46 174.55 135.64 C 172.68 147.99 158.85 151.89 148.11 150.06 C 149.71 160.43 144.48 172.94 132.99 174.31 C 109.35 174.88 85.67 174.39 62.02 174.54 C 52.92 174.92 44.41 167.21 44.07 158.09 C 43.79 145.71 44.09 133.31 44.00 120.93 C 43.54 117.47 46.47 114.27 49.99 114.64 C 80.32 114.55 110.67 114.62 141.00 114.58 C 143.93 114.27 147.42 115.84 147.75 119.08 C 148.19 125.68 147.79 132.31 147.93 138.93 C 153.28 138.74 161.91 140.98 163.66 133.89 C 164.33 117.27 163.80 100.58 163.93 83.94 C 164.39 73.68 155.39 64.18 145.06 64.43 C 112.35 64.41 79.64 64.42 46.94 64.41 C 37.01 64.10 27.86 72.97 28.09 82.95 C 28.03 98.64 28.13 114.33 28.04 130.02 C 28.07 132.45 27.94 135.29 29.93 137.08 C 32.42 139.85 37.32 138.22 39.36 141.59 C 41.58 144.62 39.56 149.23 35.96 149.92 C 26.42 151.04 17.17 142.67 17.11 133.08 C 17.02 116.03 17.02 98.97 17.14 81.92 C 17.50 67.48 29.71 54.92 43.98 53.50 C 44.16 46.64 43.88 39.77 44.12 32.91 M 54.91 125.60 C 54.96 136.09 54.72 146.59 55.01 157.07 C 54.98 160.75 58.37 163.76 61.99 163.56 C 84.34 163.65 106.70 163.57 129.05 163.58 C 132.90 164.01 136.94 161.12 136.92 157.07 C 137.07 146.58 137.01 136.08 136.91 125.59 C 109.58 125.63 82.24 125.57 54.91 125.60 Z" />
<path fill="#1ab1ff" opacity="1.00" d=" M 47.30 78.36 C 70.79 77.28 94.48 78.06 118.04 77.96 C 124.47 77.58 125.31 88.15 118.89 88.68 C 95.60 88.96 72.26 88.85 48.96 88.71 C 43.46 88.75 42.19 80.13 47.30 78.36 Z" />
<path fill="#1ab1ff" opacity="1.00" d=" M 140.29 78.33 C 146.86 75.16 151.19 86.31 144.41 88.50 C 138.01 91.24 133.86 80.77 140.29 78.33 Z" />
<path fill="#1ab1ff" opacity="1.00" d=" M 72.27 139.38 C 87.48 138.64 102.81 139.10 118.06 139.11 C 124.43 138.83 125.33 149.21 118.96 149.91 C 105.33 150.42 91.66 149.92 78.01 150.15 C 75.03 150.07 71.15 150.55 69.35 147.56 C 67.32 144.74 68.89 140.26 72.27 139.38 Z" />
</g>
</svg>
