<?xml version="1.0" encoding="UTF-8" ?>
<!DOCTYPE svg PUBLIC "-//W3C//DTD SVG 1.1//EN" "http://www.w3.org/Graphics/SVG/1.1/DTD/svg11.dtd">
<svg width="192pt" height="192pt" viewBox="0 0 192 192" version="1.1" xmlns="http://www.w3.org/2000/svg">
<g id="#4970c2ff">
<path fill="#4970c2" opacity="1.00" d=" M 84.37 13.46 C 116.08 8.73 149.41 24.70 165.83 52.18 C 178.66 72.84 181.36 99.27 173.36 122.19 C 163.67 150.85 137.01 172.93 106.94 176.77 C 76.30 181.47 43.96 166.90 26.99 141.00 C 8.15 113.67 8.56 74.86 27.92 47.91 C 40.89 29.27 61.81 16.36 84.37 13.46 M 87.36 24.45 C 63.97 26.94 42.49 41.98 31.99 63.00 C 20.99 84.28 21.92 111.14 34.40 131.60 C 49.10 156.85 80.34 170.93 108.99 164.90 C 139.16 159.48 163.74 132.52 166.20 101.93 C 168.67 78.58 158.48 54.45 140.11 39.86 C 125.53 27.84 106.09 22.36 87.36 24.45 Z" />
<path fill="#4970c2" opacity="1.00" d=" M 90.35 52.42 C 104.04 50.72 118.37 56.13 127.47 66.51 C 137.03 76.96 140.77 92.33 137.07 106.01 C 133.13 121.54 119.78 134.26 104.01 137.25 C 90.01 140.31 74.72 135.50 64.78 125.23 C 53.22 113.71 49.30 95.37 55.16 80.13 C 60.54 65.30 74.66 54.19 90.35 52.42 M 92.41 63.55 C 75.22 64.80 61.39 81.97 63.98 99.04 C 65.66 115.02 80.99 128.02 97.07 126.75 C 113.77 126.31 128.16 110.72 127.09 94.01 C 127.02 76.36 109.90 61.43 92.41 63.55 Z" />
</g>
</svg>
