<?xml version="1.0" encoding="UTF-8" ?>
<!DOCTYPE svg PUBLIC "-//W3C//DTD SVG 1.1//EN" "http://www.w3.org/Graphics/SVG/1.1/DTD/svg11.dtd">
<svg width="192pt" height="192pt" viewBox="0 0 192 192" version="1.1" xmlns="http://www.w3.org/2000/svg">
<g id="#833997ff">
<path fill="#833997" opacity="1.00" d=" M 35.95 27.97 C 39.56 19.34 48.66 13.44 58.02 13.70 C 83.00 13.69 107.98 13.63 132.95 13.72 C 144.93 13.62 155.78 23.98 156.13 35.96 C 156.12 56.98 156.28 78.02 156.05 99.03 C 155.14 104.83 145.80 104.78 145.01 98.98 C 144.59 78.31 145.04 57.60 144.80 36.91 C 144.71 30.75 139.30 25.07 133.06 25.15 C 107.69 25.16 82.31 25.13 56.94 25.16 C 50.76 25.12 45.52 30.84 45.45 36.91 C 45.34 57.68 45.44 78.46 45.40 99.23 C 53.29 91.84 60.63 83.88 68.31 76.28 C 70.49 73.87 74.43 74.15 76.52 76.54 C 85.10 85.02 93.68 93.51 102.15 102.10 C 106.66 98.68 110.07 94.05 114.46 90.50 C 116.61 88.80 119.79 89.53 121.57 91.43 C 132.47 102.20 143.31 113.06 154.19 123.86 C 156.69 126.19 156.02 129.93 156.18 133.00 C 155.95 141.01 156.53 149.05 155.85 157.04 C 154.83 168.32 144.37 177.81 133.04 177.67 C 107.68 177.71 82.31 177.72 56.94 177.65 C 45.01 177.65 34.28 167.01 34.27 155.06 C 34.37 148.84 33.92 142.57 34.51 136.39 C 36.09 131.31 44.03 131.86 45.14 136.97 C 45.64 142.97 45.12 149.01 45.37 155.03 C 45.44 161.44 51.56 167.01 57.94 166.64 C 82.97 166.63 107.99 166.67 133.02 166.61 C 139.20 166.63 144.64 161.17 144.92 155.05 C 145.30 147.37 145.19 139.65 144.99 131.96 C 145.10 129.80 143.08 128.61 141.81 127.19 C 133.55 119.24 125.65 110.90 117.25 103.10 C 113.55 106.79 109.96 110.59 106.13 114.14 C 104.05 116.40 100.19 116.01 98.21 113.80 C 89.47 105.31 81.02 96.53 72.21 88.11 C 62.62 97.90 53.15 107.82 43.36 117.41 C 40.08 120.64 33.76 117.70 34.25 113.05 C 33.66 91.38 34.16 69.68 33.99 48.00 C 34.20 41.32 33.09 34.27 35.95 27.97 Z" />
<path fill="#833997" opacity="1.00" d=" M 117.39 43.52 C 124.07 41.95 131.41 46.43 133.08 53.08 C 135.01 59.46 131.27 66.91 124.93 69.05 C 117.23 72.57 107.38 66.39 106.84 58.02 C 105.90 51.38 110.85 44.73 117.39 43.52 Z" />
</g>
</svg>
