<?xml version="1.0" encoding="UTF-8" ?>
<!DOCTYPE svg PUBLIC "-//W3C//DTD SVG 1.1//EN" "http://www.w3.org/Graphics/SVG/1.1/DTD/svg11.dtd">
<svg width="192pt" height="192pt" viewBox="0 0 192 192" version="1.1" xmlns="http://www.w3.org/2000/svg">
<g id="#8e4cdcff">
<path fill="#8e4cdc" opacity="1.00" d=" M 91.35 13.43 C 96.66 12.27 102.33 13.23 106.99 16.00 C 124.32 26.04 141.66 36.05 158.97 46.10 C 165.65 49.84 169.98 57.30 169.88 64.96 C 169.94 84.98 169.90 105.00 169.91 125.02 C 170.14 132.73 165.99 140.42 159.24 144.23 C 141.75 154.43 124.22 164.56 106.69 174.68 C 99.98 178.63 91.24 178.43 84.63 174.36 C 67.33 164.33 50.01 154.34 32.73 144.27 C 25.98 140.41 21.79 132.76 21.99 125.01 C 21.99 105.00 21.98 84.99 22.01 64.98 C 21.93 57.27 26.30 49.80 33.03 46.06 C 49.89 36.23 66.81 26.51 83.67 16.69 C 86.08 15.30 88.61 14.03 91.35 13.43 M 93.40 24.58 C 75.27 34.04 57.86 44.98 40.03 55.03 C 36.23 56.82 33.12 60.54 33.35 64.93 C 33.30 84.97 33.34 105.01 33.33 125.06 C 33.07 129.14 35.44 133.01 39.04 134.87 C 56.15 144.78 73.27 154.68 90.38 164.59 C 93.74 166.76 98.22 166.68 101.58 164.54 C 118.67 154.65 135.75 144.74 152.84 134.85 C 156.43 132.99 158.80 129.14 158.59 125.06 C 158.62 105.36 158.60 85.66 158.61 65.96 C 158.84 61.90 156.85 57.76 153.18 55.85 C 136.11 45.94 119.01 36.05 101.94 26.14 C 99.41 24.57 96.32 23.79 93.40 24.58 Z" />
<path fill="#8e4cdc" opacity="1.00" d=" M 101.24 70.13 C 101.99 65.42 107.50 66.49 110.90 67.12 C 105.01 84.68 97.53 101.70 91.05 119.06 C 90.22 123.40 85.08 121.46 81.95 121.79 C 86.85 104.14 95.10 87.44 101.24 70.13 Z" />
<path fill="#8e4cdc" opacity="1.00" d=" M 50.69 88.69 C 59.93 82.78 69.65 77.57 79.22 72.20 C 81.03 76.35 82.27 83.89 76.98 86.00 C 71.84 88.69 66.76 91.51 61.62 94.19 C 67.01 98.91 74.47 100.62 79.89 105.24 C 80.96 108.94 80.90 113.20 79.59 116.87 C 70.67 112.56 62.34 107.11 53.63 102.39 C 48.20 100.38 49.03 92.94 50.69 88.69 Z" />
<path fill="#8e4cdc" opacity="1.00" d=" M 115.71 86.23 C 110.08 84.17 111.54 76.71 112.81 72.19 C 122.56 77.31 132.10 82.87 141.53 88.54 C 143.69 91.48 142.28 95.77 142.48 99.26 C 132.65 105.12 122.91 111.59 112.38 116.03 C 111.93 112.33 111.05 108.20 112.77 104.73 C 118.57 100.80 125.22 98.27 131.06 94.37 C 125.90 91.74 120.84 88.93 115.71 86.23 Z" />
</g>
</svg>
