<?xml version="1.0" encoding="UTF-8" ?>
<!DOCTYPE svg PUBLIC "-//W3C//DTD SVG 1.1//EN" "http://www.w3.org/Graphics/SVG/1.1/DTD/svg11.dtd">
<svg width="192pt" height="192pt" viewBox="0 0 192 192" version="1.1" xmlns="http://www.w3.org/2000/svg">
<g id="#18aeffff">
<path fill="#18aeff" opacity="1.00" d=" M 75.21 28.26 C 77.25 23.16 82.49 19.64 88.00 19.76 C 107.66 19.80 127.33 19.56 146.99 19.87 C 158.93 20.09 170.82 28.77 172.37 41.04 C 174.60 55.42 166.14 68.10 160.72 80.72 C 155.17 92.24 150.70 105.12 140.31 113.32 C 123.13 126.99 99.96 121.33 79.79 122.63 C 73.49 135.74 67.74 149.12 61.17 162.09 C 55.41 171.66 42.80 171.39 33.12 169.95 C 22.49 167.61 16.15 154.69 20.84 144.86 C 38.88 105.96 57.10 67.13 75.21 28.26 M 86.40 31.42 C 67.81 70.25 49.90 109.45 31.60 148.44 C 28.61 152.98 32.51 159.67 37.95 159.19 C 42.58 158.95 49.00 160.65 51.75 155.72 C 58.35 142.23 64.43 128.48 70.90 114.93 C 71.73 112.88 73.73 111.39 75.98 111.40 C 86.98 111.12 97.99 111.33 109.00 111.32 C 116.57 111.25 124.54 110.29 131.01 106.04 C 137.39 101.99 141.37 95.27 144.52 88.60 C 149.12 78.81 153.73 69.02 158.14 59.14 C 160.76 53.11 162.76 46.05 160.30 39.64 C 157.69 33.36 150.37 30.78 144.00 31.11 C 124.81 31.32 105.55 30.70 86.40 31.42 Z" />
<path fill="#18aeff" opacity="1.00" d=" M 104.40 45.49 C 110.45 44.19 116.82 45.38 123.00 44.98 C 127.90 44.63 134.62 45.22 136.23 50.88 C 137.98 58.47 132.39 65.03 129.78 71.73 C 125.28 79.58 123.46 90.30 114.61 94.60 C 106.72 97.36 98.11 95.71 89.92 96.04 C 85.63 96.65 81.24 92.49 83.19 88.17 C 88.86 75.60 94.89 63.18 100.60 50.62 C 101.55 48.73 102.34 46.46 104.40 45.49 M 110.41 56.29 C 106.07 65.77 101.69 75.23 97.23 84.66 C 102.38 84.03 110.22 87.14 112.84 80.93 C 116.79 72.77 120.69 64.57 124.50 56.34 C 119.80 56.31 115.11 56.30 110.41 56.29 Z" />
</g>
</svg>
