<?xml version="1.0" encoding="UTF-8" ?>
<!DOCTYPE svg PUBLIC "-//W3C//DTD SVG 1.1//EN" "http://www.w3.org/Graphics/SVG/1.1/DTD/svg11.dtd">
<svg width="192pt" height="192pt" viewBox="0 0 192 192" version="1.1" xmlns="http://www.w3.org/2000/svg">
<g id="#8492a2ff">
<path fill="#8492a2" opacity="1.00" d=" M 81.33 16.32 C 97.83 12.30 116.18 15.90 129.65 26.32 C 143.83 37.23 152.14 55.15 151.72 72.99 C 151.77 103.67 151.78 134.34 151.68 165.02 C 151.85 171.33 146.27 176.69 140.00 176.49 C 110.34 176.59 80.67 176.58 51.00 176.50 C 44.75 176.71 39.19 171.37 39.29 165.09 C 39.20 151.76 39.12 138.42 39.33 125.11 C 39.69 118.86 49.80 118.79 50.34 125.01 C 50.68 138.32 50.42 151.65 50.45 164.97 C 80.44 165.51 110.46 165.16 140.46 165.14 C 140.56 147.15 140.54 129.16 140.46 111.17 C 129.33 119.50 118.18 127.82 106.91 135.95 C 100.49 140.78 91.20 141.01 84.64 136.34 C 71.62 127.08 58.79 117.54 45.90 108.10 C 41.12 104.71 38.89 98.75 39.12 93.03 C 39.21 81.34 38.84 69.54 40.87 57.98 C 45.68 38.27 61.49 21.30 81.33 16.32 M 71.06 33.12 C 59.33 41.06 51.10 54.66 50.84 68.97 C 50.38 77.65 50.25 86.36 50.49 95.04 C 50.40 97.61 52.72 99.12 54.53 100.50 C 66.72 109.28 78.72 118.33 90.99 127.00 C 94.37 129.49 98.83 128.30 101.80 125.78 C 114.67 116.14 127.77 106.81 140.47 96.95 C 140.54 88.30 140.56 79.66 140.45 71.01 C 140.31 54.86 131.05 38.90 116.65 31.37 C 102.59 24.01 84.35 24.01 71.06 33.12 Z" />
<path fill="#8492a2" opacity="1.00" d=" M 89.28 43.30 C 100.55 40.49 113.04 46.06 119.58 55.43 C 124.41 62.20 124.71 70.97 123.75 78.93 C 123.55 81.24 121.30 83.00 119.02 82.79 C 103.34 82.86 87.65 82.85 71.97 82.80 C 69.32 83.07 66.98 80.68 67.08 78.06 C 66.84 71.31 66.42 64.03 69.93 57.96 C 74.12 50.80 81.31 45.50 89.28 43.30 Z" />
</g>
</svg>
