<?xml version="1.0" encoding="UTF-8" ?>
<!DOCTYPE svg PUBLIC "-//W3C//DTD SVG 1.1//EN" "http://www.w3.org/Graphics/SVG/1.1/DTD/svg11.dtd">
<svg width="192pt" height="192pt" viewBox="0 0 192 192" version="1.1" xmlns="http://www.w3.org/2000/svg">
<g id="#4a70c3ff">
<path fill="#4a70c3" opacity="1.00" d=" M 62.85 21.22 C 63.74 13.86 74.02 13.93 74.98 21.22 C 88.35 21.26 101.71 21.23 115.08 21.20 C 115.68 15.60 123.71 13.14 126.24 18.73 C 127.33 25.72 126.57 32.96 126.67 40.04 C 126.81 44.33 121.02 46.94 117.82 44.14 C 114.29 41.35 115.82 36.32 115.47 32.44 C 101.82 32.44 88.17 32.44 74.52 32.43 C 74.68 37.09 75.59 44.92 69.02 45.28 C 62.31 45.14 63.08 37.20 63.34 32.52 C 56.56 32.42 49.77 32.29 43.00 32.52 C 36.33 32.90 31.28 39.47 31.74 45.98 C 31.77 79.32 31.74 112.67 31.81 146.01 C 31.39 152.77 37.05 159.26 43.95 159.10 C 77.98 159.15 112.02 159.09 146.05 159.05 C 152.91 159.24 158.68 152.76 158.16 146.01 C 158.17 112.33 158.23 78.65 158.18 44.98 C 158.38 38.78 153.21 32.93 146.99 32.56 C 143.75 32.18 140.33 32.95 137.21 31.88 C 133.51 30.22 132.96 24.58 136.36 22.30 C 150.51 17.06 168.72 27.19 169.28 43.01 C 169.55 77.66 169.36 112.32 169.39 146.98 C 169.65 159.47 158.48 170.66 145.98 170.40 C 112.00 170.41 78.00 170.41 44.02 170.38 C 31.55 170.58 20.48 159.43 20.71 146.98 C 20.68 112.99 20.70 79.00 20.72 45.01 C 20.42 33.43 29.79 22.57 41.37 21.47 C 48.51 20.97 55.69 21.41 62.85 21.22 Z" />
<path fill="#4a70c3" opacity="1.00" d=" M 99.95 70.97 C 103.10 69.45 111.55 68.23 110.66 73.94 C 110.69 83.87 110.67 93.79 110.68 103.71 C 118.22 101.59 118.26 115.52 110.72 113.40 C 110.70 116.03 110.94 118.71 110.35 121.30 C 107.60 122.85 104.18 122.16 101.17 121.95 C 98.76 119.81 100.19 116.00 99.76 113.13 C 92.57 113.01 85.35 113.48 78.19 112.93 C 75.40 110.30 77.04 105.71 78.97 102.98 C 86.08 92.39 92.62 81.39 99.95 70.97 M 89.30 103.87 C 92.81 103.95 96.33 104.00 99.84 104.00 C 99.87 98.54 99.81 93.09 99.72 87.63 C 96.28 93.06 92.91 98.55 89.30 103.87 Z" />
</g>
</svg>
