<?xml version="1.0" encoding="UTF-8" ?>
<!DOCTYPE svg PUBLIC "-//W3C//DTD SVG 1.1//EN" "http://www.w3.org/Graphics/SVG/1.1/DTD/svg11.dtd">
<svg width="192pt" height="192pt" viewBox="0 0 192 192" version="1.1" xmlns="http://www.w3.org/2000/svg">
<g id="#4970c2ff">
<path fill="#4970c2" opacity="1.00" d=" M 62.90 21.22 C 63.65 13.84 74.12 13.93 74.95 21.22 C 88.34 21.25 101.72 21.22 115.11 21.21 C 115.62 15.56 123.73 13.16 126.24 18.72 C 127.33 25.71 126.55 32.95 126.68 40.03 C 126.82 44.32 121.01 46.96 117.82 44.14 C 114.27 41.36 115.83 36.32 115.48 32.44 C 101.82 32.44 88.17 32.44 74.52 32.43 C 74.69 37.10 75.59 44.91 69.02 45.29 C 62.12 45.10 63.35 37.06 63.10 32.33 C 56.41 32.62 49.70 32.23 43.01 32.51 C 36.76 32.89 31.70 38.77 31.78 44.96 C 31.72 78.64 31.77 112.33 31.81 146.01 C 31.38 152.77 37.06 159.26 43.95 159.10 C 77.98 159.14 112.02 159.09 146.06 159.05 C 152.90 159.24 158.69 152.75 158.16 146.00 C 158.17 112.33 158.22 78.65 158.18 44.98 C 158.41 38.43 152.63 32.40 146.06 32.49 C 142.55 32.05 138.13 33.58 135.47 30.53 C 133.26 28.20 133.74 24.13 136.36 22.31 C 150.50 17.05 168.72 27.19 169.29 43.01 C 169.54 77.66 169.36 112.32 169.40 146.98 C 169.65 159.47 158.48 170.66 145.98 170.40 C 112.00 170.41 78.00 170.41 44.02 170.38 C 31.56 170.58 20.48 159.43 20.71 146.98 C 20.68 112.99 20.70 79.00 20.72 45.01 C 20.42 33.43 29.79 22.57 41.37 21.47 C 48.53 20.98 55.72 21.41 62.90 21.22 Z" />
<path fill="#4970c2" opacity="1.00" d=" M 85.37 70.44 C 92.58 68.34 100.53 68.51 107.82 70.07 C 114.02 71.49 115.46 78.58 115.24 84.02 C 114.96 94.25 115.94 104.57 114.63 114.73 C 113.89 119.65 109.20 122.52 104.54 122.82 C 98.50 123.36 92.14 123.73 86.32 121.72 C 80.73 119.81 79.28 112.70 80.57 107.59 C 83.51 106.55 86.77 106.90 89.82 107.23 C 91.46 109.29 90.66 113.38 94.10 113.78 C 97.26 114.05 101.79 114.93 103.76 111.71 C 104.89 107.99 104.17 104.01 104.34 100.18 C 98.53 103.18 91.41 102.67 85.31 100.87 C 78.94 98.49 78.95 90.66 79.16 85.01 C 78.86 79.66 79.46 72.54 85.37 70.44 M 93.24 78.30 C 88.54 79.31 89.92 85.49 89.99 89.01 C 90.33 94.01 96.57 93.16 100.07 92.93 C 105.56 92.63 104.50 85.79 104.23 82.00 C 103.58 76.76 96.93 78.15 93.24 78.30 Z" />
</g>
</svg>
