<?xml version="1.0" encoding="UTF-8" ?>
<!DOCTYPE svg PUBLIC "-//W3C//DTD SVG 1.1//EN" "http://www.w3.org/Graphics/SVG/1.1/DTD/svg11.dtd">
<svg width="192pt" height="192pt" viewBox="0 0 192 192" version="1.1" xmlns="http://www.w3.org/2000/svg">
<g id="#4970c2ff">
<path fill="#4970c2" opacity="1.00" d=" M 62.92 21.22 C 63.62 13.82 74.16 13.94 74.95 21.23 C 88.34 21.25 101.72 21.21 115.11 21.22 C 115.60 15.56 123.74 13.16 126.25 18.73 C 127.33 25.71 126.54 32.95 126.68 40.03 C 126.82 44.32 121.01 46.96 117.82 44.13 C 114.26 41.36 115.84 36.32 115.48 32.44 C 101.83 32.43 88.17 32.44 74.51 32.43 C 74.68 37.11 75.60 44.91 69.02 45.29 C 62.06 45.09 63.43 37.04 63.06 32.30 C 56.38 32.64 49.68 32.22 43.00 32.51 C 36.75 32.90 31.69 38.78 31.78 44.97 C 31.73 78.64 31.77 112.33 31.81 146.01 C 31.38 152.77 37.07 159.26 43.96 159.11 C 77.99 159.14 112.02 159.09 146.05 159.05 C 152.90 159.25 158.70 152.75 158.16 146.00 C 158.17 112.33 158.22 78.65 158.18 44.98 C 158.41 38.43 152.63 32.41 146.06 32.48 C 142.03 32.27 136.09 33.65 134.39 28.70 C 132.44 23.46 138.45 20.05 142.99 21.16 C 156.21 19.71 169.30 30.53 169.35 44.02 C 169.46 78.34 169.40 112.66 169.40 146.97 C 169.63 159.09 159.11 170.10 146.99 170.37 C 112.67 170.47 78.34 170.38 44.02 170.38 C 31.56 170.58 20.48 159.43 20.71 146.98 C 20.68 112.99 20.70 79.00 20.72 45.02 C 20.41 33.43 29.79 22.57 41.37 21.46 C 48.54 20.99 55.74 21.41 62.92 21.22 Z" />
<path fill="#4970c2" opacity="1.00" d=" M 80.25 70.26 C 91.03 70.06 101.88 69.73 112.65 70.35 C 113.26 73.90 113.45 77.64 112.15 81.07 C 107.63 93.86 103.11 106.65 98.63 119.46 C 97.20 124.05 91.33 121.53 87.82 122.12 C 87.24 120.75 87.12 119.27 87.77 117.89 C 92.38 104.97 97.03 92.06 101.66 79.15 C 94.32 78.71 86.71 80.05 79.55 78.45 C 78.62 76.03 77.93 72.01 80.25 70.26 Z" />
</g>
</svg>
