<?xml version="1.0" encoding="UTF-8" ?>
<!DOCTYPE svg PUBLIC "-//W3C//DTD SVG 1.1//EN" "http://www.w3.org/Graphics/SVG/1.1/DTD/svg11.dtd">
<svg width="192pt" height="192pt" viewBox="0 0 192 192" version="1.1" xmlns="http://www.w3.org/2000/svg">
<g id="#4970c2ff">
<path fill="#4970c2" opacity="1.00" d=" M 62.89 21.22 C 63.66 13.84 74.11 13.94 74.96 21.22 C 88.34 21.25 101.72 21.22 115.10 21.21 C 115.63 15.57 123.73 13.16 126.24 18.73 C 127.33 25.72 126.56 32.96 126.68 40.03 C 126.82 44.33 121.01 46.96 117.82 44.13 C 114.28 41.35 115.82 36.32 115.48 32.44 C 101.83 32.44 88.17 32.44 74.51 32.43 C 74.21 36.32 75.80 41.38 72.21 44.16 C 69.18 46.77 63.94 44.54 63.46 40.67 C 63.24 37.88 63.31 35.08 63.12 32.29 C 56.42 32.67 49.70 32.20 43.00 32.52 C 36.75 32.89 31.69 38.78 31.78 44.97 C 31.72 78.64 31.77 112.33 31.81 146.00 C 31.38 152.77 37.07 159.27 43.96 159.10 C 77.99 159.14 112.03 159.09 146.05 159.05 C 152.90 159.25 158.69 152.75 158.16 146.00 C 158.17 112.33 158.23 78.65 158.18 44.98 C 158.41 38.43 152.63 32.41 146.07 32.49 C 142.56 32.05 138.13 33.58 135.47 30.53 C 133.27 28.20 133.74 24.12 136.36 22.31 C 150.50 17.05 168.73 27.19 169.29 43.01 C 169.55 77.66 169.36 112.32 169.40 146.97 C 169.65 159.46 158.48 170.66 145.98 170.40 C 112.00 170.41 78.01 170.41 44.02 170.38 C 31.56 170.59 20.47 159.42 20.71 146.97 C 20.68 112.99 20.70 79.00 20.72 45.02 C 20.41 33.43 29.79 22.57 41.37 21.47 C 48.53 20.98 55.72 21.41 62.89 21.22 Z" />
<path fill="#4970c2" opacity="1.00" d=" M 78.57 70.60 C 88.67 69.50 98.92 70.27 109.07 70.06 C 113.46 70.05 111.30 75.81 111.65 78.61 C 104.24 79.76 96.69 78.90 89.23 79.13 C 89.26 82.79 89.25 86.45 89.18 90.10 C 94.24 87.17 100.48 87.54 105.99 88.78 C 111.45 89.98 113.78 95.95 113.57 101.01 C 113.36 106.60 114.50 112.63 111.90 117.83 C 109.10 122.61 102.95 123.06 97.99 123.19 C 92.77 123.15 87.03 123.49 82.46 120.51 C 78.52 117.65 78.45 112.26 78.38 107.85 C 81.38 106.67 84.68 106.78 87.83 107.16 C 89.89 108.81 88.85 113.15 92.22 113.71 C 95.77 114.26 102.43 115.05 102.64 109.89 C 102.30 106.02 104.07 100.98 101.04 97.94 C 93.55 94.60 86.18 101.81 78.54 98.42 C 78.34 89.15 78.35 79.87 78.57 70.60 Z" />
</g>
</svg>
