<?xml version="1.0" encoding="UTF-8" ?>
<!DOCTYPE svg PUBLIC "-//W3C//DTD SVG 1.1//EN" "http://www.w3.org/Graphics/SVG/1.1/DTD/svg11.dtd">
<svg width="192pt" height="192pt" viewBox="0 0 192 192" version="1.1" xmlns="http://www.w3.org/2000/svg">
<g id="#4a70c2ff">
<path fill="#4a70c2" opacity="1.00" d=" M 62.90 21.21 C 63.63 13.81 74.13 13.93 74.97 21.21 C 88.34 21.28 101.71 21.20 115.08 21.22 C 115.60 15.55 123.71 13.12 126.26 18.71 C 127.37 25.37 126.51 32.27 126.75 39.02 C 127.41 43.26 122.12 46.81 118.53 44.42 C 114.21 42.08 115.76 36.44 115.47 32.43 C 101.82 32.43 88.18 32.43 74.53 32.42 C 74.87 37.39 75.39 44.34 69.01 45.50 C 62.37 44.49 63.20 37.34 63.09 32.32 C 56.39 32.58 49.69 32.27 42.99 32.46 C 36.70 32.76 31.70 38.80 31.80 44.97 C 31.73 78.31 31.77 111.66 31.82 145.01 C 31.40 151.81 37.01 158.42 43.99 158.24 C 78.00 158.27 112.01 158.25 146.01 158.18 C 152.49 158.35 158.33 152.50 158.14 146.02 C 158.20 112.34 158.20 78.67 158.18 44.99 C 158.51 38.02 152.00 31.76 145.04 32.43 C 140.79 32.86 134.31 32.64 134.05 26.99 C 133.83 21.09 140.70 20.63 145.03 21.17 C 157.63 20.47 169.37 31.37 169.41 44.03 C 169.46 78.34 169.48 112.66 169.41 146.97 C 169.24 159.15 158.12 169.75 145.98 169.50 C 112.00 169.51 78.01 169.50 44.03 169.47 C 31.53 169.72 20.39 158.47 20.70 145.98 C 20.70 111.99 20.65 78.01 20.74 44.02 C 20.79 32.50 30.59 22.04 42.11 21.35 C 49.04 21.09 55.97 21.36 62.90 21.21 Z" />
<path fill="#4a70c2" opacity="1.00" d=" M 65.06 69.91 C 72.03 68.63 79.61 68.28 86.38 70.66 C 92.12 73.32 92.40 80.51 92.27 85.98 C 92.71 98.35 80.13 104.58 73.04 112.83 C 78.96 113.12 84.91 112.81 90.83 113.12 C 92.97 115.17 93.04 119.94 90.86 122.01 C 80.04 122.09 69.13 122.62 58.34 121.69 C 58.12 118.43 56.92 114.33 59.86 111.91 C 65.92 105.94 72.12 100.12 78.12 94.09 C 81.93 90.46 82.40 84.18 80.36 79.58 C 77.88 77.37 74.12 78.13 71.09 78.34 C 67.27 78.99 68.10 83.75 67.53 86.60 C 64.36 87.15 60.61 87.93 57.70 86.27 C 56.04 80.26 57.78 71.22 65.06 69.91 Z" />
<path fill="#4a70c2" opacity="1.00" d=" M 107.14 69.99 C 114.31 68.49 122.20 68.16 129.14 70.80 C 135.30 74.02 134.79 82.06 134.45 87.98 C 134.51 91.43 132.40 94.42 129.20 95.60 C 137.07 98.34 135.30 108.71 134.22 115.14 C 132.90 121.56 125.61 123.24 120.00 123.16 C 114.07 123.09 107.14 123.85 102.33 119.68 C 99.60 116.46 98.38 111.22 100.18 107.38 C 103.00 106.69 105.97 106.87 108.84 107.13 C 110.95 108.79 109.73 113.23 113.22 113.76 C 116.76 114.02 122.29 115.22 123.84 110.90 C 124.18 107.93 124.65 104.51 123.11 101.81 C 120.14 98.49 115.09 101.39 111.55 99.46 C 110.55 97.11 110.39 93.89 111.62 91.64 C 114.98 89.74 120.39 92.72 123.06 89.03 C 124.05 86.21 124.05 82.90 123.05 80.08 C 120.88 77.12 116.45 78.16 113.31 78.45 C 109.48 78.78 111.91 85.07 108.05 85.13 C 105.47 84.86 101.77 86.26 100.06 83.78 C 98.84 78.45 101.08 71.16 107.14 69.99 Z" />
</g>
</svg>
