<?xml version="1.0" encoding="UTF-8" ?>
<!DOCTYPE svg PUBLIC "-//W3C//DTD SVG 1.1//EN" "http://www.w3.org/Graphics/SVG/1.1/DTD/svg11.dtd">
<svg width="192pt" height="192pt" viewBox="0 0 192 192" version="1.1" xmlns="http://www.w3.org/2000/svg">
<g id="#4a70c3ff">
<path fill="#4a70c3" opacity="1.00" d=" M 62.89 21.22 C 63.69 13.82 74.09 13.96 74.99 21.23 C 88.35 21.25 101.71 21.22 115.08 21.22 C 115.64 15.60 123.71 13.15 126.24 18.72 C 127.33 25.71 126.56 32.95 126.67 40.04 C 126.82 44.33 121.01 46.95 117.82 44.13 C 114.28 41.35 115.82 36.32 115.48 32.44 C 101.83 32.44 88.17 32.44 74.51 32.43 C 74.52 35.29 74.70 38.17 74.33 41.01 C 73.48 44.97 68.10 46.74 65.19 43.81 C 61.80 40.95 64.41 35.89 62.77 32.52 C 56.50 32.29 50.21 32.44 43.94 32.46 C 37.32 32.35 31.66 38.43 31.78 44.97 C 31.72 78.64 31.77 112.33 31.81 146.00 C 31.38 152.77 37.06 159.27 43.96 159.10 C 77.99 159.14 112.02 159.09 146.05 159.05 C 152.90 159.25 158.69 152.75 158.16 146.00 C 158.17 112.33 158.23 78.65 158.18 44.98 C 158.42 38.44 152.63 32.40 146.06 32.50 C 142.55 32.05 138.13 33.57 135.47 30.52 C 133.27 28.20 133.74 24.12 136.36 22.30 C 150.51 17.06 168.72 27.19 169.29 43.01 C 169.57 77.00 169.31 111.01 169.43 145.00 C 170.55 157.78 159.89 170.13 146.98 170.36 C 112.66 170.47 78.34 170.38 44.02 170.38 C 31.56 170.58 20.48 159.43 20.71 146.98 C 20.68 112.99 20.70 79.01 20.72 45.02 C 20.41 33.43 29.79 22.57 41.38 21.47 C 48.53 20.98 55.72 21.41 62.89 21.22 Z" />
<path fill="#4a70c3" opacity="1.00" d=" M 66.05 69.91 C 73.22 68.66 81.14 68.13 88.00 70.98 C 94.99 75.71 93.70 85.93 92.20 93.11 C 87.93 101.06 80.11 106.33 74.03 112.84 C 80.05 112.96 86.07 113.12 92.08 112.91 C 93.73 115.74 93.78 119.39 92.12 122.23 C 81.19 121.80 70.21 122.74 59.31 121.71 C 59.15 118.43 57.91 114.34 60.86 111.91 C 66.92 105.93 73.14 100.12 79.13 94.08 C 82.93 90.45 83.40 84.18 81.37 79.58 C 78.88 77.39 75.13 78.11 72.10 78.34 C 68.26 78.98 69.11 83.78 68.52 86.63 C 65.34 87.09 61.62 87.95 58.70 86.28 C 57.05 80.26 58.78 71.24 66.05 69.91 Z" />
<path fill="#4a70c3" opacity="1.00" d=" M 103.44 71.40 C 109.05 68.13 115.84 69.07 122.05 69.05 C 127.33 69.09 133.64 71.42 134.58 77.32 C 135.97 87.13 134.93 97.11 135.27 106.99 C 135.28 112.17 135.03 119.10 129.47 121.49 C 122.66 123.88 115.06 123.62 108.05 122.29 C 101.47 121.27 98.81 113.27 100.64 107.65 C 103.50 106.30 106.94 107.23 110.03 107.03 C 110.26 112.01 114.03 115.36 119.11 114.01 C 126.48 114.07 123.96 104.93 124.34 100.20 C 118.76 103.10 112.03 102.59 106.10 101.18 C 100.82 99.84 98.90 93.91 99.13 89.03 C 99.29 83.09 97.89 75.43 103.44 71.40 M 113.24 78.31 C 108.59 79.42 110.03 85.50 110.02 89.03 C 110.38 93.99 116.59 93.14 120.08 92.91 C 125.54 92.60 124.48 85.79 124.20 82.00 C 123.55 76.82 116.92 78.10 113.24 78.31 Z" />
</g>
</svg>
