<?xml version="1.0" encoding="UTF-8" ?>
<!DOCTYPE svg PUBLIC "-//W3C//DTD SVG 1.1//EN" "http://www.w3.org/Graphics/SVG/1.1/DTD/svg11.dtd">
<svg width="192pt" height="192pt" viewBox="0 0 192 192" version="1.1" xmlns="http://www.w3.org/2000/svg">
<g id="#4a70c2ff">
<path fill="#4a70c2" opacity="1.00" d=" M 62.87 21.22 C 63.72 13.82 74.05 13.96 75.00 21.23 C 88.35 21.25 101.70 21.21 115.05 21.22 C 115.67 15.61 123.71 13.13 126.25 18.74 C 127.32 25.73 126.56 32.96 126.67 40.04 C 126.81 44.33 121.01 46.95 117.82 44.14 C 114.28 41.36 115.82 36.32 115.48 32.44 C 101.82 32.44 88.17 32.44 74.51 32.43 C 74.70 37.10 75.58 44.93 69.02 45.29 C 62.17 45.11 63.29 37.08 63.13 32.36 C 56.42 32.57 49.70 32.24 42.99 32.52 C 36.74 32.90 31.69 38.79 31.78 44.97 C 31.72 78.65 31.77 112.33 31.81 146.00 C 31.38 152.77 37.06 159.27 43.97 159.10 C 77.99 159.14 112.02 159.09 146.04 159.05 C 152.90 159.25 158.69 152.75 158.16 146.00 C 158.17 112.33 158.23 78.66 158.18 44.99 C 158.42 38.44 152.64 32.40 146.07 32.50 C 142.56 32.05 138.13 33.56 135.47 30.53 C 133.26 28.20 133.74 24.12 136.36 22.30 C 150.51 17.05 168.73 27.19 169.29 43.01 C 169.55 77.66 169.36 112.32 169.40 146.97 C 169.65 159.47 158.47 170.66 145.98 170.40 C 111.99 170.41 78.00 170.41 44.02 170.38 C 31.56 170.58 20.48 159.43 20.71 146.98 C 20.68 112.99 20.70 79.00 20.72 45.02 C 20.41 33.43 29.79 22.57 41.36 21.47 C 48.52 20.98 55.70 21.41 62.87 21.22 Z" />
<path fill="#4a70c2" opacity="1.00" d=" M 80.52 74.89 C 86.98 72.31 93.68 68.92 100.84 70.19 C 102.84 70.90 102.32 73.34 102.49 74.99 C 102.44 87.62 102.56 100.26 102.46 112.89 C 105.36 112.97 108.25 113.01 111.15 112.92 C 112.72 115.77 112.73 119.36 111.18 122.22 C 101.19 121.89 91.16 122.53 81.18 121.92 C 79.00 120.11 79.50 115.90 80.58 113.61 C 83.82 112.23 87.82 113.32 91.35 113.00 C 91.38 102.38 91.44 91.75 91.37 81.13 C 86.51 81.47 78.61 82.30 80.52 74.89 Z" />
</g>
</svg>
