<?xml version="1.0" encoding="UTF-8" ?>
<!DOCTYPE svg PUBLIC "-//W3C//DTD SVG 1.1//EN" "http://www.w3.org/Graphics/SVG/1.1/DTD/svg11.dtd">
<svg width="192pt" height="192pt" viewBox="0 0 192 192" version="1.1" xmlns="http://www.w3.org/2000/svg">
<g id="#17acffff">
<path fill="#17acff" opacity="1.00" d=" M 28.34 12.48 C 30.50 11.84 32.77 11.74 35.01 11.73 C 75.33 11.78 115.66 11.69 155.98 11.75 C 162.89 11.37 169.62 16.86 169.65 23.98 C 169.89 48.65 169.80 73.34 169.84 98.01 C 169.92 114.26 161.99 129.46 151.20 141.19 C 139.13 154.83 123.21 164.46 106.60 171.57 C 101.49 173.88 95.86 177.00 90.14 174.84 C 69.76 167.62 50.66 156.01 36.25 139.75 C 25.45 127.51 19.01 111.39 19.11 95.02 C 19.07 71.65 18.95 48.28 19.20 24.91 C 19.04 19.30 22.75 13.77 28.34 12.48 M 30.49 23.42 C 30.08 47.28 30.38 71.15 30.34 95.01 C 30.15 110.39 37.17 125.28 48.07 135.93 C 61.11 148.87 77.38 159.02 94.97 164.18 C 114.34 156.62 133.40 146.11 146.36 129.40 C 154.18 119.76 159.22 107.56 158.62 95.00 C 158.20 71.07 159.21 47.02 158.00 23.15 C 115.50 23.27 72.96 22.72 30.49 23.42 Z" />
<path fill="#17acff" opacity="1.00" d=" M 72.17 73.94 C 72.28 61.31 82.50 49.83 94.97 48.09 C 107.59 45.83 120.90 54.00 124.79 66.17 C 128.78 77.14 124.47 90.28 114.93 96.95 C 105.78 103.80 92.52 103.57 83.28 96.98 C 83.12 104.28 83.76 111.66 82.97 118.91 C 81.55 124.35 72.65 123.55 72.22 117.96 C 72.00 103.29 72.18 88.61 72.17 73.94 M 95.34 59.46 C 88.07 61.13 82.64 68.52 83.35 75.98 C 83.67 84.74 92.35 91.97 101.03 90.66 C 109.80 89.81 116.58 80.72 114.76 72.06 C 113.40 63.29 103.93 57.15 95.34 59.46 Z" />
</g>
</svg>
