<?xml version="1.0" encoding="UTF-8" ?>
<!DOCTYPE svg PUBLIC "-//W3C//DTD SVG 1.1//EN" "http://www.w3.org/Graphics/SVG/1.1/DTD/svg11.dtd">
<svg width="192pt" height="192pt" viewBox="0 0 192 192" version="1.1" xmlns="http://www.w3.org/2000/svg">
<g id="#4970c2ff">
<path fill="#4970c2" opacity="1.00" d=" M 62.88 21.21 C 63.69 13.85 74.08 13.93 74.96 21.22 C 88.34 21.25 101.72 21.22 115.10 21.21 C 115.64 15.58 123.72 13.15 126.24 18.72 C 127.33 25.71 126.56 32.95 126.68 40.03 C 126.82 44.33 121.01 46.95 117.82 44.14 C 114.28 41.35 115.82 36.32 115.48 32.44 C 101.82 32.44 88.17 32.44 74.52 32.43 C 74.69 37.10 75.59 44.92 69.02 45.29 C 62.16 45.10 63.29 37.07 63.14 32.34 C 56.43 32.60 49.71 32.23 43.00 32.51 C 36.75 32.89 31.70 38.77 31.78 44.95 C 31.72 78.64 31.77 112.33 31.81 146.01 C 31.39 152.77 37.06 159.26 43.95 159.10 C 77.98 159.14 112.02 159.09 146.05 159.05 C 152.90 159.25 158.69 152.76 158.16 146.00 C 158.17 112.33 158.23 78.65 158.18 44.97 C 158.48 37.57 151.26 31.49 144.03 32.46 C 139.70 33.25 133.38 31.69 134.09 26.10 C 134.93 20.33 141.76 20.99 146.07 21.23 C 158.29 21.08 169.25 31.80 169.35 44.02 C 169.46 78.34 169.40 112.66 169.40 146.98 C 169.65 159.47 158.47 170.66 145.98 170.40 C 111.99 170.42 78.01 170.41 44.02 170.38 C 31.56 170.59 20.48 159.43 20.71 146.98 C 20.68 112.99 20.70 79.00 20.72 45.01 C 20.42 33.43 29.79 22.57 41.37 21.47 C 48.53 20.98 55.71 21.41 62.88 21.21 Z" />
<path fill="#4970c2" opacity="1.00" d=" M 86.98 69.73 C 93.45 68.72 100.31 68.46 106.68 70.21 C 112.40 71.81 114.22 78.70 113.26 83.92 C 111.14 86.12 107.67 84.97 104.94 85.08 C 101.37 84.74 103.54 78.69 99.72 78.39 C 96.42 78.20 91.49 76.96 89.60 80.58 C 88.91 84.30 89.36 88.12 89.15 91.88 C 94.89 89.08 101.78 89.47 107.81 91.07 C 113.24 92.73 114.70 99.00 114.53 104.01 C 114.49 109.77 115.36 117.26 109.84 120.93 C 103.28 124.14 95.55 123.30 88.49 122.73 C 83.22 122.38 78.76 118.16 78.60 112.80 C 78.22 101.89 78.38 90.94 78.56 80.02 C 78.62 75.13 81.96 70.43 86.98 69.73 M 91.41 99.58 C 87.98 101.80 89.48 106.62 89.33 110.03 C 89.70 115.24 96.37 114.03 99.97 113.85 C 105.02 113.04 103.42 106.73 103.50 103.14 C 102.95 97.42 95.32 99.11 91.41 99.58 Z" />
</g>
</svg>
