<?xml version="1.0" encoding="UTF-8" ?>
<!DOCTYPE svg PUBLIC "-//W3C//DTD SVG 1.1//EN" "http://www.w3.org/Graphics/SVG/1.1/DTD/svg11.dtd">
<svg width="192pt" height="192pt" viewBox="0 0 192 192" version="1.1" xmlns="http://www.w3.org/2000/svg">
<g id="#4a70c2ff">
<path fill="#4a70c2" opacity="1.00" d=" M 62.88 21.22 C 63.66 13.83 74.09 13.92 74.97 21.20 C 88.35 21.27 101.73 21.22 115.11 21.20 C 115.61 15.53 123.71 13.14 126.26 18.71 C 127.37 25.37 126.51 32.27 126.74 39.02 C 127.47 43.59 121.49 47.03 117.93 44.06 C 114.30 41.38 115.78 36.29 115.46 32.43 C 101.82 32.43 88.18 32.43 74.54 32.41 C 74.88 37.41 75.36 44.31 69.01 45.53 C 62.51 44.46 62.97 37.43 63.28 32.40 C 56.52 32.49 49.76 32.30 43.00 32.47 C 36.71 32.75 31.71 38.78 31.80 44.94 C 31.73 78.30 31.77 111.67 31.82 145.03 C 31.41 151.82 37.00 158.40 43.97 158.23 C 77.99 158.27 112.01 158.25 146.03 158.18 C 152.50 158.34 158.31 152.51 158.14 146.04 C 158.20 112.35 158.20 78.65 158.18 44.96 C 158.49 38.00 151.99 31.76 145.04 32.44 C 140.79 32.85 134.30 32.64 134.05 26.98 C 133.84 21.07 140.72 20.64 145.04 21.17 C 157.63 20.49 169.37 31.37 169.40 44.01 C 169.48 78.00 169.43 112.00 169.45 145.98 C 169.79 158.52 158.49 169.77 145.98 169.50 C 111.99 169.51 78.00 169.50 44.01 169.47 C 31.52 169.71 20.39 158.47 20.70 145.99 C 20.70 111.99 20.65 78.00 20.75 44.01 C 20.80 32.53 30.54 22.09 42.01 21.36 C 48.96 21.07 55.92 21.37 62.88 21.22 Z" />
<path fill="#4a70c2" opacity="1.00" d=" M 62.03 71.10 C 67.54 68.35 73.95 69.03 79.90 69.17 C 84.95 69.25 90.59 71.85 91.55 77.31 C 92.71 84.19 93.33 92.59 88.02 98.00 C 83.27 103.19 78.05 107.92 73.03 112.85 C 78.96 113.12 84.90 112.79 90.82 113.13 C 93.26 115.32 92.51 119.57 91.11 122.23 C 80.18 121.79 69.20 122.76 58.31 121.70 C 58.16 118.42 56.92 114.34 59.86 111.91 C 65.91 105.93 72.13 100.12 78.13 94.08 C 81.93 90.45 82.40 84.19 80.37 79.59 C 77.89 77.39 74.15 78.11 71.12 78.33 C 67.24 78.96 68.13 83.77 67.52 86.63 C 64.28 87.13 60.69 87.87 57.61 86.35 C 56.60 81.17 57.01 74.15 62.03 71.10 Z" />
<path fill="#4a70c2" opacity="1.00" d=" M 110.27 69.20 C 117.51 69.13 126.35 67.56 132.20 72.83 C 137.17 80.55 134.61 90.35 135.25 99.00 C 134.86 106.19 136.86 115.45 130.68 120.70 C 123.14 124.25 114.16 123.64 106.17 122.12 C 98.81 120.73 98.11 112.06 98.14 106.01 C 98.44 96.40 97.28 86.63 99.12 77.14 C 99.97 71.79 105.42 69.46 110.27 69.20 M 112.32 78.44 C 108.51 79.26 109.34 84.11 108.94 87.01 C 109.15 95.32 108.21 103.89 109.97 112.03 C 113.90 115.58 125.05 115.55 124.27 108.01 C 124.27 99.35 124.73 90.65 124.03 82.02 C 123.14 76.62 116.20 78.11 112.32 78.44 Z" />
</g>
</svg>
