<?xml version="1.0" encoding="UTF-8" ?>
<!DOCTYPE svg PUBLIC "-//W3C//DTD SVG 1.1//EN" "http://www.w3.org/Graphics/SVG/1.1/DTD/svg11.dtd">
<svg width="192pt" height="192pt" viewBox="0 0 192 192" version="1.1" xmlns="http://www.w3.org/2000/svg">
<g id="#4970c2ff">
<path fill="#4970c2" opacity="1.00" d=" M 62.84 21.22 C 63.73 13.83 74.02 13.93 75.01 21.20 C 88.36 21.27 101.72 21.22 115.08 21.20 C 115.65 15.56 123.70 13.11 126.26 18.71 C 127.37 25.38 126.52 32.27 126.75 39.03 C 127.40 43.27 122.13 46.79 118.52 44.42 C 114.22 42.07 115.77 36.43 115.45 32.42 C 101.82 32.43 88.18 32.43 74.54 32.41 C 74.92 37.47 75.29 44.22 69.01 45.61 C 62.54 44.36 63.01 37.46 63.19 32.37 C 56.18 32.58 49.15 32.18 42.15 32.55 C 35.80 33.35 31.36 39.77 31.76 45.99 C 31.79 79.00 31.74 112.01 31.82 145.02 C 31.41 151.82 37.00 158.41 43.99 158.23 C 78.00 158.27 112.01 158.25 146.01 158.18 C 152.49 158.35 158.32 152.51 158.13 146.02 C 158.21 112.34 158.20 78.66 158.18 44.98 C 158.36 39.74 154.80 34.73 149.87 33.06 C 145.78 31.66 141.26 33.24 137.22 31.82 C 133.52 30.18 132.94 24.53 136.34 22.26 C 150.53 17.02 168.82 27.13 169.35 43.02 C 169.56 77.34 169.40 111.66 169.44 145.98 C 169.79 158.52 158.50 169.77 145.98 169.49 C 111.99 169.52 78.01 169.51 44.02 169.47 C 31.52 169.71 20.39 158.47 20.70 145.98 C 20.70 111.99 20.65 78.00 20.75 44.02 C 20.79 32.54 30.52 22.10 41.99 21.37 C 48.93 21.06 55.89 21.37 62.84 21.22 Z" />
<path fill="#4970c2" opacity="1.00" d=" M 64.04 71.10 C 69.56 68.35 75.97 69.02 81.94 69.16 C 86.98 69.27 92.60 71.86 93.55 77.31 C 94.72 84.20 95.32 92.58 90.02 98.01 C 85.26 103.19 80.05 107.93 75.03 112.85 C 81.09 112.97 87.15 113.09 93.21 112.92 C 94.63 115.86 94.65 119.27 93.25 122.22 C 82.27 121.83 71.24 122.71 60.29 121.72 C 60.19 118.44 58.91 114.35 61.86 111.91 C 67.90 105.93 74.14 100.13 80.13 94.08 C 83.93 90.44 84.39 84.18 82.37 79.57 C 79.86 77.41 76.13 78.10 73.10 78.34 C 69.21 79.00 70.18 83.81 69.48 86.68 C 66.24 87.04 62.68 87.88 59.62 86.35 C 58.59 81.17 59.01 74.14 64.04 71.10 Z" />
<path fill="#4970c2" opacity="1.00" d=" M 101.46 74.86 C 107.95 72.30 114.67 68.83 121.87 70.14 C 123.89 70.91 123.31 73.30 123.51 74.99 C 123.48 87.64 123.54 100.28 123.48 112.93 C 126.39 112.97 129.31 113.00 132.22 112.92 C 133.65 115.86 133.66 119.28 132.26 122.23 C 122.22 121.91 112.16 122.48 102.14 121.96 C 100.09 119.92 100.08 115.15 102.13 113.13 C 105.53 112.80 108.94 113.03 112.35 113.00 C 112.36 102.38 112.39 91.76 112.35 81.15 C 107.42 81.49 99.62 82.32 101.46 74.86 Z" />
</g>
</svg>
