<?xml version="1.0" encoding="UTF-8" ?>
<!DOCTYPE svg PUBLIC "-//W3C//DTD SVG 1.1//EN" "http://www.w3.org/Graphics/SVG/1.1/DTD/svg11.dtd">
<svg width="192pt" height="192pt" viewBox="0 0 192 192" version="1.1" xmlns="http://www.w3.org/2000/svg">
<g id="#4970c2ff">
<path fill="#4970c2" opacity="1.00" d=" M 62.87 21.21 C 63.70 13.84 74.06 13.94 74.97 21.22 C 88.34 21.26 101.71 21.22 115.08 21.21 C 115.66 15.59 123.71 13.15 126.24 18.72 C 127.33 25.72 126.56 32.96 126.67 40.04 C 126.81 44.33 121.01 46.95 117.82 44.13 C 114.28 41.35 115.82 36.32 115.48 32.44 C 101.83 32.44 88.17 32.44 74.51 32.43 C 74.69 37.10 75.59 44.92 69.02 45.29 C 62.16 45.09 63.29 37.07 63.13 32.34 C 56.43 32.60 49.71 32.23 43.01 32.51 C 36.75 32.89 31.70 38.77 31.78 44.96 C 31.72 78.64 31.77 112.32 31.81 146.01 C 31.38 152.77 37.06 159.26 43.95 159.10 C 77.98 159.14 112.02 159.09 146.05 159.05 C 152.91 159.25 158.69 152.75 158.16 146.00 C 158.17 112.33 158.23 78.65 158.18 44.98 C 158.48 37.57 151.26 31.48 144.03 32.46 C 139.70 33.24 133.37 31.70 134.09 26.10 C 134.93 20.33 141.76 20.99 146.07 21.23 C 158.29 21.08 169.25 31.80 169.35 44.02 C 169.46 78.34 169.40 112.66 169.40 146.98 C 169.65 159.47 158.47 170.66 145.98 170.40 C 111.99 170.41 78.01 170.41 44.02 170.38 C 31.56 170.59 20.48 159.43 20.71 146.98 C 20.68 112.99 20.70 79.00 20.72 45.01 C 20.42 33.43 29.79 22.57 41.37 21.47 C 48.53 20.98 55.71 21.41 62.87 21.21 Z" />
<path fill="#4970c2" opacity="1.00" d=" M 85.32 70.28 C 91.69 68.46 98.57 68.72 105.07 69.64 C 110.18 70.23 113.84 74.89 113.91 79.91 C 114.26 85.35 115.07 92.87 109.05 95.58 C 114.98 97.72 114.74 104.77 114.49 109.97 C 114.51 114.97 112.40 121.03 106.87 122.13 C 99.59 123.67 91.64 123.92 84.48 121.66 C 77.27 118.71 77.95 109.50 78.32 103.10 C 78.28 99.55 80.64 96.75 83.82 95.48 C 78.20 93.60 78.38 86.89 78.54 82.03 C 78.48 77.34 80.28 71.66 85.32 70.28 M 92.28 78.41 C 88.28 79.44 89.35 84.59 89.52 87.68 C 90.36 91.91 95.87 91.08 99.07 90.95 C 103.99 90.71 103.70 84.59 102.98 81.10 C 101.46 76.79 95.78 78.18 92.28 78.41 M 92.23 100.33 C 87.72 101.58 89.17 107.41 89.29 110.90 C 90.68 115.31 96.44 113.94 99.95 113.82 C 104.73 113.01 103.68 106.92 103.35 103.43 C 102.11 98.68 95.87 100.25 92.23 100.33 Z" />
</g>
</svg>
