<?xml version="1.0" encoding="UTF-8" ?>
<!DOCTYPE svg PUBLIC "-//W3C//DTD SVG 1.1//EN" "http://www.w3.org/Graphics/SVG/1.1/DTD/svg11.dtd">
<svg width="192pt" height="192pt" viewBox="0 0 192 192" version="1.1" xmlns="http://www.w3.org/2000/svg">
<g id="#4a70c3ff">
<path fill="#4a70c3" opacity="1.00" d=" M 62.88 21.22 C 63.68 13.85 74.08 13.93 74.96 21.22 C 88.34 21.26 101.72 21.22 115.10 21.21 C 115.64 15.58 123.73 13.16 126.24 18.73 C 127.32 25.72 126.56 32.95 126.67 40.03 C 126.82 44.33 121.01 46.95 117.82 44.13 C 114.29 41.35 115.80 36.32 115.48 32.44 C 101.83 32.44 88.17 32.44 74.51 32.43 C 74.23 36.32 75.79 41.38 72.20 44.16 C 69.19 46.77 63.93 44.54 63.47 40.67 C 63.24 37.88 63.27 35.07 63.14 32.27 C 56.16 32.74 49.15 32.07 42.18 32.61 C 35.86 33.44 31.33 39.75 31.74 45.98 C 31.78 79.32 31.74 112.67 31.81 146.02 C 31.39 152.77 37.06 159.26 43.95 159.10 C 77.99 159.15 112.03 159.09 146.07 159.05 C 152.91 159.24 158.69 152.75 158.16 146.00 C 158.17 112.33 158.23 78.65 158.18 44.97 C 158.48 37.57 151.27 31.49 144.04 32.46 C 139.71 33.24 133.38 31.70 134.09 26.11 C 134.92 20.34 141.77 20.98 146.07 21.23 C 158.29 21.08 169.25 31.80 169.35 44.02 C 169.46 78.33 169.40 112.66 169.39 146.98 C 169.65 159.47 158.47 170.66 145.98 170.40 C 111.99 170.41 78.00 170.41 44.01 170.38 C 31.56 170.58 20.48 159.43 20.71 146.98 C 20.68 112.99 20.70 79.00 20.72 45.01 C 20.42 33.43 29.79 22.57 41.37 21.47 C 48.53 20.98 55.71 21.40 62.88 21.22 Z" />
<path fill="#4a70c3" opacity="1.00" d=" M 60.49 74.88 C 66.97 72.34 73.68 68.86 80.86 70.22 C 82.93 70.88 82.26 73.34 82.48 74.98 C 82.44 87.63 82.52 100.28 82.45 112.93 C 85.24 112.95 88.05 112.83 90.83 113.16 C 93.30 115.33 92.45 119.57 91.13 122.25 C 81.74 121.98 72.34 122.31 62.96 122.11 C 58.64 122.45 59.39 116.13 60.58 113.65 C 63.81 112.26 67.85 113.34 71.39 113.02 C 71.40 102.39 71.43 91.76 71.39 81.13 C 66.52 81.49 58.60 82.28 60.49 74.88 Z" />
<path fill="#4a70c3" opacity="1.00" d=" M 97.41 70.80 C 107.13 69.03 117.21 70.47 127.08 69.98 C 132.35 69.14 130.56 75.43 130.67 78.63 C 123.25 79.72 115.71 78.92 108.23 79.13 C 108.27 82.78 108.26 86.44 108.17 90.09 C 113.24 87.14 119.49 87.54 125.01 88.77 C 130.45 89.99 132.77 95.94 132.57 101.01 C 132.37 106.60 133.49 112.63 130.90 117.82 C 128.10 122.61 121.95 123.04 117.00 123.18 C 111.77 123.16 106.02 123.49 101.45 120.52 C 97.48 117.65 97.46 112.23 97.33 107.82 C 100.37 106.72 103.68 106.72 106.86 107.15 C 108.85 108.88 107.91 113.12 111.23 113.70 C 114.76 114.27 121.43 115.05 121.64 109.90 C 121.33 106.03 123.05 101.00 120.05 97.95 C 112.53 94.48 104.96 102.13 97.38 98.20 C 97.39 89.07 97.38 79.93 97.41 70.80 Z" />
</g>
</svg>
