<?xml version="1.0" encoding="UTF-8" ?>
<!DOCTYPE svg PUBLIC "-//W3C//DTD SVG 1.1//EN" "http://www.w3.org/Graphics/SVG/1.1/DTD/svg11.dtd">
<svg width="192pt" height="192pt" viewBox="0 0 192 192" version="1.1" xmlns="http://www.w3.org/2000/svg">
<g id="#4970c2ff">
<path fill="#4970c2" opacity="1.00" d=" M 62.77 21.22 C 63.88 13.87 73.88 13.96 75.07 21.22 C 88.38 21.25 101.69 21.22 114.99 21.21 C 115.76 15.68 123.66 13.09 126.23 18.73 C 127.33 25.72 126.59 32.96 126.66 40.04 C 126.81 44.34 121.02 46.94 117.82 44.14 C 114.30 41.35 115.82 36.31 115.47 32.43 C 101.82 32.44 88.17 32.45 74.53 32.42 C 74.67 37.08 75.59 44.93 69.02 45.28 C 62.24 45.11 63.19 37.10 63.22 32.39 C 56.48 32.55 49.73 32.24 43.00 32.52 C 36.32 32.91 31.29 39.46 31.75 45.98 C 31.77 79.32 31.74 112.67 31.81 146.01 C 31.39 152.77 37.05 159.26 43.95 159.09 C 77.99 159.15 112.02 159.09 146.06 159.05 C 152.92 159.24 158.68 152.76 158.16 146.00 C 158.17 112.33 158.23 78.65 158.17 44.98 C 158.38 38.77 153.21 32.93 146.99 32.57 C 143.75 32.20 140.34 32.92 137.21 31.87 C 133.50 30.23 132.96 24.56 136.36 22.30 C 150.52 17.06 168.72 27.19 169.28 43.00 C 169.52 77.99 169.42 112.99 169.35 147.98 C 169.12 160.90 156.78 171.56 143.99 170.43 C 110.67 170.37 77.34 170.44 44.02 170.38 C 31.56 170.58 20.48 159.43 20.71 146.98 C 20.68 112.99 20.70 79.00 20.72 45.01 C 20.44 33.69 29.36 23.02 40.63 21.57 C 47.98 20.88 55.39 21.44 62.77 21.22 Z" />
<path fill="#4970c2" opacity="1.00" d=" M 62.45 73.87 C 69.23 71.52 77.10 66.63 84.14 70.13 C 84.90 84.03 84.29 98.00 84.45 111.93 C 87.42 111.97 90.40 111.99 93.37 111.96 C 94.47 114.96 94.47 118.20 93.42 121.21 C 83.10 120.72 72.65 121.91 62.40 120.60 C 61.66 118.01 61.40 115.06 62.48 112.53 C 65.98 111.47 69.77 112.17 73.38 112.02 C 73.40 101.40 73.43 90.78 73.39 80.16 C 68.47 80.46 60.71 81.27 62.45 73.87 Z" />
<path fill="#4970c2" opacity="1.00" d=" M 100.95 78.14 C 95.04 79.57 95.03 67.46 100.94 69.00 C 110.79 69.29 120.75 68.37 130.53 69.47 C 131.72 73.41 131.12 77.67 129.70 81.47 C 125.24 93.77 121.02 106.15 116.60 118.46 C 115.06 123.05 109.00 120.53 105.41 121.12 C 105.33 118.88 105.71 116.66 106.54 114.58 C 110.97 102.46 115.26 90.28 119.64 78.14 C 113.41 78.11 107.18 78.24 100.95 78.14 Z" />
</g>
</svg>
