<?xml version="1.0" encoding="UTF-8" ?>
<!DOCTYPE svg PUBLIC "-//W3C//DTD SVG 1.1//EN" "http://www.w3.org/Graphics/SVG/1.1/DTD/svg11.dtd">
<svg width="192pt" height="192pt" viewBox="0 0 192 192" version="1.1" xmlns="http://www.w3.org/2000/svg">
<g id="#50ae79ff">
<path fill="#50ae79" opacity="1.00" d=" M 67.99 18.98 C 67.13 11.52 77.26 9.22 80.02 16.01 C 107.78 11.03 137.11 21.47 155.99 42.28 C 161.26 40.13 166.36 37.59 171.71 35.63 C 175.73 34.27 179.97 38.69 178.61 42.69 C 175.73 48.55 170.08 53.06 167.41 58.81 C 182.07 86.92 179.16 123.35 159.06 148.09 C 161.12 152.58 164.42 156.40 166.21 161.00 C 167.67 165.96 161.20 169.99 157.29 166.81 C 154.57 164.01 153.10 160.28 150.88 157.11 C 126.73 180.45 87.89 186.28 57.96 171.05 C 27.79 156.57 8.73 122.46 12.48 89.14 C 15.10 57.44 38.07 29.23 67.99 18.98 M 86.15 26.54 C 93.36 38.75 100.60 50.94 108.01 63.02 C 120.17 57.65 132.51 52.69 144.53 47.04 C 129.63 31.59 107.39 24.17 86.15 26.54 M 24.71 111.14 C 30.49 142.70 59.93 167.70 92.03 168.21 C 111.59 168.92 131.29 161.07 144.92 147.01 C 131.18 124.00 117.37 101.04 103.66 78.02 C 94.55 80.39 86.26 85.28 77.46 88.63 C 75.46 89.79 71.88 89.96 71.75 92.88 C 69.73 110.88 68.10 128.95 65.92 146.93 C 64.85 152.99 54.96 152.21 54.87 146.04 C 56.12 129.39 58.43 112.81 59.85 96.17 C 52.91 99.17 46.07 102.51 38.93 105.03 C 33.51 106.14 30.09 97.89 34.84 94.86 C 43.47 90.57 52.55 87.21 61.30 83.15 C 63.10 66.08 65.01 49.02 66.65 31.94 C 36.18 43.90 17.67 79.22 24.71 111.14 M 77.90 35.67 C 76.14 49.72 74.89 63.83 73.31 77.90 C 81.34 74.68 89.21 71.08 97.17 67.71 C 91.10 56.85 84.79 46.03 77.90 35.67 M 113.95 72.91 C 117.85 79.77 121.99 86.50 126.05 93.26 C 134.15 83.55 141.41 73.14 149.22 63.18 C 150.72 61.01 153.06 59.06 152.90 56.18 C 139.83 61.56 126.92 67.31 113.95 72.91 M 134.01 101.99 C 132.06 103.84 133.78 106.28 134.86 108.06 C 140.94 117.84 146.48 127.98 152.82 137.60 C 166.67 117.83 169.30 90.98 159.58 68.89 C 150.59 79.53 142.64 91.04 134.01 101.99 Z" />
</g>
</svg>
