<?xml version="1.0" encoding="UTF-8" ?>
<!DOCTYPE svg PUBLIC "-//W3C//DTD SVG 1.1//EN" "http://www.w3.org/Graphics/SVG/1.1/DTD/svg11.dtd">
<svg width="192pt" height="192pt" viewBox="0 0 192 192" version="1.1" xmlns="http://www.w3.org/2000/svg">
<g id="#606f80ff">
<path fill="#606f80" opacity="1.00" d=" M 20.97 47.94 C 21.14 41.79 26.89 36.60 32.98 36.75 C 74.99 36.73 117.01 36.70 159.02 36.76 C 165.14 36.62 170.65 41.84 171.01 47.92 C 171.31 53.24 171.00 58.57 171.14 63.89 C 174.42 64.06 178.39 66.04 177.82 69.91 C 177.81 73.41 174.14 74.80 171.19 74.86 C 171.05 88.34 171.14 101.81 171.14 115.29 C 174.34 115.42 178.19 117.22 177.85 121.00 C 178.04 124.73 174.14 126.04 171.13 126.39 C 171.00 131.94 171.38 137.50 170.94 143.04 C 170.31 149.28 164.14 154.04 157.98 153.58 C 116.32 153.50 74.66 153.54 33.00 153.52 C 26.79 153.79 21.03 148.26 20.95 142.06 C 20.72 136.84 20.95 131.62 20.80 126.40 C 17.77 126.04 14.02 124.67 14.05 121.00 C 13.70 117.16 17.62 115.47 20.83 115.32 C 20.83 101.85 20.96 88.37 20.76 74.90 C 17.45 74.86 13.66 72.82 14.06 69.01 C 14.15 65.43 17.82 64.14 20.84 63.99 C 20.97 58.64 20.67 53.28 20.97 47.94 M 31.36 47.35 C 31.16 79.16 31.21 110.99 31.34 142.80 C 73.55 143.55 115.82 142.93 158.05 143.09 C 161.35 143.78 160.71 140.09 160.76 138.04 C 160.59 107.83 160.96 77.62 160.58 47.42 C 117.52 46.96 74.43 47.12 31.36 47.35 Z" />
<path fill="#606f80" opacity="1.00" d=" M 38.04 68.96 C 38.45 63.43 45.06 64.15 49.00 64.25 C 53.26 64.57 60.20 62.65 61.64 68.29 C 62.02 78.08 61.92 87.94 61.70 97.74 C 60.50 103.84 52.79 101.92 48.29 102.16 C 48.29 110.15 48.36 118.15 48.25 126.15 C 44.86 126.22 41.47 126.19 38.08 126.00 C 37.85 106.99 37.90 87.97 38.04 68.96 M 48.37 74.52 C 48.26 80.23 48.29 85.94 48.32 91.66 C 49.39 91.63 50.47 91.61 51.55 91.59 C 51.57 85.96 51.63 80.32 51.46 74.68 C 50.43 74.63 49.40 74.57 48.37 74.52 Z" />
<path fill="#606f80" opacity="1.00" d=" M 65.27 64.29 C 68.67 64.24 72.07 64.25 75.47 64.32 C 75.67 81.39 75.49 98.46 75.57 115.53 C 77.80 115.55 80.02 115.57 82.25 115.58 C 82.33 98.49 82.24 81.39 82.30 64.29 C 85.71 64.25 89.12 64.25 92.53 64.31 C 92.69 82.87 92.58 101.43 92.60 119.99 C 92.98 123.22 90.30 126.15 87.05 126.08 C 81.68 126.27 76.29 126.25 70.91 126.09 C 67.68 126.19 64.89 123.34 65.24 120.09 C 65.22 101.49 65.19 82.89 65.27 64.29 Z" />
<path fill="#606f80" opacity="1.00" d=" M 99.68 67.67 C 101.43 63.02 107.16 64.46 111.01 64.25 C 115.09 64.49 121.50 62.85 123.05 68.09 C 123.76 74.78 123.19 81.55 123.34 88.27 C 122.54 88.31 120.95 88.38 120.15 88.42 C 119.87 91.65 119.78 94.90 119.89 98.15 C 120.98 98.60 123.55 98.06 123.28 99.97 C 123.35 107.29 123.56 114.65 123.18 121.97 C 121.75 127.34 115.18 126.04 111.00 126.20 C 107.09 126.07 101.18 127.13 99.61 122.37 C 98.90 114.52 99.60 106.60 99.27 98.72 C 98.45 98.66 96.81 98.55 95.99 98.49 C 95.89 95.10 95.89 91.71 95.96 88.32 C 96.79 88.26 98.46 88.15 99.29 88.10 C 99.61 81.30 98.84 74.43 99.68 67.67 M 109.68 74.67 C 109.64 79.17 109.63 83.67 109.69 88.17 C 110.50 88.19 112.12 88.21 112.93 88.22 C 112.98 83.69 112.97 79.15 112.84 74.61 C 112.05 74.63 110.47 74.66 109.68 74.67 M 109.69 98.67 C 109.62 104.20 109.72 109.73 109.60 115.25 C 110.68 115.44 111.77 115.61 112.86 115.76 C 113.02 110.04 112.97 104.32 112.84 98.60 C 112.06 98.62 110.48 98.65 109.69 98.67 Z" />
<path fill="#606f80" opacity="1.00" d=" M 126.64 70.04 C 126.32 66.99 128.89 64.12 131.99 64.30 C 138.16 64.37 144.41 63.85 150.53 64.60 C 156.52 67.77 153.45 76.06 153.94 81.52 C 150.73 81.48 147.50 81.72 144.30 81.38 C 142.95 79.66 143.91 76.94 143.67 74.84 C 141.51 74.65 139.34 74.60 137.17 74.60 C 137.06 88.26 137.11 101.92 137.14 115.58 C 139.30 115.58 141.47 115.58 143.63 115.59 C 143.71 110.04 143.69 104.50 143.62 98.95 C 142.52 98.75 141.42 98.55 140.31 98.36 C 140.25 94.98 140.25 91.61 140.29 88.23 C 144.76 88.60 152.02 86.37 153.76 92.13 C 154.57 101.06 153.91 110.09 154.12 119.06 C 154.50 122.28 152.59 125.92 149.04 126.04 C 143.35 126.29 137.64 126.26 131.95 126.06 C 128.77 126.04 126.27 123.08 126.62 119.96 C 126.63 103.32 126.58 86.68 126.64 70.04 Z" />
</g>
</svg>
