<?xml version="1.0" encoding="UTF-8" ?>
<!DOCTYPE svg PUBLIC "-//W3C//DTD SVG 1.1//EN" "http://www.w3.org/Graphics/SVG/1.1/DTD/svg11.dtd">
<svg width="192pt" height="192pt" viewBox="0 0 192 192" version="1.1" xmlns="http://www.w3.org/2000/svg">
<g id="#c1a494ff">
<path fill="#c1a494" opacity="1.00" d=" M 47.15 25.82 C 46.32 21.07 48.27 14.82 53.99 14.78 C 82.99 14.63 112.01 14.64 141.02 14.78 C 146.74 14.84 148.68 21.07 147.87 25.83 C 114.30 25.80 80.72 25.81 47.15 25.82 Z" />
<path fill="#c1a494" opacity="1.00" d=" M 38.65 35.99 C 38.51 32.67 41.69 29.96 44.93 30.33 C 79.31 30.32 113.69 30.32 148.07 30.34 C 151.28 30.00 154.38 32.70 154.30 35.97 C 154.39 48.97 154.35 61.97 154.32 74.97 C 154.11 85.50 147.57 95.59 137.97 99.95 C 134.92 101.12 133.01 103.83 130.84 106.11 C 150.12 109.57 167.47 122.79 175.11 140.93 C 180.11 152.10 180.59 164.61 179.88 176.64 C 123.96 176.69 68.04 176.62 12.12 176.61 C 11.97 169.05 11.56 161.41 12.90 153.93 C 16.88 129.56 37.81 109.45 62.21 106.04 C 60.46 103.71 58.53 101.32 55.68 100.30 C 45.74 96.09 38.83 85.76 38.65 74.97 C 38.58 61.98 38.57 48.98 38.65 35.99 M 49.79 41.54 C 49.79 52.70 49.70 63.86 49.83 75.02 C 50.05 83.92 58.01 91.70 66.93 91.60 C 86.65 91.65 106.36 91.66 126.07 91.59 C 134.94 91.64 142.93 83.90 143.11 75.02 C 143.30 63.86 143.15 52.70 143.17 41.54 C 112.05 41.48 80.92 41.47 49.79 41.54 M 62.11 102.52 C 67.27 102.98 72.61 101.90 77.67 103.15 C 88.45 108.49 101.46 109.39 112.55 104.41 C 117.82 101.30 124.08 103.10 129.84 102.50 C 107.27 102.79 84.68 102.67 62.11 102.52 M 43.47 125.49 C 30.73 134.26 23.08 149.57 23.26 164.99 C 44.34 165.31 65.47 165.32 86.56 164.94 C 86.98 156.93 87.77 148.93 88.25 140.93 C 87.32 137.03 84.60 133.76 83.07 130.05 C 85.20 127.49 87.36 124.94 89.36 122.26 C 93.56 122.06 97.78 122.00 101.98 122.19 C 104.62 124.47 106.47 127.53 108.80 130.11 C 107.19 133.81 104.61 137.11 103.45 140.96 C 103.73 149.02 104.58 157.05 105.13 165.09 C 126.26 165.17 147.40 165.12 168.54 165.09 C 169.55 140.51 148.54 117.82 123.97 116.97 C 112.26 115.26 100.99 121.24 89.28 118.67 C 74.01 114.92 56.56 116.05 43.47 125.49 Z" />
<path fill="#c1a494" opacity="1.00" d=" M 61.25 48.31 C 84.78 47.33 108.46 48.11 132.05 47.89 C 136.52 47.49 137.43 52.62 136.90 56.00 C 136.09 60.63 139.35 68.77 133.00 70.27 C 109.67 70.50 86.32 70.34 62.98 70.30 C 57.19 69.95 58.67 62.95 58.55 58.99 C 58.93 55.47 57.15 50.17 61.25 48.31 Z" />
</g>
</svg>
