<?xml version="1.0" encoding="UTF-8" ?>
<!DOCTYPE svg PUBLIC "-//W3C//DTD SVG 1.1//EN" "http://www.w3.org/Graphics/SVG/1.1/DTD/svg11.dtd">
<svg width="192pt" height="192pt" viewBox="0 0 192 192" version="1.1" xmlns="http://www.w3.org/2000/svg">
<g id="#95cb52ff">
<path fill="#95cb52" opacity="1.00" d=" M 68.06 19.02 C 67.16 11.60 77.20 9.29 79.96 16.03 C 107.68 10.94 137.26 21.33 155.97 42.33 C 161.25 40.19 166.36 37.65 171.71 35.67 C 176.29 34.08 180.72 39.97 177.96 43.96 C 174.53 48.85 170.75 53.50 167.14 58.26 C 182.22 86.43 179.35 123.29 159.04 148.16 C 161.10 152.62 164.36 156.44 166.19 161.00 C 167.60 165.95 161.20 169.93 157.31 166.75 C 154.59 163.97 153.13 160.24 150.94 157.07 C 126.48 180.91 86.72 186.43 56.60 170.43 C 27.18 155.59 8.73 121.96 12.44 89.14 C 15.08 57.47 38.00 29.01 68.06 19.02 M 86.09 26.55 C 93.26 38.79 100.59 50.93 107.94 63.07 C 120.21 57.83 132.47 52.55 144.68 47.17 C 129.66 31.74 107.43 24.16 86.09 26.55 M 24.33 108.87 C 29.01 139.93 56.57 165.54 87.91 167.88 C 108.79 169.89 130.32 162.00 144.92 146.93 C 131.01 123.76 117.27 100.49 103.22 77.41 C 92.78 82.01 82.27 86.44 71.82 91.01 C 69.89 109.65 68.06 128.31 65.87 146.90 C 64.83 152.93 55.05 152.15 54.87 146.05 C 56.20 129.37 58.53 112.78 59.86 96.10 C 52.88 99.03 46.08 102.54 38.90 104.88 C 33.43 106.02 30.22 97.90 34.86 94.91 C 43.51 90.64 52.58 87.23 61.35 83.21 C 63.12 66.07 65.16 48.95 66.67 31.79 C 37.10 43.81 18.46 77.41 24.33 108.87 M 77.83 35.10 C 76.22 49.39 74.74 63.70 73.27 78.01 C 81.30 74.71 89.22 71.18 97.19 67.74 C 91.24 56.60 84.46 45.86 77.83 35.10 M 113.89 72.90 C 117.77 79.79 121.95 86.52 126.01 93.31 C 134.20 83.65 141.41 73.18 149.24 63.22 C 150.69 61.03 153.27 59.12 152.83 56.19 C 139.74 61.49 126.84 67.26 113.89 72.90 M 132.44 103.96 C 139.10 115.26 145.86 126.51 152.66 137.73 C 166.55 117.91 169.34 90.89 159.40 68.77 C 150.17 80.32 141.49 92.29 132.44 103.96 Z" />
</g>
</svg>
