<?xml version="1.0" encoding="UTF-8" ?>
<!DOCTYPE svg PUBLIC "-//W3C//DTD SVG 1.1//EN" "http://www.w3.org/Graphics/SVG/1.1/DTD/svg11.dtd">
<svg width="192pt" height="192pt" viewBox="0 0 192 192" version="1.1" xmlns="http://www.w3.org/2000/svg">
<g id="#8ba46aff">
<path fill="#8ba46a" opacity="1.00" d=" M 58.35 55.98 C 59.48 35.09 77.89 16.70 98.92 16.12 C 111.56 16.03 124.25 15.59 136.87 16.40 C 153.91 18.31 165.72 33.07 171.89 47.95 C 167.35 59.51 159.12 69.66 148.32 75.89 C 166.13 100.46 163.13 137.92 140.04 158.13 C 121.88 172.16 97.49 177.52 75.04 173.02 C 52.02 168.61 31.27 153.73 19.77 133.32 C 17.97 130.79 19.83 126.78 22.99 126.78 C 34.68 126.54 46.38 126.90 58.07 126.70 C 58.30 103.13 57.84 79.55 58.35 55.98 M 68.46 57.93 C 68.21 81.95 68.52 105.97 68.33 129.99 C 68.22 132.43 67.87 136.36 64.66 136.47 C 55.10 137.07 45.51 136.75 35.93 136.85 C 44.79 148.29 57.55 156.55 71.42 160.54 C 73.70 161.48 75.70 159.55 77.54 158.48 C 88.58 150.90 94.07 137.52 95.51 124.60 C 96.28 119.55 95.57 114.21 97.49 109.39 C 103.12 106.30 110.12 107.61 115.97 104.94 C 127.13 100.55 134.16 88.73 134.32 76.96 C 134.62 60.06 134.54 43.14 134.36 26.23 C 122.24 26.28 110.11 25.88 97.99 26.41 C 82.11 27.49 68.57 42.06 68.46 57.93 M 144.79 29.32 C 145.02 33.67 143.94 38.47 145.17 42.56 C 149.40 42.86 153.64 42.61 157.88 42.61 C 154.25 37.54 150.18 32.61 144.79 29.32 M 144.70 52.74 C 144.67 57.14 144.67 61.54 144.76 65.95 C 149.79 62.35 154.34 58.00 157.76 52.82 C 153.41 52.74 149.05 52.78 144.70 52.74 M 134.17 104.14 C 127.25 112.22 116.59 115.73 106.36 117.11 C 105.60 133.82 100.59 151.09 88.48 163.18 C 106.98 163.88 125.83 157.04 139.13 144.09 C 151.85 128.06 152.93 104.47 142.97 86.78 C 140.95 92.96 138.62 99.25 134.17 104.14 Z" />
<path fill="#8ba46a" opacity="1.00" d=" M 98.39 31.51 C 112.93 29.18 128.18 40.26 130.04 54.96 C 133.11 71.33 118.58 87.88 101.99 87.24 C 88.73 87.00 76.32 76.31 74.84 63.00 C 72.40 48.36 83.74 33.42 98.39 31.51 M 85.09 53.80 C 89.18 54.07 93.28 54.17 97.37 54.15 C 97.41 51.41 97.53 48.68 97.55 45.95 C 107.11 46.20 115.25 54.62 116.10 63.98 C 105.80 64.60 95.47 64.30 85.15 64.39 C 87.56 69.48 91.16 74.58 96.88 76.14 C 107.82 80.13 120.89 70.68 120.30 58.98 C 120.41 47.97 108.74 38.80 98.04 41.88 C 91.96 43.28 87.79 48.49 85.09 53.80 Z" />
</g>
</svg>
