<?xml version="1.0" encoding="UTF-8" ?>
<!DOCTYPE svg PUBLIC "-//W3C//DTD SVG 1.1//EN" "http://www.w3.org/Graphics/SVG/1.1/DTD/svg11.dtd">
<svg width="192pt" height="192pt" viewBox="0 0 192 192" version="1.1" xmlns="http://www.w3.org/2000/svg">
<g id="#606f80ff">
<path fill="#606f80" opacity="1.00" d=" M 86.35 13.44 C 116.42 9.60 147.98 24.29 164.20 49.92 C 166.47 53.83 162.41 59.19 158.06 58.01 C 155.51 57.50 154.20 55.08 152.75 53.20 C 142.64 39.21 127.19 29.25 110.30 25.72 C 84.83 20.12 56.81 30.27 40.84 50.88 C 38.49 53.55 36.96 57.65 33.00 58.23 C 28.77 58.38 25.46 53.36 27.76 49.66 C 40.66 29.73 62.74 16.06 86.35 13.44 Z" />
<path fill="#606f80" opacity="1.00" d=" M 14.88 88.02 C 17.93 73.18 31.67 60.97 47.03 60.92 C 56.48 60.15 66.02 63.62 72.91 70.11 C 80.57 77.44 88.24 84.78 95.95 92.07 C 103.82 84.59 111.71 77.12 119.48 69.54 C 133.26 56.80 157.33 58.09 169.34 72.65 C 179.75 83.72 180.20 101.57 172.23 114.12 C 162.64 129.20 140.43 134.30 125.23 124.90 C 120.20 122.02 116.57 117.42 112.13 113.81 C 106.92 118.04 103.16 125.19 96.02 126.23 C 88.47 125.61 85.19 117.45 79.24 113.86 C 75.03 118.17 70.86 122.74 65.42 125.53 C 53.22 132.26 37.05 130.54 26.46 121.51 C 16.87 113.57 12.13 100.20 14.88 88.02 M 28.98 83.03 C 22.80 92.20 24.93 105.63 33.44 112.61 C 42.20 120.32 56.59 120.10 65.04 112.03 C 70.03 108.21 73.66 100.56 80.87 101.26 C 87.27 103.31 90.82 109.75 95.83 113.86 C 100.77 109.85 104.36 103.92 110.33 101.39 C 117.53 100.04 121.53 107.77 126.41 111.62 C 135.76 121.49 153.29 119.95 161.60 109.56 C 167.92 101.12 168.47 87.99 160.85 80.14 C 152.55 70.03 135.79 69.46 126.49 78.47 C 118.31 86.63 109.86 94.51 101.44 102.42 C 98.49 105.28 93.49 105.32 90.52 102.46 C 81.89 94.45 73.49 86.18 64.92 78.11 C 54.71 68.56 36.03 70.65 28.98 83.03 Z" />
<path fill="#606f80" opacity="1.00" d=" M 46.34 81.41 C 53.51 79.91 61.11 85.00 62.73 92.08 C 64.53 98.94 59.96 106.52 53.19 108.41 C 45.29 111.33 35.96 105.25 34.90 97.02 C 33.70 89.83 39.31 82.69 46.34 81.41 Z" />
<path fill="#606f80" opacity="1.00" d=" M 140.31 81.39 C 148.49 79.62 157.19 86.55 156.90 95.00 C 157.55 103.70 148.35 110.84 140.06 108.83 C 133.67 107.66 128.66 101.51 128.84 95.01 C 128.72 88.47 133.99 82.57 140.31 81.39 Z" />
<path fill="#606f80" opacity="1.00" d=" M 30.31 132.39 C 33.76 130.88 36.91 133.61 38.50 136.45 C 53.61 158.32 81.83 170.04 107.99 165.14 C 127.17 161.94 144.38 150.17 155.12 134.06 C 158.69 128.91 167.40 134.19 164.63 139.75 C 147.29 168.35 110.84 183.33 78.32 175.63 C 57.88 171.17 39.43 158.48 27.89 141.05 C 25.72 138.23 26.97 133.65 30.31 132.39 Z" />
</g>
</svg>
