<?xml version="1.0" encoding="UTF-8" ?>
<!DOCTYPE svg PUBLIC "-//W3C//DTD SVG 1.1//EN" "http://www.w3.org/Graphics/SVG/1.1/DTD/svg11.dtd">
<svg width="192pt" height="192pt" viewBox="0 0 192 192" version="1.1" xmlns="http://www.w3.org/2000/svg">
<g id="#f6b42fff">
<path fill="#f6b42f" opacity="1.00" d=" M 78.56 20.58 C 87.63 11.66 103.49 11.48 112.72 20.26 C 122.15 28.38 124.10 43.44 116.89 53.63 C 121.01 53.14 127.04 54.65 126.21 60.01 C 125.38 65.19 119.32 64.59 115.40 64.51 C 114.23 80.99 115.61 98.13 122.83 113.21 C 124.44 117.51 129.63 118.32 132.16 121.88 C 137.89 128.31 137.72 138.21 132.90 145.11 C 141.67 147.68 151.38 152.07 154.71 161.29 C 156.41 166.46 156.67 176.75 149.01 176.54 C 113.34 176.54 77.65 176.61 41.98 176.48 C 36.16 176.44 35.88 169.24 36.32 164.98 C 37.49 153.48 48.99 147.28 59.07 144.72 C 54.28 137.89 53.90 128.01 59.61 121.60 C 62.14 118.01 67.50 117.41 69.04 113.04 C 76.29 97.97 77.74 80.82 76.51 64.35 C 72.36 64.60 65.84 64.66 65.65 59.01 C 65.49 53.92 71.20 53.14 75.06 53.51 C 68.10 43.52 69.47 28.79 78.56 20.58 M 90.36 25.44 C 79.95 29.05 78.03 44.75 87.16 50.83 C 95.50 57.41 109.29 51.58 110.31 41.00 C 112.30 30.40 100.17 20.90 90.36 25.44 M 87.19 64.43 C 88.40 81.67 86.84 99.41 80.00 115.43 C 90.56 115.51 101.13 115.44 111.70 115.46 C 104.93 99.42 103.26 81.70 104.50 64.46 C 98.73 64.48 92.96 64.50 87.19 64.43 M 71.33 126.49 C 63.84 128.30 64.69 140.63 72.44 141.27 C 87.60 141.68 102.81 141.42 117.98 141.39 C 124.02 141.83 128.21 134.29 124.53 129.45 C 121.80 125.23 116.28 126.18 112.00 126.10 C 98.45 126.39 84.84 125.60 71.33 126.49 M 59.19 156.31 C 53.93 157.96 48.31 160.66 46.34 166.24 C 79.26 166.40 112.19 166.35 145.11 166.23 C 142.94 160.25 136.74 157.60 131.09 155.95 C 118.72 152.44 105.75 152.12 92.99 152.17 C 81.64 152.33 70.11 152.95 59.19 156.31 Z" />
</g>
</svg>
