<?xml version="1.0" encoding="UTF-8" ?>
<!DOCTYPE svg PUBLIC "-//W3C//DTD SVG 1.1//EN" "http://www.w3.org/Graphics/SVG/1.1/DTD/svg11.dtd">
<svg width="192pt" height="192pt" viewBox="0 0 192 192" version="1.1" xmlns="http://www.w3.org/2000/svg">
<g id="#52c1caff">
<path fill="#52c1ca" opacity="1.00" d=" M 86.36 12.46 C 113.07 9.14 140.86 20.30 157.75 41.27 C 173.74 60.24 180.08 86.72 175.01 110.95 C 173.16 119.23 169.01 126.80 167.27 135.10 C 165.43 144.94 168.67 154.67 171.37 164.01 C 172.40 168.89 166.60 172.65 162.33 170.57 C 151.21 166.50 138.36 164.23 127.16 169.26 C 106.66 179.33 81.71 178.61 61.27 168.76 C 37.20 157.62 18.31 134.92 13.54 108.61 C 9.47 85.31 15.63 60.13 30.94 41.95 C 44.64 25.39 65.06 14.81 86.36 12.46 M 40.78 47.78 C 25.59 65.00 19.79 90.00 25.77 112.15 C 35.88 150.27 81.35 176.19 118.71 160.70 C 130.59 154.22 144.78 153.81 157.67 157.23 C 155.57 148.07 154.40 138.33 157.12 129.16 C 160.06 119.15 165.21 109.61 165.30 98.94 C 167.78 69.56 149.86 39.78 122.59 28.49 C 94.89 16.78 60.37 25.01 40.78 47.78 Z" />
<path fill="#52c1ca" opacity="1.00" d=" M 86.29 53.35 C 102.84 49.97 120.88 58.00 129.32 72.65 C 138.64 87.69 136.60 108.62 124.50 121.53 C 114.87 132.37 99.17 137.48 85.04 134.03 C 69.90 130.77 57.29 118.13 54.07 102.97 C 48.48 81.16 64.12 57.11 86.29 53.35 M 88.42 64.55 C 75.43 66.85 65.06 78.76 64.44 91.92 C 62.89 108.41 77.42 124.07 94.00 123.60 C 111.58 124.22 126.64 106.70 123.47 89.41 C 121.48 73.17 104.46 60.99 88.42 64.55 Z" />
</g>
</svg>
