<?xml version="1.0" encoding="UTF-8" ?>
<!DOCTYPE svg PUBLIC "-//W3C//DTD SVG 1.1//EN" "http://www.w3.org/Graphics/SVG/1.1/DTD/svg11.dtd">
<svg width="192pt" height="192pt" viewBox="0 0 192 192" version="1.1" xmlns="http://www.w3.org/2000/svg">
<g id="#ff7431ff">
<path fill="#ff7431" opacity="1.00" d=" M 39.28 21.35 C 42.46 20.60 45.75 20.72 49.00 20.72 C 81.99 20.76 114.98 20.68 147.98 20.76 C 160.97 20.79 171.90 33.13 170.86 45.99 C 170.88 79.66 170.77 113.37 170.81 147.05 C 171.07 159.33 160.23 170.42 147.96 170.51 C 113.32 170.59 78.67 170.57 44.03 170.51 C 31.71 170.46 20.87 159.37 21.06 147.06 C 21.01 112.69 21.02 78.31 21.08 43.94 C 21.05 33.42 29.03 23.61 39.28 21.35 M 32.45 53.37 C 52.53 64.65 72.57 76.02 92.63 87.34 C 94.64 88.65 97.36 88.68 99.38 87.37 C 119.44 76.06 139.49 64.75 159.54 53.45 C 159.62 50.02 159.77 46.59 159.50 43.16 C 159.05 37.01 153.27 31.68 147.03 32.11 C 112.06 32.26 77.07 31.87 42.11 32.30 C 32.31 34.01 31.25 45.36 32.45 53.37 M 32.36 66.78 C 32.28 93.54 32.31 120.31 32.34 147.08 C 32.20 153.76 38.40 159.54 45.02 159.25 C 79.01 159.26 113.00 159.26 146.99 159.23 C 153.61 159.49 159.62 153.62 159.58 147.01 C 159.63 120.29 159.69 93.58 159.55 66.86 C 139.88 77.76 120.38 88.94 100.76 99.91 C 97.84 101.59 94.16 101.55 91.26 99.86 C 71.57 88.93 52.14 77.53 32.36 66.78 Z" />
</g>
</svg>
