<?xml version="1.0" encoding="UTF-8" ?>
<!DOCTYPE svg PUBLIC "-//W3C//DTD SVG 1.1//EN" "http://www.w3.org/Graphics/SVG/1.1/DTD/svg11.dtd">
<svg width="192pt" height="192pt" viewBox="0 0 192 192" version="1.1" xmlns="http://www.w3.org/2000/svg">
<g id="#617080ff">
<path fill="#617080" opacity="1.00" d=" M 107.43 19.65 C 116.83 17.63 127.36 25.13 127.36 35.01 C 128.57 44.59 119.51 53.55 110.03 52.77 C 102.07 52.57 94.64 46.07 93.89 38.05 C 92.78 29.62 99.14 21.20 107.43 19.65 M 108.26 31.19 C 104.70 32.79 103.88 38.41 107.46 40.46 C 110.76 43.21 116.67 40.39 115.98 35.98 C 116.46 32.10 111.46 29.41 108.26 31.19 Z" />
<path fill="#617080" opacity="1.00" d=" M 137.20 38.88 C 144.91 41.24 150.46 47.49 155.83 53.16 C 163.61 61.84 170.52 72.17 172.07 83.96 C 173.53 94.12 166.14 104.62 156.01 106.40 C 144.16 106.71 132.26 106.23 120.41 106.68 C 116.24 108.30 113.18 112.08 110.93 115.84 C 106.52 124.40 102.31 133.05 97.71 141.51 C 94.95 137.94 88.67 133.90 91.92 128.91 C 98.30 117.01 101.67 102.47 113.18 94.19 C 121.50 86.87 134.35 90.05 142.72 82.71 C 147.34 79.11 143.70 71.42 139.05 70.19 C 122.80 75.51 105.51 77.87 88.43 77.12 C 91.09 74.54 95.12 74.73 98.40 73.42 C 115.47 68.38 132.17 56.78 137.20 38.88 Z" />
<path fill="#617080" opacity="1.00" d=" M 18.91 64.14 C 14.72 59.76 21.15 52.37 26.06 55.86 C 34.82 63.72 42.75 72.49 51.31 80.58 C 61.87 80.61 72.45 80.29 82.99 80.72 C 88.48 81.76 88.43 90.80 82.86 91.58 C 71.59 91.93 60.28 91.66 48.99 91.71 C 46.07 92.01 44.19 89.49 42.29 87.70 C 34.58 79.77 26.49 72.19 18.91 64.14 Z" />
<path fill="#617080" opacity="1.00" d=" M 56.38 95.35 C 60.17 92.89 65.35 96.59 64.73 100.93 C 64.68 118.58 64.88 136.25 64.64 153.89 C 64.34 160.26 53.83 160.22 53.58 153.84 C 53.32 136.55 53.57 119.25 53.46 101.96 C 53.31 99.45 53.96 96.60 56.38 95.35 Z" />
<path fill="#617080" opacity="1.00" d=" M 76.25 101.35 C 83.73 99.62 86.15 109.28 90.59 113.43 C 95.51 117.49 90.68 126.07 84.69 123.28 C 80.38 119.95 77.82 114.83 74.32 110.70 C 71.53 107.92 72.51 102.71 76.25 101.35 Z" />
<path fill="#617080" opacity="1.00" d=" M 87.30 141.28 C 91.41 138.93 96.82 143.53 95.11 147.96 C 92.94 153.74 90.93 159.65 88.10 165.14 C 84.47 170.33 75.74 165.14 78.56 159.42 C 81.57 153.51 82.21 145.74 87.30 141.28 Z" />
</g>
</svg>
