<?xml version="1.0" encoding="UTF-8" ?>
<!DOCTYPE svg PUBLIC "-//W3C//DTD SVG 1.1//EN" "http://www.w3.org/Graphics/SVG/1.1/DTD/svg11.dtd">
<svg width="192pt" height="192pt" viewBox="0 0 192 192" version="1.1" xmlns="http://www.w3.org/2000/svg">
<g id="#7974d1ff">
<path fill="#7974d1" opacity="1.00" d=" M 37.37 21.54 C 41.50 20.49 45.79 20.78 50.00 20.76 C 83.00 20.79 115.99 20.73 148.98 20.76 C 160.71 20.54 171.36 31.22 170.75 43.00 C 170.93 47.06 165.71 49.78 162.40 47.53 C 159.35 45.90 159.88 42.00 158.90 39.17 C 157.45 34.14 151.97 31.52 147.01 31.84 C 112.66 31.83 78.32 31.73 43.97 31.81 C 37.85 31.43 31.91 36.65 32.31 42.94 C 32.27 77.98 32.31 113.02 32.31 148.06 C 31.83 154.40 37.76 159.86 44.00 159.31 C 78.66 159.30 113.33 159.28 147.99 159.26 C 153.79 159.71 159.47 154.90 159.51 149.00 C 159.79 136.67 159.28 124.32 159.73 112.01 C 160.12 105.77 170.41 105.87 170.68 112.10 C 170.95 124.41 170.75 136.74 170.78 149.06 C 170.92 160.59 160.44 170.73 148.97 170.53 C 113.66 170.56 78.33 170.54 43.02 170.50 C 31.54 170.73 21.08 160.60 21.17 149.07 C 21.09 113.71 21.17 78.33 21.18 42.96 C 20.85 33.21 27.94 23.93 37.37 21.54 Z" />
<path fill="#7974d1" opacity="1.00" d=" M 117.28 54.34 C 131.82 53.72 146.43 54.30 161.00 54.02 C 164.16 53.99 168.28 53.72 170.02 57.01 C 172.35 60.56 169.27 65.89 164.99 65.51 C 149.34 65.56 133.66 65.68 118.01 65.42 C 111.85 65.26 111.22 55.31 117.28 54.34 Z" />
<path fill="#7974d1" opacity="1.00" d=" M 116.35 72.39 C 132.81 71.50 149.46 72.19 165.99 72.05 C 172.19 72.51 172.32 82.80 166.00 83.19 C 150.01 83.51 133.98 83.40 117.98 83.23 C 112.36 83.02 111.09 74.30 116.35 72.39 Z" />
<path fill="#7974d1" opacity="1.00" d=" M 68.37 89.44 C 83.22 86.63 98.80 97.36 101.73 112.13 C 104.99 125.78 96.81 140.87 83.66 145.68 C 69.01 151.80 50.68 143.40 45.61 128.41 C 38.94 111.95 50.83 91.78 68.37 89.44 M 67.31 101.35 C 59.95 103.72 54.72 111.29 55.19 119.02 C 55.24 128.32 63.71 136.51 73.01 136.28 C 81.65 136.52 89.68 129.58 90.85 121.04 C 93.34 108.34 79.39 96.62 67.31 101.35 Z" />
<path fill="#7974d1" opacity="1.00" d=" M 117.27 90.31 C 131.82 89.70 146.42 90.27 160.99 89.99 C 164.16 89.97 168.29 89.68 170.02 92.99 C 172.39 96.55 169.26 101.88 164.99 101.51 C 149.33 101.58 133.66 101.71 118.01 101.42 C 111.85 101.27 111.20 91.29 117.27 90.31 Z" />
</g>
</svg>
