<?xml version="1.0" encoding="UTF-8" ?>
<!DOCTYPE svg PUBLIC "-//W3C//DTD SVG 1.1//EN" "http://www.w3.org/Graphics/SVG/1.1/DTD/svg11.dtd">
<svg width="192pt" height="192pt" viewBox="0 0 192 192" version="1.1" xmlns="http://www.w3.org/2000/svg">
<g id="#60bef0ff">
<path fill="#60bef0" opacity="1.00" d=" M 44.26 36.22 C 47.89 26.39 57.40 18.97 68.00 18.81 C 85.99 18.69 103.99 18.76 121.98 18.76 C 132.66 18.61 142.89 25.81 146.34 35.93 C 159.98 35.37 173.32 45.95 174.05 59.92 C 174.30 83.29 174.16 106.68 174.12 130.05 C 173.86 144.03 160.61 155.83 146.70 154.62 C 142.74 164.09 133.64 171.64 123.07 171.73 C 104.70 171.83 86.31 171.80 67.94 171.70 C 57.42 171.65 48.13 164.21 44.30 154.65 C 30.52 155.63 17.41 143.97 17.15 130.09 C 17.05 107.03 17.08 83.97 17.15 60.91 C 17.31 46.98 30.45 35.28 44.26 36.22 M 65.30 30.41 C 58.72 31.77 54.13 38.35 54.38 44.94 C 54.24 78.31 54.28 111.68 54.38 145.05 C 53.87 152.79 60.09 160.36 68.01 160.46 C 86.00 160.60 103.99 160.51 121.97 160.49 C 129.78 160.72 136.66 153.77 136.52 145.99 C 136.63 112.31 136.59 78.62 136.57 44.94 C 136.95 37.09 130.03 29.68 122.06 30.10 C 103.15 30.33 84.15 29.10 65.30 30.41 M 147.79 47.46 C 147.82 79.15 147.73 110.85 147.87 142.53 C 154.72 144.73 162.49 137.13 162.71 130.01 C 162.90 107.32 162.77 84.62 162.78 61.93 C 162.96 53.94 155.64 47.25 147.79 47.46 M 28.41 61.94 C 28.37 84.31 28.35 106.69 28.42 129.07 C 28.31 136.85 35.37 143.44 43.04 143.42 C 43.08 111.41 43.08 79.41 43.10 47.40 C 35.36 47.40 28.19 54.05 28.41 61.94 Z" />
</g>
</svg>
