<?xml version="1.0" encoding="UTF-8" ?>
<!DOCTYPE svg PUBLIC "-//W3C//DTD SVG 1.1//EN" "http://www.w3.org/Graphics/SVG/1.1/DTD/svg11.dtd">
<svg width="192pt" height="192pt" viewBox="0 0 192 192" version="1.1" xmlns="http://www.w3.org/2000/svg">
<g id="#45e372ff">
<path fill="#45e372" opacity="1.00" d=" M 55.85 32.81 C 73.68 19.68 97.32 19.59 118.33 22.62 C 133.71 24.77 148.39 36.17 150.75 52.10 C 153.33 71.88 149.36 92.05 142.58 110.62 C 140.47 116.26 131.06 112.86 133.16 107.14 C 138.92 89.69 143.28 71.03 140.41 52.60 C 138.03 40.38 125.61 33.38 114.03 32.28 C 95.46 30.11 74.09 30.15 59.25 43.25 C 49.38 52.86 45.33 66.85 42.71 80.00 C 41.15 91.09 39.72 104.20 47.69 113.30 C 55.69 122.50 68.68 123.85 80.11 124.15 C 87.10 124.17 91.22 130.42 93.89 136.05 C 99.41 144.20 102.57 156.21 113.57 158.45 C 124.22 159.99 135.07 159.12 145.81 159.22 C 146.70 154.75 147.64 150.30 148.49 145.83 C 137.89 145.08 126.00 148.23 116.41 142.60 C 108.11 134.80 105.04 122.97 97.42 114.59 C 90.88 108.60 81.35 112.73 73.56 110.54 C 66.00 109.36 59.70 103.20 58.47 95.63 C 56.38 82.95 59.82 69.90 65.77 58.70 C 71.73 47.10 85.87 43.36 97.98 43.57 C 106.81 43.53 116.98 46.13 121.49 54.47 C 126.61 63.61 123.17 74.24 121.80 83.89 C 120.95 87.06 121.43 91.31 118.35 93.32 C 115.31 95.53 110.38 92.83 110.64 89.08 C 111.43 80.15 114.80 71.31 113.59 62.31 C 112.21 55.23 104.02 53.78 97.98 53.74 C 89.29 53.75 78.50 55.59 74.35 64.33 C 69.61 74.11 65.98 85.86 69.48 96.55 C 75.42 104.51 86.92 98.98 95.11 101.86 C 107.47 105.11 111.80 118.35 118.11 127.95 C 120.03 130.77 121.36 135.17 125.41 135.33 C 134.93 136.20 144.50 135.29 154.03 135.80 C 157.49 135.75 160.31 139.21 159.60 142.59 C 158.42 149.57 156.80 156.48 155.41 163.42 C 154.99 166.60 152.46 169.67 149.02 169.46 C 138.36 169.51 127.68 169.76 117.02 169.27 C 108.05 168.85 99.23 164.38 94.24 156.81 C 90.05 150.21 86.36 143.31 82.39 136.58 C 80.40 132.82 75.33 134.71 71.92 133.89 C 56.11 133.38 39.09 125.13 33.69 109.35 C 29.12 94.88 31.70 79.13 35.81 64.85 C 39.75 52.82 45.23 40.41 55.85 32.81 Z" />
</g>
</svg>
