<?xml version="1.0" encoding="UTF-8" ?>
<!DOCTYPE svg PUBLIC "-//W3C//DTD SVG 1.1//EN" "http://www.w3.org/Graphics/SVG/1.1/DTD/svg11.dtd">
<svg width="192pt" height="192pt" viewBox="0 0 192 192" version="1.1" xmlns="http://www.w3.org/2000/svg">
<g id="#6fc1ecff">
<path fill="#6fc1ec" opacity="1.00" d=" M 86.38 12.50 C 117.94 8.56 150.58 25.11 166.36 52.65 C 179.80 75.20 181.42 104.44 170.15 128.19 C 167.10 134.04 157.22 129.20 160.28 123.13 C 169.09 103.25 168.40 79.34 157.84 60.25 C 145.77 37.66 120.71 22.57 95.00 23.25 C 65.54 22.91 37.43 43.38 28.43 71.39 C 27.28 74.45 26.89 79.17 22.87 79.71 C 19.13 80.72 15.23 76.93 16.32 73.17 C 24.17 41.05 53.52 15.79 86.38 12.50 Z" />
<path fill="#6fc1ec" opacity="1.00" d=" M 91.48 52.67 C 106.70 50.70 122.49 58.57 130.24 71.76 C 139.18 86.20 137.53 106.55 125.78 118.95 C 121.46 122.21 115.79 115.61 119.89 111.87 C 130.39 99.51 128.56 79.21 116.01 68.95 C 103.90 58.07 83.42 59.48 72.94 71.95 C 62.99 82.77 62.63 100.64 72.06 111.90 C 76.21 115.63 70.45 122.26 66.18 118.89 C 54.98 107.03 52.96 87.93 60.65 73.67 C 66.65 62.16 78.57 54.01 91.48 52.67 Z" />
<path fill="#6fc1ec" opacity="1.00" d=" M 24.93 135.04 C 16.74 120.55 12.05 103.12 14.95 86.57 C 20.97 104.70 34.46 120.84 52.88 127.11 C 70.90 134.09 90.31 129.38 108.92 128.48 C 128.25 126.68 147.89 133.04 163.12 144.89 C 166.60 147.66 165.27 153.92 160.94 155.01 C 158.11 156.12 155.57 154.15 153.39 152.63 C 142.24 144.76 128.73 139.94 115.00 140.25 C 99.30 140.56 83.70 143.70 67.97 142.61 C 57.73 141.85 47.90 138.48 38.71 134.06 C 52.10 153.63 76.43 165.01 100.06 162.81 C 113.39 161.85 128.66 160.07 139.74 169.25 C 144.55 173.68 138.07 182.19 132.56 178.53 C 121.08 170.84 106.80 175.34 94.00 175.04 C 66.04 175.17 38.90 159.18 24.93 135.04 Z" />
</g>
</svg>
