<?xml version="1.0" encoding="UTF-8" ?>
<!DOCTYPE svg PUBLIC "-//W3C//DTD SVG 1.1//EN" "http://www.w3.org/Graphics/SVG/1.1/DTD/svg11.dtd">
<svg width="192pt" height="192pt" viewBox="0 0 192 192" version="1.1" xmlns="http://www.w3.org/2000/svg">
<g id="#19b0ffff">
<path fill="#19b0ff" opacity="1.00" d=" M 37.38 22.56 C 41.44 21.18 45.77 21.34 50.00 21.35 C 82.32 21.39 114.65 21.29 146.98 21.36 C 155.84 21.38 164.36 26.90 168.02 34.96 C 170.78 40.57 170.30 47.01 170.16 53.07 C 170.30 57.28 164.85 60.08 161.52 57.49 C 157.54 54.62 159.43 49.06 158.96 44.93 C 159.27 38.41 153.45 32.52 146.97 32.56 C 112.96 32.50 78.95 32.54 44.95 32.51 C 38.23 32.19 32.11 38.21 32.35 44.93 C 32.20 49.68 33.83 57.83 27.02 58.43 C 20.79 58.68 20.77 51.41 21.17 46.99 C 20.32 36.39 27.14 25.72 37.38 22.56 Z" />
<path fill="#19b0ff" opacity="1.00" d=" M 23.43 73.42 C 28.12 68.39 35.77 69.40 42.00 69.20 C 47.77 69.26 55.69 69.47 58.20 75.81 C 60.94 83.56 59.42 91.96 59.83 100.00 C 59.70 107.04 60.84 115.90 54.28 120.59 C 55.86 123.69 58.16 126.58 58.38 130.18 C 55.27 130.35 52.12 130.73 49.04 130.16 C 46.57 128.29 45.74 125.05 44.28 122.44 C 37.38 122.12 29.06 123.64 23.60 118.42 C 19.01 111.92 20.85 103.44 20.46 96.00 C 20.86 88.50 19.04 80.07 23.43 73.42 M 34.24 79.12 C 31.18 80.28 31.60 84.28 31.42 86.94 C 31.65 94.38 30.99 101.88 31.80 109.29 C 32.27 113.28 36.98 113.14 40.00 113.18 C 43.31 113.31 48.45 113.10 48.55 108.66 C 49.04 100.17 49.00 91.61 48.58 83.12 C 47.74 76.52 38.82 78.32 34.24 79.12 Z" />
<path fill="#19b0ff" opacity="1.00" d=" M 68.19 70.12 C 71.33 70.15 78.01 67.99 77.97 72.95 C 78.33 84.93 77.57 96.95 78.34 108.90 C 78.89 114.08 85.34 113.12 89.05 113.09 C 92.19 113.42 95.42 111.46 95.23 108.01 C 95.74 96.35 95.26 84.67 95.46 73.00 C 95.46 67.93 102.55 70.02 105.76 70.36 C 107.36 81.36 106.00 92.81 106.46 103.99 C 106.46 110.16 106.22 118.93 99.06 121.11 C 91.45 123.07 83.23 122.88 75.54 121.46 C 69.74 120.47 67.27 114.37 67.19 109.10 C 66.83 97.73 67.18 86.34 67.02 74.96 C 67.21 73.36 66.61 71.20 68.19 70.12 Z" />
<path fill="#19b0ff" opacity="1.00" d=" M 116.16 70.08 C 119.31 70.16 125.93 68.02 125.95 72.95 C 125.99 88.61 126.29 104.30 125.80 119.94 C 124.26 122.82 116.69 122.82 115.10 119.95 C 114.60 105.32 115.07 90.64 114.87 76.00 C 115.12 74.04 114.32 71.45 116.16 70.08 Z" />
<path fill="#19b0ff" opacity="1.00" d=" M 134.30 70.30 C 144.10 69.27 154.14 70.16 164.03 69.85 C 169.53 68.82 168.39 76.15 167.35 79.39 C 160.78 90.52 153.57 101.27 146.86 112.32 C 153.66 112.68 160.54 111.87 167.29 112.70 C 169.37 114.86 168.06 118.44 168.25 121.18 C 156.85 122.16 145.15 121.99 133.75 121.28 C 132.21 117.69 132.74 113.21 134.95 109.98 C 141.40 99.74 147.89 89.53 154.24 79.23 C 148.48 79.22 142.71 79.29 136.95 79.24 C 132.15 79.87 132.80 73.01 134.30 70.30 Z" />
<path fill="#19b0ff" opacity="1.00" d=" M 25.37 133.40 C 31.04 131.94 33.34 138.51 32.34 143.00 C 31.00 150.37 35.95 158.72 43.90 158.93 C 77.95 159.09 112.01 158.97 146.07 158.99 C 153.07 159.44 159.56 153.12 158.97 146.06 C 158.97 141.50 157.78 133.95 164.11 133.21 C 169.55 132.64 170.94 138.81 170.28 143.01 C 172.60 158.86 157.60 172.81 142.00 170.26 C 109.33 170.17 76.65 170.37 43.98 170.16 C 31.44 170.08 20.57 158.56 21.17 146.04 C 21.31 141.70 19.79 134.92 25.37 133.40 Z" />
</g>
</svg>
