<?xml version="1.0" encoding="UTF-8" ?>
<!DOCTYPE svg PUBLIC "-//W3C//DTD SVG 1.1//EN" "http://www.w3.org/Graphics/SVG/1.1/DTD/svg11.dtd">
<svg width="192pt" height="192pt" viewBox="0 0 192 192" version="1.1" xmlns="http://www.w3.org/2000/svg">
<g id="#45e372ff">
<path fill="#45e372" opacity="1.00" d=" M 52.68 26.72 C 62.58 21.91 73.11 18.52 83.37 14.59 C 83.84 20.97 76.00 21.56 71.72 23.78 C 64.08 26.15 56.88 30.81 49.06 31.92 C 49.53 29.78 50.44 27.54 52.68 26.72 Z" />
<path fill="#45e372" opacity="1.00" d=" M 32.05 45.13 C 53.65 32.24 77.73 24.11 102.12 18.37 C 106.24 17.09 111.85 20.24 110.88 25.02 C 109.31 34.37 101.80 41.05 95.93 47.95 C 94.03 49.76 92.81 52.74 89.94 53.11 C 90.74 43.26 100.24 37.84 105.25 30.22 C 105.94 29.32 105.05 28.18 105.00 27.20 C 86.45 26.93 69.57 36.45 52.43 42.43 C 51.96 45.92 51.18 49.37 51.08 52.90 C 51.87 52.99 53.45 53.17 54.25 53.26 C 55.06 56.29 52.14 60.48 48.99 58.05 C 45.46 54.17 48.31 48.39 49.11 43.92 C 44.28 45.98 39.57 48.33 35.07 51.04 C 45.96 59.04 57.25 66.47 68.18 74.40 C 72.80 72.63 77.59 71.23 82.59 71.32 C 80.44 61.21 74.87 50.44 79.34 40.20 C 79.93 40.17 81.12 40.11 81.72 40.07 C 83.69 44.41 86.18 48.54 87.61 53.10 C 86.94 53.19 85.61 53.36 84.95 53.45 C 85.36 61.43 88.48 70.03 95.47 74.58 C 99.59 76.81 98.61 82.15 97.48 85.87 C 91.65 82.03 85.12 78.64 77.82 80.33 C 87.82 88.73 97.45 97.74 107.90 105.56 C 106.67 91.03 104.63 76.57 102.74 62.11 C 101.74 61.79 100.73 61.47 99.73 61.15 C 99.25 64.62 100.66 68.83 98.88 71.86 C 95.75 70.23 94.78 65.73 90.89 65.24 C 87.95 65.00 88.17 61.51 88.72 59.42 C 91.51 59.56 93.86 61.06 96.03 62.68 C 96.63 60.23 97.60 57.88 99.17 55.89 C 100.18 56.18 101.19 56.47 102.20 56.76 C 102.25 53.61 100.86 47.90 104.92 46.94 C 108.88 51.81 112.06 57.89 112.49 64.27 C 111.74 64.34 110.25 64.49 109.51 64.57 C 110.14 69.24 110.82 73.91 111.04 78.63 C 111.36 78.70 112.01 78.85 112.33 78.92 C 112.40 75.47 111.82 69.67 116.19 68.67 C 116.07 71.68 115.88 74.70 115.77 77.71 C 117.16 77.79 118.55 77.80 119.94 77.73 C 119.78 80.22 120.49 84.51 116.96 84.83 C 114.01 85.29 113.90 80.76 112.23 80.29 C 111.39 86.01 113.44 92.22 113.83 98.13 C 116.92 96.45 119.94 94.65 123.07 93.07 C 120.15 71.06 117.44 49.03 114.07 27.09 C 113.85 24.19 114.09 20.20 116.89 18.60 C 120.23 24.19 124.50 29.90 124.75 36.63 C 123.62 36.44 122.49 36.24 121.36 36.03 C 122.92 51.92 125.59 67.69 127.54 83.54 C 128.84 89.39 128.27 95.75 130.65 101.27 C 131.58 99.18 132.71 97.20 133.96 95.29 C 136.10 96.40 138.20 97.61 140.11 99.10 C 141.12 97.79 142.11 96.47 143.13 95.16 C 146.24 96.75 148.60 99.32 150.82 101.95 C 149.48 104.02 148.43 106.55 146.05 107.65 C 144.03 106.90 142.48 105.30 140.83 103.97 C 139.79 105.09 138.76 106.21 137.72 107.31 C 134.68 106.53 132.39 104.42 130.77 101.80 C 128.51 104.20 128.63 107.92 126.37 110.34 C 123.80 113.41 119.93 114.82 116.35 116.34 C 116.21 124.36 117.58 133.40 113.06 140.50 C 112.66 140.36 111.84 140.07 111.43 139.93 C 111.25 132.01 111.08 124.07 109.74 116.23 C 99.14 111.43 92.22 101.64 83.21 94.63 C 86.62 100.55 89.21 109.28 83.83 114.82 C 72.51 124.34 54.78 123.01 45.38 135.34 C 44.27 141.23 46.17 148.23 51.54 151.49 C 57.51 155.17 65.08 154.50 71.61 152.87 C 72.85 149.15 74.32 145.52 75.83 141.90 C 72.70 139.63 71.15 135.59 74.88 132.96 C 79.63 131.74 82.90 128.05 85.61 124.19 C 81.35 119.98 86.38 109.87 91.76 115.72 C 92.04 112.87 92.73 110.08 94.28 107.65 C 98.25 110.70 101.38 114.68 104.32 118.70 C 103.26 119.28 102.19 119.85 101.13 120.43 C 104.56 126.74 108.21 134.77 103.54 141.48 C 97.04 150.98 85.93 155.84 75.61 160.05 C 75.60 164.25 77.37 171.14 82.91 170.03 C 91.75 166.36 96.08 157.06 102.73 150.73 C 110.55 142.75 121.75 140.09 131.35 135.00 C 130.18 128.37 128.56 120.65 132.70 114.71 C 135.08 111.12 141.12 110.51 143.50 114.43 C 149.61 122.02 146.92 133.17 140.07 139.33 C 144.56 144.39 152.26 142.88 156.86 138.81 C 154.44 114.33 151.44 89.89 147.86 65.56 C 147.44 67.18 147.04 68.81 146.63 70.43 C 145.08 71.64 143.60 72.93 142.12 74.23 C 142.49 77.99 142.77 81.76 143.08 85.52 C 144.03 82.75 144.85 79.79 147.17 77.81 C 147.96 81.38 147.05 84.98 146.92 88.56 C 148.03 88.38 149.14 88.19 150.25 88.01 C 150.23 91.11 149.46 94.44 146.13 95.49 C 145.02 93.86 143.90 92.23 142.76 90.62 C 141.61 92.73 142.49 97.96 138.97 97.20 C 137.51 91.50 138.30 85.43 136.68 79.71 C 133.85 81.43 131.02 83.61 127.54 83.54 C 129.67 80.08 132.91 77.56 135.75 74.72 C 134.00 60.45 132.34 46.15 129.65 32.02 C 129.01 29.31 130.31 26.73 131.40 24.33 C 131.91 24.36 132.93 24.43 133.44 24.46 C 136.51 29.63 139.80 35.02 140.60 41.07 C 140.97 42.81 138.89 42.27 137.91 42.36 C 138.59 48.52 139.67 54.64 140.37 60.80 C 142.39 58.83 144.97 57.61 147.44 59.73 C 146.76 53.53 145.48 47.37 145.30 41.14 C 145.94 39.47 146.25 35.77 148.65 36.36 C 152.72 41.24 154.88 47.50 156.19 53.64 C 155.48 53.77 154.08 54.03 153.38 54.16 C 154.95 79.87 159.27 105.34 161.79 130.95 C 161.96 137.18 161.00 144.63 155.31 148.31 C 150.57 150.97 143.75 152.43 139.27 148.52 C 137.17 146.88 135.80 144.54 134.26 142.40 C 126.81 145.38 119.42 148.56 112.37 152.40 C 102.38 158.27 97.51 169.76 87.89 176.05 C 79.03 179.05 71.75 170.25 71.12 162.10 C 69.70 162.14 68.28 162.19 66.86 162.26 C 66.80 163.97 66.65 165.67 66.67 167.39 C 67.58 167.28 69.41 167.06 70.32 166.95 C 69.87 169.30 69.52 173.40 66.12 172.82 C 61.63 171.76 63.23 165.95 63.55 162.66 C 57.56 162.95 50.80 162.16 46.52 157.49 C 41.82 152.79 41.02 145.87 40.55 139.57 C 38.65 141.65 39.47 145.04 38.23 147.56 C 39.01 147.71 40.55 148.02 41.33 148.17 C 41.70 150.60 40.06 154.34 37.05 153.09 C 33.60 151.00 35.13 146.38 35.92 143.23 C 28.06 145.06 20.84 137.56 20.81 129.99 C 20.30 124.16 22.72 118.71 24.69 113.38 C 19.84 111.09 15.27 106.78 15.23 101.05 C 14.44 93.78 17.84 87.06 21.32 80.94 C 18.83 73.51 22.81 66.06 27.32 60.35 C 31.31 56.25 27.75 49.14 32.05 45.13 M 26.95 74.98 C 28.53 73.65 30.09 72.15 32.19 71.72 C 32.88 77.73 27.47 81.11 24.08 85.05 C 21.40 90.67 17.79 97.33 20.55 103.58 C 22.11 107.28 27.21 107.09 29.98 104.94 C 40.56 98.33 49.38 89.30 58.07 80.47 C 49.23 74.06 40.79 67.13 31.92 60.76 C 28.83 64.79 25.49 69.63 26.95 74.98 M 29.74 113.83 C 25.89 120.06 22.42 129.74 27.99 135.98 C 32.88 138.80 37.04 133.18 40.07 130.05 C 51.24 117.40 69.36 116.31 82.70 107.00 C 79.37 98.27 71.72 92.31 64.81 86.46 C 52.32 94.57 43.70 107.85 29.74 113.83 M 114.31 102.26 C 114.49 103.92 114.65 105.58 114.81 107.25 C 118.35 107.77 121.49 105.95 124.23 103.94 C 124.01 101.64 123.80 99.34 123.55 97.04 C 120.46 98.76 117.36 100.47 114.31 102.26 M 92.20 117.01 C 90.24 120.75 94.51 124.39 92.14 127.82 C 87.08 125.46 84.81 132.20 81.02 134.30 C 81.91 135.52 82.81 136.72 83.71 137.93 C 81.44 142.22 77.84 145.85 76.88 150.77 C 85.65 147.19 94.18 142.53 100.92 135.76 C 98.43 129.35 95.69 122.89 92.20 117.01 M 136.92 132.02 C 143.49 130.78 142.92 121.73 137.15 120.13 C 132.39 122.22 135.18 128.57 136.92 132.02 Z" />
<path fill="#45e372" opacity="1.00" d=" M 89.99 45.89 C 85.52 42.55 85.74 35.53 88.92 31.43 C 91.62 32.63 89.65 37.01 89.97 39.55 C 91.07 39.28 92.15 38.94 93.20 38.52 C 93.62 41.46 92.26 44.10 89.99 45.89 Z" />
<path fill="#45e372" opacity="1.00" d=" M 107.57 35.40 C 110.17 35.51 113.26 35.82 114.69 38.32 C 117.23 41.96 112.85 47.73 108.76 46.35 C 104.77 44.19 106.93 38.87 107.57 35.40 Z" />
<path fill="#45e372" opacity="1.00" d=" M 62.93 54.12 C 60.11 49.88 61.09 41.29 65.87 38.94 C 66.42 42.43 64.98 45.83 65.33 49.33 C 71.40 48.37 67.04 57.87 62.93 54.12 Z" />
<path fill="#45e372" opacity="1.00" d=" M 126.60 58.39 C 123.46 55.14 123.20 46.13 128.21 44.74 C 128.20 47.48 128.12 50.22 128.02 52.96 C 129.08 52.72 130.14 52.48 131.20 52.25 C 132.38 55.32 130.67 60.85 126.60 58.39 Z" />
<path fill="#45e372" opacity="1.00" d=" M 161.24 51.83 C 166.30 56.15 170.00 63.25 170.32 69.94 C 169.27 69.67 168.22 69.40 167.17 69.13 C 167.87 75.01 168.49 80.91 169.64 86.72 C 171.09 84.40 170.46 79.70 173.99 79.68 C 173.90 82.83 173.66 85.98 173.46 89.13 C 180.36 89.63 175.10 99.26 170.55 94.04 C 171.66 105.60 174.86 118.04 170.08 129.15 C 169.54 129.30 168.46 129.61 167.92 129.77 C 166.17 105.75 163.09 81.78 159.15 58.00 C 159.20 55.79 160.43 53.83 161.24 51.83 Z" />
<path fill="#45e372" opacity="1.00" d=" M 68.46 61.04 C 68.66 57.96 69.67 53.90 73.02 53.02 C 76.07 53.61 76.66 56.60 76.22 59.26 C 74.80 59.25 73.37 59.23 71.95 59.21 C 71.62 63.03 72.22 67.06 70.72 70.69 C 67.07 71.06 67.39 64.96 63.87 64.36 C 60.19 63.99 60.10 59.72 61.19 57.00 C 64.23 56.90 66.52 58.97 68.46 61.04 Z" />
<path fill="#45e372" opacity="1.00" d=" M 40.38 71.46 C 42.88 69.38 46.40 72.01 45.53 75.01 C 44.69 78.79 49.18 81.69 47.16 85.45 C 45.91 84.73 44.65 84.03 43.40 83.31 C 38.49 90.43 31.76 97.01 23.69 100.25 C 27.10 92.62 35.84 88.50 40.06 81.12 C 37.60 78.43 36.81 73.60 40.38 71.46 Z" />
<path fill="#45e372" opacity="1.00" d=" M 98.04 95.92 C 96.51 92.06 97.00 83.59 101.85 83.12 C 101.49 86.03 101.18 88.94 100.92 91.85 C 101.82 91.78 103.60 91.65 104.50 91.58 C 105.39 95.31 100.84 100.21 98.04 95.92 Z" />
<path fill="#45e372" opacity="1.00" d=" M 53.79 103.94 C 54.95 101.61 56.35 99.41 57.99 97.38 C 59.92 98.77 61.80 100.22 63.67 101.69 C 64.57 100.48 65.45 99.25 66.33 98.02 C 69.74 98.34 72.09 101.51 73.87 104.13 C 73.61 106.89 71.44 108.97 69.22 110.38 C 67.62 108.97 66.02 107.57 64.36 106.23 C 63.26 107.46 62.16 108.68 61.08 109.92 C 58.05 108.75 55.90 106.30 53.79 103.94 Z" />
<path fill="#45e372" opacity="1.00" d=" M 46.65 112.97 C 47.13 110.48 47.06 106.59 50.03 105.78 C 53.34 105.99 54.62 109.76 53.27 112.44 C 52.51 112.40 50.99 112.32 50.23 112.29 C 49.89 115.44 49.82 118.68 48.70 121.69 C 46.09 122.13 45.59 118.42 44.08 116.89 C 42.01 116.51 40.33 115.40 38.94 113.85 C 39.12 112.18 39.50 110.55 39.93 108.92 C 42.89 108.76 44.85 110.97 46.65 112.97 Z" />
<path fill="#45e372" opacity="1.00" d=" M 31.63 129.37 C 28.68 125.06 31.27 118.99 34.12 115.17 C 37.19 116.84 33.85 120.96 33.93 123.70 C 34.75 123.69 36.37 123.68 37.18 123.67 C 38.47 126.84 34.93 133.21 31.63 129.37 Z" />
<path fill="#45e372" opacity="1.00" d=" M 119.39 129.70 C 116.24 125.86 119.83 120.87 124.36 121.23 C 124.62 123.97 126.15 125.84 128.98 126.00 C 126.84 130.28 122.04 132.19 117.85 133.90 C 117.14 132.20 118.52 130.99 119.39 129.70 Z" />
<path fill="#45e372" opacity="1.00" d=" M 148.50 135.66 C 147.30 131.14 147.58 123.33 152.42 121.49 C 152.08 124.53 151.63 127.56 151.28 130.59 C 152.24 130.46 153.20 130.33 154.16 130.20 C 156.43 133.74 151.78 139.66 148.50 135.66 Z" />
<path fill="#45e372" opacity="1.00" d=" M 59.40 130.44 C 65.33 128.26 70.85 125.03 76.91 123.22 C 79.24 124.29 76.35 127.09 75.21 128.22 C 68.77 131.73 61.75 134.10 55.18 137.37 C 55.54 138.96 55.89 140.55 56.26 142.14 C 53.08 143.83 49.55 140.25 50.62 137.01 C 51.53 132.90 56.11 131.94 59.40 130.44 Z" />
<path fill="#45e372" opacity="1.00" d=" M 87.95 128.56 C 91.33 129.10 95.80 130.86 95.79 134.92 C 96.08 139.46 88.86 143.07 86.51 138.41 C 85.88 135.07 87.18 131.76 87.95 128.56 Z" />
<path fill="#45e372" opacity="1.00" d=" M 65.54 136.46 C 67.92 135.48 69.49 137.83 70.98 139.24 C 70.51 140.37 70.08 141.51 69.67 142.66 C 68.79 142.50 67.91 142.34 67.04 142.17 C 67.30 145.80 67.46 149.82 65.08 152.84 C 63.33 147.45 54.39 146.60 57.09 140.20 C 59.65 140.02 61.71 141.35 63.44 143.09 C 63.83 140.82 63.76 138.18 65.54 136.46 Z" />
<path fill="#45e372" opacity="1.00" d=" M 136.82 163.18 C 134.61 158.79 135.28 151.83 139.27 148.52 C 140.21 151.63 139.21 154.83 138.80 157.94 C 140.14 157.43 141.52 156.98 142.97 157.08 C 142.88 160.11 140.64 166.46 136.82 163.18 Z" />
<path fill="#45e372" opacity="1.00" d=" M 128.26 154.38 C 131.52 154.44 134.20 158.08 131.99 160.94 C 130.79 160.68 129.59 160.42 128.39 160.16 C 127.99 163.76 129.06 169.01 125.20 171.00 C 123.69 168.20 122.81 164.49 119.29 163.65 C 115.98 162.65 116.53 158.70 117.46 156.16 C 120.73 156.20 123.03 158.60 124.78 161.08 C 125.39 158.66 125.75 155.62 128.26 154.38 Z" />
<path fill="#45e372" opacity="1.00" d=" M 106.62 172.41 C 105.75 168.48 104.99 159.67 110.35 159.45 C 109.89 162.27 109.57 165.11 109.10 167.93 C 110.38 167.36 111.75 167.01 113.09 166.58 C 113.84 170.12 110.24 176.66 106.62 172.41 Z" />
</g>
</svg>
