<?xml version="1.0" encoding="UTF-8" ?>
<!DOCTYPE svg PUBLIC "-//W3C//DTD SVG 1.1//EN" "http://www.w3.org/Graphics/SVG/1.1/DTD/svg11.dtd">
<svg width="192pt" height="192pt" viewBox="0 0 192 192" version="1.1" xmlns="http://www.w3.org/2000/svg">
<g id="#926b6bff">
<path fill="#926b6b" opacity="1.00" d=" M 74.91 15.90 C 96.99 9.77 121.87 13.23 140.97 26.05 C 145.88 30.19 139.64 38.59 134.26 34.89 C 108.17 18.25 71.32 21.39 48.90 42.88 C 28.95 60.72 20.97 90.27 28.83 115.80 C 31.76 114.30 34.55 112.54 37.29 110.72 C 35.11 109.52 32.89 108.40 30.68 107.26 C 38.03 107.74 45.21 105.39 51.15 101.14 C 74.81 85.20 93.77 63.26 117.72 47.70 C 128.70 41.09 142.33 35.42 155.16 39.74 C 162.01 41.93 165.84 48.41 168.30 54.71 C 180.27 75.93 182.22 102.47 173.28 125.16 C 162.21 154.40 133.24 175.77 101.96 177.39 C 66.45 180.25 31.32 156.96 19.52 123.47 C 16.59 122.17 13.72 120.77 10.88 119.30 C 13.28 119.30 15.68 119.28 18.08 119.21 C 11.35 96.61 14.56 71.21 27.35 51.33 C 38.10 34.19 55.38 21.26 74.91 15.90 M 128.65 70.53 C 114.32 87.47 102.07 106.71 83.60 119.63 C 70.54 129.70 54.03 135.17 37.50 134.18 C 50.02 153.76 72.79 166.14 96.01 166.22 C 116.67 166.60 137.13 157.22 150.49 141.48 C 171.92 117.40 173.25 78.57 153.73 52.96 C 143.30 54.96 135.57 63.06 128.65 70.53 M 53.45 112.43 C 47.60 117.90 41.18 123.36 33.00 124.74 C 33.36 126.96 34.23 129.04 35.26 131.03 C 40.63 129.83 44.29 125.34 49.28 123.37 C 52.34 122.81 56.87 123.80 57.93 119.86 C 59.74 116.86 57.73 109.58 53.45 112.43 Z" />
</g>
</svg>
