<?xml version="1.0" encoding="UTF-8" ?>
<!DOCTYPE svg PUBLIC "-//W3C//DTD SVG 1.1//EN" "http://www.w3.org/Graphics/SVG/1.1/DTD/svg11.dtd">
<svg width="192pt" height="192pt" viewBox="0 0 192 192" version="1.1" xmlns="http://www.w3.org/2000/svg">
<g id="#a61affff">
<path fill="#a61aff" opacity="1.00" d=" M 82.37 13.45 C 116.42 7.46 152.65 26.14 167.96 57.03 C 185.39 89.96 177.00 134.50 147.77 157.90 C 144.34 159.97 139.36 157.07 139.63 153.00 C 139.69 148.93 143.91 147.01 146.19 144.19 C 168.02 121.91 171.96 84.87 155.77 58.30 C 144.05 38.36 122.11 24.87 98.96 23.81 C 70.65 21.88 42.61 39.24 31.08 65.04 C 17.71 93.63 25.90 130.60 50.71 150.32 C 56.10 153.83 50.93 163.05 45.15 159.90 C 17.83 139.75 6.92 101.38 17.38 69.38 C 26.35 40.54 52.49 17.98 82.37 13.45 Z" />
<path fill="#a61aff" opacity="1.00" d=" M 58.55 81.01 C 58.72 71.74 66.56 63.47 75.90 63.18 C 88.94 62.87 102.01 62.84 115.05 63.19 C 124.68 63.59 132.37 72.50 132.11 82.00 C 132.17 100.34 132.27 118.69 132.06 137.03 C 132.04 146.31 124.30 154.13 115.22 155.06 C 118.39 161.19 123.26 166.51 125.49 173.06 C 121.66 173.15 117.83 173.13 114.00 173.12 C 109.92 167.35 106.42 161.19 102.66 155.21 C 97.84 155.01 93.02 155.16 88.20 155.25 C 84.99 160.08 82.04 165.07 78.95 169.98 C 76.36 175.26 69.53 172.74 64.90 172.85 C 67.68 166.56 72.13 161.20 75.26 155.09 C 66.23 154.10 58.41 146.26 58.55 136.98 C 58.37 118.32 58.37 99.66 58.55 81.01 M 69.69 80.44 C 69.23 86.58 69.64 92.76 69.49 98.92 C 86.69 98.99 103.89 98.99 121.09 98.92 C 120.99 92.63 121.43 86.31 120.82 80.04 C 120.54 76.65 117.32 74.23 114.02 74.32 C 101.65 74.18 89.27 74.21 76.90 74.31 C 73.35 74.13 69.97 76.83 69.69 80.44 M 69.51 110.30 C 69.57 119.14 69.37 127.98 69.59 136.82 C 69.53 140.75 72.98 144.08 76.90 143.92 C 89.28 144.03 101.68 144.11 114.06 143.87 C 117.82 143.95 120.98 140.79 120.96 137.05 C 121.22 128.13 121.14 119.20 120.98 110.28 C 103.82 110.33 86.67 110.29 69.51 110.30 Z" />
<path fill="#a61aff" opacity="1.00" d=" M 79.24 123.16 C 83.08 121.00 88.26 124.66 87.44 129.00 C 87.01 133.14 81.54 135.33 78.38 132.65 C 75.25 130.33 75.71 124.84 79.24 123.16 Z" />
<path fill="#a61aff" opacity="1.00" d=" M 106.20 123.09 C 110.05 121.05 115.08 124.71 114.25 129.01 C 113.87 133.15 108.50 135.26 105.30 132.75 C 102.07 130.42 102.49 124.72 106.20 123.09 Z" />
</g>
</svg>
