<?xml version="1.0" encoding="UTF-8" ?>
<!DOCTYPE svg PUBLIC "-//W3C//DTD SVG 1.1//EN" "http://www.w3.org/Graphics/SVG/1.1/DTD/svg11.dtd">
<svg width="192pt" height="192pt" viewBox="0 0 192 192" version="1.1" xmlns="http://www.w3.org/2000/svg">
<g id="#19aeffff">
<path fill="#19aeff" opacity="1.00" d=" M 66.01 44.87 C 79.89 27.43 105.63 20.64 126.06 29.90 C 138.32 35.26 148.05 45.70 153.06 58.06 C 169.76 63.07 181.81 80.51 179.43 97.97 C 177.47 116.47 159.84 131.90 141.16 130.61 C 135.30 129.72 135.94 119.62 142.02 119.73 C 154.06 119.63 165.68 110.97 167.97 98.95 C 170.79 86.82 163.19 73.64 151.56 69.52 C 148.63 68.34 144.50 68.07 143.52 64.45 C 139.33 51.56 128.39 41.10 115.17 37.91 C 100.06 33.88 83.04 40.34 73.94 52.93 C 72.37 55.35 69.73 57.58 66.65 56.51 C 56.79 53.70 45.55 54.92 37.30 61.30 C 25.22 69.96 20.61 87.45 27.11 100.86 C 32.29 112.32 44.52 119.61 56.96 119.75 C 62.99 119.61 63.72 129.79 57.85 130.61 C 41.25 131.48 24.67 121.54 17.53 106.54 C 10.80 92.95 11.75 75.82 20.28 63.22 C 29.95 48.51 48.89 41.27 66.01 44.87 Z" />
<path fill="#19aeff" opacity="1.00" d=" M 93.68 62.64 C 92.88 56.69 101.50 56.64 100.81 62.52 C 105.59 64.20 110.00 67.71 111.29 72.81 C 112.63 79.06 111.02 85.57 112.19 91.84 C 113.09 94.96 116.61 95.45 119.30 96.05 C 119.38 97.55 119.90 99.47 117.95 99.97 C 112.77 100.38 107.55 99.90 102.36 100.22 C 101.22 102.70 100.30 106.14 96.97 106.24 C 93.92 105.67 93.58 102.18 91.77 100.25 C 86.40 99.51 80.75 101.04 75.53 99.43 C 73.21 95.89 78.26 95.52 80.44 94.45 C 84.66 90.60 81.94 84.02 82.67 79.01 C 81.82 71.72 86.56 64.51 93.68 62.64 Z" />
<path fill="#19aeff" opacity="1.00" d=" M 73.32 117.39 C 79.88 117.42 79.78 126.17 82.35 130.58 C 85.53 134.72 79.86 140.79 75.79 137.18 C 72.76 133.39 71.90 128.32 69.93 123.95 C 68.48 121.29 70.39 117.82 73.32 117.39 Z" />
<path fill="#19aeff" opacity="1.00" d=" M 96.32 117.42 C 103.01 117.08 102.91 126.05 105.49 130.41 C 108.55 134.33 103.76 140.45 99.43 137.54 C 95.98 134.15 95.41 128.88 93.37 124.63 C 91.67 121.92 93.12 118.05 96.32 117.42 Z" />
<path fill="#19aeff" opacity="1.00" d=" M 119.39 117.46 C 126.39 117.03 126.24 126.60 128.96 131.16 C 131.78 135.38 125.59 140.76 121.95 137.03 C 119.17 133.05 118.09 128.12 116.23 123.67 C 114.95 121.16 116.76 118.06 119.39 117.46 Z" />
<path fill="#19aeff" opacity="1.00" d=" M 83.34 143.51 C 89.90 143.44 89.82 152.19 92.37 156.57 C 95.68 160.79 89.89 167.01 85.74 163.24 C 82.82 159.33 81.84 154.27 79.93 149.82 C 78.54 147.23 80.60 143.96 83.34 143.51 Z" />
<path fill="#19aeff" opacity="1.00" d=" M 107.16 143.44 C 113.37 144.43 113.18 152.69 115.80 157.21 C 118.75 161.46 112.43 166.92 108.81 163.13 C 106.03 159.16 104.96 154.24 103.11 149.80 C 101.64 146.99 104.12 143.47 107.16 143.44 Z" />
<path fill="#19aeff" opacity="1.00" d=" M 130.20 143.45 C 136.54 144.17 136.33 152.65 138.99 157.15 C 141.95 161.44 135.53 167.03 131.91 163.04 C 129.22 159.00 128.07 154.13 126.25 149.67 C 124.91 146.94 127.28 143.56 130.20 143.45 Z" />
</g>
</svg>
