<?xml version="1.0" encoding="UTF-8" ?>
<!DOCTYPE svg PUBLIC "-//W3C//DTD SVG 1.1//EN" "http://www.w3.org/Graphics/SVG/1.1/DTD/svg11.dtd">
<svg width="192pt" height="192pt" viewBox="0 0 192 192" version="1.1" xmlns="http://www.w3.org/2000/svg">
<g id="#18bac6ff">
<path fill="#18bac6" opacity="1.00" d=" M 72.14 43.17 C 102.48 35.52 132.83 27.92 163.18 20.30 C 166.88 18.84 171.18 22.00 170.82 25.97 C 170.87 57.00 170.90 88.04 170.83 119.07 C 170.79 132.46 160.09 144.71 146.88 146.70 C 134.88 148.93 121.97 142.31 116.62 131.37 C 110.42 119.60 113.73 103.50 124.63 95.65 C 130.68 91.75 137.95 90.04 145.06 89.58 C 149.57 89.20 152.48 95.14 149.63 98.55 C 147.68 101.43 143.90 100.51 140.96 100.84 C 133.26 101.21 126.45 107.44 125.13 114.99 C 123.41 123.13 128.45 131.99 136.32 134.66 C 144.35 137.80 154.35 133.77 157.83 125.86 C 159.54 121.46 159.67 116.66 159.69 112.00 C 159.69 85.64 159.57 59.29 159.50 32.94 C 132.49 39.57 105.52 46.39 78.56 53.23 C 78.53 83.47 78.73 113.72 78.48 143.96 C 77.57 161.64 57.91 174.96 41.18 168.86 C 23.90 163.94 15.62 141.44 25.44 126.44 C 33.63 112.03 54.17 108.53 67.32 118.18 C 67.41 95.11 67.29 72.05 67.39 48.99 C 67.20 46.15 69.38 43.64 72.14 43.17 M 45.37 124.52 C 32.68 127.47 28.13 145.42 37.94 154.03 C 46.75 163.32 64.11 158.32 66.83 145.87 C 70.68 133.48 57.75 120.67 45.37 124.52 Z" />
</g>
</svg>
