<?xml version="1.0" encoding="UTF-8" ?>
<!DOCTYPE svg PUBLIC "-//W3C//DTD SVG 1.1//EN" "http://www.w3.org/Graphics/SVG/1.1/DTD/svg11.dtd">
<svg width="192pt" height="192pt" viewBox="0 0 192 192" version="1.1" xmlns="http://www.w3.org/2000/svg">
<g id="#4970c2ff">
<path fill="#4970c2" opacity="1.00" d=" M 47.58 23.52 C 45.37 18.45 53.18 14.09 56.29 18.70 C 61.10 26.17 65.60 33.86 70.06 41.54 C 86.54 36.06 104.68 35.66 121.14 41.44 C 126.87 34.47 130.56 25.46 136.05 18.08 C 139.56 14.42 146.11 18.66 144.42 23.34 C 140.41 31.01 135.55 38.23 131.23 45.73 C 156.41 58.80 173.80 86.38 172.74 114.97 C 172.43 117.64 169.61 119.40 167.06 119.16 C 119.68 119.14 72.30 119.17 24.93 119.14 C 22.00 119.39 18.98 117.12 19.12 114.04 C 18.64 85.92 35.58 58.59 60.61 45.97 C 56.69 38.26 51.54 31.22 47.58 23.52 M 54.80 61.78 C 40.38 73.02 30.69 90.53 29.71 108.85 C 73.89 108.73 118.08 108.84 162.27 108.77 C 160.55 81.90 140.62 57.62 114.80 50.24 C 94.50 44.08 71.35 48.48 54.80 61.78 Z" />
<path fill="#4970c2" opacity="1.00" d=" M 123.32 76.32 C 129.15 74.95 134.89 81.24 132.99 86.95 C 131.68 92.57 124.12 95.29 119.72 91.33 C 114.19 87.23 116.48 77.42 123.32 76.32 Z" />
<path fill="#4970c2" opacity="1.00" d=" M 64.29 77.29 C 70.29 74.10 77.75 80.57 75.90 86.96 C 74.86 92.55 67.49 95.62 62.98 91.91 C 57.76 88.50 58.54 79.71 64.29 77.29 Z" />
<path fill="#4970c2" opacity="1.00" d=" M 99.32 124.31 C 104.12 123.36 106.72 128.50 109.87 131.13 C 113.29 134.96 119.62 138.73 117.66 144.74 C 114.82 150.21 109.45 153.88 105.57 158.60 C 102.26 162.74 95.02 159.08 95.95 154.00 C 97.10 149.05 102.75 146.66 104.81 142.25 C 102.05 139.00 98.65 136.36 96.01 133.02 C 93.56 130.02 95.58 125.00 99.32 124.31 Z" />
<path fill="#4970c2" opacity="1.00" d=" M 88.19 138.05 C 92.46 135.50 98.07 140.32 96.25 144.97 C 93.62 149.09 89.54 152.03 86.32 155.69 C 89.18 159.20 92.89 162.05 95.20 165.96 C 97.22 170.59 91.51 175.52 87.21 172.90 C 83.07 169.35 79.64 165.03 75.80 161.16 C 72.59 158.22 72.75 152.85 75.98 149.99 C 80.07 146.04 83.80 141.66 88.19 138.05 Z" />
</g>
</svg>
