<?xml version="1.0" encoding="UTF-8" ?>
<!DOCTYPE svg PUBLIC "-//W3C//DTD SVG 1.1//EN" "http://www.w3.org/Graphics/SVG/1.1/DTD/svg11.dtd">
<svg width="192pt" height="192pt" viewBox="0 0 192 192" version="1.1" xmlns="http://www.w3.org/2000/svg">
<g id="#ff643bff">
<path fill="#ff643b" opacity="1.00" d=" M 98.10 28.02 C 98.72 20.41 105.34 12.06 113.71 14.39 C 119.66 16.60 127.18 17.30 130.97 23.01 C 134.31 28.53 131.73 35.09 128.81 40.17 C 132.42 36.60 136.46 32.38 142.02 32.80 C 148.83 33.18 152.80 39.49 157.19 43.85 C 161.74 48.61 161.24 56.38 156.68 60.95 C 161.65 60.08 167.77 60.58 170.58 65.42 C 173.06 70.24 174.30 75.68 175.20 80.99 C 175.88 87.94 169.76 93.16 163.35 94.08 C 166.61 106.00 171.15 117.68 178.13 127.95 C 181.28 132.85 174.34 138.77 169.92 135.07 C 165.31 129.88 162.44 123.34 159.61 117.06 C 159.58 132.36 159.86 147.68 159.48 162.97 C 158.56 169.05 148.34 168.23 148.52 162.00 C 148.35 138.67 148.59 115.33 148.51 92.00 C 150.17 74.93 137.78 60.58 125.68 50.15 C 125.76 90.40 125.85 130.66 125.61 170.90 C 125.27 177.07 114.77 177.05 114.43 170.88 C 114.07 129.24 114.40 87.58 114.29 45.94 C 114.53 43.19 111.64 42.23 109.60 41.44 C 103.49 39.31 96.97 38.62 90.54 38.44 C 90.20 82.63 90.67 126.83 90.31 171.02 C 89.86 177.07 79.71 176.94 79.38 170.89 C 79.08 127.28 79.50 83.64 79.18 40.03 C 71.23 42.03 64.00 46.48 58.21 52.24 C 56.60 53.67 56.04 55.84 56.10 57.94 C 56.01 92.64 56.21 127.36 56.01 162.07 C 56.15 168.22 46.05 168.97 45.13 162.98 C 44.61 132.19 45.31 101.35 44.76 70.55 C 38.41 82.50 35.81 96.09 28.71 107.70 C 26.70 111.78 22.59 115.11 22.70 119.98 C 22.49 130.22 22.98 140.47 22.57 150.70 C 21.96 156.07 13.12 156.26 12.26 150.92 C 11.73 142.97 12.20 134.97 12.05 127.00 C 12.22 120.95 10.99 114.18 14.91 108.99 C 21.00 100.59 24.92 90.91 28.25 81.15 C 34.52 63.70 44.87 46.93 60.76 36.76 C 71.73 29.58 85.14 26.95 98.10 28.02 M 110.21 25.07 C 110.02 25.86 109.63 27.44 109.44 28.24 C 112.87 29.85 116.48 30.99 120.06 32.19 C 120.55 30.80 121.00 29.38 121.49 27.98 C 117.77 26.87 114.19 25.01 110.21 25.07 M 140.18 47.80 C 142.72 49.98 145.78 56.37 149.15 51.82 C 147.18 48.25 144.02 45.61 140.90 43.08 C 139.35 44.20 138.21 46.44 140.18 47.80 M 157.02 72.19 C 157.53 75.92 158.83 79.47 160.23 82.94 C 161.42 82.53 162.58 82.08 163.76 81.63 C 163.08 78.04 162.06 74.53 160.90 71.06 C 159.62 71.47 158.32 71.85 157.02 72.19 Z" />
</g>
</svg>
