<?xml version="1.0" encoding="UTF-8" ?>
<!DOCTYPE svg PUBLIC "-//W3C//DTD SVG 1.1//EN" "http://www.w3.org/Graphics/SVG/1.1/DTD/svg11.dtd">
<svg width="192pt" height="192pt" viewBox="0 0 192 192" version="1.1" xmlns="http://www.w3.org/2000/svg">
<g id="#ff603cff">
<path fill="#ff603c" opacity="1.00" d=" M 44.37 16.53 C 47.15 15.65 50.11 15.72 53.00 15.71 C 87.00 15.83 121.02 15.59 155.02 15.82 C 161.27 15.88 161.25 26.21 155.03 26.31 C 119.49 26.59 83.91 26.06 48.38 26.57 C 40.52 27.48 41.29 40.32 49.20 40.33 C 84.12 40.54 119.06 40.31 153.98 40.38 C 157.61 40.04 160.34 43.50 159.85 46.95 C 159.83 87.31 159.92 127.68 159.83 168.04 C 160.15 171.81 156.68 174.92 153.00 174.55 C 119.34 174.54 85.68 174.61 52.02 174.50 C 41.33 174.39 31.95 164.75 32.07 154.07 C 32.00 114.04 32.07 74.00 32.06 33.97 C 31.73 26.27 36.96 18.75 44.37 16.53 M 42.69 50.02 C 42.69 84.68 42.64 119.35 42.73 154.02 C 42.61 161.25 50.31 165.01 56.69 163.91 C 56.75 134.27 56.56 104.62 56.79 74.98 C 56.77 68.60 67.28 68.66 67.27 75.00 C 67.50 104.60 67.33 134.21 67.35 163.81 C 94.63 163.93 121.92 163.83 149.20 163.86 C 149.21 126.28 149.23 88.71 149.21 51.13 C 118.14 51.13 87.07 51.11 56.00 51.14 C 51.54 51.28 47.05 51.03 42.69 50.02 Z" />
</g>
</svg>
