<?xml version="1.0" encoding="UTF-8" ?>
<!DOCTYPE svg PUBLIC "-//W3C//DTD SVG 1.1//EN" "http://www.w3.org/Graphics/SVG/1.1/DTD/svg11.dtd">
<svg width="192pt" height="192pt" viewBox="0 0 192 192" version="1.1" xmlns="http://www.w3.org/2000/svg">
<g id="#4a71c3ff">
<path fill="#4a71c3" opacity="1.00" d=" M 39.32 22.42 C 41.84 21.83 44.43 21.69 47.00 21.73 C 80.32 21.77 113.65 21.68 146.97 21.75 C 159.31 21.69 170.22 32.68 170.17 45.00 C 170.18 79.34 170.19 113.68 170.16 148.02 C 169.96 160.08 159.20 170.94 147.04 170.76 C 112.68 170.76 78.32 170.75 43.95 170.71 C 31.95 170.75 21.27 160.02 21.16 148.06 C 21.14 113.69 21.17 79.32 21.20 44.96 C 21.06 34.43 29.09 24.64 39.32 22.42 M 32.36 44.93 C 32.37 79.95 32.25 114.97 32.43 149.99 C 51.15 132.10 69.25 113.52 87.51 95.16 C 82.35 89.95 77.21 84.71 71.93 79.63 C 64.45 81.54 56.00 76.02 56.03 68.04 C 55.23 59.47 65.08 52.59 72.87 56.13 C 79.15 58.38 81.86 65.62 80.28 71.79 C 85.17 76.92 90.25 81.87 95.27 86.87 C 101.01 82.44 106.29 76.59 111.28 71.15 C 109.39 64.45 113.66 56.83 120.59 55.48 C 128.34 53.52 136.56 60.65 135.58 68.61 C 135.22 76.52 126.66 81.59 119.31 79.58 C 114.17 84.70 108.98 89.77 103.96 95.00 C 121.63 113.77 140.31 131.87 158.72 149.99 C 159.26 115.32 158.82 80.63 158.95 45.95 C 159.29 39.98 154.79 34.29 148.93 33.23 C 114.28 32.98 79.63 32.70 44.98 32.86 C 38.51 32.75 32.20 38.30 32.36 44.93 M 40.14 158.81 C 42.37 159.41 44.68 159.61 46.99 159.59 C 79.67 159.58 112.36 159.56 145.04 159.57 C 147.05 159.62 149.05 159.31 150.99 158.81 C 132.67 140.18 114.12 121.77 95.63 103.31 C 77.07 121.74 58.55 140.23 40.14 158.81 Z" />
</g>
</svg>
