<?xml version="1.0" encoding="UTF-8" ?>
<!DOCTYPE svg PUBLIC "-//W3C//DTD SVG 1.1//EN" "http://www.w3.org/Graphics/SVG/1.1/DTD/svg11.dtd">
<svg width="192pt" height="192pt" viewBox="0 0 192 192" version="1.1" xmlns="http://www.w3.org/2000/svg">
<g id="#945a72ff">
<path fill="#945a72" opacity="1.00" d=" M 20.27 43.94 C 20.10 31.38 31.56 20.52 44.02 20.80 C 78.68 20.81 113.35 20.59 148.00 20.90 C 161.99 21.44 171.98 35.56 170.21 49.00 C 170.12 81.67 170.28 114.34 170.13 147.01 C 170.24 159.04 160.14 170.16 148.01 170.61 C 139.78 170.31 131.58 171.44 123.35 171.06 C 123.08 136.14 123.48 101.15 123.26 66.21 C 123.29 62.46 119.64 59.58 116.02 59.87 C 102.01 59.80 87.99 59.74 73.98 59.87 C 70.06 59.59 66.60 63.05 66.96 66.98 C 66.38 101.64 67.65 136.31 66.99 170.97 C 58.97 171.62 50.98 170.20 42.95 170.62 C 30.67 170.58 19.86 159.30 20.25 147.04 C 20.25 112.68 20.23 78.31 20.27 43.94 M 31.40 44.00 C 31.36 78.35 31.38 112.71 31.39 147.06 C 31.12 153.42 36.66 159.32 43.02 159.49 C 47.09 159.65 51.18 159.47 55.26 159.52 C 55.59 128.37 55.24 97.20 55.46 66.04 C 55.46 56.75 63.63 48.49 72.92 48.45 C 87.64 48.35 102.36 48.37 117.08 48.43 C 126.39 48.39 134.76 56.60 134.77 65.93 C 134.93 97.09 134.72 128.25 134.90 159.40 C 139.26 159.49 143.63 159.71 147.98 159.40 C 154.01 158.82 159.08 153.14 158.82 147.05 C 158.82 112.68 158.87 78.31 158.80 43.94 C 158.89 36.78 151.87 31.39 145.01 31.90 C 111.67 31.77 78.33 31.81 44.99 31.87 C 38.17 31.44 31.30 36.94 31.40 44.00 Z" />
<path fill="#945a72" opacity="1.00" d=" M 77.97 95.95 C 77.35 90.60 88.39 90.56 88.02 95.96 C 88.33 108.30 88.04 120.65 88.15 133.00 C 88.11 136.10 88.61 139.41 86.98 142.22 C 84.11 142.11 80.06 143.56 78.13 140.78 C 77.78 125.85 78.12 110.89 77.97 95.95 Z" />
<path fill="#945a72" opacity="1.00" d=" M 100.98 101.99 C 99.89 96.94 105.15 90.84 110.20 92.71 C 111.98 97.14 110.84 102.32 111.14 107.04 C 111.57 111.84 106.73 114.25 104.14 117.53 C 106.90 120.64 111.63 123.16 111.13 127.96 C 110.63 132.66 112.39 138.12 109.99 142.31 C 102.07 143.50 99.80 134.44 100.89 128.35 C 97.63 124.86 93.51 121.92 91.11 117.78 C 92.42 111.54 102.55 109.38 100.98 101.99 Z" />
</g>
</svg>
