<?xml version="1.0" encoding="UTF-8" ?>
<!DOCTYPE svg PUBLIC "-//W3C//DTD SVG 1.1//EN" "http://www.w3.org/Graphics/SVG/1.1/DTD/svg11.dtd">
<svg width="192pt" height="192pt" viewBox="0 0 192 192" version="1.1" xmlns="http://www.w3.org/2000/svg">
<g id="#ff3662ff">
<path fill="#ff3662" opacity="1.00" d=" M 21.08 43.95 C 20.90 32.07 31.16 21.22 43.04 20.80 C 52.70 20.71 62.37 20.65 72.03 20.82 C 77.81 21.21 78.39 30.48 72.73 31.63 C 63.16 32.14 53.55 31.57 43.96 31.89 C 37.77 32.13 32.15 37.64 32.29 43.93 C 32.24 77.97 32.27 112.02 32.27 146.07 C 32.03 152.81 38.29 158.79 45.01 158.34 C 78.67 158.33 112.33 158.33 145.99 158.32 C 152.68 158.73 158.81 152.76 158.66 146.08 C 158.65 111.71 158.81 77.33 158.58 42.96 C 157.79 32.75 145.85 30.15 137.53 32.19 C 137.64 45.12 137.60 58.06 137.57 70.99 C 138.07 75.37 132.54 78.84 128.94 76.15 C 124.10 72.27 119.57 67.99 114.89 63.90 C 109.68 67.59 105.39 72.43 100.27 76.25 C 96.61 78.49 91.41 75.39 91.89 71.05 C 91.96 55.71 91.61 40.34 92.07 25.01 C 92.98 19.39 101.96 19.45 102.92 25.02 C 103.47 36.28 103.01 47.58 103.15 58.86 C 107.07 56.13 109.95 50.98 115.04 50.60 C 119.70 51.67 122.42 56.23 126.25 58.81 C 126.37 47.86 126.20 36.90 126.32 25.96 C 126.17 22.96 129.00 20.35 131.98 20.74 C 137.66 20.79 143.35 20.55 149.01 20.89 C 160.44 21.92 169.97 32.48 169.82 43.95 C 169.88 77.98 169.87 112.02 169.83 146.05 C 170.17 158.34 159.35 169.45 147.07 169.52 C 112.69 169.58 78.31 169.56 43.93 169.51 C 31.98 169.49 21.32 159.03 21.10 147.07 C 20.98 112.70 21.05 78.32 21.08 43.95 Z" />
</g>
</svg>
