<?xml version="1.0" encoding="UTF-8" ?>
<!DOCTYPE svg PUBLIC "-//W3C//DTD SVG 1.1//EN" "http://www.w3.org/Graphics/SVG/1.1/DTD/svg11.dtd">
<svg width="192pt" height="192pt" viewBox="0 0 192 192" version="1.1" xmlns="http://www.w3.org/2000/svg">
<g id="#8c899dff">
<path fill="#8c899d" opacity="1.00" d=" M 113.35 22.50 C 119.39 20.41 126.40 22.70 130.25 27.75 C 141.46 41.19 152.86 54.48 163.95 68.01 C 170.96 76.79 164.31 91.43 153.06 91.86 C 129.70 92.62 106.31 91.82 82.95 91.76 C 71.97 91.28 65.41 76.81 72.21 68.18 C 82.65 55.31 93.52 42.78 104.08 30.00 C 106.61 26.92 109.37 23.66 113.35 22.50 M 116.36 33.39 C 104.46 46.49 93.44 60.45 81.96 73.94 C 79.24 76.31 81.38 81.15 84.96 80.65 C 107.27 80.67 129.59 80.75 151.90 80.59 C 155.34 80.67 156.70 75.94 154.19 73.81 C 143.42 60.91 132.59 48.05 121.80 35.17 C 120.60 33.39 118.39 32.57 116.36 33.39 Z" />
<path fill="#8c899d" opacity="1.00" d=" M 36.42 99.56 C 59.93 98.94 83.52 99.33 107.05 99.31 C 118.37 99.31 125.70 113.82 118.89 122.90 C 107.55 136.85 95.80 150.49 84.29 164.31 C 78.73 171.14 67.18 171.31 61.50 164.54 C 49.90 150.79 38.27 137.04 26.85 123.13 C 20.35 114.78 25.97 101.05 36.42 99.56 M 37.23 111.11 C 35.01 112.41 34.82 115.64 36.65 117.35 C 47.57 130.45 58.56 143.49 69.54 156.53 C 71.15 158.91 74.75 158.59 76.22 156.22 C 87.18 143.19 98.15 130.16 109.05 117.08 C 111.82 114.26 108.67 109.64 105.00 110.56 C 82.44 110.96 59.65 109.80 37.23 111.11 Z" />
</g>
</svg>
