<?xml version="1.0" encoding="UTF-8" ?>
<!DOCTYPE svg PUBLIC "-//W3C//DTD SVG 1.1//EN" "http://www.w3.org/Graphics/SVG/1.1/DTD/svg11.dtd">
<svg width="192pt" height="192pt" viewBox="0 0 192 192" version="1.1" xmlns="http://www.w3.org/2000/svg">
<g id="#e998acff">
<path fill="#e998ac" opacity="1.00" d=" M 51.37 17.32 C 56.24 12.52 64.69 12.67 69.45 17.57 C 88.44 36.56 107.53 55.47 126.40 74.58 C 131.44 79.69 123.72 88.30 118.07 83.96 C 98.69 64.92 79.61 45.57 60.37 26.38 C 49.63 37.30 38.58 47.96 27.97 59.00 C 32.89 64.73 38.85 69.55 43.70 75.34 C 47.32 80.64 40.28 87.62 35.01 83.99 C 29.37 78.99 24.24 73.41 18.87 68.10 C 13.89 63.30 13.84 54.69 18.80 49.86 C 29.63 38.98 40.46 28.11 51.37 17.32 Z" />
<path fill="#e998ac" opacity="1.00" d=" M 123.07 17.09 C 127.84 12.56 135.95 12.73 140.54 17.44 C 151.40 28.25 162.24 39.09 173.07 49.95 C 178.00 54.70 177.92 63.29 173.02 68.03 C 154.03 87.02 135.10 106.05 116.03 124.95 C 112.52 128.48 106.00 125.88 105.61 121.01 C 105.10 116.78 109.16 114.36 111.62 111.62 C 128.96 94.02 146.96 76.79 163.90 58.96 C 153.97 48.64 143.64 38.66 133.59 28.42 C 132.85 27.55 131.58 26.41 130.46 27.43 C 125.35 32.32 120.62 37.63 115.30 42.29 C 110.08 46.19 102.81 38.82 106.67 33.63 C 111.86 27.87 117.51 22.50 123.07 17.09 Z" />
<path fill="#e998ac" opacity="1.00" d=" M 76.00 64.15 C 81.31 59.04 89.87 67.46 84.89 72.88 C 66.50 91.48 47.91 109.91 29.41 128.41 C 28.61 129.13 27.24 130.40 28.60 131.36 C 39.11 141.86 49.48 152.53 60.20 162.79 C 64.57 159.00 68.44 154.63 72.61 150.62 C 74.73 148.68 76.74 145.63 80.01 146.05 C 84.90 145.77 88.11 152.23 84.96 155.97 C 79.76 161.41 74.34 166.66 69.02 171.99 C 64.22 176.69 55.92 176.59 51.23 171.77 C 40.39 160.94 29.54 150.12 18.76 139.24 C 13.78 134.42 14.04 125.69 19.06 121.00 C 38.06 102.07 56.91 82.99 76.00 64.15 Z" />
<path fill="#e998ac" opacity="1.00" d=" M 94.35 78.42 C 100.13 77.38 102.90 84.13 106.92 87.08 C 109.66 89.70 114.08 93.18 111.36 97.40 C 107.56 101.58 103.41 105.44 99.43 109.47 C 97.43 111.54 93.75 111.26 91.89 109.12 C 88.23 105.46 84.52 101.84 80.94 98.10 C 78.54 95.78 79.39 91.80 81.90 89.93 C 86.15 86.23 89.49 81.25 94.35 78.42 Z" />
<path fill="#e998ac" opacity="1.00" d=" M 65.40 114.56 C 60.56 109.48 68.03 101.05 73.69 105.21 C 93.21 124.04 112.11 143.55 131.42 162.61 C 142.64 152.47 153.01 141.24 163.84 130.62 C 159.62 124.23 152.25 119.65 147.81 113.18 C 144.99 107.92 151.86 101.88 156.78 105.10 C 162.58 110.30 167.94 116.00 173.42 121.54 C 178.15 126.26 177.90 134.55 173.31 139.27 C 162.50 150.14 151.66 160.98 140.79 171.79 C 135.90 176.79 127.19 176.75 122.37 171.67 C 103.37 152.65 84.24 133.74 65.40 114.56 Z" />
</g>
</svg>
