<?xml version="1.0" encoding="UTF-8" ?>
<!DOCTYPE svg PUBLIC "-//W3C//DTD SVG 1.1//EN" "http://www.w3.org/Graphics/SVG/1.1/DTD/svg11.dtd">
<svg width="192pt" height="192pt" viewBox="0 0 192 192" version="1.1" xmlns="http://www.w3.org/2000/svg">
<g id="#a58586ff">
<path fill="#a58586" opacity="1.00" d=" M 89.32 15.39 C 93.43 13.88 98.02 14.29 102.00 15.99 C 116.86 22.18 131.74 28.31 146.60 34.50 C 150.87 36.23 154.34 39.67 156.07 43.95 C 162.33 59.00 168.56 74.08 174.79 89.15 C 176.60 93.44 176.54 98.38 174.73 102.66 C 168.59 117.55 162.40 132.42 156.26 147.30 C 154.52 151.86 150.86 155.53 146.31 157.28 C 131.43 163.43 116.56 169.62 101.68 175.76 C 97.44 177.60 92.53 177.71 88.26 175.87 C 73.14 169.64 58.03 163.37 42.93 157.08 C 38.66 155.36 35.25 151.85 33.53 147.60 C 27.36 132.73 21.20 117.85 15.04 102.97 C 13.09 98.55 13.00 93.41 14.94 88.97 C 21.19 73.87 27.40 58.76 33.70 43.69 C 35.56 39.15 39.49 35.75 44.04 34.06 C 59.15 27.89 74.17 21.47 89.32 15.39 M 92.32 26.35 C 77.42 32.43 62.56 38.63 47.71 44.81 C 43.71 46.29 43.10 51.03 41.44 54.42 C 36.05 68.33 29.37 81.85 24.77 96.00 C 29.84 110.53 36.47 124.53 42.10 138.87 C 43.41 141.66 44.07 145.40 47.30 146.63 C 62.12 152.89 77.02 158.97 91.87 165.14 C 93.83 166.10 96.07 165.99 98.01 165.06 C 112.39 159.10 126.77 153.13 141.15 147.19 C 143.25 146.45 145.16 145.08 145.86 142.88 C 151.95 128.26 157.97 113.62 164.04 99.00 C 164.95 97.06 165.05 94.83 164.12 92.88 C 158.20 78.48 152.18 64.11 146.28 49.70 C 145.49 47.65 144.30 45.59 142.08 44.88 C 127.98 38.94 113.80 33.19 99.70 27.26 C 97.36 26.33 94.78 25.03 92.32 26.35 Z" />
<path fill="#a58586" opacity="1.00" d=" M 75.34 64.06 C 84.26 64.06 93.18 63.85 102.09 64.15 C 107.54 64.48 114.19 65.91 116.43 71.59 C 119.10 78.68 118.34 86.55 117.80 93.95 C 117.45 99.14 113.97 103.53 109.10 105.24 C 111.24 111.54 116.60 117.24 116.72 123.86 C 113.16 124.90 108.80 124.97 105.29 123.86 C 101.61 118.51 99.83 112.05 96.79 106.32 C 93.93 106.33 91.07 106.33 88.21 106.30 C 88.16 112.35 88.20 118.41 88.15 124.46 C 83.94 124.52 79.73 124.45 75.52 124.59 C 75.05 104.42 75.47 84.23 75.34 64.06 M 88.20 75.12 C 88.18 81.86 88.14 88.60 88.21 95.34 C 92.75 95.14 97.39 95.82 101.87 94.84 C 105.91 93.45 105.37 88.42 105.47 85.00 C 105.39 81.65 105.81 76.52 101.69 75.42 C 97.23 74.79 92.69 75.28 88.20 75.12 Z" />
</g>
</svg>
