<?xml version="1.0" encoding="UTF-8" ?>
<!DOCTYPE svg PUBLIC "-//W3C//DTD SVG 1.1//EN" "http://www.w3.org/Graphics/SVG/1.1/DTD/svg11.dtd">
<svg width="192pt" height="192pt" viewBox="0 0 192 192" version="1.1" xmlns="http://www.w3.org/2000/svg">
<g id="#7fa77dff">
<path fill="#7fa77d" opacity="1.00" d=" M 79.41 24.48 C 83.15 22.05 88.44 25.54 87.81 29.92 C 87.79 73.63 87.99 117.34 87.81 161.04 C 88.20 168.14 76.29 168.18 76.68 161.03 C 76.51 117.69 76.71 74.34 76.62 31.00 C 76.52 28.56 77.04 25.73 79.41 24.48 Z" />
<path fill="#7fa77d" opacity="1.00" d=" M 52.42 40.53 C 56.21 37.92 61.53 41.49 61.00 45.94 C 61.16 78.97 61.17 112.03 61.00 145.07 C 61.34 151.66 50.65 152.54 49.92 146.01 C 49.47 113.69 49.93 81.34 49.72 49.00 C 49.73 46.05 49.43 42.24 52.42 40.53 Z" />
<path fill="#7fa77d" opacity="1.00" d=" M 108.21 40.14 C 112.07 38.25 116.62 41.81 116.17 45.96 C 116.32 78.31 116.18 110.66 116.27 143.01 C 116.43 145.76 115.76 149.06 112.87 150.16 C 108.89 152.12 104.18 148.32 104.86 144.03 C 104.82 111.68 104.88 79.33 104.86 46.98 C 104.74 44.33 105.49 41.23 108.21 40.14 Z" />
<path fill="#7fa77d" opacity="1.00" d=" M 25.22 56.15 C 29.06 54.16 33.85 57.74 33.30 61.97 C 33.25 84.65 33.55 107.35 33.16 130.02 C 32.62 136.12 22.72 136.00 22.20 129.96 C 21.77 107.99 22.22 85.98 22.03 63.99 C 21.91 61.10 22.15 57.47 25.22 56.15 Z" />
<path fill="#7fa77d" opacity="1.00" d=" M 161.33 61.41 C 164.90 59.98 169.13 63.14 168.75 66.97 C 168.71 86.27 169.08 105.60 168.63 124.88 C 167.79 131.03 157.72 130.20 157.70 124.03 C 157.40 105.70 157.72 87.34 157.57 69.00 C 157.38 66.06 158.11 62.38 161.33 61.41 Z" />
<path fill="#7fa77d" opacity="1.00" d=" M 136.34 67.43 C 139.89 66.11 144.02 69.20 143.70 72.98 C 143.68 88.22 144.00 103.48 143.59 118.70 C 142.84 124.89 132.64 124.27 132.60 118.02 C 132.36 103.35 132.60 88.67 132.53 73.99 C 132.30 71.28 133.53 68.23 136.34 67.43 Z" />
</g>
</svg>
