<?xml version="1.0" encoding="UTF-8" ?>
<!DOCTYPE svg PUBLIC "-//W3C//DTD SVG 1.1//EN" "http://www.w3.org/Graphics/SVG/1.1/DTD/svg11.dtd">
<svg width="192pt" height="192pt" viewBox="0 0 192 192" version="1.1" xmlns="http://www.w3.org/2000/svg">
<g id="#ff3660ff">
<path fill="#ff3660" opacity="1.00" d=" M 77.15 31.17 C 79.81 19.97 92.28 12.58 103.40 15.54 C 122.23 20.39 141.07 25.20 159.87 30.14 C 170.69 32.99 177.88 45.09 175.05 55.95 C 166.19 90.37 157.21 124.77 148.25 159.18 C 145.70 169.59 134.57 176.93 123.99 175.07 C 114.56 173.24 105.43 169.97 95.99 168.25 C 81.28 169.44 66.67 171.90 51.97 173.33 C 41.15 174.03 30.78 165.40 29.48 154.63 C 25.10 119.46 20.78 84.28 16.48 49.10 C 14.79 37.75 23.61 26.25 35.00 24.95 C 45.32 23.67 55.63 22.24 65.97 21.21 C 71.78 20.46 74.05 29.55 68.66 31.71 C 57.94 33.84 46.92 34.33 36.12 36.08 C 30.74 36.96 26.67 42.52 27.59 47.93 C 31.86 82.84 36.16 117.75 40.51 152.64 C 40.99 157.83 45.69 162.26 50.95 162.13 C 55.90 161.96 60.78 160.94 65.70 160.41 C 54.97 157.12 47.51 145.44 50.38 134.32 C 59.22 99.92 68.23 65.55 77.15 31.17 M 95.36 26.50 C 91.54 27.53 88.61 30.82 87.79 34.65 C 79.01 68.55 70.13 102.43 61.41 136.33 C 59.68 142.04 63.53 148.41 69.35 149.59 C 87.61 154.31 105.87 159.05 124.14 163.71 C 129.95 165.54 136.45 161.58 137.61 155.64 C 146.41 121.75 155.25 87.87 164.01 53.96 C 165.77 48.39 162.02 42.03 156.36 40.75 C 138.88 36.14 121.34 31.76 103.87 27.13 C 101.11 26.43 98.17 25.68 95.36 26.50 Z" />
<path fill="#ff3660" opacity="1.00" d=" M 95.40 49.46 C 101.04 47.15 104.06 41.69 106.88 36.66 C 109.20 44.69 115.72 49.89 123.15 52.95 C 115.12 55.09 110.13 61.49 106.21 68.26 C 103.86 60.94 98.35 55.00 90.97 52.65 C 91.01 50.45 93.97 50.52 95.40 49.46 Z" />
</g>
</svg>
