<?xml version="1.0" encoding="UTF-8" ?>
<!DOCTYPE svg PUBLIC "-//W3C//DTD SVG 1.1//EN" "http://www.w3.org/Graphics/SVG/1.1/DTD/svg11.dtd">
<svg width="192pt" height="192pt" viewBox="0 0 192 192" version="1.1" xmlns="http://www.w3.org/2000/svg">
<g id="#45e371ff">
<path fill="#45e371" opacity="1.00" d=" M 86.33 13.40 C 102.30 10.92 119.19 15.18 131.99 25.08 C 146.49 36.01 155.67 53.78 155.79 71.99 C 155.81 87.33 155.81 102.67 155.79 118.01 C 155.76 135.79 147.07 153.19 133.20 164.25 C 117.24 177.29 94.41 181.13 75.07 173.99 C 52.21 166.06 35.51 143.27 35.10 119.03 C 35.06 102.33 34.87 85.62 35.21 68.92 C 36.62 41.48 59.11 17.10 86.33 13.40 M 86.36 25.45 C 64.77 29.17 47.54 49.13 46.93 71.01 C 46.74 86.66 46.85 102.32 46.88 117.98 C 47.08 134.88 56.84 151.21 71.62 159.40 C 85.43 167.35 103.22 167.73 117.37 160.40 C 133.09 152.54 143.85 135.64 143.98 118.01 C 144.01 103.01 143.98 88.01 143.99 73.00 C 144.01 61.36 139.59 49.80 131.88 41.09 C 120.85 28.37 102.90 22.05 86.36 25.45 Z" />
<path fill="#45e371" opacity="1.00" d=" M 93.20 48.26 C 97.02 46.73 101.76 49.73 101.35 53.99 C 101.31 63.67 101.60 73.38 101.20 83.05 C 99.91 88.65 90.92 88.63 89.71 82.99 C 89.24 73.68 89.65 64.33 89.50 55.01 C 89.23 52.27 90.42 49.19 93.20 48.26 Z" />
</g>
</svg>
