<?xml version="1.0" encoding="UTF-8" ?>
<!DOCTYPE svg PUBLIC "-//W3C//DTD SVG 1.1//EN" "http://www.w3.org/Graphics/SVG/1.1/DTD/svg11.dtd">
<svg width="192pt" height="192pt" viewBox="0 0 192 192" version="1.1" xmlns="http://www.w3.org/2000/svg">
<g id="#19afffff">
<path fill="#19afff" opacity="1.00" d=" M 57.05 23.08 C 78.89 11.24 106.14 10.21 128.86 20.21 C 153.14 30.59 171.69 53.36 176.66 79.33 C 181.62 103.54 174.82 129.91 158.46 148.47 C 155.22 152.49 147.82 149.10 148.86 144.02 C 149.52 139.58 151.69 133.14 146.35 130.71 C 133.41 126.42 120.18 122.96 107.17 118.85 C 104.64 118.20 103.03 115.66 103.19 113.10 C 102.99 97.75 103.41 82.38 103.01 67.04 C 102.59 62.77 95.57 62.81 95.29 67.10 C 94.92 93.07 95.38 119.07 95.08 145.04 C 95.32 149.95 88.33 152.56 85.32 148.68 C 80.76 139.71 72.97 127.69 61.23 130.51 C 61.36 132.97 62.32 135.26 63.76 137.23 C 69.96 146.37 76.05 155.58 82.27 164.70 C 95.86 167.27 110.06 165.76 122.93 160.75 C 128.79 158.34 133.23 167.66 127.69 170.70 C 106.58 179.99 81.46 179.14 60.65 169.34 C 32.67 156.51 13.38 126.86 13.51 95.99 C 12.91 66.05 30.58 36.92 57.05 23.08 M 26.53 79.57 C 18.85 110.61 35.63 145.22 64.53 158.71 C 60.36 151.84 55.18 145.58 51.51 138.41 C 48.26 132.05 50.41 123.17 57.26 120.22 C 66.49 116.07 76.85 120.73 83.88 126.99 C 83.79 107.32 83.84 87.65 83.85 67.98 C 83.57 60.16 90.21 53.00 98.00 52.59 C 106.22 51.76 114.25 58.70 114.40 67.00 C 114.54 81.10 114.40 95.20 114.47 109.29 C 123.15 111.88 131.81 114.53 140.53 116.99 C 146.21 105.05 147.15 90.86 142.49 78.43 C 136.40 61.30 120.12 48.29 102.03 46.31 C 84.13 43.87 65.31 52.22 55.09 67.11 C 45.90 79.97 43.87 97.21 49.05 112.06 C 51.10 118.09 41.55 121.76 38.83 116.24 C 28.92 91.62 38.46 61.29 60.16 46.19 C 74.26 35.92 92.87 32.27 109.83 36.29 C 128.01 40.37 143.92 53.38 151.48 70.42 C 158.61 86.05 158.50 104.70 151.39 120.32 C 154.39 122.24 156.98 124.71 159.13 127.54 C 170.66 105.48 169.27 77.31 155.36 56.62 C 142.74 37.19 120.18 24.74 96.99 24.58 C 64.45 23.52 33.23 47.62 26.53 79.57 Z" />
</g>
</svg>
