<?xml version="1.0" encoding="UTF-8" ?>
<!DOCTYPE svg PUBLIC "-//W3C//DTD SVG 1.1//EN" "http://www.w3.org/Graphics/SVG/1.1/DTD/svg11.dtd">
<svg width="192pt" height="192pt" viewBox="0 0 192 192" version="1.1" xmlns="http://www.w3.org/2000/svg">
<g id="#2ab9a2ff">
<path fill="#2ab9a2" opacity="1.00" d=" M 84.39 14.49 C 118.13 9.19 153.68 27.71 168.83 58.26 C 185.11 88.94 178.75 129.59 153.68 153.67 C 129.55 178.48 89.13 184.75 58.58 168.54 C 27.69 153.23 9.10 117.00 15.00 82.98 C 19.83 48.18 49.55 18.89 84.39 14.49 M 87.38 25.50 C 65.28 27.99 44.98 41.81 34.24 61.24 C 24.57 78.32 22.72 99.51 28.94 118.10 C 38.09 146.63 66.97 167.26 96.99 166.30 C 127.18 166.37 155.63 144.71 163.77 115.69 C 170.60 93.09 165.13 67.25 149.51 49.52 C 134.49 31.77 110.42 22.58 87.38 25.50 Z" />
<path fill="#2ab9a2" opacity="1.00" d=" M 95.23 41.46 C 97.57 41.20 98.60 43.71 99.63 45.34 C 102.08 49.96 105.06 54.30 107.27 59.04 C 108.52 61.68 105.40 63.65 103.04 63.22 C 97.13 63.00 91.10 63.75 85.26 62.79 C 81.27 60.27 85.68 55.91 87.01 53.01 C 89.88 49.35 90.82 43.45 95.23 41.46 Z" />
<path fill="#2ab9a2" opacity="1.00" d=" M 57.45 84.51 C 60.04 82.16 63.86 84.66 63.14 87.97 C 62.56 94.27 64.65 101.34 61.88 107.14 C 56.88 108.24 52.97 103.28 48.54 101.54 C 45.94 99.69 39.97 98.22 41.82 93.96 C 46.53 90.14 52.28 87.70 57.45 84.51 Z" />
<path fill="#2ab9a2" opacity="1.00" d=" M 129.30 84.19 C 133.54 82.62 137.30 87.40 141.16 88.89 C 144.11 91.20 150.47 92.15 149.39 97.01 C 144.05 101.10 137.88 104.12 131.98 107.35 C 126.61 108.37 128.13 101.23 127.94 98.00 C 128.61 93.54 126.47 87.90 129.30 84.19 Z" />
<path fill="#2ab9a2" opacity="1.00" d=" M 85.27 128.27 C 91.50 127.69 97.80 128.10 104.06 128.06 C 106.59 127.65 108.48 130.78 106.95 132.84 C 104.12 138.01 101.22 143.16 98.10 148.17 C 97.21 150.19 93.88 150.10 92.94 148.15 C 89.84 143.14 86.90 138.01 84.10 132.82 C 82.96 131.29 83.67 129.14 85.27 128.27 Z" />
</g>
</svg>
