<?xml version="1.0" encoding="UTF-8" ?>
<!DOCTYPE svg PUBLIC "-//W3C//DTD SVG 1.1//EN" "http://www.w3.org/Graphics/SVG/1.1/DTD/svg11.dtd">
<svg width="192pt" height="192pt" viewBox="0 0 192 192" version="1.1" xmlns="http://www.w3.org/2000/svg">
<g id="#fd7238ff">
<path fill="#fd7238" opacity="1.00" d=" M 84.41 14.53 C 116.10 9.60 149.57 25.51 165.93 53.04 C 178.44 73.30 181.27 99.11 173.66 121.64 C 164.32 150.39 137.86 172.60 107.89 176.68 C 76.29 181.75 42.78 166.08 26.28 138.69 C 8.48 110.71 10.39 71.98 30.87 45.89 C 43.72 28.98 63.35 17.40 84.41 14.53 M 87.38 25.46 C 63.27 28.11 41.43 44.37 31.54 66.44 C 18.20 94.77 26.76 131.26 51.46 150.55 C 77.22 172.29 118.57 171.23 143.16 148.18 C 167.03 127.53 173.64 90.24 158.45 62.60 C 145.36 37.10 115.82 21.64 87.38 25.46 Z" />
<path fill="#fd7238" opacity="1.00" d=" M 95.22 41.47 C 97.57 41.19 98.59 43.71 99.62 45.34 C 102.08 49.96 105.05 54.31 107.27 59.05 C 108.50 61.67 105.40 63.65 103.05 63.20 C 97.14 62.98 91.11 63.72 85.28 62.78 C 81.42 60.52 85.30 56.36 86.64 53.67 C 89.66 49.81 90.68 43.67 95.22 41.47 Z" />
<path fill="#fd7238" opacity="1.00" d=" M 57.46 84.51 C 60.03 82.16 63.84 84.66 63.12 87.95 C 62.52 94.25 64.65 101.34 61.86 107.13 C 56.87 108.22 52.97 103.26 48.55 101.52 C 45.95 99.66 39.97 98.22 41.84 93.96 C 46.55 90.15 52.29 87.70 57.46 84.51 Z" />
<path fill="#fd7238" opacity="1.00" d=" M 129.30 84.13 C 133.58 82.62 137.30 87.35 141.18 88.86 C 144.12 91.16 150.53 92.12 149.41 96.99 C 144.12 101.16 137.87 104.13 131.97 107.37 C 126.56 108.39 128.11 101.26 127.94 98.00 C 128.64 93.51 126.43 87.85 129.30 84.13 Z" />
<path fill="#fd7238" opacity="1.00" d=" M 85.27 128.23 C 91.50 127.70 97.80 128.09 104.06 128.02 C 106.57 127.60 108.50 130.77 106.98 132.82 C 104.15 138.02 101.21 143.18 98.11 148.21 C 97.19 150.21 93.89 150.10 92.92 148.19 C 89.83 143.15 86.88 138.01 84.08 132.81 C 82.92 131.26 83.68 129.13 85.27 128.23 Z" />
</g>
</svg>
