<?xml version="1.0" encoding="UTF-8" ?>
<!DOCTYPE svg PUBLIC "-//W3C//DTD SVG 1.1//EN" "http://www.w3.org/Graphics/SVG/1.1/DTD/svg11.dtd">
<svg width="192pt" height="192pt" viewBox="0 0 192 192" version="1.1" xmlns="http://www.w3.org/2000/svg">
<g id="#f6b02cff">
<path fill="#f6b02c" opacity="1.00" d=" M 22.10 43.94 C 21.89 31.71 32.79 20.68 45.03 20.76 C 55.67 20.82 66.32 20.53 76.95 20.90 C 82.35 21.96 82.38 30.77 76.89 31.63 C 66.26 32.11 55.60 31.56 44.96 31.87 C 38.75 32.10 33.11 37.61 33.27 43.93 C 33.23 77.97 33.26 112.02 33.26 146.07 C 33.02 152.81 39.29 158.79 46.01 158.34 C 60.92 158.21 75.84 158.57 90.74 158.14 C 90.65 112.35 90.66 66.56 90.74 20.77 C 109.82 20.72 128.90 20.71 147.98 20.76 C 160.19 20.74 171.01 31.73 170.82 43.94 C 170.89 77.98 170.89 112.02 170.85 146.06 C 171.15 158.38 160.30 169.52 147.97 169.52 C 137.32 169.49 126.65 169.77 116.02 169.38 C 110.16 168.59 110.29 159.10 116.16 158.48 C 126.76 158.04 137.40 158.50 148.01 158.26 C 154.33 158.17 159.77 152.37 159.65 146.08 C 159.69 112.03 159.72 77.97 159.65 43.92 C 159.71 37.30 153.56 31.67 147.03 31.84 C 132.04 31.81 117.05 31.81 102.05 31.83 C 101.63 75.89 102.08 119.97 101.87 164.04 C 102.01 167.14 99.06 169.80 96.00 169.52 C 78.68 169.53 61.36 169.63 44.04 169.46 C 32.04 168.99 21.79 158.03 22.07 146.04 C 22.05 112.01 22.04 77.97 22.10 43.94 Z" />
<path fill="#f6b02c" opacity="1.00" d=" M 52.90 82.86 C 54.47 79.67 59.18 78.78 61.74 81.27 C 63.78 83.49 64.99 86.30 66.46 88.90 C 68.55 87.06 71.90 85.26 74.21 87.82 C 77.63 92.80 80.42 98.20 83.44 103.43 C 85.36 106.09 83.33 110.34 80.02 110.36 C 69.01 110.48 57.98 110.43 46.97 110.38 C 42.82 110.60 39.76 105.52 41.90 101.96 C 45.43 95.52 49.19 89.20 52.90 82.86 Z" />
<path fill="#f6b02c" opacity="1.00" d=" M 120.02 83.01 C 121.63 79.51 126.84 78.71 129.36 81.63 C 131.12 83.90 132.37 86.50 133.86 88.95 C 135.82 86.66 139.74 85.31 141.82 88.21 C 144.94 93.15 147.78 98.27 150.66 103.35 C 152.71 106.11 150.48 110.52 147.02 110.38 C 136.01 110.46 124.99 110.47 113.97 110.37 C 110.01 110.43 107.11 105.64 109.02 102.18 C 112.52 95.70 116.32 89.38 120.02 83.01 Z" />
</g>
</svg>
