<?xml version="1.0" encoding="UTF-8" ?>
<!DOCTYPE svg PUBLIC "-//W3C//DTD SVG 1.1//EN" "http://www.w3.org/Graphics/SVG/1.1/DTD/svg11.dtd">
<svg width="192pt" height="192pt" viewBox="0 0 192 192" version="1.1" xmlns="http://www.w3.org/2000/svg">
<g id="#e49aa4ff">
<path fill="#e49aa4" opacity="1.00" d=" M 61.41 17.56 C 71.66 16.21 82.46 17.39 91.59 22.51 C 98.95 26.45 104.63 32.73 110.56 38.46 C 113.01 40.53 112.64 44.28 110.24 46.23 C 90.33 65.66 70.60 85.29 50.58 104.61 C 48.61 106.85 44.76 107.70 42.51 105.39 C 38.95 102.01 35.41 98.57 32.13 94.90 C 18.93 79.38 17.90 55.07 29.27 38.25 C 36.48 27.26 48.46 19.66 61.41 17.56 M 37.26 44.32 C 26.77 60.34 30.97 83.30 46.11 94.92 C 64.18 77.58 81.80 59.78 99.89 42.47 C 93.72 34.94 85.19 28.86 75.37 27.47 C 60.82 24.89 45.14 31.81 37.26 44.32 Z" />
<path fill="#e49aa4" opacity="1.00" d=" M 113.37 50.34 C 118.99 44.49 129.22 44.28 135.04 49.95 C 145.65 60.35 156.09 70.93 166.60 81.44 C 173.67 88.26 173.52 100.67 166.38 107.38 C 149.48 124.19 132.77 141.22 115.71 157.87 C 111.34 161.64 104.75 154.95 108.67 150.64 C 125.47 133.46 142.71 116.68 159.56 99.55 C 162.82 96.14 161.80 90.52 158.32 87.68 C 152.57 82.35 147.40 75.96 141.30 71.26 C 122.17 90.14 103.35 109.35 84.17 128.18 C 79.40 133.02 71.37 125.15 76.26 120.30 C 95.18 101.04 114.49 82.14 133.45 62.91 C 130.29 59.55 125.55 53.13 120.64 57.63 C 101.21 76.86 81.93 96.25 62.59 115.59 C 60.22 117.64 59.83 121.56 62.27 123.72 C 75.84 137.51 89.72 151.00 103.25 164.82 C 107.62 168.90 101.16 176.37 96.55 172.40 C 82.55 158.77 68.87 144.78 55.00 131.00 C 48.90 125.28 48.82 114.68 54.83 108.87 C 74.32 89.34 93.83 69.83 113.37 50.34 Z" />
</g>
</svg>
