<?xml version="1.0" encoding="UTF-8" ?>
<!DOCTYPE svg PUBLIC "-//W3C//DTD SVG 1.1//EN" "http://www.w3.org/Graphics/SVG/1.1/DTD/svg11.dtd">
<svg width="192pt" height="192pt" viewBox="0 0 192 192" version="1.1" xmlns="http://www.w3.org/2000/svg">
<g id="#27a1efff">
<path fill="#27a1ef" opacity="1.00" d=" M 93.96 24.12 C 87.58 24.35 86.77 14.04 93.03 13.14 C 124.00 11.70 154.44 30.28 168.19 57.92 C 179.84 80.56 179.95 108.67 168.55 131.42 C 155.21 158.88 125.59 177.44 95.00 177.04 C 65.44 177.38 36.73 160.11 22.87 134.06 C 11.72 113.74 9.97 88.62 17.94 66.89 C 26.98 41.64 49.19 21.76 75.19 15.35 C 77.84 14.67 81.18 16.36 81.69 19.12 C 82.40 49.41 82.16 79.73 82.22 110.04 C 81.60 114.12 86.56 117.36 90.01 115.06 C 98.78 109.85 107.51 104.55 116.17 99.15 C 119.29 97.45 119.49 92.45 116.45 90.57 C 109.10 85.53 101.20 81.27 94.00 76.02 C 90.01 72.11 94.72 65.16 99.87 67.25 C 107.83 71.76 115.54 76.79 123.24 81.75 C 131.96 87.71 131.82 102.19 123.00 108.00 C 113.54 113.92 104.01 119.77 94.35 125.35 C 84.71 130.49 71.72 122.89 71.26 112.04 C 71.03 84.12 71.29 56.19 71.24 28.27 C 42.65 38.15 22.44 67.75 24.27 98.05 C 25.07 120.62 37.60 142.24 56.59 154.41 C 82.89 172.13 120.83 168.64 143.51 146.49 C 166.92 125.19 172.69 87.64 156.68 60.32 C 144.39 38.00 119.41 23.70 93.96 24.12 Z" />
<path fill="#27a1ef" opacity="1.00" d=" M 128.32 135.39 C 133.16 134.80 136.32 141.41 132.80 144.78 C 112.01 161.97 79.44 162.37 58.17 145.81 C 55.03 143.14 56.42 137.48 60.38 136.45 C 63.25 135.38 65.73 137.63 68.02 139.00 C 84.16 149.51 106.49 149.31 122.42 138.46 C 124.30 137.33 126.04 135.63 128.32 135.39 Z" />
</g>
</svg>
