<?xml version="1.0" encoding="UTF-8" ?>
<!DOCTYPE svg PUBLIC "-//W3C//DTD SVG 1.1//EN" "http://www.w3.org/Graphics/SVG/1.1/DTD/svg11.dtd">
<svg width="192pt" height="192pt" viewBox="0 0 192 192" version="1.1" xmlns="http://www.w3.org/2000/svg">
<g id="#d6d6d6ff">
<path fill="#d6d6d6" opacity="1.00" d=" M 62.36 25.33 C 70.19 19.51 79.22 14.88 88.96 13.47 C 105.57 11.28 122.19 18.68 134.15 29.89 C 137.51 32.82 135.45 39.02 131.01 39.39 C 127.87 39.96 125.73 37.19 123.51 35.50 C 113.74 27.50 100.66 22.32 87.96 25.00 C 72.62 28.77 60.78 40.36 51.76 52.78 C 40.52 69.51 33.54 89.69 34.60 110.00 C 36.57 141.35 66.68 167.39 97.95 165.15 C 121.28 164.18 143.78 149.31 152.30 127.32 C 160.64 106.20 155.73 82.12 145.04 62.77 C 142.37 66.64 138.94 72.00 133.40 70.48 C 128.01 68.32 122.91 65.38 117.87 62.50 C 112.34 64.83 107.27 69.22 101.03 69.12 C 95.02 66.33 89.31 62.81 83.65 59.36 C 79.38 56.13 82.74 48.63 88.01 49.57 C 93.30 51.54 97.86 55.03 102.90 57.55 C 108.40 55.19 113.51 50.27 119.96 51.62 C 125.10 52.94 129.43 56.26 134.18 58.52 C 136.73 54.97 138.96 51.00 142.52 48.33 C 145.99 46.06 150.30 48.75 152.03 51.97 C 161.25 67.72 167.77 85.56 167.76 104.00 C 168.03 120.75 162.36 137.69 151.41 150.44 C 133.21 172.63 101.13 181.97 73.82 173.26 C 45.78 164.67 23.80 137.70 23.28 108.02 C 22.97 76.50 37.71 45.04 62.36 25.33 Z" />
</g>
</svg>
