<?xml version="1.0" encoding="UTF-8" ?>
<!DOCTYPE svg PUBLIC "-//W3C//DTD SVG 1.1//EN" "http://www.w3.org/Graphics/SVG/1.1/DTD/svg11.dtd">
<svg width="192pt" height="192pt" viewBox="0 0 192 192" version="1.1" xmlns="http://www.w3.org/2000/svg">
<g id="#8492a1ff">
<path fill="#8492a1" opacity="1.00" d=" M 123.31 49.40 C 149.43 44.00 176.62 65.47 177.69 92.04 C 179.86 114.82 162.51 137.20 139.92 140.78 C 122.37 144.21 103.38 136.37 93.28 121.64 C 83.67 108.17 82.31 89.47 89.70 74.69 C 96.06 61.56 108.91 51.82 123.31 49.40 M 125.41 60.57 C 104.70 63.43 90.74 87.16 98.21 106.67 C 104.02 124.58 125.56 134.86 143.17 128.21 C 160.18 122.74 170.44 102.95 165.23 85.86 C 160.86 68.91 142.66 57.23 125.41 60.57 Z" />
<path fill="#8492a1" opacity="1.00" d=" M 36.38 66.51 C 53.39 62.36 71.67 76.43 71.83 93.95 C 73.16 109.93 59.02 124.91 43.00 124.62 C 27.08 125.28 12.66 110.87 13.18 94.98 C 12.95 81.57 23.25 69.05 36.38 66.51 M 39.37 77.49 C 30.51 78.84 23.58 87.59 24.53 96.55 C 25.08 106.18 34.35 114.25 44.00 113.23 C 53.56 112.78 61.51 103.59 60.55 94.05 C 60.16 83.66 49.52 75.47 39.37 77.49 Z" />
</g>
</svg>
