<?xml version="1.0" encoding="UTF-8" ?>
<!DOCTYPE svg PUBLIC "-//W3C//DTD SVG 1.1//EN" "http://www.w3.org/Graphics/SVG/1.1/DTD/svg11.dtd">
<svg width="192pt" height="192pt" viewBox="0 0 192 192" version="1.1" xmlns="http://www.w3.org/2000/svg">
<g id="#9079a4ff">
<path fill="#9079a4" opacity="1.00" d=" M 83.01 32.80 C 83.31 28.46 79.40 22.29 83.92 19.43 C 85.57 23.26 85.20 27.48 85.78 31.51 C 86.36 35.37 92.90 32.77 92.93 37.09 C 94.38 45.76 96.77 54.31 97.53 63.07 C 96.11 63.78 94.68 64.47 93.28 65.19 C 92.71 73.81 98.86 80.94 97.39 89.72 C 101.77 90.67 105.39 87.51 105.93 83.25 C 104.58 83.26 103.23 83.28 101.88 83.30 C 101.23 77.36 103.77 71.58 106.22 66.31 C 109.92 59.92 120.48 61.30 122.82 68.15 C 124.34 73.78 122.70 79.71 123.27 85.46 C 127.68 86.10 131.66 88.32 136.11 88.89 C 144.29 90.63 146.23 99.87 148.41 106.66 C 149.62 109.76 145.34 111.21 145.24 114.13 C 145.08 118.51 147.42 122.59 147.06 127.01 C 146.22 136.48 148.78 146.30 145.43 155.46 C 144.21 157.01 142.47 158.01 140.97 159.25 C 148.88 161.02 159.27 157.28 159.61 148.02 C 159.80 114.00 159.66 79.96 159.69 45.94 C 160.00 39.51 154.51 33.39 148.01 33.35 C 132.34 33.15 116.64 33.56 100.98 33.17 C 94.68 32.81 94.72 22.45 101.05 22.27 C 116.72 22.07 132.40 22.20 148.07 22.21 C 160.08 22.21 170.81 32.92 170.77 44.94 C 170.83 79.31 170.87 113.69 170.77 148.06 C 170.69 161.21 157.92 171.90 145.00 170.56 C 129.35 170.39 113.65 170.88 98.03 170.32 C 89.32 167.43 94.23 156.61 93.38 149.96 C 92.22 145.87 97.21 143.95 96.71 140.07 C 96.42 130.65 98.50 121.16 97.02 111.82 C 93.45 116.50 86.29 122.31 80.72 117.29 C 77.93 109.65 78.71 101.06 77.19 93.07 C 75.22 85.96 80.03 79.97 82.61 73.75 C 80.17 70.81 76.71 69.08 73.58 67.03 C 72.56 62.33 75.74 58.35 80.70 60.13 C 77.93 52.76 75.01 44.73 77.84 36.88 C 78.12 34.18 80.87 33.53 83.01 32.80 M 91.34 56.92 C 91.86 57.08 92.91 57.40 93.43 57.56 C 92.37 51.31 92.51 44.73 90.10 38.78 C 88.11 44.58 90.84 50.95 91.34 56.92 M 125.99 127.94 C 123.29 130.85 123.39 135.24 124.38 138.85 C 126.23 145.69 128.15 152.51 129.92 159.38 C 132.05 159.39 134.18 159.40 136.31 159.41 C 136.53 158.06 136.75 156.72 136.96 155.37 C 136.25 155.17 134.82 154.75 134.11 154.55 C 134.54 150.43 136.21 146.67 137.68 142.87 C 138.13 136.48 135.65 130.35 134.73 124.10 C 132.95 127.42 129.22 127.34 125.99 127.94 M 108.84 159.37 C 111.52 159.40 114.20 159.42 116.88 159.42 C 114.97 156.46 113.97 152.12 111.16 150.18 C 109.25 152.17 109.59 156.47 108.84 159.37 Z" />
<path fill="#9079a4" opacity="1.00" d=" M 41.40 22.54 C 50.54 21.85 59.76 22.21 68.92 22.30 C 74.54 22.62 75.32 31.55 69.90 32.95 C 61.05 33.97 52.04 32.78 43.14 33.51 C 37.42 34.48 32.86 40.10 33.27 45.94 C 33.27 79.65 33.26 113.35 33.28 147.06 C 32.97 153.47 38.62 159.29 45.01 159.37 C 55.87 159.63 66.76 159.18 77.62 159.55 C 83.49 160.03 83.87 169.48 78.00 170.36 C 67.03 170.76 56.01 170.45 45.03 170.51 C 32.66 170.58 21.73 159.40 22.10 147.03 C 22.09 113.00 22.05 78.96 22.14 44.93 C 22.14 34.12 30.76 24.23 41.40 22.54 Z" />
</g>
</svg>
