<?xml version="1.0" encoding="UTF-8" ?>
<!DOCTYPE svg PUBLIC "-//W3C//DTD SVG 1.1//EN" "http://www.w3.org/Graphics/SVG/1.1/DTD/svg11.dtd">
<svg width="192pt" height="192pt" viewBox="0 0 192 192" version="1.1" xmlns="http://www.w3.org/2000/svg">
<g id="#ff3660ff">
<path fill="#ff3660" opacity="1.00" d=" M 26.25 32.08 C 27.37 19.84 42.30 11.94 53.06 17.92 C 87.38 38.23 121.57 58.78 155.82 79.22 C 164.37 84.06 167.42 95.98 162.48 104.41 C 159.59 109.97 153.53 112.42 148.51 115.60 C 136.32 123.02 123.88 130.05 111.84 137.70 C 121.61 143.81 131.72 149.37 141.44 155.56 C 146.21 159.11 141.63 167.34 136.06 165.21 C 124.13 158.50 112.48 151.26 100.69 144.28 C 84.56 153.55 68.80 163.48 52.65 172.72 C 41.47 178.63 26.39 169.71 26.13 157.09 C 25.93 137.03 26.07 116.96 26.06 96.90 C 25.69 92.73 30.75 89.45 34.35 91.72 C 56.54 104.71 78.48 118.15 100.72 131.04 C 117.17 121.00 133.84 111.32 150.29 101.30 C 154.76 98.66 154.53 91.43 150.03 88.94 C 116.26 68.70 82.44 48.53 48.63 28.35 C 44.53 25.59 38.22 28.21 37.50 33.16 C 37.10 44.44 37.65 55.75 37.24 67.03 C 36.28 72.89 26.96 72.85 26.19 66.95 C 25.98 55.34 25.89 43.69 26.25 32.08 M 37.38 106.69 C 37.38 123.13 37.35 139.57 37.40 156.01 C 37.18 161.32 43.85 165.14 48.32 162.22 C 62.03 154.11 75.72 145.95 89.35 137.70 C 72.14 127.18 54.75 116.94 37.38 106.69 Z" />
</g>
</svg>
