<?xml version="1.0" encoding="UTF-8" ?>
<!DOCTYPE svg PUBLIC "-//W3C//DTD SVG 1.1//EN" "http://www.w3.org/Graphics/SVG/1.1/DTD/svg11.dtd">
<svg width="192pt" height="192pt" viewBox="0 0 192 192" version="1.1" xmlns="http://www.w3.org/2000/svg">
<g id="#5b8bc4ff">
<path fill="#5b8bc4" opacity="1.00" d=" M 40.30 21.38 C 43.81 20.57 47.43 20.76 51.00 20.76 C 83.33 20.79 115.66 20.71 147.98 20.77 C 160.18 20.76 171.01 31.76 170.81 43.95 C 170.87 77.98 170.88 112.01 170.85 146.04 C 171.19 158.34 160.36 169.47 148.07 169.53 C 113.69 169.59 79.31 169.56 44.94 169.51 C 33.02 169.45 22.32 159.01 22.16 147.06 C 22.06 112.70 22.15 78.32 22.17 43.96 C 21.98 33.41 30.06 23.61 40.30 21.38 M 42.28 32.29 C 37.19 33.66 33.08 38.57 33.27 43.95 C 33.24 77.99 33.26 112.03 33.27 146.06 C 32.98 152.83 39.29 158.80 46.01 158.37 C 79.67 158.34 113.32 158.33 146.98 158.31 C 153.68 158.72 159.80 152.75 159.65 146.07 C 159.69 112.02 159.72 77.96 159.65 43.91 C 159.73 36.86 152.86 31.23 146.00 31.79 C 111.44 32.16 76.76 31.01 42.28 32.29 Z" />
<path fill="#5b8bc4" opacity="1.00" d=" M 103.38 53.44 C 105.93 52.59 108.38 54.14 110.01 55.99 C 119.08 65.23 128.48 74.17 137.40 83.55 C 141.29 88.30 134.31 95.30 129.56 91.39 C 119.89 82.11 110.54 72.46 101.05 62.98 C 97.81 60.24 99.28 54.41 103.38 53.44 Z" />
<path fill="#5b8bc4" opacity="1.00" d=" M 58.35 55.25 C 60.92 53.61 64.25 54.63 66.10 56.84 C 89.27 80.05 112.57 103.13 135.66 126.42 C 140.79 130.99 133.23 139.62 128.11 134.89 C 104.47 111.54 81.08 87.92 57.58 64.43 C 54.78 62.07 55.11 57.06 58.35 55.25 Z" />
<path fill="#5b8bc4" opacity="1.00" d=" M 60.38 97.39 C 63.22 96.77 65.38 98.98 67.16 100.83 C 75.91 109.77 84.96 118.42 93.60 127.45 C 97.80 132.16 90.51 139.56 85.79 135.21 C 76.27 126.07 67.06 116.59 57.72 107.26 C 54.13 104.38 55.75 97.97 60.38 97.39 Z" />
</g>
</svg>
