<?xml version="1.0" encoding="UTF-8" ?>
<!DOCTYPE svg PUBLIC "-//W3C//DTD SVG 1.1//EN" "http://www.w3.org/Graphics/SVG/1.1/DTD/svg11.dtd">
<svg width="192pt" height="192pt" viewBox="0 0 192 192" version="1.1" xmlns="http://www.w3.org/2000/svg">
<g id="#18acffff">
<path fill="#18acff" opacity="1.00" d=" M 29.11 29.92 C 28.77 21.70 35.44 13.64 43.93 13.75 C 63.30 13.79 82.67 13.63 102.03 13.82 C 108.63 14.09 108.66 24.86 102.05 25.18 C 83.04 25.49 64.00 25.16 44.99 25.33 C 43.17 25.19 41.11 26.04 40.84 28.06 C 40.29 33.31 40.76 38.60 40.60 43.87 C 51.34 44.45 62.14 43.46 72.86 44.23 C 78.46 45.65 77.87 54.86 72.04 55.34 C 61.60 55.69 51.14 55.30 40.69 55.52 C 40.72 78.48 40.75 101.45 40.69 124.42 C 70.41 124.69 100.14 124.44 129.86 124.52 C 130.21 120.49 128.53 115.11 132.44 112.38 C 135.93 109.75 141.59 112.56 141.48 116.97 C 141.64 131.30 141.50 145.65 141.58 159.99 C 141.84 168.15 135.48 176.43 126.96 176.54 C 99.32 176.57 71.67 176.56 44.03 176.52 C 35.97 176.17 28.82 169.36 29.13 161.07 C 28.95 117.36 29.13 73.63 29.11 29.92 M 40.64 136.29 C 40.77 144.85 40.34 153.44 40.85 161.99 C 41.09 164.50 43.85 165.04 45.90 164.96 C 72.30 164.96 98.69 164.98 125.09 164.94 C 127.49 165.22 130.05 163.69 129.89 161.04 C 130.10 152.79 129.99 144.53 129.91 136.28 C 100.15 136.34 70.39 136.30 40.64 136.29 Z" />
<path fill="#18acff" opacity="1.00" d=" M 119.88 29.95 C 119.63 21.70 126.34 13.46 134.95 13.74 C 141.76 14.13 149.50 12.15 155.37 16.66 C 163.73 22.55 163.79 36.50 155.43 42.42 C 148.47 47.43 139.37 44.74 131.42 45.42 C 131.40 57.95 131.70 70.50 131.23 83.02 C 129.99 96.62 116.59 107.45 103.02 105.79 C 91.11 105.01 81.01 94.73 79.70 82.99 C 77.76 69.97 87.66 56.73 100.55 54.53 C 107.23 53.07 114.16 54.85 119.88 58.40 C 119.93 48.92 119.93 39.44 119.88 29.95 M 133.50 25.62 C 130.61 27.17 131.71 31.05 131.48 33.74 C 136.62 33.83 141.77 34.00 146.90 33.69 C 151.30 33.60 151.17 25.54 146.86 25.41 C 142.42 25.27 137.91 24.99 133.50 25.62 M 100.40 66.53 C 92.61 69.19 88.76 79.12 92.57 86.38 C 95.89 93.57 105.62 96.59 112.43 92.52 C 119.03 89.14 121.80 80.22 118.40 73.65 C 115.37 67.15 107.06 63.78 100.40 66.53 Z" />
</g>
</svg>
