<?xml version="1.0" encoding="UTF-8" ?>
<!DOCTYPE svg PUBLIC "-//W3C//DTD SVG 1.1//EN" "http://www.w3.org/Graphics/SVG/1.1/DTD/svg11.dtd">
<svg width="192pt" height="192pt" viewBox="0 0 192 192" version="1.1" xmlns="http://www.w3.org/2000/svg">
<g id="#ff507cff">
<path fill="#ff507c" opacity="1.00" d=" M 114.76 26.75 C 119.58 22.69 125.38 19.47 131.01 16.55 C 134.82 17.41 132.86 21.51 131.88 23.89 C 124.02 43.24 116.94 62.98 108.21 81.93 C 103.85 80.09 99.52 78.16 95.25 76.11 C 101.20 59.47 108.16 43.14 114.76 26.75 Z" />
<path fill="#ff507c" opacity="1.00" d=" M 34.20 50.24 C 48.67 44.33 66.31 56.59 66.64 71.99 C 66.49 75.01 66.89 78.71 70.37 79.60 C 104.25 93.39 138.18 107.11 171.99 121.06 C 175.03 121.81 174.35 126.19 171.43 126.53 C 166.34 127.82 161.18 129.44 156.02 130.08 C 136.79 122.93 117.98 114.62 98.82 107.28 C 95.87 112.82 93.98 118.84 91.52 124.60 C 90.27 126.61 92.20 128.17 93.36 129.60 C 100.14 137.16 100.68 149.05 95.69 157.71 C 91.17 166.18 81.55 171.63 71.94 170.87 C 59.37 170.53 48.33 159.51 47.74 146.98 C 46.55 134.70 55.72 122.13 68.03 120.26 C 71.73 119.72 77.42 123.08 79.19 118.11 C 81.02 112.44 84.61 106.84 85.16 101.07 C 77.51 97.98 69.64 95.45 61.94 92.48 C 50.68 105.40 27.63 102.01 20.26 86.73 C 13.34 73.50 19.64 54.97 34.20 50.24 M 38.32 62.37 C 28.86 65.21 27.91 79.05 35.42 84.57 C 41.89 90.16 53.59 86.56 55.16 77.96 C 57.86 68.54 47.58 58.67 38.32 62.37 M 69.31 133.32 C 63.51 135.35 59.47 141.88 60.91 147.97 C 62.20 154.22 68.63 159.07 75.04 157.94 C 81.58 157.13 86.43 150.49 85.64 144.02 C 85.29 136.31 76.49 130.65 69.31 133.32 Z" />
</g>
</svg>
