<?xml version="1.0" encoding="UTF-8" ?>
<!DOCTYPE svg PUBLIC "-//W3C//DTD SVG 1.1//EN" "http://www.w3.org/Graphics/SVG/1.1/DTD/svg11.dtd">
<svg width="192pt" height="192pt" viewBox="0 0 192 192" version="1.1" xmlns="http://www.w3.org/2000/svg">
<g id="#18adffff">
<path fill="#18adff" opacity="1.00" d=" M 66.93 19.90 C 93.50 6.71 128.18 14.11 147.06 36.99 C 161.31 53.42 166.61 76.97 160.93 97.95 C 154.45 123.98 130.98 144.54 104.35 147.66 C 101.89 157.38 98.50 166.95 93.80 175.82 C 90.60 180.83 81.99 176.69 83.92 171.02 C 88.60 160.18 93.52 149.14 94.40 137.20 C 112.63 137.03 130.81 128.52 141.37 113.43 C 152.25 98.50 154.92 78.06 148.21 60.85 C 141.34 42.50 124.27 28.39 104.88 25.38 C 88.05 22.43 70.08 27.96 57.64 39.64 C 43.43 52.61 36.76 73.19 40.82 92.02 C 44.61 111.63 59.80 128.22 78.75 134.30 C 84.92 136.19 82.35 146.36 76.01 145.12 C 45.68 136.52 24.62 104.26 28.90 73.00 C 31.34 50.31 46.28 29.56 66.93 19.90 Z" />
</g>
</svg>
