<?xml version="1.0" encoding="UTF-8" ?>
<!DOCTYPE svg PUBLIC "-//W3C//DTD SVG 1.1//EN" "http://www.w3.org/Graphics/SVG/1.1/DTD/svg11.dtd">
<svg width="192pt" height="192pt" viewBox="0 0 192 192" version="1.1" xmlns="http://www.w3.org/2000/svg">
<g id="#ff514dff">
<path fill="#ff514d" opacity="1.00" d=" M 84.41 14.52 C 116.11 9.60 149.57 25.50 165.93 53.04 C 178.44 73.30 181.26 99.11 173.66 121.64 C 164.23 150.66 137.35 173.00 107.04 176.79 C 75.94 181.44 43.15 166.09 26.68 139.33 C 9.02 112.11 10.06 74.38 29.19 48.16 C 41.99 30.04 62.41 17.51 84.41 14.52 M 87.37 25.46 C 63.28 28.12 41.44 44.37 31.55 66.43 C 18.21 94.76 26.76 131.24 51.45 150.54 C 77.21 172.29 118.57 171.24 143.17 148.18 C 167.44 127.20 173.80 89.04 157.74 61.29 C 144.33 36.53 115.31 21.73 87.37 25.46 Z" />
<path fill="#ff514d" opacity="1.00" d=" M 78.86 65.81 C 93.55 62.42 108.27 59.06 123.00 55.84 C 125.00 55.18 126.49 57.13 126.27 58.99 C 126.41 76.32 126.27 93.66 126.33 111.00 C 126.28 114.82 127.24 118.87 125.53 122.47 C 123.19 128.02 116.10 131.07 110.56 128.43 C 103.82 125.93 101.08 116.36 105.77 110.81 C 108.24 107.50 112.31 105.91 116.37 105.96 C 116.39 94.62 116.44 83.27 116.34 71.93 C 105.60 73.92 95.00 76.61 84.34 79.01 C 84.30 95.01 84.34 111.00 84.32 127.00 C 84.58 132.53 80.65 138.04 75.06 138.93 C 67.58 140.70 60.04 133.52 61.19 125.99 C 61.86 119.64 68.23 115.28 74.40 115.81 C 74.39 101.18 74.39 86.55 74.41 71.92 C 74.11 69.10 75.98 66.26 78.86 65.81 Z" />
</g>
</svg>
