<?xml version="1.0" encoding="UTF-8" ?>
<!DOCTYPE svg PUBLIC "-//W3C//DTD SVG 1.1//EN" "http://www.w3.org/Graphics/SVG/1.1/DTD/svg11.dtd">
<svg width="192pt" height="192pt" viewBox="0 0 192 192" version="1.1" xmlns="http://www.w3.org/2000/svg">
<g id="#f05e70ff">
<path fill="#f05e70" opacity="1.00" d=" M 89.50 14.70 C 107.58 12.63 126.40 19.87 138.43 33.52 C 149.58 45.83 154.91 63.16 152.50 79.60 C 152.14 82.33 151.26 85.12 152.14 87.84 C 158.08 109.57 164.20 131.25 170.03 153.00 C 171.22 165.71 159.59 177.38 147.00 177.22 C 113.00 177.29 79.00 177.28 45.00 177.22 C 32.22 177.56 20.24 165.62 21.69 152.73 C 27.47 131.53 33.31 110.35 39.19 89.18 C 40.79 83.83 37.77 78.46 38.28 73.01 C 36.92 44.13 60.75 17.17 89.50 14.70 M 86.38 26.55 C 71.38 29.49 58.31 40.48 52.73 54.69 C 46.45 70.14 49.42 88.93 60.35 101.56 C 69.68 112.77 84.54 119.05 99.09 117.84 C 114.92 116.84 129.73 106.91 136.82 92.74 C 144.98 77.09 142.98 56.82 131.84 43.11 C 121.37 29.65 103.07 22.92 86.38 26.55 M 47.13 102.69 C 42.48 119.82 37.66 136.91 33.04 154.06 C 32.36 160.44 38.74 165.99 44.92 165.85 C 78.97 165.85 113.03 165.92 147.09 165.81 C 153.80 165.86 160.69 158.79 158.09 152.00 C 153.44 135.45 148.97 118.86 144.36 102.30 C 135.45 116.42 120.27 126.46 103.67 128.64 C 81.82 132.08 58.97 121.23 47.13 102.69 Z" />
</g>
</svg>
