<?xml version="1.0" encoding="UTF-8" ?>
<!DOCTYPE svg PUBLIC "-//W3C//DTD SVG 1.1//EN" "http://www.w3.org/Graphics/SVG/1.1/DTD/svg11.dtd">
<svg width="192pt" height="192pt" viewBox="0 0 192 192" version="1.1" xmlns="http://www.w3.org/2000/svg">
<g id="#b85e53ff">
<path fill="#b85e53" opacity="1.00" d=" M 21.01 43.94 C 20.88 31.70 31.73 20.61 44.02 20.74 C 68.01 20.78 92.01 20.51 115.99 20.86 C 122.42 21.71 121.48 32.05 115.04 32.02 C 91.36 32.33 67.65 32.05 43.95 32.15 C 37.75 32.07 32.29 37.78 32.34 43.93 C 32.26 71.72 32.33 99.52 32.31 127.31 C 36.04 125.80 39.95 124.56 44.02 124.64 C 68.35 124.59 92.67 124.65 116.99 124.60 C 121.15 124.89 125.00 121.21 124.77 117.02 C 124.86 95.02 124.78 73.00 124.81 50.99 C 124.84 45.52 124.34 39.78 126.65 34.65 C 130.45 25.30 141.03 19.28 151.01 21.15 C 161.39 22.70 169.90 32.39 169.72 42.94 C 169.75 77.63 169.73 112.33 169.76 147.02 C 170.43 159.20 158.91 169.85 146.98 169.57 C 112.33 169.52 77.67 169.59 43.02 169.51 C 30.98 169.11 20.82 158.01 21.02 146.04 C 20.96 112.01 20.98 77.97 21.01 43.94 M 144.35 32.51 C 139.44 33.86 135.84 38.83 136.19 43.94 C 136.14 68.30 136.25 92.66 136.14 117.02 C 136.38 126.78 127.93 135.91 118.06 135.80 C 93.36 135.88 68.66 135.70 43.97 135.84 C 37.19 135.57 30.87 142.02 32.28 148.88 C 32.93 154.98 39.17 158.76 44.95 158.47 C 78.95 158.48 112.96 158.54 146.97 158.41 C 152.75 158.59 158.48 153.98 158.42 147.97 C 158.49 112.99 158.48 78.00 158.45 43.02 C 158.58 35.99 151.05 30.47 144.35 32.51 Z" />
<path fill="#b85e53" opacity="1.00" d=" M 144.28 38.17 C 150.26 35.14 157.78 41.38 155.87 47.79 C 154.65 53.45 147.08 56.30 142.60 52.47 C 137.64 48.97 138.59 40.38 144.28 38.17 Z" />
</g>
</svg>
