<?xml version="1.0" encoding="UTF-8" ?>
<!DOCTYPE svg PUBLIC "-//W3C//DTD SVG 1.1//EN" "http://www.w3.org/Graphics/SVG/1.1/DTD/svg11.dtd">
<svg width="192pt" height="192pt" viewBox="0 0 192 192" version="1.1" xmlns="http://www.w3.org/2000/svg">
<g id="#dfaa43ff">
<path fill="#dfaa43" opacity="1.00" d=" M 82.90 15.79 C 91.80 14.30 101.18 14.21 110.07 15.85 C 116.09 19.14 113.77 27.66 115.54 33.29 C 119.46 34.68 123.29 36.31 127.02 38.17 C 132.18 35.43 136.53 28.05 142.99 29.88 C 150.43 34.96 156.98 41.60 162.21 48.93 C 164.94 55.85 155.65 59.96 154.32 65.82 C 155.55 69.56 157.37 73.08 158.49 76.86 C 164.20 78.76 173.14 76.36 175.90 83.10 C 177.24 91.88 177.36 101.05 175.73 109.79 C 172.35 115.75 163.94 113.50 158.26 115.23 C 156.93 119.17 155.31 123.01 153.44 126.72 C 156.24 132.03 164.23 136.73 161.32 143.40 C 155.90 150.56 149.51 157.39 141.93 162.25 C 135.45 163.29 131.30 156.41 126.13 153.54 C 122.36 155.35 118.47 156.89 114.54 158.29 C 112.91 163.81 115.00 171.87 109.38 175.31 C 100.54 177.14 91.19 176.89 82.29 175.56 C 75.51 172.76 78.52 163.63 76.10 158.07 C 72.37 156.36 68.48 155.02 64.85 153.10 C 59.62 155.85 55.24 163.33 48.67 161.26 C 41.38 156.14 34.95 149.58 29.72 142.37 C 27.36 135.70 35.14 131.17 37.99 125.89 C 36.20 122.21 34.92 118.32 33.28 114.58 C 27.81 111.98 18.48 115.11 15.98 108.08 C 14.75 99.25 14.45 90.00 16.27 81.25 C 19.81 75.56 28.03 77.75 33.68 75.99 C 34.98 72.08 36.60 68.28 38.51 64.64 C 35.80 59.31 28.21 54.90 30.35 48.28 C 35.73 40.87 42.31 33.90 50.06 28.99 C 56.48 28.10 60.58 34.84 65.70 37.71 C 69.39 35.86 73.33 34.60 77.10 32.93 C 79.44 27.50 76.65 18.87 82.90 15.79 M 90.20 26.72 C 88.63 32.57 90.81 42.39 82.89 43.90 C 76.79 45.07 71.63 48.68 65.88 50.70 C 60.23 50.42 56.57 44.91 51.94 42.19 C 48.92 45.00 46.00 47.91 43.19 50.93 C 46.13 56.23 54.46 61.44 50.21 68.11 C 46.82 73.33 45.44 79.43 43.00 85.05 C 38.82 88.84 32.39 87.70 27.17 88.88 C 26.96 92.92 26.66 96.98 27.16 101.01 C 32.17 103.34 39.48 100.92 43.12 105.81 C 45.16 111.88 47.06 118.04 50.34 123.60 C 53.36 130.27 44.32 134.20 43.20 139.87 C 45.32 143.16 48.49 145.58 51.21 148.34 C 55.84 145.69 59.45 140.41 65.00 139.96 C 70.71 142.10 75.82 145.83 81.92 147.12 C 89.93 148.68 87.65 158.61 89.31 164.48 C 93.43 164.61 97.54 164.60 101.65 164.49 C 102.57 159.78 102.44 154.79 104.19 150.29 C 106.67 146.72 111.70 147.06 115.32 145.27 C 119.48 144.07 122.94 140.51 127.38 140.45 C 132.20 142.14 135.73 146.21 139.93 149.01 C 142.98 146.22 145.89 143.29 148.64 140.21 C 145.79 135.07 137.62 130.01 141.49 123.48 C 144.18 118.88 146.29 113.98 147.69 108.84 C 149.71 101.51 159.20 103.96 164.86 102.23 C 165.02 98.12 165.01 94.00 164.77 89.88 C 158.88 88.36 149.01 90.39 147.62 82.38 C 146.39 76.52 143.16 71.45 140.92 66.00 C 140.55 60.18 146.61 56.74 148.94 51.88 C 147.09 48.22 143.43 45.85 140.64 42.92 C 136.06 45.62 132.46 50.65 126.98 51.32 C 121.20 49.18 116.02 45.47 109.88 44.15 C 101.91 42.52 104.28 32.63 102.59 26.76 C 98.46 26.60 94.33 26.57 90.20 26.72 Z" />
<path fill="#dfaa43" opacity="1.00" d=" M 84.30 53.11 C 84.90 53.14 86.09 53.19 86.69 53.22 C 86.89 54.79 87.09 56.37 87.27 57.94 C 105.51 53.69 125.66 64.32 131.98 82.01 C 139.36 100.05 130.03 122.42 112.31 130.28 C 94.23 139.24 69.79 130.86 61.71 112.23 C 59.73 106.41 68.97 102.64 71.76 108.08 C 76.89 117.40 87.32 123.69 98.09 122.64 C 112.79 121.96 124.91 107.60 123.20 93.00 C 122.10 76.04 103.44 64.04 87.44 69.46 C 86.81 71.78 88.15 75.89 85.05 76.52 C 80.87 73.05 76.98 69.15 73.52 64.96 C 75.99 60.22 80.86 57.17 84.30 53.11 Z" />
</g>
</svg>
