<?xml version="1.0" encoding="UTF-8" ?>
<!DOCTYPE svg PUBLIC "-//W3C//DTD SVG 1.1//EN" "http://www.w3.org/Graphics/SVG/1.1/DTD/svg11.dtd">
<svg width="192pt" height="192pt" viewBox="0 0 192 192" version="1.1" xmlns="http://www.w3.org/2000/svg">
<g id="#606f80ff">
<path fill="#606f80" opacity="1.00" d=" M 150.75 19.40 C 155.67 13.16 164.13 15.04 171.04 14.87 C 175.32 14.69 178.38 18.90 177.82 22.95 C 177.76 70.98 177.93 119.01 177.75 167.03 C 178.12 174.18 166.18 174.22 166.57 167.00 C 166.42 120.08 166.49 73.14 166.55 26.22 C 164.50 26.24 162.44 26.25 160.39 26.28 C 156.68 30.30 151.24 31.41 145.98 30.73 C 144.64 31.99 143.31 33.24 141.97 34.48 C 147.17 34.76 152.81 37.05 154.76 42.28 C 158.15 51.34 155.31 62.01 149.21 69.25 C 144.34 74.04 137.32 70.31 132.22 67.92 C 117.50 60.73 109.08 44.76 108.16 28.79 C 77.77 28.62 47.37 28.89 16.98 28.75 C 12.47 29.33 9.34 23.55 12.05 20.00 C 13.74 17.31 17.23 17.54 20.00 17.50 C 50.66 17.71 81.33 17.24 111.98 17.59 C 119.01 17.71 119.78 25.65 119.94 30.99 C 120.81 43.99 129.72 55.84 142.13 59.96 C 144.44 55.73 145.33 50.91 144.50 46.14 C 139.42 46.72 132.76 50.44 129.14 44.86 C 125.11 36.56 131.89 28.14 137.76 22.75 C 141.02 18.98 146.24 19.28 150.75 19.40 Z" />
<path fill="#606f80" opacity="1.00" d=" M 37.92 50.14 C 34.53 46.38 37.85 39.66 42.90 40.06 C 61.61 39.99 80.34 39.97 99.05 40.14 C 105.32 40.10 106.17 50.17 99.98 51.21 C 85.39 51.67 70.75 51.35 56.14 51.24 C 62.16 55.71 63.99 65.12 58.97 70.97 C 54.71 74.93 48.35 72.73 43.15 73.10 C 43.14 76.03 43.12 78.97 43.10 81.91 C 47.75 82.25 52.62 81.30 57.11 82.80 C 61.54 84.75 61.52 90.17 62.82 94.14 C 63.90 98.23 67.22 102.51 64.98 106.81 C 62.43 110.73 58.41 113.37 55.17 116.68 C 57.67 119.19 60.21 121.66 62.82 124.05 C 66.19 121.01 69.09 117.33 73.02 114.98 C 76.97 112.87 80.59 116.39 83.98 118.00 C 87.56 120.04 92.06 120.06 95.33 122.67 C 98.56 125.78 97.48 130.68 97.84 134.69 C 101.39 134.72 104.95 134.79 108.50 134.83 C 108.78 129.97 107.50 123.35 112.58 120.51 C 116.58 118.67 120.84 117.36 125.08 116.16 C 129.55 114.94 133.04 118.54 136.29 120.96 C 136.61 111.62 136.27 102.25 136.84 92.92 C 136.90 88.54 142.74 86.30 145.93 89.10 C 148.38 90.93 148.13 94.30 148.09 97.02 C 147.44 108.78 148.02 120.59 147.28 132.34 C 146.88 136.91 140.98 139.36 137.34 136.72 C 131.93 133.38 127.54 125.22 120.26 129.40 C 119.45 134.00 120.59 139.09 118.33 143.34 C 115.36 147.77 109.48 146.15 105.01 146.22 C 99.89 145.75 94.16 147.34 89.53 144.52 C 85.29 141.41 86.59 135.59 86.29 131.07 C 82.81 129.89 79.42 128.47 76.07 126.96 C 71.38 130.67 67.58 138.36 60.54 136.56 C 55.78 134.26 52.72 129.62 48.69 126.31 C 45.40 123.19 40.34 119.47 42.33 114.26 C 45.07 109.54 49.90 106.51 53.66 102.65 C 52.63 99.57 51.67 96.46 50.78 93.33 C 44.51 92.87 34.71 95.72 32.02 87.90 C 31.25 80.78 31.40 73.39 32.40 66.30 C 35.27 59.05 44.45 62.16 50.40 61.70 C 46.28 57.81 41.72 54.35 37.92 50.14 Z" />
<path fill="#606f80" opacity="1.00" d=" M 73.57 71.15 C 84.34 67.00 95.26 63.21 106.14 59.38 C 108.89 62.22 111.39 65.31 113.39 68.73 C 105.89 74.54 98.41 80.39 90.74 85.95 C 89.23 87.28 87.80 85.12 86.66 84.32 C 82.27 79.96 77.58 75.89 73.57 71.15 Z" />
<path fill="#606f80" opacity="1.00" d=" M 93.73 92.56 C 100.81 86.01 108.20 79.60 116.15 74.15 C 121.59 74.25 125.74 79.50 129.85 82.76 C 123.42 90.76 116.46 98.33 109.76 106.11 C 104.10 101.99 98.99 97.17 93.73 92.56 Z" />
</g>
</svg>
