<?xml version="1.0" encoding="UTF-8" ?>
<!DOCTYPE svg PUBLIC "-//W3C//DTD SVG 1.1//EN" "http://www.w3.org/Graphics/SVG/1.1/DTD/svg11.dtd">
<svg width="192pt" height="192pt" viewBox="0 0 192 192" version="1.1" xmlns="http://www.w3.org/2000/svg">
<g id="#45e371ff">
<path fill="#45e371" opacity="1.00" d=" M 21.46 26.00 C 21.02 20.50 27.25 17.05 32.05 18.87 C 52.09 26.60 72.18 34.22 92.29 41.77 C 97.44 43.50 101.70 48.31 101.17 54.00 C 101.03 89.17 101.01 124.34 101.05 159.51 C 120.07 152.83 139.04 146.01 157.88 138.82 C 157.81 102.88 158.02 66.93 157.87 30.99 C 144.23 36.11 130.75 41.69 117.00 46.46 C 111.02 47.47 108.36 38.11 113.95 35.86 C 128.57 30.05 143.31 24.49 158.02 18.92 C 162.94 16.81 169.69 20.13 169.19 25.97 C 169.32 64.32 169.08 102.67 169.19 141.01 C 169.50 143.99 168.23 147.31 165.12 148.17 C 142.79 156.73 120.26 164.74 97.71 172.71 C 93.94 174.57 89.36 171.14 89.79 167.04 C 89.48 128.95 89.88 90.84 89.44 52.75 C 70.49 45.66 51.61 38.41 32.69 31.26 C 32.68 67.15 32.73 103.05 32.76 138.94 C 47.39 144.46 62.20 149.55 76.79 155.16 C 82.31 157.60 79.27 166.95 73.34 165.59 C 57.33 160.23 41.52 154.18 25.67 148.31 C 22.89 147.56 21.22 144.79 21.49 141.99 C 21.53 103.33 21.45 64.66 21.46 26.00 Z" />
</g>
</svg>
