<?xml version="1.0" encoding="UTF-8" ?>
<!DOCTYPE svg PUBLIC "-//W3C//DTD SVG 1.1//EN" "http://www.w3.org/Graphics/SVG/1.1/DTD/svg11.dtd">
<svg width="192pt" height="192pt" viewBox="0 0 192 192" version="1.1" xmlns="http://www.w3.org/2000/svg">
<g id="#937391ff">
<path fill="#937391" opacity="1.00" d=" M 80.30 14.36 C 84.21 12.88 89.67 14.22 90.10 19.03 C 90.37 22.96 86.71 25.36 83.15 25.44 C 53.90 30.15 29.64 55.16 25.43 84.44 C 24.95 91.20 14.01 90.60 14.21 83.88 C 18.10 49.65 46.44 20.21 80.30 14.36 Z" />
<path fill="#937391" opacity="1.00" d=" M 104.34 14.36 C 108.03 13.08 111.95 14.82 115.63 15.47 C 147.35 23.12 173.06 51.48 176.78 84.00 C 177.14 89.23 169.44 91.78 166.57 87.38 C 164.51 83.21 164.72 78.26 162.98 73.93 C 155.29 48.55 132.22 28.94 106.04 25.03 C 100.64 24.70 99.34 16.38 104.34 14.36 Z" />
<path fill="#937391" opacity="1.00" d=" M 87.41 56.59 C 103.10 53.04 120.41 60.52 128.79 74.19 C 137.74 87.99 136.59 107.40 125.99 119.99 C 118.15 129.73 105.49 135.28 93.03 134.45 C 80.03 133.70 67.71 126.03 61.33 114.67 C 54.73 103.47 54.39 88.89 60.36 77.35 C 65.60 66.79 75.88 58.98 87.41 56.59 M 90.36 67.45 C 76.69 69.64 66.09 83.19 67.40 97.01 C 67.95 113.03 84.29 126.00 100.04 122.89 C 116.05 120.68 127.41 103.01 122.57 87.53 C 119.01 73.84 104.24 64.66 90.36 67.45 Z" />
<path fill="#937391" opacity="1.00" d=" M 19.25 100.48 C 23.06 100.00 25.58 103.66 25.71 107.11 C 30.11 135.04 52.99 158.77 80.69 164.32 C 83.65 165.10 87.57 164.82 89.25 167.92 C 91.51 171.20 88.91 176.19 85.03 176.46 C 49.02 172.94 18.09 141.92 14.16 106.03 C 14.02 103.21 16.48 100.69 19.25 100.48 Z" />
<path fill="#937391" opacity="1.00" d=" M 168.38 101.46 C 171.77 99.35 176.75 102.11 176.69 106.12 C 172.89 141.70 142.40 172.12 106.95 176.39 C 102.72 176.77 99.67 171.51 101.90 167.96 C 103.56 164.90 107.39 165.08 110.33 164.33 C 137.06 158.94 159.35 136.61 164.70 109.87 C 165.44 106.95 165.28 103.06 168.38 101.46 Z" />
</g>
</svg>
