<?xml version="1.0" encoding="UTF-8" ?>
<!DOCTYPE svg PUBLIC "-//W3C//DTD SVG 1.1//EN" "http://www.w3.org/Graphics/SVG/1.1/DTD/svg11.dtd">
<svg width="192pt" height="192pt" viewBox="0 0 192 192" version="1.1" xmlns="http://www.w3.org/2000/svg">
<g id="#1ab2ffff">
<path fill="#1ab2ff" opacity="1.00" d=" M 84.41 14.53 C 115.59 9.71 148.61 24.99 165.16 51.83 C 178.05 71.80 181.27 97.51 174.15 120.13 C 165.06 150.18 137.31 173.42 106.09 176.92 C 74.75 181.22 41.96 165.26 25.89 138.05 C 8.22 109.71 10.67 70.66 31.76 44.77 C 44.61 28.47 63.83 17.35 84.41 14.53 M 61.06 34.09 C 33.21 49.37 18.71 84.54 27.93 114.99 C 33.13 133.59 46.43 149.69 63.60 158.48 C 82.42 168.32 105.72 168.80 125.03 160.04 C 153.07 147.81 170.81 115.97 165.87 85.67 C 127.88 90.92 95.73 116.77 74.93 147.99 C 71.46 153.74 61.98 148.13 65.38 142.30 C 87.40 108.23 122.49 80.65 163.37 74.67 C 162.23 70.45 160.53 66.39 158.29 62.63 C 127.32 66.27 98.37 82.59 78.42 106.44 C 74.23 111.64 65.67 104.89 69.70 99.59 C 90.06 74.53 119.84 57.45 151.67 52.14 C 131.29 24.87 90.34 16.76 61.06 34.09 Z" />
</g>
</svg>
