<?xml version="1.0" encoding="UTF-8" ?>
<!DOCTYPE svg PUBLIC "-//W3C//DTD SVG 1.1//EN" "http://www.w3.org/Graphics/SVG/1.1/DTD/svg11.dtd">
<svg width="192pt" height="192pt" viewBox="0 0 192 192" version="1.1" xmlns="http://www.w3.org/2000/svg">
<g id="#ff3662ff">
<path fill="#ff3662" opacity="1.00" d=" M 82.32 14.40 C 114.16 8.84 148.19 24.44 164.91 52.05 C 177.26 71.67 180.53 96.64 173.81 118.82 C 165.16 148.80 137.95 172.30 106.98 176.36 C 75.73 181.28 42.59 165.91 26.04 138.98 C 8.07 111.31 9.52 72.79 29.51 46.54 C 42.05 29.51 61.40 17.64 82.32 14.40 M 40.90 50.15 C 64.91 50.05 88.95 50.60 112.93 50.00 C 115.81 46.63 116.79 42.03 119.74 38.71 C 122.43 35.89 127.79 38.17 127.86 42.00 C 127.75 44.91 126.04 47.44 125.05 50.12 C 133.27 50.38 141.50 50.15 149.72 50.14 C 134.78 31.91 110.35 22.06 86.95 25.09 C 69.09 27.06 52.37 36.39 40.90 50.15 M 25.79 108.01 C 30.63 136.80 55.18 160.81 84.06 165.04 C 72.63 153.65 61.05 142.41 49.68 130.95 C 51.74 126.31 54.13 121.83 56.18 117.18 C 47.65 110.37 46.60 98.03 51.43 88.72 C 49.19 88.77 46.95 88.84 44.71 88.94 C 44.23 99.97 44.76 111.01 44.41 122.05 C 41.20 121.79 38.29 119.42 38.18 116.06 C 37.66 107.04 37.86 97.96 38.00 88.93 C 37.76 84.93 40.85 81.24 44.96 81.34 C 67.14 80.97 89.34 81.40 111.53 81.12 C 109.09 74.83 106.11 68.78 103.42 62.61 C 102.51 60.80 101.60 58.08 99.03 58.67 C 77.63 58.63 56.22 58.68 34.81 58.64 C 25.97 73.30 22.66 91.17 25.79 108.01 M 136.93 60.23 C 136.08 73.12 136.55 86.14 136.70 99.07 C 142.41 99.43 148.35 98.38 153.89 100.15 C 156.96 101.29 156.17 105.17 155.44 107.62 C 153.27 113.18 150.67 118.57 148.00 123.92 C 145.06 122.75 142.17 121.46 139.32 120.07 C 141.11 115.65 143.26 111.37 144.68 106.81 C 136.58 107.56 136.66 118.57 132.08 123.86 C 129.12 122.76 126.22 121.50 123.38 120.12 C 124.45 116.59 125.72 113.12 126.79 109.59 C 119.18 109.27 111.56 109.50 103.95 109.40 C 102.28 109.61 99.77 108.93 99.03 110.97 C 95.34 117.93 91.82 125.00 88.36 132.08 C 98.05 142.39 108.25 152.22 118.31 162.16 C 139.89 154.78 157.38 136.43 163.39 114.39 C 168.28 96.35 166.43 75.68 156.10 59.90 C 149.72 59.76 143.27 59.37 136.93 60.23 M 66.42 132.05 C 77.38 143.66 89.13 154.51 100.40 165.81 C 102.48 165.56 104.55 165.28 106.63 164.99 C 95.99 154.09 85.13 143.39 74.35 132.63 C 73.35 131.45 71.75 130.10 72.40 128.37 C 74.92 120.98 79.01 114.16 80.94 106.57 C 74.03 113.40 71.24 123.63 66.42 132.05 Z" />
</g>
</svg>
