<?xml version="1.0" encoding="UTF-8" ?>
<!DOCTYPE svg PUBLIC "-//W3C//DTD SVG 1.1//EN" "http://www.w3.org/Graphics/SVG/1.1/DTD/svg11.dtd">
<svg width="192pt" height="192pt" viewBox="0 0 192 192" version="1.1" xmlns="http://www.w3.org/2000/svg">
<g id="#4b72c7ff">
<path fill="#4b72c7" opacity="1.00" d=" M 92.31 12.38 C 98.49 10.96 105.16 12.17 110.58 15.43 C 126.84 24.84 143.14 34.19 159.41 43.58 C 166.95 47.84 171.93 56.27 171.80 64.95 C 171.84 83.98 171.84 103.01 171.87 122.04 C 172.05 130.77 167.15 139.23 159.62 143.59 C 143.12 153.15 126.62 162.70 110.10 172.23 C 102.48 176.73 92.53 176.61 84.97 172.04 C 71.91 164.42 58.70 157.04 45.73 149.27 C 40.56 146.07 44.87 137.18 50.61 139.44 C 64.40 146.77 77.70 155.05 91.37 162.63 C 95.60 164.98 100.98 164.68 105.03 162.09 C 121.29 152.66 137.58 143.27 153.83 133.82 C 158.35 131.32 160.89 126.15 160.61 121.06 C 160.50 102.35 160.59 83.64 160.53 64.93 C 160.58 60.17 157.82 55.60 153.66 53.32 C 137.44 43.91 121.17 34.55 104.92 25.17 C 100.95 22.68 95.66 22.36 91.49 24.55 C 77.80 32.11 64.53 40.47 50.73 47.81 C 44.55 50.42 40.36 40.27 46.48 37.58 C 61.83 29.38 76.13 18.80 92.31 12.38 Z" />
<path fill="#4b72c7" opacity="1.00" d=" M 40.37 65.46 C 45.03 64.66 51.40 65.94 52.45 71.37 C 53.18 76.24 53.84 83.00 49.08 86.08 C 43.81 88.77 34.44 87.95 33.32 80.90 C 32.08 75.11 32.71 65.93 40.37 65.46 M 39.60 70.55 C 38.41 74.89 37.32 84.44 44.58 82.51 C 49.78 79.28 47.60 66.55 39.60 70.55 Z" />
<path fill="#4b72c7" opacity="1.00" d=" M 59.56 67.56 C 63.47 63.92 69.26 65.11 73.95 66.24 C 73.35 67.60 72.73 68.97 72.11 70.33 C 69.38 70.35 66.46 69.68 63.88 70.83 C 61.70 73.94 61.69 78.93 64.14 81.88 C 67.69 83.94 74.14 80.05 74.66 86.20 C 69.15 88.43 60.60 88.61 57.67 82.39 C 56.10 77.62 56.00 71.49 59.56 67.56 Z" />
<path fill="#4b72c7" opacity="1.00" d=" M 16.16 65.93 C 21.17 65.75 26.19 65.71 31.20 65.98 C 31.26 71.54 25.72 70.12 22.31 71.31 C 20.69 76.03 22.07 81.53 21.47 86.56 C 19.70 86.61 17.92 86.67 16.15 86.70 C 16.06 79.78 16.08 72.85 16.16 65.93 Z" />
<path fill="#4b72c7" opacity="1.00" d=" M 44.99 96.96 C 48.44 95.26 52.39 96.17 55.80 97.48 C 55.29 98.73 54.77 99.98 54.25 101.23 C 51.49 101.34 48.48 100.58 45.91 101.83 C 43.76 104.33 44.41 107.96 44.73 110.96 C 46.39 117.40 57.26 109.48 56.04 117.79 C 50.84 118.87 43.77 119.70 40.53 114.42 C 37.45 108.76 38.77 99.95 44.99 96.96 Z" />
<path fill="#4b72c7" opacity="1.00" d=" M 16.74 97.24 C 18.32 97.27 19.89 97.33 21.47 97.39 C 23.51 101.91 24.89 106.69 27.00 111.18 C 29.01 106.90 29.80 102.14 31.93 97.93 C 33.23 97.23 36.87 96.10 36.41 98.70 C 34.00 107.39 30.49 115.76 26.82 123.98 C 25.88 126.75 22.45 125.37 20.32 125.45 C 27.65 116.44 17.84 106.72 16.74 97.24 Z" />
<path fill="#4b72c7" opacity="1.00" d=" M 62.97 97.30 C 68.02 97.16 73.08 97.18 78.13 97.27 C 78.68 103.84 78.49 110.45 78.35 117.03 C 77.15 118.41 74.96 117.50 73.35 117.74 C 72.88 112.45 73.37 107.12 72.93 101.82 C 61.91 99.38 71.31 120.00 59.54 118.13 C 60.81 111.20 62.46 104.34 62.97 97.30 Z" />
<path fill="#4b72c7" opacity="1.00" d=" M 82.73 97.23 C 90.88 95.46 89.68 106.53 93.08 111.18 C 96.30 106.61 94.93 95.68 102.92 97.20 C 100.75 106.24 96.98 114.83 93.26 123.32 C 92.33 126.06 89.14 125.85 86.80 125.88 C 87.46 122.51 90.62 119.54 89.22 115.94 C 87.13 109.68 84.35 103.65 82.73 97.23 Z" />
<path fill="#4b72c7" opacity="1.00" d=" M 107.21 97.29 C 112.11 97.31 117.08 96.72 121.94 97.65 C 121.16 102.63 116.02 101.58 112.32 102.29 C 111.94 107.45 112.28 112.63 111.89 117.78 C 110.31 117.81 108.73 117.81 107.15 117.79 C 106.75 110.97 106.60 104.10 107.21 97.29 Z" />
<path fill="#4b72c7" opacity="1.00" d=" M 125.34 97.30 C 126.94 97.22 128.53 97.18 130.12 97.14 C 131.17 101.96 129.79 107.02 131.16 111.75 C 132.30 114.67 135.82 113.99 138.13 113.14 C 138.33 107.89 138.00 102.63 138.42 97.39 C 140.11 97.47 143.53 96.23 143.48 99.02 C 143.29 104.88 144.39 111.24 142.88 116.80 C 137.83 118.52 130.40 120.32 126.59 115.43 C 124.02 109.78 125.23 103.30 125.34 97.30 Z" />
</g>
</svg>
