<?xml version="1.0" encoding="UTF-8" ?>
<!DOCTYPE svg PUBLIC "-//W3C//DTD SVG 1.1//EN" "http://www.w3.org/Graphics/SVG/1.1/DTD/svg11.dtd">
<svg width="192pt" height="192pt" viewBox="0 0 192 192" version="1.1" xmlns="http://www.w3.org/2000/svg">
<g id="#5ba7bfff">
<path fill="#5ba7bf" opacity="1.00" d=" M 15.06 31.95 C 14.72 23.16 22.21 15.08 31.00 14.77 C 48.32 14.69 65.65 14.74 82.98 14.73 C 91.71 14.59 99.67 22.17 99.80 30.93 C 99.92 72.95 99.84 114.98 99.92 157.01 C 99.97 159.45 99.60 161.89 99.04 164.27 C 118.37 164.30 137.70 164.43 157.02 164.18 C 157.80 162.95 158.27 161.17 156.85 160.19 C 140.94 144.12 124.82 128.23 108.99 112.08 C 105.20 107.34 111.80 100.27 116.60 104.35 C 135.91 123.39 155.02 142.65 174.18 161.84 C 179.18 166.24 175.60 175.42 169.00 175.44 C 136.67 175.59 104.33 175.34 71.99 175.61 C 62.34 175.38 52.28 176.61 43.07 172.99 C 26.94 167.28 15.33 151.14 15.03 134.03 C 14.95 100.00 15.07 65.98 15.06 31.95 M 30.24 26.32 C 27.88 27.05 26.12 29.47 26.34 31.98 C 26.33 66.00 26.27 100.04 26.39 134.07 C 26.66 149.35 39.71 163.04 54.96 164.02 C 64.33 164.19 73.70 164.09 83.07 164.06 C 86.26 164.26 88.72 161.02 88.50 158.00 C 88.52 116.00 88.56 73.99 88.53 31.99 C 88.69 28.99 86.18 25.95 83.05 26.15 C 65.45 26.23 47.82 25.90 30.24 26.32 Z" />
</g>
</svg>
