<?xml version="1.0" encoding="UTF-8" ?>
<!DOCTYPE svg PUBLIC "-//W3C//DTD SVG 1.1//EN" "http://www.w3.org/Graphics/SVG/1.1/DTD/svg11.dtd">
<svg width="192pt" height="192pt" viewBox="0 0 192 192" version="1.1" xmlns="http://www.w3.org/2000/svg">
<g id="#bc6d45ff">
<path fill="#bc6d45" opacity="1.00" d=" M 115.29 19.27 C 124.47 11.76 138.58 10.76 148.42 17.59 C 157.75 23.60 162.31 35.17 160.97 46.01 C 160.70 80.69 161.05 115.39 160.85 150.07 C 160.49 164.10 147.98 176.37 133.97 176.60 C 119.20 177.53 105.36 164.83 105.01 150.05 C 105.09 138.40 104.72 126.70 105.20 115.07 C 106.65 109.46 115.76 110.17 116.17 115.99 C 116.58 127.33 116.05 138.69 116.42 150.03 C 116.91 158.36 124.61 165.54 133.00 165.17 C 141.67 165.43 149.45 157.71 149.46 149.07 C 149.53 120.69 149.58 92.31 149.45 63.93 C 122.52 84.39 96.42 106.01 69.65 126.70 C 56.65 136.08 36.45 131.02 29.37 116.64 C 23.21 105.42 26.11 90.20 36.06 82.12 C 62.45 61.14 88.89 40.23 115.29 19.27 M 130.41 24.49 C 126.36 24.87 122.98 27.42 119.93 29.91 C 94.48 50.16 68.94 70.29 43.49 90.54 C 36.44 95.98 35.28 107.23 41.04 114.02 C 46.26 120.94 57.14 122.33 63.94 116.96 C 90.37 96.08 116.76 75.14 143.13 54.19 C 150.49 48.79 151.37 37.26 145.56 30.43 C 141.98 25.94 136.02 23.99 130.41 24.49 Z" />
</g>
</svg>
