<?xml version="1.0" encoding="UTF-8" ?>
<!DOCTYPE svg PUBLIC "-//W3C//DTD SVG 1.1//EN" "http://www.w3.org/Graphics/SVG/1.1/DTD/svg11.dtd">
<svg width="192pt" height="192pt" viewBox="0 0 192 192" version="1.1" xmlns="http://www.w3.org/2000/svg">
<g id="#18b7c5ff">
<path fill="#18b7c5" opacity="1.00" d=" M 45.42 18.58 C 80.29 18.08 115.19 18.44 150.08 18.36 C 162.61 18.18 173.60 29.54 173.26 42.02 C 173.32 75.67 173.30 109.32 173.28 142.97 C 173.42 150.99 169.44 159.33 162.37 163.38 C 157.74 165.76 152.39 159.73 155.42 155.46 C 158.46 152.23 162.26 148.95 162.06 144.06 C 162.21 110.37 162.11 76.67 162.14 42.97 C 162.70 36.12 156.96 29.44 149.97 29.57 C 116.30 29.51 82.63 29.56 48.96 29.52 C 42.55 29.12 36.34 34.47 36.18 40.97 C 35.91 60.98 36.36 81.02 35.97 101.04 C 35.93 107.57 25.09 107.61 25.09 101.05 C 24.73 81.36 25.14 61.65 25.04 41.96 C 24.65 30.48 34.02 19.80 45.42 18.58 Z" />
<path fill="#18b7c5" opacity="1.00" d=" M 73.33 47.38 C 75.79 42.61 82.77 41.96 86.59 45.42 C 89.49 50.04 90.08 55.80 87.76 60.81 C 85.86 61.30 83.96 61.81 82.08 62.37 C 83.08 68.31 85.53 74.03 84.44 80.20 C 87.42 81.35 90.76 80.50 93.71 81.38 C 96.00 83.62 93.96 86.76 92.22 88.59 C 89.72 86.92 85.46 83.34 83.36 87.42 C 78.72 95.60 83.76 104.37 86.91 112.04 C 88.92 116.05 90.22 121.58 94.04 123.92 C 99.30 120.26 101.12 112.87 101.71 106.62 C 102.48 100.54 109.89 98.10 110.35 91.99 C 111.50 84.16 99.84 82.82 100.01 75.15 C 102.72 71.04 107.24 68.61 111.28 66.02 C 110.43 66.05 108.72 66.11 107.87 66.13 C 110.94 60.84 107.28 55.46 107.06 50.04 C 106.83 45.99 112.00 43.13 115.12 45.91 C 118.51 49.40 124.06 46.21 127.55 49.50 C 132.31 54.13 131.93 61.74 129.44 67.43 C 127.94 67.60 126.43 67.77 124.93 67.94 C 125.75 71.05 127.53 73.81 128.20 76.95 C 128.91 80.73 126.33 84.03 126.15 87.69 C 129.07 92.19 133.88 86.89 135.36 83.75 C 138.04 84.25 141.79 85.50 141.22 88.99 C 139.22 97.27 123.44 91.36 125.15 101.75 C 130.76 109.02 137.92 115.14 143.36 122.61 C 144.39 124.18 144.65 126.16 144.23 127.98 C 142.38 135.85 142.55 144.00 141.67 152.00 C 146.24 154.20 149.53 158.32 153.91 160.92 C 149.15 167.76 138.35 164.51 132.65 160.95 C 137.07 150.61 132.17 139.78 133.44 129.01 C 130.24 122.50 121.35 122.22 116.04 117.78 C 109.94 124.37 104.51 133.54 94.93 135.05 C 95.81 140.65 97.02 146.34 99.87 151.31 C 104.62 151.56 108.38 155.43 113.34 154.99 C 114.79 160.32 108.49 163.38 104.01 163.08 C 100.57 162.80 95.09 165.98 93.14 161.85 C 94.48 152.87 89.58 144.56 83.72 138.22 C 79.98 138.21 74.31 138.74 73.35 143.17 C 72.12 146.78 70.74 150.33 69.47 153.92 C 64.04 153.42 62.43 147.58 62.68 142.98 C 62.41 139.94 60.83 133.70 65.94 134.51 C 72.71 135.86 78.36 131.44 83.37 127.59 C 79.79 123.37 75.35 119.97 71.76 115.73 C 68.59 121.67 64.76 127.40 59.85 132.04 C 55.51 133.99 51.23 130.26 47.24 128.87 C 38.60 125.01 27.29 119.43 18.83 126.61 C 14.27 123.73 17.17 117.10 21.28 115.37 C 24.59 114.16 26.48 110.40 29.99 109.84 C 34.31 109.89 31.97 116.58 36.06 117.01 C 42.42 118.38 49.08 118.52 55.06 121.39 C 59.65 111.72 60.10 100.87 63.92 91.00 C 63.68 86.44 55.80 86.87 55.67 82.02 C 57.65 75.55 62.73 70.75 66.08 65.02 C 67.77 61.88 72.69 62.28 73.92 58.86 C 74.15 55.02 71.36 51.09 73.33 47.38 M 114.74 58.63 C 113.96 61.30 113.18 64.26 110.39 65.54 C 112.90 66.26 115.39 65.18 117.79 64.51 C 116.92 62.47 115.85 60.54 114.74 58.63 Z" />
<path fill="#18b7c5" opacity="1.00" d=" M 28.23 128.09 C 31.26 126.57 35.46 128.63 35.88 132.05 C 36.50 136.63 35.73 141.28 36.32 145.87 C 37.12 151.43 42.32 155.87 47.91 155.95 C 59.92 156.19 71.95 155.68 83.96 156.15 C 89.75 156.89 89.80 166.30 83.97 167.03 C 72.00 167.53 59.97 167.19 47.99 167.20 C 35.33 167.26 24.32 155.65 24.97 143.02 C 25.57 138.15 22.90 130.98 28.23 128.09 Z" />
</g>
</svg>
