<?xml version="1.0" encoding="UTF-8" ?>
<!DOCTYPE svg PUBLIC "-//W3C//DTD SVG 1.1//EN" "http://www.w3.org/Graphics/SVG/1.1/DTD/svg11.dtd">
<svg width="192pt" height="192pt" viewBox="0 0 192 192" version="1.1" xmlns="http://www.w3.org/2000/svg">
<g id="#18aeffff">
<path fill="#18aeff" opacity="1.00" d=" M 77.88 21.01 C 78.64 12.90 89.95 10.74 95.31 15.70 C 97.75 18.48 97.41 22.56 97.54 26.02 C 97.63 28.47 94.02 30.58 95.91 32.98 C 100.46 40.51 111.47 37.62 116.79 44.21 C 120.95 49.21 125.21 55.15 124.95 61.95 C 123.42 68.56 115.52 70.71 112.52 76.37 C 111.49 82.34 112.81 88.95 109.33 94.34 C 105.61 99.79 105.62 106.95 101.23 112.01 C 104.21 114.89 109.02 112.61 112.73 114.26 C 117.23 116.63 121.83 108.63 125.39 113.59 C 126.27 119.19 128.83 124.65 128.43 130.37 C 122.81 133.67 121.43 126.16 119.35 122.70 C 112.11 119.06 104.76 124.97 98.02 127.23 C 96.44 126.63 95.29 125.35 94.05 124.26 C 92.59 128.45 93.58 132.76 94.01 137.01 C 93.55 145.12 88.81 152.12 86.85 159.87 C 85.03 164.76 85.32 170.26 82.99 174.95 C 77.38 177.73 69.83 178.32 64.78 173.86 C 65.59 169.93 71.35 170.56 73.90 167.87 C 82.75 161.07 80.86 148.68 82.70 138.93 C 84.77 132.75 79.43 126.58 82.63 120.61 C 87.07 113.25 80.61 105.66 78.45 98.59 C 75.42 91.93 76.14 84.54 76.99 77.50 C 68.47 74.93 64.29 65.65 61.08 58.14 C 64.18 53.06 65.61 47.37 66.62 41.57 C 69.76 35.96 77.44 38.44 82.49 36.10 C 80.61 31.20 79.36 26.03 77.88 21.01 M 74.07 68.57 C 75.25 67.98 76.46 67.43 77.69 66.93 C 76.85 63.52 76.38 60.03 75.06 56.75 C 71.66 59.78 71.95 64.89 74.07 68.57 M 108.35 56.98 C 107.56 61.33 107.24 65.86 109.14 69.99 C 112.11 68.29 115.39 65.68 115.58 61.99 C 115.55 58.43 111.59 56.20 108.35 56.98 Z" />
<path fill="#18aeff" opacity="1.00" d=" M 107.27 14.32 C 137.88 17.09 164.85 40.99 173.98 70.08 C 181.44 93.12 178.00 119.41 164.65 139.65 C 149.48 163.42 121.26 178.43 93.03 177.01 C 86.19 175.92 88.04 164.70 94.96 165.94 C 129.40 166.82 161.64 139.30 165.82 105.06 C 170.95 73.54 151.59 40.54 121.86 29.20 C 116.90 27.03 111.53 26.19 106.37 24.66 C 101.90 22.78 102.55 15.46 107.27 14.32 Z" />
<path fill="#18aeff" opacity="1.00" d=" M 65.41 18.56 C 71.44 15.63 76.35 25.41 70.43 28.43 C 52.43 35.56 37.17 49.70 29.78 67.71 C 16.04 98.88 29.03 138.46 58.42 155.58 C 64.68 157.94 61.64 168.29 55.00 166.36 C 25.87 150.99 8.92 116.24 13.83 83.76 C 17.57 54.81 38.14 28.90 65.41 18.56 Z" />
</g>
</svg>
