<?xml version="1.0" encoding="UTF-8" ?>
<!DOCTYPE svg PUBLIC "-//W3C//DTD SVG 1.1//EN" "http://www.w3.org/Graphics/SVG/1.1/DTD/svg11.dtd">
<svg width="192pt" height="192pt" viewBox="0 0 192 192" version="1.1" xmlns="http://www.w3.org/2000/svg">
<g id="#ff517cff">
<path fill="#ff517c" opacity="1.00" d=" M 18.98 48.98 C 27.11 30.33 47.28 15.89 68.15 19.63 C 79.84 21.70 89.24 29.89 96.21 39.08 C 105.56 24.04 125.07 14.92 142.36 20.70 C 158.56 26.30 171.91 40.26 176.01 57.01 C 181.39 78.92 174.32 102.28 161.15 120.07 C 159.41 122.84 156.32 124.73 153.01 124.63 C 143.72 124.70 134.43 124.71 125.14 124.57 C 122.87 124.66 120.68 123.21 119.93 121.07 C 117.57 114.99 115.96 108.64 113.48 102.61 C 109.38 114.52 105.66 126.55 101.47 138.42 C 99.92 143.47 92.14 143.42 90.61 138.40 C 86.42 124.17 82.96 109.72 78.75 95.48 C 77.23 99.75 77.64 104.98 74.48 108.51 C 70.71 112.19 63.59 108.22 64.98 103.01 C 67.54 92.01 70.13 81.00 72.99 70.08 C 74.25 64.70 82.61 64.69 84.02 69.98 C 88.43 85.12 92.32 100.42 96.55 115.61 C 100.81 104.28 104.09 92.60 108.25 81.23 C 109.86 76.52 117.16 76.58 118.86 81.20 C 122.74 91.54 125.81 102.18 129.53 112.57 C 136.90 113.00 144.32 112.95 151.69 112.64 C 164.24 96.97 169.76 74.83 163.51 55.40 C 158.66 40.33 143.05 28.69 126.93 31.09 C 115.07 32.32 104.51 41.75 102.60 53.63 C 101.63 57.31 102.66 61.83 99.80 64.79 C 96.23 68.02 89.82 64.89 90.21 60.06 C 90.26 49.00 84.05 37.74 73.60 33.40 C 58.10 26.42 38.74 34.33 31.32 49.32 C 21.07 69.07 26.74 93.55 38.85 111.16 C 53.15 131.79 73.72 147.42 95.86 158.87 C 109.46 150.79 121.63 140.58 134.26 131.14 C 139.64 127.79 145.86 135.87 141.29 140.22 C 128.65 151.23 114.46 160.25 100.72 169.78 C 98.20 171.83 94.62 171.87 91.88 170.22 C 66.15 156.74 42.09 138.31 26.48 113.44 C 14.91 94.54 9.79 69.87 18.98 48.98 Z" />
</g>
</svg>
