<?xml version="1.0" encoding="UTF-8" ?>
<!DOCTYPE svg PUBLIC "-//W3C//DTD SVG 1.1//EN" "http://www.w3.org/Graphics/SVG/1.1/DTD/svg11.dtd">
<svg width="192pt" height="192pt" viewBox="0 0 192 192" version="1.1" xmlns="http://www.w3.org/2000/svg">
<g id="#ff3662ff">
<path fill="#ff3662" opacity="1.00" d=" M 40.37 21.47 C 45.43 20.65 50.70 20.49 55.77 21.29 C 60.12 22.68 60.57 29.41 56.43 31.37 C 51.67 33.03 46.46 31.33 41.64 32.70 C 36.56 34.35 32.93 39.54 33.27 44.91 C 33.27 78.63 33.26 112.36 33.27 146.09 C 32.87 152.56 38.41 158.67 44.92 158.74 C 58.63 158.94 72.36 158.68 86.08 158.87 C 90.57 158.49 93.42 164.24 90.74 167.71 C 88.80 170.52 84.97 170.03 82.00 170.16 C 69.32 169.97 56.62 170.40 43.95 169.94 C 32.21 169.41 22.10 158.85 22.09 147.09 C 22.00 112.70 22.02 78.30 22.09 43.92 C 22.09 33.39 30.09 23.61 40.37 21.47 Z" />
<path fill="#ff3662" opacity="1.00" d=" M 95.61 20.09 C 96.78 22.14 97.80 24.28 98.75 26.45 C 99.98 25.73 101.21 25.02 102.46 24.32 C 100.47 26.99 98.34 29.55 96.28 32.17 C 98.83 30.15 101.73 28.60 105.00 28.21 C 103.57 32.50 99.89 34.35 95.70 34.93 C 89.99 42.69 97.42 51.49 100.29 58.89 C 102.50 56.10 104.65 53.26 106.55 50.24 C 106.21 48.57 105.87 46.91 105.53 45.24 C 106.82 46.62 108.08 48.02 109.37 49.40 C 109.05 47.08 108.58 44.78 108.03 42.50 C 108.80 42.97 110.35 43.91 111.12 44.37 C 111.70 37.47 107.55 30.33 111.87 23.94 C 115.65 29.46 111.59 36.11 114.83 41.89 C 117.84 36.11 118.76 29.18 124.30 25.01 C 126.12 32.36 118.32 36.54 117.91 43.51 C 124.45 42.89 131.01 38.80 133.61 32.68 C 133.22 29.13 132.64 25.50 134.28 22.12 C 139.37 28.97 134.17 37.79 128.84 42.81 C 134.46 44.04 138.25 39.88 142.59 37.26 C 139.00 42.49 133.64 46.42 127.02 44.47 C 118.24 46.94 108.32 51.93 105.35 61.35 C 102.95 68.58 104.98 76.22 106.54 83.40 C 110.29 79.95 113.54 75.70 113.24 70.31 C 114.15 71.68 115.04 73.06 115.94 74.44 C 119.87 70.73 125.40 64.63 119.05 60.30 C 120.84 61.17 122.61 62.09 124.38 63.01 C 130.12 59.87 125.60 52.89 129.88 48.72 C 130.97 51.78 131.10 55.01 130.67 58.21 C 132.95 56.27 134.78 53.90 135.80 51.07 C 136.28 52.29 136.78 53.50 137.30 54.71 C 137.72 50.85 138.48 46.91 141.35 44.07 C 141.62 46.10 141.83 48.13 142.01 50.17 C 143.24 49.27 144.48 48.38 145.75 47.54 C 143.35 51.36 139.68 54.09 135.96 56.52 C 138.43 56.76 140.88 57.14 143.30 57.66 C 140.32 60.07 136.67 61.33 132.90 60.18 C 129.85 62.55 127.56 65.68 125.71 69.04 C 130.35 67.86 135.70 68.35 139.24 64.51 C 138.87 65.48 138.15 67.43 137.78 68.40 C 142.55 68.85 146.04 65.75 149.14 62.61 C 149.52 62.98 150.29 63.72 150.68 64.09 C 152.95 64.24 155.22 64.50 157.47 64.91 C 155.69 66.02 153.89 67.09 152.06 68.11 C 149.35 67.26 146.66 67.85 144.27 69.27 C 138.92 72.17 132.40 70.25 127.05 73.13 C 120.70 76.43 116.56 82.62 112.97 88.59 C 118.77 88.35 124.77 87.15 127.47 81.36 C 126.89 83.30 126.26 85.23 125.62 87.15 C 130.15 86.40 134.97 85.57 138.69 82.66 C 138.84 79.38 138.46 75.91 140.35 73.01 C 143.68 73.79 142.08 78.62 141.61 81.04 C 146.45 78.39 152.66 76.64 157.62 80.06 C 155.09 81.12 152.40 82.02 149.64 81.37 C 144.17 80.17 139.75 84.37 135.27 86.74 C 138.03 87.90 140.77 89.13 143.37 90.63 C 133.78 88.45 123.57 90.44 115.02 95.07 C 110.83 97.50 111.47 102.91 111.83 107.00 C 112.52 112.34 112.88 118.91 117.98 122.06 C 123.79 125.40 131.62 126.87 134.65 133.60 C 131.14 131.28 127.61 128.47 123.08 129.36 C 123.14 129.92 123.26 131.03 123.32 131.58 C 127.67 133.37 133.17 134.45 134.67 139.66 C 128.96 134.70 121.02 134.92 114.64 131.14 C 118.16 136.03 123.66 138.96 127.26 143.76 C 130.96 148.69 131.91 155.49 129.79 161.27 C 130.40 151.56 125.10 142.73 116.09 139.03 C 115.64 145.67 116.62 152.39 120.19 158.11 C 118.65 157.12 117.36 155.87 116.31 154.38 C 116.02 160.04 116.38 166.07 113.29 171.11 C 115.17 161.85 113.08 152.66 107.36 145.13 C 105.89 147.96 104.21 150.80 103.74 154.00 C 104.29 157.49 106.77 160.31 107.61 163.74 C 105.83 161.97 104.20 160.08 102.45 158.29 C 102.81 162.42 103.68 166.49 104.07 170.62 C 99.02 164.57 100.14 156.48 100.74 149.25 C 99.89 152.27 98.08 154.80 95.46 156.52 C 98.53 151.39 100.17 145.47 99.10 139.49 C 94.09 144.85 91.23 151.63 87.97 158.08 C 87.10 150.95 91.16 144.89 94.69 139.13 C 88.75 141.02 85.83 146.53 83.70 151.91 C 82.97 146.45 86.13 141.72 89.84 138.09 C 85.35 140.97 79.74 143.17 77.32 148.30 C 75.67 151.29 75.81 154.88 74.29 157.88 C 71.33 145.49 83.07 137.50 90.93 130.23 C 83.91 133.66 75.00 133.74 69.99 140.50 C 70.89 133.45 78.92 132.86 82.86 128.22 C 78.30 127.48 74.55 130.11 70.94 132.42 C 75.32 124.14 86.20 124.48 92.82 118.81 C 99.44 114.05 98.18 104.85 97.21 97.83 C 95.62 90.94 87.58 89.69 81.71 91.20 C 83.29 90.11 84.88 89.03 86.42 87.90 C 77.72 91.19 68.53 93.19 59.20 93.28 C 60.08 92.70 60.96 92.13 61.85 91.57 C 60.07 90.61 58.33 89.59 56.61 88.53 C 62.71 85.56 67.80 92.54 73.83 89.03 C 73.05 88.22 72.27 87.40 71.49 86.59 C 73.63 86.58 75.76 86.54 77.89 86.36 C 71.07 81.53 62.04 79.76 54.26 83.39 C 54.67 82.94 55.49 82.03 55.90 81.57 C 52.67 81.53 49.66 80.28 47.25 78.16 C 54.25 76.08 60.59 81.71 67.87 79.00 C 63.02 73.61 55.60 73.62 48.96 72.97 C 50.06 72.70 52.25 72.16 53.35 71.89 C 51.07 70.30 49.37 68.10 47.99 65.71 C 51.87 65.89 55.29 67.76 56.90 71.37 C 62.66 71.98 67.98 74.25 73.22 76.58 C 70.68 68.53 64.23 61.53 55.21 61.91 C 55.87 61.65 57.17 61.15 57.82 60.89 C 56.27 58.79 54.94 56.53 53.78 54.19 C 58.30 54.85 60.97 58.48 63.35 61.98 C 64.09 58.98 64.81 55.97 65.99 53.11 C 65.79 58.22 66.38 63.49 70.36 67.16 C 70.09 64.23 70.10 61.28 70.63 58.38 C 72.05 60.64 74.30 62.90 73.74 65.81 C 72.80 70.52 76.64 74.14 77.81 78.43 C 84.09 80.73 90.17 83.51 96.17 86.47 C 95.63 79.85 97.81 72.18 93.64 66.42 C 90.46 64.53 86.70 63.33 84.89 59.73 C 89.60 59.18 92.94 62.18 95.37 65.78 C 94.59 57.24 90.53 47.14 80.97 45.66 C 76.04 44.06 73.61 49.41 71.04 52.43 C 71.75 49.83 72.63 47.28 73.66 44.79 C 73.20 44.92 72.28 45.18 71.83 45.31 C 69.94 47.91 67.15 49.48 64.14 50.42 C 65.06 48.47 66.05 46.55 67.11 44.66 C 66.78 44.25 66.11 43.42 65.78 43.00 C 69.23 42.97 72.68 42.95 76.13 42.82 C 74.73 41.20 73.33 39.59 71.90 37.99 C 68.84 39.42 65.49 39.75 62.19 39.02 C 63.09 38.16 64.00 37.31 64.92 36.47 C 63.56 36.05 62.20 35.61 60.86 35.15 C 61.96 35.06 64.18 34.88 65.28 34.80 C 64.08 32.66 63.02 30.43 62.11 28.15 C 65.35 29.18 68.21 31.15 69.53 34.37 C 73.34 36.06 75.76 39.54 78.96 42.03 C 81.91 43.40 85.29 43.41 88.43 44.15 C 87.39 41.47 86.18 38.85 84.86 36.30 C 81.48 37.51 78.00 37.18 74.87 35.43 C 77.69 34.18 80.46 32.31 83.66 32.43 C 82.15 29.50 82.82 26.31 83.75 23.34 C 85.94 26.59 87.26 30.43 85.46 34.21 C 86.94 36.69 88.45 39.16 89.88 41.67 C 90.69 37.18 92.44 32.91 95.39 29.39 C 94.24 26.34 94.48 23.11 95.61 20.09 M 101.44 149.85 C 104.17 143.68 105.34 136.84 103.16 130.29 C 101.43 136.62 100.81 143.32 101.44 149.85 M 107.92 133.32 C 107.95 141.27 112.72 147.90 115.69 154.94 C 114.62 147.42 114.51 138.43 107.92 133.32 M 94.62 135.16 C 90.13 134.46 94.58 139.76 94.62 135.16 Z" />
<path fill="#ff3662" opacity="1.00" d=" M 143.39 21.40 C 156.88 18.17 171.02 30.17 170.81 43.92 C 170.88 78.30 170.90 112.70 170.81 147.08 C 170.89 159.62 159.48 170.33 147.06 170.12 C 142.59 170.63 135.23 170.35 135.40 164.19 C 135.56 158.64 141.94 158.42 146.08 158.78 C 153.27 159.58 160.08 153.32 159.67 146.05 C 159.67 112.04 159.75 78.03 159.63 44.02 C 159.65 36.87 152.82 31.56 145.94 31.95 C 140.08 32.52 138.06 23.60 143.39 21.40 Z" />
</g>
</svg>
