<?xml version="1.0" encoding="UTF-8" ?>
<!DOCTYPE svg PUBLIC "-//W3C//DTD SVG 1.1//EN" "http://www.w3.org/Graphics/SVG/1.1/DTD/svg11.dtd">
<svg width="192pt" height="192pt" viewBox="0 0 192 192" version="1.1" xmlns="http://www.w3.org/2000/svg">
<g id="#d55a7eff">
<path fill="#d55a7e" opacity="1.00" d=" M 54.01 25.01 C 78.20 10.60 109.88 9.99 134.63 23.41 C 154.22 33.82 169.36 52.41 175.19 73.86 C 182.68 99.95 175.86 129.32 157.99 149.70 C 161.37 153.41 165.53 156.48 168.34 160.66 C 170.62 165.32 164.71 170.65 160.31 167.76 C 156.52 164.80 153.46 161.01 149.89 157.79 C 131.71 173.41 106.76 180.68 83.06 176.85 C 58.77 173.34 36.82 158.03 24.42 136.96 C 24.40 145.30 24.67 153.67 24.30 162.00 C 23.53 167.99 13.95 167.86 13.21 161.94 C 12.88 144.31 13.18 126.65 13.08 109.01 C 12.94 97.08 13.17 84.95 16.48 73.40 C 22.10 53.21 35.96 35.58 54.01 25.01 M 37.82 54.83 C 17.57 82.07 21.41 123.62 46.41 146.60 C 71.32 171.74 115.21 173.05 141.73 149.68 C 138.57 146.01 134.52 143.09 131.77 139.09 C 129.31 134.61 134.96 129.09 139.39 131.69 C 143.29 134.48 146.24 138.39 149.86 141.54 C 165.79 123.30 170.96 96.58 163.24 73.66 C 156.84 53.96 141.25 37.58 122.00 30.01 C 92.54 17.84 55.92 28.57 37.82 54.83 Z" />
<path fill="#d55a7e" opacity="1.00" d=" M 87.37 59.55 C 107.91 54.09 130.69 69.83 132.79 90.97 C 136.28 111.87 118.22 133.06 97.02 132.82 C 78.63 134.14 61.22 119.38 58.82 101.24 C 55.58 82.66 68.94 63.31 87.37 59.55 M 89.33 70.41 C 77.57 73.16 68.71 84.88 69.51 96.97 C 69.85 110.20 81.68 121.87 94.96 121.81 C 104.27 122.37 113.45 117.16 118.23 109.24 C 123.45 100.85 123.25 89.52 117.65 81.36 C 111.75 72.27 99.83 67.52 89.33 70.41 Z" />
</g>
</svg>
