<?xml version="1.0" encoding="UTF-8" ?>
<!DOCTYPE svg PUBLIC "-//W3C//DTD SVG 1.1//EN" "http://www.w3.org/Graphics/SVG/1.1/DTD/svg11.dtd">
<svg width="192pt" height="192pt" viewBox="0 0 192 192" version="1.1" xmlns="http://www.w3.org/2000/svg">
<g id="#b8a35dff">
<path fill="#b8a35d" opacity="1.00" d=" M 51.80 42.39 C 64.23 39.67 68.49 22.90 82.03 22.72 C 106.15 22.95 127.90 36.60 152.01 37.11 C 157.56 37.43 162.70 35.08 168.05 34.05 C 168.25 37.63 164.08 38.91 161.72 40.74 C 146.86 48.73 129.23 52.01 112.60 48.55 C 98.02 45.84 82.21 41.47 67.98 47.94 C 58.26 52.33 51.80 62.05 49.41 72.19 C 48.60 79.05 57.58 80.61 59.75 86.25 C 62.75 94.12 67.09 101.35 71.66 108.40 C 76.30 115.47 85.16 118.07 89.93 125.06 C 96.51 134.40 100.20 145.39 103.97 156.08 C 105.23 160.02 107.12 163.89 106.93 168.13 C 104.55 167.66 103.67 165.24 102.51 163.43 C 94.82 149.76 86.10 136.17 73.74 126.26 C 61.79 116.02 45.43 109.38 38.82 94.19 C 34.33 86.60 29.05 79.06 28.04 70.05 C 28.00 66.12 22.27 63.57 24.58 59.52 C 28.52 54.99 35.33 53.84 38.80 48.72 C 39.54 44.74 35.10 43.79 32.35 42.64 C 30.67 37.99 33.58 33.01 34.21 28.31 C 38.99 25.07 46.04 25.79 51.30 27.73 C 56.55 31.05 52.90 37.78 51.80 42.39 Z" />
<path fill="#b8a35d" opacity="1.00" d=" M 83.38 51.37 C 86.58 48.93 91.88 52.52 89.09 56.24 C 82.58 66.69 79.14 78.54 75.01 90.03 C 74.86 92.37 71.10 92.79 71.61 90.00 C 71.97 78.74 74.98 67.68 79.27 57.30 C 80.26 55.13 81.17 52.61 83.38 51.37 Z" />
<path fill="#b8a35d" opacity="1.00" d=" M 99.58 55.58 C 101.36 51.74 109.42 53.72 107.44 58.35 C 101.64 73.98 91.70 87.84 86.74 103.84 C 86.00 105.78 85.87 108.55 83.38 109.01 C 81.68 102.44 83.32 95.66 85.35 89.37 C 89.14 77.76 93.29 66.11 99.58 55.58 Z" />
<path fill="#b8a35d" opacity="1.00" d=" M 117.85 57.86 C 119.72 54.59 124.79 54.02 127.37 56.69 C 128.38 58.85 127.06 61.27 126.30 63.32 C 120.21 76.17 112.00 87.90 105.85 100.73 C 102.19 108.62 99.94 117.04 97.38 125.32 C 96.88 125.42 95.87 125.61 95.37 125.71 C 93.88 101.12 105.88 78.48 117.85 57.86 Z" />
<path fill="#b8a35d" opacity="1.00" d=" M 137.48 59.42 C 138.72 53.37 149.24 52.98 148.72 59.83 C 145.12 74.38 135.57 86.37 128.04 99.03 C 118.70 113.69 113.29 130.34 107.47 146.59 C 106.91 146.68 105.80 146.88 105.24 146.97 C 104.17 135.81 108.22 125.08 111.75 114.70 C 118.48 95.44 129.84 78.28 137.48 59.42 Z" />
</g>
</svg>
