<?xml version="1.0" encoding="UTF-8" ?>
<!DOCTYPE svg PUBLIC "-//W3C//DTD SVG 1.1//EN" "http://www.w3.org/Graphics/SVG/1.1/DTD/svg11.dtd">
<svg width="192pt" height="192pt" viewBox="0 0 192 192" version="1.1" xmlns="http://www.w3.org/2000/svg">
<g id="#a61affff">
<path fill="#a61aff" opacity="1.00" d=" M 88.61 12.62 C 91.27 10.94 94.86 10.97 97.69 12.22 C 115.17 22.47 132.82 32.46 150.30 42.72 C 159.57 48.59 155.22 60.96 156.24 69.99 C 157.36 79.06 146.77 86.69 138.62 82.33 C 123.61 74.16 108.90 65.42 94.00 57.05 C 91.70 58.64 89.41 60.25 87.15 61.89 C 107.03 73.70 127.20 85.04 147.00 97.00 C 150.03 99.08 154.51 100.80 154.71 105.09 C 154.89 117.73 154.84 130.39 154.74 143.03 C 154.60 147.86 149.34 149.62 146.04 152.06 C 131.65 161.95 116.20 170.14 101.37 179.31 C 98.73 180.70 95.37 180.47 92.72 179.23 C 75.12 168.81 57.23 158.84 39.67 148.35 C 31.25 142.25 35.46 130.68 34.43 121.96 C 33.22 112.89 43.50 104.86 51.85 109.17 C 66.96 117.35 81.70 126.21 96.77 134.47 C 101.63 130.87 106.67 127.51 111.52 123.90 C 87.96 109.61 64.22 95.60 40.62 81.36 C 36.69 79.06 34.21 74.62 34.45 70.05 C 34.59 63.52 34.15 56.96 34.69 50.46 C 35.72 44.00 42.17 41.23 46.98 37.95 C 60.42 28.81 74.82 21.21 88.61 12.62 M 57.65 44.83 C 63.86 48.47 70.10 52.06 76.32 55.69 C 82.88 52.37 88.24 44.02 96.32 45.67 C 112.78 53.91 128.09 64.66 144.83 72.24 C 144.85 65.66 145.45 58.94 144.56 52.45 C 127.71 42.58 110.78 32.79 93.82 23.12 C 81.60 29.90 69.04 36.65 57.65 44.83 M 45.77 51.83 C 45.52 58.26 45.73 64.68 45.63 71.11 C 78.15 90.66 110.50 110.62 143.59 129.15 C 143.21 122.10 144.09 114.86 143.17 107.92 C 112.50 89.41 81.29 71.75 50.39 53.59 C 48.99 52.68 47.38 52.21 45.77 51.83 M 46.10 119.03 C 45.17 125.61 45.85 132.30 45.71 138.93 C 62.78 148.91 79.98 158.64 97.02 168.66 C 111.71 159.67 127.09 151.74 141.02 141.56 C 134.68 137.90 128.54 133.91 122.23 130.21 C 115.59 134.92 108.96 139.64 102.30 144.34 C 99.58 146.38 95.74 147.05 92.72 145.24 C 77.14 136.59 61.90 127.26 46.10 119.03 Z" />
</g>
</svg>
