<?xml version="1.0" encoding="UTF-8" ?>
<!DOCTYPE svg PUBLIC "-//W3C//DTD SVG 1.1//EN" "http://www.w3.org/Graphics/SVG/1.1/DTD/svg11.dtd">
<svg width="192pt" height="192pt" viewBox="0 0 192 192" version="1.1" xmlns="http://www.w3.org/2000/svg">
<g id="#1ab1ffff">
<path fill="#1ab1ff" opacity="1.00" d=" M 68.23 51.43 C 80.03 37.77 99.23 30.59 116.98 34.95 C 136.55 39.32 151.84 57.09 153.83 76.96 C 172.50 83.07 183.41 105.95 175.06 124.05 C 170.13 135.61 158.61 143.93 146.09 144.97 C 142.86 145.31 138.57 145.63 136.71 142.33 C 134.25 138.65 137.59 133.28 141.99 133.83 C 152.57 134.27 162.91 126.99 165.64 116.69 C 168.85 105.97 163.09 93.68 153.04 88.95 C 147.46 86.03 140.99 86.63 134.94 87.06 C 130.75 87.21 127.90 81.79 130.40 78.41 C 132.99 74.70 138.15 75.82 142.04 75.37 C 139.36 59.15 124.62 45.57 108.04 45.11 C 96.74 44.42 85.44 49.42 77.94 57.81 C 82.55 63.06 85.54 69.97 85.18 77.04 C 84.75 81.11 79.48 83.22 76.30 80.77 C 72.66 77.91 74.59 72.51 72.06 68.94 C 67.71 60.25 54.84 57.96 47.89 64.87 C 42.69 69.17 42.63 76.33 42.73 82.51 C 31.96 86.47 24.03 97.48 24.37 109.04 C 24.52 119.40 31.82 129.07 41.58 132.39 C 46.51 134.21 51.84 133.76 56.99 133.81 C 61.40 119.73 82.43 118.29 89.02 131.37 C 90.51 131.43 91.99 131.48 93.48 131.53 C 94.28 132.68 95.08 133.83 95.90 134.97 C 98.22 130.39 104.93 130.10 106.96 135.06 C 108.24 131.38 112.00 131.05 115.35 131.49 C 116.03 132.62 116.71 133.77 117.41 134.90 C 119.34 132.53 121.80 130.85 125.01 131.58 C 126.74 134.39 128.86 137.00 130.15 140.06 C 130.69 143.09 128.76 147.59 125.08 147.11 C 113.08 147.14 101.08 147.07 89.07 147.13 C 82.84 160.37 61.74 158.68 57.01 145.03 C 39.10 147.53 19.88 136.97 14.73 119.18 C 9.40 102.96 17.27 84.40 31.49 75.49 C 31.56 57.66 51.80 44.13 68.23 51.43 M 65.29 135.26 C 59.94 137.49 64.28 146.24 69.29 143.31 C 74.70 141.01 70.33 132.37 65.29 135.26 Z" />
</g>
</svg>
