<?xml version="1.0" encoding="UTF-8" ?>
<!DOCTYPE svg PUBLIC "-//W3C//DTD SVG 1.1//EN" "http://www.w3.org/Graphics/SVG/1.1/DTD/svg11.dtd">
<svg width="192pt" height="192pt" viewBox="0 0 192 192" version="1.1" xmlns="http://www.w3.org/2000/svg">
<g id="#c721d1ff">
<path fill="#c721d1" opacity="1.00" d=" M 38.28 20.14 C 38.69 15.37 45.18 13.02 48.53 16.46 C 59.78 27.55 70.69 38.98 81.79 50.22 C 87.38 54.42 78.90 58.85 75.97 61.85 C 64.57 50.99 53.90 39.37 42.69 28.31 C 40.50 26.11 37.62 23.62 38.28 20.14 Z" />
<path fill="#c721d1" opacity="1.00" d=" M 143.98 16.00 C 149.59 11.36 157.22 20.19 152.23 25.20 C 135.83 42.11 119.00 58.63 102.55 75.49 C 101.74 88.16 102.48 101.03 102.21 113.77 C 115.49 113.87 128.76 113.71 142.03 113.85 C 146.42 113.85 149.02 119.81 145.97 123.02 C 133.61 138.28 121.12 153.45 108.66 168.64 C 102.55 176.40 89.45 176.41 83.32 168.67 C 70.74 153.26 58.02 137.96 45.58 122.45 C 41.61 117.43 49.41 110.51 53.87 115.14 C 66.72 130.32 79.06 145.95 91.83 161.21 C 93.81 163.85 98.20 163.85 100.15 161.17 C 110.07 149.22 119.87 137.17 129.67 125.13 C 114.09 125.05 98.50 125.25 82.92 125.03 C 78.62 124.90 76.23 119.17 78.99 115.94 C 81.55 112.68 86.13 114.08 89.69 113.79 C 89.71 101.54 89.64 89.28 89.72 77.03 C 89.69 72.23 92.11 67.77 95.57 64.57 C 111.74 48.41 127.67 31.99 143.98 16.00 Z" />
</g>
</svg>
