<?xml version="1.0" encoding="UTF-8" ?>
<!DOCTYPE svg PUBLIC "-//W3C//DTD SVG 1.1//EN" "http://www.w3.org/Graphics/SVG/1.1/DTD/svg11.dtd">
<svg width="192pt" height="192pt" viewBox="0 0 192 192" version="1.1" xmlns="http://www.w3.org/2000/svg">
<g id="#19afffff">
<path fill="#19afff" opacity="1.00" d=" M 91.34 13.43 C 96.39 12.41 101.82 13.10 106.33 15.66 C 118.89 22.60 132.73 27.25 147.00 28.95 C 157.33 30.04 165.88 39.55 165.83 49.95 C 165.88 70.31 165.91 90.68 165.80 111.04 C 165.52 123.19 159.15 134.30 151.18 143.12 C 138.61 156.82 122.55 166.77 106.03 175.02 C 99.86 178.34 92.13 178.35 85.93 175.09 C 68.39 166.33 51.22 155.68 38.46 140.53 C 31.33 132.00 26.02 121.33 26.05 110.01 C 26.09 89.98 26.03 69.96 26.11 49.94 C 26.05 39.89 34.04 30.58 43.99 29.12 C 56.34 27.59 68.49 24.18 79.66 18.66 C 83.53 16.86 87.11 14.33 91.34 13.43 M 93.37 24.51 C 79.13 31.76 64.06 38.04 48.01 39.82 C 42.54 39.94 37.30 44.30 37.32 49.98 C 37.28 70.34 37.30 90.70 37.32 111.06 C 37.72 121.51 44.11 130.58 51.15 137.85 C 62.58 149.31 76.55 157.87 90.99 165.00 C 94.05 166.67 97.91 166.59 100.94 164.91 C 115.58 157.69 129.76 148.97 141.22 137.22 C 148.27 129.87 154.41 120.58 154.60 110.06 C 154.64 90.35 154.63 70.64 154.61 50.93 C 154.95 45.48 150.46 40.35 144.98 40.07 C 129.94 38.12 115.26 33.36 101.96 26.05 C 99.41 24.46 96.31 23.82 93.37 24.51 Z" />
<path fill="#19afff" opacity="1.00" d=" M 101.07 65.07 C 106.31 58.12 118.65 61.35 119.89 69.94 C 121.89 78.16 112.99 85.14 105.28 82.39 C 98.67 86.50 92.17 90.81 85.67 95.10 C 91.92 99.17 98.38 103.29 104.97 106.64 C 110.64 104.53 117.75 107.33 119.53 113.33 C 122.06 119.86 116.65 127.68 109.65 127.61 C 103.84 128.06 99.03 123.08 98.35 117.55 C 91.98 113.29 85.26 109.56 78.74 105.53 C 71.51 109.38 61.45 104.51 61.34 95.98 C 60.44 87.34 70.47 81.05 78.04 84.91 C 84.39 81.77 90.25 77.09 96.42 73.37 C 99.83 71.92 98.31 67.27 101.07 65.07 Z" />
</g>
</svg>
