<?xml version="1.0" encoding="UTF-8" ?>
<!DOCTYPE svg PUBLIC "-//W3C//DTD SVG 1.1//EN" "http://www.w3.org/Graphics/SVG/1.1/DTD/svg11.dtd">
<svg width="192pt" height="192pt" viewBox="0 0 192 192" version="1.1" xmlns="http://www.w3.org/2000/svg">
<g id="#f6b22dff">
<path fill="#f6b22d" opacity="1.00" d=" M 78.36 18.46 C 102.96 16.96 130.50 16.40 151.32 31.69 C 165.50 42.46 170.56 60.98 171.97 77.96 C 173.04 95.52 173.60 113.57 168.66 130.65 C 164.84 143.69 157.27 156.54 144.74 162.82 C 124.45 173.43 100.57 173.29 78.31 171.64 C 61.93 170.29 44.52 165.43 33.26 152.72 C 21.76 138.60 18.45 119.78 18.24 102.03 C 17.48 80.96 18.60 58.06 31.26 40.27 C 42.04 25.49 60.92 19.97 78.36 18.46 M 80.40 29.54 C 66.15 30.78 50.45 34.34 41.00 46.00 C 32.07 57.97 29.70 73.42 29.38 88.00 C 29.27 105.31 29.04 123.72 37.70 139.32 C 42.89 149.74 54.05 155.42 64.90 158.11 C 82.26 161.94 100.34 161.99 117.92 159.72 C 131.28 157.65 146.04 152.44 152.68 139.69 C 162.91 121.26 161.81 99.30 160.73 78.94 C 159.47 63.54 154.88 45.81 140.29 37.80 C 122.15 27.73 100.47 28.61 80.40 29.54 Z" />
<path fill="#f6b22d" opacity="1.00" d=" M 43.11 90.06 C 46.29 78.19 63.34 74.63 71.21 83.92 C 69.57 85.40 67.87 89.08 65.45 86.62 C 58.37 80.67 46.39 87.54 48.34 96.67 C 49.62 106.62 64.30 108.04 69.02 99.91 C 67.77 99.61 66.54 99.27 65.32 98.89 C 63.36 92.11 70.49 93.41 74.86 93.78 C 76.27 101.91 70.52 110.39 62.03 110.85 C 50.44 113.73 38.82 101.38 43.11 90.06 Z" />
<path fill="#f6b22d" opacity="1.00" d=" M 81.41 88.35 C 90.00 80.60 104.55 89.76 101.73 100.93 C 96.81 101.38 91.86 101.23 86.93 101.01 C 84.55 94.29 91.19 95.10 95.74 95.13 C 93.12 89.53 83.86 90.79 83.13 96.98 C 81.96 101.63 86.17 104.76 90.07 105.92 C 90.10 107.72 90.10 109.51 90.10 111.30 C 78.53 111.68 72.42 95.63 81.41 88.35 Z" />
<path fill="#f6b22d" opacity="1.00" d=" M 105.50 94.36 C 108.07 84.93 121.96 82.41 127.62 90.41 C 132.15 96.43 130.09 104.43 130.32 111.39 C 128.31 111.34 126.30 111.30 124.30 111.12 C 124.05 105.87 125.21 100.40 123.69 95.30 C 121.30 89.52 111.76 90.84 110.88 97.01 C 109.52 102.21 114.82 105.96 119.55 105.61 C 119.57 107.44 119.60 109.28 119.62 111.11 C 110.38 112.85 102.00 103.21 105.50 94.36 Z" />
<path fill="#f6b22d" opacity="1.00" d=" M 132.79 97.71 C 133.59 90.72 140.88 85.30 147.80 86.86 C 147.79 88.58 147.77 90.30 147.72 92.02 C 144.12 92.44 139.58 93.55 138.73 97.70 C 138.16 102.22 138.65 106.81 138.43 111.35 C 136.56 111.04 134.09 112.03 132.58 110.75 C 132.38 106.41 132.41 102.04 132.79 97.71 Z" />
</g>
</svg>
