<?xml version="1.0" encoding="UTF-8" ?>
<!DOCTYPE svg PUBLIC "-//W3C//DTD SVG 1.1//EN" "http://www.w3.org/Graphics/SVG/1.1/DTD/svg11.dtd">
<svg width="192pt" height="192pt" viewBox="0 0 192 192" version="1.1" xmlns="http://www.w3.org/2000/svg">
<g id="#8fc8e5ff">
<path fill="#8fc8e5" opacity="1.00" d=" M 43.97 44.96 C 57.30 30.84 76.58 22.60 96.00 22.72 C 117.11 22.50 137.97 32.31 151.44 48.53 C 164.20 63.41 169.98 83.55 168.14 102.97 C 171.00 108.02 175.21 112.41 176.87 118.11 C 179.66 126.26 176.87 135.81 170.27 141.30 C 164.15 146.61 155.76 148.03 147.91 148.30 C 143.25 148.18 140.71 152.96 136.90 154.93 C 110.49 173.64 71.66 171.16 47.92 149.13 C 31.90 135.02 22.97 113.59 23.74 92.30 C 18.65 85.94 13.90 78.45 14.10 70.00 C 13.58 58.09 24.59 48.04 35.99 47.07 C 38.65 46.48 42.05 47.31 43.97 44.96 M 64.68 42.70 C 48.57 52.22 37.51 69.50 35.38 88.08 C 48.44 101.55 64.77 111.44 81.58 119.55 C 100.26 128.27 120.13 135.24 140.83 136.69 C 153.79 122.73 159.68 102.64 156.06 83.91 C 152.84 65.68 140.67 49.39 124.25 40.90 C 105.88 31.14 82.43 31.82 64.68 42.70 M 26.09 75.43 C 28.27 70.05 30.28 64.59 32.92 59.41 C 26.75 62.23 23.96 69.02 26.09 75.43 M 35.68 104.34 C 38.56 123.24 50.73 140.43 67.72 149.24 C 86.33 159.17 110.24 158.44 128.05 147.05 C 94.45 140.55 62.38 125.77 35.68 104.34 M 164.55 118.64 C 162.43 124.64 159.46 130.28 156.18 135.72 C 164.00 134.53 169.16 125.60 164.55 118.64 Z" />
</g>
</svg>
