<?xml version="1.0" encoding="UTF-8" ?>
<!DOCTYPE svg PUBLIC "-//W3C//DTD SVG 1.1//EN" "http://www.w3.org/Graphics/SVG/1.1/DTD/svg11.dtd">
<svg width="192pt" height="192pt" viewBox="0 0 192 192" version="1.1" xmlns="http://www.w3.org/2000/svg">
<g id="#1cb6ffff">
<path fill="#1cb6ff" opacity="1.00" d=" M 90.36 33.45 C 112.43 29.59 135.89 40.13 148.32 58.60 C 151.42 63.04 145.98 69.40 141.11 67.01 C 137.34 64.48 135.12 60.26 131.72 57.27 C 115.18 40.61 85.38 40.04 68.45 56.42 C 65.57 58.75 63.21 62.98 58.98 62.52 C 54.67 62.21 52.38 56.42 55.20 53.19 C 64.07 42.72 76.84 35.67 90.36 33.45 Z" />
<path fill="#1cb6ff" opacity="1.00" d=" M 55.34 73.41 C 67.33 71.61 79.94 76.03 88.55 84.44 C 92.40 88.54 87.61 95.76 82.31 93.63 C 76.65 90.58 71.65 85.81 65.02 84.92 C 46.90 82.06 29.24 98.96 30.04 117.02 C 30.14 131.51 41.91 146.49 57.12 146.56 C 74.04 147.21 91.02 146.37 107.92 147.17 C 113.68 148.43 112.98 157.92 107.02 158.19 C 91.03 158.47 75.02 158.35 59.02 158.33 C 35.27 159.59 16.38 135.57 18.42 112.91 C 20.30 93.67 35.80 75.88 55.34 73.41 Z" />
<path fill="#1cb6ff" opacity="1.00" d=" M 115.47 88.06 C 115.52 82.95 117.97 76.24 123.96 75.99 C 134.62 75.50 145.32 76.11 155.99 75.97 C 160.85 76.04 166.26 75.60 170.43 78.57 C 174.13 81.51 173.54 86.79 173.78 91.00 C 173.59 110.02 173.88 129.05 173.66 148.08 C 173.90 152.70 171.18 158.01 166.02 158.14 C 156.71 158.56 147.34 158.55 138.02 158.42 C 131.91 158.01 131.14 148.25 137.06 146.82 C 143.87 145.93 150.78 147.02 157.61 146.44 C 160.21 146.20 162.03 143.56 161.84 141.05 C 162.01 125.33 162.09 109.60 161.89 93.88 C 162.04 90.70 159.26 87.82 156.06 87.91 C 148.04 87.82 139.99 87.65 131.98 88.07 C 129.79 87.95 127.95 89.80 127.97 91.97 C 127.65 99.24 127.99 106.53 127.96 113.81 C 131.30 111.43 133.79 107.40 137.98 106.52 C 143.19 105.82 146.48 113.06 142.48 116.49 C 136.92 121.91 131.80 127.81 125.90 132.87 C 123.47 135.07 119.58 135.18 117.29 132.72 C 111.50 127.50 106.39 121.55 101.30 115.67 C 98.01 111.60 102.97 105.20 107.75 107.33 C 110.96 109.13 113.06 112.33 115.70 114.83 C 116.01 105.90 115.40 96.98 115.47 88.06 Z" />
</g>
</svg>
