<?xml version="1.0" encoding="UTF-8" ?>
<!DOCTYPE svg PUBLIC "-//W3C//DTD SVG 1.1//EN" "http://www.w3.org/Graphics/SVG/1.1/DTD/svg11.dtd">
<svg width="192pt" height="192pt" viewBox="0 0 192 192" version="1.1" xmlns="http://www.w3.org/2000/svg">
<g id="#a58d7fff">
<path fill="#a58d7f" opacity="1.00" d=" M 92.39 13.52 C 95.69 11.48 100.99 13.82 100.72 17.98 C 100.99 26.65 100.61 35.33 101.04 43.99 C 101.05 46.45 101.30 49.43 99.24 51.21 C 96.30 54.11 90.22 52.35 89.96 48.00 C 89.45 39.35 89.87 30.67 89.64 22.00 C 89.63 19.04 89.26 15.12 92.39 13.52 Z" />
<path fill="#a58d7f" opacity="1.00" d=" M 66.34 18.36 C 69.17 17.89 71.61 20.04 72.40 22.63 C 75.92 31.45 79.66 40.20 83.00 49.09 C 85.31 54.74 76.16 59.02 73.13 53.89 C 68.93 44.88 65.55 35.47 61.75 26.27 C 59.97 22.86 62.56 18.59 66.34 18.36 Z" />
<path fill="#a58d7f" opacity="1.00" d=" M 124.36 19.42 C 128.55 17.89 133.44 22.32 131.50 26.63 C 127.76 35.73 123.76 44.75 119.72 53.71 C 117.43 59.43 107.76 56.04 109.33 50.17 C 112.36 41.85 116.40 33.92 119.72 25.70 C 120.84 23.39 121.62 20.30 124.36 19.42 Z" />
<path fill="#a58d7f" opacity="1.00" d=" M 39.26 35.32 C 42.19 33.92 45.01 35.99 46.90 38.10 C 53.25 44.73 60.00 51.00 66.19 57.78 C 70.23 62.39 63.02 69.50 58.43 65.63 C 51.21 58.85 44.38 51.62 37.40 44.59 C 34.31 41.94 35.65 36.75 39.26 35.32 Z" />
<path fill="#a58d7f" opacity="1.00" d=" M 149.35 35.39 C 154.38 34.52 158.13 41.65 154.03 45.04 C 147.00 52.00 140.08 59.10 132.90 65.91 C 128.29 69.66 121.23 62.70 125.12 58.10 C 131.19 51.53 137.83 45.50 144.05 39.05 C 145.61 37.61 147.11 35.70 149.35 35.39 Z" />
<path fill="#a58d7f" opacity="1.00" d=" M 24.38 59.47 C 34.44 62.40 43.92 67.42 53.68 71.34 C 59.56 73.56 56.24 83.71 50.11 81.80 C 40.63 78.21 31.29 74.10 22.02 69.98 C 17.02 67.82 19.09 59.46 24.38 59.47 Z" />
<path fill="#a58d7f" opacity="1.00" d=" M 165.31 61.37 C 169.47 59.59 173.69 64.34 172.53 68.38 C 171.76 71.64 168.08 72.40 165.44 73.56 C 157.25 76.57 149.31 80.32 141.01 83.00 C 135.23 84.33 132.00 74.94 137.45 72.51 C 146.64 68.59 155.99 64.99 165.31 61.37 Z" />
<path fill="#a58d7f" opacity="1.00" d=" M 142.33 89.45 C 152.55 89.04 162.83 89.13 173.06 89.25 C 179.05 89.34 179.87 99.13 174.01 100.28 C 163.70 100.76 153.33 100.58 143.01 100.52 C 136.92 100.39 136.36 90.32 142.33 89.45 Z" />
<path fill="#a58d7f" opacity="1.00" d=" M 16.31 90.37 C 26.43 89.10 36.80 90.04 47.01 89.72 C 51.57 89.02 54.82 94.68 52.33 98.39 C 50.71 101.38 46.88 101.03 44.00 101.16 C 35.32 100.97 26.62 101.41 17.95 100.95 C 12.65 100.65 11.54 92.34 16.31 90.37 Z" />
<path fill="#a58d7f" opacity="1.00" d=" M 49.42 107.51 C 55.40 105.09 59.68 115.17 53.77 117.76 C 44.58 121.69 35.23 125.28 25.91 128.88 C 20.17 131.35 15.67 121.99 20.97 118.94 C 30.30 114.80 39.90 111.20 49.42 107.51 Z" />
<path fill="#a58d7f" opacity="1.00" d=" M 138.26 108.25 C 148.70 110.05 158.27 116.19 168.31 119.83 C 174.40 121.79 171.59 132.02 165.37 130.62 C 155.84 127.10 146.54 122.87 137.22 118.84 C 132.35 116.99 133.46 109.36 138.26 108.25 Z" />
<path fill="#a58d7f" opacity="1.00" d=" M 60.39 123.43 C 65.25 122.28 69.66 129.11 65.71 132.69 C 58.56 139.88 51.48 147.20 44.02 154.06 C 38.78 157.77 32.20 149.35 37.22 145.23 C 45.04 138.13 51.70 129.29 60.39 123.43 Z" />
<path fill="#a58d7f" opacity="1.00" d=" M 126.40 124.30 C 128.66 122.70 131.80 123.42 133.55 125.42 C 140.35 132.27 147.25 139.04 153.92 146.02 C 158.31 150.41 151.43 158.18 146.54 154.38 C 139.31 147.67 132.57 140.41 125.55 133.47 C 122.60 131.09 123.08 126.11 126.40 124.30 Z" />
<path fill="#a58d7f" opacity="1.00" d=" M 73.38 134.39 C 77.76 131.39 84.28 136.85 81.45 141.63 C 77.40 150.82 73.76 160.26 69.20 169.20 C 65.52 174.44 56.60 168.52 59.93 163.02 C 64.57 153.60 67.41 142.94 73.38 134.39 Z" />
<path fill="#a58d7f" opacity="1.00" d=" M 112.26 134.25 C 115.13 133.27 118.12 135.23 119.01 137.97 C 122.68 146.99 126.49 155.97 129.89 165.09 C 131.96 170.94 122.36 174.91 119.67 169.37 C 115.68 160.53 112.32 151.39 108.61 142.42 C 106.86 139.23 108.63 134.98 112.26 134.25 Z" />
<path fill="#a58d7f" opacity="1.00" d=" M 93.18 138.12 C 96.69 136.41 101.72 138.79 101.46 143.01 C 101.64 152.66 101.66 162.33 101.60 171.98 C 102.03 176.63 95.94 179.25 92.50 176.48 C 90.04 174.83 90.26 171.60 90.21 169.00 C 90.28 160.65 90.13 152.30 90.13 143.94 C 89.96 141.62 91.00 139.17 93.18 138.12 Z" />
</g>
</svg>
