<?xml version="1.0" encoding="UTF-8" ?>
<!DOCTYPE svg PUBLIC "-//W3C//DTD SVG 1.1//EN" "http://www.w3.org/Graphics/SVG/1.1/DTD/svg11.dtd">
<svg width="192pt" height="192pt" viewBox="0 0 192 192" version="1.1" xmlns="http://www.w3.org/2000/svg">
<g id="#289deeff">
<path fill="#289dee" opacity="1.00" d=" M 91.34 14.42 C 96.08 13.23 101.24 13.97 105.44 16.48 C 123.11 26.81 140.76 37.19 158.42 47.53 C 164.24 50.76 168.08 57.28 167.85 63.96 C 167.87 84.99 167.82 106.02 167.90 127.04 C 167.98 133.70 163.81 139.94 158.06 143.09 C 140.38 153.42 122.76 163.84 105.07 174.13 C 99.35 177.51 91.88 177.31 86.26 173.83 C 68.59 163.48 50.93 153.10 33.28 142.73 C 27.44 139.40 23.70 132.74 23.97 126.01 C 24.11 104.98 23.93 83.95 24.09 62.92 C 24.17 55.73 29.06 49.44 35.39 46.41 C 54.15 35.97 72.08 23.82 91.34 14.42 M 101.48 27.19 C 101.59 48.19 101.46 69.20 101.57 90.20 C 119.87 100.62 138.12 111.13 156.52 121.39 C 156.54 102.26 156.56 83.13 156.53 64.00 C 156.66 61.24 155.14 58.61 152.71 57.32 C 135.66 47.23 118.52 37.29 101.48 27.19 M 39.20 57.25 C 36.74 58.50 35.22 61.16 35.34 63.91 C 35.27 83.11 35.36 102.32 35.31 121.52 C 53.69 111.11 72.07 100.70 90.36 90.13 C 90.36 69.16 90.39 48.19 90.37 27.21 C 73.33 37.26 56.25 47.23 39.20 57.25 M 38.72 132.45 C 55.66 143.32 73.43 152.90 90.66 163.33 C 93.37 165.28 97.12 166.01 100.01 164.00 C 117.77 153.54 135.60 143.18 153.32 132.65 C 134.27 121.64 115.13 110.78 95.99 99.94 C 76.81 110.62 57.79 121.58 38.72 132.45 Z" />
</g>
</svg>
