<?xml version="1.0" encoding="UTF-8" ?>
<!DOCTYPE svg PUBLIC "-//W3C//DTD SVG 1.1//EN" "http://www.w3.org/Graphics/SVG/1.1/DTD/svg11.dtd">
<svg width="192pt" height="192pt" viewBox="0 0 192 192" version="1.1" xmlns="http://www.w3.org/2000/svg">
<g id="#1db7ffff">
<path fill="#1db7ff" opacity="1.00" d=" M 91.33 28.37 C 94.31 20.95 101.97 15.68 109.99 15.73 C 118.05 15.54 125.85 20.69 128.94 28.11 C 131.38 33.47 130.43 39.48 130.65 45.17 C 143.44 45.27 156.23 45.12 169.02 45.22 C 172.14 45.04 174.97 47.85 174.82 50.98 C 174.91 65.33 174.83 79.70 174.87 94.06 C 175.17 96.86 173.55 99.90 170.68 100.57 C 164.04 101.51 157.09 99.68 150.61 101.65 C 143.68 104.54 143.79 115.58 150.89 118.19 C 157.38 119.99 164.27 118.26 170.89 119.18 C 173.32 119.97 175.01 122.40 174.85 124.97 C 174.91 139.33 174.87 153.70 174.87 168.06 C 175.28 171.41 172.45 174.78 169.00 174.53 C 154.65 174.60 140.29 174.53 125.93 174.55 C 123.22 174.83 120.32 173.30 119.54 170.59 C 118.47 163.97 120.36 157.02 118.49 150.55 C 115.82 143.28 104.38 143.42 101.81 150.69 C 100.25 156.97 101.75 163.58 100.97 169.97 C 100.56 172.74 97.75 174.74 95.01 174.52 C 80.67 174.57 66.33 174.53 51.99 174.53 C 48.77 174.90 45.53 172.34 45.57 169.02 C 45.43 156.11 45.59 143.20 45.50 130.30 C 40.04 130.12 34.33 131.00 29.13 128.90 C 21.48 126.04 16.00 118.20 16.10 110.01 C 15.84 101.78 21.31 93.88 28.94 90.91 C 34.17 88.70 39.96 89.68 45.47 89.51 C 45.65 76.67 45.44 63.83 45.57 50.99 C 45.44 48.03 47.98 45.23 50.98 45.28 C 63.90 45.14 76.84 45.29 89.76 45.20 C 89.90 39.59 89.09 33.69 91.33 28.37 M 101.15 36.93 C 99.97 43.18 104.29 52.95 97.03 56.34 C 83.71 56.74 70.37 56.46 57.04 56.47 C 56.21 70.08 57.56 83.86 56.38 97.41 C 50.17 105.63 36.77 96.16 29.77 103.76 C 25.05 108.43 27.79 117.39 34.29 118.67 C 40.17 119.44 46.15 118.59 52.06 119.09 C 54.91 119.33 57.04 122.18 56.81 124.97 C 56.88 137.70 56.80 150.44 56.85 163.17 C 67.82 163.22 78.78 163.20 89.75 163.16 C 89.91 157.31 88.99 151.10 91.62 145.64 C 94.90 138.25 102.89 133.26 110.99 133.71 C 118.72 133.91 126.00 138.98 128.97 146.10 C 131.39 151.46 130.46 157.46 130.67 163.15 C 141.62 163.11 152.58 163.34 163.54 163.02 C 163.43 152.12 163.56 141.21 163.47 130.31 C 158.02 130.12 152.31 131.01 147.11 128.93 C 139.09 125.94 133.53 117.49 134.04 108.93 C 134.29 101.31 139.26 94.16 146.25 91.16 C 151.65 88.65 157.73 89.66 163.48 89.45 C 163.51 78.48 163.55 67.51 163.46 56.55 C 150.64 56.50 137.81 56.60 124.99 56.50 C 122.79 56.63 120.73 55.21 119.80 53.26 C 117.59 45.60 122.18 36.08 116.45 29.55 C 110.90 23.73 100.05 28.94 101.15 36.93 Z" />
</g>
</svg>
