<?xml version="1.0" encoding="UTF-8" ?>
<!DOCTYPE svg PUBLIC "-//W3C//DTD SVG 1.1//EN" "http://www.w3.org/Graphics/SVG/1.1/DTD/svg11.dtd">
<svg width="192pt" height="192pt" viewBox="0 0 192 192" version="1.1" xmlns="http://www.w3.org/2000/svg">
<g id="#f74493ff">
<path fill="#f74493" opacity="1.00" d=" M 109.07 23.96 C 108.63 19.79 114.20 17.06 117.35 19.71 C 123.72 25.05 129.73 30.82 136.02 36.26 C 143.47 33.01 150.85 29.58 158.31 26.38 C 162.44 24.21 167.56 29.22 165.32 33.34 C 162.10 40.85 158.63 48.25 155.30 55.72 C 160.68 61.97 166.55 67.80 171.84 74.11 C 174.87 77.38 171.38 83.23 167.07 82.38 C 159.28 81.66 151.56 80.35 143.79 79.52 C 139.24 86.80 135.20 94.39 130.60 101.63 C 128.43 104.94 122.83 104.14 121.55 100.45 C 120.02 94.62 119.46 88.56 117.96 82.71 C 91.65 108.62 65.49 134.73 39.52 160.99 C 74.66 161.63 109.83 161.08 144.98 161.24 C 151.64 161.59 157.84 155.78 157.76 149.08 C 157.98 133.40 157.54 117.70 157.97 102.03 C 159.00 95.93 168.99 96.73 168.98 102.94 C 169.19 118.64 169.09 134.35 169.03 150.05 C 168.73 162.03 158.03 172.44 146.07 172.51 C 111.38 172.58 76.68 172.56 41.99 172.51 C 29.69 172.42 18.83 161.34 19.07 149.03 C 19.03 114.67 19.04 80.31 19.09 45.95 C 19.01 33.75 29.83 22.88 42.01 22.83 C 57.68 22.86 73.37 22.63 89.04 22.94 C 94.92 23.70 94.92 33.20 88.97 33.87 C 73.32 34.48 57.60 33.89 41.92 34.16 C 35.39 34.24 29.87 40.48 30.31 46.95 C 30.30 78.97 30.32 110.99 30.31 143.00 C 30.26 146.39 30.19 149.82 30.91 153.15 C 55.41 129.25 79.43 104.84 103.73 80.73 C 105.89 78.37 108.64 76.47 110.12 73.56 C 104.04 72.47 97.91 71.54 91.87 70.24 C 87.55 69.66 86.24 63.18 89.87 60.90 C 97.11 56.33 104.54 52.04 111.88 47.62 C 110.91 39.74 109.82 31.86 109.07 23.96 Z" />
</g>
</svg>
