<?xml version="1.0" encoding="UTF-8" ?>
<!DOCTYPE svg PUBLIC "-//W3C//DTD SVG 1.1//EN" "http://www.w3.org/Graphics/SVG/1.1/DTD/svg11.dtd">
<svg width="192pt" height="192pt" viewBox="0 0 192 192" version="1.1" xmlns="http://www.w3.org/2000/svg">
<g id="#19b0ffff">
<path fill="#19b0ff" opacity="1.00" d=" M 78.36 18.46 C 102.97 16.95 130.50 16.39 151.32 31.69 C 165.50 42.46 170.56 60.98 171.97 77.96 C 173.04 95.52 173.61 113.57 168.67 130.65 C 164.85 143.69 157.28 156.54 144.75 162.82 C 124.61 173.37 100.90 173.27 78.78 171.69 C 62.24 170.37 44.63 165.55 33.26 152.72 C 21.53 138.32 18.36 119.09 18.22 101.02 C 17.52 80.27 18.81 57.76 31.27 40.27 C 42.05 25.49 60.93 19.98 78.36 18.46 M 80.40 29.54 C 65.30 30.80 48.26 34.91 39.32 48.31 C 28.34 65.64 28.95 87.08 29.63 106.81 C 30.40 121.34 33.51 137.16 44.16 147.83 C 58.62 160.23 78.87 160.92 96.98 161.23 C 114.70 160.76 134.99 159.50 148.16 146.08 C 162.50 128.57 161.84 104.38 161.02 83.01 C 160.08 66.79 156.47 47.75 141.52 38.55 C 123.25 27.64 100.89 28.60 80.40 29.54 Z" />
<path fill="#19b0ff" opacity="1.00" d=" M 47.57 83.39 C 49.10 75.80 58.28 77.55 63.98 77.52 C 74.85 76.90 83.49 89.36 79.26 99.35 C 76.71 107.05 68.07 111.09 60.35 109.60 C 60.48 107.07 58.93 102.06 62.97 102.34 C 69.50 102.90 75.09 95.40 71.41 89.59 C 68.19 83.75 60.68 85.26 55.16 85.18 C 55.13 96.25 55.15 107.33 55.15 118.40 C 52.59 118.86 49.99 118.88 47.40 118.64 C 47.35 106.90 47.00 95.11 47.57 83.39 Z" />
<path fill="#19b0ff" opacity="1.00" d=" M 92.00 79.06 C 100.98 74.41 112.87 80.15 115.26 89.84 C 116.61 96.36 116.16 103.13 115.65 109.72 C 113.20 109.83 110.74 109.82 108.29 109.72 C 107.69 104.15 108.57 98.54 107.91 92.98 C 107.27 87.28 100.31 83.35 95.19 86.18 C 90.54 88.33 88.46 94.99 91.95 99.01 C 94.24 102.01 98.28 101.74 101.59 102.50 C 102.38 104.71 102.04 107.12 102.19 109.43 C 95.12 111.07 87.23 107.56 83.98 101.02 C 79.94 93.14 83.88 82.52 92.00 79.06 Z" />
<path fill="#19b0ff" opacity="1.00" d=" M 113.58 78.71 C 116.55 78.54 120.97 76.83 122.64 80.33 C 125.07 85.22 127.80 90.05 129.55 95.22 C 129.09 98.13 127.20 100.57 125.82 103.10 C 120.74 95.57 117.31 86.98 113.58 78.71 Z" />
<path fill="#19b0ff" opacity="1.00" d=" M 139.55 80.58 C 141.02 76.83 145.80 78.68 148.86 78.56 C 143.30 91.72 136.35 104.25 130.27 117.17 C 128.95 121.35 123.87 119.30 120.66 119.57 C 126.50 106.37 133.24 93.57 139.55 80.58 Z" />
</g>
</svg>
