<?xml version="1.0" encoding="UTF-8" ?>
<!DOCTYPE svg PUBLIC "-//W3C//DTD SVG 1.1//EN" "http://www.w3.org/Graphics/SVG/1.1/DTD/svg11.dtd">
<svg width="192pt" height="192pt" viewBox="0 0 192 192" version="1.1" xmlns="http://www.w3.org/2000/svg">
<g id="#fb8739ff">
<path fill="#fb8739" opacity="1.00" d=" M 84.42 13.50 C 103.62 11.19 123.68 15.36 139.84 26.15 C 161.62 40.19 176.11 64.98 176.93 90.97 C 178.88 122.11 161.05 153.17 133.41 167.50 C 105.60 182.62 69.12 179.43 44.45 159.58 C 24.43 143.89 11.75 118.61 13.03 92.99 C 12.79 53.62 45.43 17.82 84.42 13.50 M 67.11 30.05 C 49.70 37.47 35.55 52.21 28.90 69.94 C 20.60 91.70 23.82 117.56 37.68 136.34 C 59.51 143.97 84.50 137.68 101.85 122.81 C 121.81 107.30 138.99 86.71 163.82 78.83 C 159.26 59.32 146.01 42.10 128.34 32.68 C 109.74 22.59 86.52 21.66 67.11 30.05 M 141.59 103.70 C 141.51 118.55 141.46 133.40 141.59 148.25 C 151.67 139.49 159.31 127.79 162.89 114.90 C 163.46 106.88 163.02 98.80 163.10 90.76 C 155.46 94.22 148.23 98.57 141.59 103.70 M 108.69 131.79 C 108.17 142.70 108.41 153.63 108.38 164.55 C 115.94 163.09 123.18 160.33 129.95 156.70 C 130.18 142.26 130.09 127.81 130.12 113.37 C 123.11 119.66 115.85 125.67 108.69 131.79 M 74.96 148.84 C 75.05 153.54 74.98 158.24 75.01 162.94 C 82.14 165.00 89.56 165.95 96.97 165.82 C 97.05 157.15 96.95 148.48 97.04 139.81 C 90.00 143.55 82.57 146.49 74.96 148.84 M 50.60 150.19 C 54.69 153.45 59.12 156.28 63.82 158.58 C 63.83 155.81 63.83 153.06 63.83 150.30 C 59.42 150.56 55.01 150.46 50.60 150.19 Z" />
<path fill="#fb8739" opacity="1.00" d=" M 85.33 44.52 C 85.89 37.10 93.17 30.54 100.74 33.27 C 105.82 34.72 108.17 39.97 109.15 44.73 C 115.44 46.31 121.51 48.73 127.15 51.96 C 132.30 47.73 141.13 46.46 145.17 52.88 C 149.35 57.42 147.29 63.88 143.72 68.04 C 144.96 70.23 146.17 72.44 147.30 74.69 C 144.01 76.55 140.82 78.59 137.40 80.21 C 127.64 58.01 98.74 48.51 77.34 59.33 C 57.82 68.11 48.13 92.87 56.44 112.59 C 58.79 118.82 63.29 123.81 67.53 128.80 C 62.71 129.04 57.90 129.38 53.08 129.36 C 48.24 123.08 45.25 115.75 42.68 108.33 C 36.60 107.99 30.42 103.53 30.46 97.00 C 30.57 90.53 36.73 86.27 42.70 85.74 C 44.42 79.48 47.15 73.55 50.45 67.97 C 46.59 63.48 45.12 56.30 49.89 51.88 C 54.48 46.98 62.18 48.02 67.00 51.98 C 72.74 48.68 78.92 46.21 85.33 44.52 Z" />
<path fill="#fb8739" opacity="1.00" d=" M 92.38 86.47 C 99.63 83.50 108.17 89.15 108.04 97.00 C 108.61 106.52 95.23 112.52 88.81 105.15 C 82.70 99.86 85.35 89.52 92.38 86.47 Z" />
</g>
</svg>
