<?xml version="1.0" encoding="UTF-8" ?>
<!DOCTYPE svg PUBLIC "-//W3C//DTD SVG 1.1//EN" "http://www.w3.org/Graphics/SVG/1.1/DTD/svg11.dtd">
<svg width="192pt" height="192pt" viewBox="0 0 192 192" version="1.1" xmlns="http://www.w3.org/2000/svg">
<g id="#3de3e7ff">
<path fill="#3de3e7" opacity="1.00" d=" M 80.87 24.90 C 89.78 13.92 108.13 14.29 117.47 24.53 C 123.43 30.02 125.43 38.41 124.60 46.26 C 128.60 50.73 125.61 56.95 125.24 62.16 C 124.78 68.60 118.79 73.07 112.50 72.53 C 112.13 66.15 114.24 60.20 115.22 54.02 C 111.33 49.20 114.97 42.68 112.72 37.30 C 109.83 27.58 94.75 24.17 88.74 32.76 C 83.54 40.72 86.77 50.99 91.94 58.11 C 96.63 64.32 97.13 74.96 91.01 80.25 C 86.10 79.59 80.18 78.00 76.35 82.31 C 66.51 92.48 57.23 103.19 47.52 113.49 C 45.23 115.53 44.37 119.70 47.45 121.48 C 61.24 130.50 75.27 139.16 89.10 148.13 C 83.61 154.03 77.65 159.70 73.90 166.95 C 72.43 169.44 71.40 173.09 68.02 173.46 C 64.24 174.32 60.46 170.43 61.62 166.70 C 64.04 160.68 68.08 155.51 71.82 150.27 C 61.48 143.57 50.91 137.20 40.70 130.30 C 34.01 125.62 32.17 115.65 36.95 108.99 C 44.95 98.70 54.90 89.94 62.60 79.48 C 58.29 82.28 53.06 83.16 48.02 82.24 C 45.65 79.70 44.41 76.25 43.39 72.98 C 46.19 68.56 53.83 73.89 56.65 68.65 C 61.38 61.35 69.11 55.61 78.28 56.93 C 73.69 46.80 73.16 33.68 80.87 24.90 M 64.64 77.28 C 68.41 73.55 72.61 70.24 77.67 68.46 C 71.46 67.08 67.26 72.52 64.64 77.28 Z" />
<path fill="#3de3e7" opacity="1.00" d=" M 104.36 74.96 C 111.12 78.30 118.43 82.00 122.15 88.92 C 126.04 96.17 124.81 104.70 125.10 112.60 C 133.50 108.85 125.09 100.08 128.87 93.89 C 131.53 88.85 137.60 87.27 142.59 85.52 C 149.66 83.56 156.74 89.87 156.78 96.92 C 156.68 102.09 157.13 107.32 156.50 112.46 C 154.31 114.84 151.49 111.66 149.28 110.73 C 143.52 108.20 146.47 100.90 145.60 96.09 C 143.39 97.02 141.14 97.81 139.05 99.00 C 139.90 105.11 142.47 113.09 136.50 117.47 C 128.99 123.01 122.14 129.60 113.89 134.06 C 113.81 123.01 113.82 111.97 113.84 100.92 C 113.89 96.58 111.85 92.14 108.02 89.91 C 106.02 88.37 102.84 87.62 102.25 84.82 C 102.16 81.43 103.58 78.21 104.36 74.96 Z" />
<path fill="#3de3e7" opacity="1.00" d=" M 68.08 106.17 C 70.17 103.08 74.31 102.35 77.54 100.87 C 81.89 114.88 86.47 128.82 90.75 142.86 C 89.51 143.33 88.61 144.37 87.37 144.81 C 76.41 135.23 65.16 125.97 54.25 116.34 C 56.87 113.68 59.49 111.04 62.17 108.45 C 64.89 110.73 67.58 113.05 70.31 115.32 C 69.55 112.30 67.79 109.35 68.08 106.17 Z" />
<path fill="#3de3e7" opacity="1.00" d=" M 114.17 144.05 C 116.56 140.29 121.42 139.07 124.90 136.48 C 124.86 147.30 125.01 158.14 124.82 168.96 C 124.38 174.38 115.74 174.94 114.45 169.70 C 113.71 161.19 114.06 152.58 114.17 144.05 Z" />
</g>
</svg>
