<?xml version="1.0" encoding="UTF-8" ?>
<!DOCTYPE svg PUBLIC "-//W3C//DTD SVG 1.1//EN" "http://www.w3.org/Graphics/SVG/1.1/DTD/svg11.dtd">
<svg width="192pt" height="192pt" viewBox="0 0 192 192" version="1.1" xmlns="http://www.w3.org/2000/svg">
<g id="#a51affff">
<path fill="#a51aff" opacity="1.00" d=" M 84.35 14.44 C 115.04 10.02 147.23 24.93 163.88 51.04 C 176.74 70.51 180.45 95.59 174.09 118.00 C 165.85 148.53 138.42 172.75 107.03 176.91 C 76.31 181.81 43.76 167.25 26.83 141.18 C 7.92 113.63 8.73 74.45 28.68 47.66 C 41.69 29.62 62.25 17.21 84.35 14.44 M 49.20 41.86 C 82.38 75.18 115.68 108.38 148.95 141.60 C 163.63 124.79 169.21 100.76 163.90 79.13 C 157.18 49.53 129.46 26.19 99.04 25.17 C 81.06 23.97 62.88 30.18 49.20 41.86 M 41.16 49.90 C 35.35 57.00 30.39 65.03 27.93 73.93 C 57.60 103.66 87.32 133.34 117.04 163.03 C 125.81 160.23 133.96 155.58 140.97 149.62 C 107.68 116.40 74.57 83.00 41.16 49.90 M 24.83 86.84 C 21.88 109.93 30.99 134.13 48.77 149.23 C 63.67 162.37 84.32 168.54 104.00 165.94 C 77.60 139.58 51.32 113.10 24.83 86.84 Z" />
</g>
</svg>
