<?xml version="1.0" encoding="UTF-8" ?>
<!DOCTYPE svg PUBLIC "-//W3C//DTD SVG 1.1//EN" "http://www.w3.org/Graphics/SVG/1.1/DTD/svg11.dtd">
<svg width="192pt" height="192pt" viewBox="0 0 192 192" version="1.1" xmlns="http://www.w3.org/2000/svg">
<g id="#ca75fbff">
<path fill="#ca75fb" opacity="1.00" d=" M 73.48 24.44 C 71.25 19.56 77.90 15.03 82.01 17.98 C 87.14 22.18 90.47 28.66 96.09 32.11 C 102.40 28.37 105.26 19.10 113.01 17.05 C 118.08 16.22 121.08 23.02 117.60 26.58 C 112.22 32.84 106.58 38.91 101.20 45.19 C 99.73 47.10 97.54 48.49 95.05 48.23 C 78.67 48.24 62.30 48.20 45.93 48.23 C 39.09 47.79 32.74 54.06 33.24 60.94 C 33.25 90.65 33.23 120.36 33.26 150.07 C 33.02 156.81 39.28 162.78 46.00 162.34 C 79.66 162.32 113.33 162.32 146.99 162.31 C 153.69 162.70 159.81 156.77 159.65 150.08 C 159.72 120.37 159.68 90.65 159.68 60.94 C 160.00 54.49 154.51 48.41 148.02 48.30 C 139.34 48.02 130.64 48.48 121.97 48.10 C 117.89 47.87 115.65 42.42 118.24 39.32 C 120.22 36.46 124.02 37.11 127.01 37.02 C 134.68 37.19 142.37 36.77 150.04 37.23 C 161.32 38.27 170.79 48.58 170.81 59.93 C 170.91 89.97 170.87 120.02 170.84 150.06 C 171.15 162.35 160.35 173.45 148.06 173.50 C 113.69 173.58 79.31 173.55 44.94 173.50 C 32.61 173.49 21.78 162.37 22.07 150.04 C 22.06 120.00 22.02 89.96 22.11 59.93 C 22.10 48.22 32.21 37.65 43.91 37.17 C 57.15 36.90 70.40 37.20 83.65 37.01 C 80.93 32.27 75.95 29.30 73.48 24.44 Z" />
<path fill="#ca75fb" opacity="1.00" d=" M 58.40 140.46 C 82.79 139.12 107.55 140.19 132.08 139.91 C 138.61 139.60 139.47 150.22 132.98 150.98 C 108.99 151.37 84.95 151.16 60.95 151.09 C 55.27 151.37 53.21 142.78 58.40 140.46 Z" />
</g>
</svg>
