<?xml version="1.0" encoding="UTF-8" ?>
<!DOCTYPE svg PUBLIC "-//W3C//DTD SVG 1.1//EN" "http://www.w3.org/Graphics/SVG/1.1/DTD/svg11.dtd">
<svg width="192pt" height="192pt" viewBox="0 0 192 192" version="1.1" xmlns="http://www.w3.org/2000/svg">
<g id="#b322ebff">
<path fill="#b322eb" opacity="1.00" d=" M 14.09 42.93 C 13.93 30.70 24.82 19.78 37.03 19.74 C 76.01 19.60 114.99 19.67 153.97 19.69 C 166.13 19.33 177.43 29.71 177.76 41.93 C 177.88 68.30 177.80 94.68 177.82 121.06 C 178.06 132.96 167.83 143.75 155.98 144.35 C 137.84 144.66 119.68 144.16 101.54 144.59 C 101.66 149.46 101.56 154.34 101.62 159.21 C 108.96 159.46 116.34 158.86 123.65 159.50 C 129.33 160.72 128.84 169.99 123.00 170.44 C 105.01 170.64 87.00 170.62 69.01 170.44 C 63.25 170.11 62.45 160.97 68.04 159.56 C 75.39 158.82 82.84 159.49 90.23 159.22 C 90.31 154.30 90.26 149.37 90.25 144.45 C 72.51 144.38 54.77 144.48 37.03 144.40 C 24.76 144.38 13.87 133.34 14.07 121.06 C 14.02 95.02 14.03 68.98 14.09 42.93 M 34.29 31.37 C 29.26 32.77 25.29 37.63 25.34 42.92 C 25.29 68.97 25.30 95.02 25.34 121.07 C 25.19 127.72 31.37 133.55 37.99 133.19 C 76.66 133.18 115.34 133.18 154.02 133.16 C 160.64 133.48 166.63 127.59 166.57 120.99 C 166.64 95.00 166.66 69.00 166.57 43.00 C 166.58 36.41 160.57 30.74 154.03 30.89 C 116.02 30.75 78.01 30.88 40.00 30.79 C 38.09 30.81 36.14 30.83 34.29 31.37 Z" />
<path fill="#b322eb" opacity="1.00" d=" M 86.43 62.53 C 90.09 61.59 93.32 63.95 96.34 65.63 C 101.60 68.73 107.06 71.51 112.24 74.74 C 117.11 77.83 116.79 86.02 111.67 88.69 C 105.09 92.45 98.52 96.26 91.86 99.87 C 86.87 102.47 80.01 98.68 79.75 93.01 C 79.55 85.68 79.68 78.33 79.69 70.98 C 79.54 66.99 82.55 63.31 86.43 62.53 Z" />
</g>
</svg>
