<?xml version="1.0" encoding="UTF-8" ?>
<!DOCTYPE svg PUBLIC "-//W3C//DTD SVG 1.1//EN" "http://www.w3.org/Graphics/SVG/1.1/DTD/svg11.dtd">
<svg width="192pt" height="192pt" viewBox="0 0 192 192" version="1.1" xmlns="http://www.w3.org/2000/svg">
<g id="#1ab2ffff">
<path fill="#1ab2ff" opacity="1.00" d=" M 92.82 15.85 C 93.83 12.97 96.68 14.13 97.53 16.44 C 119.32 51.60 141.34 86.61 163.48 121.56 C 166.63 126.55 170.12 131.45 172.14 137.05 C 174.56 144.45 168.81 153.36 160.86 153.51 C 147.03 153.56 133.17 153.94 119.36 153.48 C 113.30 152.38 113.81 142.52 120.01 142.15 C 133.28 141.76 146.58 142.19 159.85 141.95 C 162.24 140.42 160.37 137.52 159.25 135.78 C 141.29 107.96 124.11 79.64 106.26 51.76 C 104.79 49.82 103.84 46.64 100.85 46.92 C 100.16 88.22 100.87 129.56 100.52 170.87 C 100.51 175.09 95.12 178.23 91.71 175.28 C 85.46 169.52 80.38 162.61 74.59 156.40 C 72.92 154.56 70.49 153.46 67.98 153.55 C 55.37 153.57 42.75 153.82 30.14 153.53 C 20.76 153.00 15.01 141.13 20.42 133.41 C 44.58 94.24 68.65 55.01 92.82 15.85 M 85.61 48.56 C 67.51 78.39 49.26 108.14 30.92 137.84 C 30.08 139.00 29.41 141.28 31.06 142.05 C 45.06 142.16 59.07 142.03 73.07 142.15 C 80.83 142.50 82.77 151.73 88.79 155.07 C 89.03 119.13 89.49 83.10 88.60 47.19 C 87.44 47.29 86.05 47.20 85.61 48.56 Z" />
</g>
</svg>
