<?xml version="1.0" encoding="UTF-8" ?>
<!DOCTYPE svg PUBLIC "-//W3C//DTD SVG 1.1//EN" "http://www.w3.org/Graphics/SVG/1.1/DTD/svg11.dtd">
<svg width="192pt" height="192pt" viewBox="0 0 192 192" version="1.1" xmlns="http://www.w3.org/2000/svg">
<g id="#2abaa2ff">
<path fill="#2abaa2" opacity="1.00" d=" M 88.63 21.60 C 101.62 18.24 116.35 24.64 122.53 36.59 C 128.20 46.71 125.73 58.72 126.22 69.77 C 132.84 70.20 139.47 69.85 146.09 70.06 C 152.57 70.19 157.79 75.93 158.63 82.14 C 120.80 82.31 82.99 81.61 45.16 81.84 C 44.98 111.03 45.19 140.23 45.06 169.43 C 38.54 167.89 33.06 161.94 33.25 155.05 C 33.14 131.68 33.22 108.31 33.24 84.94 C 32.95 78.12 37.93 70.98 44.95 70.20 C 51.82 69.82 58.71 70.27 65.59 69.93 C 65.76 62.63 65.27 55.31 65.83 48.02 C 66.76 35.54 76.49 24.45 88.63 21.60 M 77.57 49.17 C 77.27 56.07 77.55 62.99 77.38 69.90 C 89.69 70.18 102.01 69.95 114.33 69.99 C 114.30 63.33 114.43 56.67 114.30 50.02 C 114.07 41.10 106.33 33.32 97.53 32.58 C 87.87 31.50 78.21 39.44 77.57 49.17 Z" />
<path fill="#2abaa2" opacity="1.00" d=" M 118.35 106.43 C 123.32 104.15 129.08 111.13 125.40 115.42 C 119.63 121.63 113.59 127.61 107.70 133.72 C 101.99 139.84 91.49 140.39 85.24 134.77 C 81.26 131.10 77.34 127.33 73.69 123.34 C 69.87 118.76 77.33 111.22 81.92 115.12 C 85.88 118.47 89.23 122.49 93.20 125.83 C 94.70 127.12 97.19 127.17 98.62 125.74 C 105.46 119.59 111.13 112.10 118.35 106.43 Z" />
<path fill="#2abaa2" opacity="1.00" d=" M 147.14 111.03 C 147.91 104.80 158.06 104.85 158.71 111.11 C 159.17 126.08 158.95 141.07 158.81 156.04 C 158.49 163.48 151.50 169.89 144.05 169.54 C 120.83 169.54 97.59 169.75 74.38 169.43 C 68.12 168.92 67.80 158.77 74.00 157.85 C 98.30 157.07 122.71 158.42 146.99 157.14 C 147.10 141.77 146.78 126.38 147.14 111.03 Z" />
</g>
</svg>
