<?xml version="1.0" encoding="UTF-8" ?>
<!DOCTYPE svg PUBLIC "-//W3C//DTD SVG 1.1//EN" "http://www.w3.org/Graphics/SVG/1.1/DTD/svg11.dtd">
<svg width="192pt" height="192pt" viewBox="0 0 192 192" version="1.1" xmlns="http://www.w3.org/2000/svg">
<g id="#1ab2ffff">
<path fill="#1ab2ff" opacity="1.00" d=" M 90.40 17.52 C 98.89 16.22 108.91 16.58 115.74 22.35 C 116.16 27.23 111.16 32.54 106.12 29.91 C 94.31 26.01 78.80 28.84 73.24 41.09 C 72.84 58.38 73.21 75.72 73.06 93.03 C 72.86 105.06 83.93 115.85 96.06 114.79 C 107.03 115.06 116.43 105.69 117.33 94.99 C 117.68 80.16 116.96 65.27 117.70 50.46 C 118.80 44.69 128.27 45.25 128.69 51.11 C 128.99 65.07 128.58 79.04 128.70 93.01 C 129.54 102.67 123.83 111.64 116.97 117.94 C 102.98 130.41 78.61 127.52 68.05 111.99 C 65.29 107.41 61.63 102.65 62.02 97.01 C 62.29 77.05 61.49 57.04 62.07 37.10 C 67.12 26.12 78.90 19.65 90.40 17.52 Z" />
<path fill="#1ab2ff" opacity="1.00" d=" M 39.35 97.50 C 42.64 96.38 46.66 97.75 47.49 101.39 C 50.75 112.20 55.60 123.11 64.58 130.38 C 74.59 138.91 88.21 141.43 101.02 141.23 C 106.34 141.11 113.03 141.96 115.50 147.44 C 118.06 153.77 119.87 161.01 117.82 167.73 C 116.79 171.55 112.85 173.93 108.99 173.56 C 97.33 173.44 85.65 173.77 74.00 173.38 C 68.57 173.04 67.42 163.87 73.05 162.89 C 83.43 162.21 93.90 163.11 104.28 162.24 C 108.29 161.77 107.65 156.48 106.14 153.92 C 104.31 150.43 100.00 152.24 96.96 152.30 C 74.65 152.61 52.49 139.64 42.41 119.63 C 39.32 113.80 37.82 107.32 36.23 100.97 C 35.58 98.99 37.73 97.79 39.35 97.50 Z" />
<path fill="#1ab2ff" opacity="1.00" d=" M 143.93 100.99 C 143.70 94.62 156.01 96.14 154.73 101.98 C 152.85 116.34 144.79 129.53 133.72 138.71 C 132.43 139.94 130.73 140.43 129.04 140.79 C 127.50 137.87 122.48 134.16 125.97 130.92 C 134.96 123.21 141.93 112.81 143.93 100.99 Z" />
</g>
</svg>
