<?xml version="1.0" encoding="UTF-8" ?>
<!DOCTYPE svg PUBLIC "-//W3C//DTD SVG 1.1//EN" "http://www.w3.org/Graphics/SVG/1.1/DTD/svg11.dtd">
<svg width="192pt" height="192pt" viewBox="0 0 192 192" version="1.1" xmlns="http://www.w3.org/2000/svg">
<g id="#48e46fff">
<path fill="#48e46f" opacity="1.00" d=" M 91.31 17.36 C 102.46 14.76 115.40 21.73 118.31 33.00 C 119.81 38.83 110.78 42.26 107.97 37.04 C 105.34 31.59 99.51 26.86 93.15 29.13 C 84.14 30.63 81.42 44.14 88.73 49.31 C 93.18 52.81 98.89 50.39 103.94 50.27 C 113.28 49.71 122.65 54.37 127.76 62.22 C 135.03 73.11 134.31 86.81 136.74 99.20 C 139.54 115.21 151.74 126.92 159.47 140.59 C 162.64 146.00 162.78 153.48 158.29 158.22 C 152.29 164.59 143.54 167.37 135.26 169.40 C 111.93 174.36 87.62 174.93 64.09 170.95 C 53.41 168.75 42.03 165.86 34.08 157.90 C 29.76 153.60 29.19 146.46 32.35 141.33 C 36.94 133.73 42.02 126.43 47.12 119.16 C 53.82 109.39 56.45 97.50 57.36 85.86 C 58.20 79.04 58.90 71.69 62.81 65.85 C 65.93 61.37 73.92 64.27 72.79 69.81 C 69.85 80.36 68.94 91.29 67.15 102.06 C 64.27 117.48 53.88 129.72 45.54 142.49 C 44.34 144.64 42.01 146.78 42.55 149.45 C 45.36 153.41 50.31 154.98 54.77 156.30 C 78.69 162.81 104.16 163.01 128.44 158.45 C 135.44 156.71 143.03 155.47 148.78 150.79 C 150.19 149.85 150.28 147.96 149.40 146.63 C 143.22 136.25 135.39 126.85 129.97 116.01 C 123.03 102.59 124.48 87.00 120.13 72.84 C 118.48 67.43 113.68 62.97 108.00 62.24 C 102.12 61.65 96.23 63.54 90.35 62.55 C 79.40 60.43 71.05 49.12 72.80 37.98 C 73.51 27.95 81.45 19.20 91.31 17.36 Z" />
</g>
</svg>
