<?xml version="1.0" encoding="UTF-8" ?>
<!DOCTYPE svg PUBLIC "-//W3C//DTD SVG 1.1//EN" "http://www.w3.org/Graphics/SVG/1.1/DTD/svg11.dtd">
<svg width="192pt" height="192pt" viewBox="0 0 192 192" version="1.1" xmlns="http://www.w3.org/2000/svg">
<g id="#f6b02bff">
<path fill="#f6b02b" opacity="1.00" d=" M 129.91 26.45 C 140.09 20.73 151.00 14.66 163.03 14.87 C 170.56 14.90 176.97 21.43 177.05 28.93 C 177.16 40.90 171.16 51.79 165.45 61.94 C 180.41 91.81 172.99 130.79 147.89 152.89 C 126.20 172.93 92.57 178.54 65.58 166.49 C 64.28 166.14 62.87 164.78 61.50 165.58 C 51.49 171.04 40.81 177.00 29.05 176.63 C 21.76 176.58 15.44 170.29 15.26 163.03 C 14.77 150.93 21.10 140.02 26.63 129.70 C 19.19 113.12 16.76 94.08 21.52 76.38 C 26.74 55.76 41.07 37.71 59.94 27.90 C 81.32 16.41 108.07 15.79 129.91 26.45 M 140.92 32.54 C 147.40 38.27 154.02 44.00 159.06 51.13 C 162.55 43.64 167.99 35.16 165.30 26.69 C 157.01 23.68 148.52 29.54 140.92 32.54 M 43.86 55.00 C 55.10 60.80 62.55 73.24 61.58 85.96 C 61.00 101.19 48.15 114.53 33.05 116.04 C 37.80 131.22 48.38 144.39 61.98 152.58 C 97.75 128.60 128.80 97.42 152.91 61.75 C 140.35 39.75 114.08 26.98 89.01 29.91 C 71.38 31.68 54.66 40.94 43.86 55.00 M 30.59 105.49 C 38.65 104.92 46.35 99.87 49.18 92.16 C 53.86 81.65 48.48 68.46 37.82 64.18 C 31.04 76.68 28.32 91.42 30.59 105.49 M 73.58 158.01 C 102.60 169.45 137.99 156.21 153.25 129.25 C 163.34 112.58 165.15 91.36 158.33 73.14 C 135.19 105.96 106.25 134.67 73.58 158.01 M 26.18 162.95 C 26.34 165.85 29.82 166.01 32.01 165.81 C 38.96 165.08 45.31 161.86 51.48 158.78 C 44.53 153.54 38.31 147.39 33.12 140.40 C 29.71 147.45 25.60 154.86 26.18 162.95 Z" />
<path fill="#f6b02b" opacity="1.00" d=" M 100.41 51.60 C 107.61 49.95 115.61 53.17 119.57 59.42 C 124.13 66.14 123.35 75.85 117.76 81.74 C 112.52 87.63 103.28 89.36 96.27 85.76 C 89.66 82.64 85.50 75.22 86.16 67.96 C 86.64 60.16 92.75 53.14 100.41 51.60 M 102.26 62.29 C 92.93 64.46 97.48 79.97 106.63 76.46 C 115.64 73.98 111.25 59.24 102.26 62.29 Z" />
</g>
</svg>
