<?xml version="1.0" encoding="UTF-8" ?>
<!DOCTYPE svg PUBLIC "-//W3C//DTD SVG 1.1//EN" "http://www.w3.org/Graphics/SVG/1.1/DTD/svg11.dtd">
<svg width="192pt" height="192pt" viewBox="0 0 192 192" version="1.1" xmlns="http://www.w3.org/2000/svg">
<g id="#d6d6d6ff">
<path fill="#d6d6d6" opacity="1.00" d=" M 67.22 31.17 C 71.98 27.07 79.25 34.27 75.04 39.02 C 59.28 56.06 43.37 72.97 27.43 89.84 C 48.20 90.04 68.98 89.88 89.76 89.92 C 89.88 71.29 89.52 52.63 89.95 34.02 C 91.10 28.04 100.85 28.81 100.96 34.93 C 101.25 53.24 101.01 71.58 101.08 89.90 C 121.94 89.93 142.81 89.97 163.68 89.88 C 147.82 72.89 131.79 56.04 116.07 38.92 C 111.78 33.83 119.91 26.71 124.41 31.57 C 140.81 48.84 157.03 66.29 173.34 83.66 C 179.52 90.26 179.35 101.56 172.93 107.95 C 156.59 125.26 140.50 142.81 124.00 159.96 C 119.24 164.24 111.89 156.90 116.10 152.11 C 131.81 135.07 147.84 118.31 163.57 101.29 C 142.75 101.25 121.92 101.32 101.10 101.25 C 100.98 119.84 101.26 138.44 100.96 157.02 C 100.37 163.14 90.45 163.12 89.87 157.02 C 89.56 138.44 89.90 119.85 89.71 101.27 C 68.97 101.29 48.23 101.25 27.49 101.28 C 43.29 118.21 59.23 135.00 74.96 151.99 C 79.42 156.75 71.93 164.32 67.12 159.91 C 50.66 142.70 34.53 125.15 18.19 107.82 C 11.74 101.27 11.74 89.77 18.25 83.27 C 34.59 65.92 50.76 48.39 67.22 31.17 Z" />
</g>
</svg>
