<?xml version="1.0" encoding="UTF-8" ?>
<!DOCTYPE svg PUBLIC "-//W3C//DTD SVG 1.1//EN" "http://www.w3.org/Graphics/SVG/1.1/DTD/svg11.dtd">
<svg width="192pt" height="192pt" viewBox="0 0 192 192" version="1.1" xmlns="http://www.w3.org/2000/svg">
<g id="#42e274ff">
<path fill="#42e274" opacity="1.00" d=" M 62.12 18.13 C 82.19 9.59 105.77 9.54 125.81 18.19 C 129.78 19.82 129.78 26.10 125.91 27.88 C 107.06 39.07 88.11 50.10 69.25 61.28 C 67.43 62.49 65.03 63.24 62.95 62.21 C 54.92 57.99 47.26 53.09 39.19 48.94 C 37.81 50.71 36.45 52.50 35.13 54.32 C 45.05 60.22 55.22 65.67 65.20 71.46 C 89.53 57.74 113.72 43.78 138.03 30.04 C 140.57 28.49 144.02 28.73 146.29 30.67 C 151.00 34.62 155.40 39.01 159.05 43.97 C 161.64 47.34 160.36 52.67 156.61 54.59 C 126.95 71.89 97.29 89.20 67.58 106.41 C 64.48 108.48 61.23 106.05 58.55 104.51 C 46.97 97.92 35.52 91.09 23.82 84.73 C 23.53 87.38 23.38 90.04 23.32 92.71 C 37.44 100.72 51.49 108.90 65.81 116.54 C 98.02 97.81 130.33 79.21 162.66 60.68 C 168.86 57.26 174.06 67.76 167.70 70.72 C 134.93 89.62 102.15 108.50 69.39 127.40 C 67.33 128.84 64.53 129.17 62.37 127.73 C 49.69 120.65 37.10 113.41 24.40 106.37 C 29.40 135.98 55.22 160.38 85.06 163.71 C 106.55 166.59 129.14 158.84 144.23 143.23 C 158.61 128.90 165.93 108.18 164.50 88.00 C 164.23 81.85 173.91 80.55 175.38 86.44 C 179.47 121.40 157.28 156.92 124.63 169.61 C 94.61 182.15 57.63 174.36 35.24 150.76 C 15.80 131.07 7.55 101.13 14.40 74.30 C 15.38 70.83 19.88 69.18 22.91 71.11 C 36.93 79.00 50.77 87.20 64.83 95.02 C 92.23 79.01 119.72 63.15 147.08 47.05 C 145.21 44.99 143.26 43.01 141.19 41.14 C 117.21 54.90 93.15 68.52 69.15 82.25 C 67.15 83.58 64.45 84.13 62.34 82.71 C 49.94 75.77 37.58 68.76 25.22 61.75 C 21.98 60.22 20.81 55.86 22.87 52.92 C 31.70 37.47 45.70 25.01 62.12 18.13 M 47.49 40.28 C 53.14 44.07 59.25 47.12 65.10 50.58 C 79.81 41.97 94.56 33.40 109.15 24.59 C 87.59 19.89 64.11 25.69 47.49 40.28 Z" />
</g>
</svg>
