<?xml version="1.0" encoding="UTF-8" ?>
<!DOCTYPE svg PUBLIC "-//W3C//DTD SVG 1.1//EN" "http://www.w3.org/Graphics/SVG/1.1/DTD/svg11.dtd">
<svg width="192pt" height="192pt" viewBox="0 0 192 192" version="1.1" xmlns="http://www.w3.org/2000/svg">
<g id="#1ab2ffff">
<path fill="#1ab2ff" opacity="1.00" d=" M 18.54 61.59 C 31.37 30.95 63.81 9.88 96.99 10.40 C 116.37 10.52 135.56 18.09 149.91 31.11 C 174.40 53.20 183.58 90.37 172.28 121.36 C 163.03 149.70 136.64 172.72 106.40 174.57 C 104.17 174.54 99.71 176.26 99.47 172.87 C 99.24 154.92 99.42 136.94 99.40 118.98 C 98.93 115.87 102.59 115.57 104.66 114.66 C 113.01 111.93 119.19 104.29 120.64 95.70 C 123.06 85.03 117.48 73.33 107.84 68.27 C 98.28 62.83 85.22 64.62 77.58 72.58 C 68.93 81.19 67.51 96.23 75.06 105.98 C 76.78 108.42 79.86 110.63 79.13 114.02 C 78.57 117.81 73.51 119.97 70.48 117.55 C 58.03 106.61 55.44 86.87 63.67 72.67 C 70.80 59.22 86.95 51.56 101.89 54.35 C 117.07 56.79 129.83 69.70 131.99 84.95 C 134.68 101.05 125.73 118.21 110.60 124.65 C 110.69 137.29 110.68 149.93 110.70 162.57 C 148.36 157.00 172.53 114.85 164.30 78.85 C 159.14 50.23 134.98 26.05 105.90 22.35 C 68.91 16.58 29.45 44.33 24.58 81.89 C 19.65 117.79 46.04 153.45 80.59 162.29 C 80.78 148.21 80.28 134.11 80.84 120.06 C 82.08 114.22 91.63 115.05 91.75 121.05 C 91.91 138.34 91.91 155.64 91.77 172.93 C 91.83 175.96 87.89 175.17 85.93 174.99 C 54.67 170.15 27.45 146.68 17.27 116.84 C 11.01 99.08 11.13 78.99 18.54 61.59 Z" />
</g>
</svg>
