<?xml version="1.0" encoding="UTF-8" ?>
<!DOCTYPE svg PUBLIC "-//W3C//DTD SVG 1.1//EN" "http://www.w3.org/Graphics/SVG/1.1/DTD/svg11.dtd">
<svg width="192pt" height="192pt" viewBox="0 0 192 192" version="1.1" xmlns="http://www.w3.org/2000/svg">
<g id="#bd21d7ff">
<path fill="#bd21d7" opacity="1.00" d=" M 39.32 22.39 C 42.81 21.56 46.43 21.73 50.00 21.72 C 82.33 21.77 114.66 21.67 146.98 21.76 C 159.20 21.72 169.91 32.78 169.75 44.94 C 169.68 55.58 170.00 66.24 169.60 76.87 C 168.94 82.61 159.63 82.72 158.83 76.98 C 158.21 66.01 158.96 54.98 158.49 44.00 C 158.08 37.79 152.21 32.71 146.04 32.88 C 112.69 32.79 79.34 32.86 45.99 32.82 C 39.45 32.34 33.02 37.55 32.67 44.20 C 32.30 55.12 32.94 66.08 32.40 76.99 C 31.57 82.85 22.06 82.48 21.61 76.60 C 21.26 66.06 21.52 55.49 21.50 44.94 C 21.46 34.53 29.15 24.72 39.32 22.39 Z" />
<path fill="#bd21d7" opacity="1.00" d=" M 17.24 91.18 C 18.73 90.51 20.41 90.64 22.00 90.56 C 72.00 90.64 122.01 90.47 172.01 90.60 C 178.95 89.89 179.81 101.40 172.91 101.66 C 121.94 101.84 70.96 101.66 19.99 101.67 C 14.15 102.49 11.86 93.35 17.24 91.18 Z" />
<path fill="#bd21d7" opacity="1.00" d=" M 25.32 111.39 C 28.49 110.24 32.43 112.72 32.49 116.15 C 32.83 126.76 32.35 137.39 32.69 148.00 C 32.99 154.23 38.76 159.55 45.00 159.30 C 78.67 159.32 112.33 159.30 146.00 159.28 C 152.31 159.62 158.22 154.32 158.51 148.00 C 158.96 137.03 158.14 126.01 158.89 115.07 C 160.16 109.33 169.53 110.23 169.67 116.11 C 169.91 126.76 169.78 137.42 169.73 148.08 C 169.53 160.01 158.93 170.49 146.99 170.53 C 112.97 170.61 78.96 170.55 44.95 170.54 C 33.04 170.81 22.17 160.69 21.57 148.80 C 21.29 138.52 21.52 128.23 21.45 117.95 C 21.23 115.22 22.50 112.20 25.32 111.39 Z" />
</g>
</svg>
