<?xml version="1.0" encoding="UTF-8" ?>
<!DOCTYPE svg PUBLIC "-//W3C//DTD SVG 1.1//EN" "http://www.w3.org/Graphics/SVG/1.1/DTD/svg11.dtd">
<svg width="192pt" height="192pt" viewBox="0 0 192 192" version="1.1" xmlns="http://www.w3.org/2000/svg">
<g id="#a66a62ff">
<path fill="#a66a62" opacity="1.00" d=" M 22.15 43.93 C 21.90 31.71 32.82 20.74 45.02 20.78 C 64.68 20.76 84.35 20.68 104.01 20.82 C 110.11 20.75 110.95 30.87 104.88 31.62 C 85.25 32.00 65.60 31.61 45.96 31.79 C 39.42 31.64 33.04 37.20 33.29 43.93 C 33.28 78.29 33.22 112.65 33.33 147.01 C 33.49 154.10 40.58 159.08 47.33 158.58 C 47.91 131.07 47.18 103.52 47.71 76.01 C 48.36 68.44 56.39 64.53 63.29 65.45 C 63.72 60.47 68.58 58.55 72.99 59.33 C 78.97 59.88 88.71 56.82 90.34 65.14 C 99.68 65.55 109.04 65.33 118.39 65.45 C 118.54 52.10 118.18 38.74 118.56 25.41 C 119.06 19.42 128.80 19.21 129.59 25.16 C 129.99 38.51 129.65 51.89 129.75 65.25 C 136.81 64.61 144.47 69.42 144.54 77.01 C 144.67 104.13 144.62 131.26 144.69 158.38 C 152.09 159.59 159.92 153.83 159.67 146.07 C 159.71 112.02 159.73 77.97 159.66 43.93 C 159.79 35.89 151.37 30.65 143.94 31.74 C 138.26 32.78 135.73 24.20 140.52 21.55 C 154.28 17.11 170.56 28.23 170.74 42.93 C 170.86 77.64 170.84 112.35 170.76 147.06 C 170.66 159.39 159.30 169.95 147.06 169.56 C 113.35 169.56 79.65 169.53 45.95 169.55 C 33.69 169.97 22.30 159.42 22.17 147.08 C 22.06 112.70 22.14 78.32 22.15 43.93 M 58.95 77.17 C 58.74 104.22 58.91 131.28 58.89 158.33 C 83.67 158.41 108.45 158.37 133.23 158.33 C 133.16 131.28 133.27 104.22 133.14 77.16 C 108.43 76.79 83.66 76.14 58.95 77.17 Z" />
<path fill="#a66a62" opacity="1.00" d=" M 92.29 95.76 C 100.35 98.75 107.36 104.06 115.01 107.98 C 118.17 110.13 122.26 111.18 124.53 114.41 C 116.53 113.81 108.84 111.21 100.92 110.01 C 100.46 113.82 100.49 117.66 100.16 121.48 C 87.81 114.70 75.65 107.47 63.85 99.77 C 73.38 99.76 82.53 104.40 92.05 105.54 C 92.14 102.28 92.15 99.02 92.29 95.76 Z" />
</g>
</svg>
