<?xml version="1.0" encoding="UTF-8" ?>
<!DOCTYPE svg PUBLIC "-//W3C//DTD SVG 1.1//EN" "http://www.w3.org/Graphics/SVG/1.1/DTD/svg11.dtd">
<svg width="192pt" height="192pt" viewBox="0 0 192 192" version="1.1" xmlns="http://www.w3.org/2000/svg">
<g id="#53b1c9ff">
<path fill="#53b1c9" opacity="1.00" d=" M 39.32 22.39 C 43.15 21.52 47.10 21.73 51.00 21.72 C 82.99 21.77 114.99 21.66 146.98 21.76 C 159.20 21.70 169.92 32.77 169.76 44.93 C 169.70 55.57 170.05 66.24 169.60 76.87 C 169.00 82.63 159.58 82.74 158.84 76.98 C 158.16 66.02 158.98 54.99 158.48 44.01 C 158.08 37.37 151.52 32.33 145.02 32.86 C 112.01 32.84 78.99 32.83 45.98 32.82 C 39.44 32.35 33.01 37.55 32.68 44.20 C 32.34 54.80 32.81 65.42 32.51 76.02 C 32.67 80.32 27.01 82.96 23.75 80.22 C 21.10 78.38 21.48 74.83 21.42 72.02 C 21.58 62.69 21.31 53.36 21.55 44.04 C 21.87 33.95 29.48 24.66 39.32 22.39 Z" />
<path fill="#53b1c9" opacity="1.00" d=" M 17.27 91.22 C 18.75 90.58 20.41 90.68 21.99 90.59 C 72.00 90.69 122.02 90.46 172.02 90.62 C 178.87 89.90 179.87 101.28 173.01 101.63 C 122.01 101.86 70.99 101.61 19.99 101.62 C 14.16 102.47 11.97 93.34 17.27 91.22 Z" />
<path fill="#53b1c9" opacity="1.00" d=" M 25.34 111.39 C 28.51 110.25 32.44 112.72 32.49 116.16 C 32.87 126.77 32.32 137.40 32.71 148.01 C 33.00 154.24 38.76 159.53 45.00 159.29 C 78.66 159.31 112.34 159.28 146.00 159.26 C 152.31 159.60 158.21 154.30 158.48 147.99 C 158.98 137.03 158.10 126.02 158.88 115.08 C 160.12 109.31 169.54 110.20 169.68 116.11 C 169.91 127.06 169.89 138.05 169.68 149.01 C 169.03 160.61 158.59 170.49 146.98 170.55 C 112.97 170.63 78.96 170.57 44.95 170.55 C 33.03 170.82 22.15 160.69 21.57 148.79 C 21.28 138.51 21.52 128.22 21.45 117.94 C 21.23 115.21 22.51 112.17 25.34 111.39 Z" />
</g>
</svg>
