<?xml version="1.0" encoding="UTF-8" ?>
<!DOCTYPE svg PUBLIC "-//W3C//DTD SVG 1.1//EN" "http://www.w3.org/Graphics/SVG/1.1/DTD/svg11.dtd">
<svg width="192pt" height="192pt" viewBox="0 0 192 192" version="1.1" xmlns="http://www.w3.org/2000/svg">
<g id="#fd5754ff">
<path fill="#fd5754" opacity="1.00" d=" M 39.32 22.40 C 42.81 21.57 46.43 21.73 50.00 21.72 C 82.33 21.78 114.66 21.68 146.99 21.77 C 159.18 21.75 169.90 32.78 169.72 44.93 C 169.65 55.58 169.97 66.24 169.57 76.87 C 168.93 82.60 159.68 82.69 158.85 76.99 C 158.22 66.02 158.97 54.99 158.51 44.00 C 158.10 37.77 152.21 32.71 146.03 32.85 C 112.68 32.78 79.33 32.84 45.98 32.81 C 39.44 32.34 33.02 37.55 32.67 44.19 C 32.29 55.12 32.93 66.07 32.39 76.99 C 31.55 82.85 22.09 82.47 21.62 76.60 C 21.27 66.06 21.53 55.50 21.50 44.95 C 21.46 34.54 29.15 24.72 39.32 22.40 Z" />
<path fill="#fd5754" opacity="1.00" d=" M 17.22 91.11 C 18.73 90.49 20.40 90.58 22.00 90.51 C 72.00 90.60 122.00 90.42 172.00 90.56 C 178.93 89.84 179.96 101.34 172.99 101.70 C 122.00 101.94 70.99 101.73 20.00 101.74 C 14.02 102.55 11.80 93.34 17.22 91.11 Z" />
<path fill="#fd5754" opacity="1.00" d=" M 25.34 111.40 C 28.51 110.27 32.42 112.73 32.48 116.16 C 32.82 126.77 32.34 137.40 32.68 148.01 C 32.98 154.25 38.75 159.56 45.00 159.32 C 78.66 159.35 112.33 159.33 145.99 159.32 C 152.33 159.66 158.25 154.34 158.53 148.00 C 158.88 137.34 158.35 126.65 158.76 116.00 C 158.92 111.81 164.55 109.58 167.63 112.35 C 170.08 114.09 169.72 117.36 169.78 119.99 C 169.63 129.66 169.92 139.34 169.64 149.01 C 169.00 160.58 158.55 170.45 146.97 170.51 C 112.97 170.59 78.96 170.53 44.95 170.53 C 33.04 170.80 22.18 160.67 21.58 148.79 C 21.31 138.52 21.53 128.23 21.46 117.96 C 21.25 115.24 22.51 112.18 25.34 111.40 Z" />
</g>
</svg>
