<?xml version="1.0" encoding="UTF-8" ?>
<!DOCTYPE svg PUBLIC "-//W3C//DTD SVG 1.1//EN" "http://www.w3.org/Graphics/SVG/1.1/DTD/svg11.dtd">
<svg width="192pt" height="192pt" viewBox="0 0 192 192" version="1.1" xmlns="http://www.w3.org/2000/svg">
<g id="#a61bffff">
<path fill="#a61bff" opacity="1.00" d=" M 21.49 43.93 C 21.64 32.10 32.11 21.64 43.92 21.41 C 53.49 21.38 63.08 21.16 72.63 21.51 C 78.30 22.19 78.59 31.21 73.00 32.33 C 63.35 32.86 53.66 32.29 44.00 32.58 C 37.69 32.86 32.38 38.73 32.57 45.01 C 32.52 78.67 32.56 112.33 32.56 145.98 C 32.10 152.81 38.06 159.16 44.92 158.98 C 78.98 159.00 113.04 159.04 147.10 158.96 C 153.79 158.92 159.51 152.70 159.07 146.02 C 159.11 112.68 159.10 79.34 159.09 46.00 C 159.55 39.97 155.29 33.97 149.29 32.80 C 145.59 32.27 141.83 32.63 138.11 32.51 C 137.53 45.98 138.20 59.49 137.78 72.96 C 137.41 77.15 131.73 79.21 128.70 76.34 C 124.06 72.46 119.63 68.34 115.04 64.40 C 110.24 68.50 105.71 72.93 100.73 76.81 C 97.30 79.22 92.04 76.20 92.27 72.04 C 92.24 56.74 92.08 41.41 92.37 26.11 C 92.83 20.01 102.76 19.90 103.35 26.01 C 103.75 37.10 103.33 48.22 103.55 59.32 C 107.87 56.77 110.93 50.41 116.61 51.47 C 120.49 53.36 123.22 56.91 126.63 59.49 C 126.79 48.32 126.48 37.15 126.77 25.99 C 126.88 22.90 130.07 21.01 132.93 21.34 C 140.97 21.71 149.61 19.99 157.09 23.78 C 165.05 27.60 170.37 36.19 170.22 45.02 C 170.22 79.01 170.24 113.00 170.21 146.99 C 170.40 159.36 159.33 170.34 146.98 170.20 C 112.99 170.28 79.00 170.27 45.02 170.21 C 32.58 170.50 21.33 159.54 21.46 147.07 C 21.45 112.69 21.41 78.31 21.49 43.93 Z" />
</g>
</svg>
