<?xml version="1.0" encoding="UTF-8" ?>
<!DOCTYPE svg PUBLIC "-//W3C//DTD SVG 1.1//EN" "http://www.w3.org/Graphics/SVG/1.1/DTD/svg11.dtd">
<svg width="192pt" height="192pt" viewBox="0 0 192 192" version="1.1" xmlns="http://www.w3.org/2000/svg">
<g id="#c0598dff">
<path fill="#c0598d" opacity="1.00" d=" M 40.28 21.31 C 75.77 19.97 111.42 21.11 146.98 20.72 C 159.56 20.17 171.02 31.37 170.84 43.94 C 170.91 77.98 170.90 112.02 170.86 146.06 C 171.18 158.36 160.36 169.49 148.06 169.53 C 113.69 169.61 79.32 169.58 44.95 169.53 C 32.60 169.53 21.77 158.37 22.04 146.04 C 22.02 112.01 22.00 77.97 22.07 43.94 C 21.97 33.37 29.99 23.54 40.28 21.31 M 42.28 32.36 C 37.24 33.75 33.19 38.60 33.30 43.93 C 33.25 77.97 33.28 112.02 33.29 146.06 C 33.05 152.80 39.29 158.77 46.01 158.32 C 79.67 158.31 113.33 158.31 146.99 158.30 C 153.68 158.70 159.78 152.75 159.64 146.08 C 159.69 112.03 159.72 77.97 159.63 43.92 C 159.69 36.88 152.87 31.26 146.01 31.85 C 111.44 32.19 76.77 31.13 42.28 32.36 Z" />
<path fill="#c0598d" opacity="1.00" d=" M 47.13 74.84 C 45.50 70.95 45.32 63.43 51.00 63.01 C 55.75 62.22 64.17 62.08 63.64 69.00 C 64.44 72.06 60.73 71.26 58.91 71.43 C 58.47 70.04 58.13 68.61 57.66 67.23 C 53.96 66.46 50.14 67.49 51.58 72.07 C 55.30 73.53 59.70 73.60 62.93 76.06 C 65.56 80.38 64.78 89.38 58.02 88.67 C 52.36 90.01 44.51 87.57 46.90 80.26 C 48.42 80.28 49.95 80.29 51.47 80.32 C 51.30 84.57 55.00 84.97 58.36 84.50 C 58.60 82.77 58.71 81.03 58.74 79.28 C 54.98 77.60 50.19 77.82 47.13 74.84 Z" />
<path fill="#c0598d" opacity="1.00" d=" M 67.46 67.36 C 68.74 61.39 76.48 62.75 81.00 63.00 C 86.20 63.19 86.62 69.24 86.31 73.18 C 84.66 73.11 83.01 73.06 81.36 73.00 C 81.00 71.22 80.67 69.43 80.35 67.64 C 77.89 67.71 74.29 66.21 72.71 68.69 C 72.11 73.58 72.52 78.53 72.60 83.45 C 76.75 85.67 82.34 84.21 81.28 78.61 C 82.96 78.58 84.63 78.57 86.30 78.57 C 86.66 82.50 86.07 88.53 80.88 88.58 C 76.46 88.53 69.21 90.29 67.55 84.64 C 66.83 78.94 66.93 73.08 67.46 67.36 Z" />
<path fill="#c0598d" opacity="1.00" d=" M 93.25 63.30 C 97.59 62.59 102.73 61.93 106.63 64.38 C 109.64 68.20 108.15 73.51 108.54 78.00 C 108.52 81.66 109.00 87.32 104.37 88.37 C 98.92 89.18 88.97 90.19 89.37 82.02 C 90.18 76.05 86.54 66.57 93.25 63.30 M 95.47 67.43 C 93.99 71.81 94.68 76.51 94.66 81.04 C 94.31 85.25 99.98 84.82 102.55 83.57 C 103.63 78.36 103.59 72.67 102.35 67.47 C 100.06 67.41 97.76 67.40 95.47 67.43 Z" />
<path fill="#c0598d" opacity="1.00" d=" M 112.29 63.25 C 117.71 63.52 124.23 61.57 128.83 65.18 C 131.12 69.99 131.51 77.46 126.52 80.79 C 127.81 83.24 128.98 85.75 130.04 88.30 C 128.26 88.42 126.48 88.48 124.70 88.48 C 122.91 85.39 122.48 79.71 117.63 80.62 C 117.59 83.23 117.55 85.84 117.43 88.45 C 115.78 88.46 114.13 88.49 112.48 88.54 C 111.91 80.13 112.30 71.68 112.29 63.25 M 117.59 67.57 C 117.56 70.47 117.56 73.37 117.58 76.27 C 119.84 76.05 122.45 76.81 124.42 75.38 C 125.11 73.11 124.69 70.70 124.61 68.37 C 122.35 67.59 119.95 67.54 117.59 67.57 Z" />
<path fill="#c0598d" opacity="1.00" d=" M 133.79 63.16 C 138.94 63.04 144.09 63.03 149.24 63.15 C 149.24 64.66 149.19 66.17 149.11 67.68 C 145.79 67.61 142.47 67.65 139.15 67.64 C 139.13 69.55 139.11 71.46 139.08 73.38 C 141.94 73.42 144.80 73.44 147.66 73.40 C 147.77 74.90 147.86 76.40 147.93 77.91 C 144.99 78.14 142.05 78.21 139.11 78.11 C 139.11 80.02 139.11 81.93 139.09 83.84 C 142.48 83.83 145.88 83.89 149.27 83.96 C 149.39 85.40 149.49 86.84 149.60 88.29 C 144.29 88.68 138.93 88.75 133.63 88.22 C 133.73 79.87 133.46 71.51 133.79 63.16 Z" />
<path fill="#c0598d" opacity="1.00" d=" M 47.85 96.17 C 49.91 96.17 51.97 96.18 54.03 96.19 C 54.54 100.45 54.34 104.74 54.34 109.02 C 57.45 109.15 60.56 109.15 63.67 109.04 C 63.68 104.75 63.49 100.44 63.92 96.17 C 65.96 96.16 68.01 96.17 70.06 96.17 C 70.55 106.68 70.56 117.25 70.07 127.74 C 68.03 127.69 65.99 127.69 63.96 127.73 C 63.43 123.48 63.69 119.19 63.64 114.92 C 60.54 114.70 57.44 114.70 54.34 114.89 C 54.29 118.89 54.59 122.92 54.20 126.91 C 52.83 128.52 49.91 127.35 47.93 127.75 C 47.32 117.25 47.51 106.68 47.85 96.17 Z" />
<path fill="#c0598d" opacity="1.00" d=" M 75.91 96.19 C 82.27 96.07 88.63 96.01 94.98 96.21 C 97.80 104.72 87.11 100.85 82.32 101.87 C 82.37 104.23 82.37 106.59 82.34 108.94 C 85.95 109.03 89.56 109.14 93.17 109.06 C 93.45 110.87 93.56 112.70 93.56 114.52 C 89.82 114.79 86.06 114.70 82.32 114.87 C 82.37 117.24 82.37 119.61 82.34 121.98 C 86.62 122.11 90.89 122.08 95.17 122.17 C 95.08 123.90 96.21 126.23 94.82 127.58 C 88.55 128.00 82.24 127.62 75.96 127.71 C 75.41 117.23 75.52 106.68 75.91 96.19 Z" />
<path fill="#c0598d" opacity="1.00" d=" M 99.31 96.31 C 106.10 96.64 114.57 94.05 120.11 98.95 C 122.62 104.91 123.30 114.00 117.21 118.05 C 118.35 121.34 120.48 124.22 121.17 127.68 C 114.24 130.16 112.59 123.21 110.48 118.35 C 108.97 118.33 107.45 118.30 105.94 118.27 C 105.85 121.41 105.77 124.55 105.68 127.69 C 103.58 127.71 101.48 127.70 99.38 127.66 C 99.04 117.22 99.20 106.76 99.31 96.31 M 105.84 101.74 C 105.79 105.30 105.79 108.87 105.83 112.44 C 108.50 112.44 111.25 112.76 113.87 112.05 C 115.88 109.27 114.87 105.64 114.45 102.52 C 111.65 101.67 108.73 101.63 105.84 101.74 Z" />
<path fill="#c0598d" opacity="1.00" d=" M 130.28 96.32 C 135.58 95.47 141.68 94.80 146.59 97.41 C 150.82 101.73 148.85 108.55 149.34 114.00 C 149.31 118.81 150.10 126.44 143.91 127.71 C 138.61 128.44 132.49 129.21 127.69 126.34 C 123.69 121.56 125.77 114.71 125.23 109.01 C 125.25 104.55 124.67 97.65 130.28 96.32 M 134.37 101.54 C 129.65 104.81 132.68 112.88 131.98 118.05 C 131.19 123.52 138.31 123.31 141.67 121.69 C 143.51 116.22 142.33 110.09 142.42 104.38 C 142.16 100.34 137.13 101.37 134.37 101.54 Z" />
</g>
</svg>
