<?xml version="1.0" encoding="UTF-8" ?>
<!DOCTYPE svg PUBLIC "-//W3C//DTD SVG 1.1//EN" "http://www.w3.org/Graphics/SVG/1.1/DTD/svg11.dtd">
<svg width="192pt" height="192pt" viewBox="0 0 192 192" version="1.1" xmlns="http://www.w3.org/2000/svg">
<g id="#ff3661ff">
<path fill="#ff3661" opacity="1.00" d=" M 20.47 40.94 C 20.65 29.10 31.10 18.65 42.93 18.39 C 77.31 18.30 111.69 18.33 146.07 18.36 C 158.18 18.27 169.07 28.90 169.20 41.02 C 169.20 71.34 169.34 101.67 169.13 131.98 C 168.11 137.69 159.11 137.66 158.20 131.93 C 157.92 101.95 158.23 71.95 158.06 41.97 C 158.23 35.46 152.51 29.50 145.99 29.55 C 111.97 29.53 77.96 29.54 43.94 29.54 C 37.30 29.34 31.34 35.39 31.58 42.02 C 31.58 57.22 31.48 72.42 31.63 87.62 C 36.20 82.83 39.98 77.34 44.37 72.39 C 45.96 70.56 48.70 70.28 50.85 71.21 C 64.55 75.89 77.97 81.35 91.45 86.58 C 96.55 89.23 93.69 98.02 88.02 97.01 C 75.24 92.92 63.04 87.08 50.23 83.08 C 44.80 89.58 39.42 96.15 34.19 102.81 C 42.50 112.11 50.78 121.45 59.17 130.67 C 70.02 126.94 80.52 122.24 91.37 118.50 C 94.63 117.34 98.02 118.70 101.01 120.01 C 121.66 129.38 142.31 138.75 162.95 148.13 C 165.83 149.29 167.33 153.00 165.85 155.77 C 161.66 163.02 153.29 167.43 144.97 167.24 C 110.98 167.23 76.98 167.34 42.99 167.19 C 30.92 166.94 20.35 156.15 20.45 144.07 C 20.44 109.69 20.41 75.31 20.47 40.94 M 31.63 117.21 C 31.51 126.14 31.55 135.06 31.60 143.98 C 31.59 150.46 37.47 156.14 43.93 155.99 C 77.64 155.98 111.34 156.05 145.05 155.96 C 146.54 155.55 149.40 156.48 149.83 154.50 C 131.22 146.36 112.89 137.54 94.24 129.50 C 82.77 133.47 71.67 138.44 60.19 142.35 C 58.05 143.13 55.26 143.25 53.59 141.44 C 46.15 133.49 39.31 124.94 31.63 117.21 Z" />
</g>
</svg>
