<?xml version="1.0" encoding="UTF-8" ?>
<!DOCTYPE svg PUBLIC "-//W3C//DTD SVG 1.1//EN" "http://www.w3.org/Graphics/SVG/1.1/DTD/svg11.dtd">
<svg width="192pt" height="192pt" viewBox="0 0 192 192" version="1.1" xmlns="http://www.w3.org/2000/svg">
<g id="#1ab1ffff">
<path fill="#1ab1ff" opacity="1.00" d=" M 59.30 20.28 C 80.77 9.68 106.80 8.92 128.87 18.21 C 155.88 29.17 176.04 55.07 179.89 83.98 C 184.56 114.46 170.42 146.68 145.05 164.12 C 125.84 177.77 100.75 182.78 77.79 177.42 C 49.88 171.44 25.73 150.12 16.81 122.96 C 15.37 116.90 24.99 113.85 27.33 119.61 C 32.19 132.51 40.34 144.27 51.37 152.65 C 51.41 129.35 51.46 106.04 51.36 82.74 C 40.97 88.51 30.76 94.62 20.31 100.28 C 17.06 102.10 12.39 99.85 12.16 96.04 C 11.49 64.47 30.84 33.80 59.30 20.28 M 69.05 28.36 C 89.26 40.11 109.67 51.52 129.99 63.08 C 130.00 52.43 130.17 41.77 129.91 31.12 C 111.31 21.20 88.51 20.44 69.05 28.36 M 24.11 85.30 C 44.45 73.75 64.71 62.07 84.97 50.39 C 75.67 44.98 66.31 39.68 56.97 34.36 C 39.28 45.47 26.78 64.54 24.11 85.30 M 141.38 38.40 C 141.35 61.70 141.38 84.99 141.36 108.29 C 150.75 103.06 160.06 97.68 169.34 92.27 C 168.38 71.36 157.94 51.21 141.38 38.40 M 62.73 76.12 C 62.61 89.03 62.69 101.95 62.69 114.86 C 73.84 121.37 85.07 127.75 96.26 134.21 C 107.57 127.88 118.77 121.33 129.99 114.85 C 129.97 101.96 130.14 89.06 129.91 76.18 C 118.65 69.80 107.58 63.10 96.20 56.93 C 85.03 63.31 73.94 69.83 62.73 76.12 M 107.85 140.88 C 117.00 146.48 126.40 151.65 135.71 156.97 C 153.45 145.76 165.86 126.55 168.62 105.74 C 148.37 117.45 128.09 129.13 107.85 140.88 M 62.71 127.96 C 62.66 138.60 62.68 149.24 62.70 159.89 C 81.32 169.57 104.15 170.65 123.55 162.61 C 103.22 151.15 83.05 139.41 62.71 127.96 Z" />
</g>
</svg>
