<?xml version="1.0" encoding="UTF-8" ?>
<!DOCTYPE svg PUBLIC "-//W3C//DTD SVG 1.1//EN" "http://www.w3.org/Graphics/SVG/1.1/DTD/svg11.dtd">
<svg width="192pt" height="192pt" viewBox="0 0 192 192" version="1.1" xmlns="http://www.w3.org/2000/svg">
<g id="#c874fcff">
<path fill="#c874fc" opacity="1.00" d=" M 17.10 50.91 C 16.75 47.55 19.50 44.42 22.96 44.78 C 58.32 44.73 93.68 44.67 129.04 44.80 C 136.36 45.11 134.37 54.14 134.61 59.04 C 135.55 63.43 131.93 68.67 127.09 66.87 C 122.54 65.37 123.30 59.86 123.31 56.10 C 91.67 56.10 60.02 56.11 28.38 56.09 C 28.42 74.68 28.41 93.26 28.39 111.84 C 56.60 112.04 84.83 111.58 113.03 112.06 C 119.23 112.44 119.27 122.67 113.04 122.99 C 84.84 123.40 56.61 123.08 28.39 123.14 C 28.41 126.80 28.42 130.47 28.40 134.13 C 60.04 134.15 91.69 134.13 123.33 134.11 C 123.38 116.05 123.29 97.98 123.30 79.92 C 123.09 77.10 124.08 74.00 127.03 73.04 C 139.81 67.41 152.68 61.96 165.54 56.53 C 169.36 54.47 174.17 57.68 173.67 61.99 C 173.69 84.00 173.72 106.02 173.76 128.03 C 174.09 132.31 169.19 135.87 165.31 133.65 C 157.83 129.79 150.18 126.20 142.75 122.24 C 137.77 119.66 140.41 111.14 145.99 111.95 C 151.80 113.46 156.81 117.10 162.30 119.45 C 162.34 103.04 162.35 86.63 162.31 70.22 C 153.18 74.45 143.41 77.55 134.71 82.52 C 134.18 101.66 134.87 120.85 134.51 140.00 C 134.70 143.50 131.30 145.96 128.01 145.53 C 93.00 145.52 57.99 145.57 22.99 145.49 C 19.40 145.87 16.69 142.49 17.07 139.08 C 17.05 109.69 17.02 80.30 17.10 50.91 Z" />
</g>
</svg>
