<?xml version="1.0" encoding="UTF-8" ?>
<!DOCTYPE svg PUBLIC "-//W3C//DTD SVG 1.1//EN" "http://www.w3.org/Graphics/SVG/1.1/DTD/svg11.dtd">
<svg width="192pt" height="192pt" viewBox="0 0 192 192" version="1.1" xmlns="http://www.w3.org/2000/svg">
<g id="#18b9c5ff">
<path fill="#18b9c5" opacity="1.00" d=" M 22.19 40.91 C 22.57 29.09 33.16 18.72 45.02 18.77 C 79.34 18.73 113.66 18.71 147.98 18.76 C 160.20 18.72 171.00 29.74 170.82 41.93 C 170.89 75.97 170.89 110.02 170.85 144.06 C 171.17 156.36 160.36 167.49 148.06 167.52 C 113.38 167.56 78.69 167.64 44.02 167.46 C 29.23 167.00 18.63 150.75 22.84 136.93 C 24.96 132.92 30.27 133.74 32.90 136.73 C 45.39 133.35 57.42 128.50 69.72 124.51 C 64.39 117.75 63.67 107.65 68.45 100.42 C 71.27 96.71 77.90 100.46 75.77 104.81 C 73.20 110.38 74.00 117.91 79.10 121.66 C 84.11 121.04 88.86 118.52 93.95 118.74 C 97.26 119.86 96.40 124.64 93.08 125.03 C 72.96 131.32 53.01 138.12 33.15 145.20 C 34.08 151.01 38.86 156.24 44.98 156.29 C 73.48 156.38 101.98 156.30 130.48 156.30 C 130.49 145.67 130.56 135.04 130.45 124.41 C 127.40 125.05 124.32 126.05 121.17 125.72 C 115.24 124.79 110.82 118.21 112.49 112.37 C 113.14 109.21 116.15 107.52 117.81 104.97 C 118.33 95.31 117.54 85.60 118.19 75.95 C 119.31 67.33 130.27 62.86 137.38 67.62 C 145.22 71.82 144.87 83.30 139.56 89.39 C 144.94 96.36 141.92 105.68 142.70 113.76 C 148.37 112.76 154.02 111.62 159.67 110.51 C 159.65 87.64 159.75 64.78 159.64 41.92 C 159.70 35.31 153.55 29.70 147.04 29.85 C 129.61 29.78 112.18 29.83 94.75 29.82 C 94.71 39.86 94.71 49.91 94.76 59.96 C 98.17 62.91 100.92 67.26 100.00 71.95 C 99.37 75.96 92.67 75.94 92.14 71.88 C 91.83 68.51 87.95 64.42 85.12 68.19 C 83.63 72.57 84.74 77.48 84.42 82.06 C 83.34 87.03 91.27 85.82 91.56 90.35 C 92.12 92.83 89.78 94.27 88.05 95.45 C 82.67 93.71 75.37 90.88 75.72 84.01 C 75.46 74.75 73.58 60.38 86.00 58.43 C 86.24 48.89 86.16 39.35 86.05 29.81 C 72.35 29.87 58.64 29.66 44.95 29.89 C 37.89 30.13 32.36 37.02 33.31 43.96 C 34.16 48.14 30.47 52.76 26.03 51.32 C 21.58 49.94 21.93 44.63 22.19 40.91 M 127.53 75.52 C 126.20 78.97 126.99 82.84 126.85 86.46 C 130.87 86.13 133.88 82.61 134.77 78.88 C 135.50 75.06 129.83 72.16 127.53 75.52 M 126.88 94.09 C 126.85 97.72 126.77 101.35 126.68 104.98 C 131.32 106.92 134.52 111.29 133.35 116.47 C 134.75 110.14 134.19 103.49 133.90 97.06 C 133.54 93.52 129.36 94.32 126.88 94.09 M 120.15 114.95 C 121.21 118.70 124.96 117.42 127.72 116.85 C 126.19 115.26 124.66 113.67 123.04 112.16 C 122.06 113.07 121.10 114.00 120.15 114.95 M 139.17 122.37 C 139.37 133.67 139.24 144.98 139.17 156.28 C 146.55 157.02 156.42 156.52 159.00 148.00 C 160.51 138.18 159.32 128.09 159.62 118.17 C 152.80 119.56 145.96 120.83 139.17 122.37 Z" />
<path fill="#18b9c5" opacity="1.00" d=" M 22.41 58.67 C 27.08 58.36 31.83 58.24 36.49 58.75 C 41.64 59.93 41.75 68.16 36.62 69.43 C 31.66 69.85 26.57 69.99 21.63 69.34 C 16.66 67.68 17.14 59.47 22.41 58.67 Z" />
<path fill="#18b9c5" opacity="1.00" d=" M 97.16 78.25 C 100.45 70.44 113.06 71.91 114.89 80.09 C 115.43 87.37 115.21 94.74 115.01 102.03 C 115.05 105.89 108.72 109.62 106.71 105.27 C 105.58 97.13 106.87 88.82 106.12 80.62 C 103.01 85.17 105.59 91.73 104.71 97.07 C 105.31 103.50 96.60 108.93 91.54 104.49 C 88.95 101.08 92.91 97.86 96.31 98.13 C 97.04 91.53 95.62 84.73 97.16 78.25 Z" />
<path fill="#18b9c5" opacity="1.00" d=" M 22.38 77.57 C 27.07 77.22 31.86 77.08 36.54 77.67 C 41.67 78.91 41.73 87.14 36.57 88.36 C 31.63 88.73 26.58 88.85 21.66 88.28 C 16.69 86.60 17.10 78.44 22.38 77.57 Z" />
<path fill="#18b9c5" opacity="1.00" d=" M 21.27 98.23 C 26.05 97.16 31.11 97.66 35.99 97.87 C 41.45 98.56 42.04 107.20 36.71 108.60 C 31.93 109.10 27.06 108.99 22.27 108.68 C 17.31 107.83 16.61 100.07 21.27 98.23 Z" />
<path fill="#18b9c5" opacity="1.00" d=" M 100.74 111.97 C 101.43 107.68 108.33 107.63 109.23 111.83 C 111.77 123.11 103.31 135.14 91.98 137.01 C 88.55 138.00 82.66 137.52 83.21 132.69 C 88.98 130.54 95.92 128.77 98.89 122.77 C 100.93 119.52 100.49 115.61 100.74 111.97 Z" />
<path fill="#18b9c5" opacity="1.00" d=" M 21.37 117.43 C 26.40 116.58 31.70 116.78 36.78 117.30 C 41.62 118.74 41.65 126.41 36.80 127.87 C 31.97 128.57 26.94 128.45 22.09 127.95 C 17.19 126.85 16.69 119.21 21.37 117.43 Z" />
</g>
</svg>
