<?xml version="1.0" encoding="UTF-8" ?>
<!DOCTYPE svg PUBLIC "-//W3C//DTD SVG 1.1//EN" "http://www.w3.org/Graphics/SVG/1.1/DTD/svg11.dtd">
<svg width="192pt" height="192pt" viewBox="0 0 192 192" version="1.1" xmlns="http://www.w3.org/2000/svg">
<g id="#cd865eff">
<path fill="#cd865e" opacity="1.00" d=" M 42.95 26.95 C 54.99 17.40 70.82 13.51 86.00 14.13 C 98.90 14.14 110.99 19.11 123.11 22.91 C 127.20 24.24 131.45 26.81 132.83 31.12 C 134.45 39.25 131.63 47.94 125.76 53.76 C 107.05 74.90 73.12 80.08 49.13 65.02 C 49.45 84.37 48.85 103.77 49.89 123.10 C 51.68 146.48 73.68 165.80 96.99 165.11 C 118.18 165.13 137.84 148.67 141.90 127.94 C 143.97 117.77 142.34 107.34 142.94 97.09 C 144.18 91.79 152.64 91.91 153.75 97.25 C 154.51 105.80 154.40 114.46 154.03 123.05 C 152.66 145.85 136.05 166.55 114.44 173.58 C 88.04 183.19 56.70 169.27 44.43 144.44 C 40.05 135.65 38.21 125.77 38.11 116.01 C 37.86 98.69 38.06 81.37 37.73 64.05 C 34.32 66.25 28.65 66.62 27.31 61.86 C 26.70 52.59 34.39 43.75 43.30 41.82 C 41.10 40.11 37.58 39.06 37.34 35.82 C 36.80 31.90 40.46 29.34 42.95 26.95 M 53.19 33.22 C 49.71 35.28 47.49 38.99 43.66 40.51 C 53.72 38.33 62.91 47.06 72.69 42.80 C 76.72 41.47 79.10 37.63 82.71 35.69 C 87.40 34.04 91.82 39.94 89.02 44.00 C 82.44 52.47 70.86 57.11 60.31 54.60 C 56.15 53.68 52.31 51.29 47.91 51.62 C 54.02 54.78 59.84 58.69 66.53 60.57 C 85.43 66.27 107.60 59.32 119.62 43.61 C 121.80 40.99 122.03 37.51 121.84 34.25 C 111.94 31.31 102.30 27.22 92.02 25.73 C 78.75 24.11 64.66 26.06 53.19 33.22 Z" />
<path fill="#cd865e" opacity="1.00" d=" M 139.25 29.25 C 142.53 27.98 146.48 30.62 146.63 34.12 C 147.39 45.24 147.09 56.42 147.67 67.56 C 148.06 74.06 153.31 79.06 159.40 80.60 C 165.32 81.96 164.09 91.75 158.01 91.59 C 146.63 90.35 137.32 80.17 136.37 68.85 C 135.71 58.91 136.14 48.92 135.47 38.98 C 135.18 35.44 135.07 30.52 139.25 29.25 Z" />
<path fill="#cd865e" opacity="1.00" d=" M 23.68 93.63 C 25.08 89.05 28.58 83.84 33.83 83.74 C 33.93 93.38 34.33 103.02 34.32 112.67 C 26.31 110.62 21.17 101.53 23.68 93.63 Z" />
<path fill="#cd865e" opacity="1.00" d=" M 157.59 96.95 C 170.89 100.04 171.25 121.14 157.91 124.40 C 157.67 115.25 157.55 106.10 157.59 96.95 Z" />
<path fill="#cd865e" opacity="1.00" d=" M 120.22 101.00 C 123.78 100.08 126.91 104.97 130.34 102.33 C 132.41 100.87 136.17 99.63 136.97 103.08 C 134.45 110.33 123.31 110.49 118.98 104.87 C 118.69 103.44 118.86 101.83 120.22 101.00 Z" />
<path fill="#cd865e" opacity="1.00" d=" M 55.93 101.66 C 58.24 101.75 60.30 102.74 62.34 103.72 C 66.09 105.97 69.92 98.76 73.04 103.18 C 73.38 112.76 52.53 111.67 55.93 101.66 Z" />
<path fill="#cd865e" opacity="1.00" d=" M 93.29 127.36 C 103.20 124.40 113.39 134.92 109.63 144.71 C 106.00 152.73 94.54 153.01 87.56 149.59 C 78.46 144.23 83.48 128.63 93.29 127.36 Z" />
</g>
</svg>
