<?xml version="1.0" encoding="UTF-8" ?>
<!DOCTYPE svg PUBLIC "-//W3C//DTD SVG 1.1//EN" "http://www.w3.org/Graphics/SVG/1.1/DTD/svg11.dtd">
<svg width="192pt" height="192pt" viewBox="0 0 192 192" version="1.1" xmlns="http://www.w3.org/2000/svg">
<g id="#a61affff">
<path fill="#a61aff" opacity="1.00" d=" M 86.77 17.77 C 89.12 16.05 90.81 12.93 93.97 12.72 C 97.87 12.39 99.92 16.28 102.71 18.28 C 117.03 29.82 136.40 32.85 154.29 31.28 C 157.67 30.58 161.12 33.50 160.78 36.98 C 160.81 61.66 160.83 86.35 160.78 111.04 C 160.63 123.96 153.70 135.82 144.66 144.66 C 131.48 157.56 114.83 166.32 97.72 172.79 C 92.99 174.88 88.39 171.41 84.00 169.97 C 63.75 161.12 42.92 148.92 32.48 128.60 C 27.18 118.58 27.86 106.97 28.20 96.03 C 28.73 90.63 37.27 90.03 38.66 95.24 C 39.99 104.22 37.47 113.85 41.63 122.37 C 50.41 141.21 69.94 151.75 88.13 159.82 C 90.87 160.67 93.71 163.11 96.62 161.50 C 111.27 155.64 125.64 148.15 136.99 136.99 C 144.19 129.88 149.86 120.41 149.85 110.02 C 149.83 87.53 149.98 65.03 149.77 42.54 C 130.04 43.51 109.78 38.23 94.19 25.84 C 79.08 38.66 58.59 43.22 39.16 42.52 C 38.76 52.60 39.57 62.74 38.74 72.78 C 37.62 78.40 28.45 77.69 28.16 71.98 C 27.94 60.30 28.09 48.60 28.09 36.91 C 27.79 33.40 31.31 30.56 34.69 31.32 C 52.80 32.96 72.48 29.74 86.77 17.77 Z" />
<path fill="#a61aff" opacity="1.00" d=" M 119.02 71.07 C 124.03 67.10 130.90 74.88 126.39 79.36 C 114.15 91.79 101.69 104.02 89.34 116.35 C 87.12 119.05 82.70 119.34 80.42 116.56 C 75.32 111.35 69.89 106.42 65.03 100.98 C 61.88 96.67 67.28 90.49 71.99 92.89 C 76.77 96.27 80.39 101.06 84.76 104.95 C 96.22 93.70 107.40 82.15 119.02 71.07 Z" />
</g>
</svg>
