<?xml version="1.0" encoding="UTF-8" ?>
<!DOCTYPE svg PUBLIC "-//W3C//DTD SVG 1.1//EN" "http://www.w3.org/Graphics/SVG/1.1/DTD/svg11.dtd">
<svg width="192pt" height="192pt" viewBox="0 0 192 192" version="1.1" xmlns="http://www.w3.org/2000/svg">
<g id="#18b7c5ff">
<path fill="#18b7c5" opacity="1.00" d=" M 86.78 17.77 C 89.12 16.05 90.81 12.95 93.97 12.72 C 97.87 12.40 99.93 16.28 102.71 18.28 C 117.04 29.82 136.41 32.85 154.30 31.28 C 157.67 30.58 161.13 33.50 160.79 36.97 C 160.82 61.66 160.84 86.36 160.80 111.05 C 160.65 123.98 153.71 135.82 144.68 144.68 C 131.49 157.57 114.84 166.35 97.71 172.81 C 92.97 174.89 88.38 171.42 83.99 169.99 C 63.75 161.14 42.93 148.93 32.48 128.61 C 27.18 118.60 27.87 106.99 28.20 96.04 C 28.71 90.64 37.28 90.03 38.65 95.24 C 39.96 104.93 37.35 115.46 42.56 124.39 C 52.56 142.89 72.37 153.12 91.00 161.01 C 95.26 163.68 99.55 159.88 103.60 158.58 C 120.19 150.90 137.47 141.02 146.34 124.32 C 150.94 115.94 149.73 106.17 149.86 97.00 C 149.80 78.85 149.99 60.71 149.76 42.56 C 130.03 43.52 109.79 38.24 94.20 25.86 C 79.08 38.67 58.59 43.21 39.16 42.54 C 39.01 51.37 39.12 60.20 39.10 69.03 C 39.08 71.43 38.96 74.31 36.70 75.77 C 33.27 78.40 27.69 75.45 28.10 71.06 C 28.05 59.68 28.05 48.29 28.10 36.90 C 27.80 33.41 31.30 30.58 34.66 31.32 C 52.79 32.96 72.48 29.76 86.78 17.77 Z" />
<path fill="#18b7c5" opacity="1.00" d=" M 119.02 71.07 C 124.03 67.10 130.90 74.88 126.41 79.36 C 114.16 91.79 101.70 104.03 89.35 116.36 C 87.13 119.08 82.70 119.35 80.42 116.56 C 75.31 111.35 69.88 106.43 65.03 100.99 C 61.88 96.68 67.28 90.49 71.99 92.89 C 76.76 96.27 80.40 101.03 84.74 104.95 C 96.23 93.73 107.39 82.14 119.02 71.07 Z" />
</g>
</svg>
