<?xml version="1.0" encoding="UTF-8" ?>
<!DOCTYPE svg PUBLIC "-//W3C//DTD SVG 1.1//EN" "http://www.w3.org/Graphics/SVG/1.1/DTD/svg11.dtd">
<svg width="192pt" height="192pt" viewBox="0 0 192 192" version="1.1" xmlns="http://www.w3.org/2000/svg">
<g id="#ff8b1fff">
<path fill="#ff8b1f" opacity="1.00" d=" M 86.77 17.77 C 89.31 15.86 91.31 12.22 94.97 12.74 C 98.35 13.12 100.14 16.45 102.72 18.28 C 117.06 29.84 136.47 32.85 154.39 31.28 C 157.73 30.62 161.12 33.54 160.78 36.98 C 160.81 61.68 160.83 86.38 160.78 111.07 C 160.62 123.98 153.69 135.83 144.66 144.66 C 131.47 157.57 114.81 166.34 97.67 172.81 C 92.95 174.87 88.37 171.40 84.00 169.97 C 63.74 161.12 42.91 148.91 32.46 128.58 C 27.20 118.58 27.85 106.99 28.19 96.06 C 28.69 90.65 37.30 90.01 38.66 95.25 C 39.89 105.18 37.35 116.00 42.91 125.07 C 53.75 144.15 74.66 154.36 94.23 162.31 C 109.17 156.81 123.70 149.32 135.48 138.45 C 143.40 131.14 149.84 121.17 149.85 110.06 C 149.84 87.56 149.94 65.07 149.79 42.57 C 130.08 43.45 109.78 38.32 94.24 25.83 C 79.09 38.67 58.59 43.19 39.12 42.57 C 38.92 52.36 39.35 62.17 38.90 71.95 C 38.67 77.76 29.45 78.38 28.28 72.75 C 27.77 60.82 28.17 48.83 28.08 36.88 C 27.80 33.42 31.26 30.58 34.61 31.30 C 52.74 32.96 72.46 29.76 86.77 17.77 Z" />
<path fill="#ff8b1f" opacity="1.00" d=" M 119.02 71.07 C 124.01 67.12 130.89 74.84 126.42 79.33 C 114.18 91.78 101.70 104.01 89.35 116.35 C 87.13 119.06 82.69 119.35 80.41 116.55 C 75.31 111.35 69.88 106.42 65.03 100.99 C 61.88 96.68 67.28 90.49 71.99 92.88 C 76.75 96.28 80.41 101.01 84.71 104.96 C 96.23 93.75 107.38 82.14 119.02 71.07 Z" />
</g>
</svg>
