<?xml version="1.0" encoding="UTF-8" ?>
<!DOCTYPE svg PUBLIC "-//W3C//DTD SVG 1.1//EN" "http://www.w3.org/Graphics/SVG/1.1/DTD/svg11.dtd">
<svg width="192pt" height="192pt" viewBox="0 0 192 192" version="1.1" xmlns="http://www.w3.org/2000/svg">
<g id="#ff527dff">
<path fill="#ff527d" opacity="1.00" d=" M 86.77 17.77 C 89.11 16.05 90.81 12.93 93.97 12.72 C 97.87 12.39 99.93 16.28 102.71 18.28 C 117.04 29.83 136.43 32.85 154.32 31.28 C 157.68 30.59 161.12 33.51 160.78 36.97 C 160.81 61.66 160.83 86.36 160.78 111.05 C 160.63 123.97 153.69 135.82 144.66 144.66 C 131.48 157.56 114.83 166.33 97.70 172.80 C 92.98 174.87 88.39 171.41 84.00 169.98 C 63.75 161.13 42.92 148.92 32.47 128.60 C 27.20 118.58 27.85 106.99 28.19 96.05 C 28.71 90.65 37.29 90.02 38.66 95.24 C 39.96 104.70 37.38 114.92 42.24 123.73 C 51.19 141.28 69.43 151.38 86.71 159.22 C 89.93 160.13 93.18 163.17 96.60 161.50 C 111.26 155.65 125.64 148.15 136.99 136.99 C 144.19 129.88 149.86 120.41 149.85 110.03 C 149.83 87.54 149.96 65.05 149.77 42.56 C 130.05 43.49 109.79 38.27 94.21 25.84 C 79.08 38.66 58.59 43.20 39.14 42.54 C 38.79 52.61 39.56 62.74 38.74 72.77 C 37.64 78.41 28.43 77.70 28.16 71.97 C 27.94 60.29 28.09 48.59 28.09 36.90 C 27.79 33.41 31.29 30.57 34.66 31.31 C 52.78 32.96 72.47 29.75 86.77 17.77 Z" />
<path fill="#ff527d" opacity="1.00" d=" M 119.02 71.07 C 124.02 67.11 130.89 74.86 126.41 79.35 C 114.16 91.79 101.69 104.01 89.34 116.35 C 87.12 119.06 82.70 119.34 80.42 116.56 C 75.31 111.35 69.89 106.42 65.03 100.98 C 61.87 96.67 67.28 90.49 71.99 92.89 C 76.76 96.27 80.40 101.04 84.74 104.96 C 96.22 93.72 107.39 82.14 119.02 71.07 Z" />
</g>
</svg>
