<?xml version="1.0" encoding="UTF-8" ?>
<!DOCTYPE svg PUBLIC "-//W3C//DTD SVG 1.1//EN" "http://www.w3.org/Graphics/SVG/1.1/DTD/svg11.dtd">
<svg width="192pt" height="192pt" viewBox="0 0 192 192" version="1.1" xmlns="http://www.w3.org/2000/svg">
<g id="#4a70c3ff">
<path fill="#4a70c3" opacity="1.00" d=" M 86.79 17.79 C 89.15 16.09 90.78 12.90 93.97 12.74 C 97.90 12.35 99.89 16.32 102.70 18.29 C 117.26 29.99 136.94 32.92 155.08 31.23 C 158.20 30.91 161.10 33.85 160.81 36.97 C 160.82 61.65 160.86 86.33 160.82 111.02 C 160.69 124.22 153.47 136.24 144.21 145.20 C 130.84 157.98 114.15 166.77 96.91 173.12 C 93.44 174.51 90.06 172.24 86.85 171.18 C 65.35 162.20 42.96 149.58 32.16 127.94 C 27.14 118.07 27.98 106.75 28.20 96.04 C 28.74 90.67 37.27 90.07 38.65 95.25 C 40.06 104.22 37.46 113.86 41.63 122.38 C 50.71 141.68 70.89 152.33 89.61 160.41 C 91.65 160.96 93.69 162.86 95.85 161.77 C 110.79 155.91 125.42 148.30 136.98 136.98 C 144.44 129.64 150.16 119.74 149.86 109.00 C 149.75 86.86 150.07 64.71 149.69 42.57 C 130.82 43.29 110.99 38.98 96.03 26.93 C 95.14 25.98 93.78 25.82 92.91 26.89 C 77.95 38.94 58.10 43.19 39.23 42.52 C 38.70 52.59 39.68 62.75 38.72 72.78 C 37.67 78.42 28.45 77.67 28.17 71.98 C 28.01 60.29 28.14 48.60 28.12 36.91 C 27.80 33.45 31.33 30.57 34.67 31.34 C 52.80 32.98 72.47 29.76 86.79 17.79 Z" />
<path fill="#4a70c3" opacity="1.00" d=" M 119.01 71.05 C 123.74 67.40 130.39 74.02 126.93 78.79 C 114.58 91.48 101.88 103.83 89.37 116.37 C 87.34 118.85 83.23 119.46 80.92 117.03 C 75.59 111.72 70.08 106.55 65.01 100.99 C 61.92 96.66 67.27 90.51 71.98 92.89 C 76.78 96.23 80.33 101.10 84.77 104.89 C 96.26 93.70 107.42 82.14 119.01 71.05 Z" />
</g>
</svg>
