<?xml version="1.0" encoding="UTF-8" ?>
<!DOCTYPE svg PUBLIC "-//W3C//DTD SVG 1.1//EN" "http://www.w3.org/Graphics/SVG/1.1/DTD/svg11.dtd">
<svg width="192pt" height="192pt" viewBox="0 0 192 192" version="1.1" xmlns="http://www.w3.org/2000/svg">
<g id="#ed33b2ff">
<path fill="#ed33b2" opacity="1.00" d=" M 90.45 14.42 C 92.52 12.08 96.45 12.22 98.52 14.49 C 112.83 29.06 134.63 33.07 154.29 31.27 C 157.65 30.59 161.13 33.48 160.79 36.97 C 160.85 61.31 160.83 85.66 160.85 110.00 C 160.98 122.81 154.48 134.74 145.68 143.68 C 133.32 156.21 117.60 164.87 101.39 171.41 C 98.20 172.64 94.68 174.51 91.28 172.85 C 74.33 166.52 57.88 157.87 44.78 145.21 C 35.53 136.25 28.32 124.21 28.13 111.03 C 28.19 105.78 27.76 100.48 28.38 95.27 C 29.72 90.08 38.32 90.65 38.78 96.05 C 39.36 106.25 37.69 117.32 43.61 126.38 C 54.12 143.62 72.97 153.41 91.01 161.00 C 92.78 161.81 94.77 162.59 96.62 161.48 C 111.27 155.63 125.63 148.12 136.97 136.98 C 144.17 129.86 149.83 120.41 149.84 110.02 C 149.82 87.53 149.97 65.04 149.77 42.55 C 130.02 43.52 109.79 38.20 94.18 25.83 C 79.07 38.63 58.59 43.20 39.17 42.48 C 38.40 52.56 39.33 62.69 38.70 72.77 C 37.62 78.36 28.46 77.66 28.21 71.98 C 28.00 60.30 28.15 48.59 28.15 36.91 C 27.82 33.43 31.32 30.62 34.66 31.36 C 54.36 33.18 76.15 29.05 90.45 14.42 Z" />
<path fill="#ed33b2" opacity="1.00" d=" M 119.02 71.07 C 124.03 67.09 130.91 74.88 126.40 79.36 C 114.16 91.79 101.69 104.02 89.35 116.35 C 87.13 119.06 82.71 119.34 80.43 116.56 C 75.32 111.35 69.89 106.42 65.04 100.98 C 61.90 96.67 67.28 90.51 71.98 92.89 C 76.77 96.27 80.39 101.06 84.76 104.96 C 96.22 93.70 107.40 82.14 119.02 71.07 Z" />
</g>
</svg>
