<?xml version="1.0" encoding="UTF-8" ?>
<!DOCTYPE svg PUBLIC "-//W3C//DTD SVG 1.1//EN" "http://www.w3.org/Graphics/SVG/1.1/DTD/svg11.dtd">
<svg width="192pt" height="192pt" viewBox="0 0 192 192" version="1.1" xmlns="http://www.w3.org/2000/svg">
<g id="#19b0ffff">
<path fill="#19b0ff" opacity="1.00" d=" M 38.29 19.33 C 69.12 17.97 100.11 19.12 131.00 18.73 C 139.24 19.18 148.09 17.27 155.75 21.16 C 163.86 25.09 169.19 33.94 168.85 42.96 C 168.85 76.66 168.91 110.37 168.85 144.07 C 169.13 156.35 158.35 167.47 146.05 167.51 C 111.69 167.59 77.32 167.56 42.95 167.50 C 30.62 167.50 19.79 156.37 20.07 144.06 C 20.05 110.01 20.05 75.97 20.10 41.93 C 19.99 31.37 28.02 21.56 38.29 19.33 M 40.27 30.32 C 35.18 31.68 31.16 36.58 31.27 41.92 C 31.23 75.97 31.25 110.02 31.27 144.06 C 31.03 150.80 37.25 156.73 43.95 156.33 C 77.61 156.32 111.28 156.31 144.94 156.30 C 151.64 156.68 157.79 150.79 157.64 144.07 C 157.70 110.02 157.72 75.97 157.64 41.93 C 157.72 34.87 150.89 29.23 144.02 29.81 C 109.45 30.18 74.77 29.08 40.27 30.32 Z" />
<path fill="#19b0ff" opacity="1.00" d=" M 41.38 46.54 C 57.22 45.84 73.16 46.35 89.03 46.26 C 93.42 45.90 96.48 51.37 93.97 54.95 C 92.08 58.06 88.10 57.50 85.01 57.56 C 70.67 57.36 56.32 57.80 42.01 57.34 C 36.46 56.69 35.98 47.85 41.38 46.54 Z" />
<path fill="#19b0ff" opacity="1.00" d=" M 91.37 74.30 C 109.36 72.55 127.85 73.96 146.02 73.56 C 152.68 72.67 154.38 83.47 147.86 84.59 C 129.92 85.01 111.93 84.71 93.98 84.71 C 88.51 85.03 86.52 76.68 91.37 74.30 Z" />
<path fill="#19b0ff" opacity="1.00" d=" M 41.42 100.49 C 57.72 98.81 74.53 100.08 91.02 99.83 C 97.53 99.98 97.58 110.72 91.05 110.90 C 75.38 111.28 59.64 111.21 43.97 110.94 C 38.58 110.97 36.69 102.95 41.42 100.49 Z" />
<path fill="#19b0ff" opacity="1.00" d=" M 91.41 129.43 C 109.07 127.78 127.19 129.20 145.02 128.71 C 149.40 127.82 153.69 132.46 151.63 136.67 C 150.30 140.14 146.12 140.20 143.01 140.14 C 126.66 139.97 110.30 140.33 93.96 139.98 C 88.48 140.05 86.52 131.87 91.41 129.43 Z" />
</g>
</svg>
