<?xml version="1.0" encoding="UTF-8" ?>
<!DOCTYPE svg PUBLIC "-//W3C//DTD SVG 1.1//EN" "http://www.w3.org/Graphics/SVG/1.1/DTD/svg11.dtd">
<svg width="192pt" height="192pt" viewBox="0 0 192 192" version="1.1" xmlns="http://www.w3.org/2000/svg">
<g id="#ff3662ff">
<path fill="#ff3662" opacity="1.00" d=" M 36.35 39.26 C 60.78 12.81 103.12 5.87 134.59 23.45 C 168.02 40.80 185.98 83.16 174.06 119.06 C 171.28 124.49 162.01 120.99 163.80 115.02 C 168.69 96.98 166.60 77.03 157.16 60.80 C 145.05 39.19 120.89 24.68 96.00 25.10 C 75.10 24.63 54.64 34.71 41.37 50.71 C 47.47 51.23 53.69 50.25 59.71 51.35 C 64.94 53.23 63.70 61.91 58.07 62.07 C 49.03 62.34 39.97 62.20 30.93 62.14 C 27.65 62.33 24.84 59.34 25.15 56.09 C 25.15 47.08 25.00 38.05 25.22 29.04 C 25.39 23.99 32.87 22.26 35.38 26.58 C 37.26 30.48 36.05 35.07 36.35 39.26 Z" />
<path fill="#ff3662" opacity="1.00" d=" M 17.50 72.44 C 20.20 66.17 30.38 70.58 27.76 76.90 C 18.67 108.14 34.51 143.99 63.62 158.41 C 92.11 173.81 130.44 165.73 150.40 140.27 C 144.31 139.98 138.12 140.81 132.09 139.85 C 126.93 138.23 127.56 129.70 133.01 129.11 C 142.01 128.75 151.04 129.05 160.06 128.96 C 163.51 128.51 166.80 131.48 166.46 135.00 C 166.48 144.01 166.60 153.03 166.40 162.03 C 166.19 166.64 159.73 168.84 156.77 165.26 C 153.91 161.59 155.72 156.47 155.16 152.19 C 137.15 171.10 109.95 180.70 84.08 176.69 C 55.40 172.87 29.90 152.37 19.60 125.39 C 13.13 108.64 12.14 89.60 17.50 72.44 Z" />
</g>
</svg>
