<?xml version="1.0" encoding="UTF-8" ?>
<!DOCTYPE svg PUBLIC "-//W3C//DTD SVG 1.1//EN" "http://www.w3.org/Graphics/SVG/1.1/DTD/svg11.dtd">
<svg width="192pt" height="192pt" viewBox="0 0 192 192" version="1.1" xmlns="http://www.w3.org/2000/svg">
<g id="#f45a53ff">
<path fill="#f45a53" opacity="1.00" d=" M 101.48 11.65 C 114.70 10.17 128.33 14.96 138.09 23.91 C 141.07 26.51 139.70 31.95 135.92 32.96 C 132.85 34.17 130.34 31.53 128.10 29.87 C 114.89 19.20 93.91 19.97 81.48 31.50 C 69.40 42.92 68.01 63.99 80.03 75.99 C 93.99 90.06 115.41 94.25 128.27 109.77 C 138.15 122.54 135.11 143.65 120.78 151.86 C 107.91 159.77 90.51 156.16 79.79 146.23 C 75.86 141.90 82.05 134.85 86.81 138.14 C 94.41 143.64 105.05 147.78 113.95 142.86 C 124.11 137.32 125.90 121.49 117.11 113.89 C 103.14 101.24 83.35 96.66 70.70 82.30 C 60.21 70.15 57.61 51.89 64.23 37.28 C 70.67 22.68 85.68 12.80 101.48 11.65 Z" />
<path fill="#f45a53" opacity="1.00" d=" M 42.31 15.35 C 47.83 12.37 55.06 17.94 53.88 24.01 C 53.29 29.69 46.01 33.06 41.32 29.74 C 35.83 26.64 36.51 17.72 42.31 15.35 Z" />
<path fill="#f45a53" opacity="1.00" d=" M 102.45 29.59 C 108.69 28.85 115.40 29.82 120.77 33.22 C 124.79 36.12 122.72 43.22 117.77 43.50 C 112.78 43.10 108.31 39.11 103.03 40.62 C 91.93 41.54 85.07 56.17 93.79 64.20 C 108.44 75.86 127.41 81.62 140.17 95.85 C 154.02 109.51 155.35 132.15 147.08 149.05 C 139.79 164.14 123.40 173.28 107.00 174.20 C 93.51 174.55 80.09 169.81 69.53 161.47 C 67.13 159.46 63.60 157.58 63.65 154.00 C 63.43 149.69 69.03 146.78 72.38 149.54 C 78.63 154.32 85.28 158.81 92.86 161.18 C 104.42 164.89 117.92 163.11 127.53 155.48 C 142.47 144.07 145.81 119.92 133.70 105.31 C 120.79 89.21 98.85 84.80 84.61 70.41 C 77.69 62.84 76.84 50.84 82.16 42.17 C 86.32 34.93 94.38 30.73 102.45 29.59 Z" />
</g>
</svg>
