<?xml version="1.0" encoding="UTF-8" ?>
<!DOCTYPE svg PUBLIC "-//W3C//DTD SVG 1.1//EN" "http://www.w3.org/Graphics/SVG/1.1/DTD/svg11.dtd">
<svg width="192pt" height="192pt" viewBox="0 0 192 192" version="1.1" xmlns="http://www.w3.org/2000/svg">
<g id="#3392c8ff">
<path fill="#3392c8" opacity="1.00" d=" M 20.19 43.92 C 20.58 31.71 31.87 21.39 44.02 21.74 C 78.34 21.74 112.67 21.67 146.99 21.76 C 158.52 21.78 169.08 31.41 169.99 42.93 C 170.30 49.26 170.39 55.64 169.99 61.96 C 169.34 67.48 160.70 68.06 159.16 62.77 C 158.20 56.34 159.31 49.77 158.61 43.31 C 157.80 37.81 152.69 33.10 147.06 33.14 C 112.69 33.10 78.32 33.15 43.95 33.12 C 37.44 32.64 31.42 38.46 31.44 44.93 C 31.34 65.15 31.45 85.37 31.40 105.59 C 36.44 105.65 41.48 105.68 46.52 105.63 C 54.98 92.49 63.52 79.39 71.92 66.20 C 67.91 66.56 63.88 68.00 59.86 67.27 C 55.03 65.89 54.80 58.23 59.65 56.74 C 67.68 55.17 75.87 54.34 83.98 53.19 C 87.11 52.51 90.34 54.93 90.62 58.10 C 91.74 66.04 93.13 73.98 93.84 81.97 C 94.28 87.26 86.52 89.63 83.70 85.25 C 81.83 81.43 82.04 76.96 81.19 72.85 C 72.22 86.66 63.37 100.56 54.35 114.34 C 52.44 117.59 48.20 117.03 44.99 117.16 C 38.99 116.96 32.97 117.46 26.99 116.88 C 23.12 116.58 19.92 112.97 20.13 109.08 C 20.13 87.36 20.03 65.64 20.19 43.92 Z" />
<path fill="#3392c8" opacity="1.00" d=" M 136.06 77.98 C 137.73 75.24 141.24 75.60 144.00 75.57 C 150.34 75.70 156.68 75.43 163.02 75.67 C 167.23 75.79 170.46 79.83 170.14 83.94 C 170.16 105.31 170.23 126.69 170.11 148.06 C 169.92 160.12 159.16 170.80 147.06 170.75 C 112.69 170.84 78.31 170.75 43.94 170.72 C 31.98 171.12 20.86 161.00 20.28 149.02 C 20.19 142.78 19.98 136.51 20.38 130.28 C 21.33 124.91 29.89 124.79 31.09 130.09 C 31.92 136.56 30.88 143.13 31.60 149.61 C 32.63 155.34 38.12 159.75 43.93 159.58 C 77.97 159.62 112.02 159.60 146.06 159.55 C 152.83 159.85 159.04 153.88 158.80 147.07 C 158.78 126.99 158.91 106.91 158.72 86.83 C 153.69 87.17 148.30 86.05 143.49 87.38 C 134.96 100.12 126.80 113.13 118.46 126.00 C 122.52 125.99 126.67 124.49 130.67 125.38 C 135.59 127.09 135.07 135.10 129.88 135.97 C 121.94 137.31 113.92 138.29 105.94 139.36 C 102.53 140.00 99.58 136.97 99.47 133.69 C 98.49 125.78 96.97 117.92 96.38 109.99 C 96.53 104.94 104.02 103.20 106.57 107.45 C 108.32 111.13 108.07 115.41 108.90 119.35 C 118.46 105.92 126.83 91.65 136.06 77.98 Z" />
</g>
</svg>
