<?xml version="1.0" encoding="UTF-8" ?>
<!DOCTYPE svg PUBLIC "-//W3C//DTD SVG 1.1//EN" "http://www.w3.org/Graphics/SVG/1.1/DTD/svg11.dtd">
<svg width="192pt" height="192pt" viewBox="0 0 192 192" version="1.1" xmlns="http://www.w3.org/2000/svg">
<g id="#ff595eff">
<path fill="#ff595e" opacity="1.00" d=" M 149.02 14.50 C 156.73 19.28 162.29 27.03 168.97 33.18 C 127.95 33.52 86.93 33.17 45.91 33.35 C 39.80 33.39 34.44 38.91 34.37 44.98 C 34.11 76.66 34.60 108.36 34.14 140.02 C 33.40 146.58 22.83 146.55 22.25 139.95 C 21.94 108.64 22.22 77.30 22.12 45.98 C 21.74 35.96 28.35 26.29 37.68 22.74 C 42.84 20.58 48.54 21.09 54.00 21.05 C 85.60 21.04 117.20 21.06 148.80 21.03 C 148.88 18.85 148.95 16.68 149.02 14.50 Z" />
<path fill="#ff595e" opacity="1.00" d=" M 156.75 51.01 C 157.57 44.02 168.92 44.98 168.72 51.96 C 168.89 83.32 168.79 114.70 168.77 146.06 C 168.90 158.73 157.67 169.94 145.05 170.06 C 110.76 170.19 76.46 170.14 42.16 170.08 C 42.19 172.46 42.17 174.90 41.14 177.10 C 34.61 170.81 28.21 164.41 21.89 157.91 C 62.62 157.79 103.35 157.92 144.07 157.85 C 150.53 158.10 156.54 152.51 156.52 146.00 C 156.75 114.34 156.29 82.66 156.75 51.01 Z" />
<path fill="#ff595e" opacity="1.00" d=" M 63.21 83.23 C 66.99 81.34 71.65 84.82 71.16 88.97 C 70.96 94.09 72.05 99.54 70.37 104.44 C 67.68 109.57 59.09 106.82 59.90 101.04 C 60.74 95.31 57.29 86.88 63.21 83.23 Z" />
<path fill="#ff595e" opacity="1.00" d=" M 123.20 83.18 C 126.52 81.61 130.95 84.21 130.98 87.94 C 131.18 92.65 131.20 97.37 130.98 102.07 C 130.95 106.38 125.14 108.86 121.95 105.98 C 118.66 103.35 120.03 98.64 119.72 95.00 C 119.95 90.99 118.55 85.19 123.20 83.18 Z" />
</g>
</svg>
