<?xml version="1.0" encoding="UTF-8" ?>
<!DOCTYPE svg PUBLIC "-//W3C//DTD SVG 1.1//EN" "http://www.w3.org/Graphics/SVG/1.1/DTD/svg11.dtd">
<svg width="192pt" height="192pt" viewBox="0 0 192 192" version="1.1" xmlns="http://www.w3.org/2000/svg">
<g id="#3798e0ff">
<path fill="#3798e0" opacity="1.00" d=" M 64.45 47.39 C 69.23 30.14 86.35 18.10 103.91 17.28 C 113.59 17.08 123.31 16.40 132.97 17.16 C 133.88 45.07 133.16 73.09 133.33 101.04 C 133.47 107.49 123.01 108.33 122.12 101.97 C 121.79 77.39 122.30 52.77 121.96 28.17 C 116.09 28.20 110.22 28.17 104.36 28.44 C 93.29 29.02 82.50 35.42 77.28 45.28 C 70.83 58.96 72.86 77.13 84.61 87.38 C 91.55 93.77 101.25 95.41 110.35 95.70 C 115.86 96.19 116.84 104.69 111.59 106.42 C 96.14 107.99 79.47 101.56 70.64 88.41 C 61.96 76.79 60.82 61.06 64.45 47.39 Z" />
<path fill="#3798e0" opacity="1.00" d=" M 58.21 84.17 C 60.08 81.04 61.96 85.63 62.64 87.37 C 67.38 99.18 78.47 107.37 90.66 110.23 C 103.10 113.94 116.22 112.29 128.98 113.01 C 131.06 113.26 132.83 115.04 133.34 117.04 C 135.29 134.10 130.13 153.23 115.59 163.60 C 105.32 171.66 91.76 173.85 79.04 173.24 C 73.78 171.81 73.83 163.45 79.25 162.31 C 85.49 161.61 91.95 161.99 98.01 159.97 C 113.44 155.72 122.99 139.80 122.17 124.24 C 104.12 124.67 84.82 123.61 69.42 113.06 C 69.41 131.71 69.62 150.37 69.24 169.01 C 68.34 175.40 57.90 174.52 58.04 168.07 C 58.07 140.11 57.73 112.11 58.21 84.17 Z" />
</g>
</svg>
