<?xml version="1.0" encoding="UTF-8" ?>
<!DOCTYPE svg PUBLIC "-//W3C//DTD SVG 1.1//EN" "http://www.w3.org/Graphics/SVG/1.1/DTD/svg11.dtd">
<svg width="192pt" height="192pt" viewBox="0 0 192 192" version="1.1" xmlns="http://www.w3.org/2000/svg">
<g id="#a2798fff">
<path fill="#a2798f" opacity="1.00" d=" M 22.15 42.91 C 22.43 28.49 37.30 18.38 51.00 20.73 C 83.32 20.78 115.65 20.68 147.97 20.76 C 160.19 20.72 171.00 31.75 170.82 43.95 C 170.89 77.98 170.89 112.02 170.85 146.05 C 170.96 154.72 165.78 163.15 158.01 166.98 C 152.51 169.96 146.04 169.78 139.99 169.47 C 136.69 169.47 134.89 165.99 135.25 163.05 C 135.36 125.07 135.10 87.09 135.40 49.12 C 135.54 42.46 146.37 42.51 146.48 49.15 C 146.77 85.58 146.49 122.03 146.64 158.47 C 153.42 158.67 159.82 153.02 159.64 146.08 C 159.69 112.03 159.72 77.97 159.63 43.92 C 159.70 37.15 153.36 31.65 146.77 31.77 C 113.26 31.89 79.74 31.78 46.22 31.81 C 39.59 31.54 33.11 37.11 33.30 43.93 C 33.25 77.97 33.28 112.02 33.29 146.07 C 33.02 152.79 38.98 158.08 45.40 158.63 C 45.79 144.44 45.19 130.21 45.69 116.02 C 46.26 109.92 56.11 110.11 56.60 116.12 C 56.87 132.37 56.80 148.66 56.65 164.91 C 56.21 170.69 49.12 169.64 45.03 169.54 C 32.65 169.57 21.77 158.39 22.07 146.03 C 22.07 111.66 21.99 77.28 22.15 42.91 Z" />
<path fill="#a2798f" opacity="1.00" d=" M 116.21 64.24 C 119.89 62.59 124.27 65.96 123.84 69.92 C 123.77 101.29 124.44 132.69 123.94 164.06 C 124.12 171.15 112.43 171.15 112.70 164.02 C 112.48 133.02 112.71 102.00 112.63 71.00 C 112.43 68.30 113.44 65.22 116.21 64.24 Z" />
<path fill="#a2798f" opacity="1.00" d=" M 93.39 78.48 C 97.12 76.21 102.19 79.75 101.62 84.01 C 101.57 110.99 101.92 137.99 101.55 164.96 C 100.87 171.55 89.98 170.62 90.41 163.97 C 90.26 137.65 90.46 111.33 90.40 85.01 C 90.24 82.50 90.99 79.70 93.39 78.48 Z" />
<path fill="#a2798f" opacity="1.00" d=" M 70.42 96.45 C 74.23 93.73 79.59 97.50 79.02 101.95 C 79.06 122.95 79.35 143.99 78.87 164.98 C 78.11 171.43 67.57 170.54 67.82 164.05 C 67.64 143.70 67.83 123.35 67.75 103.00 C 67.65 100.57 68.12 97.76 70.42 96.45 Z" />
</g>
</svg>
