<?xml version="1.0" encoding="UTF-8" ?>
<!DOCTYPE svg PUBLIC "-//W3C//DTD SVG 1.1//EN" "http://www.w3.org/Graphics/SVG/1.1/DTD/svg11.dtd">
<svg width="192pt" height="192pt" viewBox="0 0 192 192" version="1.1" xmlns="http://www.w3.org/2000/svg">
<g id="#a51affff">
<path fill="#a51aff" opacity="1.00" d=" M 73.95 22.96 C 73.83 19.69 76.64 16.62 79.97 16.77 C 90.65 16.70 101.34 16.72 112.02 16.75 C 115.55 16.49 118.44 19.78 118.35 23.18 C 118.45 30.71 120.51 39.39 127.44 43.53 C 134.18 47.48 142.52 45.44 149.03 42.04 C 151.93 40.25 156.17 40.94 157.87 44.03 C 163.18 52.77 168.38 61.58 173.65 70.34 C 175.81 73.31 174.89 77.97 171.46 79.53 C 165.42 82.97 158.62 88.29 159.04 96.02 C 159.10 103.36 165.61 108.27 171.38 111.63 C 174.75 113.18 175.85 117.71 173.75 120.71 C 168.53 129.50 163.29 138.27 158.00 147.01 C 156.33 150.32 151.92 150.98 148.91 149.15 C 142.78 146.03 135.59 145.25 128.92 146.90 C 126.21 147.92 123.39 146.32 121.93 144.03 C 117.15 137.37 112.44 130.67 107.67 124.01 C 100.12 126.44 91.75 126.99 84.37 123.64 C 70.74 118.17 62.73 101.97 66.76 87.83 C 69.81 75.14 81.93 65.60 94.92 65.27 C 107.81 64.57 120.50 73.14 124.64 85.36 C 128.73 96.12 125.64 108.68 117.88 116.99 C 121.73 122.78 125.84 128.40 129.92 134.02 C 136.68 133.22 143.60 133.88 150.01 136.20 C 153.62 130.64 157.07 124.95 160.18 119.09 C 152.32 113.31 145.95 104.18 146.68 94.04 C 147.22 84.94 153.28 77.34 160.26 71.99 C 156.85 66.43 153.87 60.39 149.96 55.26 C 140.47 58.63 129.14 59.43 120.42 53.58 C 112.04 48.32 107.76 38.65 106.45 29.15 C 99.61 29.03 92.77 29.22 85.94 29.04 C 84.44 38.37 80.42 47.90 72.29 53.29 C 63.43 59.41 51.68 58.81 42.00 55.10 C 38.63 60.72 35.18 66.30 31.93 71.99 C 38.84 77.41 44.99 84.92 45.53 94.04 C 46.34 104.23 39.90 113.42 31.95 119.15 C 35.13 124.90 38.61 130.49 42.01 136.11 C 51.46 132.54 62.75 131.79 71.55 137.46 C 80.15 142.71 84.50 152.60 85.87 162.24 C 95.13 162.41 104.41 161.99 113.66 162.43 C 119.62 163.49 119.87 172.94 113.95 174.31 C 102.99 174.86 91.98 174.39 81.01 174.54 C 77.23 175.08 73.69 171.81 73.89 168.02 C 73.73 160.61 71.78 152.16 65.12 147.92 C 58.35 143.63 49.80 145.73 43.17 149.19 C 40.12 151.07 35.81 150.14 34.16 146.87 C 28.90 138.11 23.63 129.35 18.43 120.56 C 16.43 117.65 17.50 113.26 20.73 111.74 C 26.90 108.27 33.65 102.79 33.35 94.98 C 32.86 87.65 26.44 82.76 20.57 79.38 C 17.38 77.76 16.47 73.33 18.54 70.47 C 23.75 61.71 28.99 52.96 34.25 44.23 C 35.87 41.09 40.07 40.20 43.01 41.98 C 49.70 45.52 58.43 47.62 65.24 43.26 C 71.91 38.91 73.74 30.40 73.95 22.96 M 90.32 78.40 C 82.59 80.87 77.32 89.04 78.15 97.10 C 78.64 106.14 86.95 113.80 95.99 113.65 C 104.81 113.90 112.98 106.76 114.03 98.02 C 116.35 85.32 102.39 73.71 90.32 78.40 Z" />
</g>
</svg>
