<?xml version="1.0" encoding="UTF-8" ?>
<!DOCTYPE svg PUBLIC "-//W3C//DTD SVG 1.1//EN" "http://www.w3.org/Graphics/SVG/1.1/DTD/svg11.dtd">
<svg width="192pt" height="192pt" viewBox="0 0 192 192" version="1.1" xmlns="http://www.w3.org/2000/svg">
<g id="#96644cff">
<path fill="#96644c" opacity="1.00" d=" M 73.94 22.97 C 73.85 19.71 76.64 16.64 79.97 16.79 C 90.65 16.68 101.34 16.73 112.02 16.76 C 115.87 16.46 118.68 20.25 118.42 23.86 C 118.56 31.18 120.75 39.52 127.44 43.52 C 134.17 47.47 142.51 45.43 149.03 42.04 C 151.92 40.24 156.17 40.94 157.87 44.03 C 163.21 52.76 168.40 61.57 173.67 70.34 C 175.81 73.32 174.98 78.01 171.49 79.57 C 165.77 82.91 159.33 87.69 159.09 94.95 C 158.49 102.74 165.34 108.16 171.40 111.64 C 174.77 113.21 175.87 117.71 173.79 120.74 C 168.58 129.53 163.33 138.29 158.06 147.04 C 156.36 150.40 151.95 151.04 148.89 149.19 C 142.47 145.86 134.94 145.40 127.98 147.11 C 125.47 147.83 123.26 145.93 121.90 144.03 C 117.12 137.41 112.46 130.69 107.66 124.08 C 94.24 129.28 77.73 124.17 70.34 111.65 C 61.51 98.11 65.98 78.11 79.95 69.88 C 92.42 61.76 110.47 64.70 119.63 76.43 C 129.43 87.93 128.35 106.23 117.95 117.01 C 121.73 122.82 125.87 128.39 129.93 134.00 C 136.70 133.24 143.59 133.89 150.02 136.16 C 153.61 130.63 157.04 124.97 160.14 119.15 C 152.32 113.31 145.92 104.20 146.67 94.03 C 147.20 84.93 153.29 77.38 160.21 72.00 C 156.95 66.31 153.66 60.63 150.07 55.15 C 140.58 58.93 129.18 59.45 120.40 53.61 C 112.03 48.35 107.80 38.69 106.42 29.22 C 99.56 29.13 92.71 29.18 85.85 29.19 C 84.47 39.47 79.32 49.95 69.77 54.85 C 61.17 59.48 50.87 58.48 42.01 55.15 C 38.65 60.75 35.22 66.31 31.99 71.99 C 39.07 77.67 45.47 85.50 45.60 95.02 C 46.00 104.89 39.65 113.58 32.01 119.19 C 35.15 124.94 38.62 130.50 42.03 136.09 C 51.70 132.47 63.31 131.78 72.16 137.85 C 80.37 143.18 84.55 152.78 85.87 162.19 C 95.13 162.47 104.42 161.93 113.67 162.43 C 119.62 163.49 119.97 172.96 114.00 174.35 C 102.70 174.88 91.33 174.50 80.01 174.53 C 76.00 174.76 73.47 170.59 73.81 166.96 C 73.64 159.22 70.81 150.23 63.14 146.93 C 56.32 143.84 48.77 146.43 42.47 149.52 C 39.52 151.19 35.67 149.81 34.14 146.88 C 28.89 138.11 23.60 129.36 18.42 120.55 C 16.43 117.64 17.51 113.27 20.73 111.75 C 26.89 108.25 33.68 102.80 33.34 94.98 C 32.84 87.65 26.41 82.80 20.56 79.40 C 17.39 77.74 16.47 73.35 18.55 70.48 C 23.75 61.71 28.99 52.96 34.26 44.23 C 35.88 41.09 40.06 40.22 43.01 41.99 C 49.71 45.52 58.42 47.62 65.25 43.26 C 71.91 38.91 73.75 30.41 73.94 22.97 M 94.46 77.56 C 85.27 78.21 77.63 86.84 78.14 96.04 C 78.04 105.49 86.57 113.84 96.00 113.65 C 105.90 113.99 114.78 104.87 114.16 94.98 C 114.15 84.92 104.42 76.40 94.46 77.56 Z" />
</g>
</svg>
