<?xml version="1.0" encoding="UTF-8" ?>
<!DOCTYPE svg PUBLIC "-//W3C//DTD SVG 1.1//EN" "http://www.w3.org/Graphics/SVG/1.1/DTD/svg11.dtd">
<svg width="192pt" height="192pt" viewBox="0 0 192 192" version="1.1" xmlns="http://www.w3.org/2000/svg">
<g id="#f6b02bff">
<path fill="#f6b02b" opacity="1.00" d=" M 73.95 22.96 C 73.83 19.70 76.64 16.63 79.96 16.77 C 90.65 16.71 101.34 16.72 112.02 16.76 C 115.46 16.50 118.39 19.66 118.32 23.01 C 118.46 30.39 120.29 38.81 126.85 43.16 C 133.63 47.59 142.39 45.55 149.09 42.01 C 151.97 40.28 156.19 40.96 157.87 44.03 C 163.18 52.77 168.39 61.58 173.65 70.34 C 175.81 73.31 174.89 77.97 171.46 79.54 C 165.42 82.98 158.61 88.29 159.04 96.02 C 159.11 103.36 165.62 108.27 171.38 111.63 C 174.75 113.18 175.86 117.71 173.75 120.72 C 168.53 129.50 163.29 138.28 158.00 147.02 C 156.33 150.33 151.92 150.98 148.91 149.15 C 142.78 146.03 135.59 145.25 128.92 146.91 C 126.20 147.91 123.38 146.32 121.92 144.03 C 117.15 137.37 112.44 130.66 107.66 124.01 C 100.11 126.45 91.74 126.98 84.37 123.64 C 70.75 118.17 62.73 101.97 66.76 87.83 C 69.82 75.14 81.94 65.60 94.93 65.27 C 107.82 64.56 120.49 73.14 124.64 85.36 C 128.73 96.12 125.65 108.69 117.88 116.99 C 121.73 122.77 125.83 128.39 129.90 134.01 C 136.68 133.22 143.60 133.89 150.03 136.19 C 153.62 130.63 157.06 124.94 160.20 119.11 C 152.60 113.50 146.37 104.83 146.63 95.02 C 146.78 85.54 153.02 77.50 160.27 71.99 C 156.93 66.31 153.67 60.58 150.07 55.08 C 140.21 59.00 128.06 59.36 119.24 52.77 C 111.56 47.38 107.75 38.16 106.44 29.14 C 99.60 29.05 92.76 29.19 85.92 29.07 C 84.44 38.39 80.41 47.90 72.29 53.29 C 63.44 59.39 51.70 58.82 42.04 55.09 C 38.60 60.68 35.20 66.30 31.92 72.00 C 38.84 77.41 44.99 84.92 45.53 94.04 C 46.34 104.23 39.89 113.42 31.95 119.15 C 35.12 124.91 38.61 130.48 42.00 136.11 C 51.25 132.65 62.21 131.79 70.95 137.10 C 79.89 142.23 84.52 152.36 85.85 162.23 C 95.12 162.41 104.41 161.98 113.66 162.43 C 119.62 163.49 119.88 172.94 113.95 174.31 C 102.99 174.87 91.98 174.40 81.00 174.54 C 77.22 175.07 73.69 171.81 73.89 168.02 C 73.73 160.61 71.78 152.16 65.12 147.91 C 58.35 143.63 49.80 145.73 43.17 149.19 C 40.11 151.07 35.81 150.14 34.16 146.87 C 28.91 138.10 23.62 129.35 18.43 120.55 C 16.43 117.64 17.50 113.26 20.73 111.74 C 26.63 108.38 33.01 103.37 33.36 96.01 C 33.53 88.52 27.14 83.16 21.19 79.77 C 18.02 78.36 16.31 74.25 18.19 71.17 C 23.42 62.12 28.89 53.20 34.25 44.23 C 35.87 41.10 40.08 40.21 43.01 41.99 C 49.70 45.52 58.43 47.62 65.24 43.26 C 71.92 38.92 73.74 30.41 73.95 22.96 M 90.32 78.40 C 82.59 80.87 77.33 89.03 78.14 97.09 C 78.63 106.14 86.95 113.80 96.00 113.65 C 105.17 113.93 113.57 106.17 114.13 97.04 C 115.68 84.64 102.01 73.87 90.32 78.40 Z" />
</g>
</svg>
