<?xml version="1.0" encoding="UTF-8" ?>
<!DOCTYPE svg PUBLIC "-//W3C//DTD SVG 1.1//EN" "http://www.w3.org/Graphics/SVG/1.1/DTD/svg11.dtd">
<svg width="192pt" height="192pt" viewBox="0 0 192 192" version="1.1" xmlns="http://www.w3.org/2000/svg">
<g id="#45e372ff">
<path fill="#45e372" opacity="1.00" d=" M 73.94 22.97 C 73.82 19.70 76.63 16.61 79.97 16.76 C 90.66 16.70 101.34 16.72 112.03 16.75 C 115.55 16.48 118.44 19.78 118.36 23.17 C 118.46 30.70 120.51 39.38 127.43 43.52 C 134.17 47.48 142.51 45.44 149.03 42.04 C 151.92 40.25 156.16 40.94 157.86 44.03 C 163.18 52.77 168.39 61.58 173.66 70.35 C 175.80 73.32 174.91 77.98 171.47 79.54 C 165.43 82.98 158.61 88.29 159.05 96.02 C 159.10 103.36 165.62 108.28 171.38 111.64 C 174.75 113.18 175.84 117.71 173.75 120.72 C 168.54 129.50 163.30 138.28 158.01 147.02 C 156.33 150.33 151.93 151.01 148.92 149.15 C 142.79 146.03 135.60 145.28 128.93 146.92 C 126.20 147.96 123.39 146.31 121.92 144.03 C 117.14 137.38 112.46 130.67 107.66 124.03 C 100.10 126.45 91.74 127.01 84.36 123.65 C 70.74 118.17 62.73 101.97 66.76 87.84 C 69.81 75.14 81.94 65.60 94.94 65.27 C 108.10 64.54 121.01 73.53 124.90 86.12 C 128.63 96.72 125.44 108.86 117.90 116.99 C 121.71 122.80 125.84 128.38 129.90 134.01 C 136.68 133.23 143.59 133.90 150.03 136.19 C 153.66 130.65 157.01 124.92 160.23 119.13 C 152.35 113.36 145.96 104.20 146.68 94.04 C 147.22 84.94 153.29 77.35 160.26 71.99 C 157.19 66.61 153.96 61.33 150.77 56.03 C 150.28 54.66 148.82 55.66 147.91 55.82 C 139.68 58.67 130.10 58.93 122.28 54.70 C 112.82 49.78 107.81 39.37 106.43 29.17 C 99.60 29.06 92.77 29.21 85.95 29.09 C 84.44 38.41 80.42 47.92 72.30 53.31 C 63.44 59.43 51.70 58.81 42.01 55.13 C 38.64 60.74 35.20 66.32 31.95 72.00 C 38.86 77.42 45.00 84.93 45.54 94.05 C 46.36 104.23 39.92 113.42 31.98 119.16 C 35.13 124.91 38.62 130.48 42.01 136.10 C 51.26 132.65 62.22 131.79 70.95 137.10 C 79.88 142.23 84.52 152.34 85.84 162.21 C 95.11 162.46 104.41 161.98 113.66 162.44 C 119.62 163.51 119.89 172.93 113.96 174.32 C 103.00 174.85 91.99 174.41 81.01 174.55 C 77.22 175.10 73.70 171.82 73.89 168.03 C 73.75 160.41 71.62 151.60 64.50 147.57 C 57.77 143.73 49.62 145.88 43.17 149.21 C 40.11 151.10 35.81 150.15 34.15 146.87 C 28.89 138.11 23.61 129.36 18.42 120.56 C 16.43 117.64 17.49 113.26 20.72 111.74 C 26.89 108.27 33.65 102.79 33.34 94.99 C 32.85 87.66 26.43 82.78 20.57 79.40 C 17.37 77.76 16.46 73.34 18.54 70.47 C 23.74 61.70 28.99 52.95 34.25 44.22 C 35.87 41.09 40.08 40.18 43.02 41.98 C 49.70 45.51 58.43 47.61 65.24 43.26 C 71.91 38.92 73.73 30.41 73.94 22.97 M 90.33 78.42 C 81.71 81.12 76.39 90.89 78.52 99.63 C 80.40 108.86 90.33 115.36 99.56 113.33 C 109.38 111.67 116.32 100.92 113.69 91.28 C 111.52 81.30 99.95 74.82 90.33 78.42 Z" />
</g>
</svg>
