<?xml version="1.0" encoding="UTF-8" ?>
<!DOCTYPE svg PUBLIC "-//W3C//DTD SVG 1.1//EN" "http://www.w3.org/Graphics/SVG/1.1/DTD/svg11.dtd">
<svg width="192pt" height="192pt" viewBox="0 0 192 192" version="1.1" xmlns="http://www.w3.org/2000/svg">
<g id="#8492a2ff">
<path fill="#8492a2" opacity="1.00" d=" M 73.94 22.96 C 73.82 19.70 76.62 16.60 79.95 16.77 C 90.65 16.70 101.35 16.72 112.04 16.76 C 115.57 16.49 118.44 19.79 118.36 23.19 C 118.47 30.71 120.52 39.38 127.43 43.52 C 134.17 47.48 142.51 45.44 149.03 42.04 C 151.92 40.27 156.16 40.93 157.86 44.03 C 163.18 52.76 168.38 61.58 173.65 70.35 C 175.78 73.32 174.92 77.95 171.48 79.52 C 165.45 82.98 158.61 88.29 159.05 96.03 C 159.09 103.38 165.63 108.28 171.38 111.65 C 174.75 113.20 175.82 117.70 173.75 120.71 C 168.53 129.50 163.29 138.28 158.00 147.02 C 156.32 150.31 151.91 151.00 148.91 149.15 C 142.76 146.01 135.55 145.30 128.87 146.92 C 126.17 147.92 123.40 146.29 121.94 144.04 C 117.12 137.39 112.48 130.62 107.61 124.01 C 98.71 127.13 88.47 126.77 80.40 121.61 C 68.32 114.54 62.58 98.55 67.49 85.42 C 71.56 73.17 84.22 64.70 97.07 65.26 C 109.79 65.48 121.67 74.63 125.14 86.86 C 128.50 97.31 125.25 109.04 117.90 117.00 C 121.69 122.80 125.85 128.35 129.87 133.99 C 136.70 133.23 143.63 133.96 150.14 136.19 C 153.62 130.58 157.01 124.91 160.29 119.18 C 152.65 113.55 146.36 104.86 146.64 95.01 C 146.79 85.52 153.06 77.51 160.29 71.97 C 156.81 66.45 153.90 60.39 149.95 55.28 C 142.24 57.88 133.63 59.14 125.80 56.28 C 114.37 52.34 107.84 40.62 106.40 29.15 C 99.55 29.12 92.69 29.14 85.83 29.15 C 84.53 39.20 79.57 49.42 70.41 54.48 C 61.73 59.47 51.08 58.57 42.01 55.14 C 38.65 60.75 35.22 66.32 31.96 71.99 C 38.86 77.41 45.00 84.91 45.55 94.03 C 46.37 104.23 39.91 113.42 31.98 119.18 C 35.15 124.91 38.63 130.47 41.99 136.09 C 51.25 132.68 62.20 131.78 70.94 137.09 C 79.89 142.23 84.50 152.35 85.85 162.23 C 95.12 162.45 104.41 161.98 113.66 162.45 C 119.61 163.51 119.88 172.93 113.96 174.32 C 102.99 174.86 91.98 174.41 80.99 174.55 C 77.21 175.08 73.71 171.82 73.91 168.02 C 73.73 160.41 71.63 151.59 64.49 147.56 C 57.76 143.74 49.63 145.89 43.18 149.21 C 40.12 151.10 35.83 150.16 34.16 146.90 C 28.89 138.12 23.60 129.35 18.40 120.53 C 16.42 117.62 17.50 113.26 20.71 111.74 C 26.88 108.26 33.65 102.80 33.33 94.98 C 32.85 87.65 26.41 82.79 20.56 79.40 C 17.38 77.76 16.45 73.37 18.51 70.50 C 23.73 61.71 28.98 52.94 34.25 44.19 C 35.89 41.07 40.08 40.17 43.02 41.98 C 49.71 45.50 58.43 47.61 65.24 43.25 C 71.91 38.91 73.72 30.40 73.94 22.96 M 90.35 78.41 C 82.63 80.87 77.36 89.02 78.16 97.07 C 78.63 106.12 86.94 113.81 95.99 113.65 C 105.16 113.94 113.57 106.18 114.14 97.05 C 115.66 84.65 102.04 73.91 90.35 78.41 Z" />
</g>
</svg>
