<?xml version="1.0" encoding="UTF-8" ?>
<!DOCTYPE svg PUBLIC "-//W3C//DTD SVG 1.1//EN" "http://www.w3.org/Graphics/SVG/1.1/DTD/svg11.dtd">
<svg width="192pt" height="192pt" viewBox="0 0 192 192" version="1.1" xmlns="http://www.w3.org/2000/svg">
<g id="#d6d6d6ff">
<path fill="#d6d6d6" opacity="1.00" d=" M 73.95 22.96 C 73.85 19.70 76.64 16.64 79.97 16.77 C 90.65 16.71 101.34 16.73 112.02 16.76 C 115.46 16.50 118.38 19.66 118.31 23.01 C 118.44 30.39 120.29 38.81 126.84 43.16 C 133.60 47.58 142.35 45.57 149.03 42.03 C 151.91 40.28 156.18 40.93 157.86 44.03 C 163.17 52.77 168.38 61.57 173.65 70.34 C 175.82 73.30 174.88 77.96 171.46 79.53 C 165.63 82.84 159.40 87.72 158.90 94.95 C 158.60 102.71 165.24 108.16 171.38 111.63 C 174.75 113.17 175.87 117.71 173.74 120.70 C 168.52 129.49 163.28 138.27 157.99 147.01 C 156.33 150.31 151.91 150.96 148.91 149.14 C 142.78 146.03 135.59 145.20 128.92 146.90 C 126.21 147.92 123.39 146.31 121.93 144.03 C 117.16 137.36 112.43 130.66 107.67 123.99 C 100.37 126.31 92.31 126.97 85.11 123.93 C 71.08 118.74 62.65 102.24 66.77 87.84 C 69.82 75.15 81.93 65.60 94.93 65.28 C 107.82 64.57 120.49 73.14 124.63 85.36 C 128.71 96.12 125.64 108.70 117.85 117.00 C 121.74 122.77 125.83 128.39 129.91 134.02 C 136.68 133.21 143.61 133.88 150.03 136.20 C 153.60 130.61 157.05 124.93 160.21 119.10 C 152.59 113.51 146.37 104.82 146.64 95.02 C 146.78 85.54 153.02 77.49 160.28 71.99 C 156.95 66.31 153.66 60.59 150.08 55.05 C 140.44 58.90 128.63 59.36 119.84 53.18 C 111.81 47.84 107.74 38.39 106.46 29.12 C 99.60 29.02 92.74 29.17 85.88 29.03 C 84.44 38.36 80.39 47.89 72.27 53.27 C 63.42 59.37 51.70 58.81 42.04 55.05 C 38.57 60.65 35.18 66.30 31.89 72.00 C 38.83 77.40 44.97 84.92 45.51 94.05 C 46.31 104.23 39.86 113.42 31.91 119.13 C 35.11 124.89 38.60 130.49 42.00 136.13 C 51.24 132.63 62.21 131.80 70.95 137.10 C 79.88 142.24 84.52 152.36 85.84 162.23 C 95.11 162.40 104.41 161.98 113.67 162.42 C 119.63 163.48 119.86 172.94 113.94 174.29 C 102.99 174.86 91.98 174.38 81.01 174.52 C 77.24 175.05 73.70 171.83 73.90 168.03 C 73.75 160.61 71.78 152.16 65.13 147.90 C 58.34 143.60 49.75 145.72 43.11 149.20 C 40.07 151.04 35.80 150.11 34.16 146.87 C 28.92 138.10 23.65 129.35 18.45 120.56 C 16.43 117.66 17.51 113.26 20.73 111.75 C 26.92 108.28 33.65 102.79 33.36 94.99 C 32.88 87.65 26.47 82.73 20.58 79.36 C 17.39 77.75 16.48 73.32 18.55 70.47 C 23.92 61.53 29.19 52.52 34.66 43.65 C 36.58 40.60 40.85 40.53 43.67 42.30 C 50.37 45.83 59.28 47.56 65.85 42.85 C 72.07 38.35 73.75 30.19 73.95 22.96 M 92.49 77.78 C 84.09 79.37 77.65 87.50 78.07 96.04 C 78.02 105.50 86.57 113.83 95.99 113.65 C 106.28 114.02 115.33 104.18 114.12 93.96 C 113.51 83.55 102.66 75.40 92.49 77.78 Z" />
</g>
</svg>
