<?xml version="1.0" encoding="UTF-8" ?>
<!DOCTYPE svg PUBLIC "-//W3C//DTD SVG 1.1//EN" "http://www.w3.org/Graphics/SVG/1.1/DTD/svg11.dtd">
<svg width="192pt" height="192pt" viewBox="0 0 192 192" version="1.1" xmlns="http://www.w3.org/2000/svg">
<g id="#49a1d5ff">
<path fill="#49a1d5" opacity="1.00" d=" M 19.41 41.71 C 19.32 36.90 17.13 29.15 23.08 27.01 C 33.36 26.36 43.71 26.88 54.02 26.74 C 57.52 26.37 60.76 29.46 60.37 33.00 C 60.41 73.28 60.44 113.56 60.37 153.83 C 67.56 154.15 74.77 153.70 81.95 154.10 C 88.00 155.28 87.23 165.13 81.02 165.24 C 63.35 165.33 45.66 165.47 27.99 165.17 C 22.05 164.86 21.31 155.45 27.08 154.17 C 34.38 153.63 41.73 154.14 49.05 153.93 C 49.09 115.33 49.11 76.73 49.09 38.13 C 42.90 38.10 36.72 38.12 30.53 38.13 C 32.04 44.98 21.68 48.57 19.41 41.71 Z" />
<path fill="#49a1d5" opacity="1.00" d=" M 83.96 37.97 C 77.42 37.75 77.44 26.99 83.99 26.83 C 111.32 26.59 138.67 26.74 166.01 26.73 C 169.98 26.34 172.79 30.29 172.19 34.00 C 171.85 40.52 172.96 47.25 171.54 53.64 C 154.19 89.57 136.84 125.51 119.31 161.36 C 116.41 167.87 105.76 162.63 109.27 156.28 C 126.22 121.01 143.45 85.86 160.41 50.59 C 161.43 46.53 160.62 42.25 160.81 38.10 C 135.19 38.04 109.56 38.31 83.96 37.97 Z" />
<path fill="#49a1d5" opacity="1.00" d=" M 162.19 106.20 C 163.74 106.21 165.29 106.20 166.84 106.18 C 167.70 107.33 168.99 108.38 168.78 109.98 C 168.83 127.30 168.90 144.64 168.80 161.96 C 168.92 164.47 166.34 166.10 164.04 165.82 C 155.68 165.81 147.33 165.86 138.97 165.77 C 135.27 166.02 133.29 161.19 135.58 158.44 C 144.57 141.10 152.59 123.19 162.19 106.20 Z" />
</g>
</svg>
