<?xml version="1.0" encoding="UTF-8" ?>
<!DOCTYPE svg PUBLIC "-//W3C//DTD SVG 1.1//EN" "http://www.w3.org/Graphics/SVG/1.1/DTD/svg11.dtd">
<svg width="192pt" height="192pt" viewBox="0 0 192 192" version="1.1" xmlns="http://www.w3.org/2000/svg">
<g id="#44e372ff">
<path fill="#44e372" opacity="1.00" d=" M 67.86 17.82 C 89.85 9.62 115.37 11.61 135.79 23.20 C 162.31 37.71 179.31 67.80 177.79 98.04 C 177.21 134.54 148.98 168.67 112.98 175.29 C 106.84 175.09 106.01 165.19 112.15 164.17 C 130.05 159.92 146.05 148.42 155.78 132.81 C 166.96 115.25 169.69 92.62 163.03 72.90 C 154.06 43.80 124.49 22.68 93.98 24.19 C 60.85 24.39 30.64 51.17 26.14 83.94 C 20.25 117.18 41.62 152.48 73.89 162.46 C 87.16 131.71 100.54 101.01 113.75 70.24 C 95.83 70.30 77.91 70.23 59.99 70.28 C 52.07 71.72 51.47 57.76 57.12 55.47 C 80.74 55.16 104.39 55.41 128.02 55.34 C 131.03 54.83 133.55 58.15 132.08 60.89 C 117.80 96.97 103.60 133.08 89.13 169.07 C 87.71 171.58 87.40 175.66 84.06 176.34 C 59.76 173.14 37.58 157.83 25.31 136.69 C 13.83 117.24 10.94 93.00 17.52 71.39 C 24.72 46.98 43.93 26.51 67.86 17.82 Z" />
</g>
</svg>
