<?xml version="1.0" encoding="UTF-8" ?>
<!DOCTYPE svg PUBLIC "-//W3C//DTD SVG 1.1//EN" "http://www.w3.org/Graphics/SVG/1.1/DTD/svg11.dtd">
<svg width="192pt" height="192pt" viewBox="0 0 192 192" version="1.1" xmlns="http://www.w3.org/2000/svg">
<g id="#ff365fff">
<path fill="#ff365f" opacity="1.00" d=" M 39.79 21.97 C 39.82 17.74 43.85 14.58 47.95 14.91 C 79.99 14.92 112.04 15.04 144.08 15.15 C 148.33 14.94 152.22 18.68 152.16 22.95 C 152.23 33.31 152.33 43.69 152.12 54.05 C 152.07 58.41 148.18 60.99 144.71 62.75 C 135.29 67.80 127.66 76.30 124.53 86.60 C 122.30 92.54 112.36 89.19 114.07 83.05 C 117.50 69.19 128.68 58.51 140.87 51.82 C 140.83 43.69 140.95 35.57 140.76 27.44 C 116.08 38.64 94.27 59.09 86.59 85.68 C 85.08 91.66 75.29 90.19 75.62 84.02 C 77.50 75.03 81.88 66.79 86.24 58.78 C 73.16 58.70 60.07 58.87 46.99 58.70 C 42.79 58.99 39.40 55.12 39.74 51.02 C 39.68 41.34 39.59 31.65 39.79 21.97 M 51.11 26.14 C 51.09 33.27 51.08 40.40 51.09 47.53 C 65.59 47.44 80.10 47.72 94.59 47.41 C 102.28 39.88 110.08 32.29 119.14 26.34 C 96.46 26.31 73.78 26.27 51.11 26.14 Z" />
<path fill="#ff365f" opacity="1.00" d=" M 36.23 92.98 C 41.76 92.75 47.38 92.30 52.87 93.14 C 53.21 94.84 53.27 96.58 53.39 98.31 C 49.81 98.57 46.22 98.57 42.64 98.56 C 42.64 100.15 42.64 101.74 42.64 103.33 C 45.74 103.35 48.85 103.38 51.93 103.81 C 51.80 105.60 51.65 107.40 51.45 109.20 C 48.51 109.19 45.57 109.19 42.63 109.18 C 42.63 110.76 42.63 112.34 42.63 113.93 C 47.26 114.25 55.12 112.11 53.68 119.44 C 47.90 120.10 42.07 119.86 36.27 119.66 C 35.87 110.78 35.95 101.87 36.23 92.98 Z" />
<path fill="#ff365f" opacity="1.00" d=" M 55.66 92.85 C 57.71 92.82 59.75 92.83 61.79 92.89 C 62.34 99.92 61.99 106.98 62.09 114.03 C 66.71 114.07 74.77 112.34 72.71 119.60 C 66.97 119.92 61.20 120.08 55.48 119.46 C 55.55 110.59 55.23 101.71 55.66 92.85 Z" />
<path fill="#ff365f" opacity="1.00" d=" M 74.31 93.08 C 79.90 92.47 85.54 92.66 91.15 92.92 C 91.26 94.73 91.33 96.55 91.39 98.37 C 87.88 98.56 84.37 98.57 80.86 98.53 C 80.80 100.14 80.74 101.74 80.69 103.35 C 83.69 103.38 86.69 103.40 89.69 103.50 C 89.81 105.29 89.87 107.09 89.88 108.89 C 86.84 109.19 83.79 109.22 80.74 109.22 C 80.74 110.78 80.74 112.35 80.74 113.91 C 84.22 113.98 87.70 114.03 91.18 114.18 C 91.39 115.95 91.54 117.72 91.67 119.49 C 85.91 120.06 80.11 119.89 74.34 119.65 C 74.04 110.80 74.11 101.93 74.31 93.08 Z" />
<path fill="#ff365f" opacity="1.00" d=" M 91.94 92.97 C 93.95 92.84 95.97 92.66 97.98 92.87 C 100.70 98.45 101.35 104.77 103.47 110.58 C 105.34 104.92 106.30 98.96 108.51 93.41 C 110.23 92.05 112.81 93.08 114.86 93.00 C 112.98 102.03 109.75 110.71 107.21 119.57 C 104.33 119.55 99.60 121.24 98.90 117.17 C 96.58 109.11 93.65 101.19 91.94 92.97 Z" />
<path fill="#ff365f" opacity="1.00" d=" M 116.86 92.86 C 122.42 92.93 128.19 91.99 133.63 93.36 C 133.79 95.06 133.71 96.76 133.65 98.46 C 129.45 99.07 121.41 96.18 123.10 103.32 C 126.12 103.37 129.14 103.40 132.16 103.49 C 132.29 105.36 132.35 107.24 132.38 109.13 C 129.34 109.19 126.30 109.20 123.26 109.18 C 123.26 110.77 123.26 112.36 123.26 113.95 C 127.93 114.07 136.23 112.26 133.85 119.68 C 128.14 119.90 122.41 120.02 116.70 119.55 C 116.68 110.66 116.37 101.75 116.86 92.86 Z" />
<path fill="#ff365f" opacity="1.00" d=" M 136.05 94.98 C 135.64 91.86 139.86 92.65 141.79 93.05 C 144.73 97.21 146.44 102.08 149.11 106.40 C 149.27 101.94 149.15 97.48 149.35 93.02 C 151.45 92.85 153.56 92.85 155.66 93.01 C 155.88 101.91 155.93 110.83 155.64 119.73 C 147.11 121.96 146.47 110.94 142.63 105.89 C 142.56 110.25 142.93 114.63 142.44 118.98 C 141.00 120.56 138.34 119.72 136.43 119.59 C 135.46 111.46 136.10 103.17 136.05 94.98 Z" />
<path fill="#ff365f" opacity="1.00" d=" M 69.74 128.85 C 70.48 122.85 80.24 123.16 80.70 129.12 C 80.46 141.17 79.12 153.19 78.51 165.24 C 88.35 165.27 98.18 165.25 108.01 165.25 C 108.43 152.94 108.52 140.60 109.46 128.33 C 110.44 122.37 120.19 122.90 120.45 128.97 C 120.35 142.31 119.33 155.65 119.38 169.01 C 119.74 172.71 116.93 176.60 113.02 176.49 C 100.68 176.64 88.34 176.53 76.00 176.54 C 70.83 177.02 66.26 172.10 67.06 166.99 C 67.93 154.28 68.54 141.53 69.74 128.85 Z" />
</g>
</svg>
