<?xml version="1.0" encoding="UTF-8" ?>
<!DOCTYPE svg PUBLIC "-//W3C//DTD SVG 1.1//EN" "http://www.w3.org/Graphics/SVG/1.1/DTD/svg11.dtd">
<svg width="192pt" height="192pt" viewBox="0 0 192 192" version="1.1" xmlns="http://www.w3.org/2000/svg">
<g id="#ff653bff">
<path fill="#ff653b" opacity="1.00" d=" M 20.09 43.94 C 19.89 31.70 30.78 20.69 43.02 20.76 C 77.33 20.72 111.65 20.72 145.97 20.75 C 157.52 20.66 168.02 30.42 168.88 41.91 C 169.13 47.23 169.42 52.62 168.75 57.92 C 167.73 62.75 160.15 63.18 158.38 58.66 C 156.97 52.78 158.75 46.56 157.31 40.67 C 155.80 35.39 150.46 31.73 145.03 31.85 C 111.35 31.81 77.66 31.80 43.97 31.83 C 37.42 31.62 31.15 37.25 31.29 43.93 C 31.27 78.29 31.19 112.67 31.34 147.03 C 31.66 155.87 41.36 159.80 49.06 158.36 C 54.11 151.25 55.16 141.88 62.00 135.99 C 65.11 128.33 68.31 119.42 77.13 116.79 C 77.04 115.55 77.01 114.31 77.05 113.06 C 82.02 109.86 86.98 105.50 87.53 99.21 C 84.40 92.14 81.48 84.66 75.96 79.04 C 73.60 76.55 71.58 72.74 73.42 69.38 C 75.19 66.75 78.01 65.11 80.46 63.18 C 79.83 58.87 76.91 53.21 80.66 49.63 C 87.16 45.42 94.08 51.64 100.98 49.99 C 106.44 52.21 112.49 47.82 110.89 41.83 C 112.31 41.23 113.74 40.66 115.18 40.12 C 114.62 46.46 109.06 50.98 103.48 53.13 C 115.19 52.23 126.46 48.56 138.04 46.80 C 143.34 46.39 149.40 46.63 153.70 50.14 C 153.21 51.14 152.61 52.09 152.05 53.06 C 149.74 47.60 142.84 48.66 138.01 48.45 C 122.98 48.03 109.42 59.30 94.30 53.97 C 94.34 54.68 94.42 56.10 94.47 56.81 C 100.92 58.17 107.54 56.95 113.97 56.01 C 115.13 61.79 121.56 60.87 126.00 61.82 C 140.34 64.39 154.59 68.14 167.88 74.19 C 170.40 75.09 170.95 77.88 171.67 80.12 C 153.93 71.48 134.49 66.83 114.95 64.67 C 110.92 65.27 114.96 69.19 115.90 71.03 C 117.48 75.71 123.81 78.19 122.47 83.81 C 120.92 90.02 111.98 89.39 107.95 86.03 C 109.54 91.98 108.84 98.66 111.91 104.10 C 115.85 105.26 120.26 105.77 124.42 105.32 C 125.94 109.91 128.91 117.30 134.92 115.79 C 139.68 114.45 143.56 118.40 147.37 120.59 C 141.53 119.99 133.80 122.77 129.63 117.35 C 127.33 115.12 125.51 112.46 124.36 109.46 C 123.12 109.34 121.88 109.24 120.64 109.16 C 121.93 110.08 123.23 110.98 124.54 111.89 C 122.97 115.76 124.19 119.87 123.83 123.88 C 126.49 126.32 129.41 129.11 128.86 133.10 C 133.54 137.04 139.82 140.07 141.66 146.38 C 143.93 150.64 144.72 157.74 150.95 157.39 C 154.42 154.97 157.62 151.51 157.76 147.03 C 158.14 127.37 157.54 107.67 158.04 88.02 C 158.77 81.65 169.24 82.54 168.99 88.94 C 169.16 108.31 169.14 127.70 169.00 147.07 C 168.76 159.06 158.06 169.53 146.07 169.52 C 111.69 169.57 77.31 169.57 42.94 169.51 C 30.60 169.50 19.78 158.37 20.06 146.04 C 20.04 112.01 20.02 77.97 20.09 43.94 M 85.80 140.81 C 82.55 144.78 77.07 142.96 72.75 144.43 C 72.02 152.90 61.94 152.93 57.11 158.19 C 84.86 158.37 112.63 158.52 140.38 158.10 C 136.60 155.43 131.47 155.32 128.36 151.63 C 124.70 147.38 118.45 152.22 114.75 148.29 C 109.70 144.27 106.09 137.83 99.13 136.85 C 94.32 135.54 88.98 136.85 85.80 140.81 Z" />
</g>
</svg>
