<?xml version="1.0" encoding="UTF-8" ?>
<!DOCTYPE svg PUBLIC "-//W3C//DTD SVG 1.1//EN" "http://www.w3.org/Graphics/SVG/1.1/DTD/svg11.dtd">
<svg width="192pt" height="192pt" viewBox="0 0 192 192" version="1.1" xmlns="http://www.w3.org/2000/svg">
<g id="#5b9cc5ff">
<path fill="#5b9cc5" opacity="1.00" d=" M 22.06 43.93 C 21.90 31.70 32.76 20.64 45.02 20.76 C 79.34 20.71 113.67 20.69 147.99 20.75 C 160.23 20.68 171.02 31.73 170.87 43.93 C 171.35 75.62 170.94 107.31 171.10 139.00 C 171.14 145.35 171.20 152.13 167.78 157.74 C 163.55 165.44 154.74 170.01 146.03 169.61 C 124.49 169.38 102.93 169.80 81.41 169.32 C 74.58 168.17 76.41 159.91 75.93 154.95 C 76.34 147.46 71.00 140.37 73.71 132.97 C 75.21 133.04 76.71 133.10 78.21 133.16 C 78.24 131.58 78.32 130.02 78.45 128.45 C 79.61 131.49 78.68 134.72 78.10 137.77 C 80.57 137.41 82.85 136.38 85.15 135.47 C 85.56 130.56 84.78 125.56 86.21 120.77 C 87.57 121.48 88.93 122.19 90.30 122.90 C 91.40 121.76 92.49 120.61 93.54 119.42 C 84.49 113.05 74.26 108.55 65.01 102.45 C 70.94 97.22 79.60 93.82 81.18 85.15 C 82.03 85.68 82.89 86.21 83.75 86.74 C 86.71 84.83 89.68 82.94 92.52 80.86 C 91.16 80.79 89.81 80.73 88.45 80.67 C 84.84 77.06 81.03 73.65 77.82 69.67 C 73.38 71.97 69.04 74.50 64.36 76.31 C 64.80 70.06 66.28 63.85 69.42 58.38 C 71.35 54.26 74.88 50.70 75.00 45.92 C 77.57 43.83 80.54 41.90 84.02 42.55 C 93.71 41.69 102.95 44.95 111.92 48.09 C 109.28 49.97 106.65 51.88 104.30 54.11 C 108.30 54.26 112.30 53.33 116.07 52.09 C 119.32 48.90 120.77 43.64 125.65 42.37 C 124.29 46.62 121.86 50.39 119.80 54.31 C 122.45 55.42 125.32 55.53 128.15 55.33 C 126.90 56.55 125.67 57.79 124.47 59.07 C 121.92 58.64 119.42 57.97 116.97 57.16 C 113.51 59.07 109.80 58.28 106.22 57.37 C 103.87 58.15 102.52 60.65 100.89 62.40 C 102.43 61.32 103.92 60.17 105.42 59.03 C 107.31 62.74 109.13 66.50 111.59 69.88 C 111.27 70.25 110.64 70.98 110.32 71.35 C 113.97 73.16 117.43 75.39 121.31 76.68 C 124.87 78.12 128.73 75.46 132.24 77.33 C 129.93 77.20 127.59 77.02 125.35 77.76 C 127.36 81.21 133.09 80.90 133.37 85.38 C 134.17 89.72 139.38 90.13 142.11 92.87 C 141.69 93.24 140.87 93.98 140.46 94.36 C 141.41 95.77 142.33 97.21 143.22 98.67 C 145.57 98.43 147.95 98.41 150.28 98.87 C 148.68 99.45 147.07 100.00 145.47 100.57 C 145.37 101.05 145.17 102.02 145.08 102.51 C 147.00 103.02 148.94 103.53 150.87 104.06 C 150.79 104.82 150.71 105.57 150.63 106.33 C 151.27 106.37 152.55 106.47 153.19 106.51 C 156.31 110.58 156.68 115.82 159.13 120.20 C 152.13 123.74 144.78 126.76 137.05 128.23 C 131.59 129.22 126.62 132.60 120.87 131.72 C 120.65 132.18 120.21 133.10 119.99 133.57 C 121.23 134.19 122.47 134.82 123.69 135.46 C 124.92 135.29 126.15 135.12 127.39 134.95 C 126.87 135.42 125.83 136.35 125.31 136.81 C 131.34 137.93 134.63 143.10 137.20 148.15 C 131.85 147.16 126.46 146.03 121.60 143.47 C 123.48 147.11 124.95 151.01 127.52 154.24 C 127.55 155.58 127.59 156.91 127.66 158.25 C 134.44 158.30 141.23 158.33 148.02 158.19 C 154.33 158.12 159.71 152.33 159.61 146.08 C 159.73 112.36 159.68 78.64 159.66 44.92 C 160.14 38.03 153.99 31.57 147.03 32.06 C 113.36 31.81 79.66 31.81 45.98 31.87 C 39.41 31.63 33.15 37.25 33.30 43.93 C 33.21 57.65 33.31 71.37 33.26 85.09 C 35.56 85.88 37.94 86.47 40.39 86.52 C 40.58 87.10 40.95 88.26 41.13 88.84 C 45.38 89.58 49.16 91.69 51.92 95.02 C 50.44 97.00 50.10 99.43 50.29 101.84 C 51.24 100.62 52.19 99.40 53.15 98.18 C 53.24 99.01 53.41 100.68 53.50 101.52 C 61.34 106.68 69.83 110.75 77.59 116.02 C 74.57 117.44 71.49 118.81 68.94 121.01 C 64.50 124.80 58.70 121.18 53.92 120.12 C 47.95 113.56 44.73 104.82 37.95 99.00 C 36.03 96.44 36.21 93.04 35.77 90.01 C 34.94 89.53 34.12 89.05 33.30 88.56 C 33.24 107.73 33.26 126.90 33.30 146.08 C 33.17 151.69 37.47 157.05 43.02 158.03 C 48.76 158.84 54.63 157.68 60.35 158.62 C 65.66 159.86 65.43 168.54 59.98 169.35 C 54.35 169.81 48.66 169.66 43.02 169.40 C 31.39 168.45 21.83 157.68 22.02 146.05 C 21.96 112.01 22.01 77.97 22.06 43.93 M 80.24 67.98 C 79.07 68.87 79.92 71.98 81.56 70.73 C 82.74 69.85 81.86 66.70 80.24 67.98 M 130.44 107.88 C 128.50 111.23 126.49 114.54 124.46 117.84 C 128.50 115.80 132.93 114.04 135.66 110.24 C 133.94 109.42 132.18 108.68 130.44 107.88 Z" />
</g>
</svg>
