<?xml version="1.0" encoding="UTF-8" ?>
<!DOCTYPE svg PUBLIC "-//W3C//DTD SVG 1.1//EN" "http://www.w3.org/Graphics/SVG/1.1/DTD/svg11.dtd">
<svg width="192pt" height="192pt" viewBox="0 0 192 192" version="1.1" xmlns="http://www.w3.org/2000/svg">
<g id="#1cb5ffff">
<path fill="#1cb5ff" opacity="1.00" d=" M 127.99 17.00 C 143.39 10.44 162.77 18.30 169.45 33.59 C 177.40 49.41 169.40 70.49 153.12 77.28 C 137.48 84.74 117.75 76.86 110.32 61.52 C 99.98 68.19 89.54 74.69 79.16 81.29 C 82.22 89.86 81.59 99.36 77.92 107.64 C 88.60 113.57 99.41 119.29 110.16 125.10 C 114.34 116.26 122.32 109.17 131.90 106.83 C 143.90 103.64 157.47 108.12 165.17 117.87 C 173.04 127.32 174.82 141.33 169.42 152.40 C 164.84 162.36 154.94 169.64 144.05 170.94 C 130.26 172.92 115.40 164.74 110.36 151.65 C 108.97 145.90 117.66 142.22 120.69 147.34 C 124.74 155.43 133.81 160.93 142.95 159.35 C 153.94 158.02 162.43 146.89 160.82 135.94 C 159.72 125.73 150.31 117.22 140.00 117.42 C 130.46 117.16 121.85 124.36 119.45 133.43 C 117.58 139.17 110.26 137.95 106.00 135.99 C 94.22 129.76 82.53 123.35 70.81 117.01 C 61.16 125.68 46.33 128.36 34.61 122.42 C 21.78 116.47 13.97 101.57 16.51 87.63 C 18.64 73.27 31.40 61.39 45.91 60.40 C 56.12 59.43 66.30 63.89 73.16 71.39 C 84.60 64.24 95.93 56.93 107.37 49.79 C 106.44 35.93 114.93 21.99 127.99 17.00 M 137.38 26.46 C 126.95 27.56 118.29 37.49 119.05 48.04 C 118.87 59.79 130.34 69.85 141.96 68.38 C 153.65 67.56 162.88 55.61 160.72 44.09 C 159.25 33.23 148.26 24.84 137.38 26.46 M 43.35 72.50 C 33.20 74.92 26.04 85.68 27.77 95.99 C 29.03 105.84 38.02 113.90 47.95 114.04 C 58.68 114.57 68.78 105.67 69.52 94.94 C 71.42 81.06 56.80 68.42 43.35 72.50 Z" />
</g>
</svg>
