<?xml version="1.0" encoding="UTF-8" ?>
<!DOCTYPE svg PUBLIC "-//W3C//DTD SVG 1.1//EN" "http://www.w3.org/Graphics/SVG/1.1/DTD/svg11.dtd">
<svg width="192pt" height="192pt" viewBox="0 0 192 192" version="1.1" xmlns="http://www.w3.org/2000/svg">
<g id="#3aa4edff">
<path fill="#3aa4ed" opacity="1.00" d=" M 39.28 21.31 C 74.11 19.96 109.10 21.13 144.00 20.71 C 153.21 19.99 162.54 24.99 166.75 33.26 C 170.14 39.26 169.60 46.40 169.40 53.04 C 169.25 56.99 164.13 59.59 160.90 57.18 C 156.86 54.48 158.74 49.04 158.31 45.01 C 158.84 38.16 152.91 31.78 146.04 31.91 C 112.69 31.75 79.34 31.88 46.00 31.80 C 41.00 31.48 35.85 34.06 33.58 38.62 C 30.95 43.62 33.27 49.51 31.73 54.74 C 30.30 58.55 24.41 59.11 22.21 55.72 C 17.65 42.34 24.17 24.31 39.28 21.31 Z" />
<path fill="#3aa4ed" opacity="1.00" d=" M 91.57 54.09 C 98.58 55.71 105.29 58.48 112.03 60.98 C 99.52 78.88 86.00 96.07 73.06 113.67 C 72.33 113.42 70.87 112.92 70.14 112.68 C 76.24 92.80 84.10 73.49 91.57 54.09 Z" />
<path fill="#3aa4ed" opacity="1.00" d=" M 69.50 64.90 C 74.33 64.93 79.15 65.41 83.97 65.68 C 79.32 77.65 74.72 89.65 69.56 101.41 C 69.43 89.24 69.57 77.07 69.50 64.90 Z" />
<path fill="#3aa4ed" opacity="1.00" d=" M 21.33 78.25 C 24.61 73.62 29.69 68.36 35.97 69.03 C 42.90 69.37 49.86 68.73 56.77 69.29 C 58.63 72.64 57.16 76.91 57.61 80.62 C 50.28 81.96 42.74 80.71 35.33 81.33 C 35.04 84.12 35.03 86.93 35.17 89.74 C 42.50 90.08 49.83 89.58 57.16 89.91 C 57.60 93.53 58.42 97.86 56.89 101.14 C 49.71 101.87 42.44 101.13 35.23 101.52 C 34.53 108.49 35.98 115.73 34.42 122.52 C 30.14 123.21 25.75 122.81 21.43 122.59 C 20.88 107.84 21.00 92.99 21.33 78.25 Z" />
<path fill="#3aa4ed" opacity="1.00" d=" M 126.25 71.10 C 126.36 68.10 130.06 69.27 132.02 69.02 C 134.99 69.49 139.30 67.71 141.10 70.94 C 146.26 79.50 150.37 88.71 155.95 97.00 C 156.91 87.96 155.45 78.65 156.68 69.74 C 160.52 68.21 165.42 69.16 169.64 69.37 C 170.02 87.10 170.12 104.87 169.62 122.59 C 164.65 122.74 157.13 125.30 154.27 119.74 C 149.55 111.57 145.54 102.96 140.36 95.07 C 139.80 104.02 140.49 113.00 139.99 121.95 C 136.10 124.20 130.81 122.95 126.43 122.54 C 125.92 105.41 126.27 88.24 126.25 71.10 Z" />
<path fill="#3aa4ed" opacity="1.00" d=" M 103.96 97.32 C 107.68 92.63 110.82 87.45 114.98 83.12 C 115.51 89.07 115.30 95.05 115.17 101.01 C 111.23 100.62 107.31 99.48 103.96 97.32 Z" />
<path fill="#3aa4ed" opacity="1.00" d=" M 95.28 108.98 C 101.85 110.58 108.32 112.86 114.56 115.42 C 115.70 119.55 115.98 124.62 114.27 128.64 C 105.53 125.31 96.21 123.37 87.88 119.07 C 90.17 115.57 92.77 112.30 95.28 108.98 Z" />
<path fill="#3aa4ed" opacity="1.00" d=" M 69.52 115.05 C 82.43 119.67 95.55 123.72 108.34 128.69 C 95.40 129.09 82.46 129.23 69.52 129.19 C 69.48 124.48 69.49 119.77 69.52 115.05 Z" />
<path fill="#3aa4ed" opacity="1.00" d=" M 25.36 132.35 C 31.59 130.97 33.17 138.36 32.26 143.00 C 31.04 150.23 36.25 158.29 44.00 158.27 C 78.00 158.35 112.01 158.28 146.01 158.26 C 153.01 158.54 158.90 151.87 158.29 144.99 C 158.35 140.49 156.97 133.18 163.15 132.20 C 170.23 131.59 169.91 140.13 169.52 145.00 C 170.48 159.17 156.95 171.33 143.00 169.59 C 110.31 169.54 77.63 169.58 44.94 169.55 C 36.06 169.75 27.36 164.45 23.54 156.41 C 20.53 150.74 21.06 144.14 21.14 137.95 C 21.01 135.40 22.86 132.92 25.36 132.35 Z" />
</g>
</svg>
