<?xml version="1.0" encoding="UTF-8" ?>
<!DOCTYPE svg PUBLIC "-//W3C//DTD SVG 1.1//EN" "http://www.w3.org/Graphics/SVG/1.1/DTD/svg11.dtd">
<svg width="192pt" height="192pt" viewBox="0 0 192 192" version="1.1" xmlns="http://www.w3.org/2000/svg">
<g id="#606f81ff">
<path fill="#606f81" opacity="1.00" d=" M 55.61 23.66 C 67.07 15.69 81.39 13.51 95.03 12.86 C 113.62 12.00 132.92 16.67 147.73 28.28 C 150.90 30.71 150.39 36.00 147.38 38.36 C 143.13 42.12 138.81 45.80 134.85 49.87 C 131.98 52.95 126.93 54.40 123.32 51.71 C 115.50 45.91 105.66 43.29 95.99 43.46 C 88.55 43.23 80.20 45.24 75.60 51.57 C 71.72 56.03 72.51 63.33 76.60 67.40 C 81.91 72.84 89.44 75.03 96.35 77.69 C 110.85 83.03 126.31 86.84 138.99 96.06 C 146.72 101.53 152.84 109.42 155.49 118.57 C 161.05 134.69 154.92 154.08 140.90 163.90 C 120.07 179.68 91.65 180.02 67.26 173.85 C 63.17 172.53 62.42 166.38 65.98 164.03 C 68.68 161.95 72.09 163.53 75.05 164.00 C 92.36 167.46 111.29 167.59 127.28 159.22 C 134.98 154.96 142.61 148.77 144.78 139.82 C 148.81 127.75 143.71 113.84 133.70 106.30 C 122.57 97.65 108.60 94.19 95.59 89.44 C 85.47 85.73 74.32 82.41 67.18 73.80 C 60.29 65.77 59.75 52.81 66.67 44.63 C 73.33 35.54 85.12 31.86 96.00 32.14 C 107.13 32.00 118.29 34.85 127.71 40.84 C 130.27 38.51 132.75 36.11 135.32 33.79 C 118.39 22.82 96.62 22.45 77.41 26.48 C 62.61 29.37 48.45 41.25 47.15 56.93 C 45.76 68.54 52.58 79.65 62.03 85.91 C 79.68 97.91 102.25 99.20 120.00 110.98 C 128.77 116.87 133.62 128.54 129.89 138.71 C 125.55 150.82 112.24 157.17 100.05 157.68 C 84.87 158.60 69.51 154.51 56.72 146.29 C 53.79 148.46 51.21 151.07 48.45 153.43 C 53.75 156.04 53.32 164.48 47.00 165.24 C 40.81 163.66 30.74 158.00 35.26 150.33 C 41.21 144.94 46.79 138.95 53.56 134.56 C 58.99 132.21 63.05 137.55 67.59 139.50 C 80.38 146.02 96.17 149.18 109.89 143.86 C 115.37 141.71 120.48 136.44 119.71 130.15 C 119.17 123.69 113.28 119.63 107.93 117.06 C 90.68 108.86 70.94 106.14 55.12 94.91 C 43.75 87.10 35.62 74.00 35.64 59.98 C 35.28 45.42 43.77 31.69 55.61 23.66 Z" />
</g>
</svg>
