<?xml version="1.0" encoding="UTF-8" ?>
<!DOCTYPE svg PUBLIC "-//W3C//DTD SVG 1.1//EN" "http://www.w3.org/Graphics/SVG/1.1/DTD/svg11.dtd">
<svg width="192pt" height="192pt" viewBox="0 0 192 192" version="1.1" xmlns="http://www.w3.org/2000/svg">
<g id="#1ab1ffff">
<path fill="#1ab1ff" opacity="1.00" d=" M 36.46 30.42 C 38.57 24.45 47.03 23.18 51.00 28.01 C 61.27 39.74 71.25 51.75 81.38 63.61 C 82.30 64.82 83.64 65.55 85.07 66.01 C 106.39 73.71 127.65 81.56 148.97 89.25 C 151.63 82.26 159.82 82.29 165.43 85.48 C 171.18 87.07 179.35 90.29 177.53 97.84 C 174.09 108.35 170.23 118.79 166.12 129.07 C 162.30 136.38 153.46 132.65 147.69 130.25 C 141.55 129.19 136.64 123.53 138.71 117.17 C 136.76 116.47 134.81 115.76 132.86 115.06 C 132.38 132.95 118.82 149.19 101.70 153.79 C 87.27 157.52 70.59 153.84 60.34 142.66 C 49.47 131.77 44.94 114.75 50.12 100.11 C 51.64 96.23 57.59 95.77 59.79 99.26 C 61.94 102.29 59.80 105.92 59.55 109.18 C 57.05 125.90 70.83 143.28 87.91 143.79 C 103.18 145.58 118.25 133.96 121.08 119.01 C 121.99 114.76 121.18 110.42 121.34 106.13 C 121.53 102.39 126.03 100.06 129.32 101.70 C 135.56 104.09 141.93 106.17 148.06 108.83 C 151.95 110.75 151.86 115.64 150.38 119.12 C 152.58 119.98 154.80 120.81 157.02 121.60 C 159.97 113.62 162.94 105.65 165.76 97.63 C 163.56 96.82 161.35 96.01 159.14 95.23 C 158.12 99.40 154.08 103.08 149.60 101.44 C 126.06 93.03 102.62 84.31 79.12 75.78 C 74.86 74.46 72.59 70.36 69.75 67.26 C 61.55 57.78 53.71 47.99 45.29 38.71 C 39.12 55.59 32.88 72.45 26.86 89.38 C 33.07 88.63 39.17 86.90 45.41 86.52 C 50.81 86.86 52.13 95.16 47.07 97.12 C 39.48 98.91 31.70 99.98 24.00 101.24 C 17.91 102.18 12.57 95.57 14.75 89.82 C 21.88 69.99 29.06 50.15 36.46 30.42 Z" />
<path fill="#1ab1ff" opacity="1.00" d=" M 86.43 89.60 C 102.31 86.10 117.84 102.14 113.78 117.89 C 111.08 133.65 91.01 142.22 77.77 133.20 C 69.40 128.11 65.00 117.56 67.06 108.01 C 68.83 98.60 77.03 91.04 86.43 89.60 M 85.36 101.53 C 77.68 104.39 75.36 115.15 80.87 121.11 C 86.71 128.73 100.12 125.94 102.48 116.63 C 106.09 106.81 94.64 96.87 85.36 101.53 Z" />
</g>
</svg>
