<?xml version="1.0" encoding="UTF-8" ?>
<!DOCTYPE svg PUBLIC "-//W3C//DTD SVG 1.1//EN" "http://www.w3.org/Graphics/SVG/1.1/DTD/svg11.dtd">
<svg width="192pt" height="192pt" viewBox="0 0 192 192" version="1.1" xmlns="http://www.w3.org/2000/svg">
<g id="#cb36b1ff">
<path fill="#cb36b1" opacity="1.00" d=" M 22.15 42.93 C 22.47 31.07 33.17 20.73 45.02 20.76 C 56.36 20.76 67.70 20.68 79.03 20.80 C 84.79 21.28 85.36 30.44 79.73 31.62 C 68.17 32.04 56.57 31.62 44.99 31.82 C 38.78 32.13 33.09 37.58 33.27 43.93 C 33.20 59.65 33.35 75.36 33.20 91.08 C 55.79 68.70 78.16 46.12 100.70 23.69 C 102.34 21.97 104.57 20.69 107.01 20.75 C 120.33 20.69 133.66 20.74 146.99 20.71 C 152.88 20.60 158.83 22.82 163.14 26.85 C 165.51 29.08 165.75 33.14 163.56 35.57 C 123.14 76.54 81.82 116.71 41.73 157.95 C 56.11 158.86 70.59 158.17 85.01 158.32 C 110.43 133.33 135.48 107.92 160.74 82.77 C 164.62 80.05 171.04 83.02 170.91 87.95 C 170.85 107.65 171.01 127.36 170.85 147.07 C 170.63 158.69 160.55 168.99 148.94 169.50 C 138.98 169.60 129.00 169.65 119.04 169.47 C 113.25 168.94 112.74 159.76 118.40 158.54 C 128.56 157.89 138.81 158.59 148.99 158.18 C 154.90 157.56 159.72 152.00 159.65 146.08 C 159.68 130.69 159.68 115.29 159.64 99.90 C 138.18 121.02 117.03 142.45 95.70 163.69 C 93.20 166.09 90.78 169.39 86.97 169.46 C 73.32 169.58 59.67 169.48 46.01 169.51 C 40.27 169.61 34.49 167.53 30.08 163.88 C 27.28 161.74 26.31 157.43 28.63 154.58 C 69.23 113.77 110.31 73.35 150.62 32.26 C 138.12 31.37 125.54 32.10 113.00 31.84 C 111.22 32.04 108.98 31.24 107.61 32.79 C 82.62 57.79 57.59 82.76 32.64 107.80 C 28.95 111.12 21.81 108.21 22.08 103.07 C 22.15 83.02 22.02 62.97 22.15 42.93 Z" />
</g>
</svg>
