<?xml version="1.0" encoding="UTF-8" ?>
<!DOCTYPE svg PUBLIC "-//W3C//DTD SVG 1.1//EN" "http://www.w3.org/Graphics/SVG/1.1/DTD/svg11.dtd">
<svg width="192pt" height="192pt" viewBox="0 0 192 192" version="1.1" xmlns="http://www.w3.org/2000/svg">
<g id="#1ab1ffff">
<path fill="#1ab1ff" opacity="1.00" d=" M 169.41 25.46 C 174.27 22.59 180.03 29.23 176.89 33.78 C 169.27 41.20 161.94 48.94 154.41 56.46 C 154.30 78.65 154.44 100.85 154.35 123.04 C 154.53 126.44 151.38 129.18 148.08 129.03 C 113.37 129.36 78.66 128.68 43.94 128.88 C 41.00 129.25 38.26 127.25 37.57 124.41 C 29.84 101.15 22.03 77.92 14.40 54.64 C 12.76 50.37 17.46 45.70 21.72 47.32 C 26.36 49.03 26.25 54.86 28.08 58.72 C 60.38 58.86 92.70 58.53 125.00 58.87 C 131.12 59.64 131.17 69.59 125.01 70.35 C 94.02 70.63 63.01 70.40 32.01 70.45 C 37.25 86.07 42.13 101.84 47.80 117.30 C 79.40 117.05 111.01 117.30 142.62 117.13 C 142.58 96.08 142.73 75.03 142.67 53.98 C 142.60 52.04 142.90 49.86 144.59 48.62 C 153.10 41.16 160.91 32.93 169.41 25.46 Z" />
<path fill="#1ab1ff" opacity="1.00" d=" M 66.43 139.55 C 73.88 138.09 81.59 144.40 81.60 152.00 C 82.07 158.99 75.98 165.47 69.01 165.53 C 62.06 165.97 55.63 159.94 55.50 153.01 C 55.08 146.60 60.08 140.46 66.43 139.55 Z" />
<path fill="#1ab1ff" opacity="1.00" d=" M 115.38 140.49 C 124.87 135.69 136.65 145.86 133.29 155.95 C 131.05 166.01 116.42 168.95 110.44 160.58 C 105.10 154.31 107.74 143.57 115.38 140.49 Z" />
</g>
</svg>
