<?xml version="1.0" encoding="UTF-8" ?>
<!DOCTYPE svg PUBLIC "-//W3C//DTD SVG 1.1//EN" "http://www.w3.org/Graphics/SVG/1.1/DTD/svg11.dtd">
<svg width="192pt" height="192pt" viewBox="0 0 192 192" version="1.1" xmlns="http://www.w3.org/2000/svg">
<g id="#45e371ff">
<path fill="#45e371" opacity="1.00" d=" M 38.28 19.31 C 68.45 17.97 98.78 19.11 129.00 18.73 C 136.23 18.99 143.55 18.12 150.71 19.33 C 160.94 21.60 168.92 31.41 168.82 41.93 C 168.88 75.97 168.87 110.02 168.83 144.06 C 169.16 156.35 158.34 167.47 146.06 167.52 C 111.69 167.59 77.32 167.57 42.95 167.52 C 30.61 167.52 19.78 156.37 20.06 144.04 C 20.04 110.01 20.01 75.97 20.08 41.94 C 19.97 31.37 28.00 21.54 38.28 19.31 M 40.28 30.35 C 35.23 31.74 31.19 36.59 31.30 41.93 C 31.24 75.97 31.28 110.02 31.28 144.07 C 31.06 150.50 36.78 156.37 43.22 156.31 C 77.13 156.36 111.04 156.30 144.94 156.32 C 151.65 156.70 157.81 150.80 157.65 144.07 C 157.69 110.02 157.73 75.97 157.64 41.92 C 157.71 34.88 150.87 29.24 144.01 29.82 C 109.45 30.19 74.77 29.11 40.28 30.35 Z" />
<path fill="#45e371" opacity="1.00" d=" M 97.66 64.48 C 99.80 61.86 105.35 62.58 108.17 63.84 C 109.60 68.70 108.44 74.16 108.77 79.25 C 116.43 74.11 132.40 75.13 133.34 86.66 C 133.88 97.84 134.01 109.20 133.32 120.35 C 130.44 122.45 121.02 123.20 122.26 117.04 C 122.20 108.35 122.44 99.66 122.18 90.97 C 122.93 83.57 108.19 83.56 108.91 90.95 C 108.27 101.07 109.63 111.31 108.22 121.35 C 104.72 121.06 97.23 123.61 97.41 117.99 C 97.54 100.16 97.05 82.28 97.66 64.48 Z" />
<path fill="#45e371" opacity="1.00" d=" M 63.68 77.77 C 69.82 76.03 76.48 76.27 82.72 77.32 C 88.72 78.32 92.29 86.35 89.33 91.35 C 86.23 92.00 83.02 91.74 79.92 91.22 C 80.72 85.01 73.41 83.65 69.25 86.24 C 67.66 88.54 67.80 93.28 71.31 93.77 C 77.50 96.08 85.78 95.21 90.13 100.92 C 92.25 107.11 92.80 116.48 86.40 120.37 C 79.93 122.98 72.55 122.47 65.80 121.35 C 59.98 120.34 57.26 113.67 58.41 108.37 C 60.10 106.04 63.59 107.18 66.07 107.02 C 70.51 106.66 67.89 114.39 73.00 113.50 C 78.31 115.37 82.88 110.21 79.60 105.43 C 73.06 101.87 63.66 103.69 58.70 97.37 C 56.47 91.01 56.14 80.69 63.68 77.77 Z" />
</g>
</svg>
