<?xml version="1.0" encoding="UTF-8" ?>
<!DOCTYPE svg PUBLIC "-//W3C//DTD SVG 1.1//EN" "http://www.w3.org/Graphics/SVG/1.1/DTD/svg11.dtd">
<svg width="192pt" height="192pt" viewBox="0 0 192 192" version="1.1" xmlns="http://www.w3.org/2000/svg">
<g id="#ff633cff">
<path fill="#ff633c" opacity="1.00" d=" M 38.36 22.45 C 41.51 21.67 44.78 21.71 48.00 21.71 C 81.00 21.80 114.01 21.62 147.01 21.79 C 160.31 21.99 171.04 34.93 169.59 48.01 C 170.61 52.60 165.72 57.26 161.34 54.73 C 157.59 52.96 158.49 48.33 158.26 44.97 C 158.34 38.95 153.14 33.29 147.07 33.15 C 113.38 32.64 79.68 32.98 45.99 32.86 C 40.75 32.52 35.14 34.94 32.89 39.90 C 30.88 43.72 32.25 48.19 31.14 52.19 C 29.47 56.14 23.30 56.43 21.28 52.64 C 17.40 40.20 25.37 25.29 38.36 22.45 Z" />
<path fill="#ff633c" opacity="1.00" d=" M 41.87 60.17 C 44.09 60.17 46.32 60.23 48.54 60.36 C 48.64 63.47 48.65 66.58 48.59 69.69 C 53.39 67.79 61.89 67.16 63.44 73.55 C 64.54 80.93 64.26 88.48 63.73 95.90 C 61.53 95.99 59.33 95.99 57.14 95.90 C 56.25 88.90 57.77 81.69 56.22 74.79 C 54.05 73.85 51.64 74.32 49.36 74.38 C 47.88 81.41 48.99 88.65 48.59 95.78 C 46.34 95.97 44.09 96.00 41.83 95.94 C 41.51 84.03 41.49 72.08 41.87 60.17 Z" />
<path fill="#ff633c" opacity="1.00" d=" M 97.26 62.96 C 99.45 62.86 101.64 62.83 103.84 62.86 C 103.99 64.82 104.12 66.78 104.22 68.74 C 106.09 68.82 107.97 68.93 109.85 69.08 C 109.90 70.82 109.92 72.56 109.93 74.30 C 108.01 74.40 106.09 74.47 104.17 74.52 C 104.17 79.84 104.09 85.17 104.24 90.49 C 106.13 90.65 108.03 90.81 109.92 90.99 C 112.33 98.19 101.87 97.59 98.26 94.64 C 95.79 88.33 97.63 81.14 96.95 74.48 C 96.11 74.45 94.43 74.38 93.59 74.35 C 93.46 72.70 93.37 71.05 93.27 69.40 C 94.51 69.16 95.74 68.91 96.98 68.66 C 97.04 66.76 97.14 64.86 97.26 62.96 Z" />
<path fill="#ff633c" opacity="1.00" d=" M 115.29 63.09 C 117.53 62.87 119.79 62.81 122.05 62.87 C 122.16 64.82 122.24 66.77 122.31 68.72 C 124.15 68.80 126.00 68.91 127.84 69.03 C 127.98 70.78 128.10 72.53 128.21 74.28 C 126.23 74.39 124.26 74.48 122.29 74.54 C 122.30 79.86 122.23 85.18 122.35 90.49 C 124.21 90.64 126.07 90.80 127.93 90.96 C 127.95 92.68 127.94 94.41 127.93 96.14 C 123.94 96.07 117.71 98.06 115.70 93.35 C 114.59 87.17 115.44 80.81 115.15 74.55 C 114.23 74.48 112.41 74.34 111.50 74.26 C 111.51 72.55 111.54 70.84 111.59 69.13 C 112.48 69.03 114.25 68.83 115.14 68.74 C 115.17 66.85 115.22 64.97 115.29 63.09 Z" />
<path fill="#ff633c" opacity="1.00" d=" M 20.40 69.44 C 26.96 67.12 38.83 67.65 37.53 77.44 C 35.45 77.62 33.37 77.72 31.28 77.78 C 30.78 76.47 30.30 75.16 29.81 73.85 C 26.28 72.96 22.39 74.38 24.14 78.61 C 28.36 80.11 33.57 79.84 36.96 83.05 C 38.77 87.31 38.79 95.09 32.91 96.03 C 26.54 97.71 15.42 96.43 17.78 87.21 C 19.67 87.19 21.56 87.18 23.45 87.20 C 23.28 92.43 32.99 92.76 31.15 87.08 C 27.85 83.22 19.94 85.76 17.57 80.43 C 16.76 76.76 16.48 71.45 20.40 69.44 Z" />
<path fill="#ff633c" opacity="1.00" d=" M 68.69 68.86 C 70.85 68.88 73.01 68.92 75.17 68.98 C 75.75 75.26 75.20 81.56 75.52 87.84 C 75.45 91.61 80.68 91.21 83.01 89.98 C 84.50 83.14 83.10 75.98 83.81 69.02 C 85.97 68.93 88.14 68.87 90.31 68.84 C 91.01 77.81 90.52 86.82 90.60 95.80 C 87.34 96.42 84.05 94.93 80.86 96.03 C 76.29 97.27 69.22 96.43 68.68 90.57 C 68.12 83.37 68.15 76.07 68.69 68.86 Z" />
<path fill="#ff633c" opacity="1.00" d=" M 131.10 74.98 C 132.03 67.08 142.16 68.05 147.90 69.00 C 154.57 70.61 153.43 78.89 153.23 84.10 C 148.07 84.34 142.91 84.23 137.75 84.27 C 137.88 86.35 137.76 88.51 138.49 90.50 C 142.01 92.62 146.55 91.26 147.10 86.90 C 149.13 86.96 151.17 87.06 153.20 87.18 C 154.76 98.03 140.00 98.24 133.41 94.56 C 129.00 89.26 131.21 81.35 131.10 74.98 M 137.99 79.54 C 140.75 79.56 143.51 79.60 146.27 79.65 C 149.03 71.55 135.21 71.43 137.99 79.54 Z" />
<path fill="#ff633c" opacity="1.00" d=" M 157.40 69.10 C 159.91 68.79 162.57 68.57 164.61 70.40 C 167.16 69.14 169.99 68.74 172.82 68.90 C 172.98 70.75 173.14 72.61 173.28 74.46 C 170.32 74.85 167.33 74.90 164.35 74.88 C 164.26 81.91 164.51 88.94 164.18 95.97 C 161.90 96.04 159.63 95.99 157.36 95.76 C 157.24 86.88 157.19 77.98 157.40 69.10 Z" />
<path fill="#ff633c" opacity="1.00" d=" M 25.35 103.32 C 28.61 102.79 31.82 105.69 31.60 109.00 C 31.78 122.01 31.48 135.03 31.72 148.04 C 31.99 154.31 37.66 159.66 43.94 159.55 C 77.95 159.62 111.97 159.61 145.98 159.55 C 152.27 159.66 158.03 154.34 158.25 148.03 C 158.63 134.48 157.93 120.89 158.57 107.37 C 159.68 101.67 168.99 102.18 169.41 108.01 C 169.73 121.32 169.51 134.66 169.52 147.98 C 169.44 159.86 158.98 170.54 147.06 170.69 C 112.69 170.77 78.31 170.70 43.93 170.71 C 31.69 171.06 20.63 160.25 20.51 148.05 C 20.44 135.04 20.43 122.02 20.51 109.01 C 20.37 106.22 22.54 103.58 25.35 103.32 Z" />
<path fill="#ff633c" opacity="1.00" d=" M 74.30 103.39 C 80.59 102.76 86.95 103.29 93.23 103.90 C 93.61 115.71 93.50 127.55 93.30 139.37 C 91.01 139.39 88.72 139.31 86.45 139.04 C 86.33 128.79 86.45 118.53 86.36 108.27 C 83.63 108.30 80.91 108.31 78.19 108.33 C 78.04 109.46 77.88 110.59 77.71 111.71 C 79.69 111.96 81.67 112.20 83.65 112.47 C 83.67 114.18 83.67 115.89 83.65 117.60 C 81.73 117.70 79.81 117.77 77.89 117.84 C 77.62 124.80 78.24 131.81 77.59 138.75 C 75.82 140.17 73.09 139.02 70.95 139.17 C 70.65 132.11 70.91 125.05 70.75 117.99 C 69.46 117.74 68.17 117.49 66.88 117.23 C 66.99 115.62 67.09 114.02 67.22 112.41 C 68.39 112.25 69.57 112.09 70.74 111.92 C 70.92 108.92 70.15 103.89 74.30 103.39 Z" />
<path fill="#ff633c" opacity="1.00" d=" M 96.65 112.25 C 98.74 112.18 100.82 112.15 102.91 112.15 C 105.30 118.20 106.70 124.57 108.72 130.75 C 110.57 125.18 112.14 119.53 114.03 113.98 C 114.90 110.85 118.98 112.56 121.30 112.20 C 118.82 123.48 114.53 134.28 111.31 145.36 C 110.85 149.18 106.42 147.93 103.78 147.84 C 104.33 145.17 105.08 142.55 105.87 139.94 C 101.56 131.24 99.22 121.59 96.65 112.25 Z" />
</g>
</svg>
