<?xml version="1.0" encoding="UTF-8" ?>
<!DOCTYPE svg PUBLIC "-//W3C//DTD SVG 1.1//EN" "http://www.w3.org/Graphics/SVG/1.1/DTD/svg11.dtd">
<svg width="192pt" height="192pt" viewBox="0 0 192 192" version="1.1" xmlns="http://www.w3.org/2000/svg">
<g id="#1bb4ffff">
<path fill="#1bb4ff" opacity="1.00" d=" M 55.79 30.98 C 55.70 25.11 61.02 19.88 66.94 20.42 C 81.63 20.78 96.45 19.61 111.05 20.87 C 117.63 31.44 123.42 42.53 129.73 53.27 C 131.07 56.07 134.83 54.39 137.05 55.91 C 140.01 57.38 141.02 60.86 140.85 63.95 C 140.73 78.32 140.84 92.70 140.81 107.08 C 141.16 111.81 136.61 115.47 132.06 114.67 C 118.57 114.25 107.20 127.77 109.84 141.01 C 111.65 153.57 125.68 162.73 137.88 158.91 C 147.57 156.44 154.90 147.11 154.75 137.06 C 154.91 105.08 154.84 73.09 154.80 41.10 C 148.28 40.90 141.70 41.56 135.23 40.77 C 129.96 39.62 129.88 31.26 135.08 29.92 C 142.02 29.41 149.04 29.66 156.00 29.79 C 161.82 29.93 166.40 35.25 166.17 40.98 C 166.26 73.31 166.25 105.64 166.18 137.97 C 165.99 152.73 155.08 166.27 140.85 169.97 C 126.24 174.37 109.63 166.87 102.33 153.69 C 95.49 141.72 97.23 125.62 106.18 115.19 C 111.96 108.32 120.57 104.24 129.42 103.21 C 129.36 90.98 129.42 78.75 129.42 66.52 C 127.34 66.24 124.44 67.04 123.30 64.69 C 116.81 53.75 110.95 42.42 104.23 31.62 C 91.89 31.79 79.55 31.64 67.21 31.68 C 67.05 53.80 67.28 75.93 67.10 98.05 C 67.26 102.88 62.33 105.80 57.93 105.28 C 44.77 105.15 33.72 118.73 36.54 131.61 C 38.12 143.04 49.68 151.49 61.02 150.13 C 71.67 149.25 80.75 139.74 81.04 129.04 C 81.32 103.07 80.86 77.07 81.29 51.10 C 82.99 43.01 93.12 46.24 99.00 45.65 C 103.48 44.60 108.40 48.79 106.45 53.42 C 104.01 58.82 97.14 56.71 92.49 57.12 C 92.46 81.40 92.62 105.68 92.42 129.96 C 91.82 147.14 76.16 161.92 58.99 161.64 C 42.38 162.08 26.75 148.73 25.10 132.09 C 21.97 113.62 37.26 95.17 55.74 93.85 C 55.75 72.90 55.65 51.93 55.79 30.98 Z" />
</g>
</svg>
