<?xml version="1.0" encoding="UTF-8" ?>
<!DOCTYPE svg PUBLIC "-//W3C//DTD SVG 1.1//EN" "http://www.w3.org/Graphics/SVG/1.1/DTD/svg11.dtd">
<svg width="192pt" height="192pt" viewBox="0 0 192 192" version="1.1" xmlns="http://www.w3.org/2000/svg">
<g id="#45e372ff">
<path fill="#45e372" opacity="1.00" d=" M 43.98 21.96 C 50.99 19.22 58.64 19.92 66.00 19.79 C 89.33 19.87 112.66 19.63 135.99 19.92 C 154.09 20.35 170.11 36.05 171.32 54.04 C 171.48 59.35 171.66 64.70 171.22 69.99 C 170.64 75.44 165.42 79.45 160.05 79.12 C 144.69 79.14 129.31 79.46 113.97 78.96 C 105.47 78.13 103.38 68.80 100.79 62.23 C 91.88 61.49 82.89 61.72 73.97 62.16 C 73.62 68.43 76.63 75.05 82.91 77.14 C 109.95 87.46 139.45 84.31 167.74 85.30 C 173.75 86.36 173.13 96.05 167.03 96.31 C 142.62 96.35 117.86 97.43 93.83 92.24 C 86.31 90.37 78.44 88.56 72.11 83.86 C 64.34 78.12 61.43 67.46 63.28 58.25 C 64.47 53.05 70.02 50.39 75.01 50.67 C 84.29 50.84 93.68 49.94 102.89 51.19 C 110.79 52.86 112.45 61.46 115.18 67.76 C 130.15 67.93 145.12 67.89 160.09 67.79 C 160.07 63.50 160.27 59.22 159.98 54.94 C 159.11 42.00 147.08 30.73 134.02 31.19 C 108.00 31.09 81.97 31.08 55.95 31.20 C 42.74 31.02 30.79 42.77 30.52 55.93 C 30.36 69.27 30.50 82.61 30.41 95.95 C 53.35 94.55 76.66 94.63 99.15 99.88 C 106.68 101.90 114.72 103.94 120.53 109.47 C 126.73 115.22 128.59 124.32 127.54 132.44 C 126.64 137.76 121.15 141.06 115.98 140.55 C 106.36 140.25 96.65 141.18 87.10 140.03 C 79.43 138.28 78.19 129.61 75.23 123.62 C 60.31 123.71 45.39 123.64 30.47 123.65 C 30.56 130.84 29.62 138.45 32.86 145.14 C 36.93 154.44 46.83 160.62 56.94 160.45 C 82.65 160.45 108.35 160.50 134.05 160.41 C 146.32 160.81 157.86 150.98 159.76 138.93 C 160.59 128.67 159.77 118.35 160.27 108.09 C 161.09 102.32 170.30 102.28 171.27 108.01 C 171.67 117.31 171.45 126.65 171.36 135.97 C 171.22 154.94 153.96 171.77 135.04 171.68 C 108.68 171.76 82.31 171.74 55.94 171.68 C 41.19 171.71 27.06 161.93 21.82 148.15 C 18.42 139.90 19.06 130.80 19.28 122.08 C 19.45 116.60 24.50 112.16 29.93 112.44 C 45.81 112.51 61.72 112.08 77.58 112.65 C 85.69 113.99 86.90 123.14 89.92 129.26 C 98.83 129.19 107.73 129.37 116.63 129.17 C 117.12 122.30 113.03 115.69 106.26 113.85 C 80.86 105.23 53.39 105.59 26.97 107.74 C 23.01 108.33 19.27 105.01 19.27 101.04 C 19.00 86.01 19.14 70.97 19.22 55.94 C 19.35 40.90 29.89 26.90 43.98 21.96 Z" />
</g>
</svg>
