<?xml version="1.0" encoding="UTF-8" ?>
<!DOCTYPE svg PUBLIC "-//W3C//DTD SVG 1.1//EN" "http://www.w3.org/Graphics/SVG/1.1/DTD/svg11.dtd">
<svg width="192pt" height="192pt" viewBox="0 0 192 192" version="1.1" xmlns="http://www.w3.org/2000/svg">
<g id="#af3ad4ff">
<path fill="#af3ad4" opacity="1.00" d=" M 51.52 20.01 C 51.06 16.39 54.42 13.32 57.97 13.72 C 87.65 13.74 117.35 13.59 147.02 13.77 C 154.13 14.27 152.83 23.22 152.05 28.11 C 149.55 34.21 140.45 31.07 141.02 24.86 C 114.89 24.79 88.75 24.80 62.62 24.80 C 62.42 37.72 62.94 50.68 62.39 63.57 C 61.13 69.15 52.08 68.53 51.62 62.83 C 51.35 48.57 51.60 34.28 51.52 20.01 Z" />
<path fill="#af3ad4" opacity="1.00" d=" M 98.23 32.49 C 103.78 32.49 103.01 44.28 97.08 42.25 C 93.71 40.42 93.85 32.95 98.23 32.49 Z" />
<path fill="#af3ad4" opacity="1.00" d=" M 69.39 33.42 C 75.36 28.89 77.88 41.91 71.98 42.46 C 67.50 42.56 67.55 36.09 69.39 33.42 Z" />
<path fill="#af3ad4" opacity="1.00" d=" M 83.24 32.99 C 89.78 29.64 90.73 43.95 84.08 42.37 C 80.67 41.01 80.83 35.15 83.24 32.99 Z" />
<path fill="#af3ad4" opacity="1.00" d=" M 111.33 39.92 C 111.01 36.69 113.60 33.41 116.98 33.63 C 134.65 33.55 152.33 33.55 170.00 33.62 C 173.43 33.33 176.21 36.62 175.82 39.93 C 175.79 76.63 175.92 113.34 175.78 150.04 C 175.84 156.85 164.55 156.86 164.64 150.01 C 164.45 114.99 164.57 79.95 164.60 44.93 C 150.60 44.62 136.59 44.85 122.59 44.79 C 122.59 47.31 122.60 49.83 122.60 52.35 C 131.35 52.50 140.11 52.18 148.85 52.49 C 152.39 52.67 152.59 58.68 148.96 58.93 C 140.19 59.28 131.38 58.95 122.59 59.07 C 122.57 62.36 122.58 65.64 122.60 68.92 C 131.38 69.11 140.17 68.74 148.94 69.09 C 152.55 69.31 152.43 75.38 148.86 75.53 C 140.13 75.87 131.37 75.55 122.62 75.67 C 122.58 78.93 122.56 82.20 122.60 85.47 C 131.27 85.64 139.95 85.32 148.62 85.60 C 152.33 85.60 152.68 91.79 148.97 92.09 C 140.20 92.39 131.40 92.13 122.62 92.19 C 122.57 95.48 122.59 98.76 122.61 102.05 C 131.37 102.24 140.15 101.86 148.90 102.20 C 152.47 102.48 152.51 108.44 148.88 108.67 C 140.11 109.13 131.29 108.40 122.52 109.02 C 122.59 112.21 122.60 115.41 122.59 118.60 C 131.37 118.82 140.18 118.38 148.95 118.81 C 152.71 119.15 152.33 125.38 148.57 125.31 C 139.93 125.58 131.26 125.30 122.61 125.43 C 122.57 128.68 122.59 131.94 122.61 135.19 C 131.37 135.36 140.13 135.00 148.88 135.35 C 152.47 135.61 152.53 141.56 148.91 141.85 C 140.16 142.50 131.37 141.67 122.61 141.99 C 122.58 149.98 122.60 157.97 122.60 165.97 C 138.73 166.11 154.87 165.83 170.99 166.11 C 177.60 166.95 176.73 177.76 170.00 177.47 C 120.68 177.62 71.34 177.54 22.01 177.48 C 17.70 177.90 14.45 172.54 16.79 168.91 C 18.29 165.89 21.95 165.90 24.85 165.87 C 24.80 137.24 24.83 108.60 24.84 79.96 C 24.41 76.47 27.39 73.00 31.00 73.46 C 48.67 73.49 66.35 73.38 84.02 73.49 C 87.35 73.44 89.61 76.87 89.31 79.98 C 89.33 108.64 89.34 137.30 89.31 165.96 C 96.63 166.02 103.96 165.99 111.29 165.99 C 111.33 123.96 111.30 81.94 111.33 39.92 M 35.91 84.54 C 35.93 111.68 35.91 138.81 35.95 165.95 C 49.99 166.05 64.02 165.99 78.06 165.99 C 78.09 138.84 78.09 111.70 78.09 84.55 C 64.03 84.52 49.97 84.52 35.91 84.54 Z" />
<path fill="#af3ad4" opacity="1.00" d=" M 71.34 52.42 C 77.29 51.86 76.37 64.70 70.16 62.03 C 67.35 59.89 67.26 53.18 71.34 52.42 Z" />
<path fill="#af3ad4" opacity="1.00" d=" M 84.37 52.44 C 89.51 51.64 90.06 60.91 85.92 62.28 C 80.58 63.37 79.94 53.62 84.37 52.44 Z" />
<path fill="#af3ad4" opacity="1.00" d=" M 97.41 52.51 C 102.78 51.26 103.58 61.15 99.02 62.35 C 93.92 63.00 93.34 53.94 97.41 52.51 Z" />
<path fill="#af3ad4" opacity="1.00" d=" M 97.43 72.39 C 103.24 71.10 103.61 82.66 97.97 82.30 C 93.78 81.42 93.68 73.82 97.43 72.39 Z" />
<path fill="#af3ad4" opacity="1.00" d=" M 97.32 92.30 C 102.82 90.86 103.64 101.08 98.94 102.14 C 93.89 102.69 93.41 93.92 97.32 92.30 Z" />
<path fill="#af3ad4" opacity="1.00" d=" M 48.39 96.33 C 50.32 94.46 53.98 96.27 53.66 98.96 C 53.76 116.61 53.79 134.28 53.67 151.93 C 54.06 156.16 46.87 156.24 47.22 151.98 C 47.08 134.98 47.25 117.97 47.16 100.96 C 47.30 99.39 46.86 97.36 48.39 96.33 Z" />
<path fill="#af3ad4" opacity="1.00" d=" M 61.44 96.48 C 63.42 94.47 67.25 96.11 66.97 98.97 C 67.17 116.66 67.16 134.38 66.98 152.07 C 67.20 155.88 60.98 156.34 60.56 152.62 C 60.25 135.41 60.56 118.18 60.42 100.97 C 60.55 99.46 60.17 97.62 61.44 96.48 Z" />
<path fill="#af3ad4" opacity="1.00" d=" M 97.22 112.22 C 103.12 110.45 103.78 122.29 98.02 122.14 C 93.85 121.19 93.68 113.94 97.22 112.22 Z" />
<path fill="#af3ad4" opacity="1.00" d=" M 97.13 132.01 C 101.31 130.92 102.51 135.77 101.70 138.88 C 101.74 142.37 96.31 143.02 95.23 139.84 C 94.79 137.18 94.28 133.52 97.13 132.01 Z" />
</g>
</svg>
