<?xml version="1.0" encoding="UTF-8" ?>
<!DOCTYPE svg PUBLIC "-//W3C//DTD SVG 1.1//EN" "http://www.w3.org/Graphics/SVG/1.1/DTD/svg11.dtd">
<svg width="192pt" height="192pt" viewBox="0 0 192 192" version="1.1" xmlns="http://www.w3.org/2000/svg">
<g id="#1ab0ffff">
<path fill="#1ab0ff" opacity="1.00" d=" M 91.35 14.43 C 109.70 11.56 128.20 18.56 143.18 28.79 C 159.87 39.94 170.30 58.36 175.64 77.33 C 181.55 100.97 174.80 126.92 159.85 145.86 C 155.00 150.63 147.28 142.89 151.88 137.95 C 166.44 118.35 171.45 90.87 160.58 68.41 C 150.61 42.67 123.66 23.99 95.93 25.19 C 81.49 25.60 70.68 40.15 71.73 53.98 C 72.89 63.57 80.48 71.17 88.98 75.01 C 97.77 78.89 107.32 80.79 115.97 85.05 C 130.25 91.64 143.00 102.70 149.53 117.19 C 151.31 122.93 142.41 126.89 139.49 121.56 C 133.59 110.54 124.23 101.49 112.94 96.09 C 101.80 90.23 88.79 88.78 78.16 81.86 C 68.93 75.88 61.64 66.08 60.56 54.93 C 59.04 36.41 72.47 17.13 91.35 14.43 Z" />
<path fill="#1ab0ff" opacity="1.00" d=" M 33.39 44.53 C 38.39 41.85 43.91 48.83 40.10 53.05 C 25.34 72.88 20.31 100.75 31.55 123.40 C 40.52 146.34 62.75 162.67 86.93 165.96 C 95.92 167.14 106.04 165.36 112.40 158.41 C 119.84 150.36 123.32 137.04 116.49 127.55 C 110.12 117.44 98.03 114.10 87.33 110.71 C 68.87 104.90 51.57 92.94 42.83 75.26 C 40.61 71.41 44.54 66.17 48.86 67.28 C 51.74 67.63 52.92 70.56 54.25 72.73 C 60.97 84.59 72.55 93.04 85.11 97.90 C 94.37 101.69 104.48 103.52 113.02 108.93 C 122.85 114.95 130.55 125.33 131.43 137.05 C 132.08 147.57 127.84 158.09 120.91 165.91 C 113.23 174.48 101.30 178.13 90.03 177.49 C 73.91 176.63 58.53 169.87 45.71 160.29 C 31.50 149.66 22.43 133.53 17.11 116.88 C 9.90 93.08 16.32 66.60 30.83 46.85 C 31.55 45.95 32.33 45.03 33.39 44.53 Z" />
</g>
</svg>
