<?xml version="1.0" encoding="UTF-8" ?>
<!DOCTYPE svg PUBLIC "-//W3C//DTD SVG 1.1//EN" "http://www.w3.org/Graphics/SVG/1.1/DTD/svg11.dtd">
<svg width="192pt" height="192pt" viewBox="0 0 192 192" version="1.1" xmlns="http://www.w3.org/2000/svg">
<g id="#2ab9a1ff">
<path fill="#2ab9a1" opacity="1.00" d=" M 40.30 21.34 C 43.81 20.56 47.43 20.75 51.00 20.74 C 83.34 20.78 115.67 20.69 148.01 20.76 C 160.21 20.73 171.00 31.75 170.84 43.93 C 170.91 77.97 170.92 112.02 170.88 146.07 C 171.18 158.38 160.36 169.52 148.04 169.55 C 113.69 169.62 79.32 169.58 44.96 169.53 C 32.63 169.53 21.79 158.39 22.08 146.06 C 22.06 112.02 22.07 77.97 22.12 43.92 C 21.99 33.37 30.05 23.57 40.30 21.34 M 42.28 32.33 C 37.21 33.71 33.15 38.58 33.29 43.93 C 33.25 77.98 33.28 112.02 33.29 146.07 C 33.03 152.81 39.28 158.77 45.99 158.33 C 79.66 158.31 113.34 158.31 147.02 158.28 C 153.70 158.66 159.77 152.73 159.63 146.06 C 159.68 112.02 159.71 77.97 159.63 43.93 C 159.70 36.89 152.89 31.27 146.04 31.83 C 111.47 32.19 76.77 31.06 42.28 32.33 Z" />
<path fill="#2ab9a1" opacity="1.00" d=" M 57.91 79.17 C 55.99 76.83 55.57 70.04 60.02 70.50 C 69.67 70.46 79.32 70.46 88.97 70.49 C 93.67 70.15 92.71 76.60 91.36 79.41 C 87.49 79.38 83.61 79.51 79.74 79.44 C 79.53 92.78 80.16 106.14 79.43 119.46 C 76.23 119.34 72.13 120.90 69.55 118.58 C 68.92 105.57 69.51 92.48 69.27 79.44 C 65.49 79.34 61.67 79.71 57.91 79.17 Z" />
<path fill="#2ab9a1" opacity="1.00" d=" M 94.79 70.79 C 98.32 70.90 104.52 68.57 105.72 73.34 C 108.94 84.68 111.91 96.10 115.12 107.45 C 118.78 95.45 121.42 83.12 125.39 71.24 C 128.42 69.67 132.10 70.67 135.38 70.73 C 131.92 86.87 126.47 102.73 121.46 118.46 C 117.56 120.51 108.40 121.67 107.54 115.43 C 103.49 100.50 97.90 85.91 94.79 70.79 Z" />
</g>
</svg>
