<?xml version="1.0" encoding="UTF-8" ?>
<!DOCTYPE svg PUBLIC "-//W3C//DTD SVG 1.1//EN" "http://www.w3.org/Graphics/SVG/1.1/DTD/svg11.dtd">
<svg width="192pt" height="192pt" viewBox="0 0 192 192" version="1.1" xmlns="http://www.w3.org/2000/svg">
<g id="#1ab1ffff">
<path fill="#1ab1ff" opacity="1.00" d=" M 83.37 14.48 C 91.83 10.95 104.15 15.80 104.21 25.98 C 103.65 39.79 91.47 51.84 77.99 53.60 C 70.08 54.74 61.69 48.31 62.28 40.00 C 62.97 28.22 72.69 18.39 83.37 14.48 M 73.30 41.58 C 82.70 44.28 92.62 34.41 92.98 25.19 C 83.54 23.10 74.01 32.44 73.30 41.58 Z" />
<path fill="#1ab1ff" opacity="1.00" d=" M 149.36 15.48 C 160.09 11.48 174.33 17.66 175.15 29.95 C 175.47 46.03 159.71 57.85 145.01 60.19 C 135.08 62.38 122.33 56.26 122.21 45.02 C 122.09 30.06 136.02 19.11 149.36 15.48 M 151.39 26.59 C 143.56 29.21 135.06 34.67 133.45 43.35 C 132.69 48.47 139.19 49.87 143.03 49.10 C 152.15 47.64 161.94 41.49 163.92 31.95 C 164.23 25.40 156.00 24.56 151.39 26.59 Z" />
<path fill="#1ab1ff" opacity="1.00" d=" M 98.39 53.52 C 110.06 50.85 123.75 55.97 128.63 67.40 C 134.93 80.71 128.84 96.26 119.34 106.35 C 109.67 117.20 94.89 125.23 80.03 121.98 C 68.28 119.67 59.79 107.77 61.06 95.91 C 62.74 75.89 78.55 57.45 98.39 53.52 M 101.36 64.44 C 86.92 66.71 75.69 79.51 72.63 93.41 C 71.11 99.55 73.24 106.92 79.22 109.82 C 87.24 113.60 96.66 110.41 103.47 105.51 C 112.75 98.64 121.78 87.65 119.52 75.35 C 118.10 67.13 109.10 62.68 101.36 64.44 Z" />
<path fill="#1ab1ff" opacity="1.00" d=" M 38.30 75.37 C 45.54 73.34 54.13 77.68 55.47 85.37 C 57.47 99.84 46.87 114.41 33.00 118.23 C 26.35 119.94 18.25 116.74 16.49 109.66 C 12.71 94.94 23.83 78.79 38.30 75.37 M 26.96 105.00 C 26.66 108.24 30.75 107.60 32.56 106.50 C 39.87 102.92 46.02 94.53 44.01 86.14 C 34.33 85.86 26.58 95.80 26.96 105.00 Z" />
<path fill="#1ab1ff" opacity="1.00" d=" M 142.34 100.41 C 151.41 98.91 161.79 100.75 168.14 107.91 C 176.06 116.10 176.20 129.35 171.01 139.03 C 163.70 152.90 145.79 160.99 130.81 155.30 C 122.02 152.12 115.72 143.38 115.32 134.06 C 114.62 118.32 126.87 103.21 142.34 100.41 M 143.44 111.69 C 134.27 113.94 127.13 122.61 126.53 132.01 C 126.10 137.61 129.80 143.13 135.14 144.87 C 149.41 149.82 166.89 135.43 162.67 120.29 C 160.27 112.33 150.75 109.92 143.44 111.69 Z" />
<path fill="#1ab1ff" opacity="1.00" d=" M 62.34 123.42 C 71.24 120.46 81.59 125.49 84.83 134.26 C 90.59 149.87 81.79 169.12 66.60 175.60 C 57.29 179.62 44.83 175.97 40.68 166.32 C 33.45 149.40 45.00 128.27 62.34 123.42 M 64.39 134.54 C 54.32 138.22 47.42 150.18 50.51 160.66 C 52.10 166.05 59.17 167.19 63.57 164.62 C 72.30 159.65 77.59 148.29 74.42 138.55 C 73.12 134.34 68.18 133.14 64.39 134.54 Z" />
</g>
</svg>
