<?xml version="1.0" encoding="UTF-8" ?>
<!DOCTYPE svg PUBLIC "-//W3C//DTD SVG 1.1//EN" "http://www.w3.org/Graphics/SVG/1.1/DTD/svg11.dtd">
<svg width="192pt" height="192pt" viewBox="0 0 192 192" version="1.1" xmlns="http://www.w3.org/2000/svg">
<g id="#1ab1ffff">
<path fill="#1ab1ff" opacity="1.00" d=" M 101.22 13.34 C 133.36 13.84 163.03 37.50 173.29 67.67 C 179.68 86.09 179.56 107.02 171.98 125.05 C 168.79 130.52 159.54 125.96 162.08 120.06 C 168.63 102.11 168.15 81.54 159.75 64.27 C 150.00 43.54 129.67 28.14 106.95 24.80 C 104.22 24.21 100.78 24.65 98.87 22.20 C 96.32 19.45 97.72 14.50 101.22 13.34 Z" />
<path fill="#1ab1ff" opacity="1.00" d=" M 54.35 22.40 C 69.02 16.72 86.61 20.29 98.26 30.74 C 109.58 40.51 115.52 56.23 112.99 71.02 C 112.47 72.77 112.94 74.54 114.16 75.88 C 126.58 91.79 139.12 107.60 151.49 123.54 C 155.92 128.94 155.11 137.03 150.47 142.03 C 153.93 148.00 157.63 154.81 155.95 161.94 C 153.88 170.86 143.65 176.08 135.03 173.94 C 122.07 171.04 112.46 161.18 101.19 154.86 C 95.58 151.68 88.55 149.95 82.36 152.46 C 77.99 154.13 75.21 159.41 77.10 163.87 C 78.31 167.16 81.67 168.69 83.97 171.06 C 86.05 173.71 83.30 178.19 79.99 177.45 C 72.47 173.97 66.78 165.47 68.86 157.03 C 70.97 147.75 80.97 142.23 90.07 143.20 C 105.14 143.92 115.68 156.08 128.29 162.73 C 133.39 165.65 140.74 168.24 145.71 163.74 C 150.60 159.53 147.51 152.12 144.21 147.89 C 139.27 153.24 130.46 153.71 124.98 148.92 C 110.14 135.79 95.33 122.61 80.52 109.45 C 78.35 106.96 74.87 108.74 72.07 108.60 C 55.48 110.12 38.80 100.57 31.01 85.98 C 23.47 72.39 23.28 54.80 31.40 41.41 C 36.61 32.71 44.95 26.07 54.35 22.40 M 64.40 31.52 C 46.00 33.88 32.64 53.79 37.29 71.71 C 40.67 87.93 57.64 99.80 74.06 96.94 C 91.01 94.86 104.13 77.88 101.99 60.95 C 100.75 42.79 82.36 28.37 64.40 31.52 M 90.95 103.14 C 101.32 112.85 111.99 122.30 122.82 131.49 C 126.57 127.64 130.45 123.91 134.16 120.00 C 125.52 108.74 116.83 97.51 107.90 86.48 C 103.45 93.13 97.92 99.09 90.95 103.14 M 138.45 127.41 C 135.28 130.54 131.86 133.53 129.10 137.02 C 130.47 138.70 132.31 140.85 134.67 140.71 C 137.69 138.45 140.47 135.76 142.87 132.84 C 143.11 130.73 140.62 126.60 138.45 127.41 Z" />
<path fill="#1ab1ff" opacity="1.00" d=" M 17.26 86.26 C 21.06 84.16 25.94 87.80 25.31 92.01 C 24.07 116.82 37.11 141.67 58.24 154.72 C 60.62 156.30 63.86 157.52 64.44 160.70 C 65.39 164.69 60.95 168.75 57.09 167.00 C 29.47 152.67 11.91 121.11 14.32 90.08 C 14.57 88.42 15.78 86.99 17.26 86.26 Z" />
</g>
</svg>
