<?xml version="1.0" encoding="UTF-8" ?>
<!DOCTYPE svg PUBLIC "-//W3C//DTD SVG 1.1//EN" "http://www.w3.org/Graphics/SVG/1.1/DTD/svg11.dtd">
<svg width="192pt" height="192pt" viewBox="0 0 192 192" version="1.1" xmlns="http://www.w3.org/2000/svg">
<g id="#a3635cff">
<path fill="#a3635c" opacity="1.00" d=" M 92.62 13.66 C 95.92 11.55 100.84 14.04 101.02 17.96 C 101.36 34.16 100.82 50.39 101.29 66.59 C 114.74 74.53 128.27 82.35 141.74 90.28 C 143.85 91.34 145.02 93.61 144.80 95.95 C 144.77 112.64 144.94 129.34 144.73 146.03 C 145.07 148.73 143.02 150.71 140.84 151.87 C 126.49 160.18 112.24 168.66 97.85 176.90 C 93.97 179.09 89.31 175.20 89.89 171.02 C 89.72 155.40 89.92 139.78 89.80 124.17 C 76.20 116.10 62.49 108.18 48.86 100.17 C 46.72 98.95 45.81 96.42 45.97 94.06 C 46.04 77.35 45.91 60.64 46.03 43.93 C 45.95 41.26 48.15 39.45 50.30 38.32 C 64.43 30.14 78.46 21.79 92.62 13.66 M 63.19 44.24 C 72.00 49.45 80.84 54.62 89.71 59.73 C 89.64 49.45 89.81 39.16 89.60 28.88 C 80.62 33.66 71.86 38.91 63.19 44.24 M 57.36 54.05 C 57.37 64.40 57.37 74.76 57.36 85.11 C 66.38 80.18 75.28 75.00 83.99 69.54 C 75.03 64.52 66.23 59.23 57.36 54.05 M 63.05 95.40 C 71.95 100.58 80.81 105.83 89.75 110.94 C 89.68 100.58 89.85 90.22 89.64 79.87 C 80.67 84.85 71.74 89.95 63.05 95.40 M 101.19 79.62 C 101.05 90.05 101.13 100.48 101.13 110.91 C 110.05 105.70 119.07 100.63 127.85 95.17 C 118.96 89.98 110.12 84.73 101.19 79.62 M 106.83 120.85 C 115.73 125.97 124.30 131.86 133.63 136.11 C 133.50 125.77 133.68 115.43 133.52 105.10 C 124.67 110.43 115.59 115.39 106.83 120.85 M 101.20 130.79 C 101.13 141.20 101.19 151.62 101.17 162.05 C 109.85 157.08 118.57 152.15 127.05 146.85 C 126.93 146.52 126.69 145.85 126.57 145.51 C 118.17 140.52 109.78 135.47 101.20 130.79 Z" />
</g>
</svg>
