<?xml version="1.0" encoding="UTF-8" ?>
<!DOCTYPE svg PUBLIC "-//W3C//DTD SVG 1.1//EN" "http://www.w3.org/Graphics/SVG/1.1/DTD/svg11.dtd">
<svg width="192pt" height="192pt" viewBox="0 0 192 192" version="1.1" xmlns="http://www.w3.org/2000/svg">
<g id="#ff365eff">
<path fill="#ff365e" opacity="1.00" d=" M 43.78 20.84 C 51.21 17.64 58.80 14.02 67.02 13.74 C 76.83 13.59 85.77 18.15 94.89 21.10 C 113.20 26.86 131.59 32.36 149.86 38.22 C 167.61 44.46 177.54 65.63 172.54 83.48 C 170.74 90.48 165.06 95.95 158.35 98.32 C 150.66 101.04 142.92 103.63 135.28 106.47 C 134.08 120.48 135.41 134.59 134.50 148.62 C 133.27 158.99 124.06 169.11 112.99 167.86 C 99.81 166.46 89.74 154.91 86.28 142.67 C 80.85 123.92 88.17 103.48 80.80 85.11 C 78.21 78.24 71.72 74.41 65.30 71.71 C 56.82 67.72 50.94 59.61 47.90 50.94 C 46.11 47.01 50.25 42.41 54.33 43.58 C 58.63 44.55 59.02 49.70 61.16 52.82 C 63.99 58.38 69.52 61.59 75.04 63.95 C 85.47 68.51 92.05 79.07 94.13 89.97 C 96.80 104.27 94.65 118.88 95.80 133.28 C 96.96 143.17 102.61 154.53 113.18 156.70 C 118.82 157.41 123.01 151.71 123.38 146.59 C 123.92 134.42 123.39 122.22 123.61 110.05 C 124.09 105.00 124.50 98.23 129.92 95.95 C 138.02 92.78 146.49 90.66 154.61 87.56 C 157.76 86.36 160.56 83.95 161.59 80.67 C 165.39 67.75 157.76 52.23 144.64 48.34 C 126.63 42.71 108.55 37.28 90.58 31.49 C 80.56 28.16 70.07 22.61 59.32 26.37 C 81.16 33.98 103.60 39.86 125.38 47.60 C 136.21 52.25 143.79 62.78 146.53 74.02 C 147.35 80.61 136.65 82.14 135.44 75.63 C 132.57 65.38 124.12 57.37 113.63 55.35 C 91.00 48.42 68.46 41.17 45.82 34.27 C 41.20 33.29 34.42 33.05 32.29 38.29 C 27.50 48.23 32.16 60.13 39.82 67.20 C 43.99 71.43 50.07 72.68 54.64 76.33 C 62.92 82.67 67.62 92.79 68.98 102.96 C 70.62 116.60 68.64 130.40 70.07 144.05 C 71.04 152.73 76.42 160.87 84.34 164.69 C 87.11 165.82 90.55 164.00 93.04 166.04 C 95.94 168.07 95.87 173.02 92.79 174.85 C 88.25 177.65 82.37 176.55 77.93 174.10 C 66.95 167.92 59.99 155.92 58.71 143.52 C 57.61 131.03 59.04 118.45 58.02 105.95 C 57.14 96.56 52.44 86.56 43.34 82.67 C 30.17 77.23 20.67 64.15 19.19 50.03 C 18.41 40.45 21.64 29.49 30.36 24.37 C 34.41 21.64 39.67 23.32 43.78 20.84 Z" />
</g>
</svg>
