<?xml version="1.0" encoding="UTF-8" ?>
<!DOCTYPE svg PUBLIC "-//W3C//DTD SVG 1.1//EN" "http://www.w3.org/Graphics/SVG/1.1/DTD/svg11.dtd">
<svg width="192pt" height="192pt" viewBox="0 0 192 192" version="1.1" xmlns="http://www.w3.org/2000/svg">
<g id="#838691ff">
<path fill="#838691" opacity="1.00" d=" M 49.87 24.90 C 69.90 11.80 95.79 8.26 118.62 15.42 C 145.58 23.59 167.45 46.49 174.23 73.86 C 180.97 99.51 174.23 128.10 156.84 148.10 C 163.22 156.00 171.36 162.37 177.94 170.11 C 181.16 175.08 174.10 181.37 169.60 177.37 C 159.13 167.19 148.92 156.74 138.58 146.43 C 135.20 143.69 136.38 137.58 140.71 136.59 C 143.98 135.49 146.42 138.37 148.72 140.16 C 165.31 120.69 170.13 92.14 160.64 68.36 C 150.63 41.86 123.47 22.75 95.01 23.15 C 70.30 22.44 46.09 36.27 33.56 57.47 C 17.09 83.88 20.98 120.91 42.86 143.12 C 63.56 165.74 99.48 171.89 126.60 157.65 C 132.41 153.63 138.86 163.14 133.00 166.96 C 112.43 178.34 86.76 179.64 64.90 171.16 C 35.36 160.01 13.72 130.68 12.28 99.06 C 10.22 69.93 25.22 40.50 49.87 24.90 Z" />
<path fill="#838691" opacity="1.00" d=" M 89.93 51.96 C 92.00 48.43 97.83 48.88 99.51 52.55 C 103.07 59.41 106.31 66.43 109.85 73.30 C 117.53 74.60 125.29 75.46 132.97 76.77 C 137.11 77.30 139.09 83.17 136.05 86.05 C 130.57 91.59 124.91 96.95 119.38 102.44 C 120.47 110.34 122.23 118.14 123.24 126.05 C 123.66 129.99 119.14 133.06 115.58 131.49 C 108.40 128.08 101.56 123.96 94.37 120.55 C 87.63 124.15 80.89 127.75 74.10 131.23 C 70.51 133.26 65.44 130.23 65.88 126.04 C 66.85 118.12 68.70 110.33 69.70 102.41 C 64.15 96.96 58.50 91.59 53.07 86.02 C 50.08 83.13 51.95 77.47 56.01 76.82 C 63.71 75.50 71.48 74.59 79.20 73.35 C 82.91 66.29 86.13 58.97 89.93 51.96 M 94.43 68.05 C 91.70 73.08 90.05 78.92 86.27 83.25 C 81.03 85.29 75.16 85.12 69.65 86.20 C 73.16 90.45 77.76 93.71 81.04 98.13 C 82.35 103.92 79.30 109.75 79.25 115.61 C 84.50 113.40 89.17 109.49 94.78 108.35 C 100.19 109.95 104.90 113.39 110.01 115.77 C 109.53 109.89 106.93 103.97 108.02 98.11 C 111.26 93.68 115.87 90.46 119.37 86.23 C 113.88 85.10 107.97 85.36 102.78 83.19 C 98.95 78.87 97.50 72.92 94.43 68.05 Z" />
</g>
</svg>
