<?xml version="1.0" encoding="UTF-8" ?>
<!DOCTYPE svg PUBLIC "-//W3C//DTD SVG 1.1//EN" "http://www.w3.org/Graphics/SVG/1.1/DTD/svg11.dtd">
<svg width="192pt" height="192pt" viewBox="0 0 192 192" version="1.1" xmlns="http://www.w3.org/2000/svg">
<g id="#3a8fc2ff">
<path fill="#3a8fc2" opacity="1.00" d=" M 21.10 43.93 C 21.07 31.74 31.83 20.84 44.03 20.77 C 78.67 20.66 113.32 20.67 147.96 20.75 C 160.28 20.68 171.20 31.70 171.17 44.00 C 171.25 78.33 171.20 112.66 171.19 146.99 C 171.48 159.10 161.15 170.27 149.02 170.75 C 140.77 170.97 132.50 170.76 124.25 170.78 C 124.77 136.19 124.43 101.59 124.53 66.99 C 125.04 62.82 121.06 59.24 117.01 59.57 C 103.00 59.56 88.99 59.55 74.97 59.56 C 70.96 59.26 67.27 62.95 67.59 66.97 C 67.67 101.58 67.39 136.20 67.81 170.81 C 59.54 170.69 51.26 170.95 42.98 170.71 C 30.96 170.11 20.83 159.03 21.05 147.04 C 21.04 112.67 21.02 78.30 21.10 43.93 M 32.42 44.94 C 32.44 78.98 32.40 113.03 32.45 147.07 C 32.34 152.98 37.11 158.59 43.01 159.24 C 47.52 159.63 52.05 159.29 56.57 159.41 C 56.61 128.28 56.54 97.15 56.62 66.03 C 56.75 56.86 64.75 48.74 73.94 48.62 C 88.65 48.55 103.35 48.57 118.06 48.61 C 127.21 48.67 135.58 56.71 135.55 65.95 C 135.58 97.08 135.57 128.21 135.57 159.33 C 140.04 159.27 144.52 159.59 148.99 159.23 C 154.99 158.71 159.82 153.04 159.75 147.08 C 159.82 113.03 159.77 78.98 159.78 44.93 C 160.17 38.04 153.98 31.74 147.07 32.14 C 113.02 32.12 78.98 32.13 44.93 32.14 C 38.06 31.78 32.03 38.14 32.42 44.94 Z" />
<path fill="#3a8fc2" opacity="1.00" d=" M 81.34 92.45 C 83.85 92.25 88.59 91.39 88.74 95.10 C 88.86 109.42 88.98 123.75 89.08 138.07 C 89.93 143.55 81.62 143.69 79.20 140.73 C 78.68 126.17 79.18 111.54 78.97 96.96 C 78.79 95.18 79.09 92.64 81.34 92.45 Z" />
<path fill="#3a8fc2" opacity="1.00" d=" M 104.53 94.55 C 106.27 93.04 109.84 91.02 111.61 93.32 C 111.99 98.82 111.97 104.39 111.67 109.90 C 110.27 112.95 107.20 114.94 105.05 117.48 C 107.24 119.75 109.78 121.76 111.55 124.40 C 112.09 130.13 112.03 135.98 111.59 141.71 C 103.84 144.64 100.44 134.39 101.93 128.34 C 98.68 124.83 94.59 121.89 92.15 117.77 C 93.49 112.75 99.50 110.43 101.89 105.92 C 102.22 102.07 101.15 97.39 104.53 94.55 Z" />
</g>
</svg>
