<?xml version="1.0" encoding="UTF-8" ?>
<!DOCTYPE svg PUBLIC "-//W3C//DTD SVG 1.1//EN" "http://www.w3.org/Graphics/SVG/1.1/DTD/svg11.dtd">
<svg width="192pt" height="192pt" viewBox="0 0 192 192" version="1.1" xmlns="http://www.w3.org/2000/svg">
<g id="#239fe0ff">
<path fill="#239fe0" opacity="1.00" d=" M 92.44 16.59 C 101.38 15.11 111.06 19.72 115.05 27.96 C 118.71 35.77 121.76 43.85 125.31 51.71 C 126.68 54.86 129.62 57.33 133.06 57.82 C 142.47 59.02 152.01 59.12 161.38 60.59 C 173.22 63.01 180.89 76.57 177.11 87.99 C 174.55 96.93 165.80 101.52 159.52 107.58 C 155.28 111.75 148.29 115.06 148.68 121.97 C 150.12 132.09 153.77 141.81 154.96 151.96 C 155.80 165.57 141.47 177.24 128.30 173.66 C 120.47 171.35 114.08 165.89 106.96 162.07 C 102.51 159.36 97.34 155.32 91.90 157.95 C 83.25 162.42 75.34 168.28 66.61 172.60 C 55.21 177.74 40.65 170.45 37.53 158.44 C 35.06 149.21 39.64 140.15 41.14 131.14 C 42.28 126.04 44.75 119.78 40.72 115.30 C 33.76 108.23 25.47 102.58 18.60 95.42 C 10.12 85.90 13.10 69.33 24.14 63.10 C 31.33 58.81 40.09 60.00 48.06 58.83 C 53.95 57.97 61.72 59.30 65.40 53.42 C 69.67 45.08 72.64 36.12 76.74 27.69 C 79.78 21.73 85.84 17.55 92.44 16.59 M 91.41 28.54 C 86.61 30.59 85.48 36.15 83.47 40.42 C 78.74 50.10 76.63 63.06 65.44 67.54 C 54.66 71.06 42.93 69.54 31.90 71.90 C 23.98 74.24 22.61 86.04 29.53 90.42 C 38.61 99.71 53.86 106.26 54.33 121.03 C 53.69 131.55 49.62 141.56 48.09 151.96 C 47.33 158.80 55.01 164.75 61.44 162.42 C 71.53 157.86 80.05 150.13 90.55 146.45 C 104.69 143.09 115.36 155.25 127.04 160.91 C 133.55 166.09 144.38 160.39 143.53 152.07 C 142.06 143.14 139.38 134.44 137.64 125.55 C 136.28 118.51 138.79 110.91 144.04 106.04 C 150.63 99.93 157.84 94.50 164.27 88.23 C 169.33 82.86 165.86 72.80 158.60 71.61 C 149.77 70.43 140.83 70.16 131.98 69.11 C 124.72 68.29 118.13 63.41 115.15 56.75 C 111.60 48.91 108.58 40.84 104.92 33.05 C 102.58 28.22 96.19 26.26 91.41 28.54 Z" />
<path fill="#239fe0" opacity="1.00" d=" M 78.69 78.19 C 78.84 75.05 81.96 72.99 84.95 73.39 C 92.75 73.56 100.59 73.03 108.37 73.65 C 115.09 76.97 112.33 93.69 103.32 88.69 C 101.05 82.54 94.73 84.42 89.44 84.26 C 89.46 88.02 89.45 91.78 89.44 95.54 C 94.96 95.57 100.48 95.43 106.00 95.54 C 108.62 95.39 111.54 97.30 111.56 100.12 C 111.78 107.74 111.67 115.38 111.65 123.01 C 111.99 126.10 109.05 128.89 106.00 128.53 C 98.22 128.43 90.40 128.79 82.64 128.34 C 77.13 126.39 77.91 118.88 79.61 114.52 C 82.55 110.10 89.31 112.70 89.75 117.67 C 93.54 117.72 97.33 117.72 101.12 117.69 C 101.36 113.92 101.42 110.12 101.00 106.36 C 95.31 106.31 89.62 106.51 83.94 106.31 C 80.80 106.23 78.20 103.19 78.59 100.07 C 78.65 92.78 78.44 85.48 78.69 78.19 Z" />
</g>
</svg>
