<?xml version="1.0" encoding="UTF-8" ?>
<!DOCTYPE svg PUBLIC "-//W3C//DTD SVG 1.1//EN" "http://www.w3.org/Graphics/SVG/1.1/DTD/svg11.dtd">
<svg width="192pt" height="192pt" viewBox="0 0 192 192" version="1.1" xmlns="http://www.w3.org/2000/svg">
<g id="#ff3660ff">
<path fill="#ff3660" opacity="1.00" d=" M 37.37 19.52 C 40.83 18.58 44.45 18.73 48.00 18.72 C 80.67 18.77 113.35 18.68 146.02 18.76 C 158.21 18.75 169.03 29.74 168.82 41.93 C 168.87 75.98 168.88 110.03 168.83 144.08 C 169.04 156.30 158.23 167.25 146.03 167.30 C 124.01 167.27 101.98 167.47 79.98 167.19 C 73.95 166.53 74.04 156.77 80.08 156.26 C 102.07 155.90 124.08 156.29 146.07 156.06 C 152.68 155.93 158.14 149.63 157.68 143.09 C 157.66 109.37 157.74 75.65 157.65 41.93 C 157.72 35.31 151.62 29.63 145.07 29.84 C 111.36 29.81 77.65 29.81 43.94 29.83 C 37.35 29.55 31.12 35.25 31.28 41.92 C 31.18 67.96 31.40 94.01 31.18 120.05 C 31.20 126.37 21.14 127.13 20.21 120.91 C 19.84 94.60 20.12 68.25 20.08 41.92 C 19.98 31.67 27.51 22.11 37.37 19.52 Z" />
<path fill="#ff3660" opacity="1.00" d=" M 50.63 75.65 C 58.17 61.89 76.09 55.70 90.59 61.45 C 97.36 64.16 101.76 72.45 99.34 79.43 C 93.44 82.46 87.02 84.65 80.65 86.53 C 81.08 82.38 83.23 78.40 82.78 74.19 C 81.81 69.90 76.01 69.48 73.20 72.20 C 67.16 77.65 63.55 85.91 63.80 94.04 C 65.20 102.59 74.45 106.02 78.27 113.22 C 92.29 107.65 106.14 101.62 120.23 96.27 C 125.95 94.60 129.64 103.55 124.42 106.38 C 109.74 112.95 94.56 118.43 79.84 124.93 C 78.13 136.88 72.67 148.02 65.88 157.88 C 57.48 169.68 39.79 169.52 28.23 162.80 C 22.30 159.60 22.34 151.92 22.63 146.07 C 23.15 141.96 22.73 136.21 27.20 134.17 C 39.57 128.88 52.14 124.05 64.53 118.79 C 62.80 112.78 58.62 108.03 54.20 103.80 C 46.85 96.58 45.00 84.43 50.63 75.65 M 38.29 141.69 C 34.28 149.77 43.28 159.14 51.27 154.20 C 57.69 148.75 58.75 139.42 62.09 132.01 C 54.16 135.24 46.26 138.56 38.29 141.69 Z" />
</g>
</svg>
