<?xml version="1.0" encoding="UTF-8" ?>
<!DOCTYPE svg PUBLIC "-//W3C//DTD SVG 1.1//EN" "http://www.w3.org/Graphics/SVG/1.1/DTD/svg11.dtd">
<svg width="192pt" height="192pt" viewBox="0 0 192 192" version="1.1" xmlns="http://www.w3.org/2000/svg">
<g id="#babdd0ff">
<path fill="#babdd0" opacity="1.00" d=" M 22.05 40.94 C 21.85 28.66 32.77 17.69 45.03 17.72 C 79.34 17.63 113.65 17.60 147.96 17.72 C 160.21 17.70 171.04 28.71 170.87 40.95 C 170.92 64.66 171.00 88.37 170.86 112.08 C 170.71 123.71 160.69 134.04 149.09 134.61 C 145.98 135.13 142.35 133.98 139.55 135.22 C 139.04 140.76 140.04 146.40 139.07 151.88 C 137.57 156.77 129.80 156.57 128.42 151.68 C 127.61 146.08 128.40 140.36 127.97 134.71 C 119.39 134.70 110.80 134.70 102.22 134.70 C 101.99 140.39 102.66 146.16 101.85 151.81 C 100.38 156.66 92.72 156.63 91.22 151.81 C 90.58 146.14 91.18 140.39 90.86 134.69 C 82.15 134.70 73.44 134.66 64.74 134.71 C 64.53 140.33 65.09 146.00 64.45 151.60 C 63.14 156.74 54.92 156.69 53.69 151.52 C 53.05 145.94 53.64 140.29 53.37 134.68 C 47.65 134.62 41.63 135.24 36.28 132.77 C 27.71 129.24 21.89 120.28 22.02 111.03 C 22.02 87.67 21.99 64.30 22.05 40.94 M 41.37 29.58 C 36.68 31.21 33.20 35.93 33.27 40.93 C 33.23 64.30 33.26 87.68 33.26 111.06 C 32.92 117.87 39.19 123.85 45.93 123.50 C 79.65 123.49 113.36 123.52 147.08 123.45 C 153.78 123.75 159.85 117.80 159.63 111.08 C 159.67 87.69 159.71 64.30 159.63 40.91 C 159.68 34.30 153.58 28.61 147.02 28.85 C 114.01 28.73 81.01 28.84 48.00 28.75 C 45.77 28.78 43.49 28.83 41.37 29.58 Z" />
<path fill="#babdd0" opacity="1.00" d=" M 45.22 57.15 C 56.08 58.87 66.99 60.39 77.77 62.56 C 74.57 75.53 55.04 77.65 47.77 67.21 C 45.37 64.42 45.10 60.66 45.22 57.15 Z" />
<path fill="#babdd0" opacity="1.00" d=" M 117.25 62.91 C 127.73 61.41 138.15 59.55 148.65 58.25 C 150.71 75.93 119.80 80.77 117.25 62.91 Z" />
<path fill="#babdd0" opacity="1.00" d=" M 93.65 84.67 C 100.03 82.49 107.20 89.51 107.70 95.65 C 103.33 95.48 99.90 91.56 95.37 92.39 C 91.93 92.29 88.87 96.24 85.66 95.20 C 84.90 90.38 90.42 87.35 93.65 84.67 Z" />
<path fill="#babdd0" opacity="1.00" d=" M 35.34 163.24 C 37.01 162.14 39.11 162.49 41.00 162.39 C 78.99 162.56 116.99 162.20 154.97 162.36 C 161.98 162.12 162.03 173.67 155.02 173.45 C 116.00 173.57 76.97 173.42 37.94 173.38 C 32.74 173.44 30.65 165.66 35.34 163.24 Z" />
</g>
</svg>
