<?xml version="1.0" encoding="UTF-8" ?>
<!DOCTYPE svg PUBLIC "-//W3C//DTD SVG 1.1//EN" "http://www.w3.org/Graphics/SVG/1.1/DTD/svg11.dtd">
<svg width="192pt" height="192pt" viewBox="0 0 192 192" version="1.1" xmlns="http://www.w3.org/2000/svg">
<g id="#1ab1ffff">
<path fill="#1ab1ff" opacity="1.00" d=" M 38.30 22.34 C 41.11 21.48 44.08 21.33 47.00 21.35 C 80.33 21.39 113.65 21.30 146.98 21.36 C 159.12 21.22 170.06 31.87 170.19 44.01 C 170.26 78.34 170.22 112.66 170.21 146.99 C 170.41 159.37 159.33 170.33 146.98 170.21 C 113.00 170.28 79.00 170.26 45.02 170.21 C 32.92 170.44 21.85 160.09 21.50 147.96 C 21.39 113.65 21.49 79.33 21.47 45.01 C 21.23 34.81 28.52 25.12 38.30 22.34 M 42.47 32.74 C 36.82 33.82 32.40 39.25 32.55 45.01 C 32.52 78.67 32.56 112.33 32.56 145.98 C 32.08 152.81 38.09 159.15 44.93 158.98 C 78.98 159.00 113.03 159.04 147.09 158.96 C 153.75 158.89 159.51 152.70 159.05 146.02 C 159.07 112.34 159.13 78.65 159.06 44.96 C 159.26 38.09 152.90 32.01 146.05 32.52 C 111.53 32.70 76.97 32.21 42.47 32.74 Z" />
<path fill="#1ab1ff" opacity="1.00" d=" M 56.74 58.35 C 53.33 52.76 61.50 46.31 66.13 50.88 C 74.03 60.34 81.28 70.35 89.02 79.95 C 99.28 76.81 110.07 86.73 107.77 97.21 C 118.47 103.61 129.64 109.23 140.32 115.66 C 145.39 119.30 141.09 128.28 135.00 126.42 C 123.20 120.54 111.96 113.53 100.29 107.39 C 88.34 114.55 73.37 100.32 79.57 87.97 C 72.02 78.05 64.10 68.41 56.74 58.35 Z" />
<path fill="#1ab1ff" opacity="1.00" d=" M 58.28 133.32 C 64.31 131.69 70.65 137.49 69.61 143.63 C 69.12 150.41 60.30 154.22 54.95 150.11 C 48.36 145.97 50.61 134.63 58.28 133.32 Z" />
<path fill="#1ab1ff" opacity="1.00" d=" M 129.27 133.28 C 135.94 131.48 142.54 138.65 140.31 145.15 C 138.59 151.98 128.75 154.15 124.31 148.69 C 119.50 143.77 122.51 134.50 129.27 133.28 Z" />
</g>
</svg>
