<?xml version="1.0" encoding="UTF-8" ?>
<!DOCTYPE svg PUBLIC "-//W3C//DTD SVG 1.1//EN" "http://www.w3.org/Graphics/SVG/1.1/DTD/svg11.dtd">
<svg width="192pt" height="192pt" viewBox="0 0 192 192" version="1.1" xmlns="http://www.w3.org/2000/svg">
<g id="#a419ffff">
<path fill="#a419ff" opacity="1.00" d=" M 84.31 14.39 C 89.19 13.08 95.40 12.70 98.74 17.27 C 102.21 21.23 100.37 26.84 97.52 30.57 C 85.21 48.24 83.14 72.42 92.01 92.00 C 102.74 116.76 130.31 131.91 156.98 128.69 C 161.98 128.59 166.63 132.92 166.52 138.00 C 166.49 143.35 162.18 147.19 158.95 150.96 C 139.79 172.07 108.88 182.07 81.12 174.90 C 52.55 167.93 28.49 144.96 20.51 116.61 C 13.69 93.36 18.55 67.26 32.70 47.68 C 44.94 30.71 63.56 18.02 84.31 14.39 M 31.28 76.32 C 26.63 92.64 28.41 110.64 36.12 125.75 C 48.16 150.07 74.71 166.85 102.02 165.84 C 121.74 165.09 140.96 155.51 153.32 140.10 C 125.61 142.10 97.96 126.60 84.64 102.35 C 71.04 78.77 72.69 48.04 87.25 25.28 C 60.85 29.68 38.35 50.64 31.28 76.32 Z" />
<path fill="#a419ff" opacity="1.00" d=" M 126.38 28.39 C 131.33 27.39 132.71 32.58 132.58 36.42 C 133.27 41.75 141.23 37.31 142.77 42.06 C 143.45 44.44 143.44 47.71 141.09 49.19 C 138.64 49.96 135.83 49.33 133.56 50.63 C 131.36 53.18 133.29 57.41 130.69 59.79 C 128.78 61.19 126.00 61.07 123.89 60.18 C 120.77 58.17 122.52 53.88 121.03 51.05 C 118.63 48.58 114.22 50.84 111.89 48.20 C 110.43 46.13 110.41 42.98 111.92 40.93 C 114.33 38.35 118.78 40.63 121.13 38.03 C 122.25 34.56 121.00 28.35 126.38 28.39 Z" />
<path fill="#a419ff" opacity="1.00" d=" M 159.62 79.92 C 159.83 77.84 160.31 74.97 163.07 75.24 C 166.99 74.70 167.02 79.34 167.23 82.04 C 171.56 82.02 176.30 84.43 173.39 89.37 C 171.37 89.58 169.36 89.88 167.37 90.31 C 167.00 93.07 167.06 97.76 163.01 97.28 C 159.37 97.36 159.67 92.99 159.44 90.46 C 156.81 89.70 151.85 90.15 152.31 86.10 C 151.75 80.96 159.97 84.68 159.62 79.92 Z" />
</g>
</svg>
