<?xml version="1.0" encoding="UTF-8" ?>
<!DOCTYPE svg PUBLIC "-//W3C//DTD SVG 1.1//EN" "http://www.w3.org/Graphics/SVG/1.1/DTD/svg11.dtd">
<svg width="192pt" height="192pt" viewBox="0 0 192 192" version="1.1" xmlns="http://www.w3.org/2000/svg">
<g id="#3cd492ff">
<path fill="#3cd492" opacity="1.00" d=" M 43.61 37.40 C 40.85 32.18 48.76 26.97 52.51 31.48 C 57.99 39.52 62.45 48.24 67.84 56.36 C 84.37 50.45 102.86 49.99 119.57 55.49 C 120.72 55.72 122.48 56.88 123.13 55.22 C 128.04 47.40 132.46 39.25 137.58 31.57 C 140.99 27.19 148.80 31.60 146.80 36.78 C 142.64 45.04 137.17 52.60 132.85 60.80 C 159.53 74.68 177.78 103.80 177.10 134.05 C 176.93 137.06 174.02 139.39 171.07 139.13 C 120.70 139.14 70.32 139.13 19.95 139.13 C 16.82 139.46 13.19 137.52 13.12 134.05 C 12.42 103.81 30.63 74.43 57.51 60.80 C 52.95 52.96 48.00 45.34 43.61 37.40 M 77.01 64.96 C 48.47 72.09 26.30 98.54 24.21 127.88 C 71.45 128.22 118.69 128.01 165.93 127.98 C 164.43 108.52 154.46 89.93 139.07 77.92 C 121.93 64.20 98.22 59.22 77.01 64.96 Z" />
<path fill="#3cd492" opacity="1.00" d=" M 53.34 93.45 C 58.17 92.96 63.06 93.18 67.91 93.30 C 73.39 93.76 74.06 102.58 68.97 104.26 C 64.01 104.70 58.98 104.55 54.01 104.37 C 48.64 103.70 48.23 94.87 53.34 93.45 Z" />
<path fill="#3cd492" opacity="1.00" d=" M 121.37 93.48 C 126.34 93.02 131.46 92.95 136.41 93.52 C 141.53 95.05 141.23 103.16 136.02 104.33 C 131.37 104.62 126.67 104.60 122.01 104.36 C 116.54 103.55 116.05 94.95 121.37 93.48 Z" />
<path fill="#3cd492" opacity="1.00" d=" M 15.38 150.34 C 17.03 149.23 19.13 149.58 21.00 149.46 C 71.66 149.58 122.33 149.29 172.99 149.50 C 179.49 149.46 179.54 160.62 173.00 160.53 C 121.33 160.65 69.65 160.55 17.98 160.48 C 12.86 160.55 11.25 152.86 15.38 150.34 Z" />
</g>
</svg>
