<?xml version="1.0" encoding="UTF-8" ?>
<!DOCTYPE svg PUBLIC "-//W3C//DTD SVG 1.1//EN" "http://www.w3.org/Graphics/SVG/1.1/DTD/svg11.dtd">
<svg width="192pt" height="192pt" viewBox="0 0 192 192" version="1.1" xmlns="http://www.w3.org/2000/svg">
<g id="#ff603cff">
<path fill="#ff603c" opacity="1.00" d=" M 35.24 12.35 C 40.22 9.94 45.36 16.65 41.87 20.86 C 36.41 26.69 30.67 32.31 24.96 37.91 C 21.81 41.28 15.70 38.48 15.70 34.02 C 15.57 30.21 19.30 28.07 21.52 25.51 C 26.18 21.23 30.12 16.08 35.24 12.35 Z" />
<path fill="#ff603c" opacity="1.00" d=" M 83.38 12.47 C 115.18 7.01 148.92 23.05 165.26 50.75 C 180.74 75.82 181.01 109.53 165.78 134.75 C 161.93 139.82 153.29 134.10 156.57 128.56 C 166.52 110.73 168.67 88.59 161.67 69.34 C 151.58 39.81 120.07 19.39 88.94 23.17 C 56.24 25.81 28.31 54.33 25.97 86.99 C 22.58 118.11 42.81 149.54 72.33 159.71 C 91.53 166.91 113.60 164.40 131.27 154.27 C 136.68 151.30 141.97 159.54 137.44 163.43 C 111.05 180.11 74.84 178.77 49.52 160.53 C 23.39 142.75 9.59 109.01 15.89 78.00 C 21.74 44.89 50.05 17.25 83.38 12.47 Z" />
<path fill="#ff603c" opacity="1.00" d=" M 153.18 12.21 C 157.08 10.77 159.79 14.41 162.19 16.81 C 166.70 21.64 171.79 25.95 175.99 31.05 C 179.09 35.93 172.22 42.14 167.75 38.24 C 162.06 32.95 156.69 27.29 151.23 21.76 C 148.09 19.06 149.22 13.42 153.18 12.21 Z" />
<path fill="#ff603c" opacity="1.00" d=" M 122.17 71.19 C 128.18 66.85 136.19 75.84 131.38 81.37 C 119.96 93.27 108.18 104.85 96.55 116.56 C 94.02 119.53 89.03 119.42 86.57 116.42 C 78.96 108.69 71.15 101.14 63.69 93.28 C 59.10 88.13 65.45 79.50 71.76 82.36 C 79.30 87.62 84.48 95.74 91.93 101.14 C 102.23 91.39 111.68 80.72 122.17 71.19 Z" />
</g>
</svg>
