<?xml version="1.0" encoding="UTF-8" ?>
<!DOCTYPE svg PUBLIC "-//W3C//DTD SVG 1.1//EN" "http://www.w3.org/Graphics/SVG/1.1/DTD/svg11.dtd">
<svg width="192pt" height="192pt" viewBox="0 0 192 192" version="1.1" xmlns="http://www.w3.org/2000/svg">
<g id="#e8925bff">
<path fill="#e8925b" opacity="1.00" d=" M 124.25 19.30 C 129.33 17.73 133.47 22.21 137.55 24.50 C 164.59 42.42 179.03 77.17 172.11 108.96 C 166.22 140.71 138.49 165.99 106.96 171.20 C 72.71 177.91 35.05 159.96 19.51 128.58 C 18.18 124.26 22.60 119.62 26.99 120.78 C 31.00 121.94 34.60 124.22 38.64 125.34 C 67.63 134.58 102.41 122.58 118.14 96.18 C 130.53 76.24 131.67 49.90 121.05 28.96 C 118.90 25.58 120.36 20.61 124.25 19.30 M 136.86 38.13 C 143.04 61.56 138.83 87.70 124.35 107.29 C 105.52 133.49 69.88 145.36 38.88 137.15 C 54.85 155.71 80.99 164.65 105.01 160.08 C 126.42 156.27 146.07 142.32 155.60 122.63 C 169.56 94.49 161.25 57.81 136.86 38.13 Z" />
<path fill="#e8925b" opacity="1.00" d=" M 56.32 30.42 C 63.81 28.21 65.99 37.24 68.90 42.06 C 71.94 50.23 85.46 48.73 86.61 58.02 C 85.37 66.90 72.77 65.92 69.30 73.32 C 67.38 76.72 65.81 80.34 63.49 83.50 C 61.15 86.63 55.85 86.57 53.45 83.55 C 50.26 79.54 48.84 74.41 45.65 70.41 C 41.46 67.45 36.43 65.84 32.46 62.56 C 29.74 60.30 29.65 55.67 32.39 53.40 C 36.19 50.28 40.93 48.68 45.06 46.09 C 49.95 41.81 50.24 33.45 56.32 30.42 M 58.21 46.60 C 56.42 51.92 51.65 55.32 47.33 57.96 C 51.82 60.70 56.60 64.34 58.30 69.91 C 60.70 64.53 64.76 60.17 70.31 57.99 C 64.74 56.00 61.06 51.55 58.21 46.60 Z" />
<path fill="#e8925b" opacity="1.00" d=" M 100.19 40.99 C 103.55 39.15 106.41 36.50 108.17 33.07 C 110.24 36.32 112.91 39.22 116.38 40.99 C 112.83 42.62 110.21 45.61 108.14 48.84 C 106.47 45.35 103.54 42.81 100.19 40.99 Z" />
<path fill="#e8925b" opacity="1.00" d=" M 34.34 78.17 C 36.49 79.12 36.86 81.92 38.33 83.61 C 40.45 87.07 44.56 88.22 47.43 90.84 C 41.66 93.18 37.22 97.74 34.97 103.54 C 32.07 97.63 27.41 93.48 21.89 90.14 C 27.69 88.17 31.91 83.70 34.34 78.17 Z" />
</g>
</svg>
