<?xml version="1.0" encoding="UTF-8" ?>
<!DOCTYPE svg PUBLIC "-//W3C//DTD SVG 1.1//EN" "http://www.w3.org/Graphics/SVG/1.1/DTD/svg11.dtd">
<svg width="192pt" height="192pt" viewBox="0 0 192 192" version="1.1" xmlns="http://www.w3.org/2000/svg">
<g id="#ac7452ff">
<path fill="#ac7452" opacity="1.00" d=" M 85.33 14.39 C 94.58 13.32 104.13 13.46 113.18 15.83 C 117.15 16.77 118.00 22.61 114.81 24.94 C 112.82 26.55 110.13 25.72 107.85 25.42 C 90.28 21.86 71.26 26.14 56.96 36.97 C 54.85 38.48 52.39 40.64 49.60 39.56 C 46.03 38.49 44.76 33.22 47.79 30.85 C 58.35 21.89 71.65 16.31 85.33 14.39 Z" />
<path fill="#ac7452" opacity="1.00" d=" M 118.59 28.59 C 136.97 22.28 158.78 30.98 168.06 47.97 C 179.17 66.93 174.11 93.25 156.91 106.89 C 141.40 120.62 115.95 120.97 100.40 107.11 C 94.98 119.67 83.35 129.22 69.95 131.99 C 52.28 135.99 32.90 128.25 22.32 113.67 C 12.12 100.16 10.29 80.59 18.85 65.81 C 27.85 49.64 48.03 41.30 65.95 45.09 C 74.36 46.82 82.03 51.17 88.52 56.70 C 93.81 43.50 104.69 32.43 118.59 28.59 M 125.34 38.43 C 110.37 40.95 99.14 54.18 96.94 68.88 C 96.74 74.10 89.28 75.79 86.64 71.45 C 81.38 64.11 73.62 58.56 64.85 56.29 C 51.19 52.86 35.37 59.06 28.54 71.58 C 21.03 84.66 24.78 102.27 35.89 112.14 C 47.84 123.67 68.48 125.35 81.31 114.31 C 87.84 109.26 90.86 101.38 92.82 93.66 C 95.16 88.41 102.04 90.54 104.26 94.75 C 116.28 110.90 142.78 109.12 154.43 93.46 C 164.27 82.13 165.57 64.29 157.22 51.78 C 150.53 41.51 137.38 35.80 125.34 38.43 Z" />
<path fill="#ac7452" opacity="1.00" d=" M 114.31 65.37 C 121.31 63.22 129.35 68.15 130.55 75.38 C 132.16 82.59 126.33 90.23 118.95 90.59 C 112.15 91.37 105.60 85.80 105.01 79.04 C 104.28 73.02 108.50 66.98 114.31 65.37 Z" />
<path fill="#ac7452" opacity="1.00" d=" M 63.34 78.42 C 72.90 74.51 83.87 84.69 80.54 94.47 C 78.32 103.50 65.95 107.30 59.14 100.89 C 51.51 94.85 54.00 81.26 63.34 78.42 Z" />
<path fill="#ac7452" opacity="1.00" d=" M 169.39 101.49 C 173.05 99.22 178.37 102.57 177.69 106.88 C 173.63 141.22 145.06 170.60 111.02 176.24 C 80.49 182.19 47.55 168.74 29.56 143.45 C 26.45 140.44 25.78 134.17 30.63 132.55 C 35.86 130.75 38.33 136.78 41.08 139.95 C 59.71 163.82 94.37 172.85 122.34 161.34 C 144.50 152.81 161.77 132.41 165.95 108.96 C 166.56 106.32 166.66 102.91 169.39 101.49 Z" />
<path fill="#ac7452" opacity="1.00" d=" M 110.04 123.14 C 112.58 118.42 118.76 119.48 122.60 121.84 C 119.45 126.29 116.32 130.76 113.61 135.50 C 110.44 132.39 107.26 127.52 110.04 123.14 Z" />
<path fill="#ac7452" opacity="1.00" d=" M 89.40 130.09 C 91.52 126.35 95.76 122.16 100.36 124.72 C 105.54 126.73 105.37 133.02 104.10 137.49 C 99.29 134.85 94.46 132.22 89.40 130.09 Z" />
<path fill="#ac7452" opacity="1.00" d=" M 119.14 149.09 C 126.53 145.95 132.40 140.27 139.43 136.52 C 131.63 151.49 114.67 160.66 97.94 160.11 C 94.14 159.75 89.50 159.70 87.35 155.95 C 97.94 153.71 109.25 154.16 119.14 149.09 Z" />
</g>
</svg>
