<?xml version="1.0" encoding="UTF-8" ?>
<!DOCTYPE svg PUBLIC "-//W3C//DTD SVG 1.1//EN" "http://www.w3.org/Graphics/SVG/1.1/DTD/svg11.dtd">
<svg width="192pt" height="192pt" viewBox="0 0 192 192" version="1.1" xmlns="http://www.w3.org/2000/svg">
<g id="#1ab2ffff">
<path fill="#1ab2ff" opacity="1.00" d=" M 88.39 12.43 C 89.94 11.26 91.79 11.92 93.33 12.72 C 114.86 23.25 136.42 33.70 157.95 44.23 C 160.36 44.89 160.93 48.43 158.58 49.56 C 136.33 61.05 114.04 72.49 91.72 83.86 C 89.84 85.15 87.87 83.64 86.10 82.92 C 64.87 72.43 43.50 62.23 22.29 51.71 C 19.75 50.89 19.79 47.13 22.33 46.34 C 44.30 34.95 66.37 23.74 88.39 12.43 M 88.76 24.86 C 73.21 32.88 57.61 40.80 42.07 48.82 C 57.95 56.71 73.93 64.41 89.88 72.15 C 106.03 63.84 122.27 55.70 138.31 47.20 C 122.97 39.70 107.60 32.26 92.27 24.73 C 91.16 23.90 89.86 24.19 88.76 24.86 Z" />
<path fill="#1ab2ff" opacity="1.00" d=" M 67.14 47.27 C 74.48 43.01 82.11 38.91 89.94 35.74 C 97.08 38.91 104.06 42.47 111.07 45.93 C 113.09 46.54 113.09 49.46 111.04 50.01 C 104.04 53.45 97.28 57.65 90.02 60.41 C 83.91 57.82 78.08 54.60 72.05 51.84 C 70.07 50.75 67.12 50.04 67.14 47.27 Z" />
<path fill="#1ab2ff" opacity="1.00" d=" M 163.37 59.41 C 165.32 58.03 167.91 59.86 167.66 62.10 C 167.76 87.40 167.67 112.72 167.73 138.03 C 168.03 140.05 166.41 141.21 164.79 141.93 C 142.75 153.21 120.79 164.67 98.73 175.91 C 96.64 177.55 93.57 175.63 94.02 173.05 C 93.99 147.67 93.95 122.29 94.05 96.91 C 93.89 94.98 95.94 94.13 97.33 93.35 C 119.36 82.07 141.29 70.59 163.37 59.41 M 105.24 102.09 C 105.27 121.33 105.27 140.58 105.25 159.83 C 122.34 151.07 139.42 142.27 156.47 133.43 C 156.48 114.20 156.59 94.98 156.43 75.75 C 139.28 84.36 122.25 93.21 105.24 102.09 Z" />
<path fill="#1ab2ff" opacity="1.00" d=" M 46.38 101.26 C 47.95 99.59 50.63 100.98 51.07 102.98 C 56.12 115.32 61.32 127.61 66.14 140.04 C 67.40 142.76 63.90 144.84 61.73 143.28 C 51.84 138.46 41.87 133.80 32.05 128.86 C 29.98 128.08 29.42 125.57 30.88 123.94 C 36.04 116.38 40.87 108.56 46.38 101.26 Z" />
<path fill="#1ab2ff" opacity="1.00" d=" M 134.37 102.47 C 138.92 100.83 143.76 104.37 144.25 109.02 C 145.48 119.16 139.33 129.72 130.15 134.04 C 125.48 136.31 119.75 133.07 119.22 127.94 C 117.97 117.48 124.46 106.23 134.37 102.47 Z" />
</g>
</svg>
