<?xml version="1.0" encoding="UTF-8" ?>
<!DOCTYPE svg PUBLIC "-//W3C//DTD SVG 1.1//EN" "http://www.w3.org/Graphics/SVG/1.1/DTD/svg11.dtd">
<svg width="192pt" height="192pt" viewBox="0 0 192 192" version="1.1" xmlns="http://www.w3.org/2000/svg">
<g id="#44c1daff">
<path fill="#44c1da" opacity="1.00" d=" M 141.48 18.51 C 149.10 16.28 156.22 25.86 151.37 32.35 C 119.58 77.21 87.57 121.91 55.75 166.73 C 53.95 169.21 52.22 172.30 48.94 172.95 C 44.52 174.23 39.74 170.52 39.56 166.00 C 39.28 162.41 42.07 159.73 43.89 156.96 C 73.43 115.32 103.04 73.72 132.50 32.02 C 112.74 35.59 92.56 37.90 72.52 35.24 C 74.99 42.75 77.44 50.73 75.63 58.69 C 73.00 73.17 58.68 84.33 43.96 83.14 C 28.27 82.87 14.21 68.82 14.44 53.03 C 13.67 37.09 27.19 22.47 42.92 21.19 C 52.34 20.95 61.42 23.97 70.65 25.39 C 94.25 29.54 119.40 28.44 141.48 18.51 M 41.43 31.69 C 32.00 33.39 24.45 42.37 24.62 52.00 C 24.30 61.69 31.82 70.86 41.34 72.57 C 48.21 73.95 55.69 71.62 60.40 66.40 C 67.93 58.84 67.94 45.21 60.25 37.76 C 55.58 32.60 48.22 30.42 41.43 31.69 Z" />
<path fill="#44c1da" opacity="1.00" d=" M 141.41 108.55 C 154.39 106.23 167.96 113.39 173.88 125.06 C 179.92 136.65 177.72 152.08 168.14 161.13 C 158.62 171.26 141.95 173.11 130.24 165.80 C 120.21 159.70 114.12 147.75 115.56 136.03 C 116.65 122.46 127.92 110.45 141.41 108.55 M 142.45 118.73 C 132.93 120.31 125.24 129.31 125.42 139.01 C 125.00 149.07 133.15 158.50 143.09 159.79 C 150.25 160.96 157.84 158.04 162.35 152.35 C 168.97 144.65 168.50 131.91 161.19 124.82 C 156.52 119.72 149.21 117.48 142.45 118.73 Z" />
</g>
</svg>
