<?xml version="1.0" encoding="UTF-8" ?>
<!DOCTYPE svg PUBLIC "-//W3C//DTD SVG 1.1//EN" "http://www.w3.org/Graphics/SVG/1.1/DTD/svg11.dtd">
<svg width="192pt" height="192pt" viewBox="0 0 192 192" version="1.1" xmlns="http://www.w3.org/2000/svg">
<g id="#c27de0ff">
<path fill="#c27de0" opacity="1.00" d=" M 42.29 25.36 C 75.77 23.90 109.44 25.16 142.99 24.71 C 155.36 23.77 166.98 34.51 166.85 46.93 C 166.92 79.31 166.92 111.69 166.87 144.07 C 167.10 156.20 156.10 166.98 143.98 166.56 C 111.33 166.51 78.68 166.69 46.04 166.45 C 31.22 165.96 21.36 149.29 25.83 135.77 C 28.78 130.20 37.65 133.96 36.30 139.98 C 35.04 146.88 39.34 155.03 46.97 155.16 C 79.31 155.31 111.66 155.21 144.00 155.18 C 150.10 155.48 155.64 150.08 155.52 143.98 C 155.58 111.97 155.53 79.96 155.56 47.95 C 155.98 41.66 150.44 35.69 144.05 36.10 C 112.36 36.22 80.67 35.91 48.99 35.90 C 42.67 35.37 36.32 40.39 36.35 46.92 C 36.26 67.95 36.31 88.98 36.33 110.01 C 36.00 112.14 37.82 114.10 39.98 113.77 C 71.99 113.91 104.02 113.61 136.02 113.91 C 143.77 114.02 143.80 126.71 136.03 126.79 C 103.01 126.96 69.97 126.83 36.94 126.81 C 30.62 127.03 24.98 121.37 25.06 115.09 C 24.99 92.37 25.01 69.65 25.07 46.93 C 25.05 36.92 32.55 27.58 42.29 25.36 Z" />
<path fill="#c27de0" opacity="1.00" d=" M 93.48 68.44 C 97.49 66.97 99.64 71.86 102.22 74.00 C 101.25 75.45 100.32 76.93 99.55 78.49 C 101.07 77.57 102.49 76.50 103.87 75.38 C 104.65 76.24 105.43 77.10 106.22 77.96 C 105.20 79.37 104.21 80.80 103.37 82.33 C 104.87 81.34 106.32 80.28 107.75 79.18 C 108.52 80.08 109.30 80.97 110.07 81.87 C 109.07 83.17 108.08 84.48 107.14 85.82 C 108.83 85.22 110.32 84.19 111.75 83.11 C 112.46 84.00 113.19 84.89 113.91 85.77 C 112.77 86.97 111.73 88.27 111.12 89.82 C 112.49 88.96 113.83 88.03 115.12 87.05 C 116.01 87.77 116.91 88.48 117.81 89.17 C 116.70 90.61 115.62 92.08 114.65 93.62 C 116.21 92.83 117.65 91.82 119.03 90.75 C 119.91 91.54 120.78 92.34 121.65 93.13 C 120.54 94.52 119.46 95.94 118.62 97.52 C 120.11 96.60 121.51 95.54 122.88 94.44 C 123.72 95.30 124.55 96.16 125.38 97.02 C 124.30 98.38 123.26 99.79 122.42 101.32 C 123.96 100.43 125.41 99.39 126.81 98.29 C 127.59 99.16 128.36 100.02 129.13 100.89 C 128.02 102.23 127.07 103.69 126.43 105.31 C 127.79 104.28 129.09 103.18 130.36 102.04 C 131.27 102.95 132.17 103.86 133.08 104.77 C 132.01 105.96 130.96 107.16 129.94 108.39 C 122.91 108.49 115.88 108.38 108.85 108.44 C 100.74 100.45 92.76 92.33 84.70 84.29 C 83.39 82.94 81.22 80.86 82.95 78.97 C 86.32 75.33 89.81 71.77 93.48 68.44 M 89.47 75.45 C 89.47 76.48 89.48 77.51 89.49 78.54 C 94.48 80.92 94.46 73.11 89.47 75.45 Z" />
<path fill="#c27de0" opacity="1.00" d=" M 43.45 72.70 C 55.69 84.49 67.17 97.11 79.80 108.47 C 67.68 108.26 55.55 108.43 43.43 108.37 C 43.43 96.48 43.42 84.59 43.45 72.70 M 49.45 87.57 C 49.37 92.88 49.37 98.20 49.45 103.51 C 54.71 103.56 59.98 103.61 65.25 103.45 C 60.10 98.04 54.76 92.82 49.45 87.57 Z" />
<path fill="#c27de0" opacity="1.00" d=" M 61.85 76.53 C 65.65 77.76 69.99 78.10 72.99 81.03 C 82.20 90.02 91.16 99.25 100.25 108.36 C 97.39 108.28 94.27 109.08 91.65 107.58 C 90.11 108.22 88.47 108.49 86.83 108.65 C 79.80 101.51 72.66 94.46 65.79 87.17 C 62.79 84.36 63.64 79.96 61.85 76.53 Z" />
</g>
</svg>
