<?xml version="1.0" encoding="UTF-8" ?>
<!DOCTYPE svg PUBLIC "-//W3C//DTD SVG 1.1//EN" "http://www.w3.org/Graphics/SVG/1.1/DTD/svg11.dtd">
<svg width="192pt" height="192pt" viewBox="0 0 192 192" version="1.1" xmlns="http://www.w3.org/2000/svg">
<g id="#19afffff">
<path fill="#19afff" opacity="1.00" d=" M 93.34 21.41 C 95.94 19.77 98.83 21.41 101.05 22.90 C 123.83 37.81 146.89 52.32 169.55 67.39 C 174.18 70.45 169.42 78.08 164.66 75.35 C 142.65 61.43 120.91 47.06 99.01 32.97 C 97.21 31.77 94.64 31.70 92.84 32.92 C 70.62 46.98 48.65 61.47 26.32 75.34 C 21.17 77.96 16.92 69.81 21.98 67.05 C 45.72 51.77 69.47 36.48 93.34 21.41 Z" />
<path fill="#19afff" opacity="1.00" d=" M 91.35 57.51 C 98.53 54.13 107.65 60.07 107.44 68.00 C 107.91 76.62 97.19 82.81 89.98 78.00 C 82.14 73.71 82.86 60.63 91.35 57.51 Z" />
<path fill="#19afff" opacity="1.00" d=" M 54.32 81.39 C 62.97 79.17 71.03 89.07 67.16 97.10 C 64.17 105.47 51.52 106.66 47.03 98.99 C 42.34 92.63 46.53 82.57 54.32 81.39 Z" />
<path fill="#19afff" opacity="1.00" d=" M 130.37 81.53 C 137.85 78.15 147.23 84.86 146.32 93.04 C 145.95 101.48 135.16 106.96 128.30 101.78 C 120.81 97.13 122.02 84.51 130.37 81.53 Z" />
<path fill="#19afff" opacity="1.00" d=" M 86.11 99.83 C 92.02 99.56 98.06 99.14 103.90 100.27 C 107.81 101.06 109.06 105.46 108.91 108.95 C 108.78 112.84 109.63 117.55 106.63 120.60 C 102.71 123.60 97.41 122.42 92.82 122.76 C 92.87 125.73 92.74 128.70 92.72 131.68 C 90.57 132.26 88.36 132.11 86.18 131.78 C 85.81 121.14 85.96 110.48 86.11 99.83 M 92.97 105.42 C 92.64 109.19 92.83 112.97 92.80 116.74 C 95.62 116.44 99.20 117.78 101.47 115.61 C 102.46 112.76 102.39 109.40 101.41 106.55 C 99.07 104.65 95.73 105.77 92.97 105.42 Z" />
<path fill="#19afff" opacity="1.00" d=" M 53.31 122.41 C 62.00 119.29 70.87 129.02 67.40 137.42 C 64.71 145.96 51.76 147.60 47.11 139.90 C 42.54 133.87 46.01 124.27 53.31 122.41 Z" />
<path fill="#19afff" opacity="1.00" d=" M 131.35 122.44 C 139.38 119.42 148.25 127.75 146.04 135.93 C 144.49 143.89 133.72 147.86 127.56 142.44 C 120.45 137.19 122.63 124.58 131.35 122.44 Z" />
<path fill="#19afff" opacity="1.00" d=" M 91.35 148.42 C 98.94 144.63 108.37 151.78 107.42 160.02 C 107.06 168.74 95.54 173.85 88.86 168.18 C 82.06 163.24 83.42 151.45 91.35 148.42 Z" />
</g>
</svg>
