<?xml version="1.0" encoding="UTF-8" ?>
<!DOCTYPE svg PUBLIC "-//W3C//DTD SVG 1.1//EN" "http://www.w3.org/Graphics/SVG/1.1/DTD/svg11.dtd">
<svg width="192pt" height="192pt" viewBox="0 0 192 192" version="1.1" xmlns="http://www.w3.org/2000/svg">
<g id="#5f6f81ff">
<path fill="#5f6f81" opacity="1.00" d=" M 21.07 26.93 C 20.85 19.99 27.02 13.62 33.99 13.76 C 73.99 13.72 114.01 13.71 154.01 13.76 C 160.94 13.72 167.07 20.02 166.83 26.95 C 166.88 49.32 166.88 71.69 166.85 94.06 C 167.18 101.08 161.05 107.51 154.01 107.45 C 135.98 107.45 117.95 107.58 99.92 107.37 C 99.38 112.30 99.75 117.26 99.69 122.21 C 105.90 122.55 112.19 121.74 118.35 122.62 C 123.90 124.36 122.79 133.55 116.88 133.61 C 101.63 133.75 86.37 133.73 71.12 133.61 C 65.21 133.62 63.96 124.22 69.63 122.59 C 75.78 121.79 82.04 122.52 88.24 122.23 C 88.24 117.29 88.47 112.34 88.05 107.42 C 70.03 107.52 52.01 107.46 34.00 107.45 C 26.93 107.57 20.78 101.10 21.06 94.07 C 21.04 71.69 21.04 49.31 21.07 26.93 M 32.57 25.54 C 32.33 48.85 32.45 72.18 32.51 95.49 C 36.95 96.44 41.50 95.88 46.00 96.01 C 82.36 95.90 118.72 96.19 155.08 95.86 C 155.90 73.25 155.26 50.57 155.41 27.94 C 156.11 24.48 152.14 25.32 150.01 25.22 C 110.87 25.49 71.70 24.85 32.57 25.54 Z" />
<path fill="#5f6f81" opacity="1.00" d=" M 86.42 142.52 C 101.11 140.74 116.31 144.34 128.81 152.20 C 132.41 154.42 131.86 160.50 127.88 162.00 C 124.28 163.60 121.04 160.49 117.92 159.16 C 101.29 150.55 80.47 151.99 64.71 161.85 C 59.21 165.08 53.58 156.39 58.59 152.59 C 66.74 146.85 76.60 143.82 86.42 142.52 Z" />
<path fill="#5f6f81" opacity="1.00" d=" M 86.36 158.50 C 95.73 156.42 106.22 158.25 113.87 164.15 C 117.90 168.33 112.47 175.83 107.27 172.93 C 100.54 169.04 92.02 167.68 84.76 170.92 C 82.05 172.04 79.20 174.56 76.14 173.02 C 72.44 171.61 71.48 166.11 74.61 163.62 C 78.02 160.98 82.22 159.54 86.36 158.50 Z" />
</g>
</svg>
