<?xml version="1.0" encoding="UTF-8" ?>
<!DOCTYPE svg PUBLIC "-//W3C//DTD SVG 1.1//EN" "http://www.w3.org/Graphics/SVG/1.1/DTD/svg11.dtd">
<svg width="192pt" height="192pt" viewBox="0 0 192 192" version="1.1" xmlns="http://www.w3.org/2000/svg">
<g id="#f98a3cff">
<path fill="#f98a3c" opacity="1.00" d=" M 83.34 11.45 C 115.06 6.72 148.42 22.68 164.83 50.18 C 177.10 69.94 180.08 94.97 173.33 117.17 C 164.47 147.21 137.07 170.78 105.95 174.73 C 75.08 179.50 42.47 164.66 25.60 138.42 C 6.97 110.93 7.70 72.12 27.29 45.32 C 40.28 26.99 61.02 14.31 83.34 11.45 M 86.36 22.47 C 66.18 24.64 47.27 36.07 35.88 52.87 C 22.57 71.78 19.64 97.39 28.16 118.87 C 37.12 142.40 59.42 160.17 84.40 163.49 C 107.52 166.98 131.96 158.01 147.40 140.48 C 168.36 117.84 171.50 81.22 154.66 55.36 C 140.62 32.52 113.01 19.13 86.36 22.47 Z" />
<path fill="#f98a3c" opacity="1.00" d=" M 53.38 67.57 C 65.02 63.20 78.75 72.61 79.10 84.97 C 80.00 95.62 70.70 105.80 59.98 105.66 C 50.12 106.17 40.83 97.95 40.14 88.11 C 38.98 79.25 44.89 70.23 53.38 67.57 M 56.36 78.47 C 50.32 80.59 49.50 89.79 54.94 93.06 C 59.81 96.68 67.58 92.95 67.82 86.90 C 68.66 80.99 61.78 75.75 56.36 78.47 Z" />
<path fill="#f98a3c" opacity="1.00" d=" M 123.35 67.49 C 130.54 65.11 138.91 67.40 143.90 73.09 C 149.92 79.54 150.53 90.21 145.37 97.35 C 141.52 102.84 134.77 106.22 128.04 105.62 C 118.72 105.30 110.60 97.24 109.87 88.00 C 108.83 79.09 114.81 70.11 123.35 67.49 M 126.31 78.40 C 120.39 80.35 119.22 89.25 124.31 92.77 C 128.84 96.56 136.49 93.61 137.50 87.85 C 139.06 81.75 132.12 75.65 126.31 78.40 Z" />
<path fill="#f98a3c" opacity="1.00" d=" M 72.39 115.57 C 87.11 115.34 101.89 115.30 116.61 115.59 C 122.66 116.49 122.04 126.51 115.88 126.57 C 101.38 126.63 86.85 126.77 72.36 126.49 C 66.62 125.72 66.63 116.30 72.39 115.57 Z" />
</g>
</svg>
