<?xml version="1.0" encoding="UTF-8" ?>
<!DOCTYPE svg PUBLIC "-//W3C//DTD SVG 1.1//EN" "http://www.w3.org/Graphics/SVG/1.1/DTD/svg11.dtd">
<svg width="192pt" height="192pt" viewBox="0 0 192 192" version="1.1" xmlns="http://www.w3.org/2000/svg">
<g id="#f9853fff">
<path fill="#f9853f" opacity="1.00" d=" M 83.35 11.45 C 115.09 6.71 148.40 22.69 164.83 50.18 C 177.38 70.39 180.21 96.13 172.85 118.70 C 163.47 148.33 135.99 171.26 105.06 174.85 C 74.43 179.23 42.32 164.39 25.58 138.42 C 7.13 111.12 7.66 72.66 26.89 45.89 C 39.87 27.26 60.79 14.32 83.35 11.45 M 86.37 22.47 C 62.72 24.95 41.04 40.32 30.67 61.69 C 15.32 91.29 24.88 130.72 51.99 150.10 C 78.18 170.47 118.50 168.36 142.49 145.45 C 167.27 123.58 172.89 83.82 155.04 55.98 C 141.13 32.77 113.25 19.09 86.37 22.47 Z" />
<path fill="#f9853f" opacity="1.00" d=" M 62.27 60.33 C 69.25 57.54 77.81 62.54 78.91 69.95 C 80.53 77.16 74.32 84.75 66.97 84.73 C 60.45 85.20 54.21 79.61 54.03 73.07 C 53.47 67.59 57.08 62.11 62.27 60.33 Z" />
<path fill="#f9853f" opacity="1.00" d=" M 118.29 60.26 C 126.71 56.92 136.45 65.08 134.79 73.94 C 134.00 83.41 121.17 88.29 114.24 81.79 C 106.79 76.05 109.23 62.89 118.29 60.26 Z" />
<path fill="#f9853f" opacity="1.00" d=" M 58.39 101.60 C 81.59 101.18 104.84 101.56 128.05 101.41 C 131.36 100.96 135.04 103.39 134.87 106.97 C 135.26 122.10 125.97 136.86 112.36 143.38 C 99.99 149.67 84.39 148.77 72.76 141.26 C 61.22 134.02 53.70 120.60 54.05 106.93 C 53.90 104.39 55.92 102.02 58.39 101.60 M 65.83 112.71 C 67.72 124.00 77.14 133.36 88.27 135.69 C 103.69 139.43 120.47 128.32 123.14 112.72 C 104.04 112.66 84.93 112.67 65.83 112.71 Z" />
</g>
</svg>
