<?xml version="1.0" encoding="UTF-8" ?>
<!DOCTYPE svg PUBLIC "-//W3C//DTD SVG 1.1//EN" "http://www.w3.org/Graphics/SVG/1.1/DTD/svg11.dtd">
<svg width="192pt" height="192pt" viewBox="0 0 192 192" version="1.1" xmlns="http://www.w3.org/2000/svg">
<g id="#f98b3cff">
<path fill="#f98b3c" opacity="1.00" d=" M 83.37 11.45 C 115.09 6.72 148.42 22.69 164.81 50.18 C 177.65 70.83 180.36 97.28 172.34 120.19 C 162.64 148.84 135.97 170.91 105.92 174.74 C 75.28 179.44 42.94 164.89 25.98 139.00 C 7.27 111.87 7.50 73.39 26.50 46.46 C 39.45 27.52 60.57 14.33 83.37 11.45 M 86.38 22.47 C 65.46 24.71 45.96 36.92 34.67 54.65 C 22.83 72.72 20.10 96.30 27.33 116.64 C 36.73 144.35 64.66 164.52 94.01 164.16 C 124.47 164.92 153.55 143.46 162.30 114.36 C 169.52 91.85 164.46 65.90 149.20 47.83 C 134.29 29.48 109.86 19.63 86.38 22.47 Z" />
<path fill="#f98b3c" opacity="1.00" d=" M 62.29 67.33 C 68.97 64.66 77.19 69.11 78.73 76.11 C 80.93 83.48 74.62 91.76 66.96 91.70 C 60.06 92.22 53.58 85.91 54.02 78.98 C 53.88 73.83 57.45 68.97 62.29 67.33 Z" />
<path fill="#f98b3c" opacity="1.00" d=" M 118.30 67.26 C 125.60 64.41 134.49 70.19 134.84 78.01 C 135.77 84.87 129.86 91.60 122.98 91.71 C 117.01 92.23 111.29 87.70 110.08 81.90 C 108.56 75.87 112.36 69.11 118.30 67.26 Z" />
<path fill="#f98b3c" opacity="1.00" d=" M 63.36 118.66 C 58.52 115.68 61.76 107.24 67.39 108.52 C 76.39 111.47 85.12 115.25 94.09 118.31 C 103.42 115.73 112.29 111.35 121.59 108.51 C 126.77 107.42 130.20 114.83 126.16 118.16 C 121.51 121.23 115.62 121.81 110.88 124.69 C 115.77 126.62 120.86 128.13 125.59 130.42 C 130.34 133.42 127.13 141.71 121.58 140.54 C 112.31 137.63 103.42 133.42 94.12 130.66 C 85.18 133.82 76.42 137.53 67.42 140.50 C 62.14 141.75 58.67 134.16 62.79 130.81 C 67.52 127.89 73.27 127.09 78.11 124.33 C 73.20 122.44 68.10 120.95 63.36 118.66 Z" />
</g>
</svg>
