<?xml version="1.0" encoding="UTF-8" ?>
<!DOCTYPE svg PUBLIC "-//W3C//DTD SVG 1.1//EN" "http://www.w3.org/Graphics/SVG/1.1/DTD/svg11.dtd">
<svg width="192pt" height="192pt" viewBox="0 0 192 192" version="1.1" xmlns="http://www.w3.org/2000/svg">
<g id="#f98a3cff">
<path fill="#f98a3c" opacity="1.00" d=" M 83.35 11.44 C 115.08 6.71 148.41 22.70 164.84 50.19 C 177.11 69.94 180.07 94.99 173.32 117.18 C 164.45 147.21 137.07 170.79 105.95 174.74 C 75.31 179.44 42.96 164.90 25.98 139.01 C 6.82 111.27 7.58 71.73 27.72 44.72 C 40.75 26.71 61.26 14.26 83.35 11.44 M 85.43 22.57 C 64.64 25.11 45.33 37.46 34.29 55.26 C 23.04 72.79 20.32 95.37 26.82 115.13 C 34.91 140.65 58.49 160.38 85.11 163.59 C 108.75 166.92 133.59 157.21 148.82 138.86 C 168.22 116.50 171.03 81.75 155.42 56.60 C 141.46 32.76 112.84 18.76 85.43 22.57 Z" />
<path fill="#f98a3c" opacity="1.00" d=" M 77.40 46.52 C 82.48 42.84 89.06 50.26 84.81 54.80 C 79.83 58.45 73.90 60.72 68.38 63.46 C 63.16 65.65 58.46 58.37 62.39 54.42 C 67.03 51.20 72.41 49.17 77.40 46.52 Z" />
<path fill="#f98a3c" opacity="1.00" d=" M 105.40 46.51 C 112.10 44.13 118.02 50.84 124.19 52.87 C 130.10 54.70 128.41 64.48 122.10 63.78 C 116.55 62.29 111.65 58.91 106.43 56.52 C 102.26 55.06 101.49 48.70 105.40 46.51 Z" />
<path fill="#f98a3c" opacity="1.00" d=" M 49.42 74.49 C 51.99 72.65 55.98 73.60 57.43 76.41 C 58.46 79.12 58.17 82.41 60.28 84.64 C 63.31 88.39 69.65 88.40 72.73 84.71 C 75.85 81.80 73.72 75.90 78.13 74.05 C 83.04 71.65 87.65 77.39 85.89 82.05 C 84.40 96.08 66.04 103.81 55.00 94.95 C 49.20 90.73 43.71 80.56 49.42 74.49 Z" />
<path fill="#f98a3c" opacity="1.00" d=" M 105.40 74.43 C 107.98 72.62 111.99 73.72 113.33 76.57 C 114.33 79.27 114.02 82.59 116.22 84.76 C 119.32 88.47 125.59 88.32 128.63 84.61 C 131.57 81.84 129.66 76.53 133.39 74.37 C 136.48 72.25 141.29 74.38 141.77 78.09 C 142.96 89.00 132.91 99.27 122.02 98.69 C 112.36 98.82 103.63 90.62 102.90 81.04 C 102.42 78.58 103.17 75.79 105.40 74.43 Z" />
<path fill="#f98a3c" opacity="1.00" d=" M 62.38 108.46 C 65.98 107.96 68.06 111.53 70.52 113.48 C 83.62 125.26 105.38 125.27 118.44 113.40 C 120.86 111.40 123.00 107.88 126.62 108.49 C 130.36 108.86 132.74 113.47 130.74 116.69 C 113.44 139.04 75.54 139.03 58.16 116.76 C 56.07 113.52 58.58 108.77 62.38 108.46 Z" />
</g>
</svg>
