<?xml version="1.0" encoding="UTF-8" ?>
<!DOCTYPE svg PUBLIC "-//W3C//DTD SVG 1.1//EN" "http://www.w3.org/Graphics/SVG/1.1/DTD/svg11.dtd">
<svg width="192pt" height="192pt" viewBox="0 0 192 192" version="1.1" xmlns="http://www.w3.org/2000/svg">
<g id="#f98141ff">
<path fill="#f98141" opacity="1.00" d=" M 83.35 11.45 C 115.07 6.72 148.42 22.68 164.82 50.18 C 177.66 70.83 180.33 97.27 172.34 120.18 C 162.65 148.83 135.99 170.89 105.95 174.74 C 75.07 179.50 42.46 164.66 25.58 138.41 C 7.11 111.11 7.67 72.66 26.89 45.88 C 39.88 27.26 60.78 14.31 83.35 11.45 M 85.42 22.56 C 64.64 25.13 45.34 37.47 34.28 55.26 C 22.75 73.24 20.17 96.54 27.34 116.65 C 35.90 141.74 59.54 160.81 85.92 163.70 C 109.81 166.78 134.79 156.59 149.73 137.72 C 168.72 115.02 170.76 80.18 154.67 55.37 C 140.47 32.23 112.35 18.84 85.42 22.56 Z" />
<path fill="#f98141" opacity="1.00" d=" M 61.27 60.30 C 73.43 56.36 87.29 67.31 85.97 80.07 C 85.60 84.07 80.43 86.09 77.29 83.79 C 73.94 81.54 75.59 76.73 73.01 73.96 C 70.05 70.06 63.73 69.75 60.47 73.43 C 58.05 75.78 58.62 79.44 57.28 82.29 C 54.94 86.10 48.48 85.25 47.25 80.94 C 45.80 71.82 52.50 62.63 61.27 60.30 Z" />
<path fill="#f98141" opacity="1.00" d=" M 116.37 60.54 C 128.29 56.15 142.36 66.31 141.86 79.00 C 142.33 83.43 136.67 86.37 133.18 83.84 C 129.76 81.71 131.42 76.84 128.91 74.07 C 126.04 70.08 119.66 69.73 116.37 73.38 C 113.19 76.05 115.14 81.33 111.68 83.74 C 108.55 86.14 103.26 84.05 102.89 80.03 C 102.19 71.46 108.20 63.03 116.37 60.54 Z" />
<path fill="#f98141" opacity="1.00" d=" M 40.11 111.93 C 40.93 102.83 48.90 95.05 58.04 94.53 C 67.02 93.70 76.06 99.92 78.28 108.69 C 78.97 112.82 83.78 113.62 87.10 114.73 C 94.61 116.06 103.88 116.08 109.78 110.76 C 111.76 101.88 119.64 94.39 129.01 94.48 C 139.55 94.03 149.17 103.44 148.85 114.00 C 149.28 124.58 139.56 134.09 129.01 133.60 C 121.83 133.70 115.37 129.16 111.81 123.13 C 100.89 127.98 87.93 127.95 77.02 123.11 C 72.83 130.77 63.61 135.31 55.02 133.12 C 45.68 131.03 38.86 121.44 40.11 111.93 M 56.30 106.39 C 50.34 108.57 49.51 117.74 54.97 120.98 C 59.79 124.59 67.52 120.86 67.79 114.89 C 68.73 108.90 61.75 103.71 56.30 106.39 M 126.26 106.31 C 116.06 109.87 122.79 126.61 132.71 121.66 C 142.43 117.93 135.92 101.85 126.26 106.31 Z" />
</g>
</svg>
