<?xml version="1.0" encoding="UTF-8" ?>
<!DOCTYPE svg PUBLIC "-//W3C//DTD SVG 1.1//EN" "http://www.w3.org/Graphics/SVG/1.1/DTD/svg11.dtd">
<svg width="192pt" height="192pt" viewBox="0 0 192 192" version="1.1" xmlns="http://www.w3.org/2000/svg">
<g id="#f9893cff">
<path fill="#f9893c" opacity="1.00" d=" M 83.35 11.45 C 115.07 6.72 148.42 22.68 164.81 50.18 C 177.25 70.16 180.15 95.55 173.09 117.94 C 164.01 147.63 136.80 170.80 105.95 174.74 C 75.30 179.45 42.96 164.89 25.98 139.01 C 6.83 111.28 7.57 71.73 27.72 44.72 C 40.74 26.71 61.27 14.27 83.35 11.45 M 85.42 22.57 C 64.39 25.14 44.92 37.78 33.90 55.86 C 22.57 73.99 20.19 97.33 27.60 117.38 C 36.46 142.43 60.41 161.27 86.89 163.80 C 110.01 166.46 133.99 156.74 148.83 138.83 C 168.23 116.49 171.02 81.74 155.42 56.59 C 141.45 32.76 112.84 18.75 85.42 22.57 Z" />
<path fill="#f9893c" opacity="1.00" d=" M 70.40 39.55 C 75.90 35.61 82.20 44.04 77.37 48.35 C 72.01 51.47 66.40 54.33 60.66 56.67 C 55.24 58.20 51.49 50.30 55.93 47.01 C 60.56 44.18 65.59 42.05 70.40 39.55 Z" />
<path fill="#f9893c" opacity="1.00" d=" M 112.40 39.52 C 119.07 37.13 124.95 43.83 131.08 45.85 C 137.04 47.59 135.46 57.51 129.10 56.77 C 123.52 55.38 118.65 51.91 113.41 49.56 C 109.23 48.11 108.45 41.70 112.40 39.52 Z" />
<path fill="#f9893c" opacity="1.00" d=" M 62.29 67.32 C 68.97 64.67 77.18 69.08 78.72 76.08 C 80.92 83.47 74.68 91.76 66.98 91.70 C 60.47 92.17 54.24 86.60 54.04 80.07 C 53.44 74.59 57.07 69.04 62.29 67.32 Z" />
<path fill="#f9893c" opacity="1.00" d=" M 111.61 72.60 C 115.64 65.40 126.86 64.52 131.95 71.01 C 137.20 76.88 135.09 86.82 128.19 90.42 C 127.94 94.42 128.49 98.54 127.44 102.45 C 125.78 106.62 119.20 106.73 117.39 102.65 C 116.10 98.76 116.92 94.55 116.63 90.52 C 110.42 87.17 107.63 78.67 111.61 72.60 Z" />
<path fill="#f9893c" opacity="1.00" d=" M 84.38 109.50 C 100.94 105.80 119.28 111.76 130.30 124.68 C 133.03 127.82 130.70 133.18 126.64 133.56 C 123.00 134.20 120.88 130.60 118.39 128.64 C 106.59 117.98 87.68 116.72 74.48 125.56 C 70.89 127.56 68.52 131.10 65.09 133.28 C 60.44 135.30 55.41 129.54 58.18 125.26 C 64.63 117.10 74.28 111.70 84.38 109.50 Z" />
</g>
</svg>
