<?xml version="1.0" encoding="UTF-8" ?>
<!DOCTYPE svg PUBLIC "-//W3C//DTD SVG 1.1//EN" "http://www.w3.org/Graphics/SVG/1.1/DTD/svg11.dtd">
<svg width="192pt" height="192pt" viewBox="0 0 192 192" version="1.1" xmlns="http://www.w3.org/2000/svg">
<g id="#fb674dff">
<path fill="#fb674d" opacity="1.00" d=" M 82.01 11.97 C 112.05 6.97 144.23 20.58 161.52 45.64 C 168.48 45.04 176.15 49.53 176.71 56.97 C 176.88 70.32 176.82 83.68 176.73 97.03 C 175.91 125.94 158.02 153.28 132.36 166.37 C 109.52 178.33 80.99 178.61 57.94 167.07 C 31.85 154.41 13.47 127.12 12.22 98.06 C 11.91 84.68 12.08 71.30 12.11 57.92 C 12.18 50.41 19.68 44.79 26.93 45.84 C 39.86 27.83 60.00 15.13 82.01 11.97 M 41.62 45.72 C 76.85 46.02 112.08 45.87 147.31 45.80 C 134.12 31.21 114.74 22.22 95.00 22.32 C 74.95 22.01 54.99 30.78 41.62 45.72 M 23.39 57.44 C 23.25 69.29 23.30 81.15 23.34 93.01 C 23.07 97.70 27.32 101.88 32.00 101.58 C 43.61 101.60 55.23 101.69 66.84 101.54 C 71.68 101.50 75.44 96.76 74.87 92.05 C 74.88 85.80 73.40 76.59 81.11 74.21 C 89.65 73.31 98.42 73.67 107.01 74.00 C 114.80 75.66 114.49 84.79 114.06 91.01 C 113.18 95.97 116.63 101.55 121.98 101.54 C 133.66 101.66 145.34 101.61 157.02 101.56 C 161.63 101.76 165.84 97.66 165.55 93.00 C 165.58 81.16 165.61 69.31 165.53 57.46 C 118.19 56.88 70.73 56.93 23.39 57.44 M 86.12 85.11 C 86.13 90.78 86.77 96.84 84.03 102.04 C 80.62 109.05 72.74 113.41 65.00 112.77 C 51.97 112.40 38.87 113.47 25.90 112.17 C 33.73 142.10 63.03 164.59 94.01 164.21 C 125.30 164.98 155.05 142.36 162.99 112.15 C 149.73 113.53 136.31 112.41 122.99 112.78 C 115.00 113.23 107.17 108.11 104.23 100.71 C 102.13 95.78 102.88 90.30 102.74 85.10 C 97.21 84.73 91.65 84.75 86.12 85.11 Z" />
<path fill="#fb674d" opacity="1.00" d=" M 60.28 123.18 C 64.45 120.74 67.78 124.90 70.47 127.48 C 84.50 140.18 108.28 139.03 121.01 125.02 C 123.46 121.36 129.65 121.82 131.11 126.11 C 132.87 131.17 127.39 134.35 124.27 137.27 C 105.33 152.99 74.36 150.39 58.57 131.44 C 56.46 128.90 57.41 124.72 60.28 123.18 Z" />
</g>
</svg>
