<?xml version="1.0" encoding="UTF-8" ?>
<!DOCTYPE svg PUBLIC "-//W3C//DTD SVG 1.1//EN" "http://www.w3.org/Graphics/SVG/1.1/DTD/svg11.dtd">
<svg width="192pt" height="192pt" viewBox="0 0 192 192" version="1.1" xmlns="http://www.w3.org/2000/svg">
<g id="#97644cff">
<path fill="#97644c" opacity="1.00" d=" M 24.26 62.16 C 35.99 33.61 66.12 14.03 96.97 14.84 C 126.37 14.99 154.77 33.62 166.31 60.69 C 167.68 64.41 164.03 68.60 160.15 67.79 C 156.85 67.61 155.59 64.17 154.28 61.69 C 143.25 40.01 119.35 25.51 94.97 26.31 C 66.35 26.28 39.09 47.06 31.82 74.79 C 30.38 81.37 29.53 88.09 29.14 94.82 C 33.04 94.96 36.96 94.63 40.84 95.08 C 42.74 96.06 42.97 98.91 41.23 100.15 C 36.43 105.07 31.61 109.96 26.72 114.78 C 25.12 116.78 22.37 115.67 21.10 113.93 C 16.31 108.72 10.67 104.22 6.39 98.60 C 5.98 92.73 14.19 95.64 17.79 94.84 C 18.74 83.78 19.67 72.42 24.26 62.16 Z" />
<path fill="#97644c" opacity="1.00" d=" M 86.74 47.94 C 86.46 43.53 92.17 40.70 95.57 43.43 C 98.05 45.08 98.03 48.31 98.11 50.96 C 98.11 65.30 98.13 79.65 98.09 93.99 C 108.19 104.53 118.80 114.57 128.85 125.15 C 132.98 129.93 125.77 137.34 120.98 132.98 C 110.65 123.00 100.72 112.60 90.48 102.52 C 88.74 100.73 86.46 98.84 86.71 96.06 C 86.69 80.02 86.63 63.98 86.74 47.94 Z" />
<path fill="#97644c" opacity="1.00" d=" M 165.05 74.89 C 167.49 72.96 169.65 76.26 171.32 77.70 C 175.65 82.61 181.23 86.58 184.82 92.03 C 184.47 97.62 177.05 94.73 173.36 95.40 C 172.30 106.90 171.35 118.75 166.32 129.33 C 154.39 156.99 125.10 175.86 95.01 175.47 C 65.13 175.66 35.89 156.72 24.61 128.95 C 23.09 122.67 32.90 119.77 35.22 125.66 C 43.51 143.46 59.85 157.35 79.00 162.01 C 107.20 169.58 139.14 155.57 153.18 130.09 C 159.52 119.68 161.20 107.34 161.87 95.39 C 157.94 95.33 153.98 95.69 150.08 95.18 C 148.22 93.93 148.16 91.28 149.95 89.96 C 154.99 84.95 159.84 79.73 165.05 74.89 Z" />
</g>
</svg>
