<?xml version="1.0" encoding="UTF-8" ?>
<!DOCTYPE svg PUBLIC "-//W3C//DTD SVG 1.1//EN" "http://www.w3.org/Graphics/SVG/1.1/DTD/svg11.dtd">
<svg width="192pt" height="192pt" viewBox="0 0 192 192" version="1.1" xmlns="http://www.w3.org/2000/svg">
<g id="#45e372ff">
<path fill="#45e372" opacity="1.00" d=" M 111.31 20.35 C 134.85 14.88 160.36 32.03 164.21 55.86 C 169.60 80.48 150.17 106.85 125.03 108.78 C 117.88 110.47 110.82 106.29 103.83 107.82 C 98.27 111.41 94.24 116.92 89.26 121.27 C 86.84 123.34 84.19 126.51 85.98 129.84 C 90.45 135.72 96.69 140.07 101.17 145.95 C 104.03 150.75 97.30 156.72 92.98 153.00 C 85.93 146.38 79.15 139.44 72.34 132.57 C 69.23 129.72 69.53 124.41 72.72 121.74 C 81.17 113.53 89.41 105.08 98.01 97.03 C 104.39 91.83 111.93 97.78 118.91 97.65 C 136.59 99.10 153.05 83.61 153.65 66.08 C 154.68 52.38 146.15 38.79 133.57 33.44 C 121.30 27.87 105.89 30.87 96.49 40.49 C 86.53 50.24 83.78 66.43 90.18 78.85 C 92.17 82.13 92.76 86.78 89.55 89.54 C 71.85 107.18 54.29 124.99 36.44 142.48 C 31.41 146.63 24.40 138.59 29.15 134.13 C 44.67 118.32 60.52 102.83 76.07 87.05 C 81.00 81.79 75.83 74.95 75.75 68.96 C 72.79 46.74 89.24 24.24 111.31 20.35 Z" />
<path fill="#45e372" opacity="1.00" d=" M 116.44 49.69 C 127.93 46.14 139.05 59.78 133.30 70.32 C 128.74 81.24 111.36 81.21 106.80 70.31 C 102.66 62.36 107.70 51.62 116.44 49.69 Z" />
<path fill="#45e372" opacity="1.00" d=" M 59.38 139.39 C 62.76 138.60 65.55 141.04 67.65 143.35 C 73.81 149.84 80.44 155.89 86.39 162.55 C 89.74 167.13 83.55 173.31 78.91 170.21 C 72.85 165.20 67.99 158.84 61.87 153.90 C 56.68 152.87 55.16 160.78 49.99 160.44 C 44.94 160.61 42.56 153.52 46.50 150.47 C 50.78 146.83 53.93 141.31 59.38 139.39 Z" />
</g>
</svg>
