<?xml version="1.0" encoding="UTF-8" ?>
<!DOCTYPE svg PUBLIC "-//W3C//DTD SVG 1.1//EN" "http://www.w3.org/Graphics/SVG/1.1/DTD/svg11.dtd">
<svg width="192pt" height="192pt" viewBox="0 0 192 192" version="1.1" xmlns="http://www.w3.org/2000/svg">
<g id="#ff3662ff">
<path fill="#ff3662" opacity="1.00" d=" M 72.46 17.44 C 74.03 15.65 76.46 14.46 78.85 15.32 C 104.54 22.22 130.23 29.13 155.91 36.09 C 161.81 57.93 167.61 79.81 173.41 101.69 C 174.49 103.91 172.32 106.43 170.00 105.05 C 147.89 98.87 125.72 92.83 103.66 86.47 C 99.64 71.16 95.32 55.93 91.37 40.60 C 95.58 40.44 101.69 41.23 102.92 46.08 C 106.12 56.64 109.27 67.22 112.38 77.81 C 128.04 82.33 143.76 86.61 159.46 91.00 C 155.40 75.60 151.31 60.20 147.16 44.83 C 124.61 38.85 102.17 32.39 79.53 26.81 C 84.13 47.71 90.64 68.23 95.90 89.00 C 96.55 90.52 96.36 93.06 98.30 93.58 C 122.79 100.49 147.37 107.12 171.81 114.20 C 174.88 114.45 175.76 118.54 173.31 120.25 C 156.02 137.65 138.67 154.99 121.35 172.36 C 119.99 173.88 118.02 174.82 116.00 173.98 C 91.26 167.49 66.55 160.85 41.82 154.29 C 39.73 153.92 38.08 152.48 37.72 150.34 C 30.99 125.55 24.29 100.75 17.63 75.95 C 16.91 74.11 17.43 72.18 18.94 70.94 C 36.80 53.13 54.68 35.34 72.46 17.44 M 31.07 74.09 C 29.53 75.37 28.97 77.40 29.63 79.29 C 35.12 99.82 40.73 120.32 46.21 140.85 C 46.67 142.80 47.61 144.94 49.83 145.29 C 70.56 150.90 91.35 156.34 112.09 161.89 C 114.06 162.58 116.31 162.46 117.71 160.73 C 130.85 147.53 144.12 134.45 157.10 121.09 C 134.18 114.68 111.22 108.38 88.32 101.85 C 82.30 79.56 76.37 57.23 70.20 34.98 C 57.11 47.97 44.08 61.02 31.07 74.09 Z" />
</g>
</svg>
