<?xml version="1.0" encoding="UTF-8" ?>
<!DOCTYPE svg PUBLIC "-//W3C//DTD SVG 1.1//EN" "http://www.w3.org/Graphics/SVG/1.1/DTD/svg11.dtd">
<svg width="192pt" height="192pt" viewBox="0 0 192 192" version="1.1" xmlns="http://www.w3.org/2000/svg">
<g id="#46b96dff">
<path fill="#46b96d" opacity="1.00" d=" M 59.21 27.23 C 62.29 24.65 65.99 19.82 70.45 22.54 C 88.21 36.45 101.75 55.49 109.39 76.70 C 110.79 80.50 106.87 84.52 103.00 83.45 C 98.69 82.76 98.45 77.65 96.94 74.44 C 89.04 77.78 81.19 81.25 73.26 84.51 C 73.08 93.70 73.25 102.88 73.17 112.07 C 82.50 108.79 91.69 105.14 100.98 101.76 C 101.52 98.33 100.31 93.86 103.43 91.40 C 106.86 88.72 112.81 91.39 112.29 95.97 C 112.04 120.17 98.03 141.64 81.85 158.61 C 106.91 158.76 131.96 158.61 157.02 158.68 C 157.24 126.42 157.34 94.13 156.98 61.87 C 145.09 61.49 133.17 62.08 121.29 61.58 C 116.21 60.57 116.20 52.44 121.29 51.40 C 133.20 51.00 145.14 51.31 157.07 51.23 C 162.78 50.92 168.11 56.21 167.69 61.94 C 167.71 94.32 167.74 126.69 167.69 159.07 C 167.97 164.74 162.62 169.67 157.06 169.48 C 126.83 169.52 96.57 169.41 66.37 169.54 C 62.28 167.60 59.29 164.00 56.00 160.99 C 38.02 143.36 22.64 120.05 23.02 93.98 C 24.17 67.59 40.52 44.67 59.21 27.23 M 43.12 64.46 C 49.44 67.23 55.76 69.97 62.14 72.60 C 62.15 61.70 62.32 50.79 62.05 39.90 C 54.70 47.20 48.24 55.45 43.12 64.46 M 73.19 39.74 C 73.18 50.67 73.21 61.60 73.17 72.52 C 79.54 69.84 86.09 67.46 92.18 64.19 C 86.87 55.31 80.51 47.06 73.19 39.74 M 34.31 101.70 C 43.55 105.25 52.83 108.71 62.13 112.13 C 62.03 102.88 62.55 93.60 61.85 84.38 C 54.02 81.22 46.26 77.85 38.54 74.42 C 34.63 82.91 33.48 92.44 34.31 101.70 M 37.69 114.92 C 42.63 128.84 51.67 141.04 62.08 151.38 C 62.08 142.31 62.48 133.19 61.91 124.15 C 54.14 120.54 45.81 117.83 37.69 114.92 M 73.16 124.03 C 73.21 133.16 73.19 142.29 73.16 151.42 C 83.58 141.00 92.71 128.80 97.66 114.79 C 89.47 117.82 81.25 120.76 73.16 124.03 Z" />
</g>
</svg>
