<?xml version="1.0" encoding="UTF-8" ?>
<!DOCTYPE svg PUBLIC "-//W3C//DTD SVG 1.1//EN" "http://www.w3.org/Graphics/SVG/1.1/DTD/svg11.dtd">
<svg width="192pt" height="192pt" viewBox="0 0 192 192" version="1.1" xmlns="http://www.w3.org/2000/svg">
<g id="#1bb4ffff">
<path fill="#1bb4ff" opacity="1.00" d=" M 76.42 63.48 C 94.61 54.41 115.30 55.46 135.00 56.31 C 151.06 55.31 166.92 65.37 173.00 80.11 C 174.02 91.32 173.66 102.74 173.22 113.99 C 169.69 114.70 166.17 115.51 162.70 116.48 C 161.84 119.02 160.78 121.49 159.62 123.90 C 163.96 124.24 168.43 123.53 172.71 124.33 C 176.42 125.84 174.84 131.97 170.85 131.51 C 119.96 131.60 69.06 131.55 18.17 131.47 C 13.93 131.90 13.04 124.89 17.09 124.01 C 22.78 123.65 28.51 123.97 34.21 123.88 C 32.46 120.77 31.34 117.37 30.76 113.86 C 25.11 113.02 17.32 115.06 13.79 109.26 C 11.39 98.90 13.95 85.42 24.67 80.66 C 35.12 76.78 46.60 76.75 57.18 73.28 C 63.80 70.44 69.83 66.40 76.42 63.48 M 66.93 76.81 C 92.21 75.65 117.45 73.82 142.72 72.57 C 142.93 69.88 144.37 66.38 147.72 67.18 C 152.12 69.10 157.83 76.26 151.46 79.45 C 122.67 81.58 93.79 82.95 64.95 84.65 C 62.00 85.29 60.17 82.80 58.01 81.35 C 49.31 82.72 40.70 84.71 32.02 86.28 C 28.24 86.86 24.56 88.72 22.57 92.10 C 26.00 91.89 28.17 89.09 30.95 87.52 C 34.14 86.69 36.81 90.43 35.28 93.23 C 32.07 98.01 26.03 99.65 20.55 99.62 C 20.56 101.55 20.54 103.48 20.49 105.41 C 24.36 106.09 28.29 106.18 32.20 106.39 C 35.99 97.96 45.74 92.41 54.87 95.32 C 66.74 98.12 72.71 113.76 65.55 123.75 C 86.51 123.86 107.47 123.76 128.42 123.79 C 121.61 114.17 126.57 99.50 137.65 95.72 C 147.84 91.55 159.41 98.52 162.64 108.55 C 163.46 108.35 165.10 107.95 165.92 107.75 C 165.95 99.82 165.86 91.89 165.85 83.96 C 165.78 79.24 161.34 76.60 158.81 73.16 C 154.80 67.99 148.49 64.91 142.02 64.40 C 130.35 63.43 118.62 63.35 106.93 63.46 C 92.56 63.93 79.31 70.03 66.93 76.81 M 46.38 102.58 C 38.80 104.51 36.00 115.11 41.23 120.75 C 47.02 127.24 60.11 124.23 60.93 115.03 C 62.52 107.00 54.02 99.96 46.38 102.58 M 141.35 102.47 C 132.90 104.04 130.07 116.14 136.41 121.63 C 142.23 126.46 153.77 124.27 155.07 115.98 C 157.48 108.01 149.17 100.19 141.35 102.47 Z" />
<path fill="#1bb4ff" opacity="1.00" d=" M 103.45 85.67 C 109.93 85.61 116.42 85.06 122.90 85.26 C 126.81 85.81 126.77 92.43 122.72 92.61 C 102.49 93.50 82.22 93.90 61.97 94.47 C 57.25 95.28 56.27 87.36 61.02 87.03 C 75.15 86.33 89.31 86.17 103.45 85.67 Z" />
<path fill="#1bb4ff" opacity="1.00" d=" M 130.22 85.17 C 132.77 84.03 136.64 84.86 137.03 88.06 C 137.67 92.30 131.32 93.99 128.98 90.98 C 127.41 89.22 128.10 86.16 130.22 85.17 Z" />
<path fill="#1bb4ff" opacity="1.00" d=" M 73.33 110.40 C 88.51 109.60 103.84 110.20 119.07 110.06 C 123.74 109.29 124.77 117.14 120.01 117.39 C 105.00 117.59 89.96 117.47 74.95 117.43 C 71.03 117.80 69.73 111.77 73.33 110.40 Z" />
</g>
</svg>
