<?xml version="1.0" encoding="UTF-8" ?>
<!DOCTYPE svg PUBLIC "-//W3C//DTD SVG 1.1//EN" "http://www.w3.org/Graphics/SVG/1.1/DTD/svg11.dtd">
<svg width="192pt" height="192pt" viewBox="0 0 192 192" version="1.1" xmlns="http://www.w3.org/2000/svg">
<g id="#a78262ff">
<path fill="#a78262" opacity="1.00" d=" M 22.00 43.95 C 21.84 31.69 32.72 20.56 45.03 20.73 C 79.34 20.69 113.66 20.67 147.97 20.72 C 160.71 20.59 171.46 32.41 171.05 44.98 C 170.81 79.00 171.38 113.05 170.97 147.08 C 170.62 159.04 160.07 169.54 148.06 169.60 C 113.69 169.69 79.31 169.66 44.94 169.59 C 32.94 169.58 22.26 159.06 22.02 147.07 C 22.03 128.72 21.85 110.36 22.11 92.02 C 22.72 85.97 32.51 85.95 33.11 92.01 C 33.63 110.33 33.07 128.68 33.38 147.01 C 33.67 153.31 39.63 158.67 45.94 158.23 C 79.88 158.21 113.81 158.25 147.74 158.18 C 154.14 158.27 159.70 152.41 159.59 146.07 C 159.68 122.10 159.63 98.12 159.61 74.14 C 156.79 73.77 153.93 73.73 151.09 73.93 C 154.87 85.33 150.50 98.81 140.23 105.25 C 128.52 113.36 110.92 109.65 103.36 97.62 C 98.69 91.18 98.63 82.92 99.65 75.36 C 97.51 75.36 95.36 75.34 93.22 75.31 C 94.21 82.15 94.40 89.57 90.71 95.70 C 84.29 108.01 67.58 113.35 55.30 106.74 C 43.37 101.02 37.72 86.25 41.82 73.82 C 35.65 72.48 26.55 76.85 22.56 70.58 C 21.61 61.77 22.11 52.81 22.00 43.95 M 33.34 43.92 C 33.23 50.15 33.34 56.39 33.31 62.62 C 39.08 62.09 45.34 63.73 50.81 61.81 C 61.47 53.25 77.74 54.95 87.11 64.62 C 93.29 63.33 99.84 62.45 105.92 64.72 C 114.19 55.76 128.72 53.39 139.14 59.91 C 144.82 64.87 152.82 61.76 159.64 62.62 C 159.58 56.38 159.75 50.15 159.58 43.92 C 159.56 37.83 154.23 32.11 148.05 32.14 C 113.69 32.15 79.32 32.14 44.96 32.14 C 38.77 32.03 33.25 37.78 33.34 43.92 M 63.34 67.48 C 56.48 69.12 51.07 75.87 51.39 82.99 C 51.07 91.92 59.79 99.80 68.64 98.66 C 78.20 98.22 85.64 87.65 82.58 78.52 C 80.45 70.51 71.34 65.12 63.34 67.48 M 122.31 67.40 C 113.44 68.91 107.41 79.18 110.49 87.66 C 112.44 94.26 119.10 99.04 125.99 98.70 C 135.04 98.87 142.80 89.94 141.44 81.00 C 140.58 71.98 131.14 65.30 122.31 67.40 Z" />
<path fill="#a78262" opacity="1.00" d=" M 65.33 77.41 C 71.54 74.91 75.31 85.02 69.00 87.16 C 62.89 89.92 59.06 79.33 65.33 77.41 Z" />
<path fill="#a78262" opacity="1.00" d=" M 124.44 77.55 C 130.86 75.61 133.43 86.68 126.82 87.62 C 120.33 89.53 117.88 78.77 124.44 77.55 Z" />
</g>
</svg>
