<?xml version="1.0" encoding="UTF-8" ?>
<!DOCTYPE svg PUBLIC "-//W3C//DTD SVG 1.1//EN" "http://www.w3.org/Graphics/SVG/1.1/DTD/svg11.dtd">
<svg width="192pt" height="192pt" viewBox="0 0 192 192" version="1.1" xmlns="http://www.w3.org/2000/svg">
<g id="#ff3662ff">
<path fill="#ff3662" opacity="1.00" d=" M 66.35 18.50 C 78.09 15.75 88.21 27.77 99.99 24.10 C 108.74 21.52 117.90 15.97 127.18 19.81 C 136.47 23.46 138.85 34.03 142.85 42.09 C 145.92 48.76 153.85 50.04 159.74 53.17 C 166.64 55.95 173.10 62.06 173.09 69.98 C 172.77 78.11 167.99 85.15 166.31 92.97 C 165.40 102.55 173.02 110.44 172.68 119.99 C 172.91 127.50 167.74 134.18 161.11 137.22 C 154.85 140.65 146.37 141.76 142.83 148.72 C 138.67 156.78 136.47 167.34 127.41 171.45 C 119.02 175.44 110.58 169.68 102.60 167.38 C 89.48 161.27 77.57 177.25 64.33 171.75 C 55.12 167.90 52.54 157.52 48.61 149.35 C 45.54 142.03 36.90 140.79 30.64 137.36 C 23.39 134.40 17.11 127.23 18.18 118.98 C 19.60 111.09 24.11 104.00 25.17 96.03 C 24.72 87.25 18.70 79.78 18.09 71.02 C 17.65 63.99 22.49 57.74 28.46 54.55 C 35.26 50.48 44.81 49.54 48.50 41.56 C 53.05 33.06 55.63 21.25 66.35 18.50 M 69.40 29.44 C 62.14 33.12 61.97 43.05 57.18 49.08 C 52.81 56.95 44.04 59.91 36.28 63.24 C 33.22 64.68 29.13 66.89 29.44 70.84 C 31.30 79.98 37.43 88.28 36.36 97.96 C 35.36 105.65 31.44 112.55 29.56 120.01 C 28.95 122.31 30.81 124.28 32.52 125.51 C 39.40 129.78 47.96 131.30 53.82 137.18 C 59.57 142.88 60.98 151.24 65.11 157.97 C 66.36 159.95 68.43 161.93 70.99 161.50 C 79.48 159.80 87.10 154.37 95.99 154.53 C 105.18 154.50 113.07 160.61 122.01 161.40 C 127.51 158.85 128.41 151.91 131.08 147.03 C 133.92 139.13 140.56 133.17 148.41 130.44 C 153.20 127.96 161.15 126.75 161.35 120.02 C 160.73 112.34 155.69 105.78 155.03 98.06 C 153.52 88.74 159.29 80.62 161.50 71.95 C 162.31 69.37 160.73 66.76 158.58 65.40 C 151.74 61.06 143.13 59.63 137.32 53.67 C 131.36 47.85 130.18 39.11 125.61 32.40 C 123.52 29.44 119.48 29.31 116.33 30.41 C 109.33 32.66 102.53 36.19 95.00 36.21 C 85.95 36.35 78.15 30.50 69.40 29.44 Z" />
<path fill="#ff3662" opacity="1.00" d=" M 97.80 77.65 C 101.32 71.50 109.81 73.05 115.75 73.20 C 121.33 73.13 125.30 78.63 124.04 83.93 C 122.28 86.26 118.77 84.77 116.28 84.89 C 116.29 79.34 108.88 78.62 105.65 81.66 C 104.88 84.88 105.33 88.23 105.17 91.51 C 110.30 89.06 117.02 89.20 121.96 92.06 C 126.34 96.61 124.84 103.75 124.52 109.45 C 122.29 118.01 111.18 116.23 104.48 115.76 C 97.95 115.50 96.02 108.40 96.55 103.00 C 97.12 94.58 95.36 85.83 97.80 77.65 M 107.29 97.38 C 103.80 99.07 105.31 104.30 105.61 107.41 C 108.07 109.87 113.13 109.75 115.80 107.62 C 116.95 104.99 116.35 101.84 116.20 99.03 C 114.23 96.14 110.22 97.08 107.29 97.38 Z" />
<path fill="#ff3662" opacity="1.00" d=" M 68.71 78.08 C 73.35 74.94 79.47 73.52 85.14 74.04 C 86.29 85.25 85.34 96.62 85.64 107.90 C 88.09 107.95 90.54 108.04 92.98 108.16 C 92.91 110.37 94.60 113.84 91.96 115.01 C 84.36 115.21 76.72 115.24 69.12 114.99 C 67.36 113.46 67.30 109.62 69.09 108.11 C 71.76 107.86 74.45 107.99 77.13 108.00 C 77.14 99.71 77.15 91.43 77.13 83.15 C 73.33 83.38 66.64 83.97 68.71 78.08 Z" />
</g>
</svg>
