<?xml version="1.0" encoding="UTF-8" ?>
<!DOCTYPE svg PUBLIC "-//W3C//DTD SVG 1.1//EN" "http://www.w3.org/Graphics/SVG/1.1/DTD/svg11.dtd">
<svg width="192pt" height="192pt" viewBox="0 0 192 192" version="1.1" xmlns="http://www.w3.org/2000/svg">
<g id="#ff3662ff">
<path fill="#ff3662" opacity="1.00" d=" M 66.33 18.40 C 74.10 16.71 81.15 21.59 88.38 23.61 C 95.76 26.78 103.28 22.67 110.19 20.26 C 116.83 17.74 125.00 17.53 130.74 22.24 C 137.67 27.83 138.91 37.29 143.59 44.43 C 147.68 49.25 154.36 50.33 159.68 53.32 C 166.38 56.15 172.31 62.37 172.17 70.03 C 171.65 77.83 167.24 84.66 165.46 92.16 C 164.31 101.37 171.47 108.98 171.68 118.04 C 172.33 124.78 168.67 131.51 162.93 134.98 C 156.96 138.92 149.24 139.90 144.04 144.99 C 139.03 151.72 137.89 160.79 131.91 166.92 C 122.55 177.07 109.35 168.52 98.85 165.47 C 86.39 162.92 75.22 176.64 62.87 170.29 C 53.22 165.43 51.98 153.66 46.53 145.45 C 41.60 140.06 33.80 139.00 27.77 135.22 C 21.62 131.96 17.13 125.09 18.17 117.97 C 19.76 110.47 23.78 103.64 25.03 96.06 C 25.02 85.11 14.81 75.31 19.17 64.14 C 23.19 53.70 35.43 52.12 43.87 46.85 C 52.98 38.67 52.51 21.63 66.33 18.40 M 68.47 29.53 C 61.48 34.39 61.21 44.39 55.73 50.66 C 50.81 58.23 41.51 60.05 34.05 64.06 C 31.59 65.38 28.88 67.74 29.42 70.84 C 31.43 79.95 37.52 88.34 36.20 98.02 C 35.02 105.43 31.35 112.15 29.48 119.38 C 28.98 121.56 30.58 123.56 32.27 124.73 C 39.11 129.07 47.73 130.52 53.57 136.43 C 59.33 142.10 60.71 150.46 64.87 157.14 C 66.13 159.22 68.37 161.13 70.98 160.58 C 79.11 158.71 86.49 153.75 95.01 153.67 C 104.10 153.56 111.92 159.20 120.68 160.61 C 125.67 159.53 126.74 153.62 128.80 149.72 C 131.70 141.78 136.69 134.03 144.94 130.91 C 150.12 127.97 158.04 127.29 160.28 120.99 C 160.91 113.14 155.22 106.55 154.35 98.87 C 152.20 89.17 158.25 80.61 160.58 71.61 C 161.32 69.10 159.93 66.49 157.79 65.19 C 150.40 60.49 140.79 59.07 135.12 51.90 C 129.70 45.72 129.23 36.43 123.26 30.75 C 115.10 27.49 107.54 34.98 99.42 35.62 C 88.48 38.58 78.89 30.06 68.47 29.53 Z" />
<path fill="#ff3662" opacity="1.00" d=" M 96.33 79.29 C 97.49 73.62 104.22 72.79 108.99 72.95 C 114.09 72.79 121.33 72.99 122.96 79.03 C 123.84 84.13 125.01 91.15 120.05 94.55 C 126.01 98.52 125.00 108.89 120.92 113.89 C 114.18 117.14 104.92 117.42 98.35 113.70 C 94.42 108.74 93.26 98.02 99.67 94.61 C 94.36 91.55 95.51 84.38 96.33 79.29 M 106.31 80.42 C 103.46 81.59 104.46 85.44 104.42 87.86 C 104.53 91.71 109.45 91.16 112.11 90.91 C 115.92 90.54 115.27 85.72 115.00 83.01 C 114.39 78.98 109.17 80.04 106.31 80.42 M 103.90 102.98 C 101.92 109.77 112.07 111.10 115.23 106.94 C 115.51 104.59 115.35 102.23 115.37 99.87 C 112.06 96.88 103.00 96.68 103.90 102.98 Z" />
<path fill="#ff3662" opacity="1.00" d=" M 68.26 77.40 C 73.25 75.18 78.60 73.32 84.15 74.05 C 85.29 85.26 84.33 96.63 84.65 107.90 C 87.09 107.97 89.54 108.01 91.98 108.18 C 92.05 110.45 93.73 115.09 90.04 115.08 C 83.35 115.20 76.65 115.14 69.96 115.10 C 66.19 115.78 66.45 110.71 67.52 108.52 C 70.15 107.40 73.29 108.22 76.12 107.99 C 76.14 99.72 76.16 91.44 76.12 83.16 C 73.38 83.17 70.65 83.09 67.92 82.87 C 67.92 81.10 66.90 78.86 68.26 77.40 Z" />
</g>
</svg>
