<?xml version="1.0" encoding="UTF-8" ?>
<!DOCTYPE svg PUBLIC "-//W3C//DTD SVG 1.1//EN" "http://www.w3.org/Graphics/SVG/1.1/DTD/svg11.dtd">
<svg width="192pt" height="192pt" viewBox="0 0 192 192" version="1.1" xmlns="http://www.w3.org/2000/svg">
<g id="#ff3661ff">
<path fill="#ff3661" opacity="1.00" d=" M 66.36 18.50 C 78.10 15.75 88.21 27.76 99.99 24.10 C 108.74 21.52 117.88 15.98 127.16 19.80 C 136.46 23.44 138.84 34.03 142.86 42.09 C 145.92 48.76 153.85 50.04 159.75 53.17 C 166.65 55.95 173.10 62.07 173.09 69.98 C 172.76 78.10 168.00 85.15 166.32 92.96 C 165.38 102.54 173.03 110.43 172.67 119.99 C 172.91 127.50 167.74 134.19 161.11 137.23 C 154.85 140.65 146.37 141.76 142.83 148.72 C 138.67 156.78 136.47 167.33 127.42 171.45 C 119.02 175.45 110.58 169.68 102.60 167.38 C 89.47 161.27 77.56 177.27 64.32 171.74 C 55.12 167.90 52.54 157.51 48.61 149.35 C 45.54 142.03 36.90 140.80 30.64 137.36 C 23.38 134.41 17.10 127.22 18.18 118.97 C 19.60 111.08 24.11 103.99 25.16 96.02 C 24.72 87.25 18.70 79.79 18.09 71.04 C 17.64 64.00 22.48 57.74 28.45 54.56 C 35.26 50.48 44.81 49.54 48.50 41.56 C 53.05 33.06 55.64 21.24 66.36 18.50 M 69.40 29.44 C 62.14 33.12 61.97 43.05 57.19 49.08 C 52.81 56.95 44.05 59.91 36.29 63.24 C 33.23 64.68 29.13 66.89 29.44 70.84 C 31.31 79.98 37.43 88.28 36.36 97.95 C 35.36 105.64 31.45 112.55 29.56 120.01 C 28.96 122.31 30.80 124.28 32.52 125.51 C 39.40 129.78 47.96 131.30 53.82 137.18 C 59.57 142.88 60.98 151.24 65.11 157.97 C 66.36 159.95 68.44 161.92 70.99 161.49 C 79.48 159.81 87.10 154.37 95.99 154.53 C 105.18 154.49 113.07 160.62 122.02 161.40 C 127.51 158.83 128.41 151.91 131.08 147.03 C 133.92 139.14 140.55 133.17 148.41 130.44 C 153.20 127.95 161.16 126.76 161.35 120.02 C 160.72 112.34 155.70 105.78 155.03 98.07 C 153.51 88.74 159.29 80.63 161.49 71.95 C 162.29 69.37 160.74 66.76 158.58 65.40 C 151.74 61.06 143.13 59.63 137.32 53.68 C 131.36 47.86 130.18 39.11 125.62 32.40 C 123.34 29.18 118.92 29.39 115.61 30.62 C 108.59 33.05 101.61 36.47 93.99 36.20 C 85.33 35.92 77.84 30.46 69.40 29.44 Z" />
<path fill="#ff3661" opacity="1.00" d=" M 82.78 74.13 C 91.25 73.95 99.72 73.93 108.19 74.11 C 108.59 76.19 108.67 78.31 108.69 80.42 C 102.89 81.94 96.80 80.75 90.88 81.15 C 90.87 83.99 90.88 86.83 90.86 89.68 C 95.08 87.21 100.40 87.56 104.92 88.92 C 110.16 90.85 110.16 97.36 110.14 102.00 C 110.08 106.41 110.38 112.45 105.67 114.68 C 100.10 116.83 93.75 116.52 88.01 115.28 C 83.12 114.17 81.84 108.40 82.77 104.13 C 85.43 104.57 90.22 102.30 90.98 106.09 C 92.15 111.23 102.96 110.03 101.60 104.06 C 101.28 101.25 102.68 97.18 99.63 95.50 C 93.75 93.42 88.78 98.97 82.79 96.89 C 82.35 89.32 82.37 81.70 82.78 74.13 Z" />
</g>
</svg>
