<?xml version="1.0" encoding="UTF-8" ?>
<!DOCTYPE svg PUBLIC "-//W3C//DTD SVG 1.1//EN" "http://www.w3.org/Graphics/SVG/1.1/DTD/svg11.dtd">
<svg width="192pt" height="192pt" viewBox="0 0 192 192" version="1.1" xmlns="http://www.w3.org/2000/svg">
<g id="#ff3662ff">
<path fill="#ff3662" opacity="1.00" d=" M 66.33 18.40 C 74.38 16.70 81.64 21.85 89.16 23.87 C 100.25 27.69 109.88 17.39 120.96 18.52 C 128.36 18.76 134.40 24.33 137.14 30.92 C 140.39 36.76 141.37 44.80 148.00 47.99 C 156.21 52.23 167.11 54.54 170.98 64.01 C 174.96 74.09 166.93 83.34 165.36 93.01 C 164.79 101.90 171.45 109.24 171.68 118.04 C 172.33 124.78 168.68 131.51 162.93 134.98 C 156.96 138.92 149.24 139.90 144.04 144.99 C 138.05 153.13 137.16 165.50 127.17 170.34 C 118.60 174.69 109.82 168.71 101.64 166.32 C 88.68 160.91 77.22 175.94 64.22 170.94 C 54.67 167.07 52.24 156.24 48.07 147.93 C 44.77 141.07 36.45 139.96 30.39 136.59 C 23.09 133.60 16.93 126.25 18.17 117.98 C 19.75 110.47 23.80 103.64 25.03 96.05 C 24.99 86.55 17.67 78.54 18.09 68.93 C 18.42 62.32 23.27 56.84 28.97 53.97 C 35.64 50.19 44.78 49.05 48.31 41.33 C 52.82 32.81 55.51 20.93 66.33 18.40 M 68.47 29.53 C 61.78 34.02 61.43 43.40 56.55 49.48 C 52.06 57.33 42.99 59.78 35.36 63.37 C 32.48 64.76 28.84 67.13 29.43 70.84 C 31.09 78.40 35.44 85.22 36.28 92.99 C 37.14 102.58 31.28 110.92 29.41 120.01 C 29.29 122.25 31.09 124.02 32.85 125.11 C 39.61 129.13 47.89 130.70 53.57 136.43 C 59.33 142.09 60.70 150.46 64.87 157.14 C 66.13 159.22 68.38 161.15 70.99 160.57 C 79.72 158.57 87.71 152.97 96.97 153.73 C 105.07 154.43 112.19 158.93 120.05 160.58 C 122.31 160.81 124.12 158.99 125.20 157.21 C 129.30 150.25 130.93 141.71 137.03 136.04 C 142.79 130.37 151.24 129.24 157.77 124.80 C 160.89 122.66 160.88 118.38 159.75 115.15 C 157.56 108.54 154.08 102.16 153.97 95.04 C 153.59 86.40 159.05 79.05 160.70 70.83 C 161.17 68.26 159.31 66.00 157.20 64.80 C 149.70 60.34 140.12 58.73 134.67 51.33 C 129.63 45.18 129.07 36.25 123.26 30.75 C 115.10 27.50 107.54 34.97 99.43 35.62 C 88.48 38.58 78.90 30.07 68.47 29.53 Z" />
<path fill="#ff3662" opacity="1.00" d=" M 68.30 75.28 C 72.27 72.43 77.46 73.02 82.08 73.01 C 86.36 73.00 91.68 74.73 92.40 79.60 C 93.13 85.02 93.88 91.51 89.93 95.93 C 86.18 100.17 81.97 103.97 77.88 107.87 C 82.67 107.95 87.46 108.07 92.25 107.94 C 93.08 110.31 93.04 112.79 92.29 115.18 C 83.78 115.08 75.27 115.14 66.77 115.14 C 63.52 105.69 75.40 101.44 80.05 95.03 C 85.70 91.71 87.21 78.14 77.96 80.09 C 73.76 79.51 74.00 84.47 73.20 87.23 C 70.70 87.14 68.21 87.04 65.72 86.88 C 65.29 82.94 65.05 78.15 68.30 75.28 Z" />
<path fill="#ff3662" opacity="1.00" d=" M 102.29 74.25 C 107.62 72.38 113.58 72.63 119.06 73.67 C 123.87 74.42 126.41 80.42 124.64 84.62 C 122.34 85.64 119.74 84.97 117.32 84.91 C 117.24 79.38 109.92 78.59 106.64 81.68 C 105.89 84.88 106.33 88.22 106.16 91.49 C 112.41 88.70 124.18 88.47 125.60 97.12 C 125.86 102.33 126.97 108.32 123.91 112.93 C 120.37 116.62 114.66 116.10 109.98 116.16 C 105.45 116.18 99.32 115.18 98.25 109.89 C 96.85 102.36 97.92 94.61 97.56 86.99 C 97.58 82.51 97.41 76.36 102.29 74.25 M 108.28 97.39 C 104.81 99.07 106.30 104.30 106.62 107.40 C 109.03 109.88 114.14 109.74 116.80 107.62 C 117.92 104.98 117.38 101.85 117.18 99.03 C 115.24 96.15 111.20 97.07 108.28 97.39 Z" />
</g>
</svg>
