<?xml version="1.0" encoding="UTF-8" ?>
<!DOCTYPE svg PUBLIC "-//W3C//DTD SVG 1.1//EN" "http://www.w3.org/Graphics/SVG/1.1/DTD/svg11.dtd">
<svg width="192pt" height="192pt" viewBox="0 0 192 192" version="1.1" xmlns="http://www.w3.org/2000/svg">
<g id="#ff3661ff">
<path fill="#ff3661" opacity="1.00" d=" M 66.35 18.50 C 76.47 16.22 85.12 24.48 95.00 24.85 C 103.12 24.58 110.00 19.26 118.05 18.63 C 123.77 17.95 129.85 19.96 133.64 24.39 C 139.23 30.48 140.14 39.36 145.33 45.67 C 151.55 51.00 160.36 52.03 166.66 57.31 C 170.99 60.80 173.79 66.47 172.95 72.10 C 171.86 79.37 167.89 85.83 166.32 92.96 C 165.44 101.21 171.15 108.13 172.34 116.04 C 173.51 122.13 171.76 128.85 167.09 133.08 C 160.91 139.35 151.03 139.67 144.82 145.83 C 139.89 152.31 138.75 161.04 133.20 167.16 C 129.37 171.59 123.14 173.85 117.38 172.50 C 110.50 170.62 104.04 167.31 97.05 165.87 C 85.81 165.69 75.76 176.32 64.33 171.75 C 53.76 167.35 52.35 154.84 46.75 146.27 C 41.48 140.51 33.06 139.54 26.75 135.25 C 21.25 131.90 17.35 125.55 18.18 118.98 C 19.59 111.08 24.11 104.00 25.16 96.03 C 24.72 87.25 18.70 79.79 18.09 71.03 C 17.61 63.46 23.19 56.94 29.73 53.88 C 36.05 50.37 44.57 49.27 48.14 42.19 C 52.99 33.59 55.34 21.33 66.35 18.50 M 69.40 29.44 C 62.14 33.12 61.97 43.05 57.18 49.08 C 52.81 56.95 44.04 59.92 36.28 63.25 C 33.22 64.69 29.14 66.89 29.44 70.84 C 31.30 79.98 37.43 88.28 36.36 97.96 C 35.37 105.64 31.43 112.54 29.57 120.01 C 28.95 122.31 30.81 124.28 32.53 125.51 C 39.40 129.78 47.96 131.30 53.82 137.18 C 59.57 142.88 60.98 151.24 65.11 157.96 C 66.35 159.95 68.43 161.92 70.99 161.49 C 79.48 159.81 87.10 154.37 95.99 154.53 C 105.18 154.49 113.07 160.62 122.01 161.40 C 127.51 158.84 128.41 151.91 131.08 147.03 C 133.92 139.13 140.56 133.17 148.41 130.44 C 153.20 127.96 161.15 126.75 161.35 120.03 C 160.73 112.34 155.70 105.78 155.03 98.06 C 153.51 88.74 159.30 80.63 161.49 71.95 C 162.29 69.37 160.74 66.76 158.58 65.41 C 151.74 61.06 143.13 59.63 137.32 53.68 C 131.36 47.85 130.18 39.11 125.61 32.40 C 123.52 29.44 119.47 29.31 116.33 30.41 C 109.33 32.66 102.53 36.20 95.00 36.21 C 85.95 36.35 78.16 30.50 69.40 29.44 Z" />
<path fill="#ff3661" opacity="1.00" d=" M 89.55 73.43 C 95.70 72.97 103.76 71.48 108.26 76.76 C 110.98 83.31 111.17 92.38 105.52 97.53 C 102.07 101.07 98.51 104.50 94.88 107.87 C 99.64 107.93 104.40 108.11 109.15 107.92 C 110.21 110.23 110.15 112.85 109.19 115.20 C 100.75 115.07 92.30 115.13 83.86 115.15 C 80.92 109.76 85.69 105.57 89.42 102.40 C 94.22 96.92 103.01 92.57 101.38 83.96 C 101.70 79.85 96.88 79.71 93.99 80.15 C 90.42 80.34 91.18 84.83 90.18 87.25 C 87.70 87.13 85.23 87.01 82.76 86.91 C 81.53 81.59 83.06 74.10 89.55 73.43 Z" />
</g>
</svg>
