<?xml version="1.0" encoding="UTF-8" ?>
<!DOCTYPE svg PUBLIC "-//W3C//DTD SVG 1.1//EN" "http://www.w3.org/Graphics/SVG/1.1/DTD/svg11.dtd">
<svg width="192pt" height="192pt" viewBox="0 0 192 192" version="1.1" xmlns="http://www.w3.org/2000/svg">
<g id="#ff3661ff">
<path fill="#ff3661" opacity="1.00" d=" M 66.36 18.50 C 76.47 16.22 85.12 24.47 95.00 24.85 C 103.10 24.58 109.97 19.28 118.01 18.64 C 123.50 17.99 129.35 19.75 133.15 23.86 C 138.73 29.65 140.03 38.02 144.38 44.58 C 148.46 49.39 155.06 50.59 160.41 53.49 C 167.06 56.29 173.10 62.36 173.09 69.99 C 172.77 78.13 167.97 85.17 166.31 93.01 C 165.41 102.58 173.04 110.46 172.67 120.00 C 172.93 127.79 167.36 134.59 160.45 137.55 C 154.72 140.59 147.36 141.72 143.56 147.48 C 139.95 153.69 138.28 160.99 133.68 166.62 C 130.01 171.16 123.96 173.71 118.15 172.65 C 110.96 170.93 104.30 167.33 97.04 165.87 C 85.82 165.69 75.78 176.30 64.35 171.76 C 53.77 167.38 52.35 154.84 46.75 146.27 C 41.48 140.50 33.05 139.54 26.74 135.24 C 21.26 131.90 17.35 125.56 18.18 119.01 C 19.57 111.10 24.12 104.01 25.16 96.02 C 24.72 87.24 18.69 79.78 18.09 71.01 C 17.64 63.72 22.83 57.34 29.07 54.22 C 35.54 50.46 44.41 49.49 48.13 42.20 C 53.00 33.60 55.34 21.33 66.36 18.50 M 69.39 29.44 C 64.95 30.84 63.79 36.05 61.91 39.77 C 58.61 48.04 53.40 56.44 44.61 59.62 C 39.43 62.39 31.91 63.35 29.50 69.39 C 30.05 77.95 35.96 85.35 36.42 94.01 C 36.98 103.23 31.64 111.31 29.57 120.02 C 28.96 122.31 30.81 124.28 32.52 125.50 C 39.39 129.78 47.96 131.30 53.82 137.18 C 59.57 142.88 60.98 151.24 65.11 157.97 C 66.36 159.96 68.43 161.92 70.99 161.49 C 79.48 159.81 87.10 154.37 95.98 154.53 C 105.17 154.49 113.05 160.60 121.99 161.40 C 127.51 158.86 128.41 151.91 131.08 147.03 C 133.92 139.13 140.56 133.16 148.42 130.44 C 153.21 127.96 161.16 126.75 161.35 120.02 C 160.72 112.34 155.69 105.77 155.03 98.05 C 153.51 88.73 159.30 80.63 161.48 71.95 C 162.30 69.37 160.73 66.75 158.58 65.40 C 151.74 61.06 143.13 59.63 137.32 53.68 C 131.36 47.85 130.18 39.10 125.60 32.39 C 123.32 29.17 118.91 29.40 115.59 30.62 C 108.88 32.94 102.26 36.18 95.00 36.21 C 85.94 36.36 78.15 30.50 69.39 29.44 Z" />
<path fill="#ff3661" opacity="1.00" d=" M 84.30 76.33 C 88.80 71.71 96.07 73.08 101.88 73.19 C 106.67 73.23 110.78 77.15 110.57 82.02 C 110.55 91.12 111.08 100.30 110.28 109.37 C 108.27 117.62 97.75 116.35 91.27 115.82 C 85.22 115.88 81.60 109.21 83.79 103.90 C 86.19 104.00 88.59 104.05 90.99 104.10 C 91.06 109.37 97.31 110.28 101.02 108.10 C 103.20 105.30 101.92 101.34 102.23 98.04 C 95.93 99.64 85.46 100.96 83.00 93.09 C 82.19 87.62 81.48 81.34 84.30 76.33 M 93.17 80.29 C 88.62 83.01 90.00 94.28 97.05 92.07 C 103.18 93.21 103.13 85.21 101.50 81.42 C 99.47 79.19 95.85 80.23 93.17 80.29 Z" />
</g>
</svg>
