<?xml version="1.0" encoding="UTF-8" ?>
<!DOCTYPE svg PUBLIC "-//W3C//DTD SVG 1.1//EN" "http://www.w3.org/Graphics/SVG/1.1/DTD/svg11.dtd">
<svg width="192pt" height="192pt" viewBox="0 0 192 192" version="1.1" xmlns="http://www.w3.org/2000/svg">
<g id="#ff3662ff">
<path fill="#ff3662" opacity="1.00" d=" M 66.33 18.40 C 74.39 16.71 81.64 21.85 89.17 23.87 C 96.67 26.65 104.00 22.24 111.00 19.99 C 117.65 17.60 125.81 17.78 131.30 22.70 C 137.99 28.54 139.00 38.03 144.04 44.97 C 148.46 49.45 155.01 50.63 160.36 53.65 C 166.78 56.53 172.31 62.66 172.16 70.03 C 171.69 77.85 167.19 84.64 165.48 92.17 C 164.29 101.70 171.94 109.55 171.72 119.01 C 172.11 126.50 167.08 133.40 160.40 136.39 C 155.03 139.37 148.47 140.50 144.05 145.00 C 139.84 150.57 138.46 157.71 134.60 163.52 C 131.52 168.47 125.98 172.20 119.99 171.90 C 110.36 171.43 102.03 163.84 92.16 165.37 C 82.74 167.39 73.41 174.95 63.54 170.63 C 53.65 166.13 52.05 154.41 46.93 146.03 C 42.38 140.24 34.42 139.26 28.39 135.56 C 21.96 132.38 17.06 125.37 18.19 117.99 C 19.70 110.46 23.84 103.66 25.01 96.05 C 25.01 84.90 14.35 74.72 19.48 63.40 C 23.95 53.22 36.21 52.11 44.40 46.40 C 52.90 38.02 52.82 21.59 66.33 18.40 M 68.47 29.53 C 61.79 34.03 61.42 43.40 56.55 49.48 C 52.05 57.32 42.99 59.78 35.36 63.37 C 32.50 64.78 28.84 67.12 29.44 70.82 C 31.31 79.65 37.12 87.67 36.30 97.01 C 35.46 104.84 31.34 111.80 29.51 119.38 C 28.93 121.84 30.92 123.92 32.85 125.10 C 39.60 129.14 47.88 130.70 53.57 136.43 C 59.33 142.10 60.70 150.46 64.88 157.14 C 66.15 159.20 68.37 161.16 70.98 160.55 C 79.12 158.75 86.47 153.74 95.00 153.67 C 103.88 153.60 111.56 158.86 120.06 160.56 C 122.32 160.83 124.11 158.97 125.19 157.21 C 129.31 150.26 130.93 141.72 137.03 136.04 C 142.79 130.37 151.26 129.25 157.77 124.78 C 161.65 122.06 160.53 116.74 159.03 113.00 C 156.04 105.54 152.59 97.56 154.47 89.37 C 155.63 82.06 161.56 75.40 160.27 67.90 C 154.42 60.70 143.49 60.64 137.04 53.96 C 129.98 47.80 129.80 37.15 123.26 30.76 C 115.11 27.52 107.53 34.95 99.43 35.62 C 88.48 38.57 78.92 30.08 68.47 29.53 Z" />
<path fill="#ff3662" opacity="1.00" d=" M 69.60 74.45 C 74.80 72.31 80.78 72.70 86.23 73.58 C 94.59 75.50 93.62 86.51 91.89 92.86 C 88.44 98.85 82.64 102.99 77.88 107.88 C 82.76 107.96 87.64 108.03 92.53 107.99 C 92.78 110.37 92.78 112.77 92.58 115.16 C 83.89 115.09 75.21 115.17 66.52 115.10 C 66.41 112.58 65.30 109.49 67.35 107.45 C 72.40 101.84 78.60 97.28 83.26 91.33 C 85.41 87.44 85.57 78.79 79.01 80.06 C 74.26 78.93 73.84 83.87 73.22 87.21 C 70.67 87.13 68.12 87.01 65.57 86.81 C 65.36 82.50 65.06 76.72 69.60 74.45 Z" />
<path fill="#ff3662" opacity="1.00" d=" M 102.59 74.44 C 107.79 72.30 113.77 72.69 119.22 73.57 C 127.60 75.48 126.64 86.50 124.90 92.86 C 121.45 98.85 115.65 102.99 110.89 107.88 C 115.77 107.96 120.65 108.03 125.53 107.98 C 125.80 110.37 125.80 112.77 125.58 115.16 C 116.89 115.09 108.21 115.16 99.52 115.10 C 99.39 112.58 98.29 109.49 100.34 107.45 C 105.39 101.83 111.59 97.28 116.26 91.32 C 118.39 87.43 118.56 78.79 112.00 80.06 C 107.29 78.93 106.82 83.89 106.23 87.21 C 103.68 87.14 101.13 87.02 98.58 86.83 C 98.35 82.52 98.04 76.71 102.59 74.44 Z" />
</g>
</svg>
