<?xml version="1.0" encoding="UTF-8" ?>
<!DOCTYPE svg PUBLIC "-//W3C//DTD SVG 1.1//EN" "http://www.w3.org/Graphics/SVG/1.1/DTD/svg11.dtd">
<svg width="192pt" height="192pt" viewBox="0 0 192 192" version="1.1" xmlns="http://www.w3.org/2000/svg">
<g id="#48aed1ff">
<path fill="#48aed1" opacity="1.00" d=" M 21.09 37.92 C 21.10 28.54 29.68 20.41 39.02 20.70 C 71.34 20.66 103.66 20.62 135.98 20.70 C 142.86 20.52 149.18 25.95 150.29 32.68 C 150.81 36.51 150.48 40.39 150.57 44.24 C 160.64 43.15 170.21 51.78 169.88 61.94 C 169.81 93.98 170.30 126.03 169.99 158.06 C 170.15 164.56 164.60 170.70 157.99 170.56 C 117.00 170.62 76.01 170.58 35.02 170.54 C 27.39 170.67 20.72 163.66 21.01 156.07 C 21.04 116.69 20.99 77.30 21.09 37.92 M 37.42 32.68 C 30.65 32.95 30.65 44.09 37.42 44.32 C 71.12 44.49 104.82 44.35 138.52 44.35 C 137.83 40.61 140.91 32.73 134.98 32.63 C 102.47 32.66 69.94 32.48 37.42 32.68 M 33.08 60.95 C 33.10 92.66 33.05 124.36 33.11 156.06 C 32.75 158.40 35.23 158.71 36.94 158.59 C 77.23 158.56 117.53 158.57 157.83 158.56 C 157.89 126.68 157.83 94.81 157.86 62.93 C 158.31 59.59 155.70 55.84 152.07 56.38 C 113.38 56.41 74.68 56.33 35.99 56.40 C 33.38 55.96 32.93 59.05 33.08 60.95 Z" />
<path fill="#48aed1" opacity="1.00" d=" M 81.50 77.56 C 94.01 67.50 115.04 74.42 119.00 90.00 C 120.53 95.38 114.88 98.31 111.38 101.03 C 121.17 111.54 119.04 130.15 106.68 137.71 C 93.87 146.73 73.61 139.25 70.28 123.82 C 69.24 118.59 74.67 116.09 77.91 113.24 C 68.57 103.12 70.12 85.51 81.50 77.56 M 87.14 87.12 C 81.51 91.89 81.60 100.66 86.22 106.11 C 93.57 101.31 100.33 95.59 107.19 90.09 C 102.92 83.56 93.01 81.59 87.14 87.12 M 82.10 124.06 C 85.98 130.63 95.72 132.71 101.62 127.64 C 107.64 123.02 107.97 113.54 102.81 108.14 C 95.80 113.31 89.04 118.80 82.10 124.06 Z" />
</g>
</svg>
