<?xml version="1.0" encoding="UTF-8" ?>
<!DOCTYPE svg PUBLIC "-//W3C//DTD SVG 1.1//EN" "http://www.w3.org/Graphics/SVG/1.1/DTD/svg11.dtd">
<svg width="192pt" height="192pt" viewBox="0 0 192 192" version="1.1" xmlns="http://www.w3.org/2000/svg">
<g id="#18b7c5ff">
<path fill="#18b7c5" opacity="1.00" d=" M 20.10 41.96 C 19.88 29.72 30.78 18.68 43.03 18.76 C 72.35 18.80 101.70 18.56 131.02 18.87 C 136.96 19.49 136.92 29.26 130.92 29.70 C 101.96 30.00 72.97 29.69 44.00 29.82 C 37.43 29.59 31.11 35.22 31.29 41.93 C 31.24 75.97 31.27 110.02 31.28 144.07 C 31.03 150.81 37.29 156.78 44.01 156.33 C 77.67 156.32 111.33 156.32 144.98 156.30 C 152.10 156.74 158.27 150.08 157.68 143.05 C 157.58 108.70 157.86 74.34 157.55 40.00 C 154.99 40.01 153.55 42.30 151.88 43.88 C 142.60 53.20 133.30 62.50 123.98 71.79 C 121.28 69.17 118.63 66.49 116.02 63.78 C 127.79 51.96 139.58 40.15 151.41 28.38 C 154.98 24.64 161.74 25.05 164.83 29.18 C 167.94 33.43 169.04 38.82 168.87 44.00 C 168.81 77.69 168.98 111.39 168.81 145.07 C 168.63 157.00 157.98 167.46 146.07 167.53 C 111.69 167.60 77.31 167.58 42.93 167.52 C 30.59 167.51 19.75 156.35 20.07 144.02 C 20.05 110.00 20.05 75.98 20.10 41.96 Z" />
<path fill="#18b7c5" opacity="1.00" d=" M 114.83 64.96 C 117.55 67.55 120.28 70.14 122.78 72.95 C 119.39 73.77 115.99 74.52 112.55 75.14 C 113.24 71.73 113.99 68.34 114.83 64.96 Z" />
<path fill="#18b7c5" opacity="1.00" d=" M 47.25 84.27 C 65.38 83.07 83.79 84.00 102.03 83.79 C 108.54 83.50 109.45 94.09 102.98 94.89 C 86.69 95.48 70.33 94.93 54.01 95.16 C 51.20 95.05 47.83 95.55 45.64 93.36 C 42.93 90.80 43.77 85.71 47.25 84.27 Z" />
<path fill="#18b7c5" opacity="1.00" d=" M 47.27 106.33 C 65.41 105.14 83.81 106.06 102.05 105.85 C 108.54 105.57 109.45 116.15 102.99 116.96 C 84.99 117.27 66.94 117.21 48.94 116.99 C 43.46 116.75 42.22 108.27 47.27 106.33 Z" />
<path fill="#18b7c5" opacity="1.00" d=" M 48.26 127.36 C 66.16 126.89 84.13 127.17 102.05 127.20 C 108.53 126.93 109.48 137.56 103.00 138.32 C 85.02 138.66 67.00 138.51 49.01 138.38 C 42.96 138.14 42.31 128.44 48.26 127.36 Z" />
</g>
</svg>
