<?xml version="1.0" encoding="UTF-8" ?>
<!DOCTYPE svg PUBLIC "-//W3C//DTD SVG 1.1//EN" "http://www.w3.org/Graphics/SVG/1.1/DTD/svg11.dtd">
<svg width="192pt" height="192pt" viewBox="0 0 192 192" version="1.1" xmlns="http://www.w3.org/2000/svg">
<g id="#ff3661ff">
<path fill="#ff3661" opacity="1.00" d=" M 37.43 37.45 C 54.18 20.07 78.97 10.66 103.03 13.10 C 105.90 13.37 107.97 16.17 107.76 18.98 C 107.87 42.12 107.70 65.26 107.85 88.39 C 113.76 80.77 118.79 72.45 124.93 65.02 C 128.67 63.87 137.37 62.66 136.85 68.83 C 131.60 77.57 125.06 85.53 119.34 94.00 C 122.12 98.39 124.37 103.24 127.98 107.03 C 131.41 110.63 138.14 106.62 140.69 111.28 C 141.53 114.69 141.96 120.87 137.05 121.09 C 130.56 120.99 122.47 121.75 117.96 116.04 C 114.28 111.10 111.34 105.67 107.84 100.60 C 107.48 106.11 108.44 111.76 107.28 117.18 C 105.04 123.31 95.00 121.62 95.04 115.05 C 94.77 84.72 95.14 54.37 94.86 24.03 C 62.77 23.86 33.13 48.59 26.91 79.96 C 19.55 110.98 36.18 145.44 65.04 158.96 C 81.46 167.06 101.07 168.34 118.40 162.45 C 136.39 156.46 151.61 142.82 159.71 125.70 C 168.77 106.84 168.86 83.95 159.99 65.01 C 152.82 49.41 139.73 36.83 124.12 29.79 C 118.15 27.45 121.42 17.45 127.63 19.28 C 158.59 31.64 179.45 64.74 177.76 97.98 C 177.11 131.63 153.40 163.13 121.39 173.35 C 99.04 180.86 73.51 177.90 53.45 165.51 C 30.76 151.79 15.56 126.59 14.21 100.09 C 12.69 77.17 21.32 53.82 37.43 37.45 Z" />
<path fill="#ff3661" opacity="1.00" d=" M 69.43 69.64 C 74.95 68.91 80.98 69.21 85.90 72.07 C 89.53 75.45 85.05 80.21 81.72 81.65 C 77.65 81.28 73.39 79.48 69.42 81.49 C 66.53 82.63 66.44 87.43 69.56 88.33 C 75.25 90.00 81.90 89.28 86.75 93.24 C 94.24 99.68 93.03 113.47 84.34 118.34 C 76.24 122.91 65.62 122.60 57.38 118.60 C 52.48 115.43 58.73 110.60 61.57 108.53 C 66.60 108.82 72.07 111.58 77.01 108.95 C 80.27 107.37 79.21 101.72 75.48 101.63 C 68.60 100.40 59.53 100.26 56.16 92.87 C 51.35 83.05 58.35 70.22 69.43 69.64 Z" />
</g>
</svg>
