<?xml version="1.0" encoding="UTF-8" ?>
<!DOCTYPE svg PUBLIC "-//W3C//DTD SVG 1.1//EN" "http://www.w3.org/Graphics/SVG/1.1/DTD/svg11.dtd">
<svg width="192pt" height="192pt" viewBox="0 0 192 192" version="1.1" xmlns="http://www.w3.org/2000/svg">
<g id="#47e370ff">
<path fill="#47e370" opacity="1.00" d=" M 16.47 95.94 C 18.01 59.19 48.36 26.34 84.91 22.11 C 107.49 19.25 131.43 26.14 148.13 41.84 C 164.27 56.20 173.86 77.43 174.26 99.00 C 174.19 117.67 174.26 136.36 174.23 155.03 C 174.14 163.50 166.23 170.20 158.03 170.23 C 151.33 170.16 144.64 170.28 137.94 170.18 C 130.11 169.84 123.16 162.98 123.02 155.08 C 122.90 141.70 122.94 128.31 123.01 114.94 C 122.88 106.87 129.83 99.55 137.91 99.34 C 145.83 99.20 153.77 99.11 161.69 99.49 C 161.31 77.88 149.90 57.02 131.82 45.17 C 112.28 31.88 85.52 30.61 64.69 41.69 C 43.36 52.54 29.20 75.67 29.04 99.58 C 37.01 98.98 45.03 99.20 53.02 99.37 C 61.05 99.66 67.74 106.96 67.64 114.93 C 67.73 128.31 67.76 141.70 67.62 155.08 C 67.52 163.26 60.11 170.15 52.04 170.21 C 45.34 170.21 38.65 170.23 31.96 170.20 C 23.91 170.11 16.66 163.11 16.43 155.06 C 16.46 135.35 16.39 115.65 16.47 95.94 M 30.40 112.53 C 28.62 113.60 29.22 116.23 28.96 117.99 C 29.06 130.01 28.96 142.03 29.08 154.05 C 28.85 156.24 30.97 157.71 32.99 157.50 C 39.27 157.52 45.56 157.64 51.83 157.44 C 54.18 157.54 55.42 155.12 55.15 153.05 C 55.06 140.35 55.37 127.64 55.01 114.96 C 54.68 111.01 49.76 111.94 47.00 111.80 C 41.49 112.24 35.74 110.97 30.40 112.53 M 136.42 112.46 C 134.34 124.42 136.12 136.85 135.50 149.00 C 135.72 151.79 134.45 156.77 138.41 157.38 C 144.88 157.70 151.37 157.50 157.85 157.48 C 159.92 157.69 161.79 156.00 161.59 153.88 C 161.67 140.97 161.74 128.04 161.55 115.13 C 161.57 111.68 157.48 111.72 155.01 111.81 C 148.81 112.09 142.54 111.25 136.42 112.46 Z" />
</g>
</svg>
