<?xml version="1.0" encoding="UTF-8" ?>
<!DOCTYPE svg PUBLIC "-//W3C//DTD SVG 1.1//EN" "http://www.w3.org/Graphics/SVG/1.1/DTD/svg11.dtd">
<svg width="192pt" height="192pt" viewBox="0 0 192 192" version="1.1" xmlns="http://www.w3.org/2000/svg">
<g id="#cc9736ff">
<path fill="#cc9736" opacity="1.00" d=" M 80.38 15.45 C 87.56 14.53 94.86 14.66 102.09 15.08 C 131.39 18.26 156.81 41.18 164.68 69.34 C 170.60 89.78 167.27 112.68 155.52 130.45 C 139.67 155.49 108.29 169.82 79.03 164.07 C 47.14 158.43 21.49 130.01 17.76 98.05 C 12.72 59.93 42.35 20.96 80.38 15.45 M 83.41 26.53 C 54.78 30.06 31.61 55.96 28.76 84.25 C 26.22 113.35 46.08 142.45 73.92 151.06 C 93.04 157.18 114.91 152.97 130.74 140.75 C 147.32 128.45 157.28 107.68 156.05 87.02 C 155.23 59.96 135.17 34.94 109.07 27.94 C 100.74 25.57 91.95 26.05 83.41 26.53 Z" />
<path fill="#cc9736" opacity="1.00" d=" M 87.43 69.67 C 97.67 67.17 109.43 73.03 112.36 83.40 C 116.96 95.88 106.40 111.08 93.03 110.74 C 81.27 111.77 70.54 100.59 71.32 88.95 C 71.37 79.80 78.60 71.60 87.43 69.67 M 90.32 80.35 C 83.70 80.79 80.21 89.00 83.34 94.49 C 85.69 98.79 91.58 101.81 96.17 99.22 C 101.97 96.82 104.72 88.58 100.39 83.66 C 98.12 80.46 93.95 79.87 90.32 80.35 Z" />
<path fill="#cc9736" opacity="1.00" d=" M 158.47 153.65 C 164.97 150.41 173.97 154.72 174.55 162.19 C 175.51 167.57 172.03 173.11 166.88 174.79 C 161.68 176.73 155.44 173.87 153.15 168.90 C 150.76 163.50 152.59 155.92 158.47 153.65 Z" />
</g>
</svg>
