<?xml version="1.0" encoding="UTF-8" ?>
<!DOCTYPE svg PUBLIC "-//W3C//DTD SVG 1.1//EN" "http://www.w3.org/Graphics/SVG/1.1/DTD/svg11.dtd">
<svg width="192pt" height="192pt" viewBox="0 0 192 192" version="1.1" xmlns="http://www.w3.org/2000/svg">
<g id="#606f80ff">
<path fill="#606f80" opacity="1.00" d=" M 39.29 21.31 C 74.11 19.95 109.10 21.15 143.99 20.70 C 152.96 20.07 162.10 24.66 166.46 32.60 C 171.34 40.91 169.02 50.88 169.59 60.00 C 169.30 63.70 170.69 68.55 167.25 71.18 C 164.17 73.69 159.02 71.55 158.57 67.64 C 157.96 59.43 158.78 51.18 158.24 42.98 C 157.85 36.92 152.16 31.68 146.04 32.15 C 112.34 32.43 78.66 31.47 44.97 31.90 C 39.06 31.74 33.24 36.18 32.46 42.14 C 31.72 50.72 32.85 59.38 31.95 67.94 C 31.09 73.54 22.07 73.51 21.28 67.89 C 20.73 59.93 21.15 51.91 21.08 43.92 C 20.99 33.37 28.98 23.49 39.29 21.31 Z" />
<path fill="#606f80" opacity="1.00" d=" M 23.58 78.53 C 28.72 75.71 35.14 76.43 40.70 77.38 C 45.65 78.60 45.72 84.44 45.63 88.55 C 43.25 88.66 40.86 88.69 38.48 88.67 C 38.14 86.84 37.80 85.01 37.46 83.19 C 33.07 81.88 26.41 82.76 28.81 88.94 C 33.26 92.94 40.99 91.12 45.02 95.95 C 46.87 100.64 47.30 106.97 44.09 111.16 C 39.46 114.33 33.29 113.50 28.01 112.99 C 22.54 112.68 20.40 105.89 22.23 101.50 C 24.37 101.21 26.54 101.26 28.69 101.26 C 29.04 103.08 29.38 104.91 29.71 106.74 C 32.39 107.01 35.18 107.56 37.81 106.73 C 39.21 104.69 38.42 102.07 38.48 99.78 C 33.18 97.64 26.47 97.93 22.30 93.66 C 20.51 89.00 19.94 82.43 23.58 78.53 Z" />
<path fill="#606f80" opacity="1.00" d=" M 55.34 77.55 C 61.10 76.24 67.43 76.06 73.09 77.89 C 78.69 81.04 77.11 88.63 77.43 94.00 C 76.99 99.74 78.84 106.87 74.38 111.41 C 68.44 114.39 61.03 113.89 54.76 112.21 C 48.43 108.66 50.82 99.97 50.26 94.00 C 50.61 88.52 48.91 80.09 55.34 77.55 M 60.26 83.41 C 57.73 83.82 58.23 87.08 57.90 88.95 C 57.95 94.43 57.21 100.09 58.60 105.45 C 61.24 107.79 65.83 107.24 68.89 105.90 C 70.60 99.81 69.55 93.25 69.62 86.98 C 69.77 82.01 63.52 83.01 60.26 83.41 Z" />
<path fill="#606f80" opacity="1.00" d=" M 82.72 77.69 C 85.25 76.52 89.37 76.27 90.56 79.39 C 93.96 85.68 96.96 92.18 100.38 98.47 C 100.84 91.41 99.72 84.23 101.00 77.26 C 103.25 77.01 105.52 77.09 107.78 77.16 C 108.54 88.93 107.88 100.74 108.17 112.52 C 105.49 112.81 101.56 114.20 100.14 110.96 C 96.67 104.53 93.51 97.94 90.18 91.44 C 89.72 98.48 90.91 105.72 89.55 112.63 C 87.23 112.93 84.90 112.79 82.58 112.65 C 82.50 101.01 82.13 89.31 82.72 77.69 Z" />
<path fill="#606f80" opacity="1.00" d=" M 118.35 77.50 C 124.48 76.39 131.62 75.59 137.29 78.69 C 141.92 83.88 139.72 91.65 140.28 98.00 C 140.18 103.06 140.97 110.92 134.69 112.59 C 128.60 113.65 121.37 114.55 115.88 111.13 C 111.47 105.86 113.72 98.30 113.14 92.00 C 113.24 87.02 112.37 79.45 118.35 77.50 M 123.27 83.40 C 120.62 83.53 120.98 87.06 120.72 88.96 C 120.90 94.49 119.99 100.22 121.49 105.60 C 124.61 107.74 132.62 108.26 132.50 102.85 C 132.70 97.36 132.84 91.84 132.40 86.36 C 132.01 81.91 126.34 83.18 123.27 83.40 Z" />
<path fill="#606f80" opacity="1.00" d=" M 147.37 78.36 C 152.64 75.78 159.08 76.34 164.67 77.48 C 169.39 78.87 169.13 84.58 169.43 88.52 C 164.92 89.41 160.61 88.92 161.00 83.31 C 158.17 82.81 155.29 82.84 152.46 83.33 C 152.39 85.43 152.37 87.53 152.39 89.63 C 157.59 91.96 164.05 91.71 168.42 95.62 C 170.57 100.24 170.74 106.59 167.95 110.98 C 162.98 114.58 155.99 113.60 150.28 112.67 C 145.18 111.57 145.12 105.56 145.29 101.41 C 147.65 101.31 150.01 101.28 152.37 101.31 C 152.71 103.17 153.07 105.03 153.46 106.89 C 156.27 107.07 159.09 107.10 161.90 106.88 C 161.96 104.31 163.45 99.92 159.86 99.13 C 155.21 97.20 149.01 97.64 145.69 93.37 C 144.21 88.66 143.49 82.10 147.37 78.36 Z" />
<path fill="#606f80" opacity="1.00" d=" M 25.37 117.36 C 28.38 116.60 31.80 118.84 32.05 122.00 C 32.71 130.60 31.82 139.26 32.43 147.86 C 33.06 153.94 38.93 158.68 44.99 158.33 C 78.66 158.31 112.34 158.35 146.02 158.29 C 151.87 158.46 157.41 153.84 158.15 148.02 C 158.92 139.16 157.82 130.22 158.64 121.38 C 159.61 115.60 169.10 116.12 169.40 122.01 C 169.79 130.32 169.54 138.66 169.52 146.98 C 169.40 159.23 158.23 169.93 145.99 169.57 C 112.00 169.58 78.01 169.61 44.02 169.55 C 32.37 169.60 21.88 159.70 21.18 148.09 C 20.86 140.04 21.09 131.97 21.04 123.92 C 20.78 121.06 22.37 117.93 25.37 117.36 Z" />
</g>
</svg>
