<?xml version="1.0" encoding="UTF-8" ?>
<!DOCTYPE svg PUBLIC "-//W3C//DTD SVG 1.1//EN" "http://www.w3.org/Graphics/SVG/1.1/DTD/svg11.dtd">
<svg width="192pt" height="192pt" viewBox="0 0 192 192" version="1.1" xmlns="http://www.w3.org/2000/svg">
<g id="#8492a2ff">
<path fill="#8492a2" opacity="1.00" d=" M 87.38 17.48 C 106.64 14.50 127.31 19.03 142.47 31.55 C 145.80 35.07 142.80 41.32 138.04 41.28 C 133.45 40.75 130.18 36.76 125.93 35.15 C 97.76 20.30 60.10 30.03 42.01 56.01 C 25.41 79.81 26.32 114.60 44.94 137.01 C 68.10 163.70 113.06 167.91 140.54 145.53 C 156.22 132.77 164.23 111.94 162.67 91.95 C 162.35 89.18 162.41 85.66 165.25 84.17 C 168.80 81.78 174.05 84.69 173.97 88.96 C 175.79 120.36 157.45 152.79 128.16 165.28 C 104.87 175.33 76.77 173.10 55.21 159.77 C 28.16 143.26 13.76 108.92 21.09 78.04 C 27.43 46.42 55.33 20.98 87.38 17.48 Z" />
<path fill="#8492a2" opacity="1.00" d=" M 148.25 43.29 C 151.06 42.33 154.61 43.18 156.04 45.97 C 160.52 53.78 165.22 61.49 169.44 69.45 C 172.04 76.34 161.07 82.23 156.86 76.15 C 152.31 68.65 148.03 60.98 143.67 53.36 C 141.12 49.51 144.14 44.37 148.25 43.29 Z" />
</g>
</svg>
