<?xml version="1.0" encoding="UTF-8" ?>
<!DOCTYPE svg PUBLIC "-//W3C//DTD SVG 1.1//EN" "http://www.w3.org/Graphics/SVG/1.1/DTD/svg11.dtd">
<svg width="192pt" height="192pt" viewBox="0 0 192 192" version="1.1" xmlns="http://www.w3.org/2000/svg">
<g id="#ff633bff">
<path fill="#ff633b" opacity="1.00" d=" M 39.25 28.27 C 42.09 27.46 45.09 27.77 48.00 27.72 C 84.01 27.77 120.02 27.69 156.03 27.75 C 160.98 27.46 165.17 32.09 164.84 36.94 C 164.73 43.78 165.09 50.66 164.56 57.48 C 162.94 63.34 155.70 62.60 150.98 62.12 C 143.49 61.15 141.94 52.45 136.52 48.47 C 124.71 36.83 105.29 35.13 91.06 43.10 C 82.73 47.61 79.35 58.94 83.80 67.30 C 88.00 75.16 96.38 79.46 104.27 82.80 C 121.41 89.43 139.64 92.34 157.42 96.63 C 161.67 97.50 164.92 101.58 164.78 105.92 C 164.80 122.62 164.90 139.33 164.74 156.03 C 164.76 162.57 154.81 164.98 151.78 159.23 C 149.15 152.85 146.78 145.23 139.92 142.18 C 119.41 132.29 97.02 127.36 75.39 120.59 C 58.57 115.43 40.13 107.84 31.48 91.42 C 23.48 75.22 25.44 55.93 31.44 39.41 C 33.28 35.34 34.66 30.05 39.25 28.27 M 42.27 45.14 C 36.61 59.05 35.21 76.25 43.67 89.33 C 54.45 103.23 72.58 107.56 88.61 112.40 C 110.50 119.39 133.99 123.82 153.27 136.93 C 152.96 127.09 153.90 117.17 152.78 107.39 C 133.22 102.89 113.09 99.66 94.70 91.27 C 82.91 85.80 71.57 75.74 70.44 62.00 C 69.22 54.17 73.42 47.05 74.02 39.42 C 66.01 39.35 58.00 39.33 50.00 39.39 C 46.48 39.29 43.26 41.81 42.27 45.14 Z" />
<path fill="#ff633b" opacity="1.00" d=" M 29.28 151.27 C 59.41 150.05 89.81 151.01 120.04 150.78 C 126.99 150.15 127.90 161.73 121.03 162.27 C 91.35 162.50 61.65 162.34 31.97 162.34 C 25.88 162.98 23.76 153.53 29.28 151.27 Z" />
</g>
</svg>
