<?xml version="1.0" encoding="UTF-8" ?>
<!DOCTYPE svg PUBLIC "-//W3C//DTD SVG 1.1//EN" "http://www.w3.org/Graphics/SVG/1.1/DTD/svg11.dtd">
<svg width="192pt" height="192pt" viewBox="0 0 192 192" version="1.1" xmlns="http://www.w3.org/2000/svg">
<g id="#ff891fff">
<path fill="#ff891f" opacity="1.00" d=" M 82.41 24.52 C 102.88 21.57 124.41 26.67 141.23 38.74 C 162.91 53.98 176.71 80.27 175.69 106.88 C 174.95 113.20 164.54 112.44 164.72 106.03 C 164.71 85.09 155.14 64.39 138.88 51.15 C 122.23 37.15 98.96 31.85 77.83 36.82 C 58.47 41.28 41.38 54.40 31.92 71.86 C 19.34 94.34 20.68 123.61 35.07 144.95 C 39.64 150.15 31.15 157.69 26.70 152.32 C 7.51 125.86 7.32 87.61 25.54 60.58 C 38.24 41.22 59.41 27.60 82.41 24.52 Z" />
<path fill="#ff891f" opacity="1.00" d=" M 86.38 48.45 C 101.85 46.34 118.08 50.89 130.16 60.79 C 143.67 71.58 151.87 88.69 151.64 106.00 C 151.74 122.78 143.88 139.29 131.01 150.01 C 117.25 161.78 97.72 166.34 80.16 161.87 C 63.21 157.80 48.54 145.51 41.41 129.62 C 34.10 113.69 34.60 94.41 42.86 78.93 C 51.32 62.54 68.06 50.74 86.38 48.45 M 88.41 59.53 C 66.65 61.77 48.43 81.18 47.56 103.03 C 45.83 125.16 62.22 146.81 83.96 151.19 C 101.95 155.40 121.85 147.46 132.16 132.17 C 142.73 117.29 143.15 96.10 133.16 80.81 C 123.93 65.93 105.79 57.29 88.41 59.53 Z" />
<path fill="#ff891f" opacity="1.00" d=" M 72.27 83.34 C 85.82 82.55 99.49 83.21 113.08 83.00 C 118.03 82.37 121.94 88.08 119.42 92.43 C 112.79 106.71 105.89 120.88 99.08 135.08 C 97.30 139.79 89.72 139.73 87.90 135.06 C 81.42 121.20 75.36 107.13 68.82 93.30 C 66.76 89.74 68.04 84.49 72.27 83.34 M 81.75 94.31 C 85.66 102.99 89.58 111.67 93.52 120.34 C 97.94 111.78 101.98 103.02 106.07 94.29 C 97.96 94.33 89.85 94.30 81.75 94.31 Z" />
</g>
</svg>
