<?xml version="1.0" encoding="UTF-8" ?>
<!DOCTYPE svg PUBLIC "-//W3C//DTD SVG 1.1//EN" "http://www.w3.org/Graphics/SVG/1.1/DTD/svg11.dtd">
<svg width="192pt" height="192pt" viewBox="0 0 192 192" version="1.1" xmlns="http://www.w3.org/2000/svg">
<g id="#ff3662ff">
<path fill="#ff3662" opacity="1.00" d=" M 83.46 14.49 C 90.11 12.25 93.84 23.08 87.12 25.19 C 78.37 26.60 69.88 29.25 61.95 33.24 C 56.39 35.64 51.74 27.07 56.64 23.64 C 64.79 18.76 74.11 15.97 83.46 14.49 Z" />
<path fill="#ff3662" opacity="1.00" d=" M 100.34 14.43 C 110.15 13.61 120.00 17.31 129.01 21.00 C 133.10 22.14 135.03 27.78 131.66 30.74 C 129.14 33.49 125.36 31.91 122.56 30.58 C 115.80 27.42 108.42 26.09 101.09 25.01 C 96.05 24.06 95.52 16.13 100.34 14.43 Z" />
<path fill="#ff3662" opacity="1.00" d=" M 141.41 30.44 C 144.21 29.79 146.49 31.92 148.43 33.60 C 154.91 39.51 160.96 46.20 164.94 54.07 C 167.04 59.45 159.08 64.08 155.50 59.51 C 150.84 52.34 145.44 45.63 138.79 40.18 C 135.22 37.40 136.96 31.09 141.41 30.44 Z" />
<path fill="#ff3662" opacity="1.00" d=" M 44.35 32.40 C 49.60 30.64 54.07 38.14 49.80 41.80 C 43.38 47.55 38.15 54.40 33.77 61.79 C 30.27 66.71 21.75 61.84 24.29 56.25 C 29.17 47.12 35.67 38.13 44.35 32.40 Z" />
<path fill="#ff3662" opacity="1.00" d=" M 60.14 57.21 C 65.33 57.26 69.35 61.93 74.02 63.96 C 82.78 68.25 90.32 75.90 100.44 76.54 C 113.30 79.86 117.42 97.93 107.90 106.90 C 99.79 115.48 83.84 112.92 78.82 102.24 C 76.20 98.14 77.86 92.85 75.19 88.81 C 70.36 79.94 65.65 70.99 60.85 62.10 C 60.12 60.55 58.75 58.84 60.14 57.21 Z" />
<path fill="#ff3662" opacity="1.00" d=" M 165.28 68.28 C 168.32 66.66 172.34 68.54 173.19 71.84 C 176.13 81.09 177.42 90.99 176.53 100.68 C 175.46 106.15 166.60 106.08 165.67 100.55 C 165.52 92.35 165.19 84.06 162.69 76.16 C 161.58 73.32 162.27 69.60 165.28 68.28 Z" />
<path fill="#ff3662" opacity="1.00" d=" M 20.35 69.41 C 24.65 67.67 29.27 72.34 27.61 76.65 C 25.63 83.95 25.31 91.49 25.25 99.00 C 24.44 104.44 15.93 104.93 14.46 99.65 C 13.46 92.42 14.45 85.02 15.72 77.88 C 16.45 74.78 16.83 70.60 20.35 69.41 Z" />
<path fill="#ff3662" opacity="1.00" d=" M 20.21 113.25 C 23.66 111.50 27.58 114.12 28.35 117.65 C 34.26 134.84 47.15 149.44 63.38 157.61 C 81.36 166.80 103.33 167.63 121.99 159.96 C 140.99 152.31 156.14 136.03 162.62 116.63 C 164.20 110.44 174.36 112.36 173.62 118.67 C 164.09 152.91 129.39 177.55 94.01 176.49 C 59.79 176.54 27.30 152.54 17.19 119.89 C 16.35 117.31 17.75 114.33 20.21 113.25 Z" />
</g>
</svg>
