<?xml version="1.0" encoding="UTF-8" ?>
<!DOCTYPE svg PUBLIC "-//W3C//DTD SVG 1.1//EN" "http://www.w3.org/Graphics/SVG/1.1/DTD/svg11.dtd">
<svg width="192pt" height="192pt" viewBox="0 0 192 192" version="1.1" xmlns="http://www.w3.org/2000/svg">
<g id="#d5ae4aff">
<path fill="#d5ae4a" opacity="1.00" d=" M 52.30 12.36 C 57.21 11.67 62.48 11.69 67.05 13.87 C 74.72 18.08 84.20 17.08 92.10 14.05 C 105.65 9.41 122.04 11.07 132.66 21.31 C 136.95 25.83 142.58 28.59 148.30 30.83 C 152.56 32.38 155.17 37.67 152.85 41.81 C 147.83 50.28 137.71 54.18 132.79 62.71 C 129.49 68.94 127.99 77.94 133.75 83.25 C 144.45 93.75 154.26 105.98 158.48 120.60 C 160.10 125.18 158.31 130.75 153.78 132.86 C 147.51 135.80 140.99 138.35 135.23 142.27 C 121.02 152.58 106.40 162.37 91.28 171.29 C 83.67 175.94 73.12 176.98 65.79 171.24 C 54.77 162.31 44.44 152.28 36.54 140.43 C 32.56 134.62 31.40 127.08 33.41 120.32 C 37.82 103.69 49.03 90.26 58.15 76.05 C 62.29 69.74 60.65 60.86 54.89 56.12 C 45.38 48.53 39.48 36.94 37.77 25.00 C 37.14 17.05 45.97 13.74 52.30 12.36 M 49.18 25.22 C 50.86 33.91 55.29 42.18 62.34 47.68 C 72.06 55.83 74.73 71.06 67.83 81.82 C 59.43 95.21 48.64 107.58 44.33 123.10 C 43.16 126.77 43.65 130.86 45.86 134.04 C 52.92 144.74 62.30 153.69 72.14 161.82 C 76.18 165.36 82.08 163.71 86.18 161.15 C 98.77 153.60 111.09 145.57 123.05 137.07 C 130.37 131.08 138.95 127.06 147.48 123.14 C 143.43 110.41 134.64 99.95 125.24 90.76 C 115.65 81.11 117.40 65.08 124.57 54.56 C 128.47 48.40 135.08 44.84 139.81 39.45 C 134.07 37.25 129.06 33.56 124.66 29.32 C 116.97 22.12 105.27 21.57 95.68 24.76 C 84.99 28.80 72.27 29.52 61.98 23.96 C 57.79 22.53 53.09 23.29 49.18 25.22 Z" />
<path fill="#d5ae4a" opacity="1.00" d=" M 88.25 75.15 C 90.83 67.69 99.75 69.13 105.94 69.27 C 110.14 69.34 111.08 75.73 107.48 77.48 C 103.89 78.42 99.99 76.98 96.54 78.61 C 96.17 90.07 96.71 101.55 96.30 113.00 C 95.39 121.50 85.34 127.40 77.60 123.43 C 69.28 120.06 67.09 107.79 73.85 101.84 C 77.28 97.88 82.81 97.74 87.60 98.47 C 87.96 90.72 86.76 82.75 88.25 75.15 Z" />
</g>
</svg>
