<?xml version="1.0" encoding="UTF-8" ?>
<!DOCTYPE svg PUBLIC "-//W3C//DTD SVG 1.1//EN" "http://www.w3.org/Graphics/SVG/1.1/DTD/svg11.dtd">
<svg width="192pt" height="192pt" viewBox="0 0 192 192" version="1.1" xmlns="http://www.w3.org/2000/svg">
<g id="#19b0ffff">
<path fill="#19b0ff" opacity="1.00" d=" M 39.36 21.49 C 42.82 20.56 46.44 20.74 50.00 20.73 C 82.66 20.78 115.33 20.68 147.99 20.77 C 159.76 20.85 170.27 31.18 170.59 42.94 C 170.62 51.57 170.83 60.22 170.50 68.84 C 169.68 74.46 160.71 74.57 159.70 68.98 C 159.15 60.41 159.80 51.78 159.41 43.19 C 159.08 36.94 153.25 31.78 147.05 31.86 C 113.36 31.78 79.66 31.80 45.97 31.80 C 39.64 31.50 33.45 36.50 33.03 42.94 C 32.38 51.82 33.44 60.79 32.52 69.64 C 30.97 74.61 22.90 74.08 21.98 68.95 C 21.48 60.66 21.87 52.32 21.78 44.01 C 21.70 33.67 29.33 23.95 39.36 21.49 Z" />
<path fill="#19b0ff" opacity="1.00" d=" M 72.34 77.39 C 79.55 76.11 87.20 79.87 90.72 86.26 C 95.07 93.64 92.91 103.94 86.03 109.03 C 78.70 115.01 66.74 113.50 61.18 105.83 C 52.90 95.93 59.43 78.89 72.34 77.39 M 72.34 86.49 C 68.29 87.86 65.47 92.33 66.45 96.59 C 67.22 101.58 72.80 104.98 77.60 103.49 C 82.59 102.27 85.65 96.25 83.46 91.54 C 81.80 87.25 76.65 85.07 72.34 86.49 Z" />
<path fill="#19b0ff" opacity="1.00" d=" M 133.51 97.82 C 131.31 86.04 142.80 74.48 154.62 77.49 C 166.48 79.37 172.28 93.63 166.91 103.91 C 167.94 105.20 168.98 106.50 169.99 107.81 C 167.57 111.06 163.54 114.95 160.10 110.45 C 149.76 116.51 135.19 109.68 133.51 97.82 M 144.74 88.75 C 138.38 94.41 145.10 106.17 153.23 103.38 C 152.20 102.23 151.15 101.11 150.11 99.97 C 151.94 97.80 154.05 95.89 156.23 94.08 C 157.52 95.02 158.80 95.97 160.10 96.89 C 162.01 88.42 150.47 82.10 144.74 88.75 Z" />
<path fill="#19b0ff" opacity="1.00" d=" M 24.03 94.97 C 18.20 90.00 21.57 79.26 29.12 78.23 C 35.72 77.55 42.40 77.84 49.03 77.89 C 53.34 77.85 51.94 83.36 51.93 86.14 C 45.06 86.31 38.18 85.97 31.32 86.36 C 31.31 86.96 31.30 88.17 31.29 88.77 C 37.09 90.87 43.55 90.94 49.05 93.85 C 55.42 97.39 54.63 108.27 47.65 110.66 C 40.40 113.11 32.51 111.91 24.99 111.98 C 20.68 112.12 21.60 106.81 21.98 103.99 C 28.81 103.21 35.72 104.11 42.55 103.45 C 43.74 102.44 43.69 101.55 42.40 100.77 C 36.40 98.52 29.34 98.90 24.03 94.97 Z" />
<path fill="#19b0ff" opacity="1.00" d=" M 97.89 77.64 C 100.62 77.92 104.93 76.32 106.40 79.47 C 107.29 85.89 106.03 92.47 107.05 98.88 C 108.35 104.69 117.52 104.91 119.26 99.31 C 120.78 92.47 118.56 85.13 120.46 78.41 C 122.79 77.35 128.89 75.82 128.67 79.95 C 128.34 86.92 129.25 93.99 128.01 100.90 C 126.22 109.21 116.41 114.20 108.52 111.50 C 102.42 109.53 97.86 103.49 97.87 97.03 C 97.80 90.57 97.89 84.10 97.89 77.64 Z" />
<path fill="#19b0ff" opacity="1.00" d=" M 25.36 117.40 C 28.57 116.02 32.70 118.55 32.79 122.07 C 33.12 130.39 32.61 138.74 33.01 147.06 C 33.34 153.15 38.88 158.35 44.98 158.30 C 78.99 158.35 113.00 158.31 147.01 158.29 C 153.34 158.55 159.18 153.11 159.41 146.80 C 159.79 138.21 159.10 129.58 159.73 121.02 C 160.95 115.58 169.64 115.87 170.49 121.38 C 170.88 129.92 170.60 138.51 170.62 147.06 C 170.44 158.95 159.83 169.39 147.96 169.52 C 113.63 169.60 79.29 169.54 44.95 169.52 C 33.25 169.61 22.60 159.71 21.87 148.03 C 21.62 139.68 21.77 131.31 21.79 122.95 C 21.66 120.58 23.08 118.20 25.36 117.40 Z" />
</g>
</svg>
