<?xml version="1.0" encoding="UTF-8" ?>
<!DOCTYPE svg PUBLIC "-//W3C//DTD SVG 1.1//EN" "http://www.w3.org/Graphics/SVG/1.1/DTD/svg11.dtd">
<svg width="192pt" height="192pt" viewBox="0 0 192 192" version="1.1" xmlns="http://www.w3.org/2000/svg">
<g id="#c320d3ff">
<path fill="#c320d3" opacity="1.00" d=" M 21.33 16.47 C 27.19 13.61 34.60 19.74 33.02 26.02 C 32.26 32.07 24.28 35.31 19.54 31.45 C 14.33 27.82 15.16 18.61 21.33 16.47 Z" />
<path fill="#c320d3" opacity="1.00" d=" M 86.36 16.44 C 116.99 12.22 148.89 27.96 164.51 54.56 C 177.69 76.18 179.46 104.18 169.36 127.37 C 157.32 156.09 127.21 176.08 96.00 175.51 C 66.64 175.88 38.27 158.13 25.19 131.94 C 14.36 110.87 13.71 84.96 23.33 63.33 C 34.30 38.16 59.01 19.53 86.36 16.44 M 88.42 27.56 C 53.28 30.85 24.87 64.78 27.94 99.97 C 29.34 132.69 57.24 161.56 89.92 163.93 C 120.79 167.36 151.90 146.69 161.15 117.14 C 168.28 95.93 164.12 71.35 150.25 53.75 C 136.03 35.04 111.78 24.72 88.42 27.56 Z" />
</g>
</svg>
