<?xml version="1.0" encoding="UTF-8" ?>
<!DOCTYPE svg PUBLIC "-//W3C//DTD SVG 1.1//EN" "http://www.w3.org/Graphics/SVG/1.1/DTD/svg11.dtd">
<svg width="192pt" height="192pt" viewBox="0 0 192 192" version="1.1" xmlns="http://www.w3.org/2000/svg">
<g id="#19b0ffff">
<path fill="#19b0ff" opacity="1.00" d=" M 123.05 26.88 C 117.25 26.13 117.18 16.77 122.97 15.97 C 131.97 15.65 141.01 15.69 150.02 15.80 C 154.82 15.60 158.46 20.38 157.64 24.97 C 156.12 50.33 154.57 75.69 152.97 101.05 C 152.96 105.40 149.52 109.49 145.00 109.46 C 135.33 109.51 125.65 109.52 115.99 109.42 C 111.47 109.53 108.11 105.37 108.20 101.05 C 106.97 79.69 105.20 58.36 104.14 37.00 C 104.15 30.56 114.74 30.30 115.18 36.71 C 116.79 57.17 117.95 77.67 119.34 98.16 C 126.84 98.17 134.35 98.13 141.86 98.17 C 143.23 74.48 144.80 50.80 146.19 27.11 C 138.48 26.94 130.74 27.46 123.05 26.88 Z" />
<path fill="#19b0ff" opacity="1.00" d=" M 55.30 24.34 C 71.22 20.16 88.94 33.35 88.63 50.00 C 89.29 65.90 73.50 79.20 57.97 76.77 C 44.94 75.29 33.92 63.21 34.31 49.99 C 34.21 37.90 43.65 26.94 55.30 24.34 M 57.32 35.44 C 50.50 37.15 45.07 43.86 45.52 51.01 C 45.94 59.60 54.43 66.75 62.98 65.66 C 71.20 65.10 78.24 57.30 77.33 48.98 C 76.69 39.55 66.26 32.75 57.32 35.44 Z" />
<path fill="#19b0ff" opacity="1.00" d=" M 39.03 88.96 C 38.94 85.04 41.82 81.10 45.95 81.08 C 55.98 80.91 66.04 80.77 76.06 80.98 C 80.32 80.98 83.67 84.83 83.66 88.98 C 84.99 110.32 86.61 131.66 87.78 153.01 C 88.17 159.31 77.92 160.47 76.83 154.28 C 75.03 133.62 74.04 112.87 72.57 92.17 C 65.08 92.24 57.59 92.28 50.10 92.21 C 48.58 115.86 47.20 139.52 45.68 163.17 C 53.67 163.42 61.71 162.79 69.67 163.46 C 75.32 164.66 74.84 173.94 69.01 174.37 C 60.02 174.63 51.01 174.45 42.01 174.48 C 37.51 174.70 33.73 170.49 34.26 166.06 C 35.74 140.35 37.42 114.65 39.03 88.96 Z" />
<path fill="#19b0ff" opacity="1.00" d=" M 124.29 113.27 C 140.97 108.72 159.48 123.49 157.60 140.95 C 156.95 158.05 137.63 170.04 121.81 164.28 C 110.64 160.94 102.62 149.59 103.28 137.93 C 103.45 126.11 112.91 115.70 124.29 113.27 M 126.34 124.43 C 118.05 126.19 112.26 135.58 115.32 143.69 C 118.04 153.05 130.11 157.02 138.33 152.34 C 145.65 148.71 148.70 138.63 144.33 131.65 C 140.82 125.45 133.11 122.79 126.34 124.43 Z" />
</g>
</svg>
