<?xml version="1.0" encoding="UTF-8" ?>
<!DOCTYPE svg PUBLIC "-//W3C//DTD SVG 1.1//EN" "http://www.w3.org/Graphics/SVG/1.1/DTD/svg11.dtd">
<svg width="192pt" height="192pt" viewBox="0 0 192 192" version="1.1" xmlns="http://www.w3.org/2000/svg">
<g id="#1cb5ffff">
<path fill="#1cb5ff" opacity="1.00" d=" M 86.59 27.63 C 88.18 24.08 89.82 19.66 94.02 18.56 C 97.67 17.58 101.19 19.97 102.99 23.01 C 123.40 65.32 143.89 107.62 163.82 150.16 C 166.40 155.76 159.92 162.39 154.30 159.68 C 140.18 153.46 126.28 146.75 112.24 140.35 C 108.82 149.92 105.74 159.62 102.18 169.14 C 100.39 174.22 92.37 175.09 90.06 169.99 C 86.31 160.20 83.24 150.15 79.59 140.33 C 65.60 146.73 51.72 153.37 37.66 159.62 C 31.67 162.64 25.04 155.03 28.32 149.35 C 47.82 108.81 67.19 68.21 86.59 27.63 M 41.56 146.06 C 54.16 140.60 66.46 134.47 79.02 128.93 C 82.53 127.29 86.96 129.22 88.23 132.85 C 90.98 140.08 93.25 147.49 95.94 154.74 C 98.68 147.44 100.91 139.95 103.74 132.68 C 105.09 129.07 109.53 127.34 112.98 129.00 C 125.42 134.53 137.68 140.48 150.11 146.05 C 132.27 108.20 114.19 70.48 95.92 32.84 C 77.65 70.51 59.92 108.43 41.56 146.06 Z" />
</g>
</svg>
