<?xml version="1.0" encoding="UTF-8" ?>
<!DOCTYPE svg PUBLIC "-//W3C//DTD SVG 1.1//EN" "http://www.w3.org/Graphics/SVG/1.1/DTD/svg11.dtd">
<svg width="192pt" height="192pt" viewBox="0 0 192 192" version="1.1" xmlns="http://www.w3.org/2000/svg">
<g id="#ff3664ff">
<path fill="#ff3664" opacity="1.00" d=" M 90.36 11.52 C 101.97 7.62 113.18 21.30 108.08 32.07 C 104.28 42.11 89.55 44.53 82.73 36.26 C 75.22 28.35 79.43 13.60 90.36 11.52 Z" />
<path fill="#ff3664" opacity="1.00" d=" M 23.37 75.92 C 23.78 62.46 35.53 50.75 49.00 50.36 C 78.69 50.13 108.38 50.18 138.07 50.33 C 151.35 50.61 164.69 61.00 164.71 74.99 C 166.21 81.20 161.84 88.28 155.08 88.08 C 125.18 88.20 95.27 88.09 65.36 88.13 C 65.38 92.28 65.35 96.42 65.39 100.57 C 94.59 100.61 123.80 100.41 153.00 100.58 C 159.45 100.58 165.11 106.49 164.84 112.94 C 164.83 124.65 164.95 136.36 164.78 148.07 C 164.53 162.20 152.33 175.20 137.99 175.27 C 110.00 175.24 82.00 175.72 54.01 175.39 C 45.90 175.39 37.23 173.56 31.10 167.90 C 25.15 162.05 23.37 153.22 23.40 145.18 C 24.25 140.00 32.15 139.22 34.04 144.12 C 35.30 149.24 34.77 155.24 38.56 159.42 C 42.96 163.49 49.31 164.08 55.02 164.11 C 82.37 164.48 109.72 163.84 137.07 163.99 C 146.11 164.30 153.61 155.83 153.54 147.05 C 153.57 135.37 153.60 123.68 153.52 111.99 C 123.36 111.45 93.16 111.99 62.99 111.71 C 58.04 111.61 53.93 106.98 54.08 102.08 C 54.01 96.05 54.10 90.00 54.18 83.97 C 54.25 79.96 58.00 76.67 61.96 76.84 C 92.51 76.72 123.07 76.88 153.62 76.76 C 154.09 67.75 145.36 61.43 136.98 61.57 C 107.99 61.49 79.00 61.42 50.01 61.59 C 41.79 61.59 34.56 68.81 34.56 77.03 C 34.49 89.01 34.54 100.99 34.54 112.98 C 34.19 116.05 36.87 118.98 39.99 118.71 C 68.67 118.80 97.36 118.63 126.03 118.79 C 129.63 118.63 133.10 121.33 133.40 125.00 C 133.71 130.66 133.56 136.35 133.46 142.02 C 133.26 146.20 129.06 149.11 125.06 148.78 C 102.07 148.68 79.08 148.97 56.09 148.74 C 49.77 148.48 49.64 138.05 56.00 137.70 C 77.90 137.45 99.83 137.73 121.75 137.46 C 123.00 135.46 121.98 132.51 122.24 130.14 C 94.81 130.07 67.37 130.21 39.94 130.08 C 31.29 130.27 23.28 122.81 23.32 114.07 C 23.30 101.36 23.21 88.64 23.37 75.92 Z" />
</g>
</svg>
