<?xml version="1.0" encoding="UTF-8" ?>
<!DOCTYPE svg PUBLIC "-//W3C//DTD SVG 1.1//EN" "http://www.w3.org/Graphics/SVG/1.1/DTD/svg11.dtd">
<svg width="192pt" height="192pt" viewBox="0 0 192 192" version="1.1" xmlns="http://www.w3.org/2000/svg">
<g id="#627180ff">
<path fill="#627180" opacity="1.00" d=" M 93.35 13.38 C 102.76 9.10 104.84 27.88 96.00 28.37 C 89.07 27.98 88.75 16.68 93.35 13.38 Z" />
<path fill="#627180" opacity="1.00" d=" M 36.31 32.35 C 40.57 31.48 44.21 35.63 45.66 39.18 C 46.97 44.37 39.65 47.84 36.38 43.62 C 32.12 41.23 30.61 33.94 36.31 32.35 Z" />
<path fill="#627180" opacity="1.00" d=" M 151.40 32.52 C 154.90 30.58 159.56 33.99 158.84 37.91 C 158.01 42.76 150.97 47.72 147.07 42.93 C 144.00 39.00 147.95 34.46 151.40 32.52 Z" />
<path fill="#627180" opacity="1.00" d=" M 112.34 70.24 C 115.33 68.05 120.01 70.37 120.34 74.00 C 120.86 81.44 107.94 83.40 110.83 91.12 C 114.21 101.71 103.74 113.04 92.95 111.03 C 83.05 109.92 76.31 98.52 80.17 89.32 C 83.20 80.67 93.73 76.75 102.00 80.18 C 105.55 76.97 108.57 73.20 112.34 70.24 Z" />
<path fill="#627180" opacity="1.00" d=" M 16.38 74.48 C 21.03 73.12 29.70 73.12 29.19 80.03 C 28.26 85.45 21.75 84.90 17.64 84.40 C 12.78 83.80 11.82 76.32 16.38 74.48 Z" />
<path fill="#627180" opacity="1.00" d=" M 165.20 74.28 C 168.28 73.76 171.59 73.59 174.61 74.51 C 178.62 76.33 178.43 82.69 174.27 84.20 C 171.20 84.81 167.90 84.91 164.85 84.11 C 160.60 82.49 160.78 75.55 165.20 74.28 Z" />
<path fill="#627180" opacity="1.00" d=" M 16.31 98.28 C 20.33 95.98 24.98 99.67 24.83 103.98 C 28.07 134.83 54.00 161.28 84.69 165.44 C 106.38 168.84 129.41 161.49 145.09 146.10 C 157.14 134.62 164.57 118.75 166.41 102.26 C 167.03 95.79 177.68 96.48 177.50 102.97 C 175.17 135.47 150.93 164.65 119.85 173.93 C 98.48 180.56 74.45 178.09 55.00 167.00 C 32.06 154.27 15.90 130.02 13.43 103.86 C 13.16 101.63 14.30 99.31 16.31 98.28 Z" />
</g>
</svg>
