<?xml version="1.0" encoding="UTF-8" ?>
<!DOCTYPE svg PUBLIC "-//W3C//DTD SVG 1.1//EN" "http://www.w3.org/Graphics/SVG/1.1/DTD/svg11.dtd">
<svg width="192pt" height="192pt" viewBox="0 0 192 192" version="1.1" xmlns="http://www.w3.org/2000/svg">
<g id="#7097b3ff">
<path fill="#7097b3" opacity="1.00" d=" M 83.38 13.48 C 102.69 10.62 123.21 14.57 139.59 25.34 C 144.74 29.15 138.87 37.91 133.37 34.52 C 117.02 24.48 96.62 21.19 78.02 26.10 C 57.81 31.14 40.32 45.73 31.52 64.59 C 19.44 89.43 23.79 121.13 42.31 141.65 C 57.36 159.06 81.24 168.23 104.08 165.39 C 130.96 162.60 154.98 142.86 163.17 117.14 C 169.87 97.32 167.02 74.73 155.95 57.02 C 152.36 51.70 160.61 45.42 164.75 50.28 C 176.72 67.90 180.60 90.56 176.41 111.35 C 171.39 137.36 152.78 160.16 128.41 170.48 C 106.35 180.09 80.08 179.30 58.64 168.35 C 34.81 156.52 17.58 132.47 14.19 106.06 C 11.27 85.18 16.71 63.23 29.25 46.26 C 41.96 28.69 61.92 16.60 83.38 13.48 Z" />
<path fill="#7097b3" opacity="1.00" d=" M 97.35 75.34 C 112.83 65.83 127.96 55.74 143.60 46.51 C 137.27 59.01 129.68 70.84 123.28 83.32 C 120.69 87.95 118.26 92.75 114.82 96.83 C 109.15 102.47 98.77 101.20 94.23 94.75 C 89.72 88.97 90.70 79.06 97.35 75.34 Z" />
</g>
</svg>
