<?xml version="1.0" encoding="UTF-8" ?>
<!DOCTYPE svg PUBLIC "-//W3C//DTD SVG 1.1//EN" "http://www.w3.org/Graphics/SVG/1.1/DTD/svg11.dtd">
<svg width="192pt" height="192pt" viewBox="0 0 192 192" version="1.1" xmlns="http://www.w3.org/2000/svg">
<g id="#2b90c5ff">
<path fill="#2b90c5" opacity="1.00" d=" M 66.37 13.56 C 71.20 12.17 76.83 14.12 79.07 18.77 C 92.07 42.89 104.81 67.16 117.60 91.39 C 121.58 98.76 122.19 108.35 117.42 115.51 C 111.92 124.99 99.21 129.15 89.16 124.78 C 80.75 121.77 75.48 113.50 74.07 104.96 C 69.01 78.96 64.37 52.87 59.46 26.84 C 58.06 21.44 60.93 15.27 66.37 13.56 M 71.23 27.78 C 74.01 48.27 78.68 68.50 82.18 88.89 C 83.46 95.43 84.18 102.16 86.64 108.40 C 89.77 115.95 101.29 118.02 106.57 111.59 C 110.97 107.38 110.35 100.45 107.39 95.62 C 95.38 72.99 83.75 50.12 71.23 27.78 Z" />
<path fill="#2b90c5" opacity="1.00" d=" M 93.36 14.29 C 98.09 12.70 103.28 14.10 108.13 14.54 C 136.86 18.75 162.25 39.47 172.34 66.66 C 180.88 88.83 179.12 114.66 167.64 135.46 C 153.09 162.84 121.99 180.28 91.03 178.23 C 59.20 176.95 29.56 155.26 18.53 125.41 C 5.67 93.11 16.21 52.98 43.94 31.84 C 49.98 28.26 55.58 38.11 49.61 41.69 C 23.01 63.29 16.48 104.98 35.34 133.63 C 52.55 162.54 91.79 175.01 122.58 161.48 C 152.84 149.46 171.62 114.93 165.09 82.98 C 159.71 50.81 129.64 24.96 96.93 25.04 C 91.06 25.75 88.03 17.09 93.36 14.29 Z" />
</g>
</svg>
