<?xml version="1.0" encoding="UTF-8" ?>
<!DOCTYPE svg PUBLIC "-//W3C//DTD SVG 1.1//EN" "http://www.w3.org/Graphics/SVG/1.1/DTD/svg11.dtd">
<svg width="192pt" height="192pt" viewBox="0 0 192 192" version="1.1" xmlns="http://www.w3.org/2000/svg">
<g id="#8d8079ff">
<path fill="#8d8079" opacity="1.00" d=" M 83.28 14.31 C 91.44 10.08 93.30 25.98 85.44 25.59 C 73.74 27.32 62.48 32.00 53.10 39.23 C 49.35 43.21 41.89 36.20 44.01 32.09 C 54.98 22.52 68.99 16.72 83.28 14.31 Z" />
<path fill="#8d8079" opacity="1.00" d=" M 102.39 14.54 C 103.60 13.43 105.47 14.26 106.94 14.25 C 121.11 16.52 134.84 22.06 146.36 30.65 C 152.30 33.96 143.07 43.92 138.81 39.24 C 129.00 31.72 117.23 26.89 104.97 25.32 C 99.76 25.19 100.26 17.51 102.39 14.54 Z" />
<path fill="#8d8079" opacity="1.00" d=" M 33.17 43.08 C 37.44 43.10 43.60 49.24 39.24 53.22 C 31.14 63.44 27.10 76.13 25.06 88.83 C 22.37 91.46 13.31 91.61 14.29 85.99 C 16.26 70.37 22.30 54.63 33.17 43.08 Z" />
<path fill="#8d8079" opacity="1.00" d=" M 156.41 43.40 C 158.40 42.21 160.21 44.26 161.28 45.73 C 170.47 57.93 176.67 72.71 177.62 88.02 C 175.41 91.84 165.97 91.72 166.18 86.03 C 164.60 73.66 159.50 61.89 151.96 52.00 C 149.17 48.51 153.96 45.36 156.41 43.40 Z" />
<path fill="#8d8079" opacity="1.00" d=" M 92.04 51.20 C 94.56 50.90 97.09 50.92 99.59 51.35 C 99.81 53.58 100.00 55.82 100.20 58.05 C 107.12 58.40 116.30 59.41 118.82 67.13 C 119.99 71.81 121.86 77.75 119.01 82.04 C 114.77 82.62 109.49 83.54 105.63 81.41 C 104.37 77.40 105.86 71.32 100.22 70.30 C 100.04 76.46 100.09 82.63 100.14 88.80 C 105.74 90.22 111.67 91.23 116.55 94.49 C 120.90 97.45 121.39 103.22 121.63 108.01 C 121.68 114.69 122.30 122.29 117.84 127.82 C 113.33 132.42 106.35 132.61 100.31 132.82 C 100.12 135.10 99.87 137.38 99.59 139.65 C 97.13 139.80 94.67 139.83 92.21 139.75 C 91.66 137.44 91.50 135.06 91.33 132.70 C 85.54 132.49 78.75 131.99 74.74 127.23 C 71.41 122.41 71.01 116.09 71.61 110.44 C 73.55 106.79 78.72 108.77 82.07 108.30 C 90.29 107.53 83.46 120.09 91.49 120.65 C 91.62 114.09 91.74 107.52 91.41 100.96 C 85.71 99.72 79.74 98.50 74.90 95.08 C 70.61 91.85 70.39 85.93 70.17 81.03 C 70.09 74.92 69.90 68.00 74.02 63.00 C 78.55 58.39 85.53 58.37 91.54 57.91 C 91.59 55.66 91.73 53.42 92.04 51.20 M 91.52 86.74 C 91.65 81.22 91.63 75.69 91.49 70.17 C 82.82 70.44 83.15 85.96 91.52 86.74 M 100.21 103.00 C 100.04 108.85 100.12 114.71 100.10 120.57 C 109.19 120.50 108.69 104.11 100.21 103.00 Z" />
<path fill="#8d8079" opacity="1.00" d=" M 16.39 101.55 C 19.41 101.34 24.88 100.03 25.51 104.31 C 27.23 116.64 31.87 128.59 39.53 138.45 C 44.19 142.63 34.36 152.03 31.00 146.04 C 21.95 134.47 16.17 120.38 14.41 105.80 C 14.08 104.17 14.48 101.95 16.39 101.55 Z" />
<path fill="#8d8079" opacity="1.00" d=" M 168.40 101.54 C 171.49 101.17 177.59 100.10 177.60 104.77 C 176.14 119.72 170.13 134.15 160.95 146.00 C 157.61 152.01 147.82 142.65 152.41 138.44 C 159.41 129.27 164.14 118.40 165.88 106.99 C 166.37 105.11 166.13 102.28 168.40 101.54 Z" />
<path fill="#8d8079" opacity="1.00" d=" M 48.37 151.26 C 50.60 149.44 52.87 152.16 54.74 153.26 C 64.57 160.74 76.62 164.40 88.62 166.50 C 91.55 169.50 91.13 179.14 84.98 177.13 C 70.24 175.06 55.87 169.12 44.44 159.53 C 41.48 156.43 46.16 153.15 48.37 151.26 Z" />
<path fill="#8d8079" opacity="1.00" d=" M 140.27 151.11 C 144.37 149.49 151.68 157.29 146.50 160.48 C 134.08 170.04 118.77 176.62 103.02 177.20 C 99.86 174.65 99.63 165.92 105.05 165.91 C 117.91 164.37 129.99 158.88 140.27 151.11 Z" />
</g>
</svg>
