<?xml version="1.0" encoding="UTF-8" ?>
<!DOCTYPE svg PUBLIC "-//W3C//DTD SVG 1.1//EN" "http://www.w3.org/Graphics/SVG/1.1/DTD/svg11.dtd">
<svg width="192pt" height="192pt" viewBox="0 0 192 192" version="1.1" xmlns="http://www.w3.org/2000/svg">
<g id="#c5605bff">
<path fill="#c5605b" opacity="1.00" d=" M 41.45 21.70 C 49.15 21.26 56.91 21.28 64.60 21.64 C 69.75 22.72 69.93 30.76 64.95 32.25 C 57.71 32.90 50.41 32.17 43.16 32.59 C 37.18 33.31 32.32 39.00 32.51 45.01 C 32.50 79.00 32.45 113.00 32.54 146.98 C 32.52 153.54 38.45 159.16 44.93 159.10 C 78.64 159.14 112.34 159.10 146.04 159.09 C 153.18 159.52 159.57 153.16 159.17 146.02 C 159.85 141.49 157.23 134.90 162.22 132.18 C 166.56 129.86 171.25 134.55 170.23 139.00 C 171.27 149.16 168.80 160.82 159.40 166.41 C 155.17 169.24 150.01 170.27 144.99 170.28 C 112.33 170.26 79.67 170.26 47.01 170.27 C 34.28 171.24 21.89 160.94 21.54 147.99 C 21.45 113.64 21.54 79.29 21.51 44.95 C 21.25 33.67 30.30 23.21 41.45 21.70 Z" />
<path fill="#c5605b" opacity="1.00" d=" M 90.42 21.62 C 109.25 20.88 128.19 21.45 147.07 21.32 C 159.18 21.24 170.12 31.88 170.21 44.02 C 170.28 64.69 170.27 85.36 170.22 106.03 C 170.53 110.38 165.77 111.69 163.33 114.32 C 160.03 117.73 156.81 121.41 152.37 123.37 C 146.68 126.65 139.62 125.56 133.98 128.96 C 127.53 131.93 124.28 139.00 117.77 141.87 C 111.92 145.38 104.60 144.27 98.75 147.80 C 84.47 155.65 65.24 152.85 54.01 140.98 C 42.49 129.70 40.00 110.78 47.75 96.72 C 50.80 91.75 50.34 85.69 52.47 80.40 C 55.72 71.00 66.63 66.82 68.65 56.70 C 69.68 48.60 72.20 40.11 78.91 34.87 C 83.88 31.40 83.97 23.25 90.42 21.62 M 95.27 32.52 C 82.69 55.24 70.55 78.22 58.22 101.08 C 52.83 110.23 53.37 122.61 60.12 130.92 C 67.53 140.74 82.21 143.88 93.02 138.03 C 115.05 126.38 136.99 114.57 158.95 102.80 C 158.97 83.51 158.97 64.23 158.95 44.94 C 159.24 38.46 153.44 32.55 146.98 32.61 C 129.74 32.52 112.51 32.69 95.27 32.52 Z" />
<path fill="#c5605b" opacity="1.00" d=" M 86.11 77.15 C 99.66 66.97 113.03 56.53 126.75 46.57 C 127.86 48.78 128.97 50.98 130.09 53.17 C 133.00 53.38 135.89 53.68 138.79 53.99 C 139.24 56.88 139.77 59.75 140.30 62.62 C 142.55 63.50 144.80 64.38 147.05 65.27 C 136.85 81.88 126.17 98.21 115.64 114.61 C 108.20 126.08 91.04 129.35 80.20 120.80 C 71.10 114.16 67.96 100.96 72.77 90.83 C 75.34 84.74 81.14 81.12 86.11 77.15 M 85.22 88.23 C 77.26 93.81 76.63 106.68 83.92 113.07 C 90.93 119.95 103.83 118.35 108.85 109.87 C 116.85 97.02 125.53 84.57 133.16 71.51 C 130.15 71.00 127.09 70.74 124.12 70.02 C 122.62 67.24 122.59 63.88 121.68 60.87 C 109.29 69.66 97.38 79.13 85.22 88.23 Z" />
<path fill="#c5605b" opacity="1.00" d=" M 94.40 94.41 C 99.06 93.35 103.24 98.77 101.13 103.03 C 99.56 107.24 93.17 107.98 90.59 104.35 C 87.69 100.92 89.93 95.02 94.40 94.41 Z" />
</g>
</svg>
