<?xml version="1.0" encoding="UTF-8" ?>
<!DOCTYPE svg PUBLIC "-//W3C//DTD SVG 1.1//EN" "http://www.w3.org/Graphics/SVG/1.1/DTD/svg11.dtd">
<svg width="192pt" height="192pt" viewBox="0 0 192 192" version="1.1" xmlns="http://www.w3.org/2000/svg">
<g id="#ff3661ff">
<path fill="#ff3661" opacity="1.00" d=" M 85.36 27.47 C 93.41 24.51 103.84 29.30 104.52 38.42 C 105.09 53.17 91.46 66.47 77.00 67.18 C 69.72 67.61 62.98 61.34 63.20 53.99 C 63.51 41.50 73.62 30.71 85.36 27.47 M 74.97 55.88 C 84.25 56.26 93.92 47.62 93.07 38.11 C 83.80 37.32 73.27 46.27 74.97 55.88 Z" />
<path fill="#ff3661" opacity="1.00" d=" M 112.36 48.46 C 118.22 46.69 126.51 48.33 128.25 55.06 C 130.95 69.80 109.46 83.50 98.00 73.01 C 91.23 62.82 102.30 50.70 112.36 48.46 Z" />
<path fill="#ff3661" opacity="1.00" d=" M 138.28 64.31 C 142.91 62.70 148.99 65.74 148.95 71.03 C 148.81 78.73 141.45 85.18 133.98 85.57 C 129.82 85.89 126.08 82.16 126.28 78.02 C 126.42 71.38 132.24 66.08 138.28 64.31 Z" />
<path fill="#ff3661" opacity="1.00" d=" M 156.28 74.31 C 159.34 73.29 163.55 73.73 165.13 76.93 C 168.66 85.61 155.85 95.68 148.61 89.37 C 144.39 83.58 150.46 76.04 156.28 74.31 Z" />
<path fill="#ff3661" opacity="1.00" d=" M 52.32 76.35 C 60.82 73.16 72.64 77.95 72.76 88.01 C 72.52 103.01 57.27 115.46 42.63 114.54 C 35.30 114.31 29.09 107.40 30.17 100.03 C 31.59 88.50 41.52 79.43 52.32 76.35 M 41.23 102.63 C 50.54 105.32 60.63 96.93 61.78 87.72 C 52.69 84.60 41.97 93.38 41.23 102.63 Z" />
<path fill="#ff3661" opacity="1.00" d=" M 90.33 83.41 C 96.86 81.37 105.31 85.54 105.33 92.98 C 105.04 104.35 94.18 114.15 82.97 114.15 C 76.82 114.22 71.81 108.43 72.39 102.39 C 73.31 92.99 81.59 85.76 90.33 83.41 Z" />
<path fill="#ff3661" opacity="1.00" d=" M 170.30 85.30 C 172.57 84.36 175.59 85.15 176.46 87.61 C 178.04 93.14 170.90 98.81 165.89 96.13 C 161.60 92.65 166.06 86.38 170.30 85.30 Z" />
<path fill="#ff3661" opacity="1.00" d=" M 119.29 92.31 C 123.71 90.77 129.75 92.84 130.35 97.99 C 130.88 106.18 122.93 113.34 114.99 113.31 C 111.09 113.32 107.41 110.03 107.57 106.02 C 107.88 99.53 113.25 94.08 119.29 92.31 Z" />
<path fill="#ff3661" opacity="1.00" d=" M 142.34 98.45 C 145.79 97.06 150.40 98.68 151.40 102.47 C 153.13 110.89 141.24 119.63 134.30 113.66 C 130.15 107.65 136.42 100.19 142.34 98.45 Z" />
<path fill="#ff3661" opacity="1.00" d=" M 157.43 102.49 C 159.83 101.09 163.68 101.29 164.93 104.12 C 166.66 109.62 159.38 115.67 154.35 112.80 C 150.52 109.73 153.85 104.15 157.43 102.49 Z" />
<path fill="#ff3661" opacity="1.00" d=" M 135.38 119.49 C 138.58 118.23 142.90 119.78 143.55 123.41 C 144.63 130.67 134.93 137.90 128.60 133.48 C 123.96 128.31 129.83 120.87 135.38 119.49 Z" />
<path fill="#ff3661" opacity="1.00" d=" M 152.36 119.47 C 154.81 118.29 158.39 118.78 159.38 121.64 C 160.82 127.24 153.28 132.97 148.36 129.76 C 144.76 126.34 148.74 121.00 152.36 119.47 Z" />
<path fill="#ff3661" opacity="1.00" d=" M 73.33 121.41 C 79.24 119.34 86.96 122.67 87.64 129.36 C 88.93 142.56 71.15 155.84 59.73 147.27 C 51.64 137.36 62.99 123.79 73.33 121.41 Z" />
<path fill="#ff3661" opacity="1.00" d=" M 107.33 121.33 C 111.84 119.05 118.66 120.92 119.51 126.42 C 120.39 133.28 114.57 139.32 108.46 141.43 C 104.07 143.27 97.69 141.14 96.95 136.00 C 96.16 129.39 101.57 123.66 107.33 121.33 Z" />
<path fill="#ff3661" opacity="1.00" d=" M 33.31 124.37 C 41.29 121.61 52.48 124.63 54.01 134.00 C 55.35 152.42 27.91 168.41 14.43 153.57 C 7.46 140.83 21.34 127.15 33.31 124.37 M 23.30 147.11 C 31.56 150.65 41.30 143.52 43.09 135.28 C 34.77 133.26 25.78 139.09 23.30 147.11 Z" />
</g>
</svg>
