<?xml version="1.0" encoding="UTF-8" ?>
<!DOCTYPE svg PUBLIC "-//W3C//DTD SVG 1.1//EN" "http://www.w3.org/Graphics/SVG/1.1/DTD/svg11.dtd">
<svg width="192pt" height="192pt" viewBox="0 0 192 192" version="1.1" xmlns="http://www.w3.org/2000/svg">
<g id="#ff3661ff">
<path fill="#ff3661" opacity="1.00" d=" M 63.57 17.67 C 68.21 14.67 74.06 20.63 71.24 25.27 C 67.16 30.42 61.49 34.21 57.52 39.38 C 57.27 45.69 57.47 52.02 57.46 58.34 C 62.93 62.04 68.45 65.67 73.95 69.34 C 71.17 76.71 76.99 83.92 73.69 90.94 C 66.48 91.54 59.23 91.02 52.00 91.22 C 48.89 91.13 45.20 91.77 42.84 89.23 C 34.93 81.78 27.13 74.21 19.27 66.71 C 16.62 64.59 17.31 60.96 17.22 58.00 C 17.40 48.77 16.97 39.52 17.42 30.32 C 18.44 24.97 26.86 24.79 28.17 30.06 C 28.84 39.89 28.12 49.79 28.50 59.63 C 34.97 66.78 42.44 73.04 49.24 79.90 C 55.98 80.02 62.71 79.98 69.44 79.83 C 62.99 75.50 56.51 71.21 50.03 66.91 C 48.29 65.73 46.30 64.25 46.28 61.92 C 46.01 54.95 46.29 47.97 46.16 41.00 C 46.23 38.02 45.61 34.40 48.27 32.28 C 53.41 27.46 58.19 22.21 63.57 17.67 Z" />
<path fill="#ff3661" opacity="1.00" d=" M 119.38 24.67 C 116.93 19.72 123.77 14.42 127.91 18.11 C 133.44 23.54 139.58 28.55 144.34 34.64 C 145.28 41.69 144.46 48.89 144.76 56.00 C 144.54 59.22 145.66 63.40 142.60 65.63 C 135.70 70.54 128.48 75.02 121.49 79.81 C 128.25 79.93 135.01 80.04 141.76 79.91 C 148.58 73.06 156.04 66.77 162.55 59.65 C 162.93 49.80 162.21 39.89 162.88 30.06 C 164.15 24.77 172.59 24.96 173.63 30.29 C 174.13 40.85 173.75 51.46 173.82 62.04 C 174.13 65.01 171.67 66.94 169.76 68.76 C 162.46 75.48 155.45 82.51 148.20 89.28 C 146.09 91.57 142.80 91.20 139.99 91.22 C 132.43 91.07 124.85 91.44 117.29 91.01 C 113.84 83.98 119.78 76.70 116.93 69.29 C 122.46 65.65 127.96 61.97 133.48 58.30 C 133.47 52.00 133.67 45.69 133.41 39.40 C 129.27 34.04 123.29 30.23 119.38 24.67 Z" />
<path fill="#ff3661" opacity="1.00" d=" M 83.39 66.42 C 88.44 59.55 99.36 58.56 105.58 64.39 C 111.59 69.43 112.46 79.14 107.54 85.24 C 111.90 91.65 110.74 99.57 110.62 106.87 C 109.84 115.20 101.18 121.63 92.97 120.03 C 85.82 119.00 80.09 112.28 80.15 105.07 C 80.24 98.57 78.96 91.25 83.36 85.76 C 79.50 80.04 78.78 71.95 83.39 66.42 Z" />
<path fill="#ff3661" opacity="1.00" d=" M 40.73 101.73 C 42.51 100.13 44.28 97.92 46.93 98.05 C 55.68 97.93 64.43 98.03 73.18 98.02 C 73.00 104.88 73.21 112.08 77.27 117.94 C 70.71 122.46 63.97 126.73 57.41 131.26 C 57.45 136.36 57.40 141.47 57.44 146.58 C 63.52 152.82 70.10 158.60 75.96 165.03 C 79.19 169.62 73.01 175.93 68.37 172.75 C 62.08 167.38 56.53 161.17 50.48 155.53 C 48.72 153.66 46.13 151.91 46.22 149.03 C 46.13 142.01 46.12 134.98 46.23 127.96 C 46.13 125.61 47.92 123.89 49.76 122.76 C 56.57 118.28 63.33 113.73 70.10 109.21 C 63.14 109.29 56.18 109.25 49.22 109.24 C 42.16 115.82 35.25 122.56 28.30 129.26 C 28.15 139.15 28.69 149.09 28.04 158.95 C 26.89 164.34 18.38 164.31 17.27 158.91 C 16.70 149.63 17.23 140.30 17.02 131.00 C 17.14 128.25 16.45 124.90 18.77 122.82 C 26.00 115.70 33.44 108.80 40.73 101.73 Z" />
<path fill="#ff3661" opacity="1.00" d=" M 117.47 98.09 C 126.00 97.89 134.54 98.04 143.07 97.99 C 144.94 97.88 146.79 98.48 148.10 99.84 C 155.52 106.77 162.77 113.88 170.16 120.83 C 171.88 122.50 174.05 124.30 173.82 126.97 C 173.79 137.55 174.10 148.17 173.67 158.74 C 172.82 164.30 164.00 164.42 162.85 158.95 C 162.31 149.10 162.79 139.19 162.62 129.31 C 155.74 122.54 148.71 115.91 141.70 109.27 C 134.71 109.24 127.72 109.27 120.72 109.24 C 127.66 114.00 134.72 118.59 141.69 123.29 C 146.50 126.54 143.97 133.17 144.59 138.00 C 143.94 143.26 146.51 149.94 141.93 153.92 C 135.45 160.10 129.29 166.66 122.57 172.59 C 117.90 176.23 111.27 169.45 114.90 164.83 C 120.64 158.54 127.16 152.98 132.97 146.75 C 133.85 141.67 133.11 136.34 133.29 131.15 C 126.66 126.76 120.00 122.41 113.45 117.89 C 117.45 112.08 117.89 104.91 117.47 98.09 Z" />
</g>
</svg>
