<?xml version="1.0" encoding="UTF-8" ?>
<!DOCTYPE svg PUBLIC "-//W3C//DTD SVG 1.1//EN" "http://www.w3.org/Graphics/SVG/1.1/DTD/svg11.dtd">
<svg width="192pt" height="192pt" viewBox="0 0 192 192" version="1.1" xmlns="http://www.w3.org/2000/svg">
<g id="#ee7992ff">
<path fill="#ee7992" opacity="1.00" d=" M 84.20 11.13 C 90.86 9.02 94.49 19.81 87.85 21.95 C 71.92 23.89 56.40 30.52 44.93 41.93 C 28.22 57.92 20.42 82.30 24.33 105.06 C 25.59 111.50 15.31 113.83 13.48 107.66 C 9.09 85.68 14.72 61.99 28.02 43.99 C 41.19 25.94 62.01 13.78 84.20 11.13 Z" />
<path fill="#ee7992" opacity="1.00" d=" M 100.54 13.54 C 106.70 7.59 119.67 13.00 118.42 21.98 C 119.10 27.91 117.81 36.66 110.88 38.06 C 112.79 47.31 117.64 56.53 113.65 66.08 C 120.17 66.07 121.75 59.24 125.33 55.14 C 133.22 54.97 134.24 70.00 126.00 69.60 C 114.05 69.54 103.24 81.22 104.78 93.07 C 114.16 101.76 126.48 110.28 128.19 124.01 C 128.32 134.84 128.99 145.68 130.52 156.42 C 130.95 160.06 134.26 162.29 137.35 163.63 C 142.11 165.93 147.69 163.26 152.36 166.01 C 150.81 170.61 145.98 174.13 141.05 173.69 C 135.30 172.86 128.75 180.00 124.18 173.84 C 126.27 159.61 115.90 147.92 115.16 134.09 C 114.92 130.58 115.03 126.47 111.92 124.10 C 106.05 119.03 100.22 113.86 93.92 109.34 C 88.86 113.71 87.47 120.91 82.68 125.64 C 79.29 130.88 72.00 132.58 66.60 129.51 C 53.50 123.13 36.40 120.13 24.36 130.35 C 22.19 132.21 17.74 137.36 15.66 132.97 C 18.16 127.17 21.56 121.80 24.02 115.99 C 25.37 113.08 28.87 114.27 31.33 114.58 C 39.68 116.32 47.79 112.83 55.98 111.87 C 60.94 111.26 64.73 114.88 69.04 116.55 C 72.13 114.49 72.61 110.12 74.27 106.96 C 72.26 99.56 73.90 90.20 80.27 85.28 C 82.82 83.29 85.87 79.83 83.53 76.53 C 77.15 66.95 65.40 62.23 59.81 52.00 C 58.61 49.67 60.76 47.46 62.97 47.00 C 74.42 43.05 86.89 41.18 97.01 34.12 C 99.28 32.22 97.63 29.20 97.15 26.87 C 95.60 22.24 97.15 16.95 100.54 13.54 M 72.87 52.02 C 74.44 58.32 79.40 63.29 84.78 66.62 C 85.94 61.63 87.55 56.43 85.46 51.43 C 81.26 51.28 77.02 51.29 72.87 52.02 Z" />
<path fill="#ee7992" opacity="1.00" d=" M 126.26 19.25 C 127.69 18.58 129.41 18.54 130.87 19.16 C 158.50 32.45 177.05 62.32 176.64 93.01 C 176.75 116.36 166.31 139.50 148.67 154.81 C 145.72 157.84 139.95 156.02 139.21 151.87 C 138.34 148.91 140.67 146.49 142.68 144.69 C 157.98 130.73 166.35 109.69 165.11 89.04 C 164.13 64.14 148.60 40.74 126.42 29.57 C 122.09 27.83 121.98 21.09 126.26 19.25 Z" />
<path fill="#ee7992" opacity="1.00" d=" M 34.35 137.44 C 38.11 135.65 41.13 139.12 43.35 141.65 C 59.74 159.32 85.50 166.98 109.00 162.13 C 115.13 161.14 117.57 170.86 111.77 172.96 C 82.97 179.85 50.87 168.75 32.00 146.02 C 29.79 143.26 31.03 138.67 34.35 137.44 Z" />
</g>
</svg>
