<?xml version="1.0" encoding="UTF-8" ?>
<!DOCTYPE svg PUBLIC "-//W3C//DTD SVG 1.1//EN" "http://www.w3.org/Graphics/SVG/1.1/DTD/svg11.dtd">
<svg width="192pt" height="192pt" viewBox="0 0 192 192" version="1.1" xmlns="http://www.w3.org/2000/svg">
<g id="#30a4ecff">
<path fill="#30a4ec" opacity="1.00" d=" M 58.65 35.55 C 66.05 29.80 71.23 18.51 82.00 19.43 C 92.62 19.64 103.34 18.83 113.89 19.95 C 121.14 23.19 125.46 30.53 131.50 35.47 C 138.38 33.20 142.54 43.20 136.47 46.49 C 124.47 49.69 118.58 36.78 110.47 30.82 C 100.42 30.51 90.32 30.64 80.27 30.74 C 73.27 34.82 69.39 43.73 61.41 46.42 C 50.98 47.37 40.45 46.27 30.01 46.96 C 26.68 47.34 24.50 50.77 24.73 53.96 C 24.51 83.93 24.88 113.91 24.56 143.86 C 23.95 150.41 13.18 149.61 13.49 143.02 C 13.39 113.00 13.39 82.97 13.52 52.95 C 13.47 44.10 21.07 35.88 30.00 35.65 C 39.55 35.43 49.10 35.56 58.65 35.55 Z" />
<path fill="#30a4ec" opacity="1.00" d=" M 145.28 29.98 C 144.90 25.64 150.39 22.43 153.93 25.06 C 157.46 27.40 156.36 32.13 156.58 35.72 C 166.95 34.72 176.83 43.46 176.79 53.93 C 176.79 83.91 177.02 113.92 176.70 143.89 C 176.00 150.41 165.21 149.66 165.57 143.01 C 165.43 113.66 165.57 84.29 165.52 54.94 C 165.88 50.80 162.32 46.76 158.07 47.13 C 154.00 46.64 148.19 48.69 145.71 44.31 C 144.72 39.64 145.40 34.74 145.28 29.98 Z" />
<path fill="#30a4ec" opacity="1.00" d=" M 88.38 64.49 C 104.05 61.42 120.95 69.56 128.46 83.61 C 136.21 97.13 134.31 115.32 123.92 126.94 C 114.87 137.62 99.64 142.60 86.07 139.04 C 71.08 135.57 59.10 122.16 57.32 106.87 C 54.38 87.43 68.97 67.55 88.38 64.49 M 90.41 75.57 C 77.96 77.61 68.05 89.37 68.29 102.00 C 68.03 114.71 78.07 126.57 90.63 128.46 C 106.35 131.67 122.43 117.99 121.95 102.00 C 122.41 85.92 106.20 72.25 90.41 75.57 Z" />
<path fill="#30a4ec" opacity="1.00" d=" M 17.23 159.32 C 22.38 158.91 27.61 158.94 32.77 159.28 C 37.72 160.56 37.82 168.41 32.88 169.81 C 27.75 170.52 22.36 170.55 17.23 169.79 C 12.32 168.46 12.35 160.66 17.23 159.32 Z" />
<path fill="#30a4ec" opacity="1.00" d=" M 52.24 159.33 C 57.15 158.87 62.13 159.09 67.05 159.21 C 71.19 159.52 73.13 165.32 70.23 168.21 C 67.65 171.04 63.40 170.05 60.00 170.27 C 56.65 170.05 52.39 171.05 49.90 168.17 C 47.23 165.49 48.68 160.39 52.24 159.33 Z" />
<path fill="#30a4ec" opacity="1.00" d=" M 87.34 159.48 C 92.49 159.06 97.71 159.12 102.87 159.37 C 107.54 160.47 108.04 167.71 103.63 169.54 C 98.60 170.99 93.23 170.06 88.10 169.67 C 83.00 169.44 82.72 160.77 87.34 159.48 Z" />
<path fill="#30a4ec" opacity="1.00" d=" M 122.42 159.53 C 127.54 159.06 132.73 159.23 137.87 159.40 C 142.61 160.31 143.18 167.90 138.63 169.52 C 133.23 169.90 127.76 169.86 122.36 169.52 C 118.03 168.08 118.25 161.15 122.42 159.53 Z" />
<path fill="#30a4ec" opacity="1.00" d=" M 157.45 159.56 C 162.55 159.01 167.75 159.27 172.88 159.38 C 178.14 159.93 178.28 169.39 172.87 169.66 C 167.72 169.74 162.53 169.95 157.40 169.51 C 153.25 167.75 153.33 161.33 157.45 159.56 Z" />
</g>
</svg>
