<?xml version="1.0" encoding="UTF-8" ?>
<!DOCTYPE svg PUBLIC "-//W3C//DTD SVG 1.1//EN" "http://www.w3.org/Graphics/SVG/1.1/DTD/svg11.dtd">
<svg width="192pt" height="192pt" viewBox="0 0 192 192" version="1.1" xmlns="http://www.w3.org/2000/svg">
<g id="#1ab4c5ff">
<path fill="#1ab4c5" opacity="1.00" d=" M 85.55 19.59 C 88.53 10.77 102.54 10.52 105.82 19.24 C 118.01 51.21 131.78 82.58 143.12 114.88 C 145.34 119.73 143.02 126.20 137.68 127.68 C 127.02 130.85 124.41 143.30 123.99 153.00 C 124.04 155.11 122.62 159.77 125.97 159.64 C 156.82 146.07 173.78 108.31 163.90 76.12 C 158.11 55.04 141.96 37.29 121.65 29.29 C 115.33 27.34 118.15 16.87 124.61 18.53 C 152.04 28.35 172.77 54.15 176.93 82.94 C 183.60 121.14 159.18 162.02 122.01 173.40 C 115.68 174.49 111.13 167.79 112.33 162.01 C 112.16 145.62 114.67 124.60 132.06 117.57 C 122.87 91.43 112.26 65.81 101.71 40.20 C 101.37 53.89 101.79 67.59 101.50 81.28 C 106.15 84.79 109.01 91.34 105.87 96.79 C 102.57 103.76 91.94 104.85 87.32 98.67 C 82.72 93.44 84.78 85.14 90.35 81.48 C 90.33 67.27 90.37 53.06 90.32 38.85 C 80.28 65.12 69.63 91.17 60.44 117.76 C 67.47 122.16 74.04 128.02 76.98 135.98 C 80.26 145.27 79.96 155.32 79.81 165.03 C 80.00 170.06 74.97 174.46 70.00 173.46 C 37.58 163.38 14.18 130.87 14.08 97.01 C 12.95 63.24 35.10 29.99 67.03 18.68 C 73.52 17.40 75.96 27.79 69.59 29.55 C 39.84 41.18 20.74 74.39 26.05 105.97 C 29.28 128.87 44.49 149.71 65.43 159.56 C 66.53 160.41 68.13 160.00 68.58 158.66 C 69.26 147.81 67.50 134.83 56.95 129.08 C 51.12 126.76 47.58 119.91 49.88 113.91 C 60.87 82.14 73.88 51.11 85.55 19.59 Z" />
<path fill="#1ab4c5" opacity="1.00" d=" M 94.40 140.49 C 97.88 139.41 101.71 142.36 101.50 146.00 C 101.52 154.95 101.74 163.91 101.45 172.84 C 100.95 178.55 91.92 179.11 90.64 173.55 C 90.04 164.71 90.61 155.81 90.43 146.95 C 90.14 144.22 91.59 141.20 94.40 140.49 Z" />
</g>
</svg>
