<?xml version="1.0" encoding="UTF-8" ?>
<!DOCTYPE svg PUBLIC "-//W3C//DTD SVG 1.1//EN" "http://www.w3.org/Graphics/SVG/1.1/DTD/svg11.dtd">
<svg width="192pt" height="192pt" viewBox="0 0 192 192" version="1.1" xmlns="http://www.w3.org/2000/svg">
<g id="#88b095ff">
<path fill="#88b095" opacity="1.00" d=" M 89.09 31.94 C 86.63 28.47 88.40 22.45 93.04 22.20 C 109.71 22.04 126.39 22.11 143.07 22.04 C 145.41 21.87 147.74 23.01 148.83 25.13 C 157.59 40.08 166.69 54.84 175.20 69.93 C 176.79 72.90 179.17 76.60 176.95 79.89 C 167.93 94.21 158.88 108.52 149.80 122.81 C 148.65 124.91 146.29 125.80 143.99 125.63 C 128.32 125.67 112.66 125.54 97.00 125.53 C 91.18 126.00 87.92 118.50 91.17 114.06 C 105.90 89.08 120.06 63.76 134.44 38.58 C 135.51 37.01 135.03 35.09 134.92 33.34 C 124.32 33.40 113.72 33.36 103.12 33.34 C 105.77 38.25 108.99 42.87 111.17 48.01 C 112.70 53.52 104.61 57.25 101.34 52.67 C 97.00 45.93 93.21 38.83 89.09 31.94 M 104.18 114.29 C 116.74 114.33 129.29 114.34 141.85 114.26 C 149.78 101.57 157.82 88.95 165.75 76.26 C 159.32 64.67 152.40 53.36 145.68 41.94 C 131.63 65.92 118.23 90.30 104.18 114.29 Z" />
<path fill="#88b095" opacity="1.00" d=" M 43.02 67.01 C 44.18 64.86 46.56 63.82 48.94 64.05 C 64.65 64.09 80.37 63.92 96.09 64.08 C 101.52 63.77 104.92 70.63 102.03 75.02 C 87.22 100.30 72.82 125.84 58.33 151.31 C 57.52 152.80 57.89 154.56 57.80 156.18 C 68.42 156.34 79.04 156.17 89.66 156.12 C 87.08 151.05 83.44 146.43 81.64 141.01 C 80.72 135.47 88.92 132.43 91.84 137.15 C 96.16 144.20 100.31 151.38 104.39 158.57 C 106.65 162.32 103.48 167.96 98.99 167.52 C 82.33 167.50 65.66 167.53 49.00 167.52 C 46.12 167.71 44.34 165.18 43.12 162.95 C 34.68 148.39 25.83 134.07 17.60 119.38 C 15.92 116.39 13.79 112.51 16.26 109.31 C 25.24 95.25 34.06 81.08 43.02 67.01 M 51.17 75.27 C 43.00 87.78 35.25 100.56 27.12 113.10 C 33.61 124.65 39.94 136.56 47.63 147.27 C 61.28 123.25 74.87 99.19 88.75 75.29 C 76.23 75.32 63.70 75.35 51.17 75.27 Z" />
</g>
</svg>
