<?xml version="1.0" encoding="UTF-8" ?>
<!DOCTYPE svg PUBLIC "-//W3C//DTD SVG 1.1//EN" "http://www.w3.org/Graphics/SVG/1.1/DTD/svg11.dtd">
<svg width="192pt" height="192pt" viewBox="0 0 192 192" version="1.1" xmlns="http://www.w3.org/2000/svg">
<g id="#606f80ff">
<path fill="#606f80" opacity="1.00" d=" M 39.30 21.37 C 43.14 20.52 47.10 20.74 51.00 20.72 C 83.00 20.77 114.99 20.69 146.99 20.75 C 158.61 20.59 169.22 30.39 170.07 41.96 C 170.33 48.28 170.52 54.66 170.01 60.97 C 169.26 66.34 160.95 66.86 159.40 61.73 C 158.26 55.26 159.61 48.60 158.74 42.08 C 157.92 36.55 152.71 31.90 147.04 32.16 C 113.35 32.19 79.67 31.70 45.98 31.86 C 40.03 31.51 33.98 35.49 32.77 41.47 C 31.73 48.22 33.28 55.16 31.98 61.87 C 30.41 66.60 22.86 66.39 21.58 61.58 C 20.81 55.75 21.35 49.81 21.27 43.94 C 21.15 33.44 29.07 23.61 39.30 21.37 Z" />
<path fill="#606f80" opacity="1.00" d=" M 23.68 76.63 C 29.33 73.38 36.55 74.20 42.72 75.32 C 48.13 76.69 48.08 83.19 47.74 87.64 C 45.17 87.58 42.59 87.51 40.02 87.40 C 40.28 83.55 38.35 80.00 33.99 81.19 C 29.39 80.11 28.55 85.01 29.71 88.33 C 35.04 91.94 42.98 90.47 47.35 95.62 C 49.24 100.90 49.99 108.38 45.65 112.65 C 40.07 115.47 33.24 114.78 27.26 113.79 C 21.71 112.66 21.68 106.07 21.64 101.60 C 24.21 101.47 26.78 101.39 29.36 101.31 C 28.52 107.80 35.20 109.50 39.97 106.85 C 40.41 104.52 40.95 101.70 39.38 99.67 C 33.92 96.85 26.31 97.83 22.23 92.72 C 20.53 87.68 19.95 80.90 23.68 76.63 Z" />
<path fill="#606f80" opacity="1.00" d=" M 51.07 75.18 C 60.33 74.85 69.61 74.80 78.87 75.21 C 78.89 77.41 78.90 79.62 78.90 81.82 C 75.66 82.13 72.41 82.20 69.16 82.20 C 69.07 92.76 69.56 103.35 68.86 113.89 C 66.33 114.06 63.73 114.40 61.26 113.66 C 60.15 103.25 61.15 92.68 60.75 82.21 C 57.53 82.19 54.31 82.12 51.10 81.84 C 51.08 79.62 51.07 77.40 51.07 75.18 Z" />
<path fill="#606f80" opacity="1.00" d=" M 87.58 75.57 C 91.18 74.81 97.73 73.31 98.67 78.33 C 102.10 90.14 106.10 101.81 109.00 113.77 C 106.35 113.78 103.10 115.09 100.85 113.22 C 99.85 111.19 99.35 108.96 98.69 106.81 C 94.84 106.78 90.97 106.50 87.13 106.89 C 85.80 108.87 85.54 111.36 84.47 113.48 C 81.86 114.84 78.82 113.88 76.06 113.68 C 79.44 100.87 83.11 88.03 87.58 75.57 M 92.71 84.83 C 91.26 89.93 89.87 95.06 88.44 100.17 C 91.28 100.18 94.13 100.19 96.98 100.19 C 95.63 95.05 94.19 89.93 92.71 84.83 Z" />
<path fill="#606f80" opacity="1.00" d=" M 112.82 75.15 C 121.19 75.79 131.69 72.33 138.48 78.56 C 141.50 85.82 142.47 97.23 134.71 101.97 C 136.50 105.79 138.37 109.56 140.10 113.40 C 137.55 113.88 134.81 114.79 132.29 113.74 C 129.56 110.44 128.47 106.12 126.55 102.34 C 124.76 102.31 122.97 102.28 121.18 102.24 C 121.17 106.12 121.06 110.00 120.72 113.86 C 117.91 113.84 112.17 115.63 112.65 111.05 C 112.65 99.09 112.43 87.11 112.82 75.15 M 121.13 82.11 C 121.13 86.46 121.11 90.80 121.11 95.15 C 124.39 94.89 128.14 95.85 131.08 94.06 C 132.65 90.90 132.33 86.91 131.34 83.61 C 128.77 81.03 124.43 82.59 121.13 82.11 Z" />
<path fill="#606f80" opacity="1.00" d=" M 144.72 75.13 C 153.27 74.86 161.84 74.87 170.39 75.12 C 170.48 77.89 171.11 80.94 169.42 83.40 C 164.64 91.27 159.60 98.98 154.74 106.80 C 159.99 107.25 165.40 106.31 170.56 107.49 C 170.85 109.56 170.79 111.66 170.80 113.75 C 161.99 114.41 153.10 114.49 144.30 113.68 C 144.28 110.72 143.98 107.49 145.83 104.95 C 150.57 97.34 155.43 89.80 160.11 82.15 C 155.11 82.07 150.05 82.60 145.09 81.73 C 144.26 79.63 144.72 77.32 144.72 75.13 Z" />
<path fill="#606f80" opacity="1.00" d=" M 24.32 125.29 C 27.34 123.67 31.57 125.60 32.16 129.02 C 32.99 135.25 32.01 141.57 32.61 147.82 C 33.25 153.82 38.99 158.60 45.00 158.32 C 78.67 158.34 112.34 158.31 146.00 158.31 C 151.82 158.67 157.53 154.48 158.65 148.72 C 159.69 141.96 158.22 135.02 159.40 128.29 C 160.93 123.25 169.21 123.80 169.97 129.05 C 170.55 135.35 170.31 141.73 170.10 148.05 C 169.44 159.78 158.69 169.67 146.98 169.56 C 112.99 169.62 79.00 169.57 45.01 169.57 C 33.64 169.92 22.97 160.89 21.52 149.60 C 20.94 143.74 21.30 137.83 21.21 131.94 C 21.08 129.40 21.74 126.41 24.32 125.29 Z" />
</g>
</svg>
