<?xml version="1.0" encoding="UTF-8" ?>
<!DOCTYPE svg PUBLIC "-//W3C//DTD SVG 1.1//EN" "http://www.w3.org/Graphics/SVG/1.1/DTD/svg11.dtd">
<svg width="192pt" height="192pt" viewBox="0 0 192 192" version="1.1" xmlns="http://www.w3.org/2000/svg">
<g id="#a61affff">
<path fill="#a61aff" opacity="1.00" d=" M 66.32 26.19 C 65.37 20.70 68.64 14.72 74.13 13.23 C 79.75 11.27 85.86 14.80 88.09 20.07 C 105.73 25.08 123.53 29.58 141.22 34.42 C 147.34 30.26 156.74 32.79 158.90 40.14 C 161.79 48.06 153.86 56.41 145.80 54.64 C 132.83 67.35 120.05 80.30 107.24 93.18 C 108.45 99.93 103.08 107.14 96.00 106.78 C 88.45 107.16 82.54 98.48 85.60 91.58 C 87.61 86.01 94.06 83.37 99.60 84.81 C 112.18 71.82 125.73 59.58 137.63 46.04 C 137.33 45.72 136.72 45.09 136.42 44.77 C 119.60 40.29 102.82 35.66 85.97 31.33 C 82.85 34.45 78.31 35.85 74.01 34.67 C 61.32 47.15 48.80 59.81 36.18 72.36 C 36.75 76.91 36.47 81.71 33.14 85.23 C 36.94 102.40 42.13 119.37 46.56 136.43 C 50.94 137.70 54.69 140.91 55.77 145.47 C 72.37 150.34 89.21 154.55 105.94 159.03 C 109.48 155.29 115.00 154.16 119.75 156.12 C 132.26 143.76 144.71 131.33 157.09 118.84 C 155.55 113.94 156.84 108.55 160.77 105.19 C 157.15 92.10 153.11 79.11 149.62 65.99 C 148.37 59.93 157.96 57.18 160.19 62.89 C 164.43 76.41 167.98 90.17 172.16 103.72 C 176.11 106.01 179.31 110.18 178.83 114.97 C 178.69 121.30 172.51 125.98 166.41 125.57 C 153.02 138.83 139.73 152.19 126.38 165.50 C 125.69 170.16 123.58 175.20 118.71 176.78 C 112.86 179.33 106.39 175.61 103.81 170.21 C 86.60 165.53 69.36 160.87 52.10 156.39 C 48.44 158.90 43.46 159.87 39.43 157.62 C 33.92 154.88 31.73 147.20 35.12 142.01 C 36.48 140.52 35.42 138.64 35.06 137.00 C 30.46 120.60 26.53 103.98 21.58 87.70 C 16.33 85.73 12.84 79.82 14.40 74.30 C 15.62 68.77 21.32 65.38 26.78 65.77 C 40.03 52.65 53.33 39.54 66.32 26.19 Z" />
</g>
</svg>
