<?xml version="1.0" encoding="UTF-8" ?>
<!DOCTYPE svg PUBLIC "-//W3C//DTD SVG 1.1//EN" "http://www.w3.org/Graphics/SVG/1.1/DTD/svg11.dtd">
<svg width="192pt" height="192pt" viewBox="0 0 192 192" version="1.1" xmlns="http://www.w3.org/2000/svg">
<g id="#1ab1ffff">
<path fill="#1ab1ff" opacity="1.00" d=" M 52.95 21.89 C 72.51 10.34 96.95 7.63 118.63 14.37 C 144.56 22.16 165.83 43.60 173.37 69.62 C 180.17 92.29 176.58 117.80 163.69 137.66 C 148.90 161.04 121.70 176.04 93.97 175.47 C 91.19 175.42 88.72 172.82 88.80 170.04 C 88.64 152.42 88.85 134.79 88.70 117.17 C 80.37 114.95 73.19 108.51 70.84 100.11 C 67.69 90.10 71.91 78.41 80.71 72.69 C 89.76 66.36 103.02 67.38 111.00 75.02 C 118.65 81.80 121.12 93.57 116.96 102.89 C 113.95 109.95 107.49 115.18 100.13 117.13 C 100.01 132.75 100.10 148.37 100.08 164.00 C 134.87 161.86 164.72 130.84 165.38 95.97 C 167.45 62.19 141.84 29.68 108.65 23.44 C 78.37 16.74 45.19 32.65 31.32 60.33 C 20.71 80.41 20.65 105.63 31.25 125.73 C 40.24 143.41 57.01 156.62 76.04 161.95 C 82.07 163.96 79.32 174.08 73.05 172.63 C 39.19 164.25 13.21 131.90 12.18 97.03 C 10.34 66.92 26.83 36.85 52.95 21.89 M 90.34 80.43 C 84.66 82.18 80.55 88.09 81.16 94.06 C 81.41 101.38 88.75 107.43 96.00 106.31 C 103.19 105.63 108.80 98.30 107.55 91.17 C 106.63 83.33 97.80 77.73 90.34 80.43 Z" />
</g>
</svg>
