<?xml version="1.0" encoding="UTF-8" ?>
<!DOCTYPE svg PUBLIC "-//W3C//DTD SVG 1.1//EN" "http://www.w3.org/Graphics/SVG/1.1/DTD/svg11.dtd">
<svg width="192pt" height="192pt" viewBox="0 0 192 192" version="1.1" xmlns="http://www.w3.org/2000/svg">
<g id="#617080ff">
<path fill="#617080" opacity="1.00" d=" M 89.26 55.21 C 95.42 34.75 118.45 21.62 139.22 26.71 C 157.80 30.52 172.50 47.98 172.72 67.01 C 173.61 84.79 161.92 102.22 145.19 108.24 C 140.64 110.44 135.00 109.61 130.99 112.97 C 120.33 120.68 109.56 128.26 98.83 135.89 C 96.04 137.50 95.89 140.99 94.66 143.65 C 89.02 157.94 73.24 167.20 58.00 165.39 C 45.66 164.14 34.28 156.05 29.17 144.73 C 27.87 140.07 21.06 141.90 19.51 137.40 C 17.77 133.49 22.20 129.04 26.12 130.76 C 30.18 132.21 36.17 132.38 37.45 137.42 C 40.13 145.98 47.54 152.82 56.38 154.54 C 68.32 157.41 81.59 150.05 85.47 138.41 C 86.66 135.43 86.46 131.49 89.56 129.66 C 102.22 120.63 114.93 111.64 127.56 102.56 C 131.53 99.45 137.00 100.63 141.41 98.50 C 155.79 93.38 164.97 77.12 161.70 62.15 C 158.88 45.99 142.27 34.00 126.03 36.39 C 112.18 37.83 100.15 49.31 98.08 63.08 C 97.34 66.58 98.30 70.72 95.58 73.54 C 87.76 83.05 79.95 92.57 72.12 102.08 C 68.55 107.16 61.81 103.03 56.82 104.73 C 51.06 104.94 46.36 111.99 40.55 108.59 C 34.21 105.49 27.56 103.01 21.38 99.60 C 16.95 97.03 19.84 89.43 24.84 90.39 C 31.36 92.47 37.35 95.98 43.71 98.51 C 50.25 94.90 57.75 93.27 65.20 93.98 C 71.73 86.24 78.02 78.30 84.55 70.55 C 88.74 66.54 87.04 60.17 89.26 55.21 Z" />
<path fill="#617080" opacity="1.00" d=" M 125.35 48.45 C 140.31 44.27 155.24 60.82 149.34 75.25 C 144.91 89.79 123.61 93.67 114.32 81.67 C 104.21 70.85 110.81 51.10 125.35 48.45 M 125.38 57.53 C 117.08 60.59 115.61 73.10 123.00 77.97 C 129.80 83.40 141.07 78.46 141.71 69.79 C 143.13 61.25 133.22 53.73 125.38 57.53 Z" />
<path fill="#617080" opacity="1.00" d=" M 67.47 110.47 C 77.66 110.67 84.22 123.27 82.68 132.69 C 81.34 146.98 63.11 155.95 51.15 147.89 C 47.40 143.80 53.25 138.80 57.39 141.71 C 69.22 146.53 80.06 129.89 70.98 121.00 C 67.41 118.85 61.55 113.71 67.47 110.47 Z" />
</g>
</svg>
