<?xml version="1.0" encoding="UTF-8" ?>
<!DOCTYPE svg PUBLIC "-//W3C//DTD SVG 1.1//EN" "http://www.w3.org/Graphics/SVG/1.1/DTD/svg11.dtd">
<svg width="192pt" height="192pt" viewBox="0 0 192 192" version="1.1" xmlns="http://www.w3.org/2000/svg">
<g id="#46e371ff">
<path fill="#46e371" opacity="1.00" d=" M 44.42 25.56 C 66.60 25.04 88.81 25.51 111.00 25.31 C 113.64 25.39 117.00 24.83 118.77 27.35 C 121.40 30.32 119.17 35.87 115.06 35.75 C 92.38 35.98 69.67 35.68 46.98 35.88 C 40.71 35.96 35.49 41.81 35.78 48.01 C 35.77 79.67 35.77 111.33 35.79 143.00 C 35.49 149.54 41.42 155.36 47.95 154.95 C 79.66 154.96 111.37 154.99 143.08 154.94 C 149.04 155.10 154.62 150.09 154.80 144.07 C 155.08 119.03 154.68 93.98 155.00 68.94 C 155.20 62.91 165.15 62.96 165.30 69.01 C 165.53 93.99 165.37 118.98 165.38 143.97 C 165.35 155.31 155.32 165.38 143.97 165.46 C 111.66 165.53 79.34 165.50 47.03 165.47 C 35.62 165.54 25.38 155.50 25.31 144.08 C 25.24 111.70 25.26 79.31 25.31 46.93 C 25.34 36.39 33.96 26.78 44.42 25.56 Z" />
<path fill="#46e371" opacity="1.00" d=" M 139.90 36.95 C 143.27 33.52 146.64 28.81 151.99 28.89 C 159.78 28.54 165.60 38.45 160.89 44.90 C 158.85 47.11 156.91 50.08 154.18 51.23 C 149.35 46.54 144.64 41.72 139.90 36.95 Z" />
<path fill="#46e371" opacity="1.00" d=" M 87.35 89.37 C 103.99 72.70 120.73 56.12 137.28 39.37 C 142.40 44.02 147.16 49.08 152.05 53.97 C 134.92 71.20 117.80 88.45 100.48 105.48 C 93.89 109.41 86.09 110.95 78.83 113.33 C 77.66 110.34 79.91 107.46 80.54 104.60 C 82.61 99.47 83.18 93.37 87.35 89.37 Z" />
</g>
</svg>
