<?xml version="1.0" encoding="UTF-8" ?>
<!DOCTYPE svg PUBLIC "-//W3C//DTD SVG 1.1//EN" "http://www.w3.org/Graphics/SVG/1.1/DTD/svg11.dtd">
<svg width="192pt" height="192pt" viewBox="0 0 192 192" version="1.1" xmlns="http://www.w3.org/2000/svg">
<g id="#ff3663ff">
<path fill="#ff3663" opacity="1.00" d=" M 22.08 43.96 C 21.88 31.71 32.78 20.68 45.03 20.76 C 79.34 20.72 113.66 20.71 147.97 20.76 C 160.19 20.72 171.01 31.74 170.82 43.95 C 170.88 77.98 170.87 112.01 170.83 146.04 C 171.17 158.34 160.35 169.46 148.07 169.51 C 114.03 169.60 80.00 169.52 45.96 169.54 C 36.80 169.76 27.86 164.13 24.17 155.74 C 21.34 149.88 22.10 143.22 22.05 136.93 C 21.76 134.00 23.93 130.91 26.99 130.78 C 45.11 130.32 63.30 131.13 81.39 130.38 C 85.99 126.70 89.68 122.00 94.10 118.10 C 95.15 116.99 97.06 116.71 98.27 117.71 C 102.97 121.60 106.69 126.57 111.48 130.35 C 122.89 131.29 134.49 130.04 145.93 130.96 C 152.00 132.57 150.35 142.45 144.05 142.01 C 107.12 142.28 70.16 142.04 33.22 142.12 C 31.97 149.33 36.34 157.71 44.19 158.24 C 78.45 158.45 112.73 158.26 146.99 158.32 C 153.68 158.70 159.82 152.77 159.65 146.07 C 159.70 112.02 159.72 77.97 159.64 43.92 C 159.70 37.29 153.55 31.67 147.01 31.85 C 113.34 31.81 79.66 31.81 45.99 31.83 C 39.43 31.60 33.12 37.23 33.29 43.93 C 33.13 66.97 33.49 90.02 33.11 113.05 C 32.55 119.16 22.66 119.08 22.18 112.99 C 21.88 89.99 22.10 66.97 22.08 43.96 Z" />
</g>
</svg>
