<?xml version="1.0" encoding="UTF-8" ?>
<!DOCTYPE svg PUBLIC "-//W3C//DTD SVG 1.1//EN" "http://www.w3.org/Graphics/SVG/1.1/DTD/svg11.dtd">
<svg width="192pt" height="192pt" viewBox="0 0 192 192" version="1.1" xmlns="http://www.w3.org/2000/svg">
<g id="#9f5a73ff">
<path fill="#9f5a73" opacity="1.00" d=" M 74.28 17.32 C 103.41 15.99 132.77 17.14 161.99 16.73 C 168.66 16.00 175.31 21.88 174.66 28.69 C 174.65 31.11 171.87 31.47 170.01 31.35 C 136.33 31.24 102.63 31.51 68.96 31.21 C 62.76 28.09 68.93 18.41 74.28 17.32 Z" />
<path fill="#9f5a73" opacity="1.00" d=" M 69.23 35.29 C 102.76 34.44 136.46 35.09 170.05 34.96 C 175.78 35.15 174.94 42.02 174.86 46.00 C 174.68 49.94 176.19 56.74 170.62 57.45 C 137.47 57.67 104.30 57.53 71.14 57.50 C 65.62 57.47 65.98 50.88 66.21 46.99 C 66.61 43.11 64.75 37.37 69.23 35.29 Z" />
<path fill="#9f5a73" opacity="1.00" d=" M 18.20 54.69 C 16.28 52.55 17.93 48.50 20.98 48.97 C 34.15 49.96 47.28 51.59 60.42 52.97 C 60.44 54.77 60.63 56.82 59.00 58.03 C 52.87 64.23 47.02 70.70 40.82 76.81 C 38.45 79.40 33.89 78.89 32.15 75.85 C 27.47 68.82 22.76 61.80 18.20 54.69 Z" />
<path fill="#9f5a73" opacity="1.00" d=" M 59.28 65.09 C 62.94 64.91 67.90 64.23 69.91 68.17 C 71.95 73.22 73.40 78.50 74.95 83.72 C 66.65 84.80 58.34 86.02 49.99 86.66 C 47.32 86.93 45.79 83.39 47.53 81.45 C 51.33 75.92 55.48 70.63 59.28 65.09 Z" />
<path fill="#9f5a73" opacity="1.00" d=" M 75.38 69.78 C 74.56 67.10 77.33 64.70 79.91 65.12 C 98.92 65.09 117.93 65.07 136.94 65.11 C 137.86 71.40 143.24 77.38 149.97 76.77 C 156.36 76.68 160.89 70.98 161.97 65.09 C 166.17 65.06 170.36 65.04 174.56 65.17 C 174.54 97.45 174.49 129.73 174.80 162.01 C 175.38 166.74 172.46 171.52 167.90 172.98 C 162.38 175.07 155.71 171.09 154.79 165.30 C 154.23 161.12 154.66 156.87 154.43 152.66 C 132.54 152.68 110.64 152.58 88.75 152.70 C 88.67 156.47 88.80 160.25 88.68 164.02 C 88.65 169.42 83.34 174.02 77.99 173.50 C 72.98 173.36 68.64 168.80 68.57 163.82 C 68.35 139.94 68.31 116.05 68.57 92.17 C 69.70 86.41 77.31 88.86 81.46 87.30 C 79.36 81.49 77.00 75.75 75.38 69.78 M 89.37 76.36 C 91.13 81.97 94.31 87.21 95.20 93.03 C 93.30 99.39 84.93 97.51 79.85 98.97 C 79.47 113.09 79.69 127.24 79.64 141.37 C 107.56 141.48 135.48 141.42 163.40 141.39 C 163.06 122.21 163.42 103.03 163.23 83.85 C 154.22 89.99 141.21 89.54 133.43 81.58 C 131.22 79.95 130.25 76.03 127.01 76.37 C 114.46 76.38 101.92 76.42 89.37 76.36 Z" />
</g>
</svg>
