<?xml version="1.0" encoding="UTF-8" ?>
<!DOCTYPE svg PUBLIC "-//W3C//DTD SVG 1.1//EN" "http://www.w3.org/Graphics/SVG/1.1/DTD/svg11.dtd">
<svg width="192pt" height="192pt" viewBox="0 0 192 192" version="1.1" xmlns="http://www.w3.org/2000/svg">
<g id="#9d817fff">
<path fill="#9d817f" opacity="1.00" d=" M 146.89 24.98 C 152.57 24.55 158.29 24.66 163.98 24.82 C 165.74 24.60 165.84 26.79 165.83 27.99 C 165.79 33.20 165.99 38.42 165.63 43.63 C 162.31 45.05 160.66 41.19 158.13 39.82 C 144.98 53.09 131.72 66.25 118.51 79.47 C 116.34 82.23 111.70 82.27 109.66 79.34 C 104.99 73.26 100.87 66.76 96.06 60.77 C 76.24 76.92 56.19 92.94 36.68 109.41 C 36.39 126.92 36.87 144.47 36.46 161.98 C 35.79 168.03 26.03 167.86 25.41 161.87 C 25.06 144.59 25.40 127.28 25.26 109.99 C 25.39 107.36 24.95 104.13 27.16 102.19 C 49.30 84.35 71.25 66.26 93.29 48.30 C 95.68 45.95 99.97 46.38 101.81 49.17 C 106.29 55.06 110.32 61.28 114.89 67.11 C 126.67 55.36 138.36 43.53 150.21 31.86 C 148.98 29.59 145.52 27.92 146.89 24.98 Z" />
<path fill="#9d817f" opacity="1.00" d=" M 148.26 63.21 C 152.09 61.07 156.91 64.80 156.40 69.00 C 156.40 99.67 156.54 130.35 156.36 161.01 C 156.23 167.68 145.29 167.75 145.19 161.05 C 145.01 130.35 145.22 99.64 145.17 68.93 C 144.99 66.62 146.06 64.18 148.26 63.21 Z" />
<path fill="#9d817f" opacity="1.00" d=" M 89.37 82.47 C 92.83 81.40 96.75 84.34 96.48 88.00 C 96.54 112.33 96.66 136.67 96.52 161.00 C 96.49 167.81 85.30 167.77 85.30 160.97 C 85.15 136.99 85.38 112.99 85.32 89.01 C 84.96 86.20 86.52 83.18 89.37 82.47 Z" />
<path fill="#9d817f" opacity="1.00" d=" M 118.28 94.18 C 122.15 91.83 127.22 95.66 126.54 100.00 C 126.46 120.66 126.80 141.33 126.47 161.98 C 125.81 168.02 116.01 167.87 115.42 161.87 C 115.11 141.58 115.48 121.26 115.36 100.96 C 115.18 98.41 115.74 95.41 118.28 94.18 Z" />
<path fill="#9d817f" opacity="1.00" d=" M 58.37 105.37 C 62.16 103.03 67.29 106.60 66.72 110.93 C 66.72 127.59 66.90 144.27 66.72 160.92 C 66.83 167.18 56.78 168.07 55.63 161.96 C 55.14 145.33 55.63 128.65 55.45 112.00 C 55.25 109.48 55.94 106.61 58.37 105.37 Z" />
</g>
</svg>
