<?xml version="1.0" encoding="UTF-8" ?>
<!DOCTYPE svg PUBLIC "-//W3C//DTD SVG 1.1//EN" "http://www.w3.org/Graphics/SVG/1.1/DTD/svg11.dtd">
<svg width="192pt" height="192pt" viewBox="0 0 192 192" version="1.1" xmlns="http://www.w3.org/2000/svg">
<g id="#e22ca2ff">
<path fill="#e22ca2" opacity="1.00" d=" M 38.31 21.41 C 41.49 20.68 44.76 20.70 48.00 20.70 C 80.99 20.79 113.98 20.63 146.97 20.78 C 159.25 20.76 170.11 31.71 170.10 43.98 C 170.20 78.32 170.18 112.68 170.11 147.02 C 170.33 159.44 159.47 170.75 146.98 170.66 C 112.33 170.70 77.67 170.73 43.02 170.68 C 30.63 170.66 19.82 159.38 20.12 147.04 C 20.10 112.67 20.08 78.30 20.15 43.93 C 20.14 33.43 28.10 23.69 38.31 21.41 M 40.38 32.54 C 34.98 33.95 31.13 39.39 31.39 44.94 C 31.40 78.98 31.37 113.03 31.41 147.07 C 31.21 153.74 37.27 159.71 43.94 159.45 C 77.98 159.48 112.02 159.47 146.05 159.48 C 152.80 159.84 159.04 153.85 158.80 147.07 C 158.81 112.69 158.87 78.29 158.76 43.91 C 158.75 36.89 151.88 31.30 145.02 32.09 C 110.15 32.42 75.20 31.54 40.38 32.54 Z" />
<path fill="#e22ca2" opacity="1.00" d=" M 58.22 53.29 C 62.47 51.48 67.45 55.39 66.84 59.94 C 66.81 85.64 66.99 111.35 66.75 137.05 C 66.61 144.47 54.43 144.44 54.22 137.05 C 53.94 111.70 54.20 86.32 54.09 60.96 C 53.78 57.86 55.08 54.39 58.22 53.29 Z" />
<path fill="#e22ca2" opacity="1.00" d=" M 104.34 56.44 C 108.55 54.62 113.45 58.45 113.05 62.93 C 113.07 86.63 113.34 110.36 112.92 134.05 C 112.53 141.38 100.62 141.18 100.37 133.89 C 100.04 110.58 100.32 87.25 100.22 63.94 C 99.97 60.90 101.26 57.51 104.34 56.44 Z" />
<path fill="#e22ca2" opacity="1.00" d=" M 82.42 62.49 C 86.75 61.55 90.53 65.73 90.06 69.94 C 89.99 89.27 90.49 108.65 89.80 127.95 C 89.14 134.85 77.98 134.76 77.33 127.90 C 76.94 108.59 77.28 89.26 77.15 69.94 C 76.83 66.60 78.93 62.99 82.42 62.49 Z" />
<path fill="#e22ca2" opacity="1.00" d=" M 127.22 69.22 C 131.11 67.38 136.16 70.59 136.06 74.92 C 136.32 88.93 136.03 102.97 136.19 116.99 C 136.21 119.99 136.35 123.63 133.59 125.58 C 129.94 128.68 123.48 125.88 123.43 121.04 C 123.21 106.01 123.34 90.97 123.34 75.94 C 123.12 73.16 124.56 70.29 127.22 69.22 Z" />
</g>
</svg>
