<?xml version="1.0" encoding="UTF-8" ?>
<!DOCTYPE svg PUBLIC "-//W3C//DTD SVG 1.1//EN" "http://www.w3.org/Graphics/SVG/1.1/DTD/svg11.dtd">
<svg width="192pt" height="192pt" viewBox="0 0 192 192" version="1.1" xmlns="http://www.w3.org/2000/svg">
<g id="#ff633cff">
<path fill="#ff633c" opacity="1.00" d=" M 85.36 14.44 C 117.07 9.69 150.22 26.07 166.31 53.66 C 178.64 74.03 181.22 99.91 173.32 122.35 C 164.03 149.23 140.03 170.91 111.98 176.28 C 105.76 176.18 105.31 166.16 111.58 165.57 C 143.61 158.46 168.02 126.92 166.09 94.02 C 165.58 60.54 138.32 30.07 105.03 26.09 C 70.52 20.44 34.53 44.39 26.42 78.39 C 26.28 82.49 22.10 86.32 18.10 84.02 C 13.83 81.70 15.70 76.47 16.87 72.89 C 25.87 42.34 53.77 18.51 85.36 14.44 Z" />
<path fill="#ff633c" opacity="1.00" d=" M 58.48 81.68 C 82.62 78.06 107.11 96.77 110.07 120.97 C 113.89 143.49 98.28 166.89 76.20 172.39 C 64.68 175.15 52.69 173.94 40.96 173.97 C 28.80 174.00 17.91 163.23 18.01 151.03 C 18.09 141.67 17.75 132.29 18.21 122.94 C 19.96 102.03 37.66 83.99 58.48 81.68 M 56.36 93.49 C 41.50 96.75 29.72 110.68 29.30 125.94 C 29.24 134.30 29.24 142.66 29.29 151.02 C 29.26 157.16 34.79 162.62 40.91 162.63 C 48.96 162.71 57.00 162.66 65.05 162.65 C 78.23 162.55 90.82 154.10 96.14 142.08 C 101.16 131.40 100.07 118.23 93.52 108.44 C 85.81 96.40 70.29 90.01 56.36 93.49 Z" />
</g>
</svg>
