<?xml version="1.0" encoding="UTF-8" ?>
<!DOCTYPE svg PUBLIC "-//W3C//DTD SVG 1.1//EN" "http://www.w3.org/Graphics/SVG/1.1/DTD/svg11.dtd">
<svg width="192pt" height="192pt" viewBox="0 0 192 192" version="1.1" xmlns="http://www.w3.org/2000/svg">
<g id="#5f6f81ff">
<path fill="#5f6f81" opacity="1.00" d=" M 44.32 21.39 C 76.86 20.53 109.48 21.25 142.06 21.00 C 154.46 20.36 165.68 31.60 165.02 44.00 C 165.61 55.99 155.10 66.99 143.08 66.91 C 111.36 67.00 79.63 66.99 47.91 66.89 C 36.31 66.96 25.97 56.67 26.03 45.07 C 25.03 34.02 33.35 23.14 44.32 21.39 M 46.37 32.52 C 34.37 34.02 34.39 53.93 46.40 55.41 C 78.26 55.87 110.17 55.47 142.05 55.60 C 148.42 56.10 154.17 50.29 153.69 43.93 C 154.14 37.58 148.40 31.83 142.04 32.33 C 110.16 32.47 78.24 32.06 46.37 32.52 Z" />
<path fill="#5f6f81" opacity="1.00" d=" M 47.37 38.36 C 54.66 34.30 60.30 46.71 52.70 49.66 C 45.53 53.34 40.14 41.43 47.37 38.36 Z" />
<path fill="#5f6f81" opacity="1.00" d=" M 42.37 73.52 C 45.18 72.76 48.11 72.72 51.00 72.71 C 82.01 72.81 113.02 72.64 144.03 72.79 C 155.85 73.11 165.75 84.28 165.03 96.03 C 165.41 107.93 154.93 118.78 142.98 118.59 C 111.33 118.62 79.67 118.61 48.02 118.58 C 36.49 118.74 26.17 108.60 26.03 97.09 C 25.02 86.64 32.17 76.15 42.37 73.52 M 45.35 84.43 C 33.91 87.10 35.08 106.30 46.96 107.15 C 78.64 107.44 110.34 107.18 142.03 107.26 C 147.07 107.59 152.04 104.10 153.27 99.18 C 155.65 91.96 149.97 83.41 142.09 84.01 C 109.86 84.29 77.53 83.41 45.35 84.43 Z" />
<path fill="#5f6f81" opacity="1.00" d=" M 49.34 89.46 C 53.79 88.68 57.80 93.65 56.03 97.84 C 54.61 102.24 48.11 103.37 45.33 99.66 C 42.11 96.18 44.60 89.81 49.34 89.46 Z" />
<path fill="#5f6f81" opacity="1.00" d=" M 44.36 124.46 C 76.88 123.51 109.50 124.28 142.06 124.04 C 154.44 123.48 165.65 134.59 165.03 147.00 C 165.64 159.00 155.13 170.11 143.08 169.99 C 111.36 170.00 79.64 170.02 47.91 169.98 C 35.87 170.09 25.37 158.99 25.98 147.00 C 25.55 136.31 33.77 126.13 44.36 124.46 M 46.39 135.61 C 34.39 137.08 34.39 156.96 46.37 158.47 C 77.91 158.95 109.50 158.50 141.06 158.68 C 145.16 158.97 149.51 157.39 151.79 153.81 C 156.70 146.87 152.00 135.29 142.98 135.45 C 110.79 135.48 78.57 135.15 46.39 135.61 Z" />
<path fill="#5f6f81" opacity="1.00" d=" M 47.40 141.39 C 51.31 139.34 56.57 142.54 56.42 147.00 C 56.63 151.49 51.31 154.84 47.36 152.65 C 42.74 150.71 42.80 143.33 47.40 141.39 Z" />
</g>
</svg>
