<?xml version="1.0" encoding="UTF-8" ?>
<!DOCTYPE svg PUBLIC "-//W3C//DTD SVG 1.1//EN" "http://www.w3.org/Graphics/SVG/1.1/DTD/svg11.dtd">
<svg width="192pt" height="192pt" viewBox="0 0 192 192" version="1.1" xmlns="http://www.w3.org/2000/svg">
<g id="#4970c2ff">
<path fill="#4970c2" opacity="1.00" d=" M 46.44 53.52 C 80.34 41.07 113.91 27.63 148.19 16.23 C 155.41 12.98 162.45 23.23 156.68 28.66 C 143.01 41.66 129.33 54.69 115.58 67.61 C 111.04 72.41 103.13 65.26 107.22 60.23 C 116.72 50.66 126.82 41.68 136.34 32.11 C 110.92 41.36 85.62 50.96 60.24 60.32 C 84.65 69.00 109.38 76.75 133.87 85.20 C 138.70 86.78 143.56 89.88 144.94 95.09 C 148.20 107.08 147.37 119.80 144.78 131.84 C 144.01 135.16 142.25 138.71 138.82 139.91 C 106.91 151.82 75.14 164.18 42.97 175.36 C 34.92 177.48 28.68 166.37 34.53 160.55 C 46.08 149.40 57.63 138.21 69.42 127.33 C 74.45 123.29 81.51 131.28 76.73 135.73 C 68.18 144.03 59.54 152.26 50.89 160.46 C 76.38 151.48 101.64 141.83 126.87 132.14 C 103.26 124.15 79.63 116.21 56.08 108.07 C 49.92 105.93 42.78 102.89 40.97 95.93 C 38.15 84.55 39.13 72.57 41.30 61.16 C 41.83 58.06 43.35 54.77 46.44 53.52 M 51.35 69.55 C 50.24 76.86 50.09 84.41 51.51 91.69 C 52.15 95.47 56.76 95.92 59.61 97.36 C 84.64 105.98 109.79 114.23 134.86 122.71 C 136.01 114.34 136.24 105.60 133.71 97.45 C 106.53 87.39 78.76 78.97 51.35 69.55 Z" />
</g>
</svg>
