<?xml version="1.0" encoding="UTF-8" ?>
<!DOCTYPE svg PUBLIC "-//W3C//DTD SVG 1.1//EN" "http://www.w3.org/Graphics/SVG/1.1/DTD/svg11.dtd">
<svg width="192pt" height="192pt" viewBox="0 0 192 192" version="1.1" xmlns="http://www.w3.org/2000/svg">
<g id="#51cf7eff">
<path fill="#51cf7e" opacity="1.00" d=" M 14.06 59.95 C 13.88 47.70 24.76 36.65 37.03 36.75 C 76.34 36.72 115.66 36.71 154.97 36.75 C 166.82 36.73 177.48 47.09 177.80 58.93 C 177.97 82.63 177.83 106.34 177.80 130.05 C 178.21 142.39 167.27 153.48 154.97 153.51 C 132.66 153.44 110.32 153.80 88.02 153.33 C 73.55 151.87 65.15 136.50 67.60 122.98 C 60.64 123.44 51.45 119.96 46.64 126.64 C 39.02 134.35 31.42 142.10 23.71 149.72 C 20.62 153.40 13.98 150.81 14.09 146.06 C 13.96 117.36 14.04 88.65 14.06 59.95 M 25.30 59.92 C 25.18 83.96 25.40 107.99 25.30 132.03 C 31.35 126.16 37.14 120.03 43.17 114.16 C 45.18 112.00 48.18 111.40 51.01 111.52 C 85.36 111.53 119.71 111.51 154.06 111.52 C 160.79 111.85 166.94 105.82 166.66 99.07 C 166.68 86.02 166.72 72.97 166.64 59.92 C 166.71 53.29 160.58 47.63 154.03 47.87 C 115.35 47.81 76.67 47.83 37.99 47.84 C 31.40 47.56 25.16 53.25 25.30 59.92 M 154.05 122.73 C 128.95 122.77 103.86 122.70 78.76 122.75 C 77.48 130.55 79.78 140.93 89.00 142.22 C 110.65 142.68 132.33 142.29 153.99 142.41 C 160.10 142.67 165.96 137.80 166.57 131.67 C 166.89 127.55 166.58 123.42 166.68 119.30 C 162.84 121.48 158.50 122.85 154.05 122.73 Z" />
</g>
</svg>
