<?xml version="1.0" encoding="UTF-8" ?>
<!DOCTYPE svg PUBLIC "-//W3C//DTD SVG 1.1//EN" "http://www.w3.org/Graphics/SVG/1.1/DTD/svg11.dtd">
<svg width="192pt" height="192pt" viewBox="0 0 192 192" version="1.1" xmlns="http://www.w3.org/2000/svg">
<g id="#44e372ff">
<path fill="#44e372" opacity="1.00" d=" M 69.14 18.20 C 95.43 8.93 126.39 14.24 147.74 32.26 C 150.53 34.69 149.44 39.84 145.89 40.88 C 129.56 46.06 115.40 56.54 103.58 68.72 C 122.27 90.82 136.66 116.16 148.99 142.24 C 169.39 119.95 172.31 84.22 156.25 58.71 C 152.20 53.57 160.04 46.58 164.61 51.35 C 178.62 71.81 181.45 99.09 173.40 122.40 C 163.78 151.11 137.01 173.09 106.95 176.82 C 76.36 181.36 44.15 166.55 27.46 140.56 C 14.61 121.24 10.75 96.33 16.94 74.00 C 23.77 48.31 43.98 26.74 69.14 18.20 M 61.87 33.59 C 74.45 40.77 85.88 49.81 95.92 60.24 C 106.31 50.01 117.96 40.91 131.12 34.51 C 110.43 21.89 83.04 22.09 61.87 33.59 M 25.37 92.96 C 24.58 110.39 30.62 128.02 41.99 141.25 C 54.47 115.27 69.36 90.31 88.07 68.33 C 77.29 57.35 65.20 47.21 50.94 41.10 C 35.63 53.78 25.85 73.02 25.37 92.96 M 51.59 147.48 C 49.61 150.75 54.06 152.26 56.02 153.95 C 80.81 171.49 116.85 170.06 140.26 150.73 C 128.58 124.48 114.20 99.16 95.73 77.07 C 77.55 98.14 63.50 122.43 51.59 147.48 Z" />
</g>
</svg>
