<?xml version="1.0" encoding="UTF-8" ?>
<!DOCTYPE svg PUBLIC "-//W3C//DTD SVG 1.1//EN" "http://www.w3.org/Graphics/SVG/1.1/DTD/svg11.dtd">
<svg width="192pt" height="192pt" viewBox="0 0 192 192" version="1.1" xmlns="http://www.w3.org/2000/svg">
<g id="#ff653bff">
<path fill="#ff653b" opacity="1.00" d=" M 54.09 64.92 C 55.44 44.28 75.65 27.48 96.09 29.10 C 113.58 30.10 130.29 43.36 133.15 61.00 C 133.63 64.73 129.69 67.85 126.14 66.75 C 122.76 66.16 122.08 62.42 121.21 59.69 C 116.83 45.59 100.21 37.26 86.17 41.25 C 75.28 44.55 65.93 54.26 65.32 65.97 C 64.84 81.64 65.17 97.32 65.11 112.99 C 65.52 118.80 64.02 125.51 58.63 128.65 C 51.37 133.56 40.40 129.21 38.41 120.70 C 37.27 114.17 38.17 107.48 37.78 100.88 C 32.67 101.03 27.54 100.97 22.44 101.39 C 22.93 110.27 20.95 119.69 24.97 128.03 C 29.89 140.35 44.09 148.17 57.12 145.14 C 69.91 142.85 79.99 130.92 80.29 117.96 C 80.46 101.62 80.23 85.26 80.40 68.92 C 79.63 56.50 97.41 50.66 104.59 60.42 C 107.99 64.49 107.66 70.07 107.59 75.03 C 109.38 75.77 111.16 76.55 112.94 77.34 C 118.30 75.93 123.46 73.32 129.02 72.97 C 134.68 73.55 135.33 82.51 129.72 83.77 C 122.29 85.35 114.47 91.18 106.94 87.07 C 103.30 85.26 98.31 84.39 96.79 80.08 C 95.71 76.17 96.73 72.05 96.09 68.08 C 95.37 65.71 91.38 66.53 91.70 69.01 C 91.49 85.67 91.81 102.34 91.55 119.00 C 90.87 136.92 76.70 153.18 59.03 156.24 C 42.28 159.83 23.99 150.91 16.19 135.74 C 10.00 125.24 11.05 112.76 11.30 101.09 C 11.73 94.78 17.71 89.62 23.98 89.82 C 29.99 89.77 36.01 89.61 42.02 89.74 C 45.51 89.63 48.89 92.38 48.99 95.97 C 49.54 103.20 48.75 110.48 49.37 117.71 C 49.79 120.53 54.10 119.64 53.70 116.88 C 53.97 99.57 53.39 82.22 54.09 64.92 Z" />
<path fill="#ff653b" opacity="1.00" d=" M 139.00 95.97 C 139.34 92.56 142.67 90.20 145.99 90.37 C 154.00 90.32 162.02 90.21 170.02 90.42 C 174.36 90.45 177.16 94.90 176.67 98.94 C 176.44 110.68 178.18 123.06 173.21 134.11 C 165.25 152.37 142.32 162.19 123.58 155.42 C 105.14 149.56 92.88 128.94 96.94 110.01 C 99.41 104.68 108.21 107.18 107.55 113.01 C 106.22 125.17 112.45 137.99 123.71 143.29 C 137.51 150.58 156.39 143.88 162.78 129.73 C 166.66 120.90 165.24 110.99 165.34 101.63 C 160.27 101.59 155.20 101.54 150.12 101.53 C 149.96 107.37 150.31 113.22 149.94 119.05 C 149.46 126.35 142.17 132.19 134.95 131.17 C 128.80 130.56 123.50 125.27 123.04 119.09 C 122.66 113.88 122.97 108.66 122.78 103.45 C 115.08 107.69 106.70 103.56 99.30 100.71 C 95.06 98.74 96.46 91.60 101.13 91.29 C 105.30 91.34 108.96 93.86 113.01 94.58 C 118.13 93.71 122.81 90.91 128.03 90.55 C 131.38 90.59 134.09 93.66 134.07 96.94 C 134.41 103.92 133.89 110.92 134.31 117.90 C 134.20 120.21 137.82 120.76 138.57 118.64 C 139.27 111.11 138.35 103.51 139.00 95.97 Z" />
</g>
</svg>
