<?xml version="1.0" encoding="UTF-8" ?>
<!DOCTYPE svg PUBLIC "-//W3C//DTD SVG 1.1//EN" "http://www.w3.org/Graphics/SVG/1.1/DTD/svg11.dtd">
<svg width="192pt" height="192pt" viewBox="0 0 192 192" version="1.1" xmlns="http://www.w3.org/2000/svg">
<g id="#46e371ff">
<path fill="#46e371" opacity="1.00" d=" M 40.30 21.32 C 75.12 19.95 110.11 21.14 144.99 20.71 C 153.95 20.03 163.08 24.68 167.43 32.60 C 171.75 39.90 170.49 48.72 170.39 56.80 C 169.88 62.03 161.79 63.06 159.92 58.17 C 158.34 52.12 160.63 45.54 158.44 39.56 C 156.52 34.63 151.25 31.60 146.05 31.84 C 112.68 31.83 79.30 31.80 45.93 31.84 C 40.48 31.75 35.20 35.54 33.75 40.83 C 32.58 46.41 34.08 52.22 32.91 57.77 C 31.42 62.59 23.83 62.48 22.48 57.63 C 21.84 52.78 22.25 47.83 22.24 42.94 C 22.54 32.77 30.38 23.48 40.30 21.32 Z" />
<path fill="#46e371" opacity="1.00" d=" M 22.90 69.93 C 27.08 67.36 32.52 68.04 37.16 68.79 C 41.34 69.74 41.37 74.78 41.26 78.19 C 39.32 78.16 37.39 78.13 35.46 78.09 C 35.12 76.56 34.78 75.03 34.44 73.49 C 31.19 72.91 25.83 72.85 27.37 77.72 C 30.12 82.42 39.55 79.39 41.39 85.59 C 41.99 89.68 42.90 96.39 37.74 97.83 C 33.44 98.71 28.71 98.96 24.54 97.41 C 21.27 95.85 21.64 91.68 21.53 88.66 C 23.47 88.55 25.41 88.50 27.35 88.48 C 27.64 90.00 27.94 91.52 28.23 93.04 C 30.56 93.36 32.92 93.36 35.26 93.16 C 35.42 91.29 35.52 89.42 35.58 87.54 C 31.26 85.20 25.34 85.93 21.96 82.05 C 20.67 78.26 20.25 73.24 22.90 69.93 Z" />
<path fill="#46e371" opacity="1.00" d=" M 126.90 69.92 C 131.08 67.35 136.53 68.02 141.16 68.78 C 145.35 69.73 145.41 74.77 145.25 78.19 C 143.31 78.16 141.38 78.13 139.44 78.10 C 139.10 76.56 138.77 75.03 138.44 73.51 C 135.20 72.92 129.85 72.84 131.37 77.70 C 134.10 82.40 143.58 79.39 145.41 85.59 C 145.88 89.38 146.78 94.56 143.32 97.21 C 138.93 98.99 133.81 98.82 129.27 97.72 C 125.40 96.59 125.54 91.90 125.52 88.66 C 127.45 88.55 129.39 88.49 131.32 88.46 C 131.65 90.00 131.98 91.54 132.31 93.08 C 134.62 93.33 136.94 93.33 139.25 93.15 C 139.41 91.29 139.51 89.43 139.58 87.56 C 135.27 85.21 129.35 85.93 125.96 82.06 C 124.64 78.26 124.27 73.25 126.90 69.92 Z" />
<path fill="#46e371" opacity="1.00" d=" M 43.66 68.66 C 50.56 68.55 57.47 68.60 64.37 68.63 C 64.50 70.30 64.58 71.98 64.67 73.66 C 62.19 74.00 59.70 74.18 57.20 74.18 C 57.19 81.47 57.31 88.75 57.18 96.03 C 57.28 99.32 53.13 97.80 51.14 97.90 C 50.74 90.00 51.09 82.10 50.89 74.20 C 48.40 74.16 45.91 73.96 43.45 73.60 C 43.51 71.95 43.57 70.30 43.66 68.66 Z" />
<path fill="#46e371" opacity="1.00" d=" M 65.80 68.75 C 67.82 68.67 69.83 68.65 71.85 68.65 C 74.03 72.93 75.87 77.37 78.15 81.59 C 80.25 77.34 82.22 73.02 84.22 68.72 C 86.26 68.65 88.31 68.66 90.36 68.70 C 88.14 75.06 84.64 80.85 81.90 86.97 C 80.45 90.38 82.02 94.28 80.83 97.74 C 79.01 98.49 77.01 97.93 75.13 97.86 C 76.94 86.94 69.16 78.46 65.80 68.75 Z" />
<path fill="#46e371" opacity="1.00" d=" M 93.47 69.21 C 95.13 68.07 97.39 68.82 99.29 68.58 C 99.93 76.57 99.43 84.61 99.59 92.62 C 103.53 92.63 107.47 92.63 111.41 92.80 C 111.42 94.58 111.41 96.36 111.37 98.13 C 105.36 98.00 99.33 98.50 93.35 97.76 C 93.34 88.25 93.05 78.71 93.47 69.21 Z" />
<path fill="#46e371" opacity="1.00" d=" M 114.58 69.32 C 115.95 67.91 118.45 68.89 120.26 68.51 C 121.09 78.25 120.49 88.06 120.58 97.83 C 118.54 98.11 116.48 98.07 114.45 97.77 C 114.47 88.29 114.15 78.78 114.58 69.32 Z" />
<path fill="#46e371" opacity="1.00" d=" M 149.90 68.70 C 151.89 68.66 153.89 68.65 155.88 68.69 C 156.11 72.67 156.14 76.66 156.09 80.64 C 158.93 80.65 161.78 80.66 164.63 80.65 C 164.60 76.65 164.60 72.65 164.74 68.65 C 166.74 68.64 168.75 68.66 170.75 68.74 C 170.90 78.47 170.95 88.20 170.73 97.92 C 168.74 98.05 166.75 98.04 164.76 97.94 C 164.59 94.01 164.58 90.07 164.60 86.13 C 161.77 86.14 158.93 86.13 156.09 86.11 C 156.14 90.07 156.17 94.04 155.84 97.99 C 153.87 98.06 151.90 98.02 149.94 97.91 C 149.68 88.18 149.77 78.43 149.90 68.70 Z" />
<path fill="#46e371" opacity="1.00" d=" M 41.03 107.15 C 46.79 106.84 52.56 107.11 58.33 106.94 C 58.60 108.68 58.64 110.43 58.49 112.18 C 54.61 112.20 50.72 112.22 46.83 112.20 C 46.85 114.59 46.85 116.97 46.86 119.35 C 50.15 119.39 53.44 119.41 56.73 119.43 C 56.83 121.10 56.89 122.77 56.92 124.44 C 53.57 124.56 50.21 124.57 46.86 124.56 C 46.87 128.13 46.85 131.70 46.72 135.27 C 44.84 135.26 42.95 135.23 41.08 135.17 C 40.70 125.84 40.78 116.48 41.03 107.15 Z" />
<path fill="#46e371" opacity="1.00" d=" M 65.28 107.27 C 70.04 106.37 75.46 105.91 79.91 108.12 C 83.79 111.95 82.01 118.11 82.46 123.00 C 82.47 127.35 83.03 134.25 77.35 135.24 C 72.69 135.65 67.30 136.53 63.13 133.89 C 59.88 129.70 61.40 123.92 61.01 119.01 C 61.16 114.98 60.34 108.76 65.28 107.27 M 67.42 112.39 C 67.10 118.08 66.58 123.90 67.58 129.52 C 69.85 131.10 73.25 130.86 75.71 129.77 C 77.00 124.09 76.55 118.00 75.82 112.24 C 73.04 111.59 70.16 111.50 67.42 112.39 Z" />
<path fill="#46e371" opacity="1.00" d=" M 86.68 106.97 C 88.40 107.00 90.12 107.05 91.84 107.09 C 94.94 112.67 97.71 118.42 100.61 124.11 C 100.67 118.44 100.49 112.77 100.78 107.10 C 102.63 107.05 104.48 107.00 106.33 106.96 C 106.88 116.41 106.79 125.91 106.38 135.36 C 104.62 135.31 102.86 135.23 101.11 135.17 C 98.19 129.52 95.26 123.87 92.43 118.18 C 92.41 123.90 92.55 129.62 92.30 135.34 C 90.34 135.29 88.39 135.19 86.44 134.99 C 86.51 125.65 86.06 116.29 86.68 106.97 Z" />
<path fill="#46e371" opacity="1.00" d=" M 109.71 107.09 C 116.40 106.98 123.10 106.87 129.79 107.15 C 129.82 108.76 129.82 110.37 129.81 111.98 C 127.46 112.15 125.10 112.23 122.75 112.26 C 122.61 119.76 123.03 127.29 122.56 134.78 C 120.93 135.88 118.72 135.02 116.88 135.17 C 116.59 127.52 116.83 119.87 116.71 112.22 C 114.37 112.20 112.04 112.14 109.72 112.08 C 109.69 110.41 109.69 108.75 109.71 107.09 Z" />
<path fill="#46e371" opacity="1.00" d=" M 135.41 107.51 C 139.64 106.23 144.37 106.25 148.61 107.44 C 152.04 108.75 151.70 113.03 151.80 116.03 C 149.95 116.15 148.10 116.20 146.25 116.20 C 145.88 114.67 145.53 113.14 145.16 111.62 C 141.24 110.62 137.09 111.89 138.33 116.65 C 141.50 118.18 145.00 118.70 148.31 119.82 C 153.71 121.52 152.88 129.00 151.24 133.17 C 147.69 136.88 141.60 135.60 137.00 135.15 C 132.86 134.33 132.76 129.51 132.94 126.17 C 134.76 126.12 136.58 126.08 138.40 126.07 C 138.73 127.58 139.10 129.08 139.45 130.58 C 141.83 130.50 146.77 131.90 146.33 127.96 C 146.20 120.84 134.31 125.27 132.74 118.54 C 132.25 114.90 131.48 109.52 135.41 107.51 Z" />
<path fill="#46e371" opacity="1.00" d=" M 25.38 119.38 C 28.68 117.74 33.08 120.25 33.21 123.97 C 33.58 131.63 33.10 139.32 33.39 146.99 C 33.63 153.35 39.62 158.71 45.97 158.33 C 79.66 158.32 113.35 158.35 147.03 158.30 C 153.24 158.50 158.96 153.23 159.28 147.04 C 159.67 139.15 159.07 131.24 159.53 123.36 C 160.03 119.25 165.72 117.40 168.63 120.29 C 171.16 122.45 170.43 126.07 170.57 129.00 C 170.39 135.67 170.84 142.36 170.32 149.01 C 169.11 160.41 158.51 169.78 147.03 169.55 C 113.01 169.55 78.98 169.59 44.96 169.52 C 33.39 169.48 22.97 159.61 22.28 148.07 C 22.04 140.36 22.21 132.63 22.19 124.91 C 22.05 122.64 23.24 120.29 25.38 119.38 Z" />
</g>
</svg>
