<?xml version="1.0" encoding="UTF-8" ?>
<!DOCTYPE svg PUBLIC "-//W3C//DTD SVG 1.1//EN" "http://www.w3.org/Graphics/SVG/1.1/DTD/svg11.dtd">
<svg width="192pt" height="192pt" viewBox="0 0 192 192" version="1.1" xmlns="http://www.w3.org/2000/svg">
<g id="#d94b6cff">
<path fill="#d94b6c" opacity="1.00" d=" M 37.47 21.57 C 74.62 21.20 111.88 20.67 149.08 20.86 C 155.23 20.82 155.98 30.96 149.88 31.63 C 113.26 31.86 76.62 31.65 40.00 31.64 C 34.64 32.21 33.35 23.85 37.47 21.57 Z" />
<path fill="#d94b6c" opacity="1.00" d=" M 16.24 40.11 C 17.76 39.56 19.41 39.63 21.00 39.57 C 70.34 39.62 119.67 39.56 169.00 39.58 C 173.20 39.08 177.19 42.66 176.86 46.93 C 176.91 79.30 176.93 111.68 176.86 144.06 C 177.05 156.16 166.13 166.88 154.05 166.57 C 114.02 166.57 73.98 166.63 33.95 166.53 C 22.19 166.40 11.93 155.80 12.04 144.06 C 11.92 112.03 12.03 79.99 11.98 47.96 C 11.69 44.77 13.18 41.39 16.24 40.11 M 23.35 51.14 C 23.45 82.09 23.34 113.04 23.42 143.99 C 23.32 150.11 28.89 155.46 34.99 155.21 C 74.66 155.24 114.34 155.25 154.01 155.19 C 160.05 155.38 165.58 150.06 165.50 143.99 C 165.60 113.05 165.51 82.10 165.55 51.16 C 118.16 50.80 70.73 50.57 23.35 51.14 Z" />
<path fill="#d94b6c" opacity="1.00" d=" M 46.06 85.01 C 46.20 83.12 48.20 83.39 49.56 83.07 C 51.58 86.42 54.22 89.36 55.94 92.90 C 54.86 93.51 53.78 94.13 52.70 94.73 C 50.52 91.47 47.81 88.55 46.06 85.01 Z" />
<path fill="#d94b6c" opacity="1.00" d=" M 92.44 87.15 C 93.78 87.36 95.11 87.57 96.45 87.79 C 96.10 90.88 95.65 93.97 95.02 97.03 C 98.43 96.15 101.92 96.45 105.16 97.79 C 109.13 99.52 112.48 94.75 116.48 96.67 C 115.93 101.66 114.29 106.55 114.48 111.60 C 114.48 114.20 118.29 114.49 119.48 112.56 C 121.88 109.33 121.91 105.11 122.63 101.31 C 121.42 101.10 120.20 100.89 118.99 100.69 C 118.90 99.39 118.81 98.09 118.73 96.80 C 120.41 96.59 122.09 96.40 123.77 96.19 C 124.80 92.77 123.86 84.93 129.58 87.72 C 129.21 90.55 128.78 93.37 128.26 96.17 C 129.94 96.43 131.62 96.66 133.30 96.91 C 133.28 98.20 133.25 99.49 133.21 100.78 C 131.19 100.90 129.18 101.07 127.16 101.25 C 126.63 104.79 125.52 108.34 125.91 111.94 C 126.30 114.70 130.08 114.13 131.12 112.16 C 133.48 108.12 132.54 102.61 136.22 99.23 C 140.82 94.60 147.97 96.64 153.80 96.30 C 153.84 97.70 153.87 99.09 153.91 100.50 C 153.20 100.54 151.78 100.63 151.07 100.68 C 152.00 106.61 151.20 114.21 145.13 117.15 C 141.42 119.49 137.02 118.06 134.05 115.25 C 130.88 118.79 125.86 119.23 122.19 116.16 C 119.26 118.13 115.13 119.58 112.16 116.83 C 108.12 112.92 110.60 106.85 111.00 102.02 C 109.58 102.29 108.16 102.56 106.74 102.83 C 107.38 108.48 105.85 115.76 99.74 117.76 C 96.34 119.45 92.79 117.65 90.24 115.35 C 87.12 118.59 82.34 119.26 78.97 115.98 C 75.35 118.54 69.31 119.85 66.93 115.01 C 64.99 108.86 67.84 102.43 68.48 96.25 C 69.84 96.32 71.21 96.41 72.57 96.52 C 72.58 102.30 69.58 108.01 71.33 113.74 C 80.64 114.57 78.07 101.90 80.35 96.05 C 81.72 96.25 83.08 96.48 84.44 96.72 C 83.96 101.84 82.22 106.85 82.53 112.03 C 83.18 114.91 87.02 113.86 87.52 111.42 C 90.04 103.55 90.51 95.18 92.44 87.15 M 96.37 101.37 C 92.79 103.88 91.46 111.03 95.40 113.62 C 103.35 115.91 105.47 98.20 96.37 101.37 M 140.43 101.51 C 136.73 104.08 135.44 111.84 140.30 113.72 C 148.38 115.15 149.48 97.76 140.43 101.51 Z" />
<path fill="#d94b6c" opacity="1.00" d=" M 114.17 86.87 C 115.46 86.97 116.75 87.08 118.04 87.19 C 117.87 89.80 117.33 92.37 116.31 94.78 C 115.51 94.54 113.90 94.06 113.10 93.83 C 113.42 91.50 113.80 89.19 114.17 86.87 Z" />
<path fill="#d94b6c" opacity="1.00" d=" M 36.95 88.15 C 41.62 90.52 46.31 92.84 50.92 95.33 C 50.61 96.66 50.00 97.87 49.11 98.91 C 44.35 96.60 39.69 94.09 34.96 91.72 C 35.62 90.53 36.28 89.34 36.95 88.15 Z" />
<path fill="#d94b6c" opacity="1.00" d=" M 50.55 103.04 C 49.81 95.68 59.72 94.16 64.49 97.61 C 66.92 98.55 64.71 100.63 64.08 102.04 C 61.24 100.73 55.85 98.45 54.70 102.88 C 58.43 105.50 65.35 106.78 64.58 112.67 C 63.44 120.18 52.19 119.78 48.46 114.47 C 46.91 112.84 49.55 111.48 50.65 110.63 C 52.93 113.01 56.89 115.28 59.94 112.88 C 59.60 108.00 50.65 108.78 50.55 103.04 Z" />
<path fill="#d94b6c" opacity="1.00" d=" M 36.41 99.40 C 40.41 100.63 51.13 98.00 48.62 104.67 C 44.52 104.52 40.46 103.87 36.39 103.35 C 36.38 102.03 36.39 100.71 36.41 99.40 Z" />
</g>
</svg>
