<?xml version="1.0" encoding="UTF-8" ?>
<!DOCTYPE svg PUBLIC "-//W3C//DTD SVG 1.1//EN" "http://www.w3.org/Graphics/SVG/1.1/DTD/svg11.dtd">
<svg width="192pt" height="192pt" viewBox="0 0 192 192" version="1.1" xmlns="http://www.w3.org/2000/svg">
<g id="#ff3661ff">
<path fill="#ff3661" opacity="1.00" d=" M 39.37 21.53 C 43.16 20.52 47.12 20.74 51.00 20.72 C 83.33 20.77 115.66 20.68 147.98 20.76 C 160.20 20.73 171.01 31.74 170.82 43.94 C 170.88 77.98 170.87 112.02 170.83 146.05 C 171.17 158.38 160.29 169.52 147.97 169.51 C 129.98 169.53 111.98 169.68 94.00 169.43 C 87.96 169.21 87.42 159.45 93.38 158.54 C 111.56 157.98 129.80 158.56 148.00 158.27 C 154.34 158.19 159.78 152.37 159.65 146.07 C 159.73 112.36 159.67 78.65 159.68 44.94 C 160.22 37.96 153.98 31.66 147.04 31.85 C 113.35 31.81 79.66 31.80 45.97 31.84 C 40.54 31.72 35.24 35.42 33.73 40.68 C 32.37 46.53 34.31 52.74 32.57 58.50 C 30.64 62.83 23.62 62.31 22.38 57.73 C 21.69 52.84 22.09 47.84 22.13 42.91 C 22.44 33.03 29.87 24.05 39.37 21.53 Z" />
<path fill="#ff3661" opacity="1.00" d=" M 113.35 43.28 C 115.80 41.82 118.76 42.56 121.02 44.03 C 129.64 49.09 138.39 53.97 146.98 59.10 C 151.08 61.27 151.29 67.89 147.19 70.18 C 138.19 75.56 129.06 80.74 119.96 85.96 C 116.09 88.45 110.25 85.75 110.08 81.05 C 109.76 71.04 110.06 61.01 109.94 50.99 C 109.74 48.07 110.52 44.71 113.35 43.28 Z" />
<path fill="#ff3661" opacity="1.00" d=" M 25.37 69.41 C 29.06 67.62 33.70 70.90 33.28 74.98 C 33.33 104.67 33.37 134.37 33.27 164.06 C 33.54 170.57 22.95 171.39 22.21 164.95 C 21.78 135.64 22.20 106.30 22.02 76.98 C 21.82 74.13 22.37 70.62 25.37 69.41 Z" />
<path fill="#ff3661" opacity="1.00" d=" M 47.35 95.37 C 51.11 93.48 55.84 96.83 55.39 100.99 C 55.43 122.00 55.50 143.02 55.36 164.03 C 55.67 170.60 44.98 171.40 44.28 164.92 C 43.86 144.29 44.27 123.62 44.09 102.98 C 43.92 100.14 44.36 96.61 47.35 95.37 Z" />
<path fill="#ff3661" opacity="1.00" d=" M 71.35 117.32 C 74.64 116.74 77.94 119.64 77.75 122.99 C 77.76 136.95 77.98 150.94 77.65 164.89 C 77.13 170.86 67.34 170.97 66.70 164.98 C 66.26 151.34 66.63 137.65 66.52 124.00 C 66.18 120.95 68.14 117.67 71.35 117.32 Z" />
</g>
</svg>
