<?xml version="1.0" encoding="UTF-8" ?>
<!DOCTYPE svg PUBLIC "-//W3C//DTD SVG 1.1//EN" "http://www.w3.org/Graphics/SVG/1.1/DTD/svg11.dtd">
<svg width="192pt" height="192pt" viewBox="0 0 192 192" version="1.1" xmlns="http://www.w3.org/2000/svg">
<g id="#9bcb52ff">
<path fill="#9bcb52" opacity="1.00" d=" M 134.78 20.19 C 134.61 15.06 140.65 11.70 144.54 15.48 C 148.42 18.99 156.88 21.20 154.98 27.82 C 151.75 32.00 146.76 34.58 142.36 37.41 C 138.24 39.21 135.04 35.14 134.52 31.43 C 114.33 31.59 94.13 31.35 73.93 31.53 C 55.67 31.99 39.48 47.76 38.49 65.99 C 36.52 85.82 53.13 104.70 72.90 105.85 C 90.25 106.38 107.64 105.69 124.99 106.16 C 131.05 106.71 131.14 116.60 125.03 117.16 C 108.70 117.54 92.34 117.21 76.00 117.31 C 59.71 117.41 43.67 108.81 34.92 95.03 C 25.55 80.85 24.60 61.64 32.58 46.61 C 40.55 31.02 57.45 20.52 74.97 20.31 C 94.90 20.13 114.84 20.33 134.78 20.19 Z" />
<path fill="#9bcb52" opacity="1.00" d=" M 66.97 84.12 C 60.83 83.63 60.76 73.61 66.92 73.11 C 83.60 72.76 100.30 73.04 116.99 72.98 C 134.42 73.05 151.20 83.48 159.21 98.91 C 166.77 112.98 166.68 130.82 158.82 144.74 C 150.60 159.76 134.13 169.71 117.02 170.09 C 97.09 170.20 77.16 170.08 57.22 170.15 C 56.85 173.68 54.04 177.50 50.04 176.29 C 45.91 174.17 42.20 171.26 38.48 168.49 C 35.66 166.41 36.00 161.74 38.97 159.96 C 42.72 157.41 46.20 154.28 50.37 152.46 C 54.29 151.58 56.76 155.33 57.29 158.71 C 77.56 158.69 97.82 158.80 118.08 158.65 C 137.05 158.09 153.64 141.01 153.43 121.99 C 154.15 102.95 137.89 85.62 119.03 84.42 C 101.68 83.96 84.31 84.57 66.97 84.12 Z" />
</g>
</svg>
