<?xml version="1.0" encoding="UTF-8" ?>
<!DOCTYPE svg PUBLIC "-//W3C//DTD SVG 1.1//EN" "http://www.w3.org/Graphics/SVG/1.1/DTD/svg11.dtd">
<svg width="192pt" height="192pt" viewBox="0 0 192 192" version="1.1" xmlns="http://www.w3.org/2000/svg">
<g id="#96644cff">
<path fill="#96644c" opacity="1.00" d=" M 65.80 18.03 C 66.71 12.36 75.85 12.48 76.62 18.15 C 77.03 33.85 76.64 49.58 76.82 65.29 C 88.86 65.39 100.90 65.33 112.94 65.31 C 113.03 49.86 112.82 34.40 113.04 18.95 C 112.94 14.56 118.90 12.02 122.07 14.98 C 124.28 16.59 124.24 19.55 124.27 22.00 C 124.23 36.43 124.27 50.85 124.25 65.28 C 140.11 65.50 155.99 65.05 171.83 65.49 C 177.86 66.10 177.94 76.03 171.86 76.55 C 156.01 76.91 140.14 76.57 124.28 76.70 C 124.23 88.97 124.26 101.23 124.26 113.50 C 140.18 113.58 156.09 113.42 172.01 113.56 C 176.34 113.21 179.34 118.46 177.15 122.11 C 175.56 124.99 171.93 125.18 169.02 125.19 C 154.09 125.14 139.16 125.18 124.24 125.16 C 124.16 140.76 124.49 156.39 124.09 171.98 C 123.41 177.94 113.74 177.95 113.09 171.98 C 112.69 156.38 113.18 140.75 112.85 125.14 C 100.84 125.21 88.83 125.12 76.83 125.19 C 76.69 140.76 77.01 156.34 76.69 171.89 C 76.20 177.92 66.37 178.00 65.73 171.98 C 65.32 156.39 65.69 140.75 65.55 125.15 C 49.82 124.57 34.02 125.12 18.29 124.63 C 12.41 123.63 12.98 113.89 19.01 113.67 C 34.51 113.35 50.04 113.64 65.55 113.53 C 65.20 101.32 66.34 88.70 64.99 76.75 C 49.45 76.41 33.88 76.98 18.35 76.48 C 12.38 75.44 13.00 65.56 19.15 65.46 C 34.55 65.25 49.98 65.33 65.40 65.42 C 65.97 49.64 65.15 33.80 65.80 18.03 M 76.84 76.70 C 76.87 88.97 76.57 101.26 77.00 113.52 C 88.97 113.54 100.94 113.51 112.91 113.53 C 112.92 101.25 113.10 88.96 112.79 76.68 C 100.81 76.69 88.82 76.65 76.84 76.70 Z" />
<path fill="#96644c" opacity="1.00" d=" M 34.45 33.17 C 37.44 32.37 41.19 30.31 44.02 32.05 C 44.54 38.17 44.12 44.34 44.24 50.49 C 45.57 50.50 46.90 50.52 48.22 50.55 C 48.37 51.90 48.51 53.25 48.65 54.60 C 43.86 54.79 39.07 54.72 34.28 54.67 C 34.20 53.37 34.12 52.07 34.04 50.78 C 35.77 50.65 37.50 50.52 39.23 50.41 C 39.27 45.77 39.27 41.14 39.20 36.50 C 37.61 36.32 36.02 36.14 34.44 35.94 C 34.44 35.25 34.45 33.86 34.45 33.17 Z" />
<path fill="#96644c" opacity="1.00" d=" M 86.02 39.10 C 83.92 30.42 96.14 28.79 100.82 33.28 C 104.64 40.39 98.37 46.11 93.54 50.44 C 96.30 50.48 99.05 50.58 101.80 50.90 C 101.74 52.15 101.68 53.40 101.63 54.65 C 96.53 54.75 91.43 54.84 86.33 54.56 C 85.57 46.27 99.54 44.44 96.51 35.49 C 94.91 35.45 93.32 35.43 91.72 35.41 C 91.23 36.81 90.74 38.21 90.25 39.60 C 88.84 39.43 87.43 39.27 86.02 39.10 Z" />
<path fill="#96644c" opacity="1.00" d=" M 86.14 90.03 C 85.06 82.12 94.88 81.18 100.09 83.93 C 102.83 86.63 102.31 91.37 100.55 94.51 C 103.39 98.35 103.04 106.74 96.86 106.61 C 91.68 107.83 84.80 105.77 86.13 99.19 C 87.54 99.13 88.95 99.07 90.37 99.03 C 90.82 102.73 94.14 102.83 97.10 102.19 C 98.48 97.98 95.41 95.81 91.49 96.38 C 91.41 95.25 91.33 94.12 91.25 93.00 C 93.15 92.68 95.05 92.38 96.94 92.06 C 96.88 90.46 96.81 88.87 96.73 87.28 C 95.23 87.22 93.72 87.18 92.22 87.15 C 91.40 90.20 88.99 91.09 86.14 90.03 Z" />
<path fill="#96644c" opacity="1.00" d=" M 144.64 88.63 C 146.42 85.41 148.50 81.70 152.85 83.04 C 153.24 87.91 153.12 92.79 153.10 97.67 C 153.67 98.04 154.80 98.79 155.36 99.16 C 155.36 99.82 155.36 101.14 155.36 101.80 C 154.85 102.17 153.83 102.89 153.33 103.26 C 153.19 104.03 152.93 105.58 152.79 106.35 C 151.27 106.35 149.75 106.33 148.23 106.31 C 148.10 105.37 147.83 103.50 147.70 102.57 C 144.46 102.59 141.23 102.57 138.00 102.55 C 137.29 97.03 142.41 93.21 144.64 88.63 M 143.55 98.29 C 145.01 98.32 146.46 98.35 147.92 98.39 C 147.88 96.03 147.85 93.68 147.82 91.32 C 146.37 93.63 144.94 95.95 143.55 98.29 Z" />
<path fill="#96644c" opacity="1.00" d=" M 34.47 135.53 C 39.31 135.41 44.15 135.51 48.99 135.43 C 49.17 136.75 49.35 138.07 49.53 139.40 C 46.12 139.67 42.70 139.67 39.28 139.64 C 39.24 141.02 39.20 142.40 39.15 143.78 C 42.59 143.69 47.80 142.39 49.53 146.39 C 50.40 149.99 50.97 154.49 48.65 157.65 C 43.63 160.87 33.19 160.01 34.14 152.02 C 35.46 151.80 36.79 151.59 38.11 151.39 C 38.99 154.38 42.57 156.45 45.09 153.92 C 45.33 151.96 45.48 149.87 44.71 148.01 C 41.38 146.21 37.97 149.69 34.42 148.71 C 34.29 144.31 34.27 139.92 34.47 135.53 Z" />
<path fill="#96644c" opacity="1.00" d=" M 87.12 137.23 C 91.59 133.00 103.86 134.21 101.77 142.64 C 100.37 142.63 98.98 142.62 97.58 142.62 C 97.12 141.57 96.66 140.53 96.21 139.49 C 94.64 139.49 93.07 139.50 91.50 139.51 C 91.31 141.20 91.11 142.88 90.93 144.57 C 94.56 144.22 100.10 142.84 101.89 147.13 C 102.79 151.13 103.52 158.25 97.96 158.96 C 93.79 159.57 86.30 159.99 86.25 154.03 C 86.44 148.48 85.19 142.53 87.12 137.23 M 91.45 148.50 C 91.21 150.54 91.17 152.60 91.30 154.65 C 95.99 156.53 99.27 152.78 96.70 148.37 C 94.95 148.43 93.20 148.47 91.45 148.50 Z" />
</g>
</svg>
