<?xml version="1.0" encoding="UTF-8" ?>
<!DOCTYPE svg PUBLIC "-//W3C//DTD SVG 1.1//EN" "http://www.w3.org/Graphics/SVG/1.1/DTD/svg11.dtd">
<svg width="192pt" height="192pt" viewBox="0 0 192 192" version="1.1" xmlns="http://www.w3.org/2000/svg">
<g id="#3db6cbff">
<path fill="#3db6cb" opacity="1.00" d=" M 37.37 21.51 C 42.80 20.11 48.46 20.64 54.01 20.55 C 84.98 20.60 115.96 20.41 146.93 20.61 C 159.29 20.59 170.41 31.62 170.20 44.02 C 170.22 78.34 170.19 112.67 170.17 147.00 C 170.46 159.43 159.54 170.78 147.07 170.76 C 112.69 170.82 78.32 170.75 43.95 170.74 C 34.50 170.97 25.39 164.83 21.90 156.07 C 19.63 151.02 20.12 145.38 20.09 140.00 C 20.11 107.64 20.01 75.29 20.08 42.93 C 20.42 33.06 27.88 24.04 37.37 21.51 M 31.58 44.02 C 31.51 63.37 31.57 82.72 31.57 102.07 C 44.43 98.51 57.95 97.43 71.17 99.37 C 70.44 75.90 89.91 54.34 112.98 51.38 C 129.93 48.52 147.92 55.69 158.67 69.01 C 158.53 60.40 158.86 51.78 158.53 43.18 C 158.12 36.90 152.24 32.06 146.08 32.14 C 112.03 32.09 77.98 32.12 43.93 32.13 C 37.53 32.05 31.51 37.50 31.58 44.02 M 106.40 64.47 C 91.51 70.00 80.88 85.91 82.07 101.65 C 86.99 103.41 91.97 105.01 96.71 107.23 C 107.86 112.24 120.95 113.87 132.59 109.57 C 142.59 106.06 150.87 98.93 157.40 90.74 C 152.46 69.17 126.89 55.78 106.40 64.47 M 92.99 118.00 C 73.97 108.73 51.39 106.95 31.39 114.14 C 31.42 125.11 31.37 136.09 31.41 147.07 C 31.23 153.72 37.29 159.70 43.94 159.43 C 77.98 159.43 112.02 159.41 146.05 159.40 C 152.78 159.78 158.92 153.80 158.77 147.08 C 158.79 133.46 158.86 119.83 158.70 106.21 C 142.02 123.49 114.66 128.31 92.99 118.00 Z" />
</g>
</svg>
