<?xml version="1.0" encoding="UTF-8" ?>
<!DOCTYPE svg PUBLIC "-//W3C//DTD SVG 1.1//EN" "http://www.w3.org/Graphics/SVG/1.1/DTD/svg11.dtd">
<svg width="192pt" height="192pt" viewBox="0 0 192 192" version="1.1" xmlns="http://www.w3.org/2000/svg">
<g id="#19aeffff">
<path fill="#19aeff" opacity="1.00" d=" M 41.57 26.55 C 43.68 23.38 46.97 20.65 50.99 20.77 C 80.32 20.70 109.66 20.76 139.00 20.73 C 142.98 20.59 146.64 22.87 148.86 26.08 C 156.94 37.01 165.19 47.82 173.27 58.75 C 176.40 62.59 176.10 68.19 172.97 71.93 C 149.56 103.17 126.17 134.43 102.67 165.59 C 99.40 170.60 91.56 170.81 88.18 165.81 C 71.10 143.22 54.19 120.49 37.18 97.84 C 34.53 94.61 34.03 89.85 36.16 86.22 C 53.28 65.14 82.12 53.79 108.99 59.17 C 125.06 62.09 139.71 70.69 151.10 82.27 C 155.44 76.57 159.75 70.85 163.98 65.07 C 156.01 54.37 147.98 43.70 140.01 33.00 C 138.87 31.45 136.65 32.02 135.00 31.86 C 108.67 32.26 82.32 32.21 55.99 31.83 C 54.08 31.96 51.47 31.36 50.40 33.45 C 42.56 44.02 34.59 54.51 26.75 65.10 C 28.83 68.82 32.21 71.86 33.47 75.98 C 34.46 81.19 26.91 84.66 23.79 80.23 C 19.89 74.51 12.36 67.99 16.47 60.44 C 24.48 48.90 33.29 37.91 41.57 26.55 M 47.52 90.50 C 47.30 95.02 52.01 97.98 54.09 101.66 C 64.26 91.14 78.27 84.08 93.03 83.61 C 109.29 82.80 125.37 89.98 136.46 101.72 C 139.12 98.31 141.85 94.94 144.16 91.27 C 137.22 84.12 129.11 77.98 119.87 74.14 C 95.49 63.34 65.03 70.62 47.52 90.50 M 61.00 110.82 C 63.61 114.41 66.28 117.96 68.98 121.49 C 82.39 106.04 108.31 106.13 121.68 121.59 C 124.30 118.01 127.00 114.49 129.63 110.91 C 122.04 102.39 111.51 96.27 100.06 95.09 C 85.43 93.19 70.62 99.91 61.00 110.82 M 75.95 130.79 C 78.17 133.77 80.37 136.76 82.62 139.73 C 89.20 132.31 101.34 132.61 108.12 139.59 C 110.35 136.69 112.54 133.75 114.71 130.79 C 105.56 118.11 85.04 117.97 75.95 130.79 M 91.73 146.73 C 88.02 150.11 93.62 153.78 95.55 156.55 C 97.35 153.96 99.24 151.45 101.09 148.91 C 99.11 145.93 94.73 144.02 91.73 146.73 Z" />
</g>
</svg>
