<?xml version="1.0" encoding="UTF-8" ?>
<!DOCTYPE svg PUBLIC "-//W3C//DTD SVG 1.1//EN" "http://www.w3.org/Graphics/SVG/1.1/DTD/svg11.dtd">
<svg width="192pt" height="192pt" viewBox="0 0 192 192" version="1.1" xmlns="http://www.w3.org/2000/svg">
<g id="#43e273ff">
<path fill="#43e273" opacity="1.00" d=" M 39.28 21.36 C 41.48 20.83 43.75 20.73 46.00 20.72 C 79.66 20.77 113.32 20.68 146.98 20.76 C 159.20 20.73 169.91 31.77 169.78 43.95 C 169.79 78.32 169.86 112.70 169.76 147.07 C 169.55 158.97 158.96 169.44 147.07 169.52 C 112.69 169.58 78.31 169.58 43.94 169.52 C 31.68 169.41 21.01 158.29 21.25 146.06 C 21.23 112.02 21.21 77.98 21.26 43.94 C 21.25 33.46 29.04 23.63 39.28 21.36 M 41.31 32.39 C 36.33 33.84 32.38 38.67 32.45 43.93 C 32.41 77.98 32.43 112.02 32.44 146.07 C 32.23 152.74 38.35 158.69 45.01 158.33 C 78.67 158.33 112.33 158.33 145.99 158.32 C 152.67 158.70 158.80 152.75 158.61 146.07 C 158.63 112.02 158.65 77.97 158.60 43.93 C 158.70 36.90 151.85 31.25 145.01 31.82 C 110.46 32.21 75.78 31.06 41.31 32.39 Z" />
<path fill="#43e273" opacity="1.00" d=" M 85.10 59.00 C 99.92 54.33 117.13 60.31 126.05 72.98 C 134.26 84.10 135.49 99.80 129.20 112.10 C 123.53 123.58 111.65 131.71 98.86 132.68 C 90.88 134.42 94.77 123.61 94.20 119.04 C 101.62 118.64 109.26 116.07 113.92 109.96 C 120.38 102.21 120.91 90.23 115.14 81.95 C 109.91 73.96 99.44 69.75 90.17 72.28 C 81.82 74.32 75.13 81.28 73.04 89.57 C 76.20 90.35 82.59 87.60 83.22 91.93 C 78.11 98.54 72.62 104.88 67.25 111.28 C 66.18 112.68 64.41 111.49 63.68 110.35 C 58.72 104.17 53.39 98.27 48.61 91.94 C 48.95 87.62 55.53 90.34 58.68 89.62 C 60.78 75.49 71.26 62.90 85.10 59.00 Z" />
</g>
</svg>
