<?xml version="1.0" encoding="UTF-8" ?>
<!DOCTYPE svg PUBLIC "-//W3C//DTD SVG 1.1//EN" "http://www.w3.org/Graphics/SVG/1.1/DTD/svg11.dtd">
<svg width="192pt" height="192pt" viewBox="0 0 192 192" version="1.1" xmlns="http://www.w3.org/2000/svg">
<g id="#f6b22dff">
<path fill="#f6b22d" opacity="1.00" d=" M 57.36 23.37 C 81.65 10.16 112.67 10.56 136.56 24.50 C 166.13 40.74 183.05 76.58 176.55 109.71 C 175.37 113.82 170.39 114.70 166.87 113.19 C 144.27 106.42 121.28 100.91 98.80 93.85 C 114.52 94.66 130.18 96.51 145.88 97.79 C 146.26 81.23 140.79 64.03 128.62 52.39 C 106.82 28.81 64.31 25.54 41.86 49.87 C 28.08 65.87 22.72 88.41 26.49 109.06 C 27.89 114.97 18.80 118.09 16.18 112.73 C 7.51 78.24 25.30 39.07 57.36 23.37 Z" />
<path fill="#f6b22d" opacity="1.00" d=" M 162.40 122.45 C 166.40 119.51 172.63 124.07 170.78 128.75 C 158.25 158.56 126.32 178.73 94.01 177.50 C 66.78 177.15 40.42 161.94 26.29 138.69 C 24.42 135.38 20.92 131.36 23.52 127.51 C 25.84 123.81 31.87 124.59 33.40 128.63 C 43.45 147.71 62.59 161.74 83.91 165.25 C 111.84 170.47 141.86 156.74 156.35 132.34 C 158.61 129.20 159.42 125.01 162.40 122.45 Z" />
</g>
</svg>
