<?xml version="1.0" encoding="UTF-8" ?>
<!DOCTYPE svg PUBLIC "-//W3C//DTD SVG 1.1//EN" "http://www.w3.org/Graphics/SVG/1.1/DTD/svg11.dtd">
<svg width="192pt" height="192pt" viewBox="0 0 192 192" version="1.1" xmlns="http://www.w3.org/2000/svg">
<g id="#ff881fff">
<path fill="#ff881f" opacity="1.00" d=" M 51.87 30.87 C 75.97 7.36 120.11 7.97 142.70 33.34 C 153.00 45.84 158.47 63.46 154.35 79.39 C 139.03 81.07 123.43 79.65 108.00 80.13 C 102.75 80.05 95.35 81.28 92.75 75.34 C 91.14 69.73 92.43 63.76 92.02 58.00 C 92.23 54.46 91.10 49.88 94.43 47.43 C 97.65 44.77 103.26 46.89 103.74 51.08 C 104.13 56.68 103.79 62.31 103.87 67.93 C 116.27 68.12 128.68 68.07 141.07 67.97 C 142.80 68.25 144.07 66.56 143.63 64.94 C 142.38 54.27 137.68 43.67 129.22 36.77 C 111.19 22.18 83.15 22.15 64.49 35.57 C 53.60 43.76 47.70 57.50 48.10 71.00 C 47.78 81.82 52.23 91.91 56.16 101.75 C 57.16 104.12 58.44 107.14 61.39 107.41 C 70.86 108.07 80.48 106.72 89.87 108.08 C 98.05 111.57 94.42 122.17 95.08 129.07 C 95.42 134.28 88.18 137.22 84.86 133.17 C 81.82 129.32 83.84 123.94 83.07 119.44 C 74.38 119.53 65.69 119.42 57.01 119.40 C 53.55 119.52 50.24 117.42 48.80 114.30 C 42.64 101.65 36.78 88.33 36.27 74.04 C 35.34 58.35 40.61 42.05 51.87 30.87 Z" />
<path fill="#ff881f" opacity="1.00" d=" M 134.67 94.66 C 136.69 90.72 143.09 91.21 144.65 95.30 C 146.16 98.21 144.06 101.08 142.62 103.52 C 128.07 127.21 113.94 151.21 98.05 174.04 C 95.61 178.27 89.15 178.75 86.41 174.57 C 78.08 163.06 69.89 151.34 62.86 138.99 C 60.30 133.23 69.03 128.10 72.82 133.18 C 79.19 142.78 85.24 152.62 91.99 161.98 C 107.88 140.65 121.46 117.71 134.67 94.66 Z" />
</g>
</svg>
