<?xml version="1.0" encoding="UTF-8" ?>
<!DOCTYPE svg PUBLIC "-//W3C//DTD SVG 1.1//EN" "http://www.w3.org/Graphics/SVG/1.1/DTD/svg11.dtd">
<svg width="192pt" height="192pt" viewBox="0 0 192 192" version="1.1" xmlns="http://www.w3.org/2000/svg">
<g id="#db468bff">
<path fill="#db468b" opacity="1.00" d=" M 55.28 20.25 C 78.11 8.24 106.75 7.58 129.86 19.17 C 135.57 22.71 130.13 32.09 124.14 28.87 C 104.34 21.52 80.79 27.02 66.01 42.01 C 46.68 60.51 44.86 93.50 61.94 114.08 C 66.92 118.70 59.69 126.92 54.54 122.51 C 40.54 107.00 35.66 84.13 40.89 64.01 C 44.23 50.25 52.66 38.30 63.15 29.01 C 45.37 37.07 31.60 53.10 25.72 71.65 C 17.49 96.55 24.76 125.63 43.67 143.78 C 46.68 140.43 49.35 136.76 52.48 133.52 C 55.32 130.47 61.03 132.04 61.94 136.10 C 62.92 139.67 59.66 142.20 57.73 144.70 C 54.02 148.72 51.03 153.44 46.82 156.97 C 42.12 159.27 38.52 154.32 35.48 151.53 C 12.46 129.39 4.78 93.24 16.59 63.60 C 23.66 45.08 37.70 29.38 55.28 20.25 Z" />
<path fill="#db468b" opacity="1.00" d=" M 138.61 31.56 C 140.29 29.11 143.80 27.73 146.45 29.50 C 172.42 49.76 183.29 86.70 172.97 117.92 C 166.79 137.67 152.84 154.79 134.75 164.84 C 111.75 177.84 82.36 179.02 58.58 167.38 C 54.97 165.71 54.65 160.15 57.92 157.96 C 60.82 155.80 64.38 157.71 67.41 158.49 C 89.01 164.99 113.91 156.29 127.14 138.12 C 140.76 120.31 141.30 93.94 128.44 75.58 C 126.75 72.87 123.48 70.23 124.56 66.66 C 125.53 62.39 131.74 61.13 134.31 64.68 C 147.70 80.76 152.47 103.53 146.63 123.64 C 143.17 136.80 134.93 148.17 124.80 157.05 C 141.75 149.59 154.95 134.62 161.26 117.30 C 170.82 91.86 163.94 61.21 144.18 42.49 C 140.85 46.06 138.17 50.25 134.48 53.46 C 130.17 56.69 123.66 51.11 126.42 46.38 C 130.15 41.19 134.60 36.54 138.61 31.56 Z" />
</g>
</svg>
