<?xml version="1.0" encoding="UTF-8" ?>
<!DOCTYPE svg PUBLIC "-//W3C//DTD SVG 1.1//EN" "http://www.w3.org/Graphics/SVG/1.1/DTD/svg11.dtd">
<svg width="192pt" height="192pt" viewBox="0 0 192 192" version="1.1" xmlns="http://www.w3.org/2000/svg">
<g id="#4a72c5ff">
<path fill="#4a72c5" opacity="1.00" d=" M 89.84 23.08 C 91.02 16.91 100.96 17.75 101.18 24.01 C 101.63 35.66 101.29 47.35 101.36 59.02 C 101.74 62.65 98.73 66.04 95.01 65.67 C 77.68 65.79 60.34 65.63 43.01 65.71 C 37.05 65.76 30.89 68.53 27.74 73.74 C 24.47 78.86 24.84 85.18 24.83 91.00 C 25.36 107.67 25.09 124.35 24.80 141.01 C 24.57 150.76 33.02 159.99 42.99 159.48 C 55.00 159.05 64.01 149.28 69.35 139.36 C 71.51 135.85 72.90 130.16 77.97 130.20 C 89.65 130.12 101.35 130.08 113.03 130.19 C 118.45 130.34 119.42 136.62 121.86 140.27 C 127.28 149.43 135.73 158.65 147.02 159.40 C 156.36 160.29 165.59 152.55 165.80 143.08 C 166.00 122.70 166.05 102.30 165.79 81.91 C 165.53 73.59 158.22 66.51 150.03 65.88 C 138.49 65.39 126.89 66.11 115.35 65.52 C 109.38 64.75 109.22 55.20 115.06 54.15 C 126.71 53.67 138.41 53.87 150.07 54.05 C 164.67 54.30 177.51 67.39 177.68 81.94 C 177.85 102.63 177.93 123.33 177.66 144.01 C 177.16 160.24 160.92 173.36 144.97 171.17 C 130.55 169.70 119.08 158.92 112.17 146.81 C 110.79 144.97 109.95 141.59 107.02 142.13 C 98.49 142.21 89.96 141.99 81.43 142.27 C 74.40 156.19 62.25 169.29 46.01 171.23 C 30.03 173.27 13.82 160.40 13.24 144.08 C 13.05 123.37 13.12 102.64 13.23 81.92 C 13.43 67.32 26.35 54.36 40.94 54.10 C 57.14 53.95 73.34 54.18 89.54 53.93 C 89.72 43.65 89.12 33.32 89.84 23.08 Z" />
<path fill="#4a72c5" opacity="1.00" d=" M 54.81 80.92 C 56.50 76.08 64.21 76.47 65.65 81.25 C 66.54 85.76 65.95 90.39 66.08 94.95 C 70.63 95.22 75.24 94.62 79.75 95.33 C 84.63 96.81 85.04 104.51 80.16 106.31 C 75.57 107.23 70.82 106.59 66.17 106.76 C 65.88 111.39 66.62 116.14 65.60 120.70 C 63.96 125.69 55.94 125.47 54.60 120.38 C 53.84 115.89 54.43 111.30 54.21 106.77 C 49.68 106.61 45.09 107.09 40.59 106.43 C 35.53 105.04 35.38 97.07 40.34 95.44 C 44.91 94.56 49.62 95.26 54.24 95.02 C 54.52 90.33 53.65 85.50 54.81 80.92 Z" />
<path fill="#4a72c5" opacity="1.00" d=" M 125.29 78.31 C 142.14 72.57 160.24 90.59 154.45 107.45 C 150.31 124.35 126.30 130.29 114.85 117.14 C 102.48 105.42 108.79 82.31 125.29 78.31 M 129.37 89.49 C 120.52 90.94 116.94 103.39 123.74 109.25 C 129.60 115.48 141.17 112.23 143.10 103.97 C 145.62 95.95 137.51 87.37 129.37 89.49 Z" />
</g>
</svg>
