<?xml version="1.0" encoding="UTF-8" ?>
<!DOCTYPE svg PUBLIC "-//W3C//DTD SVG 1.1//EN" "http://www.w3.org/Graphics/SVG/1.1/DTD/svg11.dtd">
<svg width="192pt" height="192pt" viewBox="0 0 192 192" version="1.1" xmlns="http://www.w3.org/2000/svg">
<g id="#18b9c5ff">
<path fill="#18b9c5" opacity="1.00" d=" M 89.83 23.08 C 91.01 16.91 100.96 17.74 101.18 24.00 C 101.61 35.66 101.28 47.35 101.35 59.02 C 101.65 62.25 99.29 65.63 95.87 65.60 C 77.92 65.91 59.95 65.53 42.00 65.77 C 32.84 65.84 24.96 73.80 24.98 82.96 C 24.75 100.63 25.54 118.33 24.81 136.01 C 24.50 141.68 24.93 147.83 28.60 152.45 C 33.04 158.62 41.54 160.98 48.66 158.57 C 59.09 155.36 66.05 146.07 70.76 136.72 C 72.20 133.77 74.12 130.02 77.96 130.19 C 89.65 130.12 101.35 130.09 113.03 130.20 C 118.42 130.33 119.39 136.57 121.80 140.20 C 127.23 149.40 135.70 158.67 147.03 159.42 C 156.35 160.29 165.63 152.56 165.81 143.08 C 166.00 122.69 166.05 102.30 165.80 81.91 C 165.55 73.58 158.22 66.48 150.02 65.86 C 138.48 65.39 126.89 66.09 115.35 65.52 C 109.37 64.74 109.23 55.22 115.05 54.13 C 127.05 53.71 139.09 53.81 151.10 54.11 C 165.29 54.90 177.49 67.75 177.67 81.94 C 177.82 102.63 177.90 123.32 177.64 144.00 C 177.13 159.84 161.63 172.81 145.99 171.24 C 131.16 170.19 119.23 159.20 112.18 146.81 C 110.80 144.96 109.97 141.55 107.03 142.11 C 98.49 142.22 89.94 141.95 81.40 142.27 C 74.40 156.19 62.23 169.28 46.01 171.21 C 30.02 173.26 13.82 160.39 13.23 144.08 C 13.03 123.37 13.10 102.64 13.20 81.93 C 13.41 67.29 26.34 54.39 40.94 54.05 C 57.13 53.82 73.34 54.07 89.53 53.93 C 89.71 43.65 89.12 33.32 89.83 23.08 Z" />
<path fill="#18b9c5" opacity="1.00" d=" M 54.80 80.90 C 56.51 76.08 64.20 76.44 65.65 81.24 C 66.51 85.75 65.94 90.39 66.07 94.95 C 70.62 95.21 75.24 94.59 79.76 95.33 C 84.63 96.81 85.03 104.50 80.15 106.30 C 75.56 107.24 70.81 106.58 66.15 106.76 C 65.86 111.39 66.61 116.13 65.59 120.69 C 63.96 125.67 55.95 125.46 54.60 120.38 C 53.83 115.90 54.43 111.30 54.20 106.78 C 49.67 106.61 45.10 107.10 40.60 106.43 C 35.53 105.06 35.36 97.07 40.33 95.44 C 44.88 94.47 49.61 95.25 54.23 95.00 C 54.51 90.32 53.63 85.48 54.80 80.90 Z" />
<path fill="#18b9c5" opacity="1.00" d=" M 125.29 78.31 C 142.14 72.57 160.23 90.58 154.43 107.44 C 150.29 124.33 126.31 130.26 114.86 117.13 C 102.49 105.41 108.78 82.31 125.29 78.31 M 129.36 89.48 C 124.08 90.52 119.92 95.60 120.16 101.01 C 119.96 107.75 126.70 113.51 133.32 112.44 C 139.63 111.80 144.61 105.28 143.34 99.00 C 142.43 92.62 135.66 87.94 129.36 89.48 Z" />
</g>
</svg>
