<?xml version="1.0" encoding="UTF-8" ?>
<!DOCTYPE svg PUBLIC "-//W3C//DTD SVG 1.1//EN" "http://www.w3.org/Graphics/SVG/1.1/DTD/svg11.dtd">
<svg width="192pt" height="192pt" viewBox="0 0 192 192" version="1.1" xmlns="http://www.w3.org/2000/svg">
<g id="#ff663bff">
<path fill="#ff663b" opacity="1.00" d=" M 89.83 23.07 C 91.02 16.91 100.98 17.74 101.19 24.01 C 101.60 35.66 101.28 47.35 101.35 59.02 C 101.65 62.25 99.29 65.61 95.87 65.60 C 77.58 65.97 59.26 65.42 40.98 65.86 C 31.77 66.36 24.56 74.89 24.93 83.99 C 24.99 102.99 25.31 122.00 24.80 141.00 C 24.50 151.12 33.67 160.54 43.96 159.44 C 55.83 158.44 64.48 148.62 69.71 138.70 C 71.65 135.32 73.19 130.12 77.96 130.19 C 89.65 130.13 101.35 130.10 113.04 130.20 C 118.43 130.34 119.38 136.59 121.80 140.21 C 127.36 149.66 136.25 159.26 147.99 159.45 C 157.01 159.83 165.63 152.19 165.82 143.08 C 165.99 122.69 166.05 102.30 165.80 81.91 C 165.56 73.58 158.23 66.48 150.03 65.85 C 138.48 65.40 126.89 66.09 115.35 65.52 C 109.38 64.72 109.22 55.23 115.04 54.13 C 127.04 53.71 139.08 53.81 151.09 54.11 C 165.28 54.90 177.48 67.76 177.66 81.94 C 177.81 102.63 177.89 123.32 177.63 144.01 C 177.11 159.84 161.62 172.78 146.00 171.23 C 131.17 170.18 119.24 159.20 112.18 146.81 C 110.80 144.96 109.98 141.53 107.03 142.11 C 98.48 142.22 89.93 141.94 81.39 142.27 C 74.38 156.18 62.23 169.27 46.01 171.20 C 30.03 173.26 13.83 160.39 13.23 144.09 C 13.02 123.37 13.09 102.64 13.19 81.92 C 13.42 67.29 26.33 54.38 40.94 54.03 C 57.14 53.83 73.33 54.07 89.53 53.92 C 89.71 43.64 89.11 33.31 89.83 23.07 Z" />
<path fill="#ff663b" opacity="1.00" d=" M 54.80 80.90 C 56.51 76.07 64.20 76.46 65.66 81.24 C 66.51 85.75 65.94 90.39 66.07 94.95 C 70.62 95.21 75.25 94.58 79.76 95.33 C 84.63 96.82 85.02 104.51 80.14 106.30 C 75.56 107.24 70.80 106.57 66.15 106.76 C 65.85 111.39 66.61 116.13 65.59 120.69 C 63.95 125.66 55.96 125.46 54.60 120.38 C 53.82 115.90 54.43 111.30 54.20 106.78 C 49.67 106.61 45.09 107.11 40.60 106.43 C 35.52 105.06 35.36 97.06 40.33 95.43 C 44.88 94.46 49.61 95.25 54.23 94.99 C 54.51 90.31 53.61 85.48 54.80 80.90 Z" />
<path fill="#ff663b" opacity="1.00" d=" M 125.28 78.31 C 142.12 72.57 160.22 90.57 154.42 107.43 C 150.30 124.32 126.31 130.25 114.86 117.12 C 102.49 105.41 108.79 82.32 125.28 78.31 M 129.36 89.47 C 124.08 90.52 119.91 95.59 120.16 101.01 C 119.96 107.76 126.69 113.52 133.32 112.45 C 139.63 111.80 144.61 105.29 143.35 99.00 C 142.43 92.62 135.66 87.94 129.36 89.47 Z" />
</g>
</svg>
