<?xml version="1.0" encoding="UTF-8" ?>
<!DOCTYPE svg PUBLIC "-//W3C//DTD SVG 1.1//EN" "http://www.w3.org/Graphics/SVG/1.1/DTD/svg11.dtd">
<svg width="192pt" height="192pt" viewBox="0 0 192 192" version="1.1" xmlns="http://www.w3.org/2000/svg">
<g id="#98654dff">
<path fill="#98654d" opacity="1.00" d=" M 89.84 23.08 C 91.01 16.90 100.97 17.75 101.20 24.01 C 101.66 35.66 101.30 47.35 101.38 59.02 C 101.65 62.23 99.34 65.72 95.87 65.62 C 77.58 65.99 59.26 65.41 40.97 65.88 C 31.78 66.40 24.60 74.89 24.96 83.98 C 24.98 102.65 25.46 121.34 24.78 140.00 C 24.19 149.71 31.98 159.42 42.00 159.47 C 54.43 159.65 63.89 149.54 69.35 139.36 C 71.51 135.85 72.90 130.16 77.97 130.20 C 89.65 130.12 101.35 130.09 113.03 130.20 C 118.41 130.34 119.42 136.57 121.82 140.20 C 127.23 149.40 135.70 158.66 147.02 159.41 C 156.35 160.30 165.61 152.56 165.80 143.08 C 165.99 122.70 166.06 102.30 165.78 81.92 C 165.54 73.59 158.22 66.53 150.04 65.89 C 138.48 65.39 126.88 66.13 115.34 65.53 C 109.39 64.77 109.21 55.20 115.05 54.15 C 126.71 53.66 138.41 53.87 150.08 54.05 C 164.67 54.31 177.51 67.38 177.68 81.93 C 177.84 102.62 177.91 123.32 177.66 144.01 C 177.18 159.51 162.33 172.29 147.01 171.35 C 133.11 170.77 121.31 161.30 114.11 149.95 C 112.26 147.47 111.21 144.23 108.77 142.29 C 99.68 142.04 90.56 142.13 81.46 142.28 C 74.53 155.91 62.83 168.71 47.04 171.12 C 30.77 173.81 13.80 160.78 13.23 144.08 C 13.03 123.36 13.10 102.64 13.21 81.92 C 13.43 67.67 25.71 54.95 39.92 54.13 C 56.45 53.82 72.99 54.06 89.52 53.92 C 89.73 43.65 89.09 33.32 89.84 23.08 Z" />
<path fill="#98654d" opacity="1.00" d=" M 54.81 80.90 C 56.52 76.07 64.22 76.47 65.66 81.25 C 66.57 85.75 65.97 90.38 66.09 94.94 C 70.64 95.20 75.25 94.60 79.75 95.33 C 84.63 96.81 85.07 104.53 80.17 106.33 C 75.58 107.23 70.84 106.61 66.19 106.77 C 65.90 111.40 66.64 116.15 65.61 120.71 C 63.99 125.73 55.94 125.49 54.60 120.40 C 53.83 115.91 54.43 111.31 54.17 106.79 C 49.65 106.63 45.07 107.11 40.58 106.45 C 35.53 105.08 35.36 97.05 40.34 95.44 C 44.89 94.47 49.61 95.24 54.23 95.00 C 54.50 90.31 53.63 85.48 54.81 80.90 Z" />
<path fill="#98654d" opacity="1.00" d=" M 125.30 78.31 C 142.45 72.43 160.72 91.23 154.23 108.19 C 149.62 124.63 126.09 130.07 114.85 117.14 C 102.49 105.42 108.79 82.30 125.30 78.31 M 129.37 89.51 C 120.84 90.93 117.08 102.66 123.23 108.75 C 128.67 115.24 140.26 112.86 142.83 104.84 C 146.14 96.70 137.87 87.27 129.37 89.51 Z" />
</g>
</svg>
