<?xml version="1.0" encoding="UTF-8" ?>
<!DOCTYPE svg PUBLIC "-//W3C//DTD SVG 1.1//EN" "http://www.w3.org/Graphics/SVG/1.1/DTD/svg11.dtd">
<svg width="192pt" height="192pt" viewBox="0 0 192 192" version="1.1" xmlns="http://www.w3.org/2000/svg">
<g id="#ff3662ff">
<path fill="#ff3662" opacity="1.00" d=" M 91.02 14.09 C 98.53 11.19 106.78 16.66 108.31 24.27 C 126.15 24.42 144.02 23.99 161.84 24.46 C 167.97 25.27 167.29 35.44 161.04 35.38 C 117.36 35.58 73.65 35.51 29.97 35.40 C 23.30 35.88 22.55 24.91 29.14 24.42 C 46.76 23.99 64.41 24.54 82.03 24.17 C 84.07 20.10 86.18 15.42 91.02 14.09 Z" />
<path fill="#ff3662" opacity="1.00" d=" M 42.28 39.28 C 46.00 37.42 50.54 40.88 50.05 44.93 C 50.18 84.30 50.08 123.68 50.10 163.05 C 50.04 164.21 50.32 166.20 51.96 165.94 C 79.98 166.10 108.02 165.92 136.04 166.02 C 137.67 165.86 140.94 166.45 140.49 163.82 C 140.69 123.88 140.35 83.91 140.66 43.98 C 140.64 37.15 151.82 37.32 151.64 44.11 C 151.85 84.09 151.71 124.08 151.72 164.07 C 152.08 171.42 145.29 177.75 138.01 177.24 C 109.33 177.24 80.64 177.32 51.96 177.21 C 44.87 177.45 38.62 171.14 38.94 164.05 C 38.81 125.03 38.95 86.01 38.87 46.99 C 38.77 44.11 39.16 40.46 42.28 39.28 Z" />
<path fill="#ff3662" opacity="1.00" d=" M 67.36 50.33 C 71.18 48.14 76.06 51.76 75.49 56.02 C 75.44 87.54 75.69 119.09 75.37 150.61 C 74.94 157.16 64.14 156.58 64.41 150.02 C 64.20 119.00 64.41 87.96 64.32 56.93 C 64.20 54.41 64.82 51.47 67.36 50.33 Z" />
<path fill="#ff3662" opacity="1.00" d=" M 93.23 50.10 C 96.99 48.40 101.42 51.88 100.87 55.92 C 100.86 87.29 101.00 118.67 100.82 150.04 C 101.04 156.93 89.67 156.96 89.80 150.07 C 89.58 119.05 89.79 88.01 89.70 56.98 C 89.52 54.26 90.43 51.13 93.23 50.10 Z" />
<path fill="#ff3662" opacity="1.00" d=" M 118.30 50.26 C 122.10 48.20 126.87 51.77 126.31 55.96 C 126.33 87.32 126.44 118.69 126.26 150.05 C 126.46 156.44 116.05 157.22 115.33 150.89 C 114.89 119.94 115.33 88.95 115.12 57.98 C 115.01 55.13 115.25 51.54 118.30 50.26 Z" />
</g>
</svg>
