<?xml version="1.0" encoding="UTF-8" ?>
<!DOCTYPE svg PUBLIC "-//W3C//DTD SVG 1.1//EN" "http://www.w3.org/Graphics/SVG/1.1/DTD/svg11.dtd">
<svg width="192pt" height="192pt" viewBox="0 0 192 192" version="1.1" xmlns="http://www.w3.org/2000/svg">
<g id="#ee35b6ff">
<path fill="#ee35b6" opacity="1.00" d=" M 89.86 23.08 C 91.01 16.92 100.96 17.76 101.16 24.01 C 101.61 35.66 101.27 47.35 101.33 59.01 C 101.72 62.64 98.70 65.98 95.01 65.65 C 77.34 65.81 59.67 65.54 42.00 65.73 C 32.82 65.80 24.94 73.78 24.94 82.95 C 24.60 101.97 25.46 120.99 24.76 140.00 C 24.06 150.09 32.61 160.02 42.99 159.48 C 55.00 159.04 64.02 149.29 69.35 139.35 C 71.50 135.84 72.90 130.17 77.96 130.21 C 89.65 130.11 101.35 130.08 113.04 130.20 C 118.42 130.34 119.40 136.57 121.82 140.20 C 127.23 149.39 135.71 158.66 147.03 159.40 C 156.35 160.27 165.59 152.55 165.80 143.09 C 166.00 122.70 166.06 102.30 165.79 81.92 C 165.54 73.59 158.23 66.46 150.02 65.86 C 138.48 65.37 126.89 66.12 115.35 65.49 C 109.38 64.74 109.23 55.20 115.05 54.16 C 126.71 53.65 138.40 53.88 150.07 54.05 C 164.67 54.30 177.48 67.38 177.67 81.93 C 177.84 102.62 177.94 123.32 177.65 144.01 C 177.12 159.85 161.64 172.81 146.01 171.24 C 131.17 170.21 119.22 159.21 112.18 146.80 C 110.80 144.96 109.94 141.58 107.02 142.10 C 98.52 142.32 89.94 141.68 81.48 142.43 C 74.41 155.54 63.41 168.18 48.02 170.90 C 31.85 174.16 14.47 161.68 13.32 145.02 C 12.97 124.00 13.18 102.95 13.24 81.92 C 13.43 67.33 26.36 54.37 40.94 54.11 C 57.14 53.94 73.35 54.23 89.55 53.92 C 89.73 43.64 89.12 33.32 89.86 23.08 Z" />
<path fill="#ee35b6" opacity="1.00" d=" M 54.82 80.93 C 56.49 76.09 64.22 76.47 65.63 81.25 C 66.48 85.78 65.96 90.43 66.07 95.02 C 70.62 95.20 75.24 94.62 79.75 95.35 C 84.62 96.79 85.02 104.52 80.14 106.27 C 75.54 107.23 70.78 106.58 66.12 106.74 C 65.90 111.38 66.57 116.11 65.58 120.68 C 63.95 125.64 55.95 125.44 54.62 120.37 C 53.84 115.88 54.42 111.28 54.23 106.75 C 49.70 106.60 45.11 107.09 40.62 106.40 C 35.54 105.06 35.37 97.06 40.34 95.45 C 44.91 94.58 49.63 95.23 54.26 95.04 C 54.50 90.35 53.66 85.52 54.82 80.93 Z" />
<path fill="#ee35b6" opacity="1.00" d=" M 125.28 78.31 C 142.14 72.56 160.23 90.58 154.43 107.44 C 150.29 124.33 126.31 130.25 114.86 117.12 C 102.49 105.40 108.79 82.32 125.28 78.31 M 129.37 89.47 C 124.08 90.51 119.92 95.59 120.15 101.01 C 119.98 107.62 126.46 113.34 132.99 112.47 C 139.44 112.00 144.63 105.39 143.33 99.01 C 142.44 92.63 135.66 87.94 129.37 89.47 Z" />
</g>
</svg>
