<?xml version="1.0" encoding="UTF-8" ?>
<!DOCTYPE svg PUBLIC "-//W3C//DTD SVG 1.1//EN" "http://www.w3.org/Graphics/SVG/1.1/DTD/svg11.dtd">
<svg width="192pt" height="192pt" viewBox="0 0 192 192" version="1.1" xmlns="http://www.w3.org/2000/svg">
<g id="#f6b32eff">
<path fill="#f6b32e" opacity="1.00" d=" M 89.86 23.08 C 90.99 16.91 100.99 17.74 101.17 24.01 C 101.60 35.66 101.28 47.35 101.33 59.02 C 101.72 62.65 98.71 65.98 95.01 65.66 C 77.68 65.79 60.34 65.62 43.01 65.71 C 36.80 65.73 30.39 68.77 27.36 74.36 C 24.29 79.70 24.90 86.08 24.86 92.00 C 25.29 108.33 25.07 124.67 24.80 141.00 C 24.54 150.76 33.02 159.98 42.99 159.48 C 55.00 159.05 64.02 149.29 69.35 139.36 C 71.50 135.85 72.90 130.18 77.96 130.21 C 89.65 130.12 101.35 130.08 113.04 130.21 C 118.42 130.35 119.39 136.58 121.81 140.21 C 127.22 149.41 135.70 158.67 147.03 159.42 C 156.35 160.29 165.63 152.57 165.81 143.09 C 166.00 122.70 166.06 102.30 165.80 81.92 C 165.56 73.58 158.23 66.45 150.01 65.85 C 138.47 65.36 126.88 66.11 115.36 65.50 C 109.38 64.76 109.22 55.19 115.05 54.15 C 126.71 53.66 138.40 53.87 150.07 54.06 C 164.67 54.30 177.48 67.39 177.66 81.94 C 177.82 102.63 177.90 123.32 177.63 144.01 C 177.10 160.21 160.90 173.32 144.97 171.12 C 130.56 169.67 119.09 158.90 112.19 146.80 C 110.81 144.96 109.95 141.57 107.03 142.10 C 98.52 142.31 89.95 141.68 81.48 142.42 C 74.40 155.52 63.41 168.18 48.03 170.90 C 31.85 174.15 14.47 161.70 13.31 145.03 C 12.93 124.01 13.14 102.96 13.20 81.93 C 13.42 67.30 26.34 54.38 40.94 54.05 C 57.14 53.83 73.34 54.06 89.53 53.93 C 89.74 43.66 89.08 33.32 89.86 23.08 Z" />
<path fill="#f6b32e" opacity="1.00" d=" M 54.80 80.91 C 56.49 76.08 64.21 76.43 65.64 81.24 C 66.48 85.76 65.96 90.40 66.05 94.97 C 70.62 95.17 75.25 94.60 79.77 95.34 C 84.62 96.81 85.02 104.52 80.14 106.27 C 75.55 107.24 70.78 106.59 66.12 106.75 C 65.90 111.38 66.57 116.12 65.58 120.69 C 63.96 125.64 55.94 125.45 54.61 120.38 C 53.82 115.89 54.40 111.29 54.22 106.76 C 49.64 106.61 44.99 107.14 40.45 106.36 C 35.50 104.89 35.43 97.03 40.33 95.44 C 44.89 94.48 49.62 95.20 54.24 95.02 C 54.48 90.33 53.64 85.50 54.80 80.91 Z" />
<path fill="#f6b32e" opacity="1.00" d=" M 125.28 78.31 C 142.12 72.57 160.21 90.58 154.42 107.43 C 150.29 124.31 126.31 130.23 114.86 117.12 C 102.49 105.41 108.78 82.31 125.28 78.31 M 129.35 89.47 C 123.71 90.55 119.47 96.26 120.20 101.99 C 120.60 108.60 127.53 113.78 133.99 112.34 C 140.37 111.32 144.98 104.29 143.13 98.04 C 141.78 92.10 135.31 88.03 129.35 89.47 Z" />
</g>
</svg>
