<?xml version="1.0" encoding="UTF-8" ?>
<!DOCTYPE svg PUBLIC "-//W3C//DTD SVG 1.1//EN" "http://www.w3.org/Graphics/SVG/1.1/DTD/svg11.dtd">
<svg width="192pt" height="192pt" viewBox="0 0 192 192" version="1.1" xmlns="http://www.w3.org/2000/svg">
<g id="#1bb4ffff">
<path fill="#1bb4ff" opacity="1.00" d=" M 89.84 23.08 C 91.02 16.93 100.96 17.74 101.18 24.00 C 101.59 35.65 101.27 47.35 101.34 59.02 C 101.73 62.65 98.70 65.99 95.01 65.66 C 78.01 65.76 61.01 65.67 44.01 65.68 C 34.19 64.89 24.87 72.96 24.97 82.96 C 24.83 101.97 25.42 120.99 24.77 140.00 C 24.06 150.09 32.62 160.01 42.99 159.48 C 55.00 159.04 64.02 149.28 69.35 139.36 C 71.50 135.84 72.90 130.16 77.97 130.20 C 89.65 130.12 101.35 130.09 113.04 130.20 C 117.87 130.21 119.14 135.55 121.11 138.95 C 126.37 148.42 134.67 157.97 146.04 159.35 C 155.66 160.75 165.62 152.94 165.81 143.08 C 166.00 122.69 166.05 102.30 165.80 81.91 C 165.55 73.58 158.23 66.45 150.01 65.85 C 138.47 65.39 126.89 66.09 115.36 65.50 C 109.38 64.74 109.22 55.22 115.05 54.14 C 127.05 53.70 139.09 53.81 151.10 54.12 C 165.30 54.89 177.47 67.76 177.66 81.94 C 177.82 102.63 177.90 123.32 177.63 144.01 C 177.11 160.21 160.91 173.32 144.98 171.13 C 130.56 169.68 119.09 158.90 112.18 146.80 C 110.80 144.95 109.97 141.53 107.02 142.09 C 98.48 142.45 89.90 141.45 81.39 142.27 C 74.38 156.17 62.23 169.27 46.01 171.19 C 30.04 173.25 13.83 160.39 13.24 144.09 C 13.03 123.37 13.11 102.65 13.21 81.93 C 13.42 67.32 26.34 54.35 40.94 54.07 C 57.14 53.94 73.34 53.99 89.54 53.92 C 89.72 43.65 89.12 33.32 89.84 23.08 Z" />
<path fill="#1bb4ff" opacity="1.00" d=" M 54.80 80.92 C 56.50 76.09 64.20 76.44 65.64 81.24 C 66.49 85.76 65.94 90.39 66.06 94.96 C 70.61 95.21 75.24 94.60 79.75 95.33 C 84.63 96.80 85.01 104.50 80.14 106.29 C 75.55 107.23 70.79 106.57 66.13 106.75 C 65.86 111.38 66.59 116.12 65.58 120.69 C 63.94 125.64 55.95 125.45 54.60 120.37 C 53.83 115.89 54.42 111.29 54.21 106.76 C 49.63 106.58 44.98 107.14 40.45 106.37 C 35.51 104.87 35.44 97.04 40.34 95.44 C 44.89 94.47 49.61 95.24 54.24 95.01 C 54.51 90.33 53.64 85.50 54.80 80.92 Z" />
<path fill="#1bb4ff" opacity="1.00" d=" M 125.28 78.31 C 142.13 72.57 160.22 90.58 154.42 107.44 C 150.28 124.31 126.32 130.23 114.87 117.12 C 102.49 105.41 108.78 82.31 125.28 78.31 M 129.36 89.46 C 124.07 90.51 119.91 95.59 120.15 101.01 C 119.98 107.62 126.44 113.35 132.98 112.48 C 139.48 112.03 144.68 105.31 143.32 98.90 C 142.37 92.56 135.62 87.94 129.36 89.46 Z" />
</g>
</svg>
