<?xml version="1.0" encoding="UTF-8" ?>
<!DOCTYPE svg PUBLIC "-//W3C//DTD SVG 1.1//EN" "http://www.w3.org/Graphics/SVG/1.1/DTD/svg11.dtd">
<svg width="192pt" height="192pt" viewBox="0 0 192 192" version="1.1" xmlns="http://www.w3.org/2000/svg">
<g id="#5f6f80ff">
<path fill="#5f6f80" opacity="1.00" d=" M 41.35 26.44 C 44.82 25.53 48.44 25.66 52.00 25.65 C 82.66 25.74 113.33 25.56 144.00 25.73 C 155.54 25.93 165.40 36.51 165.17 47.98 C 165.20 80.00 165.26 112.03 165.14 144.04 C 165.20 155.70 154.77 166.13 143.06 165.78 C 111.02 165.82 78.98 165.81 46.94 165.77 C 35.31 166.09 24.91 155.67 25.02 144.07 C 24.93 112.03 25.06 79.99 25.02 47.95 C 24.77 38.15 31.89 28.87 41.35 26.44 M 44.39 36.57 C 38.89 37.74 35.11 43.42 35.50 48.94 C 35.51 80.31 35.49 111.68 35.51 143.05 C 35.15 149.38 40.55 155.37 46.98 155.23 C 78.99 155.28 111.01 155.28 143.03 155.21 C 149.47 155.40 154.96 149.41 154.55 143.05 C 154.54 111.35 154.59 79.64 154.53 47.94 C 154.74 41.38 148.62 35.60 142.06 36.29 C 109.51 36.50 76.92 35.93 44.39 36.57 Z" />
<path fill="#5f6f80" opacity="1.00" d=" M 57.42 76.42 C 59.73 71.32 65.94 70.38 70.93 70.31 C 90.31 70.35 109.70 70.33 129.08 70.32 C 134.66 69.54 133.76 77.09 132.56 80.47 C 126.37 90.47 119.52 100.08 112.96 109.84 C 118.66 110.07 124.37 109.95 130.07 109.99 C 135.64 108.96 135.60 117.52 132.94 120.20 C 122.64 120.83 112.28 120.33 101.96 120.46 C 95.80 121.12 97.14 112.52 99.01 109.01 C 105.20 99.51 111.80 90.26 117.88 80.69 C 109.43 80.67 100.98 80.70 92.53 80.67 C 92.50 82.53 92.25 84.39 92.28 86.25 C 88.54 87.17 81.27 89.17 80.26 83.85 C 79.29 76.18 63.88 79.26 68.52 87.57 C 75.13 92.50 85.58 90.06 91.62 96.37 C 94.54 101.46 94.01 107.99 92.59 113.49 C 90.84 119.17 84.32 120.74 79.07 120.69 C 73.44 120.64 67.41 121.38 62.21 118.77 C 57.77 116.39 56.28 110.75 56.87 106.06 C 58.03 102.74 62.44 104.29 65.11 103.98 C 70.47 103.15 67.46 111.92 72.92 111.19 C 78.73 113.26 84.17 107.94 80.60 102.44 C 73.61 98.40 63.87 100.18 57.88 94.15 C 54.98 88.86 55.36 81.96 57.42 76.42 Z" />
</g>
</svg>
