<?xml version="1.0" encoding="UTF-8" ?>
<!DOCTYPE svg PUBLIC "-//W3C//DTD SVG 1.1//EN" "http://www.w3.org/Graphics/SVG/1.1/DTD/svg11.dtd">
<svg width="192pt" height="192pt" viewBox="0 0 192 192" version="1.1" xmlns="http://www.w3.org/2000/svg">
<g id="#9ba4acff">
<path fill="#9ba4ac" opacity="1.00" d=" M 100.48 15.66 C 113.77 9.36 131.66 13.80 140.03 26.00 C 147.96 38.68 143.73 54.39 139.54 67.60 C 138.77 71.26 135.16 74.15 131.42 72.49 C 124.89 68.91 119.01 64.25 112.82 60.11 C 106.79 62.63 101.34 66.81 94.99 68.36 C 89.12 66.37 84.06 62.59 78.37 60.16 C 73.75 64.94 69.54 70.40 63.69 73.74 C 59.54 76.01 54.80 72.19 54.10 68.00 C 50.48 54.13 50.96 37.82 60.14 26.11 C 67.73 16.09 82.00 12.05 93.79 16.28 C 96.01 17.34 98.37 16.60 100.48 15.66 M 91.63 27.24 C 84.33 24.02 75.08 25.78 69.80 31.85 C 63.32 39.27 61.78 50.03 63.55 59.47 C 67.98 56.01 70.83 50.34 76.16 48.23 C 83.16 48.65 89.02 53.54 95.18 56.53 C 101.57 54.10 107.15 49.09 113.97 48.19 C 120.04 50.68 124.95 55.50 130.52 58.95 C 132.66 51.01 135.09 42.23 131.91 34.23 C 129.13 27.61 121.72 24.67 115.05 23.89 C 106.86 22.33 99.72 31.03 91.63 27.24 Z" />
<path fill="#9ba4ac" opacity="1.00" d=" M 76.33 76.17 C 75.25 67.40 91.96 69.29 87.28 76.95 C 85.48 75.16 83.71 72.83 80.86 73.24 C 80.06 74.34 79.26 75.43 78.45 76.53 C 77.92 76.44 76.86 76.26 76.33 76.17 Z" />
<path fill="#9ba4ac" opacity="1.00" d=" M 110.48 76.87 C 107.17 74.54 110.92 70.11 114.03 70.17 C 117.34 69.45 121.90 72.79 120.42 76.33 C 117.75 76.45 116.60 72.69 113.61 73.14 C 112.57 74.39 111.54 75.63 110.48 76.87 Z" />
<path fill="#9ba4ac" opacity="1.00" d=" M 27.76 78.95 C 26.77 75.00 30.92 71.20 34.75 72.42 C 55.20 77.24 75.50 82.82 96.00 87.31 C 116.49 82.76 136.78 77.12 157.24 72.34 C 161.09 71.26 164.90 75.19 163.99 79.02 C 163.17 84.91 162.78 90.88 161.62 96.72 C 160.45 100.54 156.05 100.11 152.95 100.98 C 153.38 104.63 159.44 104.72 159.03 109.02 C 158.10 115.70 156.39 122.28 154.91 128.87 C 153.60 134.35 147.90 136.79 142.96 138.06 C 130.06 141.40 116.98 144.01 104.04 147.16 C 100.31 147.96 96.47 149.44 92.65 148.29 C 76.62 144.43 60.42 141.13 44.58 136.58 C 36.41 133.86 35.61 124.24 34.91 116.98 C 34.24 112.84 38.71 111.31 41.21 109.10 C 37.95 108.64 33.23 108.76 32.29 104.70 C 30.29 96.22 29.07 87.55 27.76 78.95 M 40.39 85.78 C 40.97 89.64 41.64 93.48 42.35 97.32 C 47.82 99.02 52.56 104.00 52.05 110.03 C 52.39 116.13 44.27 119.59 48.02 125.85 C 63.01 129.71 78.07 133.22 93.16 136.66 C 97.51 137.79 101.75 135.66 105.99 134.94 C 118.58 131.80 131.42 129.60 143.84 125.78 C 144.95 121.40 145.84 116.98 146.78 112.56 C 138.34 106.05 140.86 91.92 151.22 89.01 C 151.29 88.13 151.43 86.36 151.50 85.48 C 134.10 89.89 116.65 94.10 99.25 98.51 C 97.58 98.90 95.85 99.29 94.15 98.83 C 76.20 94.61 58.41 89.66 40.39 85.78 Z" />
<path fill="#9ba4ac" opacity="1.00" d=" M 69.56 150.45 C 71.85 145.56 80.23 147.47 79.79 152.97 C 79.60 160.05 80.49 167.30 79.29 174.28 C 74.63 179.66 66.19 176.40 59.94 177.15 C 54.20 177.83 51.82 169.36 56.70 166.74 C 60.56 165.55 64.75 166.38 68.75 166.18 C 69.12 160.96 67.90 155.47 69.56 150.45 Z" />
<path fill="#9ba4ac" opacity="1.00" d=" M 114.21 151.16 C 115.67 146.39 123.30 146.51 124.57 151.31 C 125.21 156.23 124.70 161.22 124.84 166.17 C 128.75 166.28 132.74 165.75 136.60 166.49 C 141.57 168.42 140.42 176.75 135.00 177.03 C 129.38 177.33 123.67 177.54 118.09 176.88 C 114.40 176.32 113.45 172.15 113.73 169.01 C 114.01 163.07 113.19 157.03 114.21 151.16 Z" />
</g>
</svg>
