<?xml version="1.0" encoding="UTF-8" ?>
<!DOCTYPE svg PUBLIC "-//W3C//DTD SVG 1.1//EN" "http://www.w3.org/Graphics/SVG/1.1/DTD/svg11.dtd">
<svg width="192pt" height="192pt" viewBox="0 0 192 192" version="1.1" xmlns="http://www.w3.org/2000/svg">
<g id="#ff633bff">
<path fill="#ff633b" opacity="1.00" d=" M 37.37 19.53 C 41.16 18.53 45.12 18.74 49.00 18.72 C 81.33 18.78 113.66 18.68 145.99 18.76 C 157.82 18.74 168.46 29.11 168.75 40.93 C 168.75 48.19 169.06 55.48 168.60 62.72 C 167.68 68.02 159.11 68.18 157.97 62.92 C 157.13 55.37 158.20 47.72 157.46 40.16 C 156.65 34.25 150.93 29.74 145.03 29.86 C 111.35 29.80 77.65 29.80 43.97 29.84 C 38.05 29.69 32.23 34.17 31.44 40.13 C 30.76 47.70 31.88 55.36 30.92 62.90 C 29.82 68.15 21.30 68.01 20.31 62.76 C 19.72 55.85 20.16 48.87 20.08 41.94 C 19.99 31.69 27.51 22.12 37.37 19.53 Z" />
<path fill="#ff633b" opacity="1.00" d=" M 68.77 76.24 C 70.86 76.23 72.95 76.25 75.04 76.31 C 75.52 87.77 75.45 99.26 75.09 110.72 C 72.76 110.45 67.91 112.00 68.53 108.05 C 68.61 97.45 68.25 86.83 68.77 76.24 Z" />
<path fill="#ff633b" opacity="1.00" d=" M 104.62 76.60 C 106.65 76.06 108.77 76.21 110.84 76.21 C 111.21 79.33 111.27 82.48 111.12 85.62 C 115.96 83.19 125.04 83.12 125.75 90.08 C 126.02 96.16 127.11 102.84 124.60 108.56 C 120.03 113.62 112.79 109.44 107.02 110.69 C 104.61 111.50 104.16 108.78 104.37 107.05 C 104.57 96.90 104.07 86.73 104.62 76.60 M 111.45 90.28 C 111.27 94.99 110.80 99.78 111.57 104.45 C 113.31 106.35 116.65 105.97 118.74 104.80 C 119.78 99.97 119.35 94.93 118.75 90.06 C 116.32 89.64 113.85 89.69 111.45 90.28 Z" />
<path fill="#ff633b" opacity="1.00" d=" M 20.12 77.83 C 28.05 77.47 36.02 77.47 43.96 77.82 C 43.94 79.73 43.88 81.63 43.74 83.53 C 41.03 83.59 38.31 83.60 35.59 83.60 C 35.52 92.61 35.70 101.63 35.48 110.64 C 33.20 110.69 30.91 110.67 28.63 110.57 C 28.37 101.59 28.63 92.60 28.47 83.62 C 23.94 84.19 18.19 84.06 20.12 77.83 Z" />
<path fill="#ff633b" opacity="1.00" d=" M 156.53 78.99 C 158.69 78.86 160.86 78.80 163.03 78.80 C 163.11 80.64 163.18 82.48 163.24 84.32 C 167.17 83.74 170.02 85.48 168.85 89.72 C 166.96 89.92 165.07 90.09 163.18 90.23 C 163.25 95.30 163.14 100.37 163.33 105.44 C 165.15 105.60 166.96 105.75 168.78 105.94 C 168.78 107.53 168.76 109.13 168.73 110.72 C 164.91 110.87 158.88 112.65 156.92 108.18 C 155.84 102.29 156.62 96.21 156.37 90.25 C 155.52 90.10 153.80 89.79 152.94 89.64 C 152.93 88.06 152.92 86.49 152.92 84.92 C 154.07 84.71 155.22 84.50 156.37 84.30 C 156.41 82.53 156.46 80.76 156.53 78.99 Z" />
<path fill="#ff633b" opacity="1.00" d=" M 43.78 93.08 C 42.17 82.72 56.58 82.20 62.51 86.50 C 65.69 93.07 63.44 100.97 64.07 108.07 C 64.65 112.13 59.55 110.83 57.31 109.78 C 53.18 111.68 46.90 112.20 44.04 107.98 C 42.69 104.40 42.35 99.24 45.62 96.57 C 49.23 94.51 53.61 95.43 57.57 95.15 C 57.28 93.27 56.98 91.40 56.65 89.54 C 54.96 89.53 53.28 89.53 51.60 89.55 C 51.03 90.78 50.47 92.01 49.90 93.25 C 47.86 93.22 45.82 93.16 43.78 93.08 M 50.27 100.42 C 50.03 102.71 49.52 106.36 52.99 105.99 C 56.96 107.02 57.76 103.17 57.48 100.14 C 55.07 100.19 52.67 100.26 50.27 100.42 Z" />
<path fill="#ff633b" opacity="1.00" d=" M 79.88 93.10 C 78.12 82.73 92.61 82.21 98.53 86.47 C 101.77 93.04 99.52 100.95 100.14 108.06 C 100.70 112.12 95.56 110.85 93.33 109.77 C 89.34 111.65 83.60 112.10 80.42 108.54 C 78.71 105.28 78.59 100.80 80.56 97.62 C 83.87 94.10 89.27 95.54 93.56 95.14 C 93.28 93.27 92.98 91.40 92.65 89.54 C 90.97 89.53 89.29 89.53 87.60 89.55 C 87.06 90.78 86.52 92.01 85.99 93.24 C 83.95 93.22 81.91 93.17 79.88 93.10 M 86.29 100.43 C 83.21 108.02 96.18 107.63 93.47 100.14 C 91.07 100.19 88.68 100.27 86.29 100.43 Z" />
<path fill="#ff633b" opacity="1.00" d=" M 135.39 84.56 C 140.25 84.16 148.28 82.88 149.94 89.07 C 150.63 95.96 150.44 102.98 150.10 109.89 C 148.59 111.77 145.42 110.53 143.42 109.79 C 139.44 111.66 133.64 112.11 130.53 108.49 C 128.80 105.06 128.59 100.18 131.13 97.10 C 134.67 94.31 139.55 95.48 143.72 95.06 C 145.54 88.91 136.84 87.17 135.91 93.27 C 133.94 93.22 131.97 93.16 130.00 93.06 C 129.64 89.38 131.08 84.86 135.39 84.56 M 136.34 104.64 C 139.69 108.23 145.14 104.97 143.69 100.16 C 140.33 100.03 134.51 99.49 136.34 104.64 Z" />
<path fill="#ff633b" opacity="1.00" d=" M 23.27 119.26 C 26.63 117.54 31.08 120.19 31.13 123.98 C 31.60 131.26 30.92 138.58 31.41 145.87 C 32.10 151.92 37.94 156.70 44.00 156.33 C 77.67 156.33 111.33 156.33 145.00 156.31 C 151.03 156.62 156.77 151.84 157.49 145.84 C 158.24 137.96 156.97 129.95 158.11 122.13 C 159.85 117.22 167.97 117.93 168.64 123.14 C 169.04 130.43 168.76 137.76 168.77 145.06 C 168.64 156.99 157.96 167.45 146.06 167.51 C 112.02 167.61 77.98 167.53 43.94 167.54 C 35.05 167.74 26.31 162.47 22.48 154.41 C 18.66 146.84 20.46 138.13 20.02 130.00 C 20.15 126.33 19.09 121.12 23.27 119.26 Z" />
</g>
</svg>
