<?xml version="1.0" encoding="UTF-8" ?>
<!DOCTYPE svg PUBLIC "-//W3C//DTD SVG 1.1//EN" "http://www.w3.org/Graphics/SVG/1.1/DTD/svg11.dtd">
<svg width="192pt" height="192pt" viewBox="0 0 192 192" version="1.1" xmlns="http://www.w3.org/2000/svg">
<g id="#19afffff">
<path fill="#19afff" opacity="1.00" d=" M 66.03 25.10 C 82.56 14.49 104.55 14.70 121.94 23.09 C 135.90 31.14 152.87 29.35 167.97 26.07 C 171.19 24.94 175.05 26.82 175.62 30.30 C 179.26 44.87 178.54 61.37 170.34 74.33 C 168.37 77.81 162.38 78.57 160.51 74.62 C 158.92 72.28 160.35 69.57 161.47 67.39 C 166.33 58.48 167.79 47.87 165.82 37.94 C 157.50 39.70 148.98 40.47 140.48 40.07 C 148.38 56.56 152.18 74.63 158.08 91.86 C 160.62 95.30 164.42 97.85 166.19 101.91 C 172.40 113.59 168.00 127.67 160.91 137.89 C 143.75 162.67 112.12 177.72 82.03 172.35 C 59.37 168.36 38.55 153.80 27.46 133.59 C 22.04 123.50 19.55 110.99 24.11 100.11 C 27.42 91.19 36.00 85.53 44.70 82.68 C 49.01 81.16 53.58 86.98 50.92 90.79 C 47.72 95.47 40.73 94.68 37.39 99.41 C 29.25 108.69 33.06 122.51 39.14 131.84 C 54.17 155.34 84.96 167.99 111.99 159.94 C 128.82 154.72 144.51 143.96 153.63 128.66 C 156.61 123.13 159.39 116.64 157.67 110.28 C 155.99 104.01 150.37 99.58 144.39 97.66 C 141.70 96.67 138.02 96.20 137.17 92.93 C 135.59 88.74 139.40 83.95 143.89 85.18 C 137.95 68.63 137.39 48.16 122.46 36.49 C 106.45 25.51 82.10 24.50 67.43 38.40 C 57.77 47.01 52.66 59.37 49.51 71.64 C 47.92 77.23 38.73 75.88 38.89 70.01 C 40.49 59.22 45.34 49.12 51.11 39.95 C 43.70 39.32 36.34 38.24 28.94 37.66 C 27.11 37.35 26.34 39.53 26.13 40.96 C 24.61 50.98 27.27 61.25 32.17 69.99 C 35.01 75.33 25.87 80.50 22.75 75.22 C 13.89 61.71 12.01 43.73 17.60 28.58 C 18.74 25.64 22.45 25.49 25.05 26.22 C 38.43 29.07 53.17 30.94 66.03 25.10 Z" />
<path fill="#19afff" opacity="1.00" d=" M 52.40 120.45 C 54.88 118.65 58.22 119.77 60.03 121.96 C 70.39 132.27 85.17 139.72 100.08 137.10 C 111.30 135.38 120.58 128.23 128.57 120.62 C 133.14 116.73 140.01 123.64 136.18 128.22 C 125.40 139.91 110.29 148.79 94.00 148.67 C 77.93 148.68 62.75 140.53 51.75 129.19 C 49.18 126.88 49.40 122.29 52.40 120.45 Z" />
</g>
</svg>
