<?xml version="1.0" encoding="UTF-8" ?>
<!DOCTYPE svg PUBLIC "-//W3C//DTD SVG 1.1//EN" "http://www.w3.org/Graphics/SVG/1.1/DTD/svg11.dtd">
<svg width="192pt" height="192pt" viewBox="0 0 192 192" version="1.1" xmlns="http://www.w3.org/2000/svg">
<g id="#18b6c5ff">
<path fill="#18b6c5" opacity="1.00" d=" M 47.30 18.36 C 65.61 14.87 84.20 28.64 89.19 46.00 C 93.51 61.32 86.72 77.80 75.09 88.03 C 71.29 97.11 80.09 105.91 86.38 111.65 C 91.54 115.77 100.43 121.54 105.91 114.91 C 117.43 102.07 137.92 97.09 153.33 105.70 C 167.67 113.61 178.05 131.27 172.75 147.68 C 167.54 163.06 151.48 172.05 136.12 174.18 C 115.31 176.88 94.47 169.80 76.83 159.12 C 52.29 143.94 32.41 120.80 22.44 93.61 C 16.60 77.06 14.58 58.15 21.68 41.66 C 26.34 30.81 35.29 20.75 47.30 18.36 M 48.35 29.48 C 32.30 35.04 26.84 54.61 28.43 70.01 C 31.43 99.19 49.69 125.00 72.44 142.63 C 88.09 154.56 107.02 163.41 127.00 163.66 C 138.87 163.79 151.53 159.68 159.09 150.09 C 167.59 139.43 160.97 124.13 150.83 117.21 C 141.17 109.93 127.07 111.65 117.92 118.91 C 113.75 122.49 110.14 127.34 104.48 128.59 C 96.65 130.46 88.74 126.96 82.43 122.53 C 72.11 114.97 62.36 103.48 62.85 89.98 C 63.22 80.84 72.74 76.76 76.08 69.07 C 80.70 60.21 80.73 48.64 74.38 40.60 C 68.46 32.87 58.32 26.76 48.35 29.48 Z" />
</g>
</svg>
