<?xml version="1.0" encoding="UTF-8" ?>
<!DOCTYPE svg PUBLIC "-//W3C//DTD SVG 1.1//EN" "http://www.w3.org/Graphics/SVG/1.1/DTD/svg11.dtd">
<svg width="192pt" height="192pt" viewBox="0 0 192 192" version="1.1" xmlns="http://www.w3.org/2000/svg">
<g id="#18aeffff">
<path fill="#18aeff" opacity="1.00" d=" M 35.55 35.56 C 58.76 12.58 95.79 5.44 125.88 18.18 C 154.83 29.62 175.12 58.98 176.63 89.93 C 178.27 114.74 167.98 140.73 147.84 155.82 C 130.32 169.15 103.08 168.96 87.08 153.20 C 80.00 153.75 74.36 148.85 68.99 145.00 C 42.77 126.22 34.90 87.45 50.66 59.60 C 56.68 52.09 71.80 49.09 77.17 58.89 C 80.25 65.73 77.26 73.42 75.27 80.17 C 73.90 85.97 67.22 87.16 62.38 88.73 C 61.08 101.25 67.84 112.22 75.21 121.65 C 80.51 120.15 87.15 117.52 91.61 122.35 C 99.08 128.24 107.76 138.58 100.22 147.94 C 112.78 157.67 131.22 154.60 142.77 144.78 C 168.86 123.74 172.31 82.36 153.54 55.45 C 140.80 35.49 117.64 23.12 94.00 23.29 C 58.47 21.83 25.25 51.76 22.39 87.10 C 18.10 120.57 41.47 156.16 74.87 163.27 C 79.64 164.63 84.87 163.68 89.46 165.53 C 94.15 168.32 91.16 175.84 86.02 175.53 C 58.14 176.68 32.88 157.46 20.50 133.41 C 4.03 102.08 9.70 60.19 35.55 35.56 Z" />
</g>
</svg>
