<?xml version="1.0" encoding="UTF-8" ?>
<!DOCTYPE svg PUBLIC "-//W3C//DTD SVG 1.1//EN" "http://www.w3.org/Graphics/SVG/1.1/DTD/svg11.dtd">
<svg width="192pt" height="192pt" viewBox="0 0 192 192" version="1.1" xmlns="http://www.w3.org/2000/svg">
<g id="#b88d6aff">
<path fill="#b88d6a" opacity="1.00" d=" M 84.37 14.44 C 109.79 10.89 136.76 19.88 154.41 38.63 C 157.43 41.65 155.21 47.66 150.87 47.77 C 146.55 48.44 144.19 44.06 141.17 41.83 C 117.37 20.74 78.89 19.49 53.62 38.70 C 36.48 51.24 25.39 71.74 24.82 93.03 C 24.63 95.87 25.21 99.55 22.36 101.31 C 18.98 103.88 13.47 101.30 13.47 97.01 C 12.85 75.47 21.36 53.85 36.45 38.46 C 49.09 25.32 66.30 16.76 84.37 14.44 Z" />
<path fill="#b88d6a" opacity="1.00" d=" M 166.39 48.38 C 170.24 47.38 174.01 45.73 178.06 45.83 C 177.01 47.99 174.68 48.70 172.67 49.65 C 157.13 56.69 141.68 63.95 126.28 71.31 C 124.02 72.13 122.74 74.29 122.68 76.63 C 121.43 91.07 120.38 105.53 118.86 119.94 C 118.89 122.03 117.33 124.07 115.05 123.40 C 91.38 121.18 67.73 118.69 44.09 116.25 C 41.74 116.11 39.14 115.72 37.12 117.23 C 29.13 122.39 20.86 127.54 14.89 135.11 C 12.17 126.41 12.13 115.15 20.38 109.35 C 36.22 97.26 54.15 88.23 72.41 80.39 C 102.88 67.39 134.50 57.28 166.39 48.38 M 57.49 106.20 C 72.65 107.94 87.88 109.03 103.06 110.50 C 105.10 110.97 107.47 109.97 107.46 107.62 C 108.28 98.43 109.68 89.23 109.65 79.99 C 92.51 89.16 74.44 96.72 57.49 106.20 Z" />
<path fill="#b88d6a" opacity="1.00" d=" M 163.21 60.12 C 166.06 58.81 169.68 60.28 170.81 63.21 C 179.76 83.52 179.71 107.52 170.92 127.88 C 160.13 153.29 135.76 172.42 108.40 176.49 C 76.76 181.97 42.33 166.66 25.99 138.91 C 23.68 132.19 34.24 128.64 36.92 135.00 C 54.90 162.58 93.27 173.85 123.27 160.20 C 142.05 152.09 157.04 135.52 162.93 115.90 C 167.71 100.44 166.81 83.36 160.62 68.43 C 159.06 65.49 160.03 61.47 163.21 60.12 Z" />
</g>
</svg>
