<?xml version="1.0" encoding="UTF-8" ?>
<!DOCTYPE svg PUBLIC "-//W3C//DTD SVG 1.1//EN" "http://www.w3.org/Graphics/SVG/1.1/DTD/svg11.dtd">
<svg width="192pt" height="192pt" viewBox="0 0 192 192" version="1.1" xmlns="http://www.w3.org/2000/svg">
<g id="#ff3861ff">
<path fill="#ff3861" opacity="1.00" d=" M 38.29 19.31 C 73.78 17.97 109.43 19.11 144.99 18.73 C 157.55 18.19 169.01 29.37 168.82 41.93 C 168.88 75.97 168.87 110.02 168.83 144.06 C 169.16 156.35 158.33 167.46 146.05 167.52 C 111.69 167.58 77.31 167.56 42.95 167.51 C 30.61 167.50 19.78 156.37 20.06 144.05 C 20.04 110.01 20.02 75.97 20.08 41.93 C 19.98 31.37 28.01 21.54 38.29 19.31 M 40.28 30.34 C 35.22 31.73 31.17 36.59 31.29 41.93 C 31.24 75.97 31.27 110.02 31.28 144.06 C 31.03 150.80 37.28 156.78 44.00 156.33 C 77.67 156.33 111.34 156.33 145.00 156.32 C 151.69 156.71 157.80 150.75 157.66 144.07 C 157.69 110.02 157.72 75.97 157.65 41.92 C 157.72 34.88 150.87 29.23 144.01 29.81 C 109.45 30.19 74.77 29.11 40.28 30.34 Z" />
<path fill="#ff3861" opacity="1.00" d=" M 80.66 57.30 C 84.56 58.17 88.39 59.33 92.25 60.38 C 91.54 62.32 90.60 64.16 89.56 65.95 C 101.42 63.22 113.86 59.70 125.99 63.03 C 131.61 64.45 137.65 68.00 138.81 74.15 C 141.07 85.95 140.90 98.12 139.81 110.03 C 139.37 115.80 137.43 122.15 132.12 125.22 C 124.43 129.42 115.25 128.73 107.01 126.75 C 107.45 124.54 107.96 122.34 108.54 120.16 C 113.26 121.18 118.60 122.90 123.05 120.09 C 126.53 118.04 127.31 113.71 127.24 110.00 C 127.14 98.99 127.35 87.98 127.16 76.98 C 127.22 73.02 124.60 69.27 120.69 68.35 C 111.84 65.93 102.83 69.34 94.49 72.13 C 96.03 72.58 97.58 73.02 99.12 73.46 C 98.20 75.74 96.80 77.76 95.28 79.67 C 104.66 79.79 114.04 79.69 123.41 79.75 C 123.43 81.66 123.46 83.56 123.50 85.47 C 118.20 85.53 112.89 85.43 107.59 85.53 C 107.59 87.86 107.58 90.18 107.54 92.51 C 112.83 92.82 118.13 92.58 123.42 92.68 C 123.43 94.58 123.46 96.47 123.50 98.36 C 118.18 98.39 112.86 98.36 107.54 98.38 C 107.55 102.31 107.51 106.25 107.54 110.18 C 112.10 109.80 115.57 106.47 112.82 101.95 C 115.23 101.00 117.69 100.19 120.19 99.51 C 122.23 104.59 124.43 109.62 126.27 114.78 C 123.27 116.15 120.25 117.47 117.14 118.57 C 116.59 116.66 116.03 114.76 115.49 112.85 C 108.54 117.37 100.34 119.77 92.06 119.82 C 87.65 119.79 82.37 120.52 79.00 117.00 C 75.09 113.03 75.10 106.96 76.02 101.83 C 79.84 101.76 83.67 101.75 87.50 101.81 C 86.21 106.75 87.79 113.15 94.20 112.16 C 94.25 107.58 94.27 103.00 94.15 98.43 C 88.78 98.42 83.41 98.48 78.03 98.36 C 78.05 96.49 78.05 94.62 78.04 92.75 C 83.43 92.58 88.81 92.75 94.20 92.73 C 94.27 90.29 94.26 87.85 94.01 85.42 C 92.78 85.44 91.56 85.45 90.33 85.45 C 87.89 87.82 85.53 90.27 82.97 92.51 C 81.37 91.13 79.80 89.70 78.27 88.23 C 81.76 84.19 84.81 79.76 87.14 74.95 C 81.91 75.99 79.16 80.60 75.69 84.10 C 72.92 82.94 70.34 81.40 67.85 79.75 C 73.79 73.37 78.00 65.57 80.66 57.30 Z" />
<path fill="#ff3861" opacity="1.00" d=" M 63.32 58.46 C 68.30 58.01 73.49 62.73 71.85 67.90 C 70.04 74.55 59.95 75.15 56.60 69.44 C 53.29 64.74 58.07 58.35 63.32 58.46 Z" />
<path fill="#ff3861" opacity="1.00" d=" M 51.84 84.21 C 53.56 81.62 55.16 78.95 56.91 76.38 C 63.25 81.90 74.05 86.99 72.28 97.00 C 70.30 107.57 64.58 116.87 60.27 126.59 C 56.07 124.01 51.95 121.30 47.80 118.64 C 53.93 112.12 61.94 106.62 65.39 98.12 C 66.34 90.26 56.28 88.69 51.84 84.21 Z" />
</g>
</svg>
