<?xml version="1.0" encoding="UTF-8" ?>
<!DOCTYPE svg PUBLIC "-//W3C//DTD SVG 1.1//EN" "http://www.w3.org/Graphics/SVG/1.1/DTD/svg11.dtd">
<svg width="192pt" height="192pt" viewBox="0 0 192 192" version="1.1" xmlns="http://www.w3.org/2000/svg">
<g id="#1db7ffff">
<path fill="#1db7ff" opacity="1.00" d=" M 62.68 30.27 C 58.27 25.67 65.66 18.22 70.27 22.67 C 103.02 55.26 135.40 88.25 168.36 120.63 C 174.97 128.95 171.24 140.28 172.25 150.00 C 173.74 160.15 165.46 170.46 155.00 170.20 C 115.67 170.28 76.33 170.25 36.99 170.21 C 28.07 170.48 19.79 162.96 19.50 153.99 C 19.39 146.31 19.44 138.62 19.49 130.93 C 19.50 121.83 27.85 113.91 36.93 114.24 C 73.34 114.14 109.75 114.28 146.15 114.12 C 118.41 86.10 90.32 58.39 62.68 30.27 M 35.41 125.66 C 32.55 126.19 30.48 129.08 30.68 131.96 C 30.64 138.99 30.59 146.02 30.71 153.04 C 30.65 156.31 33.67 159.07 36.90 158.84 C 75.95 158.90 115.01 158.84 154.07 158.86 C 157.48 159.28 160.95 156.60 160.90 153.06 C 161.00 145.69 161.09 138.31 160.85 130.95 C 160.71 127.54 157.33 125.17 154.08 125.50 C 114.52 125.60 74.94 125.22 35.41 125.66 Z" />
<path fill="#1db7ff" opacity="1.00" d=" M 24.23 94.23 C 51.41 93.15 78.78 93.95 106.03 93.80 C 113.54 93.14 114.59 105.43 107.05 105.77 C 81.37 106.05 55.68 105.76 30.00 105.87 C 27.32 105.71 23.99 106.31 22.04 103.98 C 19.20 101.08 20.35 95.59 24.23 94.23 Z" />
<path fill="#1db7ff" opacity="1.00" d=" M 45.29 135.32 C 49.37 133.89 53.76 138.24 52.41 142.33 C 51.50 146.34 45.87 147.98 43.04 144.94 C 39.79 142.21 41.23 136.39 45.29 135.32 Z" />
</g>
</svg>
