<?xml version="1.0" encoding="UTF-8" ?>
<!DOCTYPE svg PUBLIC "-//W3C//DTD SVG 1.1//EN" "http://www.w3.org/Graphics/SVG/1.1/DTD/svg11.dtd">
<svg width="192pt" height="192pt" viewBox="0 0 192 192" version="1.1" xmlns="http://www.w3.org/2000/svg">
<g id="#ff643bff">
<path fill="#ff643b" opacity="1.00" d=" M 84.41 13.52 C 105.80 10.47 128.33 16.33 145.47 29.51 C 169.75 47.75 182.35 80.24 176.16 110.06 C 170.40 140.28 146.01 165.56 116.42 173.45 C 103.31 177.42 89.51 176.45 76.01 176.55 C 58.66 176.53 41.31 176.59 23.97 176.52 C 19.12 176.98 16.08 170.73 19.11 167.05 C 23.92 158.46 32.51 148.67 26.55 138.43 C 9.38 111.46 10.09 74.63 28.37 48.40 C 41.10 29.63 61.95 16.65 84.41 13.52 M 28.63 73.64 C 22.48 92.96 25.51 114.74 36.17 131.92 C 42.41 142.10 40.81 155.52 33.77 164.88 C 53.85 165.14 73.93 164.94 94.01 164.99 C 116.22 165.03 138.18 154.32 151.66 136.64 C 163.04 122.11 168.18 102.90 165.42 84.63 C 161.34 51.72 131.35 24.33 98.03 24.16 C 67.17 22.56 37.32 44.09 28.63 73.64 Z" />
<path fill="#ff643b" opacity="1.00" d=" M 66.22 84.65 C 75.59 72.71 85.53 61.18 95.97 50.17 C 96.28 56.64 96.12 63.11 96.16 69.58 C 102.43 69.63 108.71 69.55 114.99 69.63 C 114.90 74.70 114.90 79.78 114.86 84.85 C 108.51 84.86 102.16 84.55 95.82 84.68 C 96.37 95.59 95.06 106.65 96.56 117.48 C 98.55 124.97 107.59 123.96 113.16 121.52 C 114.80 126.44 116.57 131.33 117.88 136.36 C 108.91 139.26 98.57 140.89 89.89 136.22 C 82.89 132.62 79.56 124.60 79.21 117.08 C 78.84 107.49 78.98 97.89 79.06 88.30 C 84.14 87.20 89.29 86.35 94.30 84.89 C 84.95 84.33 75.58 84.88 66.22 84.65 Z" />
</g>
</svg>
