<?xml version="1.0" encoding="UTF-8" ?>
<!DOCTYPE svg PUBLIC "-//W3C//DTD SVG 1.1//EN" "http://www.w3.org/Graphics/SVG/1.1/DTD/svg11.dtd">
<svg width="192pt" height="192pt" viewBox="0 0 192 192" version="1.1" xmlns="http://www.w3.org/2000/svg">
<g id="#4c96ddff">
<path fill="#4c96dd" opacity="1.00" d=" M 60.41 20.51 C 86.89 7.83 120.07 10.81 143.72 28.26 C 146.85 30.65 151.73 33.28 150.33 38.04 C 148.96 42.46 143.02 43.27 140.14 39.83 C 114.33 18.00 72.83 19.07 48.16 42.17 C 22.31 64.38 16.91 105.84 36.16 133.96 C 53.56 161.54 91.08 173.59 121.27 161.21 C 141.31 153.41 158.02 135.97 163.29 114.98 C 161.88 108.72 161.12 100.73 156.02 96.48 C 135.94 115.55 116.76 135.61 96.89 154.92 C 94.59 156.52 90.92 156.15 89.14 153.86 C 75.85 140.48 62.42 127.24 49.22 113.77 C 45.94 110.64 48.59 104.67 52.97 104.59 C 56.55 104.46 58.61 107.89 60.99 110.01 C 71.99 120.79 82.59 132.06 93.84 142.52 C 113.75 122.54 133.72 102.61 153.85 82.88 C 158.83 78.98 164.07 84.01 165.97 88.61 C 165.75 80.71 163.47 72.91 160.18 65.77 C 159.77 64.40 157.92 63.68 156.98 64.94 C 137.84 83.81 118.91 102.91 99.78 121.79 C 97.57 124.13 93.49 124.09 91.44 121.58 C 77.97 108.06 64.39 94.64 51.02 81.03 C 46.72 76.53 53.30 69.05 58.34 72.70 C 71.02 84.79 83.12 97.51 95.69 109.73 C 115.50 90.19 135.14 70.47 154.90 50.87 C 157.67 47.88 163.09 48.15 165.41 51.55 C 177.32 70.17 180.80 93.76 175.43 115.15 C 169.15 140.81 149.66 162.73 124.93 171.99 C 102.69 180.61 76.74 178.82 55.90 167.24 C 29.68 153.07 12.54 123.83 13.27 93.99 C 13.24 63.13 32.36 33.36 60.41 20.51 Z" />
</g>
</svg>
