<?xml version="1.0" encoding="UTF-8" ?>
<!DOCTYPE svg PUBLIC "-//W3C//DTD SVG 1.1//EN" "http://www.w3.org/Graphics/SVG/1.1/DTD/svg11.dtd">
<svg width="192pt" height="192pt" viewBox="0 0 192 192" version="1.1" xmlns="http://www.w3.org/2000/svg">
<g id="#1ab1ffff">
<path fill="#1ab1ff" opacity="1.00" d=" M 39.38 21.54 C 42.51 20.69 45.78 20.72 49.00 20.72 C 82.33 20.82 115.68 20.61 149.01 20.82 C 161.66 21.31 171.91 33.47 170.87 45.98 C 171.13 50.64 171.76 58.74 164.99 58.56 C 158.58 58.15 159.59 50.49 159.70 45.96 C 160.64 38.67 154.44 31.61 147.05 31.84 C 113.36 31.80 79.65 31.78 45.96 31.81 C 41.03 31.73 36.15 34.70 34.22 39.28 C 31.68 44.78 35.14 51.58 31.74 56.73 C 27.79 61.31 20.58 56.56 22.06 51.06 C 20.14 38.69 26.53 24.70 39.38 21.54 Z" />
<path fill="#1ab1ff" opacity="1.00" d=" M 37.13 80.10 C 32.91 78.06 33.56 69.16 39.01 69.51 C 49.33 69.47 59.67 69.45 70.00 69.51 C 76.02 69.19 76.08 80.54 70.07 80.37 C 66.69 80.53 63.30 80.38 59.92 80.41 C 59.69 93.56 60.16 106.74 59.71 119.88 C 58.87 125.26 50.09 125.22 49.16 119.89 C 48.62 106.74 49.21 93.54 48.86 80.37 C 44.96 80.32 41.00 80.74 37.13 80.10 Z" />
<path fill="#1ab1ff" opacity="1.00" d=" M 82.76 75.96 C 82.38 72.83 84.65 69.41 88.00 69.52 C 95.60 69.46 103.22 69.36 110.81 69.56 C 113.99 69.69 115.85 73.03 115.53 75.94 C 115.43 90.50 115.75 105.08 115.38 119.62 C 114.72 125.12 105.89 125.40 104.82 119.99 C 104.22 114.10 104.74 108.15 104.54 102.24 C 100.92 102.24 97.30 102.24 93.68 102.24 C 93.49 108.28 94.11 114.38 93.38 120.38 C 91.88 125.78 82.91 124.69 82.85 119.03 C 82.62 104.68 82.81 90.31 82.76 75.96 M 93.68 80.42 C 93.68 84.03 93.68 87.64 93.70 91.26 C 97.32 91.27 100.94 91.27 104.56 91.25 C 104.58 87.64 104.57 84.03 104.54 80.42 C 100.92 80.42 97.30 80.41 93.68 80.42 Z" />
<path fill="#1ab1ff" opacity="1.00" d=" M 126.44 75.00 C 126.30 71.98 128.97 69.27 132.01 69.49 C 139.29 69.43 146.57 69.41 153.84 69.50 C 156.76 69.38 159.31 72.04 159.15 74.94 C 159.28 81.98 159.21 89.02 159.19 96.06 C 159.47 99.06 157.22 102.17 154.06 102.16 C 148.50 102.40 142.93 102.17 137.36 102.24 C 137.08 108.40 138.00 114.72 136.88 120.79 C 134.87 125.99 126.44 124.41 126.46 118.85 C 126.31 104.24 126.38 89.61 126.44 75.00 M 137.39 80.41 C 137.37 84.02 137.36 87.62 137.37 91.23 C 140.98 91.26 144.59 91.26 148.20 91.22 C 148.22 87.62 148.21 84.02 148.19 80.43 C 144.59 80.42 140.99 80.43 137.39 80.41 Z" />
<path fill="#1ab1ff" opacity="1.00" d=" M 25.42 133.49 C 28.34 132.10 32.21 133.94 32.94 137.11 C 33.67 140.91 32.88 144.82 33.50 148.63 C 34.61 154.33 40.18 158.68 45.99 158.33 C 79.67 158.32 113.34 158.32 147.01 158.30 C 152.01 158.51 156.88 155.33 158.73 150.70 C 160.64 146.09 158.86 140.94 160.19 136.24 C 161.99 131.84 168.98 132.05 170.47 136.58 C 171.29 140.60 170.88 144.79 170.67 148.87 C 169.57 160.10 159.33 169.43 148.05 169.52 C 113.68 169.59 79.31 169.56 44.95 169.50 C 33.01 169.48 22.33 159.04 22.12 147.09 C 22.41 142.60 20.31 135.94 25.42 133.49 Z" />
</g>
</svg>
