<?xml version="1.0" encoding="UTF-8" ?>
<!DOCTYPE svg PUBLIC "-//W3C//DTD SVG 1.1//EN" "http://www.w3.org/Graphics/SVG/1.1/DTD/svg11.dtd">
<svg width="192pt" height="192pt" viewBox="0 0 192 192" version="1.1" xmlns="http://www.w3.org/2000/svg">
<g id="#1ab0ffff">
<path fill="#1ab0ff" opacity="1.00" d=" M 85.38 14.46 C 116.80 9.91 149.80 25.75 166.08 52.96 C 177.96 72.14 181.27 96.33 175.08 118.02 C 166.90 148.26 139.94 172.27 108.92 176.78 C 77.97 182.05 44.92 167.50 27.85 141.18 C 9.39 114.22 9.65 76.16 28.45 49.45 C 41.35 30.44 62.57 17.34 85.38 14.46 M 87.40 25.52 C 65.31 28.06 45.00 41.87 34.27 61.31 C 24.36 78.84 22.64 100.67 29.45 119.59 C 39.05 147.44 67.47 167.38 96.99 166.48 C 127.78 166.67 156.71 144.13 164.36 114.37 C 170.59 92.04 164.95 66.83 149.59 49.44 C 134.52 31.74 110.44 22.56 87.40 25.52 Z" />
<path fill="#1ab0ff" opacity="1.00" d=" M 129.75 65.69 C 134.55 61.11 142.17 68.76 137.61 73.57 C 120.38 91.02 102.94 108.27 85.63 125.63 C 83.55 128.20 79.35 128.38 77.13 125.90 C 69.64 118.38 61.99 111.00 54.68 103.30 C 50.73 98.88 56.90 91.88 61.81 95.04 C 68.59 101.01 74.65 107.80 81.19 114.06 C 97.47 98.03 113.43 81.67 129.75 65.69 Z" />
</g>
</svg>
