<?xml version="1.0" encoding="UTF-8" ?>
<!DOCTYPE svg PUBLIC "-//W3C//DTD SVG 1.1//EN" "http://www.w3.org/Graphics/SVG/1.1/DTD/svg11.dtd">
<svg width="192pt" height="192pt" viewBox="0 0 192 192" version="1.1" xmlns="http://www.w3.org/2000/svg">
<g id="#44e372ff">
<path fill="#44e372" opacity="1.00" d=" M 23.46 55.42 C 37.37 30.22 65.12 13.20 94.01 12.98 C 123.38 12.15 152.52 28.63 166.78 54.33 C 169.22 58.83 165.06 64.65 160.07 64.23 C 142.56 64.30 125.05 64.28 107.55 64.23 C 109.24 67.12 110.59 70.20 111.58 73.40 C 115.83 73.43 120.09 73.15 124.31 73.77 C 124.47 76.96 124.50 80.16 124.52 83.35 C 120.42 84.80 116.00 83.92 111.75 84.15 C 109.71 96.83 97.96 104.91 85.80 106.22 C 96.03 117.61 105.97 129.26 115.59 141.17 C 115.53 141.74 115.40 142.86 115.34 143.42 C 110.18 143.89 104.70 144.40 99.68 143.33 C 88.88 130.75 77.91 118.25 66.96 105.80 C 66.92 102.35 65.40 97.56 68.04 94.95 C 78.03 94.82 92.07 95.67 96.29 84.17 C 86.89 83.96 77.46 84.41 68.08 83.96 C 65.24 81.64 67.26 77.06 66.82 73.82 C 76.30 72.80 85.89 73.81 95.41 73.27 C 88.90 64.25 76.52 67.34 67.41 65.57 C 66.53 61.92 64.48 52.44 70.99 53.51 C 96.66 53.55 122.33 53.55 148.00 53.50 C 149.69 53.78 150.68 52.62 151.22 51.18 C 131.11 25.00 92.15 16.47 63.00 31.98 C 33.89 46.27 17.82 81.97 26.69 113.22 C 34.51 144.93 66.52 168.10 99.08 165.81 C 121.39 164.87 142.70 152.52 154.85 133.84 C 165.12 118.48 168.55 99.09 165.12 81.01 C 163.51 74.55 174.01 71.88 175.84 78.17 C 183.47 110.59 168.09 146.41 140.01 164.05 C 121.16 176.35 97.17 180.31 75.36 174.76 C 48.98 168.37 26.57 148.01 17.71 122.35 C 9.92 100.59 12.00 75.53 23.46 55.42 Z" />
</g>
</svg>
