<?xml version="1.0" encoding="UTF-8" ?>
<!DOCTYPE svg PUBLIC "-//W3C//DTD SVG 1.1//EN" "http://www.w3.org/Graphics/SVG/1.1/DTD/svg11.dtd">
<svg width="192pt" height="192pt" viewBox="0 0 192 192" version="1.1" xmlns="http://www.w3.org/2000/svg">
<g id="#47a596ff">
<path fill="#47a596" opacity="1.00" d=" M 44.30 21.72 C 42.45 16.56 50.00 12.28 53.46 16.53 C 58.96 24.58 63.36 33.35 68.79 41.45 C 86.20 35.07 105.75 35.19 123.18 41.41 C 128.47 33.21 133.01 24.52 138.47 16.44 C 141.96 12.27 149.37 16.57 147.64 21.70 C 143.57 30.06 137.86 37.55 133.80 45.92 C 160.32 59.91 178.41 88.88 177.84 119.04 C 177.93 122.08 175.00 124.72 172.00 124.40 C 121.33 124.41 70.66 124.41 19.99 124.38 C 16.98 124.69 14.04 122.11 14.10 119.06 C 13.55 88.87 31.63 59.68 58.35 45.88 C 53.89 37.71 48.49 30.03 44.30 21.72 M 47.77 66.76 C 34.74 78.65 26.85 95.53 25.13 113.00 C 72.23 113.76 119.43 113.09 166.57 113.27 C 164.72 83.58 142.03 56.76 113.11 49.88 C 90.33 43.93 64.82 50.54 47.77 66.76 Z" />
<path fill="#47a596" opacity="1.00" d=" M 125.43 78.48 C 131.49 77.33 137.14 83.73 135.51 89.63 C 134.31 96.05 125.41 99.14 120.82 94.21 C 115.29 89.54 118.23 79.42 125.43 78.48 Z" />
<path fill="#47a596" opacity="1.00" d=" M 62.40 79.52 C 68.38 76.47 75.87 82.42 74.76 88.90 C 74.47 95.44 65.90 99.42 60.79 95.25 C 55.18 91.53 56.15 82.02 62.40 79.52 Z" />
<path fill="#47a596" opacity="1.00" d=" M 77.50 144.60 C 76.12 140.18 81.66 135.73 85.56 138.54 C 89.36 141.57 92.47 145.37 96.02 148.69 C 99.84 145.32 102.93 141.10 107.11 138.18 C 111.45 135.96 116.36 141.08 114.41 145.40 C 111.63 149.52 107.40 152.39 104.27 156.22 C 106.70 160.87 112.45 163.41 114.61 168.33 C 116.15 172.86 110.32 177.42 106.45 174.44 C 102.71 171.37 99.61 167.59 96.02 164.36 C 92.24 167.78 89.13 171.98 84.92 174.89 C 80.41 177.20 75.34 171.21 78.04 167.06 C 80.91 163.29 84.84 160.47 87.80 156.78 C 85.52 152.11 79.62 149.56 77.50 144.60 Z" />
</g>
</svg>
