<?xml version="1.0" encoding="UTF-8" ?>
<!DOCTYPE svg PUBLIC "-//W3C//DTD SVG 1.1//EN" "http://www.w3.org/Graphics/SVG/1.1/DTD/svg11.dtd">
<svg width="192pt" height="192pt" viewBox="0 0 192 192" version="1.1" xmlns="http://www.w3.org/2000/svg">
<g id="#ff3662ff">
<path fill="#ff3662" opacity="1.00" d=" M 80.01 14.14 C 111.19 7.84 145.06 21.84 162.85 48.15 C 181.01 73.80 182.47 110.18 165.94 136.98 C 162.44 142.26 153.52 136.99 156.42 131.35 C 165.86 114.86 168.84 94.70 163.71 76.33 C 157.27 51.83 136.65 31.75 111.98 25.99 C 80.65 17.84 45.40 34.37 31.62 63.63 C 16.63 92.82 25.50 131.59 51.84 151.21 C 77.58 172.00 117.93 170.71 142.22 148.22 C 144.89 145.38 149.25 141.43 153.02 144.98 C 160.93 152.76 168.86 160.54 176.51 168.57 C 180.31 172.97 174.23 180.08 169.29 176.80 C 162.27 170.63 156.03 163.59 149.26 157.15 C 124.02 179.80 84.40 183.87 55.06 166.88 C 25.79 150.88 8.60 115.94 13.94 82.98 C 18.51 49.11 46.36 20.09 80.01 14.14 Z" />
<path fill="#ff3662" opacity="1.00" d=" M 88.32 56.38 C 104.02 53.37 121.04 61.11 129.02 74.98 C 137.34 88.45 136.16 106.89 126.28 119.23 C 117.26 131.07 101.11 136.93 86.62 133.40 C 75.32 130.90 65.41 123.07 60.27 112.72 C 54.34 101.15 54.75 86.57 61.38 75.38 C 67.00 65.50 77.14 58.41 88.32 56.38 M 90.38 67.51 C 77.06 69.64 66.60 82.56 67.38 96.04 C 67.49 110.88 81.19 123.84 96.03 123.04 C 111.84 123.10 125.35 107.66 123.12 91.99 C 121.83 76.40 105.72 64.35 90.38 67.51 Z" />
</g>
</svg>
