<?xml version="1.0" encoding="UTF-8" ?>
<!DOCTYPE svg PUBLIC "-//W3C//DTD SVG 1.1//EN" "http://www.w3.org/Graphics/SVG/1.1/DTD/svg11.dtd">
<svg width="192pt" height="192pt" viewBox="0 0 192 192" version="1.1" xmlns="http://www.w3.org/2000/svg">
<g id="#45e371ff">
<path fill="#45e371" opacity="1.00" d=" M 16.08 47.05 C 10.40 45.74 11.06 36.46 16.93 36.13 C 56.28 35.85 95.65 36.10 135.01 35.99 C 147.17 35.83 158.91 42.39 165.73 52.36 C 175.44 66.48 177.20 84.32 176.77 101.01 C 176.36 114.49 173.52 128.90 164.19 139.18 C 157.61 146.52 147.79 150.54 137.99 150.50 C 120.99 150.48 103.99 150.54 86.99 150.46 C 83.52 150.77 80.68 147.44 81.04 144.08 C 81.09 118.07 80.88 92.04 81.16 66.03 C 81.48 59.69 91.77 59.67 92.18 65.99 C 92.53 90.36 92.23 114.76 92.33 139.14 C 108.56 139.13 124.82 139.41 141.05 139.01 C 153.52 137.99 161.85 126.38 163.84 114.83 C 166.88 98.61 166.44 81.17 160.29 65.70 C 156.35 55.85 147.08 47.40 136.06 47.34 C 110.43 47.27 84.79 47.40 59.16 47.27 C 59.24 79.86 59.30 112.46 59.13 145.05 C 59.41 151.55 48.86 152.42 48.12 145.98 C 47.68 113.10 48.18 80.18 47.87 47.28 C 37.28 47.18 26.64 47.67 16.08 47.05 Z" />
</g>
</svg>
