<?xml version="1.0" encoding="UTF-8" ?>
<!DOCTYPE svg PUBLIC "-//W3C//DTD SVG 1.1//EN" "http://www.w3.org/Graphics/SVG/1.1/DTD/svg11.dtd">
<svg width="192pt" height="192pt" viewBox="0 0 192 192" version="1.1" xmlns="http://www.w3.org/2000/svg">
<g id="#47e470ff">
<path fill="#47e470" opacity="1.00" d=" M 13.52 46.17 C 13.80 40.97 18.90 36.90 24.01 37.34 C 62.00 37.47 99.99 37.34 137.99 37.44 C 147.93 37.41 158.53 39.98 165.62 47.38 C 176.92 58.82 176.94 75.98 177.74 90.98 C 178.46 107.19 177.50 125.39 166.12 138.10 C 158.89 146.26 147.55 149.14 137.00 149.15 C 123.31 148.99 109.61 149.40 95.93 149.11 C 91.71 149.13 88.63 145.12 89.00 141.07 C 89.04 122.74 88.72 104.37 89.19 86.06 C 90.17 78.84 98.66 79.83 104.00 80.00 C 109.27 80.50 117.05 78.01 119.88 84.08 C 121.10 88.86 120.42 93.96 120.50 98.86 C 120.45 103.04 115.13 105.67 111.76 103.18 C 107.97 100.45 109.73 95.24 109.24 91.30 C 106.27 91.31 103.29 91.32 100.32 91.31 C 100.24 106.80 100.32 122.28 100.28 137.76 C 113.54 137.77 126.81 137.91 140.07 137.67 C 148.39 137.47 157.07 133.68 161.05 126.03 C 168.34 112.60 166.75 96.68 165.99 81.99 C 165.19 73.16 164.67 63.47 158.59 56.42 C 153.41 50.11 144.75 48.69 137.03 48.67 C 99.57 48.69 62.10 48.60 24.63 48.70 C 24.59 52.94 24.69 57.18 24.51 61.42 C 34.99 62.09 45.53 61.33 56.02 61.79 C 59.82 61.75 62.74 65.34 62.51 69.01 C 62.67 91.93 62.46 114.87 62.62 137.80 C 65.49 137.81 68.37 137.79 71.25 137.77 C 71.31 114.84 71.11 91.91 71.27 68.99 C 71.08 64.84 74.87 61.33 78.98 61.69 C 97.32 61.69 115.65 61.54 133.98 61.83 C 142.89 61.83 150.73 68.45 153.15 76.86 C 156.70 89.19 156.37 102.43 153.94 114.94 C 152.17 123.84 145.52 132.86 135.83 133.46 C 128.47 133.52 120.98 134.20 113.68 133.20 C 107.50 130.74 109.63 123.07 109.34 117.92 C 108.78 113.64 113.88 110.17 117.61 112.45 C 121.27 114.32 120.53 118.92 120.62 122.32 C 125.72 122.35 130.86 122.62 135.94 122.00 C 140.63 120.70 142.34 115.39 143.24 111.13 C 144.89 101.05 145.24 90.49 142.50 80.56 C 141.49 76.69 138.25 73.19 134.03 73.22 C 116.84 73.02 99.64 73.17 82.45 73.15 C 82.40 96.10 82.56 119.06 82.47 142.01 C 82.60 145.98 78.96 149.32 75.06 149.18 C 69.35 149.18 63.63 149.22 57.93 149.10 C 54.18 149.19 51.06 145.79 51.35 142.09 C 51.27 119.11 51.37 96.12 51.31 73.14 C 41.86 73.01 32.39 73.36 22.94 72.98 C 18.10 72.91 13.70 68.88 13.50 64.01 C 13.40 58.06 13.36 52.11 13.52 46.17 Z" />
</g>
</svg>
