<?xml version="1.0" encoding="UTF-8" ?>
<!DOCTYPE svg PUBLIC "-//W3C//DTD SVG 1.1//EN" "http://www.w3.org/Graphics/SVG/1.1/DTD/svg11.dtd">
<svg width="192pt" height="192pt" viewBox="0 0 192 192" version="1.1" xmlns="http://www.w3.org/2000/svg">
<g id="#1ab1ffff">
<path fill="#1ab1ff" opacity="1.00" d=" M 84.41 14.53 C 116.10 9.59 149.57 25.51 165.93 53.04 C 183.53 81.11 181.41 119.81 160.76 145.75 C 145.00 166.31 118.99 178.80 93.02 177.34 C 61.02 176.95 30.92 155.19 19.64 125.38 C 10.59 102.47 12.67 75.49 25.24 54.29 C 37.57 32.97 59.98 17.83 84.41 14.53 M 87.36 25.45 C 63.76 28.05 42.32 43.68 32.17 65.07 C 18.09 93.35 26.18 130.40 50.92 150.10 C 76.64 172.27 118.38 171.39 143.15 148.18 C 167.42 127.20 173.78 89.05 157.74 61.30 C 144.35 36.53 115.30 21.71 87.36 25.45 Z" />
<path fill="#1ab1ff" opacity="1.00" d=" M 75.47 72.47 C 83.78 68.84 76.54 83.72 83.98 82.73 C 92.53 82.63 101.10 82.99 109.63 82.54 C 113.72 80.50 109.43 74.31 113.11 72.00 C 115.06 71.08 116.67 72.82 118.16 73.80 C 126.65 80.33 135.30 86.66 143.75 93.22 C 145.47 94.19 145.81 96.97 144.00 98.02 C 135.60 104.63 126.93 110.90 118.49 117.46 C 116.97 118.43 115.39 120.28 113.40 119.56 C 109.02 117.52 114.18 110.05 109.04 108.84 C 100.06 108.66 91.04 108.57 82.06 108.87 C 78.22 110.89 81.86 116.41 79.08 119.20 C 77.02 120.56 75.00 118.81 73.41 117.60 C 64.95 111.05 56.30 104.74 47.89 98.13 C 45.93 97.02 46.16 94.13 48.09 93.11 C 57.19 86.21 66.25 79.23 75.47 72.47 Z" />
</g>
</svg>
