<?xml version="1.0" encoding="UTF-8" ?>
<!DOCTYPE svg PUBLIC "-//W3C//DTD SVG 1.1//EN" "http://www.w3.org/Graphics/SVG/1.1/DTD/svg11.dtd">
<svg width="192pt" height="192pt" viewBox="0 0 192 192" version="1.1" xmlns="http://www.w3.org/2000/svg">
<g id="#617080ff">
<path fill="#617080" opacity="1.00" d=" M 20.15 76.25 C 69.14 60.20 118.17 44.27 167.18 28.28 C 171.63 25.97 177.19 30.61 175.49 35.38 C 164.59 76.09 153.55 116.78 142.55 157.46 C 141.82 162.39 134.94 164.01 132.05 159.99 C 120.57 146.43 109.14 132.83 97.71 119.24 C 95.41 116.90 95.40 113.01 97.65 110.64 C 105.63 100.61 113.17 90.21 121.43 80.43 C 126.10 76.24 133.63 82.84 130.07 88.04 C 123.41 97.11 116.23 105.80 109.44 114.78 C 117.54 124.51 125.68 134.22 133.93 143.83 C 142.99 110.18 152.48 76.62 161.00 42.84 C 120.26 55.75 79.76 69.42 39.03 82.34 C 47.05 85.98 55.26 89.17 63.37 92.61 C 65.66 93.43 67.74 95.41 67.68 98.00 C 67.68 109.87 66.94 121.73 66.74 133.59 C 70.96 129.88 74.32 125.28 78.69 121.75 C 83.78 118.37 90.26 125.68 86.31 130.32 C 79.02 138.35 71.66 146.35 64.14 154.16 C 60.87 157.61 54.18 154.81 54.44 150.00 C 54.69 134.07 55.57 118.15 55.77 102.21 C 43.75 97.18 31.66 92.30 19.69 87.18 C 14.80 85.45 15.12 77.55 20.15 76.25 Z" />
</g>
</svg>
