<?xml version="1.0" encoding="UTF-8" ?>
<!DOCTYPE svg PUBLIC "-//W3C//DTD SVG 1.1//EN" "http://www.w3.org/Graphics/SVG/1.1/DTD/svg11.dtd">
<svg width="192pt" height="192pt" viewBox="0 0 192 192" version="1.1" xmlns="http://www.w3.org/2000/svg">
<g id="#606f80ff">
<path fill="#606f80" opacity="1.00" d=" M 84.40 13.52 C 105.80 10.46 128.32 16.33 145.47 29.49 C 169.74 47.73 182.37 80.20 176.19 110.01 C 170.39 140.84 145.17 166.45 114.87 173.90 C 102.54 177.38 89.65 176.47 77.00 176.58 C 59.33 176.56 41.67 176.62 24.01 176.55 C 20.15 176.94 16.89 172.74 18.14 169.09 C 21.26 161.70 27.75 155.63 28.53 147.35 C 29.13 139.74 23.23 134.03 20.78 127.29 C 8.43 99.55 13.53 65.21 33.14 42.08 C 45.97 26.72 64.57 16.30 84.40 13.52 M 30.80 67.72 C 22.11 88.33 24.35 112.88 36.13 131.83 C 42.45 142.01 40.85 155.41 33.88 164.85 C 53.92 165.18 73.96 164.92 94.00 164.99 C 115.24 165.01 136.28 155.27 149.85 138.90 C 162.41 124.12 168.35 103.91 165.42 84.70 C 161.39 52.14 131.98 24.87 99.03 24.24 C 70.05 22.39 41.49 40.81 30.80 67.72 Z" />
<path fill="#606f80" opacity="1.00" d=" M 58.36 89.52 C 80.27 83.40 102.20 77.30 124.13 71.26 C 127.13 69.67 130.03 73.44 128.12 76.05 C 119.90 92.18 111.91 108.44 103.48 124.45 C 98.68 129.36 93.71 121.57 89.11 119.93 C 85.08 121.74 80.09 128.81 75.83 124.22 C 74.69 118.91 75.05 113.03 75.64 107.63 C 82.01 101.65 90.20 97.75 96.54 91.70 C 87.42 95.77 79.18 101.70 70.03 105.64 C 65.21 104.38 61.47 100.35 57.20 97.80 C 53.61 96.04 54.31 90.11 58.36 89.52 Z" />
</g>
</svg>
