<?xml version="1.0" encoding="UTF-8" ?>
<!DOCTYPE svg PUBLIC "-//W3C//DTD SVG 1.1//EN" "http://www.w3.org/Graphics/SVG/1.1/DTD/svg11.dtd">
<svg width="192pt" height="192pt" viewBox="0 0 192 192" version="1.1" xmlns="http://www.w3.org/2000/svg">
<g id="#ff3661ff">
<path fill="#ff3661" opacity="1.00" d=" M 24.34 34.46 C 26.83 33.74 29.44 33.74 32.00 33.72 C 78.02 33.79 124.04 33.65 170.06 33.78 C 176.70 33.55 177.58 44.22 171.05 45.19 C 123.70 45.52 76.32 45.17 28.96 45.36 C 27.33 45.00 26.02 46.34 26.36 47.97 C 26.16 82.65 26.54 117.36 26.18 152.04 C 25.18 158.37 14.92 157.49 15.11 151.05 C 14.98 116.67 15.04 82.29 15.09 47.91 C 14.91 42.06 18.37 35.88 24.34 34.46 Z" />
<path fill="#ff3661" opacity="1.00" d=" M 148.15 65.16 C 153.17 60.66 160.84 58.81 167.03 61.98 C 172.61 64.66 175.17 71.10 175.17 77.00 C 175.30 91.66 175.22 106.34 175.11 121.01 C 175.04 127.48 176.15 134.28 173.42 140.40 C 169.14 150.66 157.84 156.75 146.98 156.53 C 112.31 156.42 77.62 156.57 42.95 156.45 C 36.42 156.16 36.59 145.43 43.13 145.36 C 77.74 145.11 112.36 145.37 146.97 145.25 C 154.59 145.38 163.52 140.46 163.89 132.10 C 163.98 113.39 164.05 94.66 163.85 75.94 C 164.31 71.65 158.74 70.50 156.16 73.22 C 141.47 85.81 127.00 98.67 112.42 111.39 C 105.15 119.38 91.56 121.63 83.57 113.43 C 69.35 98.98 54.71 84.89 40.98 69.99 C 43.66 67.55 45.97 64.71 48.85 62.48 C 63.05 76.49 76.84 90.93 91.03 104.95 C 93.98 108.12 99.06 108.13 102.20 105.23 C 117.63 92.02 132.77 78.45 148.15 65.16 Z" />
</g>
</svg>
