<?xml version="1.0" encoding="UTF-8" ?>
<!DOCTYPE svg PUBLIC "-//W3C//DTD SVG 1.1//EN" "http://www.w3.org/Graphics/SVG/1.1/DTD/svg11.dtd">
<svg width="192pt" height="192pt" viewBox="0 0 192 192" version="1.1" xmlns="http://www.w3.org/2000/svg">
<g id="#ff365dff">
<path fill="#ff365d" opacity="1.00" d=" M 47.20 19.12 C 48.63 14.58 53.13 11.20 57.93 11.36 C 85.31 11.34 112.70 11.30 140.08 11.37 C 147.22 11.14 153.08 18.91 150.60 25.70 C 145.31 39.97 139.57 54.07 134.19 68.30 C 140.33 68.57 146.48 68.16 152.62 68.53 C 156.53 68.84 159.24 73.25 157.72 76.89 C 152.98 90.00 147.86 102.97 143.00 116.03 C 141.88 119.36 138.53 121.74 135.00 121.53 C 126.79 121.50 118.55 121.89 110.35 121.51 C 104.78 120.51 104.83 111.58 110.39 110.60 C 117.91 110.10 125.48 110.51 133.03 110.23 C 136.91 100.07 140.86 89.93 144.54 79.70 C 138.41 79.52 132.27 79.75 126.14 79.51 C 122.22 79.26 119.43 74.75 121.01 71.12 C 127.07 54.89 133.61 38.84 139.68 22.61 C 112.45 22.61 85.22 22.57 57.99 22.62 C 55.43 29.52 52.75 36.37 50.16 43.25 C 65.44 43.34 80.73 43.17 96.02 43.36 C 99.96 43.03 103.47 47.14 102.20 50.98 C 99.66 59.05 96.21 66.84 92.45 74.41 C 91.13 77.30 88.32 79.68 85.02 79.62 C 76.23 79.66 67.43 79.76 58.65 79.54 C 53.97 89.79 50.43 100.53 46.17 110.95 C 53.46 111.21 60.76 110.78 68.05 110.99 C 72.46 111.07 75.10 116.33 73.07 120.10 C 66.93 134.72 60.64 149.28 54.46 163.88 C 64.68 164.05 74.90 163.92 85.12 163.96 C 89.24 154.03 92.58 143.75 96.98 133.95 C 100.29 128.95 108.98 133.18 106.86 138.90 C 103.06 149.32 98.94 159.64 94.96 170.00 C 93.66 173.64 89.71 175.55 86.00 175.26 C 73.66 175.19 61.30 175.40 48.96 175.16 C 43.74 174.99 39.89 168.98 42.06 164.19 C 47.90 150.18 54.00 136.27 59.87 122.26 C 52.58 122.23 45.28 122.63 37.99 122.29 C 34.13 121.99 31.42 117.62 32.95 114.03 C 38.00 100.50 43.33 87.06 48.56 73.59 C 49.57 70.44 52.71 68.33 55.99 68.44 C 64.94 68.33 73.90 68.45 82.85 68.40 C 85.00 63.83 87.19 59.27 88.88 54.51 C 73.59 54.55 58.29 54.59 43.00 54.48 C 38.82 54.68 35.41 50.02 37.07 46.11 C 40.23 37.04 43.98 28.17 47.20 19.12 Z" />
</g>
</svg>
