<?xml version="1.0" encoding="UTF-8" ?>
<!DOCTYPE svg PUBLIC "-//W3C//DTD SVG 1.1//EN" "http://www.w3.org/Graphics/SVG/1.1/DTD/svg11.dtd">
<svg width="192pt" height="192pt" viewBox="0 0 192 192" version="1.1" xmlns="http://www.w3.org/2000/svg">
<g id="#1ab2ffff">
<path fill="#1ab2ff" opacity="1.00" d=" M 93.20 60.05 C 98.06 28.73 134.61 10.15 163.66 19.32 C 170.48 21.34 177.18 27.31 176.54 34.99 C 176.13 41.77 170.02 45.94 164.44 48.55 C 147.13 56.66 127.75 58.42 109.92 65.02 C 129.84 77.06 145.73 95.34 155.74 116.28 C 160.96 127.45 163.79 140.17 161.46 152.44 C 159.86 160.74 153.94 169.19 145.01 170.31 C 133.68 171.77 123.32 165.02 115.84 157.15 C 96.91 136.59 91.19 107.48 91.08 80.34 C 72.76 89.63 64.06 109.89 48.96 122.96 C 40.97 129.28 28.69 130.95 20.10 124.89 C 12.40 119.27 10.73 108.27 13.66 99.66 C 16.42 91.56 23.16 85.83 29.54 80.54 C 47.37 66.47 70.46 58.67 93.20 60.05 M 106.65 54.05 C 122.36 48.60 138.96 46.23 154.58 40.49 C 158.50 38.86 162.73 37.33 165.61 34.05 C 162.94 29.87 157.49 29.18 152.99 28.48 C 134.54 26.91 113.77 36.10 106.65 54.05 M 27.18 98.19 C 23.33 102.72 21.86 110.24 25.94 115.06 C 31.11 119.47 39.23 117.11 43.64 112.68 C 57.08 98.85 66.87 80.84 84.03 71.03 C 62.65 72.85 41.50 81.92 27.18 98.19 M 102.52 73.97 C 101.89 93.31 103.84 113.24 112.06 130.98 C 116.96 141.81 124.31 152.43 135.31 157.71 C 140.00 160.13 147.15 159.90 149.06 154.06 C 154.44 139.13 147.60 123.06 139.64 110.37 C 130.44 95.53 117.86 82.46 102.52 73.97 Z" />
</g>
</svg>
