<?xml version="1.0" encoding="UTF-8" ?>
<!DOCTYPE svg PUBLIC "-//W3C//DTD SVG 1.1//EN" "http://www.w3.org/Graphics/SVG/1.1/DTD/svg11.dtd">
<svg width="192pt" height="192pt" viewBox="0 0 192 192" version="1.1" xmlns="http://www.w3.org/2000/svg">
<g id="#4bd172ff">
<path fill="#4bd172" opacity="1.00" d=" M 44.86 26.08 C 42.43 22.51 45.73 17.21 50.00 17.81 C 53.59 18.00 54.96 21.78 56.64 24.36 C 60.76 30.99 64.40 37.93 68.89 44.33 C 86.24 38.01 105.76 38.06 123.11 44.36 C 128.31 36.37 132.84 27.97 138.02 19.97 C 140.26 16.40 146.31 17.50 147.51 21.42 C 148.76 25.06 145.68 28.09 144.12 31.07 C 140.75 37.04 136.69 42.64 133.83 48.87 C 160.38 62.77 178.53 91.81 177.78 121.96 C 177.83 125.44 174.18 127.45 171.06 127.15 C 121.02 127.14 70.98 127.14 20.95 127.14 C 17.81 127.45 14.21 125.51 14.10 122.06 C 13.37 91.80 31.55 62.48 58.38 48.77 C 53.96 41.15 49.24 33.71 44.86 26.08 M 77.15 53.18 C 48.97 60.56 27.26 86.84 25.21 115.89 C 72.36 116.11 119.51 115.98 166.66 115.96 C 165.23 98.00 156.70 80.75 143.22 68.79 C 125.75 52.81 99.93 46.71 77.15 53.18 Z" />
<path fill="#4bd172" opacity="1.00" d=" M 125.30 81.29 C 132.04 79.88 137.97 87.74 135.01 93.90 C 132.85 99.63 124.48 101.35 120.46 96.58 C 115.40 91.82 118.42 82.30 125.30 81.29 Z" />
<path fill="#4bd172" opacity="1.00" d=" M 62.29 82.34 C 68.01 79.34 75.40 84.68 74.81 90.97 C 74.98 97.68 66.31 102.35 60.94 98.11 C 55.22 94.50 56.03 84.92 62.29 82.34 Z" />
<path fill="#4bd172" opacity="1.00" d=" M 55.58 143.43 C 51.41 140.53 55.18 133.14 59.96 134.86 C 69.88 138.92 79.72 143.22 89.51 147.58 C 94.67 149.91 94.58 158.10 89.32 160.26 C 79.54 164.55 69.80 168.96 59.90 172.95 C 54.85 174.68 51.35 166.60 55.99 164.01 C 63.83 160.28 72.32 158.00 80.05 154.01 C 72.62 149.12 63.37 147.70 55.58 143.43 Z" />
<path fill="#4bd172" opacity="1.00" d=" M 101.35 162.39 C 111.09 161.01 121.18 162.07 131.05 161.82 C 136.49 161.46 137.82 170.24 132.68 171.57 C 122.84 172.03 112.94 171.76 103.08 171.70 C 98.31 171.66 96.98 164.23 101.35 162.39 Z" />
</g>
</svg>
