<?xml version="1.0" encoding="UTF-8" ?>
<!DOCTYPE svg PUBLIC "-//W3C//DTD SVG 1.1//EN" "http://www.w3.org/Graphics/SVG/1.1/DTD/svg11.dtd">
<svg width="192pt" height="192pt" viewBox="0 0 192 192" version="1.1" xmlns="http://www.w3.org/2000/svg">
<g id="#5f6f81ff">
<path fill="#5f6f81" opacity="1.00" d=" M 40.28 21.31 C 75.77 19.97 111.42 21.11 146.98 20.73 C 159.55 20.19 171.04 31.37 170.83 43.95 C 170.89 77.98 170.88 112.01 170.85 146.04 C 171.23 158.36 160.35 169.51 148.06 169.55 C 113.69 169.61 79.31 169.59 44.94 169.55 C 32.60 169.55 21.75 158.37 22.06 146.04 C 22.04 112.01 22.03 77.98 22.08 43.95 C 21.97 33.38 30.00 23.56 40.28 21.31 M 42.29 32.41 C 37.27 33.77 33.17 38.61 33.32 43.93 C 33.27 77.97 33.31 112.02 33.31 146.07 C 33.05 152.81 39.30 158.77 46.00 158.33 C 79.67 158.32 113.33 158.32 147.00 158.31 C 153.68 158.71 159.80 152.75 159.64 146.07 C 159.71 112.36 159.66 78.64 159.67 44.93 C 160.17 38.08 153.99 31.44 147.02 32.14 C 112.13 32.58 77.12 30.86 42.29 32.41 Z" />
<path fill="#5f6f81" opacity="1.00" d=" M 54.06 63.85 C 51.51 59.26 55.79 52.99 61.02 53.71 C 65.10 53.89 67.07 57.89 69.29 60.70 C 77.59 72.21 86.66 83.20 94.48 95.03 C 86.06 107.59 76.45 119.32 67.65 131.62 C 65.94 134.18 63.34 136.77 59.98 136.36 C 55.13 136.24 51.66 130.33 54.05 126.08 C 61.02 115.42 69.88 105.93 76.34 94.99 C 69.90 84.03 60.99 74.55 54.06 63.85 Z" />
<path fill="#5f6f81" opacity="1.00" d=" M 92.22 125.28 C 104.72 124.15 117.42 125.13 130.00 124.78 C 133.57 124.97 138.28 123.89 140.62 127.40 C 143.30 130.88 140.56 136.84 136.01 136.53 C 122.01 136.62 107.99 136.64 93.98 136.52 C 88.02 136.48 86.64 127.17 92.22 125.28 Z" />
</g>
</svg>
