<?xml version="1.0" encoding="UTF-8" ?>
<!DOCTYPE svg PUBLIC "-//W3C//DTD SVG 1.1//EN" "http://www.w3.org/Graphics/SVG/1.1/DTD/svg11.dtd">
<svg width="192pt" height="192pt" viewBox="0 0 192 192" version="1.1" xmlns="http://www.w3.org/2000/svg">
<g id="#65b664ff">
<path fill="#65b664" opacity="1.00" d=" M 65.69 45.06 C 66.29 27.62 82.58 12.81 99.98 13.72 C 118.19 13.66 134.17 30.75 132.62 48.96 C 132.18 64.64 119.32 77.39 104.44 80.57 C 104.79 94.43 104.45 108.30 104.63 122.16 C 110.31 121.19 115.94 119.92 121.56 118.61 C 123.54 110.20 131.16 103.36 139.95 103.26 C 150.25 102.65 159.91 111.63 159.86 121.98 C 160.43 132.27 151.30 141.76 141.01 141.64 C 133.17 142.05 126.07 136.86 122.65 130.03 C 116.59 131.04 110.61 132.49 104.60 133.80 C 104.60 144.30 104.59 154.80 104.62 165.30 C 114.63 165.47 124.65 165.05 134.65 165.47 C 140.45 166.29 140.46 175.63 134.62 176.40 C 111.89 176.66 89.12 176.55 66.38 176.43 C 60.60 176.10 59.76 166.93 65.42 165.60 C 74.70 164.96 84.05 165.53 93.36 165.31 C 93.43 154.51 93.41 143.71 93.37 132.91 C 82.74 127.92 71.99 123.18 61.31 118.30 C 54.98 125.14 44.29 127.68 35.87 123.31 C 26.46 118.91 21.52 107.05 25.24 97.31 C 28.64 87.10 40.58 80.89 50.89 84.07 C 61.11 86.67 68.04 97.67 66.10 108.03 C 75.04 112.52 84.30 116.37 93.38 120.56 C 93.31 107.05 93.67 93.51 93.21 80.01 C 77.00 77.36 64.27 61.52 65.69 45.06 M 94.38 25.52 C 79.60 28.09 71.90 47.25 80.70 59.36 C 86.78 68.90 100.56 72.09 110.23 66.21 C 119.48 61.11 123.88 48.95 119.83 39.15 C 116.15 29.15 104.74 23.12 94.38 25.52 M 41.32 95.38 C 35.22 97.68 33.42 106.40 37.98 111.01 C 42.62 116.39 52.48 114.35 54.46 107.48 C 57.56 99.94 48.60 91.74 41.32 95.38 M 137.29 115.31 C 128.21 119.05 134.57 134.12 143.72 129.67 C 153.34 126.10 146.50 110.49 137.29 115.31 Z" />
</g>
</svg>
