<?xml version="1.0" encoding="UTF-8" ?>
<!DOCTYPE svg PUBLIC "-//W3C//DTD SVG 1.1//EN" "http://www.w3.org/Graphics/SVG/1.1/DTD/svg11.dtd">
<svg width="192pt" height="192pt" viewBox="0 0 192 192" version="1.1" xmlns="http://www.w3.org/2000/svg">
<g id="#ff365dff">
<path fill="#ff365d" opacity="1.00" d=" M 78.45 15.65 C 110.14 13.14 142.27 17.98 172.07 28.92 C 176.40 29.87 177.30 36.30 173.51 38.48 C 170.95 40.34 167.92 38.52 165.39 37.58 C 140.37 27.15 112.86 24.36 85.97 25.25 C 63.68 25.84 41.63 30.79 20.92 38.97 C 15.44 41.06 11.56 32.41 16.61 29.63 C 36.35 21.90 57.33 17.39 78.45 15.65 Z" />
<path fill="#ff365d" opacity="1.00" d=" M 61.38 36.44 C 69.41 34.80 77.84 40.63 79.35 48.64 C 87.29 78.16 90.27 108.77 96.47 138.67 C 102.58 108.73 105.65 78.13 113.55 48.58 C 115.09 40.54 123.57 34.74 131.62 36.45 C 143.67 38.87 155.85 42.11 166.39 48.63 C 172.16 52.01 173.36 60.87 168.55 65.57 C 163.03 71.01 155.53 74.30 148.00 75.77 C 142.62 76.38 139.97 68.37 144.58 65.59 C 149.91 63.40 155.84 62.13 160.17 58.03 C 151.03 52.56 140.58 49.79 130.24 47.65 C 127.95 46.94 125.25 48.24 124.74 50.67 C 123.32 55.72 121.86 60.77 120.73 65.89 C 114.52 101.25 108.48 136.65 102.22 172.00 C 101.70 178.26 91.44 178.31 90.71 172.14 C 84.71 138.11 78.85 104.05 72.92 70.00 C 71.96 63.48 69.94 57.18 68.21 50.83 C 67.76 48.38 65.09 46.93 62.76 47.63 C 52.43 49.81 41.90 52.45 32.82 58.04 C 37.06 62.23 43.05 63.38 48.34 65.63 C 52.85 68.42 50.35 76.29 45.01 75.77 C 37.45 74.35 29.94 71.03 24.39 65.60 C 19.59 60.85 20.73 51.96 26.57 48.58 C 37.14 42.11 49.31 38.82 61.38 36.44 Z" />
</g>
</svg>
