<?xml version="1.0" encoding="UTF-8" ?>
<!DOCTYPE svg PUBLIC "-//W3C//DTD SVG 1.1//EN" "http://www.w3.org/Graphics/SVG/1.1/DTD/svg11.dtd">
<svg width="192pt" height="192pt" viewBox="0 0 192 192" version="1.1" xmlns="http://www.w3.org/2000/svg">
<g id="#3f9991ff">
<path fill="#3f9991" opacity="1.00" d=" M 21.11 44.13 C 45.12 35.12 69.08 25.96 93.12 17.03 C 97.00 15.36 102.32 18.43 101.70 22.93 C 101.58 61.01 101.74 99.09 101.64 137.17 C 121.56 145.07 141.71 152.39 161.77 159.95 C 161.71 124.78 161.89 89.62 161.68 54.46 C 143.99 47.44 126.17 40.71 108.59 33.45 C 102.21 30.65 106.18 19.95 112.92 22.18 C 131.73 29.13 150.29 36.79 169.02 43.97 C 172.09 44.85 174.59 47.65 174.22 50.99 C 174.22 90.34 174.28 129.69 174.19 169.04 C 174.38 173.08 169.87 176.43 166.09 174.83 C 141.29 165.78 116.75 156.01 91.87 147.18 C 90.70 146.72 89.86 145.74 88.90 144.98 C 88.95 107.30 89.06 69.61 88.85 31.93 C 68.96 39.40 49.12 46.99 29.19 54.33 C 28.45 89.48 29.03 124.69 28.94 159.86 C 44.71 153.39 60.28 146.43 76.08 140.07 C 82.69 137.44 87.30 147.93 81.23 151.23 C 62.76 159.25 44.06 166.78 25.49 174.56 C 21.57 176.75 16.21 173.51 16.43 169.02 C 16.36 129.66 16.44 90.30 16.43 50.93 C 16.11 47.85 18.16 44.98 21.11 44.13 Z" />
</g>
</svg>
