<?xml version="1.0" encoding="UTF-8" ?>
<!DOCTYPE svg PUBLIC "-//W3C//DTD SVG 1.1//EN" "http://www.w3.org/Graphics/SVG/1.1/DTD/svg11.dtd">
<svg width="192pt" height="192pt" viewBox="0 0 192 192" version="1.1" xmlns="http://www.w3.org/2000/svg">
<g id="#18b9c5ff">
<path fill="#18b9c5" opacity="1.00" d=" M 90.09 21.10 C 93.28 18.04 98.59 18.16 101.71 21.26 C 125.68 42.29 149.75 63.22 173.55 84.45 C 177.21 87.07 176.25 93.69 171.90 94.99 C 168.70 95.68 165.38 95.23 162.13 95.27 C 161.94 117.87 162.27 140.47 161.97 163.07 C 162.33 168.12 158.18 172.82 152.99 172.47 C 132.33 172.51 111.66 172.55 91.01 172.45 C 85.15 172.39 82.78 165.99 83.63 161.01 C 84.47 153.58 81.62 144.93 86.52 138.49 C 92.19 132.16 101.57 135.23 109.01 134.54 C 114.95 133.69 117.59 142.66 112.24 145.22 C 106.69 146.49 100.85 145.45 95.19 145.79 C 94.90 150.91 94.77 156.03 95.04 161.15 C 113.59 161.16 132.14 161.28 150.69 161.07 C 150.68 138.04 150.64 115.02 150.71 92.00 C 150.36 88.33 152.93 85.46 156.04 83.98 C 136.02 66.29 115.90 48.72 95.85 31.07 C 75.76 48.64 55.73 66.28 35.77 84.00 C 38.89 85.94 41.28 89.10 41.02 92.95 C 41.23 115.68 40.66 138.42 40.91 161.16 C 48.90 161.37 56.91 160.95 64.89 161.30 C 70.66 162.12 70.79 171.34 65.01 172.29 C 56.02 172.67 46.99 172.54 38.00 172.36 C 33.11 172.31 29.43 167.74 29.74 162.99 C 29.57 140.45 29.81 117.91 29.69 95.37 C 26.11 95.20 22.24 95.78 18.94 94.11 C 15.30 91.88 15.81 86.40 18.88 83.92 C 42.52 62.87 66.30 41.98 90.09 21.10 Z" />
<path fill="#18b9c5" opacity="1.00" d=" M 86.34 86.42 C 101.49 83.12 117.94 88.24 128.89 99.11 C 131.91 101.93 130.39 107.57 126.37 108.47 C 121.67 109.60 118.97 104.60 115.31 102.68 C 102.81 94.02 85.31 95.30 73.41 104.42 C 68.68 108.32 61.87 101.34 65.62 96.61 C 71.30 91.29 78.82 88.14 86.34 86.42 Z" />
<path fill="#18b9c5" opacity="1.00" d=" M 91.34 108.41 C 99.72 106.96 109.13 109.72 114.49 116.52 C 117.69 121.43 110.78 127.50 106.35 123.75 C 102.32 119.96 96.47 118.21 91.13 120.05 C 87.56 120.99 85.34 125.33 81.33 124.63 C 77.32 124.18 75.16 118.84 77.73 115.72 C 81.22 111.81 86.18 109.26 91.34 108.41 Z" />
</g>
</svg>
