<?xml version="1.0" encoding="UTF-8" ?>
<!DOCTYPE svg PUBLIC "-//W3C//DTD SVG 1.1//EN" "http://www.w3.org/Graphics/SVG/1.1/DTD/svg11.dtd">
<svg width="192pt" height="192pt" viewBox="0 0 192 192" version="1.1" xmlns="http://www.w3.org/2000/svg">
<g id="#8392a2ff">
<path fill="#8392a2" opacity="1.00" d=" M 46.35 25.44 C 67.75 23.79 89.47 25.21 111.00 24.72 C 115.83 24.78 121.48 24.01 125.28 27.70 C 133.24 35.41 140.97 43.36 148.82 51.20 C 151.47 53.72 153.08 57.25 152.85 60.95 C 152.83 91.99 152.88 123.03 152.82 154.07 C 153.08 160.87 146.80 166.85 140.06 166.54 C 115.09 166.52 90.11 166.65 65.14 166.47 C 58.72 166.47 58.46 155.74 64.98 155.62 C 88.64 155.38 112.33 155.64 136.00 155.50 C 139.05 155.74 141.99 153.18 141.82 150.05 C 141.91 125.34 141.86 100.62 141.84 75.92 C 142.05 73.99 140.96 71.66 138.87 71.43 C 128.60 70.99 118.29 71.75 108.04 71.09 C 104.03 67.88 108.79 61.10 104.93 57.77 C 88.29 57.39 71.62 57.70 54.96 57.62 C 51.96 57.31 49.00 59.86 49.21 62.95 C 48.80 95.95 49.47 128.99 48.87 161.97 C 48.25 168.42 37.70 167.53 38.10 161.06 C 37.89 120.03 38.21 78.98 38.11 37.94 C 37.80 32.56 41.22 27.20 46.35 25.44 M 52.25 36.22 C 47.29 38.15 48.75 46.54 54.14 46.51 C 70.03 46.62 85.95 46.73 101.83 46.45 C 108.21 45.90 107.46 35.45 101.05 35.77 C 84.81 35.98 68.39 35.10 52.25 36.22 M 117.57 35.70 C 117.35 43.86 117.38 52.02 117.54 60.18 C 125.72 60.32 133.92 60.32 142.11 60.17 C 134.01 51.94 125.94 43.65 117.57 35.70 Z" />
<path fill="#8392a2" opacity="1.00" d=" M 66.40 81.64 C 74.43 81.35 82.53 81.29 90.55 81.68 C 95.88 82.53 96.17 90.90 91.00 92.28 C 82.70 92.65 74.33 92.65 66.03 92.29 C 60.67 91.11 60.91 82.37 66.40 81.64 Z" />
<path fill="#8392a2" opacity="1.00" d=" M 66.37 103.52 C 71.00 103.25 75.74 102.99 80.33 103.70 C 85.14 105.26 84.91 112.91 80.01 114.18 C 75.36 114.54 70.66 114.56 66.02 114.17 C 60.68 112.93 60.90 104.31 66.37 103.52 Z" />
<path fill="#8392a2" opacity="1.00" d=" M 66.30 125.40 C 77.81 125.00 89.38 125.16 100.90 125.32 C 107.03 125.62 107.26 135.74 101.05 136.15 C 89.70 136.37 78.32 136.32 66.97 136.17 C 60.98 135.99 60.38 126.31 66.30 125.40 Z" />
</g>
</svg>
