<?xml version="1.0" encoding="UTF-8" ?>
<!DOCTYPE svg PUBLIC "-//W3C//DTD SVG 1.1//EN" "http://www.w3.org/Graphics/SVG/1.1/DTD/svg11.dtd">
<svg width="192pt" height="192pt" viewBox="0 0 192 192" version="1.1" xmlns="http://www.w3.org/2000/svg">
<g id="#ff3662ff">
<path fill="#ff3662" opacity="1.00" d=" M 49.95 18.86 C 61.93 11.50 78.20 12.14 89.58 20.40 C 99.72 27.32 105.41 39.53 105.28 51.69 C 121.22 69.43 137.42 86.94 153.22 104.81 C 158.56 110.98 155.00 119.83 148.94 123.98 C 153.76 131.21 159.44 138.78 159.66 147.84 C 159.90 153.92 154.88 159.19 148.95 159.90 C 133.21 162.18 118.67 152.21 102.94 154.03 C 101.21 154.30 98.36 154.65 98.45 156.98 C 99.17 161.99 102.93 166.02 103.59 171.01 C 103.99 175.78 97.24 178.49 94.21 174.77 C 89.06 167.81 84.86 157.82 89.54 149.59 C 94.26 142.18 104.21 142.12 112.00 142.91 C 124.38 143.80 136.16 150.37 148.70 148.53 C 148.07 142.33 144.32 137.10 140.86 132.13 C 136.69 137.96 127.80 139.87 122.34 134.70 C 108.90 122.49 95.25 110.47 82.03 98.03 C 77.68 93.40 84.95 85.97 89.66 90.23 C 103.27 102.29 116.62 114.65 130.16 126.80 C 135.37 122.21 140.22 117.22 144.92 112.13 C 130.72 96.33 116.47 80.56 102.10 64.91 C 96.32 78.06 82.42 87.24 67.98 86.71 C 51.80 86.78 36.67 74.62 33.10 58.87 C 29.14 43.72 36.38 26.62 49.95 18.86 M 63.39 25.56 C 51.17 27.86 42.02 40.24 43.47 52.61 C 44.42 66.41 58.30 77.51 71.99 75.21 C 86.16 73.68 96.73 58.53 93.20 44.70 C 90.55 31.59 76.42 22.55 63.39 25.56 Z" />
<path fill="#ff3662" opacity="1.00" d=" M 100.40 77.44 C 106.82 75.80 109.28 86.53 102.71 87.69 C 95.94 89.75 93.46 78.44 100.40 77.44 Z" />
</g>
</svg>
