<?xml version="1.0" encoding="UTF-8" ?>
<!DOCTYPE svg PUBLIC "-//W3C//DTD SVG 1.1//EN" "http://www.w3.org/Graphics/SVG/1.1/DTD/svg11.dtd">
<svg width="192pt" height="192pt" viewBox="0 0 192 192" version="1.1" xmlns="http://www.w3.org/2000/svg">
<g id="#ff8c1fff">
<path fill="#ff8c1f" opacity="1.00" d=" M 75.28 25.31 C 80.31 23.89 85.66 25.29 90.03 27.93 C 106.14 37.31 122.68 45.91 138.87 55.13 C 144.48 58.10 144.32 65.27 143.55 70.69 C 142.31 76.11 133.75 76.51 131.57 71.59 C 130.78 68.57 131.84 64.29 128.40 62.65 C 112.78 54.27 97.20 45.80 81.69 37.24 C 79.52 35.73 76.95 36.62 74.94 37.90 C 59.23 46.91 43.44 55.79 27.63 64.62 C 24.83 65.97 22.72 68.70 23.09 71.94 C 23.13 96.98 23.00 122.02 23.15 147.05 C 22.82 150.32 26.34 151.44 28.98 151.15 C 72.67 150.93 116.37 151.09 160.07 150.93 C 162.81 151.22 164.23 148.46 163.93 146.07 C 163.94 130.04 164.22 114.01 164.36 97.98 C 164.73 95.38 162.74 92.91 160.02 93.31 C 123.33 93.24 86.63 93.16 49.94 93.12 C 47.96 92.72 45.82 94.37 48.29 95.63 C 66.24 104.77 84.50 113.33 102.34 122.69 C 104.50 124.16 106.99 123.12 108.97 121.90 C 118.85 116.13 128.79 110.45 138.66 104.66 C 141.34 103.09 144.75 101.51 147.77 103.16 C 152.18 105.35 152.37 112.69 147.76 114.78 C 136.30 121.01 124.84 127.24 113.44 133.58 C 107.98 136.71 101.05 136.44 95.61 133.43 C 76.04 123.29 56.33 113.40 36.87 103.09 C 27.64 97.93 30.60 80.83 41.92 81.05 C 81.93 80.74 121.95 80.61 161.96 80.62 C 168.71 80.07 175.50 84.98 175.57 92.06 C 176.02 111.69 175.77 131.34 175.71 150.97 C 176.11 157.44 170.34 162.82 163.97 162.45 C 116.99 162.47 70.00 162.41 23.02 162.34 C 17.61 162.71 12.01 158.85 12.17 153.06 C 11.82 124.77 12.17 96.46 12.49 68.17 C 12.53 59.74 20.51 55.41 27.06 52.12 C 43.37 43.63 58.56 32.89 75.28 25.31 Z" />
</g>
</svg>
