<?xml version="1.0" encoding="UTF-8" ?>
<!DOCTYPE svg PUBLIC "-//W3C//DTD SVG 1.1//EN" "http://www.w3.org/Graphics/SVG/1.1/DTD/svg11.dtd">
<svg width="192pt" height="192pt" viewBox="0 0 192 192" version="1.1" xmlns="http://www.w3.org/2000/svg">
<g id="#8492a2ff">
<path fill="#8492a2" opacity="1.00" d=" M 40.27 21.31 C 75.77 19.97 111.43 21.11 146.98 20.73 C 159.55 20.20 171.02 31.37 170.81 43.94 C 170.87 77.98 170.85 112.02 170.82 146.06 C 171.16 158.35 160.33 169.46 148.06 169.51 C 113.69 169.58 79.31 169.57 44.94 169.52 C 32.61 169.51 21.78 158.37 22.05 146.05 C 22.02 112.01 22.01 77.97 22.06 43.93 C 21.98 33.37 29.98 23.53 40.27 21.31 M 42.28 32.37 C 37.23 33.74 33.21 38.60 33.31 43.92 C 33.25 77.97 33.28 112.02 33.29 146.07 C 33.05 152.81 39.28 158.77 46.00 158.33 C 79.67 158.33 113.34 158.34 147.00 158.33 C 153.71 158.71 159.82 152.77 159.65 146.07 C 159.70 112.02 159.73 77.97 159.64 43.92 C 159.71 36.86 152.87 31.26 146.01 31.83 C 111.45 32.20 76.78 31.12 42.28 32.37 Z" />
<path fill="#8492a2" opacity="1.00" d=" M 84.88 80.09 C 85.74 76.34 82.11 67.58 87.36 67.49 C 87.40 69.15 87.44 70.82 87.49 72.49 C 88.34 72.48 90.02 72.45 90.86 72.43 C 90.95 70.72 91.05 69.00 91.16 67.29 C 91.74 67.37 92.92 67.54 93.51 67.62 C 93.58 71.61 93.59 75.60 93.56 79.59 C 92.96 79.65 91.74 79.75 91.14 79.80 C 91.00 78.07 90.87 76.33 90.74 74.60 C 89.69 74.68 88.63 74.76 87.58 74.84 C 87.27 76.95 88.09 80.27 84.88 80.09 Z" />
<path fill="#8492a2" opacity="1.00" d=" M 95.54 67.51 C 98.02 67.48 100.50 67.47 102.99 67.46 C 103.02 68.00 103.09 69.09 103.12 69.63 C 101.49 69.66 99.85 69.69 98.22 69.72 C 98.21 70.38 98.19 71.70 98.18 72.36 C 99.61 72.41 101.04 72.47 102.48 72.52 C 102.49 73.03 102.50 74.05 102.51 74.57 C 101.09 74.64 99.67 74.70 98.25 74.77 C 98.23 75.42 98.19 76.73 98.18 77.39 C 99.80 77.41 101.43 77.44 103.06 77.47 C 103.08 78.02 103.12 79.13 103.14 79.69 C 100.60 79.69 98.05 79.69 95.50 79.68 C 95.46 75.62 95.47 71.56 95.54 67.51 Z" />
<path fill="#8492a2" opacity="1.00" d=" M 73.97 68.94 C 76.55 66.62 81.56 66.63 84.12 68.98 C 82.87 69.38 81.62 69.78 80.36 70.17 C 79.66 73.34 82.43 79.53 77.88 80.09 C 77.73 76.78 77.72 73.47 77.70 70.17 C 76.45 69.77 75.21 69.36 73.97 68.94 Z" />
<path fill="#8492a2" opacity="1.00" d=" M 43.25 70.12 C 47.55 68.49 52.47 69.78 57.00 69.38 C 62.17 69.16 69.58 69.84 70.74 76.11 C 71.74 83.11 73.11 93.07 65.40 96.82 C 67.25 100.91 69.89 104.74 70.69 109.23 C 68.14 109.25 65.58 109.41 63.06 109.07 C 60.43 105.55 59.22 101.23 57.29 97.33 C 55.37 97.29 53.45 97.27 51.52 97.23 C 51.59 101.24 51.59 105.25 51.30 109.25 C 48.61 109.27 45.92 109.21 43.24 108.95 C 42.93 96.02 42.85 83.04 43.25 70.12 M 51.57 76.59 C 51.54 81.05 51.54 85.50 51.54 89.95 C 54.95 89.72 58.87 90.86 61.91 88.88 C 63.42 85.56 63.26 81.40 62.08 78.00 C 59.22 75.59 55.00 76.95 51.57 76.59 Z" />
<path fill="#8492a2" opacity="1.00" d=" M 78.32 82.44 C 82.95 81.54 88.36 80.97 92.62 83.36 C 96.16 87.29 94.42 93.19 94.87 98.00 C 94.79 101.93 95.41 108.18 90.29 109.15 C 84.41 110.29 73.75 110.81 74.40 102.08 C 75.28 95.80 71.49 86.07 78.32 82.44 M 80.42 87.32 C 80.12 92.71 79.65 98.19 80.52 103.54 C 82.61 105.33 86.34 105.15 88.59 103.71 C 89.66 98.31 89.11 92.70 88.66 87.25 C 85.94 86.57 83.12 86.57 80.42 87.32 Z" />
<path fill="#8492a2" opacity="1.00" d=" M 102.27 82.37 C 106.90 81.63 112.32 80.97 116.54 83.46 C 119.87 87.46 118.25 93.21 118.67 97.99 C 118.60 101.88 119.18 107.89 114.28 109.09 C 108.38 110.29 97.57 110.90 98.19 102.09 C 99.03 95.78 95.25 85.89 102.27 82.37 M 104.30 87.21 C 103.85 92.69 103.28 98.31 104.39 103.73 C 106.76 105.17 112.55 105.85 112.74 101.95 C 113.08 97.09 112.90 92.20 112.55 87.34 C 109.84 86.57 107.03 86.57 104.30 87.21 Z" />
<path fill="#8492a2" opacity="1.00" d=" M 122.54 82.32 C 124.29 82.22 126.05 82.08 127.81 82.23 C 131.34 87.19 133.15 93.16 136.27 98.39 C 139.00 93.02 141.49 87.53 144.27 82.18 C 146.07 82.19 147.87 82.22 149.67 82.27 C 149.89 91.24 149.82 100.21 149.72 109.17 C 147.87 109.18 146.02 109.18 144.18 109.15 C 143.92 104.05 143.92 98.95 143.82 93.85 C 141.67 98.23 139.55 102.62 137.38 106.98 C 131.72 105.60 131.50 97.77 128.30 93.55 C 128.27 98.80 128.32 104.05 128.20 109.30 C 126.31 109.21 124.43 109.11 122.54 108.97 C 122.49 100.09 122.50 91.20 122.54 82.32 Z" />
<path fill="#8492a2" opacity="1.00" d=" M 103.62 114.98 C 105.82 112.43 111.02 112.50 113.30 114.94 C 112.10 115.23 110.90 115.51 109.70 115.78 C 109.69 118.82 109.68 121.86 109.64 124.90 C 109.05 124.91 107.88 124.94 107.29 124.96 C 107.23 121.88 107.22 118.81 107.20 115.74 C 106.00 115.50 104.81 115.24 103.62 114.98 Z" />
<path fill="#8492a2" opacity="1.00" d=" M 114.08 113.33 C 117.08 112.49 115.94 116.40 116.51 118.13 C 117.55 118.12 118.58 118.11 119.62 118.10 C 119.62 116.65 119.62 115.21 119.62 113.76 C 120.19 113.60 121.31 113.28 121.87 113.12 C 122.17 117.03 122.17 120.95 122.12 124.87 C 121.52 124.90 120.32 124.94 119.72 124.96 C 119.65 123.40 119.59 121.84 119.54 120.27 C 118.47 120.27 117.41 120.26 116.35 120.26 C 116.32 121.81 116.30 123.37 116.28 124.93 C 115.67 124.92 114.46 124.90 113.86 124.88 C 113.84 121.03 113.50 117.15 114.08 113.33 Z" />
<path fill="#8492a2" opacity="1.00" d=" M 124.08 113.36 C 126.58 113.55 129.40 112.88 131.65 114.28 C 133.22 117.96 130.56 121.80 131.63 125.62 C 129.70 124.44 128.29 122.66 126.87 120.94 C 126.64 122.49 126.39 124.05 126.15 125.61 C 121.81 123.50 124.63 117.28 124.08 113.36 M 126.35 115.49 C 125.15 120.20 131.06 120.36 129.69 115.57 C 128.57 115.54 127.46 115.52 126.35 115.49 Z" />
<path fill="#8492a2" opacity="1.00" d=" M 133.85 113.37 C 136.21 113.39 138.56 113.41 140.92 113.45 C 140.87 113.92 140.76 114.88 140.70 115.35 C 138.78 115.63 135.99 114.93 135.69 117.62 C 137.21 117.81 138.73 118.00 140.25 118.18 C 140.24 118.68 140.23 119.67 140.22 120.17 C 138.87 120.21 137.53 120.25 136.18 120.30 C 136.19 120.89 136.21 122.06 136.22 122.65 C 137.97 122.73 139.71 122.82 141.45 122.94 C 140.62 126.44 136.33 124.66 133.76 125.11 C 133.67 121.20 133.68 117.28 133.85 113.37 Z" />
<path fill="#8492a2" opacity="1.00" d=" M 142.33 113.41 C 144.70 113.41 147.07 113.41 149.45 113.45 C 149.44 113.94 149.43 114.93 149.42 115.43 C 147.87 115.47 146.32 115.52 144.77 115.57 C 144.77 116.07 144.76 117.07 144.75 117.57 C 146.47 118.02 148.86 117.79 149.31 120.01 C 147.80 120.13 146.29 120.24 144.78 120.34 C 144.78 120.91 144.78 122.06 144.77 122.63 C 146.40 122.72 148.03 122.82 149.66 122.92 C 149.55 123.48 149.35 124.59 149.24 125.15 C 146.93 125.10 144.62 125.03 142.32 124.93 C 142.25 121.09 142.25 117.25 142.33 113.41 Z" />
</g>
</svg>
