<?xml version="1.0" encoding="UTF-8" ?>
<!DOCTYPE svg PUBLIC "-//W3C//DTD SVG 1.1//EN" "http://www.w3.org/Graphics/SVG/1.1/DTD/svg11.dtd">
<svg width="192pt" height="192pt" viewBox="0 0 192 192" version="1.1" xmlns="http://www.w3.org/2000/svg">
<g id="#41e274ff">
<path fill="#41e274" opacity="1.00" d=" M 36.19 23.91 C 35.83 19.58 39.84 16.31 44.00 16.78 C 77.67 16.73 111.34 17.04 145.00 16.70 C 148.36 16.83 152.40 16.36 154.94 19.05 C 157.32 21.78 156.62 25.68 156.72 29.01 C 156.38 41.68 156.71 54.36 156.62 67.02 C 156.79 71.09 152.83 73.91 148.99 73.47 C 122.99 73.36 96.98 73.62 70.99 73.28 C 64.66 73.55 64.47 62.60 70.94 63.05 C 94.98 62.79 119.05 63.12 143.09 62.89 C 146.22 62.92 146.07 59.21 145.98 57.01 C 145.70 47.50 146.45 37.94 145.54 28.47 C 114.80 26.96 83.84 28.29 53.01 27.79 C 50.66 27.84 46.16 27.26 46.67 30.93 C 46.54 48.94 46.80 66.97 46.57 84.99 C 46.54 87.48 46.66 90.46 48.88 92.08 C 59.78 98.72 72.64 102.26 82.57 110.43 C 91.37 119.39 84.77 132.14 82.53 142.40 C 79.96 149.67 83.19 158.62 90.58 161.52 C 99.34 165.93 111.49 158.95 111.49 148.98 C 111.31 138.76 105.31 129.32 106.38 118.97 C 107.04 112.74 111.88 107.91 117.28 105.26 C 126.90 100.50 136.48 95.62 146.35 91.38 C 149.73 89.94 155.46 90.04 156.56 94.35 C 157.27 97.30 154.34 99.10 152.13 100.26 C 141.93 105.39 131.51 110.09 121.38 115.37 C 118.48 116.74 116.44 119.74 117.09 123.04 C 118.24 133.52 124.12 143.68 121.45 154.43 C 118.40 168.87 100.75 177.51 87.33 171.70 C 79.17 168.69 72.77 161.28 71.48 152.61 C 69.97 142.77 74.27 133.41 76.34 123.99 C 77.19 120.09 74.31 116.61 70.94 115.08 C 61.13 110.15 51.22 105.42 41.34 100.65 C 37.67 99.00 35.82 94.94 36.12 91.05 C 36.26 68.67 36.25 46.29 36.19 23.91 Z" />
</g>
</svg>
