<?xml version="1.0" encoding="UTF-8" ?>
<!DOCTYPE svg PUBLIC "-//W3C//DTD SVG 1.1//EN" "http://www.w3.org/Graphics/SVG/1.1/DTD/svg11.dtd">
<svg width="192pt" height="192pt" viewBox="0 0 192 192" version="1.1" xmlns="http://www.w3.org/2000/svg">
<g id="#8392a2ff">
<path fill="#8392a2" opacity="1.00" d=" M 36.18 23.91 C 35.83 19.58 39.84 16.29 44.01 16.77 C 78.67 16.78 113.33 16.95 147.99 16.76 C 152.34 16.24 157.02 19.25 156.68 23.98 C 156.58 38.32 156.58 52.68 156.61 67.02 C 156.79 71.08 152.83 73.91 149.00 73.47 C 123.00 73.36 96.98 73.62 70.99 73.29 C 64.66 73.57 64.45 62.58 70.94 63.07 C 94.98 62.76 119.04 63.14 143.08 62.88 C 146.25 62.97 146.05 59.20 145.98 57.00 C 145.69 47.50 146.47 37.95 145.53 28.48 C 138.78 27.14 131.84 28.14 125.00 27.83 C 99.06 28.11 73.06 27.28 47.16 28.26 C 45.93 45.76 47.08 63.43 46.63 81.00 C 46.69 85.05 45.59 90.67 50.04 92.86 C 59.32 97.63 68.89 101.86 78.04 106.90 C 83.45 109.89 87.38 115.69 87.12 122.00 C 86.68 130.58 82.72 138.50 81.73 146.99 C 81.11 153.41 85.30 159.68 91.32 161.84 C 100.02 165.59 111.50 158.65 111.50 148.98 C 111.32 138.75 105.32 129.32 106.38 118.97 C 107.04 112.75 111.88 107.91 117.28 105.27 C 126.90 100.50 136.49 95.63 146.36 91.38 C 149.73 89.94 155.45 90.05 156.56 94.35 C 157.25 97.29 154.35 99.10 152.14 100.26 C 142.35 105.12 132.44 109.75 122.67 114.65 C 119.81 116.03 116.63 118.37 117.06 121.97 C 117.70 132.65 124.00 142.79 121.60 153.69 C 119.04 168.24 101.64 177.34 88.08 171.98 C 79.84 169.18 73.17 162.00 71.62 153.35 C 69.74 143.28 74.23 133.63 76.34 123.99 C 77.20 120.09 74.30 116.61 70.94 115.08 C 61.13 110.15 51.21 105.43 41.33 100.65 C 37.66 99.00 35.81 94.94 36.11 91.05 C 36.24 68.67 36.24 46.28 36.18 23.91 Z" />
</g>
</svg>
