<?xml version="1.0" encoding="UTF-8" ?>
<!DOCTYPE svg PUBLIC "-//W3C//DTD SVG 1.1//EN" "http://www.w3.org/Graphics/SVG/1.1/DTD/svg11.dtd">
<svg width="192pt" height="192pt" viewBox="0 0 192 192" version="1.1" xmlns="http://www.w3.org/2000/svg">
<g id="#eb2eabff">
<path fill="#eb2eab" opacity="1.00" d=" M 36.25 23.91 C 35.86 19.61 39.84 16.39 43.96 16.80 C 78.64 16.78 113.33 16.96 148.01 16.76 C 152.36 16.24 157.02 19.26 156.68 24.00 C 156.58 38.33 156.60 52.68 156.64 67.01 C 156.80 71.10 152.85 73.90 149.00 73.47 C 123.00 73.36 96.98 73.61 70.99 73.25 C 64.69 73.53 64.49 62.58 70.95 63.11 C 94.99 62.71 119.05 63.16 143.09 62.89 C 145.64 62.96 146.22 60.06 145.98 58.07 C 145.72 48.20 146.43 38.29 145.56 28.45 C 117.13 27.00 88.51 28.18 60.01 27.77 C 55.54 27.99 50.89 27.02 46.62 28.70 C 46.50 47.46 46.74 66.23 46.55 84.99 C 46.51 87.50 46.63 90.49 48.88 92.10 C 59.77 98.74 72.64 102.26 82.57 110.42 C 91.74 119.92 84.20 133.15 82.19 143.95 C 79.67 152.31 85.75 161.45 94.31 162.66 C 102.42 164.02 111.43 157.53 111.46 149.00 C 111.31 138.77 105.30 129.34 106.35 118.99 C 107.01 112.75 111.85 107.90 117.26 105.25 C 126.90 100.48 136.49 95.59 146.37 91.35 C 149.76 89.92 155.48 90.02 156.58 94.34 C 157.30 97.30 154.37 99.12 152.14 100.27 C 142.36 105.15 132.45 109.77 122.67 114.66 C 119.83 116.05 116.65 118.39 117.05 121.98 C 117.75 132.41 123.70 142.25 121.79 152.90 C 120.51 161.63 113.86 168.85 105.68 171.79 C 93.47 176.91 77.88 170.30 73.01 158.01 C 68.42 147.13 73.48 135.62 76.16 124.95 C 77.39 121.11 75.07 117.10 71.59 115.43 C 61.62 110.28 51.43 105.55 41.35 100.62 C 37.68 98.99 35.85 94.94 36.16 91.07 C 36.30 68.68 36.31 46.30 36.25 23.91 Z" />
</g>
</svg>
