<?xml version="1.0" encoding="UTF-8" ?>
<!DOCTYPE svg PUBLIC "-//W3C//DTD SVG 1.1//EN" "http://www.w3.org/Graphics/SVG/1.1/DTD/svg11.dtd">
<svg width="192pt" height="192pt" viewBox="0 0 192 192" version="1.1" xmlns="http://www.w3.org/2000/svg">
<g id="#d4d4d4ff">
<path fill="#d4d4d4" opacity="1.00" d=" M 36.22 23.91 C 35.85 19.59 39.83 16.33 43.99 16.79 C 78.65 16.79 113.33 16.96 148.00 16.75 C 152.36 16.22 156.99 19.26 156.67 23.99 C 156.56 38.33 156.58 52.68 156.61 67.01 C 156.77 71.08 152.83 73.86 149.00 73.44 C 123.00 73.33 96.98 73.59 70.99 73.23 C 64.67 73.54 64.49 62.58 70.95 63.09 C 94.66 62.79 118.39 63.06 142.11 62.95 C 143.86 63.21 145.99 62.09 145.89 60.10 C 146.01 50.38 146.02 40.65 145.88 30.94 C 146.24 28.70 144.00 27.54 142.06 27.82 C 111.70 27.80 81.33 27.80 50.96 27.77 C 49.45 27.72 48.02 28.29 46.62 28.76 C 46.52 47.50 46.75 66.25 46.54 84.99 C 46.50 87.50 46.64 90.48 48.88 92.10 C 59.78 98.72 72.65 102.25 82.57 110.43 C 91.16 119.14 85.01 131.63 82.69 141.63 C 80.06 148.82 82.56 157.93 89.90 161.19 C 98.67 166.21 111.47 159.24 111.48 148.98 C 111.30 138.76 105.32 129.32 106.37 118.97 C 107.05 112.46 112.28 107.57 117.93 104.91 C 127.92 100.12 137.68 94.77 148.04 90.81 C 152.51 88.67 159.75 93.81 155.20 98.20 C 145.97 103.98 135.66 107.92 125.99 112.96 C 122.26 114.88 116.65 116.83 117.02 121.99 C 117.73 132.41 123.69 142.26 121.75 152.91 C 120.48 161.62 113.83 168.81 105.68 171.76 C 93.48 176.88 77.91 170.27 73.02 158.01 C 68.44 147.14 73.47 135.65 76.16 125.00 C 77.41 121.14 75.10 117.09 71.60 115.41 C 61.62 110.29 51.45 105.51 41.36 100.62 C 37.69 98.99 35.84 94.94 36.14 91.07 C 36.28 68.68 36.28 46.29 36.22 23.91 Z" />
</g>
</svg>
