<?xml version="1.0" encoding="UTF-8" ?>
<!DOCTYPE svg PUBLIC "-//W3C//DTD SVG 1.1//EN" "http://www.w3.org/Graphics/SVG/1.1/DTD/svg11.dtd">
<svg width="192pt" height="192pt" viewBox="0 0 192 192" version="1.1" xmlns="http://www.w3.org/2000/svg">
<g id="#969494ff">
<path fill="#969494" opacity="1.00" d=" M 84.36 14.44 C 102.93 11.94 122.33 15.89 138.33 25.70 C 158.37 37.78 173.03 58.82 176.59 82.02 C 177.32 88.98 165.85 89.81 165.41 82.88 C 159.73 48.84 126.41 22.61 92.00 25.04 C 65.39 26.06 40.20 43.37 29.98 68.01 C 27.48 73.33 26.52 79.16 24.86 84.74 C 22.68 90.13 13.56 87.81 14.29 82.00 C 19.40 47.30 49.63 18.58 84.36 14.44 Z" />
<path fill="#969494" opacity="1.00" d=" M 77.39 61.37 C 84.33 57.71 92.49 58.45 100.07 58.49 C 106.26 58.78 113.85 59.89 117.03 65.98 C 120.21 72.45 119.72 80.07 118.89 87.03 C 118.52 91.08 115.43 93.94 111.90 95.51 C 116.61 96.77 119.76 101.14 119.76 105.97 C 119.87 113.30 120.96 121.81 115.87 127.86 C 110.41 133.22 102.08 132.76 94.99 133.13 C 88.29 132.80 80.79 133.14 75.16 128.86 C 70.42 124.52 69.56 117.32 70.34 111.28 C 72.47 107.80 77.61 109.69 81.02 109.30 C 87.45 108.71 83.28 117.99 88.62 119.37 C 92.93 120.37 97.80 120.61 102.01 119.07 C 106.28 116.11 104.69 109.85 104.34 105.46 C 101.33 98.71 92.33 103.52 87.28 100.68 C 85.59 97.64 85.84 93.29 87.11 90.13 C 92.06 87.24 100.37 91.83 103.68 85.72 C 104.54 81.19 105.81 73.62 100.12 71.79 C 96.29 71.18 92.05 70.81 88.40 72.37 C 84.10 74.24 87.78 82.17 82.06 82.07 C 78.47 81.77 72.94 83.68 70.80 79.93 C 70.07 73.37 71.15 65.05 77.39 61.37 Z" />
<path fill="#969494" opacity="1.00" d=" M 18.33 103.37 C 21.67 102.37 25.12 104.97 25.44 108.36 C 27.71 120.92 33.71 132.50 41.83 142.26 C 45.70 147.27 37.91 153.93 33.47 149.49 C 23.61 138.70 17.16 124.90 14.44 110.58 C 13.58 107.60 15.25 104.15 18.33 103.37 Z" />
<path fill="#969494" opacity="1.00" d=" M 169.32 103.41 C 173.07 102.03 177.38 105.66 176.59 109.59 C 174.25 124.11 167.60 137.90 157.94 148.96 C 155.27 152.32 149.23 150.93 148.29 146.74 C 147.31 143.81 149.59 141.39 151.24 139.27 C 158.35 130.61 163.04 120.08 165.21 109.11 C 165.58 106.70 166.73 104.08 169.32 103.41 Z" />
<path fill="#969494" opacity="1.00" d=" M 53.34 154.39 C 55.85 154.05 57.94 155.85 60.06 156.89 C 81.48 169.37 109.53 169.38 130.90 156.79 C 133.34 155.42 136.19 153.28 139.08 154.80 C 142.81 156.25 143.67 162.02 140.29 164.31 C 113.92 181.92 77.10 181.94 50.73 164.32 C 46.67 161.72 48.60 154.76 53.34 154.39 Z" />
</g>
</svg>
