<?xml version="1.0" encoding="UTF-8" ?>
<!DOCTYPE svg PUBLIC "-//W3C//DTD SVG 1.1//EN" "http://www.w3.org/Graphics/SVG/1.1/DTD/svg11.dtd">
<svg width="192pt" height="192pt" viewBox="0 0 192 192" version="1.1" xmlns="http://www.w3.org/2000/svg">
<g id="#bd22e5ff">
<path fill="#bd22e5" opacity="1.00" d=" M 39.29 21.36 C 42.80 20.56 46.42 20.73 50.00 20.73 C 82.66 20.78 115.32 20.67 147.98 20.77 C 160.15 20.81 170.93 31.78 170.79 43.94 C 170.83 78.31 170.83 112.68 170.82 147.05 C 171.07 159.33 160.24 170.43 147.96 170.51 C 113.32 170.60 78.67 170.57 44.03 170.50 C 31.71 170.47 20.87 159.36 21.07 147.06 C 21.02 112.69 21.03 78.31 21.10 43.93 C 21.06 33.42 29.05 23.61 39.29 21.36 M 41.34 32.46 C 35.91 33.85 31.94 39.35 32.31 44.94 C 32.33 78.99 32.28 113.04 32.34 147.08 C 32.20 153.76 38.39 159.54 45.01 159.24 C 79.00 159.26 113.01 159.26 147.00 159.21 C 154.01 159.51 160.06 153.00 159.61 146.06 C 159.62 112.35 159.64 78.64 159.61 44.93 C 159.99 38.13 153.97 31.62 147.04 32.11 C 111.82 32.32 76.49 31.01 41.34 32.46 Z" />
<path fill="#bd22e5" opacity="1.00" d=" M 90.48 54.66 C 113.96 50.78 137.84 71.10 137.17 95.01 C 138.61 119.40 114.30 140.71 90.35 136.60 C 70.94 134.27 54.85 116.56 54.71 96.95 C 53.48 76.37 70.09 56.99 90.48 54.66 M 90.36 66.41 C 73.14 69.13 61.67 88.85 67.80 105.17 C 72.73 121.21 92.56 129.94 107.75 122.82 C 122.48 116.95 129.81 98.22 123.21 83.84 C 118.06 71.23 103.67 63.77 90.36 66.41 Z" />
<path fill="#bd22e5" opacity="1.00" d=" M 86.29 75.18 C 90.36 72.78 95.85 77.12 94.59 81.60 C 93.76 85.42 89.09 85.97 87.22 89.04 C 85.72 90.99 84.73 93.82 81.99 94.29 C 77.80 95.55 73.77 91.17 75.13 87.06 C 76.98 81.81 81.28 77.51 86.29 75.18 Z" />
</g>
</svg>
