<?xml version="1.0" encoding="UTF-8" ?>
<!DOCTYPE svg PUBLIC "-//W3C//DTD SVG 1.1//EN" "http://www.w3.org/Graphics/SVG/1.1/DTD/svg11.dtd">
<svg width="192pt" height="192pt" viewBox="0 0 192 192" version="1.1" xmlns="http://www.w3.org/2000/svg">
<g id="#606f80ff">
<path fill="#606f80" opacity="1.00" d=" M 22.20 41.95 C 23.00 30.47 33.51 20.69 45.03 20.76 C 79.35 20.72 113.67 20.71 147.99 20.76 C 160.20 20.71 171.02 31.75 170.83 43.94 C 170.90 77.98 170.88 112.02 170.85 146.06 C 171.24 158.38 160.36 169.52 148.05 169.54 C 113.68 169.63 79.31 169.59 44.94 169.55 C 32.99 169.55 22.29 159.05 22.11 147.08 C 21.95 121.26 22.08 95.42 22.06 69.59 C 67.93 69.46 113.79 69.57 159.66 69.52 C 159.64 60.99 159.77 52.45 159.63 43.92 C 159.66 37.42 153.59 31.51 147.02 32.14 C 113.33 32.49 79.66 31.49 45.97 31.90 C 40.55 31.79 35.29 35.46 33.75 40.69 C 32.49 46.29 34.20 52.18 32.72 57.72 C 30.94 62.54 23.33 61.88 22.30 56.89 C 21.78 51.94 22.01 46.92 22.20 41.95 M 94.24 75.31 C 94.18 78.45 94.10 81.60 93.89 84.74 C 92.48 85.00 91.07 85.25 89.67 85.51 C 89.44 86.88 89.22 88.25 89.00 89.62 C 87.54 89.90 86.09 90.18 84.65 90.47 C 84.53 91.92 84.39 93.36 84.26 94.81 C 72.91 95.34 61.48 95.48 50.14 94.73 C 49.96 93.24 49.78 91.76 49.62 90.27 C 48.17 90.03 46.73 89.80 45.28 89.57 C 45.08 88.15 44.87 86.73 44.68 85.31 C 43.23 85.15 41.78 84.99 40.34 84.83 C 40.06 83.37 39.78 81.92 39.50 80.47 C 37.44 80.44 35.39 80.40 33.33 80.34 C 33.28 102.25 33.30 124.16 33.31 146.07 C 33.05 152.81 39.28 158.77 46.00 158.33 C 79.66 158.32 113.33 158.32 147.00 158.31 C 153.69 158.70 159.79 152.76 159.64 146.07 C 159.68 124.18 159.74 102.28 159.60 80.39 C 158.43 80.37 157.26 80.35 156.09 80.34 C 155.88 81.77 155.66 83.21 155.46 84.64 C 154.08 84.90 152.70 85.15 151.33 85.40 C 151.15 86.82 150.97 88.23 150.79 89.64 C 149.25 89.85 147.72 90.06 146.20 90.27 C 146.00 91.79 145.81 93.31 145.62 94.83 C 134.26 95.30 122.81 95.56 111.47 94.66 C 111.33 93.20 111.21 91.74 111.08 90.28 C 109.64 90.08 108.21 89.89 106.78 89.70 C 106.75 88.26 106.71 86.83 106.68 85.40 C 105.07 85.22 103.45 85.03 101.84 84.83 C 101.70 81.69 101.63 78.54 101.55 75.39 C 99.12 75.34 96.68 75.32 94.24 75.31 M 45.35 77.00 C 45.45 78.13 45.55 79.26 45.66 80.39 C 46.95 80.45 48.24 80.51 49.53 80.58 C 49.65 79.31 49.76 78.04 49.87 76.77 C 48.36 76.82 46.85 76.90 45.35 77.00 M 55.27 76.88 C 55.37 78.09 55.47 79.29 55.56 80.49 C 56.83 80.49 58.10 80.48 59.38 80.47 C 59.47 79.30 59.57 78.13 59.66 76.96 C 58.20 76.91 56.73 76.87 55.27 76.88 M 108.42 77.09 C 108.51 78.19 108.61 79.30 108.71 80.40 C 109.96 80.44 111.21 80.47 112.47 80.51 C 112.58 79.27 112.69 78.04 112.80 76.81 C 111.33 76.86 109.88 76.96 108.42 77.09 M 118.30 76.94 C 118.41 78.10 118.52 79.27 118.64 80.44 C 119.89 80.45 121.14 80.46 122.39 80.46 C 122.49 79.28 122.60 78.10 122.70 76.92 C 121.23 76.90 119.77 76.91 118.30 76.94 M 50.45 81.54 C 50.44 82.83 50.45 84.13 50.48 85.43 C 51.80 85.43 53.13 85.43 54.45 85.43 C 54.46 84.15 54.46 82.87 54.45 81.60 C 53.11 81.58 51.78 81.56 50.45 81.54 M 60.29 81.23 C 60.28 82.69 60.29 84.15 60.33 85.61 C 61.71 85.50 63.09 85.40 64.48 85.30 C 65.04 82.26 63.16 81.06 60.29 81.23 M 113.60 81.57 C 113.61 82.83 113.64 84.08 113.66 85.34 C 114.97 85.38 116.27 85.40 117.58 85.41 C 117.57 84.17 117.55 82.92 117.52 81.68 C 116.21 81.64 114.90 81.60 113.60 81.57 M 123.30 81.48 C 122.40 84.38 124.05 86.05 126.98 85.77 C 127.03 84.34 127.01 82.91 126.94 81.48 C 125.72 81.48 124.51 81.48 123.30 81.48 M 55.54 86.48 C 55.45 87.69 55.36 88.91 55.27 90.12 C 56.74 90.13 58.21 90.11 59.67 90.07 C 59.57 88.90 59.46 87.74 59.36 86.57 C 58.09 86.54 56.81 86.51 55.54 86.48 M 65.16 86.75 C 65.15 87.61 65.15 89.33 65.14 90.19 C 66.53 90.23 67.91 90.26 69.30 90.28 C 69.28 89.39 69.25 87.62 69.23 86.73 C 67.87 86.73 66.51 86.74 65.16 86.75 M 118.09 86.93 C 117.93 89.99 119.97 90.88 122.65 90.08 C 122.64 89.30 122.62 87.73 122.61 86.94 C 121.10 86.92 119.59 86.91 118.09 86.93 M 128.27 86.69 C 128.25 87.56 128.21 89.31 128.19 90.18 C 129.68 90.15 131.17 90.09 132.66 90.02 C 132.64 89.36 132.59 88.03 132.57 87.36 C 131.13 87.13 129.70 86.90 128.27 86.69 Z" />
</g>
</svg>
