<?xml version="1.0" encoding="UTF-8" ?>
<!DOCTYPE svg PUBLIC "-//W3C//DTD SVG 1.1//EN" "http://www.w3.org/Graphics/SVG/1.1/DTD/svg11.dtd">
<svg width="192pt" height="192pt" viewBox="0 0 192 192" version="1.1" xmlns="http://www.w3.org/2000/svg">
<g id="#cc726dff">
<path fill="#cc726d" opacity="1.00" d=" M 40.29 21.30 C 75.45 19.96 110.77 21.12 145.99 20.71 C 158.53 19.76 170.48 30.32 170.79 42.93 C 170.83 51.86 171.15 60.82 170.64 69.73 C 169.88 75.18 161.00 75.28 159.96 69.93 C 159.11 60.72 160.20 51.40 159.45 42.18 C 158.60 35.85 152.23 31.41 146.02 31.85 C 112.67 31.87 79.32 31.79 45.97 31.87 C 39.42 31.64 33.16 37.24 33.31 43.92 C 33.25 53.95 33.24 63.99 33.31 74.01 C 33.24 77.54 35.64 80.90 38.97 82.02 C 46.99 84.19 56.48 79.97 63.60 85.34 C 70.54 90.33 69.62 102.14 62.02 106.03 C 55.17 109.18 47.26 106.96 39.98 107.64 C 31.00 108.63 22.18 101.20 22.09 92.09 C 21.96 76.04 22.03 59.98 22.07 43.93 C 21.98 33.36 29.99 23.51 40.29 21.30 M 48.56 94.42 C 47.54 99.91 52.97 103.62 57.99 102.82 C 56.34 97.70 56.48 92.38 57.94 87.23 C 53.68 87.34 48.77 89.58 48.56 94.42 Z" />
<path fill="#cc726d" opacity="1.00" d=" M 63.13 64.91 C 57.37 63.20 58.87 53.72 64.93 54.05 C 85.94 54.02 106.97 53.85 127.97 54.13 C 133.80 54.94 133.83 64.32 127.97 65.13 C 119.43 65.71 110.85 65.06 102.29 65.44 C 100.65 89.88 102.29 114.49 101.48 138.98 C 100.98 145.29 90.84 145.11 90.39 138.87 C 89.67 114.42 91.00 89.87 89.87 65.44 C 80.97 64.93 71.97 65.96 63.13 64.91 Z" />
<path fill="#cc726d" opacity="1.00" d=" M 132.35 83.40 C 139.40 81.76 146.80 82.96 153.99 82.61 C 162.52 82.10 170.60 89.34 170.75 97.93 C 170.87 114.30 170.85 130.69 170.75 147.06 C 170.62 159.01 159.89 169.47 147.97 169.50 C 113.66 169.57 79.34 169.55 45.02 169.50 C 33.06 169.52 22.33 159.07 22.14 147.09 C 22.14 138.10 21.78 129.08 22.31 120.11 C 23.19 114.71 31.98 114.72 32.92 120.10 C 33.87 129.30 32.81 138.63 33.41 147.86 C 34.07 153.93 39.93 158.71 46.00 158.36 C 79.66 158.36 113.34 158.36 147.00 158.35 C 153.72 158.72 159.85 152.79 159.67 146.07 C 159.75 136.03 159.68 125.98 159.70 115.94 C 159.87 112.92 158.53 109.65 155.62 108.39 C 147.07 105.57 136.80 110.52 129.02 104.98 C 121.37 99.54 123.41 86.28 132.35 83.40 M 135.05 87.25 C 136.09 92.47 136.18 97.80 134.96 103.01 C 139.88 103.07 145.16 99.42 144.26 93.97 C 144.17 89.15 139.21 87.11 135.05 87.25 Z" />
<path fill="#cc726d" opacity="1.00" d=" M 55.22 101.14 C 48.88 99.69 48.86 90.41 55.33 89.14 C 54.77 93.12 54.66 97.15 55.22 101.14 Z" />
<path fill="#cc726d" opacity="1.00" d=" M 137.64 89.00 C 143.79 90.74 143.76 99.44 137.56 101.09 C 137.84 97.07 137.94 93.03 137.64 89.00 Z" />
</g>
</svg>
