<?xml version="1.0" encoding="UTF-8" ?>
<!DOCTYPE svg PUBLIC "-//W3C//DTD SVG 1.1//EN" "http://www.w3.org/Graphics/SVG/1.1/DTD/svg11.dtd">
<svg width="192pt" height="192pt" viewBox="0 0 192 192" version="1.1" xmlns="http://www.w3.org/2000/svg">
<g id="#ff3662ff">
<path fill="#ff3662" opacity="1.00" d=" M 83.35 12.43 C 118.03 7.27 154.52 27.46 168.46 59.61 C 170.22 63.53 166.16 68.08 162.08 67.01 C 158.95 66.37 157.86 63.06 156.48 60.62 C 144.74 37.87 119.71 22.45 94.00 23.10 C 68.36 22.58 43.33 37.88 31.64 60.64 C 30.25 63.10 29.13 66.49 25.92 67.01 C 21.97 67.94 17.98 63.53 19.65 59.71 C 30.79 34.35 55.88 15.81 83.35 12.43 Z" />
<path fill="#ff3662" opacity="1.00" d=" M 48.82 70.87 C 51.47 70.76 54.12 70.75 56.76 70.84 C 56.97 73.06 57.13 75.29 57.27 77.51 C 54.64 77.89 51.85 78.60 49.27 77.59 C 48.21 75.55 48.92 73.08 48.82 70.87 Z" />
<path fill="#ff3662" opacity="1.00" d=" M 93.74 70.83 C 96.34 70.83 99.07 70.37 101.58 71.30 C 102.22 78.57 101.66 85.89 101.86 93.19 C 103.44 93.12 105.02 93.06 106.61 92.98 C 108.49 89.13 109.51 84.71 112.32 81.40 C 114.82 80.95 117.37 81.27 119.88 81.55 C 118.20 86.80 115.70 91.71 113.58 96.78 C 116.21 102.36 119.40 107.72 121.34 113.61 C 118.73 113.74 116.06 114.11 113.49 113.53 C 110.56 109.45 108.97 104.58 106.66 100.15 C 105.06 100.14 103.45 100.13 101.85 100.13 C 101.84 104.64 101.94 109.16 101.65 113.67 C 99.03 113.80 96.40 113.80 93.77 113.72 C 93.22 99.45 93.30 85.11 93.74 70.83 Z" />
<path fill="#ff3662" opacity="1.00" d=" M 15.21 79.65 C 15.56 77.33 13.59 72.65 17.16 72.58 C 26.29 72.36 35.45 72.39 44.59 72.63 C 44.76 74.96 44.80 77.29 44.75 79.62 C 41.29 79.98 37.82 80.16 34.34 80.18 C 34.37 91.30 34.45 102.43 34.29 113.55 C 31.42 113.32 25.41 115.65 25.61 111.07 C 25.49 100.76 25.63 90.45 25.57 80.13 C 22.11 79.96 18.66 79.86 15.21 79.65 Z" />
<path fill="#ff3662" opacity="1.00" d=" M 157.70 74.11 C 160.26 73.99 162.83 73.93 165.39 73.90 C 165.69 76.29 165.82 78.70 165.92 81.10 C 168.17 81.18 170.42 81.26 172.67 81.42 C 172.76 83.49 172.79 85.57 172.76 87.65 C 170.44 87.92 168.11 88.11 165.79 88.27 C 165.95 94.48 165.50 100.72 166.02 106.92 C 170.63 107.08 174.35 108.29 172.80 113.70 C 167.98 114.12 159.95 116.29 157.89 110.26 C 156.79 103.01 157.66 95.60 157.39 88.28 C 155.95 88.04 154.51 87.79 153.08 87.53 C 153.03 85.51 153.04 83.49 153.10 81.47 C 154.50 81.33 155.90 81.20 157.30 81.08 C 157.38 78.75 157.48 76.43 157.70 74.11 Z" />
<path fill="#ff3662" opacity="1.00" d=" M 48.96 82.12 C 50.90 80.60 54.75 80.70 56.87 82.07 C 57.54 92.52 56.98 103.02 57.14 113.49 C 54.52 113.47 50.95 114.78 48.95 112.88 C 48.50 102.67 48.50 92.34 48.96 82.12 Z" />
<path fill="#ff3662" opacity="1.00" d=" M 66.94 81.91 C 72.18 80.24 78.05 80.37 83.35 81.73 C 88.52 83.46 88.95 89.79 88.53 94.38 C 85.98 94.45 83.43 94.45 80.88 94.38 C 81.36 88.76 76.31 85.53 71.36 88.35 C 69.76 93.95 70.34 100.13 70.93 105.87 C 74.93 110.08 81.86 106.60 80.88 100.65 C 83.27 100.62 85.68 100.51 88.06 100.84 C 89.90 105.70 87.71 113.00 81.90 113.78 C 76.55 114.56 70.50 115.13 65.59 112.43 C 60.95 108.80 62.31 102.15 62.01 97.00 C 62.17 91.84 61.15 84.46 66.94 81.91 Z" />
<path fill="#ff3662" opacity="1.00" d=" M 128.80 81.76 C 134.30 80.33 140.49 80.15 145.89 82.05 C 152.07 85.41 150.34 93.64 150.38 99.44 C 144.27 99.73 138.15 99.57 132.03 99.60 C 132.38 102.23 131.34 105.52 133.32 107.67 C 137.47 109.30 142.37 108.16 142.86 103.14 C 145.35 103.04 147.85 103.08 150.34 103.21 C 152.28 115.54 136.74 115.88 128.64 113.26 C 122.33 110.57 123.68 102.54 123.48 97.00 C 123.57 91.72 122.69 84.09 128.80 81.76 M 131.86 94.11 C 135.34 94.13 138.82 94.13 142.30 94.11 C 142.37 90.66 141.72 85.79 137.00 86.79 C 132.20 85.83 131.77 90.61 131.86 94.11 Z" />
<path fill="#ff3662" opacity="1.00" d=" M 22.37 120.41 C 27.65 118.02 30.49 123.84 32.23 127.72 C 47.39 156.63 84.10 171.42 115.09 161.07 C 134.02 155.30 149.92 141.09 158.29 123.22 C 160.57 117.06 170.90 120.48 168.75 126.84 C 156.28 156.66 124.28 176.75 92.01 175.51 C 61.30 175.11 31.76 155.59 19.58 127.37 C 18.42 124.78 19.81 121.53 22.37 120.41 Z" />
</g>
</svg>
