<?xml version="1.0" encoding="UTF-8" ?>
<!DOCTYPE svg PUBLIC "-//W3C//DTD SVG 1.1//EN" "http://www.w3.org/Graphics/SVG/1.1/DTD/svg11.dtd">
<svg width="192pt" height="192pt" viewBox="0 0 192 192" version="1.1" xmlns="http://www.w3.org/2000/svg">
<g id="#c1aab4ff">
<path fill="#c1aab4" opacity="1.00" d=" M 126.43 17.51 C 129.63 16.89 133.11 19.60 132.83 22.96 C 132.69 28.10 133.39 33.38 132.40 38.44 C 129.82 44.11 120.73 41.10 121.76 35.02 C 122.58 29.32 118.97 19.71 126.43 17.51 Z" />
<path fill="#c1aab4" opacity="1.00" d=" M 98.34 28.42 C 105.14 27.07 107.57 35.51 111.75 39.24 C 116.11 42.78 112.60 50.70 106.98 49.19 C 102.17 46.89 99.82 41.52 96.23 37.78 C 93.25 35.04 94.43 29.53 98.34 28.42 Z" />
<path fill="#c1aab4" opacity="1.00" d=" M 152.38 28.48 C 156.83 25.62 162.70 31.48 159.91 35.92 C 156.66 40.21 153.42 44.62 149.56 48.38 C 144.94 51.94 138.55 45.44 141.86 40.80 C 145.24 36.62 148.33 32.04 152.38 28.48 Z" />
<path fill="#c1aab4" opacity="1.00" d=" M 116.25 71.97 C 116.67 64.49 117.81 52.99 127.86 53.40 C 137.55 53.58 138.39 64.65 138.81 71.97 C 147.58 71.35 158.67 72.00 163.20 80.90 C 168.78 94.90 178.19 108.27 177.26 123.99 C 176.78 132.63 179.23 142.70 172.81 149.76 C 167.85 156.00 159.44 156.82 152.05 156.26 C 149.45 163.27 142.77 169.05 135.04 168.82 C 126.90 169.68 119.10 163.95 116.59 156.33 C 110.39 156.05 104.17 156.54 97.99 156.08 C 92.47 154.95 92.47 146.18 98.01 145.07 C 104.21 144.68 110.45 145.27 116.65 144.77 C 119.18 137.18 126.96 131.53 135.05 132.22 C 142.71 132.21 149.42 137.89 151.99 144.90 C 156.87 145.21 163.91 145.62 165.54 139.65 C 166.26 132.21 165.90 124.65 165.61 117.17 C 128.06 117.09 90.50 117.04 52.95 117.19 C 45.41 119.63 37.84 122.33 30.59 125.58 C 23.72 129.45 23.35 137.95 23.94 144.91 C 29.17 144.89 34.41 145.19 39.63 144.73 C 43.28 132.71 60.11 127.96 69.26 136.74 C 78.37 143.92 77.46 159.51 67.71 165.70 C 58.12 172.71 43.06 167.69 39.55 156.32 C 32.36 156.13 25.16 156.37 17.97 156.22 C 14.75 156.26 12.19 153.12 12.53 149.99 C 12.78 142.77 11.54 135.22 14.23 128.32 C 20.78 110.11 43.68 112.35 56.55 101.55 C 67.95 92.96 79.31 84.30 90.73 75.72 C 98.07 70.10 107.74 72.53 116.25 71.97 M 99.05 84.01 C 89.05 90.79 79.73 98.56 69.96 105.67 C 86.95 105.75 103.93 105.65 120.92 105.72 C 120.99 98.26 121.04 90.80 120.87 83.33 C 113.62 83.82 106.17 82.58 99.05 84.01 M 132.46 83.40 C 132.41 90.82 132.45 98.24 132.44 105.66 C 142.22 105.73 152.01 105.70 161.80 105.66 C 158.64 98.95 155.94 92.01 152.53 85.43 C 146.78 81.41 139.03 84.22 132.46 83.40 M 56.31 143.28 C 45.91 143.68 49.15 160.79 58.94 157.97 C 67.79 156.13 65.39 141.57 56.31 143.28 M 133.32 143.28 C 127.89 143.42 124.61 150.72 128.11 154.88 C 130.96 159.30 137.91 158.99 140.54 154.50 C 144.00 149.62 139.26 142.12 133.32 143.28 Z" />
</g>
</svg>
