<?xml version="1.0" encoding="UTF-8" ?>
<!DOCTYPE svg PUBLIC "-//W3C//DTD SVG 1.1//EN" "http://www.w3.org/Graphics/SVG/1.1/DTD/svg11.dtd">
<svg width="192pt" height="192pt" viewBox="0 0 192 192" version="1.1" xmlns="http://www.w3.org/2000/svg">
<g id="#53a7c7ff">
<path fill="#53a7c7" opacity="1.00" d=" M 87.51 14.72 C 103.47 13.22 119.93 16.36 134.02 24.06 C 137.91 26.28 137.22 32.80 132.94 34.15 C 128.20 35.34 124.35 31.15 119.94 30.09 C 88.96 17.80 50.84 31.51 34.45 60.42 C 17.04 88.69 23.70 128.59 49.29 149.71 C 73.88 171.74 114.05 172.44 139.47 151.41 C 163.19 133.01 172.43 98.71 161.20 70.87 C 160.12 66.68 155.77 62.69 158.06 58.20 C 159.89 54.79 165.21 54.37 167.47 57.54 C 183.49 86.11 179.48 124.27 158.03 149.01 C 136.65 175.09 98.42 185.20 66.93 173.12 C 38.60 162.94 17.29 135.99 14.02 106.05 C 11.37 84.81 17.47 62.62 30.78 45.84 C 44.37 28.28 65.39 16.74 87.51 14.72 Z" />
<path fill="#53a7c7" opacity="1.00" d=" M 163.45 20.60 C 168.73 17.50 174.62 24.93 170.19 29.17 C 146.72 52.71 123.09 76.09 99.59 99.59 C 97.56 102.20 93.38 102.27 91.19 99.82 C 82.32 91.07 73.33 82.42 64.62 73.51 C 60.64 68.94 67.56 61.81 72.21 65.80 C 79.96 73.03 87.34 80.67 95.03 87.96 C 118.36 66.37 140.35 42.68 163.45 20.60 Z" />
</g>
</svg>
