<?xml version="1.0" encoding="UTF-8" ?>
<!DOCTYPE svg PUBLIC "-//W3C//DTD SVG 1.1//EN" "http://www.w3.org/Graphics/SVG/1.1/DTD/svg11.dtd">
<svg width="192pt" height="192pt" viewBox="0 0 192 192" version="1.1" xmlns="http://www.w3.org/2000/svg">
<g id="#3ed890ff">
<path fill="#3ed890" opacity="1.00" d=" M 89.37 20.49 C 96.30 18.73 104.09 22.27 107.24 28.71 C 127.77 67.89 148.39 107.03 168.86 146.25 C 174.17 155.90 166.03 169.10 155.06 168.79 C 113.69 168.84 72.31 168.86 30.93 168.77 C 20.09 168.91 12.21 155.92 17.33 146.35 C 37.63 107.39 58.15 68.54 78.51 29.61 C 80.59 25.18 84.54 21.60 89.37 20.49 M 92.37 31.39 C 90.56 31.56 89.38 33.15 88.62 34.64 C 68.37 73.34 48.01 111.99 27.78 150.71 C 25.81 153.68 28.41 158.01 31.97 157.56 C 72.65 157.62 113.33 157.58 154.01 157.58 C 157.70 158.14 160.58 153.66 158.38 150.57 C 138.13 111.84 117.79 73.15 97.49 34.44 C 96.63 32.43 94.63 30.95 92.37 31.39 Z" />
<path fill="#3ed890" opacity="1.00" d=" M 89.36 85.49 C 94.98 83.65 101.61 86.37 104.29 91.65 C 109.26 101.06 114.29 110.46 119.11 119.95 C 122.80 127.28 117.12 137.07 108.95 137.53 C 98.65 137.75 88.34 137.62 78.04 137.56 C 69.66 137.55 63.41 127.70 67.08 120.14 C 71.73 110.82 76.75 101.69 81.51 92.43 C 83.09 89.20 85.87 86.53 89.36 85.49 M 77.09 125.76 C 87.65 126.76 98.43 126.39 109.04 125.92 C 104.22 115.62 99.19 105.19 92.97 95.68 C 87.19 105.42 82.06 115.58 77.09 125.76 Z" />
</g>
</svg>
