<?xml version="1.0" encoding="UTF-8" ?>
<!DOCTYPE svg PUBLIC "-//W3C//DTD SVG 1.1//EN" "http://www.w3.org/Graphics/SVG/1.1/DTD/svg11.dtd">
<svg width="192pt" height="192pt" viewBox="0 0 192 192" version="1.1" xmlns="http://www.w3.org/2000/svg">
<g id="#d3bdd8ff">
<path fill="#d3bdd8" opacity="1.00" d=" M 93.21 17.43 C 97.97 17.57 102.73 17.55 107.49 17.45 C 108.08 19.87 108.75 22.26 109.48 24.64 C 111.33 24.62 113.18 24.66 115.03 24.65 C 115.51 26.90 116.11 29.13 116.91 31.29 C 119.56 31.23 122.22 31.21 124.88 31.22 C 126.44 38.89 128.95 49.58 138.80 49.12 C 138.88 50.97 138.84 52.83 139.07 54.68 C 141.42 55.27 143.78 55.85 146.16 56.33 C 146.31 57.62 146.48 58.90 146.64 60.19 C 149.60 61.21 152.59 62.21 155.70 62.64 C 155.89 67.42 155.74 72.21 155.83 76.99 C 144.22 76.51 134.55 69.51 124.61 64.35 C 124.69 87.57 124.68 110.80 124.64 134.03 C 124.71 150.40 112.29 165.31 96.82 169.78 C 85.34 172.78 72.87 169.79 63.54 162.58 C 56.59 159.15 50.44 154.43 45.51 148.44 C 34.72 139.36 29.00 124.23 32.58 110.39 C 36.17 95.08 50.10 82.28 66.06 81.65 C 69.68 82.07 71.97 85.21 72.60 88.59 C 76.37 88.98 79.27 91.72 80.14 95.37 C 89.10 92.48 93.56 107.13 84.30 109.18 C 69.16 110.60 58.09 128.18 64.83 142.19 C 78.72 145.91 93.49 133.18 93.22 118.99 C 93.26 85.14 93.22 51.28 93.21 17.43 Z" />
</g>
</svg>
