<?xml version="1.0" encoding="UTF-8" ?>
<!DOCTYPE svg PUBLIC "-//W3C//DTD SVG 1.1//EN" "http://www.w3.org/Graphics/SVG/1.1/DTD/svg11.dtd">
<svg width="192pt" height="192pt" viewBox="0 0 192 192" version="1.1" xmlns="http://www.w3.org/2000/svg">
<g id="#1ab1ffff">
<path fill="#1ab1ff" opacity="1.00" d=" M 40.42 25.55 C 42.08 24.50 44.15 24.82 46.01 24.71 C 80.35 24.83 114.69 24.62 149.03 24.80 C 155.45 24.78 155.49 35.68 149.00 35.56 C 113.67 35.72 78.32 35.68 43.00 35.55 C 37.86 35.72 36.14 27.97 40.42 25.55 Z" />
<path fill="#1ab1ff" opacity="1.00" d=" M 25.28 43.38 C 71.17 42.67 117.13 43.24 163.05 43.02 C 169.73 42.40 176.19 48.12 175.84 54.93 C 175.86 84.98 175.93 115.03 175.83 145.08 C 175.83 156.55 165.51 166.65 154.06 166.53 C 115.35 166.58 76.64 166.55 37.94 166.51 C 26.46 166.68 16.13 156.56 16.10 145.08 C 16.01 115.03 16.08 84.97 16.10 54.92 C 15.84 49.50 19.96 44.35 25.28 43.38 M 27.09 54.09 C 27.05 84.08 27.09 114.07 27.07 144.06 C 26.60 150.10 32.01 155.62 38.01 155.51 C 76.67 155.53 115.34 155.54 153.99 155.48 C 159.98 155.51 165.15 150.05 164.92 144.08 C 164.94 114.10 165.06 84.11 164.85 54.12 C 118.93 54.08 73.01 54.15 27.09 54.09 Z" />
<path fill="#1ab1ff" opacity="1.00" d=" M 44.09 91.32 C 40.13 89.91 40.79 82.76 45.16 82.51 C 53.11 82.23 61.08 82.29 69.04 82.43 C 73.56 82.32 74.81 89.29 70.96 91.26 C 68.06 91.83 65.09 91.57 62.16 91.56 C 62.00 103.06 62.44 114.58 61.91 126.06 C 61.98 131.57 52.64 131.52 52.71 126.01 C 52.35 114.54 52.73 103.05 52.54 91.57 C 49.72 91.58 46.88 91.78 44.09 91.32 Z" />
<path fill="#1ab1ff" opacity="1.00" d=" M 121.78 83.65 C 125.26 79.95 131.79 84.84 129.21 89.22 C 124.84 94.89 119.18 99.45 114.29 104.67 C 119.22 110.09 124.31 115.36 129.33 120.69 C 130.83 122.36 132.64 124.49 131.93 126.90 C 131.16 130.62 125.65 131.35 123.38 128.62 C 117.12 122.20 111.27 115.39 105.15 108.83 C 104.97 114.86 105.52 120.93 104.88 126.93 C 103.77 131.83 95.23 131.09 95.37 125.89 C 95.21 112.92 95.24 99.93 95.36 86.96 C 95.16 81.97 103.09 80.63 104.71 85.25 C 105.66 90.57 104.93 96.04 105.14 101.42 C 110.73 95.54 116.05 89.39 121.78 83.65 Z" />
<path fill="#1ab1ff" opacity="1.00" d=" M 80.27 83.10 C 83.73 80.85 88.51 83.78 87.97 87.91 C 88.08 100.58 88.29 113.29 87.86 125.96 C 87.88 131.65 78.26 131.61 78.23 125.96 C 77.93 113.97 78.23 101.97 78.10 89.98 C 78.18 87.60 77.90 84.52 80.27 83.10 Z" />
<path fill="#1ab1ff" opacity="1.00" d=" M 139.20 82.99 C 142.21 81.18 146.75 83.26 146.64 86.96 C 146.82 99.93 146.85 112.93 146.64 125.89 C 146.75 131.57 137.07 131.68 137.01 126.04 C 136.66 114.38 136.94 102.69 136.89 91.02 C 137.05 88.28 136.37 84.64 139.20 82.99 Z" />
</g>
</svg>
