<?xml version="1.0" encoding="UTF-8" ?>
<!DOCTYPE svg PUBLIC "-//W3C//DTD SVG 1.1//EN" "http://www.w3.org/Graphics/SVG/1.1/DTD/svg11.dtd">
<svg width="192pt" height="192pt" viewBox="0 0 192 192" version="1.1" xmlns="http://www.w3.org/2000/svg">
<g id="#d1bed9ff">
<path fill="#d1bed9" opacity="1.00" d=" M 93.88 17.19 C 98.61 16.49 103.63 16.48 108.37 17.28 C 108.81 19.51 109.38 21.71 109.95 23.91 C 111.86 23.96 113.77 23.99 115.69 24.03 C 116.17 26.12 116.69 28.20 117.17 30.29 C 119.89 30.45 122.61 30.49 125.33 30.42 C 127.13 38.15 129.50 48.86 139.49 48.58 C 139.53 50.35 139.56 52.13 139.61 53.90 C 142.01 54.60 144.43 55.22 146.86 55.78 C 145.93 61.47 152.98 60.85 156.67 62.11 C 156.67 66.96 156.67 71.81 156.67 76.66 C 145.11 75.61 135.33 69.09 125.35 63.80 C 125.36 87.20 125.44 110.59 125.33 133.98 C 124.85 152.97 107.99 169.93 88.99 170.41 C 76.39 171.16 66.19 163.15 55.98 157.09 C 51.02 153.77 47.49 148.86 43.14 144.85 C 33.18 135.01 29.55 119.38 34.24 106.17 C 38.86 92.76 51.57 81.78 66.02 81.17 C 69.86 80.80 72.53 84.33 73.19 87.75 C 76.79 88.52 79.87 90.90 80.68 94.63 C 85.13 93.69 90.77 96.94 89.82 102.01 C 90.50 106.50 85.89 108.79 82.13 109.18 C 67.94 111.89 59.02 129.25 65.81 142.22 C 79.15 144.16 93.05 133.70 93.67 120.01 C 93.92 85.74 93.53 51.44 93.88 17.19 Z" />
</g>
</svg>
