<?xml version="1.0" encoding="UTF-8" ?>
<!DOCTYPE svg PUBLIC "-//W3C//DTD SVG 1.1//EN" "http://www.w3.org/Graphics/SVG/1.1/DTD/svg11.dtd">
<svg width="192pt" height="192pt" viewBox="0 0 192 192" version="1.1" xmlns="http://www.w3.org/2000/svg">
<g id="#1ab2ffff">
<path fill="#1ab2ff" opacity="1.00" d=" M 20.50 40.93 C 20.67 29.10 31.11 18.66 42.92 18.41 C 50.14 18.45 57.40 18.10 64.59 18.58 C 69.67 19.78 69.89 27.65 64.95 29.23 C 57.40 29.96 49.75 29.22 42.17 29.61 C 36.21 30.39 31.36 35.99 31.55 42.02 C 31.53 76.01 31.51 109.99 31.58 143.98 C 31.59 150.46 37.46 156.14 43.92 155.99 C 77.98 156.00 112.04 156.02 146.10 155.98 C 152.77 155.89 158.52 149.70 158.06 143.01 C 158.08 109.33 158.12 75.65 158.07 41.96 C 158.24 35.46 152.53 29.49 146.00 29.55 C 130.84 29.53 115.67 29.54 100.50 29.52 C 100.36 56.60 100.51 83.67 100.44 110.74 C 106.95 104.50 113.04 97.79 119.73 91.76 C 124.70 88.37 131.02 95.56 127.02 100.05 C 117.83 109.51 108.37 118.74 99.08 128.10 C 96.95 130.59 93.00 130.70 90.77 128.31 C 81.41 118.98 72.00 109.68 62.77 100.23 C 58.53 95.75 65.00 88.20 70.06 91.88 C 76.66 97.87 82.62 104.54 89.16 110.61 C 89.30 82.05 89.19 53.48 89.24 24.92 C 89.01 21.70 91.60 18.33 94.97 18.38 C 112.32 18.35 129.68 18.28 147.03 18.40 C 158.79 18.80 169.07 29.25 169.19 41.02 C 169.23 75.68 169.26 110.34 169.18 145.00 C 168.83 157.01 157.96 167.33 145.97 167.21 C 111.99 167.27 78.00 167.25 44.02 167.21 C 31.92 167.45 20.88 157.13 20.49 145.01 C 20.43 110.32 20.45 75.62 20.50 40.93 Z" />
</g>
</svg>
