<?xml version="1.0" encoding="UTF-8" ?>
<!DOCTYPE svg PUBLIC "-//W3C//DTD SVG 1.1//EN" "http://www.w3.org/Graphics/SVG/1.1/DTD/svg11.dtd">
<svg width="192pt" height="192pt" viewBox="0 0 192 192" version="1.1" xmlns="http://www.w3.org/2000/svg">
<g id="#ff633cff">
<path fill="#ff633c" opacity="1.00" d=" M 80.25 22.75 C 77.53 19.62 79.81 14.00 83.99 13.81 C 92.33 13.66 100.68 13.71 109.02 13.79 C 113.34 13.88 115.77 19.69 112.92 22.91 C 110.14 26.09 105.42 24.90 101.70 25.14 C 101.68 27.50 101.67 29.87 101.64 32.24 C 116.40 33.85 130.80 39.30 142.28 48.83 C 145.03 46.43 147.24 43.38 150.30 41.36 C 154.46 39.24 159.54 43.53 158.25 48.00 C 156.56 51.56 152.95 53.65 150.61 56.74 C 171.93 80.21 174.93 117.86 157.20 144.21 C 144.68 163.83 122.24 176.63 98.97 177.41 C 72.45 178.76 46.05 164.08 32.97 141.03 C 20.69 120.15 19.90 92.84 31.53 71.54 C 35.07 66.36 43.90 71.40 41.14 77.07 C 33.81 91.81 32.39 109.45 37.97 125.01 C 43.53 141.13 56.18 154.55 71.86 161.21 C 88.46 168.41 108.26 167.68 124.29 159.28 C 142.43 150.01 155.36 131.28 157.22 110.94 C 160.49 83.15 141.78 55.24 115.34 46.72 C 95.74 40.00 72.56 44.10 56.92 57.83 C 59.62 61.21 64.23 63.52 65.11 68.03 C 65.53 72.92 58.99 75.87 55.59 72.43 C 49.05 65.98 42.50 59.52 36.09 52.95 C 33.06 50.02 34.88 44.35 39.00 43.64 C 43.41 42.76 45.85 47.27 48.74 49.69 C 60.39 39.71 75.20 33.77 90.43 32.34 C 90.42 29.94 90.40 27.54 90.36 25.14 C 86.98 24.98 82.59 25.88 80.25 22.75 Z" />
</g>
</svg>
