<?xml version="1.0" encoding="UTF-8" ?>
<!DOCTYPE svg PUBLIC "-//W3C//DTD SVG 1.1//EN" "http://www.w3.org/Graphics/SVG/1.1/DTD/svg11.dtd">
<svg width="192pt" height="192pt" viewBox="0 0 192 192" version="1.1" xmlns="http://www.w3.org/2000/svg">
<g id="#ff595eff">
<path fill="#ff595e" opacity="1.00" d=" M 96.62 15.60 C 100.36 11.89 106.25 14.29 109.07 17.94 C 128.51 38.93 144.09 63.96 152.65 91.35 C 157.42 107.50 158.84 125.45 152.27 141.32 C 143.89 161.39 123.66 175.88 101.94 177.31 C 80.37 179.46 57.98 169.03 45.88 151.03 C 36.62 136.74 33.59 118.20 38.91 101.91 C 44.08 86.74 51.91 72.45 61.82 59.85 C 64.38 56.25 69.89 54.48 73.55 57.51 C 77.99 61.27 76.75 67.90 79.71 72.55 C 91.19 62.22 98.53 46.66 96.23 31.04 C 95.94 25.98 92.46 19.93 96.62 15.60 M 107.89 33.75 C 109.13 54.69 97.37 74.83 80.32 86.36 C 72.52 87.76 69.94 77.95 67.01 72.60 C 59.12 81.94 54.05 93.46 49.86 104.88 C 43.07 124.42 51.71 147.98 69.58 158.45 C 84.10 167.97 103.59 168.78 119.07 161.10 C 130.95 154.97 140.64 144.00 143.83 130.86 C 147.31 116.93 144.60 102.33 140.02 88.99 C 132.69 68.91 121.64 50.11 107.89 33.75 Z" />
</g>
</svg>
