<?xml version="1.0" encoding="UTF-8" ?>
<!DOCTYPE svg PUBLIC "-//W3C//DTD SVG 1.1//EN" "http://www.w3.org/Graphics/SVG/1.1/DTD/svg11.dtd">
<svg width="192pt" height="192pt" viewBox="0 0 192 192" version="1.1" xmlns="http://www.w3.org/2000/svg">
<g id="#ae7d5eff">
<path fill="#ae7d5e" opacity="1.00" d=" M 52.18 25.15 C 73.01 12.62 99.52 10.31 122.27 18.81 C 149.95 28.82 171.13 54.76 174.98 84.00 C 174.90 90.56 181.67 95.35 180.32 102.09 C 179.17 104.88 176.05 104.52 173.71 103.70 C 171.98 107.73 169.86 111.70 169.44 116.14 C 169.01 123.58 163.13 128.95 160.73 135.73 C 147.01 165.79 111.36 183.48 79.11 176.02 C 47.76 169.86 22.99 141.26 20.88 109.44 C 18.31 109.47 14.37 109.69 13.82 106.38 C 13.84 102.50 11.43 98.74 12.92 94.93 C 16.73 83.92 13.50 71.57 18.92 60.96 C 26.82 46.56 37.82 33.46 52.18 25.15 M 47.28 42.31 C 45.61 51.10 50.45 59.73 58.49 63.38 C 56.30 57.71 56.59 51.49 54.39 45.84 C 54.05 41.50 60.05 41.06 62.48 43.56 C 69.90 50.27 77.16 57.64 86.61 61.46 C 96.86 65.90 108.31 66.34 119.28 65.15 C 112.84 57.51 104.64 51.18 95.12 47.93 C 92.64 47.00 89.43 46.23 88.63 43.30 C 87.65 40.72 90.06 37.61 92.85 38.30 C 109.41 40.52 122.95 52.49 132.22 65.73 C 134.48 68.48 132.45 71.59 130.27 73.57 C 135.19 80.12 139.14 87.32 143.79 94.05 C 145.69 84.01 144.93 73.66 142.33 63.82 C 140.90 59.89 146.45 56.58 149.04 60.01 C 153.88 66.37 153.05 74.96 154.68 82.37 C 158.28 89.68 160.42 97.57 162.36 105.46 C 163.25 102.38 164.45 99.32 164.60 96.08 C 164.97 74.62 154.61 53.45 137.77 40.22 C 112.18 19.18 71.92 20.23 47.28 42.31 M 25.11 88.41 C 33.07 81.74 38.61 72.65 42.81 63.27 C 39.91 60.44 38.51 56.64 37.48 52.81 C 29.91 63.07 24.06 75.34 25.11 88.41 M 69.79 63.74 C 71.36 67.27 76.79 71.88 72.41 75.45 C 64.76 76.56 57.13 73.57 50.41 70.15 C 45.43 79.26 39.61 88.01 32.56 95.66 C 29.40 119.35 40.90 144.19 61.33 156.68 C 77.44 166.99 98.43 169.01 116.27 162.17 C 133.14 155.89 146.99 141.86 152.88 124.83 C 155.32 117.19 154.18 109.00 151.17 101.70 C 149.39 105.20 148.33 109.64 144.74 111.76 C 141.80 113.48 139.22 109.99 138.79 107.36 C 136.21 95.66 128.09 86.34 120.09 77.87 C 116.53 73.67 110.72 75.64 106.00 75.50 C 92.95 75.75 80.73 70.38 69.79 63.74 Z" />
<path fill="#ae7d5e" opacity="1.00" d=" M 50.96 95.89 C 62.68 89.48 75.98 99.27 79.58 110.66 C 75.59 112.88 72.89 117.43 68.05 117.97 C 59.36 119.31 50.47 114.11 46.51 106.45 C 44.20 102.76 40.38 100.19 38.94 95.93 C 42.75 98.28 47.27 98.80 50.96 95.89 Z" />
<path fill="#ae7d5e" opacity="1.00" d=" M 88.68 111.49 C 91.82 103.31 98.68 95.49 107.95 94.90 C 115.60 93.55 122.05 102.60 129.29 96.90 C 127.63 101.63 123.18 104.41 120.92 108.77 C 116.77 115.74 108.19 120.22 100.06 118.89 C 95.28 118.24 92.58 113.80 88.68 111.49 Z" />
<path fill="#ae7d5e" opacity="1.00" d=" M 56.21 127.40 C 59.63 127.02 61.48 130.34 63.41 132.56 C 70.30 141.04 80.85 147.35 92.07 146.48 C 101.60 146.04 109.86 140.79 117.44 135.50 C 122.61 132.41 128.46 139.97 124.24 144.23 C 115.00 152.13 103.25 157.53 91.00 158.11 C 75.23 158.25 60.43 148.97 51.81 136.09 C 49.42 132.68 52.07 127.52 56.21 127.40 Z" />
</g>
</svg>
