<?xml version="1.0" encoding="UTF-8" ?>
<!DOCTYPE svg PUBLIC "-//W3C//DTD SVG 1.1//EN" "http://www.w3.org/Graphics/SVG/1.1/DTD/svg11.dtd">
<svg width="192pt" height="192pt" viewBox="0 0 192 192" version="1.1" xmlns="http://www.w3.org/2000/svg">
<g id="#daa543ff">
<path fill="#daa543" opacity="1.00" d=" M 82.87 15.79 C 91.79 14.29 101.18 14.21 110.08 15.84 C 116.10 19.14 113.77 27.65 115.54 33.29 C 119.46 34.68 123.29 36.31 127.02 38.16 C 132.04 35.39 136.08 28.85 142.31 29.60 C 150.04 34.21 156.30 41.20 161.83 48.25 C 165.73 55.30 155.66 59.88 154.32 65.85 C 155.59 69.57 157.37 73.11 158.53 76.89 C 164.10 78.68 172.23 76.56 175.68 82.27 C 177.39 91.26 177.34 100.77 175.74 109.78 C 172.37 115.75 163.96 113.52 158.27 115.23 C 156.94 119.17 155.31 123.01 153.45 126.73 C 156.31 132.12 164.84 137.23 160.98 143.96 C 155.51 150.81 149.38 157.56 141.93 162.25 C 135.45 163.29 131.30 156.42 126.13 153.54 C 122.37 155.36 118.49 156.89 114.55 158.29 C 112.84 163.89 115.18 172.74 108.71 175.56 C 99.80 176.90 90.45 177.14 81.61 175.34 C 75.85 171.84 78.09 163.60 76.30 157.97 C 72.37 156.62 68.54 154.99 64.84 153.11 C 59.52 155.90 54.73 164.04 48.05 160.93 C 41.01 155.49 34.23 149.20 29.40 141.69 C 28.13 135.22 35.14 131.03 37.99 125.89 C 36.22 122.12 34.63 118.26 33.34 114.30 C 27.78 112.51 19.51 114.72 16.21 108.86 C 14.54 99.84 14.49 90.26 16.26 81.25 C 19.79 75.56 28.01 77.74 33.65 75.99 C 35.03 72.01 36.72 68.15 38.46 64.32 C 35.50 59.16 27.48 54.24 30.72 47.62 C 36.21 40.59 42.45 33.69 50.08 28.97 C 56.49 28.11 60.59 34.83 65.71 37.71 C 69.47 35.90 73.33 34.33 77.30 33.03 C 79.10 27.46 76.80 18.95 82.87 15.79 M 90.23 26.72 C 88.63 32.58 90.82 42.42 82.88 43.91 C 76.79 45.10 71.62 48.69 65.88 50.71 C 60.23 50.43 56.56 44.93 51.94 42.20 C 48.92 45.00 46.01 47.91 43.20 50.94 C 46.14 56.23 54.48 61.44 50.22 68.12 C 46.84 73.33 45.44 79.43 43.00 85.04 C 38.84 88.86 32.39 87.70 27.18 88.89 C 26.98 92.93 26.68 96.99 27.17 101.02 C 32.57 103.48 42.11 100.48 43.98 107.97 C 45.25 114.42 49.00 119.93 51.10 126.02 C 50.37 131.43 45.42 135.04 42.58 139.45 C 45.26 142.60 48.21 145.51 51.22 148.34 C 55.83 145.69 59.44 140.40 64.99 139.96 C 70.70 142.08 75.80 145.85 81.91 147.11 C 89.92 148.65 87.67 158.58 89.30 164.47 C 93.42 164.61 97.54 164.61 101.66 164.47 C 102.56 159.77 102.44 154.78 104.18 150.28 C 106.67 146.72 111.70 147.06 115.31 145.27 C 119.49 144.07 122.95 140.48 127.41 140.46 C 132.22 142.15 135.73 146.21 139.93 149.00 C 142.97 146.22 145.88 143.29 148.63 140.22 C 145.79 135.07 137.62 130.03 141.48 123.49 C 144.17 118.88 146.29 113.97 147.69 108.82 C 149.73 101.50 159.20 103.96 164.85 102.24 C 165.02 98.12 165.01 94.00 164.76 89.89 C 160.05 89.06 155.10 89.10 150.61 87.35 C 146.99 84.64 147.38 79.40 145.40 75.64 C 144.16 71.42 139.97 67.76 141.08 63.12 C 143.22 58.93 146.59 55.52 149.30 51.70 C 146.61 48.58 143.65 45.71 140.63 42.92 C 136.08 45.64 132.47 50.63 127.01 51.33 C 121.21 49.21 116.01 45.48 109.86 44.15 C 101.90 42.51 104.28 32.63 102.58 26.76 C 98.46 26.59 94.34 26.59 90.23 26.72 Z" />
<path fill="#daa543" opacity="1.00" d=" M 117.38 73.43 C 120.65 72.22 125.30 73.98 124.84 78.04 C 125.93 82.91 118.88 85.68 115.90 82.11 C 113.19 79.71 114.17 74.90 117.38 73.43 Z" />
<path fill="#daa543" opacity="1.00" d=" M 64.31 73.81 C 77.73 73.60 91.17 73.43 104.58 73.88 C 104.75 79.80 104.78 85.72 104.57 91.63 C 102.27 91.63 99.95 91.74 97.67 91.36 C 97.15 88.27 97.54 85.12 97.13 82.02 C 95.19 80.81 92.68 81.50 90.50 81.32 C 88.92 91.25 90.14 101.30 90.47 111.26 C 92.45 111.39 94.46 111.42 96.43 111.74 C 96.92 114.01 96.76 116.35 96.76 118.65 C 88.41 118.88 80.06 118.86 71.72 118.63 C 71.67 116.27 71.76 113.91 72.09 111.58 C 74.18 111.49 76.27 111.40 78.35 111.31 C 78.61 101.37 78.50 91.41 78.43 81.46 C 76.14 81.37 73.85 81.35 71.56 81.38 C 71.45 84.56 71.63 87.76 71.24 90.93 C 69.31 92.24 66.58 91.39 64.34 91.64 C 64.20 85.70 64.24 79.75 64.31 73.81 Z" />
<path fill="#daa543" opacity="1.00" d=" M 110.59 87.70 C 115.17 87.29 119.77 87.52 124.36 87.67 C 124.80 95.42 124.40 103.19 124.65 110.95 C 128.70 111.31 130.95 114.95 128.49 118.49 C 122.46 119.23 116.34 118.69 110.28 118.71 C 110.22 116.59 110.19 114.47 110.16 112.35 C 111.61 111.97 113.06 111.59 114.51 111.22 C 114.64 105.87 114.73 100.52 114.40 95.18 C 109.73 95.36 109.43 91.23 110.59 87.70 Z" />
</g>
</svg>
