<?xml version="1.0" encoding="UTF-8" ?>
<!DOCTYPE svg PUBLIC "-//W3C//DTD SVG 1.1//EN" "http://www.w3.org/Graphics/SVG/1.1/DTD/svg11.dtd">
<svg width="192pt" height="192pt" viewBox="0 0 192 192" version="1.1" xmlns="http://www.w3.org/2000/svg">
<g id="#ff527dff">
<path fill="#ff527d" opacity="1.00" d=" M 38.33 21.42 C 41.17 20.75 44.10 20.71 47.01 20.72 C 80.33 20.79 113.66 20.65 146.98 20.78 C 159.26 20.78 170.10 31.72 170.10 43.98 C 170.20 78.32 170.14 112.66 170.13 147.00 C 170.40 159.42 159.53 170.73 147.06 170.70 C 112.35 170.74 77.64 170.74 42.93 170.68 C 30.59 170.60 19.82 159.34 20.14 147.03 C 20.13 112.67 20.11 78.30 20.17 43.94 C 20.15 33.44 28.12 23.69 38.33 21.42 M 40.36 32.52 C 34.98 33.95 31.08 39.38 31.38 44.94 C 31.39 78.98 31.36 113.03 31.40 147.07 C 31.19 153.77 37.31 159.76 44.01 159.45 C 78.00 159.46 112.00 159.44 145.99 159.45 C 152.76 159.85 158.99 153.85 158.79 147.07 C 158.83 113.03 158.80 78.98 158.81 44.94 C 159.27 38.01 153.00 31.64 146.05 32.11 C 110.83 32.38 75.53 31.57 40.36 32.52 Z" />
<path fill="#ff527d" opacity="1.00" d=" M 55.39 64.44 C 59.89 61.76 66.21 65.70 65.80 70.92 C 65.79 87.91 66.02 104.93 65.69 121.91 C 65.02 129.61 52.51 129.66 51.71 121.98 C 51.26 105.67 51.68 89.33 51.51 73.00 C 51.29 69.75 52.15 65.94 55.39 64.44 Z" />
<path fill="#ff527d" opacity="1.00" d=" M 86.32 64.42 C 99.37 63.26 114.31 61.51 126.04 68.86 C 144.18 81.41 142.77 113.82 123.11 124.25 C 113.21 129.54 101.68 127.39 90.95 127.84 C 85.45 128.34 80.18 123.63 80.22 118.09 C 80.12 103.37 80.19 88.65 80.19 73.93 C 80.04 69.88 82.60 65.98 86.32 64.42 M 94.41 111.05 C 94.51 112.32 94.10 114.73 96.12 114.49 C 104.21 114.51 114.26 116.17 120.11 109.10 C 125.95 101.28 126.18 88.87 119.60 81.40 C 113.10 74.76 103.05 76.94 94.72 76.64 C 94.06 88.09 94.63 99.58 94.41 111.05 Z" />
</g>
</svg>
