<?xml version="1.0" encoding="UTF-8" ?>
<!DOCTYPE svg PUBLIC "-//W3C//DTD SVG 1.1//EN" "http://www.w3.org/Graphics/SVG/1.1/DTD/svg11.dtd">
<svg width="192pt" height="192pt" viewBox="0 0 192 192" version="1.1" xmlns="http://www.w3.org/2000/svg">
<g id="#4a70c3ff">
<path fill="#4a70c3" opacity="1.00" d=" M 37.30 19.39 C 40.48 18.65 43.76 18.72 47.00 18.74 C 79.99 18.78 112.98 18.68 145.97 18.76 C 158.15 18.82 168.95 29.77 168.81 41.95 C 168.85 76.31 168.86 110.68 168.85 145.04 C 169.12 157.35 158.27 168.48 145.96 168.55 C 111.32 168.62 76.68 168.59 42.03 168.53 C 29.71 168.48 18.85 157.35 19.08 145.04 C 19.06 110.67 19.07 76.31 19.13 41.95 C 19.05 31.43 27.08 21.64 37.30 19.39 M 39.34 30.47 C 33.93 31.84 29.90 37.35 30.32 42.95 C 30.34 76.99 30.30 111.03 30.35 145.07 C 30.17 151.75 36.39 157.55 43.01 157.25 C 77.01 157.25 111.00 157.24 145.00 157.20 C 151.61 157.47 157.60 151.60 157.55 145.01 C 157.66 110.99 157.60 76.96 157.60 42.94 C 157.99 36.15 151.95 29.63 145.03 30.13 C 115.68 30.32 86.35 29.94 57.00 29.84 C 51.12 30.02 45.15 29.32 39.34 30.47 Z" />
<path fill="#4a70c3" opacity="1.00" d=" M 41.31 76.68 C 39.38 73.83 41.67 69.43 45.13 69.44 C 51.76 69.29 58.40 69.31 65.04 69.42 C 68.63 69.34 70.97 73.89 68.98 76.82 C 67.12 79.85 63.11 79.09 60.12 79.13 C 59.95 90.75 60.38 102.39 59.91 113.98 C 59.34 119.11 50.83 119.02 50.41 113.87 C 50.11 102.31 50.44 90.74 50.28 79.18 C 47.25 79.07 43.09 79.87 41.31 76.68 Z" />
<path fill="#4a70c3" opacity="1.00" d=" M 75.20 74.91 C 74.88 72.14 77.08 69.30 79.97 69.40 C 86.60 69.31 93.25 69.26 99.88 69.42 C 102.69 69.46 104.65 72.32 104.32 74.99 C 104.27 88.01 104.51 101.04 104.21 114.04 C 103.48 119.05 95.37 119.04 94.70 113.99 C 94.36 102.40 94.68 90.78 94.56 79.18 C 91.32 79.14 88.09 79.13 84.86 79.18 C 84.73 90.76 85.03 102.35 84.74 113.93 C 84.35 119.10 75.80 119.03 75.33 113.89 C 74.97 100.91 75.26 87.90 75.20 74.91 Z" />
<path fill="#4a70c3" opacity="1.00" d=" M 110.50 74.14 C 110.37 71.25 113.21 69.02 115.99 69.34 C 122.77 69.48 129.61 68.94 136.36 69.61 C 141.34 71.91 139.63 78.82 139.09 83.13 C 136.21 88.43 128.53 84.65 129.57 79.11 C 126.45 79.14 123.34 79.16 120.22 79.14 C 120.26 88.77 120.22 98.41 120.24 108.04 C 123.44 108.12 126.64 108.14 129.84 108.07 C 129.88 104.94 129.95 101.80 129.63 98.69 C 124.60 98.22 123.21 90.80 128.11 89.05 C 131.68 88.99 137.04 87.15 139.36 90.68 C 139.92 98.10 139.53 105.59 139.57 113.03 C 139.83 116.06 136.84 118.13 134.05 118.03 C 127.72 118.17 121.35 118.38 115.04 117.88 C 112.13 117.74 110.07 114.87 110.44 112.07 C 110.47 99.43 110.38 86.78 110.50 74.14 Z" />
</g>
</svg>
