<?xml version="1.0" encoding="UTF-8" ?>
<!DOCTYPE svg PUBLIC "-//W3C//DTD SVG 1.1//EN" "http://www.w3.org/Graphics/SVG/1.1/DTD/svg11.dtd">
<svg width="192pt" height="192pt" viewBox="0 0 192 192" version="1.1" xmlns="http://www.w3.org/2000/svg">
<g id="#4a71c4ff">
<path fill="#4a71c4" opacity="1.00" d=" M 20.74 44.01 C 20.70 31.77 31.67 20.89 43.92 21.11 C 77.97 21.04 112.02 21.00 146.06 21.04 C 158.35 20.86 169.43 31.70 169.36 44.02 C 169.33 69.01 169.62 94.03 169.23 119.01 C 168.84 125.30 158.65 125.13 158.32 118.92 C 157.94 93.94 158.42 68.94 158.13 43.95 C 158.08 37.23 151.70 31.70 145.07 32.23 C 111.35 32.24 77.64 32.17 43.93 32.25 C 37.16 32.04 31.53 38.34 31.78 44.97 C 31.71 78.32 31.77 111.67 31.80 145.02 C 31.26 152.27 37.71 158.85 44.99 158.26 C 78.67 158.23 112.35 158.30 146.02 158.16 C 153.16 158.35 159.10 151.44 157.96 144.40 C 123.63 143.90 89.27 144.55 54.95 144.07 C 48.26 144.02 48.24 132.96 54.96 133.00 C 90.31 132.69 125.68 132.95 161.03 132.85 C 164.23 132.58 167.72 134.08 168.87 137.26 C 171.05 147.36 168.35 159.32 159.26 165.27 C 154.58 168.65 148.68 169.70 143.01 169.49 C 110.01 169.42 77.01 169.51 44.02 169.42 C 31.54 169.63 20.43 158.47 20.71 145.99 C 20.70 112.00 20.67 78.00 20.74 44.01 Z" />
<path fill="#4a71c4" opacity="1.00" d=" M 61.42 60.87 C 68.23 58.52 76.04 53.67 83.14 57.10 C 83.89 71.00 83.29 84.98 83.45 98.91 C 86.24 98.97 89.06 98.83 91.84 99.19 C 94.52 101.31 92.84 105.32 92.52 108.19 C 82.16 107.76 71.69 108.88 61.40 107.61 C 60.58 104.97 60.57 102.07 61.41 99.43 C 65.02 98.70 68.73 99.03 72.39 99.02 C 72.41 88.41 72.42 77.79 72.40 67.17 C 67.38 67.41 59.80 68.30 61.42 60.87 Z" />
<path fill="#4a71c4" opacity="1.00" d=" M 98.54 56.47 C 108.68 55.55 118.91 56.09 129.08 56.08 C 133.53 55.95 131.23 61.87 131.67 64.72 C 124.22 65.52 116.71 65.04 109.24 65.12 C 109.27 68.72 109.27 72.32 109.15 75.92 C 114.62 73.31 121.11 73.33 126.83 75.06 C 131.83 76.60 133.66 82.26 133.57 87.01 C 133.40 92.60 134.46 98.62 131.90 103.82 C 129.32 108.29 123.67 108.95 119.02 109.16 C 113.46 109.17 107.35 109.63 102.45 106.52 C 98.41 103.58 98.45 98.03 98.37 93.53 C 101.49 93.00 104.68 92.75 107.84 93.09 C 109.70 95.25 109.32 99.71 113.02 99.87 C 116.40 100.23 122.52 100.79 122.63 95.91 C 122.38 92.04 124.02 87.01 121.04 83.95 C 113.57 80.81 106.16 87.52 98.50 84.51 C 98.32 75.17 98.30 65.82 98.54 56.47 Z" />
</g>
</svg>
