<?xml version="1.0" encoding="UTF-8" ?>
<!DOCTYPE svg PUBLIC "-//W3C//DTD SVG 1.1//EN" "http://www.w3.org/Graphics/SVG/1.1/DTD/svg11.dtd">
<svg width="192pt" height="192pt" viewBox="0 0 192 192" version="1.1" xmlns="http://www.w3.org/2000/svg">
<g id="#4a71c4ff">
<path fill="#4a71c4" opacity="1.00" d=" M 22.55 34.60 C 26.01 26.13 34.73 20.06 43.94 20.15 C 77.98 20.07 112.02 20.03 146.05 20.09 C 158.33 19.91 169.35 30.77 169.40 43.04 C 169.44 68.03 169.52 93.04 169.37 118.03 C 169.62 124.56 159.07 125.37 158.35 118.90 C 157.89 93.61 158.44 68.27 158.12 42.97 C 157.92 36.33 151.62 30.87 145.04 31.38 C 111.34 31.39 77.63 31.32 43.93 31.40 C 37.23 31.22 31.73 37.46 31.80 43.98 C 31.73 77.65 31.76 111.33 31.83 145.00 C 31.45 151.75 37.06 158.27 43.98 158.09 C 77.99 158.16 112.02 158.10 146.03 158.05 C 153.13 158.26 159.16 151.28 157.88 144.26 C 123.58 143.99 89.25 144.50 54.97 144.01 C 48.31 143.78 48.17 132.76 54.98 132.72 C 90.64 132.47 126.33 132.60 161.99 132.61 C 168.18 132.19 170.33 138.98 169.50 144.00 C 170.56 156.79 159.91 169.18 146.97 169.41 C 112.66 169.50 78.34 169.42 44.02 169.42 C 29.39 169.77 18.44 154.99 20.67 141.00 C 20.71 111.00 20.70 81.00 20.70 51.00 C 20.72 45.51 20.27 39.75 22.55 34.60 Z" />
<path fill="#4a71c4" opacity="1.00" d=" M 67.05 54.91 C 74.22 53.65 82.14 53.13 88.99 55.98 C 95.98 60.70 94.71 70.92 93.20 78.09 C 88.95 86.07 81.11 91.32 75.03 97.84 C 80.97 98.13 86.92 97.76 92.85 98.15 C 95.37 100.38 94.22 104.42 93.28 107.22 C 82.38 106.65 71.29 108.03 60.50 106.52 C 59.77 103.38 59.14 99.30 61.85 96.92 C 67.90 90.93 74.15 85.13 80.13 79.08 C 83.93 75.44 84.40 69.18 82.37 64.57 C 79.86 62.39 76.11 63.11 73.08 63.34 C 69.22 64.03 70.16 68.83 69.48 71.68 C 66.31 71.95 62.57 73.02 59.72 71.25 C 58.02 65.25 59.81 56.23 67.05 54.91 Z" />
<path fill="#4a71c4" opacity="1.00" d=" M 101.69 60.02 C 107.86 56.93 114.81 54.03 121.87 55.14 C 123.86 55.92 123.31 58.31 123.51 60.00 C 123.46 72.63 123.57 85.27 123.45 97.90 C 126.39 97.97 129.32 98.00 132.26 97.93 C 133.62 100.88 133.62 104.26 132.29 107.23 C 122.25 106.90 112.17 107.51 102.14 106.94 C 100.09 104.92 100.09 100.15 102.13 98.14 C 105.52 97.79 108.94 98.03 112.34 98.00 C 112.36 87.38 112.41 76.76 112.34 66.14 C 107.71 66.41 99.30 67.39 101.69 60.02 Z" />
</g>
</svg>
