<?xml version="1.0" encoding="UTF-8" ?>
<!DOCTYPE svg PUBLIC "-//W3C//DTD SVG 1.1//EN" "http://www.w3.org/Graphics/SVG/1.1/DTD/svg11.dtd">
<svg width="192pt" height="192pt" viewBox="0 0 192 192" version="1.1" xmlns="http://www.w3.org/2000/svg">
<g id="#4a71c3ff">
<path fill="#4a71c3" opacity="1.00" d=" M 20.70 45.01 C 20.17 32.42 31.31 20.84 43.94 21.11 C 77.97 21.04 112.01 21.01 146.04 21.04 C 158.34 20.84 169.43 31.70 169.37 44.03 C 169.34 69.02 169.58 94.03 169.27 119.01 C 168.81 125.30 158.69 125.13 158.29 118.93 C 157.99 93.95 158.37 68.96 158.14 43.98 C 158.08 37.69 152.37 32.13 146.08 32.26 C 112.03 32.19 77.98 32.20 43.93 32.25 C 37.17 32.02 31.51 38.36 31.76 44.99 C 31.75 78.66 31.72 112.35 31.83 146.03 C 31.73 152.93 38.16 158.81 45.01 158.26 C 78.68 158.23 112.34 158.29 146.00 158.17 C 153.01 158.37 159.45 151.38 157.74 144.35 C 123.48 143.99 89.20 144.46 54.95 144.11 C 48.27 143.99 48.24 132.99 54.96 132.97 C 90.98 132.79 127.02 132.80 163.05 132.95 C 169.08 133.29 170.07 140.21 169.44 144.99 C 170.16 157.48 159.50 169.17 146.96 169.41 C 112.65 169.54 78.34 169.44 44.03 169.43 C 31.92 169.61 20.96 159.10 20.75 146.97 C 20.63 112.99 20.74 79.00 20.70 45.01 Z" />
<path fill="#4a71c3" opacity="1.00" d=" M 80.54 64.45 C 79.48 61.87 78.62 55.72 82.95 56.11 C 93.18 56.25 103.44 55.63 113.64 56.35 C 114.27 59.90 114.45 63.63 113.15 67.07 C 108.62 79.86 104.11 92.66 99.62 105.47 C 98.19 110.06 92.32 107.53 88.81 108.12 C 88.25 106.74 88.12 105.27 88.77 103.90 C 93.38 90.97 98.03 78.06 102.66 65.15 C 95.32 64.72 87.72 66.05 80.54 64.45 Z" />
</g>
</svg>
