<?xml version="1.0" encoding="UTF-8" ?>
<!DOCTYPE svg PUBLIC "-//W3C//DTD SVG 1.1//EN" "http://www.w3.org/Graphics/SVG/1.1/DTD/svg11.dtd">
<svg width="192pt" height="192pt" viewBox="0 0 192 192" version="1.1" xmlns="http://www.w3.org/2000/svg">
<g id="#4a71c4ff">
<path fill="#4a71c4" opacity="1.00" d=" M 20.75 43.02 C 20.79 30.83 31.70 19.93 43.93 20.15 C 77.98 20.07 112.02 20.03 146.06 20.09 C 158.34 19.91 169.35 30.77 169.40 43.03 C 169.44 68.03 169.51 93.04 169.38 118.04 C 169.60 124.57 159.06 125.36 158.34 118.89 C 157.94 93.93 158.35 68.94 158.18 43.98 C 158.43 37.40 152.69 31.31 146.07 31.42 C 112.02 31.34 77.98 31.35 43.93 31.40 C 37.24 31.21 31.73 37.44 31.79 43.96 C 31.73 77.64 31.76 111.33 31.82 145.01 C 31.45 151.75 37.05 158.26 43.96 158.10 C 77.99 158.16 112.03 158.10 146.06 158.05 C 153.12 158.24 159.23 151.26 157.83 144.25 C 123.55 144.02 89.25 144.46 54.98 144.03 C 48.32 143.78 48.16 132.77 54.98 132.71 C 90.65 132.47 126.33 132.60 162.00 132.61 C 168.18 132.19 170.34 138.98 169.50 144.00 C 170.57 156.79 159.91 169.17 146.98 169.41 C 112.66 169.50 78.34 169.42 44.02 169.43 C 31.54 169.65 20.49 158.42 20.71 145.98 C 20.70 111.66 20.65 77.33 20.75 43.02 Z" />
<path fill="#4a71c4" opacity="1.00" d=" M 65.05 54.91 C 72.23 53.67 80.15 53.12 87.01 55.99 C 93.98 60.72 92.71 70.93 91.20 78.10 C 86.93 86.06 79.10 91.33 73.03 97.84 C 79.06 97.96 85.09 98.13 91.11 97.91 C 92.70 100.78 92.74 104.35 91.15 107.23 C 80.29 106.64 69.23 108.04 58.50 106.51 C 57.80 103.37 57.12 99.29 59.86 96.92 C 65.91 90.93 72.14 85.12 78.13 79.08 C 81.93 75.45 82.40 69.18 80.37 64.58 C 77.88 62.39 74.13 63.11 71.09 63.34 C 67.24 63.99 68.12 68.79 67.52 71.64 C 64.32 72.06 60.64 72.94 57.69 71.29 C 56.07 65.24 57.77 56.25 65.05 54.91 Z" />
<path fill="#4a71c4" opacity="1.00" d=" M 110.25 54.21 C 117.18 53.99 124.98 52.97 131.16 56.81 C 136.44 62.01 134.98 70.27 135.26 77.00 C 134.78 85.44 136.57 94.33 133.44 102.41 C 130.25 108.64 121.95 107.99 116.01 108.20 C 109.39 108.40 99.84 107.34 98.89 99.09 C 97.56 87.63 97.95 75.93 98.64 64.43 C 98.80 58.22 104.35 54.19 110.25 54.21 M 112.32 63.44 C 109.23 63.89 109.29 67.57 109.05 69.94 C 108.79 77.65 108.75 85.39 109.14 93.09 C 108.10 101.62 125.40 101.59 124.27 92.99 C 124.28 84.34 124.74 75.63 124.03 67.01 C 123.13 61.62 116.20 63.11 112.32 63.44 Z" />
</g>
</svg>
