<?xml version="1.0" encoding="UTF-8" ?>
<!DOCTYPE svg PUBLIC "-//W3C//DTD SVG 1.1//EN" "http://www.w3.org/Graphics/SVG/1.1/DTD/svg11.dtd">
<svg width="192pt" height="192pt" viewBox="0 0 192 192" version="1.1" xmlns="http://www.w3.org/2000/svg">
<g id="#4a71c4ff">
<path fill="#4a71c4" opacity="1.00" d=" M 20.74 44.02 C 20.69 31.78 31.68 20.88 43.93 21.11 C 77.97 21.04 112.01 21.01 146.05 21.04 C 158.34 20.84 169.43 31.71 169.37 44.03 C 169.33 69.01 169.60 94.03 169.25 119.00 C 168.83 125.31 158.65 125.12 158.30 118.91 C 157.98 93.94 158.39 68.94 158.14 43.97 C 158.07 37.67 152.37 32.13 146.07 32.26 C 112.03 32.19 77.98 32.20 43.93 32.25 C 37.17 32.02 31.51 38.36 31.77 44.98 C 31.75 78.66 31.72 112.35 31.83 146.03 C 31.73 152.94 38.16 158.81 45.02 158.26 C 78.68 158.23 112.35 158.29 146.01 158.17 C 153.06 158.36 159.38 151.39 157.79 144.34 C 123.52 143.99 89.22 144.47 54.96 144.10 C 48.27 144.00 48.23 132.97 54.97 132.98 C 90.99 132.78 127.03 132.80 163.04 132.96 C 169.57 133.37 169.98 141.00 169.41 145.98 C 169.69 158.50 158.49 169.71 145.97 169.45 C 111.99 169.48 78.00 169.47 44.02 169.42 C 31.54 169.63 20.42 158.46 20.71 145.98 C 20.70 111.99 20.67 78.01 20.74 44.02 Z" />
<path fill="#4a71c4" opacity="1.00" d=" M 108.25 55.21 C 115.19 54.99 122.98 53.97 129.16 57.82 C 134.65 63.32 132.91 71.96 133.25 79.00 C 132.77 87.32 134.68 96.23 131.11 104.06 C 127.52 109.62 119.80 108.98 114.01 109.20 C 107.39 109.39 97.84 108.34 96.89 100.09 C 95.56 88.63 95.96 76.93 96.64 65.43 C 96.81 59.22 102.35 55.19 108.25 55.21 M 110.32 64.44 C 105.95 65.71 107.40 71.55 106.89 75.00 C 107.44 82.80 105.59 91.19 108.37 98.60 C 112.48 100.90 122.01 101.72 122.19 95.01 C 122.38 86.03 122.68 76.97 122.04 68.01 C 121.13 62.62 114.20 64.11 110.32 64.44 Z" />
<path fill="#4a71c4" opacity="1.00" d=" M 60.51 60.89 C 66.96 58.30 73.67 54.91 80.84 56.20 C 82.86 56.90 82.31 59.35 82.49 61.00 C 82.42 73.63 82.53 86.26 82.44 98.89 C 85.33 98.99 88.21 99.02 91.10 98.94 C 92.73 101.77 92.75 105.38 91.13 108.22 C 81.74 108.01 72.35 108.29 62.96 108.10 C 58.58 108.42 59.49 102.20 60.54 99.56 C 63.94 98.39 67.80 99.28 71.38 99.03 C 71.41 88.40 71.44 77.76 71.38 67.13 C 66.53 67.47 58.60 68.31 60.51 60.89 Z" />
</g>
</svg>
