<?xml version="1.0" encoding="UTF-8" ?>
<!DOCTYPE svg PUBLIC "-//W3C//DTD SVG 1.1//EN" "http://www.w3.org/Graphics/SVG/1.1/DTD/svg11.dtd">
<svg width="192pt" height="192pt" viewBox="0 0 192 192" version="1.1" xmlns="http://www.w3.org/2000/svg">
<g id="#4a71c4ff">
<path fill="#4a71c4" opacity="1.00" d=" M 20.75 43.02 C 20.79 30.82 31.70 19.93 43.94 20.15 C 77.98 20.07 112.03 20.03 146.07 20.09 C 158.33 19.91 169.33 30.77 169.36 43.03 C 169.40 68.02 169.49 93.03 169.33 118.03 C 169.56 124.52 159.08 125.30 158.35 118.88 C 157.89 93.60 158.44 68.27 158.12 42.97 C 157.96 36.31 151.66 30.84 145.06 31.34 C 111.35 31.35 77.64 31.27 43.93 31.36 C 37.22 31.19 31.63 37.40 31.78 43.97 C 31.72 77.64 31.76 111.32 31.80 145.00 C 31.40 151.76 37.06 158.25 43.96 158.09 C 77.99 158.16 112.02 158.10 146.05 158.05 C 153.17 158.25 159.15 151.24 157.91 144.23 C 124.60 144.03 91.29 144.21 57.98 144.14 C 54.88 144.23 50.86 143.48 50.04 139.93 C 48.64 136.19 52.14 132.22 55.99 132.63 C 91.66 132.63 127.34 132.43 163.01 132.70 C 169.71 133.10 169.92 140.94 169.41 145.98 C 169.61 158.46 158.49 169.66 145.98 169.40 C 111.99 169.41 78.01 169.41 44.02 169.38 C 31.55 169.58 20.50 158.42 20.71 145.97 C 20.70 111.66 20.66 77.33 20.75 43.02 Z" />
<path fill="#4a71c4" opacity="1.00" d=" M 65.00 54.79 C 71.93 53.70 79.47 53.22 86.12 55.84 C 92.27 59.03 91.76 67.09 91.42 72.98 C 91.48 76.43 89.35 79.27 86.26 80.59 C 92.89 82.65 92.04 90.61 91.82 96.08 C 91.86 100.92 89.21 106.13 84.13 107.18 C 77.27 108.65 69.92 108.72 63.13 106.90 C 57.27 105.23 55.07 97.55 57.16 92.40 C 61.70 91.35 68.43 90.97 67.71 97.48 C 70.73 99.44 74.49 99.32 77.91 98.80 C 82.42 97.19 81.46 91.00 80.50 87.37 C 77.81 83.53 72.24 85.81 68.29 84.73 C 68.05 82.03 67.36 79.14 68.55 76.56 C 72.19 75.06 77.34 77.56 80.08 74.05 C 81.68 69.91 81.33 62.11 75.06 63.10 C 70.26 61.92 67.12 65.03 66.74 69.61 C 63.79 70.37 60.35 70.70 57.51 69.46 C 55.18 63.86 58.37 55.59 65.00 54.79 Z" />
<path fill="#4a71c4" opacity="1.00" d=" M 110.24 54.21 C 117.00 53.93 124.37 53.15 130.58 56.39 C 136.11 60.75 135.06 68.74 135.27 75.00 C 134.76 83.88 136.51 93.10 133.74 101.71 C 131.99 106.94 125.80 107.76 121.06 108.10 C 114.86 108.18 108.08 108.78 102.53 105.51 C 97.50 101.28 98.39 93.89 98.11 87.99 C 98.50 79.13 97.17 70.03 99.37 61.35 C 100.47 56.40 105.73 54.55 110.24 54.21 M 112.31 63.45 C 109.23 63.90 109.29 67.58 109.06 69.95 C 108.75 77.65 108.81 85.39 109.17 93.09 C 108.31 100.57 120.16 100.85 123.59 96.63 C 125.13 87.24 124.21 77.49 124.17 67.97 C 124.09 61.79 116.46 62.88 112.31 63.45 Z" />
</g>
</svg>
