<?xml version="1.0" encoding="UTF-8" ?>
<!DOCTYPE svg PUBLIC "-//W3C//DTD SVG 1.1//EN" "http://www.w3.org/Graphics/SVG/1.1/DTD/svg11.dtd">
<svg width="192pt" height="192pt" viewBox="0 0 192 192" version="1.1" xmlns="http://www.w3.org/2000/svg">
<g id="#4a71c4ff">
<path fill="#4a71c4" opacity="1.00" d=" M 20.75 43.03 C 20.78 30.83 31.70 19.92 43.94 20.15 C 77.98 20.07 112.02 20.03 146.06 20.09 C 158.33 19.91 169.35 30.77 169.40 43.03 C 169.44 68.03 169.51 93.04 169.38 118.04 C 169.61 124.57 159.07 125.36 158.34 118.90 C 157.90 93.60 158.44 68.27 158.12 42.97 C 157.92 36.34 151.62 30.87 145.05 31.38 C 111.34 31.40 77.64 31.32 43.93 31.40 C 37.24 31.21 31.73 37.45 31.79 43.96 C 31.73 77.64 31.76 111.33 31.83 145.01 C 31.45 151.75 37.06 158.26 43.96 158.10 C 77.99 158.16 112.02 158.10 146.04 158.05 C 153.11 158.25 159.24 151.26 157.83 144.25 C 123.55 144.02 89.24 144.47 54.97 144.03 C 48.32 143.78 48.16 132.77 54.97 132.71 C 90.64 132.47 126.33 132.60 162.00 132.61 C 168.18 132.19 170.33 138.98 169.50 144.00 C 170.57 156.79 159.91 169.18 146.97 169.41 C 112.66 169.50 78.34 169.42 44.02 169.43 C 31.54 169.65 20.48 158.42 20.71 145.97 C 20.70 111.66 20.65 77.34 20.75 43.03 Z" />
<path fill="#4a71c4" opacity="1.00" d=" M 60.86 57.88 C 65.28 53.39 72.25 54.13 78.01 54.03 C 83.57 53.92 90.76 55.33 92.34 61.59 C 93.78 68.65 94.45 77.39 89.01 83.01 C 84.26 88.19 79.05 92.92 74.03 97.84 C 80.05 97.96 86.08 98.14 92.10 97.90 C 93.40 100.59 94.35 104.77 91.85 106.98 C 81.90 107.34 71.91 107.14 61.95 107.08 C 57.65 107.27 58.80 101.21 59.54 98.54 C 65.81 91.50 73.14 85.43 79.60 78.55 C 82.93 75.09 83.06 69.62 81.76 65.27 C 79.79 62.11 75.21 63.17 72.09 63.34 C 68.26 63.99 69.09 68.78 68.53 71.63 C 65.35 72.07 61.60 72.97 58.71 71.26 C 57.53 66.93 58.12 61.58 60.86 57.88 Z" />
<path fill="#4a71c4" opacity="1.00" d=" M 104.65 55.75 C 110.59 53.31 117.25 53.83 123.50 54.30 C 128.42 54.58 133.17 57.97 133.76 63.08 C 134.56 69.56 135.28 77.31 130.48 82.51 C 125.68 87.94 120.22 92.75 115.06 97.84 C 121.07 97.96 127.09 98.12 133.11 97.88 C 134.43 100.57 135.34 104.79 132.87 107.00 C 122.33 107.17 111.72 107.44 101.20 106.86 C 99.02 104.38 99.28 99.25 101.83 96.89 C 107.89 90.92 114.12 85.11 120.10 79.06 C 123.80 75.60 124.11 69.85 122.72 65.28 C 120.72 62.19 116.22 63.11 113.09 63.35 C 109.33 64.10 110.09 68.79 109.59 71.65 C 106.34 72.08 102.66 72.94 99.63 71.33 C 98.41 66.01 99.10 58.45 104.65 55.75 Z" />
</g>
</svg>
