<?xml version="1.0" encoding="UTF-8" ?>
<!DOCTYPE svg PUBLIC "-//W3C//DTD SVG 1.1//EN" "http://www.w3.org/Graphics/SVG/1.1/DTD/svg11.dtd">
<svg width="192pt" height="192pt" viewBox="0 0 192 192" version="1.1" xmlns="http://www.w3.org/2000/svg">
<g id="#4a71c4ff">
<path fill="#4a71c4" opacity="1.00" d=" M 20.74 44.02 C 20.69 31.78 31.68 20.88 43.93 21.11 C 77.97 21.04 112.01 21.00 146.05 21.04 C 158.35 20.85 169.43 31.71 169.37 44.03 C 169.33 69.02 169.61 94.03 169.24 119.01 C 168.83 125.30 158.65 125.13 158.31 118.91 C 157.96 93.94 158.41 68.94 158.13 43.97 C 158.09 37.25 151.69 31.69 145.06 32.23 C 111.35 32.24 77.63 32.17 43.92 32.25 C 37.16 32.03 31.52 38.35 31.77 44.98 C 31.75 78.66 31.71 112.36 31.84 146.04 C 31.74 152.95 38.16 158.79 45.01 158.26 C 78.67 158.23 112.34 158.29 146.01 158.16 C 153.10 158.35 159.27 151.41 157.86 144.35 C 123.56 143.97 89.24 144.49 54.95 144.08 C 48.27 144.01 48.23 132.97 54.96 132.99 C 90.98 132.78 127.03 132.79 163.05 132.97 C 169.58 133.37 169.97 141.01 169.42 145.99 C 169.68 158.51 158.50 169.70 145.98 169.45 C 111.99 169.48 78.00 169.47 44.02 169.42 C 31.54 169.63 20.42 158.47 20.71 145.99 C 20.70 112.00 20.67 78.01 20.74 44.02 Z" />
<path fill="#4a71c4" opacity="1.00" d=" M 62.48 60.85 C 69.25 58.50 77.09 53.67 84.14 57.12 C 84.89 71.02 84.29 85.00 84.46 98.92 C 87.25 98.97 90.06 98.83 92.84 99.17 C 95.42 101.36 94.16 105.42 93.31 108.22 C 83.86 108.00 74.40 108.30 64.95 108.10 C 60.64 108.43 61.38 102.10 62.59 99.64 C 65.85 98.27 69.85 99.32 73.39 99.03 C 73.41 88.40 73.43 77.78 73.39 67.15 C 68.48 67.46 60.64 68.29 62.48 60.85 Z" />
<path fill="#4a71c4" opacity="1.00" d=" M 99.68 61.00 C 105.88 57.96 112.79 55.01 119.86 56.15 C 121.90 56.89 121.30 59.30 121.50 60.99 C 121.48 73.64 121.53 86.29 121.48 98.94 C 124.41 98.97 127.35 99.00 130.28 98.93 C 131.59 101.91 131.59 105.24 130.32 108.23 C 120.26 107.90 110.18 108.51 100.15 107.94 C 98.09 105.92 98.09 101.16 100.13 99.14 C 103.53 98.79 106.95 99.03 110.35 99.00 C 110.36 88.38 110.40 77.76 110.35 67.15 C 105.68 67.43 97.31 68.39 99.68 61.00 Z" />
</g>
</svg>
