<?xml version="1.0" encoding="UTF-8" ?>
<!DOCTYPE svg PUBLIC "-//W3C//DTD SVG 1.1//EN" "http://www.w3.org/Graphics/SVG/1.1/DTD/svg11.dtd">
<svg width="192pt" height="192pt" viewBox="0 0 192 192" version="1.1" xmlns="http://www.w3.org/2000/svg">
<g id="#4a71c4ff">
<path fill="#4a71c4" opacity="1.00" d=" M 22.27 36.17 C 25.53 27.36 34.51 21.01 43.95 21.11 C 77.98 21.04 112.01 21.01 146.04 21.04 C 158.33 20.84 169.43 31.70 169.37 44.02 C 169.33 69.01 169.60 94.03 169.25 119.01 C 168.83 125.29 158.68 125.13 158.30 118.93 C 157.97 93.96 158.39 68.96 158.14 43.98 C 158.08 37.68 152.37 32.14 146.08 32.26 C 112.03 32.19 77.97 32.20 43.92 32.25 C 37.16 32.03 31.51 38.37 31.77 44.99 C 31.72 78.33 31.78 111.66 31.79 145.00 C 31.29 151.83 37.06 158.38 44.02 158.22 C 78.00 158.29 112.00 158.26 145.99 158.17 C 153.06 158.36 159.36 151.40 157.80 144.34 C 123.52 143.99 89.22 144.47 54.95 144.10 C 48.27 144.00 48.23 132.97 54.97 132.98 C 90.65 132.73 126.35 132.89 162.04 132.89 C 168.03 132.46 170.34 139.06 169.46 144.00 C 170.58 156.81 159.92 169.18 146.97 169.40 C 112.32 169.51 77.67 169.50 43.03 169.38 C 29.69 169.12 19.13 156.08 20.67 143.00 C 20.73 112.67 20.69 82.33 20.70 52.00 C 20.75 46.71 20.23 41.19 22.27 36.17 Z" />
<path fill="#4a71c4" opacity="1.00" d=" M 60.51 60.88 C 66.98 58.31 73.68 54.90 80.86 56.19 C 82.85 56.93 82.31 59.34 82.48 61.00 C 82.43 73.63 82.53 86.27 82.44 98.91 C 85.24 98.97 88.05 98.84 90.83 99.16 C 93.31 101.33 92.39 105.51 91.18 108.22 C 80.96 107.67 70.55 108.99 60.45 107.55 C 59.74 104.97 58.92 101.17 61.13 99.18 C 64.53 98.85 67.96 99.07 71.38 99.03 C 71.41 88.40 71.44 77.77 71.38 67.14 C 66.52 67.46 58.59 68.31 60.51 60.88 Z" />
<path fill="#4a71c4" opacity="1.00" d=" M 117.95 56.95 C 120.81 55.53 126.15 54.93 128.45 57.41 C 128.99 68.16 128.52 78.97 128.69 89.74 C 136.22 87.53 136.26 101.59 128.71 99.37 C 128.64 101.99 129.02 104.70 128.31 107.26 C 125.64 108.93 122.15 108.10 119.16 107.95 C 116.75 105.81 118.19 102.00 117.77 99.13 C 110.57 99.02 103.35 99.44 96.17 98.95 C 93.41 96.32 94.99 91.70 96.96 88.97 C 104.07 78.37 110.60 67.36 117.95 56.95 M 107.27 89.88 C 110.79 89.95 114.32 90.01 117.85 89.99 C 117.86 84.57 117.82 79.14 117.72 73.72 C 114.22 79.09 110.95 84.62 107.27 89.88 Z" />
</g>
</svg>
