<?xml version="1.0" encoding="UTF-8" ?>
<!DOCTYPE svg PUBLIC "-//W3C//DTD SVG 1.1//EN" "http://www.w3.org/Graphics/SVG/1.1/DTD/svg11.dtd">
<svg width="192pt" height="192pt" viewBox="0 0 192 192" version="1.1" xmlns="http://www.w3.org/2000/svg">
<g id="#4a71c4ff">
<path fill="#4a71c4" opacity="1.00" d=" M 20.74 44.02 C 20.69 31.78 31.68 20.88 43.93 21.11 C 77.97 21.04 112.02 21.00 146.06 21.04 C 158.34 20.85 169.43 31.70 169.36 44.02 C 169.33 69.01 169.62 94.02 169.24 119.00 C 168.85 125.31 158.63 125.13 158.31 118.91 C 157.94 93.94 158.42 68.94 158.13 43.96 C 158.09 37.24 151.69 31.69 145.06 32.22 C 111.35 32.24 77.64 32.17 43.93 32.25 C 37.16 32.03 31.52 38.34 31.77 44.97 C 31.75 78.66 31.70 112.36 31.84 146.05 C 31.74 152.95 38.16 158.79 45.00 158.26 C 78.67 158.23 112.35 158.30 146.02 158.16 C 153.12 158.35 159.27 151.39 157.86 144.33 C 123.56 143.99 89.24 144.49 54.95 144.08 C 48.27 144.02 48.23 132.96 54.97 132.99 C 90.98 132.77 127.03 132.79 163.04 132.97 C 169.57 133.36 169.98 141.01 169.42 145.98 C 169.68 158.51 158.50 169.70 145.98 169.45 C 111.99 169.48 78.00 169.48 44.02 169.42 C 31.54 169.63 20.42 158.47 20.71 145.98 C 20.70 111.99 20.67 78.00 20.74 44.02 Z" />
<path fill="#4a71c4" opacity="1.00" d=" M 83.46 57.44 C 89.05 54.18 95.85 55.14 102.04 55.10 C 107.31 55.10 113.61 57.44 114.56 63.31 C 115.97 72.80 114.93 82.45 115.28 92.00 C 115.26 97.46 115.38 104.90 109.47 107.49 C 102.37 109.91 94.40 109.74 87.16 108.02 C 81.00 106.50 79.19 99.01 80.54 93.56 C 83.91 93.08 90.32 91.11 90.95 95.98 C 91.62 101.30 98.57 100.49 102.28 99.27 C 105.93 96.14 103.80 90.47 104.37 86.24 C 98.47 89.06 91.43 88.74 85.30 86.86 C 80.12 85.01 78.95 78.86 79.16 74.01 C 79.29 68.39 78.18 61.18 83.46 57.44 M 93.24 64.32 C 88.17 65.69 89.79 72.79 90.39 76.68 C 93.00 80.38 99.23 79.48 102.90 77.92 C 105.29 74.51 104.84 69.30 103.36 65.55 C 100.53 63.36 96.56 64.10 93.24 64.32 Z" />
</g>
</svg>
