<?xml version="1.0" encoding="UTF-8" ?>
<!DOCTYPE svg PUBLIC "-//W3C//DTD SVG 1.1//EN" "http://www.w3.org/Graphics/SVG/1.1/DTD/svg11.dtd">
<svg width="192pt" height="192pt" viewBox="0 0 192 192" version="1.1" xmlns="http://www.w3.org/2000/svg">
<g id="#4a71c4ff">
<path fill="#4a71c4" opacity="1.00" d=" M 20.74 44.02 C 20.69 31.78 31.68 20.88 43.94 21.11 C 77.97 21.04 112.01 21.00 146.05 21.04 C 158.34 20.85 169.43 31.70 169.37 44.03 C 169.33 69.02 169.62 94.03 169.24 119.01 C 168.84 125.30 158.64 125.13 158.31 118.91 C 157.95 93.95 158.41 68.95 158.13 43.97 C 158.09 37.25 151.70 31.69 145.06 32.23 C 111.35 32.24 77.63 32.17 43.92 32.25 C 37.16 32.03 31.52 38.35 31.77 44.98 C 31.75 78.66 31.71 112.36 31.84 146.04 C 31.74 152.95 38.16 158.79 45.01 158.26 C 78.68 158.23 112.35 158.30 146.01 158.16 C 153.11 158.35 159.27 151.40 157.86 144.34 C 123.56 143.98 89.25 144.49 54.96 144.08 C 48.27 144.02 48.23 132.97 54.96 132.99 C 90.98 132.77 127.03 132.79 163.05 132.97 C 169.57 133.37 169.98 141.01 169.42 145.98 C 169.68 158.51 158.50 169.70 145.98 169.45 C 111.99 169.48 78.01 169.47 44.02 169.42 C 31.54 169.63 20.42 158.46 20.71 145.98 C 20.70 111.99 20.67 78.00 20.74 44.02 Z" />
<path fill="#4a71c4" opacity="1.00" d=" M 88.00 55.73 C 94.47 54.71 101.32 54.46 107.69 56.21 C 113.40 57.83 115.22 64.70 114.25 69.92 C 112.11 72.07 108.66 71.06 105.94 71.04 C 102.48 70.65 104.41 64.75 100.72 64.39 C 97.44 64.17 92.46 62.97 90.62 66.58 C 89.90 70.28 90.34 74.09 90.14 77.84 C 96.18 75.14 103.40 75.30 109.59 77.40 C 116.30 80.38 115.56 88.89 115.54 94.99 C 115.82 100.32 113.85 106.98 107.88 108.18 C 100.84 109.65 93.27 109.79 86.29 107.92 C 81.18 106.51 79.28 100.86 79.42 96.07 C 79.46 86.05 79.26 76.02 79.57 66.01 C 79.62 61.12 82.98 56.43 88.00 55.73 M 92.42 85.60 C 88.98 87.78 90.45 92.64 90.33 96.04 C 90.73 101.24 97.38 100.05 100.98 99.84 C 106.00 99.03 104.45 92.72 104.50 89.14 C 103.93 83.43 96.32 85.07 92.42 85.60 Z" />
</g>
</svg>
