<?xml version="1.0" encoding="UTF-8" ?>
<!DOCTYPE svg PUBLIC "-//W3C//DTD SVG 1.1//EN" "http://www.w3.org/Graphics/SVG/1.1/DTD/svg11.dtd">
<svg width="192pt" height="192pt" viewBox="0 0 192 192" version="1.1" xmlns="http://www.w3.org/2000/svg">
<g id="#66b78bff">
<path fill="#66b78b" opacity="1.00" d=" M 84.38 14.48 C 103.38 11.91 123.48 15.88 139.55 26.49 C 144.53 30.69 138.00 39.12 132.68 35.24 C 110.39 21.58 80.68 21.69 58.41 35.35 C 53.18 38.91 47.07 30.81 51.61 26.64 C 61.30 20.00 72.79 16.15 84.38 14.48 Z" />
<path fill="#66b78b" opacity="1.00" d=" M 15.88 72.86 C 22.02 57.09 38.10 45.92 54.94 45.21 C 71.05 44.50 86.67 53.70 94.90 67.39 C 105.86 48.09 131.73 39.38 151.88 49.17 C 171.87 57.61 183.30 82.66 175.06 103.05 C 168.85 120.60 150.68 132.93 132.01 131.68 C 126.94 131.90 122.22 129.68 117.28 129.17 C 109.68 136.42 102.87 144.73 95.11 151.69 C 87.26 144.67 80.63 136.21 72.94 128.94 C 55.50 135.25 34.14 130.26 22.50 115.49 C 13.17 103.69 10.57 86.93 15.88 72.86 M 51.43 56.60 C 40.41 58.22 30.38 65.74 26.22 76.14 C 20.33 89.56 25.27 106.44 37.30 114.72 C 50.16 124.28 69.82 122.49 80.62 110.60 C 90.49 100.58 92.18 84.02 85.00 72.02 C 78.39 60.56 64.40 54.34 51.43 56.60 M 128.43 56.59 C 117.17 58.29 106.95 66.17 102.93 76.89 C 97.38 91.06 103.42 108.71 116.66 116.30 C 130.08 124.54 149.16 121.37 159.05 109.06 C 169.21 97.30 168.66 78.20 158.18 66.84 C 150.88 58.57 139.22 54.88 128.43 56.59 M 81.82 125.04 C 86.05 129.92 90.67 134.44 95.13 139.11 C 99.58 134.44 104.18 129.90 108.35 124.99 C 102.13 116.89 88.07 117.01 81.82 125.04 Z" />
<path fill="#66b78b" opacity="1.00" d=" M 58.70 65.79 C 70.76 63.68 82.76 73.18 84.83 84.96 C 86.95 94.97 81.57 105.94 72.41 110.48 C 62.63 115.74 49.34 113.35 42.30 104.68 C 36.32 97.39 34.50 86.07 39.85 77.96 C 42.04 74.75 44.39 79.49 46.37 80.65 C 50.30 84.81 57.67 82.82 59.75 77.79 C 61.21 73.75 58.52 69.85 58.70 65.79 Z" />
<path fill="#66b78b" opacity="1.00" d=" M 127.20 68.81 C 125.50 66.15 129.03 65.35 131.01 65.50 C 144.91 65.81 156.31 80.38 153.15 93.99 C 150.75 108.47 133.75 117.40 120.36 111.63 C 106.72 107.15 99.43 87.04 109.92 76.31 C 113.66 79.64 118.49 85.19 123.97 81.96 C 129.18 79.70 129.48 73.30 127.20 68.81 Z" />
<path fill="#66b78b" opacity="1.00" d=" M 34.32 137.31 C 37.23 136.60 39.52 138.81 41.15 140.90 C 52.95 155.14 70.53 164.37 88.95 165.98 C 111.31 168.20 134.49 159.19 149.12 142.09 C 151.02 140.04 152.81 137.01 156.01 137.22 C 160.46 137.06 163.38 143.00 160.31 146.32 C 147.78 162.26 129.14 173.26 109.11 176.45 C 79.91 181.57 48.34 169.36 30.56 145.58 C 28.50 142.49 30.71 137.88 34.32 137.31 Z" />
</g>
</svg>
