<?xml version="1.0" encoding="UTF-8" ?>
<!DOCTYPE svg PUBLIC "-//W3C//DTD SVG 1.1//EN" "http://www.w3.org/Graphics/SVG/1.1/DTD/svg11.dtd">
<svg width="192pt" height="192pt" viewBox="0 0 192 192" version="1.1" xmlns="http://www.w3.org/2000/svg">
<g id="#18bac5ff">
<path fill="#18bac5" opacity="1.00" d=" M 84.40 14.53 C 116.11 9.57 149.56 25.50 165.95 53.03 C 178.50 73.28 181.23 99.12 173.69 121.67 C 164.47 149.91 138.74 171.94 109.35 176.47 C 78.31 182.01 45.07 167.52 27.85 141.16 C 8.74 113.42 9.66 73.82 30.04 47.00 C 42.89 29.52 62.86 17.41 84.40 14.53 M 87.37 25.47 C 66.02 27.92 46.30 40.89 35.34 59.33 C 24.59 76.96 22.34 99.41 29.21 118.86 C 37.63 143.68 60.87 162.63 86.92 165.71 C 110.15 168.88 134.50 159.43 149.60 141.53 C 169.01 119.53 172.14 85.15 156.96 60.03 C 143.29 36.03 114.78 21.85 87.37 25.47 Z" />
<path fill="#18bac5" opacity="1.00" d=" M 93.42 41.43 C 95.89 39.70 99.12 40.49 101.93 40.57 C 120.13 42.09 137.16 53.06 146.15 68.94 C 156.24 86.19 156.20 108.82 145.94 125.98 C 136.00 143.48 116.11 154.85 95.97 154.20 C 90.87 153.82 89.32 146.22 93.81 143.84 C 98.20 142.20 103.20 143.20 107.70 141.66 C 129.85 136.68 145.68 113.38 141.96 90.94 C 139.40 69.09 119.11 51.36 97.13 51.55 C 91.73 52.23 88.90 44.39 93.42 41.43 Z" />
<path fill="#18bac5" opacity="1.00" d=" M 95.34 65.46 C 114.30 63.40 131.35 82.38 128.11 101.03 C 126.28 116.46 111.49 129.09 95.93 128.04 C 91.76 127.43 89.77 121.75 92.77 118.74 C 94.52 116.64 97.47 117.01 99.90 116.58 C 109.78 115.45 117.71 105.88 117.11 95.98 C 116.99 86.65 109.51 78.08 100.26 76.80 C 97.65 76.29 94.36 76.82 92.59 74.38 C 90.05 71.49 91.60 66.40 95.34 65.46 Z" />
</g>
</svg>
