<?xml version="1.0" encoding="UTF-8" ?>
<!DOCTYPE svg PUBLIC "-//W3C//DTD SVG 1.1//EN" "http://www.w3.org/Graphics/SVG/1.1/DTD/svg11.dtd">
<svg width="192pt" height="192pt" viewBox="0 0 192 192" version="1.1" xmlns="http://www.w3.org/2000/svg">
<g id="#46e371ff">
<path fill="#46e371" opacity="1.00" d=" M 41.18 21.77 C 38.20 16.95 45.02 10.96 49.37 14.67 C 55.07 19.81 60.23 25.53 65.76 30.87 C 84.00 19.29 109.04 18.53 126.82 31.45 C 132.36 25.80 137.87 20.08 143.67 14.68 C 148.10 10.86 154.93 17.03 151.88 21.86 C 146.74 27.96 140.63 33.21 135.15 39.01 C 142.72 47.95 147.93 59.23 148.22 71.05 C 147.89 77.46 137.35 77.43 137.11 71.01 C 136.11 60.09 131.01 49.54 122.37 42.64 C 107.26 29.03 82.69 31.00 67.58 43.57 C 60.95 50.14 55.82 58.61 54.82 68.03 C 54.26 71.06 55.02 75.01 52.07 77.01 C 48.84 79.73 43.24 77.17 43.23 72.95 C 42.98 60.04 48.60 47.65 57.05 38.11 C 51.84 32.59 46.00 27.63 41.18 21.77 Z" />
<path fill="#46e371" opacity="1.00" d=" M 73.25 45.28 C 79.02 43.51 83.04 51.66 81.53 56.64 C 75.85 57.87 70.27 50.22 73.25 45.28 Z" />
<path fill="#46e371" opacity="1.00" d=" M 109.07 57.02 C 106.38 52.21 110.93 43.50 116.65 45.35 C 120.03 49.96 114.34 57.03 109.07 57.02 Z" />
<path fill="#46e371" opacity="1.00" d=" M 90.31 75.37 C 98.87 72.24 107.22 78.30 112.26 84.76 C 128.33 105.20 126.06 135.91 111.37 156.44 C 107.02 162.10 100.88 168.74 93.00 167.39 C 86.06 165.49 81.06 159.59 77.21 153.81 C 65.93 135.54 63.16 110.90 73.68 91.67 C 77.45 84.82 82.77 78.19 90.31 75.37 M 91.45 87.47 C 80.69 96.37 76.89 111.54 78.89 124.99 C 80.47 136.82 85.00 149.44 95.18 156.52 C 105.46 149.38 110.16 136.67 111.59 124.67 C 113.51 111.86 109.93 97.72 100.40 88.62 C 98.16 86.14 94.14 84.99 91.45 87.47 Z" />
<path fill="#46e371" opacity="1.00" d=" M 45.31 85.41 C 51.28 83.99 58.35 83.61 63.48 87.54 C 67.19 90.43 67.56 95.75 65.91 99.86 C 59.60 117.68 50.52 134.80 38.08 149.09 C 33.19 155.08 22.47 153.26 20.33 145.67 C 16.44 132.94 18.54 119.05 22.55 106.59 C 26.01 96.34 34.73 87.95 45.31 85.41 M 33.49 109.57 C 30.03 119.39 28.59 130.10 30.37 140.41 C 41.63 127.57 49.90 111.93 55.15 95.69 C 45.86 94.93 36.65 100.80 33.49 109.57 Z" />
<path fill="#46e371" opacity="1.00" d=" M 131.32 85.40 C 145.27 81.65 160.97 90.32 166.59 103.41 C 171.10 113.96 172.63 125.67 171.93 137.08 C 171.43 142.78 169.73 149.49 164.11 152.18 C 158.86 154.34 153.27 151.05 150.14 146.87 C 138.92 132.46 130.04 116.17 124.16 98.88 C 121.82 93.23 125.59 86.86 131.32 85.40 M 135.08 95.76 C 140.80 111.87 148.74 127.54 159.96 140.50 C 161.83 129.85 160.45 118.63 156.50 108.59 C 153.23 100.14 143.94 95.07 135.08 95.76 Z" />
<path fill="#46e371" opacity="1.00" d=" M 61.27 165.29 C 69.06 163.10 79.41 164.74 83.47 172.55 C 84.87 174.61 83.80 178.07 81.06 178.12 C 71.70 178.31 62.32 178.23 52.95 178.15 C 50.30 178.44 48.39 175.19 49.95 173.06 C 52.81 169.42 56.85 166.68 61.27 165.29 Z" />
<path fill="#46e371" opacity="1.00" d=" M 117.30 165.39 C 126.06 163.03 136.25 165.94 141.77 173.30 C 143.13 175.26 141.39 178.23 139.05 178.13 C 129.68 178.29 120.31 178.22 110.94 178.17 C 108.55 178.44 106.63 175.89 107.57 173.68 C 109.32 169.64 113.14 166.66 117.30 165.39 Z" />
</g>
</svg>
