<?xml version="1.0" encoding="UTF-8" ?>
<!DOCTYPE svg PUBLIC "-//W3C//DTD SVG 1.1//EN" "http://www.w3.org/Graphics/SVG/1.1/DTD/svg11.dtd">
<svg width="192pt" height="192pt" viewBox="0 0 192 192" version="1.1" xmlns="http://www.w3.org/2000/svg">
<g id="#ff3664ff">
<path fill="#ff3664" opacity="1.00" d=" M 20.73 43.02 C 20.72 30.79 31.69 19.92 43.93 20.10 C 77.97 20.02 112.02 20.01 146.07 20.08 C 158.34 19.92 169.33 30.77 169.37 43.03 C 169.40 61.03 169.50 79.04 169.33 97.04 C 169.15 103.17 159.44 103.96 158.41 97.86 C 157.88 79.59 158.48 61.26 158.14 42.97 C 157.93 36.33 151.66 30.84 145.07 31.36 C 111.36 31.37 77.64 31.30 43.93 31.39 C 37.27 31.25 31.70 37.42 31.82 43.96 C 31.76 77.64 31.79 111.33 31.82 145.01 C 31.44 151.75 37.06 158.24 43.95 158.10 C 60.50 158.15 77.06 158.17 93.62 158.07 C 88.84 151.99 83.06 146.69 78.85 140.19 C 74.23 132.56 80.40 122.00 88.98 121.15 C 96.80 120.27 102.78 126.45 108.06 131.29 C 108.18 115.84 108.05 100.38 108.12 84.93 C 107.91 78.45 112.61 72.15 119.03 70.86 C 127.00 68.88 135.32 76.00 135.46 84.02 C 135.59 91.61 135.50 99.21 135.47 106.80 C 140.37 106.55 145.16 108.05 148.73 111.48 C 156.82 106.74 168.22 112.64 169.03 121.94 C 169.37 130.28 169.02 138.66 169.16 147.02 C 169.23 158.78 158.62 169.06 146.99 169.37 C 142.03 169.34 137.02 169.75 132.09 169.11 C 127.43 167.73 127.06 160.43 131.61 158.65 C 137.24 157.27 143.19 158.86 148.89 157.74 C 154.15 156.50 158.17 151.43 158.15 146.02 C 158.26 138.33 158.26 130.63 158.16 122.95 C 158.47 119.76 153.07 119.48 152.56 122.40 C 151.70 128.16 153.05 134.11 151.84 139.81 C 150.37 144.33 142.53 143.77 141.92 138.95 C 141.24 132.71 142.07 126.41 141.53 120.16 C 141.72 117.15 136.27 116.55 135.73 119.51 C 135.04 125.98 135.99 132.53 135.28 139.00 C 134.49 144.69 124.71 143.89 125.03 138.06 C 124.81 120.06 125.12 102.04 124.74 84.04 C 125.13 80.20 118.26 80.38 118.76 84.20 C 118.48 104.79 118.82 125.40 118.60 146.00 C 118.91 149.72 114.52 152.83 111.21 150.80 C 103.79 145.27 99.86 135.38 90.94 131.80 C 88.27 130.56 87.19 134.55 88.91 136.10 C 96.13 144.59 104.26 152.48 109.92 162.17 C 111.66 165.41 108.69 169.77 105.04 169.37 C 84.36 169.43 63.68 169.45 43.01 169.36 C 30.91 169.05 20.50 158.05 20.70 145.98 C 20.69 111.66 20.65 77.34 20.73 43.02 Z" />
<path fill="#ff3664" opacity="1.00" d=" M 47.82 49.91 C 52.12 48.15 56.91 45.84 61.61 47.45 C 62.25 57.24 61.68 67.10 61.89 76.92 C 64.00 76.95 66.11 76.98 68.23 76.97 C 69.12 79.31 69.06 81.82 68.27 84.17 C 60.83 83.96 53.38 84.44 45.95 83.85 C 45.75 81.62 45.75 79.38 45.92 77.16 C 48.61 77.03 51.31 76.98 54.00 76.97 C 54.00 69.69 54.02 62.40 53.92 55.12 C 51.49 55.12 49.05 55.08 46.62 55.05 C 46.78 53.32 45.36 50.51 47.82 49.91 Z" />
<path fill="#ff3664" opacity="1.00" d=" M 76.81 47.62 C 82.47 46.79 88.97 45.98 94.16 48.88 C 98.84 53.21 96.53 60.37 97.09 66.00 C 96.61 71.33 98.67 78.12 94.21 82.20 C 88.96 85.07 82.34 84.50 76.69 83.22 C 72.27 82.18 71.60 76.93 72.09 73.16 C 74.40 73.03 76.70 72.93 79.01 72.87 C 79.49 74.12 79.98 75.38 80.46 76.63 C 83.35 77.10 86.37 77.30 89.12 76.09 C 89.18 74.09 89.22 72.09 89.26 70.09 C 83.32 71.84 72.96 72.64 71.54 64.63 C 71.24 58.92 69.49 49.59 76.81 47.62 M 81.19 54.25 C 77.79 55.30 78.82 60.00 79.35 62.66 C 82.50 65.44 90.74 64.79 89.30 58.99 C 90.50 53.88 84.70 53.46 81.19 54.25 Z" />
</g>
</svg>
