<?xml version="1.0" encoding="UTF-8" ?>
<!DOCTYPE svg PUBLIC "-//W3C//DTD SVG 1.1//EN" "http://www.w3.org/Graphics/SVG/1.1/DTD/svg11.dtd">
<svg width="192pt" height="192pt" viewBox="0 0 192 192" version="1.1" xmlns="http://www.w3.org/2000/svg">
<g id="#ff3664ff">
<path fill="#ff3664" opacity="1.00" d=" M 20.73 43.02 C 20.72 30.79 31.68 19.92 43.93 20.10 C 77.97 20.02 112.02 20.01 146.07 20.09 C 158.33 19.92 169.32 30.77 169.37 43.03 C 169.40 61.03 169.51 79.04 169.32 97.04 C 169.16 103.17 159.41 103.96 158.42 97.86 C 157.87 79.58 158.49 61.25 158.13 42.97 C 157.93 36.33 151.65 30.85 145.06 31.36 C 111.35 31.37 77.64 31.30 43.93 31.39 C 37.26 31.25 31.69 37.42 31.83 43.96 C 31.75 77.64 31.79 111.33 31.82 145.02 C 31.44 151.76 37.06 158.24 43.95 158.10 C 60.50 158.16 77.06 158.16 93.62 158.07 C 88.84 151.99 83.06 146.70 78.85 140.19 C 74.23 132.56 80.40 121.99 88.99 121.15 C 96.81 120.27 102.78 126.45 108.06 131.29 C 108.18 115.84 108.05 100.38 108.13 84.92 C 107.92 78.44 112.61 72.15 119.03 70.86 C 127.00 68.89 135.32 75.99 135.45 84.02 C 135.60 91.60 135.50 99.20 135.47 106.79 C 140.37 106.56 145.14 108.06 148.73 111.46 C 156.83 106.78 168.22 112.63 169.02 121.93 C 169.38 130.28 169.03 138.66 169.16 147.03 C 169.23 158.79 158.61 169.06 146.99 169.36 C 142.03 169.36 137.02 169.75 132.10 169.10 C 127.43 167.74 127.06 160.42 131.61 158.65 C 137.25 157.27 143.19 158.87 148.89 157.74 C 154.15 156.51 158.16 151.43 158.15 146.02 C 158.26 138.33 158.27 130.63 158.15 122.95 C 158.48 119.75 153.07 119.48 152.57 122.40 C 151.68 128.16 153.07 134.11 151.83 139.81 C 150.38 144.33 142.51 143.77 141.92 138.94 C 141.09 132.25 142.38 125.41 141.25 118.75 C 139.79 117.18 136.25 116.99 135.74 119.52 C 134.89 126.27 136.30 133.19 135.02 139.88 C 133.36 144.75 124.71 143.44 125.03 138.06 C 124.80 120.05 125.13 102.03 124.74 84.03 C 125.00 80.93 121.49 81.33 119.42 81.40 C 117.54 103.14 119.39 125.17 118.50 147.01 C 118.19 150.68 113.43 152.79 110.55 150.38 C 103.65 144.64 99.57 135.32 90.94 131.80 C 88.25 130.57 87.21 134.53 88.91 136.09 C 96.12 144.60 104.28 152.47 109.92 162.18 C 111.66 165.42 108.70 169.75 105.04 169.37 C 84.37 169.43 63.68 169.45 43.01 169.35 C 30.91 169.05 20.50 158.05 20.71 145.98 C 20.69 111.66 20.65 77.34 20.73 43.02 Z" />
<path fill="#ff3664" opacity="1.00" d=" M 47.80 49.92 C 52.10 48.11 56.89 45.90 61.62 47.42 C 62.23 57.23 61.69 67.09 61.89 76.92 C 64.03 77.02 66.17 76.90 68.31 76.98 C 69.02 79.35 68.98 81.79 68.35 84.17 C 60.86 83.97 53.36 84.43 45.88 83.85 C 45.80 81.61 45.82 79.37 45.87 77.13 C 48.58 77.13 51.29 76.90 54.00 76.98 C 53.99 69.70 54.05 62.41 53.92 55.12 C 51.47 55.10 49.03 55.11 46.58 55.05 C 46.78 53.33 45.41 50.56 47.80 49.92 Z" />
<path fill="#ff3664" opacity="1.00" d=" M 74.70 65.02 C 68.90 60.49 70.38 47.32 79.09 47.21 C 84.65 47.09 92.44 45.49 95.96 51.04 C 97.40 55.52 97.99 61.50 94.20 65.02 C 98.27 68.30 97.66 74.17 96.70 78.73 C 95.22 84.11 88.54 84.18 84.00 84.19 C 79.46 84.22 72.79 83.91 71.71 78.33 C 71.06 73.84 70.05 67.77 74.70 65.02 M 79.28 60.90 C 83.29 63.32 91.47 62.57 89.07 56.08 C 85.92 51.47 76.51 54.24 79.28 60.90 M 80.42 68.55 C 77.82 70.78 78.35 77.66 82.90 77.04 C 86.22 77.73 90.60 76.40 89.56 72.19 C 90.18 67.11 83.63 67.64 80.42 68.55 Z" />
</g>
</svg>
