<?xml version="1.0" encoding="UTF-8" ?>
<!DOCTYPE svg PUBLIC "-//W3C//DTD SVG 1.1//EN" "http://www.w3.org/Graphics/SVG/1.1/DTD/svg11.dtd">
<svg width="192pt" height="192pt" viewBox="0 0 192 192" version="1.1" xmlns="http://www.w3.org/2000/svg">
<g id="#ff3664ff">
<path fill="#ff3664" opacity="1.00" d=" M 20.72 44.03 C 20.62 31.73 31.68 20.85 43.95 21.05 C 77.98 20.99 112.01 20.99 146.04 21.04 C 158.33 20.84 169.41 31.70 169.35 44.02 C 169.30 62.02 169.59 80.03 169.21 98.02 C 168.56 104.05 158.83 103.93 158.35 97.90 C 157.98 79.94 158.43 61.95 158.15 43.98 C 158.11 37.24 151.70 31.66 145.05 32.20 C 111.34 32.22 77.63 32.15 43.92 32.24 C 37.18 32.08 31.49 38.35 31.80 45.00 C 31.78 78.67 31.74 112.35 31.84 146.02 C 31.75 152.51 37.50 158.33 44.01 158.22 C 60.55 158.31 77.09 158.29 93.63 158.20 C 88.80 152.11 83.02 146.77 78.75 140.25 C 74.08 132.29 81.10 121.50 90.03 121.40 C 97.45 121.22 102.98 126.96 108.07 131.59 C 108.20 116.03 108.02 100.48 108.15 84.92 C 108.15 78.52 113.03 72.56 119.35 71.43 C 127.39 69.72 135.59 76.93 135.45 85.03 C 135.54 92.52 135.50 100.02 135.43 107.52 C 140.40 106.81 145.22 108.56 148.85 111.94 C 156.71 107.16 167.98 112.90 168.95 121.95 C 169.37 129.95 168.92 137.98 169.11 145.99 C 169.79 157.07 160.78 167.30 150.01 169.03 C 144.38 169.72 138.65 169.54 133.00 169.28 C 127.66 168.82 126.66 160.56 131.65 158.74 C 137.30 157.45 143.23 158.99 148.92 157.84 C 154.20 156.57 158.27 151.47 158.18 146.01 C 158.22 138.33 158.33 130.63 158.13 122.95 C 158.23 120.10 153.36 119.85 152.58 122.45 C 151.63 128.18 152.97 134.08 151.87 139.79 C 150.69 144.21 143.45 144.21 142.11 139.90 C 140.86 132.96 142.55 125.77 141.19 118.85 C 139.60 117.87 136.26 117.36 135.75 119.74 C 134.83 126.41 136.25 133.26 135.03 139.90 C 133.69 144.65 125.51 143.99 125.12 138.99 C 124.65 120.71 125.26 102.37 124.68 84.09 C 124.67 81.23 121.10 81.91 119.22 82.18 C 117.72 103.92 119.35 125.84 118.40 147.61 C 117.39 152.48 110.71 152.45 108.41 148.56 C 102.06 142.85 97.82 132.15 88.13 132.13 C 88.17 133.99 88.08 136.03 89.65 137.34 C 96.65 145.04 103.91 152.63 109.49 161.46 C 111.94 164.70 109.05 169.78 105.02 169.39 C 84.36 169.45 63.69 169.49 43.03 169.36 C 30.92 169.08 20.43 158.09 20.70 145.98 C 20.69 112.00 20.67 78.01 20.72 44.03 Z" />
<path fill="#ff3664" opacity="1.00" d=" M 47.83 50.91 C 52.11 49.11 56.90 46.90 61.61 48.43 C 62.25 58.23 61.69 68.10 61.88 77.93 C 64.02 77.95 66.16 77.97 68.30 77.97 C 69.03 80.33 68.99 82.80 68.34 85.18 C 60.86 84.96 53.37 85.42 45.90 84.86 C 45.80 82.62 45.80 80.38 45.88 78.15 C 48.59 78.06 51.29 77.97 54.00 77.97 C 53.99 70.69 54.05 63.40 53.92 56.12 C 51.48 56.11 49.03 56.10 46.58 56.05 C 46.76 54.33 45.42 51.55 47.83 50.91 Z" />
<path fill="#ff3664" opacity="1.00" d=" M 73.65 47.94 C 81.30 48.34 89.04 47.45 96.64 48.37 C 97.02 50.41 98.05 53.69 95.89 54.97 C 90.90 55.40 85.88 55.00 80.89 55.14 C 80.88 57.40 80.88 59.66 80.88 61.92 C 85.58 60.77 90.96 60.13 95.34 62.63 C 98.81 65.26 98.33 70.13 98.41 74.00 C 98.41 77.45 98.25 82.00 94.66 83.72 C 89.67 85.78 83.98 85.44 78.77 84.50 C 74.19 83.76 72.48 78.49 73.36 74.45 C 75.49 73.67 77.83 74.06 80.05 73.96 C 80.84 78.68 87.39 79.43 90.33 76.48 C 90.48 73.64 91.53 69.91 89.41 67.63 C 83.97 65.38 79.22 70.49 73.66 69.20 C 72.79 62.18 72.81 54.96 73.65 47.94 Z" />
</g>
</svg>
