<?xml version="1.0" encoding="UTF-8" ?>
<!DOCTYPE svg PUBLIC "-//W3C//DTD SVG 1.1//EN" "http://www.w3.org/Graphics/SVG/1.1/DTD/svg11.dtd">
<svg width="192pt" height="192pt" viewBox="0 0 192 192" version="1.1" xmlns="http://www.w3.org/2000/svg">
<g id="#ff3664ff">
<path fill="#ff3664" opacity="1.00" d=" M 20.74 43.01 C 20.73 30.78 31.68 19.93 43.92 20.10 C 77.97 20.02 112.03 20.01 146.08 20.09 C 158.34 19.93 169.32 30.77 169.34 43.03 C 169.35 61.03 169.51 79.04 169.26 97.04 C 169.15 103.14 159.40 103.87 158.44 97.85 C 157.85 79.57 158.51 61.25 158.13 42.96 C 157.97 36.28 151.67 30.84 145.07 31.32 C 111.35 31.34 77.63 31.25 43.92 31.36 C 37.24 31.24 31.64 37.38 31.81 43.96 C 31.75 77.64 31.78 111.33 31.81 145.01 C 31.40 151.76 37.06 158.23 43.95 158.09 C 60.52 158.18 77.11 158.13 93.69 158.09 C 88.88 152.01 83.09 146.69 78.86 140.17 C 74.22 132.55 80.42 121.98 89.00 121.15 C 96.83 120.28 102.80 126.47 108.08 131.31 C 108.17 115.85 108.05 100.39 108.13 84.92 C 107.92 78.44 112.61 72.14 119.04 70.86 C 127.00 68.89 135.30 75.98 135.42 84.00 C 135.59 91.59 135.47 99.19 135.44 106.79 C 140.32 106.59 145.09 108.06 148.71 111.42 C 156.83 106.85 168.23 112.57 168.97 121.93 C 169.34 129.94 168.95 137.98 169.11 146.00 C 169.70 157.05 160.75 167.27 149.98 168.99 C 144.35 169.66 138.63 169.48 132.99 169.22 C 127.67 168.76 126.67 160.50 131.61 158.66 C 137.25 157.28 143.19 158.86 148.88 157.73 C 154.15 156.52 158.14 151.44 158.15 146.04 C 158.25 138.35 158.32 130.64 158.13 122.95 C 158.62 119.74 152.99 119.43 152.54 122.39 C 151.65 128.14 153.03 134.07 151.77 139.77 C 150.39 144.32 142.52 143.75 141.94 138.94 C 141.07 132.23 142.40 125.38 141.25 118.70 C 139.72 117.22 136.23 116.91 135.74 119.51 C 134.83 126.25 136.29 133.18 134.98 139.86 C 133.31 144.70 124.73 143.42 125.04 138.06 C 124.78 120.06 125.13 102.03 124.75 84.03 C 125.03 80.97 121.47 81.36 119.45 81.27 C 117.48 103.01 119.38 125.03 118.48 146.86 C 118.25 150.57 113.50 152.74 110.58 150.35 C 103.63 144.65 99.61 135.26 90.95 131.78 C 88.18 130.58 87.18 134.48 88.90 136.10 C 96.09 144.61 104.32 152.45 109.89 162.20 C 111.62 165.43 108.66 169.64 105.05 169.32 C 84.37 169.41 63.68 169.42 43.00 169.31 C 30.92 169.00 20.52 158.05 20.71 145.99 C 20.69 111.66 20.65 77.34 20.74 43.01 Z" />
<path fill="#ff3664" opacity="1.00" d=" M 47.96 48.77 C 53.63 47.64 60.60 46.87 65.51 50.50 C 68.56 54.91 68.67 61.89 64.99 66.02 C 70.01 71.15 69.43 83.98 60.74 84.77 C 55.95 85.37 50.81 85.63 46.26 83.76 C 42.33 81.87 42.37 76.88 42.52 73.15 C 44.80 73.05 47.08 73.01 49.36 73.04 C 49.51 78.44 56.17 79.59 59.73 76.69 C 60.35 74.60 60.30 72.32 59.63 70.25 C 57.11 68.45 53.73 69.26 50.83 68.74 C 50.75 66.91 50.75 65.07 50.83 63.24 C 53.75 62.61 59.65 64.45 59.84 59.99 C 61.60 52.95 49.32 53.41 49.74 59.95 C 47.40 59.94 45.07 59.91 42.74 59.85 C 42.42 55.67 42.97 49.86 47.96 48.77 Z" />
<path fill="#ff3664" opacity="1.00" d=" M 80.26 48.21 C 85.63 47.98 91.98 46.98 96.53 50.50 C 100.16 55.52 98.33 62.22 98.79 68.00 C 98.44 73.11 100.09 79.85 95.46 83.47 C 89.74 85.91 83.02 85.61 77.08 84.13 C 72.45 82.73 72.35 77.02 72.26 73.04 C 72.51 66.41 71.53 59.62 73.11 53.12 C 73.79 49.79 77.28 48.58 80.26 48.21 M 82.20 55.34 C 79.74 55.89 80.28 59.07 80.08 60.95 C 80.26 66.11 79.56 71.38 80.58 76.47 C 82.88 78.88 87.96 78.69 90.49 76.65 C 91.61 70.55 91.21 64.19 90.84 58.01 C 90.48 53.87 85.01 55.15 82.20 55.34 Z" />
</g>
</svg>
