<?xml version="1.0" encoding="UTF-8" ?>
<!DOCTYPE svg PUBLIC "-//W3C//DTD SVG 1.1//EN" "http://www.w3.org/Graphics/SVG/1.1/DTD/svg11.dtd">
<svg width="192pt" height="192pt" viewBox="0 0 192 192" version="1.1" xmlns="http://www.w3.org/2000/svg">
<g id="#ff3664ff">
<path fill="#ff3664" opacity="1.00" d=" M 20.72 44.02 C 20.62 31.73 31.67 20.86 43.94 21.06 C 77.97 20.99 112.01 20.98 146.05 21.04 C 157.97 20.87 168.86 31.08 169.29 43.02 C 169.51 60.01 169.28 77.01 169.41 94.00 C 169.45 96.75 169.44 100.23 166.69 101.76 C 163.26 104.13 158.03 101.23 158.28 97.04 C 158.07 79.36 158.39 61.66 158.14 43.97 C 158.10 37.23 151.70 31.67 145.06 32.20 C 111.34 32.22 77.62 32.14 43.91 32.24 C 37.17 32.09 31.50 38.34 31.81 44.99 C 31.75 78.33 31.79 111.67 31.80 145.01 C 31.30 151.84 37.05 158.34 43.99 158.21 C 60.55 158.33 77.12 158.27 93.68 158.22 C 88.80 152.15 83.02 146.77 78.75 140.24 C 74.08 132.28 81.10 121.50 90.03 121.40 C 97.45 121.23 103.00 126.96 108.08 131.60 C 108.18 116.04 108.02 100.48 108.16 84.92 C 108.15 78.52 113.04 72.56 119.36 71.43 C 127.39 69.72 135.58 76.92 135.44 85.01 C 135.55 92.50 135.50 99.98 135.42 107.46 C 140.35 106.89 145.14 108.51 148.77 111.86 C 156.72 107.29 167.96 112.80 168.94 121.95 C 169.38 129.95 168.92 137.98 169.11 146.00 C 169.78 157.07 160.78 167.31 150.01 169.02 C 144.37 169.72 138.64 169.56 132.99 169.27 C 127.66 168.82 126.67 160.55 131.65 158.75 C 137.30 157.46 143.22 158.98 148.91 157.83 C 154.20 156.58 158.26 151.48 158.17 146.02 C 158.15 137.66 158.53 129.28 157.87 120.95 C 156.01 120.93 153.42 120.12 152.61 122.45 C 151.60 128.17 152.99 134.08 151.84 139.79 C 150.71 144.22 143.42 144.21 142.12 139.89 C 140.85 132.93 142.54 125.73 141.19 118.78 C 139.55 118.04 136.12 117.24 135.81 119.76 C 134.76 126.41 136.29 133.27 135.02 139.89 C 133.71 144.64 125.50 143.99 125.13 139.00 C 124.62 120.72 125.28 102.38 124.68 84.10 C 124.80 81.23 121.06 82.33 119.25 82.09 C 117.67 103.86 119.39 125.81 118.38 147.61 C 117.39 152.50 110.72 152.43 108.41 148.56 C 102.05 142.81 97.80 132.16 88.05 132.10 C 88.21 133.94 88.18 135.97 89.66 137.32 C 96.61 145.07 103.95 152.60 109.49 161.48 C 111.93 164.72 109.06 169.74 105.04 169.38 C 84.37 169.46 63.69 169.50 43.02 169.36 C 30.91 169.07 20.44 158.09 20.71 145.99 C 20.69 112.00 20.66 78.01 20.72 44.02 Z" />
<path fill="#ff3664" opacity="1.00" d=" M 48.48 55.07 C 47.01 47.61 58.25 46.58 63.61 47.33 C 64.24 57.17 63.70 67.07 63.88 76.93 C 66.10 76.97 68.32 76.98 70.55 77.01 C 70.79 79.38 70.79 81.77 70.60 84.15 C 63.01 83.99 55.40 84.44 47.82 83.80 C 47.78 81.59 47.79 79.38 47.84 77.18 C 50.56 77.04 53.28 76.99 56.01 76.96 C 56.02 69.67 56.02 62.39 55.93 55.11 C 53.45 55.12 50.96 55.10 48.48 55.07 Z" />
<path fill="#ff3664" opacity="1.00" d=" M 74.48 55.07 C 73.00 47.61 84.26 46.54 89.62 47.34 C 90.25 57.18 89.71 67.08 89.89 76.94 C 92.11 76.97 94.33 76.99 96.55 77.00 C 96.80 79.38 96.80 81.77 96.61 84.15 C 89.00 83.99 81.38 84.43 73.79 83.81 C 73.76 81.60 73.78 79.38 73.84 77.16 C 76.55 77.03 79.28 76.98 82.00 76.96 C 81.97 69.68 82.02 62.40 81.93 55.11 C 79.45 55.12 76.96 55.10 74.48 55.07 Z" />
</g>
</svg>
