<?xml version="1.0" encoding="UTF-8" ?>
<!DOCTYPE svg PUBLIC "-//W3C//DTD SVG 1.1//EN" "http://www.w3.org/Graphics/SVG/1.1/DTD/svg11.dtd">
<svg width="192pt" height="192pt" viewBox="0 0 192 192" version="1.1" xmlns="http://www.w3.org/2000/svg">
<g id="#ff3664ff">
<path fill="#ff3664" opacity="1.00" d=" M 20.73 43.01 C 20.73 30.79 31.69 19.93 43.93 20.10 C 77.97 20.02 112.02 20.01 146.07 20.08 C 158.33 19.92 169.32 30.77 169.37 43.02 C 169.40 61.03 169.50 79.05 169.33 97.05 C 169.14 103.17 159.43 103.95 158.41 97.86 C 157.88 79.58 158.48 61.26 158.14 42.97 C 157.93 36.33 151.65 30.84 145.06 31.36 C 111.35 31.37 77.64 31.30 43.93 31.39 C 37.27 31.25 31.70 37.42 31.82 43.95 C 31.76 77.64 31.79 111.33 31.82 145.02 C 31.44 151.76 37.06 158.24 43.95 158.10 C 60.52 158.17 77.10 158.14 93.68 158.10 C 88.84 152.04 83.09 146.69 78.84 140.19 C 74.23 132.55 80.41 121.98 89.00 121.15 C 96.82 120.28 102.81 126.45 108.07 131.32 C 108.17 115.85 108.06 100.39 108.12 84.92 C 107.92 78.44 112.62 72.15 119.03 70.86 C 127.00 68.89 135.32 75.99 135.46 84.01 C 135.60 91.61 135.49 99.21 135.47 106.81 C 140.36 106.56 145.16 108.03 148.71 111.48 C 156.81 106.75 168.22 112.63 169.03 121.94 C 169.37 130.29 169.03 138.66 169.16 147.02 C 169.23 158.78 158.62 169.06 147.00 169.37 C 142.04 169.34 137.02 169.75 132.09 169.11 C 127.43 167.73 127.06 160.43 131.61 158.65 C 137.24 157.27 143.18 158.86 148.88 157.74 C 154.14 156.51 158.16 151.44 158.15 146.03 C 158.26 138.34 158.26 130.64 158.16 122.95 C 158.48 119.75 153.05 119.48 152.56 122.41 C 151.70 128.16 153.05 134.11 151.84 139.81 C 150.37 144.34 142.52 143.77 141.92 138.94 C 141.24 132.71 142.07 126.41 141.53 120.17 C 141.73 117.15 136.26 116.54 135.73 119.52 C 134.91 126.26 136.28 133.19 135.03 139.87 C 133.37 144.75 124.71 143.44 125.02 138.05 C 124.81 120.05 125.12 102.03 124.74 84.04 C 125.00 80.93 121.55 81.31 119.47 81.42 C 117.37 103.44 119.63 125.87 118.34 147.99 C 117.25 151.09 113.20 152.52 110.55 150.39 C 103.65 144.64 99.57 135.31 90.93 131.80 C 87.84 130.57 87.28 135.19 89.33 136.66 C 96.38 144.65 103.90 152.35 109.55 161.44 C 111.96 164.67 109.07 169.81 105.04 169.37 C 84.37 169.43 63.68 169.45 43.00 169.36 C 30.91 169.05 20.50 158.05 20.71 145.98 C 20.69 111.66 20.65 77.33 20.73 43.01 Z" />
<path fill="#ff3664" opacity="1.00" d=" M 50.30 48.34 C 56.76 47.46 68.14 46.77 68.32 55.98 C 70.67 66.17 60.57 71.62 54.66 77.88 C 59.13 77.94 63.60 77.94 68.07 78.16 C 68.19 80.44 69.77 85.23 66.03 85.07 C 58.72 85.12 51.37 85.37 44.06 84.83 C 44.00 82.32 43.15 79.22 45.19 77.23 C 49.72 72.75 54.39 68.40 58.97 63.97 C 61.98 61.26 61.31 53.85 56.00 55.07 C 52.01 54.00 50.65 57.67 50.59 60.89 C 48.31 61.07 46.02 61.11 43.74 61.18 C 42.21 56.07 43.94 48.67 50.30 48.34 Z" />
<path fill="#ff3664" opacity="1.00" d=" M 76.31 49.22 C 81.59 47.38 87.57 47.54 92.95 48.90 C 97.20 50.19 97.93 55.26 97.38 59.05 C 95.06 59.11 92.74 59.10 90.43 58.95 C 89.92 54.39 84.76 54.47 81.41 55.56 C 79.33 57.14 80.59 60.33 80.08 62.59 C 85.87 59.52 97.08 59.69 98.05 67.98 C 98.50 73.67 99.71 82.95 92.29 84.52 C 86.49 85.32 79.41 86.33 74.47 82.53 C 70.77 77.16 72.99 70.10 72.38 64.00 C 72.69 59.08 71.02 52.04 76.31 49.22 M 82.16 68.27 C 79.00 69.54 80.39 73.85 80.46 76.50 C 83.41 79.53 92.04 78.84 90.56 72.99 C 91.75 67.70 85.73 67.53 82.16 68.27 Z" />
</g>
</svg>
