<?xml version="1.0" encoding="UTF-8" ?>
<!DOCTYPE svg PUBLIC "-//W3C//DTD SVG 1.1//EN" "http://www.w3.org/Graphics/SVG/1.1/DTD/svg11.dtd">
<svg width="192pt" height="192pt" viewBox="0 0 192 192" version="1.1" xmlns="http://www.w3.org/2000/svg">
<g id="#ff3664ff">
<path fill="#ff3664" opacity="1.00" d=" M 20.74 43.02 C 20.72 30.79 31.69 19.92 43.93 20.10 C 77.97 20.02 112.02 20.01 146.07 20.09 C 158.33 19.92 169.32 30.77 169.34 43.03 C 169.35 61.03 169.52 79.04 169.26 97.03 C 169.15 103.13 159.43 103.87 158.44 97.87 C 157.84 79.59 158.52 61.26 158.13 42.96 C 157.97 36.29 151.67 30.84 145.07 31.32 C 111.35 31.34 77.63 31.25 43.92 31.36 C 37.23 31.24 31.63 37.39 31.82 43.97 C 31.75 77.65 31.78 111.33 31.81 145.00 C 31.40 151.76 37.06 158.24 43.95 158.09 C 60.52 158.18 77.10 158.14 93.67 158.09 C 88.88 151.99 83.09 146.69 78.87 140.18 C 74.22 132.57 80.40 122.00 88.96 121.16 C 96.80 120.26 102.78 126.46 108.07 131.30 C 108.18 115.84 108.05 100.38 108.13 84.93 C 107.92 78.45 112.61 72.15 119.03 70.86 C 127.00 68.89 135.31 75.98 135.42 84.01 C 135.59 91.60 135.47 99.20 135.43 106.79 C 140.32 106.57 145.09 108.07 148.72 111.41 C 156.83 106.86 168.23 112.57 168.97 121.92 C 169.34 129.93 168.94 137.97 169.11 145.99 C 169.70 157.04 160.77 167.25 150.00 168.98 C 144.37 169.66 138.64 169.49 132.98 169.21 C 127.66 168.76 126.68 160.50 131.61 158.65 C 137.50 157.19 143.75 159.05 149.65 157.52 C 154.95 155.92 158.49 150.47 158.20 144.99 C 158.03 137.06 158.70 129.07 157.84 121.18 C 156.30 120.14 153.81 119.87 152.74 121.72 C 151.42 127.64 153.14 133.87 151.77 139.80 C 150.36 144.31 142.54 143.74 141.95 138.96 C 141.06 132.25 142.40 125.40 141.26 118.72 C 139.75 117.21 136.24 116.91 135.74 119.50 C 134.82 126.25 136.30 133.18 134.98 139.88 C 133.30 144.70 124.74 143.42 125.05 138.07 C 124.77 120.06 125.14 102.02 124.74 84.01 C 125.01 80.98 121.44 81.33 119.43 81.27 C 117.51 103.03 119.37 125.04 118.48 146.88 C 118.24 150.58 113.49 152.74 110.58 150.35 C 103.63 144.66 99.61 135.26 90.95 131.78 C 88.17 130.57 87.18 134.48 88.91 136.10 C 96.09 144.61 104.31 152.44 109.88 162.18 C 111.63 165.42 108.66 169.64 105.05 169.32 C 84.37 169.41 63.68 169.42 43.01 169.31 C 30.92 169.01 20.51 158.04 20.71 145.98 C 20.69 111.66 20.65 77.34 20.74 43.02 Z" />
<path fill="#ff3664" opacity="1.00" d=" M 46.50 55.07 C 44.97 47.66 56.34 46.47 61.60 47.41 C 62.26 57.22 61.69 67.10 61.88 76.94 C 64.10 76.96 66.33 77.00 68.56 77.00 C 68.75 79.38 68.76 81.77 68.61 84.15 C 61.02 83.99 53.41 84.44 45.83 83.81 C 45.76 81.60 45.77 79.38 45.85 77.17 C 48.57 77.07 51.28 76.96 54.01 76.96 C 54.02 69.68 54.02 62.40 53.93 55.11 C 51.46 55.12 48.98 55.10 46.50 55.07 Z" />
<path fill="#ff3664" opacity="1.00" d=" M 74.05 50.04 C 78.52 45.66 85.76 46.90 91.44 47.48 C 96.70 48.00 98.02 53.79 97.51 58.17 C 95.23 58.13 92.95 58.09 90.67 58.01 C 89.74 53.59 84.95 53.36 81.41 54.57 C 79.44 56.13 80.53 59.25 80.00 61.47 C 85.57 59.11 95.16 58.36 97.65 65.28 C 98.50 70.63 99.50 77.27 95.84 81.80 C 90.60 85.20 83.67 84.43 77.80 83.40 C 71.40 81.86 72.40 74.01 72.37 69.00 C 72.92 62.74 71.01 55.83 74.05 50.04 M 80.52 68.43 C 80.04 70.96 80.28 73.55 80.30 76.10 C 83.41 76.92 87.25 77.99 90.05 75.84 C 90.67 73.21 91.18 69.91 89.41 67.62 C 86.59 67.05 82.80 66.20 80.52 68.43 Z" />
</g>
</svg>
