<?xml version="1.0" encoding="UTF-8" ?>
<!DOCTYPE svg PUBLIC "-//W3C//DTD SVG 1.1//EN" "http://www.w3.org/Graphics/SVG/1.1/DTD/svg11.dtd">
<svg width="192pt" height="192pt" viewBox="0 0 192 192" version="1.1" xmlns="http://www.w3.org/2000/svg">
<g id="#ff3664ff">
<path fill="#ff3664" opacity="1.00" d=" M 20.72 44.03 C 20.62 31.74 31.67 20.86 43.94 21.06 C 77.97 20.99 112.01 20.98 146.05 21.04 C 157.97 20.88 168.85 31.08 169.29 43.02 C 169.51 60.01 169.28 77.01 169.41 94.00 C 169.46 96.76 169.44 100.23 166.68 101.77 C 163.24 104.13 158.02 101.21 158.27 97.03 C 158.07 79.35 158.39 61.65 158.14 43.97 C 158.10 37.23 151.71 31.67 145.06 32.20 C 111.35 32.22 77.63 32.15 43.92 32.24 C 37.18 32.08 31.50 38.34 31.81 44.98 C 31.75 78.32 31.80 111.67 31.80 145.01 C 31.30 151.84 37.06 158.34 43.99 158.21 C 60.53 158.32 77.09 158.29 93.63 158.21 C 88.81 152.11 83.01 146.77 78.75 140.24 C 74.08 132.29 81.09 121.52 90.01 121.40 C 97.43 121.21 102.97 126.96 108.07 131.57 C 108.20 116.03 108.02 100.47 108.15 84.93 C 108.15 78.52 113.03 72.56 119.36 71.43 C 127.39 69.72 135.59 76.93 135.45 85.02 C 135.55 92.51 135.49 100.00 135.43 107.49 C 140.38 106.85 145.17 108.54 148.81 111.89 C 156.73 107.24 167.98 112.85 168.94 121.98 C 169.38 129.97 168.92 137.99 169.11 146.00 C 169.78 157.08 160.78 167.31 150.00 169.02 C 144.37 169.72 138.65 169.55 133.00 169.27 C 127.66 168.83 126.66 160.56 131.65 158.74 C 137.29 157.46 143.21 158.98 148.90 157.84 C 154.19 156.59 158.26 151.48 158.18 146.02 C 158.15 137.70 158.52 129.35 157.90 121.05 C 156.05 120.98 153.33 120.06 152.61 122.47 C 151.60 128.18 152.99 134.08 151.86 139.78 C 150.62 144.62 142.38 144.02 141.90 139.00 C 141.28 132.17 142.09 125.28 141.37 118.45 C 139.53 118.61 136.21 117.09 135.79 119.75 C 134.78 126.40 136.28 133.26 135.03 139.89 C 133.71 144.65 125.48 143.99 125.13 138.98 C 124.64 120.71 125.27 102.39 124.68 84.12 C 124.72 81.20 121.11 82.05 119.23 82.13 C 117.78 103.64 119.21 125.31 118.51 146.87 C 118.37 149.94 114.99 152.31 112.05 151.28 C 103.11 146.31 99.56 132.40 88.10 132.11 C 88.17 133.95 88.14 135.99 89.65 137.33 C 96.63 145.05 103.93 152.61 109.48 161.47 C 111.93 164.71 109.06 169.76 105.03 169.38 C 84.36 169.46 63.68 169.50 43.02 169.36 C 30.91 169.07 20.43 158.09 20.71 145.98 C 20.69 112.00 20.66 78.01 20.72 44.03 Z" />
<path fill="#ff3664" opacity="1.00" d=" M 63.29 54.32 C 69.84 53.92 80.05 52.29 82.95 60.02 C 84.08 65.44 85.16 72.62 80.23 76.53 C 85.61 80.16 84.40 87.72 83.29 93.18 C 80.19 100.91 69.91 99.15 63.26 98.79 C 57.11 98.79 53.84 92.55 54.79 87.03 C 57.00 85.14 60.22 86.29 62.88 86.05 C 63.33 91.66 70.04 92.19 74.03 90.11 C 75.79 87.62 75.67 83.48 74.03 80.95 C 71.11 79.53 67.52 80.26 64.34 79.69 C 64.33 77.71 64.12 75.68 64.62 73.74 C 67.36 71.88 72.09 74.39 74.32 71.35 C 75.05 68.65 75.63 64.79 73.35 62.69 C 70.31 61.91 65.05 60.82 64.03 64.92 C 63.13 68.60 58.12 67.22 55.45 66.50 C 53.80 61.05 57.15 54.43 63.29 54.32 Z" />
</g>
</svg>
