<?xml version="1.0" encoding="UTF-8" ?>
<!DOCTYPE svg PUBLIC "-//W3C//DTD SVG 1.1//EN" "http://www.w3.org/Graphics/SVG/1.1/DTD/svg11.dtd">
<svg width="192pt" height="192pt" viewBox="0 0 192 192" version="1.1" xmlns="http://www.w3.org/2000/svg">
<g id="#ff3664ff">
<path fill="#ff3664" opacity="1.00" d=" M 20.73 43.02 C 20.73 30.79 31.69 19.92 43.93 20.10 C 77.98 20.02 112.03 20.01 146.07 20.09 C 158.34 19.93 169.32 30.77 169.37 43.02 C 169.31 61.35 169.69 79.71 169.19 98.02 C 167.89 103.93 158.40 103.14 158.31 97.04 C 158.06 79.36 158.33 61.66 158.19 43.97 C 158.43 37.39 152.72 31.28 146.08 31.40 C 112.03 31.32 77.97 31.32 43.93 31.39 C 37.26 31.25 31.70 37.41 31.83 43.95 C 31.75 77.64 31.79 111.33 31.82 145.02 C 31.44 151.76 37.06 158.24 43.95 158.10 C 60.51 158.17 77.09 158.14 93.66 158.09 C 88.84 152.02 83.07 146.69 78.85 140.18 C 74.23 132.55 80.41 121.98 88.99 121.15 C 96.82 120.28 102.80 126.45 108.07 131.31 C 108.17 115.85 108.06 100.39 108.13 84.92 C 107.92 78.44 112.61 72.15 119.03 70.86 C 127.00 68.89 135.32 75.99 135.45 84.01 C 135.60 91.61 135.49 99.20 135.47 106.80 C 140.36 106.57 145.14 108.05 148.71 111.46 C 156.82 106.78 168.22 112.62 169.02 121.94 C 169.38 130.29 169.03 138.67 169.16 147.03 C 169.23 158.79 158.62 169.05 147.00 169.37 C 142.04 169.35 137.03 169.75 132.10 169.10 C 127.43 167.74 127.06 160.42 131.61 158.65 C 137.25 157.27 143.19 158.86 148.88 157.74 C 154.15 156.51 158.16 151.44 158.15 146.03 C 158.26 138.34 158.27 130.63 158.15 122.94 C 158.47 119.75 153.06 119.49 152.56 122.40 C 151.81 127.90 152.78 133.50 152.08 139.01 C 151.39 143.82 143.61 144.29 142.15 139.78 C 140.82 132.86 142.51 125.68 141.25 118.74 C 139.74 117.20 136.30 116.96 135.74 119.51 C 134.89 126.26 136.30 133.18 135.02 139.87 C 133.37 144.75 124.71 143.44 125.03 138.06 C 124.80 120.06 125.13 102.04 124.74 84.04 C 125.00 80.93 121.50 81.33 119.44 81.39 C 117.52 103.13 119.40 125.18 118.50 147.02 C 118.18 150.68 113.43 152.79 110.56 150.38 C 103.64 144.65 99.57 135.31 90.94 131.80 C 88.25 130.58 87.21 134.53 88.92 136.09 C 96.12 144.60 104.28 152.47 109.92 162.18 C 111.66 165.42 108.70 169.75 105.05 169.37 C 84.37 169.43 63.68 169.45 43.00 169.36 C 30.91 169.05 20.50 158.06 20.71 145.99 C 20.69 111.66 20.65 77.34 20.73 43.02 Z" />
<path fill="#ff3664" opacity="1.00" d=" M 47.80 48.68 C 53.37 47.68 59.87 47.05 64.90 50.12 C 68.32 54.12 68.06 60.48 66.22 65.14 C 62.70 69.96 57.89 73.69 53.67 77.88 C 58.15 77.94 62.64 77.95 67.12 78.15 C 67.24 80.33 67.93 82.68 66.91 84.74 C 59.00 85.52 50.96 85.19 43.03 84.83 C 40.81 77.49 48.27 73.89 52.36 69.34 C 55.92 65.86 61.94 61.99 59.01 56.22 C 55.23 53.33 48.63 55.20 49.55 60.91 C 47.26 61.05 44.97 61.12 42.67 61.18 C 41.68 56.59 42.25 49.89 47.80 48.68 Z" />
<path fill="#ff3664" opacity="1.00" d=" M 85.84 49.83 C 87.48 46.80 91.46 48.38 94.24 48.04 C 95.10 55.91 94.49 63.85 94.63 71.76 C 95.53 71.90 97.34 72.18 98.24 72.32 C 98.37 74.45 98.39 76.58 98.31 78.71 C 97.41 78.86 95.59 79.16 94.68 79.31 C 94.64 81.12 94.59 82.93 94.53 84.74 C 92.02 85.10 89.47 85.16 86.94 84.92 C 86.80 82.98 86.68 81.04 86.60 79.10 C 81.30 79.16 76.00 79.13 70.70 79.09 C 70.51 76.84 69.84 74.33 71.25 72.33 C 76.03 64.78 80.93 57.29 85.84 49.83 M 79.26 71.91 C 81.75 71.93 84.24 71.97 86.73 71.99 C 86.71 68.17 86.66 64.34 86.61 60.51 C 84.23 64.36 81.84 68.20 79.26 71.91 Z" />
</g>
</svg>
