<?xml version="1.0" encoding="UTF-8" ?>
<!DOCTYPE svg PUBLIC "-//W3C//DTD SVG 1.1//EN" "http://www.w3.org/Graphics/SVG/1.1/DTD/svg11.dtd">
<svg width="192pt" height="192pt" viewBox="0 0 192 192" version="1.1" xmlns="http://www.w3.org/2000/svg">
<g id="#ff3664ff">
<path fill="#ff3664" opacity="1.00" d=" M 20.73 43.03 C 20.72 30.80 31.68 19.92 43.93 20.10 C 77.97 20.02 112.02 20.01 146.06 20.08 C 158.33 19.92 169.32 30.77 169.38 43.03 C 169.40 61.03 169.50 79.03 169.33 97.03 C 169.16 103.15 159.45 103.97 158.41 97.87 C 157.89 79.59 158.47 61.26 158.14 42.97 C 157.93 36.33 151.65 30.84 145.06 31.36 C 111.35 31.37 77.64 31.30 43.93 31.39 C 37.26 31.25 31.69 37.42 31.82 43.96 C 31.76 77.64 31.79 111.33 31.82 145.01 C 31.43 151.76 37.07 158.25 43.97 158.10 C 60.50 158.14 77.04 158.19 93.57 158.06 C 88.85 151.95 83.04 146.69 78.85 140.19 C 74.23 132.56 80.40 122.00 88.98 121.15 C 96.80 120.26 102.77 126.45 108.05 131.28 C 108.19 115.83 108.05 100.38 108.12 84.94 C 107.91 78.45 112.61 72.15 119.03 70.86 C 127.01 68.88 135.33 76.00 135.46 84.03 C 135.59 91.62 135.50 99.21 135.46 106.81 C 140.37 106.54 145.18 108.05 148.75 111.50 C 156.82 106.72 168.22 112.66 169.03 121.94 C 169.37 130.29 169.02 138.66 169.16 147.02 C 169.23 158.79 158.61 169.06 146.99 169.37 C 142.03 169.33 137.02 169.75 132.09 169.11 C 127.43 167.73 127.06 160.42 131.61 158.64 C 137.25 157.27 143.20 158.87 148.90 157.74 C 154.15 156.49 158.17 151.43 158.16 146.02 C 158.26 138.33 158.25 130.64 158.17 122.96 C 158.48 119.77 153.09 119.47 152.55 122.39 C 151.84 127.90 152.75 133.49 152.10 139.00 C 151.33 144.20 142.61 144.18 141.91 138.95 C 141.25 132.71 142.06 126.41 141.53 120.16 C 141.74 117.14 136.26 116.58 135.73 119.51 C 135.06 125.98 135.97 132.53 135.29 139.01 C 134.47 144.68 124.72 143.89 125.02 138.06 C 124.82 120.06 125.11 102.04 124.74 84.04 C 125.15 80.20 118.28 80.40 118.75 84.20 C 118.48 104.79 118.81 125.40 118.60 145.99 C 118.92 149.72 114.53 152.82 111.22 150.80 C 103.80 145.27 99.86 135.39 90.95 131.80 C 88.28 130.54 87.18 134.57 88.92 136.11 C 96.15 144.59 104.25 152.48 109.92 162.16 C 111.67 165.41 108.69 169.78 105.03 169.37 C 84.36 169.43 63.68 169.45 43.01 169.36 C 30.91 169.05 20.50 158.05 20.70 145.97 C 20.69 111.66 20.65 77.34 20.73 43.03 Z" />
<path fill="#ff3664" opacity="1.00" d=" M 49.55 48.48 C 55.07 47.84 61.78 46.88 66.40 50.62 C 69.64 55.95 69.52 64.22 64.49 68.48 C 61.24 71.63 58.01 74.80 54.71 77.88 C 59.16 77.95 63.61 77.94 68.05 78.15 C 68.47 80.38 68.52 82.65 68.13 84.89 C 60.13 85.25 52.08 85.34 44.09 84.84 C 43.99 82.32 43.15 79.22 45.19 77.23 C 49.72 72.76 54.37 68.40 58.95 63.98 C 61.98 61.29 61.32 53.85 56.01 55.07 C 52.01 54.01 50.65 57.62 50.62 60.86 C 48.35 61.06 46.07 61.14 43.79 61.17 C 42.32 56.37 43.63 49.24 49.55 48.48 Z" />
<path fill="#ff3664" opacity="1.00" d=" M 73.78 47.94 C 81.38 48.35 89.09 47.42 96.61 48.38 C 97.45 50.44 96.95 52.70 96.85 54.84 C 91.54 55.40 86.21 55.01 80.89 55.15 C 80.89 57.42 80.89 59.68 80.88 61.95 C 86.60 60.37 96.31 59.51 97.99 67.00 C 98.30 72.20 99.69 78.61 95.94 82.90 C 90.89 86.09 84.38 85.39 78.75 84.50 C 73.95 83.72 72.76 78.35 73.20 74.26 C 75.49 74.02 77.80 73.95 80.11 73.96 C 80.77 78.73 87.43 79.39 90.34 76.48 C 90.44 73.64 91.55 69.89 89.41 67.63 C 84.33 65.12 80.08 70.40 74.98 69.09 C 72.43 69.05 73.31 65.68 73.10 64.03 C 73.46 58.68 72.40 53.17 73.78 47.94 Z" />
</g>
</svg>
