<?xml version="1.0" encoding="UTF-8" ?>
<!DOCTYPE svg PUBLIC "-//W3C//DTD SVG 1.1//EN" "http://www.w3.org/Graphics/SVG/1.1/DTD/svg11.dtd">
<svg width="192pt" height="192pt" viewBox="0 0 192 192" version="1.1" xmlns="http://www.w3.org/2000/svg">
<g id="#ff3664ff">
<path fill="#ff3664" opacity="1.00" d=" M 20.72 44.03 C 20.62 31.74 31.67 20.86 43.94 21.05 C 77.98 20.99 112.01 20.99 146.04 21.03 C 158.33 20.85 169.41 31.71 169.35 44.03 C 169.31 62.02 169.56 80.03 169.23 98.01 C 168.53 104.05 158.86 103.93 158.33 97.90 C 158.01 79.93 158.40 61.94 158.16 43.97 C 158.08 37.67 152.39 32.11 146.08 32.24 C 112.03 32.17 77.97 32.18 43.92 32.23 C 37.19 32.07 31.49 38.35 31.80 44.99 C 31.78 78.67 31.75 112.35 31.83 146.03 C 31.75 152.51 37.50 158.33 44.01 158.22 C 60.55 158.30 77.09 158.30 93.63 158.20 C 88.81 152.11 83.02 146.76 78.75 140.25 C 74.08 132.29 81.09 121.50 90.02 121.40 C 97.44 121.22 102.99 126.95 108.06 131.60 C 108.21 116.04 108.03 100.48 108.15 84.93 C 108.14 78.53 113.04 72.56 119.36 71.43 C 127.38 69.72 135.60 76.93 135.45 85.02 C 135.52 92.53 135.49 100.05 135.44 107.56 C 140.43 106.74 145.24 108.60 148.88 111.97 C 157.02 106.87 168.79 113.47 169.06 122.95 C 169.20 130.96 169.01 138.99 169.11 147.01 C 169.32 158.82 158.58 169.07 146.97 169.38 C 142.01 169.36 137.00 169.79 132.09 169.11 C 127.40 167.75 127.08 160.47 131.65 158.73 C 136.67 157.59 141.92 158.70 147.02 158.14 C 153.12 157.76 158.31 152.13 158.18 146.01 C 158.08 137.75 158.61 129.44 157.87 121.20 C 156.02 120.68 153.44 120.16 152.57 122.45 C 151.66 128.18 152.95 134.08 151.88 139.79 C 150.58 144.62 142.42 144.01 141.87 139.01 C 141.28 132.25 142.16 125.42 141.33 118.67 C 139.51 118.28 136.37 117.17 135.72 119.73 C 134.88 126.41 136.22 133.27 135.03 139.90 C 133.68 144.65 125.51 143.98 125.10 138.99 C 124.69 120.71 125.21 102.38 124.71 84.10 C 124.63 81.32 121.14 81.66 119.27 82.29 C 117.73 103.71 119.22 125.36 118.53 146.86 C 118.38 149.94 114.99 152.32 112.04 151.28 C 103.15 146.41 99.58 132.33 88.23 132.22 C 88.21 133.78 87.84 135.64 89.20 136.80 C 96.30 144.71 103.77 152.42 109.49 161.45 C 111.94 164.69 109.05 169.79 105.02 169.40 C 84.36 169.44 63.69 169.49 43.03 169.36 C 30.92 169.07 20.43 158.09 20.70 145.98 C 20.69 112.00 20.67 78.01 20.72 44.03 Z" />
<path fill="#ff3664" opacity="1.00" d=" M 47.83 50.89 C 52.13 49.22 56.95 46.75 61.58 48.49 C 62.29 58.25 61.66 68.11 61.89 77.91 C 63.97 77.95 66.06 78.00 68.14 77.97 C 69.22 80.25 69.14 82.87 68.18 85.17 C 60.79 84.94 53.39 85.47 46.02 84.84 C 45.67 82.63 45.69 80.38 45.99 78.16 C 48.65 78.02 51.33 77.98 54.00 77.97 C 53.99 70.69 54.07 63.40 53.91 56.12 C 51.49 56.12 49.08 56.09 46.66 56.03 C 46.75 54.31 45.34 51.46 47.83 50.89 Z" />
<path fill="#ff3664" opacity="1.00" d=" M 85.82 49.83 C 87.44 46.80 91.39 48.36 94.14 48.06 C 95.27 55.89 94.38 63.87 94.64 71.77 C 95.50 71.90 97.23 72.15 98.10 72.28 C 98.49 74.42 98.58 76.61 98.15 78.75 C 97.29 78.89 95.56 79.16 94.69 79.29 C 94.64 81.05 94.59 82.81 94.56 84.57 C 92.11 85.41 89.51 85.13 86.99 84.87 C 86.79 82.96 86.68 81.04 86.60 79.12 C 81.33 79.14 76.07 79.14 70.81 79.09 C 70.38 76.86 69.84 74.31 71.25 72.31 C 76.05 64.78 80.94 57.30 85.82 49.83 M 79.26 71.91 C 81.75 71.93 84.24 71.97 86.73 71.98 C 86.71 68.20 86.68 64.42 86.60 60.64 C 84.14 64.39 81.84 68.24 79.26 71.91 Z" />
</g>
</svg>
