<?xml version="1.0" encoding="UTF-8" ?>
<!DOCTYPE svg PUBLIC "-//W3C//DTD SVG 1.1//EN" "http://www.w3.org/Graphics/SVG/1.1/DTD/svg11.dtd">
<svg width="192pt" height="192pt" viewBox="0 0 192 192" version="1.1" xmlns="http://www.w3.org/2000/svg">
<g id="#ff3664ff">
<path fill="#ff3664" opacity="1.00" d=" M 20.73 43.02 C 20.72 30.79 31.68 19.93 43.93 20.10 C 77.97 20.02 112.02 20.01 146.07 20.09 C 158.33 19.92 169.32 30.76 169.37 43.02 C 169.39 61.03 169.53 79.04 169.31 97.04 C 169.16 103.18 159.40 103.95 158.43 97.86 C 157.85 79.58 158.51 61.25 158.13 42.96 C 157.93 36.32 151.65 30.86 145.07 31.36 C 111.35 31.37 77.64 31.29 43.92 31.39 C 37.26 31.26 31.70 37.41 31.83 43.96 C 31.75 77.64 31.79 111.33 31.82 145.01 C 31.44 151.76 37.06 158.24 43.95 158.09 C 60.50 158.17 77.06 158.16 93.61 158.07 C 88.85 151.99 83.06 146.70 78.85 140.19 C 74.23 132.56 80.40 121.99 88.99 121.15 C 96.81 120.27 102.78 126.45 108.07 131.29 C 108.18 115.84 108.05 100.38 108.13 84.93 C 107.92 78.45 112.61 72.15 119.03 70.86 C 127.00 68.89 135.32 75.99 135.45 84.01 C 135.61 91.59 135.50 99.19 135.46 106.77 C 140.35 106.59 145.11 108.07 148.73 111.43 C 156.85 106.82 168.23 112.61 169.01 121.94 C 169.41 129.95 169.00 137.98 169.17 146.00 C 169.68 156.45 161.73 166.21 151.70 168.66 C 145.57 169.94 139.21 169.42 132.99 169.26 C 127.67 168.79 126.66 160.52 131.61 158.65 C 137.25 157.27 143.19 158.86 148.88 157.73 C 154.15 156.51 158.16 151.43 158.15 146.02 C 158.26 138.33 158.30 130.63 158.14 122.94 C 158.47 119.72 153.08 119.50 152.57 122.40 C 151.80 127.89 152.81 133.48 152.06 138.98 C 151.44 143.82 143.59 144.30 142.16 139.78 C 140.82 132.85 142.51 125.67 141.25 118.73 C 139.77 117.19 136.25 117.01 135.75 119.51 C 134.88 126.26 136.30 133.18 135.02 139.88 C 133.37 144.74 124.71 143.45 125.04 138.07 C 124.78 120.07 125.15 102.04 124.73 84.04 C 125.10 80.20 118.26 80.38 118.78 84.20 C 118.44 104.79 118.85 125.41 118.59 146.01 C 118.89 149.72 114.53 152.84 111.23 150.79 C 103.77 145.29 99.88 135.37 90.94 131.81 C 87.79 130.57 87.33 135.14 89.34 136.65 C 96.35 144.67 103.93 152.33 109.54 161.45 C 111.95 164.70 109.07 169.77 105.04 169.36 C 84.37 169.44 63.68 169.45 43.00 169.35 C 30.90 169.05 20.50 158.05 20.71 145.98 C 20.69 111.66 20.64 77.34 20.73 43.02 Z" />
<path fill="#ff3664" opacity="1.00" d=" M 47.31 49.23 C 52.04 47.45 57.36 47.68 62.27 48.52 C 69.45 49.74 69.27 59.11 67.53 64.48 C 64.25 69.76 58.98 73.44 54.70 77.88 C 59.20 77.95 63.71 77.94 68.21 78.17 C 68.34 80.40 68.37 82.64 68.30 84.87 C 60.19 85.26 52.04 85.34 43.94 84.81 C 41.93 76.72 50.53 73.04 54.89 67.88 C 58.53 65.07 63.03 60.22 59.49 55.60 C 55.06 53.80 49.96 55.42 50.49 60.92 C 48.19 61.05 45.89 61.12 43.59 61.17 C 43.06 57.02 42.86 51.34 47.31 49.23 Z" />
<path fill="#ff3664" opacity="1.00" d=" M 78.97 48.76 C 84.64 47.64 91.62 46.85 96.52 50.50 C 99.56 54.92 99.72 61.91 96.00 66.03 C 100.04 69.78 99.31 76.03 97.96 80.82 C 94.29 86.67 85.96 85.20 80.11 84.68 C 74.33 84.28 72.79 77.87 73.55 73.09 C 75.85 73.03 78.15 73.02 80.45 73.06 C 80.47 78.48 87.20 79.55 90.72 76.69 C 91.34 74.61 91.29 72.33 90.63 70.27 C 88.13 68.42 84.72 69.29 81.83 68.79 C 81.79 66.93 81.79 65.06 81.82 63.20 C 84.75 62.60 90.61 64.46 90.84 60.00 C 92.61 52.96 80.24 53.39 80.80 59.98 C 78.45 60.07 76.11 60.03 73.77 59.90 C 73.39 55.69 73.94 49.85 78.97 48.76 Z" />
</g>
</svg>
