<?xml version="1.0" encoding="UTF-8" ?>
<!DOCTYPE svg PUBLIC "-//W3C//DTD SVG 1.1//EN" "http://www.w3.org/Graphics/SVG/1.1/DTD/svg11.dtd">
<svg width="192pt" height="192pt" viewBox="0 0 192 192" version="1.1" xmlns="http://www.w3.org/2000/svg">
<g id="#ff3664ff">
<path fill="#ff3664" opacity="1.00" d=" M 20.73 43.02 C 20.72 30.79 31.69 19.92 43.93 20.10 C 77.97 20.02 112.02 20.01 146.07 20.08 C 158.33 19.92 169.32 30.77 169.34 43.03 C 169.36 61.03 169.48 79.03 169.29 97.02 C 169.14 103.12 159.44 103.88 158.42 97.86 C 157.89 79.58 158.48 61.26 158.14 42.97 C 157.96 36.30 151.67 30.82 145.07 31.32 C 111.35 31.34 77.63 31.26 43.92 31.36 C 37.24 31.23 31.63 37.39 31.81 43.97 C 31.76 77.65 31.79 111.33 31.80 145.01 C 31.39 151.76 37.07 158.23 43.95 158.10 C 60.52 158.16 77.09 158.16 93.66 158.08 C 88.88 151.99 83.09 146.68 78.86 140.18 C 74.23 132.56 80.41 121.99 88.99 121.15 C 96.81 120.27 102.79 126.46 108.06 131.30 C 108.18 115.85 108.05 100.38 108.13 84.93 C 107.92 78.45 112.62 72.15 119.03 70.86 C 127.00 68.88 135.31 75.99 135.43 84.01 C 135.57 91.61 135.47 99.22 135.45 106.83 C 140.35 106.55 145.16 108.03 148.72 111.49 C 156.78 106.74 168.24 112.62 168.98 121.93 C 169.31 130.28 168.97 138.65 169.10 147.02 C 169.23 158.77 158.59 169.02 146.99 169.33 C 142.04 169.30 137.02 169.74 132.11 169.06 C 127.42 167.75 127.07 160.41 131.61 158.65 C 137.24 157.27 143.19 158.86 148.88 157.74 C 154.14 156.50 158.16 151.43 158.16 146.02 C 158.26 138.34 158.26 130.64 158.17 122.96 C 158.55 119.74 153.01 119.43 152.53 122.39 C 151.65 128.14 153.03 134.08 151.79 139.79 C 150.36 144.31 142.54 143.74 141.92 138.95 C 141.11 132.24 142.37 125.40 141.27 118.73 C 139.80 117.15 136.23 116.97 135.71 119.51 C 134.87 126.26 136.26 133.18 134.99 139.87 C 133.28 144.71 124.74 143.41 125.02 138.06 C 124.83 120.05 125.09 102.03 124.76 84.03 C 125.02 80.93 121.60 81.28 119.51 81.37 C 117.31 103.25 119.58 125.58 118.37 147.59 C 117.62 150.93 113.28 152.52 110.57 150.37 C 103.66 144.62 99.58 135.28 90.95 131.77 C 88.27 130.55 87.11 134.56 88.89 136.11 C 96.14 144.58 104.25 152.48 109.90 162.18 C 111.61 165.41 108.66 169.66 105.04 169.33 C 84.36 169.40 63.68 169.41 43.00 169.32 C 30.92 169.00 20.51 158.04 20.71 145.98 C 20.70 111.66 20.65 77.34 20.73 43.02 Z" />
<path fill="#ff3664" opacity="1.00" d=" M 50.29 48.34 C 56.76 47.46 68.15 46.76 68.32 55.99 C 70.68 66.18 60.56 71.60 54.68 77.88 C 59.14 77.94 63.61 77.94 68.07 78.16 C 68.47 80.38 68.46 82.65 68.16 84.89 C 60.14 85.25 52.08 85.34 44.07 84.83 C 44.02 82.32 43.14 79.22 45.19 77.23 C 49.72 72.75 54.38 68.40 58.96 63.97 C 61.98 61.27 61.31 53.84 56.00 55.07 C 52.00 54.00 50.66 57.66 50.60 60.89 C 48.32 61.04 46.04 61.13 43.76 61.18 C 42.19 56.08 43.94 48.67 50.29 48.34 Z" />
<path fill="#ff3664" opacity="1.00" d=" M 75.09 51.07 C 79.34 46.74 86.26 48.02 91.74 48.25 C 100.20 48.72 101.18 61.18 96.14 66.02 C 102.03 71.17 100.45 85.16 90.95 84.96 C 85.29 85.04 76.54 86.66 73.92 80.05 C 73.02 75.41 71.84 68.83 76.77 66.02 C 72.09 62.78 72.84 55.56 75.09 51.07 M 81.30 61.79 C 85.19 64.49 93.49 63.49 91.08 57.08 C 87.98 52.53 78.51 55.16 81.30 61.79 M 82.43 69.55 C 80.38 71.31 80.30 75.71 82.42 77.48 C 85.84 78.88 92.79 78.61 91.55 73.19 C 92.20 68.12 85.62 68.64 82.43 69.55 Z" />
</g>
</svg>
