<?xml version="1.0" encoding="UTF-8" ?>
<!DOCTYPE svg PUBLIC "-//W3C//DTD SVG 1.1//EN" "http://www.w3.org/Graphics/SVG/1.1/DTD/svg11.dtd">
<svg width="192pt" height="192pt" viewBox="0 0 192 192" version="1.1" xmlns="http://www.w3.org/2000/svg">
<g id="#ff3664ff">
<path fill="#ff3664" opacity="1.00" d=" M 20.74 43.00 C 20.73 30.78 31.69 19.93 43.92 20.10 C 77.97 20.02 112.03 20.01 146.08 20.09 C 158.33 19.93 169.31 30.76 169.34 43.01 C 169.35 61.02 169.51 79.04 169.27 97.04 C 169.15 103.14 159.41 103.87 158.43 97.85 C 157.85 79.58 158.51 61.25 158.13 42.96 C 157.97 36.29 151.68 30.84 145.08 31.32 C 111.36 31.34 77.64 31.25 43.93 31.36 C 37.25 31.24 31.64 37.37 31.81 43.95 C 31.75 77.64 31.78 111.33 31.81 145.02 C 31.41 151.77 37.06 158.23 43.94 158.09 C 60.53 158.19 77.12 158.12 93.71 158.10 C 88.88 152.03 83.10 146.69 78.86 140.17 C 74.22 132.55 80.42 121.97 89.01 121.15 C 96.84 120.29 102.81 126.47 108.08 131.33 C 108.16 115.86 108.06 100.39 108.13 84.92 C 107.92 78.44 112.61 72.15 119.03 70.86 C 126.99 68.89 135.30 75.97 135.42 83.99 C 135.59 91.59 135.46 99.20 135.44 106.80 C 140.33 106.58 145.11 108.05 148.70 111.43 C 156.81 106.83 168.24 112.58 168.97 121.93 C 169.34 129.94 168.94 137.98 169.11 146.00 C 169.68 156.73 161.25 166.71 150.87 168.82 C 144.97 169.77 138.93 169.44 132.98 169.22 C 127.67 168.76 126.68 160.51 131.61 158.65 C 137.24 157.27 143.18 158.86 148.87 157.73 C 154.14 156.52 158.15 151.44 158.15 146.04 C 158.26 138.34 158.31 130.64 158.13 122.95 C 158.59 119.74 152.98 119.43 152.54 122.39 C 151.64 128.14 153.03 134.07 151.78 139.77 C 150.38 144.31 142.52 143.75 141.94 138.94 C 141.07 132.23 142.40 125.38 141.26 118.70 C 139.73 117.21 136.23 116.91 135.73 119.52 C 134.83 126.26 136.29 133.17 134.99 139.86 C 133.31 144.70 124.74 143.42 125.04 138.07 C 124.79 120.06 125.13 102.03 124.75 84.03 C 125.03 80.95 121.47 81.34 119.43 81.28 C 117.51 103.02 119.37 125.03 118.48 146.85 C 118.27 150.56 113.50 152.75 110.58 150.36 C 103.64 144.65 99.60 135.26 90.94 131.77 C 87.77 130.57 87.27 135.14 89.32 136.66 C 96.36 144.66 103.93 152.33 109.53 161.47 C 111.90 164.70 109.04 169.68 105.05 169.32 C 84.37 169.41 63.67 169.42 42.99 169.31 C 30.92 169.00 20.52 158.04 20.71 145.99 C 20.69 111.66 20.65 77.33 20.74 43.00 Z" />
<path fill="#ff3664" opacity="1.00" d=" M 50.96 48.78 C 56.63 47.64 63.60 46.87 68.51 50.49 C 71.52 54.91 71.83 62.12 67.78 66.04 C 72.18 69.54 71.24 76.03 69.95 80.82 C 66.07 86.80 57.38 85.27 51.33 84.50 C 45.96 83.72 45.01 77.57 45.54 73.12 C 47.82 73.06 50.11 73.02 52.40 73.05 C 52.48 78.47 59.21 79.59 62.74 76.67 C 63.35 74.60 63.31 72.33 62.63 70.28 C 60.15 68.44 56.72 69.24 53.83 68.79 C 53.78 66.90 53.80 65.02 53.82 63.13 C 56.34 63.17 58.86 62.90 61.38 63.06 C 62.95 61.03 63.82 57.33 61.57 55.54 C 57.68 54.06 52.98 55.12 52.83 59.94 C 50.47 60.03 48.11 60.00 45.76 59.90 C 45.41 55.70 45.94 49.86 50.96 48.78 Z" />
<path fill="#ff3664" opacity="1.00" d=" M 76.52 56.07 C 74.89 48.63 86.31 47.51 91.63 48.37 C 92.25 58.20 91.72 68.08 91.89 77.93 C 94.08 77.97 96.27 77.97 98.47 77.98 C 98.86 80.37 98.86 82.78 98.50 85.17 C 91.05 84.85 83.54 85.64 76.13 84.74 C 75.58 82.57 75.77 80.33 75.83 78.13 C 78.55 78.16 81.28 77.84 84.00 77.99 C 83.97 70.70 84.02 63.41 83.93 56.11 C 81.46 56.12 78.99 56.09 76.52 56.07 Z" />
</g>
</svg>
