<?xml version="1.0" encoding="UTF-8" ?>
<!DOCTYPE svg PUBLIC "-//W3C//DTD SVG 1.1//EN" "http://www.w3.org/Graphics/SVG/1.1/DTD/svg11.dtd">
<svg width="192pt" height="192pt" viewBox="0 0 192 192" version="1.1" xmlns="http://www.w3.org/2000/svg">
<g id="#ff3664ff">
<path fill="#ff3664" opacity="1.00" d=" M 20.73 43.02 C 20.73 30.79 31.69 19.92 43.93 20.10 C 77.97 20.02 112.02 20.01 146.07 20.08 C 158.34 19.92 169.33 30.77 169.38 43.03 C 169.40 61.03 169.50 79.04 169.33 97.03 C 169.16 103.16 159.45 103.97 158.41 97.87 C 157.89 79.59 158.47 61.26 158.14 42.96 C 157.93 36.33 151.65 30.84 145.06 31.36 C 111.35 31.37 77.64 31.30 43.93 31.39 C 37.26 31.25 31.69 37.43 31.82 43.97 C 31.77 77.65 31.79 111.33 31.82 145.01 C 31.44 151.76 37.07 158.25 43.96 158.10 C 60.51 158.15 77.06 158.18 93.61 158.07 C 88.84 151.98 83.06 146.69 78.85 140.19 C 74.23 132.56 80.40 122.00 88.98 121.15 C 96.80 120.27 102.79 126.44 108.06 131.29 C 108.18 115.84 108.05 100.38 108.12 84.93 C 107.91 78.45 112.61 72.15 119.03 70.86 C 127.01 68.88 135.33 76.00 135.46 84.03 C 135.59 91.62 135.50 99.22 135.47 106.81 C 140.37 106.54 145.18 108.05 148.74 111.50 C 156.81 106.72 168.22 112.65 169.03 121.93 C 169.37 130.28 169.02 138.66 169.16 147.02 C 169.23 158.79 158.61 169.06 146.99 169.37 C 142.03 169.33 137.02 169.75 132.09 169.11 C 127.43 167.72 127.06 160.43 131.61 158.64 C 137.25 157.27 143.20 158.86 148.89 157.74 C 154.15 156.50 158.17 151.43 158.16 146.02 C 158.26 138.33 158.25 130.64 158.17 122.96 C 158.48 119.77 153.07 119.47 152.55 122.40 C 151.84 127.90 152.75 133.49 152.10 139.00 C 151.39 143.80 143.63 144.30 142.15 139.78 C 140.83 132.87 142.50 125.68 141.25 118.75 C 139.80 117.15 136.26 117.04 135.73 119.51 C 135.05 125.98 135.97 132.53 135.29 139.01 C 134.48 144.69 124.72 143.89 125.02 138.06 C 124.82 120.06 125.11 102.03 124.74 84.04 C 125.14 80.20 118.27 80.39 118.75 84.20 C 118.48 104.79 118.81 125.40 118.60 146.00 C 118.92 149.72 114.53 152.82 111.22 150.80 C 103.80 145.27 99.86 135.39 90.95 131.80 C 88.29 130.55 87.18 134.56 88.91 136.11 C 96.14 144.59 104.26 152.48 109.93 162.17 C 111.66 165.41 108.70 169.77 105.04 169.37 C 84.36 169.43 63.69 169.45 43.01 169.36 C 30.92 169.05 20.50 158.06 20.70 145.98 C 20.69 111.66 20.65 77.34 20.73 43.02 Z" />
<path fill="#ff3664" opacity="1.00" d=" M 50.55 48.48 C 56.06 47.84 62.77 46.89 67.39 50.62 C 70.64 55.94 70.52 64.21 65.49 68.48 C 62.24 71.63 59.01 74.81 55.69 77.88 C 60.14 77.95 64.60 77.94 69.05 78.15 C 69.47 80.38 69.51 82.65 69.14 84.89 C 61.13 85.25 53.08 85.33 45.08 84.84 C 42.72 73.10 59.31 69.97 61.61 60.00 C 63.25 52.61 49.63 53.51 51.61 60.87 C 49.33 61.07 47.05 61.14 44.77 61.16 C 43.36 56.36 44.61 49.24 50.55 48.48 Z" />
<path fill="#ff3664" opacity="1.00" d=" M 78.81 48.67 C 84.38 47.69 90.86 47.04 95.90 50.11 C 99.33 54.11 99.05 60.47 97.24 65.14 C 93.70 69.95 88.90 73.67 84.70 77.88 C 89.15 77.95 93.61 77.94 98.06 78.14 C 98.47 80.38 98.51 82.65 98.15 84.90 C 90.14 85.25 82.08 85.33 74.08 84.85 C 71.70 73.10 88.29 69.97 90.60 60.00 C 92.25 52.61 78.62 53.52 80.63 60.88 C 78.35 61.08 76.06 61.14 73.77 61.16 C 72.50 56.62 73.34 49.87 78.81 48.67 Z" />
</g>
</svg>
