<?xml version="1.0" encoding="UTF-8" ?>
<!DOCTYPE svg PUBLIC "-//W3C//DTD SVG 1.1//EN" "http://www.w3.org/Graphics/SVG/1.1/DTD/svg11.dtd">
<svg width="192pt" height="192pt" viewBox="0 0 192 192" version="1.1" xmlns="http://www.w3.org/2000/svg">
<g id="#ff3664ff">
<path fill="#ff3664" opacity="1.00" d=" M 20.72 44.02 C 20.63 31.74 31.67 20.87 43.93 21.05 C 77.97 20.99 112.02 20.99 146.06 21.04 C 158.34 20.86 169.41 31.71 169.35 44.02 C 169.30 62.02 169.58 80.03 169.22 98.01 C 168.55 104.06 158.84 103.92 158.34 97.89 C 157.99 79.93 158.42 61.93 158.15 43.96 C 158.08 37.66 152.38 32.12 146.08 32.24 C 112.03 32.17 77.97 32.18 43.92 32.23 C 37.20 32.08 31.50 38.33 31.80 44.97 C 31.78 78.66 31.74 112.35 31.83 146.04 C 31.76 152.52 37.50 158.32 43.99 158.22 C 60.58 158.33 77.17 158.25 93.76 158.24 C 88.79 152.22 83.06 146.76 78.74 140.24 C 74.09 132.28 81.09 121.52 90.01 121.40 C 97.45 121.23 103.06 126.96 108.10 131.69 C 108.15 116.10 108.05 100.51 108.15 84.93 C 108.15 78.52 113.04 72.56 119.37 71.43 C 127.38 69.72 135.59 76.93 135.45 85.01 C 135.53 92.52 135.50 100.03 135.44 107.54 C 140.39 106.79 145.22 108.53 148.81 111.94 C 156.69 107.15 167.99 112.89 168.96 121.98 C 169.34 130.32 168.95 138.68 169.10 147.03 C 169.31 158.82 158.59 169.06 146.99 169.37 C 142.04 169.38 137.02 169.79 132.10 169.11 C 127.41 167.78 127.07 160.47 131.64 158.73 C 136.67 157.58 141.92 158.70 147.03 158.13 C 153.12 157.75 158.29 152.14 158.18 146.03 C 158.24 138.34 158.27 130.65 158.17 122.96 C 158.18 120.14 153.34 119.82 152.56 122.46 C 151.66 128.19 152.95 134.08 151.88 139.78 C 150.70 144.22 143.43 144.20 142.09 139.87 C 140.87 132.94 142.56 125.76 141.18 118.85 C 139.59 117.84 136.29 117.39 135.73 119.73 C 134.86 126.41 136.23 133.25 135.04 139.88 C 133.71 144.66 125.49 143.99 125.11 138.97 C 124.60 120.14 125.40 101.26 124.54 82.45 C 122.81 81.90 121.02 81.87 119.24 82.22 C 117.69 103.93 119.35 125.85 118.41 147.61 C 117.22 152.88 110.17 152.18 107.93 148.04 C 101.81 142.47 97.59 132.04 88.18 132.18 C 88.28 133.74 87.84 135.61 89.20 136.79 C 96.29 144.73 103.80 152.42 109.50 161.47 C 111.93 164.70 109.05 169.77 105.04 169.39 C 84.36 169.45 63.68 169.50 43.00 169.36 C 30.91 169.06 20.43 158.08 20.70 145.98 C 20.69 111.99 20.67 78.00 20.72 44.02 Z" />
<path fill="#ff3664" opacity="1.00" d=" M 46.99 51.33 C 51.57 49.14 56.59 47.16 61.75 48.24 C 62.02 58.13 61.80 68.02 61.89 77.92 C 64.00 77.97 66.11 77.97 68.22 77.97 C 69.13 80.31 69.06 82.82 68.26 85.18 C 60.92 84.80 53.50 85.72 46.22 84.69 C 45.25 82.66 45.92 80.32 45.94 78.16 C 48.63 78.03 51.31 77.98 54.00 77.97 C 53.99 70.69 54.06 63.40 53.92 56.12 C 51.48 56.12 49.05 56.09 46.62 56.04 C 46.83 54.54 45.65 52.44 46.99 51.33 Z" />
<path fill="#ff3664" opacity="1.00" d=" M 79.27 48.21 C 84.76 48.06 91.69 46.76 95.97 51.03 C 99.13 56.79 97.27 63.73 97.79 70.00 C 97.66 74.83 98.71 82.15 92.94 84.16 C 86.81 85.55 79.63 86.14 73.96 83.01 C 69.49 77.44 71.88 69.59 71.25 63.01 C 70.81 57.13 71.34 48.14 79.27 48.21 M 81.21 55.34 C 78.41 56.10 79.33 59.81 79.07 61.98 C 79.51 66.93 78.11 72.36 79.97 77.02 C 82.96 78.74 90.33 79.25 89.99 74.10 C 90.18 68.75 90.35 63.36 89.85 58.02 C 89.50 53.87 84.03 55.16 81.21 55.34 Z" />
</g>
</svg>
