<?xml version="1.0" encoding="UTF-8" ?>
<!DOCTYPE svg PUBLIC "-//W3C//DTD SVG 1.1//EN" "http://www.w3.org/Graphics/SVG/1.1/DTD/svg11.dtd">
<svg width="192pt" height="192pt" viewBox="0 0 192 192" version="1.1" xmlns="http://www.w3.org/2000/svg">
<g id="#ff3664ff">
<path fill="#ff3664" opacity="1.00" d=" M 20.72 44.03 C 20.62 31.74 31.67 20.86 43.94 21.05 C 77.97 20.99 112.01 20.99 146.04 21.04 C 158.33 20.84 169.42 31.71 169.35 44.03 C 169.30 62.02 169.57 80.03 169.22 98.01 C 168.56 104.05 158.84 103.93 158.34 97.90 C 158.00 79.93 158.41 61.94 158.15 43.97 C 158.09 37.66 152.38 32.12 146.07 32.24 C 112.02 32.17 77.97 32.18 43.92 32.23 C 37.18 32.08 31.49 38.35 31.80 44.99 C 31.78 78.67 31.75 112.35 31.83 146.03 C 31.76 152.51 37.50 158.32 44.00 158.22 C 60.56 158.31 77.12 158.28 93.68 158.21 C 88.80 152.15 83.04 146.76 78.75 140.25 C 74.08 132.28 81.10 121.51 90.02 121.40 C 97.45 121.22 103.01 126.96 108.07 131.62 C 108.19 116.06 108.03 100.49 108.15 84.93 C 108.14 78.53 113.04 72.56 119.36 71.43 C 127.38 69.72 135.59 76.93 135.45 85.02 C 135.53 92.52 135.50 100.04 135.44 107.55 C 140.41 106.77 145.23 108.57 148.86 111.96 C 157.02 106.90 168.78 113.44 169.06 122.94 C 169.21 130.96 169.01 138.99 169.10 147.01 C 169.32 158.82 158.59 169.07 146.98 169.37 C 142.02 169.38 137.00 169.79 132.09 169.11 C 127.40 167.76 127.08 160.47 131.65 158.73 C 136.67 157.58 141.92 158.70 147.02 158.13 C 153.12 157.76 158.31 152.13 158.18 146.01 C 158.22 138.33 158.30 130.63 158.15 122.95 C 158.20 120.11 153.36 119.85 152.57 122.45 C 151.65 128.18 152.95 134.08 151.88 139.79 C 150.58 144.62 142.41 144.02 141.88 139.00 C 141.27 132.73 142.10 126.40 141.49 120.13 C 141.31 117.17 135.45 117.26 135.61 120.40 C 135.02 126.88 136.15 133.48 135.04 139.89 C 133.69 144.66 125.50 143.98 125.11 138.98 C 124.68 120.70 125.23 102.38 124.70 84.11 C 124.67 81.29 121.12 81.76 119.25 82.25 C 117.69 103.95 119.35 125.86 118.41 147.60 C 117.22 152.88 110.16 152.18 107.92 148.03 C 101.81 142.47 97.59 132.04 88.19 132.18 C 88.26 133.75 87.84 135.62 89.19 136.79 C 96.29 144.72 103.79 152.42 109.50 161.46 C 111.94 164.70 109.05 169.78 105.03 169.39 C 84.36 169.45 63.69 169.49 43.03 169.36 C 30.92 169.07 20.43 158.09 20.70 145.98 C 20.69 112.00 20.67 78.01 20.72 44.03 Z" />
<path fill="#ff3664" opacity="1.00" d=" M 70.82 56.82 C 72.73 53.64 77.07 55.41 80.09 55.15 C 80.89 64.29 80.32 73.50 80.42 82.66 C 85.59 81.99 85.03 86.96 84.68 90.58 C 83.27 90.85 81.86 91.12 80.45 91.36 C 80.94 94.70 80.74 99.45 76.00 98.19 C 71.09 99.49 71.09 94.54 71.45 91.12 C 65.36 90.87 59.17 91.70 53.14 90.68 C 51.82 88.32 52.43 85.13 53.89 82.93 C 59.51 74.21 65.15 65.50 70.82 56.82 M 62.89 82.87 C 65.77 82.94 68.65 82.99 71.54 82.97 C 71.51 78.56 71.51 74.14 71.45 69.72 C 68.50 74.04 65.79 78.52 62.89 82.87 Z" />
</g>
</svg>
