<?xml version="1.0" encoding="UTF-8" ?>
<!DOCTYPE svg PUBLIC "-//W3C//DTD SVG 1.1//EN" "http://www.w3.org/Graphics/SVG/1.1/DTD/svg11.dtd">
<svg width="192pt" height="192pt" viewBox="0 0 192 192" version="1.1" xmlns="http://www.w3.org/2000/svg">
<g id="#ff3664ff">
<path fill="#ff3664" opacity="1.00" d=" M 20.74 43.01 C 20.73 30.79 31.68 19.93 43.92 20.10 C 77.97 20.02 112.03 20.01 146.08 20.09 C 158.34 19.93 169.32 30.77 169.37 43.02 C 169.39 61.03 169.53 79.05 169.31 97.06 C 169.15 103.18 159.41 103.95 158.43 97.86 C 157.84 79.59 158.51 61.26 158.13 42.97 C 157.94 36.32 151.66 30.86 145.07 31.36 C 111.36 31.37 77.64 31.29 43.93 31.39 C 37.26 31.26 31.70 37.41 31.83 43.95 C 31.75 77.64 31.79 111.34 31.82 145.03 C 31.45 151.76 37.06 158.24 43.94 158.09 C 60.52 158.18 77.09 158.13 93.67 158.09 C 88.84 152.03 83.08 146.70 78.85 140.19 C 74.22 132.56 80.41 121.98 89.00 121.15 C 96.83 120.29 102.80 126.46 108.08 131.31 C 108.17 115.85 108.05 100.38 108.13 84.92 C 107.93 78.44 112.61 72.14 119.04 70.86 C 127.01 68.89 135.32 75.98 135.45 84.01 C 135.62 91.59 135.49 99.19 135.46 106.77 C 140.34 106.59 145.11 108.06 148.70 111.43 C 156.84 106.83 168.22 112.59 169.01 121.94 C 169.41 129.95 169.00 137.98 169.17 146.00 C 169.67 156.45 161.73 166.22 151.70 168.66 C 145.57 169.94 139.20 169.43 132.98 169.26 C 127.67 168.78 126.67 160.52 131.61 158.65 C 137.25 157.27 143.19 158.86 148.88 157.73 C 154.15 156.52 158.15 151.44 158.15 146.03 C 158.26 138.34 158.30 130.63 158.14 122.94 C 158.49 119.72 153.06 119.50 152.57 122.40 C 151.80 127.89 152.81 133.49 152.06 138.99 C 151.44 143.82 143.59 144.30 142.16 139.78 C 140.81 132.86 142.52 125.67 141.24 118.73 C 139.75 117.21 136.25 116.97 135.75 119.51 C 134.87 126.26 136.31 133.18 135.02 139.88 C 133.37 144.75 124.71 143.44 125.04 138.06 C 124.78 120.06 125.15 102.03 124.73 84.04 C 125.00 80.94 121.44 81.38 119.41 81.34 C 117.56 103.13 119.38 125.16 118.49 147.02 C 118.18 150.69 113.44 152.79 110.57 150.38 C 103.63 144.66 99.58 135.30 90.93 131.80 C 87.79 130.58 87.34 135.14 89.33 136.65 C 96.35 144.67 103.93 152.33 109.54 161.46 C 111.95 164.71 109.07 169.77 105.05 169.36 C 84.37 169.44 63.68 169.45 43.00 169.35 C 30.90 169.05 20.50 158.05 20.71 145.98 C 20.69 111.66 20.64 77.33 20.74 43.01 Z" />
<path fill="#ff3664" opacity="1.00" d=" M 50.05 48.92 C 55.61 47.53 61.99 47.21 67.30 49.69 C 71.42 53.17 70.93 59.78 69.53 64.48 C 66.24 69.76 60.98 73.46 56.68 77.88 C 61.19 77.95 65.70 77.94 70.21 78.17 C 70.34 80.40 70.37 82.64 70.30 84.87 C 62.18 85.26 54.01 85.35 45.89 84.80 C 44.00 76.71 52.50 73.03 56.88 67.88 C 60.52 65.07 65.03 60.22 61.48 55.60 C 57.04 53.79 51.98 55.45 52.47 60.93 C 50.17 61.05 47.87 61.11 45.58 61.17 C 44.97 56.80 44.98 50.60 50.05 48.92 Z" />
<path fill="#ff3664" opacity="1.00" d=" M 75.51 56.07 C 73.94 48.61 85.30 47.54 90.62 48.36 C 91.26 58.19 90.71 68.08 90.89 77.94 C 93.08 77.96 95.27 77.98 97.47 77.98 C 97.86 80.36 97.86 82.78 97.51 85.16 C 90.05 84.86 82.53 85.65 75.11 84.73 C 74.59 82.57 74.78 80.34 74.82 78.15 C 77.55 78.02 80.27 77.98 83.00 77.96 C 82.97 70.68 83.02 63.40 82.93 56.11 C 80.46 56.12 77.99 56.10 75.51 56.07 Z" />
</g>
</svg>
