<?xml version="1.0" encoding="UTF-8" ?>
<!DOCTYPE svg PUBLIC "-//W3C//DTD SVG 1.1//EN" "http://www.w3.org/Graphics/SVG/1.1/DTD/svg11.dtd">
<svg width="192pt" height="192pt" viewBox="0 0 192 192" version="1.1" xmlns="http://www.w3.org/2000/svg">
<g id="#e0bd9bff">
<path fill="#e0bd9b" opacity="1.00" d=" M 139.96 13.39 C 148.31 21.22 150.70 34.42 145.66 44.68 C 143.10 50.06 138.31 53.86 133.51 57.14 C 143.84 60.72 155.40 60.69 165.60 56.62 C 170.78 54.09 176.38 60.00 174.35 65.15 C 170.63 79.90 160.44 96.16 144.05 98.14 C 145.53 104.17 144.94 111.01 148.83 116.20 C 156.25 127.84 155.18 143.92 146.78 154.78 C 134.60 171.31 112.90 178.23 93.02 177.42 C 75.03 176.77 56.08 169.78 45.12 154.89 C 37.02 144.31 35.75 128.97 42.34 117.34 C 46.14 111.54 45.92 104.31 47.54 97.78 C 31.58 94.49 20.46 79.27 17.34 63.97 C 15.97 58.95 21.73 54.34 26.35 56.73 C 37.74 61.11 50.62 60.60 61.81 55.87 C 47.49 47.18 44.64 24.99 57.40 13.71 C 56.99 27.27 65.13 41.03 78.08 45.74 C 90.24 40.81 104.38 40.82 116.13 46.96 C 130.82 42.96 140.63 28.43 139.96 13.39 M 83.87 55.92 C 77.89 58.25 73.19 62.83 67.45 65.58 C 56.17 70.96 43.23 72.22 30.99 69.99 C 35.57 78.88 43.81 88.09 54.85 86.49 C 61.62 87.46 59.86 95.60 58.65 100.26 C 80.95 86.96 110.44 86.84 132.80 100.06 C 132.41 96.25 130.31 91.57 133.27 88.28 C 137.09 84.29 143.14 88.20 147.58 85.59 C 153.77 82.27 157.69 76.07 160.80 69.99 C 149.05 72.26 136.68 70.98 125.64 66.37 C 119.60 63.74 114.98 58.72 108.93 56.11 C 101.07 52.65 91.78 52.52 83.87 55.92 M 86.39 102.50 C 73.15 104.36 59.51 110.56 52.31 122.30 C 46.55 132.01 49.46 144.95 57.61 152.38 C 73.95 167.51 99.52 169.84 119.70 161.69 C 128.58 158.07 136.84 151.67 140.80 142.73 C 144.49 134.23 142.16 123.85 135.68 117.35 C 123.32 104.08 103.79 100.11 86.39 102.50 Z" />
<path fill="#e0bd9b" opacity="1.00" d=" M 70.42 118.63 C 76.79 117.00 83.70 121.60 84.94 127.98 C 86.76 135.17 80.36 142.87 73.01 142.60 C 66.84 142.59 61.19 137.24 61.08 131.03 C 60.68 125.36 64.88 119.82 70.42 118.63 Z" />
<path fill="#e0bd9b" opacity="1.00" d=" M 113.44 118.71 C 120.27 116.67 127.85 122.02 128.58 129.01 C 129.58 135.75 123.77 142.50 116.99 142.61 C 111.30 142.82 105.84 138.57 104.74 132.97 C 103.32 126.90 107.39 120.21 113.44 118.71 Z" />
</g>
</svg>
