<?xml version="1.0" encoding="UTF-8" ?>
<!DOCTYPE svg PUBLIC "-//W3C//DTD SVG 1.1//EN" "http://www.w3.org/Graphics/SVG/1.1/DTD/svg11.dtd">
<svg width="192pt" height="192pt" viewBox="0 0 192 192" version="1.1" xmlns="http://www.w3.org/2000/svg">
<g id="#44e372ff">
<path fill="#44e372" opacity="1.00" d=" M 27.16 45.05 C 26.36 35.47 34.41 26.32 43.99 25.82 C 51.32 25.66 58.66 25.70 65.99 25.79 C 75.03 26.11 82.67 33.96 83.32 42.88 C 83.94 50.19 87.51 56.82 88.45 64.02 C 89.16 71.91 83.51 77.94 78.13 82.84 C 85.81 95.06 96.23 105.73 108.64 113.16 C 113.67 107.19 120.69 101.53 129.06 103.08 C 135.72 104.65 142.12 107.41 149.00 108.10 C 157.64 108.90 165.11 116.33 165.58 125.05 C 165.72 132.35 165.67 139.66 165.61 146.96 C 165.44 156.91 155.94 165.42 146.04 164.48 C 115.23 161.39 85.79 146.93 64.24 124.75 C 43.45 103.33 29.92 74.82 27.16 45.05 M 43.28 37.37 C 40.23 38.36 38.04 41.64 38.46 44.86 C 40.70 66.53 49.10 87.46 62.14 104.88 C 81.88 131.57 113.04 149.41 146.01 153.09 C 150.21 153.89 154.50 150.31 154.30 146.01 C 154.33 139.34 154.42 132.65 154.26 125.98 C 154.16 122.58 151.23 119.76 147.90 119.42 C 141.03 118.52 134.39 116.50 127.82 114.39 C 118.96 113.07 116.65 126.67 108.12 125.90 C 90.30 116.63 75.45 101.61 65.80 84.03 C 63.41 74.87 79.13 72.44 76.87 63.08 C 74.83 56.85 72.93 50.55 72.04 44.03 C 71.83 40.44 68.86 36.99 65.10 37.16 C 57.83 37.24 50.53 36.84 43.28 37.37 Z" />
</g>
</svg>
