<?xml version="1.0" encoding="UTF-8" ?>
<!DOCTYPE svg PUBLIC "-//W3C//DTD SVG 1.1//EN" "http://www.w3.org/Graphics/SVG/1.1/DTD/svg11.dtd">
<svg width="192pt" height="192pt" viewBox="0 0 192 192" version="1.1" xmlns="http://www.w3.org/2000/svg">
<g id="#f6b02bff">
<path fill="#f6b02b" opacity="1.00" d=" M 19.61 66.61 C 30.41 37.52 58.93 16.03 89.95 14.06 C 120.72 11.36 151.96 28.06 167.03 54.97 C 183.33 82.64 180.97 119.84 161.23 145.18 C 147.89 162.88 127.09 174.75 105.03 177.05 C 82.42 179.67 58.94 172.21 41.94 157.10 C 35.49 163.29 29.43 169.91 22.79 175.89 C 17.76 179.37 11.35 171.97 15.55 167.49 C 27.13 155.77 38.84 144.14 50.59 132.58 C 54.56 128.26 62.25 133.49 59.69 138.78 C 57.12 142.77 53.11 145.59 49.97 149.11 C 65.15 162.54 86.36 168.52 106.35 165.52 C 137.84 161.42 164.09 133.61 166.33 101.93 C 169.34 73.17 152.46 43.92 126.26 31.84 C 106.55 22.39 82.38 22.88 63.10 33.20 C 46.53 41.89 33.75 57.44 28.47 75.39 C 23.11 92.83 25.08 112.21 33.40 128.40 C 36.71 134.20 27.46 139.77 23.94 134.12 C 12.69 113.73 11.26 88.30 19.61 66.61 Z" />
<path fill="#f6b02b" opacity="1.00" d=" M 81.68 67.65 C 83.28 65.86 85.86 66.44 87.98 66.24 C 97.17 66.19 106.36 65.54 115.56 65.78 C 108.64 74.70 101.26 83.34 93.72 91.72 C 82.38 91.34 71.04 90.01 59.74 88.86 C 66.85 81.58 74.37 74.72 81.68 67.65 Z" />
<path fill="#f6b02b" opacity="1.00" d=" M 96.84 94.04 C 103.68 84.87 111.47 76.30 118.98 67.63 C 122.34 77.57 125.27 87.65 128.42 97.66 C 129.05 99.06 128.50 100.47 127.66 101.64 C 122.37 110.03 117.25 118.52 111.92 126.89 C 106.67 116.06 101.45 105.15 96.84 94.04 Z" />
<path fill="#f6b02b" opacity="1.00" d=" M 59.07 92.28 C 70.04 93.20 81.01 94.08 91.96 95.19 C 93.87 95.32 94.25 97.59 95.09 98.94 C 99.45 108.74 104.30 118.33 108.39 128.25 C 98.99 126.61 89.69 124.43 80.32 122.64 C 78.15 122.14 75.42 121.97 74.48 119.57 C 69.42 110.44 63.64 101.66 59.07 92.28 Z" />
</g>
</svg>
