<?xml version="1.0" encoding="UTF-8" ?>
<!DOCTYPE svg PUBLIC "-//W3C//DTD SVG 1.1//EN" "http://www.w3.org/Graphics/SVG/1.1/DTD/svg11.dtd">
<svg width="192pt" height="192pt" viewBox="0 0 192 192" version="1.1" xmlns="http://www.w3.org/2000/svg">
<g id="#ff517dff">
<path fill="#ff517d" opacity="1.00" d=" M 42.34 26.44 C 45.81 25.49 49.44 25.67 53.00 25.67 C 83.32 25.69 113.65 25.64 143.97 25.68 C 155.02 25.51 165.20 34.87 165.81 45.92 C 165.92 50.57 166.10 55.26 165.72 59.90 C 164.90 64.86 157.07 65.06 155.74 60.31 C 155.02 55.92 155.75 51.43 155.37 47.01 C 155.14 41.25 149.87 36.15 144.08 36.27 C 112.03 36.23 79.97 36.24 47.92 36.26 C 41.73 36.04 36.25 41.80 36.48 47.94 C 36.45 79.64 36.48 111.35 36.48 143.06 C 36.06 149.40 41.59 155.39 48.00 155.24 C 79.66 155.30 111.33 155.23 143.00 155.25 C 148.27 155.63 153.54 152.02 154.93 146.90 C 156.19 141.60 154.78 136.06 155.78 130.74 C 157.29 126.10 164.70 126.47 165.72 131.24 C 166.12 136.15 165.96 141.11 165.78 146.03 C 164.94 156.87 154.93 165.95 144.06 165.76 C 112.03 165.81 79.98 165.79 47.94 165.75 C 36.31 166.06 25.91 155.66 26.02 144.06 C 26.00 112.03 26.03 80.00 26.03 47.97 C 25.75 38.18 32.87 28.85 42.34 26.44 Z" />
<path fill="#ff517d" opacity="1.00" d=" M 95.32 68.37 C 98.49 67.91 101.49 70.78 101.27 73.97 C 101.26 88.99 101.53 104.04 101.13 119.05 C 100.17 124.36 91.69 124.35 90.82 119.00 C 90.36 104.35 90.77 89.66 90.63 75.00 C 90.23 71.99 92.09 68.63 95.32 68.37 Z" />
<path fill="#ff517d" opacity="1.00" d=" M 137.50 76.96 C 139.84 74.65 142.46 72.68 145.04 70.64 C 151.87 77.60 157.86 85.36 164.39 92.61 C 166.62 94.65 166.13 98.08 164.04 100.02 C 157.67 107.18 151.77 114.77 145.08 121.64 C 142.73 119.41 139.31 117.93 137.84 115.01 C 142.52 108.27 148.73 102.69 153.53 96.03 C 148.48 89.43 142.53 83.58 137.50 76.96 Z" />
<path fill="#ff517d" opacity="1.00" d=" M 118.39 75.40 C 121.02 73.63 124.94 75.04 125.90 78.05 C 128.12 84.00 130.69 89.87 132.34 96.01 C 130.62 102.37 127.94 108.46 125.62 114.62 C 123.86 119.32 116.06 117.98 115.88 112.99 C 116.34 105.36 124.02 98.13 119.59 90.40 C 118.31 85.74 113.14 79.26 118.39 75.40 Z" />
</g>
</svg>
