<?xml version="1.0" encoding="UTF-8" ?>
<!DOCTYPE svg PUBLIC "-//W3C//DTD SVG 1.1//EN" "http://www.w3.org/Graphics/SVG/1.1/DTD/svg11.dtd">
<svg width="192pt" height="192pt" viewBox="0 0 192 192" version="1.1" xmlns="http://www.w3.org/2000/svg">
<g id="#44e372ff">
<path fill="#44e372" opacity="1.00" d=" M 43.78 30.01 C 43.64 23.12 48.65 15.93 55.98 15.80 C 82.66 15.67 109.34 15.72 136.02 15.78 C 143.84 15.81 148.51 23.92 148.29 31.02 C 148.36 67.34 148.35 103.67 148.32 140.00 C 148.61 148.11 141.72 155.04 133.78 155.61 C 138.94 159.36 144.59 162.46 149.47 166.57 C 153.32 170.49 148.02 177.64 143.13 175.06 C 133.39 168.82 124.08 161.87 114.26 155.76 C 104.55 155.11 94.75 155.83 85.00 155.50 C 82.18 155.70 78.98 154.78 76.46 156.43 C 67.58 162.29 58.94 168.53 49.90 174.13 C 45.29 176.53 39.92 170.36 43.13 166.18 C 47.79 162.21 53.25 159.28 58.16 155.64 C 50.62 154.96 44.04 148.72 43.81 141.01 C 43.58 131.68 43.66 122.33 43.76 112.99 C 43.72 108.17 48.07 103.84 52.93 104.06 C 81.07 104.00 109.23 104.07 137.38 104.01 C 137.36 79.67 137.48 55.33 137.33 30.99 C 137.48 28.65 135.01 27.69 133.05 27.84 C 108.68 27.83 84.31 27.79 59.95 27.84 C 57.34 27.59 54.58 29.38 54.64 32.19 C 54.39 51.45 54.85 70.74 54.42 89.99 C 53.24 95.85 43.84 94.98 43.79 89.01 C 43.62 69.35 43.64 49.67 43.78 30.01 M 54.60 115.57 C 54.45 123.66 54.52 131.75 54.53 139.84 C 54.37 142.33 56.44 144.70 58.98 144.62 C 83.34 144.85 107.71 144.57 132.07 144.66 C 134.82 145.03 137.68 142.93 137.46 140.00 C 137.57 131.71 137.50 123.41 137.47 115.12 C 109.86 115.44 82.16 114.53 54.60 115.57 Z" />
<path fill="#44e372" opacity="1.00" d=" M 66.21 35.26 C 85.79 34.74 105.46 35.04 125.06 35.10 C 130.94 35.44 130.95 45.16 125.02 45.42 C 106.01 45.58 86.99 45.48 67.98 45.45 C 62.22 45.93 60.76 36.81 66.21 35.26 Z" />
<path fill="#44e372" opacity="1.00" d=" M 70.32 122.32 C 76.07 121.01 81.48 127.13 79.63 132.70 C 78.26 138.56 69.90 140.54 65.99 136.00 C 61.54 131.71 64.20 123.25 70.32 122.32 Z" />
<path fill="#44e372" opacity="1.00" d=" M 118.36 122.43 C 123.72 120.82 129.40 125.94 128.50 131.42 C 128.02 137.50 119.90 140.83 115.33 136.72 C 110.20 132.89 112.08 123.81 118.36 122.43 Z" />
</g>
</svg>
