<?xml version="1.0" encoding="UTF-8" ?>
<!DOCTYPE svg PUBLIC "-//W3C//DTD SVG 1.1//EN" "http://www.w3.org/Graphics/SVG/1.1/DTD/svg11.dtd">
<svg width="192pt" height="192pt" viewBox="0 0 192 192" version="1.1" xmlns="http://www.w3.org/2000/svg">
<g id="#a394beff">
<path fill="#a394be" opacity="1.00" d=" M 116.50 15.58 C 121.40 11.49 128.71 18.67 124.71 23.65 C 117.67 31.54 109.69 38.59 102.41 46.26 C 119.15 46.48 135.92 45.97 152.64 46.48 C 158.44 47.46 158.47 56.63 152.65 57.54 C 135.85 57.95 119.02 57.53 102.21 57.73 C 109.46 65.82 117.84 72.88 125.08 80.98 C 128.39 86.17 121.11 92.46 116.44 88.61 C 105.93 78.44 95.62 68.05 85.33 57.65 C 82.01 54.68 82.10 49.38 85.39 46.42 C 95.72 36.10 105.91 25.61 116.50 15.58 Z" />
<path fill="#a394be" opacity="1.00" d=" M 65.85 68.08 C 61.69 62.99 69.17 55.61 74.26 59.73 C 84.92 70.07 95.46 80.56 105.85 91.18 C 108.99 94.28 108.46 99.32 105.36 102.25 C 95.22 112.50 85.09 122.80 74.63 132.71 C 69.72 137.47 61.58 130.15 65.81 124.78 C 72.85 116.97 80.70 109.87 88.00 102.27 C 71.35 102.30 54.66 102.56 38.01 102.13 C 32.11 101.12 32.03 91.72 38.01 90.87 C 54.66 90.22 71.37 90.96 88.04 90.43 C 80.85 82.79 72.96 75.80 65.85 68.08 Z" />
<path fill="#a394be" opacity="1.00" d=" M 116.69 103.74 C 121.98 99.67 128.95 107.71 124.43 112.45 C 117.33 119.91 109.74 126.91 102.69 134.41 C 119.11 134.71 135.55 134.18 151.96 134.64 C 158.63 134.95 158.73 145.66 152.05 146.03 C 135.47 146.27 118.87 145.99 102.29 146.22 C 109.69 153.97 117.69 161.15 124.96 169.02 C 128.51 173.98 121.75 180.70 116.73 177.27 C 106.15 167.20 95.95 156.72 85.61 146.39 C 82.03 143.29 81.89 137.63 85.53 134.52 C 95.85 124.19 105.98 113.63 116.69 103.74 Z" />
</g>
</svg>
