<?xml version="1.0" encoding="UTF-8" ?>
<!DOCTYPE svg PUBLIC "-//W3C//DTD SVG 1.1//EN" "http://www.w3.org/Graphics/SVG/1.1/DTD/svg11.dtd">
<svg width="192pt" height="192pt" viewBox="0 0 192 192" version="1.1" xmlns="http://www.w3.org/2000/svg">
<g id="#ff623cff">
<path fill="#ff623c" opacity="1.00" d=" M 39.36 22.54 C 43.16 21.57 47.11 21.72 51.00 21.72 C 83.33 21.78 115.67 21.64 148.00 21.78 C 159.77 21.91 170.36 32.15 170.70 43.94 C 170.71 52.52 170.98 61.12 170.57 69.68 C 169.79 75.18 160.94 75.31 159.82 69.93 C 159.15 61.38 159.90 52.75 159.49 44.18 C 159.15 37.91 153.25 32.82 147.05 32.94 C 113.37 32.95 79.66 32.77 45.97 32.92 C 40.02 32.68 34.06 37.08 33.27 43.11 C 32.65 52.01 33.71 61.01 32.76 69.89 C 31.76 75.21 23.12 75.21 22.09 69.90 C 21.46 61.63 21.94 53.29 21.85 44.99 C 21.81 34.69 29.40 25.04 39.36 22.54 Z" />
<path fill="#ff623c" opacity="1.00" d=" M 137.42 80.68 C 142.26 80.36 148.20 79.37 152.09 82.95 C 155.10 87.68 153.87 93.70 154.14 99.02 C 154.13 103.29 153.74 109.55 148.45 110.43 C 143.31 110.86 136.82 112.15 132.72 108.24 C 129.65 103.08 131.28 96.68 130.80 90.98 C 130.36 86.54 132.21 80.94 137.42 80.68 M 139.10 87.78 C 138.82 93.07 138.52 98.41 139.30 103.68 C 141.41 103.71 143.53 103.72 145.64 103.69 C 146.13 98.30 146.37 92.80 145.42 87.45 C 143.31 87.49 141.20 87.57 139.10 87.78 Z" />
<path fill="#ff623c" opacity="1.00" d=" M 17.35 86.64 C 17.05 84.76 16.35 81.21 19.06 80.89 C 25.00 80.59 31.00 80.62 36.94 80.87 C 40.32 81.18 38.93 85.42 38.64 87.63 C 36.49 87.74 34.34 87.81 32.18 87.87 C 31.66 95.41 33.18 103.20 31.30 110.57 C 29.06 110.09 25.22 111.64 24.29 108.79 C 23.87 101.84 24.27 94.86 24.12 87.89 C 21.92 87.51 18.94 88.63 17.35 86.64 Z" />
<path fill="#ff623c" opacity="1.00" d=" M 40.27 81.23 C 46.73 80.95 55.07 78.83 60.23 83.77 C 62.58 89.26 63.04 97.20 58.10 101.48 C 59.32 104.41 64.10 110.72 57.98 110.58 C 52.90 111.74 52.12 105.87 50.33 102.54 C 49.82 102.37 48.78 102.03 48.26 101.87 C 48.26 104.76 48.12 107.68 47.32 110.48 C 44.90 110.15 40.18 111.80 40.05 108.05 C 40.19 99.11 39.51 90.14 40.27 81.23 M 48.16 87.67 C 48.14 90.11 48.11 92.55 48.08 94.99 C 53.26 96.50 54.66 92.65 53.62 88.27 C 51.80 88.05 49.99 87.84 48.16 87.67 Z" />
<path fill="#ff623c" opacity="1.00" d=" M 63.38 83.17 C 63.20 81.67 64.58 80.69 65.98 80.80 C 70.95 80.71 75.97 80.50 80.93 80.93 C 83.47 81.94 82.15 85.24 82.44 87.30 C 78.80 88.06 75.07 87.84 71.37 87.81 C 71.34 89.17 71.31 90.52 71.28 91.88 C 74.76 92.26 81.85 90.27 81.14 95.99 C 81.11 101.07 74.49 98.78 71.22 99.25 C 71.31 100.65 71.40 102.05 71.50 103.44 C 74.78 103.43 78.10 103.11 81.36 103.64 C 83.33 105.00 83.35 108.98 81.40 110.37 C 76.07 110.73 70.70 110.58 65.37 110.43 C 63.09 110.38 63.29 107.65 63.26 106.04 C 63.37 98.42 63.10 90.79 63.38 83.17 Z" />
<path fill="#ff623c" opacity="1.00" d=" M 83.97 82.13 C 85.76 79.81 90.85 79.95 92.02 83.00 C 94.05 86.64 95.81 90.43 97.70 94.14 C 97.80 90.14 97.49 86.11 97.97 82.13 C 99.60 79.63 103.19 80.92 105.58 81.40 C 105.68 91.06 106.22 100.80 105.29 110.42 C 96.60 113.10 95.51 102.71 91.83 97.45 C 91.70 101.77 92.15 106.15 91.27 110.42 C 88.85 110.13 85.37 111.62 83.85 109.06 C 83.83 100.10 83.52 91.08 83.97 82.13 Z" />
<path fill="#ff623c" opacity="1.00" d=" M 106.63 82.98 C 106.85 79.72 111.54 80.47 113.67 81.26 C 116.05 84.36 117.19 88.21 119.00 91.66 C 120.87 88.23 122.05 84.42 124.34 81.24 C 126.44 80.50 131.28 79.69 131.35 83.00 C 129.21 88.96 125.69 94.33 123.36 100.21 C 122.84 103.62 123.51 107.18 122.34 110.51 C 119.59 110.45 114.32 111.54 115.05 107.09 C 116.30 98.03 109.29 91.09 106.63 82.98 Z" />
<path fill="#ff623c" opacity="1.00" d=" M 155.83 83.94 C 155.33 79.82 161.04 80.08 163.43 81.59 C 164.33 88.78 163.54 96.10 163.82 103.34 C 167.26 103.49 170.80 102.97 174.17 103.81 C 175.93 105.62 174.94 108.31 174.47 110.44 C 168.81 110.50 163.13 110.81 157.48 110.35 C 155.93 110.25 155.74 108.26 155.76 107.06 C 155.72 99.35 155.65 91.64 155.83 83.94 Z" />
<path fill="#ff623c" opacity="1.00" d=" M 24.42 119.40 C 27.81 116.98 33.08 119.80 32.98 123.97 C 33.43 132.31 32.81 140.68 33.24 149.02 C 33.85 155.17 39.86 159.91 45.95 159.58 C 79.65 159.58 113.36 159.62 147.06 159.55 C 153.11 159.72 158.81 154.86 159.42 148.80 C 160.04 139.93 158.96 130.97 159.94 122.14 C 161.46 116.89 170.14 117.69 170.62 123.14 C 170.94 131.43 170.72 139.75 170.73 148.06 C 170.65 160.02 160.04 170.67 148.06 170.70 C 113.68 170.75 79.30 170.72 44.93 170.70 C 33.17 170.88 22.57 160.73 21.93 149.05 C 21.64 141.71 21.92 134.35 21.79 127.00 C 21.74 124.30 21.71 120.91 24.42 119.40 Z" />
</g>
</svg>
