<?xml version="1.0" encoding="UTF-8" ?>
<!DOCTYPE svg PUBLIC "-//W3C//DTD SVG 1.1//EN" "http://www.w3.org/Graphics/SVG/1.1/DTD/svg11.dtd">
<svg width="192pt" height="192pt" viewBox="0 0 192 192" version="1.1" xmlns="http://www.w3.org/2000/svg">
<g id="#5f6f81ff">
<path fill="#5f6f81" opacity="1.00" d=" M 72.98 34.99 C 77.16 32.63 81.17 29.22 86.00 28.48 C 91.08 29.93 94.90 34.03 99.37 36.70 C 106.54 30.59 113.54 38.19 119.83 41.61 C 127.02 36.16 135.92 32.57 145.00 32.69 C 150.10 33.73 150.49 42.32 144.88 42.90 C 136.25 44.43 126.87 46.94 121.51 54.47 C 117.43 59.63 117.45 66.41 117.44 72.64 C 116.81 77.97 108.11 78.07 107.36 72.73 C 106.75 64.71 108.84 56.62 112.68 49.59 C 110.36 48.20 108.06 46.77 105.78 45.30 C 101.41 47.90 96.70 50.16 92.79 53.41 C 91.82 60.83 87.62 67.18 82.59 72.53 C 72.46 84.47 57.77 92.76 42.03 93.87 C 38.80 93.87 35.76 95.00 33.37 97.18 C 46.57 97.99 59.78 96.19 72.99 96.38 C 80.60 96.75 86.62 102.14 90.83 108.07 C 95.28 105.41 99.84 102.94 104.28 100.27 C 108.39 97.73 108.29 92.39 108.25 88.15 C 103.28 88.02 98.99 90.53 94.82 92.89 C 90.28 95.35 85.32 88.43 88.92 84.83 C 95.42 79.98 103.71 76.25 111.98 77.99 C 114.96 78.52 118.20 80.45 118.38 83.79 C 119.72 92.52 118.58 103.31 110.67 108.71 C 104.43 112.54 98.06 116.18 91.65 119.72 C 87.92 122.28 84.40 119.00 82.77 115.75 C 81.28 117.25 79.79 118.74 78.29 120.24 C 88.61 134.31 81.32 156.53 64.62 161.61 C 47.75 168.10 26.99 153.28 28.72 135.01 C 29.05 119.77 44.17 105.29 59.71 110.28 C 64.36 111.00 64.48 115.82 64.48 119.54 C 68.08 115.34 72.25 111.67 75.71 107.34 C 61.11 106.65 46.52 108.28 31.94 108.33 C 28.20 108.34 26.49 104.62 24.83 101.90 C 20.79 103.66 17.33 107.02 12.90 107.71 C 7.51 108.11 5.68 99.76 10.72 97.75 C 19.35 93.10 27.46 87.11 36.58 83.59 C 55.12 84.00 72.72 72.34 81.14 56.14 C 81.48 50.45 83.72 45.07 89.15 42.50 C 84.00 36.35 78.88 47.29 72.95 44.15 C 69.54 42.23 69.43 36.83 72.98 34.99 M 45.53 122.54 C 38.12 127.99 36.88 139.29 42.65 146.36 C 48.72 154.73 62.31 154.52 68.80 146.78 C 73.37 141.67 73.63 134.05 70.88 128.00 C 65.86 132.43 62.04 138.35 56.04 141.56 C 52.47 140.78 48.92 137.04 51.28 133.35 C 55.09 128.32 60.03 124.25 64.18 119.50 C 58.22 122.46 50.78 117.60 45.53 122.54 Z" />
<path fill="#5f6f81" opacity="1.00" d=" M 135.99 59.22 C 146.31 48.03 165.41 48.31 175.80 59.20 C 186.34 69.67 185.24 88.53 174.32 98.32 C 164.00 108.35 145.86 107.07 136.15 96.83 C 131.41 91.44 128.71 83.69 130.71 76.62 C 132.77 71.53 141.17 73.60 140.47 79.14 C 139.88 86.61 145.07 94.46 152.91 94.99 C 164.79 96.97 176.50 84.72 172.08 73.00 C 169.00 61.67 154.02 57.51 145.17 64.93 C 149.94 68.52 155.60 70.86 160.07 74.83 C 163.91 78.89 158.02 85.78 153.40 82.53 C 143.84 76.91 134.47 70.89 125.28 64.68 C 121.26 62.18 123.67 55.75 128.00 55.39 C 131.09 55.39 133.49 57.71 135.99 59.22 Z" />
</g>
</svg>
