<?xml version="1.0" encoding="UTF-8" ?>
<!DOCTYPE svg PUBLIC "-//W3C//DTD SVG 1.1//EN" "http://www.w3.org/Graphics/SVG/1.1/DTD/svg11.dtd">
<svg width="192pt" height="192pt" viewBox="0 0 192 192" version="1.1" xmlns="http://www.w3.org/2000/svg">
<g id="#96644cff">
<path fill="#96644c" opacity="1.00" d=" M 85.34 22.41 C 95.35 21.19 105.81 21.46 115.43 24.68 C 120.85 27.16 117.89 36.47 112.00 35.11 C 100.86 32.40 89.09 32.45 77.99 35.34 C 72.74 36.52 69.38 28.74 73.58 25.54 C 77.08 23.40 81.39 23.20 85.34 22.41 Z" />
<path fill="#96644c" opacity="1.00" d=" M 38.35 24.50 C 45.80 22.48 54.17 27.58 55.83 35.10 C 57.84 42.21 53.30 50.32 46.19 52.32 C 38.07 55.44 28.44 49.10 27.47 40.61 C 26.29 33.48 31.31 26.07 38.35 24.50 Z" />
<path fill="#96644c" opacity="1.00" d=" M 143.35 24.50 C 150.54 22.48 158.68 27.12 160.74 34.27 C 163.26 41.59 158.66 50.32 151.21 52.40 C 143.59 55.19 134.53 49.83 132.83 42.00 C 130.77 34.56 135.84 26.20 143.35 24.50 Z" />
<path fill="#96644c" opacity="1.00" d=" M 31.44 62.53 C 36.01 60.71 40.85 66.08 38.37 70.44 C 31.33 86.87 31.66 106.32 39.62 122.37 C 47.64 138.95 63.41 151.47 81.37 155.55 C 108.73 162.49 139.35 147.81 151.25 122.28 C 159.36 106.01 159.50 86.31 152.25 69.70 C 149.25 63.92 158.39 58.82 161.84 64.13 C 172.58 85.71 170.83 112.78 158.24 133.24 C 144.25 156.78 116.30 170.95 89.03 168.26 C 66.84 166.47 45.85 153.93 33.86 135.17 C 20.46 114.79 18.28 87.57 28.38 65.36 C 28.98 64.06 30.08 63.00 31.44 62.53 Z" />
<path fill="#96644c" opacity="1.00" d=" M 55.36 73.49 C 66.37 70.29 76.84 83.34 71.34 93.38 C 67.12 103.32 51.62 103.92 46.56 94.40 C 41.56 86.72 46.41 75.30 55.36 73.49 Z" />
<path fill="#96644c" opacity="1.00" d=" M 130.29 73.33 C 138.49 71.53 147.14 78.59 146.90 87.00 C 147.42 95.31 139.14 102.60 130.98 101.20 C 124.46 100.41 119.02 94.61 118.78 88.02 C 118.20 81.13 123.46 74.42 130.29 73.33 Z" />
</g>
</svg>
