<?xml version="1.0" encoding="UTF-8" ?>
<!DOCTYPE svg PUBLIC "-//W3C//DTD SVG 1.1//EN" "http://www.w3.org/Graphics/SVG/1.1/DTD/svg11.dtd">
<svg width="192pt" height="192pt" viewBox="0 0 192 192" version="1.1" xmlns="http://www.w3.org/2000/svg">
<g id="#717678ff">
<path fill="#717678" opacity="1.00" d=" M 48.29 53.22 C 76.36 38.57 111.54 38.31 140.06 51.88 C 147.42 57.03 156.71 53.94 165.03 54.85 C 173.12 54.82 179.74 63.86 176.62 71.50 C 175.66 75.26 170.70 78.50 173.59 82.52 C 181.96 99.96 177.41 122.24 163.46 135.46 C 150.06 148.50 128.61 152.40 111.59 144.49 C 108.99 143.68 105.90 140.83 103.45 143.43 C 98.21 147.98 90.77 146.05 85.98 141.88 C 70.93 150.41 51.38 150.82 36.61 141.45 C 19.00 131.12 10.33 108.38 15.85 88.87 C 16.84 85.40 19.57 82.15 18.58 78.36 C 17.50 74.84 14.71 71.88 14.74 68.03 C 14.24 61.29 20.33 55.24 26.97 55.21 C 34.07 54.51 41.71 56.78 48.29 53.22 M 50.60 65.60 C 43.15 68.98 34.78 66.82 26.90 67.34 C 28.48 72.86 35.38 78.39 31.21 84.22 C 21.18 99.87 27.53 123.35 44.06 131.83 C 53.59 136.80 65.50 138.22 75.41 133.45 C 80.59 131.31 84.39 127.15 88.68 123.75 C 91.06 127.12 93.35 130.55 95.58 134.02 C 98.65 130.99 100.54 127.05 103.15 123.65 C 112.37 133.66 126.66 139.40 140.09 135.11 C 157.50 130.78 169.16 111.57 164.73 94.13 C 164.02 88.99 160.39 84.90 159.20 80.01 C 160.23 75.38 163.36 71.51 165.21 67.16 C 155.60 66.30 144.79 69.70 136.37 63.62 C 109.84 50.28 76.50 51.06 50.60 65.60 Z" />
<path fill="#717678" opacity="1.00" d=" M 65.01 66.39 C 84.87 58.11 108.15 58.43 128.05 66.47 C 112.75 68.65 99.62 80.17 96.48 95.47 C 94.12 89.25 91.99 82.68 87.17 77.85 C 81.50 71.39 73.20 68.20 65.01 66.39 Z" />
<path fill="#717678" opacity="1.00" d=" M 56.34 74.41 C 72.17 70.99 88.97 83.72 89.38 100.03 C 90.50 115.16 77.21 129.40 62.01 129.21 C 48.08 129.52 34.90 118.18 34.11 104.09 C 32.51 90.39 42.61 76.52 56.34 74.41 M 57.35 84.46 C 49.92 86.11 43.76 93.21 44.07 100.98 C 43.50 110.64 52.75 119.31 62.32 118.51 C 72.17 117.97 80.48 107.85 78.15 98.03 C 76.63 88.65 66.54 82.21 57.35 84.46 Z" />
<path fill="#717678" opacity="1.00" d=" M 126.38 74.46 C 136.55 72.61 147.50 77.02 153.51 85.45 C 160.36 94.71 160.51 108.33 153.72 117.67 C 146.62 127.82 132.27 132.11 120.81 127.31 C 108.59 122.73 101.05 108.65 103.93 95.93 C 106.10 85.07 115.47 76.20 126.38 74.46 M 127.30 84.36 C 115.46 86.57 109.43 102.36 117.27 111.72 C 124.89 122.56 144.17 119.52 147.49 106.46 C 152.04 94.27 139.68 81.35 127.30 84.36 Z" />
<path fill="#717678" opacity="1.00" d=" M 58.31 90.41 C 66.43 87.72 74.86 96.82 71.82 104.75 C 69.59 112.21 59.12 115.20 53.62 109.41 C 47.32 103.87 50.03 92.28 58.31 90.41 Z" />
<path fill="#717678" opacity="1.00" d=" M 128.26 90.34 C 134.56 88.51 141.57 93.51 142.17 99.97 C 143.05 105.99 138.03 111.97 132.02 112.46 C 126.04 113.10 120.18 108.04 119.92 102.04 C 119.44 96.81 123.17 91.61 128.26 90.34 Z" />
</g>
</svg>
