<?xml version="1.0" encoding="UTF-8" ?>
<!DOCTYPE svg PUBLIC "-//W3C//DTD SVG 1.1//EN" "http://www.w3.org/Graphics/SVG/1.1/DTD/svg11.dtd">
<svg width="192pt" height="192pt" viewBox="0 0 192 192" version="1.1" xmlns="http://www.w3.org/2000/svg">
<g id="#7e656cff">
<path fill="#7e656c" opacity="1.00" d=" M 80.31 15.36 C 83.24 14.87 87.06 13.95 89.13 16.77 C 92.24 20.23 89.56 26.13 84.95 26.23 C 73.53 27.99 62.81 32.82 53.45 39.51 C 48.18 43.07 41.84 34.84 46.59 30.64 C 56.32 22.86 68.14 17.84 80.31 15.36 Z" />
<path fill="#7e656c" opacity="1.00" d=" M 104.38 15.43 C 106.37 14.30 108.77 15.02 110.90 15.26 C 123.11 17.63 134.93 22.58 144.80 30.19 C 148.05 32.56 147.39 38.13 143.71 39.73 C 140.78 41.29 137.80 39.32 135.48 37.62 C 126.80 31.42 116.55 27.82 106.11 25.98 C 100.98 25.38 99.84 17.69 104.38 15.43 Z" />
<path fill="#7e656c" opacity="1.00" d=" M 32.30 45.30 C 37.13 42.52 42.96 49.01 39.58 53.46 C 32.55 63.04 28.08 74.27 26.16 85.98 C 24.82 92.52 14.19 90.60 15.17 84.00 C 17.28 70.03 22.53 55.67 32.30 45.30 Z" />
<path fill="#7e656c" opacity="1.00" d=" M 154.35 45.35 C 156.86 44.04 160.20 44.85 161.75 47.25 C 169.69 57.99 175.06 70.74 176.77 84.01 C 177.47 88.29 172.18 91.83 168.51 89.48 C 165.68 88.13 165.45 84.72 164.89 82.03 C 163.09 71.97 158.69 62.52 152.81 54.20 C 150.47 51.54 151.10 46.96 154.35 45.35 Z" />
<path fill="#7e656c" opacity="1.00" d=" M 95.33 47.38 C 102.63 48.40 104.21 58.43 110.97 61.02 C 122.97 66.05 131.85 77.76 133.39 90.68 C 135.21 104.33 128.97 118.77 117.42 126.38 C 106.11 134.30 90.47 135.33 78.35 128.62 C 67.03 122.78 59.27 110.79 58.47 98.09 C 57.20 82.88 66.37 67.47 80.36 61.34 C 86.90 58.51 88.94 50.17 95.33 47.38 M 82.24 77.27 C 77.74 79.84 80.25 86.70 79.88 91.05 C 80.15 96.00 88.11 94.91 87.26 90.05 C 87.02 85.75 89.43 76.10 82.24 77.27 M 107.25 77.25 C 102.68 79.34 105.25 86.00 104.66 90.04 C 103.83 95.53 112.96 95.64 112.14 90.07 C 111.89 85.81 114.32 76.24 107.25 77.25 M 78.26 101.24 C 76.19 101.52 74.95 104.09 75.80 105.96 C 78.40 114.14 86.41 120.26 95.02 120.50 C 104.54 121.07 114.08 114.29 116.33 104.97 C 116.63 101.80 113.07 100.27 110.49 101.50 C 108.21 104.55 107.23 108.73 103.65 110.69 C 97.59 115.08 88.09 113.15 84.41 106.59 C 82.94 104.20 81.96 100.09 78.26 101.24 Z" />
<path fill="#7e656c" opacity="1.00" d=" M 19.33 101.35 C 23.13 100.18 26.47 103.66 26.63 107.30 C 28.36 118.57 33.31 129.05 39.85 138.30 C 43.29 143.62 35.12 149.67 31.00 144.97 C 22.50 134.38 17.26 121.26 15.24 107.88 C 14.61 105.04 16.52 102.02 19.33 101.35 Z" />
<path fill="#7e656c" opacity="1.00" d=" M 169.35 101.40 C 173.15 99.97 177.52 103.69 176.72 107.67 C 174.78 121.13 169.45 134.29 160.95 144.95 C 156.83 149.72 148.70 143.48 152.09 138.26 C 158.00 129.68 162.90 120.21 164.78 109.87 C 165.39 106.72 165.69 102.52 169.35 101.40 Z" />
<path fill="#7e656c" opacity="1.00" d=" M 49.26 151.18 C 52.19 150.25 54.60 152.65 56.90 154.05 C 65.72 160.25 76.13 163.62 86.65 165.51 C 92.41 167.06 91.10 176.69 85.05 176.48 C 71.50 175.07 58.47 169.48 47.54 161.42 C 43.48 158.95 44.64 152.19 49.26 151.18 Z" />
<path fill="#7e656c" opacity="1.00" d=" M 139.30 151.36 C 144.79 148.83 149.84 157.30 144.99 160.95 C 134.02 169.34 120.70 174.94 106.95 176.47 C 100.40 176.75 99.60 165.99 106.11 165.29 C 118.19 163.54 129.34 158.23 139.30 151.36 Z" />
</g>
</svg>
