<?xml version="1.0" encoding="UTF-8" ?>
<!DOCTYPE svg PUBLIC "-//W3C//DTD SVG 1.1//EN" "http://www.w3.org/Graphics/SVG/1.1/DTD/svg11.dtd">
<svg width="192pt" height="192pt" viewBox="0 0 192 192" version="1.1" xmlns="http://www.w3.org/2000/svg">
<g id="#81717eff">
<path fill="#81717e" opacity="1.00" d=" M 84.35 12.43 C 119.58 7.19 156.79 28.02 170.25 61.04 C 172.38 67.51 161.78 70.65 159.68 64.37 C 148.58 40.03 122.96 22.69 95.99 23.13 C 68.72 22.13 42.18 39.16 30.90 63.87 C 29.65 68.31 23.06 69.32 20.72 65.32 C 18.51 61.81 21.31 58.08 22.84 54.92 C 35.03 32.02 58.57 15.64 84.35 12.43 Z" />
<path fill="#81717e" opacity="1.00" d=" M 55.03 71.19 C 57.40 71.12 59.77 71.10 62.14 71.15 C 62.31 73.25 62.44 75.35 62.54 77.46 C 60.06 77.49 57.13 78.58 54.96 76.96 C 54.74 75.04 54.91 73.11 55.03 71.19 Z" />
<path fill="#81717e" opacity="1.00" d=" M 17.29 74.23 C 19.62 74.07 21.96 73.98 24.30 73.91 C 24.47 76.03 24.63 78.15 24.79 80.26 C 26.89 80.40 28.98 80.66 31.08 80.85 C 30.97 82.77 30.88 84.69 30.81 86.62 C 28.78 86.68 26.75 86.72 24.71 86.74 C 24.69 92.44 24.63 98.15 24.80 103.85 C 26.82 104.01 28.84 104.21 30.86 104.39 C 30.90 106.17 31.29 108.02 30.73 109.77 C 26.50 110.53 19.23 112.00 17.48 106.67 C 16.43 100.21 17.31 93.60 16.85 87.09 C 12.97 87.14 12.56 84.15 13.02 80.93 C 14.31 80.76 15.59 80.58 16.87 80.39 C 16.99 78.33 17.11 76.28 17.29 74.23 Z" />
<path fill="#81717e" opacity="1.00" d=" M 54.90 80.70 C 57.36 80.51 59.83 80.50 62.30 80.65 C 62.56 90.08 62.68 99.54 62.33 108.97 C 60.67 111.23 57.41 109.72 55.06 109.86 C 54.50 100.16 54.79 90.42 54.90 80.70 Z" />
<path fill="#81717e" opacity="1.00" d=" M 95.98 90.17 C 93.64 78.30 111.69 77.25 117.57 83.53 C 120.11 91.90 118.23 101.05 118.66 109.72 C 116.07 110.22 113.48 110.39 111.21 108.87 C 106.69 111.00 100.07 111.58 96.50 107.47 C 94.54 103.69 94.37 98.42 96.92 94.88 C 100.71 91.35 106.39 92.77 111.08 92.51 C 112.16 87.74 109.24 84.91 104.51 86.23 C 103.99 87.59 103.47 88.94 102.96 90.30 C 100.64 90.29 98.31 90.25 95.98 90.17 M 103.10 104.04 C 107.93 105.74 112.61 103.79 111.02 98.08 C 106.37 97.51 101.43 98.10 103.10 104.04 Z" />
<path fill="#81717e" opacity="1.00" d=" M 125.24 82.26 C 131.80 77.48 139.87 82.76 147.13 80.65 C 147.57 90.75 147.30 100.88 147.34 110.99 C 148.72 123.90 122.82 123.86 124.03 111.08 C 126.29 110.89 128.56 110.76 130.82 110.68 C 131.70 114.87 135.81 114.68 139.21 114.20 C 139.44 111.90 139.62 109.60 139.84 107.31 C 134.38 110.57 123.74 110.05 123.21 102.06 C 123.32 95.57 121.33 87.93 125.24 82.26 M 133.34 86.42 C 128.51 87.99 131.27 95.09 130.68 99.02 C 130.15 103.60 136.18 103.52 138.97 101.94 C 140.20 97.58 139.81 92.87 139.36 88.42 C 138.78 85.73 135.38 86.33 133.34 86.42 Z" />
<path fill="#81717e" opacity="1.00" d=" M 159.31 80.35 C 164.78 80.01 173.45 79.01 175.32 85.83 C 176.42 92.40 176.69 99.41 174.96 105.89 C 171.68 112.06 163.00 110.61 157.25 109.80 C 149.91 107.84 151.77 98.73 151.51 93.00 C 150.88 87.62 152.60 80.30 159.31 80.35 M 161.40 86.51 C 158.53 87.14 159.51 90.85 159.21 92.99 C 159.48 96.51 158.47 100.43 160.23 103.66 C 162.61 104.09 166.24 105.16 167.81 102.73 C 168.48 97.65 168.69 92.32 167.58 87.30 C 165.83 85.95 163.44 86.28 161.40 86.51 Z" />
<path fill="#81717e" opacity="1.00" d=" M 34.68 80.62 C 37.35 80.36 40.07 80.48 42.44 81.89 C 45.37 80.97 48.41 80.43 51.49 80.54 C 51.53 82.75 51.52 84.96 51.48 87.16 C 48.38 87.17 45.27 87.17 42.17 87.15 C 42.08 94.41 42.47 101.68 42.03 108.93 C 40.54 110.99 36.04 110.70 34.71 108.88 C 34.21 99.49 34.44 90.03 34.68 80.62 Z" />
<path fill="#81717e" opacity="1.00" d=" M 65.80 80.73 C 68.06 80.78 70.63 79.95 72.71 81.11 C 75.32 87.08 76.47 93.58 78.73 99.70 C 81.19 93.45 82.60 86.87 84.92 80.57 C 87.37 80.56 89.82 80.60 92.27 80.71 C 90.11 89.63 86.74 98.21 84.08 106.99 C 83.38 111.61 74.75 111.56 74.01 106.97 C 71.31 98.22 68.01 89.63 65.80 80.73 Z" />
<path fill="#81717e" opacity="1.00" d=" M 23.22 120.13 C 27.56 118.06 30.87 122.31 32.19 125.92 C 46.04 154.09 80.13 170.03 110.65 162.57 C 131.04 158.11 149.12 144.10 158.36 125.36 C 159.58 122.96 160.90 119.90 164.01 119.69 C 168.22 118.94 171.91 123.95 169.73 127.71 C 159.28 151.17 137.00 168.77 111.86 173.86 C 75.29 182.17 34.72 161.49 20.30 126.85 C 19.36 124.27 20.71 121.21 23.22 120.13 Z" />
</g>
</svg>
