<?xml version="1.0" encoding="UTF-8" ?>
<!DOCTYPE svg PUBLIC "-//W3C//DTD SVG 1.1//EN" "http://www.w3.org/Graphics/SVG/1.1/DTD/svg11.dtd">
<svg width="192pt" height="192pt" viewBox="0 0 192 192" version="1.1" xmlns="http://www.w3.org/2000/svg">
<g id="#ff3660ff">
<path fill="#ff3660" opacity="1.00" d=" M 54.39 22.46 C 68.16 20.45 81.94 25.29 93.45 32.60 C 96.23 34.93 98.89 31.59 101.44 30.49 C 117.06 21.19 138.13 18.63 153.79 29.23 C 167.40 38.04 174.69 54.23 175.68 70.05 C 177.05 89.74 169.63 109.24 157.73 124.70 C 142.96 143.96 121.94 157.62 99.64 166.62 C 94.41 169.12 89.16 165.55 84.37 163.66 C 58.59 152.15 34.65 133.49 22.53 107.40 C 13.64 88.57 11.95 65.51 21.54 46.60 C 27.82 33.94 40.26 24.33 54.39 22.46 M 55.46 33.73 C 41.57 35.70 31.15 47.82 28.08 61.03 C 22.38 83.06 31.37 106.43 46.12 122.90 C 58.80 137.29 75.42 147.66 92.97 155.08 C 94.11 155.44 95.38 156.32 96.58 155.67 C 117.43 147.00 137.16 133.99 150.48 115.46 C 160.68 101.33 166.60 83.45 163.85 65.98 C 161.97 53.05 154.12 40.17 141.41 35.57 C 128.81 30.83 114.96 35.21 104.04 42.07 C 99.48 45.34 93.05 45.88 88.30 42.69 C 78.60 36.55 67.15 31.82 55.46 33.73 Z" />
</g>
</svg>
