<?xml version="1.0" encoding="UTF-8" ?>
<!DOCTYPE svg PUBLIC "-//W3C//DTD SVG 1.1//EN" "http://www.w3.org/Graphics/SVG/1.1/DTD/svg11.dtd">
<svg width="192pt" height="192pt" viewBox="0 0 192 192" version="1.1" xmlns="http://www.w3.org/2000/svg">
<g id="#ee7e36ff">
<path fill="#ee7e36" opacity="1.00" d=" M 12.50 48.62 C 10.66 43.43 14.04 36.67 19.97 36.77 C 33.27 36.94 46.64 36.25 59.89 37.13 C 70.10 39.79 69.73 52.27 72.71 60.39 C 86.71 61.66 101.19 58.83 114.88 62.12 C 116.43 56.09 118.83 48.22 126.15 47.46 C 140.09 47.19 154.06 47.20 168.02 47.31 C 173.63 47.15 177.21 53.38 175.43 58.42 C 170.67 75.14 165.50 91.77 160.33 108.38 C 158.53 114.44 148.70 112.27 149.51 106.01 C 153.85 90.13 159.21 74.51 163.62 58.63 C 151.70 58.61 139.78 58.59 127.87 58.66 C 119.51 85.10 111.60 111.69 103.33 138.16 C 115.18 138.09 127.05 138.35 138.90 138.03 C 142.01 133.78 141.32 127.15 145.01 123.05 C 148.55 119.71 155.01 123.20 154.17 127.99 C 152.88 133.19 151.35 138.39 149.32 143.36 C 147.06 148.43 141.06 149.87 135.99 149.57 C 121.30 149.23 106.59 149.98 91.93 149.10 C 86.02 148.79 82.26 143.38 80.53 138.25 C 68.34 138.23 56.16 138.40 43.98 138.23 C 38.60 138.18 34.43 133.67 33.39 128.64 C 26.43 101.97 19.38 75.31 12.50 48.62 M 23.97 48.12 C 30.78 73.84 37.02 99.75 44.45 125.28 C 49.75 107.75 55.37 90.33 60.92 72.88 C 65.00 64.69 59.10 56.32 57.62 48.19 C 46.41 48.05 35.19 48.18 23.97 48.12 M 74.87 72.16 C 80.25 93.30 85.29 114.54 91.59 135.43 C 97.12 119.43 101.81 103.14 106.97 87.01 C 108.29 82.18 110.97 77.19 109.04 72.13 C 97.65 72.14 86.26 72.08 74.87 72.16 M 55.96 127.14 C 62.94 127.14 69.93 127.13 76.91 127.11 C 73.79 114.94 70.74 102.75 67.52 90.61 C 63.18 102.61 59.62 114.91 55.96 127.14 Z" />
</g>
</svg>
