<?xml version="1.0" encoding="UTF-8" ?>
<!DOCTYPE svg PUBLIC "-//W3C//DTD SVG 1.1//EN" "http://www.w3.org/Graphics/SVG/1.1/DTD/svg11.dtd">
<svg width="192pt" height="192pt" viewBox="0 0 192 192" version="1.1" xmlns="http://www.w3.org/2000/svg">
<g id="#19b0ffff">
<path fill="#19b0ff" opacity="1.00" d=" M 84.42 14.53 C 116.10 9.59 149.57 25.51 165.93 53.04 C 178.44 73.30 181.28 99.11 173.66 121.65 C 164.32 150.38 137.87 172.61 107.90 176.67 C 77.06 181.60 44.31 166.85 27.48 140.56 C 9.34 113.67 9.71 75.94 28.35 49.39 C 41.09 30.63 61.92 17.59 84.42 14.53 M 87.37 25.44 C 65.47 27.88 45.37 41.48 34.53 60.58 C 23.91 78.90 22.37 102.08 30.22 121.72 C 37.06 139.09 51.12 153.43 68.31 160.70 C 96.68 173.20 132.53 164.10 151.37 139.44 C 171.81 114.58 171.55 75.66 150.80 51.06 C 135.87 32.32 111.11 22.44 87.37 25.44 Z" />
<path fill="#19b0ff" opacity="1.00" d=" M 65.24 54.21 C 71.07 49.07 80.86 53.59 82.16 60.86 C 83.15 65.98 86.27 71.16 84.40 76.43 C 83.41 79.54 80.52 81.40 78.50 83.80 C 82.27 97.61 93.57 108.96 107.40 112.72 C 110.11 110.37 112.33 107.05 116.12 106.43 C 121.19 105.54 125.97 108.23 130.84 109.20 C 138.18 110.77 142.20 121.03 136.56 126.54 C 133.37 129.34 130.83 133.98 126.04 133.87 C 107.74 134.04 89.55 126.31 76.86 113.14 C 64.38 100.47 57.22 82.77 57.34 64.99 C 57.56 60.13 62.24 57.43 65.24 54.21 Z" />
</g>
</svg>
