<?xml version="1.0" encoding="UTF-8" ?>
<!DOCTYPE svg PUBLIC "-//W3C//DTD SVG 1.1//EN" "http://www.w3.org/Graphics/SVG/1.1/DTD/svg11.dtd">
<svg width="192pt" height="192pt" viewBox="0 0 192 192" version="1.1" xmlns="http://www.w3.org/2000/svg">
<g id="#45e371ff">
<path fill="#45e371" opacity="1.00" d=" M 39.29 21.36 C 42.47 20.61 45.76 20.72 49.00 20.73 C 81.66 20.76 114.32 20.69 146.98 20.76 C 159.20 20.70 170.02 31.75 169.82 43.94 C 169.88 77.98 169.87 112.02 169.83 146.06 C 170.18 158.38 159.30 169.55 146.97 169.53 C 132.65 169.52 118.31 169.69 104.00 169.44 C 98.13 169.05 97.61 159.63 103.37 158.55 C 117.89 157.98 132.46 158.54 147.00 158.28 C 153.33 158.21 158.81 152.38 158.66 146.08 C 158.69 112.02 158.71 77.97 158.65 43.92 C 158.74 37.29 152.55 31.67 146.03 31.85 C 112.34 31.82 78.65 31.81 44.96 31.84 C 38.42 31.71 32.40 37.41 32.46 44.00 C 32.29 58.34 32.62 72.69 32.31 87.01 C 31.72 93.09 21.86 92.93 21.41 86.88 C 21.14 72.58 21.35 58.25 21.31 43.94 C 21.25 33.48 29.08 23.64 39.29 21.36 Z" />
<path fill="#45e371" opacity="1.00" d=" M 21.08 96.08 C 27.67 96.00 34.28 95.81 40.85 96.17 C 44.56 97.96 43.23 102.74 43.90 106.01 C 44.07 110.15 46.94 114.28 45.34 118.38 C 42.57 121.90 38.80 124.48 35.89 127.89 C 41.55 139.06 50.97 148.22 62.00 154.04 C 66.48 151.86 68.68 146.38 73.34 144.44 C 77.59 144.73 81.55 146.98 85.90 146.88 C 88.75 147.13 93.07 146.48 94.07 150.05 C 94.43 156.44 94.14 162.86 94.20 169.26 C 76.12 170.09 57.73 163.93 44.25 151.76 C 28.57 137.97 20.16 116.85 21.08 96.08 Z" />
</g>
</svg>
