<?xml version="1.0" encoding="UTF-8" ?>
<!DOCTYPE svg PUBLIC "-//W3C//DTD SVG 1.1//EN" "http://www.w3.org/Graphics/SVG/1.1/DTD/svg11.dtd">
<svg width="192pt" height="192pt" viewBox="0 0 192 192" version="1.1" xmlns="http://www.w3.org/2000/svg">
<g id="#4c81dbff">
<path fill="#4c81db" opacity="1.00" d=" M 90.38 22.52 C 97.31 20.78 105.00 22.85 110.09 27.87 C 131.88 48.75 153.79 69.52 175.47 90.53 C 179.37 94.71 173.37 101.79 168.62 98.34 C 146.76 77.89 125.38 56.92 103.64 36.34 C 99.13 31.85 91.09 32.14 86.78 36.76 C 66.48 56.14 46.25 75.57 25.96 94.96 C 23.86 97.01 21.37 100.11 18.05 98.90 C 14.17 98.02 12.94 92.46 15.97 89.94 C 37.39 69.37 58.86 48.85 80.31 28.31 C 83.08 25.53 86.56 23.46 90.38 22.52 Z" />
<path fill="#4c81db" opacity="1.00" d=" M 127.39 23.52 C 134.59 23.12 141.83 23.43 149.04 23.36 C 153.54 23.39 157.37 27.55 157.26 32.01 C 157.22 39.01 157.40 46.02 157.17 53.01 C 156.01 58.13 147.99 58.15 146.87 52.99 C 146.43 46.89 147.14 40.73 146.49 34.64 C 140.24 32.50 133.09 34.92 126.62 33.34 C 122.37 31.51 122.87 24.62 127.39 23.52 Z" />
<path fill="#4c81db" opacity="1.00" d=" M 34.20 96.04 C 35.05 90.46 44.01 90.77 44.49 96.39 C 44.69 113.25 44.52 130.12 44.59 146.99 C 44.44 152.59 49.28 157.79 54.91 157.93 C 60.30 158.00 65.68 157.96 71.07 157.95 C 72.33 158.14 73.82 157.36 73.64 155.91 C 73.79 145.28 73.60 134.64 73.73 124.01 C 73.90 119.24 78.11 115.08 82.90 115.06 C 91.30 114.99 99.70 114.96 108.10 115.06 C 112.49 115.14 116.32 118.73 117.11 122.97 C 117.78 134.34 116.58 146.01 117.71 157.23 C 122.70 158.89 128.66 157.51 134.01 157.97 C 139.94 158.63 145.90 154.03 146.25 147.98 C 146.53 131.78 146.11 115.55 146.46 99.35 C 147.27 94.08 155.55 93.85 156.65 99.08 C 157.01 116.05 156.70 133.05 156.81 150.03 C 157.21 159.37 149.26 167.98 139.95 168.47 C 131.98 168.64 124.01 168.55 116.05 168.52 C 111.41 168.50 107.25 164.60 106.76 160.02 C 106.30 148.63 107.30 137.13 106.25 125.80 C 99.56 125.26 92.82 125.63 86.11 125.58 C 84.80 125.44 84.07 126.77 84.26 127.93 C 84.16 138.29 84.27 148.66 84.21 159.02 C 84.19 163.93 79.95 168.51 74.95 168.49 C 66.99 168.57 59.01 168.60 51.05 168.47 C 41.67 168.03 33.78 159.39 34.06 150.03 C 34.13 132.04 33.88 114.03 34.20 96.04 Z" />
</g>
</svg>
