<?xml version="1.0" encoding="UTF-8" ?>
<!DOCTYPE svg PUBLIC "-//W3C//DTD SVG 1.1//EN" "http://www.w3.org/Graphics/SVG/1.1/DTD/svg11.dtd">
<svg width="192pt" height="192pt" viewBox="0 0 192 192" version="1.1" xmlns="http://www.w3.org/2000/svg">
<g id="#a6aeb7ff">
<path fill="#a6aeb7" opacity="1.00" d=" M 83.38 14.48 C 103.97 11.20 125.74 16.23 142.76 28.28 C 164.86 43.50 178.59 70.15 177.74 97.02 C 177.69 126.63 159.75 155.13 133.41 168.48 C 111.28 180.06 83.79 180.59 61.25 169.84 C 37.67 158.95 20.06 136.19 15.48 110.62 C 11.62 90.00 15.93 67.97 27.55 50.47 C 40.03 31.35 60.77 17.85 83.38 14.48 M 85.38 25.48 C 55.38 29.50 30.03 55.00 26.01 84.97 C 20.89 115.54 38.52 147.86 66.91 160.20 C 88.07 169.85 113.98 168.14 133.57 155.56 C 160.30 139.31 173.25 104.31 163.53 74.56 C 154.11 41.97 118.91 19.60 85.38 25.48 Z" />
<path fill="#a6aeb7" opacity="1.00" d=" M 54.90 57.20 C 79.61 56.52 104.32 55.12 129.04 55.04 C 128.44 60.16 130.51 72.35 122.01 70.19 C 99.69 65.66 76.93 62.77 54.90 57.20 Z" />
<path fill="#a6aeb7" opacity="1.00" d=" M 133.13 59.62 C 135.07 60.23 134.78 62.40 135.09 64.00 C 137.69 84.68 140.89 105.28 143.18 125.99 C 139.78 128.21 135.68 126.16 131.94 126.25 C 129.29 126.18 124.61 125.99 125.53 122.07 C 128.01 101.25 130.37 80.40 133.13 59.62 Z" />
<path fill="#a6aeb7" opacity="1.00" d=" M 53.01 65.06 C 54.38 62.41 57.81 64.69 60.03 64.81 C 62.98 65.87 69.09 65.25 68.04 70.01 C 65.95 91.98 63.98 113.97 61.66 135.92 C 60.34 134.53 60.41 132.56 60.18 130.80 C 58.02 108.86 55.15 86.99 53.01 65.06 Z" />
<path fill="#a6aeb7" opacity="1.00" d=" M 75.57 69.48 C 79.52 67.45 84.67 69.09 89.09 68.50 C 94.00 73.89 99.70 78.79 103.59 84.96 C 97.28 91.64 90.72 98.10 84.22 104.59 C 91.97 104.25 96.84 110.95 96.37 118.24 C 99.79 115.56 102.94 112.56 106.29 109.80 C 105.11 107.70 102.64 106.33 101.94 104.05 C 104.67 100.48 107.85 97.27 110.94 94.01 C 115.21 97.18 118.22 101.67 122.12 105.23 C 121.96 111.80 120.86 118.31 120.42 124.86 C 104.78 123.35 89.16 121.36 73.56 119.49 C 69.77 119.13 70.60 114.65 70.93 112.02 C 72.68 97.87 73.33 83.50 75.57 69.48 Z" />
<path fill="#a6aeb7" opacity="1.00" d=" M 68.86 133.05 C 69.30 130.19 68.57 124.54 73.02 125.03 C 93.71 127.22 114.39 129.45 135.10 131.46 C 135.95 131.58 136.72 131.92 137.41 132.48 C 115.27 135.26 93.11 137.95 70.95 140.38 C 66.94 140.48 68.94 135.42 68.86 133.05 Z" />
</g>
</svg>
