<?xml version="1.0" encoding="UTF-8" ?>
<!DOCTYPE svg PUBLIC "-//W3C//DTD SVG 1.1//EN" "http://www.w3.org/Graphics/SVG/1.1/DTD/svg11.dtd">
<svg width="192pt" height="192pt" viewBox="0 0 192 192" version="1.1" xmlns="http://www.w3.org/2000/svg">
<g id="#ff5f3cff">
<path fill="#ff5f3c" opacity="1.00" d=" M 72.09 16.96 C 72.25 10.14 83.54 10.20 83.68 16.99 C 83.92 45.67 83.67 74.37 83.82 103.06 C 83.56 109.05 89.00 114.46 95.00 114.06 C 100.77 114.06 105.43 108.68 105.29 103.04 C 105.47 74.41 105.19 45.77 105.43 17.15 C 105.42 10.24 116.85 10.06 117.07 16.97 C 117.35 45.98 117.25 75.03 117.12 104.05 C 117.19 114.21 109.45 122.09 100.43 125.52 C 100.18 140.34 100.67 155.20 100.20 170.01 C 99.34 175.95 89.74 175.87 88.94 169.94 C 88.25 155.18 89.45 140.32 88.45 125.59 C 79.68 121.94 71.97 114.15 72.04 104.09 C 71.99 75.05 71.89 45.99 72.09 16.96 Z" />
<path fill="#ff5f3c" opacity="1.00" d=" M 35.40 32.43 C 39.45 31.64 43.30 35.97 42.08 39.88 C 32.02 57.14 31.68 79.97 41.57 97.40 C 43.59 101.14 40.47 106.67 36.02 106.04 C 31.26 105.40 28.84 100.68 27.37 96.63 C 20.62 78.46 19.87 57.29 28.47 39.59 C 30.05 36.70 31.63 32.78 35.40 32.43 Z" />
<path fill="#ff5f3c" opacity="1.00" d=" M 152.30 32.40 C 158.10 31.95 160.10 38.66 162.13 42.85 C 169.35 62.23 168.49 85.14 158.29 103.29 C 154.61 109.62 143.75 104.09 147.51 97.43 C 157.35 80.20 157.20 57.80 147.39 40.64 C 145.58 37.17 148.41 32.48 152.30 32.40 Z" />
<path fill="#ff5f3c" opacity="1.00" d=" M 53.41 44.45 C 58.11 42.30 63.61 48.11 60.61 52.60 C 54.88 62.88 55.14 76.02 60.81 86.27 C 63.91 91.33 56.05 97.19 51.96 93.00 C 43.38 82.87 43.81 67.87 46.56 55.58 C 47.97 51.52 49.36 46.61 53.41 44.45 Z" />
<path fill="#ff5f3c" opacity="1.00" d=" M 131.40 44.47 C 137.07 42.28 140.38 48.74 141.83 53.13 C 145.91 65.73 145.82 80.93 138.13 92.14 C 134.47 97.53 125.31 92.21 128.31 86.34 C 134.01 76.01 134.20 62.92 128.51 52.55 C 126.64 49.66 128.18 45.55 131.40 44.47 Z" />
</g>
</svg>
