<?xml version="1.0" encoding="UTF-8" ?>
<!DOCTYPE svg PUBLIC "-//W3C//DTD SVG 1.1//EN" "http://www.w3.org/Graphics/SVG/1.1/DTD/svg11.dtd">
<svg width="192pt" height="192pt" viewBox="0 0 192 192" version="1.1" xmlns="http://www.w3.org/2000/svg">
<g id="#97654dff">
<path fill="#97654d" opacity="1.00" d=" M 84.41 14.53 C 116.10 9.60 149.57 25.50 165.95 53.04 C 178.48 73.29 181.29 99.12 173.71 121.66 C 165.80 145.65 146.18 165.38 122.19 173.29 C 98.93 181.30 72.13 177.98 51.54 164.50 C 24.42 147.43 9.46 113.50 15.20 81.95 C 20.49 47.61 49.94 18.91 84.41 14.53 M 87.39 25.49 C 64.80 28.01 44.12 42.41 33.55 62.46 C 22.22 83.34 22.61 110.01 34.49 130.56 C 47.30 153.52 73.67 168.03 99.95 166.14 C 123.09 165.10 145.01 151.61 156.72 131.69 C 171.77 107.07 169.36 73.29 150.82 51.13 C 135.91 32.38 111.13 22.50 87.39 25.49 Z" />
<path fill="#97654d" opacity="1.00" d=" M 55.01 97.51 C 45.11 94.76 44.76 76.71 55.00 74.63 C 65.27 76.73 65.03 94.80 55.01 97.51 Z" />
<path fill="#97654d" opacity="1.00" d=" M 137.03 97.52 C 126.89 95.01 126.57 76.45 137.01 74.62 C 147.14 76.93 146.88 94.61 137.03 97.52 Z" />
<path fill="#97654d" opacity="1.00" d=" M 80.47 107.68 C 90.29 107.07 100.19 107.46 110.04 107.47 C 114.85 107.18 117.03 114.57 112.79 116.86 C 102.64 121.79 90.17 121.85 79.89 117.23 C 75.64 115.72 76.06 108.66 80.47 107.68 Z" />
<path fill="#97654d" opacity="1.00" d=" M 62.76 138.28 C 60.10 134.81 62.62 129.16 66.99 128.92 C 70.91 128.39 72.95 132.40 76.12 133.85 C 81.33 136.44 87.82 134.89 91.74 130.71 C 94.17 127.96 98.49 128.60 100.77 131.22 C 104.74 135.34 111.44 136.28 116.41 133.50 C 119.24 131.91 121.31 128.28 125.01 128.93 C 129.56 129.26 132.00 135.49 128.83 138.82 C 120.88 148.23 106.13 149.67 95.96 143.05 C 85.65 149.77 70.46 148.17 62.76 138.28 Z" />
</g>
</svg>
