<?xml version="1.0" encoding="UTF-8" ?>
<!DOCTYPE svg PUBLIC "-//W3C//DTD SVG 1.1//EN" "http://www.w3.org/Graphics/SVG/1.1/DTD/svg11.dtd">
<svg width="192pt" height="192pt" viewBox="0 0 192 192" version="1.1" xmlns="http://www.w3.org/2000/svg">
<g id="#baa69dff">
<path fill="#baa69d" opacity="1.00" d=" M 39.37 21.51 C 74.89 20.99 110.47 21.38 146.00 20.78 C 158.79 20.02 170.88 31.03 170.65 43.95 C 170.31 78.33 171.36 112.68 171.00 147.05 C 171.01 159.36 160.35 170.50 147.96 170.57 C 113.32 170.68 78.68 170.64 44.04 170.56 C 31.71 170.60 21.03 159.23 21.25 147.04 C 21.24 112.67 21.25 78.30 21.29 43.94 C 21.17 33.49 29.18 23.67 39.37 21.51 M 32.28 43.95 C 32.24 78.32 32.26 112.69 32.28 147.06 C 32.04 152.08 35.94 157.85 40.93 158.37 C 57.15 150.75 73.46 142.68 87.47 131.37 C 94.10 125.86 100.63 118.93 101.75 110.00 C 102.53 102.92 98.24 96.43 92.91 92.17 C 81.09 82.56 66.05 78.53 52.95 71.11 C 50.36 69.45 46.48 66.83 48.07 63.23 C 51.42 56.99 58.82 54.71 65.30 53.34 C 76.41 51.29 87.77 51.25 99.00 50.37 C 101.29 49.75 102.72 53.50 100.69 54.54 C 90.59 57.30 77.24 53.62 69.26 61.93 C 71.47 66.89 77.63 67.24 82.15 68.85 C 108.37 75.54 135.58 80.22 159.71 93.09 C 159.64 76.73 159.76 60.36 159.66 44.00 C 159.77 36.90 152.88 31.29 146.00 31.71 C 112.33 31.72 78.64 31.65 44.96 31.70 C 38.41 31.60 32.01 37.19 32.28 43.95 M 103.01 85.65 C 108.25 91.24 112.62 98.11 113.08 105.96 C 114.10 116.43 108.75 126.32 101.75 133.72 C 91.42 144.42 78.40 151.91 65.49 159.05 C 92.66 159.28 119.84 159.08 147.01 159.12 C 153.61 159.46 159.57 153.56 159.51 147.00 C 159.63 133.47 159.55 119.94 159.54 106.41 C 142.42 95.57 122.48 90.47 103.01 85.65 Z" />
</g>
</svg>
