<?xml version="1.0" encoding="UTF-8" ?>
<!DOCTYPE svg PUBLIC "-//W3C//DTD SVG 1.1//EN" "http://www.w3.org/Graphics/SVG/1.1/DTD/svg11.dtd">
<svg width="192pt" height="192pt" viewBox="0 0 192 192" version="1.1" xmlns="http://www.w3.org/2000/svg">
<g id="#a79b7cff">
<path fill="#a79b7c" opacity="1.00" d=" M 40.28 21.32 C 75.76 19.97 111.43 21.12 146.98 20.73 C 159.54 20.21 171.02 31.37 170.80 43.94 C 170.86 77.98 170.84 112.02 170.81 146.05 C 171.16 158.34 160.32 169.44 148.06 169.51 C 113.69 169.57 79.31 169.56 44.94 169.52 C 32.62 169.49 21.78 158.36 22.07 146.04 C 22.04 112.01 22.03 77.97 22.08 43.94 C 21.98 33.38 30.00 23.55 40.28 21.32 M 42.28 32.34 C 37.23 33.75 33.18 38.59 33.29 43.93 C 33.25 77.97 33.28 112.02 33.28 146.06 C 33.02 152.81 39.29 158.78 46.01 158.35 C 79.67 158.34 113.33 158.35 146.99 158.34 C 153.69 158.73 159.83 152.77 159.67 146.07 C 159.70 112.02 159.73 77.97 159.65 43.93 C 159.73 36.87 152.87 31.23 146.01 31.80 C 111.45 32.18 76.77 31.11 42.28 32.34 Z" />
<path fill="#a79b7c" opacity="1.00" d=" M 123.72 70.94 C 123.45 66.64 123.17 59.95 128.99 59.50 C 135.24 59.15 135.63 66.38 135.10 70.90 C 139.24 70.61 145.47 70.57 146.03 76.03 C 146.59 82.07 139.60 82.99 135.13 82.25 C 135.61 86.70 135.34 93.88 129.19 93.65 C 123.26 93.45 123.40 86.53 123.66 82.20 C 121.99 82.28 120.32 82.34 118.65 82.39 C 114.96 96.68 111.06 110.93 107.18 125.17 C 106.32 130.15 98.62 131.07 96.69 126.37 C 90.80 111.75 85.30 96.96 79.53 82.29 C 77.31 82.28 75.08 82.28 72.86 82.27 C 72.67 96.80 73.06 111.36 72.69 125.88 C 72.10 131.85 62.43 131.93 61.69 125.97 C 61.21 111.42 61.67 96.83 61.48 82.26 C 57.54 81.96 53.23 83.10 49.56 81.39 C 45.07 78.93 46.77 71.16 51.96 71.03 C 62.33 70.87 72.71 70.98 83.08 70.98 C 85.76 70.73 88.14 72.63 88.90 75.13 C 92.82 85.16 96.70 95.21 100.56 105.26 C 103.39 96.91 105.26 88.28 107.66 79.80 C 108.58 76.55 109.05 71.96 113.04 71.10 C 116.59 70.77 120.16 71.03 123.72 70.94 Z" />
</g>
</svg>
