<?xml version="1.0" encoding="UTF-8" ?>
<!DOCTYPE svg PUBLIC "-//W3C//DTD SVG 1.1//EN" "http://www.w3.org/Graphics/SVG/1.1/DTD/svg11.dtd">
<svg width="192pt" height="192pt" viewBox="0 0 192 192" version="1.1" xmlns="http://www.w3.org/2000/svg">
<g id="#1ab1ffff">
<path fill="#1ab1ff" opacity="1.00" d=" M 18.15 39.92 C 18.43 25.49 33.30 15.38 47.00 17.73 C 81.66 17.78 116.32 17.68 150.98 17.76 C 163.20 17.73 174.01 28.74 173.82 40.95 C 173.89 77.31 173.89 113.69 173.85 150.05 C 174.15 162.38 163.30 173.53 150.96 173.52 C 131.97 173.54 112.97 173.66 93.99 173.45 C 88.47 173.43 86.95 164.96 92.00 162.89 C 97.53 161.60 103.35 162.64 108.99 162.30 C 108.89 155.21 109.19 148.10 108.86 141.01 C 109.00 138.88 106.65 138.33 104.99 138.47 C 98.05 138.53 91.10 138.37 84.17 138.55 C 82.67 138.36 81.35 139.63 81.44 141.13 C 81.17 150.09 81.56 159.07 81.31 168.04 C 81.43 171.38 78.20 173.85 75.00 173.53 C 63.35 173.51 51.68 173.64 40.03 173.45 C 28.03 173.00 17.80 162.03 18.07 150.04 C 18.08 113.33 17.99 76.62 18.15 39.92 M 29.27 40.92 C 29.23 77.30 29.25 113.68 29.27 150.06 C 29.05 156.41 34.62 162.26 40.99 162.29 C 50.66 162.42 60.34 162.29 70.01 162.32 C 70.13 154.86 69.83 147.40 70.15 139.95 C 70.53 132.97 76.95 127.07 83.93 127.22 C 91.65 127.19 99.38 127.10 107.10 127.25 C 113.93 127.42 119.95 133.41 120.20 140.23 C 120.39 147.58 120.18 154.94 120.28 162.30 C 130.52 162.26 140.76 162.40 151.00 162.25 C 157.75 162.17 163.20 155.68 162.68 149.06 C 162.65 113.02 162.75 76.97 162.64 40.93 C 162.72 34.29 156.56 28.67 150.03 28.85 C 114.02 28.80 78.00 28.78 41.99 28.81 C 35.41 28.57 29.09 34.20 29.27 40.92 Z" />
<path fill="#1ab1ff" opacity="1.00" d=" M 84.33 53.40 C 100.85 51.18 118.17 54.80 132.29 63.70 C 135.98 65.80 135.55 71.97 131.65 73.60 C 128.75 75.21 125.80 73.06 123.28 71.75 C 105.15 61.58 81.95 61.93 63.84 71.98 C 58.49 75.26 52.46 67.28 57.06 63.01 C 65.13 57.61 74.78 54.82 84.33 53.40 Z" />
<path fill="#1ab1ff" opacity="1.00" d=" M 84.31 74.37 C 97.22 72.00 111.25 74.44 122.14 81.89 C 127.17 85.78 121.49 94.36 115.95 91.20 C 103.39 83.53 86.94 82.90 74.01 90.04 C 68.97 93.20 62.90 86.25 66.65 81.66 C 71.54 77.45 78.14 75.78 84.31 74.37 Z" />
<path fill="#1ab1ff" opacity="1.00" d=" M 89.44 94.59 C 96.79 93.56 104.61 95.06 110.83 99.18 C 114.34 101.45 113.77 107.45 109.87 108.99 C 105.96 110.79 102.58 107.06 98.87 106.36 C 93.40 104.65 87.87 106.59 82.84 108.70 C 77.84 110.56 73.45 103.74 76.84 99.80 C 80.16 96.53 85.00 95.43 89.44 94.59 Z" />
</g>
</svg>
