<?xml version="1.0" encoding="UTF-8" ?>
<!DOCTYPE svg PUBLIC "-//W3C//DTD SVG 1.1//EN" "http://www.w3.org/Graphics/SVG/1.1/DTD/svg11.dtd">
<svg width="192pt" height="192pt" viewBox="0 0 192 192" version="1.1" xmlns="http://www.w3.org/2000/svg">
<g id="#b08f51ff">
<path fill="#b08f51" opacity="1.00" d=" M 22.02 43.93 C 21.87 31.69 32.74 20.59 45.03 20.74 C 79.01 20.67 113.00 20.72 146.98 20.70 C 156.35 20.38 165.43 26.35 169.01 34.98 C 172.11 42.25 170.79 50.33 171.12 58.00 C 170.98 61.04 171.59 64.76 169.11 67.07 C 166.24 70.17 160.17 68.27 159.84 63.98 C 159.24 57.01 160.01 49.99 159.51 43.01 C 159.10 36.86 153.23 31.62 147.04 32.11 C 131.89 32.18 116.73 32.11 101.57 32.15 C 101.55 66.77 101.73 101.40 101.51 136.00 C 101.62 142.94 90.24 142.84 90.28 136.02 C 90.07 101.40 90.29 66.77 90.20 32.14 C 75.11 32.14 60.02 32.12 44.94 32.14 C 39.09 32.03 33.74 37.20 33.39 42.99 C 32.89 50.25 33.87 57.58 32.94 64.79 C 31.57 69.77 23.68 69.72 22.32 64.76 C 21.56 57.86 22.14 50.86 22.02 43.93 Z" />
<path fill="#b08f51" opacity="1.00" d=" M 26.38 83.41 C 30.27 82.40 33.66 86.18 33.23 89.94 C 33.31 108.64 33.22 127.35 33.26 146.06 C 32.89 152.86 39.27 158.84 46.00 158.42 C 79.66 158.40 113.33 158.41 147.00 158.39 C 153.35 158.71 159.40 153.40 159.63 147.01 C 159.94 127.34 159.43 107.64 159.88 87.98 C 160.21 81.74 170.49 81.88 170.65 88.11 C 170.88 107.75 170.76 127.42 170.72 147.06 C 170.61 159.00 159.87 169.43 147.98 169.48 C 113.66 169.54 79.34 169.51 45.02 169.48 C 33.12 169.45 22.34 159.04 22.22 147.09 C 22.12 127.71 22.17 108.33 22.21 88.96 C 22.01 86.41 23.88 83.92 26.38 83.41 Z" />
</g>
</svg>
