<?xml version="1.0" encoding="UTF-8" ?>
<!DOCTYPE svg PUBLIC "-//W3C//DTD SVG 1.1//EN" "http://www.w3.org/Graphics/SVG/1.1/DTD/svg11.dtd">
<svg width="192pt" height="192pt" viewBox="0 0 192 192" version="1.1" xmlns="http://www.w3.org/2000/svg">
<g id="#28a7e7ff">
<path fill="#28a7e7" opacity="1.00" d=" M 79.70 27.22 C 85.47 14.48 105.23 14.51 111.00 27.22 C 122.50 25.65 135.64 30.83 139.42 42.56 C 147.77 78.65 158.87 114.08 168.09 149.95 C 168.90 162.04 157.99 173.09 146.00 173.19 C 113.01 173.37 80.01 173.20 47.02 173.27 C 33.40 174.44 19.61 160.96 23.18 147.19 C 32.58 112.25 43.04 77.57 51.33 42.36 C 55.21 30.71 68.27 25.72 79.70 27.22 M 61.85 45.84 C 53.63 81.17 42.87 115.90 33.75 151.01 C 33.58 157.27 39.85 162.47 45.97 162.08 C 79.00 162.09 112.03 162.08 145.06 162.03 C 151.00 162.27 157.03 157.15 156.86 151.06 C 147.85 116.02 137.00 81.41 128.88 46.14 C 126.65 39.27 118.74 37.57 112.37 38.36 C 110.50 45.01 105.01 50.96 97.90 51.69 C 88.99 53.33 80.45 46.88 78.28 38.36 C 71.99 37.59 64.25 39.15 61.85 45.84 Z" />
</g>
</svg>
