<?xml version="1.0" encoding="UTF-8" ?>
<!DOCTYPE svg PUBLIC "-//W3C//DTD SVG 1.1//EN" "http://www.w3.org/Graphics/SVG/1.1/DTD/svg11.dtd">
<svg width="192pt" height="192pt" viewBox="0 0 192 192" version="1.1" xmlns="http://www.w3.org/2000/svg">
<g id="#18adffff">
<path fill="#18adff" opacity="1.00" d=" M 120.62 25.61 C 132.78 22.65 145.59 27.45 154.52 35.81 C 162.19 35.10 168.85 30.73 176.12 28.67 C 174.29 36.55 167.82 42.04 162.03 47.18 C 165.97 46.62 169.76 45.44 173.62 44.56 C 175.71 43.71 177.81 46.64 176.36 48.35 C 172.80 52.75 168.54 56.54 164.15 60.10 C 165.48 98.21 144.73 136.85 110.74 154.82 C 83.45 169.27 49.57 169.95 21.42 157.54 C 18.07 156.33 18.89 150.61 22.53 150.57 C 36.12 148.92 49.46 144.22 60.53 136.06 C 48.28 134.75 35.86 127.97 30.30 116.67 C 29.31 110.23 37.40 111.11 41.52 110.77 C 30.28 105.16 18.15 96.88 16.48 83.35 C 17.35 75.88 25.97 78.09 30.94 79.33 C 22.02 71.99 14.63 61.18 15.52 49.17 C 16.73 41.76 26.87 38.50 32.23 43.75 C 50.89 59.79 75.24 69.69 100.03 68.76 C 107.14 68.63 108.00 80.24 101.00 81.23 C 75.71 81.90 50.52 73.41 29.95 58.80 C 33.59 66.20 38.95 72.51 45.20 77.83 C 49.04 80.55 48.41 87.18 43.88 88.78 C 39.23 89.93 34.35 89.20 29.61 89.49 C 36.55 95.85 44.90 100.80 54.17 102.79 C 58.68 103.63 62.95 108.90 60.33 113.38 C 57.14 117.08 52.02 118.01 47.72 119.85 C 56.06 125.41 66.43 125.64 76.09 125.22 C 81.15 124.63 85.00 132.37 80.44 135.44 C 71.02 142.86 60.73 149.17 49.97 154.45 C 81.52 156.54 115.21 144.25 134.04 118.00 C 145.35 102.38 150.63 83.05 151.49 63.96 C 152.03 55.70 148.76 46.97 142.17 41.78 C 132.19 34.18 116.12 36.56 109.21 47.18 C 107.15 50.14 106.23 54.82 102.01 55.39 C 97.54 56.39 93.37 51.33 95.25 47.14 C 99.66 36.53 109.26 27.98 120.62 25.61 Z" />
</g>
</svg>
