<?xml version="1.0" encoding="UTF-8" ?>
<!DOCTYPE svg PUBLIC "-//W3C//DTD SVG 1.1//EN" "http://www.w3.org/Graphics/SVG/1.1/DTD/svg11.dtd">
<svg width="192pt" height="192pt" viewBox="0 0 192 192" version="1.1" xmlns="http://www.w3.org/2000/svg">
<g id="#a419ffff">
<path fill="#a419ff" opacity="1.00" d=" M 21.10 36.93 C 21.08 25.95 31.08 16.38 42.04 16.70 C 77.68 16.66 113.32 16.65 148.97 16.69 C 159.90 16.43 169.87 26.04 169.78 37.02 C 169.69 62.35 169.48 87.69 169.33 113.02 C 169.62 115.57 168.04 117.65 166.33 119.33 C 157.94 127.94 149.62 136.62 141.38 145.36 C 139.86 146.87 138.27 148.79 135.90 148.66 C 121.21 148.89 106.50 148.55 91.81 148.80 C 83.11 155.98 75.67 164.70 67.20 172.18 C 64.23 175.09 58.67 173.02 58.14 168.98 C 57.74 162.23 58.18 155.46 57.89 148.71 C 51.92 148.65 45.95 148.85 39.99 148.62 C 29.63 147.99 20.87 138.43 21.07 128.06 C 21.05 97.68 21.02 67.30 21.10 36.93 M 32.31 37.94 C 32.32 67.96 32.28 97.99 32.33 128.01 C 32.23 132.74 36.23 137.19 41.00 137.40 C 49.09 137.79 57.23 136.99 65.29 137.76 C 71.86 140.50 68.39 149.03 69.27 154.46 C 74.68 149.47 79.79 144.18 85.16 139.15 C 86.91 137.27 89.62 137.46 91.96 137.43 C 105.68 137.52 119.39 137.38 133.11 137.50 C 141.50 129.01 149.60 120.24 157.98 111.74 C 158.31 87.17 158.36 62.59 158.56 38.01 C 159.02 32.24 153.66 27.44 148.02 27.96 C 113.01 27.80 78.00 27.89 42.99 27.88 C 37.33 27.33 31.87 32.15 32.31 37.94 Z" />
<path fill="#a419ff" opacity="1.00" d=" M 98.21 47.20 C 101.69 45.41 106.59 47.91 106.57 51.97 C 106.66 67.93 106.71 83.91 106.55 99.87 C 106.27 106.20 95.66 106.41 95.12 100.08 C 94.82 84.38 95.07 68.65 95.00 52.93 C 94.81 50.59 96.01 48.16 98.21 47.20 Z" />
<path fill="#a419ff" opacity="1.00" d=" M 125.25 47.23 C 128.72 45.39 133.74 47.87 133.69 51.98 C 133.76 67.95 133.83 83.93 133.66 99.89 C 133.34 106.30 122.62 106.35 122.21 99.96 C 121.96 84.29 122.18 68.60 122.12 52.93 C 121.95 50.62 123.08 48.22 125.25 47.23 Z" />
</g>
</svg>
