<?xml version="1.0" encoding="UTF-8" ?>
<!DOCTYPE svg PUBLIC "-//W3C//DTD SVG 1.1//EN" "http://www.w3.org/Graphics/SVG/1.1/DTD/svg11.dtd">
<svg width="192pt" height="192pt" viewBox="0 0 192 192" version="1.1" xmlns="http://www.w3.org/2000/svg">
<g id="#a45394ff">
<path fill="#a45394" opacity="1.00" d=" M 125.49 17.71 C 151.04 13.54 176.55 36.05 175.24 61.97 C 175.53 87.25 150.52 108.51 125.62 104.55 C 101.74 102.12 83.26 77.55 87.89 53.92 C 90.77 35.33 106.84 19.95 125.49 17.71 M 123.41 29.61 C 107.22 33.31 95.72 50.69 99.19 67.05 C 102.00 84.12 120.04 96.53 137.00 93.04 C 154.66 90.41 167.52 71.38 163.07 54.02 C 159.56 36.74 140.45 24.88 123.41 29.61 Z" />
<path fill="#a45394" opacity="1.00" d=" M 51.35 86.44 C 67.24 83.29 84.45 89.93 94.23 102.82 C 104.97 116.39 106.38 136.54 97.39 151.38 C 88.56 167.07 69.30 175.97 51.63 172.48 C 34.49 169.68 19.91 155.65 16.45 138.63 C 10.75 115.42 27.86 90.20 51.35 86.44 M 53.37 97.47 C 40.26 99.78 29.21 110.85 27.18 124.05 C 24.72 136.95 31.36 150.76 42.65 157.31 C 54.18 164.38 70.07 163.14 80.32 154.30 C 90.15 146.36 94.38 132.39 90.69 120.31 C 86.41 104.58 69.31 94.30 53.37 97.47 Z" />
</g>
</svg>
