<?xml version="1.0" encoding="UTF-8" ?>
<!DOCTYPE svg PUBLIC "-//W3C//DTD SVG 1.1//EN" "http://www.w3.org/Graphics/SVG/1.1/DTD/svg11.dtd">
<svg width="192pt" height="192pt" viewBox="0 0 192 192" version="1.1" xmlns="http://www.w3.org/2000/svg">
<g id="#fb6e49ff">
<path fill="#fb6e49" opacity="1.00" d=" M 27.46 23.46 C 36.52 15.27 51.30 14.69 60.98 22.10 C 65.45 25.66 69.15 30.06 73.30 33.97 C 88.16 28.55 104.75 28.60 119.62 33.95 C 125.71 28.20 130.95 20.79 139.32 18.24 C 150.00 14.54 162.69 18.49 169.34 27.63 C 176.52 36.94 176.44 50.93 169.18 60.16 C 165.67 64.46 161.42 68.08 157.63 72.13 C 162.98 86.85 163.16 103.42 157.61 118.10 C 162.49 123.96 169.32 128.39 172.37 135.63 C 176.75 145.11 174.87 157.06 167.75 164.72 C 160.42 173.02 147.75 175.88 137.56 171.52 C 129.98 168.57 125.32 161.54 119.38 156.38 C 104.77 161.91 88.16 161.95 73.57 156.37 C 67.64 161.52 62.98 168.50 55.43 171.48 C 45.04 175.98 32.02 172.92 24.75 164.23 C 17.80 156.36 16.23 144.32 20.87 134.91 C 24.08 128.07 30.61 123.77 35.33 118.10 C 29.73 103.40 30.00 86.83 35.27 72.08 C 30.30 66.63 24.00 62.12 20.79 55.29 C 15.63 44.75 18.47 31.03 27.46 23.46 M 33.89 32.90 C 28.31 38.34 27.99 48.03 33.15 53.85 C 35.55 56.43 37.99 59.01 40.69 61.29 C 46.11 52.31 53.82 44.87 62.63 39.23 C 60.12 36.78 57.71 34.21 55.11 31.85 C 49.23 26.57 39.22 27.05 33.89 32.90 M 138.39 31.36 C 135.52 33.79 132.99 36.58 130.30 39.21 C 139.06 44.90 146.77 52.30 152.21 61.26 C 155.05 58.75 157.77 56.08 160.24 53.20 C 165.06 47.17 164.26 37.61 158.54 32.43 C 153.26 27.25 144.17 26.72 138.39 31.36 M 89.43 41.57 C 70.38 43.92 53.29 57.30 46.28 75.15 C 39.77 91.20 41.61 110.36 51.27 124.77 C 61.05 139.98 78.87 149.63 96.99 149.25 C 115.77 149.27 133.95 138.49 143.21 122.21 C 152.09 107.13 152.86 87.66 145.19 71.93 C 135.61 51.22 112.06 38.30 89.43 41.57 M 32.89 136.90 C 28.05 142.66 28.44 151.91 33.68 157.30 C 38.94 163.19 48.77 163.87 54.81 158.82 C 57.54 156.39 60.07 153.74 62.57 151.07 C 53.70 145.54 46.10 137.99 40.64 129.06 C 38.00 131.62 35.35 134.17 32.89 136.90 M 152.25 129.07 C 146.82 138.03 139.21 145.57 130.32 151.07 C 134.82 155.55 139.07 161.54 145.96 162.10 C 154.39 163.36 162.85 156.46 163.34 147.97 C 164.48 139.69 157.54 134.16 152.25 129.07 Z" />
<path fill="#fb6e49" opacity="1.00" d=" M 92.34 84.47 C 100.09 81.08 109.41 88.63 107.77 96.91 C 106.96 105.53 95.32 109.86 89.04 103.95 C 82.42 98.81 84.42 87.17 92.34 84.47 Z" />
</g>
</svg>
