<?xml version="1.0" encoding="UTF-8" ?>
<!DOCTYPE svg PUBLIC "-//W3C//DTD SVG 1.1//EN" "http://www.w3.org/Graphics/SVG/1.1/DTD/svg11.dtd">
<svg width="192pt" height="192pt" viewBox="0 0 192 192" version="1.1" xmlns="http://www.w3.org/2000/svg">
<g id="#606f80ff">
<path fill="#606f80" opacity="1.00" d=" M 39.30 21.31 C 74.45 19.96 109.77 21.13 144.99 20.71 C 156.90 19.82 168.43 29.23 169.73 41.12 C 170.15 46.63 170.58 52.27 169.65 57.74 C 168.33 62.72 160.58 62.74 159.10 57.86 C 158.11 52.49 159.32 46.96 158.44 41.58 C 157.31 36.00 151.77 31.59 146.03 32.14 C 112.32 32.38 78.67 31.54 44.96 31.89 C 39.31 31.77 33.79 35.82 32.59 41.40 C 31.73 46.83 32.93 52.39 31.93 57.79 C 30.51 62.71 22.70 62.71 21.37 57.73 C 20.70 52.84 21.10 47.85 21.13 42.92 C 21.44 32.72 29.37 23.48 39.30 21.31 Z" />
<path fill="#606f80" opacity="1.00" d=" M 22.15 74.06 C 22.89 68.87 31.00 68.71 32.30 73.67 C 33.45 83.61 31.48 93.82 33.37 103.67 C 35.60 112.54 49.53 113.13 52.76 104.68 C 54.89 97.70 53.33 90.19 53.81 83.00 C 54.24 79.02 52.43 73.90 55.81 70.86 C 59.02 67.97 64.69 70.65 64.47 74.98 C 64.51 88.66 64.61 102.35 64.53 116.03 C 64.86 121.68 56.26 120.61 53.74 117.39 C 42.69 124.97 25.15 118.97 22.60 105.40 C 21.39 95.04 21.86 84.48 22.15 74.06 Z" />
<path fill="#606f80" opacity="1.00" d=" M 66.87 74.97 C 66.69 70.60 72.63 68.24 75.61 71.30 C 78.53 74.40 77.01 79.12 77.29 82.95 C 89.00 74.88 106.42 82.31 109.02 96.20 C 111.13 85.49 122.16 77.71 132.97 80.04 C 143.67 81.71 150.50 93.13 148.67 103.48 C 139.14 105.09 129.33 103.68 119.68 104.24 C 122.42 111.02 131.84 113.54 137.15 108.19 C 141.03 102.98 150.62 111.71 144.14 115.17 C 133.05 125.90 112.49 119.94 108.97 104.86 C 107.03 111.48 102.20 117.43 95.50 119.58 C 89.46 121.71 82.97 119.85 77.43 117.16 C 76.72 117.97 76.02 118.77 75.32 119.58 C 72.53 119.42 67.32 121.15 66.91 117.03 C 66.63 103.02 66.71 88.98 66.87 74.97 M 85.43 89.63 C 77.21 91.26 74.32 102.94 80.73 108.28 C 86.37 113.90 97.16 110.47 98.60 102.65 C 100.71 95.10 92.95 87.47 85.43 89.63 M 119.94 95.09 C 125.94 95.25 131.94 95.23 137.94 95.11 C 134.60 87.55 123.25 87.51 119.94 95.09 Z" />
<path fill="#606f80" opacity="1.00" d=" M 149.82 82.08 C 151.98 78.95 157.06 80.37 159.81 82.16 C 162.98 81.00 167.65 78.29 170.35 81.63 C 171.36 84.64 171.67 90.57 167.00 90.21 C 163.91 89.95 160.77 91.89 160.40 95.12 C 159.62 102.06 160.57 109.08 159.91 116.02 C 160.03 121.31 148.98 121.60 149.53 116.03 C 149.65 104.72 149.12 93.35 149.82 82.08 Z" />
<path fill="#606f80" opacity="1.00" d=" M 25.41 128.50 C 28.40 127.73 31.65 129.98 32.10 133.00 C 32.73 138.19 31.85 143.44 32.55 148.62 C 33.63 154.32 39.20 158.66 45.00 158.33 C 78.67 158.33 112.34 158.32 146.02 158.31 C 151.60 158.61 156.97 154.59 158.32 149.18 C 159.56 143.33 157.77 137.17 159.36 131.39 C 161.30 126.98 168.50 127.60 169.67 132.27 C 170.52 137.75 170.18 143.38 169.78 148.89 C 168.69 160.20 158.33 169.55 146.98 169.56 C 112.99 169.63 79.00 169.56 45.01 169.58 C 36.09 169.81 27.32 164.50 23.47 156.43 C 20.05 149.79 21.22 142.10 21.04 134.92 C 20.75 132.08 22.48 129.04 25.41 128.50 Z" />
</g>
</svg>
