<?xml version="1.0" encoding="UTF-8" ?>
<!DOCTYPE svg PUBLIC "-//W3C//DTD SVG 1.1//EN" "http://www.w3.org/Graphics/SVG/1.1/DTD/svg11.dtd">
<svg width="192pt" height="192pt" viewBox="0 0 192 192" version="1.1" xmlns="http://www.w3.org/2000/svg">
<g id="#606f80ff">
<path fill="#606f80" opacity="1.00" d=" M 40.30 21.32 C 43.81 20.57 47.43 20.73 51.00 20.72 C 83.33 20.79 115.67 20.66 148.01 20.77 C 160.21 20.73 171.01 31.75 170.83 43.93 C 170.90 77.98 170.88 112.02 170.85 146.07 C 171.21 158.39 160.35 169.52 148.04 169.55 C 113.68 169.62 79.32 169.60 44.95 169.54 C 32.61 169.55 21.77 158.40 22.06 146.06 C 22.03 112.02 22.02 77.97 22.08 43.92 C 21.99 33.36 30.00 23.52 40.30 21.32 M 42.29 32.42 C 36.85 33.82 32.85 39.29 33.30 44.93 C 33.32 78.64 33.27 112.36 33.32 146.07 C 33.07 152.81 39.27 158.75 45.99 158.32 C 79.66 158.33 113.34 158.33 147.01 158.30 C 153.71 158.68 159.79 152.76 159.63 146.07 C 159.72 112.36 159.66 78.63 159.67 44.92 C 160.20 37.60 153.33 31.05 146.02 32.13 C 111.44 32.77 76.79 30.85 42.29 32.42 Z" />
<path fill="#606f80" opacity="1.00" d=" M 79.43 78.40 C 81.50 78.34 83.56 78.33 85.63 78.36 C 85.80 81.17 85.86 83.99 85.89 86.81 C 90.67 85.95 98.58 84.71 99.91 91.09 C 100.40 97.27 101.39 104.08 98.89 109.92 C 93.58 114.87 85.82 110.37 79.42 111.78 C 79.19 100.66 79.19 89.52 79.43 78.40 M 86.36 91.73 C 85.73 96.71 85.66 101.76 86.40 106.73 C 88.76 106.47 93.19 108.22 93.50 104.70 C 93.83 100.73 94.04 96.63 93.24 92.70 C 91.74 90.52 88.59 91.90 86.36 91.73 Z" />
<path fill="#606f80" opacity="1.00" d=" M 50.39 79.79 C 52.57 79.73 54.75 79.74 56.93 79.79 C 57.77 88.30 56.42 96.94 57.72 105.39 C 60.44 106.94 65.69 107.64 67.45 104.59 C 68.46 96.37 67.48 88.02 67.98 79.74 C 70.12 79.82 72.43 79.33 74.46 80.21 C 74.82 88.91 75.02 97.72 74.33 106.40 C 73.61 112.32 66.63 112.62 62.01 112.47 C 57.60 112.67 51.30 111.86 50.71 106.38 C 49.79 97.57 50.43 88.64 50.39 79.79 Z" />
<path fill="#606f80" opacity="1.00" d=" M 103.75 92.44 C 104.44 84.89 113.98 85.65 119.41 86.62 C 125.75 88.02 124.57 95.86 124.42 100.74 C 119.62 100.82 114.83 100.79 110.03 100.79 C 108.94 105.79 112.13 108.64 116.97 107.42 C 117.54 106.05 118.11 104.68 118.70 103.32 C 120.71 103.43 122.72 103.54 124.73 103.69 C 125.47 113.83 111.97 114.20 105.73 110.34 C 101.94 105.33 103.78 98.30 103.75 92.44 M 110.59 91.24 C 110.40 92.99 110.22 94.74 110.06 96.49 C 112.79 96.51 115.53 96.52 118.28 96.51 C 118.95 91.29 114.88 90.48 110.59 91.24 Z" />
<path fill="#606f80" opacity="1.00" d=" M 128.65 86.59 C 130.85 86.15 133.03 86.80 135.09 87.57 C 137.71 86.93 140.39 86.50 143.10 86.49 C 143.00 88.38 142.91 90.27 142.79 92.16 C 140.13 92.21 137.47 92.24 134.80 92.26 C 134.79 98.78 134.92 105.30 134.69 111.81 C 132.58 111.86 130.46 111.85 128.35 111.76 C 128.34 103.38 127.70 94.92 128.65 86.59 Z" />
</g>
</svg>
