<?xml version="1.0" encoding="UTF-8" ?>
<!DOCTYPE svg PUBLIC "-//W3C//DTD SVG 1.1//EN" "http://www.w3.org/Graphics/SVG/1.1/DTD/svg11.dtd">
<svg width="192pt" height="192pt" viewBox="0 0 192 192" version="1.1" xmlns="http://www.w3.org/2000/svg">
<g id="#ff633bff">
<path fill="#ff633b" opacity="1.00" d=" M 86.41 13.51 C 118.67 9.50 152.26 26.67 167.69 55.32 C 184.02 83.95 180.66 122.22 159.45 147.47 C 140.49 171.20 107.76 182.65 78.14 175.88 C 56.25 171.24 36.39 157.18 25.09 137.83 C 21.81 131.56 32.04 126.71 35.10 132.86 C 50.56 158.24 82.75 171.76 111.66 164.61 C 142.86 157.91 167.02 127.97 166.67 96.01 C 167.57 64.78 145.08 35.04 114.99 26.97 C 89.78 19.62 60.84 27.71 43.28 47.28 C 39.04 51.52 36.08 56.77 32.61 61.59 C 28.77 65.71 21.28 60.78 23.54 55.62 C 35.87 32.39 60.32 16.30 86.41 13.51 Z" />
<path fill="#ff633b" opacity="1.00" d=" M 29.41 68.47 C 35.10 66.28 39.64 75.19 34.32 78.32 C 27.60 81.66 22.89 89.44 25.03 96.98 C 27.51 104.72 34.62 109.89 41.72 113.16 C 61.01 121.49 83.60 120.12 102.57 111.56 C 108.38 108.49 113.71 117.67 108.22 121.21 C 86.19 132.04 59.27 133.20 36.69 123.29 C 27.17 118.84 18.17 111.61 14.58 101.42 C 10.09 88.81 17.12 73.58 29.41 68.47 Z" />
<path fill="#ff633b" opacity="1.00" d=" M 47.30 68.30 C 49.76 68.01 52.25 68.00 54.71 68.28 C 55.89 77.95 54.26 87.80 55.60 97.41 C 58.45 100.40 67.72 100.67 67.44 94.83 C 67.88 85.94 67.00 77.00 67.89 68.14 C 70.28 68.05 72.67 68.07 75.06 68.18 C 75.88 76.75 75.23 85.39 75.44 93.99 C 75.49 98.15 74.69 103.77 69.94 105.03 C 64.43 106.31 58.53 106.18 52.99 105.17 C 48.44 104.20 47.10 99.11 47.15 95.08 C 47.17 86.15 46.95 77.22 47.30 68.30 Z" />
<path fill="#ff633b" opacity="1.00" d=" M 81.47 70.15 C 81.61 66.52 86.67 68.52 89.02 68.21 C 89.84 78.31 89.18 88.48 89.38 98.61 C 94.37 98.70 99.36 98.54 104.34 98.82 C 104.55 100.97 104.57 103.14 104.43 105.30 C 96.78 105.23 89.00 106.08 81.44 104.82 C 81.42 93.26 81.32 81.70 81.47 70.15 Z" />
<path fill="#ff633b" opacity="1.00" d=" M 100.27 68.30 C 108.50 67.79 116.76 68.06 124.99 68.10 C 128.30 68.13 126.89 72.59 126.66 74.68 C 123.63 74.75 120.60 74.81 117.57 74.80 C 117.35 84.98 117.89 95.18 117.29 105.35 C 114.79 105.43 112.29 105.39 109.80 105.20 C 109.31 95.12 109.70 85.01 109.58 74.92 C 106.52 74.78 103.45 74.71 100.39 74.63 C 100.12 72.53 100.11 70.41 100.27 68.30 Z" />
<path fill="#ff633b" opacity="1.00" d=" M 134.95 68.95 C 138.44 67.42 145.50 66.57 146.04 71.88 C 149.08 83.08 153.33 94.00 155.57 105.38 C 153.04 105.43 150.51 105.40 147.98 105.26 C 147.22 103.01 146.52 100.74 145.84 98.46 C 142.03 98.49 138.21 98.49 134.40 98.47 C 133.73 100.79 133.01 103.09 132.20 105.36 C 129.52 105.46 126.83 105.49 124.19 104.99 C 127.36 92.87 131.08 80.85 134.95 68.95 M 136.04 92.24 C 138.76 92.25 141.47 92.25 144.18 92.22 C 142.99 87.31 141.57 82.47 140.11 77.64 C 138.66 82.48 137.34 87.36 136.04 92.24 Z" />
</g>
</svg>
