<?xml version="1.0" encoding="UTF-8" ?>
<!DOCTYPE svg PUBLIC "-//W3C//DTD SVG 1.1//EN" "http://www.w3.org/Graphics/SVG/1.1/DTD/svg11.dtd">
<svg width="192pt" height="192pt" viewBox="0 0 192 192" version="1.1" xmlns="http://www.w3.org/2000/svg">
<g id="#6f8f95ff">
<path fill="#6f8f95" opacity="1.00" d=" M 83.38 12.48 C 112.36 8.27 143.00 21.20 160.07 44.99 C 162.12 48.22 159.84 53.01 156.02 53.39 C 152.83 53.98 150.72 51.18 148.97 49.01 C 135.63 32.42 114.37 22.26 93.00 23.14 C 71.32 22.98 50.48 34.39 37.50 51.51 C 33.76 56.62 25.24 50.70 28.43 45.34 C 41.07 27.39 61.63 15.32 83.38 12.48 Z" />
<path fill="#6f8f95" opacity="1.00" d=" M 139.47 61.68 C 156.86 58.60 175.29 72.25 176.51 90.08 C 178.75 107.07 164.79 123.32 147.99 124.92 C 143.24 125.39 136.94 125.55 134.11 120.91 C 127.80 110.19 121.60 99.41 115.31 88.67 C 114.14 86.77 113.31 84.43 114.29 82.25 C 118.25 71.58 128.31 63.61 139.47 61.68 M 143.45 72.61 C 136.32 73.25 129.10 77.49 126.08 84.10 C 131.46 94.09 137.12 104.11 143.37 113.55 C 154.66 114.46 165.79 104.54 165.23 93.01 C 165.56 81.54 154.61 72.08 143.45 72.61 Z" />
<path fill="#6f8f95" opacity="1.00" d=" M 15.21 62.17 C 32.99 60.82 51.09 61.99 68.99 61.58 C 73.72 60.65 77.60 65.95 75.24 70.15 C 66.95 87.23 57.32 103.63 48.42 120.39 C 47.14 122.90 45.31 126.02 42.03 125.71 C 33.72 125.73 25.41 125.87 17.11 125.62 C 13.83 125.54 11.72 122.11 12.00 119.06 C 12.11 102.37 12.18 85.67 12.00 68.97 C 11.81 66.35 12.59 63.33 15.21 62.17 M 23.35 73.17 C 23.49 86.93 23.37 100.69 23.42 114.45 C 28.49 114.47 33.56 114.42 38.63 114.50 C 46.20 100.70 53.98 86.99 61.05 72.93 C 48.49 72.94 35.90 72.49 23.35 73.17 Z" />
<path fill="#6f8f95" opacity="1.00" d=" M 87.19 62.10 C 90.07 60.60 93.58 62.22 94.89 65.04 C 104.96 82.39 114.78 99.90 124.76 117.30 C 127.01 120.73 124.16 125.93 120.03 125.68 C 100.01 125.89 79.99 125.72 59.97 125.72 C 55.31 126.30 52.07 120.52 54.83 116.77 C 64.65 99.91 74.27 82.94 83.82 65.92 C 84.71 64.49 85.55 62.81 87.19 62.10 M 89.41 78.84 C 82.93 90.82 76.08 102.60 69.29 114.40 C 82.85 114.51 96.40 114.40 109.95 114.44 C 103.17 102.55 96.83 90.34 89.41 78.84 Z" />
<path fill="#6f8f95" opacity="1.00" d=" M 30.42 134.55 C 33.10 132.65 36.76 133.93 38.44 136.52 C 50.43 152.20 69.21 162.45 88.92 163.84 C 111.56 165.76 134.79 155.75 148.96 137.99 C 150.70 135.83 152.82 133.03 156.00 133.69 C 159.77 134.11 162.07 138.81 160.07 142.02 C 143.08 165.73 112.47 178.69 83.61 174.57 C 62.18 171.90 42.07 160.15 29.16 142.86 C 27.03 140.37 27.59 136.24 30.42 134.55 Z" />
</g>
</svg>
