<?xml version="1.0" encoding="UTF-8" ?>
<!DOCTYPE svg PUBLIC "-//W3C//DTD SVG 1.1//EN" "http://www.w3.org/Graphics/SVG/1.1/DTD/svg11.dtd">
<svg width="192pt" height="192pt" viewBox="0 0 192 192" version="1.1" xmlns="http://www.w3.org/2000/svg">
<g id="#26bccaff">
<path fill="#26bcca" opacity="1.00" d=" M 14.47 22.01 C 14.28 18.53 17.70 15.94 21.01 16.34 C 70.66 16.37 120.32 16.21 169.96 16.36 C 177.07 16.09 177.09 27.96 169.97 27.63 C 122.03 27.74 74.08 27.71 26.14 27.59 C 27.13 49.42 40.04 70.01 58.36 81.66 C 74.67 92.21 95.46 95.35 114.18 90.25 C 138.16 83.97 157.93 64.03 163.96 39.98 C 164.71 37.39 164.95 34.08 167.67 32.71 C 171.29 30.47 176.45 33.84 175.97 38.01 C 170.41 69.46 144.30 95.94 113.01 102.23 C 85.69 108.35 55.66 98.89 36.69 78.32 C 22.46 63.30 14.25 42.72 14.47 22.01 Z" />
<path fill="#26bcca" opacity="1.00" d=" M 48.09 149.00 C 54.19 127.79 75.98 112.66 97.97 113.81 C 121.97 114.31 143.44 134.18 146.07 157.99 C 146.97 162.44 147.29 169.86 141.05 170.10 C 111.36 170.24 81.64 170.29 51.96 170.08 C 45.49 169.83 45.52 159.19 51.98 158.97 C 79.62 158.70 107.29 159.02 134.95 158.81 C 132.51 140.81 116.37 125.61 98.06 125.16 C 82.25 123.99 66.49 133.77 60.24 148.28 C 59.08 150.67 58.52 153.80 55.79 154.95 C 52.04 156.91 47.18 153.13 48.09 149.00 Z" />
</g>
</svg>
