<?xml version="1.0" encoding="UTF-8" ?>
<!DOCTYPE svg PUBLIC "-//W3C//DTD SVG 1.1//EN" "http://www.w3.org/Graphics/SVG/1.1/DTD/svg11.dtd">
<svg width="192pt" height="192pt" viewBox="0 0 192 192" version="1.1" xmlns="http://www.w3.org/2000/svg">
<g id="#45e372ff">
<path fill="#45e372" opacity="1.00" d=" M 39.36 21.47 C 43.16 20.51 47.12 20.74 51.00 20.72 C 83.33 20.78 115.66 20.67 147.99 20.77 C 160.18 20.77 171.02 31.75 170.79 43.95 C 170.79 78.32 170.85 112.70 170.78 147.07 C 170.73 159.05 160.01 169.61 148.06 169.64 C 131.09 169.62 114.10 169.85 97.14 169.52 C 91.31 168.99 91.14 159.34 97.02 158.70 C 113.99 158.20 131.01 158.79 147.99 158.43 C 154.36 158.26 159.84 152.44 159.61 146.07 C 159.62 112.02 159.67 77.97 159.59 43.93 C 159.70 36.87 152.84 31.33 146.01 31.84 C 112.67 31.85 79.32 31.76 45.97 31.87 C 39.28 31.55 32.91 37.12 32.99 43.95 C 32.59 60.87 33.23 77.84 32.70 94.76 C 31.89 100.83 21.91 100.16 21.86 94.02 C 21.61 77.36 21.79 60.69 21.78 44.03 C 21.67 33.65 29.30 23.93 39.36 21.47 Z" />
<path fill="#45e372" opacity="1.00" d=" M 26.33 105.33 C 57.08 106.61 84.15 133.46 86.43 164.06 C 86.48 168.43 81.20 171.57 77.38 169.46 C 73.65 167.89 73.77 163.37 73.03 160.02 C 68.95 137.91 49.27 120.15 26.99 117.79 C 20.02 117.64 19.44 106.23 26.33 105.33 Z" />
<path fill="#45e372" opacity="1.00" d=" M 25.22 128.12 C 44.33 127.95 61.58 145.24 63.80 163.96 C 64.12 170.82 53.06 172.39 51.55 165.64 C 49.44 154.65 41.53 144.67 30.62 141.43 C 27.82 140.38 24.17 140.36 22.39 137.60 C 20.18 134.43 21.56 129.50 25.22 128.12 Z" />
<path fill="#45e372" opacity="1.00" d=" M 27.29 153.39 C 33.09 151.39 39.62 156.94 38.53 162.98 C 37.95 169.76 28.58 173.09 23.85 168.16 C 18.88 163.98 20.99 154.95 27.29 153.39 Z" />
</g>
</svg>
