<?xml version="1.0" encoding="UTF-8" ?>
<!DOCTYPE svg PUBLIC "-//W3C//DTD SVG 1.1//EN" "http://www.w3.org/Graphics/SVG/1.1/DTD/svg11.dtd">
<svg width="192pt" height="192pt" viewBox="0 0 192 192" version="1.1" xmlns="http://www.w3.org/2000/svg">
<g id="#2ab9a2ff">
<path fill="#2ab9a2" opacity="1.00" d=" M 84.37 14.46 C 110.53 11.28 138.95 19.16 157.34 38.64 C 180.69 64.04 183.75 104.59 166.49 134.08 C 167.41 146.45 170.15 158.69 171.24 171.06 C 171.57 175.69 166.25 179.06 162.13 177.04 C 151.32 172.89 140.65 168.34 129.89 164.05 C 127.62 162.99 125.37 164.74 123.18 165.22 C 91.71 175.26 53.88 167.48 31.35 142.62 C 13.68 121.75 8.80 91.35 17.77 65.66 C 26.54 36.87 55.05 17.21 84.37 14.46 M 36.67 52.60 C 22.74 72.75 20.75 100.41 31.57 122.40 C 38.21 137.18 51.94 147.73 66.96 153.07 C 84.44 159.60 104.15 159.83 121.78 153.73 C 125.07 152.53 128.73 151.33 132.15 152.77 C 141.10 156.21 149.89 160.06 158.85 163.47 C 157.64 154.33 156.20 145.21 155.04 136.07 C 154.35 132.13 156.32 128.55 158.29 125.32 C 171.79 99.25 167.86 64.31 146.38 43.64 C 115.96 15.92 61.71 19.18 36.67 52.60 Z" />
<path fill="#2ab9a2" opacity="1.00" d=" M 90.33 40.35 C 97.57 38.04 104.63 41.93 111.60 43.44 C 116.62 45.10 123.81 45.29 125.64 51.33 C 128.11 59.57 130.51 67.85 132.71 76.17 C 134.07 80.43 130.44 84.91 126.00 84.53 C 105.67 84.60 85.33 84.55 65.00 84.52 C 60.49 85.04 56.73 80.42 58.21 76.11 C 60.23 68.25 62.58 60.46 64.75 52.63 C 65.48 49.51 67.63 46.65 70.84 45.81 C 77.32 43.92 83.86 42.25 90.33 40.35 M 75.43 56.21 C 73.94 61.90 72.06 67.48 70.88 73.24 C 87.31 73.32 103.73 73.27 120.15 73.23 C 118.65 67.58 116.93 61.99 115.41 56.34 C 108.65 54.49 101.97 51.85 94.99 51.11 C 88.34 52.18 81.97 54.61 75.43 56.21 Z" />
<path fill="#2ab9a2" opacity="1.00" d=" M 43.71 105.99 C 62.91 95.30 85.63 95.73 106.93 96.24 C 120.51 96.88 134.64 98.56 146.40 105.90 C 146.37 106.47 146.29 107.60 146.25 108.16 C 113.83 108.30 81.42 108.16 49.00 108.23 C 47.05 108.00 43.85 108.84 43.71 105.99 Z" />
<path fill="#2ab9a2" opacity="1.00" d=" M 105.08 124.01 C 109.90 116.75 120.75 115.75 128.88 116.77 C 126.72 126.46 111.94 131.32 105.08 124.01 Z" />
<path fill="#2ab9a2" opacity="1.00" d=" M 61.83 116.80 C 70.25 115.52 79.55 117.28 85.89 123.28 C 79.89 131.85 63.85 126.63 61.83 116.80 Z" />
</g>
</svg>
