<?xml version="1.0" encoding="UTF-8" ?>
<!DOCTYPE svg PUBLIC "-//W3C//DTD SVG 1.1//EN" "http://www.w3.org/Graphics/SVG/1.1/DTD/svg11.dtd">
<svg width="192pt" height="192pt" viewBox="0 0 192 192" version="1.1" xmlns="http://www.w3.org/2000/svg">
<g id="#ff3661ff">
<path fill="#ff3661" opacity="1.00" d=" M 39.30 21.38 C 42.81 20.57 46.43 20.73 50.01 20.72 C 82.34 20.78 114.67 20.67 147.00 20.76 C 158.85 20.71 169.47 31.11 169.78 42.93 C 169.84 49.92 170.05 56.92 169.69 63.90 C 169.13 69.30 160.75 69.98 159.11 64.86 C 157.98 57.37 159.24 49.70 158.49 42.16 C 157.69 36.24 151.94 31.72 146.04 31.86 C 112.69 31.78 79.34 31.84 45.98 31.81 C 39.96 31.42 33.90 35.66 32.80 41.68 C 31.88 49.38 33.27 57.23 32.12 64.89 C 30.49 70.02 22.07 69.22 21.53 63.83 C 21.13 56.91 21.36 49.95 21.44 43.01 C 21.77 32.90 29.44 23.62 39.30 21.38 Z" />
<path fill="#ff3661" opacity="1.00" d=" M 21.17 77.74 C 23.45 77.62 25.74 77.61 28.03 77.68 C 28.46 85.79 28.01 93.92 28.28 102.03 C 27.76 107.76 39.71 107.76 39.26 102.04 C 39.55 93.96 39.17 85.87 39.43 77.79 C 41.71 77.64 44.00 77.60 46.29 77.61 C 46.40 87.03 46.98 96.53 46.00 105.90 C 45.44 111.25 39.38 112.26 35.02 112.17 C 29.99 112.33 22.20 112.20 21.47 105.66 C 20.58 96.40 21.15 87.04 21.17 77.74 Z" />
<path fill="#ff3661" opacity="1.00" d=" M 52.93 77.74 C 59.16 77.60 65.56 76.91 71.67 78.38 C 76.18 79.68 76.73 85.06 76.64 89.01 C 76.56 92.87 76.95 97.87 73.32 100.31 C 69.30 102.44 64.55 101.64 60.18 101.85 C 60.02 105.10 59.88 108.36 59.62 111.62 C 57.36 111.58 55.11 111.51 52.86 111.36 C 52.81 100.15 52.69 88.94 52.93 77.74 M 60.13 83.65 C 59.86 87.65 59.84 91.66 59.95 95.67 C 62.84 95.45 66.12 96.34 68.72 94.69 C 69.87 91.50 69.97 87.61 68.52 84.50 C 65.90 83.31 62.92 83.80 60.13 83.65 Z" />
<path fill="#ff3661" opacity="1.00" d=" M 81.81 77.73 C 88.80 77.45 95.81 77.32 102.79 77.81 C 102.78 79.74 102.76 81.67 102.68 83.60 C 98.05 83.77 93.42 83.70 88.79 83.74 C 88.79 86.66 88.80 89.59 88.85 92.52 C 92.83 92.50 96.83 92.45 100.81 92.79 C 100.79 94.72 100.76 96.65 100.67 98.58 C 96.71 98.69 92.76 98.66 88.80 98.67 C 88.80 102.95 88.86 107.25 88.61 111.53 C 86.39 111.57 84.17 111.57 81.96 111.53 C 81.42 100.28 81.71 88.99 81.81 77.73 Z" />
<path fill="#ff3661" opacity="1.00" d=" M 107.46 77.81 C 109.63 77.62 111.83 77.41 114.01 77.73 C 115.25 86.86 114.18 96.22 114.55 105.44 C 119.09 105.46 123.64 105.36 128.18 105.69 C 128.13 107.63 128.07 109.57 127.94 111.51 C 121.14 111.64 114.34 111.71 107.55 111.45 C 107.24 100.24 107.41 89.02 107.46 77.81 Z" />
<path fill="#ff3661" opacity="1.00" d=" M 132.56 111.47 C 132.34 100.17 132.15 88.83 132.68 77.54 C 135.02 78.00 139.91 76.12 139.46 80.00 C 139.61 90.50 139.60 101.01 139.43 111.52 C 137.14 111.55 134.85 111.55 132.56 111.47 Z" />
<path fill="#ff3661" opacity="1.00" d=" M 144.46 77.68 C 153.19 74.70 154.21 84.94 157.45 90.41 C 160.95 84.98 161.81 74.63 170.69 77.67 C 168.74 83.39 165.74 88.67 163.18 94.12 C 165.73 99.95 169.05 105.44 171.14 111.47 C 168.90 111.55 166.63 111.76 164.40 111.44 C 161.58 107.53 160.10 102.82 157.63 98.69 C 155.41 102.85 153.79 107.33 151.22 111.30 C 148.93 111.93 146.52 111.46 144.20 111.31 C 146.30 105.40 149.96 100.15 151.89 94.20 C 149.73 88.55 146.36 83.44 144.46 77.68 Z" />
<path fill="#ff3661" opacity="1.00" d=" M 25.39 121.45 C 28.52 120.42 32.24 122.86 32.41 126.18 C 32.83 133.12 32.27 140.07 32.61 147.01 C 32.89 153.28 38.72 158.59 44.99 158.32 C 78.66 158.34 112.34 158.32 146.01 158.32 C 152.05 158.64 157.83 153.86 158.52 147.84 C 159.06 140.57 158.30 133.26 158.85 125.99 C 159.09 121.92 164.55 119.73 167.61 122.35 C 170.13 124.05 169.86 127.34 169.89 129.99 C 169.74 136.28 170.10 142.59 169.67 148.87 C 168.59 160.10 158.34 169.45 147.06 169.51 C 112.72 169.58 78.37 169.58 44.03 169.50 C 32.49 169.37 22.17 159.49 21.49 147.99 C 21.22 140.99 21.31 133.99 21.40 126.99 C 21.31 124.51 22.95 122.09 25.39 121.45 Z" />
</g>
</svg>
