<?xml version="1.0" encoding="UTF-8" ?>
<!DOCTYPE svg PUBLIC "-//W3C//DTD SVG 1.1//EN" "http://www.w3.org/Graphics/SVG/1.1/DTD/svg11.dtd">
<svg width="192pt" height="192pt" viewBox="0 0 192 192" version="1.1" xmlns="http://www.w3.org/2000/svg">
<g id="#19b4c4ff">
<path fill="#19b4c4" opacity="1.00" d=" M 47.37 12.50 C 55.49 10.79 64.13 12.54 71.15 16.89 C 98.80 33.25 126.58 49.39 154.17 65.84 C 169.38 75.22 173.52 97.66 163.01 112.01 C 159.42 117.52 153.71 121.04 148.11 124.22 C 123.16 138.89 98.20 153.58 73.26 168.28 C 57.85 179.89 33.39 174.51 24.85 157.08 C 19.26 146.97 21.06 135.02 21.01 123.96 C 21.45 118.62 29.66 117.39 31.71 122.33 C 34.08 132.20 29.68 143.46 35.36 152.63 C 40.91 162.39 54.65 166.09 64.28 160.21 C 92.16 143.79 120.09 127.46 147.88 110.91 C 160.51 103.34 160.38 82.70 147.65 75.30 C 119.82 58.78 91.91 42.37 63.99 26.00 C 53.29 19.59 38.00 25.21 33.89 36.95 C 30.62 45.53 33.66 55.00 31.84 63.78 C 30.05 68.70 22.06 68.09 21.14 62.92 C 20.59 55.95 20.83 48.92 21.05 41.93 C 21.88 27.63 33.39 15.14 47.37 12.50 Z" />
<path fill="#19b4c4" opacity="1.00" d=" M 60.45 65.54 C 63.51 61.06 70.70 60.36 73.93 65.02 C 78.19 70.05 73.66 78.78 67.03 77.88 C 63.18 78.62 61.26 72.62 57.58 74.55 C 55.18 79.31 55.35 84.85 53.90 89.91 C 63.78 90.10 73.66 89.99 83.53 89.98 C 84.00 87.79 82.49 84.36 84.96 83.20 C 89.98 86.45 94.75 90.14 99.32 94.01 C 94.50 98.07 89.70 102.45 83.94 105.10 C 83.67 102.81 83.53 100.50 83.46 98.19 C 76.32 98.21 69.17 98.23 62.03 98.17 C 64.17 103.96 61.85 116.08 71.34 114.30 C 71.43 112.99 71.52 111.69 71.62 110.39 C 76.92 109.97 82.26 109.98 87.57 110.38 C 87.76 115.69 87.82 121.01 87.51 126.32 C 82.27 126.40 77.03 126.46 71.79 126.25 C 71.58 124.97 71.38 123.69 71.18 122.42 C 67.22 122.47 62.58 122.52 59.79 119.18 C 54.48 113.46 56.85 104.56 52.69 98.41 C 49.37 97.97 46.01 98.23 42.68 98.24 C 39.66 106.55 27.64 109.08 22.02 102.00 C 16.03 95.69 19.73 84.01 28.26 82.29 C 34.66 80.47 40.56 84.96 43.20 90.51 C 48.46 87.16 46.57 79.76 48.72 74.62 C 49.84 69.09 54.89 65.43 60.45 65.54 Z" />
</g>
</svg>
