<?xml version="1.0" encoding="UTF-8" ?>
<!DOCTYPE svg PUBLIC "-//W3C//DTD SVG 1.1//EN" "http://www.w3.org/Graphics/SVG/1.1/DTD/svg11.dtd">
<svg width="192pt" height="192pt" viewBox="0 0 192 192" version="1.1" xmlns="http://www.w3.org/2000/svg">
<g id="#19afffff">
<path fill="#19afff" opacity="1.00" d=" M 16.17 30.90 C 16.59 19.45 27.79 10.57 39.00 11.64 C 43.47 10.63 49.54 13.56 47.91 18.90 C 46.64 23.88 40.78 22.72 36.94 22.91 C 31.59 22.69 26.90 27.61 27.31 32.93 C 27.42 55.95 27.05 78.98 27.51 101.99 C 29.50 136.06 60.73 165.30 95.00 164.25 C 128.61 164.77 159.32 136.33 161.34 102.78 C 161.82 80.17 161.45 57.54 161.55 34.93 C 161.74 28.32 155.59 22.56 149.03 22.95 C 140.88 23.18 132.56 22.10 124.52 23.58 C 124.06 49.05 124.66 74.54 124.22 100.00 C 123.32 116.99 106.79 130.84 89.93 129.04 C 74.19 128.00 60.98 113.68 60.87 97.97 C 60.81 70.98 60.69 43.97 60.94 16.98 C 61.12 10.47 71.75 10.51 72.00 16.97 C 72.39 44.34 71.94 71.73 72.22 99.09 C 72.69 109.95 83.26 118.87 94.02 117.82 C 104.57 117.30 113.34 107.50 113.07 97.00 C 113.17 71.98 113.07 46.95 113.15 21.92 C 113.01 16.22 118.38 11.38 123.99 11.69 C 132.98 11.70 141.98 11.55 150.97 11.77 C 162.87 12.18 173.15 23.05 172.83 34.96 C 172.82 56.99 173.01 79.03 172.75 101.07 C 171.81 132.89 148.99 162.33 118.68 171.76 C 96.62 178.95 71.41 175.79 51.96 163.09 C 34.01 151.66 21.27 132.56 17.46 111.64 C 15.54 102.21 16.17 92.55 16.07 83.00 C 16.13 65.64 15.96 48.27 16.17 30.90 Z" />
</g>
</svg>
