<?xml version="1.0" encoding="UTF-8" ?>
<!DOCTYPE svg PUBLIC "-//W3C//DTD SVG 1.1//EN" "http://www.w3.org/Graphics/SVG/1.1/DTD/svg11.dtd">
<svg width="192pt" height="192pt" viewBox="0 0 192 192" version="1.1" xmlns="http://www.w3.org/2000/svg">
<g id="#47e370ff">
<path fill="#47e370" opacity="1.00" d=" M 70.65 17.74 C 100.07 7.78 134.49 16.67 155.47 39.52 C 171.71 56.80 180.14 81.33 177.20 104.93 C 175.50 111.11 167.79 111.53 162.60 110.40 C 155.77 108.64 151.41 102.45 148.55 96.41 C 141.78 82.00 135.13 67.54 128.42 53.10 C 123.59 53.71 118.85 54.86 114.05 55.68 C 119.20 67.85 124.46 79.99 130.02 91.99 C 132.92 97.52 133.73 104.31 131.17 110.13 C 127.02 120.37 115.78 126.52 104.99 126.25 C 92.00 125.57 80.62 116.24 75.37 104.66 C 71.96 96.53 68.84 88.29 65.60 80.10 C 58.92 80.30 52.46 82.25 45.88 83.28 C 55.77 111.38 65.55 139.58 76.92 167.12 C 78.05 170.96 73.87 175.15 70.05 174.00 C 34.55 162.96 10.00 124.84 14.76 87.94 C 17.21 56.19 40.27 27.22 70.65 17.74 M 50.76 40.76 C 36.39 52.68 26.91 70.33 25.41 88.99 C 21.77 116.86 37.34 145.59 61.88 158.93 C 52.66 134.05 43.51 109.15 34.75 84.11 C 33.07 79.49 36.31 74.08 41.15 73.32 C 48.72 71.79 56.32 70.36 63.94 69.07 C 68.21 68.18 72.80 70.37 74.62 74.35 C 78.62 83.22 81.62 92.51 85.64 101.36 C 90.16 110.29 100.52 117.83 110.86 114.71 C 117.58 113.05 124.20 105.89 121.26 98.68 C 114.97 84.87 108.91 70.95 102.94 57.01 C 100.77 52.70 103.27 46.98 108.08 46.01 C 114.69 44.55 121.36 43.26 128.05 42.26 C 132.22 41.61 136.17 44.31 137.80 48.06 C 144.70 62.57 151.29 77.22 158.18 91.74 C 160.02 95.45 162.35 99.80 166.93 100.38 C 169.44 69.11 148.65 37.97 118.85 28.22 C 96.06 20.28 69.17 25.09 50.76 40.76 Z" />
<path fill="#47e370" opacity="1.00" d=" M 135.39 111.47 C 139.12 109.58 142.30 112.95 145.14 114.88 C 150.72 118.91 158.14 119.98 164.62 117.63 C 168.96 115.50 174.25 120.11 172.64 124.68 C 162.65 152.54 136.45 174.01 106.97 177.52 C 104.12 177.73 102.10 175.33 101.04 172.99 C 95.71 162.07 90.80 150.94 86.60 139.54 C 85.12 135.75 88.68 130.87 92.84 132.14 C 105.28 137.18 121.01 132.77 129.12 122.12 C 131.98 119.00 131.37 113.54 135.39 111.47 M 140.16 124.62 C 132.61 138.86 115.71 145.57 100.21 145.18 C 103.43 152.23 106.05 159.58 109.91 166.32 C 130.57 162.15 148.94 148.40 158.66 129.70 C 152.13 129.90 145.79 127.82 140.16 124.62 Z" />
</g>
</svg>
