<?xml version="1.0" encoding="UTF-8" ?>
<!DOCTYPE svg PUBLIC "-//W3C//DTD SVG 1.1//EN" "http://www.w3.org/Graphics/SVG/1.1/DTD/svg11.dtd">
<svg width="192pt" height="192pt" viewBox="0 0 192 192" version="1.1" xmlns="http://www.w3.org/2000/svg">
<g id="#1ab2ffff">
<path fill="#1ab2ff" opacity="1.00" d=" M 36.28 37.92 C 36.77 24.04 50.56 13.57 64.00 14.64 C 68.35 13.93 74.82 15.33 74.17 21.01 C 73.38 27.10 66.34 25.74 61.98 25.91 C 54.41 25.68 46.97 32.13 47.40 39.95 C 47.42 71.65 47.38 103.36 47.43 135.06 C 47.27 142.67 54.57 148.82 61.95 148.52 C 84.32 148.52 106.69 148.53 129.06 148.50 C 136.40 148.72 143.64 142.56 143.43 134.98 C 143.46 103.30 143.44 71.62 143.46 39.95 C 143.80 33.56 138.77 27.79 132.69 26.41 C 128.70 25.46 124.55 26.27 120.54 25.57 C 116.27 24.28 115.64 17.72 119.52 15.58 C 134.33 10.91 153.32 20.50 154.60 36.99 C 154.93 69.67 154.68 102.37 154.76 135.06 C 154.88 143.09 150.45 150.63 144.04 155.29 C 148.75 159.47 153.91 163.17 158.40 167.58 C 162.27 172.01 156.13 178.97 151.28 175.85 C 144.56 170.81 138.31 165.15 131.84 159.78 C 107.61 159.78 83.37 159.83 59.14 159.73 C 52.63 165.04 46.39 170.70 39.70 175.77 C 34.83 179.09 28.65 171.92 32.54 167.55 C 37.04 163.16 42.16 159.46 46.88 155.30 C 40.51 150.60 36.01 143.09 36.19 135.03 C 36.23 102.66 36.12 70.28 36.28 37.92 Z" />
<path fill="#1ab2ff" opacity="1.00" d=" M 83.31 15.30 C 90.39 13.94 97.80 14.97 105.01 14.70 C 109.49 14.11 113.02 19.66 110.33 23.38 C 108.67 26.39 104.87 25.81 101.99 25.89 C 96.08 25.68 90.15 26.16 84.26 25.65 C 79.44 24.66 78.79 17.19 83.31 15.30 Z" />
<path fill="#1ab2ff" opacity="1.00" d=" M 66.38 119.53 C 72.72 116.45 80.37 123.29 78.00 129.92 C 76.41 136.00 67.80 137.99 63.63 133.36 C 59.49 129.37 61.02 121.62 66.38 119.53 Z" />
<path fill="#1ab2ff" opacity="1.00" d=" M 118.24 119.30 C 124.09 116.99 130.86 122.66 129.57 128.82 C 128.86 135.35 119.86 138.34 115.29 133.70 C 110.56 129.69 112.31 121.13 118.24 119.30 Z" />
</g>
</svg>
