<?xml version="1.0" encoding="UTF-8" ?>
<!DOCTYPE svg PUBLIC "-//W3C//DTD SVG 1.1//EN" "http://www.w3.org/Graphics/SVG/1.1/DTD/svg11.dtd">
<svg width="192pt" height="192pt" viewBox="0 0 192 192" version="1.1" xmlns="http://www.w3.org/2000/svg">
<g id="#a61affff">
<path fill="#a61aff" opacity="1.00" d=" M 54.37 21.44 C 58.15 19.29 62.52 22.93 62.03 26.99 C 62.46 43.91 77.00 58.90 93.90 59.75 C 108.99 61.14 124.08 51.22 128.91 36.90 C 130.70 32.59 130.37 27.82 131.50 23.39 C 133.50 19.15 140.65 20.30 141.17 24.99 C 142.19 47.07 123.90 67.61 102.04 69.93 C 79.56 73.31 56.59 56.72 52.51 34.42 C 52.01 30.23 49.86 24.13 54.37 21.44 Z" />
<path fill="#a61aff" opacity="1.00" d=" M 71.28 21.24 C 87.09 20.09 103.15 21.01 119.05 20.77 C 125.71 20.09 126.53 31.32 119.91 31.65 C 104.31 31.85 88.69 31.82 73.09 31.65 C 67.81 31.48 66.58 23.32 71.28 21.24 Z" />
<path fill="#a61aff" opacity="1.00" d=" M 37.31 22.36 C 42.93 18.94 48.88 27.77 43.53 31.48 C 38.46 33.76 33.03 37.70 33.29 43.92 C 33.22 77.97 33.26 112.02 33.27 146.07 C 33.02 152.83 39.26 158.80 46.00 158.34 C 79.67 158.32 113.33 158.32 147.00 158.31 C 153.71 158.72 159.78 152.77 159.65 146.08 C 159.70 112.05 159.73 78.02 159.64 43.99 C 159.78 38.41 155.35 34.52 150.88 32.05 C 146.31 29.16 149.56 21.21 154.85 22.28 C 164.49 25.02 171.21 35.04 170.85 44.97 C 170.85 78.66 170.90 112.36 170.84 146.05 C 171.17 158.35 160.36 169.46 148.07 169.51 C 113.69 169.58 79.31 169.56 44.94 169.50 C 32.60 169.50 21.77 158.38 22.06 146.04 C 22.04 112.01 22.04 77.97 22.09 43.93 C 22.08 34.51 28.47 25.56 37.31 22.36 Z" />
<path fill="#a61aff" opacity="1.00" d=" M 79.16 105.16 C 81.54 105.04 83.93 105.03 86.31 105.07 C 86.42 107.19 86.46 109.32 86.45 111.44 C 84.00 111.50 81.54 111.47 79.10 111.31 C 79.06 109.26 79.08 107.21 79.16 105.16 Z" />
<path fill="#a61aff" opacity="1.00" d=" M 48.85 114.41 C 51.01 114.38 53.20 114.20 55.34 114.62 C 58.07 120.77 59.29 127.48 61.52 133.82 C 64.03 127.62 65.06 120.89 67.80 114.79 C 70.06 113.95 72.55 114.46 74.90 114.48 C 72.93 123.42 69.44 131.95 66.82 140.71 C 66.19 144.87 60.84 144.09 57.94 143.10 C 54.44 133.74 51.04 124.18 48.85 114.41 Z" />
<path fill="#a61aff" opacity="1.00" d=" M 79.09 114.63 C 81.61 114.65 86.79 112.82 86.49 116.97 C 86.56 125.83 86.61 134.70 86.42 143.56 C 84.10 143.39 81.06 144.50 79.22 142.88 C 78.70 133.49 79.05 124.04 79.09 114.63 Z" />
<path fill="#a61aff" opacity="1.00" d=" M 90.08 114.47 C 92.21 114.38 94.36 114.20 96.48 114.53 C 99.49 120.55 100.44 127.39 102.84 133.67 C 105.34 127.60 106.33 120.99 109.01 115.02 C 110.91 113.61 113.92 114.65 116.23 114.45 C 113.82 124.19 110.53 133.75 107.04 143.15 C 104.19 144.02 98.92 144.89 98.19 140.88 C 95.55 132.06 92.02 123.48 90.08 114.47 Z" />
<path fill="#a61aff" opacity="1.00" d=" M 125.30 114.40 C 130.38 113.87 136.39 113.00 140.75 116.26 C 144.27 120.26 142.99 126.12 143.29 131.00 C 143.37 135.62 143.24 142.46 137.48 143.53 C 130.93 144.92 119.26 145.39 119.09 136.06 C 119.64 128.96 115.84 116.80 125.30 114.40 M 127.27 120.37 C 126.42 125.93 125.64 132.07 127.52 137.45 C 130.00 138.12 134.77 139.10 135.39 135.62 C 135.81 131.24 135.83 126.78 135.36 122.41 C 134.63 118.76 129.90 120.54 127.27 120.37 Z" />
</g>
</svg>
