<?xml version="1.0" encoding="UTF-8" ?>
<!DOCTYPE svg PUBLIC "-//W3C//DTD SVG 1.1//EN" "http://www.w3.org/Graphics/SVG/1.1/DTD/svg11.dtd">
<svg width="192pt" height="192pt" viewBox="0 0 192 192" version="1.1" xmlns="http://www.w3.org/2000/svg">
<g id="#18adffff">
<path fill="#18adff" opacity="1.00" d=" M 35.23 32.87 C 32.59 23.72 38.58 13.07 48.00 11.11 C 56.48 8.68 65.98 14.03 68.60 22.37 C 73.29 36.70 77.63 51.14 82.38 65.45 C 87.04 51.03 91.38 36.50 96.15 22.12 C 98.90 13.80 108.43 8.68 116.88 11.14 C 126.20 13.09 131.87 23.61 129.49 32.61 C 126.33 44.06 122.91 55.43 119.54 66.82 C 127.33 66.69 134.62 71.55 137.04 79.02 C 148.25 76.75 159.44 87.33 156.58 98.66 C 153.12 109.54 151.90 121.59 144.82 130.88 C 143.08 150.80 128.40 169.11 108.65 173.58 C 86.63 179.64 60.56 169.45 50.82 148.28 C 44.45 134.41 46.48 118.73 46.47 103.95 C 46.05 95.83 53.31 88.97 61.14 88.42 C 72.74 87.74 84.38 87.88 96.00 87.70 C 101.69 87.61 107.97 88.59 112.07 92.92 C 119.47 100.24 118.68 114.03 110.15 120.15 C 104.62 123.99 97.55 123.15 91.18 123.26 C 93.95 129.28 95.02 136.18 93.55 142.68 C 92.19 147.24 84.62 147.41 83.11 142.89 C 82.16 138.31 83.79 133.13 81.01 128.99 C 78.55 125.15 73.76 124.26 70.36 121.61 C 67.22 118.82 68.80 112.78 73.10 112.31 C 82.58 111.58 92.23 112.88 101.64 111.52 C 107.55 109.84 107.11 99.86 100.59 99.63 C 88.38 99.28 76.14 99.54 63.92 99.49 C 60.58 99.10 57.35 101.68 57.60 105.17 C 57.32 121.56 55.17 141.16 68.66 153.35 C 83.67 168.11 111.30 167.12 124.65 150.61 C 132.31 142.28 130.58 129.45 138.06 120.97 C 141.80 113.70 142.98 105.36 145.51 97.60 C 147.22 93.79 144.11 89.49 140.00 89.71 C 135.67 89.75 136.11 96.32 131.97 96.48 C 128.57 96.39 123.78 93.39 125.42 89.41 C 126.83 85.82 127.52 80.77 123.36 78.71 C 119.25 76.18 116.12 82.43 112.10 80.07 C 109.77 78.91 104.46 78.93 105.37 75.20 C 109.54 59.85 114.33 44.67 118.46 29.31 C 120.11 22.94 109.92 19.09 107.31 25.30 C 101.16 42.81 96.19 60.74 90.20 78.31 C 88.15 85.21 76.93 85.23 74.57 78.55 C 68.45 61.05 63.65 43.06 57.46 25.59 C 55.13 19.39 44.66 22.40 46.24 28.95 C 50.12 45.11 55.73 60.87 59.60 77.03 C 60.24 83.05 50.67 85.08 48.80 79.35 C 44.10 63.92 39.65 48.39 35.23 32.87 Z" />
</g>
</svg>
