<?xml version="1.0" encoding="UTF-8" ?>
<!DOCTYPE svg PUBLIC "-//W3C//DTD SVG 1.1//EN" "http://www.w3.org/Graphics/SVG/1.1/DTD/svg11.dtd">
<svg width="192pt" height="192pt" viewBox="0 0 192 192" version="1.1" xmlns="http://www.w3.org/2000/svg">
<g id="#ff3662ff">
<path fill="#ff3662" opacity="1.00" d=" M 38.36 21.45 C 41.50 20.63 44.78 20.72 48.00 20.72 C 81.34 20.81 114.69 20.60 148.03 20.82 C 161.11 21.32 171.43 34.22 169.88 47.08 C 170.73 51.56 165.82 55.42 161.73 53.26 C 158.17 51.56 158.75 47.18 158.62 43.93 C 158.75 37.32 152.55 31.71 146.07 31.85 C 112.36 31.80 78.65 31.81 44.94 31.83 C 40.03 31.71 35.08 34.47 33.05 39.02 C 31.32 42.60 32.26 46.69 31.45 50.44 C 29.88 54.75 22.99 54.95 21.27 50.66 C 18.02 38.43 25.84 24.35 38.36 21.45 Z" />
<path fill="#ff3662" opacity="1.00" d=" M 13.87 64.19 C 16.19 64.03 18.51 64.00 20.83 64.09 C 23.45 72.32 25.45 80.73 27.84 89.03 C 30.35 80.73 32.27 72.27 34.92 64.02 C 37.20 63.99 39.49 64.03 41.77 64.20 C 39.40 74.32 35.88 84.13 33.09 94.13 C 32.66 98.65 26.20 98.00 23.60 96.45 C 19.93 85.86 16.76 75.03 13.87 64.19 Z" />
<path fill="#ff3662" opacity="1.00" d=" M 47.59 67.59 C 47.90 62.31 58.04 62.23 58.54 67.40 C 61.42 77.36 64.74 87.20 67.29 97.25 C 62.38 98.62 58.56 96.48 58.42 91.21 C 54.97 91.19 51.52 91.19 48.07 91.19 C 47.47 93.25 46.85 95.30 46.22 97.34 C 43.82 97.36 41.43 97.31 39.04 97.13 C 41.30 87.13 44.85 77.47 47.59 67.59 M 49.57 85.48 C 52.03 85.51 54.48 85.53 56.94 85.54 C 55.75 81.07 54.48 76.61 53.21 72.16 C 52.10 76.63 50.82 81.05 49.57 85.48 Z" />
<path fill="#ff3662" opacity="1.00" d=" M 70.71 63.97 C 76.85 64.24 83.17 63.24 89.20 64.77 C 93.22 65.79 94.10 70.40 94.14 73.95 C 94.35 78.62 94.35 84.78 89.13 86.77 C 90.67 90.26 92.63 93.57 93.66 97.27 C 91.41 97.33 89.15 97.34 86.90 97.32 C 85.27 94.03 83.75 90.69 82.23 87.35 C 80.65 87.33 79.07 87.31 77.48 87.29 C 77.52 90.63 77.49 93.97 77.29 97.31 C 74.99 97.39 72.68 97.34 70.40 97.01 C 70.51 86.00 69.91 74.95 70.71 63.97 M 77.46 70.13 C 77.48 73.84 77.48 77.54 77.48 81.25 C 80.19 81.20 83.01 81.57 85.63 80.71 C 87.85 78.31 87.11 74.42 86.48 71.49 C 84.33 69.00 80.38 70.52 77.46 70.13 Z" />
<path fill="#ff3662" opacity="1.00" d=" M 105.55 64.61 C 108.50 63.70 114.33 62.57 115.13 66.83 C 118.00 76.98 121.61 86.95 123.94 97.25 C 121.63 97.34 119.31 97.34 117.00 97.25 C 116.41 95.29 115.85 93.32 115.32 91.34 C 111.83 91.15 108.34 91.16 104.84 91.20 C 104.26 93.24 103.66 95.27 103.06 97.31 C 100.62 97.36 98.17 97.32 95.74 97.17 C 98.62 86.22 101.82 75.28 105.55 64.61 M 106.36 85.50 C 108.80 85.51 111.25 85.52 113.70 85.52 C 112.52 81.11 111.28 76.71 110.00 72.33 C 108.79 76.72 107.59 81.11 106.36 85.50 Z" />
<path fill="#ff3662" opacity="1.00" d=" M 126.35 69.27 C 128.24 61.65 138.14 63.61 144.01 63.81 C 150.49 63.92 151.53 71.22 151.21 76.26 C 148.92 76.41 146.63 76.41 144.35 76.22 C 145.65 69.58 138.30 67.77 133.62 70.60 C 132.18 76.55 132.86 82.87 133.12 88.94 C 133.43 92.67 138.27 91.78 140.87 91.69 C 144.57 91.65 143.89 87.17 143.99 84.67 C 142.49 84.59 141.00 84.51 139.51 84.41 C 139.45 82.78 139.42 81.15 139.40 79.52 C 143.17 79.15 146.98 79.20 150.77 79.35 C 151.43 84.16 151.66 89.29 149.96 93.91 C 147.44 98.50 141.34 97.62 136.94 97.77 C 132.73 97.97 126.97 96.95 126.30 91.87 C 125.44 84.41 125.38 76.72 126.35 69.27 Z" />
<path fill="#ff3662" opacity="1.00" d=" M 156.15 64.15 C 162.85 63.80 169.57 63.96 176.28 64.05 C 176.46 65.90 176.57 67.77 176.65 69.63 C 172.18 70.48 167.61 70.06 163.10 70.09 C 163.10 72.59 163.09 75.09 163.09 77.59 C 166.99 77.58 170.91 77.44 174.80 77.91 C 174.76 79.77 174.72 81.64 174.62 83.51 C 170.79 83.64 166.96 83.63 163.13 83.58 C 163.11 86.14 163.09 88.69 163.08 91.25 C 167.59 91.27 172.11 91.16 176.62 91.43 C 176.48 93.30 177.50 95.78 176.03 97.24 C 169.41 97.50 162.75 97.49 156.12 97.16 C 155.86 86.16 155.82 75.14 156.15 64.15 Z" />
<path fill="#ff3662" opacity="1.00" d=" M 48.55 107.52 C 53.34 104.67 59.55 105.40 64.83 106.29 C 69.14 107.20 69.82 112.38 69.40 116.03 C 67.63 117.57 64.90 116.55 62.73 116.64 C 62.38 114.93 62.03 113.21 61.61 111.51 C 59.30 111.43 56.95 111.20 54.66 111.60 C 52.61 113.56 52.88 118.41 56.34 118.68 C 60.93 120.53 68.69 119.92 69.79 126.09 C 70.36 130.61 71.00 137.96 65.18 139.24 C 60.59 140.03 55.71 140.17 51.17 139.02 C 46.83 137.73 46.90 132.40 47.06 128.75 C 49.28 128.55 51.52 128.55 53.75 128.73 C 53.99 130.36 54.24 131.99 54.50 133.62 C 59.55 135.57 65.11 133.35 62.71 127.24 C 57.82 124.97 51.47 125.52 47.55 121.46 C 45.94 117.14 45.52 111.32 48.55 107.52 Z" />
<path fill="#ff3662" opacity="1.00" d=" M 81.51 106.52 C 84.56 105.87 90.18 104.56 91.00 108.84 C 93.93 118.99 97.42 128.99 99.88 139.27 C 97.56 139.40 95.23 139.40 92.90 139.30 C 92.28 137.29 91.67 135.28 91.08 133.27 C 87.63 133.24 84.17 133.25 80.72 133.28 C 80.15 135.29 79.57 137.30 79.00 139.31 C 76.56 139.41 74.12 139.39 71.69 139.25 C 74.44 128.22 77.76 117.25 81.51 106.52 M 85.93 114.76 C 84.58 118.99 83.43 123.29 82.25 127.57 C 84.69 127.58 87.14 127.59 89.58 127.59 C 88.43 123.30 87.33 118.98 85.93 114.76 Z" />
<path fill="#ff3662" opacity="1.00" d=" M 103.18 106.16 C 105.39 106.03 107.61 106.02 109.83 106.14 C 110.54 115.18 109.98 124.26 110.16 133.32 C 114.33 133.42 118.52 133.09 122.68 133.47 C 124.71 134.69 123.38 137.53 123.41 139.42 C 116.65 139.32 109.87 139.72 103.13 139.16 C 102.93 128.17 102.84 117.15 103.18 106.16 Z" />
<path fill="#ff3662" opacity="1.00" d=" M 127.16 106.16 C 133.88 105.87 140.62 105.96 147.35 106.11 C 147.49 108.04 147.53 109.98 147.46 111.93 C 143.01 112.23 138.55 112.15 134.10 112.09 C 134.10 114.61 134.09 117.13 134.08 119.65 C 137.98 119.64 141.89 119.52 145.77 119.96 C 145.75 121.82 145.73 123.68 145.66 125.54 C 141.82 125.70 137.98 125.69 134.14 125.64 C 134.11 128.20 134.09 130.76 134.08 133.31 C 138.59 133.33 143.10 133.24 147.60 133.48 C 147.44 135.33 148.60 137.98 146.97 139.28 C 140.36 139.56 133.70 139.59 127.08 139.17 C 126.91 128.17 126.78 117.15 127.16 106.16 Z" />
<path fill="#ff3662" opacity="1.00" d=" M 24.41 136.41 C 29.04 134.66 32.88 139.61 31.86 143.97 C 30.96 151.09 36.55 158.43 43.96 158.30 C 78.32 158.34 112.69 158.37 147.04 158.27 C 154.24 158.17 159.60 150.97 158.68 144.04 C 157.77 139.87 161.07 134.94 165.67 136.26 C 170.54 137.44 170.07 143.19 169.83 147.07 C 169.68 159.05 158.93 169.47 146.99 169.51 C 112.66 169.59 78.33 169.55 44.01 169.53 C 32.26 169.66 21.55 159.75 20.81 148.03 C 20.63 144.05 19.63 138.12 24.41 136.41 Z" />
</g>
</svg>
