<?xml version="1.0" encoding="UTF-8" ?>
<!DOCTYPE svg PUBLIC "-//W3C//DTD SVG 1.1//EN" "http://www.w3.org/Graphics/SVG/1.1/DTD/svg11.dtd">
<svg width="192pt" height="192pt" viewBox="0 0 192 192" version="1.1" xmlns="http://www.w3.org/2000/svg">
<g id="#6672d7ff">
<path fill="#6672d7" opacity="1.00" d=" M 152.28 18.39 C 165.18 13.87 179.73 25.87 176.57 39.40 C 166.46 76.98 156.54 114.63 146.24 152.16 C 141.24 169.88 118.69 178.72 102.63 170.40 C 95.17 166.81 90.59 159.67 85.34 153.63 C 65.02 129.07 43.93 105.13 21.97 82.03 C 14.78 74.64 11.98 63.15 15.53 53.39 C 18.65 43.62 27.54 36.07 37.69 34.60 C 75.91 29.36 114.13 24.11 152.28 18.39 M 154.43 29.58 C 118.90 34.88 83.31 39.80 47.71 44.63 C 42.77 45.39 37.41 45.39 33.07 48.22 C 26.69 52.21 23.60 60.75 26.18 67.86 C 27.78 72.76 31.97 76.03 35.28 79.73 C 58.51 104.28 80.45 129.99 102.08 155.95 C 111.28 167.02 131.76 162.50 135.53 148.63 C 145.71 111.57 155.55 74.40 165.38 37.25 C 166.82 31.04 159.65 27.40 154.43 29.58 Z" />
<path fill="#6672d7" opacity="1.00" d=" M 117.37 52.46 C 128.08 48.61 139.54 60.55 135.18 71.07 C 130.82 80.21 125.81 89.06 121.10 98.04 C 117.06 105.69 105.65 107.64 99.33 101.70 C 93.55 96.14 87.87 90.45 82.34 84.64 C 75.90 77.71 78.99 65.04 87.94 61.91 C 97.69 58.59 107.56 55.60 117.37 52.46 M 120.41 63.45 C 111.01 66.31 101.64 69.30 92.31 72.37 C 89.92 72.90 89.56 76.20 91.26 77.67 C 96.18 82.79 101.21 87.81 106.28 92.78 C 107.81 94.66 110.95 93.99 111.75 91.75 C 116.00 83.69 120.38 75.67 124.39 67.49 C 125.67 65.11 122.81 62.32 120.41 63.45 Z" />
</g>
</svg>
