<?xml version="1.0" encoding="UTF-8" ?>
<!DOCTYPE svg PUBLIC "-//W3C//DTD SVG 1.1//EN" "http://www.w3.org/Graphics/SVG/1.1/DTD/svg11.dtd">
<svg width="192pt" height="192pt" viewBox="0 0 192 192" version="1.1" xmlns="http://www.w3.org/2000/svg">
<g id="#ff3661ff">
<path fill="#ff3661" opacity="1.00" d=" M 40.27 21.31 C 75.76 19.97 111.43 21.11 146.98 20.73 C 159.55 20.19 171.02 31.37 170.82 43.94 C 170.88 77.98 170.87 112.02 170.83 146.06 C 171.16 158.35 160.33 169.45 148.06 169.52 C 113.69 169.58 79.32 169.56 44.95 169.52 C 32.62 169.50 21.79 158.37 22.06 146.05 C 22.04 112.01 22.02 77.97 22.08 43.94 C 21.97 33.37 30.00 23.55 40.27 21.31 M 42.28 32.34 C 37.23 33.73 33.18 38.59 33.29 43.93 C 33.24 77.97 33.27 112.02 33.28 146.07 C 33.03 152.80 39.29 158.78 46.00 158.33 C 79.67 158.33 113.33 158.33 147.00 158.32 C 153.69 158.71 159.80 152.75 159.66 146.07 C 159.69 112.02 159.72 77.97 159.65 43.92 C 159.72 36.88 152.87 31.22 146.00 31.82 C 111.44 32.19 76.77 31.11 42.28 32.34 Z" />
<path fill="#ff3661" opacity="1.00" d=" M 67.38 78.36 C 76.42 73.99 88.20 79.05 91.83 88.26 C 94.39 93.90 93.37 100.45 90.34 105.68 C 94.51 105.72 98.69 105.73 102.87 105.75 C 99.88 100.53 98.86 94.01 101.32 88.37 C 104.67 79.64 115.32 74.49 124.19 77.74 C 134.01 80.48 139.90 92.49 135.95 101.91 C 133.36 109.28 125.76 114.15 118.05 114.15 C 103.68 114.10 89.31 114.12 74.95 114.14 C 67.27 114.06 59.72 109.20 57.23 101.82 C 53.63 92.97 58.44 81.78 67.38 78.36 M 72.26 85.32 C 67.51 86.33 63.81 91.06 64.27 95.96 C 64.34 102.07 70.69 107.13 76.67 105.62 C 82.93 104.69 86.82 97.35 84.38 91.59 C 82.63 86.82 77.16 84.09 72.26 85.32 M 115.34 85.47 C 108.04 87.48 105.73 97.68 111.16 102.84 C 116.51 108.55 127.31 105.50 128.71 97.74 C 130.82 90.19 122.66 82.93 115.34 85.47 Z" />
</g>
</svg>
