<?xml version="1.0" encoding="UTF-8" ?>
<!DOCTYPE svg PUBLIC "-//W3C//DTD SVG 1.1//EN" "http://www.w3.org/Graphics/SVG/1.1/DTD/svg11.dtd">
<svg width="192pt" height="192pt" viewBox="0 0 192 192" version="1.1" xmlns="http://www.w3.org/2000/svg">
<g id="#ff3661ff">
<path fill="#ff3661" opacity="1.00" d=" M 51.77 34.83 C 55.21 24.89 65.26 17.02 76.01 17.78 C 101.00 17.89 125.99 17.66 150.98 17.85 C 160.24 17.77 168.97 23.97 172.56 32.40 C 175.72 39.49 175.25 47.43 175.33 55.00 C 175.34 69.66 175.61 84.32 175.65 98.98 C 175.64 108.22 172.63 118.22 164.81 123.80 C 159.23 128.12 151.98 129.06 145.13 128.70 C 144.99 133.10 145.38 137.55 144.77 141.93 C 144.30 145.71 139.78 148.29 136.33 146.58 C 123.68 141.09 111.59 134.30 98.95 128.82 C 89.79 128.25 80.56 129.16 71.40 128.41 C 59.64 126.82 50.64 115.72 50.20 104.08 C 49.94 86.39 50.15 68.70 50.12 51.00 C 50.12 45.59 49.79 39.98 51.77 34.83 M 61.42 43.94 C 61.31 63.31 61.39 82.69 61.39 102.07 C 61.18 108.63 65.38 115.55 72.02 117.05 C 81.98 118.24 92.14 116.50 102.08 117.89 C 112.86 122.38 123.14 128.06 133.76 132.96 C 133.94 127.90 132.30 120.67 138.07 118.08 C 144.28 116.16 151.53 119.11 157.29 115.28 C 163.41 111.48 164.51 103.60 164.41 97.00 C 164.08 79.30 164.24 61.59 163.83 43.90 C 163.84 36.83 158.70 29.14 151.08 29.18 C 125.70 29.04 100.32 29.19 74.95 29.11 C 67.22 28.88 61.35 36.63 61.42 43.94 Z" />
<path fill="#ff3661" opacity="1.00" d=" M 20.71 79.69 C 26.84 75.57 34.61 76.39 41.61 76.61 C 46.85 77.08 48.03 85.10 43.23 87.18 C 38.17 88.69 32.56 86.53 27.62 88.70 C 24.19 90.34 23.23 94.46 23.32 97.94 C 23.28 109.98 23.45 122.02 23.33 134.06 C 23.22 137.08 24.03 140.50 26.80 142.17 C 31.08 145.25 37.32 141.90 41.18 145.81 C 43.46 147.91 43.48 151.17 43.61 154.02 C 50.18 150.86 56.20 146.48 63.10 144.07 C 71.50 142.99 80.09 144.57 88.46 142.99 C 87.39 137.52 93.88 132.22 98.30 136.70 C 102.47 142.46 98.36 151.80 91.69 153.75 C 83.06 156.07 73.98 154.54 65.19 155.35 C 56.25 159.24 48.31 165.59 39.00 168.51 C 31.85 168.80 31.82 160.25 32.12 155.18 C 22.13 155.07 12.59 147.38 12.21 137.05 C 11.83 124.03 12.13 110.99 12.05 97.97 C 11.86 90.99 14.65 83.58 20.71 79.69 Z" />
</g>
</svg>
