<?xml version="1.0" encoding="UTF-8" ?>
<!DOCTYPE svg PUBLIC "-//W3C//DTD SVG 1.1//EN" "http://www.w3.org/Graphics/SVG/1.1/DTD/svg11.dtd">
<svg width="192pt" height="192pt" viewBox="0 0 192 192" version="1.1" xmlns="http://www.w3.org/2000/svg">
<g id="#18b9c5ff">
<path fill="#18b9c5" opacity="1.00" d=" M 78.92 22.91 C 85.63 17.95 94.76 11.97 103.05 16.93 C 125.17 27.00 135.27 52.66 134.32 75.79 C 149.56 88.12 158.21 107.28 159.51 126.64 C 159.38 132.71 149.58 133.44 148.55 127.45 C 146.86 114.52 142.94 101.42 134.26 91.40 C 134.14 106.61 134.29 121.82 134.19 137.03 C 134.44 140.04 132.14 143.10 129.04 143.22 C 121.99 143.48 114.92 143.26 107.86 143.30 C 113.98 151.14 120.42 158.73 126.51 166.59 C 129.39 169.97 126.48 175.90 122.00 175.52 C 104.67 175.61 87.33 175.60 70.00 175.51 C 65.53 175.89 62.56 169.93 65.49 166.57 C 69.36 162.10 73.71 158.07 77.68 153.68 C 79.64 151.70 81.71 148.89 84.87 149.32 C 88.66 149.52 91.20 154.10 89.37 157.43 C 87.70 159.94 85.37 161.94 83.37 164.18 C 92.27 164.29 101.17 164.27 110.07 164.19 C 104.64 157.16 98.89 150.39 93.44 143.39 C 83.62 143.20 73.80 143.42 63.98 143.29 C 60.98 143.52 57.91 141.14 57.88 138.04 C 57.63 122.48 58.03 106.90 57.67 91.33 C 48.83 101.66 44.93 115.10 43.27 128.35 C 42.16 133.88 33.32 133.50 32.45 127.97 C 33.41 108.19 42.04 88.33 57.71 75.81 C 57.18 56.39 62.96 35.25 78.92 22.91 M 69.27 66.92 C 68.85 88.59 69.23 110.28 69.07 131.96 C 87.03 132.04 105.00 131.99 122.96 131.98 C 122.83 110.63 123.20 89.26 122.77 67.91 C 121.92 50.89 112.93 32.27 96.00 26.35 C 79.09 31.75 70.07 50.14 69.27 66.92 Z" />
<path fill="#18b9c5" opacity="1.00" d=" M 91.36 60.54 C 98.23 57.82 106.74 62.01 108.74 69.12 C 111.08 75.90 106.79 83.98 99.88 85.85 C 93.08 88.21 85.04 83.80 83.19 76.89 C 81.07 70.38 84.90 62.76 91.36 60.54 Z" />
</g>
</svg>
