<?xml version="1.0" encoding="UTF-8" ?>
<!DOCTYPE svg PUBLIC "-//W3C//DTD SVG 1.1//EN" "http://www.w3.org/Graphics/SVG/1.1/DTD/svg11.dtd">
<svg width="192pt" height="192pt" viewBox="0 0 192 192" version="1.1" xmlns="http://www.w3.org/2000/svg">
<g id="#606f80ff">
<path fill="#606f80" opacity="1.00" d=" M 38.28 19.32 C 68.44 17.97 98.77 19.11 129.00 18.73 C 135.67 18.89 142.37 18.37 149.02 19.03 C 160.02 20.51 168.96 30.83 168.83 41.94 C 168.89 75.98 168.88 110.01 168.85 144.05 C 169.23 156.37 158.35 167.51 146.06 167.55 C 111.69 167.62 77.31 167.60 42.95 167.55 C 30.60 167.55 19.75 156.38 20.06 144.04 C 20.03 110.01 20.03 75.97 20.08 41.94 C 19.97 31.38 28.00 21.55 38.28 19.32 M 40.30 30.41 C 35.27 31.76 31.18 36.62 31.33 41.93 C 31.27 75.97 31.31 110.02 31.31 144.06 C 31.05 150.80 37.29 156.77 44.00 156.33 C 77.67 156.32 111.33 156.32 145.00 156.31 C 151.69 156.70 157.80 150.75 157.64 144.07 C 157.71 110.36 157.66 76.64 157.67 42.93 C 158.17 36.08 152.00 29.45 145.02 30.14 C 110.13 30.55 75.13 28.84 40.30 30.41 Z" />
<path fill="#606f80" opacity="1.00" d=" M 45.70 74.61 C 49.74 74.44 53.78 74.47 57.82 74.67 C 60.00 80.85 61.64 87.21 64.00 93.33 C 66.36 87.20 67.91 80.81 70.07 74.62 C 77.80 74.42 85.53 74.60 93.25 74.50 C 93.76 78.74 93.59 83.02 93.68 87.28 C 96.73 87.49 99.80 87.47 102.84 87.14 C 102.91 82.95 102.88 78.75 103.01 74.56 C 106.76 74.53 110.51 74.52 114.26 74.49 C 114.79 78.73 114.56 83.01 114.72 87.27 C 118.14 87.44 121.56 87.45 124.97 87.30 C 122.58 76.80 134.70 72.68 143.01 74.55 C 143.14 87.07 143.29 99.60 142.94 112.11 C 139.20 112.24 135.45 112.21 131.73 111.86 C 131.04 103.96 132.15 96.01 131.17 88.13 C 129.35 88.13 127.54 88.15 125.73 88.19 C 125.59 91.66 125.59 95.14 125.57 98.61 C 122.16 99.43 118.65 99.05 115.19 99.28 C 113.84 103.26 115.05 107.86 114.44 112.06 C 110.62 112.25 106.79 112.25 102.99 111.84 C 102.86 107.64 102.89 103.45 102.71 99.26 C 99.75 99.19 96.79 99.16 93.83 99.14 C 93.47 103.42 93.73 107.71 93.39 111.99 C 89.55 112.28 85.68 112.25 81.85 111.80 C 81.40 100.71 81.94 89.60 81.50 78.50 C 76.55 89.33 73.29 100.82 68.79 111.83 C 65.58 112.29 62.32 112.24 59.11 111.79 C 54.61 99.41 49.76 87.14 45.70 74.61 Z" />
</g>
</svg>
