<?xml version="1.0" encoding="UTF-8" ?>
<!DOCTYPE svg PUBLIC "-//W3C//DTD SVG 1.1//EN" "http://www.w3.org/Graphics/SVG/1.1/DTD/svg11.dtd">
<svg width="192pt" height="192pt" viewBox="0 0 192 192" version="1.1" xmlns="http://www.w3.org/2000/svg">
<g id="#a61affff">
<path fill="#a61aff" opacity="1.00" d=" M 84.41 13.52 C 105.80 10.47 128.33 16.33 145.47 29.51 C 169.74 47.75 182.33 80.21 176.16 110.01 C 170.37 140.52 145.60 165.97 115.67 173.65 C 102.78 177.39 89.25 176.43 76.00 176.54 C 58.67 176.51 41.33 176.60 24.00 176.50 C 20.18 176.88 16.85 172.74 18.17 169.12 C 21.16 161.85 27.41 155.95 28.48 147.94 C 29.43 139.84 23.00 133.78 20.51 126.60 C 8.30 98.55 13.90 63.94 34.06 41.00 C 46.85 26.22 65.05 16.24 84.41 13.52 M 30.75 67.70 C 22.07 88.33 24.31 112.89 36.11 131.84 C 42.43 142.06 40.77 155.47 33.78 164.91 C 53.86 165.09 73.93 164.97 94.01 164.99 C 116.23 165.03 138.19 154.31 151.67 136.63 C 163.02 122.11 168.17 102.94 165.43 84.69 C 161.41 52.10 132.00 24.87 99.03 24.18 C 70.04 22.35 41.44 40.76 30.75 67.70 Z" />
<path fill="#a61aff" opacity="1.00" d=" M 95.37 56.43 C 115.66 53.59 134.15 72.99 132.73 93.02 C 133.63 96.78 127.38 98.09 126.74 94.32 C 126.02 88.53 125.85 82.43 122.80 77.26 C 117.91 67.80 107.44 62.55 97.04 62.28 C 93.78 62.66 92.30 57.69 95.37 56.43 Z" />
<path fill="#a61aff" opacity="1.00" d=" M 98.22 66.49 C 111.90 66.23 124.23 79.18 122.06 92.93 C 121.29 95.92 115.90 95.35 116.13 92.07 C 115.86 85.85 113.61 79.26 108.02 75.89 C 104.53 73.26 99.95 73.53 96.04 72.02 C 93.62 70.31 95.25 66.09 98.22 66.49 Z" />
<path fill="#a61aff" opacity="1.00" d=" M 55.96 84.02 C 54.10 77.09 60.38 69.97 67.00 69.14 C 74.88 69.37 76.29 78.36 77.54 84.42 C 78.47 88.52 75.30 91.76 72.54 94.28 C 75.46 105.01 84.11 114.14 94.92 116.99 C 98.17 115.26 100.68 111.10 104.99 112.15 C 110.91 113.48 119.56 114.48 120.45 122.00 C 120.38 129.23 112.34 136.03 105.05 133.78 C 79.46 131.86 57.57 109.61 55.96 84.02 Z" />
<path fill="#a61aff" opacity="1.00" d=" M 98.28 77.26 C 105.52 76.43 112.08 82.76 111.92 89.98 C 112.63 92.89 109.08 94.92 106.84 93.16 C 104.90 90.78 105.78 86.78 103.08 84.86 C 100.99 83.84 98.65 83.48 96.55 82.49 C 94.72 80.87 95.85 77.51 98.28 77.26 Z" />
</g>
</svg>
