<?xml version="1.0" encoding="UTF-8" ?>
<!DOCTYPE svg PUBLIC "-//W3C//DTD SVG 1.1//EN" "http://www.w3.org/Graphics/SVG/1.1/DTD/svg11.dtd">
<svg width="192pt" height="192pt" viewBox="0 0 192 192" version="1.1" xmlns="http://www.w3.org/2000/svg">
<g id="#1ab1ffff">
<path fill="#1ab1ff" opacity="1.00" d=" M 82.99 17.15 C 93.24 16.35 103.57 16.76 113.85 16.90 C 114.09 19.56 114.24 22.22 114.35 24.89 C 115.56 24.99 116.78 25.07 118.00 25.15 C 118.26 23.30 118.50 21.46 118.73 19.62 C 120.86 19.29 124.18 17.92 125.43 20.44 C 125.93 24.55 125.79 28.73 125.58 32.85 C 125.73 36.04 121.14 36.46 119.32 34.70 C 118.20 32.41 117.96 28.31 114.37 29.97 C 114.26 32.60 114.18 35.24 114.10 37.88 C 112.15 38.09 110.19 38.28 108.24 38.48 C 108.04 42.36 108.05 46.25 108.08 50.14 C 122.02 50.26 135.98 49.90 149.90 50.28 C 156.45 50.93 155.71 61.74 149.05 61.37 C 112.70 61.42 76.33 61.51 39.97 61.30 C 33.95 61.06 33.37 51.38 39.28 50.38 C 55.88 49.88 72.53 50.31 89.15 50.15 C 89.19 46.27 89.23 42.39 88.78 38.53 C 86.96 38.32 85.10 38.21 83.32 37.72 C 81.95 35.53 83.08 32.55 81.83 30.26 C 77.24 28.50 79.36 36.62 75.00 35.65 C 68.71 35.36 71.70 26.98 71.14 22.90 C 70.31 19.05 74.85 18.22 77.54 19.51 C 78.25 22.18 78.43 26.92 82.46 24.75 C 82.53 22.21 82.68 19.67 82.99 17.15 Z" />
<path fill="#1ab1ff" opacity="1.00" d=" M 49.63 67.54 C 53.49 66.19 56.36 71.90 53.53 74.54 C 51.21 76.57 48.28 77.70 45.62 79.22 C 48.74 81.13 54.49 81.37 54.64 86.01 C 54.57 90.55 48.96 91.35 45.88 93.41 C 48.87 95.32 54.18 95.85 54.60 100.13 C 54.86 104.75 49.20 105.68 46.13 107.65 C 49.29 109.42 54.50 110.57 54.63 115.02 C 54.29 119.12 49.40 120.04 46.49 121.89 C 49.56 123.61 54.11 125.00 54.66 129.02 C 54.76 133.17 49.85 134.24 47.04 136.05 C 50.64 137.98 57.31 141.79 53.56 146.57 C 48.37 150.26 42.33 152.80 36.60 155.57 C 32.66 157.49 29.39 152.00 32.04 149.00 C 35.74 145.64 40.79 144.30 44.92 141.54 C 43.67 137.84 38.55 140.51 35.89 141.35 C 31.64 142.83 29.46 136.07 32.82 133.85 C 36.71 131.06 41.25 129.34 45.35 126.88 C 42.08 124.17 38.40 126.09 34.97 127.11 C 31.04 127.35 29.94 121.83 32.59 119.60 C 36.38 116.61 41.09 115.09 45.13 112.47 C 41.87 110.30 38.26 111.82 34.89 112.68 C 30.92 112.96 29.90 106.92 32.88 104.95 C 36.77 102.31 41.22 100.59 45.20 98.09 C 42.16 96.90 38.91 96.90 35.89 98.17 C 31.68 99.67 29.60 92.98 32.62 90.68 C 36.09 88.22 40.21 86.86 43.76 84.53 C 43.44 81.41 38.10 83.50 35.74 83.64 C 31.38 84.99 29.44 78.08 33.01 76.06 C 38.39 72.95 43.91 69.97 49.63 67.54 Z" />
<path fill="#1ab1ff" opacity="1.00" d=" M 67.68 84.67 C 79.77 67.57 105.22 62.75 123.34 72.66 C 137.16 79.88 146.34 95.34 145.59 110.98 C 145.44 122.46 140.84 133.51 133.92 142.54 C 141.58 142.80 149.29 142.19 156.92 142.85 C 162.56 144.20 161.77 153.52 155.93 153.74 C 137.27 154.03 118.59 153.72 99.93 153.75 C 81.96 153.58 66.03 140.01 60.72 123.24 C 56.69 110.23 60.01 95.68 67.68 84.67 M 93.20 80.17 C 76.50 84.08 66.85 103.62 71.43 119.61 C 75.14 131.33 85.65 141.38 98.24 142.34 C 105.01 142.73 111.80 142.42 118.58 142.51 C 130.39 131.83 138.26 114.38 132.26 98.71 C 126.70 83.49 108.47 75.24 93.20 80.17 Z" />
<path fill="#1ab1ff" opacity="1.00" d=" M 101.35 87.32 C 106.22 86.36 111.18 92.05 108.58 96.62 C 106.66 101.04 99.95 101.89 97.15 97.88 C 94.04 94.17 96.52 87.85 101.35 87.32 Z" />
<path fill="#1ab1ff" opacity="1.00" d=" M 83.31 104.38 C 88.19 102.37 93.89 107.97 91.83 112.86 C 90.40 117.42 83.86 119.12 80.67 115.33 C 77.12 112.08 78.89 105.82 83.31 104.38 Z" />
<path fill="#1ab1ff" opacity="1.00" d=" M 117.32 104.39 C 122.27 102.31 127.79 107.93 125.82 112.87 C 124.58 117.59 117.76 119.11 114.65 115.34 C 111.28 112.04 112.92 105.83 117.32 104.39 Z" />
<path fill="#1ab1ff" opacity="1.00" d=" M 101.96 113.61 C 99.87 112.12 99.35 108.07 102.82 108.39 C 106.28 108.89 104.67 113.18 101.96 113.61 Z" />
<path fill="#1ab1ff" opacity="1.00" d=" M 100.28 121.30 C 105.25 119.29 110.96 124.88 108.86 129.87 C 107.37 134.36 100.84 136.05 97.71 132.24 C 94.21 129.00 95.86 122.75 100.28 121.30 Z" />
<path fill="#1ab1ff" opacity="1.00" d=" M 39.34 162.46 C 74.54 161.98 109.79 162.40 145.00 162.20 C 147.91 162.25 151.58 161.76 153.48 164.53 C 156.34 168.01 153.38 173.89 148.85 173.52 C 112.62 173.56 76.38 173.63 40.16 173.45 C 33.98 173.41 33.22 163.39 39.34 162.46 Z" />
</g>
</svg>
