<?xml version="1.0" encoding="UTF-8" ?>
<!DOCTYPE svg PUBLIC "-//W3C//DTD SVG 1.1//EN" "http://www.w3.org/Graphics/SVG/1.1/DTD/svg11.dtd">
<svg width="192pt" height="192pt" viewBox="0 0 192 192" version="1.1" xmlns="http://www.w3.org/2000/svg">
<g id="#596677ff">
<path fill="#596677" opacity="1.00" d=" M 36.29 23.36 C 39.14 22.74 42.08 22.71 44.99 22.70 C 80.32 22.79 115.65 22.63 150.98 22.78 C 164.70 23.03 176.69 35.24 176.86 48.93 C 177.35 66.95 177.13 85.00 176.99 103.03 C 177.72 119.48 162.04 132.80 146.00 131.19 C 113.67 131.17 81.34 131.16 49.00 131.19 C 42.33 131.20 35.29 131.02 29.32 127.66 C 20.41 122.98 14.75 113.05 15.02 103.01 C 15.06 84.98 14.94 66.96 15.08 48.93 C 15.23 36.88 24.52 25.79 36.29 23.36 M 38.38 34.55 C 31.49 36.12 26.22 42.85 26.39 49.93 C 26.35 67.97 26.33 86.02 26.41 104.07 C 26.33 112.29 33.70 119.66 41.94 119.50 C 77.98 119.52 114.02 119.54 150.06 119.48 C 158.25 119.55 165.56 112.26 165.50 104.07 C 165.59 86.03 165.54 67.98 165.53 49.94 C 165.81 41.23 157.75 33.43 149.03 34.16 C 112.15 34.46 75.22 33.69 38.38 34.55 Z" />
<path fill="#596677" opacity="1.00" d=" M 83.33 55.39 C 87.18 53.67 91.49 54.90 94.82 57.15 C 100.95 61.08 107.46 64.43 113.43 68.59 C 119.28 72.94 118.96 82.85 112.82 86.80 C 106.20 90.93 99.52 94.98 92.73 98.83 C 85.78 102.84 76.07 96.96 75.98 89.05 C 75.72 81.70 75.87 74.33 75.90 66.97 C 75.75 62.07 78.66 57.13 83.33 55.39 Z" />
<path fill="#596677" opacity="1.00" d=" M 42.85 146.40 C 45.56 140.50 51.27 135.79 57.98 135.81 C 65.00 135.44 71.05 140.32 73.96 146.41 C 104.84 146.59 135.74 146.21 166.61 146.58 C 172.82 146.88 173.09 157.11 166.88 157.63 C 136.57 158.00 106.22 157.60 75.91 157.81 C 73.55 157.55 72.85 160.16 71.61 161.61 C 66.88 169.10 55.60 170.77 48.68 165.35 C 45.76 163.54 44.70 159.88 42.02 157.91 C 35.93 157.19 29.70 158.52 23.67 157.29 C 19.06 155.41 19.52 147.78 24.48 146.74 C 30.57 146.02 36.73 146.69 42.85 146.40 M 56.39 147.45 C 53.07 148.69 52.20 153.70 54.97 155.97 C 57.66 158.74 63.05 156.82 63.42 152.98 C 64.22 149.16 59.89 146.00 56.39 147.45 Z" />
</g>
</svg>
