<?xml version="1.0" encoding="UTF-8" ?>
<!DOCTYPE svg PUBLIC "-//W3C//DTD SVG 1.1//EN" "http://www.w3.org/Graphics/SVG/1.1/DTD/svg11.dtd">
<svg width="192pt" height="192pt" viewBox="0 0 192 192" version="1.1" xmlns="http://www.w3.org/2000/svg">
<g id="#bf22d3ff">
<path fill="#bf22d3" opacity="1.00" d=" M 36.29 23.36 C 40.13 22.53 44.09 22.74 48.00 22.73 C 81.99 22.75 115.98 22.71 149.98 22.73 C 161.08 22.62 171.62 30.22 175.26 40.66 C 177.25 45.87 176.86 51.53 176.89 57.00 C 176.82 73.02 177.01 89.05 176.81 105.07 C 176.53 118.96 163.92 131.06 150.05 130.84 C 114.02 130.89 77.98 130.87 41.95 130.82 C 28.03 131.12 15.45 118.97 15.11 105.08 C 14.96 86.37 15.02 67.64 15.09 48.93 C 15.25 36.88 24.52 25.81 36.29 23.36 M 38.36 34.48 C 31.46 36.08 26.16 42.82 26.34 49.93 C 26.31 67.98 26.28 86.03 26.36 104.07 C 26.30 112.31 33.70 119.67 41.95 119.51 C 77.98 119.52 114.02 119.53 150.06 119.48 C 158.24 119.56 165.55 112.25 165.51 104.07 C 165.59 86.03 165.55 67.99 165.54 49.94 C 165.83 41.22 157.76 33.38 149.02 34.10 C 112.14 34.39 75.20 33.64 38.36 34.48 Z" />
<path fill="#bf22d3" opacity="1.00" d=" M 83.33 55.40 C 86.91 53.84 91.03 54.67 94.19 56.79 C 100.55 60.82 107.24 64.33 113.44 68.58 C 119.26 72.97 118.91 82.82 112.78 86.76 C 106.40 90.79 99.86 94.58 93.39 98.45 C 86.73 102.55 76.85 97.89 76.11 90.02 C 75.61 82.36 75.95 74.65 75.91 66.98 C 75.72 62.06 78.69 57.17 83.33 55.40 Z" />
<path fill="#bf22d3" opacity="1.00" d=" M 42.90 146.41 C 45.83 139.46 53.40 134.53 61.01 136.04 C 66.88 136.82 71.43 141.27 73.90 146.42 C 104.80 146.56 135.71 146.25 166.60 146.56 C 172.80 146.90 173.04 157.03 166.87 157.62 C 135.92 157.94 104.94 157.66 73.97 157.74 C 71.31 163.64 65.68 168.39 59.00 168.49 C 51.93 168.93 45.54 164.11 42.85 157.77 C 36.69 157.52 30.50 158.09 24.37 157.49 C 19.16 156.23 19.20 147.84 24.48 146.72 C 30.59 146.07 36.77 146.68 42.90 146.41 M 56.37 147.40 C 52.66 148.69 52.17 154.43 55.53 156.41 C 58.71 158.86 63.87 155.97 63.49 151.97 C 63.54 148.46 59.52 146.12 56.37 147.40 Z" />
</g>
</svg>
