<?xml version="1.0" encoding="UTF-8" ?>
<!DOCTYPE svg PUBLIC "-//W3C//DTD SVG 1.1//EN" "http://www.w3.org/Graphics/SVG/1.1/DTD/svg11.dtd">
<svg width="192pt" height="192pt" viewBox="0 0 192 192" version="1.1" xmlns="http://www.w3.org/2000/svg">
<g id="#ee3082ff">
<path fill="#ee3082" opacity="1.00" d=" M 36.29 23.37 C 39.47 22.67 42.75 22.71 46.00 22.72 C 80.99 22.79 115.99 22.65 150.98 22.78 C 164.66 23.05 176.72 35.25 176.80 48.94 C 176.88 67.65 176.93 86.36 176.78 105.07 C 176.53 118.95 163.92 131.06 150.05 130.81 C 114.02 130.86 77.98 130.85 41.95 130.80 C 28.04 131.13 15.45 118.95 15.13 105.08 C 14.98 86.37 15.04 67.65 15.10 48.94 C 15.25 36.89 24.53 25.82 36.29 23.37 M 38.36 34.48 C 31.45 36.08 26.14 42.83 26.34 49.95 C 26.32 67.99 26.28 86.03 26.36 104.07 C 26.29 112.31 33.69 119.68 41.94 119.52 C 77.98 119.53 114.03 119.54 150.07 119.50 C 158.26 119.57 165.58 112.26 165.53 104.07 C 165.60 86.03 165.56 67.98 165.55 49.94 C 165.85 41.22 157.76 33.36 149.02 34.11 C 112.14 34.39 75.20 33.65 38.36 34.48 Z" />
<path fill="#ee3082" opacity="1.00" d=" M 83.31 55.37 C 86.90 53.82 91.04 54.62 94.21 56.75 C 100.39 60.63 106.80 64.13 112.90 68.12 C 119.24 72.29 119.21 82.70 112.81 86.79 C 106.19 90.92 99.50 94.95 92.74 98.83 C 85.77 102.76 76.05 97.00 75.96 89.05 C 75.74 81.70 75.90 74.34 75.88 66.98 C 75.65 62.05 78.66 57.13 83.31 55.37 Z" />
<path fill="#ee3082" opacity="1.00" d=" M 42.86 146.41 C 45.65 139.75 52.67 134.89 60.03 135.87 C 66.31 136.32 71.37 140.93 73.96 146.44 C 104.84 146.58 135.73 146.27 166.60 146.58 C 172.78 146.91 173.02 157.03 166.87 157.60 C 135.93 157.92 104.96 157.62 74.01 157.73 C 71.28 164.01 65.05 168.89 58.00 168.53 C 51.25 168.56 45.41 163.81 42.80 157.80 C 36.66 157.46 30.48 158.09 24.37 157.48 C 19.17 156.22 19.22 147.85 24.49 146.73 C 30.58 146.08 36.74 146.70 42.86 146.41 M 56.38 147.44 C 53.02 148.72 52.20 153.67 54.98 155.95 C 57.73 158.65 62.95 156.81 63.38 152.98 C 64.22 149.18 59.85 145.89 56.38 147.44 Z" />
</g>
</svg>
