<?xml version="1.0" encoding="UTF-8" ?>
<!DOCTYPE svg PUBLIC "-//W3C//DTD SVG 1.1//EN" "http://www.w3.org/Graphics/SVG/1.1/DTD/svg11.dtd">
<svg width="192pt" height="192pt" viewBox="0 0 192 192" version="1.1" xmlns="http://www.w3.org/2000/svg">
<g id="#837e6cff">
<path fill="#837e6c" opacity="1.00" d=" M 41.45 21.65 C 76.29 21.01 111.18 21.54 146.04 21.36 C 158.51 20.74 170.04 31.52 170.19 44.01 C 170.29 78.33 170.24 112.66 170.22 146.98 C 170.39 159.39 159.34 170.30 146.99 170.25 C 113.00 170.32 79.00 170.31 45.01 170.25 C 32.92 170.45 21.87 160.13 21.49 148.00 C 21.40 113.65 21.48 79.30 21.46 44.95 C 21.19 33.64 30.28 23.16 41.45 21.65 M 42.47 32.77 C 36.86 33.86 32.43 39.27 32.56 45.01 C 32.55 79.00 32.50 113.00 32.60 146.99 C 32.59 153.48 38.48 159.13 44.93 159.02 C 78.63 159.06 112.34 159.01 146.04 159.01 C 153.12 159.49 159.55 153.11 159.10 146.02 C 159.10 112.33 159.21 78.65 159.06 44.97 C 159.23 38.11 152.90 32.02 146.05 32.54 C 111.53 32.72 76.97 32.23 42.47 32.77 Z" />
<path fill="#837e6c" opacity="1.00" d=" M 88.43 74.59 C 83.92 70.89 89.13 63.00 94.29 65.73 C 104.06 72.54 113.46 79.93 123.00 87.06 C 129.10 91.49 129.10 101.51 122.99 105.93 C 111.96 114.27 100.92 122.64 89.75 130.80 C 81.98 136.48 68.90 130.96 68.76 121.00 C 68.65 104.34 68.56 87.65 68.81 71.00 C 69.02 64.95 78.62 64.19 79.86 70.07 C 80.34 86.72 79.84 103.40 80.10 120.06 C 79.67 122.05 82.31 123.06 83.63 121.72 C 94.03 114.16 104.22 106.29 114.56 98.63 C 115.93 98.02 115.88 96.61 115.95 95.33 C 106.74 88.47 97.45 81.69 88.43 74.59 Z" />
</g>
</svg>
