<?xml version="1.0" encoding="UTF-8" ?>
<!DOCTYPE svg PUBLIC "-//W3C//DTD SVG 1.1//EN" "http://www.w3.org/Graphics/SVG/1.1/DTD/svg11.dtd">
<svg width="192pt" height="192pt" viewBox="0 0 192 192" version="1.1" xmlns="http://www.w3.org/2000/svg">
<g id="#a61bffff">
<path fill="#a61bff" opacity="1.00" d=" M 67.40 21.42 C 86.08 13.85 107.71 13.89 126.26 21.83 C 153.78 33.21 173.72 61.08 174.74 90.96 C 175.00 109.98 174.81 129.01 174.86 148.03 C 175.08 157.04 170.42 166.17 162.44 170.59 C 154.54 175.07 145.04 174.27 136.33 173.59 C 124.64 172.48 114.95 161.71 114.90 150.00 C 114.74 138.99 114.57 127.96 114.96 116.96 C 115.52 105.04 126.04 94.72 137.91 94.14 C 142.50 94.05 147.17 93.63 151.72 94.41 C 156.43 95.73 156.60 103.51 151.89 104.97 C 146.92 106.05 141.71 104.69 136.73 105.78 C 130.51 107.37 125.83 113.49 126.09 119.94 C 126.09 129.65 126.01 139.37 126.13 149.08 C 126.22 155.95 132.13 162.15 138.99 162.56 C 143.42 162.74 147.89 162.85 152.30 162.26 C 158.95 161.24 163.89 154.68 163.62 148.05 C 163.59 129.35 163.75 110.64 163.55 91.93 C 162.96 68.40 148.86 45.88 128.05 34.91 C 107.57 23.77 81.31 24.27 61.36 36.40 C 41.18 48.13 28.80 70.83 28.17 93.98 C 37.12 94.29 46.10 93.72 55.04 94.28 C 66.99 95.30 76.89 106.06 77.17 118.01 C 77.31 128.67 77.35 139.35 77.15 150.02 C 76.72 161.36 67.95 171.71 56.67 173.56 C 44.56 175.88 29.16 174.44 21.71 163.29 C 17.30 156.40 17.19 147.90 17.18 139.99 C 17.27 123.97 17.02 107.95 17.32 91.93 C 18.51 61.35 38.75 32.43 67.40 21.42 M 30.40 105.56 C 29.04 106.11 28.27 107.54 28.43 108.99 C 28.38 122.01 28.44 135.03 28.41 148.06 C 28.02 154.93 33.47 161.76 40.43 162.37 C 44.60 162.78 48.82 162.77 53.01 162.57 C 60.28 162.20 66.31 155.29 65.99 148.06 C 65.96 138.35 66.06 128.63 65.95 118.91 C 65.86 111.69 59.28 105.27 52.06 105.38 C 44.85 105.46 37.60 105.09 30.40 105.56 Z" />
</g>
</svg>
