<?xml version="1.0" encoding="UTF-8" ?>
<!DOCTYPE svg PUBLIC "-//W3C//DTD SVG 1.1//EN" "http://www.w3.org/Graphics/SVG/1.1/DTD/svg11.dtd">
<svg width="192pt" height="192pt" viewBox="0 0 192 192" version="1.1" xmlns="http://www.w3.org/2000/svg">
<g id="#16a9ffff">
<path fill="#16a9ff" opacity="1.00" d=" M 41.29 18.36 C 45.11 17.55 49.15 18.43 52.42 20.52 C 86.72 41.26 121.07 61.92 155.36 82.67 C 164.29 87.00 165.40 100.59 156.68 105.77 C 121.71 127.21 86.59 148.42 51.40 169.51 C 42.81 174.99 29.22 168.66 29.27 158.08 C 29.12 116.71 29.16 75.33 29.07 33.96 C 28.62 26.65 34.08 19.65 41.29 18.36 M 40.32 33.92 C 40.37 75.23 40.35 116.54 40.53 157.85 C 41.34 160.96 45.67 160.45 47.66 158.64 C 82.36 137.35 117.74 117.03 151.90 94.94 C 150.92 93.64 149.83 92.41 148.38 91.64 C 114.46 71.20 80.60 50.67 46.69 30.22 C 44.02 27.96 39.58 30.40 40.32 33.92 Z" />
<path fill="#16a9ff" opacity="1.00" d=" M 59.48 71.49 C 54.27 67.65 60.10 58.77 65.69 62.28 C 79.93 70.65 94.14 79.12 108.21 87.78 C 113.07 90.68 113.36 98.45 108.50 101.49 C 96.16 109.24 83.61 116.68 71.12 124.19 C 65.77 127.96 57.20 123.68 57.55 116.99 C 57.60 107.34 57.27 97.67 57.60 88.02 C 58.10 82.22 67.25 81.78 68.46 87.39 C 69.00 95.68 68.58 104.02 68.77 112.33 C 78.59 106.59 88.33 100.70 97.96 94.65 C 85.16 86.89 72.15 79.44 59.48 71.49 Z" />
</g>
</svg>
