<?xml version="1.0" encoding="UTF-8" ?>
<!DOCTYPE svg PUBLIC "-//W3C//DTD SVG 1.1//EN" "http://www.w3.org/Graphics/SVG/1.1/DTD/svg11.dtd">
<svg width="192pt" height="192pt" viewBox="0 0 192 192" version="1.1" xmlns="http://www.w3.org/2000/svg">
<g id="#29abffff">
<path fill="#29abff" opacity="1.00" d=" M 18.12 40.93 C 18.05 30.33 27.40 20.82 38.01 20.77 C 77.00 20.72 115.99 20.71 154.98 20.76 C 166.36 20.79 176.54 32.11 174.51 43.45 C 172.84 48.85 163.87 47.78 163.76 42.01 C 163.62 37.21 160.18 32.24 155.05 32.15 C 116.35 32.06 77.64 32.14 38.95 32.11 C 33.96 31.63 29.38 36.07 29.34 40.99 C 29.17 45.71 29.43 50.44 29.22 55.17 C 34.59 55.61 39.98 55.19 45.37 55.43 C 45.67 52.33 45.33 49.19 45.76 46.10 C 48.05 41.82 56.87 42.51 56.70 47.99 C 56.75 79.69 56.71 111.38 56.74 143.07 C 57.44 148.92 47.88 149.99 45.73 145.26 C 45.29 142.13 45.57 138.96 45.46 135.82 C 36.33 135.81 27.20 135.81 18.07 135.81 C 18.07 104.18 18.03 72.55 18.12 40.93 M 29.34 66.55 C 29.25 74.33 29.34 82.11 29.28 89.89 C 34.70 89.98 40.13 90.01 45.56 89.90 C 45.48 82.12 45.60 74.34 45.47 66.57 C 40.10 66.57 34.72 66.59 29.34 66.55 M 29.30 101.29 C 29.32 109.05 29.29 116.82 29.32 124.59 C 34.72 124.61 40.12 124.62 45.52 124.59 C 45.53 116.83 45.53 109.07 45.51 101.31 C 40.10 101.28 34.70 101.31 29.30 101.29 Z" />
<path fill="#29abff" opacity="1.00" d=" M 136.14 47.95 C 135.99 42.35 145.52 41.73 147.20 46.52 C 147.53 49.43 147.34 52.38 147.39 55.31 C 156.54 55.40 165.68 55.22 174.83 55.25 C 174.90 86.85 174.89 118.46 174.86 150.06 C 175.05 161.09 165.06 170.87 154.05 170.54 C 115.38 170.55 76.70 170.59 38.02 170.49 C 26.73 170.45 16.75 159.50 18.28 148.23 C 19.55 142.78 28.82 143.33 29.10 149.05 C 29.14 154.36 33.36 159.56 38.97 159.19 C 77.33 159.19 115.68 159.18 154.03 159.15 C 158.74 159.38 163.10 155.51 163.50 150.84 C 163.81 145.93 163.51 141.01 163.62 136.11 C 158.20 135.71 152.75 135.72 147.34 136.09 C 147.35 139.05 147.55 142.02 147.26 144.98 C 145.49 150.08 135.47 149.02 136.08 143.08 C 136.10 111.37 136.06 79.66 136.14 47.95 M 147.41 66.59 C 147.32 74.35 147.42 82.11 147.34 89.88 C 152.77 90.00 158.21 89.99 163.64 89.91 C 163.56 82.14 163.72 74.36 163.54 66.59 C 158.16 66.61 152.78 66.61 147.41 66.59 M 147.37 101.30 C 147.38 109.05 147.36 116.81 147.38 124.56 C 152.79 124.60 158.19 124.59 163.60 124.58 C 163.63 116.82 163.63 109.07 163.59 101.31 C 158.18 101.30 152.78 101.31 147.37 101.30 Z" />
<path fill="#29abff" opacity="1.00" d=" M 85.38 76.49 C 93.58 78.04 99.81 85.02 107.20 88.80 C 111.66 90.51 114.31 96.75 110.24 100.26 C 103.56 104.99 96.50 109.21 89.65 113.70 C 85.92 116.38 80.01 113.68 79.85 109.03 C 79.64 100.35 79.78 91.66 79.78 82.97 C 79.60 79.77 82.21 76.82 85.38 76.49 Z" />
</g>
</svg>
