<?xml version="1.0" encoding="UTF-8" ?>
<!DOCTYPE svg PUBLIC "-//W3C//DTD SVG 1.1//EN" "http://www.w3.org/Graphics/SVG/1.1/DTD/svg11.dtd">
<svg width="192pt" height="192pt" viewBox="0 0 192 192" version="1.1" xmlns="http://www.w3.org/2000/svg">
<g id="#b5babfff">
<path fill="#b5babf" opacity="1.00" d=" M 36.27 23.34 C 38.81 22.79 41.41 22.71 44.00 22.70 C 79.65 22.78 115.31 22.63 150.96 22.75 C 164.72 22.97 176.68 35.25 176.89 48.94 C 177.25 66.96 177.05 84.99 177.00 103.01 C 177.13 113.04 171.57 122.95 162.63 127.62 C 155.15 131.88 146.26 131.02 138.00 131.10 C 105.64 131.19 73.28 131.01 40.93 130.81 C 26.97 130.57 14.90 117.93 15.02 104.03 C 14.99 85.67 14.93 67.30 15.05 48.94 C 15.24 36.88 24.49 25.80 36.27 23.34 M 38.36 34.48 C 31.45 36.09 26.19 42.82 26.35 49.94 C 26.31 67.98 26.27 86.03 26.37 104.08 C 26.35 112.29 33.70 119.64 41.93 119.48 C 77.98 119.49 114.03 119.50 150.08 119.44 C 158.23 119.52 165.52 112.23 165.47 104.08 C 165.57 86.03 165.52 67.98 165.51 49.93 C 165.80 41.20 157.73 33.42 149.01 34.09 C 112.13 34.38 75.19 33.59 38.36 34.48 Z" />
<path fill="#b5babf" opacity="1.00" d=" M 83.37 55.53 C 87.17 53.69 91.42 55.07 94.73 57.27 C 100.86 61.19 107.36 64.53 113.32 68.69 C 118.93 72.84 118.88 82.14 113.21 86.21 C 106.79 90.57 99.94 94.29 93.32 98.34 C 86.82 102.37 76.83 97.84 76.32 90.03 C 76.15 82.01 76.30 73.98 76.25 65.96 C 76.00 61.40 79.26 57.20 83.37 55.53 Z" />
<path fill="#b5babf" opacity="1.00" d=" M 43.07 146.40 C 47.85 132.79 68.93 132.91 73.79 146.42 C 104.73 146.48 135.68 146.21 166.61 146.53 C 173.32 146.93 172.75 158.02 166.04 157.74 C 135.31 157.88 104.58 157.78 73.85 157.76 C 71.08 163.50 65.61 168.27 59.00 168.43 C 52.00 168.79 45.73 164.02 43.00 157.78 C 36.79 157.58 30.55 158.14 24.36 157.50 C 19.14 156.24 19.18 147.82 24.47 146.70 C 30.64 146.04 36.87 146.62 43.07 146.40 M 56.28 147.29 C 49.80 149.72 54.67 160.53 60.82 156.87 C 66.80 154.10 62.13 144.22 56.28 147.29 Z" />
</g>
</svg>
