<?xml version="1.0" encoding="UTF-8" ?>
<!DOCTYPE svg PUBLIC "-//W3C//DTD SVG 1.1//EN" "http://www.w3.org/Graphics/SVG/1.1/DTD/svg11.dtd">
<svg width="192pt" height="192pt" viewBox="0 0 192 192" version="1.1" xmlns="http://www.w3.org/2000/svg">
<g id="#757974ff">
<path fill="#757974" opacity="1.00" d=" M 22.10 43.95 C 21.90 32.08 32.17 21.24 44.03 20.82 C 49.99 20.78 56.00 20.44 61.94 21.00 C 66.73 22.25 67.05 29.71 62.42 31.42 C 56.33 32.46 50.07 31.23 43.94 32.07 C 38.16 32.69 33.14 38.04 33.31 43.93 C 33.27 77.97 33.30 112.02 33.30 146.06 C 33.02 152.82 39.29 158.80 46.02 158.35 C 79.67 158.34 113.33 158.34 146.98 158.33 C 153.68 158.72 159.82 152.78 159.65 146.08 C 159.72 112.37 159.67 78.66 159.68 44.95 C 160.23 37.96 153.94 31.68 147.00 31.90 C 131.95 31.84 116.88 31.61 101.83 32.01 C 101.62 52.79 101.78 73.57 101.75 94.35 C 104.61 94.41 107.49 94.22 110.33 94.60 C 114.51 95.30 116.24 101.28 113.07 104.10 C 108.82 108.49 104.49 112.82 100.10 117.07 C 98.00 119.33 94.04 119.27 91.99 116.97 C 87.66 112.68 83.29 108.42 79.09 104.01 C 76.09 101.25 77.56 95.68 81.47 94.67 C 84.42 94.18 87.44 94.44 90.43 94.40 C 90.53 73.59 90.40 52.79 90.50 31.98 C 90.25 25.80 95.84 20.39 102.00 20.75 C 117.32 20.74 132.64 20.71 147.96 20.76 C 160.18 20.73 171.04 31.74 170.82 43.96 C 170.85 78.33 170.92 112.70 170.80 147.06 C 170.68 159.01 159.98 169.49 148.07 169.54 C 113.69 169.60 79.32 169.58 44.94 169.54 C 32.60 169.54 21.74 158.37 22.08 146.02 C 22.06 112.00 22.05 77.98 22.10 43.95 Z" />
<path fill="#757974" opacity="1.00" d=" M 49.19 138.18 C 80.07 137.31 111.10 137.93 142.04 137.82 C 148.61 137.43 149.56 148.29 143.04 149.06 C 112.35 149.27 81.63 149.19 50.94 149.11 C 45.10 149.13 43.66 140.00 49.19 138.18 Z" />
</g>
</svg>
