<?xml version="1.0" encoding="UTF-8" ?>
<!DOCTYPE svg PUBLIC "-//W3C//DTD SVG 1.1//EN" "http://www.w3.org/Graphics/SVG/1.1/DTD/svg11.dtd">
<svg width="192pt" height="192pt" viewBox="0 0 192 192" version="1.1" xmlns="http://www.w3.org/2000/svg">
<g id="#ff547fff">
<path fill="#ff547f" opacity="1.00" d=" M 50.57 27.53 C 66.46 22.71 84.49 28.02 95.90 39.91 C 105.73 29.92 120.03 24.26 134.06 26.01 C 152.61 28.05 169.28 42.52 173.32 60.84 C 176.62 74.28 173.22 88.89 164.87 99.84 C 169.93 101.73 173.92 106.35 173.93 111.92 C 174.16 124.29 174.23 136.70 173.89 149.07 C 173.69 156.90 164.77 162.75 157.53 159.55 C 148.24 155.52 139.59 150.16 130.78 145.20 C 127.18 143.57 126.30 138.00 129.85 135.83 C 133.18 132.72 137.31 135.75 140.43 137.51 C 147.82 141.39 154.83 146.08 162.59 149.18 C 162.69 136.45 162.85 123.70 162.50 110.97 C 153.28 114.09 144.93 119.30 136.12 123.33 C 132.56 124.76 128.11 122.20 129.31 118.03 C 130.07 113.87 126.79 105.64 133.35 105.50 C 145.07 104.16 155.70 96.17 160.33 85.33 C 166.35 72.01 162.83 54.95 151.42 45.61 C 136.63 31.59 109.19 35.45 100.08 54.06 C 99.22 57.06 95.09 59.19 93.47 55.55 C 87.09 43.61 73.48 35.83 59.90 37.25 C 39.72 38.53 23.89 60.59 29.86 80.09 C 33.20 94.53 46.63 104.69 61.08 106.07 C 61.88 121.63 61.18 137.24 61.44 152.82 C 83.89 153.79 106.43 152.74 128.90 153.33 C 134.77 153.99 134.93 163.61 129.00 164.34 C 107.02 164.67 85.01 164.51 63.02 164.47 C 56.59 164.79 50.56 159.50 50.26 153.04 C 49.85 140.44 50.38 127.81 50.00 115.21 C 31.84 110.12 18.49 92.79 17.48 74.08 C 16.02 53.38 30.60 33.01 50.57 27.53 Z" />
</g>
</svg>
