<?xml version="1.0" encoding="UTF-8" ?>
<!DOCTYPE svg PUBLIC "-//W3C//DTD SVG 1.1//EN" "http://www.w3.org/Graphics/SVG/1.1/DTD/svg11.dtd">
<svg width="192pt" height="192pt" viewBox="0 0 192 192" version="1.1" xmlns="http://www.w3.org/2000/svg">
<g id="#e2319eff">
<path fill="#e2319e" opacity="1.00" d=" M 18.07 40.92 C 18.04 30.33 27.37 20.77 38.01 20.76 C 77.00 20.71 116.00 20.70 155.00 20.76 C 166.53 20.75 177.16 32.70 174.23 44.13 C 171.69 49.30 163.19 46.97 163.60 41.18 C 163.43 36.25 159.14 31.75 154.06 32.12 C 115.69 32.13 77.32 32.13 38.94 32.12 C 33.98 31.70 29.40 36.08 29.37 41.00 C 29.22 45.78 29.35 50.55 29.35 55.33 C 34.73 55.32 40.10 55.33 45.48 55.33 C 45.53 52.26 45.33 49.18 45.74 46.14 C 47.96 41.78 56.92 42.48 56.72 48.01 C 56.79 79.68 56.74 111.35 56.75 143.01 C 57.51 148.91 47.91 150.03 45.73 145.27 C 45.28 142.15 45.55 138.99 45.44 135.85 C 36.31 135.82 27.18 135.86 18.04 135.83 C 18.01 104.20 17.99 72.55 18.07 40.92 M 29.36 66.58 C 29.27 74.35 29.37 82.12 29.30 89.88 C 34.71 89.99 40.12 90.01 45.54 89.90 C 45.45 82.13 45.59 74.37 45.44 66.60 C 40.08 66.60 34.72 66.62 29.36 66.58 M 29.32 101.30 C 29.33 109.06 29.31 116.81 29.33 124.57 C 34.73 124.60 40.12 124.61 45.51 124.57 C 45.50 116.82 45.52 109.08 45.48 101.33 C 40.10 101.30 34.71 101.33 29.32 101.30 Z" />
<path fill="#e2319e" opacity="1.00" d=" M 136.13 48.01 C 136.02 42.55 144.58 41.83 147.07 45.91 C 147.63 49.01 147.32 52.19 147.42 55.33 C 156.55 55.37 165.68 55.23 174.82 55.27 C 174.87 86.84 174.82 118.42 174.80 149.99 C 175.08 161.03 165.05 170.84 154.05 170.52 C 115.38 170.52 76.71 170.59 38.04 170.50 C 26.74 170.48 16.75 159.54 18.25 148.26 C 19.52 142.77 28.83 143.28 29.11 149.06 C 29.22 154.07 32.91 159.16 38.25 159.16 C 76.81 159.24 115.38 159.21 153.94 159.22 C 158.68 159.43 163.15 155.59 163.53 150.84 C 163.83 145.90 163.54 140.94 163.62 136.00 C 158.20 135.68 152.76 135.70 147.34 135.99 C 147.34 138.98 147.53 141.99 147.25 144.98 C 145.44 150.06 135.42 148.99 136.14 143.00 C 136.14 111.34 136.06 79.67 136.13 48.01 M 147.41 66.59 C 147.33 74.35 147.42 82.11 147.35 89.88 C 152.78 90.00 158.22 89.99 163.65 89.92 C 163.57 82.14 163.72 74.37 163.54 66.59 C 158.17 66.61 152.79 66.61 147.41 66.59 M 147.36 101.32 C 147.40 109.07 147.35 116.83 147.38 124.59 C 152.79 124.61 158.21 124.61 163.62 124.61 C 163.65 116.84 163.65 109.08 163.60 101.31 C 158.19 101.31 152.77 101.31 147.36 101.32 Z" />
<path fill="#e2319e" opacity="1.00" d=" M 85.36 76.47 C 93.58 78.00 99.82 85.00 107.21 88.78 C 111.69 90.50 114.34 96.77 110.27 100.28 C 103.58 105.02 96.52 109.24 89.66 113.73 C 85.92 116.42 79.96 113.70 79.83 109.02 C 79.64 100.34 79.76 91.65 79.78 82.98 C 79.59 79.78 82.20 76.79 85.36 76.47 Z" />
</g>
</svg>
