<?xml version="1.0" encoding="UTF-8" ?>
<!DOCTYPE svg PUBLIC "-//W3C//DTD SVG 1.1//EN" "http://www.w3.org/Graphics/SVG/1.1/DTD/svg11.dtd">
<svg width="192pt" height="192pt" viewBox="0 0 192 192" version="1.1" xmlns="http://www.w3.org/2000/svg">
<g id="#ff3661ff">
<path fill="#ff3661" opacity="1.00" d=" M 81.38 12.47 C 89.43 11.27 97.75 10.83 105.79 12.28 C 111.15 13.87 110.59 22.61 105.00 23.41 C 99.64 23.45 94.28 22.78 88.91 23.30 C 58.13 25.27 30.73 49.96 25.38 80.31 C 19.09 110.55 35.44 143.49 63.26 156.85 C 83.54 167.10 108.76 166.62 128.65 155.64 C 151.81 143.33 166.86 117.29 165.46 91.02 C 165.57 87.59 163.96 83.48 166.65 80.66 C 169.50 77.30 175.75 78.98 176.47 83.36 C 181.50 117.24 162.09 152.57 131.34 167.33 C 100.84 183.00 60.92 176.60 36.92 152.09 C 12.65 128.84 5.57 90.14 19.76 59.71 C 30.71 34.98 54.64 16.61 81.38 12.47 Z" />
<path fill="#ff3661" opacity="1.00" d=" M 120.98 23.94 C 120.80 19.95 125.58 16.96 129.10 18.86 C 147.06 27.02 162.11 41.91 169.90 60.08 C 172.10 66.24 162.36 70.43 159.44 64.59 C 153.48 52.01 144.11 41.04 132.25 33.68 C 132.04 54.11 132.28 74.55 132.13 94.98 C 131.83 108.54 123.31 121.39 111.10 127.19 C 99.09 133.11 83.90 131.85 73.09 123.93 C 60.65 115.24 54.59 98.50 58.82 83.89 C 62.76 68.68 77.20 56.96 92.93 56.41 C 103.23 55.76 113.47 59.86 120.92 66.91 C 120.91 52.59 120.78 38.26 120.98 23.94 M 88.35 68.47 C 78.04 71.00 69.93 80.40 68.94 90.97 C 67.49 102.77 75.35 114.75 86.66 118.31 C 102.12 124.07 120.53 111.56 120.79 95.07 C 122.41 78.23 104.56 63.58 88.35 68.47 Z" />
</g>
</svg>
