<?xml version="1.0" encoding="UTF-8" ?>
<!DOCTYPE svg PUBLIC "-//W3C//DTD SVG 1.1//EN" "http://www.w3.org/Graphics/SVG/1.1/DTD/svg11.dtd">
<svg width="192pt" height="192pt" viewBox="0 0 192 192" version="1.1" xmlns="http://www.w3.org/2000/svg">
<g id="#48b9f4ff">
<path fill="#48b9f4" opacity="1.00" d=" M 84.41 14.54 C 116.11 9.59 149.56 25.51 165.93 53.04 C 178.76 73.73 181.34 100.25 173.15 123.14 C 163.32 151.46 136.77 173.12 106.97 176.79 C 76.13 181.38 43.68 166.31 27.09 139.96 C 8.49 111.91 10.05 72.36 30.88 45.91 C 43.74 29.01 63.33 17.37 84.41 14.54 M 87.37 25.46 C 65.28 27.99 44.96 41.79 34.24 61.22 C 24.81 77.86 22.73 98.40 28.47 116.62 C 36.20 142.27 59.71 162.24 86.31 165.60 C 109.69 169.02 134.34 159.58 149.56 141.53 C 168.99 119.55 172.12 85.15 156.95 60.03 C 143.29 36.04 114.77 21.84 87.37 25.46 Z" />
<path fill="#48b9f4" opacity="1.00" d=" M 76.27 64.28 C 80.54 62.68 85.45 63.34 89.31 65.72 C 99.16 71.55 109.11 77.20 118.88 83.17 C 127.41 88.54 127.49 102.50 119.02 107.97 C 108.82 114.21 98.44 120.20 88.09 126.20 C 79.12 131.24 66.69 124.31 66.24 114.05 C 66.04 102.36 66.22 90.66 66.17 78.96 C 65.91 72.54 70.18 66.32 76.27 64.28 M 79.31 75.27 C 77.52 76.11 77.34 78.22 77.41 79.95 C 77.47 90.92 77.35 101.89 77.48 112.86 C 77.42 115.87 81.35 117.59 83.64 115.72 C 93.12 110.18 102.60 104.63 112.03 99.00 C 114.75 97.71 114.68 93.42 111.97 92.18 C 102.95 86.79 93.86 81.52 84.84 76.15 C 83.18 75.22 81.13 73.88 79.31 75.27 Z" />
</g>
</svg>
