<?xml version="1.0" encoding="UTF-8" ?>
<!DOCTYPE svg PUBLIC "-//W3C//DTD SVG 1.1//EN" "http://www.w3.org/Graphics/SVG/1.1/DTD/svg11.dtd">
<svg width="192pt" height="192pt" viewBox="0 0 192 192" version="1.1" xmlns="http://www.w3.org/2000/svg">
<g id="#ff585eff">
<path fill="#ff585e" opacity="1.00" d=" M 40.27 21.31 C 70.43 19.97 100.77 21.11 131.00 20.73 C 137.67 20.89 144.38 20.37 151.03 21.03 C 162.02 22.52 170.95 32.85 170.81 43.95 C 170.88 77.98 170.86 112.02 170.83 146.05 C 171.15 158.33 160.34 169.45 148.06 169.51 C 113.69 169.58 79.31 169.56 44.94 169.51 C 32.60 169.50 21.77 158.35 22.06 146.03 C 22.03 112.00 22.01 77.98 22.07 43.95 C 21.97 33.39 29.98 23.55 40.27 21.31 M 42.27 32.35 C 37.21 33.74 33.19 38.59 33.29 43.93 C 33.24 77.97 33.27 112.02 33.28 146.07 C 33.04 152.82 39.28 158.77 46.01 158.33 C 79.66 158.33 113.32 158.33 146.98 158.32 C 153.68 158.71 159.80 152.77 159.65 146.08 C 159.70 112.03 159.73 77.97 159.64 43.92 C 159.72 36.86 152.87 31.23 146.00 31.82 C 111.44 32.19 76.76 31.12 42.27 32.35 Z" />
<path fill="#ff585e" opacity="1.00" d=" M 49.06 63.03 C 55.60 61.87 62.37 62.87 69.00 62.50 C 71.49 62.75 75.20 61.64 76.38 64.62 C 82.36 77.40 87.86 90.42 93.78 103.24 C 94.52 105.92 98.64 106.30 99.65 103.62 C 105.62 90.84 111.15 77.85 117.02 65.03 C 118.87 60.85 124.43 63.00 128.01 62.52 C 131.01 61.84 133.72 65.02 131.91 67.73 C 121.87 89.40 111.74 111.04 101.66 132.69 C 100.54 136.82 93.49 136.93 92.13 132.93 C 82.90 113.44 74.04 93.75 64.65 74.35 C 60.68 70.69 55.01 69.42 50.45 66.55 C 49.05 66.04 48.04 64.40 49.06 63.03 Z" />
</g>
</svg>
