<?xml version="1.0" encoding="UTF-8" ?>
<!DOCTYPE svg PUBLIC "-//W3C//DTD SVG 1.1//EN" "http://www.w3.org/Graphics/SVG/1.1/DTD/svg11.dtd">
<svg width="192pt" height="192pt" viewBox="0 0 192 192" version="1.1" xmlns="http://www.w3.org/2000/svg">
<g id="#1ab1ffff">
<path fill="#1ab1ff" opacity="1.00" d=" M 40.28 21.33 C 71.10 19.97 102.10 21.12 133.00 20.73 C 141.23 21.20 150.09 19.26 157.76 23.16 C 165.86 27.10 171.20 35.96 170.85 44.98 C 170.85 78.67 170.91 112.36 170.85 146.05 C 171.14 158.34 160.36 169.46 148.07 169.51 C 113.69 169.59 79.31 169.56 44.94 169.50 C 32.61 169.49 21.78 158.36 22.07 146.04 C 22.05 112.01 22.05 77.97 22.10 43.94 C 21.98 33.38 30.01 23.57 40.28 21.33 M 41.37 32.60 C 36.72 34.28 33.16 38.90 33.27 43.93 C 33.23 77.97 33.26 112.02 33.27 146.07 C 33.02 152.79 39.25 158.74 45.94 158.33 C 79.88 158.30 113.83 158.36 147.78 158.27 C 154.18 158.27 159.77 152.45 159.64 146.07 C 159.70 112.03 159.72 77.97 159.64 43.92 C 159.71 37.30 153.56 31.65 147.02 31.85 C 115.02 31.78 83.01 31.83 51.00 31.78 C 47.79 31.81 44.45 31.51 41.37 32.60 Z" />
<path fill="#1ab1ff" opacity="1.00" d=" M 70.26 72.85 C 68.17 68.85 71.38 63.47 76.00 63.99 C 79.80 63.73 81.33 67.68 82.34 70.62 C 87.06 84.52 91.82 98.41 96.41 112.35 C 102.82 97.55 106.56 81.55 112.64 66.56 C 115.84 60.69 125.76 65.74 122.95 71.90 C 117.11 88.56 110.83 105.08 104.63 121.61 C 102.29 129.01 90.65 129.18 88.26 121.73 C 82.04 105.53 76.14 89.18 70.26 72.85 Z" />
</g>
</svg>
