<?xml version="1.0" encoding="UTF-8" ?>
<!DOCTYPE svg PUBLIC "-//W3C//DTD SVG 1.1//EN" "http://www.w3.org/Graphics/SVG/1.1/DTD/svg11.dtd">
<svg width="192pt" height="192pt" viewBox="0 0 192 192" version="1.1" xmlns="http://www.w3.org/2000/svg">
<g id="#a218ffff">
<path fill="#a218ff" opacity="1.00" d=" M 21.38 32.59 C 17.89 26.98 22.30 18.78 28.97 18.86 C 43.33 18.78 57.70 19.06 72.06 19.04 C 77.57 18.85 81.93 23.27 84.16 27.92 C 93.53 46.61 103.22 65.17 112.22 84.03 C 114.46 89.86 105.28 93.97 102.28 88.68 C 92.15 69.37 82.91 49.56 72.56 30.36 C 59.29 30.20 46.02 30.22 32.75 30.11 C 53.74 71.52 74.17 113.28 95.71 154.38 C 116.32 112.96 137.04 71.59 157.54 30.12 C 154.05 30.63 148.55 28.44 146.87 32.73 C 139.43 47.96 132.18 63.30 124.30 78.30 C 120.75 83.38 112.11 78.34 114.76 72.75 C 122.46 57.12 129.97 41.37 137.86 25.84 C 142.94 16.89 154.39 18.74 163.02 18.85 C 168.79 18.80 172.67 25.78 169.86 30.74 C 147.21 76.43 124.42 122.05 101.67 167.69 C 99.56 172.80 91.46 172.73 89.41 167.60 C 66.72 122.60 44.03 77.61 21.38 32.59 Z" />
</g>
</svg>
