<?xml version="1.0" encoding="UTF-8" ?>
<!DOCTYPE svg PUBLIC "-//W3C//DTD SVG 1.1//EN" "http://www.w3.org/Graphics/SVG/1.1/DTD/svg11.dtd">
<svg width="192pt" height="192pt" viewBox="0 0 192 192" version="1.1" xmlns="http://www.w3.org/2000/svg">
<g id="#ff653bff">
<path fill="#ff653b" opacity="1.00" d=" M 84.41 14.52 C 116.12 9.57 149.57 25.51 165.95 53.04 C 178.77 73.74 181.36 100.26 173.17 123.15 C 163.41 151.16 137.35 172.69 107.91 176.68 C 76.79 181.68 43.82 166.60 27.06 139.97 C 8.46 111.91 10.02 72.36 30.85 45.90 C 43.72 29.00 63.32 17.34 84.41 14.52 M 87.37 25.46 C 63.28 28.12 41.44 44.36 31.55 66.43 C 18.21 94.76 26.75 131.25 51.46 150.54 C 77.40 172.46 119.16 171.18 143.69 147.69 C 167.56 126.64 173.66 88.83 157.74 61.29 C 144.34 36.53 115.30 21.74 87.37 25.46 Z" />
<path fill="#ff653b" opacity="1.00" d=" M 121.41 58.59 C 130.61 56.44 139.44 66.25 136.38 75.19 C 134.08 84.50 120.82 87.74 114.49 80.52 C 107.22 73.69 111.52 60.01 121.41 58.59 Z" />
<path fill="#ff653b" opacity="1.00" d=" M 50.34 107.38 C 53.74 105.79 57.43 108.30 58.33 111.68 C 64.85 127.41 81.90 137.97 98.93 136.38 C 114.51 135.46 128.66 124.70 134.26 110.22 C 136.51 104.13 146.57 107.44 144.77 113.72 C 137.84 133.78 117.25 148.14 96.00 147.73 C 74.79 148.12 54.21 133.90 47.19 113.88 C 46.33 111.31 47.91 108.41 50.34 107.38 Z" />
</g>
</svg>
