<?xml version="1.0" encoding="UTF-8" ?>
<!DOCTYPE svg PUBLIC "-//W3C//DTD SVG 1.1//EN" "http://www.w3.org/Graphics/SVG/1.1/DTD/svg11.dtd">
<svg width="192pt" height="192pt" viewBox="0 0 192 192" version="1.1" xmlns="http://www.w3.org/2000/svg">
<g id="#606f80ff">
<path fill="#606f80" opacity="1.00" d=" M 40.29 21.31 C 70.45 19.97 100.78 21.11 131.00 20.73 C 137.67 20.89 144.36 20.38 151.00 21.02 C 162.01 22.50 170.96 32.82 170.83 43.94 C 170.89 77.98 170.88 112.02 170.85 146.05 C 171.23 158.37 160.34 169.52 148.05 169.55 C 113.68 169.62 79.32 169.59 44.95 169.55 C 32.61 169.55 21.75 158.38 22.06 146.04 C 22.03 112.01 22.02 77.97 22.08 43.93 C 21.97 33.36 30.01 23.55 40.29 21.31 M 42.30 32.41 C 37.26 33.77 33.18 38.62 33.33 43.94 C 33.27 77.98 33.30 112.02 33.31 146.06 C 33.05 152.80 39.29 158.77 46.00 158.33 C 79.67 158.32 113.34 158.33 147.00 158.31 C 153.69 158.70 159.80 152.75 159.64 146.07 C 159.72 112.36 159.66 78.64 159.67 44.94 C 160.17 38.08 154.01 31.46 147.02 32.14 C 112.12 32.68 77.14 30.84 42.30 32.41 Z" />
<path fill="#606f80" opacity="1.00" d=" M 70.29 69.83 C 69.59 67.86 68.81 64.01 72.09 64.28 C 75.65 64.53 80.45 62.91 83.15 65.80 C 88.35 81.13 91.23 97.28 96.68 112.51 C 100.69 97.89 104.70 83.27 108.66 68.64 C 109.64 61.72 118.51 64.33 123.32 64.84 C 118.81 85.16 111.56 104.87 105.99 124.96 C 105.48 128.91 101.34 129.79 98.00 129.41 C 94.33 129.17 88.52 130.56 87.18 125.87 C 81.46 107.23 75.96 88.50 70.29 69.83 Z" />
</g>
</svg>
