<?xml version="1.0" encoding="UTF-8" ?>
<!DOCTYPE svg PUBLIC "-//W3C//DTD SVG 1.1//EN" "http://www.w3.org/Graphics/SVG/1.1/DTD/svg11.dtd">
<svg width="192pt" height="192pt" viewBox="0 0 192 192" version="1.1" xmlns="http://www.w3.org/2000/svg">
<g id="#936d70ff">
<path fill="#936d70" opacity="1.00" d=" M 82.33 14.42 C 113.43 9.04 146.68 23.72 163.73 50.25 C 176.54 69.44 180.49 94.16 174.49 116.42 C 166.56 147.49 138.80 172.26 106.96 176.37 C 75.96 181.25 43.07 166.15 26.43 139.58 C 8.93 113.07 9.20 76.30 27.08 50.04 C 39.49 31.18 60.00 17.88 82.33 14.42 M 49.84 41.81 C 55.84 47.64 61.56 53.76 67.70 59.45 C 79.46 50.44 95.60 47.47 109.70 52.25 C 112.98 53.22 117.38 54.84 117.24 59.01 C 117.51 63.13 112.70 66.02 109.12 64.12 C 98.39 59.57 85.18 60.55 75.84 67.75 C 82.59 73.99 88.62 81.62 95.86 86.96 C 111.12 72.09 126.02 56.83 141.16 41.83 C 116.62 19.07 74.16 18.69 49.84 41.81 M 41.20 49.78 C 26.95 66.51 21.34 90.06 26.46 111.42 C 33.09 141.80 61.84 165.47 92.97 165.91 C 123.82 167.51 153.82 146.18 162.72 116.67 C 169.91 94.08 165.14 67.54 149.14 49.81 C 132.75 66.20 116.36 82.58 99.98 98.98 C 97.89 101.48 93.79 102.06 91.52 99.47 C 83.57 91.64 75.74 83.66 67.81 75.81 C 58.21 88.20 59.64 107.32 70.41 118.57 C 80.80 130.24 99.50 133.06 112.82 124.83 C 126.32 117.19 133.02 99.69 127.96 85.00 C 127.06 81.92 124.59 78.57 126.46 75.37 C 128.40 71.61 134.61 71.69 136.36 75.60 C 143.90 90.53 142.03 109.59 131.81 122.83 C 121.55 136.66 102.95 143.89 86.09 139.95 C 67.19 136.25 51.92 119.25 50.27 100.05 C 48.65 88.25 53.34 77.00 59.14 67.08 C 53.04 61.45 47.74 54.90 41.20 49.78 Z" />
</g>
</svg>
