<?xml version="1.0" encoding="UTF-8" ?>
<!DOCTYPE svg PUBLIC "-//W3C//DTD SVG 1.1//EN" "http://www.w3.org/Graphics/SVG/1.1/DTD/svg11.dtd">
<svg width="192pt" height="192pt" viewBox="0 0 192 192" version="1.1" xmlns="http://www.w3.org/2000/svg">
<g id="#c320d4ff">
<path fill="#c320d4" opacity="1.00" d=" M 30.33 20.42 C 33.95 19.08 37.95 19.89 41.20 21.80 C 58.51 31.52 75.88 41.13 93.17 50.88 C 94.44 51.60 95.98 52.37 97.28 51.24 C 115.30 41.26 133.22 31.09 151.27 21.15 C 158.89 16.69 169.51 23.16 169.11 31.96 C 169.21 61.97 169.12 91.99 169.16 122.00 C 169.48 126.79 167.09 131.54 162.88 133.91 C 142.80 146.15 122.70 158.38 102.61 170.62 C 98.61 173.29 93.15 173.50 89.06 170.89 C 68.94 158.71 48.85 146.46 28.73 134.27 C 24.72 132.04 21.92 127.72 22.13 123.06 C 22.12 92.68 22.11 62.30 22.15 31.93 C 22.04 26.84 25.50 22.00 30.33 20.42 M 34.52 33.00 C 34.22 61.99 34.44 91.00 34.41 120.01 C 34.13 122.65 36.17 124.57 38.28 125.75 C 56.12 136.54 73.93 147.40 91.77 158.20 C 94.05 159.77 97.05 159.86 99.33 158.24 C 117.55 147.15 135.80 136.07 153.99 124.92 C 156.54 123.60 157.04 120.63 156.90 118.03 C 156.75 90.37 157.07 62.69 156.74 35.03 C 157.33 32.39 154.39 33.23 153.08 34.12 C 135.30 44.04 117.56 54.03 99.75 63.88 C 96.88 65.67 93.37 65.14 90.61 63.43 C 75.41 54.95 60.21 46.45 45.01 37.97 C 41.62 36.11 38.38 33.78 34.52 33.00 Z" />
</g>
</svg>
