<?xml version="1.0" encoding="UTF-8" ?>
<!DOCTYPE svg PUBLIC "-//W3C//DTD SVG 1.1//EN" "http://www.w3.org/Graphics/SVG/1.1/DTD/svg11.dtd">
<svg width="192pt" height="192pt" viewBox="0 0 192 192" version="1.1" xmlns="http://www.w3.org/2000/svg">
<g id="#ff3661ff">
<path fill="#ff3661" opacity="1.00" d=" M 40.36 21.48 C 55.84 20.20 71.50 21.06 87.04 20.98 C 93.13 20.99 93.91 30.86 87.90 31.83 C 73.30 32.61 58.61 31.77 43.98 32.23 C 37.76 32.69 32.80 38.77 33.26 44.93 C 33.28 78.64 33.25 112.36 33.28 146.07 C 33.02 152.82 39.26 158.80 46.00 158.34 C 79.67 158.32 113.34 158.33 147.00 158.32 C 153.71 158.73 159.79 152.76 159.65 146.07 C 159.73 112.37 159.67 78.65 159.68 44.95 C 160.04 38.82 155.18 32.83 149.02 32.24 C 141.44 31.72 133.79 32.66 126.24 31.81 C 120.88 30.85 120.75 22.21 126.10 21.13 C 133.37 20.55 140.72 20.94 148.02 20.93 C 160.16 20.93 170.93 31.79 170.81 43.94 C 170.89 77.98 170.87 112.02 170.84 146.06 C 171.18 158.36 160.34 169.47 148.05 169.51 C 113.69 169.59 79.32 169.57 44.95 169.51 C 32.60 169.52 21.77 158.39 22.06 146.05 C 22.04 112.01 22.01 77.96 22.09 43.92 C 22.05 33.39 30.07 23.61 40.36 21.48 Z" />
<path fill="#ff3661" opacity="1.00" d=" M 105.34 21.52 C 112.23 18.52 120.26 25.45 118.66 32.68 C 117.76 40.33 107.09 43.69 101.86 38.16 C 96.69 33.43 98.54 23.67 105.34 21.52 Z" />
<path fill="#ff3661" opacity="1.00" d=" M 92.42 41.48 C 97.23 38.95 103.47 41.54 105.68 46.35 C 108.10 50.91 105.89 56.97 101.40 59.33 C 96.31 62.24 88.92 59.58 87.24 53.84 C 85.32 49.16 87.87 43.50 92.42 41.48 Z" />
<path fill="#ff3661" opacity="1.00" d=" M 81.28 62.21 C 87.59 59.73 95.32 65.08 94.54 72.01 C 94.58 79.71 84.54 84.12 78.65 79.38 C 72.12 75.26 73.95 64.30 81.28 62.21 Z" />
<path fill="#ff3661" opacity="1.00" d=" M 105.29 62.20 C 112.39 58.78 120.73 66.31 118.72 73.74 C 117.49 81.36 106.68 83.91 101.71 78.29 C 96.74 73.57 98.89 64.45 105.29 62.20 Z" />
<path fill="#ff3661" opacity="1.00" d=" M 69.43 81.69 C 76.32 79.15 84.25 85.98 82.38 93.16 C 81.02 100.41 70.97 103.40 65.78 98.25 C 60.34 93.61 62.36 83.47 69.43 81.69 Z" />
<path fill="#ff3661" opacity="1.00" d=" M 94.27 81.34 C 101.60 78.95 109.42 87.32 106.42 94.45 C 104.08 101.26 94.02 103.13 89.43 97.58 C 84.66 92.44 87.44 83.01 94.27 81.34 Z" />
<path fill="#ff3661" opacity="1.00" d=" M 118.26 81.28 C 123.16 79.82 128.64 82.89 130.30 87.64 C 132.61 92.80 129.02 99.23 123.72 100.66 C 118.34 102.35 111.92 98.58 111.05 92.94 C 109.95 87.94 113.36 82.59 118.26 81.28 Z" />
<path fill="#ff3661" opacity="1.00" d=" M 82.38 101.46 C 88.95 99.61 95.89 105.97 94.66 112.66 C 93.82 120.04 83.74 123.89 78.32 118.68 C 72.24 113.91 74.77 102.97 82.38 101.46 Z" />
<path fill="#ff3661" opacity="1.00" d=" M 107.31 101.32 C 114.53 99.65 121.59 107.82 118.57 114.68 C 116.16 121.56 105.96 123.41 101.47 117.58 C 96.65 112.14 99.95 102.27 107.31 101.32 Z" />
<path fill="#ff3661" opacity="1.00" d=" M 94.30 121.40 C 101.34 119.06 109.03 126.68 106.62 133.71 C 104.88 140.48 95.56 143.36 90.45 138.51 C 84.49 133.75 86.86 123.12 94.30 121.40 Z" />
</g>
</svg>
