<?xml version="1.0" encoding="UTF-8" ?>
<!DOCTYPE svg PUBLIC "-//W3C//DTD SVG 1.1//EN" "http://www.w3.org/Graphics/SVG/1.1/DTD/svg11.dtd">
<svg width="192pt" height="192pt" viewBox="0 0 192 192" version="1.1" xmlns="http://www.w3.org/2000/svg">
<g id="#00b8ffff">
<path fill="#00b8ff" opacity="1.00" d=" M 32.33 28.40 C 35.16 27.68 38.10 27.71 40.99 27.70 C 78.99 27.77 116.99 27.65 154.98 27.78 C 167.44 28.08 178.19 39.53 177.80 51.97 C 177.80 81.34 177.84 110.70 177.75 140.07 C 177.80 152.58 166.50 163.58 154.05 163.49 C 115.04 163.50 76.03 163.58 37.02 163.48 C 24.82 163.17 14.12 152.29 14.07 140.08 C 13.92 110.71 14.01 81.33 14.01 51.96 C 13.81 41.13 21.77 30.86 32.33 28.40 M 24.97 50.95 C 24.75 57.76 24.93 64.58 24.90 71.40 C 36.60 71.55 48.30 71.33 60.00 71.51 C 72.47 71.98 83.09 83.52 82.62 95.98 C 82.70 108.16 72.22 119.26 60.01 119.69 C 48.32 119.89 36.61 119.71 24.91 119.79 C 24.86 126.54 24.76 133.30 24.91 140.05 C 25.08 146.81 31.15 152.72 37.92 152.64 C 76.64 152.69 115.36 152.70 154.07 152.66 C 161.21 152.72 167.35 146.13 167.06 139.05 C 167.10 110.01 167.09 80.98 167.03 51.94 C 167.22 44.92 161.02 38.53 153.98 38.56 C 115.33 38.52 76.67 38.54 38.02 38.59 C 31.33 38.50 25.24 44.27 24.97 50.95 M 24.96 82.30 C 24.77 91.16 24.90 100.02 24.88 108.88 C 35.94 109.04 47.01 108.95 58.07 108.95 C 64.86 109.23 71.25 103.67 71.72 96.86 C 72.62 89.59 66.42 82.42 59.08 82.36 C 47.71 82.22 36.34 82.36 24.96 82.30 Z" />
<path fill="#00b8ff" opacity="1.00" d=" M 50.39 90.51 C 53.67 89.96 57.13 89.91 60.40 90.55 C 64.80 91.96 65.03 98.99 60.66 100.58 C 57.30 101.44 53.64 101.39 50.26 100.65 C 45.72 99.16 45.79 91.87 50.39 90.51 Z" />
<path fill="#00b8ff" opacity="1.00" d=" M 121.98 113.98 C 120.30 108.84 128.27 105.36 130.93 110.01 C 134.19 116.67 136.21 123.86 138.99 130.73 C 141.63 124.06 143.71 117.16 146.71 110.62 C 148.15 107.01 153.79 106.96 155.48 110.39 C 157.10 113.01 155.24 115.82 154.30 118.31 C 151.35 124.73 148.93 131.40 145.77 137.71 C 142.90 142.89 134.35 142.58 131.88 137.19 C 128.46 129.51 125.00 121.82 121.98 113.98 Z" />
</g>
</svg>
