<?xml version="1.0" encoding="UTF-8" ?>
<!DOCTYPE svg PUBLIC "-//W3C//DTD SVG 1.1//EN" "http://www.w3.org/Graphics/SVG/1.1/DTD/svg11.dtd">
<svg width="192pt" height="192pt" viewBox="0 0 192 192" version="1.1" xmlns="http://www.w3.org/2000/svg">
<g id="#87465fff">
<path fill="#87465f" opacity="1.00" d=" M 84.42 14.56 C 104.88 11.61 126.40 16.72 143.22 28.77 C 164.99 44.01 178.66 70.34 177.77 97.01 C 177.86 127.19 159.14 156.10 132.09 169.18 C 109.95 180.19 82.83 180.32 60.58 169.55 C 34.40 157.16 15.80 130.08 14.29 101.07 C 12.92 81.70 18.72 61.93 30.48 46.47 C 43.32 29.28 63.12 17.42 84.42 14.56 M 87.38 25.49 C 64.35 28.14 43.27 43.04 32.93 63.76 C 22.26 84.39 22.85 110.34 34.48 130.45 C 48.51 155.95 79.34 170.69 107.99 165.26 C 138.05 160.49 162.97 134.28 166.14 103.99 C 169.21 80.03 158.80 55.04 139.74 40.24 C 125.18 28.48 105.91 23.36 87.38 25.49 Z" />
<path fill="#87465f" opacity="1.00" d=" M 89.31 49.35 C 112.97 45.44 137.43 62.70 141.76 86.25 C 145.74 104.50 137.43 124.64 121.65 134.67 C 105.99 145.38 83.68 144.89 68.54 133.44 C 52.67 122.31 45.32 100.66 51.21 82.18 C 56.17 65.07 71.67 51.75 89.31 49.35 M 91.48 60.64 C 72.39 62.62 57.61 82.14 61.08 101.07 C 63.58 120.35 84.12 134.78 103.10 130.18 C 121.65 126.79 134.88 106.81 130.51 88.39 C 127.16 70.89 109.15 57.98 91.48 60.64 Z" />
</g>
</svg>
