<?xml version="1.0" encoding="UTF-8" ?>
<!DOCTYPE svg PUBLIC "-//W3C//DTD SVG 1.1//EN" "http://www.w3.org/Graphics/SVG/1.1/DTD/svg11.dtd">
<svg width="192pt" height="192pt" viewBox="0 0 192 192" version="1.1" xmlns="http://www.w3.org/2000/svg">
<g id="#ff6a3bff">
<path fill="#ff6a3b" opacity="1.00" d=" M 94.14 19.12 C 96.18 15.29 102.48 16.28 103.56 20.40 C 108.71 33.65 113.60 47.02 118.63 60.32 C 120.28 63.38 118.45 67.49 115.04 68.23 C 105.69 68.87 96.12 67.66 86.88 68.80 C 84.54 74.02 82.86 79.52 80.91 84.90 C 96.56 85.18 112.22 85.11 127.88 85.13 C 131.96 95.46 135.78 105.90 139.66 116.30 C 141.07 119.23 139.17 123.23 135.89 123.68 C 112.69 124.36 89.47 123.66 66.27 124.00 C 64.77 128.14 63.01 132.18 61.43 136.29 C 93.61 136.47 125.80 136.14 157.98 136.44 C 170.93 139.38 174.89 158.71 165.68 167.67 C 161.24 172.58 154.29 173.68 148.00 173.44 C 111.67 173.29 75.34 173.68 39.02 173.36 C 26.17 173.58 17.27 158.90 22.51 147.40 C 23.14 142.73 29.62 140.57 32.48 144.59 C 35.78 148.53 30.27 152.70 32.04 156.93 C 32.80 160.48 36.56 162.47 39.99 162.26 C 76.99 162.26 113.99 162.27 150.99 162.24 C 154.93 162.58 159.54 160.36 159.93 156.03 C 161.04 151.31 156.77 146.90 152.08 147.29 C 119.04 147.20 85.99 147.31 52.95 147.23 C 49.78 147.55 46.93 144.18 48.11 141.14 C 50.93 133.04 54.09 125.05 57.05 116.99 C 57.76 114.41 60.23 112.48 62.96 112.80 C 84.23 112.78 105.50 112.71 126.76 112.71 C 124.70 107.25 122.89 101.69 120.66 96.29 C 104.77 95.78 88.85 96.48 72.96 95.94 C 69.35 96.06 66.34 92.16 67.73 88.74 C 70.98 79.74 74.45 70.81 77.81 61.85 C 78.47 59.46 80.54 57.36 83.16 57.50 C 90.77 57.40 98.40 57.52 106.02 57.46 C 103.63 50.90 101.08 44.40 98.57 37.89 C 97.05 41.02 96.26 44.46 94.57 47.50 C 92.49 50.81 86.79 50.37 85.32 46.71 C 83.92 43.98 85.68 41.18 86.54 38.60 C 89.17 32.15 91.18 25.43 94.14 19.12 Z" />
</g>
</svg>
