<?xml version="1.0" encoding="UTF-8" ?>
<!DOCTYPE svg PUBLIC "-//W3C//DTD SVG 1.1//EN" "http://www.w3.org/Graphics/SVG/1.1/DTD/svg11.dtd">
<svg width="192pt" height="192pt" viewBox="0 0 192 192" version="1.1" xmlns="http://www.w3.org/2000/svg">
<g id="#ff3661ff">
<path fill="#ff3661" opacity="1.00" d=" M 23.07 27.92 C 22.72 24.61 25.59 21.44 28.97 21.76 C 39.29 21.81 49.64 21.50 59.95 21.92 C 65.49 22.93 65.52 31.91 59.91 32.79 C 51.42 33.58 42.83 32.91 34.30 33.13 C 34.17 41.73 34.64 50.36 34.08 58.94 C 32.76 64.64 23.39 63.85 23.15 57.97 C 22.91 47.96 23.09 37.94 23.07 27.92 Z" />
<path fill="#ff3661" opacity="1.00" d=" M 133.08 32.84 C 127.42 31.95 127.33 22.86 132.98 21.90 C 143.31 21.52 153.69 21.79 164.03 21.76 C 167.39 21.50 170.14 24.66 169.83 27.93 C 169.74 38.19 170.14 48.48 169.63 58.72 C 168.71 64.13 160.04 64.25 158.84 58.94 C 158.20 50.37 158.75 41.74 158.56 33.14 C 150.07 32.91 141.54 33.53 133.08 32.84 Z" />
<path fill="#ff3661" opacity="1.00" d=" M 23.32 131.24 C 24.63 125.67 33.67 126.27 34.18 131.98 C 34.53 140.35 34.22 148.73 34.31 157.11 C 42.82 157.46 51.36 156.85 59.86 157.40 C 65.46 158.31 65.57 167.24 60.00 168.34 C 49.69 168.80 39.33 168.46 29.00 168.50 C 25.50 168.81 22.67 165.46 23.05 162.08 C 23.20 151.80 22.68 141.48 23.32 131.24 Z" />
<path fill="#ff3661" opacity="1.00" d=" M 158.88 131.10 C 160.34 125.56 169.34 126.39 169.73 132.09 C 170.03 142.08 169.80 152.08 169.85 162.07 C 170.26 165.42 167.47 168.78 164.01 168.52 C 153.80 168.52 143.58 168.72 133.38 168.42 C 127.84 167.84 127.03 159.09 132.41 157.55 C 141.08 156.60 149.89 157.62 158.61 157.04 C 158.73 148.40 158.15 139.70 158.88 131.10 Z" />
<path fill="#ff3661" opacity="1.00" d=" M 50.32 133.47 C 56.93 130.75 64.46 138.10 61.77 144.76 C 60.07 150.97 51.11 152.93 46.89 148.11 C 42.35 143.79 44.34 135.33 50.32 133.47 Z" />
<path fill="#ff3661" opacity="1.00" d=" M 65.23 133.13 C 68.99 133.29 73.35 132.10 76.66 134.35 C 78.52 137.72 78.55 142.92 75.31 145.54 C 76.10 147.16 76.89 148.78 77.70 150.39 C 76.51 150.58 75.32 150.78 74.13 151.00 C 72.69 148.98 72.41 144.96 69.20 145.35 C 69.09 147.17 68.97 148.99 68.84 150.81 C 67.64 150.80 66.45 150.78 65.26 150.76 C 65.10 144.89 65.15 139.01 65.23 133.13 M 69.15 136.18 C 69.13 138.24 69.10 140.29 69.08 142.35 C 70.68 142.23 72.28 142.09 73.87 141.92 C 73.91 140.09 73.83 138.26 73.59 136.46 C 72.11 136.35 70.63 136.26 69.15 136.18 Z" />
<path fill="#ff3661" opacity="1.00" d=" M 80.17 133.13 C 83.76 133.00 87.35 132.99 90.94 133.10 C 90.99 133.89 91.10 135.47 91.15 136.26 C 88.80 136.28 86.45 136.29 84.11 136.28 C 84.10 137.59 84.10 138.90 84.10 140.22 C 86.04 140.24 87.99 140.28 89.93 140.31 C 90.01 141.10 90.18 142.68 90.26 143.46 C 88.22 143.49 86.18 143.52 84.15 143.52 C 84.12 144.87 84.11 146.22 84.11 147.57 C 86.48 147.59 88.85 147.61 91.23 147.66 C 91.19 148.44 91.13 150.01 91.09 150.80 C 87.47 150.85 83.84 150.86 80.21 150.77 C 80.03 144.89 80.08 139.01 80.17 133.13 Z" />
<path fill="#ff3661" opacity="1.00" d=" M 93.65 134.62 C 97.97 130.63 108.51 132.39 106.41 140.14 C 105.52 140.11 103.75 140.06 102.86 140.04 C 102.58 138.75 102.28 137.46 101.94 136.19 C 100.30 136.17 98.65 136.18 97.01 136.22 C 96.55 140.04 96.46 143.92 97.10 147.73 C 98.70 147.77 100.30 147.79 101.91 147.79 C 102.28 146.48 102.59 145.15 102.91 143.83 C 103.77 143.82 105.49 143.81 106.35 143.81 C 108.57 151.55 98.03 153.25 93.69 149.36 C 92.41 144.69 92.34 139.28 93.65 134.62 Z" />
</g>
</svg>
