<?xml version="1.0" encoding="UTF-8" ?>
<!DOCTYPE svg PUBLIC "-//W3C//DTD SVG 1.1//EN" "http://www.w3.org/Graphics/SVG/1.1/DTD/svg11.dtd">
<svg width="192pt" height="192pt" viewBox="0 0 192 192" version="1.1" xmlns="http://www.w3.org/2000/svg">
<g id="#607080ff">
<path fill="#607080" opacity="1.00" d=" M 38.33 21.42 C 42.15 20.54 46.10 20.72 50.00 20.71 C 82.32 20.78 114.65 20.63 146.98 20.78 C 159.27 20.77 170.12 31.72 170.15 43.98 C 170.26 78.32 170.20 112.67 170.18 147.01 C 170.40 159.43 159.57 170.82 147.06 170.72 C 112.36 170.76 77.65 170.76 42.94 170.70 C 30.58 170.65 19.82 159.36 20.14 147.04 C 20.13 112.67 20.10 78.30 20.17 43.93 C 20.15 33.44 28.11 23.68 38.33 21.42 M 40.38 32.57 C 35.00 33.98 31.16 39.42 31.42 44.95 C 31.43 78.99 31.40 113.03 31.44 147.07 C 31.24 153.75 37.31 159.75 44.00 159.44 C 78.00 159.46 111.99 159.44 145.98 159.44 C 152.76 159.84 158.98 153.86 158.78 147.07 C 158.83 113.03 158.80 78.98 158.80 44.93 C 159.24 38.03 152.99 31.66 146.06 32.16 C 110.84 32.42 75.55 31.62 40.38 32.57 Z" />
<path fill="#607080" opacity="1.00" d=" M 44.58 67.35 C 42.26 61.18 52.25 57.18 54.85 63.19 C 60.11 77.37 63.83 92.12 69.15 106.30 C 74.08 92.25 78.06 77.89 82.88 63.82 C 84.00 59.97 89.51 58.93 92.11 61.88 C 94.62 64.14 93.54 67.71 92.63 70.46 C 86.48 89.42 80.69 108.50 74.49 127.44 C 73.22 132.71 64.98 132.52 63.76 127.32 C 57.30 107.36 50.84 87.37 44.58 67.35 Z" />
<path fill="#607080" opacity="1.00" d=" M 101.00 65.92 C 100.40 60.42 108.66 57.97 111.26 62.77 C 119.21 76.39 126.79 90.24 134.53 103.98 C 134.65 91.32 134.46 78.65 134.64 65.99 C 134.26 61.74 139.46 58.59 143.04 60.90 C 146.62 62.90 146.04 67.53 146.19 71.00 C 145.97 89.34 146.47 107.71 145.94 126.04 C 145.95 131.44 137.91 133.42 135.46 128.58 C 127.61 115.05 120.17 101.28 112.32 87.75 C 112.16 100.82 112.68 113.93 112.08 126.98 C 111.12 133.24 100.92 132.38 101.04 126.06 C 100.87 106.02 100.96 85.96 101.00 65.92 Z" />
</g>
</svg>
