<?xml version="1.0" encoding="UTF-8" ?>
<!DOCTYPE svg PUBLIC "-//W3C//DTD SVG 1.1//EN" "http://www.w3.org/Graphics/SVG/1.1/DTD/svg11.dtd">
<svg width="192pt" height="192pt" viewBox="0 0 192 192" version="1.1" xmlns="http://www.w3.org/2000/svg">
<g id="#aa19f4ff">
<path fill="#aa19f4" opacity="1.00" d=" M 28.05 57.02 C 38.29 34.87 62.42 19.42 87.00 20.72 C 107.33 20.79 127.66 20.68 147.99 20.76 C 160.20 20.71 171.01 31.75 170.80 43.94 C 170.82 78.31 170.88 112.69 170.77 147.07 C 170.62 159.37 159.31 169.97 147.04 169.53 C 121.15 169.27 95.27 170.15 69.38 169.43 C 71.18 158.35 74.15 147.12 72.35 135.83 C 71.62 131.67 69.30 127.05 64.99 125.77 C 61.29 125.08 58.74 128.60 57.71 131.68 C 53.06 143.79 56.46 156.91 55.71 169.48 C 54.72 169.51 52.75 169.59 51.76 169.63 C 51.42 169.36 50.75 168.81 50.41 168.54 C 42.88 170.35 35.55 165.17 34.70 157.49 C 37.29 162.91 44.84 166.11 48.55 159.89 C 44.79 159.92 41.41 158.34 39.45 155.09 C 43.54 156.74 48.15 156.25 49.28 151.34 C 48.59 151.26 47.21 151.10 46.52 151.03 C 51.59 145.31 45.56 138.55 42.32 133.62 C 34.87 122.85 28.06 111.37 24.15 98.81 C 20.32 85.01 22.71 70.09 28.05 57.02 M 111.76 31.82 C 115.39 35.21 118.21 39.31 121.53 42.97 C 120.22 39.90 118.19 37.23 116.66 34.29 C 119.84 35.30 121.73 38.09 123.41 40.78 C 124.16 40.65 124.91 40.51 125.67 40.38 C 126.51 43.98 126.90 47.66 127.16 51.34 C 129.19 51.39 131.23 51.38 133.26 51.36 C 132.46 52.30 131.65 53.23 130.84 54.16 C 134.42 57.15 138.96 58.46 143.55 57.41 C 142.19 58.41 140.80 59.36 139.40 60.30 C 147.28 68.08 150.05 79.91 149.02 90.65 C 148.27 87.97 147.82 85.21 146.97 82.55 C 146.37 96.35 145.08 110.20 141.39 123.56 C 139.71 116.27 139.76 108.35 135.53 101.88 C 135.53 104.71 135.79 107.53 136.00 110.35 C 135.06 108.80 134.15 107.22 133.23 105.66 C 131.85 109.98 130.57 114.38 128.40 118.38 C 128.83 111.33 128.87 104.09 126.30 97.39 C 125.46 100.38 124.76 103.41 123.85 106.39 C 123.51 105.79 122.83 104.58 122.49 103.97 C 120.35 108.03 118.09 112.23 114.26 114.95 C 119.73 106.74 123.17 97.13 123.04 87.17 C 118.07 95.94 111.54 104.72 102.82 109.92 C 108.00 103.51 115.41 98.38 117.57 89.99 C 113.50 91.98 108.97 91.11 104.62 91.14 C 108.24 87.75 113.67 89.99 117.49 87.45 C 119.47 84.13 118.82 79.79 118.48 76.06 C 113.24 81.51 107.09 86.78 99.45 88.27 C 104.03 84.71 109.10 81.30 111.37 75.68 C 104.96 79.81 98.29 84.29 90.41 84.72 C 97.22 80.92 104.37 76.94 108.23 69.78 C 101.42 74.37 93.46 77.48 85.11 76.46 C 86.81 78.65 88.36 81.11 87.24 83.99 C 83.27 81.34 81.36 75.94 76.66 74.49 C 71.28 75.08 66.04 77.50 61.70 80.70 C 56.90 84.43 58.40 91.09 58.06 96.33 C 52.80 90.03 57.65 82.55 57.34 75.70 C 53.25 68.98 43.20 80.08 48.44 84.67 C 50.03 85.40 51.79 85.61 53.48 86.00 C 53.35 100.48 64.35 112.18 76.30 118.76 C 85.13 121.20 94.48 116.43 101.14 110.81 C 101.51 111.13 101.88 111.45 102.26 111.78 C 96.19 116.46 89.29 119.84 81.76 121.39 C 83.92 127.22 89.86 131.11 95.39 133.56 C 100.47 135.26 101.47 141.36 101.75 146.01 C 102.21 150.37 97.93 153.94 99.68 158.31 C 115.45 158.38 131.23 158.34 147.00 158.34 C 153.73 158.76 159.88 152.80 159.72 146.08 C 159.80 112.36 159.74 78.65 159.75 44.93 C 160.23 38.31 154.66 32.12 148.04 31.90 C 135.95 31.67 123.85 31.87 111.76 31.82 Z" />
</g>
</svg>
