<?xml version="1.0" encoding="UTF-8" ?>
<!DOCTYPE svg PUBLIC "-//W3C//DTD SVG 1.1//EN" "http://www.w3.org/Graphics/SVG/1.1/DTD/svg11.dtd">
<svg width="192pt" height="192pt" viewBox="0 0 192 192" version="1.1" xmlns="http://www.w3.org/2000/svg">
<g id="#a297a4ff">
<path fill="#a297a4" opacity="1.00" d=" M 21.22 43.94 C 20.92 31.73 31.86 20.84 44.00 20.83 C 78.33 20.74 112.67 20.76 147.00 20.81 C 159.13 20.89 169.96 31.77 169.70 43.95 C 169.65 61.92 169.90 79.91 169.59 97.88 C 169.07 103.78 159.68 103.82 158.92 97.99 C 158.40 79.68 158.99 61.31 158.65 42.99 C 158.30 36.66 152.23 31.63 146.03 31.72 C 112.35 31.69 78.66 31.68 44.98 31.69 C 38.40 31.51 31.88 37.14 32.25 43.95 C 32.22 77.98 32.24 112.02 32.24 146.05 C 31.84 152.86 38.29 158.88 45.01 158.45 C 61.33 158.39 77.66 158.52 93.98 158.36 C 89.16 152.11 83.13 146.78 78.95 140.05 C 74.64 132.13 81.31 121.74 90.04 121.31 C 97.60 120.92 103.46 126.68 108.48 131.58 C 108.29 119.26 108.57 106.94 108.34 94.63 C 96.60 87.38 93.32 69.91 102.20 59.19 C 110.56 47.88 129.07 47.08 138.44 57.54 C 147.89 67.01 146.77 83.95 136.61 92.48 C 135.36 97.20 136.46 102.48 136.04 107.41 C 140.90 106.59 145.70 108.36 149.17 111.77 C 157.18 106.94 168.63 112.81 169.56 122.05 C 169.90 130.35 169.49 138.68 169.67 147.00 C 169.98 158.73 159.48 169.05 147.94 169.54 C 142.99 169.67 138.00 169.90 133.06 169.42 C 127.62 168.59 127.32 159.84 132.62 158.55 C 138.30 157.48 144.19 158.89 149.87 157.73 C 155.70 156.06 159.23 149.93 158.64 144.03 C 158.20 136.38 159.47 128.53 157.95 121.00 C 156.41 121.34 154.06 120.47 153.22 122.25 C 152.16 127.99 153.50 133.90 152.50 139.64 C 151.39 144.44 143.64 144.41 142.40 139.70 C 141.28 132.97 142.61 126.05 141.72 119.28 C 140.46 117.48 136.43 117.45 136.23 120.10 C 135.59 126.63 136.75 133.28 135.66 139.76 C 134.33 144.84 125.77 144.16 125.41 138.85 C 124.63 120.00 125.92 101.06 124.77 82.23 C 122.81 81.76 119.48 81.23 119.32 84.14 C 118.89 105.07 119.44 126.05 119.05 146.99 C 118.91 150.73 114.38 152.87 111.26 150.93 C 104.53 145.39 100.45 136.76 92.58 132.60 C 90.31 130.74 86.91 133.57 89.04 135.89 C 96.29 144.39 104.37 152.30 110.23 161.89 C 112.32 164.99 109.57 169.71 105.83 169.44 C 85.21 169.52 64.57 169.47 43.95 169.45 C 32.11 169.36 21.36 158.99 21.24 147.08 C 21.15 112.70 21.22 78.32 21.22 43.94 M 109.20 80.10 C 111.49 74.67 116.97 70.52 123.03 70.95 C 127.65 71.09 131.17 74.40 134.28 77.45 C 136.49 68.80 128.94 59.59 119.98 60.52 C 110.85 60.85 104.06 72.23 109.20 80.10 Z" />
</g>
</svg>
