<?xml version="1.0" encoding="UTF-8" ?>
<!DOCTYPE svg PUBLIC "-//W3C//DTD SVG 1.1//EN" "http://www.w3.org/Graphics/SVG/1.1/DTD/svg11.dtd">
<svg width="192pt" height="192pt" viewBox="0 0 192 192" version="1.1" xmlns="http://www.w3.org/2000/svg">
<g id="#58bcf1ff">
<path fill="#58bcf1" opacity="1.00" d=" M 93.36 12.45 C 95.40 11.88 97.59 11.87 99.63 12.46 C 118.96 18.41 138.34 24.63 158.41 27.60 C 162.76 28.33 165.80 32.71 165.61 37.02 C 165.73 58.34 165.68 79.67 165.68 100.99 C 165.58 117.24 158.49 132.83 147.96 144.97 C 135.65 159.14 119.81 169.95 102.88 177.87 C 97.38 181.05 91.06 178.97 86.05 175.91 C 58.68 162.00 31.37 138.89 27.58 106.56 C 26.85 83.71 27.43 60.82 27.33 37.95 C 26.81 33.29 29.77 28.35 34.61 27.63 C 54.65 24.58 74.04 18.43 93.36 12.45 M 38.46 38.32 C 38.47 59.57 38.37 80.81 38.49 102.06 C 38.98 117.95 47.72 132.31 58.80 143.21 C 69.28 153.58 81.96 161.45 95.18 167.85 C 96.78 168.80 98.46 167.40 99.95 166.85 C 115.72 158.97 130.76 148.73 141.78 134.79 C 149.75 124.67 154.67 111.96 154.45 99.00 C 154.37 78.75 154.67 58.48 154.23 38.24 C 134.39 35.42 115.40 28.59 96.17 23.36 C 77.15 29.05 58.13 35.19 38.46 38.32 Z" />
<path fill="#58bcf1" opacity="1.00" d=" M 61.13 66.15 C 73.90 55.04 95.43 58.71 104.19 73.09 C 112.51 65.18 126.73 64.89 134.99 73.03 C 144.49 81.33 144.39 97.62 134.87 105.87 C 126.28 114.10 111.79 113.32 103.49 105.06 C 94.15 119.61 71.50 122.00 59.44 109.58 C 46.91 98.33 47.79 76.40 61.13 66.15 M 74.38 71.58 C 65.86 73.96 60.16 83.33 62.03 91.99 C 63.52 100.29 71.52 106.83 79.99 106.37 C 88.82 106.37 96.75 98.79 97.25 90.00 C 98.68 78.06 85.75 67.61 74.38 71.58 M 117.40 78.55 C 111.85 79.60 107.78 85.43 108.75 91.01 C 109.51 96.73 115.26 101.18 121.00 100.33 C 127.22 99.80 132.05 93.22 130.58 87.12 C 129.50 81.27 123.19 77.14 117.40 78.55 Z" />
</g>
</svg>
