<?xml version="1.0" encoding="UTF-8" ?>
<!DOCTYPE svg PUBLIC "-//W3C//DTD SVG 1.1//EN" "http://www.w3.org/Graphics/SVG/1.1/DTD/svg11.dtd">
<svg width="192pt" height="192pt" viewBox="0 0 192 192" version="1.1" xmlns="http://www.w3.org/2000/svg">
<g id="#41e274ff">
<path fill="#41e274" opacity="1.00" d=" M 18.28 68.29 C 26.58 54.85 42.18 46.36 57.98 46.72 C 73.96 46.80 89.49 55.91 97.36 69.81 C 110.66 70.14 123.97 69.89 137.27 69.94 C 137.51 65.95 136.72 61.80 137.77 57.90 C 139.48 53.54 146.42 53.62 148.03 58.01 C 149.08 61.86 148.34 65.94 148.54 69.89 C 153.72 70.05 158.90 69.85 164.07 70.01 C 171.32 70.23 177.62 76.75 177.80 83.97 C 177.89 90.28 177.96 96.61 177.76 102.92 C 177.31 110.35 170.38 116.48 162.99 116.36 C 141.16 116.43 119.32 116.34 97.48 116.40 C 89.47 130.25 74.05 139.48 57.99 139.53 C 41.86 139.94 26.05 131.02 17.79 117.21 C 8.69 102.56 8.81 82.74 18.28 68.29 M 43.89 59.94 C 27.91 66.12 18.27 84.80 22.57 101.41 C 25.98 116.65 40.29 128.53 55.93 128.91 C 71.06 129.80 85.59 119.78 90.94 105.75 C 114.97 105.68 139.00 105.79 163.03 105.69 C 165.50 105.78 167.54 103.46 167.29 101.02 C 167.37 95.67 167.39 90.31 167.28 84.96 C 167.38 82.65 165.38 80.40 163.02 80.54 C 138.99 80.41 114.96 80.57 90.93 80.46 C 84.29 62.19 61.82 52.05 43.89 59.94 Z" />
<path fill="#41e274" opacity="1.00" d=" M 52.30 72.38 C 60.65 70.25 70.04 74.09 74.50 81.45 C 79.43 89.00 78.47 99.71 72.27 106.26 C 66.28 113.11 55.53 114.87 47.56 110.58 C 40.22 106.76 35.65 98.25 36.74 90.01 C 37.59 81.65 44.11 74.26 52.30 72.38 M 54.35 83.53 C 47.77 85.30 45.56 94.76 50.85 99.16 C 55.74 104.25 65.34 100.95 66.27 94.01 C 67.71 87.46 60.66 81.28 54.35 83.53 Z" />
</g>
</svg>
