<?xml version="1.0" encoding="UTF-8" ?>
<!DOCTYPE svg PUBLIC "-//W3C//DTD SVG 1.1//EN" "http://www.w3.org/Graphics/SVG/1.1/DTD/svg11.dtd">
<svg width="192pt" height="192pt" viewBox="0 0 192 192" version="1.1" xmlns="http://www.w3.org/2000/svg">
<g id="#d6485bff">
<path fill="#d6485b" opacity="1.00" d=" M 65.22 31.19 C 73.20 19.52 88.65 16.14 101.99 16.79 C 113.84 17.42 127.02 21.77 133.44 32.46 C 139.23 43.04 135.56 55.47 131.92 66.10 C 132.08 71.08 130.36 75.60 128.20 79.97 C 129.40 85.33 132.38 91.41 138.01 93.15 C 143.67 94.36 148.50 90.46 152.05 86.56 C 155.36 95.73 155.25 106.20 151.03 115.05 C 149.45 118.41 145.21 117.90 142.17 118.49 C 147.05 119.86 151.89 121.69 157.07 121.16 C 163.92 120.51 170.59 126.02 170.86 132.97 C 171.28 142.32 171.17 151.71 170.93 161.07 C 170.95 167.85 164.88 173.84 158.06 173.57 C 113.76 173.59 69.45 173.65 25.14 173.52 C 19.10 174.05 18.89 163.98 24.98 164.37 C 69.00 164.18 113.03 164.35 157.04 164.27 C 159.20 164.54 161.75 163.38 161.58 160.88 C 161.74 151.92 161.74 142.93 161.58 133.97 C 161.79 131.47 159.27 130.15 157.08 130.47 C 116.03 130.46 74.98 130.47 33.93 130.46 C 32.29 130.41 30.28 130.67 29.57 132.40 C 28.49 139.13 30.07 146.07 28.77 152.76 C 27.36 156.73 20.80 156.07 20.21 151.91 C 19.71 145.93 20.04 139.90 20.02 133.90 C 19.85 127.69 24.89 121.86 31.11 121.30 C 36.43 120.93 41.77 121.25 47.10 121.14 C 41.79 114.04 39.64 105.22 39.38 96.47 C 42.48 96.58 45.58 96.73 48.69 96.82 C 45.43 95.34 40.24 95.15 39.39 90.88 C 37.56 81.05 44.32 71.88 52.68 67.47 C 51.08 72.22 50.33 78.73 55.20 81.85 C 59.08 84.60 63.92 83.04 67.08 79.99 C 64.55 74.97 57.51 66.89 65.10 62.97 C 61.18 52.97 59.22 40.79 65.22 31.19 M 75.17 29.18 C 67.22 34.28 66.43 44.60 67.92 53.07 C 73.96 45.17 81.54 38.18 90.37 33.54 C 93.51 38.62 96.44 44.07 101.40 47.64 C 109.54 53.17 116.93 60.30 127.12 61.70 C 130.74 51.66 133.60 37.70 123.82 30.18 C 109.91 20.22 89.51 19.96 75.17 29.18 M 78.34 49.51 C 82.07 48.85 85.38 50.46 87.06 53.85 C 83.28 53.65 79.55 52.97 75.81 52.42 C 72.31 57.22 69.71 62.72 69.03 68.67 C 67.34 67.40 65.46 66.39 63.34 66.05 C 62.91 70.62 65.73 74.55 69.56 76.74 C 69.90 90.28 83.70 96.33 95.01 98.96 C 102.54 99.57 109.03 94.73 115.48 91.55 C 120.40 89.26 122.50 84.02 123.50 79.03 C 127.07 76.94 130.35 73.36 129.81 68.91 C 127.62 67.69 125.85 69.93 124.05 70.87 C 123.91 69.47 123.76 68.08 123.60 66.69 C 120.10 66.12 116.72 65.09 113.53 63.54 C 109.88 61.96 107.02 65.73 104.19 67.36 C 104.85 64.38 105.94 61.53 107.42 58.86 C 100.01 54.31 92.29 49.29 88.44 41.16 C 85.53 44.46 82.14 47.29 78.34 49.51 M 44.83 89.21 C 48.41 90.30 53.94 91.20 53.85 96.06 C 54.59 100.77 49.93 103.17 45.93 103.35 C 46.61 106.25 47.38 109.13 48.20 112.00 C 51.86 105.05 59.63 100.16 67.60 102.53 C 72.53 104.51 77.64 102.81 82.39 101.20 C 76.32 97.91 69.80 94.51 66.41 88.16 C 58.80 91.17 50.58 87.65 46.23 81.05 C 45.64 83.75 45.19 86.47 44.83 89.21 M 113.18 99.53 C 113.16 100.56 113.15 101.60 113.13 102.63 C 117.94 104.84 122.43 108.78 128.04 108.20 C 132.20 107.88 135.93 109.97 139.06 112.47 C 141.41 112.23 143.76 112.08 146.11 111.94 C 147.70 107.30 148.52 102.43 148.53 97.53 C 140.22 101.61 130.32 98.37 125.76 90.41 C 122.45 94.54 117.91 97.31 113.18 99.53 M 87.50 99.16 C 87.54 101.58 87.55 104.00 87.58 106.42 C 82.65 107.39 77.85 109.08 72.85 109.58 C 68.25 109.29 63.47 106.82 58.95 108.91 C 54.40 111.23 53.17 116.60 52.00 121.12 C 80.41 121.16 108.82 121.19 137.22 121.10 C 135.66 118.68 134.35 115.61 131.41 114.61 C 127.66 113.68 123.49 115.24 120.05 112.96 C 114.27 109.64 104.92 107.84 106.65 99.11 C 100.64 102.20 93.55 102.10 87.50 99.16 Z" />
<path fill="#d6485b" opacity="1.00" d=" M 71.03 62.08 C 74.88 60.12 79.09 55.73 83.69 58.26 C 87.50 59.73 88.91 63.79 89.38 67.51 C 87.20 66.03 85.24 64.06 82.71 63.20 C 79.58 62.63 77.25 65.42 74.36 66.05 C 73.12 64.84 72.09 63.44 71.03 62.08 Z" />
<path fill="#d6485b" opacity="1.00" d=" M 95.56 75.20 C 99.08 72.94 96.50 78.98 95.56 75.20 Z" />
<path fill="#d6485b" opacity="1.00" d=" M 88.74 83.20 C 90.67 80.42 93.16 77.43 96.98 78.09 C 102.44 77.23 105.36 82.69 109.40 85.19 C 102.32 86.46 94.91 82.30 87.92 86.24 C 87.08 85.41 86.25 84.58 85.42 83.74 C 86.53 83.56 87.63 83.38 88.74 83.20 Z" />
<path fill="#d6485b" opacity="1.00" d=" M 90.28 86.81 C 94.69 89.49 99.76 89.95 104.32 87.24 C 102.13 93.94 92.29 93.24 90.28 86.81 Z" />
<path fill="#d6485b" opacity="1.00" d=" M 58.15 133.37 C 59.98 133.36 61.82 133.30 63.64 133.52 C 66.52 139.99 67.47 147.14 69.69 153.85 C 71.70 147.03 73.36 140.12 75.47 133.34 C 77.42 133.36 79.36 133.44 81.31 133.53 C 78.97 142.03 76.44 150.49 73.80 158.90 C 73.02 162.17 68.79 161.32 66.39 160.65 C 63.05 151.78 60.56 142.54 58.15 133.37 Z" />
<path fill="#d6485b" opacity="1.00" d=" M 84.18 133.46 C 89.62 133.56 95.36 132.50 100.57 134.43 C 104.96 137.42 103.72 143.82 103.27 148.36 C 101.93 154.17 94.67 153.03 90.18 153.16 C 90.10 155.84 89.95 158.53 89.72 161.21 C 87.87 161.09 86.02 160.97 84.18 160.82 C 83.98 151.70 83.97 142.58 84.18 133.46 M 90.17 138.28 C 90.11 141.55 90.09 144.81 90.08 148.08 C 92.30 148.00 94.55 148.08 96.75 147.65 C 98.29 145.32 97.90 142.24 97.31 139.66 C 95.46 137.83 92.51 138.68 90.17 138.28 Z" />
<path fill="#d6485b" opacity="1.00" d=" M 106.98 133.42 C 108.72 133.41 110.49 133.29 112.21 133.63 C 115.58 138.74 117.83 144.51 120.83 149.84 C 121.04 144.41 120.40 138.92 121.25 133.53 C 123.01 133.33 124.79 133.33 126.56 133.31 C 126.86 142.63 126.85 151.98 126.57 161.30 C 117.64 162.09 117.55 150.28 112.95 144.93 C 112.67 150.18 113.17 155.46 112.63 160.70 C 110.83 161.04 108.99 161.12 107.17 161.24 C 106.75 151.97 107.06 142.69 106.98 133.42 Z" />
</g>
</svg>
