<?xml version="1.0" encoding="UTF-8" ?>
<!DOCTYPE svg PUBLIC "-//W3C//DTD SVG 1.1//EN" "http://www.w3.org/Graphics/SVG/1.1/DTD/svg11.dtd">
<svg width="192pt" height="192pt" viewBox="0 0 192 192" version="1.1" xmlns="http://www.w3.org/2000/svg">
<g id="#19afffff">
<path fill="#19afff" opacity="1.00" d=" M 84.41 13.53 C 116.12 8.58 149.57 24.50 165.94 52.04 C 178.76 72.74 181.34 99.27 173.14 122.14 C 163.37 150.22 137.21 171.78 107.70 175.69 C 76.64 180.60 43.80 165.53 27.07 138.96 C 8.48 110.91 10.03 71.35 30.87 44.89 C 43.73 28.00 63.33 16.36 84.41 13.53 M 87.39 24.48 C 66.05 26.96 46.31 39.88 35.36 58.34 C 24.90 75.52 22.47 97.26 28.74 116.35 C 36.75 141.83 60.33 161.51 86.88 164.63 C 110.31 167.86 134.90 158.20 149.97 140.00 C 169.19 117.83 171.98 83.38 156.55 58.42 C 142.77 34.80 114.52 20.91 87.39 24.48 Z" />
<path fill="#19afff" opacity="1.00" d=" M 61.43 60.64 C 72.76 58.38 85.28 64.18 90.32 74.68 C 91.90 77.96 93.88 82.67 90.47 85.51 C 87.21 88.52 81.70 86.20 81.08 81.91 C 78.42 72.22 65.22 68.23 57.44 74.41 C 53.46 76.85 52.43 81.53 50.46 85.39 C 47.52 89.36 40.51 86.93 40.55 82.03 C 41.87 71.34 51.01 62.63 61.43 60.64 Z" />
<path fill="#19afff" opacity="1.00" d=" M 119.42 60.53 C 132.28 58.23 147.23 64.97 150.71 78.30 C 153.10 82.53 148.93 88.50 144.15 86.79 C 139.54 85.53 140.21 79.66 137.32 76.68 C 129.40 67.62 111.79 70.57 108.86 82.89 C 108.26 89.30 98.10 89.50 97.57 83.01 C 98.58 71.85 108.36 62.12 119.42 60.53 Z" />
</g>
</svg>
