<?xml version="1.0" encoding="UTF-8" ?>
<!DOCTYPE svg PUBLIC "-//W3C//DTD SVG 1.1//EN" "http://www.w3.org/Graphics/SVG/1.1/DTD/svg11.dtd">
<svg width="192pt" height="192pt" viewBox="0 0 192 192" version="1.1" xmlns="http://www.w3.org/2000/svg">
<g id="#a61affff">
<path fill="#a61aff" opacity="1.00" d=" M 92.35 14.47 C 97.78 12.38 102.83 16.11 107.42 18.53 C 127.64 30.24 147.06 43.31 165.87 57.17 C 169.66 59.73 173.54 63.57 172.56 68.60 C 169.98 88.44 166.65 108.25 161.60 127.62 C 159.50 136.28 154.38 143.99 147.58 149.69 C 133.79 161.24 117.64 169.80 100.65 175.61 C 97.94 176.59 94.92 176.92 92.15 175.93 C 74.30 170.12 57.48 161.01 43.16 148.84 C 37.63 144.29 33.66 138.06 32.00 131.08 C 26.21 110.33 20.72 89.26 19.22 67.70 C 18.37 61.13 25.26 57.99 29.57 54.60 C 50.13 40.68 70.82 26.81 92.35 14.47 M 30.54 67.88 C 31.85 87.03 36.87 105.69 41.73 124.19 C 43.17 129.77 44.89 135.64 49.56 139.43 C 62.99 151.11 78.92 160.05 95.97 165.16 C 110.24 160.70 123.72 153.65 135.70 144.72 C 142.34 139.92 148.48 133.63 150.44 125.43 C 155.43 106.56 158.68 87.25 161.24 67.91 C 140.38 52.37 118.84 37.55 95.95 25.15 C 73.75 38.75 51.66 52.64 30.54 67.88 Z" />
<path fill="#a61aff" opacity="1.00" d=" M 54.98 109.94 C 66.03 97.91 77.11 85.81 88.81 74.42 C 94.89 79.91 100.45 85.96 106.30 91.69 C 107.24 92.46 108.52 93.98 109.85 93.03 C 119.77 88.13 129.18 82.15 139.34 77.76 C 138.08 81.09 135.05 83.19 132.82 85.83 C 123.46 95.48 114.39 105.42 104.96 115.00 C 104.22 116.20 102.83 116.04 102.04 114.99 C 96.24 109.43 90.78 103.52 84.93 98.01 C 83.87 96.82 82.26 97.55 81.13 98.19 C 73.98 102.02 66.87 105.91 59.74 109.77 C 58.21 110.47 56.12 112.04 54.98 109.94 Z" />
</g>
</svg>
