<?xml version="1.0" encoding="UTF-8" ?>
<!DOCTYPE svg PUBLIC "-//W3C//DTD SVG 1.1//EN" "http://www.w3.org/Graphics/SVG/1.1/DTD/svg11.dtd">
<svg width="192pt" height="192pt" viewBox="0 0 192 192" version="1.1" xmlns="http://www.w3.org/2000/svg">
<g id="#73a796ff">
<path fill="#73a796" opacity="1.00" d=" M 77.79 18.89 C 79.11 18.21 80.44 17.54 81.78 16.89 C 87.42 20.22 93.89 16.66 99.88 18.34 C 104.53 19.03 108.16 22.42 112.67 23.45 C 117.64 24.22 121.46 20.14 126.00 18.94 C 132.83 16.26 140.22 20.15 146.95 16.99 C 150.90 19.38 149.53 24.86 151.67 28.21 C 154.24 29.85 156.49 32.57 154.59 35.70 C 149.89 45.52 137.61 45.55 129.02 49.98 C 122.69 53.41 115.56 50.36 108.87 51.63 C 101.65 52.65 95.62 47.68 88.85 46.17 C 81.85 44.26 72.18 39.87 73.06 31.19 C 77.64 28.71 78.39 23.66 77.79 18.89 M 82.13 21.91 C 78.39 31.72 90.13 37.08 98.22 35.82 C 92.07 32.12 87.22 26.85 82.13 21.91 M 129.67 35.85 C 137.69 37.05 149.79 31.83 145.82 21.95 C 140.91 27.12 135.79 32.12 129.67 35.85 Z" />
<path fill="#73a796" opacity="1.00" d=" M 36.67 23.64 C 48.87 18.44 62.93 18.40 75.79 20.90 C 75.61 21.44 75.24 22.52 75.06 23.06 C 65.48 24.02 54.78 24.67 47.02 31.00 C 42.64 36.02 48.68 41.64 53.03 43.98 C 82.42 60.81 118.53 64.83 151.18 56.27 C 154.38 55.32 158.44 53.69 159.06 49.98 C 158.21 46.57 154.45 45.14 152.12 42.87 C 159.43 43.89 168.06 51.81 164.53 59.48 C 157.75 65.10 148.42 66.35 140.01 67.95 C 108.81 72.75 75.78 67.53 48.33 51.71 C 41.90 48.36 37.78 42.33 35.49 35.62 C 32.21 42.51 35.34 50.47 40.78 55.22 C 53.53 66.84 70.59 72.00 87.04 75.84 C 104.70 80.23 123.34 79.83 140.82 74.83 C 146.40 73.75 153.49 69.71 158.22 74.81 C 162.70 79.16 159.87 86.30 155.23 89.26 C 144.25 97.22 130.89 101.25 117.69 103.65 C 93.66 107.83 68.14 105.94 45.90 95.45 C 50.74 102.77 59.30 106.21 67.40 108.58 C 84.67 113.45 103.18 113.33 120.66 109.59 C 125.68 108.50 131.79 105.73 136.24 109.71 C 141.09 113.60 140.20 121.87 134.76 124.78 C 117.99 134.73 98.37 140.04 78.87 139.49 C 91.61 141.89 104.80 139.78 117.01 135.82 C 121.08 134.39 126.47 135.45 128.53 139.57 C 131.25 145.72 129.01 153.64 123.20 157.20 C 110.96 165.30 97.00 171.16 82.41 173.18 C 96.38 166.05 113.03 159.50 120.33 144.59 C 109.72 147.09 99.03 150.10 88.01 149.55 C 77.19 149.20 65.36 147.51 57.02 139.96 C 52.50 136.03 51.99 129.16 54.87 124.10 C 65.71 130.46 78.79 131.40 91.04 130.00 C 104.64 128.40 118.23 124.43 129.77 116.89 C 108.08 122.29 84.86 123.39 63.31 116.79 C 54.20 114.03 45.02 109.62 39.22 101.79 C 34.51 95.48 34.70 85.94 40.11 80.10 C 55.40 93.21 76.43 96.78 96.00 96.66 C 113.62 96.13 131.86 93.12 147.05 83.68 C 143.96 82.67 141.01 84.69 138.00 85.20 C 111.23 91.73 83.05 86.20 57.84 76.28 C 45.34 70.63 31.51 63.21 26.42 49.62 C 22.47 39.97 26.86 27.72 36.67 23.64 Z" />
</g>
</svg>
