<?xml version="1.0" encoding="UTF-8" ?>
<!DOCTYPE svg PUBLIC "-//W3C//DTD SVG 1.1//EN" "http://www.w3.org/Graphics/SVG/1.1/DTD/svg11.dtd">
<svg width="192pt" height="192pt" viewBox="0 0 192 192" version="1.1" xmlns="http://www.w3.org/2000/svg">
<g id="#60b593ff">
<path fill="#60b593" opacity="1.00" d=" M 38.43 23.50 C 39.80 22.69 41.46 22.76 43.00 22.68 C 78.34 22.72 113.68 22.63 149.02 22.70 C 153.19 22.17 156.78 26.96 154.76 30.76 C 153.10 34.54 148.41 34.14 144.99 34.17 C 110.32 33.97 75.66 33.78 40.99 33.78 C 35.55 34.14 33.65 25.85 38.43 23.50 Z" />
<path fill="#60b593" opacity="1.00" d=" M 22.36 42.52 C 24.16 41.83 26.11 41.65 28.02 41.61 C 73.01 41.61 118.00 41.59 162.98 41.60 C 170.82 41.15 178.08 48.05 177.84 55.93 C 177.90 85.97 177.91 116.02 177.85 146.06 C 178.05 158.16 167.13 168.87 155.05 168.56 C 115.04 168.57 75.03 168.61 35.01 168.52 C 22.43 168.43 11.95 156.46 13.03 144.00 C 13.08 114.65 13.02 85.28 13.08 55.93 C 12.98 50.09 16.87 44.49 22.36 42.52 M 24.65 53.68 C 24.00 84.12 24.58 114.60 24.37 145.05 C 23.84 151.51 29.50 157.50 35.99 157.24 C 75.66 157.26 115.34 157.26 155.01 157.21 C 161.06 157.39 166.58 152.06 166.51 145.98 C 166.60 116.33 166.55 86.66 166.55 57.01 C 166.86 54.85 165.40 52.62 163.02 52.90 C 120.02 52.75 77.01 52.88 34.00 52.79 C 30.86 52.71 27.67 52.67 24.65 53.68 Z" />
<path fill="#60b593" opacity="1.00" d=" M 132.90 83.98 C 135.01 83.94 137.12 83.92 139.23 83.90 C 139.64 96.36 139.45 108.83 139.34 121.29 C 136.79 121.40 134.13 121.52 131.84 120.18 C 121.00 127.11 107.13 115.01 111.29 103.27 C 113.47 93.77 124.76 90.80 132.68 95.23 C 132.61 91.47 132.67 87.72 132.90 83.98 M 122.35 99.49 C 114.74 101.83 115.98 115.24 124.00 116.01 C 129.94 116.78 134.42 109.99 132.34 104.65 C 131.18 100.47 126.41 98.14 122.35 99.49 Z" />
<path fill="#60b593" opacity="1.00" d=" M 142.95 84.04 C 145.01 83.98 147.07 83.94 149.14 83.94 C 149.24 86.03 149.28 88.13 149.26 90.23 C 147.16 90.21 145.07 90.19 142.97 90.10 C 142.93 88.08 142.93 86.06 142.95 84.04 Z" />
<path fill="#60b593" opacity="1.00" d=" M 41.31 93.64 C 43.49 93.38 45.68 93.29 47.88 93.24 C 50.06 99.15 51.15 105.38 53.31 111.30 C 55.20 105.37 56.34 99.23 58.40 93.36 C 60.47 93.29 62.54 93.29 64.60 93.37 C 66.41 99.25 67.71 105.27 69.31 111.21 C 71.84 105.63 72.51 99.41 74.86 93.77 C 76.83 93.00 79.02 93.43 81.09 93.35 C 78.82 102.88 76.08 112.48 72.22 121.48 C 70.19 121.33 68.15 121.24 66.11 121.06 C 64.58 115.57 63.07 110.08 61.29 104.66 C 59.35 109.86 58.64 115.45 56.52 120.57 C 54.86 122.12 52.04 121.03 49.91 121.32 C 46.68 112.22 44.08 102.89 41.31 93.64 Z" />
<path fill="#60b593" opacity="1.00" d=" M 87.60 94.51 C 91.80 92.17 96.89 92.79 101.03 94.94 C 102.85 93.05 106.03 92.57 108.18 94.09 C 108.98 103.08 108.62 112.21 108.36 121.24 C 106.53 121.26 104.70 121.31 102.88 121.39 C 102.54 120.92 101.87 119.98 101.54 119.51 C 96.09 123.62 87.99 122.52 83.61 117.39 C 77.37 110.79 79.31 98.48 87.60 94.51 M 91.33 99.49 C 84.72 101.88 84.74 113.06 91.31 115.49 C 95.90 117.42 101.38 113.85 101.94 109.03 C 103.27 103.15 97.16 97.19 91.33 99.49 Z" />
<path fill="#60b593" opacity="1.00" d=" M 143.01 94.07 C 144.58 92.64 147.06 93.50 149.00 93.22 C 149.80 102.54 149.30 111.93 149.26 121.28 C 147.13 121.28 145.01 121.24 142.89 121.15 C 142.92 112.13 142.55 103.08 143.01 94.07 Z" />
</g>
</svg>
