<?xml version="1.0" encoding="UTF-8" ?>
<!DOCTYPE svg PUBLIC "-//W3C//DTD SVG 1.1//EN" "http://www.w3.org/Graphics/SVG/1.1/DTD/svg11.dtd">
<svg width="192pt" height="192pt" viewBox="0 0 192 192" version="1.1" xmlns="http://www.w3.org/2000/svg">
<g id="#ff881fff">
<path fill="#ff881f" opacity="1.00" d=" M 22.08 42.93 C 21.89 30.70 32.78 19.66 45.02 19.76 C 79.34 19.72 113.67 19.71 148.00 19.76 C 160.20 19.73 171.01 30.74 170.82 42.93 C 170.88 76.97 170.88 111.02 170.84 145.06 C 171.14 157.36 160.27 168.45 147.98 168.46 C 126.31 168.50 104.63 168.54 82.97 168.43 C 76.54 168.61 75.82 158.15 82.16 157.45 C 104.11 157.09 126.08 157.53 148.02 157.23 C 154.33 157.08 159.74 151.36 159.65 145.07 C 159.70 111.03 159.72 76.97 159.64 42.92 C 159.71 36.30 153.57 30.68 147.05 30.85 C 113.35 30.81 79.66 30.80 45.96 30.83 C 39.39 30.59 33.12 36.23 33.28 42.92 C 33.24 76.97 33.26 111.03 33.27 145.07 C 32.99 153.00 41.40 158.97 48.90 157.09 C 45.85 138.56 44.68 119.78 44.20 101.03 C 43.07 92.02 49.06 84.11 55.03 78.08 C 68.71 66.81 88.72 69.93 103.37 77.61 C 107.71 80.16 112.02 84.69 117.53 83.37 C 120.44 82.73 124.88 80.70 126.60 84.38 C 128.41 90.61 127.43 97.49 125.28 103.54 C 118.13 103.01 109.95 103.68 103.85 99.34 C 103.16 100.26 102.47 101.17 101.78 102.09 C 98.27 101.54 94.70 102.65 92.92 105.90 C 87.75 114.03 78.54 118.21 72.71 125.73 C 70.13 128.75 71.96 133.01 70.46 136.44 C 66.80 145.18 69.08 154.86 68.22 164.01 C 67.75 166.87 64.82 168.73 62.03 168.48 C 55.68 168.42 49.33 168.69 42.99 168.31 C 31.44 167.33 21.87 156.64 22.06 145.06 C 22.03 111.02 22.02 76.97 22.08 42.93 M 70.88 102.09 C 70.27 105.63 69.72 109.18 69.25 112.75 C 71.53 110.13 73.69 107.42 75.68 104.58 C 74.09 103.73 72.49 102.90 70.88 102.09 Z" />
</g>
</svg>
