<?xml version="1.0" encoding="UTF-8" ?>
<!DOCTYPE svg PUBLIC "-//W3C//DTD SVG 1.1//EN" "http://www.w3.org/Graphics/SVG/1.1/DTD/svg11.dtd">
<svg width="192pt" height="192pt" viewBox="0 0 192 192" version="1.1" xmlns="http://www.w3.org/2000/svg">
<g id="#46e371ff">
<path fill="#46e371" opacity="1.00" d=" M 39.23 19.07 C 40.99 18.13 43.07 18.41 44.99 18.31 C 80.32 18.47 115.67 18.13 150.99 18.47 C 157.23 18.90 157.22 29.16 150.99 29.55 C 114.68 29.79 78.34 29.65 42.02 29.61 C 36.35 30.11 34.24 21.52 39.23 19.07 Z" />
<path fill="#46e371" opacity="1.00" d=" M 21.45 43.00 C 21.11 39.46 24.53 36.64 27.94 37.04 C 72.99 37.07 118.04 37.01 163.09 37.05 C 166.39 36.74 169.40 39.64 169.19 42.96 C 169.28 83.65 169.22 124.34 169.22 165.02 C 169.90 170.07 162.93 173.39 159.61 169.41 C 144.65 154.26 130.19 138.59 115.00 123.67 C 110.85 127.68 106.93 131.92 102.88 136.02 C 104.76 138.28 107.68 140.63 106.89 143.94 C 106.29 147.89 100.88 150.05 97.94 147.12 C 85.41 134.95 73.94 121.61 61.08 109.81 C 51.83 119.72 42.23 129.32 32.92 139.16 C 32.08 146.00 32.79 153.03 32.59 159.94 C 67.06 160.09 101.54 159.74 135.99 160.11 C 142.24 161.01 141.38 171.25 135.05 171.14 C 99.36 171.29 63.66 171.17 27.96 171.20 C 24.82 171.51 21.45 169.20 21.48 165.87 C 21.40 156.30 21.41 146.71 21.47 137.14 C 21.37 134.82 23.07 133.09 24.56 131.56 C 35.46 120.45 46.18 109.17 57.05 98.04 C 59.08 95.56 63.15 95.15 65.37 97.60 C 75.35 107.65 85.01 118.01 94.99 128.06 C 100.47 122.52 105.75 116.77 111.32 111.31 C 113.44 109.06 117.31 109.39 119.28 111.69 C 132.22 124.88 144.90 138.33 157.93 151.44 C 157.93 117.07 158.08 82.69 157.86 48.32 C 116.09 48.47 74.32 48.32 32.56 48.39 C 32.48 67.25 32.73 86.12 32.44 104.97 C 32.06 111.22 21.77 111.10 21.52 104.86 C 21.33 84.24 21.48 63.62 21.45 43.00 Z" />
</g>
</svg>
