<?xml version="1.0" encoding="UTF-8" ?>
<!DOCTYPE svg PUBLIC "-//W3C//DTD SVG 1.1//EN" "http://www.w3.org/Graphics/SVG/1.1/DTD/svg11.dtd">
<svg width="192pt" height="192pt" viewBox="0 0 192 192" version="1.1" xmlns="http://www.w3.org/2000/svg">
<g id="#ed4493ff">
<path fill="#ed4493" opacity="1.00" d=" M 42.17 57.92 C 43.13 32.65 65.80 10.93 91.03 10.73 C 112.19 8.96 133.65 21.57 141.80 41.27 C 145.45 49.32 146.12 58.28 145.90 67.01 C 145.69 86.36 145.92 105.72 145.80 125.07 C 145.84 135.16 137.06 144.21 127.01 144.61 C 117.95 144.81 108.89 144.60 99.84 144.69 C 99.55 153.59 100.35 162.57 99.46 171.42 C 98.13 177.10 89.07 176.63 88.25 170.91 C 87.79 160.60 88.18 150.25 88.08 139.93 C 87.73 136.51 90.47 133.18 93.98 133.25 C 104.65 133.38 115.33 133.65 126.00 133.34 C 130.79 133.27 134.76 128.81 134.51 124.07 C 134.61 106.65 134.55 89.23 134.53 71.81 C 128.06 71.73 121.59 71.75 115.12 71.73 C 115.01 76.72 115.40 81.75 114.61 86.70 C 113.33 93.46 106.84 98.67 99.99 98.64 C 92.55 98.96 85.49 92.97 84.65 85.57 C 84.26 80.97 84.56 76.34 84.45 71.72 C 79.19 71.52 73.85 72.22 68.64 71.35 C 63.97 69.67 64.23 62.11 69.09 60.89 C 75.69 60.16 82.37 60.69 89.01 60.57 C 91.90 60.31 95.18 62.04 95.51 65.15 C 96.20 71.72 95.16 78.35 95.98 84.90 C 97.13 88.30 102.78 88.23 103.48 84.61 C 104.21 78.10 103.19 71.50 103.93 64.99 C 104.36 62.17 107.27 60.41 109.99 60.58 C 118.20 60.45 126.42 60.61 134.63 60.53 C 134.38 45.71 125.16 31.50 111.57 25.52 C 103.78 21.70 94.83 21.64 86.38 22.47 C 68.31 24.95 53.47 41.66 53.39 59.94 C 53.35 81.32 53.36 102.69 53.39 124.07 C 53.17 127.85 55.58 131.55 59.15 132.84 C 63.98 134.28 69.15 132.70 74.00 133.90 C 78.75 135.49 78.50 143.23 73.60 144.39 C 68.90 144.95 64.11 144.78 59.40 144.46 C 49.52 143.31 41.67 133.93 42.04 124.03 C 42.10 102.00 41.89 79.95 42.17 57.92 Z" />
</g>
</svg>
