<?xml version="1.0" encoding="UTF-8" ?>
<!DOCTYPE svg PUBLIC "-//W3C//DTD SVG 1.1//EN" "http://www.w3.org/Graphics/SVG/1.1/DTD/svg11.dtd">
<svg width="192pt" height="192pt" viewBox="0 0 192 192" version="1.1" xmlns="http://www.w3.org/2000/svg">
<g id="#5e6e81ff">
<path fill="#5e6e81" opacity="1.00" d=" M 53.60 54.37 C 49.74 48.89 54.25 40.45 60.98 40.77 C 84.32 40.67 107.67 40.72 131.02 40.74 C 137.38 40.19 141.99 48.12 138.28 53.36 C 131.72 64.43 125.44 75.70 118.62 86.60 C 115.34 91.44 106.87 86.59 109.34 81.29 C 114.50 71.22 120.75 61.71 125.93 51.63 C 105.65 51.62 85.38 51.61 65.10 51.63 C 81.76 82.11 100.08 111.70 117.07 142.00 C 120.31 147.68 110.86 152.98 107.57 147.47 C 89.44 116.53 71.59 85.40 53.60 54.37 Z" />
<path fill="#5e6e81" opacity="1.00" d=" M 18.37 42.44 C 21.52 41.30 24.23 43.80 25.52 46.43 C 43.80 78.10 62.40 109.60 80.50 141.36 C 83.91 146.98 74.47 152.49 71.11 146.98 C 52.35 114.97 33.89 82.77 15.31 50.65 C 13.17 47.72 14.92 43.32 18.37 42.44 Z" />
<path fill="#5e6e81" opacity="1.00" d=" M 168.37 42.43 C 172.95 39.48 179.16 45.40 176.05 50.05 C 163.40 72.03 150.73 94.03 137.89 115.90 C 134.76 122.02 124.55 116.16 128.31 110.34 C 140.48 88.90 153.07 67.70 165.32 46.31 C 166.20 44.93 166.98 43.37 168.37 42.43 Z" />
</g>
</svg>
