<?xml version="1.0" encoding="UTF-8" ?>
<!DOCTYPE svg PUBLIC "-//W3C//DTD SVG 1.1//EN" "http://www.w3.org/Graphics/SVG/1.1/DTD/svg11.dtd">
<svg width="192pt" height="192pt" viewBox="0 0 192 192" version="1.1" xmlns="http://www.w3.org/2000/svg">
<g id="#6586e9ff">
<path fill="#6586e9" opacity="1.00" d=" M 144.27 19.34 C 157.94 15.49 172.90 26.85 172.91 41.02 C 173.54 52.78 163.76 63.82 152.03 64.68 C 141.07 65.97 130.01 58.19 127.47 47.46 C 124.03 35.49 132.19 22.04 144.27 19.34 M 146.37 30.55 C 141.10 32.05 137.49 37.60 138.19 43.02 C 138.76 49.15 144.84 54.17 151.00 53.25 C 157.40 52.86 162.46 46.33 161.33 40.03 C 160.53 33.20 152.90 28.37 146.37 30.55 Z" />
<path fill="#6586e9" opacity="1.00" d=" M 19.14 45.94 C 19.22 33.92 29.93 23.28 41.93 23.23 C 65.97 23.17 90.02 23.13 114.05 23.25 C 120.37 23.11 121.24 33.19 115.02 34.25 C 90.69 34.64 66.33 34.26 41.99 34.44 C 35.58 34.57 30.00 40.53 30.31 46.94 C 30.26 71.91 30.37 96.88 30.26 121.86 C 42.31 109.71 54.43 97.64 66.56 85.58 C 74.88 77.19 89.59 76.75 98.40 84.63 C 103.39 89.28 108.06 94.27 112.96 99.02 C 118.57 91.94 127.70 86.50 136.87 90.06 C 145.41 93.99 150.60 102.49 157.70 108.39 C 157.84 97.59 157.46 86.78 157.88 76.00 C 158.63 70.14 168.14 70.22 168.73 76.08 C 168.93 100.74 168.86 125.41 168.83 150.07 C 168.75 162.05 157.93 172.40 146.06 172.54 C 111.38 172.60 76.69 172.57 42.00 172.52 C 29.69 172.45 18.84 161.36 19.07 149.04 C 19.12 114.68 19.03 80.30 19.14 45.94 M 74.50 93.56 C 59.71 108.10 45.20 122.92 30.41 137.45 C 30.30 141.64 30.20 145.84 30.40 150.03 C 30.75 156.34 36.74 161.55 43.02 161.25 C 77.01 161.25 111.00 161.24 144.99 161.21 C 148.80 161.41 152.26 159.49 154.86 156.84 C 133.92 135.87 112.96 114.94 91.99 94.01 C 87.52 89.19 79.19 88.94 74.50 93.56 M 120.92 106.92 C 133.15 119.06 145.11 131.52 157.65 143.34 C 157.75 137.00 157.71 130.67 157.67 124.34 C 149.73 116.61 142.22 108.38 134.00 100.97 C 128.54 97.91 124.21 103.30 120.92 106.92 Z" />
</g>
</svg>
