<?xml version="1.0" encoding="UTF-8" ?>
<!DOCTYPE svg PUBLIC "-//W3C//DTD SVG 1.1//EN" "http://www.w3.org/Graphics/SVG/1.1/DTD/svg11.dtd">
<svg width="192pt" height="192pt" viewBox="0 0 192 192" version="1.1" xmlns="http://www.w3.org/2000/svg">
<g id="#eebe5cff">
<path fill="#eebe5c" opacity="1.00" d=" M 147.35 22.44 C 162.08 18.66 178.12 30.00 179.65 45.08 C 181.90 59.68 169.77 74.20 155.07 74.85 C 145.04 75.17 134.97 74.78 124.93 74.82 C 111.91 74.69 102.09 59.99 106.88 47.88 C 110.68 35.63 127.62 29.85 137.55 38.45 C 141.33 42.01 136.97 49.12 132.07 47.30 C 128.01 45.47 122.74 44.71 119.48 48.45 C 114.40 53.41 118.00 63.18 125.17 63.44 C 134.77 63.71 144.39 63.58 154.00 63.49 C 161.97 63.34 168.83 55.96 168.46 48.01 C 168.47 39.92 161.06 32.81 152.99 33.14 C 149.39 32.99 146.34 35.21 142.91 35.84 C 138.57 36.14 135.28 30.56 138.03 27.01 C 140.38 24.35 144.03 23.33 147.35 22.44 Z" />
<path fill="#eebe5c" opacity="1.00" d=" M 63.89 56.86 C 69.97 46.38 86.77 46.95 92.32 57.66 C 101.14 72.85 110.10 87.98 118.71 103.28 C 121.82 108.71 113.44 114.21 109.60 109.43 C 100.06 94.15 91.64 78.15 82.18 62.82 C 79.98 59.11 74.37 59.99 72.80 63.79 C 57.01 91.00 41.18 118.20 25.48 145.45 C 22.71 149.77 25.17 157.50 30.96 157.21 C 76.63 157.21 122.31 157.23 167.98 157.16 C 158.67 141.11 149.48 124.99 140.01 109.04 C 132.70 121.41 125.76 134.00 118.28 146.26 C 114.82 151.68 105.76 146.41 108.72 140.72 C 116.08 127.51 123.80 114.48 131.43 101.42 C 134.87 94.91 145.16 94.88 148.64 101.37 C 158.41 117.97 168.05 134.66 177.67 151.35 C 181.82 158.00 177.16 168.37 169.01 168.49 C 122.68 168.59 76.34 168.54 30.01 168.48 C 16.56 168.40 8.88 151.41 15.41 140.38 C 31.52 112.51 47.61 84.62 63.89 56.86 Z" />
</g>
</svg>
