<?xml version="1.0" encoding="UTF-8" ?>
<!DOCTYPE svg PUBLIC "-//W3C//DTD SVG 1.1//EN" "http://www.w3.org/Graphics/SVG/1.1/DTD/svg11.dtd">
<svg width="192pt" height="192pt" viewBox="0 0 192 192" version="1.1" xmlns="http://www.w3.org/2000/svg">
<g id="#c85098ff">
<path fill="#c85098" opacity="1.00" d=" M 57.44 38.98 C 57.75 27.21 68.23 16.80 80.03 16.75 C 92.37 16.84 104.73 16.41 117.05 16.98 C 130.73 18.65 139.06 33.05 137.11 46.07 C 148.60 45.04 159.73 54.40 160.21 66.00 C 160.44 84.33 160.25 102.66 160.33 120.99 C 160.61 128.81 156.42 136.82 149.39 140.43 C 144.72 142.47 139.75 136.70 142.47 132.39 C 145.03 129.61 148.88 127.32 148.94 123.07 C 149.21 104.36 149.12 85.64 149.13 66.94 C 149.09 60.78 143.02 56.50 137.17 57.14 C 136.94 87.77 137.23 118.40 137.03 149.03 C 137.23 161.40 126.40 172.61 113.97 172.53 C 101.32 172.27 88.59 173.19 76.00 172.03 C 62.76 169.63 55.60 155.58 57.20 142.99 C 44.55 141.39 34.15 129.83 34.11 117.05 C 33.97 100.70 34.10 84.34 34.08 67.98 C 33.86 60.28 38.04 52.38 44.99 48.85 C 49.84 46.65 54.92 53.37 51.42 57.41 C 48.62 59.98 45.13 62.72 45.36 66.97 C 45.28 85.32 45.30 103.67 45.36 122.02 C 45.20 128.31 51.40 132.70 57.33 132.08 C 57.48 101.05 57.27 70.01 57.44 38.98 M 68.57 39.99 C 68.54 76.33 68.56 112.66 68.56 149.00 C 68.38 155.62 74.37 161.63 81.02 161.31 C 92.01 161.31 103.00 161.37 113.98 161.29 C 120.38 161.28 125.95 155.44 125.83 149.07 C 125.69 142.88 126.32 136.55 125.50 130.43 C 116.10 121.12 106.66 111.81 96.99 102.78 C 92.18 107.07 88.07 112.13 83.11 116.25 C 78.43 119.62 72.05 113.03 75.45 108.43 C 80.99 102.30 87.06 96.66 92.86 90.77 C 94.97 88.32 99.00 88.42 101.11 90.83 C 109.40 98.81 117.62 106.86 125.83 114.92 C 125.90 90.27 125.85 65.61 125.85 40.95 C 126.29 34.34 120.71 28.05 114.03 27.98 C 103.02 27.75 92.00 27.83 80.99 27.93 C 74.47 27.73 68.50 33.45 68.57 39.99 Z" />
<path fill="#c85098" opacity="1.00" d=" M 94.23 51.24 C 100.31 49.39 107.19 53.78 108.22 60.01 C 109.64 66.32 104.46 73.03 98.02 73.31 C 92.07 73.99 86.35 68.97 86.01 63.05 C 85.42 57.78 89.14 52.59 94.23 51.24 Z" />
<path fill="#c85098" opacity="1.00" d=" M 18.39 70.53 C 22.11 68.89 26.43 71.95 26.23 75.97 C 26.27 88.98 26.46 102.02 26.16 115.02 C 25.58 121.11 15.66 121.08 15.27 114.95 C 15.03 101.95 15.25 88.92 15.23 75.91 C 15.00 73.63 16.37 71.50 18.39 70.53 Z" />
<path fill="#c85098" opacity="1.00" d=" M 171.22 70.34 C 174.86 68.81 179.23 72.04 178.82 75.96 C 178.81 88.96 179.03 101.96 178.77 114.95 C 178.35 121.16 168.20 121.24 167.74 115.00 C 167.47 102.01 167.69 89.00 167.66 76.01 C 167.48 73.59 168.92 71.17 171.22 70.34 Z" />
</g>
</svg>
