<?xml version="1.0" encoding="UTF-8" ?>
<!DOCTYPE svg PUBLIC "-//W3C//DTD SVG 1.1//EN" "http://www.w3.org/Graphics/SVG/1.1/DTD/svg11.dtd">
<svg width="192pt" height="192pt" viewBox="0 0 192 192" version="1.1" xmlns="http://www.w3.org/2000/svg">
<g id="#588f7cff">
<path fill="#588f7c" opacity="1.00" d=" M 21.12 43.93 C 21.00 31.73 31.83 20.83 44.02 20.77 C 78.34 20.73 112.66 20.71 146.98 20.77 C 159.07 21.02 169.63 31.87 169.61 43.94 C 169.68 77.98 169.66 112.02 169.63 146.06 C 169.81 158.56 158.58 169.81 146.06 169.55 C 111.44 169.50 76.80 169.74 42.19 169.42 C 36.48 168.61 26.72 165.68 28.93 158.12 C 39.71 141.66 51.30 125.71 62.26 109.36 C 65.02 104.90 71.46 103.03 75.87 106.20 C 82.21 110.01 82.94 118.84 87.00 123.83 C 92.95 114.76 97.66 103.99 103.16 94.27 C 106.32 89.05 108.13 81.97 114.33 79.51 C 120.11 77.30 125.73 81.96 128.13 86.92 C 134.63 99.39 141.48 111.69 147.76 124.25 C 150.38 130.36 140.83 135.23 137.41 129.62 C 130.65 117.52 124.45 105.10 117.79 92.94 C 109.51 106.48 102.89 121.17 94.94 134.98 C 91.50 140.68 82.35 140.83 78.77 135.21 C 75.70 129.71 73.61 123.71 70.69 118.13 C 61.86 131.37 52.51 144.27 43.74 157.55 C 77.50 157.98 111.29 157.61 145.07 157.73 C 151.56 158.21 157.83 152.67 157.77 146.09 C 157.84 112.37 157.78 78.65 157.80 44.94 C 158.25 38.44 152.43 32.45 145.97 32.55 C 112.29 32.55 78.62 32.55 44.94 32.53 C 38.70 32.33 33.05 37.72 32.83 43.95 C 32.61 74.93 32.95 105.92 32.68 136.90 C 32.25 143.29 21.77 143.34 21.20 136.96 C 20.92 105.96 21.12 74.94 21.12 43.93 Z" />
<path fill="#588f7c" opacity="1.00" d=" M 61.38 44.46 C 72.18 42.01 82.04 53.89 78.17 64.13 C 75.14 74.42 60.41 77.88 53.36 69.64 C 45.12 61.76 50.01 46.04 61.38 44.46 Z" />
</g>
</svg>
