<?xml version="1.0" encoding="UTF-8" ?>
<!DOCTYPE svg PUBLIC "-//W3C//DTD SVG 1.1//EN" "http://www.w3.org/Graphics/SVG/1.1/DTD/svg11.dtd">
<svg width="192pt" height="192pt" viewBox="0 0 192 192" version="1.1" xmlns="http://www.w3.org/2000/svg">
<g id="#974edaff">
<path fill="#974eda" opacity="1.00" d=" M 54.44 38.93 C 54.22 26.82 64.88 15.81 77.01 15.76 C 89.36 15.83 101.73 15.41 114.06 15.98 C 127.69 17.65 136.05 31.98 134.11 44.97 C 145.60 44.05 156.80 53.31 157.22 64.98 C 157.45 83.31 157.26 101.65 157.34 119.98 C 157.66 127.82 153.42 135.83 146.39 139.45 C 141.72 141.52 136.74 135.72 139.44 131.40 C 142.28 128.47 146.33 125.75 145.98 121.09 C 146.03 102.70 146.15 84.30 146.03 65.92 C 146.07 59.74 139.94 55.59 134.15 56.14 C 133.95 87.11 134.24 118.10 134.00 149.08 C 133.71 161.08 123.01 171.61 110.97 171.55 C 98.65 171.41 86.29 171.99 74.00 171.23 C 60.37 169.38 52.26 154.94 54.38 141.99 C 41.74 140.39 31.18 128.90 31.22 116.07 C 31.10 99.70 31.22 83.33 31.19 66.97 C 30.91 59.28 35.13 51.44 42.03 47.90 C 46.76 45.75 51.87 52.39 48.35 56.33 C 45.57 58.96 41.95 61.67 42.32 65.99 C 42.29 84.61 42.20 103.25 42.38 121.87 C 42.57 127.95 48.77 131.57 54.36 131.26 C 54.47 100.49 54.36 69.71 54.44 38.93 M 74.33 27.42 C 69.34 28.90 65.52 33.77 65.57 39.02 C 65.53 75.34 65.55 111.66 65.57 147.97 C 65.38 154.58 71.35 160.61 78.00 160.28 C 89.00 160.28 100.01 160.34 111.01 160.25 C 117.81 160.27 123.33 153.72 122.85 147.07 C 122.82 111.02 122.93 74.96 122.80 38.90 C 122.83 31.80 115.93 26.16 109.00 26.84 C 97.46 27.22 85.79 26.11 74.33 27.42 Z" />
<path fill="#974eda" opacity="1.00" d=" M 15.42 69.52 C 19.12 67.88 23.46 70.93 23.23 74.95 C 23.24 87.96 23.48 101.00 23.12 114.00 C 22.57 119.64 13.64 120.25 12.41 114.71 C 11.88 101.81 12.36 88.85 12.19 75.93 C 11.94 73.38 12.88 70.55 15.42 69.52 Z" />
<path fill="#974eda" opacity="1.00" d=" M 168.23 69.29 C 171.87 67.76 176.23 70.97 175.86 74.90 C 175.85 87.91 176.04 100.94 175.76 113.94 C 175.38 120.15 165.19 120.25 164.75 114.00 C 164.42 101.35 164.71 88.67 164.60 76.00 C 164.33 73.26 165.46 70.26 168.23 69.29 Z" />
<path fill="#974eda" opacity="1.00" d=" M 73.90 80.13 C 75.63 80.17 77.36 80.17 79.10 80.15 C 79.47 83.80 79.44 87.48 79.35 91.14 C 81.97 91.22 84.58 91.25 87.19 91.22 C 87.14 87.57 87.22 83.93 87.30 80.28 C 89.13 80.19 90.95 80.17 92.78 80.15 C 93.33 89.16 93.17 98.22 92.87 107.24 C 91.00 107.28 89.12 107.25 87.25 107.03 C 87.23 103.44 87.12 99.86 87.23 96.28 C 84.61 96.27 81.99 96.26 79.37 96.25 C 79.45 99.93 79.38 103.61 79.28 107.29 C 77.43 107.24 75.59 107.20 73.74 107.17 C 73.63 98.16 73.34 89.13 73.90 80.13 Z" />
<path fill="#974eda" opacity="1.00" d=" M 96.94 80.20 C 102.69 80.43 109.00 78.95 114.33 81.63 C 117.76 85.10 116.33 90.60 116.69 95.00 C 116.50 98.96 117.47 104.97 112.73 106.60 C 107.56 107.88 102.13 107.26 96.86 107.13 C 96.70 98.16 96.56 89.17 96.94 80.20 M 102.54 85.12 C 102.58 90.85 102.54 96.57 102.57 102.30 C 105.07 102.30 107.57 102.25 110.06 102.10 C 111.45 97.55 110.81 92.71 110.74 88.03 C 110.73 83.71 105.26 85.48 102.54 85.12 Z" />
</g>
</svg>
