<?xml version="1.0" encoding="UTF-8" ?>
<!DOCTYPE svg PUBLIC "-//W3C//DTD SVG 1.1//EN" "http://www.w3.org/Graphics/SVG/1.1/DTD/svg11.dtd">
<svg width="192pt" height="192pt" viewBox="0 0 192 192" version="1.1" xmlns="http://www.w3.org/2000/svg">
<g id="#b34eb0ff">
<path fill="#b34eb0" opacity="1.00" d=" M 39.30 21.37 C 41.49 20.86 43.75 20.70 46.01 20.74 C 80.00 20.75 113.99 20.71 147.97 20.74 C 160.17 20.79 170.94 31.78 170.83 43.95 C 170.80 78.30 170.71 112.64 170.77 146.99 C 171.11 159.25 160.28 170.32 148.07 170.50 C 113.38 170.53 78.70 170.53 44.02 170.47 C 31.73 170.45 20.86 159.34 21.11 147.05 C 20.97 112.68 21.07 78.31 21.11 43.94 C 21.06 33.42 29.06 23.63 39.30 21.37 M 41.35 32.46 C 35.93 33.84 31.90 39.35 32.32 44.95 C 32.32 78.99 32.32 113.03 32.33 147.06 C 32.14 153.77 38.40 159.56 45.02 159.29 C 79.01 159.26 113.01 159.35 147.00 159.31 C 153.63 159.53 159.67 153.65 159.61 147.01 C 159.74 112.99 159.59 78.96 159.60 44.93 C 159.98 38.15 153.94 31.64 147.04 32.12 C 119.69 32.17 92.34 32.17 65.00 31.86 C 57.12 32.14 49.16 31.23 41.35 32.46 Z" />
<path fill="#b34eb0" opacity="1.00" d=" M 59.42 70.35 C 60.38 64.31 69.90 64.10 71.27 70.01 C 71.96 82.06 71.01 94.22 71.76 106.27 C 73.37 115.29 87.58 115.62 89.64 106.71 C 90.59 94.57 89.49 82.24 90.19 70.07 C 91.46 64.23 100.74 64.22 102.01 70.05 C 102.86 82.19 101.67 94.47 102.62 106.59 C 104.52 115.41 118.48 115.39 120.43 106.60 C 121.41 94.48 120.26 82.19 121.02 70.04 C 122.38 63.78 132.50 64.54 132.98 70.94 C 132.93 83.50 133.65 96.16 132.58 108.67 C 129.89 124.95 107.31 131.43 96.13 119.40 C 90.25 125.08 81.29 127.28 73.54 124.48 C 65.15 121.54 58.97 113.01 59.27 104.04 C 59.36 92.82 59.08 81.57 59.42 70.35 Z" />
</g>
</svg>
