<?xml version="1.0" encoding="UTF-8" ?>
<!DOCTYPE svg PUBLIC "-//W3C//DTD SVG 1.1//EN" "http://www.w3.org/Graphics/SVG/1.1/DTD/svg11.dtd">
<svg width="192pt" height="192pt" viewBox="0 0 192 192" version="1.1" xmlns="http://www.w3.org/2000/svg">
<g id="#6c846cff">
<path fill="#6c846c" opacity="1.00" d=" M 40.38 21.47 C 75.56 20.79 110.81 21.20 146.02 20.98 C 158.53 20.45 170.03 31.41 169.99 43.94 C 170.01 78.31 169.99 112.69 170.01 147.06 C 170.04 159.20 159.20 170.04 147.06 170.01 C 112.68 170.02 78.30 169.84 43.93 169.85 C 31.87 169.95 21.05 159.12 21.15 147.07 C 21.12 112.69 21.13 78.31 21.16 43.94 C 21.10 33.12 29.76 23.20 40.38 21.47 M 31.88 45.96 C 31.89 79.33 31.78 112.70 31.95 146.07 C 31.78 153.08 37.91 159.25 44.95 159.03 C 64.82 159.33 84.70 158.80 104.58 158.85 C 104.42 144.05 104.68 129.23 104.39 114.43 C 103.80 106.77 94.90 105.42 91.00 100.03 C 84.18 92.48 84.67 80.01 91.95 72.94 C 95.70 68.44 103.34 67.10 104.29 60.54 C 104.94 51.10 104.37 41.60 104.60 32.14 C 84.73 31.58 64.82 31.93 44.95 31.94 C 37.46 31.70 31.33 38.60 31.88 45.96 M 116.03 32.49 C 115.21 42.74 116.62 53.11 115.27 63.32 C 114.02 70.93 107.61 75.80 101.46 79.55 C 95.60 83.24 96.56 92.35 102.63 95.29 C 109.96 99.11 115.69 106.40 115.83 114.92 C 115.94 128.96 115.59 143.02 115.91 157.07 C 120.17 157.12 124.43 157.14 128.69 156.99 C 128.63 115.52 128.74 74.04 128.65 32.56 C 124.44 32.56 120.23 32.59 116.03 32.49 M 140.02 32.13 C 139.85 74.38 140.05 116.62 140.02 158.86 C 148.12 160.43 158.62 156.59 158.80 147.09 C 158.86 112.39 159.03 77.66 158.72 42.97 C 157.90 33.90 147.80 30.76 140.02 32.13 Z" />
<path fill="#6c846c" opacity="1.00" d=" M 43.20 103.11 C 49.97 103.16 56.74 103.09 63.51 103.16 C 63.30 109.92 63.75 116.69 63.25 123.43 C 56.57 123.24 49.89 123.42 43.21 123.31 C 43.24 116.58 43.26 109.85 43.20 103.11 M 47.17 106.91 C 47.14 111.07 47.14 115.23 47.14 119.39 C 51.26 119.43 55.39 119.43 59.52 119.41 C 59.55 115.23 59.56 111.05 59.49 106.87 C 55.39 106.85 51.28 106.86 47.17 106.91 Z" />
<path fill="#6c846c" opacity="1.00" d=" M 67.65 103.12 C 74.40 103.11 81.16 103.15 87.91 103.09 C 87.85 109.84 87.89 116.59 87.89 123.34 C 81.14 123.35 74.40 123.37 67.66 123.33 C 67.62 116.59 67.64 109.86 67.65 103.12 M 71.65 106.88 C 71.60 111.04 71.60 115.21 71.64 119.38 C 75.80 119.44 79.96 119.43 84.12 119.38 C 84.13 115.22 84.13 111.06 84.11 106.89 C 79.95 106.87 75.80 106.87 71.65 106.88 Z" />
<path fill="#6c846c" opacity="1.00" d=" M 51.35 111.25 C 52.65 111.23 53.95 111.21 55.24 111.18 C 55.26 112.55 55.28 113.92 55.29 115.29 C 53.97 115.20 52.65 115.11 51.33 115.02 C 51.34 113.76 51.35 112.50 51.35 111.25 Z" />
<path fill="#6c846c" opacity="1.00" d=" M 75.83 111.25 C 77.16 111.23 78.49 111.21 79.82 111.20 C 79.80 112.53 79.79 113.87 79.77 115.21 C 78.45 115.21 77.13 115.21 75.80 115.21 C 75.81 113.89 75.82 112.57 75.83 111.25 Z" />
<path fill="#6c846c" opacity="1.00" d=" M 43.25 127.50 C 49.98 127.56 56.72 127.51 63.46 127.54 C 63.49 134.27 63.44 141.01 63.50 147.75 C 56.73 147.78 49.96 147.72 43.19 147.79 C 43.27 141.02 43.20 134.26 43.25 127.50 M 47.12 131.51 C 47.15 135.62 47.15 139.72 47.16 143.82 C 51.27 143.82 55.37 143.83 59.48 143.86 C 59.55 139.74 59.56 135.61 59.52 131.49 C 55.38 131.45 51.25 131.45 47.12 131.51 Z" />
<path fill="#6c846c" opacity="1.00" d=" M 67.56 127.73 C 71.56 127.36 75.58 127.57 79.59 127.49 C 79.77 128.87 79.92 130.26 80.10 131.65 C 81.30 131.66 82.51 131.67 83.71 131.69 C 83.92 130.27 84.14 128.86 84.35 127.45 C 85.51 127.46 86.67 127.46 87.83 127.47 C 87.91 131.54 87.90 135.62 87.87 139.69 C 84.01 139.64 80.14 139.63 76.28 139.69 C 75.97 138.26 75.71 136.83 75.41 135.40 C 74.46 135.47 72.58 135.63 71.64 135.70 C 71.62 139.73 71.60 143.75 71.65 147.78 C 70.33 147.78 69.02 147.79 67.70 147.81 C 67.53 141.12 67.76 134.42 67.56 127.73 Z" />
<path fill="#6c846c" opacity="1.00" d=" M 51.25 135.96 C 52.62 135.84 54.00 135.73 55.38 135.62 C 55.28 137.00 55.19 138.39 55.09 139.78 C 53.86 139.72 52.63 139.67 51.39 139.62 C 51.35 138.40 51.30 137.17 51.25 135.96 Z" />
<path fill="#6c846c" opacity="1.00" d=" M 75.80 143.84 C 77.12 143.84 78.45 143.84 79.77 143.85 C 79.79 145.17 79.81 146.49 79.83 147.81 C 78.50 147.79 77.16 147.77 75.83 147.76 C 75.82 146.45 75.81 145.14 75.80 143.84 Z" />
<path fill="#6c846c" opacity="1.00" d=" M 84.12 143.83 C 85.37 143.82 86.63 143.82 87.88 143.82 C 87.89 145.15 87.90 146.48 87.91 147.81 C 86.63 147.80 85.36 147.80 84.09 147.80 C 84.10 146.48 84.11 145.15 84.12 143.83 Z" />
</g>
</svg>
