<?xml version="1.0" encoding="UTF-8" ?>
<!DOCTYPE svg PUBLIC "-//W3C//DTD SVG 1.1//EN" "http://www.w3.org/Graphics/SVG/1.1/DTD/svg11.dtd">
<svg width="192pt" height="192pt" viewBox="0 0 192 192" version="1.1" xmlns="http://www.w3.org/2000/svg">
<g id="#8392a2ff">
<path fill="#8392a2" opacity="1.00" d=" M 12.85 48.09 C 10.78 44.98 13.04 40.34 16.97 40.80 C 33.99 40.66 51.01 40.72 68.02 40.77 C 70.79 40.61 72.85 42.73 73.95 45.04 C 81.16 58.72 88.38 72.40 95.55 86.11 C 103.49 72.34 110.34 57.93 118.03 44.01 C 119.19 41.87 121.54 40.58 123.97 40.75 C 140.33 40.70 156.69 40.74 173.04 40.83 C 177.48 40.52 180.09 46.18 177.71 49.67 C 160.48 82.09 143.21 114.51 125.87 146.88 C 124.61 149.98 120.18 150.46 118.80 147.18 C 110.82 132.87 103.73 118.06 95.52 103.89 C 88.03 118.22 80.49 132.53 72.86 146.78 C 71.70 149.98 67.16 150.52 65.76 147.22 C 47.96 114.27 30.81 80.95 12.85 48.09 M 27.80 52.64 C 41.37 78.90 55.31 104.98 69.09 131.13 C 75.23 119.83 81.12 108.41 87.13 97.05 C 87.78 96.03 88.04 94.81 87.21 93.82 C 79.80 80.11 72.73 66.22 65.15 52.61 C 52.70 52.63 40.25 52.57 27.80 52.64 M 126.06 52.66 C 118.50 66.86 110.98 81.09 103.33 95.24 C 109.39 107.33 115.88 119.19 122.20 131.14 C 136.16 105.06 149.93 78.86 163.61 52.63 C 151.09 52.64 138.58 52.52 126.06 52.66 Z" />
</g>
</svg>
