<?xml version="1.0" encoding="UTF-8" ?>
<!DOCTYPE svg PUBLIC "-//W3C//DTD SVG 1.1//EN" "http://www.w3.org/Graphics/SVG/1.1/DTD/svg11.dtd">
<svg width="192pt" height="192pt" viewBox="0 0 192 192" version="1.1" xmlns="http://www.w3.org/2000/svg">
<g id="#607080ff">
<path fill="#607080" opacity="1.00" d=" M 21.05 43.95 C 21.01 31.84 31.84 21.03 43.95 21.06 C 78.31 20.99 112.69 20.98 147.06 21.03 C 159.19 21.02 169.97 31.83 169.97 43.95 C 170.03 78.31 170.00 112.68 169.99 147.04 C 169.98 159.16 159.20 170.02 147.05 169.98 C 113.03 170.03 79.01 169.98 44.99 170.00 C 38.44 170.13 31.86 167.41 27.43 162.56 C 25.57 160.60 25.63 157.46 27.33 155.41 C 44.59 131.98 61.90 108.58 79.19 85.17 C 82.06 80.67 89.32 80.12 92.66 84.35 C 98.84 92.21 104.56 100.43 110.65 108.36 C 112.26 110.83 116.11 111.32 118.23 109.24 C 121.25 105.82 122.91 101.41 125.97 98.02 C 128.53 95.84 132.64 97.01 134.00 100.00 C 140.47 110.79 147.20 121.45 153.48 132.34 C 156.32 137.64 148.39 142.91 144.48 138.54 C 138.95 130.58 134.55 121.85 129.08 113.85 C 123.88 122.44 110.89 124.59 103.66 117.35 C 97.30 110.20 92.47 101.79 86.10 94.65 C 70.68 115.83 54.76 136.66 39.58 158.00 C 43.28 159.18 47.18 158.86 51.00 158.87 C 82.68 158.86 114.37 158.87 146.05 158.87 C 152.96 159.22 159.27 153.00 158.87 146.06 C 158.89 112.35 158.89 78.65 158.88 44.95 C 159.27 38.02 152.98 31.71 146.05 32.13 C 112.35 32.13 78.65 32.13 44.95 32.13 C 38.40 31.74 32.23 37.36 32.16 43.95 C 31.95 72.98 32.33 102.03 31.98 131.06 C 31.45 137.12 21.62 137.08 21.13 131.01 C 20.88 102.00 21.06 72.97 21.05 43.95 Z" />
<path fill="#607080" opacity="1.00" d=" M 118.27 46.30 C 130.95 41.64 143.98 56.73 137.57 68.60 C 132.67 80.36 114.24 80.84 108.78 69.32 C 103.86 60.83 108.84 48.89 118.27 46.30 Z" />
</g>
</svg>
