<?xml version="1.0" encoding="UTF-8" ?>
<!DOCTYPE svg PUBLIC "-//W3C//DTD SVG 1.1//EN" "http://www.w3.org/Graphics/SVG/1.1/DTD/svg11.dtd">
<svg width="192pt" height="192pt" viewBox="0 0 192 192" version="1.1" xmlns="http://www.w3.org/2000/svg">
<g id="#18b8c5ff">
<path fill="#18b8c5" opacity="1.00" d=" M 85.36 13.45 C 116.50 8.92 149.21 24.61 165.52 51.43 C 179.91 74.45 181.92 104.73 170.25 129.29 C 167.83 135.13 162.83 140.27 163.40 147.01 C 163.85 155.80 171.32 162.00 174.00 170.02 C 174.99 174.74 168.33 178.89 164.89 175.08 C 161.31 170.27 158.17 165.13 155.18 159.93 C 150.34 151.06 150.75 139.72 156.11 131.17 C 166.67 113.94 169.30 92.11 163.02 72.90 C 154.18 44.10 125.20 23.07 95.00 24.15 C 63.43 23.81 34.21 47.88 27.60 78.59 C 22.83 98.10 27.31 119.54 39.39 135.57 C 52.23 153.08 73.28 164.11 94.96 164.91 C 110.95 165.23 126.96 164.72 142.94 165.16 C 149.15 166.27 148.43 176.47 142.01 176.49 C 126.02 176.60 110.02 176.66 94.03 176.44 C 60.64 175.25 29.16 152.20 18.57 120.41 C 7.91 90.52 17.47 55.13 41.00 34.04 C 53.21 22.83 68.95 15.64 85.36 13.45 Z" />
<path fill="#18b8c5" opacity="1.00" d=" M 80.06 58.00 C 81.37 55.89 83.13 53.56 85.95 53.84 C 93.63 53.82 101.33 53.65 109.01 53.93 C 111.43 54.00 112.67 56.26 113.91 57.99 C 118.24 58.43 123.01 57.00 127.04 58.98 C 131.56 61.67 129.34 69.45 124.06 69.28 C 106.36 69.34 88.65 69.35 70.94 69.27 C 65.92 69.49 63.38 62.34 67.39 59.33 C 71.07 56.84 75.90 58.49 80.06 58.00 Z" />
<path fill="#18b8c5" opacity="1.00" d=" M 86.12 86.66 C 80.22 86.12 80.07 76.40 86.01 75.70 C 98.33 75.32 110.67 75.61 123.00 75.54 C 126.71 75.14 130.18 78.13 129.98 81.92 C 130.19 95.30 130.10 108.69 130.03 122.07 C 130.14 129.56 123.54 136.43 116.02 136.38 C 104.01 136.39 92.00 136.37 79.99 136.39 C 72.40 136.52 65.65 129.59 65.83 122.02 C 65.85 108.67 65.67 95.31 65.92 81.97 C 65.93 75.87 75.77 75.15 76.81 81.09 C 77.53 94.70 76.79 108.38 77.16 122.00 C 77.01 124.01 79.06 125.35 80.91 125.03 C 92.61 125.01 104.32 125.09 116.02 124.97 C 118.00 125.02 118.94 122.72 118.74 121.02 C 118.73 109.62 118.81 98.21 118.67 86.81 C 107.82 86.65 96.96 86.96 86.12 86.66 Z" />
</g>
</svg>
