<?xml version="1.0" encoding="UTF-8" ?>
<!DOCTYPE svg PUBLIC "-//W3C//DTD SVG 1.1//EN" "http://www.w3.org/Graphics/SVG/1.1/DTD/svg11.dtd">
<svg width="192pt" height="192pt" viewBox="0 0 192 192" version="1.1" xmlns="http://www.w3.org/2000/svg">
<g id="#ff3661ff">
<path fill="#ff3661" opacity="1.00" d=" M 128.40 20.41 C 130.63 19.21 133.62 16.48 135.88 19.14 C 147.99 31.01 159.89 43.10 171.92 55.05 C 173.37 56.50 175.57 58.60 173.86 60.70 C 170.54 66.66 166.99 72.49 163.46 78.33 C 157.43 54.57 138.11 35.44 114.52 29.07 C 118.64 25.47 123.84 23.40 128.40 20.41 Z" />
<path fill="#ff3661" opacity="1.00" d=" M 86.40 31.49 C 105.14 28.51 125.07 34.12 139.31 46.71 C 162.35 65.95 168.68 101.71 153.69 127.70 C 144.52 144.37 127.77 156.70 109.04 160.18 C 89.36 164.18 67.99 158.37 53.09 144.89 C 30.91 125.84 24.64 91.31 38.64 65.65 C 48.05 47.62 66.24 34.46 86.40 31.49 M 89.39 42.48 C 69.50 44.88 51.78 59.42 45.42 78.39 C 39.56 95.07 42.55 114.56 53.35 128.58 C 63.41 142.12 80.11 150.41 97.00 150.05 C 114.26 150.11 131.12 141.07 140.87 126.87 C 151.60 111.77 153.51 91.01 145.90 74.14 C 136.70 52.65 112.55 39.06 89.39 42.48 Z" />
<path fill="#ff3661" opacity="1.00" d=" M 117.96 66.89 C 122.89 63.61 129.21 70.76 125.20 75.21 C 117.26 83.59 108.93 91.62 100.76 99.78 C 98.60 102.30 94.40 102.30 92.24 99.79 C 85.92 93.40 79.33 87.25 73.29 80.60 C 69.89 76.16 75.67 69.72 80.48 72.49 C 86.27 77.18 91.03 83.05 96.58 88.02 C 103.70 80.98 110.55 73.61 117.96 66.89 Z" />
<path fill="#ff3661" opacity="1.00" d=" M 18.17 133.02 C 21.43 126.51 25.23 120.23 29.17 114.10 C 32.49 123.10 36.16 132.15 42.33 139.65 C 51.36 151.25 64.53 159.13 78.59 163.05 C 72.17 167.05 65.76 171.14 58.96 174.48 C 47.33 164.38 37.01 152.79 25.91 142.09 C 23.36 139.08 19.52 136.84 18.17 133.02 Z" />
</g>
</svg>
