<?xml version="1.0" encoding="UTF-8" ?>
<!DOCTYPE svg PUBLIC "-//W3C//DTD SVG 1.1//EN" "http://www.w3.org/Graphics/SVG/1.1/DTD/svg11.dtd">
<svg width="192pt" height="192pt" viewBox="0 0 192 192" version="1.1" xmlns="http://www.w3.org/2000/svg">
<g id="#ff8b1fff">
<path fill="#ff8b1f" opacity="1.00" d=" M 40.28 21.32 C 75.77 19.97 111.43 21.11 146.99 20.73 C 159.55 20.20 171.02 31.37 170.82 43.93 C 170.88 77.98 170.88 112.02 170.84 146.07 C 171.14 158.35 160.33 169.46 148.06 169.51 C 113.69 169.58 79.32 169.56 44.95 169.51 C 32.62 169.50 21.79 158.37 22.06 146.05 C 22.04 112.01 22.02 77.97 22.09 43.92 C 21.98 33.36 30.01 23.55 40.28 21.32 M 42.28 32.33 C 37.21 33.72 33.17 38.59 33.28 43.93 C 33.24 77.97 33.27 112.02 33.27 146.06 C 33.03 152.80 39.28 158.78 46.00 158.33 C 79.67 158.32 113.33 158.33 147.00 158.31 C 153.69 158.71 159.80 152.75 159.65 146.07 C 159.70 112.02 159.72 77.97 159.65 43.92 C 159.72 36.88 152.88 31.23 146.02 31.81 C 111.45 32.18 76.77 31.11 42.28 32.33 Z" />
<path fill="#ff8b1f" opacity="1.00" d=" M 62.50 70.46 C 67.02 70.28 71.55 70.39 76.08 70.33 C 76.57 82.76 75.73 95.23 76.52 107.63 C 77.41 113.65 83.82 116.03 89.22 115.01 C 89.26 100.16 89.19 85.31 89.26 70.47 C 93.77 70.47 98.29 70.47 102.81 70.46 C 102.89 85.24 102.81 100.02 102.86 114.80 C 107.23 114.89 111.61 114.87 115.98 114.86 C 116.03 100.06 115.93 85.26 116.03 70.45 C 120.57 70.47 125.11 70.46 129.65 70.47 C 129.70 88.33 129.75 106.19 129.74 124.06 C 117.52 124.79 105.24 124.17 93.00 124.31 C 85.27 124.28 76.98 124.90 69.95 121.09 C 64.35 117.95 62.44 111.09 62.45 105.07 C 62.40 93.53 62.31 81.99 62.50 70.46 Z" />
</g>
</svg>
