<?xml version="1.0" encoding="UTF-8" ?>
<!DOCTYPE svg PUBLIC "-//W3C//DTD SVG 1.1//EN" "http://www.w3.org/Graphics/SVG/1.1/DTD/svg11.dtd">
<svg width="192pt" height="192pt" viewBox="0 0 192 192" version="1.1" xmlns="http://www.w3.org/2000/svg">
<g id="#4a71c5ff">
<path fill="#4a71c5" opacity="1.00" d=" M 90.00 20.99 C 91.80 16.87 98.22 16.77 100.10 20.86 C 111.69 41.15 123.10 61.55 134.62 81.89 C 145.72 72.24 156.58 62.30 167.72 52.69 C 171.33 49.41 177.74 53.07 176.73 57.86 C 172.25 89.23 167.47 120.58 162.79 151.92 C 162.45 156.25 157.64 157.50 154.02 157.15 C 114.00 156.96 73.98 156.73 33.95 156.82 C 30.79 157.26 27.68 154.94 27.44 151.71 C 22.77 120.35 18.03 88.98 13.49 57.60 C 12.73 53.02 18.83 49.54 22.34 52.68 C 33.57 62.26 44.44 72.27 55.60 81.94 C 67.08 61.63 78.51 41.29 90.00 20.99 M 62.19 93.22 C 60.66 96.65 55.77 97.55 53.15 94.84 C 44.40 87.19 35.79 79.39 27.04 71.75 C 30.45 96.38 34.28 120.96 37.98 145.55 C 76.10 145.53 114.23 145.77 152.35 145.39 C 155.73 120.87 159.87 96.45 163.06 71.90 C 154.34 79.54 145.76 87.35 136.98 94.93 C 134.55 97.47 129.96 96.71 128.32 93.66 C 117.10 74.17 106.34 54.41 95.05 34.95 C 84.12 54.39 73.15 73.81 62.19 93.22 Z" />
<path fill="#4a71c5" opacity="1.00" d=" M 32.37 164.32 C 34.06 163.30 36.12 163.60 38.01 163.50 C 76.00 163.63 114.00 163.32 151.99 163.61 C 158.36 163.96 158.31 174.46 151.91 174.72 C 112.94 174.92 73.95 174.81 34.98 174.70 C 29.61 174.85 27.62 166.76 32.37 164.32 Z" />
</g>
</svg>
