<?xml version="1.0" encoding="UTF-8" ?>
<!DOCTYPE svg PUBLIC "-//W3C//DTD SVG 1.1//EN" "http://www.w3.org/Graphics/SVG/1.1/DTD/svg11.dtd">
<svg width="192pt" height="192pt" viewBox="0 0 192 192" version="1.1" xmlns="http://www.w3.org/2000/svg">
<g id="#f6b02bff">
<path fill="#f6b02b" opacity="1.00" d=" M 57.49 35.71 C 64.10 34.85 71.12 35.72 77.05 38.87 C 80.54 40.99 80.17 46.77 76.48 48.46 C 73.33 50.21 70.14 47.63 66.99 47.14 C 55.38 44.21 42.66 52.48 40.23 64.11 C 38.75 69.10 40.22 74.15 41.32 79.02 C 41.43 84.26 33.77 86.52 31.07 82.00 C 21.94 62.77 36.49 37.94 57.49 35.71 Z" />
<path fill="#f6b02b" opacity="1.00" d=" M 87.62 45.58 C 103.97 38.39 124.33 41.37 137.70 53.28 C 147.45 61.56 153.11 74.30 152.76 87.09 C 171.49 92.47 182.37 114.89 174.99 132.93 C 170.40 145.72 157.63 155.08 143.98 155.20 C 108.99 155.28 73.99 155.27 39.00 155.20 C 27.03 155.13 15.04 146.24 13.62 133.97 C 11.98 122.63 20.26 111.79 30.89 108.56 C 33.47 93.00 45.82 79.72 61.38 76.66 C 64.24 62.77 74.63 51.01 87.62 45.58 M 72.90 77.47 C 80.43 79.75 87.95 84.14 91.94 91.11 C 94.18 96.26 86.69 101.16 82.94 97.02 C 78.50 91.74 72.08 87.64 64.97 87.82 C 52.43 88.88 42.31 100.61 41.99 113.01 C 42.17 116.41 39.08 118.58 36.00 118.92 C 29.55 120.00 23.62 126.16 24.80 133.00 C 26.04 139.91 33.27 144.15 39.94 143.95 C 74.30 143.97 108.67 143.98 143.04 143.94 C 154.58 144.21 164.91 134.45 165.82 123.05 C 167.36 111.30 158.70 99.13 146.82 97.45 C 143.02 97.35 140.08 93.71 141.14 89.97 C 142.98 78.02 136.91 65.73 126.94 59.15 C 108.69 45.88 78.48 55.00 72.90 77.47 Z" />
</g>
</svg>
