<?xml version="1.0" encoding="UTF-8" ?>
<!DOCTYPE svg PUBLIC "-//W3C//DTD SVG 1.1//EN" "http://www.w3.org/Graphics/SVG/1.1/DTD/svg11.dtd">
<svg width="192pt" height="192pt" viewBox="0 0 192 192" version="1.1" xmlns="http://www.w3.org/2000/svg">
<g id="#39d695ff">
<path fill="#39d695" opacity="1.00" d=" M 42.15 32.74 C 56.76 20.23 75.71 12.77 95.01 12.72 C 114.97 12.33 134.84 19.78 149.87 32.88 C 152.73 30.45 154.86 26.98 158.35 25.41 C 162.77 23.81 167.30 29.05 165.20 33.23 C 163.25 36.17 160.34 38.32 157.99 40.93 C 161.00 45.13 164.96 48.96 166.49 53.99 C 167.61 59.99 158.82 63.75 155.43 58.58 C 145.94 43.53 130.96 31.84 113.61 27.43 C 85.19 19.52 52.80 32.20 37.35 57.33 C 34.57 63.25 24.75 60.55 25.57 53.98 C 26.92 48.89 30.99 45.02 34.10 40.89 C 31.92 37.74 28.03 35.79 26.85 32.01 C 25.64 27.57 31.09 23.56 34.98 25.94 C 37.66 27.87 39.76 30.47 42.15 32.74 Z" />
<path fill="#39d695" opacity="1.00" d=" M 16.56 74.58 C 39.73 65.91 64.26 60.55 89.03 60.02 C 91.30 59.71 90.55 62.63 90.78 63.96 C 90.73 91.94 90.91 119.93 90.69 147.91 C 90.46 154.67 79.66 155.24 78.58 148.61 C 78.12 123.44 78.61 98.24 78.34 73.06 C 61.01 74.60 43.46 77.89 27.33 84.27 C 23.67 105.79 31.48 128.72 47.02 143.98 C 68.53 166.02 105.15 170.54 131.36 154.38 C 155.36 140.57 169.16 111.50 164.65 84.17 C 147.80 77.99 130.04 74.19 112.13 73.03 C 112.07 97.36 112.05 121.70 112.16 146.03 C 112.55 149.66 109.87 153.52 106.01 153.44 C 102.10 153.64 99.15 149.72 99.68 146.00 C 99.86 117.37 99.36 88.72 99.93 60.10 C 124.88 60.07 149.72 65.19 173.04 73.93 C 174.88 74.46 175.90 76.21 176.14 78.01 C 180.60 99.44 176.13 122.60 163.69 140.65 C 147.75 164.49 118.67 178.65 90.05 176.33 C 68.10 174.83 47.00 164.00 33.01 147.01 C 16.36 127.34 10.07 99.52 16.56 74.58 Z" />
</g>
</svg>
