<?xml version="1.0" encoding="UTF-8" ?>
<!DOCTYPE svg PUBLIC "-//W3C//DTD SVG 1.1//EN" "http://www.w3.org/Graphics/SVG/1.1/DTD/svg11.dtd">
<svg width="192pt" height="192pt" viewBox="0 0 192 192" version="1.1" xmlns="http://www.w3.org/2000/svg">
<g id="#a88a88ff">
<path fill="#a88a88" opacity="1.00" d=" M 144.41 41.56 C 149.85 39.01 152.18 45.48 153.55 49.41 C 156.18 57.19 162.41 65.26 158.83 73.73 C 154.88 83.15 139.85 84.09 134.95 75.03 C 130.17 67.33 135.71 58.91 138.70 51.71 C 140.58 48.36 141.04 43.79 144.41 41.56 Z" />
<path fill="#a88a88" opacity="1.00" d=" M 14.11 88.02 C 11.91 80.44 23.61 75.86 27.28 82.72 C 32.04 94.80 35.89 107.24 40.34 119.45 C 46.30 107.43 50.80 94.69 56.58 82.57 C 59.19 78.05 66.66 78.32 68.93 83.04 C 75.35 97.20 81.14 111.66 87.61 125.80 C 95.11 111.60 102.60 97.39 110.21 83.25 C 112.60 77.82 121.22 78.16 123.35 83.62 C 125.99 97.42 120.71 112.65 127.28 125.71 C 133.33 137.76 154.23 138.70 160.18 126.10 C 166.49 112.96 161.80 97.86 163.96 84.02 C 166.25 77.10 177.66 78.61 177.89 85.94 C 177.30 102.49 181.06 120.78 171.49 135.55 C 161.63 151.63 137.56 153.67 123.10 142.86 C 114.68 136.52 110.45 126.08 109.44 115.84 C 103.79 126.11 98.55 136.61 92.84 146.84 C 90.02 151.51 82.23 150.83 80.25 145.76 C 74.32 132.22 68.55 118.61 62.68 105.04 C 57.04 117.72 51.84 130.59 46.20 143.26 C 43.72 148.95 34.44 148.15 32.88 142.16 C 26.62 124.12 20.13 106.14 14.11 88.02 Z" />
</g>
</svg>
