<?xml version="1.0" encoding="UTF-8" ?>
<!DOCTYPE svg PUBLIC "-//W3C//DTD SVG 1.1//EN" "http://www.w3.org/Graphics/SVG/1.1/DTD/svg11.dtd">
<svg width="192pt" height="192pt" viewBox="0 0 192 192" version="1.1" xmlns="http://www.w3.org/2000/svg">
<g id="#846d71ff">
<path fill="#846d71" opacity="1.00" d=" M 98.02 25.00 C 116.50 18.32 138.32 22.00 153.47 34.57 C 175.91 51.84 181.58 86.34 165.98 109.95 C 157.05 124.13 141.65 134.15 124.97 136.17 C 118.41 136.42 117.41 125.76 124.00 124.99 C 139.27 122.71 152.98 112.41 159.34 98.34 C 166.51 83.19 164.29 64.21 153.93 51.06 C 142.79 36.26 122.45 29.63 104.69 34.75 C 86.32 39.58 72.09 56.92 71.23 75.94 C 70.93 78.41 71.32 81.43 69.27 83.27 C 66.57 86.13 60.94 84.85 60.00 80.91 C 59.22 77.23 60.27 73.46 60.25 69.74 C 46.47 67.94 32.20 77.32 29.14 91.00 C 25.63 104.20 33.52 119.05 46.36 123.61 C 54.98 126.93 64.38 124.56 73.30 125.68 C 78.34 126.95 78.61 134.95 73.59 136.41 C 67.75 137.00 61.85 136.53 55.99 136.66 C 40.97 136.84 26.53 127.32 20.50 113.61 C 13.87 99.35 17.08 81.32 28.22 70.23 C 37.18 60.80 50.81 56.98 63.52 58.78 C 69.33 43.19 82.31 30.49 98.02 25.00 Z" />
<path fill="#846d71" opacity="1.00" d=" M 84.70 121.34 C 81.49 116.68 87.80 110.44 92.45 113.65 C 97.93 118.44 102.84 123.88 108.08 128.95 C 110.36 130.89 111.21 134.72 108.96 137.02 C 105.64 140.73 101.90 144.05 98.44 147.64 C 102.02 151.69 106.34 155.06 109.61 159.36 C 112.52 164.22 105.85 170.08 101.42 166.62 C 96.41 162.30 92.01 157.32 87.24 152.74 C 85.12 150.92 83.85 147.89 85.19 145.22 C 88.36 140.75 93.23 137.74 96.25 133.16 C 92.41 129.21 88.21 125.59 84.70 121.34 Z" />
<path fill="#846d71" opacity="1.00" d=" M 58.38 148.44 C 65.15 145.57 68.87 154.10 73.43 157.55 C 78.27 161.29 73.57 169.56 67.92 167.29 C 63.81 164.85 60.89 160.80 57.42 157.56 C 54.59 155.15 55.11 150.20 58.38 148.44 Z" />
<path fill="#846d71" opacity="1.00" d=" M 122.19 148.08 C 128.78 146.31 132.07 154.10 136.55 157.46 C 141.47 161.16 136.88 169.68 131.06 167.32 C 126.98 164.78 124.02 160.76 120.52 157.50 C 117.55 154.88 118.47 149.51 122.19 148.08 Z" />
</g>
</svg>
