<?xml version="1.0" encoding="UTF-8" ?>
<!DOCTYPE svg PUBLIC "-//W3C//DTD SVG 1.1//EN" "http://www.w3.org/Graphics/SVG/1.1/DTD/svg11.dtd">
<svg width="192pt" height="192pt" viewBox="0 0 192 192" version="1.1" xmlns="http://www.w3.org/2000/svg">
<g id="#e7643fff">
<path fill="#e7643f" opacity="1.00" d=" M 93.69 26.71 C 109.20 19.67 127.89 20.06 143.08 27.80 C 157.79 35.16 169.10 49.03 173.10 65.01 C 177.98 83.60 172.68 104.49 159.42 118.42 C 150.22 128.21 137.46 135.11 123.98 136.12 C 118.02 135.23 117.92 125.65 124.01 124.94 C 139.77 122.65 153.83 111.66 159.91 96.96 C 166.37 82.05 163.94 63.82 153.91 51.06 C 141.25 34.07 116.41 28.13 97.40 37.47 C 81.50 44.70 70.95 61.66 70.99 79.08 C 71.42 84.21 64.20 86.90 61.08 82.93 C 58.33 79.11 60.35 74.10 60.30 69.79 C 46.51 67.90 32.20 77.31 29.16 91.00 C 25.71 103.93 33.24 118.47 45.67 123.30 C 54.44 127.02 64.16 124.47 73.31 125.66 C 78.38 126.90 78.59 134.93 73.59 136.41 C 67.42 137.03 61.16 136.57 54.95 136.65 C 38.11 136.46 22.49 123.97 18.37 107.68 C 14.12 92.75 20.01 75.71 32.44 66.47 C 41.10 59.61 52.65 57.29 63.46 58.80 C 68.78 44.68 79.88 32.83 93.69 26.71 Z" />
<path fill="#e7643f" opacity="1.00" d=" M 84.78 121.25 C 81.86 116.54 87.71 110.87 92.38 113.72 C 97.86 118.50 102.75 123.94 107.99 128.99 C 110.22 130.93 111.05 134.60 108.92 136.93 C 105.51 140.65 101.76 144.05 98.27 147.69 C 101.90 151.69 106.20 155.10 109.49 159.40 C 112.34 164.54 105.08 170.32 100.91 166.07 C 95.68 160.70 89.83 155.77 85.23 149.88 C 83.46 142.29 93.23 138.96 96.57 133.23 C 92.57 129.31 88.35 125.56 84.78 121.25 Z" />
<path fill="#e7643f" opacity="1.00" d=" M 58.42 148.55 C 65.03 146.02 68.50 153.71 72.88 157.13 C 76.68 159.81 75.78 166.01 71.27 167.32 C 65.63 168.34 62.84 161.93 58.97 159.02 C 55.37 156.67 54.28 150.95 58.42 148.55 Z" />
<path fill="#e7643f" opacity="1.00" d=" M 122.22 148.20 C 128.70 146.34 132.02 154.19 136.46 157.48 C 141.09 160.92 137.25 168.91 131.70 167.38 C 127.32 165.43 124.62 161.02 121.05 157.94 C 117.78 155.42 118.24 149.73 122.22 148.20 Z" />
</g>
</svg>
