<?xml version="1.0" encoding="UTF-8" ?>
<!DOCTYPE svg PUBLIC "-//W3C//DTD SVG 1.1//EN" "http://www.w3.org/Graphics/SVG/1.1/DTD/svg11.dtd">
<svg width="192pt" height="192pt" viewBox="0 0 192 192" version="1.1" xmlns="http://www.w3.org/2000/svg">
<g id="#52b3c9ff">
<path fill="#52b3c9" opacity="1.00" d=" M 51.73 24.73 C 71.78 12.14 97.33 9.01 119.90 16.04 C 152.42 25.70 176.97 57.07 178.13 91.04 C 178.37 118.03 178.20 145.02 178.22 172.02 C 178.60 175.47 175.45 178.53 172.03 178.24 C 148.34 178.24 124.64 178.38 100.97 178.16 C 94.22 178.01 94.20 166.84 100.99 166.80 C 122.90 166.58 144.83 166.78 166.74 166.69 C 166.67 141.43 166.96 116.17 166.60 90.92 C 165.13 57.21 136.69 27.39 103.11 24.28 C 72.02 20.24 40.12 39.70 28.93 68.87 C 21.58 87.10 22.26 108.39 30.87 126.08 C 39.41 144.01 55.73 158.06 74.81 163.68 C 82.58 152.52 90.27 141.31 97.96 130.10 C 92.65 130.00 87.31 130.42 82.02 129.92 C 78.16 129.45 76.02 124.46 78.31 121.33 C 84.11 112.47 89.94 103.61 95.97 94.90 C 99.32 90.36 107.19 94.27 105.75 99.70 C 102.52 106.43 97.42 112.11 93.80 118.65 C 99.20 118.88 104.62 118.47 110.01 118.88 C 113.75 119.46 115.76 124.37 113.53 127.44 C 103.82 141.73 93.92 155.89 84.15 170.15 C 81.86 173.82 77.29 176.06 72.99 175.11 C 41.27 166.75 16.36 137.69 13.00 105.04 C 8.86 73.69 24.74 41.08 51.73 24.73 Z" />
<path fill="#52b3c9" opacity="1.00" d=" M 63.85 54.89 C 84.03 43.12 112.55 53.63 120.34 75.63 C 134.57 74.91 148.16 86.51 148.73 100.91 C 150.17 114.61 139.19 128.48 125.36 129.50 C 119.46 129.19 118.72 119.69 124.61 118.63 C 131.85 117.14 137.83 110.54 137.65 102.99 C 137.98 94.50 130.47 86.91 122.02 86.89 C 118.19 86.54 112.31 88.02 111.05 82.98 C 107.93 70.54 95.99 60.71 83.00 61.21 C 67.95 60.52 54.15 73.93 54.19 88.95 C 53.46 99.92 60.02 110.42 69.49 115.64 C 74.49 118.65 70.64 127.25 64.98 125.50 C 51.71 119.23 42.78 104.68 43.16 90.00 C 42.76 75.63 51.29 61.68 63.85 54.89 Z" />
</g>
</svg>
