<?xml version="1.0" encoding="UTF-8" ?>
<!DOCTYPE svg PUBLIC "-//W3C//DTD SVG 1.1//EN" "http://www.w3.org/Graphics/SVG/1.1/DTD/svg11.dtd">
<svg width="192pt" height="192pt" viewBox="0 0 192 192" version="1.1" xmlns="http://www.w3.org/2000/svg">
<g id="#49abdbff">
<path fill="#49abdb" opacity="1.00" d=" M 93.01 27.02 C 108.44 19.78 127.13 19.94 142.41 27.48 C 157.17 34.62 168.63 48.27 172.86 64.13 C 177.78 81.79 173.52 101.67 161.77 115.75 C 152.42 126.96 138.65 135.02 123.98 136.09 C 118.01 135.24 117.93 125.65 124.01 124.95 C 140.27 122.58 154.68 110.96 160.46 95.58 C 166.24 80.92 163.62 63.39 153.88 51.01 C 141.50 34.45 117.56 28.38 98.73 36.83 C 82.14 43.77 70.92 61.13 70.97 79.07 C 71.41 84.19 64.18 86.89 61.08 82.91 C 58.34 79.09 60.34 74.07 60.31 69.76 C 46.82 67.96 32.81 76.84 29.36 90.12 C 25.49 103.00 32.62 117.83 44.98 123.02 C 53.90 127.13 63.92 124.46 73.30 125.66 C 78.46 126.90 78.56 135.16 73.39 136.45 C 66.93 136.96 60.40 136.61 53.92 136.60 C 37.18 135.93 21.94 123.18 18.17 106.89 C 14.33 92.15 20.25 75.57 32.43 66.48 C 41.11 59.62 52.65 57.33 63.47 58.79 C 68.70 44.91 79.53 33.23 93.01 27.02 Z" />
<path fill="#49abdb" opacity="1.00" d=" M 84.53 120.60 C 82.29 115.65 88.80 110.82 92.90 114.22 C 98.49 119.54 104.11 124.91 109.28 130.64 C 111.91 138.54 101.87 142.22 98.14 147.81 C 101.83 151.75 106.03 155.23 109.44 159.41 C 112.03 164.21 105.80 169.87 101.49 166.43 C 96.02 161.33 90.70 156.00 85.62 150.53 C 83.04 142.45 93.38 139.14 96.69 133.12 C 92.53 129.07 88.04 125.24 84.53 120.60 Z" />
<path fill="#49abdb" opacity="1.00" d=" M 58.37 148.44 C 64.93 145.52 68.54 153.74 72.95 157.05 C 78.18 160.51 74.16 169.50 68.04 167.30 C 63.85 164.93 60.96 160.78 57.43 157.55 C 54.61 155.14 55.10 150.21 58.37 148.44 Z" />
<path fill="#49abdb" opacity="1.00" d=" M 122.18 148.07 C 128.78 146.29 132.06 154.10 136.56 157.46 C 141.46 161.14 136.87 169.65 131.07 167.28 C 126.97 164.81 124.05 160.72 120.54 157.49 C 117.52 154.90 118.49 149.51 122.18 148.07 Z" />
</g>
</svg>
