<?xml version="1.0" encoding="UTF-8" ?>
<!DOCTYPE svg PUBLIC "-//W3C//DTD SVG 1.1//EN" "http://www.w3.org/Graphics/SVG/1.1/DTD/svg11.dtd">
<svg width="192pt" height="192pt" viewBox="0 0 192 192" version="1.1" xmlns="http://www.w3.org/2000/svg">
<g id="#f89538ff">
<path fill="#f89538" opacity="1.00" d=" M 94.40 26.41 C 110.46 19.37 129.76 20.28 145.06 28.86 C 161.25 37.71 172.72 54.67 174.54 73.08 C 178.57 103.22 154.43 133.84 124.00 136.08 C 118.02 135.26 117.93 125.65 124.00 124.95 C 139.27 122.71 152.97 112.37 159.32 98.32 C 166.49 83.16 164.28 64.16 153.89 51.01 C 141.23 34.03 116.39 28.13 97.40 37.44 C 81.49 44.69 70.91 61.65 70.98 79.07 C 71.38 84.18 64.23 86.86 61.09 82.92 C 58.31 79.10 60.38 74.09 60.33 69.78 C 46.17 67.76 31.51 77.81 28.91 91.98 C 25.98 104.95 33.89 119.14 46.38 123.59 C 54.99 126.91 64.39 124.52 73.30 125.67 C 78.45 126.93 78.55 135.15 73.38 136.44 C 67.27 136.96 61.09 136.56 54.95 136.63 C 39.48 136.40 24.93 125.90 19.59 111.42 C 14.41 98.22 17.31 82.35 26.76 71.79 C 35.65 61.32 50.08 56.79 63.50 58.78 C 68.89 44.43 80.29 32.43 94.40 26.41 Z" />
<path fill="#f89538" opacity="1.00" d=" M 84.73 121.30 C 81.73 116.57 87.72 110.72 92.42 113.68 C 97.86 118.50 102.78 123.92 108.02 128.98 C 110.32 130.90 111.04 134.60 108.94 136.94 C 105.52 140.65 101.76 144.02 98.32 147.71 C 101.93 151.71 106.21 155.13 109.52 159.38 C 112.56 164.45 105.02 170.36 100.89 166.09 C 95.65 160.72 89.80 155.78 85.17 149.90 C 83.45 142.31 93.08 138.95 96.53 133.30 C 92.58 129.32 88.35 125.58 84.73 121.30 Z" />
<path fill="#f89538" opacity="1.00" d=" M 58.42 148.49 C 65.16 145.64 68.82 154.21 73.39 157.60 C 78.16 161.30 73.50 169.32 67.96 167.24 C 63.87 164.79 61.00 160.73 57.49 157.54 C 54.63 155.15 55.18 150.27 58.42 148.49 Z" />
<path fill="#f89538" opacity="1.00" d=" M 122.21 148.16 C 128.51 146.26 131.69 153.81 136.00 156.98 C 140.95 160.12 137.93 168.70 131.99 167.43 C 127.39 165.74 124.72 161.02 121.04 157.95 C 117.72 155.44 118.24 149.71 122.21 148.16 Z" />
</g>
</svg>
