<?xml version="1.0" encoding="UTF-8" ?>
<!DOCTYPE svg PUBLIC "-//W3C//DTD SVG 1.1//EN" "http://www.w3.org/Graphics/SVG/1.1/DTD/svg11.dtd">
<svg width="192pt" height="192pt" viewBox="0 0 192 192" version="1.1" xmlns="http://www.w3.org/2000/svg">
<g id="#cbc6beff">
<path fill="#cbc6be" opacity="1.00" d=" M 95.12 26.08 C 113.28 18.40 135.36 20.93 151.17 32.77 C 166.09 43.44 175.28 61.63 174.86 80.00 C 175.05 107.63 152.49 133.19 124.98 136.11 C 120.99 136.34 118.04 131.52 119.91 128.03 C 121.08 125.11 124.48 124.86 127.12 124.26 C 143.47 120.94 157.19 107.83 161.71 91.84 C 166.51 75.74 161.49 57.25 149.17 45.82 C 135.48 32.32 113.05 29.15 96.07 38.09 C 80.85 45.63 70.96 62.16 70.96 79.07 C 71.39 84.18 64.21 86.88 61.08 82.92 C 58.36 79.10 60.30 74.07 60.33 69.76 C 46.82 67.95 32.78 76.82 29.35 90.13 C 25.49 103.01 32.63 117.83 44.98 123.01 C 53.90 127.13 63.93 124.43 73.30 125.66 C 78.47 126.88 78.55 135.18 73.37 136.43 C 66.92 136.99 60.40 136.62 53.93 136.59 C 37.46 135.93 22.43 123.61 18.37 107.67 C 14.06 92.52 20.21 75.21 32.99 66.05 C 41.59 59.49 52.88 57.34 63.46 58.79 C 68.96 44.18 80.67 32.03 95.12 26.08 Z" />
<path fill="#cbc6be" opacity="1.00" d=" M 84.83 121.19 C 81.90 116.57 87.77 110.91 92.34 113.76 C 97.86 118.50 102.73 123.97 107.97 129.00 C 110.40 131.04 110.65 135.26 108.38 137.49 C 105.04 140.98 101.48 144.26 98.17 147.77 C 101.86 151.71 106.10 155.17 109.46 159.41 C 112.29 164.53 105.08 170.22 100.94 166.03 C 95.69 160.71 89.91 155.74 85.27 149.90 C 83.84 142.10 93.16 138.92 96.70 133.19 C 92.61 129.33 88.41 125.52 84.83 121.19 Z" />
<path fill="#cbc6be" opacity="1.00" d=" M 58.44 148.58 C 65.27 146.20 68.75 154.19 73.30 157.71 C 77.96 161.22 73.46 169.25 68.06 167.12 C 63.91 164.78 61.05 160.70 57.58 157.49 C 54.75 155.10 55.31 150.41 58.44 148.58 Z" />
<path fill="#cbc6be" opacity="1.00" d=" M 122.23 148.25 C 128.67 146.37 132.04 154.19 136.44 157.49 C 140.91 160.81 137.45 168.61 131.99 167.40 C 127.60 165.78 125.04 161.37 121.56 158.43 C 118.17 156.06 117.99 149.80 122.23 148.25 Z" />
</g>
</svg>
