<?xml version="1.0" encoding="UTF-8" ?>
<!DOCTYPE svg PUBLIC "-//W3C//DTD SVG 1.1//EN" "http://www.w3.org/Graphics/SVG/1.1/DTD/svg11.dtd">
<svg width="192pt" height="192pt" viewBox="0 0 192 192" version="1.1" xmlns="http://www.w3.org/2000/svg">
<g id="#a534deff">
<path fill="#a534de" opacity="1.00" d=" M 93.01 27.02 C 108.43 19.77 127.12 19.94 142.41 27.47 C 156.91 34.50 168.24 47.81 172.64 63.33 C 177.54 80.04 174.24 98.90 163.94 112.94 C 155.04 125.26 141.10 133.87 126.03 136.04 C 121.69 137.12 117.81 131.89 119.93 128.01 C 120.97 125.40 123.94 124.88 126.38 124.43 C 142.52 121.42 156.27 108.91 161.26 93.34 C 165.99 79.16 163.11 62.77 153.88 51.01 C 141.21 34.04 116.39 28.14 97.40 37.45 C 81.49 44.70 70.95 61.66 70.99 79.07 C 71.41 84.20 64.20 86.89 61.08 82.93 C 58.35 79.11 60.33 74.08 60.32 69.76 C 46.82 67.97 32.81 76.84 29.37 90.12 C 25.50 103.00 32.63 117.83 44.98 123.01 C 53.90 127.13 63.93 124.44 73.31 125.67 C 78.46 126.90 78.56 135.16 73.40 136.44 C 66.94 136.98 60.41 136.62 53.93 136.60 C 37.18 135.95 21.92 123.18 18.16 106.87 C 14.32 92.13 20.24 75.55 32.44 66.46 C 41.10 59.62 52.64 57.30 63.44 58.80 C 68.71 44.93 79.50 33.22 93.01 27.02 Z" />
<path fill="#a534de" opacity="1.00" d=" M 84.47 120.63 C 82.32 115.89 88.02 111.08 92.37 113.75 C 97.87 118.49 102.74 123.96 107.98 129.00 C 110.62 131.21 110.61 135.81 107.95 137.99 C 104.72 141.27 101.38 144.43 98.21 147.76 C 101.86 151.73 106.12 155.17 109.46 159.41 C 112.25 164.54 105.09 170.31 100.92 166.03 C 95.69 160.68 89.85 155.75 85.25 149.87 C 83.54 142.33 93.16 138.88 96.65 133.28 C 92.56 129.12 87.87 125.39 84.47 120.63 Z" />
<path fill="#a534de" opacity="1.00" d=" M 58.40 148.54 C 65.11 145.66 68.86 154.20 73.38 157.63 C 78.08 161.27 73.59 169.29 68.02 167.26 C 63.92 164.79 61.00 160.77 57.51 157.53 C 54.68 155.14 55.18 150.31 58.40 148.54 Z" />
<path fill="#a534de" opacity="1.00" d=" M 122.21 148.19 C 128.70 146.32 132.04 154.16 136.48 157.48 C 141.38 161.12 136.80 169.56 131.05 167.22 C 126.99 164.66 124.02 160.71 120.56 157.43 C 117.62 154.85 118.55 149.57 122.21 148.19 Z" />
</g>
</svg>
