<?xml version="1.0" encoding="UTF-8" ?>
<!DOCTYPE svg PUBLIC "-//W3C//DTD SVG 1.1//EN" "http://www.w3.org/Graphics/SVG/1.1/DTD/svg11.dtd">
<svg width="192pt" height="192pt" viewBox="0 0 192 192" version="1.1" xmlns="http://www.w3.org/2000/svg">
<g id="#fd686bff">
<path fill="#fd686b" opacity="1.00" d=" M 92.35 27.35 C 107.68 19.90 126.36 19.84 141.74 27.18 C 156.08 33.90 167.43 46.73 172.17 61.86 C 177.22 77.53 175.02 95.33 166.34 109.32 C 157.47 123.78 141.90 134.14 124.99 136.10 C 118.40 136.49 117.39 125.72 123.99 124.98 C 139.26 122.70 152.97 112.41 159.33 98.33 C 166.50 83.17 164.29 64.17 153.91 51.02 C 142.15 35.32 120.01 28.94 101.63 35.67 C 84.69 41.48 72.07 58.00 71.19 75.93 C 70.87 78.39 71.31 81.41 69.26 83.26 C 66.53 86.11 60.96 84.84 59.98 80.91 C 59.28 77.21 60.12 73.43 60.37 69.73 C 46.84 67.95 32.77 76.80 29.34 90.14 C 25.41 103.27 32.90 118.39 45.65 123.32 C 54.43 127.05 64.16 124.48 73.32 125.69 C 78.36 126.94 78.56 134.92 73.56 136.38 C 67.39 137.01 61.14 136.53 54.95 136.62 C 37.83 136.42 22.00 123.50 18.18 106.85 C 14.22 91.65 20.67 74.55 33.58 65.65 C 42.09 59.40 53.10 57.41 63.44 58.82 C 68.66 45.19 79.14 33.61 92.35 27.35 Z" />
<path fill="#fd686b" opacity="1.00" d=" M 84.75 121.31 C 81.59 116.68 87.79 110.49 92.42 113.69 C 97.76 118.28 102.44 123.61 107.55 128.46 C 109.81 130.35 111.28 133.80 109.32 136.43 C 105.96 140.45 101.92 143.85 98.33 147.67 C 101.95 151.68 106.28 155.06 109.54 159.37 C 112.44 164.16 105.82 169.94 101.47 166.57 C 96.33 162.06 91.71 156.95 86.82 152.17 C 84.47 150.19 83.85 146.35 86.10 144.05 C 89.43 140.35 93.20 137.07 96.55 133.38 C 92.63 129.34 88.31 125.66 84.75 121.31 Z" />
<path fill="#fd686b" opacity="1.00" d=" M 58.39 148.49 C 64.90 145.56 68.55 153.77 72.93 157.08 C 78.13 160.55 74.11 169.41 68.03 167.28 C 63.89 164.85 60.97 160.78 57.47 157.53 C 54.66 155.11 55.13 150.26 58.39 148.49 Z" />
<path fill="#fd686b" opacity="1.00" d=" M 122.21 148.14 C 128.73 146.32 132.05 154.13 136.50 157.47 C 141.40 161.13 136.82 169.58 131.04 167.25 C 126.99 164.69 124.01 160.73 120.55 157.45 C 117.57 154.86 118.53 149.53 122.21 148.14 Z" />
</g>
</svg>
