<?xml version="1.0" encoding="UTF-8" ?>
<!DOCTYPE svg PUBLIC "-//W3C//DTD SVG 1.1//EN" "http://www.w3.org/Graphics/SVG/1.1/DTD/svg11.dtd">
<svg width="192pt" height="192pt" viewBox="0 0 192 192" version="1.1" xmlns="http://www.w3.org/2000/svg">
<g id="#ff3663ff">
<path fill="#ff3663" opacity="1.00" d=" M 94.21 14.22 C 98.03 12.28 102.67 15.83 102.23 19.98 C 102.22 31.67 102.44 43.37 102.12 55.05 C 101.50 61.13 91.65 61.14 91.08 55.07 C 90.78 43.37 91.02 31.65 90.97 19.94 C 90.76 17.58 91.99 15.17 94.21 14.22 Z" />
<path fill="#ff3663" opacity="1.00" d=" M 118.22 31.29 C 119.42 30.81 120.65 30.75 121.90 31.10 C 154.48 42.15 175.76 78.12 170.06 112.04 C 165.57 147.34 132.63 176.10 97.00 175.52 C 62.25 176.42 29.76 149.42 23.66 115.32 C 16.49 81.95 35.80 45.10 67.63 32.58 C 74.29 30.94 77.00 41.70 70.43 43.54 C 42.54 55.75 26.93 89.74 36.13 118.82 C 41.13 136.17 53.98 151.03 70.41 158.50 C 87.38 166.39 107.93 166.05 124.63 157.60 C 142.15 148.91 155.17 131.70 158.52 112.40 C 164.34 83.41 146.70 52.15 118.98 41.99 C 114.00 40.80 113.39 33.09 118.22 31.29 Z" />
</g>
</svg>
