<?xml version="1.0" encoding="UTF-8" ?>
<!DOCTYPE svg PUBLIC "-//W3C//DTD SVG 1.1//EN" "http://www.w3.org/Graphics/SVG/1.1/DTD/svg11.dtd">
<svg width="192pt" height="192pt" viewBox="0 0 192 192" version="1.1" xmlns="http://www.w3.org/2000/svg">
<g id="#45e371ff">
<path fill="#45e371" opacity="1.00" d=" M 84.41 14.52 C 117.62 9.30 152.65 27.15 168.16 56.92 C 184.39 86.27 179.84 125.38 157.13 150.10 C 135.75 174.78 98.93 184.16 68.33 172.76 C 47.49 165.40 30.03 149.16 21.11 128.95 C 9.57 103.53 12.38 72.29 28.33 49.38 C 41.09 30.62 61.91 17.57 84.41 14.52 M 87.38 25.47 C 63.28 28.13 41.44 44.38 31.55 66.45 C 18.20 94.77 26.77 131.25 51.46 150.55 C 77.40 172.46 119.16 171.19 143.69 147.70 C 167.56 126.65 173.64 88.83 157.74 61.30 C 144.34 36.54 115.31 21.74 87.38 25.47 Z" />
<path fill="#45e371" opacity="1.00" d=" M 115.99 61.97 C 119.85 58.52 126.59 57.60 130.38 61.64 C 134.19 65.75 132.70 72.37 129.11 76.11 C 124.56 80.96 119.72 85.54 115.05 90.27 C 117.01 103.01 121.47 115.27 123.97 127.93 C 124.71 133.00 121.47 139.44 115.83 139.69 C 110.62 140.13 106.27 135.66 104.97 130.92 C 102.76 122.97 100.89 114.92 98.74 106.94 C 92.37 112.94 86.44 119.41 79.90 125.24 C 85.88 129.27 81.65 139.11 74.68 137.35 C 67.66 131.47 61.39 124.59 54.98 118.03 C 50.73 111.61 62.45 104.70 65.86 112.02 C 72.05 105.51 78.57 99.32 84.96 93.01 C 76.76 90.83 68.49 88.96 60.33 86.68 C 55.08 85.26 50.50 79.68 52.22 74.10 C 53.87 68.96 60.12 66.84 65.03 67.95 C 76.99 70.73 88.83 74.06 100.79 76.86 C 106.07 72.13 110.71 66.72 115.99 61.97 Z" />
</g>
</svg>
