<?xml version="1.0" encoding="UTF-8" ?>
<!DOCTYPE svg PUBLIC "-//W3C//DTD SVG 1.1//EN" "http://www.w3.org/Graphics/SVG/1.1/DTD/svg11.dtd">
<svg width="192pt" height="192pt" viewBox="0 0 192 192" version="1.1" xmlns="http://www.w3.org/2000/svg">
<g id="#ff3661ff">
<path fill="#ff3661" opacity="1.00" d=" M 40.28 21.31 C 75.77 19.97 111.43 21.11 146.99 20.73 C 159.55 20.19 171.01 31.37 170.82 43.93 C 170.88 77.97 170.87 112.02 170.83 146.06 C 171.15 158.35 160.34 169.46 148.06 169.51 C 113.69 169.58 79.31 169.57 44.94 169.51 C 32.61 169.50 21.78 158.37 22.06 146.04 C 22.04 112.01 22.02 77.97 22.08 43.94 C 21.98 33.37 30.00 23.55 40.28 21.31 M 42.27 32.34 C 37.22 33.73 33.18 38.60 33.29 43.93 C 33.24 77.97 33.27 112.02 33.28 146.06 C 33.03 152.81 39.28 158.77 46.00 158.33 C 79.67 158.33 113.33 158.33 147.00 158.32 C 153.69 158.71 159.80 152.76 159.65 146.08 C 159.70 112.03 159.73 77.97 159.64 43.92 C 159.72 36.87 152.87 31.23 146.01 31.82 C 111.44 32.19 76.77 31.11 42.27 32.34 Z" />
<path fill="#ff3661" opacity="1.00" d=" M 54.65 75.70 C 57.47 75.52 60.29 75.51 63.12 75.63 C 65.77 84.47 67.22 93.63 69.46 102.58 C 71.83 94.67 73.46 86.56 75.59 78.58 C 75.85 74.21 84.11 74.12 84.67 78.34 C 86.85 86.37 88.58 94.52 90.77 102.54 C 93.11 93.69 94.77 84.68 96.97 75.79 C 99.78 75.52 102.59 75.48 105.41 75.56 C 103.87 88.27 99.64 100.60 97.14 113.18 C 97.39 119.38 85.69 119.53 85.35 113.68 C 83.64 106.75 82.00 99.80 80.13 92.91 C 77.80 100.79 76.82 109.22 73.69 116.76 C 70.46 118.11 63.50 118.89 63.29 113.68 C 60.55 100.99 56.89 88.49 54.65 75.70 Z" />
<path fill="#ff3661" opacity="1.00" d=" M 110.15 79.96 C 110.37 78.51 109.66 75.53 111.97 75.62 C 120.06 75.40 128.16 75.54 136.25 75.59 C 136.78 77.91 136.79 80.29 136.67 82.65 C 130.89 83.74 124.98 83.02 119.15 83.15 C 119.17 86.75 119.16 90.35 119.14 93.96 C 123.97 94.25 128.91 93.48 133.67 94.39 C 134.75 96.65 134.32 99.27 133.62 101.58 C 128.80 101.60 123.98 101.62 119.16 101.60 C 118.86 106.68 119.78 111.91 118.69 116.89 C 116.35 117.99 112.73 118.04 110.48 116.74 C 109.73 104.52 110.40 92.21 110.15 79.96 Z" />
</g>
</svg>
