<?xml version="1.0" encoding="UTF-8" ?>
<!DOCTYPE svg PUBLIC "-//W3C//DTD SVG 1.1//EN" "http://www.w3.org/Graphics/SVG/1.1/DTD/svg11.dtd">
<svg width="192pt" height="192pt" viewBox="0 0 192 192" version="1.1" xmlns="http://www.w3.org/2000/svg">
<g id="#ff3661ff">
<path fill="#ff3661" opacity="1.00" d=" M 12.40 46.63 C 10.92 42.20 14.13 37.01 18.95 37.05 C 26.65 36.91 34.37 36.93 42.07 36.93 C 46.58 36.99 50.12 40.84 50.92 45.09 C 54.42 58.38 57.24 71.86 61.13 85.04 C 64.90 71.58 67.95 57.92 71.48 44.39 C 72.40 40.05 76.43 36.65 80.94 36.89 C 89.98 36.94 99.02 37.04 108.06 36.89 C 112.29 36.69 116.22 39.71 117.21 43.80 C 120.87 57.84 124.19 71.97 127.77 86.03 C 131.38 72.11 134.72 58.12 138.23 44.17 C 139.10 40.16 142.74 36.85 146.94 36.92 C 154.64 37.02 162.34 36.85 170.03 37.00 C 174.71 37.18 177.86 42.22 176.53 46.58 C 168.72 78.35 160.75 110.10 152.86 141.85 C 152.05 146.00 148.35 149.51 144.02 149.48 C 133.34 149.49 122.66 149.47 111.98 149.50 C 107.30 149.63 103.41 145.89 102.60 141.42 C 100.59 132.81 98.12 124.29 96.43 115.62 C 95.86 109.88 104.76 107.72 107.00 113.00 C 109.45 121.24 111.27 129.69 113.31 138.05 C 122.89 138.44 132.49 137.98 142.07 138.26 C 149.62 108.27 157.09 78.27 164.50 48.26 C 159.27 48.27 154.05 48.26 148.83 48.17 C 143.62 69.15 138.50 90.17 133.07 111.09 C 131.71 116.30 123.33 115.94 122.35 110.67 C 117.00 89.88 111.98 69.00 106.73 48.19 C 98.52 48.28 90.31 48.28 82.10 48.17 C 76.89 68.93 71.82 89.73 66.41 110.43 C 65.26 115.73 56.77 115.67 55.70 110.36 C 50.31 89.68 45.39 68.88 40.07 48.19 C 34.82 48.25 29.57 48.27 24.32 48.24 C 31.88 78.23 39.23 108.28 46.80 138.27 C 56.29 138.18 65.79 138.09 75.28 138.31 C 80.05 120.00 84.33 101.56 89.22 83.28 C 91.02 77.11 101.24 79.62 99.96 85.94 C 95.59 104.70 90.47 123.29 86.11 142.05 C 85.39 146.36 81.37 149.61 77.02 149.50 C 66.34 149.45 55.66 149.49 44.99 149.48 C 40.29 149.54 36.62 145.57 35.86 141.15 C 28.07 109.64 20.12 78.16 12.40 46.63 Z" />
</g>
</svg>
