<?xml version="1.0" encoding="UTF-8" ?>
<!DOCTYPE svg PUBLIC "-//W3C//DTD SVG 1.1//EN" "http://www.w3.org/Graphics/SVG/1.1/DTD/svg11.dtd">
<svg width="192pt" height="192pt" viewBox="0 0 192 192" version="1.1" xmlns="http://www.w3.org/2000/svg">
<g id="#f6b12cff">
<path fill="#f6b12c" opacity="1.00" d=" M 14.33 53.35 C 17.74 51.92 21.65 54.34 22.07 57.96 C 28.12 82.32 34.39 106.64 40.30 131.03 C 41.99 137.28 31.80 140.22 29.82 134.14 C 23.43 110.04 17.69 85.76 11.51 61.60 C 10.47 58.61 10.95 54.55 14.33 53.35 Z" />
<path fill="#f6b12c" opacity="1.00" d=" M 35.35 53.36 C 38.71 51.92 42.67 54.24 43.11 57.85 C 49.18 82.37 55.58 106.83 61.43 131.40 C 62.60 137.49 52.76 140.06 50.88 134.11 C 44.49 109.96 38.71 85.64 32.53 61.43 C 31.45 58.48 32.12 54.59 35.35 53.36 Z" />
<path fill="#f6b12c" opacity="1.00" d=" M 53.42 58.94 C 52.27 52.59 62.74 50.60 64.12 56.82 C 68.73 74.21 72.84 91.75 77.38 109.17 C 81.90 91.68 86.03 74.08 90.67 56.63 C 92.02 51.72 99.99 51.71 101.34 56.62 C 105.95 73.97 110.09 91.45 114.57 108.84 C 119.07 91.48 123.17 74.00 127.77 56.66 C 129.22 50.97 138.63 52.27 138.49 58.16 C 138.76 76.10 138.48 94.06 138.63 112.01 C 138.49 120.10 145.97 127.20 154.02 126.82 C 161.83 126.85 168.83 119.91 168.78 112.08 C 169.00 94.05 168.55 76.00 168.99 57.99 C 169.64 52.06 179.27 52.10 179.86 58.04 C 180.12 76.71 180.05 95.41 179.89 114.09 C 179.03 131.29 158.79 143.35 143.25 135.83 C 130.83 130.90 125.71 116.72 127.37 104.22 C 124.63 114.02 122.55 124.01 119.78 133.80 C 118.52 138.81 110.48 138.72 109.32 133.71 C 104.71 116.19 100.59 98.54 96.00 81.02 C 91.46 98.55 87.29 116.19 82.68 133.70 C 81.38 139.08 72.66 138.63 71.88 133.15 C 65.69 108.43 59.30 83.73 53.42 58.94 Z" />
</g>
</svg>
