<?xml version="1.0" encoding="UTF-8" ?>
<!DOCTYPE svg PUBLIC "-//W3C//DTD SVG 1.1//EN" "http://www.w3.org/Graphics/SVG/1.1/DTD/svg11.dtd">
<svg width="192pt" height="192pt" viewBox="0 0 192 192" version="1.1" xmlns="http://www.w3.org/2000/svg">
<g id="#1ab0ffff">
<path fill="#1ab0ff" opacity="1.00" d=" M 88.63 17.68 C 89.96 12.30 98.66 12.64 99.56 18.11 C 100.13 26.72 99.55 35.39 99.80 44.02 C 99.57 47.14 103.83 49.23 106.09 47.07 C 114.02 39.66 121.23 31.44 129.37 24.28 C 134.41 20.83 141.10 28.26 136.87 32.85 C 125.57 44.55 113.86 55.87 102.45 67.48 C 98.27 71.54 100.21 77.84 99.77 83.00 C 99.26 86.42 100.87 90.81 104.93 90.69 C 111.10 90.53 118.66 92.50 123.43 87.41 C 134.87 76.18 145.92 64.53 157.45 53.39 C 162.31 49.22 169.70 56.69 165.55 61.52 C 158.40 69.37 150.56 76.59 143.23 84.27 C 140.83 86.42 142.76 90.88 145.93 90.75 C 155.26 91.07 164.63 90.36 173.93 91.12 C 179.45 92.50 178.86 101.65 173.08 102.05 C 164.05 102.52 154.98 102.09 145.94 102.33 C 142.80 102.12 141.00 106.54 143.32 108.63 C 150.94 116.71 159.28 124.15 166.71 132.40 C 170.40 137.53 162.60 144.53 158.00 139.90 C 146.21 128.40 134.75 116.56 123.02 104.99 C 118.87 100.58 112.28 102.71 106.95 102.25 C 103.44 101.76 99.51 104.01 99.85 107.96 C 100.10 113.98 98.44 121.17 102.88 126.08 C 113.25 136.72 124.03 146.99 134.31 157.72 C 138.57 162.25 131.88 169.96 126.84 166.12 C 119.65 159.69 113.21 152.44 106.22 145.79 C 104.23 143.62 100.20 145.04 99.98 147.95 C 99.29 156.49 100.40 165.12 99.50 173.64 C 98.04 179.23 88.92 178.42 88.51 172.62 C 88.15 162.92 88.57 153.20 88.32 143.49 C 78.84 150.94 69.70 158.81 60.61 166.71 C 55.74 170.38 48.81 163.42 52.66 158.56 C 63.43 147.06 74.96 136.25 85.89 124.89 C 89.71 120.90 87.86 114.94 88.31 110.00 C 88.76 106.76 87.44 102.73 83.64 102.50 C 77.27 102.30 69.68 100.82 64.49 105.51 C 53.88 115.87 43.63 126.63 32.96 136.93 C 28.37 141.19 20.85 134.49 24.40 129.40 C 30.76 122.10 38.09 115.67 44.69 108.58 C 46.79 106.42 44.94 102.21 41.93 102.35 C 33.98 101.95 25.96 102.83 18.06 101.95 C 12.85 100.74 12.82 92.32 18.07 91.15 C 26.00 90.32 34.01 91.13 41.97 90.74 C 45.11 90.81 46.97 86.49 44.82 84.23 C 38.27 77.12 30.87 70.77 24.55 63.45 C 21.24 58.52 28.36 52.22 32.82 56.16 C 43.74 66.57 54.17 77.52 64.94 88.09 C 69.10 92.54 75.70 90.17 81.03 90.79 C 84.61 91.43 88.78 89.08 88.26 85.00 C 87.79 79.20 90.03 72.19 85.60 67.47 C 74.74 56.30 63.44 45.56 52.66 34.32 C 48.41 29.78 55.07 22.15 60.15 25.88 C 67.74 32.57 74.48 40.20 81.85 47.15 C 83.84 49.14 87.80 47.76 88.17 44.97 C 88.74 35.89 87.74 26.73 88.63 17.68 Z" />
</g>
</svg>
