<?xml version="1.0" encoding="UTF-8" ?>
<!DOCTYPE svg PUBLIC "-//W3C//DTD SVG 1.1//EN" "http://www.w3.org/Graphics/SVG/1.1/DTD/svg11.dtd">
<svg width="192pt" height="192pt" viewBox="0 0 192 192" version="1.1" xmlns="http://www.w3.org/2000/svg">
<g id="#ff5f3cff">
<path fill="#ff5f3c" opacity="1.00" d=" M 15.55 42.16 C 15.39 37.99 18.61 33.89 22.96 33.91 C 32.64 33.68 42.34 33.82 52.02 33.84 C 56.07 33.62 59.76 36.87 59.93 40.94 C 59.93 52.13 59.13 63.31 58.89 74.49 C 65.56 63.29 70.95 51.32 76.63 39.59 C 78.58 36.45 82.63 36.00 85.98 36.05 C 94.34 36.13 102.71 35.85 111.07 36.19 C 115.16 36.28 118.67 39.85 118.58 43.97 C 119.07 64.31 119.49 84.68 119.23 105.03 C 118.22 110.73 109.09 110.70 108.28 104.93 C 107.82 85.77 107.93 66.58 107.42 47.42 C 100.08 47.31 92.74 47.38 85.40 47.43 C 77.28 64.74 68.13 81.54 59.79 98.73 C 56.81 104.31 47.34 102.32 46.84 96.01 C 47.01 79.04 48.41 62.08 48.51 45.10 C 41.23 45.34 33.94 45.10 26.65 45.22 C 26.19 78.52 25.45 111.81 24.67 145.10 C 35.41 145.07 46.15 145.15 56.90 145.10 C 64.16 127.10 71.82 109.25 79.54 91.45 C 81.53 86.61 89.42 87.82 90.02 92.96 C 91.25 110.32 91.97 127.73 93.12 145.10 C 106.31 144.96 119.54 145.46 132.71 144.92 C 143.12 111.58 154.17 78.44 164.81 45.17 C 157.29 45.27 149.77 45.12 142.25 45.17 C 139.08 54.34 136.00 63.54 132.54 72.60 C 130.01 78.18 120.70 74.91 122.11 69.00 C 125.22 59.30 128.79 49.73 132.17 40.12 C 133.38 36.38 137.04 33.70 141.00 33.81 C 151.01 33.85 161.04 33.73 171.05 33.92 C 175.77 33.69 179.06 38.87 177.32 43.14 C 166.01 78.50 154.37 113.75 143.12 149.13 C 142.10 153.25 138.34 156.59 133.98 156.46 C 119.32 156.56 104.67 156.40 90.01 156.42 C 86.23 156.68 82.59 153.78 82.23 149.97 C 81.22 139.68 81.07 129.32 80.21 119.01 C 75.11 129.57 71.12 140.65 66.36 151.37 C 64.95 154.62 61.55 156.80 57.98 156.50 C 45.66 156.43 33.33 156.44 21.01 156.43 C 16.57 156.52 12.86 152.39 13.31 147.99 C 14.26 112.72 14.82 77.43 15.55 42.16 Z" />
</g>
</svg>
