<?xml version="1.0" encoding="UTF-8" ?>
<!DOCTYPE svg PUBLIC "-//W3C//DTD SVG 1.1//EN" "http://www.w3.org/Graphics/SVG/1.1/DTD/svg11.dtd">
<svg width="192pt" height="192pt" viewBox="0 0 192 192" version="1.1" xmlns="http://www.w3.org/2000/svg">
<g id="#45e371ff">
<path fill="#45e371" opacity="1.00" d=" M 85.32 14.40 C 117.00 9.82 150.23 26.05 166.31 53.67 C 178.66 74.05 181.23 99.92 173.41 122.40 C 164.71 148.11 142.38 168.62 116.01 175.07 C 103.62 178.44 90.69 177.39 78.01 177.55 C 58.34 177.48 38.66 177.69 18.99 177.45 C 12.96 177.18 12.41 167.46 18.33 166.43 C 46.21 165.89 74.14 166.68 102.02 166.02 C 137.70 163.77 167.79 130.78 166.60 95.00 C 167.29 57.94 134.14 24.37 96.99 25.11 C 62.35 23.51 29.91 51.71 25.94 86.01 C 24.44 103.94 25.97 122.02 25.11 139.97 C 23.85 145.87 14.26 145.18 14.13 139.07 C 14.14 121.84 13.63 104.56 14.46 87.35 C 17.52 50.49 48.58 18.54 85.32 14.40 Z" />
<path fill="#45e371" opacity="1.00" d=" M 88.38 53.48 C 110.45 48.91 133.83 64.91 137.92 86.98 C 141.69 104.03 133.62 122.67 118.83 131.83 C 105.48 140.49 87.27 140.66 73.75 132.26 C 58.02 122.95 49.70 103.01 54.39 85.30 C 58.20 69.25 72.10 56.20 88.38 53.48 M 90.40 64.53 C 75.25 66.95 63.40 81.67 64.41 97.00 C 64.69 113.72 80.27 128.17 96.97 127.18 C 114.38 127.07 129.36 110.41 127.43 93.05 C 126.48 75.08 108.03 60.90 90.40 64.53 Z" />
</g>
</svg>
