<?xml version="1.0" encoding="UTF-8" ?>
<!DOCTYPE svg PUBLIC "-//W3C//DTD SVG 1.1//EN" "http://www.w3.org/Graphics/SVG/1.1/DTD/svg11.dtd">
<svg width="192pt" height="192pt" viewBox="0 0 192 192" version="1.1" xmlns="http://www.w3.org/2000/svg">
<g id="#19afffff">
<path fill="#19afff" opacity="1.00" d=" M 43.38 17.54 C 58.22 14.26 73.11 24.23 79.82 37.07 C 87.27 51.70 81.79 70.29 69.80 80.80 C 64.46 85.24 64.22 93.09 66.94 99.04 C 71.90 110.27 81.30 119.61 92.65 124.33 C 98.45 126.85 105.87 126.19 110.10 121.12 C 118.00 112.16 130.01 106.88 141.98 107.82 C 156.18 108.90 168.22 120.15 172.59 133.34 C 175.84 143.11 172.81 154.33 165.34 161.34 C 154.77 171.66 139.40 175.67 124.93 174.62 C 102.75 173.10 81.96 162.92 64.71 149.28 C 43.54 132.27 26.59 109.21 19.34 82.83 C 14.97 66.45 14.79 47.81 23.94 32.97 C 28.33 25.80 34.95 19.41 43.38 17.54 M 46.33 28.42 C 38.92 29.98 34.19 36.82 31.20 43.28 C 24.87 58.09 27.78 75.04 33.38 89.61 C 46.70 122.46 74.83 149.60 108.81 160.25 C 125.32 165.30 146.32 165.55 158.76 151.74 C 165.79 144.09 161.92 132.29 155.03 125.96 C 148.41 118.61 137.12 117.23 128.39 121.40 C 120.99 124.19 117.18 132.03 109.91 135.02 C 102.84 138.24 94.60 137.41 87.57 134.49 C 73.43 128.25 61.66 116.32 55.98 101.90 C 52.07 92.13 53.76 80.02 61.82 72.82 C 70.69 65.30 75.31 51.50 69.14 40.94 C 64.40 33.37 55.70 26.83 46.33 28.42 Z" />
</g>
</svg>
