<?xml version="1.0" encoding="UTF-8" ?>
<!DOCTYPE svg PUBLIC "-//W3C//DTD SVG 1.1//EN" "http://www.w3.org/Graphics/SVG/1.1/DTD/svg11.dtd">
<svg width="192pt" height="192pt" viewBox="0 0 192 192" version="1.1" xmlns="http://www.w3.org/2000/svg">
<g id="#42e273ff">
<path fill="#42e273" opacity="1.00" d=" M 84.40 13.52 C 105.80 10.46 128.33 16.32 145.47 29.50 C 170.70 48.43 183.22 82.74 175.42 113.40 C 166.91 150.23 130.60 177.50 92.99 176.55 C 69.99 176.54 47.00 176.59 24.00 176.52 C 19.11 177.02 16.09 170.76 19.11 167.05 C 24.12 158.32 32.76 148.04 26.18 137.73 C 9.30 110.89 10.28 74.40 28.36 48.39 C 41.09 29.63 61.94 16.65 84.40 13.52 M 28.64 73.62 C 22.51 92.92 25.50 114.66 36.12 131.83 C 42.43 142.03 40.82 155.47 33.80 164.89 C 53.86 165.14 73.93 164.93 94.00 165.00 C 115.73 165.02 137.23 154.80 150.78 137.78 C 162.73 123.11 168.26 103.42 165.43 84.69 C 161.37 51.75 131.36 24.34 98.03 24.17 C 67.19 22.58 37.34 44.09 28.64 73.62 Z" />
<path fill="#42e273" opacity="1.00" d=" M 68.96 59.89 C 74.11 56.16 81.82 59.94 83.17 65.86 C 84.26 70.36 86.57 74.94 85.49 79.65 C 84.89 82.79 81.59 84.34 80.31 87.01 C 83.39 99.25 93.69 109.17 105.81 112.44 C 109.15 107.90 114.88 105.01 120.39 107.60 C 126.74 108.55 134.96 112.09 133.85 119.92 C 132.83 124.87 128.32 128.91 123.94 131.06 C 90.21 133.53 59.05 102.04 61.50 68.38 C 62.86 64.79 66.19 62.37 68.96 59.89 Z" />
</g>
</svg>
