<?xml version="1.0" encoding="UTF-8" ?>
<!DOCTYPE svg PUBLIC "-//W3C//DTD SVG 1.1//EN" "http://www.w3.org/Graphics/SVG/1.1/DTD/svg11.dtd">
<svg width="192pt" height="192pt" viewBox="0 0 192 192" version="1.1" xmlns="http://www.w3.org/2000/svg">
<g id="#18adffff">
<path fill="#18adff" opacity="1.00" d=" M 65.96 20.85 C 67.33 15.91 71.58 11.59 76.98 11.78 C 88.66 11.72 100.35 11.70 112.03 11.78 C 117.40 11.69 121.52 16.03 122.84 20.94 C 129.58 21.07 136.33 20.79 143.06 21.06 C 149.58 21.45 154.95 27.43 154.81 33.93 C 154.90 70.31 154.91 106.70 154.84 143.08 C 154.97 149.60 149.55 155.55 143.05 156.05 C 137.41 156.40 131.74 156.12 126.09 156.15 C 128.47 160.46 131.61 164.40 133.37 169.01 C 134.73 174.43 126.68 178.05 123.60 173.39 C 119.21 166.38 115.14 159.14 111.01 151.97 C 109.10 149.45 110.75 145.24 113.99 145.05 C 123.84 144.70 133.72 145.29 143.57 144.75 C 143.73 107.26 143.79 69.77 143.56 32.28 C 134.03 31.99 124.49 32.40 114.96 32.08 C 110.04 32.06 112.04 26.00 111.59 22.84 C 100.12 22.90 88.65 22.84 77.18 22.85 C 76.71 25.89 78.78 32.04 74.05 32.12 C 64.47 32.33 54.87 32.04 45.28 32.25 C 45.17 69.75 45.12 107.26 45.31 144.77 C 55.22 145.25 65.14 144.74 75.06 145.03 C 78.55 145.06 80.31 149.62 78.18 152.23 C 73.92 159.29 69.87 166.49 65.40 173.40 C 62.32 178.05 54.31 174.40 55.63 169.01 C 57.38 164.40 60.54 160.48 62.88 156.15 C 57.23 156.12 51.57 156.36 45.93 156.07 C 39.39 155.68 33.91 149.62 34.07 143.08 C 34.04 106.70 34.06 70.31 34.10 33.92 C 33.90 27.44 39.38 21.32 45.91 21.08 C 52.58 20.74 59.28 20.94 65.96 20.85 Z" />
<path fill="#18adff" opacity="1.00" d=" M 60.30 47.36 C 81.03 45.47 102.12 47.09 123.00 46.51 C 129.95 45.62 137.16 50.83 137.48 58.02 C 137.71 65.33 137.60 72.66 137.55 79.97 C 137.67 86.65 131.66 92.53 125.01 92.34 C 105.01 92.39 85.00 92.37 65.01 92.34 C 58.31 92.64 52.13 86.81 52.22 80.08 C 52.15 73.03 52.18 65.97 52.22 58.92 C 52.14 53.87 55.55 49.04 60.30 47.36 M 62.63 58.97 C 62.46 66.40 62.59 73.85 62.62 81.29 C 78.99 82.63 95.55 81.49 112.00 81.86 C 117.03 81.62 122.17 82.51 127.10 81.20 C 127.00 73.22 127.62 65.20 126.73 57.26 C 106.81 56.90 86.89 57.24 66.97 57.09 C 65.49 57.31 62.43 56.55 62.63 58.97 Z" />
<path fill="#18adff" opacity="1.00" d=" M 72.38 122.57 C 85.92 122.13 99.49 122.54 113.04 122.36 C 115.79 122.21 119.17 122.58 120.51 125.40 C 122.78 129.21 119.53 134.47 115.08 134.06 C 101.04 134.08 86.98 134.31 72.95 133.94 C 66.57 133.81 66.08 123.33 72.38 122.57 Z" />
</g>
</svg>
