<?xml version="1.0" encoding="UTF-8" ?>
<!DOCTYPE svg PUBLIC "-//W3C//DTD SVG 1.1//EN" "http://www.w3.org/Graphics/SVG/1.1/DTD/svg11.dtd">
<svg width="192pt" height="192pt" viewBox="0 0 192 192" version="1.1" xmlns="http://www.w3.org/2000/svg">
<g id="#46e371ff">
<path fill="#46e371" opacity="1.00" d=" M 118.87 31.99 C 123.31 25.68 132.69 24.07 139.34 27.78 C 139.07 28.44 138.53 29.75 138.26 30.41 C 131.58 29.13 124.99 30.87 119.63 34.96 C 119.44 34.22 119.06 32.74 118.87 31.99 Z" />
<path fill="#46e371" opacity="1.00" d=" M 70.02 34.64 C 68.13 26.17 79.45 24.53 84.43 28.59 C 88.53 35.56 82.32 41.78 77.21 45.83 C 79.93 45.90 82.64 45.98 85.35 46.10 C 85.40 47.47 85.45 48.85 85.49 50.22 C 80.44 50.28 75.40 50.31 70.35 50.16 C 69.70 41.92 82.51 40.09 80.76 31.39 C 79.02 31.24 77.29 31.14 75.55 31.04 C 75.18 32.33 74.81 33.61 74.45 34.90 C 72.97 34.82 71.49 34.73 70.02 34.64 Z" />
<path fill="#46e371" opacity="1.00" d=" M 151.35 33.01 C 162.09 27.63 173.41 41.24 168.03 51.10 C 163.33 51.24 166.15 43.49 163.60 40.44 C 161.54 35.59 155.84 35.60 151.39 35.66 C 151.38 34.99 151.36 33.67 151.35 33.01 Z" />
<path fill="#46e371" opacity="1.00" d=" M 117.36 36.39 C 124.57 32.24 137.03 33.46 139.04 43.00 C 144.83 41.93 151.25 39.97 156.77 43.12 C 167.79 49.15 173.17 67.33 162.12 75.88 C 167.47 77.63 172.93 79.96 176.58 84.44 C 185.46 94.87 182.42 112.66 171.00 120.00 C 165.98 123.31 159.94 124.35 154.12 125.32 C 155.80 130.84 157.82 136.33 158.71 142.04 C 158.95 148.08 149.17 149.29 147.00 144.04 C 144.39 137.34 143.39 130.11 140.63 123.45 C 135.52 121.57 129.79 117.86 130.60 111.59 C 113.74 111.93 99.85 101.07 84.60 95.59 C 93.13 103.24 102.27 112.08 104.05 123.96 C 105.28 132.18 100.05 139.17 95.22 145.19 C 90.17 152.43 83.27 157.97 76.32 163.26 C 73.71 166.49 66.92 166.87 65.48 162.38 C 64.60 157.99 68.79 155.05 72.02 153.03 C 79.41 148.55 84.52 141.46 89.89 134.90 C 92.40 131.79 94.78 127.76 93.34 123.65 C 90.22 114.41 82.55 107.78 75.26 101.74 C 66.78 95.07 56.30 89.37 45.16 90.50 C 37.67 91.77 33.95 99.79 26.86 101.95 C 19.07 104.25 9.23 98.73 9.46 89.99 C 7.94 79.25 15.90 71.21 20.43 62.42 C 24.46 55.57 33.68 51.22 41.13 55.27 C 48.28 51.20 57.09 56.37 57.80 64.34 C 63.09 64.55 68.60 64.70 73.53 62.47 C 77.14 61.01 81.29 58.76 85.11 60.89 C 88.53 63.13 91.08 66.51 94.76 68.42 C 95.59 54.27 106.64 44.11 117.36 36.39 M 103.22 70.61 C 105.87 74.66 112.20 73.24 114.07 69.21 C 117.14 62.59 122.63 55.80 119.63 48.08 C 109.41 50.05 103.14 60.75 103.22 70.61 M 147.97 52.21 C 151.04 57.53 152.12 63.76 150.43 69.75 C 158.76 66.19 156.12 53.82 147.97 52.21 M 24.00 68.48 C 27.50 68.35 31.00 68.22 34.50 68.43 C 35.38 65.95 38.62 62.95 36.37 60.50 C 30.89 59.11 26.51 64.28 24.00 68.48 M 133.36 60.40 C 125.72 63.16 120.03 70.89 119.81 79.03 C 119.66 82.91 124.20 85.05 127.45 83.49 C 135.72 80.49 141.75 70.59 139.17 61.91 C 138.57 59.28 135.29 59.57 133.36 60.40 M 34.70 79.79 C 30.93 82.58 26.81 78.58 26.23 74.73 C 21.66 78.40 18.19 85.36 21.20 90.93 C 27.39 90.47 30.33 83.22 36.04 81.12 C 56.56 71.35 80.23 78.93 99.19 88.83 C 111.02 94.70 124.08 103.95 137.85 98.79 C 143.04 96.16 148.94 96.99 154.54 97.07 C 152.29 103.99 145.91 108.13 139.33 110.33 C 147.92 114.80 159.11 113.80 166.54 107.54 C 169.51 103.87 169.78 98.21 168.07 93.94 C 164.72 87.66 156.45 89.57 151.56 85.44 C 149.31 83.80 148.07 81.25 146.91 78.81 C 142.05 86.78 134.68 94.77 124.87 95.65 C 115.96 96.19 109.42 87.60 109.36 79.26 C 99.12 82.18 87.73 79.22 80.55 71.29 C 70.81 75.83 59.78 76.01 49.32 74.74 C 45.49 73.15 46.78 68.31 46.70 65.09 C 41.61 69.07 38.54 74.78 34.70 79.79 Z" />
<path fill="#46e371" opacity="1.00" d=" M 106.77 69.57 C 105.48 64.66 107.92 58.32 113.50 57.67 C 112.89 62.15 111.81 68.16 106.77 69.57 Z" />
<path fill="#46e371" opacity="1.00" d=" M 127.83 65.93 C 128.57 63.83 132.57 61.82 132.81 65.20 C 133.22 69.54 130.80 73.75 128.07 76.99 C 123.42 74.78 126.16 69.30 127.83 65.93 Z" />
</g>
</svg>
