<?xml version="1.0" encoding="UTF-8" ?>
<!DOCTYPE svg PUBLIC "-//W3C//DTD SVG 1.1//EN" "http://www.w3.org/Graphics/SVG/1.1/DTD/svg11.dtd">
<svg width="192pt" height="192pt" viewBox="0 0 192 192" version="1.1" xmlns="http://www.w3.org/2000/svg">
<g id="#a51affff">
<path fill="#a51aff" opacity="1.00" d=" M 17.33 43.39 C 20.40 41.75 24.15 43.63 25.14 46.84 C 31.03 60.71 36.77 74.68 42.27 88.71 C 44.91 94.58 35.38 99.12 32.35 93.66 C 26.28 79.91 20.84 65.86 14.99 52.00 C 13.48 49.09 13.91 44.70 17.33 43.39 Z" />
<path fill="#a51aff" opacity="1.00" d=" M 90.64 46.64 C 91.77 41.88 99.25 41.56 100.95 46.03 C 106.47 58.67 111.40 71.57 116.76 84.29 C 117.72 86.74 119.01 89.31 118.47 92.03 C 117.38 96.14 110.67 97.12 108.72 93.28 C 104.04 83.58 101.11 72.94 95.55 63.74 C 84.79 90.54 74.08 117.36 63.16 144.09 C 60.93 150.55 50.14 146.58 53.11 140.14 C 65.44 108.91 78.11 77.79 90.64 46.64 Z" />
<path fill="#a51aff" opacity="1.00" d=" M 169.30 43.24 C 173.66 40.78 179.34 45.41 177.23 50.10 C 164.94 81.08 152.38 111.98 139.90 142.89 C 139.01 145.71 136.14 148.13 133.06 147.03 C 129.32 146.35 128.34 141.74 129.73 138.69 C 141.76 108.77 153.88 78.89 165.92 48.97 C 166.89 47.01 167.42 44.56 169.30 43.24 Z" />
</g>
</svg>
