<?xml version="1.0" encoding="UTF-8" ?>
<!DOCTYPE svg PUBLIC "-//W3C//DTD SVG 1.1//EN" "http://www.w3.org/Graphics/SVG/1.1/DTD/svg11.dtd">
<svg width="192pt" height="192pt" viewBox="0 0 192 192" version="1.1" xmlns="http://www.w3.org/2000/svg">
<g id="#ff3664ff">
<path fill="#ff3664" opacity="1.00" d=" M 80.31 26.29 C 90.71 24.95 101.47 25.89 112.01 25.79 C 117.71 25.95 118.46 34.98 112.98 36.27 C 102.67 36.69 92.31 36.52 82.00 36.35 C 76.97 36.01 75.72 28.31 80.31 26.29 Z" />
<path fill="#ff3664" opacity="1.00" d=" M 81.36 44.55 C 89.88 44.02 98.45 44.52 107.00 44.31 C 109.91 44.45 113.64 43.66 115.64 46.39 C 118.29 49.39 116.19 54.92 112.06 55.00 C 102.05 55.21 92.01 55.25 82.01 54.98 C 76.37 54.61 75.86 45.64 81.36 44.55 Z" />
<path fill="#ff3664" opacity="1.00" d=" M 80.40 63.54 C 90.49 62.32 100.88 63.31 111.09 63.02 C 115.55 62.44 118.58 68.31 115.69 71.65 C 113.95 74.16 110.64 73.67 108.01 73.74 C 99.38 73.60 90.74 73.89 82.12 73.61 C 76.99 73.42 75.64 65.49 80.40 63.54 Z" />
<path fill="#ff3664" opacity="1.00" d=" M 131.25 63.31 C 139.81 62.85 148.42 63.29 157.00 63.10 C 159.73 63.24 163.09 62.51 165.14 64.83 C 168.17 67.69 166.15 73.57 161.93 73.73 C 153.29 74.01 144.64 73.71 136.00 73.86 C 133.34 73.78 129.93 74.30 128.24 71.68 C 125.88 68.85 127.61 63.96 131.25 63.31 Z" />
<path fill="#ff3664" opacity="1.00" d=" M 31.21 82.20 C 41.71 81.23 52.44 81.80 63.01 81.90 C 68.70 82.51 68.78 91.86 63.00 92.36 C 53.00 92.62 42.98 92.48 32.97 92.43 C 27.54 92.46 26.15 84.02 31.21 82.20 Z" />
<path fill="#ff3664" opacity="1.00" d=" M 80.28 82.21 C 90.69 80.88 101.45 81.83 111.99 81.71 C 117.70 81.82 118.49 90.87 113.00 92.18 C 102.68 92.55 92.31 92.40 81.98 92.26 C 76.97 91.92 75.73 84.24 80.28 82.21 Z" />
<path fill="#ff3664" opacity="1.00" d=" M 130.25 82.25 C 140.39 81.10 150.79 81.97 161.02 81.78 C 167.01 81.22 168.69 90.59 162.98 92.27 C 152.68 92.74 142.31 92.46 131.99 92.41 C 126.72 92.32 125.39 84.16 130.25 82.25 Z" />
<path fill="#ff3664" opacity="1.00" d=" M 32.38 100.53 C 42.52 100.30 52.70 100.32 62.84 100.52 C 68.69 100.92 68.83 110.45 62.98 111.02 C 54.34 111.48 45.66 111.03 37.01 111.23 C 34.27 111.19 30.84 111.54 29.06 108.97 C 26.62 106.05 28.58 100.96 32.38 100.53 Z" />
<path fill="#ff3664" opacity="1.00" d=" M 81.33 100.47 C 91.21 100.00 101.13 100.37 111.02 100.28 C 115.08 99.81 118.20 104.56 116.25 108.11 C 114.77 111.22 110.93 111.18 107.99 111.16 C 99.34 110.94 90.66 111.44 82.03 110.91 C 76.41 110.51 75.82 101.59 81.33 100.47 Z" />
<path fill="#ff3664" opacity="1.00" d=" M 131.38 100.56 C 141.52 100.23 151.71 100.36 161.86 100.49 C 167.38 100.69 168.29 109.52 162.92 110.85 C 154.34 111.68 145.64 110.94 137.01 111.22 C 133.99 111.13 130.08 111.80 128.13 108.87 C 125.91 105.96 127.71 101.09 131.38 100.56 Z" />
<path fill="#ff3664" opacity="1.00" d=" M 93.88 119.86 C 95.63 117.64 99.21 117.90 100.84 120.12 C 109.08 129.23 117.14 138.50 125.41 147.57 C 126.85 149.53 130.13 149.64 131.50 147.54 C 134.81 143.39 137.41 138.72 140.68 134.55 C 149.39 133.82 158.24 134.50 167.00 134.24 C 169.95 134.40 173.78 133.48 175.80 136.28 C 178.34 139.26 176.02 144.53 172.03 144.45 C 163.54 144.59 155.04 144.42 146.55 144.51 C 141.62 150.60 136.83 156.80 131.82 162.82 C 130.31 165.13 126.87 164.73 125.35 162.65 C 117.01 153.71 108.91 144.55 100.58 135.62 C 98.89 133.54 95.44 133.70 93.88 135.85 C 85.95 144.61 78.37 153.68 70.51 162.49 C 69.21 164.34 66.32 165.13 64.62 163.37 C 59.04 157.55 54.82 150.41 48.95 144.93 C 39.07 144.55 29.15 145.13 19.27 144.67 C 13.81 144.09 13.78 135.27 19.14 134.49 C 30.62 134.15 42.14 134.39 53.63 134.38 C 57.35 138.34 60.81 142.55 64.59 146.45 C 66.00 148.25 68.85 148.02 70.20 146.28 C 78.21 137.58 85.89 128.57 93.88 119.86 Z" />
<path fill="#ff3664" opacity="1.00" d=" M 31.33 119.42 C 39.81 118.44 48.45 119.31 57.00 118.98 C 60.20 119.11 64.44 118.22 66.49 121.40 C 69.02 124.70 66.18 130.05 62.03 129.72 C 52.12 129.74 42.19 129.95 32.29 129.60 C 27.21 129.01 26.48 121.01 31.33 119.42 Z" />
<path fill="#ff3664" opacity="1.00" d=" M 130.37 119.46 C 140.81 118.48 151.48 119.12 161.99 119.12 C 167.58 119.52 168.18 128.42 162.69 129.55 C 152.51 130.03 142.28 129.76 132.09 129.69 C 126.68 129.71 125.35 121.28 130.37 119.46 Z" />
</g>
</svg>
