<?xml version="1.0" encoding="UTF-8" ?>
<!DOCTYPE svg PUBLIC "-//W3C//DTD SVG 1.1//EN" "http://www.w3.org/Graphics/SVG/1.1/DTD/svg11.dtd">
<svg width="192pt" height="192pt" viewBox="0 0 192 192" version="1.1" xmlns="http://www.w3.org/2000/svg">
<g id="#4a72c6ff">
<path fill="#4a72c6" opacity="1.00" d=" M 68.78 22.70 C 71.27 16.59 78.96 14.37 84.68 17.26 C 92.43 20.76 101.47 20.81 109.16 17.11 C 115.78 13.88 124.35 17.91 126.00 25.10 C 127.78 33.23 128.20 41.64 130.03 49.76 C 134.23 53.00 140.08 55.91 140.43 61.97 C 140.88 68.13 135.24 71.85 130.70 74.73 C 129.61 76.92 130.29 79.66 130.05 82.06 C 138.58 89.80 147.88 99.15 148.51 111.33 C 156.86 113.98 164.31 120.79 164.98 129.94 C 165.74 143.46 164.68 157.05 165.71 170.57 C 165.73 172.18 166.14 174.89 163.99 175.27 C 119.99 174.90 75.95 175.41 31.95 175.01 C 26.08 174.79 25.40 165.48 31.09 164.29 C 47.49 163.67 63.95 164.33 80.37 163.89 C 73.89 158.28 66.32 153.80 60.54 147.48 C 58.09 140.85 66.38 137.02 69.26 132.00 C 64.39 128.13 59.86 123.81 54.76 120.27 C 48.78 121.51 40.75 123.04 38.94 129.92 C 37.74 137.53 39.08 145.33 38.26 152.98 C 36.90 158.68 27.39 157.92 27.27 151.93 C 27.54 143.18 26.06 134.10 28.67 125.61 C 30.92 118.03 37.91 113.30 45.12 111.05 C 45.87 98.84 55.36 89.76 63.73 81.86 C 63.51 79.54 63.44 77.21 63.43 74.88 C 58.62 72.22 52.92 68.26 53.32 62.03 C 53.58 56.30 58.88 52.97 63.26 50.28 C 66.25 41.45 65.29 31.46 68.78 22.70 M 78.47 27.01 C 77.14 34.27 75.85 41.57 75.13 48.92 C 74.66 50.66 76.69 50.85 77.80 51.28 C 91.04 55.31 105.86 55.53 118.68 49.94 C 117.38 42.31 116.70 34.56 115.02 27.00 C 103.37 32.20 90.13 32.09 78.47 27.01 M 64.65 62.12 C 66.60 64.59 69.79 65.33 72.65 66.25 C 84.85 69.71 97.79 69.80 110.32 68.45 C 116.80 67.26 123.88 66.45 129.21 62.21 C 126.98 61.13 124.46 59.74 121.95 60.86 C 108.53 65.72 93.70 66.89 79.82 63.28 C 74.83 62.27 69.46 58.46 64.65 62.12 M 74.43 78.45 C 75.50 90.01 83.37 102.51 95.98 103.17 C 109.07 103.56 118.57 90.50 118.82 78.25 C 104.19 81.34 89.12 80.77 74.43 78.45 M 57.07 107.15 C 64.95 114.95 74.65 120.83 82.19 128.93 C 84.56 135.39 76.47 139.28 73.54 144.12 C 81.07 150.54 88.99 156.48 96.80 162.55 C 104.55 156.41 112.44 150.44 120.09 144.17 C 116.97 139.38 108.54 135.03 111.57 128.54 C 119.04 120.93 128.12 115.03 135.90 107.75 C 134.94 102.35 129.98 98.05 126.28 94.02 C 120.91 105.61 109.21 114.88 96.01 114.37 C 83.27 114.11 72.41 105.07 67.04 93.96 C 63.05 97.81 59.62 102.22 57.07 107.15 M 124.28 132.05 C 127.37 136.92 135.77 141.16 132.91 147.79 C 126.87 153.78 119.66 158.56 112.99 163.84 C 126.66 164.10 140.34 164.01 154.01 163.95 C 154.00 152.95 154.30 141.93 153.84 130.94 C 152.82 123.85 144.85 121.82 138.98 120.31 C 133.68 123.57 129.22 128.21 124.28 132.05 Z" />
</g>
</svg>
