<?xml version="1.0" encoding="UTF-8" ?>
<!DOCTYPE svg PUBLIC "-//W3C//DTD SVG 1.1//EN" "http://www.w3.org/Graphics/SVG/1.1/DTD/svg11.dtd">
<svg width="192pt" height="192pt" viewBox="0 0 192 192" version="1.1" xmlns="http://www.w3.org/2000/svg">
<g id="#18acffff">
<path fill="#18acff" opacity="1.00" d=" M 32.58 26.52 C 42.53 19.91 57.48 19.83 65.61 29.41 C 74.14 39.43 75.89 54.28 72.74 66.69 C 70.20 74.57 61.87 77.50 55.78 81.99 C 59.66 90.76 64.90 98.80 70.44 106.59 C 73.47 112.01 65.14 117.59 61.33 112.67 C 54.57 103.99 48.37 94.46 44.86 83.98 C 43.01 75.29 51.95 70.73 58.14 67.11 C 64.12 64.12 63.11 56.64 62.62 51.13 C 62.04 44.10 59.14 35.66 51.68 33.43 C 41.74 31.38 32.61 38.94 28.36 47.35 C 22.01 59.84 24.13 74.66 28.61 87.40 C 35.18 106.22 46.78 123.10 61.06 136.92 C 72.62 148.21 89.45 156.76 105.82 151.84 C 113.91 149.57 122.88 141.50 119.65 132.33 C 116.07 124.54 108.09 119.35 100.12 116.83 C 92.90 114.72 88.24 122.25 82.01 124.12 C 77.00 124.83 73.59 117.83 77.48 114.49 C 81.91 111.09 86.58 107.70 91.92 105.90 C 100.40 103.57 109.06 107.32 115.99 112.03 C 123.64 117.06 130.55 124.60 131.58 134.06 C 132.62 143.93 126.46 153.26 118.36 158.39 C 106.85 165.72 92.00 166.06 79.34 161.69 C 65.34 156.80 53.87 146.73 44.32 135.65 C 28.73 117.55 16.47 95.58 13.49 71.60 C 11.33 54.70 17.63 35.81 32.58 26.52 Z" />
<path fill="#18acff" opacity="1.00" d=" M 144.28 31.19 C 150.47 28.67 158.44 33.04 158.57 40.02 C 159.90 48.36 149.04 54.48 142.37 49.64 C 135.57 45.51 136.60 33.74 144.28 31.19 M 146.28 39.23 C 145.16 41.59 147.24 44.53 149.72 42.68 C 152.08 40.45 148.50 37.09 146.28 39.23 Z" />
<path fill="#18acff" opacity="1.00" d=" M 111.50 36.54 C 110.28 33.21 114.96 30.27 117.63 32.35 C 119.57 34.17 120.10 36.96 121.11 39.33 C 124.55 38.55 128.41 37.42 131.73 39.23 C 136.14 41.48 137.76 46.61 139.03 51.04 C 140.15 54.00 137.05 57.21 134.05 56.27 C 129.82 54.60 131.27 48.00 127.03 46.39 C 122.39 47.88 126.73 52.90 126.94 56.07 C 128.29 60.34 121.09 62.70 119.59 58.56 C 116.64 51.32 113.96 43.95 111.50 36.54 Z" />
<path fill="#18acff" opacity="1.00" d=" M 105.98 46.03 C 107.46 43.68 111.59 43.50 112.78 46.24 C 115.34 51.20 117.61 57.85 113.78 62.77 C 111.18 66.50 106.38 67.04 102.21 66.75 C 99.06 70.17 94.09 72.49 89.52 70.51 C 83.96 68.48 82.36 62.11 81.05 56.98 C 80.62 52.90 87.31 51.51 88.61 55.36 C 90.33 57.84 90.11 63.10 93.97 63.01 C 98.36 59.68 90.91 54.24 94.02 50.12 C 96.01 47.38 100.45 48.75 101.16 51.89 C 102.58 54.16 102.64 59.34 106.41 58.44 C 110.06 54.98 103.47 50.06 105.98 46.03 Z" />
<path fill="#18acff" opacity="1.00" d=" M 126.97 69.96 C 126.69 65.83 132.50 63.82 134.98 66.98 C 136.88 69.82 136.03 73.52 136.24 76.75 C 140.28 76.81 144.75 77.17 147.75 80.24 C 152.50 84.63 152.03 91.74 151.41 97.61 C 150.77 101.50 144.83 102.53 142.97 99.03 C 141.34 95.64 142.74 91.67 141.80 88.11 C 141.08 85.68 137.03 85.91 136.46 88.36 C 135.81 91.76 136.71 95.35 135.66 98.69 C 133.97 102.74 126.97 101.54 126.99 97.03 C 126.69 88.02 126.81 78.97 126.97 69.96 Z" />
<path fill="#18acff" opacity="1.00" d=" M 87.21 77.19 C 91.46 75.38 94.51 80.17 93.61 83.95 C 93.16 87.04 93.64 93.63 98.35 91.37 C 101.32 87.71 97.76 81.77 101.15 78.14 C 103.29 75.95 107.29 76.72 108.51 79.51 C 109.83 83.00 108.69 86.87 109.56 90.45 C 110.65 92.58 114.20 92.12 114.77 89.81 C 115.63 86.45 114.56 82.86 115.56 79.54 C 116.85 76.09 122.25 75.95 123.70 79.33 C 125.85 87.00 124.77 98.11 115.73 100.71 C 110.54 103.30 105.55 97.29 100.61 100.47 C 93.15 103.69 84.09 97.08 84.35 89.08 C 84.60 85.18 82.86 79.39 87.21 77.19 Z" />
<path fill="#18acff" opacity="1.00" d=" M 162.35 79.44 C 168.55 77.79 175.58 82.33 175.51 89.02 C 176.53 97.41 165.50 103.10 158.95 98.11 C 152.04 93.47 154.03 81.19 162.35 79.44 M 162.77 91.11 C 165.74 93.12 168.64 90.16 166.58 87.18 C 163.95 86.84 162.66 88.58 162.77 91.11 Z" />
</g>
</svg>
