<?xml version="1.0" encoding="UTF-8" ?>
<!DOCTYPE svg PUBLIC "-//W3C//DTD SVG 1.1//EN" "http://www.w3.org/Graphics/SVG/1.1/DTD/svg11.dtd">
<svg width="192pt" height="192pt" viewBox="0 0 192 192" version="1.1" xmlns="http://www.w3.org/2000/svg">
<g id="#19b0ffff">
<path fill="#19b0ff" opacity="1.00" d=" M 53.95 24.89 C 73.28 13.49 97.39 10.70 118.83 17.28 C 145.06 25.03 166.48 46.83 173.89 73.14 C 181.73 99.49 175.19 129.54 157.01 150.17 C 162.61 156.21 168.87 161.66 174.22 167.91 C 177.51 172.59 171.05 179.04 166.42 175.53 C 159.02 168.66 152.03 161.29 144.92 154.10 C 141.50 150.62 144.74 146.12 147.65 143.63 C 170.78 118.98 171.82 77.66 150.30 51.68 C 130.58 25.95 92.32 17.49 63.60 32.51 C 34.78 46.26 18.45 80.98 26.14 111.98 C 30.91 133.57 46.43 152.42 66.71 161.24 C 85.73 169.75 108.29 168.86 126.94 159.76 C 132.77 157.35 137.27 166.72 131.72 169.77 C 111.39 180.29 86.49 181.28 65.25 172.83 C 35.02 161.24 13.43 130.44 13.17 98.01 C 12.12 68.60 28.44 39.50 53.95 24.89 Z" />
<path fill="#19b0ff" opacity="1.00" d=" M 49.94 78.04 C 50.16 75.01 53.88 75.58 56.00 75.51 C 62.27 75.84 68.91 74.64 74.88 77.08 C 79.75 79.31 80.15 85.36 80.19 90.01 C 80.13 94.80 80.38 100.84 75.99 103.94 C 71.28 106.71 65.56 106.00 60.33 106.13 C 59.90 109.75 61.69 114.36 58.93 117.24 C 55.86 117.59 49.62 118.84 49.85 114.02 C 49.85 102.03 49.67 90.03 49.94 78.04 M 60.35 84.96 C 60.38 88.86 60.38 92.76 60.35 96.66 C 63.17 96.46 66.41 97.45 68.93 95.91 C 69.92 92.64 70.17 88.59 68.68 85.46 C 66.04 84.37 63.12 84.88 60.35 84.96 Z" />
<path fill="#19b0ff" opacity="1.00" d=" M 89.05 77.10 C 92.27 74.75 98.71 74.40 101.59 77.44 C 105.65 89.54 109.11 101.89 112.70 114.15 C 113.77 118.23 108.53 117.69 106.01 117.53 C 101.82 117.98 101.77 113.02 100.83 110.19 C 97.23 110.17 93.64 110.16 90.05 110.18 C 89.05 112.92 89.09 117.94 84.99 117.53 C 82.34 117.61 76.69 118.34 77.83 113.99 C 81.42 101.66 84.87 89.23 89.05 77.10 M 92.48 101.30 C 94.45 101.31 96.43 101.30 98.41 101.30 C 97.46 97.76 96.50 94.22 95.46 90.70 C 94.32 94.19 93.41 97.75 92.48 101.30 Z" />
<path fill="#19b0ff" opacity="1.00" d=" M 108.22 78.03 C 108.85 74.11 114.99 75.31 117.64 76.29 C 121.04 81.08 122.69 86.89 125.54 92.02 C 128.21 86.81 130.04 81.09 133.33 76.25 C 136.04 75.24 143.21 74.06 142.63 78.70 C 139.44 86.28 135.51 93.56 131.98 101.00 C 129.39 105.73 131.71 111.33 130.36 116.34 C 127.36 118.58 119.15 118.70 120.21 113.06 C 122.20 99.96 111.87 89.85 108.22 78.03 Z" />
</g>
</svg>
