<?xml version="1.0" encoding="UTF-8" ?>
<!DOCTYPE svg PUBLIC "-//W3C//DTD SVG 1.1//EN" "http://www.w3.org/Graphics/SVG/1.1/DTD/svg11.dtd">
<svg width="192pt" height="192pt" viewBox="0 0 192 192" version="1.1" xmlns="http://www.w3.org/2000/svg">
<g id="#19afffff">
<path fill="#19afff" opacity="1.00" d=" M 25.41 39.42 C 28.35 35.79 30.57 30.78 35.07 28.95 C 40.29 27.28 44.02 34.50 40.03 38.01 C 30.20 49.06 24.01 64.09 26.23 79.02 C 27.67 90.11 33.64 99.96 40.72 108.36 C 43.59 112.89 38.70 117.62 34.00 116.44 C 13.30 97.06 9.07 62.80 25.41 39.42 Z" />
<path fill="#19afff" opacity="1.00" d=" M 154.27 29.23 C 156.14 28.44 158.60 28.43 160.14 29.91 C 173.52 43.38 179.66 63.24 177.30 81.97 C 175.46 94.30 169.24 105.78 160.63 114.70 C 157.63 118.33 151.12 115.75 151.61 111.00 C 152.38 106.22 157.13 103.44 159.20 99.21 C 171.20 81.38 169.36 56.03 154.76 40.23 C 151.48 37.55 149.58 31.53 154.27 29.23 Z" />
<path fill="#19afff" opacity="1.00" d=" M 57.43 44.51 C 62.40 41.19 68.13 48.80 63.75 52.77 C 56.31 61.29 52.53 74.05 58.48 84.43 C 60.12 88.28 63.60 91.07 65.03 95.00 C 66.20 99.25 61.02 102.91 57.32 100.71 C 41.14 86.64 40.92 58.43 57.43 44.51 Z" />
<path fill="#19afff" opacity="1.00" d=" M 130.39 44.52 C 134.39 41.95 137.89 46.02 140.03 48.99 C 150.13 61.54 150.80 80.39 141.76 93.70 C 139.34 97.21 136.29 102.95 131.12 100.92 C 126.56 99.14 127.51 93.29 130.60 90.56 C 138.95 81.14 139.96 66.03 131.80 56.17 C 128.92 53.17 125.71 47.48 130.39 44.52 Z" />
<path fill="#19afff" opacity="1.00" d=" M 87.73 58.99 C 87.82 55.21 92.73 52.97 95.72 55.17 C 99.16 57.40 98.00 62.05 98.22 65.50 C 102.33 65.06 108.75 65.48 108.68 71.00 C 108.77 76.57 102.36 76.99 98.23 76.47 C 98.16 86.63 98.02 96.80 98.24 106.96 C 98.73 111.55 104.56 111.32 107.66 113.37 C 120.61 119.38 126.37 137.17 118.19 149.21 C 108.13 165.51 81.86 167.10 69.99 152.02 C 59.39 140.38 64.16 119.82 78.37 113.43 C 81.46 111.40 87.13 111.47 87.52 106.85 C 87.86 90.90 87.41 74.93 87.73 58.99 M 89.46 120.74 C 80.63 121.97 72.46 130.60 75.12 139.88 C 78.93 152.42 96.89 155.79 106.12 147.19 C 110.83 143.31 112.94 136.31 110.27 130.67 C 106.78 123.00 97.51 119.18 89.46 120.74 Z" />
</g>
</svg>
