<?xml version="1.0" encoding="UTF-8" ?>
<!DOCTYPE svg PUBLIC "-//W3C//DTD SVG 1.1//EN" "http://www.w3.org/Graphics/SVG/1.1/DTD/svg11.dtd">
<svg width="192pt" height="192pt" viewBox="0 0 192 192" version="1.1" xmlns="http://www.w3.org/2000/svg">
<g id="#19afffff">
<path fill="#19afff" opacity="1.00" d=" M 13.54 43.57 C 11.57 39.49 15.67 34.85 19.97 35.73 C 24.83 36.41 32.16 33.57 34.77 39.23 C 47.74 70.60 60.08 102.25 73.26 133.54 C 78.93 120.09 84.36 106.54 89.84 93.01 C 83.77 78.09 77.68 63.18 71.61 48.26 C 65.70 49.43 60.45 41.97 65.77 37.80 C 70.41 35.98 78.89 34.99 80.84 41.12 C 85.94 53.25 90.52 65.61 95.95 77.59 C 101.94 64.79 106.29 51.20 112.48 38.53 C 117.25 35.27 129.73 34.66 129.51 43.01 C 129.16 47.65 123.93 48.33 120.26 48.25 C 114.28 63.20 108.10 78.07 102.07 93.00 C 107.59 106.55 112.89 120.20 118.77 133.59 C 131.62 102.12 144.25 70.56 157.13 39.11 C 159.90 33.58 167.14 36.39 172.03 35.72 C 176.62 34.81 180.52 40.03 178.19 44.12 C 175.70 48.39 170.06 46.83 165.99 47.13 C 152.00 81.72 138.01 116.33 123.95 150.89 C 122.52 155.37 115.51 155.76 113.71 151.37 C 107.60 137.13 102.20 122.59 95.93 108.41 C 89.74 122.58 84.28 137.06 78.23 151.29 C 76.50 155.67 69.52 155.46 68.03 151.01 C 53.89 116.41 40.01 81.70 25.87 47.10 C 21.72 46.93 15.66 48.33 13.54 43.57 Z" />
</g>
</svg>
