<?xml version="1.0" encoding="UTF-8" ?>
<!DOCTYPE svg PUBLIC "-//W3C//DTD SVG 1.1//EN" "http://www.w3.org/Graphics/SVG/1.1/DTD/svg11.dtd">
<svg width="192pt" height="192pt" viewBox="0 0 192 192" version="1.1" xmlns="http://www.w3.org/2000/svg">
<g id="#4e7fa0ff">
<path fill="#4e7fa0" opacity="1.00" d=" M 39.28 21.35 C 41.16 20.91 43.08 20.74 45.01 20.74 C 79.00 20.77 112.99 20.72 146.98 20.76 C 159.16 20.78 170.02 31.75 169.79 43.95 C 169.82 78.32 169.88 112.69 169.77 147.06 C 169.65 158.98 158.94 169.44 147.07 169.52 C 112.69 169.57 78.32 169.56 43.94 169.52 C 32.02 169.49 21.33 159.02 21.14 147.08 C 21.04 112.70 21.10 78.33 21.11 43.95 C 20.98 33.40 29.02 23.58 39.28 21.35 M 41.28 32.36 C 36.24 33.73 32.11 38.60 32.30 43.94 C 32.26 77.98 32.29 112.02 32.29 146.06 C 32.01 152.43 37.66 158.27 44.00 158.34 C 78.00 158.39 111.99 158.34 145.98 158.35 C 152.68 158.75 158.85 152.77 158.67 146.07 C 158.70 112.02 158.73 77.97 158.66 43.92 C 158.73 37.28 152.54 31.72 146.03 31.80 C 112.68 31.77 79.34 31.80 46.00 31.77 C 44.40 31.73 42.82 31.96 41.28 32.36 Z" />
<path fill="#4e7fa0" opacity="1.00" d=" M 56.44 76.76 C 56.76 69.05 66.86 72.08 71.93 71.84 C 78.31 73.87 74.37 83.39 68.21 81.23 C 72.14 90.81 75.91 100.46 79.81 110.06 C 83.06 102.83 85.89 95.41 88.71 88.01 C 87.61 83.39 83.56 79.02 85.01 74.13 C 88.65 69.64 95.77 71.99 100.81 72.06 C 106.30 75.07 102.05 83.08 96.35 81.25 C 100.31 90.81 103.95 100.50 107.99 110.03 C 112.07 100.37 115.89 90.59 119.73 80.84 C 116.26 78.56 116.55 72.56 121.01 71.74 C 125.22 71.68 129.61 71.12 133.74 72.12 C 138.58 74.83 135.50 82.40 130.10 81.34 C 123.93 95.90 118.38 110.74 112.31 125.35 C 110.93 128.30 106.63 129.15 104.51 126.49 C 100.01 118.94 98.51 108.79 93.48 102.14 C 90.46 109.82 87.42 117.51 84.29 125.15 C 83.64 127.00 81.74 127.76 80.02 128.30 C 77.65 127.92 75.65 126.27 75.00 123.93 C 68.90 108.18 62.14 92.64 56.44 76.76 Z" />
</g>
</svg>
