<?xml version="1.0" encoding="UTF-8" ?>
<!DOCTYPE svg PUBLIC "-//W3C//DTD SVG 1.1//EN" "http://www.w3.org/Graphics/SVG/1.1/DTD/svg11.dtd">
<svg width="192pt" height="192pt" viewBox="0 0 192 192" version="1.1" xmlns="http://www.w3.org/2000/svg">
<g id="#ff8b1fff">
<path fill="#ff8b1f" opacity="1.00" d=" M 21.43 43.94 C 21.27 31.84 31.87 20.83 44.01 20.77 C 70.35 20.69 96.69 20.74 123.02 20.74 C 126.03 20.57 128.75 22.12 130.74 24.26 C 142.77 36.56 154.86 48.80 166.92 61.08 C 169.06 63.10 169.99 66.04 169.85 68.94 C 169.85 94.65 169.89 120.35 169.84 146.06 C 170.10 158.32 159.23 169.39 146.97 169.39 C 134.65 169.40 122.31 169.60 109.99 169.29 C 104.21 168.83 103.69 159.63 109.33 158.44 C 121.87 157.79 134.48 158.44 147.04 158.13 C 153.32 158.03 158.75 152.33 158.69 146.08 C 158.79 122.29 158.75 98.50 158.71 74.72 C 149.46 74.27 140.09 75.38 130.91 74.09 C 119.85 71.58 114.38 59.49 116.13 48.95 C 115.49 43.45 123.64 40.80 126.34 45.62 C 128.86 50.89 125.07 58.99 131.60 62.31 C 138.47 64.63 146.09 62.88 153.26 63.32 C 144.00 53.72 134.52 44.34 125.27 34.73 C 123.82 33.33 122.35 31.35 120.05 31.80 C 95.02 31.86 69.99 31.77 44.96 31.83 C 38.41 31.67 32.48 37.45 32.55 44.01 C 32.42 67.02 32.67 90.03 32.44 113.03 C 32.23 119.48 21.51 119.29 21.49 112.85 C 21.30 89.89 21.44 66.91 21.43 43.94 Z" />
<path fill="#ff8b1f" opacity="1.00" d=" M 21.72 125.70 C 31.22 125.34 40.76 125.29 50.27 125.72 C 50.60 128.64 51.24 131.91 49.54 134.55 C 44.00 143.56 38.26 152.44 32.75 161.46 C 38.45 161.74 44.20 161.15 49.88 161.80 C 51.85 163.68 50.65 166.98 50.46 169.42 C 40.94 169.43 31.33 169.97 21.87 169.18 C 20.15 166.40 20.85 162.34 22.58 159.64 C 28.05 150.92 33.56 142.22 38.95 133.46 C 33.61 133.38 28.25 133.71 22.92 133.33 C 20.04 132.11 21.71 128.13 21.72 125.70 Z" />
<path fill="#ff8b1f" opacity="1.00" d=" M 57.00 128.93 C 56.31 123.74 63.00 125.57 66.12 125.89 C 66.16 140.40 67.28 155.21 65.56 169.55 C 62.90 169.53 60.24 169.51 57.58 169.42 C 56.24 156.02 57.34 142.41 57.00 128.93 Z" />
<path fill="#ff8b1f" opacity="1.00" d=" M 73.81 127.97 C 73.92 123.82 79.37 126.00 82.00 125.45 C 88.96 126.02 98.17 123.60 103.11 129.93 C 105.99 136.38 105.53 144.09 103.91 150.82 C 100.50 158.80 90.06 156.40 83.17 156.83 C 82.95 160.82 83.68 164.95 82.65 168.84 C 79.90 169.99 72.97 170.93 73.75 166.00 C 73.78 153.33 73.66 140.64 73.81 127.97 M 83.15 133.48 C 83.16 138.63 83.16 143.77 83.14 148.91 C 86.88 148.62 91.34 149.97 94.56 147.58 C 96.37 144.05 95.79 139.61 95.14 135.83 C 92.78 131.78 87.01 134.06 83.15 133.48 Z" />
</g>
</svg>
