<?xml version="1.0" encoding="UTF-8" ?>
<!DOCTYPE svg PUBLIC "-//W3C//DTD SVG 1.1//EN" "http://www.w3.org/Graphics/SVG/1.1/DTD/svg11.dtd">
<svg width="192pt" height="192pt" viewBox="0 0 192 192" version="1.1" xmlns="http://www.w3.org/2000/svg">
<g id="#8492a1ff">
<path fill="#8492a1" opacity="1.00" d=" M 76.25 46.92 C 76.42 36.22 86.37 27.06 97.08 28.00 C 106.82 28.35 115.58 37.16 115.34 47.01 C 115.34 70.68 115.71 94.37 115.11 118.03 C 114.96 127.68 108.50 135.27 104.97 143.65 C 123.25 156.55 151.45 149.27 161.08 129.05 C 164.10 123.19 165.44 116.57 165.36 110.00 C 165.44 86.33 165.30 62.67 165.52 39.01 C 165.30 35.52 168.36 32.08 171.99 32.71 C 175.49 33.05 177.06 36.83 176.79 39.95 C 176.81 62.30 176.80 84.65 176.79 107.00 C 176.84 114.78 175.66 122.61 172.90 129.90 C 166.58 146.11 151.09 158.27 133.87 160.68 C 122.09 162.56 109.80 159.61 99.80 153.22 C 97.57 151.57 94.59 151.91 92.41 153.44 C 81.58 160.04 68.32 163.02 55.80 160.35 C 33.13 156.00 14.28 134.46 15.12 111.01 C 15.28 86.69 14.73 62.36 15.22 38.06 C 15.24 31.53 25.82 31.45 25.93 37.96 C 26.52 62.65 25.91 87.38 26.31 112.08 C 26.63 122.78 31.24 133.49 39.52 140.43 C 52.63 151.69 73.70 153.54 87.74 142.95 C 80.38 133.60 75.97 121.97 76.12 110.01 C 76.21 88.98 76.07 67.94 76.25 46.92 M 87.40 47.99 C 87.05 68.66 87.27 89.34 87.30 110.02 C 87.11 119.06 90.04 128.21 95.89 135.16 C 101.23 128.30 104.48 119.74 104.29 110.98 C 104.21 90.32 104.42 69.66 104.24 49.00 C 104.52 44.58 101.72 39.41 96.86 39.26 C 91.82 38.58 87.37 43.05 87.40 47.99 Z" />
</g>
</svg>
