<?xml version="1.0" encoding="UTF-8" ?>
<!DOCTYPE svg PUBLIC "-//W3C//DTD SVG 1.1//EN" "http://www.w3.org/Graphics/SVG/1.1/DTD/svg11.dtd">
<svg width="192pt" height="192pt" viewBox="0 0 192 192" version="1.1" xmlns="http://www.w3.org/2000/svg">
<g id="#1ab1ffff">
<path fill="#1ab1ff" opacity="1.00" d=" M 30.52 46.60 C 50.66 18.33 90.13 6.37 122.69 18.24 C 155.05 29.08 178.50 61.79 177.82 96.00 C 178.17 129.07 156.14 160.74 125.16 172.16 C 95.65 183.85 59.82 176.05 37.81 153.20 C 16.29 131.92 8.12 97.97 18.53 69.45 C 22.07 63.45 31.48 69.10 28.27 75.17 C 17.90 107.24 34.41 144.94 64.93 159.15 C 94.84 174.45 134.57 164.24 153.51 136.54 C 167.21 117.66 170.35 91.82 161.82 70.13 C 152.30 44.79 127.13 26.21 100.01 25.07 C 78.66 23.64 56.85 32.67 42.93 48.96 C 41.90 49.98 42.35 51.69 43.50 52.41 C 54.18 61.43 65.54 69.70 75.95 79.02 C 83.10 86.95 77.95 97.80 77.83 107.07 C 78.35 112.87 86.44 113.76 89.69 109.70 C 94.46 104.52 90.47 95.48 95.93 90.85 C 99.54 89.59 104.38 89.18 107.73 91.30 C 110.60 96.83 105.73 103.40 107.92 109.14 C 110.79 114.55 119.44 112.24 120.90 106.84 C 122.29 100.64 122.70 94.25 123.75 87.99 C 124.35 80.61 134.52 81.13 139.28 83.91 C 138.78 91.99 137.61 100.04 136.18 108.00 C 132.57 124.23 110.21 134.30 97.15 122.31 C 91.20 126.73 83.38 128.84 76.09 126.95 C 67.46 124.78 61.39 115.71 62.35 106.91 C 62.98 100.37 64.38 93.92 64.85 87.37 C 53.62 79.75 44.00 70.05 33.58 61.40 C 29.14 58.06 27.60 51.41 30.52 46.60 Z" />
</g>
</svg>
