<?xml version="1.0" encoding="UTF-8" ?>
<!DOCTYPE svg PUBLIC "-//W3C//DTD SVG 1.1//EN" "http://www.w3.org/Graphics/SVG/1.1/DTD/svg11.dtd">
<svg width="192pt" height="192pt" viewBox="0 0 192 192" version="1.1" xmlns="http://www.w3.org/2000/svg">
<g id="#ff3662ff">
<path fill="#ff3662" opacity="1.00" d=" M 88.94 18.90 C 92.80 13.34 102.12 13.50 105.79 19.19 C 109.39 24.92 112.27 31.07 115.86 36.82 C 122.65 34.30 129.26 31.31 136.13 29.01 C 142.44 26.99 149.61 32.36 149.42 38.99 C 149.03 46.08 147.97 53.12 147.71 60.23 C 154.12 61.42 160.61 62.32 166.93 63.93 C 172.86 65.49 176.13 72.94 173.32 78.37 C 169.41 85.09 162.27 89.89 159.10 96.87 C 163.11 103.29 169.14 108.28 173.28 114.64 C 176.57 120.23 173.08 128.29 166.75 129.69 C 160.38 130.90 153.88 131.26 147.47 132.20 C 147.32 139.46 147.63 146.74 147.37 154.00 C 147.07 160.64 139.37 165.40 133.28 162.82 C 126.86 159.90 121.07 155.74 114.57 152.98 C 111.21 159.17 108.13 165.52 104.64 171.64 C 101.09 177.92 90.90 178.16 87.12 171.98 C 83.43 165.71 80.47 159.03 76.93 152.68 C 70.33 155.71 64.12 159.56 57.48 162.51 C 50.75 165.51 42.44 159.27 43.33 152.00 C 44.05 144.72 45.46 137.52 46.27 130.25 C 39.03 128.93 31.70 128.10 24.51 126.52 C 17.47 124.76 14.62 114.91 19.64 109.65 C 24.89 104.31 30.72 99.55 35.90 94.13 C 31.62 89.40 26.86 85.11 22.68 80.29 C 18.19 74.92 21.10 65.68 27.90 63.94 C 33.99 62.52 40.23 61.76 46.40 60.73 C 45.97 53.14 44.78 45.60 44.46 38.01 C 44.33 31.40 51.62 26.13 57.87 28.29 C 64.74 30.76 71.35 33.93 78.17 36.55 C 81.69 30.63 85.04 24.58 88.94 18.90 M 97.18 26.87 C 93.85 32.04 90.85 37.41 87.68 42.67 C 85.26 47.05 79.48 49.27 74.82 47.30 C 68.50 44.88 62.31 42.13 56.04 39.59 C 56.19 46.75 57.42 53.84 57.74 60.99 C 58.10 65.92 54.29 70.63 49.47 71.53 C 43.88 72.66 38.21 73.35 32.61 74.45 C 36.64 78.73 40.90 82.82 44.82 87.22 C 48.27 90.92 48.37 97.19 44.95 100.95 C 40.08 106.25 34.57 110.92 29.42 115.94 C 35.88 117.22 42.42 118.06 48.89 119.30 C 54.27 120.14 58.46 125.60 57.59 131.04 C 56.81 137.79 55.58 144.48 54.78 151.22 C 60.95 148.34 66.83 144.87 72.97 141.94 C 77.76 139.60 84.01 141.75 86.47 146.45 C 89.71 152.31 92.47 158.44 95.78 164.27 C 99.06 158.35 101.94 152.22 105.44 146.43 C 108.00 142.00 114.02 140.20 118.64 142.34 C 124.70 145.01 130.31 148.57 136.15 151.67 C 136.18 144.78 135.97 137.87 136.24 130.98 C 136.37 126.18 140.23 121.81 144.99 121.13 C 150.79 120.25 156.66 119.82 162.47 118.97 C 158.22 113.76 153.73 108.75 149.48 103.54 C 146.48 100.04 146.06 94.55 148.77 90.77 C 152.90 85.04 157.79 79.89 162.24 74.40 C 156.53 73.13 150.73 72.32 144.98 71.25 C 140.14 70.48 136.45 65.85 136.50 61.00 C 136.43 54.05 137.53 47.16 137.92 40.23 C 131.80 42.73 125.65 45.18 119.46 47.51 C 114.92 49.47 109.27 47.57 106.67 43.42 C 103.22 38.07 100.48 32.30 97.18 26.87 Z" />
<path fill="#ff3662" opacity="1.00" d=" M 77.24 82.17 C 89.35 80.93 101.77 81.81 113.99 81.71 C 120.09 81.82 120.76 91.79 114.72 92.64 C 102.86 93.02 90.94 92.84 79.07 92.73 C 73.63 92.63 72.27 84.19 77.24 82.17 Z" />
<path fill="#ff3662" opacity="1.00" d=" M 78.26 99.34 C 90.40 98.98 102.61 99.00 114.74 99.33 C 120.70 100.37 120.10 110.05 114.04 110.32 C 102.36 110.50 90.66 110.54 78.99 110.30 C 73.05 109.98 72.42 100.42 78.26 99.34 Z" />
</g>
</svg>
