<?xml version="1.0" encoding="UTF-8" ?>
<!DOCTYPE svg PUBLIC "-//W3C//DTD SVG 1.1//EN" "http://www.w3.org/Graphics/SVG/1.1/DTD/svg11.dtd">
<svg width="192pt" height="192pt" viewBox="0 0 192 192" version="1.1" xmlns="http://www.w3.org/2000/svg">
<g id="#ff3660ff">
<path fill="#ff3660" opacity="1.00" d=" M 21.20 45.20 C 30.35 35.87 46.31 34.19 56.85 42.18 C 62.78 46.22 65.41 53.11 68.00 59.48 C 70.32 52.98 73.31 46.28 79.14 42.18 C 91.40 32.74 111.37 36.35 119.04 49.98 C 122.38 56.73 124.83 63.92 127.35 71.00 C 128.85 76.53 120.68 80.11 117.45 75.55 C 113.96 69.01 112.49 61.54 108.89 55.05 C 103.16 45.91 87.82 45.90 82.22 55.19 C 78.91 61.24 77.26 68.06 74.18 74.22 C 71.99 78.62 64.84 78.94 62.38 74.64 C 59.23 68.59 57.11 62.05 54.12 55.92 C 50.68 49.02 41.47 46.46 34.64 49.63 C 26.58 52.48 22.25 62.50 25.74 70.33 C 34.06 90.65 42.37 110.99 50.74 131.29 C 55.14 141.78 69.79 145.73 78.87 138.87 C 85.23 134.84 86.37 126.89 89.77 120.76 C 92.13 116.57 98.90 116.54 101.31 120.69 C 104.95 126.94 105.96 135.31 112.77 139.22 C 121.92 145.59 135.98 141.63 140.39 131.38 C 148.73 111.07 157.10 90.76 165.37 70.43 C 168.68 62.56 164.57 52.38 156.34 49.64 C 149.49 46.38 140.45 49.18 136.91 55.96 C 135.13 60.45 127.57 60.48 125.97 55.88 C 125.05 52.88 127.19 50.13 128.73 47.76 C 135.72 37.92 149.77 34.19 160.74 39.24 C 174.34 44.05 181.33 60.81 176.10 74.07 C 167.89 94.19 159.57 114.26 151.43 134.40 C 147.32 145.21 136.49 153.00 124.96 153.59 C 112.65 154.46 100.62 146.98 95.46 135.86 C 88.41 153.29 64.05 159.22 49.57 147.39 C 45.14 144.05 41.73 139.47 39.74 134.30 C 31.62 114.41 23.43 94.54 15.32 74.64 C 11.12 64.81 13.53 52.65 21.20 45.20 Z" />
</g>
</svg>
