<?xml version="1.0" encoding="UTF-8" ?>
<!DOCTYPE svg PUBLIC "-//W3C//DTD SVG 1.1//EN" "http://www.w3.org/Graphics/SVG/1.1/DTD/svg11.dtd">
<svg width="192pt" height="192pt" viewBox="0 0 192 192" version="1.1" xmlns="http://www.w3.org/2000/svg">
<g id="#18b8c5ff">
<path fill="#18b8c5" opacity="1.00" d=" M 56.04 48.04 C 58.29 36.10 72.57 36.91 81.77 38.21 C 86.42 39.69 86.21 47.32 81.35 48.33 C 76.57 49.04 71.71 48.44 66.89 48.70 C 66.68 63.91 66.71 79.14 67.57 94.33 C 68.36 108.78 81.47 121.47 96.02 121.26 C 119.19 121.55 142.39 122.16 165.55 121.42 C 162.47 107.95 150.71 95.02 135.98 96.11 C 127.17 96.76 117.26 94.18 109.47 99.50 C 105.39 102.03 102.92 106.26 99.49 109.48 C 95.76 112.34 90.11 107.99 91.53 103.65 C 93.23 99.76 96.60 96.96 99.42 93.90 C 90.88 88.10 92.42 76.96 92.87 68.06 C 93.41 64.78 97.07 63.68 99.96 63.95 C 122.30 64.07 144.65 63.78 166.98 64.10 C 173.54 65.36 171.49 73.79 171.38 78.58 C 168.34 84.00 162.74 87.54 158.63 92.17 C 169.54 100.94 177.58 114.52 176.78 128.82 C 174.55 134.10 167.90 132.33 163.39 132.52 C 160.79 141.46 154.43 149.62 145.19 152.22 C 130.96 157.53 114.60 146.99 111.43 132.59 C 104.05 132.39 96.65 132.52 89.31 131.67 C 83.34 131.06 78.50 126.31 72.27 127.22 C 71.91 141.43 59.35 154.02 45.01 153.60 C 31.15 153.35 19.71 141.04 19.05 127.43 C 12.24 126.19 13.66 118.34 15.73 113.67 C 21.05 97.11 39.45 88.40 56.01 90.19 C 56.02 86.99 55.96 83.80 55.86 80.60 C 51.16 82.39 42.64 85.17 40.46 78.67 C 40.15 68.93 40.02 59.10 40.53 49.38 C 43.06 43.01 51.35 46.11 56.04 48.04 M 51.34 71.20 C 57.33 68.64 57.32 59.77 51.47 57.02 C 51.14 61.74 51.24 66.47 51.34 71.20 M 103.51 75.16 C 104.15 78.22 101.77 83.92 106.06 84.79 C 120.95 85.24 135.87 84.78 150.77 84.86 C 154.05 81.72 157.22 78.47 160.27 75.11 C 141.35 75.16 122.43 75.08 103.51 75.16 M 26.09 116.29 C 39.12 116.39 52.15 116.35 65.17 116.30 C 61.91 111.67 59.34 106.58 57.72 101.14 C 45.46 99.74 30.76 103.50 26.09 116.29 M 30.01 127.43 C 30.40 134.94 36.26 142.09 44.04 142.50 C 52.72 143.76 61.58 136.36 61.01 127.42 C 50.68 127.45 40.34 127.42 30.01 127.43 M 122.65 132.67 C 126.99 145.52 147.80 145.83 151.94 132.65 C 142.17 132.62 132.41 132.56 122.65 132.67 Z" />
</g>
</svg>
