<?xml version="1.0" encoding="UTF-8" ?>
<!DOCTYPE svg PUBLIC "-//W3C//DTD SVG 1.1//EN" "http://www.w3.org/Graphics/SVG/1.1/DTD/svg11.dtd">
<svg width="192pt" height="192pt" viewBox="0 0 192 192" version="1.1" xmlns="http://www.w3.org/2000/svg">
<g id="#606f81ff">
<path fill="#606f81" opacity="1.00" d=" M 77.57 49.40 C 74.50 38.45 83.75 26.73 95.00 26.74 C 106.78 25.61 117.48 37.59 114.43 49.19 C 110.45 61.92 105.40 74.31 101.30 87.00 C 107.94 107.39 115.25 127.58 122.19 147.88 C 122.41 150.10 125.72 150.86 126.49 148.58 C 140.09 110.08 153.35 71.46 166.95 32.96 C 168.78 27.33 178.23 30.24 176.47 36.00 C 161.88 77.16 147.09 118.26 132.31 159.34 C 129.93 166.21 119.08 166.20 116.69 159.35 C 109.66 140.08 102.85 120.72 95.90 101.42 C 89.23 120.72 82.24 139.93 75.32 159.14 C 73.10 166.15 62.06 166.30 59.66 159.36 C 44.87 118.39 30.18 77.38 15.58 36.34 C 13.33 30.54 23.01 27.14 24.94 33.02 C 38.58 71.49 51.80 110.12 65.43 148.60 C 66.20 150.83 69.53 150.13 69.74 147.87 C 76.67 127.56 83.96 107.35 90.64 86.98 C 86.53 74.38 81.56 62.04 77.57 49.40 M 87.53 48.62 C 90.30 56.43 92.93 64.31 95.94 72.04 C 99.07 64.02 101.87 55.86 104.65 47.72 C 106.60 41.87 101.21 35.10 95.01 36.17 C 89.01 36.35 85.53 43.30 87.53 48.62 Z" />
</g>
</svg>
