<?xml version="1.0" encoding="UTF-8" ?>
<!DOCTYPE svg PUBLIC "-//W3C//DTD SVG 1.1//EN" "http://www.w3.org/Graphics/SVG/1.1/DTD/svg11.dtd">
<svg width="192pt" height="192pt" viewBox="0 0 192 192" version="1.1" xmlns="http://www.w3.org/2000/svg">
<g id="#18b9c5ff">
<path fill="#18b9c5" opacity="1.00" d=" M 85.33 14.41 C 117.02 9.84 150.25 26.07 166.33 53.69 C 178.65 74.08 181.25 99.93 173.42 122.40 C 163.79 151.08 137.08 173.05 107.05 176.81 C 75.68 181.49 42.62 165.83 26.28 138.69 C 8.34 110.51 10.44 71.42 31.31 45.34 C 44.35 28.49 64.17 17.05 85.33 14.41 M 87.37 25.46 C 63.27 28.11 41.43 44.37 31.54 66.43 C 18.20 94.76 26.76 131.24 51.46 150.54 C 77.40 172.46 119.16 171.18 143.69 147.69 C 167.55 126.64 173.64 88.83 157.74 61.30 C 144.34 36.54 115.31 21.73 87.37 25.46 Z" />
<path fill="#18b9c5" opacity="1.00" d=" M 113.32 52.59 C 124.77 53.43 136.48 59.66 140.90 70.72 C 133.77 64.16 124.45 60.61 114.80 60.31 C 114.45 57.71 113.93 55.14 113.32 52.59 Z" />
<path fill="#18b9c5" opacity="1.00" d=" M 46.53 78.83 C 46.02 67.00 56.83 58.89 67.07 55.73 C 68.43 57.49 69.65 59.34 70.79 61.25 C 61.36 64.92 51.54 69.41 46.53 78.83 Z" />
<path fill="#18b9c5" opacity="1.00" d=" M 128.35 71.33 C 132.92 70.09 135.29 76.08 136.43 79.58 C 137.29 83.19 138.44 90.33 132.96 90.40 C 127.19 86.85 123.93 76.87 128.35 71.33 Z" />
<path fill="#18b9c5" opacity="1.00" d=" M 60.25 79.16 C 68.35 80.21 69.42 96.26 61.92 98.80 C 54.74 96.31 53.99 83.15 60.25 79.16 Z" />
<path fill="#18b9c5" opacity="1.00" d=" M 123.46 113.66 C 128.20 113.91 136.66 110.40 138.22 116.97 C 137.43 129.60 130.76 142.32 119.42 148.50 C 109.25 153.90 96.92 155.21 85.80 152.34 C 72.71 148.79 63.36 136.87 60.45 123.98 C 60.26 122.22 62.58 122.02 63.82 121.68 C 83.47 117.56 103.46 115.30 123.46 113.66 M 88.50 147.51 C 99.29 148.44 110.45 147.10 120.41 142.72 C 110.64 135.65 95.01 136.42 88.50 147.51 Z" />
</g>
</svg>
