<?xml version="1.0" encoding="UTF-8" ?>
<!DOCTYPE svg PUBLIC "-//W3C//DTD SVG 1.1//EN" "http://www.w3.org/Graphics/SVG/1.1/DTD/svg11.dtd">
<svg width="192pt" height="192pt" viewBox="0 0 192 192" version="1.1" xmlns="http://www.w3.org/2000/svg">
<g id="#ff3661ff">
<path fill="#ff3661" opacity="1.00" d=" M 21.09 43.93 C 21.13 32.13 31.22 21.47 43.01 20.83 C 49.68 20.63 56.37 20.74 63.05 20.76 C 65.43 20.37 67.39 22.65 67.11 24.94 C 67.33 50.22 66.93 75.52 67.30 100.80 C 77.88 99.07 86.05 89.09 97.03 88.29 C 107.58 89.86 115.62 98.77 125.93 101.01 C 126.59 78.24 126.08 55.41 126.19 32.62 C 112.59 32.45 98.96 32.85 85.37 32.43 C 79.25 31.32 79.68 21.19 85.99 20.84 C 106.31 20.59 126.65 20.80 146.98 20.74 C 159.45 20.44 170.83 31.44 170.78 43.94 C 170.82 78.31 170.81 112.68 170.79 147.05 C 170.97 159.63 159.61 170.76 147.07 170.53 C 112.71 170.55 78.35 170.60 44.00 170.49 C 31.75 170.30 20.98 159.32 21.08 147.06 C 21.02 112.69 21.01 78.31 21.09 43.93 M 32.93 44.97 C 32.84 78.65 32.88 112.34 32.92 146.02 C 32.54 152.62 38.26 158.78 44.92 158.58 C 78.98 158.60 113.03 158.61 147.08 158.57 C 153.62 158.64 159.35 152.58 158.95 146.06 C 158.95 112.35 158.97 78.64 158.94 44.93 C 159.19 38.83 154.11 33.06 148.00 32.68 C 144.73 32.47 141.44 32.63 138.17 32.61 C 138.08 55.09 138.29 77.58 138.07 100.06 C 138.01 108.81 128.04 115.62 119.92 112.18 C 112.04 108.60 104.71 103.87 96.84 100.27 C 88.38 103.51 80.89 109.13 72.42 112.46 C 64.44 114.93 55.32 108.51 55.28 100.09 C 55.15 77.60 55.31 55.11 55.20 32.62 C 51.13 32.66 47.04 32.37 42.98 32.76 C 37.23 33.65 32.71 39.15 32.93 44.97 Z" />
</g>
</svg>
