<?xml version="1.0" encoding="UTF-8" ?>
<!DOCTYPE svg PUBLIC "-//W3C//DTD SVG 1.1//EN" "http://www.w3.org/Graphics/SVG/1.1/DTD/svg11.dtd">
<svg width="192pt" height="192pt" viewBox="0 0 192 192" version="1.1" xmlns="http://www.w3.org/2000/svg">
<g id="#18b7c5ff">
<path fill="#18b7c5" opacity="1.00" d=" M 24.23 20.23 C 26.87 18.87 29.80 20.33 31.56 22.41 C 48.00 38.98 64.74 55.27 81.06 71.96 C 85.41 77.07 77.27 84.05 72.75 79.33 C 56.10 62.95 39.66 46.34 23.10 29.86 C 19.95 27.41 20.37 21.74 24.23 20.23 Z" />
<path fill="#18b7c5" opacity="1.00" d=" M 160.96 20.91 C 165.70 16.64 172.98 23.93 168.84 28.72 C 146.86 51.02 124.53 73.01 102.38 95.16 C 123.53 116.50 144.90 137.61 166.16 158.84 C 168.29 161.06 171.51 163.34 170.79 166.87 C 170.25 171.26 164.14 173.19 161.19 169.85 C 137.59 146.44 114.09 122.91 90.59 99.40 C 88.02 97.17 88.16 92.94 90.76 90.80 C 114.18 67.52 137.44 44.07 160.96 20.91 Z" />
<path fill="#18b7c5" opacity="1.00" d=" M 73.47 110.48 C 78.47 106.61 85.26 114.32 80.81 118.80 C 63.71 136.03 46.57 153.25 29.22 170.22 C 24.47 174.82 16.88 167.18 21.33 162.42 C 38.63 145.04 55.91 127.60 73.47 110.48 Z" />
</g>
</svg>
