<?xml version="1.0" encoding="UTF-8" ?>
<!DOCTYPE svg PUBLIC "-//W3C//DTD SVG 1.1//EN" "http://www.w3.org/Graphics/SVG/1.1/DTD/svg11.dtd">
<svg width="192pt" height="192pt" viewBox="0 0 192 192" version="1.1" xmlns="http://www.w3.org/2000/svg">
<g id="#44e372ff">
<path fill="#44e372" opacity="1.00" d=" M 69.14 18.20 C 95.43 8.93 126.39 14.24 147.74 32.26 C 150.53 34.68 149.45 39.84 145.89 40.88 C 129.58 46.08 115.37 56.51 103.60 68.74 C 122.28 90.84 136.66 116.17 149.00 142.24 C 169.39 119.95 172.31 84.22 156.25 58.70 C 152.21 53.57 160.04 46.58 164.61 51.34 C 178.76 72.02 181.52 99.66 173.14 123.14 C 163.33 151.50 136.74 173.11 106.94 176.82 C 76.35 181.35 44.15 166.55 27.46 140.57 C 14.61 121.25 10.75 96.34 16.94 74.00 C 23.76 48.31 43.98 26.74 69.14 18.20 M 61.88 33.57 C 74.44 40.79 85.89 49.81 95.93 60.25 C 106.28 49.85 118.19 41.09 131.16 34.26 C 110.18 22.17 83.11 21.98 61.88 33.57 M 25.36 92.96 C 24.57 110.38 30.62 128.01 41.99 141.25 C 54.47 115.27 69.34 90.31 88.08 68.33 C 77.29 57.35 65.20 47.22 50.95 41.09 C 35.64 53.77 25.85 73.01 25.36 92.96 M 51.91 146.76 C 51.57 147.87 50.37 149.51 51.52 150.48 C 76.18 171.49 115.46 171.33 140.32 150.69 C 128.49 124.51 114.24 99.14 95.73 77.06 C 77.70 97.93 63.80 121.98 51.91 146.76 Z" />
</g>
</svg>
