<?xml version="1.0" encoding="UTF-8" ?>
<!DOCTYPE svg PUBLIC "-//W3C//DTD SVG 1.1//EN" "http://www.w3.org/Graphics/SVG/1.1/DTD/svg11.dtd">
<svg width="192pt" height="192pt" viewBox="0 0 192 192" version="1.1" xmlns="http://www.w3.org/2000/svg">
<g id="#9a9a8cff">
<path fill="#9a9a8c" opacity="1.00" d=" M 19.76 30.26 C 15.87 25.97 21.93 19.54 26.65 22.42 C 30.63 25.26 34.06 28.85 37.92 31.88 C 42.40 28.32 45.57 21.99 51.97 21.82 C 58.80 21.33 62.43 27.97 66.92 31.88 C 71.55 28.08 75.20 21.43 82.03 21.83 C 88.46 21.92 91.78 28.21 96.22 31.86 C 100.69 28.02 104.28 21.48 111.04 21.98 C 117.40 22.11 120.79 28.29 125.19 31.93 C 129.56 28.40 132.78 22.44 138.94 21.99 C 145.89 21.22 149.72 27.87 154.21 31.90 C 158.13 29.32 160.97 25.35 164.90 22.79 C 169.44 20.12 175.71 23.95 175.55 29.16 C 175.81 70.79 175.77 112.42 175.79 154.05 C 176.14 161.91 168.80 168.96 160.98 168.50 C 119.00 168.52 77.02 168.45 35.03 168.42 C 26.62 168.21 17.90 161.91 17.69 152.98 C 17.61 124.99 17.56 96.99 17.72 69.01 C 18.20 62.74 28.37 62.84 28.77 69.07 C 29.07 96.72 28.71 124.39 28.98 152.04 C 28.98 156.03 33.77 157.25 36.99 157.13 C 78.33 157.11 119.67 157.24 161.01 157.19 C 163.32 157.53 165.01 155.14 164.58 153.00 C 164.42 114.88 164.68 76.75 164.23 38.63 C 160.37 41.18 156.90 47.21 151.53 44.53 C 147.04 41.63 143.90 37.04 139.87 33.55 C 134.94 37.05 132.02 43.46 126.02 45.21 C 119.31 44.64 115.93 37.57 110.90 33.90 C 105.02 36.69 102.32 45.76 94.95 45.12 C 89.45 42.72 86.15 37.17 81.65 33.38 C 76.42 37.16 73.06 44.92 65.98 45.13 C 60.14 43.21 57.09 37.09 52.42 33.38 C 47.24 37.56 42.78 46.89 34.91 44.18 C 29.52 39.98 24.70 34.99 19.76 30.26 Z" />
<path fill="#9a9a8c" opacity="1.00" d=" M 104.28 93.39 C 116.44 92.80 128.72 93.12 140.92 93.20 C 146.65 94.16 146.79 103.29 141.01 104.33 C 129.01 104.55 116.99 104.52 104.99 104.34 C 99.44 103.56 98.88 94.87 104.28 93.39 Z" />
<path fill="#9a9a8c" opacity="1.00" d=" M 86.38 112.51 C 104.44 112.27 122.55 112.29 140.62 112.48 C 146.67 113.03 146.90 122.84 140.88 123.61 C 122.71 123.88 104.49 123.83 86.31 123.61 C 80.34 122.88 80.38 113.17 86.38 112.51 Z" />
<path fill="#9a9a8c" opacity="1.00" d=" M 103.37 132.37 C 115.39 130.90 127.84 132.07 140.03 131.76 C 146.40 131.65 147.24 141.87 140.97 142.94 C 129.32 143.37 117.60 143.07 105.93 143.09 C 100.36 143.13 98.32 134.82 103.37 132.37 Z" />
</g>
</svg>
