<?xml version="1.0" encoding="UTF-8" ?>
<!DOCTYPE svg PUBLIC "-//W3C//DTD SVG 1.1//EN" "http://www.w3.org/Graphics/SVG/1.1/DTD/svg11.dtd">
<svg width="192pt" height="192pt" viewBox="0 0 192 192" version="1.1" xmlns="http://www.w3.org/2000/svg">
<g id="#84a099ff">
<path fill="#84a099" opacity="1.00" d=" M 34.23 29.68 C 31.53 25.68 35.32 20.09 40.00 20.71 C 77.33 20.69 114.67 20.65 152.00 20.71 C 156.63 20.12 160.41 25.71 157.71 29.67 C 145.45 51.40 133.01 73.04 120.66 94.73 C 119.91 95.71 120.86 96.81 121.24 97.72 C 133.35 119.00 145.53 140.24 157.54 161.56 C 160.17 165.50 156.64 171.04 152.01 170.57 C 114.39 170.60 76.77 170.62 39.15 170.51 C 34.54 170.81 31.56 164.94 34.21 161.28 C 53.20 128.19 71.62 94.77 90.83 61.82 C 92.83 58.00 99.02 58.15 100.87 62.03 C 105.02 69.10 109.08 76.24 113.03 83.43 C 123.45 66.92 132.69 49.56 142.36 32.56 C 111.41 32.52 80.47 32.49 49.52 32.55 C 55.44 43.87 62.43 54.64 68.20 66.03 C 70.33 71.88 61.28 76.43 57.94 71.10 C 49.83 57.43 42.09 43.51 34.23 29.68 M 95.67 77.03 C 92.42 83.18 88.70 89.07 85.50 95.24 C 88.38 101.80 92.53 107.82 95.95 114.14 C 99.50 108.09 102.89 101.93 106.43 95.87 C 102.99 89.51 99.45 83.20 95.67 77.03 M 49.84 158.53 C 80.58 158.66 111.33 158.54 142.08 158.56 C 132.53 141.60 122.99 124.64 113.21 107.82 C 109.12 114.87 105.22 122.03 101.06 129.03 C 99.17 132.89 92.90 132.90 90.92 129.12 C 86.68 121.91 82.55 114.63 78.50 107.30 C 69.11 124.46 58.72 141.12 49.84 158.53 Z" />
</g>
</svg>
