<?xml version="1.0" encoding="UTF-8" ?>
<!DOCTYPE svg PUBLIC "-//W3C//DTD SVG 1.1//EN" "http://www.w3.org/Graphics/SVG/1.1/DTD/svg11.dtd">
<svg width="192pt" height="192pt" viewBox="0 0 192 192" version="1.1" xmlns="http://www.w3.org/2000/svg">
<g id="#ff5e3cff">
<path fill="#ff5e3c" opacity="1.00" d=" M 54.27 24.97 C 54.28 19.16 62.05 15.79 66.39 19.59 C 75.44 26.53 84.72 33.24 93.47 40.53 C 97.74 44.62 92.01 52.20 86.91 49.18 C 79.58 44.33 72.92 38.52 65.79 33.38 C 65.78 41.55 65.78 49.73 65.79 57.91 C 75.96 57.43 87.05 63.59 88.40 74.41 C 88.97 87.86 88.80 101.37 88.51 114.83 C 87.72 125.92 76.34 133.27 65.77 131.91 C 65.72 140.18 65.74 148.44 65.76 156.71 C 73.19 151.94 79.72 145.87 87.18 141.17 C 92.47 138.50 97.75 146.38 93.28 150.20 C 84.38 157.37 75.19 164.21 66.01 171.00 C 61.51 174.58 53.99 170.77 54.22 165.03 C 54.06 154.09 54.23 143.15 54.16 132.22 C 43.95 132.83 32.74 126.74 31.38 115.85 C 30.81 102.29 30.93 88.68 31.30 75.12 C 32.16 63.99 43.63 56.90 54.16 58.25 C 54.28 47.16 54.04 36.06 54.27 24.97 M 42.58 76.99 C 42.49 88.99 42.56 101.02 42.61 113.03 C 42.58 118.90 49.05 121.77 54.10 120.06 C 54.04 103.33 54.31 86.60 53.97 69.88 C 48.99 68.57 42.79 71.30 42.58 76.99 M 65.70 70.09 C 65.68 86.83 65.66 103.57 65.72 120.32 C 70.30 120.99 76.58 119.53 77.06 114.00 C 77.45 101.67 77.31 89.29 77.13 76.95 C 77.10 71.23 70.63 68.37 65.70 70.09 Z" />
<path fill="#ff5e3c" opacity="1.00" d=" M 111.35 57.41 C 114.22 56.05 116.97 58.15 119.13 59.83 C 132.07 69.92 145.26 79.70 158.11 89.88 C 161.94 92.77 161.58 99.00 157.60 101.59 C 143.97 111.98 130.37 122.43 116.61 132.65 C 113.15 135.61 107.13 132.68 107.67 128.03 C 107.57 106.68 107.90 85.32 107.80 63.97 C 107.62 61.33 108.55 58.26 111.35 57.41 M 119.31 74.32 C 119.35 88.34 119.30 102.36 119.33 116.37 C 128.54 109.44 137.74 102.48 146.89 95.47 C 137.70 88.41 128.49 81.38 119.31 74.32 Z" />
</g>
</svg>
