<?xml version="1.0" encoding="UTF-8" ?>
<!DOCTYPE svg PUBLIC "-//W3C//DTD SVG 1.1//EN" "http://www.w3.org/Graphics/SVG/1.1/DTD/svg11.dtd">
<svg width="192pt" height="192pt" viewBox="0 0 192 192" version="1.1" xmlns="http://www.w3.org/2000/svg">
<g id="#19b0ffff">
<path fill="#19b0ff" opacity="1.00" d=" M 54.36 31.44 C 66.16 29.42 77.94 33.83 87.62 40.34 C 92.52 42.02 98.46 42.04 103.35 40.28 C 113.02 33.76 124.85 29.34 136.64 31.44 C 148.49 33.37 157.92 42.20 163.73 52.30 C 177.36 75.96 178.83 104.38 177.21 131.03 C 176.52 138.91 176.29 147.60 171.04 154.03 C 165.77 160.84 155.24 162.64 148.00 158.00 C 138.26 152.04 130.68 143.29 123.07 134.93 C 121.87 133.37 119.84 133.24 118.04 133.29 C 102.69 133.33 87.33 133.29 71.98 133.30 C 70.16 133.11 68.50 133.96 67.38 135.36 C 59.94 143.56 52.48 152.08 42.96 157.94 C 35.55 162.75 24.67 160.72 19.52 153.54 C 14.23 146.56 14.32 137.40 13.56 129.07 C 12.26 104.16 13.80 77.95 25.45 55.39 C 31.26 43.99 41.23 33.55 54.36 31.44 M 56.37 42.46 C 47.21 43.99 40.46 51.41 36.19 59.20 C 23.32 83.49 23.09 112.25 25.81 138.96 C 25.95 144.13 29.68 151.24 35.88 148.95 C 45.73 143.54 52.73 134.35 60.39 126.36 C 63.48 123.48 67.74 121.94 71.96 122.04 C 87.65 122.03 103.35 122.02 119.04 122.02 C 123.74 121.93 128.44 123.93 131.57 127.43 C 138.17 134.77 144.78 142.35 153.03 147.90 C 155.88 150.12 160.49 149.68 162.53 146.59 C 165.35 142.32 165.16 136.97 165.75 132.08 C 167.25 111.41 166.60 90.08 159.73 70.34 C 155.62 59.39 149.41 47.40 137.67 43.25 C 127.39 39.91 116.84 44.74 108.37 50.36 C 98.84 54.18 86.73 54.06 78.21 47.79 C 71.76 43.76 64.02 41.30 56.37 42.46 Z" />
<path fill="#19b0ff" opacity="1.00" d=" M 119.41 66.58 C 125.43 64.84 131.58 71.43 129.29 77.31 C 127.52 83.57 118.08 84.89 114.59 79.45 C 111.13 74.96 113.85 67.66 119.41 66.58 Z" />
<path fill="#19b0ff" opacity="1.00" d=" M 52.34 73.04 C 55.77 71.65 59.51 71.98 62.96 73.09 C 63.10 76.56 63.13 80.03 63.06 83.51 C 66.26 83.59 69.46 83.40 72.66 83.59 C 75.70 86.33 75.09 91.05 73.19 94.28 C 69.69 94.20 66.19 94.26 62.68 94.23 C 62.72 97.68 62.65 101.12 62.63 104.57 C 59.40 105.91 54.69 106.93 52.12 103.93 C 51.85 100.70 52.01 97.44 51.92 94.20 C 48.57 94.27 45.23 94.21 41.89 94.24 C 40.09 90.88 40.06 86.90 41.78 83.51 C 45.32 83.59 48.86 83.58 52.40 83.43 C 52.33 79.97 52.38 76.51 52.34 73.04 Z" />
<path fill="#19b0ff" opacity="1.00" d=" M 138.37 79.40 C 144.00 76.35 151.55 81.66 150.37 88.01 C 149.79 93.93 142.09 97.33 137.35 93.69 C 132.20 90.48 132.80 81.85 138.37 79.40 Z" />
<path fill="#19b0ff" opacity="1.00" d=" M 119.29 89.34 C 124.80 87.70 130.73 92.99 129.63 98.65 C 128.97 105.10 120.07 108.04 115.61 103.41 C 110.90 99.28 113.14 90.61 119.29 89.34 Z" />
</g>
</svg>
