<?xml version="1.0" encoding="UTF-8" ?>
<!DOCTYPE svg PUBLIC "-//W3C//DTD SVG 1.1//EN" "http://www.w3.org/Graphics/SVG/1.1/DTD/svg11.dtd">
<svg width="192pt" height="192pt" viewBox="0 0 192 192" version="1.1" xmlns="http://www.w3.org/2000/svg">
<g id="#18b8c5ff">
<path fill="#18b8c5" opacity="1.00" d=" M 88.51 13.73 C 116.32 10.87 145.40 23.45 161.68 46.26 C 164.53 51.98 155.74 57.19 152.11 51.94 C 138.85 34.91 117.65 24.34 96.01 24.60 C 74.38 24.49 53.37 35.15 40.10 52.11 C 36.30 57.24 27.80 51.45 30.91 46.01 C 44.27 27.67 65.95 15.77 88.51 13.73 Z" />
<path fill="#18b8c5" opacity="1.00" d=" M 85.44 63.60 C 94.70 63.11 104.59 61.95 113.40 65.52 C 121.47 69.64 121.12 80.22 121.24 88.00 C 120.63 99.84 122.69 112.04 119.55 123.61 C 117.54 131.24 108.82 133.20 101.97 133.31 C 93.86 133.24 85.07 134.36 77.65 130.35 C 71.27 126.30 71.13 117.73 70.90 110.99 C 71.23 99.29 70.05 87.47 71.76 75.85 C 72.46 68.85 78.63 63.97 85.44 63.60 M 87.33 73.47 C 82.53 74.41 82.11 80.04 81.95 83.99 C 81.85 93.67 81.81 103.36 81.98 113.04 C 82.16 116.76 82.66 121.96 87.10 122.92 C 92.64 124.13 98.51 123.89 104.12 123.18 C 108.62 122.71 110.03 117.86 110.09 114.03 C 110.34 104.03 110.20 94.01 110.17 84.01 C 109.97 80.25 109.75 74.95 105.38 73.65 C 99.51 72.26 93.24 72.36 87.33 73.47 Z" />
<path fill="#18b8c5" opacity="1.00" d=" M 143.44 63.59 C 151.39 62.97 159.66 62.42 167.44 64.56 C 176.07 66.99 177.05 78.18 175.45 85.45 C 172.43 86.68 168.57 86.67 165.57 85.40 C 164.20 81.17 166.56 73.71 160.23 72.90 C 154.58 72.68 147.59 71.00 142.85 74.78 C 140.85 79.64 139.85 88.83 146.62 90.36 C 154.72 93.15 163.48 94.02 171.20 97.84 C 176.85 100.55 177.23 107.55 177.26 113.01 C 177.21 118.75 177.36 125.59 172.80 129.82 C 167.73 133.59 161.01 133.37 155.00 133.46 C 148.64 133.38 141.56 133.77 136.13 129.90 C 131.77 125.95 131.59 119.47 131.59 113.99 C 131.12 108.63 138.10 110.22 141.41 110.61 C 144.39 113.85 140.70 120.25 145.19 122.89 C 149.87 124.75 155.13 123.92 160.05 123.87 C 168.34 123.50 166.86 112.37 164.99 106.97 C 155.50 100.99 142.57 102.59 133.74 95.27 C 129.15 89.08 130.35 80.45 131.36 73.29 C 132.22 67.39 137.88 63.98 143.44 63.59 Z" />
<path fill="#18b8c5" opacity="1.00" d=" M 14.16 64.26 C 17.87 64.26 23.22 62.43 25.46 66.44 C 30.18 74.66 34.55 83.08 39.34 91.25 C 44.05 82.98 48.50 74.54 53.25 66.28 C 55.43 62.43 60.59 64.42 64.16 64.07 C 64.68 65.35 64.81 66.73 63.96 67.92 C 58.50 77.92 52.89 87.83 47.45 97.84 C 53.24 108.65 59.62 119.17 65.13 130.11 C 64.64 134.15 57.36 132.92 54.58 131.47 C 49.01 122.82 44.51 113.49 39.23 104.64 C 34.49 113.10 29.81 121.59 25.01 130.01 C 22.83 134.10 17.46 132.18 13.76 132.32 C 13.48 130.97 13.44 129.55 14.26 128.37 C 19.85 118.20 25.60 108.11 31.12 97.90 C 25.89 87.93 20.23 78.18 14.86 68.29 C 14.07 67.08 14.01 65.65 14.16 64.26 Z" />
<path fill="#18b8c5" opacity="1.00" d=" M 38.27 141.26 C 40.91 140.40 43.39 142.01 45.05 143.95 C 57.16 156.80 74.28 164.78 91.91 165.77 C 112.07 167.08 132.72 159.35 146.71 144.71 C 148.57 142.76 150.88 140.31 153.87 141.12 C 157.72 141.83 159.77 147.07 157.09 150.05 C 143.86 165.06 124.80 174.68 104.91 176.74 C 79.35 179.66 52.68 169.61 35.57 150.35 C 32.85 147.50 34.46 142.20 38.27 141.26 Z" />
</g>
</svg>
