<?xml version="1.0" encoding="UTF-8" ?>
<!DOCTYPE svg PUBLIC "-//W3C//DTD SVG 1.1//EN" "http://www.w3.org/Graphics/SVG/1.1/DTD/svg11.dtd">
<svg width="192pt" height="192pt" viewBox="0 0 192 192" version="1.1" xmlns="http://www.w3.org/2000/svg">
<g id="#1ab1ffff">
<path fill="#1ab1ff" opacity="1.00" d=" M 33.72 25.00 C 33.72 17.56 40.62 11.17 48.02 11.56 C 80.01 11.54 112.00 11.54 143.99 11.54 C 151.24 11.31 158.12 17.56 157.98 24.93 C 158.11 70.30 157.99 115.67 158.04 161.04 C 158.50 168.61 151.60 175.53 144.04 175.12 C 112.01 175.08 79.97 175.17 47.94 175.07 C 40.67 175.45 33.75 169.37 33.66 162.00 C 33.56 151.68 33.60 141.34 33.65 131.01 C 33.45 124.25 39.19 118.00 45.99 117.82 C 62.09 117.38 78.28 118.14 94.33 117.33 C 97.85 111.99 92.66 103.14 98.59 98.54 C 105.13 93.81 112.07 102.00 118.89 99.87 C 123.65 97.84 123.59 90.22 118.62 88.46 C 111.54 84.96 106.42 95.84 99.33 91.69 C 92.73 87.55 96.63 78.15 95.32 71.70 C 91.82 71.64 88.33 71.63 84.83 71.65 C 86.27 75.54 87.96 79.71 86.73 83.90 C 84.10 94.95 70.03 100.72 60.05 95.89 C 50.84 91.88 47.35 80.58 51.13 71.57 C 46.81 71.49 42.47 71.77 38.15 71.44 C 34.16 71.12 32.10 65.71 34.75 62.74 C 36.66 60.15 40.19 60.74 43.00 60.65 C 48.67 60.80 54.34 60.48 60.01 60.78 C 63.51 60.97 66.11 64.57 65.59 67.96 C 65.50 72.24 61.28 74.88 60.65 78.97 C 59.78 85.07 68.85 90.59 73.01 85.00 C 77.13 81.26 74.64 75.66 72.24 71.74 C 69.38 66.89 73.26 60.00 78.98 60.33 C 86.31 60.53 93.79 59.57 101.02 60.93 C 108.33 63.07 107.12 72.01 107.32 77.93 C 115.89 74.30 126.91 77.10 131.15 85.79 C 135.37 93.45 133.48 104.03 126.55 109.49 C 121.27 113.99 113.61 113.43 107.39 111.53 C 107.81 117.93 107.92 127.38 99.74 128.71 C 83.24 129.72 66.62 128.66 50.08 129.30 C 47.52 129.28 44.92 131.19 45.22 133.97 C 45.10 142.95 45.13 151.94 45.29 160.92 C 45.08 163.01 47.26 163.86 49.00 163.66 C 80.60 163.54 112.22 163.66 143.83 163.53 C 146.76 163.73 146.34 159.94 146.49 157.99 C 146.42 113.98 146.57 69.96 146.41 25.95 C 146.69 23.47 144.02 22.67 142.05 22.87 C 111.35 22.88 80.65 22.85 49.95 22.83 C 48.28 22.93 45.40 22.95 45.36 25.23 C 44.66 32.76 45.72 40.39 44.85 47.90 C 43.75 53.29 35.10 53.21 33.85 47.94 C 33.21 40.33 33.68 32.64 33.72 25.00 Z" />
</g>
</svg>
