<?xml version="1.0" encoding="UTF-8" ?>
<!DOCTYPE svg PUBLIC "-//W3C//DTD SVG 1.1//EN" "http://www.w3.org/Graphics/SVG/1.1/DTD/svg11.dtd">
<svg width="192pt" height="192pt" viewBox="0 0 192 192" version="1.1" xmlns="http://www.w3.org/2000/svg">
<g id="#ff623cff">
<path fill="#ff623c" opacity="1.00" d=" M 14.21 53.94 C 13.89 45.96 21.01 38.67 29.00 38.83 C 63.00 38.79 97.00 38.74 130.99 38.86 C 137.53 38.55 143.82 43.57 144.85 50.04 C 145.41 53.90 145.11 57.81 145.13 61.69 C 151.05 58.77 155.99 53.03 162.99 52.95 C 170.55 52.66 177.27 59.44 177.12 66.97 C 177.19 85.32 177.17 103.68 177.13 122.03 C 177.27 129.14 171.21 135.75 164.05 135.90 C 158.69 136.37 154.01 133.13 150.05 129.93 C 146.75 127.25 148.29 121.37 152.39 120.48 C 156.58 119.36 159.34 123.66 163.00 124.76 C 164.98 124.81 166.09 122.81 165.81 121.03 C 165.75 103.03 165.92 85.02 165.73 67.02 C 166.03 64.86 163.39 63.47 161.68 64.67 C 155.01 68.68 148.70 73.30 141.89 77.08 C 138.76 78.82 134.40 76.58 133.97 73.04 C 133.46 66.07 134.16 59.05 133.66 52.08 C 133.65 50.26 131.43 50.07 130.07 50.11 C 96.69 50.13 63.31 50.11 29.92 50.12 C 27.65 49.75 25.24 51.56 25.51 53.97 C 25.45 81.31 25.50 108.66 25.49 136.00 C 25.08 138.60 27.41 140.87 29.99 140.45 C 63.01 140.50 96.03 140.37 129.04 140.54 C 130.62 140.43 133.28 140.87 133.68 138.77 C 134.34 131.57 133.36 124.28 134.13 117.08 C 135.48 112.03 143.50 112.01 144.84 117.08 C 145.55 124.02 145.00 131.05 145.14 138.03 C 145.39 145.54 138.54 152.18 131.05 151.73 C 97.01 151.70 62.97 151.75 28.94 151.68 C 21.16 151.84 14.15 144.84 14.26 137.06 C 14.22 109.36 14.15 81.65 14.21 53.94 Z" />
<path fill="#ff623c" opacity="1.00" d=" M 75.45 71.66 C 90.87 68.38 106.53 83.30 103.70 98.91 C 102.14 110.69 90.93 120.42 78.95 119.70 C 66.82 119.59 55.85 109.14 55.45 96.95 C 54.40 85.01 63.71 73.56 75.45 71.66 M 78.47 82.57 C 71.50 83.17 65.74 90.00 66.75 97.01 C 67.42 103.83 74.18 109.25 80.97 108.42 C 87.88 107.85 93.55 100.95 92.56 94.05 C 91.95 87.28 85.16 81.93 78.47 82.57 Z" />
</g>
</svg>
