<?xml version="1.0" encoding="UTF-8" ?>
<!DOCTYPE svg PUBLIC "-//W3C//DTD SVG 1.1//EN" "http://www.w3.org/Graphics/SVG/1.1/DTD/svg11.dtd">
<svg width="192pt" height="192pt" viewBox="0 0 192 192" version="1.1" xmlns="http://www.w3.org/2000/svg">
<g id="#a1a97fff">
<path fill="#a1a97f" opacity="1.00" d=" M 81.83 20.86 C 86.84 17.66 93.68 18.12 98.40 21.68 C 105.01 26.51 108.47 34.29 111.33 41.71 C 124.67 46.32 136.54 54.86 144.90 66.25 C 152.54 63.32 161.31 66.48 166.28 72.71 C 176.55 85.31 176.75 105.05 166.97 117.97 C 161.97 124.87 152.75 128.27 144.59 125.31 C 136.72 136.84 124.71 145.21 111.56 149.65 C 108.37 157.17 105.08 165.37 98.05 170.13 C 93.08 173.68 85.94 173.71 80.95 170.18 C 74.58 165.84 71.18 158.59 68.26 151.73 C 48.56 146.91 30.15 133.65 22.58 114.39 C 17.26 101.03 17.99 85.41 24.61 72.64 C 32.76 56.62 48.50 45.27 65.66 40.63 C 66.73 40.17 68.37 40.12 68.75 38.78 C 71.65 31.97 75.25 24.81 81.83 20.86 M 88.46 29.49 C 84.44 31.84 82.37 36.35 80.43 40.39 C 74.72 53.91 72.71 68.65 71.68 83.19 C 70.72 103.62 71.77 124.47 77.86 144.12 C 80.04 150.31 82.36 157.02 87.53 161.37 C 90.47 163.57 93.17 159.89 94.75 157.76 C 101.08 148.10 103.46 136.50 105.39 125.28 C 108.47 104.36 108.37 82.91 104.72 62.08 C 102.77 52.14 100.35 41.92 94.61 33.42 C 93.09 31.61 91.20 28.70 88.46 29.49 M 35.21 75.20 C 28.79 85.98 27.73 99.77 32.71 111.32 C 38.40 124.94 50.90 134.70 64.56 139.57 C 58.08 110.85 58.33 80.71 64.45 51.95 C 52.56 56.28 41.58 64.08 35.21 75.20 M 115.10 54.79 C 120.45 81.65 120.73 109.68 115.04 136.51 C 131.73 129.26 144.76 111.77 143.29 93.06 C 142.27 76.18 129.96 61.84 115.10 54.79 M 150.01 75.53 C 155.28 88.40 155.30 103.06 150.06 115.93 C 153.15 115.82 156.15 114.59 158.07 112.08 C 164.25 104.55 164.93 93.48 161.33 84.64 C 159.41 80.02 155.50 75.27 150.01 75.53 Z" />
<path fill="#a1a97f" opacity="1.00" d=" M 43.44 74.56 C 47.66 71.41 54.41 74.74 54.48 79.99 C 55.10 85.24 48.81 89.36 44.24 86.78 C 39.52 84.63 38.99 77.28 43.44 74.56 Z" />
</g>
</svg>
