<?xml version="1.0" encoding="UTF-8" ?>
<!DOCTYPE svg PUBLIC "-//W3C//DTD SVG 1.1//EN" "http://www.w3.org/Graphics/SVG/1.1/DTD/svg11.dtd">
<svg width="192pt" height="192pt" viewBox="0 0 192 192" version="1.1" xmlns="http://www.w3.org/2000/svg">
<g id="#a51affff">
<path fill="#a51aff" opacity="1.00" d=" M 53.33 32.43 C 57.53 31.86 61.76 31.65 65.99 31.75 C 97.32 32.26 128.66 31.80 159.99 31.81 C 167.55 31.40 175.46 37.03 175.80 44.93 C 176.29 56.48 165.07 65.83 153.96 65.67 C 121.32 65.76 88.66 65.54 56.02 65.69 C 51.53 65.39 46.58 69.17 47.93 74.04 C 48.09 76.65 50.91 76.90 52.94 76.85 C 83.28 76.92 113.63 76.80 143.97 76.91 C 155.04 76.84 165.76 83.16 171.17 92.80 C 177.27 103.03 177.00 116.21 171.80 126.75 C 163.70 144.06 145.05 155.58 125.99 155.49 C 97.33 155.41 68.66 155.61 39.99 155.47 C 33.45 155.75 32.69 145.10 39.10 144.37 C 68.37 143.92 97.68 144.38 126.96 144.12 C 143.81 143.85 160.23 131.67 163.93 115.00 C 167.01 103.18 158.56 89.36 146.03 88.38 C 114.34 87.92 82.64 88.42 50.95 88.08 C 42.87 88.21 36.36 80.91 36.59 72.99 C 35.97 62.89 45.17 54.36 55.04 54.46 C 87.38 54.31 119.73 54.33 152.07 54.45 C 157.44 54.79 163.79 51.80 164.58 45.99 C 164.50 43.26 161.10 43.12 159.07 43.12 C 127.05 43.27 95.02 43.43 63.00 43.11 C 51.48 43.07 38.38 45.24 30.85 54.87 C 24.11 64.09 20.92 77.21 26.13 87.86 C 29.39 94.60 36.46 99.40 44.03 99.37 C 75.30 99.54 106.57 99.19 137.83 99.53 C 148.82 99.65 155.00 113.19 150.34 122.37 C 147.01 129.10 139.47 133.10 132.05 132.81 C 99.69 132.72 67.32 132.86 34.97 132.81 C 29.18 133.07 24.19 138.22 23.90 143.96 C 23.48 146.64 24.36 149.98 22.05 152.00 C 19.64 154.63 14.83 153.84 13.26 150.68 C 9.42 137.39 20.07 122.12 34.05 121.56 C 67.30 121.51 100.57 121.68 133.81 121.36 C 139.24 121.78 143.63 113.62 137.91 110.93 C 105.96 110.24 73.95 110.94 41.98 110.57 C 31.25 109.94 21.35 103.09 16.44 93.60 C 9.13 79.57 12.04 61.75 21.30 49.33 C 28.88 39.31 41.18 34.13 53.33 32.43 Z" />
</g>
</svg>
