<?xml version="1.0" encoding="UTF-8" ?>
<!DOCTYPE svg PUBLIC "-//W3C//DTD SVG 1.1//EN" "http://www.w3.org/Graphics/SVG/1.1/DTD/svg11.dtd">
<svg width="192pt" height="192pt" viewBox="0 0 192 192" version="1.1" xmlns="http://www.w3.org/2000/svg">
<g id="#c34fb2ff">
<path fill="#c34fb2" opacity="1.00" d=" M 68.26 32.25 C 71.60 30.38 76.14 33.17 76.05 36.97 C 76.19 41.78 76.70 46.77 75.50 51.47 C 73.56 56.67 64.75 54.58 65.37 49.02 C 66.17 43.62 62.91 35.86 68.26 32.25 Z" />
<path fill="#c34fb2" opacity="1.00" d=" M 29.97 55.01 C 26.74 50.88 32.18 44.48 36.78 47.24 C 40.81 50.49 44.51 54.29 47.86 58.24 C 50.08 61.94 46.08 65.06 43.26 66.80 C 37.83 64.19 34.10 59.22 29.97 55.01 Z" />
<path fill="#c34fb2" opacity="1.00" d=" M 104.36 47.34 C 108.68 44.47 114.65 50.31 111.71 54.70 C 108.54 58.51 104.96 62.09 101.13 65.25 C 96.63 68.22 90.70 62.17 93.82 57.77 C 97.09 54.09 100.54 50.47 104.36 47.34 Z" />
<path fill="#c34fb2" opacity="1.00" d=" M 62.92 58.84 C 75.23 55.25 89.83 60.87 96.18 72.05 C 98.42 78.29 88.71 81.61 85.93 76.03 C 77.16 63.89 56.13 67.74 52.12 82.12 C 46.63 95.69 61.38 112.89 75.46 105.59 C 79.88 86.28 100.46 72.59 119.99 75.86 C 135.95 77.84 148.80 90.49 153.37 105.54 C 164.41 107.04 174.72 114.80 177.16 126.00 C 181.14 141.01 169.29 157.93 153.56 158.39 C 127.20 158.54 100.82 158.76 74.46 158.33 C 58.94 157.69 47.22 140.94 51.23 126.09 C 51.98 122.09 54.54 118.85 56.16 115.21 C 46.46 109.87 39.81 99.16 40.22 87.98 C 40.06 74.61 49.92 61.96 62.92 58.84 M 85.93 108.99 C 84.74 113.79 85.66 118.85 84.54 123.65 C 83.36 127.26 78.10 128.20 75.63 125.37 C 73.74 123.02 74.17 119.76 73.75 116.96 C 62.90 119.14 57.48 133.62 65.01 142.02 C 69.67 148.25 78.08 147.73 85.00 147.65 C 107.34 147.50 129.68 147.75 152.02 147.43 C 160.90 147.65 168.27 138.68 166.79 130.04 C 165.96 123.62 160.69 118.41 154.46 117.05 C 154.27 119.53 154.76 122.25 153.53 124.52 C 151.34 128.19 144.79 127.62 143.72 123.29 C 142.89 117.90 143.92 112.25 142.06 107.01 C 138.71 95.68 127.83 87.16 116.08 86.42 C 102.40 85.34 88.52 95.37 85.93 108.99 Z" />
<path fill="#c34fb2" opacity="1.00" d=" M 17.26 83.35 C 22.44 82.94 27.75 82.61 32.93 83.22 C 38.11 84.01 37.98 92.74 32.89 93.50 C 27.98 93.81 23.03 93.79 18.13 93.51 C 13.21 92.81 12.71 84.98 17.26 83.35 Z" />
<path fill="#c34fb2" opacity="1.00" d=" M 40.42 111.42 C 44.61 108.33 50.60 114.43 47.72 118.69 C 44.50 122.49 40.90 126.04 37.12 129.29 C 32.55 132.14 26.74 126.18 29.81 121.77 C 33.06 118.06 36.50 114.42 40.42 111.42 Z" />
</g>
</svg>
