<?xml version="1.0" encoding="UTF-8" ?>
<!DOCTYPE svg PUBLIC "-//W3C//DTD SVG 1.1//EN" "http://www.w3.org/Graphics/SVG/1.1/DTD/svg11.dtd">
<svg width="192pt" height="192pt" viewBox="0 0 192 192" version="1.1" xmlns="http://www.w3.org/2000/svg">
<g id="#a61affff">
<path fill="#a61aff" opacity="1.00" d=" M 85.38 14.46 C 105.85 11.71 127.26 16.94 144.10 28.91 C 171.02 47.57 184.70 83.40 176.20 115.17 C 167.31 151.57 131.26 178.29 94.00 177.54 C 70.66 177.53 47.33 177.57 24.00 177.51 C 19.85 177.95 16.52 173.02 18.48 169.35 C 21.09 164.44 24.25 159.84 26.86 154.93 C 29.75 149.42 29.00 142.50 25.54 137.43 C 11.53 114.41 10.41 84.43 22.20 60.27 C 33.78 35.65 58.45 17.94 85.38 14.46 M 61.96 33.91 C 43.04 44.26 29.37 63.73 26.34 85.11 C 23.71 101.76 27.67 119.14 36.56 133.38 C 42.60 143.51 40.85 156.66 33.91 165.89 C 54.27 166.13 74.64 165.94 95.01 165.99 C 118.63 165.94 141.86 153.72 155.09 134.11 C 173.46 108.34 170.02 70.45 148.26 47.73 C 127.15 23.98 89.46 18.23 61.96 33.91 Z" />
<path fill="#a61aff" opacity="1.00" d=" M 69.32 55.43 C 75.67 53.18 82.88 59.19 81.68 65.85 C 81.10 73.08 71.38 76.86 66.03 71.96 C 60.19 67.56 62.22 57.25 69.32 55.43 Z" />
<path fill="#a61aff" opacity="1.00" d=" M 117.34 55.53 C 124.16 52.77 132.04 59.88 129.89 66.94 C 128.51 73.73 119.21 76.56 114.22 71.80 C 108.73 67.37 110.62 57.64 117.34 55.53 Z" />
<path fill="#a61aff" opacity="1.00" d=" M 56.39 97.52 C 81.24 96.92 106.17 97.45 131.05 97.25 C 136.92 96.55 142.48 102.08 141.49 107.99 C 136.92 130.12 114.51 146.44 92.05 144.40 C 71.84 143.31 53.33 127.73 49.27 107.85 C 48.59 103.24 51.89 98.57 56.39 97.52 M 61.00 108.47 C 65.64 123.20 80.54 133.79 95.98 133.25 C 111.00 133.24 125.18 122.79 129.73 108.49 C 106.82 108.46 83.91 108.50 61.00 108.47 Z" />
</g>
</svg>
