<?xml version="1.0" encoding="UTF-8" ?>
<!DOCTYPE svg PUBLIC "-//W3C//DTD SVG 1.1//EN" "http://www.w3.org/Graphics/SVG/1.1/DTD/svg11.dtd">
<svg width="192pt" height="192pt" viewBox="0 0 192 192" version="1.1" xmlns="http://www.w3.org/2000/svg">
<g id="#fa7548ff">
<path fill="#fa7548" opacity="1.00" d=" M 100.41 27.18 C 114.03 18.85 132.78 20.66 144.58 31.40 C 152.40 38.19 156.71 48.35 157.05 58.63 C 150.76 57.27 144.54 55.21 137.99 55.71 C 128.12 56.18 117.99 51.90 112.39 43.58 C 108.67 37.91 105.03 32.19 100.41 27.18 Z" />
<path fill="#fa7548" opacity="1.00" d=" M 72.47 24.69 C 85.40 22.55 99.32 28.50 106.41 39.58 C 110.17 45.58 114.08 52.01 120.71 55.20 C 129.37 60.10 139.77 56.70 148.82 60.15 C 162.59 65.10 172.39 79.38 171.82 94.04 C 171.90 107.82 162.48 120.84 149.61 125.55 C 140.59 129.43 130.22 125.91 121.32 130.30 C 113.84 133.20 109.82 140.41 105.93 146.91 C 96.27 162.12 73.64 166.19 59.00 155.98 C 45.04 146.55 39.25 126.35 47.33 111.32 C 50.87 105.15 54.33 98.40 53.65 91.05 C 53.20 81.77 45.82 74.88 44.21 65.93 C 39.67 47.30 53.53 27.20 72.47 24.69 M 72.37 35.53 C 61.87 37.87 53.50 48.11 54.21 59.01 C 53.63 68.06 60.90 74.73 62.95 83.11 C 66.30 93.79 63.35 105.35 57.62 114.65 C 49.80 126.88 56.45 145.23 70.16 149.80 C 78.14 152.24 87.74 150.84 93.83 144.83 C 98.40 140.48 100.42 134.25 104.66 129.64 C 111.19 122.05 121.02 117.85 130.91 117.27 C 135.83 116.85 140.99 117.61 145.67 115.66 C 154.29 112.59 160.67 104.15 161.19 95.00 C 162.07 84.04 154.67 72.95 144.11 69.81 C 137.11 68.13 129.73 69.51 122.80 67.39 C 112.23 64.64 103.97 56.57 98.74 47.24 C 93.81 38.04 82.52 32.94 72.37 35.53 Z" />
<path fill="#fa7548" opacity="1.00" d=" M 21.02 83.09 C 23.90 73.96 30.92 66.66 39.20 62.10 C 41.59 72.91 50.53 81.52 50.28 93.00 C 50.32 105.71 39.22 114.98 38.90 127.68 C 22.60 120.43 15.20 99.54 21.02 83.09 Z" />
<path fill="#fa7548" opacity="1.00" d=" M 76.58 74.93 C 77.43 71.64 82.82 73.14 85.48 73.57 C 89.61 79.93 92.11 87.30 95.55 94.09 C 99.20 87.42 101.67 80.12 105.62 73.64 C 108.14 72.96 116.01 71.45 114.26 76.09 C 110.48 84.26 106.41 92.30 102.46 100.39 C 98.97 106.10 101.26 113.02 100.46 119.29 C 97.42 119.48 93.68 120.63 91.05 118.84 C 89.99 113.85 91.43 108.63 90.31 103.66 C 85.91 94.00 80.78 84.67 76.58 74.93 Z" />
<path fill="#fa7548" opacity="1.00" d=" M 138.00 129.73 C 144.58 130.26 150.96 128.57 157.16 126.58 C 159.95 142.78 150.55 160.06 135.40 166.43 C 122.93 172.02 107.25 170.16 96.91 161.07 C 102.77 156.45 107.46 150.57 110.89 143.95 C 116.17 134.38 127.24 129.08 138.00 129.73 Z" />
</g>
</svg>
