<?xml version="1.0" encoding="UTF-8" ?>
<!DOCTYPE svg PUBLIC "-//W3C//DTD SVG 1.1//EN" "http://www.w3.org/Graphics/SVG/1.1/DTD/svg11.dtd">
<svg width="192pt" height="192pt" viewBox="0 0 192 192" version="1.1" xmlns="http://www.w3.org/2000/svg">
<g id="#ff3661ff">
<path fill="#ff3661" opacity="1.00" d=" M 90.39 19.99 C 89.93 16.24 91.47 11.29 96.02 11.37 C 100.73 11.16 102.29 16.35 101.77 20.19 C 141.61 22.76 176.03 59.73 173.79 99.90 C 171.95 106.69 163.93 107.93 158.07 109.22 C 142.48 111.54 126.72 113.43 110.95 113.47 C 105.23 113.22 104.24 104.34 109.64 102.65 C 127.36 101.21 145.48 100.99 162.77 96.39 C 162.43 61.84 131.56 31.36 97.05 31.32 C 61.41 29.40 27.66 60.67 28.03 96.57 C 48.54 101.68 69.86 101.67 90.86 102.39 C 94.11 102.54 97.05 105.12 97.39 108.40 C 98.14 123.87 96.74 139.46 98.21 154.89 C 99.21 164.48 113.41 167.21 118.57 159.58 C 121.10 156.17 119.49 151.66 120.96 147.98 C 123.09 143.76 130.05 144.48 131.20 149.09 C 133.22 159.10 127.71 170.59 117.69 173.81 C 105.37 178.72 89.66 171.25 87.33 157.82 C 85.31 143.17 86.78 128.27 86.32 113.52 C 67.60 113.07 48.76 112.39 30.35 108.75 C 25.42 107.56 18.94 106.45 17.25 100.84 C 15.88 94.70 17.24 88.31 18.23 82.20 C 24.98 48.44 56.08 21.91 90.39 19.99 Z" />
</g>
</svg>
