<?xml version="1.0" encoding="UTF-8" ?>
<!DOCTYPE svg PUBLIC "-//W3C//DTD SVG 1.1//EN" "http://www.w3.org/Graphics/SVG/1.1/DTD/svg11.dtd">
<svg width="192pt" height="192pt" viewBox="0 0 192 192" version="1.1" xmlns="http://www.w3.org/2000/svg">
<g id="#a51affff">
<path fill="#a51aff" opacity="1.00" d=" M 16.58 78.61 C 22.31 66.27 34.18 56.38 47.97 54.96 C 62.11 53.46 77.60 57.88 87.14 68.80 C 89.21 73.85 87.90 79.64 88.17 84.99 C 88.91 87.19 85.62 87.99 85.31 85.69 C 76.96 68.81 52.69 60.01 36.83 71.82 C 23.83 80.66 21.01 101.98 33.57 112.42 C 40.88 119.57 53.95 118.05 58.89 108.89 C 51.84 112.51 42.15 112.97 36.92 106.05 C 29.97 98.22 31.65 85.12 39.52 78.53 C 49.26 70.25 65.37 71.71 73.74 81.28 C 83.82 93.02 85.05 109.24 91.00 123.02 C 93.07 127.07 99.72 126.56 101.33 122.36 C 106.82 109.58 108.31 95.04 116.37 83.41 C 124.49 71.96 142.51 69.54 153.12 78.86 C 162.17 86.59 161.66 102.94 151.33 109.34 C 146.14 112.99 139.52 111.44 133.98 109.58 C 137.40 116.34 145.90 118.72 152.68 115.81 C 162.06 112.30 167.37 101.71 166.55 92.04 C 165.69 78.47 153.47 66.82 139.93 66.39 C 125.34 65.85 110.84 74.70 105.10 88.22 C 101.77 83.15 103.74 75.70 103.86 69.81 C 119.12 51.49 150.51 49.18 167.30 66.69 C 180.66 81.10 183.01 107.55 166.97 120.93 C 157.25 129.87 140.91 131.30 130.89 122.11 C 122.52 114.99 121.24 101.01 128.54 92.69 C 129.86 101.55 143.10 104.69 147.24 96.36 C 149.76 91.35 145.39 85.73 140.45 84.57 C 134.29 82.57 127.96 86.54 124.69 91.62 C 117.16 103.33 117.65 118.35 110.03 130.01 C 104.44 138.56 90.75 139.61 83.87 132.12 C 72.43 119.10 76.41 97.91 62.53 86.52 C 55.75 80.38 40.95 86.45 44.70 96.35 C 48.89 104.92 62.14 101.39 63.71 92.59 C 70.65 101.53 69.65 115.48 60.56 122.57 C 48.73 132.75 29.34 128.68 20.83 116.16 C 13.37 105.45 11.06 90.68 16.58 78.61 Z" />
</g>
</svg>
