<?xml version="1.0" encoding="UTF-8" ?>
<!DOCTYPE svg PUBLIC "-//W3C//DTD SVG 1.1//EN" "http://www.w3.org/Graphics/SVG/1.1/DTD/svg11.dtd">
<svg width="192pt" height="192pt" viewBox="0 0 192 192" version="1.1" xmlns="http://www.w3.org/2000/svg">
<g id="#e34e67ff">
<path fill="#e34e67" opacity="1.00" d=" M 93.27 22.27 C 99.47 14.30 110.32 11.69 119.97 12.95 C 123.20 13.49 127.59 13.24 129.19 16.77 C 131.24 20.64 127.49 25.71 123.17 24.58 C 116.00 23.28 107.21 22.92 101.99 28.98 C 96.48 36.06 96.52 45.70 96.94 54.25 C 106.11 53.20 113.27 46.12 122.34 44.45 C 142.84 39.37 164.72 53.26 171.26 72.84 C 174.07 80.51 174.51 88.89 173.31 96.93 C 170.27 118.27 163.57 139.18 152.92 157.96 C 147.80 166.14 141.93 175.42 131.96 177.97 C 123.35 178.96 114.17 177.08 107.07 171.96 C 103.52 169.48 99.55 166.93 95.02 167.32 C 88.51 167.54 84.07 173.00 78.33 175.31 C 72.55 177.64 66.16 178.70 59.95 178.07 C 53.38 176.74 48.23 171.87 44.23 166.75 C 33.78 152.98 27.76 136.52 22.87 120.11 C 17.83 101.85 13.14 80.36 24.52 63.45 C 35.46 45.85 59.56 39.26 78.22 47.76 C 81.71 50.01 81.27 55.86 77.51 57.59 C 74.91 59.18 72.08 57.40 69.59 56.52 C 59.11 52.22 46.69 56.16 38.87 63.87 C 29.52 72.83 26.82 86.95 29.60 99.28 C 33.54 122.19 41.29 145.54 56.63 163.41 C 59.91 168.25 66.66 167.17 71.30 165.23 C 78.80 161.32 86.20 155.94 95.01 155.89 C 103.67 155.65 111.49 160.05 118.62 164.47 C 123.44 167.53 130.53 168.22 134.78 163.80 C 143.16 154.05 148.67 142.23 153.44 130.40 C 158.58 116.54 162.64 101.91 162.57 87.02 C 162.40 70.62 148.56 55.38 131.97 54.77 C 118.44 53.92 108.51 66.56 94.99 65.71 C 90.28 66.03 86.26 61.62 86.29 57.04 C 85.03 45.25 85.62 31.97 93.27 22.27 Z" />
</g>
</svg>
