<?xml version="1.0" encoding="UTF-8" ?>
<!DOCTYPE svg PUBLIC "-//W3C//DTD SVG 1.1//EN" "http://www.w3.org/Graphics/SVG/1.1/DTD/svg11.dtd">
<svg width="192pt" height="192pt" viewBox="0 0 192 192" version="1.1" xmlns="http://www.w3.org/2000/svg">
<g id="#f6af2aff">
<path fill="#f6af2a" opacity="1.00" d=" M 116.25 12.35 C 135.01 9.49 152.91 28.17 150.61 46.71 C 148.99 51.74 140.69 50.33 140.94 44.97 C 140.81 36.04 135.48 27.27 127.08 23.86 C 123.54 22.09 119.41 22.55 115.76 21.19 C 112.05 19.55 112.35 13.55 116.25 12.35 Z" />
<path fill="#f6af2a" opacity="1.00" d=" M 32.06 43.05 C 41.83 19.90 73.24 12.46 93.96 25.04 C 100.07 28.77 105.08 34.17 108.70 40.32 C 110.68 43.33 110.01 47.99 106.62 49.67 C 103.12 51.14 99.22 51.31 95.70 52.78 C 82.01 57.78 71.98 71.35 71.36 85.93 C 71.13 101.29 71.44 116.66 71.26 132.02 C 71.61 136.40 67.48 140.67 63.01 139.29 C 44.64 133.03 30.87 115.89 28.41 96.66 C 27.35 87.92 28.23 79.09 27.83 70.31 C 24.10 67.44 18.63 64.54 19.13 59.02 C 19.96 51.29 30.31 50.34 32.06 43.05 M 42.40 47.37 C 40.80 52.71 37.03 56.76 32.24 59.47 C 35.04 61.76 38.61 64.02 39.00 67.98 C 39.96 79.76 37.38 92.05 41.58 103.41 C 44.65 112.78 51.42 120.73 60.00 125.54 C 60.20 111.66 59.78 97.77 60.24 83.90 C 61.60 64.03 76.37 46.36 95.44 40.93 C 81.90 24.38 51.17 27.33 42.40 47.37 Z" />
<path fill="#f6af2a" opacity="1.00" d=" M 116.26 29.33 C 125.34 27.00 134.56 36.05 134.16 45.05 C 134.00 48.61 129.68 51.58 126.52 49.37 C 123.12 47.46 124.65 42.52 121.64 40.30 C 119.38 38.64 115.91 39.27 114.11 36.89 C 112.13 34.46 113.30 30.35 116.26 29.33 Z" />
<path fill="#f6af2a" opacity="1.00" d=" M 53.40 50.50 C 57.50 47.96 63.33 52.29 61.93 56.95 C 61.24 60.73 56.54 62.95 53.26 60.83 C 49.39 58.76 49.41 52.44 53.40 50.50 Z" />
<path fill="#f6af2a" opacity="1.00" d=" M 97.93 57.84 C 107.03 53.22 117.71 52.79 127.62 54.52 C 141.12 57.43 152.68 67.68 157.49 80.60 C 160.91 85.60 169.02 87.31 169.80 94.14 C 170.32 100.14 164.11 102.97 160.22 106.22 C 159.94 116.30 161.17 126.59 158.50 136.45 C 153.08 157.76 133.14 174.75 110.97 175.50 C 102.66 175.52 94.33 175.74 86.02 175.39 C 79.72 175.00 74.62 169.25 74.74 162.99 C 74.64 140.34 74.68 117.68 74.72 95.03 C 74.87 79.61 84.15 64.75 97.93 57.84 M 87.90 84.87 C 85.04 92.59 86.10 100.96 85.90 109.00 C 86.05 127.35 85.60 145.71 86.15 164.04 C 94.07 164.48 102.02 164.16 109.96 164.23 C 129.50 163.90 146.66 147.12 148.66 127.90 C 149.36 119.93 148.71 111.92 149.05 103.94 C 149.28 99.62 153.31 97.26 156.39 94.93 C 153.21 91.68 148.37 89.74 147.06 84.99 C 142.75 72.28 129.40 63.59 116.02 64.84 C 103.57 64.66 92.10 73.34 87.90 84.87 Z" />
<path fill="#f6af2a" opacity="1.00" d=" M 125.39 78.39 C 129.47 77.57 133.37 82.02 131.98 85.95 C 131.04 90.03 125.33 91.68 122.44 88.57 C 119.00 85.53 120.73 78.99 125.39 78.39 Z" />
</g>
</svg>
