<?xml version="1.0" encoding="UTF-8" ?>
<!DOCTYPE svg PUBLIC "-//W3C//DTD SVG 1.1//EN" "http://www.w3.org/Graphics/SVG/1.1/DTD/svg11.dtd">
<svg width="192pt" height="192pt" viewBox="0 0 192 192" version="1.1" xmlns="http://www.w3.org/2000/svg">
<g id="#ff3660ff">
<path fill="#ff3660" opacity="1.00" d=" M 17.34 53.97 C 17.19 48.80 23.17 44.96 27.85 47.04 C 50.25 55.67 72.54 64.60 94.96 73.20 C 117.06 64.48 139.20 55.85 161.33 47.19 C 166.10 44.76 172.47 48.57 172.34 53.99 C 172.48 69.32 172.40 84.66 172.38 100.00 C 172.59 104.88 169.03 109.23 164.46 110.62 C 150.93 115.72 137.60 121.40 123.99 126.23 C 118.37 127.63 115.14 118.82 120.27 116.22 C 132.70 110.83 145.57 106.41 158.06 101.14 C 160.93 100.04 161.59 96.73 161.40 93.99 C 161.24 83.33 161.60 72.64 161.23 61.99 C 161.01 59.57 158.28 60.08 156.75 60.81 C 140.47 67.21 124.18 73.58 107.88 79.93 C 105.64 80.71 103.18 82.27 103.15 84.93 C 102.72 102.26 103.43 119.63 102.80 136.94 C 101.69 145.42 88.10 145.40 86.87 137.00 C 86.30 119.73 86.93 102.40 86.57 85.12 C 86.59 82.51 84.25 80.79 82.01 80.01 C 65.45 73.59 48.93 67.04 32.37 60.62 C 30.94 59.83 28.29 59.96 28.46 62.13 C 28.16 73.10 28.43 84.09 28.33 95.07 C 28.10 97.57 29.23 100.27 31.70 101.21 C 44.25 106.47 57.18 110.89 69.63 116.35 C 74.71 119.34 70.72 128.18 65.09 126.09 C 51.54 121.03 38.12 115.57 24.63 110.35 C 20.35 108.88 17.14 104.66 17.31 100.07 C 17.28 84.71 17.21 69.33 17.34 53.97 Z" />
</g>
</svg>
