<?xml version="1.0" encoding="UTF-8" ?>
<!DOCTYPE svg PUBLIC "-//W3C//DTD SVG 1.1//EN" "http://www.w3.org/Graphics/SVG/1.1/DTD/svg11.dtd">
<svg width="192pt" height="192pt" viewBox="0 0 192 192" version="1.1" xmlns="http://www.w3.org/2000/svg">
<g id="#17abffff">
<path fill="#17abff" opacity="1.00" d=" M 84.34 24.37 C 99.38 11.57 123.44 15.96 136.57 29.43 C 146.03 38.83 149.26 52.61 148.97 65.57 C 158.00 69.42 161.97 81.73 155.67 89.63 C 153.22 93.88 147.52 93.96 144.84 97.90 C 142.59 100.84 139.38 102.74 136.10 104.32 C 139.11 114.77 130.22 125.14 119.62 124.78 C 113.71 131.78 109.40 140.61 109.57 149.93 C 109.22 160.58 101.65 170.61 91.28 173.38 C 82.20 176.21 72.85 173.15 63.95 171.12 C 54.20 168.58 48.45 158.76 46.59 149.45 C 46.24 142.79 39.69 138.93 38.57 132.45 C 35.98 124.64 39.38 116.14 45.60 111.11 C 44.56 108.42 44.10 105.57 44.16 102.69 C 25.62 82.07 32.38 47.65 53.59 31.62 C 62.28 25.02 73.64 22.66 84.34 24.37 M 98.15 29.16 C 93.49 30.35 90.80 35.36 86.00 35.98 C 80.43 35.42 74.67 34.40 69.21 36.20 C 46.66 43.61 36.29 76.44 52.32 94.69 C 56.26 99.59 63.47 101.09 69.29 99.20 C 72.43 96.33 68.50 92.65 66.08 90.88 C 53.72 82.00 58.49 60.12 72.44 55.46 C 79.42 52.30 87.67 56.64 94.28 52.24 C 101.24 48.08 111.26 45.48 118.31 50.68 C 127.84 58.97 127.34 74.44 120.06 84.02 C 116.12 89.71 109.15 92.59 105.90 98.84 C 102.55 104.50 103.71 112.01 98.99 116.98 C 94.85 122.07 87.56 123.12 81.59 121.10 C 90.76 118.81 92.46 109.29 96.10 102.11 C 104.03 93.56 111.30 83.86 114.43 72.44 C 115.81 67.40 114.35 61.13 109.39 58.63 C 104.38 56.27 99.47 60.78 98.58 65.58 C 96.06 72.28 100.37 81.24 94.43 86.46 C 87.26 88.21 84.52 79.06 81.78 74.17 C 79.14 67.50 68.26 64.31 64.32 71.36 C 61.35 78.65 68.94 84.66 74.94 87.12 C 82.20 90.09 88.53 99.21 83.78 106.76 C 80.95 112.32 72.64 109.72 69.91 115.18 C 68.67 120.16 71.07 126.05 67.49 130.45 C 64.51 134.95 56.28 131.19 57.62 126.03 C 58.75 121.52 64.08 119.00 63.88 113.95 C 64.44 108.82 59.81 105.44 55.39 104.23 C 56.65 107.50 58.68 111.22 56.82 114.69 C 54.90 119.55 47.99 121.91 49.14 127.94 C 49.37 134.17 56.63 136.92 56.88 143.06 C 57.84 149.53 59.85 157.80 66.81 160.16 C 73.87 161.70 81.22 164.51 88.46 162.42 C 93.93 160.86 97.80 155.60 98.20 150.01 C 98.20 137.00 104.33 124.42 113.20 115.14 C 116.29 111.30 123.53 115.41 125.09 109.87 C 124.91 106.61 121.85 103.36 124.17 100.06 C 126.60 93.06 136.04 94.38 138.35 87.31 C 139.67 83.05 145.69 85.73 147.19 81.83 C 148.60 78.50 144.85 74.90 141.59 76.47 C 138.97 78.27 137.16 80.98 134.81 83.09 C 137.99 70.48 139.57 56.42 133.59 44.36 C 127.33 31.76 111.51 25.33 98.15 29.16 Z" />
</g>
</svg>
