<?xml version="1.0" encoding="UTF-8" ?>
<!DOCTYPE svg PUBLIC "-//W3C//DTD SVG 1.1//EN" "http://www.w3.org/Graphics/SVG/1.1/DTD/svg11.dtd">
<svg width="192pt" height="192pt" viewBox="0 0 192 192" version="1.1" xmlns="http://www.w3.org/2000/svg">
<g id="#df8567ff">
<path fill="#df8567" opacity="1.00" d=" M 39.29 21.35 C 42.47 20.61 45.76 20.72 49.00 20.73 C 81.99 20.76 114.99 20.68 147.98 20.75 C 160.16 20.79 170.93 31.77 170.82 43.94 C 170.92 78.66 171.00 113.35 170.81 148.07 C 170.53 159.99 159.88 170.44 147.95 170.53 C 113.32 170.62 78.68 170.59 44.04 170.52 C 31.70 170.49 20.87 159.38 21.05 147.07 C 21.01 112.69 21.01 78.31 21.08 43.93 C 21.05 33.40 29.04 23.61 39.29 21.35 M 32.32 44.94 C 32.34 78.99 32.30 113.03 32.35 147.08 C 32.21 153.74 38.40 159.53 45.00 159.23 C 79.01 159.24 113.01 159.23 147.01 159.19 C 153.63 159.48 159.60 153.58 159.56 146.99 C 159.68 138.04 159.57 129.09 159.60 120.14 C 138.75 119.44 117.85 120.15 96.99 119.70 C 84.44 118.73 74.32 106.41 75.48 93.93 C 76.10 81.90 86.83 71.42 98.93 71.40 C 119.07 71.37 139.21 71.20 159.35 71.42 C 159.95 62.62 159.46 53.76 159.60 44.94 C 159.98 38.15 153.96 31.64 147.04 32.11 C 112.68 32.16 78.31 32.08 43.94 32.15 C 37.36 32.10 31.86 38.48 32.32 44.94 M 86.55 96.01 C 86.65 102.93 92.96 109.06 99.93 108.69 C 119.82 108.70 139.71 108.69 159.60 108.66 C 159.59 99.94 159.67 91.23 159.55 82.51 C 139.37 82.55 119.19 82.44 99.01 82.52 C 92.12 82.68 86.20 89.14 86.55 96.01 Z" />
<path fill="#df8567" opacity="1.00" d=" M 100.33 88.39 C 108.67 87.59 109.47 101.46 101.01 101.44 C 92.68 102.24 91.95 88.47 100.33 88.39 Z" />
</g>
</svg>
