<?xml version="1.0" encoding="UTF-8" ?>
<!DOCTYPE svg PUBLIC "-//W3C//DTD SVG 1.1//EN" "http://www.w3.org/Graphics/SVG/1.1/DTD/svg11.dtd">
<svg width="192pt" height="192pt" viewBox="0 0 192 192" version="1.1" xmlns="http://www.w3.org/2000/svg">
<g id="#1db7ffff">
<path fill="#1db7ff" opacity="1.00" d=" M 45.34 22.98 C 45.37 17.14 54.91 16.16 56.09 21.89 C 57.50 32.66 61.45 43.81 70.22 50.78 C 81.26 59.59 96.86 59.71 109.88 55.90 C 122.80 52.15 132.04 40.06 133.95 26.98 C 134.54 24.01 134.30 20.05 137.51 18.53 C 141.18 16.42 146.26 19.77 145.68 23.98 C 144.72 37.80 138.06 51.50 126.77 59.77 C 119.26 65.42 110.00 68.15 100.77 69.20 C 100.80 82.80 100.76 96.40 100.81 110.00 C 124.02 112.76 137.97 137.22 137.04 158.91 C 135.70 163.96 127.53 163.86 126.37 158.77 C 125.39 149.96 123.60 140.92 118.52 133.45 C 110.41 120.53 90.85 116.73 78.47 125.54 C 68.67 133.22 65.43 146.19 64.03 157.99 C 63.63 163.71 54.60 164.26 53.23 158.81 C 52.82 137.29 65.79 111.59 89.60 109.66 C 89.54 96.25 89.60 82.84 89.57 69.43 C 82.30 68.75 75.00 67.06 68.65 63.33 C 54.47 55.22 46.30 38.93 45.34 22.98 Z" />
<path fill="#1db7ff" opacity="1.00" d=" M 88.34 128.44 C 102.19 123.50 118.30 135.33 117.69 150.01 C 118.02 161.41 108.30 171.79 96.96 172.46 C 85.75 173.65 74.63 165.14 72.88 154.01 C 70.63 143.16 77.74 131.53 88.34 128.44 Z" />
</g>
</svg>
