<?xml version="1.0" encoding="UTF-8" ?>
<!DOCTYPE svg PUBLIC "-//W3C//DTD SVG 1.1//EN" "http://www.w3.org/Graphics/SVG/1.1/DTD/svg11.dtd">
<svg width="192pt" height="192pt" viewBox="0 0 192 192" version="1.1" xmlns="http://www.w3.org/2000/svg">
<g id="#ff527dff">
<path fill="#ff527d" opacity="1.00" d=" M 114.38 16.44 C 117.71 14.32 122.62 17.03 122.61 20.97 C 122.75 30.32 122.69 39.67 122.65 49.02 C 122.81 52.04 120.05 54.83 117.02 54.62 C 103.40 54.63 89.76 54.75 76.14 54.54 C 71.42 54.22 69.64 47.21 73.60 44.63 C 87.15 35.18 100.70 25.69 114.38 16.44 Z" />
<path fill="#ff527d" opacity="1.00" d=" M 63.07 67.94 C 62.58 64.49 65.42 61.04 68.98 61.32 C 75.20 61.33 81.45 61.09 87.66 61.44 C 92.93 62.10 93.89 70.24 88.87 72.07 C 84.16 73.10 79.20 72.28 74.39 72.51 C 74.29 103.02 74.47 133.53 74.31 164.04 C 88.72 164.36 103.19 164.45 117.59 163.98 C 117.29 133.48 117.74 102.97 117.38 72.47 C 115.87 72.52 114.36 72.56 112.86 72.58 C 112.59 76.84 113.42 81.25 112.34 85.40 C 110.19 90.75 101.22 88.85 101.61 83.01 C 102.01 75.91 100.56 68.29 102.39 61.52 C 109.24 60.99 116.16 61.32 123.03 61.33 C 126.99 61.29 129.01 65.43 128.76 68.92 C 128.87 102.30 128.79 135.68 128.82 169.06 C 129.31 172.41 126.45 175.76 123.02 175.52 C 105.01 175.59 87.00 175.57 68.99 175.52 C 65.51 175.79 62.63 172.46 63.03 169.07 C 63.02 135.36 63.05 101.65 63.07 67.94 Z" />
<path fill="#ff527d" opacity="1.00" d=" M 105.39 91.46 C 109.27 89.93 113.73 93.81 112.77 97.86 C 112.22 101.89 106.82 103.95 103.74 101.24 C 100.23 98.75 101.27 92.67 105.39 91.46 Z" />
</g>
</svg>
