<?xml version="1.0" encoding="UTF-8" ?>
<!DOCTYPE svg PUBLIC "-//W3C//DTD SVG 1.1//EN" "http://www.w3.org/Graphics/SVG/1.1/DTD/svg11.dtd">
<svg width="192pt" height="192pt" viewBox="0 0 192 192" version="1.1" xmlns="http://www.w3.org/2000/svg">
<g id="#f03abeff">
<path fill="#f03abe" opacity="1.00" d=" M 132.04 15.04 C 136.27 11.64 143.33 14.66 143.78 20.07 C 144.18 29.73 143.83 39.42 143.97 49.09 C 145.38 50.45 147.38 51.72 147.27 53.97 C 147.61 65.05 147.24 76.14 147.46 87.23 C 155.84 90.62 154.47 100.69 154.02 107.97 C 153.57 112.64 146.43 113.68 144.50 109.50 C 143.20 105.60 144.00 101.35 143.74 97.30 C 132.43 97.32 121.12 97.29 109.81 97.30 C 109.78 120.10 109.79 142.90 109.86 165.70 C 116.59 165.73 123.32 165.73 130.05 165.69 C 130.25 147.82 129.94 129.93 130.24 112.06 C 130.43 106.12 140.22 105.99 140.44 112.01 C 140.81 129.88 140.49 147.78 140.61 165.66 C 141.66 165.67 142.71 165.69 143.77 165.71 C 143.98 157.46 143.65 149.21 143.92 140.97 C 143.85 137.04 148.99 134.45 152.06 137.01 C 154.66 138.79 154.19 142.26 154.26 145.00 C 154.11 152.35 154.45 159.71 154.09 167.06 C 153.79 172.14 149.09 176.21 144.06 176.14 C 132.36 176.19 120.65 176.28 108.95 176.10 C 103.31 175.89 99.03 170.58 99.38 165.06 C 99.39 142.38 99.30 119.69 99.46 97.00 C 99.32 92.56 102.52 89.10 106.24 87.17 C 106.26 76.16 106.23 65.14 106.37 54.12 C 106.22 51.90 108.09 50.53 109.62 49.28 C 110.62 42.68 107.45 34.72 112.14 29.17 C 118.54 24.16 125.37 19.70 132.04 15.04 M 120.15 36.06 C 119.96 40.37 119.90 44.68 120.01 48.99 C 124.48 49.06 128.96 49.03 133.43 49.00 C 133.44 41.62 133.50 34.24 133.40 26.86 C 128.87 29.75 124.54 32.95 120.15 36.06 M 116.73 59.71 C 116.70 68.72 116.70 77.72 116.76 86.73 C 123.45 86.73 130.14 86.74 136.83 86.72 C 136.83 77.72 136.89 68.71 136.78 59.71 C 130.10 59.70 123.41 59.68 116.73 59.71 Z" />
<path fill="#f03abe" opacity="1.00" d=" M 36.53 92.16 C 36.31 88.67 39.74 86.45 42.96 86.89 C 57.65 87.00 72.37 86.59 87.05 87.09 C 92.90 88.28 90.91 95.69 91.26 99.99 C 91.91 103.79 89.72 108.90 85.10 107.84 C 80.14 107.08 80.79 101.05 80.78 97.32 C 69.45 97.37 58.12 97.35 46.78 97.32 C 46.74 120.11 46.63 142.92 46.89 165.71 C 47.68 165.71 49.26 165.72 50.05 165.72 C 50.36 147.57 49.83 129.39 50.36 111.26 C 51.41 105.91 60.13 106.54 60.35 112.01 C 60.68 129.90 60.41 147.80 60.50 165.70 C 67.27 165.74 74.03 165.77 80.79 165.68 C 80.98 156.11 80.64 146.53 80.95 136.96 C 80.76 132.94 86.03 130.40 89.10 132.92 C 91.64 134.79 91.17 138.24 91.25 141.01 C 91.15 149.35 91.34 157.69 91.18 166.03 C 91.23 171.42 86.46 176.19 81.06 176.13 C 69.69 176.25 58.31 176.21 46.94 176.15 C 41.40 176.33 36.40 171.57 36.49 166.00 C 36.45 141.39 36.44 116.77 36.53 92.16 Z" />
</g>
</svg>
