<?xml version="1.0" encoding="UTF-8" ?>
<!DOCTYPE svg PUBLIC "-//W3C//DTD SVG 1.1//EN" "http://www.w3.org/Graphics/SVG/1.1/DTD/svg11.dtd">
<svg width="192pt" height="192pt" viewBox="0 0 192 192" version="1.1" xmlns="http://www.w3.org/2000/svg">
<g id="#e32ba2ff">
<path fill="#e32ba2" opacity="1.00" d=" M 84.40 14.51 C 116.10 9.58 149.57 25.50 165.93 53.04 C 178.15 72.84 181.12 97.95 174.13 120.12 C 165.03 150.15 137.29 173.40 106.08 176.90 C 74.75 181.22 41.94 165.26 25.87 138.05 C 8.47 110.12 10.53 71.77 30.85 45.89 C 43.71 28.98 63.34 17.39 84.40 14.51 M 87.37 25.47 C 65.25 27.95 44.96 41.79 34.20 61.22 C 24.39 78.54 22.65 100.08 29.17 118.85 C 39.07 148.70 70.67 169.38 102.02 166.02 C 131.21 164.01 157.43 141.74 164.39 113.38 C 170.10 91.79 164.80 67.65 150.39 50.57 C 135.43 32.16 110.89 22.49 87.37 25.47 Z" />
<path fill="#e32ba2" opacity="1.00" d=" M 88.37 53.47 C 106.64 49.86 126.34 59.90 134.33 76.67 C 146.12 98.66 133.62 128.63 109.94 136.10 C 87.08 144.85 59.42 129.52 54.30 105.71 C 48.00 82.69 64.82 57.02 88.37 53.47 M 91.32 64.40 C 75.76 66.34 63.38 81.31 64.39 96.97 C 64.68 114.08 80.92 128.73 97.98 127.15 C 115.37 126.46 129.79 109.33 127.31 92.05 C 125.81 74.86 108.34 61.44 91.32 64.40 Z" />
<path fill="#e32ba2" opacity="1.00" d=" M 87.87 84.78 C 87.61 79.48 92.61 74.79 97.92 76.27 C 101.97 76.90 103.62 81.08 103.90 84.70 C 109.07 82.81 114.90 86.51 115.30 92.00 C 115.75 95.95 112.04 98.35 109.03 99.96 C 111.43 103.91 111.35 109.45 107.08 112.11 C 103.34 115.22 98.63 112.36 95.87 109.39 C 93.00 114.15 86.20 114.40 82.60 110.38 C 79.86 107.41 81.53 103.23 82.71 99.97 C 79.09 98.12 75.32 94.49 76.86 90.01 C 77.92 85.05 83.52 83.64 87.87 84.78 Z" />
</g>
</svg>
