<?xml version="1.0" encoding="UTF-8" ?>
<!DOCTYPE svg PUBLIC "-//W3C//DTD SVG 1.1//EN" "http://www.w3.org/Graphics/SVG/1.1/DTD/svg11.dtd">
<svg width="192pt" height="192pt" viewBox="0 0 192 192" version="1.1" xmlns="http://www.w3.org/2000/svg">
<g id="#43e273ff">
<path fill="#43e273" opacity="1.00" d=" M 13.50 88.38 C 15.59 48.30 51.92 13.80 91.99 13.31 C 115.58 12.16 140.16 21.77 155.43 40.00 C 139.16 29.89 120.57 22.31 101.14 22.46 C 97.71 22.37 95.52 26.77 97.53 29.50 C 99.18 31.89 102.38 31.66 104.93 31.90 C 124.42 32.97 143.29 41.22 157.72 54.28 C 168.06 63.73 175.89 76.64 177.28 90.75 C 168.20 76.39 157.92 61.77 142.65 53.40 C 137.98 51.45 134.26 58.71 138.62 61.35 C 153.36 71.75 166.29 86.17 171.11 103.90 C 172.99 111.82 174.08 120.79 170.28 128.31 C 168.85 121.65 168.58 114.62 165.61 108.39 C 163.84 104.45 157.31 105.82 157.11 110.10 C 158.08 116.08 160.47 121.79 160.81 127.90 C 162.23 139.14 157.61 151.15 148.52 158.04 C 156.80 137.35 154.57 111.73 139.10 94.96 C 136.74 92.34 131.91 93.94 131.43 97.39 C 130.79 100.44 133.70 102.55 135.15 104.87 C 151.83 126.97 144.50 165.55 116.93 175.01 C 117.02 171.47 115.20 166.24 119.45 164.52 C 138.43 153.58 141.86 125.29 128.01 108.96 C 120.70 99.79 108.16 95.60 96.78 98.37 C 95.49 93.49 90.29 86.87 96.15 83.14 C 106.64 73.67 114.91 56.95 106.30 43.71 C 99.67 33.99 84.11 38.12 80.35 48.38 C 75.94 59.06 78.63 70.96 81.40 81.70 C 82.35 84.42 79.37 86.09 77.92 87.92 C 66.22 99.87 57.33 116.45 59.48 133.61 C 62.13 150.00 74.82 165.08 91.36 168.59 C 96.60 169.90 102.03 169.58 107.38 169.67 C 107.43 172.24 107.07 174.80 106.30 177.27 C 92.84 178.04 78.21 175.45 68.04 165.96 C 60.26 159.05 56.58 149.07 53.52 139.43 C 52.11 134.76 44.70 136.20 44.81 140.96 C 46.39 151.10 51.88 159.95 57.36 168.39 C 33.49 154.43 30.99 121.86 39.09 97.93 C 41.93 92.80 33.95 88.20 31.17 93.23 C 25.12 108.29 25.16 124.98 27.13 140.86 C 14.48 119.90 18.89 92.43 31.25 72.30 C 33.60 68.01 37.16 64.45 39.15 59.98 C 40.33 55.91 34.59 52.62 31.65 55.62 C 23.11 64.99 18.80 77.13 13.50 88.38 M 83.40 23.54 C 75.05 25.32 66.82 28.19 59.44 32.51 C 56.37 34.08 56.30 39.02 59.50 40.48 C 62.33 42.01 65.18 39.84 67.72 38.75 C 74.35 35.32 81.58 33.23 88.94 32.06 C 92.15 31.98 94.46 28.10 92.69 25.33 C 90.93 21.90 86.44 23.26 83.40 23.54 M 48.45 39.50 C 44.79 41.74 41.27 44.52 38.86 48.11 C 37.27 51.85 42.21 56.10 45.59 53.60 C 48.80 51.13 52.04 48.61 54.84 45.66 C 57.59 41.91 52.20 36.44 48.45 39.50 M 116.31 43.35 C 112.67 44.45 112.42 50.68 116.25 51.72 C 120.48 53.21 124.69 54.85 129.05 55.92 C 133.67 56.93 135.94 49.25 131.59 47.45 C 126.79 45.39 121.66 42.67 116.31 43.35 M 67.36 49.43 C 53.94 56.36 43.10 67.94 36.14 81.28 C 34.13 84.22 36.39 88.64 40.00 88.54 C 42.90 88.57 44.25 85.69 45.54 83.58 C 51.53 72.66 60.78 63.68 71.57 57.52 C 76.36 55.03 72.34 46.85 67.36 49.43 M 115.21 62.08 C 111.45 63.77 112.17 69.97 116.30 70.68 C 132.02 75.35 144.87 87.08 152.81 101.20 C 155.32 105.76 163.19 101.91 160.78 97.14 C 152.65 80.97 137.93 67.99 120.67 62.34 C 118.93 61.88 116.91 61.03 115.21 62.08 M 70.21 70.46 C 66.62 71.11 64.17 74.24 61.63 76.62 C 47.90 90.46 41.62 110.68 43.14 129.89 C 44.33 135.25 53.01 133.50 52.15 128.06 C 51.17 109.65 58.33 90.56 72.91 78.88 C 76.54 76.47 74.63 70.12 70.21 70.46 M 108.32 78.40 C 103.90 79.46 104.30 86.65 108.84 87.19 C 114.39 88.32 119.43 90.85 124.30 93.66 C 128.73 95.90 132.88 89.02 128.91 86.10 C 123.05 81.76 115.72 78.17 108.32 78.40 Z" />
<path fill="#43e273" opacity="1.00" d=" M 87.97 55.02 C 88.68 51.27 91.68 46.98 95.98 47.60 C 99.36 48.20 100.52 52.03 100.49 55.02 C 100.62 63.29 95.76 70.68 89.81 76.04 C 87.63 69.31 86.80 62.02 87.97 55.02 Z" />
<path fill="#43e273" opacity="1.00" d=" M 70.22 137.82 C 64.99 121.85 73.77 105.13 85.05 94.10 C 86.06 97.42 89.83 102.15 85.77 104.76 C 75.30 113.67 73.46 130.63 81.19 141.84 C 86.10 149.34 95.34 152.84 104.08 151.65 C 104.97 154.39 105.68 157.19 106.04 160.06 C 90.69 162.63 74.79 152.63 70.22 137.82 Z" />
<path fill="#43e273" opacity="1.00" d=" M 99.97 107.28 C 108.97 105.64 118.50 110.11 123.12 117.96 C 130.40 130.11 127.87 148.56 115.16 156.10 C 114.15 153.07 113.29 150.00 112.52 146.91 C 118.01 141.23 121.27 132.97 118.87 125.15 C 117.57 121.33 111.72 121.74 110.52 125.40 C 110.06 128.75 110.59 132.26 109.08 135.43 C 105.56 126.24 102.22 116.86 99.97 107.28 Z" />
<path fill="#43e273" opacity="1.00" d=" M 100.84 142.24 C 85.51 143.72 81.29 121.44 91.06 112.52 C 94.78 122.26 97.93 132.23 100.84 142.24 Z" />
</g>
</svg>
