<?xml version="1.0" encoding="UTF-8" ?>
<!DOCTYPE svg PUBLIC "-//W3C//DTD SVG 1.1//EN" "http://www.w3.org/Graphics/SVG/1.1/DTD/svg11.dtd">
<svg width="192pt" height="192pt" viewBox="0 0 192 192" version="1.1" xmlns="http://www.w3.org/2000/svg">
<g id="#ff3661ff">
<path fill="#ff3661" opacity="1.00" d=" M 123.37 32.50 C 133.41 31.45 144.23 31.66 153.21 36.82 C 160.75 41.07 165.73 48.81 168.07 57.00 C 172.31 70.60 172.04 84.99 173.21 99.04 C 173.60 106.74 174.29 114.64 172.29 122.18 C 169.93 130.98 162.90 137.67 155.35 142.31 C 148.03 146.73 139.22 146.28 131.01 147.04 C 112.84 148.28 94.74 150.86 77.02 155.13 C 69.79 156.69 62.51 158.87 55.04 158.46 C 44.55 157.89 34.72 151.22 30.31 141.68 C 22.88 124.07 23.75 104.45 19.77 85.99 C 17.62 76.71 20.30 66.70 26.68 59.66 C 35.58 49.09 49.33 44.84 62.18 41.33 C 82.23 36.36 102.93 35.03 123.37 32.50 M 118.37 44.50 C 94.64 46.77 70.35 49.10 48.05 58.10 C 38.60 62.03 28.18 70.91 30.60 82.30 C 33.53 97.79 34.78 113.56 37.90 129.00 C 39.28 136.32 43.31 143.98 51.00 146.10 C 59.54 148.54 68.26 145.25 76.64 143.62 C 97.11 138.42 118.20 136.54 139.23 135.22 C 149.96 134.93 160.30 126.85 161.91 116.02 C 163.26 105.69 161.42 95.30 160.93 84.98 C 159.93 73.40 159.71 60.37 152.06 50.94 C 143.55 41.35 129.73 43.62 118.37 44.50 Z" />
<path fill="#ff3661" opacity="1.00" d=" M 76.27 69.21 C 79.61 67.78 83.15 69.75 86.42 70.53 C 99.76 74.93 113.28 79.00 126.05 84.89 C 131.06 87.15 130.12 94.41 125.50 96.58 C 114.10 104.48 102.82 112.56 91.45 120.50 C 88.89 122.09 85.51 124.26 82.57 122.36 C 80.10 120.77 79.78 117.54 79.19 114.91 C 77.29 102.27 75.56 89.60 73.78 76.94 C 73.37 74.22 73.42 70.62 76.27 69.21 M 85.10 81.21 C 86.17 90.51 87.71 99.74 89.29 108.96 C 97.45 103.24 105.70 97.59 113.45 91.31 C 104.22 87.35 94.72 84.07 85.10 81.21 Z" />
</g>
</svg>
