<?xml version="1.0" encoding="UTF-8" ?>
<!DOCTYPE svg PUBLIC "-//W3C//DTD SVG 1.1//EN" "http://www.w3.org/Graphics/SVG/1.1/DTD/svg11.dtd">
<svg width="192pt" height="192pt" viewBox="0 0 192 192" version="1.1" xmlns="http://www.w3.org/2000/svg">
<g id="#d326b7ff">
<path fill="#d326b7" opacity="1.00" d=" M 84.41 14.51 C 118.13 9.19 153.69 27.73 168.86 58.25 C 184.67 88.09 179.19 127.40 155.70 151.68 C 132.26 177.44 91.77 185.02 60.58 169.54 C 28.92 154.90 9.36 118.53 14.87 84.04 C 19.30 48.82 49.20 18.96 84.41 14.51 M 87.37 25.46 C 63.28 28.13 41.44 44.37 31.55 66.44 C 18.20 94.76 26.77 131.23 51.46 150.53 C 77.40 172.45 119.16 171.18 143.69 147.68 C 167.76 126.47 173.70 88.23 157.37 60.65 C 143.82 36.27 115.05 21.78 87.37 25.46 Z" />
<path fill="#d326b7" opacity="1.00" d=" M 84.30 70.41 C 87.24 69.54 90.40 70.42 92.78 72.25 C 100.59 77.77 108.52 83.12 116.24 88.76 C 121.04 92.33 120.77 100.56 115.67 103.73 C 107.64 108.72 99.52 113.57 91.40 118.41 C 85.82 121.99 77.55 117.67 77.35 111.03 C 77.17 100.67 77.31 90.30 77.30 79.93 C 77.06 75.62 80.09 71.43 84.30 70.41 Z" />
</g>
</svg>
