<?xml version="1.0" encoding="UTF-8" ?>
<!DOCTYPE svg PUBLIC "-//W3C//DTD SVG 1.1//EN" "http://www.w3.org/Graphics/SVG/1.1/DTD/svg11.dtd">
<svg width="192pt" height="192pt" viewBox="0 0 192 192" version="1.1" xmlns="http://www.w3.org/2000/svg">
<g id="#f16c89ff">
<path fill="#f16c89" opacity="1.00" d=" M 32.31 26.41 C 36.47 25.47 40.77 25.77 45.00 25.75 C 81.33 25.75 117.65 25.74 153.98 25.75 C 166.46 25.42 177.82 36.45 177.78 48.95 C 177.83 73.32 177.86 97.69 177.77 122.06 C 177.75 134.53 166.41 145.37 153.99 145.14 C 115.33 145.22 76.67 145.22 38.01 145.14 C 25.56 145.40 14.20 134.56 14.15 122.07 C 14.03 98.04 14.12 74.01 14.11 49.98 C 13.72 39.13 21.74 28.80 32.31 26.41 M 33.34 38.46 C 28.80 40.34 25.70 45.07 25.81 49.98 C 25.78 73.66 25.74 97.34 25.84 121.02 C 25.66 127.53 31.44 133.48 38.00 133.23 C 76.66 133.24 115.34 133.25 154.01 133.20 C 160.50 133.41 166.25 127.50 166.03 121.04 C 166.09 97.35 166.10 73.65 166.04 49.96 C 166.30 43.43 160.56 37.41 153.98 37.59 C 115.66 37.53 77.33 37.60 39.01 37.54 C 37.09 37.60 35.11 37.67 33.34 38.46 Z" />
<path fill="#f16c89" opacity="1.00" d=" M 81.36 61.36 C 84.64 59.63 88.67 60.25 91.57 62.44 C 99.38 67.99 107.30 73.39 115.03 79.05 C 120.11 82.66 119.83 91.23 114.46 94.45 C 106.44 99.51 98.28 104.40 90.13 109.26 C 84.30 112.88 75.90 107.90 76.15 101.08 C 76.06 90.70 76.10 80.31 76.14 69.92 C 76.05 66.36 78.19 62.94 81.36 61.36 Z" />
<path fill="#f16c89" opacity="1.00" d=" M 40.30 153.41 C 76.85 152.79 113.48 153.18 150.06 153.14 C 156.79 152.86 157.60 163.92 150.86 164.46 C 114.58 164.77 78.27 164.58 41.98 164.52 C 35.66 164.97 34.14 154.85 40.30 153.41 Z" />
</g>
</svg>
