<?xml version="1.0" encoding="UTF-8" ?>
<!DOCTYPE svg PUBLIC "-//W3C//DTD SVG 1.1//EN" "http://www.w3.org/Graphics/SVG/1.1/DTD/svg11.dtd">
<svg width="192pt" height="192pt" viewBox="0 0 192 192" version="1.1" xmlns="http://www.w3.org/2000/svg">
<g id="#c9496cff">
<path fill="#c9496c" opacity="1.00" d=" M 32.27 26.35 C 34.80 25.76 37.41 25.70 39.99 25.70 C 78.32 25.77 116.64 25.65 154.96 25.75 C 167.59 25.85 178.27 37.49 177.98 49.99 C 178.17 73.66 178.15 97.34 178.00 121.01 C 178.26 133.87 166.91 145.52 153.98 145.21 C 115.33 145.24 76.67 145.24 38.01 145.21 C 25.50 145.51 14.17 134.56 14.04 122.06 C 13.93 98.03 14.01 74.01 14.00 49.98 C 13.70 39.13 21.66 28.76 32.27 26.35 M 33.37 38.55 C 28.87 40.41 25.77 45.09 25.94 49.99 C 25.85 73.66 25.86 97.34 25.95 121.01 C 25.69 127.48 31.48 133.46 38.00 133.14 C 76.66 133.14 115.33 133.14 154.00 133.12 C 160.46 133.40 166.20 127.46 165.98 121.05 C 166.00 97.35 166.00 73.65 165.98 49.95 C 166.25 43.45 160.51 37.50 153.97 37.67 C 115.65 37.61 77.33 37.68 39.01 37.62 C 37.10 37.65 35.14 37.76 33.37 38.55 Z" />
<path fill="#c9496c" opacity="1.00" d=" M 84.46 60.54 C 87.76 59.95 90.70 61.91 93.26 63.74 C 100.45 68.93 107.81 73.91 114.99 79.14 C 119.99 82.72 119.74 91.19 114.43 94.38 C 106.36 99.38 98.25 104.33 90.07 109.16 C 84.34 112.88 75.97 107.72 76.30 101.03 C 76.27 90.67 76.28 80.30 76.30 69.94 C 76.01 65.28 79.93 61.09 84.46 60.54 Z" />
<path fill="#c9496c" opacity="1.00" d=" M 40.36 153.52 C 76.90 153.05 113.49 153.37 150.04 153.32 C 156.70 152.88 157.48 163.84 150.88 164.40 C 114.59 164.64 78.27 164.48 41.97 164.46 C 35.78 164.86 34.27 154.89 40.36 153.52 Z" />
</g>
</svg>
