<?xml version="1.0" encoding="UTF-8" ?>
<!DOCTYPE svg PUBLIC "-//W3C//DTD SVG 1.1//EN" "http://www.w3.org/Graphics/SVG/1.1/DTD/svg11.dtd">
<svg width="192pt" height="192pt" viewBox="0 0 192 192" version="1.1" xmlns="http://www.w3.org/2000/svg">
<g id="#ff3661ff">
<path fill="#ff3661" opacity="1.00" d=" M 32.28 36.38 C 35.79 35.56 39.42 35.66 43.00 35.66 C 79.99 35.70 116.98 35.62 153.97 35.70 C 166.48 35.40 177.89 46.40 177.82 58.95 C 177.88 82.98 177.87 107.01 177.83 131.04 C 178.04 143.65 166.64 154.85 154.06 154.54 C 115.04 154.54 76.01 154.59 36.99 154.51 C 24.72 154.38 13.92 143.32 14.08 131.05 C 14.02 107.02 14.01 82.98 14.09 58.95 C 14.11 48.44 22.06 38.69 32.28 36.38 M 35.49 47.79 C 29.89 48.84 25.64 54.31 25.85 59.99 C 25.85 83.66 25.77 107.35 25.90 131.02 C 25.91 137.33 31.64 142.87 37.94 142.65 C 76.65 142.67 115.36 142.68 154.07 142.64 C 160.30 142.78 165.98 137.33 165.97 131.08 C 166.07 107.38 166.01 83.67 166.01 59.96 C 166.40 53.03 159.92 46.94 153.05 47.54 C 113.87 47.73 74.65 47.20 35.49 47.79 Z" />
<path fill="#ff3661" opacity="1.00" d=" M 83.37 70.48 C 86.52 69.60 89.74 70.83 92.24 72.74 C 99.82 78.18 107.58 83.37 115.09 88.89 C 120.17 92.53 119.71 101.18 114.25 104.24 C 106.15 109.18 98.06 114.16 89.86 118.93 C 84.18 122.11 76.22 117.61 76.22 111.06 C 76.11 100.68 76.19 90.31 76.18 79.93 C 75.92 75.57 79.16 71.46 83.37 70.48 Z" />
</g>
</svg>
