<?xml version="1.0" encoding="UTF-8" ?>
<!DOCTYPE svg PUBLIC "-//W3C//DTD SVG 1.1//EN" "http://www.w3.org/Graphics/SVG/1.1/DTD/svg11.dtd">
<svg width="192pt" height="192pt" viewBox="0 0 192 192" version="1.1" xmlns="http://www.w3.org/2000/svg">
<g id="#866278ff">
<path fill="#866278" opacity="1.00" d=" M 84.41 14.53 C 116.09 9.60 149.57 25.51 165.93 53.04 C 184.35 82.32 181.08 123.15 158.10 149.04 C 136.50 174.91 98.18 184.66 66.84 172.23 C 34.12 160.30 11.62 125.72 14.22 90.95 C 15.60 53.04 46.80 19.19 84.41 14.53 M 87.37 25.48 C 64.79 28.01 44.11 42.41 33.54 62.46 C 22.22 83.34 22.60 110.01 34.48 130.57 C 48.29 155.49 78.15 170.20 106.33 165.49 C 137.13 161.55 162.99 134.82 166.14 103.97 C 168.83 82.41 160.87 59.86 145.10 44.90 C 130.12 30.02 108.27 22.97 87.37 25.48 Z" />
<path fill="#866278" opacity="1.00" d=" M 84.25 70.34 C 87.50 69.24 90.85 70.64 93.44 72.60 C 101.03 78.01 108.76 83.21 116.28 88.70 C 121.12 92.31 120.85 100.62 115.71 103.83 C 107.67 108.81 99.54 113.66 91.43 118.51 C 85.78 122.08 77.52 117.72 77.27 111.04 C 77.04 100.68 77.22 90.30 77.20 79.93 C 77.02 75.60 80.03 71.41 84.25 70.34 Z" />
</g>
</svg>
