<?xml version="1.0" encoding="UTF-8" ?>
<!DOCTYPE svg PUBLIC "-//W3C//DTD SVG 1.1//EN" "http://www.w3.org/Graphics/SVG/1.1/DTD/svg11.dtd">
<svg width="192pt" height="192pt" viewBox="0 0 192 192" version="1.1" xmlns="http://www.w3.org/2000/svg">
<g id="#826379ff">
<path fill="#826379" opacity="1.00" d=" M 74.36 24.97 C 74.19 21.43 77.41 18.31 80.97 18.75 C 91.33 18.77 101.69 18.64 112.05 18.81 C 115.25 18.80 117.71 21.91 117.61 24.98 C 117.88 32.03 119.59 39.99 125.78 44.24 C 132.33 48.59 140.82 46.71 147.35 43.32 C 150.40 41.42 154.72 42.24 156.39 45.56 C 161.60 54.10 166.79 62.66 171.86 71.27 C 173.67 74.09 172.43 78.05 169.47 79.52 C 163.72 82.83 157.31 87.70 157.24 94.99 C 157.10 102.37 163.61 107.33 169.37 110.68 C 172.66 112.22 173.70 116.64 171.59 119.56 C 166.31 128.26 161.23 137.11 155.73 145.67 C 151.82 150.69 145.80 145.62 141.16 144.72 C 135.34 142.76 129.15 145.84 123.53 144.38 C 119.68 140.32 112.31 133.40 117.83 127.91 C 122.08 124.28 126.79 128.48 128.94 132.25 C 135.64 131.52 142.36 132.38 148.76 134.37 C 151.93 128.89 155.33 123.54 158.47 118.03 C 151.33 112.49 145.03 104.47 145.22 95.00 C 145.12 85.59 151.42 77.66 158.53 72.17 C 155.24 66.80 152.08 61.35 148.72 56.03 C 138.70 59.62 126.56 60.15 117.83 53.19 C 110.80 47.88 107.26 39.21 106.04 30.71 C 99.41 30.80 92.52 30.03 86.05 31.05 C 84.39 40.32 80.26 49.90 71.76 54.81 C 63.17 60.23 52.38 59.19 43.18 56.03 C 39.90 61.38 36.74 66.81 33.41 72.13 C 40.42 77.73 46.85 85.55 46.71 95.00 C 46.94 104.48 40.71 112.58 33.45 118.01 C 36.61 123.51 39.97 128.89 43.20 134.35 C 53.54 130.36 66.37 130.22 75.09 137.89 C 81.62 143.24 84.70 151.52 86.02 159.62 C 95.01 159.86 104.02 159.37 112.99 159.85 C 119.06 160.76 119.11 170.45 112.99 171.37 C 102.34 171.83 91.65 171.45 80.99 171.55 C 77.24 172.01 74.11 168.70 74.31 165.04 C 74.13 158.00 72.25 150.08 66.00 145.96 C 59.78 141.85 51.71 143.43 45.44 146.59 C 42.42 148.32 37.79 148.65 35.88 145.15 C 30.62 136.69 25.56 128.11 20.43 119.57 C 18.30 116.65 19.28 112.21 22.61 110.66 C 28.39 107.35 34.85 102.39 34.78 95.04 C 34.69 87.69 28.23 82.83 22.46 79.46 C 19.53 77.98 18.32 74.06 20.15 71.27 C 25.32 62.45 30.60 53.68 35.98 44.98 C 37.72 41.96 41.84 41.68 44.61 43.37 C 50.98 46.61 59.10 48.54 65.60 44.59 C 72.25 40.57 74.16 32.22 74.36 24.97 Z" />
<path fill="#826379" opacity="1.00" d=" M 83.33 71.39 C 86.58 69.85 90.46 70.59 93.27 72.70 C 101.09 78.22 109.03 83.59 116.80 89.19 C 121.79 92.73 121.60 101.15 116.38 104.39 C 108.13 109.50 99.83 114.55 91.42 119.38 C 85.53 122.82 77.43 117.71 77.67 110.99 C 77.51 101.00 77.62 91.01 77.62 81.02 C 77.37 77.02 79.54 72.92 83.33 71.39 Z" />
</g>
</svg>
