<?xml version="1.0" encoding="UTF-8" ?>
<!DOCTYPE svg PUBLIC "-//W3C//DTD SVG 1.1//EN" "http://www.w3.org/Graphics/SVG/1.1/DTD/svg11.dtd">
<svg width="192pt" height="192pt" viewBox="0 0 192 192" version="1.1" xmlns="http://www.w3.org/2000/svg">
<g id="#5f6f81ff">
<path fill="#5f6f81" opacity="1.00" d=" M 77.36 26.46 C 104.78 24.54 132.56 26.77 159.14 33.87 C 168.26 36.25 175.23 44.67 176.15 54.02 C 179.77 81.85 179.79 110.18 175.91 137.99 C 174.80 147.29 167.60 155.42 158.47 157.59 C 117.74 168.17 74.28 168.14 33.54 157.59 C 24.44 155.39 17.26 147.28 16.15 138.00 C 12.37 109.84 12.37 81.16 16.19 53.01 C 17.36 44.10 24.18 36.23 32.86 33.88 C 47.40 29.96 62.35 27.57 77.36 26.46 M 81.40 37.55 C 66.23 38.50 51.12 40.78 36.42 44.66 C 31.64 45.81 27.85 50.07 27.34 54.97 C 23.69 82.05 23.68 109.63 27.41 136.71 C 28.06 141.77 32.20 145.86 37.16 146.81 C 75.56 156.57 116.43 156.54 154.83 146.81 C 159.75 145.81 163.96 141.80 164.60 136.72 C 168.42 109.67 168.50 82.07 164.83 54.99 C 164.31 50.31 160.81 46.16 156.28 44.87 C 131.95 38.24 106.54 36.30 81.40 37.55 Z" />
<path fill="#5f6f81" opacity="1.00" d=" M 82.32 71.30 C 85.84 69.65 89.85 71.00 92.77 73.25 C 100.33 78.70 108.10 83.85 115.59 89.40 C 120.61 93.08 120.16 101.68 114.75 104.78 C 106.67 109.72 98.59 114.69 90.42 119.47 C 84.77 122.92 76.68 118.42 76.51 111.85 C 76.24 101.55 76.46 91.24 76.41 80.95 C 76.18 76.90 78.48 72.81 82.32 71.30 Z" />
</g>
</svg>
