<?xml version="1.0" encoding="UTF-8" ?>
<!DOCTYPE svg PUBLIC "-//W3C//DTD SVG 1.1//EN" "http://www.w3.org/Graphics/SVG/1.1/DTD/svg11.dtd">
<svg width="192pt" height="192pt" viewBox="0 0 192 192" version="1.1" xmlns="http://www.w3.org/2000/svg">
<g id="#ff3665ff">
<path fill="#ff3665" opacity="1.00" d=" M 64.08 41.04 C 72.50 31.33 82.87 23.38 94.11 17.22 C 99.10 16.06 102.97 20.71 107.04 22.89 C 120.57 32.47 135.11 44.59 137.84 61.93 C 138.65 77.55 137.81 93.24 138.26 108.88 C 142.70 113.52 150.63 114.88 154.45 120.42 C 155.22 131.24 154.66 142.19 154.75 153.06 C 154.87 165.09 143.08 175.96 131.07 174.21 C 119.23 168.20 107.70 161.53 95.97 155.28 C 84.22 161.45 72.74 168.14 60.91 174.15 C 49.25 176.07 37.65 165.73 37.17 154.09 C 37.15 149.16 36.63 144.14 37.39 139.26 C 38.83 134.60 46.19 134.69 47.58 139.34 C 48.52 144.72 47.15 150.31 48.46 155.66 C 49.67 159.96 53.70 162.90 58.01 163.57 C 66.78 158.69 75.69 154.06 84.37 149.01 C 75.33 143.85 66.08 139.07 57.00 133.99 C 54.73 132.91 53.50 130.47 53.77 128.00 C 53.43 107.68 53.94 87.34 53.75 67.01 C 53.36 57.32 57.98 48.28 64.08 41.04 M 88.48 33.55 C 77.15 42.13 63.74 53.35 64.61 69.00 C 64.62 87.88 64.69 106.76 64.59 125.64 C 85.36 137.24 106.31 148.55 127.26 159.83 C 127.20 127.89 127.47 95.93 127.14 63.99 C 124.26 48.74 110.69 38.66 98.68 30.31 C 95.09 27.12 91.56 31.89 88.48 33.55 M 138.15 122.03 C 138.20 135.42 138.09 148.81 138.21 162.20 C 141.21 160.09 143.81 156.95 143.89 153.11 C 144.00 143.84 144.11 134.56 143.78 125.30 C 141.89 124.23 140.02 123.14 138.15 122.03 Z" />
<path fill="#ff3665" opacity="1.00" d=" M 91.27 50.30 C 99.88 47.04 110.12 53.89 110.56 63.03 C 111.48 71.21 104.25 79.09 96.01 78.78 C 88.46 79.12 81.58 72.56 81.32 65.05 C 80.79 58.62 85.14 52.24 91.27 50.30 Z" />
</g>
</svg>
