<?xml version="1.0" encoding="UTF-8" ?>
<!DOCTYPE svg PUBLIC "-//W3C//DTD SVG 1.1//EN" "http://www.w3.org/Graphics/SVG/1.1/DTD/svg11.dtd">
<svg width="192pt" height="192pt" viewBox="0 0 192 192" version="1.1" xmlns="http://www.w3.org/2000/svg">
<g id="#d226b7ff">
<path fill="#d226b7" opacity="1.00" d=" M 74.47 26.68 C 102.82 24.37 131.62 26.53 159.14 33.86 C 167.90 36.16 174.78 44.06 175.97 53.03 C 179.80 81.18 179.80 109.87 175.89 138.01 C 174.75 147.28 167.56 155.39 158.47 157.56 C 117.73 168.12 74.28 168.10 33.54 157.57 C 24.45 155.38 17.25 147.26 16.15 137.98 C 12.37 109.83 12.36 81.16 16.19 53.02 C 17.35 44.10 24.18 36.22 32.87 33.87 C 46.48 30.22 60.43 27.87 74.47 26.68 M 78.47 37.70 C 64.28 38.76 50.16 41.01 36.40 44.62 C 31.61 45.76 27.80 50.05 27.31 54.95 C 23.67 82.04 23.67 109.63 27.38 136.71 C 28.05 141.77 32.21 145.86 37.16 146.81 C 75.56 156.56 116.43 156.54 154.83 146.80 C 159.75 145.81 163.96 141.78 164.61 136.72 C 168.40 109.66 168.51 82.05 164.83 54.97 C 164.30 50.29 160.83 46.12 156.29 44.84 C 131.01 37.97 104.56 36.07 78.47 37.70 Z" />
<path fill="#d226b7" opacity="1.00" d=" M 82.32 71.33 C 85.84 69.66 89.85 71.02 92.75 73.28 C 100.31 78.72 108.08 83.88 115.57 89.41 C 120.58 93.09 120.09 101.67 114.70 104.75 C 106.63 109.67 98.57 114.63 90.41 119.40 C 84.80 122.88 76.72 118.37 76.53 111.84 C 76.29 101.55 76.50 91.24 76.44 80.95 C 76.18 76.91 78.51 72.83 82.32 71.33 Z" />
</g>
</svg>
