<?xml version="1.0" encoding="UTF-8" ?>
<!DOCTYPE svg PUBLIC "-//W3C//DTD SVG 1.1//EN" "http://www.w3.org/Graphics/SVG/1.1/DTD/svg11.dtd">
<svg width="192pt" height="192pt" viewBox="0 0 192 192" version="1.1" xmlns="http://www.w3.org/2000/svg">
<g id="#74687cff">
<path fill="#74687c" opacity="1.00" d=" M 50.99 35.99 C 54.74 33.63 59.69 33.30 63.60 35.49 C 74.49 41.35 85.02 47.92 96.00 53.62 C 106.66 47.82 117.07 41.58 127.69 35.72 C 131.77 33.32 137.00 33.55 140.97 36.05 C 150.74 41.64 160.53 47.20 170.34 52.71 C 174.47 54.90 177.63 59.14 177.67 63.93 C 177.77 76.97 177.68 90.01 177.73 103.06 C 177.97 108.19 174.76 112.96 170.28 115.28 C 147.51 128.17 124.75 141.07 101.98 153.94 C 98.13 156.30 93.11 155.99 89.33 153.66 C 66.55 140.78 43.81 127.82 21.02 114.95 C 16.73 112.66 13.99 107.93 14.15 103.06 C 14.14 90.36 14.16 77.65 14.15 64.95 C 13.88 60.30 16.32 55.67 20.40 53.39 C 30.57 47.55 40.81 41.82 50.99 35.99 M 55.40 46.44 C 45.46 52.20 35.38 57.70 25.47 63.49 C 25.48 77.12 25.32 90.75 25.51 104.38 C 48.89 117.86 72.40 131.17 95.98 144.32 C 118.64 131.52 141.28 118.69 163.94 105.88 C 164.92 105.14 166.69 104.56 166.41 103.00 C 166.33 90.00 166.53 76.99 166.32 64.01 C 156.17 56.97 144.72 51.49 134.00 45.17 C 123.50 50.91 113.21 57.03 102.75 62.85 C 98.64 65.22 93.34 65.31 89.22 62.92 C 79.16 57.30 69.21 51.48 59.14 45.87 C 57.93 44.77 56.56 45.86 55.40 46.44 Z" />
<path fill="#74687c" opacity="1.00" d=" M 132.25 55.28 C 139.66 53.18 145.51 60.46 152.04 62.96 C 157.27 64.54 160.23 71.72 155.67 75.64 C 150.24 79.37 144.37 82.46 138.69 85.81 C 134.42 88.45 128.24 85.07 128.20 80.04 C 128.03 74.02 128.12 67.98 128.16 61.96 C 128.08 59.17 129.68 56.43 132.25 55.28 Z" />
</g>
</svg>
