<?xml version="1.0" encoding="UTF-8" ?>
<!DOCTYPE svg PUBLIC "-//W3C//DTD SVG 1.1//EN" "http://www.w3.org/Graphics/SVG/1.1/DTD/svg11.dtd">
<svg width="192pt" height="192pt" viewBox="0 0 192 192" version="1.1" xmlns="http://www.w3.org/2000/svg">
<g id="#1ab0ffff">
<path fill="#1ab0ff" opacity="1.00" d=" M 40.28 21.33 C 75.77 19.96 111.43 21.12 146.99 20.73 C 159.55 20.20 171.02 31.37 170.82 43.94 C 170.89 77.98 170.89 112.02 170.85 146.05 C 171.14 158.34 160.36 169.47 148.06 169.52 C 113.69 169.59 79.31 169.56 44.94 169.51 C 32.62 169.49 21.78 158.36 22.07 146.04 C 22.05 112.01 22.06 77.98 22.10 43.95 C 21.98 33.39 30.01 23.57 40.28 21.33 M 42.27 32.31 C 37.19 33.70 33.15 38.57 33.27 43.93 C 33.23 77.97 33.26 112.02 33.26 146.06 C 33.02 152.79 39.25 158.74 45.94 158.34 C 79.89 158.30 113.83 158.35 147.78 158.28 C 154.18 158.26 159.76 152.45 159.65 146.08 C 159.69 112.03 159.72 77.97 159.64 43.92 C 159.72 36.87 152.87 31.21 146.00 31.81 C 111.44 32.18 76.76 31.09 42.27 32.31 Z" />
<path fill="#1ab0ff" opacity="1.00" d=" M 52.02 72.96 C 52.35 68.76 58.71 67.76 60.47 71.51 C 62.10 76.79 59.93 82.66 62.03 87.87 C 64.95 94.67 76.06 94.91 79.60 88.62 C 81.43 83.20 79.44 77.26 80.78 71.75 C 82.36 67.72 89.24 68.62 89.45 73.04 C 89.79 82.68 89.54 92.34 89.49 101.98 C 89.62 108.30 86.64 114.74 81.63 118.60 C 77.40 121.57 71.89 115.22 75.39 111.48 C 78.49 108.09 80.70 103.84 80.32 99.12 C 72.69 105.46 60.45 102.88 55.29 94.66 C 51.03 88.31 51.83 80.22 52.02 72.96 Z" />
<path fill="#1ab0ff" opacity="1.00" d=" M 100.01 82.92 C 100.12 76.03 106.17 69.94 113.03 69.65 C 121.11 69.19 130.79 68.66 136.64 75.38 C 145.08 84.53 140.73 101.14 128.86 105.01 C 131.33 108.25 133.31 112.66 137.76 113.42 C 137.72 115.88 137.72 118.34 137.75 120.80 C 128.15 123.60 124.54 113.31 119.37 107.60 C 117.71 104.70 113.97 105.30 111.38 106.44 C 107.21 109.76 111.49 116.23 107.80 119.84 C 104.91 122.57 99.45 120.13 99.90 116.06 C 99.87 105.02 99.74 93.96 100.01 82.92 M 112.03 79.96 C 107.06 83.73 110.37 91.21 109.43 96.55 C 114.92 94.90 120.72 96.28 126.26 95.15 C 132.75 93.29 133.40 82.29 126.71 80.25 C 121.99 79.00 116.79 79.12 112.03 79.96 Z" />
</g>
</svg>
