<?xml version="1.0" encoding="UTF-8" ?>
<!DOCTYPE svg PUBLIC "-//W3C//DTD SVG 1.1//EN" "http://www.w3.org/Graphics/SVG/1.1/DTD/svg11.dtd">
<svg width="192pt" height="192pt" viewBox="0 0 192 192" version="1.1" xmlns="http://www.w3.org/2000/svg">
<g id="#19afffff">
<path fill="#19afff" opacity="1.00" d=" M 38.42 23.48 C 39.79 22.64 41.46 22.80 43.00 22.72 C 78.67 22.81 114.35 22.64 150.01 22.79 C 154.47 22.71 157.02 28.79 153.94 31.99 C 150.92 35.25 145.93 33.79 142.01 33.93 C 108.33 33.79 74.65 33.95 40.98 33.80 C 35.54 34.11 33.62 25.86 38.42 23.48 Z" />
<path fill="#19afff" opacity="1.00" d=" M 20.32 42.38 C 22.13 41.67 24.10 41.63 26.01 41.60 C 72.67 41.64 119.33 41.58 165.99 41.60 C 172.20 41.22 177.98 46.69 177.83 52.93 C 177.89 83.98 177.90 115.03 177.84 146.07 C 178.02 158.15 167.11 168.83 155.06 168.54 C 115.04 168.55 75.03 168.58 35.02 168.50 C 23.27 168.38 12.93 157.83 13.09 146.07 C 13.01 115.36 13.10 84.65 13.07 53.94 C 12.76 49.05 15.67 44.11 20.32 42.38 M 24.35 52.88 C 24.38 83.92 24.32 114.96 24.38 146.00 C 24.28 152.14 29.89 157.47 35.99 157.25 C 75.66 157.27 115.33 157.26 155.00 157.21 C 161.06 157.39 166.56 152.05 166.51 145.99 C 166.61 115.01 166.53 84.02 166.56 53.04 C 119.17 52.61 71.75 52.82 24.35 52.88 Z" />
<path fill="#19afff" opacity="1.00" d=" M 33.07 87.82 C 39.12 87.57 45.19 87.61 51.25 87.80 C 51.58 96.49 43.58 102.63 40.15 110.18 C 43.83 110.20 47.51 110.24 51.19 110.21 C 51.44 111.87 51.48 113.55 51.38 115.22 C 45.20 115.21 39.02 115.35 32.84 115.11 C 32.56 106.37 40.62 100.28 43.94 92.64 C 40.35 92.65 36.76 92.64 33.18 92.57 C 33.11 90.99 33.08 89.40 33.07 87.82 Z" />
<path fill="#19afff" opacity="1.00" d=" M 56.01 100.64 C 53.71 91.94 67.04 91.22 71.50 95.46 C 73.73 101.59 71.95 108.48 72.55 114.90 C 70.62 115.39 68.68 115.07 66.80 114.52 C 63.65 115.71 59.68 116.23 56.81 114.10 C 54.54 111.73 54.75 107.80 55.84 104.93 C 58.20 101.23 63.25 102.61 66.92 102.31 C 66.85 100.84 66.78 99.38 66.69 97.93 C 65.15 97.73 63.59 97.61 62.03 97.57 C 61.57 98.60 61.11 99.62 60.65 100.65 C 59.10 100.65 57.56 100.64 56.01 100.64 M 61.41 106.46 C 58.90 110.53 63.41 112.25 66.72 110.75 C 66.78 109.29 66.82 107.83 66.85 106.36 C 65.03 106.41 63.22 106.45 61.41 106.46 Z" />
<path fill="#19afff" opacity="1.00" d=" M 76.91 93.69 C 78.84 93.36 80.82 93.46 82.60 94.33 C 86.36 92.41 93.36 92.24 94.47 97.37 C 95.00 102.03 95.03 106.81 94.46 111.46 C 93.24 116.67 86.19 116.16 82.38 114.32 C 82.49 116.96 82.48 119.60 82.35 122.23 C 80.57 122.19 78.80 122.14 77.02 122.07 C 76.69 112.62 76.91 103.15 76.91 93.69 M 83.00 110.78 C 91.22 113.55 89.66 103.15 88.62 98.28 C 80.45 94.69 82.21 106.06 83.00 110.78 Z" />
<path fill="#19afff" opacity="1.00" d=" M 98.80 93.69 C 100.77 93.37 102.77 93.46 104.60 94.30 C 108.36 92.40 115.30 92.28 116.42 97.39 C 116.96 102.08 116.99 106.90 116.37 111.59 C 115.02 116.67 108.13 116.13 104.33 114.36 C 104.44 116.97 104.43 119.59 104.30 122.21 C 102.50 122.18 100.71 122.15 98.92 122.09 C 98.56 112.63 98.79 103.16 98.80 93.69 M 104.72 98.74 C 104.19 103.67 102.47 113.63 110.69 110.71 C 111.39 106.54 111.32 102.30 110.75 98.13 C 108.76 97.93 106.26 96.95 104.72 98.74 Z" />
<path fill="#19afff" opacity="1.00" d=" M 124.45 93.65 C 128.83 93.03 135.82 91.92 137.81 97.13 C 138.66 101.65 138.50 106.38 137.99 110.94 C 136.78 116.67 129.40 115.73 125.03 115.20 C 120.10 114.59 120.18 108.76 120.29 105.00 C 120.40 101.08 119.46 94.93 124.45 93.65 M 126.28 98.20 C 125.82 102.33 125.70 106.52 126.37 110.64 C 128.29 110.65 131.53 112.02 132.39 109.54 C 133.14 104.70 134.20 94.86 126.28 98.20 Z" />
<path fill="#19afff" opacity="1.00" d=" M 142.55 103.49 C 141.11 100.04 141.47 94.01 146.15 93.46 C 151.20 92.09 159.80 93.40 157.88 100.57 C 156.40 100.59 154.93 100.60 153.45 100.59 C 152.70 97.42 149.80 96.73 147.09 98.08 C 146.85 105.01 159.41 100.22 158.60 108.05 C 160.92 118.38 140.38 118.57 142.16 108.33 C 143.77 108.16 145.38 108.02 147.00 107.89 C 147.39 108.97 147.79 110.05 148.20 111.13 C 149.80 111.13 151.40 111.10 153.01 111.06 C 152.99 109.75 152.93 108.45 152.86 107.15 C 149.44 106.03 145.16 106.24 142.55 103.49 Z" />
</g>
</svg>
