<?xml version="1.0" encoding="UTF-8" ?>
<!DOCTYPE svg PUBLIC "-//W3C//DTD SVG 1.1//EN" "http://www.w3.org/Graphics/SVG/1.1/DTD/svg11.dtd">
<svg width="192pt" height="192pt" viewBox="0 0 192 192" version="1.1" xmlns="http://www.w3.org/2000/svg">
<g id="#ff3660ff">
<path fill="#ff3660" opacity="1.00" d=" M 14.38 49.41 C 44.37 33.06 79.31 28.45 113.04 28.76 C 117.57 27.97 121.54 32.94 119.23 37.08 C 109.68 57.36 99.63 77.42 90.76 98.02 C 115.71 94.85 141.07 94.38 165.98 98.17 C 169.80 98.84 175.57 98.49 176.64 103.30 C 177.04 108.75 176.98 114.28 176.67 119.74 C 176.16 123.89 171.39 124.63 167.99 124.37 C 125.49 124.00 83.06 135.26 46.13 156.23 C 42.00 159.36 35.38 156.41 35.68 151.04 C 36.31 126.02 40.60 101.17 47.15 77.04 C 37.02 77.63 27.04 79.54 17.01 80.91 C 12.82 81.51 9.71 76.30 11.82 72.78 C 13.12 69.98 16.52 69.76 19.16 69.22 C 30.41 67.49 41.71 65.85 53.07 65.08 C 57.65 64.61 61.55 69.46 59.89 73.83 C 53.23 96.24 48.74 119.34 47.35 142.69 C 83.61 123.51 124.51 113.19 165.54 113.04 C 165.54 111.87 165.53 110.70 165.54 109.52 C 138.84 105.41 111.51 105.90 84.93 110.56 C 79.61 112.12 74.89 106.22 77.32 101.33 C 85.45 80.43 95.75 60.44 105.18 40.10 C 77.69 40.39 49.62 44.61 24.70 56.70 C 21.44 58.01 18.09 61.37 14.40 59.56 C 10.19 57.82 10.14 51.16 14.38 49.41 Z" />
</g>
</svg>
