<?xml version="1.0" encoding="UTF-8" ?>
<!DOCTYPE svg PUBLIC "-//W3C//DTD SVG 1.1//EN" "http://www.w3.org/Graphics/SVG/1.1/DTD/svg11.dtd">
<svg width="192pt" height="192pt" viewBox="0 0 192 192" version="1.1" xmlns="http://www.w3.org/2000/svg">
<g id="#d6d6d6ff">
<path fill="#d6d6d6" opacity="1.00" d=" M 94.21 14.19 C 97.53 12.56 101.98 15.21 101.93 18.96 C 102.09 24.93 102.35 30.96 101.76 36.91 C 100.77 42.17 92.13 42.16 91.11 36.90 C 90.46 31.63 90.94 26.28 90.81 20.98 C 90.63 18.33 91.48 15.22 94.21 14.19 Z" />
<path fill="#d6d6d6" opacity="1.00" d=" M 92.35 81.46 C 99.91 78.90 108.74 84.20 110.15 92.02 C 112.03 99.76 105.92 108.14 98.00 108.74 C 90.79 109.77 83.54 104.18 82.62 96.97 C 81.43 90.31 85.87 83.32 92.35 81.46 Z" />
<path fill="#d6d6d6" opacity="1.00" d=" M 19.41 89.70 C 25.68 89.38 32.04 89.23 38.29 89.77 C 43.68 91.00 43.40 99.83 37.86 100.51 C 31.71 100.80 25.51 100.84 19.36 100.49 C 13.77 99.61 13.78 90.51 19.41 89.70 Z" />
<path fill="#d6d6d6" opacity="1.00" d=" M 155.40 89.59 C 161.43 89.37 167.52 89.23 173.54 89.68 C 179.10 90.58 179.18 99.49 173.66 100.51 C 167.28 100.85 160.78 100.98 154.41 100.42 C 148.92 98.98 149.68 89.96 155.40 89.59 Z" />
<path fill="#d6d6d6" opacity="1.00" d=" M 94.46 149.60 C 97.97 148.10 102.24 151.13 102.01 154.94 C 101.97 160.87 102.46 166.89 101.72 172.79 C 100.31 177.68 92.59 177.66 91.17 172.78 C 90.38 167.23 90.95 161.57 90.81 155.98 C 90.58 153.35 91.83 150.49 94.46 149.60 Z" />
</g>
</svg>
