<?xml version="1.0" encoding="UTF-8" ?>
<!DOCTYPE svg PUBLIC "-//W3C//DTD SVG 1.1//EN" "http://www.w3.org/Graphics/SVG/1.1/DTD/svg11.dtd">
<svg width="192pt" height="192pt" viewBox="0 0 192 192" version="1.1" xmlns="http://www.w3.org/2000/svg">
<g id="#75908aff">
<path fill="#75908a" opacity="1.00" d=" M 87.35 13.42 C 91.14 12.55 96.71 12.52 97.76 17.28 C 99.01 21.81 94.45 24.87 90.38 24.54 C 55.91 27.68 27.17 59.37 27.40 93.99 C 26.29 125.48 48.98 155.59 79.38 163.59 C 84.33 165.19 89.59 165.32 94.62 166.49 C 99.72 168.43 98.54 176.91 93.06 177.27 C 61.54 175.98 32.43 154.01 21.45 124.60 C 13.01 102.74 14.56 77.30 25.58 56.61 C 37.68 33.41 61.37 16.74 87.35 13.42 Z" />
<path fill="#75908a" opacity="1.00" d=" M 92.36 34.44 C 102.99 32.81 114.10 33.87 124.12 37.83 C 128.17 39.11 129.09 45.21 125.56 47.59 C 122.69 49.97 119.01 47.88 115.97 47.06 C 95.32 40.66 71.42 49.65 59.82 67.82 C 48.21 84.89 48.87 109.18 61.50 125.52 C 63.24 128.06 66.35 130.39 65.68 133.85 C 65.22 138.23 59.05 140.24 56.14 136.86 C 41.39 120.94 36.36 96.89 43.24 76.33 C 50.17 54.71 69.84 37.75 92.36 34.44 Z" />
<path fill="#75908a" opacity="1.00" d=" M 61.67 90.47 C 63.52 74.02 77.37 59.80 93.93 58.10 C 111.51 55.54 129.76 67.75 133.94 85.03 C 130.05 86.53 124.52 83.71 121.66 86.96 C 121.32 92.75 121.56 98.57 121.60 104.37 C 125.76 104.54 129.92 104.48 134.09 104.47 C 130.04 122.97 109.78 135.78 91.32 131.59 C 72.67 128.39 58.99 109.15 61.67 90.47 M 82.73 85.63 C 82.73 86.50 82.74 88.24 82.74 89.11 C 85.55 89.15 88.36 89.23 91.17 89.30 C 89.87 94.30 85.04 97.27 82.37 101.52 C 82.48 102.47 82.60 103.43 82.71 104.39 C 87.79 104.46 92.86 104.49 97.94 104.36 C 97.91 103.46 97.86 101.66 97.83 100.76 C 94.60 100.81 91.36 100.73 88.15 100.36 C 91.29 96.43 94.67 92.71 97.87 88.83 C 97.87 88.05 97.86 86.50 97.86 85.72 C 92.82 85.34 87.77 85.57 82.73 85.63 M 102.41 85.55 C 102.35 91.83 102.35 98.12 102.40 104.40 C 107.11 104.46 111.81 104.42 116.52 104.46 C 116.45 103.16 116.39 101.87 116.32 100.57 C 113.31 100.29 104.93 102.55 107.03 97.15 C 110.09 96.28 113.35 96.76 116.51 96.66 C 116.53 95.50 116.55 94.34 116.58 93.18 C 113.43 93.13 110.21 93.43 107.14 92.63 C 104.51 87.56 113.47 89.66 116.35 89.41 C 116.40 88.11 116.45 86.81 116.52 85.50 C 111.81 85.54 107.11 85.52 102.41 85.55 Z" />
<path fill="#75908a" opacity="1.00" d=" M 148.58 72.52 C 153.31 71.57 158.20 72.36 162.99 72.06 C 166.25 72.15 170.48 71.27 172.65 74.40 C 174.99 77.48 172.81 82.51 168.91 82.72 C 164.35 83.02 159.77 82.73 155.20 82.82 C 155.15 84.37 155.09 85.93 155.02 87.48 C 160.45 86.94 166.52 87.35 170.76 91.20 C 177.31 96.90 177.15 108.06 170.99 114.00 C 163.60 121.18 150.83 120.18 143.50 113.45 C 139.82 109.77 144.26 102.92 149.07 104.58 C 152.88 106.27 157.10 109.61 161.39 107.23 C 164.71 105.96 165.09 100.73 162.02 98.98 C 157.08 95.92 151.00 101.43 146.36 97.68 C 142.26 94.62 144.15 89.02 144.06 84.72 C 144.48 80.49 143.58 74.30 148.58 72.52 Z" />
<path fill="#75908a" opacity="1.00" d=" M 126.29 92.59 C 123.28 87.88 137.00 87.36 134.85 92.75 C 132.02 93.14 129.05 93.58 126.29 92.59 Z" />
<path fill="#75908a" opacity="1.00" d=" M 126.24 97.24 C 128.93 96.05 137.41 95.67 134.41 100.47 C 131.65 100.72 123.93 102.02 126.24 97.24 Z" />
</g>
</svg>
