<?xml version="1.0" encoding="UTF-8" ?>
<!DOCTYPE svg PUBLIC "-//W3C//DTD SVG 1.1//EN" "http://www.w3.org/Graphics/SVG/1.1/DTD/svg11.dtd">
<svg width="192pt" height="192pt" viewBox="0 0 192 192" version="1.1" xmlns="http://www.w3.org/2000/svg">
<g id="#a51affff">
<path fill="#a51aff" opacity="1.00" d=" M 90.17 16.05 C 90.87 12.19 96.12 10.37 99.06 12.99 C 102.52 15.87 100.79 20.86 101.23 24.74 C 116.16 24.92 131.09 24.65 146.02 24.87 C 153.45 25.33 159.50 32.55 158.64 39.96 C 158.50 44.56 155.31 48.18 152.00 51.02 C 116.17 84.21 80.19 117.24 44.39 150.47 C 42.45 151.83 43.60 155.13 45.94 155.14 C 81.98 155.25 118.03 154.88 154.08 155.06 C 160.11 155.37 160.80 164.73 154.99 166.15 C 137.09 166.53 119.15 166.31 101.24 166.34 C 101.16 169.23 101.34 172.13 101.13 175.02 C 100.38 179.05 94.90 181.01 91.92 178.07 C 88.61 175.09 90.55 170.22 89.82 166.37 C 74.55 166.40 59.26 166.57 43.99 166.28 C 33.29 165.11 28.21 150.44 35.97 142.95 C 72.59 108.92 109.44 75.11 146.11 41.13 C 148.32 39.92 147.58 36.02 144.96 36.15 C 108.95 35.93 72.92 36.37 36.93 35.93 C 30.69 35.45 30.68 25.28 36.98 24.90 C 54.63 24.67 72.28 24.86 89.93 24.80 C 90.17 21.89 89.82 18.95 90.17 16.05 Z" />
</g>
</svg>
