<?xml version="1.0" encoding="UTF-8" ?>
<!DOCTYPE svg PUBLIC "-//W3C//DTD SVG 1.1//EN" "http://www.w3.org/Graphics/SVG/1.1/DTD/svg11.dtd">
<svg width="192pt" height="192pt" viewBox="0 0 192 192" version="1.1" xmlns="http://www.w3.org/2000/svg">
<g id="#ff8b1fff">
<path fill="#ff8b1f" opacity="1.00" d=" M 22.09 40.94 C 21.88 28.70 32.78 17.66 45.03 17.76 C 79.34 17.72 113.66 17.71 147.98 17.76 C 160.19 17.73 171.02 28.74 170.82 40.94 C 170.87 63.32 170.88 85.70 170.82 108.07 C 171.03 115.41 164.41 122.03 157.06 121.72 C 130.08 121.67 103.09 121.84 76.12 121.62 C 71.84 121.36 72.40 116.06 72.48 113.01 C 72.24 108.03 75.89 104.30 78.39 100.41 C 85.44 89.84 92.69 79.42 99.56 68.74 C 91.67 68.33 83.58 69.43 75.80 68.18 C 72.20 65.01 71.94 53.78 78.96 54.94 C 91.62 55.11 104.30 54.70 116.94 55.14 C 121.80 57.08 119.83 64.08 119.24 68.11 C 110.90 81.64 101.58 94.59 92.77 107.83 C 113.20 108.11 133.64 107.89 154.07 107.96 C 157.01 108.40 159.98 106.12 159.65 103.01 C 159.70 82.32 159.73 61.62 159.64 40.92 C 159.71 34.30 153.59 28.62 147.03 28.85 C 113.35 28.80 79.65 28.79 45.97 28.83 C 39.39 28.59 33.12 34.23 33.28 40.92 C 33.24 72.64 33.26 104.36 33.28 136.07 C 33.06 142.81 39.31 148.67 46.00 148.26 C 79.67 148.26 113.33 148.28 146.99 148.23 C 154.25 148.66 159.97 142.03 159.86 135.04 C 159.86 129.39 168.57 128.25 170.37 133.46 C 172.38 143.37 165.72 153.74 156.60 157.55 C 149.37 160.83 141.28 158.78 133.68 159.73 C 128.15 163.16 124.91 169.95 118.98 172.49 C 112.25 170.48 109.02 162.35 102.62 159.60 C 83.10 159.24 63.55 159.72 44.03 159.37 C 32.06 158.92 21.83 148.00 22.07 136.04 C 22.03 104.34 22.03 72.64 22.09 40.94 Z" />
</g>
</svg>
