<?xml version="1.0" encoding="UTF-8" ?>
<!DOCTYPE svg PUBLIC "-//W3C//DTD SVG 1.1//EN" "http://www.w3.org/Graphics/SVG/1.1/DTD/svg11.dtd">
<svg width="192pt" height="192pt" viewBox="0 0 192 192" version="1.1" xmlns="http://www.w3.org/2000/svg">
<g id="#19aeffff">
<path fill="#19aeff" opacity="1.00" d=" M 77.48 15.70 C 103.54 13.39 129.70 17.53 154.84 24.21 C 159.71 25.27 164.01 29.77 163.54 34.96 C 159.45 66.30 152.15 97.84 136.65 125.66 C 128.26 140.93 116.97 154.47 104.21 166.27 C 100.00 170.11 93.36 172.25 88.30 168.73 C 71.77 156.00 58.83 139.00 49.53 120.40 C 36.05 93.85 28.64 64.52 25.38 35.02 C 24.75 30.31 28.03 25.79 32.57 24.60 C 47.18 20.13 62.25 17.06 77.48 15.70 M 36.63 34.94 C 40.17 64.93 48.00 94.78 62.76 121.29 C 70.84 135.88 81.57 149.11 94.75 159.41 C 131.21 128.81 146.59 80.92 152.00 35.10 C 131.47 29.69 110.30 25.81 88.99 26.35 C 71.22 26.55 53.69 30.19 36.63 34.94 Z" />
<path fill="#19aeff" opacity="1.00" d=" M 101.11 55.87 C 95.79 54.63 96.49 45.92 101.98 45.60 C 109.84 46.00 117.59 47.73 125.19 49.72 C 129.28 50.54 132.36 54.77 131.34 58.93 C 128.29 80.53 122.22 103.43 106.17 119.14 C 101.77 123.40 94.66 116.27 98.92 111.86 C 112.10 97.62 117.73 78.31 120.47 59.51 C 114.14 57.67 107.59 56.89 101.11 55.87 Z" />
</g>
</svg>
