<?xml version="1.0" encoding="UTF-8" ?>
<!DOCTYPE svg PUBLIC "-//W3C//DTD SVG 1.1//EN" "http://www.w3.org/Graphics/SVG/1.1/DTD/svg11.dtd">
<svg width="192pt" height="192pt" viewBox="0 0 192 192" version="1.1" xmlns="http://www.w3.org/2000/svg">
<g id="#ff537eff">
<path fill="#ff537e" opacity="1.00" d=" M 113.44 15.38 C 119.53 10.05 130.04 16.03 128.62 23.98 C 125.46 45.96 122.02 67.89 118.81 89.86 C 131.06 90.56 143.34 90.85 155.58 91.67 C 161.82 92.42 165.25 100.49 161.54 105.54 C 145.22 128.90 128.94 152.30 112.49 175.56 C 107.65 182.52 95.41 178.53 95.58 170.06 C 98.52 146.85 102.59 123.77 105.71 100.58 C 82.93 99.58 60.14 98.56 37.36 97.43 C 29.84 97.01 26.60 86.20 32.62 81.68 C 59.53 59.54 86.46 37.42 113.44 15.38 M 44.49 86.44 C 65.47 87.52 86.45 88.41 107.44 89.35 C 110.64 68.63 113.73 47.89 116.79 27.15 C 92.69 46.92 68.62 66.72 44.49 86.44 M 117.09 101.20 C 114.07 121.59 110.93 141.97 107.96 162.38 C 121.94 142.49 135.93 122.61 149.75 102.61 C 138.86 102.26 127.98 101.50 117.09 101.20 Z" />
</g>
</svg>
