<?xml version="1.0" encoding="UTF-8" ?>
<!DOCTYPE svg PUBLIC "-//W3C//DTD SVG 1.1//EN" "http://www.w3.org/Graphics/SVG/1.1/DTD/svg11.dtd">
<svg width="192pt" height="192pt" viewBox="0 0 192 192" version="1.1" xmlns="http://www.w3.org/2000/svg">
<g id="#b09555ff">
<path fill="#b09555" opacity="1.00" d=" M 34.31 20.40 C 53.13 18.96 72.12 20.17 91.00 19.77 C 99.40 20.24 108.33 18.33 116.25 21.93 C 125.78 26.19 131.79 37.32 129.43 47.60 C 127.20 52.84 118.40 50.82 118.98 45.03 C 119.60 37.99 114.32 31.01 107.03 30.82 C 84.69 30.61 62.33 30.75 39.98 30.73 C 33.39 30.58 27.00 36.16 27.27 42.94 C 27.24 76.98 27.25 111.02 27.27 145.06 C 26.92 152.30 34.02 158.20 41.06 157.40 C 45.20 156.53 49.57 160.62 47.85 164.80 C 46.23 169.22 40.79 168.70 37.01 168.29 C 25.51 167.25 15.86 156.62 16.17 145.03 C 16.16 111.00 16.16 76.98 16.20 42.95 C 15.99 32.40 24.08 22.62 34.31 20.40 Z" />
<path fill="#b09555" opacity="1.00" d=" M 40.50 40.75 C 51.16 40.38 61.91 40.44 72.58 40.71 C 78.19 41.51 78.21 50.61 72.65 51.47 C 62.16 51.77 51.62 51.68 41.13 51.51 C 35.36 51.15 34.85 41.86 40.50 40.75 Z" />
<path fill="#b09555" opacity="1.00" d=" M 96.77 56.76 C 101.30 53.71 107.42 54.02 111.84 57.11 C 130.99 69.34 150.26 81.37 169.36 93.67 C 175.42 97.34 176.53 106.53 171.49 111.50 C 167.85 115.47 162.12 115.48 157.15 115.38 C 156.88 126.91 157.59 138.52 156.05 149.98 C 154.45 162.04 143.03 171.56 130.98 171.54 C 113.32 171.61 95.67 171.64 78.01 171.58 C 64.32 172.30 51.45 161.36 50.56 147.56 C 50.02 136.87 50.51 126.14 50.30 115.44 C 45.01 115.45 38.73 115.44 35.21 110.76 C 30.67 105.47 32.40 96.76 38.41 93.35 C 57.83 81.11 77.31 68.94 96.77 56.76 M 43.70 103.70 C 49.74 104.45 59.14 101.82 61.39 109.66 C 62.43 122.05 61.09 134.59 62.01 147.01 C 62.69 154.44 69.59 160.32 76.99 160.08 C 94.66 160.29 112.33 160.03 130.00 160.09 C 136.68 160.44 143.36 155.52 144.61 148.89 C 146.65 135.72 144.50 122.26 145.91 109.10 C 148.47 101.65 157.54 104.65 163.44 103.74 C 143.92 90.77 124.07 78.10 104.00 66.03 C 83.67 78.13 63.59 90.85 43.70 103.70 Z" />
<path fill="#b09555" opacity="1.00" d=" M 40.43 58.64 C 47.13 58.23 53.90 58.34 60.61 58.58 C 66.21 59.39 66.23 68.55 60.61 69.38 C 53.92 69.63 47.15 69.74 40.46 69.31 C 35.23 68.17 35.15 59.76 40.43 58.64 Z" />
</g>
</svg>
