<?xml version="1.0" encoding="UTF-8" ?>
<!DOCTYPE svg PUBLIC "-//W3C//DTD SVG 1.1//EN" "http://www.w3.org/Graphics/SVG/1.1/DTD/svg11.dtd">
<svg width="192pt" height="192pt" viewBox="0 0 192 192" version="1.1" xmlns="http://www.w3.org/2000/svg">
<g id="#f6b12cff">
<path fill="#f6b12c" opacity="1.00" d=" M 41.45 21.64 C 76.29 20.98 111.18 21.53 146.04 21.34 C 158.50 20.75 170.08 31.51 170.18 44.02 C 170.27 78.34 170.23 112.66 170.21 146.98 C 170.40 159.36 159.33 170.33 146.98 170.20 C 112.99 170.28 79.00 170.27 45.01 170.20 C 32.58 170.48 21.34 159.52 21.46 147.06 C 21.43 113.02 21.46 78.98 21.46 44.95 C 21.19 33.64 30.25 23.12 41.45 21.64 M 42.47 32.76 C 36.81 33.81 32.41 39.26 32.56 45.02 C 32.52 78.67 32.56 112.33 32.56 145.98 C 32.09 152.80 38.08 159.15 44.92 158.98 C 78.63 159.02 112.34 159.00 146.05 158.99 C 153.10 159.46 159.56 153.10 159.06 146.02 C 159.07 112.33 159.15 78.65 159.05 44.97 C 159.27 38.09 152.91 32.02 146.05 32.52 C 111.53 32.71 76.97 32.19 42.47 32.76 Z" />
<path fill="#f6b12c" opacity="1.00" d=" M 62.34 69.51 C 56.43 68.46 57.11 58.70 63.15 58.57 C 84.77 58.39 106.41 58.45 128.03 58.52 C 132.68 58.33 135.32 64.78 131.89 67.93 C 114.07 85.97 96.03 103.80 78.14 121.78 C 95.11 122.10 112.10 121.56 129.06 122.05 C 135.06 122.64 135.08 132.42 129.08 133.03 C 107.72 133.39 86.33 133.10 64.96 133.17 C 60.20 133.84 56.73 127.54 60.09 124.01 C 77.88 105.77 96.24 88.06 113.99 69.77 C 96.78 69.49 79.54 70.01 62.34 69.51 Z" />
</g>
</svg>
