<?xml version="1.0" encoding="UTF-8" ?>
<!DOCTYPE svg PUBLIC "-//W3C//DTD SVG 1.1//EN" "http://www.w3.org/Graphics/SVG/1.1/DTD/svg11.dtd">
<svg width="192pt" height="192pt" viewBox="0 0 192 192" version="1.1" xmlns="http://www.w3.org/2000/svg">
<g id="#23a9efff">
<path fill="#23a9ef" opacity="1.00" d=" M 75.01 32.43 C 68.74 31.99 68.88 21.77 75.13 21.44 C 99.10 21.22 123.09 21.35 147.07 21.34 C 159.18 21.25 170.09 31.90 170.20 44.02 C 170.25 78.68 170.28 113.33 170.19 147.99 C 170.04 156.65 163.25 168.33 153.11 165.05 C 121.93 148.78 90.50 132.93 59.21 116.85 C 55.17 115.24 54.20 109.33 57.60 106.59 C 63.88 102.45 72.18 100.23 77.64 95.67 C 62.53 88.31 48.01 79.72 32.61 72.96 C 32.53 97.64 32.54 122.31 32.62 146.98 C 32.60 153.46 38.50 159.10 44.93 158.98 C 69.27 159.13 93.62 158.79 117.95 159.14 C 123.86 160.35 123.12 169.99 117.03 170.16 C 93.04 170.36 69.03 170.23 45.02 170.22 C 32.92 170.48 21.86 160.13 21.48 148.01 C 21.38 120.67 21.44 93.33 21.47 65.99 C 21.18 61.57 26.22 57.90 30.33 59.65 C 51.64 68.64 71.67 80.33 92.40 90.54 C 96.78 92.15 97.47 99.08 93.23 101.22 C 86.69 104.69 79.95 107.77 73.39 111.20 C 99.87 125.29 126.91 138.36 153.40 152.46 C 155.89 154.14 158.72 151.55 158.82 148.96 C 159.29 142.99 159.00 136.99 158.91 131.01 C 150.35 126.26 141.71 121.65 132.99 117.21 C 129.10 121.95 123.25 125.36 116.95 124.75 C 105.95 124.91 97.12 113.69 99.29 102.99 C 100.84 89.00 119.40 82.46 129.89 91.55 C 131.95 90.55 134.02 89.56 136.07 88.54 C 101.56 70.05 66.31 52.84 32.00 33.98 C 26.67 30.12 32.66 21.09 38.30 24.78 C 75.37 44.48 112.81 63.49 150.08 82.81 C 154.56 84.57 155.12 91.53 150.86 93.87 C 146.04 96.47 140.99 98.64 136.13 101.16 C 136.28 102.83 136.41 104.51 136.52 106.19 C 144.01 110.15 151.55 114.01 159.02 118.01 C 159.06 93.67 159.10 69.31 159.03 44.97 C 159.23 38.47 153.50 32.52 147.00 32.57 C 123.00 32.46 99.00 32.70 75.01 32.43 Z" />
</g>
</svg>
