<?xml version="1.0" encoding="UTF-8" ?>
<!DOCTYPE svg PUBLIC "-//W3C//DTD SVG 1.1//EN" "http://www.w3.org/Graphics/SVG/1.1/DTD/svg11.dtd">
<svg width="192pt" height="192pt" viewBox="0 0 192 192" version="1.1" xmlns="http://www.w3.org/2000/svg">
<g id="#1bb4ffff">
<path fill="#1bb4ff" opacity="1.00" d=" M 91.03 20.02 C 93.25 17.26 97.71 17.32 99.90 20.08 C 124.00 44.33 148.19 68.50 172.18 92.85 C 176.57 97.06 170.61 104.96 165.38 101.58 C 160.33 97.45 156.11 92.37 151.37 87.89 C 151.37 113.93 151.38 139.97 151.37 166.01 C 151.84 169.63 148.65 172.94 145.01 172.54 C 112.01 172.56 79.00 172.54 45.99 172.53 C 42.34 172.96 39.08 169.65 39.57 166.00 C 39.67 145.34 39.39 124.66 39.72 104.01 C 40.34 97.94 50.14 98.07 50.65 104.11 C 50.97 123.12 50.66 142.15 50.81 161.17 C 80.56 161.21 110.31 161.18 140.06 161.15 C 140.12 133.75 140.06 106.35 140.12 78.95 C 140.20 77.57 139.98 76.09 138.81 75.19 C 124.44 60.72 110.07 46.25 95.70 31.78 C 73.71 52.69 52.76 74.80 31.19 96.19 C 28.34 98.71 25.57 103.56 21.09 101.95 C 17.01 100.78 15.97 94.89 19.27 92.27 C 43.15 68.15 67.11 44.11 91.03 20.02 Z" />
<path fill="#1bb4ff" opacity="1.00" d=" M 78.85 96.16 C 76.41 93.22 76.04 84.27 81.94 85.33 C 92.15 85.48 102.40 85.05 112.60 85.53 C 115.97 87.49 114.56 92.75 114.00 95.98 C 107.37 106.96 99.73 117.32 92.84 128.15 C 98.91 128.24 104.98 128.16 111.05 128.17 C 117.18 126.79 117.31 136.73 113.99 139.22 C 102.05 139.49 90.00 139.72 78.08 139.10 C 75.16 136.13 76.15 130.43 77.96 126.97 C 84.61 116.78 91.61 106.82 98.12 96.55 C 91.71 96.26 85.21 97.03 78.85 96.16 Z" />
</g>
</svg>
