<?xml version="1.0" encoding="UTF-8" ?>
<!DOCTYPE svg PUBLIC "-//W3C//DTD SVG 1.1//EN" "http://www.w3.org/Graphics/SVG/1.1/DTD/svg11.dtd">
<svg width="192pt" height="192pt" viewBox="0 0 192 192" version="1.1" xmlns="http://www.w3.org/2000/svg">
<g id="#a2a895ff">
<path fill="#a2a895" opacity="1.00" d=" M 37.70 33.70 C 58.75 13.19 91.26 5.74 119.19 14.77 C 145.35 22.79 166.73 44.69 173.75 71.19 C 180.50 95.00 175.76 121.98 160.66 141.66 C 156.50 146.07 148.72 140.07 152.00 134.93 C 163.23 119.31 168.00 99.19 164.41 80.24 C 150.97 83.41 137.67 87.29 124.37 91.04 C 125.23 102.98 118.32 114.69 107.69 120.05 C 111.21 133.37 114.70 146.70 118.56 159.92 C 125.00 157.67 130.82 154.10 136.60 150.56 C 141.85 148.07 146.90 155.77 142.61 159.61 C 125.21 172.53 102.34 177.78 80.99 174.18 C 51.38 169.48 25.35 147.30 16.39 118.62 C 6.33 89.29 15.13 54.87 37.70 33.70 M 81.46 23.48 C 85.08 36.71 88.69 49.95 92.21 63.20 C 104.18 62.54 116.12 69.18 121.44 79.99 C 134.78 76.47 148.08 72.82 161.39 69.21 C 150.62 37.17 114.57 16.33 81.46 23.48 M 24.79 106.11 C 38.08 102.62 51.30 98.88 64.58 95.37 C 63.93 83.36 70.63 71.59 81.37 66.16 C 77.75 52.88 74.31 39.54 70.50 26.31 C 38.57 37.21 17.78 72.99 24.79 106.11 M 89.32 75.40 C 79.92 77.98 73.80 88.78 76.78 98.13 C 79.13 107.19 89.14 113.27 98.26 111.14 C 107.92 109.36 114.90 98.93 112.61 89.33 C 110.66 79.14 99.26 72.17 89.32 75.40 M 27.65 117.01 C 38.51 149.08 74.41 169.63 107.58 162.86 C 104.11 149.60 100.42 136.41 96.90 123.17 C 84.91 123.58 72.93 117.12 67.59 106.22 C 54.26 109.76 40.96 113.38 27.65 117.01 Z" />
</g>
</svg>
