<?xml version="1.0" encoding="UTF-8" ?>
<!DOCTYPE svg PUBLIC "-//W3C//DTD SVG 1.1//EN" "http://www.w3.org/Graphics/SVG/1.1/DTD/svg11.dtd">
<svg width="192pt" height="192pt" viewBox="0 0 192 192" version="1.1" xmlns="http://www.w3.org/2000/svg">
<g id="#ec2fadff">
<path fill="#ec2fad" opacity="1.00" d=" M 26.95 22.96 C 32.30 18.69 39.49 18.69 46.00 18.74 C 68.66 18.87 91.32 18.52 113.98 18.90 C 123.96 18.85 134.19 25.69 135.50 36.06 C 136.73 43.62 133.45 51.04 128.97 56.96 C 112.64 79.00 96.68 101.35 80.21 123.29 C 76.08 128.33 67.57 121.74 71.52 116.45 C 87.80 93.81 104.48 71.43 120.86 48.85 C 123.55 45.05 125.75 39.92 123.60 35.37 C 121.96 31.76 117.78 30.37 114.09 30.21 C 88.71 29.96 63.32 29.70 37.95 30.28 C 32.00 30.43 28.03 38.39 32.02 43.02 C 34.35 46.09 38.54 45.93 42.00 46.05 C 57.69 46.10 73.38 46.04 89.07 45.92 C 94.17 45.65 97.49 52.39 94.27 56.32 C 74.41 83.73 54.41 111.06 34.59 138.49 C 31.52 142.99 26.97 148.05 28.90 153.92 C 30.46 159.00 36.35 160.36 41.02 160.25 C 67.02 160.23 93.02 160.30 119.01 160.16 C 124.38 160.47 129.73 155.58 128.03 149.97 C 127.88 145.42 122.67 144.57 119.09 144.46 C 100.06 144.11 81.00 144.60 61.97 144.15 C 55.94 143.56 55.98 133.70 62.02 133.19 C 80.00 132.82 98.01 133.09 116.01 133.01 C 123.10 133.00 131.24 134.09 135.89 140.09 C 141.20 147.42 140.90 158.81 134.30 165.30 C 130.06 169.54 124.00 171.68 118.05 171.56 C 92.69 171.60 67.33 171.51 41.98 171.54 C 34.51 171.68 26.32 169.71 21.53 163.54 C 15.28 155.98 16.23 144.57 21.95 136.99 C 40.87 110.17 60.58 83.91 79.65 57.19 C 66.10 57.16 52.55 57.24 39.00 57.16 C 31.77 57.22 24.38 53.41 21.20 46.75 C 17.03 38.79 19.74 28.23 26.95 22.96 Z" />
<path fill="#ec2fad" opacity="1.00" d=" M 114.95 98.99 C 110.23 99.42 110.25 90.85 114.94 91.17 C 121.94 90.93 128.97 90.84 135.97 91.20 C 139.43 91.38 140.18 96.72 137.47 98.42 C 135.26 99.58 132.67 99.25 130.28 99.34 C 128.78 108.26 130.37 117.38 129.39 126.35 C 128.91 131.05 121.24 130.62 120.94 126.03 C 120.25 117.75 120.97 109.41 120.55 101.11 C 120.35 98.32 116.79 99.50 114.95 98.99 Z" />
<path fill="#ec2fad" opacity="1.00" d=" M 142.11 96.91 C 140.09 92.71 145.94 88.29 149.18 91.86 C 153.43 98.18 153.63 106.79 158.88 112.44 C 161.76 105.97 163.36 98.97 166.64 92.69 C 168.76 88.33 176.30 91.66 174.40 96.10 C 170.63 106.80 166.76 117.53 161.69 127.69 C 160.10 131.50 154.66 129.73 153.76 126.32 C 149.70 116.59 145.75 106.80 142.11 96.91 Z" />
</g>
</svg>
