<?xml version="1.0" encoding="UTF-8" ?>
<!DOCTYPE svg PUBLIC "-//W3C//DTD SVG 1.1//EN" "http://www.w3.org/Graphics/SVG/1.1/DTD/svg11.dtd">
<svg width="192pt" height="192pt" viewBox="0 0 192 192" version="1.1" xmlns="http://www.w3.org/2000/svg">
<g id="#7ec7e9ff">
<path fill="#7ec7e9" opacity="1.00" d=" M 39.31 21.39 C 42.48 20.61 45.76 20.72 49.00 20.72 C 81.66 20.77 114.32 20.68 146.98 20.74 C 158.87 20.65 169.48 31.09 169.83 42.93 C 169.84 48.18 170.25 53.49 169.60 58.71 C 168.29 63.66 160.53 63.78 159.04 58.88 C 158.20 53.35 159.22 47.71 158.50 42.16 C 157.65 36.28 151.94 31.69 146.04 31.89 C 112.69 31.82 79.34 31.85 45.99 31.82 C 40.21 31.46 34.41 35.40 33.08 41.12 C 31.96 46.88 33.19 52.80 32.40 58.59 C 31.49 62.25 26.53 63.80 23.66 61.35 C 21.06 59.42 21.56 55.84 21.48 53.00 C 21.64 47.35 20.93 41.48 23.00 36.08 C 25.59 28.90 31.89 23.21 39.31 21.39 Z" />
<path fill="#7ec7e9" opacity="1.00" d=" M 22.69 71.71 C 32.26 71.31 41.87 71.65 51.46 71.56 C 52.84 74.83 52.74 78.76 50.69 81.74 C 44.83 91.02 39.09 100.40 33.15 109.64 C 39.59 110.14 46.23 108.81 52.52 110.45 C 52.52 112.77 52.52 115.09 52.53 117.41 C 42.29 118.79 31.66 118.40 21.35 117.60 C 21.23 114.53 20.52 111.10 22.34 108.36 C 28.24 98.80 34.35 89.37 40.14 79.74 C 34.20 79.56 28.24 79.98 22.32 79.53 C 21.03 77.42 20.64 73.41 22.69 71.71 Z" />
<path fill="#7ec7e9" opacity="1.00" d=" M 143.36 71.48 C 149.81 70.62 156.58 70.35 162.93 71.95 C 168.21 73.24 169.72 79.19 169.76 83.93 C 169.74 92.40 170.28 100.94 169.39 109.38 C 169.09 114.87 164.05 118.46 158.83 118.48 C 151.84 118.48 143.50 120.16 137.66 115.35 C 132.61 107.97 135.36 98.37 134.63 90.00 C 134.32 83.12 134.42 72.51 143.36 71.48 M 148.32 79.43 C 145.83 79.46 144.58 81.97 144.58 84.17 C 144.34 90.79 144.47 97.43 144.50 104.06 C 142.99 113.10 161.52 113.06 159.97 104.08 C 159.89 97.08 160.31 90.05 159.73 83.08 C 158.96 77.74 152.10 79.36 148.32 79.43 Z" />
<path fill="#7ec7e9" opacity="1.00" d=" M 59.15 74.93 C 58.00 69.79 69.99 69.78 68.75 74.95 C 68.68 89.16 68.94 103.37 68.64 117.58 C 65.58 118.37 62.42 118.33 59.35 117.61 C 58.83 103.40 59.27 89.16 59.15 74.93 Z" />
<path fill="#7ec7e9" opacity="1.00" d=" M 76.78 74.99 C 76.13 70.09 82.86 71.18 85.69 72.14 C 91.16 80.83 94.98 90.52 100.16 99.41 C 100.61 90.41 99.83 81.35 100.57 72.37 C 103.32 71.02 110.70 69.96 110.08 74.97 C 109.96 89.21 110.62 103.51 109.73 117.72 C 106.58 117.98 101.84 119.52 100.02 116.00 C 95.48 107.29 91.20 98.44 86.60 89.77 C 86.43 98.82 86.90 107.89 86.39 116.93 C 84.10 119.22 80.16 117.93 77.22 117.75 C 76.20 103.55 77.04 89.23 76.78 74.99 Z" />
<path fill="#7ec7e9" opacity="1.00" d=" M 118.37 72.19 C 121.27 71.19 128.48 69.89 127.75 74.94 C 127.69 89.15 127.94 103.37 127.64 117.57 C 124.59 118.01 117.83 119.93 118.03 115.06 C 118.22 100.77 117.63 86.43 118.37 72.19 Z" />
<path fill="#7ec7e9" opacity="1.00" d=" M 24.40 127.50 C 27.51 125.59 32.09 127.73 32.51 131.37 C 33.01 136.90 32.25 142.47 32.87 147.99 C 33.67 153.76 39.13 158.48 44.99 158.28 C 78.66 158.31 112.33 158.26 146.00 158.26 C 152.05 158.64 157.77 153.81 158.52 147.83 C 159.13 142.26 158.34 136.63 158.91 131.06 C 159.54 127.07 165.00 125.43 167.92 128.10 C 170.31 130.00 169.90 133.31 169.95 136.01 C 169.74 142.84 170.83 150.13 167.47 156.42 C 163.66 164.46 154.94 169.74 146.07 169.57 C 112.05 169.56 78.03 169.63 44.02 169.51 C 31.00 169.34 20.34 156.84 21.49 144.00 C 22.32 138.64 19.27 131.22 24.40 127.50 Z" />
</g>
</svg>
