<?xml version="1.0" encoding="UTF-8" ?>
<!DOCTYPE svg PUBLIC "-//W3C//DTD SVG 1.1//EN" "http://www.w3.org/Graphics/SVG/1.1/DTD/svg11.dtd">
<svg width="192pt" height="192pt" viewBox="0 0 192 192" version="1.1" xmlns="http://www.w3.org/2000/svg">
<g id="#2ab9a1ff">
<path fill="#2ab9a1" opacity="1.00" d=" M 20.12 41.96 C 19.89 29.72 30.81 18.73 43.02 18.76 C 77.34 18.74 111.65 18.72 145.97 18.75 C 158.19 18.73 169.04 29.74 168.84 41.96 C 168.87 64.30 168.99 86.64 168.81 108.98 C 168.58 114.84 159.26 115.60 157.93 109.95 C 157.29 102.18 157.93 94.33 157.56 86.54 C 134.07 109.54 110.95 132.96 87.70 156.22 C 106.79 156.39 125.88 156.27 144.96 156.26 C 150.19 156.47 155.35 152.97 156.94 147.97 C 158.48 143.48 157.00 138.64 158.03 134.08 C 159.42 129.56 166.50 129.28 168.31 133.63 C 169.72 137.91 168.96 142.54 168.70 146.95 C 167.54 158.16 157.29 167.43 146.02 167.50 C 111.67 167.55 77.33 167.52 42.98 167.48 C 31.03 167.47 20.35 157.03 20.11 145.07 C 20.02 110.70 20.11 76.33 20.12 41.96 M 31.28 41.93 C 31.22 62.66 31.33 83.38 31.23 104.11 C 56.04 79.47 80.91 54.87 105.35 29.86 C 84.90 29.73 64.45 29.82 44.00 29.77 C 37.43 29.60 31.07 35.19 31.28 41.93 M 119.72 31.72 C 90.32 61.28 60.62 90.58 31.34 120.24 C 31.28 129.12 31.14 138.02 31.42 146.90 C 32.95 147.08 33.71 145.57 34.73 144.73 C 72.75 106.53 111.09 68.64 148.95 30.29 C 140.33 29.33 131.61 30.05 122.95 29.83 C 121.53 29.59 120.64 30.91 119.72 31.72 M 39.80 155.86 C 49.83 156.89 59.97 156.05 70.05 156.33 C 71.55 156.66 72.46 155.26 73.42 154.40 C 101.38 126.35 129.47 98.43 157.41 70.35 C 157.72 59.85 158.17 49.08 157.12 38.59 C 117.86 77.50 78.69 116.57 39.80 155.86 Z" />
</g>
</svg>
