<?xml version="1.0" encoding="UTF-8" ?>
<!DOCTYPE svg PUBLIC "-//W3C//DTD SVG 1.1//EN" "http://www.w3.org/Graphics/SVG/1.1/DTD/svg11.dtd">
<svg width="192pt" height="192pt" viewBox="0 0 192 192" version="1.1" xmlns="http://www.w3.org/2000/svg">
<g id="#b56c5bff">
<path fill="#b56c5b" opacity="1.00" d=" M 125.83 29.95 C 131.32 20.28 144.86 16.88 154.41 22.45 C 164.03 27.34 168.48 40.10 163.84 49.88 C 159.99 57.99 156.09 66.08 152.20 74.16 C 150.01 77.69 153.62 81.37 153.52 85.08 C 156.19 103.89 138.64 121.68 119.76 119.56 C 113.79 127.24 105.40 135.03 95.00 134.62 C 80.57 134.62 66.13 134.45 51.70 134.58 C 49.03 140.75 43.45 145.63 36.73 146.74 C 26.58 148.80 15.83 141.14 14.29 130.92 C 12.21 120.73 19.88 110.00 30.12 108.49 C 39.86 106.58 50.07 113.39 52.32 123.00 C 66.53 123.50 80.76 123.00 94.98 123.27 C 100.44 123.64 104.46 119.30 108.15 115.92 C 99.44 111.34 92.72 102.90 91.69 92.93 C 89.27 79.03 98.10 65.06 110.91 59.85 C 117.37 50.79 120.39 39.66 125.83 29.95 M 141.34 31.43 C 135.92 32.77 134.11 38.56 132.04 43.04 C 129.15 50.78 125.18 58.04 121.28 65.30 C 118.65 70.29 112.36 70.81 108.71 74.71 C 103.81 79.23 101.59 86.42 103.22 92.91 C 105.35 104.68 120.02 111.26 130.62 106.53 C 137.09 103.66 141.70 96.98 142.34 89.97 C 143.05 84.00 138.10 78.53 140.54 72.57 C 144.64 62.86 149.83 53.63 153.92 43.92 C 156.36 36.64 148.50 29.20 141.34 31.43 M 29.46 120.61 C 24.41 123.23 23.99 131.11 28.82 134.19 C 33.51 137.82 41.21 134.25 41.45 128.31 C 42.31 122.17 34.72 117.18 29.46 120.61 Z" />
<path fill="#b56c5b" opacity="1.00" d=" M 77.50 31.55 C 86.27 23.10 99.49 22.80 110.93 23.25 C 116.38 24.73 115.76 33.62 110.03 34.06 C 101.30 34.57 91.28 33.83 84.47 40.45 C 72.59 52.24 60.30 63.63 48.39 75.41 C 45.79 77.69 44.44 82.05 47.27 84.72 C 52.89 90.05 61.41 86.88 67.89 90.08 C 67.91 96.49 66.13 102.71 65.08 108.99 C 64.53 113.15 58.79 115.20 55.83 112.17 C 51.73 109.02 56.55 103.11 53.34 99.63 C 49.00 97.74 43.93 97.12 40.40 93.63 C 33.01 87.78 32.12 75.59 38.91 68.95 C 51.64 56.34 64.66 44.03 77.50 31.55 Z" />
<path fill="#b56c5b" opacity="1.00" d=" M 167.31 70.35 C 170.39 68.48 173.92 71.22 174.56 74.34 C 178.97 90.92 178.78 109.13 172.13 125.09 C 167.02 137.38 154.70 147.13 141.00 146.53 C 135.70 147.13 129.21 144.72 125.01 149.05 C 118.20 155.64 111.45 162.68 102.89 166.98 C 91.44 171.95 78.52 170.70 66.59 168.47 C 57.64 166.63 52.23 156.89 53.34 148.23 C 54.43 144.54 59.44 143.18 62.37 145.60 C 65.74 148.19 63.69 153.40 66.79 156.20 C 69.75 159.08 74.29 158.08 78.02 158.43 C 84.87 158.27 92.15 159.32 98.62 156.59 C 107.87 151.57 114.10 142.61 122.46 136.47 C 131.23 132.76 141.57 137.60 150.31 133.26 C 159.05 128.97 163.30 119.16 164.90 110.04 C 166.34 99.45 166.98 88.45 163.80 78.09 C 162.64 75.06 164.37 71.58 167.31 70.35 Z" />
</g>
</svg>
