<?xml version="1.0" encoding="UTF-8" ?>
<!DOCTYPE svg PUBLIC "-//W3C//DTD SVG 1.1//EN" "http://www.w3.org/Graphics/SVG/1.1/DTD/svg11.dtd">
<svg width="192pt" height="192pt" viewBox="0 0 192 192" version="1.1" xmlns="http://www.w3.org/2000/svg">
<g id="#6cbd6dff">
<path fill="#6cbd6d" opacity="1.00" d=" M 84.41 13.50 C 103.24 10.69 123.07 15.29 138.64 26.28 C 157.67 39.46 170.09 61.79 170.80 84.97 C 170.96 98.10 171.67 111.58 167.36 124.20 C 157.44 157.30 122.46 180.64 88.05 176.27 C 81.89 174.71 83.58 164.51 90.00 165.31 C 108.55 166.78 127.65 160.06 140.71 146.71 C 154.40 133.39 160.71 113.86 159.62 95.00 C 160.50 79.15 156.80 62.75 147.03 50.00 C 134.33 32.60 112.44 22.45 90.94 24.21 C 60.65 25.52 34.31 51.41 31.69 81.48 C 31.21 94.79 30.22 108.56 34.61 121.38 C 39.20 135.76 49.19 148.18 61.99 156.10 C 65.80 158.04 65.92 164.15 61.99 166.02 C 58.63 167.94 55.25 165.27 52.57 163.40 C 32.94 149.98 20.39 126.85 20.05 103.05 C 20.10 94.71 19.63 86.32 20.71 78.03 C 24.54 45.51 51.96 17.78 84.41 13.50 Z" />
<path fill="#6cbd6d" opacity="1.00" d=" M 53.34 64.51 C 61.56 64.06 69.83 64.44 78.07 64.32 C 80.40 64.05 83.25 65.36 83.31 68.01 C 83.65 75.02 83.35 82.04 83.43 89.06 C 88.10 89.45 92.85 88.73 97.47 89.50 C 101.49 90.98 100.23 97.82 95.87 97.52 C 89.82 97.50 83.70 97.91 77.68 97.29 C 73.85 95.53 75.20 90.59 74.89 87.24 C 65.18 93.01 51.45 86.08 50.37 74.86 C 50.32 71.44 48.86 65.71 53.34 64.51 Z" />
<path fill="#6cbd6d" opacity="1.00" d=" M 108.44 64.56 C 115.93 63.94 123.49 64.52 131.02 64.28 C 133.55 64.34 137.03 63.82 138.35 66.63 C 140.72 75.26 136.40 85.72 127.45 88.45 C 117.69 92.11 106.09 84.35 105.65 73.98 C 105.60 70.80 104.55 65.90 108.44 64.56 Z" />
<path fill="#6cbd6d" opacity="1.00" d=" M 68.57 139.02 C 69.52 123.87 85.52 112.16 100.27 115.91 C 112.06 118.33 121.35 129.80 120.72 141.91 C 120.75 144.43 118.43 146.73 115.89 146.62 C 103.53 146.76 91.16 146.62 78.80 146.66 C 78.70 156.01 79.10 165.40 78.62 174.74 C 77.53 180.14 68.66 179.37 68.53 173.84 C 68.40 162.24 68.36 150.62 68.57 139.02 Z" />
</g>
</svg>
