<?xml version="1.0" encoding="UTF-8" ?>
<!DOCTYPE svg PUBLIC "-//W3C//DTD SVG 1.1//EN" "http://www.w3.org/Graphics/SVG/1.1/DTD/svg11.dtd">
<svg width="192pt" height="192pt" viewBox="0 0 192 192" version="1.1" xmlns="http://www.w3.org/2000/svg">
<g id="#44e372ff">
<path fill="#44e372" opacity="1.00" d=" M 82.33 14.40 C 114.17 8.84 148.19 24.44 164.91 52.05 C 177.26 71.67 180.53 96.64 173.81 118.81 C 165.16 148.79 137.97 172.31 107.00 176.36 C 75.74 181.30 42.58 165.93 26.04 138.98 C 8.62 112.11 9.38 74.99 27.86 48.85 C 40.33 30.60 60.46 17.77 82.33 14.40 M 84.36 25.45 C 59.18 29.12 37.00 47.67 28.68 71.68 C 20.85 93.45 24.59 118.98 38.60 137.45 C 57.91 164.44 97.16 173.90 126.64 158.65 C 155.85 144.79 172.33 109.45 163.90 78.17 C 156.06 43.59 119.32 19.10 84.36 25.45 Z" />
<path fill="#44e372" opacity="1.00" d=" M 120.30 54.34 C 135.48 49.86 152.50 61.35 154.25 77.01 C 156.97 92.57 143.81 108.31 128.01 108.33 C 113.93 109.01 100.80 97.15 100.05 83.08 C 98.74 70.25 107.83 57.49 120.30 54.34 M 122.36 65.48 C 115.18 67.70 110.27 75.39 111.32 82.84 C 112.13 91.66 121.19 98.60 129.93 96.83 C 139.16 95.51 145.56 85.16 142.62 76.31 C 140.39 67.91 130.61 62.52 122.36 65.48 Z" />
<path fill="#44e372" opacity="1.00" d=" M 55.36 63.41 C 68.67 61.49 82.09 71.72 83.94 85.00 C 86.52 98.50 76.48 112.71 62.89 114.75 C 48.73 117.70 33.94 106.35 32.79 92.00 C 30.96 78.39 41.71 64.80 55.36 63.41 M 58.22 74.47 C 51.26 74.49 44.95 80.10 44.05 86.98 C 42.55 94.94 48.94 103.23 57.02 103.82 C 64.32 104.72 71.63 99.17 72.78 91.92 C 74.71 83.17 67.18 74.06 58.22 74.47 Z" />
<path fill="#44e372" opacity="1.00" d=" M 117.41 74.38 C 123.66 70.27 129.65 80.77 123.35 84.30 C 117.09 88.62 110.78 77.87 117.41 74.38 Z" />
<path fill="#44e372" opacity="1.00" d=" M 60.41 90.47 C 63.98 89.38 67.52 93.51 65.90 96.89 C 64.75 100.09 59.98 100.78 57.96 98.08 C 55.80 95.59 57.15 91.17 60.41 90.47 Z" />
<path fill="#44e372" opacity="1.00" d=" M 85.63 133.06 C 86.53 129.97 88.99 127.74 91.29 125.64 C 91.75 128.77 92.04 132.03 91.23 135.13 C 90.31 138.44 84.81 135.94 85.63 133.06 Z" />
<path fill="#44e372" opacity="1.00" d=" M 96.33 126.18 C 101.30 127.42 105.29 133.44 105.62 138.49 C 98.04 141.22 94.83 132.06 96.33 126.18 Z" />
</g>
</svg>
