<?xml version="1.0" encoding="UTF-8" ?>
<!DOCTYPE svg PUBLIC "-//W3C//DTD SVG 1.1//EN" "http://www.w3.org/Graphics/SVG/1.1/DTD/svg11.dtd">
<svg width="192pt" height="192pt" viewBox="0 0 192 192" version="1.1" xmlns="http://www.w3.org/2000/svg">
<g id="#4eda71ff">
<path fill="#4eda71" opacity="1.00" d=" M 82.33 14.39 C 114.92 8.67 149.74 25.23 166.06 53.95 C 184.02 83.70 179.91 124.68 156.17 150.11 C 133.41 176.22 93.33 184.71 61.92 170.10 C 29.58 156.22 9.01 119.83 14.07 84.94 C 17.99 49.74 47.28 19.45 82.33 14.39 M 84.37 25.46 C 59.19 29.11 37.01 47.68 28.69 71.68 C 20.85 93.45 24.60 118.98 38.60 137.44 C 57.34 163.59 94.77 173.40 123.96 159.91 C 154.39 147.01 172.39 111.09 164.09 79.00 C 156.63 44.03 119.63 19.03 84.37 25.46 Z" />
<path fill="#4eda71" opacity="1.00" d=" M 65.28 47.29 C 72.65 45.26 81.03 48.33 85.35 54.62 C 90.12 61.11 89.94 70.69 84.93 77.00 C 80.48 82.87 72.41 85.73 65.28 83.72 C 57.36 81.77 51.28 74.17 51.23 66.00 C 50.83 57.49 57.03 49.30 65.28 47.29 M 67.34 58.45 C 61.93 60.18 60.70 68.31 65.44 71.51 C 69.90 75.29 77.61 71.72 77.56 65.86 C 78.01 60.57 72.22 56.54 67.34 58.45 Z" />
<path fill="#4eda71" opacity="1.00" d=" M 114.33 47.41 C 125.99 43.57 139.11 53.79 138.33 66.01 C 138.32 75.73 129.71 84.27 120.02 84.35 C 111.05 84.73 102.52 77.85 101.03 68.99 C 99.08 59.77 105.24 49.83 114.33 47.41 M 117.28 58.33 C 111.70 59.74 110.11 67.92 114.73 71.33 C 119.06 75.30 127.04 71.92 126.99 65.99 C 127.61 60.85 122.10 56.73 117.28 58.33 Z" />
<path fill="#4eda71" opacity="1.00" d=" M 58.16 123.01 C 57.68 112.21 67.11 102.28 77.92 102.18 C 89.31 102.09 100.70 102.04 112.09 102.20 C 123.11 102.51 132.44 113.00 131.44 123.99 C 131.04 133.43 123.42 141.36 114.29 143.09 C 114.66 154.58 94.93 154.67 95.23 143.21 C 88.81 143.07 82.38 143.50 75.98 142.99 C 66.18 141.95 58.06 132.88 58.16 123.01 M 74.23 130.79 C 80.95 133.21 88.41 131.43 95.43 131.93 C 94.38 126.22 98.84 120.18 104.98 121.35 C 110.89 120.43 114.98 126.20 113.95 131.68 C 122.26 128.84 122.08 115.68 113.31 113.74 C 101.31 113.15 89.20 113.44 77.17 113.59 C 68.73 114.42 66.57 127.17 74.23 130.79 Z" />
</g>
</svg>
