<?xml version="1.0" encoding="UTF-8" ?>
<!DOCTYPE svg PUBLIC "-//W3C//DTD SVG 1.1//EN" "http://www.w3.org/Graphics/SVG/1.1/DTD/svg11.dtd">
<svg width="192pt" height="192pt" viewBox="0 0 192 192" version="1.1" xmlns="http://www.w3.org/2000/svg">
<g id="#18b7c5ff">
<path fill="#18b7c5" opacity="1.00" d=" M 130.91 21.88 C 137.14 15.71 146.73 13.13 155.15 15.77 C 165.53 18.81 173.87 28.95 173.50 39.97 C 173.20 48.36 168.33 55.80 162.51 61.52 C 127.92 94.24 93.53 127.18 60.09 161.08 C 54.74 166.68 48.26 172.62 39.97 172.41 C 28.16 173.29 16.91 163.70 15.48 152.02 C 13.43 139.10 24.01 126.29 36.99 125.48 C 51.29 125.14 65.61 125.45 79.92 125.31 C 101.05 105.66 121.75 85.57 142.13 65.15 C 149.27 57.67 159.56 51.74 162.06 41.02 C 163.79 29.52 147.85 21.15 139.46 29.42 C 114.55 54.00 89.79 78.75 65.03 103.48 C 69.30 103.76 73.91 102.41 77.97 104.09 C 82.53 106.41 81.01 114.20 75.87 114.48 C 68.22 114.66 60.57 114.96 52.92 115.08 C 47.47 115.44 44.10 107.97 48.30 104.31 C 75.71 76.72 103.31 49.29 130.91 21.88 Z" />
<path fill="#18b7c5" opacity="1.00" d=" M 18.44 33.06 C 20.39 23.06 30.83 15.43 41.00 16.15 C 67.29 16.51 93.67 15.62 119.90 16.68 C 112.79 23.06 107.01 34.25 96.00 33.16 C 70.15 33.05 44.29 33.24 18.44 33.06 Z" />
<path fill="#18b7c5" opacity="1.00" d=" M 32.60 58.82 C 34.93 48.56 45.69 41.49 56.00 42.26 C 68.62 42.48 81.36 41.62 93.89 42.80 C 87.76 48.26 83.09 56.45 74.95 58.95 C 60.86 59.22 46.70 59.38 32.60 58.82 Z" />
<path fill="#18b7c5" opacity="1.00" d=" M 109.34 125.43 C 123.02 124.27 137.94 123.63 150.40 130.52 C 162.89 137.15 171.56 150.10 173.56 164.02 C 174.31 168.48 170.64 172.99 165.99 172.52 C 135.33 172.60 104.65 172.62 74.00 172.49 C 68.49 172.66 66.65 164.87 70.78 161.80 C 81.89 151.57 92.32 140.65 102.99 129.98 C 104.83 128.14 106.80 126.25 109.34 125.43 M 87.96 161.13 C 112.44 161.22 136.93 161.19 161.41 161.12 C 158.41 150.61 150.26 141.66 139.83 138.22 C 131.19 135.11 121.89 136.56 112.92 136.15 C 104.45 144.33 96.35 152.87 87.96 161.13 Z" />
</g>
</svg>
