<?xml version="1.0" encoding="UTF-8" ?>
<!DOCTYPE svg PUBLIC "-//W3C//DTD SVG 1.1//EN" "http://www.w3.org/Graphics/SVG/1.1/DTD/svg11.dtd">
<svg width="192pt" height="192pt" viewBox="0 0 192 192" version="1.1" xmlns="http://www.w3.org/2000/svg">
<g id="#a51affff">
<path fill="#a51aff" opacity="1.00" d=" M 39.35 21.46 C 42.49 20.63 45.77 20.72 48.99 20.72 C 81.99 20.78 114.99 20.67 147.99 20.77 C 159.48 20.91 169.73 30.76 170.48 42.19 C 170.60 47.32 170.82 52.48 170.38 57.59 C 169.39 62.66 161.46 63.14 159.82 58.25 C 158.63 52.62 160.12 46.75 158.99 41.10 C 157.58 35.42 151.81 31.46 146.02 31.82 C 112.67 31.83 79.32 31.79 45.98 31.81 C 40.55 31.61 35.08 35.06 33.48 40.35 C 31.88 46.24 33.66 52.48 32.38 58.40 C 30.64 62.97 23.23 62.65 22.01 57.89 C 21.35 52.97 21.77 47.96 21.76 43.01 C 22.09 32.99 29.64 23.83 39.35 21.46 Z" />
<path fill="#a51aff" opacity="1.00" d=" M 21.36 75.45 C 29.43 74.94 37.58 75.24 45.68 75.33 C 46.39 78.16 46.60 81.34 44.80 83.82 C 39.99 91.50 35.18 99.18 30.32 106.82 C 35.57 107.05 40.83 106.80 46.07 107.17 C 46.32 109.18 46.41 111.21 46.54 113.24 C 38.01 114.95 28.98 114.12 20.30 113.67 C 20.02 110.89 19.57 107.79 21.35 105.38 C 26.20 97.67 31.06 89.96 35.87 82.23 C 30.98 82.06 26.02 82.65 21.17 81.93 C 19.90 80.47 19.74 76.59 21.36 75.45 Z" />
<path fill="#a51aff" opacity="1.00" d=" M 51.34 83.39 C 56.79 75.26 68.73 72.75 77.01 77.97 C 85.55 82.83 88.98 94.65 84.26 103.31 C 80.47 111.12 71.22 115.08 62.83 113.48 C 59.66 119.48 57.18 125.87 53.64 131.65 C 50.82 134.93 44.73 131.50 46.34 127.35 C 48.93 121.33 52.08 115.57 54.88 109.65 C 47.37 103.31 45.39 91.40 51.34 83.39 M 64.32 84.42 C 59.04 85.76 55.45 91.68 56.92 96.98 C 58.03 101.85 63.01 105.45 67.99 104.89 C 73.82 104.60 78.54 98.60 77.42 92.86 C 76.64 86.90 70.09 82.71 64.32 84.42 Z" />
<path fill="#a51aff" opacity="1.00" d=" M 106.35 75.39 C 114.80 74.09 123.69 79.18 126.82 87.13 C 130.23 94.92 127.58 104.73 120.78 109.79 C 114.67 114.58 105.60 115.13 99.02 111.00 C 91.97 106.92 88.26 98.02 90.21 90.13 C 91.87 82.50 98.61 76.37 106.35 75.39 M 106.31 84.40 C 98.64 86.08 95.80 97.03 101.88 102.12 C 107.22 107.67 117.67 104.47 119.16 96.96 C 121.31 89.62 113.58 82.17 106.31 84.40 Z" />
<path fill="#a51aff" opacity="1.00" d=" M 131.77 77.96 C 131.34 73.81 137.76 74.82 140.05 75.97 C 144.23 83.31 147.50 91.18 151.34 98.72 C 154.88 91.74 158.18 84.64 161.65 77.63 C 162.77 74.16 168.72 74.37 170.63 76.32 C 171.07 88.72 170.94 101.20 170.68 113.62 C 168.17 113.91 164.60 115.07 162.78 112.90 C 162.38 105.75 162.78 98.58 162.53 91.42 C 159.39 97.76 156.34 104.13 153.14 110.43 C 151.66 110.31 149.58 111.09 148.91 109.24 C 145.84 103.44 143.04 97.49 140.20 91.57 C 139.65 98.93 140.17 106.31 139.72 113.67 C 137.23 113.90 133.72 115.06 131.90 112.90 C 131.55 101.27 131.82 89.60 131.77 77.96 Z" />
<path fill="#a51aff" opacity="1.00" d=" M 25.40 129.47 C 28.57 128.21 32.56 130.64 32.74 134.08 C 33.12 138.72 32.48 143.39 33.07 148.01 C 33.83 153.74 39.21 158.38 44.99 158.31 C 78.99 158.35 113.00 158.32 147.00 158.30 C 152.53 158.46 157.76 154.35 159.01 148.99 C 160.04 143.61 158.69 138.04 159.78 132.68 C 161.37 127.88 169.01 128.13 170.31 133.01 C 170.90 137.95 170.60 142.98 170.49 147.96 C 169.81 159.81 158.89 169.79 147.05 169.54 C 113.01 169.55 78.98 169.56 44.95 169.52 C 35.87 169.53 27.17 163.71 23.65 155.35 C 20.88 149.28 21.85 142.45 21.69 135.98 C 21.42 133.30 22.68 130.34 25.40 129.47 Z" />
</g>
</svg>
