<?xml version="1.0" encoding="UTF-8" ?>
<!DOCTYPE svg PUBLIC "-//W3C//DTD SVG 1.1//EN" "http://www.w3.org/Graphics/SVG/1.1/DTD/svg11.dtd">
<svg width="192pt" height="192pt" viewBox="0 0 192 192" version="1.1" xmlns="http://www.w3.org/2000/svg">
<g id="#ff623cff">
<path fill="#ff623c" opacity="1.00" d=" M 41.43 18.64 C 76.28 17.96 111.18 18.53 146.06 18.34 C 158.51 17.75 170.09 28.48 170.18 41.00 C 170.28 71.99 170.23 102.99 170.21 133.98 C 170.38 145.62 160.64 156.24 149.05 157.10 C 137.75 157.62 126.42 156.87 115.13 157.45 C 106.37 159.29 104.81 171.57 96.00 173.14 C 86.72 171.94 85.23 158.63 75.87 157.38 C 64.91 156.97 53.92 157.54 42.96 157.12 C 31.26 156.41 21.32 145.78 21.45 134.05 C 21.43 103.35 21.44 72.64 21.45 41.94 C 21.16 30.63 30.23 20.11 41.43 18.64 M 42.48 29.77 C 36.82 30.81 32.43 36.25 32.58 42.01 C 32.55 72.67 32.52 103.34 32.61 134.01 C 32.55 140.51 38.47 146.16 44.93 146.02 C 78.98 146.03 113.04 146.07 147.09 145.97 C 153.82 146.00 159.52 139.72 159.07 133.03 C 159.08 102.67 159.15 72.30 159.05 41.95 C 159.25 35.07 152.91 29.02 146.05 29.53 C 111.53 29.72 76.98 29.21 42.48 29.77 Z" />
<path fill="#ff623c" opacity="1.00" d=" M 46.64 55.55 C 55.76 54.86 64.93 55.30 74.06 55.24 C 76.98 54.96 77.85 59.43 76.00 61.06 C 70.51 66.59 65.04 72.15 59.78 77.89 C 63.07 78.24 66.39 78.25 69.68 77.85 C 69.08 73.54 69.39 66.05 75.76 69.18 C 78.09 73.59 76.51 79.52 76.53 84.50 C 67.74 85.70 58.80 85.03 49.96 84.99 C 46.52 85.35 45.71 80.80 47.72 78.73 C 52.91 72.99 58.82 67.93 64.01 62.18 C 60.58 62.11 57.15 62.11 53.72 62.17 C 53.61 64.39 53.65 66.61 53.41 68.83 C 53.48 72.11 48.37 72.33 46.73 70.27 C 45.99 65.41 46.42 60.44 46.64 55.55 Z" />
<path fill="#ff623c" opacity="1.00" d=" M 81.70 55.61 C 86.62 54.72 91.72 55.29 96.70 55.33 C 96.76 57.50 96.79 59.67 96.76 61.83 C 93.91 62.12 91.05 62.13 88.19 62.22 C 87.99 67.47 87.93 72.73 88.18 77.98 C 93.46 78.22 98.75 78.26 104.03 77.93 C 104.50 70.36 103.87 62.78 103.95 55.20 C 106.10 55.45 109.99 54.26 110.35 57.42 C 111.01 65.59 110.62 73.85 110.59 82.04 C 110.94 85.17 107.30 85.56 105.00 85.39 C 97.68 85.21 90.34 85.69 83.04 85.15 C 79.74 84.05 81.18 79.63 80.81 76.99 C 81.36 69.92 79.75 62.37 81.70 55.61 Z" />
<path fill="#ff623c" opacity="1.00" d=" M 115.43 56.35 C 119.71 53.81 125.66 55.60 130.57 55.40 C 130.61 57.50 130.61 59.61 130.60 61.71 C 127.73 62.11 124.83 62.20 121.93 62.23 C 121.80 67.47 121.75 72.71 121.97 77.95 C 127.26 78.23 132.56 78.25 137.84 77.91 C 138.24 70.32 137.62 62.73 137.74 55.15 C 139.96 55.47 143.94 54.20 144.62 57.23 C 145.12 64.82 144.73 72.45 144.84 80.06 C 144.89 82.07 144.90 85.39 142.05 85.29 C 134.03 85.43 125.98 85.48 117.96 85.26 C 114.28 85.06 115.06 80.53 114.93 78.00 C 115.27 70.80 114.36 63.48 115.43 56.35 Z" />
<path fill="#ff623c" opacity="1.00" d=" M 46.90 92.02 C 46.72 89.68 49.41 90.15 50.94 89.98 C 59.22 90.06 67.50 89.81 75.77 90.16 C 76.95 95.47 76.61 100.94 76.38 106.33 C 71.26 109.54 66.17 112.94 60.55 115.24 C 59.95 111.33 60.54 106.31 65.02 105.07 C 68.76 104.13 70.52 100.83 69.76 97.13 C 64.38 96.57 58.92 96.51 53.55 97.16 C 53.28 105.11 53.74 113.09 53.21 121.02 C 52.91 124.55 47.25 124.42 46.99 120.94 C 46.47 111.33 46.65 101.64 46.90 92.02 Z" />
<path fill="#ff623c" opacity="1.00" d=" M 81.29 90.30 C 90.19 89.71 99.15 89.94 108.07 90.04 C 111.74 89.82 111.68 97.09 107.94 96.71 C 98.89 97.01 89.82 96.71 80.77 96.28 C 80.91 94.28 81.09 92.29 81.29 90.30 Z" />
<path fill="#ff623c" opacity="1.00" d=" M 115.40 90.41 C 124.84 89.44 134.48 89.98 143.98 90.17 C 143.90 96.52 147.77 106.62 139.72 109.24 C 141.44 111.51 143.67 113.34 145.39 115.60 C 146.28 118.03 143.34 119.38 142.02 120.86 C 138.52 118.86 136.32 115.32 132.98 113.15 C 127.98 114.70 124.01 118.58 118.92 119.87 C 115.21 120.26 115.06 115.64 115.12 113.05 C 115.41 105.52 114.02 97.81 115.40 90.41 M 122.19 96.97 C 121.69 101.45 121.78 105.98 121.97 110.48 C 126.73 108.12 131.46 105.67 136.06 103.03 C 138.23 101.91 137.46 99.18 137.69 97.22 C 132.55 96.55 127.35 96.79 122.19 96.97 Z" />
<path fill="#ff623c" opacity="1.00" d=" M 80.94 101.76 C 88.55 101.20 96.20 101.47 103.82 101.54 C 107.62 101.38 107.76 108.91 103.84 108.54 C 98.49 108.90 93.12 108.41 87.76 108.76 C 87.80 110.11 87.85 111.47 87.92 112.83 C 94.92 113.23 101.96 112.54 108.94 113.19 C 111.53 113.91 110.38 117.33 110.33 119.30 C 102.59 120.32 94.75 119.52 86.97 119.80 C 85.03 119.57 81.83 120.36 81.18 117.84 C 80.44 112.52 80.93 107.11 80.94 101.76 Z" />
</g>
</svg>
