<?xml version="1.0" encoding="UTF-8" ?>
<!DOCTYPE svg PUBLIC "-//W3C//DTD SVG 1.1//EN" "http://www.w3.org/Graphics/SVG/1.1/DTD/svg11.dtd">
<svg width="192pt" height="192pt" viewBox="0 0 192 192" version="1.1" xmlns="http://www.w3.org/2000/svg">
<g id="#f7a830ff">
<path fill="#f7a830" opacity="1.00" d=" M 14.12 45.91 C 13.94 41.05 18.02 36.64 22.96 36.80 C 52.31 36.66 81.67 36.75 111.02 36.75 C 115.54 36.48 119.88 39.85 120.38 44.41 C 120.87 50.67 120.43 56.96 120.60 63.23 C 129.67 63.39 138.75 63.02 147.81 63.42 C 155.17 63.79 161.72 68.67 164.81 75.25 C 168.80 83.24 173.25 91.07 176.51 99.37 C 177.17 108.91 176.70 118.51 176.79 128.07 C 177.05 132.60 173.66 137.08 169.00 137.41 C 163.63 137.81 158.23 137.46 152.85 137.57 C 152.03 146.45 144.14 154.19 135.00 153.54 C 126.25 153.57 119.38 146.00 118.28 137.67 C 104.90 137.58 91.52 137.84 78.16 137.54 C 72.59 137.12 72.60 127.94 78.19 127.53 C 88.93 127.13 99.70 127.63 110.46 127.44 C 110.52 100.51 110.73 73.55 110.37 46.63 C 81.67 46.78 52.97 46.67 24.27 46.69 C 24.23 68.23 24.28 89.77 24.25 111.31 C 27.76 111.05 32.72 112.47 31.97 116.97 C 31.97 121.03 27.37 121.77 24.21 121.56 C 24.21 123.50 24.21 125.44 24.20 127.38 C 28.20 127.40 32.20 127.39 36.20 127.46 C 42.10 118.69 55.80 116.83 63.02 124.96 C 71.42 133.11 67.58 148.91 56.41 152.36 C 46.15 156.45 34.58 148.18 33.68 137.51 C 29.14 137.34 24.46 138.10 20.01 136.95 C 15.77 135.77 13.82 131.16 14.06 127.08 C 14.08 100.02 13.98 72.96 14.12 45.91 M 120.70 73.38 C 120.71 91.43 120.66 109.48 120.73 127.53 C 127.38 117.19 143.52 116.84 150.16 127.36 C 155.65 127.47 161.13 127.34 166.61 127.36 C 166.60 125.45 166.58 123.54 166.57 121.63 C 163.02 122.02 158.28 120.40 158.82 116.01 C 158.88 111.88 163.53 111.19 166.75 111.31 C 166.72 109.35 166.70 107.38 166.68 105.42 C 157.11 105.38 147.52 105.57 137.96 105.25 C 126.39 104.55 122.02 86.39 131.41 80.35 C 139.19 77.97 147.60 79.92 155.63 79.17 C 153.52 75.89 150.05 73.28 146.00 73.39 C 137.57 73.31 129.13 73.38 120.70 73.38 M 136.77 89.38 C 136.81 91.42 136.18 94.90 139.07 95.15 C 147.21 95.55 155.39 95.22 163.56 95.29 C 162.60 93.33 161.63 91.38 160.64 89.44 C 152.68 89.39 144.72 89.49 136.77 89.38 M 135.19 129.49 C 130.17 129.69 126.67 136.09 129.74 140.27 C 132.36 144.74 139.61 144.37 141.86 139.75 C 144.42 135.18 140.38 129.02 135.19 129.49 M 48.41 131.47 C 41.65 134.30 47.07 145.25 53.44 141.36 C 59.66 138.31 54.65 128.32 48.41 131.47 Z" />
<path fill="#f7a830" opacity="1.00" d=" M 44.36 69.42 C 52.16 66.12 61.88 72.53 61.87 80.99 C 62.58 88.16 56.15 94.88 49.00 94.65 C 42.85 94.91 37.06 90.06 36.09 84.01 C 34.79 77.98 38.56 71.44 44.36 69.42 Z" />
</g>
</svg>
