<?xml version="1.0" encoding="UTF-8" ?>
<!DOCTYPE svg PUBLIC "-//W3C//DTD SVG 1.1//EN" "http://www.w3.org/Graphics/SVG/1.1/DTD/svg11.dtd">
<svg width="192pt" height="192pt" viewBox="0 0 192 192" version="1.1" xmlns="http://www.w3.org/2000/svg">
<g id="#4de56cff">
<path fill="#4de56c" opacity="1.00" d=" M 38.32 22.32 C 42.43 21.09 46.77 21.35 51.01 21.34 C 83.00 21.38 114.99 21.29 146.97 21.36 C 159.11 21.22 170.06 31.84 170.18 44.00 C 170.18 62.67 170.45 81.37 170.05 100.03 C 169.32 105.86 159.84 105.78 159.25 99.92 C 158.83 81.61 159.31 63.27 159.04 44.95 C 159.22 38.44 153.50 32.50 146.97 32.57 C 112.96 32.53 78.95 32.54 44.95 32.55 C 38.30 32.35 32.37 38.37 32.59 45.00 C 32.52 78.66 32.58 112.33 32.57 145.99 C 32.15 152.45 37.47 158.60 43.95 158.92 C 61.92 159.29 79.94 158.62 97.90 159.23 C 103.79 160.28 103.08 170.01 97.04 170.10 C 79.35 170.31 61.64 170.22 43.95 170.14 C 31.88 169.97 21.34 159.11 21.45 147.05 C 21.42 113.02 21.44 78.98 21.45 44.94 C 21.24 34.75 28.52 25.06 38.32 22.32 Z" />
<path fill="#4de56c" opacity="1.00" d=" M 109.35 46.47 C 119.55 43.26 131.02 48.98 135.81 58.26 C 140.43 66.60 139.57 78.11 132.74 84.99 C 130.23 87.11 126.71 83.30 128.92 80.91 C 133.26 75.04 134.50 66.81 130.61 60.39 C 125.56 50.74 110.93 48.50 103.28 56.28 C 96.57 62.41 96.23 73.38 101.62 80.47 C 104.50 83.11 100.05 87.60 97.57 84.51 C 86.15 72.37 93.16 50.16 109.35 46.47 Z" />
<path fill="#4de56c" opacity="1.00" d=" M 102.99 72.54 C 100.94 64.61 107.64 55.77 116.02 56.59 C 123.97 56.69 129.63 65.02 127.76 72.55 C 124.76 68.65 121.33 64.09 115.77 64.50 C 110.00 63.73 105.96 68.28 102.99 72.54 Z" />
<path fill="#4de56c" opacity="1.00" d=" M 109.98 77.00 C 110.90 69.50 123.03 68.89 124.75 76.26 C 125.82 84.65 124.86 93.18 125.34 101.62 C 129.87 100.80 135.47 100.20 138.56 104.44 C 140.78 108.46 145.33 105.15 148.74 106.26 C 151.95 106.96 153.67 110.04 156.27 111.73 C 159.57 112.93 163.42 113.32 165.83 116.17 C 170.62 121.17 170.33 128.57 170.24 135.00 C 169.95 142.10 171.29 149.63 168.18 156.30 C 164.60 164.53 155.96 170.15 147.00 170.21 C 137.00 170.34 126.99 170.23 116.98 170.27 C 114.30 170.41 111.28 169.65 110.13 166.96 C 102.32 152.03 94.42 137.13 86.88 122.07 C 84.38 117.55 86.51 110.71 92.16 110.22 C 98.09 109.21 100.66 115.60 103.58 119.45 C 105.02 122.22 109.86 121.14 109.55 117.86 C 110.11 104.26 109.25 90.59 109.98 77.00 Z" />
</g>
</svg>
