<?xml version="1.0" encoding="UTF-8" ?>
<!DOCTYPE svg PUBLIC "-//W3C//DTD SVG 1.1//EN" "http://www.w3.org/Graphics/SVG/1.1/DTD/svg11.dtd">
<svg width="192pt" height="192pt" viewBox="0 0 192 192" version="1.1" xmlns="http://www.w3.org/2000/svg">
<g id="#f6b12dff">
<path fill="#f6b12d" opacity="1.00" d=" M 62.87 33.83 C 72.62 18.30 94.22 11.54 111.05 18.93 C 123.47 24.08 132.62 36.11 134.50 49.39 C 135.69 58.23 134.97 67.18 135.25 76.06 C 135.25 77.80 136.80 78.95 137.74 80.25 C 149.66 93.88 154.48 113.41 150.02 130.99 C 145.11 151.40 127.63 168.20 106.97 172.08 C 91.73 175.28 75.25 171.60 62.80 162.24 C 45.76 149.92 37.07 127.61 41.01 106.98 C 45.27 82.26 67.99 62.43 93.03 61.34 C 103.47 60.69 113.78 63.63 123.07 68.24 C 123.05 59.71 124.30 50.59 120.23 42.71 C 115.13 32.13 102.56 26.02 91.08 28.25 C 79.14 30.11 69.35 40.97 68.77 53.04 C 68.71 55.81 68.59 59.30 65.66 60.64 C 61.86 63.02 56.55 59.31 57.28 54.96 C 57.88 47.69 59.19 40.23 62.87 33.83 M 90.43 73.57 C 65.87 76.04 47.38 101.93 52.92 125.98 C 56.32 143.85 71.87 158.58 89.95 160.86 C 105.59 163.15 122.09 156.10 131.27 143.23 C 141.91 128.98 142.58 108.16 132.71 93.34 C 123.86 79.43 106.81 71.33 90.43 73.57 Z" />
<path fill="#f6b12d" opacity="1.00" d=" M 87.24 104.28 C 90.99 97.22 102.22 96.66 106.52 103.45 C 110.53 108.85 108.46 116.51 103.18 120.22 C 102.91 125.50 103.26 130.79 103.00 136.07 C 102.80 142.13 91.52 142.07 91.28 136.05 C 91.07 130.74 91.38 125.43 91.13 120.12 C 86.14 116.68 83.86 109.61 87.24 104.28 Z" />
</g>
</svg>
